<?xml version="1.0" encoding="UTF-8"?>
<svg xmlns="http://www.w3.org/2000/svg" xmlns:xlink="http://www.w3.org/1999/xlink" version="1.2" >
<font id="Cadillac Sans SemiBold Italic">
<font-face  font-family="Cadillac Sans" units-per-em="1000" ascent="750" descent="-250" font-style="italic" font-weight="600" font-stretch="normal" slope="-12" cap-height="700" x-height="542" underline-position="-75" underline-thickness="50" />
<missing-glyph  horiz-adv-x="603" d="M464 -100 L-20 -100 L172 800 L656 800 L464 -100 Z M260 707 L107 -7 L376 -7 L529 707 L260 707 Z " />
<glyph glyph-name=".null" d="" />
<glyph glyph-name="nonmarkingreturn" unicode="&#xd;" horiz-adv-x="196" d="" />
<glyph glyph-name="space" unicode="&#x20;" horiz-adv-x="204" d="" />
<glyph glyph-name="A" unicode="A" horiz-adv-x="626" d="M561 86 L543 0 L410 0 L401 166 L179 166 L100 0 L-32 0 L-14 86 L297 700 L512 700 L561 86 Z M395 284 L379 581 L376 581 L235 284 L395 284 Z " />
<glyph glyph-name="B" unicode="B" horiz-adv-x="603" d="M496 365 Q519 354 539 336 Q559 318 567 295 L529 119 Q498 68 439 34 Q380 0 310 0 L1 0 L151 700 L419 700 Q497 700 548.5 664.5 Q600 629 616 581 L587 441 Q573 417 547.5 396.5 Q522 376 496 365 Z M466 537 Q451 585 377 585 L280 585 L244 413 L352 413 Q382 413 407 425.5 Q432 438 450 463 L466 537 Z M419 263 Q411 285 387 297.5 Q363 310 328 310 L222 310 L180 115 L284 115 Q326 115 353.5 128.5 Q381 142 399 168 L419 263 Z " />
<glyph glyph-name="C" unicode="C" horiz-adv-x="606" d="M637 573 L621 501 L491 501 Q489 542 460 568.5 Q431 595 381 595 Q341 595 309.5 577 Q278 559 259 530 L182 170 Q187 143 214 124.5 Q241 106 283 106 Q377 106 422 199 L557 199 L540 127 Q507 68 441 26.5 Q375 -15 269 -15 Q196 -15 142.5 8.5 Q89 32 59 67 Q29 102 21 138 L112 562 Q146 625 216.5 670 Q287 715 394 715 Q466 715 517.5 692.5 Q569 670 598 637.5 Q627 605 637 573 Z " />
<glyph glyph-name="D" unicode="D" horiz-adv-x="629" d="M642 562 L551 138 Q518 75 451.5 37.5 Q385 0 289 0 L1 0 L151 700 L418 700 Q516 700 572 659.5 Q628 619 642 562 Z M280 583 L180 117 L279 117 Q322 117 355 134.5 Q388 152 406 179 L481 526 Q464 583 376 583 L280 583 Z " />
<glyph glyph-name="E" unicode="E" horiz-adv-x="538" d="M558 582 L280 582 L244 417 L504 417 L479 299 L219 299 L180 118 L466 118 L440 0 L1 0 L151 700 L583 700 L558 582 Z " />
<glyph glyph-name="F" unicode="F" horiz-adv-x="516" d="M546 582 L280 582 L242 411 L497 411 L472 293 L218 293 L155 0 L1 0 L151 700 L572 700 L546 582 Z " />
<glyph glyph-name="G" unicode="G" horiz-adv-x="626" d="M259 530 L182 170 Q187 143 213.5 124.5 Q240 106 282 106 Q324 106 355.5 123 Q387 140 405 166 L428 273 L322 273 L347 390 L597 390 L514 0 L392 0 L403 50 Q376 21 335 3 Q294 -15 241 -15 Q177 -15 130 8.5 Q83 32 56 67.5 Q29 103 21 139 L112 562 Q145 623 216.5 669 Q288 715 394 715 Q467 715 518.5 692.5 Q570 670 598.5 637.5 Q627 605 637 573 L621 501 L490 501 Q487 542 459 568.5 Q431 595 382 595 Q341 595 309 576.5 Q277 558 259 530 Z " />
<glyph glyph-name="H" unicode="H" horiz-adv-x="655" d="M538 0 L384 0 L448 302 L219 302 L155 0 L1 0 L151 700 L305 700 L245 420 L473 420 L533 700 L687 700 L538 0 Z " />
<glyph glyph-name="I" unicode="I" horiz-adv-x="272" d="M155 0 L1 0 L151 700 L305 700 L155 0 Z " />
<glyph glyph-name="J" unicode="J" horiz-adv-x="387" d="M303 139 Q224 -2 30 -2 Q-16 -2 -38 0 L-13 117 L25 117 Q113 117 158 179 L269 700 L423 700 L303 139 Z " />
<glyph glyph-name="K" unicode="K" horiz-adv-x="615" d="M529 0 L415 0 L289 306 L204 230 L155 0 L1 0 L151 700 L305 700 L249 437 L535 700 L651 700 L633 614 L408 413 L547 86 L529 0 Z " />
<glyph glyph-name="L" unicode="L" horiz-adv-x="458" d="M180 118 L403 118 L378 0 L1 0 L151 700 L305 700 L180 118 Z " />
<glyph glyph-name="M" unicode="M" horiz-adv-x="806" d="M544 0 L652 504 L649 504 L421 144 L330 144 L255 504 L252 504 L144 0 L1 0 L151 700 L348 700 L417 359 L420 359 L626 700 L838 700 L688 0 L544 0 Z " />
<glyph glyph-name="N" unicode="N" horiz-adv-x="667" d="M381 0 L249 472 L246 472 L144 0 L1 0 L151 700 L320 700 L452 228 L455 228 L557 700 L700 700 L550 0 L381 0 Z " />
<glyph glyph-name="O" unicode="O" horiz-adv-x="626" d="M640 562 L549 139 Q510 73 441.5 29 Q373 -15 266 -15 Q193 -15 140.5 8.5 Q88 32 58.5 67 Q29 102 21 139 L112 562 Q149 626 218.5 670.5 Q288 715 394 715 Q467 715 520 691.5 Q573 668 602.5 633 Q632 598 640 562 Z M259 530 L182 170 Q186 143 213 124.5 Q240 106 281 106 Q322 106 352 124 Q382 142 401 170 L479 530 Q473 557 446.5 576 Q420 595 379 595 Q338 595 307 576.5 Q276 558 259 530 Z " />
<glyph glyph-name="P" unicode="P" horiz-adv-x="590" d="M621 581 L577 375 Q537 314 479 285 Q421 256 343 256 L210 256 L155 0 L1 0 L151 700 L412 700 Q491 700 543.5 670 Q596 640 621 581 Z M463 534 Q454 558 431 570.5 Q408 583 378 583 L280 583 L235 373 L329 373 Q367 373 394 385.5 Q421 398 440 426 L463 534 Z " />
<glyph glyph-name="Q" unicode="Q" horiz-adv-x="626" d="M387 4 Q396 -17 414.5 -29.5 Q433 -42 451 -42 L515 -42 L492 -149 L414 -149 Q378 -149 343 -131 Q308 -113 282.5 -82 Q257 -51 250 -14 Q182 -12 133 12 Q84 36 56.5 70 Q29 104 21 139 L112 562 Q149 626 218.5 670.5 Q288 715 394 715 Q467 715 520 691.5 Q573 668 602.5 633 Q632 598 640 562 L549 139 Q491 41 387 4 Z M479 530 Q473 557 446.5 576 Q420 595 379 595 Q338 595 307 576.5 Q276 558 259 530 L182 170 Q186 143 213 124.5 Q240 106 281 106 Q322 106 352 124 Q382 142 401 170 L479 530 Z " />
<glyph glyph-name="R" unicode="R" horiz-adv-x="606" d="M625 581 L586 397 Q532 315 446 289 L530 86 L512 0 L397 0 L293 277 L214 277 L155 0 L1 0 L151 700 L421 700 Q501 700 552.5 669 Q604 638 625 581 Z M468 532 Q461 556 438.5 569.5 Q416 583 383 583 L280 583 L237 387 L334 387 Q373 387 403 400 Q433 413 449 438 L468 532 Z " />
<glyph glyph-name="S" unicode="S" horiz-adv-x="592" d="M608 591 L593 519 L463 519 Q457 553 432 574 Q407 595 361 595 Q327 595 300 580.5 Q273 566 257 546 L240 469 Q245 455 258.5 446.5 Q272 438 310 426 L372 407 Q457 383 494 354.5 Q531 326 550 284 L515 119 Q426 -15 248 -15 Q175 -15 122.5 6.5 Q70 28 41.5 59 Q13 90 4 119 L20 191 L150 191 Q155 152 184.5 129 Q214 106 262 106 Q302 106 331 122.5 Q360 139 377 164 L393 238 Q388 255 370.5 266.5 Q353 278 314 290 L248 310 Q171 331 136.5 356.5 Q102 382 82 423 L118 591 Q152 641 218 678 Q284 715 381 715 Q447 715 495.5 695.5 Q544 676 572 647.5 Q600 619 608 591 Z " />
<glyph glyph-name="T" unicode="T" horiz-adv-x="544" d="M585 582 L416 582 L291 0 L137 0 L262 582 L91 582 L117 700 L610 700 L585 582 Z " />
<glyph glyph-name="U" unicode="U" horiz-adv-x="640" d="M555 139 Q520 78 448 31.5 Q376 -15 269 -15 Q196 -15 144.5 8.5 Q93 32 65 67 Q37 102 28 139 L148 700 L302 700 L188 171 Q195 143 219 125 Q243 107 284 107 Q326 107 357 125.5 Q388 144 408 171 L521 700 L675 700 L555 139 Z " />
<glyph glyph-name="V" unicode="V" horiz-adv-x="629" d="M361 0 L151 0 L99 614 L118 700 L252 700 L282 148 L285 148 L553 700 L694 700 L675 614 L361 0 Z " />
<glyph glyph-name="W" unicode="W" horiz-adv-x="918" d="M706 0 L509 0 L498 452 L495 452 L292 0 L96 0 L104 614 L123 700 L260 700 L241 172 L244 172 L478 700 L616 700 L626 172 L629 172 L835 700 L978 700 L960 614 L706 0 Z " />
<glyph glyph-name="X" unicode="X" horiz-adv-x="597" d="M414 356 L521 86 L503 0 L377 0 L299 257 L296 257 L109 0 L-22 0 L-4 86 L217 359 L115 614 L133 700 L257 700 L334 454 L337 454 L516 700 L647 700 L628 614 L414 356 Z " />
<glyph glyph-name="Y" unicode="Y" horiz-adv-x="579" d="M365 279 L306 0 L151 0 L214 294 L101 614 L120 700 L239 700 L318 432 L321 432 L511 700 L642 700 L624 614 L365 279 Z " />
<glyph glyph-name="Z" unicode="Z" horiz-adv-x="558" d="M193 118 L489 118 L463 0 L-22 0 L-1 100 L397 582 L108 582 L133 700 L613 700 L592 600 L193 118 Z " />
<glyph glyph-name="Agrave" unicode="&#xc0;" horiz-adv-x="626" d="M561 86 L543 0 L410 0 L401 166 L179 166 L100 0 L-32 0 L-14 86 L297 700 L512 700 L561 86 Z M395 284 L379 581 L376 581 L235 284 L395 284 Z M454 747 L356 747 L296 845 L310 907 L433 907 L458 763 L454 747 Z " />
<glyph glyph-name="Aacute" unicode="&#xc1;" horiz-adv-x="626" d="M561 86 L543 0 L410 0 L401 166 L179 166 L100 0 L-32 0 L-14 86 L297 700 L512 700 L561 86 Z M395 284 L379 581 L376 581 L235 284 L395 284 Z M454 747 L350 747 L353 763 L437 907 L570 907 L556 845 L454 747 Z " />
<glyph glyph-name="Acircumflex" unicode="&#xc2;" horiz-adv-x="626" d="M561 86 L543 0 L410 0 L401 166 L179 166 L100 0 L-32 0 L-14 86 L297 700 L512 700 L561 86 Z M395 284 L379 581 L376 581 L235 284 L395 284 Z M587 747 L491 747 L440 843 L350 747 L244 747 L247 763 L358 907 L541 907 L591 763 L587 747 Z " />
<glyph glyph-name="Atilde" unicode="&#xc3;" horiz-adv-x="626" d="M561 86 L543 0 L410 0 L401 166 L179 166 L100 0 L-32 0 L-14 86 L297 700 L512 700 L561 86 Z M395 284 L379 581 L376 581 L235 284 L395 284 Z M452 856 Q466 845 473.5 841 Q481 837 492 837 Q519 837 532 862 L536 881 L620 881 L607 824 Q593 792 560.5 769.5 Q528 747 486 747 Q458 747 441.5 755 Q425 763 407 778 Q395 788 386.5 792.5 Q378 797 367 797 Q342 797 328 773 L324 752 L241 752 L253 810 Q266 843 299 865 Q332 887 373 887 Q400 887 417 879 Q434 871 452 856 Z " />
<glyph glyph-name="Adieresis" unicode="&#xc4;" horiz-adv-x="626" d="M561 86 L543 0 L410 0 L401 166 L179 166 L100 0 L-32 0 L-14 86 L297 700 L512 700 L561 86 Z M395 284 L379 581 L376 581 L235 284 L395 284 Z M401 860 L384 781 Q355 752 308 752 Q263 752 244 781 L261 860 Q292 888 337 888 Q382 888 401 860 Z M617 860 L600 781 Q574 752 524 752 Q479 752 460 781 L477 860 Q508 888 553 888 Q598 888 617 860 Z " />
<glyph glyph-name="Amacron" unicode="&#x100;" horiz-adv-x="626" d="M561 86 L543 0 L410 0 L401 166 L179 166 L100 0 L-32 0 L-14 86 L297 700 L512 700 L561 86 Z M395 284 L379 581 L376 581 L235 284 L395 284 Z M248 761 L268 857 L610 857 L590 761 L248 761 Z " />
<glyph glyph-name="Abreve" unicode="&#x102;" horiz-adv-x="626" d="M561 86 L543 0 L410 0 L401 166 L179 166 L100 0 L-32 0 L-14 86 L297 700 L512 700 L561 86 Z M395 284 L379 581 L376 581 L235 284 L395 284 Z M601 827 Q578 788 533.5 763.5 Q489 739 425 739 Q359 739 317 764 Q275 789 261 827 L275 888 L379 888 L370 850 Q373 838 387 827 Q401 816 429 816 Q457 816 475 826.5 Q493 837 502 850 L510 888 L615 888 L601 827 Z " />
<glyph glyph-name="Aring" unicode="&#xc5;" horiz-adv-x="626" d="M561 86 L543 0 L410 0 L401 166 L179 166 L100 0 L-32 0 L-14 86 L297 700 L323 700 Q294 719 286 742 L305 834 Q324 861 358.5 878.5 Q393 896 435 896 Q478 896 510 879 Q542 862 553 834 L534 742 Q516 717 487 700 L512 700 L561 86 Z M357 762 Q361 753 374 745.5 Q387 738 409 738 Q431 738 447 745.5 Q463 753 470 762 L482 814 Q478 823 465 830.5 Q452 838 430 838 Q408 838 392.5 831 Q377 824 368 814 L357 762 Z M395 284 L379 581 L376 581 L235 284 L395 284 Z " />
<glyph glyph-name="Aogonek" unicode="&#x104;" horiz-adv-x="626" d="M432 -100 L425 -125 Q429 -132 440.5 -136.5 Q452 -141 467 -141 Q489 -141 514 -133 L498 -210 Q484 -218 467 -221.5 Q450 -225 423 -225 Q383 -225 351.5 -210 Q320 -195 313 -170 L330 -93 Q341 -75 368 -49 Q395 -23 429 0 L410 0 L401 166 L179 166 L100 0 L-32 0 L-14 86 L297 700 L512 700 L561 86 L543 0 Q455 -61 432 -100 Z M395 284 L379 581 L376 581 L235 284 L395 284 Z " />
<glyph glyph-name="AE" unicode="&#xc6;" horiz-adv-x="863" d="M765 0 L328 0 L366 176 L203 176 L97 0 L-32 0 L-14 86 L372 700 L908 700 L883 582 L607 582 L572 417 L830 417 L805 299 L547 299 L508 118 L791 118 L765 0 Z M453 584 L450 584 L275 294 L391 294 L453 584 Z " />
<glyph glyph-name="Cacute" unicode="&#x106;" horiz-adv-x="606" d="M637 573 L621 501 L491 501 Q489 542 460 568.5 Q431 595 381 595 Q341 595 309.5 577 Q278 559 259 530 L182 170 Q187 143 214 124.5 Q241 106 283 106 Q377 106 422 199 L557 199 L540 127 Q507 68 441 26.5 Q375 -15 269 -15 Q196 -15 142.5 8.5 Q89 32 59 67 Q29 102 21 138 L112 562 Q146 625 216.5 670 Q287 715 394 715 Q466 715 517.5 692.5 Q569 670 598 637.5 Q627 605 637 573 Z M456 747 L352 747 L355 763 L439 907 L572 907 L558 845 L456 747 Z " />
<glyph glyph-name="Ccircumflex" unicode="&#x108;" horiz-adv-x="606" d="M637 573 L621 501 L491 501 Q489 542 460 568.5 Q431 595 381 595 Q341 595 309.5 577 Q278 559 259 530 L182 170 Q187 143 214 124.5 Q241 106 283 106 Q377 106 422 199 L557 199 L540 127 Q507 68 441 26.5 Q375 -15 269 -15 Q196 -15 142.5 8.5 Q89 32 59 67 Q29 102 21 138 L112 562 Q146 625 216.5 670 Q287 715 394 715 Q466 715 517.5 692.5 Q569 670 598 637.5 Q627 605 637 573 Z M590 747 L494 747 L443 843 L353 747 L247 747 L250 763 L361 907 L544 907 L594 763 L590 747 Z " />
<glyph glyph-name="Ccaron" unicode="&#x10c;" horiz-adv-x="606" d="M637 573 L621 501 L491 501 Q489 542 460 568.5 Q431 595 381 595 Q341 595 309.5 577 Q278 559 259 530 L182 170 Q187 143 214 124.5 Q241 106 283 106 Q377 106 422 199 L557 199 L540 127 Q507 68 441 26.5 Q375 -15 269 -15 Q196 -15 142.5 8.5 Q89 32 59 67 Q29 102 21 138 L112 562 Q146 625 216.5 670 Q287 715 394 715 Q466 715 517.5 692.5 Q569 670 598 637.5 Q627 605 637 573 Z M510 747 L327 747 L277 891 L281 907 L375 907 L426 811 L517 907 L624 907 L620 891 L510 747 Z " />
<glyph glyph-name="Cdotaccent" unicode="&#x10a;" horiz-adv-x="606" d="M637 573 L621 501 L491 501 Q489 542 460 568.5 Q431 595 381 595 Q341 595 309.5 577 Q278 559 259 530 L182 170 Q187 143 214 124.5 Q241 106 283 106 Q377 106 422 199 L557 199 L540 127 Q507 68 441 26.5 Q375 -15 269 -15 Q196 -15 142.5 8.5 Q89 32 59 67 Q29 102 21 138 L112 562 Q146 625 216.5 670 Q287 715 394 715 Q466 715 517.5 692.5 Q569 670 598 637.5 Q627 605 637 573 Z M519 857 L505 796 Q495 780 473 768.5 Q451 757 420 757 Q390 757 372.5 768.5 Q355 780 352 796 L365 857 Q375 873 397.5 885 Q420 897 450 897 Q480 897 497.5 885 Q515 873 519 857 Z " />
<glyph glyph-name="Ccedilla" unicode="&#xc7;" horiz-adv-x="606" d="M259 530 L182 170 Q187 143 214 124.5 Q241 106 283 106 Q377 106 422 199 L557 199 L540 127 Q509 71 446 29.5 Q383 -12 283 -15 L266 -44 L274 -44 Q307 -44 327.5 -58.5 Q348 -73 352 -93 L336 -169 Q296 -228 205 -228 Q175 -228 148 -222 Q121 -216 104 -208 L139 -148 Q173 -160 208 -160 Q227 -160 240.5 -154.5 Q254 -149 260 -140 L265 -116 Q263 -108 251.5 -104 Q240 -100 222 -100 L162 -100 L211 -10 Q130 2 81 45.5 Q32 89 21 138 L112 562 Q146 625 216.5 670 Q287 715 394 715 Q466 715 517.5 692.5 Q569 670 598 637.5 Q627 605 637 573 L621 501 L491 501 Q489 542 460 568.5 Q431 595 381 595 Q341 595 309.5 577 Q278 559 259 530 Z " />
<glyph glyph-name="Dcaron" unicode="&#x10e;" horiz-adv-x="629" d="M642 562 L551 138 Q518 75 451.5 37.5 Q385 0 289 0 L1 0 L151 700 L418 700 Q516 700 572 659.5 Q628 619 642 562 Z M280 583 L180 117 L279 117 Q322 117 355 134.5 Q388 152 406 179 L481 526 Q464 583 376 583 L280 583 Z M508 747 L325 747 L275 891 L279 907 L373 907 L424 811 L515 907 L622 907 L618 891 L508 747 Z " />
<glyph glyph-name="Dcroat" unicode="&#x110;" horiz-adv-x="646" d="M660 562 L569 138 Q535 75 468.5 37.5 Q402 0 306 0 L19 0 L82 298 L38 298 L63 413 L107 413 L168 700 L436 700 Q533 700 589.5 659.5 Q646 619 660 562 Z M498 526 Q481 583 394 583 L297 583 L261 413 L380 413 L354 298 L236 298 L197 117 L296 117 Q340 117 373 134.5 Q406 152 423 179 L498 526 Z " />
<glyph glyph-name="Egrave" unicode="&#xc8;" horiz-adv-x="538" d="M558 582 L280 582 L244 417 L504 417 L479 299 L219 299 L180 118 L466 118 L440 0 L1 0 L151 700 L583 700 L558 582 Z M420 747 L322 747 L262 845 L276 907 L399 907 L424 763 L420 747 Z " />
<glyph glyph-name="Eacute" unicode="&#xc9;" horiz-adv-x="538" d="M558 582 L280 582 L244 417 L504 417 L479 299 L219 299 L180 118 L466 118 L440 0 L1 0 L151 700 L583 700 L558 582 Z M420 747 L316 747 L319 763 L403 907 L536 907 L522 845 L420 747 Z " />
<glyph glyph-name="Ecircumflex" unicode="&#xca;" horiz-adv-x="538" d="M558 582 L280 582 L244 417 L504 417 L479 299 L219 299 L180 118 L466 118 L440 0 L1 0 L151 700 L583 700 L558 582 Z M553 747 L457 747 L406 843 L316 747 L210 747 L213 763 L324 907 L507 907 L557 763 L553 747 Z " />
<glyph glyph-name="Ecaron" unicode="&#x11a;" horiz-adv-x="538" d="M558 582 L280 582 L244 417 L504 417 L479 299 L219 299 L180 118 L466 118 L440 0 L1 0 L151 700 L583 700 L558 582 Z M473 747 L290 747 L240 891 L244 907 L338 907 L389 811 L480 907 L587 907 L583 891 L473 747 Z " />
<glyph glyph-name="Edieresis" unicode="&#xcb;" horiz-adv-x="538" d="M558 582 L280 582 L244 417 L504 417 L479 299 L219 299 L180 118 L466 118 L440 0 L1 0 L151 700 L583 700 L558 582 Z M367 860 L350 781 Q321 752 274 752 Q229 752 210 781 L227 860 Q258 888 303 888 Q348 888 367 860 Z M583 860 L566 781 Q540 752 490 752 Q445 752 426 781 L443 860 Q474 888 519 888 Q564 888 583 860 Z " />
<glyph glyph-name="Emacron" unicode="&#x112;" horiz-adv-x="538" d="M558 582 L280 582 L244 417 L504 417 L479 299 L219 299 L180 118 L466 118 L440 0 L1 0 L151 700 L583 700 L558 582 Z M213 761 L233 857 L575 857 L555 761 L213 761 Z " />
<glyph glyph-name="Ebreve" unicode="&#x114;" horiz-adv-x="538" d="M558 582 L280 582 L244 417 L504 417 L479 299 L219 299 L180 118 L466 118 L440 0 L1 0 L151 700 L583 700 L558 582 Z M567 827 Q544 788 499.5 763.5 Q455 739 391 739 Q325 739 283 764 Q241 789 227 827 L241 888 L345 888 L336 850 Q339 838 353 827 Q367 816 395 816 Q423 816 441 826.5 Q459 837 468 850 L476 888 L581 888 L567 827 Z " />
<glyph glyph-name="Edotaccent" unicode="&#x116;" horiz-adv-x="538" d="M558 582 L280 582 L244 417 L504 417 L479 299 L219 299 L180 118 L466 118 L440 0 L1 0 L151 700 L583 700 L558 582 Z M482 857 L468 796 Q458 780 436 768.5 Q414 757 383 757 Q353 757 335.5 768.5 Q318 780 315 796 L328 857 Q338 873 360.5 885 Q383 897 413 897 Q443 897 460.5 885 Q478 873 482 857 Z " />
<glyph glyph-name="Eogonek" unicode="&#x118;" horiz-adv-x="538" d="M280 582 L244 417 L504 417 L479 299 L219 299 L180 118 L466 118 L440 0 Q356 -57 328 -100 L322 -125 Q326 -132 337.5 -136.5 Q349 -141 364 -141 Q386 -141 411 -133 L394 -210 Q367 -225 320 -225 Q280 -225 248.5 -210 Q217 -195 210 -170 L227 -92 Q239 -73 267.5 -47.5 Q296 -22 333 0 L1 0 L151 700 L583 700 L558 582 L280 582 Z " />
<glyph glyph-name="Gcircumflex" unicode="&#x11c;" horiz-adv-x="626" d="M259 530 L182 170 Q187 143 213.5 124.5 Q240 106 282 106 Q324 106 355.5 123 Q387 140 405 166 L428 273 L322 273 L347 390 L597 390 L514 0 L392 0 L403 50 Q376 21 335 3 Q294 -15 241 -15 Q177 -15 130 8.5 Q83 32 56 67.5 Q29 103 21 139 L112 562 Q145 623 216.5 669 Q288 715 394 715 Q467 715 518.5 692.5 Q570 670 598.5 637.5 Q627 605 637 573 L621 501 L490 501 Q487 542 459 568.5 Q431 595 382 595 Q341 595 309 576.5 Q277 558 259 530 Z M583 747 L487 747 L436 843 L346 747 L240 747 L243 763 L354 907 L537 907 L587 763 L583 747 Z " />
<glyph glyph-name="Gbreve" unicode="&#x11e;" horiz-adv-x="626" d="M259 530 L182 170 Q187 143 213.5 124.5 Q240 106 282 106 Q324 106 355.5 123 Q387 140 405 166 L428 273 L322 273 L347 390 L597 390 L514 0 L392 0 L403 50 Q376 21 335 3 Q294 -15 241 -15 Q177 -15 130 8.5 Q83 32 56 67.5 Q29 103 21 139 L112 562 Q145 623 216.5 669 Q288 715 394 715 Q467 715 518.5 692.5 Q570 670 598.5 637.5 Q627 605 637 573 L621 501 L490 501 Q487 542 459 568.5 Q431 595 382 595 Q341 595 309 576.5 Q277 558 259 530 Z M597 827 Q574 788 529.5 763.5 Q485 739 421 739 Q355 739 313 764 Q271 789 257 827 L271 888 L375 888 L366 850 Q369 838 383 827 Q397 816 425 816 Q453 816 471 826.5 Q489 837 498 850 L506 888 L611 888 L597 827 Z " />
<glyph glyph-name="Gdotaccent" unicode="&#x120;" horiz-adv-x="626" d="M259 530 L182 170 Q187 143 213.5 124.5 Q240 106 282 106 Q324 106 355.5 123 Q387 140 405 166 L428 273 L322 273 L347 390 L597 390 L514 0 L392 0 L403 50 Q376 21 335 3 Q294 -15 241 -15 Q177 -15 130 8.5 Q83 32 56 67.5 Q29 103 21 139 L112 562 Q145 623 216.5 669 Q288 715 394 715 Q467 715 518.5 692.5 Q570 670 598.5 637.5 Q627 605 637 573 L621 501 L490 501 Q487 542 459 568.5 Q431 595 382 595 Q341 595 309 576.5 Q277 558 259 530 Z M512 857 L498 796 Q488 780 466 768.5 Q444 757 413 757 Q383 757 365.5 768.5 Q348 780 345 796 L358 857 Q368 873 390.5 885 Q413 897 443 897 Q473 897 490.5 885 Q508 873 512 857 Z " />
<glyph glyph-name="Gcommaaccent" unicode="&#x122;" horiz-adv-x="626" d="M259 530 L182 170 Q187 143 213.5 124.5 Q240 106 282 106 Q324 106 355.5 123 Q387 140 405 166 L428 273 L322 273 L347 390 L597 390 L514 0 L392 0 L403 50 Q376 21 335 3 Q294 -15 241 -15 Q177 -15 130 8.5 Q83 32 56 67.5 Q29 103 21 139 L112 562 Q145 623 216.5 669 Q288 715 394 715 Q467 715 518.5 692.5 Q570 670 598.5 637.5 Q627 605 637 573 L621 501 L490 501 Q487 542 459 568.5 Q431 595 382 595 Q341 595 309 576.5 Q277 558 259 530 Z M149 -187 L182 -187 Q212 -187 222 -172 L227 -151 Q198 -151 179 -146 Q160 -141 156 -133 L168 -72 Q176 -64 195.5 -57.5 Q215 -51 244 -51 Q296 -51 315 -72 L293 -177 Q282 -200 256 -216 Q230 -232 188 -232 L140 -232 L149 -187 Z " />
<glyph glyph-name="Hcircumflex" unicode="&#x124;" horiz-adv-x="655" d="M538 0 L384 0 L448 302 L219 302 L155 0 L1 0 L151 700 L305 700 L245 420 L473 420 L533 700 L687 700 L538 0 Z M601 747 L505 747 L454 843 L364 747 L258 747 L261 763 L372 907 L555 907 L605 763 L601 747 Z " />
<glyph glyph-name="Hbar" unicode="&#x126;" horiz-adv-x="655" d="M662 537 L547 0 L393 0 L457 302 L229 302 L165 0 L11 0 L125 537 L89 537 L109 629 L145 629 L160 700 L314 700 L299 629 L528 629 L543 700 L697 700 L682 629 L716 629 L696 537 L662 537 Z M279 537 L254 420 L483 420 L508 537 L279 537 Z " />
<glyph glyph-name="Igrave" unicode="&#xcc;" horiz-adv-x="272" d="M155 0 L1 0 L151 700 L305 700 L155 0 Z M278 747 L180 747 L120 845 L134 907 L257 907 L282 763 L278 747 Z " />
<glyph glyph-name="Iacute" unicode="&#xcd;" horiz-adv-x="272" d="M155 0 L1 0 L151 700 L305 700 L155 0 Z M277 747 L173 747 L176 763 L260 907 L393 907 L379 845 L277 747 Z " />
<glyph glyph-name="Icircumflex" unicode="&#xce;" horiz-adv-x="272" d="M155 0 L1 0 L151 700 L305 700 L155 0 Z M410 747 L314 747 L263 843 L173 747 L67 747 L70 763 L181 907 L364 907 L414 763 L410 747 Z " />
<glyph glyph-name="Itilde" unicode="&#x128;" horiz-adv-x="272" d="M155 0 L1 0 L151 700 L305 700 L155 0 Z M275 856 Q289 845 296.5 841 Q304 837 315 837 Q342 837 355 862 L359 881 L443 881 L430 824 Q416 792 383.5 769.5 Q351 747 309 747 Q281 747 264.5 755 Q248 763 230 778 Q218 788 209.5 792.5 Q201 797 190 797 Q165 797 151 773 L147 752 L64 752 L76 810 Q89 843 122 865 Q155 887 196 887 Q223 887 240 879 Q257 871 275 856 Z " />
<glyph glyph-name="Idieresis" unicode="&#xcf;" horiz-adv-x="272" d="M155 0 L1 0 L151 700 L305 700 L155 0 Z M224 860 L207 781 Q178 752 131 752 Q86 752 67 781 L84 860 Q115 888 160 888 Q205 888 224 860 Z M440 860 L423 781 Q397 752 347 752 Q302 752 283 781 L300 860 Q331 888 376 888 Q421 888 440 860 Z " />
<glyph glyph-name="Imacron" unicode="&#x12a;" horiz-adv-x="272" d="M155 0 L1 0 L151 700 L305 700 L155 0 Z M71 761 L91 857 L433 857 L413 761 L71 761 Z " />
<glyph glyph-name="Ibreve" unicode="&#x12c;" horiz-adv-x="272" d="M155 0 L1 0 L151 700 L305 700 L155 0 Z M424 827 Q401 788 356.5 763.5 Q312 739 248 739 Q182 739 140 764 Q98 789 84 827 L98 888 L202 888 L193 850 Q196 838 210 827 Q224 816 252 816 Q280 816 298 826.5 Q316 837 325 850 L333 888 L438 888 L424 827 Z " />
<glyph glyph-name="Iogonek" unicode="&#x12e;" horiz-adv-x="272" d="M44 -100 L37 -125 Q41 -132 52.5 -136.5 Q64 -141 79 -141 Q101 -141 126 -133 L110 -210 Q96 -218 79 -221.5 Q62 -225 35 -225 Q-5 -225 -36.5 -210 Q-68 -195 -75 -170 L-58 -93 Q-46 -74 -18 -48 Q10 -22 46 0 L1 0 L151 700 L305 700 L155 0 Q67 -61 44 -100 Z " />
<glyph glyph-name="IJ" unicode="&#x132;" horiz-adv-x="659" d="M155 0 L1 0 L151 700 L305 700 L155 0 Z M575 139 Q496 -2 302 -2 Q256 -2 234 0 L259 117 L297 117 Q385 117 430 179 L541 700 L695 700 L575 139 Z " />
<glyph glyph-name="Jcircumflex" unicode="&#x134;" horiz-adv-x="387" d="M303 139 Q224 -2 30 -2 Q-16 -2 -38 0 L-13 117 L25 117 Q113 117 158 179 L269 700 L423 700 L303 139 Z M528 747 L432 747 L381 843 L291 747 L185 747 L188 763 L299 907 L482 907 L532 763 L528 747 Z " />
<glyph glyph-name="Kcommaaccent" unicode="&#x136;" horiz-adv-x="615" d="M529 0 L415 0 L289 306 L204 230 L155 0 L1 0 L151 700 L305 700 L249 437 L535 700 L651 700 L633 614 L408 413 L547 86 L529 0 Z M169 -187 L202 -187 Q232 -187 242 -172 L247 -151 Q218 -151 199 -146 Q180 -141 176 -133 L188 -72 Q196 -64 215.5 -57.5 Q235 -51 264 -51 Q316 -51 335 -72 L313 -177 Q302 -200 276 -216 Q250 -232 208 -232 L160 -232 L169 -187 Z " />
<glyph glyph-name="Lacute" unicode="&#x139;" horiz-adv-x="458" d="M180 118 L403 118 L378 0 L1 0 L151 700 L305 700 L180 118 Z M289 747 L185 747 L188 763 L272 907 L405 907 L391 845 L289 747 Z " />
<glyph glyph-name="Lcaron" unicode="&#x13d;" horiz-adv-x="470" d="M180 118 L403 118 L378 0 L1 0 L151 700 L305 700 L180 118 Z M417 493 L331 493 L335 508 L396 700 L507 700 L492 626 L417 493 Z " />
<glyph glyph-name="Lcommaaccent" unicode="&#x13b;" horiz-adv-x="458" d="M180 118 L403 118 L378 0 L1 0 L151 700 L305 700 L180 118 Z M63 -187 L96 -187 Q126 -187 136 -172 L141 -151 Q112 -151 93 -146 Q74 -141 70 -133 L82 -72 Q90 -64 109.5 -57.5 Q129 -51 158 -51 Q210 -51 229 -72 L207 -177 Q196 -200 170 -216 Q144 -232 102 -232 L54 -232 L63 -187 Z " />
<glyph glyph-name="Lslash" unicode="&#x141;" horiz-adv-x="493" d="M413 0 L36 0 L76 189 L-2 152 L23 269 L101 305 L186 700 L340 700 L272 385 L426 457 L402 340 L247 268 L215 118 L438 118 L413 0 Z " />
<glyph glyph-name="Ldot" unicode="&#x13f;" horiz-adv-x="477" d="M180 118 L403 118 L378 0 L1 0 L151 700 L305 700 L180 118 Z M486 427 L470 352 Q460 335 440 323.5 Q420 312 390 312 Q360 312 341.5 324 Q323 336 317 352 L333 427 Q344 443 364.5 454.5 Q385 466 412 466 Q443 466 462 454.5 Q481 443 486 427 Z " />
<glyph glyph-name="Nacute" unicode="&#x143;" horiz-adv-x="667" d="M381 0 L249 472 L246 472 L144 0 L1 0 L151 700 L320 700 L452 228 L455 228 L557 700 L700 700 L550 0 L381 0 Z M480 747 L376 747 L379 763 L463 907 L596 907 L582 845 L480 747 Z " />
<glyph glyph-name="Ncaron" unicode="&#x147;" horiz-adv-x="667" d="M381 0 L249 472 L246 472 L144 0 L1 0 L151 700 L320 700 L452 228 L455 228 L557 700 L700 700 L550 0 L381 0 Z M533 747 L350 747 L300 891 L304 907 L398 907 L449 811 L540 907 L647 907 L643 891 L533 747 Z " />
<glyph glyph-name="Ntilde" unicode="&#xd1;" horiz-adv-x="667" d="M381 0 L249 472 L246 472 L144 0 L1 0 L151 700 L320 700 L452 228 L455 228 L557 700 L700 700 L550 0 L381 0 Z M478 856 Q492 845 499.5 841 Q507 837 518 837 Q545 837 558 862 L562 881 L646 881 L633 824 Q619 792 586.5 769.5 Q554 747 512 747 Q484 747 467.5 755 Q451 763 433 778 Q421 788 412.5 792.5 Q404 797 393 797 Q368 797 354 773 L350 752 L267 752 L279 810 Q292 843 325 865 Q358 887 399 887 Q426 887 443 879 Q460 871 478 856 Z " />
<glyph glyph-name="Ncommaaccent" unicode="&#x145;" horiz-adv-x="667" d="M381 0 L249 472 L246 472 L144 0 L1 0 L151 700 L320 700 L452 228 L455 228 L557 700 L700 700 L550 0 L381 0 Z M168 -187 L201 -187 Q231 -187 241 -172 L246 -151 Q217 -151 198 -146 Q179 -141 175 -133 L187 -72 Q195 -64 214.5 -57.5 Q234 -51 263 -51 Q315 -51 334 -72 L312 -177 Q301 -200 275 -216 Q249 -232 207 -232 L159 -232 L168 -187 Z " />
<glyph glyph-name="Ograve" unicode="&#xd2;" horiz-adv-x="626" d="M640 562 L549 139 Q510 73 441.5 29 Q373 -15 266 -15 Q193 -15 140.5 8.5 Q88 32 58.5 67 Q29 102 21 139 L112 562 Q149 626 218.5 670.5 Q288 715 394 715 Q467 715 520 691.5 Q573 668 602.5 633 Q632 598 640 562 Z M259 530 L182 170 Q186 143 213 124.5 Q240 106 281 106 Q322 106 352 124 Q382 142 401 170 L479 530 Q473 557 446.5 576 Q420 595 379 595 Q338 595 307 576.5 Q276 558 259 530 Z M454 747 L356 747 L296 845 L310 907 L433 907 L458 763 L454 747 Z " />
<glyph glyph-name="Oacute" unicode="&#xd3;" horiz-adv-x="626" d="M640 562 L549 139 Q510 73 441.5 29 Q373 -15 266 -15 Q193 -15 140.5 8.5 Q88 32 58.5 67 Q29 102 21 139 L112 562 Q149 626 218.5 670.5 Q288 715 394 715 Q467 715 520 691.5 Q573 668 602.5 633 Q632 598 640 562 Z M259 530 L182 170 Q186 143 213 124.5 Q240 106 281 106 Q322 106 352 124 Q382 142 401 170 L479 530 Q473 557 446.5 576 Q420 595 379 595 Q338 595 307 576.5 Q276 558 259 530 Z M454 747 L350 747 L353 763 L437 907 L570 907 L556 845 L454 747 Z " />
<glyph glyph-name="Ocircumflex" unicode="&#xd4;" horiz-adv-x="626" d="M640 562 L549 139 Q510 73 441.5 29 Q373 -15 266 -15 Q193 -15 140.5 8.5 Q88 32 58.5 67 Q29 102 21 139 L112 562 Q149 626 218.5 670.5 Q288 715 394 715 Q467 715 520 691.5 Q573 668 602.5 633 Q632 598 640 562 Z M259 530 L182 170 Q186 143 213 124.5 Q240 106 281 106 Q322 106 352 124 Q382 142 401 170 L479 530 Q473 557 446.5 576 Q420 595 379 595 Q338 595 307 576.5 Q276 558 259 530 Z M587 747 L491 747 L440 843 L350 747 L244 747 L247 763 L358 907 L541 907 L591 763 L587 747 Z " />
<glyph glyph-name="Otilde" unicode="&#xd5;" horiz-adv-x="626" d="M640 562 L549 139 Q510 73 441.5 29 Q373 -15 266 -15 Q193 -15 140.5 8.5 Q88 32 58.5 67 Q29 102 21 139 L112 562 Q149 626 218.5 670.5 Q288 715 394 715 Q467 715 520 691.5 Q573 668 602.5 633 Q632 598 640 562 Z M259 530 L182 170 Q186 143 213 124.5 Q240 106 281 106 Q322 106 352 124 Q382 142 401 170 L479 530 Q473 557 446.5 576 Q420 595 379 595 Q338 595 307 576.5 Q276 558 259 530 Z M452 856 Q466 845 473.5 841 Q481 837 492 837 Q519 837 532 862 L536 881 L620 881 L607 824 Q593 792 560.5 769.5 Q528 747 486 747 Q458 747 441.5 755 Q425 763 407 778 Q395 788 386.5 792.5 Q378 797 367 797 Q342 797 328 773 L324 752 L241 752 L253 810 Q266 843 299 865 Q332 887 373 887 Q400 887 417 879 Q434 871 452 856 Z " />
<glyph glyph-name="Odieresis" unicode="&#xd6;" horiz-adv-x="626" d="M640 562 L549 139 Q510 73 441.5 29 Q373 -15 266 -15 Q193 -15 140.5 8.5 Q88 32 58.5 67 Q29 102 21 139 L112 562 Q149 626 218.5 670.5 Q288 715 394 715 Q467 715 520 691.5 Q573 668 602.5 633 Q632 598 640 562 Z M259 530 L182 170 Q186 143 213 124.5 Q240 106 281 106 Q322 106 352 124 Q382 142 401 170 L479 530 Q473 557 446.5 576 Q420 595 379 595 Q338 595 307 576.5 Q276 558 259 530 Z M401 860 L384 781 Q355 752 308 752 Q263 752 244 781 L261 860 Q292 888 337 888 Q382 888 401 860 Z M617 860 L600 781 Q574 752 524 752 Q479 752 460 781 L477 860 Q508 888 553 888 Q598 888 617 860 Z " />
<glyph glyph-name="Omacron" unicode="&#x14c;" horiz-adv-x="626" d="M640 562 L549 139 Q510 73 441.5 29 Q373 -15 266 -15 Q193 -15 140.5 8.5 Q88 32 58.5 67 Q29 102 21 139 L112 562 Q149 626 218.5 670.5 Q288 715 394 715 Q467 715 520 691.5 Q573 668 602.5 633 Q632 598 640 562 Z M259 530 L182 170 Q186 143 213 124.5 Q240 106 281 106 Q322 106 352 124 Q382 142 401 170 L479 530 Q473 557 446.5 576 Q420 595 379 595 Q338 595 307 576.5 Q276 558 259 530 Z M247 761 L267 857 L609 857 L589 761 L247 761 Z " />
<glyph glyph-name="Obreve" unicode="&#x14e;" horiz-adv-x="626" d="M640 562 L549 139 Q510 73 441.5 29 Q373 -15 266 -15 Q193 -15 140.5 8.5 Q88 32 58.5 67 Q29 102 21 139 L112 562 Q149 626 218.5 670.5 Q288 715 394 715 Q467 715 520 691.5 Q573 668 602.5 633 Q632 598 640 562 Z M259 530 L182 170 Q186 143 213 124.5 Q240 106 281 106 Q322 106 352 124 Q382 142 401 170 L479 530 Q473 557 446.5 576 Q420 595 379 595 Q338 595 307 576.5 Q276 558 259 530 Z M601 827 Q578 788 533.5 763.5 Q489 739 425 739 Q359 739 317 764 Q275 789 261 827 L275 888 L379 888 L370 850 Q373 838 387 827 Q401 816 429 816 Q457 816 475 826.5 Q493 837 502 850 L510 888 L615 888 L601 827 Z " />
<glyph glyph-name="Ohungarumlaut" unicode="&#x150;" horiz-adv-x="626" d="M640 562 L549 139 Q510 73 441.5 29 Q373 -15 266 -15 Q193 -15 140.5 8.5 Q88 32 58.5 67 Q29 102 21 139 L112 562 Q149 626 218.5 670.5 Q288 715 394 715 Q467 715 520 691.5 Q573 668 602.5 633 Q632 598 640 562 Z M259 530 L182 170 Q186 143 213 124.5 Q240 106 281 106 Q322 106 352 124 Q382 142 401 170 L479 530 Q473 557 446.5 576 Q420 595 379 595 Q338 595 307 576.5 Q276 558 259 530 Z M364 747 L272 747 L275 762 L345 906 L455 906 L444 856 L364 747 Z M558 747 L466 747 L469 762 L539 906 L649 906 L637 856 L558 747 Z " />
<glyph glyph-name="Oslash" unicode="&#xd8;" horiz-adv-x="626" d="M658 649 L620 608 Q633 588 640 562 L549 139 Q510 73 441.5 29 Q373 -15 266 -15 Q162 -15 93 35 L60 0 L-9 0 L2 51 L40 93 Q26 114 21 139 L112 562 Q149 626 218.5 670.5 Q288 715 394 715 Q497 715 566 665 L599 700 L669 700 L658 649 Z M203 270 L467 557 Q454 574 431.5 584.5 Q409 595 379 595 Q338 595 307 576.5 Q276 558 259 530 L203 270 Z M457 431 L193 144 Q206 127 228.5 116.5 Q251 106 281 106 Q322 106 352 124 Q382 142 401 170 L457 431 Z " />
<glyph glyph-name="OE" unicode="&#x152;" horiz-adv-x="902" d="M644 582 L609 417 L869 417 L843 299 L583 299 L545 118 L830 118 L805 0 L366 0 L367 7 Q311 -15 258 -15 Q189 -15 138 8.5 Q87 32 58 67.5 Q29 103 21 139 L112 562 Q149 626 218.5 670.5 Q288 715 394 715 Q465 715 513 691 L515 700 L948 700 L922 582 L644 582 Z M398 152 L483 549 Q470 569 441.5 582 Q413 595 379 595 Q338 595 307 576.5 Q276 558 259 530 L182 170 Q186 143 213 124.5 Q240 106 281 106 Q316 106 347 119 Q378 132 398 152 Z " />
<glyph glyph-name="Racute" unicode="&#x154;" horiz-adv-x="606" d="M625 581 L586 397 Q532 315 446 289 L530 86 L512 0 L397 0 L293 277 L214 277 L155 0 L1 0 L151 700 L421 700 Q501 700 552.5 669 Q604 638 625 581 Z M468 532 Q461 556 438.5 569.5 Q416 583 383 583 L280 583 L237 387 L334 387 Q373 387 403 400 Q433 413 449 438 L468 532 Z M444 747 L340 747 L343 763 L427 907 L560 907 L546 845 L444 747 Z " />
<glyph glyph-name="Rcaron" unicode="&#x158;" horiz-adv-x="606" d="M625 581 L586 397 Q532 315 446 289 L530 86 L512 0 L397 0 L293 277 L214 277 L155 0 L1 0 L151 700 L421 700 Q501 700 552.5 669 Q604 638 625 581 Z M468 532 Q461 556 438.5 569.5 Q416 583 383 583 L280 583 L237 387 L334 387 Q373 387 403 400 Q433 413 449 438 L468 532 Z M497 747 L314 747 L264 891 L268 907 L362 907 L413 811 L504 907 L611 907 L607 891 L497 747 Z " />
<glyph glyph-name="Rcommaaccent" unicode="&#x156;" horiz-adv-x="606" d="M625 581 L586 397 Q532 315 446 289 L530 86 L512 0 L397 0 L293 277 L214 277 L155 0 L1 0 L151 700 L421 700 Q501 700 552.5 669 Q604 638 625 581 Z M468 532 Q461 556 438.5 569.5 Q416 583 383 583 L280 583 L237 387 L334 387 Q373 387 403 400 Q433 413 449 438 L468 532 Z M137 -187 L170 -187 Q200 -187 210 -172 L215 -151 Q186 -151 167 -146 Q148 -141 144 -133 L156 -72 Q164 -64 183.5 -57.5 Q203 -51 232 -51 Q284 -51 303 -72 L281 -177 Q270 -200 244 -216 Q218 -232 176 -232 L128 -232 L137 -187 Z " />
<glyph glyph-name="Sacute" unicode="&#x15a;" horiz-adv-x="592" d="M608 591 L593 519 L463 519 Q457 553 432 574 Q407 595 361 595 Q327 595 300 580.5 Q273 566 257 546 L240 469 Q245 455 258.5 446.5 Q272 438 310 426 L372 407 Q457 383 494 354.5 Q531 326 550 284 L515 119 Q426 -15 248 -15 Q175 -15 122.5 6.5 Q70 28 41.5 59 Q13 90 4 119 L20 191 L150 191 Q155 152 184.5 129 Q214 106 262 106 Q302 106 331 122.5 Q360 139 377 164 L393 238 Q388 255 370.5 266.5 Q353 278 314 290 L248 310 Q171 331 136.5 356.5 Q102 382 82 423 L118 591 Q152 641 218 678 Q284 715 381 715 Q447 715 495.5 695.5 Q544 676 572 647.5 Q600 619 608 591 Z M444 747 L340 747 L343 763 L427 907 L560 907 L546 845 L444 747 Z " />
<glyph glyph-name="Scircumflex" unicode="&#x15c;" horiz-adv-x="592" d="M608 591 L593 519 L463 519 Q457 553 432 574 Q407 595 361 595 Q327 595 300 580.5 Q273 566 257 546 L240 469 Q245 455 258.5 446.5 Q272 438 310 426 L372 407 Q457 383 494 354.5 Q531 326 550 284 L515 119 Q426 -15 248 -15 Q175 -15 122.5 6.5 Q70 28 41.5 59 Q13 90 4 119 L20 191 L150 191 Q155 152 184.5 129 Q214 106 262 106 Q302 106 331 122.5 Q360 139 377 164 L393 238 Q388 255 370.5 266.5 Q353 278 314 290 L248 310 Q171 331 136.5 356.5 Q102 382 82 423 L118 591 Q152 641 218 678 Q284 715 381 715 Q447 715 495.5 695.5 Q544 676 572 647.5 Q600 619 608 591 Z M577 747 L481 747 L430 843 L340 747 L234 747 L237 763 L348 907 L531 907 L581 763 L577 747 Z " />
<glyph glyph-name="Scaron" unicode="&#x160;" horiz-adv-x="592" d="M608 591 L593 519 L463 519 Q457 553 432 574 Q407 595 361 595 Q327 595 300 580.5 Q273 566 257 546 L240 469 Q245 455 258.5 446.5 Q272 438 310 426 L372 407 Q457 383 494 354.5 Q531 326 550 284 L515 119 Q426 -15 248 -15 Q175 -15 122.5 6.5 Q70 28 41.5 59 Q13 90 4 119 L20 191 L150 191 Q155 152 184.5 129 Q214 106 262 106 Q302 106 331 122.5 Q360 139 377 164 L393 238 Q388 255 370.5 266.5 Q353 278 314 290 L248 310 Q171 331 136.5 356.5 Q102 382 82 423 L118 591 Q152 641 218 678 Q284 715 381 715 Q447 715 495.5 695.5 Q544 676 572 647.5 Q600 619 608 591 Z M497 747 L314 747 L264 891 L268 907 L362 907 L413 811 L504 907 L611 907 L607 891 L497 747 Z " />
<glyph glyph-name="Scedilla" unicode="&#x15e;" horiz-adv-x="592" d="M257 546 L240 469 Q245 455 258.5 446.5 Q272 438 310 426 L372 407 Q457 383 494 354.5 Q531 326 550 284 L515 119 Q429 -7 268 -14 L250 -44 L259 -44 Q292 -44 312.5 -59 Q333 -74 337 -93 L320 -169 Q282 -228 189 -228 Q159 -228 132 -222 Q105 -216 89 -208 L124 -148 Q158 -160 192 -160 Q211 -160 224.5 -154.5 Q238 -149 244 -140 L249 -116 Q244 -100 207 -100 L147 -100 L195 -11 Q113 0 64.5 39 Q16 78 4 119 L20 191 L150 191 Q155 152 184.5 129 Q214 106 262 106 Q302 106 331 122.5 Q360 139 377 164 L393 238 Q388 255 370.5 266.5 Q353 278 314 290 L248 310 Q171 331 136.5 356.5 Q102 382 82 423 L118 591 Q152 641 218 678 Q284 715 381 715 Q447 715 495.5 695.5 Q544 676 572 647.5 Q600 619 608 591 L593 519 L463 519 Q457 553 432 574 Q407 595 361 595 Q327 595 300 580.5 Q273 566 257 546 Z " />
<glyph glyph-name="Scommaaccent" unicode="&#x218;" horiz-adv-x="592" d="M608 591 L593 519 L463 519 Q457 553 432 574 Q407 595 361 595 Q327 595 300 580.5 Q273 566 257 546 L240 469 Q245 455 258.5 446.5 Q272 438 310 426 L372 407 Q457 383 494 354.5 Q531 326 550 284 L515 119 Q426 -15 248 -15 Q175 -15 122.5 6.5 Q70 28 41.5 59 Q13 90 4 119 L20 191 L150 191 Q155 152 184.5 129 Q214 106 262 106 Q302 106 331 122.5 Q360 139 377 164 L393 238 Q388 255 370.5 266.5 Q353 278 314 290 L248 310 Q171 331 136.5 356.5 Q102 382 82 423 L118 591 Q152 641 218 678 Q284 715 381 715 Q447 715 495.5 695.5 Q544 676 572 647.5 Q600 619 608 591 Z M135 -187 L168 -187 Q198 -187 208 -172 L213 -151 Q184 -151 165 -146 Q146 -141 142 -133 L154 -72 Q162 -64 181.5 -57.5 Q201 -51 230 -51 Q282 -51 301 -72 L279 -177 Q268 -200 242 -216 Q216 -232 174 -232 L126 -232 L135 -187 Z " />
<glyph glyph-name="Tcaron" unicode="&#x164;" horiz-adv-x="544" d="M585 582 L416 582 L291 0 L137 0 L262 582 L91 582 L117 700 L610 700 L585 582 Z M466 747 L283 747 L233 891 L237 907 L331 907 L382 811 L473 907 L580 907 L576 891 L466 747 Z " />
<glyph glyph-name="uni021A" unicode="&#x21a;" horiz-adv-x="544" d="M585 582 L416 582 L291 0 L137 0 L262 582 L91 582 L117 700 L610 700 L585 582 Z M106 -187 L139 -187 Q169 -187 179 -172 L184 -151 Q155 -151 136 -146 Q117 -141 113 -133 L125 -72 Q133 -64 152.5 -57.5 Q172 -51 201 -51 Q253 -51 272 -72 L250 -177 Q239 -200 213 -216 Q187 -232 145 -232 L97 -232 L106 -187 Z " />
<glyph glyph-name="Tbar" unicode="&#x166;" horiz-adv-x="544" d="M389 413 L510 413 L490 321 L369 321 L301 0 L147 0 L215 321 L98 321 L118 413 L235 413 L271 582 L101 582 L126 700 L620 700 L594 582 L425 582 L389 413 Z " />
<glyph glyph-name="Ugrave" unicode="&#xd9;" horiz-adv-x="640" d="M555 139 Q520 78 448 31.5 Q376 -15 269 -15 Q196 -15 144.5 8.5 Q93 32 65 67 Q37 102 28 139 L148 700 L302 700 L188 171 Q195 143 219 125 Q243 107 284 107 Q326 107 357 125.5 Q388 144 408 171 L521 700 L675 700 L555 139 Z M461 747 L363 747 L303 845 L317 907 L440 907 L465 763 L461 747 Z " />
<glyph glyph-name="Uacute" unicode="&#xda;" horiz-adv-x="640" d="M555 139 Q520 78 448 31.5 Q376 -15 269 -15 Q196 -15 144.5 8.5 Q93 32 65 67 Q37 102 28 139 L148 700 L302 700 L188 171 Q195 143 219 125 Q243 107 284 107 Q326 107 357 125.5 Q388 144 408 171 L521 700 L675 700 L555 139 Z M461 747 L357 747 L360 763 L444 907 L577 907 L563 845 L461 747 Z " />
<glyph glyph-name="Ucircumflex" unicode="&#xdb;" horiz-adv-x="640" d="M555 139 Q520 78 448 31.5 Q376 -15 269 -15 Q196 -15 144.5 8.5 Q93 32 65 67 Q37 102 28 139 L148 700 L302 700 L188 171 Q195 143 219 125 Q243 107 284 107 Q326 107 357 125.5 Q388 144 408 171 L521 700 L675 700 L555 139 Z M594 747 L498 747 L447 843 L357 747 L251 747 L254 763 L365 907 L548 907 L598 763 L594 747 Z " />
<glyph glyph-name="Utilde" unicode="&#x168;" horiz-adv-x="640" d="M555 139 Q520 78 448 31.5 Q376 -15 269 -15 Q196 -15 144.5 8.5 Q93 32 65 67 Q37 102 28 139 L148 700 L302 700 L188 171 Q195 143 219 125 Q243 107 284 107 Q326 107 357 125.5 Q388 144 408 171 L521 700 L675 700 L555 139 Z M459 856 Q473 845 480.5 841 Q488 837 499 837 Q526 837 539 862 L543 881 L627 881 L614 824 Q600 792 567.5 769.5 Q535 747 493 747 Q465 747 448.5 755 Q432 763 414 778 Q402 788 393.5 792.5 Q385 797 374 797 Q349 797 335 773 L331 752 L248 752 L260 810 Q273 843 306 865 Q339 887 380 887 Q407 887 424 879 Q441 871 459 856 Z " />
<glyph glyph-name="Udieresis" unicode="&#xdc;" horiz-adv-x="640" d="M555 139 Q520 78 448 31.5 Q376 -15 269 -15 Q196 -15 144.5 8.5 Q93 32 65 67 Q37 102 28 139 L148 700 L302 700 L188 171 Q195 143 219 125 Q243 107 284 107 Q326 107 357 125.5 Q388 144 408 171 L521 700 L675 700 L555 139 Z M408 860 L391 781 Q362 752 315 752 Q270 752 251 781 L268 860 Q299 888 344 888 Q389 888 408 860 Z M624 860 L607 781 Q581 752 531 752 Q486 752 467 781 L484 860 Q515 888 560 888 Q605 888 624 860 Z " />
<glyph glyph-name="Umacron" unicode="&#x16a;" horiz-adv-x="640" d="M555 139 Q520 78 448 31.5 Q376 -15 269 -15 Q196 -15 144.5 8.5 Q93 32 65 67 Q37 102 28 139 L148 700 L302 700 L188 171 Q195 143 219 125 Q243 107 284 107 Q326 107 357 125.5 Q388 144 408 171 L521 700 L675 700 L555 139 Z M254 761 L274 857 L616 857 L596 761 L254 761 Z " />
<glyph glyph-name="Ubreve" unicode="&#x16c;" horiz-adv-x="640" d="M555 139 Q520 78 448 31.5 Q376 -15 269 -15 Q196 -15 144.5 8.5 Q93 32 65 67 Q37 102 28 139 L148 700 L302 700 L188 171 Q195 143 219 125 Q243 107 284 107 Q326 107 357 125.5 Q388 144 408 171 L521 700 L675 700 L555 139 Z M608 827 Q585 788 540.5 763.5 Q496 739 432 739 Q366 739 324 764 Q282 789 268 827 L282 888 L386 888 L377 850 Q380 838 394 827 Q408 816 436 816 Q464 816 482 826.5 Q500 837 509 850 L517 888 L622 888 L608 827 Z " />
<glyph glyph-name="Uring" unicode="&#x16e;" horiz-adv-x="640" d="M555 139 Q520 78 448 31.5 Q376 -15 269 -15 Q196 -15 144.5 8.5 Q93 32 65 67 Q37 102 28 139 L148 700 L302 700 L188 171 Q195 143 219 125 Q243 107 284 107 Q326 107 357 125.5 Q388 144 408 171 L521 700 L675 700 L555 139 Z M564 834 L545 742 Q525 714 491.5 697 Q458 680 416 680 Q372 680 340 697.5 Q308 715 298 742 L317 834 Q336 862 370 879 Q404 896 447 896 Q490 896 521.5 878.5 Q553 861 564 834 Z M380 814 L369 762 Q372 753 385 745.5 Q398 738 420 738 Q442 738 457.5 745 Q473 752 482 762 L493 814 Q490 823 477 830.5 Q464 838 442 838 Q420 838 404.5 831 Q389 824 380 814 Z " />
<glyph glyph-name="Uhungarumlaut" unicode="&#x170;" horiz-adv-x="640" d="M555 139 Q520 78 448 31.5 Q376 -15 269 -15 Q196 -15 144.5 8.5 Q93 32 65 67 Q37 102 28 139 L148 700 L302 700 L188 171 Q195 143 219 125 Q243 107 284 107 Q326 107 357 125.5 Q388 144 408 171 L521 700 L675 700 L555 139 Z M371 747 L279 747 L282 762 L352 906 L462 906 L451 856 L371 747 Z M565 747 L473 747 L476 762 L546 906 L656 906 L644 856 L565 747 Z " />
<glyph glyph-name="Uogonek" unicode="&#x172;" horiz-adv-x="640" d="M675 700 L555 139 Q529 92 466 40 Q402 -11 365.5 -47 Q329 -83 320 -100 L314 -125 Q318 -132 329.5 -136.5 Q341 -141 356 -141 Q378 -141 403 -133 L386 -210 Q359 -225 312 -225 Q272 -225 240.5 -210 Q209 -195 202 -170 L219 -93 Q229 -77 251 -55.5 Q273 -34 302 -14 L269 -15 Q196 -15 144.5 8.5 Q93 32 65 67 Q37 102 28 139 L148 700 L302 700 L188 171 Q195 143 219 125 Q243 107 284 107 Q326 107 357 125.5 Q388 144 408 171 L521 700 L675 700 Z " />
<glyph glyph-name="Wgrave" unicode="&#x1e80;" horiz-adv-x="918" d="M706 0 L509 0 L498 452 L495 452 L292 0 L96 0 L104 614 L123 700 L260 700 L241 172 L244 172 L478 700 L616 700 L626 172 L629 172 L835 700 L978 700 L960 614 L706 0 Z M604 747 L506 747 L446 845 L460 907 L583 907 L608 763 L604 747 Z " />
<glyph glyph-name="Wacute" unicode="&#x1e82;" horiz-adv-x="918" d="M706 0 L509 0 L498 452 L495 452 L292 0 L96 0 L104 614 L123 700 L260 700 L241 172 L244 172 L478 700 L616 700 L626 172 L629 172 L835 700 L978 700 L960 614 L706 0 Z M603 747 L499 747 L502 763 L586 907 L719 907 L705 845 L603 747 Z " />
<glyph glyph-name="Wcircumflex" unicode="&#x174;" horiz-adv-x="918" d="M706 0 L509 0 L498 452 L495 452 L292 0 L96 0 L104 614 L123 700 L260 700 L241 172 L244 172 L478 700 L616 700 L626 172 L629 172 L835 700 L978 700 L960 614 L706 0 Z M737 747 L641 747 L590 843 L500 747 L394 747 L397 763 L508 907 L691 907 L741 763 L737 747 Z " />
<glyph glyph-name="Wdieresis" unicode="&#x1e84;" horiz-adv-x="918" d="M706 0 L509 0 L498 452 L495 452 L292 0 L96 0 L104 614 L123 700 L260 700 L241 172 L244 172 L478 700 L616 700 L626 172 L629 172 L835 700 L978 700 L960 614 L706 0 Z M551 860 L534 781 Q505 752 458 752 Q413 752 394 781 L411 860 Q442 888 487 888 Q532 888 551 860 Z M767 860 L750 781 Q724 752 674 752 Q629 752 610 781 L627 860 Q658 888 703 888 Q748 888 767 860 Z " />
<glyph glyph-name="Ygrave" unicode="&#x1ef2;" horiz-adv-x="579" d="M365 279 L306 0 L151 0 L214 294 L101 614 L120 700 L239 700 L318 432 L321 432 L511 700 L642 700 L624 614 L365 279 Z M430 747 L332 747 L272 845 L286 907 L409 907 L434 763 L430 747 Z " />
<glyph glyph-name="Yacute" unicode="&#xdd;" horiz-adv-x="579" d="M365 279 L306 0 L151 0 L214 294 L101 614 L120 700 L239 700 L318 432 L321 432 L511 700 L642 700 L624 614 L365 279 Z M430 747 L326 747 L329 763 L413 907 L546 907 L532 845 L430 747 Z " />
<glyph glyph-name="Ycircumflex" unicode="&#x176;" horiz-adv-x="579" d="M365 279 L306 0 L151 0 L214 294 L101 614 L120 700 L239 700 L318 432 L321 432 L511 700 L642 700 L624 614 L365 279 Z M563 747 L467 747 L416 843 L326 747 L220 747 L223 763 L334 907 L517 907 L567 763 L563 747 Z " />
<glyph glyph-name="Ydieresis" unicode="&#x178;" horiz-adv-x="579" d="M365 279 L306 0 L151 0 L214 294 L101 614 L120 700 L239 700 L318 432 L321 432 L511 700 L642 700 L624 614 L365 279 Z M377 860 L360 781 Q331 752 284 752 Q239 752 220 781 L237 860 Q268 888 313 888 Q358 888 377 860 Z M593 860 L576 781 Q550 752 500 752 Q455 752 436 781 L453 860 Q484 888 529 888 Q574 888 593 860 Z " />
<glyph glyph-name="Zacute" unicode="&#x179;" horiz-adv-x="558" d="M193 118 L489 118 L463 0 L-22 0 L-1 100 L397 582 L108 582 L133 700 L613 700 L592 600 L193 118 Z M420 747 L316 747 L319 763 L403 907 L536 907 L522 845 L420 747 Z " />
<glyph glyph-name="Zcaron" unicode="&#x17d;" horiz-adv-x="558" d="M193 118 L489 118 L463 0 L-22 0 L-1 100 L397 582 L108 582 L133 700 L613 700 L592 600 L193 118 Z M473 747 L290 747 L240 891 L244 907 L338 907 L389 811 L480 907 L587 907 L583 891 L473 747 Z " />
<glyph glyph-name="Zdotaccent" unicode="&#x17b;" horiz-adv-x="558" d="M193 118 L489 118 L463 0 L-22 0 L-1 100 L397 582 L108 582 L133 700 L613 700 L592 600 L193 118 Z M482 857 L468 796 Q458 780 436 768.5 Q414 757 383 757 Q353 757 335.5 768.5 Q318 780 315 796 L328 857 Q338 873 360.5 885 Q383 897 413 897 Q443 897 460.5 885 Q478 873 482 857 Z " />
<glyph glyph-name="Eng" unicode="&#x14a;" horiz-adv-x="667" d="M543 -32 Q507 -100 434.5 -138 Q362 -176 261 -176 Q222 -176 208 -174 L233 -60 Q247 -62 271 -62 Q305 -62 334.5 -49 Q364 -36 385 -14 L249 472 L246 472 L144 0 L1 0 L151 700 L320 700 L452 228 L455 228 L557 700 L700 700 L543 -32 Z " />
<glyph glyph-name="Eth" unicode="&#xd0;" horiz-adv-x="646" d="M660 562 L569 138 Q535 75 468.5 37.5 Q402 0 306 0 L19 0 L82 298 L38 298 L63 413 L107 413 L168 700 L436 700 Q533 700 589.5 659.5 Q646 619 660 562 Z M498 526 Q481 583 394 583 L297 583 L261 413 L380 413 L354 298 L236 298 L197 117 L296 117 Q340 117 373 134.5 Q406 152 423 179 L498 526 Z " />
<glyph glyph-name="Thorn" unicode="&#xde;" horiz-adv-x="590" d="M598 469 L553 263 Q513 202 455 173 Q397 144 319 144 L186 144 L155 0 L1 0 L151 700 L305 700 L281 588 L388 588 Q466 588 519 558 Q572 528 598 469 Z M439 422 Q431 446 407.5 458.5 Q384 471 354 471 L256 471 L211 261 L305 261 Q343 261 370 273.5 Q397 286 416 314 L439 422 Z " />
<glyph glyph-name="a" unicode="a" horiz-adv-x="555" d="M540 421 L449 0 L312 0 L321 41 Q254 -15 173 -15 Q121 -15 83.5 -0.5 Q46 14 25.5 33.5 Q5 53 -2 69 L34 239 Q56 272 105 300.5 Q154 329 225 329 L377 329 L391 393 Q386 415 364 430 Q342 445 308 445 Q238 445 204 388 L77 388 L92 453 Q119 490 174.5 523.5 Q230 557 322 557 Q387 557 433.5 535.5 Q480 514 506.5 483 Q533 452 540 421 Z M228 86 Q260 86 287.5 98 Q315 110 334 128 L356 233 L260 233 Q203 233 165 198 L149 121 Q156 108 176 97 Q196 86 228 86 Z " />
<glyph glyph-name="b" unicode="b" horiz-adv-x="559" d="M550 432 L481 110 Q453 62 402 25 Q351 -12 277 -12 Q186 -12 141 49 L130 0 L-7 0 L142 700 L285 700 L243 504 Q305 554 386 554 Q437 554 472.5 534.5 Q508 515 526.5 487 Q545 459 550 432 Z M400 399 Q394 415 375 428.5 Q356 442 322 442 Q261 442 221 404 L165 138 Q176 122 199 111 Q222 100 252 100 Q286 100 309.5 112.5 Q333 125 345 142 L400 399 Z " />
<glyph glyph-name="c" unicode="c" horiz-adv-x="540" d="M543 439 L529 374 L411 374 Q406 407 380.5 426 Q355 445 315 445 Q281 445 254 429.5 Q227 414 212 392 L159 148 Q165 126 188 111.5 Q211 97 245 97 Q322 97 362 168 L484 168 L471 101 Q441 57 384 21 Q327 -15 235 -15 Q170 -15 121.5 6 Q73 27 45.5 58.5 Q18 90 11 121 L76 421 Q107 476 170.5 516.5 Q234 557 329 557 Q393 557 439 537 Q485 517 510.5 489.5 Q536 462 543 439 Z " />
<glyph glyph-name="d" unicode="d" horiz-adv-x="559" d="M600 700 L450 0 L313 0 L322 44 Q263 -12 181 -12 Q129 -12 91.5 7.5 Q54 27 33.5 55 Q13 83 9 110 L78 432 Q105 480 156 517 Q207 554 282 554 Q367 554 415 501 L457 700 L600 700 Z M240 100 Q270 100 295 111 Q320 122 337 139 L395 409 Q383 424 360.5 433 Q338 442 308 442 Q275 442 251 428.5 Q227 415 214 399 L160 143 Q165 127 185.5 113.5 Q206 100 240 100 Z " />
<glyph glyph-name="e" unicode="e" horiz-adv-x="548" d="M543 438 L499 234 L178 234 L160 146 Q165 124 187.5 109 Q210 94 245 94 Q320 94 358 165 L484 165 L471 102 Q443 57 384 21 Q325 -15 231 -15 Q166 -15 118.5 6 Q71 27 44.5 58.5 Q18 90 11 121 L76 421 Q107 476 170.5 516.5 Q234 557 330 557 Q394 557 439.5 536.5 Q485 516 510.5 488.5 Q536 461 543 438 Z M212 394 L199 330 L387 330 L401 396 Q396 418 373 433 Q350 448 315 448 Q281 448 254.5 432.5 Q228 417 212 394 Z " />
<glyph glyph-name="f" unicode="f" horiz-adv-x="349" d="M438 716 L417 618 Q414 618 401 619.5 Q388 621 378 621 Q316 621 289 588 L279 542 L384 542 L362 438 L256 438 L163 0 L20 0 L113 438 L57 438 L80 542 L136 542 L155 633 Q176 672 224.5 700 Q273 728 345 728 Q378 728 402.5 724.5 Q427 721 438 716 Z " />
<glyph glyph-name="g" unicode="g" horiz-adv-x="559" d="M566 542 L439 -50 Q409 -106 345.5 -143.5 Q282 -181 186 -181 Q93 -181 40 -145 Q-13 -109 -31 -68 L-19 -10 L102 -10 Q111 -38 137 -54 Q163 -70 201 -70 Q272 -70 303 -21 L325 78 Q266 28 189 28 Q137 28 99.5 47.5 Q62 67 41.5 95 Q21 123 17 150 L78 432 Q105 480 156 517 Q207 554 282 554 Q372 554 419 496 L429 542 L566 542 Z M347 181 L396 408 Q384 423 361.5 432.5 Q339 442 308 442 Q275 442 251 428.5 Q227 415 214 399 L167 182 Q173 167 193 153.5 Q213 140 247 140 Q278 140 303.5 151.5 Q329 163 347 181 Z " />
<glyph glyph-name="h" unicode="h" horiz-adv-x="565" d="M551 432 L458 0 L315 0 L400 399 Q394 415 373.5 428.5 Q353 442 320 442 Q261 442 222 405 L135 0 L-7 0 L142 700 L285 700 L243 504 Q305 554 383 554 Q435 554 471.5 534.5 Q508 515 527 487 Q546 459 551 432 Z " />
<glyph glyph-name="i" unicode="i" horiz-adv-x="250" d="M139 0 L-4 0 L112 542 L255 542 L139 0 Z M295 705 L281 643 Q271 627 248.5 615.5 Q226 604 196 604 Q166 604 148.5 615.5 Q131 627 128 643 L142 705 Q151 720 174 732 Q197 744 226 744 Q256 744 273.5 732.5 Q291 721 295 705 Z " />
<glyph glyph-name="j" unicode="j" horiz-adv-x="244" d="M125 -46 Q95 -106 28 -143 Q-39 -180 -140 -180 L-117 -71 Q-83 -71 -53 -52.5 Q-23 -34 -9 -8 L108 542 L251 542 L125 -46 Z M293 705 L279 643 Q269 627 246.5 615.5 Q224 604 194 604 Q164 604 146.5 615.5 Q129 627 126 643 L140 705 Q149 720 172 732 Q195 744 224 744 Q254 744 271.5 732.5 Q289 721 293 705 Z " />
<glyph glyph-name="k" unicode="k" horiz-adv-x="539" d="M461 0 L355 0 L252 227 L169 157 L135 0 L-7 0 L142 700 L285 700 L207 336 L446 542 L550 542 L534 463 L364 321 L477 78 L461 0 Z " />
<glyph glyph-name="l" unicode="l" horiz-adv-x="244" d="M136 0 L-7 0 L142 700 L285 700 L136 0 Z " />
<glyph glyph-name="m" unicode="m" horiz-adv-x="828" d="M815 436 L721 0 L579 0 L666 404 Q662 419 645 430.5 Q628 442 598 442 Q550 442 517 411 L428 0 L286 0 L373 404 Q369 419 352 430.5 Q335 442 306 442 Q257 442 222 409 L135 0 L-7 0 L109 542 L241 542 L231 495 Q288 554 370 554 Q420 554 453.5 534.5 Q487 515 505 484 Q573 554 663 554 Q712 554 745 535.5 Q778 517 795 490 Q812 463 815 436 Z " />
<glyph glyph-name="n" unicode="n" horiz-adv-x="564" d="M549 432 L457 0 L314 0 L400 399 Q393 416 373.5 429 Q354 442 321 442 Q289 442 263.5 431 Q238 420 221 403 L135 0 L-7 0 L109 542 L241 542 L231 494 Q296 554 382 554 Q434 554 470 534.5 Q506 515 525 487 Q544 459 549 432 Z " />
<glyph glyph-name="o" unicode="o" horiz-adv-x="561" d="M550 421 L484 121 Q453 66 390.5 25.5 Q328 -15 232 -15 Q167 -15 119 6 Q71 27 44.5 58 Q18 89 11 121 L76 421 Q108 477 171 517 Q234 557 329 557 Q395 557 442 536 Q489 515 515.5 484 Q542 453 550 421 Z M212 391 L159 148 Q165 126 187.5 111.5 Q210 97 245 97 Q280 97 307 113 Q334 129 348 152 L401 394 Q396 416 373 430.5 Q350 445 315 445 Q281 445 254 429.5 Q227 414 212 391 Z " />
<glyph glyph-name="p" unicode="p" horiz-adv-x="559" d="M550 432 L481 110 Q453 62 402 25 Q351 -12 277 -12 Q191 -12 144 44 L99 -166 L-44 -166 L109 542 L246 542 L237 499 Q301 554 386 554 Q437 554 472.5 534.5 Q508 515 526.5 487 Q545 459 550 432 Z M400 399 Q394 415 375 428.5 Q356 442 322 442 Q290 442 264.5 431.5 Q239 421 222 405 L165 138 Q177 121 199.5 110.5 Q222 100 252 100 Q286 100 309.5 112.5 Q333 125 345 142 L400 399 Z " />
<glyph glyph-name="q" unicode="q" horiz-adv-x="559" d="M566 542 L414 -166 L271 -166 L315 37 Q257 -12 181 -12 Q129 -12 91.5 7.5 Q54 27 33.5 55 Q13 83 9 110 L78 432 Q105 480 156 517 Q207 554 282 554 Q372 554 419 496 L429 542 L566 542 Z M337 138 L395 409 Q383 424 360.5 433 Q338 442 308 442 Q275 442 251 428.5 Q227 415 214 399 L160 143 Q165 127 185.5 113.5 Q206 100 240 100 Q297 100 337 138 Z " />
<glyph glyph-name="r" unicode="r" horiz-adv-x="377" d="M413 542 L386 411 Q375 412 361 412 Q312 412 274 400 Q236 388 214 370 L135 0 L-8 0 L108 542 L241 542 L225 468 Q256 503 293.5 523 Q331 543 384 543 Q404 543 413 542 Z " />
<glyph glyph-name="s" unicode="s" horiz-adv-x="505" d="M504 461 L491 402 L374 402 Q367 424 344 438 Q321 452 288 452 Q260 452 238.5 442.5 Q217 433 206 420 L195 369 Q203 347 256 334 L305 322 Q378 304 413 280.5 Q448 257 462 229 L431 89 Q402 48 347.5 16.5 Q293 -15 206 -15 Q115 -15 63.5 18.5 Q12 52 -6 89 L8 148 L127 148 Q136 119 159.5 104.5 Q183 90 218 90 Q248 90 271.5 101 Q295 112 308 129 L320 180 Q311 204 257 217 L208 229 Q135 246 102.5 269 Q70 292 53 323 L82 461 Q108 496 163.5 526.5 Q219 557 303 557 Q386 557 436 526 Q486 495 504 461 Z " />
<glyph glyph-name="t" unicode="t" horiz-adv-x="362" d="M257 438 L191 129 Q207 98 270 98 Q294 98 306 100 L284 -1 Q249 -12 204 -12 Q127 -12 88 15.5 Q49 43 38 82 L114 438 L57 438 L80 542 L137 542 L161 655 L304 655 L279 542 L384 542 L362 438 L257 438 Z " />
<glyph glyph-name="u" unicode="u" horiz-adv-x="558" d="M565 542 L449 0 L317 0 L326 45 Q267 -12 182 -12 Q131 -12 94 7.5 Q57 27 37 55 Q17 83 13 109 L106 542 L249 542 L163 143 Q169 127 188.5 113.5 Q208 100 241 100 Q299 100 336 135 L423 542 L565 542 Z " />
<glyph glyph-name="v" unicode="v" horiz-adv-x="535" d="M298 0 L121 0 L71 463 L88 542 L211 542 L237 149 L240 149 L435 542 L563 542 L546 463 L298 0 Z " />
<glyph glyph-name="w" unicode="w" horiz-adv-x="796" d="M589 0 L431 0 L414 332 L411 332 L256 0 L94 0 L73 463 L90 542 L214 542 L214 156 L217 156 L395 542 L519 542 L531 156 L534 156 L699 542 L825 542 L808 463 L589 0 Z " />
<glyph glyph-name="x" unicode="x" horiz-adv-x="514" d="M356 276 L442 79 L426 0 L309 0 L248 194 L245 194 L101 0 L-27 0 L-11 79 L161 280 L80 463 L96 542 L211 542 L269 360 L272 360 L407 542 L534 542 L517 463 L356 276 Z " />
<glyph glyph-name="y" unicode="y" horiz-adv-x="528" d="M425 542 L557 542 L541 464 L234 -99 Q198 -139 149 -157 Q100 -175 31 -175 Q5 -175 -18.5 -172.5 Q-42 -170 -53 -166 L-31 -64 Q-13 -67 14 -67 Q82 -67 121 -32 L142 9 L71 463 L88 542 L209 542 L245 184 L248 184 L425 542 Z " />
<glyph glyph-name="z" unicode="z" horiz-adv-x="485" d="M163 106 L423 106 L400 0 L-30 0 L-10 98 L315 436 L71 436 L94 542 L516 542 L496 450 L163 106 Z " />
<glyph glyph-name="agrave" unicode="&#xe0;" horiz-adv-x="555" d="M540 421 L449 0 L312 0 L321 41 Q254 -15 173 -15 Q121 -15 83.5 -0.5 Q46 14 25.5 33.5 Q5 53 -2 69 L34 239 Q56 272 105 300.5 Q154 329 225 329 L377 329 L391 393 Q386 415 364 430 Q342 445 308 445 Q238 445 204 388 L77 388 L92 453 Q119 490 174.5 523.5 Q230 557 322 557 Q387 557 433.5 535.5 Q480 514 506.5 483 Q533 452 540 421 Z M228 86 Q260 86 287.5 98 Q315 110 334 128 L356 233 L260 233 Q203 233 165 198 L149 121 Q156 108 176 97 Q196 86 228 86 Z M406 604 L304 604 L244 705 L258 767 L385 767 L408 619 L406 604 Z " />
<glyph glyph-name="aacute" unicode="&#xe1;" horiz-adv-x="555" d="M540 421 L449 0 L312 0 L321 41 Q254 -15 173 -15 Q121 -15 83.5 -0.5 Q46 14 25.5 33.5 Q5 53 -2 69 L34 239 Q56 272 105 300.5 Q154 329 225 329 L377 329 L391 393 Q386 415 364 430 Q342 445 308 445 Q238 445 204 388 L77 388 L92 453 Q119 490 174.5 523.5 Q230 557 322 557 Q387 557 433.5 535.5 Q480 514 506.5 483 Q533 452 540 421 Z M228 86 Q260 86 287.5 98 Q315 110 334 128 L356 233 L260 233 Q203 233 165 198 L149 121 Q156 108 176 97 Q196 86 228 86 Z M405 604 L292 604 L295 619 L382 767 L521 767 L506 705 L405 604 Z " />
<glyph glyph-name="acircumflex" unicode="&#xe2;" horiz-adv-x="555" d="M540 421 L449 0 L312 0 L321 41 Q254 -15 173 -15 Q121 -15 83.5 -0.5 Q46 14 25.5 33.5 Q5 53 -2 69 L34 239 Q56 272 105 300.5 Q154 329 225 329 L377 329 L391 393 Q386 415 364 430 Q342 445 308 445 Q238 445 204 388 L77 388 L92 453 Q119 490 174.5 523.5 Q230 557 322 557 Q387 557 433.5 535.5 Q480 514 506.5 483 Q533 452 540 421 Z M228 86 Q260 86 287.5 98 Q315 110 334 128 L356 233 L260 233 Q203 233 165 198 L149 121 Q156 108 176 97 Q196 86 228 86 Z M523 601 L427 601 L378 700 L286 601 L180 601 L183 617 L295 764 L478 764 L527 617 L523 601 Z " />
<glyph glyph-name="atilde" unicode="&#xe3;" horiz-adv-x="555" d="M540 421 L449 0 L312 0 L321 41 Q254 -15 173 -15 Q121 -15 83.5 -0.5 Q46 14 25.5 33.5 Q5 53 -2 69 L34 239 Q56 272 105 300.5 Q154 329 225 329 L377 329 L391 393 Q386 415 364 430 Q342 445 308 445 Q238 445 204 388 L77 388 L92 453 Q119 490 174.5 523.5 Q230 557 322 557 Q387 557 433.5 535.5 Q480 514 506.5 483 Q533 452 540 421 Z M228 86 Q260 86 287.5 98 Q315 110 334 128 L356 233 L260 233 Q203 233 165 198 L149 121 Q156 108 176 97 Q196 86 228 86 Z M387 716 Q402 705 412 700.5 Q422 696 433 696 Q458 696 470 721 L474 741 L557 741 L545 683 Q531 650 502 628 Q473 606 433 606 Q406 606 387 614 Q368 622 348 636 Q334 646 324.5 651 Q315 656 303 656 Q279 656 266 632 L262 612 L179 612 L191 669 Q204 703 233.5 724.5 Q263 746 303 746 Q330 746 348 738 Q366 730 387 716 Z " />
<glyph glyph-name="adieresis" unicode="&#xe4;" horiz-adv-x="555" d="M540 421 L449 0 L312 0 L321 41 Q254 -15 173 -15 Q121 -15 83.5 -0.5 Q46 14 25.5 33.5 Q5 53 -2 69 L34 239 Q56 272 105 300.5 Q154 329 225 329 L377 329 L391 393 Q386 415 364 430 Q342 445 308 445 Q238 445 204 388 L77 388 L92 453 Q119 490 174.5 523.5 Q230 557 322 557 Q387 557 433.5 535.5 Q480 514 506.5 483 Q533 452 540 421 Z M228 86 Q260 86 287.5 98 Q315 110 334 128 L356 233 L260 233 Q203 233 165 198 L149 121 Q156 108 176 97 Q196 86 228 86 Z M337 714 L319 632 Q288 604 243 604 Q198 604 179 632 L197 714 Q207 724 226 733 Q245 742 273 742 Q318 742 337 714 Z M555 714 L537 632 Q506 604 461 604 Q433 604 418 613 Q403 622 397 632 L415 714 Q424 724 443.5 733 Q463 742 491 742 Q519 742 532.5 734 Q546 726 555 714 Z " />
<glyph glyph-name="amacron" unicode="&#x101;" horiz-adv-x="555" d="M540 421 L449 0 L312 0 L321 41 Q254 -15 173 -15 Q121 -15 83.5 -0.5 Q46 14 25.5 33.5 Q5 53 -2 69 L34 239 Q56 272 105 300.5 Q154 329 225 329 L377 329 L391 393 Q386 415 364 430 Q342 445 308 445 Q238 445 204 388 L77 388 L92 453 Q119 490 174.5 523.5 Q230 557 322 557 Q387 557 433.5 535.5 Q480 514 506.5 483 Q533 452 540 421 Z M228 86 Q260 86 287.5 98 Q315 110 334 128 L356 233 L260 233 Q203 233 165 198 L149 121 Q156 108 176 97 Q196 86 228 86 Z M186 628 L206 724 L548 724 L528 628 L186 628 Z " />
<glyph glyph-name="abreve" unicode="&#x103;" horiz-adv-x="555" d="M540 421 L449 0 L312 0 L321 41 Q254 -15 173 -15 Q121 -15 83.5 -0.5 Q46 14 25.5 33.5 Q5 53 -2 69 L34 239 Q56 272 105 300.5 Q154 329 225 329 L377 329 L391 393 Q386 415 364 430 Q342 445 308 445 Q238 445 204 388 L77 388 L92 453 Q119 490 174.5 523.5 Q230 557 322 557 Q387 557 433.5 535.5 Q480 514 506.5 483 Q533 452 540 421 Z M228 86 Q260 86 287.5 98 Q315 110 334 128 L356 233 L260 233 Q203 233 165 198 L149 121 Q156 108 176 97 Q196 86 228 86 Z M539 684 Q516 645 470.5 620.5 Q425 596 362 596 Q296 596 254.5 620.5 Q213 645 199 684 L212 744 L317 744 L308 706 Q310 694 324.5 683 Q339 672 366 672 Q395 672 413 682.5 Q431 693 439 706 L448 744 L552 744 L539 684 Z " />
<glyph glyph-name="aring" unicode="&#xe5;" horiz-adv-x="555" d="M540 421 L449 0 L312 0 L321 41 Q254 -15 173 -15 Q121 -15 83.5 -0.5 Q46 14 25.5 33.5 Q5 53 -2 69 L34 239 Q56 272 105 300.5 Q154 329 225 329 L377 329 L391 393 Q386 415 364 430 Q342 445 308 445 Q238 445 204 388 L77 388 L92 453 Q119 490 174.5 523.5 Q230 557 322 557 Q387 557 433.5 535.5 Q480 514 506.5 483 Q533 452 540 421 Z M228 86 Q260 86 287.5 98 Q315 110 334 128 L356 233 L260 233 Q203 233 165 198 L149 121 Q156 108 176 97 Q196 86 228 86 Z M506 749 L486 655 Q467 626 433 609 Q399 592 357 592 Q313 592 281 609.5 Q249 627 239 655 L258 749 Q277 777 311.5 794.5 Q346 812 388 812 Q432 812 463.5 794.5 Q495 777 506 749 Z M321 729 L310 675 Q313 665 326 657.5 Q339 650 361 650 Q383 650 399 657.5 Q415 665 423 675 L435 729 Q431 739 418 746.5 Q405 754 383 754 Q361 754 345 746.5 Q329 739 321 729 Z " />
<glyph glyph-name="aogonek" unicode="&#x105;" horiz-adv-x="555" d="M338 -100 L331 -125 Q335 -132 346.5 -136.5 Q358 -141 373 -141 Q394 -141 421 -133 L404 -210 Q390 -217 373.5 -221 Q357 -225 330 -225 Q290 -225 258 -210 Q226 -195 219 -170 L236 -93 Q248 -74 276 -48 Q304 -22 340 0 L312 0 L321 41 Q254 -15 173 -15 Q121 -15 83.5 -0.5 Q46 14 25.5 33.5 Q5 53 -2 69 L34 239 Q56 272 105 300.5 Q154 329 225 329 L377 329 L391 393 Q386 415 364 430 Q342 445 308 445 Q238 445 204 388 L77 388 L92 453 Q119 490 174.5 523.5 Q230 557 322 557 Q387 557 433.5 535.5 Q480 514 506.5 483 Q533 452 540 421 L449 0 Q361 -61 338 -100 Z M228 86 Q260 86 287.5 98 Q315 110 334 128 L356 233 L260 233 Q203 233 165 198 L149 121 Q156 108 176 97 Q196 86 228 86 Z " />
<glyph glyph-name="ae" unicode="&#xe6;" horiz-adv-x="869" d="M499 234 L481 146 Q486 124 508.5 109 Q531 94 566 94 Q641 94 679 165 L805 165 L792 102 Q764 57 705 21 Q646 -15 552 -15 Q494 -15 449.5 2 Q405 19 376 48 Q298 -15 189 -15 Q106 -15 60.5 12 Q15 39 -2 69 L34 239 Q56 273 105 301.5 Q154 330 225 330 L377 330 L392 398 Q384 418 362 431.5 Q340 445 308 445 Q238 445 204 388 L77 388 L92 453 Q119 490 174.5 523.5 Q230 557 322 557 Q417 557 479 509 Q553 557 651 557 Q715 557 760.5 536.5 Q806 516 831.5 488.5 Q857 461 864 438 L820 234 L499 234 Z M533 394 L520 330 L708 330 L722 396 Q717 418 694.5 433 Q672 448 636 448 Q602 448 575.5 432.5 Q549 417 533 394 Z M229 86 Q260 86 287.5 97.5 Q315 109 333 127 L357 234 L260 234 Q225 234 203 223.5 Q181 213 165 198 L149 121 Q156 108 176.5 97 Q197 86 229 86 Z " />
<glyph glyph-name="cacute" unicode="&#x107;" horiz-adv-x="540" d="M543 439 L529 374 L411 374 Q406 407 380.5 426 Q355 445 315 445 Q281 445 254 429.5 Q227 414 212 392 L159 148 Q165 126 188 111.5 Q211 97 245 97 Q322 97 362 168 L484 168 L471 101 Q441 57 384 21 Q327 -15 235 -15 Q170 -15 121.5 6 Q73 27 45.5 58.5 Q18 90 11 121 L76 421 Q107 476 170.5 516.5 Q234 557 329 557 Q393 557 439 537 Q485 517 510.5 489.5 Q536 462 543 439 Z M408 604 L295 604 L298 619 L385 767 L524 767 L509 705 L408 604 Z " />
<glyph glyph-name="ccircumflex" unicode="&#x109;" horiz-adv-x="540" d="M543 439 L529 374 L411 374 Q406 407 380.5 426 Q355 445 315 445 Q281 445 254 429.5 Q227 414 212 392 L159 148 Q165 126 188 111.5 Q211 97 245 97 Q322 97 362 168 L484 168 L471 101 Q441 57 384 21 Q327 -15 235 -15 Q170 -15 121.5 6 Q73 27 45.5 58.5 Q18 90 11 121 L76 421 Q107 476 170.5 516.5 Q234 557 329 557 Q393 557 439 537 Q485 517 510.5 489.5 Q536 462 543 439 Z M525 601 L429 601 L380 700 L288 601 L182 601 L185 617 L297 764 L480 764 L529 617 L525 601 Z " />
<glyph glyph-name="ccaron" unicode="&#x10d;" horiz-adv-x="540" d="M543 439 L529 374 L411 374 Q406 407 380.5 426 Q355 445 315 445 Q281 445 254 429.5 Q227 414 212 392 L159 148 Q165 126 188 111.5 Q211 97 245 97 Q322 97 362 168 L484 168 L471 101 Q441 57 384 21 Q327 -15 235 -15 Q170 -15 121.5 6 Q73 27 45.5 58.5 Q18 90 11 121 L76 421 Q107 476 170.5 516.5 Q234 557 329 557 Q393 557 439 537 Q485 517 510.5 489.5 Q536 462 543 439 Z M445 601 L262 601 L213 748 L217 764 L311 764 L361 665 L452 764 L560 764 L557 748 L445 601 Z " />
<glyph glyph-name="cdotaccent" unicode="&#x10b;" horiz-adv-x="540" d="M543 439 L529 374 L411 374 Q406 407 380.5 426 Q355 445 315 445 Q281 445 254 429.5 Q227 414 212 392 L159 148 Q165 126 188 111.5 Q211 97 245 97 Q322 97 362 168 L484 168 L471 101 Q441 57 384 21 Q327 -15 235 -15 Q170 -15 121.5 6 Q73 27 45.5 58.5 Q18 90 11 121 L76 421 Q107 476 170.5 516.5 Q234 557 329 557 Q393 557 439 537 Q485 517 510.5 489.5 Q536 462 543 439 Z M453 705 L439 643 Q429 627 406.5 615.5 Q384 604 354 604 Q324 604 306.5 615.5 Q289 627 286 643 L300 705 Q309 720 332 732 Q355 744 384 744 Q414 744 431.5 732.5 Q449 721 453 705 Z " />
<glyph glyph-name="ccedilla" unicode="&#xe7;" horiz-adv-x="540" d="M212 392 L159 148 Q165 126 188 111.5 Q211 97 245 97 Q322 97 362 168 L484 168 L471 101 Q442 58 387 22.5 Q332 -13 243 -15 L225 -44 L233 -44 Q266 -44 287 -59 Q308 -74 312 -93 L295 -169 Q257 -228 164 -228 Q134 -228 107 -222 Q80 -216 64 -208 L98 -148 Q134 -160 167 -160 Q186 -160 199.5 -154.5 Q213 -149 219 -140 L224 -116 Q219 -100 181 -100 L121 -100 L171 -9 Q103 4 61.5 42 Q20 80 11 121 L76 421 Q107 476 170.5 516.5 Q234 557 329 557 Q393 557 439 537 Q485 517 510.5 489.5 Q536 462 543 439 L529 374 L411 374 Q406 407 380.5 426 Q355 445 315 445 Q281 445 254 429.5 Q227 414 212 392 Z " />
<glyph glyph-name="dcaron" unicode="&#x10f;" horiz-adv-x="726" d="M600 700 L450 0 L313 0 L322 44 Q263 -12 181 -12 Q129 -12 91.5 7.5 Q54 27 33.5 55 Q13 83 9 110 L78 432 Q105 480 156 517 Q207 554 282 554 Q367 554 415 501 L457 700 L600 700 Z M240 100 Q270 100 295 111 Q320 122 337 139 L395 409 Q383 424 360.5 433 Q338 442 308 442 Q275 442 251 428.5 Q227 415 214 399 L160 143 Q165 127 185.5 113.5 Q206 100 240 100 Z M704 493 L618 493 L622 508 L683 700 L794 700 L779 626 L704 493 Z " />
<glyph glyph-name="egrave" unicode="&#xe8;" horiz-adv-x="548" d="M543 438 L499 234 L178 234 L160 146 Q165 124 187.5 109 Q210 94 245 94 Q320 94 358 165 L484 165 L471 102 Q443 57 384 21 Q325 -15 231 -15 Q166 -15 118.5 6 Q71 27 44.5 58.5 Q18 90 11 121 L76 421 Q107 476 170.5 516.5 Q234 557 330 557 Q394 557 439.5 536.5 Q485 516 510.5 488.5 Q536 461 543 438 Z M212 394 L199 330 L387 330 L401 396 Q396 418 373 433 Q350 448 315 448 Q281 448 254.5 432.5 Q228 417 212 394 Z M411 604 L309 604 L249 705 L263 767 L390 767 L413 619 L411 604 Z " />
<glyph glyph-name="eacute" unicode="&#xe9;" horiz-adv-x="548" d="M543 438 L499 234 L178 234 L160 146 Q165 124 187.5 109 Q210 94 245 94 Q320 94 358 165 L484 165 L471 102 Q443 57 384 21 Q325 -15 231 -15 Q166 -15 118.5 6 Q71 27 44.5 58.5 Q18 90 11 121 L76 421 Q107 476 170.5 516.5 Q234 557 330 557 Q394 557 439.5 536.5 Q485 516 510.5 488.5 Q536 461 543 438 Z M212 394 L199 330 L387 330 L401 396 Q396 418 373 433 Q350 448 315 448 Q281 448 254.5 432.5 Q228 417 212 394 Z M410 604 L297 604 L300 619 L387 767 L526 767 L511 705 L410 604 Z " />
<glyph glyph-name="ecircumflex" unicode="&#xea;" horiz-adv-x="548" d="M543 438 L499 234 L178 234 L160 146 Q165 124 187.5 109 Q210 94 245 94 Q320 94 358 165 L484 165 L471 102 Q443 57 384 21 Q325 -15 231 -15 Q166 -15 118.5 6 Q71 27 44.5 58.5 Q18 90 11 121 L76 421 Q107 476 170.5 516.5 Q234 557 330 557 Q394 557 439.5 536.5 Q485 516 510.5 488.5 Q536 461 543 438 Z M212 394 L199 330 L387 330 L401 396 Q396 418 373 433 Q350 448 315 448 Q281 448 254.5 432.5 Q228 417 212 394 Z M527 601 L431 601 L382 700 L290 601 L184 601 L187 617 L299 764 L482 764 L531 617 L527 601 Z " />
<glyph glyph-name="ecaron" unicode="&#x11b;" horiz-adv-x="548" d="M543 438 L499 234 L178 234 L160 146 Q165 124 187.5 109 Q210 94 245 94 Q320 94 358 165 L484 165 L471 102 Q443 57 384 21 Q325 -15 231 -15 Q166 -15 118.5 6 Q71 27 44.5 58.5 Q18 90 11 121 L76 421 Q107 476 170.5 516.5 Q234 557 330 557 Q394 557 439.5 536.5 Q485 516 510.5 488.5 Q536 461 543 438 Z M212 394 L199 330 L387 330 L401 396 Q396 418 373 433 Q350 448 315 448 Q281 448 254.5 432.5 Q228 417 212 394 Z M447 601 L264 601 L215 748 L219 764 L313 764 L363 665 L454 764 L562 764 L559 748 L447 601 Z " />
<glyph glyph-name="edieresis" unicode="&#xeb;" horiz-adv-x="548" d="M543 438 L499 234 L178 234 L160 146 Q165 124 187.5 109 Q210 94 245 94 Q320 94 358 165 L484 165 L471 102 Q443 57 384 21 Q325 -15 231 -15 Q166 -15 118.5 6 Q71 27 44.5 58.5 Q18 90 11 121 L76 421 Q107 476 170.5 516.5 Q234 557 330 557 Q394 557 439.5 536.5 Q485 516 510.5 488.5 Q536 461 543 438 Z M212 394 L199 330 L387 330 L401 396 Q396 418 373 433 Q350 448 315 448 Q281 448 254.5 432.5 Q228 417 212 394 Z M341 714 L323 632 Q292 604 247 604 Q202 604 183 632 L201 714 Q211 724 230 733 Q249 742 277 742 Q322 742 341 714 Z M559 714 L541 632 Q510 604 465 604 Q437 604 422 613 Q407 622 401 632 L419 714 Q428 724 447.5 733 Q467 742 495 742 Q523 742 536.5 734 Q550 726 559 714 Z " />
<glyph glyph-name="emacron" unicode="&#x113;" horiz-adv-x="548" d="M543 438 L499 234 L178 234 L160 146 Q165 124 187.5 109 Q210 94 245 94 Q320 94 358 165 L484 165 L471 102 Q443 57 384 21 Q325 -15 231 -15 Q166 -15 118.5 6 Q71 27 44.5 58.5 Q18 90 11 121 L76 421 Q107 476 170.5 516.5 Q234 557 330 557 Q394 557 439.5 536.5 Q485 516 510.5 488.5 Q536 461 543 438 Z M212 394 L199 330 L387 330 L401 396 Q396 418 373 433 Q350 448 315 448 Q281 448 254.5 432.5 Q228 417 212 394 Z M191 628 L211 724 L553 724 L533 628 L191 628 Z " />
<glyph glyph-name="ebreve" unicode="&#x115;" horiz-adv-x="548" d="M543 438 L499 234 L178 234 L160 146 Q165 124 187.5 109 Q210 94 245 94 Q320 94 358 165 L484 165 L471 102 Q443 57 384 21 Q325 -15 231 -15 Q166 -15 118.5 6 Q71 27 44.5 58.5 Q18 90 11 121 L76 421 Q107 476 170.5 516.5 Q234 557 330 557 Q394 557 439.5 536.5 Q485 516 510.5 488.5 Q536 461 543 438 Z M212 394 L199 330 L387 330 L401 396 Q396 418 373 433 Q350 448 315 448 Q281 448 254.5 432.5 Q228 417 212 394 Z M543 684 Q520 645 474.5 620.5 Q429 596 366 596 Q300 596 258.5 620.5 Q217 645 203 684 L216 744 L321 744 L312 706 Q314 694 328.5 683 Q343 672 370 672 Q399 672 417 682.5 Q435 693 443 706 L452 744 L556 744 L543 684 Z " />
<glyph glyph-name="edotaccent" unicode="&#x117;" horiz-adv-x="548" d="M543 438 L499 234 L178 234 L160 146 Q165 124 187.5 109 Q210 94 245 94 Q320 94 358 165 L484 165 L471 102 Q443 57 384 21 Q325 -15 231 -15 Q166 -15 118.5 6 Q71 27 44.5 58.5 Q18 90 11 121 L76 421 Q107 476 170.5 516.5 Q234 557 330 557 Q394 557 439.5 536.5 Q485 516 510.5 488.5 Q536 461 543 438 Z M212 394 L199 330 L387 330 L401 396 Q396 418 373 433 Q350 448 315 448 Q281 448 254.5 432.5 Q228 417 212 394 Z M456 705 L442 643 Q432 627 409.5 615.5 Q387 604 357 604 Q327 604 309.5 615.5 Q292 627 289 643 L303 705 Q312 720 335 732 Q358 744 387 744 Q417 744 434.5 732.5 Q452 721 456 705 Z " />
<glyph glyph-name="eogonek" unicode="&#x119;" horiz-adv-x="548" d="M178 234 L160 146 Q165 124 187.5 109 Q210 94 245 94 Q320 94 358 165 L484 165 L471 102 Q459 80 422 45 Q379 4 350 -37 Q321 -78 313 -100 L307 -125 Q310 -132 322 -136.5 Q334 -141 349 -141 Q371 -141 396 -133 L379 -210 Q365 -218 348.5 -221.5 Q332 -225 305 -225 Q265 -225 233.5 -210 Q202 -195 194 -170 L212 -93 Q219 -78 238 -55.5 Q257 -33 282 -11 Q258 -15 231 -15 Q166 -15 118.5 6 Q71 27 44.5 58.5 Q18 90 11 121 L76 421 Q107 476 170.5 516.5 Q234 557 330 557 Q394 557 439.5 536.5 Q485 516 510.5 488.5 Q536 461 543 438 L499 234 L178 234 Z M199 330 L387 330 L401 396 Q396 418 373 433 Q350 448 315 448 Q281 448 254.5 432.5 Q228 417 212 394 L199 330 Z " />
<glyph glyph-name="gcircumflex" unicode="&#x11d;" horiz-adv-x="559" d="M566 542 L439 -50 Q409 -106 345.5 -143.5 Q282 -181 186 -181 Q93 -181 40 -145 Q-13 -109 -31 -68 L-19 -10 L102 -10 Q111 -38 137 -54 Q163 -70 201 -70 Q272 -70 303 -21 L325 78 Q266 28 189 28 Q137 28 99.5 47.5 Q62 67 41.5 95 Q21 123 17 150 L78 432 Q105 480 156 517 Q207 554 282 554 Q372 554 419 496 L429 542 L566 542 Z M347 181 L396 408 Q384 423 361.5 432.5 Q339 442 308 442 Q275 442 251 428.5 Q227 415 214 399 L167 182 Q173 167 193 153.5 Q213 140 247 140 Q278 140 303.5 151.5 Q329 163 347 181 Z M522 601 L426 601 L377 700 L285 601 L179 601 L182 617 L294 764 L477 764 L526 617 L522 601 Z " />
<glyph glyph-name="gbreve" unicode="&#x11f;" horiz-adv-x="559" d="M566 542 L439 -50 Q409 -106 345.5 -143.5 Q282 -181 186 -181 Q93 -181 40 -145 Q-13 -109 -31 -68 L-19 -10 L102 -10 Q111 -38 137 -54 Q163 -70 201 -70 Q272 -70 303 -21 L325 78 Q266 28 189 28 Q137 28 99.5 47.5 Q62 67 41.5 95 Q21 123 17 150 L78 432 Q105 480 156 517 Q207 554 282 554 Q372 554 419 496 L429 542 L566 542 Z M347 181 L396 408 Q384 423 361.5 432.5 Q339 442 308 442 Q275 442 251 428.5 Q227 415 214 399 L167 182 Q173 167 193 153.5 Q213 140 247 140 Q278 140 303.5 151.5 Q329 163 347 181 Z M538 684 Q515 645 469.5 620.5 Q424 596 361 596 Q295 596 253.5 620.5 Q212 645 198 684 L211 744 L316 744 L307 706 Q309 694 323.5 683 Q338 672 365 672 Q394 672 412 682.5 Q430 693 438 706 L447 744 L551 744 L538 684 Z " />
<glyph glyph-name="gdotaccent" unicode="&#x121;" horiz-adv-x="559" d="M566 542 L439 -50 Q409 -106 345.5 -143.5 Q282 -181 186 -181 Q93 -181 40 -145 Q-13 -109 -31 -68 L-19 -10 L102 -10 Q111 -38 137 -54 Q163 -70 201 -70 Q272 -70 303 -21 L325 78 Q266 28 189 28 Q137 28 99.5 47.5 Q62 67 41.5 95 Q21 123 17 150 L78 432 Q105 480 156 517 Q207 554 282 554 Q372 554 419 496 L429 542 L566 542 Z M347 181 L396 408 Q384 423 361.5 432.5 Q339 442 308 442 Q275 442 251 428.5 Q227 415 214 399 L167 182 Q173 167 193 153.5 Q213 140 247 140 Q278 140 303.5 151.5 Q329 163 347 181 Z M450 705 L436 643 Q426 627 403.5 615.5 Q381 604 351 604 Q321 604 303.5 615.5 Q286 627 283 643 L297 705 Q306 720 329 732 Q352 744 381 744 Q411 744 428.5 732.5 Q446 721 450 705 Z " />
<glyph glyph-name="gcommaaccent" unicode="&#x123;" horiz-adv-x="559" d="M566 542 L439 -50 Q409 -106 345.5 -143.5 Q282 -181 186 -181 Q93 -181 40 -145 Q-13 -109 -31 -68 L-19 -10 L102 -10 Q111 -38 137 -54 Q163 -70 201 -70 Q272 -70 303 -21 L325 78 Q266 28 189 28 Q137 28 99.5 47.5 Q62 67 41.5 95 Q21 123 17 150 L78 432 Q105 480 156 517 Q207 554 282 554 Q372 554 419 496 L429 542 L566 542 Z M347 181 L396 408 Q384 423 361.5 432.5 Q339 442 308 442 Q275 442 251 428.5 Q227 415 214 399 L167 182 Q173 167 193 153.5 Q213 140 247 140 Q278 140 303.5 151.5 Q329 163 347 181 Z M318 739 L313 716 Q369 716 384 677 L374 629 Q349 590 295 590 Q266 590 247 602 Q228 614 222 629 L248 751 Q258 772 286.5 789 Q315 806 355 806 L399 806 L388 752 L367 752 Q328 752 318 739 Z " />
<glyph glyph-name="hcircumflex" unicode="&#x125;" horiz-adv-x="565" d="M551 432 L458 0 L315 0 L400 399 Q394 415 373.5 428.5 Q353 442 320 442 Q261 442 222 405 L135 0 L-7 0 L142 700 L285 700 L243 504 Q305 554 383 554 Q435 554 471.5 534.5 Q508 515 527 487 Q546 459 551 432 Z M562 742 L466 742 L415 838 L325 742 L219 742 L222 758 L333 902 L516 902 L566 758 L562 742 Z " />
<glyph glyph-name="hbar" unicode="&#x127;" horiz-adv-x="579" d="M561 410 L473 0 L330 0 L410 377 Q404 393 383.5 406 Q363 419 330 419 Q270 419 232 383 L150 0 L8 0 L131 577 L90 577 L107 652 L147 652 L157 700 L300 700 L290 652 L448 652 L431 577 L273 577 L253 482 Q316 531 393 531 Q445 531 481.5 512 Q518 493 537 465 Q556 437 561 410 Z " />
<glyph glyph-name="igrave" unicode="&#xec;" horiz-adv-x="250" d="M139 0 L-4 0 L112 542 L255 542 L139 0 Z M251 604 L149 604 L89 705 L103 767 L230 767 L253 619 L251 604 Z " />
<glyph glyph-name="iacute" unicode="&#xed;" horiz-adv-x="250" d="M139 0 L-4 0 L112 542 L255 542 L139 0 Z M250 604 L137 604 L140 619 L227 767 L366 767 L351 705 L250 604 Z " />
<glyph glyph-name="icircumflex" unicode="&#xee;" horiz-adv-x="250" d="M139 0 L-4 0 L112 542 L255 542 L139 0 Z M367 601 L271 601 L222 700 L130 601 L24 601 L27 617 L139 764 L322 764 L371 617 L367 601 Z " />
<glyph glyph-name="itilde" unicode="&#x129;" horiz-adv-x="250" d="M139 0 L-4 0 L112 542 L255 542 L139 0 Z M231 716 Q246 705 256 700.5 Q266 696 277 696 Q302 696 314 721 L318 741 L401 741 L389 683 Q375 650 346 628 Q317 606 277 606 Q250 606 231 614 Q212 622 192 636 Q178 646 168.5 651 Q159 656 147 656 Q123 656 110 632 L106 612 L23 612 L35 669 Q48 703 77.5 724.5 Q107 746 147 746 Q174 746 192 738 Q210 730 231 716 Z " />
<glyph glyph-name="idieresis" unicode="&#xef;" horiz-adv-x="250" d="M139 0 L-4 0 L112 542 L255 542 L139 0 Z M181 714 L163 632 Q132 604 87 604 Q42 604 23 632 L41 714 Q51 724 70 733 Q89 742 117 742 Q162 742 181 714 Z M399 714 L381 632 Q350 604 305 604 Q277 604 262 613 Q247 622 241 632 L259 714 Q268 724 287.5 733 Q307 742 335 742 Q363 742 376.5 734 Q390 726 399 714 Z " />
<glyph glyph-name="imacron" unicode="&#x12b;" horiz-adv-x="250" d="M139 0 L-4 0 L112 542 L255 542 L139 0 Z M30 628 L50 724 L392 724 L372 628 L30 628 Z " />
<glyph glyph-name="ibreve" unicode="&#x12d;" horiz-adv-x="250" d="M139 0 L-4 0 L112 542 L255 542 L139 0 Z M383 684 Q360 645 314.5 620.5 Q269 596 206 596 Q140 596 98.5 620.5 Q57 645 43 684 L56 744 L161 744 L152 706 Q154 694 168.5 683 Q183 672 210 672 Q239 672 257 682.5 Q275 693 283 706 L292 744 L396 744 L383 684 Z " />
<glyph glyph-name="iogonek" unicode="&#x12f;" horiz-adv-x="250" d="M295 705 L282 643 Q271 627 249 615.5 Q227 604 196 604 Q167 604 149.5 615.5 Q132 627 129 643 L142 705 Q152 721 174.5 732.5 Q197 744 227 744 Q257 744 274 732.5 Q291 721 295 705 Z M112 542 L255 542 L139 0 Q54 -58 27 -100 L21 -125 Q24 -132 36 -136.5 Q48 -141 63 -141 Q85 -141 110 -133 L93 -210 Q79 -217 62.5 -221 Q46 -225 19 -225 Q-21 -225 -52.5 -210 Q-84 -195 -92 -170 L-75 -93 Q-63 -75 -35 -48.5 Q-7 -22 29 0 L-4 0 L112 542 Z " />
<glyph glyph-name="dotlessi" unicode="&#x131;" horiz-adv-x="250" d="M139 0 L-4 0 L112 542 L255 542 L139 0 Z " />
<glyph glyph-name="ij" unicode="&#x133;" horiz-adv-x="494" d="M139 0 L-4 0 L112 542 L255 542 L139 0 Z M295 705 L281 643 Q271 627 248.5 615.5 Q226 604 196 604 Q166 604 148.5 615.5 Q131 627 128 643 L142 705 Q151 720 174 732 Q197 744 226 744 Q256 744 273.5 732.5 Q291 721 295 705 Z M375 -46 Q345 -106 278 -143 Q211 -180 110 -180 L133 -71 Q167 -71 197 -52.5 Q227 -34 241 -8 L358 542 L501 542 L375 -46 Z M543 705 L529 643 Q519 627 496.5 615.5 Q474 604 444 604 Q414 604 396.5 615.5 Q379 627 376 643 L390 705 Q399 720 422 732 Q445 744 474 744 Q504 744 521.5 732.5 Q539 721 543 705 Z " />
<glyph glyph-name="jcircumflex" unicode="&#x135;" horiz-adv-x="244" d="M125 -46 Q95 -106 28 -143 Q-39 -180 -140 -180 L-117 -71 Q-83 -71 -53 -52.5 Q-23 -34 -9 -8 L108 542 L251 542 L125 -46 Z M365 601 L269 601 L220 700 L128 601 L22 601 L25 617 L137 764 L320 764 L369 617 L365 601 Z " />
<glyph glyph-name="kcommaaccent" unicode="&#x137;" horiz-adv-x="539" d="M461 0 L355 0 L252 227 L169 157 L135 0 L-7 0 L142 700 L285 700 L207 336 L446 542 L550 542 L534 463 L364 321 L477 78 L461 0 Z M103 -187 L136 -187 Q166 -187 176 -172 L181 -151 Q152 -151 133 -146 Q114 -141 110 -133 L122 -72 Q130 -64 149.5 -57.5 Q169 -51 198 -51 Q250 -51 269 -72 L247 -177 Q236 -200 210 -216 Q184 -232 142 -232 L94 -232 L103 -187 Z " />
<glyph glyph-name="lacute" unicode="&#x13a;" horiz-adv-x="244" d="M136 0 L-7 0 L142 700 L285 700 L136 0 Z M266 745 L162 745 L165 761 L249 905 L382 905 L368 843 L266 745 Z " />
<glyph glyph-name="lcaron" unicode="&#x13e;" horiz-adv-x="410" d="M136 0 L-7 0 L142 700 L285 700 L136 0 Z M388 493 L302 493 L306 508 L367 700 L478 700 L463 626 L388 493 Z " />
<glyph glyph-name="lcommaaccent" unicode="&#x13c;" horiz-adv-x="244" d="M136 0 L-7 0 L142 700 L285 700 L136 0 Z M-44 -187 L-11 -187 Q19 -187 29 -172 L34 -151 Q5 -151 -14 -146 Q-33 -141 -37 -133 L-25 -72 Q-17 -64 2.5 -57.5 Q22 -51 51 -51 Q103 -51 122 -72 L100 -177 Q89 -200 63 -216 Q37 -232 -5 -232 L-53 -232 L-44 -187 Z " />
<glyph glyph-name="lslash" unicode="&#x142;" horiz-adv-x="348" d="M263 355 L187 0 L44 0 L102 272 L20 229 L45 344 L127 387 L194 700 L336 700 L287 470 L371 513 L346 398 L263 355 Z " />
<glyph glyph-name="ldot" unicode="&#x140;" horiz-adv-x="433" d="M136 0 L-7 0 L142 700 L285 700 L136 0 Z M443 393 L429 331 Q419 315 396.5 303.5 Q374 292 344 292 Q314 292 296.5 303.5 Q279 315 276 331 L290 393 Q299 408 322 420 Q345 432 374 432 Q404 432 421.5 420.5 Q439 409 443 393 Z " />
<glyph glyph-name="nacute" unicode="&#x144;" horiz-adv-x="564" d="M549 432 L457 0 L314 0 L400 399 Q393 416 373.5 429 Q354 442 321 442 Q289 442 263.5 431 Q238 420 221 403 L135 0 L-7 0 L109 542 L241 542 L231 494 Q296 554 382 554 Q434 554 470 534.5 Q506 515 525 487 Q544 459 549 432 Z M407 604 L294 604 L297 619 L384 767 L523 767 L508 705 L407 604 Z " />
<glyph glyph-name="ncaron" unicode="&#x148;" horiz-adv-x="564" d="M549 432 L457 0 L314 0 L400 399 Q393 416 373.5 429 Q354 442 321 442 Q289 442 263.5 431 Q238 420 221 403 L135 0 L-7 0 L109 542 L241 542 L231 494 Q296 554 382 554 Q434 554 470 534.5 Q506 515 525 487 Q544 459 549 432 Z M444 601 L261 601 L212 748 L216 764 L310 764 L360 665 L451 764 L559 764 L556 748 L444 601 Z " />
<glyph glyph-name="ntilde" unicode="&#xf1;" horiz-adv-x="564" d="M549 432 L457 0 L314 0 L400 399 Q393 416 373.5 429 Q354 442 321 442 Q289 442 263.5 431 Q238 420 221 403 L135 0 L-7 0 L109 542 L241 542 L231 494 Q296 554 382 554 Q434 554 470 534.5 Q506 515 525 487 Q544 459 549 432 Z M388 716 Q403 705 413 700.5 Q423 696 434 696 Q459 696 471 721 L475 741 L558 741 L546 683 Q532 650 503 628 Q474 606 434 606 Q407 606 388 614 Q369 622 349 636 Q335 646 325.5 651 Q316 656 304 656 Q280 656 267 632 L263 612 L180 612 L192 669 Q205 703 234.5 724.5 Q264 746 304 746 Q331 746 349 738 Q367 730 388 716 Z " />
<glyph glyph-name="ncommaaccent" unicode="&#x146;" horiz-adv-x="564" d="M549 432 L457 0 L314 0 L400 399 Q393 416 373.5 429 Q354 442 321 442 Q289 442 263.5 431 Q238 420 221 403 L135 0 L-7 0 L109 542 L241 542 L231 494 Q296 554 382 554 Q434 554 470 534.5 Q506 515 525 487 Q544 459 549 432 Z M116 -187 L149 -187 Q179 -187 189 -172 L194 -151 Q165 -151 146 -146 Q127 -141 123 -133 L135 -72 Q143 -64 162.5 -57.5 Q182 -51 211 -51 Q263 -51 282 -72 L260 -177 Q249 -200 223 -216 Q197 -232 155 -232 L107 -232 L116 -187 Z " />
<glyph glyph-name="napostrophe" unicode="&#x149;" horiz-adv-x="564" d="M549 432 L457 0 L314 0 L400 399 Q393 416 373.5 429 Q354 442 321 442 Q289 442 263.5 431 Q238 420 221 403 L135 0 L-7 0 L109 542 L241 542 L231 494 Q296 554 382 554 Q434 554 470 534.5 Q506 515 525 487 Q544 459 549 432 Z M39 623 L72 623 Q102 623 112 638 L117 659 Q88 659 69 664 Q50 669 46 677 L58 738 Q66 746 85.5 752.5 Q105 759 134 759 Q186 759 205 738 L183 633 Q172 610 146 594 Q120 578 78 578 L30 578 L39 623 Z " />
<glyph glyph-name="ograve" unicode="&#xf2;" horiz-adv-x="561" d="M550 421 L484 121 Q453 66 390.5 25.5 Q328 -15 232 -15 Q167 -15 119 6 Q71 27 44.5 58 Q18 89 11 121 L76 421 Q108 477 171 517 Q234 557 329 557 Q395 557 442 536 Q489 515 515.5 484 Q542 453 550 421 Z M212 391 L159 148 Q165 126 187.5 111.5 Q210 97 245 97 Q280 97 307 113 Q334 129 348 152 L401 394 Q396 416 373 430.5 Q350 445 315 445 Q281 445 254 429.5 Q227 414 212 391 Z M406 604 L304 604 L244 705 L258 767 L385 767 L408 619 L406 604 Z " />
<glyph glyph-name="oacute" unicode="&#xf3;" horiz-adv-x="561" d="M550 421 L484 121 Q453 66 390.5 25.5 Q328 -15 232 -15 Q167 -15 119 6 Q71 27 44.5 58 Q18 89 11 121 L76 421 Q108 477 171 517 Q234 557 329 557 Q395 557 442 536 Q489 515 515.5 484 Q542 453 550 421 Z M212 391 L159 148 Q165 126 187.5 111.5 Q210 97 245 97 Q280 97 307 113 Q334 129 348 152 L401 394 Q396 416 373 430.5 Q350 445 315 445 Q281 445 254 429.5 Q227 414 212 391 Z M405 604 L292 604 L295 619 L382 767 L521 767 L506 705 L405 604 Z " />
<glyph glyph-name="ocircumflex" unicode="&#xf4;" horiz-adv-x="561" d="M550 421 L484 121 Q453 66 390.5 25.5 Q328 -15 232 -15 Q167 -15 119 6 Q71 27 44.5 58 Q18 89 11 121 L76 421 Q108 477 171 517 Q234 557 329 557 Q395 557 442 536 Q489 515 515.5 484 Q542 453 550 421 Z M212 391 L159 148 Q165 126 187.5 111.5 Q210 97 245 97 Q280 97 307 113 Q334 129 348 152 L401 394 Q396 416 373 430.5 Q350 445 315 445 Q281 445 254 429.5 Q227 414 212 391 Z M522 601 L426 601 L377 700 L285 601 L179 601 L182 617 L294 764 L477 764 L526 617 L522 601 Z " />
<glyph glyph-name="otilde" unicode="&#xf5;" horiz-adv-x="561" d="M550 421 L484 121 Q453 66 390.5 25.5 Q328 -15 232 -15 Q167 -15 119 6 Q71 27 44.5 58 Q18 89 11 121 L76 421 Q108 477 171 517 Q234 557 329 557 Q395 557 442 536 Q489 515 515.5 484 Q542 453 550 421 Z M212 391 L159 148 Q165 126 187.5 111.5 Q210 97 245 97 Q280 97 307 113 Q334 129 348 152 L401 394 Q396 416 373 430.5 Q350 445 315 445 Q281 445 254 429.5 Q227 414 212 391 Z M386 716 Q401 705 411 700.5 Q421 696 432 696 Q457 696 469 721 L473 741 L556 741 L544 683 Q530 650 501 628 Q472 606 432 606 Q405 606 386 614 Q367 622 347 636 Q333 646 323.5 651 Q314 656 302 656 Q278 656 265 632 L261 612 L178 612 L190 669 Q203 703 232.5 724.5 Q262 746 302 746 Q329 746 347 738 Q365 730 386 716 Z " />
<glyph glyph-name="odieresis" unicode="&#xf6;" horiz-adv-x="561" d="M550 421 L484 121 Q453 66 390.5 25.5 Q328 -15 232 -15 Q167 -15 119 6 Q71 27 44.5 58 Q18 89 11 121 L76 421 Q108 477 171 517 Q234 557 329 557 Q395 557 442 536 Q489 515 515.5 484 Q542 453 550 421 Z M212 391 L159 148 Q165 126 187.5 111.5 Q210 97 245 97 Q280 97 307 113 Q334 129 348 152 L401 394 Q396 416 373 430.5 Q350 445 315 445 Q281 445 254 429.5 Q227 414 212 391 Z M336 714 L318 632 Q287 604 242 604 Q197 604 178 632 L196 714 Q206 724 225 733 Q244 742 272 742 Q317 742 336 714 Z M554 714 L536 632 Q505 604 460 604 Q432 604 417 613 Q402 622 396 632 L414 714 Q423 724 442.5 733 Q462 742 490 742 Q518 742 531.5 734 Q545 726 554 714 Z " />
<glyph glyph-name="omacron" unicode="&#x14d;" horiz-adv-x="561" d="M550 421 L484 121 Q453 66 390.5 25.5 Q328 -15 232 -15 Q167 -15 119 6 Q71 27 44.5 58 Q18 89 11 121 L76 421 Q108 477 171 517 Q234 557 329 557 Q395 557 442 536 Q489 515 515.5 484 Q542 453 550 421 Z M212 391 L159 148 Q165 126 187.5 111.5 Q210 97 245 97 Q280 97 307 113 Q334 129 348 152 L401 394 Q396 416 373 430.5 Q350 445 315 445 Q281 445 254 429.5 Q227 414 212 391 Z M185 628 L205 724 L547 724 L527 628 L185 628 Z " />
<glyph glyph-name="obreve" unicode="&#x14f;" horiz-adv-x="561" d="M550 421 L484 121 Q453 66 390.5 25.5 Q328 -15 232 -15 Q167 -15 119 6 Q71 27 44.5 58 Q18 89 11 121 L76 421 Q108 477 171 517 Q234 557 329 557 Q395 557 442 536 Q489 515 515.5 484 Q542 453 550 421 Z M212 391 L159 148 Q165 126 187.5 111.5 Q210 97 245 97 Q280 97 307 113 Q334 129 348 152 L401 394 Q396 416 373 430.5 Q350 445 315 445 Q281 445 254 429.5 Q227 414 212 391 Z M538 684 Q515 645 469.5 620.5 Q424 596 361 596 Q295 596 253.5 620.5 Q212 645 198 684 L211 744 L316 744 L307 706 Q309 694 323.5 683 Q338 672 365 672 Q394 672 412 682.5 Q430 693 438 706 L447 744 L551 744 L538 684 Z " />
<glyph glyph-name="ohungarumlaut" unicode="&#x151;" horiz-adv-x="561" d="M550 421 L484 121 Q453 66 390.5 25.5 Q328 -15 232 -15 Q167 -15 119 6 Q71 27 44.5 58 Q18 89 11 121 L76 421 Q108 477 171 517 Q234 557 329 557 Q395 557 442 536 Q489 515 515.5 484 Q542 453 550 421 Z M212 391 L159 148 Q165 126 187.5 111.5 Q210 97 245 97 Q280 97 307 113 Q334 129 348 152 L401 394 Q396 416 373 430.5 Q350 445 315 445 Q281 445 254 429.5 Q227 414 212 391 Z M299 598 L203 598 L206 614 L277 761 L391 761 L380 710 L299 598 Z M494 598 L399 598 L402 614 L472 761 L586 761 L575 710 L494 598 Z " />
<glyph glyph-name="oslash" unicode="&#xf8;" horiz-adv-x="561" d="M565 494 L532 462 Q545 441 550 421 L484 121 Q453 66 390.5 25.5 Q328 -15 232 -15 Q142 -15 81 27 L53 0 L-14 0 L-4 48 L29 80 Q16 101 11 121 L76 421 Q108 477 171 517 Q234 557 329 557 Q420 557 480 515 L508 542 L575 542 L565 494 Z M176 222 L384 423 Q359 445 315 445 Q281 445 254 429.5 Q227 414 212 391 L176 222 Z M385 321 L177 120 Q200 97 245 97 Q280 97 307 113 Q334 129 348 152 L385 321 Z " />
<glyph glyph-name="oe" unicode="&#x153;" horiz-adv-x="879" d="M509 234 L490 146 Q496 124 518.5 109 Q541 94 576 94 Q651 94 689 165 L815 165 L802 102 Q774 58 715 21.5 Q656 -15 562 -15 Q465 -15 402 34 Q330 -15 232 -15 Q167 -15 119 6 Q71 27 44.5 58 Q18 89 11 121 L76 421 Q108 477 171 517 Q234 557 329 557 Q425 557 489 509 Q561 557 660 557 Q724 557 770 536.5 Q816 516 841 488.5 Q866 461 873 438 L830 234 L509 234 Z M544 396 L533 346 L530 330 L718 330 L732 396 Q727 418 704 433 Q681 448 646 448 Q612 448 585.5 433 Q559 418 544 396 Z M348 152 L401 394 Q396 416 373 430.5 Q350 445 315 445 Q281 445 254 429.5 Q227 414 212 391 L159 148 Q165 126 187.5 111.5 Q210 97 245 97 Q280 97 307 113 Q334 129 348 152 Z " />
<glyph glyph-name="racute" unicode="&#x155;" horiz-adv-x="377" d="M413 542 L386 411 Q375 412 361 412 Q312 412 274 400 Q236 388 214 370 L135 0 L-8 0 L108 542 L241 542 L225 468 Q256 503 293.5 523 Q331 543 384 543 Q404 543 413 542 Z M331 604 L218 604 L221 619 L308 767 L447 767 L432 705 L331 604 Z " />
<glyph glyph-name="rcaron" unicode="&#x159;" horiz-adv-x="377" d="M413 542 L386 411 Q375 412 361 412 Q312 412 274 400 Q236 388 214 370 L135 0 L-8 0 L108 542 L241 542 L225 468 Q256 503 293.5 523 Q331 543 384 543 Q404 543 413 542 Z M368 601 L185 601 L136 748 L140 764 L234 764 L284 665 L375 764 L483 764 L480 748 L368 601 Z " />
<glyph glyph-name="rcommaaccent" unicode="&#x157;" horiz-adv-x="377" d="M413 542 L386 411 Q375 412 361 412 Q312 412 274 400 Q236 388 214 370 L135 0 L-8 0 L108 542 L241 542 L225 468 Q256 503 293.5 523 Q331 543 384 543 Q404 543 413 542 Z M-45 -187 L-12 -187 Q18 -187 28 -172 L33 -151 Q4 -151 -15 -146 Q-34 -141 -38 -133 L-26 -72 Q-18 -64 1.5 -57.5 Q21 -51 50 -51 Q102 -51 121 -72 L99 -177 Q88 -200 62 -216 Q36 -232 -6 -232 L-54 -232 L-45 -187 Z " />
<glyph glyph-name="sacute" unicode="&#x15b;" horiz-adv-x="505" d="M504 461 L491 402 L374 402 Q367 424 344 438 Q321 452 288 452 Q260 452 238.5 442.5 Q217 433 206 420 L195 369 Q203 347 256 334 L305 322 Q378 304 413 280.5 Q448 257 462 229 L431 89 Q402 48 347.5 16.5 Q293 -15 206 -15 Q115 -15 63.5 18.5 Q12 52 -6 89 L8 148 L127 148 Q136 119 159.5 104.5 Q183 90 218 90 Q248 90 271.5 101 Q295 112 308 129 L320 180 Q311 204 257 217 L208 229 Q135 246 102.5 269 Q70 292 53 323 L82 461 Q108 496 163.5 526.5 Q219 557 303 557 Q386 557 436 526 Q486 495 504 461 Z M383 604 L270 604 L273 619 L360 767 L499 767 L484 705 L383 604 Z " />
<glyph glyph-name="scircumflex" unicode="&#x15d;" horiz-adv-x="505" d="M504 461 L491 402 L374 402 Q367 424 344 438 Q321 452 288 452 Q260 452 238.5 442.5 Q217 433 206 420 L195 369 Q203 347 256 334 L305 322 Q378 304 413 280.5 Q448 257 462 229 L431 89 Q402 48 347.5 16.5 Q293 -15 206 -15 Q115 -15 63.5 18.5 Q12 52 -6 89 L8 148 L127 148 Q136 119 159.5 104.5 Q183 90 218 90 Q248 90 271.5 101 Q295 112 308 129 L320 180 Q311 204 257 217 L208 229 Q135 246 102.5 269 Q70 292 53 323 L82 461 Q108 496 163.5 526.5 Q219 557 303 557 Q386 557 436 526 Q486 495 504 461 Z M500 601 L404 601 L355 700 L263 601 L157 601 L160 617 L272 764 L455 764 L504 617 L500 601 Z " />
<glyph glyph-name="scaron" unicode="&#x161;" horiz-adv-x="505" d="M504 461 L491 402 L374 402 Q367 424 344 438 Q321 452 288 452 Q260 452 238.5 442.5 Q217 433 206 420 L195 369 Q203 347 256 334 L305 322 Q378 304 413 280.5 Q448 257 462 229 L431 89 Q402 48 347.5 16.5 Q293 -15 206 -15 Q115 -15 63.5 18.5 Q12 52 -6 89 L8 148 L127 148 Q136 119 159.5 104.5 Q183 90 218 90 Q248 90 271.5 101 Q295 112 308 129 L320 180 Q311 204 257 217 L208 229 Q135 246 102.5 269 Q70 292 53 323 L82 461 Q108 496 163.5 526.5 Q219 557 303 557 Q386 557 436 526 Q486 495 504 461 Z M420 601 L237 601 L188 748 L192 764 L286 764 L336 665 L427 764 L535 764 L532 748 L420 601 Z " />
<glyph glyph-name="scedilla" unicode="&#x15f;" horiz-adv-x="505" d="M206 420 L195 369 Q203 347 256 334 L305 322 Q378 304 413 280.5 Q448 257 462 229 L431 89 Q405 52 357 22 Q309 -8 233 -14 L215 -44 L223 -44 Q256 -44 276.5 -59 Q297 -74 301 -94 L285 -169 Q246 -228 154 -228 Q123 -228 96 -222.5 Q69 -217 53 -209 L88 -148 Q122 -160 157 -160 Q176 -160 189.5 -154.5 Q203 -149 209 -140 L214 -117 Q212 -109 200.5 -104.5 Q189 -100 171 -100 L111 -100 L159 -12 Q90 -3 49.5 27.5 Q9 58 -6 89 L8 148 L127 148 Q136 119 159.5 104.5 Q183 90 218 90 Q248 90 271.5 101 Q295 112 308 129 L320 180 Q311 204 257 217 L208 229 Q135 246 102.5 269 Q70 292 53 323 L82 461 Q108 496 163.5 526.5 Q219 557 303 557 Q386 557 436 526 Q486 495 504 461 L491 402 L374 402 Q367 424 344 438 Q321 452 288 452 Q260 452 238.5 442.5 Q217 433 206 420 Z " />
<glyph glyph-name="scommaaccent" unicode="&#x219;" horiz-adv-x="505" d="M504 461 L491 402 L374 402 Q367 424 344 438 Q321 452 288 452 Q260 452 238.5 442.5 Q217 433 206 420 L195 369 Q203 347 256 334 L305 322 Q378 304 413 280.5 Q448 257 462 229 L431 89 Q402 48 347.5 16.5 Q293 -15 206 -15 Q115 -15 63.5 18.5 Q12 52 -6 89 L8 148 L127 148 Q136 119 159.5 104.5 Q183 90 218 90 Q248 90 271.5 101 Q295 112 308 129 L320 180 Q311 204 257 217 L208 229 Q135 246 102.5 269 Q70 292 53 323 L82 461 Q108 496 163.5 526.5 Q219 557 303 557 Q386 557 436 526 Q486 495 504 461 Z M99 -187 L132 -187 Q162 -187 172 -172 L177 -151 Q148 -151 129 -146 Q110 -141 106 -133 L118 -72 Q126 -64 145.5 -57.5 Q165 -51 194 -51 Q246 -51 265 -72 L243 -177 Q232 -200 206 -216 Q180 -232 138 -232 L90 -232 L99 -187 Z " />
<glyph glyph-name="germandbls" unicode="&#xdf;" horiz-adv-x="562" d="M577 606 L539 430 Q514 390 452 362 Q484 341 501.5 320 Q519 299 525 274 L491 121 Q454 55 390 27.5 Q326 0 219 0 L243 111 Q286 111 311 120 Q336 129 357 159 L378 253 Q371 280 348.5 293 Q326 306 294 307 L316 414 Q371 414 414 457 L435 558 Q427 579 405.5 591.5 Q384 604 353 604 Q322 604 296.5 591 Q271 578 255 558 L135 0 L-7 0 L119 588 Q147 637 211 676 Q275 715 364 715 Q425 715 470 697 Q515 679 541 654 Q567 629 577 606 Z " />
<glyph glyph-name="tcaron" unicode="&#x165;" horiz-adv-x="437" d="M266 438 L200 129 Q216 98 279 98 Q303 98 315 100 L293 -1 Q258 -12 213 -12 Q136 -12 97 15.5 Q58 43 47 82 L123 438 L66 438 L89 542 L146 542 L170 655 L313 655 L288 542 L393 542 L371 438 L266 438 Z M449 600 L363 600 L367 615 L428 807 L539 807 L524 733 L449 600 Z " />
<glyph glyph-name="uni021B" unicode="&#x21b;" horiz-adv-x="362" d="M257 438 L191 129 Q207 98 270 98 Q294 98 306 100 L284 -1 Q249 -12 204 -12 Q127 -12 88 15.5 Q49 43 38 82 L114 438 L57 438 L80 542 L137 542 L161 655 L304 655 L279 542 L384 542 L362 438 L257 438 Z M56 -187 L89 -187 Q119 -187 129 -172 L134 -151 Q105 -151 86 -146 Q67 -141 63 -133 L75 -72 Q83 -64 102.5 -57.5 Q122 -51 151 -51 Q203 -51 222 -72 L200 -177 Q189 -200 163 -216 Q137 -232 95 -232 L47 -232 L56 -187 Z " />
<glyph glyph-name="tbar" unicode="&#x167;" horiz-adv-x="362" d="M266 438 L244 333 L349 333 L328 229 L221 229 L200 129 Q216 98 279 98 Q303 98 315 100 L294 -1 Q259 -12 213 -12 Q136 -12 97 15.5 Q58 43 47 82 L79 229 L23 229 L45 333 L101 333 L123 438 L66 438 L89 542 L146 542 L170 655 L313 655 L289 542 L394 542 L371 438 L266 438 Z " />
<glyph glyph-name="ugrave" unicode="&#xf9;" horiz-adv-x="558" d="M565 542 L449 0 L317 0 L326 45 Q267 -12 182 -12 Q131 -12 94 7.5 Q57 27 37 55 Q17 83 13 109 L106 542 L249 542 L163 143 Q169 127 188.5 113.5 Q208 100 241 100 Q299 100 336 135 L423 542 L565 542 Z M405 604 L303 604 L243 705 L257 767 L384 767 L407 619 L405 604 Z " />
<glyph glyph-name="uacute" unicode="&#xfa;" horiz-adv-x="558" d="M565 542 L449 0 L317 0 L326 45 Q267 -12 182 -12 Q131 -12 94 7.5 Q57 27 37 55 Q17 83 13 109 L106 542 L249 542 L163 143 Q169 127 188.5 113.5 Q208 100 241 100 Q299 100 336 135 L423 542 L565 542 Z M404 604 L291 604 L294 619 L381 767 L520 767 L505 705 L404 604 Z " />
<glyph glyph-name="ucircumflex" unicode="&#xfb;" horiz-adv-x="558" d="M565 542 L449 0 L317 0 L326 45 Q267 -12 182 -12 Q131 -12 94 7.5 Q57 27 37 55 Q17 83 13 109 L106 542 L249 542 L163 143 Q169 127 188.5 113.5 Q208 100 241 100 Q299 100 336 135 L423 542 L565 542 Z M522 601 L426 601 L377 700 L285 601 L179 601 L182 617 L294 764 L477 764 L526 617 L522 601 Z " />
<glyph glyph-name="utilde" unicode="&#x169;" horiz-adv-x="558" d="M565 542 L449 0 L317 0 L326 45 Q267 -12 182 -12 Q131 -12 94 7.5 Q57 27 37 55 Q17 83 13 109 L106 542 L249 542 L163 143 Q169 127 188.5 113.5 Q208 100 241 100 Q299 100 336 135 L423 542 L565 542 Z M386 716 Q401 705 411 700.5 Q421 696 432 696 Q457 696 469 721 L473 741 L556 741 L544 683 Q530 650 501 628 Q472 606 432 606 Q405 606 386 614 Q367 622 347 636 Q333 646 323.5 651 Q314 656 302 656 Q278 656 265 632 L261 612 L178 612 L190 669 Q203 703 232.5 724.5 Q262 746 302 746 Q329 746 347 738 Q365 730 386 716 Z " />
<glyph glyph-name="udieresis" unicode="&#xfc;" horiz-adv-x="558" d="M565 542 L449 0 L317 0 L326 45 Q267 -12 182 -12 Q131 -12 94 7.5 Q57 27 37 55 Q17 83 13 109 L106 542 L249 542 L163 143 Q169 127 188.5 113.5 Q208 100 241 100 Q299 100 336 135 L423 542 L565 542 Z M336 714 L318 632 Q287 604 242 604 Q197 604 178 632 L196 714 Q206 724 225 733 Q244 742 272 742 Q317 742 336 714 Z M554 714 L536 632 Q505 604 460 604 Q432 604 417 613 Q402 622 396 632 L414 714 Q423 724 442.5 733 Q462 742 490 742 Q518 742 531.5 734 Q545 726 554 714 Z " />
<glyph glyph-name="umacron" unicode="&#x16b;" horiz-adv-x="558" d="M565 542 L449 0 L317 0 L326 45 Q267 -12 182 -12 Q131 -12 94 7.5 Q57 27 37 55 Q17 83 13 109 L106 542 L249 542 L163 143 Q169 127 188.5 113.5 Q208 100 241 100 Q299 100 336 135 L423 542 L565 542 Z M185 628 L205 724 L547 724 L527 628 L185 628 Z " />
<glyph glyph-name="ubreve" unicode="&#x16d;" horiz-adv-x="558" d="M565 542 L449 0 L317 0 L326 45 Q267 -12 182 -12 Q131 -12 94 7.5 Q57 27 37 55 Q17 83 13 109 L106 542 L249 542 L163 143 Q169 127 188.5 113.5 Q208 100 241 100 Q299 100 336 135 L423 542 L565 542 Z M538 684 Q515 645 469.5 620.5 Q424 596 361 596 Q295 596 253.5 620.5 Q212 645 198 684 L211 744 L316 744 L307 706 Q309 694 323.5 683 Q338 672 365 672 Q394 672 412 682.5 Q430 693 438 706 L447 744 L551 744 L538 684 Z " />
<glyph glyph-name="uring" unicode="&#x16f;" horiz-adv-x="558" d="M565 542 L449 0 L317 0 L326 45 Q267 -12 182 -12 Q131 -12 94 7.5 Q57 27 37 55 Q17 83 13 109 L106 542 L249 542 L163 143 Q169 127 188.5 113.5 Q208 100 241 100 Q299 100 336 135 L423 542 L565 542 Z M505 749 L485 655 Q466 626 432 609 Q398 592 356 592 Q312 592 280 609.5 Q248 627 238 655 L257 749 Q276 777 310.5 794.5 Q345 812 387 812 Q431 812 462.5 794.5 Q494 777 505 749 Z M320 729 L309 675 Q312 665 325 657.5 Q338 650 360 650 Q382 650 398 657.5 Q414 665 422 675 L434 729 Q430 739 417 746.5 Q404 754 382 754 Q360 754 344 746.5 Q328 739 320 729 Z " />
<glyph glyph-name="uhungarumlaut" unicode="&#x171;" horiz-adv-x="558" d="M565 542 L449 0 L317 0 L326 45 Q267 -12 182 -12 Q131 -12 94 7.5 Q57 27 37 55 Q17 83 13 109 L106 542 L249 542 L163 143 Q169 127 188.5 113.5 Q208 100 241 100 Q299 100 336 135 L423 542 L565 542 Z M299 598 L203 598 L206 614 L277 761 L391 761 L380 710 L299 598 Z M494 598 L399 598 L402 614 L472 761 L586 761 L575 710 L494 598 Z " />
<glyph glyph-name="uogonek" unicode="&#x173;" horiz-adv-x="558" d="M338 -100 L331 -125 Q335 -132 346.5 -136.5 Q358 -141 373 -141 Q394 -141 421 -133 L404 -210 Q390 -217 373.5 -221 Q357 -225 330 -225 Q290 -225 258 -210 Q226 -195 219 -170 L236 -93 Q248 -74 276 -48 Q304 -22 340 0 L317 0 L326 45 Q267 -12 182 -12 Q131 -12 94 7.5 Q57 27 37 55 Q17 83 13 109 L106 542 L249 542 L163 143 Q169 127 188.5 113.5 Q208 100 241 100 Q299 100 336 135 L423 542 L565 542 L449 0 Q361 -61 338 -100 Z " />
<glyph glyph-name="wgrave" unicode="&#x1e81;" horiz-adv-x="796" d="M589 0 L431 0 L414 332 L411 332 L256 0 L94 0 L73 463 L90 542 L214 542 L214 156 L217 156 L395 542 L519 542 L531 156 L534 156 L699 542 L825 542 L808 463 L589 0 Z M524 604 L422 604 L362 705 L376 767 L503 767 L526 619 L524 604 Z " />
<glyph glyph-name="wacute" unicode="&#x1e83;" horiz-adv-x="796" d="M589 0 L431 0 L414 332 L411 332 L256 0 L94 0 L73 463 L90 542 L214 542 L214 156 L217 156 L395 542 L519 542 L531 156 L534 156 L699 542 L825 542 L808 463 L589 0 Z M523 604 L410 604 L413 619 L500 767 L639 767 L624 705 L523 604 Z " />
<glyph glyph-name="wcircumflex" unicode="&#x175;" horiz-adv-x="796" d="M589 0 L431 0 L414 332 L411 332 L256 0 L94 0 L73 463 L90 542 L214 542 L214 156 L217 156 L395 542 L519 542 L531 156 L534 156 L699 542 L825 542 L808 463 L589 0 Z M640 601 L544 601 L495 700 L403 601 L297 601 L300 617 L412 764 L595 764 L644 617 L640 601 Z " />
<glyph glyph-name="wdieresis" unicode="&#x1e85;" horiz-adv-x="796" d="M589 0 L431 0 L414 332 L411 332 L256 0 L94 0 L73 463 L90 542 L214 542 L214 156 L217 156 L395 542 L519 542 L531 156 L534 156 L699 542 L825 542 L808 463 L589 0 Z M454 714 L436 632 Q405 604 360 604 Q315 604 296 632 L314 714 Q324 724 343 733 Q362 742 390 742 Q435 742 454 714 Z M672 714 L654 632 Q623 604 578 604 Q550 604 535 613 Q520 622 514 632 L532 714 Q541 724 560.5 733 Q580 742 608 742 Q636 742 649.5 734 Q663 726 672 714 Z " />
<glyph glyph-name="ygrave" unicode="&#x1ef3;" horiz-adv-x="528" d="M425 542 L557 542 L541 464 L234 -99 Q198 -139 149 -157 Q100 -175 31 -175 Q5 -175 -18.5 -172.5 Q-42 -170 -53 -166 L-31 -64 Q-13 -67 14 -67 Q82 -67 121 -32 L142 9 L71 463 L88 542 L209 542 L245 184 L248 184 L425 542 Z M388 604 L286 604 L226 705 L240 767 L367 767 L390 619 L388 604 Z " />
<glyph glyph-name="yacute" unicode="&#xfd;" horiz-adv-x="528" d="M425 542 L557 542 L541 464 L234 -99 Q198 -139 149 -157 Q100 -175 31 -175 Q5 -175 -18.5 -172.5 Q-42 -170 -53 -166 L-31 -64 Q-13 -67 14 -67 Q82 -67 121 -32 L142 9 L71 463 L88 542 L209 542 L245 184 L248 184 L425 542 Z M387 604 L274 604 L277 619 L364 767 L503 767 L488 705 L387 604 Z " />
<glyph glyph-name="ycircumflex" unicode="&#x177;" horiz-adv-x="528" d="M425 542 L557 542 L541 464 L234 -99 Q198 -139 149 -157 Q100 -175 31 -175 Q5 -175 -18.5 -172.5 Q-42 -170 -53 -166 L-31 -64 Q-13 -67 14 -67 Q82 -67 121 -32 L142 9 L71 463 L88 542 L209 542 L245 184 L248 184 L425 542 Z M504 601 L408 601 L359 700 L267 601 L161 601 L164 617 L276 764 L459 764 L508 617 L504 601 Z " />
<glyph glyph-name="ydieresis" unicode="&#xff;" horiz-adv-x="528" d="M425 542 L557 542 L541 464 L234 -99 Q198 -139 149 -157 Q100 -175 31 -175 Q5 -175 -18.5 -172.5 Q-42 -170 -53 -166 L-31 -64 Q-13 -67 14 -67 Q82 -67 121 -32 L142 9 L71 463 L88 542 L209 542 L245 184 L248 184 L425 542 Z M318 714 L300 632 Q269 604 224 604 Q179 604 160 632 L178 714 Q188 724 207 733 Q226 742 254 742 Q299 742 318 714 Z M536 714 L518 632 Q487 604 442 604 Q414 604 399 613 Q384 622 378 632 L396 714 Q405 724 424.5 733 Q444 742 472 742 Q500 742 513.5 734 Q527 726 536 714 Z " />
<glyph glyph-name="zacute" unicode="&#x17a;" horiz-adv-x="485" d="M163 106 L423 106 L400 0 L-30 0 L-10 98 L315 436 L71 436 L94 542 L516 542 L496 450 L163 106 Z M365 604 L252 604 L255 619 L342 767 L481 767 L466 705 L365 604 Z " />
<glyph glyph-name="zcaron" unicode="&#x17e;" horiz-adv-x="485" d="M163 106 L423 106 L400 0 L-30 0 L-10 98 L315 436 L71 436 L94 542 L516 542 L496 450 L163 106 Z M402 601 L219 601 L170 748 L174 764 L268 764 L318 665 L409 764 L517 764 L514 748 L402 601 Z " />
<glyph glyph-name="zdotaccent" unicode="&#x17c;" horiz-adv-x="485" d="M163 106 L423 106 L400 0 L-30 0 L-10 98 L315 436 L71 436 L94 542 L516 542 L496 450 L163 106 Z M410 705 L396 643 Q386 627 363.5 615.5 Q341 604 311 604 Q281 604 263.5 615.5 Q246 627 243 643 L257 705 Q266 720 289 732 Q312 744 341 744 Q371 744 388.5 732.5 Q406 721 410 705 Z " />
<glyph glyph-name="eng" unicode="&#x14b;" horiz-adv-x="564" d="M549 432 L447 -46 Q417 -106 350 -143 Q283 -180 182 -180 L205 -71 Q238 -71 268 -52.5 Q298 -34 312 -9 L400 399 Q393 416 373.5 429 Q354 442 321 442 Q289 442 263.5 431 Q238 420 221 403 L135 0 L-7 0 L109 542 L241 542 L231 494 Q296 554 382 554 Q434 554 470 534.5 Q506 515 525 487 Q544 459 549 432 Z " />
<glyph glyph-name="eth" unicode="&#xf0;" horiz-adv-x="560" d="M588 602 L536 586 Q560 554 570 521 L484 121 Q452 65 388 25 Q324 -15 231 -15 Q136 -15 81.5 26.5 Q27 68 11 121 L58 341 Q72 373 103.5 403.5 Q135 434 180 454 Q225 474 277 474 Q319 474 352.5 462.5 Q386 451 409 431 L422 492 Q417 516 397 544 L228 492 L244 569 L338 597 Q285 635 216 656 L306 734 Q409 702 482 641 L605 679 L588 602 Z M348 150 L387 329 Q353 363 298 363 Q262 363 236 349 Q210 335 195 312 L160 150 Q165 128 188 112.5 Q211 97 246 97 Q281 97 307.5 112 Q334 127 348 150 Z " />
<glyph glyph-name="thorn" unicode="&#xfe;" horiz-adv-x="559" d="M550 432 L481 110 Q453 62 402 25 Q351 -12 277 -12 Q191 -12 144 44 L99 -166 L-44 -166 L142 700 L285 700 L243 504 Q305 554 386 554 Q437 554 472.5 534.5 Q508 515 526.5 487 Q545 459 550 432 Z M400 399 Q394 415 375 428.5 Q356 442 322 442 Q261 442 221 404 L164 139 Q177 122 199.5 111 Q222 100 252 100 Q286 100 309.5 112.5 Q333 125 345 142 L400 399 Z " />
<glyph glyph-name="longs" unicode="&#x17f;" horiz-adv-x="334" d="M412 716 L390 618 Q387 618 374.5 619.5 Q362 621 352 621 Q289 621 262 588 L136 0 L-6 0 L129 633 Q150 672 198.5 700 Q247 728 318 728 Q381 728 412 716 Z " />
<glyph glyph-name="fi" unicode="&#xfb01;" horiz-adv-x="599" d="M438 716 L417 618 Q414 618 401 619.5 Q388 621 378 621 Q316 621 289 588 L279 542 L384 542 L362 438 L256 438 L163 0 L20 0 L113 438 L57 438 L80 542 L136 542 L155 633 Q176 672 224.5 700 Q273 728 345 728 Q378 728 402.5 724.5 Q427 721 438 716 Z M488 0 L345 0 L461 542 L604 542 L488 0 Z M644 705 L630 643 Q620 627 597.5 615.5 Q575 604 545 604 Q515 604 497.5 615.5 Q480 627 477 643 L491 705 Q500 720 523 732 Q546 744 575 744 Q605 744 622.5 732.5 Q640 721 644 705 Z " />
<glyph glyph-name="fl" unicode="&#xfb02;" horiz-adv-x="593" d="M438 716 L417 618 Q414 618 401 619.5 Q388 621 378 621 Q316 621 289 588 L279 542 L384 542 L362 438 L256 438 L163 0 L20 0 L113 438 L57 438 L80 542 L136 542 L155 633 Q176 672 224.5 700 Q273 728 345 728 Q378 728 402.5 724.5 Q427 721 438 716 Z M485 0 L342 0 L491 700 L634 700 L485 0 Z " />
<glyph glyph-name="ampersand" unicode="&#x26;" horiz-adv-x="683" d="M565 162 L626 88 L607 0 L527 0 L478 58 Q433 24 380.5 4.5 Q328 -15 262 -15 Q155 -15 94 26 Q33 67 15 121 L49 275 Q72 309 112 338.5 Q152 368 204 384 Q152 445 144 474 L169 599 Q201 644 262.5 679 Q324 714 415 714 Q504 714 555.5 678.5 Q607 643 628 599 L615 538 L493 538 Q474 605 398 605 Q367 605 343 593.5 Q319 582 306 568 L292 505 Q295 492 304 478 Q313 464 332 440 L466 281 L488 384 L613 384 L565 162 Z M281 94 Q353 94 408 141 L273 302 Q246 296 222 281.5 Q198 267 186 250 L164 150 Q173 126 206.5 110 Q240 94 281 94 Z " />
<glyph glyph-name="grave" unicode="&#x60;" horiz-adv-x="458" d="M393 604 L291 604 L231 705 L245 767 L372 767 L395 619 L393 604 Z " />
<glyph glyph-name="acute" unicode="&#xb4;" horiz-adv-x="458" d="M318 604 L205 604 L208 619 L295 767 L434 767 L419 705 L318 604 Z " />
<glyph glyph-name="circumflex" unicode="&#x2c6;" horiz-adv-x="458" d="M471 601 L375 601 L326 700 L234 601 L128 601 L131 617 L243 764 L426 764 L475 617 L471 601 Z " />
<glyph glyph-name="caron" unicode="&#x2c7;" horiz-adv-x="458" d="M391 601 L208 601 L159 748 L163 764 L257 764 L307 665 L398 764 L506 764 L503 748 L391 601 Z " />
<glyph glyph-name="tilde" unicode="&#x2dc;" horiz-adv-x="458" d="M335 716 Q350 705 360 700.5 Q370 696 381 696 Q406 696 418 721 L422 741 L505 741 L493 683 Q479 650 450 628 Q421 606 381 606 Q354 606 335 614 Q316 622 296 636 Q282 646 272.5 651 Q263 656 251 656 Q227 656 214 632 L210 612 L127 612 L139 669 Q152 703 181.5 724.5 Q211 746 251 746 Q278 746 296 738 Q314 730 335 716 Z " />
<glyph glyph-name="dieresis" unicode="&#xa8;" horiz-adv-x="458" d="M286 714 L268 632 Q237 604 192 604 Q147 604 128 632 L146 714 Q156 724 175 733 Q194 742 222 742 Q267 742 286 714 Z M504 714 L486 632 Q455 604 410 604 Q382 604 367 613 Q352 622 346 632 L364 714 Q373 724 392.5 733 Q412 742 440 742 Q468 742 481.5 734 Q495 726 504 714 Z " />
<glyph glyph-name="breve" unicode="&#x2d8;" horiz-adv-x="458" d="M487 684 Q464 645 418.5 620.5 Q373 596 310 596 Q244 596 202.5 620.5 Q161 645 147 684 L160 744 L265 744 L256 706 Q258 694 272.5 683 Q287 672 314 672 Q343 672 361 682.5 Q379 693 387 706 L396 744 L500 744 L487 684 Z " />
<glyph glyph-name="ring" unicode="&#x2da;" horiz-adv-x="458" d="M455 749 L435 655 Q416 626 382 609 Q348 592 306 592 Q262 592 230 609.5 Q198 627 188 655 L207 749 Q226 777 260.5 794.5 Q295 812 337 812 Q381 812 412.5 794.5 Q444 777 455 749 Z M270 729 L259 675 Q262 665 275 657.5 Q288 650 310 650 Q332 650 348 657.5 Q364 665 372 675 L384 729 Q380 739 367 746.5 Q354 754 332 754 Q310 754 294 746.5 Q278 739 270 729 Z " />
<glyph glyph-name="hungarumlaut" unicode="&#x2dd;" horiz-adv-x="458" d="M223 598 L127 598 L130 614 L201 761 L315 761 L304 710 L223 598 Z M418 598 L323 598 L326 614 L396 761 L510 761 L499 710 L418 598 Z " />
<glyph glyph-name="dotaccent" unicode="&#x2d9;" horiz-adv-x="458" d="M399 705 L385 643 Q375 627 352.5 615.5 Q330 604 300 604 Q270 604 252.5 615.5 Q235 627 232 643 L246 705 Q255 720 278 732 Q301 744 330 744 Q360 744 377.5 732.5 Q395 721 399 705 Z " />
<glyph glyph-name="cedilla" unicode="&#xb8;" horiz-adv-x="458" d="M178 -44 L186 -44 Q219 -44 239.5 -58.5 Q260 -73 265 -93 L248 -169 Q208 -228 117 -228 Q87 -228 60 -222 Q33 -216 17 -208 L51 -148 Q85 -160 120 -160 Q139 -160 152.5 -154.5 Q166 -149 172 -140 L177 -116 Q175 -108 163.5 -104 Q152 -100 134 -100 L74 -100 L132 5 L207 5 L178 -44 Z " />
<glyph glyph-name="ogonek" unicode="&#x2db;" horiz-adv-x="458" d="M284 0 Q196 -61 173 -100 L167 -125 Q170 -132 181.5 -136.5 Q193 -141 208 -141 Q229 -141 256 -133 L239 -210 Q225 -217 208.5 -221 Q192 -225 165 -225 Q125 -225 93 -210 Q61 -195 54 -170 L71 -93 Q86 -69 126 -35.5 Q166 -2 214 21 L284 0 Z " />
<glyph glyph-name="comma" unicode="&#x2c;" horiz-adv-x="220" d="M151 103 L116 -58 Q101 -89 72 -108 Q43 -127 -2 -127 L-39 -127 L-25 -66 L2 -66 Q26 -66 42 -45 L49 -14 Q20 -14 2.5 -2 Q-15 10 -18 26 L-2 104 Q9 120 29.5 131.5 Q50 143 79 143 Q107 143 126 131 Q145 119 151 103 Z " />
<glyph glyph-name="semicolon" unicode="&#x3b;" horiz-adv-x="234" d="M158 103 L123 -58 Q108 -89 79 -108 Q50 -127 5 -127 L-32 -127 L-18 -66 L9 -66 Q33 -66 49 -45 L56 -14 Q27 -14 9.5 -2 Q-8 10 -11 26 L5 104 Q16 120 36.5 131.5 Q57 143 86 143 Q114 143 133 131 Q152 119 158 103 Z M238 472 L222 397 Q212 380 192 369 Q172 358 142 358 Q112 358 93 370 Q74 382 69 397 L85 472 Q96 489 116 500.5 Q136 512 163 512 Q195 512 214 500 Q233 488 238 472 Z " />
<glyph glyph-name="colon" unicode="&#x3a;" horiz-adv-x="234" d="M158 103 L142 28 Q132 11 112 0 Q92 -11 62 -11 Q32 -11 13 1 Q-6 13 -11 28 L5 103 Q16 120 36 131.5 Q56 143 83 143 Q115 143 134 131 Q153 119 158 103 Z M237 472 L221 397 Q211 380 191 369 Q171 358 141 358 Q111 358 92 370 Q73 382 68 397 L84 472 Q95 489 115 500.5 Q135 512 162 512 Q194 512 213 500 Q232 488 237 472 Z " />
<glyph glyph-name="period" unicode="&#x2e;" horiz-adv-x="220" d="M151 103 L135 28 Q125 11 105 0 Q85 -11 55 -11 Q25 -11 6 1 Q-13 13 -18 28 L-2 103 Q9 120 29 131.5 Q49 143 76 143 Q108 143 127 131 Q146 119 151 103 Z " />
<glyph glyph-name="ellipsis" unicode="&#x2026;" horiz-adv-x="648" d="M150 101 L135 28 Q124 13 102 1 Q80 -11 49 -11 Q20 -11 3 1 Q-14 13 -18 28 L-2 101 Q8 117 30 129 Q52 141 82 141 Q112 141 129.5 129 Q147 117 150 101 Z M365 101 L349 28 Q339 13 316.5 1 Q294 -11 264 -11 Q235 -11 218 1 Q201 13 197 28 L212 101 Q223 117 245 129 Q267 141 297 141 Q327 141 344 129 Q361 117 365 101 Z M578 101 L563 28 Q553 13 530.5 1 Q508 -11 477 -11 Q448 -11 431 1 Q414 13 410 28 L426 101 Q437 117 459 129 Q481 141 510 141 Q541 141 558 129 Q575 117 578 101 Z " />
<glyph glyph-name="hyphen" unicode="&#x2d;" horiz-adv-x="366" d="M37 278 L61 392 L357 392 L333 278 L37 278 Z " />
<glyph glyph-name="exclam" unicode="&#x21;" horiz-adv-x="286" d="M285 559 L188 192 L65 192 L124 559 L154 700 L315 700 L285 559 Z M184 103 L168 28 Q158 11 138 0 Q118 -11 89 -11 Q59 -11 40 1 Q21 13 16 28 L32 103 Q42 120 62.5 131.5 Q83 143 110 143 Q142 143 161 131 Q180 119 184 103 Z " />
<glyph glyph-name="exclamdown" unicode="&#xa1;" horiz-adv-x="286" d="M101 441 L117 516 Q127 533 147 544 Q167 555 196 555 Q226 555 245 543 Q264 531 270 516 L254 441 Q243 424 222.5 413 Q202 402 175 402 Q144 402 125 413.5 Q106 425 101 441 Z M1 -15 L97 352 L220 352 L161 -15 L131 -156 L-30 -156 L1 -15 Z " />
<glyph glyph-name="question" unicode="&#x3f;" horiz-adv-x="539" d="M581 591 L544 420 Q521 389 449 345 L291 250 L279 194 L134 194 L158 306 L323 407 Q390 447 406 470 L423 547 Q413 568 390 581.5 Q367 595 333 595 Q294 595 262 577.5 Q230 560 213 533 L82 533 L98 607 Q137 650 200.5 682.5 Q264 715 357 715 Q455 715 507.5 677 Q560 639 581 591 Z M265 103 L249 28 Q239 11 219 0 Q199 -11 169 -11 Q139 -11 120 1 Q101 13 96 28 L112 103 Q123 120 143.5 131.5 Q164 143 190 143 Q222 143 241 131 Q260 119 265 103 Z " />
<glyph glyph-name="questiondown" unicode="&#xbf;" horiz-adv-x="539" d="M274 442 L290 517 Q300 534 320 545.5 Q340 557 370 557 Q400 557 418.5 545 Q437 533 443 517 L427 442 Q416 426 395.5 414.5 Q375 403 348 403 Q317 403 298 414.5 Q279 426 274 442 Z M-42 -45 L-5 126 Q22 160 90 200 L247 295 L260 352 L405 352 L381 239 L216 139 Q149 99 133 75 L115 -2 Q125 -22 148.5 -35.5 Q172 -49 206 -49 Q245 -49 277 -31 Q309 -13 325 13 L456 13 L441 -62 Q401 -105 337.5 -137 Q274 -169 182 -169 Q84 -169 31.5 -131 Q-21 -93 -42 -45 Z " />
<glyph glyph-name="quoteleft" unicode="&#x2018;" horiz-adv-x="222" d="M72 480 L107 642 Q123 673 152 692 Q181 711 225 711 L262 711 L249 650 L222 650 Q210 650 199.5 644 Q189 638 182 628 L175 597 Q204 597 221 585 Q238 573 242 558 L225 480 Q214 464 193.5 452.5 Q173 441 144 441 Q116 441 97.5 452.5 Q79 464 72 480 Z " />
<glyph glyph-name="quoteright" unicode="&#x2019;" horiz-adv-x="222" d="M281 675 L246 514 Q231 483 202 464 Q173 445 128 445 L91 445 L105 506 L132 506 Q156 506 172 527 L179 558 Q150 558 132.5 570 Q115 582 112 598 L128 676 Q139 692 159.5 703.5 Q180 715 209 715 Q237 715 256 703 Q275 691 281 675 Z " />
<glyph glyph-name="quotedblleft" unicode="&#x201c;" horiz-adv-x="433" d="M78 481 L113 642 Q128 673 157 692 Q186 711 231 711 L268 711 L254 650 L227 650 Q203 650 187 629 L180 598 Q209 598 226.5 586 Q244 574 247 558 L231 480 Q220 465 199.5 453.5 Q179 442 150 442 Q122 442 103 454 Q84 466 78 481 Z M289 481 L324 642 Q340 673 369 692 Q398 711 442 711 L479 711 L465 650 L438 650 Q427 650 416.5 644.5 Q406 639 399 629 L391 598 Q420 598 437.5 586 Q455 574 459 558 L442 480 Q431 465 410.5 453.5 Q390 442 361 442 Q333 442 314.5 453.5 Q296 465 289 481 Z " />
<glyph glyph-name="quotedblright" unicode="&#x201d;" horiz-adv-x="433" d="M281 675 L246 514 Q231 483 202 464 Q173 445 128 445 L91 445 L105 506 L132 506 Q156 506 172 527 L179 558 Q150 558 132.5 570 Q115 582 112 598 L128 676 Q139 692 159.5 703.5 Q180 715 209 715 Q237 715 256 703 Q275 691 281 675 Z M492 675 L457 514 Q442 483 413 464 Q384 445 339 445 L302 445 L316 506 L343 506 Q367 506 383 527 L390 558 Q361 558 343.5 570 Q326 582 323 598 L339 676 Q350 692 370.5 703.5 Q391 715 420 715 Q448 715 467 703 Q486 691 492 675 Z " />
<glyph glyph-name="quotesinglbase" unicode="&#x201a;" horiz-adv-x="222" d="M162 103 L127 -58 Q112 -89 83 -108 Q54 -127 9 -127 L-28 -127 L-14 -66 L13 -66 Q37 -66 53 -45 L60 -14 Q31 -14 13.5 -2 Q-4 10 -7 26 L9 104 Q20 120 40.5 131.5 Q61 143 90 143 Q118 143 137 131 Q156 119 162 103 Z " />
<glyph glyph-name="quotedblbase" unicode="&#x201e;" horiz-adv-x="434" d="M152 103 L117 -58 Q102 -89 73 -108 Q44 -127 -1 -127 L-38 -127 L-24 -66 L3 -66 Q27 -66 43 -45 L50 -14 Q21 -14 3.5 -2 Q-14 10 -17 26 L-1 104 Q10 120 30.5 131.5 Q51 143 80 143 Q108 143 127 131 Q146 119 152 103 Z M364 103 L329 -58 Q314 -89 285 -108 Q256 -127 211 -127 L174 -127 L188 -66 L215 -66 Q239 -66 255 -45 L262 -14 Q233 -14 215.5 -2 Q198 10 195 26 L211 104 Q222 120 242.5 131.5 Q263 143 292 143 Q320 143 339 131 Q358 119 364 103 Z " />
<glyph glyph-name="guilsinglleft" unicode="&#x2039;" horiz-adv-x="353" d="M152 283 L278 110 L263 34 L177 34 L27 235 L51 344 L265 542 L371 542 L355 466 L152 283 Z " />
<glyph glyph-name="guilsinglright" unicode="&#x203a;" horiz-adv-x="353" d="M310 232 L95 34 L-11 34 L5 110 L208 293 L82 466 L97 542 L183 542 L333 341 L310 232 Z " />
<glyph glyph-name="guillemotleft" unicode="&#xab;" horiz-adv-x="622" d="M152 283 L278 110 L263 34 L177 34 L27 235 L51 344 L265 542 L371 542 L355 466 L152 283 Z M422 283 L549 110 L533 34 L447 34 L297 235 L321 344 L535 542 L641 542 L625 466 L422 283 Z " />
<glyph glyph-name="guillemotright" unicode="&#xbb;" horiz-adv-x="622" d="M309 232 L94 34 L-12 34 L4 110 L207 293 L81 466 L97 542 L182 542 L332 341 L309 232 Z M579 232 L364 34 L258 34 L275 110 L478 293 L351 466 L367 542 L452 542 L603 341 L579 232 Z " />
<glyph glyph-name="slash" unicode="&#x2f;" horiz-adv-x="410" d="M452 655 L78 -110 L-43 -110 L-26 -34 L347 731 L468 731 L452 655 Z " />
<glyph glyph-name="bar" unicode="&#x7c;" horiz-adv-x="320" d="M255 -130 L102 -130 L102 790 L255 790 L255 -130 Z " />
<glyph glyph-name="endash" unicode="&#x2013;" horiz-adv-x="566" d="M37 278 L61 392 L557 392 L533 278 L37 278 Z " />
<glyph glyph-name="emdash" unicode="&#x2014;" horiz-adv-x="866" d="M37 278 L61 392 L857 392 L833 278 L37 278 Z " />
<glyph glyph-name="bullet" unicode="&#x2022;" horiz-adv-x="348" d="M330 415 L301 278 Q253 217 168 217 Q126 217 95 235 Q64 253 51 279 L80 415 Q100 442 134 458 Q168 474 211 474 Q253 474 285 457.5 Q317 441 330 415 Z " />
<glyph glyph-name="parenleft" unicode="&#x28;" horiz-adv-x="362" d="M400 597 L390 597 Q349 597 313.5 570.5 Q278 544 261 508 L156 21 Q157 -16 180 -40.5 Q203 -65 248 -65 L257 -65 L235 -168 L225 -168 Q121 -168 63.5 -118.5 Q6 -69 -8 -3 L107 535 Q128 577 169.5 614.5 Q211 652 269.5 676 Q328 700 399 700 L421 700 L400 597 Z " />
<glyph glyph-name="parenright" unicode="&#x29;" horiz-adv-x="362" d="M-40 -65 L-30 -65 Q11 -65 46.5 -38.5 Q82 -12 99 24 L204 511 Q203 548 180 572.5 Q157 597 112 597 L103 597 L125 700 L135 700 Q239 700 296.5 650.5 Q354 601 368 535 L253 -3 Q232 -45 190.5 -82.5 Q149 -120 90.5 -144 Q32 -168 -39 -168 L-61 -168 L-40 -65 Z " />
<glyph glyph-name="bracketleft" unicode="&#x5b;" horiz-adv-x="368" d="M284 597 L141 -65 L257 -65 L235 -168 L-35 -168 L151 700 L421 700 L399 597 L284 597 Z " />
<glyph glyph-name="bracketright" unicode="&#x5d;" horiz-adv-x="368" d="M-56 -168 L-34 -65 L82 -65 L224 597 L109 597 L130 700 L400 700 L214 -168 L-56 -168 Z " />
<glyph glyph-name="braceleft" unicode="&#x7b;" horiz-adv-x="381" d="M21 -12 L57 158 Q59 187 46.5 198 Q34 209 12 209 L34 313 Q84 313 102 364 L138 535 Q174 604 251 652 Q328 700 442 700 L421 597 Q374 597 340.5 569 Q307 541 289 497 L256 343 Q231 290 169 259 Q212 228 220 176 L186 18 Q185 -23 207.5 -49 Q230 -75 277 -75 L254 -178 Q152 -178 94.5 -128.5 Q37 -79 21 -12 Z " />
<glyph glyph-name="braceright" unicode="&#x7d;" horiz-adv-x="381" d="M356 535 L320 364 Q318 335 330.5 324 Q343 313 365 313 L343 209 Q293 209 275 158 L239 -12 Q203 -82 125.5 -130 Q48 -178 -65 -178 L-44 -75 Q3 -75 36.5 -47 Q70 -19 88 25 L121 180 Q146 232 208 263 Q165 294 157 346 L191 504 Q192 545 169.5 571 Q147 597 100 597 L123 700 Q225 700 282.5 650.5 Q340 601 356 535 Z " />
<glyph glyph-name="asterisk" unicode="&#x2a;" horiz-adv-x="492" d="M513 565 Q513 559 511 545 L364 519 L468 412 Q458 387 428 365 Q402 344 371 341 L302 473 L233 341 Q202 344 176 365 Q145 387 136 412 L240 519 L93 545 Q91 559 91 565 Q91 583 98 606 Q111 642 130 658 L262 594 L242 739 Q267 754 302 754 Q338 754 361 739 L340 593 L473 658 Q493 640 506 606 Q513 583 513 565 Z " />
<glyph glyph-name="dagger" unicode="&#x2020;" horiz-adv-x="643" d="M640 349 L545 349 L419 360 L406 -168 L287 -168 L274 361 L150 349 L56 349 L56 477 L150 477 L271 466 L269 559 L269 700 L424 700 L424 559 L422 466 L545 477 L640 477 L640 349 Z " />
<glyph glyph-name="daggerdbl" unicode="&#x2021;" horiz-adv-x="663" d="M399 195 L529 207 L624 207 L624 79 L529 79 L396 91 L390 -168 L271 -168 L265 91 L134 79 L40 79 L40 207 L134 207 L262 195 L257 390 L134 379 L40 379 L40 507 L134 507 L255 496 L253 559 L253 700 L408 700 L408 559 L406 496 L529 507 L624 507 L624 379 L529 379 L404 390 L399 195 Z " />
<glyph glyph-name="section" unicode="&#xa7;" horiz-adv-x="523" d="M241 577 L231 528 Q236 515 252 506.5 Q268 498 296 492 L345 479 Q417 464 454.5 440 Q492 416 505 391 L475 247 Q451 215 405 191 Q434 171 451 142 L424 11 Q398 -26 339 -59.5 Q280 -93 191 -93 Q129 -93 85.5 -75 Q42 -57 18 -32.5 Q-6 -8 -13 11 L-2 61 L120 61 Q125 38 147 22 Q169 6 205 6 Q235 6 260 17.5 Q285 29 299 45 L309 94 Q304 107 288 115 Q272 123 244 130 L194 143 Q123 158 85.5 182 Q48 206 35 231 L64 374 Q87 406 134 431 Q103 452 88 480 L116 611 Q141 648 200.5 681.5 Q260 715 349 715 Q411 715 454.5 697 Q498 679 521.5 654.5 Q545 630 552 611 L542 561 L420 561 Q414 584 392.5 600 Q371 616 335 616 Q305 616 279.5 604.5 Q254 593 241 577 Z M297 376 L272 382 Q246 379 224 367 Q202 355 190 340 L178 284 Q186 260 242 246 L267 240 Q294 243 315.5 255 Q337 267 350 282 L362 338 Q352 363 297 376 Z " />
<glyph glyph-name="paragraph" unicode="&#xb6;" horiz-adv-x="671" d="M324 -100 L217 -100 L289 234 L243 234 Q171 234 124 267.5 Q77 301 59 353 L107 581 Q151 638 213.5 669 Q276 700 342 700 L495 700 L324 -100 Z M528 -100 L421 -100 L592 700 L699 700 L528 -100 Z " />
<glyph glyph-name="asciicircum" unicode="&#x5e;" horiz-adv-x="506" d="M496 342 L402 342 L290 559 L272 559 L160 342 L69 342 L69 425 L216 700 L349 700 L496 425 L496 342 Z " />
<glyph glyph-name="asciitilde" unicode="&#x7e;" horiz-adv-x="585" d="M326 424 Q365 412 394.5 405.5 Q424 399 453 399 Q482 399 507 409 Q532 419 548.5 430.5 Q565 442 565 443 L565 318 Q565 317 549.5 308 Q534 299 509.5 291.5 Q485 284 454 284 Q419 284 387.5 290.5 Q356 297 311 310 Q273 322 243.5 328.5 Q214 335 183 335 Q148 335 118 323.5 Q88 312 67.5 298.5 Q47 285 47 284 L47 404 Q47 405 66 417.5 Q85 430 116 440 Q147 450 185 450 Q218 450 250 443.5 Q282 437 326 424 Z " />
<glyph glyph-name="brokenbar" unicode="&#xa6;" horiz-adv-x="319" d="M255 389 L102 389 L102 790 L255 790 L255 389 Z M255 -129 L102 -129 L102 296 L255 296 L255 -129 Z " />
<glyph glyph-name="backslash" unicode="&#x5c;" horiz-adv-x="410" d="M287 -110 L166 -110 L122 655 L138 731 L259 731 L304 -34 L287 -110 Z " />
<glyph glyph-name="underscore" unicode="&#x5f;" horiz-adv-x="517" d="M433 -145 L-94 -145 L-74 -54 L453 -54 L433 -145 Z " />
<glyph glyph-name="quotesingle" unicode="&#x27;" horiz-adv-x="193" d="M225 581 L178 443 L89 443 L101 581 L126 700 L250 700 L225 581 Z " />
<glyph glyph-name="quotedbl" unicode="&#x22;" horiz-adv-x="392" d="M225 581 L178 443 L89 443 L101 581 L126 700 L250 700 L225 581 Z M424 581 L377 443 L288 443 L300 581 L325 700 L449 700 L424 581 Z " />
<glyph glyph-name="at" unicode="&#x40;" horiz-adv-x="924" d="M926 454 L850 105 Q822 67 778.5 49 Q735 31 689 31 Q590 31 541 93 Q472 35 380 35 Q334 35 298 53 Q262 71 241.5 97.5 Q221 124 217 148 L270 401 Q295 444 346 479 Q397 514 464 514 Q547 514 589 455 L599 501 L725 501 L647 137 Q660 108 701 108 Q722 108 736 115 Q750 122 765 137 L830 438 Q822 480 790 524.5 Q758 569 696 601 Q634 633 543 633 Q434 633 335.5 579.5 Q237 526 175 434 L106 119 Q128 26 204.5 -27 Q281 -80 390 -80 Q490 -80 581 -33 L616 -103 Q517 -161 381 -161 Q238 -161 139 -92.5 Q40 -24 9 98 L85 456 Q157 579 282.5 647 Q408 715 552 715 Q664 715 745 673 Q826 631 871 570.5 Q916 510 926 454 Z M425 130 Q457 130 483.5 141 Q510 152 528 169 L573 381 Q563 398 541 409 Q519 420 488 420 Q455 420 429.5 406.5 Q404 393 394 378 L349 171 Q355 156 374 143 Q393 130 425 130 Z " />
<glyph glyph-name="copyright" unicode="&#xa9;" horiz-adv-x="799" d="M780 350 Q780 250 730.5 166.5 Q681 83 596.5 34 Q512 -15 413 -15 Q314 -15 229.5 34 Q145 83 95.5 166.5 Q46 250 46 350 Q46 450 95.5 533.5 Q145 617 229.5 666 Q314 715 413 715 Q512 715 596.5 666 Q681 617 730.5 533.5 Q780 450 780 350 Z M111 350 Q111 267 151 196.5 Q191 126 260.5 85 Q330 44 413 44 Q496 44 565 85 Q634 126 674 196.5 Q714 267 714 350 Q714 433 674 503.5 Q634 574 565 615 Q496 656 413 656 Q330 656 260.5 615 Q191 574 151 503.5 Q111 433 111 350 Z M604 489 L604 436 L501 436 Q494 458 471.5 474 Q449 490 414 490 Q385 490 364 478.5 Q343 467 334 453 L334 246 Q343 232 364 220.5 Q385 209 414 209 Q449 209 471.5 225 Q494 241 501 262 L604 262 L604 210 Q584 178 537 148.5 Q490 119 412 119 Q333 119 283.5 152.5 Q234 186 216 223 L216 476 Q234 513 283.5 546.5 Q333 580 412 580 Q490 580 536.5 550.5 Q583 521 604 489 Z " />
<glyph glyph-name="registered" unicode="&#xae;" horiz-adv-x="518" d="M567 585 Q567 521 534 466 Q501 411 445.5 378.5 Q390 346 326 346 Q262 346 206.5 378.5 Q151 411 118 466 Q85 521 85 585 Q85 649 118 704 Q151 759 206.5 791.5 Q262 824 326 824 Q390 824 445.5 791.5 Q501 759 534 704 Q567 649 567 585 Z M521 585 Q521 638 495 683.5 Q469 729 424 755.5 Q379 782 326 782 Q273 782 228.5 755.5 Q184 729 158 683.5 Q132 638 132 585 Q132 532 158 486.5 Q184 441 228.5 414.5 Q273 388 326 388 Q379 388 424 414.5 Q469 441 495 486.5 Q521 532 521 585 Z M437 673 L437 596 Q424 566 390 552 L434 494 L434 454 L379 454 L328 544 L290 544 L290 454 L227 454 L227 726 L351 726 Q377 726 401.5 711.5 Q426 697 437 673 Z M290 593 L338 593 Q366 593 374 613 L374 655 Q365 675 338 675 L290 675 L290 593 Z " />
<glyph glyph-name="trademark" unicode="&#x2122;" horiz-adv-x="805" d="M291 625 L224 310 L129 310 L196 625 L100 625 L115 700 L404 700 L388 625 L291 625 Z M679 310 L732 557 L730 557 L588 310 L535 310 L498 557 L496 557 L444 310 L355 310 L438 700 L564 700 L599 475 L601 475 L730 700 L851 700 L768 310 L679 310 Z " />
<glyph glyph-name="uni2117" unicode="&#x2117;" horiz-adv-x="799" d="M766 350 Q766 250 716.5 166.5 Q667 83 582.5 34 Q498 -15 399 -15 Q300 -15 216 34 Q132 83 82.5 166.5 Q33 250 33 350 Q33 450 82.5 533.5 Q132 617 216 666 Q300 715 399 715 Q498 715 582.5 666 Q667 617 716.5 533.5 Q766 450 766 350 Z M98 350 Q98 267 138 196.5 Q178 126 247 85 Q316 44 399 44 Q482 44 551 85 Q620 126 660 196.5 Q700 267 700 350 Q700 433 660 503.5 Q620 574 551 615 Q482 656 399 656 Q316 656 247 615 Q178 574 138 503.5 Q98 433 98 350 Z M587 478 L587 350 Q569 310 531 286 Q493 262 450 262 L355 262 L355 127 L254 127 L254 565 L450 565 Q493 565 531 541 Q569 517 587 478 Z M355 489 L355 338 L430 338 Q448 338 464.5 347 Q481 356 490 375 L490 453 Q481 471 465 480 Q449 489 430 489 L355 489 Z " />
<glyph glyph-name="currency" unicode="&#xa4;" horiz-adv-x="590" d="M551 510 L523 482 Q534 467 546 444 L546 225 Q539 209 524 187 L551 160 L551 90 L459 90 L434 114 Q379 89 309 89 Q241 89 186 114 L162 90 L68 90 L68 160 L94 187 Q83 203 72 225 L72 444 Q84 467 95 482 L68 510 L68 580 L162 580 L186 555 Q241 580 309 580 Q379 580 434 554 L459 580 L551 580 L551 510 Z M404 417 Q394 440 369 455.5 Q344 471 309 471 Q275 471 250.5 455.5 Q226 440 216 417 L216 251 Q226 228 250.5 212.5 Q275 197 309 197 Q344 197 369 212.5 Q394 228 404 251 L404 417 Z " />
<glyph glyph-name="Euro" unicode="&#x20ac;" horiz-adv-x="598" d="M285 549 L267 463 L488 463 L473 385 L250 385 L237 326 L459 326 L442 248 L221 248 L200 151 Q205 129 230.5 113.5 Q256 98 291 98 Q335 98 365 119.5 Q395 141 412 178 L541 178 L524 99 Q495 57 432.5 21 Q370 -15 277 -15 Q212 -15 162 6.5 Q112 28 82.5 58.5 Q53 89 45 118 L73 248 L23 248 L40 326 L90 326 L102 385 L54 385 L69 463 L119 463 L145 582 Q178 635 246 675 Q314 715 411 715 Q475 715 521.5 695 Q568 675 594.5 648 Q621 621 631 599 L614 522 L492 522 Q491 556 463.5 579.5 Q436 603 393 603 Q358 603 328.5 587.5 Q299 572 285 549 Z " />
<glyph glyph-name="dollar" unicode="&#x24;" horiz-adv-x="591" d="M262 550 L246 474 Q251 459 264.5 449 Q278 439 313 428 L367 413 Q455 389 493 359.5 Q531 330 550 289 L513 119 Q432 6 294 -12 L277 -92 L160 -92 L178 -9 Q105 4 65 40.5 Q25 77 9 119 L24 189 L157 189 Q159 151 185.5 127.5 Q212 104 259 104 Q297 104 327 120.5 Q357 137 374 160 L390 236 Q386 255 369 268 Q352 281 316 290 L261 305 Q180 326 143.5 353 Q107 380 86 420 L122 591 Q150 632 203.5 667 Q257 702 332 712 L350 792 L466 792 L448 709 Q513 696 552.5 662 Q592 628 606 591 L591 521 L458 521 Q455 555 432.5 576 Q410 597 365 597 Q333 597 304.5 583 Q276 569 262 550 Z " />
<glyph glyph-name="cent" unicode="&#xa2;" horiz-adv-x="540" d="M212 392 L159 148 Q165 126 188 111.5 Q211 97 245 97 Q322 97 362 168 L484 168 L471 101 Q446 63 399 30 Q352 -3 279 -12 L262 -92 L144 -92 L163 -7 Q98 8 59 45 Q20 82 11 121 L76 421 Q103 469 154.5 506.5 Q206 544 283 554 L300 634 L417 634 L399 549 Q460 536 496.5 502.5 Q533 469 543 439 L529 374 L411 374 Q406 407 380.5 426 Q355 445 315 445 Q281 445 254 429.5 Q227 414 212 392 Z " />
<glyph glyph-name="sterling" unicode="&#xa3;" horiz-adv-x="608" d="M291 549 L257 390 L489 390 L470 299 L237 299 L209 167 Q194 141 165 115 L533 115 L508 0 L-18 0 L4 98 Q14 100 29.5 110.5 Q45 121 55 138 L90 299 L41 299 L59 390 L109 390 L150 582 Q182 635 250.5 675 Q319 715 417 715 Q481 715 528 695 Q575 675 601.5 648 Q628 621 636 599 L620 522 L497 522 Q494 558 468 580.5 Q442 603 399 603 Q364 603 335 587.5 Q306 572 291 549 Z " />
<glyph glyph-name="florin" unicode="&#x192;" horiz-adv-x="423" d="M335 569 L323 516 L434 516 L412 412 L301 412 L195 -86 Q171 -125 124 -153 Q77 -181 4 -181 Q-26 -181 -51 -177.5 Q-76 -174 -88 -169 L-68 -74 L-23 -74 Q38 -74 62 -37 L158 412 L94 412 L115 516 L180 516 L202 618 Q226 657 273 685.5 Q320 714 393 714 Q422 714 447 710.5 Q472 707 485 702 L464 607 L419 607 Q359 607 335 569 Z " />
<glyph glyph-name="yen" unicode="&#xa5;" horiz-adv-x="594" d="M371 269 L563 269 L546 191 L354 191 L314 0 L159 0 L200 191 L13 191 L30 269 L216 269 L222 294 L207 334 L44 334 L61 412 L180 412 L109 614 L128 700 L248 700 L327 431 L330 431 L519 700 L651 700 L632 614 L476 412 L594 412 L577 334 L416 334 L373 279 L371 269 Z " />
<glyph glyph-name="uni20A8" unicode="&#x20a8;" horiz-adv-x="514" d="M573 622 L467 622 Q486 601 492 576 L480 517 L551 517 L533 439 L463 439 L453 389 Q422 334 360.5 300 Q299 266 236 266 L230 266 L386 76 L369 0 L254 0 L47 264 L67 355 L193 355 Q229 355 261 370 Q293 385 310 412 L315 439 L85 439 L102 517 L332 517 L337 542 Q332 567 308.5 582.5 Q285 598 258 598 L120 598 L141 700 L589 700 L573 622 Z " />
<glyph glyph-name="uni20BA" unicode="&#x20ba;" horiz-adv-x="587" d="M526 193 L510 115 Q478 71 415.5 35.5 Q353 0 260 0 L32 0 L77 211 L9 181 L27 270 L96 300 L112 375 L43 344 L62 433 L131 463 L182 700 L329 700 L294 535 L491 622 L472 533 L275 446 L259 371 L456 458 L437 369 L240 283 L204 112 L268 112 Q313 112 347.5 135 Q382 158 399 193 L526 193 Z " />
<glyph glyph-name="uni20BD" unicode="&#x20bd;" horiz-adv-x="602" d="M632 581 L592 393 Q513 276 367 276 L226 276 L214 221 L462 221 L446 143 L197 143 L167 0 L13 0 L43 143 L-7 143 L9 221 L60 221 L72 276 L21 276 L43 376 L93 376 L162 700 L439 700 Q506 700 558 668.5 Q610 637 632 581 Z M475 534 Q466 560 443 573 Q420 586 390 586 L292 586 L248 376 L334 376 Q413 376 451 428 L475 534 Z " />
<glyph glyph-name="ordfeminine" unicode="&#xaa;" horiz-adv-x="395" d="M423 617 L368 357 L286 357 L291 381 Q247 348 194 348 Q159 348 133.5 357.5 Q108 367 93.5 380.5 Q79 394 75 404 L96 503 Q140 561 220 561 L323 561 L332 603 Q330 621 314.5 632.5 Q299 644 273 644 Q249 644 230 633 Q211 622 200 604 L123 604 L131 642 Q147 666 184 688.5 Q221 711 279 711 Q343 711 379.5 683 Q416 655 423 617 Z M221 413 Q269 413 298 442 L311 503 L241 503 Q198 503 175 478 L167 439 Q171 430 185 421.5 Q199 413 221 413 Z " />
<glyph glyph-name="ordmasculine" unicode="&#xba;" horiz-adv-x="402" d="M430 617 L393 441 Q370 402 329.5 375 Q289 348 228 348 Q166 348 128.5 376 Q91 404 83 441 L120 617 Q144 657 184 684 Q224 711 285 711 Q348 711 385.5 682.5 Q423 654 430 617 Z M205 602 L173 455 Q176 439 192 428 Q208 417 232 417 Q256 417 276.5 428 Q297 439 308 455 L339 602 Q336 620 320.5 631 Q305 642 280 642 Q255 642 235 631 Q215 620 205 602 Z " />
<glyph glyph-name="numbersign" unicode="&#x23;" horiz-adv-x="570" d="M455 293 L512 293 L489 191 L416 191 L345 0 L245 0 L261 76 L304 191 L179 191 L108 0 L8 0 L24 76 L67 191 L10 191 L32 293 L105 293 L149 410 L93 410 L115 513 L188 513 L258 700 L358 700 L342 624 L300 513 L425 513 L495 700 L595 700 L579 624 L537 513 L594 513 L572 410 L499 410 L455 293 Z M262 410 L217 293 L342 293 L386 410 L262 410 Z " />
<glyph glyph-name="uni2116" unicode="&#x2116;" horiz-adv-x="1013" d="M1058 603 L1024 441 Q995 401 943 369.5 Q891 338 818 338 Q743 338 705 369.5 Q667 401 656 441 L691 603 Q718 644 770 675.5 Q822 707 897 707 Q971 707 1009.5 675 Q1048 643 1058 603 Z M493 0 L334 0 L242 439 L239 439 L144 0 L1 0 L151 700 L310 700 L402 260 L405 260 L500 700 L643 700 L493 0 Z M795 583 L769 463 Q774 445 790.5 433 Q807 421 836 421 Q864 421 885.5 433 Q907 445 920 463 L946 583 Q941 600 924.5 612.5 Q908 625 880 625 Q851 625 829.5 613 Q808 601 795 583 Z M973 206 L606 206 L624 295 L992 295 L973 206 Z " />
<glyph glyph-name="zero" unicode="0" horiz-adv-x="591" d="M609 582 L509 119 Q477 65 410 25 Q343 -15 247 -15 Q182 -15 132.5 6 Q83 27 54 58 Q25 89 16 119 L115 582 Q149 635 217 675 Q285 715 380 715 Q445 715 494 694.5 Q543 674 571.5 643.5 Q600 613 609 582 Z M256 549 L170 152 Q175 130 200.5 114 Q226 98 261 98 Q297 98 325 113.5 Q353 129 369 152 L455 549 Q450 571 424.5 587 Q399 603 363 603 Q328 603 300 587.5 Q272 572 256 549 Z " />
<glyph glyph-name="one" unicode="1" horiz-adv-x="457" d="M382 100 L360 0 L-1 0 L20 100 L130 100 L226 546 L106 500 L130 615 L304 700 L406 700 L278 100 L382 100 Z " />
<glyph glyph-name="two" unicode="2" horiz-adv-x="569" d="M591 582 L559 432 Q539 394 503.5 365.5 Q468 337 381 291 L297 246 Q244 218 211 196.5 Q178 175 165 155 L156 119 L496 119 L471 0 L-16 0 L24 189 Q49 229 89 261.5 Q129 294 204 335 L300 386 Q353 415 380.5 434 Q408 453 421 474 L437 551 Q431 573 407 588 Q383 603 349 603 Q310 603 277.5 581.5 Q245 560 226 522 L96 522 L113 599 Q143 643 207 679 Q271 715 364 715 Q430 715 478.5 694 Q527 673 555 642.5 Q583 612 591 582 Z " />
<glyph glyph-name="three" unicode="3" horiz-adv-x="571" d="M583 589 L553 443 Q539 421 508.5 400.5 Q478 380 437 364 Q471 349 494 323 Q517 297 523 273 L490 119 Q458 65 390.5 25 Q323 -15 226 -15 Q162 -15 114.5 5 Q67 25 39.5 51.5 Q12 78 1 101 L18 178 L143 178 Q145 143 171.5 120.5 Q198 98 240 98 Q276 98 304.5 113.5 Q333 129 349 152 L370 248 Q366 273 342.5 290 Q319 307 281 307 L200 307 L223 415 L294 415 Q334 415 364.5 430.5 Q395 446 410 466 L429 558 Q422 576 400 589.5 Q378 603 345 603 Q301 603 273 581.5 Q245 560 232 530 L100 530 L116 607 Q145 645 207.5 680 Q270 715 361 715 Q425 715 472.5 694.5 Q520 674 547 645 Q574 616 583 589 Z " />
<glyph glyph-name="four" unicode="4" horiz-adv-x="591" d="M570 263 L545 150 L466 150 L435 0 L293 0 L325 150 L0 150 L24 259 L374 700 L584 700 L491 263 L570 263 Z M171 263 L350 263 L415 567 L412 567 L171 263 Z " />
<glyph glyph-name="five" unicode="5" horiz-adv-x="562" d="M257 581 L221 414 Q280 454 355 454 Q426 454 473.5 421 Q521 388 534 345 L482 101 Q451 56 389 20.5 Q327 -15 234 -15 Q169 -15 121 4.5 Q73 24 45.5 50.5 Q18 77 8 101 L25 178 L151 178 Q153 145 178.5 121.5 Q204 98 247 98 Q282 98 311 114 Q340 130 356 153 L388 295 Q381 318 358.5 333 Q336 348 301 348 Q267 348 240.5 334.5 Q214 321 198 304 L63 304 L147 700 L605 700 L580 581 L257 581 Z " />
<glyph glyph-name="six" unicode="6" horiz-adv-x="579" d="M257 549 L225 403 Q288 442 366 442 Q438 442 485.5 410 Q533 378 545 334 L495 101 Q468 59 403.5 22 Q339 -15 246 -15 Q181 -15 132 6 Q83 27 54 58 Q25 89 17 119 L116 582 Q149 635 217 675 Q285 715 381 715 Q445 715 492 695.5 Q539 676 565.5 649.5 Q592 623 602 599 L585 522 L462 522 Q459 559 433.5 581 Q408 603 364 603 Q330 603 301.5 587 Q273 571 257 549 Z M204 303 L171 152 Q177 130 201 114 Q225 98 260 98 Q295 98 325.5 114 Q356 130 369 152 L399 285 Q393 307 369 321.5 Q345 336 308 336 Q253 336 204 303 Z " />
<glyph glyph-name="seven" unicode="7" horiz-adv-x="507" d="M164 0 L34 0 L52 86 L393 581 L83 581 L108 700 L574 700 L551 593 L164 0 Z " />
<glyph glyph-name="eight" unicode="8" horiz-adv-x="590" d="M598 599 L564 437 Q536 399 474 373 Q508 354 525.5 334 Q543 314 551 289 L513 119 Q482 68 415.5 26.5 Q349 -15 245 -15 Q144 -15 87 27 Q30 69 11 119 L48 291 Q78 335 158 368 Q114 397 98 438 L131 599 Q164 644 226.5 679.5 Q289 715 378 715 Q440 715 486 696 Q532 677 559.5 650.5 Q587 624 598 599 Z M247 473 Q260 443 311 428 L338 421 Q368 428 394 443.5 Q420 459 429 474 L448 560 Q439 577 417 590 Q395 603 363 603 Q331 603 306 590 Q281 577 265 559 L247 473 Z M397 258 Q385 293 315 311 L293 317 Q254 309 225.5 290 Q197 271 187 255 L165 152 Q172 132 197.5 115 Q223 98 261 98 Q301 98 329 114 Q357 130 374 154 L397 258 Z " />
<glyph glyph-name="nine" unicode="9" horiz-adv-x="579" d="M596 581 L497 118 Q464 65 396 25 Q328 -15 232 -15 Q168 -15 121 4.5 Q74 24 47.5 50.5 Q21 77 11 101 L28 178 L151 178 Q154 141 179.5 119 Q205 97 249 97 Q283 97 311.5 113 Q340 129 356 151 L386 289 Q321 249 245 249 Q173 249 125.5 281.5 Q78 314 66 358 L118 599 Q145 641 209.5 678 Q274 715 367 715 Q432 715 481 694 Q530 673 559 642 Q588 611 596 581 Z M407 389 L442 548 Q436 570 412 586 Q388 602 353 602 Q319 602 288 586 Q257 570 243 548 L211 406 Q217 384 241.5 369.5 Q266 355 302 355 Q355 355 407 389 Z " />
<glyph glyph-name="uni00A0" unicode="&#xa0;" horiz-adv-x="204" d="" />
<glyph glyph-name="fraction" unicode="&#x2044;" horiz-adv-x="187" d="M443 640 L-155 0 L-235 0 L-222 60 L376 700 L456 700 L443 640 Z " />
<glyph glyph-name="onequarter" unicode="&#xbc;" horiz-adv-x="907" d="M801 640 L203 0 L123 0 L136 60 L734 700 L814 700 L801 640 Z M234 348 L301 348 L288 280 L48 280 L61 348 L131 348 L189 616 L117 611 L130 673 L224 700 L310 700 L234 348 Z M842 162 L825 86 L772 86 L755 0 L656 0 L674 86 L451 86 L468 160 L702 420 L844 420 L789 162 L842 162 Z M573 162 L691 162 L727 333 L724 333 L573 162 Z " />
<glyph glyph-name="onehalf" unicode="&#xbd;" horiz-adv-x="961" d="M235 348 L302 348 L289 280 L49 280 L62 348 L132 348 L190 616 L118 611 L131 673 L225 700 L311 700 L235 348 Z M801 640 L203 0 L123 0 L136 60 L734 700 L814 700 L801 640 Z M925 348 L908 267 Q894 242 868 223 Q842 204 785 174 L724 143 Q656 109 641 87 L641 82 L872 82 L855 0 L522 0 L543 98 Q558 126 586.5 149.5 Q615 173 664 199 L733 235 Q769 254 784.5 264.5 Q800 275 809 287 L816 322 Q811 334 796.5 342 Q782 350 758 350 Q730 350 707.5 337 Q685 324 674 308 L588 308 L599 362 Q618 387 660.5 408.5 Q703 430 766 430 Q831 430 872 404.5 Q913 379 925 348 Z " />
<glyph glyph-name="threequarters" unicode="&#xbe;" horiz-adv-x="953" d="M843 640 L245 0 L165 0 L178 60 L776 700 L856 700 L843 640 Z M881 162 L864 86 L811 86 L794 0 L695 0 L713 86 L490 86 L507 160 L741 420 L883 420 L828 162 L881 162 Z M612 162 L730 162 L766 333 L763 333 L612 162 Z M447 633 L428 543 Q420 531 400 517.5 Q380 504 355 496 Q377 488 391.5 474.5 Q406 461 413 446 L392 351 Q370 318 325.5 294.5 Q281 271 215 271 Q171 271 137 283 Q103 295 82.5 311 Q62 327 57 339 L69 395 L152 395 Q155 376 174.5 363.5 Q194 351 224 351 Q270 351 295 378 L306 429 Q302 441 286 449.5 Q270 458 246 458 L191 458 L207 532 L261 532 Q282 532 300.5 539.5 Q319 547 328 557 L339 606 Q333 615 319 622.5 Q305 630 284 630 Q231 630 202 588 L117 588 L129 645 Q147 668 188 688.5 Q229 709 292 709 Q356 709 395.5 684.5 Q435 660 447 633 Z " />
<glyph glyph-name="fiveeighths" unicode="&#x215d;" horiz-adv-x="1012" d="M905 215 Q942 192 951 164 L931 71 Q909 39 864 15 Q819 -9 753 -9 Q688 -9 646.5 15.5 Q605 40 593 71 L614 164 Q638 199 683 222 Q658 236 644 257 L668 364 Q684 386 726 407.5 Q768 429 831 429 Q894 429 931.5 407.5 Q969 386 982 364 L959 257 Q941 232 905 215 Z M743 273 Q749 264 764 257 Q779 250 801 250 Q823 250 840.5 257 Q858 264 867 273 L880 331 Q873 340 858.5 347 Q844 354 823 354 Q801 354 783.5 347 Q766 340 756 331 L743 273 Z M846 158 Q843 168 826.5 176 Q810 184 787 184 Q764 184 744.5 176.5 Q725 169 715 158 L702 93 Q706 82 722.5 74 Q739 66 762 66 Q785 66 804.5 74 Q824 82 833 93 L846 158 Z M435 618 L217 618 L198 530 Q234 555 289 555 Q335 555 368 536 Q401 517 410 492 L378 339 Q359 314 317.5 292.5 Q276 271 214 271 Q150 271 109 293.5 Q68 316 54 339 L66 395 L149 395 Q153 376 172 363.5 Q191 351 221 351 Q245 351 264 359 Q283 367 292 378 L309 457 Q304 468 289 476 Q274 484 251 484 Q230 484 210.5 474.5 Q191 465 182 456 L87 456 L139 700 L452 700 L435 618 Z M856 640 L258 0 L178 0 L191 60 L789 700 L869 700 L856 640 Z " />
<glyph glyph-name="oneeighth" unicode="&#x215b;" horiz-adv-x="977" d="M815 640 L217 0 L137 0 L150 60 L748 700 L828 700 L815 640 Z M236 348 L303 348 L290 280 L50 280 L63 348 L133 348 L191 616 L119 611 L132 673 L226 700 L312 700 L236 348 Z M864 215 Q901 192 910 164 L890 71 Q868 39 823 15 Q778 -9 712 -9 Q647 -9 605.5 15.5 Q564 40 552 71 L573 164 Q597 199 642 222 Q617 236 603 257 L627 364 Q643 386 685 407.5 Q727 429 790 429 Q853 429 890.5 407.5 Q928 386 941 364 L918 257 Q900 232 864 215 Z M702 273 Q708 264 723 257 Q738 250 760 250 Q782 250 799.5 257 Q817 264 826 273 L839 331 Q832 340 817.5 347 Q803 354 782 354 Q760 354 742.5 347 Q725 340 715 331 L702 273 Z M805 158 Q802 168 785.5 176 Q769 184 746 184 Q723 184 703.5 176.5 Q684 169 674 158 L661 93 Q665 82 681.5 74 Q698 66 721 66 Q744 66 763.5 74 Q783 82 792 93 L805 158 Z " />
<glyph glyph-name="seveneighths" unicode="&#x215e;" horiz-adv-x="939" d="M837 215 Q874 192 883 164 L863 71 Q841 39 796 15 Q751 -9 685 -9 Q620 -9 578.5 15.5 Q537 40 525 71 L546 164 Q570 199 615 222 Q590 236 576 257 L600 364 Q616 386 658 407.5 Q700 429 763 429 Q826 429 863.5 407.5 Q901 386 914 364 L891 257 Q873 232 837 215 Z M675 273 Q681 264 696 257 Q711 250 733 250 Q755 250 772.5 257 Q790 264 799 273 L812 331 Q805 340 790.5 347 Q776 354 755 354 Q733 354 715.5 347 Q698 340 688 331 L675 273 Z M778 158 Q775 168 758.5 176 Q742 184 719 184 Q696 184 676.5 176.5 Q657 169 647 158 L634 93 Q638 82 654.5 74 Q671 66 694 66 Q717 66 736.5 74 Q756 82 765 93 L778 158 Z M196 280 L102 280 L114 338 L317 615 L317 618 L113 618 L130 700 L446 700 L431 629 L196 280 Z M780 640 L182 0 L102 0 L115 60 L713 700 L793 700 L780 640 Z " />
<glyph glyph-name="threeeighths" unicode="&#x215c;" horiz-adv-x="1005" d="M896 215 Q933 192 942 164 L922 71 Q900 39 855 15 Q810 -9 744 -9 Q679 -9 637.5 15.5 Q596 40 584 71 L605 164 Q629 199 674 222 Q649 236 635 257 L659 364 Q675 386 717 407.5 Q759 429 822 429 Q885 429 922.5 407.5 Q960 386 973 364 L950 257 Q932 232 896 215 Z M734 273 Q740 264 755 257 Q770 250 792 250 Q814 250 831.5 257 Q849 264 858 273 L871 331 Q864 340 849.5 347 Q835 354 814 354 Q792 354 774.5 347 Q757 340 747 331 L734 273 Z M837 158 Q834 168 817.5 176 Q801 184 778 184 Q755 184 735.5 176.5 Q716 169 706 158 L693 93 Q697 82 713.5 74 Q730 66 753 66 Q776 66 795.5 74 Q815 82 824 93 L837 158 Z M445 633 L426 543 Q418 531 398 517.5 Q378 504 353 496 Q375 488 389.5 474.5 Q404 461 411 446 L390 351 Q368 318 323.5 294.5 Q279 271 213 271 Q169 271 135 283 Q101 295 80.5 311 Q60 327 55 339 L67 395 L150 395 Q153 376 172.5 363.5 Q192 351 222 351 Q268 351 293 378 L304 429 Q300 441 284 449.5 Q268 458 244 458 L189 458 L205 532 L259 532 Q280 532 298.5 539.5 Q317 547 326 557 L337 606 Q331 615 317 622.5 Q303 630 282 630 Q229 630 200 588 L115 588 L127 645 Q145 668 186 688.5 Q227 709 290 709 Q354 709 393.5 684.5 Q433 660 445 633 Z M851 640 L253 0 L173 0 L186 60 L784 700 L864 700 L851 640 Z " />
<glyph glyph-name="twothirds" unicode="&#x2154;" horiz-adv-x="1045" d="M1008 353 L989 263 Q981 251 961 237.5 Q941 224 916 216 Q938 208 952.5 194.5 Q967 181 974 166 L953 71 Q931 38 886.5 14.5 Q842 -9 776 -9 Q732 -9 698 3 Q664 15 643.5 31 Q623 47 618 59 L630 115 L713 115 Q716 96 735.5 83.5 Q755 71 785 71 Q831 71 856 98 L867 149 Q863 161 847 169.5 Q831 178 807 178 L752 178 L768 252 L822 252 Q843 252 861.5 259.5 Q880 267 889 277 L900 326 Q894 335 880 342.5 Q866 350 845 350 Q792 350 763 308 L678 308 L690 365 Q708 388 749 408.5 Q790 429 853 429 Q917 429 956.5 404.5 Q996 380 1008 353 Z M449 628 L432 547 Q418 522 392 503 Q366 484 309 454 L248 423 Q180 389 165 367 L165 362 L396 362 L379 280 L46 280 L67 378 Q82 406 110.5 429.5 Q139 453 188 479 L257 515 Q293 534 308.5 544.5 Q324 555 333 567 L340 602 Q335 614 320.5 622 Q306 630 282 630 Q254 630 231.5 617 Q209 604 198 588 L112 588 L123 642 Q142 667 184.5 688.5 Q227 710 290 710 Q355 710 396 684.5 Q437 659 449 628 Z M886 640 L288 0 L208 0 L221 60 L819 700 L899 700 L886 640 Z " />
<glyph glyph-name="uniE000" unicode="&#xe000;" horiz-adv-x="1036" d="M861 640 L263 0 L183 0 L196 60 L794 700 L874 700 L861 640 Z M221 603 L204 522 Q244 546 295 546 Q345 546 377.5 528 Q410 510 422 484 L391 339 Q371 313 330 292 Q289 271 224 271 Q160 271 118 296.5 Q76 322 64 351 L124 629 Q146 661 191.5 685 Q237 709 304 709 Q366 709 404 687 Q442 665 456 641 L445 590 L358 590 Q354 608 336.5 619.5 Q319 631 292 631 Q269 631 249.5 622.5 Q230 614 221 603 Z M190 457 L172 373 Q175 362 191 354 Q207 346 231 346 Q254 346 273 354 Q292 362 302 373 L319 449 Q314 460 298 468 Q282 476 258 476 Q222 476 190 457 Z M909 215 Q946 192 955 164 L935 71 Q913 39 868 15 Q823 -9 757 -9 Q692 -9 650.5 15.5 Q609 40 597 71 L618 164 Q642 199 687 222 Q662 236 648 257 L672 364 Q688 386 730 407.5 Q772 429 835 429 Q898 429 935.5 407.5 Q973 386 986 364 L963 257 Q945 232 909 215 Z M747 273 Q753 264 768 257 Q783 250 805 250 Q827 250 844.5 257 Q862 264 871 273 L884 331 Q877 340 862.5 347 Q848 354 827 354 Q805 354 787.5 347 Q770 340 760 331 L747 273 Z M850 158 Q847 168 830.5 176 Q814 184 791 184 Q768 184 748.5 176.5 Q729 169 719 158 L706 93 Q710 82 726.5 74 Q743 66 766 66 Q789 66 808.5 74 Q828 82 837 93 L850 158 Z " />
<glyph glyph-name="uniE001" unicode="&#xe001;" horiz-adv-x="1264" d="M230 348 L297 348 L284 280 L44 280 L57 348 L127 348 L185 616 L113 611 L126 673 L220 700 L306 700 L230 348 Z M1008 323 L991 242 Q1031 266 1082 266 Q1132 266 1164.5 248 Q1197 230 1209 204 L1178 59 Q1158 33 1117 12 Q1076 -9 1011 -9 Q947 -9 905 16.5 Q863 42 851 71 L911 349 Q933 381 978.5 405 Q1024 429 1091 429 Q1153 429 1191 407 Q1229 385 1243 361 L1232 310 L1145 310 Q1141 328 1123.5 339.5 Q1106 351 1079 351 Q1056 351 1036.5 342.5 Q1017 334 1008 323 Z M977 177 L959 93 Q962 82 978 74 Q994 66 1018 66 Q1041 66 1060 74 Q1079 82 1089 93 L1106 169 Q1101 180 1085 188 Q1069 196 1045 196 Q1009 196 977 177 Z M793 640 L195 0 L115 0 L128 60 L726 700 L806 700 L793 640 Z M731 68 L798 68 L785 0 L545 0 L558 68 L628 68 L686 336 L614 331 L627 393 L721 420 L807 420 L731 68 Z " />
<glyph glyph-name="percent" unicode="&#x25;" horiz-adv-x="906" d="M454 618 L415 436 Q392 398 347.5 371.5 Q303 345 237 345 Q171 345 130.5 372 Q90 399 79 436 L118 618 Q142 656 186.5 682.5 Q231 709 297 709 Q363 709 403.5 682 Q444 655 454 618 Z M804 640 L192 0 L125 0 L138 60 L750 700 L816 700 L804 640 Z M218 603 L186 451 Q190 438 205.5 429 Q221 420 244 420 Q268 420 287 429 Q306 438 315 451 L348 603 Q344 617 328.5 626 Q313 635 290 635 Q267 635 247 625.5 Q227 616 218 603 Z M861 264 L821 82 Q799 44 754.5 17.5 Q710 -9 644 -9 Q578 -9 537 18 Q496 45 485 82 L525 264 Q548 302 593 329 Q638 356 703 356 Q770 356 810 328.5 Q850 301 861 264 Z M624 249 L592 97 Q596 84 612 75 Q628 66 651 66 Q674 66 693 75 Q712 84 722 97 L754 249 Q750 263 735 272 Q720 281 696 281 Q673 281 653.5 272 Q634 263 624 249 Z " />
<glyph glyph-name="perthousand" unicode="&#x2030;" horiz-adv-x="1294" d="M454 618 L415 436 Q392 398 347.5 371.5 Q303 345 237 345 Q171 345 130.5 372 Q90 399 79 436 L118 618 Q142 656 186.5 682.5 Q231 709 297 709 Q363 709 403.5 682 Q444 655 454 618 Z M804 640 L192 0 L125 0 L138 60 L750 700 L816 700 L804 640 Z M218 603 L186 451 Q190 438 205.5 429 Q221 420 244 420 Q268 420 287 429 Q306 438 315 451 L348 603 Q344 617 328.5 626 Q313 635 290 635 Q267 635 247 625.5 Q227 616 218 603 Z M861 264 L821 82 Q799 44 754.5 17.5 Q710 -9 644 -9 Q578 -9 537 18 Q496 45 485 82 L525 264 Q548 302 593 329 Q638 356 703 356 Q770 356 810 328.5 Q850 301 861 264 Z M1249 264 L1209 82 Q1187 44 1142.5 17.5 Q1098 -9 1032 -9 Q966 -9 925 18 Q884 45 873 82 L913 264 Q936 302 981 329 Q1026 356 1092 356 Q1158 356 1198.5 328.5 Q1239 301 1249 264 Z M624 249 L592 97 Q596 84 612 75 Q628 66 651 66 Q674 66 693 75 Q712 84 722 97 L754 249 Q750 263 735 272 Q720 281 696 281 Q673 281 653.5 272 Q634 263 624 249 Z M1013 249 L980 97 Q984 84 1000 75 Q1016 66 1039 66 Q1062 66 1081 75 Q1100 84 1110 97 L1142 249 Q1139 262 1123.5 271.5 Q1108 281 1084 281 Q1061 281 1042 272 Q1023 263 1013 249 Z " />
<glyph glyph-name="plus" unicode="&#x2b;" horiz-adv-x="586" d="M351 278 L351 76 L235 76 L235 278 L35 278 L35 392 L235 392 L235 593 L351 593 L351 392 L551 392 L551 278 L351 278 Z " />
<glyph glyph-name="minus" unicode="&#x2212;" horiz-adv-x="586" d="M47 278 L47 392 L563 392 L563 278 L47 278 Z " />
<glyph glyph-name="plusminus" unicode="&#xb1;" horiz-adv-x="586" d="M551 357 L351 357 L351 181 L235 181 L235 357 L35 357 L35 471 L235 471 L235 647 L351 647 L351 471 L551 471 L551 357 Z M551 132 L551 18 L35 18 L35 132 L551 132 Z " />
<glyph glyph-name="multiply" unicode="&#xd7;" horiz-adv-x="586" d="M388 335 L556 165 L556 90 L471 90 L308 253 L145 90 L57 90 L57 165 L226 335 L57 504 L57 580 L145 580 L308 416 L471 580 L556 580 L556 504 L388 335 Z " />
<glyph glyph-name="divide" unicode="&#xf7;" horiz-adv-x="586" d="M381 569 L381 494 Q375 479 355 467 Q335 455 304 455 Q275 455 255.5 467 Q236 479 228 494 L228 569 Q236 585 255.5 597 Q275 609 304 609 Q335 609 355 597 Q375 585 381 569 Z M563 278 L47 278 L47 392 L563 392 L563 278 Z M381 177 L381 103 Q375 87 355 75 Q335 63 304 63 Q275 63 255.5 75 Q236 87 228 103 L228 177 Q236 193 255.5 205 Q275 217 304 217 Q335 217 355 205 Q375 193 381 177 Z " />
<glyph glyph-name="equal" unicode="&#x3d;" horiz-adv-x="586" d="M47 172 L47 286 L563 286 L563 172 L47 172 Z M47 385 L47 499 L563 499 L563 385 L47 385 Z " />
<glyph glyph-name="notequal" unicode="&#x2260;" horiz-adv-x="586" d="M344 285 L563 285 L563 172 L300 172 L263 76 L148 76 L185 172 L48 172 L48 285 L229 285 L267 385 L48 385 L48 498 L311 498 L348 593 L463 593 L426 498 L563 498 L563 385 L382 385 L344 285 Z " />
<glyph glyph-name="approxequal" unicode="&#x2248;" horiz-adv-x="586" d="M327 286 Q366 274 395.5 267.5 Q425 261 454 261 Q483 261 508 271 Q533 281 549.5 292.5 Q566 304 566 305 L566 180 Q566 179 550.5 170 Q535 161 510.5 153.5 Q486 146 455 146 Q420 146 388.5 152.5 Q357 159 312 172 Q274 184 244.5 190.5 Q215 197 184 197 Q149 197 119 185.5 Q89 174 68.5 160.5 Q48 147 48 146 L48 266 Q48 267 67 279.5 Q86 292 117 302 Q148 312 186 312 Q219 312 251 305.5 Q283 299 327 286 Z M327 501 Q366 489 395.5 482.5 Q425 476 454 476 Q483 476 508 486 Q533 496 549.5 507.5 Q566 519 566 520 L566 395 Q566 394 550.5 385 Q535 376 510.5 368.5 Q486 361 455 361 Q420 361 388.5 367.5 Q357 374 312 387 Q274 399 244.5 405.5 Q215 412 184 412 Q149 412 119 400.5 Q89 389 68.5 375.5 Q48 362 48 361 L48 481 Q48 482 67 494.5 Q86 507 117 517 Q148 527 186 527 Q219 527 251 520.5 Q283 514 327 501 Z " />
<glyph glyph-name="less" unicode="&#x3c;" horiz-adv-x="586" d="M170 296 L549 128 L549 50 L446 50 L18 246 L18 346 L446 542 L549 542 L549 464 L170 296 Z " />
<glyph glyph-name="greater" unicode="&#x3e;" horiz-adv-x="586" d="M578 246 L151 50 L47 50 L47 128 L427 296 L47 464 L47 542 L151 542 L578 346 L578 246 Z " />
<glyph glyph-name="lessequal" unicode="&#x2264;" horiz-adv-x="586" d="M215 384 L552 262 L552 184 L448 184 L36 337 L36 412 L448 591 L552 591 L552 513 L215 384 Z M36 18 L36 132 L552 132 L552 18 L36 18 Z " />
<glyph glyph-name="greaterequal" unicode="&#x2265;" horiz-adv-x="586" d="M564 337 L152 184 L48 184 L48 262 L385 384 L48 513 L48 591 L152 591 L564 412 L564 337 Z M48 18 L48 132 L564 132 L564 18 L48 18 Z " />
<glyph glyph-name="logicalnot" unicode="&#xac;" horiz-adv-x="586" d="M548 76 L433 76 L433 278 L32 278 L32 392 L548 392 L548 76 Z " />
<glyph glyph-name="uni00AD" unicode="&#xad;" horiz-adv-x="366" d="M37 278 L61 392 L357 392 L333 278 L37 278 Z " />
<glyph glyph-name="Delta" unicode="&#x2206;" horiz-adv-x="626" d="M561 86 L543 0 L-32 0 L-14 86 L297 700 L512 700 L561 86 Z M402 118 L380 581 L377 581 L154 118 L402 118 Z " />
<glyph glyph-name="Omega" unicode="&#x2126;" horiz-adv-x="632" d="M435 118 L547 118 L522 0 L292 0 L326 162 Q355 167 379 185 Q403 203 416 225 L482 531 Q476 558 451 576 Q426 594 385 594 Q345 594 312.5 576 Q280 558 263 531 L196 225 Q200 204 216 186 Q232 168 259 162 L225 0 L-6 0 L19 118 L147 118 Q105 139 79 169.5 Q53 200 44 233 L115 562 Q150 624 222.5 669.5 Q295 715 402 715 Q474 715 525.5 691.5 Q577 668 605.5 633 Q634 598 643 562 L572 231 Q530 158 435 118 Z " />
<glyph glyph-name="mu" unicode="&#xb5;" horiz-adv-x="560" d="M567 542 L451 0 L318 0 L329 50 Q269 -12 185 -12 Q157 -12 133 -4 L133 -7 L99 -166 L-44 -166 L109 542 L251 542 L164 135 Q173 121 193 110.5 Q213 100 241 100 Q271 100 296 111 Q321 122 338 138 L425 542 L567 542 Z " />
<glyph glyph-name="pi" unicode="&#x3c0;" horiz-adv-x="625" d="M635 438 L575 438 L482 0 L339 0 L433 438 L262 438 L168 0 L25 0 L119 438 L60 438 L83 542 L658 542 L635 438 Z " />
<glyph glyph-name="degree" unicode="&#xb0;" horiz-adv-x="391" d="M457 720 L429 589 Q406 554 363 528 Q320 502 254 502 Q189 502 149.5 529.5 Q110 557 98 589 L127 720 Q149 754 193 780.5 Q237 807 302 807 Q367 807 407 779 Q447 751 457 720 Z M221 693 L203 616 Q208 603 223 593.5 Q238 584 262 584 Q310 584 334 616 L352 693 Q346 707 330.5 716 Q315 725 291 725 Q267 725 248.5 715.5 Q230 706 221 693 Z " />
<glyph glyph-name="infinity" unicode="&#x221e;" horiz-adv-x="789" d="M715 437 L715 271 Q701 234 657 207 Q613 180 547 180 Q493 180 459 198 Q425 216 402 246 Q349 180 254 180 Q188 180 145 207 Q102 234 86 271 L86 436 Q102 473 145 500.5 Q188 528 254 528 Q308 528 342 509.5 Q376 491 400 460 Q424 491 458.5 509.5 Q493 528 547 528 Q613 528 657 501 Q701 474 715 437 Z M325 288 L351 354 L325 419 Q319 432 299 441.5 Q279 451 255 451 Q232 451 214 441.5 Q196 432 190 419 L190 288 Q196 275 214 266 Q232 257 255 257 Q279 257 299 266 Q319 275 325 288 Z M611 420 Q605 433 587.5 442 Q570 451 547 451 Q524 451 505 442 Q486 433 480 420 L452 349 L476 288 Q483 275 503 266 Q523 257 547 257 Q571 257 588 266 Q605 275 611 288 L611 420 Z " />
<glyph glyph-name="partialdiff" unicode="&#x2202;" horiz-adv-x="560" d="M517 521 L517 121 Q494 68 434.5 26.5 Q375 -15 280 -15 Q186 -15 126.5 26 Q67 67 43 121 L43 341 Q53 373 79 403.5 Q105 434 146.5 454 Q188 474 241 474 Q286 474 316.5 463.5 Q347 453 374 434 L374 489 Q354 539 284 583 Q214 627 134 654 L207 734 Q311 705 399 647.5 Q487 590 517 521 Z M186 314 L186 147 Q196 125 220.5 109.5 Q245 94 280 94 Q315 94 339.5 109.5 Q364 125 374 147 L374 328 Q361 344 337 355 Q313 366 281 366 Q246 366 221 351 Q196 336 186 314 Z " />
<glyph glyph-name="integral" unicode="&#x222b;" horiz-adv-x="427" d="M406 702 L406 607 L361 607 Q325 607 308.5 596 Q292 585 284 569 L284 -86 Q269 -125 228.5 -153 Q188 -181 115 -181 Q85 -181 58.5 -177.5 Q32 -174 20 -169 L20 -74 L65 -74 Q101 -74 117.5 -63 Q134 -52 142 -37 L142 618 Q157 657 197.5 685.5 Q238 714 311 714 Q340 714 366.5 710 Q393 706 406 702 Z " />
<glyph glyph-name="radical" unicode="&#x221a;" horiz-adv-x="592" d="M609 624 L418 0 L251 0 L115 435 L61 435 L61 542 L224 542 L333 173 L336 173 L482 700 L609 700 L609 624 Z " />
<glyph glyph-name="summation" unicode="&#x2211;" horiz-adv-x="553" d="M395 349 L395 252 L243 14 L539 14 L539 -100 L58 -100 L58 -3 L246 301 L58 603 L58 700 L539 700 L539 586 L244 586 L395 349 Z " />
<glyph glyph-name="product" unicode="&#x220f;" horiz-adv-x="636" d="M441 -100 L441 586 L230 586 L230 -100 L76 -100 L76 700 L595 700 L595 -100 L441 -100 Z " />
<glyph glyph-name="lozenge" unicode="&#x25ca;" horiz-adv-x="599" d="M395 0 L239 0 L52 350 L239 700 L395 700 L582 350 L395 0 Z M317 154 L426 350 L317 546 L208 350 L317 154 Z " />
<glyph glyph-name="arrowleft" unicode="&#x2190;" horiz-adv-x="760" d="M14 386 L327 700 L423 700 L423 612 L210 408 L774 408 L774 292 L210 292 L423 88 L423 0 L327 0 L14 313 L14 386 Z " />
<glyph glyph-name="arrowright" unicode="&#x2192;" horiz-adv-x="760" d="M778 313 L465 0 L369 0 L369 88 L582 292 L18 292 L18 408 L582 408 L369 612 L369 700 L465 700 L778 386 L778 313 Z " />
<glyph glyph-name="arrowup" unicode="&#x2191;" horiz-adv-x="760" d="M751 363 L666 363 L468 565 L468 0 L335 0 L335 565 L136 363 L51 363 L51 447 L365 760 L438 760 L751 447 L751 363 Z " />
<glyph glyph-name="arrowdown" unicode="&#x2193;" horiz-adv-x="760" d="M728 253 L415 -60 L342 -60 L28 253 L28 337 L113 337 L312 135 L312 700 L445 700 L445 135 L643 337 L728 337 L728 253 Z " />
<glyph glyph-name="uni0410" unicode="&#x410;" horiz-adv-x="626" d="M561 86 L543 0 L410 0 L401 166 L179 166 L100 0 L-32 0 L-14 86 L297 700 L512 700 L561 86 Z M395 284 L379 581 L376 581 L235 284 L395 284 Z " />
<glyph glyph-name="uni0411" unicode="&#x411;" horiz-adv-x="593" d="M280 584 L249 437 L373 437 Q442 437 496 405.5 Q550 374 569 322 L525 119 Q491 65 433.5 32.5 Q376 0 305 0 L1 0 L151 700 L636 700 L611 584 L280 584 Z M224 323 L179 114 L285 114 Q322 114 348 127.5 Q374 141 394 166 L417 274 Q411 296 387 309.5 Q363 323 329 323 L224 323 Z " />
<glyph glyph-name="uni0412" unicode="&#x412;" horiz-adv-x="603" d="M496 365 Q519 354 539 336 Q559 318 567 295 L529 119 Q498 68 439 34 Q380 0 310 0 L1 0 L151 700 L419 700 Q497 700 548.5 664.5 Q600 629 616 581 L587 441 Q573 417 547.5 396.5 Q522 376 496 365 Z M466 537 Q451 585 377 585 L280 585 L244 413 L352 413 Q382 413 407 425.5 Q432 438 450 463 L466 537 Z M419 263 Q411 285 387 297.5 Q363 310 328 310 L222 310 L180 115 L284 115 Q326 115 353.5 128.5 Q381 142 399 168 L419 263 Z " />
<glyph glyph-name="uni0413" unicode="&#x413;" horiz-adv-x="514" d="M556 584 L280 584 L155 0 L1 0 L151 700 L580 700 L556 584 Z " />
<glyph glyph-name="uni0414" unicode="&#x414;" horiz-adv-x="715" d="M576 116 L655 116 L602 -130 L473 -130 L501 0 L96 0 L67 -130 L-63 -130 L-9 116 Q22 124 55 144.5 Q88 165 102 187 L273 700 L700 700 L576 116 Z M422 116 L522 584 L376 584 L238 164 Q217 136 181 116 L422 116 Z " />
<glyph glyph-name="uni0415" unicode="&#x415;" horiz-adv-x="538" d="M558 582 L280 582 L244 417 L504 417 L479 299 L219 299 L180 118 L466 118 L440 0 L1 0 L151 700 L583 700 L558 582 Z " />
<glyph glyph-name="uni0416" unicode="&#x416;" horiz-adv-x="885" d="M730 373 L816 86 L798 0 L676 0 L593 305 L522 305 L457 0 L312 0 L377 305 L315 305 L103 0 L-29 0 L-11 86 L197 373 L109 614 L127 700 L239 700 L331 421 L402 421 L461 700 L607 700 L547 421 L611 421 L818 700 L941 700 L922 614 L730 373 Z " />
<glyph glyph-name="uni0417" unicode="&#x417;" horiz-adv-x="598" d="M617 581 L589 450 Q549 387 476 352 Q506 333 524 309 Q542 285 549 263 L517 119 Q482 64 416 24.5 Q350 -15 245 -15 Q173 -15 123 7 Q73 29 46 59.5 Q19 90 8 119 L24 189 L153 189 Q158 149 185 126 Q212 103 259 103 Q299 103 330.5 119.5 Q362 136 377 159 L395 242 Q390 265 364 282 Q338 299 290 299 L210 299 L214 318 L235 415 L329 415 Q372 415 400.5 431.5 Q429 448 444 471 L460 541 Q453 564 429 580.5 Q405 597 365 597 Q318 597 281.5 573 Q245 549 227 511 L92 511 L107 581 Q141 633 209 674 Q277 715 382 715 Q453 715 503 693 Q553 671 580 640 Q607 609 617 581 Z " />
<glyph glyph-name="uni0418" unicode="&#x418;" horiz-adv-x="667" d="M407 0 L507 466 L504 466 L157 0 L1 0 L151 700 L294 700 L194 233 L197 233 L544 700 L700 700 L550 0 L407 0 Z " />
<glyph glyph-name="uni0419" unicode="&#x419;" horiz-adv-x="667" d="M407 0 L507 466 L504 466 L157 0 L1 0 L151 700 L294 700 L194 233 L197 233 L544 700 L700 700 L550 0 L407 0 Z M622 827 Q599 788 554.5 763.5 Q510 739 446 739 Q380 739 338 764 Q296 789 282 827 L296 888 L400 888 L391 850 Q394 838 408 827 Q422 816 450 816 Q478 816 496 826.5 Q514 837 523 850 L531 888 L636 888 L622 827 Z " />
<glyph glyph-name="uni041A" unicode="&#x41a;" horiz-adv-x="595" d="M416 367 L526 86 L508 0 L392 0 L282 305 L214 305 L148 0 L-6 0 L144 700 L298 700 L239 421 L298 421 L525 700 L650 700 L632 614 L416 367 Z " />
<glyph glyph-name="uni041B" unicode="&#x41b;" horiz-adv-x="659" d="M542 0 L388 0 L513 584 L368 584 L204 84 Q165 31 111 13.5 Q57 -4 -38 -4 L-14 114 Q18 114 44 126.5 Q70 139 84 157 L263 700 L692 700 L542 0 Z " />
<glyph glyph-name="uni041C" unicode="&#x41c;" horiz-adv-x="769" d="M508 0 L611 479 L608 479 L402 156 L317 156 L250 479 L247 479 L144 0 L1 0 L151 700 L335 700 L402 369 L405 369 L609 700 L802 700 L653 0 L508 0 Z " />
<glyph glyph-name="uni041D" unicode="&#x41d;" horiz-adv-x="655" d="M538 0 L384 0 L448 302 L219 302 L155 0 L1 0 L151 700 L305 700 L245 420 L473 420 L533 700 L687 700 L538 0 Z " />
<glyph glyph-name="uni041E" unicode="&#x41e;" horiz-adv-x="626" d="M640 562 L549 139 Q510 73 441.5 29 Q373 -15 266 -15 Q193 -15 140.5 8.5 Q88 32 58.5 67 Q29 102 21 139 L112 562 Q149 626 218.5 670.5 Q288 715 394 715 Q467 715 520 691.5 Q573 668 602.5 633 Q632 598 640 562 Z M259 530 L182 170 Q186 143 213 124.5 Q240 106 281 106 Q322 106 352 124 Q382 142 401 170 L479 530 Q473 557 446.5 576 Q420 595 379 595 Q338 595 307 576.5 Q276 558 259 530 Z " />
<glyph glyph-name="uni041F" unicode="&#x41f;" horiz-adv-x="649" d="M532 0 L378 0 L503 582 L280 582 L155 0 L1 0 L151 700 L682 700 L532 0 Z " />
<glyph glyph-name="uni0420" unicode="&#x420;" horiz-adv-x="590" d="M621 581 L577 375 Q537 314 479 285 Q421 256 343 256 L210 256 L155 0 L1 0 L151 700 L412 700 Q491 700 543.5 670 Q596 640 621 581 Z M463 534 Q454 558 431 570.5 Q408 583 378 583 L280 583 L235 373 L329 373 Q367 373 394 385.5 Q421 398 440 426 L463 534 Z " />
<glyph glyph-name="uni0421" unicode="&#x421;" horiz-adv-x="606" d="M637 573 L621 501 L491 501 Q489 542 460 568.5 Q431 595 381 595 Q341 595 309.5 577 Q278 559 259 530 L182 170 Q187 143 214 124.5 Q241 106 283 106 Q377 106 422 199 L557 199 L540 127 Q507 68 441 26.5 Q375 -15 269 -15 Q196 -15 142.5 8.5 Q89 32 59 67 Q29 102 21 138 L112 562 Q146 625 216.5 670 Q287 715 394 715 Q466 715 517.5 692.5 Q569 670 598 637.5 Q627 605 637 573 Z " />
<glyph glyph-name="uni0422" unicode="&#x422;" horiz-adv-x="544" d="M585 582 L416 582 L291 0 L137 0 L262 582 L91 582 L117 700 L610 700 L585 582 Z " />
<glyph glyph-name="uni0423" unicode="&#x423;" horiz-adv-x="577" d="M638 700 L619 614 L288 69 Q245 25 197 9 Q149 -7 83 -7 Q47 -7 23 -1 L46 109 Q68 107 84 107 Q143 107 178 137 L206 185 L104 614 L123 700 L241 700 L313 352 L510 700 L638 700 Z " />
<glyph glyph-name="uni0424" unicode="&#x424;" horiz-adv-x="779" d="M782 505 L715 195 Q672 129 599.5 91 Q527 53 452 53 L411 53 L391 -40 L256 -40 L276 53 L251 53 Q203 53 157.5 72 Q112 91 79 123.5 Q46 156 33 195 L100 505 Q140 569 214 608 Q288 647 362 647 L403 647 L423 740 L558 740 L539 647 L564 647 Q612 647 658 628 Q704 609 737 576.5 Q770 544 782 505 Z M301 167 L379 533 L360 533 Q327 533 291 516.5 Q255 500 234 476 L180 224 Q191 199 219 183 Q247 167 281 167 L301 167 Z M634 476 Q625 501 596.5 517 Q568 533 534 533 L514 533 L436 167 L456 167 Q490 167 525.5 183 Q561 199 580 224 L634 476 Z " />
<glyph glyph-name="uni0425" unicode="&#x425;" horiz-adv-x="597" d="M414 356 L521 86 L503 0 L377 0 L299 257 L296 257 L109 0 L-22 0 L-4 86 L217 359 L115 614 L133 700 L257 700 L334 454 L337 454 L516 700 L647 700 L628 614 L414 356 Z " />
<glyph glyph-name="uni0426" unicode="&#x426;" horiz-adv-x="689" d="M631 116 L577 -130 L448 -130 L476 0 L1 0 L151 700 L305 700 L180 116 L396 116 L521 700 L675 700 L550 116 L631 116 Z " />
<glyph glyph-name="uni0427" unicode="&#x427;" horiz-adv-x="632" d="M664 700 L515 0 L361 0 L417 265 Q354 231 282 231 Q224 231 178.5 246.5 Q133 262 105 287 Q77 312 67 339 L145 700 L299 700 L232 386 Q240 369 263.5 355.5 Q287 342 324 342 Q358 342 389 353 Q420 364 442 380 L510 700 L664 700 Z " />
<glyph glyph-name="uni0428" unicode="&#x428;" horiz-adv-x="923" d="M1 0 L151 700 L305 700 L180 116 L352 116 L477 700 L631 700 L506 116 L677 116 L802 700 L956 700 L806 0 L1 0 Z " />
<glyph glyph-name="uni0429" unicode="&#x429;" horiz-adv-x="971" d="M912 116 L859 -130 L729 -130 L757 0 L1 0 L151 700 L305 700 L180 116 L352 116 L477 700 L631 700 L506 116 L677 116 L802 700 L956 700 L831 116 L912 116 Z " />
<glyph glyph-name="uni042A" unicode="&#x42a;" horiz-adv-x="684" d="M660 328 L615 119 Q582 67 524.5 33.5 Q467 0 394 0 L91 0 L216 586 L93 586 L117 700 L395 700 L340 444 L468 444 Q532 444 586.5 411.5 Q641 379 660 328 Z M510 282 Q501 304 478 317 Q455 330 424 330 L315 330 L269 114 L373 114 Q410 114 436.5 128.5 Q463 143 484 168 L510 282 Z " />
<glyph glyph-name="uni042B" unicode="&#x42b;" horiz-adv-x="837" d="M250 444 L365 444 Q429 444 483.5 411.5 Q538 379 557 328 L512 119 Q479 67 421.5 33.5 Q364 0 291 0 L1 0 L151 700 L305 700 L250 444 Z M720 0 L566 0 L716 700 L870 700 L720 0 Z M225 330 L179 114 L270 114 Q307 114 333.5 128.5 Q360 143 381 168 L407 282 Q398 304 375 317 Q352 330 321 330 L225 330 Z " />
<glyph glyph-name="uni042C" unicode="&#x42c;" horiz-adv-x="595" d="M250 444 L378 444 Q442 444 496.5 411.5 Q551 379 570 328 L525 119 Q492 67 434.5 33.5 Q377 0 304 0 L1 0 L151 700 L305 700 L250 444 Z M225 330 L179 114 L283 114 Q320 114 346.5 128.5 Q373 143 395 168 L420 282 Q411 304 388 317 Q365 330 334 330 L225 330 Z " />
<glyph glyph-name="uni042D" unicode="&#x42d;" horiz-adv-x="615" d="M628 562 L537 138 Q503 75 432.5 30 Q362 -15 255 -15 Q183 -15 131.5 7.5 Q80 30 51 62.5 Q22 95 12 127 L28 199 L158 199 Q160 158 189 131.5 Q218 105 268 105 Q308 105 339.5 123 Q371 141 390 170 L418 302 L208 302 L232 413 L442 413 L467 530 Q462 557 434.5 575.5 Q407 594 366 594 Q272 594 227 501 L92 501 L108 573 Q141 632 207.5 673.5 Q274 715 380 715 Q453 715 506.5 691.5 Q560 668 590 633 Q620 598 628 562 Z " />
<glyph glyph-name="uni042E" unicode="&#x42e;" horiz-adv-x="887" d="M900 562 L809 139 Q771 75 703 30 Q635 -15 531 -15 Q459 -15 408.5 9 Q358 33 330.5 68 Q303 103 295 139 L330 300 L219 300 L155 0 L1 0 L151 700 L305 700 L244 416 L355 416 L386 562 Q424 626 491.5 670.5 Q559 715 664 715 Q736 715 786 691.5 Q836 668 863.5 633 Q891 598 900 562 Z M740 533 Q733 561 710 579 Q687 597 648 597 Q610 597 580.5 579.5 Q551 562 534 533 L455 168 Q461 140 484.5 121.5 Q508 103 547 103 Q585 103 614.5 121 Q644 139 661 168 L740 533 Z " />
<glyph glyph-name="uni042F" unicode="&#x42f;" horiz-adv-x="612" d="M645 700 L495 0 L341 0 L398 269 L326 269 L119 0 L-12 0 L6 86 L174 287 Q138 302 112 328.5 Q86 355 72 389 L113 581 Q154 637 212.5 668.5 Q271 700 336 700 L645 700 Z M466 584 L362 584 Q325 584 296 570 Q267 556 248 531 L227 430 Q235 406 258.5 393 Q282 380 319 380 L423 380 L466 584 Z " />
<glyph glyph-name="uni0490" unicode="&#x490;" horiz-adv-x="499" d="M541 584 L280 584 L155 0 L1 0 L151 700 L436 700 L461 814 L591 814 L541 584 Z " />
<glyph glyph-name="uni0406" unicode="&#x406;" horiz-adv-x="272" d="M155 0 L1 0 L151 700 L305 700 L155 0 Z " />
<glyph glyph-name="uni0402" unicode="&#x402;" horiz-adv-x="713" d="M693 343 L642 106 Q608 56 544.5 27 Q481 -2 393 -2 L357 -2 L381 111 Q422 111 453 124 Q484 137 499 154 L529 294 Q521 311 497 324 Q473 337 433 337 Q402 337 372 326.5 Q342 316 319 300 L255 0 L101 0 L226 584 L92 584 L117 700 L583 700 L559 584 L380 584 L345 420 Q405 451 480 451 Q565 451 620.5 418.5 Q676 386 693 343 Z " />
<glyph glyph-name="uni0452" unicode="&#x452;" horiz-adv-x="579" d="M561 410 L463 -46 Q433 -106 366 -143 Q299 -180 198 -180 L220 -71 Q254 -71 284 -52.5 Q314 -34 328 -9 L411 377 Q404 393 385 406 Q366 419 332 419 Q300 419 274 408 Q248 397 231 380 L150 0 L8 0 L131 577 L90 577 L107 652 L147 652 L157 700 L300 700 L290 652 L448 652 L431 577 L273 577 L253 481 Q315 531 393 531 Q445 531 481 512 Q517 493 536.5 465 Q556 437 561 410 Z " />
<glyph glyph-name="uni0403" unicode="&#x403;" horiz-adv-x="514" d="M556 584 L280 584 L155 0 L1 0 L151 700 L580 700 L556 584 Z M398 747 L294 747 L297 763 L381 907 L514 907 L500 845 L398 747 Z " />
<glyph glyph-name="uni0453" unicode="&#x453;" horiz-adv-x="449" d="M458 437 L229 437 L136 0 L-7 0 L109 542 L481 542 L458 437 Z M350 604 L237 604 L240 619 L327 767 L466 767 L451 705 L350 604 Z " />
<glyph glyph-name="uni0456" unicode="&#x456;" horiz-adv-x="250" d="M139 0 L-4 0 L112 542 L255 542 L139 0 Z " />
<glyph glyph-name="uni0491" unicode="&#x491;" horiz-adv-x="456" d="M461 437 L229 437 L136 0 L-7 0 L109 542 L364 542 L382 628 L502 628 L461 437 Z " />
<glyph glyph-name="uni0408" unicode="&#x408;" horiz-adv-x="387" d="M303 139 Q224 -2 30 -2 Q-16 -2 -38 0 L-13 117 L25 117 Q113 117 158 179 L269 700 L423 700 L303 139 Z " />
<glyph glyph-name="uni0404" unicode="&#x404;" horiz-adv-x="615" d="M259 530 L234 413 L443 413 L419 302 L210 302 L182 170 Q187 143 214 124.5 Q241 106 283 106 Q377 106 422 199 L557 199 L540 127 Q507 68 441 26.5 Q375 -15 269 -15 Q196 -15 142.5 8.5 Q89 32 59 67 Q29 102 21 138 L112 562 Q146 625 216.5 670 Q287 715 394 715 Q466 715 517.5 692.5 Q569 670 598 637.5 Q627 605 637 573 L621 501 L491 501 Q489 542 460 568.5 Q431 595 381 595 Q341 595 309.5 577 Q278 559 259 530 Z " />
<glyph glyph-name="uni0454" unicode="&#x454;" horiz-adv-x="540" d="M212 392 L197 321 L373 321 L352 226 L176 226 L159 148 Q165 126 187.5 111.5 Q210 97 245 97 Q284 97 312.5 115 Q341 133 362 168 L484 168 L471 101 Q442 57 384 21 Q326 -15 233 -15 Q168 -15 120 6 Q72 27 45 58.5 Q18 90 11 121 L76 421 Q107 476 170.5 516.5 Q234 557 329 557 Q393 557 439 537 Q485 517 510.5 489.5 Q536 462 543 439 L529 374 L409 374 Q405 408 380 426.5 Q355 445 315 445 Q281 445 254 429.5 Q227 414 212 392 Z " />
<glyph glyph-name="uni0407" unicode="&#x407;" horiz-adv-x="272" d="M230 850 L215 778 Q202 766 185 757.5 Q168 749 140 749 Q95 749 76 778 L91 850 Q106 863 122.5 871 Q139 879 167 879 Q211 879 230 850 Z M430 850 L415 778 Q402 766 385 757.5 Q368 749 339 749 Q295 749 276 778 L291 850 Q306 863 322.5 871 Q339 879 366 879 Q414 879 430 850 Z M155 0 L1 0 L151 700 L305 700 L155 0 Z " />
<glyph glyph-name="uni0457" unicode="&#x457;" horiz-adv-x="286" d="M210 714 L194 636 Q179 624 162.5 616 Q146 608 118 608 Q76 608 55 636 L72 714 Q103 742 146 742 Q194 742 210 714 Z M405 714 L388 636 Q357 608 313 608 Q271 608 250 636 L267 714 Q298 742 341 742 Q389 742 405 714 Z M156 0 L13 0 L129 542 L272 542 L156 0 Z " />
<glyph glyph-name="uni0409" unicode="&#x409;" horiz-adv-x="982" d="M958 328 L913 119 Q880 68 823 34 Q766 0 693 0 L389 0 L514 584 L370 584 L205 84 Q166 31 112 13.5 Q58 -4 -37 -4 L-12 114 Q20 114 46 126.5 Q72 139 85 157 L265 700 L693 700 L638 444 L766 444 Q830 444 884.5 411.5 Q939 379 958 328 Z M808 282 Q799 304 776 317 Q753 330 722 330 L613 330 L567 114 L671 114 Q708 114 734.5 128.5 Q761 143 783 168 L808 282 Z " />
<glyph glyph-name="uni0459" unicode="&#x459;" horiz-adv-x="851" d="M822 267 L783 93 Q718 0 601 0 L321 0 L415 437 L296 437 L179 78 Q142 31 92.5 13.5 Q43 -4 -43 -4 L-21 104 Q8 104 31.5 115.5 Q55 127 66 144 L199 542 L580 542 L541 360 L657 360 Q718 360 760 334 Q802 308 822 267 Z M677 219 Q671 234 653.5 245 Q636 256 608 256 L519 256 L487 104 L570 104 Q623 104 661 144 L677 219 Z " />
<glyph glyph-name="uni040A" unicode="&#x40a;" horiz-adv-x="966" d="M941 328 L896 119 Q863 68 806 34 Q749 0 676 0 L372 0 L443 329 L284 329 L214 0 L60 0 L209 700 L363 700 L308 444 L467 444 L522 700 L676 700 L621 444 L749 444 Q813 444 867.5 411.5 Q922 379 941 328 Z M791 282 Q782 304 759 317 Q736 330 705 330 L596 330 L550 114 L654 114 Q691 114 717.5 128.5 Q744 143 766 168 L791 282 Z " />
<glyph glyph-name="uni045A" unicode="&#x45a;" horiz-adv-x="850" d="M819 264 L782 93 Q716 0 600 0 L321 0 L375 252 L190 252 L136 0 L-7 0 L109 542 L252 542 L213 356 L397 356 L437 542 L580 542 L541 356 L655 356 Q716 356 758 330 Q800 304 819 264 Z M674 215 Q669 230 651 241 Q633 252 606 252 L518 252 L487 104 L569 104 Q621 104 659 144 L674 215 Z " />
<glyph glyph-name="uni0458" unicode="&#x458;" horiz-adv-x="244" d="M125 -46 Q95 -106 28 -143 Q-39 -180 -140 -180 L-117 -71 Q-83 -71 -53 -52.5 Q-23 -34 -9 -8 L108 542 L251 542 L125 -46 Z M294 705 L280 643 Q270 627 247.5 615.5 Q225 604 195 604 Q165 604 147.5 615.5 Q130 627 127 643 L141 705 Q150 720 173 732 Q196 744 225 744 Q255 744 272.5 732.5 Q290 721 294 705 Z " />
<glyph glyph-name="uni0405" unicode="&#x405;" horiz-adv-x="592" d="M608 591 L593 519 L463 519 Q457 553 432 574 Q407 595 361 595 Q327 595 300 580.5 Q273 566 257 546 L240 469 Q245 455 258.5 446.5 Q272 438 310 426 L372 407 Q457 383 494 354.5 Q531 326 550 284 L515 119 Q426 -15 248 -15 Q175 -15 122.5 6.5 Q70 28 41.5 59 Q13 90 4 119 L20 191 L150 191 Q155 152 184.5 129 Q214 106 262 106 Q302 106 331 122.5 Q360 139 377 164 L393 238 Q388 255 370.5 266.5 Q353 278 314 290 L248 310 Q171 331 136.5 356.5 Q102 382 82 423 L118 591 Q152 641 218 678 Q284 715 381 715 Q447 715 495.5 695.5 Q544 676 572 647.5 Q600 619 608 591 Z " />
<glyph glyph-name="uni040B" unicode="&#x40b;" horiz-adv-x="684" d="M559 584 L380 584 L347 432 L466 432 Q530 432 583.5 399.5 Q637 367 655 316 L588 0 L446 0 L504 271 Q496 292 472.5 305 Q449 318 416 318 L323 318 L255 0 L101 0 L226 584 L92 584 L117 700 L583 700 L559 584 Z " />
<glyph glyph-name="uni045B" unicode="&#x45b;" horiz-adv-x="579" d="M561 410 L473 0 L330 0 L410 377 Q404 393 383.5 406 Q363 419 330 419 Q270 419 232 383 L150 0 L8 0 L131 577 L90 577 L107 652 L147 652 L157 700 L300 700 L290 652 L448 652 L431 577 L273 577 L253 482 Q316 531 393 531 Q445 531 481.5 512 Q518 493 537 465 Q556 437 561 410 Z " />
<glyph glyph-name="uni040C" unicode="&#x40c;" horiz-adv-x="595" d="M416 367 L526 86 L508 0 L392 0 L282 305 L214 305 L148 0 L-6 0 L144 700 L298 700 L239 421 L298 421 L525 700 L650 700 L632 614 L416 367 Z M439 747 L335 747 L338 763 L422 907 L555 907 L541 845 L439 747 Z " />
<glyph glyph-name="uni045C" unicode="&#x45c;" horiz-adv-x="525" d="M368 280 L461 79 L444 0 L346 0 L244 225 L184 225 L136 0 L-7 0 L109 542 L252 542 L207 330 L259 330 L445 542 L555 542 L539 464 L368 280 Z M387 604 L274 604 L277 619 L364 767 L503 767 L488 705 L387 604 Z " />
<glyph glyph-name="uni0455" unicode="&#x455;" horiz-adv-x="505" d="M504 461 L491 402 L374 402 Q367 424 344 438 Q321 452 288 452 Q260 452 238.5 442.5 Q217 433 206 420 L195 369 Q203 347 256 334 L305 322 Q378 304 413 280.5 Q448 257 462 229 L431 89 Q402 48 347.5 16.5 Q293 -15 206 -15 Q115 -15 63.5 18.5 Q12 52 -6 89 L8 148 L127 148 Q136 119 159.5 104.5 Q183 90 218 90 Q248 90 271.5 101 Q295 112 308 129 L320 180 Q311 204 257 217 L208 229 Q135 246 102.5 269 Q70 292 53 323 L82 461 Q108 496 163.5 526.5 Q219 557 303 557 Q386 557 436 526 Q486 495 504 461 Z " />
<glyph glyph-name="uni040E" unicode="&#x40e;" horiz-adv-x="572" d="M569 827 Q546 788 501.5 763.5 Q457 739 393 739 Q327 739 285 764 Q243 789 229 827 L243 888 L347 888 L338 850 Q341 838 355 827 Q369 816 397 816 Q425 816 443 826.5 Q461 837 470 850 L478 888 L583 888 L569 827 Z M638 700 L619 614 L288 69 Q245 25 197 9 Q149 -7 83 -7 Q47 -7 23 -1 L46 109 Q68 107 84 107 Q143 107 178 137 L206 185 L104 614 L123 700 L241 700 L313 352 L510 700 L638 700 Z " />
<glyph glyph-name="uni045E" unicode="&#x45e;" horiz-adv-x="528" d="M425 542 L557 542 L541 464 L234 -99 Q198 -139 149 -157 Q100 -175 31 -175 Q5 -175 -18.5 -172.5 Q-42 -170 -53 -166 L-31 -64 Q-13 -67 14 -67 Q82 -67 121 -32 L142 9 L71 463 L88 542 L209 542 L245 184 L248 184 L425 542 Z M520 684 Q497 645 451.5 620.5 Q406 596 343 596 Q277 596 235.5 620.5 Q194 645 180 684 L193 744 L298 744 L289 706 Q291 694 305.5 683 Q320 672 347 672 Q376 672 394 682.5 Q412 693 420 706 L429 744 L533 744 L520 684 Z " />
<glyph glyph-name="uni040F" unicode="&#x40f;" horiz-adv-x="644" d="M329 0 L301 -128 L172 -128 L199 0 L1 0 L151 700 L305 700 L180 116 L398 116 L523 700 L677 700 L527 0 L329 0 Z " />
<glyph glyph-name="uni045F" unicode="&#x45f;" horiz-adv-x="571" d="M462 0 L288 0 L263 -118 L143 -118 L168 0 L-7 0 L109 542 L252 542 L159 105 L341 105 L435 542 L578 542 L462 0 Z " />
<glyph glyph-name="uni0401" unicode="&#x401;" horiz-adv-x="538" d="M558 582 L280 582 L244 417 L504 417 L479 299 L219 299 L180 118 L466 118 L440 0 L1 0 L151 700 L583 700 L558 582 Z M367 860 L350 781 Q321 752 274 752 Q229 752 210 781 L227 860 Q258 888 303 888 Q348 888 367 860 Z M583 860 L566 781 Q540 752 490 752 Q445 752 426 781 L443 860 Q474 888 519 888 Q564 888 583 860 Z " />
<glyph glyph-name="uni0451" unicode="&#x451;" horiz-adv-x="548" d="M543 438 L499 234 L178 234 L160 146 Q165 124 187.5 109 Q210 94 245 94 Q320 94 358 165 L484 165 L471 102 Q443 57 384 21 Q325 -15 231 -15 Q166 -15 118.5 6 Q71 27 44.5 58.5 Q18 90 11 121 L76 421 Q107 476 170.5 516.5 Q234 557 330 557 Q394 557 439.5 536.5 Q485 516 510.5 488.5 Q536 461 543 438 Z M212 394 L199 330 L387 330 L401 396 Q396 418 373 433 Q350 448 315 448 Q281 448 254.5 432.5 Q228 417 212 394 Z M341 714 L323 632 Q292 604 247 604 Q202 604 183 632 L201 714 Q211 724 230 733 Q249 742 277 742 Q322 742 341 714 Z M559 714 L541 632 Q510 604 465 604 Q437 604 422 613 Q407 622 401 632 L419 714 Q428 724 447.5 733 Q467 742 495 742 Q523 742 536.5 734 Q550 726 559 714 Z " />
<glyph glyph-name="uni044F" unicode="&#x44f;" horiz-adv-x="554" d="M560 542 L444 0 L302 0 L342 189 L277 189 L111 0 L-12 0 L4 77 L133 204 Q106 216 85 236 Q64 256 52 282 L88 450 Q118 491 164.5 516.5 Q211 542 260 542 L560 542 Z M395 437 L299 437 Q247 437 211 397 L196 325 Q203 309 222 298 Q241 287 273 287 L364 287 L395 437 Z " />
<glyph glyph-name="uni0430" unicode="&#x430;" horiz-adv-x="555" d="M540 421 L449 0 L312 0 L321 41 Q254 -15 173 -15 Q121 -15 83.5 -0.5 Q46 14 25.5 33.5 Q5 53 -2 69 L34 239 Q56 272 105 300.5 Q154 329 225 329 L377 329 L391 393 Q386 415 364 430 Q342 445 308 445 Q238 445 204 388 L77 388 L92 453 Q119 490 174.5 523.5 Q230 557 322 557 Q387 557 433.5 535.5 Q480 514 506.5 483 Q533 452 540 421 Z M228 86 Q260 86 287.5 98 Q315 110 334 128 L356 233 L260 233 Q203 233 165 198 L149 121 Q156 108 176 97 Q196 86 228 86 Z " />
<glyph glyph-name="uni0431" unicode="&#x431;" horiz-adv-x="551" d="M592 715 L570 610 Q548 587 503 574.5 Q458 562 380 552 Q270 538 226 494 L212 429 Q276 475 349 475 Q403 475 441.5 454 Q480 433 500.5 403 Q521 373 526 344 L478 121 Q444 64 384 24.5 Q324 -15 229 -15 Q134 -15 81 27 Q28 69 14 121 L105 544 Q167 631 343 665 Q413 678 443.5 688.5 Q474 699 495 715 L592 715 Z M191 327 L152 146 Q158 124 180 109 Q202 94 236 94 Q271 94 298.5 109 Q326 124 341 147 L377 314 Q373 335 350 350.5 Q327 366 291 366 Q263 366 236 355.5 Q209 345 191 327 Z " />
<glyph glyph-name="uni0432" unicode="&#x432;" horiz-adv-x="538" d="M528 450 L502 332 Q490 315 469 301 Q448 287 426 279 Q471 260 484 229 L455 93 Q427 50 381 25 Q335 0 277 0 L-7 0 L109 542 L370 542 Q432 542 472.5 515 Q513 488 528 450 Z M389 406 Q374 442 319 442 L225 442 L199 319 L293 319 Q322 319 343.5 329.5 Q365 340 378 356 L389 406 Z M347 194 Q342 210 325 219.5 Q308 229 280 229 L180 229 L152 100 L245 100 Q279 100 298.5 110.5 Q318 121 335 140 L347 194 Z " />
<glyph glyph-name="uni0433" unicode="&#x433;" horiz-adv-x="449" d="M458 437 L229 437 L136 0 L-7 0 L109 542 L481 542 L458 437 Z " />
<glyph glyph-name="uni0434" unicode="&#x434;" horiz-adv-x="626" d="M493 105 L568 105 L520 -118 L399 -118 L424 0 L77 0 L52 -118 L-68 -118 L-20 105 Q8 113 37.5 131 Q67 149 81 169 L205 542 L586 542 L493 105 Z M158 105 L350 105 L421 437 L303 437 L208 148 Q191 124 158 105 Z " />
<glyph glyph-name="uni0435" unicode="&#x435;" horiz-adv-x="548" d="M543 438 L499 234 L178 234 L160 146 Q165 124 187.5 109 Q210 94 245 94 Q320 94 358 165 L484 165 L471 102 Q443 57 384 21 Q325 -15 231 -15 Q166 -15 118.5 6 Q71 27 44.5 58.5 Q18 90 11 121 L76 421 Q107 476 170.5 516.5 Q234 557 330 557 Q394 557 439.5 536.5 Q485 516 510.5 488.5 Q536 461 543 438 Z M212 394 L199 330 L387 330 L401 396 Q396 418 373 433 Q350 448 315 448 Q281 448 254.5 432.5 Q228 417 212 394 Z " />
<glyph glyph-name="uni0436" unicode="&#x436;" horiz-adv-x="761" d="M625 282 L694 79 L677 0 L568 0 L495 225 L437 225 L389 0 L253 0 L301 225 L254 225 L90 0 L-31 0 L-14 79 L143 289 L76 464 L92 542 L193 542 L269 330 L324 330 L369 542 L505 542 L459 330 L510 330 L673 542 L786 542 L769 464 L625 282 Z " />
<glyph glyph-name="uni0437" unicode="&#x437;" horiz-adv-x="526" d="M522 450 L498 340 Q468 302 416 276 Q454 252 470 212 L444 93 Q414 50 357.5 17.5 Q301 -15 210 -15 Q147 -15 102.5 3.5 Q58 22 34 46.5 Q10 71 0 93 L14 156 L134 156 Q139 126 162 109.5 Q185 93 223 93 Q255 93 278.5 106 Q302 119 317 137 L330 193 Q324 208 304.5 218.5 Q285 229 252 229 L183 229 L203 322 L274 322 Q330 322 366 362 L376 409 Q371 425 350.5 437 Q330 449 298 449 Q226 449 186 386 L63 386 L78 450 Q104 489 163.5 523 Q223 557 313 557 Q404 557 455 523 Q506 489 522 450 Z " />
<glyph glyph-name="uni0438" unicode="&#x438;" horiz-adv-x="591" d="M348 0 L423 351 L420 351 L137 0 L-7 0 L109 542 L242 542 L167 190 L170 190 L452 542 L597 542 L481 0 L348 0 Z " />
<glyph glyph-name="uni0439" unicode="&#x439;" horiz-adv-x="591" d="M348 0 L423 351 L420 351 L137 0 L-7 0 L109 542 L242 542 L167 190 L170 190 L452 542 L597 542 L481 0 L348 0 Z M553 684 Q530 645 484.5 620.5 Q439 596 376 596 Q310 596 268.5 620.5 Q227 645 213 684 L226 744 L331 744 L322 706 Q324 694 338.5 683 Q353 672 380 672 Q409 672 427 682.5 Q445 693 453 706 L462 744 L566 744 L553 684 Z " />
<glyph glyph-name="uni043A" unicode="&#x43a;" horiz-adv-x="525" d="M368 280 L461 79 L444 0 L346 0 L244 225 L184 225 L136 0 L-7 0 L109 542 L252 542 L207 330 L259 330 L445 542 L555 542 L539 464 L368 280 Z " />
<glyph glyph-name="uni043B" unicode="&#x43b;" horiz-adv-x="574" d="M464 0 L321 0 L414 437 L296 437 L179 78 Q144 30 94 13 Q44 -4 -43 -4 L-21 104 Q8 104 31.5 115.5 Q55 127 66 144 L199 542 L580 542 L464 0 Z " />
<glyph glyph-name="uni043C" unicode="&#x43c;" horiz-adv-x="680" d="M437 0 L514 359 L511 359 L337 117 L275 117 L206 359 L203 359 L126 0 L-7 0 L109 542 L276 542 L343 306 L346 306 L509 542 L687 542 L571 0 L437 0 Z " />
<glyph glyph-name="uni043D" unicode="&#x43d;" horiz-adv-x="587" d="M334 0 L383 227 L184 227 L136 0 L-7 0 L109 542 L252 542 L206 331 L405 331 L450 542 L593 542 L477 0 L334 0 Z " />
<glyph glyph-name="uni043E" unicode="&#x43e;" horiz-adv-x="561" d="M550 421 L484 121 Q453 66 390.5 25.5 Q328 -15 232 -15 Q167 -15 119 6 Q71 27 44.5 58 Q18 89 11 121 L76 421 Q108 477 171 517 Q234 557 329 557 Q395 557 442 536 Q489 515 515.5 484 Q542 453 550 421 Z M212 391 L159 148 Q165 126 187.5 111.5 Q210 97 245 97 Q280 97 307 113 Q334 129 348 152 L401 394 Q396 416 373 430.5 Q350 445 315 445 Q281 445 254 429.5 Q227 414 212 391 Z " />
<glyph glyph-name="uni043F" unicode="&#x43f;" horiz-adv-x="565" d="M313 0 L406 437 L229 437 L136 0 L-7 0 L109 542 L571 542 L455 0 L313 0 Z " />
<glyph glyph-name="uni0440" unicode="&#x440;" horiz-adv-x="559" d="M550 432 L481 110 Q453 62 402 25 Q351 -12 277 -12 Q191 -12 144 44 L99 -166 L-44 -166 L109 542 L246 542 L237 499 Q301 554 386 554 Q437 554 472.5 534.5 Q508 515 526.5 487 Q545 459 550 432 Z M400 399 Q394 415 375 428.5 Q356 442 322 442 Q290 442 264.5 431.5 Q239 421 222 405 L165 138 Q177 121 199.5 110.5 Q222 100 252 100 Q286 100 309.5 112.5 Q333 125 345 142 L400 399 Z " />
<glyph glyph-name="uni0441" unicode="&#x441;" horiz-adv-x="540" d="M543 439 L529 374 L411 374 Q406 407 380.5 426 Q355 445 315 445 Q281 445 254 429.5 Q227 414 212 392 L159 148 Q165 126 188 111.5 Q211 97 245 97 Q322 97 362 168 L484 168 L471 101 Q441 57 384 21 Q327 -15 235 -15 Q170 -15 121.5 6 Q73 27 45.5 58.5 Q18 90 11 121 L76 421 Q107 476 170.5 516.5 Q234 557 329 557 Q393 557 439 537 Q485 517 510.5 489.5 Q536 462 543 439 Z " />
<glyph glyph-name="uni0442" unicode="&#x442;" horiz-adv-x="487" d="M208 437 L60 437 L83 542 L520 542 L497 437 L350 437 L257 0 L115 0 L208 437 Z " />
<glyph glyph-name="uni0443" unicode="&#x443;" horiz-adv-x="528" d="M425 542 L557 542 L541 464 L234 -99 Q198 -139 149 -157 Q100 -175 31 -175 Q5 -175 -18.5 -172.5 Q-42 -170 -53 -166 L-31 -64 Q-13 -67 14 -67 Q82 -67 121 -32 L142 9 L71 463 L88 542 L209 542 L245 184 L248 184 L425 542 Z " />
<glyph glyph-name="uni0444" unicode="&#x444;" horiz-adv-x="772" d="M765 437 L693 105 Q669 58 618.5 23 Q568 -12 498 -12 Q439 -12 400 17 L360 -166 L225 -166 L263 14 Q218 -12 164 -12 Q117 -12 83.5 6.5 Q50 25 31.5 52 Q13 79 8 105 L79 437 Q104 484 154.5 519 Q205 554 275 554 Q334 554 373 525 L411 700 L546 700 L509 528 Q553 554 609 554 Q678 554 716.5 517.5 Q755 481 765 437 Z M284 110 L353 433 Q331 446 301 446 Q271 446 249.5 434.5 Q228 423 216 409 L156 133 Q162 119 178.5 107.5 Q195 96 224 96 Q256 96 284 110 Z M616 409 Q610 423 594 434.5 Q578 446 548 446 Q517 446 489 433 L420 110 Q441 96 477 96 Q505 96 525.5 107.5 Q546 119 557 133 L616 409 Z " />
<glyph glyph-name="uni0445" unicode="&#x445;" horiz-adv-x="514" d="M356 276 L442 79 L426 0 L309 0 L248 194 L245 194 L101 0 L-27 0 L-11 79 L161 280 L80 463 L96 542 L211 542 L269 360 L272 360 L407 542 L534 542 L517 463 L356 276 Z " />
<glyph glyph-name="uni0446" unicode="&#x446;" horiz-adv-x="610" d="M552 105 L504 -118 L383 -118 L408 0 L-7 0 L109 542 L252 542 L159 105 L335 105 L429 542 L571 542 L478 105 L552 105 Z " />
<glyph glyph-name="uni0447" unicode="&#x447;" horiz-adv-x="544" d="M550 542 L434 0 L292 0 L333 193 Q290 177 235 177 Q159 177 111.5 201 Q64 225 45 260 L106 542 L248 542 L199 315 Q209 301 226 291.5 Q243 282 279 282 Q318 282 356 300 L408 542 L550 542 Z " />
<glyph glyph-name="uni0448" unicode="&#x448;" horiz-adv-x="811" d="M-7 0 L109 542 L252 542 L159 105 L299 105 L392 542 L535 542 L442 105 L582 105 L675 542 L818 542 L702 0 L-7 0 Z " />
<glyph glyph-name="uni0449" unicode="&#x449;" horiz-adv-x="859" d="M798 105 L751 -118 L630 -118 L655 0 L-7 0 L109 542 L252 542 L159 105 L299 105 L392 542 L535 542 L442 105 L582 105 L675 542 L818 542 L724 105 L798 105 Z " />
<glyph glyph-name="uni044A" unicode="&#x44a;" horiz-adv-x="615" d="M582 267 L543 93 Q478 0 361 0 L81 0 L175 438 L60 438 L83 542 L340 542 L301 360 L417 360 Q478 360 520 334 Q562 308 582 267 Z M436 219 Q431 234 413.5 245 Q396 256 368 256 L279 256 L247 104 L330 104 Q383 104 421 144 L436 219 Z " />
<glyph glyph-name="uni044B" unicode="&#x44b;" horiz-adv-x="749" d="M214 360 L321 360 Q382 360 424 334 Q466 308 486 267 L448 93 Q413 44 366.5 22 Q320 0 267 0 L-7 0 L109 542 L252 542 L214 360 Z M639 0 L497 0 L613 542 L755 542 L639 0 Z M191 256 L159 104 L234 104 Q287 104 325 144 L341 219 Q335 234 317.5 245 Q300 256 272 256 L191 256 Z " />
<glyph glyph-name="uni044C" unicode="&#x44c;" horiz-adv-x="527" d="M214 360 L329 360 Q390 360 432 334 Q474 308 494 267 L456 93 Q390 0 274 0 L-7 0 L109 542 L252 542 L214 360 Z M191 256 L159 104 L243 104 Q295 104 333 144 L349 219 Q343 234 325.5 245 Q308 256 280 256 L191 256 Z " />
<glyph glyph-name="uni044D" unicode="&#x44d;" horiz-adv-x="540" d="M529 421 L464 121 Q433 66 369.5 25.5 Q306 -15 211 -15 Q147 -15 101 5 Q55 25 29.5 52.5 Q4 80 -3 103 L11 168 L131 168 Q135 134 160 115.5 Q185 97 225 97 Q259 97 286 112.5 Q313 128 328 150 L344 226 L169 226 L189 321 L365 321 L380 394 Q374 416 352 430.5 Q330 445 295 445 Q256 445 227.5 427 Q199 409 178 374 L56 374 L69 441 Q98 485 156.5 521 Q215 557 307 557 Q372 557 420 536 Q468 515 495 483.5 Q522 452 529 421 Z " />
<glyph glyph-name="uni044E" unicode="&#x44e;" horiz-adv-x="803" d="M793 421 L728 121 Q695 65 633 25 Q571 -15 475 -15 Q410 -15 362 6 Q314 27 287.5 58 Q261 89 254 121 L277 224 L184 224 L136 0 L-7 0 L109 542 L252 542 L206 329 L299 329 L319 421 Q351 477 414 517 Q477 557 573 557 Q638 557 685.5 536 Q733 515 759.5 484 Q786 453 793 421 Z M644 394 Q639 416 616 430.5 Q593 445 558 445 Q524 445 497 429.5 Q470 414 456 391 L403 148 Q408 127 431 112 Q454 97 488 97 Q523 97 550.5 113 Q578 129 592 152 L644 394 Z " />
<glyph glyph-name="Idot" unicode="&#x130;" horiz-adv-x="272" d="M155 0 L1 0 L151 700 L305 700 L155 0 Z M339 857 L325 796 Q315 780 293 768.5 Q271 757 240 757 Q210 757 192.5 768.5 Q175 780 172 796 L185 857 Q195 873 217.5 885 Q240 897 270 897 Q300 897 317.5 885 Q335 873 339 857 Z " />
<glyph glyph-name="uni0162" unicode="&#x162;" horiz-adv-x="544" d="M610 700 L585 582 L416 582 L291 0 L250 0 L224 -44 L232 -44 Q265 -44 285.5 -59 Q306 -74 310 -93 L293 -169 Q256 -228 163 -228 Q133 -228 105.5 -222 Q78 -216 62 -208 L97 -148 Q131 -160 166 -160 Q184 -160 198 -154.5 Q212 -149 217 -140 L223 -116 Q221 -108 209.5 -104 Q198 -100 180 -100 L120 -100 L176 0 L137 0 L262 582 L91 582 L117 700 L610 700 Z " />
<glyph glyph-name="dslash" unicode="&#x111;" horiz-adv-x="580" d="M621 577 L574 577 L450 0 L313 0 L322 44 Q263 -12 181 -12 Q129 -12 91.5 7.5 Q54 27 33.5 55 Q13 83 9 110 L74 409 Q100 456 151.5 493.5 Q203 531 277 531 Q364 531 410 478 L431 577 L280 577 L297 652 L447 652 L457 700 L600 700 L590 652 L638 652 L621 577 Z M240 100 Q270 100 295 111 Q320 122 337 139 L390 386 Q377 401 355 410 Q333 419 304 419 Q271 419 247 406 Q223 393 210 377 L160 143 Q165 127 185.5 113.5 Q206 100 240 100 Z " />
<glyph glyph-name="uni0237" unicode="&#x237;" horiz-adv-x="244" d="M125 -46 Q95 -106 28 -143 Q-39 -180 -140 -180 L-117 -71 Q-83 -71 -53 -52.5 Q-23 -34 -9 -8 L108 542 L251 542 L125 -46 Z " />
<glyph glyph-name="uni0163" unicode="&#x163;" horiz-adv-x="362" d="M257 438 L191 129 Q207 98 270 98 Q294 98 306 100 L284 -1 Q249 -12 204 -12 L191 -12 L172 -44 L180 -44 Q213 -44 233.5 -58.5 Q254 -73 258 -93 L242 -169 Q202 -228 111 -228 Q81 -228 54 -222 Q27 -216 10 -208 L45 -148 Q79 -160 114 -160 Q133 -160 146.5 -154.5 Q160 -149 166 -140 L171 -116 Q169 -108 157.5 -104 Q146 -100 128 -100 L68 -100 L123 0 Q56 21 38 82 L114 438 L57 438 L80 542 L137 542 L161 655 L304 655 L279 542 L384 542 L362 438 L257 438 Z " />
<glyph glyph-name="f_f" unicode="&#xfb00;" horiz-adv-x="662" d="M603 588 L592 542 L698 542 L675 438 L570 438 L476 0 L334 0 L427 438 L411 438 L256 438 L163 0 L20 0 L113 438 L57 438 L80 542 L136 542 L155 633 Q176 672 224.5 700 Q273 728 345 728 Q378 728 402.5 724.5 Q427 721 438 716 L417 618 Q414 618 401 619.5 Q388 621 378 621 Q316 621 289 588 L279 542 L411 542 L450 542 L469 633 Q490 672 538.5 700 Q587 728 659 728 Q692 728 716.5 724.5 Q741 721 752 716 L731 618 Q728 618 715 619.5 Q702 621 692 621 Q627 621 603 588 Z " />
<glyph glyph-name="uni04D8" unicode="&#x4d8;" horiz-adv-x="616" d="M631 562 L540 138 Q504 75 434 30 Q364 -15 257 -15 Q185 -15 133.5 7.5 Q82 30 53.5 62.5 Q25 95 15 127 L70 381 L438 381 L470 530 Q465 557 437.5 575.5 Q410 594 368 594 Q276 594 229 501 L95 501 L111 573 Q144 632 210.5 673.5 Q277 715 383 715 Q456 715 509 691.5 Q562 668 592 633 Q622 598 631 562 Z M392 170 L414 273 L188 273 L166 170 Q175 141 202.5 123 Q230 105 270 105 Q311 105 342.5 123.5 Q374 142 392 170 Z " />
<glyph glyph-name="uni04D9" unicode="&#x4d9;" horiz-adv-x="548" d="M5 104 L49 308 L370 308 L388 396 Q383 418 360.5 433 Q338 448 303 448 Q228 448 190 377 L64 377 L77 441 Q105 485 164 521 Q223 557 317 557 Q382 557 429.5 536 Q477 515 503.5 484 Q530 453 537 421 L472 121 Q441 66 377 25.5 Q313 -15 218 -15 Q154 -15 108.5 5.5 Q63 26 37.5 53.5 Q12 81 5 104 Z M336 148 L349 212 L161 212 L147 146 Q152 124 174.5 109 Q197 94 233 94 Q267 94 293.5 109.5 Q320 125 336 148 Z " />
<glyph glyph-name="Alpha" unicode="&#x391;" horiz-adv-x="626" d="M561 86 L543 0 L410 0 L401 166 L179 166 L100 0 L-32 0 L-14 86 L297 700 L512 700 L561 86 Z M395 284 L379 581 L376 581 L235 284 L395 284 Z " />
<glyph glyph-name="Beta" unicode="&#x392;" horiz-adv-x="603" d="M496 365 Q519 354 539 336 Q559 318 567 295 L529 119 Q498 68 439 34 Q380 0 310 0 L1 0 L151 700 L419 700 Q497 700 548.5 664.5 Q600 629 616 581 L587 441 Q573 417 547.5 396.5 Q522 376 496 365 Z M466 537 Q451 585 377 585 L280 585 L244 413 L352 413 Q382 413 407 425.5 Q432 438 450 463 L466 537 Z M419 263 Q411 285 387 297.5 Q363 310 328 310 L222 310 L180 115 L284 115 Q326 115 353.5 128.5 Q381 142 399 168 L419 263 Z " />
<glyph glyph-name="Gamma" unicode="&#x393;" horiz-adv-x="473" d="M514 582 L280 582 L155 0 L1 0 L151 700 L539 700 L514 582 Z " />
<glyph glyph-name="Epsilon" unicode="&#x395;" horiz-adv-x="538" d="M558 582 L280 582 L244 417 L504 417 L479 299 L219 299 L180 118 L466 118 L440 0 L1 0 L151 700 L583 700 L558 582 Z " />
<glyph glyph-name="Zeta" unicode="&#x396;" horiz-adv-x="558" d="M193 118 L489 118 L463 0 L-22 0 L-1 100 L397 582 L108 582 L133 700 L613 700 L592 600 L193 118 Z " />
<glyph glyph-name="Eta" unicode="&#x397;" horiz-adv-x="655" d="M538 0 L384 0 L448 302 L219 302 L155 0 L1 0 L151 700 L305 700 L245 420 L473 420 L533 700 L687 700 L538 0 Z " />
<glyph glyph-name="Theta" unicode="&#x398;" horiz-adv-x="626" d="M640 562 L549 139 Q510 73 441.5 29 Q373 -15 266 -15 Q193 -15 140.5 8.5 Q88 32 58.5 67 Q29 102 21 139 L112 562 Q149 626 218.5 670.5 Q288 715 394 715 Q467 715 520 691.5 Q573 668 602.5 633 Q632 598 640 562 Z M259 530 L182 170 Q186 143 213 124.5 Q240 106 281 106 Q322 106 352 124 Q382 142 401 170 L479 530 Q473 557 446.5 576 Q420 595 379 595 Q338 595 307 576.5 Q276 558 259 530 Z M413 407 L393 314 L251 314 L271 407 L413 407 Z " />
<glyph glyph-name="Iota" unicode="&#x399;" horiz-adv-x="272" d="M155 0 L1 0 L151 700 L305 700 L155 0 Z " />
<glyph glyph-name="Kappa" unicode="&#x39a;" horiz-adv-x="615" d="M529 0 L415 0 L289 306 L204 230 L155 0 L1 0 L151 700 L305 700 L249 437 L535 700 L651 700 L633 614 L408 413 L547 86 L529 0 Z " />
<glyph glyph-name="Lambda" unicode="&#x39b;" horiz-adv-x="623" d="M297 700 L508 700 L558 86 L539 0 L398 0 L371 544 L368 544 L107 0 L-32 0 L-14 86 L297 700 Z " />
<glyph glyph-name="Mu" unicode="&#x39c;" horiz-adv-x="806" d="M544 0 L652 504 L649 504 L421 144 L330 144 L255 504 L252 504 L144 0 L1 0 L151 700 L348 700 L417 359 L420 359 L626 700 L838 700 L688 0 L544 0 Z " />
<glyph glyph-name="Nu" unicode="&#x39d;" horiz-adv-x="667" d="M381 0 L249 472 L246 472 L144 0 L1 0 L151 700 L320 700 L452 228 L455 228 L557 700 L700 700 L550 0 L381 0 Z " />
<glyph glyph-name="Xi" unicode="&#x39e;" horiz-adv-x="573" d="M592 582 L429 582 L394 419 L523 419 L498 301 L369 301 L330 118 L498 118 L473 0 L-17 0 L8 118 L180 118 L219 301 L87 301 L112 419 L244 419 L279 582 L112 582 L138 700 L618 700 L592 582 Z " />
<glyph glyph-name="Omicron" unicode="&#x39f;" horiz-adv-x="626" d="M640 562 L549 139 Q510 73 441.5 29 Q373 -15 266 -15 Q193 -15 140.5 8.5 Q88 32 58.5 67 Q29 102 21 139 L112 562 Q149 626 218.5 670.5 Q288 715 394 715 Q467 715 520 691.5 Q573 668 602.5 633 Q632 598 640 562 Z M259 530 L182 170 Q186 143 213 124.5 Q240 106 281 106 Q322 106 352 124 Q382 142 401 170 L479 530 Q473 557 446.5 576 Q420 595 379 595 Q338 595 307 576.5 Q276 558 259 530 Z " />
<glyph glyph-name="Pi" unicode="&#x3a0;" horiz-adv-x="649" d="M532 0 L378 0 L503 582 L280 582 L155 0 L1 0 L151 700 L682 700 L532 0 Z " />
<glyph glyph-name="Rho" unicode="&#x3a1;" horiz-adv-x="590" d="M621 581 L577 375 Q537 314 479 285 Q421 256 343 256 L210 256 L155 0 L1 0 L151 700 L412 700 Q491 700 543.5 670 Q596 640 621 581 Z M463 534 Q454 558 431 570.5 Q408 583 378 583 L280 583 L235 373 L329 373 Q367 373 394 385.5 Q421 398 440 426 L463 534 Z " />
<glyph glyph-name="Sigma" unicode="&#x3a3;" horiz-adv-x="561" d="M581 582 L279 582 L400 350 L192 118 L489 118 L463 0 L-22 0 L-1 100 L231 361 L113 586 L137 700 L606 700 L581 582 Z " />
<glyph glyph-name="Tau" unicode="&#x3a4;" horiz-adv-x="544" d="M585 582 L416 582 L291 0 L137 0 L262 582 L91 582 L117 700 L610 700 L585 582 Z " />
<glyph glyph-name="Upsilon" unicode="&#x3a5;" horiz-adv-x="579" d="M365 279 L306 0 L151 0 L214 294 L101 614 L120 700 L239 700 L318 432 L321 432 L511 700 L642 700 L624 614 L365 279 Z " />
<glyph glyph-name="Phi" unicode="&#x3a6;" horiz-adv-x="801" d="M802 506 L735 194 Q691 127 618.5 88 Q546 49 471 49 L420 49 L405 -20 L270 -20 L285 49 L251 49 Q203 49 157.5 68.5 Q112 88 78.5 121.5 Q45 155 32 194 L100 506 Q141 571 216 614.5 Q291 658 364 658 L415 658 L429 720 L564 720 L551 658 L586 658 Q634 658 679 636.5 Q724 615 757 580 Q790 545 802 506 Z M309 164 L391 543 L362 543 Q330 543 293.5 523 Q257 503 235 477 L180 223 Q191 198 219 181 Q247 164 280 164 L309 164 Z M654 477 Q645 503 616.5 523 Q588 543 556 543 L526 543 L444 164 L476 164 Q509 164 545.5 181 Q582 198 600 223 L654 477 Z " />
<glyph glyph-name="Chi" unicode="&#x3a7;" horiz-adv-x="597" d="M414 356 L521 86 L503 0 L377 0 L299 257 L296 257 L109 0 L-22 0 L-4 86 L217 359 L115 614 L133 700 L257 700 L334 454 L337 454 L516 700 L647 700 L628 614 L414 356 Z " />
<glyph glyph-name="Psi" unicode="&#x3a8;" horiz-adv-x="785" d="M824 700 L734 275 Q693 213 621.5 175 Q550 137 460 137 L432 137 L403 0 L265 0 L294 137 L284 137 Q196 137 135.5 177 Q75 217 53 275 L144 700 L288 700 L205 312 Q214 288 241 270 Q268 252 312 252 L319 252 L415 700 L553 700 L457 252 L470 252 Q514 252 546 269.5 Q578 287 597 312 L680 700 L824 700 Z " />
<glyph glyph-name="Alphatonos" unicode="&#x386;" horiz-adv-x="626" d="M561 86 L543 0 L410 0 L401 166 L179 166 L100 0 L-32 0 L-14 86 L297 700 L512 700 L561 86 Z M395 284 L379 581 L376 581 L235 284 L395 284 Z M202 700 L188 639 L85 535 L-26 535 L-23 551 L65 700 L202 700 Z " />
<glyph glyph-name="Epsilontonos" unicode="&#x388;" horiz-adv-x="538" d="M558 582 L280 582 L244 417 L504 417 L479 299 L219 299 L180 118 L466 118 L440 0 L1 0 L151 700 L583 700 L558 582 Z M96 700 L82 639 L-21 535 L-132 535 L-129 551 L-41 700 L96 700 Z " />
<glyph glyph-name="Etatonos" unicode="&#x389;" horiz-adv-x="655" d="M538 0 L384 0 L448 302 L219 302 L155 0 L1 0 L151 700 L305 700 L245 420 L473 420 L533 700 L687 700 L538 0 Z M96 700 L82 639 L-21 535 L-132 535 L-129 551 L-41 700 L96 700 Z " />
<glyph glyph-name="Iotatonos" unicode="&#x38a;" horiz-adv-x="272" d="M155 0 L1 0 L151 700 L305 700 L155 0 Z M96 700 L82 639 L-21 535 L-132 535 L-129 551 L-41 700 L96 700 Z " />
<glyph glyph-name="Omicrontonos" unicode="&#x38c;" horiz-adv-x="626" d="M640 562 L549 139 Q510 73 441.5 29 Q373 -15 266 -15 Q193 -15 140.5 8.5 Q88 32 58.5 67 Q29 102 21 139 L112 562 Q149 626 218.5 670.5 Q288 715 394 715 Q467 715 520 691.5 Q573 668 602.5 633 Q632 598 640 562 Z M259 530 L182 170 Q186 143 213 124.5 Q240 106 281 106 Q322 106 352 124 Q382 142 401 170 L479 530 Q473 557 446.5 576 Q420 595 379 595 Q338 595 307 576.5 Q276 558 259 530 Z M115 700 L101 639 L-2 535 L-113 535 L-110 551 L-22 700 L115 700 Z " />
<glyph glyph-name="Upsilontonos" unicode="&#x38e;" horiz-adv-x="579" d="M365 279 L306 0 L151 0 L214 294 L101 614 L120 700 L239 700 L318 432 L321 432 L511 700 L642 700 L624 614 L365 279 Z M85 700 L71 639 L-32 535 L-143 535 L-140 551 L-52 700 L85 700 Z " />
<glyph glyph-name="Omegatonos" unicode="&#x38f;" horiz-adv-x="632" d="M435 118 L547 118 L522 0 L292 0 L326 162 Q355 167 379 185 Q403 203 416 225 L482 531 Q476 558 451 576 Q426 594 385 594 Q345 594 312.5 576 Q280 558 263 531 L196 225 Q200 204 216 186 Q232 168 259 162 L225 0 L-6 0 L19 118 L147 118 Q105 139 79 169.5 Q53 200 44 233 L115 562 Q150 624 222.5 669.5 Q295 715 402 715 Q474 715 525.5 691.5 Q577 668 605.5 633 Q634 598 643 562 L572 231 Q530 158 435 118 Z M115 700 L101 639 L-2 535 L-113 535 L-110 551 L-22 700 L115 700 Z " />
<glyph glyph-name="Iotadieresis" unicode="&#x3aa;" horiz-adv-x="272" d="M155 0 L1 0 L151 700 L305 700 L155 0 Z M224 860 L207 781 Q178 752 131 752 Q86 752 67 781 L84 860 Q115 888 160 888 Q205 888 224 860 Z M440 860 L423 781 Q397 752 347 752 Q302 752 283 781 L300 860 Q331 888 376 888 Q421 888 440 860 Z " />
<glyph glyph-name="Upsilondieresis" unicode="&#x3ab;" horiz-adv-x="579" d="M365 279 L306 0 L151 0 L214 294 L101 614 L120 700 L239 700 L318 432 L321 432 L511 700 L642 700 L624 614 L365 279 Z M377 860 L360 781 Q331 752 284 752 Q239 752 220 781 L237 860 Q268 888 313 888 Q358 888 377 860 Z M593 860 L576 781 Q550 752 500 752 Q455 752 436 781 L453 860 Q484 888 529 888 Q574 888 593 860 Z " />
<glyph glyph-name="alpha" unicode="&#x3b1;" horiz-adv-x="558" d="M566 542 L450 0 L312 0 L322 43 Q262 -12 181 -12 Q129 -12 91.5 7.5 Q54 27 33.5 55 Q13 83 9 110 L78 432 Q105 480 156 517 Q207 554 282 554 Q372 554 418 496 L428 542 L566 542 Z M240 100 Q269 100 293.5 110.5 Q318 121 336 138 L394 409 Q382 424 360 433 Q338 442 308 442 Q275 442 251 428.5 Q227 415 214 399 L160 143 Q165 127 185.5 113.5 Q206 100 240 100 Z " />
<glyph glyph-name="beta" unicode="&#x3b2;" horiz-adv-x="562" d="M451 379 Q513 345 528 289 L491 121 Q463 66 409.5 27 Q356 -12 278 -12 Q193 -12 144 44 L99 -166 L-44 -166 L119 588 Q152 640 214 677.5 Q276 715 364 715 Q449 715 501 681.5 Q553 648 571 609 L537 445 Q524 425 500.5 407.5 Q477 390 451 379 Z M423 561 Q405 603 349 603 Q320 603 294.5 589.5 Q269 576 255 556 L165 141 Q177 124 200 112.5 Q223 101 254 101 Q288 101 315 117 Q342 133 357 157 L381 271 Q375 297 352 310 Q329 323 297 323 L274 323 L298 427 L314 427 Q340 427 364 439 Q388 451 404 472 L423 561 Z " />
<glyph glyph-name="gamma" unicode="&#x3b3;" horiz-adv-x="533" d="M545 463 L279 1 L243 -166 L101 -166 L137 1 L70 463 L87 542 L208 542 L244 181 L247 181 L434 542 L562 542 L545 463 Z " />
<glyph glyph-name="delta" unicode="&#x3b4;" horiz-adv-x="560" d="M271 581 L261 530 Q265 518 280 507.5 Q295 497 320 493 L368 483 Q440 468 482.5 430 Q525 392 534 350 L484 121 Q452 66 388.5 25.5 Q325 -15 231 -15 Q165 -15 118 6 Q71 27 45.5 58 Q20 89 11 121 L58 338 Q76 371 113 399.5 Q150 428 202 443 Q169 458 150.5 476.5 Q132 495 126 510 L149 620 Q176 655 231.5 685 Q287 715 370 715 Q450 715 499 684 Q548 653 567 620 L556 568 L436 568 Q413 612 356 612 Q305 612 271 581 Z M305 389 Q271 389 242.5 372 Q214 355 200 333 L159 150 Q165 128 187 113 Q209 98 243 98 Q278 98 306 113.5 Q334 129 349 153 L389 337 Q384 359 362 374 Q340 389 305 389 Z " />
<glyph glyph-name="epsilon" unicode="&#x3b5;" horiz-adv-x="536" d="M214 405 L206 369 Q214 348 234.5 336 Q255 324 284 324 L358 324 L339 230 L268 230 Q237 230 209.5 218 Q182 206 167 185 L156 135 Q165 119 187.5 106.5 Q210 94 243 94 Q281 94 310.5 110 Q340 126 356 148 L479 148 L467 89 Q436 47 378 16 Q320 -15 227 -15 Q164 -15 117 3 Q70 21 42.5 45 Q15 69 4 90 L27 202 Q42 227 69.5 249 Q97 271 129 284 Q106 295 88.5 313 Q71 331 63 349 L84 450 Q111 490 171.5 523.5 Q232 557 323 557 Q386 557 432 539 Q478 521 504.5 496.5 Q531 472 539 451 L528 396 L403 396 Q397 418 372 433 Q347 448 310 448 Q278 448 253 435.5 Q228 423 214 405 Z " />
<glyph glyph-name="zeta" unicode="&#x3b6;" horiz-adv-x="505" d="M179 245 L159 150 Q168 135 190.5 123.5 Q213 112 246 112 L434 112 L383 -125 L261 -125 L287 0 L200 0 Q116 0 68 36 Q20 72 8 117 L40 267 Q55 294 75 317.5 Q95 341 125 369 L372 593 L133 593 L155 700 L568 700 L547 599 L237 313 Q195 275 179 245 Z " />
<glyph glyph-name="eta" unicode="&#x3b7;" horiz-adv-x="564" d="M549 432 L421 -166 L278 -166 L400 399 Q393 416 373.5 429 Q354 442 321 442 Q289 442 263.5 431 Q238 420 221 403 L135 0 L-7 0 L109 542 L241 542 L231 494 Q296 554 382 554 Q434 554 470 534.5 Q506 515 525 487 Q544 459 549 432 Z " />
</font>
</svg>
