<?xml version="1.0" encoding="UTF-8"?>
<svg xmlns="http://www.w3.org/2000/svg" xmlns:xlink="http://www.w3.org/1999/xlink" version="1.2" >
<font id="Cadillac Serif Web Medium">
<font-face  font-family="Cadillac Serif Web" units-per-em="1000" ascent="700" descent="-300" font-style="normal" font-weight="500" font-stretch="normal" cap-height="625" x-height="444" underline-position="-75" underline-thickness="50" />
<missing-glyph  horiz-adv-x="535" d="M20 693 L515 693 L515 0 L20 0 L20 693 Z M436 644 L99 644 L268 391 L436 644 Z M466 94 L466 599 L297 347 L466 94 Z M436 50 L268 302 L99 50 L436 50 Z M70 94 L238 347 L70 599 L70 94 Z " />
<glyph glyph-name="null" d="" />
<glyph glyph-name="nonmarkingreturn" unicode="&#xd;" horiz-adv-x="174" d="" />
<glyph glyph-name="nbspace" unicode="&#xa0;" horiz-adv-x="174" d="" />
<glyph glyph-name="space" unicode="&#x20;" horiz-adv-x="174" d="" />
<glyph glyph-name="A" unicode="A" horiz-adv-x="634" d="M384 219 L192 219 L138 77 Q133 64 133 57 Q133 46 146 38 Q159 30 195 22 L195 0 Q175 0 148 1.5 Q121 3 97 3 Q74 3 50 1.5 Q26 0 4 0 L4 22 L69 41 L294 625 L333 625 L545 78 Q551 62 558.5 52.5 Q566 43 575.5 37 Q585 31 596.5 28 Q608 25 622 22 L622 0 Q613 0 598.5 0.5 Q584 1 568 1.5 Q552 2 536 2.5 Q520 3 509 3 Q497 3 480 2.5 Q463 2 445.5 1.5 Q428 1 412 0.5 Q396 0 385 0 L385 22 L453 41 L384 219 Z M207 258 L369 258 L287 471 L207 258 Z " />
<glyph glyph-name="B" unicode="B" horiz-adv-x="572" d="M40 22 L106 42 L106 536 Q106 564 97.5 575.5 Q89 587 61 596 L39 603 L39 625 L279 625 Q403 625 452 579 Q491 543 491 486 Q491 433 456 398 Q421 363 368 347 Q440 330 484 289.5 Q528 249 528 180 Q528 140 514.5 107.5 Q501 75 477 52 Q451 27 410.5 13.5 Q370 0 306 0 L40 0 L40 22 Z M209 358 L255 358 Q293 358 318 368 Q343 378 359 396 Q384 425 384 476 Q384 525 357 552 Q340 569 314 576.5 Q288 584 247 584 L209 584 L209 358 Z M209 316 L209 84 Q209 60 228 50.5 Q247 41 287 41 Q347 41 381.5 74 Q416 107 416 180 Q416 244 382 278 Q361 299 328.5 307.5 Q296 316 252 316 L209 316 Z " />
<glyph glyph-name="C" unicode="C" horiz-adv-x="569" d="M531 111 Q496 54 439.5 19 Q383 -16 311 -16 Q254 -16 209 2 Q164 20 131 54 Q88 97 66 163 Q44 229 44 310 Q44 382 64.5 443 Q85 504 123 547.5 Q161 591 216.5 615.5 Q272 640 341 640 Q386 640 428.5 632 Q471 624 506 620 Q506 605 507 582.5 Q508 560 509 536.5 Q510 513 511.5 490.5 Q513 468 515 453 L488 453 Q477 516 443 555 Q409 594 343 594 Q299 594 264.5 574.5 Q230 555 206 518 Q182 481 169.5 429 Q157 377 157 313 Q157 186 202 114.5 Q247 43 332 43 Q385 43 427.5 67 Q470 91 502 133 L531 111 Z " />
<glyph glyph-name="D" unicode="D" horiz-adv-x="660" d="M40 0 L40 22 L106 42 L106 536 Q106 564 97.5 575.5 Q89 587 61 596 L39 603 L39 625 L254 625 Q357 625 426.5 603.5 Q496 582 539 538 Q578 499 597 440.5 Q616 382 616 308 Q616 239 594 179 Q572 119 527 76 Q491 41 439 20.5 Q387 0 315 0 L40 0 Z M504 310 Q504 378 489.5 429 Q475 480 443 515 Q413 547 366.5 564 Q320 581 253 581 L209 581 L209 87 Q209 64 225 52.5 Q241 41 290 41 L292 41 Q346 41 385.5 61.5 Q425 82 451.5 118.5 Q478 155 491 204 Q504 253 504 310 Z " />
<glyph glyph-name="E" unicode="E" horiz-adv-x="553" d="M40 22 L106 42 L106 536 Q106 564 97.5 575.5 Q89 587 61 596 L39 603 L39 625 L481 625 Q481 611 482.5 590 Q484 569 485.5 547.5 Q487 526 488.5 506.5 Q490 487 492 475 L464 475 Q459 505 451 526 Q443 547 425.5 559.5 Q408 572 377.5 578 Q347 584 298 584 Q277 584 253.5 583.5 Q230 583 209 582 L209 342 L275 342 Q319 342 352.5 344.5 Q386 347 400 350 L395 295 Q388 296 374.5 297 Q361 298 344 299 Q327 300 309 300.5 Q291 301 275 301 L209 301 L209 85 Q209 60 230 50.5 Q251 41 311 41 Q342 41 363.5 42.5 Q385 44 399.5 46.5 Q414 49 423 53 Q432 57 439 62 Q456 74 465.5 96.5 Q475 119 482 149 L507 149 Q506 136 505 115.5 Q504 95 503 73.5 Q502 52 501.5 32 Q501 12 501 0 L40 0 L40 22 Z " />
<glyph glyph-name="F" unicode="F" horiz-adv-x="517" d="M209 89 Q209 60 218 48 Q227 36 256 29 L286 22 L286 0 Q273 0 257 0.5 Q241 1 224.5 1.5 Q208 2 192 2.5 Q176 3 163 3 Q149 3 132.5 2.5 Q116 2 99 1.5 Q82 1 66.5 0.5 Q51 0 40 0 L40 22 L106 42 L106 536 Q106 564 97.5 575.5 Q89 587 61 596 L39 603 L39 625 L478 625 Q478 611 479.5 590 Q481 569 482.5 547.5 Q484 526 485.5 506.5 Q487 487 489 475 L461 475 Q456 505 448 526 Q440 547 422.5 559.5 Q405 572 374.5 578 Q344 584 295 584 Q274 584 253 583.5 Q232 583 209 582 L209 342 L272 342 Q316 342 349.5 344.5 Q383 347 397 350 L392 295 Q385 296 371.5 297 Q358 298 341 299 Q324 300 306 300.5 Q288 301 272 301 L209 301 L209 89 Z " />
<glyph glyph-name="G" unicode="G" horiz-adv-x="654" d="M553 39 Q534 28 509 18 Q484 8 456 0.5 Q428 -7 398 -11.5 Q368 -16 339 -16 Q267 -16 213 5.5 Q159 27 123 66 Q44 153 44 309 Q44 385 69 449.5 Q94 514 142 559 Q182 597 237 618.5 Q292 640 363 640 Q407 640 451.5 631.5 Q496 623 534 618 Q534 601 534.5 580 Q535 559 536 537.5 Q537 516 539 494 Q541 472 543 453 L516 453 Q508 516 467 555 Q426 594 358 594 Q310 594 273 574 Q236 554 210 517.5 Q184 481 170.5 428.5 Q157 376 157 311 Q157 239 171 186.5 Q185 134 209.5 99.5 Q234 65 267 48 Q300 31 338 31 Q365 31 388.5 38 Q412 45 428 59 Q452 82 452 130 L452 235 L378 255 L378 277 Q389 277 405.5 276.5 Q422 276 440.5 275.5 Q459 275 476.5 274.5 Q494 274 508 274 Q534 274 564 275.5 Q594 277 620 277 L620 255 L598 248 Q570 239 561.5 227.5 Q553 216 553 188 L553 39 Z " />
<glyph glyph-name="H" unicode="H" horiz-adv-x="710" d="M106 536 Q106 564 97.5 575.5 Q89 587 61 596 L39 603 L39 625 Q65 625 95.5 623.5 Q126 622 152 622 Q165 622 182 622.5 Q199 623 216 623.5 Q233 624 248.5 624.5 Q264 625 275 625 L275 603 L209 583 L209 343 L501 343 L501 536 Q501 564 492.5 575.5 Q484 587 456 596 L434 603 L434 625 Q460 625 490 623.5 Q520 622 546 622 Q559 622 576 622.5 Q593 623 610.5 623.5 Q628 624 643.5 624.5 Q659 625 670 625 L670 603 L604 583 L604 89 Q604 61 612.5 49.5 Q621 38 649 29 L671 22 L671 0 Q645 0 614.5 1.5 Q584 3 558 3 Q544 3 527.5 2.5 Q511 2 494 1.5 Q477 1 461.5 0.5 Q446 0 435 0 L435 22 L501 42 L501 298 L209 298 L209 89 Q209 61 217.5 49.5 Q226 38 254 29 L276 22 L276 0 Q250 0 220 1.5 Q190 3 164 3 Q150 3 133.5 2.5 Q117 2 99.5 1.5 Q82 1 66.5 0.5 Q51 0 40 0 L40 22 L106 42 L106 536 Z " />
<glyph glyph-name="I" unicode="I" horiz-adv-x="317" d="M107 536 Q107 564 98.5 575.5 Q90 587 62 596 L40 603 L40 625 Q66 625 96 623.5 Q126 622 152 622 Q165 622 182 622.5 Q199 623 216.5 623.5 Q234 624 249.5 624.5 Q265 625 276 625 L276 603 L210 583 L210 89 Q210 61 218.5 49.5 Q227 38 255 29 L277 22 L277 0 Q251 0 220.5 1.5 Q190 3 164 3 Q150 3 133.5 2.5 Q117 2 100 1.5 Q83 1 67.5 0.5 Q52 0 41 0 L41 22 L107 42 L107 536 Z " />
<glyph glyph-name="J" unicode="J" horiz-adv-x="306" d="M103 536 Q103 564 94.5 575.5 Q86 587 58 596 L36 603 L36 625 Q62 625 92 623.5 Q122 622 148 622 Q161 622 178 622.5 Q195 623 212.5 623.5 Q230 624 245.5 624.5 Q261 625 272 625 L272 603 L206 583 L206 79 Q206 29 198.5 -18 Q191 -65 169.5 -105 Q148 -145 108.5 -174.5 Q69 -204 5 -218 L-5 -187 Q28 -173 49 -151.5 Q70 -130 82 -98 Q94 -66 98.5 -22.5 Q103 21 103 79 L103 536 Z " />
<glyph glyph-name="K" unicode="K" horiz-adv-x="606" d="M106 536 Q106 564 97.5 575.5 Q89 587 61 596 L39 603 L39 625 Q65 625 95 623.5 Q125 622 151 622 Q164 622 181 622.5 Q198 623 215.5 623.5 Q233 624 248.5 624.5 Q264 625 275 625 L275 603 L209 583 L209 315 L436 587 L378 603 L378 625 Q388 625 402 624.5 Q416 624 430.5 623.5 Q445 623 459 622.5 Q473 622 483 622 Q493 622 507 622.5 Q521 623 534.5 623.5 Q548 624 559.5 624.5 Q571 625 578 625 L578 603 Q552 600 535 595 Q518 590 504.5 582.5 Q491 575 479 563.5 Q467 552 452 534 L323 381 L483 117 Q498 93 510 76.5 Q522 60 534 49 Q546 38 560.5 32 Q575 26 595 22 L595 0 L424 0 Q422 17 414.5 37.5 Q407 58 386 94 L261 307 L209 246 L209 89 Q209 61 217.5 49.5 Q226 38 254 29 L276 22 L276 0 Q250 0 219.5 1.5 Q189 3 163 3 Q149 3 132.5 2.5 Q116 2 99 1.5 Q82 1 66.5 0.5 Q51 0 40 0 L40 22 L106 42 L106 536 Z " />
<glyph glyph-name="L" unicode="L" horiz-adv-x="531" d="M209 85 Q209 73 213.5 64.5 Q218 56 229.5 50.5 Q241 45 261 43 Q281 41 311 41 Q340 41 360 42.5 Q380 44 393.5 46.5 Q407 49 415.5 53 Q424 57 431 62 Q448 74 457.5 97 Q467 120 474 150 L499 150 Q498 137 497 116.5 Q496 96 495 74 Q494 52 493.5 32 Q493 12 493 0 L40 0 L40 22 L106 42 L106 536 Q106 564 97.5 575.5 Q89 587 61 596 L39 603 L39 625 Q65 625 95 623.5 Q125 622 151 622 Q164 622 181 622.5 Q198 623 215.5 623.5 Q233 624 248.5 624.5 Q264 625 275 625 L275 603 L209 583 L209 85 Z " />
<glyph glyph-name="M" unicode="M" horiz-adv-x="846" d="M806 603 L740 583 L740 89 Q740 61 748.5 49.5 Q757 38 785 29 L807 22 L807 0 Q781 0 751 1.5 Q721 3 695 3 Q681 3 664.5 2.5 Q648 2 631.5 1.5 Q615 1 599.5 0.5 Q584 0 573 0 L573 22 L639 42 L639 500 L415 -3 L386 -3 L161 497 L161 89 Q161 61 169.5 49.5 Q178 38 206 29 L228 22 L228 0 Q202 0 180 1 Q158 2 138 2 Q118 2 90.5 1 Q63 0 40 0 L40 22 L106 42 L106 536 Q106 565 96.5 576 Q87 587 59 596 L37 603 L37 625 L210 625 L424 144 L636 625 L806 625 L806 603 Z " />
<glyph glyph-name="N" unicode="N" horiz-adv-x="700" d="M546 540 Q546 567 537.5 578 Q529 589 501 597 L479 603 L479 625 Q505 625 526.5 624 Q548 623 568 623 Q588 623 616 624 Q644 625 667 625 L667 603 L601 583 L601 -3 L544 -3 L161 496 L161 85 Q161 58 169.5 47 Q178 36 206 28 L228 22 L228 0 Q202 0 180.5 1 Q159 2 139 2 Q119 2 91 1 Q63 0 40 0 L40 22 L106 42 L106 536 Q106 565 96.5 576 Q87 587 59 596 L37 603 L37 625 L186 625 L546 154 L546 540 Z " />
<glyph glyph-name="O" unicode="O" horiz-adv-x="642" d="M598 312 Q598 237 578 176.5 Q558 116 521.5 73 Q485 30 434 7 Q383 -16 321 -16 Q259 -16 208 7 Q157 30 120.5 73 Q84 116 64 176.5 Q44 237 44 312 Q44 387 64 447.5 Q84 508 120.5 551 Q157 594 208 617 Q259 640 321 640 Q383 640 434 617 Q485 594 521.5 551 Q558 508 578 447.5 Q598 387 598 312 Z M485 312 Q485 370 476 421 Q467 472 447 510 Q427 548 396 570.5 Q365 593 321 593 Q277 593 246 570.5 Q215 548 195 510 Q175 472 166 421 Q157 370 157 312 Q157 254 166 203 Q175 152 195 113.5 Q215 75 246 53 Q277 31 321 31 Q365 31 396 53 Q427 75 447 113.5 Q467 152 476 203 Q485 254 485 312 Z " />
<glyph glyph-name="P" unicode="P" horiz-adv-x="537" d="M209 296 L247 296 Q322 296 360 335 Q398 374 398 446 Q398 480 389.5 503.5 Q381 527 365 544 Q345 564 315 573 Q285 582 246 582 L209 582 L209 296 Z M163 3 Q149 3 132.5 2.5 Q116 2 99 1.5 Q82 1 66.5 0.5 Q51 0 40 0 L40 22 L106 42 L106 536 Q106 564 97.5 575.5 Q89 587 61 596 L39 603 L39 625 L259 625 Q328 625 377.5 611.5 Q427 598 460 569 Q483 548 496 518 Q509 488 509 447 Q509 358 444 306.5 Q379 255 266 255 L209 255 L209 89 Q209 60 218 48 Q227 36 256 29 L286 22 L286 0 Q273 0 257 0.5 Q241 1 224.5 1.5 Q208 2 192 2.5 Q176 3 163 3 Z " />
<glyph glyph-name="Q" unicode="Q" horiz-adv-x="642" d="M598 312 Q598 199 554.5 120.5 Q511 42 435 7 Q464 -83 548 -126 Q632 -169 758 -176 L758 -202 Q655 -202 580 -188 Q505 -174 452.5 -149 Q400 -124 366.5 -90 Q333 -56 313 -16 Q252 -15 202.5 9 Q153 33 117.5 75.5 Q82 118 63 178 Q44 238 44 312 Q44 387 64 447.5 Q84 508 120.5 551 Q157 594 208 617 Q259 640 321 640 Q383 640 434 617 Q485 594 521.5 551 Q558 508 578 447.5 Q598 387 598 312 Z M485 312 Q485 370 476 421 Q467 472 447 510 Q427 548 396 570.5 Q365 593 321 593 Q277 593 246 570.5 Q215 548 195 510 Q175 472 166 421 Q157 370 157 312 Q157 254 166 203 Q175 152 195 113.5 Q215 75 246 53 Q277 31 321 31 Q365 31 396 53 Q427 75 447 113.5 Q467 152 476 203 Q485 254 485 312 Z " />
<glyph glyph-name="R" unicode="R" horiz-adv-x="607" d="M209 89 Q209 61 217.5 49.5 Q226 38 254 29 L276 22 L276 0 Q250 0 219.5 1.5 Q189 3 163 3 Q149 3 132.5 2.5 Q116 2 99 1.5 Q82 1 66.5 0.5 Q51 0 40 0 L40 22 L106 42 L106 536 Q106 564 97.5 575.5 Q89 587 61 596 L39 603 L39 625 L260 625 Q335 625 384.5 612 Q434 599 464 571 Q509 530 509 456 Q509 403 475 359.5 Q441 316 375 296 Q390 290 401 283 Q412 276 421 266 Q430 256 438 242 Q446 228 455 208 L499 107 Q509 84 518.5 68.5 Q528 53 539 43.5 Q550 34 563.5 29 Q577 24 597 22 L597 0 L425 0 Q424 15 419.5 34 Q415 53 399 89 L353 195 Q343 217 333 232 Q323 247 310 255 Q297 263 280 266.5 Q263 270 239 270 L209 270 L209 89 Z M209 311 L239 311 Q321 311 361 348 Q398 382 398 449 Q398 513 367 545 Q331 582 246 582 L209 582 L209 311 Z " />
<glyph glyph-name="S" unicode="S" horiz-adv-x="507" d="M401 470 Q393 534 360.5 566 Q328 598 277 598 Q229 598 195.5 571 Q162 544 162 496 Q162 460 183.5 434 Q205 408 236.5 386.5 Q268 365 305.5 345 Q343 325 374.5 301 Q406 277 427.5 246 Q449 215 449 171 Q449 135 436 101 Q423 67 397 41 Q371 15 329.5 -0.5 Q288 -16 231 -16 Q187 -16 146 -8.5 Q105 -1 73 10 L73 162 L100 162 Q103 126 115.5 100 Q128 74 146 57.5 Q164 41 187 33.5 Q210 26 235 26 Q292 26 323.5 58 Q355 90 355 139 Q355 175 333.5 200 Q312 225 280.5 245.5 Q249 266 211.5 285.5 Q174 305 142.5 329.5 Q111 354 89.5 387 Q68 420 68 468 Q68 500 80 528.5 Q92 557 114 580 Q141 608 183.5 624 Q226 640 280 640 Q315 640 347.5 634.5 Q380 629 420 626 Q420 614 420.5 593.5 Q421 573 422.5 550.5 Q424 528 425 506 Q426 484 428 470 L401 470 Z " />
<glyph glyph-name="T" unicode="T" horiz-adv-x="575" d="M548 625 Q548 612 548.5 591.5 Q549 571 550 549 Q551 527 552.5 506.5 Q554 486 555 473 L530 473 Q519 512 508.5 534.5 Q498 557 483 568 Q468 579 446 581.5 Q424 584 390 584 L339 584 L339 89 Q339 61 347.5 49.5 Q356 38 384 29 L406 22 L406 0 Q380 0 349.5 1.5 Q319 3 293 3 Q279 3 262.5 2.5 Q246 2 229 1.5 Q212 1 196.5 0.5 Q181 0 170 0 L170 22 L236 42 L236 584 L185 584 Q151 584 129 581.5 Q107 579 92 568 Q77 557 66.5 534.5 Q56 512 45 473 L20 473 Q21 486 22.5 506.5 Q24 527 25 549 Q26 571 26.5 591.5 Q27 612 27 625 L548 625 Z " />
<glyph glyph-name="U" unicode="U" horiz-adv-x="662" d="M203 233 Q203 173 213 136.5 Q223 100 245 77 Q284 35 350 35 Q416 35 457 74 Q507 122 507 233 L507 540 Q507 567 498.5 578 Q490 589 462 597 L440 603 L440 625 Q466 625 487.5 624 Q509 623 529 623 Q549 623 577 624 Q605 625 628 625 L628 603 L562 583 L562 224 Q562 162 547 118.5 Q532 75 504 46 Q475 15 431.5 -0.5 Q388 -16 335 -16 Q276 -16 232 1 Q188 18 159 49 Q100 112 100 231 L100 536 Q100 564 91.5 575.5 Q83 587 55 596 L33 603 L33 625 Q59 625 89 623.5 Q119 622 145 622 Q158 622 175 622.5 Q192 623 209.5 623.5 Q227 624 242.5 624.5 Q258 625 269 625 L269 603 L203 583 L203 233 Z " />
<glyph glyph-name="V" unicode="V" horiz-adv-x="603" d="M602 603 Q584 601 571 598 Q558 595 549 588 Q540 581 533.5 570 Q527 559 521 542 L332 -1 L288 -1 L75 538 Q68 555 62 565.5 Q56 576 48 582.5 Q40 589 27 593.5 Q14 598 -6 603 L-6 625 Q5 625 20.5 624.5 Q36 624 52 623.5 Q68 623 83.5 622.5 Q99 622 110 622 Q123 622 139.5 622.5 Q156 623 171.5 623.5 Q187 624 201 624.5 Q215 625 224 625 L224 603 L163 586 L332 150 L483 588 L426 603 L426 625 Q441 625 469.5 623.5 Q498 622 520 622 Q541 622 564 623.5 Q587 625 602 625 L602 603 L602 603 Z " />
<glyph glyph-name="W" unicode="W" horiz-adv-x="916" d="M75 538 Q69 556 63 566.5 Q57 577 48.5 583.5 Q40 590 27 594 Q14 598 -6 603 L-6 625 Q5 625 20.5 624.5 Q36 624 52 623.5 Q68 623 83.5 622.5 Q99 622 110 622 Q121 622 136.5 622.5 Q152 623 168.5 623.5 Q185 624 199.5 624.5 Q214 625 223 625 L223 603 L162 585 L317 151 L439 481 L419 540 Q413 556 407.5 566.5 Q402 577 393.5 584 Q385 591 373 595 Q361 599 343 603 L343 625 Q349 625 363 624.5 Q377 624 394 623.5 Q411 623 426.5 622.5 Q442 622 451 622 Q458 622 474 622.5 Q490 623 507.5 623.5 Q525 624 540.5 624.5 Q556 625 563 625 L563 603 L500 588 L650 153 L793 588 L730 603 L730 625 Q731 625 743 624.5 Q755 624 771 623.5 Q787 623 803.5 622.5 Q820 622 829 622 Q838 622 849.5 622.5 Q861 623 873 623.5 Q885 624 896 624.5 Q907 625 915 625 L915 603 Q894 601 881 597 Q868 593 859 586.5 Q850 580 844.5 569 Q839 558 833 542 L653 -1 L607 -1 L465 406 L316 -1 L270 -1 L75 538 Z " />
<glyph glyph-name="X" unicode="X" horiz-adv-x="616" d="M290 250 L153 34 L206 22 L206 0 Q183 0 158 1.5 Q133 3 109 3 Q86 3 58.5 1.5 Q31 0 11 0 L11 22 Q56 27 81 41 Q106 55 127 87 L261 294 L88 551 Q72 575 53.5 586.5 Q35 598 2 603 L2 625 Q19 625 52 623.5 Q85 622 117 622 Q156 622 186.5 623.5 Q217 625 242 625 L242 603 L182 589 L320 383 L451 591 L399 603 L399 625 Q422 625 446.5 623.5 Q471 622 495 622 Q518 622 541 623.5 Q564 625 584 625 L584 603 Q563 601 548 597 Q533 593 521 586.5 Q509 580 499 569 Q489 558 478 541 L349 339 L528 74 Q543 51 562 39 Q581 27 614 22 L614 0 Q597 0 564 1.5 Q531 3 499 3 Q460 3 429 1.5 Q398 0 373 0 L373 22 L434 36 L290 250 Z " />
<glyph glyph-name="Y" unicode="Y" horiz-adv-x="567" d="M338 89 Q338 61 346.5 49.5 Q355 38 383 29 L405 22 L405 0 Q379 0 348.5 1.5 Q318 3 292 3 Q278 3 261.5 2.5 Q245 2 228 1.5 Q211 1 195.5 0.5 Q180 0 169 0 L169 22 L235 42 L235 250 L79 543 Q71 558 63.5 568 Q56 578 47.5 584.5 Q39 591 27.5 595 Q16 599 0 603 L0 625 Q11 625 26 624.5 Q41 624 57 623.5 Q73 623 87 622.5 Q101 622 110 622 Q121 622 136.5 622.5 Q152 623 168.5 623.5 Q185 624 200 624.5 Q215 625 225 625 L225 603 L166 589 L314 308 L449 588 L394 603 L394 625 Q395 625 405.5 624.5 Q416 624 430.5 623.5 Q445 623 460 622.5 Q475 622 484 622 Q504 622 526.5 623 Q549 624 564 625 L564 603 Q545 601 533 597.5 Q521 594 512.5 587.5 Q504 581 497 570.5 Q490 560 481 542 L338 246 L338 89 Z " />
<glyph glyph-name="Z" unicode="Z" horiz-adv-x="555" d="M495 149 Q492 114 490 71.5 Q488 29 488 0 L52 0 L52 36 L383 584 L136 584 L87 477 L64 477 Q65 489 66 508 Q67 527 67.5 548 Q68 569 68.5 589.5 Q69 610 69 625 L501 625 L501 589 L169 40 L344 40 Q376 40 397.5 45 Q419 50 433 64 Q459 88 469 149 L495 149 L495 149 Z " />
<glyph glyph-name="a" unicode="a" horiz-adv-x="473" d="M452 19 Q437 5 415 -3.5 Q393 -12 371 -12 Q348 -12 328.5 -3 Q309 6 301 29 Q280 10 251 -3 Q222 -16 186 -16 Q158 -16 133 -7 Q108 2 88.5 19.5 Q69 37 57.5 62 Q46 87 46 120 Q46 162 66 192 Q86 222 120 240.5 Q154 259 199 267.5 Q244 276 294 276 L294 304 Q294 333 289.5 351 Q285 369 276 382 Q258 408 220 408 Q179 408 151 383 Q123 358 106 316 L67 332 Q87 386 129 423 Q171 460 240 460 Q278 460 306 449.5 Q334 439 352 419 Q390 378 390 297 L390 75 Q390 36 421 36 Q436 36 452 44 L452 19 Z M294 240 L289 240 Q257 240 230.5 233.5 Q204 227 184.5 213.5 Q165 200 154 178.5 Q143 157 143 126 Q143 83 163.5 58.5 Q184 34 219 34 Q240 34 260 43 Q280 52 294 66 L294 240 Z " />
<glyph glyph-name="b" unicode="b" horiz-adv-x="516" d="M73 584 Q73 608 66 618 Q59 628 37 636 L16 644 L16 665 Q68 665 105.5 666 Q143 667 169 670 L169 392 Q195 422 231 441 Q267 460 306 460 Q339 460 368 447 Q397 434 418 411 Q448 379 462.5 331 Q477 283 477 226 Q477 169 460 122 Q443 75 409 43 Q380 15 339.5 -0.5 Q299 -16 245 -16 Q200 -16 155 -5.5 Q110 5 73 24 L73 584 Z M169 56 Q183 44 205 36.5 Q227 29 250 29 Q283 29 307 43.5 Q331 58 346.5 84 Q362 110 369 145.5 Q376 181 376 224 Q376 259 371 291 Q366 323 354.5 348 Q343 373 324 387.5 Q305 402 278 402 Q250 402 221 385 Q192 368 169 344 L169 56 Z " />
<glyph glyph-name="c" unicode="c" horiz-adv-x="439" d="M412 88 Q387 42 341.5 13 Q296 -16 237 -16 Q192 -16 154.5 0.5 Q117 17 90.5 48 Q64 79 49.5 123 Q35 167 35 221 Q35 275 51.5 319 Q68 363 98 394.5 Q128 426 169.5 443 Q211 460 262 460 Q297 460 330.5 454 Q364 448 388 446 Q388 431 388 411 Q388 391 388.5 370.5 Q389 350 389.5 331.5 Q390 313 391 301 L366 301 Q361 355 335 385.5 Q309 416 266 416 Q206 416 171 366 Q136 316 136 225 Q136 132 171 87 Q206 42 259 42 Q297 42 329.5 61 Q362 80 385 110 L412 88 Z " />
<glyph glyph-name="d" unicode="d" horiz-adv-x="529" d="M346 584 Q346 608 339 618 Q332 628 310 636 L289 644 L289 665 Q341 665 378.5 666 Q416 667 442 670 L442 82 Q442 61 448.5 48.5 Q455 36 473 36 Q481 36 491.5 38.5 Q502 41 509 44 L509 19 Q495 5 472 -3.5 Q449 -12 426 -12 Q397 -12 378 2.5 Q359 17 352 44 Q331 19 295 1.5 Q259 -16 219 -16 Q180 -16 146.5 1 Q113 18 88.5 49 Q64 80 50 122 Q36 164 36 215 Q36 270 52.5 315 Q69 360 96.5 392.5 Q124 425 161 442.5 Q198 460 240 460 Q269 460 296.5 449 Q324 438 346 421 L346 584 Z M346 376 Q305 405 258 405 Q233 405 211 393.5 Q189 382 172.5 359 Q156 336 146.5 301.5 Q137 267 137 220 Q137 136 166.5 90 Q196 44 251 44 Q280 44 304 55.5 Q328 67 346 85 L346 376 Z " />
<glyph glyph-name="e" unicode="e" horiz-adv-x="457" d="M411 89 Q387 43 341 13.5 Q295 -16 234 -16 Q187 -16 150 3 Q113 22 87.5 54.5 Q62 87 49 130.5 Q36 174 36 223 Q36 277 51 321 Q66 365 92 395.5 Q118 426 155.5 443 Q193 460 238 460 Q317 460 366.5 410 Q416 360 416 266 Q416 260 416 251.5 Q416 243 415 234 L136 234 Q136 138 169 90 Q202 42 262 42 Q300 42 331 62 Q362 82 383 111 L411 89 Z M323 273 Q322 340 300.5 377.5 Q279 415 237 415 Q192 415 167 375 Q142 335 138 273 L323 273 Z " />
<glyph glyph-name="f" unicode="f" horiz-adv-x="310" d="M144 3 Q134 3 119.5 2.5 Q105 2 89.5 1.5 Q74 1 59.5 0.5 Q45 0 34 0 L34 20 L90 39 L90 405 L22 405 L22 444 L90 444 L90 451 Q91 556 133 618 Q175 680 258 680 Q278 680 298 675.5 Q318 671 334.5 662.5 Q351 654 361 642.5 Q371 631 371 617 Q371 599 358.5 581.5 Q346 564 330 564 Q317 564 306.5 576 Q296 588 285.5 603 Q275 618 263 630 Q251 642 236 642 Q222 642 212.5 632.5 Q203 623 197 606 Q191 589 188.5 565.5 Q186 542 186 514 L186 444 L302 444 L294 405 L186 405 L186 80 Q186 58 191.5 47.5 Q197 37 218 30 L251 20 L251 0 Q227 1 195.5 2 Q164 3 144 3 Z " />
<glyph glyph-name="g" unicode="g" horiz-adv-x="479" d="M420 298 Q420 259 405.5 229 Q391 199 365.5 179 Q340 159 306 148.5 Q272 138 234 138 Q182 138 140 156 Q132 143 132 128 Q132 105 155.5 94.5 Q179 84 214 79 Q249 74 290.5 69 Q332 64 367 50.5 Q402 37 425.5 11.5 Q449 -14 449 -61 Q449 -104 429 -136.5 Q409 -169 376 -191 Q343 -213 302 -224 Q261 -235 219 -235 Q181 -235 145 -226.5 Q109 -218 81.5 -202 Q54 -186 37.5 -162 Q21 -138 21 -108 Q21 -86 29.5 -68 Q38 -50 52.5 -35.5 Q67 -21 85 -10.5 Q103 0 121 7 Q95 18 79.5 37 Q64 56 64 89 Q64 115 77.5 136.5 Q91 158 111 172 Q82 192 66 223 Q50 254 50 297 Q50 336 65 366.5 Q80 397 105.5 418 Q131 439 164.5 449.5 Q198 460 236 460 Q287 460 330 440 Q341 440 359 441.5 Q377 443 396.5 445.5 Q416 448 434.5 450.5 Q453 453 466 455 L466 398 L445 398 Q425 398 408.5 399 Q392 400 381 402 Q398 382 409 356 Q420 330 420 298 Z M383 -91 Q383 -64 361.5 -50.5 Q340 -37 307 -30 Q274 -23 234.5 -19 Q195 -15 160 -6 Q139 -20 126 -43.5 Q113 -67 113 -93 Q113 -133 145.5 -159 Q178 -185 237 -185 Q267 -185 293.5 -177 Q320 -169 340 -156 Q360 -143 371.5 -126 Q383 -109 383 -91 Z M326 299 Q326 350 303 383.5 Q280 417 236 417 Q191 417 167.5 384.5 Q144 352 144 299 Q144 247 166 214 Q188 181 234 181 Q280 181 303 214.5 Q326 248 326 299 Z " />
<glyph glyph-name="h" unicode="h" horiz-adv-x="548" d="M468 80 Q468 57 474 47 Q480 37 498 30 L524 20 L524 0 Q500 1 473 2 Q446 3 426 3 Q415 3 401 2.5 Q387 2 371.5 1.5 Q356 1 341.5 0.5 Q327 0 316 0 L316 20 L372 39 L372 283 Q372 312 369 333 Q366 354 357 368 Q338 398 297 398 Q265 398 234 380.5 Q203 363 180 336 L180 80 Q180 57 186 47 Q192 37 210 30 L236 20 L236 0 Q212 1 185 2 Q158 3 138 3 Q127 3 113 2.5 Q99 2 83.5 1.5 Q68 1 53.5 0.5 Q39 0 28 0 L28 20 L84 39 L84 584 Q84 608 77 618 Q70 628 48 636 L27 644 L27 665 Q79 665 116.5 666 Q154 667 180 670 L180 386 Q212 421 248.5 440.5 Q285 460 327 460 Q358 460 383 451 Q408 442 425 425 Q448 402 458 371.5 Q468 341 468 298 L468 80 Z " />
<glyph glyph-name="i" unicode="i" horiz-adv-x="269" d="M185 80 Q185 57 191 47 Q197 37 215 30 L241 20 L241 0 Q217 1 190 2 Q163 3 143 3 Q132 3 118 2.5 Q104 2 88.5 1.5 Q73 1 58.5 0.5 Q44 0 33 0 L33 20 L89 39 L89 363 Q89 387 82 397 Q75 407 53 415 L32 423 L32 444 Q84 444 121.5 445 Q159 446 185 449 L185 80 Z M132 520 Q109 520 92.5 536 Q76 552 76 577 Q76 602 92.5 618 Q109 634 132 634 Q155 634 171.5 618 Q188 602 188 577 Q188 552 171.5 536 Q155 520 132 520 Z " />
<glyph glyph-name="j" unicode="j" horiz-adv-x="257" d="M183 -13 Q183 -67 172 -103 Q161 -139 136 -166 Q93 -213 5 -234 L-3 -204 Q21 -194 38.5 -180 Q56 -166 66.5 -145.5 Q77 -125 82 -98 Q87 -71 87 -33 L87 363 Q87 387 80 397 Q73 407 51 415 L30 423 L30 444 Q82 444 119.5 445 Q157 446 183 449 L183 -13 Z M130 520 Q107 520 90.5 536 Q74 552 74 577 Q74 602 90.5 618 Q107 634 130 634 Q153 634 169.5 618 Q186 602 186 577 Q186 552 169.5 536 Q153 520 130 520 Z " />
<glyph glyph-name="k" unicode="k" horiz-adv-x="492" d="M180 270 L348 412 L308 424 L308 444 Q323 444 349 443 Q375 442 395 442 Q414 442 438 443 Q462 444 474 444 L474 424 Q456 421 440.5 416 Q425 411 407 401 Q389 391 366.5 375 Q344 359 314 334 L276 303 L402 93 Q412 76 420 65 Q428 54 436 46.5 Q444 39 454 34 Q464 29 478 25 L496 20 L496 0 L421 0 Q397 0 381.5 3.5 Q366 7 352 18 Q343 26 333.5 37.5 Q324 49 312 69 L207 246 L180 221 L180 80 Q180 57 186 47 Q192 37 210 30 L236 20 L236 0 Q212 1 185 2 Q158 3 138 3 Q127 3 113 2.5 Q99 2 83.5 1.5 Q68 1 53.5 0.5 Q39 0 28 0 L28 20 L84 39 L84 584 Q84 608 77 618 Q70 628 48 636 L27 644 L27 665 Q79 665 116.5 666 Q154 667 180 670 L180 270 Z " />
<glyph glyph-name="l" unicode="l" horiz-adv-x="263" d="M180 80 Q180 57 186 47 Q192 37 210 30 L236 20 L236 0 Q212 1 185 2 Q158 3 138 3 Q127 3 113 2.5 Q99 2 83.5 1.5 Q68 1 53.5 0.5 Q39 0 28 0 L28 20 L84 39 L84 584 Q84 608 77 618 Q70 628 48 636 L27 644 L27 665 Q79 665 116.5 666 Q154 667 180 670 L180 80 Z " />
<glyph glyph-name="m" unicode="m" horiz-adv-x="828" d="M467 80 Q467 57 473 47 Q479 37 497 30 L523 20 L523 0 Q499 1 472 2 Q445 3 425 3 Q414 3 400 2.5 Q386 2 371 1.5 Q356 1 342 0.5 Q328 0 317 0 L317 20 L371 39 L371 283 Q371 312 368 333 Q365 354 356 368 Q337 398 298 398 Q269 398 238.5 381 Q208 364 185 336 L185 80 Q185 57 191 47 Q197 37 215 30 L241 20 L241 0 Q217 1 190 2 Q163 3 143 3 Q132 3 118 2.5 Q104 2 88.5 1.5 Q73 1 58.5 0.5 Q44 0 33 0 L33 20 L89 39 L89 363 Q89 387 82 397 Q75 407 53 415 L32 423 L32 444 Q84 444 121.5 445 Q159 446 185 449 L185 386 Q217 421 253 440.5 Q289 460 328 460 Q358 460 382.5 451 Q407 442 424 425 Q444 404 455 376 Q490 417 530.5 438.5 Q571 460 609 460 Q639 460 663.5 451 Q688 442 705 425 Q728 402 738 371.5 Q748 341 748 298 L748 80 Q748 57 754 47 Q760 37 778 30 L804 20 L804 0 Q780 1 753 2 Q726 3 706 3 Q695 3 681 2.5 Q667 2 652 1.5 Q637 1 623 0.5 Q609 0 598 0 L598 20 L652 39 L652 283 Q652 312 649 333 Q646 354 637 368 Q618 398 579 398 Q551 398 520.5 381.5 Q490 365 464 339 Q467 319 467 298 L467 80 Z " />
<glyph glyph-name="n" unicode="n" horiz-adv-x="553" d="M473 80 Q473 57 479 47 Q485 37 503 30 L529 20 L529 0 Q505 1 478 2 Q451 3 431 3 Q420 3 406 2.5 Q392 2 376.5 1.5 Q361 1 346.5 0.5 Q332 0 321 0 L321 20 L377 39 L377 283 Q377 312 374 333 Q371 354 362 368 Q343 398 302 398 Q270 398 239 380.5 Q208 363 185 336 L185 80 Q185 57 191 47 Q197 37 215 30 L241 20 L241 0 Q217 1 190 2 Q163 3 143 3 Q132 3 118 2.5 Q104 2 88.5 1.5 Q73 1 58.5 0.5 Q44 0 33 0 L33 20 L89 39 L89 363 Q89 387 82 397 Q75 407 53 415 L32 423 L32 444 Q84 444 121.5 445 Q159 446 185 449 L185 386 Q217 421 253.5 440.5 Q290 460 332 460 Q363 460 388 451 Q413 442 430 425 Q453 402 463 371.5 Q473 341 473 298 L473 80 Z " />
<glyph glyph-name="o" unicode="o" horiz-adv-x="506" d="M471 222 Q471 171 456.5 127.5 Q442 84 414 52 Q386 20 345.5 2 Q305 -16 253 -16 Q201 -16 160.5 2 Q120 20 92 52 Q64 84 49.5 127.5 Q35 171 35 222 Q35 273 49.5 316.5 Q64 360 92 392 Q120 424 160.5 442 Q201 460 253 460 Q305 460 345.5 442 Q386 424 414 392 Q442 360 456.5 316.5 Q471 273 471 222 Z M370 222 Q370 260 364 295 Q358 330 344 356.5 Q330 383 308 399 Q286 415 253 415 Q220 415 198 399 Q176 383 162 356.5 Q148 330 142 295 Q136 260 136 222 Q136 184 142 149 Q148 114 162 87.5 Q176 61 198 45 Q220 29 253 29 Q286 29 308 45 Q330 61 344 87.5 Q358 114 364 149 Q370 184 370 222 Z " />
<glyph glyph-name="p" unicode="p" horiz-adv-x="528" d="M285 402 Q254 402 227.5 385.5 Q201 369 181 347 L181 73 Q199 56 223.5 46 Q248 36 272 36 Q308 36 330 54 Q352 72 365 100 Q378 128 382.5 161 Q387 194 387 224 Q387 269 379.5 302.5 Q372 336 358 359 Q332 402 285 402 Z M181 -140 Q181 -162 186.5 -172.5 Q192 -183 213 -190 L246 -200 L246 -220 Q222 -219 190.5 -218 Q159 -217 139 -217 Q128 -217 114 -217.5 Q100 -218 84.5 -218.5 Q69 -219 54.5 -219.5 Q40 -220 29 -220 L29 -200 L85 -181 L85 363 Q85 387 78 397 Q71 407 49 415 L28 423 L28 444 Q80 444 117.5 445 Q155 446 181 449 L181 394 Q203 420 237.5 440 Q272 460 313 460 Q355 460 387.5 441.5 Q420 423 442.5 391 Q465 359 476.5 316 Q488 273 488 224 Q488 175 475 131.5 Q462 88 437.5 55 Q413 22 377.5 3 Q342 -16 298 -16 Q266 -16 235.5 -4 Q205 8 181 28 L181 -140 Z " />
<glyph glyph-name="q" unicode="q" horiz-adv-x="516" d="M443 -139 Q443 -163 450 -173 Q457 -183 479 -191 L500 -199 L500 -220 Q448 -220 410.5 -221 Q373 -222 347 -225 L347 37 Q324 12 291 -2 Q258 -16 225 -16 Q180 -16 145 1 Q110 18 86.5 49 Q63 80 51 122 Q39 164 39 215 Q39 273 56.5 320.5 Q74 368 107 400 Q136 429 178 444.5 Q220 460 273 460 Q320 460 362.5 448 Q405 436 443 416 L443 -139 Z M253 43 Q279 43 304.5 54.5 Q330 66 347 86 L347 391 Q333 402 312.5 408.5 Q292 415 270 415 Q204 415 172 362 Q140 309 140 218 Q140 137 168 90 Q196 43 253 43 Z " />
<glyph glyph-name="r" unicode="r" horiz-adv-x="363" d="M250 0 Q226 1 194.5 2 Q163 3 143 3 Q132 3 118 2.5 Q104 2 88.5 1.5 Q73 1 58.5 0.5 Q44 0 33 0 L33 20 L89 39 L89 363 Q89 387 82 397 Q75 407 53 415 L32 423 L32 444 Q84 444 121.5 445 Q159 446 185 449 L185 383 Q208 415 237 437.5 Q266 460 298 460 Q323 460 341 447 Q359 434 359 414 Q359 394 346 378 Q333 362 319 362 Q310 362 303 367 Q296 372 288.5 378 Q281 384 273.5 389 Q266 394 257 394 Q238 394 220 377 Q202 360 185 335 L185 80 Q185 58 190.5 47.5 Q196 37 217 30 L250 20 L250 0 Z " />
<glyph glyph-name="s" unicode="s" horiz-adv-x="408" d="M319 319 Q311 366 287.5 393.5 Q264 421 222 421 Q187 421 164.5 402.5 Q142 384 142 356 Q142 327 167.5 307 Q193 287 241 263 Q268 249 291 235 Q314 221 330 204.5 Q346 188 355 168 Q364 148 364 122 Q364 90 351 64.5 Q338 39 316 21 Q294 3 264 -6.5 Q234 -16 200 -16 Q165 -16 126.5 -8 Q88 0 59 12 L59 133 L82 133 Q89 87 119.5 55.5 Q150 24 200 24 Q232 24 256.5 42.5 Q281 61 281 93 Q281 125 257 143.5 Q233 162 195 181 Q168 194 143 208 Q118 222 99.5 239.5 Q81 257 70 278 Q59 299 59 328 Q59 359 72 383.5 Q85 408 107 425 Q129 442 157.5 451 Q186 460 217 460 Q250 460 281.5 453.5 Q313 447 338 444 Q338 413 339 378.5 Q340 344 342 319 L319 319 Z " />
<glyph glyph-name="t" unicode="t" horiz-adv-x="338" d="M322 55 Q300 23 267.5 3.5 Q235 -16 196 -16 Q147 -16 119 12 Q86 45 86 112 L86 405 L18 405 L18 444 L86 444 L86 544 L182 573 L182 444 L302 444 L294 405 L182 405 L182 119 Q182 96 185 82 Q188 68 194 58 Q206 38 233 38 Q251 38 267.5 48.5 Q284 59 298 76 L322 55 Z " />
<glyph glyph-name="u" unicode="u" horiz-adv-x="547" d="M221 -16 Q190 -16 165 -7 Q140 2 123 19 Q100 42 90 72.5 Q80 103 80 146 L80 363 Q80 387 73 397 Q66 407 44 415 L23 423 L23 444 Q75 444 112.5 445 Q150 446 176 449 L176 161 Q176 132 179 111 Q182 90 191 76 Q210 46 251 46 Q283 46 312 63.5 Q341 81 364 108 L364 363 Q364 387 357 397 Q350 407 328 415 L307 423 L307 444 Q359 444 396.5 445 Q434 446 460 449 L460 82 Q460 61 466.5 48.5 Q473 36 491 36 Q499 36 509.5 38.5 Q520 41 527 44 L527 19 Q513 5 490 -3.5 Q467 -12 444 -12 Q411 -12 390.5 7 Q370 26 367 61 Q335 24 298.5 4 Q262 -16 221 -16 Z " />
<glyph glyph-name="v" unicode="v" horiz-adv-x="467" d="M479 424 Q461 421 449.5 417.5 Q438 414 430 408 Q422 402 416.5 392 Q411 382 405 367 L262 -2 L220 -2 L65 367 Q59 381 52.5 390 Q46 399 38 405 Q30 411 19 415 Q8 419 -8 423 L-8 444 Q17 442 43 441.5 Q69 441 94 441 Q120 441 150 441.5 Q180 442 201 444 L201 423 L150 408 L264 123 L376 410 L327 424 L327 444 Q344 443 368.5 442 Q393 441 408 441 Q446 441 479 444 L479 424 L479 424 Z " />
<glyph glyph-name="w" unicode="w" horiz-adv-x="697" d="M703 423 Q686 421 675 417.5 Q664 414 657 408 Q650 402 645 392.5 Q640 383 635 368 L514 -2 L468 -2 L363 295 L256 -2 L211 -2 L68 364 Q62 379 57 388.5 Q52 398 44.5 404 Q37 410 26.5 414 Q16 418 -2 423 L-2 444 Q7 444 20.5 443.5 Q34 443 49 442.5 Q64 442 78 441.5 Q92 441 100 441 Q110 441 124 441.5 Q138 442 152 442.5 Q166 443 179 443.5 Q192 444 202 444 L202 423 L150 409 L257 128 L340 355 Q334 373 328 384.5 Q322 396 314 403 Q306 410 295.5 414 Q285 418 270 423 L270 444 Q288 443 314 442 Q340 441 366 441 Q392 441 421.5 442 Q451 443 468 444 L468 423 L413 411 L510 129 L602 410 L554 423 L554 444 Q571 443 593.5 442 Q616 441 633 441 Q650 441 671 442 Q692 443 703 444 L703 423 L703 423 Z " />
<glyph glyph-name="x" unicode="x" horiz-adv-x="479" d="M253 281 L341 411 L293 423 L293 444 Q307 443 331 442 Q355 441 379 441 Q419 441 458 444 L458 423 Q438 420 424.5 416.5 Q411 413 400.5 406 Q390 399 380.5 388 Q371 377 359 360 L279 243 L389 84 Q400 68 408 58 Q416 48 425 41 Q434 34 446 29.5 Q458 25 478 21 L478 0 Q458 1 435 2 Q412 3 383 3 Q369 3 351.5 2.5 Q334 2 317 1.5 Q300 1 285 0.5 Q270 0 260 0 L260 21 L315 36 L224 166 L135 32 L184 21 L184 0 Q170 1 145.5 2 Q121 3 97 3 Q78 3 55 2.5 Q32 2 12 0 L12 21 Q32 24 46.5 28 Q61 32 72.5 38.5 Q84 45 94 56 Q104 67 116 84 L199 204 L93 359 Q82 375 73.5 386 Q65 397 55.5 403.5 Q46 410 33.5 414.5 Q21 419 2 423 L2 444 Q9 444 22 443.5 Q35 443 51 442.5 Q67 442 83 441.5 Q99 441 111 441 Q123 441 139 441.5 Q155 442 170 442.5 Q185 443 197.5 443.5 Q210 444 217 444 L217 423 L166 409 L253 281 Z " />
<glyph glyph-name="y" unicode="y" horiz-adv-x="469" d="M272 126 L378 410 L329 423 L329 444 Q346 443 370.5 442 Q395 441 410 441 Q448 441 481 444 L481 423 Q464 421 452.5 417.5 Q441 414 433 408 Q425 402 419 392.5 Q413 383 407 367 L229 -105 Q215 -142 201.5 -165.5 Q188 -189 173 -205 Q144 -235 104 -235 Q80 -235 62.5 -221.5 Q45 -208 45 -187 Q45 -170 55 -161.5 Q65 -153 79 -153 Q89 -153 99 -155.5 Q109 -158 124 -158 Q144 -158 159 -145.5 Q174 -133 186 -101 L225 1 L65 367 Q59 381 52.5 390 Q46 399 38 405 Q30 411 19 415 Q8 419 -8 423 L-8 444 Q17 442 43.5 441.5 Q70 441 95 441 Q121 441 151 441.5 Q181 442 202 444 L202 423 L152 408 L272 126 Z " />
<glyph glyph-name="z" unicode="z" horiz-adv-x="433" d="M153 37 L265 37 Q315 37 334 55 Q345 66 354 85 Q363 104 370 134 L392 134 Q392 120 391.5 102 Q391 84 390.5 65 Q390 46 390 29 Q390 12 390 0 L42 0 L42 30 L282 407 L121 407 L77 312 L55 312 Q56 325 56.5 342 Q57 359 57 376.5 Q57 394 57 411.5 Q57 429 57 444 L394 444 L394 415 L153 37 Z " />
<glyph glyph-name="ampersand" unicode="&#x26;" horiz-adv-x="675" d="M659 20 Q639 5 614.5 -5 Q590 -15 564 -15 Q525 -15 496 1.5 Q467 18 430 58 Q392 21 343 2.5 Q294 -16 241 -16 Q197 -16 159 -2 Q121 12 93.5 36 Q66 60 50 93 Q34 126 34 164 Q34 220 70 263 Q106 306 181 343 Q148 382 130.5 418.5 Q113 455 113 493 Q113 525 126 552 Q139 579 161 598.5 Q183 618 212 629 Q241 640 273 640 Q302 640 328.5 630.5 Q355 621 375 604 Q395 587 406.5 564.5 Q418 542 418 515 Q418 472 389 432.5 Q360 393 291 351 L457 161 Q473 192 483.5 232.5 Q494 273 498 318 L434 341 L434 364 Q452 362 477.5 361.5 Q503 361 526 361 Q546 361 569.5 361.5 Q593 362 612 364 L612 341 Q590 336 576 331.5 Q562 327 553 320 Q544 313 540 303 Q536 293 533 277 Q525 230 514 194 Q503 158 486 128 Q510 99 527 80.5 Q544 62 558 51.5 Q572 41 585 36.5 Q598 32 613 32 Q633 32 659 44 L659 20 Z M208 312 Q170 286 152 252 Q134 218 134 179 Q134 150 144 124.5 Q154 99 172 80.5 Q190 62 216 51.5 Q242 41 274 41 Q308 41 340 53 Q372 65 401 91 L208 312 Z M265 382 Q305 408 327 440.5 Q349 473 349 515 Q349 548 329 573.5 Q309 599 274 599 Q240 599 218 575 Q196 551 196 513 Q196 483 211 454 Q226 425 265 382 Z " />
<glyph glyph-name="at" unicode="&#x40;" horiz-adv-x="767" d="M515 264 Q507 237 507 219 Q507 205 514 194.5 Q521 184 538 184 Q559 184 579 201 Q599 218 614 247 Q629 276 638.5 314.5 Q648 353 648 396 Q648 439 635 476.5 Q622 514 596.5 541.5 Q571 569 533 584.5 Q495 600 446 600 Q384 600 327.5 572.5 Q271 545 228 498 Q185 451 159.5 389 Q134 327 134 258 Q134 207 149.5 164 Q165 121 195.5 89.5 Q226 58 270.5 40.5 Q315 23 374 23 Q440 23 503 45 Q566 67 619 104 L634 82 Q574 37 502 10.5 Q430 -16 348 -16 Q280 -16 224 3 Q168 22 128 57 Q88 92 66 142.5 Q44 193 44 256 Q44 332 74 401.5 Q104 471 157.5 524 Q211 577 285.5 608.5 Q360 640 450 640 Q515 640 566 621.5 Q617 603 652.5 570 Q688 537 706.5 492 Q725 447 725 394 Q725 345 709 300 Q693 255 665.5 220.5 Q638 186 601 165.5 Q564 145 522 145 Q484 145 460 162.5 Q436 180 433 208 Q413 176 381 155.5 Q349 135 312 135 Q270 135 241 164.5 Q212 194 212 248 Q212 296 231 338 Q250 380 280.5 411.5 Q311 443 349.5 461.5 Q388 480 428 480 Q448 480 468.5 474 Q489 468 504 456 L522 480 L573 471 L576 467 L515 264 Z M345 185 Q375 185 401.5 217.5 Q428 250 452 330 L480 423 Q464 441 435 441 Q408 441 383.5 422.5 Q359 404 341 375 Q323 346 312 311.5 Q301 277 301 244 Q301 215 313 200 Q325 185 345 185 Z " />
<glyph glyph-name="exclam" unicode="&#x21;" horiz-adv-x="237" d="M132 169 L106 169 L72 515 Q70 531 69 547 Q68 563 68 573 Q68 603 80.5 621.5 Q93 640 119 640 Q145 640 157.5 621.5 Q170 603 170 573 Q170 563 169 547 Q168 531 166 515 L132 169 Z M118 -16 Q95 -16 78.5 0 Q62 16 62 41 Q62 66 78.5 82 Q95 98 118 98 Q141 98 157.5 82 Q174 66 174 41 Q174 16 157.5 0 Q141 -16 118 -16 Z " />
<glyph glyph-name="exclamdown" unicode="&#xa1;" horiz-adv-x="237" d="M132 275.021 L106 275.021 L72 -70.9371 Q70 -86.9352 69 -102.933 Q68 -118.931 68 -128.93 Q68 -158.926 80.5 -177.424 Q93 -195.922 119 -195.922 Q145 -195.922 157.5 -177.424 Q170 -158.926 170 -128.93 Q170 -118.931 169 -102.933 Q168 -86.9352 166 -70.9371 L132 275.021 Z M118 459.998 Q95 459.998 78.5 444 Q62 428.002 62 403.005 Q62 378.008 78.5 362.01 Q95 346.012 118 346.012 Q141 346.012 157.5 362.01 Q174 378.008 174 403.005 Q174 428.002 157.5 444 Q141 459.998 118 459.998 Z " />
<glyph glyph-name="question" unicode="&#x3f;" horiz-adv-x="383" d="M146 152 Q149 204 164.5 246.5 Q180 289 197.5 327.5 Q215 366 229.5 402.5 Q244 439 244 480 Q244 528 221 556 Q198 584 156 584 Q124 584 98 568.5 Q72 553 51 526 L23 546 Q46 588 88.5 614 Q131 640 185 640 Q218 640 247.5 629 Q277 618 299 597.5 Q321 577 333.5 548.5 Q346 520 346 485 Q346 454 335.5 428.5 Q325 403 308.5 379.5 Q292 356 272 332.5 Q252 309 233.5 282.5 Q215 256 200.5 224 Q186 192 180 152 L146 152 Z M109 38 Q109 61 124.5 77 Q140 93 163 93 Q186 93 202 77 Q218 61 218 38 Q218 15 202 -0.5 Q186 -16 163 -16 Q140 -16 124.5 -0.5 Q109 15 109 38 Z " />
<glyph glyph-name="questiondown" unicode="&#xbf;" horiz-adv-x="383" d="M237.018 292.019 Q234.018 240.025 218.52 197.53 Q203.022 155.035 185.524 116.54 Q168.026 78.0447 153.528 41.5491 Q139.03 5.05359 139.03 -35.9414 Q139.03 -83.9355 162.027 -111.932 Q185.024 -139.929 227.019 -139.929 Q259.015 -139.929 285.012 -124.431 Q311.009 -108.932 332.006 -81.9358 L360.003 -101.933 Q337.006 -143.928 294.511 -169.925 Q252.016 -195.922 198.023 -195.922 Q165.027 -195.922 135.53 -184.923 Q106.034 -173.925 84.0365 -153.427 Q62.0392 -132.93 49.5407 -104.433 Q37.0422 -75.9365 37.0422 -40.9408 Q37.0422 -9.94458 47.541 15.5523 Q58.0397 41.0492 74.5377 64.5463 Q91.0356 88.0435 111.033 111.541 Q131.031 135.038 149.529 161.534 Q168.026 188.031 182.524 220.027 Q197.023 252.023 203.022 292.019 L237.018 292.019 Z M274.013 406.005 Q274.013 383.007 258.515 367.009 Q243.017 351.011 220.02 351.011 Q197.023 351.011 181.025 367.009 Q165.027 383.007 165.027 406.005 Q165.027 429.002 181.025 444.5 Q197.023 459.998 220.02 459.998 Q243.017 459.998 258.515 444.5 Q274.013 429.002 274.013 406.005 Z " />
<glyph glyph-name="asterisk" unicode="&#x2a;" horiz-adv-x="381" d="M200 450 Q201 433 205 415.5 Q209 398 213 382 Q217 366 220 352.5 Q223 339 223 330 Q223 315 214.5 304.5 Q206 294 191 294 Q176 294 167.5 304.5 Q159 315 159 330 Q159 339 162 352.5 Q165 366 168.5 382 Q172 398 175.5 415.5 Q179 433 181 450 Q166 440 152.5 427.5 Q139 415 126 403 Q106 384 93.5 374.5 Q81 365 68 365 Q54 365 45.5 375 Q37 385 37 397 Q37 414 57 426 Q64 430 77.5 434.5 Q91 439 106.5 444 Q122 449 139 454.5 Q156 460 171 467 Q156 474 139 479.5 Q122 485 106.5 490 Q91 495 77.5 499 Q64 503 57 508 Q37 520 37 537 Q37 549 45.5 559 Q54 569 68 569 Q81 569 93.5 559.5 Q106 550 126 531 Q139 519 152.5 506.5 Q166 494 181 484 Q179 501 175.5 518.5 Q172 536 168.5 552 Q165 568 162 581.5 Q159 595 159 604 Q159 619 167.5 629.5 Q176 640 191 640 Q206 640 214.5 629.5 Q223 619 223 604 Q223 595 220 581.5 Q217 568 213 552 Q209 536 205 518.5 Q201 501 200 484 Q215 494 228.5 506.5 Q242 519 255 531 Q275 550 287.5 559.5 Q300 569 313 569 Q327 569 335.5 559 Q344 549 344 537 Q344 520 324 508 Q316 503 303 499 Q290 495 274.5 490 Q259 485 242 479.5 Q225 474 210 467 Q225 460 242 454.5 Q259 449 274.5 444 Q290 439 303 434.5 Q316 430 324 426 Q344 414 344 397 Q344 385 335.5 375 Q327 365 313 365 Q300 365 287.5 374.5 Q275 384 255 403 Q242 415 228.5 427.5 Q215 440 200 450 Z " />
<glyph glyph-name="period" unicode="&#x2e;" horiz-adv-x="212" d="M106 -16 Q83 -16 66.5 0 Q50 16 50 41 Q50 66 66.5 82 Q83 98 106 98 Q129 98 145.5 82 Q162 66 162 41 Q162 16 145.5 0 Q129 -16 106 -16 Z " />
<glyph glyph-name="comma" unicode="&#x2c;" horiz-adv-x="212" d="M160 17 Q160 -24 138.5 -66.5 Q117 -109 66 -137 L52 -118 Q70 -104 87 -81.5 Q104 -59 104 -35 Q104 -17 94.5 -6.5 Q85 4 74 13 Q63 22 53.5 31 Q44 40 44 54 Q44 74 58.5 86 Q73 98 93 98 Q124 98 142 73.5 Q160 49 160 17 Z " />
<glyph glyph-name="colon" unicode="&#x3a;" horiz-adv-x="212" d="M106 -16 Q83 -16 66.5 0 Q50 16 50 41 Q50 66 66.5 82 Q83 98 106 98 Q129 98 145.5 82 Q162 66 162 41 Q162 16 145.5 0 Q129 -16 106 -16 Z M106 256 Q83 256 66.5 272 Q50 288 50 313 Q50 338 66.5 354 Q83 370 106 370 Q129 370 145.5 354 Q162 338 162 313 Q162 288 145.5 272 Q129 256 106 256 Z " />
<glyph glyph-name="semicolon" unicode="&#x3b;" horiz-adv-x="212" d="M106 256 Q83 256 66.5 272 Q50 288 50 313 Q50 338 66.5 354 Q83 370 106 370 Q129 370 145.5 354 Q162 338 162 313 Q162 288 145.5 272 Q129 256 106 256 Z M164 17 Q164 -24 142.5 -66.5 Q121 -109 70 -137 L56 -118 Q74 -104 91 -81.5 Q108 -59 108 -35 Q108 -17 98.5 -6.5 Q89 4 78 13 Q67 22 57.5 31 Q48 40 48 54 Q48 74 62.5 86 Q77 98 97 98 Q128 98 146 73.5 Q164 49 164 17 Z " />
<glyph glyph-name="ellipsis" unicode="&#x2026;" horiz-adv-x="636" d="M106 -16 Q83 -16 66.5 0 Q50 16 50 41 Q50 66 66.5 82 Q83 98 106 98 Q129 98 145.5 82 Q162 66 162 41 Q162 16 145.5 0 Q129 -16 106 -16 Z M318 -16 Q295 -16 278.5 0 Q262 16 262 41 Q262 66 278.5 82 Q295 98 318 98 Q341 98 357.5 82 Q374 66 374 41 Q374 16 357.5 0 Q341 -16 318 -16 Z M530 -16 Q507 -16 490.5 0 Q474 16 474 41 Q474 66 490.5 82 Q507 98 530 98 Q553 98 569.5 82 Q586 66 586 41 Q586 16 569.5 0 Q553 -16 530 -16 Z " />
<glyph glyph-name="periodcentered" unicode="&#xb7;" horiz-adv-x="212" d="M106 163 Q83 163 66.5 179 Q50 195 50 220 Q50 245 66.5 261 Q83 277 106 277 Q129 277 145.5 261 Q162 245 162 220 Q162 195 145.5 179 Q129 163 106 163 Z " />
<glyph glyph-name="uni22C5" unicode="&#x22c5;" horiz-adv-x="212" d="M106 163 Q83 163 66.5 179 Q50 195 50 220 Q50 245 66.5 261 Q83 277 106 277 Q129 277 145.5 261 Q162 245 162 220 Q162 195 145.5 179 Q129 163 106 163 Z " />
<glyph glyph-name="bullet" unicode="&#x2022;" horiz-adv-x="308" d="M263 221 Q263 174 232 144.5 Q201 115 154 115 Q107 115 76 144.5 Q45 174 45 221 Q45 268 76 297.5 Q107 327 154 327 Q201 327 232 297.5 Q263 268 263 221 Z " />
<glyph glyph-name="slash" unicode="&#x2f;" horiz-adv-x="329" d="M90 -16 L37 -16 L239 640 L292 640 L90 -16 Z " />
<glyph glyph-name="parenleft" unicode="&#x28;" horiz-adv-x="315" d="M90 312 Q90 388 106 459 Q122 530 149.5 590 Q177 650 213.5 695.5 Q250 741 290 766 L333 766 Q300 740 272.5 692.5 Q245 645 225.5 584 Q206 523 195.5 453 Q185 383 185 312 Q185 241 195.5 171 Q206 101 225.5 40 Q245 -21 272.5 -68.5 Q300 -116 333 -142 L290 -142 Q250 -117 213.5 -71.5 Q177 -26 149.5 34 Q122 94 106 165 Q90 236 90 312 Z " />
<glyph glyph-name="brokenbar" unicode="&#xa6;" horiz-adv-x="274" d="M108 345 L108 710 L166 710 L166 345 L108 345 Z M108 -265 L108 99 L166 99 L166 -265 L108 -265 Z " />
<glyph glyph-name="parenright" unicode="&#x29;" horiz-adv-x="315" d="M225 312 Q225 236 209 165 Q193 94 165.5 34 Q138 -26 101.5 -71.5 Q65 -117 25 -142 L-18 -142 Q15 -116 42.5 -68.5 Q70 -21 89.5 40 Q109 101 119.5 171 Q130 241 130 312 Q130 383 119.5 453 Q109 523 89.5 584 Q70 645 42.5 692.5 Q15 740 -18 766 L25 766 Q65 741 101.5 695.5 Q138 650 165.5 590 Q193 530 209 459 Q225 388 225 312 Z " />
<glyph glyph-name="bracketleft" unicode="&#x5b;" horiz-adv-x="310" d="M106 -142 L106 767 L302 767 L302 728 L191 728 L191 -103 L302 -103 L302 -142 L106 -142 Z " />
<glyph glyph-name="backslash" unicode="&#x5c;" horiz-adv-x="329" d="M37 640 L90 640 L292 -16 L239 -16 L37 640 Z " />
<glyph glyph-name="bracketright" unicode="&#x5d;" horiz-adv-x="310" d="M204 767 L204 -142 L8 -142 L8 -103 L119 -103 L119 728 L8 728 L8 767 L204 767 Z " />
<glyph glyph-name="braceleft" unicode="&#x7b;" horiz-adv-x="293" d="M60 327 Q93 334 109.5 354 Q126 374 126 405 Q126 425 121.5 451 Q117 477 111.5 505.5 Q106 534 101.5 563 Q97 592 97 618 Q97 654 111 680.5 Q125 707 149.5 725.5 Q174 744 208.5 754 Q243 764 285 766 L285 745 Q234 738 210 717.5 Q186 697 186 655 Q186 638 190 612.5 Q194 587 199 558 Q204 529 208.5 499.5 Q213 470 213 445 Q213 400 187 366 Q161 332 107 312 Q161 292 187 258 Q213 224 213 179 Q213 154 208.5 124.5 Q204 95 199 66 Q194 37 190 11.5 Q186 -14 186 -31 Q186 -73 210 -93.5 Q234 -114 285 -121 L285 -142 Q243 -140 208.5 -130 Q174 -120 149.5 -102 Q125 -84 111 -57 Q97 -30 97 6 Q97 32 101.5 61 Q106 90 111.5 118.5 Q117 147 121.5 173 Q126 199 126 219 Q126 283 60 297 L60 327 Z " />
<glyph glyph-name="bar" unicode="&#x7c;" horiz-adv-x="274" d="M108 -265 L108 710 L166 710 L166 -265 L108 -265 Z " />
<glyph glyph-name="braceright" unicode="&#x7d;" horiz-adv-x="293" d="M233 297 Q167 283 167 219 Q167 199 171.5 173 Q176 147 181.5 118.5 Q187 90 191.5 61 Q196 32 196 6 Q196 -30 182 -56.5 Q168 -83 143.5 -101.5 Q119 -120 84.5 -130 Q50 -140 8 -142 L8 -121 Q59 -114 83 -93.5 Q107 -73 107 -31 Q107 -14 103 11.5 Q99 37 94 66 Q89 95 84.5 124.5 Q80 154 80 179 Q80 224 106 258 Q132 292 186 312 Q132 332 106 366 Q80 400 80 445 Q80 470 84.5 499.5 Q89 529 94 558 Q99 587 103 612.5 Q107 638 107 655 Q107 697 83 717.5 Q59 738 8 745 L8 766 Q50 764 84.5 754 Q119 744 143.5 726 Q168 708 182 681 Q196 654 196 618 Q196 592 191.5 563 Q187 534 181.5 505.5 Q176 477 171.5 451 Q167 425 167 405 Q167 374 183.5 354 Q200 334 233 327 L233 297 Z " />
<glyph glyph-name="hyphen" unicode="&#x2d;" horiz-adv-x="320" d="M39 206 L39 255 L281 255 L281 206 L39 206 Z " />
<glyph glyph-name="uni00AD" unicode="&#xad;" horiz-adv-x="320" d="M39 206 L39 255 L281 255 L281 206 L39 206 Z " />
<glyph glyph-name="endash" unicode="&#x2013;" horiz-adv-x="500" d="M0 206 L0 255 L500 255 L500 206 L0 206 Z " />
<glyph glyph-name="emdash" unicode="&#x2014;" horiz-adv-x="1000" d="M0 206 L0 255 L1000 255 L1000 206 L0 206 Z " />
<glyph glyph-name="underscore" unicode="&#x5f;" horiz-adv-x="500" d="M24 -152 L24 -110 L476 -110 L476 -152 L24 -152 Z " />
<glyph glyph-name="dagger" unicode="&#x2020;" horiz-adv-x="440" d="M232 391 Q232 364 238 337 Q244 310 253 267 Q249 248 245.5 212.5 Q242 177 239.5 128.5 Q237 80 235.5 20.5 Q234 -39 234 -106 L205 -106 Q205 -39 203.5 20.5 Q202 80 199.5 128.5 Q197 177 193.5 212.5 Q190 248 186 267 Q195 310 201 337 Q207 364 207 391 Q188 390 170.5 385.5 Q153 381 137 376.5 Q121 372 106.5 368.5 Q92 365 78 365 Q57 365 45 374 Q33 383 33 400 Q33 417 45 426 Q57 435 78 435 Q92 435 106.5 431.5 Q121 428 137 423.5 Q153 419 170.5 414.5 Q188 410 207 409 Q207 434 201.5 458 Q196 482 189.5 504 Q183 526 177.5 545.5 Q172 565 172 582 Q172 607 184 623.5 Q196 640 219 640 Q242 640 254 623 Q266 606 266 582 Q266 566 261 546.5 Q256 527 249.5 505 Q243 483 237.5 458.5 Q232 434 232 409 Q251 410 268.5 414.5 Q286 419 302 423.5 Q318 428 332.5 431.5 Q347 435 361 435 Q382 435 394 426 Q406 417 406 400 Q406 383 394 374 Q382 365 361 365 Q347 365 332.5 368.5 Q318 372 302 376.5 Q286 381 268.5 385.5 Q251 390 232 391 Z " />
<glyph glyph-name="daggerdbl" unicode="&#x2021;" horiz-adv-x="370" d="M199 437 Q200 416 202 400.5 Q204 385 204 362 Q204 338 201 322.5 Q198 307 198 284 L172 284 Q172 307 169 322.5 Q166 338 166 362 Q166 385 168 400.5 Q170 416 171 437 Q142 435 117 425.5 Q92 416 69 416 Q32 416 32 446 Q32 476 69 476 Q92 476 117 466.5 Q142 457 171 455 Q170 475 165.5 493.5 Q161 512 156.5 529 Q152 546 148 561.5 Q144 577 144 592 Q144 611 154.5 625.5 Q165 640 185 640 Q205 640 215.5 625.5 Q226 611 226 592 Q226 577 222 561.5 Q218 546 213.5 529 Q209 512 204.5 493.5 Q200 475 199 455 Q228 457 253 466.5 Q278 476 301 476 Q338 476 338 446 Q338 416 301 416 Q278 416 253 425.5 Q228 435 199 437 Z M199 91 Q228 93 253 102.5 Q278 112 301 112 Q338 112 338 82 Q338 52 301 52 Q278 52 253 61.5 Q228 71 199 73 Q200 53 204.5 34.5 Q209 16 213.5 -1 Q218 -18 222 -33.5 Q226 -49 226 -64 Q226 -83 215.5 -97.5 Q205 -112 185 -112 Q165 -112 154.5 -97.5 Q144 -83 144 -64 Q144 -49 148 -33.5 Q152 -18 156.5 -1 Q161 16 165.5 34.5 Q170 53 171 73 Q142 71 117 61.5 Q92 52 69 52 Q32 52 32 82 Q32 112 69 112 Q92 112 117 102.5 Q142 93 171 91 Q170 112 168 127.5 Q166 143 166 166 Q166 190 169 205.5 Q172 221 172 244 L198 244 Q198 221 201 205.5 Q204 190 204 166 Q204 143 202 127.5 Q200 112 199 91 Z " />
<glyph glyph-name="section" unicode="&#xa7;" horiz-adv-x="433" d="M322 499 Q314 546 290.5 573.5 Q267 601 225 601 Q190 601 167.5 582.5 Q145 564 145 536 Q145 513 161.5 496.5 Q178 480 202.5 466.5 Q227 453 256 439.5 Q285 426 309.5 408 Q334 390 350.5 365.5 Q367 341 367 305 Q367 255 340 222 Q313 189 270 175 Q289 165 306.5 153 Q324 141 337.5 126 Q351 111 359 91.5 Q367 72 367 48 Q367 14 354 -12 Q341 -38 319 -56 Q297 -74 266.5 -83.5 Q236 -93 202 -93 Q167 -93 129 -85 Q91 -77 62 -65 L62 56 L85 56 Q92 10 122.5 -21.5 Q153 -53 203 -53 Q235 -53 259.5 -34.5 Q284 -16 284 16 Q284 41 267.5 58 Q251 75 226.5 88.5 Q202 102 173 115.5 Q144 129 119.5 146.5 Q95 164 78.5 188.5 Q62 213 62 249 Q62 297 91.5 330 Q121 363 166 376 Q146 386 127.5 398 Q109 410 94.5 425.5 Q80 441 71 460.5 Q62 480 62 506 Q62 537 75 562 Q88 587 109.5 604 Q131 621 159.5 630.5 Q188 640 219 640 Q253 640 284.5 634 Q316 628 341 624 Q341 593 342 558.5 Q343 524 345 499 L322 499 Z M284 271 Q284 304 260.5 324 Q237 344 210 344 Q180 344 162.5 325.5 Q145 307 145 279 Q145 246 168.5 226 Q192 206 219 206 Q249 206 266.5 224.5 Q284 243 284 271 Z " />
<glyph glyph-name="paragraph" unicode="&#xb6;" horiz-adv-x="511" d="M230 -106 L230 295 Q187 295 152 307 Q117 319 91.5 340.5 Q66 362 52 392.5 Q38 423 38 460 Q38 496 51 525 Q64 554 87 575 Q113 599 152.5 612 Q192 625 243 625 L467 625 L467 603 L397 579 L397 -106 L344 -106 L344 579 L283 579 L283 -106 L230 -106 Z " />
<glyph glyph-name="registered" unicode="&#xae;" horiz-adv-x="720" d="M418 147 Q418 156 415 170 Q412 184 406 199 L387 249 Q379 270 367 276 Q355 282 333 282 L317 282 L317 196 Q317 180 322.5 173.5 Q328 167 351 162 L351 147 Q335 147 321 147.5 Q307 148 290 148 Q273 148 253 147.5 Q233 147 216 147 L216 162 L249 172 L249 422 Q249 438 242.5 443.5 Q236 449 211 454 L211 470 L347 470 Q410 470 444 448 Q478 426 478 380 Q478 350 460 329.5 Q442 309 413 298 Q427 294 437.5 284.5 Q448 275 456 255 L474 208 Q479 195 483 187.5 Q487 180 492 175 Q497 170 504.5 167.5 Q512 165 523 162 L523 147 L418 147 Z M317 307 L329 307 Q409 307 409 376 Q409 412 388 427 Q367 442 323 442 L317 442 L317 307 Z M684 312 Q684 243 659 183 Q634 123 590 79 Q546 35 487 9.5 Q428 -16 360 -16 Q292 -16 233 9.5 Q174 35 130 79 Q86 123 61 183 Q36 243 36 312 Q36 381 61 441 Q86 501 130 545 Q174 589 233 614.5 Q292 640 360 640 Q428 640 487 614.5 Q546 589 590 545 Q634 501 659 441 Q684 381 684 312 Z M626 312 Q626 371 606 422 Q586 473 550.5 511 Q515 549 466.5 570.5 Q418 592 360 592 Q302 592 253.5 570.5 Q205 549 169.5 511 Q134 473 114 422 Q94 371 94 312 Q94 253 114 202 Q134 151 169.5 113 Q205 75 253.5 53.5 Q302 32 360 32 Q418 32 466.5 53.5 Q515 75 550.5 113 Q586 151 606 202 Q626 253 626 312 Z " />
<glyph glyph-name="copyright" unicode="&#xa9;" horiz-adv-x="720" d="M481 207 Q459 176 428.5 157.5 Q398 139 356 139 Q293 139 254 183 Q215 227 215 306 Q215 387 256.5 432.5 Q298 478 373 478 Q400 478 421 474 Q442 470 466 467 Q466 442 466.5 417 Q467 392 468 371 L449 371 Q445 403 427 425 Q409 447 374 447 Q329 447 308 411 Q287 375 287 313 Q287 250 308 215.5 Q329 181 374 181 Q400 181 422.5 193 Q445 205 464 225 L481 207 Z M684 312 Q684 243 659 183 Q634 123 590 79 Q546 35 487 9.5 Q428 -16 360 -16 Q292 -16 233 9.5 Q174 35 130 79 Q86 123 61 183 Q36 243 36 312 Q36 381 61 441 Q86 501 130 545 Q174 589 233 614.5 Q292 640 360 640 Q428 640 487 614.5 Q546 589 590 545 Q634 501 659 441 Q684 381 684 312 Z M626 312 Q626 371 606 422 Q586 473 550.5 511 Q515 549 466.5 570.5 Q418 592 360 592 Q302 592 253.5 570.5 Q205 549 169.5 511 Q134 473 114 422 Q94 371 94 312 Q94 253 114 202 Q134 151 169.5 113 Q205 75 253.5 53.5 Q302 32 360 32 Q418 32 466.5 53.5 Q515 75 550.5 113 Q586 151 606 202 Q626 253 626 312 Z " />
<glyph glyph-name="trademark" unicode="&#x2122;" horiz-adv-x="700" d="M360 389 Q360 376 367.5 371.5 Q375 367 396 362 L396 344 Q388 344 371.5 344.5 Q355 345 344 345 Q333 345 316 344.5 Q299 344 291 344 L291 362 L327 371 L327 580 Q327 593 319.5 597.5 Q312 602 291 607 L291 625 L397 625 L484 426 L574 625 L672 625 L672 607 L640 598 L640 389 Q640 376 647.5 371.5 Q655 367 676 362 L676 344 Q672 344 664 344 Q656 344 646.5 344.5 Q637 345 628.5 345 Q620 345 614 345 Q608 345 598.5 345 Q589 345 579.5 344.5 Q570 344 561 344 Q552 344 548 344 L548 362 L584 371 L584 566 L481 341 L462 341 L360 574 L360 389 Z M270 625 Q270 608 271 583.5 Q272 559 274 544 L256 544 Q251 561 247 571.5 Q243 582 236.5 588 Q230 594 218.5 596 Q207 598 188 598 L176 598 L176 389 Q176 376 184 371.5 Q192 367 213 362 L213 344 Q209 344 200.5 344 Q192 344 183 344.5 Q174 345 165 345 Q156 345 150 345 Q144 345 134.5 345 Q125 345 115.5 344.5 Q106 344 97 344 Q88 344 84 344 L84 362 L120 371 L120 598 L108 598 Q89 598 77.5 596 Q66 594 59.5 588 Q53 582 48.5 571.5 Q44 561 40 544 L22 544 Q24 559 25 583.5 Q26 608 26 625 L270 625 Z " />
<glyph glyph-name="quotedblleft" unicode="&#x201c;" horiz-adv-x="312" d="M168 486 Q168 527 189.5 569.5 Q211 612 262 640 L276 621 Q258 607 241 584.5 Q224 562 224 538 Q224 520 233.5 509.5 Q243 499 254 490 Q265 481 274.5 472 Q284 463 284 449 Q284 429 269.5 417 Q255 405 235 405 Q204 405 186 429.5 Q168 454 168 486 Z M32 486 Q32 527 53.5 569.5 Q75 612 126 640 L140 621 Q122 607 105 584.5 Q88 562 88 538 Q88 520 97.5 509.5 Q107 499 118 490 Q129 481 138.5 472 Q148 463 148 449 Q148 429 133.5 417 Q119 405 99 405 Q68 405 50 429.5 Q32 454 32 486 Z " />
<glyph glyph-name="quotedblright" unicode="&#x201d;" horiz-adv-x="312" d="M144 559 Q144 518 122.5 475.5 Q101 433 50 405 L36 424 Q54 438 71 460.5 Q88 483 88 507 Q88 525 78.5 535.5 Q69 546 58 555 Q47 564 37.5 573 Q28 582 28 596 Q28 616 42.5 628 Q57 640 77 640 Q108 640 126 615.5 Q144 591 144 559 Z M280 559 Q280 518 258.5 475.5 Q237 433 186 405 L172 424 Q190 438 207 460.5 Q224 483 224 507 Q224 525 214.5 535.5 Q205 546 194 555 Q183 564 173.5 573 Q164 582 164 596 Q164 616 178.5 628 Q193 640 213 640 Q244 640 262 615.5 Q280 591 280 559 Z " />
<glyph glyph-name="quoteleft" unicode="&#x2018;" horiz-adv-x="176" d="M32 486 Q32 527 53.5 569.5 Q75 612 126 640 L140 621 Q122 607 105 584.5 Q88 562 88 538 Q88 520 97.5 509.5 Q107 499 118 490 Q129 481 138.5 472 Q148 463 148 449 Q148 429 133.5 417 Q119 405 99 405 Q68 405 50 429.5 Q32 454 32 486 Z " />
<glyph glyph-name="quoteright" unicode="&#x2019;" horiz-adv-x="176" d="M144 559 Q144 518 122.5 475.5 Q101 433 50 405 L36 424 Q54 438 71 460.5 Q88 483 88 507 Q88 525 78.5 535.5 Q69 546 58 555 Q47 564 37.5 573 Q28 582 28 596 Q28 616 42.5 628 Q57 640 77 640 Q108 640 126 615.5 Q144 591 144 559 Z " />
<glyph glyph-name="guillemotleft" unicode="&#xab;" horiz-adv-x="403" d="M327 56 L198 217 L328 378 L349 356 L276 216 L352 78 L327 56 Z M174 56 L44 217 L174 378 L196 356 L123 216 L199 78 L174 56 Z " />
<glyph glyph-name="guillemotright" unicode="&#xbb;" horiz-adv-x="403" d="M76 378 L205 217 L75 56 L54 78 L127 218 L51 356 L76 378 Z M229 378 L359 217 L229 56 L207 78 L280 218 L204 356 L229 378 Z " />
<glyph glyph-name="guilsinglleft" unicode="&#x2039;" horiz-adv-x="250" d="M174 56 L44 217 L174 378 L196 356 L123 216 L199 78 L174 56 Z " />
<glyph glyph-name="guilsinglright" unicode="&#x203a;" horiz-adv-x="250" d="M76 56 L51 78 L127 216 L54 356 L75 378 L206 217 L76 56 Z " />
<glyph glyph-name="quotesinglbase" unicode="&#x201a;" horiz-adv-x="176" d="M144 5 Q144 -36 122.5 -78.5 Q101 -121 50 -149 L36 -130 Q54 -116 71 -93.5 Q88 -71 88 -47 Q88 -29 78.5 -18.5 Q69 -8 58 1 Q47 10 37.5 19 Q28 28 28 42 Q28 62 42.5 74 Q57 86 77 86 Q108 86 126 61.5 Q144 37 144 5 Z " />
<glyph glyph-name="quotedblbase" unicode="&#x201e;" horiz-adv-x="312" d="M144 5 Q144 -36 122.5 -78.5 Q101 -121 50 -149 L36 -130 Q54 -116 71 -93.5 Q88 -71 88 -47 Q88 -29 78.5 -18.5 Q69 -8 58 1 Q47 10 37.5 19 Q28 28 28 42 Q28 62 42.5 74 Q57 86 77 86 Q108 86 126 61.5 Q144 37 144 5 Z M280 5 Q280 -36 258.5 -78.5 Q237 -121 186 -149 L172 -130 Q190 -116 207 -93.5 Q224 -71 224 -47 Q224 -29 214.5 -18.5 Q205 -8 194 1 Q183 10 173.5 19 Q164 28 164 42 Q164 62 178.5 74 Q193 86 213 86 Q244 86 262 61.5 Q280 37 280 5 Z " />
<glyph glyph-name="fi" unicode="&#xfb01;" horiz-adv-x="554" d="M282 642 Q236 642 211 604 Q186 567 186 493 L186 444 L346 444 Q391 444 420.5 445.5 Q450 447 470 449 L470 80 Q470 57 476 47 Q482 37 500 30 L526 20 L526 0 Q502 1 475 2 Q448 3 428 3 Q417 3 403 2.5 Q389 2 373.5 1.5 Q358 1 343.5 0.5 Q329 0 318 0 L318 20 L374 39 L374 363 Q374 387 367 396 Q360 405 334 405 L186 405 L186 80 Q186 57 191.5 47 Q197 37 216 30 L244 20 L244 0 Q220 1 192 2 Q164 3 144 3 Q134 3 119.5 2.5 Q105 2 89.5 1.5 Q74 1 59.5 0.5 Q45 0 34 0 L34 20 L90 39 L90 405 L22 405 L22 444 L90 444 L90 454 Q90 562 142.5 621 Q195 680 294 680 Q325 680 354 673.5 Q383 667 405.5 656 Q428 645 442 630.5 Q456 616 456 601 Q456 580 440.5 563.5 Q425 547 408 547 Q398 547 390 553 Q382 559 369 579 Q345 614 325.5 628 Q306 642 282 642 Z " />
<glyph glyph-name="fl" unicode="&#xfb02;" horiz-adv-x="555" d="M472 80 Q472 57 478 47 Q484 37 502 30 L528 20 L528 0 Q504 1 477 2 Q450 3 430 3 Q419 3 405 2.5 Q391 2 375.5 1.5 Q360 1 345.5 0.5 Q331 0 320 0 L320 20 L376 39 L376 616 Q356 627 334 633.5 Q312 640 292 640 Q243 640 214.5 603.5 Q186 567 186 474 L186 444 L300 444 L292 405 L186 405 L186 80 Q186 57 191.5 47 Q197 37 216 30 L244 20 L244 0 Q220 1 191.5 2 Q163 3 143 3 Q133 3 118.5 2.5 Q104 2 89 1.5 Q74 1 59.5 0.5 Q45 0 34 0 L34 20 L90 39 L90 405 L22 405 L22 444 L90 444 L90 450 Q90 569 140.5 624.5 Q191 680 284 680 Q326 680 367 673.5 Q408 667 443 667 Q449 667 456 667 Q463 667 472 668 L472 80 Z " />
<glyph glyph-name="f_f" unicode="&#xfb00;" horiz-adv-x="595" d="M521 642 Q507 642 497.5 632.5 Q488 623 482 605.5 Q476 588 473.5 564.5 Q471 541 471 514 L471 444 L577 444 L569 405 L471 405 L471 80 Q471 57 476.5 47 Q482 37 501 30 L529 20 L529 0 Q505 1 476.5 2 Q448 3 428 3 Q418 3 403.5 2.5 Q389 2 374 1.5 Q359 1 344.5 0.5 Q330 0 319 0 L319 20 L375 39 L375 405 L186 405 L186 80 Q186 57 191.5 47 Q197 37 216 30 L244 20 L244 0 Q220 1 191.5 2 Q163 3 143 3 Q133 3 118.5 2.5 Q104 2 89 1.5 Q74 1 59.5 0.5 Q45 0 34 0 L34 20 L90 39 L90 405 L22 405 L22 444 L90 444 Q91 549 133 611 Q175 673 258 673 Q278 673 298 668.5 Q318 664 334.5 655.5 Q351 647 361 635.5 Q371 624 371 610 Q371 592 358.5 574 Q346 556 330 556 Q317 556 306.5 568.5 Q296 581 285.5 595.5 Q275 610 263 622.5 Q251 635 236 635 Q222 635 212.5 625.5 Q203 616 197 598.5 Q191 581 188.5 557.5 Q186 534 186 507 L186 444 L375 444 L375 451 Q376 556 418 618 Q460 680 543 680 Q563 680 583 675.5 Q603 671 619.5 662.5 Q636 654 646 642.5 Q656 631 656 617 Q656 599 643.5 581 Q631 563 615 563 Q602 563 591.5 575.5 Q581 588 570.5 602.5 Q560 617 548 629.5 Q536 642 521 642 Z " />
<glyph glyph-name="f_f_i" unicode="&#xfb03;" horiz-adv-x="839" d="M567 642 Q521 642 496 604 Q471 567 471 493 L471 444 L631 444 Q676 444 705.5 445.5 Q735 447 755 449 L755 80 Q755 57 761 47 Q767 37 785 30 L811 20 L811 0 Q787 1 760 2 Q733 3 713 3 Q702 3 688 2.5 Q674 2 658.5 1.5 Q643 1 628.5 0.5 Q614 0 603 0 L603 20 L659 39 L659 363 Q659 387 652 396 Q645 405 619 405 L471 405 L471 80 Q471 57 476.5 47 Q482 37 501 30 L529 20 L529 0 Q505 1 476.5 2 Q448 3 428 3 Q418 3 403.5 2.5 Q389 2 374 1.5 Q359 1 344.5 0.5 Q330 0 319 0 L319 20 L375 39 L375 405 L186 405 L186 80 Q186 57 191.5 47 Q197 37 216 30 L244 20 L244 0 Q220 1 191.5 2 Q163 3 143 3 Q133 3 118.5 2.5 Q104 2 89 1.5 Q74 1 59.5 0.5 Q45 0 34 0 L34 20 L90 39 L90 405 L22 405 L22 444 L90 444 L90 449 Q90 557 142.5 615 Q195 673 294 673 Q333 673 372 660 Q411 647 435 628 Q487 680 579 680 Q610 680 639 673.5 Q668 667 690.5 656 Q713 645 727 630.5 Q741 616 741 601 Q741 580 725.5 563.5 Q710 547 693 547 Q683 547 675 553 Q667 559 654 579 Q630 614 610.5 628 Q591 642 567 642 Z M285 635 Q237 635 210 593 Q199 574 192.5 546 Q186 518 186 478 L186 444 L375 444 L375 454 Q375 515 391 559 Q381 570 370.5 583.5 Q360 597 347.5 608.5 Q335 620 319.5 627.5 Q304 635 285 635 Z " />
<glyph glyph-name="f_f_l" unicode="&#xfb04;" horiz-adv-x="840" d="M471 405 L471 80 Q471 57 476.5 47 Q482 37 501 30 L529 20 L529 0 Q505 1 476.5 2 Q448 3 428 3 Q418 3 403.5 2.5 Q389 2 374 1.5 Q359 1 344.5 0.5 Q330 0 319 0 L319 20 L375 39 L375 405 L186 405 L186 80 Q186 57 191.5 47 Q197 37 216 30 L244 20 L244 0 Q220 1 191.5 2 Q163 3 143 3 Q133 3 118.5 2.5 Q104 2 89 1.5 Q74 1 59.5 0.5 Q45 0 34 0 L34 20 L90 39 L90 405 L22 405 L22 444 L90 444 L90 449 Q90 557 142.5 615 Q195 673 294 673 Q332 673 369.5 660.5 Q407 648 431 631 Q480 680 569 680 Q611 680 652 673.5 Q693 667 728 667 Q734 667 741 667 Q748 667 757 668 L757 80 Q757 57 763 47 Q769 37 787 30 L813 20 L813 0 Q789 1 762 2 Q735 3 715 3 Q704 3 690 2.5 Q676 2 660.5 1.5 Q645 1 630.5 0.5 Q616 0 605 0 L605 20 L661 39 L661 616 Q641 627 619 633.5 Q597 640 577 640 Q528 640 499.5 603.5 Q471 567 471 474 L471 444 L585 444 L577 405 L471 405 Z M285 635 Q237 635 210 593 Q199 574 192.5 546 Q186 518 186 478 L186 444 L375 444 L375 450 Q375 513 390 560 Q380 571 369.5 584 Q359 597 346.5 608.5 Q334 620 319 627.5 Q304 635 285 635 Z " />
<glyph glyph-name="grave" unicode="&#x60;" horiz-adv-x="270" d="M42 593 L75 628 Q83 636 91 636 Q100 636 111 625 L227 507 L217 494 L42 582 L42 593 Z " />
<glyph glyph-name="acute" unicode="&#xb4;" horiz-adv-x="270" d="M227 582 L52 494 L42 507 L158 625 Q169 636 178 636 Q186 636 194 628 L227 593 L227 582 Z " />
<glyph glyph-name="dieresis" unicode="&#xa8;" horiz-adv-x="270" d="M7 576 Q7 596 21 610.5 Q35 625 55 625 Q75 625 89.5 610.5 Q104 596 104 576 Q104 556 89.5 542 Q75 528 55 528 Q35 528 21 542 Q7 556 7 576 Z M165 576 Q165 596 179 610.5 Q193 625 213 625 Q233 625 247.5 610.5 Q262 596 262 576 Q262 556 247.5 542 Q233 528 213 528 Q193 528 179 542 Q165 556 165 576 Z " />
<glyph glyph-name="circumflex" unicode="&#x2c6;" horiz-adv-x="270" d="M160 645 L250 511 L234 501 L135 582 L36 501 L20 511 L110 645 L160 645 Z " />
<glyph glyph-name="tilde" unicode="&#x2dc;" horiz-adv-x="270" d="M264 623 Q259 569 238.5 548 Q218 527 189 527 Q172 527 157 532.5 Q142 538 127.5 544.5 Q113 551 99 556.5 Q85 562 71 562 Q54 562 44 553.5 Q34 545 28 527 L6 530 Q11 584 31.5 605 Q52 626 81 626 Q97 626 112.5 620.5 Q128 615 142.5 608.5 Q157 602 171 596.5 Q185 591 199 591 Q216 591 226 599.5 Q236 608 242 626 L264 623 Z " />
<glyph glyph-name="macron" unicode="&#xaf;" horiz-adv-x="270" d="M21 532 L21 583 L249 583 L249 532 L21 532 Z " />
<glyph glyph-name="breve" unicode="&#x2d8;" horiz-adv-x="270" d="M135 514 Q82 514 53.5 547.5 Q25 581 25 632 L49 632 Q53 603 76.5 587.5 Q100 572 135 572 Q170 572 193.5 587.5 Q217 603 221 632 L245 632 Q245 581 216.5 547.5 Q188 514 135 514 Z " />
<glyph glyph-name="dotaccent" unicode="&#x2d9;" horiz-adv-x="270" d="M79 573 Q79 596 95.5 612.5 Q112 629 135 629 Q158 629 174.5 612.5 Q191 596 191 573 Q191 550 174.5 533.5 Q158 517 135 517 Q112 517 95.5 533.5 Q79 550 79 573 Z " />
<glyph glyph-name="ring" unicode="&#x2da;" horiz-adv-x="270" d="M220 583 Q220 549 196 524.5 Q172 500 135 500 Q98 500 74 524.5 Q50 549 50 583 Q50 617 74 641.5 Q98 666 135 666 Q172 666 196 641.5 Q220 617 220 583 Z M178 583 Q178 602 166.5 616 Q155 630 135 630 Q115 630 103.5 616 Q92 602 92 583 Q92 564 103.5 550 Q115 536 135 536 Q155 536 166.5 550 Q178 564 178 583 Z " />
<glyph glyph-name="cedilla" unicode="&#xb8;" horiz-adv-x="270" d="M221 -131 Q221 -151 210.5 -170 Q200 -189 179 -203 Q158 -217 127 -225.5 Q96 -234 54 -234 L48 -208 Q97 -204 125.5 -184.5 Q154 -165 154 -132 Q154 -109 137.5 -98.5 Q121 -88 95 -84 Q84 -82 81.5 -78 Q79 -74 81 -66 L107 14 L151 14 L131 -49 Q171 -55 196 -75 Q221 -95 221 -131 Z " />
<glyph glyph-name="hungarumlaut" unicode="&#x2dd;" horiz-adv-x="270" d="M143 597 L-2 499 L-13 510 L81 634 Q91 647 100 647 Q107 647 118 635 L143 607 L143 597 Z M283 597 L138 499 L127 510 L221 634 Q231 647 240 647 Q247 647 258 635 L283 607 L283 597 Z " />
<glyph glyph-name="ogonek" unicode="&#x2db;" horiz-adv-x="270" d="M231 -204 Q214 -212 192.5 -218 Q171 -224 148 -224 Q100 -224 69.5 -198.5 Q39 -173 39 -130 Q39 -105 51.5 -81.5 Q64 -58 85 -38.5 Q106 -19 133 -3 Q160 13 190 23 L204 14 Q161 -11 134 -48.5 Q107 -86 107 -126 Q107 -157 124.5 -172 Q142 -187 168 -187 Q182 -187 196.5 -184.5 Q211 -182 224 -178 L231 -204 Z " />
<glyph glyph-name="caron" unicode="&#x2c7;" horiz-adv-x="270" d="M110 501 L20 635 L36 645 L135 564 L234 645 L250 635 L160 501 L110 501 Z " />
<glyph glyph-name="commaaccent" unicode="&#xf6c3;" horiz-adv-x="270" d="M186 -123 Q186 -159 167.5 -198.5 Q149 -238 104 -263 L90 -247 Q108 -233 121 -212 Q134 -191 134 -170 Q134 -153 126 -143 Q118 -133 108.5 -125.5 Q99 -118 91 -110 Q83 -102 83 -89 Q83 -72 95.5 -61.5 Q108 -51 126 -51 Q155 -51 170.5 -72.5 Q186 -94 186 -123 Z " />
<glyph glyph-name="zero" unicode="0" horiz-adv-x="500" d="M462 312 Q462 240 447.5 179.5 Q433 119 406 75.5 Q379 32 339.5 8 Q300 -16 250 -16 Q200 -16 160.5 8 Q121 32 94 75.5 Q67 119 52.5 179.5 Q38 240 38 312 Q38 384 52.5 444 Q67 504 94 547.5 Q121 591 160.5 615.5 Q200 640 250 640 Q300 640 339.5 615.5 Q379 591 406 547.5 Q433 504 447.5 444 Q462 384 462 312 Z M356 312 Q356 372 350.5 424 Q345 476 332 513.5 Q319 551 299 572.5 Q279 594 250 594 Q221 594 201 572.5 Q181 551 168 513.5 Q155 476 149.5 424 Q144 372 144 312 Q144 252 149.5 200 Q155 148 168 110.5 Q181 73 201 51.5 Q221 30 250 30 Q279 30 299 51.5 Q319 73 332 110.5 Q345 148 350.5 200 Q356 252 356 312 Z " />
<glyph glyph-name="one" unicode="1" horiz-adv-x="500" d="M372 0 Q346 2 312 2.5 Q278 3 252 3 Q240 3 224.5 2.5 Q209 2 192.5 1.5 Q176 1 160.5 0.5 Q145 0 133 0 L133 21 L204 41 L204 506 Q204 524 201.5 535 Q199 546 191 553.5 Q183 561 167.5 566 Q152 571 125 577 L125 598 Q168 600 206 607.5 Q244 615 270 630 L301 630 L301 87 Q301 70 303.5 59.5 Q306 49 315 42 Q323 36 336.5 31 Q350 26 372 21 L372 0 L372 0 Z " />
<glyph glyph-name="two" unicode="2" horiz-adv-x="500" d="M422 142 Q414 111 405.5 71.5 Q397 32 392 0 L65 0 L65 35 Q104 84 146 133.5 Q188 183 222.5 233.5 Q257 284 279.5 337.5 Q302 391 302 448 Q302 511 277.5 546 Q253 581 210 581 Q175 581 148.5 560 Q122 539 103 501 L64 519 Q88 573 131.5 606.5 Q175 640 239 640 Q277 640 308.5 626 Q340 612 362 587.5 Q384 563 396 529.5 Q408 496 408 456 Q408 400 385 353 Q362 306 325.5 262 Q289 218 244.5 173.5 Q200 129 157 78 L310 78 Q332 78 346 82.5 Q360 87 371 96 Q390 112 401 147 L422 142 Z " />
<glyph glyph-name="three" unicode="3" horiz-adv-x="500" d="M160 359 Q229 364 263.5 399 Q298 434 298 490 Q298 530 277.5 557 Q257 584 219 584 Q184 584 158 565 Q132 546 116 514 L77 531 Q96 576 139.5 608 Q183 640 246 640 Q278 640 306 629.5 Q334 619 355 599.5 Q376 580 388 553 Q400 526 400 493 Q400 442 365.5 404.5 Q331 367 271 350 Q339 335 381 293 Q423 251 423 179 Q423 135 407 99.5 Q391 64 362.5 38 Q334 12 296 -2 Q258 -16 215 -16 Q143 -16 104 5.5 Q65 27 65 59 Q65 79 78 95 Q91 111 109 111 Q124 111 133 97 Q142 83 151.5 66.5 Q161 50 176 36.5 Q191 23 218 23 Q263 23 291 63.5 Q319 104 319 169 Q319 209 307 237 Q295 265 274 283.5 Q253 302 224 310.5 Q195 319 160 320 L160 359 Z " />
<glyph glyph-name="four" unicode="4" horiz-adv-x="500" d="M377 87 Q377 70 379 59.5 Q381 49 390 42 Q403 31 446 21 L446 0 Q420 2 387 2.5 Q354 3 328 3 Q304 3 269.5 1.5 Q235 0 211 0 L211 21 L280 41 L280 147 L30 147 L30 181 L324 625 L377 625 L377 209 L459 209 L459 147 L377 147 L377 87 Z M280 485 L98 209 L280 209 L280 485 Z " />
<glyph glyph-name="five" unicode="5" horiz-adv-x="500" d="M112 625 L397 625 L385 545 L158 545 L152 373 Q169 383 192 389.5 Q215 396 241 396 Q282 396 315.5 380.5 Q349 365 372.5 338 Q396 311 409 274.5 Q422 238 422 195 Q422 147 406.5 108 Q391 69 363.5 41.5 Q336 14 298 -1 Q260 -16 215 -16 Q151 -16 111.5 4 Q72 24 72 58 Q72 78 84.5 92.5 Q97 107 114 107 Q129 107 138.5 94 Q148 81 157.5 65 Q167 49 180 36 Q193 23 215 23 Q263 23 290.5 68.5 Q318 114 318 186 Q318 256 293 300 Q268 344 214 344 Q191 344 171.5 337 Q152 330 138 319 L102 327 L112 625 Z " />
<glyph glyph-name="six" unicode="6" horiz-adv-x="500" d="M364 611 Q289 563 241.5 496 Q194 429 174 345 Q195 364 225.5 374.5 Q256 385 285 385 Q322 385 353 371 Q384 357 406 331 Q428 305 440 269 Q452 233 452 190 Q452 148 438.5 111 Q425 74 399.5 45.5 Q374 17 337.5 0.5 Q301 -16 255 -16 Q206 -16 168.5 0.5 Q131 17 106 47.5 Q81 78 68 120 Q55 162 55 213 Q55 281 77 346.5 Q99 412 137.5 468.5 Q176 525 229 569.5 Q282 614 345 640 L364 611 Z M258 332 Q233 332 209 322.5 Q185 313 164 296 Q158 254 158 209 Q158 123 184.5 74.5 Q211 26 256 26 Q278 26 296 38.5 Q314 51 326.5 72.5 Q339 94 345.5 123.5 Q352 153 352 186 Q352 259 327 295.5 Q302 332 258 332 Z " />
<glyph glyph-name="seven" unicode="7" horiz-adv-x="500" d="M255 0 L155 0 L375 550 L191 550 Q168 550 151.5 546.5 Q135 543 123 534 Q111 525 102 510.5 Q93 496 85 474 L64 480 Q68 493 72 512 Q76 531 79.5 551.5 Q83 572 85.5 591.5 Q88 611 89 625 L434 625 L450 602 L255 0 Z " />
<glyph glyph-name="eight" unicode="8" horiz-adv-x="500" d="M419 498 Q419 456 393 415.5 Q367 375 310 352 Q336 336 361 318 Q386 300 405.5 278 Q425 256 437 229 Q449 202 449 168 Q449 132 435 98.5 Q421 65 395 39.5 Q369 14 331.5 -1 Q294 -16 247 -16 Q209 -16 173.5 -5.5 Q138 5 111 26 Q84 47 68 79 Q52 111 52 155 Q52 185 62.5 211 Q73 237 90.5 259 Q108 281 131 298 Q154 315 179 327 Q139 353 110 392.5 Q81 432 81 484 Q81 516 93.5 544.5 Q106 573 128.5 594 Q151 615 182.5 627.5 Q214 640 253 640 Q290 640 320.5 630 Q351 620 373 601 Q395 582 407 556 Q419 530 419 498 Z M360 139 Q360 167 346.5 191.5 Q333 216 312 236.5 Q291 257 265.5 274 Q240 291 216 304 Q204 296 191 282.5 Q178 269 167 251 Q156 233 149 209.5 Q142 186 142 158 Q142 100 171 63 Q200 26 250 26 Q297 26 328.5 55.5 Q360 85 360 139 Z M169 513 Q169 489 178 468.5 Q187 448 202 430.5 Q217 413 236 399 Q255 385 275 374 Q303 392 320.5 425.5 Q338 459 338 500 Q338 544 315 570.5 Q292 597 253 597 Q216 597 192.5 574 Q169 551 169 513 Z " />
<glyph glyph-name="nine" unicode="9" horiz-adv-x="500" d="M136 13 Q211 61 258.5 128 Q306 195 326 279 Q305 260 274.5 249.5 Q244 239 215 239 Q177 239 146.5 253 Q116 267 94 293 Q72 319 60 354.5 Q48 390 48 434 Q48 476 61.5 513 Q75 550 100.5 578.5 Q126 607 162.5 623.5 Q199 640 245 640 Q294 640 331.5 623.5 Q369 607 394 576.5 Q419 546 432 504 Q445 462 445 411 Q445 343 423 277.5 Q401 212 362.5 155.5 Q324 99 271 54.5 Q218 10 155 -16 L136 13 Z M242 292 Q267 292 291 301.5 Q315 311 336 328 Q342 370 342 415 Q342 501 315.5 549.5 Q289 598 244 598 Q221 598 203.5 585.5 Q186 573 173.5 551.5 Q161 530 154.5 500.5 Q148 471 148 438 Q148 365 173 328.5 Q198 292 242 292 Z " />
<glyph glyph-name="dollar" unicode="&#x24;" horiz-adv-x="500" d="M111 151 Q115 122 126.5 100 Q138 78 154.5 63.5 Q171 49 191 41 Q211 33 232 32 L232 272 Q202 288 171 305 Q140 322 115 344.5 Q90 367 74 396.5 Q58 426 58 468 Q58 502 71.5 532 Q85 562 109 584.5 Q133 607 165.5 621.5 Q198 636 236 639 L236 729 L275 729 L275 639 Q337 634 379.5 594 Q422 554 431 484 L383 478 Q365 577 275 592 L275 363 Q305 348 334.5 331 Q364 314 388 292 Q412 270 427 240.5 Q442 211 442 171 Q442 140 432 109 Q422 78 401.5 52.5 Q381 27 348.5 9 Q316 -9 271 -14 L271 -106 L232 -106 L232 -15 Q201 -14 172.5 -3 Q144 8 121 28 Q98 48 82 77.5 Q66 107 62 145 L111 151 Z M149 495 Q149 456 174 430 Q199 404 236 384 L236 592 Q196 587 172.5 560 Q149 533 149 495 Z M351 144 Q351 181 328 206 Q305 231 271 251 L271 33 Q310 42 330.5 72 Q351 102 351 144 Z " />
<glyph glyph-name="cent" unicode="&#xa2;" horiz-adv-x="500" d="M412 337 Q395 363 368 381.5 Q341 400 306 402 L306 42 Q341 44 368 62.5 Q395 81 412 107 L442 88 Q425 56 391 26 Q357 -4 306 -13 L306 -80 L264 -80 L264 -15 Q213 -12 174.5 8.5 Q136 29 110.5 61 Q85 93 72.5 134.5 Q60 176 60 221 Q60 267 73.5 308.5 Q87 350 113 382.5 Q139 415 177 435.5 Q215 456 264 459 L264 524 L306 524 L306 457 Q357 448 391 418 Q425 388 442 356 L412 337 Z M264 399 Q220 388 190.5 342.5 Q161 297 161 222 Q161 147 190.5 101.5 Q220 56 264 45 L264 399 Z " />
<glyph glyph-name="Euro" unicode="&#x20ac;" horiz-adv-x="500" d="M89 377 Q95 432 111.5 480.5 Q128 529 155 564 Q182 599 220.5 619.5 Q259 640 309 640 Q361 640 404.5 614.5 Q448 589 478 535 L451 516 Q398 583 330 583 Q296 583 272 567 Q248 551 231.5 523 Q215 495 206 457.5 Q197 420 193 377 L373 377 L366 336 L191 336 L191 286 L373 286 L366 245 L194 245 Q198 202 207.5 165 Q217 128 233.5 100.5 Q250 73 274 57 Q298 41 331 41 Q398 41 451 108 L478 89 Q448 35 404 9.5 Q360 -16 308 -16 Q258 -16 220 4 Q182 24 155 59.5 Q128 95 112 142.5 Q96 190 90 245 L22 245 L29 286 L86 286 L86 336 L22 336 L29 377 L89 377 Z " />
<glyph glyph-name="florin" unicode="&#x192;" horiz-adv-x="500" d="M221 30 Q202 -87 151.5 -148 Q101 -209 9 -209 Q-36 -209 -70 -188.5 Q-104 -168 -125 -133 L-94 -110 Q-78 -133 -54.5 -148.5 Q-31 -164 0 -164 Q54 -164 82 -115 Q110 -66 126 34 L174 333 L82 333 L100 375 L181 375 Q204 511 263 575.5 Q322 640 400 640 Q421 640 442 636 Q463 632 479.5 624 Q496 616 506.5 605 Q517 594 517 579 Q517 561 505 544.5 Q493 528 479 528 Q467 528 458 539.5 Q449 551 439.5 565 Q430 579 417 590.5 Q404 602 385 602 Q347 602 321 546 Q295 490 277 375 L384 375 L366 333 L270 333 L221 30 Z " />
<glyph glyph-name="sterling" unicode="&#xa3;" horiz-adv-x="500" d="M482 98 Q464 49 436 17.5 Q408 -14 362 -14 Q319 -14 283 5 Q247 24 215 47 Q181 -14 113 -14 Q77 -14 52.5 5.5 Q28 25 28 58 Q28 90 51.5 110 Q75 130 110 130 Q126 130 148 125 Q149 133 149 142.5 Q149 152 149 163 L149 318 L71 318 L71 360 L149 360 L149 400 Q149 527 206 587 Q254 640 342 640 Q362 640 383 636.5 Q404 633 421 626 Q438 619 448.5 608 Q459 597 459 582 Q459 560 447 545 Q435 530 422 530 Q410 530 399 541 Q388 552 376 565.5 Q364 579 349.5 590 Q335 601 317 601 Q279 601 262.5 559 Q246 517 246 440 L246 360 L370 360 L361 318 L246 318 L246 203 Q246 142 234 97 Q267 84 300 73.5 Q333 63 365 63 Q394 63 417 77 Q440 91 457 114 L482 98 Z M102 28 Q118 28 129 40.5 Q140 53 145 88 Q126 95 112 95 Q95 95 83 86 Q71 77 71 60 Q71 47 79.5 37.5 Q88 28 102 28 Z " />
<glyph glyph-name="yen" unicode="&#xa5;" horiz-adv-x="500" d="M309 234 L309 174 L432 174 L425 131 L309 131 L309 88 Q309 60 317.5 48.5 Q326 37 354 28 L376 21 L376 0 Q350 0 319.5 1.5 Q289 3 263 3 Q249 3 232.5 2.5 Q216 2 199 1.5 Q182 1 166.5 0.5 Q151 0 140 0 L140 21 L206 41 L206 131 L82 131 L89 174 L206 174 L206 234 L82 234 L89 277 L191 277 L66 543 Q58 559 51.5 569 Q45 579 36 585.5 Q27 592 15.5 596 Q4 600 -12 604 L-12 625 Q-1 625 14.5 624.5 Q30 624 45.5 623.5 Q61 623 75.5 622.5 Q90 622 99 622 Q110 622 125.5 622.5 Q141 623 156.5 623.5 Q172 624 187 624.5 Q202 625 212 625 L212 604 L155 589 L285 308 L402 588 L349 604 L349 625 Q350 625 360.5 624.5 Q371 624 385 623.5 Q399 623 413.5 622.5 Q428 622 437 622 Q457 622 478 623 Q499 624 514 625 L514 604 Q495 602 483 598.5 Q471 595 462.5 588.5 Q454 582 447 571 Q440 560 433 542 L321 277 L432 277 L425 234 L309 234 Z " />
<glyph glyph-name="numbersign" unicode="&#x23;" horiz-adv-x="500" d="M281 237 L313 386 L217 386 L185 237 L281 237 Z M291 -16 L229 -16 L270 180 L173 180 L133 -16 L71 -16 L112 180 L16 180 L29 237 L123 237 L155 386 L60 386 L73 443 L167 443 L209 640 L270 640 L229 443 L325 443 L367 640 L428 640 L387 443 L484 443 L471 386 L376 386 L344 237 L440 237 L427 180 L332 180 L291 -16 Z " />
<glyph glyph-name="percent" unicode="&#x25;" horiz-adv-x="770" d="M714 183 Q714 135 704 99.5 Q694 64 676 40.5 Q658 17 634 6 Q610 -5 582 -5 Q554 -5 530 6 Q506 17 488 40.5 Q470 64 460 99.5 Q450 135 450 183 Q450 231 460 266.5 Q470 302 488 325.5 Q506 349 530 360 Q554 371 582 371 Q610 371 634 360 Q658 349 676 325.5 Q694 302 704 266.5 Q714 231 714 183 Z M635 183 Q635 256 623 298 Q611 340 582 340 Q553 340 541 298 Q529 256 529 183 Q529 110 541 68 Q553 26 582 26 Q611 26 623 68 Q635 110 635 183 Z M320 442 Q320 394 310 358.5 Q300 323 282 299.5 Q264 276 240 265 Q216 254 188 254 Q160 254 136 265 Q112 276 94 299.5 Q76 323 66 358.5 Q56 394 56 442 Q56 490 66 525.5 Q76 561 94 584.5 Q112 608 136 619 Q160 630 188 630 Q216 630 240 619 Q264 608 282 584.5 Q300 561 310 525.5 Q320 490 320 442 Z M241 442 Q241 515 229 557 Q217 599 188 599 Q159 599 147 557 Q135 515 135 442 Q135 369 147 327 Q159 285 188 285 Q217 285 229 327 Q241 369 241 442 Z M230 -16 L179 -16 L541 640 L591 640 L230 -16 Z " />
<glyph glyph-name="perthousand" unicode="&#x2030;" horiz-adv-x="1076" d="M714 183 Q714 135 704 99.5 Q694 64 676 40.5 Q658 17 634 6 Q610 -5 582 -5 Q554 -5 530 6 Q506 17 488 40.5 Q470 64 460 99.5 Q450 135 450 183 Q450 231 460 266.5 Q470 302 488 325.5 Q506 349 530 360 Q554 371 582 371 Q610 371 634 360 Q658 349 676 325.5 Q694 302 704 266.5 Q714 231 714 183 Z M635 183 Q635 256 623 298 Q611 340 582 340 Q553 340 541 298 Q529 256 529 183 Q529 110 541 68 Q553 26 582 26 Q611 26 623 68 Q635 110 635 183 Z M320 442 Q320 394 310 358.5 Q300 323 282 299.5 Q264 276 240 265 Q216 254 188 254 Q160 254 136 265 Q112 276 94 299.5 Q76 323 66 358.5 Q56 394 56 442 Q56 490 66 525.5 Q76 561 94 584.5 Q112 608 136 619 Q160 630 188 630 Q216 630 240 619 Q264 608 282 584.5 Q300 561 310 525.5 Q320 490 320 442 Z M241 442 Q241 515 229 557 Q217 599 188 599 Q159 599 147 557 Q135 515 135 442 Q135 369 147 327 Q159 285 188 285 Q217 285 229 327 Q241 369 241 442 Z M1020 183 Q1020 135 1010 99.5 Q1000 64 982 40.5 Q964 17 940 6 Q916 -5 888 -5 Q860 -5 836 6 Q812 17 794 40.5 Q776 64 766 99.5 Q756 135 756 183 Q756 231 766 266.5 Q776 302 794 325.5 Q812 349 836 360 Q860 371 888 371 Q916 371 940 360 Q964 349 982 325.5 Q1000 302 1010 266.5 Q1020 231 1020 183 Z M941 183 Q941 256 929 298 Q917 340 888 340 Q859 340 847 298 Q835 256 835 183 Q835 110 847 68 Q859 26 888 26 Q917 26 929 68 Q941 110 941 183 Z M230 -16 L179 -16 L541 640 L591 640 L230 -16 Z " />
<glyph glyph-name="plus" unicode="&#x2b;" horiz-adv-x="442" d="M248 195 L248 55 L193 55 L193 195 L53 195 L53 250 L193 250 L193 390 L248 390 L248 250 L388 250 L388 195 L248 195 Z " />
<glyph glyph-name="minus" unicode="&#x2212;" horiz-adv-x="442" d="M53 195 L53 250 L388 250 L388 195 L53 195 Z " />
<glyph glyph-name="multiply" unicode="&#xd7;" horiz-adv-x="442" d="M259 222 L358 124 L319 85 L220 184 L122 85 L83 124 L182 222 L83 321 L122 360 L220 261 L319 360 L358 321 L259 222 Z " />
<glyph glyph-name="less" unicode="&#x3c;" horiz-adv-x="442" d="M53 191 L53 255 L388 418 L388 358 L116 223 L388 90 L388 30 L53 191 Z " />
<glyph glyph-name="divide" unicode="&#xf7;" horiz-adv-x="442" d="M53 195 L53 250 L388 250 L388 195 L53 195 Z M181 354 Q181 372 194 385 Q207 398 225 398 Q243 398 256 385 Q269 372 269 354 Q269 336 256 323 Q243 310 225 310 Q207 310 194 323 Q181 336 181 354 Z M181 91 Q181 109 194 122 Q207 135 225 135 Q243 135 256 122 Q269 109 269 91 Q269 73 256 60 Q243 47 225 47 Q207 47 194 60 Q181 73 181 91 Z " />
<glyph glyph-name="equal" unicode="&#x3d;" horiz-adv-x="442" d="M53 269 L53 324 L388 324 L388 269 L53 269 Z M53 119 L53 174 L388 174 L388 119 L53 119 Z " />
<glyph glyph-name="logicalnot" unicode="&#xac;" horiz-adv-x="442" d="M333 119 L333 269 L53 269 L53 324 L388 324 L388 119 L333 119 Z " />
<glyph glyph-name="greater" unicode="&#x3e;" horiz-adv-x="442" d="M54 30 L54 90 L326 223 L54 358 L54 418 L389 255 L389 191 L54 30 Z " />
<glyph glyph-name="notequal" unicode="&#x2260;" horiz-adv-x="442" d="M199 119 L152 23 L92 23 L139 119 L53 119 L53 174 L166 174 L213 269 L53 269 L53 324 L240 324 L288 420 L348 420 L300 324 L388 324 L388 269 L273 269 L226 174 L388 174 L388 119 L199 119 Z " />
<glyph glyph-name="approxequal" unicode="&#x2248;" horiz-adv-x="442" d="M400 356 Q393 306 369 271.5 Q345 237 296 237 Q272 237 250.5 246 Q229 255 209.5 266.5 Q190 278 171.5 287 Q153 296 133 296 Q85 296 68 237 L42 237 Q45 262 52.5 283.5 Q60 305 72.5 321 Q85 337 103 346.5 Q121 356 146 356 Q170 356 191 347 Q212 338 231.5 326.5 Q251 315 270 306 Q289 297 309 297 Q357 297 374 356 L400 356 Z M400 207 Q393 157 369 122.5 Q345 88 296 88 Q272 88 250.5 97 Q229 106 209.5 117.5 Q190 129 171.5 138 Q153 147 133 147 Q85 147 68 88 L42 88 Q45 113 52.5 134.5 Q60 156 72.5 172 Q85 188 103 197.5 Q121 207 146 207 Q170 207 191 198 Q212 189 231.5 177.5 Q251 166 270 157 Q289 148 309 148 Q357 148 374 207 L400 207 Z " />
<glyph glyph-name="plusminus" unicode="&#xb1;" horiz-adv-x="442" d="M248 266 L248 126 L193 126 L193 266 L53 266 L53 321 L193 321 L193 461 L248 461 L248 321 L388 321 L388 266 L248 266 Z M53 0 L53 55 L388 55 L388 0 L53 0 Z " />
<glyph glyph-name="lessequal" unicode="&#x2264;" horiz-adv-x="442" d="M53 262 L53 326 L388 489 L388 429 L116 294 L388 161 L388 101 L53 262 Z M53 0 L53 55 L388 55 L388 0 L53 0 Z " />
<glyph glyph-name="greaterequal" unicode="&#x2265;" horiz-adv-x="442" d="M53 101 L53 161 L325 294 L53 429 L53 489 L388 326 L388 262 L53 101 Z M53 0 L53 55 L388 55 L388 0 L53 0 Z " />
<glyph glyph-name="asciicircum" unicode="&#x5e;" horiz-adv-x="442" d="M336 344 L221 549 L105 344 L36 344 L197 625 L245 625 L405 344 L336 344 Z " />
<glyph glyph-name="asciitilde" unicode="&#x7e;" horiz-adv-x="442" d="M37 240 Q41 266 48.5 288.5 Q56 311 68.5 327.5 Q81 344 99.5 353 Q118 362 144 362 Q169 362 190.5 352.5 Q212 343 232 332 Q252 321 271 311.5 Q290 302 311 302 Q337 302 353 318 Q369 334 378 362 L405 362 Q401 336 393.5 313.5 Q386 291 373.5 274.5 Q361 258 342.5 249 Q324 240 298 240 Q273 240 251.5 249.5 Q230 259 210 270 Q190 281 171 290.5 Q152 300 131 300 Q105 300 89 284 Q73 268 64 240 L37 240 Z " />
<glyph glyph-name="lozenge" unicode="&#x25ca;" horiz-adv-x="567" d="M252 0 L52 316 L252 625 L315 625 L515 316 L315 0 L252 0 Z M283 565 L123 316 L283 60 L444 316 L283 565 Z " />
<glyph glyph-name="degree" unicode="&#xb0;" horiz-adv-x="314" d="M157 432 Q193 432 212 457 Q231 482 231 514 Q231 546 212 571 Q193 596 157 596 Q121 596 102 571 Q83 546 83 514 Q83 482 102 457 Q121 432 157 432 Z M157 388 Q128 388 104.5 397.5 Q81 407 64.5 424 Q48 441 38.5 464 Q29 487 29 514 Q29 541 38.5 564 Q48 587 64.5 604 Q81 621 104.5 630.5 Q128 640 157 640 Q185 640 209 630.5 Q233 621 249.5 604 Q266 587 275.5 564 Q285 541 285 514 Q285 487 275.5 464 Q266 441 249.5 424 Q233 407 209 397.5 Q185 388 157 388 Z " />
<glyph glyph-name="quotesingle" unicode="&#x27;" horiz-adv-x="164" d="M71 392 Q69 416 63 441.5 Q57 467 51 492.5 Q45 518 40.5 540.5 Q36 563 36 581 Q36 604 46 622 Q56 640 82 640 Q108 640 118 622 Q128 604 128 581 Q128 563 123.5 540.5 Q119 518 113 492.5 Q107 467 101 441.5 Q95 416 93 392 L71 392 Z " />
<glyph glyph-name="quotedbl" unicode="&#x22;" horiz-adv-x="307" d="M71 392 Q69 416 63 441.5 Q57 467 51 492.5 Q45 518 40.5 540.5 Q36 563 36 581 Q36 604 46 622 Q56 640 82 640 Q108 640 118 622 Q128 604 128 581 Q128 563 123.5 540.5 Q119 518 113 492.5 Q107 467 101 441.5 Q95 416 93 392 L71 392 Z M214 392 Q212 416 206 441.5 Q200 467 194 492.5 Q188 518 183.5 540.5 Q179 563 179 581 Q179 604 189 622 Q199 640 225 640 Q251 640 261 622 Q271 604 271 581 Q271 563 266.5 540.5 Q262 518 256 492.5 Q250 467 244 441.5 Q238 416 236 392 L214 392 Z " />
<glyph glyph-name="radical" unicode="&#x221a;" horiz-adv-x="615" d="M149 444 Q173 444 190 441.5 Q207 439 219.5 432 Q232 425 240.5 412 Q249 399 257 378 L343 146 L485 551 Q492 572 501 586 Q510 600 522 609 Q534 618 549.5 621.5 Q565 625 587 625 L615 625 L615 587 L590 587 Q564 587 552 577.5 Q540 568 531 542 L343 -2 L306 -2 L167 353 Q161 368 156 378.5 Q151 389 144.5 395 Q138 401 128 403.5 Q118 406 103 406 L46 406 L46 444 L149 444 Z " />
<glyph glyph-name="currency" unicode="&#xa4;" horiz-adv-x="500" d="M431 310 Q431 265 418 228.5 Q405 192 379 167 L441 71 L379 71 L336 137 Q299 120 250 120 Q201 120 164 137 L121 71 L59 71 L121 167 Q95 192 82 228.5 Q69 265 69 310 Q69 355 82 391.5 Q95 428 121 453 L59 549 L121 549 L164 483 Q201 500 250 500 Q299 500 336 483 L379 549 L441 549 L379 453 Q405 428 418 391.5 Q431 355 431 310 Z M344 310 Q344 341 338.5 368 Q333 395 322 415 Q311 435 293 446.5 Q275 458 250 458 Q225 458 207 446.5 Q189 435 178 415 Q167 395 161.5 368 Q156 341 156 310 Q156 279 161.5 252 Q167 225 178 205 Q189 185 207 173.5 Q225 162 250 162 Q275 162 293 173.5 Q311 185 322 205 Q333 225 338.5 252 Q344 279 344 310 Z " />
<glyph glyph-name="infinity" unicode="&#x221e;" horiz-adv-x="698" d="M503 441 Q533 441 558 429.5 Q583 418 600.5 398 Q618 378 628 349 Q638 320 638 286 Q638 251 627.5 221.5 Q617 192 597.5 171 Q578 150 551 138 Q524 126 491 126 Q462 126 439.5 134.5 Q417 143 398.5 157 Q380 171 364.5 189.5 Q349 208 335 228 Q312 177 273 151.5 Q234 126 195 126 Q165 126 140 137.5 Q115 149 97.5 169 Q80 189 70 217.5 Q60 246 60 281 Q60 316 70.5 345.5 Q81 375 100.5 396 Q120 417 147 429 Q174 441 207 441 Q235 441 258 432.5 Q281 424 299.5 409.5 Q318 395 333.5 376.5 Q349 358 363 338 Q386 390 424.5 415.5 Q463 441 503 441 Z M517 206 Q552 206 575 227.5 Q598 249 598 286 Q598 321 573 343 Q548 365 507 365 Q469 365 435.5 348 Q402 331 384 306 Q397 286 411 268 Q425 250 440.5 236.5 Q456 223 475 214.5 Q494 206 517 206 Z M181 361 Q146 361 123 339.5 Q100 318 100 281 Q100 246 125 224 Q150 202 191 202 Q229 202 262.5 218.5 Q296 235 313 260 Q300 280 286 298 Q272 316 256.5 330 Q241 344 222.5 352.5 Q204 361 181 361 Z " />
<glyph glyph-name="uni00B5" unicode="&#xb5;" horiz-adv-x="535" d="M447 86 Q447 58 457.5 47 Q468 36 488 36 Q497 36 510 38.5 Q523 41 533 45 L533 21 Q514 8 486.5 -2 Q459 -12 434 -12 Q397 -12 378.5 6.5 Q360 25 355 56 Q345 43 331.5 30 Q318 17 302 7 Q286 -3 268 -9.5 Q250 -16 232 -16 Q197 -16 177.5 -1 Q158 14 149 34 Q151 -33 153 -93.5 Q155 -154 157 -208 L61 -227 Q63 -163 63.5 -94 Q64 -25 64 53 L64 228 Q64 295 63 345.5 Q62 396 60 431 L163 448 Q161 397 160.5 344.5 Q160 292 160 232 L160 149 Q160 98 177.5 70.5 Q195 43 245 43 Q275 43 303 60 Q331 77 351 106 L351 228 Q351 295 350 345.5 Q349 396 347 431 L450 448 Q448 397 447.5 344.5 Q447 292 447 232 L447 86 Z " />
<glyph glyph-name="partialdiff" unicode="&#x2202;" horiz-adv-x="500" d="M230 390 Q254 390 278.5 381.5 Q303 373 324 359 Q304 434 262.5 500 Q221 566 153 615 L166 640 Q228 615 279 571 Q330 527 366.5 470 Q403 413 423 347 Q443 281 443 213 Q443 167 431.5 125 Q420 83 395.5 51.5 Q371 20 333.5 1.5 Q296 -17 245 -17 Q200 -17 163.5 -1.5 Q127 14 102 41 Q77 68 63.5 105 Q50 142 50 186 Q50 226 62 263 Q74 300 97.5 328 Q121 356 154.5 373 Q188 390 230 390 Z M343 206 Q343 232 341 257 Q339 282 335 307 Q313 322 291 330.5 Q269 339 249 339 Q204 339 176.5 298.5 Q149 258 149 184 Q149 150 155.5 120.5 Q162 91 174 69.5 Q186 48 204 36 Q222 24 246 24 Q270 24 288.5 37.5 Q307 51 319 75 Q331 99 337 132.5 Q343 166 343 206 Z " />
<glyph glyph-name="summation" unicode="&#x2211;" horiz-adv-x="528" d="M10 -75 L6 -66 L272 303 L23 691 L27 700 L462 700 Q462 685 462.5 664.5 Q463 644 463.5 622.5 Q464 601 465 581.5 Q466 562 467 551 L447 551 L393 664 L151 664 L346 359 Q356 343 345 327 L114 8 L332 8 Q364 8 384 13 Q404 18 417 29 Q430 40 437 57.5 Q444 75 449 101 L472 101 Q470 83 468.5 59 Q467 35 465.5 10 Q464 -15 463 -38 Q462 -61 462 -75 L10 -75 Z " />
<glyph glyph-name="product" unicode="&#x220f;" horiz-adv-x="651" d="M559 15 Q559 -13 567.5 -24.5 Q576 -36 604 -45 L626 -52 L626 -74 Q600 -74 569.5 -72.5 Q539 -71 513 -71 Q499 -71 482.5 -71.5 Q466 -72 449 -72.5 Q432 -73 416.5 -73.5 Q401 -74 390 -74 L390 -52 L456 -32 L456 662 L195 662 L195 15 Q195 -13 203.5 -24.5 Q212 -36 240 -45 L262 -52 L262 -74 Q236 -74 205.5 -72.5 Q175 -71 149 -71 Q135 -71 118.5 -71.5 Q102 -72 85 -72.5 Q68 -73 52.5 -73.5 Q37 -74 26 -74 L26 -52 L92 -32 L92 611 Q92 639 83.5 650.5 Q75 662 47 671 L25 678 L25 700 L625 700 L625 678 L559 658 L559 15 Z " />
<glyph glyph-name="integral" unicode="&#x222b;" horiz-adv-x="376" d="M267 662 Q246 662 233.5 644 Q221 626 221 594 Q221 567 223 541 Q225 515 228 486 Q231 457 233 423 Q235 389 235 345 L235 194 Q235 55 196.5 -9.5 Q158 -74 91 -74 Q56 -74 30 -59 Q4 -44 4 -21 Q4 -6 15 6.5 Q26 19 39 19 Q50 19 56.5 10 Q63 1 70 -9.5 Q77 -20 85.5 -29 Q94 -38 109 -38 Q130 -38 142.5 -20 Q155 -2 155 30 Q155 57 153 83 Q151 109 148 138 Q145 167 143 201 Q141 235 141 279 L141 430 Q141 569 179 633.5 Q217 698 285 698 Q320 698 346 683 Q372 668 372 645 Q372 630 361 617.5 Q350 605 337 605 Q326 605 319 614 Q312 623 305.5 633.5 Q299 644 290.5 653 Q282 662 267 662 Z " />
<glyph glyph-name="Ohm" unicode="&#x2126;" horiz-adv-x="696" d="M348 594 Q303 594 270 575 Q237 556 215.5 523 Q194 490 183 445.5 Q172 401 172 349 Q172 302 181 259 Q190 216 208.5 175 Q227 134 255 94 Q283 54 322 12 L317 0 L48 0 Q48 14 47.5 35 Q47 56 45.5 79 Q44 102 42 124.5 Q40 147 38 165 L60 165 Q66 139 72 122 Q78 105 88.5 95.5 Q99 86 115.5 82 Q132 78 159 78 L221 78 Q189 100 160 129 Q131 158 109.5 193.5 Q88 229 75 270 Q62 311 62 358 Q62 414 81 465 Q100 516 136.5 555 Q173 594 226 617 Q279 640 348 640 Q417 640 470 617 Q523 594 559.5 555 Q596 516 615 465 Q634 414 634 358 Q634 311 621 270 Q608 229 586.5 193.5 Q565 158 536 129 Q507 100 475 78 L537 78 Q564 78 580.5 82 Q597 86 607.5 95.5 Q618 105 624 122 Q630 139 636 165 L658 165 Q656 147 654 124.5 Q652 102 650.5 79 Q649 56 648.5 35 Q648 14 648 0 L379 0 L374 12 Q413 54 441 94 Q469 134 487.5 175 Q506 216 515 259 Q524 302 524 349 Q524 401 513 445.5 Q502 490 480.5 523 Q459 556 426 575 Q393 594 348 594 Z " />
<glyph glyph-name="Delta" unicode="&#x2206;" horiz-adv-x="594" d="M40 11 L277 625 L316 625 L554 11 L547 0 L45 0 L40 11 Z M270 471 L110 47 L434 47 L270 471 Z " />
<glyph glyph-name="litre" unicode="&#x2113;" horiz-adv-x="435" d="M50 198 Q73 212 94 226 Q115 240 135 254 L135 418 Q135 526 171.5 583 Q208 640 279 640 Q332 640 358.5 607.5 Q385 575 385 527 Q385 455 345 394.5 Q305 334 231 278 L231 148 Q231 83 251 59.5 Q271 36 307 36 Q324 36 343.5 40 Q363 44 383 52 L383 28 Q366 14 336 1 Q306 -12 272 -12 Q210 -12 174 25 Q155 44 145 74.5 Q135 105 135 150 L135 214 Q118 204 100.5 194.5 Q83 185 64 175 L50 198 Z M231 339 Q273 386 292 434 Q311 482 311 537 Q311 566 302.5 585 Q294 604 278 604 Q231 604 231 428 L231 339 Z " />
<glyph glyph-name="estimated" unicode="&#x212e;" horiz-adv-x="788" d="M169 305 Q164 305 164 301 L164 122 Q164 111 173 102 Q215 56 272.5 30 Q330 4 394 4 Q466 4 526 33 Q586 62 630 113 L683 113 Q633 55 557.5 20 Q482 -15 393 -15 Q318 -15 252 11 Q186 37 136.5 81 Q87 125 58.5 184.5 Q30 244 30 312 Q30 380 58.5 439.5 Q87 499 136.5 543.5 Q186 588 252 614 Q318 640 393 640 Q469 640 535.5 614 Q602 588 651.5 543.5 Q701 499 729.5 439.5 Q758 380 758 312 L758 305 L169 305 Z M626 506 Q626 517 616 527 Q573 571 516.5 596 Q460 621 394 621 Q330 621 273 595 Q216 569 174 524 Q164 516 164 502 L164 326 Q164 321 169 321 L621 321 Q626 321 626 326 L626 506 Z " />
<glyph glyph-name="numero" unicode="&#x2116;" horiz-adv-x="989" d="M546 540 Q546 567 537.5 578 Q529 589 501 597 L479 603 L479 625 Q505 625 526.5 624 Q548 623 568 623 Q588 623 616 624 Q644 625 667 625 L667 603 L601 583 L601 -3 L544 -3 L161 496 L161 85 Q161 58 169.5 47 Q178 36 206 28 L228 22 L228 0 Q202 0 180.5 1 Q159 2 139 2 Q119 2 91 1 Q63 0 40 0 L40 22 L106 42 L106 536 Q106 565 96.5 576 Q87 587 59 596 L37 603 L37 625 L186 625 L546 154 L546 540 Z M691 189 L691 230 L935 230 L935 189 L691 189 Z M959 425 Q959 392 949 364 Q939 336 920.5 315 Q902 294 875 282 Q848 270 814 270 Q780 270 753 282 Q726 294 707.5 315 Q689 336 679 364 Q669 392 669 425 Q669 458 679 486 Q689 514 707.5 535 Q726 556 753 568 Q780 580 814 580 Q848 580 875 568 Q902 556 920.5 535 Q939 514 949 486 Q959 458 959 425 Z M884 425 Q884 479 866 510.5 Q848 542 814 542 Q780 542 762 510.5 Q744 479 744 425 Q744 371 762 339.5 Q780 308 814 308 Q848 308 866 339.5 Q884 371 884 425 Z " />
<glyph glyph-name="ordfeminine" unicode="&#xaa;" horiz-adv-x="319" d="M301 275 Q293 267 278 261.5 Q263 256 247 256 Q207 256 199 289 Q184 273 164 263.5 Q144 254 120 254 Q83 254 56.5 278 Q30 302 30 340 Q30 389 71 410.5 Q112 432 177 432 L195 432 Q195 460 184 480 Q173 500 144 500 Q121 500 103.5 488 Q86 476 74 456 L47 469 Q63 504 91 523 Q119 542 160 542 Q212 542 240 509 Q252 495 258.5 476.5 Q265 458 265 430 L265 316 Q265 305 268.5 298.5 Q272 292 283 292 Q293 292 301 296 L301 275 Z M195 405 L185 405 Q148 405 126 391 Q104 377 104 344 Q104 321 116 307.5 Q128 294 147 294 Q160 294 172 300.5 Q184 307 195 318 L195 405 Z " />
<glyph glyph-name="ordmasculine" unicode="&#xba;" horiz-adv-x="328" d="M304 398 Q304 369 295 342.5 Q286 316 268.5 296.5 Q251 277 224.5 265.5 Q198 254 164 254 Q129 254 103 265.5 Q77 277 59.5 296.5 Q42 316 33 342.5 Q24 369 24 398 Q24 427 33 453.5 Q42 480 59.5 499.5 Q77 519 103 530.5 Q129 542 164 542 Q198 542 224.5 530.5 Q251 519 268.5 499.5 Q286 480 295 453.5 Q304 427 304 398 Z M228 398 Q228 446 212 477.5 Q196 509 164 509 Q132 509 116 477.5 Q100 446 100 398 Q100 350 116 318.5 Q132 287 164 287 Q196 287 212 318.5 Q228 350 228 398 Z " />
<glyph glyph-name="onesuperior" unicode="&#xb9;" horiz-adv-x="320" d="M255 369 Q247 369 235.5 369 Q224 369 211.5 369.5 Q199 370 187.5 370 Q176 370 167 370 Q146 370 120.5 369.5 Q95 369 78 369 L78 387 L129 399 L129 658 Q129 668 127.5 674 Q126 680 120 684.5 Q114 689 103 692.5 Q92 696 74 701 L74 720 Q110 720 137 724.5 Q164 729 179 737 L201 737 L201 428 Q201 411 206.5 404 Q212 397 232 392 L255 387 L255 369 Z " />
<glyph glyph-name="twosuperior" unicode="&#xb2;" horiz-adv-x="320" d="M270 469 Q265 450 259.5 422.5 Q254 395 249 369 L45 369 L45 394 Q81 436 107 469 Q133 502 150.5 529.5 Q168 557 176 581 Q184 605 184 629 Q184 661 171.5 679.5 Q159 698 136 698 Q115 698 100.5 686 Q86 674 73 651 L44 665 Q61 701 89 720.5 Q117 740 155 740 Q198 740 230 713 Q262 686 262 632 Q262 597 245.5 569 Q229 541 206 516.5 Q183 492 157.5 470.5 Q132 449 113 428 L191 428 Q217 428 230.5 436.5 Q244 445 252 469 L270 469 Z " />
<glyph glyph-name="threesuperior" unicode="&#xb3;" horiz-adv-x="320" d="M270 477 Q270 453 260.5 432.5 Q251 412 234 396.5 Q217 381 193.5 372.5 Q170 364 142 364 Q103 364 75.5 377.5 Q48 391 48 414 Q48 428 57 438 Q66 448 79 448 Q90 448 95.5 439.5 Q101 431 106 421 Q111 411 119 402.5 Q127 394 143 394 Q166 394 179.5 415.5 Q193 437 193 473 Q193 516 167.5 533.5 Q142 551 101 551 L101 576 Q137 579 159 601 Q181 623 181 651 Q181 672 170 685 Q159 698 138 698 Q118 698 102.5 686.5 Q87 675 78 658 L48 670 Q62 701 89 720.5 Q116 740 156 740 Q197 740 225.5 718 Q254 696 254 654 Q254 625 233.5 604 Q213 583 181 575 Q220 567 245 541.5 Q270 516 270 477 Z " />
<glyph glyph-name="fraction" unicode="&#x2044;" horiz-adv-x="90" d="M-110 -16 L-161 -16 L201 640 L251 640 L-110 -16 Z " />
<glyph glyph-name="onehalf" unicode="&#xbd;" horiz-adv-x="770" d="M265 259 Q257 259 245.5 259 Q234 259 221.5 259.5 Q209 260 197.5 260 Q186 260 177 260 Q156 260 130.5 259.5 Q105 259 88 259 L88 277 L139 289 L139 548 Q139 558 137.5 564 Q136 570 130 574.5 Q124 579 113 582.5 Q102 586 84 591 L84 610 Q120 610 147 614.5 Q174 619 189 627 L211 627 L211 318 Q211 301 216.5 294 Q222 287 242 282 L265 277 L265 259 Z M684 100 Q679 81 673.5 53.5 Q668 26 663 0 L459 0 L459 25 Q495 67 521 100 Q547 133 564.5 160.5 Q582 188 590 212 Q598 236 598 260 Q598 292 585.5 310.5 Q573 329 550 329 Q529 329 514.5 317 Q500 305 487 282 L458 296 Q475 332 503 351.5 Q531 371 569 371 Q612 371 644 344 Q676 317 676 263 Q676 228 659.5 200 Q643 172 620 147.5 Q597 123 571.5 101.5 Q546 80 527 59 L605 59 Q631 59 644.5 67.5 Q658 76 666 100 L684 100 Z M230 -16 L179 -16 L541 640 L591 640 L230 -16 Z " />
<glyph glyph-name="onequarter" unicode="&#xbc;" horiz-adv-x="770" d="M265 259 Q257 259 245.5 259 Q234 259 221.5 259.5 Q209 260 197.5 260 Q186 260 177 260 Q156 260 130.5 259.5 Q105 259 88 259 L88 277 L139 289 L139 548 Q139 558 137.5 564 Q136 570 130 574.5 Q124 579 113 582.5 Q102 586 84 591 L84 610 Q120 610 147 614.5 Q174 619 189 627 L211 627 L211 318 Q211 301 216.5 294 Q222 287 242 282 L265 277 L265 259 Z M636 57 Q636 40 641 34 Q646 28 663 23 L682 18 L682 0 Q666 0 643 0.5 Q620 1 603 1 Q582 1 560.5 0.5 Q539 0 522 0 L522 18 L565 30 L565 95 L419 95 L419 115 L594 367 L636 367 L636 137 L690 137 L690 95 L636 95 L636 57 Z M565 274 L470 137 L565 137 L565 274 Z M230 -16 L179 -16 L541 640 L591 640 L230 -16 Z " />
<glyph glyph-name="threequarters" unicode="&#xbe;" horiz-adv-x="770" d="M291 367 Q291 343 281.5 322.5 Q272 302 255 286.5 Q238 271 214.5 262.5 Q191 254 163 254 Q124 254 96.5 267.5 Q69 281 69 304 Q69 318 78 328 Q87 338 100 338 Q111 338 116.5 329.5 Q122 321 127 311 Q132 301 140 292.5 Q148 284 164 284 Q187 284 200.5 305.5 Q214 327 214 363 Q214 406 188.5 423.5 Q163 441 122 441 L122 466 Q158 469 180 491 Q202 513 202 541 Q202 562 191 575 Q180 588 159 588 Q139 588 123.5 576.5 Q108 565 99 548 L69 560 Q83 591 110 610.5 Q137 630 177 630 Q218 630 246.5 608 Q275 586 275 544 Q275 515 254.5 494 Q234 473 202 465 Q241 457 266 431.5 Q291 406 291 367 Z M643 57 Q643 40 648 34 Q653 28 670 23 L689 18 L689 0 Q673 0 650 0.5 Q627 1 610 1 Q589 1 567.5 0.5 Q546 0 529 0 L529 18 L572 30 L572 95 L426 95 L426 115 L601 367 L643 367 L643 137 L697 137 L697 95 L643 95 L643 57 Z M572 274 L477 137 L572 137 L572 274 Z M237 -16 L186 -16 L548 640 L598 640 L237 -16 Z " />
<glyph glyph-name="Agrave" unicode="&#xc0;" horiz-adv-x="634" d="M384 219 L192 219 L138 77 Q133 64 133 57 Q133 46 146 38 Q159 30 195 22 L195 0 Q175 0 148 1.5 Q121 3 97 3 Q74 3 50 1.5 Q26 0 4 0 L4 22 L69 41 L294 625 L333 625 L545 78 Q551 62 558.5 52.5 Q566 43 575.5 37 Q585 31 596.5 28 Q608 25 622 22 L622 0 Q613 0 598.5 0.5 Q584 1 568 1.5 Q552 2 536 2.5 Q520 3 509 3 Q497 3 480 2.5 Q463 2 445.5 1.5 Q428 1 412 0.5 Q396 0 385 0 L385 22 L453 41 L384 219 Z M207 258 L369 258 L287 471 L207 258 Z M217 751 L249 785 Q258 794 266 794 Q271 794 275.5 791.5 Q280 789 286 784 L416 679 L408 666 L218 741 L217 751 Z " />
<glyph glyph-name="Aacute" unicode="&#xc1;" horiz-adv-x="634" d="M384 219 L192 219 L138 77 Q133 64 133 57 Q133 46 146 38 Q159 30 195 22 L195 0 Q175 0 148 1.5 Q121 3 97 3 Q74 3 50 1.5 Q26 0 4 0 L4 22 L69 41 L294 625 L333 625 L545 78 Q551 62 558.5 52.5 Q566 43 575.5 37 Q585 31 596.5 28 Q608 25 622 22 L622 0 Q613 0 598.5 0.5 Q584 1 568 1.5 Q552 2 536 2.5 Q520 3 509 3 Q497 3 480 2.5 Q463 2 445.5 1.5 Q428 1 412 0.5 Q396 0 385 0 L385 22 L453 41 L384 219 Z M207 258 L369 258 L287 471 L207 258 Z M415 741 L225 666 L217 679 L347 784 Q353 789 357.5 791.5 Q362 794 367 794 Q375 794 384 785 L416 751 L415 741 Z " />
<glyph glyph-name="Acircumflex" unicode="&#xc2;" horiz-adv-x="634" d="M384 219 L192 219 L138 77 Q133 64 133 57 Q133 46 146 38 Q159 30 195 22 L195 0 Q175 0 148 1.5 Q121 3 97 3 Q74 3 50 1.5 Q26 0 4 0 L4 22 L69 41 L294 625 L333 625 L545 78 Q551 62 558.5 52.5 Q566 43 575.5 37 Q585 31 596.5 28 Q608 25 622 22 L622 0 Q613 0 598.5 0.5 Q584 1 568 1.5 Q552 2 536 2.5 Q520 3 509 3 Q497 3 480 2.5 Q463 2 445.5 1.5 Q428 1 412 0.5 Q396 0 385 0 L385 22 L453 41 L384 219 Z M207 258 L369 258 L287 471 L207 258 Z M424 671 L316 736 L209 671 L197 682 L291 794 L341 794 L436 682 L424 671 Z " />
<glyph glyph-name="Atilde" unicode="&#xc3;" horiz-adv-x="634" d="M384 219 L192 219 L138 77 Q133 64 133 57 Q133 46 146 38 Q159 30 195 22 L195 0 Q175 0 148 1.5 Q121 3 97 3 Q74 3 50 1.5 Q26 0 4 0 L4 22 L69 41 L294 625 L333 625 L545 78 Q551 62 558.5 52.5 Q566 43 575.5 37 Q585 31 596.5 28 Q608 25 622 22 L622 0 Q613 0 598.5 0.5 Q584 1 568 1.5 Q552 2 536 2.5 Q520 3 509 3 Q497 3 480 2.5 Q463 2 445.5 1.5 Q428 1 412 0.5 Q396 0 385 0 L385 22 L453 41 L384 219 Z M207 258 L369 258 L287 471 L207 258 Z M446 790 Q441 736 420.5 715 Q400 694 371 694 Q354 694 339 699.5 Q324 705 309.5 711.5 Q295 718 281 723.5 Q267 729 253 729 Q236 729 226 720.5 Q216 712 210 694 L188 697 Q193 751 213.5 772 Q234 793 263 793 Q279 793 294.5 787.5 Q310 782 324.5 775.5 Q339 769 353 763.5 Q367 758 381 758 Q398 758 408 766.5 Q418 775 424 793 L446 790 Z " />
<glyph glyph-name="Adieresis" unicode="&#xc4;" horiz-adv-x="634" d="M384 219 L192 219 L138 77 Q133 64 133 57 Q133 46 146 38 Q159 30 195 22 L195 0 Q175 0 148 1.5 Q121 3 97 3 Q74 3 50 1.5 Q26 0 4 0 L4 22 L69 41 L294 625 L333 625 L545 78 Q551 62 558.5 52.5 Q566 43 575.5 37 Q585 31 596.5 28 Q608 25 622 22 L622 0 Q613 0 598.5 0.5 Q584 1 568 1.5 Q552 2 536 2.5 Q520 3 509 3 Q497 3 480 2.5 Q463 2 445.5 1.5 Q428 1 412 0.5 Q396 0 385 0 L385 22 L453 41 L384 219 Z M207 258 L369 258 L287 471 L207 258 Z M189 736 Q189 756 203 770.5 Q217 785 237 785 Q257 785 271.5 770.5 Q286 756 286 736 Q286 716 271.5 702 Q257 688 237 688 Q217 688 203 702 Q189 716 189 736 Z M347 736 Q347 756 361 770.5 Q375 785 395 785 Q415 785 429.5 770.5 Q444 756 444 736 Q444 716 429.5 702 Q415 688 395 688 Q375 688 361 702 Q347 716 347 736 Z " />
<glyph glyph-name="Amacron" unicode="&#x100;" horiz-adv-x="634" d="M384 219 L192 219 L138 77 Q133 64 133 57 Q133 46 146 38 Q159 30 195 22 L195 0 Q175 0 148 1.5 Q121 3 97 3 Q74 3 50 1.5 Q26 0 4 0 L4 22 L69 41 L294 625 L333 625 L545 78 Q551 62 558.5 52.5 Q566 43 575.5 37 Q585 31 596.5 28 Q608 25 622 22 L622 0 Q613 0 598.5 0.5 Q584 1 568 1.5 Q552 2 536 2.5 Q520 3 509 3 Q497 3 480 2.5 Q463 2 445.5 1.5 Q428 1 412 0.5 Q396 0 385 0 L385 22 L453 41 L384 219 Z M207 258 L369 258 L287 471 L207 258 Z M203 698 L203 749 L431 749 L431 698 L203 698 Z " />
<glyph glyph-name="Abreve" unicode="&#x102;" horiz-adv-x="634" d="M384 219 L192 219 L138 77 Q133 64 133 57 Q133 46 146 38 Q159 30 195 22 L195 0 Q175 0 148 1.5 Q121 3 97 3 Q74 3 50 1.5 Q26 0 4 0 L4 22 L69 41 L294 625 L333 625 L545 78 Q551 62 558.5 52.5 Q566 43 575.5 37 Q585 31 596.5 28 Q608 25 622 22 L622 0 Q613 0 598.5 0.5 Q584 1 568 1.5 Q552 2 536 2.5 Q520 3 509 3 Q497 3 480 2.5 Q463 2 445.5 1.5 Q428 1 412 0.5 Q396 0 385 0 L385 22 L453 41 L384 219 Z M207 258 L369 258 L287 471 L207 258 Z M317 675 Q264 675 235.5 708.5 Q207 742 207 793 L231 793 Q235 764 258.5 748.5 Q282 733 317 733 Q352 733 375.5 748.5 Q399 764 403 793 L427 793 Q427 742 398.5 708.5 Q370 675 317 675 Z " />
<glyph glyph-name="Acaron" unicode="&#x1cd;" horiz-adv-x="634" d="M384 219 L192 219 L138 77 Q133 64 133 57 Q133 46 146 38 Q159 30 195 22 L195 0 Q175 0 148 1.5 Q121 3 97 3 Q74 3 50 1.5 Q26 0 4 0 L4 22 L69 41 L294 625 L333 625 L545 78 Q551 62 558.5 52.5 Q566 43 575.5 37 Q585 31 596.5 28 Q608 25 622 22 L622 0 Q613 0 598.5 0.5 Q584 1 568 1.5 Q552 2 536 2.5 Q520 3 509 3 Q497 3 480 2.5 Q463 2 445.5 1.5 Q428 1 412 0.5 Q396 0 385 0 L385 22 L453 41 L384 219 Z M207 258 L369 258 L287 471 L207 258 Z M434 783 L339 671 L289 671 L195 783 L207 794 L314 729 L422 794 L434 783 Z " />
<glyph glyph-name="Aring" unicode="&#xc5;" horiz-adv-x="634" d="M384 219 L192 219 L138 77 Q133 64 133 57 Q133 46 146 38 Q159 30 195 22 L195 0 Q175 0 148 1.5 Q121 3 97 3 Q74 3 50 1.5 Q26 0 4 0 L4 22 L69 41 L294 625 L333 625 L545 78 Q551 62 558.5 52.5 Q566 43 575.5 37 Q585 31 596.5 28 Q608 25 622 22 L622 0 Q613 0 598.5 0.5 Q584 1 568 1.5 Q552 2 536 2.5 Q520 3 509 3 Q497 3 480 2.5 Q463 2 445.5 1.5 Q428 1 412 0.5 Q396 0 385 0 L385 22 L453 41 L384 219 Z M207 258 L369 258 L287 471 L207 258 Z M402 753 Q402 719 378 694.5 Q354 670 317 670 Q280 670 256 694.5 Q232 719 232 753 Q232 787 256 811.5 Q280 836 317 836 Q354 836 378 811.5 Q402 787 402 753 Z M360 753 Q360 772 348.5 786 Q337 800 317 800 Q297 800 285.5 786 Q274 772 274 753 Q274 734 285.5 720 Q297 706 317 706 Q337 706 348.5 720 Q360 734 360 753 Z " />
<glyph glyph-name="Aringacute" unicode="&#x1fa;" horiz-adv-x="634" d="M384 219 L192 219 L138 77 Q133 64 133 57 Q133 46 146 38 Q159 30 195 22 L195 0 Q175 0 148 1.5 Q121 3 97 3 Q74 3 50 1.5 Q26 0 4 0 L4 22 L69 41 L294 625 L333 625 L545 78 Q551 62 558.5 52.5 Q566 43 575.5 37 Q585 31 596.5 28 Q608 25 622 22 L622 0 Q613 0 598.5 0.5 Q584 1 568 1.5 Q552 2 536 2.5 Q520 3 509 3 Q497 3 480 2.5 Q463 2 445.5 1.5 Q428 1 412 0.5 Q396 0 385 0 L385 22 L453 41 L384 219 Z M207 258 L369 258 L287 471 L207 258 Z M402 733 Q402 699 378 674.5 Q354 650 317 650 Q280 650 256 674.5 Q232 699 232 733 Q232 767 256 791.5 Q280 816 317 816 Q354 816 378 791.5 Q402 767 402 733 Z M360 733 Q360 752 348.5 766 Q337 780 317 780 Q297 780 285.5 766 Q274 752 274 733 Q274 714 285.5 700 Q297 686 317 686 Q337 686 348.5 700 Q360 714 360 733 Z M409 910 L234 822 L224 835 L340 953 Q351 964 360 964 Q368 964 376 956 L409 921 L409 910 Z " />
<glyph glyph-name="Aogonek" unicode="&#x104;" horiz-adv-x="634" d="M138 77 Q133 64 133 57 Q133 46 146 38 Q159 30 195 22 L195 0 Q175 0 148 1.5 Q121 3 97 3 Q74 3 50 1.5 Q26 0 4 0 L4 22 L69 41 L294 625 L333 625 L545 78 Q551 62 558.5 52.5 Q566 43 575.5 37 Q585 31 596.5 28 Q608 25 622 22 L622 0 Q610 0 588.5 0.5 Q567 1 546 2 Q511 -22 490 -56.5 Q469 -91 469 -126 Q469 -157 486.5 -172 Q504 -187 530 -187 Q544 -187 558.5 -184.5 Q573 -182 586 -178 L593 -204 Q576 -212 554.5 -218 Q533 -224 510 -224 Q462 -224 430.5 -198.5 Q399 -173 399 -130 Q399 -89 429 -54.5 Q459 -20 504 3 Q491 3 474.5 2.5 Q458 2 441.5 1.5 Q425 1 410 0.5 Q395 0 385 0 L385 22 L453 41 L384 219 L192 219 L138 77 Z M207 258 L369 258 L287 471 L207 258 Z " />
<glyph glyph-name="AE" unicode="&#xc6;" horiz-adv-x="869" d="M797 625 Q797 611 798.5 590 Q800 569 801.5 547.5 Q803 526 804.5 506.5 Q806 487 808 475 L780 475 Q775 505 767 526 Q759 547 741.5 559.5 Q724 572 693.5 578 Q663 584 614 584 Q593 584 570.5 583.5 Q548 583 525 582 L525 342 L591 342 Q635 342 668.5 344.5 Q702 347 716 350 L711 295 Q704 296 690.5 297 Q677 298 660 299 Q643 300 625 300.5 Q607 301 591 301 L525 301 L525 85 Q525 60 546 50.5 Q567 41 627 41 Q659 41 680.5 42.5 Q702 44 716 46.5 Q730 49 739 53 Q748 57 755 62 Q772 74 781.5 96.5 Q791 119 798 149 L823 149 Q822 136 821 115.5 Q820 95 819 73.5 Q818 52 817.5 32 Q817 12 817 0 L356 0 L356 22 L422 42 L422 301 L265 301 L139 74 Q133 62 133 55 Q133 43 148 35 Q163 27 200 22 L200 0 Q179 0 150.5 1 Q122 2 100 2 Q76 2 44.5 1 Q13 0 -6 0 L-6 22 L63 42 L344 544 Q354 562 354 572 Q354 584 340 591 Q326 598 294 603 L294 625 L797 625 Z M288 342 L422 342 L422 581 L288 342 Z " />
<glyph glyph-name="AEacute" unicode="&#x1fc;" horiz-adv-x="869" d="M797 625 Q797 611 798.5 590 Q800 569 801.5 547.5 Q803 526 804.5 506.5 Q806 487 808 475 L780 475 Q775 505 767 526 Q759 547 741.5 559.5 Q724 572 693.5 578 Q663 584 614 584 Q593 584 570.5 583.5 Q548 583 525 582 L525 342 L591 342 Q635 342 668.5 344.5 Q702 347 716 350 L711 295 Q704 296 690.5 297 Q677 298 660 299 Q643 300 625 300.5 Q607 301 591 301 L525 301 L525 85 Q525 60 546 50.5 Q567 41 627 41 Q659 41 680.5 42.5 Q702 44 716 46.5 Q730 49 739 53 Q748 57 755 62 Q772 74 781.5 96.5 Q791 119 798 149 L823 149 Q822 136 821 115.5 Q820 95 819 73.5 Q818 52 817.5 32 Q817 12 817 0 L356 0 L356 22 L422 42 L422 301 L265 301 L139 74 Q133 62 133 55 Q133 43 148 35 Q163 27 200 22 L200 0 Q179 0 150.5 1 Q122 2 100 2 Q76 2 44.5 1 Q13 0 -6 0 L-6 22 L63 42 L344 544 Q354 562 354 572 Q354 584 340 591 Q326 598 294 603 L294 625 L797 625 Z M288 342 L422 342 L422 581 L288 342 Z M666 741 L476 666 L468 679 L598 784 Q604 789 608.5 791.5 Q613 794 618 794 Q626 794 635 785 L667 751 L666 741 Z " />
<glyph glyph-name="Cacute" unicode="&#x106;" horiz-adv-x="569" d="M531 111 Q496 54 439.5 19 Q383 -16 311 -16 Q254 -16 209 2 Q164 20 131 54 Q88 97 66 163 Q44 229 44 310 Q44 382 64.5 443 Q85 504 123 547.5 Q161 591 216.5 615.5 Q272 640 341 640 Q386 640 428.5 632 Q471 624 506 620 Q506 605 507 582.5 Q508 560 509 536.5 Q510 513 511.5 490.5 Q513 468 515 453 L488 453 Q477 516 443 555 Q409 594 343 594 Q299 594 264.5 574.5 Q230 555 206 518 Q182 481 169.5 429 Q157 377 157 313 Q157 186 202 114.5 Q247 43 332 43 Q385 43 427.5 67 Q470 91 502 133 L531 111 Z M443 741 L253 666 L245 679 L375 784 Q381 789 385.5 791.5 Q390 794 395 794 Q403 794 412 785 L444 751 L443 741 Z " />
<glyph glyph-name="Ccedilla" unicode="&#xc7;" horiz-adv-x="569" d="M414 -131 Q414 -151 403.5 -170 Q393 -189 372 -203 Q351 -217 320 -225.5 Q289 -234 247 -234 L241 -208 Q290 -204 318.5 -184.5 Q347 -165 347 -132 Q347 -109 330.5 -98.5 Q314 -88 288 -84 Q277 -82 274.5 -78 Q272 -74 274 -66 L290 -15 Q192 -9 131 54 Q88 97 66 163 Q44 229 44 310 Q44 382 64.5 443 Q85 504 123 547.5 Q161 591 216.5 615.5 Q272 640 341 640 Q386 640 428.5 632 Q471 624 506 620 Q506 605 507 582.5 Q508 560 509 536.5 Q510 513 511.5 490.5 Q513 468 515 453 L488 453 Q477 516 443 555 Q409 594 343 594 Q299 594 264.5 574.5 Q230 555 206 518 Q182 481 169.5 429 Q157 377 157 313 Q157 186 202 114.5 Q247 43 332 43 Q385 43 427.5 67 Q470 91 502 133 L531 111 Q499 58 449 24.5 Q399 -9 335 -15 L324 -49 Q364 -55 389 -75 Q414 -95 414 -131 Z " />
<glyph glyph-name="Ccircumflex" unicode="&#x108;" horiz-adv-x="569" d="M531 111 Q496 54 439.5 19 Q383 -16 311 -16 Q254 -16 209 2 Q164 20 131 54 Q88 97 66 163 Q44 229 44 310 Q44 382 64.5 443 Q85 504 123 547.5 Q161 591 216.5 615.5 Q272 640 341 640 Q386 640 428.5 632 Q471 624 506 620 Q506 605 507 582.5 Q508 560 509 536.5 Q510 513 511.5 490.5 Q513 468 515 453 L488 453 Q477 516 443 555 Q409 594 343 594 Q299 594 264.5 574.5 Q230 555 206 518 Q182 481 169.5 429 Q157 377 157 313 Q157 186 202 114.5 Q247 43 332 43 Q385 43 427.5 67 Q470 91 502 133 L531 111 Z M448 671 L340 736 L233 671 L221 682 L315 794 L365 794 L460 682 L448 671 Z " />
<glyph glyph-name="Ccaron" unicode="&#x10c;" horiz-adv-x="569" d="M531 111 Q496 54 439.5 19 Q383 -16 311 -16 Q254 -16 209 2 Q164 20 131 54 Q88 97 66 163 Q44 229 44 310 Q44 382 64.5 443 Q85 504 123 547.5 Q161 591 216.5 615.5 Q272 640 341 640 Q386 640 428.5 632 Q471 624 506 620 Q506 605 507 582.5 Q508 560 509 536.5 Q510 513 511.5 490.5 Q513 468 515 453 L488 453 Q477 516 443 555 Q409 594 343 594 Q299 594 264.5 574.5 Q230 555 206 518 Q182 481 169.5 429 Q157 377 157 313 Q157 186 202 114.5 Q247 43 332 43 Q385 43 427.5 67 Q470 91 502 133 L531 111 Z M460 783 L365 671 L315 671 L221 783 L233 794 L340 729 L448 794 L460 783 Z " />
<glyph glyph-name="Cdotaccent" unicode="&#x10a;" horiz-adv-x="569" d="M531 111 Q496 54 439.5 19 Q383 -16 311 -16 Q254 -16 209 2 Q164 20 131 54 Q88 97 66 163 Q44 229 44 310 Q44 382 64.5 443 Q85 504 123 547.5 Q161 591 216.5 615.5 Q272 640 341 640 Q386 640 428.5 632 Q471 624 506 620 Q506 605 507 582.5 Q508 560 509 536.5 Q510 513 511.5 490.5 Q513 468 515 453 L488 453 Q477 516 443 555 Q409 594 343 594 Q299 594 264.5 574.5 Q230 555 206 518 Q182 481 169.5 429 Q157 377 157 313 Q157 186 202 114.5 Q247 43 332 43 Q385 43 427.5 67 Q470 91 502 133 L531 111 Z M284 745 Q284 768 300.5 784.5 Q317 801 340 801 Q363 801 379.5 784.5 Q396 768 396 745 Q396 722 379.5 705.5 Q363 689 340 689 Q317 689 300.5 705.5 Q284 722 284 745 Z " />
<glyph glyph-name="Dcaron" unicode="&#x10e;" horiz-adv-x="660" d="M40 0 L40 22 L106 42 L106 536 Q106 564 97.5 575.5 Q89 587 61 596 L39 603 L39 625 L254 625 Q357 625 426.5 603.5 Q496 582 539 538 Q578 499 597 440.5 Q616 382 616 308 Q616 239 594 179 Q572 119 527 76 Q491 41 439 20.5 Q387 0 315 0 L40 0 Z M504 310 Q504 378 489.5 429 Q475 480 443 515 Q413 547 366.5 564 Q320 581 253 581 L209 581 L209 87 Q209 64 225 52.5 Q241 41 290 41 L292 41 Q346 41 385.5 61.5 Q425 82 451.5 118.5 Q478 155 491 204 Q504 253 504 310 Z M457 783 L362 671 L312 671 L218 783 L230 794 L337 729 L445 794 L457 783 Z " />
<glyph glyph-name="Dcroat" unicode="&#x110;" horiz-adv-x="660" d="M40 0 L40 22 L106 42 L106 298 L36 298 L36 343 L106 343 L106 536 Q106 564 97.5 575.5 Q89 587 61 596 L39 603 L39 625 L254 625 Q357 625 426.5 603.5 Q496 582 539 538 Q578 499 597 440.5 Q616 382 616 308 Q616 239 594 179 Q572 119 527 76 Q491 41 439 20.5 Q387 0 315 0 L40 0 Z M504 310 Q504 378 489.5 429 Q475 480 443 515 Q413 547 366.5 564 Q320 581 253 581 L209 581 L209 343 L322 343 L322 298 L209 298 L209 87 Q209 64 225 52.5 Q241 41 290 41 L292 41 Q346 41 385.5 61.5 Q425 82 451.5 118.5 Q478 155 491 204 Q504 253 504 310 Z " />
<glyph glyph-name="Eth" unicode="&#xd0;" horiz-adv-x="660" d="M40 0 L40 22 L106 42 L106 298 L36 298 L36 343 L106 343 L106 536 Q106 564 97.5 575.5 Q89 587 61 596 L39 603 L39 625 L254 625 Q357 625 426.5 603.5 Q496 582 539 538 Q578 499 597 440.5 Q616 382 616 308 Q616 239 594 179 Q572 119 527 76 Q491 41 439 20.5 Q387 0 315 0 L40 0 Z M504 310 Q504 378 489.5 429 Q475 480 443 515 Q413 547 366.5 564 Q320 581 253 581 L209 581 L209 343 L322 343 L322 298 L209 298 L209 87 Q209 64 225 52.5 Q241 41 290 41 L292 41 Q346 41 385.5 61.5 Q425 82 451.5 118.5 Q478 155 491 204 Q504 253 504 310 Z " />
<glyph glyph-name="Egrave" unicode="&#xc8;" horiz-adv-x="553" d="M40 22 L106 42 L106 536 Q106 564 97.5 575.5 Q89 587 61 596 L39 603 L39 625 L481 625 Q481 611 482.5 590 Q484 569 485.5 547.5 Q487 526 488.5 506.5 Q490 487 492 475 L464 475 Q459 505 451 526 Q443 547 425.5 559.5 Q408 572 377.5 578 Q347 584 298 584 Q277 584 253.5 583.5 Q230 583 209 582 L209 342 L275 342 Q319 342 352.5 344.5 Q386 347 400 350 L395 295 Q388 296 374.5 297 Q361 298 344 299 Q327 300 309 300.5 Q291 301 275 301 L209 301 L209 85 Q209 60 230 50.5 Q251 41 311 41 Q342 41 363.5 42.5 Q385 44 399.5 46.5 Q414 49 423 53 Q432 57 439 62 Q456 74 465.5 96.5 Q475 119 482 149 L507 149 Q506 136 505 115.5 Q504 95 503 73.5 Q502 52 501.5 32 Q501 12 501 0 L40 0 L40 22 Z M187 751 L219 785 Q228 794 236 794 Q241 794 245.5 791.5 Q250 789 256 784 L386 679 L378 666 L188 741 L187 751 Z " />
<glyph glyph-name="Eacute" unicode="&#xc9;" horiz-adv-x="553" d="M40 22 L106 42 L106 536 Q106 564 97.5 575.5 Q89 587 61 596 L39 603 L39 625 L481 625 Q481 611 482.5 590 Q484 569 485.5 547.5 Q487 526 488.5 506.5 Q490 487 492 475 L464 475 Q459 505 451 526 Q443 547 425.5 559.5 Q408 572 377.5 578 Q347 584 298 584 Q277 584 253.5 583.5 Q230 583 209 582 L209 342 L275 342 Q319 342 352.5 344.5 Q386 347 400 350 L395 295 Q388 296 374.5 297 Q361 298 344 299 Q327 300 309 300.5 Q291 301 275 301 L209 301 L209 85 Q209 60 230 50.5 Q251 41 311 41 Q342 41 363.5 42.5 Q385 44 399.5 46.5 Q414 49 423 53 Q432 57 439 62 Q456 74 465.5 96.5 Q475 119 482 149 L507 149 Q506 136 505 115.5 Q504 95 503 73.5 Q502 52 501.5 32 Q501 12 501 0 L40 0 L40 22 Z M385 741 L195 666 L187 679 L317 784 Q323 789 327.5 791.5 Q332 794 337 794 Q345 794 354 785 L386 751 L385 741 Z " />
<glyph glyph-name="Ecircumflex" unicode="&#xca;" horiz-adv-x="553" d="M40 22 L106 42 L106 536 Q106 564 97.5 575.5 Q89 587 61 596 L39 603 L39 625 L481 625 Q481 611 482.5 590 Q484 569 485.5 547.5 Q487 526 488.5 506.5 Q490 487 492 475 L464 475 Q459 505 451 526 Q443 547 425.5 559.5 Q408 572 377.5 578 Q347 584 298 584 Q277 584 253.5 583.5 Q230 583 209 582 L209 342 L275 342 Q319 342 352.5 344.5 Q386 347 400 350 L395 295 Q388 296 374.5 297 Q361 298 344 299 Q327 300 309 300.5 Q291 301 275 301 L209 301 L209 85 Q209 60 230 50.5 Q251 41 311 41 Q342 41 363.5 42.5 Q385 44 399.5 46.5 Q414 49 423 53 Q432 57 439 62 Q456 74 465.5 96.5 Q475 119 482 149 L507 149 Q506 136 505 115.5 Q504 95 503 73.5 Q502 52 501.5 32 Q501 12 501 0 L40 0 L40 22 Z M394 671 L286 736 L179 671 L167 682 L261 794 L311 794 L406 682 L394 671 Z " />
<glyph glyph-name="Ecaron" unicode="&#x11a;" horiz-adv-x="553" d="M40 22 L106 42 L106 536 Q106 564 97.5 575.5 Q89 587 61 596 L39 603 L39 625 L481 625 Q481 611 482.5 590 Q484 569 485.5 547.5 Q487 526 488.5 506.5 Q490 487 492 475 L464 475 Q459 505 451 526 Q443 547 425.5 559.5 Q408 572 377.5 578 Q347 584 298 584 Q277 584 253.5 583.5 Q230 583 209 582 L209 342 L275 342 Q319 342 352.5 344.5 Q386 347 400 350 L395 295 Q388 296 374.5 297 Q361 298 344 299 Q327 300 309 300.5 Q291 301 275 301 L209 301 L209 85 Q209 60 230 50.5 Q251 41 311 41 Q342 41 363.5 42.5 Q385 44 399.5 46.5 Q414 49 423 53 Q432 57 439 62 Q456 74 465.5 96.5 Q475 119 482 149 L507 149 Q506 136 505 115.5 Q504 95 503 73.5 Q502 52 501.5 32 Q501 12 501 0 L40 0 L40 22 Z M406 783 L311 671 L261 671 L167 783 L179 794 L286 729 L394 794 L406 783 Z " />
<glyph glyph-name="Edieresis" unicode="&#xcb;" horiz-adv-x="553" d="M40 22 L106 42 L106 536 Q106 564 97.5 575.5 Q89 587 61 596 L39 603 L39 625 L481 625 Q481 611 482.5 590 Q484 569 485.5 547.5 Q487 526 488.5 506.5 Q490 487 492 475 L464 475 Q459 505 451 526 Q443 547 425.5 559.5 Q408 572 377.5 578 Q347 584 298 584 Q277 584 253.5 583.5 Q230 583 209 582 L209 342 L275 342 Q319 342 352.5 344.5 Q386 347 400 350 L395 295 Q388 296 374.5 297 Q361 298 344 299 Q327 300 309 300.5 Q291 301 275 301 L209 301 L209 85 Q209 60 230 50.5 Q251 41 311 41 Q342 41 363.5 42.5 Q385 44 399.5 46.5 Q414 49 423 53 Q432 57 439 62 Q456 74 465.5 96.5 Q475 119 482 149 L507 149 Q506 136 505 115.5 Q504 95 503 73.5 Q502 52 501.5 32 Q501 12 501 0 L40 0 L40 22 Z M159 736 Q159 756 173 770.5 Q187 785 207 785 Q227 785 241.5 770.5 Q256 756 256 736 Q256 716 241.5 702 Q227 688 207 688 Q187 688 173 702 Q159 716 159 736 Z M317 736 Q317 756 331 770.5 Q345 785 365 785 Q385 785 399.5 770.5 Q414 756 414 736 Q414 716 399.5 702 Q385 688 365 688 Q345 688 331 702 Q317 716 317 736 Z " />
<glyph glyph-name="Emacron" unicode="&#x112;" horiz-adv-x="553" d="M40 22 L106 42 L106 536 Q106 564 97.5 575.5 Q89 587 61 596 L39 603 L39 625 L481 625 Q481 611 482.5 590 Q484 569 485.5 547.5 Q487 526 488.5 506.5 Q490 487 492 475 L464 475 Q459 505 451 526 Q443 547 425.5 559.5 Q408 572 377.5 578 Q347 584 298 584 Q277 584 253.5 583.5 Q230 583 209 582 L209 342 L275 342 Q319 342 352.5 344.5 Q386 347 400 350 L395 295 Q388 296 374.5 297 Q361 298 344 299 Q327 300 309 300.5 Q291 301 275 301 L209 301 L209 85 Q209 60 230 50.5 Q251 41 311 41 Q342 41 363.5 42.5 Q385 44 399.5 46.5 Q414 49 423 53 Q432 57 439 62 Q456 74 465.5 96.5 Q475 119 482 149 L507 149 Q506 136 505 115.5 Q504 95 503 73.5 Q502 52 501.5 32 Q501 12 501 0 L40 0 L40 22 Z M172 698 L172 749 L400 749 L400 698 L172 698 Z " />
<glyph glyph-name="Ebreve" unicode="&#x114;" horiz-adv-x="553" d="M40 22 L106 42 L106 536 Q106 564 97.5 575.5 Q89 587 61 596 L39 603 L39 625 L481 625 Q481 611 482.5 590 Q484 569 485.5 547.5 Q487 526 488.5 506.5 Q490 487 492 475 L464 475 Q459 505 451 526 Q443 547 425.5 559.5 Q408 572 377.5 578 Q347 584 298 584 Q277 584 253.5 583.5 Q230 583 209 582 L209 342 L275 342 Q319 342 352.5 344.5 Q386 347 400 350 L395 295 Q388 296 374.5 297 Q361 298 344 299 Q327 300 309 300.5 Q291 301 275 301 L209 301 L209 85 Q209 60 230 50.5 Q251 41 311 41 Q342 41 363.5 42.5 Q385 44 399.5 46.5 Q414 49 423 53 Q432 57 439 62 Q456 74 465.5 96.5 Q475 119 482 149 L507 149 Q506 136 505 115.5 Q504 95 503 73.5 Q502 52 501.5 32 Q501 12 501 0 L40 0 L40 22 Z M286 675 Q233 675 204.5 708.5 Q176 742 176 793 L200 793 Q204 764 227.5 748.5 Q251 733 286 733 Q321 733 344.5 748.5 Q368 764 372 793 L396 793 Q396 742 367.5 708.5 Q339 675 286 675 Z " />
<glyph glyph-name="Edotaccent" unicode="&#x116;" horiz-adv-x="553" d="M40 22 L106 42 L106 536 Q106 564 97.5 575.5 Q89 587 61 596 L39 603 L39 625 L481 625 Q481 611 482.5 590 Q484 569 485.5 547.5 Q487 526 488.5 506.5 Q490 487 492 475 L464 475 Q459 505 451 526 Q443 547 425.5 559.5 Q408 572 377.5 578 Q347 584 298 584 Q277 584 253.5 583.5 Q230 583 209 582 L209 342 L275 342 Q319 342 352.5 344.5 Q386 347 400 350 L395 295 Q388 296 374.5 297 Q361 298 344 299 Q327 300 309 300.5 Q291 301 275 301 L209 301 L209 85 Q209 60 230 50.5 Q251 41 311 41 Q342 41 363.5 42.5 Q385 44 399.5 46.5 Q414 49 423 53 Q432 57 439 62 Q456 74 465.5 96.5 Q475 119 482 149 L507 149 Q506 136 505 115.5 Q504 95 503 73.5 Q502 52 501.5 32 Q501 12 501 0 L40 0 L40 22 Z M230 745 Q230 768 246.5 784.5 Q263 801 286 801 Q309 801 325.5 784.5 Q342 768 342 745 Q342 722 325.5 705.5 Q309 689 286 689 Q263 689 246.5 705.5 Q230 722 230 745 Z " />
<glyph glyph-name="Eogonek" unicode="&#x118;" horiz-adv-x="553" d="M40 22 L106 42 L106 536 Q106 564 97.5 575.5 Q89 587 61 596 L39 603 L39 625 L481 625 Q481 611 482.5 590 Q484 569 485.5 547.5 Q487 526 488.5 506.5 Q490 487 492 475 L464 475 Q459 505 451 526 Q443 547 425.5 559.5 Q408 572 377.5 578 Q347 584 298 584 Q277 584 254.5 583.5 Q232 583 209 582 L209 342 L275 342 Q319 342 352.5 344.5 Q386 347 400 350 L395 295 Q388 296 374.5 297 Q361 298 344 299 Q327 300 309 300.5 Q291 301 275 301 L209 301 L209 85 Q209 60 230 50.5 Q251 41 311 41 Q343 41 364.5 42.5 Q386 44 400 46.5 Q414 49 423 53 Q432 57 439 62 Q456 74 465.5 96.5 Q475 119 482 149 L507 149 Q506 136 505 115.5 Q504 95 503 73.5 Q502 52 501.5 32 Q501 12 501 0 L437 0 Q402 -24 382.5 -57.5 Q363 -91 363 -126 Q363 -157 380.5 -172 Q398 -187 424 -187 Q438 -187 452.5 -184.5 Q467 -182 480 -178 L487 -204 Q470 -212 448.5 -218 Q427 -224 404 -224 Q356 -224 324.5 -198.5 Q293 -173 293 -130 Q293 -90 321.5 -56.5 Q350 -23 392 0 L40 0 L40 22 Z " />
<glyph glyph-name="Gcircumflex" unicode="&#x11c;" horiz-adv-x="654" d="M553 39 Q534 28 509 18 Q484 8 456 0.5 Q428 -7 398 -11.5 Q368 -16 339 -16 Q267 -16 213 5.5 Q159 27 123 66 Q44 153 44 309 Q44 385 69 449.5 Q94 514 142 559 Q182 597 237 618.5 Q292 640 363 640 Q407 640 451.5 631.5 Q496 623 534 618 Q534 601 534.5 580 Q535 559 536 537.5 Q537 516 539 494 Q541 472 543 453 L516 453 Q508 516 467 555 Q426 594 358 594 Q310 594 273 574 Q236 554 210 517.5 Q184 481 170.5 428.5 Q157 376 157 311 Q157 239 171 186.5 Q185 134 209.5 99.5 Q234 65 267 48 Q300 31 338 31 Q365 31 388.5 38 Q412 45 428 59 Q452 82 452 130 L452 235 L378 255 L378 277 Q389 277 405.5 276.5 Q422 276 440.5 275.5 Q459 275 476.5 274.5 Q494 274 508 274 Q534 274 564 275.5 Q594 277 620 277 L620 255 L598 248 Q570 239 561.5 227.5 Q553 216 553 188 L553 39 Z M464 671 L356 736 L249 671 L237 682 L331 794 L381 794 L476 682 L464 671 Z " />
<glyph glyph-name="Gbreve" unicode="&#x11e;" horiz-adv-x="654" d="M553 39 Q534 28 509 18 Q484 8 456 0.5 Q428 -7 398 -11.5 Q368 -16 339 -16 Q267 -16 213 5.5 Q159 27 123 66 Q44 153 44 309 Q44 385 69 449.5 Q94 514 142 559 Q182 597 237 618.5 Q292 640 363 640 Q407 640 451.5 631.5 Q496 623 534 618 Q534 601 534.5 580 Q535 559 536 537.5 Q537 516 539 494 Q541 472 543 453 L516 453 Q508 516 467 555 Q426 594 358 594 Q310 594 273 574 Q236 554 210 517.5 Q184 481 170.5 428.5 Q157 376 157 311 Q157 239 171 186.5 Q185 134 209.5 99.5 Q234 65 267 48 Q300 31 338 31 Q365 31 388.5 38 Q412 45 428 59 Q452 82 452 130 L452 235 L378 255 L378 277 Q389 277 405.5 276.5 Q422 276 440.5 275.5 Q459 275 476.5 274.5 Q494 274 508 274 Q534 274 564 275.5 Q594 277 620 277 L620 255 L598 248 Q570 239 561.5 227.5 Q553 216 553 188 L553 39 Z M357 675 Q304 675 275.5 708.5 Q247 742 247 793 L271 793 Q275 764 298.5 748.5 Q322 733 357 733 Q392 733 415.5 748.5 Q439 764 443 793 L467 793 Q467 742 438.5 708.5 Q410 675 357 675 Z " />
<glyph glyph-name="Gdotaccent" unicode="&#x120;" horiz-adv-x="654" d="M553 39 Q534 28 509 18 Q484 8 456 0.5 Q428 -7 398 -11.5 Q368 -16 339 -16 Q267 -16 213 5.5 Q159 27 123 66 Q44 153 44 309 Q44 385 69 449.5 Q94 514 142 559 Q182 597 237 618.5 Q292 640 363 640 Q407 640 451.5 631.5 Q496 623 534 618 Q534 601 534.5 580 Q535 559 536 537.5 Q537 516 539 494 Q541 472 543 453 L516 453 Q508 516 467 555 Q426 594 358 594 Q310 594 273 574 Q236 554 210 517.5 Q184 481 170.5 428.5 Q157 376 157 311 Q157 239 171 186.5 Q185 134 209.5 99.5 Q234 65 267 48 Q300 31 338 31 Q365 31 388.5 38 Q412 45 428 59 Q452 82 452 130 L452 235 L378 255 L378 277 Q389 277 405.5 276.5 Q422 276 440.5 275.5 Q459 275 476.5 274.5 Q494 274 508 274 Q534 274 564 275.5 Q594 277 620 277 L620 255 L598 248 Q570 239 561.5 227.5 Q553 216 553 188 L553 39 Z M301 745 Q301 768 317.5 784.5 Q334 801 357 801 Q380 801 396.5 784.5 Q413 768 413 745 Q413 722 396.5 705.5 Q380 689 357 689 Q334 689 317.5 705.5 Q301 722 301 745 Z " />
<glyph glyph-name="Gcommaaccent" unicode="&#x122;" horiz-adv-x="654" d="M553 39 Q534 28 509 18 Q484 8 456 0.5 Q428 -7 398 -11.5 Q368 -16 339 -16 Q267 -16 213 5.5 Q159 27 123 66 Q44 153 44 309 Q44 385 69 449.5 Q94 514 142 559 Q182 597 237 618.5 Q292 640 363 640 Q407 640 451.5 631.5 Q496 623 534 618 Q534 601 534.5 580 Q535 559 536 537.5 Q537 516 539 494 Q541 472 543 453 L516 453 Q508 516 467 555 Q426 594 358 594 Q310 594 273 574 Q236 554 210 517.5 Q184 481 170.5 428.5 Q157 376 157 311 Q157 239 171 186.5 Q185 134 209.5 99.5 Q234 65 267 48 Q300 31 338 31 Q365 31 388.5 38 Q412 45 428 59 Q452 82 452 130 L452 235 L378 255 L378 277 Q389 277 405.5 276.5 Q422 276 440.5 275.5 Q459 275 476.5 274.5 Q494 274 508 274 Q534 274 564 275.5 Q594 277 620 277 L620 255 L598 248 Q570 239 561.5 227.5 Q553 216 553 188 L553 39 Z M400 -123 Q400 -159 381.5 -198.5 Q363 -238 318 -263 L304 -247 Q322 -233 335 -212 Q348 -191 348 -170 Q348 -153 340 -143 Q332 -133 322.5 -125.5 Q313 -118 305 -110 Q297 -102 297 -89 Q297 -72 309.5 -61.5 Q322 -51 340 -51 Q369 -51 384.5 -72.5 Q400 -94 400 -123 Z " />
<glyph glyph-name="Hcircumflex" unicode="&#x124;" horiz-adv-x="710" d="M106 536 Q106 564 97.5 575.5 Q89 587 61 596 L39 603 L39 625 Q65 625 95.5 623.5 Q126 622 152 622 Q165 622 182 622.5 Q199 623 216 623.5 Q233 624 248.5 624.5 Q264 625 275 625 L275 603 L209 583 L209 343 L501 343 L501 536 Q501 564 492.5 575.5 Q484 587 456 596 L434 603 L434 625 Q460 625 490 623.5 Q520 622 546 622 Q559 622 576 622.5 Q593 623 610.5 623.5 Q628 624 643.5 624.5 Q659 625 670 625 L670 603 L604 583 L604 89 Q604 61 612.5 49.5 Q621 38 649 29 L671 22 L671 0 Q645 0 614.5 1.5 Q584 3 558 3 Q544 3 527.5 2.5 Q511 2 494 1.5 Q477 1 461.5 0.5 Q446 0 435 0 L435 22 L501 42 L501 298 L209 298 L209 89 Q209 61 217.5 49.5 Q226 38 254 29 L276 22 L276 0 Q250 0 220 1.5 Q190 3 164 3 Q150 3 133.5 2.5 Q117 2 99.5 1.5 Q82 1 66.5 0.5 Q51 0 40 0 L40 22 L106 42 L106 536 Z M462 671 L354 736 L247 671 L235 682 L329 794 L379 794 L474 682 L462 671 Z " />
<glyph glyph-name="Hbar" unicode="&#x126;" horiz-adv-x="710" d="M106 454 L34 454 L34 497 L106 497 L106 536 Q106 564 97.5 575.5 Q89 587 61 596 L39 603 L39 625 Q65 625 95.5 623.5 Q126 622 152 622 Q165 622 182 622.5 Q199 623 216 623.5 Q233 624 248.5 624.5 Q264 625 275 625 L275 603 L209 583 L209 497 L501 497 L501 536 Q501 564 492.5 575.5 Q484 587 456 596 L434 603 L434 625 Q460 625 490 623.5 Q520 622 546 622 Q559 622 576 622.5 Q593 623 610.5 623.5 Q628 624 643.5 624.5 Q659 625 670 625 L670 603 L604 583 L604 497 L676 497 L676 454 L604 454 L604 89 Q604 61 612.5 49.5 Q621 38 649 29 L671 22 L671 0 Q645 0 614.5 1.5 Q584 3 558 3 Q544 3 527.5 2.5 Q511 2 494 1.5 Q477 1 461.5 0.5 Q446 0 435 0 L435 22 L501 42 L501 298 L209 298 L209 89 Q209 61 217.5 49.5 Q226 38 254 29 L276 22 L276 0 Q250 0 220 1.5 Q190 3 164 3 Q150 3 133.5 2.5 Q117 2 99.5 1.5 Q82 1 66.5 0.5 Q51 0 40 0 L40 22 L106 42 L106 454 Z M501 343 L501 454 L209 454 L209 343 L501 343 Z " />
<glyph glyph-name="Igrave" unicode="&#xcc;" horiz-adv-x="317" d="M107 536 Q107 564 98.5 575.5 Q90 587 62 596 L40 603 L40 625 Q66 625 96 623.5 Q126 622 152 622 Q165 622 182 622.5 Q199 623 216.5 623.5 Q234 624 249.5 624.5 Q265 625 276 625 L276 603 L210 583 L210 89 Q210 61 218.5 49.5 Q227 38 255 29 L277 22 L277 0 Q251 0 220.5 1.5 Q190 3 164 3 Q150 3 133.5 2.5 Q117 2 100 1.5 Q83 1 67.5 0.5 Q52 0 41 0 L41 22 L107 42 L107 536 Z M59 751 L91 785 Q100 794 108 794 Q113 794 117.5 791.5 Q122 789 128 784 L258 679 L250 666 L60 741 L59 751 Z " />
<glyph glyph-name="Iacute" unicode="&#xcd;" horiz-adv-x="317" d="M107 536 Q107 564 98.5 575.5 Q90 587 62 596 L40 603 L40 625 Q66 625 96 623.5 Q126 622 152 622 Q165 622 182 622.5 Q199 623 216.5 623.5 Q234 624 249.5 624.5 Q265 625 276 625 L276 603 L210 583 L210 89 Q210 61 218.5 49.5 Q227 38 255 29 L277 22 L277 0 Q251 0 220.5 1.5 Q190 3 164 3 Q150 3 133.5 2.5 Q117 2 100 1.5 Q83 1 67.5 0.5 Q52 0 41 0 L41 22 L107 42 L107 536 Z M257 741 L67 666 L59 679 L189 784 Q195 789 199.5 791.5 Q204 794 209 794 Q217 794 226 785 L258 751 L257 741 Z " />
<glyph glyph-name="Icircumflex" unicode="&#xce;" horiz-adv-x="317" d="M107 536 Q107 564 98.5 575.5 Q90 587 62 596 L40 603 L40 625 Q66 625 96 623.5 Q126 622 152 622 Q165 622 182 622.5 Q199 623 216.5 623.5 Q234 624 249.5 624.5 Q265 625 276 625 L276 603 L210 583 L210 89 Q210 61 218.5 49.5 Q227 38 255 29 L277 22 L277 0 Q251 0 220.5 1.5 Q190 3 164 3 Q150 3 133.5 2.5 Q117 2 100 1.5 Q83 1 67.5 0.5 Q52 0 41 0 L41 22 L107 42 L107 536 Z M266 671 L158 736 L51 671 L39 682 L133 794 L183 794 L278 682 L266 671 Z " />
<glyph glyph-name="Itilde" unicode="&#x128;" horiz-adv-x="317" d="M107 536 Q107 564 98.5 575.5 Q90 587 62 596 L40 603 L40 625 Q66 625 96 623.5 Q126 622 152 622 Q165 622 182 622.5 Q199 623 216.5 623.5 Q234 624 249.5 624.5 Q265 625 276 625 L276 603 L210 583 L210 89 Q210 61 218.5 49.5 Q227 38 255 29 L277 22 L277 0 Q251 0 220.5 1.5 Q190 3 164 3 Q150 3 133.5 2.5 Q117 2 100 1.5 Q83 1 67.5 0.5 Q52 0 41 0 L41 22 L107 42 L107 536 Z M287 790 Q282 736 261.5 715 Q241 694 212 694 Q195 694 180 699.5 Q165 705 150.5 711.5 Q136 718 122 723.5 Q108 729 94 729 Q77 729 67 720.5 Q57 712 51 694 L29 697 Q34 751 54.5 772 Q75 793 104 793 Q120 793 135.5 787.5 Q151 782 165.5 775.5 Q180 769 194 763.5 Q208 758 222 758 Q239 758 249 766.5 Q259 775 265 793 L287 790 Z " />
<glyph glyph-name="Idieresis" unicode="&#xcf;" horiz-adv-x="317" d="M107 536 Q107 564 98.5 575.5 Q90 587 62 596 L40 603 L40 625 Q66 625 96 623.5 Q126 622 152 622 Q165 622 182 622.5 Q199 623 216.5 623.5 Q234 624 249.5 624.5 Q265 625 276 625 L276 603 L210 583 L210 89 Q210 61 218.5 49.5 Q227 38 255 29 L277 22 L277 0 Q251 0 220.5 1.5 Q190 3 164 3 Q150 3 133.5 2.5 Q117 2 100 1.5 Q83 1 67.5 0.5 Q52 0 41 0 L41 22 L107 42 L107 536 Z M31 736 Q31 756 45 770.5 Q59 785 79 785 Q99 785 113.5 770.5 Q128 756 128 736 Q128 716 113.5 702 Q99 688 79 688 Q59 688 45 702 Q31 716 31 736 Z M189 736 Q189 756 203 770.5 Q217 785 237 785 Q257 785 271.5 770.5 Q286 756 286 736 Q286 716 271.5 702 Q257 688 237 688 Q217 688 203 702 Q189 716 189 736 Z " />
<glyph glyph-name="Imacron" unicode="&#x12a;" horiz-adv-x="317" d="M107 536 Q107 564 98.5 575.5 Q90 587 62 596 L40 603 L40 625 Q66 625 96 623.5 Q126 622 152 622 Q165 622 182 622.5 Q199 623 216.5 623.5 Q234 624 249.5 624.5 Q265 625 276 625 L276 603 L210 583 L210 89 Q210 61 218.5 49.5 Q227 38 255 29 L277 22 L277 0 Q251 0 220.5 1.5 Q190 3 164 3 Q150 3 133.5 2.5 Q117 2 100 1.5 Q83 1 67.5 0.5 Q52 0 41 0 L41 22 L107 42 L107 536 Z M44 698 L44 749 L272 749 L272 698 L44 698 Z " />
<glyph glyph-name="Ibreve" unicode="&#x12c;" horiz-adv-x="317" d="M107 536 Q107 564 98.5 575.5 Q90 587 62 596 L40 603 L40 625 Q66 625 96 623.5 Q126 622 152 622 Q165 622 182 622.5 Q199 623 216.5 623.5 Q234 624 249.5 624.5 Q265 625 276 625 L276 603 L210 583 L210 89 Q210 61 218.5 49.5 Q227 38 255 29 L277 22 L277 0 Q251 0 220.5 1.5 Q190 3 164 3 Q150 3 133.5 2.5 Q117 2 100 1.5 Q83 1 67.5 0.5 Q52 0 41 0 L41 22 L107 42 L107 536 Z M158 675 Q105 675 76.5 708.5 Q48 742 48 793 L72 793 Q76 764 99.5 748.5 Q123 733 158 733 Q193 733 216.5 748.5 Q240 764 244 793 L268 793 Q268 742 239.5 708.5 Q211 675 158 675 Z " />
<glyph glyph-name="Idotaccent" unicode="&#x130;" horiz-adv-x="317" d="M107 536 Q107 564 98.5 575.5 Q90 587 62 596 L40 603 L40 625 Q66 625 96 623.5 Q126 622 152 622 Q165 622 182 622.5 Q199 623 216.5 623.5 Q234 624 249.5 624.5 Q265 625 276 625 L276 603 L210 583 L210 89 Q210 61 218.5 49.5 Q227 38 255 29 L277 22 L277 0 Q251 0 220.5 1.5 Q190 3 164 3 Q150 3 133.5 2.5 Q117 2 100 1.5 Q83 1 67.5 0.5 Q52 0 41 0 L41 22 L107 42 L107 536 Z M102 745 Q102 768 118.5 784.5 Q135 801 158 801 Q181 801 197.5 784.5 Q214 768 214 745 Q214 722 197.5 705.5 Q181 689 158 689 Q135 689 118.5 705.5 Q102 722 102 745 Z " />
<glyph glyph-name="Iogonek" unicode="&#x12e;" horiz-adv-x="317" d="M247 -204 Q230 -212 208.5 -218 Q187 -224 164 -224 Q116 -224 84.5 -198.5 Q53 -173 53 -130 Q53 -89 82.5 -54.5 Q112 -20 155 3 Q141 3 125.5 2.5 Q110 2 94.5 1.5 Q79 1 65 0.5 Q51 0 41 0 L41 22 L107 42 L107 536 Q107 564 98.5 575.5 Q90 587 62 596 L40 603 L40 625 Q66 625 96 623.5 Q126 622 152 622 Q165 622 182 622.5 Q199 623 216.5 623.5 Q234 624 249.5 624.5 Q265 625 276 625 L276 603 L210 583 L210 89 Q210 61 218.5 49.5 Q227 38 255 29 L277 22 L277 0 Q259 0 238 0.5 Q217 1 197 2 Q162 -23 142.5 -57 Q123 -91 123 -126 Q123 -157 140.5 -172 Q158 -187 184 -187 Q198 -187 212.5 -184.5 Q227 -182 240 -178 L247 -204 Z " />
<glyph glyph-name="IJ" unicode="&#x132;" horiz-adv-x="623" d="M107 536 Q107 564 98.5 575.5 Q90 587 62 596 L40 603 L40 625 Q66 625 96 623.5 Q126 622 152 622 Q165 622 182 622.5 Q199 623 216.5 623.5 Q234 624 249.5 624.5 Q265 625 276 625 L276 603 L210 583 L210 89 Q210 61 218.5 49.5 Q227 38 255 29 L277 22 L277 0 Q251 0 220.5 1.5 Q190 3 164 3 Q150 3 133.5 2.5 Q117 2 100 1.5 Q83 1 67.5 0.5 Q52 0 41 0 L41 22 L107 42 L107 536 Z M420 536 Q420 564 411.5 575.5 Q403 587 375 596 L353 603 L353 625 Q379 625 409 623.5 Q439 622 465 622 Q478 622 495 622.5 Q512 623 529.5 623.5 Q547 624 562.5 624.5 Q578 625 589 625 L589 603 L523 583 L523 79 Q523 29 515.5 -18 Q508 -65 486.5 -105 Q465 -145 425.5 -174.5 Q386 -204 322 -218 L312 -187 Q345 -173 366 -151.5 Q387 -130 399 -98 Q411 -66 415.5 -22.5 Q420 21 420 79 L420 536 Z " />
<glyph glyph-name="Jcircumflex" unicode="&#x134;" horiz-adv-x="306" d="M103 536 Q103 564 94.5 575.5 Q86 587 58 596 L36 603 L36 625 Q62 625 92 623.5 Q122 622 148 622 Q161 622 178 622.5 Q195 623 212.5 623.5 Q230 624 245.5 624.5 Q261 625 272 625 L272 603 L206 583 L206 79 Q206 29 198.5 -18 Q191 -65 169.5 -105 Q148 -145 108.5 -174.5 Q69 -204 5 -218 L-5 -187 Q28 -173 49 -151.5 Q70 -130 82 -98 Q94 -66 98.5 -22.5 Q103 21 103 79 L103 536 Z M260 671 L152 736 L45 671 L33 682 L127 794 L177 794 L272 682 L260 671 Z " />
<glyph glyph-name="Kcommaaccent" unicode="&#x136;" horiz-adv-x="606" d="M106 536 Q106 564 97.5 575.5 Q89 587 61 596 L39 603 L39 625 Q65 625 95 623.5 Q125 622 151 622 Q164 622 181 622.5 Q198 623 215.5 623.5 Q233 624 248.5 624.5 Q264 625 275 625 L275 603 L209 583 L209 315 L436 587 L378 603 L378 625 Q388 625 402 624.5 Q416 624 430.5 623.5 Q445 623 459 622.5 Q473 622 483 622 Q493 622 507 622.5 Q521 623 534.5 623.5 Q548 624 559.5 624.5 Q571 625 578 625 L578 603 Q552 600 535 595 Q518 590 504.5 582.5 Q491 575 479 563.5 Q467 552 452 534 L323 381 L483 117 Q498 93 510 76.5 Q522 60 534 49 Q546 38 560.5 32 Q575 26 595 22 L595 0 L424 0 Q422 17 414.5 37.5 Q407 58 386 94 L261 307 L209 246 L209 89 Q209 61 217.5 49.5 Q226 38 254 29 L276 22 L276 0 Q250 0 219.5 1.5 Q189 3 163 3 Q149 3 132.5 2.5 Q116 2 99 1.5 Q82 1 66.5 0.5 Q51 0 40 0 L40 22 L106 42 L106 536 Z M386 -123 Q386 -159 367.5 -198.5 Q349 -238 304 -263 L290 -247 Q308 -233 321 -212 Q334 -191 334 -170 Q334 -153 326 -143 Q318 -133 308.5 -125.5 Q299 -118 291 -110 Q283 -102 283 -89 Q283 -72 295.5 -61.5 Q308 -51 326 -51 Q355 -51 370.5 -72.5 Q386 -94 386 -123 Z " />
<glyph glyph-name="Lacute" unicode="&#x139;" horiz-adv-x="531" d="M209 85 Q209 73 213.5 64.5 Q218 56 229.5 50.5 Q241 45 261 43 Q281 41 311 41 Q340 41 360 42.5 Q380 44 393.5 46.5 Q407 49 415.5 53 Q424 57 431 62 Q448 74 457.5 97 Q467 120 474 150 L499 150 Q498 137 497 116.5 Q496 96 495 74 Q494 52 493.5 32 Q493 12 493 0 L40 0 L40 22 L106 42 L106 536 Q106 564 97.5 575.5 Q89 587 61 596 L39 603 L39 625 Q65 625 95 623.5 Q125 622 151 622 Q164 622 181 622.5 Q198 623 215.5 623.5 Q233 624 248.5 624.5 Q264 625 275 625 L275 603 L209 583 L209 85 Z M256 741 L66 666 L58 679 L188 784 Q194 789 198.5 791.5 Q203 794 208 794 Q216 794 225 785 L257 751 L256 741 Z " />
<glyph glyph-name="Lcaron" unicode="&#x13d;" horiz-adv-x="531" d="M209 85 Q209 73 213.5 64.5 Q218 56 229.5 50.5 Q241 45 261 43 Q281 41 311 41 Q340 41 360 42.5 Q380 44 393.5 46.5 Q407 49 415.5 53 Q424 57 431 62 Q448 74 457.5 97 Q467 120 474 150 L499 150 Q498 137 497 116.5 Q496 96 495 74 Q494 52 493.5 32 Q493 12 493 0 L40 0 L40 22 L106 42 L106 536 Q106 564 97.5 575.5 Q89 587 61 596 L39 603 L39 625 Q65 625 95 623.5 Q125 622 151 622 Q164 622 181 622.5 Q198 623 215.5 623.5 Q233 624 248.5 624.5 Q264 625 275 625 L275 603 L209 583 L209 85 Z M423 568 Q423 532 404.5 492.5 Q386 453 341 428 L327 444 Q345 458 358 479 Q371 500 371 521 Q371 538 363 548 Q355 558 345.5 565.5 Q336 573 328 581 Q320 589 320 602 Q320 619 332.5 629.5 Q345 640 363 640 Q392 640 407.5 618.5 Q423 597 423 568 Z " />
<glyph glyph-name="Lcommaaccent" unicode="&#x13b;" horiz-adv-x="531" d="M209 85 Q209 73 213.5 64.5 Q218 56 229.5 50.5 Q241 45 261 43 Q281 41 311 41 Q340 41 360 42.5 Q380 44 393.5 46.5 Q407 49 415.5 53 Q424 57 431 62 Q448 74 457.5 97 Q467 120 474 150 L499 150 Q498 137 497 116.5 Q496 96 495 74 Q494 52 493.5 32 Q493 12 493 0 L40 0 L40 22 L106 42 L106 536 Q106 564 97.5 575.5 Q89 587 61 596 L39 603 L39 625 Q65 625 95 623.5 Q125 622 151 622 Q164 622 181 622.5 Q198 623 215.5 623.5 Q233 624 248.5 624.5 Q264 625 275 625 L275 603 L209 583 L209 85 Z M359 -123 Q359 -159 340.5 -198.5 Q322 -238 277 -263 L263 -247 Q281 -233 294 -212 Q307 -191 307 -170 Q307 -153 299 -143 Q291 -133 281.5 -125.5 Q272 -118 264 -110 Q256 -102 256 -89 Q256 -72 268.5 -61.5 Q281 -51 299 -51 Q328 -51 343.5 -72.5 Q359 -94 359 -123 Z " />
<glyph glyph-name="Lslash" unicode="&#x141;" horiz-adv-x="531" d="M209 363 L333 443 L357 404 L209 309 L209 85 Q209 60 230 50.5 Q251 41 311 41 Q340 41 360 42.5 Q380 44 393.5 46.5 Q407 49 415.5 53 Q424 57 431 62 Q448 74 457.5 97 Q467 120 474 150 L499 150 Q498 137 497 116.5 Q496 96 495 74 Q494 52 493.5 32 Q493 12 493 0 L40 0 L40 22 L106 42 L106 243 L45 204 L20 242 L106 297 L106 536 Q106 564 97.5 575.5 Q89 587 61 596 L39 603 L39 625 Q65 625 95 623.5 Q125 622 151 622 Q164 622 181 622.5 Q198 623 215.5 623.5 Q233 624 248.5 624.5 Q264 625 275 625 L275 603 L209 583 L209 363 Z " />
<glyph glyph-name="Ldot" unicode="&#x13f;" horiz-adv-x="531" d="M209 85 Q209 73 213.5 64.5 Q218 56 229.5 50.5 Q241 45 261 43 Q281 41 311 41 Q340 41 360 42.5 Q380 44 393.5 46.5 Q407 49 415.5 53 Q424 57 431 62 Q448 74 457.5 97 Q467 120 474 150 L499 150 Q498 137 497 116.5 Q496 96 495 74 Q494 52 493.5 32 Q493 12 493 0 L40 0 L40 22 L106 42 L106 536 Q106 564 97.5 575.5 Q89 587 61 596 L39 603 L39 625 Q65 625 95 623.5 Q125 622 151 622 Q164 622 181 622.5 Q198 623 215.5 623.5 Q233 624 248.5 624.5 Q264 625 275 625 L275 603 L209 583 L209 85 Z M359 337 Q359 360 375.5 376.5 Q392 393 415 393 Q438 393 454.5 376.5 Q471 360 471 337 Q471 314 454.5 297.5 Q438 281 415 281 Q392 281 375.5 297.5 Q359 314 359 337 Z " />
<glyph glyph-name="Nacute" unicode="&#x143;" horiz-adv-x="700" d="M546 540 Q546 567 537.5 578 Q529 589 501 597 L479 603 L479 625 Q505 625 526.5 624 Q548 623 568 623 Q588 623 616 624 Q644 625 667 625 L667 603 L601 583 L601 -3 L544 -3 L161 496 L161 85 Q161 58 169.5 47 Q178 36 206 28 L228 22 L228 0 Q202 0 180.5 1 Q159 2 139 2 Q119 2 91 1 Q63 0 40 0 L40 22 L106 42 L106 536 Q106 565 96.5 576 Q87 587 59 596 L37 603 L37 625 L186 625 L546 154 L546 540 Z M462 741 L272 666 L264 679 L394 784 Q400 789 404.5 791.5 Q409 794 414 794 Q422 794 431 785 L463 751 L462 741 Z " />
<glyph glyph-name="Ncaron" unicode="&#x147;" horiz-adv-x="700" d="M546 540 Q546 567 537.5 578 Q529 589 501 597 L479 603 L479 625 Q505 625 526.5 624 Q548 623 568 623 Q588 623 616 624 Q644 625 667 625 L667 603 L601 583 L601 -3 L544 -3 L161 496 L161 85 Q161 58 169.5 47 Q178 36 206 28 L228 22 L228 0 Q202 0 180.5 1 Q159 2 139 2 Q119 2 91 1 Q63 0 40 0 L40 22 L106 42 L106 536 Q106 565 96.5 576 Q87 587 59 596 L37 603 L37 625 L186 625 L546 154 L546 540 Z M477 783 L382 671 L332 671 L238 783 L250 794 L357 729 L465 794 L477 783 Z " />
<glyph glyph-name="Ntilde" unicode="&#xd1;" horiz-adv-x="700" d="M546 540 Q546 567 537.5 578 Q529 589 501 597 L479 603 L479 625 Q505 625 526.5 624 Q548 623 568 623 Q588 623 616 624 Q644 625 667 625 L667 603 L601 583 L601 -3 L544 -3 L161 496 L161 85 Q161 58 169.5 47 Q178 36 206 28 L228 22 L228 0 Q202 0 180.5 1 Q159 2 139 2 Q119 2 91 1 Q63 0 40 0 L40 22 L106 42 L106 536 Q106 565 96.5 576 Q87 587 59 596 L37 603 L37 625 L186 625 L546 154 L546 540 Z M487 790 Q482 736 461.5 715 Q441 694 412 694 Q395 694 380 699.5 Q365 705 350.5 711.5 Q336 718 322 723.5 Q308 729 294 729 Q277 729 267 720.5 Q257 712 251 694 L229 697 Q234 751 254.5 772 Q275 793 304 793 Q320 793 335.5 787.5 Q351 782 365.5 775.5 Q380 769 394 763.5 Q408 758 422 758 Q439 758 449 766.5 Q459 775 465 793 L487 790 Z " />
<glyph glyph-name="Ncommaaccent" unicode="&#x145;" horiz-adv-x="700" d="M546 540 Q546 567 537.5 578 Q529 589 501 597 L479 603 L479 625 Q505 625 526.5 624 Q548 623 568 623 Q588 623 616 624 Q644 625 667 625 L667 603 L601 583 L601 -3 L544 -3 L161 496 L161 85 Q161 58 169.5 47 Q178 36 206 28 L228 22 L228 0 Q202 0 180.5 1 Q159 2 139 2 Q119 2 91 1 Q63 0 40 0 L40 22 L106 42 L106 536 Q106 565 96.5 576 Q87 587 59 596 L37 603 L37 625 L186 625 L546 154 L546 540 Z M412 -123 Q412 -159 393.5 -198.5 Q375 -238 330 -263 L316 -247 Q334 -233 347 -212 Q360 -191 360 -170 Q360 -153 352 -143 Q344 -133 334.5 -125.5 Q325 -118 317 -110 Q309 -102 309 -89 Q309 -72 321.5 -61.5 Q334 -51 352 -51 Q381 -51 396.5 -72.5 Q412 -94 412 -123 Z " />
<glyph glyph-name="Eng" unicode="&#x14a;" horiz-adv-x="700" d="M478 -90 Q542 -90 545 -5 L161 496 L161 85 Q161 58 169.5 47 Q178 36 206 28 L228 22 L228 0 Q202 0 180.5 1 Q159 2 139 2 Q119 2 91 1 Q63 0 40 0 L40 22 L106 42 L106 536 Q106 565 96.5 576 Q87 587 59 596 L37 603 L37 625 L186 625 L546 154 L546 540 Q546 567 537.5 578 Q529 589 501 597 L479 603 L479 625 Q505 625 526.5 624 Q548 623 568 623 Q588 623 616 624 Q644 625 667 625 L667 603 L601 583 L601 9 Q601 -31 594.5 -64.5 Q588 -98 573 -122 Q558 -146 534 -159.5 Q510 -173 474 -173 Q450 -173 428 -167 Q406 -161 392 -153 Q386 -149 384.5 -145.5 Q383 -142 384 -136 L393 -72 L402 -69 Q445 -90 478 -90 Z " />
<glyph glyph-name="Ograve" unicode="&#xd2;" horiz-adv-x="642" d="M598 312 Q598 237 578 176.5 Q558 116 521.5 73 Q485 30 434 7 Q383 -16 321 -16 Q259 -16 208 7 Q157 30 120.5 73 Q84 116 64 176.5 Q44 237 44 312 Q44 387 64 447.5 Q84 508 120.5 551 Q157 594 208 617 Q259 640 321 640 Q383 640 434 617 Q485 594 521.5 551 Q558 508 578 447.5 Q598 387 598 312 Z M485 312 Q485 370 476 421 Q467 472 447 510 Q427 548 396 570.5 Q365 593 321 593 Q277 593 246 570.5 Q215 548 195 510 Q175 472 166 421 Q157 370 157 312 Q157 254 166 203 Q175 152 195 113.5 Q215 75 246 53 Q277 31 321 31 Q365 31 396 53 Q427 75 447 113.5 Q467 152 476 203 Q485 254 485 312 Z M231 751 L263 785 Q272 794 280 794 Q285 794 289.5 791.5 Q294 789 300 784 L430 679 L422 666 L232 741 L231 751 Z " />
<glyph glyph-name="Oacute" unicode="&#xd3;" horiz-adv-x="642" d="M598 312 Q598 237 578 176.5 Q558 116 521.5 73 Q485 30 434 7 Q383 -16 321 -16 Q259 -16 208 7 Q157 30 120.5 73 Q84 116 64 176.5 Q44 237 44 312 Q44 387 64 447.5 Q84 508 120.5 551 Q157 594 208 617 Q259 640 321 640 Q383 640 434 617 Q485 594 521.5 551 Q558 508 578 447.5 Q598 387 598 312 Z M485 312 Q485 370 476 421 Q467 472 447 510 Q427 548 396 570.5 Q365 593 321 593 Q277 593 246 570.5 Q215 548 195 510 Q175 472 166 421 Q157 370 157 312 Q157 254 166 203 Q175 152 195 113.5 Q215 75 246 53 Q277 31 321 31 Q365 31 396 53 Q427 75 447 113.5 Q467 152 476 203 Q485 254 485 312 Z M429 741 L239 666 L231 679 L361 784 Q367 789 371.5 791.5 Q376 794 381 794 Q389 794 398 785 L430 751 L429 741 Z " />
<glyph glyph-name="Ocircumflex" unicode="&#xd4;" horiz-adv-x="642" d="M598 312 Q598 237 578 176.5 Q558 116 521.5 73 Q485 30 434 7 Q383 -16 321 -16 Q259 -16 208 7 Q157 30 120.5 73 Q84 116 64 176.5 Q44 237 44 312 Q44 387 64 447.5 Q84 508 120.5 551 Q157 594 208 617 Q259 640 321 640 Q383 640 434 617 Q485 594 521.5 551 Q558 508 578 447.5 Q598 387 598 312 Z M485 312 Q485 370 476 421 Q467 472 447 510 Q427 548 396 570.5 Q365 593 321 593 Q277 593 246 570.5 Q215 548 195 510 Q175 472 166 421 Q157 370 157 312 Q157 254 166 203 Q175 152 195 113.5 Q215 75 246 53 Q277 31 321 31 Q365 31 396 53 Q427 75 447 113.5 Q467 152 476 203 Q485 254 485 312 Z M428 671 L320 736 L213 671 L201 682 L295 794 L345 794 L440 682 L428 671 Z " />
<glyph glyph-name="Otilde" unicode="&#xd5;" horiz-adv-x="642" d="M598 312 Q598 237 578 176.5 Q558 116 521.5 73 Q485 30 434 7 Q383 -16 321 -16 Q259 -16 208 7 Q157 30 120.5 73 Q84 116 64 176.5 Q44 237 44 312 Q44 387 64 447.5 Q84 508 120.5 551 Q157 594 208 617 Q259 640 321 640 Q383 640 434 617 Q485 594 521.5 551 Q558 508 578 447.5 Q598 387 598 312 Z M485 312 Q485 370 476 421 Q467 472 447 510 Q427 548 396 570.5 Q365 593 321 593 Q277 593 246 570.5 Q215 548 195 510 Q175 472 166 421 Q157 370 157 312 Q157 254 166 203 Q175 152 195 113.5 Q215 75 246 53 Q277 31 321 31 Q365 31 396 53 Q427 75 447 113.5 Q467 152 476 203 Q485 254 485 312 Z M450 790 Q445 736 424.5 715 Q404 694 375 694 Q358 694 343 699.5 Q328 705 313.5 711.5 Q299 718 285 723.5 Q271 729 257 729 Q240 729 230 720.5 Q220 712 214 694 L192 697 Q197 751 217.5 772 Q238 793 267 793 Q283 793 298.5 787.5 Q314 782 328.5 775.5 Q343 769 357 763.5 Q371 758 385 758 Q402 758 412 766.5 Q422 775 428 793 L450 790 Z " />
<glyph glyph-name="Odieresis" unicode="&#xd6;" horiz-adv-x="642" d="M598 312 Q598 237 578 176.5 Q558 116 521.5 73 Q485 30 434 7 Q383 -16 321 -16 Q259 -16 208 7 Q157 30 120.5 73 Q84 116 64 176.5 Q44 237 44 312 Q44 387 64 447.5 Q84 508 120.5 551 Q157 594 208 617 Q259 640 321 640 Q383 640 434 617 Q485 594 521.5 551 Q558 508 578 447.5 Q598 387 598 312 Z M485 312 Q485 370 476 421 Q467 472 447 510 Q427 548 396 570.5 Q365 593 321 593 Q277 593 246 570.5 Q215 548 195 510 Q175 472 166 421 Q157 370 157 312 Q157 254 166 203 Q175 152 195 113.5 Q215 75 246 53 Q277 31 321 31 Q365 31 396 53 Q427 75 447 113.5 Q467 152 476 203 Q485 254 485 312 Z M193 736 Q193 756 207 770.5 Q221 785 241 785 Q261 785 275.5 770.5 Q290 756 290 736 Q290 716 275.5 702 Q261 688 241 688 Q221 688 207 702 Q193 716 193 736 Z M351 736 Q351 756 365 770.5 Q379 785 399 785 Q419 785 433.5 770.5 Q448 756 448 736 Q448 716 433.5 702 Q419 688 399 688 Q379 688 365 702 Q351 716 351 736 Z " />
<glyph glyph-name="Omacron" unicode="&#x14c;" horiz-adv-x="642" d="M598 312 Q598 237 578 176.5 Q558 116 521.5 73 Q485 30 434 7 Q383 -16 321 -16 Q259 -16 208 7 Q157 30 120.5 73 Q84 116 64 176.5 Q44 237 44 312 Q44 387 64 447.5 Q84 508 120.5 551 Q157 594 208 617 Q259 640 321 640 Q383 640 434 617 Q485 594 521.5 551 Q558 508 578 447.5 Q598 387 598 312 Z M485 312 Q485 370 476 421 Q467 472 447 510 Q427 548 396 570.5 Q365 593 321 593 Q277 593 246 570.5 Q215 548 195 510 Q175 472 166 421 Q157 370 157 312 Q157 254 166 203 Q175 152 195 113.5 Q215 75 246 53 Q277 31 321 31 Q365 31 396 53 Q427 75 447 113.5 Q467 152 476 203 Q485 254 485 312 Z M207 698 L207 749 L435 749 L435 698 L207 698 Z " />
<glyph glyph-name="Obreve" unicode="&#x14e;" horiz-adv-x="642" d="M598 312 Q598 237 578 176.5 Q558 116 521.5 73 Q485 30 434 7 Q383 -16 321 -16 Q259 -16 208 7 Q157 30 120.5 73 Q84 116 64 176.5 Q44 237 44 312 Q44 387 64 447.5 Q84 508 120.5 551 Q157 594 208 617 Q259 640 321 640 Q383 640 434 617 Q485 594 521.5 551 Q558 508 578 447.5 Q598 387 598 312 Z M485 312 Q485 370 476 421 Q467 472 447 510 Q427 548 396 570.5 Q365 593 321 593 Q277 593 246 570.5 Q215 548 195 510 Q175 472 166 421 Q157 370 157 312 Q157 254 166 203 Q175 152 195 113.5 Q215 75 246 53 Q277 31 321 31 Q365 31 396 53 Q427 75 447 113.5 Q467 152 476 203 Q485 254 485 312 Z M321 675 Q268 675 239.5 708.5 Q211 742 211 793 L235 793 Q239 764 262.5 748.5 Q286 733 321 733 Q356 733 379.5 748.5 Q403 764 407 793 L431 793 Q431 742 402.5 708.5 Q374 675 321 675 Z " />
<glyph glyph-name="Ohungarumlaut" unicode="&#x150;" horiz-adv-x="642" d="M598 312 Q598 237 578 176.5 Q558 116 521.5 73 Q485 30 434 7 Q383 -16 321 -16 Q259 -16 208 7 Q157 30 120.5 73 Q84 116 64 176.5 Q44 237 44 312 Q44 387 64 447.5 Q84 508 120.5 551 Q157 594 208 617 Q259 640 321 640 Q383 640 434 617 Q485 594 521.5 551 Q558 508 578 447.5 Q598 387 598 312 Z M485 312 Q485 370 476 421 Q467 472 447 510 Q427 548 396 570.5 Q365 593 321 593 Q277 593 246 570.5 Q215 548 195 510 Q175 472 166 421 Q157 370 157 312 Q157 254 166 203 Q175 152 195 113.5 Q215 75 246 53 Q277 31 321 31 Q365 31 396 53 Q427 75 447 113.5 Q467 152 476 203 Q485 254 485 312 Z M334 741 L173 665 L165 676 L267 783 Q278 794 286 794 Q291 794 294.5 791.5 Q298 789 303 784 L334 752 L334 741 Z M492 741 L331 665 L323 676 L425 783 Q436 794 444 794 Q449 794 452.5 791.5 Q456 789 461 784 L492 752 L492 741 Z " />
<glyph glyph-name="Oslash" unicode="&#xd8;" horiz-adv-x="642" d="M598 312 Q598 237 578 176.5 Q558 116 521.5 73 Q485 30 434 7 Q383 -16 321 -16 Q254 -16 196 12 L168 -45 L117 -45 L157 37 Q103 79 73.5 149 Q44 219 44 312 Q44 387 64 447.5 Q84 508 120.5 551 Q157 594 208 617 Q259 640 321 640 Q388 640 442 613 L470 670 L521 670 L481 589 Q536 547 567 476.5 Q598 406 598 312 Z M485 312 Q485 372 475 424 Q465 476 444 515 L225 71 Q244 52 267.5 41.5 Q291 31 321 31 Q365 31 396 53 Q427 75 447 113.5 Q467 152 476 203 Q485 254 485 312 Z M157 312 Q157 254 166 202.5 Q175 151 195 113 L413 556 Q395 573 372.5 583 Q350 593 321 593 Q277 593 246 570.5 Q215 548 195 510 Q175 472 166 421 Q157 370 157 312 Z " />
<glyph glyph-name="Oslashacute" unicode="&#x1fe;" horiz-adv-x="642" d="M598 312 Q598 237 578 176.5 Q558 116 521.5 73 Q485 30 434 7 Q383 -16 321 -16 Q254 -16 196 12 L168 -45 L117 -45 L157 37 Q103 79 73.5 149 Q44 219 44 312 Q44 387 64 447.5 Q84 508 120.5 551 Q157 594 208 617 Q259 640 321 640 Q388 640 442 613 L470 670 L521 670 L481 589 Q536 547 567 476.5 Q598 406 598 312 Z M485 312 Q485 372 475 424 Q465 476 444 515 L225 71 Q244 52 267.5 41.5 Q291 31 321 31 Q365 31 396 53 Q427 75 447 113.5 Q467 152 476 203 Q485 254 485 312 Z M157 312 Q157 254 166 202.5 Q175 151 195 113 L413 556 Q395 573 372.5 583 Q350 593 321 593 Q277 593 246 570.5 Q215 548 195 510 Q175 472 166 421 Q157 370 157 312 Z M429 741 L239 666 L231 679 L361 784 Q367 789 371.5 791.5 Q376 794 381 794 Q389 794 398 785 L430 751 L429 741 Z " />
<glyph glyph-name="OE" unicode="&#x152;" horiz-adv-x="894" d="M540 0 Q506 0 479.5 -2.5 Q453 -5 429 -8 Q405 -11 381.5 -13.5 Q358 -16 330 -16 Q267 -16 216.5 4 Q166 24 130 62 Q89 105 66.5 168.5 Q44 232 44 312 Q44 392 66.5 455.5 Q89 519 130 562 Q166 600 216.5 620 Q267 640 330 640 Q358 640 381.5 637.5 Q405 635 429 632.5 Q453 630 479.5 627.5 Q506 625 540 625 L822 625 Q822 611 823.5 590 Q825 569 826.5 547.5 Q828 526 829.5 506.5 Q831 487 833 475 L805 475 Q800 505 792 526 Q784 547 766.5 559.5 Q749 572 718.5 578 Q688 584 639 584 Q618 584 595.5 583.5 Q573 583 550 582 L550 342 L616 342 Q660 342 693.5 344.5 Q727 347 741 350 L736 295 Q729 296 715.5 297 Q702 298 685 299 Q668 300 650 300.5 Q632 301 616 301 L550 301 L550 85 Q550 60 571 50.5 Q592 41 652 41 Q684 41 705.5 42.5 Q727 44 741 46.5 Q755 49 764 53 Q773 57 780 62 Q797 74 807.5 96.5 Q818 119 825 149 L848 149 Q847 136 846 115.5 Q845 95 844 73.5 Q843 52 842.5 32 Q842 12 842 0 L540 0 Z M447 490 Q447 518 441.5 534.5 Q436 551 425 563 Q411 579 386 586 Q361 593 332 593 Q283 593 250.5 572 Q218 551 198 516 Q176 478 166.5 425 Q157 372 157 312 Q157 252 166.5 199 Q176 146 198 108 Q218 73 250.5 52 Q283 31 332 31 Q361 31 386 38 Q411 45 425 61 Q436 73 441.5 89.5 Q447 106 447 134 L447 490 Z " />
<glyph glyph-name="Thorn" unicode="&#xde;" horiz-adv-x="547" d="M106 536 Q106 564 97.5 575.5 Q89 587 61 596 L39 603 L39 625 Q65 625 95 623.5 Q125 622 151 622 Q164 622 181 622.5 Q198 623 215.5 623.5 Q233 624 248.5 624.5 Q264 625 275 625 L275 603 L209 583 L209 501 L257 501 Q326 501 375.5 487.5 Q425 474 458 445 Q481 424 494 394 Q507 364 507 323 Q507 234 442 182.5 Q377 131 264 131 L209 131 L209 89 Q209 61 217.5 49.5 Q226 38 254 29 L276 22 L276 0 Q250 0 219.5 1.5 Q189 3 163 3 Q149 3 132.5 2.5 Q116 2 99 1.5 Q82 1 66.5 0.5 Q51 0 40 0 L40 22 L106 42 L106 536 Z M209 458 L209 172 L245 172 Q320 172 358 211 Q396 250 396 322 Q396 356 387.5 379.5 Q379 403 363 420 Q343 440 313 449 Q283 458 244 458 L209 458 Z " />
<glyph glyph-name="Racute" unicode="&#x154;" horiz-adv-x="607" d="M209 89 Q209 61 217.5 49.5 Q226 38 254 29 L276 22 L276 0 Q250 0 219.5 1.5 Q189 3 163 3 Q149 3 132.5 2.5 Q116 2 99 1.5 Q82 1 66.5 0.5 Q51 0 40 0 L40 22 L106 42 L106 536 Q106 564 97.5 575.5 Q89 587 61 596 L39 603 L39 625 L260 625 Q335 625 384.5 612 Q434 599 464 571 Q509 530 509 456 Q509 403 475 359.5 Q441 316 375 296 Q390 290 401 283 Q412 276 421 266 Q430 256 438 242 Q446 228 455 208 L499 107 Q509 84 518.5 68.5 Q528 53 539 43.5 Q550 34 563.5 29 Q577 24 597 22 L597 0 L425 0 Q424 15 419.5 34 Q415 53 399 89 L353 195 Q343 217 333 232 Q323 247 310 255 Q297 263 280 266.5 Q263 270 239 270 L209 270 L209 89 Z M209 311 L239 311 Q321 311 361 348 Q398 382 398 449 Q398 513 367 545 Q331 582 246 582 L209 582 L209 311 Z M402 741 L212 666 L204 679 L334 784 Q340 789 344.5 791.5 Q349 794 354 794 Q362 794 371 785 L403 751 L402 741 Z " />
<glyph glyph-name="Rcaron" unicode="&#x158;" horiz-adv-x="607" d="M209 89 Q209 61 217.5 49.5 Q226 38 254 29 L276 22 L276 0 Q250 0 219.5 1.5 Q189 3 163 3 Q149 3 132.5 2.5 Q116 2 99 1.5 Q82 1 66.5 0.5 Q51 0 40 0 L40 22 L106 42 L106 536 Q106 564 97.5 575.5 Q89 587 61 596 L39 603 L39 625 L260 625 Q335 625 384.5 612 Q434 599 464 571 Q509 530 509 456 Q509 403 475 359.5 Q441 316 375 296 Q390 290 401 283 Q412 276 421 266 Q430 256 438 242 Q446 228 455 208 L499 107 Q509 84 518.5 68.5 Q528 53 539 43.5 Q550 34 563.5 29 Q577 24 597 22 L597 0 L425 0 Q424 15 419.5 34 Q415 53 399 89 L353 195 Q343 217 333 232 Q323 247 310 255 Q297 263 280 266.5 Q263 270 239 270 L209 270 L209 89 Z M209 311 L239 311 Q321 311 361 348 Q398 382 398 449 Q398 513 367 545 Q331 582 246 582 L209 582 L209 311 Z M423 783 L328 671 L278 671 L184 783 L196 794 L303 729 L411 794 L423 783 Z " />
<glyph glyph-name="Rcommaaccent" unicode="&#x156;" horiz-adv-x="607" d="M209 89 Q209 61 217.5 49.5 Q226 38 254 29 L276 22 L276 0 Q250 0 219.5 1.5 Q189 3 163 3 Q149 3 132.5 2.5 Q116 2 99 1.5 Q82 1 66.5 0.5 Q51 0 40 0 L40 22 L106 42 L106 536 Q106 564 97.5 575.5 Q89 587 61 596 L39 603 L39 625 L260 625 Q335 625 384.5 612 Q434 599 464 571 Q509 530 509 456 Q509 403 475 359.5 Q441 316 375 296 Q390 290 401 283 Q412 276 421 266 Q430 256 438 242 Q446 228 455 208 L499 107 Q509 84 518.5 68.5 Q528 53 539 43.5 Q550 34 563.5 29 Q577 24 597 22 L597 0 L425 0 Q424 15 419.5 34 Q415 53 399 89 L353 195 Q343 217 333 232 Q323 247 310 255 Q297 263 280 266.5 Q263 270 239 270 L209 270 L209 89 Z M209 311 L239 311 Q321 311 361 348 Q398 382 398 449 Q398 513 367 545 Q331 582 246 582 L209 582 L209 311 Z M380 -123 Q380 -159 361.5 -198.5 Q343 -238 298 -263 L284 -247 Q302 -233 315 -212 Q328 -191 328 -170 Q328 -153 320 -143 Q312 -133 302.5 -125.5 Q293 -118 285 -110 Q277 -102 277 -89 Q277 -72 289.5 -61.5 Q302 -51 320 -51 Q349 -51 364.5 -72.5 Q380 -94 380 -123 Z " />
<glyph glyph-name="Sacute" unicode="&#x15a;" horiz-adv-x="507" d="M401 470 Q393 534 360.5 566 Q328 598 277 598 Q229 598 195.5 571 Q162 544 162 496 Q162 460 183.5 434 Q205 408 236.5 386.5 Q268 365 305.5 345 Q343 325 374.5 301 Q406 277 427.5 246 Q449 215 449 171 Q449 135 436 101 Q423 67 397 41 Q371 15 329.5 -0.5 Q288 -16 231 -16 Q187 -16 146 -8.5 Q105 -1 73 10 L73 162 L100 162 Q103 126 115.5 100 Q128 74 146 57.5 Q164 41 187 33.5 Q210 26 235 26 Q292 26 323.5 58 Q355 90 355 139 Q355 175 333.5 200 Q312 225 280.5 245.5 Q249 266 211.5 285.5 Q174 305 142.5 329.5 Q111 354 89.5 387 Q68 420 68 468 Q68 500 80 528.5 Q92 557 114 580 Q141 608 183.5 624 Q226 640 280 640 Q315 640 347.5 634.5 Q380 629 420 626 Q420 614 420.5 593.5 Q421 573 422.5 550.5 Q424 528 425 506 Q426 484 428 470 L401 470 Z M367 741 L177 666 L169 679 L299 784 Q305 789 309.5 791.5 Q314 794 319 794 Q327 794 336 785 L368 751 L367 741 Z " />
<glyph glyph-name="Scircumflex" unicode="&#x15c;" horiz-adv-x="507" d="M401 470 Q393 534 360.5 566 Q328 598 277 598 Q229 598 195.5 571 Q162 544 162 496 Q162 460 183.5 434 Q205 408 236.5 386.5 Q268 365 305.5 345 Q343 325 374.5 301 Q406 277 427.5 246 Q449 215 449 171 Q449 135 436 101 Q423 67 397 41 Q371 15 329.5 -0.5 Q288 -16 231 -16 Q187 -16 146 -8.5 Q105 -1 73 10 L73 162 L100 162 Q103 126 115.5 100 Q128 74 146 57.5 Q164 41 187 33.5 Q210 26 235 26 Q292 26 323.5 58 Q355 90 355 139 Q355 175 333.5 200 Q312 225 280.5 245.5 Q249 266 211.5 285.5 Q174 305 142.5 329.5 Q111 354 89.5 387 Q68 420 68 468 Q68 500 80 528.5 Q92 557 114 580 Q141 608 183.5 624 Q226 640 280 640 Q315 640 347.5 634.5 Q380 629 420 626 Q420 614 420.5 593.5 Q421 573 422.5 550.5 Q424 528 425 506 Q426 484 428 470 L401 470 Z M380 671 L272 736 L165 671 L153 682 L247 794 L297 794 L392 682 L380 671 Z " />
<glyph glyph-name="Scaron" unicode="&#x160;" horiz-adv-x="507" d="M401 470 Q393 534 360.5 566 Q328 598 277 598 Q229 598 195.5 571 Q162 544 162 496 Q162 460 183.5 434 Q205 408 236.5 386.5 Q268 365 305.5 345 Q343 325 374.5 301 Q406 277 427.5 246 Q449 215 449 171 Q449 135 436 101 Q423 67 397 41 Q371 15 329.5 -0.5 Q288 -16 231 -16 Q187 -16 146 -8.5 Q105 -1 73 10 L73 162 L100 162 Q103 126 115.5 100 Q128 74 146 57.5 Q164 41 187 33.5 Q210 26 235 26 Q292 26 323.5 58 Q355 90 355 139 Q355 175 333.5 200 Q312 225 280.5 245.5 Q249 266 211.5 285.5 Q174 305 142.5 329.5 Q111 354 89.5 387 Q68 420 68 468 Q68 500 80 528.5 Q92 557 114 580 Q141 608 183.5 624 Q226 640 280 640 Q315 640 347.5 634.5 Q380 629 420 626 Q420 614 420.5 593.5 Q421 573 422.5 550.5 Q424 528 425 506 Q426 484 428 470 L401 470 Z M395 783 L300 671 L250 671 L156 783 L168 794 L275 729 L383 794 L395 783 Z " />
<glyph glyph-name="Scedilla" unicode="&#x15e;" horiz-adv-x="507" d="M338 -131 Q338 -151 327.5 -170 Q317 -189 296 -203 Q275 -217 244 -225.5 Q213 -234 171 -234 L165 -208 Q214 -204 242.5 -184.5 Q271 -165 271 -132 Q271 -109 254.5 -98.5 Q238 -88 212 -84 Q201 -82 198.5 -78 Q196 -74 198 -66 L214 -16 Q175 -14 138.5 -7 Q102 0 73 10 L73 162 L100 162 Q103 126 115.5 100 Q128 74 146 57.5 Q164 41 187 33.5 Q210 26 235 26 Q292 26 323.5 58 Q355 90 355 139 Q355 175 333.5 200 Q312 225 280.5 245.5 Q249 266 211.5 285.5 Q174 305 142.5 329.5 Q111 354 89.5 387 Q68 420 68 468 Q68 500 80 528.5 Q92 557 114 580 Q141 608 183.5 624 Q226 640 280 640 Q315 640 347.5 634.5 Q380 629 420 626 Q420 614 420.5 593.5 Q421 573 422.5 550.5 Q424 528 425 506 Q426 484 428 470 L401 470 Q393 534 360.5 566 Q328 598 277 598 Q229 598 195.5 571 Q162 544 162 496 Q162 460 183.5 434 Q205 408 236.5 386.5 Q268 365 305.5 345 Q343 325 374.5 301 Q406 277 427.5 246 Q449 215 449 171 Q449 135 436 101 Q423 67 397 41 Q374 18 340 3.5 Q306 -11 259 -15 L248 -49 Q288 -55 313 -75 Q338 -95 338 -131 Z " />
<glyph glyph-name="Scommaaccent" unicode="&#x218;" horiz-adv-x="507" d="M401 470 Q393 534 360.5 566 Q328 598 277 598 Q229 598 195.5 571 Q162 544 162 496 Q162 460 183.5 434 Q205 408 236.5 386.5 Q268 365 305.5 345 Q343 325 374.5 301 Q406 277 427.5 246 Q449 215 449 171 Q449 135 436 101 Q423 67 397 41 Q371 15 329.5 -0.5 Q288 -16 231 -16 Q187 -16 146 -8.5 Q105 -1 73 10 L73 162 L100 162 Q103 126 115.5 100 Q128 74 146 57.5 Q164 41 187 33.5 Q210 26 235 26 Q292 26 323.5 58 Q355 90 355 139 Q355 175 333.5 200 Q312 225 280.5 245.5 Q249 266 211.5 285.5 Q174 305 142.5 329.5 Q111 354 89.5 387 Q68 420 68 468 Q68 500 80 528.5 Q92 557 114 580 Q141 608 183.5 624 Q226 640 280 640 Q315 640 347.5 634.5 Q380 629 420 626 Q420 614 420.5 593.5 Q421 573 422.5 550.5 Q424 528 425 506 Q426 484 428 470 L401 470 Z M312 -123 Q312 -159 293.5 -198.5 Q275 -238 230 -263 L216 -247 Q234 -233 247 -212 Q260 -191 260 -170 Q260 -153 252 -143 Q244 -133 234.5 -125.5 Q225 -118 217 -110 Q209 -102 209 -89 Q209 -72 221.5 -61.5 Q234 -51 252 -51 Q281 -51 296.5 -72.5 Q312 -94 312 -123 Z " />
<glyph glyph-name="Tcaron" unicode="&#x164;" horiz-adv-x="575" d="M548 625 Q548 612 548.5 591.5 Q549 571 550 549 Q551 527 552.5 506.5 Q554 486 555 473 L530 473 Q519 512 508.5 534.5 Q498 557 483 568 Q468 579 446 581.5 Q424 584 390 584 L339 584 L339 89 Q339 61 347.5 49.5 Q356 38 384 29 L406 22 L406 0 Q380 0 349.5 1.5 Q319 3 293 3 Q279 3 262.5 2.5 Q246 2 229 1.5 Q212 1 196.5 0.5 Q181 0 170 0 L170 22 L236 42 L236 584 L185 584 Q151 584 129 581.5 Q107 579 92 568 Q77 557 66.5 534.5 Q56 512 45 473 L20 473 Q21 486 22.5 506.5 Q24 527 25 549 Q26 571 26.5 591.5 Q27 612 27 625 L548 625 Z M407 783 L312 671 L262 671 L168 783 L180 794 L287 729 L395 794 L407 783 Z " />
<glyph glyph-name="Tcommaaccent" unicode="&#x162;" horiz-adv-x="575" d="M548 625 Q548 612 548.5 591.5 Q549 571 550 549 Q551 527 552.5 506.5 Q554 486 555 473 L530 473 Q519 512 508.5 534.5 Q498 557 483 568 Q468 579 446 581.5 Q424 584 390 584 L339 584 L339 89 Q339 61 347.5 49.5 Q356 38 384 29 L406 22 L406 0 Q380 0 349.5 1.5 Q319 3 293 3 Q279 3 262.5 2.5 Q246 2 229 1.5 Q212 1 196.5 0.5 Q181 0 170 0 L170 22 L236 42 L236 584 L185 584 Q151 584 129 581.5 Q107 579 92 568 Q77 557 66.5 534.5 Q56 512 45 473 L20 473 Q21 486 22.5 506.5 Q24 527 25 549 Q26 571 26.5 591.5 Q27 612 27 625 L548 625 Z M345 -123 Q345 -159 326.5 -198.5 Q308 -238 263 -263 L249 -247 Q267 -233 280 -212 Q293 -191 293 -170 Q293 -153 285 -143 Q277 -133 267.5 -125.5 Q258 -118 250 -110 Q242 -102 242 -89 Q242 -72 254.5 -61.5 Q267 -51 285 -51 Q314 -51 329.5 -72.5 Q345 -94 345 -123 Z " />
<glyph glyph-name="uni021A" unicode="&#x21a;" horiz-adv-x="575" d="M548 625 Q548 612 548.5 591.5 Q549 571 550 549 Q551 527 552.5 506.5 Q554 486 555 473 L530 473 Q519 512 508.5 534.5 Q498 557 483 568 Q468 579 446 581.5 Q424 584 390 584 L339 584 L339 89 Q339 61 347.5 49.5 Q356 38 384 29 L406 22 L406 0 Q380 0 349.5 1.5 Q319 3 293 3 Q279 3 262.5 2.5 Q246 2 229 1.5 Q212 1 196.5 0.5 Q181 0 170 0 L170 22 L236 42 L236 584 L185 584 Q151 584 129 581.5 Q107 579 92 568 Q77 557 66.5 534.5 Q56 512 45 473 L20 473 Q21 486 22.5 506.5 Q24 527 25 549 Q26 571 26.5 591.5 Q27 612 27 625 L548 625 Z M345 -123 Q345 -159 326.5 -198.5 Q308 -238 263 -263 L249 -247 Q267 -233 280 -212 Q293 -191 293 -170 Q293 -153 285 -143 Q277 -133 267.5 -125.5 Q258 -118 250 -110 Q242 -102 242 -89 Q242 -72 254.5 -61.5 Q267 -51 285 -51 Q314 -51 329.5 -72.5 Q345 -94 345 -123 Z " />
<glyph glyph-name="Tbar" unicode="&#x166;" horiz-adv-x="575" d="M339 287 L339 89 Q339 61 347.5 49.5 Q356 38 384 29 L406 22 L406 0 Q380 0 349.5 1.5 Q319 3 293 3 Q279 3 262.5 2.5 Q246 2 229 1.5 Q212 1 196.5 0.5 Q181 0 170 0 L170 22 L236 42 L236 287 L122 287 L122 330 L236 330 L236 584 L185 584 Q151 584 129 581.5 Q107 579 92 568 Q77 557 66.5 534.5 Q56 512 45 473 L20 473 Q21 486 22.5 506.5 Q24 527 25 549 Q26 571 26.5 591.5 Q27 612 27 625 L548 625 Q548 612 548.5 591.5 Q549 571 550 549 Q551 527 552.5 506.5 Q554 486 555 473 L530 473 Q519 512 508.5 534.5 Q498 557 483 568 Q468 579 446 581.5 Q424 584 390 584 L339 584 L339 330 L453 330 L453 287 L339 287 Z " />
<glyph glyph-name="Ugrave" unicode="&#xd9;" horiz-adv-x="662" d="M203 233 Q203 173 213 136.5 Q223 100 245 77 Q284 35 350 35 Q416 35 457 74 Q507 122 507 233 L507 540 Q507 567 498.5 578 Q490 589 462 597 L440 603 L440 625 Q466 625 487.5 624 Q509 623 529 623 Q549 623 577 624 Q605 625 628 625 L628 603 L562 583 L562 224 Q562 162 547 118.5 Q532 75 504 46 Q475 15 431.5 -0.5 Q388 -16 335 -16 Q276 -16 232 1 Q188 18 159 49 Q100 112 100 231 L100 536 Q100 564 91.5 575.5 Q83 587 55 596 L33 603 L33 625 Q59 625 89 623.5 Q119 622 145 622 Q158 622 175 622.5 Q192 623 209.5 623.5 Q227 624 242.5 624.5 Q258 625 269 625 L269 603 L203 583 L203 233 Z M241 751 L273 785 Q282 794 290 794 Q295 794 299.5 791.5 Q304 789 310 784 L440 679 L432 666 L242 741 L241 751 Z " />
<glyph glyph-name="Uacute" unicode="&#xda;" horiz-adv-x="662" d="M203 233 Q203 173 213 136.5 Q223 100 245 77 Q284 35 350 35 Q416 35 457 74 Q507 122 507 233 L507 540 Q507 567 498.5 578 Q490 589 462 597 L440 603 L440 625 Q466 625 487.5 624 Q509 623 529 623 Q549 623 577 624 Q605 625 628 625 L628 603 L562 583 L562 224 Q562 162 547 118.5 Q532 75 504 46 Q475 15 431.5 -0.5 Q388 -16 335 -16 Q276 -16 232 1 Q188 18 159 49 Q100 112 100 231 L100 536 Q100 564 91.5 575.5 Q83 587 55 596 L33 603 L33 625 Q59 625 89 623.5 Q119 622 145 622 Q158 622 175 622.5 Q192 623 209.5 623.5 Q227 624 242.5 624.5 Q258 625 269 625 L269 603 L203 583 L203 233 Z M449 741 L259 666 L251 679 L381 784 Q387 789 391.5 791.5 Q396 794 401 794 Q409 794 418 785 L450 751 L449 741 Z " />
<glyph glyph-name="Ucircumflex" unicode="&#xdb;" horiz-adv-x="662" d="M203 233 Q203 173 213 136.5 Q223 100 245 77 Q284 35 350 35 Q416 35 457 74 Q507 122 507 233 L507 540 Q507 567 498.5 578 Q490 589 462 597 L440 603 L440 625 Q466 625 487.5 624 Q509 623 529 623 Q549 623 577 624 Q605 625 628 625 L628 603 L562 583 L562 224 Q562 162 547 118.5 Q532 75 504 46 Q475 15 431.5 -0.5 Q388 -16 335 -16 Q276 -16 232 1 Q188 18 159 49 Q100 112 100 231 L100 536 Q100 564 91.5 575.5 Q83 587 55 596 L33 603 L33 625 Q59 625 89 623.5 Q119 622 145 622 Q158 622 175 622.5 Q192 623 209.5 623.5 Q227 624 242.5 624.5 Q258 625 269 625 L269 603 L203 583 L203 233 Z M464 671 L356 736 L249 671 L237 682 L331 794 L381 794 L476 682 L464 671 Z " />
<glyph glyph-name="Utilde" unicode="&#x168;" horiz-adv-x="662" d="M203 233 Q203 173 213 136.5 Q223 100 245 77 Q284 35 350 35 Q416 35 457 74 Q507 122 507 233 L507 540 Q507 567 498.5 578 Q490 589 462 597 L440 603 L440 625 Q466 625 487.5 624 Q509 623 529 623 Q549 623 577 624 Q605 625 628 625 L628 603 L562 583 L562 224 Q562 162 547 118.5 Q532 75 504 46 Q475 15 431.5 -0.5 Q388 -16 335 -16 Q276 -16 232 1 Q188 18 159 49 Q100 112 100 231 L100 536 Q100 564 91.5 575.5 Q83 587 55 596 L33 603 L33 625 Q59 625 89 623.5 Q119 622 145 622 Q158 622 175 622.5 Q192 623 209.5 623.5 Q227 624 242.5 624.5 Q258 625 269 625 L269 603 L203 583 L203 233 Z M485 790 Q480 736 459.5 715 Q439 694 410 694 Q393 694 378 699.5 Q363 705 348.5 711.5 Q334 718 320 723.5 Q306 729 292 729 Q275 729 265 720.5 Q255 712 249 694 L227 697 Q232 751 252.5 772 Q273 793 302 793 Q318 793 333.5 787.5 Q349 782 363.5 775.5 Q378 769 392 763.5 Q406 758 420 758 Q437 758 447 766.5 Q457 775 463 793 L485 790 Z " />
<glyph glyph-name="Udieresis" unicode="&#xdc;" horiz-adv-x="662" d="M203 233 Q203 173 213 136.5 Q223 100 245 77 Q284 35 350 35 Q416 35 457 74 Q507 122 507 233 L507 540 Q507 567 498.5 578 Q490 589 462 597 L440 603 L440 625 Q466 625 487.5 624 Q509 623 529 623 Q549 623 577 624 Q605 625 628 625 L628 603 L562 583 L562 224 Q562 162 547 118.5 Q532 75 504 46 Q475 15 431.5 -0.5 Q388 -16 335 -16 Q276 -16 232 1 Q188 18 159 49 Q100 112 100 231 L100 536 Q100 564 91.5 575.5 Q83 587 55 596 L33 603 L33 625 Q59 625 89 623.5 Q119 622 145 622 Q158 622 175 622.5 Q192 623 209.5 623.5 Q227 624 242.5 624.5 Q258 625 269 625 L269 603 L203 583 L203 233 Z M230 736 Q230 756 244 770.5 Q258 785 278 785 Q298 785 312.5 770.5 Q327 756 327 736 Q327 716 312.5 702 Q298 688 278 688 Q258 688 244 702 Q230 716 230 736 Z M388 736 Q388 756 402 770.5 Q416 785 436 785 Q456 785 470.5 770.5 Q485 756 485 736 Q485 716 470.5 702 Q456 688 436 688 Q416 688 402 702 Q388 716 388 736 Z " />
<glyph glyph-name="Umacron" unicode="&#x16a;" horiz-adv-x="662" d="M203 233 Q203 173 213 136.5 Q223 100 245 77 Q284 35 350 35 Q416 35 457 74 Q507 122 507 233 L507 540 Q507 567 498.5 578 Q490 589 462 597 L440 603 L440 625 Q466 625 487.5 624 Q509 623 529 623 Q549 623 577 624 Q605 625 628 625 L628 603 L562 583 L562 224 Q562 162 547 118.5 Q532 75 504 46 Q475 15 431.5 -0.5 Q388 -16 335 -16 Q276 -16 232 1 Q188 18 159 49 Q100 112 100 231 L100 536 Q100 564 91.5 575.5 Q83 587 55 596 L33 603 L33 625 Q59 625 89 623.5 Q119 622 145 622 Q158 622 175 622.5 Q192 623 209.5 623.5 Q227 624 242.5 624.5 Q258 625 269 625 L269 603 L203 583 L203 233 Z M243 698 L243 749 L471 749 L471 698 L243 698 Z " />
<glyph glyph-name="Ubreve" unicode="&#x16c;" horiz-adv-x="662" d="M203 233 Q203 173 213 136.5 Q223 100 245 77 Q284 35 350 35 Q416 35 457 74 Q507 122 507 233 L507 540 Q507 567 498.5 578 Q490 589 462 597 L440 603 L440 625 Q466 625 487.5 624 Q509 623 529 623 Q549 623 577 624 Q605 625 628 625 L628 603 L562 583 L562 224 Q562 162 547 118.5 Q532 75 504 46 Q475 15 431.5 -0.5 Q388 -16 335 -16 Q276 -16 232 1 Q188 18 159 49 Q100 112 100 231 L100 536 Q100 564 91.5 575.5 Q83 587 55 596 L33 603 L33 625 Q59 625 89 623.5 Q119 622 145 622 Q158 622 175 622.5 Q192 623 209.5 623.5 Q227 624 242.5 624.5 Q258 625 269 625 L269 603 L203 583 L203 233 Z M355 675 Q302 675 273.5 708.5 Q245 742 245 793 L269 793 Q273 764 296.5 748.5 Q320 733 355 733 Q390 733 413.5 748.5 Q437 764 441 793 L465 793 Q465 742 436.5 708.5 Q408 675 355 675 Z " />
<glyph glyph-name="Uring" unicode="&#x16e;" horiz-adv-x="662" d="M203 233 Q203 173 213 136.5 Q223 100 245 77 Q284 35 350 35 Q416 35 457 74 Q507 122 507 233 L507 540 Q507 567 498.5 578 Q490 589 462 597 L440 603 L440 625 Q466 625 487.5 624 Q509 623 529 623 Q549 623 577 624 Q605 625 628 625 L628 603 L562 583 L562 224 Q562 162 547 118.5 Q532 75 504 46 Q475 15 431.5 -0.5 Q388 -16 335 -16 Q276 -16 232 1 Q188 18 159 49 Q100 112 100 231 L100 536 Q100 564 91.5 575.5 Q83 587 55 596 L33 603 L33 625 Q59 625 89 623.5 Q119 622 145 622 Q158 622 175 622.5 Q192 623 209.5 623.5 Q227 624 242.5 624.5 Q258 625 269 625 L269 603 L203 583 L203 233 Z M443 753 Q443 719 419 694.5 Q395 670 358 670 Q321 670 297 694.5 Q273 719 273 753 Q273 787 297 811.5 Q321 836 358 836 Q395 836 419 811.5 Q443 787 443 753 Z M401 753 Q401 772 389.5 786 Q378 800 358 800 Q338 800 326.5 786 Q315 772 315 753 Q315 734 326.5 720 Q338 706 358 706 Q378 706 389.5 720 Q401 734 401 753 Z " />
<glyph glyph-name="Uhungarumlaut" unicode="&#x170;" horiz-adv-x="662" d="M203 233 Q203 173 213 136.5 Q223 100 245 77 Q284 35 350 35 Q416 35 457 74 Q507 122 507 233 L507 540 Q507 567 498.5 578 Q490 589 462 597 L440 603 L440 625 Q466 625 487.5 624 Q509 623 529 623 Q549 623 577 624 Q605 625 628 625 L628 603 L562 583 L562 224 Q562 162 547 118.5 Q532 75 504 46 Q475 15 431.5 -0.5 Q388 -16 335 -16 Q276 -16 232 1 Q188 18 159 49 Q100 112 100 231 L100 536 Q100 564 91.5 575.5 Q83 587 55 596 L33 603 L33 625 Q59 625 89 623.5 Q119 622 145 622 Q158 622 175 622.5 Q192 623 209.5 623.5 Q227 624 242.5 624.5 Q258 625 269 625 L269 603 L203 583 L203 233 Z M365 741 L204 665 L196 676 L298 783 Q309 794 317 794 Q322 794 325.5 791.5 Q329 789 334 784 L365 752 L365 741 Z M523 741 L362 665 L354 676 L456 783 Q467 794 475 794 Q480 794 483.5 791.5 Q487 789 492 784 L523 752 L523 741 Z " />
<glyph glyph-name="Uogonek" unicode="&#x172;" horiz-adv-x="662" d="M489 -204 Q472 -212 450.5 -218 Q429 -224 406 -224 Q358 -224 325.5 -198.5 Q293 -173 293 -130 Q293 -96 316 -66 Q339 -36 373 -13 Q353 -16 335 -16 Q276 -16 232 1 Q188 18 159 49 Q100 112 100 231 L100 536 Q100 564 91.5 575.5 Q83 587 55 596 L33 603 L33 625 Q59 625 89 623.5 Q119 622 145 622 Q158 622 175 622.5 Q192 623 209.5 623.5 Q227 624 242.5 624.5 Q258 625 269 625 L269 603 L203 583 L203 233 Q203 173 213 136.5 Q223 100 245 77 Q284 35 350 35 Q416 35 457 74 Q507 122 507 233 L507 540 Q507 567 498.5 578 Q490 589 462 597 L440 603 L440 625 Q466 625 487.5 624 Q509 623 529 623 Q549 623 577 624 Q605 625 628 625 L628 603 L562 583 L562 224 Q562 162 547 118.5 Q532 75 504 46 Q487 27 460 7 Q433 -13 410 -36 Q390 -56 377.5 -78 Q365 -100 365 -126 Q365 -155 382.5 -171 Q400 -187 426 -187 Q440 -187 454.5 -184.5 Q469 -182 482 -178 L489 -204 Z " />
<glyph glyph-name="Wgrave" unicode="&#x1e80;" horiz-adv-x="916" d="M75 538 Q69 556 63 566.5 Q57 577 48.5 583.5 Q40 590 27 594 Q14 598 -6 603 L-6 625 Q5 625 20.5 624.5 Q36 624 52 623.5 Q68 623 83.5 622.5 Q99 622 110 622 Q121 622 136.5 622.5 Q152 623 168.5 623.5 Q185 624 199.5 624.5 Q214 625 223 625 L223 603 L162 585 L317 151 L439 481 L419 540 Q413 556 407.5 566.5 Q402 577 393.5 584 Q385 591 373 595 Q361 599 343 603 L343 625 Q349 625 363 624.5 Q377 624 394 623.5 Q411 623 426.5 622.5 Q442 622 451 622 Q458 622 474 622.5 Q490 623 507.5 623.5 Q525 624 540.5 624.5 Q556 625 563 625 L563 603 L500 588 L650 153 L793 588 L730 603 L730 625 Q731 625 743 624.5 Q755 624 771 623.5 Q787 623 803.5 622.5 Q820 622 829 622 Q838 622 849.5 622.5 Q861 623 873 623.5 Q885 624 896 624.5 Q907 625 915 625 L915 603 Q894 601 881 597 Q868 593 859 586.5 Q850 580 844.5 569 Q839 558 833 542 L653 -1 L607 -1 L465 406 L316 -1 L270 -1 L75 538 Z M368 751 L400 785 Q409 794 417 794 Q422 794 426.5 791.5 Q431 789 437 784 L567 679 L559 666 L369 741 L368 751 Z " />
<glyph glyph-name="Wacute" unicode="&#x1e82;" horiz-adv-x="916" d="M75 538 Q69 556 63 566.5 Q57 577 48.5 583.5 Q40 590 27 594 Q14 598 -6 603 L-6 625 Q5 625 20.5 624.5 Q36 624 52 623.5 Q68 623 83.5 622.5 Q99 622 110 622 Q121 622 136.5 622.5 Q152 623 168.5 623.5 Q185 624 199.5 624.5 Q214 625 223 625 L223 603 L162 585 L317 151 L439 481 L419 540 Q413 556 407.5 566.5 Q402 577 393.5 584 Q385 591 373 595 Q361 599 343 603 L343 625 Q349 625 363 624.5 Q377 624 394 623.5 Q411 623 426.5 622.5 Q442 622 451 622 Q458 622 474 622.5 Q490 623 507.5 623.5 Q525 624 540.5 624.5 Q556 625 563 625 L563 603 L500 588 L650 153 L793 588 L730 603 L730 625 Q731 625 743 624.5 Q755 624 771 623.5 Q787 623 803.5 622.5 Q820 622 829 622 Q838 622 849.5 622.5 Q861 623 873 623.5 Q885 624 896 624.5 Q907 625 915 625 L915 603 Q894 601 881 597 Q868 593 859 586.5 Q850 580 844.5 569 Q839 558 833 542 L653 -1 L607 -1 L465 406 L316 -1 L270 -1 L75 538 Z M566 741 L376 666 L368 679 L498 784 Q504 789 508.5 791.5 Q513 794 518 794 Q526 794 535 785 L567 751 L566 741 Z " />
<glyph glyph-name="Wcircumflex" unicode="&#x174;" horiz-adv-x="916" d="M75 538 Q69 556 63 566.5 Q57 577 48.5 583.5 Q40 590 27 594 Q14 598 -6 603 L-6 625 Q5 625 20.5 624.5 Q36 624 52 623.5 Q68 623 83.5 622.5 Q99 622 110 622 Q121 622 136.5 622.5 Q152 623 168.5 623.5 Q185 624 199.5 624.5 Q214 625 223 625 L223 603 L162 585 L317 151 L439 481 L419 540 Q413 556 407.5 566.5 Q402 577 393.5 584 Q385 591 373 595 Q361 599 343 603 L343 625 Q349 625 363 624.5 Q377 624 394 623.5 Q411 623 426.5 622.5 Q442 622 451 622 Q458 622 474 622.5 Q490 623 507.5 623.5 Q525 624 540.5 624.5 Q556 625 563 625 L563 603 L500 588 L650 153 L793 588 L730 603 L730 625 Q731 625 743 624.5 Q755 624 771 623.5 Q787 623 803.5 622.5 Q820 622 829 622 Q838 622 849.5 622.5 Q861 623 873 623.5 Q885 624 896 624.5 Q907 625 915 625 L915 603 Q894 601 881 597 Q868 593 859 586.5 Q850 580 844.5 569 Q839 558 833 542 L653 -1 L607 -1 L465 406 L316 -1 L270 -1 L75 538 Z M575 671 L467 736 L360 671 L348 682 L442 794 L492 794 L587 682 L575 671 Z " />
<glyph glyph-name="Wdieresis" unicode="&#x1e84;" horiz-adv-x="916" d="M75 538 Q69 556 63 566.5 Q57 577 48.5 583.5 Q40 590 27 594 Q14 598 -6 603 L-6 625 Q5 625 20.5 624.5 Q36 624 52 623.5 Q68 623 83.5 622.5 Q99 622 110 622 Q121 622 136.5 622.5 Q152 623 168.5 623.5 Q185 624 199.5 624.5 Q214 625 223 625 L223 603 L162 585 L317 151 L439 481 L419 540 Q413 556 407.5 566.5 Q402 577 393.5 584 Q385 591 373 595 Q361 599 343 603 L343 625 Q349 625 363 624.5 Q377 624 394 623.5 Q411 623 426.5 622.5 Q442 622 451 622 Q458 622 474 622.5 Q490 623 507.5 623.5 Q525 624 540.5 624.5 Q556 625 563 625 L563 603 L500 588 L650 153 L793 588 L730 603 L730 625 Q731 625 743 624.5 Q755 624 771 623.5 Q787 623 803.5 622.5 Q820 622 829 622 Q838 622 849.5 622.5 Q861 623 873 623.5 Q885 624 896 624.5 Q907 625 915 625 L915 603 Q894 601 881 597 Q868 593 859 586.5 Q850 580 844.5 569 Q839 558 833 542 L653 -1 L607 -1 L465 406 L316 -1 L270 -1 L75 538 Z M340 736 Q340 756 354 770.5 Q368 785 388 785 Q408 785 422.5 770.5 Q437 756 437 736 Q437 716 422.5 702 Q408 688 388 688 Q368 688 354 702 Q340 716 340 736 Z M498 736 Q498 756 512 770.5 Q526 785 546 785 Q566 785 580.5 770.5 Q595 756 595 736 Q595 716 580.5 702 Q566 688 546 688 Q526 688 512 702 Q498 716 498 736 Z " />
<glyph glyph-name="Ygrave" unicode="&#x1ef2;" horiz-adv-x="567" d="M338 89 Q338 61 346.5 49.5 Q355 38 383 29 L405 22 L405 0 Q379 0 348.5 1.5 Q318 3 292 3 Q278 3 261.5 2.5 Q245 2 228 1.5 Q211 1 195.5 0.5 Q180 0 169 0 L169 22 L235 42 L235 250 L79 543 Q71 558 63.5 568 Q56 578 47.5 584.5 Q39 591 27.5 595 Q16 599 0 603 L0 625 Q11 625 26 624.5 Q41 624 57 623.5 Q73 623 87 622.5 Q101 622 110 622 Q121 622 136.5 622.5 Q152 623 168.5 623.5 Q185 624 200 624.5 Q215 625 225 625 L225 603 L166 589 L314 308 L449 588 L394 603 L394 625 Q395 625 405.5 624.5 Q416 624 430.5 623.5 Q445 623 460 622.5 Q475 622 484 622 Q504 622 526.5 623 Q549 624 564 625 L564 603 Q545 601 533 597.5 Q521 594 512.5 587.5 Q504 581 497 570.5 Q490 560 481 542 L338 246 L338 89 Z M192 751 L224 785 Q233 794 241 794 Q246 794 250.5 791.5 Q255 789 261 784 L391 679 L383 666 L193 741 L192 751 Z " />
<glyph glyph-name="Yacute" unicode="&#xdd;" horiz-adv-x="567" d="M338 89 Q338 61 346.5 49.5 Q355 38 383 29 L405 22 L405 0 Q379 0 348.5 1.5 Q318 3 292 3 Q278 3 261.5 2.5 Q245 2 228 1.5 Q211 1 195.5 0.5 Q180 0 169 0 L169 22 L235 42 L235 250 L79 543 Q71 558 63.5 568 Q56 578 47.5 584.5 Q39 591 27.5 595 Q16 599 0 603 L0 625 Q11 625 26 624.5 Q41 624 57 623.5 Q73 623 87 622.5 Q101 622 110 622 Q121 622 136.5 622.5 Q152 623 168.5 623.5 Q185 624 200 624.5 Q215 625 225 625 L225 603 L166 589 L314 308 L449 588 L394 603 L394 625 Q395 625 405.5 624.5 Q416 624 430.5 623.5 Q445 623 460 622.5 Q475 622 484 622 Q504 622 526.5 623 Q549 624 564 625 L564 603 Q545 601 533 597.5 Q521 594 512.5 587.5 Q504 581 497 570.5 Q490 560 481 542 L338 246 L338 89 Z M408 741 L218 666 L210 679 L340 784 Q346 789 350.5 791.5 Q355 794 360 794 Q368 794 377 785 L409 751 L408 741 Z " />
<glyph glyph-name="Ycircumflex" unicode="&#x176;" horiz-adv-x="567" d="M338 89 Q338 61 346.5 49.5 Q355 38 383 29 L405 22 L405 0 Q379 0 348.5 1.5 Q318 3 292 3 Q278 3 261.5 2.5 Q245 2 228 1.5 Q211 1 195.5 0.5 Q180 0 169 0 L169 22 L235 42 L235 250 L79 543 Q71 558 63.5 568 Q56 578 47.5 584.5 Q39 591 27.5 595 Q16 599 0 603 L0 625 Q11 625 26 624.5 Q41 624 57 623.5 Q73 623 87 622.5 Q101 622 110 622 Q121 622 136.5 622.5 Q152 623 168.5 623.5 Q185 624 200 624.5 Q215 625 225 625 L225 603 L166 589 L314 308 L449 588 L394 603 L394 625 Q395 625 405.5 624.5 Q416 624 430.5 623.5 Q445 623 460 622.5 Q475 622 484 622 Q504 622 526.5 623 Q549 624 564 625 L564 603 Q545 601 533 597.5 Q521 594 512.5 587.5 Q504 581 497 570.5 Q490 560 481 542 L338 246 L338 89 Z M418 671 L310 736 L203 671 L191 682 L285 794 L335 794 L430 682 L418 671 Z " />
<glyph glyph-name="Ydieresis" unicode="&#x178;" horiz-adv-x="567" d="M338 89 Q338 61 346.5 49.5 Q355 38 383 29 L405 22 L405 0 Q379 0 348.5 1.5 Q318 3 292 3 Q278 3 261.5 2.5 Q245 2 228 1.5 Q211 1 195.5 0.5 Q180 0 169 0 L169 22 L235 42 L235 250 L79 543 Q71 558 63.5 568 Q56 578 47.5 584.5 Q39 591 27.5 595 Q16 599 0 603 L0 625 Q11 625 26 624.5 Q41 624 57 623.5 Q73 623 87 622.5 Q101 622 110 622 Q121 622 136.5 622.5 Q152 623 168.5 623.5 Q185 624 200 624.5 Q215 625 225 625 L225 603 L166 589 L314 308 L449 588 L394 603 L394 625 Q395 625 405.5 624.5 Q416 624 430.5 623.5 Q445 623 460 622.5 Q475 622 484 622 Q504 622 526.5 623 Q549 624 564 625 L564 603 Q545 601 533 597.5 Q521 594 512.5 587.5 Q504 581 497 570.5 Q490 560 481 542 L338 246 L338 89 Z M185 736 Q185 756 199 770.5 Q213 785 233 785 Q253 785 267.5 770.5 Q282 756 282 736 Q282 716 267.5 702 Q253 688 233 688 Q213 688 199 702 Q185 716 185 736 Z M343 736 Q343 756 357 770.5 Q371 785 391 785 Q411 785 425.5 770.5 Q440 756 440 736 Q440 716 425.5 702 Q411 688 391 688 Q371 688 357 702 Q343 716 343 736 Z " />
<glyph glyph-name="Zacute" unicode="&#x179;" horiz-adv-x="555" d="M495 149 Q492 114 490 71.5 Q488 29 488 0 L52 0 L52 36 L383 584 L136 584 L87 477 L64 477 Q65 489 66 508 Q67 527 67.5 548 Q68 569 68.5 589.5 Q69 610 69 625 L501 625 L501 589 L169 40 L344 40 Q376 40 397.5 45 Q419 50 433 64 Q459 88 469 149 L495 149 L495 149 Z M386 741 L196 666 L188 679 L318 784 Q324 789 328.5 791.5 Q333 794 338 794 Q346 794 355 785 L387 751 L386 741 Z " />
<glyph glyph-name="Zcaron" unicode="&#x17d;" horiz-adv-x="555" d="M495 149 Q492 114 490 71.5 Q488 29 488 0 L52 0 L52 36 L383 584 L136 584 L87 477 L64 477 Q65 489 66 508 Q67 527 67.5 548 Q68 569 68.5 589.5 Q69 610 69 625 L501 625 L501 589 L169 40 L344 40 Q376 40 397.5 45 Q419 50 433 64 Q459 88 469 149 L495 149 L495 149 Z M403 783 L308 671 L258 671 L164 783 L176 794 L283 729 L391 794 L403 783 Z " />
<glyph glyph-name="Zdotaccent" unicode="&#x17b;" horiz-adv-x="555" d="M495 149 Q492 114 490 71.5 Q488 29 488 0 L52 0 L52 36 L383 584 L136 584 L87 477 L64 477 Q65 489 66 508 Q67 527 67.5 548 Q68 569 68.5 589.5 Q69 610 69 625 L501 625 L501 589 L169 40 L344 40 Q376 40 397.5 45 Q419 50 433 64 Q459 88 469 149 L495 149 L495 149 Z M229 745 Q229 768 245.5 784.5 Q262 801 285 801 Q308 801 324.5 784.5 Q341 768 341 745 Q341 722 324.5 705.5 Q308 689 285 689 Q262 689 245.5 705.5 Q229 722 229 745 Z " />
<glyph glyph-name="agrave" unicode="&#xe0;" horiz-adv-x="473" d="M452 19 Q437 5 415 -3.5 Q393 -12 371 -12 Q348 -12 328.5 -3 Q309 6 301 29 Q280 10 251 -3 Q222 -16 186 -16 Q158 -16 133 -7 Q108 2 88.5 19.5 Q69 37 57.5 62 Q46 87 46 120 Q46 162 66 192 Q86 222 120 240.5 Q154 259 199 267.5 Q244 276 294 276 L294 304 Q294 333 289.5 351 Q285 369 276 382 Q258 408 220 408 Q179 408 151 383 Q123 358 106 316 L67 332 Q87 386 129 423 Q171 460 240 460 Q278 460 306 449.5 Q334 439 352 419 Q390 378 390 297 L390 75 Q390 36 421 36 Q436 36 452 44 L452 19 Z M294 240 L289 240 Q257 240 230.5 233.5 Q204 227 184.5 213.5 Q165 200 154 178.5 Q143 157 143 126 Q143 83 163.5 58.5 Q184 34 219 34 Q240 34 260 43 Q280 52 294 66 L294 240 Z M154 593 L187 628 Q195 636 203 636 Q212 636 223 625 L339 507 L329 494 L154 582 L154 593 Z " />
<glyph glyph-name="aacute" unicode="&#xe1;" horiz-adv-x="473" d="M452 19 Q437 5 415 -3.5 Q393 -12 371 -12 Q348 -12 328.5 -3 Q309 6 301 29 Q280 10 251 -3 Q222 -16 186 -16 Q158 -16 133 -7 Q108 2 88.5 19.5 Q69 37 57.5 62 Q46 87 46 120 Q46 162 66 192 Q86 222 120 240.5 Q154 259 199 267.5 Q244 276 294 276 L294 304 Q294 333 289.5 351 Q285 369 276 382 Q258 408 220 408 Q179 408 151 383 Q123 358 106 316 L67 332 Q87 386 129 423 Q171 460 240 460 Q278 460 306 449.5 Q334 439 352 419 Q390 378 390 297 L390 75 Q390 36 421 36 Q436 36 452 44 L452 19 Z M294 240 L289 240 Q257 240 230.5 233.5 Q204 227 184.5 213.5 Q165 200 154 178.5 Q143 157 143 126 Q143 83 163.5 58.5 Q184 34 219 34 Q240 34 260 43 Q280 52 294 66 L294 240 Z M339 582 L164 494 L154 507 L270 625 Q281 636 290 636 Q298 636 306 628 L339 593 L339 582 Z " />
<glyph glyph-name="acircumflex" unicode="&#xe2;" horiz-adv-x="473" d="M452 19 Q437 5 415 -3.5 Q393 -12 371 -12 Q348 -12 328.5 -3 Q309 6 301 29 Q280 10 251 -3 Q222 -16 186 -16 Q158 -16 133 -7 Q108 2 88.5 19.5 Q69 37 57.5 62 Q46 87 46 120 Q46 162 66 192 Q86 222 120 240.5 Q154 259 199 267.5 Q244 276 294 276 L294 304 Q294 333 289.5 351 Q285 369 276 382 Q258 408 220 408 Q179 408 151 383 Q123 358 106 316 L67 332 Q87 386 129 423 Q171 460 240 460 Q278 460 306 449.5 Q334 439 352 419 Q390 378 390 297 L390 75 Q390 36 421 36 Q436 36 452 44 L452 19 Z M294 240 L289 240 Q257 240 230.5 233.5 Q204 227 184.5 213.5 Q165 200 154 178.5 Q143 157 143 126 Q143 83 163.5 58.5 Q184 34 219 34 Q240 34 260 43 Q280 52 294 66 L294 240 Z M263 645 L353 511 L337 501 L238 582 L139 501 L123 511 L213 645 L263 645 Z " />
<glyph glyph-name="atilde" unicode="&#xe3;" horiz-adv-x="473" d="M452 19 Q437 5 415 -3.5 Q393 -12 371 -12 Q348 -12 328.5 -3 Q309 6 301 29 Q280 10 251 -3 Q222 -16 186 -16 Q158 -16 133 -7 Q108 2 88.5 19.5 Q69 37 57.5 62 Q46 87 46 120 Q46 162 66 192 Q86 222 120 240.5 Q154 259 199 267.5 Q244 276 294 276 L294 304 Q294 333 289.5 351 Q285 369 276 382 Q258 408 220 408 Q179 408 151 383 Q123 358 106 316 L67 332 Q87 386 129 423 Q171 460 240 460 Q278 460 306 449.5 Q334 439 352 419 Q390 378 390 297 L390 75 Q390 36 421 36 Q436 36 452 44 L452 19 Z M294 240 L289 240 Q257 240 230.5 233.5 Q204 227 184.5 213.5 Q165 200 154 178.5 Q143 157 143 126 Q143 83 163.5 58.5 Q184 34 219 34 Q240 34 260 43 Q280 52 294 66 L294 240 Z M365 623 Q360 569 339.5 548 Q319 527 290 527 Q273 527 258 532.5 Q243 538 228.5 544.5 Q214 551 200 556.5 Q186 562 172 562 Q155 562 145 553.5 Q135 545 129 527 L107 530 Q112 584 132.5 605 Q153 626 182 626 Q198 626 213.5 620.5 Q229 615 243.5 608.5 Q258 602 272 596.5 Q286 591 300 591 Q317 591 327 599.5 Q337 608 343 626 L365 623 Z " />
<glyph glyph-name="adieresis" unicode="&#xe4;" horiz-adv-x="473" d="M452 19 Q437 5 415 -3.5 Q393 -12 371 -12 Q348 -12 328.5 -3 Q309 6 301 29 Q280 10 251 -3 Q222 -16 186 -16 Q158 -16 133 -7 Q108 2 88.5 19.5 Q69 37 57.5 62 Q46 87 46 120 Q46 162 66 192 Q86 222 120 240.5 Q154 259 199 267.5 Q244 276 294 276 L294 304 Q294 333 289.5 351 Q285 369 276 382 Q258 408 220 408 Q179 408 151 383 Q123 358 106 316 L67 332 Q87 386 129 423 Q171 460 240 460 Q278 460 306 449.5 Q334 439 352 419 Q390 378 390 297 L390 75 Q390 36 421 36 Q436 36 452 44 L452 19 Z M294 240 L289 240 Q257 240 230.5 233.5 Q204 227 184.5 213.5 Q165 200 154 178.5 Q143 157 143 126 Q143 83 163.5 58.5 Q184 34 219 34 Q240 34 260 43 Q280 52 294 66 L294 240 Z M109 576 Q109 596 123 610.5 Q137 625 157 625 Q177 625 191.5 610.5 Q206 596 206 576 Q206 556 191.5 542 Q177 528 157 528 Q137 528 123 542 Q109 556 109 576 Z M267 576 Q267 596 281 610.5 Q295 625 315 625 Q335 625 349.5 610.5 Q364 596 364 576 Q364 556 349.5 542 Q335 528 315 528 Q295 528 281 542 Q267 556 267 576 Z " />
<glyph glyph-name="amacron" unicode="&#x101;" horiz-adv-x="473" d="M452 19 Q437 5 415 -3.5 Q393 -12 371 -12 Q348 -12 328.5 -3 Q309 6 301 29 Q280 10 251 -3 Q222 -16 186 -16 Q158 -16 133 -7 Q108 2 88.5 19.5 Q69 37 57.5 62 Q46 87 46 120 Q46 162 66 192 Q86 222 120 240.5 Q154 259 199 267.5 Q244 276 294 276 L294 304 Q294 333 289.5 351 Q285 369 276 382 Q258 408 220 408 Q179 408 151 383 Q123 358 106 316 L67 332 Q87 386 129 423 Q171 460 240 460 Q278 460 306 449.5 Q334 439 352 419 Q390 378 390 297 L390 75 Q390 36 421 36 Q436 36 452 44 L452 19 Z M294 240 L289 240 Q257 240 230.5 233.5 Q204 227 184.5 213.5 Q165 200 154 178.5 Q143 157 143 126 Q143 83 163.5 58.5 Q184 34 219 34 Q240 34 260 43 Q280 52 294 66 L294 240 Z M122 532 L122 583 L350 583 L350 532 L122 532 Z " />
<glyph glyph-name="abreve" unicode="&#x103;" horiz-adv-x="473" d="M452 19 Q437 5 415 -3.5 Q393 -12 371 -12 Q348 -12 328.5 -3 Q309 6 301 29 Q280 10 251 -3 Q222 -16 186 -16 Q158 -16 133 -7 Q108 2 88.5 19.5 Q69 37 57.5 62 Q46 87 46 120 Q46 162 66 192 Q86 222 120 240.5 Q154 259 199 267.5 Q244 276 294 276 L294 304 Q294 333 289.5 351 Q285 369 276 382 Q258 408 220 408 Q179 408 151 383 Q123 358 106 316 L67 332 Q87 386 129 423 Q171 460 240 460 Q278 460 306 449.5 Q334 439 352 419 Q390 378 390 297 L390 75 Q390 36 421 36 Q436 36 452 44 L452 19 Z M294 240 L289 240 Q257 240 230.5 233.5 Q204 227 184.5 213.5 Q165 200 154 178.5 Q143 157 143 126 Q143 83 163.5 58.5 Q184 34 219 34 Q240 34 260 43 Q280 52 294 66 L294 240 Z M238 514 Q185 514 156.5 547.5 Q128 581 128 632 L152 632 Q156 603 179.5 587.5 Q203 572 238 572 Q273 572 296.5 587.5 Q320 603 324 632 L348 632 Q348 581 319.5 547.5 Q291 514 238 514 Z " />
<glyph glyph-name="acaron" unicode="&#x1ce;" horiz-adv-x="473" d="M452 19 Q437 5 415 -3.5 Q393 -12 371 -12 Q348 -12 328.5 -3 Q309 6 301 29 Q280 10 251 -3 Q222 -16 186 -16 Q158 -16 133 -7 Q108 2 88.5 19.5 Q69 37 57.5 62 Q46 87 46 120 Q46 162 66 192 Q86 222 120 240.5 Q154 259 199 267.5 Q244 276 294 276 L294 304 Q294 333 289.5 351 Q285 369 276 382 Q258 408 220 408 Q179 408 151 383 Q123 358 106 316 L67 332 Q87 386 129 423 Q171 460 240 460 Q278 460 306 449.5 Q334 439 352 419 Q390 378 390 297 L390 75 Q390 36 421 36 Q436 36 452 44 L452 19 Z M294 240 L289 240 Q257 240 230.5 233.5 Q204 227 184.5 213.5 Q165 200 154 178.5 Q143 157 143 126 Q143 83 163.5 58.5 Q184 34 219 34 Q240 34 260 43 Q280 52 294 66 L294 240 Z M211 501 L121 635 L137 645 L236 564 L335 645 L351 635 L261 501 L211 501 Z " />
<glyph glyph-name="aring" unicode="&#xe5;" horiz-adv-x="473" d="M452 19 Q437 5 415 -3.5 Q393 -12 371 -12 Q348 -12 328.5 -3 Q309 6 301 29 Q280 10 251 -3 Q222 -16 186 -16 Q158 -16 133 -7 Q108 2 88.5 19.5 Q69 37 57.5 62 Q46 87 46 120 Q46 162 66 192 Q86 222 120 240.5 Q154 259 199 267.5 Q244 276 294 276 L294 304 Q294 333 289.5 351 Q285 369 276 382 Q258 408 220 408 Q179 408 151 383 Q123 358 106 316 L67 332 Q87 386 129 423 Q171 460 240 460 Q278 460 306 449.5 Q334 439 352 419 Q390 378 390 297 L390 75 Q390 36 421 36 Q436 36 452 44 L452 19 Z M294 240 L289 240 Q257 240 230.5 233.5 Q204 227 184.5 213.5 Q165 200 154 178.5 Q143 157 143 126 Q143 83 163.5 58.5 Q184 34 219 34 Q240 34 260 43 Q280 52 294 66 L294 240 Z M323 583 Q323 549 299 524.5 Q275 500 238 500 Q201 500 177 524.5 Q153 549 153 583 Q153 617 177 641.5 Q201 666 238 666 Q275 666 299 641.5 Q323 617 323 583 Z M281 583 Q281 602 269.5 616 Q258 630 238 630 Q218 630 206.5 616 Q195 602 195 583 Q195 564 206.5 550 Q218 536 238 536 Q258 536 269.5 550 Q281 564 281 583 Z " />
<glyph glyph-name="aringacute" unicode="&#x1fb;" horiz-adv-x="473" d="M452 19 Q437 5 415 -3.5 Q393 -12 371 -12 Q348 -12 328.5 -3 Q309 6 301 29 Q280 10 251 -3 Q222 -16 186 -16 Q158 -16 133 -7 Q108 2 88.5 19.5 Q69 37 57.5 62 Q46 87 46 120 Q46 162 66 192 Q86 222 120 240.5 Q154 259 199 267.5 Q244 276 294 276 L294 304 Q294 333 289.5 351 Q285 369 276 382 Q258 408 220 408 Q179 408 151 383 Q123 358 106 316 L67 332 Q87 386 129 423 Q171 460 240 460 Q278 460 306 449.5 Q334 439 352 419 Q390 378 390 297 L390 75 Q390 36 421 36 Q436 36 452 44 L452 19 Z M294 240 L289 240 Q257 240 230.5 233.5 Q204 227 184.5 213.5 Q165 200 154 178.5 Q143 157 143 126 Q143 83 163.5 58.5 Q184 34 219 34 Q240 34 260 43 Q280 52 294 66 L294 240 Z M321 573 Q321 539 297 514.5 Q273 490 236 490 Q199 490 175 514.5 Q151 539 151 573 Q151 607 175 631.5 Q199 656 236 656 Q273 656 297 631.5 Q321 607 321 573 Z M279 573 Q279 592 267.5 606 Q256 620 236 620 Q216 620 204.5 606 Q193 592 193 573 Q193 554 204.5 540 Q216 526 236 526 Q256 526 267.5 540 Q279 554 279 573 Z M329 741 L154 653 L144 666 L260 784 Q271 795 280 795 Q288 795 296 787 L329 752 L329 741 Z " />
<glyph glyph-name="aogonek" unicode="&#x105;" horiz-adv-x="473" d="M454 -204 Q437 -212 415.5 -218 Q394 -224 371 -224 Q326 -224 295 -199 Q264 -174 264 -131 Q264 -64 361 -11 Q342 -9 324.5 0 Q307 9 301 29 Q280 10 251 -3 Q222 -16 186 -16 Q158 -16 133 -7 Q108 2 88.5 19.5 Q69 37 57.5 62 Q46 87 46 120 Q46 162 66 192 Q86 222 120 240.5 Q154 259 199 267.5 Q244 276 294 276 L294 304 Q294 333 289.5 351 Q285 369 276 382 Q258 408 220 408 Q179 408 151 383 Q123 358 106 316 L67 332 Q87 386 129 423 Q171 460 240 460 Q278 460 306 449.5 Q334 439 352 419 Q390 378 390 297 L390 75 Q390 36 421 36 Q436 36 452 44 L452 19 Q418 -3 395.5 -22 Q373 -41 359.5 -59 Q346 -77 340 -94 Q334 -111 334 -128 Q334 -153 349.5 -170 Q365 -187 393 -187 Q406 -187 420 -184.5 Q434 -182 447 -178 L454 -204 Z M294 240 L289 240 Q257 240 230.5 233.5 Q204 227 184.5 213.5 Q165 200 154 178.5 Q143 157 143 126 Q143 83 163.5 58.5 Q184 34 219 34 Q240 34 260 43 Q280 52 294 66 L294 240 Z " />
<glyph glyph-name="ae" unicode="&#xe6;" horiz-adv-x="713" d="M667 89 Q643 43 597 13.5 Q551 -16 490 -16 Q443 -16 407.5 1.5 Q372 19 346 51 Q321 22 284 3 Q247 -16 199 -16 Q129 -16 86 24 Q67 41 56.5 65 Q46 89 46 120 Q46 162 66 192 Q86 222 120 240.5 Q154 259 199 267.5 Q244 276 294 276 L294 304 Q294 333 289.5 351 Q285 369 276 382 Q258 408 220 408 Q179 408 151 383 Q123 358 106 316 L67 332 Q87 386 129 423 Q171 460 240 460 Q278 460 309 448 Q340 436 360 409 Q413 460 494 460 Q573 460 622.5 410 Q672 360 672 266 Q672 260 672 251.5 Q672 243 671 234 L392 234 Q392 138 425 90 Q458 42 518 42 Q556 42 587 62 Q618 82 639 111 L667 89 Z M143 126 Q143 83 168 58.5 Q193 34 231 34 Q260 34 283 47.5 Q306 61 325 82 Q308 111 299.5 147 Q291 183 292 223 L292 240 L289 240 Q257 240 230.5 233.5 Q204 227 184.5 213.5 Q165 200 154 178.5 Q143 157 143 126 Z M579 273 Q578 340 556.5 377.5 Q535 415 493 415 Q448 415 423 375 Q398 335 394 273 L579 273 Z " />
<glyph glyph-name="aeacute" unicode="&#x1fd;" horiz-adv-x="713" d="M667 89 Q643 43 597 13.5 Q551 -16 490 -16 Q443 -16 407.5 1.5 Q372 19 346 51 Q321 22 284 3 Q247 -16 199 -16 Q129 -16 86 24 Q67 41 56.5 65 Q46 89 46 120 Q46 162 66 192 Q86 222 120 240.5 Q154 259 199 267.5 Q244 276 294 276 L294 304 Q294 333 289.5 351 Q285 369 276 382 Q258 408 220 408 Q179 408 151 383 Q123 358 106 316 L67 332 Q87 386 129 423 Q171 460 240 460 Q278 460 309 448 Q340 436 360 409 Q413 460 494 460 Q573 460 622.5 410 Q672 360 672 266 Q672 260 672 251.5 Q672 243 671 234 L392 234 Q392 138 425 90 Q458 42 518 42 Q556 42 587 62 Q618 82 639 111 L667 89 Z M143 126 Q143 83 168 58.5 Q193 34 231 34 Q260 34 283 47.5 Q306 61 325 82 Q308 111 299.5 147 Q291 183 292 223 L292 240 L289 240 Q257 240 230.5 233.5 Q204 227 184.5 213.5 Q165 200 154 178.5 Q143 157 143 126 Z M579 273 Q578 340 556.5 377.5 Q535 415 493 415 Q448 415 423 375 Q398 335 394 273 L579 273 Z M479 582 L304 494 L294 507 L410 625 Q421 636 430 636 Q438 636 446 628 L479 593 L479 582 Z " />
<glyph glyph-name="cacute" unicode="&#x107;" horiz-adv-x="439" d="M412 88 Q387 42 341.5 13 Q296 -16 237 -16 Q192 -16 154.5 0.5 Q117 17 90.5 48 Q64 79 49.5 123 Q35 167 35 221 Q35 275 51.5 319 Q68 363 98 394.5 Q128 426 169.5 443 Q211 460 262 460 Q297 460 330.5 454 Q364 448 388 446 Q388 431 388 411 Q388 391 388.5 370.5 Q389 350 389.5 331.5 Q390 313 391 301 L366 301 Q361 355 335 385.5 Q309 416 266 416 Q206 416 171 366 Q136 316 136 225 Q136 132 171 87 Q206 42 259 42 Q297 42 329.5 61 Q362 80 385 110 L412 88 Z M362 582 L187 494 L177 507 L293 625 Q304 636 313 636 Q321 636 329 628 L362 593 L362 582 Z " />
<glyph glyph-name="ccedilla" unicode="&#xe7;" horiz-adv-x="439" d="M334 -131 Q334 -151 323.5 -170 Q313 -189 292 -203 Q271 -217 240 -225.5 Q209 -234 167 -234 L161 -208 Q210 -204 238.5 -184.5 Q267 -165 267 -132 Q267 -109 250.5 -98.5 Q234 -88 208 -84 Q197 -82 194.5 -78 Q192 -74 194 -66 L210 -14 Q130 -5 82.5 57.5 Q35 120 35 221 Q35 275 51.5 319 Q68 363 98 394.5 Q128 426 169.5 443 Q211 460 262 460 Q297 460 330.5 454 Q364 448 388 446 Q388 431 388 411 Q388 391 388.5 370.5 Q389 350 389.5 331.5 Q390 313 391 301 L366 301 Q361 355 335 385.5 Q309 416 266 416 Q206 416 171 366 Q136 316 136 225 Q136 132 171 87 Q206 42 259 42 Q297 42 329.5 61 Q362 80 385 110 L412 88 Q389 45 348 17.5 Q307 -10 254 -15 L244 -49 Q284 -55 309 -75 Q334 -95 334 -131 Z " />
<glyph glyph-name="ccircumflex" unicode="&#x109;" horiz-adv-x="439" d="M412 88 Q387 42 341.5 13 Q296 -16 237 -16 Q192 -16 154.5 0.5 Q117 17 90.5 48 Q64 79 49.5 123 Q35 167 35 221 Q35 275 51.5 319 Q68 363 98 394.5 Q128 426 169.5 443 Q211 460 262 460 Q297 460 330.5 454 Q364 448 388 446 Q388 431 388 411 Q388 391 388.5 370.5 Q389 350 389.5 331.5 Q390 313 391 301 L366 301 Q361 355 335 385.5 Q309 416 266 416 Q206 416 171 366 Q136 316 136 225 Q136 132 171 87 Q206 42 259 42 Q297 42 329.5 61 Q362 80 385 110 L412 88 Z M284 645 L374 511 L358 501 L259 582 L160 501 L144 511 L234 645 L284 645 Z " />
<glyph glyph-name="ccaron" unicode="&#x10d;" horiz-adv-x="439" d="M412 88 Q387 42 341.5 13 Q296 -16 237 -16 Q192 -16 154.5 0.5 Q117 17 90.5 48 Q64 79 49.5 123 Q35 167 35 221 Q35 275 51.5 319 Q68 363 98 394.5 Q128 426 169.5 443 Q211 460 262 460 Q297 460 330.5 454 Q364 448 388 446 Q388 431 388 411 Q388 391 388.5 370.5 Q389 350 389.5 331.5 Q390 313 391 301 L366 301 Q361 355 335 385.5 Q309 416 266 416 Q206 416 171 366 Q136 316 136 225 Q136 132 171 87 Q206 42 259 42 Q297 42 329.5 61 Q362 80 385 110 L412 88 Z M234 501 L144 635 L160 645 L259 564 L358 645 L374 635 L284 501 L234 501 Z " />
<glyph glyph-name="cdotaccent" unicode="&#x10b;" horiz-adv-x="439" d="M412 88 Q387 42 341.5 13 Q296 -16 237 -16 Q192 -16 154.5 0.5 Q117 17 90.5 48 Q64 79 49.5 123 Q35 167 35 221 Q35 275 51.5 319 Q68 363 98 394.5 Q128 426 169.5 443 Q211 460 262 460 Q297 460 330.5 454 Q364 448 388 446 Q388 431 388 411 Q388 391 388.5 370.5 Q389 350 389.5 331.5 Q390 313 391 301 L366 301 Q361 355 335 385.5 Q309 416 266 416 Q206 416 171 366 Q136 316 136 225 Q136 132 171 87 Q206 42 259 42 Q297 42 329.5 61 Q362 80 385 110 L412 88 Z M197 573 Q197 596 213.5 612.5 Q230 629 253 629 Q276 629 292.5 612.5 Q309 596 309 573 Q309 550 292.5 533.5 Q276 517 253 517 Q230 517 213.5 533.5 Q197 550 197 573 Z " />
<glyph glyph-name="dcaron" unicode="&#x10f;" horiz-adv-x="556" d="M346 584 Q346 608 339 618 Q332 628 310 636 L289 644 L289 665 Q341 665 378.5 666 Q416 667 442 670 L442 82 Q442 61 448.5 48.5 Q455 36 473 36 Q481 36 491.5 38.5 Q502 41 509 44 L509 19 Q495 5 472 -3.5 Q449 -12 426 -12 Q397 -12 378 2.5 Q359 17 352 44 Q331 19 295 1.5 Q259 -16 219 -16 Q180 -16 146.5 1 Q113 18 88.5 49 Q64 80 50 122 Q36 164 36 215 Q36 270 52.5 315 Q69 360 96.5 392.5 Q124 425 161 442.5 Q198 460 240 460 Q269 460 296.5 449 Q324 438 346 421 L346 584 Z M346 376 Q305 405 258 405 Q233 405 211 393.5 Q189 382 172.5 359 Q156 336 146.5 301.5 Q137 267 137 220 Q137 136 166.5 90 Q196 44 251 44 Q280 44 304 55.5 Q328 67 346 85 L346 376 Z M595 568 Q595 532 576.5 492.5 Q558 453 513 428 L499 444 Q517 458 530 479 Q543 500 543 521 Q543 538 535 548 Q527 558 517.5 565.5 Q508 573 500 581 Q492 589 492 602 Q492 619 504.5 629.5 Q517 640 535 640 Q564 640 579.5 618.5 Q595 597 595 568 Z " />
<glyph glyph-name="dcroat" unicode="&#x111;" horiz-adv-x="529" d="M346 584 Q346 608 339 618 Q332 628 310 636 L289 644 L289 665 Q341 665 378.5 666 Q416 667 442 670 L442 565 L515 565 L515 528 L442 528 L442 82 Q442 61 448.5 48.5 Q455 36 473 36 Q481 36 491.5 38.5 Q502 41 509 44 L509 19 Q495 5 472 -3.5 Q449 -12 426 -12 Q397 -12 378 2.5 Q359 17 352 44 Q331 19 295 1.5 Q259 -16 219 -16 Q180 -16 146.5 1 Q113 18 88.5 49 Q64 80 50 122 Q36 164 36 215 Q36 270 52.5 315 Q69 360 96.5 392.5 Q124 425 161 442.5 Q198 460 240 460 Q269 460 296.5 449 Q324 438 346 421 L346 528 L205 528 L205 565 L346 565 L346 584 Z M346 376 Q305 405 258 405 Q233 405 211 393.5 Q189 382 172.5 359 Q156 336 146.5 301.5 Q137 267 137 220 Q137 136 166.5 90 Q196 44 251 44 Q280 44 304 55.5 Q328 67 346 85 L346 376 Z " />
<glyph glyph-name="eth" unicode="&#xf0;" horiz-adv-x="506" d="M240 565 Q220 590 198 613 Q176 636 150 656 L166 681 Q206 664 241.5 638.5 Q277 613 309 581 L423 609 L431 572 L338 549 Q395 480 428.5 396 Q462 312 462 225 Q462 179 449 135.5 Q436 92 409.5 58.5 Q383 25 342 4.5 Q301 -16 245 -16 Q196 -16 157 1 Q118 18 91 48 Q64 78 49.5 120 Q35 162 35 212 Q35 266 50.5 310 Q66 354 93 385.5 Q120 417 155.5 434 Q191 451 231 451 Q258 451 280.5 443.5 Q303 436 320 425 Q309 453 295 479.5 Q281 506 264 532 L163 508 L155 545 L240 565 Z M361 221 Q361 259 355.5 296.5 Q350 334 339 372 Q320 385 300.5 393 Q281 401 259 401 Q199 401 167.5 351.5 Q136 302 136 214 Q136 130 165.5 79.5 Q195 29 248 29 Q304 29 332.5 79.5 Q361 130 361 221 Z " />
<glyph glyph-name="egrave" unicode="&#xe8;" horiz-adv-x="457" d="M411 89 Q387 43 341 13.5 Q295 -16 234 -16 Q187 -16 150 3 Q113 22 87.5 54.5 Q62 87 49 130.5 Q36 174 36 223 Q36 277 51 321 Q66 365 92 395.5 Q118 426 155.5 443 Q193 460 238 460 Q317 460 366.5 410 Q416 360 416 266 Q416 260 416 251.5 Q416 243 415 234 L136 234 Q136 138 169 90 Q202 42 262 42 Q300 42 331 62 Q362 82 383 111 L411 89 Z M323 273 Q322 340 300.5 377.5 Q279 415 237 415 Q192 415 167 375 Q142 335 138 273 L323 273 Z M146 593 L179 628 Q187 636 195 636 Q204 636 215 625 L331 507 L321 494 L146 582 L146 593 Z " />
<glyph glyph-name="eacute" unicode="&#xe9;" horiz-adv-x="457" d="M411 89 Q387 43 341 13.5 Q295 -16 234 -16 Q187 -16 150 3 Q113 22 87.5 54.5 Q62 87 49 130.5 Q36 174 36 223 Q36 277 51 321 Q66 365 92 395.5 Q118 426 155.5 443 Q193 460 238 460 Q317 460 366.5 410 Q416 360 416 266 Q416 260 416 251.5 Q416 243 415 234 L136 234 Q136 138 169 90 Q202 42 262 42 Q300 42 331 62 Q362 82 383 111 L411 89 Z M323 273 Q322 340 300.5 377.5 Q279 415 237 415 Q192 415 167 375 Q142 335 138 273 L323 273 Z M331 582 L156 494 L146 507 L262 625 Q273 636 282 636 Q290 636 298 628 L331 593 L331 582 Z " />
<glyph glyph-name="ecircumflex" unicode="&#xea;" horiz-adv-x="457" d="M411 89 Q387 43 341 13.5 Q295 -16 234 -16 Q187 -16 150 3 Q113 22 87.5 54.5 Q62 87 49 130.5 Q36 174 36 223 Q36 277 51 321 Q66 365 92 395.5 Q118 426 155.5 443 Q193 460 238 460 Q317 460 366.5 410 Q416 360 416 266 Q416 260 416 251.5 Q416 243 415 234 L136 234 Q136 138 169 90 Q202 42 262 42 Q300 42 331 62 Q362 82 383 111 L411 89 Z M323 273 Q322 340 300.5 377.5 Q279 415 237 415 Q192 415 167 375 Q142 335 138 273 L323 273 Z M263 645 L353 511 L337 501 L238 582 L139 501 L123 511 L213 645 L263 645 Z " />
<glyph glyph-name="ecaron" unicode="&#x11b;" horiz-adv-x="457" d="M411 89 Q387 43 341 13.5 Q295 -16 234 -16 Q187 -16 150 3 Q113 22 87.5 54.5 Q62 87 49 130.5 Q36 174 36 223 Q36 277 51 321 Q66 365 92 395.5 Q118 426 155.5 443 Q193 460 238 460 Q317 460 366.5 410 Q416 360 416 266 Q416 260 416 251.5 Q416 243 415 234 L136 234 Q136 138 169 90 Q202 42 262 42 Q300 42 331 62 Q362 82 383 111 L411 89 Z M323 273 Q322 340 300.5 377.5 Q279 415 237 415 Q192 415 167 375 Q142 335 138 273 L323 273 Z M213 501 L123 635 L139 645 L238 564 L337 645 L353 635 L263 501 L213 501 Z " />
<glyph glyph-name="edieresis" unicode="&#xeb;" horiz-adv-x="457" d="M411 89 Q387 43 341 13.5 Q295 -16 234 -16 Q187 -16 150 3 Q113 22 87.5 54.5 Q62 87 49 130.5 Q36 174 36 223 Q36 277 51 321 Q66 365 92 395.5 Q118 426 155.5 443 Q193 460 238 460 Q317 460 366.5 410 Q416 360 416 266 Q416 260 416 251.5 Q416 243 415 234 L136 234 Q136 138 169 90 Q202 42 262 42 Q300 42 331 62 Q362 82 383 111 L411 89 Z M323 273 Q322 340 300.5 377.5 Q279 415 237 415 Q192 415 167 375 Q142 335 138 273 L323 273 Z M111 576 Q111 596 125 610.5 Q139 625 159 625 Q179 625 193.5 610.5 Q208 596 208 576 Q208 556 193.5 542 Q179 528 159 528 Q139 528 125 542 Q111 556 111 576 Z M269 576 Q269 596 283 610.5 Q297 625 317 625 Q337 625 351.5 610.5 Q366 596 366 576 Q366 556 351.5 542 Q337 528 317 528 Q297 528 283 542 Q269 556 269 576 Z " />
<glyph glyph-name="emacron" unicode="&#x113;" horiz-adv-x="457" d="M411 89 Q387 43 341 13.5 Q295 -16 234 -16 Q187 -16 150 3 Q113 22 87.5 54.5 Q62 87 49 130.5 Q36 174 36 223 Q36 277 51 321 Q66 365 92 395.5 Q118 426 155.5 443 Q193 460 238 460 Q317 460 366.5 410 Q416 360 416 266 Q416 260 416 251.5 Q416 243 415 234 L136 234 Q136 138 169 90 Q202 42 262 42 Q300 42 331 62 Q362 82 383 111 L411 89 Z M323 273 Q322 340 300.5 377.5 Q279 415 237 415 Q192 415 167 375 Q142 335 138 273 L323 273 Z M124 532 L124 583 L352 583 L352 532 L124 532 Z " />
<glyph glyph-name="ebreve" unicode="&#x115;" horiz-adv-x="457" d="M411 89 Q387 43 341 13.5 Q295 -16 234 -16 Q187 -16 150 3 Q113 22 87.5 54.5 Q62 87 49 130.5 Q36 174 36 223 Q36 277 51 321 Q66 365 92 395.5 Q118 426 155.5 443 Q193 460 238 460 Q317 460 366.5 410 Q416 360 416 266 Q416 260 416 251.5 Q416 243 415 234 L136 234 Q136 138 169 90 Q202 42 262 42 Q300 42 331 62 Q362 82 383 111 L411 89 Z M323 273 Q322 340 300.5 377.5 Q279 415 237 415 Q192 415 167 375 Q142 335 138 273 L323 273 Z M238 514 Q185 514 156.5 547.5 Q128 581 128 632 L152 632 Q156 603 179.5 587.5 Q203 572 238 572 Q273 572 296.5 587.5 Q320 603 324 632 L348 632 Q348 581 319.5 547.5 Q291 514 238 514 Z " />
<glyph glyph-name="edotaccent" unicode="&#x117;" horiz-adv-x="457" d="M411 89 Q387 43 341 13.5 Q295 -16 234 -16 Q187 -16 150 3 Q113 22 87.5 54.5 Q62 87 49 130.5 Q36 174 36 223 Q36 277 51 321 Q66 365 92 395.5 Q118 426 155.5 443 Q193 460 238 460 Q317 460 366.5 410 Q416 360 416 266 Q416 260 416 251.5 Q416 243 415 234 L136 234 Q136 138 169 90 Q202 42 262 42 Q300 42 331 62 Q362 82 383 111 L411 89 Z M323 273 Q322 340 300.5 377.5 Q279 415 237 415 Q192 415 167 375 Q142 335 138 273 L323 273 Z M182 573 Q182 596 198.5 612.5 Q215 629 238 629 Q261 629 277.5 612.5 Q294 596 294 573 Q294 550 277.5 533.5 Q261 517 238 517 Q215 517 198.5 533.5 Q182 550 182 573 Z " />
</font>
</svg>
