<?xml version="1.0" standalone="no"?>
<!DOCTYPE svg PUBLIC "-//W3C//DTD SVG 1.1//EN" "http://www.w3.org/Graphics/SVG/1.1/DTD/svg11.dtd" >
<svg xmlns="http://www.w3.org/2000/svg" xmlns:xlink="http://www.w3.org/1999/xlink" version="1.1">
<metadata>
Created by FontForge 20141024 at Wed May 20 11:03:56 2015
 By System Administrator
(c)by Logitogo 2008
</metadata>
<defs>
<font id="Code39-hoch-Logitogo" horiz-adv-x="2482" >
  <font-face 
    font-family="Code 39-hoch-Logitogo"
    font-weight="400"
    font-stretch="normal"
    units-per-em="2048"
    panose-1="5 1 1 1 1 1 1 1 1 1"
    ascent="1638"
    descent="-410"
    x-height="1728"
    cap-height="1728"
    bbox="0 -572 6593 1911"
    underline-thickness="100"
    underline-position="-223"
    unicode-range="U+000D-FB02"
  />
<missing-glyph horiz-adv-x="1536" 
d="M256 0v1280h1024v-1280h-1024zM1247 33v1214h-958v-1214h958z" />
    <glyph glyph-name=".notdef" horiz-adv-x="1536" 
d="M256 0v1280h1024v-1280h-1024zM1247 33v1214h-958v-1214h958z" />
    <glyph glyph-name=".notdef" horiz-adv-x="1536" 
d="M256 0v1280h1024v-1280h-1024zM1247 33v1214h-958v-1214h958z" />
    <glyph glyph-name=".notdef" horiz-adv-x="1536" 
d="M256 0v1280h1024v-1280h-1024zM1247 33v1214h-958v-1214h958z" />
    <glyph glyph-name=".notdef" horiz-adv-x="1536" 
d="M256 0v1280h1024v-1280h-1024zM1247 33v1214h-958v-1214h958z" />
    <glyph glyph-name=".notdef" horiz-adv-x="1536" 
d="M256 0v1280h1024v-1280h-1024zM1247 33v1214h-958v-1214h958z" />
    <glyph glyph-name=".notdef" horiz-adv-x="1536" 
d="M256 0v1280h1024v-1280h-1024zM1247 33v1214h-958v-1214h958z" />
    <glyph glyph-name=".notdef" horiz-adv-x="1536" 
d="M256 0v1280h1024v-1280h-1024zM1247 33v1214h-958v-1214h958z" />
    <glyph glyph-name=".notdef" horiz-adv-x="1536" 
d="M256 0v1280h1024v-1280h-1024zM1247 33v1214h-958v-1214h958z" />
    <glyph glyph-name=".notdef" horiz-adv-x="1536" 
d="M256 0v1280h1024v-1280h-1024zM1247 33v1214h-958v-1214h958z" />
    <glyph glyph-name=".notdef" horiz-adv-x="1536" 
d="M256 0v1280h1024v-1280h-1024zM1247 33v1214h-958v-1214h958z" />
    <glyph glyph-name=".notdef" horiz-adv-x="1536" 
d="M256 0v1280h1024v-1280h-1024zM1247 33v1214h-958v-1214h958z" />
    <glyph glyph-name=".notdef" horiz-adv-x="1536" 
d="M256 0v1280h1024v-1280h-1024zM1247 33v1214h-958v-1214h958z" />
    <glyph glyph-name=".notdef" horiz-adv-x="1536" 
d="M256 0v1280h1024v-1280h-1024zM1247 33v1214h-958v-1214h958z" />
    <glyph glyph-name=".notdef" horiz-adv-x="1536" 
d="M256 0v1280h1024v-1280h-1024zM1247 33v1214h-958v-1214h958z" />
    <glyph glyph-name=".notdef" horiz-adv-x="1536" 
d="M256 0v1280h1024v-1280h-1024zM1247 33v1214h-958v-1214h958z" />
    <glyph glyph-name=".notdef" horiz-adv-x="1536" 
d="M256 0v1280h1024v-1280h-1024zM1247 33v1214h-958v-1214h958z" />
    <glyph glyph-name=".notdef" horiz-adv-x="1536" 
d="M256 0v1280h1024v-1280h-1024zM1247 33v1214h-958v-1214h958z" />
    <glyph glyph-name=".notdef" horiz-adv-x="1536" 
d="M256 0v1280h1024v-1280h-1024zM1247 33v1214h-958v-1214h958z" />
    <glyph glyph-name=".notdef" horiz-adv-x="1536" 
d="M256 0v1280h1024v-1280h-1024zM1247 33v1214h-958v-1214h958z" />
    <glyph glyph-name=".notdef" horiz-adv-x="1536" 
d="M256 0v1280h1024v-1280h-1024zM1247 33v1214h-958v-1214h958z" />
    <glyph glyph-name=".notdef" unicode="&#xa;" horiz-adv-x="1536" 
d="M256 0v1280h1024v-1280h-1024zM1247 33v1214h-958v-1214h958z" />
    <glyph glyph-name=".notdef" horiz-adv-x="1536" 
d="M256 0v1280h1024v-1280h-1024zM1247 33v1214h-958v-1214h958z" />
    <glyph glyph-name=".notdef" horiz-adv-x="1536" 
d="M256 0v1280h1024v-1280h-1024zM1247 33v1214h-958v-1214h958z" />
    <glyph glyph-name=".notdef" horiz-adv-x="1536" 
d="M256 0v1280h1024v-1280h-1024zM1247 33v1214h-958v-1214h958z" />
    <glyph glyph-name=".notdef" horiz-adv-x="1536" 
d="M256 0v1280h1024v-1280h-1024zM1247 33v1214h-958v-1214h958z" />
    <glyph glyph-name=".notdef" horiz-adv-x="1536" 
d="M256 0v1280h1024v-1280h-1024zM1247 33v1214h-958v-1214h958z" />
    <glyph glyph-name=".notdef" horiz-adv-x="1536" 
d="M256 0v1280h1024v-1280h-1024zM1247 33v1214h-958v-1214h958z" />
    <glyph glyph-name=".notdef" horiz-adv-x="1536" 
d="M256 0v1280h1024v-1280h-1024zM1247 33v1214h-958v-1214h958z" />
    <glyph glyph-name="uni001D" horiz-adv-x="0" 
 />
    <glyph glyph-name="uni001D" horiz-adv-x="0" 
 />
    <glyph glyph-name="uni001D" horiz-adv-x="0" 
 />
    <glyph glyph-name="uni000D" unicode="&#xd;" 
 />
    <glyph glyph-name="space" unicode=" " horiz-adv-x="0" 
 />
    <glyph glyph-name="space" unicode="&#x9;" horiz-adv-x="0" 
 />
    <glyph glyph-name="exclam" unicode="!" horiz-adv-x="5406" 
d="M69 748v-1219h-68v1219h68zM2805 1911v-2362h-68v2362h68zM2716 816v-102h-2586v102h2586zM985 578h27q-41 -165 -41 -273v-28q0 -126 41 -266l-5 -7h-22q-67 133 -67 287q0 156 67 287zM2517 578q67 -114 67 -287q0 -151 -63 -287h-22l-4 7h-5q45 156 45 273
q0 127 -45 287l5 7h22zM476 504h36l9 -14v-172l112 186h68v-7l-95 -165l104 -258l-5 -8h-58q-10 0 -76 201h-5l-45 -71v-115l-9 -15h-36l-9 15v409zM1611 504h32l9 -14v-409l-9 -15h-36l-9 15v302q-38 -49 -63 -58l-4 7v58q53 49 80 114zM1809 504h18q80 0 80 -229
q0 -216 -85 -216h-9q-85 0 -85 201v43q0 201 81 201zM2297 504h36l9 -14v-50l-9 -15h-36l-9 15v50zM2405 504h36l9 -14v-409l-9 -15h-36l-9 15v409zM1782 267q3 -136 27 -136h18q15 0 22 80v150q0 79 -36 79q-31 0 -31 -173zM198 390h41q61 0 80 -151v-8q-11 -172 -94 -172
h-13q-86 0 -94 166v21q20 144 80 144zM2042 390h27q17 0 45 -43q18 43 44 43h27q50 0 50 -123v-186l-9 -15h-36l-9 15v201q0 37 -23 50q-38 0 -40 -79v-172l-9 -15h-36l-9 15v186q0 65 -27 65q-40 0 -40 -129v-122l-9 -15h-31l-9 15v287l9 15h27q8 0 8 -36q32 43 50 43z
M1302 383h175l9 -15v-43l-9 -14h-175l-9 14v43zM2297 383h36l9 -15v-287l-9 -15h-36l-9 15v287zM167 231q7 -100 45 -100h9q39 0 45 94q-8 100 -50 100q-38 0 -49 -94zM1302 253h175l9 -14v-43l-9 -14h-175l-9 14v43zM369 153h36l9 -15v-57l-9 -15h-36l-9 15v57zM750 153h36
l9 -15v-57l-9 -15h-36l-9 15v57zM2588 1090l217 -321l-221 -327l-4 6v629zM240 1090l5 -6v-629l-10 -13l-235 321zM3111 210v-782h-68v782h68zM3247 210v-782h-68v782h68zM3383 210v-782h-68v782h68zM3519 210v-782h-68v782h68zM3655 210v-782h-68v782h68zM3179 992v-782
h-68v782h68zM3315 992v-782h-68v782h68zM3451 992v-782h-68v782h68zM3587 992v-782h-68v782h68zM3723 992v-782h-68v782h68zM3780 915h24l6 -10v-92q17 25 30 25h18q38 0 45 -107v-5q-7 -111 -51 -111h-3q-20 0 -42 34q0 -29 -6 -29h-21l-6 9v276zM3936 915h24l6 -10v-276
l-6 -9h-24l-6 9v276zM4290 915h24l6 -10v-140l42 67h36v-4l-39 -73v-4l45 -126l-3 -5h-30q-6 0 -33 92h-3l-15 -24v-59l-6 -9h-24l-6 9v276zM4715 915h21l6 -10v-97q20 30 33 30h18q28 0 33 -63v-146l-6 -9h-21l-6 9v122q0 48 -21 48q-30 0 -30 -77v-93l-6 -9h-21l-6 9v276z
M4868 915h24l6 -10v-33l-6 -10h-24l-6 10v33zM4973 905v-73h18l6 -9v-19l-6 -10h-18v-121l6 -9h18v-35q-3 -14 -18 -14h-12q-30 0 -30 58v121q-18 0 -18 10v19q0 9 18 9v40q20 33 36 33zM4041 838h27q39 0 39 -53v-103l6 -62h-27q-7 0 -9 24q-20 -29 -39 -29h-3
q-42 8 -42 53v20q0 52 75 67l3 5v19q0 12 -21 20q-11 0 -24 -29l-30 9q12 59 45 59zM4185 838h24q33 0 48 -63l-33 -10q-7 29 -24 29v5q-27 0 -30 -58v-19q0 -58 27 -58h12l21 38l27 -4v-10q0 -57 -54 -73h-9q-53 0 -60 116q0 86 51 107zM5063 838h15q54 0 54 -121l-3 -5
h-84v-10q4 -44 27 -44q16 0 24 30l30 -10v-14q-16 -49 -57 -49q-60 11 -60 97v29q9 97 54 97zM4440 832h20l6 -9v-34l-6 -10h-20l-6 10v34zM4523 832q9 0 30 -134h3q17 134 24 134h27q7 0 24 -134h3q21 134 27 134h24l6 -9q-39 -203 -45 -203h-24q-9 0 -27 135h-3
q-17 -135 -27 -135h-24q-7 0 -45 208l3 4h24zM4868 832h24l6 -9v-194l-6 -9h-24l-6 9v194zM3810 741v-24q3 -59 30 -59q23 0 27 49v34q-4 58 -27 58q-27 0 -30 -58zM5045 755v-10h51v10q0 33 -24 44q-27 -7 -27 -44zM4026 678q6 -18 18 -24q16 0 27 28v40q-45 -8 -45 -44z
M4440 678h20l6 -10v-39l-6 -9h-20l-6 9v39zM4057 520h18l6 -12v-332l-6 -11h-25l-6 11v244q-12 -22 -40 -46l-3 6v46q30 38 56 94zM4288 520h19l6 -12v-332l-6 -11h-22l-6 11v244q-35 -46 -43 -46l-3 6v46q38 44 55 94zM4915 520h25l6 -12v-140l77 152h46v-6l-64 -134
l71 -210l-4 -5h-40q-18 31 -52 163h-3l-31 -58v-94l-6 -11h-25l-6 11v332zM4727 426h18q54 0 62 -133q0 -121 -74 -134q-65 20 -65 117v35q11 115 59 115zM3769 420h121l6 -11v-35l-6 -11h-121l-6 11v35zM4155 420h25l6 -11v-41l-6 -11h-25l-6 11v41zM4446 420h120l6 -11
v-35l-6 -11h-120l-7 11v35zM4702 293q4 -76 31 -76h6q25 0 31 76q-6 81 -34 81q-34 -9 -34 -81zM3769 316h121l6 -12v-34l-6 -12h-121l-6 12v34zM4446 316h120l6 -12v-34l-6 -12h-120l-7 12v34zM4155 235h25l6 -12v-47l-6 -11h-25l-6 11v47zM4841 235h25l6 -12v-47l-6 -11
h-25l-6 11v47zM5103 235h25l6 -12v-47l-6 -11h-25l-6 11v47zM3111 1774v-782h-68v782h68zM3247 1774v-782h-68v782h68zM3383 1774v-782h-68v782h68zM3519 1774v-782h-68v782h68zM3655 1774v-782h-68v782h68zM690 1434h32l12 -19l-88 -565h-44l-7 9h-6q84 558 101 575z
M1357 1425h38l12 -19v-528l-12 -19h-45l-12 19v389q-71 -74 -88 -74l-7 9v74q79 70 114 149zM306 1351q241 -151 258 -177v-74l-258 -176l-6 9v84q16 31 182 120v10q-182 86 -182 111v74l6 9v10zM1772 1276h51q70 0 100 -120l-69 -19q-15 56 -50 56v9q-64 -12 -64 -111v-37
q0 -111 57 -111h26q11 0 37 74h7q56 -8 56 -28q0 -108 -113 -139h-19q-112 0 -126 222q19 204 107 204zM2112 1276h31q25 0 63 -55q38 55 63 55h38q58 0 69 -120v-278l-12 -19h-45l-12 19v157q0 167 -38 167q-57 -15 -57 -111v-213l-12 -19h-50l-13 19v259q0 49 -32 65
q-54 0 -56 -102v-222l-12 -19h-51l-12 19v371l12 18h44q13 0 13 -46q41 55 69 55zM772 1267h245l12 -18v-56l-12 -19h-245l-13 19v56zM772 1100h245l12 -18v-56l-12 -18h-245l-13 18v56zM5406 1904v-2362h-68v2362h68zM1280 542h23l9 -15l-64 -453h-32l-5 8h-4
q61 446 73 460zM1030 456q176 -121 188 -141v-60l-188 -141l-4 8v67q12 25 133 96v8q-133 69 -133 89v59l4 7v8z" />
    <glyph glyph-name="quotedbl" unicode="&#x22;" horiz-adv-x="6596" 
d="M312 349h236l3 -4v-452l-3 -4h-236l-3 4v452zM202 339h37l10 -15v-415l-10 -14h-43l-10 14v306q-46 -49 -75 -58l-5 7v58q63 50 96 117zM970 187h20l5 -9v-116l62 125h38v-5l-53 -110l59 -168v-9h-36l-47 134l-23 -48v-77l-5 -9h-20l-5 9v274zM634 110h15q24 0 28 -62
v-144l-5 -9h-18l-5 9v101q0 67 -18 67q-25 0 -25 -72v-96l-6 -9h-20l-5 9v192l5 9h18q5 0 5 -24h3q16 29 28 29zM813 110h16q38 0 48 -95v-29q0 -79 -53 -96q-62 0 -62 115q9 105 51 105zM793 15v-19q0 -38 18 -58h18q18 20 18 58v9q0 62 -29 62q-20 0 -25 -52zM713 -48h21
l5 -10v-38l-5 -9h-21l-5 9v38zM908 -48h18l5 -10v-38l-5 -9h-18l-5 9v38zM1126 -48h18l5 -10v-38l-5 -9h-18l-5 9v38zM1251 384h32l13 -17l-89 -504h-45l-6 8h-7q85 498 102 513zM1764 349v-459h-73v459h73zM1988 187h20l5 -9v-116l62 125h38v-5l-53 -110l59 -168v-9h-36
l-47 134l-23 -48v-77l-5 -9h-20l-5 9v274zM1846 110h16q38 0 48 -95v-29q0 -79 -53 -96q-62 0 -62 115q9 105 51 105zM1826 15v-19q0 -38 18 -58h18q18 20 18 58v9q0 62 -29 62q-20 0 -25 -52zM1926 -48h18l5 -10v-38l-5 -9h-18l-5 9v38zM2139 -48h18l5 -10v-38l-5 -9h-18
l-5 9v38zM68 1904v-2362h-68v2362h68zM2244 1904v-2362h-68v2362h68zM1455 1398h32l9 -15v-436l-9 -15h-36l-9 15v322q-38 -52 -63 -62l-4 8v61q53 52 80 122zM1653 1398h18q80 0 80 -245q0 -229 -85 -229h-9q-85 0 -85 214v46q0 214 81 214zM1626 1146q3 -145 27 -145h18
q15 0 22 84v161q0 83 -36 83q-31 0 -31 -183zM1320 1313l4 -7v-65q-11 -24 -116 -93v-6q116 -68 116 -87v-57l-4 -8v-6q-153 116 -164 135v58zM255 1904v-1462h-68v1462h68zM330 1904v-1462h-68v1462h68zM405 1904v-1462h-68v1462h68zM480 1904v-1462h-68v1462h68zM555 1904
v-1462h-68v1462h68zM630 1904v-1462h-68v1462h68zM705 1904v-1462h-68v1462h68zM780 1904v-1462h-68v1462h68zM855 1904v-1462h-68v1462h68zM930 1904v-1462h-68v1462h68zM1361 331h31l9 -15v-405l-9 -15h-36l-9 15v299q-38 -48 -62 -57l-5 7v57q54 49 81 114zM1558 331h18
q81 0 81 -228q0 -214 -85 -214h-9q-86 0 -86 200v42q0 200 81 200zM1531 96q4 -135 27 -135h18q16 0 23 78v150q0 77 -36 77q-32 0 -32 -170zM4417 1886v-2362h-68v2362h68zM3492 1332l4 -7v-68q-10 -24 -115 -96v-7q115 -71 115 -90v-60l-4 -8v-7q-152 121 -163 141v61z
M2428 1886v-1462h-68v1462h68zM2508 1886v-1462h-68v1462h68zM2588 1886v-1462h-68v1462h68zM2668 1886v-1462h-68v1462h68zM2748 1886v-1462h-68v1462h68zM2828 1886v-1462h-68v1462h68zM2908 1886v-1462h-68v1462h68zM2988 1886v-1462h-68v1462h68zM3068 1886v-1462h-68
v1462h68zM3148 1886v-1462h-68v1462h68zM6593 1886v-2362h-68v2362h68zM5668 1328l4 -7v-67q-10 -25 -115 -96v-8q115 -69 115 -89v-59l-4 -8v-7q-152 120 -163 141v60zM4604 1886v-1462h-68v1462h68zM4689 1886v-1462h-68v1462h68zM4774 1886v-1462h-68v1462h68zM4859 1886
v-1462h-68v1462h68zM4944 1886v-1462h-68v1462h68zM5029 1886v-1462h-68v1462h68zM5114 1886v-1462h-68v1462h68zM5199 1886v-1462h-68v1462h68zM5284 1886v-1462h-68v1462h68zM5369 1886v-1462h-68v1462h68zM3613 1436h26l9 -17v-460l-9 -17h-31l-9 17v326h-4l-53 -59l-4 9
v67q50 62 75 134zM3811 1436q70 -29 70 -117l-26 -17h-14l-26 51h-4q-40 0 -40 -101v-17l35 25h9q64 0 75 -159q-12 -168 -84 -168q-83 29 -83 160l-5 50v75q11 218 93 218zM4061 1436h14q48 0 48 -142q-7 -117 -57 -117q-46 0 -53 108v59q7 92 48 92zM4202 1436h22l5 -8h4
q-125 -503 -136 -503h-27q79 348 132 511zM4053 1361v-101l13 -25h4q13 6 13 67v25q0 43 -13 50h-9zM3771 1109q4 -91 40 -91q25 0 30 83q-7 93 -35 93q-25 0 -35 -85zM4237 1185q53 0 53 -134q-8 -126 -53 -126h-8q-45 0 -53 126q0 134 61 134zM4215 1051q3 -67 14 -67h8
q11 0 14 75q-3 67 -14 67h-8q-11 0 -14 -75zM5815 1431q78 -22 78 -115v-49q0 -67 -86 -222v-8h78l8 -17v-57l-8 -16h-144l-8 16q11 100 103 262q12 30 12 83q-6 41 -29 41q-37 -13 -37 -74l-20 8h-21v25q0 94 74 123zM6244 1431h12q45 0 45 -139q-7 -116 -53 -116
q-43 0 -50 107v58q7 90 46 90zM6375 1431h21l4 -8h4q-117 -493 -127 -493h-25q74 340 123 501zM5955 1423h111l9 -17v-57l-9 -17h-82l-4 -74l4 9h37q48 0 62 -148v-16q-14 -165 -82 -165q-79 23 -79 131l41 17q15 -66 38 -66q32 0 32 74v25q0 74 -37 74q-13 0 -33 -33h-4
l-33 16q22 247 29 247zM6235 1357v-99l13 -24h4q12 5 12 66v24q0 43 -12 50h-8zM6408 1185q50 0 50 -132q-8 -123 -50 -123h-8q-41 0 -49 123q0 132 57 132zM6388 1053q2 -66 12 -66h8q10 0 13 74q-3 66 -13 66h-8q-10 0 -12 -74zM1064 896h18q28 -5 28 -23v-23
q0 -23 -41 -23l-5 -8v-47h28l9 -15v-39l-9 -15h-28v-247l-9 -15h-37l-10 15v247q-23 0 -23 15v39q0 15 23 15v31q0 93 56 93zM1342 888h32l9 -15v-54l-9 -16h-32l-10 16v54zM1443 888h33l9 -15v-417l-9 -15h-33l-9 15v417zM1203 780q78 0 78 -85v-154l10 -100h-42l-14 30
q-33 -38 -65 -38q-48 0 -60 108q0 80 121 116v7q0 46 -38 46q-23 -12 -23 -38h-37l-14 15q22 93 84 93zM1980 780q93 -23 93 -154v-31l-10 -15h-115v-16q0 -62 41 -62q21 13 33 47l46 -24q-22 -92 -83 -92q-93 0 -93 178q14 169 88 169zM1342 772h32l9 -15v-301l-9 -15h-32
l-10 15v301zM1545 772h37l9 -15v-200q0 -55 28 -55q42 0 42 124v131l9 15h33l9 -15v-301l-9 -15h-33q-9 0 -9 38q-33 -46 -65 -46q-60 0 -60 139v185zM1772 772h32q10 0 10 -39h4q0 39 33 39h23l14 -15l-19 -70l-23 8q-32 0 -32 -193v-46l-10 -15h-32l-9 15v301zM1948 649
v-15h74v7q-9 69 -37 69q-37 -11 -37 -61zM1166 533v-8l14 -23h13q38 0 38 93h-5q-56 0 -60 -62zM3276 909h19q28 -5 28 -24v-24q0 -24 -42 -24l-5 -8v-48h28l9 -16v-40l-9 -16h-28v-257l-9 -16h-37l-9 16v257q-23 0 -23 16v40q0 16 23 16v32q0 96 55 96zM3554 901h32l10 -16
v-56l-10 -16h-32l-9 16v56zM3656 901h32l10 -16v-433l-10 -16h-32l-9 16v433zM3415 789q79 0 79 -88v-161l9 -104h-41l-14 32q-34 -40 -65 -40q-49 0 -60 112q0 83 120 121v8q0 48 -37 48q-23 -14 -23 -40h-37l-14 16q21 96 83 96zM4193 789q92 -24 92 -160v-32l-9 -16h-116
v-16q0 -65 42 -65q21 13 32 49l47 -25q-23 -96 -84 -96q-92 0 -92 185q14 176 88 176zM3554 781h32l10 -16v-313l-10 -16h-32l-9 16v313zM3758 781h37l9 -16v-208q0 -57 28 -57q41 0 41 129v136l10 16h32l9 -16v-313l-9 -16h-32q-10 0 -10 40q-32 -48 -64 -48q-61 0 -61 145
v192zM3984 781h33q9 0 9 -40h5q0 40 32 40h23l14 -16l-18 -72l-24 8q-32 0 -32 -201v-48l-9 -16h-33l-9 16v313zM4160 653v-16h74v8q-8 72 -37 72q-37 -12 -37 -64zM3378 532v-8l14 -24h14q37 0 37 97h-5q-55 0 -60 -65zM5474 921h18q28 -5 28 -24v-24q0 -23 -41 -23l-5 -8
v-49h28l9 -16v-39l-9 -16h-28v-255l-9 -16h-37l-10 16v255q-23 0 -23 16v39q0 16 23 16v33q0 95 56 95zM5752 913h32l9 -16v-55l-9 -16h-32l-10 16v55zM5853 913h33l9 -16v-430l-9 -16h-33l-9 16v430zM5613 802q78 0 78 -88v-160l10 -103h-42l-14 32q-33 -40 -65 -40
q-48 0 -60 111q0 83 121 120v8q0 48 -38 48q-23 -14 -23 -40h-37l-14 16q22 96 84 96zM6390 802q93 -25 93 -160v-31l-10 -16h-115v-16q0 -65 41 -65q21 14 33 49l46 -25q-22 -95 -83 -95q-93 0 -93 183q14 176 88 176zM5752 793h32l9 -16v-310l-9 -16h-32l-10 16v310z
M5955 793h37l9 -16v-206q0 -57 28 -57q42 0 42 128v135l9 16h33l9 -16v-310l-9 -16h-33q-9 0 -9 40q-33 -48 -65 -48q-60 0 -60 144v190zM6182 793h32q10 0 10 -39h4q0 39 33 39h23l14 -16l-19 -71l-23 8q-32 0 -32 -200v-47l-10 -16h-32l-9 16v310zM6358 666v-16h74v8
q-9 72 -37 72q-37 -12 -37 -64zM5576 546v-8l14 -24h13q38 0 38 97h-5q-56 0 -60 -65zM2571 308h28l8 -12v-329l-8 -12h-28l-8 12v329zM3502 302l4 -6v-79h20l8 -12v-31l-8 -12h-20v-140l8 -12h24v-43q0 -15 -36 -18q-45 0 -45 128v85q-20 0 -20 12v31q0 12 20 12v36
q5 15 45 49zM3969 296v-79h24l8 -12v-31l-8 -12h-24v-140l8 -12h12l4 6h4l8 -49q-17 -18 -40 -18q-40 0 -40 67v146q-25 0 -25 12v31q0 12 25 12v43q25 36 44 36zM2458 223q59 0 68 -122v-36q-10 -116 -72 -116q-17 0 -44 37v-116l-8 -12h-29l-8 12v335l8 12h29q8 0 8 -31
q20 28 48 37zM2716 223q60 0 80 -110v-36l-8 -12h-104v-7q0 -48 40 -54q12 0 24 36l44 -18q-21 -73 -76 -73q-77 21 -77 116v24q0 128 73 128zM2897 223q69 0 69 -73v-134l8 -55l-4 -6h-33q-6 0 -12 25q-29 -31 -56 -31q-52 16 -52 73q0 85 96 97h4v31q0 12 -28 18
q-18 -10 -28 -37q-36 9 -36 25q0 49 72 67zM3070 223q58 0 73 -67q-11 -14 -40 -18q-8 30 -29 30h-20l-12 -18q0 -15 93 -55q16 -33 16 -60q0 -73 -77 -86q-64 0 -80 79l44 12q6 -24 20 -36h33l12 18v13q0 8 -81 42q-19 22 -24 61q0 85 72 85zM3252 223q69 0 80 -128v-18
l-8 -12h-104q4 -61 40 -61q12 0 24 36l44 -18q-20 -73 -76 -73q-77 21 -77 116v36q13 122 77 122zM3626 223q81 0 81 -140v-6l-8 -12h-105q7 -61 41 -61q12 0 24 36l44 -18q-19 -73 -72 -73q-81 0 -81 134q0 122 76 140zM3804 223q72 -18 72 -67q-10 -14 -40 -18l-20 30h-28
l-12 -18q1 -14 88 -55q16 -26 20 -55q0 -78 -76 -91q-81 14 -81 79l45 12q6 -36 28 -36h24l12 18v18q-105 27 -105 104q11 79 73 79zM2410 95v-12q6 -79 36 -79q36 0 36 73q0 91 -36 91q-31 0 -36 -73zM2684 108h64v11q-2 49 -32 49q-27 0 -32 -60zM3220 113l4 -5h64
q-7 60 -36 60q-22 0 -32 -55zM3598 119v-11h65v5q-7 55 -37 55q-28 -12 -28 -49zM2865 47v-25l12 -18h12q28 0 28 43v30q-52 -16 -52 -30zM4762 306h28l8 -12v-329l-8 -12h-28l-8 12v329zM5693 300l4 -6v-79h20l8 -12v-31l-8 -12h-20v-140l8 -12h24v-43q0 -15 -36 -18
q-45 0 -45 128v85q-20 0 -20 12v31q0 12 20 12v36q5 15 45 49zM6160 294v-79h24l8 -12v-31l-8 -12h-24v-140l8 -12h12l4 6h4l8 -49q-17 -18 -40 -18q-40 0 -40 67v146q-25 0 -25 12v31q0 12 25 12v43q25 36 44 36zM4649 221q59 0 68 -122v-36q-10 -116 -72 -116
q-17 0 -44 37v-116l-8 -12h-29l-8 12v335l8 12h29q8 0 8 -31q20 28 48 37zM4907 221q60 0 80 -110v-36l-8 -12h-104v-7q0 -48 40 -54q12 0 24 36l44 -18q-21 -73 -76 -73q-77 21 -77 116v24q0 128 73 128zM5088 221q69 0 69 -73v-134l8 -55l-4 -6h-33q-6 0 -12 25
q-29 -31 -56 -31q-52 16 -52 73q0 85 96 97h4v31q0 12 -28 18q-18 -10 -28 -37q-36 9 -36 25q0 49 72 67zM5261 221q58 0 73 -67q-11 -14 -40 -18q-8 30 -29 30h-20l-12 -18q0 -15 93 -55q16 -33 16 -60q0 -73 -77 -86q-64 0 -80 79l44 12q6 -24 20 -36h33l12 18v13
q0 8 -81 42q-19 22 -24 61q0 85 72 85zM5443 221q69 0 80 -128v-18l-8 -12h-104q4 -61 40 -61q12 0 24 36l44 -18q-20 -73 -76 -73q-77 21 -77 116v36q13 122 77 122zM5817 221q81 0 81 -140v-6l-8 -12h-105q7 -61 41 -61q12 0 24 36l44 -18q-19 -73 -72 -73q-81 0 -81 134
q0 122 76 140zM5995 221q72 -18 72 -67q-10 -14 -40 -18l-20 30h-28l-12 -18q1 -14 88 -55q16 -26 20 -55q0 -78 -76 -91q-81 14 -81 79l45 12q6 -36 28 -36h24l12 18v18q-105 27 -105 104q11 79 73 79zM4601 93v-12q6 -79 36 -79q36 0 36 73q0 91 -36 91q-31 0 -36 -73z
M4875 106h64v11q-2 49 -32 49q-27 0 -32 -60zM5411 111l4 -5h64q-7 60 -36 60q-22 0 -32 -55zM5789 117v-11h65v5q-7 55 -37 55q-28 -12 -28 -49zM5056 45v-25l12 -18h12q28 0 28 43v30q-52 -16 -52 -30zM1879 1429h14q48 0 48 -142q-7 -117 -57 -117q-46 0 -53 108v59
q7 92 48 92zM2020 1429h22l5 -8h4q-125 -503 -136 -503h-27q79 348 132 511zM1871 1354v-101l13 -25h4q13 6 13 67v25q0 43 -13 50h-9zM2055 1178q53 0 53 -134q-8 -126 -53 -126h-8q-45 0 -53 126q0 134 61 134zM2033 1044q3 -67 14 -67h8q11 0 14 75q-3 67 -14 67h-8
q-11 0 -14 -75z" />
    <glyph glyph-name="numbersign" unicode="#" 
d="M358 1416h2066v-531h-154l-54 -15v-4h208v-172h-2390v172h528v4l-54 15h-339q-95 0 -108 44q-27 26 -27 52v48q0 30 89 152l69 103q65 101 81 108q41 23 85 24zM46 1005q0 -70 81 -104h370q-62 69 -62 152q0 88 81 156q54 27 100 27q43 0 100 -39l35 -40q31 -49 31 -108
q0 -80 -62 -148h131q-65 69 -65 152v8q0 37 31 96q57 79 138 79h27q82 0 135 -107h-77q-41 36 -62 36h-34q-34 0 -81 -60l-8 -40v-24q0 -75 85 -104h50q51 24 66 60v4l-4 -4l-4 4h-4l-4 -4l-4 4h-4l-3 -4l-4 4h-4l-4 -4l-4 4h-11l-4 -4l-4 4h-4l-4 -4l-4 4h-4l-3 -4l-4 4
h-23l-4 -4l-4 4h-4l-4 -4h-4l-4 4v60h209v-4q0 -97 -62 -152v-4h278q-58 73 -58 116v52q0 96 104 152q37 15 73 15q62 0 127 -67q39 -61 39 -100v-32q0 -65 -62 -136h131v8q-8 0 -8 12q-23 4 -50 88l-4 40v16q0 72 81 144q45 27 101 27q83 0 119 -63q12 0 27 -36v-8h-81
q0 22 -65 36h-20q-92 -24 -92 -116q0 -98 104 -116q64 0 96 64h-131v44l-4 4l4 16h208v-20q0 -71 -61 -140h131v8h-8q0 10 -19 28q-35 57 -35 116q0 116 123 176l54 7q51 0 105 -39q2 -16 19 -16q46 -64 46 -132q0 -75 -38 -116l-24 -32h128v499h-2055q-74 0 -120 -80
l-96 -143q-92 -127 -92 -172zM1136 1352h1203v-64h-1060v-359h-65v359h-78v64zM423 1336h97q-82 -112 -124 -183q-7 0 -7 -12q-8 0 -50 -68q-51 -67 -51 -80h51l3 4l4 -4h4l4 4l4 -4h73v-64h-297l66 96l166 231q43 72 57 80zM1140 1236h62v-307h-62v307zM500 1053
q0 -62 62 -108l46 -12q81 0 108 100v24q-17 80 -42 80q0 14 -62 28h-4q-48 0 -92 -56zM1356 1049q0 -83 81 -112l23 -4q93 0 108 120q0 69 -69 104l-35 8q-96 -20 -96 -68q-10 0 -12 -48zM2066 1033q0 -41 57 -88l47 -12q80 7 100 76l8 32v12q-3 36 -27 76q-45 36 -78 36h-3
q-64 0 -104 -84v-48zM655 870v-4h266v4l-58 15h-154zM998 870v-4h416v4l-54 15h-308zM1507 870v-4h266v4l-58 15h-154zM1861 866h262v4l-54 15h-154q-54 -10 -54 -19zM49 846h4l-4 -4v-60l4 -16l-4 -16v-32l8 -8h2352v144h-2352zM223 850h15v-16h-11v-76l19 -4l15 4v76h-7
v16h15q0 -16 8 -16h8v-44q0 -52 -31 -52h-27q-23 14 -23 36v60q19 0 19 8v8zM362 838q35 0 57 -32v-4h-23l-23 16h-15q-31 0 -35 -32q0 -32 43 -32q16 0 38 12v4h-54v16h77q0 -35 -50 -48h-27q-30 3 -50 36v24q30 40 62 40zM547 838q35 0 58 -32v-4h-24l-23 16h-15
q-31 0 -35 -32q0 -32 43 -32q16 0 38 12v4h-54v16h77q0 -35 -50 -48h-27q-30 3 -50 36v24q30 40 62 40zM813 838q31 0 61 -40v-24q-26 -36 -54 -36h-23q-34 0 -50 48q0 41 66 52zM948 838q37 -4 54 -28h3v-8h-23l-23 16h-15q-35 -8 -35 -20v-24q9 -20 39 -20h3l39 12v4h-54
v16h77q-13 -48 -54 -48h-23q-36 0 -54 48q4 20 27 36q0 9 39 16zM1106 838q22 0 34 -32h-27v12h-19v-20q46 -12 46 -24v-4q-4 -32 -30 -32h-12q-18 0 -31 20v8h23q0 -12 8 -12h12l7 8v12q-50 10 -50 32q12 32 39 32zM1487 838q39 -6 39 -16q22 -12 27 -36q-16 -48 -54 -48
h-23q-37 0 -54 48q19 52 65 52zM115 834h73v-16l-50 -64h50v-16h-77v12l46 60v4h-42v20zM446 834h24v-96h-24v96zM678 834h27v-80h38v-16h-65v96zM1029 834h23v-96h-23v96zM1148 834h73v-20h-23v-76h-23v76h-27v20zM1233 834h23v-96h-23v96zM1279 834h23v-96h-23v96z
M1368 834v-4q-10 0 -12 -16l-27 -28l35 -48h-19q-9 2 -39 44v8q8 0 8 12q12 0 27 32h27zM1568 834h8l58 -4l11 -28q0 -15 -23 -28h-31v-36h-23v96zM1649 834h73v-20h-27v-76h-23v76h-23v20zM1730 834h27v-96h-27v96zM1776 834h35q0 -13 27 -68v-4h8l27 64v8h34v-96h-27l4 64
q-9 0 -31 -64h-23l-27 68h-3v-20l3 -48h-27v96zM1927 834h27v-96h-27v96zM1973 834h66v-20h-43v-20h43v-16h-43v-24h43v-16h-66v96zM2062 834h11q73 0 73 -28v-12q-9 -20 -30 -20l30 -36h-30q0 13 -31 40v-40h-23v96zM2162 834h65v-20h-42v-20h42v-16h-42v-24h42v-16h-65v96
zM2251 834h19l54 -60v60h27v-96h-27q0 8 -46 56v4h-4v-60h-23v96zM770 794v-16q14 -24 35 -24h8q38 0 38 32t-34 32h-20q-27 -17 -27 -24zM1449 798v-24q8 -20 38 -20t39 20v24q0 12 -35 20h-8q-34 -8 -34 -20zM1591 814v-24h23l8 8v12l-19 4h-12zM2085 814v-32h15
q20 0 23 12v16l-19 4h-19zM38 646h62l42 -159q9 3 46 159h58q7 0 46 -159h4l43 159h61v-4q-73 -247 -81 -247h-58l-38 155h-8q-33 -155 -42 -155h-54q-9 0 -81 251zM408 646h62l42 -159q9 3 46 159h58q7 0 46 -159h4l43 159h61v-4q-73 -247 -81 -247h-57l-39 155h-8
q-33 -155 -42 -155h-54q-9 0 -81 251zM778 646h62l42 -159q9 3 46 159h58q7 0 46 -159h4l43 159h61v-4q-73 -247 -81 -247h-57l-39 155h-8q-33 -155 -42 -155h-54q-9 0 -81 251zM1175 463h69v-68h-69v68zM300 343h69v-343h-69v343zM990 343h69v-60h-69v60zM1190 339v-88h47
v-52h-47v-139q0 -12 16 -12l27 4v-4l4 -24v-20l-47 -8h-7q-58 0 -58 72l-4 107v24h-31v52h31v44q1 7 69 44zM535 255h4q119 -14 119 -119v-20q0 -89 -92 -116l-27 -4q-123 11 -123 120v20q0 105 119 119zM797 255q27 0 62 -36v32h69v-139q0 -184 -31 -184q-18 -28 -80 -28
q-116 0 -116 88h4q73 0 73 -16q0 -20 27 -20h12q42 0 42 36v52q-33 -40 -69 -40h-4q-89 16 -89 112v31q0 78 66 108zM1379 255h4q120 -14 120 -119v-20q0 -89 -93 -116l-27 -4q-123 11 -123 120v20q0 105 119 119zM1641 255q27 0 62 -36v32h70v-139q0 -184 -31 -184
q-19 -28 -81 -28q-116 0 -116 88h4q73 0 73 -16q0 -20 27 -20h12q42 0 42 36v52q-33 -40 -69 -40h-4q-89 16 -89 112v31q0 78 66 108zM1942 255h4q120 -14 120 -119v-20q0 -89 -93 -116l-27 -4q-123 11 -123 120v20q0 105 119 119zM990 251h69v-251h-69v251zM481 147v-43
q0 -50 62 -56q37 0 50 56v43q0 50 -62 56q-37 0 -50 -56zM763 147v-39q5 -56 46 -56q42 0 50 60v39q-10 52 -46 52h-4q-41 0 -46 -56zM1325 147v-43q0 -50 62 -56q37 0 50 56v43q0 50 -62 56q-36 0 -50 -56zM1607 147v-39q5 -56 46 -56q42 0 50 60v39q-10 52 -46 52h-4
q-41 0 -46 -56zM1888 147v-43q0 -50 62 -56q37 0 50 56v43q0 50 -62 56q-37 0 -50 -56zM1584 -144h4q66 0 92 -56l8 -27h-4l-62 -8q-2 39 -34 39h-8q-32 0 -43 -47v-52q0 -56 51 -56q34 0 38 48l66 -8q0 -56 -62 -84q-15 -8 -42 -8h-4q-112 10 -112 116v28q10 115 112 115z
M1850 -144h3q120 -14 120 -119v-20q0 -89 -93 -116l-27 -4q-123 11 -123 120v20q0 105 120 119zM2162 -144q31 0 62 -40q0 23 69 40q85 0 85 -103v-152h-70v172q0 31 -30 31h-4q-37 0 -43 -55v-148h-69v172q0 31 -31 31h-4q-42 -7 -42 -51v-152h-70v251h70v-28q33 32 77 32z
M1796 -251v-44q0 -50 61 -56q37 0 50 56v44q0 49 -61 55q-37 0 -50 -55zM1352 -331h70v-68h-70v68z" />
    <glyph glyph-name="dollar" unicode="$" horiz-adv-x="935" 
d="M68 1728v-2222h-68v2222h68zM289 1728v-2222h-68v2222h68zM510 1728v-2222h-68v2222h68zM731 1728v-2222h-68v2222h68zM867 1728v-2222h-68v2222h68z" />
    <glyph glyph-name="percent" unicode="%" horiz-adv-x="935" 
d="M68 1728v-2222h-68v2222h68zM204 1728v-2222h-68v2222h68zM425 1728v-2222h-68v2222h68zM646 1728v-2222h-68v2222h68zM867 1728v-2222h-68v2222h68z" />
    <glyph glyph-name="ampersand" unicode="&#x26;" 
d="M358 1416h2066v-531h-154l-54 -15v-4h208v-172h-2390v172h528v4l-54 15h-339q-95 0 -108 44q-27 26 -27 52v48q0 30 89 152l69 103q65 101 81 108q41 23 85 24zM46 1005q0 -70 81 -104h370q-62 69 -62 152q0 88 81 156q54 27 100 27q43 0 100 -39l35 -40q31 -49 31 -108
q0 -80 -62 -148h131q-65 69 -65 152v8q0 37 31 96q57 79 138 79h27q82 0 135 -107h-77q-41 36 -62 36h-34q-34 0 -81 -60l-8 -40v-24q0 -75 85 -104h50q51 24 66 60v4l-4 -4l-4 4h-4l-4 -4l-4 4h-4l-3 -4l-4 4h-4l-4 -4l-4 4h-11l-4 -4l-4 4h-4l-4 -4l-4 4h-4l-3 -4l-4 4
h-23l-4 -4l-4 4h-4l-4 -4h-4l-4 4v60h209v-4q0 -97 -62 -152v-4h278q-58 73 -58 116v52q0 96 104 152q37 15 73 15q62 0 127 -67q39 -61 39 -100v-32q0 -65 -62 -136h131v8q-8 0 -8 12q-23 4 -50 88l-4 40v16q0 72 81 144q45 27 101 27q83 0 119 -63q12 0 27 -36v-8h-81
q0 22 -65 36h-20q-92 -24 -92 -116q0 -98 104 -116q64 0 96 64h-131v44l-4 4l4 16h208v-20q0 -71 -61 -140h131v8h-8q0 10 -19 28q-35 57 -35 116q0 116 123 176l54 7q51 0 105 -39q2 -16 19 -16q46 -64 46 -132q0 -75 -38 -116l-24 -32h128v499h-2055q-74 0 -120 -80
l-96 -143q-92 -127 -92 -172zM1136 1352h1203v-64h-1060v-359h-65v359h-78v64zM423 1336h97q-82 -112 -124 -183q-7 0 -7 -12q-8 0 -50 -68q-51 -67 -51 -80h51l3 4l4 -4h4l4 4l4 -4h73v-64h-297l66 96l166 231q43 72 57 80zM1140 1236h62v-307h-62v307zM500 1053
q0 -62 62 -108l46 -12q81 0 108 100v24q-17 80 -42 80q0 14 -62 28h-4q-48 0 -92 -56zM1356 1049q0 -83 81 -112l23 -4q93 0 108 120q0 69 -69 104l-35 8q-96 -20 -96 -68q-10 0 -12 -48zM2066 1033q0 -41 57 -88l47 -12q80 7 100 76l8 32v12q-3 36 -27 76q-45 36 -78 36h-3
q-64 0 -104 -84v-48zM655 870v-4h266v4l-58 15h-154zM998 870v-4h416v4l-54 15h-308zM1507 870v-4h266v4l-58 15h-154zM1861 866h262v4l-54 15h-154q-54 -10 -54 -19zM49 846h4l-4 -4v-60l4 -16l-4 -16v-32l8 -8h2352v144h-2352zM223 850h15v-16h-11v-76l19 -4l15 4v76h-7
v16h15q0 -16 8 -16h8v-44q0 -52 -31 -52h-27q-23 14 -23 36v60q19 0 19 8v8zM362 838q35 0 57 -32v-4h-23l-23 16h-15q-31 0 -35 -32q0 -32 43 -32q16 0 38 12v4h-54v16h77q0 -35 -50 -48h-27q-30 3 -50 36v24q30 40 62 40zM547 838q35 0 58 -32v-4h-24l-23 16h-15
q-31 0 -35 -32q0 -32 43 -32q16 0 38 12v4h-54v16h77q0 -35 -50 -48h-27q-30 3 -50 36v24q30 40 62 40zM813 838q31 0 61 -40v-24q-26 -36 -54 -36h-23q-34 0 -50 48q0 41 66 52zM948 838q37 -4 54 -28h3v-8h-23l-23 16h-15q-35 -8 -35 -20v-24q9 -20 39 -20h3l39 12v4h-54
v16h77q-13 -48 -54 -48h-23q-36 0 -54 48q4 20 27 36q0 9 39 16zM1106 838q22 0 34 -32h-27v12h-19v-20q46 -12 46 -24v-4q-4 -32 -30 -32h-12q-18 0 -31 20v8h23q0 -12 8 -12h12l7 8v12q-50 10 -50 32q12 32 39 32zM1487 838q39 -6 39 -16q22 -12 27 -36q-16 -48 -54 -48
h-23q-37 0 -54 48q19 52 65 52zM115 834h73v-16l-50 -64h50v-16h-77v12l46 60v4h-42v20zM446 834h24v-96h-24v96zM678 834h27v-80h38v-16h-65v96zM1029 834h23v-96h-23v96zM1148 834h73v-20h-23v-76h-23v76h-27v20zM1233 834h23v-96h-23v96zM1279 834h23v-96h-23v96z
M1368 834v-4q-10 0 -12 -16l-27 -28l35 -48h-19q-9 2 -39 44v8q8 0 8 12q12 0 27 32h27zM1568 834h8l58 -4l11 -28q0 -15 -23 -28h-31v-36h-23v96zM1649 834h73v-20h-27v-76h-23v76h-23v20zM1730 834h27v-96h-27v96zM1776 834h35q0 -13 27 -68v-4h8l27 64v8h34v-96h-27l4 64
q-9 0 -31 -64h-23l-27 68h-3v-20l3 -48h-27v96zM1927 834h27v-96h-27v96zM1973 834h66v-20h-43v-20h43v-16h-43v-24h43v-16h-66v96zM2062 834h11q73 0 73 -28v-12q-9 -20 -30 -20l30 -36h-30q0 13 -31 40v-40h-23v96zM2162 834h65v-20h-42v-20h42v-16h-42v-24h42v-16h-65v96
zM2251 834h19l54 -60v60h27v-96h-27q0 8 -46 56v4h-4v-60h-23v96zM770 794v-16q14 -24 35 -24h8q38 0 38 32t-34 32h-20q-27 -17 -27 -24zM1449 798v-24q8 -20 38 -20t39 20v24q0 12 -35 20h-8q-34 -8 -34 -20zM1591 814v-24h23l8 8v12l-19 4h-12zM2085 814v-32h15
q20 0 23 12v16l-19 4h-19zM38 646h62l42 -159q9 3 46 159h58q7 0 46 -159h4l43 159h61v-4q-73 -247 -81 -247h-58l-38 155h-8q-33 -155 -42 -155h-54q-9 0 -81 251zM408 646h62l42 -159q9 3 46 159h58q7 0 46 -159h4l43 159h61v-4q-73 -247 -81 -247h-57l-39 155h-8
q-33 -155 -42 -155h-54q-9 0 -81 251zM778 646h62l42 -159q9 3 46 159h58q7 0 46 -159h4l43 159h61v-4q-73 -247 -81 -247h-57l-39 155h-8q-33 -155 -42 -155h-54q-9 0 -81 251zM1175 463h69v-68h-69v68zM300 343h69v-343h-69v343zM990 343h69v-60h-69v60zM1190 339v-88h47
v-52h-47v-139q0 -12 16 -12l27 4v-4l4 -24v-20l-47 -8h-7q-58 0 -58 72l-4 107v24h-31v52h31v44q1 7 69 44zM535 255h4q119 -14 119 -119v-20q0 -89 -92 -116l-27 -4q-123 11 -123 120v20q0 105 119 119zM797 255q27 0 62 -36v32h69v-139q0 -184 -31 -184q-18 -28 -80 -28
q-116 0 -116 88h4q73 0 73 -16q0 -20 27 -20h12q42 0 42 36v52q-33 -40 -69 -40h-4q-89 16 -89 112v31q0 78 66 108zM1379 255h4q120 -14 120 -119v-20q0 -89 -93 -116l-27 -4q-123 11 -123 120v20q0 105 119 119zM1641 255q27 0 62 -36v32h70v-139q0 -184 -31 -184
q-19 -28 -81 -28q-116 0 -116 88h4q73 0 73 -16q0 -20 27 -20h12q42 0 42 36v52q-33 -40 -69 -40h-4q-89 16 -89 112v31q0 78 66 108zM1942 255h4q120 -14 120 -119v-20q0 -89 -93 -116l-27 -4q-123 11 -123 120v20q0 105 119 119zM990 251h69v-251h-69v251zM481 147v-43
q0 -50 62 -56q37 0 50 56v43q0 50 -62 56q-37 0 -50 -56zM763 147v-39q5 -56 46 -56q42 0 50 60v39q-10 52 -46 52h-4q-41 0 -46 -56zM1325 147v-43q0 -50 62 -56q37 0 50 56v43q0 50 -62 56q-36 0 -50 -56zM1607 147v-39q5 -56 46 -56q42 0 50 60v39q-10 52 -46 52h-4
q-41 0 -46 -56zM1888 147v-43q0 -50 62 -56q37 0 50 56v43q0 50 -62 56q-37 0 -50 -56zM1584 -144h4q66 0 92 -56l8 -27h-4l-62 -8q-2 39 -34 39h-8q-32 0 -43 -47v-52q0 -56 51 -56q34 0 38 48l66 -8q0 -56 -62 -84q-15 -8 -42 -8h-4q-112 10 -112 116v28q10 115 112 115z
M1850 -144h3q120 -14 120 -119v-20q0 -89 -93 -116l-27 -4q-123 11 -123 120v20q0 105 120 119zM2162 -144q31 0 62 -40q0 23 69 40q85 0 85 -103v-152h-70v172q0 31 -30 31h-4q-37 0 -43 -55v-148h-69v172q0 31 -31 31h-4q-42 -7 -42 -51v-152h-70v251h70v-28q33 32 77 32z
M1796 -251v-44q0 -50 61 -56q37 0 50 56v44q0 49 -61 55q-37 0 -50 -55zM1352 -331h70v-68h-70v68z" />
    <glyph glyph-name="quotesingle" unicode="'" 
d="M358 1416h2066v-531h-154l-54 -15v-4h208v-172h-2390v172h528v4l-54 15h-339q-95 0 -108 44q-27 26 -27 52v48q0 30 89 152l69 103q65 101 81 108q41 23 85 24zM46 1005q0 -70 81 -104h370q-62 69 -62 152q0 88 81 156q54 27 100 27q43 0 100 -39l35 -40q31 -49 31 -108
q0 -80 -62 -148h131q-65 69 -65 152v8q0 37 31 96q57 79 138 79h27q82 0 135 -107h-77q-41 36 -62 36h-34q-34 0 -81 -60l-8 -40v-24q0 -75 85 -104h50q51 24 66 60v4l-4 -4l-4 4h-4l-4 -4l-4 4h-4l-3 -4l-4 4h-4l-4 -4l-4 4h-11l-4 -4l-4 4h-4l-4 -4l-4 4h-4l-3 -4l-4 4
h-23l-4 -4l-4 4h-4l-4 -4h-4l-4 4v60h209v-4q0 -97 -62 -152v-4h278q-58 73 -58 116v52q0 96 104 152q37 15 73 15q62 0 127 -67q39 -61 39 -100v-32q0 -65 -62 -136h131v8q-8 0 -8 12q-23 4 -50 88l-4 40v16q0 72 81 144q45 27 101 27q83 0 119 -63q12 0 27 -36v-8h-81
q0 22 -65 36h-20q-92 -24 -92 -116q0 -98 104 -116q64 0 96 64h-131v44l-4 4l4 16h208v-20q0 -71 -61 -140h131v8h-8q0 10 -19 28q-35 57 -35 116q0 116 123 176l54 7q51 0 105 -39q2 -16 19 -16q46 -64 46 -132q0 -75 -38 -116l-24 -32h128v499h-2055q-74 0 -120 -80
l-96 -143q-92 -127 -92 -172zM1136 1352h1203v-64h-1060v-359h-65v359h-78v64zM423 1336h97q-82 -112 -124 -183q-7 0 -7 -12q-8 0 -50 -68q-51 -67 -51 -80h51l3 4l4 -4h4l4 4l4 -4h73v-64h-297l66 96l166 231q43 72 57 80zM1140 1236h62v-307h-62v307zM500 1053
q0 -62 62 -108l46 -12q81 0 108 100v24q-17 80 -42 80q0 14 -62 28h-4q-48 0 -92 -56zM1356 1049q0 -83 81 -112l23 -4q93 0 108 120q0 69 -69 104l-35 8q-96 -20 -96 -68q-10 0 -12 -48zM2066 1033q0 -41 57 -88l47 -12q80 7 100 76l8 32v12q-3 36 -27 76q-45 36 -78 36h-3
q-64 0 -104 -84v-48zM655 870v-4h266v4l-58 15h-154zM998 870v-4h416v4l-54 15h-308zM1507 870v-4h266v4l-58 15h-154zM1861 866h262v4l-54 15h-154q-54 -10 -54 -19zM49 846h4l-4 -4v-60l4 -16l-4 -16v-32l8 -8h2352v144h-2352zM223 850h15v-16h-11v-76l19 -4l15 4v76h-7
v16h15q0 -16 8 -16h8v-44q0 -52 -31 -52h-27q-23 14 -23 36v60q19 0 19 8v8zM362 838q35 0 57 -32v-4h-23l-23 16h-15q-31 0 -35 -32q0 -32 43 -32q16 0 38 12v4h-54v16h77q0 -35 -50 -48h-27q-30 3 -50 36v24q30 40 62 40zM547 838q35 0 58 -32v-4h-24l-23 16h-15
q-31 0 -35 -32q0 -32 43 -32q16 0 38 12v4h-54v16h77q0 -35 -50 -48h-27q-30 3 -50 36v24q30 40 62 40zM813 838q31 0 61 -40v-24q-26 -36 -54 -36h-23q-34 0 -50 48q0 41 66 52zM948 838q37 -4 54 -28h3v-8h-23l-23 16h-15q-35 -8 -35 -20v-24q9 -20 39 -20h3l39 12v4h-54
v16h77q-13 -48 -54 -48h-23q-36 0 -54 48q4 20 27 36q0 9 39 16zM1106 838q22 0 34 -32h-27v12h-19v-20q46 -12 46 -24v-4q-4 -32 -30 -32h-12q-18 0 -31 20v8h23q0 -12 8 -12h12l7 8v12q-50 10 -50 32q12 32 39 32zM1487 838q39 -6 39 -16q22 -12 27 -36q-16 -48 -54 -48
h-23q-37 0 -54 48q19 52 65 52zM115 834h73v-16l-50 -64h50v-16h-77v12l46 60v4h-42v20zM446 834h24v-96h-24v96zM678 834h27v-80h38v-16h-65v96zM1029 834h23v-96h-23v96zM1148 834h73v-20h-23v-76h-23v76h-27v20zM1233 834h23v-96h-23v96zM1279 834h23v-96h-23v96z
M1368 834v-4q-10 0 -12 -16l-27 -28l35 -48h-19q-9 2 -39 44v8q8 0 8 12q12 0 27 32h27zM1568 834h8l58 -4l11 -28q0 -15 -23 -28h-31v-36h-23v96zM1649 834h73v-20h-27v-76h-23v76h-23v20zM1730 834h27v-96h-27v96zM1776 834h35q0 -13 27 -68v-4h8l27 64v8h34v-96h-27l4 64
q-9 0 -31 -64h-23l-27 68h-3v-20l3 -48h-27v96zM1927 834h27v-96h-27v96zM1973 834h66v-20h-43v-20h43v-16h-43v-24h43v-16h-66v96zM2062 834h11q73 0 73 -28v-12q-9 -20 -30 -20l30 -36h-30q0 13 -31 40v-40h-23v96zM2162 834h65v-20h-42v-20h42v-16h-42v-24h42v-16h-65v96
zM2251 834h19l54 -60v60h27v-96h-27q0 8 -46 56v4h-4v-60h-23v96zM770 794v-16q14 -24 35 -24h8q38 0 38 32t-34 32h-20q-27 -17 -27 -24zM1449 798v-24q8 -20 38 -20t39 20v24q0 12 -35 20h-8q-34 -8 -34 -20zM1591 814v-24h23l8 8v12l-19 4h-12zM2085 814v-32h15
q20 0 23 12v16l-19 4h-19zM38 646h62l42 -159q9 3 46 159h58q7 0 46 -159h4l43 159h61v-4q-73 -247 -81 -247h-58l-38 155h-8q-33 -155 -42 -155h-54q-9 0 -81 251zM408 646h62l42 -159q9 3 46 159h58q7 0 46 -159h4l43 159h61v-4q-73 -247 -81 -247h-57l-39 155h-8
q-33 -155 -42 -155h-54q-9 0 -81 251zM778 646h62l42 -159q9 3 46 159h58q7 0 46 -159h4l43 159h61v-4q-73 -247 -81 -247h-57l-39 155h-8q-33 -155 -42 -155h-54q-9 0 -81 251zM1175 463h69v-68h-69v68zM300 343h69v-343h-69v343zM990 343h69v-60h-69v60zM1190 339v-88h47
v-52h-47v-139q0 -12 16 -12l27 4v-4l4 -24v-20l-47 -8h-7q-58 0 -58 72l-4 107v24h-31v52h31v44q1 7 69 44zM535 255h4q119 -14 119 -119v-20q0 -89 -92 -116l-27 -4q-123 11 -123 120v20q0 105 119 119zM797 255q27 0 62 -36v32h69v-139q0 -184 -31 -184q-18 -28 -80 -28
q-116 0 -116 88h4q73 0 73 -16q0 -20 27 -20h12q42 0 42 36v52q-33 -40 -69 -40h-4q-89 16 -89 112v31q0 78 66 108zM1379 255h4q120 -14 120 -119v-20q0 -89 -93 -116l-27 -4q-123 11 -123 120v20q0 105 119 119zM1641 255q27 0 62 -36v32h70v-139q0 -184 -31 -184
q-19 -28 -81 -28q-116 0 -116 88h4q73 0 73 -16q0 -20 27 -20h12q42 0 42 36v52q-33 -40 -69 -40h-4q-89 16 -89 112v31q0 78 66 108zM1942 255h4q120 -14 120 -119v-20q0 -89 -93 -116l-27 -4q-123 11 -123 120v20q0 105 119 119zM990 251h69v-251h-69v251zM481 147v-43
q0 -50 62 -56q37 0 50 56v43q0 50 -62 56q-37 0 -50 -56zM763 147v-39q5 -56 46 -56q42 0 50 60v39q-10 52 -46 52h-4q-41 0 -46 -56zM1325 147v-43q0 -50 62 -56q37 0 50 56v43q0 50 -62 56q-36 0 -50 -56zM1607 147v-39q5 -56 46 -56q42 0 50 60v39q-10 52 -46 52h-4
q-41 0 -46 -56zM1888 147v-43q0 -50 62 -56q37 0 50 56v43q0 50 -62 56q-37 0 -50 -56zM1584 -144h4q66 0 92 -56l8 -27h-4l-62 -8q-2 39 -34 39h-8q-32 0 -43 -47v-52q0 -56 51 -56q34 0 38 48l66 -8q0 -56 -62 -84q-15 -8 -42 -8h-4q-112 10 -112 116v28q10 115 112 115z
M1850 -144h3q120 -14 120 -119v-20q0 -89 -93 -116l-27 -4q-123 11 -123 120v20q0 105 120 119zM2162 -144q31 0 62 -40q0 23 69 40q85 0 85 -103v-152h-70v172q0 31 -30 31h-4q-37 0 -43 -55v-148h-69v172q0 31 -31 31h-4q-42 -7 -42 -51v-152h-70v251h70v-28q33 32 77 32z
M1796 -251v-44q0 -50 61 -56q37 0 50 56v44q0 49 -61 55q-37 0 -50 -55zM1352 -331h70v-68h-70v68z" />
    <glyph glyph-name="parenleft" unicode="(" 
d="M358 1416h2066v-531h-154l-54 -15v-4h208v-172h-2390v172h528v4l-54 15h-339q-95 0 -108 44q-27 26 -27 52v48q0 30 89 152l69 103q65 101 81 108q41 23 85 24zM46 1005q0 -70 81 -104h370q-62 69 -62 152q0 88 81 156q54 27 100 27q43 0 100 -39l35 -40q31 -49 31 -108
q0 -80 -62 -148h131q-65 69 -65 152v8q0 37 31 96q57 79 138 79h27q82 0 135 -107h-77q-41 36 -62 36h-34q-34 0 -81 -60l-8 -40v-24q0 -75 85 -104h50q51 24 66 60v4l-4 -4l-4 4h-4l-4 -4l-4 4h-4l-3 -4l-4 4h-4l-4 -4l-4 4h-11l-4 -4l-4 4h-4l-4 -4l-4 4h-4l-3 -4l-4 4
h-23l-4 -4l-4 4h-4l-4 -4h-4l-4 4v60h209v-4q0 -97 -62 -152v-4h278q-58 73 -58 116v52q0 96 104 152q37 15 73 15q62 0 127 -67q39 -61 39 -100v-32q0 -65 -62 -136h131v8q-8 0 -8 12q-23 4 -50 88l-4 40v16q0 72 81 144q45 27 101 27q83 0 119 -63q12 0 27 -36v-8h-81
q0 22 -65 36h-20q-92 -24 -92 -116q0 -98 104 -116q64 0 96 64h-131v44l-4 4l4 16h208v-20q0 -71 -61 -140h131v8h-8q0 10 -19 28q-35 57 -35 116q0 116 123 176l54 7q51 0 105 -39q2 -16 19 -16q46 -64 46 -132q0 -75 -38 -116l-24 -32h128v499h-2055q-74 0 -120 -80
l-96 -143q-92 -127 -92 -172zM1136 1352h1203v-64h-1060v-359h-65v359h-78v64zM423 1336h97q-82 -112 -124 -183q-7 0 -7 -12q-8 0 -50 -68q-51 -67 -51 -80h51l3 4l4 -4h4l4 4l4 -4h73v-64h-297l66 96l166 231q43 72 57 80zM1140 1236h62v-307h-62v307zM500 1053
q0 -62 62 -108l46 -12q81 0 108 100v24q-17 80 -42 80q0 14 -62 28h-4q-48 0 -92 -56zM1356 1049q0 -83 81 -112l23 -4q93 0 108 120q0 69 -69 104l-35 8q-96 -20 -96 -68q-10 0 -12 -48zM2066 1033q0 -41 57 -88l47 -12q80 7 100 76l8 32v12q-3 36 -27 76q-45 36 -78 36h-3
q-64 0 -104 -84v-48zM655 870v-4h266v4l-58 15h-154zM998 870v-4h416v4l-54 15h-308zM1507 870v-4h266v4l-58 15h-154zM1861 866h262v4l-54 15h-154q-54 -10 -54 -19zM49 846h4l-4 -4v-60l4 -16l-4 -16v-32l8 -8h2352v144h-2352zM223 850h15v-16h-11v-76l19 -4l15 4v76h-7
v16h15q0 -16 8 -16h8v-44q0 -52 -31 -52h-27q-23 14 -23 36v60q19 0 19 8v8zM362 838q35 0 57 -32v-4h-23l-23 16h-15q-31 0 -35 -32q0 -32 43 -32q16 0 38 12v4h-54v16h77q0 -35 -50 -48h-27q-30 3 -50 36v24q30 40 62 40zM547 838q35 0 58 -32v-4h-24l-23 16h-15
q-31 0 -35 -32q0 -32 43 -32q16 0 38 12v4h-54v16h77q0 -35 -50 -48h-27q-30 3 -50 36v24q30 40 62 40zM813 838q31 0 61 -40v-24q-26 -36 -54 -36h-23q-34 0 -50 48q0 41 66 52zM948 838q37 -4 54 -28h3v-8h-23l-23 16h-15q-35 -8 -35 -20v-24q9 -20 39 -20h3l39 12v4h-54
v16h77q-13 -48 -54 -48h-23q-36 0 -54 48q4 20 27 36q0 9 39 16zM1106 838q22 0 34 -32h-27v12h-19v-20q46 -12 46 -24v-4q-4 -32 -30 -32h-12q-18 0 -31 20v8h23q0 -12 8 -12h12l7 8v12q-50 10 -50 32q12 32 39 32zM1487 838q39 -6 39 -16q22 -12 27 -36q-16 -48 -54 -48
h-23q-37 0 -54 48q19 52 65 52zM115 834h73v-16l-50 -64h50v-16h-77v12l46 60v4h-42v20zM446 834h24v-96h-24v96zM678 834h27v-80h38v-16h-65v96zM1029 834h23v-96h-23v96zM1148 834h73v-20h-23v-76h-23v76h-27v20zM1233 834h23v-96h-23v96zM1279 834h23v-96h-23v96z
M1368 834v-4q-10 0 -12 -16l-27 -28l35 -48h-19q-9 2 -39 44v8q8 0 8 12q12 0 27 32h27zM1568 834h8l58 -4l11 -28q0 -15 -23 -28h-31v-36h-23v96zM1649 834h73v-20h-27v-76h-23v76h-23v20zM1730 834h27v-96h-27v96zM1776 834h35q0 -13 27 -68v-4h8l27 64v8h34v-96h-27l4 64
q-9 0 -31 -64h-23l-27 68h-3v-20l3 -48h-27v96zM1927 834h27v-96h-27v96zM1973 834h66v-20h-43v-20h43v-16h-43v-24h43v-16h-66v96zM2062 834h11q73 0 73 -28v-12q-9 -20 -30 -20l30 -36h-30q0 13 -31 40v-40h-23v96zM2162 834h65v-20h-42v-20h42v-16h-42v-24h42v-16h-65v96
zM2251 834h19l54 -60v60h27v-96h-27q0 8 -46 56v4h-4v-60h-23v96zM770 794v-16q14 -24 35 -24h8q38 0 38 32t-34 32h-20q-27 -17 -27 -24zM1449 798v-24q8 -20 38 -20t39 20v24q0 12 -35 20h-8q-34 -8 -34 -20zM1591 814v-24h23l8 8v12l-19 4h-12zM2085 814v-32h15
q20 0 23 12v16l-19 4h-19zM38 646h62l42 -159q9 3 46 159h58q7 0 46 -159h4l43 159h61v-4q-73 -247 -81 -247h-58l-38 155h-8q-33 -155 -42 -155h-54q-9 0 -81 251zM408 646h62l42 -159q9 3 46 159h58q7 0 46 -159h4l43 159h61v-4q-73 -247 -81 -247h-57l-39 155h-8
q-33 -155 -42 -155h-54q-9 0 -81 251zM778 646h62l42 -159q9 3 46 159h58q7 0 46 -159h4l43 159h61v-4q-73 -247 -81 -247h-57l-39 155h-8q-33 -155 -42 -155h-54q-9 0 -81 251zM1175 463h69v-68h-69v68zM300 343h69v-343h-69v343zM990 343h69v-60h-69v60zM1190 339v-88h47
v-52h-47v-139q0 -12 16 -12l27 4v-4l4 -24v-20l-47 -8h-7q-58 0 -58 72l-4 107v24h-31v52h31v44q1 7 69 44zM535 255h4q119 -14 119 -119v-20q0 -89 -92 -116l-27 -4q-123 11 -123 120v20q0 105 119 119zM797 255q27 0 62 -36v32h69v-139q0 -184 -31 -184q-18 -28 -80 -28
q-116 0 -116 88h4q73 0 73 -16q0 -20 27 -20h12q42 0 42 36v52q-33 -40 -69 -40h-4q-89 16 -89 112v31q0 78 66 108zM1379 255h4q120 -14 120 -119v-20q0 -89 -93 -116l-27 -4q-123 11 -123 120v20q0 105 119 119zM1641 255q27 0 62 -36v32h70v-139q0 -184 -31 -184
q-19 -28 -81 -28q-116 0 -116 88h4q73 0 73 -16q0 -20 27 -20h12q42 0 42 36v52q-33 -40 -69 -40h-4q-89 16 -89 112v31q0 78 66 108zM1942 255h4q120 -14 120 -119v-20q0 -89 -93 -116l-27 -4q-123 11 -123 120v20q0 105 119 119zM990 251h69v-251h-69v251zM481 147v-43
q0 -50 62 -56q37 0 50 56v43q0 50 -62 56q-37 0 -50 -56zM763 147v-39q5 -56 46 -56q42 0 50 60v39q-10 52 -46 52h-4q-41 0 -46 -56zM1325 147v-43q0 -50 62 -56q37 0 50 56v43q0 50 -62 56q-36 0 -50 -56zM1607 147v-39q5 -56 46 -56q42 0 50 60v39q-10 52 -46 52h-4
q-41 0 -46 -56zM1888 147v-43q0 -50 62 -56q37 0 50 56v43q0 50 -62 56q-37 0 -50 -56zM1584 -144h4q66 0 92 -56l8 -27h-4l-62 -8q-2 39 -34 39h-8q-32 0 -43 -47v-52q0 -56 51 -56q34 0 38 48l66 -8q0 -56 -62 -84q-15 -8 -42 -8h-4q-112 10 -112 116v28q10 115 112 115z
M1850 -144h3q120 -14 120 -119v-20q0 -89 -93 -116l-27 -4q-123 11 -123 120v20q0 105 120 119zM2162 -144q31 0 62 -40q0 23 69 40q85 0 85 -103v-152h-70v172q0 31 -30 31h-4q-37 0 -43 -55v-148h-69v172q0 31 -31 31h-4q-42 -7 -42 -51v-152h-70v251h70v-28q33 32 77 32z
M1796 -251v-44q0 -50 61 -56q37 0 50 56v44q0 49 -61 55q-37 0 -50 -55zM1352 -331h70v-68h-70v68z" />
    <glyph glyph-name="parenright" unicode=")" 
d="M358 1416h2066v-531h-154l-54 -15v-4h208v-172h-2390v172h528v4l-54 15h-339q-95 0 -108 44q-27 26 -27 52v48q0 30 89 152l69 103q65 101 81 108q41 23 85 24zM46 1005q0 -70 81 -104h370q-62 69 -62 152q0 88 81 156q54 27 100 27q43 0 100 -39l35 -40q31 -49 31 -108
q0 -80 -62 -148h131q-65 69 -65 152v8q0 37 31 96q57 79 138 79h27q82 0 135 -107h-77q-41 36 -62 36h-34q-34 0 -81 -60l-8 -40v-24q0 -75 85 -104h50q51 24 66 60v4l-4 -4l-4 4h-4l-4 -4l-4 4h-4l-3 -4l-4 4h-4l-4 -4l-4 4h-11l-4 -4l-4 4h-4l-4 -4l-4 4h-4l-3 -4l-4 4
h-23l-4 -4l-4 4h-4l-4 -4h-4l-4 4v60h209v-4q0 -97 -62 -152v-4h278q-58 73 -58 116v52q0 96 104 152q37 15 73 15q62 0 127 -67q39 -61 39 -100v-32q0 -65 -62 -136h131v8q-8 0 -8 12q-23 4 -50 88l-4 40v16q0 72 81 144q45 27 101 27q83 0 119 -63q12 0 27 -36v-8h-81
q0 22 -65 36h-20q-92 -24 -92 -116q0 -98 104 -116q64 0 96 64h-131v44l-4 4l4 16h208v-20q0 -71 -61 -140h131v8h-8q0 10 -19 28q-35 57 -35 116q0 116 123 176l54 7q51 0 105 -39q2 -16 19 -16q46 -64 46 -132q0 -75 -38 -116l-24 -32h128v499h-2055q-74 0 -120 -80
l-96 -143q-92 -127 -92 -172zM1136 1352h1203v-64h-1060v-359h-65v359h-78v64zM423 1336h97q-82 -112 -124 -183q-7 0 -7 -12q-8 0 -50 -68q-51 -67 -51 -80h51l3 4l4 -4h4l4 4l4 -4h73v-64h-297l66 96l166 231q43 72 57 80zM1140 1236h62v-307h-62v307zM500 1053
q0 -62 62 -108l46 -12q81 0 108 100v24q-17 80 -42 80q0 14 -62 28h-4q-48 0 -92 -56zM1356 1049q0 -83 81 -112l23 -4q93 0 108 120q0 69 -69 104l-35 8q-96 -20 -96 -68q-10 0 -12 -48zM2066 1033q0 -41 57 -88l47 -12q80 7 100 76l8 32v12q-3 36 -27 76q-45 36 -78 36h-3
q-64 0 -104 -84v-48zM655 870v-4h266v4l-58 15h-154zM998 870v-4h416v4l-54 15h-308zM1507 870v-4h266v4l-58 15h-154zM1861 866h262v4l-54 15h-154q-54 -10 -54 -19zM49 846h4l-4 -4v-60l4 -16l-4 -16v-32l8 -8h2352v144h-2352zM223 850h15v-16h-11v-76l19 -4l15 4v76h-7
v16h15q0 -16 8 -16h8v-44q0 -52 -31 -52h-27q-23 14 -23 36v60q19 0 19 8v8zM362 838q35 0 57 -32v-4h-23l-23 16h-15q-31 0 -35 -32q0 -32 43 -32q16 0 38 12v4h-54v16h77q0 -35 -50 -48h-27q-30 3 -50 36v24q30 40 62 40zM547 838q35 0 58 -32v-4h-24l-23 16h-15
q-31 0 -35 -32q0 -32 43 -32q16 0 38 12v4h-54v16h77q0 -35 -50 -48h-27q-30 3 -50 36v24q30 40 62 40zM813 838q31 0 61 -40v-24q-26 -36 -54 -36h-23q-34 0 -50 48q0 41 66 52zM948 838q37 -4 54 -28h3v-8h-23l-23 16h-15q-35 -8 -35 -20v-24q9 -20 39 -20h3l39 12v4h-54
v16h77q-13 -48 -54 -48h-23q-36 0 -54 48q4 20 27 36q0 9 39 16zM1106 838q22 0 34 -32h-27v12h-19v-20q46 -12 46 -24v-4q-4 -32 -30 -32h-12q-18 0 -31 20v8h23q0 -12 8 -12h12l7 8v12q-50 10 -50 32q12 32 39 32zM1487 838q39 -6 39 -16q22 -12 27 -36q-16 -48 -54 -48
h-23q-37 0 -54 48q19 52 65 52zM115 834h73v-16l-50 -64h50v-16h-77v12l46 60v4h-42v20zM446 834h24v-96h-24v96zM678 834h27v-80h38v-16h-65v96zM1029 834h23v-96h-23v96zM1148 834h73v-20h-23v-76h-23v76h-27v20zM1233 834h23v-96h-23v96zM1279 834h23v-96h-23v96z
M1368 834v-4q-10 0 -12 -16l-27 -28l35 -48h-19q-9 2 -39 44v8q8 0 8 12q12 0 27 32h27zM1568 834h8l58 -4l11 -28q0 -15 -23 -28h-31v-36h-23v96zM1649 834h73v-20h-27v-76h-23v76h-23v20zM1730 834h27v-96h-27v96zM1776 834h35q0 -13 27 -68v-4h8l27 64v8h34v-96h-27l4 64
q-9 0 -31 -64h-23l-27 68h-3v-20l3 -48h-27v96zM1927 834h27v-96h-27v96zM1973 834h66v-20h-43v-20h43v-16h-43v-24h43v-16h-66v96zM2062 834h11q73 0 73 -28v-12q-9 -20 -30 -20l30 -36h-30q0 13 -31 40v-40h-23v96zM2162 834h65v-20h-42v-20h42v-16h-42v-24h42v-16h-65v96
zM2251 834h19l54 -60v60h27v-96h-27q0 8 -46 56v4h-4v-60h-23v96zM770 794v-16q14 -24 35 -24h8q38 0 38 32t-34 32h-20q-27 -17 -27 -24zM1449 798v-24q8 -20 38 -20t39 20v24q0 12 -35 20h-8q-34 -8 -34 -20zM1591 814v-24h23l8 8v12l-19 4h-12zM2085 814v-32h15
q20 0 23 12v16l-19 4h-19zM38 646h62l42 -159q9 3 46 159h58q7 0 46 -159h4l43 159h61v-4q-73 -247 -81 -247h-58l-38 155h-8q-33 -155 -42 -155h-54q-9 0 -81 251zM408 646h62l42 -159q9 3 46 159h58q7 0 46 -159h4l43 159h61v-4q-73 -247 -81 -247h-57l-39 155h-8
q-33 -155 -42 -155h-54q-9 0 -81 251zM778 646h62l42 -159q9 3 46 159h58q7 0 46 -159h4l43 159h61v-4q-73 -247 -81 -247h-57l-39 155h-8q-33 -155 -42 -155h-54q-9 0 -81 251zM1175 463h69v-68h-69v68zM300 343h69v-343h-69v343zM990 343h69v-60h-69v60zM1190 339v-88h47
v-52h-47v-139q0 -12 16 -12l27 4v-4l4 -24v-20l-47 -8h-7q-58 0 -58 72l-4 107v24h-31v52h31v44q1 7 69 44zM535 255h4q119 -14 119 -119v-20q0 -89 -92 -116l-27 -4q-123 11 -123 120v20q0 105 119 119zM797 255q27 0 62 -36v32h69v-139q0 -184 -31 -184q-18 -28 -80 -28
q-116 0 -116 88h4q73 0 73 -16q0 -20 27 -20h12q42 0 42 36v52q-33 -40 -69 -40h-4q-89 16 -89 112v31q0 78 66 108zM1379 255h4q120 -14 120 -119v-20q0 -89 -93 -116l-27 -4q-123 11 -123 120v20q0 105 119 119zM1641 255q27 0 62 -36v32h70v-139q0 -184 -31 -184
q-19 -28 -81 -28q-116 0 -116 88h4q73 0 73 -16q0 -20 27 -20h12q42 0 42 36v52q-33 -40 -69 -40h-4q-89 16 -89 112v31q0 78 66 108zM1942 255h4q120 -14 120 -119v-20q0 -89 -93 -116l-27 -4q-123 11 -123 120v20q0 105 119 119zM990 251h69v-251h-69v251zM481 147v-43
q0 -50 62 -56q37 0 50 56v43q0 50 -62 56q-37 0 -50 -56zM763 147v-39q5 -56 46 -56q42 0 50 60v39q-10 52 -46 52h-4q-41 0 -46 -56zM1325 147v-43q0 -50 62 -56q37 0 50 56v43q0 50 -62 56q-36 0 -50 -56zM1607 147v-39q5 -56 46 -56q42 0 50 60v39q-10 52 -46 52h-4
q-41 0 -46 -56zM1888 147v-43q0 -50 62 -56q37 0 50 56v43q0 50 -62 56q-37 0 -50 -56zM1584 -144h4q66 0 92 -56l8 -27h-4l-62 -8q-2 39 -34 39h-8q-32 0 -43 -47v-52q0 -56 51 -56q34 0 38 48l66 -8q0 -56 -62 -84q-15 -8 -42 -8h-4q-112 10 -112 116v28q10 115 112 115z
M1850 -144h3q120 -14 120 -119v-20q0 -89 -93 -116l-27 -4q-123 11 -123 120v20q0 105 120 119zM2162 -144q31 0 62 -40q0 23 69 40q85 0 85 -103v-152h-70v172q0 31 -30 31h-4q-37 0 -43 -55v-148h-69v172q0 31 -31 31h-4q-42 -7 -42 -51v-152h-70v251h70v-28q33 32 77 32z
M1796 -251v-44q0 -50 61 -56q37 0 50 56v44q0 49 -61 55q-37 0 -50 -55zM1352 -331h70v-68h-70v68z" />
    <glyph glyph-name="asterisk" unicode="*" horiz-adv-x="935" 
d="M68 1728v-2222h-68v2222h68zM289 1728v-2222h-68v2222h68zM867 1728v-2222h-68v2222h68zM510 1728v-2222h-153v2222h153zM731 1728v-2222h-153v2222h153z" />
    <glyph glyph-name="plus" unicode="+" horiz-adv-x="935" 
d="M68 1728v-2222h-68v2222h68zM289 1728v-2222h-68v2222h68zM867 1728v-2222h-68v2222h68zM425 1728v-2222h-68v2222h68zM646 1728v-2222h-68v2222h68z" />
    <glyph glyph-name="comma" unicode="," 
d="M358 1416h2066v-531h-154l-54 -15v-4h208v-172h-2390v172h528v4l-54 15h-339q-95 0 -108 44q-27 26 -27 52v48q0 30 89 152l69 103q65 101 81 108q41 23 85 24zM46 1005q0 -70 81 -104h370q-62 69 -62 152q0 88 81 156q54 27 100 27q43 0 100 -39l35 -40q31 -49 31 -108
q0 -80 -62 -148h131q-65 69 -65 152v8q0 37 31 96q57 79 138 79h27q82 0 135 -107h-77q-41 36 -62 36h-34q-34 0 -81 -60l-8 -40v-24q0 -75 85 -104h50q51 24 66 60v4l-4 -4l-4 4h-4l-4 -4l-4 4h-4l-3 -4l-4 4h-4l-4 -4l-4 4h-11l-4 -4l-4 4h-4l-4 -4l-4 4h-4l-3 -4l-4 4
h-23l-4 -4l-4 4h-4l-4 -4h-4l-4 4v60h209v-4q0 -97 -62 -152v-4h278q-58 73 -58 116v52q0 96 104 152q37 15 73 15q62 0 127 -67q39 -61 39 -100v-32q0 -65 -62 -136h131v8q-8 0 -8 12q-23 4 -50 88l-4 40v16q0 72 81 144q45 27 101 27q83 0 119 -63q12 0 27 -36v-8h-81
q0 22 -65 36h-20q-92 -24 -92 -116q0 -98 104 -116q64 0 96 64h-131v44l-4 4l4 16h208v-20q0 -71 -61 -140h131v8h-8q0 10 -19 28q-35 57 -35 116q0 116 123 176l54 7q51 0 105 -39q2 -16 19 -16q46 -64 46 -132q0 -75 -38 -116l-24 -32h128v499h-2055q-74 0 -120 -80
l-96 -143q-92 -127 -92 -172zM1136 1352h1203v-64h-1060v-359h-65v359h-78v64zM423 1336h97q-82 -112 -124 -183q-7 0 -7 -12q-8 0 -50 -68q-51 -67 -51 -80h51l3 4l4 -4h4l4 4l4 -4h73v-64h-297l66 96l166 231q43 72 57 80zM1140 1236h62v-307h-62v307zM500 1053
q0 -62 62 -108l46 -12q81 0 108 100v24q-17 80 -42 80q0 14 -62 28h-4q-48 0 -92 -56zM1356 1049q0 -83 81 -112l23 -4q93 0 108 120q0 69 -69 104l-35 8q-96 -20 -96 -68q-10 0 -12 -48zM2066 1033q0 -41 57 -88l47 -12q80 7 100 76l8 32v12q-3 36 -27 76q-45 36 -78 36h-3
q-64 0 -104 -84v-48zM655 870v-4h266v4l-58 15h-154zM998 870v-4h416v4l-54 15h-308zM1507 870v-4h266v4l-58 15h-154zM1861 866h262v4l-54 15h-154q-54 -10 -54 -19zM49 846h4l-4 -4v-60l4 -16l-4 -16v-32l8 -8h2352v144h-2352zM223 850h15v-16h-11v-76l19 -4l15 4v76h-7
v16h15q0 -16 8 -16h8v-44q0 -52 -31 -52h-27q-23 14 -23 36v60q19 0 19 8v8zM362 838q35 0 57 -32v-4h-23l-23 16h-15q-31 0 -35 -32q0 -32 43 -32q16 0 38 12v4h-54v16h77q0 -35 -50 -48h-27q-30 3 -50 36v24q30 40 62 40zM547 838q35 0 58 -32v-4h-24l-23 16h-15
q-31 0 -35 -32q0 -32 43 -32q16 0 38 12v4h-54v16h77q0 -35 -50 -48h-27q-30 3 -50 36v24q30 40 62 40zM813 838q31 0 61 -40v-24q-26 -36 -54 -36h-23q-34 0 -50 48q0 41 66 52zM948 838q37 -4 54 -28h3v-8h-23l-23 16h-15q-35 -8 -35 -20v-24q9 -20 39 -20h3l39 12v4h-54
v16h77q-13 -48 -54 -48h-23q-36 0 -54 48q4 20 27 36q0 9 39 16zM1106 838q22 0 34 -32h-27v12h-19v-20q46 -12 46 -24v-4q-4 -32 -30 -32h-12q-18 0 -31 20v8h23q0 -12 8 -12h12l7 8v12q-50 10 -50 32q12 32 39 32zM1487 838q39 -6 39 -16q22 -12 27 -36q-16 -48 -54 -48
h-23q-37 0 -54 48q19 52 65 52zM115 834h73v-16l-50 -64h50v-16h-77v12l46 60v4h-42v20zM446 834h24v-96h-24v96zM678 834h27v-80h38v-16h-65v96zM1029 834h23v-96h-23v96zM1148 834h73v-20h-23v-76h-23v76h-27v20zM1233 834h23v-96h-23v96zM1279 834h23v-96h-23v96z
M1368 834v-4q-10 0 -12 -16l-27 -28l35 -48h-19q-9 2 -39 44v8q8 0 8 12q12 0 27 32h27zM1568 834h8l58 -4l11 -28q0 -15 -23 -28h-31v-36h-23v96zM1649 834h73v-20h-27v-76h-23v76h-23v20zM1730 834h27v-96h-27v96zM1776 834h35q0 -13 27 -68v-4h8l27 64v8h34v-96h-27l4 64
q-9 0 -31 -64h-23l-27 68h-3v-20l3 -48h-27v96zM1927 834h27v-96h-27v96zM1973 834h66v-20h-43v-20h43v-16h-43v-24h43v-16h-66v96zM2062 834h11q73 0 73 -28v-12q-9 -20 -30 -20l30 -36h-30q0 13 -31 40v-40h-23v96zM2162 834h65v-20h-42v-20h42v-16h-42v-24h42v-16h-65v96
zM2251 834h19l54 -60v60h27v-96h-27q0 8 -46 56v4h-4v-60h-23v96zM770 794v-16q14 -24 35 -24h8q38 0 38 32t-34 32h-20q-27 -17 -27 -24zM1449 798v-24q8 -20 38 -20t39 20v24q0 12 -35 20h-8q-34 -8 -34 -20zM1591 814v-24h23l8 8v12l-19 4h-12zM2085 814v-32h15
q20 0 23 12v16l-19 4h-19zM38 646h62l42 -159q9 3 46 159h58q7 0 46 -159h4l43 159h61v-4q-73 -247 -81 -247h-58l-38 155h-8q-33 -155 -42 -155h-54q-9 0 -81 251zM408 646h62l42 -159q9 3 46 159h58q7 0 46 -159h4l43 159h61v-4q-73 -247 -81 -247h-57l-39 155h-8
q-33 -155 -42 -155h-54q-9 0 -81 251zM778 646h62l42 -159q9 3 46 159h58q7 0 46 -159h4l43 159h61v-4q-73 -247 -81 -247h-57l-39 155h-8q-33 -155 -42 -155h-54q-9 0 -81 251zM1175 463h69v-68h-69v68zM300 343h69v-343h-69v343zM990 343h69v-60h-69v60zM1190 339v-88h47
v-52h-47v-139q0 -12 16 -12l27 4v-4l4 -24v-20l-47 -8h-7q-58 0 -58 72l-4 107v24h-31v52h31v44q1 7 69 44zM535 255h4q119 -14 119 -119v-20q0 -89 -92 -116l-27 -4q-123 11 -123 120v20q0 105 119 119zM797 255q27 0 62 -36v32h69v-139q0 -184 -31 -184q-18 -28 -80 -28
q-116 0 -116 88h4q73 0 73 -16q0 -20 27 -20h12q42 0 42 36v52q-33 -40 -69 -40h-4q-89 16 -89 112v31q0 78 66 108zM1379 255h4q120 -14 120 -119v-20q0 -89 -93 -116l-27 -4q-123 11 -123 120v20q0 105 119 119zM1641 255q27 0 62 -36v32h70v-139q0 -184 -31 -184
q-19 -28 -81 -28q-116 0 -116 88h4q73 0 73 -16q0 -20 27 -20h12q42 0 42 36v52q-33 -40 -69 -40h-4q-89 16 -89 112v31q0 78 66 108zM1942 255h4q120 -14 120 -119v-20q0 -89 -93 -116l-27 -4q-123 11 -123 120v20q0 105 119 119zM990 251h69v-251h-69v251zM481 147v-43
q0 -50 62 -56q37 0 50 56v43q0 50 -62 56q-37 0 -50 -56zM763 147v-39q5 -56 46 -56q42 0 50 60v39q-10 52 -46 52h-4q-41 0 -46 -56zM1325 147v-43q0 -50 62 -56q37 0 50 56v43q0 50 -62 56q-36 0 -50 -56zM1607 147v-39q5 -56 46 -56q42 0 50 60v39q-10 52 -46 52h-4
q-41 0 -46 -56zM1888 147v-43q0 -50 62 -56q37 0 50 56v43q0 50 -62 56q-37 0 -50 -56zM1584 -144h4q66 0 92 -56l8 -27h-4l-62 -8q-2 39 -34 39h-8q-32 0 -43 -47v-52q0 -56 51 -56q34 0 38 48l66 -8q0 -56 -62 -84q-15 -8 -42 -8h-4q-112 10 -112 116v28q10 115 112 115z
M1850 -144h3q120 -14 120 -119v-20q0 -89 -93 -116l-27 -4q-123 11 -123 120v20q0 105 120 119zM2162 -144q31 0 62 -40q0 23 69 40q85 0 85 -103v-152h-70v172q0 31 -30 31h-4q-37 0 -43 -55v-148h-69v172q0 31 -31 31h-4q-42 -7 -42 -51v-152h-70v251h70v-28q33 32 77 32z
M1796 -251v-44q0 -50 61 -56q37 0 50 56v44q0 49 -61 55q-37 0 -50 -55zM1352 -331h70v-68h-70v68z" />
    <glyph glyph-name="hyphen" unicode="-" horiz-adv-x="935" 
d="M68 1728v-2222h-68v2222h68zM289 1728v-2222h-68v2222h68zM867 1728v-2222h-153v2222h153zM646 1728v-2222h-153v2222h153zM425 1728v-2222h-68v2222h68z" />
    <glyph glyph-name="period" unicode="." horiz-adv-x="935" 
d="M867 1728v-2222h-68v2222h68zM374 1728v-2222h-68v2222h68zM153 1728v-2222h-153v2222h153zM731 1728v-2222h-153v2222h153zM510 1728v-2222h-68v2222h68z" />
    <glyph glyph-name="slash" unicode="/" horiz-adv-x="935" 
d="M68 1728v-2222h-68v2222h68zM289 1728v-2222h-68v2222h68zM510 1728v-2222h-68v2222h68zM646 1728v-2222h-68v2222h68zM867 1728v-2222h-68v2222h68z" />
    <glyph glyph-name="zero" unicode="0" horiz-adv-x="935" 
d="M68 1728v-2222h-68v2222h68zM204 1728v-2222h-68v2222h68zM867 1728v-2222h-68v2222h68zM357 -494v2222h153v-2222h-153zM578 -494v2222h153v-2222h-153z" />
    <glyph glyph-name="one" unicode="1" horiz-adv-x="935" 
d="M510 1728v-2222h-68v2222h68zM289 1728v-2222h-68v2222h68zM646 1728v-2222h-68v2222h68zM0 -494v2222h153v-2222h-153zM714 -494v2222h153v-2222h-153z" />
    <glyph glyph-name="two" unicode="2" horiz-adv-x="935" 
d="M510 1728v-2222h-68v2222h68zM68 1728v-2222h-68v2222h68zM646 1728v-2222h-68v2222h68zM136 -494v2222h153v-2222h-153zM714 -494v2222h153v-2222h-153z" />
    <glyph glyph-name="three" unicode="3" horiz-adv-x="935" 
d="M731 1728v-2222h-68v2222h68zM595 1728v-2222h-68v2222h68zM867 1728v-2222h-68v2222h68zM221 -494v2222h153v-2222h-153zM0 -494v2222h153v-2222h-153z" />
    <glyph glyph-name="four" unicode="4" horiz-adv-x="935" 
d="M204 1728v-2222h-68v2222h68zM646 1728v-2222h-68v2222h68zM68 1728v-2222h-68v2222h68zM357 -494v2222h153v-2222h-153zM714 -494v2222h153v-2222h-153z" />
    <glyph glyph-name="five" unicode="5" horiz-adv-x="935" 
d="M289 1728v-2222h-68v2222h68zM731 1728v-2222h-68v2222h68zM867 1728v-2222h-68v2222h68zM442 -494v2222h153v-2222h-153zM0 -494v2222h153v-2222h-153z" />
    <glyph glyph-name="six" unicode="6" horiz-adv-x="935" 
d="M68 1728v-2222h-68v2222h68zM731 1728v-2222h-68v2222h68zM867 1728v-2222h-68v2222h68zM442 -494v2222h153v-2222h-153zM136 -494v2222h153v-2222h-153z" />
    <glyph glyph-name="seven" unicode="7" horiz-adv-x="935" 
d="M68 1728v-2222h-68v2222h68zM425 1728v-2222h-68v2222h68zM204 1728v-2222h-68v2222h68zM714 -494v2222h153v-2222h-153zM493 -494v2222h153v-2222h-153z" />
    <glyph glyph-name="eight" unicode="8" horiz-adv-x="935" 
d="M289 1728v-2222h-68v2222h68zM510 1728v-2222h-68v2222h68zM867 1728v-2222h-68v2222h68zM0 -494v2222h153v-2222h-153zM578 -494v2222h153v-2222h-153z" />
    <glyph glyph-name="nine" unicode="9" horiz-adv-x="935" 
d="M68 1728v-2222h-68v2222h68zM510 1728v-2222h-68v2222h68zM867 1728v-2222h-68v2222h68zM136 -494v2222h153v-2222h-153zM578 -494v2222h153v-2222h-153z" />
    <glyph glyph-name="colon" unicode=":" 
d="M358 1416h2066v-531h-154l-54 -15v-4h208v-172h-2390v172h528v4l-54 15h-339q-95 0 -108 44q-27 26 -27 52v48q0 30 89 152l69 103q65 101 81 108q41 23 85 24zM46 1005q0 -70 81 -104h370q-62 69 -62 152q0 88 81 156q54 27 100 27q43 0 100 -39l35 -40q31 -49 31 -108
q0 -80 -62 -148h131q-65 69 -65 152v8q0 37 31 96q57 79 138 79h27q82 0 135 -107h-77q-41 36 -62 36h-34q-34 0 -81 -60l-8 -40v-24q0 -75 85 -104h50q51 24 66 60v4l-4 -4l-4 4h-4l-4 -4l-4 4h-4l-3 -4l-4 4h-4l-4 -4l-4 4h-11l-4 -4l-4 4h-4l-4 -4l-4 4h-4l-3 -4l-4 4
h-23l-4 -4l-4 4h-4l-4 -4h-4l-4 4v60h209v-4q0 -97 -62 -152v-4h278q-58 73 -58 116v52q0 96 104 152q37 15 73 15q62 0 127 -67q39 -61 39 -100v-32q0 -65 -62 -136h131v8q-8 0 -8 12q-23 4 -50 88l-4 40v16q0 72 81 144q45 27 101 27q83 0 119 -63q12 0 27 -36v-8h-81
q0 22 -65 36h-20q-92 -24 -92 -116q0 -98 104 -116q64 0 96 64h-131v44l-4 4l4 16h208v-20q0 -71 -61 -140h131v8h-8q0 10 -19 28q-35 57 -35 116q0 116 123 176l54 7q51 0 105 -39q2 -16 19 -16q46 -64 46 -132q0 -75 -38 -116l-24 -32h128v499h-2055q-74 0 -120 -80
l-96 -143q-92 -127 -92 -172zM1136 1352h1203v-64h-1060v-359h-65v359h-78v64zM423 1336h97q-82 -112 -124 -183q-7 0 -7 -12q-8 0 -50 -68q-51 -67 -51 -80h51l3 4l4 -4h4l4 4l4 -4h73v-64h-297l66 96l166 231q43 72 57 80zM1140 1236h62v-307h-62v307zM500 1053
q0 -62 62 -108l46 -12q81 0 108 100v24q-17 80 -42 80q0 14 -62 28h-4q-48 0 -92 -56zM1356 1049q0 -83 81 -112l23 -4q93 0 108 120q0 69 -69 104l-35 8q-96 -20 -96 -68q-10 0 -12 -48zM2066 1033q0 -41 57 -88l47 -12q80 7 100 76l8 32v12q-3 36 -27 76q-45 36 -78 36h-3
q-64 0 -104 -84v-48zM655 870v-4h266v4l-58 15h-154zM998 870v-4h416v4l-54 15h-308zM1507 870v-4h266v4l-58 15h-154zM1861 866h262v4l-54 15h-154q-54 -10 -54 -19zM49 846h4l-4 -4v-60l4 -16l-4 -16v-32l8 -8h2352v144h-2352zM223 850h15v-16h-11v-76l19 -4l15 4v76h-7
v16h15q0 -16 8 -16h8v-44q0 -52 -31 -52h-27q-23 14 -23 36v60q19 0 19 8v8zM362 838q35 0 57 -32v-4h-23l-23 16h-15q-31 0 -35 -32q0 -32 43 -32q16 0 38 12v4h-54v16h77q0 -35 -50 -48h-27q-30 3 -50 36v24q30 40 62 40zM547 838q35 0 58 -32v-4h-24l-23 16h-15
q-31 0 -35 -32q0 -32 43 -32q16 0 38 12v4h-54v16h77q0 -35 -50 -48h-27q-30 3 -50 36v24q30 40 62 40zM813 838q31 0 61 -40v-24q-26 -36 -54 -36h-23q-34 0 -50 48q0 41 66 52zM948 838q37 -4 54 -28h3v-8h-23l-23 16h-15q-35 -8 -35 -20v-24q9 -20 39 -20h3l39 12v4h-54
v16h77q-13 -48 -54 -48h-23q-36 0 -54 48q4 20 27 36q0 9 39 16zM1106 838q22 0 34 -32h-27v12h-19v-20q46 -12 46 -24v-4q-4 -32 -30 -32h-12q-18 0 -31 20v8h23q0 -12 8 -12h12l7 8v12q-50 10 -50 32q12 32 39 32zM1487 838q39 -6 39 -16q22 -12 27 -36q-16 -48 -54 -48
h-23q-37 0 -54 48q19 52 65 52zM115 834h73v-16l-50 -64h50v-16h-77v12l46 60v4h-42v20zM446 834h24v-96h-24v96zM678 834h27v-80h38v-16h-65v96zM1029 834h23v-96h-23v96zM1148 834h73v-20h-23v-76h-23v76h-27v20zM1233 834h23v-96h-23v96zM1279 834h23v-96h-23v96z
M1368 834v-4q-10 0 -12 -16l-27 -28l35 -48h-19q-9 2 -39 44v8q8 0 8 12q12 0 27 32h27zM1568 834h8l58 -4l11 -28q0 -15 -23 -28h-31v-36h-23v96zM1649 834h73v-20h-27v-76h-23v76h-23v20zM1730 834h27v-96h-27v96zM1776 834h35q0 -13 27 -68v-4h8l27 64v8h34v-96h-27l4 64
q-9 0 -31 -64h-23l-27 68h-3v-20l3 -48h-27v96zM1927 834h27v-96h-27v96zM1973 834h66v-20h-43v-20h43v-16h-43v-24h43v-16h-66v96zM2062 834h11q73 0 73 -28v-12q-9 -20 -30 -20l30 -36h-30q0 13 -31 40v-40h-23v96zM2162 834h65v-20h-42v-20h42v-16h-42v-24h42v-16h-65v96
zM2251 834h19l54 -60v60h27v-96h-27q0 8 -46 56v4h-4v-60h-23v96zM770 794v-16q14 -24 35 -24h8q38 0 38 32t-34 32h-20q-27 -17 -27 -24zM1449 798v-24q8 -20 38 -20t39 20v24q0 12 -35 20h-8q-34 -8 -34 -20zM1591 814v-24h23l8 8v12l-19 4h-12zM2085 814v-32h15
q20 0 23 12v16l-19 4h-19zM38 646h62l42 -159q9 3 46 159h58q7 0 46 -159h4l43 159h61v-4q-73 -247 -81 -247h-58l-38 155h-8q-33 -155 -42 -155h-54q-9 0 -81 251zM408 646h62l42 -159q9 3 46 159h58q7 0 46 -159h4l43 159h61v-4q-73 -247 -81 -247h-57l-39 155h-8
q-33 -155 -42 -155h-54q-9 0 -81 251zM778 646h62l42 -159q9 3 46 159h58q7 0 46 -159h4l43 159h61v-4q-73 -247 -81 -247h-57l-39 155h-8q-33 -155 -42 -155h-54q-9 0 -81 251zM1175 463h69v-68h-69v68zM300 343h69v-343h-69v343zM990 343h69v-60h-69v60zM1190 339v-88h47
v-52h-47v-139q0 -12 16 -12l27 4v-4l4 -24v-20l-47 -8h-7q-58 0 -58 72l-4 107v24h-31v52h31v44q1 7 69 44zM535 255h4q119 -14 119 -119v-20q0 -89 -92 -116l-27 -4q-123 11 -123 120v20q0 105 119 119zM797 255q27 0 62 -36v32h69v-139q0 -184 -31 -184q-18 -28 -80 -28
q-116 0 -116 88h4q73 0 73 -16q0 -20 27 -20h12q42 0 42 36v52q-33 -40 -69 -40h-4q-89 16 -89 112v31q0 78 66 108zM1379 255h4q120 -14 120 -119v-20q0 -89 -93 -116l-27 -4q-123 11 -123 120v20q0 105 119 119zM1641 255q27 0 62 -36v32h70v-139q0 -184 -31 -184
q-19 -28 -81 -28q-116 0 -116 88h4q73 0 73 -16q0 -20 27 -20h12q42 0 42 36v52q-33 -40 -69 -40h-4q-89 16 -89 112v31q0 78 66 108zM1942 255h4q120 -14 120 -119v-20q0 -89 -93 -116l-27 -4q-123 11 -123 120v20q0 105 119 119zM990 251h69v-251h-69v251zM481 147v-43
q0 -50 62 -56q37 0 50 56v43q0 50 -62 56q-37 0 -50 -56zM763 147v-39q5 -56 46 -56q42 0 50 60v39q-10 52 -46 52h-4q-41 0 -46 -56zM1325 147v-43q0 -50 62 -56q37 0 50 56v43q0 50 -62 56q-36 0 -50 -56zM1607 147v-39q5 -56 46 -56q42 0 50 60v39q-10 52 -46 52h-4
q-41 0 -46 -56zM1888 147v-43q0 -50 62 -56q37 0 50 56v43q0 50 -62 56q-37 0 -50 -56zM1584 -144h4q66 0 92 -56l8 -27h-4l-62 -8q-2 39 -34 39h-8q-32 0 -43 -47v-52q0 -56 51 -56q34 0 38 48l66 -8q0 -56 -62 -84q-15 -8 -42 -8h-4q-112 10 -112 116v28q10 115 112 115z
M1850 -144h3q120 -14 120 -119v-20q0 -89 -93 -116l-27 -4q-123 11 -123 120v20q0 105 120 119zM2162 -144q31 0 62 -40q0 23 69 40q85 0 85 -103v-152h-70v172q0 31 -30 31h-4q-37 0 -43 -55v-148h-69v172q0 31 -31 31h-4q-42 -7 -42 -51v-152h-70v251h70v-28q33 32 77 32z
M1796 -251v-44q0 -50 61 -56q37 0 50 56v44q0 49 -61 55q-37 0 -50 -55zM1352 -331h70v-68h-70v68z" />
    <glyph glyph-name="semicolon" unicode=";" 
d="M358 1416h2066v-531h-154l-54 -15v-4h208v-172h-2390v172h528v4l-54 15h-339q-95 0 -108 44q-27 26 -27 52v48q0 30 89 152l69 103q65 101 81 108q41 23 85 24zM46 1005q0 -70 81 -104h370q-62 69 -62 152q0 88 81 156q54 27 100 27q43 0 100 -39l35 -40q31 -49 31 -108
q0 -80 -62 -148h131q-65 69 -65 152v8q0 37 31 96q57 79 138 79h27q82 0 135 -107h-77q-41 36 -62 36h-34q-34 0 -81 -60l-8 -40v-24q0 -75 85 -104h50q51 24 66 60v4l-4 -4l-4 4h-4l-4 -4l-4 4h-4l-3 -4l-4 4h-4l-4 -4l-4 4h-11l-4 -4l-4 4h-4l-4 -4l-4 4h-4l-3 -4l-4 4
h-23l-4 -4l-4 4h-4l-4 -4h-4l-4 4v60h209v-4q0 -97 -62 -152v-4h278q-58 73 -58 116v52q0 96 104 152q37 15 73 15q62 0 127 -67q39 -61 39 -100v-32q0 -65 -62 -136h131v8q-8 0 -8 12q-23 4 -50 88l-4 40v16q0 72 81 144q45 27 101 27q83 0 119 -63q12 0 27 -36v-8h-81
q0 22 -65 36h-20q-92 -24 -92 -116q0 -98 104 -116q64 0 96 64h-131v44l-4 4l4 16h208v-20q0 -71 -61 -140h131v8h-8q0 10 -19 28q-35 57 -35 116q0 116 123 176l54 7q51 0 105 -39q2 -16 19 -16q46 -64 46 -132q0 -75 -38 -116l-24 -32h128v499h-2055q-74 0 -120 -80
l-96 -143q-92 -127 -92 -172zM1136 1352h1203v-64h-1060v-359h-65v359h-78v64zM423 1336h97q-82 -112 -124 -183q-7 0 -7 -12q-8 0 -50 -68q-51 -67 -51 -80h51l3 4l4 -4h4l4 4l4 -4h73v-64h-297l66 96l166 231q43 72 57 80zM1140 1236h62v-307h-62v307zM500 1053
q0 -62 62 -108l46 -12q81 0 108 100v24q-17 80 -42 80q0 14 -62 28h-4q-48 0 -92 -56zM1356 1049q0 -83 81 -112l23 -4q93 0 108 120q0 69 -69 104l-35 8q-96 -20 -96 -68q-10 0 -12 -48zM2066 1033q0 -41 57 -88l47 -12q80 7 100 76l8 32v12q-3 36 -27 76q-45 36 -78 36h-3
q-64 0 -104 -84v-48zM655 870v-4h266v4l-58 15h-154zM998 870v-4h416v4l-54 15h-308zM1507 870v-4h266v4l-58 15h-154zM1861 866h262v4l-54 15h-154q-54 -10 -54 -19zM49 846h4l-4 -4v-60l4 -16l-4 -16v-32l8 -8h2352v144h-2352zM223 850h15v-16h-11v-76l19 -4l15 4v76h-7
v16h15q0 -16 8 -16h8v-44q0 -52 -31 -52h-27q-23 14 -23 36v60q19 0 19 8v8zM362 838q35 0 57 -32v-4h-23l-23 16h-15q-31 0 -35 -32q0 -32 43 -32q16 0 38 12v4h-54v16h77q0 -35 -50 -48h-27q-30 3 -50 36v24q30 40 62 40zM547 838q35 0 58 -32v-4h-24l-23 16h-15
q-31 0 -35 -32q0 -32 43 -32q16 0 38 12v4h-54v16h77q0 -35 -50 -48h-27q-30 3 -50 36v24q30 40 62 40zM813 838q31 0 61 -40v-24q-26 -36 -54 -36h-23q-34 0 -50 48q0 41 66 52zM948 838q37 -4 54 -28h3v-8h-23l-23 16h-15q-35 -8 -35 -20v-24q9 -20 39 -20h3l39 12v4h-54
v16h77q-13 -48 -54 -48h-23q-36 0 -54 48q4 20 27 36q0 9 39 16zM1106 838q22 0 34 -32h-27v12h-19v-20q46 -12 46 -24v-4q-4 -32 -30 -32h-12q-18 0 -31 20v8h23q0 -12 8 -12h12l7 8v12q-50 10 -50 32q12 32 39 32zM1487 838q39 -6 39 -16q22 -12 27 -36q-16 -48 -54 -48
h-23q-37 0 -54 48q19 52 65 52zM115 834h73v-16l-50 -64h50v-16h-77v12l46 60v4h-42v20zM446 834h24v-96h-24v96zM678 834h27v-80h38v-16h-65v96zM1029 834h23v-96h-23v96zM1148 834h73v-20h-23v-76h-23v76h-27v20zM1233 834h23v-96h-23v96zM1279 834h23v-96h-23v96z
M1368 834v-4q-10 0 -12 -16l-27 -28l35 -48h-19q-9 2 -39 44v8q8 0 8 12q12 0 27 32h27zM1568 834h8l58 -4l11 -28q0 -15 -23 -28h-31v-36h-23v96zM1649 834h73v-20h-27v-76h-23v76h-23v20zM1730 834h27v-96h-27v96zM1776 834h35q0 -13 27 -68v-4h8l27 64v8h34v-96h-27l4 64
q-9 0 -31 -64h-23l-27 68h-3v-20l3 -48h-27v96zM1927 834h27v-96h-27v96zM1973 834h66v-20h-43v-20h43v-16h-43v-24h43v-16h-66v96zM2062 834h11q73 0 73 -28v-12q-9 -20 -30 -20l30 -36h-30q0 13 -31 40v-40h-23v96zM2162 834h65v-20h-42v-20h42v-16h-42v-24h42v-16h-65v96
zM2251 834h19l54 -60v60h27v-96h-27q0 8 -46 56v4h-4v-60h-23v96zM770 794v-16q14 -24 35 -24h8q38 0 38 32t-34 32h-20q-27 -17 -27 -24zM1449 798v-24q8 -20 38 -20t39 20v24q0 12 -35 20h-8q-34 -8 -34 -20zM1591 814v-24h23l8 8v12l-19 4h-12zM2085 814v-32h15
q20 0 23 12v16l-19 4h-19zM38 646h62l42 -159q9 3 46 159h58q7 0 46 -159h4l43 159h61v-4q-73 -247 -81 -247h-58l-38 155h-8q-33 -155 -42 -155h-54q-9 0 -81 251zM408 646h62l42 -159q9 3 46 159h58q7 0 46 -159h4l43 159h61v-4q-73 -247 -81 -247h-57l-39 155h-8
q-33 -155 -42 -155h-54q-9 0 -81 251zM778 646h62l42 -159q9 3 46 159h58q7 0 46 -159h4l43 159h61v-4q-73 -247 -81 -247h-57l-39 155h-8q-33 -155 -42 -155h-54q-9 0 -81 251zM1175 463h69v-68h-69v68zM300 343h69v-343h-69v343zM990 343h69v-60h-69v60zM1190 339v-88h47
v-52h-47v-139q0 -12 16 -12l27 4v-4l4 -24v-20l-47 -8h-7q-58 0 -58 72l-4 107v24h-31v52h31v44q1 7 69 44zM535 255h4q119 -14 119 -119v-20q0 -89 -92 -116l-27 -4q-123 11 -123 120v20q0 105 119 119zM797 255q27 0 62 -36v32h69v-139q0 -184 -31 -184q-18 -28 -80 -28
q-116 0 -116 88h4q73 0 73 -16q0 -20 27 -20h12q42 0 42 36v52q-33 -40 -69 -40h-4q-89 16 -89 112v31q0 78 66 108zM1379 255h4q120 -14 120 -119v-20q0 -89 -93 -116l-27 -4q-123 11 -123 120v20q0 105 119 119zM1641 255q27 0 62 -36v32h70v-139q0 -184 -31 -184
q-19 -28 -81 -28q-116 0 -116 88h4q73 0 73 -16q0 -20 27 -20h12q42 0 42 36v52q-33 -40 -69 -40h-4q-89 16 -89 112v31q0 78 66 108zM1942 255h4q120 -14 120 -119v-20q0 -89 -93 -116l-27 -4q-123 11 -123 120v20q0 105 119 119zM990 251h69v-251h-69v251zM481 147v-43
q0 -50 62 -56q37 0 50 56v43q0 50 -62 56q-37 0 -50 -56zM763 147v-39q5 -56 46 -56q42 0 50 60v39q-10 52 -46 52h-4q-41 0 -46 -56zM1325 147v-43q0 -50 62 -56q37 0 50 56v43q0 50 -62 56q-36 0 -50 -56zM1607 147v-39q5 -56 46 -56q42 0 50 60v39q-10 52 -46 52h-4
q-41 0 -46 -56zM1888 147v-43q0 -50 62 -56q37 0 50 56v43q0 50 -62 56q-37 0 -50 -56zM1584 -144h4q66 0 92 -56l8 -27h-4l-62 -8q-2 39 -34 39h-8q-32 0 -43 -47v-52q0 -56 51 -56q34 0 38 48l66 -8q0 -56 -62 -84q-15 -8 -42 -8h-4q-112 10 -112 116v28q10 115 112 115z
M1850 -144h3q120 -14 120 -119v-20q0 -89 -93 -116l-27 -4q-123 11 -123 120v20q0 105 120 119zM2162 -144q31 0 62 -40q0 23 69 40q85 0 85 -103v-152h-70v172q0 31 -30 31h-4q-37 0 -43 -55v-148h-69v172q0 31 -31 31h-4q-42 -7 -42 -51v-152h-70v251h70v-28q33 32 77 32z
M1796 -251v-44q0 -50 61 -56q37 0 50 56v44q0 49 -61 55q-37 0 -50 -55zM1352 -331h70v-68h-70v68z" />
    <glyph glyph-name="less" unicode="&#x3c;" 
d="M358 1416h2066v-531h-154l-54 -15v-4h208v-172h-2390v172h528v4l-54 15h-339q-95 0 -108 44q-27 26 -27 52v48q0 30 89 152l69 103q65 101 81 108q41 23 85 24zM46 1005q0 -70 81 -104h370q-62 69 -62 152q0 88 81 156q54 27 100 27q43 0 100 -39l35 -40q31 -49 31 -108
q0 -80 -62 -148h131q-65 69 -65 152v8q0 37 31 96q57 79 138 79h27q82 0 135 -107h-77q-41 36 -62 36h-34q-34 0 -81 -60l-8 -40v-24q0 -75 85 -104h50q51 24 66 60v4l-4 -4l-4 4h-4l-4 -4l-4 4h-4l-3 -4l-4 4h-4l-4 -4l-4 4h-11l-4 -4l-4 4h-4l-4 -4l-4 4h-4l-3 -4l-4 4
h-23l-4 -4l-4 4h-4l-4 -4h-4l-4 4v60h209v-4q0 -97 -62 -152v-4h278q-58 73 -58 116v52q0 96 104 152q37 15 73 15q62 0 127 -67q39 -61 39 -100v-32q0 -65 -62 -136h131v8q-8 0 -8 12q-23 4 -50 88l-4 40v16q0 72 81 144q45 27 101 27q83 0 119 -63q12 0 27 -36v-8h-81
q0 22 -65 36h-20q-92 -24 -92 -116q0 -98 104 -116q64 0 96 64h-131v44l-4 4l4 16h208v-20q0 -71 -61 -140h131v8h-8q0 10 -19 28q-35 57 -35 116q0 116 123 176l54 7q51 0 105 -39q2 -16 19 -16q46 -64 46 -132q0 -75 -38 -116l-24 -32h128v499h-2055q-74 0 -120 -80
l-96 -143q-92 -127 -92 -172zM1136 1352h1203v-64h-1060v-359h-65v359h-78v64zM423 1336h97q-82 -112 -124 -183q-7 0 -7 -12q-8 0 -50 -68q-51 -67 -51 -80h51l3 4l4 -4h4l4 4l4 -4h73v-64h-297l66 96l166 231q43 72 57 80zM1140 1236h62v-307h-62v307zM500 1053
q0 -62 62 -108l46 -12q81 0 108 100v24q-17 80 -42 80q0 14 -62 28h-4q-48 0 -92 -56zM1356 1049q0 -83 81 -112l23 -4q93 0 108 120q0 69 -69 104l-35 8q-96 -20 -96 -68q-10 0 -12 -48zM2066 1033q0 -41 57 -88l47 -12q80 7 100 76l8 32v12q-3 36 -27 76q-45 36 -78 36h-3
q-64 0 -104 -84v-48zM655 870v-4h266v4l-58 15h-154zM998 870v-4h416v4l-54 15h-308zM1507 870v-4h266v4l-58 15h-154zM1861 866h262v4l-54 15h-154q-54 -10 -54 -19zM49 846h4l-4 -4v-60l4 -16l-4 -16v-32l8 -8h2352v144h-2352zM223 850h15v-16h-11v-76l19 -4l15 4v76h-7
v16h15q0 -16 8 -16h8v-44q0 -52 -31 -52h-27q-23 14 -23 36v60q19 0 19 8v8zM362 838q35 0 57 -32v-4h-23l-23 16h-15q-31 0 -35 -32q0 -32 43 -32q16 0 38 12v4h-54v16h77q0 -35 -50 -48h-27q-30 3 -50 36v24q30 40 62 40zM547 838q35 0 58 -32v-4h-24l-23 16h-15
q-31 0 -35 -32q0 -32 43 -32q16 0 38 12v4h-54v16h77q0 -35 -50 -48h-27q-30 3 -50 36v24q30 40 62 40zM813 838q31 0 61 -40v-24q-26 -36 -54 -36h-23q-34 0 -50 48q0 41 66 52zM948 838q37 -4 54 -28h3v-8h-23l-23 16h-15q-35 -8 -35 -20v-24q9 -20 39 -20h3l39 12v4h-54
v16h77q-13 -48 -54 -48h-23q-36 0 -54 48q4 20 27 36q0 9 39 16zM1106 838q22 0 34 -32h-27v12h-19v-20q46 -12 46 -24v-4q-4 -32 -30 -32h-12q-18 0 -31 20v8h23q0 -12 8 -12h12l7 8v12q-50 10 -50 32q12 32 39 32zM1487 838q39 -6 39 -16q22 -12 27 -36q-16 -48 -54 -48
h-23q-37 0 -54 48q19 52 65 52zM115 834h73v-16l-50 -64h50v-16h-77v12l46 60v4h-42v20zM446 834h24v-96h-24v96zM678 834h27v-80h38v-16h-65v96zM1029 834h23v-96h-23v96zM1148 834h73v-20h-23v-76h-23v76h-27v20zM1233 834h23v-96h-23v96zM1279 834h23v-96h-23v96z
M1368 834v-4q-10 0 -12 -16l-27 -28l35 -48h-19q-9 2 -39 44v8q8 0 8 12q12 0 27 32h27zM1568 834h8l58 -4l11 -28q0 -15 -23 -28h-31v-36h-23v96zM1649 834h73v-20h-27v-76h-23v76h-23v20zM1730 834h27v-96h-27v96zM1776 834h35q0 -13 27 -68v-4h8l27 64v8h34v-96h-27l4 64
q-9 0 -31 -64h-23l-27 68h-3v-20l3 -48h-27v96zM1927 834h27v-96h-27v96zM1973 834h66v-20h-43v-20h43v-16h-43v-24h43v-16h-66v96zM2062 834h11q73 0 73 -28v-12q-9 -20 -30 -20l30 -36h-30q0 13 -31 40v-40h-23v96zM2162 834h65v-20h-42v-20h42v-16h-42v-24h42v-16h-65v96
zM2251 834h19l54 -60v60h27v-96h-27q0 8 -46 56v4h-4v-60h-23v96zM770 794v-16q14 -24 35 -24h8q38 0 38 32t-34 32h-20q-27 -17 -27 -24zM1449 798v-24q8 -20 38 -20t39 20v24q0 12 -35 20h-8q-34 -8 -34 -20zM1591 814v-24h23l8 8v12l-19 4h-12zM2085 814v-32h15
q20 0 23 12v16l-19 4h-19zM38 646h62l42 -159q9 3 46 159h58q7 0 46 -159h4l43 159h61v-4q-73 -247 -81 -247h-58l-38 155h-8q-33 -155 -42 -155h-54q-9 0 -81 251zM408 646h62l42 -159q9 3 46 159h58q7 0 46 -159h4l43 159h61v-4q-73 -247 -81 -247h-57l-39 155h-8
q-33 -155 -42 -155h-54q-9 0 -81 251zM778 646h62l42 -159q9 3 46 159h58q7 0 46 -159h4l43 159h61v-4q-73 -247 -81 -247h-57l-39 155h-8q-33 -155 -42 -155h-54q-9 0 -81 251zM1175 463h69v-68h-69v68zM300 343h69v-343h-69v343zM990 343h69v-60h-69v60zM1190 339v-88h47
v-52h-47v-139q0 -12 16 -12l27 4v-4l4 -24v-20l-47 -8h-7q-58 0 -58 72l-4 107v24h-31v52h31v44q1 7 69 44zM535 255h4q119 -14 119 -119v-20q0 -89 -92 -116l-27 -4q-123 11 -123 120v20q0 105 119 119zM797 255q27 0 62 -36v32h69v-139q0 -184 -31 -184q-18 -28 -80 -28
q-116 0 -116 88h4q73 0 73 -16q0 -20 27 -20h12q42 0 42 36v52q-33 -40 -69 -40h-4q-89 16 -89 112v31q0 78 66 108zM1379 255h4q120 -14 120 -119v-20q0 -89 -93 -116l-27 -4q-123 11 -123 120v20q0 105 119 119zM1641 255q27 0 62 -36v32h70v-139q0 -184 -31 -184
q-19 -28 -81 -28q-116 0 -116 88h4q73 0 73 -16q0 -20 27 -20h12q42 0 42 36v52q-33 -40 -69 -40h-4q-89 16 -89 112v31q0 78 66 108zM1942 255h4q120 -14 120 -119v-20q0 -89 -93 -116l-27 -4q-123 11 -123 120v20q0 105 119 119zM990 251h69v-251h-69v251zM481 147v-43
q0 -50 62 -56q37 0 50 56v43q0 50 -62 56q-37 0 -50 -56zM763 147v-39q5 -56 46 -56q42 0 50 60v39q-10 52 -46 52h-4q-41 0 -46 -56zM1325 147v-43q0 -50 62 -56q37 0 50 56v43q0 50 -62 56q-36 0 -50 -56zM1607 147v-39q5 -56 46 -56q42 0 50 60v39q-10 52 -46 52h-4
q-41 0 -46 -56zM1888 147v-43q0 -50 62 -56q37 0 50 56v43q0 50 -62 56q-37 0 -50 -56zM1584 -144h4q66 0 92 -56l8 -27h-4l-62 -8q-2 39 -34 39h-8q-32 0 -43 -47v-52q0 -56 51 -56q34 0 38 48l66 -8q0 -56 -62 -84q-15 -8 -42 -8h-4q-112 10 -112 116v28q10 115 112 115z
M1850 -144h3q120 -14 120 -119v-20q0 -89 -93 -116l-27 -4q-123 11 -123 120v20q0 105 120 119zM2162 -144q31 0 62 -40q0 23 69 40q85 0 85 -103v-152h-70v172q0 31 -30 31h-4q-37 0 -43 -55v-148h-69v172q0 31 -31 31h-4q-42 -7 -42 -51v-152h-70v251h70v-28q33 32 77 32z
M1796 -251v-44q0 -50 61 -56q37 0 50 56v44q0 49 -61 55q-37 0 -50 -55zM1352 -331h70v-68h-70v68z" />
    <glyph glyph-name="equal" unicode="=" 
d="M358 1416h2066v-531h-154l-54 -15v-4h208v-172h-2390v172h528v4l-54 15h-339q-95 0 -108 44q-27 26 -27 52v48q0 30 89 152l69 103q65 101 81 108q41 23 85 24zM46 1005q0 -70 81 -104h370q-62 69 -62 152q0 88 81 156q54 27 100 27q43 0 100 -39l35 -40q31 -49 31 -108
q0 -80 -62 -148h131q-65 69 -65 152v8q0 37 31 96q57 79 138 79h27q82 0 135 -107h-77q-41 36 -62 36h-34q-34 0 -81 -60l-8 -40v-24q0 -75 85 -104h50q51 24 66 60v4l-4 -4l-4 4h-4l-4 -4l-4 4h-4l-3 -4l-4 4h-4l-4 -4l-4 4h-11l-4 -4l-4 4h-4l-4 -4l-4 4h-4l-3 -4l-4 4
h-23l-4 -4l-4 4h-4l-4 -4h-4l-4 4v60h209v-4q0 -97 -62 -152v-4h278q-58 73 -58 116v52q0 96 104 152q37 15 73 15q62 0 127 -67q39 -61 39 -100v-32q0 -65 -62 -136h131v8q-8 0 -8 12q-23 4 -50 88l-4 40v16q0 72 81 144q45 27 101 27q83 0 119 -63q12 0 27 -36v-8h-81
q0 22 -65 36h-20q-92 -24 -92 -116q0 -98 104 -116q64 0 96 64h-131v44l-4 4l4 16h208v-20q0 -71 -61 -140h131v8h-8q0 10 -19 28q-35 57 -35 116q0 116 123 176l54 7q51 0 105 -39q2 -16 19 -16q46 -64 46 -132q0 -75 -38 -116l-24 -32h128v499h-2055q-74 0 -120 -80
l-96 -143q-92 -127 -92 -172zM1136 1352h1203v-64h-1060v-359h-65v359h-78v64zM423 1336h97q-82 -112 -124 -183q-7 0 -7 -12q-8 0 -50 -68q-51 -67 -51 -80h51l3 4l4 -4h4l4 4l4 -4h73v-64h-297l66 96l166 231q43 72 57 80zM1140 1236h62v-307h-62v307zM500 1053
q0 -62 62 -108l46 -12q81 0 108 100v24q-17 80 -42 80q0 14 -62 28h-4q-48 0 -92 -56zM1356 1049q0 -83 81 -112l23 -4q93 0 108 120q0 69 -69 104l-35 8q-96 -20 -96 -68q-10 0 -12 -48zM2066 1033q0 -41 57 -88l47 -12q80 7 100 76l8 32v12q-3 36 -27 76q-45 36 -78 36h-3
q-64 0 -104 -84v-48zM655 870v-4h266v4l-58 15h-154zM998 870v-4h416v4l-54 15h-308zM1507 870v-4h266v4l-58 15h-154zM1861 866h262v4l-54 15h-154q-54 -10 -54 -19zM49 846h4l-4 -4v-60l4 -16l-4 -16v-32l8 -8h2352v144h-2352zM223 850h15v-16h-11v-76l19 -4l15 4v76h-7
v16h15q0 -16 8 -16h8v-44q0 -52 -31 -52h-27q-23 14 -23 36v60q19 0 19 8v8zM362 838q35 0 57 -32v-4h-23l-23 16h-15q-31 0 -35 -32q0 -32 43 -32q16 0 38 12v4h-54v16h77q0 -35 -50 -48h-27q-30 3 -50 36v24q30 40 62 40zM547 838q35 0 58 -32v-4h-24l-23 16h-15
q-31 0 -35 -32q0 -32 43 -32q16 0 38 12v4h-54v16h77q0 -35 -50 -48h-27q-30 3 -50 36v24q30 40 62 40zM813 838q31 0 61 -40v-24q-26 -36 -54 -36h-23q-34 0 -50 48q0 41 66 52zM948 838q37 -4 54 -28h3v-8h-23l-23 16h-15q-35 -8 -35 -20v-24q9 -20 39 -20h3l39 12v4h-54
v16h77q-13 -48 -54 -48h-23q-36 0 -54 48q4 20 27 36q0 9 39 16zM1106 838q22 0 34 -32h-27v12h-19v-20q46 -12 46 -24v-4q-4 -32 -30 -32h-12q-18 0 -31 20v8h23q0 -12 8 -12h12l7 8v12q-50 10 -50 32q12 32 39 32zM1487 838q39 -6 39 -16q22 -12 27 -36q-16 -48 -54 -48
h-23q-37 0 -54 48q19 52 65 52zM115 834h73v-16l-50 -64h50v-16h-77v12l46 60v4h-42v20zM446 834h24v-96h-24v96zM678 834h27v-80h38v-16h-65v96zM1029 834h23v-96h-23v96zM1148 834h73v-20h-23v-76h-23v76h-27v20zM1233 834h23v-96h-23v96zM1279 834h23v-96h-23v96z
M1368 834v-4q-10 0 -12 -16l-27 -28l35 -48h-19q-9 2 -39 44v8q8 0 8 12q12 0 27 32h27zM1568 834h8l58 -4l11 -28q0 -15 -23 -28h-31v-36h-23v96zM1649 834h73v-20h-27v-76h-23v76h-23v20zM1730 834h27v-96h-27v96zM1776 834h35q0 -13 27 -68v-4h8l27 64v8h34v-96h-27l4 64
q-9 0 -31 -64h-23l-27 68h-3v-20l3 -48h-27v96zM1927 834h27v-96h-27v96zM1973 834h66v-20h-43v-20h43v-16h-43v-24h43v-16h-66v96zM2062 834h11q73 0 73 -28v-12q-9 -20 -30 -20l30 -36h-30q0 13 -31 40v-40h-23v96zM2162 834h65v-20h-42v-20h42v-16h-42v-24h42v-16h-65v96
zM2251 834h19l54 -60v60h27v-96h-27q0 8 -46 56v4h-4v-60h-23v96zM770 794v-16q14 -24 35 -24h8q38 0 38 32t-34 32h-20q-27 -17 -27 -24zM1449 798v-24q8 -20 38 -20t39 20v24q0 12 -35 20h-8q-34 -8 -34 -20zM1591 814v-24h23l8 8v12l-19 4h-12zM2085 814v-32h15
q20 0 23 12v16l-19 4h-19zM38 646h62l42 -159q9 3 46 159h58q7 0 46 -159h4l43 159h61v-4q-73 -247 -81 -247h-58l-38 155h-8q-33 -155 -42 -155h-54q-9 0 -81 251zM408 646h62l42 -159q9 3 46 159h58q7 0 46 -159h4l43 159h61v-4q-73 -247 -81 -247h-57l-39 155h-8
q-33 -155 -42 -155h-54q-9 0 -81 251zM778 646h62l42 -159q9 3 46 159h58q7 0 46 -159h4l43 159h61v-4q-73 -247 -81 -247h-57l-39 155h-8q-33 -155 -42 -155h-54q-9 0 -81 251zM1175 463h69v-68h-69v68zM300 343h69v-343h-69v343zM990 343h69v-60h-69v60zM1190 339v-88h47
v-52h-47v-139q0 -12 16 -12l27 4v-4l4 -24v-20l-47 -8h-7q-58 0 -58 72l-4 107v24h-31v52h31v44q1 7 69 44zM535 255h4q119 -14 119 -119v-20q0 -89 -92 -116l-27 -4q-123 11 -123 120v20q0 105 119 119zM797 255q27 0 62 -36v32h69v-139q0 -184 -31 -184q-18 -28 -80 -28
q-116 0 -116 88h4q73 0 73 -16q0 -20 27 -20h12q42 0 42 36v52q-33 -40 -69 -40h-4q-89 16 -89 112v31q0 78 66 108zM1379 255h4q120 -14 120 -119v-20q0 -89 -93 -116l-27 -4q-123 11 -123 120v20q0 105 119 119zM1641 255q27 0 62 -36v32h70v-139q0 -184 -31 -184
q-19 -28 -81 -28q-116 0 -116 88h4q73 0 73 -16q0 -20 27 -20h12q42 0 42 36v52q-33 -40 -69 -40h-4q-89 16 -89 112v31q0 78 66 108zM1942 255h4q120 -14 120 -119v-20q0 -89 -93 -116l-27 -4q-123 11 -123 120v20q0 105 119 119zM990 251h69v-251h-69v251zM481 147v-43
q0 -50 62 -56q37 0 50 56v43q0 50 -62 56q-37 0 -50 -56zM763 147v-39q5 -56 46 -56q42 0 50 60v39q-10 52 -46 52h-4q-41 0 -46 -56zM1325 147v-43q0 -50 62 -56q37 0 50 56v43q0 50 -62 56q-36 0 -50 -56zM1607 147v-39q5 -56 46 -56q42 0 50 60v39q-10 52 -46 52h-4
q-41 0 -46 -56zM1888 147v-43q0 -50 62 -56q37 0 50 56v43q0 50 -62 56q-37 0 -50 -56zM1584 -144h4q66 0 92 -56l8 -27h-4l-62 -8q-2 39 -34 39h-8q-32 0 -43 -47v-52q0 -56 51 -56q34 0 38 48l66 -8q0 -56 -62 -84q-15 -8 -42 -8h-4q-112 10 -112 116v28q10 115 112 115z
M1850 -144h3q120 -14 120 -119v-20q0 -89 -93 -116l-27 -4q-123 11 -123 120v20q0 105 120 119zM2162 -144q31 0 62 -40q0 23 69 40q85 0 85 -103v-152h-70v172q0 31 -30 31h-4q-37 0 -43 -55v-148h-69v172q0 31 -31 31h-4q-42 -7 -42 -51v-152h-70v251h70v-28q33 32 77 32z
M1796 -251v-44q0 -50 61 -56q37 0 50 56v44q0 49 -61 55q-37 0 -50 -55zM1352 -331h70v-68h-70v68z" />
    <glyph glyph-name="greater" unicode="&#x3e;" 
d="M358 1416h2066v-531h-154l-54 -15v-4h208v-172h-2390v172h528v4l-54 15h-339q-95 0 -108 44q-27 26 -27 52v48q0 30 89 152l69 103q65 101 81 108q41 23 85 24zM46 1005q0 -70 81 -104h370q-62 69 -62 152q0 88 81 156q54 27 100 27q43 0 100 -39l35 -40q31 -49 31 -108
q0 -80 -62 -148h131q-65 69 -65 152v8q0 37 31 96q57 79 138 79h27q82 0 135 -107h-77q-41 36 -62 36h-34q-34 0 -81 -60l-8 -40v-24q0 -75 85 -104h50q51 24 66 60v4l-4 -4l-4 4h-4l-4 -4l-4 4h-4l-3 -4l-4 4h-4l-4 -4l-4 4h-11l-4 -4l-4 4h-4l-4 -4l-4 4h-4l-3 -4l-4 4
h-23l-4 -4l-4 4h-4l-4 -4h-4l-4 4v60h209v-4q0 -97 -62 -152v-4h278q-58 73 -58 116v52q0 96 104 152q37 15 73 15q62 0 127 -67q39 -61 39 -100v-32q0 -65 -62 -136h131v8q-8 0 -8 12q-23 4 -50 88l-4 40v16q0 72 81 144q45 27 101 27q83 0 119 -63q12 0 27 -36v-8h-81
q0 22 -65 36h-20q-92 -24 -92 -116q0 -98 104 -116q64 0 96 64h-131v44l-4 4l4 16h208v-20q0 -71 -61 -140h131v8h-8q0 10 -19 28q-35 57 -35 116q0 116 123 176l54 7q51 0 105 -39q2 -16 19 -16q46 -64 46 -132q0 -75 -38 -116l-24 -32h128v499h-2055q-74 0 -120 -80
l-96 -143q-92 -127 -92 -172zM1136 1352h1203v-64h-1060v-359h-65v359h-78v64zM423 1336h97q-82 -112 -124 -183q-7 0 -7 -12q-8 0 -50 -68q-51 -67 -51 -80h51l3 4l4 -4h4l4 4l4 -4h73v-64h-297l66 96l166 231q43 72 57 80zM1140 1236h62v-307h-62v307zM500 1053
q0 -62 62 -108l46 -12q81 0 108 100v24q-17 80 -42 80q0 14 -62 28h-4q-48 0 -92 -56zM1356 1049q0 -83 81 -112l23 -4q93 0 108 120q0 69 -69 104l-35 8q-96 -20 -96 -68q-10 0 -12 -48zM2066 1033q0 -41 57 -88l47 -12q80 7 100 76l8 32v12q-3 36 -27 76q-45 36 -78 36h-3
q-64 0 -104 -84v-48zM655 870v-4h266v4l-58 15h-154zM998 870v-4h416v4l-54 15h-308zM1507 870v-4h266v4l-58 15h-154zM1861 866h262v4l-54 15h-154q-54 -10 -54 -19zM49 846h4l-4 -4v-60l4 -16l-4 -16v-32l8 -8h2352v144h-2352zM223 850h15v-16h-11v-76l19 -4l15 4v76h-7
v16h15q0 -16 8 -16h8v-44q0 -52 -31 -52h-27q-23 14 -23 36v60q19 0 19 8v8zM362 838q35 0 57 -32v-4h-23l-23 16h-15q-31 0 -35 -32q0 -32 43 -32q16 0 38 12v4h-54v16h77q0 -35 -50 -48h-27q-30 3 -50 36v24q30 40 62 40zM547 838q35 0 58 -32v-4h-24l-23 16h-15
q-31 0 -35 -32q0 -32 43 -32q16 0 38 12v4h-54v16h77q0 -35 -50 -48h-27q-30 3 -50 36v24q30 40 62 40zM813 838q31 0 61 -40v-24q-26 -36 -54 -36h-23q-34 0 -50 48q0 41 66 52zM948 838q37 -4 54 -28h3v-8h-23l-23 16h-15q-35 -8 -35 -20v-24q9 -20 39 -20h3l39 12v4h-54
v16h77q-13 -48 -54 -48h-23q-36 0 -54 48q4 20 27 36q0 9 39 16zM1106 838q22 0 34 -32h-27v12h-19v-20q46 -12 46 -24v-4q-4 -32 -30 -32h-12q-18 0 -31 20v8h23q0 -12 8 -12h12l7 8v12q-50 10 -50 32q12 32 39 32zM1487 838q39 -6 39 -16q22 -12 27 -36q-16 -48 -54 -48
h-23q-37 0 -54 48q19 52 65 52zM115 834h73v-16l-50 -64h50v-16h-77v12l46 60v4h-42v20zM446 834h24v-96h-24v96zM678 834h27v-80h38v-16h-65v96zM1029 834h23v-96h-23v96zM1148 834h73v-20h-23v-76h-23v76h-27v20zM1233 834h23v-96h-23v96zM1279 834h23v-96h-23v96z
M1368 834v-4q-10 0 -12 -16l-27 -28l35 -48h-19q-9 2 -39 44v8q8 0 8 12q12 0 27 32h27zM1568 834h8l58 -4l11 -28q0 -15 -23 -28h-31v-36h-23v96zM1649 834h73v-20h-27v-76h-23v76h-23v20zM1730 834h27v-96h-27v96zM1776 834h35q0 -13 27 -68v-4h8l27 64v8h34v-96h-27l4 64
q-9 0 -31 -64h-23l-27 68h-3v-20l3 -48h-27v96zM1927 834h27v-96h-27v96zM1973 834h66v-20h-43v-20h43v-16h-43v-24h43v-16h-66v96zM2062 834h11q73 0 73 -28v-12q-9 -20 -30 -20l30 -36h-30q0 13 -31 40v-40h-23v96zM2162 834h65v-20h-42v-20h42v-16h-42v-24h42v-16h-65v96
zM2251 834h19l54 -60v60h27v-96h-27q0 8 -46 56v4h-4v-60h-23v96zM770 794v-16q14 -24 35 -24h8q38 0 38 32t-34 32h-20q-27 -17 -27 -24zM1449 798v-24q8 -20 38 -20t39 20v24q0 12 -35 20h-8q-34 -8 -34 -20zM1591 814v-24h23l8 8v12l-19 4h-12zM2085 814v-32h15
q20 0 23 12v16l-19 4h-19zM38 646h62l42 -159q9 3 46 159h58q7 0 46 -159h4l43 159h61v-4q-73 -247 -81 -247h-58l-38 155h-8q-33 -155 -42 -155h-54q-9 0 -81 251zM408 646h62l42 -159q9 3 46 159h58q7 0 46 -159h4l43 159h61v-4q-73 -247 -81 -247h-57l-39 155h-8
q-33 -155 -42 -155h-54q-9 0 -81 251zM778 646h62l42 -159q9 3 46 159h58q7 0 46 -159h4l43 159h61v-4q-73 -247 -81 -247h-57l-39 155h-8q-33 -155 -42 -155h-54q-9 0 -81 251zM1175 463h69v-68h-69v68zM300 343h69v-343h-69v343zM990 343h69v-60h-69v60zM1190 339v-88h47
v-52h-47v-139q0 -12 16 -12l27 4v-4l4 -24v-20l-47 -8h-7q-58 0 -58 72l-4 107v24h-31v52h31v44q1 7 69 44zM535 255h4q119 -14 119 -119v-20q0 -89 -92 -116l-27 -4q-123 11 -123 120v20q0 105 119 119zM797 255q27 0 62 -36v32h69v-139q0 -184 -31 -184q-18 -28 -80 -28
q-116 0 -116 88h4q73 0 73 -16q0 -20 27 -20h12q42 0 42 36v52q-33 -40 -69 -40h-4q-89 16 -89 112v31q0 78 66 108zM1379 255h4q120 -14 120 -119v-20q0 -89 -93 -116l-27 -4q-123 11 -123 120v20q0 105 119 119zM1641 255q27 0 62 -36v32h70v-139q0 -184 -31 -184
q-19 -28 -81 -28q-116 0 -116 88h4q73 0 73 -16q0 -20 27 -20h12q42 0 42 36v52q-33 -40 -69 -40h-4q-89 16 -89 112v31q0 78 66 108zM1942 255h4q120 -14 120 -119v-20q0 -89 -93 -116l-27 -4q-123 11 -123 120v20q0 105 119 119zM990 251h69v-251h-69v251zM481 147v-43
q0 -50 62 -56q37 0 50 56v43q0 50 -62 56q-37 0 -50 -56zM763 147v-39q5 -56 46 -56q42 0 50 60v39q-10 52 -46 52h-4q-41 0 -46 -56zM1325 147v-43q0 -50 62 -56q37 0 50 56v43q0 50 -62 56q-36 0 -50 -56zM1607 147v-39q5 -56 46 -56q42 0 50 60v39q-10 52 -46 52h-4
q-41 0 -46 -56zM1888 147v-43q0 -50 62 -56q37 0 50 56v43q0 50 -62 56q-37 0 -50 -56zM1584 -144h4q66 0 92 -56l8 -27h-4l-62 -8q-2 39 -34 39h-8q-32 0 -43 -47v-52q0 -56 51 -56q34 0 38 48l66 -8q0 -56 -62 -84q-15 -8 -42 -8h-4q-112 10 -112 116v28q10 115 112 115z
M1850 -144h3q120 -14 120 -119v-20q0 -89 -93 -116l-27 -4q-123 11 -123 120v20q0 105 120 119zM2162 -144q31 0 62 -40q0 23 69 40q85 0 85 -103v-152h-70v172q0 31 -30 31h-4q-37 0 -43 -55v-148h-69v172q0 31 -31 31h-4q-42 -7 -42 -51v-152h-70v251h70v-28q33 32 77 32z
M1796 -251v-44q0 -50 61 -56q37 0 50 56v44q0 49 -61 55q-37 0 -50 -55zM1352 -331h70v-68h-70v68z" />
    <glyph glyph-name="question" unicode="?" 
d="M358 1416h2066v-531h-154l-54 -15v-4h208v-172h-2390v172h528v4l-54 15h-339q-95 0 -108 44q-27 26 -27 52v48q0 30 89 152l69 103q65 101 81 108q41 23 85 24zM46 1005q0 -70 81 -104h370q-62 69 -62 152q0 88 81 156q54 27 100 27q43 0 100 -39l35 -40q31 -49 31 -108
q0 -80 -62 -148h131q-65 69 -65 152v8q0 37 31 96q57 79 138 79h27q82 0 135 -107h-77q-41 36 -62 36h-34q-34 0 -81 -60l-8 -40v-24q0 -75 85 -104h50q51 24 66 60v4l-4 -4l-4 4h-4l-4 -4l-4 4h-4l-3 -4l-4 4h-4l-4 -4l-4 4h-11l-4 -4l-4 4h-4l-4 -4l-4 4h-4l-3 -4l-4 4
h-23l-4 -4l-4 4h-4l-4 -4h-4l-4 4v60h209v-4q0 -97 -62 -152v-4h278q-58 73 -58 116v52q0 96 104 152q37 15 73 15q62 0 127 -67q39 -61 39 -100v-32q0 -65 -62 -136h131v8q-8 0 -8 12q-23 4 -50 88l-4 40v16q0 72 81 144q45 27 101 27q83 0 119 -63q12 0 27 -36v-8h-81
q0 22 -65 36h-20q-92 -24 -92 -116q0 -98 104 -116q64 0 96 64h-131v44l-4 4l4 16h208v-20q0 -71 -61 -140h131v8h-8q0 10 -19 28q-35 57 -35 116q0 116 123 176l54 7q51 0 105 -39q2 -16 19 -16q46 -64 46 -132q0 -75 -38 -116l-24 -32h128v499h-2055q-74 0 -120 -80
l-96 -143q-92 -127 -92 -172zM1136 1352h1203v-64h-1060v-359h-65v359h-78v64zM423 1336h97q-82 -112 -124 -183q-7 0 -7 -12q-8 0 -50 -68q-51 -67 -51 -80h51l3 4l4 -4h4l4 4l4 -4h73v-64h-297l66 96l166 231q43 72 57 80zM1140 1236h62v-307h-62v307zM500 1053
q0 -62 62 -108l46 -12q81 0 108 100v24q-17 80 -42 80q0 14 -62 28h-4q-48 0 -92 -56zM1356 1049q0 -83 81 -112l23 -4q93 0 108 120q0 69 -69 104l-35 8q-96 -20 -96 -68q-10 0 -12 -48zM2066 1033q0 -41 57 -88l47 -12q80 7 100 76l8 32v12q-3 36 -27 76q-45 36 -78 36h-3
q-64 0 -104 -84v-48zM655 870v-4h266v4l-58 15h-154zM998 870v-4h416v4l-54 15h-308zM1507 870v-4h266v4l-58 15h-154zM1861 866h262v4l-54 15h-154q-54 -10 -54 -19zM49 846h4l-4 -4v-60l4 -16l-4 -16v-32l8 -8h2352v144h-2352zM223 850h15v-16h-11v-76l19 -4l15 4v76h-7
v16h15q0 -16 8 -16h8v-44q0 -52 -31 -52h-27q-23 14 -23 36v60q19 0 19 8v8zM362 838q35 0 57 -32v-4h-23l-23 16h-15q-31 0 -35 -32q0 -32 43 -32q16 0 38 12v4h-54v16h77q0 -35 -50 -48h-27q-30 3 -50 36v24q30 40 62 40zM547 838q35 0 58 -32v-4h-24l-23 16h-15
q-31 0 -35 -32q0 -32 43 -32q16 0 38 12v4h-54v16h77q0 -35 -50 -48h-27q-30 3 -50 36v24q30 40 62 40zM813 838q31 0 61 -40v-24q-26 -36 -54 -36h-23q-34 0 -50 48q0 41 66 52zM948 838q37 -4 54 -28h3v-8h-23l-23 16h-15q-35 -8 -35 -20v-24q9 -20 39 -20h3l39 12v4h-54
v16h77q-13 -48 -54 -48h-23q-36 0 -54 48q4 20 27 36q0 9 39 16zM1106 838q22 0 34 -32h-27v12h-19v-20q46 -12 46 -24v-4q-4 -32 -30 -32h-12q-18 0 -31 20v8h23q0 -12 8 -12h12l7 8v12q-50 10 -50 32q12 32 39 32zM1487 838q39 -6 39 -16q22 -12 27 -36q-16 -48 -54 -48
h-23q-37 0 -54 48q19 52 65 52zM115 834h73v-16l-50 -64h50v-16h-77v12l46 60v4h-42v20zM446 834h24v-96h-24v96zM678 834h27v-80h38v-16h-65v96zM1029 834h23v-96h-23v96zM1148 834h73v-20h-23v-76h-23v76h-27v20zM1233 834h23v-96h-23v96zM1279 834h23v-96h-23v96z
M1368 834v-4q-10 0 -12 -16l-27 -28l35 -48h-19q-9 2 -39 44v8q8 0 8 12q12 0 27 32h27zM1568 834h8l58 -4l11 -28q0 -15 -23 -28h-31v-36h-23v96zM1649 834h73v-20h-27v-76h-23v76h-23v20zM1730 834h27v-96h-27v96zM1776 834h35q0 -13 27 -68v-4h8l27 64v8h34v-96h-27l4 64
q-9 0 -31 -64h-23l-27 68h-3v-20l3 -48h-27v96zM1927 834h27v-96h-27v96zM1973 834h66v-20h-43v-20h43v-16h-43v-24h43v-16h-66v96zM2062 834h11q73 0 73 -28v-12q-9 -20 -30 -20l30 -36h-30q0 13 -31 40v-40h-23v96zM2162 834h65v-20h-42v-20h42v-16h-42v-24h42v-16h-65v96
zM2251 834h19l54 -60v60h27v-96h-27q0 8 -46 56v4h-4v-60h-23v96zM770 794v-16q14 -24 35 -24h8q38 0 38 32t-34 32h-20q-27 -17 -27 -24zM1449 798v-24q8 -20 38 -20t39 20v24q0 12 -35 20h-8q-34 -8 -34 -20zM1591 814v-24h23l8 8v12l-19 4h-12zM2085 814v-32h15
q20 0 23 12v16l-19 4h-19zM38 646h62l42 -159q9 3 46 159h58q7 0 46 -159h4l43 159h61v-4q-73 -247 -81 -247h-58l-38 155h-8q-33 -155 -42 -155h-54q-9 0 -81 251zM408 646h62l42 -159q9 3 46 159h58q7 0 46 -159h4l43 159h61v-4q-73 -247 -81 -247h-57l-39 155h-8
q-33 -155 -42 -155h-54q-9 0 -81 251zM778 646h62l42 -159q9 3 46 159h58q7 0 46 -159h4l43 159h61v-4q-73 -247 -81 -247h-57l-39 155h-8q-33 -155 -42 -155h-54q-9 0 -81 251zM1175 463h69v-68h-69v68zM300 343h69v-343h-69v343zM990 343h69v-60h-69v60zM1190 339v-88h47
v-52h-47v-139q0 -12 16 -12l27 4v-4l4 -24v-20l-47 -8h-7q-58 0 -58 72l-4 107v24h-31v52h31v44q1 7 69 44zM535 255h4q119 -14 119 -119v-20q0 -89 -92 -116l-27 -4q-123 11 -123 120v20q0 105 119 119zM797 255q27 0 62 -36v32h69v-139q0 -184 -31 -184q-18 -28 -80 -28
q-116 0 -116 88h4q73 0 73 -16q0 -20 27 -20h12q42 0 42 36v52q-33 -40 -69 -40h-4q-89 16 -89 112v31q0 78 66 108zM1379 255h4q120 -14 120 -119v-20q0 -89 -93 -116l-27 -4q-123 11 -123 120v20q0 105 119 119zM1641 255q27 0 62 -36v32h70v-139q0 -184 -31 -184
q-19 -28 -81 -28q-116 0 -116 88h4q73 0 73 -16q0 -20 27 -20h12q42 0 42 36v52q-33 -40 -69 -40h-4q-89 16 -89 112v31q0 78 66 108zM1942 255h4q120 -14 120 -119v-20q0 -89 -93 -116l-27 -4q-123 11 -123 120v20q0 105 119 119zM990 251h69v-251h-69v251zM481 147v-43
q0 -50 62 -56q37 0 50 56v43q0 50 -62 56q-37 0 -50 -56zM763 147v-39q5 -56 46 -56q42 0 50 60v39q-10 52 -46 52h-4q-41 0 -46 -56zM1325 147v-43q0 -50 62 -56q37 0 50 56v43q0 50 -62 56q-36 0 -50 -56zM1607 147v-39q5 -56 46 -56q42 0 50 60v39q-10 52 -46 52h-4
q-41 0 -46 -56zM1888 147v-43q0 -50 62 -56q37 0 50 56v43q0 50 -62 56q-37 0 -50 -56zM1584 -144h4q66 0 92 -56l8 -27h-4l-62 -8q-2 39 -34 39h-8q-32 0 -43 -47v-52q0 -56 51 -56q34 0 38 48l66 -8q0 -56 -62 -84q-15 -8 -42 -8h-4q-112 10 -112 116v28q10 115 112 115z
M1850 -144h3q120 -14 120 -119v-20q0 -89 -93 -116l-27 -4q-123 11 -123 120v20q0 105 120 119zM2162 -144q31 0 62 -40q0 23 69 40q85 0 85 -103v-152h-70v172q0 31 -30 31h-4q-37 0 -43 -55v-148h-69v172q0 31 -31 31h-4q-42 -7 -42 -51v-152h-70v251h70v-28q33 32 77 32z
M1796 -251v-44q0 -50 61 -56q37 0 50 56v44q0 49 -61 55q-37 0 -50 -55zM1352 -331h70v-68h-70v68z" />
    <glyph glyph-name="at" unicode="@" 
d="M358 1416h2066v-531h-154l-54 -15v-4h208v-172h-2390v172h528v4l-54 15h-339q-95 0 -108 44q-27 26 -27 52v48q0 30 89 152l69 103q65 101 81 108q41 23 85 24zM46 1005q0 -70 81 -104h370q-62 69 -62 152q0 88 81 156q54 27 100 27q43 0 100 -39l35 -40q31 -49 31 -108
q0 -80 -62 -148h131q-65 69 -65 152v8q0 37 31 96q57 79 138 79h27q82 0 135 -107h-77q-41 36 -62 36h-34q-34 0 -81 -60l-8 -40v-24q0 -75 85 -104h50q51 24 66 60v4l-4 -4l-4 4h-4l-4 -4l-4 4h-4l-3 -4l-4 4h-4l-4 -4l-4 4h-11l-4 -4l-4 4h-4l-4 -4l-4 4h-4l-3 -4l-4 4
h-23l-4 -4l-4 4h-4l-4 -4h-4l-4 4v60h209v-4q0 -97 -62 -152v-4h278q-58 73 -58 116v52q0 96 104 152q37 15 73 15q62 0 127 -67q39 -61 39 -100v-32q0 -65 -62 -136h131v8q-8 0 -8 12q-23 4 -50 88l-4 40v16q0 72 81 144q45 27 101 27q83 0 119 -63q12 0 27 -36v-8h-81
q0 22 -65 36h-20q-92 -24 -92 -116q0 -98 104 -116q64 0 96 64h-131v44l-4 4l4 16h208v-20q0 -71 -61 -140h131v8h-8q0 10 -19 28q-35 57 -35 116q0 116 123 176l54 7q51 0 105 -39q2 -16 19 -16q46 -64 46 -132q0 -75 -38 -116l-24 -32h128v499h-2055q-74 0 -120 -80
l-96 -143q-92 -127 -92 -172zM1136 1352h1203v-64h-1060v-359h-65v359h-78v64zM423 1336h97q-82 -112 -124 -183q-7 0 -7 -12q-8 0 -50 -68q-51 -67 -51 -80h51l3 4l4 -4h4l4 4l4 -4h73v-64h-297l66 96l166 231q43 72 57 80zM1140 1236h62v-307h-62v307zM500 1053
q0 -62 62 -108l46 -12q81 0 108 100v24q-17 80 -42 80q0 14 -62 28h-4q-48 0 -92 -56zM1356 1049q0 -83 81 -112l23 -4q93 0 108 120q0 69 -69 104l-35 8q-96 -20 -96 -68q-10 0 -12 -48zM2066 1033q0 -41 57 -88l47 -12q80 7 100 76l8 32v12q-3 36 -27 76q-45 36 -78 36h-3
q-64 0 -104 -84v-48zM655 870v-4h266v4l-58 15h-154zM998 870v-4h416v4l-54 15h-308zM1507 870v-4h266v4l-58 15h-154zM1861 866h262v4l-54 15h-154q-54 -10 -54 -19zM49 846h4l-4 -4v-60l4 -16l-4 -16v-32l8 -8h2352v144h-2352zM223 850h15v-16h-11v-76l19 -4l15 4v76h-7
v16h15q0 -16 8 -16h8v-44q0 -52 -31 -52h-27q-23 14 -23 36v60q19 0 19 8v8zM362 838q35 0 57 -32v-4h-23l-23 16h-15q-31 0 -35 -32q0 -32 43 -32q16 0 38 12v4h-54v16h77q0 -35 -50 -48h-27q-30 3 -50 36v24q30 40 62 40zM547 838q35 0 58 -32v-4h-24l-23 16h-15
q-31 0 -35 -32q0 -32 43 -32q16 0 38 12v4h-54v16h77q0 -35 -50 -48h-27q-30 3 -50 36v24q30 40 62 40zM813 838q31 0 61 -40v-24q-26 -36 -54 -36h-23q-34 0 -50 48q0 41 66 52zM948 838q37 -4 54 -28h3v-8h-23l-23 16h-15q-35 -8 -35 -20v-24q9 -20 39 -20h3l39 12v4h-54
v16h77q-13 -48 -54 -48h-23q-36 0 -54 48q4 20 27 36q0 9 39 16zM1106 838q22 0 34 -32h-27v12h-19v-20q46 -12 46 -24v-4q-4 -32 -30 -32h-12q-18 0 -31 20v8h23q0 -12 8 -12h12l7 8v12q-50 10 -50 32q12 32 39 32zM1487 838q39 -6 39 -16q22 -12 27 -36q-16 -48 -54 -48
h-23q-37 0 -54 48q19 52 65 52zM115 834h73v-16l-50 -64h50v-16h-77v12l46 60v4h-42v20zM446 834h24v-96h-24v96zM678 834h27v-80h38v-16h-65v96zM1029 834h23v-96h-23v96zM1148 834h73v-20h-23v-76h-23v76h-27v20zM1233 834h23v-96h-23v96zM1279 834h23v-96h-23v96z
M1368 834v-4q-10 0 -12 -16l-27 -28l35 -48h-19q-9 2 -39 44v8q8 0 8 12q12 0 27 32h27zM1568 834h8l58 -4l11 -28q0 -15 -23 -28h-31v-36h-23v96zM1649 834h73v-20h-27v-76h-23v76h-23v20zM1730 834h27v-96h-27v96zM1776 834h35q0 -13 27 -68v-4h8l27 64v8h34v-96h-27l4 64
q-9 0 -31 -64h-23l-27 68h-3v-20l3 -48h-27v96zM1927 834h27v-96h-27v96zM1973 834h66v-20h-43v-20h43v-16h-43v-24h43v-16h-66v96zM2062 834h11q73 0 73 -28v-12q-9 -20 -30 -20l30 -36h-30q0 13 -31 40v-40h-23v96zM2162 834h65v-20h-42v-20h42v-16h-42v-24h42v-16h-65v96
zM2251 834h19l54 -60v60h27v-96h-27q0 8 -46 56v4h-4v-60h-23v96zM770 794v-16q14 -24 35 -24h8q38 0 38 32t-34 32h-20q-27 -17 -27 -24zM1449 798v-24q8 -20 38 -20t39 20v24q0 12 -35 20h-8q-34 -8 -34 -20zM1591 814v-24h23l8 8v12l-19 4h-12zM2085 814v-32h15
q20 0 23 12v16l-19 4h-19zM38 646h62l42 -159q9 3 46 159h58q7 0 46 -159h4l43 159h61v-4q-73 -247 -81 -247h-58l-38 155h-8q-33 -155 -42 -155h-54q-9 0 -81 251zM408 646h62l42 -159q9 3 46 159h58q7 0 46 -159h4l43 159h61v-4q-73 -247 -81 -247h-57l-39 155h-8
q-33 -155 -42 -155h-54q-9 0 -81 251zM778 646h62l42 -159q9 3 46 159h58q7 0 46 -159h4l43 159h61v-4q-73 -247 -81 -247h-57l-39 155h-8q-33 -155 -42 -155h-54q-9 0 -81 251zM1175 463h69v-68h-69v68zM300 343h69v-343h-69v343zM990 343h69v-60h-69v60zM1190 339v-88h47
v-52h-47v-139q0 -12 16 -12l27 4v-4l4 -24v-20l-47 -8h-7q-58 0 -58 72l-4 107v24h-31v52h31v44q1 7 69 44zM535 255h4q119 -14 119 -119v-20q0 -89 -92 -116l-27 -4q-123 11 -123 120v20q0 105 119 119zM797 255q27 0 62 -36v32h69v-139q0 -184 -31 -184q-18 -28 -80 -28
q-116 0 -116 88h4q73 0 73 -16q0 -20 27 -20h12q42 0 42 36v52q-33 -40 -69 -40h-4q-89 16 -89 112v31q0 78 66 108zM1379 255h4q120 -14 120 -119v-20q0 -89 -93 -116l-27 -4q-123 11 -123 120v20q0 105 119 119zM1641 255q27 0 62 -36v32h70v-139q0 -184 -31 -184
q-19 -28 -81 -28q-116 0 -116 88h4q73 0 73 -16q0 -20 27 -20h12q42 0 42 36v52q-33 -40 -69 -40h-4q-89 16 -89 112v31q0 78 66 108zM1942 255h4q120 -14 120 -119v-20q0 -89 -93 -116l-27 -4q-123 11 -123 120v20q0 105 119 119zM990 251h69v-251h-69v251zM481 147v-43
q0 -50 62 -56q37 0 50 56v43q0 50 -62 56q-37 0 -50 -56zM763 147v-39q5 -56 46 -56q42 0 50 60v39q-10 52 -46 52h-4q-41 0 -46 -56zM1325 147v-43q0 -50 62 -56q37 0 50 56v43q0 50 -62 56q-36 0 -50 -56zM1607 147v-39q5 -56 46 -56q42 0 50 60v39q-10 52 -46 52h-4
q-41 0 -46 -56zM1888 147v-43q0 -50 62 -56q37 0 50 56v43q0 50 -62 56q-37 0 -50 -56zM1584 -144h4q66 0 92 -56l8 -27h-4l-62 -8q-2 39 -34 39h-8q-32 0 -43 -47v-52q0 -56 51 -56q34 0 38 48l66 -8q0 -56 -62 -84q-15 -8 -42 -8h-4q-112 10 -112 116v28q10 115 112 115z
M1850 -144h3q120 -14 120 -119v-20q0 -89 -93 -116l-27 -4q-123 11 -123 120v20q0 105 120 119zM2162 -144q31 0 62 -40q0 23 69 40q85 0 85 -103v-152h-70v172q0 31 -30 31h-4q-37 0 -43 -55v-148h-69v172q0 31 -31 31h-4q-42 -7 -42 -51v-152h-70v251h70v-28q33 32 77 32z
M1796 -251v-44q0 -50 61 -56q37 0 50 56v44q0 49 -61 55q-37 0 -50 -55zM1352 -331h70v-68h-70v68z" />
    <glyph glyph-name="A" unicode="A" horiz-adv-x="935" 
d="M289 1728v-2222h-68v2222h68zM425 1728v-2222h-68v2222h68zM0 -494v2222h153v-2222h-153zM714 -494v2222h153v-2222h-153zM646 1728v-2222h-68v2222h68z" />
    <glyph glyph-name="B" unicode="B" horiz-adv-x="935" 
d="M68 1728v-2222h-68v2222h68zM425 1728v-2222h-68v2222h68zM136 -494v2222h153v-2222h-153zM714 -494v2222h153v-2222h-153zM646 1728v-2222h-68v2222h68z" />
    <glyph glyph-name="C" unicode="C" horiz-adv-x="935" 
d="M731 1728v-2222h-68v2222h68zM510 1728v-2222h-68v2222h68zM0 -494v2222h153v-2222h-153zM221 -494v2222h153v-2222h-153zM867 1728v-2222h-68v2222h68z" />
    <glyph glyph-name="D" unicode="D" horiz-adv-x="935" 
d="M204 1728v-2222h-68v2222h68zM646 1728v-2222h-68v2222h68zM714 -494v2222h153v-2222h-153zM272 -494v2222h153v-2222h-153zM68 1728v-2222h-68v2222h68z" />
    <glyph glyph-name="E" unicode="E" horiz-adv-x="935" 
d="M289 1728v-2222h-68v2222h68zM731 1728v-2222h-68v2222h68zM357 -494v2222h153v-2222h-153zM0 -494v2222h153v-2222h-153zM867 1728v-2222h-68v2222h68z" />
    <glyph glyph-name="F" unicode="F" horiz-adv-x="935" 
d="M68 1728v-2222h-68v2222h68zM731 1728v-2222h-68v2222h68zM136 -494v2222h153v-2222h-153zM357 -494v2222h153v-2222h-153zM867 1728v-2222h-68v2222h68z" />
    <glyph glyph-name="G" unicode="G" horiz-adv-x="935" 
d="M68 1728v-2222h-68v2222h68zM204 1728v-2222h-68v2222h68zM493 -494v2222h153v-2222h-153zM714 -494v2222h153v-2222h-153zM340 1728v-2222h-68v2222h68z" />
    <glyph glyph-name="H" unicode="H" horiz-adv-x="935" 
d="M867 1728v-2222h-68v2222h68zM425 1728v-2222h-68v2222h68zM578 -494v2222h153v-2222h-153zM0 -494v2222h153v-2222h-153zM289 1728v-2222h-68v2222h68z" />
    <glyph glyph-name="I" unicode="I" horiz-adv-x="935" 
d="M867 1728v-2222h-68v2222h68zM425 1728v-2222h-68v2222h68zM578 -494v2222h153v-2222h-153zM136 -494v2222h153v-2222h-153zM68 1728v-2222h-68v2222h68z" />
    <glyph glyph-name="J" unicode="J" horiz-adv-x="935" 
d="M867 1728v-2222h-68v2222h68zM204 1728v-2222h-68v2222h68zM272 -494v2222h153v-2222h-153zM68 1728v-2222h-68v2222h68zM578 -494v2222h153v-2222h-153z" />
    <glyph glyph-name="K" unicode="K" horiz-adv-x="935" 
d="M561 1728v-2222h-68v2222h68zM289 1728v-2222h-68v2222h68zM0 -494v2222h153v-2222h-153zM425 1728v-2222h-68v2222h68zM714 -494v2222h153v-2222h-153z" />
    <glyph glyph-name="L" unicode="L" horiz-adv-x="935" 
d="M561 1728v-2222h-68v2222h68zM68 1728v-2222h-68v2222h68zM136 -494v2222h153v-2222h-153zM425 1728v-2222h-68v2222h68zM714 -494v2222h153v-2222h-153z" />
    <glyph glyph-name="M" unicode="M" horiz-adv-x="935" 
d="M510 1728v-2222h-68v2222h68zM646 1728v-2222h-68v2222h68zM0 -494v2222h153v-2222h-153zM867 1728v-2222h-68v2222h68zM221 -494v2222h153v-2222h-153z" />
    <glyph glyph-name="N" unicode="N" horiz-adv-x="935" 
d="M68 1728v-2222h-68v2222h68zM204 1728v-2222h-68v2222h68zM272 -494v2222h153v-2222h-153zM561 1728v-2222h-68v2222h68zM714 -494v2222h153v-2222h-153z" />
    <glyph glyph-name="O" unicode="O" horiz-adv-x="935" 
d="M867 1728v-2222h-68v2222h68zM289 1728v-2222h-68v2222h68zM357 -494v2222h153v-2222h-153zM646 1728v-2222h-68v2222h68zM0 -494v2222h153v-2222h-153z" />
    <glyph glyph-name="P" unicode="P" horiz-adv-x="935" 
d="M867 1728v-2222h-68v2222h68zM68 1728v-2222h-68v2222h68zM136 -494v2222h153v-2222h-153zM646 1728v-2222h-68v2222h68zM357 -494v2222h153v-2222h-153z" />
    <glyph glyph-name="Q" unicode="Q" horiz-adv-x="935" 
d="M204 1728v-2222h-68v2222h68zM68 1728v-2222h-68v2222h68zM714 -494v2222h153v-2222h-153zM340 1728v-2222h-68v2222h68zM408 -494v2222h153v-2222h-153z" />
    <glyph glyph-name="R" unicode="R" horiz-adv-x="935" 
d="M425 1728v-2222h-68v2222h68zM867 1728v-2222h-68v2222h68zM493 -494v2222h153v-2222h-153zM289 1728v-2222h-68v2222h68zM0 -494v2222h153v-2222h-153z" />
    <glyph glyph-name="S" unicode="S" horiz-adv-x="935" 
d="M425 1728v-2222h-68v2222h68zM867 1728v-2222h-68v2222h68zM493 -494v2222h153v-2222h-153zM68 1728v-2222h-68v2222h68zM136 -494v2222h153v-2222h-153z" />
    <glyph glyph-name="T" unicode="T" horiz-adv-x="935" 
d="M204 1728v-2222h-68v2222h68zM867 1728v-2222h-68v2222h68zM493 -494v2222h153v-2222h-153zM68 1728v-2222h-68v2222h68zM272 -494v2222h153v-2222h-153z" />
    <glyph glyph-name="U" unicode="U" horiz-adv-x="935" 
d="M510 1728v-2222h-68v2222h68zM646 1728v-2222h-68v2222h68zM714 -494v2222h153v-2222h-153zM374 1728v-2222h-68v2222h68zM0 -494v2222h153v-2222h-153z" />
    <glyph glyph-name="V" unicode="V" horiz-adv-x="935" 
d="M510 1728v-2222h-68v2222h68zM646 1728v-2222h-68v2222h68zM714 -494v2222h153v-2222h-153zM68 1728v-2222h-68v2222h68zM221 -494v2222h153v-2222h-153z" />
    <glyph glyph-name="W" unicode="W" horiz-adv-x="935" 
d="M595 1728v-2222h-68v2222h68zM731 1728v-2222h-68v2222h68zM0 -494v2222h153v-2222h-153zM867 1728v-2222h-68v2222h68zM306 -494v2222h153v-2222h-153z" />
    <glyph glyph-name="X" unicode="X" horiz-adv-x="935" 
d="M646 1728v-2222h-68v2222h68zM289 1728v-2222h-68v2222h68zM714 -494v2222h153v-2222h-153zM68 1728v-2222h-68v2222h68zM357 -494v2222h153v-2222h-153z" />
    <glyph glyph-name="Y" unicode="Y" horiz-adv-x="935" 
d="M731 1728v-2222h-68v2222h68zM374 1728v-2222h-68v2222h68zM0 -494v2222h153v-2222h-153zM867 1728v-2222h-68v2222h68zM442 -494v2222h153v-2222h-153z" />
    <glyph glyph-name="Z" unicode="Z" horiz-adv-x="935" 
d="M731 1728v-2222h-68v2222h68zM68 1728v-2222h-68v2222h68zM221 -494v2222h153v-2222h-153zM867 1728v-2222h-68v2222h68zM442 -494v2222h153v-2222h-153z" />
    <glyph glyph-name="bracketleft" unicode="[" 
d="M358 1416h2066v-531h-154l-54 -15v-4h208v-172h-2390v172h528v4l-54 15h-339q-95 0 -108 44q-27 26 -27 52v48q0 30 89 152l69 103q65 101 81 108q41 23 85 24zM46 1005q0 -70 81 -104h370q-62 69 -62 152q0 88 81 156q54 27 100 27q43 0 100 -39l35 -40q31 -49 31 -108
q0 -80 -62 -148h131q-65 69 -65 152v8q0 37 31 96q57 79 138 79h27q82 0 135 -107h-77q-41 36 -62 36h-34q-34 0 -81 -60l-8 -40v-24q0 -75 85 -104h50q51 24 66 60v4l-4 -4l-4 4h-4l-4 -4l-4 4h-4l-3 -4l-4 4h-4l-4 -4l-4 4h-11l-4 -4l-4 4h-4l-4 -4l-4 4h-4l-3 -4l-4 4
h-23l-4 -4l-4 4h-4l-4 -4h-4l-4 4v60h209v-4q0 -97 -62 -152v-4h278q-58 73 -58 116v52q0 96 104 152q37 15 73 15q62 0 127 -67q39 -61 39 -100v-32q0 -65 -62 -136h131v8q-8 0 -8 12q-23 4 -50 88l-4 40v16q0 72 81 144q45 27 101 27q83 0 119 -63q12 0 27 -36v-8h-81
q0 22 -65 36h-20q-92 -24 -92 -116q0 -98 104 -116q64 0 96 64h-131v44l-4 4l4 16h208v-20q0 -71 -61 -140h131v8h-8q0 10 -19 28q-35 57 -35 116q0 116 123 176l54 7q51 0 105 -39q2 -16 19 -16q46 -64 46 -132q0 -75 -38 -116l-24 -32h128v499h-2055q-74 0 -120 -80
l-96 -143q-92 -127 -92 -172zM1136 1352h1203v-64h-1060v-359h-65v359h-78v64zM423 1336h97q-82 -112 -124 -183q-7 0 -7 -12q-8 0 -50 -68q-51 -67 -51 -80h51l3 4l4 -4h4l4 4l4 -4h73v-64h-297l66 96l166 231q43 72 57 80zM1140 1236h62v-307h-62v307zM500 1053
q0 -62 62 -108l46 -12q81 0 108 100v24q-17 80 -42 80q0 14 -62 28h-4q-48 0 -92 -56zM1356 1049q0 -83 81 -112l23 -4q93 0 108 120q0 69 -69 104l-35 8q-96 -20 -96 -68q-10 0 -12 -48zM2066 1033q0 -41 57 -88l47 -12q80 7 100 76l8 32v12q-3 36 -27 76q-45 36 -78 36h-3
q-64 0 -104 -84v-48zM655 870v-4h266v4l-58 15h-154zM998 870v-4h416v4l-54 15h-308zM1507 870v-4h266v4l-58 15h-154zM1861 866h262v4l-54 15h-154q-54 -10 -54 -19zM49 846h4l-4 -4v-60l4 -16l-4 -16v-32l8 -8h2352v144h-2352zM223 850h15v-16h-11v-76l19 -4l15 4v76h-7
v16h15q0 -16 8 -16h8v-44q0 -52 -31 -52h-27q-23 14 -23 36v60q19 0 19 8v8zM362 838q35 0 57 -32v-4h-23l-23 16h-15q-31 0 -35 -32q0 -32 43 -32q16 0 38 12v4h-54v16h77q0 -35 -50 -48h-27q-30 3 -50 36v24q30 40 62 40zM547 838q35 0 58 -32v-4h-24l-23 16h-15
q-31 0 -35 -32q0 -32 43 -32q16 0 38 12v4h-54v16h77q0 -35 -50 -48h-27q-30 3 -50 36v24q30 40 62 40zM813 838q31 0 61 -40v-24q-26 -36 -54 -36h-23q-34 0 -50 48q0 41 66 52zM948 838q37 -4 54 -28h3v-8h-23l-23 16h-15q-35 -8 -35 -20v-24q9 -20 39 -20h3l39 12v4h-54
v16h77q-13 -48 -54 -48h-23q-36 0 -54 48q4 20 27 36q0 9 39 16zM1106 838q22 0 34 -32h-27v12h-19v-20q46 -12 46 -24v-4q-4 -32 -30 -32h-12q-18 0 -31 20v8h23q0 -12 8 -12h12l7 8v12q-50 10 -50 32q12 32 39 32zM1487 838q39 -6 39 -16q22 -12 27 -36q-16 -48 -54 -48
h-23q-37 0 -54 48q19 52 65 52zM115 834h73v-16l-50 -64h50v-16h-77v12l46 60v4h-42v20zM446 834h24v-96h-24v96zM678 834h27v-80h38v-16h-65v96zM1029 834h23v-96h-23v96zM1148 834h73v-20h-23v-76h-23v76h-27v20zM1233 834h23v-96h-23v96zM1279 834h23v-96h-23v96z
M1368 834v-4q-10 0 -12 -16l-27 -28l35 -48h-19q-9 2 -39 44v8q8 0 8 12q12 0 27 32h27zM1568 834h8l58 -4l11 -28q0 -15 -23 -28h-31v-36h-23v96zM1649 834h73v-20h-27v-76h-23v76h-23v20zM1730 834h27v-96h-27v96zM1776 834h35q0 -13 27 -68v-4h8l27 64v8h34v-96h-27l4 64
q-9 0 -31 -64h-23l-27 68h-3v-20l3 -48h-27v96zM1927 834h27v-96h-27v96zM1973 834h66v-20h-43v-20h43v-16h-43v-24h43v-16h-66v96zM2062 834h11q73 0 73 -28v-12q-9 -20 -30 -20l30 -36h-30q0 13 -31 40v-40h-23v96zM2162 834h65v-20h-42v-20h42v-16h-42v-24h42v-16h-65v96
zM2251 834h19l54 -60v60h27v-96h-27q0 8 -46 56v4h-4v-60h-23v96zM770 794v-16q14 -24 35 -24h8q38 0 38 32t-34 32h-20q-27 -17 -27 -24zM1449 798v-24q8 -20 38 -20t39 20v24q0 12 -35 20h-8q-34 -8 -34 -20zM1591 814v-24h23l8 8v12l-19 4h-12zM2085 814v-32h15
q20 0 23 12v16l-19 4h-19zM38 646h62l42 -159q9 3 46 159h58q7 0 46 -159h4l43 159h61v-4q-73 -247 -81 -247h-58l-38 155h-8q-33 -155 -42 -155h-54q-9 0 -81 251zM408 646h62l42 -159q9 3 46 159h58q7 0 46 -159h4l43 159h61v-4q-73 -247 -81 -247h-57l-39 155h-8
q-33 -155 -42 -155h-54q-9 0 -81 251zM778 646h62l42 -159q9 3 46 159h58q7 0 46 -159h4l43 159h61v-4q-73 -247 -81 -247h-57l-39 155h-8q-33 -155 -42 -155h-54q-9 0 -81 251zM1175 463h69v-68h-69v68zM300 343h69v-343h-69v343zM990 343h69v-60h-69v60zM1190 339v-88h47
v-52h-47v-139q0 -12 16 -12l27 4v-4l4 -24v-20l-47 -8h-7q-58 0 -58 72l-4 107v24h-31v52h31v44q1 7 69 44zM535 255h4q119 -14 119 -119v-20q0 -89 -92 -116l-27 -4q-123 11 -123 120v20q0 105 119 119zM797 255q27 0 62 -36v32h69v-139q0 -184 -31 -184q-18 -28 -80 -28
q-116 0 -116 88h4q73 0 73 -16q0 -20 27 -20h12q42 0 42 36v52q-33 -40 -69 -40h-4q-89 16 -89 112v31q0 78 66 108zM1379 255h4q120 -14 120 -119v-20q0 -89 -93 -116l-27 -4q-123 11 -123 120v20q0 105 119 119zM1641 255q27 0 62 -36v32h70v-139q0 -184 -31 -184
q-19 -28 -81 -28q-116 0 -116 88h4q73 0 73 -16q0 -20 27 -20h12q42 0 42 36v52q-33 -40 -69 -40h-4q-89 16 -89 112v31q0 78 66 108zM1942 255h4q120 -14 120 -119v-20q0 -89 -93 -116l-27 -4q-123 11 -123 120v20q0 105 119 119zM990 251h69v-251h-69v251zM481 147v-43
q0 -50 62 -56q37 0 50 56v43q0 50 -62 56q-37 0 -50 -56zM763 147v-39q5 -56 46 -56q42 0 50 60v39q-10 52 -46 52h-4q-41 0 -46 -56zM1325 147v-43q0 -50 62 -56q37 0 50 56v43q0 50 -62 56q-36 0 -50 -56zM1607 147v-39q5 -56 46 -56q42 0 50 60v39q-10 52 -46 52h-4
q-41 0 -46 -56zM1888 147v-43q0 -50 62 -56q37 0 50 56v43q0 50 -62 56q-37 0 -50 -56zM1584 -144h4q66 0 92 -56l8 -27h-4l-62 -8q-2 39 -34 39h-8q-32 0 -43 -47v-52q0 -56 51 -56q34 0 38 48l66 -8q0 -56 -62 -84q-15 -8 -42 -8h-4q-112 10 -112 116v28q10 115 112 115z
M1850 -144h3q120 -14 120 -119v-20q0 -89 -93 -116l-27 -4q-123 11 -123 120v20q0 105 120 119zM2162 -144q31 0 62 -40q0 23 69 40q85 0 85 -103v-152h-70v172q0 31 -30 31h-4q-37 0 -43 -55v-148h-69v172q0 31 -31 31h-4q-42 -7 -42 -51v-152h-70v251h70v-28q33 32 77 32z
M1796 -251v-44q0 -50 61 -56q37 0 50 56v44q0 49 -61 55q-37 0 -50 -55zM1352 -331h70v-68h-70v68z" />
    <glyph glyph-name="backslash" unicode="\" 
d="M358 1416h2066v-531h-154l-54 -15v-4h208v-172h-2390v172h528v4l-54 15h-339q-95 0 -108 44q-27 26 -27 52v48q0 30 89 152l69 103q65 101 81 108q41 23 85 24zM46 1005q0 -70 81 -104h370q-62 69 -62 152q0 88 81 156q54 27 100 27q43 0 100 -39l35 -40q31 -49 31 -108
q0 -80 -62 -148h131q-65 69 -65 152v8q0 37 31 96q57 79 138 79h27q82 0 135 -107h-77q-41 36 -62 36h-34q-34 0 -81 -60l-8 -40v-24q0 -75 85 -104h50q51 24 66 60v4l-4 -4l-4 4h-4l-4 -4l-4 4h-4l-3 -4l-4 4h-4l-4 -4l-4 4h-11l-4 -4l-4 4h-4l-4 -4l-4 4h-4l-3 -4l-4 4
h-23l-4 -4l-4 4h-4l-4 -4h-4l-4 4v60h209v-4q0 -97 -62 -152v-4h278q-58 73 -58 116v52q0 96 104 152q37 15 73 15q62 0 127 -67q39 -61 39 -100v-32q0 -65 -62 -136h131v8q-8 0 -8 12q-23 4 -50 88l-4 40v16q0 72 81 144q45 27 101 27q83 0 119 -63q12 0 27 -36v-8h-81
q0 22 -65 36h-20q-92 -24 -92 -116q0 -98 104 -116q64 0 96 64h-131v44l-4 4l4 16h208v-20q0 -71 -61 -140h131v8h-8q0 10 -19 28q-35 57 -35 116q0 116 123 176l54 7q51 0 105 -39q2 -16 19 -16q46 -64 46 -132q0 -75 -38 -116l-24 -32h128v499h-2055q-74 0 -120 -80
l-96 -143q-92 -127 -92 -172zM1136 1352h1203v-64h-1060v-359h-65v359h-78v64zM423 1336h97q-82 -112 -124 -183q-7 0 -7 -12q-8 0 -50 -68q-51 -67 -51 -80h51l3 4l4 -4h4l4 4l4 -4h73v-64h-297l66 96l166 231q43 72 57 80zM1140 1236h62v-307h-62v307zM500 1053
q0 -62 62 -108l46 -12q81 0 108 100v24q-17 80 -42 80q0 14 -62 28h-4q-48 0 -92 -56zM1356 1049q0 -83 81 -112l23 -4q93 0 108 120q0 69 -69 104l-35 8q-96 -20 -96 -68q-10 0 -12 -48zM2066 1033q0 -41 57 -88l47 -12q80 7 100 76l8 32v12q-3 36 -27 76q-45 36 -78 36h-3
q-64 0 -104 -84v-48zM655 870v-4h266v4l-58 15h-154zM998 870v-4h416v4l-54 15h-308zM1507 870v-4h266v4l-58 15h-154zM1861 866h262v4l-54 15h-154q-54 -10 -54 -19zM49 846h4l-4 -4v-60l4 -16l-4 -16v-32l8 -8h2352v144h-2352zM223 850h15v-16h-11v-76l19 -4l15 4v76h-7
v16h15q0 -16 8 -16h8v-44q0 -52 -31 -52h-27q-23 14 -23 36v60q19 0 19 8v8zM362 838q35 0 57 -32v-4h-23l-23 16h-15q-31 0 -35 -32q0 -32 43 -32q16 0 38 12v4h-54v16h77q0 -35 -50 -48h-27q-30 3 -50 36v24q30 40 62 40zM547 838q35 0 58 -32v-4h-24l-23 16h-15
q-31 0 -35 -32q0 -32 43 -32q16 0 38 12v4h-54v16h77q0 -35 -50 -48h-27q-30 3 -50 36v24q30 40 62 40zM813 838q31 0 61 -40v-24q-26 -36 -54 -36h-23q-34 0 -50 48q0 41 66 52zM948 838q37 -4 54 -28h3v-8h-23l-23 16h-15q-35 -8 -35 -20v-24q9 -20 39 -20h3l39 12v4h-54
v16h77q-13 -48 -54 -48h-23q-36 0 -54 48q4 20 27 36q0 9 39 16zM1106 838q22 0 34 -32h-27v12h-19v-20q46 -12 46 -24v-4q-4 -32 -30 -32h-12q-18 0 -31 20v8h23q0 -12 8 -12h12l7 8v12q-50 10 -50 32q12 32 39 32zM1487 838q39 -6 39 -16q22 -12 27 -36q-16 -48 -54 -48
h-23q-37 0 -54 48q19 52 65 52zM115 834h73v-16l-50 -64h50v-16h-77v12l46 60v4h-42v20zM446 834h24v-96h-24v96zM678 834h27v-80h38v-16h-65v96zM1029 834h23v-96h-23v96zM1148 834h73v-20h-23v-76h-23v76h-27v20zM1233 834h23v-96h-23v96zM1279 834h23v-96h-23v96z
M1368 834v-4q-10 0 -12 -16l-27 -28l35 -48h-19q-9 2 -39 44v8q8 0 8 12q12 0 27 32h27zM1568 834h8l58 -4l11 -28q0 -15 -23 -28h-31v-36h-23v96zM1649 834h73v-20h-27v-76h-23v76h-23v20zM1730 834h27v-96h-27v96zM1776 834h35q0 -13 27 -68v-4h8l27 64v8h34v-96h-27l4 64
q-9 0 -31 -64h-23l-27 68h-3v-20l3 -48h-27v96zM1927 834h27v-96h-27v96zM1973 834h66v-20h-43v-20h43v-16h-43v-24h43v-16h-66v96zM2062 834h11q73 0 73 -28v-12q-9 -20 -30 -20l30 -36h-30q0 13 -31 40v-40h-23v96zM2162 834h65v-20h-42v-20h42v-16h-42v-24h42v-16h-65v96
zM2251 834h19l54 -60v60h27v-96h-27q0 8 -46 56v4h-4v-60h-23v96zM770 794v-16q14 -24 35 -24h8q38 0 38 32t-34 32h-20q-27 -17 -27 -24zM1449 798v-24q8 -20 38 -20t39 20v24q0 12 -35 20h-8q-34 -8 -34 -20zM1591 814v-24h23l8 8v12l-19 4h-12zM2085 814v-32h15
q20 0 23 12v16l-19 4h-19zM38 646h62l42 -159q9 3 46 159h58q7 0 46 -159h4l43 159h61v-4q-73 -247 -81 -247h-58l-38 155h-8q-33 -155 -42 -155h-54q-9 0 -81 251zM408 646h62l42 -159q9 3 46 159h58q7 0 46 -159h4l43 159h61v-4q-73 -247 -81 -247h-57l-39 155h-8
q-33 -155 -42 -155h-54q-9 0 -81 251zM778 646h62l42 -159q9 3 46 159h58q7 0 46 -159h4l43 159h61v-4q-73 -247 -81 -247h-57l-39 155h-8q-33 -155 -42 -155h-54q-9 0 -81 251zM1175 463h69v-68h-69v68zM300 343h69v-343h-69v343zM990 343h69v-60h-69v60zM1190 339v-88h47
v-52h-47v-139q0 -12 16 -12l27 4v-4l4 -24v-20l-47 -8h-7q-58 0 -58 72l-4 107v24h-31v52h31v44q1 7 69 44zM535 255h4q119 -14 119 -119v-20q0 -89 -92 -116l-27 -4q-123 11 -123 120v20q0 105 119 119zM797 255q27 0 62 -36v32h69v-139q0 -184 -31 -184q-18 -28 -80 -28
q-116 0 -116 88h4q73 0 73 -16q0 -20 27 -20h12q42 0 42 36v52q-33 -40 -69 -40h-4q-89 16 -89 112v31q0 78 66 108zM1379 255h4q120 -14 120 -119v-20q0 -89 -93 -116l-27 -4q-123 11 -123 120v20q0 105 119 119zM1641 255q27 0 62 -36v32h70v-139q0 -184 -31 -184
q-19 -28 -81 -28q-116 0 -116 88h4q73 0 73 -16q0 -20 27 -20h12q42 0 42 36v52q-33 -40 -69 -40h-4q-89 16 -89 112v31q0 78 66 108zM1942 255h4q120 -14 120 -119v-20q0 -89 -93 -116l-27 -4q-123 11 -123 120v20q0 105 119 119zM990 251h69v-251h-69v251zM481 147v-43
q0 -50 62 -56q37 0 50 56v43q0 50 -62 56q-37 0 -50 -56zM763 147v-39q5 -56 46 -56q42 0 50 60v39q-10 52 -46 52h-4q-41 0 -46 -56zM1325 147v-43q0 -50 62 -56q37 0 50 56v43q0 50 -62 56q-36 0 -50 -56zM1607 147v-39q5 -56 46 -56q42 0 50 60v39q-10 52 -46 52h-4
q-41 0 -46 -56zM1888 147v-43q0 -50 62 -56q37 0 50 56v43q0 50 -62 56q-37 0 -50 -56zM1584 -144h4q66 0 92 -56l8 -27h-4l-62 -8q-2 39 -34 39h-8q-32 0 -43 -47v-52q0 -56 51 -56q34 0 38 48l66 -8q0 -56 -62 -84q-15 -8 -42 -8h-4q-112 10 -112 116v28q10 115 112 115z
M1850 -144h3q120 -14 120 -119v-20q0 -89 -93 -116l-27 -4q-123 11 -123 120v20q0 105 120 119zM2162 -144q31 0 62 -40q0 23 69 40q85 0 85 -103v-152h-70v172q0 31 -30 31h-4q-37 0 -43 -55v-148h-69v172q0 31 -31 31h-4q-42 -7 -42 -51v-152h-70v251h70v-28q33 32 77 32z
M1796 -251v-44q0 -50 61 -56q37 0 50 56v44q0 49 -61 55q-37 0 -50 -55zM1352 -331h70v-68h-70v68z" />
    <glyph glyph-name="bracketright" unicode="]" 
d="M358 1416h2066v-531h-154l-54 -15v-4h208v-172h-2390v172h528v4l-54 15h-339q-95 0 -108 44q-27 26 -27 52v48q0 30 89 152l69 103q65 101 81 108q41 23 85 24zM46 1005q0 -70 81 -104h370q-62 69 -62 152q0 88 81 156q54 27 100 27q43 0 100 -39l35 -40q31 -49 31 -108
q0 -80 -62 -148h131q-65 69 -65 152v8q0 37 31 96q57 79 138 79h27q82 0 135 -107h-77q-41 36 -62 36h-34q-34 0 -81 -60l-8 -40v-24q0 -75 85 -104h50q51 24 66 60v4l-4 -4l-4 4h-4l-4 -4l-4 4h-4l-3 -4l-4 4h-4l-4 -4l-4 4h-11l-4 -4l-4 4h-4l-4 -4l-4 4h-4l-3 -4l-4 4
h-23l-4 -4l-4 4h-4l-4 -4h-4l-4 4v60h209v-4q0 -97 -62 -152v-4h278q-58 73 -58 116v52q0 96 104 152q37 15 73 15q62 0 127 -67q39 -61 39 -100v-32q0 -65 -62 -136h131v8q-8 0 -8 12q-23 4 -50 88l-4 40v16q0 72 81 144q45 27 101 27q83 0 119 -63q12 0 27 -36v-8h-81
q0 22 -65 36h-20q-92 -24 -92 -116q0 -98 104 -116q64 0 96 64h-131v44l-4 4l4 16h208v-20q0 -71 -61 -140h131v8h-8q0 10 -19 28q-35 57 -35 116q0 116 123 176l54 7q51 0 105 -39q2 -16 19 -16q46 -64 46 -132q0 -75 -38 -116l-24 -32h128v499h-2055q-74 0 -120 -80
l-96 -143q-92 -127 -92 -172zM1136 1352h1203v-64h-1060v-359h-65v359h-78v64zM423 1336h97q-82 -112 -124 -183q-7 0 -7 -12q-8 0 -50 -68q-51 -67 -51 -80h51l3 4l4 -4h4l4 4l4 -4h73v-64h-297l66 96l166 231q43 72 57 80zM1140 1236h62v-307h-62v307zM500 1053
q0 -62 62 -108l46 -12q81 0 108 100v24q-17 80 -42 80q0 14 -62 28h-4q-48 0 -92 -56zM1356 1049q0 -83 81 -112l23 -4q93 0 108 120q0 69 -69 104l-35 8q-96 -20 -96 -68q-10 0 -12 -48zM2066 1033q0 -41 57 -88l47 -12q80 7 100 76l8 32v12q-3 36 -27 76q-45 36 -78 36h-3
q-64 0 -104 -84v-48zM655 870v-4h266v4l-58 15h-154zM998 870v-4h416v4l-54 15h-308zM1507 870v-4h266v4l-58 15h-154zM1861 866h262v4l-54 15h-154q-54 -10 -54 -19zM49 846h4l-4 -4v-60l4 -16l-4 -16v-32l8 -8h2352v144h-2352zM223 850h15v-16h-11v-76l19 -4l15 4v76h-7
v16h15q0 -16 8 -16h8v-44q0 -52 -31 -52h-27q-23 14 -23 36v60q19 0 19 8v8zM362 838q35 0 57 -32v-4h-23l-23 16h-15q-31 0 -35 -32q0 -32 43 -32q16 0 38 12v4h-54v16h77q0 -35 -50 -48h-27q-30 3 -50 36v24q30 40 62 40zM547 838q35 0 58 -32v-4h-24l-23 16h-15
q-31 0 -35 -32q0 -32 43 -32q16 0 38 12v4h-54v16h77q0 -35 -50 -48h-27q-30 3 -50 36v24q30 40 62 40zM813 838q31 0 61 -40v-24q-26 -36 -54 -36h-23q-34 0 -50 48q0 41 66 52zM948 838q37 -4 54 -28h3v-8h-23l-23 16h-15q-35 -8 -35 -20v-24q9 -20 39 -20h3l39 12v4h-54
v16h77q-13 -48 -54 -48h-23q-36 0 -54 48q4 20 27 36q0 9 39 16zM1106 838q22 0 34 -32h-27v12h-19v-20q46 -12 46 -24v-4q-4 -32 -30 -32h-12q-18 0 -31 20v8h23q0 -12 8 -12h12l7 8v12q-50 10 -50 32q12 32 39 32zM1487 838q39 -6 39 -16q22 -12 27 -36q-16 -48 -54 -48
h-23q-37 0 -54 48q19 52 65 52zM115 834h73v-16l-50 -64h50v-16h-77v12l46 60v4h-42v20zM446 834h24v-96h-24v96zM678 834h27v-80h38v-16h-65v96zM1029 834h23v-96h-23v96zM1148 834h73v-20h-23v-76h-23v76h-27v20zM1233 834h23v-96h-23v96zM1279 834h23v-96h-23v96z
M1368 834v-4q-10 0 -12 -16l-27 -28l35 -48h-19q-9 2 -39 44v8q8 0 8 12q12 0 27 32h27zM1568 834h8l58 -4l11 -28q0 -15 -23 -28h-31v-36h-23v96zM1649 834h73v-20h-27v-76h-23v76h-23v20zM1730 834h27v-96h-27v96zM1776 834h35q0 -13 27 -68v-4h8l27 64v8h34v-96h-27l4 64
q-9 0 -31 -64h-23l-27 68h-3v-20l3 -48h-27v96zM1927 834h27v-96h-27v96zM1973 834h66v-20h-43v-20h43v-16h-43v-24h43v-16h-66v96zM2062 834h11q73 0 73 -28v-12q-9 -20 -30 -20l30 -36h-30q0 13 -31 40v-40h-23v96zM2162 834h65v-20h-42v-20h42v-16h-42v-24h42v-16h-65v96
zM2251 834h19l54 -60v60h27v-96h-27q0 8 -46 56v4h-4v-60h-23v96zM770 794v-16q14 -24 35 -24h8q38 0 38 32t-34 32h-20q-27 -17 -27 -24zM1449 798v-24q8 -20 38 -20t39 20v24q0 12 -35 20h-8q-34 -8 -34 -20zM1591 814v-24h23l8 8v12l-19 4h-12zM2085 814v-32h15
q20 0 23 12v16l-19 4h-19zM38 646h62l42 -159q9 3 46 159h58q7 0 46 -159h4l43 159h61v-4q-73 -247 -81 -247h-58l-38 155h-8q-33 -155 -42 -155h-54q-9 0 -81 251zM408 646h62l42 -159q9 3 46 159h58q7 0 46 -159h4l43 159h61v-4q-73 -247 -81 -247h-57l-39 155h-8
q-33 -155 -42 -155h-54q-9 0 -81 251zM778 646h62l42 -159q9 3 46 159h58q7 0 46 -159h4l43 159h61v-4q-73 -247 -81 -247h-57l-39 155h-8q-33 -155 -42 -155h-54q-9 0 -81 251zM1175 463h69v-68h-69v68zM300 343h69v-343h-69v343zM990 343h69v-60h-69v60zM1190 339v-88h47
v-52h-47v-139q0 -12 16 -12l27 4v-4l4 -24v-20l-47 -8h-7q-58 0 -58 72l-4 107v24h-31v52h31v44q1 7 69 44zM535 255h4q119 -14 119 -119v-20q0 -89 -92 -116l-27 -4q-123 11 -123 120v20q0 105 119 119zM797 255q27 0 62 -36v32h69v-139q0 -184 -31 -184q-18 -28 -80 -28
q-116 0 -116 88h4q73 0 73 -16q0 -20 27 -20h12q42 0 42 36v52q-33 -40 -69 -40h-4q-89 16 -89 112v31q0 78 66 108zM1379 255h4q120 -14 120 -119v-20q0 -89 -93 -116l-27 -4q-123 11 -123 120v20q0 105 119 119zM1641 255q27 0 62 -36v32h70v-139q0 -184 -31 -184
q-19 -28 -81 -28q-116 0 -116 88h4q73 0 73 -16q0 -20 27 -20h12q42 0 42 36v52q-33 -40 -69 -40h-4q-89 16 -89 112v31q0 78 66 108zM1942 255h4q120 -14 120 -119v-20q0 -89 -93 -116l-27 -4q-123 11 -123 120v20q0 105 119 119zM990 251h69v-251h-69v251zM481 147v-43
q0 -50 62 -56q37 0 50 56v43q0 50 -62 56q-37 0 -50 -56zM763 147v-39q5 -56 46 -56q42 0 50 60v39q-10 52 -46 52h-4q-41 0 -46 -56zM1325 147v-43q0 -50 62 -56q37 0 50 56v43q0 50 -62 56q-36 0 -50 -56zM1607 147v-39q5 -56 46 -56q42 0 50 60v39q-10 52 -46 52h-4
q-41 0 -46 -56zM1888 147v-43q0 -50 62 -56q37 0 50 56v43q0 50 -62 56q-37 0 -50 -56zM1584 -144h4q66 0 92 -56l8 -27h-4l-62 -8q-2 39 -34 39h-8q-32 0 -43 -47v-52q0 -56 51 -56q34 0 38 48l66 -8q0 -56 -62 -84q-15 -8 -42 -8h-4q-112 10 -112 116v28q10 115 112 115z
M1850 -144h3q120 -14 120 -119v-20q0 -89 -93 -116l-27 -4q-123 11 -123 120v20q0 105 120 119zM2162 -144q31 0 62 -40q0 23 69 40q85 0 85 -103v-152h-70v172q0 31 -30 31h-4q-37 0 -43 -55v-148h-69v172q0 31 -31 31h-4q-42 -7 -42 -51v-152h-70v251h70v-28q33 32 77 32z
M1796 -251v-44q0 -50 61 -56q37 0 50 56v44q0 49 -61 55q-37 0 -50 -55zM1352 -331h70v-68h-70v68z" />
    <glyph glyph-name="asciicircum" unicode="^" 
d="M358 1416h2066v-531h-154l-54 -15v-4h208v-172h-2390v172h528v4l-54 15h-339q-95 0 -108 44q-27 26 -27 52v48q0 30 89 152l69 103q65 101 81 108q41 23 85 24zM46 1005q0 -70 81 -104h370q-62 69 -62 152q0 88 81 156q54 27 100 27q43 0 100 -39l35 -40q31 -49 31 -108
q0 -80 -62 -148h131q-65 69 -65 152v8q0 37 31 96q57 79 138 79h27q82 0 135 -107h-77q-41 36 -62 36h-34q-34 0 -81 -60l-8 -40v-24q0 -75 85 -104h50q51 24 66 60v4l-4 -4l-4 4h-4l-4 -4l-4 4h-4l-3 -4l-4 4h-4l-4 -4l-4 4h-11l-4 -4l-4 4h-4l-4 -4l-4 4h-4l-3 -4l-4 4
h-23l-4 -4l-4 4h-4l-4 -4h-4l-4 4v60h209v-4q0 -97 -62 -152v-4h278q-58 73 -58 116v52q0 96 104 152q37 15 73 15q62 0 127 -67q39 -61 39 -100v-32q0 -65 -62 -136h131v8q-8 0 -8 12q-23 4 -50 88l-4 40v16q0 72 81 144q45 27 101 27q83 0 119 -63q12 0 27 -36v-8h-81
q0 22 -65 36h-20q-92 -24 -92 -116q0 -98 104 -116q64 0 96 64h-131v44l-4 4l4 16h208v-20q0 -71 -61 -140h131v8h-8q0 10 -19 28q-35 57 -35 116q0 116 123 176l54 7q51 0 105 -39q2 -16 19 -16q46 -64 46 -132q0 -75 -38 -116l-24 -32h128v499h-2055q-74 0 -120 -80
l-96 -143q-92 -127 -92 -172zM1136 1352h1203v-64h-1060v-359h-65v359h-78v64zM423 1336h97q-82 -112 -124 -183q-7 0 -7 -12q-8 0 -50 -68q-51 -67 -51 -80h51l3 4l4 -4h4l4 4l4 -4h73v-64h-297l66 96l166 231q43 72 57 80zM1140 1236h62v-307h-62v307zM500 1053
q0 -62 62 -108l46 -12q81 0 108 100v24q-17 80 -42 80q0 14 -62 28h-4q-48 0 -92 -56zM1356 1049q0 -83 81 -112l23 -4q93 0 108 120q0 69 -69 104l-35 8q-96 -20 -96 -68q-10 0 -12 -48zM2066 1033q0 -41 57 -88l47 -12q80 7 100 76l8 32v12q-3 36 -27 76q-45 36 -78 36h-3
q-64 0 -104 -84v-48zM655 870v-4h266v4l-58 15h-154zM998 870v-4h416v4l-54 15h-308zM1507 870v-4h266v4l-58 15h-154zM1861 866h262v4l-54 15h-154q-54 -10 -54 -19zM49 846h4l-4 -4v-60l4 -16l-4 -16v-32l8 -8h2352v144h-2352zM223 850h15v-16h-11v-76l19 -4l15 4v76h-7
v16h15q0 -16 8 -16h8v-44q0 -52 -31 -52h-27q-23 14 -23 36v60q19 0 19 8v8zM362 838q35 0 57 -32v-4h-23l-23 16h-15q-31 0 -35 -32q0 -32 43 -32q16 0 38 12v4h-54v16h77q0 -35 -50 -48h-27q-30 3 -50 36v24q30 40 62 40zM547 838q35 0 58 -32v-4h-24l-23 16h-15
q-31 0 -35 -32q0 -32 43 -32q16 0 38 12v4h-54v16h77q0 -35 -50 -48h-27q-30 3 -50 36v24q30 40 62 40zM813 838q31 0 61 -40v-24q-26 -36 -54 -36h-23q-34 0 -50 48q0 41 66 52zM948 838q37 -4 54 -28h3v-8h-23l-23 16h-15q-35 -8 -35 -20v-24q9 -20 39 -20h3l39 12v4h-54
v16h77q-13 -48 -54 -48h-23q-36 0 -54 48q4 20 27 36q0 9 39 16zM1106 838q22 0 34 -32h-27v12h-19v-20q46 -12 46 -24v-4q-4 -32 -30 -32h-12q-18 0 -31 20v8h23q0 -12 8 -12h12l7 8v12q-50 10 -50 32q12 32 39 32zM1487 838q39 -6 39 -16q22 -12 27 -36q-16 -48 -54 -48
h-23q-37 0 -54 48q19 52 65 52zM115 834h73v-16l-50 -64h50v-16h-77v12l46 60v4h-42v20zM446 834h24v-96h-24v96zM678 834h27v-80h38v-16h-65v96zM1029 834h23v-96h-23v96zM1148 834h73v-20h-23v-76h-23v76h-27v20zM1233 834h23v-96h-23v96zM1279 834h23v-96h-23v96z
M1368 834v-4q-10 0 -12 -16l-27 -28l35 -48h-19q-9 2 -39 44v8q8 0 8 12q12 0 27 32h27zM1568 834h8l58 -4l11 -28q0 -15 -23 -28h-31v-36h-23v96zM1649 834h73v-20h-27v-76h-23v76h-23v20zM1730 834h27v-96h-27v96zM1776 834h35q0 -13 27 -68v-4h8l27 64v8h34v-96h-27l4 64
q-9 0 -31 -64h-23l-27 68h-3v-20l3 -48h-27v96zM1927 834h27v-96h-27v96zM1973 834h66v-20h-43v-20h43v-16h-43v-24h43v-16h-66v96zM2062 834h11q73 0 73 -28v-12q-9 -20 -30 -20l30 -36h-30q0 13 -31 40v-40h-23v96zM2162 834h65v-20h-42v-20h42v-16h-42v-24h42v-16h-65v96
zM2251 834h19l54 -60v60h27v-96h-27q0 8 -46 56v4h-4v-60h-23v96zM770 794v-16q14 -24 35 -24h8q38 0 38 32t-34 32h-20q-27 -17 -27 -24zM1449 798v-24q8 -20 38 -20t39 20v24q0 12 -35 20h-8q-34 -8 -34 -20zM1591 814v-24h23l8 8v12l-19 4h-12zM2085 814v-32h15
q20 0 23 12v16l-19 4h-19zM38 646h62l42 -159q9 3 46 159h58q7 0 46 -159h4l43 159h61v-4q-73 -247 -81 -247h-58l-38 155h-8q-33 -155 -42 -155h-54q-9 0 -81 251zM408 646h62l42 -159q9 3 46 159h58q7 0 46 -159h4l43 159h61v-4q-73 -247 -81 -247h-57l-39 155h-8
q-33 -155 -42 -155h-54q-9 0 -81 251zM778 646h62l42 -159q9 3 46 159h58q7 0 46 -159h4l43 159h61v-4q-73 -247 -81 -247h-57l-39 155h-8q-33 -155 -42 -155h-54q-9 0 -81 251zM1175 463h69v-68h-69v68zM300 343h69v-343h-69v343zM990 343h69v-60h-69v60zM1190 339v-88h47
v-52h-47v-139q0 -12 16 -12l27 4v-4l4 -24v-20l-47 -8h-7q-58 0 -58 72l-4 107v24h-31v52h31v44q1 7 69 44zM535 255h4q119 -14 119 -119v-20q0 -89 -92 -116l-27 -4q-123 11 -123 120v20q0 105 119 119zM797 255q27 0 62 -36v32h69v-139q0 -184 -31 -184q-18 -28 -80 -28
q-116 0 -116 88h4q73 0 73 -16q0 -20 27 -20h12q42 0 42 36v52q-33 -40 -69 -40h-4q-89 16 -89 112v31q0 78 66 108zM1379 255h4q120 -14 120 -119v-20q0 -89 -93 -116l-27 -4q-123 11 -123 120v20q0 105 119 119zM1641 255q27 0 62 -36v32h70v-139q0 -184 -31 -184
q-19 -28 -81 -28q-116 0 -116 88h4q73 0 73 -16q0 -20 27 -20h12q42 0 42 36v52q-33 -40 -69 -40h-4q-89 16 -89 112v31q0 78 66 108zM1942 255h4q120 -14 120 -119v-20q0 -89 -93 -116l-27 -4q-123 11 -123 120v20q0 105 119 119zM990 251h69v-251h-69v251zM481 147v-43
q0 -50 62 -56q37 0 50 56v43q0 50 -62 56q-37 0 -50 -56zM763 147v-39q5 -56 46 -56q42 0 50 60v39q-10 52 -46 52h-4q-41 0 -46 -56zM1325 147v-43q0 -50 62 -56q37 0 50 56v43q0 50 -62 56q-36 0 -50 -56zM1607 147v-39q5 -56 46 -56q42 0 50 60v39q-10 52 -46 52h-4
q-41 0 -46 -56zM1888 147v-43q0 -50 62 -56q37 0 50 56v43q0 50 -62 56q-37 0 -50 -56zM1584 -144h4q66 0 92 -56l8 -27h-4l-62 -8q-2 39 -34 39h-8q-32 0 -43 -47v-52q0 -56 51 -56q34 0 38 48l66 -8q0 -56 -62 -84q-15 -8 -42 -8h-4q-112 10 -112 116v28q10 115 112 115z
M1850 -144h3q120 -14 120 -119v-20q0 -89 -93 -116l-27 -4q-123 11 -123 120v20q0 105 120 119zM2162 -144q31 0 62 -40q0 23 69 40q85 0 85 -103v-152h-70v172q0 31 -30 31h-4q-37 0 -43 -55v-148h-69v172q0 31 -31 31h-4q-42 -7 -42 -51v-152h-70v251h70v-28q33 32 77 32z
M1796 -251v-44q0 -50 61 -56q37 0 50 56v44q0 49 -61 55q-37 0 -50 -55zM1352 -331h70v-68h-70v68z" />
    <glyph glyph-name="underscore" unicode="_" horiz-adv-x="935" 
d="M510 1728v-2222h-68v2222h68zM68 1728v-2222h-68v2222h68zM221 -494v2222h153v-2222h-153zM867 1728v-2222h-68v2222h68zM578 -494v2222h153v-2222h-153z" />
    <glyph glyph-name="grave" unicode="`" 
d="M358 1416h2066v-531h-154l-54 -15v-4h208v-172h-2390v172h528v4l-54 15h-339q-95 0 -108 44q-27 26 -27 52v48q0 30 89 152l69 103q65 101 81 108q41 23 85 24zM46 1005q0 -70 81 -104h370q-62 69 -62 152q0 88 81 156q54 27 100 27q43 0 100 -39l35 -40q31 -49 31 -108
q0 -80 -62 -148h131q-65 69 -65 152v8q0 37 31 96q57 79 138 79h27q82 0 135 -107h-77q-41 36 -62 36h-34q-34 0 -81 -60l-8 -40v-24q0 -75 85 -104h50q51 24 66 60v4l-4 -4l-4 4h-4l-4 -4l-4 4h-4l-3 -4l-4 4h-4l-4 -4l-4 4h-11l-4 -4l-4 4h-4l-4 -4l-4 4h-4l-3 -4l-4 4
h-23l-4 -4l-4 4h-4l-4 -4h-4l-4 4v60h209v-4q0 -97 -62 -152v-4h278q-58 73 -58 116v52q0 96 104 152q37 15 73 15q62 0 127 -67q39 -61 39 -100v-32q0 -65 -62 -136h131v8q-8 0 -8 12q-23 4 -50 88l-4 40v16q0 72 81 144q45 27 101 27q83 0 119 -63q12 0 27 -36v-8h-81
q0 22 -65 36h-20q-92 -24 -92 -116q0 -98 104 -116q64 0 96 64h-131v44l-4 4l4 16h208v-20q0 -71 -61 -140h131v8h-8q0 10 -19 28q-35 57 -35 116q0 116 123 176l54 7q51 0 105 -39q2 -16 19 -16q46 -64 46 -132q0 -75 -38 -116l-24 -32h128v499h-2055q-74 0 -120 -80
l-96 -143q-92 -127 -92 -172zM1136 1352h1203v-64h-1060v-359h-65v359h-78v64zM423 1336h97q-82 -112 -124 -183q-7 0 -7 -12q-8 0 -50 -68q-51 -67 -51 -80h51l3 4l4 -4h4l4 4l4 -4h73v-64h-297l66 96l166 231q43 72 57 80zM1140 1236h62v-307h-62v307zM500 1053
q0 -62 62 -108l46 -12q81 0 108 100v24q-17 80 -42 80q0 14 -62 28h-4q-48 0 -92 -56zM1356 1049q0 -83 81 -112l23 -4q93 0 108 120q0 69 -69 104l-35 8q-96 -20 -96 -68q-10 0 -12 -48zM2066 1033q0 -41 57 -88l47 -12q80 7 100 76l8 32v12q-3 36 -27 76q-45 36 -78 36h-3
q-64 0 -104 -84v-48zM655 870v-4h266v4l-58 15h-154zM998 870v-4h416v4l-54 15h-308zM1507 870v-4h266v4l-58 15h-154zM1861 866h262v4l-54 15h-154q-54 -10 -54 -19zM49 846h4l-4 -4v-60l4 -16l-4 -16v-32l8 -8h2352v144h-2352zM223 850h15v-16h-11v-76l19 -4l15 4v76h-7
v16h15q0 -16 8 -16h8v-44q0 -52 -31 -52h-27q-23 14 -23 36v60q19 0 19 8v8zM362 838q35 0 57 -32v-4h-23l-23 16h-15q-31 0 -35 -32q0 -32 43 -32q16 0 38 12v4h-54v16h77q0 -35 -50 -48h-27q-30 3 -50 36v24q30 40 62 40zM547 838q35 0 58 -32v-4h-24l-23 16h-15
q-31 0 -35 -32q0 -32 43 -32q16 0 38 12v4h-54v16h77q0 -35 -50 -48h-27q-30 3 -50 36v24q30 40 62 40zM813 838q31 0 61 -40v-24q-26 -36 -54 -36h-23q-34 0 -50 48q0 41 66 52zM948 838q37 -4 54 -28h3v-8h-23l-23 16h-15q-35 -8 -35 -20v-24q9 -20 39 -20h3l39 12v4h-54
v16h77q-13 -48 -54 -48h-23q-36 0 -54 48q4 20 27 36q0 9 39 16zM1106 838q22 0 34 -32h-27v12h-19v-20q46 -12 46 -24v-4q-4 -32 -30 -32h-12q-18 0 -31 20v8h23q0 -12 8 -12h12l7 8v12q-50 10 -50 32q12 32 39 32zM1487 838q39 -6 39 -16q22 -12 27 -36q-16 -48 -54 -48
h-23q-37 0 -54 48q19 52 65 52zM115 834h73v-16l-50 -64h50v-16h-77v12l46 60v4h-42v20zM446 834h24v-96h-24v96zM678 834h27v-80h38v-16h-65v96zM1029 834h23v-96h-23v96zM1148 834h73v-20h-23v-76h-23v76h-27v20zM1233 834h23v-96h-23v96zM1279 834h23v-96h-23v96z
M1368 834v-4q-10 0 -12 -16l-27 -28l35 -48h-19q-9 2 -39 44v8q8 0 8 12q12 0 27 32h27zM1568 834h8l58 -4l11 -28q0 -15 -23 -28h-31v-36h-23v96zM1649 834h73v-20h-27v-76h-23v76h-23v20zM1730 834h27v-96h-27v96zM1776 834h35q0 -13 27 -68v-4h8l27 64v8h34v-96h-27l4 64
q-9 0 -31 -64h-23l-27 68h-3v-20l3 -48h-27v96zM1927 834h27v-96h-27v96zM1973 834h66v-20h-43v-20h43v-16h-43v-24h43v-16h-66v96zM2062 834h11q73 0 73 -28v-12q-9 -20 -30 -20l30 -36h-30q0 13 -31 40v-40h-23v96zM2162 834h65v-20h-42v-20h42v-16h-42v-24h42v-16h-65v96
zM2251 834h19l54 -60v60h27v-96h-27q0 8 -46 56v4h-4v-60h-23v96zM770 794v-16q14 -24 35 -24h8q38 0 38 32t-34 32h-20q-27 -17 -27 -24zM1449 798v-24q8 -20 38 -20t39 20v24q0 12 -35 20h-8q-34 -8 -34 -20zM1591 814v-24h23l8 8v12l-19 4h-12zM2085 814v-32h15
q20 0 23 12v16l-19 4h-19zM38 646h62l42 -159q9 3 46 159h58q7 0 46 -159h4l43 159h61v-4q-73 -247 -81 -247h-58l-38 155h-8q-33 -155 -42 -155h-54q-9 0 -81 251zM408 646h62l42 -159q9 3 46 159h58q7 0 46 -159h4l43 159h61v-4q-73 -247 -81 -247h-57l-39 155h-8
q-33 -155 -42 -155h-54q-9 0 -81 251zM778 646h62l42 -159q9 3 46 159h58q7 0 46 -159h4l43 159h61v-4q-73 -247 -81 -247h-57l-39 155h-8q-33 -155 -42 -155h-54q-9 0 -81 251zM1175 463h69v-68h-69v68zM300 343h69v-343h-69v343zM990 343h69v-60h-69v60zM1190 339v-88h47
v-52h-47v-139q0 -12 16 -12l27 4v-4l4 -24v-20l-47 -8h-7q-58 0 -58 72l-4 107v24h-31v52h31v44q1 7 69 44zM535 255h4q119 -14 119 -119v-20q0 -89 -92 -116l-27 -4q-123 11 -123 120v20q0 105 119 119zM797 255q27 0 62 -36v32h69v-139q0 -184 -31 -184q-18 -28 -80 -28
q-116 0 -116 88h4q73 0 73 -16q0 -20 27 -20h12q42 0 42 36v52q-33 -40 -69 -40h-4q-89 16 -89 112v31q0 78 66 108zM1379 255h4q120 -14 120 -119v-20q0 -89 -93 -116l-27 -4q-123 11 -123 120v20q0 105 119 119zM1641 255q27 0 62 -36v32h70v-139q0 -184 -31 -184
q-19 -28 -81 -28q-116 0 -116 88h4q73 0 73 -16q0 -20 27 -20h12q42 0 42 36v52q-33 -40 -69 -40h-4q-89 16 -89 112v31q0 78 66 108zM1942 255h4q120 -14 120 -119v-20q0 -89 -93 -116l-27 -4q-123 11 -123 120v20q0 105 119 119zM990 251h69v-251h-69v251zM481 147v-43
q0 -50 62 -56q37 0 50 56v43q0 50 -62 56q-37 0 -50 -56zM763 147v-39q5 -56 46 -56q42 0 50 60v39q-10 52 -46 52h-4q-41 0 -46 -56zM1325 147v-43q0 -50 62 -56q37 0 50 56v43q0 50 -62 56q-36 0 -50 -56zM1607 147v-39q5 -56 46 -56q42 0 50 60v39q-10 52 -46 52h-4
q-41 0 -46 -56zM1888 147v-43q0 -50 62 -56q37 0 50 56v43q0 50 -62 56q-37 0 -50 -56zM1584 -144h4q66 0 92 -56l8 -27h-4l-62 -8q-2 39 -34 39h-8q-32 0 -43 -47v-52q0 -56 51 -56q34 0 38 48l66 -8q0 -56 -62 -84q-15 -8 -42 -8h-4q-112 10 -112 116v28q10 115 112 115z
M1850 -144h3q120 -14 120 -119v-20q0 -89 -93 -116l-27 -4q-123 11 -123 120v20q0 105 120 119zM2162 -144q31 0 62 -40q0 23 69 40q85 0 85 -103v-152h-70v172q0 31 -30 31h-4q-37 0 -43 -55v-148h-69v172q0 31 -31 31h-4q-42 -7 -42 -51v-152h-70v251h70v-28q33 32 77 32z
M1796 -251v-44q0 -50 61 -56q37 0 50 56v44q0 49 -61 55q-37 0 -50 -55zM1352 -331h70v-68h-70v68z" />
    <glyph glyph-name="a" unicode="a" horiz-adv-x="935" 
d="M289 1728v-2222h-68v2222h68zM425 1728v-2222h-68v2222h68zM0 -494v2222h153v-2222h-153zM714 -494v2222h153v-2222h-153zM646 1728v-2222h-68v2222h68z" />
    <glyph glyph-name="b" unicode="b" horiz-adv-x="935" 
d="M68 1728v-2222h-68v2222h68zM425 1728v-2222h-68v2222h68zM136 -494v2222h153v-2222h-153zM714 -494v2222h153v-2222h-153zM646 1728v-2222h-68v2222h68z" />
    <glyph glyph-name="c" unicode="c" horiz-adv-x="935" 
d="M731 1728v-2222h-68v2222h68zM510 1728v-2222h-68v2222h68zM0 -494v2222h153v-2222h-153zM221 -494v2222h153v-2222h-153zM867 1728v-2222h-68v2222h68z" />
    <glyph glyph-name="d" unicode="d" horiz-adv-x="935" 
d="M204 1728v-2222h-68v2222h68zM646 1728v-2222h-68v2222h68zM714 -494v2222h153v-2222h-153zM272 -494v2222h153v-2222h-153zM68 1728v-2222h-68v2222h68z" />
    <glyph glyph-name="e" unicode="e" horiz-adv-x="935" 
d="M289 1728v-2222h-68v2222h68zM731 1728v-2222h-68v2222h68zM357 -494v2222h153v-2222h-153zM0 -494v2222h153v-2222h-153zM867 1728v-2222h-68v2222h68z" />
    <glyph glyph-name="f" unicode="f" horiz-adv-x="935" 
d="M68 1728v-2222h-68v2222h68zM731 1728v-2222h-68v2222h68zM136 -494v2222h153v-2222h-153zM357 -494v2222h153v-2222h-153zM867 1728v-2222h-68v2222h68z" />
    <glyph glyph-name="g" unicode="g" horiz-adv-x="935" 
d="M68 1728v-2222h-68v2222h68zM204 1728v-2222h-68v2222h68zM493 -494v2222h153v-2222h-153zM714 -494v2222h153v-2222h-153zM340 1728v-2222h-68v2222h68z" />
    <glyph glyph-name="h" unicode="h" horiz-adv-x="935" 
d="M867 1728v-2222h-68v2222h68zM425 1728v-2222h-68v2222h68zM578 -494v2222h153v-2222h-153zM0 -494v2222h153v-2222h-153zM289 1728v-2222h-68v2222h68z" />
    <glyph glyph-name="i" unicode="i" horiz-adv-x="935" 
d="M867 1728v-2222h-68v2222h68zM425 1728v-2222h-68v2222h68zM578 -494v2222h153v-2222h-153zM136 -494v2222h153v-2222h-153zM68 1728v-2222h-68v2222h68z" />
    <glyph glyph-name="j" unicode="j" horiz-adv-x="935" 
d="M867 1728v-2222h-68v2222h68zM204 1728v-2222h-68v2222h68zM272 -494v2222h153v-2222h-153zM68 1728v-2222h-68v2222h68zM578 -494v2222h153v-2222h-153z" />
    <glyph glyph-name="k" unicode="k" horiz-adv-x="935" 
d="M561 1728v-2222h-68v2222h68zM289 1728v-2222h-68v2222h68zM0 -494v2222h153v-2222h-153zM425 1728v-2222h-68v2222h68zM714 -494v2222h153v-2222h-153z" />
    <glyph glyph-name="l" unicode="l" horiz-adv-x="935" 
d="M561 1728v-2222h-68v2222h68zM68 1728v-2222h-68v2222h68zM136 -494v2222h153v-2222h-153zM425 1728v-2222h-68v2222h68zM714 -494v2222h153v-2222h-153z" />
    <glyph glyph-name="m" unicode="m" horiz-adv-x="935" 
d="M510 1728v-2222h-68v2222h68zM646 1728v-2222h-68v2222h68zM0 -494v2222h153v-2222h-153zM867 1728v-2222h-68v2222h68zM221 -494v2222h153v-2222h-153z" />
    <glyph glyph-name="n" unicode="n" horiz-adv-x="935" 
d="M68 1728v-2222h-68v2222h68zM204 1728v-2222h-68v2222h68zM272 -494v2222h153v-2222h-153zM561 1728v-2222h-68v2222h68zM714 -494v2222h153v-2222h-153z" />
    <glyph glyph-name="o" unicode="o" horiz-adv-x="935" 
d="M867 1728v-2222h-68v2222h68zM289 1728v-2222h-68v2222h68zM357 -494v2222h153v-2222h-153zM646 1728v-2222h-68v2222h68zM0 -494v2222h153v-2222h-153z" />
    <glyph glyph-name="p" unicode="p" horiz-adv-x="935" 
d="M867 1728v-2222h-68v2222h68zM68 1728v-2222h-68v2222h68zM136 -494v2222h153v-2222h-153zM646 1728v-2222h-68v2222h68zM357 -494v2222h153v-2222h-153z" />
    <glyph glyph-name="q" unicode="q" horiz-adv-x="935" 
d="M204 1728v-2222h-68v2222h68zM68 1728v-2222h-68v2222h68zM714 -494v2222h153v-2222h-153zM340 1728v-2222h-68v2222h68zM408 -494v2222h153v-2222h-153z" />
    <glyph glyph-name="r" unicode="r" horiz-adv-x="935" 
d="M425 1728v-2222h-68v2222h68zM867 1728v-2222h-68v2222h68zM493 -494v2222h153v-2222h-153zM289 1728v-2222h-68v2222h68zM0 -494v2222h153v-2222h-153z" />
    <glyph glyph-name="s" unicode="s" horiz-adv-x="935" 
d="M425 1728v-2222h-68v2222h68zM867 1728v-2222h-68v2222h68zM493 -494v2222h153v-2222h-153zM68 1728v-2222h-68v2222h68zM136 -494v2222h153v-2222h-153z" />
    <glyph glyph-name="t" unicode="t" horiz-adv-x="935" 
d="M204 1728v-2222h-68v2222h68zM867 1728v-2222h-68v2222h68zM493 -494v2222h153v-2222h-153zM68 1728v-2222h-68v2222h68zM272 -494v2222h153v-2222h-153z" />
    <glyph glyph-name="u" unicode="u" horiz-adv-x="935" 
d="M510 1728v-2222h-68v2222h68zM646 1728v-2222h-68v2222h68zM714 -494v2222h153v-2222h-153zM374 1728v-2222h-68v2222h68zM0 -494v2222h153v-2222h-153z" />
    <glyph glyph-name="v" unicode="v" horiz-adv-x="935" 
d="M510 1728v-2222h-68v2222h68zM646 1728v-2222h-68v2222h68zM714 -494v2222h153v-2222h-153zM68 1728v-2222h-68v2222h68zM221 -494v2222h153v-2222h-153z" />
    <glyph glyph-name="w" unicode="w" horiz-adv-x="935" 
d="M595 1728v-2222h-68v2222h68zM731 1728v-2222h-68v2222h68zM0 -494v2222h153v-2222h-153zM867 1728v-2222h-68v2222h68zM306 -494v2222h153v-2222h-153z" />
    <glyph glyph-name="x" unicode="x" horiz-adv-x="935" 
d="M646 1728v-2222h-68v2222h68zM289 1728v-2222h-68v2222h68zM714 -494v2222h153v-2222h-153zM68 1728v-2222h-68v2222h68zM357 -494v2222h153v-2222h-153z" />
    <glyph glyph-name="y" unicode="y" horiz-adv-x="935" 
d="M731 1728v-2222h-68v2222h68zM374 1728v-2222h-68v2222h68zM0 -494v2222h153v-2222h-153zM867 1728v-2222h-68v2222h68zM442 -494v2222h153v-2222h-153z" />
    <glyph glyph-name="z" unicode="z" horiz-adv-x="935" 
d="M731 1728v-2222h-68v2222h68zM68 1728v-2222h-68v2222h68zM221 -494v2222h153v-2222h-153zM867 1728v-2222h-68v2222h68zM442 -494v2222h153v-2222h-153z" />
    <glyph glyph-name="braceleft" unicode="{" 
d="M358 1416h2066v-531h-154l-54 -15v-4h208v-172h-2390v172h528v4l-54 15h-339q-95 0 -108 44q-27 26 -27 52v48q0 30 89 152l69 103q65 101 81 108q41 23 85 24zM46 1005q0 -70 81 -104h370q-62 69 -62 152q0 88 81 156q54 27 100 27q43 0 100 -39l35 -40q31 -49 31 -108
q0 -80 -62 -148h131q-65 69 -65 152v8q0 37 31 96q57 79 138 79h27q82 0 135 -107h-77q-41 36 -62 36h-34q-34 0 -81 -60l-8 -40v-24q0 -75 85 -104h50q51 24 66 60v4l-4 -4l-4 4h-4l-4 -4l-4 4h-4l-3 -4l-4 4h-4l-4 -4l-4 4h-11l-4 -4l-4 4h-4l-4 -4l-4 4h-4l-3 -4l-4 4
h-23l-4 -4l-4 4h-4l-4 -4h-4l-4 4v60h209v-4q0 -97 -62 -152v-4h278q-58 73 -58 116v52q0 96 104 152q37 15 73 15q62 0 127 -67q39 -61 39 -100v-32q0 -65 -62 -136h131v8q-8 0 -8 12q-23 4 -50 88l-4 40v16q0 72 81 144q45 27 101 27q83 0 119 -63q12 0 27 -36v-8h-81
q0 22 -65 36h-20q-92 -24 -92 -116q0 -98 104 -116q64 0 96 64h-131v44l-4 4l4 16h208v-20q0 -71 -61 -140h131v8h-8q0 10 -19 28q-35 57 -35 116q0 116 123 176l54 7q51 0 105 -39q2 -16 19 -16q46 -64 46 -132q0 -75 -38 -116l-24 -32h128v499h-2055q-74 0 -120 -80
l-96 -143q-92 -127 -92 -172zM1136 1352h1203v-64h-1060v-359h-65v359h-78v64zM423 1336h97q-82 -112 -124 -183q-7 0 -7 -12q-8 0 -50 -68q-51 -67 -51 -80h51l3 4l4 -4h4l4 4l4 -4h73v-64h-297l66 96l166 231q43 72 57 80zM1140 1236h62v-307h-62v307zM500 1053
q0 -62 62 -108l46 -12q81 0 108 100v24q-17 80 -42 80q0 14 -62 28h-4q-48 0 -92 -56zM1356 1049q0 -83 81 -112l23 -4q93 0 108 120q0 69 -69 104l-35 8q-96 -20 -96 -68q-10 0 -12 -48zM2066 1033q0 -41 57 -88l47 -12q80 7 100 76l8 32v12q-3 36 -27 76q-45 36 -78 36h-3
q-64 0 -104 -84v-48zM655 870v-4h266v4l-58 15h-154zM998 870v-4h416v4l-54 15h-308zM1507 870v-4h266v4l-58 15h-154zM1861 866h262v4l-54 15h-154q-54 -10 -54 -19zM49 846h4l-4 -4v-60l4 -16l-4 -16v-32l8 -8h2352v144h-2352zM223 850h15v-16h-11v-76l19 -4l15 4v76h-7
v16h15q0 -16 8 -16h8v-44q0 -52 -31 -52h-27q-23 14 -23 36v60q19 0 19 8v8zM362 838q35 0 57 -32v-4h-23l-23 16h-15q-31 0 -35 -32q0 -32 43 -32q16 0 38 12v4h-54v16h77q0 -35 -50 -48h-27q-30 3 -50 36v24q30 40 62 40zM547 838q35 0 58 -32v-4h-24l-23 16h-15
q-31 0 -35 -32q0 -32 43 -32q16 0 38 12v4h-54v16h77q0 -35 -50 -48h-27q-30 3 -50 36v24q30 40 62 40zM813 838q31 0 61 -40v-24q-26 -36 -54 -36h-23q-34 0 -50 48q0 41 66 52zM948 838q37 -4 54 -28h3v-8h-23l-23 16h-15q-35 -8 -35 -20v-24q9 -20 39 -20h3l39 12v4h-54
v16h77q-13 -48 -54 -48h-23q-36 0 -54 48q4 20 27 36q0 9 39 16zM1106 838q22 0 34 -32h-27v12h-19v-20q46 -12 46 -24v-4q-4 -32 -30 -32h-12q-18 0 -31 20v8h23q0 -12 8 -12h12l7 8v12q-50 10 -50 32q12 32 39 32zM1487 838q39 -6 39 -16q22 -12 27 -36q-16 -48 -54 -48
h-23q-37 0 -54 48q19 52 65 52zM115 834h73v-16l-50 -64h50v-16h-77v12l46 60v4h-42v20zM446 834h24v-96h-24v96zM678 834h27v-80h38v-16h-65v96zM1029 834h23v-96h-23v96zM1148 834h73v-20h-23v-76h-23v76h-27v20zM1233 834h23v-96h-23v96zM1279 834h23v-96h-23v96z
M1368 834v-4q-10 0 -12 -16l-27 -28l35 -48h-19q-9 2 -39 44v8q8 0 8 12q12 0 27 32h27zM1568 834h8l58 -4l11 -28q0 -15 -23 -28h-31v-36h-23v96zM1649 834h73v-20h-27v-76h-23v76h-23v20zM1730 834h27v-96h-27v96zM1776 834h35q0 -13 27 -68v-4h8l27 64v8h34v-96h-27l4 64
q-9 0 -31 -64h-23l-27 68h-3v-20l3 -48h-27v96zM1927 834h27v-96h-27v96zM1973 834h66v-20h-43v-20h43v-16h-43v-24h43v-16h-66v96zM2062 834h11q73 0 73 -28v-12q-9 -20 -30 -20l30 -36h-30q0 13 -31 40v-40h-23v96zM2162 834h65v-20h-42v-20h42v-16h-42v-24h42v-16h-65v96
zM2251 834h19l54 -60v60h27v-96h-27q0 8 -46 56v4h-4v-60h-23v96zM770 794v-16q14 -24 35 -24h8q38 0 38 32t-34 32h-20q-27 -17 -27 -24zM1449 798v-24q8 -20 38 -20t39 20v24q0 12 -35 20h-8q-34 -8 -34 -20zM1591 814v-24h23l8 8v12l-19 4h-12zM2085 814v-32h15
q20 0 23 12v16l-19 4h-19zM38 646h62l42 -159q9 3 46 159h58q7 0 46 -159h4l43 159h61v-4q-73 -247 -81 -247h-58l-38 155h-8q-33 -155 -42 -155h-54q-9 0 -81 251zM408 646h62l42 -159q9 3 46 159h58q7 0 46 -159h4l43 159h61v-4q-73 -247 -81 -247h-57l-39 155h-8
q-33 -155 -42 -155h-54q-9 0 -81 251zM778 646h62l42 -159q9 3 46 159h58q7 0 46 -159h4l43 159h61v-4q-73 -247 -81 -247h-57l-39 155h-8q-33 -155 -42 -155h-54q-9 0 -81 251zM1175 463h69v-68h-69v68zM300 343h69v-343h-69v343zM990 343h69v-60h-69v60zM1190 339v-88h47
v-52h-47v-139q0 -12 16 -12l27 4v-4l4 -24v-20l-47 -8h-7q-58 0 -58 72l-4 107v24h-31v52h31v44q1 7 69 44zM535 255h4q119 -14 119 -119v-20q0 -89 -92 -116l-27 -4q-123 11 -123 120v20q0 105 119 119zM797 255q27 0 62 -36v32h69v-139q0 -184 -31 -184q-18 -28 -80 -28
q-116 0 -116 88h4q73 0 73 -16q0 -20 27 -20h12q42 0 42 36v52q-33 -40 -69 -40h-4q-89 16 -89 112v31q0 78 66 108zM1379 255h4q120 -14 120 -119v-20q0 -89 -93 -116l-27 -4q-123 11 -123 120v20q0 105 119 119zM1641 255q27 0 62 -36v32h70v-139q0 -184 -31 -184
q-19 -28 -81 -28q-116 0 -116 88h4q73 0 73 -16q0 -20 27 -20h12q42 0 42 36v52q-33 -40 -69 -40h-4q-89 16 -89 112v31q0 78 66 108zM1942 255h4q120 -14 120 -119v-20q0 -89 -93 -116l-27 -4q-123 11 -123 120v20q0 105 119 119zM990 251h69v-251h-69v251zM481 147v-43
q0 -50 62 -56q37 0 50 56v43q0 50 -62 56q-37 0 -50 -56zM763 147v-39q5 -56 46 -56q42 0 50 60v39q-10 52 -46 52h-4q-41 0 -46 -56zM1325 147v-43q0 -50 62 -56q37 0 50 56v43q0 50 -62 56q-36 0 -50 -56zM1607 147v-39q5 -56 46 -56q42 0 50 60v39q-10 52 -46 52h-4
q-41 0 -46 -56zM1888 147v-43q0 -50 62 -56q37 0 50 56v43q0 50 -62 56q-37 0 -50 -56zM1584 -144h4q66 0 92 -56l8 -27h-4l-62 -8q-2 39 -34 39h-8q-32 0 -43 -47v-52q0 -56 51 -56q34 0 38 48l66 -8q0 -56 -62 -84q-15 -8 -42 -8h-4q-112 10 -112 116v28q10 115 112 115z
M1850 -144h3q120 -14 120 -119v-20q0 -89 -93 -116l-27 -4q-123 11 -123 120v20q0 105 120 119zM2162 -144q31 0 62 -40q0 23 69 40q85 0 85 -103v-152h-70v172q0 31 -30 31h-4q-37 0 -43 -55v-148h-69v172q0 31 -31 31h-4q-42 -7 -42 -51v-152h-70v251h70v-28q33 32 77 32z
M1796 -251v-44q0 -50 61 -56q37 0 50 56v44q0 49 -61 55q-37 0 -50 -55zM1352 -331h70v-68h-70v68z" />
    <glyph glyph-name="bar" unicode="|" 
d="M358 1416h2066v-531h-154l-54 -15v-4h208v-172h-2390v172h528v4l-54 15h-339q-95 0 -108 44q-27 26 -27 52v48q0 30 89 152l69 103q65 101 81 108q41 23 85 24zM46 1005q0 -70 81 -104h370q-62 69 -62 152q0 88 81 156q54 27 100 27q43 0 100 -39l35 -40q31 -49 31 -108
q0 -80 -62 -148h131q-65 69 -65 152v8q0 37 31 96q57 79 138 79h27q82 0 135 -107h-77q-41 36 -62 36h-34q-34 0 -81 -60l-8 -40v-24q0 -75 85 -104h50q51 24 66 60v4l-4 -4l-4 4h-4l-4 -4l-4 4h-4l-3 -4l-4 4h-4l-4 -4l-4 4h-11l-4 -4l-4 4h-4l-4 -4l-4 4h-4l-3 -4l-4 4
h-23l-4 -4l-4 4h-4l-4 -4h-4l-4 4v60h209v-4q0 -97 -62 -152v-4h278q-58 73 -58 116v52q0 96 104 152q37 15 73 15q62 0 127 -67q39 -61 39 -100v-32q0 -65 -62 -136h131v8q-8 0 -8 12q-23 4 -50 88l-4 40v16q0 72 81 144q45 27 101 27q83 0 119 -63q12 0 27 -36v-8h-81
q0 22 -65 36h-20q-92 -24 -92 -116q0 -98 104 -116q64 0 96 64h-131v44l-4 4l4 16h208v-20q0 -71 -61 -140h131v8h-8q0 10 -19 28q-35 57 -35 116q0 116 123 176l54 7q51 0 105 -39q2 -16 19 -16q46 -64 46 -132q0 -75 -38 -116l-24 -32h128v499h-2055q-74 0 -120 -80
l-96 -143q-92 -127 -92 -172zM1136 1352h1203v-64h-1060v-359h-65v359h-78v64zM423 1336h97q-82 -112 -124 -183q-7 0 -7 -12q-8 0 -50 -68q-51 -67 -51 -80h51l3 4l4 -4h4l4 4l4 -4h73v-64h-297l66 96l166 231q43 72 57 80zM1140 1236h62v-307h-62v307zM500 1053
q0 -62 62 -108l46 -12q81 0 108 100v24q-17 80 -42 80q0 14 -62 28h-4q-48 0 -92 -56zM1356 1049q0 -83 81 -112l23 -4q93 0 108 120q0 69 -69 104l-35 8q-96 -20 -96 -68q-10 0 -12 -48zM2066 1033q0 -41 57 -88l47 -12q80 7 100 76l8 32v12q-3 36 -27 76q-45 36 -78 36h-3
q-64 0 -104 -84v-48zM655 870v-4h266v4l-58 15h-154zM998 870v-4h416v4l-54 15h-308zM1507 870v-4h266v4l-58 15h-154zM1861 866h262v4l-54 15h-154q-54 -10 -54 -19zM49 846h4l-4 -4v-60l4 -16l-4 -16v-32l8 -8h2352v144h-2352zM223 850h15v-16h-11v-76l19 -4l15 4v76h-7
v16h15q0 -16 8 -16h8v-44q0 -52 -31 -52h-27q-23 14 -23 36v60q19 0 19 8v8zM362 838q35 0 57 -32v-4h-23l-23 16h-15q-31 0 -35 -32q0 -32 43 -32q16 0 38 12v4h-54v16h77q0 -35 -50 -48h-27q-30 3 -50 36v24q30 40 62 40zM547 838q35 0 58 -32v-4h-24l-23 16h-15
q-31 0 -35 -32q0 -32 43 -32q16 0 38 12v4h-54v16h77q0 -35 -50 -48h-27q-30 3 -50 36v24q30 40 62 40zM813 838q31 0 61 -40v-24q-26 -36 -54 -36h-23q-34 0 -50 48q0 41 66 52zM948 838q37 -4 54 -28h3v-8h-23l-23 16h-15q-35 -8 -35 -20v-24q9 -20 39 -20h3l39 12v4h-54
v16h77q-13 -48 -54 -48h-23q-36 0 -54 48q4 20 27 36q0 9 39 16zM1106 838q22 0 34 -32h-27v12h-19v-20q46 -12 46 -24v-4q-4 -32 -30 -32h-12q-18 0 -31 20v8h23q0 -12 8 -12h12l7 8v12q-50 10 -50 32q12 32 39 32zM1487 838q39 -6 39 -16q22 -12 27 -36q-16 -48 -54 -48
h-23q-37 0 -54 48q19 52 65 52zM115 834h73v-16l-50 -64h50v-16h-77v12l46 60v4h-42v20zM446 834h24v-96h-24v96zM678 834h27v-80h38v-16h-65v96zM1029 834h23v-96h-23v96zM1148 834h73v-20h-23v-76h-23v76h-27v20zM1233 834h23v-96h-23v96zM1279 834h23v-96h-23v96z
M1368 834v-4q-10 0 -12 -16l-27 -28l35 -48h-19q-9 2 -39 44v8q8 0 8 12q12 0 27 32h27zM1568 834h8l58 -4l11 -28q0 -15 -23 -28h-31v-36h-23v96zM1649 834h73v-20h-27v-76h-23v76h-23v20zM1730 834h27v-96h-27v96zM1776 834h35q0 -13 27 -68v-4h8l27 64v8h34v-96h-27l4 64
q-9 0 -31 -64h-23l-27 68h-3v-20l3 -48h-27v96zM1927 834h27v-96h-27v96zM1973 834h66v-20h-43v-20h43v-16h-43v-24h43v-16h-66v96zM2062 834h11q73 0 73 -28v-12q-9 -20 -30 -20l30 -36h-30q0 13 -31 40v-40h-23v96zM2162 834h65v-20h-42v-20h42v-16h-42v-24h42v-16h-65v96
zM2251 834h19l54 -60v60h27v-96h-27q0 8 -46 56v4h-4v-60h-23v96zM770 794v-16q14 -24 35 -24h8q38 0 38 32t-34 32h-20q-27 -17 -27 -24zM1449 798v-24q8 -20 38 -20t39 20v24q0 12 -35 20h-8q-34 -8 -34 -20zM1591 814v-24h23l8 8v12l-19 4h-12zM2085 814v-32h15
q20 0 23 12v16l-19 4h-19zM38 646h62l42 -159q9 3 46 159h58q7 0 46 -159h4l43 159h61v-4q-73 -247 -81 -247h-58l-38 155h-8q-33 -155 -42 -155h-54q-9 0 -81 251zM408 646h62l42 -159q9 3 46 159h58q7 0 46 -159h4l43 159h61v-4q-73 -247 -81 -247h-57l-39 155h-8
q-33 -155 -42 -155h-54q-9 0 -81 251zM778 646h62l42 -159q9 3 46 159h58q7 0 46 -159h4l43 159h61v-4q-73 -247 -81 -247h-57l-39 155h-8q-33 -155 -42 -155h-54q-9 0 -81 251zM1175 463h69v-68h-69v68zM300 343h69v-343h-69v343zM990 343h69v-60h-69v60zM1190 339v-88h47
v-52h-47v-139q0 -12 16 -12l27 4v-4l4 -24v-20l-47 -8h-7q-58 0 -58 72l-4 107v24h-31v52h31v44q1 7 69 44zM535 255h4q119 -14 119 -119v-20q0 -89 -92 -116l-27 -4q-123 11 -123 120v20q0 105 119 119zM797 255q27 0 62 -36v32h69v-139q0 -184 -31 -184q-18 -28 -80 -28
q-116 0 -116 88h4q73 0 73 -16q0 -20 27 -20h12q42 0 42 36v52q-33 -40 -69 -40h-4q-89 16 -89 112v31q0 78 66 108zM1379 255h4q120 -14 120 -119v-20q0 -89 -93 -116l-27 -4q-123 11 -123 120v20q0 105 119 119zM1641 255q27 0 62 -36v32h70v-139q0 -184 -31 -184
q-19 -28 -81 -28q-116 0 -116 88h4q73 0 73 -16q0 -20 27 -20h12q42 0 42 36v52q-33 -40 -69 -40h-4q-89 16 -89 112v31q0 78 66 108zM1942 255h4q120 -14 120 -119v-20q0 -89 -93 -116l-27 -4q-123 11 -123 120v20q0 105 119 119zM990 251h69v-251h-69v251zM481 147v-43
q0 -50 62 -56q37 0 50 56v43q0 50 -62 56q-37 0 -50 -56zM763 147v-39q5 -56 46 -56q42 0 50 60v39q-10 52 -46 52h-4q-41 0 -46 -56zM1325 147v-43q0 -50 62 -56q37 0 50 56v43q0 50 -62 56q-36 0 -50 -56zM1607 147v-39q5 -56 46 -56q42 0 50 60v39q-10 52 -46 52h-4
q-41 0 -46 -56zM1888 147v-43q0 -50 62 -56q37 0 50 56v43q0 50 -62 56q-37 0 -50 -56zM1584 -144h4q66 0 92 -56l8 -27h-4l-62 -8q-2 39 -34 39h-8q-32 0 -43 -47v-52q0 -56 51 -56q34 0 38 48l66 -8q0 -56 -62 -84q-15 -8 -42 -8h-4q-112 10 -112 116v28q10 115 112 115z
M1850 -144h3q120 -14 120 -119v-20q0 -89 -93 -116l-27 -4q-123 11 -123 120v20q0 105 120 119zM2162 -144q31 0 62 -40q0 23 69 40q85 0 85 -103v-152h-70v172q0 31 -30 31h-4q-37 0 -43 -55v-148h-69v172q0 31 -31 31h-4q-42 -7 -42 -51v-152h-70v251h70v-28q33 32 77 32z
M1796 -251v-44q0 -50 61 -56q37 0 50 56v44q0 49 -61 55q-37 0 -50 -55zM1352 -331h70v-68h-70v68z" />
    <glyph glyph-name="braceright" unicode="}" 
d="M358 1416h2066v-531h-154l-54 -15v-4h208v-172h-2390v172h528v4l-54 15h-339q-95 0 -108 44q-27 26 -27 52v48q0 30 89 152l69 103q65 101 81 108q41 23 85 24zM46 1005q0 -70 81 -104h370q-62 69 -62 152q0 88 81 156q54 27 100 27q43 0 100 -39l35 -40q31 -49 31 -108
q0 -80 -62 -148h131q-65 69 -65 152v8q0 37 31 96q57 79 138 79h27q82 0 135 -107h-77q-41 36 -62 36h-34q-34 0 -81 -60l-8 -40v-24q0 -75 85 -104h50q51 24 66 60v4l-4 -4l-4 4h-4l-4 -4l-4 4h-4l-3 -4l-4 4h-4l-4 -4l-4 4h-11l-4 -4l-4 4h-4l-4 -4l-4 4h-4l-3 -4l-4 4
h-23l-4 -4l-4 4h-4l-4 -4h-4l-4 4v60h209v-4q0 -97 -62 -152v-4h278q-58 73 -58 116v52q0 96 104 152q37 15 73 15q62 0 127 -67q39 -61 39 -100v-32q0 -65 -62 -136h131v8q-8 0 -8 12q-23 4 -50 88l-4 40v16q0 72 81 144q45 27 101 27q83 0 119 -63q12 0 27 -36v-8h-81
q0 22 -65 36h-20q-92 -24 -92 -116q0 -98 104 -116q64 0 96 64h-131v44l-4 4l4 16h208v-20q0 -71 -61 -140h131v8h-8q0 10 -19 28q-35 57 -35 116q0 116 123 176l54 7q51 0 105 -39q2 -16 19 -16q46 -64 46 -132q0 -75 -38 -116l-24 -32h128v499h-2055q-74 0 -120 -80
l-96 -143q-92 -127 -92 -172zM1136 1352h1203v-64h-1060v-359h-65v359h-78v64zM423 1336h97q-82 -112 -124 -183q-7 0 -7 -12q-8 0 -50 -68q-51 -67 -51 -80h51l3 4l4 -4h4l4 4l4 -4h73v-64h-297l66 96l166 231q43 72 57 80zM1140 1236h62v-307h-62v307zM500 1053
q0 -62 62 -108l46 -12q81 0 108 100v24q-17 80 -42 80q0 14 -62 28h-4q-48 0 -92 -56zM1356 1049q0 -83 81 -112l23 -4q93 0 108 120q0 69 -69 104l-35 8q-96 -20 -96 -68q-10 0 -12 -48zM2066 1033q0 -41 57 -88l47 -12q80 7 100 76l8 32v12q-3 36 -27 76q-45 36 -78 36h-3
q-64 0 -104 -84v-48zM655 870v-4h266v4l-58 15h-154zM998 870v-4h416v4l-54 15h-308zM1507 870v-4h266v4l-58 15h-154zM1861 866h262v4l-54 15h-154q-54 -10 -54 -19zM49 846h4l-4 -4v-60l4 -16l-4 -16v-32l8 -8h2352v144h-2352zM223 850h15v-16h-11v-76l19 -4l15 4v76h-7
v16h15q0 -16 8 -16h8v-44q0 -52 -31 -52h-27q-23 14 -23 36v60q19 0 19 8v8zM362 838q35 0 57 -32v-4h-23l-23 16h-15q-31 0 -35 -32q0 -32 43 -32q16 0 38 12v4h-54v16h77q0 -35 -50 -48h-27q-30 3 -50 36v24q30 40 62 40zM547 838q35 0 58 -32v-4h-24l-23 16h-15
q-31 0 -35 -32q0 -32 43 -32q16 0 38 12v4h-54v16h77q0 -35 -50 -48h-27q-30 3 -50 36v24q30 40 62 40zM813 838q31 0 61 -40v-24q-26 -36 -54 -36h-23q-34 0 -50 48q0 41 66 52zM948 838q37 -4 54 -28h3v-8h-23l-23 16h-15q-35 -8 -35 -20v-24q9 -20 39 -20h3l39 12v4h-54
v16h77q-13 -48 -54 -48h-23q-36 0 -54 48q4 20 27 36q0 9 39 16zM1106 838q22 0 34 -32h-27v12h-19v-20q46 -12 46 -24v-4q-4 -32 -30 -32h-12q-18 0 -31 20v8h23q0 -12 8 -12h12l7 8v12q-50 10 -50 32q12 32 39 32zM1487 838q39 -6 39 -16q22 -12 27 -36q-16 -48 -54 -48
h-23q-37 0 -54 48q19 52 65 52zM115 834h73v-16l-50 -64h50v-16h-77v12l46 60v4h-42v20zM446 834h24v-96h-24v96zM678 834h27v-80h38v-16h-65v96zM1029 834h23v-96h-23v96zM1148 834h73v-20h-23v-76h-23v76h-27v20zM1233 834h23v-96h-23v96zM1279 834h23v-96h-23v96z
M1368 834v-4q-10 0 -12 -16l-27 -28l35 -48h-19q-9 2 -39 44v8q8 0 8 12q12 0 27 32h27zM1568 834h8l58 -4l11 -28q0 -15 -23 -28h-31v-36h-23v96zM1649 834h73v-20h-27v-76h-23v76h-23v20zM1730 834h27v-96h-27v96zM1776 834h35q0 -13 27 -68v-4h8l27 64v8h34v-96h-27l4 64
q-9 0 -31 -64h-23l-27 68h-3v-20l3 -48h-27v96zM1927 834h27v-96h-27v96zM1973 834h66v-20h-43v-20h43v-16h-43v-24h43v-16h-66v96zM2062 834h11q73 0 73 -28v-12q-9 -20 -30 -20l30 -36h-30q0 13 -31 40v-40h-23v96zM2162 834h65v-20h-42v-20h42v-16h-42v-24h42v-16h-65v96
zM2251 834h19l54 -60v60h27v-96h-27q0 8 -46 56v4h-4v-60h-23v96zM770 794v-16q14 -24 35 -24h8q38 0 38 32t-34 32h-20q-27 -17 -27 -24zM1449 798v-24q8 -20 38 -20t39 20v24q0 12 -35 20h-8q-34 -8 -34 -20zM1591 814v-24h23l8 8v12l-19 4h-12zM2085 814v-32h15
q20 0 23 12v16l-19 4h-19zM38 646h62l42 -159q9 3 46 159h58q7 0 46 -159h4l43 159h61v-4q-73 -247 -81 -247h-58l-38 155h-8q-33 -155 -42 -155h-54q-9 0 -81 251zM408 646h62l42 -159q9 3 46 159h58q7 0 46 -159h4l43 159h61v-4q-73 -247 -81 -247h-57l-39 155h-8
q-33 -155 -42 -155h-54q-9 0 -81 251zM778 646h62l42 -159q9 3 46 159h58q7 0 46 -159h4l43 159h61v-4q-73 -247 -81 -247h-57l-39 155h-8q-33 -155 -42 -155h-54q-9 0 -81 251zM1175 463h69v-68h-69v68zM300 343h69v-343h-69v343zM990 343h69v-60h-69v60zM1190 339v-88h47
v-52h-47v-139q0 -12 16 -12l27 4v-4l4 -24v-20l-47 -8h-7q-58 0 -58 72l-4 107v24h-31v52h31v44q1 7 69 44zM535 255h4q119 -14 119 -119v-20q0 -89 -92 -116l-27 -4q-123 11 -123 120v20q0 105 119 119zM797 255q27 0 62 -36v32h69v-139q0 -184 -31 -184q-18 -28 -80 -28
q-116 0 -116 88h4q73 0 73 -16q0 -20 27 -20h12q42 0 42 36v52q-33 -40 -69 -40h-4q-89 16 -89 112v31q0 78 66 108zM1379 255h4q120 -14 120 -119v-20q0 -89 -93 -116l-27 -4q-123 11 -123 120v20q0 105 119 119zM1641 255q27 0 62 -36v32h70v-139q0 -184 -31 -184
q-19 -28 -81 -28q-116 0 -116 88h4q73 0 73 -16q0 -20 27 -20h12q42 0 42 36v52q-33 -40 -69 -40h-4q-89 16 -89 112v31q0 78 66 108zM1942 255h4q120 -14 120 -119v-20q0 -89 -93 -116l-27 -4q-123 11 -123 120v20q0 105 119 119zM990 251h69v-251h-69v251zM481 147v-43
q0 -50 62 -56q37 0 50 56v43q0 50 -62 56q-37 0 -50 -56zM763 147v-39q5 -56 46 -56q42 0 50 60v39q-10 52 -46 52h-4q-41 0 -46 -56zM1325 147v-43q0 -50 62 -56q37 0 50 56v43q0 50 -62 56q-36 0 -50 -56zM1607 147v-39q5 -56 46 -56q42 0 50 60v39q-10 52 -46 52h-4
q-41 0 -46 -56zM1888 147v-43q0 -50 62 -56q37 0 50 56v43q0 50 -62 56q-37 0 -50 -56zM1584 -144h4q66 0 92 -56l8 -27h-4l-62 -8q-2 39 -34 39h-8q-32 0 -43 -47v-52q0 -56 51 -56q34 0 38 48l66 -8q0 -56 -62 -84q-15 -8 -42 -8h-4q-112 10 -112 116v28q10 115 112 115z
M1850 -144h3q120 -14 120 -119v-20q0 -89 -93 -116l-27 -4q-123 11 -123 120v20q0 105 120 119zM2162 -144q31 0 62 -40q0 23 69 40q85 0 85 -103v-152h-70v172q0 31 -30 31h-4q-37 0 -43 -55v-148h-69v172q0 31 -31 31h-4q-42 -7 -42 -51v-152h-70v251h70v-28q33 32 77 32z
M1796 -251v-44q0 -50 61 -56q37 0 50 56v44q0 49 -61 55q-37 0 -50 -55zM1352 -331h70v-68h-70v68z" />
    <glyph glyph-name="asciitilde" unicode="~" 
d="M358 1416h2066v-531h-154l-54 -15v-4h208v-172h-2390v172h528v4l-54 15h-339q-95 0 -108 44q-27 26 -27 52v48q0 30 89 152l69 103q65 101 81 108q41 23 85 24zM46 1005q0 -70 81 -104h370q-62 69 -62 152q0 88 81 156q54 27 100 27q43 0 100 -39l35 -40q31 -49 31 -108
q0 -80 -62 -148h131q-65 69 -65 152v8q0 37 31 96q57 79 138 79h27q82 0 135 -107h-77q-41 36 -62 36h-34q-34 0 -81 -60l-8 -40v-24q0 -75 85 -104h50q51 24 66 60v4l-4 -4l-4 4h-4l-4 -4l-4 4h-4l-3 -4l-4 4h-4l-4 -4l-4 4h-11l-4 -4l-4 4h-4l-4 -4l-4 4h-4l-3 -4l-4 4
h-23l-4 -4l-4 4h-4l-4 -4h-4l-4 4v60h209v-4q0 -97 -62 -152v-4h278q-58 73 -58 116v52q0 96 104 152q37 15 73 15q62 0 127 -67q39 -61 39 -100v-32q0 -65 -62 -136h131v8q-8 0 -8 12q-23 4 -50 88l-4 40v16q0 72 81 144q45 27 101 27q83 0 119 -63q12 0 27 -36v-8h-81
q0 22 -65 36h-20q-92 -24 -92 -116q0 -98 104 -116q64 0 96 64h-131v44l-4 4l4 16h208v-20q0 -71 -61 -140h131v8h-8q0 10 -19 28q-35 57 -35 116q0 116 123 176l54 7q51 0 105 -39q2 -16 19 -16q46 -64 46 -132q0 -75 -38 -116l-24 -32h128v499h-2055q-74 0 -120 -80
l-96 -143q-92 -127 -92 -172zM1136 1352h1203v-64h-1060v-359h-65v359h-78v64zM423 1336h97q-82 -112 -124 -183q-7 0 -7 -12q-8 0 -50 -68q-51 -67 -51 -80h51l3 4l4 -4h4l4 4l4 -4h73v-64h-297l66 96l166 231q43 72 57 80zM1140 1236h62v-307h-62v307zM500 1053
q0 -62 62 -108l46 -12q81 0 108 100v24q-17 80 -42 80q0 14 -62 28h-4q-48 0 -92 -56zM1356 1049q0 -83 81 -112l23 -4q93 0 108 120q0 69 -69 104l-35 8q-96 -20 -96 -68q-10 0 -12 -48zM2066 1033q0 -41 57 -88l47 -12q80 7 100 76l8 32v12q-3 36 -27 76q-45 36 -78 36h-3
q-64 0 -104 -84v-48zM655 870v-4h266v4l-58 15h-154zM998 870v-4h416v4l-54 15h-308zM1507 870v-4h266v4l-58 15h-154zM1861 866h262v4l-54 15h-154q-54 -10 -54 -19zM49 846h4l-4 -4v-60l4 -16l-4 -16v-32l8 -8h2352v144h-2352zM223 850h15v-16h-11v-76l19 -4l15 4v76h-7
v16h15q0 -16 8 -16h8v-44q0 -52 -31 -52h-27q-23 14 -23 36v60q19 0 19 8v8zM362 838q35 0 57 -32v-4h-23l-23 16h-15q-31 0 -35 -32q0 -32 43 -32q16 0 38 12v4h-54v16h77q0 -35 -50 -48h-27q-30 3 -50 36v24q30 40 62 40zM547 838q35 0 58 -32v-4h-24l-23 16h-15
q-31 0 -35 -32q0 -32 43 -32q16 0 38 12v4h-54v16h77q0 -35 -50 -48h-27q-30 3 -50 36v24q30 40 62 40zM813 838q31 0 61 -40v-24q-26 -36 -54 -36h-23q-34 0 -50 48q0 41 66 52zM948 838q37 -4 54 -28h3v-8h-23l-23 16h-15q-35 -8 -35 -20v-24q9 -20 39 -20h3l39 12v4h-54
v16h77q-13 -48 -54 -48h-23q-36 0 -54 48q4 20 27 36q0 9 39 16zM1106 838q22 0 34 -32h-27v12h-19v-20q46 -12 46 -24v-4q-4 -32 -30 -32h-12q-18 0 -31 20v8h23q0 -12 8 -12h12l7 8v12q-50 10 -50 32q12 32 39 32zM1487 838q39 -6 39 -16q22 -12 27 -36q-16 -48 -54 -48
h-23q-37 0 -54 48q19 52 65 52zM115 834h73v-16l-50 -64h50v-16h-77v12l46 60v4h-42v20zM446 834h24v-96h-24v96zM678 834h27v-80h38v-16h-65v96zM1029 834h23v-96h-23v96zM1148 834h73v-20h-23v-76h-23v76h-27v20zM1233 834h23v-96h-23v96zM1279 834h23v-96h-23v96z
M1368 834v-4q-10 0 -12 -16l-27 -28l35 -48h-19q-9 2 -39 44v8q8 0 8 12q12 0 27 32h27zM1568 834h8l58 -4l11 -28q0 -15 -23 -28h-31v-36h-23v96zM1649 834h73v-20h-27v-76h-23v76h-23v20zM1730 834h27v-96h-27v96zM1776 834h35q0 -13 27 -68v-4h8l27 64v8h34v-96h-27l4 64
q-9 0 -31 -64h-23l-27 68h-3v-20l3 -48h-27v96zM1927 834h27v-96h-27v96zM1973 834h66v-20h-43v-20h43v-16h-43v-24h43v-16h-66v96zM2062 834h11q73 0 73 -28v-12q-9 -20 -30 -20l30 -36h-30q0 13 -31 40v-40h-23v96zM2162 834h65v-20h-42v-20h42v-16h-42v-24h42v-16h-65v96
zM2251 834h19l54 -60v60h27v-96h-27q0 8 -46 56v4h-4v-60h-23v96zM770 794v-16q14 -24 35 -24h8q38 0 38 32t-34 32h-20q-27 -17 -27 -24zM1449 798v-24q8 -20 38 -20t39 20v24q0 12 -35 20h-8q-34 -8 -34 -20zM1591 814v-24h23l8 8v12l-19 4h-12zM2085 814v-32h15
q20 0 23 12v16l-19 4h-19zM38 646h62l42 -159q9 3 46 159h58q7 0 46 -159h4l43 159h61v-4q-73 -247 -81 -247h-58l-38 155h-8q-33 -155 -42 -155h-54q-9 0 -81 251zM408 646h62l42 -159q9 3 46 159h58q7 0 46 -159h4l43 159h61v-4q-73 -247 -81 -247h-57l-39 155h-8
q-33 -155 -42 -155h-54q-9 0 -81 251zM778 646h62l42 -159q9 3 46 159h58q7 0 46 -159h4l43 159h61v-4q-73 -247 -81 -247h-57l-39 155h-8q-33 -155 -42 -155h-54q-9 0 -81 251zM1175 463h69v-68h-69v68zM300 343h69v-343h-69v343zM990 343h69v-60h-69v60zM1190 339v-88h47
v-52h-47v-139q0 -12 16 -12l27 4v-4l4 -24v-20l-47 -8h-7q-58 0 -58 72l-4 107v24h-31v52h31v44q1 7 69 44zM535 255h4q119 -14 119 -119v-20q0 -89 -92 -116l-27 -4q-123 11 -123 120v20q0 105 119 119zM797 255q27 0 62 -36v32h69v-139q0 -184 -31 -184q-18 -28 -80 -28
q-116 0 -116 88h4q73 0 73 -16q0 -20 27 -20h12q42 0 42 36v52q-33 -40 -69 -40h-4q-89 16 -89 112v31q0 78 66 108zM1379 255h4q120 -14 120 -119v-20q0 -89 -93 -116l-27 -4q-123 11 -123 120v20q0 105 119 119zM1641 255q27 0 62 -36v32h70v-139q0 -184 -31 -184
q-19 -28 -81 -28q-116 0 -116 88h4q73 0 73 -16q0 -20 27 -20h12q42 0 42 36v52q-33 -40 -69 -40h-4q-89 16 -89 112v31q0 78 66 108zM1942 255h4q120 -14 120 -119v-20q0 -89 -93 -116l-27 -4q-123 11 -123 120v20q0 105 119 119zM990 251h69v-251h-69v251zM481 147v-43
q0 -50 62 -56q37 0 50 56v43q0 50 -62 56q-37 0 -50 -56zM763 147v-39q5 -56 46 -56q42 0 50 60v39q-10 52 -46 52h-4q-41 0 -46 -56zM1325 147v-43q0 -50 62 -56q37 0 50 56v43q0 50 -62 56q-36 0 -50 -56zM1607 147v-39q5 -56 46 -56q42 0 50 60v39q-10 52 -46 52h-4
q-41 0 -46 -56zM1888 147v-43q0 -50 62 -56q37 0 50 56v43q0 50 -62 56q-37 0 -50 -56zM1584 -144h4q66 0 92 -56l8 -27h-4l-62 -8q-2 39 -34 39h-8q-32 0 -43 -47v-52q0 -56 51 -56q34 0 38 48l66 -8q0 -56 -62 -84q-15 -8 -42 -8h-4q-112 10 -112 116v28q10 115 112 115z
M1850 -144h3q120 -14 120 -119v-20q0 -89 -93 -116l-27 -4q-123 11 -123 120v20q0 105 120 119zM2162 -144q31 0 62 -40q0 23 69 40q85 0 85 -103v-152h-70v172q0 31 -30 31h-4q-37 0 -43 -55v-148h-69v172q0 31 -31 31h-4q-42 -7 -42 -51v-152h-70v251h70v-28q33 32 77 32z
M1796 -251v-44q0 -50 61 -56q37 0 50 56v44q0 49 -61 55q-37 0 -50 -55zM1352 -331h70v-68h-70v68z" />
    <glyph glyph-name="Adieresis" unicode="&#xc4;" 
d="M358 1416h2066v-531h-154l-54 -15v-4h208v-172h-2390v172h528v4l-54 15h-339q-95 0 -108 44q-27 26 -27 52v48q0 30 89 152l69 103q65 101 81 108q41 23 85 24zM46 1005q0 -70 81 -104h370q-62 69 -62 152q0 88 81 156q54 27 100 27q43 0 100 -39l35 -40q31 -49 31 -108
q0 -80 -62 -148h131q-65 69 -65 152v8q0 37 31 96q57 79 138 79h27q82 0 135 -107h-77q-41 36 -62 36h-34q-34 0 -81 -60l-8 -40v-24q0 -75 85 -104h50q51 24 66 60v4l-4 -4l-4 4h-4l-4 -4l-4 4h-4l-3 -4l-4 4h-4l-4 -4l-4 4h-11l-4 -4l-4 4h-4l-4 -4l-4 4h-4l-3 -4l-4 4
h-23l-4 -4l-4 4h-4l-4 -4h-4l-4 4v60h209v-4q0 -97 -62 -152v-4h278q-58 73 -58 116v52q0 96 104 152q37 15 73 15q62 0 127 -67q39 -61 39 -100v-32q0 -65 -62 -136h131v8q-8 0 -8 12q-23 4 -50 88l-4 40v16q0 72 81 144q45 27 101 27q83 0 119 -63q12 0 27 -36v-8h-81
q0 22 -65 36h-20q-92 -24 -92 -116q0 -98 104 -116q64 0 96 64h-131v44l-4 4l4 16h208v-20q0 -71 -61 -140h131v8h-8q0 10 -19 28q-35 57 -35 116q0 116 123 176l54 7q51 0 105 -39q2 -16 19 -16q46 -64 46 -132q0 -75 -38 -116l-24 -32h128v499h-2055q-74 0 -120 -80
l-96 -143q-92 -127 -92 -172zM1136 1352h1203v-64h-1060v-359h-65v359h-78v64zM423 1336h97q-82 -112 -124 -183q-7 0 -7 -12q-8 0 -50 -68q-51 -67 -51 -80h51l3 4l4 -4h4l4 4l4 -4h73v-64h-297l66 96l166 231q43 72 57 80zM1140 1236h62v-307h-62v307zM500 1053
q0 -62 62 -108l46 -12q81 0 108 100v24q-17 80 -42 80q0 14 -62 28h-4q-48 0 -92 -56zM1356 1049q0 -83 81 -112l23 -4q93 0 108 120q0 69 -69 104l-35 8q-96 -20 -96 -68q-10 0 -12 -48zM2066 1033q0 -41 57 -88l47 -12q80 7 100 76l8 32v12q-3 36 -27 76q-45 36 -78 36h-3
q-64 0 -104 -84v-48zM655 870v-4h266v4l-58 15h-154zM998 870v-4h416v4l-54 15h-308zM1507 870v-4h266v4l-58 15h-154zM1861 866h262v4l-54 15h-154q-54 -10 -54 -19zM49 846h4l-4 -4v-60l4 -16l-4 -16v-32l8 -8h2352v144h-2352zM223 850h15v-16h-11v-76l19 -4l15 4v76h-7
v16h15q0 -16 8 -16h8v-44q0 -52 -31 -52h-27q-23 14 -23 36v60q19 0 19 8v8zM362 838q35 0 57 -32v-4h-23l-23 16h-15q-31 0 -35 -32q0 -32 43 -32q16 0 38 12v4h-54v16h77q0 -35 -50 -48h-27q-30 3 -50 36v24q30 40 62 40zM547 838q35 0 58 -32v-4h-24l-23 16h-15
q-31 0 -35 -32q0 -32 43 -32q16 0 38 12v4h-54v16h77q0 -35 -50 -48h-27q-30 3 -50 36v24q30 40 62 40zM813 838q31 0 61 -40v-24q-26 -36 -54 -36h-23q-34 0 -50 48q0 41 66 52zM948 838q37 -4 54 -28h3v-8h-23l-23 16h-15q-35 -8 -35 -20v-24q9 -20 39 -20h3l39 12v4h-54
v16h77q-13 -48 -54 -48h-23q-36 0 -54 48q4 20 27 36q0 9 39 16zM1106 838q22 0 34 -32h-27v12h-19v-20q46 -12 46 -24v-4q-4 -32 -30 -32h-12q-18 0 -31 20v8h23q0 -12 8 -12h12l7 8v12q-50 10 -50 32q12 32 39 32zM1487 838q39 -6 39 -16q22 -12 27 -36q-16 -48 -54 -48
h-23q-37 0 -54 48q19 52 65 52zM115 834h73v-16l-50 -64h50v-16h-77v12l46 60v4h-42v20zM446 834h24v-96h-24v96zM678 834h27v-80h38v-16h-65v96zM1029 834h23v-96h-23v96zM1148 834h73v-20h-23v-76h-23v76h-27v20zM1233 834h23v-96h-23v96zM1279 834h23v-96h-23v96z
M1368 834v-4q-10 0 -12 -16l-27 -28l35 -48h-19q-9 2 -39 44v8q8 0 8 12q12 0 27 32h27zM1568 834h8l58 -4l11 -28q0 -15 -23 -28h-31v-36h-23v96zM1649 834h73v-20h-27v-76h-23v76h-23v20zM1730 834h27v-96h-27v96zM1776 834h35q0 -13 27 -68v-4h8l27 64v8h34v-96h-27l4 64
q-9 0 -31 -64h-23l-27 68h-3v-20l3 -48h-27v96zM1927 834h27v-96h-27v96zM1973 834h66v-20h-43v-20h43v-16h-43v-24h43v-16h-66v96zM2062 834h11q73 0 73 -28v-12q-9 -20 -30 -20l30 -36h-30q0 13 -31 40v-40h-23v96zM2162 834h65v-20h-42v-20h42v-16h-42v-24h42v-16h-65v96
zM2251 834h19l54 -60v60h27v-96h-27q0 8 -46 56v4h-4v-60h-23v96zM770 794v-16q14 -24 35 -24h8q38 0 38 32t-34 32h-20q-27 -17 -27 -24zM1449 798v-24q8 -20 38 -20t39 20v24q0 12 -35 20h-8q-34 -8 -34 -20zM1591 814v-24h23l8 8v12l-19 4h-12zM2085 814v-32h15
q20 0 23 12v16l-19 4h-19zM38 646h62l42 -159q9 3 46 159h58q7 0 46 -159h4l43 159h61v-4q-73 -247 -81 -247h-58l-38 155h-8q-33 -155 -42 -155h-54q-9 0 -81 251zM408 646h62l42 -159q9 3 46 159h58q7 0 46 -159h4l43 159h61v-4q-73 -247 -81 -247h-57l-39 155h-8
q-33 -155 -42 -155h-54q-9 0 -81 251zM778 646h62l42 -159q9 3 46 159h58q7 0 46 -159h4l43 159h61v-4q-73 -247 -81 -247h-57l-39 155h-8q-33 -155 -42 -155h-54q-9 0 -81 251zM1175 463h69v-68h-69v68zM300 343h69v-343h-69v343zM990 343h69v-60h-69v60zM1190 339v-88h47
v-52h-47v-139q0 -12 16 -12l27 4v-4l4 -24v-20l-47 -8h-7q-58 0 -58 72l-4 107v24h-31v52h31v44q1 7 69 44zM535 255h4q119 -14 119 -119v-20q0 -89 -92 -116l-27 -4q-123 11 -123 120v20q0 105 119 119zM797 255q27 0 62 -36v32h69v-139q0 -184 -31 -184q-18 -28 -80 -28
q-116 0 -116 88h4q73 0 73 -16q0 -20 27 -20h12q42 0 42 36v52q-33 -40 -69 -40h-4q-89 16 -89 112v31q0 78 66 108zM1379 255h4q120 -14 120 -119v-20q0 -89 -93 -116l-27 -4q-123 11 -123 120v20q0 105 119 119zM1641 255q27 0 62 -36v32h70v-139q0 -184 -31 -184
q-19 -28 -81 -28q-116 0 -116 88h4q73 0 73 -16q0 -20 27 -20h12q42 0 42 36v52q-33 -40 -69 -40h-4q-89 16 -89 112v31q0 78 66 108zM1942 255h4q120 -14 120 -119v-20q0 -89 -93 -116l-27 -4q-123 11 -123 120v20q0 105 119 119zM990 251h69v-251h-69v251zM481 147v-43
q0 -50 62 -56q37 0 50 56v43q0 50 -62 56q-37 0 -50 -56zM763 147v-39q5 -56 46 -56q42 0 50 60v39q-10 52 -46 52h-4q-41 0 -46 -56zM1325 147v-43q0 -50 62 -56q37 0 50 56v43q0 50 -62 56q-36 0 -50 -56zM1607 147v-39q5 -56 46 -56q42 0 50 60v39q-10 52 -46 52h-4
q-41 0 -46 -56zM1888 147v-43q0 -50 62 -56q37 0 50 56v43q0 50 -62 56q-37 0 -50 -56zM1584 -144h4q66 0 92 -56l8 -27h-4l-62 -8q-2 39 -34 39h-8q-32 0 -43 -47v-52q0 -56 51 -56q34 0 38 48l66 -8q0 -56 -62 -84q-15 -8 -42 -8h-4q-112 10 -112 116v28q10 115 112 115z
M1850 -144h3q120 -14 120 -119v-20q0 -89 -93 -116l-27 -4q-123 11 -123 120v20q0 105 120 119zM2162 -144q31 0 62 -40q0 23 69 40q85 0 85 -103v-152h-70v172q0 31 -30 31h-4q-37 0 -43 -55v-148h-69v172q0 31 -31 31h-4q-42 -7 -42 -51v-152h-70v251h70v-28q33 32 77 32z
M1796 -251v-44q0 -50 61 -56q37 0 50 56v44q0 49 -61 55q-37 0 -50 -55zM1352 -331h70v-68h-70v68z" />
    <glyph glyph-name="Aring" unicode="&#xc5;" 
d="M358 1416h2066v-531h-154l-54 -15v-4h208v-172h-2390v172h528v4l-54 15h-339q-95 0 -108 44q-27 26 -27 52v48q0 30 89 152l69 103q65 101 81 108q41 23 85 24zM46 1005q0 -70 81 -104h370q-62 69 -62 152q0 88 81 156q54 27 100 27q43 0 100 -39l35 -40q31 -49 31 -108
q0 -80 -62 -148h131q-65 69 -65 152v8q0 37 31 96q57 79 138 79h27q82 0 135 -107h-77q-41 36 -62 36h-34q-34 0 -81 -60l-8 -40v-24q0 -75 85 -104h50q51 24 66 60v4l-4 -4l-4 4h-4l-4 -4l-4 4h-4l-3 -4l-4 4h-4l-4 -4l-4 4h-11l-4 -4l-4 4h-4l-4 -4l-4 4h-4l-3 -4l-4 4
h-23l-4 -4l-4 4h-4l-4 -4h-4l-4 4v60h209v-4q0 -97 -62 -152v-4h278q-58 73 -58 116v52q0 96 104 152q37 15 73 15q62 0 127 -67q39 -61 39 -100v-32q0 -65 -62 -136h131v8q-8 0 -8 12q-23 4 -50 88l-4 40v16q0 72 81 144q45 27 101 27q83 0 119 -63q12 0 27 -36v-8h-81
q0 22 -65 36h-20q-92 -24 -92 -116q0 -98 104 -116q64 0 96 64h-131v44l-4 4l4 16h208v-20q0 -71 -61 -140h131v8h-8q0 10 -19 28q-35 57 -35 116q0 116 123 176l54 7q51 0 105 -39q2 -16 19 -16q46 -64 46 -132q0 -75 -38 -116l-24 -32h128v499h-2055q-74 0 -120 -80
l-96 -143q-92 -127 -92 -172zM1136 1352h1203v-64h-1060v-359h-65v359h-78v64zM423 1336h97q-82 -112 -124 -183q-7 0 -7 -12q-8 0 -50 -68q-51 -67 -51 -80h51l3 4l4 -4h4l4 4l4 -4h73v-64h-297l66 96l166 231q43 72 57 80zM1140 1236h62v-307h-62v307zM500 1053
q0 -62 62 -108l46 -12q81 0 108 100v24q-17 80 -42 80q0 14 -62 28h-4q-48 0 -92 -56zM1356 1049q0 -83 81 -112l23 -4q93 0 108 120q0 69 -69 104l-35 8q-96 -20 -96 -68q-10 0 -12 -48zM2066 1033q0 -41 57 -88l47 -12q80 7 100 76l8 32v12q-3 36 -27 76q-45 36 -78 36h-3
q-64 0 -104 -84v-48zM655 870v-4h266v4l-58 15h-154zM998 870v-4h416v4l-54 15h-308zM1507 870v-4h266v4l-58 15h-154zM1861 866h262v4l-54 15h-154q-54 -10 -54 -19zM49 846h4l-4 -4v-60l4 -16l-4 -16v-32l8 -8h2352v144h-2352zM223 850h15v-16h-11v-76l19 -4l15 4v76h-7
v16h15q0 -16 8 -16h8v-44q0 -52 -31 -52h-27q-23 14 -23 36v60q19 0 19 8v8zM362 838q35 0 57 -32v-4h-23l-23 16h-15q-31 0 -35 -32q0 -32 43 -32q16 0 38 12v4h-54v16h77q0 -35 -50 -48h-27q-30 3 -50 36v24q30 40 62 40zM547 838q35 0 58 -32v-4h-24l-23 16h-15
q-31 0 -35 -32q0 -32 43 -32q16 0 38 12v4h-54v16h77q0 -35 -50 -48h-27q-30 3 -50 36v24q30 40 62 40zM813 838q31 0 61 -40v-24q-26 -36 -54 -36h-23q-34 0 -50 48q0 41 66 52zM948 838q37 -4 54 -28h3v-8h-23l-23 16h-15q-35 -8 -35 -20v-24q9 -20 39 -20h3l39 12v4h-54
v16h77q-13 -48 -54 -48h-23q-36 0 -54 48q4 20 27 36q0 9 39 16zM1106 838q22 0 34 -32h-27v12h-19v-20q46 -12 46 -24v-4q-4 -32 -30 -32h-12q-18 0 -31 20v8h23q0 -12 8 -12h12l7 8v12q-50 10 -50 32q12 32 39 32zM1487 838q39 -6 39 -16q22 -12 27 -36q-16 -48 -54 -48
h-23q-37 0 -54 48q19 52 65 52zM115 834h73v-16l-50 -64h50v-16h-77v12l46 60v4h-42v20zM446 834h24v-96h-24v96zM678 834h27v-80h38v-16h-65v96zM1029 834h23v-96h-23v96zM1148 834h73v-20h-23v-76h-23v76h-27v20zM1233 834h23v-96h-23v96zM1279 834h23v-96h-23v96z
M1368 834v-4q-10 0 -12 -16l-27 -28l35 -48h-19q-9 2 -39 44v8q8 0 8 12q12 0 27 32h27zM1568 834h8l58 -4l11 -28q0 -15 -23 -28h-31v-36h-23v96zM1649 834h73v-20h-27v-76h-23v76h-23v20zM1730 834h27v-96h-27v96zM1776 834h35q0 -13 27 -68v-4h8l27 64v8h34v-96h-27l4 64
q-9 0 -31 -64h-23l-27 68h-3v-20l3 -48h-27v96zM1927 834h27v-96h-27v96zM1973 834h66v-20h-43v-20h43v-16h-43v-24h43v-16h-66v96zM2062 834h11q73 0 73 -28v-12q-9 -20 -30 -20l30 -36h-30q0 13 -31 40v-40h-23v96zM2162 834h65v-20h-42v-20h42v-16h-42v-24h42v-16h-65v96
zM2251 834h19l54 -60v60h27v-96h-27q0 8 -46 56v4h-4v-60h-23v96zM770 794v-16q14 -24 35 -24h8q38 0 38 32t-34 32h-20q-27 -17 -27 -24zM1449 798v-24q8 -20 38 -20t39 20v24q0 12 -35 20h-8q-34 -8 -34 -20zM1591 814v-24h23l8 8v12l-19 4h-12zM2085 814v-32h15
q20 0 23 12v16l-19 4h-19zM38 646h62l42 -159q9 3 46 159h58q7 0 46 -159h4l43 159h61v-4q-73 -247 -81 -247h-58l-38 155h-8q-33 -155 -42 -155h-54q-9 0 -81 251zM408 646h62l42 -159q9 3 46 159h58q7 0 46 -159h4l43 159h61v-4q-73 -247 -81 -247h-57l-39 155h-8
q-33 -155 -42 -155h-54q-9 0 -81 251zM778 646h62l42 -159q9 3 46 159h58q7 0 46 -159h4l43 159h61v-4q-73 -247 -81 -247h-57l-39 155h-8q-33 -155 -42 -155h-54q-9 0 -81 251zM1175 463h69v-68h-69v68zM300 343h69v-343h-69v343zM990 343h69v-60h-69v60zM1190 339v-88h47
v-52h-47v-139q0 -12 16 -12l27 4v-4l4 -24v-20l-47 -8h-7q-58 0 -58 72l-4 107v24h-31v52h31v44q1 7 69 44zM535 255h4q119 -14 119 -119v-20q0 -89 -92 -116l-27 -4q-123 11 -123 120v20q0 105 119 119zM797 255q27 0 62 -36v32h69v-139q0 -184 -31 -184q-18 -28 -80 -28
q-116 0 -116 88h4q73 0 73 -16q0 -20 27 -20h12q42 0 42 36v52q-33 -40 -69 -40h-4q-89 16 -89 112v31q0 78 66 108zM1379 255h4q120 -14 120 -119v-20q0 -89 -93 -116l-27 -4q-123 11 -123 120v20q0 105 119 119zM1641 255q27 0 62 -36v32h70v-139q0 -184 -31 -184
q-19 -28 -81 -28q-116 0 -116 88h4q73 0 73 -16q0 -20 27 -20h12q42 0 42 36v52q-33 -40 -69 -40h-4q-89 16 -89 112v31q0 78 66 108zM1942 255h4q120 -14 120 -119v-20q0 -89 -93 -116l-27 -4q-123 11 -123 120v20q0 105 119 119zM990 251h69v-251h-69v251zM481 147v-43
q0 -50 62 -56q37 0 50 56v43q0 50 -62 56q-37 0 -50 -56zM763 147v-39q5 -56 46 -56q42 0 50 60v39q-10 52 -46 52h-4q-41 0 -46 -56zM1325 147v-43q0 -50 62 -56q37 0 50 56v43q0 50 -62 56q-36 0 -50 -56zM1607 147v-39q5 -56 46 -56q42 0 50 60v39q-10 52 -46 52h-4
q-41 0 -46 -56zM1888 147v-43q0 -50 62 -56q37 0 50 56v43q0 50 -62 56q-37 0 -50 -56zM1584 -144h4q66 0 92 -56l8 -27h-4l-62 -8q-2 39 -34 39h-8q-32 0 -43 -47v-52q0 -56 51 -56q34 0 38 48l66 -8q0 -56 -62 -84q-15 -8 -42 -8h-4q-112 10 -112 116v28q10 115 112 115z
M1850 -144h3q120 -14 120 -119v-20q0 -89 -93 -116l-27 -4q-123 11 -123 120v20q0 105 120 119zM2162 -144q31 0 62 -40q0 23 69 40q85 0 85 -103v-152h-70v172q0 31 -30 31h-4q-37 0 -43 -55v-148h-69v172q0 31 -31 31h-4q-42 -7 -42 -51v-152h-70v251h70v-28q33 32 77 32z
M1796 -251v-44q0 -50 61 -56q37 0 50 56v44q0 49 -61 55q-37 0 -50 -55zM1352 -331h70v-68h-70v68z" />
    <glyph glyph-name="Ccedilla" unicode="&#xc7;" 
d="M358 1416h2066v-531h-154l-54 -15v-4h208v-172h-2390v172h528v4l-54 15h-339q-95 0 -108 44q-27 26 -27 52v48q0 30 89 152l69 103q65 101 81 108q41 23 85 24zM46 1005q0 -70 81 -104h370q-62 69 -62 152q0 88 81 156q54 27 100 27q43 0 100 -39l35 -40q31 -49 31 -108
q0 -80 -62 -148h131q-65 69 -65 152v8q0 37 31 96q57 79 138 79h27q82 0 135 -107h-77q-41 36 -62 36h-34q-34 0 -81 -60l-8 -40v-24q0 -75 85 -104h50q51 24 66 60v4l-4 -4l-4 4h-4l-4 -4l-4 4h-4l-3 -4l-4 4h-4l-4 -4l-4 4h-11l-4 -4l-4 4h-4l-4 -4l-4 4h-4l-3 -4l-4 4
h-23l-4 -4l-4 4h-4l-4 -4h-4l-4 4v60h209v-4q0 -97 -62 -152v-4h278q-58 73 -58 116v52q0 96 104 152q37 15 73 15q62 0 127 -67q39 -61 39 -100v-32q0 -65 -62 -136h131v8q-8 0 -8 12q-23 4 -50 88l-4 40v16q0 72 81 144q45 27 101 27q83 0 119 -63q12 0 27 -36v-8h-81
q0 22 -65 36h-20q-92 -24 -92 -116q0 -98 104 -116q64 0 96 64h-131v44l-4 4l4 16h208v-20q0 -71 -61 -140h131v8h-8q0 10 -19 28q-35 57 -35 116q0 116 123 176l54 7q51 0 105 -39q2 -16 19 -16q46 -64 46 -132q0 -75 -38 -116l-24 -32h128v499h-2055q-74 0 -120 -80
l-96 -143q-92 -127 -92 -172zM1136 1352h1203v-64h-1060v-359h-65v359h-78v64zM423 1336h97q-82 -112 -124 -183q-7 0 -7 -12q-8 0 -50 -68q-51 -67 -51 -80h51l3 4l4 -4h4l4 4l4 -4h73v-64h-297l66 96l166 231q43 72 57 80zM1140 1236h62v-307h-62v307zM500 1053
q0 -62 62 -108l46 -12q81 0 108 100v24q-17 80 -42 80q0 14 -62 28h-4q-48 0 -92 -56zM1356 1049q0 -83 81 -112l23 -4q93 0 108 120q0 69 -69 104l-35 8q-96 -20 -96 -68q-10 0 -12 -48zM2066 1033q0 -41 57 -88l47 -12q80 7 100 76l8 32v12q-3 36 -27 76q-45 36 -78 36h-3
q-64 0 -104 -84v-48zM655 870v-4h266v4l-58 15h-154zM998 870v-4h416v4l-54 15h-308zM1507 870v-4h266v4l-58 15h-154zM1861 866h262v4l-54 15h-154q-54 -10 -54 -19zM49 846h4l-4 -4v-60l4 -16l-4 -16v-32l8 -8h2352v144h-2352zM223 850h15v-16h-11v-76l19 -4l15 4v76h-7
v16h15q0 -16 8 -16h8v-44q0 -52 -31 -52h-27q-23 14 -23 36v60q19 0 19 8v8zM362 838q35 0 57 -32v-4h-23l-23 16h-15q-31 0 -35 -32q0 -32 43 -32q16 0 38 12v4h-54v16h77q0 -35 -50 -48h-27q-30 3 -50 36v24q30 40 62 40zM547 838q35 0 58 -32v-4h-24l-23 16h-15
q-31 0 -35 -32q0 -32 43 -32q16 0 38 12v4h-54v16h77q0 -35 -50 -48h-27q-30 3 -50 36v24q30 40 62 40zM813 838q31 0 61 -40v-24q-26 -36 -54 -36h-23q-34 0 -50 48q0 41 66 52zM948 838q37 -4 54 -28h3v-8h-23l-23 16h-15q-35 -8 -35 -20v-24q9 -20 39 -20h3l39 12v4h-54
v16h77q-13 -48 -54 -48h-23q-36 0 -54 48q4 20 27 36q0 9 39 16zM1106 838q22 0 34 -32h-27v12h-19v-20q46 -12 46 -24v-4q-4 -32 -30 -32h-12q-18 0 -31 20v8h23q0 -12 8 -12h12l7 8v12q-50 10 -50 32q12 32 39 32zM1487 838q39 -6 39 -16q22 -12 27 -36q-16 -48 -54 -48
h-23q-37 0 -54 48q19 52 65 52zM115 834h73v-16l-50 -64h50v-16h-77v12l46 60v4h-42v20zM446 834h24v-96h-24v96zM678 834h27v-80h38v-16h-65v96zM1029 834h23v-96h-23v96zM1148 834h73v-20h-23v-76h-23v76h-27v20zM1233 834h23v-96h-23v96zM1279 834h23v-96h-23v96z
M1368 834v-4q-10 0 -12 -16l-27 -28l35 -48h-19q-9 2 -39 44v8q8 0 8 12q12 0 27 32h27zM1568 834h8l58 -4l11 -28q0 -15 -23 -28h-31v-36h-23v96zM1649 834h73v-20h-27v-76h-23v76h-23v20zM1730 834h27v-96h-27v96zM1776 834h35q0 -13 27 -68v-4h8l27 64v8h34v-96h-27l4 64
q-9 0 -31 -64h-23l-27 68h-3v-20l3 -48h-27v96zM1927 834h27v-96h-27v96zM1973 834h66v-20h-43v-20h43v-16h-43v-24h43v-16h-66v96zM2062 834h11q73 0 73 -28v-12q-9 -20 -30 -20l30 -36h-30q0 13 -31 40v-40h-23v96zM2162 834h65v-20h-42v-20h42v-16h-42v-24h42v-16h-65v96
zM2251 834h19l54 -60v60h27v-96h-27q0 8 -46 56v4h-4v-60h-23v96zM770 794v-16q14 -24 35 -24h8q38 0 38 32t-34 32h-20q-27 -17 -27 -24zM1449 798v-24q8 -20 38 -20t39 20v24q0 12 -35 20h-8q-34 -8 -34 -20zM1591 814v-24h23l8 8v12l-19 4h-12zM2085 814v-32h15
q20 0 23 12v16l-19 4h-19zM38 646h62l42 -159q9 3 46 159h58q7 0 46 -159h4l43 159h61v-4q-73 -247 -81 -247h-58l-38 155h-8q-33 -155 -42 -155h-54q-9 0 -81 251zM408 646h62l42 -159q9 3 46 159h58q7 0 46 -159h4l43 159h61v-4q-73 -247 -81 -247h-57l-39 155h-8
q-33 -155 -42 -155h-54q-9 0 -81 251zM778 646h62l42 -159q9 3 46 159h58q7 0 46 -159h4l43 159h61v-4q-73 -247 -81 -247h-57l-39 155h-8q-33 -155 -42 -155h-54q-9 0 -81 251zM1175 463h69v-68h-69v68zM300 343h69v-343h-69v343zM990 343h69v-60h-69v60zM1190 339v-88h47
v-52h-47v-139q0 -12 16 -12l27 4v-4l4 -24v-20l-47 -8h-7q-58 0 -58 72l-4 107v24h-31v52h31v44q1 7 69 44zM535 255h4q119 -14 119 -119v-20q0 -89 -92 -116l-27 -4q-123 11 -123 120v20q0 105 119 119zM797 255q27 0 62 -36v32h69v-139q0 -184 -31 -184q-18 -28 -80 -28
q-116 0 -116 88h4q73 0 73 -16q0 -20 27 -20h12q42 0 42 36v52q-33 -40 -69 -40h-4q-89 16 -89 112v31q0 78 66 108zM1379 255h4q120 -14 120 -119v-20q0 -89 -93 -116l-27 -4q-123 11 -123 120v20q0 105 119 119zM1641 255q27 0 62 -36v32h70v-139q0 -184 -31 -184
q-19 -28 -81 -28q-116 0 -116 88h4q73 0 73 -16q0 -20 27 -20h12q42 0 42 36v52q-33 -40 -69 -40h-4q-89 16 -89 112v31q0 78 66 108zM1942 255h4q120 -14 120 -119v-20q0 -89 -93 -116l-27 -4q-123 11 -123 120v20q0 105 119 119zM990 251h69v-251h-69v251zM481 147v-43
q0 -50 62 -56q37 0 50 56v43q0 50 -62 56q-37 0 -50 -56zM763 147v-39q5 -56 46 -56q42 0 50 60v39q-10 52 -46 52h-4q-41 0 -46 -56zM1325 147v-43q0 -50 62 -56q37 0 50 56v43q0 50 -62 56q-36 0 -50 -56zM1607 147v-39q5 -56 46 -56q42 0 50 60v39q-10 52 -46 52h-4
q-41 0 -46 -56zM1888 147v-43q0 -50 62 -56q37 0 50 56v43q0 50 -62 56q-37 0 -50 -56zM1584 -144h4q66 0 92 -56l8 -27h-4l-62 -8q-2 39 -34 39h-8q-32 0 -43 -47v-52q0 -56 51 -56q34 0 38 48l66 -8q0 -56 -62 -84q-15 -8 -42 -8h-4q-112 10 -112 116v28q10 115 112 115z
M1850 -144h3q120 -14 120 -119v-20q0 -89 -93 -116l-27 -4q-123 11 -123 120v20q0 105 120 119zM2162 -144q31 0 62 -40q0 23 69 40q85 0 85 -103v-152h-70v172q0 31 -30 31h-4q-37 0 -43 -55v-148h-69v172q0 31 -31 31h-4q-42 -7 -42 -51v-152h-70v251h70v-28q33 32 77 32z
M1796 -251v-44q0 -50 61 -56q37 0 50 56v44q0 49 -61 55q-37 0 -50 -55zM1352 -331h70v-68h-70v68z" />
    <glyph glyph-name="Eacute" unicode="&#xc9;" 
d="M358 1416h2066v-531h-154l-54 -15v-4h208v-172h-2390v172h528v4l-54 15h-339q-95 0 -108 44q-27 26 -27 52v48q0 30 89 152l69 103q65 101 81 108q41 23 85 24zM46 1005q0 -70 81 -104h370q-62 69 -62 152q0 88 81 156q54 27 100 27q43 0 100 -39l35 -40q31 -49 31 -108
q0 -80 -62 -148h131q-65 69 -65 152v8q0 37 31 96q57 79 138 79h27q82 0 135 -107h-77q-41 36 -62 36h-34q-34 0 -81 -60l-8 -40v-24q0 -75 85 -104h50q51 24 66 60v4l-4 -4l-4 4h-4l-4 -4l-4 4h-4l-3 -4l-4 4h-4l-4 -4l-4 4h-11l-4 -4l-4 4h-4l-4 -4l-4 4h-4l-3 -4l-4 4
h-23l-4 -4l-4 4h-4l-4 -4h-4l-4 4v60h209v-4q0 -97 -62 -152v-4h278q-58 73 -58 116v52q0 96 104 152q37 15 73 15q62 0 127 -67q39 -61 39 -100v-32q0 -65 -62 -136h131v8q-8 0 -8 12q-23 4 -50 88l-4 40v16q0 72 81 144q45 27 101 27q83 0 119 -63q12 0 27 -36v-8h-81
q0 22 -65 36h-20q-92 -24 -92 -116q0 -98 104 -116q64 0 96 64h-131v44l-4 4l4 16h208v-20q0 -71 -61 -140h131v8h-8q0 10 -19 28q-35 57 -35 116q0 116 123 176l54 7q51 0 105 -39q2 -16 19 -16q46 -64 46 -132q0 -75 -38 -116l-24 -32h128v499h-2055q-74 0 -120 -80
l-96 -143q-92 -127 -92 -172zM1136 1352h1203v-64h-1060v-359h-65v359h-78v64zM423 1336h97q-82 -112 -124 -183q-7 0 -7 -12q-8 0 -50 -68q-51 -67 -51 -80h51l3 4l4 -4h4l4 4l4 -4h73v-64h-297l66 96l166 231q43 72 57 80zM1140 1236h62v-307h-62v307zM500 1053
q0 -62 62 -108l46 -12q81 0 108 100v24q-17 80 -42 80q0 14 -62 28h-4q-48 0 -92 -56zM1356 1049q0 -83 81 -112l23 -4q93 0 108 120q0 69 -69 104l-35 8q-96 -20 -96 -68q-10 0 -12 -48zM2066 1033q0 -41 57 -88l47 -12q80 7 100 76l8 32v12q-3 36 -27 76q-45 36 -78 36h-3
q-64 0 -104 -84v-48zM655 870v-4h266v4l-58 15h-154zM998 870v-4h416v4l-54 15h-308zM1507 870v-4h266v4l-58 15h-154zM1861 866h262v4l-54 15h-154q-54 -10 -54 -19zM49 846h4l-4 -4v-60l4 -16l-4 -16v-32l8 -8h2352v144h-2352zM223 850h15v-16h-11v-76l19 -4l15 4v76h-7
v16h15q0 -16 8 -16h8v-44q0 -52 -31 -52h-27q-23 14 -23 36v60q19 0 19 8v8zM362 838q35 0 57 -32v-4h-23l-23 16h-15q-31 0 -35 -32q0 -32 43 -32q16 0 38 12v4h-54v16h77q0 -35 -50 -48h-27q-30 3 -50 36v24q30 40 62 40zM547 838q35 0 58 -32v-4h-24l-23 16h-15
q-31 0 -35 -32q0 -32 43 -32q16 0 38 12v4h-54v16h77q0 -35 -50 -48h-27q-30 3 -50 36v24q30 40 62 40zM813 838q31 0 61 -40v-24q-26 -36 -54 -36h-23q-34 0 -50 48q0 41 66 52zM948 838q37 -4 54 -28h3v-8h-23l-23 16h-15q-35 -8 -35 -20v-24q9 -20 39 -20h3l39 12v4h-54
v16h77q-13 -48 -54 -48h-23q-36 0 -54 48q4 20 27 36q0 9 39 16zM1106 838q22 0 34 -32h-27v12h-19v-20q46 -12 46 -24v-4q-4 -32 -30 -32h-12q-18 0 -31 20v8h23q0 -12 8 -12h12l7 8v12q-50 10 -50 32q12 32 39 32zM1487 838q39 -6 39 -16q22 -12 27 -36q-16 -48 -54 -48
h-23q-37 0 -54 48q19 52 65 52zM115 834h73v-16l-50 -64h50v-16h-77v12l46 60v4h-42v20zM446 834h24v-96h-24v96zM678 834h27v-80h38v-16h-65v96zM1029 834h23v-96h-23v96zM1148 834h73v-20h-23v-76h-23v76h-27v20zM1233 834h23v-96h-23v96zM1279 834h23v-96h-23v96z
M1368 834v-4q-10 0 -12 -16l-27 -28l35 -48h-19q-9 2 -39 44v8q8 0 8 12q12 0 27 32h27zM1568 834h8l58 -4l11 -28q0 -15 -23 -28h-31v-36h-23v96zM1649 834h73v-20h-27v-76h-23v76h-23v20zM1730 834h27v-96h-27v96zM1776 834h35q0 -13 27 -68v-4h8l27 64v8h34v-96h-27l4 64
q-9 0 -31 -64h-23l-27 68h-3v-20l3 -48h-27v96zM1927 834h27v-96h-27v96zM1973 834h66v-20h-43v-20h43v-16h-43v-24h43v-16h-66v96zM2062 834h11q73 0 73 -28v-12q-9 -20 -30 -20l30 -36h-30q0 13 -31 40v-40h-23v96zM2162 834h65v-20h-42v-20h42v-16h-42v-24h42v-16h-65v96
zM2251 834h19l54 -60v60h27v-96h-27q0 8 -46 56v4h-4v-60h-23v96zM770 794v-16q14 -24 35 -24h8q38 0 38 32t-34 32h-20q-27 -17 -27 -24zM1449 798v-24q8 -20 38 -20t39 20v24q0 12 -35 20h-8q-34 -8 -34 -20zM1591 814v-24h23l8 8v12l-19 4h-12zM2085 814v-32h15
q20 0 23 12v16l-19 4h-19zM38 646h62l42 -159q9 3 46 159h58q7 0 46 -159h4l43 159h61v-4q-73 -247 -81 -247h-58l-38 155h-8q-33 -155 -42 -155h-54q-9 0 -81 251zM408 646h62l42 -159q9 3 46 159h58q7 0 46 -159h4l43 159h61v-4q-73 -247 -81 -247h-57l-39 155h-8
q-33 -155 -42 -155h-54q-9 0 -81 251zM778 646h62l42 -159q9 3 46 159h58q7 0 46 -159h4l43 159h61v-4q-73 -247 -81 -247h-57l-39 155h-8q-33 -155 -42 -155h-54q-9 0 -81 251zM1175 463h69v-68h-69v68zM300 343h69v-343h-69v343zM990 343h69v-60h-69v60zM1190 339v-88h47
v-52h-47v-139q0 -12 16 -12l27 4v-4l4 -24v-20l-47 -8h-7q-58 0 -58 72l-4 107v24h-31v52h31v44q1 7 69 44zM535 255h4q119 -14 119 -119v-20q0 -89 -92 -116l-27 -4q-123 11 -123 120v20q0 105 119 119zM797 255q27 0 62 -36v32h69v-139q0 -184 -31 -184q-18 -28 -80 -28
q-116 0 -116 88h4q73 0 73 -16q0 -20 27 -20h12q42 0 42 36v52q-33 -40 -69 -40h-4q-89 16 -89 112v31q0 78 66 108zM1379 255h4q120 -14 120 -119v-20q0 -89 -93 -116l-27 -4q-123 11 -123 120v20q0 105 119 119zM1641 255q27 0 62 -36v32h70v-139q0 -184 -31 -184
q-19 -28 -81 -28q-116 0 -116 88h4q73 0 73 -16q0 -20 27 -20h12q42 0 42 36v52q-33 -40 -69 -40h-4q-89 16 -89 112v31q0 78 66 108zM1942 255h4q120 -14 120 -119v-20q0 -89 -93 -116l-27 -4q-123 11 -123 120v20q0 105 119 119zM990 251h69v-251h-69v251zM481 147v-43
q0 -50 62 -56q37 0 50 56v43q0 50 -62 56q-37 0 -50 -56zM763 147v-39q5 -56 46 -56q42 0 50 60v39q-10 52 -46 52h-4q-41 0 -46 -56zM1325 147v-43q0 -50 62 -56q37 0 50 56v43q0 50 -62 56q-36 0 -50 -56zM1607 147v-39q5 -56 46 -56q42 0 50 60v39q-10 52 -46 52h-4
q-41 0 -46 -56zM1888 147v-43q0 -50 62 -56q37 0 50 56v43q0 50 -62 56q-37 0 -50 -56zM1584 -144h4q66 0 92 -56l8 -27h-4l-62 -8q-2 39 -34 39h-8q-32 0 -43 -47v-52q0 -56 51 -56q34 0 38 48l66 -8q0 -56 -62 -84q-15 -8 -42 -8h-4q-112 10 -112 116v28q10 115 112 115z
M1850 -144h3q120 -14 120 -119v-20q0 -89 -93 -116l-27 -4q-123 11 -123 120v20q0 105 120 119zM2162 -144q31 0 62 -40q0 23 69 40q85 0 85 -103v-152h-70v172q0 31 -30 31h-4q-37 0 -43 -55v-148h-69v172q0 31 -31 31h-4q-42 -7 -42 -51v-152h-70v251h70v-28q33 32 77 32z
M1796 -251v-44q0 -50 61 -56q37 0 50 56v44q0 49 -61 55q-37 0 -50 -55zM1352 -331h70v-68h-70v68z" />
    <glyph glyph-name="Ntilde" unicode="&#xd1;" 
d="M358 1416h2066v-531h-154l-54 -15v-4h208v-172h-2390v172h528v4l-54 15h-339q-95 0 -108 44q-27 26 -27 52v48q0 30 89 152l69 103q65 101 81 108q41 23 85 24zM46 1005q0 -70 81 -104h370q-62 69 -62 152q0 88 81 156q54 27 100 27q43 0 100 -39l35 -40q31 -49 31 -108
q0 -80 -62 -148h131q-65 69 -65 152v8q0 37 31 96q57 79 138 79h27q82 0 135 -107h-77q-41 36 -62 36h-34q-34 0 -81 -60l-8 -40v-24q0 -75 85 -104h50q51 24 66 60v4l-4 -4l-4 4h-4l-4 -4l-4 4h-4l-3 -4l-4 4h-4l-4 -4l-4 4h-11l-4 -4l-4 4h-4l-4 -4l-4 4h-4l-3 -4l-4 4
h-23l-4 -4l-4 4h-4l-4 -4h-4l-4 4v60h209v-4q0 -97 -62 -152v-4h278q-58 73 -58 116v52q0 96 104 152q37 15 73 15q62 0 127 -67q39 -61 39 -100v-32q0 -65 -62 -136h131v8q-8 0 -8 12q-23 4 -50 88l-4 40v16q0 72 81 144q45 27 101 27q83 0 119 -63q12 0 27 -36v-8h-81
q0 22 -65 36h-20q-92 -24 -92 -116q0 -98 104 -116q64 0 96 64h-131v44l-4 4l4 16h208v-20q0 -71 -61 -140h131v8h-8q0 10 -19 28q-35 57 -35 116q0 116 123 176l54 7q51 0 105 -39q2 -16 19 -16q46 -64 46 -132q0 -75 -38 -116l-24 -32h128v499h-2055q-74 0 -120 -80
l-96 -143q-92 -127 -92 -172zM1136 1352h1203v-64h-1060v-359h-65v359h-78v64zM423 1336h97q-82 -112 -124 -183q-7 0 -7 -12q-8 0 -50 -68q-51 -67 -51 -80h51l3 4l4 -4h4l4 4l4 -4h73v-64h-297l66 96l166 231q43 72 57 80zM1140 1236h62v-307h-62v307zM500 1053
q0 -62 62 -108l46 -12q81 0 108 100v24q-17 80 -42 80q0 14 -62 28h-4q-48 0 -92 -56zM1356 1049q0 -83 81 -112l23 -4q93 0 108 120q0 69 -69 104l-35 8q-96 -20 -96 -68q-10 0 -12 -48zM2066 1033q0 -41 57 -88l47 -12q80 7 100 76l8 32v12q-3 36 -27 76q-45 36 -78 36h-3
q-64 0 -104 -84v-48zM655 870v-4h266v4l-58 15h-154zM998 870v-4h416v4l-54 15h-308zM1507 870v-4h266v4l-58 15h-154zM1861 866h262v4l-54 15h-154q-54 -10 -54 -19zM49 846h4l-4 -4v-60l4 -16l-4 -16v-32l8 -8h2352v144h-2352zM223 850h15v-16h-11v-76l19 -4l15 4v76h-7
v16h15q0 -16 8 -16h8v-44q0 -52 -31 -52h-27q-23 14 -23 36v60q19 0 19 8v8zM362 838q35 0 57 -32v-4h-23l-23 16h-15q-31 0 -35 -32q0 -32 43 -32q16 0 38 12v4h-54v16h77q0 -35 -50 -48h-27q-30 3 -50 36v24q30 40 62 40zM547 838q35 0 58 -32v-4h-24l-23 16h-15
q-31 0 -35 -32q0 -32 43 -32q16 0 38 12v4h-54v16h77q0 -35 -50 -48h-27q-30 3 -50 36v24q30 40 62 40zM813 838q31 0 61 -40v-24q-26 -36 -54 -36h-23q-34 0 -50 48q0 41 66 52zM948 838q37 -4 54 -28h3v-8h-23l-23 16h-15q-35 -8 -35 -20v-24q9 -20 39 -20h3l39 12v4h-54
v16h77q-13 -48 -54 -48h-23q-36 0 -54 48q4 20 27 36q0 9 39 16zM1106 838q22 0 34 -32h-27v12h-19v-20q46 -12 46 -24v-4q-4 -32 -30 -32h-12q-18 0 -31 20v8h23q0 -12 8 -12h12l7 8v12q-50 10 -50 32q12 32 39 32zM1487 838q39 -6 39 -16q22 -12 27 -36q-16 -48 -54 -48
h-23q-37 0 -54 48q19 52 65 52zM115 834h73v-16l-50 -64h50v-16h-77v12l46 60v4h-42v20zM446 834h24v-96h-24v96zM678 834h27v-80h38v-16h-65v96zM1029 834h23v-96h-23v96zM1148 834h73v-20h-23v-76h-23v76h-27v20zM1233 834h23v-96h-23v96zM1279 834h23v-96h-23v96z
M1368 834v-4q-10 0 -12 -16l-27 -28l35 -48h-19q-9 2 -39 44v8q8 0 8 12q12 0 27 32h27zM1568 834h8l58 -4l11 -28q0 -15 -23 -28h-31v-36h-23v96zM1649 834h73v-20h-27v-76h-23v76h-23v20zM1730 834h27v-96h-27v96zM1776 834h35q0 -13 27 -68v-4h8l27 64v8h34v-96h-27l4 64
q-9 0 -31 -64h-23l-27 68h-3v-20l3 -48h-27v96zM1927 834h27v-96h-27v96zM1973 834h66v-20h-43v-20h43v-16h-43v-24h43v-16h-66v96zM2062 834h11q73 0 73 -28v-12q-9 -20 -30 -20l30 -36h-30q0 13 -31 40v-40h-23v96zM2162 834h65v-20h-42v-20h42v-16h-42v-24h42v-16h-65v96
zM2251 834h19l54 -60v60h27v-96h-27q0 8 -46 56v4h-4v-60h-23v96zM770 794v-16q14 -24 35 -24h8q38 0 38 32t-34 32h-20q-27 -17 -27 -24zM1449 798v-24q8 -20 38 -20t39 20v24q0 12 -35 20h-8q-34 -8 -34 -20zM1591 814v-24h23l8 8v12l-19 4h-12zM2085 814v-32h15
q20 0 23 12v16l-19 4h-19zM38 646h62l42 -159q9 3 46 159h58q7 0 46 -159h4l43 159h61v-4q-73 -247 -81 -247h-58l-38 155h-8q-33 -155 -42 -155h-54q-9 0 -81 251zM408 646h62l42 -159q9 3 46 159h58q7 0 46 -159h4l43 159h61v-4q-73 -247 -81 -247h-57l-39 155h-8
q-33 -155 -42 -155h-54q-9 0 -81 251zM778 646h62l42 -159q9 3 46 159h58q7 0 46 -159h4l43 159h61v-4q-73 -247 -81 -247h-57l-39 155h-8q-33 -155 -42 -155h-54q-9 0 -81 251zM1175 463h69v-68h-69v68zM300 343h69v-343h-69v343zM990 343h69v-60h-69v60zM1190 339v-88h47
v-52h-47v-139q0 -12 16 -12l27 4v-4l4 -24v-20l-47 -8h-7q-58 0 -58 72l-4 107v24h-31v52h31v44q1 7 69 44zM535 255h4q119 -14 119 -119v-20q0 -89 -92 -116l-27 -4q-123 11 -123 120v20q0 105 119 119zM797 255q27 0 62 -36v32h69v-139q0 -184 -31 -184q-18 -28 -80 -28
q-116 0 -116 88h4q73 0 73 -16q0 -20 27 -20h12q42 0 42 36v52q-33 -40 -69 -40h-4q-89 16 -89 112v31q0 78 66 108zM1379 255h4q120 -14 120 -119v-20q0 -89 -93 -116l-27 -4q-123 11 -123 120v20q0 105 119 119zM1641 255q27 0 62 -36v32h70v-139q0 -184 -31 -184
q-19 -28 -81 -28q-116 0 -116 88h4q73 0 73 -16q0 -20 27 -20h12q42 0 42 36v52q-33 -40 -69 -40h-4q-89 16 -89 112v31q0 78 66 108zM1942 255h4q120 -14 120 -119v-20q0 -89 -93 -116l-27 -4q-123 11 -123 120v20q0 105 119 119zM990 251h69v-251h-69v251zM481 147v-43
q0 -50 62 -56q37 0 50 56v43q0 50 -62 56q-37 0 -50 -56zM763 147v-39q5 -56 46 -56q42 0 50 60v39q-10 52 -46 52h-4q-41 0 -46 -56zM1325 147v-43q0 -50 62 -56q37 0 50 56v43q0 50 -62 56q-36 0 -50 -56zM1607 147v-39q5 -56 46 -56q42 0 50 60v39q-10 52 -46 52h-4
q-41 0 -46 -56zM1888 147v-43q0 -50 62 -56q37 0 50 56v43q0 50 -62 56q-37 0 -50 -56zM1584 -144h4q66 0 92 -56l8 -27h-4l-62 -8q-2 39 -34 39h-8q-32 0 -43 -47v-52q0 -56 51 -56q34 0 38 48l66 -8q0 -56 -62 -84q-15 -8 -42 -8h-4q-112 10 -112 116v28q10 115 112 115z
M1850 -144h3q120 -14 120 -119v-20q0 -89 -93 -116l-27 -4q-123 11 -123 120v20q0 105 120 119zM2162 -144q31 0 62 -40q0 23 69 40q85 0 85 -103v-152h-70v172q0 31 -30 31h-4q-37 0 -43 -55v-148h-69v172q0 31 -31 31h-4q-42 -7 -42 -51v-152h-70v251h70v-28q33 32 77 32z
M1796 -251v-44q0 -50 61 -56q37 0 50 56v44q0 49 -61 55q-37 0 -50 -55zM1352 -331h70v-68h-70v68z" />
    <glyph glyph-name="Odieresis" unicode="&#xd6;" 
d="M358 1416h2066v-531h-154l-54 -15v-4h208v-172h-2390v172h528v4l-54 15h-339q-95 0 -108 44q-27 26 -27 52v48q0 30 89 152l69 103q65 101 81 108q41 23 85 24zM46 1005q0 -70 81 -104h370q-62 69 -62 152q0 88 81 156q54 27 100 27q43 0 100 -39l35 -40q31 -49 31 -108
q0 -80 -62 -148h131q-65 69 -65 152v8q0 37 31 96q57 79 138 79h27q82 0 135 -107h-77q-41 36 -62 36h-34q-34 0 -81 -60l-8 -40v-24q0 -75 85 -104h50q51 24 66 60v4l-4 -4l-4 4h-4l-4 -4l-4 4h-4l-3 -4l-4 4h-4l-4 -4l-4 4h-11l-4 -4l-4 4h-4l-4 -4l-4 4h-4l-3 -4l-4 4
h-23l-4 -4l-4 4h-4l-4 -4h-4l-4 4v60h209v-4q0 -97 -62 -152v-4h278q-58 73 -58 116v52q0 96 104 152q37 15 73 15q62 0 127 -67q39 -61 39 -100v-32q0 -65 -62 -136h131v8q-8 0 -8 12q-23 4 -50 88l-4 40v16q0 72 81 144q45 27 101 27q83 0 119 -63q12 0 27 -36v-8h-81
q0 22 -65 36h-20q-92 -24 -92 -116q0 -98 104 -116q64 0 96 64h-131v44l-4 4l4 16h208v-20q0 -71 -61 -140h131v8h-8q0 10 -19 28q-35 57 -35 116q0 116 123 176l54 7q51 0 105 -39q2 -16 19 -16q46 -64 46 -132q0 -75 -38 -116l-24 -32h128v499h-2055q-74 0 -120 -80
l-96 -143q-92 -127 -92 -172zM1136 1352h1203v-64h-1060v-359h-65v359h-78v64zM423 1336h97q-82 -112 -124 -183q-7 0 -7 -12q-8 0 -50 -68q-51 -67 -51 -80h51l3 4l4 -4h4l4 4l4 -4h73v-64h-297l66 96l166 231q43 72 57 80zM1140 1236h62v-307h-62v307zM500 1053
q0 -62 62 -108l46 -12q81 0 108 100v24q-17 80 -42 80q0 14 -62 28h-4q-48 0 -92 -56zM1356 1049q0 -83 81 -112l23 -4q93 0 108 120q0 69 -69 104l-35 8q-96 -20 -96 -68q-10 0 -12 -48zM2066 1033q0 -41 57 -88l47 -12q80 7 100 76l8 32v12q-3 36 -27 76q-45 36 -78 36h-3
q-64 0 -104 -84v-48zM655 870v-4h266v4l-58 15h-154zM998 870v-4h416v4l-54 15h-308zM1507 870v-4h266v4l-58 15h-154zM1861 866h262v4l-54 15h-154q-54 -10 -54 -19zM49 846h4l-4 -4v-60l4 -16l-4 -16v-32l8 -8h2352v144h-2352zM223 850h15v-16h-11v-76l19 -4l15 4v76h-7
v16h15q0 -16 8 -16h8v-44q0 -52 -31 -52h-27q-23 14 -23 36v60q19 0 19 8v8zM362 838q35 0 57 -32v-4h-23l-23 16h-15q-31 0 -35 -32q0 -32 43 -32q16 0 38 12v4h-54v16h77q0 -35 -50 -48h-27q-30 3 -50 36v24q30 40 62 40zM547 838q35 0 58 -32v-4h-24l-23 16h-15
q-31 0 -35 -32q0 -32 43 -32q16 0 38 12v4h-54v16h77q0 -35 -50 -48h-27q-30 3 -50 36v24q30 40 62 40zM813 838q31 0 61 -40v-24q-26 -36 -54 -36h-23q-34 0 -50 48q0 41 66 52zM948 838q37 -4 54 -28h3v-8h-23l-23 16h-15q-35 -8 -35 -20v-24q9 -20 39 -20h3l39 12v4h-54
v16h77q-13 -48 -54 -48h-23q-36 0 -54 48q4 20 27 36q0 9 39 16zM1106 838q22 0 34 -32h-27v12h-19v-20q46 -12 46 -24v-4q-4 -32 -30 -32h-12q-18 0 -31 20v8h23q0 -12 8 -12h12l7 8v12q-50 10 -50 32q12 32 39 32zM1487 838q39 -6 39 -16q22 -12 27 -36q-16 -48 -54 -48
h-23q-37 0 -54 48q19 52 65 52zM115 834h73v-16l-50 -64h50v-16h-77v12l46 60v4h-42v20zM446 834h24v-96h-24v96zM678 834h27v-80h38v-16h-65v96zM1029 834h23v-96h-23v96zM1148 834h73v-20h-23v-76h-23v76h-27v20zM1233 834h23v-96h-23v96zM1279 834h23v-96h-23v96z
M1368 834v-4q-10 0 -12 -16l-27 -28l35 -48h-19q-9 2 -39 44v8q8 0 8 12q12 0 27 32h27zM1568 834h8l58 -4l11 -28q0 -15 -23 -28h-31v-36h-23v96zM1649 834h73v-20h-27v-76h-23v76h-23v20zM1730 834h27v-96h-27v96zM1776 834h35q0 -13 27 -68v-4h8l27 64v8h34v-96h-27l4 64
q-9 0 -31 -64h-23l-27 68h-3v-20l3 -48h-27v96zM1927 834h27v-96h-27v96zM1973 834h66v-20h-43v-20h43v-16h-43v-24h43v-16h-66v96zM2062 834h11q73 0 73 -28v-12q-9 -20 -30 -20l30 -36h-30q0 13 -31 40v-40h-23v96zM2162 834h65v-20h-42v-20h42v-16h-42v-24h42v-16h-65v96
zM2251 834h19l54 -60v60h27v-96h-27q0 8 -46 56v4h-4v-60h-23v96zM770 794v-16q14 -24 35 -24h8q38 0 38 32t-34 32h-20q-27 -17 -27 -24zM1449 798v-24q8 -20 38 -20t39 20v24q0 12 -35 20h-8q-34 -8 -34 -20zM1591 814v-24h23l8 8v12l-19 4h-12zM2085 814v-32h15
q20 0 23 12v16l-19 4h-19zM38 646h62l42 -159q9 3 46 159h58q7 0 46 -159h4l43 159h61v-4q-73 -247 -81 -247h-58l-38 155h-8q-33 -155 -42 -155h-54q-9 0 -81 251zM408 646h62l42 -159q9 3 46 159h58q7 0 46 -159h4l43 159h61v-4q-73 -247 -81 -247h-57l-39 155h-8
q-33 -155 -42 -155h-54q-9 0 -81 251zM778 646h62l42 -159q9 3 46 159h58q7 0 46 -159h4l43 159h61v-4q-73 -247 -81 -247h-57l-39 155h-8q-33 -155 -42 -155h-54q-9 0 -81 251zM1175 463h69v-68h-69v68zM300 343h69v-343h-69v343zM990 343h69v-60h-69v60zM1190 339v-88h47
v-52h-47v-139q0 -12 16 -12l27 4v-4l4 -24v-20l-47 -8h-7q-58 0 -58 72l-4 107v24h-31v52h31v44q1 7 69 44zM535 255h4q119 -14 119 -119v-20q0 -89 -92 -116l-27 -4q-123 11 -123 120v20q0 105 119 119zM797 255q27 0 62 -36v32h69v-139q0 -184 -31 -184q-18 -28 -80 -28
q-116 0 -116 88h4q73 0 73 -16q0 -20 27 -20h12q42 0 42 36v52q-33 -40 -69 -40h-4q-89 16 -89 112v31q0 78 66 108zM1379 255h4q120 -14 120 -119v-20q0 -89 -93 -116l-27 -4q-123 11 -123 120v20q0 105 119 119zM1641 255q27 0 62 -36v32h70v-139q0 -184 -31 -184
q-19 -28 -81 -28q-116 0 -116 88h4q73 0 73 -16q0 -20 27 -20h12q42 0 42 36v52q-33 -40 -69 -40h-4q-89 16 -89 112v31q0 78 66 108zM1942 255h4q120 -14 120 -119v-20q0 -89 -93 -116l-27 -4q-123 11 -123 120v20q0 105 119 119zM990 251h69v-251h-69v251zM481 147v-43
q0 -50 62 -56q37 0 50 56v43q0 50 -62 56q-37 0 -50 -56zM763 147v-39q5 -56 46 -56q42 0 50 60v39q-10 52 -46 52h-4q-41 0 -46 -56zM1325 147v-43q0 -50 62 -56q37 0 50 56v43q0 50 -62 56q-36 0 -50 -56zM1607 147v-39q5 -56 46 -56q42 0 50 60v39q-10 52 -46 52h-4
q-41 0 -46 -56zM1888 147v-43q0 -50 62 -56q37 0 50 56v43q0 50 -62 56q-37 0 -50 -56zM1584 -144h4q66 0 92 -56l8 -27h-4l-62 -8q-2 39 -34 39h-8q-32 0 -43 -47v-52q0 -56 51 -56q34 0 38 48l66 -8q0 -56 -62 -84q-15 -8 -42 -8h-4q-112 10 -112 116v28q10 115 112 115z
M1850 -144h3q120 -14 120 -119v-20q0 -89 -93 -116l-27 -4q-123 11 -123 120v20q0 105 120 119zM2162 -144q31 0 62 -40q0 23 69 40q85 0 85 -103v-152h-70v172q0 31 -30 31h-4q-37 0 -43 -55v-148h-69v172q0 31 -31 31h-4q-42 -7 -42 -51v-152h-70v251h70v-28q33 32 77 32z
M1796 -251v-44q0 -50 61 -56q37 0 50 56v44q0 49 -61 55q-37 0 -50 -55zM1352 -331h70v-68h-70v68z" />
    <glyph glyph-name="Udieresis" unicode="&#xdc;" 
d="M358 1416h2066v-531h-154l-54 -15v-4h208v-172h-2390v172h528v4l-54 15h-339q-95 0 -108 44q-27 26 -27 52v48q0 30 89 152l69 103q65 101 81 108q41 23 85 24zM46 1005q0 -70 81 -104h370q-62 69 -62 152q0 88 81 156q54 27 100 27q43 0 100 -39l35 -40q31 -49 31 -108
q0 -80 -62 -148h131q-65 69 -65 152v8q0 37 31 96q57 79 138 79h27q82 0 135 -107h-77q-41 36 -62 36h-34q-34 0 -81 -60l-8 -40v-24q0 -75 85 -104h50q51 24 66 60v4l-4 -4l-4 4h-4l-4 -4l-4 4h-4l-3 -4l-4 4h-4l-4 -4l-4 4h-11l-4 -4l-4 4h-4l-4 -4l-4 4h-4l-3 -4l-4 4
h-23l-4 -4l-4 4h-4l-4 -4h-4l-4 4v60h209v-4q0 -97 -62 -152v-4h278q-58 73 -58 116v52q0 96 104 152q37 15 73 15q62 0 127 -67q39 -61 39 -100v-32q0 -65 -62 -136h131v8q-8 0 -8 12q-23 4 -50 88l-4 40v16q0 72 81 144q45 27 101 27q83 0 119 -63q12 0 27 -36v-8h-81
q0 22 -65 36h-20q-92 -24 -92 -116q0 -98 104 -116q64 0 96 64h-131v44l-4 4l4 16h208v-20q0 -71 -61 -140h131v8h-8q0 10 -19 28q-35 57 -35 116q0 116 123 176l54 7q51 0 105 -39q2 -16 19 -16q46 -64 46 -132q0 -75 -38 -116l-24 -32h128v499h-2055q-74 0 -120 -80
l-96 -143q-92 -127 -92 -172zM1136 1352h1203v-64h-1060v-359h-65v359h-78v64zM423 1336h97q-82 -112 -124 -183q-7 0 -7 -12q-8 0 -50 -68q-51 -67 -51 -80h51l3 4l4 -4h4l4 4l4 -4h73v-64h-297l66 96l166 231q43 72 57 80zM1140 1236h62v-307h-62v307zM500 1053
q0 -62 62 -108l46 -12q81 0 108 100v24q-17 80 -42 80q0 14 -62 28h-4q-48 0 -92 -56zM1356 1049q0 -83 81 -112l23 -4q93 0 108 120q0 69 -69 104l-35 8q-96 -20 -96 -68q-10 0 -12 -48zM2066 1033q0 -41 57 -88l47 -12q80 7 100 76l8 32v12q-3 36 -27 76q-45 36 -78 36h-3
q-64 0 -104 -84v-48zM655 870v-4h266v4l-58 15h-154zM998 870v-4h416v4l-54 15h-308zM1507 870v-4h266v4l-58 15h-154zM1861 866h262v4l-54 15h-154q-54 -10 -54 -19zM49 846h4l-4 -4v-60l4 -16l-4 -16v-32l8 -8h2352v144h-2352zM223 850h15v-16h-11v-76l19 -4l15 4v76h-7
v16h15q0 -16 8 -16h8v-44q0 -52 -31 -52h-27q-23 14 -23 36v60q19 0 19 8v8zM362 838q35 0 57 -32v-4h-23l-23 16h-15q-31 0 -35 -32q0 -32 43 -32q16 0 38 12v4h-54v16h77q0 -35 -50 -48h-27q-30 3 -50 36v24q30 40 62 40zM547 838q35 0 58 -32v-4h-24l-23 16h-15
q-31 0 -35 -32q0 -32 43 -32q16 0 38 12v4h-54v16h77q0 -35 -50 -48h-27q-30 3 -50 36v24q30 40 62 40zM813 838q31 0 61 -40v-24q-26 -36 -54 -36h-23q-34 0 -50 48q0 41 66 52zM948 838q37 -4 54 -28h3v-8h-23l-23 16h-15q-35 -8 -35 -20v-24q9 -20 39 -20h3l39 12v4h-54
v16h77q-13 -48 -54 -48h-23q-36 0 -54 48q4 20 27 36q0 9 39 16zM1106 838q22 0 34 -32h-27v12h-19v-20q46 -12 46 -24v-4q-4 -32 -30 -32h-12q-18 0 -31 20v8h23q0 -12 8 -12h12l7 8v12q-50 10 -50 32q12 32 39 32zM1487 838q39 -6 39 -16q22 -12 27 -36q-16 -48 -54 -48
h-23q-37 0 -54 48q19 52 65 52zM115 834h73v-16l-50 -64h50v-16h-77v12l46 60v4h-42v20zM446 834h24v-96h-24v96zM678 834h27v-80h38v-16h-65v96zM1029 834h23v-96h-23v96zM1148 834h73v-20h-23v-76h-23v76h-27v20zM1233 834h23v-96h-23v96zM1279 834h23v-96h-23v96z
M1368 834v-4q-10 0 -12 -16l-27 -28l35 -48h-19q-9 2 -39 44v8q8 0 8 12q12 0 27 32h27zM1568 834h8l58 -4l11 -28q0 -15 -23 -28h-31v-36h-23v96zM1649 834h73v-20h-27v-76h-23v76h-23v20zM1730 834h27v-96h-27v96zM1776 834h35q0 -13 27 -68v-4h8l27 64v8h34v-96h-27l4 64
q-9 0 -31 -64h-23l-27 68h-3v-20l3 -48h-27v96zM1927 834h27v-96h-27v96zM1973 834h66v-20h-43v-20h43v-16h-43v-24h43v-16h-66v96zM2062 834h11q73 0 73 -28v-12q-9 -20 -30 -20l30 -36h-30q0 13 -31 40v-40h-23v96zM2162 834h65v-20h-42v-20h42v-16h-42v-24h42v-16h-65v96
zM2251 834h19l54 -60v60h27v-96h-27q0 8 -46 56v4h-4v-60h-23v96zM770 794v-16q14 -24 35 -24h8q38 0 38 32t-34 32h-20q-27 -17 -27 -24zM1449 798v-24q8 -20 38 -20t39 20v24q0 12 -35 20h-8q-34 -8 -34 -20zM1591 814v-24h23l8 8v12l-19 4h-12zM2085 814v-32h15
q20 0 23 12v16l-19 4h-19zM38 646h62l42 -159q9 3 46 159h58q7 0 46 -159h4l43 159h61v-4q-73 -247 -81 -247h-58l-38 155h-8q-33 -155 -42 -155h-54q-9 0 -81 251zM408 646h62l42 -159q9 3 46 159h58q7 0 46 -159h4l43 159h61v-4q-73 -247 -81 -247h-57l-39 155h-8
q-33 -155 -42 -155h-54q-9 0 -81 251zM778 646h62l42 -159q9 3 46 159h58q7 0 46 -159h4l43 159h61v-4q-73 -247 -81 -247h-57l-39 155h-8q-33 -155 -42 -155h-54q-9 0 -81 251zM1175 463h69v-68h-69v68zM300 343h69v-343h-69v343zM990 343h69v-60h-69v60zM1190 339v-88h47
v-52h-47v-139q0 -12 16 -12l27 4v-4l4 -24v-20l-47 -8h-7q-58 0 -58 72l-4 107v24h-31v52h31v44q1 7 69 44zM535 255h4q119 -14 119 -119v-20q0 -89 -92 -116l-27 -4q-123 11 -123 120v20q0 105 119 119zM797 255q27 0 62 -36v32h69v-139q0 -184 -31 -184q-18 -28 -80 -28
q-116 0 -116 88h4q73 0 73 -16q0 -20 27 -20h12q42 0 42 36v52q-33 -40 -69 -40h-4q-89 16 -89 112v31q0 78 66 108zM1379 255h4q120 -14 120 -119v-20q0 -89 -93 -116l-27 -4q-123 11 -123 120v20q0 105 119 119zM1641 255q27 0 62 -36v32h70v-139q0 -184 -31 -184
q-19 -28 -81 -28q-116 0 -116 88h4q73 0 73 -16q0 -20 27 -20h12q42 0 42 36v52q-33 -40 -69 -40h-4q-89 16 -89 112v31q0 78 66 108zM1942 255h4q120 -14 120 -119v-20q0 -89 -93 -116l-27 -4q-123 11 -123 120v20q0 105 119 119zM990 251h69v-251h-69v251zM481 147v-43
q0 -50 62 -56q37 0 50 56v43q0 50 -62 56q-37 0 -50 -56zM763 147v-39q5 -56 46 -56q42 0 50 60v39q-10 52 -46 52h-4q-41 0 -46 -56zM1325 147v-43q0 -50 62 -56q37 0 50 56v43q0 50 -62 56q-36 0 -50 -56zM1607 147v-39q5 -56 46 -56q42 0 50 60v39q-10 52 -46 52h-4
q-41 0 -46 -56zM1888 147v-43q0 -50 62 -56q37 0 50 56v43q0 50 -62 56q-37 0 -50 -56zM1584 -144h4q66 0 92 -56l8 -27h-4l-62 -8q-2 39 -34 39h-8q-32 0 -43 -47v-52q0 -56 51 -56q34 0 38 48l66 -8q0 -56 -62 -84q-15 -8 -42 -8h-4q-112 10 -112 116v28q10 115 112 115z
M1850 -144h3q120 -14 120 -119v-20q0 -89 -93 -116l-27 -4q-123 11 -123 120v20q0 105 120 119zM2162 -144q31 0 62 -40q0 23 69 40q85 0 85 -103v-152h-70v172q0 31 -30 31h-4q-37 0 -43 -55v-148h-69v172q0 31 -31 31h-4q-42 -7 -42 -51v-152h-70v251h70v-28q33 32 77 32z
M1796 -251v-44q0 -50 61 -56q37 0 50 56v44q0 49 -61 55q-37 0 -50 -55zM1352 -331h70v-68h-70v68z" />
    </font>
</defs>
</svg>
