<?xml version="1.0" standalone="no"?>
<!DOCTYPE svg PUBLIC "-//W3C//DTD SVG 1.1//EN" "http://www.w3.org/Graphics/SVG/1.1/DTD/svg11.dtd" >
<svg>
<metadata>
Created by FontForge 20090622 at Fri Oct 23 17:21:02 2015
 By deploy user
Copyright &#194;&#169; 2003, The Font Bureau, Inc. All rights reserved.
</metadata>
<defs>
<font id="Nobel-RegularItalic" horiz-adv-x="500" >
  <font-face 
    font-family="Nobel-RegularItalic"
    font-weight="400"
    font-style="italic"
    font-stretch="normal"
    units-per-em="1000"
    panose-1="2 0 5 3 4 0 0 2 0 4"
    ascent="800"
    descent="-200"
    x-height="416"
    cap-height="730"
    bbox="-119 -189 1116 935"
    underline-thickness="20"
    underline-position="-123"
    unicode-range="U+0020-U+FB02"
  />
<missing-glyph 
 />
    <glyph glyph-name=".notdef" 
 />
    <glyph glyph-name=".null" horiz-adv-x="0" 
 />
    <glyph glyph-name="nonmarkingreturn" 
 />
    <glyph glyph-name="space" unicode=" " horiz-adv-x="150" 
 />
    <glyph glyph-name="exclam" unicode="!" horiz-adv-x="213" 
d="M219 730h-101l-52 -295l-29 -279h61l69 279zM110 110h-101l-19 -110h101z" />
    <glyph glyph-name="quotedbl" unicode="&#x22;" horiz-adv-x="341" 
d="M352 730h-95l-19 -107v-110h55l40 110zM206 730h-95l-19 -107v-110h55l40 110z" />
    <glyph glyph-name="numbersign" unicode="#" horiz-adv-x="618" 
d="M589 526h-86l39 204h-90l-39 -204h-146l39 204h-90l-39 -204h-114l-8 -76h107l-32 -167h-93l-8 -76h86l-39 -207h90l39 207h146l-39 -207h90l39 207h114l8 76h-107l32 167h93zM399 450l-33 -167h-146l32 167h147z" />
    <glyph glyph-name="dollar" unicode="$" horiz-adv-x="490" 
d="M489 674q-30 24 -67 37.5t-79 17.5l11 59h-66l-11 -60q-47 -4 -86 -19t-66.5 -41t-42.5 -61.5t-15 -79.5q0 -35 12.5 -62t32.5 -49t45.5 -40t51.5 -34l-44 -250q-32 4 -65.5 17t-55.5 34l-63 -76q34 -29 77.5 -45t90.5 -21l-14 -80h66l14 80q49 4 89.5 20t69.5 43
t44.5 65t15.5 87q0 37 -13 66t-33.5 52.5t-46.5 42.5t-53 36l39 224q27 -4 53 -14.5t49 -29.5zM261 636l-33 -185q-27 20 -44.5 41t-17.5 47q0 83 95 97zM336 195q0 -47 -28.5 -71t-76.5 -31l37 210q29 -22 48.5 -47.5t19.5 -60.5z" />
    <glyph glyph-name="percent" unicode="%" horiz-adv-x="720" 
d="M347 599q0 66 -30.5 104.5t-91.5 38.5q-31 0 -60.5 -17.5t-53 -48.5t-38 -73t-14.5 -91q0 -42 10 -70t26.5 -45t38.5 -24.5t46 -7.5q31 0 61.5 17.5t53.5 49t37.5 74t14.5 93.5zM680 730h-101l-539 -730h101zM660 222q0 66 -30.5 104.5t-91.5 38.5q-31 0 -60.5 -17.5
t-53 -48.5t-38 -73t-14.5 -91q0 -42 10 -70t26.5 -45t38.5 -24.5t46 -7.5q31 0 61.5 17.5t53.5 49t37.5 74t14.5 93.5zM265 584q0 -28 -5.5 -55t-16 -48t-25 -33.5t-32.5 -12.5q-22 0 -34.5 20.5t-12.5 65.5q0 31 6.5 58.5t17 48t25 32.5t31.5 12q22 0 34 -23t12 -65z
M578 207q0 -28 -5.5 -55t-16 -48t-25 -33.5t-32.5 -12.5q-22 0 -34.5 20.5t-12.5 65.5q0 31 6.5 58.5t17 48t25 32.5t31.5 12q22 0 34 -23t12 -65z" />
    <glyph glyph-name="ampersand" unicode="&#x26;" horiz-adv-x="606" 
d="M550 204l-59 62q-20 -23 -39.5 -43t-39.5 -38l-122 185q33 22 64.5 46.5t55.5 53t38.5 62t14.5 74.5q0 33 -12 58.5t-32 42.5t-47 26t-58 9q-36 0 -72.5 -14t-66.5 -40.5t-49 -63.5t-19 -82q0 -42 17 -79t43 -75q-34 -22 -65.5 -46t-56 -53.5t-39.5 -64.5t-15 -78
q0 -33 13 -62t36.5 -50t56 -33.5t72.5 -12.5q58 0 111.5 18.5t101.5 50.5l37 -57h116l-76 114q25 22 47.5 44.5zM371 593q0 -24 -10 -45t-27 -40t-40 -36t-49 -34q-21 32 -32 58.5t-11 55.5q0 24 10 44.5t25 35.5t32.5 23t32.5 8q33 0 51 -17.5t18 -52.5zM337 126
q-38 -25 -74.5 -38.5t-71.5 -13.5q-44 0 -72.5 25.5t-28.5 67.5q0 46 35.5 82t86.5 70z" />
    <glyph glyph-name="quoteright" unicode="&#x2019;" horiz-adv-x="195" 
d="M221 730h-105l-20 -111q-3 -16 -8.5 -31.5t-12 -30t-13.5 -26l-11 -18.5h60q10 9 25 25t30 36.5t27 44t17 47.5z" />
    <glyph glyph-name="parenleft" unicode="(" horiz-adv-x="306" 
d="M350 749q-56 -31 -115.5 -81t-108 -119.5t-79.5 -158t-31 -195.5q0 -55 12 -110t34.5 -104t54 -90.5t70.5 -69.5l14 81q-53 66 -72 132t-19 129q0 87 17.5 164t47.5 141.5t71.5 115t89.5 85.5z" />
    <glyph glyph-name="parenright" unicode=")" horiz-adv-x="306" 
d="M271 375q0 55 -12 110t-34.5 104t-54 90.5t-70.5 69.5l-14 -81q53 -66 72 -132t19 -129q0 -87 -17.5 -164t-47.5 -141.5t-71.5 -115.5t-89.5 -85l-14 -80q56 31 115.5 81t108 119.5t79.5 158t31 195.5z" />
    <glyph glyph-name="asterisk" unicode="*" horiz-adv-x="393" 
d="M394 568l-99 41l56 93l-43 30l-70 -81l-71 82l-41 -32l55 -91l-100 -43l18 -49l105 25l8 -108h52l9 108l105 -25z" />
    <glyph glyph-name="plus" unicode="+" horiz-adv-x="452" 
d="M417 374h-151l28 163h-90l-28 -163h-151l-16 -86h151l-28 -163h90l28 163h151z" />
    <glyph glyph-name="comma" unicode="," horiz-adv-x="191" 
d="M101 110h-101l-23 -131q-8 -42 -22.5 -74.5t-28.5 -49.5h62q11 9 26 25t29.5 38t26.5 51t18 65z" />
    <glyph glyph-name="hyphen" unicode="-" horiz-adv-x="302" 
d="M235 254h-212l-15 -86h212z" />
    <glyph glyph-name="hyphen" unicode="&#xad;" horiz-adv-x="302" 
d="M235 254h-212l-15 -86h212z" />
    <glyph glyph-name="period" unicode="." horiz-adv-x="191" 
d="M101 110h-100l-20 -110h100z" />
    <glyph glyph-name="slash" unicode="/" horiz-adv-x="382" 
d="M430 730h-87l-391 -730h87z" />
    <glyph glyph-name="zero" unicode="0" horiz-adv-x="570" 
d="M550 484q0 55 -11 102.5t-35 82t-61.5 54t-90.5 19.5q-72 0 -131 -36t-101.5 -100t-66 -152t-23.5 -191q0 -135 52 -205t146 -70q82 0 142.5 42.5t100.5 112t59.5 158.5t19.5 183zM448 461q0 -72 -13.5 -141t-39.5 -122.5t-63 -86.5t-84 -33q-31 0 -53 15.5t-36 42.5
t-20.5 64t-6.5 80q0 76 15 144t42 118.5t63.5 80t79.5 29.5q63 0 89.5 -48.5t26.5 -142.5z" />
    <glyph glyph-name="one" unicode="1" horiz-adv-x="311" 
d="M308 730h-63q-37 -54 -86.5 -83t-95.5 -36l-15 -88q38 4 76.5 19t61.5 33l-102 -575h95z" />
    <glyph glyph-name="two" unicode="2" horiz-adv-x="541" 
d="M514 565q0 45 -15.5 78.5t-41.5 55t-62 32.5t-76 11q-45 0 -85.5 -15t-73.5 -45t-57 -74.5t-34 -102.5h99q5 28 15 54.5t26.5 47t40.5 32.5t57 12q21 0 40.5 -5.5t34.5 -17t24 -29.5t9 -44q0 -37 -19.5 -76t-55.5 -78l-358 -401h455l16 90h-270l230 262q43 47 72 98
t29 115z" />
    <glyph glyph-name="three" unicode="3" horiz-adv-x="555" 
d="M533 591q0 27 -10 53.5t-32 48.5t-58.5 35.5t-88.5 13.5q-56 0 -99 -14.5t-75 -36.5t-54 -47t-35 -47l74 -43q13 17 29.5 35t37.5 32.5t47 24t58 9.5q37 0 59 -9.5t33.5 -23t14.5 -28.5t3 -27q0 -32 -12 -56.5t-32 -41t-46.5 -25.5t-56.5 -9h-82l-16 -85h81
q63 0 95.5 -25.5t32.5 -76.5q0 -36 -13.5 -67.5t-38.5 -55.5t-60.5 -37.5t-80.5 -13.5q-48 0 -92.5 15t-73.5 39l-65 -74q38 -29 89 -47.5t128 -18.5q80 0 137.5 24t94.5 62t54.5 86t17.5 95q0 44 -22 82t-67 55q21 9 43 25.5t40 41.5t29.5 58t11.5 74z" />
    <glyph glyph-name="four" unicode="4" horiz-adv-x="546" 
d="M522 257h-102l84 473h-77l-418 -489l-12 -69h315l-30 -172h93l30 172h102zM383 571l-56 -314h-197l240 295q5 5 9 12z" />
    <glyph glyph-name="five" unicode="5" horiz-adv-x="556" 
d="M543 730h-372l-100 -391h82q23 35 60.5 55.5t81.5 20.5q58 0 88 -34t30 -86q0 -42 -14.5 -81.5t-40 -69.5t-61 -48t-76.5 -18q-31 0 -57 6.5t-47.5 17t-38 22.5t-28.5 24l-62 -76q16 -15 38 -30t49.5 -27t60 -19.5t68.5 -7.5q60 0 116 22t99 64.5t69 104t26 139.5
q0 42 -14.5 76t-40 58t-60.5 36.5t-76 12.5q-48 0 -75.5 -11t-50.5 -28l46 182h285z" />
    <glyph glyph-name="six" unicode="6" horiz-adv-x="538" 
d="M497 274q0 47 -14.5 83t-39.5 60.5t-57.5 37t-68.5 12.5q-41 0 -77.5 -12.5t-63.5 -35.5q10 22 32 57t51 76.5t65 87.5t75 90h-108q-74 -89 -126 -164.5t-84 -140t-46.5 -120.5t-14.5 -106q0 -52 15.5 -91.5t43.5 -66t65 -40t81 -13.5q54 0 103 20t86.5 57t60 90
t22.5 119zM401 253q0 -40 -13.5 -73t-36 -57t-51 -37.5t-57.5 -13.5q-25 0 -48 7.5t-41 22.5t-28.5 39t-10.5 57q0 43 14 77.5t38 59t55.5 38t66.5 13.5q55 0 83.5 -32t28.5 -101z" />
    <glyph glyph-name="seven" unicode="7" horiz-adv-x="507" 
d="M551 730h-447l-15 -88h305l-384 -642h107z" />
    <glyph glyph-name="eight" unicode="8" horiz-adv-x="584" 
d="M559 574q0 32 -12 62.5t-36 54t-60.5 37.5t-85.5 14q-59 0 -108 -19.5t-84 -52.5t-54.5 -76t-19.5 -90q0 -38 20 -70.5t49 -49.5q-21 -7 -47 -23.5t-49 -43.5t-39 -65t-16 -89q0 -81 57 -128t158 -47q63 0 116.5 18.5t93 51.5t61.5 80t22 104q0 54 -26.5 89.5t-59.5 52.5
q19 8 40 24t39 39.5t29.5 55t11.5 71.5zM459 564q0 -28 -10 -54t-29 -46.5t-47 -33t-65 -12.5q-47 0 -78.5 22.5t-31.5 70.5q0 30 11.5 56.5t32 46.5t48 32t60.5 12q54 0 81.5 -24.5t27.5 -69.5zM424 232q0 -34 -12.5 -62.5t-35 -49.5t-55.5 -33t-73 -12q-131 0 -131 106
q0 32 13 59.5t36.5 48t56 32t70.5 11.5q61 0 96 -25.5t35 -74.5z" />
    <glyph glyph-name="nine" unicode="9" horiz-adv-x="541" 
d="M529 537q0 94 -54.5 149.5t-153.5 55.5q-62 0 -113.5 -24.5t-88 -64t-57 -90.5t-20.5 -104q0 -99 49 -154t137 -55q34 0 68.5 11t63.5 35q-12 -20 -36.5 -52.5l-53.5 -69.5l-59 -74t-55 -65l77 -53q66 78 120.5 152t93.5 143.5t60.5 134.5t21.5 125zM425 526
q0 -45 -14 -80.5t-37.5 -59.5t-54.5 -37t-64 -13q-59 0 -85 35t-26 101q0 33 11 65.5t32 58.5t52 42.5t70 16.5q59 0 87.5 -33t28.5 -96z" />
    <glyph glyph-name="colon" unicode=":" horiz-adv-x="191" 
d="M154 416h-100l-20 -110h100zM101 110h-100l-20 -110h100z" />
    <glyph glyph-name="semicolon" unicode=";" horiz-adv-x="191" 
d="M154 416h-100l-20 -110h100zM101 110h-101l-23 -131q-8 -42 -22.5 -74.5t-28.5 -49.5h62q11 9 26 25t29.5 38t26.5 51t18 65z" />
    <glyph glyph-name="semicolon" unicode="&#x37e;" horiz-adv-x="191" 
d="M154 416h-100l-20 -110h100zM101 110h-101l-23 -131q-8 -42 -22.5 -74.5t-28.5 -49.5h62q11 9 26 25t29.5 38t26.5 51t18 65z" />
    <glyph glyph-name="less" unicode="&#x3c;" horiz-adv-x="360" 
d="M337 545l-303 -183l-13 -75l238 -185l17 96l-165 124l207 115z" />
    <glyph glyph-name="equal" unicode="=" horiz-adv-x="482" 
d="M443 474h-362l-15 -86h362zM408 278h-362l-15 -86h362z" />
    <glyph glyph-name="greater" unicode="&#x3e;" horiz-adv-x="360" 
d="M319 360l-238 185l-17 -96l165 -124l-207 -115l-19 -108l303 183z" />
    <glyph glyph-name="question" unicode="?" horiz-adv-x="441" 
d="M442 587q0 75 -48 115t-124 40q-62 0 -112.5 -23t-98.5 -69l54 -67q29 30 65.5 51t76.5 21q88 0 88 -93q0 -45 -28 -85t-74 -90q-41 -44 -70.5 -97.5t-43.5 -130.5h93q9 54 30 97t53 78l59 65.5t43.5 58t27 59.5t9.5 70zM215 110h-101l-19 -110h101z" />
    <glyph glyph-name="at" unicode="@" horiz-adv-x="844" 
d="M799 395q0 72 -28 135t-78 110.5t-119.5 74.5t-151.5 27q-78 0 -146.5 -29.5t-120 -81t-81 -120t-29.5 -146.5t29.5 -146.5t81 -120t120 -81t146.5 -29.5q35 0 72.5 7t79.5 26l-22 49q-37 -17 -69 -22.5t-61 -5.5q-67 0 -125.5 25.5t-102.5 69t-69.5 102.5t-25.5 125
q0 67 25.5 126t69.5 102.5t102.5 69t125.5 25.5q74 0 134 -24.5t102 -65.5t64.5 -94t22.5 -111q0 -53 -10.5 -89t-26 -58t-32.5 -32t-30 -10q-21 0 -31 6.5t-10 26.5v207q0 45 -13 73.5t-37 45t-59 23t-78 6.5q-17 0 -37 -2t-40.5 -5.5t-39 -9.5t-33.5 -15l28 -57
q54 24 133 24q52 0 80 -17.5t28 -70.5h-100q-48 0 -87.5 -10t-67 -29t-43 -46.5t-15.5 -61.5q0 -29 10 -54.5t29.5 -44.5t48.5 -30t68 -11q54 0 95.5 16.5t68.5 39.5q10 -25 29.5 -40.5t62.5 -15.5q23 0 51.5 13t53 42t41.5 75.5t17 113.5zM535 273q-25 -26 -61 -40t-68 -14
q-31 0 -50.5 5.5t-30.5 15.5t-15 23t-4 28q0 41 32 63t98 22h99v-103z" />
    <glyph glyph-name="A" unicode="A" horiz-adv-x="664" 
d="M570 0l-143 730h-64l-399 -730h103l130 236h225l44 -236h104zM405 326h-159l110 218l6.5 15.5l4.5 10.5l1 -11.5t2 -16.5z" />
    <glyph glyph-name="B" unicode="B" horiz-adv-x="526" 
d="M485 573q0 33 -11 61.5t-33 49.5t-56.5 33.5t-80.5 12.5h-173l-129 -730h199q60 0 109 19.5t83 51.5t52.5 73t18.5 84q0 53 -28.5 92t-71.5 50q22 10 43.5 28.5t38.5 44.5t28 59t11 71zM383 549q0 -28 -10 -54.5t-30.5 -47t-51 -33t-71.5 -12.5h-51l41 238h60
q57 0 85 -21.5t28 -69.5zM364 223q0 -60 -43 -96.5t-114 -36.5h-92l38 224h102q54 0 81.5 -24.5t27.5 -66.5z" />
    <glyph glyph-name="C" unicode="C" horiz-adv-x="691" 
d="M690 638q-18 20 -37.5 39t-46 33.5t-61 23t-81.5 8.5q-78 0 -155 -31.5t-137.5 -90.5t-98 -142.5t-37.5 -186.5q0 -65 20.5 -120.5t58.5 -96t92.5 -63.5t123.5 -23q85 0 158 36t125 92l-63 64q-50 -53 -99 -75.5t-102 -22.5t-93 17.5t-66.5 48t-40 72t-13.5 90.5
q0 58 21.5 118t61.5 109t95.5 80t123.5 31q34 0 60 -5.5t46 -15t35 -23t28 -28.5z" />
    <glyph glyph-name="D" unicode="D" horiz-adv-x="664" 
d="M629 448q0 72 -23.5 125t-65.5 88t-100 52t-127 17h-182l-129 -730h187q91 0 171 32t140 90.5t94.5 141.5t34.5 184zM529 425q0 -66 -23 -127t-66 -108t-105.5 -75.5t-141.5 -28.5h-78l99 558h85q118 0 174 -53.5t56 -165.5z" />
    <glyph glyph-name="E" unicode="E" horiz-adv-x="521" 
d="M519 730h-388l-129 -730h407l16 90h-311l39 223h285l16 90h-285l42 237h292z" />
    <glyph glyph-name="F" unicode="F" horiz-adv-x="452" 
d="M471 730h-340l-129 -730h96l55 313h229l16 90h-229l42 237h244z" />
    <glyph glyph-name="G" unicode="G" horiz-adv-x="762" 
d="M728 327h-336l-16 -90h224q-15 -33 -40 -61.5t-56 -49t-68 -32.5t-76 -12q-55 0 -97 16.5t-70 47t-42 73.5t-14 96q0 58 22 117.5t62.5 107.5t98 78t129.5 30q64 0 107.5 -18t80.5 -59l72 72q-45 46 -101 72.5t-134 26.5q-79 0 -157.5 -30.5t-140.5 -88t-101 -142
t-39 -192.5q0 -68 22 -123t62 -95t96 -61.5t125 -21.5q70 0 134.5 25t116.5 70t87.5 107.5t48.5 136.5z" />
    <glyph glyph-name="H" unicode="H" horiz-adv-x="639" 
d="M637 730h-96l-57 -322h-314l57 322h-96l-129 -730h96l55 318h314l-55 -318h96z" />
    <glyph glyph-name="I" unicode="I" horiz-adv-x="229" 
d="M227 730h-96l-129 -730h96z" />
    <glyph glyph-name="J" unicode="J" horiz-adv-x="351" 
d="M349 730h-96l-90 -508q-12 -68 -40 -106t-77 -38q-15 0 -33 0.5t-34 4.5l-15 -86q23 -7 39 -8t35 -1q51 0 89 18.5t64.5 50t42.5 72.5t24 86z" />
    <glyph glyph-name="K" unicode="K" horiz-adv-x="599" 
d="M612 730h-124l-314 -302l53 302h-96l-129 -730h96l53 297l55 53l217 -350h107l-257 412z" />
    <glyph glyph-name="L" unicode="L" horiz-adv-x="447" 
d="M375 90h-261l113 640h-96l-129 -730h357z" />
    <glyph glyph-name="M" unicode="M" horiz-adv-x="829" 
d="M827 730h-94l-321 -367l-197 367h-84l-129 -730h96l96 544q2 7 2.5 16.5l0.5 9.5l3.5 -8.5t7.5 -16.5l165 -306h40l272 312q7 8 14.5 18l7.5 10l-3.5 -13t-5.5 -25l-96 -541h96z" />
    <glyph glyph-name="N" unicode="N" horiz-adv-x="687" 
d="M685 730h-96l-90 -512q-2 -12 -3.5 -24.5l-1.5 -12.5l-5.5 12.5t-10.5 21.5l-262 515h-85l-129 -730h96l92 522q2 11 3.5 24l1.5 13l5.5 -11.5l10.5 -21.5l265 -526h80z" />
    <glyph glyph-name="O" unicode="O" horiz-adv-x="806" 
d="M770 444q0 61 -19 115.5t-56.5 95t-93 64t-127.5 23.5q-79 0 -157.5 -30.5t-140.5 -88t-101 -142t-39 -192.5q0 -68 22 -123t62 -95t96 -61.5t125 -21.5q77 0 154 33t138 93t99 144t38 186zM670 425q0 -66 -24.5 -127.5t-67 -109.5t-99 -77t-119.5 -29q-55 0 -97 16.5
t-70 47t-42 73.5t-14 96q0 58 22 117.5t62.5 107.5t98 78t129.5 30q58 0 100 -16.5t69 -46.5t39.5 -71t12.5 -89z" />
    <glyph glyph-name="P" unicode="P" horiz-adv-x="531" 
d="M533 551q0 32 -11 64t-35 57.5t-63 41.5t-94 16h-199l-129 -730h96l51 287h102q56 0 107 19.5t90 54.5t62 83.5t23 106.5zM433 536q0 -38 -14 -67.5t-38 -49.5t-55.5 -31t-66.5 -11h-94l46 263h87q70 0 102.5 -28.5t32.5 -75.5z" />
    <glyph glyph-name="Q" unicode="Q" horiz-adv-x="806" 
d="M770 444q0 61 -19 115.5t-56.5 95t-93 64t-127.5 23.5q-79 0 -157.5 -30.5t-140.5 -88t-101 -142t-39 -192.5q0 -68 22 -123t62 -95t96 -61.5t125 -21.5q99 0 192 52q38 -36 88 -51l82 81q-23 2 -44.5 9.5t-40.5 20.5q68 61 110 148t42 196zM670 425q0 -75 -31 -143.5
t-84 -117.5q-23 32 -34 64l-75 -57q5 -13 12 -29t18 -33q-27 -13 -56 -20t-60 -7q-55 0 -97 16.5t-70 47t-42 73.5t-14 96q0 58 22 117.5t62.5 107.5t98 78t129.5 30q58 0 100 -16.5t69 -46.5t39.5 -71t12.5 -89z" />
    <glyph glyph-name="R" unicode="R" horiz-adv-x="573" 
d="M538 553q0 32 -12.5 64t-37.5 57t-62.5 40.5t-88.5 15.5h-206l-129 -730h96l60 337l219 -337h114l-204 307q44 0 89 15t81 45.5t58.5 77t22.5 108.5zM437 534q0 -35 -12.5 -63t-35.5 -48t-54.5 -31t-68.5 -11h-100l44 259h102q35 0 59 -9t38.5 -24t21 -34t6.5 -39z" />
    <glyph glyph-name="S" unicode="S" horiz-adv-x="506" 
d="M483 686q-35 29 -70.5 42.5t-87.5 13.5q-54 0 -99 -16.5t-77.5 -46t-50 -68.5t-17.5 -84q0 -32 10 -57t26 -46t37 -38t43 -33l47 -33.5t41 -35t29.5 -40.5t11.5 -49q0 -52 -38.5 -84t-104.5 -32q-36 0 -67.5 13.5t-57.5 38.5l-63 -76q40 -35 83 -51t99 -16q52 0 98 17
t80 47.5t53.5 72.5t19.5 91q0 37 -12.5 66t-32 52t-44 42.5t-49.5 36.5q-21 14 -40 28t-33.5 29t-23.5 32t-9 37q0 45 31.5 78t97.5 33q34 0 57.5 -10.5t52.5 -34.5z" />
    <glyph glyph-name="T" unicode="T" horiz-adv-x="458" 
d="M493 730h-404l-16 -90h151l-113 -640h96l113 640h157z" />
    <glyph glyph-name="U" unicode="U" horiz-adv-x="679" 
d="M678 730h-95l-76 -434q-9 -53 -30 -94t-49 -68.5t-61.5 -41.5t-69.5 -14q-38 0 -70 13t-52.5 40t-28.5 68t2 97l76 434h-97l-76 -434q-12 -68 -1 -124.5t41 -97t78.5 -63.5t111.5 -23q62 0 115.5 22t95 62.5t70 97t40.5 126.5z" />
    <glyph glyph-name="V" unicode="V" horiz-adv-x="593" 
d="M639 730h-91l-267 -525q-6 -11 -12 -24.5l-6 -13.5l-1 14.5t-3 24.5l-82 524h-93l118 -730h62z" />
    <glyph glyph-name="W" unicode="W" horiz-adv-x="853" 
d="M891 730h-93l-211 -477q-6 -13 -11 -26.5l-5 -13.5l-0.5 14.5t-2.5 27.5l-50 475h-62l-228 -486l-10 -23l-5 -12v13q0 14 -1 25l-34 483h-94l53 -730h64l230 495q6 13 11 25.5l5 12.5l0.5 -14t2.5 -28l53 -491h65z" />
    <glyph glyph-name="X" unicode="X" horiz-adv-x="656" 
d="M661 730h-116l-173 -218q-11 -13 -19 -25l-8 -12l-5.5 14.5t-10.5 24.5l-99 216h-115l158 -339l-316 -391h117l213 269l16.5 22.5l8.5 11.5l6 -14l11 -25l121 -264h113l-179 386z" />
    <glyph glyph-name="Y" unicode="Y" horiz-adv-x="593" 
d="M652 730h-114l-215 -272q-7 -8 -13.5 -18l-6.5 -10l-4 11t-8 19l-117 270h-107l174 -391l-60 -339h96l60 339z" />
    <glyph glyph-name="Z" unicode="Z" horiz-adv-x="606" 
d="M622 730h-481l-16 -89h288q13 0 22 0.5l9 0.5l-4.5 -4.5t-9.5 -11.5l-473 -626h532l15 88h-349q-9 0 -16.5 -0.5l-7.5 -0.5l6 6t11 13z" />
    <glyph glyph-name="bracketleft" unicode="[" horiz-adv-x="315" 
d="M337 730h-200l-160 -909h200l16 90h-104l129 729h104z" />
    <glyph glyph-name="backslash" unicode="\" horiz-adv-x="359" 
d="M290 0l-135 730h-88l135 -730h88z" />
    <glyph glyph-name="bracketright" unicode="]" horiz-adv-x="315" 
d="M298 730h-200l-16 -90h104l-129 -729h-104l-15 -90h200z" />
    <glyph glyph-name="asciicircum" unicode="^" horiz-adv-x="483" 
d="M454 369l-101 361h-95l-227 -361h105l152 266l59 -266h107z" />
    <glyph glyph-name="underscore" unicode="_" 
d="M431 -129v66h-500v-66h500z" />
    <glyph glyph-name="quoteleft" unicode="&#x2018;" horiz-adv-x="195" 
d="M230 730h-60q-10 -9 -25 -25t-30 -36.5t-27.5 -44t-16.5 -47.5l-11 -64h105l20 111q3 16 8.5 31.5t12 30t13 26t11.5 18.5z" />
    <glyph glyph-name="a" unicode="a" horiz-adv-x="441" 
d="M380 276q14 82 -23 117t-128 35q-17 0 -37.5 -2t-41 -5.5t-40.5 -9.5t-36 -15l20 -68q56 23 132 23q46 0 58.5 -16.5t5.5 -54.5h-74q-41 0 -81 -11t-72.5 -33.5t-52.5 -55.5t-20 -78q0 -52 32 -83t92 -31q38 0 72.5 16.5t61.5 42.5l-8 -47h91zM276 206l-12 -66
q-9 -12 -23.5 -25t-32 -24t-36.5 -18t-36 -7q-20 0 -36.5 11t-16.5 41q0 21 11.5 37t29.5 27.5t39.5 17.5t42.5 6h70z" />
    <glyph glyph-name="b" unicode="b" horiz-adv-x="477" 
d="M424 242q0 46 -12 80.5t-32 58t-46.5 35.5t-55.5 12q-48 0 -81 -22.5t-54 -50.5l64 375h-92l-127 -730h91l7 40q14 -18 41.5 -35t72.5 -17q47 0 88 23.5t71 60.5t47.5 82t17.5 88zM331 241q0 -35 -11 -65.5t-29 -53.5t-41.5 -36.5t-49.5 -13.5q-36 0 -61.5 18t-35.5 43
l12 69q5 28 18.5 54t32 46t40.5 31.5t44 11.5q36 0 58.5 -23.5t22.5 -80.5z" />
    <glyph glyph-name="c" unicode="c" horiz-adv-x="400" 
d="M363 385q-17 18 -49.5 30.5t-81.5 12.5q-53 0 -96 -23t-73.5 -60.5t-47.5 -84.5t-17 -95q0 -37 12.5 -69t34 -56t52 -38t66.5 -14q59 0 100.5 22t71.5 53l-53 60q-22 -23 -48.5 -37t-56.5 -14q-43 0 -64.5 30t-21.5 75q0 33 10.5 63t28 53.5t41 37.5t49.5 14
q31 0 50.5 -7t36.5 -22z" />
    <glyph glyph-name="d" unicode="d" horiz-adv-x="477" 
d="M488 730h-91l-60 -354q-14 18 -41.5 35t-72.5 17q-47 0 -88 -23.5t-71 -60.5t-47.5 -82t-17.5 -88q0 -46 12 -80.5t32 -58t46.5 -35.5t55.5 -12q48 0 81 22.5t54 50.5l-10 -61h92zM320 283l-12 -69q-5 -29 -18.5 -54.5t-32 -45.5t-40.5 -31.5t-44 -11.5q-36 0 -58.5 23.5
t-22.5 80.5q0 35 11 65.5t29 53.5t41.5 36.5t49.5 13.5q36 0 61.5 -18t35.5 -43z" />
    <glyph glyph-name="e" unicode="e" horiz-adv-x="438" 
d="M380 273q0 33 -12.5 61.5t-34 49t-50.5 32.5t-61 12q-52 0 -93.5 -22.5t-70.5 -58.5t-44.5 -81t-15.5 -91q0 -48 13.5 -83t37 -58t56 -34.5t70.5 -11.5q63 0 108.5 23t76.5 54l-47 57q-23 -22 -59 -38t-75 -16q-43 0 -68.5 29t-25.5 85v13h286q5 16 7 37t2 41zM295 259
h-195q15 39 45 65.5t72 26.5q25 0 40.5 -9t24.5 -22.5t11.5 -29.5t1.5 -31z" />
    <glyph glyph-name="f" unicode="f" horiz-adv-x="251" 
d="M305 723q-13 6 -29 8t-40 2q-22 0 -42.5 -8t-38.5 -25.5t-31.5 -45.5t-20.5 -68l-30 -170h-50l-14 -84h50l-90 -511h91l90 511h79l14 84h-79l24 135q10 54 23.5 77.5t36.5 23.5q14 0 22.5 -2l16.5 -4z" />
    <glyph glyph-name="g" unicode="g" horiz-adv-x="477" 
d="M435 416h-91l-7 -40q-14 18 -41.5 35t-72.5 17q-47 0 -88 -23.5t-71 -60.5t-47.5 -82t-17.5 -88q0 -46 12 -80.5t32 -58t46.5 -35.5t55.5 -12q48 0 81 22.5t54 50.5l-8 -48q-11 -69 -46.5 -98t-83.5 -29q-23 0 -50.5 7.5t-56.5 28.5l-48 -62q31 -23 68 -36t80 -13
q42 0 79.5 12.5t68 38.5t52.5 67.5t32 99.5zM320 283l-12 -69q-5 -29 -18.5 -54.5t-32 -45.5t-40.5 -31.5t-44 -11.5q-36 0 -58.5 23.5t-22.5 80.5q0 35 11 65.5t29 53.5t41.5 36.5t49.5 13.5q36 0 61.5 -18t35.5 -43z" />
    <glyph glyph-name="h" unicode="h" horiz-adv-x="464" 
d="M400 259q7 43 1 74.5t-22 52.5t-41 31.5t-55 10.5q-24 0 -44.5 -6.5t-38 -17t-32 -23.5t-25.5 -26l65 375h-92l-128 -730h91l36 202q5 28 18.5 54t32 46t40.5 31.5t44 11.5q31 0 48.5 -22t9.5 -70l-46 -253h92z" />
    <glyph glyph-name="i" unicode="i" horiz-adv-x="194" 
d="M188 626h-91l-20 -115h91zM151 416h-91l-73 -416h91z" />
    <glyph glyph-name="j" unicode="j" horiz-adv-x="194" 
d="M188 626h-91l-20 -115h91zM151 416h-91l-72 -413q-10 -54 -22.5 -77.5t-38.5 -23.5q-15 0 -28 4l-18 -75q11 -5 23.5 -7.5t35.5 -2.5q19 0 40 8t39 25.5t32.5 45.5t21.5 68z" />
    <glyph glyph-name="k" unicode="k" horiz-adv-x="435" 
d="M421 416h-125l-173 -159l84 473h-91l-129 -730h91l24 139l53 45l100 -184h109l-139 245z" />
    <glyph glyph-name="l" unicode="l" horiz-adv-x="194" 
d="M207 730h-91l-129 -730h91z" />
    <glyph glyph-name="m" unicode="m" horiz-adv-x="699" 
d="M635 259q15 86 -16 127.5t-91 41.5q-24 0 -46 -8t-41 -20.5t-34.5 -27.5t-25.5 -28q-8 44 -37.5 64t-70.5 20q-24 0 -43 -6.5t-34.5 -17t-28.5 -23.5t-24 -26l10 61h-92l-73 -416h91l36 202q5 28 17 54t28.5 46t37 31.5t42.5 11.5q64 0 48 -92l-46 -253h92l36 202
q6 31 18.5 57.5t29.5 45.5t37 29.5t40 10.5q64 0 48 -92l-46 -253h92z" />
    <glyph glyph-name="n" unicode="n" horiz-adv-x="464" 
d="M400 259q7 43 1 74.5t-22 52.5t-41 31.5t-55 10.5q-24 0 -44.5 -6.5t-38 -17t-32 -23.5t-25.5 -26l10 61h-92l-73 -416h91l36 202q5 28 18.5 54t32 46t40.5 31.5t44 11.5q31 0 48.5 -22t9.5 -70l-46 -253h92z" />
    <glyph glyph-name="o" unicode="o" horiz-adv-x="448" 
d="M403 257q0 34 -12 65.5t-34.5 54.5t-53.5 37t-68 14q-54 0 -98 -23.5t-75 -61t-47.5 -84.5t-16.5 -94q0 -37 12 -69t34 -56t53.5 -38t69.5 -14q50 0 93 20t75 55.5t50 85t18 108.5zM309 242q0 -32 -8.5 -62.5t-25 -54.5t-41 -38.5t-55.5 -14.5q-43 0 -65.5 28.5
t-22.5 76.5q0 35 11 65.5t29 53t41.5 35.5t49.5 13q41 0 64 -25.5t23 -76.5z" />
    <glyph glyph-name="p" unicode="p" horiz-adv-x="477" 
d="M424 242q0 46 -12 80.5t-32 58t-46.5 35.5t-55.5 12q-48 0 -81 -22.5t-54 -50.5l10 61h-92l-105 -595h91l39 219q14 -18 41.5 -35t72.5 -17q47 0 88 23.5t71 60.5t47.5 82t17.5 88zM331 241q0 -35 -11 -65.5t-29 -53.5t-41.5 -36.5t-49.5 -13.5q-36 0 -61.5 18t-35.5 43
l12 69q5 28 18.5 54t32 46t40.5 31.5t44 11.5q36 0 58.5 -23.5t22.5 -80.5z" />
    <glyph glyph-name="q" unicode="q" horiz-adv-x="477" 
d="M435 416h-91l-7 -40q-14 18 -41.5 35t-72.5 17q-47 0 -88 -23.5t-71 -60.5t-47.5 -82t-17.5 -88q0 -46 12 -80.5t32 -58t46.5 -35.5t55.5 -12q48 0 81 22.5t54 50.5l-41 -240h92zM320 283l-12 -69q-5 -29 -18.5 -54.5t-32 -45.5t-40.5 -31.5t-44 -11.5q-36 0 -58.5 23.5
t-22.5 80.5q0 35 11 65.5t29 53.5t41.5 36.5t49.5 13.5q36 0 61.5 -18t35.5 -43z" />
    <glyph glyph-name="r" unicode="r" horiz-adv-x="319" 
d="M319 419q-9 4 -21.5 6.5t-31.5 2.5q-34 0 -67 -21t-56 -52l10 61h-92l-73 -416h91l36 202q5 28 18.5 53.5t31 45t38 30.5t39.5 11q13 0 20.5 -1.5t15.5 -4.5z" />
    <glyph glyph-name="s" unicode="s" horiz-adv-x="340" 
d="M303 394q-25 18 -56 26t-69 8q-26 0 -52 -8.5t-48 -25t-35.5 -41t-13.5 -55.5q0 -35 22 -59.5t50 -44.5l29 -20.5t25.5 -18.5t18.5 -18.5t7 -19.5q0 -14 -5.5 -23.5t-14.5 -15t-19.5 -8t-20.5 -2.5q-17 0 -41.5 9.5t-46.5 26.5l-56 -66q23 -20 57 -34t85 -14q27 0 54 9
t49 27t36 44t14 60q0 19 -7.5 35.5t-19.5 31t-27.5 27l-30.5 23.5q-26 18 -46 33.5t-20 29.5q0 21 14.5 31.5t36.5 10.5q18 0 41.5 -7t41.5 -21z" />
    <glyph glyph-name="t" unicode="t" horiz-adv-x="268" 
d="M241 416h-79l35 195l-98 -40l-28 -155h-47l-14 -84h47l-29 -161q-8 -46 -3 -78.5t21.5 -53t43.5 -30t63 -9.5l30 84l-5 -0.5t-9 -0.5q-67 0 -50 88l29 161h79z" />
    <glyph glyph-name="u" unicode="u" horiz-adv-x="464" 
d="M416 416h-91l-36 -202q-5 -29 -18.5 -54.5t-32 -45.5t-40.5 -31.5t-44 -11.5q-31 0 -48.5 22t-9.5 70l46 253h-92l-46 -259q-8 -43 -1.5 -74.5t22.5 -52.5t41 -31.5t55 -10.5q24 0 44.5 6.5t38 17t32 23.5t25.5 26l-10 -61h92z" />
    <glyph glyph-name="v" unicode="v" horiz-adv-x="389" 
d="M385 416h-99l-119 -211q-5 -8 -8.5 -16l-3.5 -8l-1 9t-3 18l-50 208h-97l115 -428z" />
    <glyph glyph-name="w" unicode="w" horiz-adv-x="581" 
d="M577 416h-101l-104 -188q-5 -8 -9.5 -18l-4.5 -10l-2 10t-4 18l-59 200l-133 -207q-5 -7 -9.5 -15.5l-4.5 -8.5l-1 8.5t-3 16.5l-42 194h-96l100 -428l146 241q5 7 9 15l4 8l1 -8t3 -15l59 -241z" />
    <glyph glyph-name="x" unicode="x" horiz-adv-x="419" 
d="M393 416h-103l-71 -91q-8 -10 -13.5 -19l-5.5 -9l-3.5 9t-7.5 17l-44 93h-104l94 -189l-187 -227h106l102 125q8 9 14.5 19l6.5 10l4 -10.5t8 -18.5l58 -125h104l-112 223z" />
    <glyph glyph-name="y" unicode="y" horiz-adv-x="392" 
d="M389 416h-100l-123 -280q-5 -11 -9.5 -23.5l-4.5 -12.5l-1 12.5t-3 23.5l-45 280h-94l72 -429q-20 -45 -41.5 -64.5t-57.5 -19.5q-10 0 -20.5 2.5t-19.5 6.5l-14 -82q18 -6 32.5 -7.5t32.5 -1.5q31 0 57 13t47 33.5t36 44t26 44.5z" />
    <glyph glyph-name="z" unicode="z" horiz-adv-x="402" 
d="M384 416h-327l-13 -79h151q8 0 16 0.5l8 0.5l-5 -5t-8 -9l-256 -324h347l14 79h-176q-8 0 -15 -0.5l-7 -0.5l5.5 5.5t10.5 11.5z" />
    <glyph glyph-name="braceleft" unicode="{" horiz-adv-x="290" 
d="M323 749q-46 -8 -78.5 -27t-55.5 -51.5t-38.5 -79t-26.5 -109.5q-6 -32 -12 -60.5t-16.5 -50.5t-27 -35t-42.5 -13l-14 -76q26 0 38 -13t15 -35t-1 -51t-10 -60q-9 -51 -10.5 -93.5t9.5 -76t36 -58t70 -39.5l11 60q-35 26 -39.5 71t9.5 122q6 32 10.5 65.5t3.5 63
t-11.5 51.5t-34.5 31q27 9 45 31t29.5 51.5t18.5 63t13 65.5q11 65 32 112t64 71z" />
    <glyph glyph-name="bar" unicode="|" horiz-adv-x="223" 
d="M220 730h-88l-159 -909h88z" />
    <glyph glyph-name="braceright" unicode="}" horiz-adv-x="290" 
d="M253 323q-26 0 -38 13t-15 35t1 50.5t10 60.5q9 51 10.5 93.5t-9.5 76t-36 58t-70 39.5l-11 -60q35 -26 39.5 -71t-9.5 -122q-6 -32 -10.5 -65.5t-3.5 -63t11.5 -51.5t34.5 -31q-27 -9 -45 -31t-29.5 -51.5t-18.5 -63t-13 -65.5q-11 -65 -32 -112t-64 -71l-13 -70
q46 8 78.5 27t55.5 51.5t38.5 79t26.5 109.5l12 60t16.5 51t27 35t42.5 13z" />
    <glyph glyph-name="asciitilde" unicode="~" 
d="M475 449h-94q-8 -30 -19.5 -54t-27.5 -24q-17 0 -32.5 12.5t-31.5 23.5l-43 28t-49 16q-36 0 -60.5 -12.5t-41.5 -35t-28.5 -53t-21.5 -65.5h94q8 29 19 53t27 24q17 0 33 -12l31 -24l19.5 -13.5t22.5 -14t24.5 -11.5t25.5 -5q34 0 58.5 13t42 35.5t30 53t22.5 65.5z" />
    <glyph glyph-name="exclamdown" unicode="&#xa1;" horiz-adv-x="213" 
d="M223 730h-101l-19 -110h101zM176 574h-61l-69 -279l-52 -295h101l52 295z" />
    <glyph glyph-name="cent" unicode="&#xa2;" horiz-adv-x="393" 
d="M363 385q-16 16 -43 28t-68 14l12 68h-55l-13 -70q-45 -8 -81.5 -34t-62.5 -62t-40 -79t-14 -85q0 -32 8 -61t23.5 -52t38 -38.5t52.5 -21.5l-13 -71h55l12 68q48 4 85 25.5t65 50.5l-52 57q-19 -20 -39 -33t-44 -17l49 274q25 -2 40 -8.5t29 -19.5zM181 340l-46 -261
q-23 11 -34.5 36.5t-11.5 61.5q0 27 7.5 52.5t20 47.5t29 38t35.5 25z" />
    <glyph glyph-name="sterling" unicode="&#xa3;" horiz-adv-x="574" 
d="M561 541q23 93 -25 147t-157 54q-60 0 -108 -20t-82.5 -52.5t-53 -74.5t-18.5 -85q0 -36 11.5 -69t28.5 -65h-89l-8 -45h121q12 -22 22 -44h-151l-8 -46h175q5 -20 5 -38q0 -26 -9 -51q-20 11 -44 17.5t-53 6.5q-26 0 -51 -6.5t-44.5 -19.5t-31.5 -33t-12 -47
q0 -43 28.5 -62.5t72.5 -19.5q42 0 80 13.5t69 38.5q24 -21 51.5 -36.5t62.5 -15.5q44 0 73.5 18.5t47.5 46.5t26.5 60.5t11.5 61.5h-90q-2 -14 -6.5 -30t-12 -30t-19.5 -23.5t-30 -9.5q-15 0 -29 6.5t-29 17.5q15 27 23.5 57.5t8.5 65.5v12h113l8 46h-128q-5 22 -15 44h151
l8 45h-180q-20 36 -36.5 69.5t-16.5 69.5q0 28 9.5 53.5t28 44.5t45.5 30t61 11q33 0 54 -9.5t31.5 -25.5t12.5 -36t-4 -42h101zM175 86q-17 -17 -37.5 -27t-44.5 -10q-38 0 -38 28q0 17 14 26.5t40 9.5q18 0 34 -7.5t32 -19.5z" />
    <glyph glyph-name="fraction" unicode="&#x2044;" horiz-adv-x="382" 
d="M490 730h-105l-493 -730h105z" />
    <glyph glyph-name="yen" unicode="&#xa5;" horiz-adv-x="593" 
d="M652 730h-114l-235 -297l-129 297h-107l174 -391l-12 -68h-120l-9 -47h121l-11 -61h-120l-9 -47h121l-21 -116h96l21 116h119l9 47h-120l11 61h119l9 47h-120l12 68z" />
    <glyph glyph-name="florin" unicode="&#x192;" horiz-adv-x="284" 
d="M322 723q-13 6 -29 8t-40 2q-22 0 -42.5 -8t-38.5 -25.5t-31.5 -45.5t-20.5 -68l-30 -170h-50l-14 -84h50l-58 -329q-10 -54 -23.5 -77.5t-36.5 -23.5q-14 0 -22.5 2l-16.5 4l-18 -77q13 -6 29 -8t40 -2q22 0 42.5 8t38.5 25.5t31.5 45.5t20.5 68l64 364h79l14 84h-79
l24 135q10 54 23.5 77.5t36.5 23.5q14 0 22.5 -2l16.5 -4z" />
    <glyph glyph-name="section" unicode="&#xa7;" horiz-adv-x="650" 
d="M645 670q-41 31 -99 51.5t-136 20.5q-49 0 -95.5 -9.5t-82.5 -31t-58 -55t-22 -81.5q0 -44 24 -75q-28 -17 -54 -40t-46 -51t-32 -60.5t-12 -67.5q0 -52 26 -89t88 -63l168 -69q42 -17 57 -33t15 -37q0 -32 -35 -52t-99 -20q-58 0 -108.5 17t-82.5 40l-62 -72
q41 -31 99 -51.5t136 -20.5q49 0 95.5 9.5t82.5 31t58 55t22 81.5q0 43 -24 75q28 16 54 39.5t46 51.5t32 60.5t12 67.5q0 52 -26 89t-88 63l-168 69q-42 17 -57 33t-15 37q0 32 35 52t99 20q58 0 108.5 -17t82.5 -40zM507 270q0 -23 -8.5 -44t-23.5 -39t-34.5 -33.5
t-41.5 -28.5q-2 1 -4.5 2t-4.5 2l-167 70q-48 20 -67 42.5t-19 51.5q0 23 8.5 44t23.5 39t34.5 33.5t41.5 28.5q2 -1 4.5 -2t4.5 -2l167 -70q48 -20 67 -42.5t19 -51.5z" />
    <glyph glyph-name="currency" unicode="&#xa4;" horiz-adv-x="608" 
d="M198 295h205l7 48h-209q1 9 2 19t3 20h209l7 48h-207q10 45 26.5 85t40 70.5t53 48t67.5 17.5q27 0 47 -8t35 -21.5t26.5 -32t20.5 -40.5l88 42q-26 73 -75.5 112t-137.5 39q-57 0 -104 -23t-84 -64.5t-64 -99t-42 -125.5h-83l-7 -48h81q-2 -10 -3 -19.5l-2 -19.5h-81
l-7 -48h84q-3 -77 11.5 -134.5t43.5 -95.5t71 -57.5t94 -19.5q79 0 136 37.5t104 117.5l-80 43q-29 -47 -66 -76.5t-88 -29.5q-36 0 -60 18t-38.5 47.5t-20 68.5t-3.5 81z" />
    <glyph glyph-name="quotesingle" unicode="'" horiz-adv-x="195" 
d="M204 730h-95l-19 -107v-110h55l40 110z" />
    <glyph glyph-name="quotedblleft" unicode="&#x201c;" horiz-adv-x="341" 
d="M376 730h-60q-10 -9 -25 -25t-30 -36.5t-27.5 -44t-16.5 -47.5l-11 -64h105l20 111q3 16 8.5 31.5t12 30t13 26t11.5 18.5zM230 730h-60q-10 -9 -25 -25t-30 -36.5t-27.5 -44t-16.5 -47.5l-11 -64h105l20 111q3 16 8.5 31.5t12 30t13 26t11.5 18.5z" />
    <glyph glyph-name="guillemotleft" unicode="&#xab;" horiz-adv-x="353" 
d="M320 365l-163 -123l-14 -75l120 -125l18 102l-60 61l82 60zM165 365l-162 -123l-14 -75l119 -125l18 102l-60 61l82 60z" />
    <glyph glyph-name="guilsinglleft" unicode="&#x2039;" horiz-adv-x="194" 
d="M165 365l-162 -123l-14 -75l119 -125l18 102l-60 61l82 60z" />
    <glyph glyph-name="guilsinglright" unicode="&#x203a;" horiz-adv-x="194" 
d="M152 242l-121 123l-17 -100l60 -60l-82 -61l-18 -102l164 125z" />
    <glyph glyph-name="fi" unicode="&#xfb01;" horiz-adv-x="445" 
d="M439 626h-91l-20 -115h91zM305 723q-13 6 -29 8t-40 2q-22 0 -42.5 -8t-38.5 -25.5t-31.5 -45.5t-20.5 -68l-30 -170h-50l-14 -84h50l-90 -511h91l90 511h79l14 84h-79l24 135q10 54 23.5 77.5t36.5 23.5q14 0 22.5 -2l16.5 -4zM402 416h-91l-73 -416h91z" />
    <glyph glyph-name="fl" unicode="&#xfb02;" horiz-adv-x="445" 
d="M458 730h-91l-129 -730h91zM305 723q-13 6 -29 8t-40 2q-22 0 -42.5 -8t-38.5 -25.5t-31.5 -45.5t-20.5 -68l-30 -170h-50l-14 -84h50l-90 -511h91l90 511h79l14 84h-79l24 135q10 54 23.5 77.5t36.5 23.5q14 0 22.5 -2l16.5 -4z" />
    <glyph glyph-name="endash" unicode="&#x2013;" horiz-adv-x="440" 
d="M373 254h-350l-15 -86h350z" />
    <glyph glyph-name="dagger" unicode="&#x2020;" horiz-adv-x="515" 
d="M511 468h-192l47 262h-91l-47 -262h-192l-14 -84h192l-100 -563h91l100 563h192z" />
    <glyph glyph-name="daggerdbl" unicode="&#x2021;" horiz-adv-x="515" 
d="M511 468h-192l47 262h-91l-47 -262h-192l-14 -84h192l-36 -204h-192l-14 -84h191l-49 -275h91l49 275h193l14 84h-192l36 204h192z" />
    <glyph glyph-name="periodcentered" unicode="&#xb7;" horiz-adv-x="196" 
d="M157 416h-100l-20 -110h100z" />
    <glyph glyph-name="periodcentered" unicode="&#x22c5;" horiz-adv-x="196" 
d="M157 416h-100l-20 -110h100z" />
    <glyph glyph-name="paragraph" unicode="&#xb6;" horiz-adv-x="675" 
d="M672 730h-345q-56 0 -106.5 -19.5t-89.5 -54.5t-62 -83.5t-23 -105.5q0 -37 14 -70t38.5 -57.5t58.5 -38.5t73 -14h108l-82 -466h91l146 821h74l-146 -821h91zM402 642l-48 -267h-80q-128 0 -128 111q0 36 15.5 65t41 49.5t58 31t67.5 10.5h74z" />
    <glyph glyph-name="bullet" unicode="&#x2022;" horiz-adv-x="342" 
d="M282 379q0 23 -9 43t-24 35t-35 24t-43 9t-43 -9t-35 -24t-24 -35t-9 -43t9 -43t24 -35t35 -24t43 -9t43 9t35 24t24 35t9 43z" />
    <glyph glyph-name="quotesinglbase" unicode="&#x201a;" horiz-adv-x="195" 
d="M106 115h-105l-20 -111q-3 -16 -8.5 -31.5t-12 -30t-13.5 -26l-11 -18.5h60q10 9 25 25t30 36.5t27 44t17 47.5z" />
    <glyph glyph-name="quotedblbase" unicode="&#x201e;" horiz-adv-x="341" 
d="M252 115h-105l-20 -111q-3 -16 -8.5 -31.5t-12 -30t-13.5 -26l-11 -18.5h60q10 9 25 25t30 36.5t27 44t17 47.5zM106 115h-105l-20 -111q-3 -16 -8.5 -31.5t-12 -30t-13.5 -26l-11 -18.5h60q10 9 25 25t30 36.5t27 44t17 47.5z" />
    <glyph glyph-name="quotedblright" unicode="&#x201d;" horiz-adv-x="341" 
d="M367 730h-105l-20 -111q-3 -16 -8.5 -31.5t-12 -30t-13.5 -26l-11 -18.5h60q10 9 25 25t30 36.5t27 44t17 47.5zM221 730h-105l-20 -111q-3 -16 -8.5 -31.5t-12 -30t-13.5 -26l-11 -18.5h60q10 9 25 25t30 36.5t27 44t17 47.5z" />
    <glyph glyph-name="guillemotright" unicode="&#xbb;" horiz-adv-x="353" 
d="M312 242l-121 123l-17 -100l60 -60l-82 -61l-18 -102l164 125zM157 242l-121 123l-17 -100l60 -60l-82 -61l-18 -102l164 125z" />
    <glyph glyph-name="ellipsis" unicode="&#x2026;" horiz-adv-x="573" 
d="M483 110h-100l-20 -110h100zM292 110h-100l-20 -110h100zM101 110h-100l-20 -110h100z" />
    <glyph glyph-name="perthousand" unicode="&#x2030;" horiz-adv-x="1032" 
d="M347 599q0 66 -30.5 104.5t-91.5 38.5q-31 0 -60.5 -17.5t-53 -48.5t-38 -73t-14.5 -91q0 -42 10 -70t26.5 -45t38.5 -24.5t46 -7.5q31 0 61.5 17.5t53.5 49t37.5 74t14.5 93.5zM680 730h-101l-539 -730h101zM980 222q0 66 -30.5 104.5t-91.5 38.5q-31 0 -60.5 -17.5
t-53 -48.5t-38 -73t-14.5 -91q0 -42 10 -70t26.5 -45t38.5 -24.5t46 -7.5q31 0 61.5 17.5t53.5 49t37.5 74t14.5 93.5zM660 222q0 66 -30.5 104.5t-91.5 38.5q-31 0 -60.5 -17.5t-53 -48.5t-38 -73t-14.5 -91q0 -42 10 -70t26.5 -45t38.5 -24.5t46 -7.5q31 0 61.5 17.5
t53.5 49t37.5 74t14.5 93.5zM265 584q0 -28 -5.5 -55t-16 -48t-25 -33.5t-32.5 -12.5q-22 0 -34.5 20.5t-12.5 65.5q0 31 6.5 58.5t17 48t25 32.5t31.5 12q22 0 34 -23t12 -65zM898 207q0 -28 -5.5 -55t-16 -48t-25 -33.5t-32.5 -12.5q-22 0 -34.5 20.5t-12.5 65.5
q0 31 6.5 58.5t17 48t25 32.5t31.5 12q22 0 34 -23t12 -65zM578 207q0 -28 -5.5 -55t-16 -48t-25 -33.5t-32.5 -12.5q-22 0 -34.5 20.5t-12.5 65.5q0 31 6.5 58.5t17 48t25 32.5t31.5 12q22 0 34 -23t12 -65z" />
    <glyph glyph-name="questiondown" unicode="&#xbf;" horiz-adv-x="441" 
d="M346 742h-101l-19 -110h101zM382 92l-54 67q-29 -30 -65.5 -51t-76.5 -21q-88 0 -88 93q0 45 27.5 85t74.5 90q41 44 70.5 97.5t43.5 130.5h-93q-9 -54 -30 -97t-53 -78l-59 -65.5t-43.5 -58t-27 -59.5t-9.5 -70q0 -75 48 -115t124 -40q62 0 112.5 23t98.5 69z" />
    <glyph glyph-name="grave" unicode="`" 
d="M344 490l-67 147h-89l67 -147h89z" />
    <glyph glyph-name="acute" unicode="&#xb4;" 
d="M387 637h-99l-119 -147h99z" />
    <glyph glyph-name="circumflex" unicode="&#x2c6;" 
d="M410 490l-77 147h-88l-129 -147h95l69 84l40 -84h90z" />
    <glyph glyph-name="tilde" unicode="&#x2dc;" 
d="M436 607h-74q-5 -46 -28 -46q-12 0 -22 6t-21 14q-13 8 -31 18t-35 10q-26 0 -45 -9t-32 -25t-21 -38t-11 -47h74q2 21 9.5 33.5t18.5 12.5q12 0 22 -6t21 -14q12 -8 30 -18t36 -10q49 0 75.5 34.5t33.5 84.5z" />
    <glyph glyph-name="macron" unicode="&#xaf;" 
d="M428 556h-300l-12 -66h300z" />
    <glyph glyph-name="macron" unicode="&#x2c9;" 
d="M428 556h-300l-12 -66h300z" />
    <glyph glyph-name="breve" unicode="&#x2d8;" 
d="M440 634h-75q-5 -11 -12.5 -23.5t-18 -23.5t-24.5 -18.5t-31 -7.5t-28.5 7t-18.5 18t-10 23.5t-3 24.5h-75q-7 -72 27 -109.5t95 -37.5t108 37.5t66 109.5z" />
    <glyph glyph-name="dotaccent" unicode="&#x2d9;" 
d="M332 601h-92l-20 -111h92z" />
    <glyph glyph-name="dieresis" unicode="&#xa8;" 
d="M415 601h-91l-20 -111h91zM256 601h-91l-20 -111h91z" />
    <glyph glyph-name="ring" unicode="&#x2da;" 
d="M395 599q0 24 -9 44.5t-24 35.5t-35.5 24t-44.5 9t-44.5 -9t-35.5 -24t-24 -35.5t-9 -44.5t9 -44.5t24 -35.5t35.5 -24t44.5 -9t44.5 9t35.5 24t24 35.5t9 44.5zM336 599q0 -23 -15.5 -38.5t-38.5 -15.5t-38.5 15.5t-15.5 38.5t15.5 38.5t38.5 15.5t38.5 -15.5
t15.5 -38.5z" />
    <glyph glyph-name="cedilla" unicode="&#xb8;" 
d="M264 -99q0 23 -19.5 39.5t-54.5 16.5l40 57h-64l-57 -78l17 -22q10 3 16.5 4t17.5 1q14 0 22.5 -7.5t8.5 -18.5q0 -13 -12.5 -21t-26.5 -8q-20 0 -35 5.5t-28 15.5l-28 -32q19 -14 42.5 -23t50.5 -9q22 0 42 5t35 14.5t24 24.5t9 36z" />
    <glyph glyph-name="hungarumlaut" unicode="&#x2dd;" 
d="M446 637h-91l-93 -147h91zM302 637h-91l-93 -147h91z" />
    <glyph glyph-name="ogonek" unicode="&#x2db;" 
d="M286 -149l-27 37q-18 -12 -32.5 -16.5t-34.5 -4.5q-14 0 -26 8.5t-12 30.5q0 10 4 21.5t13.5 24.5t26 28t41.5 32h-66q-53 -26 -77 -54t-24 -56q0 -20 10 -35.5t26.5 -26t37 -16t41.5 -5.5q60 0 99 32z" />
    <glyph glyph-name="caron" unicode="&#x2c7;" 
d="M437 637h-93l-68 -83l-38 83h-95l77 -147h88z" />
    <glyph glyph-name="emdash" unicode="&#x2014;" horiz-adv-x="625" 
d="M559 254h-535l-16 -86h535z" />
    <glyph glyph-name="AE" unicode="&#xc6;" horiz-adv-x="896" 
d="M894 730h-388l-552 -730h110l180 236h175l-42 -236h407l16 90h-314l39 223h288l16 90h-288l42 237h295zM485 579l-50 -253h-131z" />
    <glyph glyph-name="ordfeminine" unicode="&#xaa;" horiz-adv-x="418" 
d="M389 620q11 66 -19 94t-102 28q-28 0 -63 -6t-61 -20l16 -54q23 10 48.5 14t57.5 4q40 0 47.5 -15.5t2.5 -45.5h-59q-34 0 -66.5 -8t-57.5 -25t-40.5 -43t-15.5 -62q0 -42 25.5 -66.5t73.5 -24.5q30 0 57.5 13t49.5 34l-6 -38h73zM354 336h-287l-11 -66h287zM305 561
l-9 -50q-7 -9 -19 -19.5t-26 -19.5t-29 -14.5t-28 -5.5q-17 0 -30 9t-13 33q0 16 9 29t23 21t31.5 12.5t34.5 4.5h56z" />
    <glyph glyph-name="Lslash" unicode="&#x141;" horiz-adv-x="467" 
d="M396 90h-261l43 242l185 57l-28 79l-141 -43l54 305h-96l-59 -336l-86 -26l29 -80l40 12l-53 -300h357z" />
    <glyph glyph-name="Oslash" unicode="&#xd8;" horiz-adv-x="806" 
d="M781 694l-51 48l-62 -62q-37 29 -85 45.5t-109 16.5q-79 0 -157.5 -30.5t-140.5 -88t-101 -142t-39 -192.5q0 -55 14.5 -101.5t41.5 -84.5l-55 -55l51 -48l52 52q38 -31 89.5 -47.5t111.5 -16.5q77 0 154 33t138 93t99 144t38 186q0 53 -13.5 100t-40.5 85zM594 606
l-426 -426q-31 56 -31 135q0 58 22 117.5t62.5 107.5t98 78t129.5 30q92 0 145 -42zM670 425q0 -66 -24.5 -127.5t-67 -109.5t-99 -77t-119.5 -29q-46 0 -82.5 11.5t-63.5 32.5l426 427q30 -53 30 -128z" />
    <glyph glyph-name="OE" unicode="&#x152;" horiz-adv-x="1118" 
d="M1116 730h-388l-19 -106q-13 24 -36 45.5t-54 37.5t-68 25.5t-77 9.5q-79 0 -157.5 -30.5t-140.5 -88t-101 -142t-39 -192.5q0 -68 22 -123t62 -95t96 -61.5t125 -21.5q36 0 73.5 8t74 23.5t69.5 38t60 51.5l-19 -109h407l16 90h-311l39 223h285l16 90h-285l42 237h292z
M670 425q0 -66 -24.5 -127.5t-67 -109.5t-99 -77t-119.5 -29q-55 0 -97 16.5t-70 47t-42 73.5t-14 96q0 58 22 117.5t62.5 107.5t98 78t129.5 30q58 0 100 -16.5t69 -46.5t39.5 -71t12.5 -89z" />
    <glyph glyph-name="ordmasculine" unicode="&#xba;" horiz-adv-x="418" 
d="M401 605q0 28 -8.5 52.5t-24.5 43.5t-39.5 30t-53.5 11q-42 0 -76 -19t-59 -49t-38.5 -67.5t-13.5 -74.5q0 -30 8.5 -55.5t24.5 -45t39.5 -30.5t53.5 -11q37 0 71 16t60 44.5t41 68t15 86.5zM351 336h-287l-11 -66h287zM326 593q0 -26 -6 -50t-18.5 -43.5t-31 -31
t-43.5 -11.5q-34 0 -49.5 23t-15.5 61q0 28 8 52.5t21.5 42.5t31.5 28.5t39 10.5q64 0 64 -82z" />
    <glyph glyph-name="ae" unicode="&#xe6;" horiz-adv-x="714" 
d="M656 273q0 33 -12.5 61.5t-34 49t-50.5 32.5t-61 12q-38 0 -74 -14.5t-63 -41.5q-11 30 -46 43t-86 13q-17 0 -37.5 -2t-41 -5.5t-40.5 -9.5t-36 -15l20 -68q56 23 132 23q25 0 39.5 -5t20.5 -14.5t6 -23.5t-3 -33h-74q-43 0 -83.5 -10.5t-72 -31.5t-50.5 -53.5
t-19 -77.5q0 -52 32 -83t92 -31q26 0 52.5 7t50.5 19.5t44.5 29t35.5 34.5q18 -45 57.5 -67.5t96.5 -22.5q63 0 108.5 23t76.5 54l-47 57q-23 -22 -59 -38t-75 -16q-43 0 -68.5 29t-25.5 85v13h286q5 16 7 37t2 41zM571 259h-195q15 39 45 65.5t72 26.5q25 0 40.5 -9
t24.5 -22.5t11.5 -29.5t1.5 -31zM275 202l-11 -62q-9 -12 -23.5 -25t-32 -24t-36.5 -18t-36 -7q-20 0 -36.5 11t-16.5 41q0 21 11 36.5t28.5 26t39.5 16t43 5.5h70z" />
    <glyph glyph-name="dotlessi" unicode="&#x131;" horiz-adv-x="194" 
d="M151 416h-91l-73 -416h91z" />
    <glyph glyph-name="lslash" unicode="&#x142;" horiz-adv-x="254" 
d="M254 354l-28 79l-43 -13l55 310h-91l-60 -339l-85 -26l29 -80l40 12l-53 -297h91l58 327z" />
    <glyph glyph-name="oslash" unicode="&#xf8;" horiz-adv-x="448" 
d="M413 391l-37 37l-36 -36q-21 17 -47 26.5t-58 9.5q-54 0 -98 -23.5t-75 -61t-47.5 -84.5t-16.5 -94q0 -26 6.5 -50t17.5 -45l-45 -45l37 -37l41 41q22 -20 50 -30.5t62 -10.5q50 0 93 20t75 55.5t50 85t18 108.5q0 52 -28 96zM276 327l-182 -184q-3 16 -3 34
q0 35 11 65.5t29 53t41.5 35.5t49.5 13q32 0 54 -17zM309 242q0 -32 -8.5 -62.5t-25 -54.5t-41 -38.5t-55.5 -14.5q-36 0 -60 22l185 187q5 -18 5 -39z" />
    <glyph glyph-name="oe" unicode="&#x153;" horiz-adv-x="746" 
d="M688 273q0 33 -12.5 61.5t-34 49t-50.5 32.5t-61 12q-49 0 -92.5 -23t-65.5 -56q-15 35 -53.5 57t-83.5 22q-54 0 -98 -23.5t-75 -61t-47.5 -84.5t-16.5 -94q0 -37 12 -69t34 -56t53.5 -38t69.5 -14q50 0 95 22.5t72 58.5q20 -38 60 -59.5t89 -21.5q63 0 108.5 23
t76.5 54l-47 57q-23 -22 -59 -38t-75 -16q-43 0 -68.5 29t-25.5 85v13h286q5 16 7 37t2 41zM603 259h-195q15 39 45 65.5t72 26.5q25 0 40.5 -9t24.5 -22.5t11.5 -29.5t1.5 -31zM309 242q0 -32 -8.5 -62.5t-25 -54.5t-41 -38.5t-55.5 -14.5q-43 0 -65.5 28.5t-22.5 76.5
q0 35 11 65.5t29 53t41.5 35.5t49.5 13q41 0 64 -25.5t23 -76.5z" />
    <glyph glyph-name="germandbls" unicode="&#xdf;" horiz-adv-x="450" 
d="M428 600q0 32 -11.5 58.5t-31 45t-45.5 28.5t-55 10q-92 0 -139.5 -54.5t-63.5 -148.5l-126 -718h90l127 725q10 56 35 88t67 32q30 0 45.5 -22t15.5 -54q0 -29 -10 -53.5t-26 -43t-37 -29t-42 -10.5h-8l-12 -63q20 -5 37 -20.5t30 -37.5t20 -49.5t7 -56.5
q0 -67 -26 -110.5t-76 -43.5q-14 0 -28.5 2t-24.5 7l-16 -82q30 -12 62 -12q48 0 86.5 19t64.5 52t40 78t14 98q0 34 -8 62.5t-20.5 50.5t-27 38t-27.5 26q18 6 39 22t39 40.5t30 56t12 69.5z" />
    <glyph glyph-name="Scaron" unicode="&#x160;" horiz-adv-x="506" 
d="M483 686q-35 29 -70.5 42.5t-87.5 13.5q-54 0 -99 -16.5t-77.5 -46t-50 -68.5t-17.5 -84q0 -32 10 -57t26 -46t37 -38t43 -33l47 -33.5t41 -35t29.5 -40.5t11.5 -49q0 -52 -38.5 -84t-104.5 -32q-36 0 -67.5 13.5t-57.5 38.5l-63 -76q40 -35 83 -51t99 -16q52 0 98 17
t80 47.5t53.5 72.5t19.5 91q0 37 -12.5 66t-32 52t-44 42.5t-49.5 36.5q-21 14 -40 28t-33.5 29t-23.5 32t-9 37q0 45 31.5 78t97.5 33q34 0 57.5 -10.5t52.5 -34.5zM498 935h-93l-68 -83l-38 83h-95l77 -147h88z" />
    <glyph glyph-name="scaron" unicode="&#x161;" horiz-adv-x="340" 
d="M303 394q-25 18 -56 26t-69 8q-26 0 -52 -8.5t-48 -25t-35.5 -41t-13.5 -55.5q0 -35 22 -59.5t50 -44.5l29 -20.5t25.5 -18.5t18.5 -18.5t7 -19.5q0 -14 -5.5 -23.5t-14.5 -15t-19.5 -8t-20.5 -2.5q-17 0 -41.5 9.5t-46.5 26.5l-56 -66q23 -20 57 -34t85 -14q27 0 54 9
t49 27t36 44t14 60q0 19 -7.5 35.5t-19.5 31t-27.5 27l-30.5 23.5q-26 18 -46 33.5t-20 29.5q0 21 14.5 31.5t36.5 10.5q18 0 41.5 -7t41.5 -21zM357 637h-93l-68 -83l-38 83h-95l77 -147h88z" />
    <glyph glyph-name="Yacute" unicode="&#xdd;" horiz-adv-x="593" 
d="M652 730h-114l-215 -272q-7 -8 -13.5 -18l-6.5 -10l-4 11t-8 19l-117 270h-107l174 -391l-60 -339h96l60 339zM518 925h-99l-119 -147h99z" />
    <glyph glyph-name="yacute" unicode="&#xfd;" horiz-adv-x="392" 
d="M389 416h-100l-123 -280q-5 -11 -9.5 -23.5l-4.5 -12.5l-1 12.5t-3 23.5l-45 280h-94l72 -429q-20 -45 -41.5 -64.5t-57.5 -19.5q-10 0 -20.5 2.5t-19.5 6.5l-14 -82q18 -6 32.5 -7.5t32.5 -1.5q31 0 57 13t47 33.5t36 44t26 44.5zM369 637h-99l-119 -147h99z" />
    <glyph glyph-name="Thorn" unicode="&#xde;" horiz-adv-x="531" 
d="M509 415q0 32 -11 64t-35 57.5t-63 41.5t-94 16h-103l24 136h-96l-129 -730h96l27 151h102q56 0 107 19.5t90 54.5t62 83.5t23 106.5zM409 400q0 -38 -14 -67.5t-38 -49.5t-55.5 -31t-66.5 -11h-94l46 263h87q70 0 102.5 -28.5t32.5 -75.5z" />
    <glyph glyph-name="thorn" unicode="&#xfe;" horiz-adv-x="477" 
d="M424 242q0 46 -12 80.5t-32 58t-46.5 35.5t-55.5 12q-48 0 -81 -22.5t-54 -50.5l64 375h-92l-159 -909h91l39 219q14 -18 41.5 -35t72.5 -17q47 0 88 23.5t71 60.5t47.5 82t17.5 88zM331 241q0 -35 -11 -65.5t-29 -53.5t-41.5 -36.5t-49.5 -13.5q-36 0 -61.5 18t-35.5 43
l12 69q5 28 18.5 54t32 46t40.5 31.5t44 11.5q36 0 58.5 -23.5t22.5 -80.5z" />
    <glyph glyph-name="Zcaron" unicode="&#x17d;" horiz-adv-x="606" 
d="M622 730h-481l-16 -89h288q13 0 22 0.5l9 0.5l-4.5 -4.5t-9.5 -11.5l-473 -626h532l15 88h-349q-9 0 -16.5 -0.5l-7.5 -0.5l6 6t11 13zM550 935h-93l-68 -83l-38 83h-95l77 -147h88z" />
    <glyph glyph-name="zcaron" unicode="&#x17e;" horiz-adv-x="402" 
d="M384 416h-327l-13 -79h151q8 0 16 0.5l8 0.5l-5 -5t-8 -9l-256 -324h347l14 79h-176q-8 0 -15 -0.5l-7 -0.5l5.5 5.5t10.5 11.5zM396 637h-93l-68 -83l-38 83h-95l77 -147h88z" />
    <glyph glyph-name="onehalf" unicode="&#xbd;" horiz-adv-x="934" 
d="M124 307h82l75 422h-60q-15 -26 -45 -43.5t-63 -21.5l-15 -87q21 3 42.5 10.5t37.5 23.5zM772 730h-89l-628 -730h89zM669 78l99 97l25.5 26t24 30t17.5 35t7 42q0 56 -32 90.5t-106 34.5q-37 0 -65 -13t-48 -34.5t-32.5 -49.5t-17.5 -57h81q2 13 7 27t14 25.5t22.5 19
t32.5 7.5q61 0 61 -54q0 -18 -12.5 -37t-32.5 -40l-217 -227h307l15 78h-150z" />
    <glyph glyph-name="onequarter" unicode="&#xbc;" horiz-adv-x="884" 
d="M124 307h82l75 422h-60q-15 -26 -45 -43.5t-63 -21.5l-15 -87q21 3 42.5 10.5t37.5 23.5zM777 730h-89l-628 -730h89zM785 89l13 75h-51l43 244h-98l-221 -254l-11 -65h192l-15 -86h82l15 86h51zM665 164h-105l121 138q3 4 7 8.5l4 4.5z" />
    <glyph glyph-name="onesuperior" unicode="&#xb9;" horiz-adv-x="318" 
d="M124 307h82l75 422h-60q-15 -26 -45 -43.5t-63 -21.5l-15 -87q21 3 42.5 10.5t37.5 23.5z" />
    <glyph glyph-name="threequarters" unicode="&#xbe;" horiz-adv-x="964" 
d="M399 633q0 13 -4.5 31.5t-18 35t-38 28t-64.5 11.5q-31 0 -56 -9t-44 -21.5t-31.5 -27t-19.5 -25.5l57 -41q13 17 33.5 33.5t52.5 16.5q19 0 30 -4.5t16.5 -11.5t7 -14.5t1.5 -13.5q0 -32 -22 -46.5t-52 -14.5h-41l-8 -61h41q31 0 47.5 -10.5t16.5 -36.5q0 -14 -6.5 -28
t-19 -25t-30.5 -17.5t-40 -6.5q-23 0 -46 7.5t-38 19.5l-47 -60q17 -15 51.5 -27.5t72.5 -12.5q43 0 76.5 12.5t56.5 34t35.5 50t12.5 61.5q0 27 -13.5 48t-40.5 26q27 5 49.5 31t22.5 68zM865 730h-89l-628 -730h89zM865 89l13 75h-51l43 244h-98l-221 -254l-11 -65h192
l-15 -86h82l15 86h51zM745 164h-105l121 138q3 4 7 8.5l4 4.5z" />
    <glyph glyph-name="threesuperior" unicode="&#xb3;" horiz-adv-x="439" 
d="M399 633q0 13 -4.5 31.5t-18 35t-38 28t-64.5 11.5q-31 0 -56 -9t-44 -21.5t-31.5 -27t-19.5 -25.5l57 -41q13 17 33.5 33.5t52.5 16.5q19 0 30 -4.5t16.5 -11.5t7 -14.5t1.5 -13.5q0 -32 -22 -46.5t-52 -14.5h-41l-8 -61h41q31 0 47.5 -10.5t16.5 -36.5q0 -14 -6.5 -28
t-19 -25t-30.5 -17.5t-40 -6.5q-23 0 -46 7.5t-38 19.5l-47 -60q17 -15 51.5 -27.5t72.5 -12.5q43 0 76.5 12.5t56.5 34t35.5 50t12.5 61.5q0 26 -13 47.5t-41 26.5q27 5 49.5 31t22.5 68z" />
    <glyph glyph-name="twosuperior" unicode="&#xb2;" horiz-adv-x="448" 
d="M237 385l99 97l25.5 26t24 30t17.5 35t7 42q0 54 -32 89.5t-105 35.5q-37 0 -65.5 -13t-49 -34.5t-33 -49.5t-16.5 -57h81q2 14 8 28t16 25.5t24 18.5t33 7q28 0 42 -14.5t14 -39.5q0 -18 -12.5 -37t-32.5 -40l-217 -227h307l15 78h-150z" />
    <glyph glyph-name="brokenbar" unicode="&#xa6;" horiz-adv-x="243" 
d="M76 351h93l67 379h-93zM142 200h-93l-67 -379h93z" />
    <glyph glyph-name="minus" unicode="&#x2212;" horiz-adv-x="555" 
d="M26 262h481l18 102h-481z" />
    <glyph glyph-name="multiply" unicode="&#xd7;" horiz-adv-x="502" 
d="M191 334l-170 -148l50 -65l171 149l119 -149l70 60l-120 150l166 144l-50 65l-167 -145l-115 145l-70 -60z" />
    <glyph glyph-name="eth" unicode="&#xf0;" horiz-adv-x="444" 
d="M389 277q0 30 -4.5 66t-14.5 75.5t-26 81t-39 82.5l63 25l-32 68l-74 -30q-22 29 -49 55.5t-60 48.5l-40 -39q43 -40 79 -93l-93 -38l33 -68l99 40q22 -42 35.5 -81t18.5 -71q-11 12 -29 20.5t-49 8.5q-44 0 -82.5 -24t-66.5 -61.5t-44 -84.5t-16 -93q0 -37 10.5 -69
t30.5 -56t49.5 -38t67.5 -14q47 0 89 18.5t74 55t51 90.5t19 125zM295 242q0 -32 -7.5 -62.5t-23 -54.5t-38.5 -38.5t-54 -14.5q-43 0 -62 28.5t-19 76.5q0 35 10 65.5t26.5 53t39 35.5t48.5 13q80 0 80 -102z" />
    <glyph glyph-name="Adieresis" unicode="&#xc4;" horiz-adv-x="664" 
d="M626 730h-91l-20 -111h91zM251 730h-91l-20 -111h91zM570 0l-143 730h-64l-399 -730h103l130 236h225l44 -236h104zM405 326h-159l110 218l6.5 15.5l4.5 10.5l1 -11.5t2 -16.5z" />
    <glyph glyph-name="Aring" unicode="&#xc5;" horiz-adv-x="664" 
d="M570 0l-133 680q33 12 54 40.5t21 66.5q0 24 -9 44.5t-24 35.5t-35.5 24t-44.5 9t-44.5 -9t-35.5 -24t-24 -35.5t-9 -44.5q0 -32 15 -57.5t40 -39.5l-377 -690h103l130 236h225l44 -236h104zM453 787q0 -23 -15.5 -38.5t-38.5 -15.5t-38.5 15.5t-15.5 38.5t15.5 38.5
t38.5 15.5t38.5 -15.5t15.5 -38.5zM405 326h-159l120 238z" />
    <glyph glyph-name="Ccedilla" unicode="&#xc7;" horiz-adv-x="691" 
d="M690 638q-18 20 -37.5 39t-46 33.5t-61 23t-81.5 8.5q-78 0 -155 -31.5t-137.5 -90.5t-98 -142.5t-37.5 -186.5q0 -61 18 -114t52 -93t83 -65t111 -30l-39 -53l17 -22q10 3 16.5 4t17.5 1q14 0 22.5 -7.5t8.5 -18.5q0 -13 -12.5 -21t-26.5 -8q-20 0 -35 5.5t-28 15.5
l-28 -32q19 -14 42.5 -23t50.5 -9q22 0 42 5t35 14.5t24 24.5t9 36q0 23 -19.5 39.5t-54.5 16.5l23 33q74 7 138 41.5t111 84.5l-63 64q-50 -53 -99 -75.5t-102 -22.5t-93 17.5t-66.5 48t-40 72t-13.5 90.5q0 58 21.5 118t61.5 109t95.5 80t123.5 31q34 0 60 -5.5t46 -15
t35 -23t28 -28.5z" />
    <glyph glyph-name="Eacute" unicode="&#xc9;" horiz-adv-x="521" 
d="M519 730h-388l-129 -730h407l16 90h-311l39 223h285l16 90h-285l42 237h292zM479 935h-99l-119 -147h99z" />
    <glyph glyph-name="Ntilde" unicode="&#xd1;" horiz-adv-x="687" 
d="M685 730h-96l-90 -512q-2 -12 -3.5 -24.5l-1.5 -12.5l-5.5 12.5t-10.5 21.5l-262 515h-85l-129 -730h96l92 522q2 11 3.5 24l1.5 13l5.5 -11.5l10.5 -21.5l265 -526h80zM586 895h-74q-5 -46 -28 -46q-12 0 -22 6t-21 14q-13 8 -31 18t-35 10q-26 0 -45 -9t-32 -25
t-21 -38t-11 -47h74q2 21 9.5 33.5t18.5 12.5q12 0 22 -6t21 -14q12 -8 30 -18t36 -10q49 0 75.5 34.5t33.5 84.5z" />
    <glyph glyph-name="Odieresis" unicode="&#xd6;" horiz-adv-x="806" 
d="M859 730h-91l-20 -111h91zM156 730h-91l-20 -111h91zM770 444q0 61 -19 115.5t-56.5 95t-93 64t-127.5 23.5q-79 0 -157.5 -30.5t-140.5 -88t-101 -142t-39 -192.5q0 -68 22 -123t62 -95t96 -61.5t125 -21.5q77 0 154 33t138 93t99 144t38 186zM670 425
q0 -66 -24.5 -127.5t-67 -109.5t-99 -77t-119.5 -29q-55 0 -97 16.5t-70 47t-42 73.5t-14 96q0 58 22 117.5t62.5 107.5t98 78t129.5 30q58 0 100 -16.5t69 -46.5t39.5 -71t12.5 -89z" />
    <glyph glyph-name="Udieresis" unicode="&#xdc;" horiz-adv-x="679" 
d="M527 730h-91l-20 -111h91zM373 730h-91l-20 -111h91zM678 730h-95l-76 -434q-9 -53 -30 -94t-49 -68.5t-61.5 -41.5t-69.5 -14q-38 0 -70 13t-52.5 40t-28.5 68t2 97l76 434h-97l-76 -434q-12 -68 -1 -124.5t41 -97t78.5 -63.5t111.5 -23q62 0 115.5 22t95 62.5t70 97
t40.5 126.5z" />
    <glyph glyph-name="aacute" unicode="&#xe1;" horiz-adv-x="441" 
d="M380 276q14 82 -23 117t-128 35q-17 0 -37.5 -2t-41 -5.5t-40.5 -9.5t-36 -15l20 -68q56 23 132 23q46 0 58.5 -16.5t5.5 -54.5h-74q-41 0 -81 -11t-72.5 -33.5t-52.5 -55.5t-20 -78q0 -52 32 -83t92 -31q38 0 72.5 16.5t61.5 42.5l-8 -47h91zM276 206l-12 -66
q-9 -12 -23.5 -25t-32 -24t-36.5 -18t-36 -7q-20 0 -36.5 11t-16.5 41q0 21 11.5 37t29.5 27.5t39.5 17.5t42.5 6h70zM407 637h-99l-119 -147h99z" />
    <glyph glyph-name="agrave" unicode="&#xe0;" horiz-adv-x="441" 
d="M380 276q14 82 -23 117t-128 35q-17 0 -37.5 -2t-41 -5.5t-40.5 -9.5t-36 -15l20 -68q56 23 132 23q46 0 58.5 -16.5t5.5 -54.5h-74q-41 0 -81 -11t-72.5 -33.5t-52.5 -55.5t-20 -78q0 -52 32 -83t92 -31q38 0 72.5 16.5t61.5 42.5l-8 -47h91zM276 206l-12 -66
q-9 -12 -23.5 -25t-32 -24t-36.5 -18t-36 -7q-20 0 -36.5 11t-16.5 41q0 21 11.5 37t29.5 27.5t39.5 17.5t42.5 6h70zM298 490l-67 147h-89l67 -147h89z" />
    <glyph glyph-name="acircumflex" unicode="&#xe2;" horiz-adv-x="441" 
d="M380 276q14 82 -23 117t-128 35q-17 0 -37.5 -2t-41 -5.5t-40.5 -9.5t-36 -15l20 -68q56 23 132 23q46 0 58.5 -16.5t5.5 -54.5h-74q-41 0 -81 -11t-72.5 -33.5t-52.5 -55.5t-20 -78q0 -52 32 -83t92 -31q38 0 72.5 16.5t61.5 42.5l-8 -47h91zM276 206l-12 -66
q-9 -12 -23.5 -25t-32 -24t-36.5 -18t-36 -7q-20 0 -36.5 11t-16.5 41q0 21 11.5 37t29.5 27.5t39.5 17.5t42.5 6h70zM391 490l-77 147h-88l-129 -147h95l69 84l40 -84h90z" />
    <glyph glyph-name="adieresis" unicode="&#xe4;" horiz-adv-x="441" 
d="M380 276q14 82 -23 117t-128 35q-17 0 -37.5 -2t-41 -5.5t-40.5 -9.5t-36 -15l20 -68q56 23 132 23q46 0 58.5 -16.5t5.5 -54.5h-74q-41 0 -81 -11t-72.5 -33.5t-52.5 -55.5t-20 -78q0 -52 32 -83t92 -31q38 0 72.5 16.5t61.5 42.5l-8 -47h91zM276 206l-12 -66
q-9 -12 -23.5 -25t-32 -24t-36.5 -18t-36 -7q-20 0 -36.5 11t-16.5 41q0 21 11.5 37t29.5 27.5t39.5 17.5t42.5 6h70zM391 601h-91l-20 -111h91zM232 601h-91l-20 -111h91z" />
    <glyph glyph-name="atilde" unicode="&#xe3;" horiz-adv-x="441" 
d="M380 276q14 82 -23 117t-128 35q-17 0 -37.5 -2t-41 -5.5t-40.5 -9.5t-36 -15l20 -68q56 23 132 23q46 0 58.5 -16.5t5.5 -54.5h-74q-41 0 -81 -11t-72.5 -33.5t-52.5 -55.5t-20 -78q0 -52 32 -83t92 -31q38 0 72.5 16.5t61.5 42.5l-8 -47h91zM276 206l-12 -66
q-9 -12 -23.5 -25t-32 -24t-36.5 -18t-36 -7q-20 0 -36.5 11t-16.5 41q0 21 11.5 37t29.5 27.5t39.5 17.5t42.5 6h70zM412 607h-74q-5 -46 -28 -46q-12 0 -22 6t-21 14q-13 8 -31 18t-35 10q-26 0 -45 -9t-32 -25t-21 -38t-11 -47h74q2 21 9.5 33.5t18.5 12.5q12 0 22 -6
t21 -14q12 -8 30 -18t36 -10q49 0 75.5 34.5t33.5 84.5z" />
    <glyph glyph-name="aring" unicode="&#xe5;" horiz-adv-x="441" 
d="M380 276q14 82 -23 117t-128 35q-17 0 -37.5 -2t-41 -5.5t-40.5 -9.5t-36 -15l20 -68q56 23 132 23q46 0 58.5 -16.5t5.5 -54.5h-74q-41 0 -81 -11t-72.5 -33.5t-52.5 -55.5t-20 -78q0 -52 32 -83t92 -31q38 0 72.5 16.5t61.5 42.5l-8 -47h91zM276 206l-12 -66
q-9 -12 -23.5 -25t-32 -24t-36.5 -18t-36 -7q-20 0 -36.5 11t-16.5 41q0 21 11.5 37t29.5 27.5t39.5 17.5t42.5 6h70zM371 599q0 24 -9 44.5t-24 35.5t-35.5 24t-44.5 9t-44.5 -9t-35.5 -24t-24 -35.5t-9 -44.5t9 -44.5t24 -35.5t35.5 -24t44.5 -9t44.5 9t35.5 24t24 35.5
t9 44.5zM312 599q0 -23 -15.5 -38.5t-38.5 -15.5t-38.5 15.5t-15.5 38.5t15.5 38.5t38.5 15.5t38.5 -15.5t15.5 -38.5z" />
    <glyph glyph-name="ccedilla" unicode="&#xe7;" horiz-adv-x="400" 
d="M363 385q-17 18 -49.5 30.5t-81.5 12.5q-53 0 -96 -23t-73.5 -60.5t-47.5 -84.5t-17 -95q0 -32 9 -60t25.5 -50.5t39.5 -38.5t51 -23l-41 -57l17 -22q10 3 16.5 4t17.5 1q14 0 22.5 -7.5t8.5 -18.5q0 -13 -12.5 -21t-26.5 -8q-20 0 -35 5.5t-28 15.5l-28 -32
q19 -14 42.5 -23t50.5 -9q22 0 42 5t35 14.5t24 24.5t9 36q0 23 -19.5 39.5t-54.5 16.5l22 32q51 5 87 25.5t63 48.5l-53 60q-22 -23 -48.5 -37t-56.5 -14q-43 0 -64.5 30t-21.5 75q0 33 10.5 63t28 53.5t41 37.5t49.5 14q31 0 50.5 -7t36.5 -22z" />
    <glyph glyph-name="eacute" unicode="&#xe9;" horiz-adv-x="438" 
d="M380 273q0 33 -12.5 61.5t-34 49t-50.5 32.5t-61 12q-52 0 -93.5 -22.5t-70.5 -58.5t-44.5 -81t-15.5 -91q0 -48 13.5 -83t37 -58t56 -34.5t70.5 -11.5q63 0 108.5 23t76.5 54l-47 57q-23 -22 -59 -38t-75 -16q-43 0 -68.5 29t-25.5 85v13h286q5 16 7 37t2 41zM295 259
h-195q15 39 45 65.5t72 26.5q25 0 40.5 -9t24.5 -22.5t11.5 -29.5t1.5 -31zM390 637h-99l-119 -147h99z" />
    <glyph glyph-name="egrave" unicode="&#xe8;" horiz-adv-x="438" 
d="M380 273q0 33 -12.5 61.5t-34 49t-50.5 32.5t-61 12q-52 0 -93.5 -22.5t-70.5 -58.5t-44.5 -81t-15.5 -91q0 -48 13.5 -83t37 -58t56 -34.5t70.5 -11.5q63 0 108.5 23t76.5 54l-47 57q-23 -22 -59 -38t-75 -16q-43 0 -68.5 29t-25.5 85v13h286q5 16 7 37t2 41zM295 259
h-195q15 39 45 65.5t72 26.5q25 0 40.5 -9t24.5 -22.5t11.5 -29.5t1.5 -31zM280 490l-67 147h-89l67 -147h89z" />
    <glyph glyph-name="ecircumflex" unicode="&#xea;" horiz-adv-x="438" 
d="M380 273q0 33 -12.5 61.5t-34 49t-50.5 32.5t-61 12q-52 0 -93.5 -22.5t-70.5 -58.5t-44.5 -81t-15.5 -91q0 -48 13.5 -83t37 -58t56 -34.5t70.5 -11.5q63 0 108.5 23t76.5 54l-47 57q-23 -22 -59 -38t-75 -16q-43 0 -68.5 29t-25.5 85v13h286q5 16 7 37t2 41zM295 259
h-195q15 39 45 65.5t72 26.5q25 0 40.5 -9t24.5 -22.5t11.5 -29.5t1.5 -31zM376 483l-77 147h-88l-129 -147h95l69 84l40 -84h90z" />
    <glyph glyph-name="edieresis" unicode="&#xeb;" horiz-adv-x="438" 
d="M380 273q0 33 -12.5 61.5t-34 49t-50.5 32.5t-61 12q-52 0 -93.5 -22.5t-70.5 -58.5t-44.5 -81t-15.5 -91q0 -48 13.5 -83t37 -58t56 -34.5t70.5 -11.5q63 0 108.5 23t76.5 54l-47 57q-23 -22 -59 -38t-75 -16q-43 0 -68.5 29t-25.5 85v13h286q5 16 7 37t2 41zM295 259
h-195q15 39 45 65.5t72 26.5q25 0 40.5 -9t24.5 -22.5t11.5 -29.5t1.5 -31zM378 601h-91l-20 -111h91zM219 601h-91l-20 -111h91z" />
    <glyph glyph-name="iacute" unicode="&#xed;" horiz-adv-x="194" 
d="M151 416h-91l-73 -416h91zM287 637h-99l-119 -147h99z" />
    <glyph glyph-name="igrave" unicode="&#xec;" horiz-adv-x="194" 
d="M151 416h-91l-73 -416h91zM161 490l-67 147h-89l67 -147h89z" />
    <glyph glyph-name="icircumflex" unicode="&#xee;" horiz-adv-x="194" 
d="M151 416h-91l-73 -416h91zM263 490l-77 147h-88l-129 -147h95l69 84l40 -84h90z" />
    <glyph glyph-name="idieresis" unicode="&#xef;" horiz-adv-x="194" 
d="M151 416h-91l-73 -416h91zM266 601h-91l-20 -111h91zM107 601h-91l-20 -111h91z" />
    <glyph glyph-name="ntilde" unicode="&#xf1;" horiz-adv-x="464" 
d="M400 259q7 43 1 74.5t-22 52.5t-41 31.5t-55 10.5q-24 0 -44.5 -6.5t-38 -17t-32 -23.5t-25.5 -26l10 61h-92l-73 -416h91l36 202q5 28 18.5 54t32 46t40.5 31.5t44 11.5q31 0 48.5 -22t9.5 -70l-46 -253h92zM409 607h-74q-5 -46 -28 -46q-12 0 -22 6t-21 14
q-13 8 -31 18t-35 10q-26 0 -45 -9t-32 -25t-21 -38t-11 -47h74q2 21 9.5 33.5t18.5 12.5q12 0 22 -6t21 -14q12 -8 30 -18t36 -10q49 0 75.5 34.5t33.5 84.5z" />
    <glyph glyph-name="oacute" unicode="&#xf3;" horiz-adv-x="448" 
d="M403 257q0 34 -12 65.5t-34.5 54.5t-53.5 37t-68 14q-54 0 -98 -23.5t-75 -61t-47.5 -84.5t-16.5 -94q0 -37 12 -69t34 -56t53.5 -38t69.5 -14q50 0 93 20t75 55.5t50 85t18 108.5zM309 242q0 -32 -8.5 -62.5t-25 -54.5t-41 -38.5t-55.5 -14.5q-43 0 -65.5 28.5
t-22.5 76.5q0 35 11 65.5t29 53t41.5 35.5t49.5 13q41 0 64 -25.5t23 -76.5zM393 637h-99l-119 -147h99z" />
    <glyph glyph-name="ograve" unicode="&#xf2;" horiz-adv-x="448" 
d="M403 257q0 34 -12 65.5t-34.5 54.5t-53.5 37t-68 14q-54 0 -98 -23.5t-75 -61t-47.5 -84.5t-16.5 -94q0 -37 12 -69t34 -56t53.5 -38t69.5 -14q50 0 93 20t75 55.5t50 85t18 108.5zM309 242q0 -32 -8.5 -62.5t-25 -54.5t-41 -38.5t-55.5 -14.5q-43 0 -65.5 28.5
t-22.5 76.5q0 35 11 65.5t29 53t41.5 35.5t49.5 13q41 0 64 -25.5t23 -76.5zM275 490l-67 147h-89l67 -147h89z" />
    <glyph glyph-name="ocircumflex" unicode="&#xf4;" horiz-adv-x="448" 
d="M403 257q0 34 -12 65.5t-34.5 54.5t-53.5 37t-68 14q-54 0 -98 -23.5t-75 -61t-47.5 -84.5t-16.5 -94q0 -37 12 -69t34 -56t53.5 -38t69.5 -14q50 0 93 20t75 55.5t50 85t18 108.5zM309 242q0 -32 -8.5 -62.5t-25 -54.5t-41 -38.5t-55.5 -14.5q-43 0 -65.5 28.5
t-22.5 76.5q0 35 11 65.5t29 53t41.5 35.5t49.5 13q41 0 64 -25.5t23 -76.5zM384 483l-77 147h-88l-129 -147h95l69 84l40 -84h90z" />
    <glyph glyph-name="odieresis" unicode="&#xf6;" horiz-adv-x="448" 
d="M403 257q0 34 -12 65.5t-34.5 54.5t-53.5 37t-68 14q-54 0 -98 -23.5t-75 -61t-47.5 -84.5t-16.5 -94q0 -37 12 -69t34 -56t53.5 -38t69.5 -14q50 0 93 20t75 55.5t50 85t18 108.5zM309 242q0 -32 -8.5 -62.5t-25 -54.5t-41 -38.5t-55.5 -14.5q-43 0 -65.5 28.5
t-22.5 76.5q0 35 11 65.5t29 53t41.5 35.5t49.5 13q41 0 64 -25.5t23 -76.5zM382 601h-91l-20 -111h91zM223 601h-91l-20 -111h91z" />
    <glyph glyph-name="otilde" unicode="&#xf5;" horiz-adv-x="448" 
d="M403 257q0 34 -12 65.5t-34.5 54.5t-53.5 37t-68 14q-54 0 -98 -23.5t-75 -61t-47.5 -84.5t-16.5 -94q0 -37 12 -69t34 -56t53.5 -38t69.5 -14q50 0 93 20t75 55.5t50 85t18 108.5zM309 242q0 -32 -8.5 -62.5t-25 -54.5t-41 -38.5t-55.5 -14.5q-43 0 -65.5 28.5
t-22.5 76.5q0 35 11 65.5t29 53t41.5 35.5t49.5 13q41 0 64 -25.5t23 -76.5zM412 607h-74q-5 -46 -28 -46q-12 0 -22 6t-21 14q-13 8 -31 18t-35 10q-26 0 -45 -9t-32 -25t-21 -38t-11 -47h74q2 21 9.5 33.5t18.5 12.5q12 0 22 -6t21 -14q12 -8 30 -18t36 -10
q49 0 75.5 34.5t33.5 84.5z" />
    <glyph glyph-name="uacute" unicode="&#xfa;" horiz-adv-x="464" 
d="M416 416h-91l-36 -202q-5 -29 -18.5 -54.5t-32 -45.5t-40.5 -31.5t-44 -11.5q-31 0 -48.5 22t-9.5 70l46 253h-92l-46 -259q-8 -43 -1.5 -74.5t22.5 -52.5t41 -31.5t55 -10.5q24 0 44.5 6.5t38 17t32 23.5t25.5 26l-10 -61h92zM392 637h-99l-119 -147h99z" />
    <glyph glyph-name="ugrave" unicode="&#xf9;" horiz-adv-x="464" 
d="M416 416h-91l-36 -202q-5 -29 -18.5 -54.5t-32 -45.5t-40.5 -31.5t-44 -11.5q-31 0 -48.5 22t-9.5 70l46 253h-92l-46 -259q-8 -43 -1.5 -74.5t22.5 -52.5t41 -31.5t55 -10.5q24 0 44.5 6.5t38 17t32 23.5t25.5 26l-10 -61h92zM287 490l-67 147h-89l67 -147h89z" />
    <glyph glyph-name="ucircumflex" unicode="&#xfb;" horiz-adv-x="464" 
d="M416 416h-91l-36 -202q-5 -29 -18.5 -54.5t-32 -45.5t-40.5 -31.5t-44 -11.5q-31 0 -48.5 22t-9.5 70l46 253h-92l-46 -259q-8 -43 -1.5 -74.5t22.5 -52.5t41 -31.5t55 -10.5q24 0 44.5 6.5t38 17t32 23.5t25.5 26l-10 -61h92zM383 490l-77 147h-88l-129 -147h95l69 84
l40 -84h90z" />
    <glyph glyph-name="udieresis" unicode="&#xfc;" horiz-adv-x="464" 
d="M416 416h-91l-36 -202q-5 -29 -18.5 -54.5t-32 -45.5t-40.5 -31.5t-44 -11.5q-31 0 -48.5 22t-9.5 70l46 253h-92l-46 -259q-8 -43 -1.5 -74.5t22.5 -52.5t41 -31.5t55 -10.5q24 0 44.5 6.5t38 17t32 23.5t25.5 26l-10 -61h92zM380 601h-91l-20 -111h91zM221 601h-91
l-20 -111h91z" />
    <glyph glyph-name="degree" unicode="&#xb0;" horiz-adv-x="424" 
d="M432 554q0 39 -15 73t-40.5 59.5t-59.5 40.5t-73 15t-73.5 -15t-60 -40.5t-40 -59.5t-14.5 -73t14.5 -73.5t40 -60t60 -40t73.5 -14.5t73 14.5t59.5 40t40.5 60t15 73.5zM351 554q0 -22 -8.5 -41.5t-23 -34t-34 -23t-41.5 -8.5t-41.5 8.5t-34 23t-23 34t-8.5 41.5
t8.5 41.5t23 34t34 23t41.5 8.5t41.5 -8.5t34 -23t23 -34t8.5 -41.5z" />
    <glyph glyph-name="registered" unicode="&#xae;" horiz-adv-x="844" 
d="M799 365q0 78 -29.5 146.5t-81 120t-120 81t-146.5 29.5t-146.5 -29.5t-120 -81t-81 -120t-29.5 -146.5t29.5 -146.5t81 -120t120 -81t146.5 -29.5t146.5 29.5t120 81t81 120t29.5 146.5zM745 364q0 -67 -25.5 -125.5t-69.5 -102t-102.5 -69t-125.5 -25.5t-125.5 25.5
t-102.5 69t-69.5 102t-25.5 125.5t25.5 125.5t69.5 102.5t102.5 69.5t125.5 25.5t125.5 -25.5t102.5 -69.5t69.5 -102.5t25.5 -125.5zM609 155l-161 184q24 0 46.5 9.5t40 26.5t27.5 40t10 49q0 27 -9.5 50.5t-27.5 41t-43 27.5t-55 10h-147v-438h65v200l172 -200h82z
M505 466q0 -36 -22.5 -56t-57.5 -20h-70v142h78q16 0 29.5 -6t23 -15.5t14.5 -21.5t5 -23z" />
    <glyph glyph-name="copyright" unicode="&#xa9;" horiz-adv-x="844" 
d="M799 365q0 78 -29.5 146.5t-81 120t-120 81t-146.5 29.5t-146.5 -29.5t-120 -81t-81 -120t-29.5 -146.5t29.5 -146.5t81 -120t120 -81t146.5 -29.5t146.5 29.5t120 81t81 120t29.5 146.5zM745 364q0 -67 -25.5 -125.5t-69.5 -102t-102.5 -69t-125.5 -25.5t-125.5 25.5
t-102.5 69t-69.5 102t-25.5 125.5t25.5 125.5t69.5 102.5t102.5 69.5t125.5 25.5t125.5 -25.5t102.5 -69.5t69.5 -102.5t25.5 -125.5zM597 223l-46 40q-28 -31 -61 -44.5t-65 -13.5q-25 0 -51.5 10.5t-48 31.5t-35.5 53t-14 75q0 33 12 61.5t32 49.5t47.5 32.5t59.5 11.5
q36 0 63.5 -12t50.5 -35l47 42q-26 32 -64 50.5t-98 18.5q-47 0 -87 -18t-69 -48t-45 -69.5t-16 -83.5q0 -56 18.5 -99.5t49 -73.5t69 -45.5t78.5 -15.5q58 0 102.5 23.5t70.5 58.5z" />
    <glyph glyph-name="trademark" unicode="&#x2122;" horiz-adv-x="819" 
d="M771 292v438h-58l-160 -214l-165 214h-55v-438h64v328l144 -187h24l142 193v-334h64zM274 672v58h-242v-58h87v-380h64v380h91z" />
    <glyph glyph-name="notequal" unicode="&#x2260;" horiz-adv-x="490" 
d="M544 723q-13 6 -29 8t-40 2q-22 0 -42.5 -8t-38.5 -25.5t-31.5 -45.5t-20.5 -68l-30 -170h-148l24 135q10 54 23.5 77.5t36.5 23.5q14 0 22.5 -2l16.5 -4l18 77q-13 6 -29 8t-40 2q-22 0 -42.5 -8t-38.5 -25.5t-31.5 -45.5t-20.5 -68l-30 -170h-50l-14 -84h50l-90 -511
h91l90 511h148l-90 -511h91l90 511h79l14 84h-79l24 135q10 54 23.5 77.5t36.5 23.5q14 0 23 -2t16 -4z" />
    <glyph glyph-name="infinity" unicode="&#x221e;" horiz-adv-x="685" 
d="M678 626h-91l-20 -115h91zM544 723q-13 6 -29 8t-40 2q-22 0 -42.5 -8t-38.5 -25.5t-31.5 -45.5t-20.5 -68l-30 -170h-148l24 135q10 54 23.5 77.5t36.5 23.5q14 0 22.5 -2l16.5 -4l18 77q-13 6 -29 8t-40 2q-22 0 -42.5 -8t-38.5 -25.5t-31.5 -45.5t-20.5 -68l-30 -170
h-50l-14 -84h50l-90 -511h91l90 511h148l-90 -511h91l90 511h79l14 84h-79l24 135q10 54 23.5 77.5t36.5 23.5q14 0 23 -2t16 -4zM641 416h-91l-73 -416h91z" />
    <glyph glyph-name="plusminus" unicode="&#xb1;" horiz-adv-x="684" 
d="M697 730h-91l-129 -730h91zM544 723q-13 6 -29 8t-40 2q-22 0 -42.5 -8t-38.5 -25.5t-31.5 -45.5t-20.5 -68l-30 -170h-148l24 135q10 54 23.5 77.5t36.5 23.5q14 0 22.5 -2l16.5 -4l18 77q-13 6 -29 8t-40 2q-22 0 -42.5 -8t-38.5 -25.5t-31.5 -45.5t-20.5 -68l-30 -170
h-50l-14 -84h50l-90 -511h91l90 511h148l-90 -511h91l90 511h79l14 84h-79l24 135q10 54 23.5 77.5t36.5 23.5q14 0 23 -2t16 -4z" />
    <glyph glyph-name="lessequal" unicode="&#x2264;" horiz-adv-x="730" 
d="M448 648v82h-166v-82h166zM730 282v166h-82v-166h82zM448 282v166h-166v-166h166zM82 282v166h-82v-166h82zM448 0v82h-166v-82h166z" />
    <glyph glyph-name="greaterequal" unicode="&#x2265;" horiz-adv-x="730" 
d="M448 648v82h-166v-82h166zM730 282v166h-82v-166h82zM448 282v166h-166v-166h166zM82 282v166h-82v-166h82zM448 0v82h-166v-82h166z" />
    <glyph glyph-name="mu" unicode="&#xb5;" horiz-adv-x="730" 
d="M448 648v82h-166v-82h166zM730 282v166h-82v-166h82zM448 282v166h-166v-166h166zM82 282v166h-82v-166h82zM448 0v82h-166v-82h166z" />
    <glyph glyph-name="mu" unicode="&#x3bc;" horiz-adv-x="730" 
d="M448 648v82h-166v-82h166zM730 282v166h-82v-166h82zM448 282v166h-166v-166h166zM82 282v166h-82v-166h82zM448 0v82h-166v-82h166z" />
    <glyph glyph-name="partialdiff" unicode="&#x2202;" horiz-adv-x="730" 
d="M448 648v82h-166v-82h166zM730 282v166h-82v-166h82zM448 282v166h-166v-166h166zM82 282v166h-82v-166h82zM448 0v82h-166v-82h166z" />
    <glyph glyph-name="summation" unicode="&#x2211;" horiz-adv-x="730" 
d="M448 648v82h-166v-82h166zM730 282v166h-82v-166h82zM448 282v166h-166v-166h166zM82 282v166h-82v-166h82zM448 0v82h-166v-82h166z" />
    <glyph glyph-name="product" unicode="&#x220f;" horiz-adv-x="730" 
d="M448 648v82h-166v-82h166zM730 282v166h-82v-166h82zM448 282v166h-166v-166h166zM82 282v166h-82v-166h82zM448 0v82h-166v-82h166z" />
    <glyph glyph-name="pi" unicode="&#x3c0;" horiz-adv-x="844" 
d="M799 365q0 78 -29.5 146.5t-81 120t-120 81t-146.5 29.5t-146.5 -29.5t-120 -81t-81 -120t-29.5 -146.5t29.5 -146.5t81 -120t120 -81t146.5 -29.5t146.5 29.5t120 81t81 120t29.5 146.5zM745 364q0 -67 -25.5 -125.5t-69.5 -102t-102.5 -69t-125.5 -25.5t-125.5 25.5
t-102.5 69t-69.5 102t-25.5 125.5t25.5 125.5t69.5 102.5t102.5 69.5t125.5 25.5t125.5 -25.5t102.5 -69.5t69.5 -102.5t25.5 -125.5zM586 449q0 28 -10 53t-28.5 43t-45 28.5t-59.5 10.5h-137v-438h65v167h83q27 0 51 10.5t42 29t28.5 43t10.5 53.5zM519 453q0 -38 -20 -58
t-62 -20h-66v148h63q42 0 63.5 -19t21.5 -51z" />
    <glyph glyph-name="integral" unicode="&#x222b;" horiz-adv-x="730" 
d="M448 648v82h-166v-82h166zM730 282v166h-82v-166h82zM448 282v166h-166v-166h166zM82 282v166h-82v-166h82zM448 0v82h-166v-82h166z" />
    <glyph glyph-name="Omega" unicode="&#x2126;" horiz-adv-x="477" 
d="M435 416h-91l-7 -40q-14 18 -41.5 35t-72.5 17q-47 0 -88 -23.5t-71 -60.5t-47.5 -82t-17.5 -88q0 -46 12 -80.5t32 -58t46.5 -35.5t55.5 -12q48 0 81 22.5t54 50.5l-10 -61h92zM320 283l-12 -69q-5 -29 -18.5 -54.5t-32 -45.5t-40.5 -31.5t-44 -11.5q-36 0 -58.5 23.5
t-22.5 80.5q0 35 11 65.5t29 53.5t41.5 36.5t49.5 13.5q36 0 61.5 -18t35.5 -43z" />
    <glyph glyph-name="logicalnot" unicode="&#xac;" horiz-adv-x="730" 
d="M448 648v82h-166v-82h166zM730 282v166h-82v-166h82zM448 282v166h-166v-166h166zM82 282v166h-82v-166h82zM448 0v82h-166v-82h166z" />
    <glyph glyph-name="radical" unicode="&#x221a;" horiz-adv-x="490" 
d="M537 730h-97l-285 -588l-55 174h-101l111 -316h62z" />
    <glyph glyph-name="approxequal" unicode="&#x2248;" horiz-adv-x="730" 
d="M448 648v82h-166v-82h166zM730 282v166h-82v-166h82zM448 282v166h-166v-166h166zM82 282v166h-82v-166h82zM448 0v82h-166v-82h166z" />
    <glyph glyph-name="Delta" unicode="&#x2206;" horiz-adv-x="730" 
d="M448 648v82h-166v-82h166zM730 282v166h-82v-166h82zM448 282v166h-166v-166h166zM82 282v166h-82v-166h82zM448 0v82h-166v-82h166z" />
    <glyph glyph-name="nonbreakingspace" unicode="&#xa0;" horiz-adv-x="75" 
 />
    <glyph glyph-name="Agrave" unicode="&#xc0;" horiz-adv-x="664" 
d="M570 0l-143 730h-64l-399 -730h103l130 236h225l44 -236h104zM405 326h-159l110 218l6.5 15.5l4.5 10.5l1 -11.5t2 -16.5zM444 788l-67 147h-89l67 -147h89z" />
    <glyph glyph-name="Atilde" unicode="&#xc3;" horiz-adv-x="664" 
d="M570 0l-143 730h-64l-399 -730h103l130 236h225l44 -236h104zM405 326h-159l110 218l6.5 15.5l4.5 10.5l1 -11.5t2 -16.5zM569 905h-74q-5 -46 -28 -46q-12 0 -22 6t-21 14q-13 8 -31 18t-35 10q-26 0 -45 -9t-32 -25t-21 -38t-11 -47h74q2 21 9.5 33.5t18.5 12.5
q12 0 22 -6t21 -14q12 -8 30 -18t36 -10q49 0 75.5 34.5t33.5 84.5z" />
    <glyph glyph-name="Otilde" unicode="&#xd5;" horiz-adv-x="806" 
d="M770 444q0 61 -19 115.5t-56.5 95t-93 64t-127.5 23.5q-79 0 -157.5 -30.5t-140.5 -88t-101 -142t-39 -192.5q0 -68 22 -123t62 -95t96 -61.5t125 -21.5q77 0 154 33t138 93t99 144t38 186zM670 425q0 -66 -24.5 -127.5t-67 -109.5t-99 -77t-119.5 -29q-55 0 -97 16.5
t-70 47t-42 73.5t-14 96q0 58 22 117.5t62.5 107.5t98 78t129.5 30q58 0 100 -16.5t69 -46.5t39.5 -71t12.5 -89zM662 905h-74q-5 -46 -28 -46q-12 0 -22 6t-21 14q-13 8 -31 18t-35 10q-26 0 -45 -9t-32 -25t-21 -38t-11 -47h74q2 21 9.5 33.5t18.5 12.5q12 0 22 -6t21 -14
q12 -8 30 -18t36 -10q49 0 75.5 34.5t33.5 84.5z" />
    <glyph glyph-name="divide" unicode="&#xf7;" horiz-adv-x="730" 
d="M448 648v82h-166v-82h166zM730 282v166h-82v-166h82zM448 282v166h-166v-166h166zM82 282v166h-82v-166h82zM448 0v82h-166v-82h166z" />
    <glyph glyph-name="lozenge" unicode="&#x25ca;" horiz-adv-x="730" 
d="M448 648v82h-166v-82h166zM730 282v166h-82v-166h82zM448 282v166h-166v-166h166zM82 282v166h-82v-166h82zM448 0v82h-166v-82h166z" />
    <glyph glyph-name="ydieresis" unicode="&#xff;" horiz-adv-x="392" 
d="M389 416h-100l-123 -280q-5 -11 -9.5 -23.5l-4.5 -12.5l-1 12.5t-3 23.5l-45 280h-94l72 -429q-20 -45 -41.5 -64.5t-57.5 -19.5q-10 0 -20.5 2.5t-19.5 6.5l-14 -82q18 -6 32.5 -7.5t32.5 -1.5q31 0 57 13t47 33.5t36 44t26 44.5zM348 601h-91l-20 -111h91zM189 601h-91
l-20 -111h91z" />
    <glyph glyph-name="Ydieresis" unicode="&#x178;" horiz-adv-x="593" 
d="M652 730h-114l-215 -272q-7 -8 -13.5 -18l-6.5 -10l-4 11t-8 19l-117 270h-107l174 -391l-60 -339h96l60 339zM501 889h-91l-20 -111h91zM342 889h-91l-20 -111h91z" />
    <glyph glyph-name="Acircumflex" unicode="&#xc2;" horiz-adv-x="664" 
d="M570 0l-143 730h-64l-399 -730h103l130 236h225l44 -236h104zM405 326h-159l110 218l6.5 15.5l4.5 10.5l1 -11.5t2 -16.5zM545 778l-77 147h-88l-129 -147h95l69 84l40 -84h90z" />
    <glyph glyph-name="Ecircumflex" unicode="&#xca;" horiz-adv-x="521" 
d="M519 730h-388l-129 -730h407l16 90h-311l39 223h285l16 90h-285l42 237h292zM476 788l-77 147h-88l-129 -147h95l69 84l40 -84h90z" />
    <glyph glyph-name="Aacute" unicode="&#xc1;" horiz-adv-x="664" 
d="M570 0l-143 730h-64l-399 -730h103l130 236h225l44 -236h104zM405 326h-159l110 218l6.5 15.5l4.5 10.5l1 -11.5t2 -16.5zM566 935h-99l-119 -147h99z" />
    <glyph glyph-name="Edieresis" unicode="&#xcb;" horiz-adv-x="521" 
d="M519 730h-388l-129 -730h407l16 90h-311l39 223h285l16 90h-285l42 237h292zM475 899h-91l-20 -111h91zM316 899h-91l-20 -111h91z" />
    <glyph glyph-name="Egrave" unicode="&#xc8;" horiz-adv-x="521" 
d="M519 730h-388l-129 -730h407l16 90h-311l39 223h285l16 90h-285l42 237h292zM377 788l-67 147h-89l67 -147h89z" />
    <glyph glyph-name="Iacute" unicode="&#xcd;" horiz-adv-x="229" 
d="M227 730h-96l-129 -730h96zM354 935h-99l-119 -147h99z" />
    <glyph glyph-name="Icircumflex" unicode="&#xce;" horiz-adv-x="229" 
d="M227 730h-96l-129 -730h96zM331 788l-77 147h-88l-129 -147h95l69 84l40 -84h90z" />
    <glyph glyph-name="Idieresis" unicode="&#xcf;" horiz-adv-x="229" 
d="M227 730h-96l-129 -730h96zM330 899h-91l-20 -111h91zM171 899h-91l-20 -111h91z" />
    <glyph glyph-name="Igrave" unicode="&#xcc;" horiz-adv-x="229" 
d="M227 730h-96l-129 -730h96zM228 788l-67 147h-89l67 -147h89z" />
    <glyph glyph-name="Oacute" unicode="&#xd3;" horiz-adv-x="806" 
d="M770 444q0 61 -19 115.5t-56.5 95t-93 64t-127.5 23.5q-79 0 -157.5 -30.5t-140.5 -88t-101 -142t-39 -192.5q0 -68 22 -123t62 -95t96 -61.5t125 -21.5q77 0 154 33t138 93t99 144t38 186zM670 425q0 -66 -24.5 -127.5t-67 -109.5t-99 -77t-119.5 -29q-55 0 -97 16.5
t-70 47t-42 73.5t-14 96q0 58 22 117.5t62.5 107.5t98 78t129.5 30q58 0 100 -16.5t69 -46.5t39.5 -71t12.5 -89zM631 935h-99l-119 -147h99z" />
    <glyph glyph-name="Ocircumflex" unicode="&#xd4;" horiz-adv-x="806" 
d="M770 444q0 61 -19 115.5t-56.5 95t-93 64t-127.5 23.5q-79 0 -157.5 -30.5t-140.5 -88t-101 -142t-39 -192.5q0 -68 22 -123t62 -95t96 -61.5t125 -21.5q77 0 154 33t138 93t99 144t38 186zM670 425q0 -66 -24.5 -127.5t-67 -109.5t-99 -77t-119.5 -29q-55 0 -97 16.5
t-70 47t-42 73.5t-14 96q0 58 22 117.5t62.5 107.5t98 78t129.5 30q58 0 100 -16.5t69 -46.5t39.5 -71t12.5 -89zM627 788l-77 147h-88l-129 -147h95l69 84l40 -84h90z" />
    <glyph glyph-name="apple" unicode="&#xf8ff;" horiz-adv-x="730" 
d="M448 648v82h-166v-82h166zM730 282v166h-82v-166h82zM448 282v166h-166v-166h166zM82 282v166h-82v-166h82zM448 0v82h-166v-82h166z" />
    <glyph glyph-name="Ograve" unicode="&#xd2;" horiz-adv-x="806" 
d="M770 444q0 61 -19 115.5t-56.5 95t-93 64t-127.5 23.5q-79 0 -157.5 -30.5t-140.5 -88t-101 -142t-39 -192.5q0 -68 22 -123t62 -95t96 -61.5t125 -21.5q77 0 154 33t138 93t99 144t38 186zM670 425q0 -66 -24.5 -127.5t-67 -109.5t-99 -77t-119.5 -29q-55 0 -97 16.5
t-70 47t-42 73.5t-14 96q0 58 22 117.5t62.5 107.5t98 78t129.5 30q58 0 100 -16.5t69 -46.5t39.5 -71t12.5 -89zM519 788l-67 147h-89l67 -147h89z" />
    <glyph glyph-name="Uacute" unicode="&#xda;" horiz-adv-x="679" 
d="M678 730h-95l-76 -434q-9 -53 -30 -94t-49 -68.5t-61.5 -41.5t-69.5 -14q-38 0 -70 13t-52.5 40t-28.5 68t2 97l76 434h-97l-76 -434q-12 -68 -1 -124.5t41 -97t78.5 -63.5t111.5 -23q62 0 115.5 22t95 62.5t70 97t40.5 126.5zM561 925h-99l-119 -147h99z" />
    <glyph glyph-name="Ucircumflex" unicode="&#xdb;" horiz-adv-x="679" 
d="M678 730h-95l-76 -434q-9 -53 -30 -94t-49 -68.5t-61.5 -41.5t-69.5 -14q-38 0 -70 13t-52.5 40t-28.5 68t2 97l76 434h-97l-76 -434q-12 -68 -1 -124.5t41 -97t78.5 -63.5t111.5 -23q62 0 115.5 22t95 62.5t70 97t40.5 126.5zM553 778l-77 147h-88l-129 -147h95l69 84
l40 -84h90z" />
    <glyph glyph-name="Ugrave" unicode="&#xd9;" horiz-adv-x="679" 
d="M678 730h-95l-76 -434q-9 -53 -30 -94t-49 -68.5t-61.5 -41.5t-69.5 -14q-38 0 -70 13t-52.5 40t-28.5 68t2 97l76 434h-97l-76 -434q-12 -68 -1 -124.5t41 -97t78.5 -63.5t111.5 -23q62 0 115.5 22t95 62.5t70 97t40.5 126.5zM464 778l-67 147h-89l67 -147h89z" />
    <glyph glyph-name="Euro" unicode="&#x20ac;" horiz-adv-x="608" 
d="M198 295h205l7 48h-209q1 9 2 19t3 20h209l7 48h-207q10 45 26.5 85t40 70.5t53 48t67.5 17.5q27 0 47 -8t35 -21.5t26.5 -32t20.5 -40.5l88 42q-26 73 -75.5 112t-137.5 39q-57 0 -104 -23t-84 -64.5t-64 -99t-42 -125.5h-83l-7 -48h81q-2 -10 -3 -19.5l-2 -19.5h-81
l-7 -48h84q-3 -77 11.5 -134.5t43.5 -95.5t71 -57.5t94 -19.5q79 0 136 37.5t104 117.5l-80 43q-29 -47 -66 -76.5t-88 -29.5q-36 0 -60 18t-38.5 47.5t-20 68.5t-3.5 81z" />
    <glyph glyph-name="NUL" horiz-adv-x="0" 
 />
    <glyph glyph-name="Eth" unicode="&#xd0;" horiz-adv-x="684" 
d="M649 448q0 72 -23.5 125t-65.5 88t-100 52t-127 17h-182l-58 -327h-60l-16 -94h60l-55 -309h187q91 0 171 32t140 90.5t94.5 141.5t34.5 184zM549 425q0 -66 -23 -127t-66 -108t-105.5 -75.5t-141.5 -28.5h-78l39 223h175l16 94h-174l43 241h85q118 0 174 -53.5
t56 -165.5z" />
    </font>
</defs>
</svg>
