<?xml version="1.0" standalone="no"?>
<!DOCTYPE svg PUBLIC "-//W3C//DTD SVG 1.1//EN" "http://www.w3.org/Graphics/SVG/1.1/DTD/svg11.dtd" >
<svg>
<metadata>
Created by FontForge 20090622 at Fri Oct 23 17:18:44 2015
 By deploy user
Copyright &#194;&#169; 2003, The Font Bureau, Inc. All rights reserved.
</metadata>
<defs>
<font id="Nobel-LightItalic" horiz-adv-x="730" >
  <font-face 
    font-family="Nobel-LightItalic"
    font-weight="400"
    font-style="italic"
    font-stretch="normal"
    units-per-em="1000"
    panose-1="2 0 5 6 3 0 0 2 0 4"
    ascent="800"
    descent="-200"
    x-height="401"
    cap-height="730"
    bbox="-109 -195 1154 926"
    underline-thickness="20"
    underline-position="-123"
    unicode-range="U+0020-U+FB02"
  />
<missing-glyph horiz-adv-x="500" 
 />
    <glyph glyph-name=".notdef" horiz-adv-x="500" 
 />
    <glyph glyph-name=".null" horiz-adv-x="0" 
 />
    <glyph glyph-name="nonmarkingreturn" horiz-adv-x="500" 
 />
    <glyph glyph-name="space" unicode=" " horiz-adv-x="195" 
 />
    <glyph glyph-name="exclam" unicode="!" horiz-adv-x="189" 
d="M181 730h-45l-76 -430l-20 -171h25l40 171zM67 84h-45l-15 -84h45z" />
    <glyph glyph-name="quotedbl" unicode="&#x22;" horiz-adv-x="280" 
d="M284 730h-45l-16 -87l-5 -90h25l25 90zM169 730h-45l-16 -87l-5 -90h25l25 90z" />
    <glyph glyph-name="numbersign" unicode="#" horiz-adv-x="586" 
d="M580 506h-118l59 224h-42l-59 -224h-180l59 224h-42l-59 -224h-144l-6 -34h141l-56 -211h-122l-6 -34h119l-60 -227h42l60 227h180l-60 -227h42l60 227h143l6 34h-140l56 211h121zM411 472l-56 -211h-180l56 211h180z" />
    <glyph glyph-name="dollar" unicode="$" horiz-adv-x="482" 
d="M472 644q-52 77 -150 86l10 55h-38l-9 -53q-42 -1 -78 -15t-62.5 -38t-41.5 -57.5t-15 -72.5q0 -32 10 -57.5t28 -47t42 -40t53 -36.5l-58 -327q-42 5 -76 25t-59 48l-35 -30q28 -33 71 -56t92 -28l-12 -69h38l12 68q44 1 83.5 16t69 40.5t47 61.5t17.5 80q0 33 -8.5 59
t-26.5 49t-46 44.5t-66 46.5l51 293q37 -5 66 -21t52 -51zM277 690l-47 -272q-51 35 -72.5 65.5t-21.5 69.5q0 31 11 56t30 42.5t44.5 27t55.5 11.5zM362 190q0 -33 -12.5 -60t-34.5 -46t-51 -30.5t-63 -13.5l54 306q58 -39 82.5 -73.5t24.5 -82.5z" />
    <glyph glyph-name="percent" unicode="%" 
d="M371 601q0 62 -29.5 101.5t-88.5 39.5q-34 0 -65.5 -18.5t-55.5 -50.5t-38.5 -75t-14.5 -92q0 -62 29.5 -101.5t88.5 -39.5q34 0 65.5 18.5t55.5 50.5t38.5 75t14.5 92zM702 730h-49l-626 -730h49zM650 224q0 62 -29.5 101.5t-88.5 39.5q-34 0 -65.5 -18.5t-55.5 -50.5
t-38.5 -75t-14.5 -92q0 -62 29.5 -101.5t88.5 -39.5q34 0 65.5 18.5t55.5 50.5t38.5 75t14.5 92zM327 598q0 -40 -10 -75.5t-27 -62.5t-40 -42.5t-48 -15.5q-38 0 -58.5 29.5t-20.5 77.5q0 40 10 75.5t27 62.5t39.5 42.5t48.5 15.5q38 0 58.5 -29.5t20.5 -77.5zM606 221
q0 -40 -10 -75.5t-27 -62.5t-40 -42.5t-48 -15.5q-38 0 -58.5 29.5t-20.5 77.5q0 40 10 75.5t27 62.5t39.5 42.5t48.5 15.5q38 0 58.5 -29.5t20.5 -77.5z" />
    <glyph glyph-name="ampersand" unicode="&#x26;" horiz-adv-x="630" 
d="M555 201l-25 31l-41 -41.5l-40 -37.5l-170 243q84 48 131.5 98t47.5 115q0 28 -11 52.5t-30 42.5t-46 28t-58 10q-34 0 -64.5 -12.5t-54 -34t-37 -50.5t-13.5 -63q0 -39 11.5 -70.5t35.5 -66.5l28 -41q-198 -107 -198 -249q0 -35 11.5 -65t34 -53t55.5 -36t75 -13
q63 0 121.5 28t118.5 76l64 -92h55l-85 121q21 18 41.5 38zM412 605q0 -51 -41 -95.5t-113 -84.5l-30 43q-17 25 -27.5 54t-10.5 59q0 26 9 48t25 38t37 25t45 9q47 0 76.5 -24.5t29.5 -71.5zM415 124q-56 -45 -107.5 -70t-108.5 -25q-33 0 -57.5 11t-40.5 29t-24 42t-8 50
q0 57 40 109.5t131 103.5z" />
    <glyph glyph-name="quoteright" unicode="&#x2019;" horiz-adv-x="165" 
d="M169 730h-45l-13 -71q-5 -29 -12.5 -54.5t-29.5 -51.5h28q22 21 38.5 51t21.5 57z" />
    <glyph glyph-name="parenleft" unicode="(" horiz-adv-x="293" 
d="M351 772q-74 -48 -135 -111.5t-105 -139.5t-68 -162t-24 -178q0 -104 37.5 -199t122.5 -177l5 27q-32 39 -54.5 84t-36.5 92t-20 94t-6 91q0 84 23 165t62 153t89.5 131.5t104.5 101.5z" />
    <glyph glyph-name="parenright" unicode=")" horiz-adv-x="293" 
d="M246 397q0 104 -37.5 199t-122.5 177l-5 -27q32 -39 54.5 -84t36.5 -92t20 -94t6 -91q0 -84 -23 -165t-62 -153t-89.5 -131.5t-104.5 -101.5l-5 -28q74 48 135 111.5t105 139.5t68 162t24 178z" />
    <glyph glyph-name="asterisk" unicode="*" horiz-adv-x="393" 
d="M387 565l-130 39l83 108l-30 20l-77 -110l-77 111l-29 -22l82 -107l-130 -39l12 -34l129 45l-4 -136h36l-4 136l127 -45z" />
    <glyph glyph-name="plus" unicode="+" horiz-adv-x="502" 
d="M464 350h-194l33 187h-44l-33 -187h-194l-7 -40h194l-33 -185h44l33 185h194z" />
    <glyph glyph-name="comma" unicode="," horiz-adv-x="165" 
d="M55 84h-45l-14 -81q-9 -48 -23 -82.5t-43 -68.5h28q28 26 51 62.5t31 85.5z" />
    <glyph glyph-name="hyphen" unicode="-" horiz-adv-x="330" 
d="M248 246h-210l-7 -40h210z" />
    <glyph glyph-name="hyphen" unicode="&#xad;" horiz-adv-x="330" 
d="M248 246h-210l-7 -40h210z" />
    <glyph glyph-name="period" unicode="." horiz-adv-x="165" 
d="M55 84h-45l-15 -84h45z" />
    <glyph glyph-name="slash" unicode="/" horiz-adv-x="372" 
d="M396 730h-45l-376 -730h45z" />
    <glyph glyph-name="zero" unicode="0" horiz-adv-x="602" 
d="M573 462q0 137 -57.5 208.5t-161.5 71.5q-73 0 -133 -41t-102.5 -108t-66 -152t-23.5 -173q0 -137 57.5 -208.5t161.5 -71.5q73 0 133 41t102.5 108t66 152t23.5 173zM524 462q0 -82 -19.5 -160t-55.5 -138.5t-86 -97.5t-110 -37q-82 0 -128.5 60.5t-46.5 178.5
q0 82 19.5 160t55.5 138.5t86 97.5t110 37q82 0 128.5 -60.5t46.5 -178.5z" />
    <glyph glyph-name="one" unicode="1" horiz-adv-x="258" 
d="M250 730h-39q-11 -22 -29 -42.5t-39 -37t-43.5 -27.5t-43.5 -13l-8 -40q19 3 39 9.5t39 16t35.5 22t28.5 26.5l-114 -644h45z" />
    <glyph glyph-name="two" unicode="2" horiz-adv-x="515" 
d="M498 564q0 39 -14 72t-39 56.5t-59.5 36.5t-75.5 13q-93 0 -155 -51.5t-88 -139.5h46q26 75 72 112t119 37q34 0 61.5 -11t46 -29.5t28.5 -44t10 -54.5q0 -53 -28 -97.5t-80 -95.5l-385 -368h450l8 44h-354l310 296q34 32 58 60t39.5 54t22.5 53t7 57z" />
    <glyph glyph-name="three" unicode="3" horiz-adv-x="548" 
d="M510 585q0 35 -14 64t-39 49.5t-60 31.5t-76 11q-64 0 -117.5 -22.5t-101.5 -72.5l33 -27q33 36 77.5 58t102.5 22q67 0 107 -33t40 -91q0 -35 -14.5 -65t-41.5 -52t-66 -34t-89 -12h-54l-7 -40h51q89 0 138.5 -41.5t49.5 -107.5q0 -42 -14.5 -77.5t-41.5 -61.5
t-65 -40.5t-85 -14.5q-75 0 -124.5 28t-89.5 89l-37 -27q33 -60 97 -95.5t152 -35.5q55 0 102 18.5t81 50.5t53.5 75.5t19.5 93.5q0 63 -35.5 105.5t-91.5 57.5q71 24 115.5 72t44.5 124z" />
    <glyph glyph-name="four" unicode="4" horiz-adv-x="539" 
d="M496 236h-117l87 494h-27l-443 -502l-5 -32h336l-35 -196h45l35 196h117zM404 634l-70 -398h-280z" />
    <glyph glyph-name="five" unicode="5" horiz-adv-x="577" 
d="M534 730h-376l-84 -360l31 -16q35 47 79 75.5t102 28.5q41 0 73 -14t53.5 -38t33 -55.5t11.5 -67.5q0 -58 -18.5 -104.5t-50 -79.5t-74 -51t-89.5 -18q-66 0 -113 27.5t-83 73.5l-36 -29q16 -23 39 -43.5t51.5 -36t62.5 -25t73 -9.5q59 0 111 22.5t91 62.5t61.5 94.5
t22.5 118.5q0 45 -14.5 84t-41.5 68t-66.5 45.5t-89.5 16.5q-47 0 -86.5 -18t-73.5 -47l61 255h333z" />
    <glyph glyph-name="six" unicode="6" horiz-adv-x="566" 
d="M510 278q0 46 -15 83t-42.5 63.5t-65 40.5t-82.5 14q-56 0 -102 -19.5t-83 -53.5q19 36 51 79t72 86.5t84.5 85t88.5 73.5h-64q-58 -47 -118.5 -109t-110 -132t-81 -144.5t-31.5 -147.5q0 -51 16.5 -90t45.5 -65.5t68.5 -40t85.5 -13.5q59 0 110.5 24t90 64t60.5 92.5
t22 109.5zM462 275q0 -48 -17 -92t-47 -77t-71.5 -53t-91.5 -20q-84 0 -130 44.5t-46 124.5q0 48 19 90.5t51.5 75t74.5 51.5t88 19q81 0 125.5 -44.5t44.5 -118.5z" />
    <glyph glyph-name="seven" unicode="7" horiz-adv-x="505" 
d="M537 730h-432l-8 -41h363l-461 -689h51z" />
    <glyph glyph-name="eight" unicode="8" horiz-adv-x="602" 
d="M558 578q0 35 -14.5 65t-41 52t-64 34.5t-83.5 12.5q-52 0 -96.5 -15.5t-77.5 -42t-51.5 -63t-18.5 -78.5q0 -54 25 -90t67 -57q-46 -9 -82 -31t-61.5 -51t-39 -63t-13.5 -67q0 -45 19 -81t52.5 -61t79.5 -38.5t100 -13.5q59 0 109.5 17t88 47t59 71t21.5 90
q0 66 -37.5 109t-93.5 60q27 9 54.5 26t49.5 41.5t35.5 56t13.5 70.5zM510 573q0 -37 -13.5 -67.5t-38.5 -52t-59 -33.5t-75 -12q-86 0 -126 38t-40 95q0 32 12 61t36 50.5t59 34.5t80 13q79 0 122 -34t43 -93zM489 213q0 -39 -16.5 -72.5t-46.5 -57.5t-73 -38t-95 -14
q-41 0 -78 10t-65 29.5t-44 48t-16 66.5q0 40 16.5 74t46.5 58.5t73 38.5t97 13q96 -2 148.5 -44t52.5 -112z" />
    <glyph glyph-name="nine" unicode="9" horiz-adv-x="566" 
d="M544 529q0 46 -15 84.5t-43 67t-68 44.5t-91 16q-53 0 -103.5 -21.5t-90 -60.5t-63.5 -92.5t-24 -116.5q0 -53 17 -93.5t45.5 -68t66.5 -42t79 -14.5q100 0 174 65q-22 -36 -50 -74t-61 -74.5t-69.5 -70.5t-75.5 -61l29 -35q35 27 74 63t77 79t73 91.5t61.5 100t42 105.5
t15.5 108zM496 525q0 -54 -17 -100t-47 -79t-72 -52t-92 -19q-37 0 -68.5 11t-55 33t-37 56t-13.5 79q0 50 17 94.5t47 77.5t71 52.5t88 19.5q86 0 132.5 -46t46.5 -127z" />
    <glyph glyph-name="colon" unicode=":" horiz-adv-x="165" 
d="M115 425h-45l-15 -84h45zM55 84h-45l-15 -84h45z" />
    <glyph glyph-name="semicolon" unicode=";" horiz-adv-x="165" 
d="M115 425h-45l-15 -84h45zM55 84h-45l-14 -81q-9 -48 -23 -82.5t-43 -68.5h28q28 26 51 62.5t31 85.5z" />
    <glyph glyph-name="semicolon" unicode="&#x37e;" horiz-adv-x="165" 
d="M115 425h-45l-15 -84h45zM55 84h-45l-14 -81q-9 -48 -23 -82.5t-43 -68.5h28q28 26 51 62.5t31 85.5z" />
    <glyph glyph-name="less" unicode="&#x3c;" horiz-adv-x="350" 
d="M340 545l-306 -199l-8 -43l236 -201l9 53l-204 170l264 169z" />
    <glyph glyph-name="equal" unicode="=" horiz-adv-x="482" 
d="M427 428h-352l-7 -40h352zM401 278h-352l-7 -40h352z" />
    <glyph glyph-name="greater" unicode="&#x3e;" horiz-adv-x="350" 
d="M308 344l-236 201l-9 -53l204 -170l-264 -169l-9 -51l306 199z" />
    <glyph glyph-name="question" unicode="?" horiz-adv-x="437" 
d="M428 590q0 32 -12 59.5t-34 48t-53 32.5t-69 12q-49 0 -96 -21t-83 -72l29 -27q30 41 66 59.5t80 18.5q56 0 89.5 -33t33.5 -82q0 -23 -5 -43t-18 -42t-34 -47.5t-52 -59.5q-30 -33 -52 -60t-37.5 -53t-25 -52t-14.5 -57l-7 -40h45l7 40q5 27 14 51t23 47t33 47t44 50
q32 34 56 62.5t40 54.5t24 52t8 55zM171 84h-45l-15 -84h45z" />
    <glyph glyph-name="at" unicode="@" horiz-adv-x="844" 
d="M799 395q0 72 -27 135t-76 110.5t-119 74.5t-155 27q-78 0 -146.5 -29.5t-120 -81t-81 -120t-29.5 -146.5t29.5 -146.5t81 -120t120 -81t146.5 -29.5q35 0 72.5 7t79.5 26l-14 30q-39 -18 -73.5 -24t-64.5 -6q-71 0 -133 28t-109 75t-74 109t-27 131q0 71 27 133.5
t73.5 109t109 73.5t133.5 27q81 0 145 -26t107.5 -69.5t66.5 -100t23 -117.5q0 -48 -12.5 -84.5t-31.5 -60.5t-42 -36.5t-45 -12.5q-23 0 -36 11.5t-13 37.5v218q0 55 -37 88.5t-118 33.5q-42 0 -76 -8.5t-62 -24.5l17 -34q48 29 121 29q21 0 41.5 -3t36.5 -12.5t26 -27
t10 -45.5v-33h-82q-100 0 -155 -35.5t-55 -104.5q0 -31 11.5 -54.5t31 -39.5t45.5 -24t56 -8q48 0 85.5 17.5t63.5 40.5q5 -26 27 -42t53 -16q30 0 61 14t56.5 42.5t41.5 72t16 102.5zM543 263q-26 -23 -64.5 -42t-83.5 -19q-42 0 -71.5 24t-29.5 66q0 54 44.5 78t126.5 24
h78v-131z" />
    <glyph glyph-name="A" unicode="A" horiz-adv-x="626" 
d="M531 0l-139 742h-25l-402 -742h48l150 280h270l50 -280h48zM426 320h-242l182 339z" />
    <glyph glyph-name="B" unicode="B" horiz-adv-x="569" 
d="M511 571q0 69 -49 114t-150 45h-168l-129 -730h201q55 0 105 13.5t87.5 40.5t60 68t22.5 97q0 73 -38 113t-99 52q69 21 113 70t44 117zM464 569q0 -35 -14 -65t-40.5 -52t-63.5 -35t-82 -13h-133l51 286h124q81 0 119.5 -33t38.5 -88zM444 215q0 -44 -16.5 -77
t-45.5 -55t-70 -32.5t-89 -10.5h-156l57 323h137q91 0 137 -38.5t46 -109.5z" />
    <glyph glyph-name="C" unicode="C" horiz-adv-x="714" 
d="M704 614q-18 28 -44 52t-58 40.5t-70 26t-78 9.5q-86 0 -161 -35.5t-131 -95t-88.5 -138t-32.5 -165.5q0 -72 25 -131t67 -101t98.5 -65t119.5 -23q45 0 84.5 9.5t74 25t64 36.5t54.5 45l-27 27q-56 -48 -112.5 -74.5t-128.5 -26.5q-61 0 -111 20.5t-85 58t-54.5 89
t-19.5 114.5q0 75 28 145t76 124t112.5 87t138.5 33t129 -30t92 -83z" />
    <glyph glyph-name="D" unicode="D" horiz-adv-x="654" 
d="M614 431q0 70 -24.5 125.5t-69 94t-106 59t-135.5 20.5h-135l-129 -730h139q92 0 175.5 28.5t146.5 83.5t100.5 135.5t37.5 183.5zM566 420q0 -89 -33.5 -159.5t-89.5 -119.5t-130 -75t-156 -26h-90l115 650h91q68 0 122 -17.5t92 -52t58.5 -85t20.5 -115.5z" />
    <glyph glyph-name="E" unicode="E" horiz-adv-x="519" 
d="M513 730h-369l-129 -730h388l7 40h-343l57 325h292l7 40h-292l51 285h324z" />
    <glyph glyph-name="F" unicode="F" horiz-adv-x="446" 
d="M470 730h-326l-129 -730h45l64 361h254l7 40h-254l51 289h281z" />
    <glyph glyph-name="G" unicode="G" horiz-adv-x="806" 
d="M757 294h-310l-7 -41h259q-21 -54 -55 -95.5t-77.5 -70t-94 -43.5t-103.5 -15q-63 0 -114.5 20.5t-88 57t-56.5 88.5t-20 115q0 82 30 153.5t81 124.5t119 83t144 30q89 0 145 -29t97 -86l36 29q-20 27 -45.5 50t-58.5 40.5t-73.5 27t-89.5 9.5q-57 0 -111.5 -15
t-102.5 -43t-88.5 -67t-69.5 -87.5t-45.5 -105t-16.5 -118.5q0 -72 25 -130.5t68 -100.5t101.5 -64.5t126.5 -22.5q73 0 138.5 23.5t117.5 64.5t88 97t51 121z" />
    <glyph glyph-name="H" unicode="H" horiz-adv-x="673" 
d="M658 730h-45l-58 -328h-424l58 328h-45l-129 -730h45l64 362h424l-64 -362h45z" />
    <glyph glyph-name="I" unicode="I" horiz-adv-x="205" 
d="M189 730h-45l-129 -730h45z" />
    <glyph glyph-name="J" unicode="J" horiz-adv-x="338" 
d="M327 730h-45l-95 -535q-14 -75 -57 -118t-111 -43h-52l-7 -40h51q40 0 76 11.5t65 35.5t50 61.5t30 90.5z" />
    <glyph glyph-name="K" unicode="K" horiz-adv-x="550" 
d="M555 730h-59l-367 -337l60 337h-45l-129 -730h45l59 332l58 52l225 -384h54l-244 417z" />
    <glyph glyph-name="L" unicode="L" horiz-adv-x="484" 
d="M400 40h-333l122 690h-45l-129 -730h378z" />
    <glyph glyph-name="M" unicode="M" horiz-adv-x="779" 
d="M763 730h-57l-324 -398l-186 398h-52l-129 -730h45l117 664l181 -386h30l318 388l-117 -666h45z" />
    <glyph glyph-name="N" unicode="N" horiz-adv-x="729" 
d="M712 730h-45l-117 -666l-353 666h-54l-128 -730h45l118 669l356 -669h50z" />
    <glyph glyph-name="O" unicode="O" horiz-adv-x="810" 
d="M769 424q0 66 -23 124t-65 101t-100 68t-128 25q-85 0 -160 -36t-131 -97t-88.5 -140t-32.5 -165q0 -66 23 -123.5t65 -100.5t100 -67.5t128 -24.5q85 0 160 36t131 96t88.5 139t32.5 165zM720 418q0 -79 -29 -149.5t-78 -124t-114 -84.5t-137 -31q-60 0 -110 20.5
t-86 57.5t-56 88.5t-20 114.5q0 79 29 150t78 124.5t114 85t137 31.5q60 0 110 -20.5t86 -58t56 -89.5t20 -115z" />
    <glyph glyph-name="P" unicode="P" horiz-adv-x="523" 
d="M513 553q0 79 -56 128t-172 49h-141l-129 -730h45l56 318h128q63 0 112.5 18t84.5 50t53.5 74.5t18.5 92.5zM465 549q0 -39 -13.5 -73.5t-39.5 -60.5t-66 -41.5t-92 -15.5h-131l59 332h88q103 0 149 -36t46 -105z" />
    <glyph glyph-name="Q" unicode="Q" horiz-adv-x="810" 
d="M769 424q0 66 -23 123.5t-65 100.5t-100 67.5t-128 24.5q-85 0 -160 -36t-131 -96t-88.5 -139t-32.5 -165q0 -66 23 -123.5t65 -100.5t100 -67.5t128 -24.5q94 0 174 43q35 -30 71 -46l42 35q-32 8 -70 36q44 30 80 70.5t61.5 88t39.5 100.5t14 109zM720 418
q0 -53 -13 -102t-36.5 -92t-56.5 -79t-72 -61q-33 33 -48 67l-36 -22q16 -36 43 -68q-66 -32 -139 -32q-60 0 -110 20.5t-86 57.5t-56 88.5t-20 114.5q0 79 29 149.5t78 124t114 84.5t137 31q60 0 110 -20.5t86 -57.5t56 -88.5t20 -114.5z" />
    <glyph glyph-name="R" unicode="R" horiz-adv-x="542" 
d="M521 553q0 79 -56 128t-172 49h-149l-129 -730h45l62 350l254 -350h55l-231 319h52q63 0 112.5 18t84.5 49.5t53.5 74t18.5 92.5zM473 549q0 -39 -13.5 -73.5t-39.5 -60.5t-66 -41.5t-92 -15.5h-139l59 332h96q103 0 149 -36t46 -105z" />
    <glyph glyph-name="S" unicode="S" horiz-adv-x="482" 
d="M474 654q-60 88 -181 88q-43 0 -80.5 -14.5t-65.5 -39.5t-44 -59.5t-16 -74.5q0 -33 10.5 -60t29 -49.5t44 -42t54.5 -37.5q37 -23 63.5 -44t43.5 -42t24.5 -44t7.5 -50q0 -35 -14.5 -63.5t-39 -49t-57 -31.5t-68.5 -11q-50 0 -90 21t-69 53l-35 -30q32 -38 82 -62
t107 -24q46 0 88 14.5t74 41.5t51.5 64.5t19.5 83.5q0 33 -9 60t-27 50.5t-45.5 45.5t-64.5 45q-36 23 -61.5 43.5t-41 40t-22.5 39t-7 42.5q0 33 12 59t33 44.5t49 28.5t60 10q47 0 83 -16t63 -57z" />
    <glyph glyph-name="T" unicode="T" horiz-adv-x="476" 
d="M510 730h-416l-7 -40h186l-122 -690h45l122 690h185z" />
    <glyph glyph-name="U" unicode="U" horiz-adv-x="671" 
d="M660 730h-45l-80 -454q-11 -60 -34 -105.5t-55.5 -77t-73.5 -47.5t-86 -16q-46 0 -84 16.5t-63 48.5t-35 78.5t1 106.5l79 450h-45l-79 -450q-12 -70 0.5 -124t44 -91.5t78 -57t100.5 -19.5q52 0 100.5 19t87.5 54.5t67 87t40 116.5z" />
    <glyph glyph-name="V" unicode="V" horiz-adv-x="657" 
d="M258 -29l433 759h-48l-365 -649l-138 649h-46z" />
    <glyph glyph-name="W" unicode="W" horiz-adv-x="928" 
d="M962 730h-47l-303 -641l-66 641h-32l-290 -642l-82 642h-48l98 -730h34l289 633l62 -633h34z" />
    <glyph glyph-name="X" unicode="X" horiz-adv-x="677" 
d="M662 730h-53l-261 -296l-158 296h-50l177 -332l-350 -398h53l317 361l193 -361h50l-212 396z" />
    <glyph glyph-name="Y" unicode="Y" horiz-adv-x="628" 
d="M664 730h-55l-292 -340l-175 340h-50l195 -381l-62 -349h45l61 348z" />
    <glyph glyph-name="Z" unicode="Z" horiz-adv-x="627" 
d="M637 730h-477l-7 -40h398l-572 -690h531l7 40h-451z" />
    <glyph glyph-name="bracketleft" unicode="[" horiz-adv-x="255" 
d="M289 730h-150l-161 -909h150l7 37h-107l147 835h107z" />
    <glyph glyph-name="backslash" unicode="\" horiz-adv-x="372" 
d="M267 0l-120 730h-43l120 -730h43z" />
    <glyph glyph-name="bracketright" unicode="]" horiz-adv-x="255" 
d="M244 730h-150l-7 -37h107l-147 -835h-107l-7 -37h150z" />
    <glyph glyph-name="asciicircum" unicode="^" horiz-adv-x="465" 
d="M425 369l-113 361h-38l-241 -361h45l207 316l96 -316h44z" />
    <glyph glyph-name="underscore" unicode="_" horiz-adv-x="500" 
d="M420 -103l7 40h-506l-7 -40h506z" />
    <glyph glyph-name="quoteleft" unicode="&#x2018;" horiz-adv-x="165" 
d="M193 730h-28q-23 -21 -39 -51t-21 -57l-12 -69h45l12 71q5 29 12.5 54.5t30.5 51.5z" />
    <glyph glyph-name="a" unicode="a" horiz-adv-x="426" 
d="M352 281q5 27 0.5 51t-20.5 42t-43.5 28.5t-67.5 10.5q-42 0 -77.5 -8.5t-66.5 -24.5l12 -36q28 15 58 23t67 8q55 0 80.5 -23t16.5 -75l-4 -23h-82q-115 0 -175.5 -42t-60.5 -113q0 -53 35 -82t88 -29q48 0 88.5 17.5t69.5 40.5l-8 -46h41zM300 218l-23 -131
q-30 -23 -71.5 -42t-86.5 -19q-42 0 -64.5 21t-22.5 56q0 58 49.5 86.5t140.5 28.5h78z" />
    <glyph glyph-name="b" unicode="b" horiz-adv-x="486" 
d="M426 240q0 36 -11.5 68t-32.5 55t-51 36.5t-67 13.5q-27 0 -52 -8t-47 -21t-39 -30.5t-29 -35.5l73 411h-41l-129 -729h41l12 68q21 -34 57 -57t90 -23q45 0 86 18.5t72 52t49.5 79.5t18.5 102zM382 234q0 -42 -13 -80t-36 -66.5t-55 -45t-70 -16.5q-55 0 -90 26t-55 71
l13 76q6 36 22.5 68t40.5 56t54 38t64 14q56 0 90.5 -35.5t34.5 -105.5z" />
    <glyph glyph-name="c" unicode="c" horiz-adv-x="428" 
d="M390 327q-11 16 -25 31.5t-33 27.5t-45 19.5t-61 7.5q-48 0 -89.5 -21t-71.5 -54.5t-47.5 -76.5t-17.5 -87q0 -45 14 -80t38 -58.5t55 -35.5t65 -12q58 0 102 24.5t79 64.5l-28 23q-33 -37 -68 -55.5t-83 -18.5q-29 0 -53.5 12t-41.5 32t-26.5 47.5t-9.5 58.5
q0 36 13.5 71.5t37.5 64t58 46t76 17.5q45 0 74 -20t51 -52z" />
    <glyph glyph-name="d" unicode="d" horiz-adv-x="486" 
d="M485 730h-41l-71 -398q-21 34 -57 57t-90 23q-45 0 -86 -18.5t-72 -52t-49.5 -80t-18.5 -101.5q0 -36 11.5 -68t32.5 -55t51 -36.5t67 -13.5q27 0 52 8t47 21t39 30.5t29 35.5l-15 -83h41zM363 277l-13 -76q-6 -36 -22.5 -68t-40.5 -56t-54 -38t-64 -14q-56 0 -90.5 35.5
t-34.5 105.5q0 42 13 80t36 66.5t55 45t70 16.5q55 0 90 -26t55 -71z" />
    <glyph glyph-name="e" unicode="e" horiz-adv-x="444" 
d="M389 245q0 32 -10 62.5t-30 54t-51 37.5t-74 14q-47 0 -88 -18.5t-71.5 -51t-48 -77t-17.5 -96.5q0 -42 13 -75.5t37 -57.5t57 -36.5t74 -12.5q60 0 103.5 19.5t69.5 41.5l-25 27q-29 -23 -63.5 -36.5t-75.5 -13.5q-73 0 -109.5 41.5t-36.5 107.5q0 8 0.5 15.5t1.5 15.5
h342q1 7 1.5 18t0.5 21zM344 242h-292q17 61 63 97t106 36q32 0 55.5 -10t38.5 -28t22 -42.5t7 -52.5z" />
    <glyph glyph-name="f" unicode="f" horiz-adv-x="203" 
d="M256 730h-34q-35 0 -62 -20.5t-35 -67.5l-42 -241h-70l-7 -36h70l-96 -544h41l96 544h74l7 36h-74l41 234q6 33 19.5 45t33.5 12h31z" />
    <glyph glyph-name="g" unicode="g" horiz-adv-x="486" 
d="M427 401h-41l-12 -68q-21 34 -57 57t-90 23q-45 0 -86 -18.5t-72 -52t-49.5 -80t-18.5 -101.5q0 -36 11.5 -68t32.5 -55t51 -36.5t67 -13.5q27 0 52 8t47 21t39 30.5t29 35.5l-16 -88q-13 -72 -58 -110t-111 -38q-48 0 -83 16.5t-62 49.5l-33 -25q31 -40 75 -59.5
t99 -19.5q83 0 141 49t74 140zM364 278l-13 -76q-6 -36 -22.5 -68t-40.5 -56t-54 -38t-64 -14q-56 0 -90.5 35.5t-34.5 105.5q0 42 13 80t36 66.5t55 45t70 16.5q55 0 90 -26t55 -71z" />
    <glyph glyph-name="h" unicode="h" horiz-adv-x="448" 
d="M370 256q6 33 1 61.5t-20.5 50t-42 33.5t-64.5 12q-45 0 -83 -22t-61 -56l70 395h-41l-129 -730h41l43 246q4 23 18 46.5t34 42t45.5 30.5t53.5 12q56 0 79.5 -35t13.5 -92l-44 -250h41z" />
    <glyph glyph-name="i" unicode="i" horiz-adv-x="171" 
d="M146 593h-41l-15 -80h41zM112 401h-41l-71 -401h41z" />
    <glyph glyph-name="j" unicode="j" horiz-adv-x="171" 
d="M146 593h-41l-15 -80h41zM112 401h-41l-92 -521q-3 -18 -14.5 -25.5t-27.5 -7.5q-11 0 -21.5 1.5t-18.5 4.5l2 -36q17 -5 43 -5q29 0 50 14.5t26 42.5z" />
    <glyph glyph-name="k" unicode="k" horiz-adv-x="412" 
d="M378 401h-61l-240 -196l93 525h-41l-129 -730h41l27 154l61 48l148 -202h53l-169 228z" />
    <glyph glyph-name="l" unicode="l" horiz-adv-x="171" 
d="M170 730h-41l-129 -730h41z" />
    <glyph glyph-name="m" unicode="m" horiz-adv-x="698" 
d="M620 256q6 33 2.5 62t-17.5 50t-38 33t-60 12q-51 0 -89 -24.5t-67 -61.5q-10 39 -35 62.5t-76 23.5q-45 0 -80.5 -21.5t-59.5 -56.5l12 66h-41l-71 -401h41l43 246q4 23 17 46.5t32.5 42t44.5 30.5t53 12q55 0 72.5 -35.5t7.5 -91.5l-44 -250h41l43 246q4 23 17 46.5
t32.5 42t44.5 30.5t53 12q55 0 72.5 -35.5t7.5 -91.5l-44 -250h41z" />
    <glyph glyph-name="n" unicode="n" horiz-adv-x="448" 
d="M370 256q6 33 1 61.5t-20.5 50t-42 33.5t-64.5 12q-45 0 -83 -22t-61 -56l12 66h-41l-71 -401h41l43 246q4 23 18 46.5t34 42t45.5 30.5t53.5 12q56 0 79.5 -35t13.5 -92l-44 -250h41z" />
    <glyph glyph-name="o" unicode="o" horiz-adv-x="490" 
d="M429 234q0 40 -14.5 73t-39.5 56.5t-59 36.5t-74 13q-49 0 -92.5 -19t-76.5 -52t-52 -78t-19 -97q0 -40 14.5 -73t39.5 -56.5t59 -36.5t74 -13q49 0 92.5 19t76.5 52t52 78t19 97zM385 228q0 -42 -14.5 -78.5t-40 -64t-61 -43.5t-76.5 -16q-35 0 -62.5 11.5t-46.5 32
t-28.5 47t-9.5 56.5q0 42 14.5 78.5t40 64t61 43.5t76.5 16q35 0 62.5 -11.5t46 -32t28.5 -47t10 -56.5z" />
    <glyph glyph-name="p" unicode="p" horiz-adv-x="486" 
d="M426 240q0 36 -11.5 68t-32.5 55t-51 36.5t-67 13.5q-27 0 -52 -8t-47 -21t-39 -30.5t-29 -35.5l15 83h-41l-103 -580h41l44 247q21 -34 57 -57t90 -23q45 0 86 18.5t72 52t49.5 79.5t18.5 102zM382 234q0 -42 -13 -80t-36 -66.5t-55 -45t-70 -16.5q-55 0 -90 26t-55 71
l13 76q6 36 22.5 68t40.5 56t54 38t64 14q56 0 90.5 -35.5t34.5 -105.5z" />
    <glyph glyph-name="q" unicode="q" horiz-adv-x="486" 
d="M427 401h-41l-12 -68q-21 34 -57 57t-90 23q-45 0 -86 -18.5t-72 -52t-49.5 -80t-18.5 -101.5q0 -36 11.5 -68t32.5 -55t51 -36.5t67 -13.5q27 0 52 8t47 21t39 30.5t29 35.5l-47 -262h41zM364 278l-13 -76q-6 -36 -22.5 -68t-40.5 -56t-54 -38t-64 -14q-56 0 -90.5 35.5
t-34.5 105.5q0 42 13 80t36 66.5t55 45t70 16.5q55 0 90 -26t55 -71z" />
    <glyph glyph-name="r" unicode="r" horiz-adv-x="301" 
d="M293 383q-15 17 -32.5 23.5t-41.5 6.5q-37 0 -68 -21.5t-50 -50.5l11 60h-41l-71 -401h41l43 244q4 23 16.5 47t29.5 43t37.5 31t40.5 12q19 0 31.5 -6.5t23.5 -18.5z" />
    <glyph glyph-name="s" unicode="s" horiz-adv-x="358" 
d="M305 360q-52 50 -131 50q-28 0 -53.5 -7.5t-44.5 -21.5t-30.5 -34.5t-11.5 -45.5q0 -23 7.5 -39.5t21 -29t31.5 -22t38 -16.5q29 -11 48 -20.5t30.5 -20t16 -22.5t4.5 -28q0 -36 -31 -56t-74 -20q-32 0 -62 13.5t-56 33.5l-24 -33q26 -21 61 -35.5t80 -14.5
q27 0 53.5 7.5t48 22.5t34.5 37t13 51q0 47 -28 72t-84 46q-47 17 -66.5 34.5t-19.5 43.5q0 32 26.5 51t66.5 19q32 0 58.5 -12t48.5 -32z" />
    <glyph glyph-name="t" unicode="t" horiz-adv-x="226" 
d="M197 401h-77l33 188l-46 -30l-28 -158h-63l-7 -36h63l-49 -280q-7 -37 13 -61t62 -24h19l26 36h-35q-27 0 -37 15.5t-7 32.5l49 281h77z" />
    <glyph glyph-name="u" unicode="u" horiz-adv-x="448" 
d="M389 401h-41l-43 -246q-4 -23 -18 -46.5t-34 -42t-45.5 -30.5t-53.5 -12q-56 0 -79.5 35t-13.5 92l44 250h-41l-45 -256q-6 -33 -1 -61.5t20.5 -50t42 -33.5t64.5 -12q45 0 83 22t61 56l-12 -66h41z" />
    <glyph glyph-name="v" unicode="v" horiz-adv-x="403" 
d="M392 401h-45l-198 -334l-84 334h-42l110 -424z" />
    <glyph glyph-name="w" unicode="w" horiz-adv-x="627" 
d="M616 401h-45l-178 -320l-72 325l-183 -328l-71 323h-44l96 -424l183 319l72 -319z" />
    <glyph glyph-name="x" unicode="x" horiz-adv-x="405" 
d="M365 401h-50l-136 -153l-84 153h-45l102 -182l-197 -219h49l166 187l103 -187h47l-123 216z" />
    <glyph glyph-name="y" unicode="y" horiz-adv-x="396" 
d="M385 401h-45l-194 -351l-81 351h-42l94 -396l-51 -90q-15 -27 -35.5 -47t-47.5 -20q-17 0 -28 3.5t-22 11.5l-7 -40q21 -12 57 -12q38 0 65 23t47 59z" />
    <glyph glyph-name="z" unicode="z" horiz-adv-x="418" 
d="M396 401h-331l-7 -37h250l-352 -364h351l7 37h-271z" />
    <glyph glyph-name="braceleft" unicode="{" horiz-adv-x="271" 
d="M327 749q-44 -16 -73.5 -35.5t-49 -49.5t-32.5 -74t-24 -108q-7 -42 -14.5 -75t-20 -56t-32.5 -35t-51 -12l-6 -36q40 0 54.5 -19.5t14.5 -55.5q0 -21 -4 -45l-8.5 -50t-8.5 -52.5t-4 -51.5q-3 -33 0.5 -59.5t14 -47t30.5 -36.5t50 -29l6 34q-19 12 -32 24t-20 27.5
t-9.5 35.5t-0.5 47q1 21 5 48.5t8.5 55.5t8 55t3.5 47q0 35 -10 57.5t-39 31.5q27 8 44 25t28.5 43.5t19 61.5t15.5 80q8 48 17 82t23.5 58.5t35.5 42.5t54 34z" />
    <glyph glyph-name="bar" unicode="|" horiz-adv-x="203" 
d="M187 730h-43l-161 -909h43z" />
    <glyph glyph-name="braceright" unicode="}" horiz-adv-x="271" 
d="M225 303q-39 0 -53.5 19t-14.5 54q0 24 4.5 52l9.5 58t9.5 60.5t4.5 59.5q-1 54 -23.5 86t-75.5 57l-6 -34q18 -11 30 -21t20 -22t11.5 -27.5t3.5 -36.5q0 -23 -4 -53.5t-9.5 -62t-10 -62t-4.5 -54.5q0 -35 10 -58t39 -32q-27 -8 -44 -25.5t-28.5 -43.5t-19 -61.5
t-14.5 -79.5q-9 -48 -18 -82t-23.5 -59t-35.5 -42.5t-54 -33.5l-6 -37q44 16 73 35.5t48.5 49.5t32.5 73.5t24 108.5q7 41 14.5 74t20 56t32 35.5t51.5 12.5z" />
    <glyph glyph-name="asciitilde" unicode="~" horiz-adv-x="460" 
d="M402 434h-43q-5 -51 -20 -73.5t-32 -22.5q-20 0 -37 14t-35 31q-20 18 -42 35.5t-48 17.5q-25 0 -42.5 -10t-29.5 -27.5t-18.5 -42t-10.5 -53.5h42q5 40 16.5 67t37.5 27q21 0 39 -15.5t35 -32.5q19 -17 41 -33.5t48 -16.5q36 0 62.5 30.5t36.5 104.5z" />
    <glyph glyph-name="exclamdown" unicode="&#xa1;" horiz-adv-x="189" 
d="M181 730h-45l-15 -84h45zM148 601h-25l-40 -171l-76 -430h45l76 430z" />
    <glyph glyph-name="cent" unicode="&#xa2;" horiz-adv-x="440" 
d="M392 337q-10 14 -22 27.5t-28 25t-36.5 20t-47.5 11.5l15 84h-36l-15 -82q-47 -2 -87 -23t-69.5 -55t-46.5 -76t-17 -85q0 -41 11.5 -73.5t31.5 -55.5t46.5 -37t56.5 -18l-12 -69h36l11 67q55 2 97 26.5t75 62.5l-28 23q-31 -34 -63 -52.5t-74 -21.5l61 347q36 -5 61 -23
t44 -47zM216 384l-61 -346q-25 4 -45 17t-34.5 33t-22.5 45t-8 53q0 34 12 68t34.5 62t54 46.5t70.5 21.5z" />
    <glyph glyph-name="sterling" unicode="&#xa3;" horiz-adv-x="542" 
d="M520 560q1 5 2 13t1 17q0 67 -46.5 109.5t-128.5 42.5q-53 0 -95 -16.5t-71.5 -46t-45 -70.5t-15.5 -90q0 -42 14 -78t37 -76h-79l-4 -27h98q12 -21 21.5 -41t14.5 -40h-149l-5 -28h162q1 -5 1.5 -11.5t0.5 -12.5q0 -25 -6 -48.5t-17 -44.5q-24 20 -52 31t-54 11
q-44 0 -74.5 -23.5t-30.5 -63.5q0 -39 27 -59t63 -20q37 0 69.5 19t58.5 51q29 -28 56.5 -49t66.5 -21q33 0 56.5 12.5t39 34t24.5 51t13 62.5h-41q-3 -24 -9 -45.5t-16.5 -38t-26 -26t-37.5 -9.5q-29 0 -51 17t-51 43q15 27 24.5 59t9.5 67q0 10 -1 14h119l5 28h-128
q-9 39 -32 81h174l5 27h-194q-22 40 -39 76.5t-17 79.5q0 83 46.5 132.5t130.5 49.5q67 0 100.5 -35.5t33.5 -89.5q0 -7 -0.5 -11t-1.5 -7h44zM191 81q-18 -26 -44.5 -44t-52.5 -18q-29 0 -43.5 15.5t-14.5 35.5q0 23 18 36.5t45 13.5q22 0 46 -10t46 -29z" />
    <glyph glyph-name="fraction" unicode="&#x2044;" horiz-adv-x="382" 
d="M490 730h-47l-552 -730h47z" />
    <glyph glyph-name="yen" unicode="&#xa5;" horiz-adv-x="609" 
d="M253 0l21 122h176l5 27h-176l15 87h176l5 27h-176l16 91l326 376h-49l-282 -325l-11 -12l-5 12l-168 325h-48l194 -378l-16 -89h-183l-5 -27h183l-15 -87h-183l-5 -27h184l-22 -122h43z" />
    <glyph glyph-name="florin" unicode="&#x192;" horiz-adv-x="253" 
d="M287 728q-4 2 -19.5 2.5t-22.5 0.5q-42 0 -70.5 -25.5t-38.5 -80.5l-39 -220h-58l-6 -38h58l-74 -430q-4 -20 -8.5 -35t-13 -25t-21.5 -14.5t-33 -4.5q-9 0 -15 2l-7 -36q4 -2 12 -2.5t15 -0.5q21 0 39 5t32 17t24 32t15 51l5.5 32.5l14 81.5l18.5 106.5l18.5 106.5
l14 81.5l5.5 32.5h82l6 38h-81l36 209q3 17 7.5 32t13 25.5t22 16.5t33.5 6q4 0 15.5 -0.5t13.5 -1.5z" />
    <glyph glyph-name="section" unicode="&#xa7;" horiz-adv-x="626" 
d="M588 666q-29 29 -79.5 52.5t-125.5 23.5q-48 0 -90 -11t-73.5 -33t-49.5 -53.5t-18 -71.5q0 -26 11 -46t29 -36q-82 -40 -121.5 -92.5t-39.5 -108.5q0 -51 31 -94.5t100 -68.5l84 -30.5l67 -24.5q45 -19 70 -41.5t25 -57.5q0 -26 -13.5 -48.5t-37 -38.5t-56 -25t-70.5 -9
q-66 0 -112 21t-73 47l-28 -31q29 -29 79.5 -52.5t125.5 -23.5q48 0 90 11t73.5 33t49.5 53t18 72q0 26 -10.5 46t-28.5 36q32 16 61 38t51 48.5t35 57.5t13 67q0 56 -33.5 91t-88.5 58q-12 5 -33 12.5l-44 16l-43 16l-30 11.5q-48 19 -76.5 42t-28.5 60q0 26 13 48.5
t36.5 38.5t56 25t71.5 9q66 0 112 -21t73 -47zM530 266q0 -30 -12 -56t-32 -48.5t-47 -40.5t-57 -33q-18 10 -45 21.5t-56.5 22.5l-57 20.5l-45.5 15.5q-51 18 -76.5 48.5t-25.5 78.5q0 105 148 172q11 -7 28 -14.5t36 -14.5q15 -6 34 -12.5l38 -13.5l36 -13t29 -11
q48 -20 76.5 -48t28.5 -74z" />
    <glyph glyph-name="currency" unicode="&#xa4;" horiz-adv-x="567" 
d="M578 609q-19 59 -61 96t-117 37q-53 0 -99.5 -23.5t-84.5 -65t-67 -99t-46 -124.5h-72l-4 -28h69q-9 -44 -12 -86h-72l-4 -29h74v-29q0 -59 12.5 -108.5t37 -85.5t61 -56t84.5 -20q72 0 125.5 34.5t98.5 98.5l-36 22q-36 -51 -80.5 -82t-103.5 -31q-41 0 -70 18.5
t-47.5 50t-26.5 73.5t-8 89v26h257l4 29h-259q2 21 5 43t8 43h261l4 28h-259q15 56 39 105.5t56 86t71 58t84 21.5q30 0 52 -9t38.5 -24t28.5 -35.5t20 -42.5z" />
    <glyph glyph-name="quotesingle" unicode="'" horiz-adv-x="165" 
d="M169 730h-45l-16 -87l-5 -90h25l25 90z" />
    <glyph glyph-name="quotedblleft" unicode="&#x201c;" horiz-adv-x="280" 
d="M308 730h-28q-23 -21 -39 -51t-21 -57l-12 -69h45l12 71q5 29 12.5 54.5t30.5 51.5zM193 730h-28q-23 -21 -39 -51t-21 -57l-12 -69h45l12 71q5 29 12.5 54.5t30.5 51.5z" />
    <glyph glyph-name="guillemotleft" unicode="&#xab;" horiz-adv-x="310" 
d="M288 341l-164 -117l-7 -38l120 -117l7 47l-85 87l119 92zM163 341l-164 -117l-6 -38l119 -117l7 47l-85 87l120 92z" />
    <glyph glyph-name="guilsinglleft" unicode="&#x2039;" horiz-adv-x="220" 
d="M166 341l-164 -118l-7 -37l120 -117l7 46l-86 88l121 93z" />
    <glyph glyph-name="guilsinglright" unicode="&#x203a;" horiz-adv-x="220" 
d="M182 225l-120 116l-6 -45l86 -87l-121 -94l-10 -45l164 118z" />
    <glyph glyph-name="fi" unicode="&#xfb01;" horiz-adv-x="374" 
d="M349 593h-41l-15 -80h41zM256 730h-34q-35 0 -62 -20.5t-35 -67.5l-42 -241h-70l-7 -36h70l-96 -544h41l96 544h74l7 36h-74l41 234q6 33 19.5 45t33.5 12h31zM315 401h-41l-71 -401h41z" />
    <glyph glyph-name="fl" unicode="&#xfb02;" horiz-adv-x="374" 
d="M373 730h-41l-129 -730h41zM256 730h-34q-35 0 -62 -20.5t-35 -67.5l-42 -241h-70l-7 -36h70l-96 -544h41l96 544h74l7 36h-74l41 234q6 33 19.5 45t33.5 12h31z" />
    <glyph glyph-name="endash" unicode="&#x2013;" horiz-adv-x="410" 
d="M328 246h-290l-7 -40h290z" />
    <glyph glyph-name="dagger" unicode="&#x2020;" horiz-adv-x="503" 
d="M495 438h-211l52 292h-41l-52 -292h-211l-6 -36h211l-103 -581h41l103 581h211z" />
    <glyph glyph-name="daggerdbl" unicode="&#x2021;" horiz-adv-x="503" 
d="M495 438h-211l52 292h-41l-52 -292h-211l-6 -36h211l-42 -240h-211l-7 -36h211l-54 -305h41l54 305h211l7 36h-211l42 240h211z" />
    <glyph glyph-name="periodcentered" unicode="&#xb7;" horiz-adv-x="165" 
d="M111 401h-45l-15 -84h45z" />
    <glyph glyph-name="periodcentered" unicode="&#x22c5;" horiz-adv-x="165" 
d="M111 401h-45l-15 -84h45z" />
    <glyph glyph-name="paragraph" unicode="&#xb6;" horiz-adv-x="617" 
d="M609 730h-259q-65 0 -120.5 -20.5t-96 -57t-63.5 -86.5t-23 -108q0 -48 18.5 -87t52 -66.5t81.5 -42.5t108 -15h47l-76 -426h43l154 871h84l-154 -871h43zM432 692l-72 -407h-38q-114 0 -172 46.5t-58 136.5q0 48 19 89t53 71t80 47t99 17h89z" />
    <glyph glyph-name="bullet" unicode="&#x2022;" horiz-adv-x="296" 
d="M226 379q0 32 -23 55t-55 23t-55 -23t-23 -55t23 -55t55 -23t55 23t23 55z" />
    <glyph glyph-name="quotesinglbase" unicode="&#x201a;" horiz-adv-x="165" 
d="M55 84h-45l-13 -71q-5 -29 -12.5 -55t-29.5 -51h28q23 21 39 51t21 57z" />
    <glyph glyph-name="quotedblbase" unicode="&#x201e;" horiz-adv-x="280" 
d="M170 84h-45l-13 -71q-5 -29 -12.5 -55t-29.5 -51h28q23 21 39 51t21 57zM55 84h-45l-13 -71q-5 -29 -12.5 -55t-29.5 -51h28q23 21 39 51t21 57z" />
    <glyph glyph-name="quotedblright" unicode="&#x201d;" horiz-adv-x="280" 
d="M284 730h-45l-13 -71q-5 -29 -12.5 -54.5t-29.5 -51.5h28q22 21 38.5 51t21.5 57zM169 730h-45l-13 -71q-5 -29 -12.5 -54.5t-29.5 -51.5h28q22 21 38.5 51t21.5 57z" />
    <glyph glyph-name="guillemotright" unicode="&#xbb;" horiz-adv-x="310" 
d="M271 225l-120 117l-6 -47l85 -86l-120 -93l-10 -47l164 118zM146 225l-120 117l-6 -47l85 -86l-120 -93l-10 -47l164 118z" />
    <glyph glyph-name="ellipsis" unicode="&#x2026;" horiz-adv-x="510" 
d="M408 91h-44l-16 -91h44zM232 91h-44l-16 -91h44zM56 91h-43l-17 -91h44z" />
    <glyph glyph-name="perthousand" unicode="&#x2030;" horiz-adv-x="1065" 
d="M371 601q0 62 -29.5 101.5t-88.5 39.5q-34 0 -65.5 -18.5t-55.5 -50.5t-38.5 -75t-14.5 -92q0 -62 29.5 -101.5t88.5 -39.5q34 0 65.5 18.5t55.5 50.5t38.5 75t14.5 92zM702 730h-49l-626 -730h49zM985 224q0 62 -29.5 101.5t-88.5 39.5q-34 0 -65.5 -18.5t-55.5 -50.5
t-38.5 -75t-14.5 -92q0 -62 29.5 -101.5t88.5 -39.5q34 0 65.5 18.5t55.5 50.5t38.5 75t14.5 92zM650 224q0 62 -29.5 101.5t-88.5 39.5q-34 0 -65.5 -18.5t-55.5 -50.5t-38.5 -75t-14.5 -92q0 -62 29.5 -101.5t88.5 -39.5q34 0 65.5 18.5t55.5 50.5t38.5 75t14.5 92z
M327 598q0 -40 -10 -75.5t-27 -62.5t-40 -42.5t-48 -15.5q-38 0 -58.5 29.5t-20.5 77.5q0 40 10 75.5t27 62.5t39.5 42.5t48.5 15.5q38 0 58.5 -29.5t20.5 -77.5zM941 221q0 -40 -10 -75.5t-27 -62.5t-40 -42.5t-48 -15.5q-38 0 -58.5 29.5t-20.5 77.5q0 40 10 75.5t27 62.5
t39.5 42.5t48.5 15.5q38 0 58.5 -29.5t20.5 -77.5zM606 221q0 -40 -10 -75.5t-27 -62.5t-40 -42.5t-48 -15.5q-38 0 -58.5 29.5t-20.5 77.5q0 40 10 75.5t27 62.5t39.5 42.5t48.5 15.5q38 0 58.5 -29.5t20.5 -77.5z" />
    <glyph glyph-name="questiondown" unicode="&#xbf;" horiz-adv-x="437" 
d="M326 730h-45l-15 -84h45zM356 81l-29 27q-30 -41 -66 -59.5t-80 -18.5q-56 0 -89.5 33t-33.5 82q0 22 5 42.5t18 42.5t33.5 47.5t52.5 59.5q30 33 52 60t37.5 53t25 52t14.5 57l7 40h-45l-7 -40q-10 -54 -37.5 -98.5t-76.5 -96.5q-32 -34 -56 -62.5t-40 -55t-24 -52
t-8 -54.5q0 -32 12 -59.5t34 -48t53 -32.5t69 -12q49 0 96 21t83 72z" />
    <glyph glyph-name="grave" unicode="`" horiz-adv-x="435" 
d="M273 486l-85 134h-44l88 -134h41z" />
    <glyph glyph-name="acute" unicode="&#xb4;" horiz-adv-x="435" 
d="M330 620h-47l-99 -134h44z" />
    <glyph glyph-name="circumflex" unicode="&#x2c6;" horiz-adv-x="437" 
d="M353 486l-80 131h-39l-125 -131h45l96 98l61 -98h42z" />
    <glyph glyph-name="tilde" unicode="&#x2dc;" horiz-adv-x="437" 
d="M383 583h-37q-11 -65 -44 -65q-14 0 -26.5 10.5t-25.5 23.5q-14 12 -31 23t-37 11q-35 0 -56 -28.5t-29 -71.5h37q5 27 16 45.5t28 18.5q16 0 28 -8.5t24 -19.5q14 -14 30.5 -27t37.5 -13q68 0 85 101z" />
    <glyph glyph-name="macron" unicode="&#xaf;" horiz-adv-x="437" 
d="M373 531h-272l-3 -34h272z" />
    <glyph glyph-name="macron" unicode="&#x2c9;" horiz-adv-x="437" 
d="M373 531h-272l-3 -34h272z" />
    <glyph glyph-name="breve" unicode="&#x2d8;" horiz-adv-x="437" 
d="M378 615h-38q-9 -41 -41 -69t-72 -28q-38 0 -59.5 27.5t-15.5 69.5h-38q-5 -32 1.5 -56.5t21 -41.5t36.5 -26t49 -9q54 0 98 35t58 98z" />
    <glyph glyph-name="dotaccent" unicode="&#x2d9;" horiz-adv-x="437" 
d="M191 583h-43l-14 -76h43z" />
    <glyph glyph-name="dieresis" unicode="&#xa8;" horiz-adv-x="435" 
d="M356 577h-41l-17 -91h42zM189 577h-41l-17 -91h42z" />
    <glyph glyph-name="ring" unicode="&#x2da;" horiz-adv-x="437" 
d="M333 584q0 19 -7.5 36t-20 29.5t-29 19.5t-35.5 7q-21 0 -40 -8t-33 -22.5t-22.5 -33.5t-8.5 -40q0 -20 7 -36.5t19.5 -29t29 -19.5t35.5 -7q21 0 40.5 8t33.5 22t22.5 33t8.5 41zM301 583q0 -27 -20 -49.5t-54 -22.5q-23 0 -40.5 18.5t-17.5 44.5q0 30 22 50.5t50 20.5
q26 0 43 -18t17 -44z" />
    <glyph glyph-name="cedilla" unicode="&#xb8;" horiz-adv-x="437" 
d="M279 -99q0 26 -21 38t-47 12q-8 0 -13.5 -0.5t-10.5 -1.5l47 55h-36l-57 -69l8 -13q13 3 23.5 4t21.5 1q49 0 49 -30q0 -25 -19.5 -37t-44.5 -12q-21 0 -39.5 6t-32.5 19l-19 -19q18 -16 40 -24.5t49 -8.5q44 0 73 20.5t29 59.5z" />
    <glyph glyph-name="hungarumlaut" unicode="&#x2dd;" horiz-adv-x="437" 
d="M365 621h-46l-82 -135h40zM229 621h-47l-82 -135h40z" />
    <glyph glyph-name="ogonek" unicode="&#x2db;" horiz-adv-x="437" 
d="M297 -150l-15 22q-37 -23 -77 -23q-28 0 -46.5 12t-18.5 37q0 29 28.5 57t82.5 55h-44q-56 -24 -81 -55t-25 -59q0 -19 9 -33.5t23 -24t32.5 -14t37.5 -4.5q23 0 47.5 7.5t46.5 22.5z" />
    <glyph glyph-name="caron" unicode="&#x2c7;" horiz-adv-x="437" 
d="M368 617h-42l-98 -93l-62 93h-43l80 -131h38z" />
    <glyph glyph-name="emdash" unicode="&#x2014;" horiz-adv-x="570" 
d="M488 246h-450l-7 -40h450z" />
    <glyph glyph-name="AE" unicode="&#xc6;" horiz-adv-x="864" 
d="M886 730h-372l-551 -730h48l213 281h215l-50 -281h387l7 40h-347l58 327h293l7 38h-293l51 285h327zM509 667l-63 -347h-195z" />
    <glyph glyph-name="ordfeminine" unicode="&#xaa;" horiz-adv-x="407" 
d="M378 635q4 22 -0.5 41.5t-17.5 34t-36 23t-57 8.5q-35 0 -67.5 -8t-52.5 -21l10 -28q20 11 46.5 18.5t57.5 7.5q45 0 66.5 -18.5t15.5 -56.5q0 -1 -1 -7.5t-1.5 -12t-0.5 -6.5h-69q-99 0 -148.5 -35t-49.5 -92q0 -45 29.5 -69t73.5 -24q41 0 75 15t59 34l-7 -39h36z
M338 336h-272l-5 -33h272zM334 579l-18 -105q-26 -18 -60.5 -35t-74.5 -17q-37 0 -54 19t-17 46q0 47 41.5 69.5t116.5 22.5h66z" />
    <glyph glyph-name="Lslash" unicode="&#x141;" horiz-adv-x="484" 
d="M77 349l-87 -31l14 -38l65 23l-54 -303h378l7 40h-333l50 280l179 64l-13 38l-158 -56l64 364h-45z" />
    <glyph glyph-name="Oslash" unicode="&#xd8;" horiz-adv-x="810" 
d="M767 429q0 55 -17 104.5t-48 90.5l98 93l-24 25l-96 -92q-42 43 -100 67.5t-128 24.5q-85 0 -159.5 -34.5t-129.5 -94t-87 -139.5t-32 -172q0 -58 17 -108t49 -91l-93 -89l24 -25l93 89q42 -42 99.5 -66t127.5 -24q85 0 159 35t129 95.5t86.5 140.5t31.5 170zM647 618
l-504 -483q-26 36 -40.5 80t-14.5 94q0 75 26 145.5t73 125t112.5 88t145.5 33.5q63 0 115 -22t87 -61zM723 424q0 -77 -26.5 -148.5t-74 -126t-113 -87.5t-143.5 -33q-62 0 -112.5 21t-87.5 59l504 483q26 -35 39.5 -77.5t13.5 -90.5z" />
    <glyph glyph-name="OE" unicode="&#x152;" horiz-adv-x="1133" 
d="M1154 730h-368l-38 -218q-9 48 -35 90t-65 73t-89 49t-107 18q-85 0 -159.5 -34.5t-129.5 -94t-87 -139.5t-32 -172q0 -66 23 -123.5t65 -99.5t100 -66.5t129 -24.5q53 0 101.5 14.5t90.5 40.5t77 62t60 80l-33 -185h387l7 40h-346l58 327h292l7 38h-292l51 285h327z
M723 424q0 -77 -26.5 -148.5t-74 -126t-113 -87.5t-143.5 -33q-64 0 -115.5 21.5t-87.5 59.5t-55.5 89t-19.5 110q0 75 26 145.5t73 125t112.5 88t145.5 33.5q63 0 114.5 -22t87.5 -59.5t56 -88t20 -107.5z" />
    <glyph glyph-name="ordmasculine" unicode="&#xba;" horiz-adv-x="442" 
d="M428 592q0 29 -9.5 56t-29 48t-48 34t-65.5 13q-44 0 -80 -17t-62.5 -45t-41 -64.5t-14.5 -75.5q0 -30 9.5 -57.5t28.5 -48.5t47.5 -33.5t66.5 -12.5q40 0 76 15.5t63 43t43 64.5t16 80zM375 336h-309l-6 -33h310zM391 589q0 -34 -12 -64t-33 -53t-50 -36.5t-63 -13.5
q-29 0 -51.5 10t-37.5 27t-22.5 39t-7.5 46q0 34 12 64t33 52.5t50 36t63 13.5q30 0 52 -10t37 -27t22.5 -38.5t7.5 -45.5z" />
    <glyph glyph-name="ae" unicode="&#xe6;" horiz-adv-x="777" 
d="M706 241q0 32 -11 62.5t-33 54.5t-54 38.5t-75 14.5q-57 0 -104 -24t-77 -65q-2 36 -33 63t-95 27q-42 0 -77.5 -8.5t-66.5 -24.5l11 -32q29 14 59 21.5t67 7.5q57 0 82 -23.5t16 -77.5q-1 -4 -2 -11.5t-2 -12.5h-82q-118 0 -177 -41.5t-59 -110.5q0 -53 35 -82t87 -29
q32 0 60.5 7.5t54 20.5t47.5 29t42 34q20 -44 62.5 -67.5t102.5 -23.5q59 0 100.5 19t67.5 43l-24 26q-31 -25 -66 -38t-77 -13q-74 0 -110 40.5t-36 102.5q0 11 1 21t2 18h362q3 5 2.5 15t-0.5 19zM665 240h-315q9 30 26.5 55t41 42.5t52 27.5t60.5 10q67 0 101 -37.5
t34 -97.5zM304 216q-2 -10 -4 -24.5t-2 -29.5t1 -29.5t5 -23.5q-44 -38 -91 -61.5t-91 -23.5t-65.5 23t-21.5 57q0 57 51 84.5t140 27.5h78z" />
    <glyph glyph-name="dotlessi" unicode="&#x131;" horiz-adv-x="171" 
d="M112 401h-41l-71 -401h41z" />
    <glyph glyph-name="lslash" unicode="&#x142;" horiz-adv-x="203" 
d="M106 367l64 363h-41l-67 -379l-77 -27l13 -39l56 20l-54 -305h41l57 321l88 32l-13 38z" />
    <glyph glyph-name="oslash" unicode="&#xf8;" horiz-adv-x="493" 
d="M453 395l-20 22l-61 -54q-23 22 -55 35t-74 13q-52 0 -95.5 -20t-75 -53.5t-49 -77.5t-17.5 -91q0 -62 33 -108l-60 -54l21 -22l59 53q23 -23 56 -36.5t76 -13.5q49 0 92 18.5t75 51t50.5 77t18.5 96.5q0 29 -9 58t-26 52zM343 335l-271 -243q-24 36 -24 81
q0 40 14.5 76.5t40 64.5t60.5 44t76 16q34 0 59.5 -11t44.5 -28zM385 227q0 -41 -14.5 -77.5t-40.5 -64t-61 -43.5t-75 -16q-35 0 -61 11t-44 30l271 244q13 -18 19 -39.5t6 -44.5z" />
    <glyph glyph-name="oe" unicode="&#x153;" horiz-adv-x="860" 
d="M789 241q0 32 -11 62.5t-33 54.5t-54 38.5t-75 14.5q-69 0 -122 -34t-79 -88q-7 25 -21.5 47.5t-36 39t-50.5 26t-64 9.5q-52 0 -95.5 -20t-75 -53.5t-49 -77.5t-17.5 -91q0 -36 12 -68.5t35.5 -57.5t58 -40t79.5 -15q66 0 120.5 34t82.5 88q14 -51 58.5 -86.5
t116.5 -35.5q57 0 98.5 19t67.5 43l-24 26q-31 -25 -65 -38t-75 -13q-36 0 -63.5 12t-46.5 32.5t-28.5 47.5t-9.5 57q0 9 0.5 17t1.5 16h362q1 6 1.5 15.5t0.5 18.5zM748 240h-315q9 30 26.5 55t41 42.5t52 27.5t60.5 10q67 0 101 -37.5t34 -97.5zM385 227
q0 -41 -14.5 -77.5t-40.5 -64t-61 -43.5t-75 -16q-36 0 -63.5 12t-45.5 32.5t-27.5 47t-9.5 55.5q0 40 14.5 76.5t40 64.5t60.5 44t76 16q36 0 63.5 -12t45.5 -32.5t27.5 -47t9.5 -55.5z" />
    <glyph glyph-name="germandbls" unicode="&#xdf;" horiz-adv-x="456" 
d="M415 617q0 55 -36 90t-95 35q-39 0 -69.5 -13t-53 -36.5t-37 -55.5t-21.5 -71l-132 -745h41l132 747q5 30 16.5 55t29 43.5t40 29t49.5 10.5q44 0 69 -26t25 -71q0 -36 -14 -67t-36.5 -54t-52 -36t-60.5 -13h-13l-5 -32h6q34 -2 61 -16t45.5 -38.5t28 -57t9.5 -70.5
t-9.5 -74t-27.5 -63.5t-45 -44.5t-62 -17q-21 0 -37.5 5t-29.5 13l-13 -37q15 -8 33 -13.5t43 -5.5q51 0 87 21.5t59 57t34 79.5t11 89q0 43 -12 76t-30 55.5t-39.5 36t-40.5 18.5q25 3 51.5 18t49 40.5t37 60.5t14.5 77z" />
    <glyph glyph-name="Scaron" unicode="&#x160;" horiz-adv-x="482" 
d="M474 654q-60 88 -181 88q-43 0 -80.5 -14.5t-65.5 -39.5t-44 -59.5t-16 -74.5q0 -33 10.5 -60t29 -49.5t44 -42t54.5 -37.5q37 -23 63.5 -44t43.5 -42t24.5 -44t7.5 -50q0 -35 -14.5 -63.5t-39 -49t-57 -31.5t-68.5 -11q-50 0 -90 21t-69 53l-35 -30q32 -38 82 -62
t107 -24q46 0 88 14.5t74 41.5t51.5 64.5t19.5 83.5q0 33 -9 60t-27 50.5t-45.5 45.5t-64.5 45q-36 23 -61.5 43.5t-41 40t-22.5 39t-7 42.5q0 33 12 59t33 44.5t49 28.5t60 10q47 0 83 -16t63 -57zM448 923h-42l-98 -93l-62 93h-43l80 -131h38z" />
    <glyph glyph-name="scaron" unicode="&#x161;" horiz-adv-x="358" 
d="M305 360q-52 50 -131 50q-28 0 -53.5 -7.5t-44.5 -21.5t-30.5 -34.5t-11.5 -45.5q0 -23 7.5 -39.5t21 -29t31.5 -22t38 -16.5q29 -11 48 -20.5t30.5 -20t16 -22.5t4.5 -28q0 -36 -31 -56t-74 -20q-32 0 -62 13.5t-56 33.5l-24 -33q26 -21 61 -35.5t80 -14.5
q27 0 53.5 7.5t48 22.5t34.5 37t13 51q0 47 -28 72t-84 46q-47 17 -66.5 34.5t-19.5 43.5q0 32 26.5 51t66.5 19q32 0 58.5 -12t48.5 -32zM326 607h-42l-98 -93l-62 93h-43l80 -131h38z" />
    <glyph glyph-name="Yacute" unicode="&#xdd;" horiz-adv-x="628" 
d="M664 730h-55l-292 -340l-175 340h-50l195 -381l-62 -349h45l61 348zM471 926h-47l-99 -134h44z" />
    <glyph glyph-name="yacute" unicode="&#xfd;" horiz-adv-x="396" 
d="M385 401h-45l-194 -351l-81 351h-42l94 -396l-51 -90q-15 -27 -35.5 -47t-47.5 -20q-17 0 -28 3.5t-22 11.5l-7 -40q21 -12 57 -12q38 0 65 23t47 59zM312 610h-47l-99 -134h44z" />
    <glyph glyph-name="Thorn" unicode="&#xde;" horiz-adv-x="526" 
d="M493 408q0 40 -13 73t-41 56t-70.5 36t-102.5 13h-103l25 144h-44l-128 -730h44l30 171h131q63 0 113.5 18.5t86 50.5t54 75t18.5 93zM448 405q0 -41 -14.5 -76t-43 -61t-71 -41t-97.5 -15h-125l58 333h97q103 0 149.5 -37t46.5 -103z" />
    <glyph glyph-name="thorn" unicode="&#xfe;" horiz-adv-x="487" 
d="M428 240q0 36 -11.5 67.5t-33 55.5t-52 37.5t-68.5 13.5q-26 0 -50.5 -7.5t-46.5 -20.5t-39.5 -31t-28.5 -39l73 414h-43l-162 -909h42l44 242q23 -32 59 -54.5t89 -22.5q45 0 86 18.5t72.5 52t50.5 80t19 103.5zM385 233q0 -42 -13.5 -79.5t-37.5 -66t-57 -45t-72 -16.5
q-56 0 -91.5 24.5t-52.5 62.5l15 85q7 41 24.5 74t41.5 55.5t53 34.5t59 12q57 0 94 -35t37 -106z" />
    <glyph glyph-name="Zcaron" unicode="&#x17d;" horiz-adv-x="627" 
d="M637 730h-477l-7 -40h398l-572 -690h531l7 40h-451zM533 923h-42l-98 -93l-62 93h-43l80 -131h38z" />
    <glyph glyph-name="zcaron" unicode="&#x17e;" horiz-adv-x="418" 
d="M396 401h-331l-7 -37h250l-352 -364h351l7 37h-271zM368 605h-42l-98 -93l-62 93h-43l80 -131h38z" />
    <glyph glyph-name="onehalf" unicode="&#xbd;" horiz-adv-x="742" 
d="M134 342l68 388h-38q-12 -24 -32.5 -41.5t-48.5 -23.5l-8 -38q18 1 38.5 10.5t32.5 20.5l-56 -316h44zM670 730h-49l-628 -730h49zM474 40l137 133q36 33 51 59.5t15 58.5q0 44 -29 71t-74 27q-50 0 -83.5 -29t-50.5 -84h42q14 39 35.5 56.5t53.5 17.5q31 0 47.5 -17
t16.5 -43q0 -25 -13 -45.5t-38 -45.5l-208 -199h255l7 40h-164z" />
    <glyph glyph-name="onequarter" unicode="&#xbc;" horiz-adv-x="742" 
d="M134 342l68 388h-38q-12 -24 -32.5 -41.5t-48.5 -23.5l-8 -38q18 1 38.5 10.5t32.5 20.5l-56 -316h44zM670 730h-49l-628 -730h49zM558 98h59l7 40h-59l44 247h-28l-227 -258l-5 -29h167l-17 -98h42zM551 295l-28 -157h-111z" />
    <glyph glyph-name="onesuperior" unicode="&#xb9;" horiz-adv-x="306" 
d="M180 342l68 388h-38q-12 -24 -32.5 -41.5t-48.5 -23.5l-8 -38q18 1 38.5 10.5t32.5 20.5l-56 -316h44z" />
    <glyph glyph-name="threequarters" unicode="&#xbe;" horiz-adv-x="742" 
d="M253 554q43 9 62.5 36t19.5 62q0 39 -29.5 63.5t-75.5 24.5q-34 0 -63 -13t-60 -45l30 -27q21 22 42.5 33t47.5 11q29 0 46.5 -13.5t17.5 -38.5q0 -32 -25.5 -52.5t-70.5 -20.5h-36l-6 -37h37q39 0 61.5 -18.5t22.5 -47.5q0 -38 -25 -62.5t-68 -24.5q-35 0 -58.5 14.5
t-46.5 49.5l-33 -26q21 -38 55.5 -58t81.5 -20q30 0 55.5 10t43.5 27.5t28.5 41t10.5 50.5q0 28 -15 51t-50 30zM742 730h-49l-628 -730h49zM630 98h59l7 40h-59l44 247h-28l-227 -258l-5 -29h167l-17 -98h42zM623 295l-28 -157h-111z" />
    <glyph glyph-name="threesuperior" unicode="&#xb3;" horiz-adv-x="403" 
d="M286 554q43 9 62.5 36t19.5 62q0 39 -29.5 63.5t-75.5 24.5q-34 0 -63 -13t-60 -45l30 -27q21 22 42.5 33t47.5 11q29 0 46.5 -13.5t17.5 -38.5q0 -32 -25.5 -52.5t-70.5 -20.5h-36l-6 -37h37q39 0 61.5 -18.5t22.5 -47.5q0 -38 -25 -62.5t-68 -24.5q-35 0 -58.5 14.5
t-46.5 49.5l-33 -26q21 -38 55.5 -58t81.5 -20q30 0 55.5 10t43.5 27.5t28.5 41t10.5 50.5q0 28 -15 51t-50 30z" />
    <glyph glyph-name="twosuperior" unicode="&#xb2;" horiz-adv-x="421" 
d="M177 392l137 133q36 33 51 59.5t15 58.5q0 44 -29 71t-74 27q-50 0 -83.5 -29t-50.5 -84h42q14 39 35.5 56.5t53.5 17.5q31 0 47.5 -17t16.5 -43q0 -25 -13 -45.5t-38 -45.5l-208 -199h255l7 40h-164z" />
    <glyph glyph-name="brokenbar" unicode="&#xa6;" horiz-adv-x="203" 
d="M82 351h43l67 379h-43zM98 200h-43l-67 -379h43z" />
    <glyph glyph-name="minus" unicode="&#x2212;" horiz-adv-x="503" 
d="M30 310h429l7 40h-429z" />
    <glyph glyph-name="multiply" unicode="&#xd7;" horiz-adv-x="486" 
d="M237 297l113 -137l32 28l-112 137l166 140l-26 31l-166 -140l-115 139l-32 -28l115 -139l-161 -137l26 -31q1 1 16.5 14l40 34l47.5 41l39.5 34z" />
    <glyph glyph-name="eth" unicode="&#xf0;" horiz-adv-x="474" 
d="M427 258q0 77 -18.5 164.5t-72.5 171.5l74 30l-14 37l-82 -33q-26 36 -56 66t-63 55l-23 -26q27 -23 53.5 -50.5t50.5 -59.5l-120 -48l14 -37l127 51q33 -52 55 -114t24 -122q-11 29 -46.5 50t-88.5 21q-52 0 -94.5 -20t-73 -53t-47 -76t-16.5 -89q0 -38 12 -72t35 -59.5
t57.5 -41t78.5 -15.5q45 0 87 17t75 51t52.5 84.5t19.5 117.5zM378 230q0 -41 -13 -78t-37 -64.5t-57 -44t-73 -16.5q-35 0 -61.5 12t-44.5 33t-27.5 49t-9.5 59q0 40 14.5 75t39.5 61t59.5 41.5t75.5 15.5q26 0 50.5 -7t43 -23.5t29.5 -44t11 -68.5z" />
    <glyph glyph-name="Adieresis" unicode="&#xc4;" horiz-adv-x="626" 
d="M542 730h-41l-17 -91h42zM253 730h-41l-17 -91h42zM531 0l-139 742h-25l-402 -742h48l150 280h270l50 -280h48zM426 320h-242l182 339z" />
    <glyph glyph-name="Aring" unicode="&#xc5;" horiz-adv-x="626" 
d="M397 715q37 6 62 34.5t25 67.5q0 19 -7.5 36t-20 29.5t-29 19.5t-35.5 7q-21 0 -40 -8t-33 -22.5t-22.5 -33.5t-8.5 -40q0 -32 19 -56t47 -32l-389 -717h48l150 280h270l50 -280h48zM452 816q0 -27 -20 -49.5t-54 -22.5q-23 0 -40.5 18.5t-17.5 44.5q0 30 22 50.5
t50 20.5q26 0 43 -18t17 -44zM426 320h-242l182 339z" />
    <glyph glyph-name="Ccedilla" unicode="&#xc7;" horiz-adv-x="714" 
d="M324 -11l-45 -54l8 -13q13 3 23.5 4t21.5 1q49 0 49 -30q0 -25 -19.5 -37t-44.5 -12q-21 0 -39.5 6t-32.5 19l-19 -19q18 -16 40 -24.5t49 -8.5q44 0 73 20.5t29 59.5q0 26 -21 38t-47 12q-8 0 -13.5 -0.5t-10.5 -1.5l33 39q88 2 154.5 35.5t115.5 80.5l-27 27
q-56 -48 -112.5 -74.5t-128.5 -26.5q-61 0 -111 20.5t-85 58t-54.5 89t-19.5 114.5q0 75 28 145t76 124t112.5 87t138.5 33t129 -30t92 -83l38 26q-18 28 -44 52t-58 40.5t-70 26t-78 9.5q-86 0 -161 -36t-131 -96.5t-88.5 -139t-32.5 -162.5q0 -69 22.5 -125.5t60.5 -98
t89.5 -66t110.5 -29.5z" />
    <glyph glyph-name="Eacute" unicode="&#xc9;" horiz-adv-x="519" 
d="M513 730h-369l-129 -730h388l7 40h-343l57 325h292l7 40h-292l51 285h324zM398 926h-47l-99 -134h44z" />
    <glyph glyph-name="Ntilde" unicode="&#xd1;" horiz-adv-x="729" 
d="M712 730h-45l-117 -666l-353 666h-54l-128 -730h45l118 669l356 -669h50zM582 879h-37q-11 -65 -44 -65q-14 0 -26.5 10.5t-25.5 23.5q-14 12 -31 23t-37 11q-35 0 -56 -28.5t-29 -71.5h37q5 27 16 45.5t28 18.5q16 0 28 -8.5t24 -19.5q14 -14 30.5 -27t37.5 -13
q68 0 85 101z" />
    <glyph glyph-name="Odieresis" unicode="&#xd6;" horiz-adv-x="810" 
d="M801 730h-43l-16 -92h43zM147 730h-43l-16 -92h43zM769 424q0 66 -23 124t-65 101t-100 68t-128 25q-85 0 -160 -36t-131 -97t-88.5 -140t-32.5 -165q0 -66 23 -123.5t65 -100.5t100 -67.5t128 -24.5q85 0 160 36t131 96t88.5 139t32.5 165zM720 418q0 -79 -29 -149.5
t-78 -124t-114 -84.5t-137 -31q-60 0 -110 20.5t-86 57.5t-56 88.5t-20 114.5q0 79 29 150t78 124.5t114 85t137 31.5q60 0 110 -20.5t86 -58t56 -89.5t20 -115z" />
    <glyph glyph-name="Udieresis" unicode="&#xdc;" horiz-adv-x="671" 
d="M660 730h-45l-80 -454q-11 -60 -34 -105.5t-55.5 -77t-73.5 -47.5t-86 -16q-46 0 -84 16.5t-63 48.5t-35 78.5t1 106.5l79 450h-45l-79 -450q-12 -70 0.5 -124t44 -91.5t78 -57t100.5 -19.5q52 0 100.5 19t87.5 54.5t67 87t40 116.5zM503 730h-41l-17 -91h42zM336 730
h-41l-17 -91h42z" />
    <glyph glyph-name="aacute" unicode="&#xe1;" horiz-adv-x="426" 
d="M352 281q5 27 0.5 51t-20.5 42t-43.5 28.5t-67.5 10.5q-42 0 -77.5 -8.5t-66.5 -24.5l12 -36q28 15 58 23t67 8q55 0 80.5 -23t16.5 -75l-4 -23h-82q-115 0 -175.5 -42t-60.5 -113q0 -53 35 -82t88 -29q48 0 88.5 17.5t69.5 40.5l-8 -46h41zM300 218l-23 -131
q-30 -23 -71.5 -42t-86.5 -19q-42 0 -64.5 21t-22.5 56q0 58 49.5 86.5t140.5 28.5h78zM354 620h-47l-99 -134h44z" />
    <glyph glyph-name="agrave" unicode="&#xe0;" horiz-adv-x="426" 
d="M352 281q5 27 0.5 51t-20.5 42t-43.5 28.5t-67.5 10.5q-42 0 -77.5 -8.5t-66.5 -24.5l12 -36q28 15 58 23t67 8q55 0 80.5 -23t16.5 -75l-4 -23h-82q-115 0 -175.5 -42t-60.5 -113q0 -53 35 -82t88 -29q48 0 88.5 17.5t69.5 40.5l-8 -46h41zM300 218l-23 -131
q-30 -23 -71.5 -42t-86.5 -19q-42 0 -64.5 21t-22.5 56q0 58 49.5 86.5t140.5 28.5h78zM256 486l-85 134h-44l88 -134h41z" />
    <glyph glyph-name="acircumflex" unicode="&#xe2;" horiz-adv-x="426" 
d="M352 281q5 27 0.5 51t-20.5 42t-43.5 28.5t-67.5 10.5q-42 0 -77.5 -8.5t-66.5 -24.5l12 -36q28 15 58 23t67 8q55 0 80.5 -23t16.5 -75l-4 -23h-82q-115 0 -175.5 -42t-60.5 -113q0 -53 35 -82t88 -29q48 0 88.5 17.5t69.5 40.5l-8 -46h41zM300 218l-23 -131
q-30 -23 -71.5 -42t-86.5 -19q-42 0 -64.5 21t-22.5 56q0 58 49.5 86.5t140.5 28.5h78zM343 486l-80 131h-39l-125 -131h45l96 98l61 -98h42z" />
    <glyph glyph-name="adieresis" unicode="&#xe4;" horiz-adv-x="426" 
d="M352 281q5 27 0.5 51t-20.5 42t-43.5 28.5t-67.5 10.5q-42 0 -77.5 -8.5t-66.5 -24.5l12 -36q28 15 58 23t67 8q55 0 80.5 -23t16.5 -75l-4 -23h-82q-115 0 -175.5 -42t-60.5 -113q0 -53 35 -82t88 -29q48 0 88.5 17.5t69.5 40.5l-8 -46h41zM300 218l-23 -131
q-30 -23 -71.5 -42t-86.5 -19q-42 0 -64.5 21t-22.5 56q0 58 49.5 86.5t140.5 28.5h78zM345 577h-41l-17 -91h42zM178 577h-41l-17 -91h42z" />
    <glyph glyph-name="atilde" unicode="&#xe3;" horiz-adv-x="426" 
d="M352 281q5 27 0.5 51t-20.5 42t-43.5 28.5t-67.5 10.5q-42 0 -77.5 -8.5t-66.5 -24.5l12 -36q28 15 58 23t67 8q55 0 80.5 -23t16.5 -75l-4 -23h-82q-115 0 -175.5 -42t-60.5 -113q0 -53 35 -82t88 -29q48 0 88.5 17.5t69.5 40.5l-8 -46h41zM300 218l-23 -131
q-30 -23 -71.5 -42t-86.5 -19q-42 0 -64.5 21t-22.5 56q0 58 49.5 86.5t140.5 28.5h78zM374 583h-37q-11 -65 -44 -65q-14 0 -26.5 10.5t-25.5 23.5q-14 12 -31 23t-37 11q-35 0 -56 -28.5t-29 -71.5h37q5 27 16 45.5t28 18.5q16 0 28 -8.5t24 -19.5q14 -14 30.5 -27
t37.5 -13q68 0 85 101z" />
    <glyph glyph-name="aring" unicode="&#xe5;" horiz-adv-x="426" 
d="M352 281q5 27 0.5 51t-20.5 42t-43.5 28.5t-67.5 10.5q-42 0 -77.5 -8.5t-66.5 -24.5l12 -36q28 15 58 23t67 8q55 0 80.5 -23t16.5 -75l-4 -23h-82q-115 0 -175.5 -42t-60.5 -113q0 -53 35 -82t88 -29q48 0 88.5 17.5t69.5 40.5l-8 -46h41zM300 218l-23 -131
q-30 -23 -71.5 -42t-86.5 -19q-42 0 -64.5 21t-22.5 56q0 58 49.5 86.5t140.5 28.5h78zM330 584q0 19 -7.5 36t-20 29.5t-29 19.5t-35.5 7q-21 0 -40 -8t-33 -22.5t-22.5 -33.5t-8.5 -40q0 -20 7 -36.5t19.5 -29t29 -19.5t35.5 -7q21 0 40.5 8t33.5 22t22.5 33t8.5 41z
M298 583q0 -27 -20 -49.5t-54 -22.5q-23 0 -40.5 18.5t-17.5 44.5q0 30 22 50.5t50 20.5q26 0 43 -18t17 -44z" />
    <glyph glyph-name="ccedilla" unicode="&#xe7;" horiz-adv-x="428" 
d="M150 -11l-45 -54l8 -13q13 3 23.5 4t21.5 1q49 0 49 -30q0 -25 -19.5 -37t-44.5 -12q-21 0 -39.5 6t-32.5 19l-19 -19q18 -16 40 -24.5t49 -8.5q44 0 73 20.5t29 59.5q0 26 -21 38t-47 12q-8 0 -13.5 -0.5t-10.5 -1.5l34 39q53 3 94.5 27t73.5 62l-28 23
q-33 -37 -68 -55.5t-83 -18.5q-29 0 -53.5 12t-41.5 32t-26.5 47.5t-9.5 58.5q0 36 13.5 71.5t37.5 64t58 46t76 17.5q45 0 74 -20t51 -52l37 24q-11 16 -25 31.5t-33 27.5t-45 19.5t-61 7.5q-48 0 -89.5 -21t-71.5 -54.5t-47.5 -76.5t-17.5 -87q0 -42 12 -74.5t32.5 -56
t48 -37t57.5 -17.5z" />
    <glyph glyph-name="eacute" unicode="&#xe9;" horiz-adv-x="444" 
d="M389 245q0 32 -10 62.5t-30 54t-51 37.5t-74 14q-47 0 -88 -18.5t-71.5 -51t-48 -77t-17.5 -96.5q0 -42 13 -75.5t37 -57.5t57 -36.5t74 -12.5q60 0 103.5 19.5t69.5 41.5l-25 27q-29 -23 -63.5 -36.5t-75.5 -13.5q-73 0 -109.5 41.5t-36.5 107.5q0 8 0.5 15.5t1.5 15.5
h342q1 7 1.5 18t0.5 21zM344 242h-292q17 61 63 97t106 36q32 0 55.5 -10t38.5 -28t22 -42.5t7 -52.5zM345 620h-47l-99 -134h44z" />
    <glyph glyph-name="egrave" unicode="&#xe8;" horiz-adv-x="444" 
d="M389 245q0 32 -10 62.5t-30 54t-51 37.5t-74 14q-47 0 -88 -18.5t-71.5 -51t-48 -77t-17.5 -96.5q0 -42 13 -75.5t37 -57.5t57 -36.5t74 -12.5q60 0 103.5 19.5t69.5 41.5l-25 27q-29 -23 -63.5 -36.5t-75.5 -13.5q-73 0 -109.5 41.5t-36.5 107.5q0 8 0.5 15.5t1.5 15.5
h342q1 7 1.5 18t0.5 21zM344 242h-292q17 61 63 97t106 36q32 0 55.5 -10t38.5 -28t22 -42.5t7 -52.5zM252 486l-85 134h-44l88 -134h41z" />
    <glyph glyph-name="ecircumflex" unicode="&#xea;" horiz-adv-x="444" 
d="M389 245q0 32 -10 62.5t-30 54t-51 37.5t-74 14q-47 0 -88 -18.5t-71.5 -51t-48 -77t-17.5 -96.5q0 -42 13 -75.5t37 -57.5t57 -36.5t74 -12.5q60 0 103.5 19.5t69.5 41.5l-25 27q-29 -23 -63.5 -36.5t-75.5 -13.5q-73 0 -109.5 41.5t-36.5 107.5q0 8 0.5 15.5t1.5 15.5
h342q1 7 1.5 18t0.5 21zM344 242h-292q17 61 63 97t106 36q32 0 55.5 -10t38.5 -28t22 -42.5t7 -52.5zM352 476l-80 131h-39l-125 -131h45l96 98l61 -98h42z" />
    <glyph glyph-name="edieresis" unicode="&#xeb;" horiz-adv-x="444" 
d="M389 245q0 32 -10 62.5t-30 54t-51 37.5t-74 14q-47 0 -88 -18.5t-71.5 -51t-48 -77t-17.5 -96.5q0 -42 13 -75.5t37 -57.5t57 -36.5t74 -12.5q60 0 103.5 19.5t69.5 41.5l-25 27q-29 -23 -63.5 -36.5t-75.5 -13.5q-73 0 -109.5 41.5t-36.5 107.5q0 8 0.5 15.5t1.5 15.5
h342q1 7 1.5 18t0.5 21zM344 242h-292q17 61 63 97t106 36q32 0 55.5 -10t38.5 -28t22 -42.5t7 -52.5zM354 577h-41l-17 -91h42zM187 577h-41l-17 -91h42z" />
    <glyph glyph-name="iacute" unicode="&#xed;" horiz-adv-x="171" 
d="M112 401h-41l-71 -401h41zM235 620h-47l-99 -134h44z" />
    <glyph glyph-name="igrave" unicode="&#xec;" horiz-adv-x="171" 
d="M112 401h-41l-71 -401h41zM116 486l-85 134h-44l88 -134h41z" />
    <glyph glyph-name="icircumflex" unicode="&#xee;" horiz-adv-x="171" 
d="M112 401h-41l-71 -401h41zM217 476l-80 131h-39l-125 -131h45l96 98l61 -98h42z" />
    <glyph glyph-name="idieresis" unicode="&#xef;" horiz-adv-x="171" 
d="M112 401h-41l-71 -401h41zM222 577h-41l-17 -91h42zM55 577h-41l-17 -91h42z" />
    <glyph glyph-name="ntilde" unicode="&#xf1;" horiz-adv-x="448" 
d="M370 256q6 33 1 61.5t-20.5 50t-42 33.5t-64.5 12q-45 0 -83 -22t-61 -56l12 66h-41l-71 -401h41l43 246q4 23 18 46.5t34 42t45.5 30.5t53.5 12q56 0 79.5 -35t13.5 -92l-44 -250h41zM388 583h-37q-11 -65 -44 -65q-14 0 -26.5 10.5t-25.5 23.5q-14 12 -31 23t-37 11
q-35 0 -56 -28.5t-29 -71.5h37q5 27 16 45.5t28 18.5q16 0 28 -8.5t24 -19.5q14 -14 30.5 -27t37.5 -13q68 0 85 101z" />
    <glyph glyph-name="oacute" unicode="&#xf3;" horiz-adv-x="490" 
d="M429 234q0 40 -14.5 73t-39.5 56.5t-59 36.5t-74 13q-49 0 -92.5 -19t-76.5 -52t-52 -78t-19 -97q0 -40 14.5 -73t39.5 -56.5t59 -36.5t74 -13q49 0 92.5 19t76.5 52t52 78t19 97zM385 228q0 -42 -14.5 -78.5t-40 -64t-61 -43.5t-76.5 -16q-35 0 -62.5 11.5t-46.5 32
t-28.5 47t-9.5 56.5q0 42 14.5 78.5t40 64t61 43.5t76.5 16q35 0 62.5 -11.5t46 -32t28.5 -47t10 -56.5zM362 620h-47l-99 -134h44z" />
    <glyph glyph-name="ograve" unicode="&#xf2;" horiz-adv-x="490" 
d="M429 234q0 40 -14.5 73t-39.5 56.5t-59 36.5t-74 13q-49 0 -92.5 -19t-76.5 -52t-52 -78t-19 -97q0 -40 14.5 -73t39.5 -56.5t59 -36.5t74 -13q49 0 92.5 19t76.5 52t52 78t19 97zM385 228q0 -42 -14.5 -78.5t-40 -64t-61 -43.5t-76.5 -16q-35 0 -62.5 11.5t-46.5 32
t-28.5 47t-9.5 56.5q0 42 14.5 78.5t40 64t61 43.5t76.5 16q35 0 62.5 -11.5t46 -32t28.5 -47t10 -56.5zM256 486l-85 134h-44l88 -134h41z" />
    <glyph glyph-name="ocircumflex" unicode="&#xf4;" horiz-adv-x="490" 
d="M429 234q0 40 -14.5 73t-39.5 56.5t-59 36.5t-74 13q-49 0 -92.5 -19t-76.5 -52t-52 -78t-19 -97q0 -40 14.5 -73t39.5 -56.5t59 -36.5t74 -13q49 0 92.5 19t76.5 52t52 78t19 97zM385 228q0 -42 -14.5 -78.5t-40 -64t-61 -43.5t-76.5 -16q-35 0 -62.5 11.5t-46.5 32
t-28.5 47t-9.5 56.5q0 42 14.5 78.5t40 64t61 43.5t76.5 16q35 0 62.5 -11.5t46 -32t28.5 -47t10 -56.5zM374 476l-80 131h-39l-125 -131h45l96 98l61 -98h42z" />
    <glyph glyph-name="odieresis" unicode="&#xf6;" horiz-adv-x="490" 
d="M429 234q0 40 -14.5 73t-39.5 56.5t-59 36.5t-74 13q-49 0 -92.5 -19t-76.5 -52t-52 -78t-19 -97q0 -40 14.5 -73t39.5 -56.5t59 -36.5t74 -13q49 0 92.5 19t76.5 52t52 78t19 97zM385 228q0 -42 -14.5 -78.5t-40 -64t-61 -43.5t-76.5 -16q-35 0 -62.5 11.5t-46.5 32
t-28.5 47t-9.5 56.5q0 42 14.5 78.5t40 64t61 43.5t76.5 16q35 0 62.5 -11.5t46 -32t28.5 -47t10 -56.5zM375 577h-41l-17 -91h42zM208 577h-41l-17 -91h42z" />
    <glyph glyph-name="otilde" unicode="&#xf5;" horiz-adv-x="490" 
d="M429 234q0 40 -14.5 73t-39.5 56.5t-59 36.5t-74 13q-49 0 -92.5 -19t-76.5 -52t-52 -78t-19 -97q0 -40 14.5 -73t39.5 -56.5t59 -36.5t74 -13q49 0 92.5 19t76.5 52t52 78t19 97zM385 228q0 -42 -14.5 -78.5t-40 -64t-61 -43.5t-76.5 -16q-35 0 -62.5 11.5t-46.5 32
t-28.5 47t-9.5 56.5q0 42 14.5 78.5t40 64t61 43.5t76.5 16q35 0 62.5 -11.5t46 -32t28.5 -47t10 -56.5zM400 583h-37q-11 -65 -44 -65q-14 0 -26.5 10.5t-25.5 23.5q-14 12 -31 23t-37 11q-35 0 -56 -28.5t-29 -71.5h37q5 27 16 45.5t28 18.5q16 0 28 -8.5t24 -19.5
q14 -14 30.5 -27t37.5 -13q68 0 85 101z" />
    <glyph glyph-name="uacute" unicode="&#xfa;" horiz-adv-x="448" 
d="M389 401h-41l-43 -246q-4 -23 -18 -46.5t-34 -42t-45.5 -30.5t-53.5 -12q-56 0 -79.5 35t-13.5 92l44 250h-41l-45 -256q-6 -33 -1 -61.5t20.5 -50t42 -33.5t64.5 -12q45 0 83 22t61 56l-12 -66h41zM339 610h-47l-99 -134h44z" />
    <glyph glyph-name="ugrave" unicode="&#xf9;" horiz-adv-x="448" 
d="M389 401h-41l-43 -246q-4 -23 -18 -46.5t-34 -42t-45.5 -30.5t-53.5 -12q-56 0 -79.5 35t-13.5 92l44 250h-41l-45 -256q-6 -33 -1 -61.5t20.5 -50t42 -33.5t64.5 -12q45 0 83 22t61 56l-12 -66h41zM268 476l-85 134h-44l88 -134h41z" />
    <glyph glyph-name="ucircumflex" unicode="&#xfb;" horiz-adv-x="448" 
d="M389 401h-41l-43 -246q-4 -23 -18 -46.5t-34 -42t-45.5 -30.5t-53.5 -12q-56 0 -79.5 35t-13.5 92l44 250h-41l-45 -256q-6 -33 -1 -61.5t20.5 -50t42 -33.5t64.5 -12q45 0 83 22t61 56l-12 -66h41zM354 476l-80 131h-39l-125 -131h45l96 98l61 -98h42z" />
    <glyph glyph-name="udieresis" unicode="&#xfc;" horiz-adv-x="448" 
d="M389 401h-41l-43 -246q-4 -23 -18 -46.5t-34 -42t-45.5 -30.5t-53.5 -12q-56 0 -79.5 35t-13.5 92l44 250h-41l-45 -256q-6 -33 -1 -61.5t20.5 -50t42 -33.5t64.5 -12q45 0 83 22t61 56l-12 -66h41zM357 567h-41l-17 -91h42zM190 567h-41l-17 -91h42z" />
    <glyph glyph-name="degree" unicode="&#xb0;" horiz-adv-x="374" 
d="M368 585q0 33 -12.5 61.5t-33.5 49.5t-49.5 33.5t-61.5 12.5t-61.5 -12.5t-49.5 -33.5t-33.5 -49.5t-12.5 -61.5t12.5 -61.5t33.5 -49.5t49.5 -33.5t61.5 -12.5t61.5 12.5t49.5 33.5t33.5 49.5t12.5 61.5zM329 585q0 -25 -9 -46.5t-25 -37.5t-37.5 -25t-46.5 -9t-46.5 9
t-37.5 25t-25 37.5t-9 46.5t9 46.5t25 37.5t37.5 25t46.5 9t46.5 -9t37.5 -25t25 -37.5t9 -46.5z" />
    <glyph glyph-name="registered" unicode="&#xae;" horiz-adv-x="844" 
d="M799 365q0 78 -29.5 146.5t-81 120t-120 81t-146.5 29.5t-146.5 -29.5t-120 -81t-81 -120t-29.5 -146.5t29.5 -146.5t81 -120t120 -81t146.5 -29.5t146.5 29.5t120 81t81 120t29.5 146.5zM765 364q0 -71 -26.5 -133.5t-73 -109t-109 -73.5t-134.5 -27t-134.5 27
t-109 73.5t-73 109t-26.5 133.5t26.5 133.5t73 109.5t109 74.5t134.5 27.5t134.5 -27.5t109 -74.5t73 -109.5t26.5 -133.5zM575 155l-173 193h14q29 0 55.5 7.5t47 22.5t32.5 38.5t12 55.5q0 28 -11 50.5t-30 38.5t-44.5 24t-53.5 8h-119v-438h39v205l180 -205h51zM522 472
q0 -43 -28.5 -66t-75.5 -23h-74v173h80q43 0 70.5 -22t27.5 -62z" />
    <glyph glyph-name="copyright" unicode="&#xa9;" horiz-adv-x="844" 
d="M799 365q0 78 -29.5 146.5t-81 120t-120 81t-146.5 29.5t-146.5 -29.5t-120 -81t-81 -120t-29.5 -146.5t29.5 -146.5t81 -120t120 -81t146.5 -29.5t146.5 29.5t120 81t81 120t29.5 146.5zM765 364q0 -71 -26.5 -133.5t-73 -109t-109 -73.5t-134.5 -27t-134.5 27
t-109 73.5t-73 109t-26.5 133.5t26.5 133.5t73 109.5t109 74.5t134.5 27.5t134.5 -27.5t109 -74.5t73 -109.5t26.5 -133.5zM586 217l-28 25q-27 -29 -58 -45.5t-79 -16.5q-37 0 -68 15t-53.5 40.5t-35.5 60t-13 73.5q0 38 12.5 72t35 59t54.5 39.5t71 14.5t70.5 -14.5
t54.5 -40.5l28 26q-26 32 -68 50t-91 18q-46 0 -84.5 -18t-66 -49t-43 -72t-15.5 -87q0 -48 16.5 -89.5t45 -72t67.5 -47.5t84 -17q29 0 54 7t45.5 18t37 24.5t27.5 26.5z" />
    <glyph glyph-name="trademark" unicode="&#x2122;" horiz-adv-x="789" 
d="M735 292v438h-42l-150 -236l-151 236h-41v-438h35v387l148 -230h18l148 230v-387h35zM273 698v32h-250v-32h108v-406h35v406h107z" />
    <glyph glyph-name="notequal" unicode="&#x2260;" horiz-adv-x="406" 
d="M459 730h-34q-35 0 -62 -20.5t-35 -67.5l-42 -241h-162l41 234q6 33 19.5 45t33.5 12h31l7 38h-34q-35 0 -62 -20.5t-35 -67.5l-42 -241h-70l-7 -36h70l-96 -544h41l96 544h162l-96 -544h41l96 544h74l7 36h-74l41 234q6 33 19.5 45t33.5 12h31z" />
    <glyph glyph-name="infinity" unicode="&#x221e;" horiz-adv-x="577" 
d="M552 593h-41l-15 -80h41zM459 730h-34q-35 0 -62 -20.5t-35 -67.5l-42 -241h-162l41 234q6 33 19.5 45t33.5 12h31l7 38h-34q-35 0 -62 -20.5t-35 -67.5l-42 -241h-70l-7 -36h70l-96 -544h41l96 544h162l-96 -544h41l96 544h74l7 36h-74l41 234q6 33 19.5 45t33.5 12h31z
M518 401h-41l-71 -401h41z" />
    <glyph glyph-name="plusminus" unicode="&#xb1;" horiz-adv-x="577" 
d="M576 730h-41l-129 -730h41zM459 730h-34q-35 0 -62 -20.5t-35 -67.5l-42 -241h-162l41 234q6 33 19.5 45t33.5 12h31l7 38h-34q-35 0 -62 -20.5t-35 -67.5l-42 -241h-70l-7 -36h70l-96 -544h41l96 544h162l-96 -544h41l96 544h74l7 36h-74l41 234q6 33 19.5 45t33.5 12
h31z" />
    <glyph glyph-name="lessequal" unicode="&#x2264;" 
d="M407 688v42h-84v-42h84zM730 323v84h-42v-84h42zM407 323v84h-84v-84h84zM42 323v84h-42v-84h42zM407 0v42h-84v-42h84z" />
    <glyph glyph-name="greaterequal" unicode="&#x2265;" 
d="M407 688v42h-84v-42h84zM730 323v84h-42v-84h42zM407 323v84h-84v-84h84zM42 323v84h-42v-84h42zM407 0v42h-84v-42h84z" />
    <glyph glyph-name="mu" unicode="&#xb5;" 
d="M407 688v42h-84v-42h84zM730 323v84h-42v-84h42zM407 323v84h-84v-84h84zM42 323v84h-42v-84h42zM407 0v42h-84v-42h84z" />
    <glyph glyph-name="mu" unicode="&#x3bc;" 
d="M407 688v42h-84v-42h84zM730 323v84h-42v-84h42zM407 323v84h-84v-84h84zM42 323v84h-42v-84h42zM407 0v42h-84v-42h84z" />
    <glyph glyph-name="partialdiff" unicode="&#x2202;" 
d="M407 688v42h-84v-42h84zM730 323v84h-42v-84h42zM407 323v84h-84v-84h84zM42 323v84h-42v-84h42zM407 0v42h-84v-42h84z" />
    <glyph glyph-name="summation" unicode="&#x2211;" 
d="M407 688v42h-84v-42h84zM730 323v84h-42v-84h42zM407 323v84h-84v-84h84zM42 323v84h-42v-84h42zM407 0v42h-84v-42h84z" />
    <glyph glyph-name="product" unicode="&#x220f;" 
d="M407 688v42h-84v-42h84zM730 323v84h-42v-84h42zM407 323v84h-84v-84h84zM42 323v84h-42v-84h42zM407 0v42h-84v-42h84z" />
    <glyph glyph-name="pi" unicode="&#x3c0;" horiz-adv-x="844" 
d="M799 365q0 78 -29.5 146.5t-81 120t-120 81t-146.5 29.5t-146.5 -29.5t-120 -81t-81 -120t-29.5 -146.5t29.5 -146.5t81 -120t120 -81t146.5 -29.5t146.5 29.5t120 81t81 120t29.5 146.5zM765 364q0 -71 -26.5 -133.5t-73 -109t-109 -73.5t-134.5 -27t-134.5 27
t-109 73.5t-73 109t-26.5 133.5t26.5 133.5t73 109.5t109 74.5t134.5 27.5t134.5 -27.5t109 -74.5t73 -109.5t26.5 -133.5zM577 459q0 57 -39.5 91t-105.5 34h-110v-438h40v184h70q32 0 59 9.5t46 26.5t29.5 40.5t10.5 52.5zM536 458q0 -37 -25 -64t-85 -27h-64v180h71
q48 0 75.5 -23.5t27.5 -65.5z" />
    <glyph glyph-name="integral" unicode="&#x222b;" 
d="M407 688v42h-84v-42h84zM730 323v84h-42v-84h42zM407 323v84h-84v-84h84zM42 323v84h-42v-84h42zM407 0v42h-84v-42h84z" />
    <glyph glyph-name="Omega" unicode="&#x2126;" horiz-adv-x="486" 
d="M426 401h-41l-12 -69q-21 34 -57 57t-90 23q-45 0 -86 -18.5t-72 -52t-49.5 -80t-18.5 -101.5q0 -36 11.5 -68t32.5 -55t51 -36.5t67 -13.5q27 0 52 8t47 21t39 30.5t29 35.5l-15 -83h41zM363 277l-13 -76q-6 -36 -22.5 -68t-40.5 -56t-54 -38t-64 -14q-56 0 -90.5 35.5
t-34.5 105.5q0 42 13 80t36 66.5t55 45t70 16.5q55 0 90 -26t55 -71z" />
    <glyph glyph-name="logicalnot" unicode="&#xac;" 
d="M407 688v42h-84v-42h84zM730 323v84h-42v-84h42zM407 323v84h-84v-84h84zM42 323v84h-42v-84h42zM407 0v42h-84v-42h84z" />
    <glyph glyph-name="radical" unicode="&#x221a;" horiz-adv-x="501" 
d="M538 730h-44l-351 -660l-7 -16l-6 17l-79 245h-46l112 -337h20z" />
    <glyph glyph-name="approxequal" unicode="&#x2248;" 
d="M407 688v42h-84v-42h84zM730 323v84h-42v-84h42zM407 323v84h-84v-84h84zM42 323v84h-42v-84h42zM407 0v42h-84v-42h84z" />
    <glyph glyph-name="Delta" unicode="&#x2206;" 
d="M407 688v42h-84v-42h84zM730 323v84h-42v-84h42zM407 323v84h-84v-84h84zM42 323v84h-42v-84h42zM407 0v42h-84v-42h84z" />
    <glyph glyph-name="nonbreakingspace" unicode="&#xa0;" horiz-adv-x="98" 
 />
    <glyph glyph-name="Agrave" unicode="&#xc0;" horiz-adv-x="626" 
d="M531 0l-139 742h-25l-402 -742h48l150 280h270l50 -280h48zM426 320h-242l182 339zM395 792l-85 134h-44l88 -134h41z" />
    <glyph glyph-name="Atilde" unicode="&#xc3;" horiz-adv-x="626" 
d="M531 0l-139 742h-25l-402 -742h48l150 280h270l50 -280h48zM426 320h-242l182 339zM540 889h-37q-11 -65 -44 -65q-14 0 -26.5 10.5t-25.5 23.5q-14 12 -31 23t-37 11q-35 0 -56 -28.5t-29 -71.5h37q5 27 16 45.5t28 18.5q16 0 28 -8.5t24 -19.5q14 -14 30.5 -27
t37.5 -13q68 0 85 101z" />
    <glyph glyph-name="Otilde" unicode="&#xd5;" horiz-adv-x="810" 
d="M769 424q0 66 -23 124t-65 101t-100 68t-128 25q-85 0 -160 -36t-131 -97t-88.5 -140t-32.5 -165q0 -66 23 -123.5t65 -100.5t100 -67.5t128 -24.5q85 0 160 36t131 96t88.5 139t32.5 165zM720 418q0 -79 -29 -149.5t-78 -124t-114 -84.5t-137 -31q-60 0 -110 20.5
t-86 57.5t-56 88.5t-20 114.5q0 79 29 150t78 124.5t114 85t137 31.5q60 0 110 -20.5t86 -58t56 -89.5t20 -115zM618 889h-37q-11 -65 -44 -65q-14 0 -26.5 10.5t-25.5 23.5q-14 12 -31 23t-37 11q-35 0 -56 -28.5t-29 -71.5h37q5 27 16 45.5t28 18.5q16 0 28 -8.5t24 -19.5
q14 -14 30.5 -27t37.5 -13q68 0 85 101z" />
    <glyph glyph-name="divide" unicode="&#xf7;" 
d="M407 688v42h-84v-42h84zM730 323v84h-42v-84h42zM407 323v84h-84v-84h84zM42 323v84h-42v-84h42zM407 0v42h-84v-42h84z" />
    <glyph glyph-name="lozenge" unicode="&#x25ca;" 
d="M407 688v42h-84v-42h84zM730 323v84h-42v-84h42zM407 323v84h-84v-84h84zM42 323v84h-42v-84h42zM407 0v42h-84v-42h84z" />
    <glyph glyph-name="ydieresis" unicode="&#xff;" horiz-adv-x="396" 
d="M385 401h-45l-194 -351l-81 351h-42l94 -396l-51 -90q-15 -27 -35.5 -47t-47.5 -20q-17 0 -28 3.5t-22 11.5l-7 -40q21 -12 57 -12q38 0 65 23t47 59zM334 567h-41l-17 -91h42zM167 567h-41l-17 -91h42z" />
    <glyph glyph-name="Ydieresis" unicode="&#x178;" horiz-adv-x="628" 
d="M664 730h-55l-292 -340l-175 340h-50l195 -381l-62 -349h45l61 348zM490 882h-41l-17 -91h42zM323 882h-41l-17 -91h42z" />
    <glyph glyph-name="Acircumflex" unicode="&#xc2;" horiz-adv-x="626" 
d="M531 0l-139 742h-25l-402 -742h48l150 280h270l50 -280h48zM426 320h-242l182 339zM504 788l-80 131h-39l-125 -131h45l96 98l61 -98h42z" />
    <glyph glyph-name="Ecircumflex" unicode="&#xca;" horiz-adv-x="519" 
d="M513 730h-369l-129 -730h388l7 40h-343l57 325h292l7 40h-292l51 285h324zM446 792l-80 131h-39l-125 -131h45l96 98l61 -98h42z" />
    <glyph glyph-name="Aacute" unicode="&#xc1;" horiz-adv-x="626" 
d="M531 0l-139 742h-25l-402 -742h48l150 280h270l50 -280h48zM426 320h-242l182 339zM516 926h-47l-99 -134h44z" />
    <glyph glyph-name="Edieresis" unicode="&#xcb;" horiz-adv-x="519" 
d="M513 730h-369l-129 -730h388l7 40h-343l57 325h292l7 40h-292l51 285h324zM449 883h-41l-17 -91h42zM282 883h-41l-17 -91h42z" />
    <glyph glyph-name="Egrave" unicode="&#xc8;" horiz-adv-x="519" 
d="M513 730h-369l-129 -730h388l7 40h-343l57 325h292l7 40h-292l51 285h324zM396 792l-85 134h-44l88 -134h41z" />
    <glyph glyph-name="Iacute" unicode="&#xcd;" horiz-adv-x="205" 
d="M189 730h-45l-129 -730h45zM297 926h-47l-99 -134h44z" />
    <glyph glyph-name="Icircumflex" unicode="&#xce;" horiz-adv-x="205" 
d="M189 730h-45l-129 -730h45zM293 782l-80 131h-39l-125 -131h45l96 98l61 -98h42z" />
    <glyph glyph-name="Idieresis" unicode="&#xcf;" horiz-adv-x="205" 
d="M189 730h-45l-129 -730h45zM291 883h-41l-17 -91h42zM124 883h-41l-17 -91h42z" />
    <glyph glyph-name="Igrave" unicode="&#xcc;" horiz-adv-x="205" 
d="M189 730h-45l-129 -730h45zM189 792l-85 134h-44l88 -134h41z" />
    <glyph glyph-name="Oacute" unicode="&#xd3;" horiz-adv-x="810" 
d="M769 424q0 66 -23 124t-65 101t-100 68t-128 25q-85 0 -160 -36t-131 -97t-88.5 -140t-32.5 -165q0 -66 23 -123.5t65 -100.5t100 -67.5t128 -24.5q85 0 160 36t131 96t88.5 139t32.5 165zM720 418q0 -79 -29 -149.5t-78 -124t-114 -84.5t-137 -31q-60 0 -110 20.5
t-86 57.5t-56 88.5t-20 114.5q0 79 29 150t78 124.5t114 85t137 31.5q60 0 110 -20.5t86 -58t56 -89.5t20 -115zM567 926h-47l-99 -134h44z" />
    <glyph glyph-name="Ocircumflex" unicode="&#xd4;" horiz-adv-x="810" 
d="M769 424q0 66 -23 124t-65 101t-100 68t-128 25q-85 0 -160 -36t-131 -97t-88.5 -140t-32.5 -165q0 -66 23 -123.5t65 -100.5t100 -67.5t128 -24.5q85 0 160 36t131 96t88.5 139t32.5 165zM720 418q0 -79 -29 -149.5t-78 -124t-114 -84.5t-137 -31q-60 0 -110 20.5
t-86 57.5t-56 88.5t-20 114.5q0 79 29 150t78 124.5t114 85t137 31.5q60 0 110 -20.5t86 -58t56 -89.5t20 -115zM579 792l-80 131h-39l-125 -131h45l96 98l61 -98h42z" />
    <glyph glyph-name="apple" unicode="&#xf8ff;" 
d="M407 688v42h-84v-42h84zM730 323v84h-42v-84h42zM407 323v84h-84v-84h84zM42 323v84h-42v-84h42zM407 0v42h-84v-42h84z" />
    <glyph glyph-name="Ograve" unicode="&#xd2;" horiz-adv-x="810" 
d="M769 424q0 66 -23 124t-65 101t-100 68t-128 25q-85 0 -160 -36t-131 -97t-88.5 -140t-32.5 -165q0 -66 23 -123.5t65 -100.5t100 -67.5t128 -24.5q85 0 160 36t131 96t88.5 139t32.5 165zM720 418q0 -79 -29 -149.5t-78 -124t-114 -84.5t-137 -31q-60 0 -110 20.5
t-86 57.5t-56 88.5t-20 114.5q0 79 29 150t78 124.5t114 85t137 31.5q60 0 110 -20.5t86 -58t56 -89.5t20 -115zM486 792l-85 134h-44l88 -134h41z" />
    <glyph glyph-name="Uacute" unicode="&#xda;" horiz-adv-x="671" 
d="M660 730h-45l-80 -454q-11 -60 -34 -105.5t-55.5 -77t-73.5 -47.5t-86 -16q-46 0 -84 16.5t-63 48.5t-35 78.5t1 106.5l79 450h-45l-79 -450q-12 -70 0.5 -124t44 -91.5t78 -57t100.5 -19.5q52 0 100.5 19t87.5 54.5t67 87t40 116.5zM498 925h-47l-99 -134h44z" />
    <glyph glyph-name="Ucircumflex" unicode="&#xdb;" horiz-adv-x="671" 
d="M660 730h-45l-80 -454q-11 -60 -34 -105.5t-55.5 -77t-73.5 -47.5t-86 -16q-46 0 -84 16.5t-63 48.5t-35 78.5t1 106.5l79 450h-45l-79 -450q-12 -70 0.5 -124t44 -91.5t78 -57t100.5 -19.5q52 0 100.5 19t87.5 54.5t67 87t40 116.5zM530 791l-80 131h-39l-125 -131h45
l96 98l61 -98h42z" />
    <glyph glyph-name="Ugrave" unicode="&#xd9;" horiz-adv-x="671" 
d="M660 730h-45l-80 -454q-11 -60 -34 -105.5t-55.5 -77t-73.5 -47.5t-86 -16q-46 0 -84 16.5t-63 48.5t-35 78.5t1 106.5l79 450h-45l-79 -450q-12 -70 0.5 -124t44 -91.5t78 -57t100.5 -19.5q52 0 100.5 19t87.5 54.5t67 87t40 116.5zM457 791l-85 134h-44l88 -134h41z
" />
    <glyph glyph-name="Euro" unicode="&#x20ac;" horiz-adv-x="567" 
d="M578 609q-19 59 -61 96t-117 37q-53 0 -99.5 -23.5t-84.5 -65t-67 -99t-46 -124.5h-72l-4 -28h69q-9 -44 -12 -86h-72l-4 -29h74v-29q0 -59 12.5 -108.5t37 -85.5t61 -56t84.5 -20q72 0 125.5 34.5t98.5 98.5l-36 22q-36 -51 -80.5 -82t-103.5 -31q-41 0 -70 18.5
t-47.5 50t-26.5 73.5t-8 89v26h257l4 29h-259q2 21 5 43t8 43h261l4 28h-259q15 56 39 105.5t56 86t71 58t84 21.5q30 0 52 -9t38.5 -24t28.5 -35.5t20 -42.5z" />
    <glyph glyph-name="NUL" horiz-adv-x="0" 
 />
    <glyph glyph-name="Eth" unicode="&#xd0;" horiz-adv-x="662" 
d="M85 353l-63 -353h143q91 0 174.5 28.5t146.5 83t100.5 134.5t37.5 183q0 70 -24.5 125.5t-69 94.5t-106.5 60t-137 21h-135l-60 -335h-60l-7 -42h60zM137 395l52 295h95q67 0 121.5 -18.5t93 -53.5t59 -84.5t20.5 -111.5q0 -89 -32.5 -159.5t-88 -120t-131 -76
t-160.5 -26.5h-92l55 313h185l7 42h-184z" />
    </font>
</defs>
</svg>
