<?xml version="1.0" standalone="no"?>
<!DOCTYPE svg PUBLIC "-//W3C//DTD SVG 1.1//EN" "http://www.w3.org/Graphics/SVG/1.1/DTD/svg11.dtd" >
<svg xmlns="http://www.w3.org/2000/svg" xmlns:xlink="http://www.w3.org/1999/xlink" version="1.1">
<metadata>
Created by FontForge 20150824 at Fri Mar 18 00:47:25 2016
 By Everything Fonts
Copyright (c) 2005-2013 Canada Type. Trump Gothic is a trade mark of Canada Type. All rights reserved.
</metadata>
<defs>
<font id="TrumpGothicPro-Bold" horiz-adv-x="339" >
  <font-face 
    font-family="Trump Gothic Pro"
    font-weight="700"
    font-stretch="normal"
    units-per-em="1000"
    panose-1="2 0 5 8 2 0 0 2 0 4"
    ascent="780"
    descent="-220"
    x-height="567"
    cap-height="766"
    bbox="-108 -228 1032 989"
    underline-thickness="50"
    underline-position="-100"
    unicode-range="U+0020-FB04"
  />
<missing-glyph horiz-adv-x="430" 
d="M380 0h-330v766h330v-766zM110 132l92 265l-92 244v-509zM299 52l-80 278l-87 -278h167zM219 468l76 246h-155zM320 130v510l-76 -244z" />
    <glyph glyph-name="ff" unicode="ff" horiz-adv-x="439" 
d="M368 0h-100v474h-106v-474h-100v474h-55v93h55v70c0 108 43 140 113 140c18 0 40 -2 53 -7v-83c-7 1 -13 2 -20 2c-40 0 -46 -29 -46 -78v-44h106v70c0 108 43 140 113 140c18 0 40 -2 53 -7v-83c-7 1 -13 2 -20 2c-40 0 -46 -29 -46 -78v-44h65v-93h-65v-474z" />
    <glyph glyph-name="fi" unicode="fi" horiz-adv-x="402" 
d="M162 0h-100v474h-55v93h55v70c0 108 43 140 113 140c18 0 40 -2 53 -7v-83c-7 1 -13 2 -20 2c-40 0 -46 -29 -46 -78v-44h65v-93h-65v-474zM368 0h-100v567h100v-567zM318 625c-35 0 -63 28 -63 63s28 63 63 63s63 -28 63 -63s-28 -63 -63 -63z" />
    <glyph glyph-name="f_j" unicode="fj" horiz-adv-x="402" 
d="M162 0h-100v474h-55v93h55v70c0 108 43 140 113 140c18 0 40 -2 53 -7v-83c-7 1 -13 2 -20 2c-40 0 -46 -29 -46 -78v-44h65v-93h-65v-474zM202 -203v80c7 -1 10 -1 16 -1c43 0 50 27 50 77v614h100v-625c0 -107 -33 -150 -122 -150c-19 0 -31 2 -44 5zM318 625
c-35 0 -63 28 -63 63s28 63 63 63s63 -28 63 -63s-28 -63 -63 -63z" />
    <glyph glyph-name="fl" unicode="fl" horiz-adv-x="403" 
d="M162 0h-100v474h-55v93h55v70c0 108 43 140 113 140c18 0 40 -2 53 -7v-83c-7 1 -13 2 -20 2c-40 0 -46 -29 -46 -78v-44h65v-93h-65v-474zM368 0h-100v766h100v-766z" />
    <glyph glyph-name="f_t" unicode="ft" horiz-adv-x="446" 
d="M434 82v-85c-13 -3 -26 -5 -40 -5c-93 0 -126 41 -126 150v332h-106v-474h-100v474h-55v93h55v70c0 108 43 140 113 140c18 0 40 -2 53 -7v-83c-7 1 -13 2 -20 2c-40 0 -46 -29 -46 -78v-44h106v140h100v-140h65v-93h-65v-316c0 -49 6 -78 46 -78c6 0 13 1 20 2z" />
    <glyph glyph-name="ffi" unicode="ffi" horiz-adv-x="608" 
d="M574 0h-100v567h100v-567zM524 625c-35 0 -63 28 -63 63s28 63 63 63s63 -28 63 -63s-28 -63 -63 -63zM368 0h-100v474h-106v-474h-100v474h-55v93h55v70c0 108 43 140 113 140c18 0 40 -2 53 -7v-83c-7 1 -13 2 -20 2c-40 0 -46 -29 -46 -78v-44h106v70
c0 108 43 140 113 140c18 0 40 -2 53 -7v-83c-7 1 -13 2 -20 2c-40 0 -46 -29 -46 -78v-44h65v-93h-65v-474z" />
    <glyph glyph-name="ffl" unicode="ffl" horiz-adv-x="609" 
d="M574 0h-100v766h100v-766zM368 0h-100v474h-106v-474h-100v474h-55v93h55v70c0 108 43 140 113 140c18 0 40 -2 53 -7v-83c-7 1 -13 2 -20 2c-40 0 -46 -29 -46 -78v-44h106v70c0 108 43 140 113 140c18 0 40 -2 53 -7v-83c-7 1 -13 2 -20 2c-40 0 -46 -29 -46 -78v-44
h65v-93h-65v-474z" />
    <glyph glyph-name="copyright" unicode="&#x28;C&#x29;" horiz-adv-x="697" 
d="M347 -8c-228 0 -325 146 -325 388c0 244 98 391 326 391c227 0 327 -147 327 -390c0 -242 -99 -389 -328 -389zM350 77c163 0 238 99 238 303c0 207 -77 307 -241 307c-167 0 -238 -104 -238 -303c0 -212 81 -307 241 -307zM476 332v-35c0 -111 -43 -160 -125 -160
c-84 0 -127 51 -127 160v172c0 109 43 160 127 160c82 0 125 -49 125 -160v-31h-90v20c0 56 -8 76 -36 76s-36 -20 -36 -76v-149c0 -56 8 -76 36 -76s36 20 36 76v23h90z" />
    <glyph glyph-name="uni2117" unicode="&#x28;P&#x29;" horiz-adv-x="697" 
d="M347 -8c-228 0 -325 146 -325 388c0 244 98 391 326 391c227 0 327 -147 327 -390c0 -242 -99 -389 -328 -389zM350 77c163 0 238 99 238 303c0 207 -77 307 -241 307c-167 0 -238 -104 -238 -303c0 -212 81 -307 241 -307zM329 150h-90v467h156c53 0 98 -31 98 -110v-94
c0 -79 -41 -110 -94 -110h-70v-153zM402 441v36c0 39 -12 53 -38 53h-35v-141h35c26 0 38 14 38 52z" />
    <glyph glyph-name="registered" unicode="&#x28;R&#x29;" horiz-adv-x="413" 
d="M206 352c-124 0 -187 79 -187 210c0 133 53 209 187 209s188 -76 188 -208c0 -131 -64 -211 -188 -211zM207 397c99 0 139 64 139 165c0 103 -41 163 -140 163c-101 0 -139 -62 -139 -161c0 -105 43 -167 140 -167zM294 443h-60l-25 82h-14v-80h-59v238h105
c28 0 53 -16 53 -59v-34c0 -30 -14 -50 -30 -55zM234 600v7c0 22 -6 30 -20 30h-19v-65h19c14 0 20 8 20 28z" />
    <glyph glyph-name="trademark" unicode="&#x28;TM&#x29;" horiz-adv-x="692" 
d="M655 414h-77v229l-75 -229h-44l-69 227v-227h-76v352h103l67 -217l67 217h104v-352zM187 414h-77v276h-93v76h263v-76h-93v-276z" />
    <glyph glyph-name=".notdef" horiz-adv-x="430" 
d="M380 0h-330v766h330v-766zM110 132l92 265l-92 244v-509zM299 52l-80 278l-87 -278h167zM219 468l76 246h-155zM320 130v510l-76 -244z" />
    <glyph glyph-name="apple" unicode="&#xf8ff;" horiz-adv-x="1006" 
d="M604 0h-202l-100 503l201 198l202 -198zM353 0h-172l-131 171l86 163l166 -82zM826 0h-172l51 252l165 82l86 -163z" />
    <glyph glyph-name="space" unicode=" " horiz-adv-x="126" 
 />
    <glyph glyph-name="nbspace" unicode="&#xa0;" horiz-adv-x="126" 
 />
    <glyph glyph-name="A" unicode="A" horiz-adv-x="363" 
d="M360 0h-102l-20 170h-113l-20 -170h-102l103 766h150zM226 267l-45 382l-45 -382h90z" />
    <glyph glyph-name="B" unicode="B" horiz-adv-x="386" 
d="M222 0h-182v766h172c77 0 139 -49 139 -160v-97c0 -52 -19 -95 -73 -116c62 -23 83 -66 83 -123v-110c0 -111 -62 -160 -139 -160zM249 516v77c0 56 -18 76 -56 76h-51v-229h51c38 0 56 20 56 76zM259 173v94c0 56 -28 76 -66 76h-51v-246h61c38 0 56 20 56 76z" />
    <glyph glyph-name="C" unicode="C" horiz-adv-x="377" 
d="M351 256v-109c0 -115 -73 -160 -157 -160c-86 0 -159 47 -159 160v472c0 113 72 160 162 160c80 0 154 -38 154 -153v-127h-102v107c0 56 -28 76 -56 76s-56 -20 -56 -76v-446c0 -56 28 -76 56 -76s56 20 56 76v96h102z" />
    <glyph glyph-name="D" unicode="D" horiz-adv-x="386" 
d="M212 0h-172v766h172c77 0 139 -45 139 -160v-446c0 -115 -62 -160 -139 -160zM249 173v420c0 56 -18 76 -56 76h-51v-572h51c38 0 56 20 56 76z" />
    <glyph glyph-name="E" unicode="E" horiz-adv-x="341" 
d="M314 0h-274v766h274v-97h-172v-234h165v-97h-165v-241h172v-97z" />
    <glyph glyph-name="F" unicode="F" horiz-adv-x="336" 
d="M142 0h-102v766h274v-97h-172v-234h165v-97h-165v-338z" />
    <glyph glyph-name="G" unicode="G" horiz-adv-x="390" 
d="M259 160v135h-68v97h170v-245c0 -115 -73 -160 -162 -160c-91 0 -164 47 -164 160v472c0 113 70 160 164 160c95 0 162 -48 162 -160v-119h-102v106c0 56 -28 76 -61 76s-61 -20 -61 -76v-446c0 -56 28 -76 61 -76s61 20 61 76z" />
    <glyph glyph-name="H" unicode="H" horiz-adv-x="396" 
d="M356 0h-102v338h-112v-338h-102v766h102v-331h112v331h102v-766z" />
    <glyph glyph-name="I" unicode="I" horiz-adv-x="182" 
d="M142 0h-102v766h102v-766z" />
    <glyph glyph-name="J" unicode="J" horiz-adv-x="182" 
d="M-16 -192h-3v97h3c28 0 56 20 56 76v785h102v-798c0 -115 -73 -160 -158 -160z" />
    <glyph glyph-name="K" unicode="K" horiz-adv-x="377" 
d="M386 0h-102l-141 383l122 383h102l-116 -380zM142 0h-102v766h102v-766z" />
    <glyph glyph-name="L" unicode="L" horiz-adv-x="271" 
d="M264 0h-224v766h102v-669h122v-97z" />
    <glyph glyph-name="M" unicode="M" horiz-adv-x="580" 
d="M540 0h-102l2 573l-104 -573h-92l-104 572l2 -572h-102v766h165l85 -534l85 534h165v-766z" />
    <glyph glyph-name="N" unicode="N" horiz-adv-x="448" 
d="M408 0h-133l-135 511l2 -511h-102v766h128l140 -520l-2 520h102v-766z" />
    <glyph glyph-name="O" unicode="O" horiz-adv-x="386" 
d="M35 147v472c0 113 70 160 164 160c95 0 152 -48 152 -160v-472c0 -115 -73 -160 -157 -160c-86 0 -159 47 -159 160zM249 160v446c0 56 -28 76 -56 76s-56 -20 -56 -76v-446c0 -56 28 -76 56 -76s56 20 56 76z" />
    <glyph glyph-name="P" unicode="P" horiz-adv-x="371" 
d="M142 0h-102v766h169c77 0 142 -45 142 -160v-131c0 -115 -59 -160 -136 -160h-73v-315zM249 488v105c0 56 -18 76 -56 76h-51v-257h51c38 0 56 20 56 76z" />
    <glyph glyph-name="Q" unicode="Q" horiz-adv-x="386" 
d="M327 -107l-81 -35l-58 129c-78 0 -153 45 -153 160v472c0 113 71 160 163 160c90 0 153 -45 153 -160v-472c0 -70 -21 -111 -78 -139zM249 160v446c0 56 -28 76 -56 76s-56 -20 -56 -76v-446c0 -56 28 -76 56 -76s56 20 56 76z" />
    <glyph glyph-name="R" unicode="R" horiz-adv-x="376" 
d="M371 0h-102l-88 315h-39v-315h-102v766h170c77 0 141 -45 141 -160v-123c0 -77 -18 -122 -74 -146zM249 488v105c0 56 -18 76 -56 76h-51v-257h51c38 0 56 20 56 76z" />
    <glyph glyph-name="S" unicode="S" horiz-adv-x="371" 
d="M343 244v-97c0 -111 -65 -160 -158 -160s-158 51 -158 160v109h102v-96c0 -56 28 -76 56 -76s56 20 56 76v63c0 85 -214 155 -214 300v96c0 113 73 160 158 160c98 0 158 -45 158 -160v-120h-102v107c0 56 -28 76 -56 76s-56 -20 -56 -76v-64c0 -116 214 -155 214 -298z
" />
    <glyph glyph-name="T" unicode="T" horiz-adv-x="308" 
d="M205 0h-102v669h-95v97h292v-97h-95v-669z" />
    <glyph glyph-name="U" unicode="U" horiz-adv-x="392" 
d="M252 160v606h102v-619c0 -115 -73 -160 -157 -160c-86 0 -159 47 -159 160v619h102v-606c0 -56 28 -76 56 -76s56 20 56 76z" />
    <glyph glyph-name="V" unicode="V" horiz-adv-x="352" 
d="M344 766l-93 -766h-150l-94 766h102l67 -637l66 637h102z" />
    <glyph glyph-name="W" unicode="W" horiz-adv-x="611" 
d="M602 766l-84 -766h-145l-68 618l-67 -618h-145l-84 766h102l57 -592l66 592h143l66 -592l57 592h102z" />
    <glyph glyph-name="X" unicode="X" horiz-adv-x="376" 
d="M377 0h-102l-84 290l-94 -290h-102l137 394l-131 372h103l87 -264l81 264h103l-118 -373z" />
    <glyph glyph-name="Y" unicode="Y" horiz-adv-x="357" 
d="M229 0h-102v266l-127 500h103l75 -347l77 347h103l-129 -499v-267z" />
    <glyph glyph-name="Z" unicode="Z" horiz-adv-x="307" 
d="M291 0h-276v97l160 572h-151v97h267v-53l-171 -616h171v-97z" />
    <glyph glyph-name="a" unicode="a" horiz-adv-x="331" 
d="M298 0h-86l-9 47c-14 -24 -34 -55 -92 -55c-47 0 -85 21 -85 175v16c0 113 29 150 87 150c49 0 71 -27 85 -46v117c0 56 -8 76 -36 76s-36 -20 -36 -76v-18h-100v35c0 95 38 154 138 154c105 0 134 -66 134 -157v-418zM198 152v22c0 45 -10 64 -36 64
c-28 0 -36 -20 -36 -76v-4c0 -50 8 -70 36 -70c18 0 36 8 36 64z" />
    <glyph glyph-name="b" unicode="b" horiz-adv-x="337" 
d="M120 0h-86v766h100v-239c13 20 33 48 86 48c70 0 86 -48 86 -156v-271c0 -107 -16 -156 -85 -156c-55 0 -79 32 -92 54zM206 163v241c0 56 -8 76 -36 76s-36 -20 -36 -76v-241c0 -56 8 -76 36 -76s36 20 36 76z" />
    <glyph glyph-name="c" unicode="c" horiz-adv-x="325" 
d="M302 222v-70c0 -111 -43 -160 -135 -160c-94 0 -137 51 -137 160v263c0 109 43 160 137 160c92 0 135 -49 135 -160v-56h-100v45c0 56 -8 76 -36 76s-36 -20 -36 -76v-240c0 -56 8 -76 36 -76s36 20 36 76v58h100z" />
    <glyph glyph-name="d" unicode="d" horiz-adv-x="337" 
d="M303 0h-86l-9 46c-13 -22 -37 -54 -92 -54c-69 0 -85 49 -85 156v271c0 108 16 156 86 156c53 0 73 -28 86 -48v239h100v-766zM203 163v241c0 56 -8 76 -36 76s-36 -20 -36 -76v-241c0 -56 8 -76 36 -76s36 20 36 76z" />
    <glyph glyph-name="e" unicode="e" horiz-adv-x="327" 
d="M302 187v-35c0 -111 -43 -160 -135 -160c-94 0 -137 51 -137 160v263c0 109 43 160 137 160c92 0 135 -49 135 -160v-174h-172v-77c0 -56 8 -76 36 -76s36 20 36 76v23h100zM202 335v69c0 56 -8 76 -36 76s-36 -20 -36 -76v-69h72z" />
    <glyph glyph-name="f" unicode="f" horiz-adv-x="233" 
d="M162 0h-100v474h-55v93h55v70c0 108 43 140 113 140c18 0 40 -2 53 -7v-83c-7 1 -13 2 -20 2c-40 0 -46 -29 -46 -78v-44h65v-93h-65v-474z" />
    <glyph glyph-name="g" unicode="g" horiz-adv-x="334" 
d="M302 -4v-48c0 -109 -53 -150 -142 -150c-97 0 -140 49 -140 160v50c0 53 13 92 31 117c-5 10 -13 17 -13 37c0 21 8 37 39 64c-27 23 -47 63 -47 125v64c0 110 43 160 139 160c34 0 54 -6 71 -17h92v-57l-47 2c13 -20 17 -43 17 -78v-67c0 -111 -43 -157 -140 -157
c-10 0 -19 0 -27 2c-8 -7 -12 -11 -12 -18c0 -17 24 -18 52 -18c94 -1 127 -59 127 -171zM202 372v32c0 56 -8 76 -36 76s-36 -20 -36 -76v-32c0 -56 8 -76 36 -76s36 20 36 76zM202 -39v25c0 63 -2 86 -41 86c-29 0 -41 -13 -41 -66v-37c0 -58 13 -76 43 -76
c26 0 39 13 39 68z" />
    <glyph glyph-name="h" unicode="h" 
d="M306 0h-100v404c0 56 -8 76 -36 76s-36 -20 -36 -76v-404h-100v766h100v-239c13 20 33 48 86 48c70 0 86 -48 86 -156v-419z" />
    <glyph glyph-name="i" unicode="i" horiz-adv-x="168" 
d="M134 0h-100v567h100v-567zM84 625c-35 0 -63 28 -63 63s28 63 63 63s63 -28 63 -63s-28 -63 -63 -63z" />
    <glyph glyph-name="j" unicode="j" horiz-adv-x="168" 
d="M-32 -203v80c7 -1 10 -1 16 -1c43 0 50 27 50 77v614h100v-625c0 -107 -33 -150 -122 -150c-19 0 -31 2 -44 5zM84 625c-35 0 -63 28 -63 63s28 63 63 63s63 -28 63 -63s-28 -63 -63 -63z" />
    <glyph glyph-name="k" unicode="k" 
d="M338 0h-101l-102 290l102 277h102l-98 -274zM134 0h-100v766h100v-766z" />
    <glyph glyph-name="l" unicode="l" horiz-adv-x="170" 
d="M135 0h-100v766h100v-766z" />
    <glyph glyph-name="m" unicode="m" horiz-adv-x="511" 
d="M478 0h-100v404c0 56 -8 76 -36 76s-36 -20 -36 -76v-404h-100v404c0 56 -8 76 -36 76s-36 -20 -36 -76v-404h-100v567h86l9 -46c13 22 37 54 92 54c45 0 68 -21 78 -66c19 39 45 66 95 66c68 0 84 -50 84 -156v-419z" />
    <glyph glyph-name="n" unicode="n" 
d="M306 0h-100v404c0 56 -8 76 -36 76s-36 -20 -36 -76v-404h-100v567h86l9 -46c13 22 37 54 92 54c69 0 85 -49 85 -156v-419z" />
    <glyph glyph-name="o" unicode="o" horiz-adv-x="332" 
d="M302 415v-263c0 -111 -43 -160 -135 -160c-94 0 -137 51 -137 160v263c0 109 43 160 137 160c92 0 135 -49 135 -160zM202 164v240c0 56 -8 76 -36 76s-36 -20 -36 -76v-240c0 -56 8 -76 36 -76s36 20 36 76z" />
    <glyph glyph-name="p" unicode="p" horiz-adv-x="337" 
d="M134 -199h-100v766h86l9 -46c13 22 37 54 92 54c69 0 85 -49 85 -156v-271c0 -108 -16 -156 -86 -156c-53 0 -73 28 -86 48v-239zM206 163v241c0 56 -8 76 -36 76s-36 -20 -36 -76v-241c0 -56 8 -76 36 -76s36 20 36 76z" />
    <glyph glyph-name="q" unicode="q" horiz-adv-x="337" 
d="M303 -199h-100v239c-13 -20 -33 -48 -86 -48c-70 0 -86 48 -86 156v271c0 107 16 156 85 156c55 0 79 -32 92 -54l9 46h86v-766zM203 163v241c0 56 -8 76 -36 76s-36 -20 -36 -76v-241c0 -56 8 -76 36 -76s36 20 36 76z" />
    <glyph glyph-name="r" unicode="r" horiz-adv-x="264" 
d="M134 0h-100v567h87l8 -46c8 18 37 53 85 53c16 0 37 -4 48 -12l-9 -103c-21 9 -43 14 -60 14c-36 0 -59 -25 -59 -90v-383z" />
    <glyph glyph-name="s" unicode="s" horiz-adv-x="323" 
d="M120 187v-24c0 -50 10 -76 42 -76c30 0 40 22 40 50c0 122 -182 105 -182 292c0 95 47 146 144 146c95 0 138 -48 138 -160v-37h-100v26c0 55 -8 76 -40 76c-35 0 -41 -25 -41 -51c0 -136 181 -100 181 -291c0 -93 -43 -146 -142 -146c-97 0 -140 52 -140 158v37h100z
" />
    <glyph glyph-name="t" unicode="t" horiz-adv-x="231" 
d="M219 82v-85c-13 -3 -26 -5 -40 -5c-93 0 -126 41 -126 150v332h-45v93h45v140h100v-140h65v-93h-65v-316c0 -49 6 -78 46 -78c6 0 13 1 20 2z" />
    <glyph glyph-name="u" unicode="u" 
d="M305 0h-86l-9 46c-13 -22 -37 -54 -92 -54c-69 0 -85 49 -85 156v419h100v-404c0 -56 8 -76 36 -76s36 20 36 76v404h100v-567z" />
    <glyph glyph-name="v" unicode="v" horiz-adv-x="315" 
d="M231 0h-146l-77 567h104l45 -462l46 462h104z" />
    <glyph glyph-name="w" unicode="w" horiz-adv-x="514" 
d="M429 0h-131l-41 407l-41 -407h-131l-77 567h104l45 -432l46 432h108l46 -432l45 432h104z" />
    <glyph glyph-name="x" unicode="x" horiz-adv-x="314" 
d="M313 0h-99l-61 189l-53 -189h-98l94 290l-93 277h99l55 -172l53 172h101l-97 -278z" />
    <glyph glyph-name="y" unicode="y" horiz-adv-x="316" 
d="M194 -200h-104l30 162l-119 605h104l57 -402l44 402h104z" />
    <glyph glyph-name="z" unicode="z" horiz-adv-x="279" 
d="M254 0h-242v88l141 386h-122v93h235v-71l-144 -401h132v-95z" />
    <glyph glyph-name="germandbls" unicode="&#xdf;" horiz-adv-x="352" 
d="M160 -3v93c8 -1 12 -1 17 -1c48 0 49 28 49 77v132c0 55 -7 118 -56 127v82c48 11 56 49 56 100v9c0 39 -13 61 -46 61s-46 -22 -46 -61v-616h-100v619c0 96 42 153 146 153s146 -57 146 -153v-19c0 -86 -37 -121 -76 -132c39 -8 76 -37 76 -121v-195
c0 -88 -33 -160 -125 -160c-15 0 -28 2 -41 5z" />
    <glyph glyph-name="Agrave" unicode="&#xc0;" horiz-adv-x="363" 
d="M360 0h-102l-20 170h-113l-20 -170h-102l103 766h150zM226 267l-45 382l-45 -382h90zM225 836h-73l-95 131h111z" />
    <glyph glyph-name="agrave" unicode="&#xe0;" horiz-adv-x="331" 
d="M298 0h-86l-9 47c-14 -24 -34 -55 -92 -55c-47 0 -85 21 -85 175v16c0 113 29 150 87 150c49 0 71 -27 85 -46v117c0 56 -8 76 -36 76s-36 -20 -36 -76v-18h-100v35c0 95 38 154 138 154c105 0 134 -66 134 -157v-418zM198 152v22c0 45 -10 64 -36 64
c-28 0 -36 -20 -36 -76v-4c0 -50 8 -70 36 -70c18 0 36 8 36 64zM224 637h-73l-95 131h111z" />
    <glyph glyph-name="Aacute" unicode="&#xc1;" horiz-adv-x="363" 
d="M360 0h-102l-20 170h-113l-20 -170h-102l103 766h150zM226 267l-45 382l-45 -382h90zM204 836h-73l57 131h111z" />
    <glyph glyph-name="aacute" unicode="&#xe1;" horiz-adv-x="331" 
d="M298 0h-86l-9 47c-14 -24 -34 -55 -92 -55c-47 0 -85 21 -85 175v16c0 113 29 150 87 150c49 0 71 -27 85 -46v117c0 56 -8 76 -36 76s-36 -20 -36 -76v-18h-100v35c0 95 38 154 138 154c105 0 134 -66 134 -157v-418zM198 152v22c0 45 -10 64 -36 64
c-28 0 -36 -20 -36 -76v-4c0 -50 8 -70 36 -70c18 0 36 8 36 64zM185 637h-73l57 131h111z" />
    <glyph glyph-name="Acircumflex" unicode="&#xc2;" horiz-adv-x="363" 
d="M360 0h-102l-20 170h-113l-20 -170h-102l103 766h150zM226 267l-45 382l-45 -382h90zM303 836h-78l-45 77l-40 -77h-81l75 141h90z" />
    <glyph glyph-name="acircumflex" unicode="&#xe2;" horiz-adv-x="331" 
d="M298 0h-86l-9 47c-14 -24 -34 -55 -92 -55c-47 0 -85 21 -85 175v16c0 113 29 150 87 150c49 0 71 -27 85 -46v117c0 56 -8 76 -36 76s-36 -20 -36 -76v-18h-100v35c0 95 38 154 138 154c105 0 134 -66 134 -157v-418zM198 152v22c0 45 -10 64 -36 64
c-28 0 -36 -20 -36 -76v-4c0 -50 8 -70 36 -70c18 0 36 8 36 64zM283 637h-78l-45 77l-40 -77h-81l75 141h90z" />
    <glyph glyph-name="Atilde" unicode="&#xc3;" horiz-adv-x="363" 
d="M360 0h-102l-20 170h-113l-20 -170h-102l103 766h150zM226 267l-45 382l-45 -382h90zM239 931h65c-2 -53 -24 -95 -72 -95c-32 0 -54 19 -83 19c-11 0 -24 -1 -26 -20h-65c2 53 24 95 72 95c32 0 54 -19 83 -19c9 0 24 0 26 20z" />
    <glyph glyph-name="atilde" unicode="&#xe3;" horiz-adv-x="331" 
d="M298 0h-86l-9 47c-14 -24 -34 -55 -92 -55c-47 0 -85 21 -85 175v16c0 113 29 150 87 150c49 0 71 -27 85 -46v117c0 56 -8 76 -36 76s-36 -20 -36 -76v-18h-100v35c0 95 38 154 138 154c105 0 134 -66 134 -157v-418zM198 152v22c0 45 -10 64 -36 64
c-28 0 -36 -20 -36 -76v-4c0 -50 8 -70 36 -70c18 0 36 8 36 64zM220 732h65c-2 -53 -24 -95 -72 -95c-32 0 -54 19 -83 19c-11 0 -24 -1 -26 -20h-65c2 53 24 95 72 95c32 0 54 -19 83 -19c9 0 24 0 26 20z" />
    <glyph glyph-name="Adieresis" unicode="&#xc4;" horiz-adv-x="363" 
d="M360 0h-102l-20 170h-113l-20 -170h-102l103 766h150zM226 267l-45 382l-45 -382h90zM96 826c-32 0 -60 26 -60 60c0 33 28 59 60 59c33 0 59 -26 59 -59c0 -34 -26 -60 -59 -60zM266 826c-32 0 -59 26 -59 60c0 33 27 59 59 59c34 0 60 -26 60 -59
c0 -34 -26 -60 -60 -60z" />
    <glyph glyph-name="adieresis" unicode="&#xe4;" horiz-adv-x="330" 
d="M298 0h-86l-9 47c-14 -24 -34 -55 -92 -55c-47 0 -85 21 -85 175v16c0 113 29 150 87 150c49 0 71 -27 85 -46v117c0 56 -8 76 -36 76s-36 -20 -36 -76v-18h-100v35c0 95 38 154 138 154c105 0 134 -66 134 -157v-418zM198 152v22c0 45 -10 64 -36 64
c-28 0 -36 -20 -36 -76v-4c0 -50 8 -70 36 -70c18 0 36 8 36 64zM77 627c-32 0 -60 26 -60 60c0 33 28 59 60 59c33 0 59 -26 59 -59c0 -34 -26 -60 -59 -60zM247 627c-32 0 -59 26 -59 60c0 33 27 59 59 59c34 0 60 -26 60 -59c0 -34 -26 -60 -60 -60z" />
    <glyph glyph-name="Aring" unicode="&#xc5;" horiz-adv-x="363" 
d="M360 0h-102l-20 170h-113l-20 -170h-102l103 766h150zM226 267l-45 382l-45 -382h90zM212 902c0 18 -13 31 -31 31s-31 -13 -31 -31s13 -31 31 -31s31 13 31 31zM181 815c-49 0 -87 38 -87 87s38 87 87 87s87 -38 87 -87s-38 -87 -87 -87z" />
    <glyph glyph-name="aring" unicode="&#xe5;" horiz-adv-x="331" 
d="M298 0h-86l-9 47c-14 -24 -34 -55 -92 -55c-47 0 -85 21 -85 175v16c0 113 29 150 87 150c49 0 71 -27 85 -46v117c0 56 -8 76 -36 76s-36 -20 -36 -76v-18h-100v35c0 95 38 154 138 154c105 0 134 -66 134 -157v-418zM198 152v22c0 45 -10 64 -36 64
c-28 0 -36 -20 -36 -76v-4c0 -50 8 -70 36 -70c18 0 36 8 36 64zM194 703c0 18 -13 31 -31 31s-31 -13 -31 -31s13 -31 31 -31s31 13 31 31zM163 616c-49 0 -87 38 -87 87s38 87 87 87s87 -38 87 -87s-38 -87 -87 -87z" />
    <glyph glyph-name="Amacron" unicode="&#x100;" horiz-adv-x="363" 
d="M360 0h-102l-20 170h-113l-20 -170h-102l103 766h150zM226 267l-45 382l-45 -382h90zM312 836h-262v81h262v-81z" />
    <glyph glyph-name="amacron" unicode="&#x101;" horiz-adv-x="331" 
d="M298 0h-86l-9 47c-14 -24 -34 -55 -92 -55c-47 0 -85 21 -85 175v16c0 113 29 150 87 150c49 0 71 -27 85 -46v117c0 56 -8 76 -36 76s-36 -20 -36 -76v-18h-100v35c0 95 38 154 138 154c105 0 134 -66 134 -157v-418zM198 152v22c0 45 -10 64 -36 64
c-28 0 -36 -20 -36 -76v-4c0 -50 8 -70 36 -70c18 0 36 8 36 64zM294 637h-262v81h262v-81z" />
    <glyph glyph-name="Abreve" unicode="&#x102;" horiz-adv-x="363" 
d="M360 0h-102l-20 170h-113l-20 -170h-102l103 766h150zM226 267l-45 382l-45 -382h90zM242 949h56c-2 -78 -39 -124 -117 -124s-116 46 -117 124h56c1 -27 14 -53 61 -53s59 26 61 53z" />
    <glyph glyph-name="abreve" unicode="&#x103;" horiz-adv-x="331" 
d="M298 0h-86l-9 47c-14 -24 -34 -55 -92 -55c-47 0 -85 21 -85 175v16c0 113 29 150 87 150c49 0 71 -27 85 -46v117c0 56 -8 76 -36 76s-36 -20 -36 -76v-18h-100v35c0 95 38 154 138 154c105 0 134 -66 134 -157v-418zM198 152v22c0 45 -10 64 -36 64
c-28 0 -36 -20 -36 -76v-4c0 -50 8 -70 36 -70c18 0 36 8 36 64zM225 750h56c-2 -78 -39 -124 -117 -124s-116 46 -117 124h56c1 -27 14 -53 61 -53s59 26 61 53z" />
    <glyph glyph-name="Aogonek" unicode="&#x104;" horiz-adv-x="363" 
d="M372 -156l-35 -52c-76 4 -126 54 -126 110c0 31 15 63 48 87l-22 181h-112l-20 -170h-102l103 766h150l104 -766c-41 -25 -60 -57 -60 -86c0 -31 23 -59 72 -70zM226 267l-45 382l-45 -382h90z" />
    <glyph glyph-name="aogonek" unicode="&#x105;" horiz-adv-x="331" 
d="M312 -156l-35 -52c-76 4 -126 54 -126 110c0 36 19 72 62 97l-10 48c-14 -24 -34 -55 -92 -55c-47 0 -85 21 -85 175v16c0 113 29 150 87 150c49 0 71 -27 85 -46v117c0 56 -8 76 -36 76s-36 -20 -36 -76v-18h-100v35c0 95 38 154 138 154c105 0 134 -66 134 -157v-418
c-38 -25 -58 -57 -58 -86c0 -31 23 -59 72 -70zM198 152v22c0 45 -10 64 -36 64c-28 0 -36 -20 -36 -76v-4c0 -50 8 -70 36 -70c18 0 36 8 36 64z" />
    <glyph glyph-name="AE" unicode="&#xc6;" horiz-adv-x="550" 
d="M523 0h-274v170h-113l-43 -170h-101l198 766h333v-97h-172v-234h165v-97h-165v-241h172v-97zM249 272v350l-89 -350h89z" />
    <glyph glyph-name="ae" unicode="&#xe6;" horiz-adv-x="495" 
d="M470 187v-35c0 -111 -43 -160 -135 -160c-63 0 -103 22 -123 70c-27 -48 -51 -70 -101 -70c-47 0 -85 21 -85 175v16c0 113 29 150 87 150c49 0 71 -27 85 -46v129c0 47 -10 64 -36 64c-28 0 -36 -20 -36 -76v-18h-100v35c0 95 38 154 138 154c37 0 65 -9 85 -23
c21 15 50 23 86 23c92 0 135 -49 135 -160v-174h-172v-77c0 -56 8 -76 36 -76s36 20 36 76v23h100zM370 335v69c0 56 -8 76 -36 76s-36 -20 -36 -76v-69h72zM198 152v22c0 45 -10 64 -36 64c-28 0 -36 -20 -36 -76v-4c0 -50 8 -70 36 -70c18 0 36 8 36 64z" />
    <glyph glyph-name="AEacute" unicode="&#x1fc;" horiz-adv-x="550" 
d="M523 0h-274v170h-113l-43 -170h-101l198 766h333v-97h-172v-234h165v-97h-165v-241h172v-97zM249 272v350l-89 -350h89zM369 836h-73l57 131h111z" />
    <glyph glyph-name="aeacute" unicode="&#x1fd;" horiz-adv-x="495" 
d="M470 187v-35c0 -111 -43 -160 -135 -160c-63 0 -103 22 -123 70c-27 -48 -51 -70 -101 -70c-47 0 -85 21 -85 175v16c0 113 29 150 87 150c49 0 71 -27 85 -46v129c0 47 -10 64 -36 64c-28 0 -36 -20 -36 -76v-18h-100v35c0 95 38 154 138 154c37 0 65 -9 85 -23
c21 15 50 23 86 23c92 0 135 -49 135 -160v-174h-172v-77c0 -56 8 -76 36 -76s36 20 36 76v23h100zM370 335v69c0 56 -8 76 -36 76s-36 -20 -36 -76v-69h72zM198 152v22c0 45 -10 64 -36 64c-28 0 -36 -20 -36 -76v-4c0 -50 8 -70 36 -70c18 0 36 8 36 64zM266 637h-73
l57 131h111z" />
    <glyph glyph-name="uni1E02" unicode="&#x1e02;" horiz-adv-x="386" 
d="M222 0h-182v766h172c77 0 139 -49 139 -160v-97c0 -52 -19 -95 -73 -116c62 -23 83 -66 83 -123v-110c0 -111 -62 -160 -139 -160zM249 516v77c0 56 -18 76 -56 76h-51v-229h51c38 0 56 20 56 76zM259 173v94c0 56 -28 76 -66 76h-51v-246h61c38 0 56 20 56 76zM186 831
c-32 0 -60 26 -60 60c0 33 28 59 60 59c33 0 59 -26 59 -59c0 -34 -26 -60 -59 -60z" />
    <glyph glyph-name="uni1E03" unicode="&#x1e03;" horiz-adv-x="337" 
d="M120 0h-86v766h100v-239c13 20 33 48 86 48c70 0 86 -48 86 -156v-271c0 -107 -16 -156 -85 -156c-55 0 -79 32 -92 54zM206 163v241c0 56 -8 76 -36 76s-36 -20 -36 -76v-241c0 -56 8 -76 36 -76s36 20 36 76zM239 637c-32 0 -60 26 -60 60c0 33 28 59 60 59
c33 0 59 -26 59 -59c0 -34 -26 -60 -59 -60z" />
    <glyph glyph-name="Ccedilla" unicode="&#xc7;" horiz-adv-x="377" 
d="M116 -176l15 56c6 -4 20 -9 34 -9c25 0 39 16 39 32c0 15 -10 30 -41 30c-3 0 -6 0 -10 -1l14 57c-74 9 -132 57 -132 158v472c0 113 72 160 162 160c80 0 154 -38 154 -153v-127h-102v107c0 56 -28 76 -56 76s-56 -20 -56 -76v-446c0 -56 28 -76 56 -76s56 20 56 76v96
h102v-109c0 -94 -49 -142 -113 -155l-10 -38c43 0 66 -32 66 -65c0 -38 -31 -79 -102 -79c-30 0 -60 7 -76 14z" />
    <glyph glyph-name="ccedilla" unicode="&#xe7;" horiz-adv-x="320" 
d="M81 -176l15 56c6 -4 20 -9 34 -9c25 0 39 16 39 32c0 15 -10 30 -41 30c-3 0 -6 0 -10 -1l15 62c-74 10 -108 61 -108 158v263c0 109 43 160 137 160c92 0 135 -49 135 -160v-56h-100v45c0 56 -8 76 -36 76s-36 -20 -36 -76v-240c0 -56 8 -76 36 -76s36 20 36 76v58h100
v-70c0 -92 -30 -142 -92 -155l-12 -43c43 0 66 -32 66 -65c0 -38 -31 -79 -102 -79c-30 0 -60 7 -76 14z" />
    <glyph glyph-name="Cacute" unicode="&#x106;" horiz-adv-x="377" 
d="M351 256v-109c0 -115 -73 -160 -157 -160c-86 0 -159 47 -159 160v472c0 113 72 160 162 160c80 0 154 -38 154 -153v-127h-102v107c0 56 -28 76 -56 76s-56 -20 -56 -76v-446c0 -56 28 -76 56 -76s56 20 56 76v96h102zM211 836h-73l57 131h111z" />
    <glyph glyph-name="cacute" unicode="&#x107;" horiz-adv-x="325" 
d="M302 222v-70c0 -111 -43 -160 -135 -160c-94 0 -137 51 -137 160v263c0 109 43 160 137 160c92 0 135 -49 135 -160v-56h-100v45c0 56 -8 76 -36 76s-36 -20 -36 -76v-240c0 -56 8 -76 36 -76s36 20 36 76v58h100zM182 637h-73l57 131h111z" />
    <glyph glyph-name="Ccircumflex" unicode="&#x108;" horiz-adv-x="377" 
d="M351 256v-109c0 -115 -73 -160 -157 -160c-86 0 -159 47 -159 160v472c0 113 72 160 162 160c80 0 154 -38 154 -153v-127h-102v107c0 56 -28 76 -56 76s-56 -20 -56 -76v-446c0 -56 28 -76 56 -76s56 20 56 76v96h102zM315 836h-78l-45 77l-40 -77h-81l75 141h90z" />
    <glyph glyph-name="ccircumflex" unicode="&#x109;" horiz-adv-x="325" 
d="M302 222v-70c0 -111 -43 -160 -135 -160c-94 0 -137 51 -137 160v263c0 109 43 160 137 160c92 0 135 -49 135 -160v-56h-100v45c0 56 -8 76 -36 76s-36 -20 -36 -76v-240c0 -56 8 -76 36 -76s36 20 36 76v58h100zM287 637h-78l-45 77l-40 -77h-81l75 141h90z" />
    <glyph glyph-name="Cdotaccent" unicode="&#x10a;" horiz-adv-x="377" 
d="M351 256v-109c0 -115 -73 -160 -157 -160c-86 0 -159 47 -159 160v472c0 113 72 160 162 160c80 0 154 -38 154 -153v-127h-102v107c0 56 -28 76 -56 76s-56 -20 -56 -76v-446c0 -56 28 -76 56 -76s56 20 56 76v96h102zM193 831c-32 0 -60 26 -60 60c0 33 28 59 60 59
c33 0 59 -26 59 -59c0 -34 -26 -60 -59 -60z" />
    <glyph glyph-name="cdotaccent" unicode="&#x10b;" horiz-adv-x="325" 
d="M302 222v-70c0 -111 -43 -160 -135 -160c-94 0 -137 51 -137 160v263c0 109 43 160 137 160c92 0 135 -49 135 -160v-56h-100v45c0 56 -8 76 -36 76s-36 -20 -36 -76v-240c0 -56 8 -76 36 -76s36 20 36 76v58h100zM166 632c-32 0 -60 26 -60 60c0 33 28 59 60 59
c33 0 59 -26 59 -59c0 -34 -26 -60 -59 -60z" />
    <glyph glyph-name="Ccaron" unicode="&#x10c;" horiz-adv-x="377" 
d="M351 256v-109c0 -115 -73 -160 -157 -160c-86 0 -159 47 -159 160v472c0 113 72 160 162 160c80 0 154 -38 154 -153v-127h-102v107c0 56 -28 76 -56 76s-56 -20 -56 -76v-446c0 -56 28 -76 56 -76s56 20 56 76v96h102zM239 836h-90l-79 141h78l45 -77l40 77h81z" />
    <glyph glyph-name="ccaron" unicode="&#x10d;" horiz-adv-x="325" 
d="M302 222v-70c0 -111 -43 -160 -135 -160c-94 0 -137 51 -137 160v263c0 109 43 160 137 160c92 0 135 -49 135 -160v-56h-100v45c0 56 -8 76 -36 76s-36 -20 -36 -76v-240c0 -56 8 -76 36 -76s36 20 36 76v58h100zM212 637h-90l-79 141h78l45 -77l40 77h81z" />
    <glyph glyph-name="Dcaron" unicode="&#x10e;" horiz-adv-x="386" 
d="M212 0h-172v766h172c77 0 139 -45 139 -160v-446c0 -115 -62 -160 -139 -160zM249 173v420c0 56 -18 76 -56 76h-51v-572h51c38 0 56 20 56 76zM231 836h-90l-79 141h78l45 -77l40 77h81z" />
    <glyph glyph-name="dcaron" unicode="&#x10f;" horiz-adv-x="398" 
d="M397 538h-74l35 228h113zM303 0h-86l-9 46c-13 -22 -37 -54 -92 -54c-69 0 -85 49 -85 156v271c0 108 16 156 86 156c53 0 73 -28 86 -48v239h100v-766zM203 163v241c0 56 -8 76 -36 76s-36 -20 -36 -76v-241c0 -56 8 -76 36 -76s36 20 36 76z" />
    <glyph glyph-name="Dcroat" unicode="&#x110;" horiz-adv-x="388" 
d="M214 0h-172v339h-43v95h43v332h172c77 0 139 -45 139 -160v-446c0 -115 -62 -160 -139 -160zM251 173v420c0 56 -18 76 -56 76h-51v-235h54v-95h-54v-242h51c38 0 56 20 56 76z" />
    <glyph glyph-name="dcroat" unicode="&#x111;" horiz-adv-x="337" 
d="M303 0h-86l-9 46c-13 -22 -37 -54 -92 -54c-69 0 -85 49 -85 156v271c0 108 16 156 86 156c53 0 73 -28 86 -48v115h-115v71h115v53h100v-53h34v-71h-34v-642zM203 163v241c0 56 -8 76 -36 76s-36 -20 -36 -76v-241c0 -56 8 -76 36 -76s36 20 36 76z" />
    <glyph glyph-name="uni1E0A" unicode="&#x1e0a;" horiz-adv-x="386" 
d="M212 0h-172v766h172c77 0 139 -45 139 -160v-446c0 -115 -62 -160 -139 -160zM249 173v420c0 56 -18 76 -56 76h-51v-572h51c38 0 56 20 56 76zM186 831c-32 0 -60 26 -60 60c0 33 28 59 60 59c33 0 59 -26 59 -59c0 -34 -26 -60 -59 -60z" />
    <glyph glyph-name="uni1E0B" unicode="&#x1e0b;" horiz-adv-x="337" 
d="M303 0h-86l-9 46c-13 -22 -37 -54 -92 -54c-69 0 -85 49 -85 156v271c0 108 16 156 86 156c53 0 73 -28 86 -48v239h100v-766zM203 163v241c0 56 -8 76 -36 76s-36 -20 -36 -76v-241c0 -56 8 -76 36 -76s36 20 36 76zM98 637c-32 0 -60 26 -60 60c0 33 28 59 60 59
c33 0 59 -26 59 -59c0 -34 -26 -60 -59 -60z" />
    <glyph glyph-name="Eth" unicode="&#xd0;" horiz-adv-x="388" 
d="M214 0h-172v339h-43v95h43v332h172c77 0 139 -45 139 -160v-446c0 -115 -62 -160 -139 -160zM251 173v420c0 56 -18 76 -56 76h-51v-235h54v-95h-54v-242h51c38 0 56 20 56 76z" />
    <glyph glyph-name="eth" unicode="&#xf0;" horiz-adv-x="335" 
d="M31 143v302c0 86 26 131 84 131c46 0 81 -28 90 -53c-1 61 -15 98 -38 120l-36 -37l-25 25l31 32c-23 11 -51 19 -75 25l19 80c56 -8 97 -21 124 -36l41 42l25 -25l-36 -37c54 -45 68 -123 68 -251v-318c0 -95 -42 -151 -136 -151s-136 56 -136 151zM203 143v261
c0 58 -13 77 -37 77c-26 0 -35 -23 -35 -67v-271c0 -39 13 -56 36 -56s36 17 36 56z" />
    <glyph glyph-name="Egrave" unicode="&#xc8;" horiz-adv-x="341" 
d="M314 0h-274v766h274v-97h-172v-234h165v-97h-165v-241h172v-97zM237 836h-73l-95 131h111z" />
    <glyph glyph-name="egrave" unicode="&#xe8;" horiz-adv-x="327" 
d="M302 187v-35c0 -111 -43 -160 -135 -160c-94 0 -137 51 -137 160v263c0 109 43 160 137 160c92 0 135 -49 135 -160v-174h-172v-77c0 -56 8 -76 36 -76s36 20 36 76v23h100zM202 335v69c0 56 -8 76 -36 76s-36 -20 -36 -76v-69h72zM222 637h-73l-95 131h111z" />
    <glyph glyph-name="Eacute" unicode="&#xc9;" horiz-adv-x="341" 
d="M314 0h-274v766h274v-97h-172v-234h165v-97h-165v-241h172v-97zM195 836h-73l57 131h111z" />
    <glyph glyph-name="eacute" unicode="&#xe9;" horiz-adv-x="327" 
d="M302 187v-35c0 -111 -43 -160 -135 -160c-94 0 -137 51 -137 160v263c0 109 43 160 137 160c92 0 135 -49 135 -160v-174h-172v-77c0 -56 8 -76 36 -76s36 20 36 76v23h100zM202 335v69c0 56 -8 76 -36 76s-36 -20 -36 -76v-69h72zM185 637h-73l57 131h111z" />
    <glyph glyph-name="Ecircumflex" unicode="&#xca;" horiz-adv-x="341" 
d="M314 0h-274v766h274v-97h-172v-234h165v-97h-165v-241h172v-97zM296 836h-78l-45 77l-40 -77h-81l75 141h90z" />
    <glyph glyph-name="ecircumflex" unicode="&#xea;" horiz-adv-x="327" 
d="M302 187v-35c0 -111 -43 -160 -135 -160c-94 0 -137 51 -137 160v263c0 109 43 160 137 160c92 0 135 -49 135 -160v-174h-172v-77c0 -56 8 -76 36 -76s36 20 36 76v23h100zM202 335v69c0 56 -8 76 -36 76s-36 -20 -36 -76v-69h72zM287 637h-78l-45 77l-40 -77h-81
l75 141h90z" />
    <glyph glyph-name="Edieresis" unicode="&#xcb;" horiz-adv-x="341" 
d="M314 0h-274v766h274v-97h-172v-234h165v-97h-165v-241h172v-97zM91 826c-32 0 -60 26 -60 60c0 33 28 59 60 59c33 0 59 -26 59 -59c0 -34 -26 -60 -59 -60zM261 826c-32 0 -59 26 -59 60c0 33 27 59 59 59c34 0 60 -26 60 -59c0 -34 -26 -60 -60 -60z" />
    <glyph glyph-name="edieresis" unicode="&#xeb;" horiz-adv-x="327" 
d="M302 187v-35c0 -111 -43 -160 -135 -160c-94 0 -137 51 -137 160v263c0 109 43 160 137 160c92 0 135 -49 135 -160v-174h-172v-77c0 -56 8 -76 36 -76s36 20 36 76v23h100zM202 335v69c0 56 -8 76 -36 76s-36 -20 -36 -76v-69h72zM81 627c-32 0 -60 26 -60 60
c0 33 28 59 60 59c33 0 59 -26 59 -59c0 -34 -26 -60 -59 -60zM251 627c-32 0 -59 26 -59 60c0 33 27 59 59 59c34 0 60 -26 60 -59c0 -34 -26 -60 -60 -60z" />
    <glyph glyph-name="Emacron" unicode="&#x112;" horiz-adv-x="341" 
d="M314 0h-274v766h274v-97h-172v-234h165v-97h-165v-241h172v-97zM305 836h-262v81h262v-81z" />
    <glyph glyph-name="emacron" unicode="&#x113;" horiz-adv-x="327" 
d="M302 187v-35c0 -111 -43 -160 -135 -160c-94 0 -137 51 -137 160v263c0 109 43 160 137 160c92 0 135 -49 135 -160v-174h-172v-77c0 -56 8 -76 36 -76s36 20 36 76v23h100zM202 335v69c0 56 -8 76 -36 76s-36 -20 -36 -76v-69h72zM296 637h-262v81h262v-81z" />
    <glyph glyph-name="Ebreve" unicode="&#x114;" horiz-adv-x="341" 
d="M314 0h-274v766h274v-97h-172v-234h165v-97h-165v-241h172v-97zM240 949h56c-2 -78 -39 -124 -117 -124s-116 46 -117 124h56c1 -27 14 -53 61 -53s59 26 61 53z" />
    <glyph glyph-name="ebreve" unicode="&#x115;" horiz-adv-x="327" 
d="M302 187v-35c0 -111 -43 -160 -135 -160c-94 0 -137 51 -137 160v263c0 109 43 160 137 160c92 0 135 -49 135 -160v-174h-172v-77c0 -56 8 -76 36 -76s36 20 36 76v23h100zM202 335v69c0 56 -8 76 -36 76s-36 -20 -36 -76v-69h72zM226 750h56c-2 -78 -39 -124 -117 -124
s-116 46 -117 124h56c1 -27 14 -53 61 -53s59 26 61 53z" />
    <glyph glyph-name="Edotaccent" unicode="&#x116;" horiz-adv-x="341" 
d="M314 0h-274v766h274v-97h-172v-234h165v-97h-165v-241h172v-97zM182 831c-32 0 -60 26 -60 60c0 33 28 59 60 59c33 0 59 -26 59 -59c0 -34 -26 -60 -59 -60z" />
    <glyph glyph-name="edotaccent" unicode="&#x117;" horiz-adv-x="327" 
d="M302 187v-35c0 -111 -43 -160 -135 -160c-94 0 -137 51 -137 160v263c0 109 43 160 137 160c92 0 135 -49 135 -160v-174h-172v-77c0 -56 8 -76 36 -76s36 20 36 76v23h100zM202 335v69c0 56 -8 76 -36 76s-36 -20 -36 -76v-69h72zM166 632c-32 0 -60 26 -60 60
c0 33 28 59 60 59c33 0 59 -26 59 -59c0 -34 -26 -60 -59 -60z" />
    <glyph glyph-name="Eogonek" unicode="&#x118;" horiz-adv-x="341" 
d="M295 -156l-35 -52c-76 4 -126 54 -126 110c0 36 20 73 65 98h-159v766h274v-97h-172v-234h165v-97h-165v-241h172v-97h-33c-38 -25 -58 -57 -58 -86c0 -31 23 -59 72 -70z" />
    <glyph glyph-name="eogonek" unicode="&#x119;" horiz-adv-x="327" 
d="M259 -146l-35 -52c-76 4 -126 54 -126 110c0 29 13 58 41 82c-75 9 -109 60 -109 158v263c0 109 43 160 137 160c92 0 135 -49 135 -160v-174h-172v-77c0 -56 8 -76 36 -76s36 20 36 76v23h100v-35c0 -73 -19 -118 -57 -142c-38 -25 -58 -57 -58 -86c0 -31 23 -59 72 -70
zM202 335v69c0 56 -8 76 -36 76s-36 -20 -36 -76v-69h72z" />
    <glyph glyph-name="Ecaron" unicode="&#x11a;" horiz-adv-x="341" 
d="M314 0h-274v766h274v-97h-172v-234h165v-97h-165v-241h172v-97zM226 836h-90l-79 141h78l45 -77l40 77h81z" />
    <glyph glyph-name="ecaron" unicode="&#x11b;" horiz-adv-x="327" 
d="M302 187v-35c0 -111 -43 -160 -135 -160c-94 0 -137 51 -137 160v263c0 109 43 160 137 160c92 0 135 -49 135 -160v-174h-172v-77c0 -56 8 -76 36 -76s36 20 36 76v23h100zM202 335v69c0 56 -8 76 -36 76s-36 -20 -36 -76v-69h72zM212 637h-90l-79 141h78l45 -77l40 77
h81z" />
    <glyph glyph-name="uni1E1E" unicode="&#x1e1e;" horiz-adv-x="336" 
d="M142 0h-102v766h274v-97h-172v-234h165v-97h-165v-338zM182 831c-32 0 -60 26 -60 60c0 33 28 59 60 59c33 0 59 -26 59 -59c0 -34 -26 -60 -59 -60z" />
    <glyph glyph-name="uni1E1F" unicode="&#x1e1f;" horiz-adv-x="233" 
d="M162 0h-100v474h-55v93h55v70c0 108 43 140 113 140c18 0 40 -2 53 -7v-83c-7 1 -13 2 -20 2c-40 0 -46 -29 -46 -78v-44h65v-93h-65v-474zM143 824c-32 0 -60 26 -60 60c0 33 28 59 60 59c33 0 59 -26 59 -59c0 -34 -26 -60 -59 -60z" />
    <glyph glyph-name="Gcircumflex" unicode="&#x11c;" horiz-adv-x="390" 
d="M259 160v135h-68v97h170v-245c0 -115 -73 -160 -162 -160c-91 0 -164 47 -164 160v472c0 113 70 160 164 160c95 0 162 -48 162 -160v-119h-102v106c0 56 -28 76 -61 76s-61 -20 -61 -76v-446c0 -56 28 -76 61 -76s61 20 61 76zM320 836h-78l-45 77l-40 -77h-81l75 141
h90z" />
    <glyph glyph-name="gcircumflex" unicode="&#x11d;" horiz-adv-x="334" 
d="M302 -4v-48c0 -109 -53 -150 -142 -150c-97 0 -140 49 -140 160v50c0 53 13 92 31 117c-5 10 -13 17 -13 37c0 21 8 37 39 64c-27 23 -47 63 -47 125v64c0 110 43 160 139 160c34 0 54 -6 71 -17h92v-57l-47 2c13 -20 17 -43 17 -78v-67c0 -111 -43 -157 -140 -157
c-10 0 -19 0 -27 2c-8 -7 -12 -11 -12 -18c0 -17 24 -18 52 -18c94 -1 127 -59 127 -171zM202 372v32c0 56 -8 76 -36 76s-36 -20 -36 -76v-32c0 -56 8 -76 36 -76s36 20 36 76zM202 -39v25c0 63 -2 86 -41 86c-29 0 -41 -13 -41 -66v-37c0 -58 13 -76 43 -76
c26 0 39 13 39 68zM290 637h-78l-45 77l-40 -77h-81l75 141h90z" />
    <glyph glyph-name="Gbreve" unicode="&#x11e;" horiz-adv-x="390" 
d="M259 160v135h-68v97h170v-245c0 -115 -73 -160 -162 -160c-91 0 -164 47 -164 160v472c0 113 70 160 164 160c95 0 162 -48 162 -160v-119h-102v106c0 56 -28 76 -61 76s-61 -20 -61 -76v-446c0 -56 28 -76 61 -76s61 20 61 76zM259 949h56c-2 -78 -39 -124 -117 -124
s-116 46 -117 124h56c1 -27 14 -53 61 -53s59 26 61 53z" />
    <glyph glyph-name="gbreve" unicode="&#x11f;" horiz-adv-x="334" 
d="M302 -4v-48c0 -109 -53 -150 -142 -150c-97 0 -140 49 -140 160v50c0 53 13 92 31 117c-5 10 -13 17 -13 37c0 21 8 37 39 64c-27 23 -47 63 -47 125v64c0 110 43 160 139 160c34 0 54 -6 71 -17h92v-57l-47 2c13 -20 17 -43 17 -78v-67c0 -111 -43 -157 -140 -157
c-10 0 -19 0 -27 2c-8 -7 -12 -11 -12 -18c0 -17 24 -18 52 -18c94 -1 127 -59 127 -171zM202 372v32c0 56 -8 76 -36 76s-36 -20 -36 -76v-32c0 -56 8 -76 36 -76s36 20 36 76zM202 -39v25c0 63 -2 86 -41 86c-29 0 -41 -13 -41 -66v-37c0 -58 13 -76 43 -76
c26 0 39 13 39 68zM230 750h56c-2 -78 -39 -124 -117 -124s-116 46 -117 124h56c1 -27 14 -53 61 -53s59 26 61 53z" />
    <glyph glyph-name="Gdotaccent" unicode="&#x120;" horiz-adv-x="390" 
d="M259 160v135h-68v97h170v-245c0 -115 -73 -160 -162 -160c-91 0 -164 47 -164 160v472c0 113 70 160 164 160c95 0 162 -48 162 -160v-119h-102v106c0 56 -28 76 -61 76s-61 -20 -61 -76v-446c0 -56 28 -76 61 -76s61 20 61 76zM198 831c-32 0 -60 26 -60 60
c0 33 28 59 60 59c33 0 59 -26 59 -59c0 -34 -26 -60 -59 -60z" />
    <glyph glyph-name="gdotaccent" unicode="&#x121;" horiz-adv-x="334" 
d="M302 -4v-48c0 -109 -53 -150 -142 -150c-97 0 -140 49 -140 160v50c0 53 13 92 31 117c-5 10 -13 17 -13 37c0 21 8 37 39 64c-27 23 -47 63 -47 125v64c0 110 43 160 139 160c34 0 54 -6 71 -17h92v-57l-47 2c13 -20 17 -43 17 -78v-67c0 -111 -43 -157 -140 -157
c-10 0 -19 0 -27 2c-8 -7 -12 -11 -12 -18c0 -17 24 -18 52 -18c94 -1 127 -59 127 -171zM202 372v32c0 56 -8 76 -36 76s-36 -20 -36 -76v-32c0 -56 8 -76 36 -76s36 20 36 76zM202 -39v25c0 63 -2 86 -41 86c-29 0 -41 -13 -41 -66v-37c0 -58 13 -76 43 -76
c26 0 39 13 39 68zM169 632c-32 0 -60 26 -60 60c0 33 28 59 60 59c33 0 59 -26 59 -59c0 -34 -26 -60 -59 -60z" />
    <glyph glyph-name="Gcommaaccent" unicode="&#x122;" horiz-adv-x="390" 
d="M259 160v135h-68v97h170v-245c0 -115 -73 -160 -162 -160c-91 0 -164 47 -164 160v472c0 113 70 160 164 160c95 0 162 -48 162 -160v-119h-102v106c0 56 -28 76 -61 76s-61 -20 -61 -76v-446c0 -56 28 -76 61 -76s61 20 61 76zM193 -206h-76l53 156h106z" />
    <glyph glyph-name="gcommaaccent" unicode="&#x123;" horiz-adv-x="334" 
d="M302 -4v-48c0 -109 -53 -150 -142 -150c-97 0 -140 49 -140 160v50c0 53 13 92 31 117c-5 10 -13 17 -13 37c0 21 8 37 39 64c-27 23 -47 63 -47 125v64c0 110 43 160 139 160c34 0 54 -6 71 -17h92v-57l-47 2c13 -20 17 -43 17 -78v-67c0 -111 -43 -157 -140 -157
c-10 0 -19 0 -27 2c-8 -7 -12 -11 -12 -18c0 -17 24 -18 52 -18c94 -1 127 -59 127 -171zM202 372v32c0 56 -8 76 -36 76s-36 -20 -36 -76v-32c0 -56 8 -76 36 -76s36 20 36 76zM202 -39v25c0 63 -2 86 -41 86c-29 0 -41 -13 -41 -66v-37c0 -58 13 -76 43 -76
c26 0 39 13 39 68zM192 793h76l-53 -156h-106z" />
    <glyph glyph-name="Hcircumflex" unicode="&#x124;" horiz-adv-x="396" 
d="M356 0h-102v338h-112v-338h-102v766h102v-331h112v331h102v-766zM320 836h-78l-45 77l-40 -77h-81l75 141h90z" />
    <glyph glyph-name="hcircumflex" unicode="&#x125;" 
d="M306 0h-100v404c0 56 -8 76 -36 76s-36 -20 -36 -76v-404h-100v766h100v-239c13 20 33 48 86 48c70 0 86 -48 86 -156v-419zM207 818h-78l-45 77l-40 -77h-81l75 141h90z" />
    <glyph glyph-name="Hbar" unicode="&#x126;" horiz-adv-x="398" 
d="M357 0h-102v338h-112v-338h-102v576h-40v81h40v109h102v-109h112v109h102v-109h40v-81h-40v-576zM255 435v141h-112v-141h112z" />
    <glyph glyph-name="hbar" unicode="&#x127;" 
d="M306 0h-100v404c0 56 -8 76 -36 76s-36 -20 -36 -76v-404h-100v642h-34v71h34v53h100v-53h115v-71h-115v-115c13 20 33 48 86 48c70 0 86 -48 86 -156v-419z" />
    <glyph glyph-name="uni1E22" unicode="&#x1e22;" horiz-adv-x="396" 
d="M356 0h-102v338h-112v-338h-102v766h102v-331h112v331h102v-766zM198 831c-32 0 -60 26 -60 60c0 33 28 59 60 59c33 0 59 -26 59 -59c0 -34 -26 -60 -59 -60z" />
    <glyph glyph-name="uni1E23" unicode="&#x1e23;" 
d="M306 0h-100v404c0 56 -8 76 -36 76s-36 -20 -36 -76v-404h-100v766h100v-239c13 20 33 48 86 48c70 0 86 -48 86 -156v-419zM239 637c-32 0 -60 26 -60 60c0 33 28 59 60 59c33 0 59 -26 59 -59c0 -34 -26 -60 -59 -60z" />
    <glyph glyph-name="Igrave" unicode="&#xcc;" horiz-adv-x="182" 
d="M142 0h-102v766h102v-766zM138 836h-73l-95 131h111z" />
    <glyph glyph-name="igrave" unicode="&#xec;" horiz-adv-x="168" 
d="M134 0h-100v567h100v-567zM135 637h-73l-95 131h111z" />
    <glyph glyph-name="Iacute" unicode="&#xcd;" horiz-adv-x="182" 
d="M142 0h-102v766h102v-766zM115 836h-73l57 131h111z" />
    <glyph glyph-name="iacute" unicode="&#xed;" horiz-adv-x="168" 
d="M134 0h-100v567h100v-567zM105 637h-73l57 131h111z" />
    <glyph glyph-name="Icircumflex" unicode="&#xce;" horiz-adv-x="182" 
d="M142 0h-102v766h102v-766zM213 836h-78l-45 77l-40 -77h-81l75 141h90z" />
    <glyph glyph-name="icircumflex" unicode="&#xee;" horiz-adv-x="168" 
d="M134 0h-100v567h100v-567zM206 637h-78l-45 77l-40 -77h-81l75 141h90z" />
    <glyph glyph-name="Idieresis" unicode="&#xcf;" horiz-adv-x="182" 
d="M142 0h-102v766h102v-766zM6 826c-32 0 -60 26 -60 60c0 33 28 59 60 59c33 0 59 -26 59 -59c0 -34 -26 -60 -59 -60zM176 826c-32 0 -59 26 -59 60c0 33 27 59 59 59c34 0 60 -26 60 -59c0 -34 -26 -60 -60 -60z" />
    <glyph glyph-name="idieresis" unicode="&#xef;" horiz-adv-x="168" 
d="M134 0h-100v567h100v-567zM-1 627c-32 0 -60 26 -60 60c0 33 28 59 60 59c33 0 59 -26 59 -59c0 -34 -26 -60 -59 -60zM169 627c-32 0 -59 26 -59 60c0 33 27 59 59 59c34 0 60 -26 60 -59c0 -34 -26 -60 -60 -60z" />
    <glyph glyph-name="Itilde" unicode="&#x128;" horiz-adv-x="182" 
d="M142 0h-102v766h102v-766zM149 931h65c-2 -53 -24 -95 -72 -95c-32 0 -54 19 -83 19c-11 0 -24 -1 -26 -20h-65c2 53 24 95 72 95c32 0 54 -19 83 -19c9 0 24 0 26 20z" />
    <glyph glyph-name="itilde" unicode="&#x129;" horiz-adv-x="168" 
d="M134 0h-100v567h100v-567zM142 732h65c-2 -53 -24 -95 -72 -95c-32 0 -54 19 -83 19c-11 0 -24 -1 -26 -20h-65c2 53 24 95 72 95c32 0 54 -19 83 -19c9 0 24 0 26 20z" />
    <glyph glyph-name="Imacron" unicode="&#x12a;" horiz-adv-x="182" 
d="M142 0h-102v766h102v-766zM222 836h-262v81h262v-81z" />
    <glyph glyph-name="imacron" unicode="&#x12b;" horiz-adv-x="168" 
d="M134 0h-100v567h100v-567zM215 637h-262v81h262v-81z" />
    <glyph glyph-name="Ibreve" unicode="&#x12c;" horiz-adv-x="182" 
d="M142 0h-102v766h102v-766zM152 949h56c-2 -78 -39 -124 -117 -124s-116 46 -117 124h56c1 -27 14 -53 61 -53s59 26 61 53z" />
    <glyph glyph-name="ibreve" unicode="&#x12d;" horiz-adv-x="168" 
d="M134 0h-100v567h100v-567zM145 750h56c-2 -78 -39 -124 -117 -124s-116 46 -117 124h56c1 -27 14 -53 61 -53s59 26 61 53z" />
    <glyph glyph-name="Iogonek" unicode="&#x12e;" horiz-adv-x="182" 
d="M156 -156l-35 -52c-76 4 -126 54 -126 110c0 30 14 61 45 85v779h102v-766c-38 -25 -58 -57 -58 -86c0 -31 23 -59 72 -70z" />
    <glyph glyph-name="iogonek" unicode="&#x12f;" horiz-adv-x="168" 
d="M147 -156l-35 -52c-76 4 -126 54 -126 110c0 31 15 63 48 87v578h100v-567c-39 -25 -59 -57 -59 -86c0 -31 23 -59 72 -70zM84 625c-35 0 -63 28 -63 63s28 63 63 63s63 -28 63 -63s-28 -63 -63 -63z" />
    <glyph glyph-name="Idotaccent" unicode="&#x130;" horiz-adv-x="182" 
d="M142 0h-102v766h102v-766zM91 831c-32 0 -60 26 -60 60c0 33 28 59 60 59c33 0 59 -26 59 -59c0 -34 -26 -60 -59 -60z" />
    <glyph glyph-name="dotlessi" unicode="&#x131;" horiz-adv-x="168" 
d="M134 0h-100v567h100v-567z" />
    <glyph glyph-name="IJ" unicode="&#x132;" horiz-adv-x="364" 
d="M142 0h-102v766h102v-766zM166 -192h-3v97h3c28 0 56 20 56 76v785h102v-798c0 -115 -73 -160 -158 -160z" />
    <glyph glyph-name="ij" unicode="&#x133;" horiz-adv-x="336" 
d="M134 0h-100v567h100v-567zM84 625c-35 0 -63 28 -63 63s28 63 63 63s63 -28 63 -63s-28 -63 -63 -63zM136 -203v80c7 -1 10 -1 16 -1c43 0 50 27 50 77v614h100v-625c0 -107 -33 -150 -122 -150c-19 0 -31 2 -44 5zM252 625c-35 0 -63 28 -63 63s28 63 63 63
s63 -28 63 -63s-28 -63 -63 -63z" />
    <glyph glyph-name="Jcircumflex" unicode="&#x134;" horiz-adv-x="182" 
d="M-16 -192h-3v97h3c28 0 56 20 56 76v785h102v-798c0 -115 -73 -160 -158 -160zM213 836h-78l-45 77l-40 -77h-81l75 141h90z" />
    <glyph glyph-name="jcircumflex" unicode="&#x135;" horiz-adv-x="168" 
d="M-32 -203v80c7 -1 10 -1 16 -1c43 0 50 27 50 77v614h100v-625c0 -107 -33 -150 -122 -150c-19 0 -31 2 -44 5zM206 637h-78l-45 77l-40 -77h-81l75 141h90z" />
    <glyph glyph-name="dotlessj" unicode="&#x237;" horiz-adv-x="168" 
d="M-32 -203v80c7 -1 10 -1 16 -1c43 0 50 27 50 77v614h100v-625c0 -107 -33 -150 -122 -150c-19 0 -31 2 -44 5z" />
    <glyph glyph-name="Kcommaaccent" unicode="&#x136;" horiz-adv-x="377" 
d="M386 0h-102l-141 383l122 383h102l-116 -380zM142 0h-102v766h102v-766zM193 -206h-76l53 156h106z" />
    <glyph glyph-name="kcommaaccent" unicode="&#x137;" 
d="M338 0h-101l-102 290l102 277h102l-98 -274zM134 0h-100v766h100v-766zM172 -206h-76l53 156h106z" />
    <glyph glyph-name="kgreenlandic" unicode="&#x138;" 
d="M338 0h-101l-102 290l102 277h102l-98 -274zM134 0h-100v567h100v-567z" />
    <glyph glyph-name="Lslash" unicode="&#x141;" horiz-adv-x="309" 
d="M302 0h-224v250l-40 -23l-45 80l85 47v412h102v-355l58 33l43 -80l-101 -57v-210h122v-97z" />
    <glyph glyph-name="lslash" unicode="&#x142;" horiz-adv-x="248" 
d="M174 0h-100v256l-32 -18l-45 80l77 42v406h100v-351l34 19l43 -80l-77 -43v-311z" />
    <glyph glyph-name="Lacute" unicode="&#x139;" horiz-adv-x="271" 
d="M264 0h-224v766h102v-669h122v-97zM122 836h-73l57 131h111z" />
    <glyph glyph-name="lacute" unicode="&#x13a;" horiz-adv-x="170" 
d="M135 0h-100v766h100v-766zM113 837h-73l57 131h111z" />
    <glyph glyph-name="Lcommaaccent" unicode="&#x13b;" horiz-adv-x="271" 
d="M264 0h-224v766h102v-669h122v-97zM140 -206h-76l53 156h106z" />
    <glyph glyph-name="lcommaaccent" unicode="&#x13c;" horiz-adv-x="170" 
d="M135 0h-100v766h100v-766zM82 -206h-76l53 156h106z" />
    <glyph glyph-name="Lcaron" unicode="&#x13d;" horiz-adv-x="329" 
d="M262 538h-74l35 228h113zM264 0h-224v766h102v-669h122v-97z" />
    <glyph glyph-name="lcaron" unicode="&#x13e;" horiz-adv-x="230" 
d="M229 538h-74l35 228h113zM135 0h-100v766h100v-766z" />
    <glyph glyph-name="Ldot" unicode="&#x13f;" horiz-adv-x="317" 
d="M264 0h-224v766h102v-669h122v-97zM246 301c-35 0 -63 28 -63 63s28 63 63 63s63 -28 63 -63s-28 -63 -63 -63z" />
    <glyph glyph-name="ldot" unicode="&#x140;" horiz-adv-x="276" 
d="M135 0h-100v766h100v-766zM223 261c-35 0 -63 28 -63 63s28 63 63 63s63 -28 63 -63s-28 -63 -63 -63z" />
    <glyph glyph-name="uni1E40" unicode="&#x1e40;" horiz-adv-x="580" 
d="M540 0h-102l2 573l-104 -573h-92l-104 572l2 -572h-102v766h165l85 -534l85 534h165v-766zM290 831c-32 0 -60 26 -60 60c0 33 28 59 60 59c33 0 59 -26 59 -59c0 -34 -26 -60 -59 -60z" />
    <glyph glyph-name="uni1E41" unicode="&#x1e41;" horiz-adv-x="511" 
d="M478 0h-100v404c0 56 -8 76 -36 76s-36 -20 -36 -76v-404h-100v404c0 56 -8 76 -36 76s-36 -20 -36 -76v-404h-100v567h86l9 -46c13 22 37 54 92 54c45 0 68 -21 78 -66c19 39 45 66 95 66c68 0 84 -50 84 -156v-419zM257 632c-32 0 -60 26 -60 60c0 33 28 59 60 59
c33 0 59 -26 59 -59c0 -34 -26 -60 -59 -60z" />
    <glyph glyph-name="Ntilde" unicode="&#xd1;" horiz-adv-x="448" 
d="M408 0h-133l-135 511l2 -511h-102v766h128l140 -520l-2 520h102v-766zM295 931h65c-2 -53 -24 -95 -72 -95c-32 0 -54 19 -83 19c-11 0 -24 -1 -26 -20h-65c2 53 24 95 72 95c32 0 54 -19 83 -19c9 0 24 0 26 20z" />
    <glyph glyph-name="ntilde" unicode="&#xf1;" 
d="M306 0h-100v404c0 56 -8 76 -36 76s-36 -20 -36 -76v-404h-100v567h86l9 -46c13 22 37 54 92 54c69 0 85 -49 85 -156v-419zM228 732h65c-2 -53 -24 -95 -72 -95c-32 0 -54 19 -83 19c-11 0 -24 -1 -26 -20h-65c2 53 24 95 72 95c32 0 54 -19 83 -19c9 0 24 0 26 20z" />
    <glyph glyph-name="Nacute" unicode="&#x143;" horiz-adv-x="448" 
d="M408 0h-133l-135 511l2 -511h-102v766h128l140 -520l-2 520h102v-766zM263 836h-73l57 131h111z" />
    <glyph glyph-name="nacute" unicode="&#x144;" 
d="M306 0h-100v404c0 56 -8 76 -36 76s-36 -20 -36 -76v-404h-100v567h86l9 -46c13 22 37 54 92 54c69 0 85 -49 85 -156v-419zM185 637h-73l57 131h111z" />
    <glyph glyph-name="Ncommaaccent" unicode="&#x145;" horiz-adv-x="448" 
d="M408 0h-133l-135 511l2 -511h-102v766h128l140 -520l-2 520h102v-766zM220 -206h-76l53 156h106z" />
    <glyph glyph-name="ncommaaccent" unicode="&#x146;" 
d="M306 0h-100v404c0 56 -8 76 -36 76s-36 -20 -36 -76v-404h-100v567h86l9 -46c13 22 37 54 92 54c69 0 85 -49 85 -156v-419zM165 -206h-76l53 156h106z" />
    <glyph glyph-name="Ncaron" unicode="&#x147;" horiz-adv-x="448" 
d="M408 0h-133l-135 511l2 -511h-102v766h128l140 -520l-2 520h102v-766zM280 836h-90l-79 141h78l45 -77l40 77h81z" />
    <glyph glyph-name="ncaron" unicode="&#x148;" 
d="M306 0h-100v404c0 56 -8 76 -36 76s-36 -20 -36 -76v-404h-100v567h86l9 -46c13 22 37 54 92 54c69 0 85 -49 85 -156v-419zM215 637h-90l-79 141h78l45 -77l40 77h81z" />
    <glyph glyph-name="Eng" unicode="&#x14a;" horiz-adv-x="448" 
d="M250 -199h-3v97h3c28 0 56 20 56 76v35l-166 502l2 -511h-102v766h128l140 -471l-2 471h102v-805c0 -115 -73 -160 -158 -160z" />
    <glyph glyph-name="eng" unicode="&#x14b;" 
d="M140 -203v70c7 -1 10 -1 16 -1c43 0 50 27 50 77v461c0 56 -8 76 -36 76s-36 -20 -36 -76v-404h-100v567h86l9 -46c13 22 37 54 92 54c69 0 85 -49 85 -156v-477c0 -107 -33 -150 -122 -150c-19 0 -31 2 -44 5z" />
    <glyph glyph-name="Ograve" unicode="&#xd2;" horiz-adv-x="386" 
d="M35 147v472c0 113 70 160 164 160c95 0 152 -48 152 -160v-472c0 -115 -73 -160 -157 -160c-86 0 -159 47 -159 160zM249 160v446c0 56 -28 76 -56 76s-56 -20 -56 -76v-446c0 -56 28 -76 56 -76s56 20 56 76zM242 836h-73l-95 131h111z" />
    <glyph glyph-name="ograve" unicode="&#xf2;" horiz-adv-x="332" 
d="M302 415v-263c0 -111 -43 -160 -135 -160c-94 0 -137 51 -137 160v263c0 109 43 160 137 160c92 0 135 -49 135 -160zM202 164v240c0 56 -8 76 -36 76s-36 -20 -36 -76v-240c0 -56 8 -76 36 -76s36 20 36 76zM222 637h-73l-95 131h111z" />
    <glyph glyph-name="Oacute" unicode="&#xd3;" horiz-adv-x="386" 
d="M35 147v472c0 113 70 160 164 160c95 0 152 -48 152 -160v-472c0 -115 -73 -160 -157 -160c-86 0 -159 47 -159 160zM249 160v446c0 56 -28 76 -56 76s-56 -20 -56 -76v-446c0 -56 28 -76 56 -76s56 20 56 76zM222 836h-73l57 131h111z" />
    <glyph glyph-name="oacute" unicode="&#xf3;" horiz-adv-x="332" 
d="M302 415v-263c0 -111 -43 -160 -135 -160c-94 0 -137 51 -137 160v263c0 109 43 160 137 160c92 0 135 -49 135 -160zM202 164v240c0 56 -8 76 -36 76s-36 -20 -36 -76v-240c0 -56 8 -76 36 -76s36 20 36 76zM185 637h-73l57 131h111z" />
    <glyph glyph-name="Ocircumflex" unicode="&#xd4;" horiz-adv-x="386" 
d="M35 147v472c0 113 70 160 164 160c95 0 152 -48 152 -160v-472c0 -115 -73 -160 -157 -160c-86 0 -159 47 -159 160zM249 160v446c0 56 -28 76 -56 76s-56 -20 -56 -76v-446c0 -56 28 -76 56 -76s56 20 56 76zM315 836h-78l-45 77l-40 -77h-81l75 141h90z" />
    <glyph glyph-name="ocircumflex" unicode="&#xf4;" horiz-adv-x="332" 
d="M302 415v-263c0 -111 -43 -160 -135 -160c-94 0 -137 51 -137 160v263c0 109 43 160 137 160c92 0 135 -49 135 -160zM202 164v240c0 56 -8 76 -36 76s-36 -20 -36 -76v-240c0 -56 8 -76 36 -76s36 20 36 76zM288 637h-78l-45 77l-40 -77h-81l75 141h90z" />
    <glyph glyph-name="Otilde" unicode="&#xd5;" horiz-adv-x="386" 
d="M35 147v472c0 113 70 160 164 160c95 0 152 -48 152 -160v-472c0 -115 -73 -160 -157 -160c-86 0 -159 47 -159 160zM249 160v446c0 56 -28 76 -56 76s-56 -20 -56 -76v-446c0 -56 28 -76 56 -76s56 20 56 76zM251 931h65c-2 -53 -24 -95 -72 -95c-32 0 -54 19 -83 19
c-11 0 -24 -1 -26 -20h-65c2 53 24 95 72 95c32 0 54 -19 83 -19c9 0 24 0 26 20z" />
    <glyph glyph-name="otilde" unicode="&#xf5;" horiz-adv-x="332" 
d="M302 415v-263c0 -111 -43 -160 -135 -160c-94 0 -137 51 -137 160v263c0 109 43 160 137 160c92 0 135 -49 135 -160zM202 164v240c0 56 -8 76 -36 76s-36 -20 -36 -76v-240c0 -56 8 -76 36 -76s36 20 36 76zM224 732h65c-2 -53 -24 -95 -72 -95c-32 0 -54 19 -83 19
c-11 0 -24 -1 -26 -20h-65c2 53 24 95 72 95c32 0 54 -19 83 -19c9 0 24 0 26 20z" />
    <glyph glyph-name="Odieresis" unicode="&#xd6;" horiz-adv-x="386" 
d="M35 147v472c0 113 70 160 164 160c95 0 152 -48 152 -160v-472c0 -115 -73 -160 -157 -160c-86 0 -159 47 -159 160zM249 160v446c0 56 -28 76 -56 76s-56 -20 -56 -76v-446c0 -56 28 -76 56 -76s56 20 56 76zM108 826c-32 0 -60 26 -60 60c0 33 28 59 60 59
c33 0 59 -26 59 -59c0 -34 -26 -60 -59 -60zM278 826c-32 0 -59 26 -59 60c0 33 27 59 59 59c34 0 60 -26 60 -59c0 -34 -26 -60 -60 -60z" />
    <glyph glyph-name="odieresis" unicode="&#xf6;" horiz-adv-x="332" 
d="M302 415v-263c0 -111 -43 -160 -135 -160c-94 0 -137 51 -137 160v263c0 109 43 160 137 160c92 0 135 -49 135 -160zM202 164v240c0 56 -8 76 -36 76s-36 -20 -36 -76v-240c0 -56 8 -76 36 -76s36 20 36 76zM81 627c-32 0 -60 26 -60 60c0 33 28 59 60 59
c33 0 59 -26 59 -59c0 -34 -26 -60 -59 -60zM251 627c-32 0 -59 26 -59 60c0 33 27 59 59 59c34 0 60 -26 60 -59c0 -34 -26 -60 -60 -60z" />
    <glyph glyph-name="Omacron" unicode="&#x14c;" horiz-adv-x="386" 
d="M35 147v472c0 113 70 160 164 160c95 0 152 -48 152 -160v-472c0 -115 -73 -160 -157 -160c-86 0 -159 47 -159 160zM249 160v446c0 56 -28 76 -56 76s-56 -20 -56 -76v-446c0 -56 28 -76 56 -76s56 20 56 76zM324 836h-262v81h262v-81z" />
    <glyph glyph-name="omacron" unicode="&#x14d;" horiz-adv-x="332" 
d="M302 415v-263c0 -111 -43 -160 -135 -160c-94 0 -137 51 -137 160v263c0 109 43 160 137 160c92 0 135 -49 135 -160zM202 164v240c0 56 -8 76 -36 76s-36 -20 -36 -76v-240c0 -56 8 -76 36 -76s36 20 36 76zM297 637h-262v81h262v-81z" />
    <glyph glyph-name="Obreve" unicode="&#x14e;" horiz-adv-x="386" 
d="M35 147v472c0 113 70 160 164 160c95 0 152 -48 152 -160v-472c0 -115 -73 -160 -157 -160c-86 0 -159 47 -159 160zM249 160v446c0 56 -28 76 -56 76s-56 -20 -56 -76v-446c0 -56 28 -76 56 -76s56 20 56 76zM254 949h56c-2 -78 -39 -124 -117 -124s-116 46 -117 124h56
c1 -27 14 -53 61 -53s59 26 61 53z" />
    <glyph glyph-name="obreve" unicode="&#x14f;" horiz-adv-x="332" 
d="M302 415v-263c0 -111 -43 -160 -135 -160c-94 0 -137 51 -137 160v263c0 109 43 160 137 160c92 0 135 -49 135 -160zM202 164v240c0 56 -8 76 -36 76s-36 -20 -36 -76v-240c0 -56 8 -76 36 -76s36 20 36 76zM227 750h56c-2 -78 -39 -124 -117 -124s-116 46 -117 124h56
c1 -27 14 -53 61 -53s59 26 61 53z" />
    <glyph glyph-name="Ohungarumlaut" unicode="&#x150;" horiz-adv-x="386" 
d="M35 147v472c0 113 70 160 164 160c95 0 152 -48 152 -160v-472c0 -115 -73 -160 -157 -160c-86 0 -159 47 -159 160zM249 160v446c0 56 -28 76 -56 76s-56 -20 -56 -76v-446c0 -56 28 -76 56 -76s56 20 56 76zM155 836h-83l44 135h101zM292 836h-83l44 135h101z" />
    <glyph glyph-name="ohungarumlaut" unicode="&#x151;" horiz-adv-x="332" 
d="M302 415v-263c0 -111 -43 -160 -135 -160c-94 0 -137 51 -137 160v263c0 109 43 160 137 160c92 0 135 -49 135 -160zM202 164v240c0 56 -8 76 -36 76s-36 -20 -36 -76v-240c0 -56 8 -76 36 -76s36 20 36 76zM126 637h-83l44 135h101zM263 637h-83l44 135h101z" />
    <glyph glyph-name="Oslash" unicode="&#xd8;" horiz-adv-x="386" 
d="M145 -53h-37l8 55c-48 22 -81 68 -81 145v472c0 113 70 160 164 160c13 0 26 -1 38 -3l7 42h37l-8 -52c50 -21 78 -68 78 -147v-472c0 -115 -73 -160 -157 -160c-15 0 -29 1 -42 4zM138 102l83 571c-8 6 -18 9 -28 9c-28 0 -56 -20 -56 -76v-446zM249 160v483l-82 -553
c8 -4 17 -6 26 -6c28 0 56 20 56 76z" />
    <glyph glyph-name="oslash" unicode="&#xf8;" horiz-adv-x="332" 
d="M131 -53h-31l8 53c-53 19 -78 69 -78 152v263c0 109 43 160 137 160c10 0 20 -1 29 -2l7 43h31l-8 -50c52 -19 76 -68 76 -151v-263c0 -111 -43 -160 -135 -160c-11 0 -20 1 -29 2zM130 101l51 376c-4 2 -9 3 -15 3c-28 0 -36 -20 -36 -76v-303zM202 164v284l-49 -358
c3 -2 8 -2 13 -2c28 0 36 20 36 76z" />
    <glyph glyph-name="Oslashacute" unicode="&#x1fe;" horiz-adv-x="387" 
d="M145 -53h-37l8 55c-48 22 -81 68 -81 145v472c0 113 70 160 164 160c13 0 26 -1 38 -3l7 42h37l-8 -52c50 -21 78 -68 78 -147v-472c0 -115 -73 -160 -157 -160c-15 0 -29 1 -42 4zM138 102l83 571c-8 6 -18 9 -28 9c-28 0 -56 -20 -56 -76v-446zM249 160v483l-82 -553
c8 -4 17 -6 26 -6c28 0 56 20 56 76zM202 836h-73l57 131h111z" />
    <glyph glyph-name="oslashacute" unicode="&#x1ff;" horiz-adv-x="333" 
d="M131 -53h-31l8 53c-53 19 -78 69 -78 152v263c0 109 43 160 137 160c10 0 20 -1 29 -2l7 43h31l-8 -50c52 -19 76 -68 76 -151v-263c0 -111 -43 -160 -135 -160c-11 0 -20 1 -29 2zM130 101l51 376c-4 2 -9 3 -15 3c-28 0 -36 -20 -36 -76v-303zM202 164v284l-49 -358
c3 -2 8 -2 13 -2c28 0 36 20 36 76zM175 637h-73l57 131h111z" />
    <glyph glyph-name="OE" unicode="&#x152;" horiz-adv-x="550" 
d="M523 0h-258c-21 -9 -46 -13 -71 -13c-86 0 -159 47 -159 160v472c0 113 70 160 164 160c28 0 52 -5 73 -13h251v-97h-172v-234h165v-97h-165v-241h172v-97zM249 152v454c0 56 -28 76 -56 76s-56 -20 -56 -76v-446c0 -56 28 -76 56 -76c26 0 53 18 56 68z" />
    <glyph glyph-name="oe" unicode="&#x153;" horiz-adv-x="499" 
d="M474 187v-35c0 -111 -43 -160 -134 -160c-37 0 -66 8 -88 33c-21 -25 -50 -33 -86 -33c-93 0 -136 52 -136 160v263c0 108 43 160 136 160c36 0 65 -8 86 -33c22 25 51 33 88 33c91 0 134 -49 134 -160v-174h-172v-89c0 -47 10 -64 36 -64c28 0 36 20 36 76v23h100z
M202 152v264c0 47 -10 64 -36 64c-28 0 -36 -20 -36 -76v-240c0 -56 8 -76 36 -76c26 0 35 17 36 64zM374 335v69c0 56 -8 76 -36 76c-26 0 -36 -18 -36 -65v-80h72z" />
    <glyph glyph-name="uni1E56" unicode="&#x1e56;" horiz-adv-x="371" 
d="M142 0h-102v766h169c77 0 142 -45 142 -160v-131c0 -115 -59 -160 -136 -160h-73v-315zM249 488v105c0 56 -18 76 -56 76h-51v-257h51c38 0 56 20 56 76zM181 831c-32 0 -60 26 -60 60c0 33 28 59 60 59c33 0 59 -26 59 -59c0 -34 -26 -60 -59 -60z" />
    <glyph glyph-name="uni1E57" unicode="&#x1e57;" horiz-adv-x="337" 
d="M134 -199h-100v766h86l9 -46c13 22 37 54 92 54c69 0 85 -49 85 -156v-271c0 -108 -16 -156 -86 -156c-53 0 -73 28 -86 48v-239zM206 163v241c0 56 -8 76 -36 76s-36 -20 -36 -76v-241c0 -56 8 -76 36 -76s36 20 36 76zM168 632c-32 0 -60 26 -60 60c0 33 28 59 60 59
c33 0 59 -26 59 -59c0 -34 -26 -60 -59 -60z" />
    <glyph glyph-name="Thorn" unicode="&#xde;" horiz-adv-x="368" 
d="M142 0h-102v766h102v-163h63c87 0 146 -45 146 -170v-98c0 -125 -55 -170 -136 -170h-73v-165zM249 338v92c0 56 -18 76 -56 76h-51v-244h51c38 0 56 20 56 76z" />
    <glyph glyph-name="thorn" unicode="&#xfe;" horiz-adv-x="337" 
d="M134 -199h-100v965h100v-238c13 20 32 47 87 47c69 0 85 -49 85 -156v-271c0 -108 -16 -156 -86 -156c-53 0 -73 28 -86 48v-239zM206 163v241c0 56 -8 76 -36 76s-36 -20 -36 -76v-241c0 -56 8 -76 36 -76s36 20 36 76z" />
    <glyph glyph-name="Racute" unicode="&#x154;" horiz-adv-x="376" 
d="M371 0h-102l-88 315h-39v-315h-102v766h170c77 0 141 -45 141 -160v-123c0 -77 -18 -122 -74 -146zM249 488v105c0 56 -18 76 -56 76h-51v-257h51c38 0 56 20 56 76zM204 836h-73l57 131h111z" />
    <glyph glyph-name="racute" unicode="&#x155;" horiz-adv-x="264" 
d="M134 0h-100v567h87l8 -46c8 18 37 53 85 53c16 0 37 -4 48 -12l-9 -103c-21 9 -43 14 -60 14c-36 0 -59 -25 -59 -90v-383zM155 637h-73l57 131h111z" />
    <glyph glyph-name="Rcommaaccent" unicode="&#x156;" horiz-adv-x="376" 
d="M371 0h-102l-88 315h-39v-315h-102v766h170c77 0 141 -45 141 -160v-123c0 -77 -18 -122 -74 -146zM249 488v105c0 56 -18 76 -56 76h-51v-257h51c38 0 56 20 56 76zM193 -206h-76l53 156h106z" />
    <glyph glyph-name="rcommaaccent" unicode="&#x157;" horiz-adv-x="264" 
d="M134 0h-100v567h87l8 -46c8 18 37 53 85 53c16 0 37 -4 48 -12l-9 -103c-21 9 -43 14 -60 14c-36 0 -59 -25 -59 -90v-383zM96 -206h-76l53 156h106z" />
    <glyph glyph-name="Rcaron" unicode="&#x158;" horiz-adv-x="376" 
d="M371 0h-102l-88 315h-39v-315h-102v766h170c77 0 141 -45 141 -160v-123c0 -77 -18 -122 -74 -146zM249 488v105c0 56 -18 76 -56 76h-51v-257h51c38 0 56 20 56 76zM231 836h-90l-79 141h78l45 -77l40 77h81z" />
    <glyph glyph-name="rcaron" unicode="&#x159;" horiz-adv-x="264" 
d="M134 0h-100v567h87l8 -46c8 18 37 53 85 53c16 0 37 -4 48 -12l-9 -103c-21 9 -43 14 -60 14c-36 0 -59 -25 -59 -90v-383zM187 637h-90l-79 141h78l45 -77l40 77h81z" />
    <glyph glyph-name="Scaron" unicode="&#x160;" horiz-adv-x="371" 
d="M343 244v-97c0 -111 -65 -160 -158 -160s-158 51 -158 160v109h102v-96c0 -56 28 -76 56 -76s56 20 56 76v63c0 85 -214 155 -214 300v96c0 113 73 160 158 160c98 0 158 -45 158 -160v-120h-102v107c0 56 -28 76 -56 76s-56 -20 -56 -76v-64c0 -116 214 -155 214 -298z
M232 836h-90l-79 141h78l45 -77l40 77h81z" />
    <glyph glyph-name="scaron" unicode="&#x161;" horiz-adv-x="323" 
d="M120 187v-24c0 -50 10 -76 42 -76c30 0 40 22 40 50c0 122 -182 105 -182 292c0 95 47 146 144 146c95 0 138 -48 138 -160v-37h-100v26c0 55 -8 76 -40 76c-35 0 -41 -25 -41 -51c0 -136 181 -100 181 -291c0 -93 -43 -146 -142 -146c-97 0 -140 52 -140 158v37h100z
M208 637h-90l-79 141h78l45 -77l40 77h81z" />
    <glyph glyph-name="Scommaaccent" unicode="&#x218;" horiz-adv-x="371" 
d="M343 244v-97c0 -111 -65 -160 -158 -160s-158 51 -158 160v109h102v-96c0 -56 28 -76 56 -76s56 20 56 76v63c0 85 -214 155 -214 300v96c0 113 73 160 158 160c98 0 158 -45 158 -160v-120h-102v107c0 56 -28 76 -56 76s-56 -20 -56 -76v-64c0 -116 214 -155 214 -298z
M188 -206h-76l53 156h106z" />
    <glyph glyph-name="scommaaccent" unicode="&#x219;" horiz-adv-x="323" 
d="M120 187v-24c0 -50 10 -76 42 -76c30 0 40 22 40 50c0 122 -182 105 -182 292c0 95 47 146 144 146c95 0 138 -48 138 -160v-37h-100v26c0 55 -8 76 -40 76c-35 0 -41 -25 -41 -51c0 -136 181 -100 181 -291c0 -93 -43 -146 -142 -146c-97 0 -140 52 -140 158v37h100z
M162 -206h-76l53 156h106z" />
    <glyph glyph-name="Scedilla" unicode="&#x15e;" horiz-adv-x="371" 
d="M108 -176l15 56c6 -4 20 -9 34 -9c25 0 39 16 39 32c0 15 -10 30 -41 30c-3 0 -6 0 -10 -1l14 57c-79 9 -132 59 -132 158v109h102v-96c0 -56 28 -76 56 -76s56 20 56 76v63c0 85 -214 155 -214 300v96c0 113 73 160 158 160c98 0 158 -45 158 -160v-120h-102v107
c0 56 -28 76 -56 76s-56 -20 -56 -76v-64c0 -116 214 -155 214 -298v-97c0 -92 -45 -141 -113 -155l-10 -38c43 0 66 -32 66 -65c0 -38 -31 -79 -102 -79c-30 0 -60 7 -76 14z" />
    <glyph glyph-name="scedilla" unicode="&#x15f;" horiz-adv-x="322" 
d="M78 -176l15 56c6 -4 20 -9 34 -9c25 0 39 16 39 32c0 15 -10 30 -41 30c-3 0 -6 0 -10 -1l15 62c-77 9 -111 61 -111 156v37h100v-24c0 -50 10 -76 42 -76c30 0 40 22 40 50c0 122 -182 105 -182 292c0 95 47 146 144 146c95 0 138 -48 138 -160v-37h-100v26
c0 55 -8 76 -40 76c-35 0 -41 -25 -41 -51c0 -136 181 -100 181 -291c0 -79 -31 -128 -99 -142l-12 -42c43 0 66 -32 66 -65c0 -38 -31 -79 -102 -79c-30 0 -60 7 -76 14z" />
    <glyph glyph-name="Sacute" unicode="&#x15a;" horiz-adv-x="371" 
d="M343 244v-97c0 -111 -65 -160 -158 -160s-158 51 -158 160v109h102v-96c0 -56 28 -76 56 -76s56 20 56 76v63c0 85 -214 155 -214 300v96c0 113 73 160 158 160c98 0 158 -45 158 -160v-120h-102v107c0 56 -28 76 -56 76s-56 -20 -56 -76v-64c0 -116 214 -155 214 -298z
M204 836h-73l57 131h111z" />
    <glyph glyph-name="sacute" unicode="&#x15b;" horiz-adv-x="323" 
d="M120 187v-24c0 -50 10 -76 42 -76c30 0 40 22 40 50c0 122 -182 105 -182 292c0 95 47 146 144 146c95 0 138 -48 138 -160v-37h-100v26c0 55 -8 76 -40 76c-35 0 -41 -25 -41 -51c0 -136 181 -100 181 -291c0 -93 -43 -146 -142 -146c-97 0 -140 52 -140 158v37h100z
M175 637h-73l57 131h111z" />
    <glyph glyph-name="Scircumflex" unicode="&#x15c;" horiz-adv-x="371" 
d="M343 244v-97c0 -111 -65 -160 -158 -160s-158 51 -158 160v109h102v-96c0 -56 28 -76 56 -76s56 20 56 76v63c0 85 -214 155 -214 300v96c0 113 73 160 158 160c98 0 158 -45 158 -160v-120h-102v107c0 56 -28 76 -56 76s-56 -20 -56 -76v-64c0 -116 214 -155 214 -298z
M307 836h-78l-45 77l-40 -77h-81l75 141h90z" />
    <glyph glyph-name="scircumflex" unicode="&#x15d;" horiz-adv-x="323" 
d="M120 187v-24c0 -50 10 -76 42 -76c30 0 40 22 40 50c0 122 -182 105 -182 292c0 95 47 146 144 146c95 0 138 -48 138 -160v-37h-100v26c0 55 -8 76 -40 76c-35 0 -41 -25 -41 -51c0 -136 181 -100 181 -291c0 -93 -43 -146 -142 -146c-97 0 -140 52 -140 158v37h100z
M283 637h-78l-45 77l-40 -77h-81l75 141h90z" />
    <glyph glyph-name="uni1E60" unicode="&#x1e60;" horiz-adv-x="371" 
d="M343 244v-97c0 -111 -65 -160 -158 -160s-158 51 -158 160v109h102v-96c0 -56 28 -76 56 -76s56 20 56 76v63c0 85 -214 155 -214 300v96c0 113 73 160 158 160c98 0 158 -45 158 -160v-120h-102v107c0 56 -28 76 -56 76s-56 -20 -56 -76v-64c0 -116 214 -155 214 -298z
M185 831c-32 0 -60 26 -60 60c0 33 28 59 60 59c33 0 59 -26 59 -59c0 -34 -26 -60 -59 -60z" />
    <glyph glyph-name="uni1E61" unicode="&#x1e61;" horiz-adv-x="323" 
d="M120 187v-24c0 -50 10 -76 42 -76c30 0 40 22 40 50c0 122 -182 105 -182 292c0 95 47 146 144 146c95 0 138 -48 138 -160v-37h-100v26c0 55 -8 76 -40 76c-35 0 -41 -25 -41 -51c0 -136 181 -100 181 -291c0 -93 -43 -146 -142 -146c-97 0 -140 52 -140 158v37h100z
M161 632c-32 0 -60 26 -60 60c0 33 28 59 60 59c33 0 59 -26 59 -59c0 -34 -26 -60 -59 -60z" />
    <glyph glyph-name="Tcaron" unicode="&#x164;" horiz-adv-x="308" 
d="M205 0h-102v669h-95v97h292v-97h-95v-669zM201 836h-90l-79 141h78l45 -77l40 77h81z" />
    <glyph glyph-name="tcaron" unicode="&#x165;" horiz-adv-x="231" 
d="M270 621h-74l35 178h113zM219 82v-85c-13 -3 -26 -5 -40 -5c-93 0 -126 41 -126 150v332h-45v93h45v140h100v-140h65v-93h-65v-316c0 -49 6 -78 46 -78c6 0 13 1 20 2z" />
    <glyph glyph-name="Tbar" unicode="&#x166;" horiz-adv-x="322" 
d="M212 0h-102v349h-70v81h70v239h-95v97h292v-97h-95v-239h70v-81h-70v-349z" />
    <glyph glyph-name="tbar" unicode="&#x167;" horiz-adv-x="232" 
d="M220 82v-85c-13 -3 -26 -5 -40 -5c-93 0 -126 41 -126 150v134h-42v81h42v117h-45v93h45v140h100v-140h65v-93h-65v-117h60v-81h-60v-118c0 -49 6 -78 46 -78c6 0 13 1 20 2z" />
    <glyph glyph-name="Tcommaaccent" unicode="&#x162;" horiz-adv-x="308" 
d="M205 0h-102v669h-95v97h292v-97h-95v-669zM150 -206h-76l53 156h106z" />
    <glyph glyph-name="tcommaaccent" unicode="&#x163;" horiz-adv-x="231" 
d="M219 82v-85c-13 -3 -26 -5 -40 -5c-93 0 -126 41 -126 150v332h-45v93h45v140h100v-140h65v-93h-65v-316c0 -49 6 -78 46 -78c6 0 13 1 20 2zM130 -206h-76l53 156h106z" />
    <glyph glyph-name="uni1E6A" unicode="&#x1e6a;" horiz-adv-x="308" 
d="M205 0h-102v669h-95v97h292v-97h-95v-669zM154 831c-32 0 -60 26 -60 60c0 33 28 59 60 59c33 0 59 -26 59 -59c0 -34 -26 -60 -59 -60z" />
    <glyph glyph-name="uni1E6B" unicode="&#x1e6b;" horiz-adv-x="231" 
d="M219 82v-85c-13 -3 -26 -5 -40 -5c-93 0 -126 41 -126 150v332h-45v93h45v140h100v-140h65v-93h-65v-316c0 -49 6 -78 46 -78c6 0 13 1 20 2zM106 762c-32 0 -60 26 -60 60c0 33 28 59 60 59c33 0 59 -26 59 -59c0 -34 -26 -60 -59 -60z" />
    <glyph glyph-name="Ugrave" unicode="&#xd9;" horiz-adv-x="392" 
d="M252 160v606h102v-619c0 -115 -73 -160 -157 -160c-86 0 -159 47 -159 160v619h102v-606c0 -56 28 -76 56 -76s56 20 56 76zM242 836h-73l-95 131h111z" />
    <glyph glyph-name="ugrave" unicode="&#xf9;" 
d="M305 0h-86l-9 46c-13 -22 -37 -54 -92 -54c-69 0 -85 49 -85 156v419h100v-404c0 -56 8 -76 36 -76s36 20 36 76v404h100v-567zM217 637h-73l-95 131h111z" />
    <glyph glyph-name="Uacute" unicode="&#xda;" horiz-adv-x="392" 
d="M252 160v606h102v-619c0 -115 -73 -160 -157 -160c-86 0 -159 47 -159 160v619h102v-606c0 -56 28 -76 56 -76s56 20 56 76zM226 836h-73l57 131h111z" />
    <glyph glyph-name="uacute" unicode="&#xfa;" 
d="M305 0h-86l-9 46c-13 -22 -37 -54 -92 -54c-69 0 -85 49 -85 156v419h100v-404c0 -56 8 -76 36 -76s36 20 36 76v404h100v-567zM188 637h-73l57 131h111z" />
    <glyph glyph-name="Ucircumflex" unicode="&#xdb;" horiz-adv-x="392" 
d="M252 160v606h102v-619c0 -115 -73 -160 -157 -160c-86 0 -159 47 -159 160v619h102v-606c0 -56 28 -76 56 -76s56 20 56 76zM308 836h-78l-45 77l-40 -77h-81l75 141h90z" />
    <glyph glyph-name="ucircumflex" unicode="&#xfb;" 
d="M305 0h-86l-9 46c-13 -22 -37 -54 -92 -54c-69 0 -85 49 -85 156v419h100v-404c0 -56 8 -76 36 -76s36 20 36 76v404h100v-567zM291 637h-78l-45 77l-40 -77h-81l75 141h90z" />
    <glyph glyph-name="Udieresis" unicode="&#xdc;" horiz-adv-x="392" 
d="M252 160v606h102v-619c0 -115 -73 -160 -157 -160c-86 0 -159 47 -159 160v619h102v-606c0 -56 28 -76 56 -76s56 20 56 76zM111 826c-32 0 -60 26 -60 60c0 33 28 59 60 59c33 0 59 -26 59 -59c0 -34 -26 -60 -59 -60zM281 826c-32 0 -59 26 -59 60c0 33 27 59 59 59
c34 0 60 -26 60 -59c0 -34 -26 -60 -60 -60z" />
    <glyph glyph-name="udieresis" unicode="&#xfc;" 
d="M305 0h-86l-9 46c-13 -22 -37 -54 -92 -54c-69 0 -85 49 -85 156v419h100v-404c0 -56 8 -76 36 -76s36 20 36 76v404h100v-567zM85 627c-32 0 -60 26 -60 60c0 33 28 59 60 59c33 0 59 -26 59 -59c0 -34 -26 -60 -59 -60zM255 627c-32 0 -59 26 -59 60c0 33 27 59 59 59
c34 0 60 -26 60 -59c0 -34 -26 -60 -60 -60z" />
    <glyph glyph-name="Utilde" unicode="&#x168;" horiz-adv-x="392" 
d="M252 160v606h102v-619c0 -115 -73 -160 -157 -160c-86 0 -159 47 -159 160v619h102v-606c0 -56 28 -76 56 -76s56 20 56 76zM254 931h65c-2 -53 -24 -95 -72 -95c-32 0 -54 19 -83 19c-11 0 -24 -1 -26 -20h-65c2 53 24 95 72 95c32 0 54 -19 83 -19c9 0 24 0 26 20z" />
    <glyph glyph-name="utilde" unicode="&#x169;" 
d="M305 0h-86l-9 46c-13 -22 -37 -54 -92 -54c-69 0 -85 49 -85 156v419h100v-404c0 -56 8 -76 36 -76s36 20 36 76v404h100v-567zM228 732h65c-2 -53 -24 -95 -72 -95c-32 0 -54 19 -83 19c-11 0 -24 -1 -26 -20h-65c2 53 24 95 72 95c32 0 54 -19 83 -19c9 0 24 0 26 20z
" />
    <glyph glyph-name="Umacron" unicode="&#x16a;" horiz-adv-x="392" 
d="M252 160v606h102v-619c0 -115 -73 -160 -157 -160c-86 0 -159 47 -159 160v619h102v-606c0 -56 28 -76 56 -76s56 20 56 76zM327 836h-262v81h262v-81z" />
    <glyph glyph-name="umacron" unicode="&#x16b;" 
d="M305 0h-86l-9 46c-13 -22 -37 -54 -92 -54c-69 0 -85 49 -85 156v419h100v-404c0 -56 8 -76 36 -76s36 20 36 76v404h100v-567zM300 637h-262v81h262v-81z" />
    <glyph glyph-name="Ubreve" unicode="&#x16c;" horiz-adv-x="392" 
d="M252 160v606h102v-619c0 -115 -73 -160 -157 -160c-86 0 -159 47 -159 160v619h102v-606c0 -56 28 -76 56 -76s56 20 56 76zM257 949h56c-2 -78 -39 -124 -117 -124s-116 46 -117 124h56c1 -27 14 -53 61 -53s59 26 61 53z" />
    <glyph glyph-name="ubreve" unicode="&#x16d;" 
d="M305 0h-86l-9 46c-13 -22 -37 -54 -92 -54c-69 0 -85 49 -85 156v419h100v-404c0 -56 8 -76 36 -76s36 20 36 76v404h100v-567zM230 750h56c-2 -78 -39 -124 -117 -124s-116 46 -117 124h56c1 -27 14 -53 61 -53s59 26 61 53z" />
    <glyph glyph-name="Uring" unicode="&#x16e;" horiz-adv-x="392" 
d="M252 160v606h102v-619c0 -115 -73 -160 -157 -160c-86 0 -159 47 -159 160v619h102v-606c0 -56 28 -76 56 -76s56 20 56 76zM227 902c0 18 -13 31 -31 31s-31 -13 -31 -31s13 -31 31 -31s31 13 31 31zM196 815c-49 0 -87 38 -87 87s38 87 87 87s87 -38 87 -87
s-38 -87 -87 -87z" />
    <glyph glyph-name="uring" unicode="&#x16f;" 
d="M305 0h-86l-9 46c-13 -22 -37 -54 -92 -54c-69 0 -85 49 -85 156v419h100v-404c0 -56 8 -76 36 -76s36 20 36 76v404h100v-567zM200 703c0 18 -13 31 -31 31s-31 -13 -31 -31s13 -31 31 -31s31 13 31 31zM169 616c-49 0 -87 38 -87 87s38 87 87 87s87 -38 87 -87
s-38 -87 -87 -87z" />
    <glyph glyph-name="Uhungarumlaut" unicode="&#x170;" horiz-adv-x="392" 
d="M252 160v606h102v-619c0 -115 -73 -160 -157 -160c-86 0 -159 47 -159 160v619h102v-606c0 -56 28 -76 56 -76s56 20 56 76zM158 836h-83l44 135h101zM295 836h-83l44 135h101z" />
    <glyph glyph-name="uhungarumlaut" unicode="&#x171;" 
d="M305 0h-86l-9 46c-13 -22 -37 -54 -92 -54c-69 0 -85 49 -85 156v419h100v-404c0 -56 8 -76 36 -76s36 20 36 76v404h100v-567zM135 637h-83l44 135h101zM272 637h-83l44 135h101z" />
    <glyph glyph-name="Uogonek" unicode="&#x172;" horiz-adv-x="392" 
d="M283 -156l-35 -52c-76 4 -126 54 -126 110c0 31 15 63 47 87c-73 9 -131 57 -131 158v619h102v-606c0 -56 28 -76 56 -76s56 20 56 76v606h102v-619c0 -96 -47 -126 -83 -148c-47 -29 -60 -59 -60 -84c0 -33 23 -60 72 -71z" />
    <glyph glyph-name="uogonek" unicode="&#x173;" 
d="M318 -156l-35 -52c-76 4 -126 54 -126 110c0 36 19 72 62 97l-9 47c-13 -22 -37 -54 -92 -54c-69 0 -85 49 -85 156v419h100v-404c0 -56 8 -76 36 -76s36 20 36 76v404h100v-567c-39 -25 -59 -57 -59 -86c0 -31 23 -59 72 -70z" />
    <glyph glyph-name="Wcircumflex" unicode="&#x174;" horiz-adv-x="611" 
d="M602 766l-84 -766h-145l-68 618l-67 -618h-145l-84 766h102l57 -592l66 592h143l66 -592l57 592h102zM427 836h-78l-45 77l-40 -77h-81l75 141h90z" />
    <glyph glyph-name="wcircumflex" unicode="&#x175;" horiz-adv-x="514" 
d="M429 0h-131l-41 407l-41 -407h-131l-77 567h104l45 -432l46 432h108l46 -432l45 432h104zM378 637h-78l-45 77l-40 -77h-81l75 141h90z" />
    <glyph glyph-name="Wdieresis" unicode="&#x1e84;" horiz-adv-x="611" 
d="M602 766l-84 -766h-145l-68 618l-67 -618h-145l-84 766h102l57 -592l66 592h143l66 -592l57 592h102zM220 826c-32 0 -60 26 -60 60c0 33 28 59 60 59c33 0 59 -26 59 -59c0 -34 -26 -60 -59 -60zM390 826c-32 0 -59 26 -59 60c0 33 27 59 59 59c34 0 60 -26 60 -59
c0 -34 -26 -60 -60 -60z" />
    <glyph glyph-name="wdieresis" unicode="&#x1e85;" horiz-adv-x="514" 
d="M429 0h-131l-41 407l-41 -407h-131l-77 567h104l45 -432l46 432h108l46 -432l45 432h104zM171 627c-32 0 -60 26 -60 60c0 33 28 59 60 59c33 0 59 -26 59 -59c0 -34 -26 -60 -59 -60zM341 627c-32 0 -59 26 -59 60c0 33 27 59 59 59c34 0 60 -26 60 -59
c0 -34 -26 -60 -60 -60z" />
    <glyph glyph-name="Wgrave" unicode="&#x1e80;" horiz-adv-x="611" 
d="M602 766l-84 -766h-145l-68 618l-67 -618h-145l-84 766h102l57 -592l66 592h143l66 -592l57 592h102zM350 836h-73l-95 131h111z" />
    <glyph glyph-name="wgrave" unicode="&#x1e81;" horiz-adv-x="514" 
d="M429 0h-131l-41 407l-41 -407h-131l-77 567h104l45 -432l46 432h108l46 -432l45 432h104zM308 637h-73l-95 131h111z" />
    <glyph glyph-name="Wacute" unicode="&#x1e82;" horiz-adv-x="611" 
d="M602 766l-84 -766h-145l-68 618l-67 -618h-145l-84 766h102l57 -592l66 592h143l66 -592l57 592h102zM332 836h-73l57 131h111z" />
    <glyph glyph-name="wacute" unicode="&#x1e83;" horiz-adv-x="514" 
d="M429 0h-131l-41 407l-41 -407h-131l-77 567h104l45 -432l46 432h108l46 -432l45 432h104zM285 637h-73l57 131h111z" />
    <glyph glyph-name="Ygrave" unicode="&#x1ef2;" horiz-adv-x="357" 
d="M229 0h-102v266l-127 500h103l75 -347l77 347h103l-129 -499v-267zM227 836h-73l-95 131h111z" />
    <glyph glyph-name="ygrave" unicode="&#x1ef3;" horiz-adv-x="316" 
d="M194 -200h-104l30 162l-119 605h104l57 -402l44 402h104zM214 637h-73l-95 131h111z" />
    <glyph glyph-name="Yacute" unicode="&#xdd;" horiz-adv-x="357" 
d="M229 0h-102v266l-127 500h103l75 -347l77 347h103l-129 -499v-267zM207 836h-73l57 131h111z" />
    <glyph glyph-name="yacute" unicode="&#xfd;" horiz-adv-x="316" 
d="M194 -200h-104l30 162l-119 605h104l57 -402l44 402h104zM177 637h-73l57 131h111z" />
    <glyph glyph-name="Ydieresis" unicode="&#x178;" horiz-adv-x="357" 
d="M229 0h-102v266l-127 500h103l75 -347l77 347h103l-129 -499v-267zM94 826c-32 0 -60 26 -60 60c0 33 28 59 60 59c33 0 59 -26 59 -59c0 -34 -26 -60 -59 -60zM264 826c-32 0 -59 26 -59 60c0 33 27 59 59 59c34 0 60 -26 60 -59c0 -34 -26 -60 -60 -60z" />
    <glyph glyph-name="ydieresis" unicode="&#xff;" horiz-adv-x="316" 
d="M194 -200h-104l30 162l-119 605h104l57 -402l44 402h104zM71 627c-32 0 -60 26 -60 60c0 33 28 59 60 59c33 0 59 -26 59 -59c0 -34 -26 -60 -59 -60zM241 627c-32 0 -59 26 -59 60c0 33 27 59 59 59c34 0 60 -26 60 -59c0 -34 -26 -60 -60 -60z" />
    <glyph glyph-name="Ycircumflex" unicode="&#x176;" horiz-adv-x="357" 
d="M229 0h-102v266l-127 500h103l75 -347l77 347h103l-129 -499v-267zM301 836h-78l-45 77l-40 -77h-81l75 141h90z" />
    <glyph glyph-name="ycircumflex" unicode="&#x177;" horiz-adv-x="316" 
d="M194 -200h-104l30 162l-119 605h104l57 -402l44 402h104zM277 637h-78l-45 77l-40 -77h-81l75 141h90z" />
    <glyph glyph-name="Zcaron" unicode="&#x17d;" horiz-adv-x="307" 
d="M291 0h-276v97l160 572h-151v97h267v-53l-171 -616h171v-97zM210 836h-90l-79 141h78l45 -77l40 77h81z" />
    <glyph glyph-name="zcaron" unicode="&#x17e;" horiz-adv-x="279" 
d="M254 0h-242v88l141 386h-122v93h235v-71l-144 -401h132v-95zM196 637h-90l-79 141h78l45 -77l40 77h81z" />
    <glyph glyph-name="Zacute" unicode="&#x179;" horiz-adv-x="307" 
d="M291 0h-276v97l160 572h-151v97h267v-53l-171 -616h171v-97zM182 836h-73l57 131h111z" />
    <glyph glyph-name="zacute" unicode="&#x17a;" horiz-adv-x="279" 
d="M254 0h-242v88l141 386h-122v93h235v-71l-144 -401h132v-95zM163 637h-73l57 131h111z" />
    <glyph glyph-name="Zdotaccent" unicode="&#x17b;" horiz-adv-x="307" 
d="M291 0h-276v97l160 572h-151v97h267v-53l-171 -616h171v-97zM163 831c-32 0 -60 26 -60 60c0 33 28 59 60 59c33 0 59 -26 59 -59c0 -34 -26 -60 -59 -60z" />
    <glyph glyph-name="zdotaccent" unicode="&#x17c;" horiz-adv-x="279" 
d="M254 0h-242v88l141 386h-122v93h235v-71l-144 -401h132v-95zM149 632c-32 0 -60 26 -60 60c0 33 28 59 60 59c33 0 59 -26 59 -59c0 -34 -26 -60 -59 -60z" />
    <glyph glyph-name="ampersand" unicode="&#x26;" horiz-adv-x="399" 
d="M387 353h-41v-196c0 -109 -49 -170 -157 -170c-110 0 -159 63 -159 175v102c0 67 15 114 84 136c-69 18 -84 59 -84 126v86c0 111 57 167 163 167c104 0 153 -54 153 -159v-20h-102v7c0 56 -28 76 -56 76s-56 -21 -56 -77v-93c0 -56 58 -66 86 -66h26v60h102v-60h41v-94z
M244 160v193h-26c-28 0 -86 -10 -86 -66v-127c0 -56 28 -76 56 -76s56 20 56 76z" />
    <glyph glyph-name="sterling" unicode="&#xa3;" horiz-adv-x="420" 
d="M394 0h-369v102h55v112h-55v96h55v64h-55v96h55v142c0 133 80 167 162 167s154 -34 154 -167v-44h-102v38c0 56 -28 76 -56 76s-56 -20 -56 -76v-136h185v-96h-185v-64h185v-96h-185v-112h212v-102z" />
    <glyph glyph-name="yen" unicode="&#xa5;" horiz-adv-x="398" 
d="M370 104h-120v-104h-102v104h-120v96h120v64h-120v96h106l-113 406h103l75 -335l77 335h103l-115 -406h106v-96h-120v-64h120v-96z" />
    <glyph glyph-name="dollar" unicode="$" horiz-adv-x="373" 
d="M204 -64h-33v52c-85 5 -143 56 -143 159v109h102v-96c0 -46 19 -68 41 -74v234c-63 53 -143 114 -143 203v96c0 106 64 154 143 159v52h33v-52c87 -6 140 -51 140 -159v-120h-102v107c0 43 -17 65 -38 73v-250c62 -51 140 -99 140 -185v-97c0 -104 -57 -153 -140 -159
v-52zM171 458v222c-22 -7 -41 -28 -41 -74v-64c0 -33 16 -59 41 -84zM242 160v63c0 23 -16 44 -38 67v-203c21 7 38 29 38 73z" />
    <glyph glyph-name="cent" unicode="&#xa2;" horiz-adv-x="323" 
d="M215 0h-100v106c-60 16 -87 66 -87 154v263c0 87 27 137 87 154v90h100v-90c58 -16 85 -66 85 -154v-56h-100v45c0 56 -8 76 -36 76s-36 -20 -36 -76v-240c0 -56 8 -76 36 -76s36 20 36 76v58h100v-70c0 -89 -27 -138 -85 -154v-106z" />
    <glyph glyph-name="Euro" unicode="&#x20ac;" horiz-adv-x="409" 
d="M384 186v-39c0 -115 -73 -160 -158 -160s-158 47 -158 160v107h-48v96h48v64h-49v96h49v109c0 113 73 160 158 160s158 -38 158 -153v-57h-102v37c0 56 -28 76 -56 76s-56 -20 -56 -76v-96h151v-96h-151v-64h152v-96h-152v-94c0 -56 28 -76 56 -76s56 20 56 76v26h102z
" />
    <glyph glyph-name="parenleft" unicode="(" horiz-adv-x="205" 
d="M200 -172h-101c-69 200 -79 368 -79 469s10 269 79 469h101c-49 -125 -79 -294 -79 -469s30 -344 79 -469z" />
    <glyph glyph-name="parenright" unicode=")" horiz-adv-x="205" 
d="M106 -172h-101c49 125 79 294 79 469s-30 344 -79 469h101c69 -200 79 -368 79 -469s-10 -269 -79 -469z" />
    <glyph glyph-name="bracketleft" unicode="[" horiz-adv-x="245" 
d="M231 -170h-186v936h186v-82h-88v-769h88v-85z" />
    <glyph glyph-name="bracketright" unicode="]" horiz-adv-x="245" 
d="M200 -170h-186v85h88v769h-88v82h186v-936z" />
    <glyph glyph-name="braceleft" unicode="{" horiz-adv-x="282" 
d="M267 -85v-85h-84c-69 0 -96 42 -96 107v196c0 71 -13 121 -84 128v71c70 8 84 65 84 130v196c0 67 27 108 96 108h84v-82h-47c-34 0 -35 -37 -35 -87v-167c0 -86 -42 -121 -71 -132c29 -8 71 -47 71 -131v-165c0 -60 1 -87 35 -87h47z" />
    <glyph glyph-name="braceright" unicode="}" horiz-adv-x="282" 
d="M195 133v-196c0 -65 -27 -107 -96 -107h-84v85h47c34 0 35 27 35 87v165c0 84 42 123 71 131c-29 11 -71 46 -71 132v167c0 50 -1 87 -35 87h-47v82h84c69 0 96 -41 96 -108v-196c0 -65 14 -122 84 -130v-71c-71 -7 -84 -57 -84 -128z" />
    <glyph glyph-name="exclam" unicode="!" horiz-adv-x="184" 
d="M127 191h-70l-19 575h109zM92 -8c-35 0 -63 28 -63 63s28 63 63 63s63 -28 63 -63s-28 -63 -63 -63z" />
    <glyph glyph-name="exclamdown" unicode="&#xa1;" horiz-adv-x="175" 
d="M142 -174h-109l20 575h70zM151 537c0 -35 -28 -63 -63 -63s-63 28 -63 63s28 63 63 63s63 -28 63 -63z" />
    <glyph glyph-name="question" unicode="?" horiz-adv-x="352" 
d="M208 191h-82l-10 244c6 -2 12 -2 19 -2c28 0 96 10 96 66v108c0 56 -28 76 -56 76s-56 -20 -56 -76v-89h-102v92c0 109 56 169 163 169c100 0 153 -52 153 -164v-118c0 -84 -23 -138 -115 -155zM169 -8c-35 0 -63 28 -63 63s28 63 63 63s63 -28 63 -63s-28 -63 -63 -63z
" />
    <glyph glyph-name="questiondown" unicode="&#xbf;" horiz-adv-x="349" 
d="M334 73v-92c0 -109 -56 -169 -163 -169c-100 0 -153 52 -153 164v118c0 84 23 138 115 155l10 151h82l10 -244c-6 2 -12 2 -19 2c-28 0 -96 -10 -96 -66v-108c0 -56 28 -76 56 -76s56 20 56 76v89h102zM245 536c0 -35 -28 -63 -63 -63s-63 28 -63 63s28 63 63 63
s63 -28 63 -63z" />
    <glyph glyph-name="dagger" unicode="&#x2020;" horiz-adv-x="332" 
d="M206 -60h-80l-10 537l-100 -5v95l105 -5l-10 204h110l-11 -204l106 5v-95l-100 5z" />
    <glyph glyph-name="daggerdbl" unicode="&#x2021;" horiz-adv-x="344" 
d="M212 -60h-80l-7 296l-103 -4v95l103 -5c-2 23 -3 46 -3 68c0 29 1 58 4 87l-104 -5v95l105 -5l-10 204h110l-11 -204l106 5v-95l-104 5c2 -28 3 -55 3 -83c0 -24 -1 -48 -3 -72l104 5v-95l-104 4z" />
    <glyph glyph-name="guilsinglleft" unicode="&#x2039;" horiz-adv-x="224" 
d="M194 90h-102l-78 177l78 179h102l-79 -179z" />
    <glyph glyph-name="guilsinglright" unicode="&#x203a;" horiz-adv-x="224" 
d="M132 90h-102l79 177l-79 179h102l78 -179z" />
    <glyph glyph-name="guillemotleft" unicode="&#xab;" horiz-adv-x="386" 
d="M194 90h-102l-78 177l78 179h102l-79 -179zM356 90h-102l-78 177l78 179h102l-79 -179z" />
    <glyph glyph-name="guillemotright" unicode="&#xbb;" horiz-adv-x="386" 
d="M132 90h-102l79 177l-79 179h102l78 -179zM294 90h-102l79 177l-79 179h102l78 -179z" />
    <glyph glyph-name="less" unicode="&#x3c;" horiz-adv-x="422" 
d="M383 82l-70 -57l-286 338l289 341l67 -60l-245 -281z" />
    <glyph glyph-name="greater" unicode="&#x3e;" horiz-adv-x="422" 
d="M109 25l-70 57l245 281l-245 281l67 60l289 -341z" />
    <glyph glyph-name="quotesingle" unicode="'" horiz-adv-x="148" 
d="M109 556h-70l-15 210h100z" />
    <glyph glyph-name="quotedbl" unicode="&#x22;" horiz-adv-x="271" 
d="M232 556h-70l-15 210h100zM109 556h-70l-15 210h100z" />
    <glyph glyph-name="quoteleft" unicode="&#x2018;" horiz-adv-x="200" 
d="M132 543h-113l100 223h70z" />
    <glyph glyph-name="quoteright" unicode="&#x2019;" horiz-adv-x="195" 
d="M90 543h-70l57 223h113z" />
    <glyph glyph-name="quotedblleft" unicode="&#x201c;" horiz-adv-x="355" 
d="M287 543h-113l100 223h70zM132 543h-113l100 223h70z" />
    <glyph glyph-name="quotedblright" unicode="&#x201d;" horiz-adv-x="350" 
d="M90 543h-70l57 223h113zM245 543h-70l57 223h113z" />
    <glyph glyph-name="quotesinglbase" unicode="&#x201a;" horiz-adv-x="231" 
d="M90 -135h-70l56 223h113z" />
    <glyph glyph-name="quotedblbase" unicode="&#x201e;" horiz-adv-x="386" 
d="M90 -135h-70l56 223h113zM245 -135h-70l56 223h113z" />
    <glyph glyph-name="minus" unicode="&#x2212;" horiz-adv-x="422" 
d="M402 316h-382v94h382v-94z" />
    <glyph glyph-name="plus" unicode="+" horiz-adv-x="422" 
d="M259 172h-96v144h-143v94h143v144h96v-144h143v-94h-143v-144z" />
    <glyph glyph-name="multiply" unicode="&#xd7;" horiz-adv-x="422" 
d="M313 195l-101 101l-102 -102l-68 68l102 102l-101 101l66 66l101 -101l102 102l68 -68l-102 -102l101 -101z" />
    <glyph glyph-name="divide" unicode="&#xf7;" horiz-adv-x="422" 
d="M211 130c-35 0 -63 28 -63 63s28 63 63 63s63 -28 63 -63s-28 -63 -63 -63zM211 470c-35 0 -63 28 -63 63s28 63 63 63s63 -28 63 -63s-28 -63 -63 -63zM402 316h-382v94h382v-94z" />
    <glyph glyph-name="equal" unicode="=" horiz-adv-x="422" 
d="M402 400h-382v94h382v-94zM402 230h-382v94h382v-94z" />
    <glyph glyph-name="plusminus" unicode="&#xb1;" horiz-adv-x="422" 
d="M259 184h-96v144h-143v94h143v144h96v-144h143v-94h-143v-144zM402 41h-382v94h382v-94z" />
    <glyph glyph-name="notequal" unicode="&#x2260;" horiz-adv-x="422" 
d="M402 230h-177l-29 -118h-95l29 118h-110v94h134l19 76h-153v94h176l30 118h95l-30 -118h111v-94h-134l-19 -76h153v-94z" />
    <glyph glyph-name="period" unicode="." horiz-adv-x="172" 
d="M86 -8c-35 0 -63 28 -63 63s28 63 63 63s63 -28 63 -63s-28 -63 -63 -63z" />
    <glyph glyph-name="comma" unicode="," horiz-adv-x="199" 
d="M40 -135h-70l87 253h113z" />
    <glyph glyph-name="bullet" unicode="&#x2022;" horiz-adv-x="329" 
d="M167 262c-69 0 -125 51 -125 122c0 66 54 122 123 122c44 0 121 -26 121 -122c0 -77 -60 -122 -119 -122z" />
    <glyph glyph-name="periodcentered" unicode="&#xb7;" horiz-adv-x="184" 
d="M92 221c-35 0 -63 28 -63 63s28 63 63 63s63 -28 63 -63s-28 -63 -63 -63z" />
    <glyph glyph-name="colon" unicode=":" horiz-adv-x="190" 
d="M95 -8c-35 0 -63 28 -63 63s28 63 63 63s63 -28 63 -63s-28 -63 -63 -63zM95 332c-35 0 -63 28 -63 63s28 63 63 63s63 -28 63 -63s-28 -63 -63 -63z" />
    <glyph glyph-name="semicolon" unicode=";" horiz-adv-x="209" 
d="M108 332c-35 0 -63 28 -63 63s28 63 63 63s63 -28 63 -63s-28 -63 -63 -63zM45 -135h-70l87 253h113z" />
    <glyph glyph-name="ellipsis" unicode="&#x2026;" horiz-adv-x="516" 
d="M86 -8c-35 0 -63 28 -63 63s28 63 63 63s63 -28 63 -63s-28 -63 -63 -63zM258 -8c-35 0 -63 28 -63 63s28 63 63 63s63 -28 63 -63s-28 -63 -63 -63zM430 -8c-35 0 -63 28 -63 63s28 63 63 63s63 -28 63 -63s-28 -63 -63 -63z" />
    <glyph glyph-name="onedotenleader" unicode="&#x2024;" horiz-adv-x="172" 
d="M86 -8c-35 0 -63 28 -63 63s28 63 63 63s63 -28 63 -63s-28 -63 -63 -63z" />
    <glyph glyph-name="twodotenleader" unicode="&#x2025;" horiz-adv-x="344" 
d="M86 -8c-35 0 -63 28 -63 63s28 63 63 63s63 -28 63 -63s-28 -63 -63 -63zM258 -8c-35 0 -63 28 -63 63s28 63 63 63s63 -28 63 -63s-28 -63 -63 -63z" />
    <glyph glyph-name="hyphen" unicode="-" horiz-adv-x="253" 
d="M221 244h-189v96h189v-96z" />
    <glyph glyph-name="uni00AD" unicode="&#xad;" horiz-adv-x="253" 
d="M221 244h-189v96h189v-96z" />
    <glyph glyph-name="endash" unicode="&#x2013;" horiz-adv-x="316" 
d="M284 244h-252v96h252v-96z" />
    <glyph glyph-name="emdash" unicode="&#x2014;" horiz-adv-x="448" 
d="M416 244h-384v96h384v-96z" />
    <glyph glyph-name="underscore" unicode="_" horiz-adv-x="347" 
d="M315 -43h-283v86h283v-86z" />
    <glyph glyph-name="numbersign" unicode="#" horiz-adv-x="560" 
d="M336 30h-97l49 192h-94l-49 -192h-97l49 192h-81l24 96h81l29 114h-94l24 96h95l49 192h97l-49 -192h94l49 192h97l-49 -192h81l-24 -96h-82l-29 -114h95l-24 -96h-95zM312 318l29 114h-94l-29 -114h94z" />
    <glyph glyph-name="zero" unicode="0" horiz-adv-x="380" 
d="M32 147v472c0 113 70 160 164 160c95 0 152 -48 152 -160v-472c0 -115 -73 -160 -157 -160c-86 0 -159 47 -159 160zM246 160v446c0 56 -28 76 -56 76s-56 -20 -56 -76v-446c0 -56 28 -76 56 -76s56 20 56 76z" />
    <glyph glyph-name="one" unicode="1" horiz-adv-x="271" 
d="M223 0h-100v655l-115 -37v99l127 49h88v-766z" />
    <glyph glyph-name="two" unicode="2" horiz-adv-x="360" 
d="M321 0h-294v73c0 143 212 347 212 469v66c0 56 -28 74 -56 74s-56 -18 -56 -74v-94h-102v105c0 111 68 160 161 160c89 0 155 -45 155 -154v-94c0 -137 -206 -335 -212 -434h192v-97z" />
    <glyph glyph-name="three" unicode="3" horiz-adv-x="374" 
d="M242 161v118c0 45 -23 68 -60 68c-8 0 -27 -1 -43 -2v102c16 -2 32 -2 49 -2c28 0 54 20 54 76v84c0 56 -26 77 -54 77s-58 -19 -58 -75v-89h-102v102c0 109 66 159 161 159c91 0 155 -45 155 -156v-96c0 -67 -20 -101 -74 -129c53 -23 74 -66 74 -133v-116
c0 -111 -63 -162 -156 -162s-160 51 -160 160v98h102v-84c0 -55 27 -77 57 -77c29 0 55 20 55 77z" />
    <glyph glyph-name="four" unicode="4" horiz-adv-x="374" 
d="M303 0h-100v183h-192v97l131 486h161v-486h60v-97h-60v-183zM203 280v382l-90 -382h90z" />
    <glyph glyph-name="five" unicode="5" horiz-adv-x="373" 
d="M247 162v153c0 74 -28 86 -53 86c-26 0 -48 -14 -56 -51h-106v416h291v-97h-189v-228c23 36 51 56 102 56c69 0 113 -37 113 -130v-208c0 -108 -41 -172 -157 -172c-113 0 -160 60 -160 172v45h103v-42c0 -58 28 -78 56 -78s56 22 56 78z" />
    <glyph glyph-name="six" unicode="6" horiz-adv-x="378" 
d="M349 357v-198c0 -108 -41 -172 -157 -172c-113 0 -160 60 -160 172v454c0 109 49 166 159 166c108 0 157 -55 157 -166v-51h-102v44c0 56 -28 76 -56 76s-56 -20 -56 -76v-175c23 36 51 56 102 56c69 0 113 -37 113 -130zM247 162v143c0 74 -28 86 -53 86
c-33 0 -59 -22 -59 -86v-143c0 -58 28 -78 56 -78s56 22 56 78z" />
    <glyph glyph-name="seven" unicode="7" horiz-adv-x="329" 
d="M125 0h-108l195 669h-194v97h309v-53z" />
    <glyph glyph-name="eight" unicode="8" horiz-adv-x="376" 
d="M346 290v-143c0 -111 -68 -160 -157 -160c-91 0 -159 51 -159 160v153c0 66 29 101 66 126c-37 25 -66 59 -66 126v78c0 89 61 149 162 149c89 0 154 -47 154 -149v-78c0 -67 -29 -102 -66 -126c37 -25 66 -69 66 -136zM244 546v60c0 56 -28 76 -56 76s-56 -20 -56 -76
v-60c0 -56 28 -74 56 -74s56 18 56 74zM244 160v141c0 56 -28 74 -56 74s-56 -18 -56 -74v-141c0 -56 28 -76 56 -76s56 20 56 76z" />
    <glyph glyph-name="nine" unicode="9" horiz-adv-x="378" 
d="M244 160v175c-23 -36 -51 -56 -102 -56c-69 0 -113 37 -113 130v198c0 108 41 172 157 172c113 0 160 -60 160 -172v-454c0 -109 -49 -166 -159 -166c-108 0 -157 55 -157 166v51h102v-44c0 -56 28 -76 56 -76s56 20 56 76zM243 461v143c0 58 -28 78 -56 78
s-56 -22 -56 -78v-143c0 -74 28 -86 53 -86c33 0 59 22 59 86z" />
    <glyph glyph-name="onesuperior" unicode="&#xb9;" horiz-adv-x="193" 
d="M159 384h-82v298l-62 -29v77l73 37h71v-383z" />
    <glyph glyph-name="twosuperior" unicode="&#xb2;" horiz-adv-x="273" 
d="M237 384h-206v53c0 87 132 118 132 191v40c0 26 -13 35 -26 35s-26 -9 -26 -35v-43h-80v49c0 52 26 99 106 99c82 0 108 -48 108 -99v-51c0 -94 -113 -123 -113 -167h105v-72z" />
    <glyph glyph-name="threesuperior" unicode="&#xb3;" horiz-adv-x="268" 
d="M241 500v-34c0 -51 -33 -89 -107 -89c-75 0 -107 39 -107 89v24h81v-9c0 -26 13 -35 26 -35s25 9 25 35v30c0 26 -16 31 -38 31c-5 0 -8 0 -20 -1v69c11 -1 16 -1 19 -1c23 0 39 4 39 30v29c0 26 -12 35 -25 35s-26 -9 -26 -35v-11h-81v26c0 50 32 89 107 89
c74 0 107 -38 107 -89v-37c0 -31 -7 -55 -39 -68c32 -11 39 -47 39 -78z" />
    <glyph glyph-name="foursuperior" unicode="&#x2074;" horiz-adv-x="263" 
d="M211 384h-77v72h-117v69l77 242h117v-242h33v-69h-33v-72zM134 525v172l-43 -172h43z" />
    <glyph glyph-name="fraction" unicode="&#x2044;" horiz-adv-x="278" 
d="M76 0h-81l206 766h81z" />
    <glyph glyph-name="percent" unicode="%" horiz-adv-x="738" 
d="M313 0h-91l206 766h91zM271 612v-180c0 -111 -33 -160 -125 -160c-94 0 -127 51 -127 160v180c0 109 33 160 127 160c92 0 125 -49 125 -160zM181 443v158c0 56 -8 76 -36 76s-36 -20 -36 -76v-158c0 -56 8 -76 36 -76s36 20 36 76zM719 331v-180
c0 -111 -33 -160 -125 -160c-94 0 -127 51 -127 160v180c0 109 33 160 127 160c92 0 125 -49 125 -160zM629 162v158c0 56 -8 76 -36 76s-36 -20 -36 -76v-158c0 -56 8 -76 36 -76s36 20 36 76z" />
    <glyph glyph-name="perthousand" unicode="&#x2030;" horiz-adv-x="1040" 
d="M313 0h-91l206 766h91zM271 612v-180c0 -111 -33 -160 -125 -160c-94 0 -127 51 -127 160v180c0 109 33 160 127 160c92 0 125 -49 125 -160zM181 443v158c0 56 -8 76 -36 76s-36 -20 -36 -76v-158c0 -56 8 -76 36 -76s36 20 36 76zM719 331v-180
c0 -111 -33 -160 -125 -160c-94 0 -127 51 -127 160v180c0 109 33 160 127 160c92 0 125 -49 125 -160zM629 162v158c0 56 -8 76 -36 76s-36 -20 -36 -76v-158c0 -56 8 -76 36 -76s36 20 36 76zM1021 331v-180c0 -111 -33 -160 -125 -160c-94 0 -127 51 -127 160v180
c0 109 33 160 127 160c92 0 125 -49 125 -160zM931 162v158c0 56 -8 76 -36 76s-36 -20 -36 -76v-158c0 -56 8 -76 36 -76s36 20 36 76z" />
    <glyph glyph-name="onequarter" unicode="&#xbc;" horiz-adv-x="543" 
d="M159 384h-82v298l-62 -29v77l73 37h71v-383zM494 0h-77v72h-117v69l77 242h117v-242h33v-69h-33v-72zM417 141v172l-43 -172h43zM193 0h-81l206 766h81z" />
    <glyph glyph-name="onethird" unicode="&#x2153;" horiz-adv-x="565" 
d="M159 384h-82v298l-62 -29v77l73 37h71v-383zM544 116v-34c0 -51 -33 -89 -107 -89c-75 0 -107 39 -107 89v24h81v-9c0 -26 13 -35 26 -35s25 9 25 35v30c0 26 -16 31 -38 31c-5 0 -8 0 -20 -1v69c11 -1 16 -1 19 -1c23 0 39 4 39 30v29c0 26 -12 35 -25 35
s-26 -9 -26 -35v-11h-81v26c0 50 32 89 107 89c74 0 107 -38 107 -89v-37c0 -31 -7 -55 -39 -68c32 -11 39 -47 39 -78zM193 0h-81l206 766h81z" />
    <glyph glyph-name="onehalf" unicode="&#xbd;" horiz-adv-x="564" 
d="M159 384h-82v298l-62 -29v77l73 37h71v-383zM536 0h-206v53c0 87 132 118 132 191v40c0 26 -13 35 -26 35s-26 -9 -26 -35v-43h-80v49c0 52 26 99 106 99c82 0 108 -48 108 -99v-51c0 -94 -113 -123 -113 -167h105v-72zM193 0h-81l206 766h81z" />
    <glyph glyph-name="twothirds" unicode="&#x2154;" horiz-adv-x="615" 
d="M227 384h-206v53c0 87 132 118 132 191v40c0 26 -13 35 -26 35s-26 -9 -26 -35v-43h-80v49c0 52 26 99 106 99c82 0 108 -48 108 -99v-51c0 -94 -113 -123 -113 -167h105v-72zM598 116v-34c0 -51 -33 -89 -107 -89c-75 0 -107 39 -107 89v24h81v-9c0 -26 13 -35 26 -35
s25 9 25 35v30c0 26 -16 31 -38 31c-5 0 -8 0 -20 -1v69c11 -1 16 -1 19 -1c23 0 39 4 39 30v29c0 26 -12 35 -25 35s-26 -9 -26 -35v-11h-81v26c0 50 32 89 107 89c74 0 107 -38 107 -89v-37c0 -31 -7 -55 -39 -68c32 -11 39 -47 39 -78zM247 0h-81l206 766h81z" />
    <glyph glyph-name="threequarters" unicode="&#xbe;" horiz-adv-x="596" 
d="M235 500v-34c0 -51 -33 -89 -107 -89c-75 0 -107 39 -107 89v24h81v-9c0 -26 13 -35 26 -35s25 9 25 35v30c0 26 -16 31 -38 31c-5 0 -8 0 -20 -1v69c11 -1 16 -1 19 -1c23 0 39 4 39 30v29c0 26 -12 35 -25 35s-26 -9 -26 -35v-11h-81v26c0 50 32 89 107 89
c74 0 107 -38 107 -89v-37c0 -31 -7 -55 -39 -68c32 -11 39 -47 39 -78zM547 0h-77v72h-117v69l77 242h117v-242h33v-69h-33v-72zM470 141v172l-43 -172h43zM247 0h-81l206 766h81z" />
    <glyph glyph-name="slash" unicode="/" horiz-adv-x="317" 
d="M109 0h-97l196 766h97z" />
    <glyph glyph-name="backslash" unicode="\" horiz-adv-x="317" 
d="M305 0h-97l-196 766h97z" />
    <glyph glyph-name="bar" unicode="|" horiz-adv-x="190" 
d="M146 -220h-102v1000h102v-1000z" />
    <glyph glyph-name="brokenbar" unicode="&#xa6;" horiz-adv-x="192" 
d="M147 372h-102v408h102v-408zM147 -220h-102v407h102v-407z" />
    <glyph glyph-name="at" unicode="@" horiz-adv-x="705" 
d="M481 -87l14 -92c-53 -32 -94 -49 -164 -49c-200 0 -315 140 -315 386c0 248 117 515 376 515c208 0 288 -171 288 -345c0 -163 -71 -350 -211 -350c-52 0 -97 26 -102 77c-24 -37 -71 -63 -117 -63c-37 0 -68 16 -68 63c0 17 4 54 57 296c19 86 56 113 94 113
s75 -27 91 -49l8 40h90c-69 -328 -76 -341 -76 -363c0 -21 6 -43 33 -43c69 0 103 151 103 276c0 154 -52 252 -191 252c-200 0 -279 -205 -279 -422c0 -219 80 -287 217 -287c66 0 105 16 152 45zM326 290l-26 -128c-4 -19 -6 -35 -6 -45c0 -21 8 -31 24 -31
c22 0 42 20 54 76c32 153 33 164 33 172c0 23 -8 32 -27 32c-28 0 -41 -20 -52 -76z" />
    <glyph glyph-name="ordfeminine" unicode="&#xaa;" horiz-adv-x="294" 
d="M270 363h-76l-9 43c-11 -19 -34 -50 -74 -50s-91 31 -91 136c0 77 27 117 81 117c43 0 67 -25 80 -43v47c0 51 -11 69 -36 69c-24 0 -30 -18 -32 -36h-91c2 61 30 120 125 120c96 0 123 -51 123 -144v-259zM262 197h-230v86h230v-86zM142 436c18 0 39 11 39 48
c0 28 -12 45 -38 45c-25 0 -38 -16 -38 -45c0 -32 16 -48 37 -48z" />
    <glyph glyph-name="ordmasculine" unicode="&#xba;" horiz-adv-x="291" 
d="M271 606v-90c0 -111 -33 -160 -125 -160c-94 0 -127 51 -127 160v90c0 109 33 160 127 160c92 0 125 -49 125 -160zM262 197h-230v86h230v-86zM181 527v68c0 56 -8 76 -36 76s-36 -20 -36 -76v-68c0 -56 8 -76 36 -76s36 20 36 76z" />
    <glyph glyph-name="florin" unicode="&#x192;" horiz-adv-x="439" 
d="M37 -4l19 90c8 -1 15 -2 22 -2c39 0 49 30 59 78l40 191h-74l19 94h75l37 177c23 109 66 150 154 150c19 0 30 -2 43 -5l-19 -90c-9 2 -16 3 -23 3c-39 0 -49 -31 -59 -79l-33 -156h75l-20 -94h-75l-44 -212c-22 -104 -62 -150 -153 -150c-19 0 -30 2 -43 5z" />
    <glyph glyph-name="currency" unicode="&#xa4;" horiz-adv-x="453" 
d="M416 171l-66 -49l-42 59c-24 -6 -51 -10 -82 -10s-57 3 -80 9l-41 -58l-66 49l34 49c-30 31 -43 78 -43 141v48c0 63 13 110 43 141l-34 49l66 49l41 -58c23 6 49 9 80 9s58 -4 82 -10l42 59l66 -49l-37 -52c29 -31 43 -77 43 -138v-48c0 -61 -14 -107 -43 -138zM322 374
v22c0 81 -35 106 -96 106s-96 -25 -96 -106v-22c0 -81 35 -106 96 -106s96 25 96 106z" />
    <glyph glyph-name="asciicircum" unicode="^" horiz-adv-x="422" 
d="M398 429h-108l-80 217l-80 -217h-107l135 337h106z" />
    <glyph glyph-name="asciitilde" unicode="~" horiz-adv-x="422" 
d="M346 620l67 -45c-40 -75 -89 -98 -125 -98c-48 0 -100 43 -154 43c-25 0 -45 -10 -60 -39l-60 50c31 60 73 90 122 90c61 0 105 -40 154 -40c25 0 42 11 56 39z" />
    <glyph glyph-name="asterisk" unicode="*" horiz-adv-x="305" 
d="M258 533l-69 -39l-36 95l-36 -96l-68 40l69 82l-97 -16v76l94 -16l-68 81l68 40l38 -101l36 100l69 -39l-68 -82l94 15v-74l-95 16z" />
    <glyph glyph-name="degree" unicode="&#xb0;" horiz-adv-x="252" 
d="M164 632c0 21 -17 38 -38 38s-38 -17 -38 -38s17 -38 38 -38s38 17 38 38zM126 525c-60 0 -107 47 -107 107s47 107 107 107s107 -47 107 -107s-47 -107 -107 -107z" />
    <glyph glyph-name="section" unicode="&#xa7;" horiz-adv-x="397" 
d="M121 187v-24c0 -50 10 -76 42 -76c30 0 40 22 40 50c0 122 -182 105 -182 292c0 72 27 119 83 137c-6 19 -10 39 -10 65c0 90 47 142 145 142c94 0 137 -48 137 -160v-30h-100v19c0 55 -8 76 -40 76c-35 0 -41 -25 -41 -48c0 -129 181 -96 181 -287
c0 -72 -26 -119 -83 -138c6 -19 10 -40 10 -68c0 -91 -43 -145 -142 -145c-97 0 -140 52 -140 158v37h100zM163 480c-35 0 -41 -25 -41 -50c0 -77 57 -99 107 -138c37 0 47 22 47 50c0 70 -61 94 -113 138z" />
    <glyph glyph-name="logicalnot" unicode="&#xac;" horiz-adv-x="422" 
d="M401 172h-96v144h-286v94h382v-238z" />
    <glyph glyph-name="Delta" unicode="&#x2206;" horiz-adv-x="387" 
d="M372 0h-357l103 766h150zM258 97l-65 562l-65 -562h130z" />
    <glyph glyph-name="Omega" unicode="&#x2126;" horiz-adv-x="388" 
d="M360 0h-151v106c24 6 41 30 41 74v426c0 53 -25 76 -56 76s-56 -23 -56 -76v-426c0 -44 17 -68 41 -74v-106h-151v98l91 -6c-62 19 -83 65 -83 148v379c0 129 90 160 158 160c81 0 158 -31 158 -160v-379c0 -83 -21 -129 -83 -148l91 6v-98z" />
    <glyph glyph-name="summation" unicode="&#x2211;" horiz-adv-x="315" 
d="M295 -120h-276v97l119 356l-119 336v97h276v-97h-171l118 -336l-118 -356h171v-97z" />
    <glyph glyph-name="product" unicode="&#x220f;" horiz-adv-x="412" 
d="M364 -100h-102v769h-112v-769h-102v866h316v-866z" />
    <glyph glyph-name="mu" unicode="&#xb5;" horiz-adv-x="360" 
d="M143 -199h-100v766h100v-404c0 -56 8 -76 36 -76s36 20 36 76v404h100v-567h-86l-9 46c-10 -17 -31 -46 -60 -46c-5 0 -11 1 -17 3v-202z" />
    <glyph glyph-name="acute" unicode="&#xb4;" horiz-adv-x="151" 
d="M73 637h-73l57 131h111z" />
    <glyph glyph-name="breve" unicode="&#x2d8;" horiz-adv-x="272" 
d="M197 750h56c-2 -78 -39 -124 -117 -124s-116 46 -117 124h56c1 -27 14 -53 61 -53s59 26 61 53z" />
    <glyph glyph-name="caron" unicode="&#x2c7;" horiz-adv-x="282" 
d="M188 637h-90l-79 141h78l45 -77l40 77h81z" />
    <glyph glyph-name="cedilla" unicode="&#xb8;" horiz-adv-x="228" 
d="M25 -176l15 56c6 -4 20 -9 34 -9c25 0 39 16 39 32c0 15 -10 30 -41 30c-3 0 -6 0 -10 -1l17 68h71l-13 -46c43 0 66 -32 66 -65c0 -38 -31 -79 -102 -79c-30 0 -60 7 -76 14z" />
    <glyph glyph-name="circumflex" unicode="&#x2c6;" horiz-adv-x="282" 
d="M263 637h-78l-45 77l-40 -77h-81l75 141h90z" />
    <glyph glyph-name="commaaccent" unicode="&#xf6c3;" horiz-adv-x="217" 
d="M110 -206h-76l53 156h106z" />
    <glyph glyph-name="dieresis" unicode="&#xa8;" horiz-adv-x="328" 
d="M79 627c-32 0 -60 26 -60 60c0 33 28 59 60 59c33 0 59 -26 59 -59c0 -34 -26 -60 -59 -60zM249 627c-32 0 -59 26 -59 60c0 33 27 59 59 59c34 0 60 -26 60 -59c0 -34 -26 -60 -60 -60z" />
    <glyph glyph-name="dotaccent" unicode="&#x2d9;" horiz-adv-x="157" 
d="M79 632c-32 0 -60 26 -60 60c0 33 28 59 60 59c33 0 59 -26 59 -59c0 -34 -26 -60 -59 -60z" />
    <glyph glyph-name="grave" unicode="`" horiz-adv-x="151" 
d="M168 637h-73l-95 131h111z" />
    <glyph glyph-name="macron" unicode="&#xaf;" horiz-adv-x="300" 
d="M281 637h-262v81h262v-81z" />
    <glyph glyph-name="ogonek" unicode="&#x2db;" horiz-adv-x="264" 
d="M259 -156l-35 -52c-76 4 -126 54 -126 110c0 36 20 73 65 98h82c-38 -25 -58 -57 -58 -86c0 -31 23 -59 72 -70z" />
    <glyph glyph-name="ring" unicode="&#x2da;" horiz-adv-x="212" 
d="M137 703c0 18 -13 31 -31 31s-31 -13 -31 -31s13 -31 31 -31s31 13 31 31zM106 616c-49 0 -87 38 -87 87s38 87 87 87s87 -38 87 -87s-38 -87 -87 -87z" />
    <glyph glyph-name="tilde" unicode="&#x2dc;" horiz-adv-x="284" 
d="M200 732h65c-2 -53 -24 -95 -72 -95c-32 0 -54 19 -83 19c-11 0 -24 -1 -26 -20h-65c2 53 24 95 72 95c32 0 54 -19 83 -19c9 0 24 0 26 20z" />
    <glyph glyph-name="hungarumlaut" unicode="&#x2dd;" horiz-adv-x="265" 
d="M83 637h-83l44 135h101zM220 637h-83l44 135h101z" />
    <glyph glyph-name="paragraph" unicode="&#xb6;" horiz-adv-x="488" 
d="M440 -87h-82v754h-69v-755h-102v334h-32c-97 0 -136 25 -136 160v200c0 135 39 160 136 160h285v-853z" />
    <glyph glyph-name="Alpha" unicode="&#x391;" horiz-adv-x="363" 
d="M360 0h-102l-20 170h-113l-20 -170h-102l103 766h150zM226 267l-45 382l-45 -382h90z" />
    <glyph glyph-name="Beta" unicode="&#x392;" horiz-adv-x="386" 
d="M222 0h-182v766h172c77 0 139 -49 139 -160v-97c0 -52 -19 -95 -73 -116c62 -23 83 -66 83 -123v-110c0 -111 -62 -160 -139 -160zM249 516v77c0 56 -18 76 -56 76h-51v-229h51c38 0 56 20 56 76zM259 173v94c0 56 -28 76 -66 76h-51v-246h61c38 0 56 20 56 76z" />
    <glyph glyph-name="Gamma" unicode="&#x393;" horiz-adv-x="321" 
d="M142 0h-102v766h274v-97h-172v-669z" />
    <glyph glyph-name="uni0394" unicode="&#x394;" horiz-adv-x="363" 
d="M360 0h-357l103 766h150zM246 97l-65 552l-65 -552h130z" />
    <glyph glyph-name="Epsilon" unicode="&#x395;" horiz-adv-x="341" 
d="M314 0h-274v766h274v-97h-172v-234h165v-97h-165v-241h172v-97z" />
    <glyph glyph-name="Zeta" unicode="&#x396;" horiz-adv-x="307" 
d="M291 0h-276v97l160 572h-151v97h267v-53l-171 -616h171v-97z" />
    <glyph glyph-name="Eta" unicode="&#x397;" horiz-adv-x="396" 
d="M356 0h-102v338h-112v-338h-102v766h102v-331h112v331h102v-766z" />
    <glyph glyph-name="Theta" unicode="&#x398;" horiz-adv-x="386" 
d="M35 147v472c0 113 70 160 164 160c95 0 152 -48 152 -160v-472c0 -115 -73 -160 -157 -160c-86 0 -159 47 -159 160zM249 160v446c0 56 -28 76 -56 76s-56 -20 -56 -76v-446c0 -56 28 -76 56 -76s56 20 56 76zM230 338h-73v97h73v-97z" />
    <glyph glyph-name="Iota" unicode="&#x399;" horiz-adv-x="182" 
d="M142 0h-102v766h102v-766z" />
    <glyph glyph-name="Kappa" unicode="&#x39a;" horiz-adv-x="377" 
d="M386 0h-102l-141 383l122 383h102l-116 -380zM142 0h-102v766h102v-766z" />
    <glyph glyph-name="Lambda" unicode="&#x39b;" horiz-adv-x="363" 
d="M360 0h-102l-77 649l-76 -649h-102l103 766h150z" />
    <glyph glyph-name="Mu" unicode="&#x39c;" horiz-adv-x="580" 
d="M540 0h-102l2 573l-104 -573h-92l-104 572l2 -572h-102v766h165l85 -534l85 534h165v-766z" />
    <glyph glyph-name="Nu" unicode="&#x39d;" horiz-adv-x="448" 
d="M408 0h-133l-135 511l2 -511h-102v766h128l140 -520l-2 520h102v-766z" />
    <glyph glyph-name="Xi" unicode="&#x39e;" horiz-adv-x="348" 
d="M327 0h-306v102h306v-102zM327 664h-306v102h306v-102zM302 338h-256v97h256v-97z" />
    <glyph glyph-name="Omicron" unicode="&#x39f;" horiz-adv-x="386" 
d="M35 147v472c0 113 70 160 164 160c95 0 152 -48 152 -160v-472c0 -115 -73 -160 -157 -160c-86 0 -159 47 -159 160zM249 160v446c0 56 -28 76 -56 76s-56 -20 -56 -76v-446c0 -56 28 -76 56 -76s56 20 56 76z" />
    <glyph glyph-name="Pi" unicode="&#x3a0;" horiz-adv-x="396" 
d="M356 0h-102v669h-112v-669h-102v766h316v-766z" />
    <glyph glyph-name="Rho" unicode="&#x3a1;" horiz-adv-x="371" 
d="M142 0h-102v766h169c77 0 142 -45 142 -160v-131c0 -115 -59 -160 -136 -160h-73v-315zM249 488v105c0 56 -18 76 -56 76h-51v-257h51c38 0 56 20 56 76z" />
    <glyph glyph-name="Sigma" unicode="&#x3a3;" horiz-adv-x="313" 
d="M295 0h-276v97l109 296l-109 276v97h276v-97h-171l108 -276l-108 -296h171v-97z" />
    <glyph glyph-name="Tau" unicode="&#x3a4;" horiz-adv-x="308" 
d="M205 0h-102v669h-95v97h292v-97h-95v-669z" />
    <glyph glyph-name="Upsilon" unicode="&#x3a5;" horiz-adv-x="357" 
d="M229 0h-102v266l-127 500h103l75 -347l77 347h103l-129 -499v-267z" />
    <glyph glyph-name="Phi" unicode="&#x3a6;" horiz-adv-x="480" 
d="M291 -1h-102v70c-127 6 -167 87 -167 203v221c0 116 40 197 167 203v71h102v-71c126 -7 167 -87 167 -203v-221c0 -116 -41 -196 -167 -203v-70zM189 168v429c-48 -3 -65 -52 -65 -97v-235c0 -45 17 -94 65 -97zM356 265v235c0 45 -18 94 -65 97v-429c47 3 65 52 65 97z
" />
    <glyph glyph-name="Chi" unicode="&#x3a7;" horiz-adv-x="376" 
d="M377 0h-102l-84 290l-94 -290h-102l137 394l-131 372h103l87 -264l81 264h103l-118 -373z" />
    <glyph glyph-name="Psi" unicode="&#x3a8;" horiz-adv-x="495" 
d="M299 -1h-102v170c-127 6 -167 87 -167 203v394h102v-401c0 -45 17 -94 65 -97v498h102v-498c47 3 65 52 65 97v401h102v-394c0 -116 -41 -196 -167 -203v-170z" />
    <glyph glyph-name="uni03A9" unicode="&#x3a9;" horiz-adv-x="391" 
d="M361 0h-151v106c24 6 41 30 41 74v426c0 53 -25 76 -56 76s-56 -23 -56 -76v-426c0 -44 17 -68 41 -74v-106h-151v98l91 -6c-62 19 -83 65 -83 148v379c0 129 90 160 158 160c81 0 158 -31 158 -160v-379c0 -83 -21 -129 -83 -148l91 6v-98z" />
    <glyph glyph-name="alpha" unicode="&#x3b1;" horiz-adv-x="337" 
d="M303 0h-86l-9 46c-13 -22 -37 -54 -92 -54c-69 0 -85 49 -85 156v271c0 107 16 156 85 156c55 0 79 -32 92 -54l9 46h86v-567zM203 163v241c0 56 -8 76 -36 76s-36 -20 -36 -76v-241c0 -56 8 -76 36 -76s36 20 36 76z" />
    <glyph glyph-name="beta" unicode="&#x3b2;" horiz-adv-x="342" 
d="M134 -199h-100v808c0 96 32 163 136 163s136 -67 136 -163v-29c0 -86 -27 -121 -66 -132c39 -8 76 -37 76 -121v-179c0 -105 -31 -156 -102 -156c-48 0 -65 23 -80 45v-236zM216 163v115c0 55 -7 118 -56 127v82c38 11 46 49 46 100v19c0 39 -3 71 -36 71
s-36 -32 -36 -71v-443c0 -55 15 -76 45 -76c29 0 37 19 37 76z" />
    <glyph glyph-name="gamma" unicode="&#x3b3;" horiz-adv-x="305" 
d="M202 -198h-100l4 194l-103 571h104l45 -402l46 402h104l-104 -571z" />
    <glyph glyph-name="delta" unicode="&#x3b4;" horiz-adv-x="323" 
d="M300 321v-169c0 -111 -43 -160 -135 -160c-94 0 -137 51 -137 160v233c0 65 15 90 53 115c-28 29 -44 67 -44 123c0 114 67 151 151 151c31 0 65 -5 99 -15l-22 -94c-24 7 -51 15 -75 15c-32 0 -52 -13 -52 -56c0 -120 162 -108 162 -303zM200 164v146
c0 53 -4 88 -45 119c-21 -4 -27 -25 -27 -75v-190c0 -56 8 -76 36 -76s36 20 36 76z" />
    <glyph glyph-name="epsilon" unicode="&#x3b5;" horiz-adv-x="317" 
d="M297 182v-30c0 -110 -43 -160 -134 -160c-93 0 -138 53 -138 148v17c0 67 3 109 72 131c-69 18 -72 64 -72 131v16c0 83 45 140 140 140c89 0 132 -51 132 -160v-6h-100v5c0 46 -8 66 -36 66c-26 0 -35 -17 -36 -64v-15c0 -56 48 -66 66 -66c17 0 28 0 54 1v-96
c-26 1 -36 1 -55 1c-18 0 -65 -10 -65 -66v-11c0 -56 8 -76 36 -76s36 20 36 76v18h100z" />
    <glyph glyph-name="zeta" unicode="&#x3b6;" horiz-adv-x="291" 
d="M220 -142l-74 44c25 42 28 55 28 66c0 19 -9 26 -35 36c-78 31 -122 49 -122 142c0 112 64 210 170 328h-157v93h263v-97c-103 -121 -175 -221 -175 -308c0 -64 40 -63 102 -90c18 -8 61 -28 61 -80c0 -44 -30 -91 -61 -134z" />
    <glyph glyph-name="eta" unicode="&#x3b7;" 
d="M306 0h-100v404c0 56 -8 76 -36 76s-36 -20 -36 -76v-404h-100v567h86l9 -46c13 22 37 54 92 54c69 0 85 -49 85 -156v-419z" />
    <glyph glyph-name="theta" unicode="&#x3b8;" horiz-adv-x="338" 
d="M33 152v459c0 109 43 160 137 160c92 0 135 -49 135 -160v-459c0 -111 -43 -160 -135 -160c-94 0 -137 51 -137 160zM205 427v173c0 56 -8 76 -36 76s-36 -20 -36 -76v-173h72zM205 164v170h-72v-170c0 -56 8 -76 36 -76s36 20 36 76z" />
    <glyph glyph-name="iota" unicode="&#x3b9;" horiz-adv-x="200" 
d="M199 82v-85c-13 -3 -26 -5 -40 -5c-93 0 -126 41 -126 150v425h100v-409c0 -49 6 -78 46 -78c6 0 13 1 20 2z" />
    <glyph glyph-name="kappa" unicode="&#x3ba;" 
d="M338 0h-101l-102 290l102 277h102l-98 -274zM134 0h-100v567h100v-567z" />
    <glyph glyph-name="lambda" unicode="&#x3bb;" horiz-adv-x="411" 
d="M407 85l3 -85c-17 -5 -32 -8 -49 -8c-49 0 -84 24 -106 106l-65 238l-91 -336h-107l155 497l-30 114c-12 46 -23 70 -48 70c-7 0 -26 -2 -36 -6l-13 91c21 5 50 8 68 8c54 0 96 -26 117 -105l138 -514c9 -34 19 -74 48 -74c5 0 10 1 16 4z" />
    <glyph glyph-name="uni03BC" unicode="&#x3bc;" horiz-adv-x="340" 
d="M134 -199h-100v766h100v-404c0 -56 8 -76 36 -76s36 20 36 76v404h100v-567h-86l-9 46c-10 -17 -31 -46 -60 -46c-5 0 -11 1 -17 3v-202z" />
    <glyph glyph-name="nu" unicode="&#x3bd;" horiz-adv-x="315" 
d="M231 0h-146l-77 567h104l45 -462l46 462h104z" />
    <glyph glyph-name="xi" unicode="&#x3be;" horiz-adv-x="301" 
d="M244 -142l-74 44c25 42 28 55 28 65c0 15 -6 23 -35 35c-77 33 -136 35 -136 144v137c0 67 3 109 72 131c-69 18 -72 64 -72 131v87c0 83 45 140 140 140c89 0 132 -51 132 -160v-6h-100v5c0 46 -8 66 -36 66c-26 0 -36 -17 -36 -64v-86c0 -56 48 -66 66 -66
c17 0 28 0 54 1v-96c-26 1 -36 1 -55 1c-18 0 -65 -10 -65 -66v-122c0 -86 59 -82 117 -107c28 -12 61 -33 61 -79c0 -49 -37 -103 -61 -135z" />
    <glyph glyph-name="omicron" unicode="&#x3bf;" horiz-adv-x="332" 
d="M302 415v-263c0 -111 -43 -160 -135 -160c-94 0 -137 51 -137 160v263c0 109 43 160 137 160c92 0 135 -49 135 -160zM202 164v240c0 56 -8 76 -36 76s-36 -20 -36 -76v-240c0 -56 8 -76 36 -76s36 20 36 76z" />
    <glyph glyph-name="pi" unicode="&#x3c0;" horiz-adv-x="340" 
d="M306 0h-100v474h-72v-474h-100v567h272v-567z" />
    <glyph glyph-name="rho" unicode="&#x3c1;" horiz-adv-x="335" 
d="M133 -199h-100v614c0 109 43 160 137 160c92 0 135 -49 135 -160v-267c0 -108 -16 -156 -86 -156c-53 0 -73 28 -86 48v-239zM205 163v241c0 56 -8 76 -36 76s-36 -20 -36 -76v-241c0 -56 8 -76 36 -76s36 20 36 76z" />
    <glyph glyph-name="sigma1" unicode="&#x3c2;" horiz-adv-x="322" 
d="M246 -142l-74 44c25 42 28 55 28 65c0 15 -6 23 -35 35c-77 33 -136 35 -136 144v269c0 109 43 160 137 160c92 0 135 -49 135 -160v-56h-100v45c0 56 -8 76 -36 76s-36 -20 -36 -76v-225c0 -86 59 -82 117 -107c28 -12 61 -33 61 -79c0 -49 -37 -103 -61 -135z" />
    <glyph glyph-name="sigma" unicode="&#x3c3;" horiz-adv-x="347" 
d="M302 415v-263c0 -111 -43 -160 -135 -160c-94 0 -137 51 -137 160v255c0 109 43 160 137 160h170v-93l-55 4c15 -18 20 -40 20 -63zM202 164v232c0 56 -8 76 -36 76s-36 -20 -36 -76v-232c0 -56 8 -76 36 -76s36 20 36 76z" />
    <glyph glyph-name="tau" unicode="&#x3c4;" horiz-adv-x="297" 
d="M260 82v-85c-13 -3 -26 -5 -40 -5c-93 0 -126 41 -126 150v332h-91v93h283v-93h-92v-316c0 -49 6 -78 46 -78c6 0 13 1 20 2z" />
    <glyph glyph-name="upsilon" unicode="&#x3c5;" horiz-adv-x="338" 
d="M205 164v403h100v-415c0 -111 -43 -160 -135 -160c-94 0 -137 51 -137 160v415h100v-403c0 -56 8 -76 36 -76s36 20 36 76z" />
    <glyph glyph-name="phi" unicode="&#x3c6;" horiz-adv-x="466" 
d="M283 -198h-98v192c-124 10 -157 91 -157 176v239c0 50 10 103 60 141l64 -61c-20 -26 -24 -70 -24 -93v-223c0 -32 9 -75 57 -82v484h78c133 0 177 -81 177 -166v-239c0 -85 -34 -166 -157 -176v-192zM340 173v223c0 32 -9 75 -57 82v-387c48 7 57 50 57 82z" />
    <glyph glyph-name="chi" unicode="&#x3c7;" horiz-adv-x="314" 
d="M313 0h-99l-61 189l-53 -189h-98l94 290l-93 277h99l55 -172l53 172h101l-97 -278z" />
    <glyph glyph-name="psi" unicode="&#x3c8;" horiz-adv-x="476" 
d="M287 -198h-98v192c-124 10 -157 91 -157 176v397h100v-394c0 -32 9 -75 57 -82v476h98v-476c48 7 57 50 57 82v394h100v-397c0 -85 -34 -166 -157 -176v-192z" />
    <glyph glyph-name="omega" unicode="&#x3c9;" horiz-adv-x="499" 
d="M369 164v240c0 56 -8 76 -37 76v95c94 0 137 -51 137 -160v-263c0 -111 -43 -160 -124 -160c-37 0 -76 8 -98 43c-21 -35 -60 -43 -96 -43c-83 0 -126 52 -126 160v263c0 109 43 160 137 160v-95c-29 0 -37 -20 -37 -76v-240c0 -56 8 -76 36 -76c26 0 36 17 36 64v265
h100v-265c0 -47 10 -64 36 -64c28 0 36 20 36 76z" />
    <glyph glyph-name="Alphatonos" unicode="&#x386;" horiz-adv-x="450" 
d="M447 0h-102l-20 170h-113l-20 -170h-102l103 766h150zM313 267l-45 382l-45 -382h90zM66 635h-73l57 131h111z" />
    <glyph glyph-name="Epsilontonos" unicode="&#x388;" horiz-adv-x="477" 
d="M450 0h-274v766h274v-97h-172v-234h165v-97h-165v-241h172v-97zM61 635h-73l57 131h111z" />
    <glyph glyph-name="Etatonos" unicode="&#x389;" horiz-adv-x="532" 
d="M492 0h-102v338h-112v-338h-102v766h102v-331h112v331h102v-766zM61 635h-73l57 131h111z" />
    <glyph glyph-name="Iotatonos" unicode="&#x38a;" horiz-adv-x="318" 
d="M278 0h-102v766h102v-766zM61 635h-73l57 131h111z" />
    <glyph glyph-name="Iotadieresis" unicode="&#x3aa;" horiz-adv-x="182" 
d="M142 0h-102v766h102v-766zM6 826c-32 0 -60 26 -60 60c0 33 28 59 60 59c33 0 59 -26 59 -59c0 -34 -26 -60 -59 -60zM176 826c-32 0 -59 26 -59 60c0 33 27 59 59 59c34 0 60 -26 60 -59c0 -34 -26 -60 -60 -60z" />
    <glyph glyph-name="Omicrontonos" unicode="&#x38c;" horiz-adv-x="496" 
d="M145 147v472c0 113 70 160 164 160c95 0 152 -48 152 -160v-472c0 -115 -73 -160 -157 -160c-86 0 -159 47 -159 160zM359 160v446c0 56 -28 76 -56 76s-56 -20 -56 -76v-446c0 -56 28 -76 56 -76s56 20 56 76zM61 635h-73l57 131h111z" />
    <glyph glyph-name="Upsilontonos" unicode="&#x38e;" horiz-adv-x="545" 
d="M417 0h-102v266l-127 500h103l75 -347l77 347h103l-129 -499v-267zM78 635h-73l57 131h111z" />
    <glyph glyph-name="Upsilondieresis" unicode="&#x3ab;" horiz-adv-x="357" 
d="M229 0h-102v266l-127 500h103l75 -347l77 347h103l-129 -499v-267zM94 826c-32 0 -60 26 -60 60c0 33 28 59 60 59c33 0 59 -26 59 -59c0 -34 -26 -60 -59 -60zM264 826c-32 0 -59 26 -59 60c0 33 27 59 59 59c34 0 60 -26 60 -59c0 -34 -26 -60 -60 -60z" />
    <glyph glyph-name="Omegatonos" unicode="&#x38f;" horiz-adv-x="498" 
d="M471 0h-151v106c24 6 41 30 41 74v426c0 53 -25 76 -56 76s-56 -23 -56 -76v-426c0 -44 17 -68 41 -74v-106h-151v98l91 -6c-62 19 -83 65 -83 148v379c0 129 90 160 158 160c81 0 158 -31 158 -160v-379c0 -83 -21 -129 -83 -148l91 6v-98zM63 635h-73l57 131h111z" />
    <glyph glyph-name="alphatonos" unicode="&#x3ac;" horiz-adv-x="337" 
d="M303 0h-86l-9 46c-13 -22 -37 -54 -92 -54c-69 0 -85 49 -85 156v271c0 107 16 156 85 156c55 0 79 -32 92 -54l9 46h86v-567zM203 163v241c0 56 -8 76 -36 76s-36 -20 -36 -76v-241c0 -56 8 -76 36 -76s36 20 36 76zM177 637h-73l57 131h111z" />
    <glyph glyph-name="epsilontonos" unicode="&#x3ad;" horiz-adv-x="317" 
d="M297 182v-30c0 -110 -43 -160 -134 -160c-93 0 -138 53 -138 148v17c0 67 3 109 72 131c-69 18 -72 64 -72 131v16c0 83 45 140 140 140c89 0 132 -51 132 -160v-6h-100v5c0 46 -8 66 -36 66c-26 0 -35 -17 -36 -64v-15c0 -56 48 -66 66 -66c17 0 28 0 54 1v-96
c-26 1 -36 1 -55 1c-18 0 -65 -10 -65 -66v-11c0 -56 8 -76 36 -76s36 20 36 76v18h100zM177 637h-73l57 131h111z" />
    <glyph glyph-name="etatonos" unicode="&#x3ae;" 
d="M306 0h-100v404c0 56 -8 76 -36 76s-36 -20 -36 -76v-404h-100v567h86l9 -46c13 22 37 54 92 54c69 0 85 -49 85 -156v-419zM185 637h-73l57 131h111z" />
    <glyph glyph-name="iotatonos" unicode="&#x3af;" horiz-adv-x="200" 
d="M199 82v-85c-13 -3 -26 -5 -40 -5c-93 0 -126 41 -126 150v425h100v-409c0 -49 6 -78 46 -78c6 0 13 1 20 2zM104 637h-73l57 131h111z" />
    <glyph glyph-name="iotadieresis" unicode="&#x3ca;" horiz-adv-x="200" 
d="M199 82v-85c-13 -3 -26 -5 -40 -5c-93 0 -126 41 -126 150v425h100v-409c0 -49 6 -78 46 -78c6 0 13 1 20 2zM-2 627c-32 0 -60 26 -60 60c0 33 28 59 60 59c33 0 59 -26 59 -59c0 -34 -26 -60 -59 -60zM168 627c-32 0 -59 26 -59 60c0 33 27 59 59 59
c34 0 60 -26 60 -59c0 -34 -26 -60 -60 -60z" />
    <glyph glyph-name="iotadieresistonos" unicode="&#x390;" horiz-adv-x="199" 
d="M198 82v-85c-13 -3 -26 -5 -40 -5c-93 0 -126 41 -126 150v425h100v-409c0 -49 6 -78 46 -78c6 0 13 1 20 2zM-48 627c-32 0 -60 26 -60 60c0 33 28 59 60 59c33 0 59 -26 59 -59c0 -34 -26 -60 -59 -60zM218 627c-32 0 -59 26 -59 60c0 33 27 59 59 59
c34 0 60 -26 60 -59c0 -34 -26 -60 -60 -60zM87 614h-73l49 144h101z" />
    <glyph glyph-name="omicrontonos" unicode="&#x3cc;" horiz-adv-x="332" 
d="M302 415v-263c0 -111 -43 -160 -135 -160c-94 0 -137 51 -137 160v263c0 109 43 160 137 160c92 0 135 -49 135 -160zM202 164v240c0 56 -8 76 -36 76s-36 -20 -36 -76v-240c0 -56 8 -76 36 -76s36 20 36 76zM185 637h-73l57 131h111z" />
    <glyph glyph-name="upsilontonos" unicode="&#x3cd;" horiz-adv-x="338" 
d="M205 164v403h100v-415c0 -111 -43 -160 -135 -160c-94 0 -137 51 -137 160v415h100v-403c0 -56 8 -76 36 -76s36 20 36 76zM188 637h-73l57 131h111z" />
    <glyph glyph-name="upsilondieresis" unicode="&#x3cb;" horiz-adv-x="336" 
d="M204 164v403h100v-415c0 -111 -43 -160 -135 -160c-94 0 -137 51 -137 160v415h100v-403c0 -56 8 -76 36 -76s36 20 36 76zM83 627c-32 0 -60 26 -60 60c0 33 28 59 60 59c33 0 59 -26 59 -59c0 -34 -26 -60 -59 -60zM253 627c-32 0 -59 26 -59 60c0 33 27 59 59 59
c34 0 60 -26 60 -59c0 -34 -26 -60 -60 -60z" />
    <glyph glyph-name="upsilondieresistonos" unicode="&#x3b0;" horiz-adv-x="336" 
d="M204 164v403h100v-415c0 -111 -43 -160 -135 -160c-94 0 -137 51 -137 160v415h100v-403c0 -56 8 -76 36 -76s36 20 36 76zM35 627c-32 0 -60 26 -60 60c0 33 28 59 60 59c33 0 59 -26 59 -59c0 -34 -26 -60 -59 -60zM301 627c-32 0 -59 26 -59 60c0 33 27 59 59 59
c34 0 60 -26 60 -59c0 -34 -26 -60 -60 -60zM170 614h-73l49 144h101z" />
    <glyph glyph-name="omegatonos" unicode="&#x3ce;" horiz-adv-x="499" 
d="M369 164v240c0 56 -8 76 -37 76v95c94 0 137 -51 137 -160v-263c0 -111 -43 -160 -124 -160c-37 0 -76 8 -98 43c-21 -35 -60 -43 -96 -43c-83 0 -126 52 -126 160v263c0 109 43 160 137 160v-95c-29 0 -37 -20 -37 -76v-240c0 -56 8 -76 36 -76c26 0 36 17 36 64v265
h100v-265c0 -47 10 -64 36 -64c28 0 36 20 36 76zM270 637h-73l57 131h111z" />
    <glyph glyph-name="tonos" unicode="&#x384;" horiz-adv-x="151" 
d="M73 637h-73l57 131h111z" />
    <glyph glyph-name="dieresistonos" unicode="&#x385;" horiz-adv-x="424" 
d="M79 627c-32 0 -60 26 -60 60c0 33 28 59 60 59c33 0 59 -26 59 -59c0 -34 -26 -60 -59 -60zM345 627c-32 0 -59 26 -59 60c0 33 27 59 59 59c34 0 60 -26 60 -59c0 -34 -26 -60 -60 -60zM214 614h-73l49 144h101z" />
    <glyph glyph-name="uni2015" unicode="&#x2015;" horiz-adv-x="1064" 
d="M1032 244h-1000v96h1000v-96z" />
    <glyph glyph-name="uni0410" unicode="&#x410;" horiz-adv-x="363" 
d="M360 0h-102l-20 170h-113l-20 -170h-102l103 766h150zM226 267l-45 382l-45 -382h90z" />
    <glyph glyph-name="uni0411" unicode="&#x411;" horiz-adv-x="370" 
d="M209 0h-169v766h274v-97h-172v-218h73c77 0 136 -45 136 -160v-131c0 -115 -65 -160 -142 -160zM249 173v105c0 56 -18 76 -56 76h-51v-257h51c38 0 56 20 56 76z" />
    <glyph glyph-name="uni0412" unicode="&#x412;" horiz-adv-x="386" 
d="M222 0h-182v766h172c77 0 139 -49 139 -160v-97c0 -52 -19 -95 -73 -116c62 -23 83 -66 83 -123v-110c0 -111 -62 -160 -139 -160zM249 516v77c0 56 -18 76 -56 76h-51v-229h51c38 0 56 20 56 76zM259 173v94c0 56 -28 76 -66 76h-51v-246h61c38 0 56 20 56 76z" />
    <glyph glyph-name="uni0413" unicode="&#x413;" horiz-adv-x="321" 
d="M142 0h-102v766h274v-97h-172v-669z" />
    <glyph glyph-name="uni0414" unicode="&#x414;" horiz-adv-x="453" 
d="M445 -106h-96v106h-245v-106h-96v193c40 16 62 46 64 105l20 574h306v-669h47v-203zM296 97v572h-103l-17 -461c-2 -50 -13 -85 -44 -111h164z" />
    <glyph glyph-name="uni0415" unicode="&#x415;" horiz-adv-x="341" 
d="M314 0h-274v766h274v-97h-172v-234h165v-97h-165v-241h172v-97z" />
    <glyph glyph-name="uni0416" unicode="&#x416;" horiz-adv-x="558" 
d="M554 0h-102c-7 128 -54 255 -121 383c61 128 101 255 102 383h102c0 -127 -37 -253 -96 -380c65 -129 110 -257 115 -386zM330 0h-102v766h102v-766zM106 0h-102c5 129 50 257 115 386c-59 127 -96 253 -96 380h102c1 -128 41 -255 102 -383
c-67 -128 -114 -255 -121 -383z" />
    <glyph glyph-name="uni0417" unicode="&#x417;" horiz-adv-x="369" 
d="M340 261v-112c0 -111 -63 -162 -156 -162s-160 51 -160 160v68h102v-54c0 -55 27 -77 57 -77c29 0 55 20 55 77v114c0 45 -22 68 -74 68c-23 0 -35 -1 -56 -2v101c26 -2 44 -2 71 -2c43 0 59 20 59 76v89c0 56 -26 77 -54 77s-58 -19 -58 -75v-59h-102v72
c0 109 66 159 161 159c91 0 155 -45 155 -156v-100c0 -67 -18 -102 -82 -130c63 -23 82 -65 82 -132z" />
    <glyph glyph-name="uni0418" unicode="&#x418;" horiz-adv-x="448" 
d="M408 0h-102l2 511l-135 -511h-133v766h102l-2 -520l140 520h128v-766z" />
    <glyph glyph-name="uni0419" unicode="&#x419;" horiz-adv-x="448" 
d="M408 0h-102l2 511l-135 -511h-133v766h102l-2 -520l140 520h128v-766zM287 931h56c-2 -78 -39 -124 -117 -124s-116 46 -117 124h56c1 -27 14 -53 61 -53s59 26 61 53z" />
    <glyph glyph-name="uni041A" unicode="&#x41a;" horiz-adv-x="370" 
d="M366 0h-102c-7 128 -54 255 -121 383c61 128 101 255 102 383h102c0 -127 -37 -253 -96 -380c65 -129 110 -257 115 -386zM142 0h-102v766h102v-766z" />
    <glyph glyph-name="uni041B" unicode="&#x41b;" horiz-adv-x="423" 
d="M383 0h-102v669h-112v-521c0 -115 -73 -160 -158 -160h-4v97h4c28 0 56 20 56 76v605h316v-766z" />
    <glyph glyph-name="uni041C" unicode="&#x41c;" horiz-adv-x="580" 
d="M540 0h-102l2 573l-104 -573h-92l-104 572l2 -572h-102v766h165l85 -534l85 534h165v-766z" />
    <glyph glyph-name="uni041D" unicode="&#x41d;" horiz-adv-x="396" 
d="M356 0h-102v338h-112v-338h-102v766h102v-331h112v331h102v-766z" />
    <glyph glyph-name="uni041E" unicode="&#x41e;" horiz-adv-x="386" 
d="M35 147v472c0 113 70 160 164 160c95 0 152 -48 152 -160v-472c0 -115 -73 -160 -157 -160c-86 0 -159 47 -159 160zM249 160v446c0 56 -28 76 -56 76s-56 -20 -56 -76v-446c0 -56 28 -76 56 -76s56 20 56 76z" />
    <glyph glyph-name="uni041F" unicode="&#x41f;" horiz-adv-x="396" 
d="M356 0h-102v669h-112v-669h-102v766h316v-766z" />
    <glyph glyph-name="uni0420" unicode="&#x420;" horiz-adv-x="371" 
d="M142 0h-102v766h169c77 0 142 -45 142 -160v-131c0 -115 -59 -160 -136 -160h-73v-315zM249 488v105c0 56 -18 76 -56 76h-51v-257h51c38 0 56 20 56 76z" />
    <glyph glyph-name="uni0421" unicode="&#x421;" horiz-adv-x="377" 
d="M351 256v-109c0 -115 -73 -160 -157 -160c-86 0 -159 47 -159 160v472c0 113 72 160 162 160c80 0 154 -38 154 -153v-127h-102v107c0 56 -28 76 -56 76s-56 -20 -56 -76v-446c0 -56 28 -76 56 -76s56 20 56 76v96h102z" />
    <glyph glyph-name="uni0422" unicode="&#x422;" horiz-adv-x="308" 
d="M205 0h-102v669h-95v97h292v-97h-95v-669z" />
    <glyph glyph-name="uni0423" unicode="&#x423;" horiz-adv-x="417" 
d="M126 0h-102l114 284l-148 482h103l101 -341l137 341h103z" />
    <glyph glyph-name="uni0424" unicode="&#x424;" horiz-adv-x="480" 
d="M291 -1h-102v70c-127 6 -167 87 -167 203v221c0 116 40 197 167 203v71h102v-71c126 -7 167 -87 167 -203v-221c0 -116 -41 -196 -167 -203v-70zM189 168v429c-48 -3 -65 -52 -65 -97v-235c0 -45 17 -94 65 -97zM356 265v235c0 45 -18 94 -65 97v-429c47 3 65 52 65 97z
" />
    <glyph glyph-name="uni0425" unicode="&#x425;" horiz-adv-x="376" 
d="M377 0h-102l-84 290l-94 -290h-102l137 394l-131 372h103l87 -264l81 264h103l-118 -373z" />
    <glyph glyph-name="uni0426" unicode="&#x426;" horiz-adv-x="431" 
d="M423 -106h-96v106h-287v766h102v-669h112v669h102v-669h67v-203z" />
    <glyph glyph-name="uni0427" unicode="&#x427;" horiz-adv-x="375" 
d="M335 0h-102v313c-21 -9 -40 -11 -61 -11c-90 0 -148 38 -148 172v292h102v-284c0 -66 22 -79 60 -79c18 0 31 3 47 13v350h102v-766z" />
    <glyph glyph-name="uni0428" unicode="&#x428;" horiz-adv-x="590" 
d="M550 766v-766h-510v766h102v-669h102v669h102v-669h102v669h102z" />
    <glyph glyph-name="uni0429" unicode="&#x429;" horiz-adv-x="625" 
d="M617 -106h-96v106h-481v766h102v-669h102v669h102v-669h102v669h102v-669h67v-203z" />
    <glyph glyph-name="uni042A" unicode="&#x42a;" horiz-adv-x="509" 
d="M348 0h-169v669h-172v97h274v-315h73c77 0 136 -45 136 -160v-131c0 -115 -65 -160 -142 -160zM388 173v105c0 56 -18 76 -56 76h-51v-257h51c38 0 56 20 56 76z" />
    <glyph glyph-name="uni042B" unicode="&#x42b;" horiz-adv-x="573" 
d="M249 173v105c0 56 -18 76 -56 76h-51v-257h51c38 0 56 20 56 76zM209 0h-169v766h102v-315h73c77 0 136 -45 136 -160v-131c0 -115 -65 -160 -142 -160zM533 0h-102v766h102v-766z" />
    <glyph glyph-name="uni042C" unicode="&#x42c;" horiz-adv-x="370" 
d="M249 173v105c0 56 -18 76 -56 76h-51v-257h51c38 0 56 20 56 76zM209 0h-169v766h102v-315h73c77 0 136 -45 136 -160v-131c0 -115 -65 -160 -142 -160z" />
    <glyph glyph-name="uni042D" unicode="&#x42d;" horiz-adv-x="375" 
d="M340 613v-460c0 -111 -63 -166 -156 -166s-160 51 -160 160v68h102v-54c0 -55 27 -77 57 -77c29 0 55 20 55 77v177h-154v97h154v170c0 56 -26 77 -54 77s-58 -19 -58 -75v-59h-102v78c0 109 66 153 161 153c91 0 155 -55 155 -166z" />
    <glyph glyph-name="uni042E" unicode="&#x42e;" horiz-adv-x="588" 
d="M142 0h-102v766h102v-331h95v184c0 113 70 160 164 160c95 0 152 -48 152 -160v-472c0 -115 -73 -160 -157 -160c-86 0 -159 47 -159 160v191h-95v-338zM451 160v446c0 56 -28 76 -56 76s-56 -20 -56 -76v-446c0 -56 28 -76 56 -76s56 20 56 76z" />
    <glyph glyph-name="uni042F" unicode="&#x42f;" horiz-adv-x="376" 
d="M234 412v257h-51c-38 0 -56 -20 -56 -76v-105c0 -56 18 -76 56 -76h51zM336 0h-102v315h-39l-88 -315h-102l94 337c-56 24 -74 69 -74 146v123c0 115 64 160 141 160h170v-766z" />
    <glyph glyph-name="uni0408" unicode="&#x408;" horiz-adv-x="182" 
d="M-16 -192h-3v97h3c28 0 56 20 56 76v785h102v-798c0 -115 -73 -160 -158 -160z" />
    <glyph glyph-name="uni0404" unicode="&#x404;" horiz-adv-x="375" 
d="M351 215v-68c0 -109 -67 -160 -160 -160s-156 55 -156 166v460c0 111 64 166 155 166c95 0 161 -44 161 -153v-78h-102v59c0 56 -30 75 -58 75s-54 -21 -54 -77v-170h154v-97h-154v-177c0 -57 26 -77 55 -77c30 0 57 22 57 77v54h102z" />
    <glyph glyph-name="uni0406" unicode="&#x406;" horiz-adv-x="182" 
d="M142 0h-102v766h102v-766z" />
    <glyph glyph-name="uni0405" unicode="&#x405;" horiz-adv-x="371" 
d="M343 244v-97c0 -111 -65 -160 -158 -160s-158 51 -158 160v109h102v-96c0 -56 28 -76 56 -76s56 20 56 76v63c0 85 -214 155 -214 300v96c0 113 73 160 158 160c98 0 158 -45 158 -160v-120h-102v107c0 56 -28 76 -56 76s-56 -20 -56 -76v-64c0 -116 214 -155 214 -298z
" />
    <glyph glyph-name="uni0490" unicode="&#x490;" horiz-adv-x="321" 
d="M142 0h-102v766h178v106h96v-203h-172v-669z" />
    <glyph glyph-name="uni040F" unicode="&#x40f;" horiz-adv-x="396" 
d="M356 0h-109v-106h-96v106h-111v766h102v-669h112v669h102v-766z" />
    <glyph glyph-name="uni0403" unicode="&#x403;" horiz-adv-x="321" 
d="M142 0h-102v766h274v-97h-172v-669zM201 836h-73l57 131h111z" />
    <glyph glyph-name="uni0401" unicode="&#x401;" horiz-adv-x="341" 
d="M314 0h-274v766h274v-97h-172v-234h165v-97h-165v-241h172v-97zM91 826c-32 0 -60 26 -60 60c0 33 28 59 60 59c33 0 59 -26 59 -59c0 -34 -26 -60 -59 -60zM261 826c-32 0 -59 26 -59 60c0 33 27 59 59 59c34 0 60 -26 60 -59c0 -34 -26 -60 -60 -60z" />
    <glyph glyph-name="uni0402" unicode="&#x402;" horiz-adv-x="435" 
d="M256 -8h-4v97h4c28 0 56 20 56 76v119c0 66 -22 79 -60 79c-18 0 -31 -3 -47 -13v-350h-102v669h-95v97h322v-97h-125v-217c21 9 39 12 63 12c88 0 146 -39 146 -172v-140c0 -115 -73 -160 -158 -160z" />
    <glyph glyph-name="uni040C" unicode="&#x40c;" horiz-adv-x="370" 
d="M366 0h-102c-7 128 -54 255 -121 383c61 128 101 255 102 383h102c0 -127 -37 -253 -96 -380c65 -129 110 -257 115 -386zM142 0h-102v766h102v-766zM213 836h-73l57 131h111z" />
    <glyph glyph-name="uni040E" unicode="&#x40e;" horiz-adv-x="417" 
d="M126 0h-102l114 284l-148 482h103l101 -341l137 341h103zM271 924h56c-2 -78 -39 -124 -117 -124s-116 46 -117 124h56c1 -27 14 -53 61 -53s59 26 61 53z" />
    <glyph glyph-name="uni0407" unicode="&#x407;" horiz-adv-x="182" 
d="M142 0h-102v766h102v-766zM6 826c-32 0 -60 26 -60 60c0 33 28 59 60 59c33 0 59 -26 59 -59c0 -34 -26 -60 -59 -60zM176 826c-32 0 -59 26 -59 60c0 33 27 59 59 59c34 0 60 -26 60 -59c0 -34 -26 -60 -60 -60z" />
    <glyph glyph-name="uni0409" unicode="&#x409;" horiz-adv-x="601" 
d="M440 0h-169v669h-102v-521c0 -115 -73 -160 -158 -160h-4v97h4c28 0 56 20 56 76v605h306v-315h73c77 0 136 -45 136 -160v-131c0 -115 -65 -160 -142 -160zM480 173v105c0 56 -18 76 -56 76h-51v-257h51c38 0 56 20 56 76z" />
    <glyph glyph-name="uni040A" unicode="&#x40a;" horiz-adv-x="584" 
d="M423 0h-169v354h-112v-354h-102v766h102v-315h112v315h102v-315h73c77 0 136 -45 136 -160v-131c0 -115 -65 -160 -142 -160zM463 173v105c0 56 -18 76 -56 76h-51v-257h51c38 0 56 20 56 76z" />
    <glyph glyph-name="uni040B" unicode="&#x40b;" horiz-adv-x="438" 
d="M414 0h-102v284c0 66 -22 79 -60 79c-18 0 -31 -3 -47 -13v-350h-102v669h-95v97h322v-97h-125v-217c21 9 39 12 63 12c88 0 146 -39 146 -172v-292z" />
    <glyph glyph-name="uni0430" unicode="&#x430;" horiz-adv-x="331" 
d="M298 0h-86l-9 47c-14 -24 -34 -55 -92 -55c-47 0 -85 21 -85 175v16c0 113 29 150 87 150c49 0 71 -27 85 -46v117c0 56 -8 76 -36 76s-36 -20 -36 -76v-18h-100v35c0 95 38 154 138 154c105 0 134 -66 134 -157v-418zM198 152v22c0 45 -10 64 -36 64
c-28 0 -36 -20 -36 -76v-4c0 -50 8 -70 36 -70c18 0 36 8 36 64z" />
    <glyph glyph-name="uni0431" unicode="&#x431;" horiz-adv-x="335" 
d="M33 143v318c0 155 20 228 95 270c34 19 74 28 166 38l21 -81c-83 -8 -118 -21 -141 -40c-27 -23 -42 -58 -43 -125c9 25 44 53 90 53c58 0 84 -45 84 -131v-302c0 -95 -42 -151 -136 -151s-136 56 -136 151zM205 143v271c0 44 -9 67 -35 67c-24 0 -37 -19 -37 -77v-261
c0 -39 13 -56 36 -56s36 17 36 56z" />
    <glyph glyph-name="uni0432" unicode="&#x432;" horiz-adv-x="344" 
d="M215 0h-181v567h163c76 0 116 -36 116 -118v-63c0 -38 -16 -80 -66 -96c46 -17 74 -44 74 -100v-72c0 -82 -46 -118 -106 -118zM213 391v25c0 42 -13 56 -42 56h-37v-137h37c29 0 42 15 42 56zM221 152v33c0 42 -21 56 -50 56h-37v-145h46c28 0 41 14 41 56z" />
    <glyph glyph-name="uni0433" unicode="&#x433;" horiz-adv-x="304" 
d="M134 0h-100v567h262v-93h-162v-474z" />
    <glyph glyph-name="uni0434" unicode="&#x434;" horiz-adv-x="395" 
d="M384 -96h-93v96h-181v-96h-101v182c31 12 50 35 52 81l15 399h271v-473h37v-189zM247 93v381h-72l-12 -295c-2 -39 -10 -65 -34 -86h118z" />
    <glyph glyph-name="uni0435" unicode="&#x435;" horiz-adv-x="327" 
d="M302 187v-35c0 -111 -43 -160 -135 -160c-94 0 -137 51 -137 160v263c0 109 43 160 137 160c92 0 135 -49 135 -160v-174h-172v-77c0 -56 8 -76 36 -76s36 20 36 76v23h100zM202 335v69c0 56 -8 76 -36 76s-36 -20 -36 -76v-69h72z" />
    <glyph glyph-name="uni0436" unicode="&#x436;" horiz-adv-x="496" 
d="M482 0h-101c0 97 -28 193 -82 290c54 92 82 185 82 277h102c0 -91 -25 -183 -78 -274c52 -98 77 -195 77 -293zM298 0h-100v567h100v-567zM115 0h-101c0 98 25 195 77 293c-53 91 -78 183 -78 274h102c0 -92 28 -185 82 -277c-54 -97 -82 -193 -82 -290z" />
    <glyph glyph-name="uni0437" unicode="&#x437;" horiz-adv-x="317" 
d="M292 157v-17c0 -95 -45 -148 -138 -148c-91 0 -134 50 -134 160v30h100v-18c0 -56 8 -76 36 -76s36 20 36 76v11c0 56 -47 66 -65 66c-19 0 -29 0 -55 -1v96c26 -1 37 -1 54 -1c18 0 66 10 66 66v15c-1 47 -10 64 -36 64c-28 0 -36 -20 -36 -66v-5h-100v6
c0 109 43 160 132 160c95 0 140 -57 140 -140v-16c0 -67 -3 -113 -72 -131c69 -22 72 -64 72 -131z" />
    <glyph glyph-name="uni0438" unicode="&#x438;" horiz-adv-x="366" 
d="M332 0h-100l2 312l-107 -312h-93v567h100l-2 -312l107 312h93v-567z" />
    <glyph glyph-name="uni0439" unicode="&#x439;" horiz-adv-x="366" 
d="M332 0h-100l2 312l-107 -312h-93v567h100l-2 -312l107 312h93v-567zM241 750h56c-2 -78 -39 -124 -117 -124s-116 46 -117 124h56c1 -27 14 -53 61 -53s59 26 61 53z" />
    <glyph glyph-name="uni043A" unicode="&#x43a;" horiz-adv-x="332" 
d="M318 0h-101c0 97 -28 193 -82 290c54 92 82 185 82 277h102c0 -91 -25 -183 -78 -274c52 -98 77 -195 77 -293zM134 0h-100v567h100v-567z" />
    <glyph glyph-name="uni043B" unicode="&#x43b;" horiz-adv-x="358" 
d="M324 0h-100v474h-72v-331c0 -94 -27 -150 -105 -150c-15 0 -29 2 -39 4v81c5 -1 10 -1 14 -1c25 0 30 27 30 67v423h272v-567z" />
    <glyph glyph-name="uni043C" unicode="&#x43c;" horiz-adv-x="450" 
d="M416 0h-100l2 317l-74 -317h-38l-74 317l2 -317h-100v567h114l77 -316l77 316h114v-567z" />
    <glyph glyph-name="uni043D" unicode="&#x43d;" horiz-adv-x="340" 
d="M306 0h-100v242h-72v-242h-100v567h100v-232h72v232h100v-567z" />
    <glyph glyph-name="uni043E" unicode="&#x43e;" horiz-adv-x="332" 
d="M302 415v-263c0 -111 -43 -160 -135 -160c-94 0 -137 51 -137 160v263c0 109 43 160 137 160c92 0 135 -49 135 -160zM202 164v240c0 56 -8 76 -36 76s-36 -20 -36 -76v-240c0 -56 8 -76 36 -76s36 20 36 76z" />
    <glyph glyph-name="uni043F" unicode="&#x43f;" horiz-adv-x="340" 
d="M306 0h-100v474h-72v-474h-100v567h272v-567z" />
    <glyph glyph-name="uni0440" unicode="&#x440;" horiz-adv-x="337" 
d="M134 -199h-100v766h86l9 -46c13 22 37 54 92 54c69 0 85 -49 85 -156v-271c0 -108 -16 -156 -86 -156c-53 0 -73 28 -86 48v-239zM206 163v241c0 56 -8 76 -36 76s-36 -20 -36 -76v-241c0 -56 8 -76 36 -76s36 20 36 76z" />
    <glyph glyph-name="uni0441" unicode="&#x441;" horiz-adv-x="325" 
d="M302 222v-70c0 -111 -43 -160 -135 -160c-94 0 -137 51 -137 160v263c0 109 43 160 137 160c92 0 135 -49 135 -160v-56h-100v45c0 56 -8 76 -36 76s-36 -20 -36 -76v-240c0 -56 8 -76 36 -76s36 20 36 76v58h100z" />
    <glyph glyph-name="uni0442" unicode="&#x442;" horiz-adv-x="299" 
d="M199 0h-100v474h-91v93h283v-93h-92v-474z" />
    <glyph glyph-name="uni0443" unicode="&#x443;" horiz-adv-x="313" 
d="M191 -200h-104l30 162l-119 605h104l57 -402l44 402h104z" />
    <glyph glyph-name="uni0444" unicode="&#x444;" horiz-adv-x="464" 
d="M281 -198h-98v192c-124 10 -157 91 -157 176v228c0 85 33 166 157 176v192h98v-192c123 -10 157 -91 157 -176v-228c0 -85 -34 -166 -157 -176v-192zM183 91v386c-48 -7 -57 -50 -57 -82v-222c0 -32 9 -75 57 -82zM338 173v222c0 32 -9 75 -57 82v-386c48 7 57 50 57 82z
" />
    <glyph glyph-name="uni0445" unicode="&#x445;" horiz-adv-x="320" 
d="M316 0h-99l-61 189l-53 -189h-98l94 290l-93 277h99l55 -172l53 172h101l-97 -278z" />
    <glyph glyph-name="uni0446" unicode="&#x446;" horiz-adv-x="381" 
d="M371 -96h-93v96h-244v567h100v-474h72v474h100v-474h65v-189z" />
    <glyph glyph-name="uni0447" unicode="&#x447;" horiz-adv-x="329" 
d="M295 567v-567h-100v257c-13 -20 -33 -48 -86 -48c-70 0 -86 48 -86 156v202h100v-187c0 -56 8 -76 36 -76s36 20 36 76v187h100z" />
    <glyph glyph-name="uni0448" unicode="&#x448;" horiz-adv-x="502" 
d="M468 567v-567h-434v567h100v-474h67v474h100v-474h67v474h100z" />
    <glyph glyph-name="uni0449" unicode="&#x449;" horiz-adv-x="543" 
d="M533 -96h-93v96h-406v567h100v-474h67v474h100v-474h67v474h100v-474h65v-189z" />
    <glyph glyph-name="uni044A" unicode="&#x44a;" horiz-adv-x="450" 
d="M326 0h-166v474h-152v93h252v-220h71c54 0 101 -30 101 -118v-111c0 -89 -52 -118 -106 -118zM332 151v46c0 39 -13 56 -36 56h-36v-158h36c23 0 36 17 36 56z" />
    <glyph glyph-name="uni044B" unicode="&#x44b;" horiz-adv-x="505" 
d="M206 151v46c0 39 -13 56 -36 56h-36v-158h36c23 0 36 17 36 56zM200 0h-166v567h100v-220h71c54 0 101 -30 101 -118v-111c0 -89 -52 -118 -106 -118zM471 0h-100v567h100v-567z" />
    <glyph glyph-name="uni044C" unicode="&#x44c;" horiz-adv-x="324" 
d="M206 151v46c0 39 -13 56 -36 56h-36v-158h36c23 0 36 17 36 56zM200 0h-166v567h100v-220h71c54 0 101 -30 101 -118v-111c0 -89 -52 -118 -106 -118z" />
    <glyph glyph-name="uni044D" unicode="&#x44d;" horiz-adv-x="322" 
d="M292 415v-263c0 -109 -43 -160 -137 -160c-92 0 -135 49 -135 160v30h100v-18c0 -56 8 -76 36 -76s36 20 36 76v78h-150v93h150v69c0 56 -8 76 -36 76s-36 -20 -36 -76v-5h-100v16c0 111 43 160 135 160c94 0 137 -51 137 -160z" />
    <glyph glyph-name="uni044E" unicode="&#x44e;" horiz-adv-x="511" 
d="M134 0h-100v567h100v-232h75v80c0 109 43 160 137 160c92 0 135 -49 135 -160v-263c0 -111 -43 -160 -135 -160c-94 0 -137 51 -137 160v90h-75v-242zM381 164v240c0 56 -8 76 -36 76s-36 -20 -36 -76v-240c0 -56 8 -76 36 -76s36 20 36 76z" />
    <glyph glyph-name="uni044F" unicode="&#x44f;" horiz-adv-x="332" 
d="M298 0h-100v222h-32l-62 -222h-93l67 232c-30 15 -52 48 -52 108v109c0 89 52 118 106 118h166v-567zM198 316v156h-36c-23 0 -36 -17 -36 -56v-44c0 -39 13 -56 36 -56h36z" />
    <glyph glyph-name="uni0458" unicode="&#x458;" horiz-adv-x="168" 
d="M-32 -203v80c7 -1 10 -1 16 -1c43 0 50 27 50 77v614h100v-625c0 -107 -33 -150 -122 -150c-19 0 -31 2 -44 5zM84 625c-35 0 -63 28 -63 63s28 63 63 63s63 -28 63 -63s-28 -63 -63 -63z" />
    <glyph glyph-name="uni0459" unicode="&#x459;" horiz-adv-x="514" 
d="M390 0h-166v474h-72v-331c0 -94 -27 -150 -105 -150c-15 0 -29 2 -39 4v81c5 -1 10 -1 14 -1c25 0 30 27 30 67v423h272v-220h71c54 0 101 -30 101 -118v-111c0 -89 -52 -118 -106 -118zM396 151v46c0 39 -13 56 -36 56h-36v-158h36c23 0 36 17 36 56z" />
    <glyph glyph-name="uni045A" unicode="&#x45a;" horiz-adv-x="496" 
d="M372 0h-166v253h-72v-253h-100v567h100v-221h72v221h100v-220h71c54 0 101 -30 101 -118v-111c0 -89 -52 -118 -106 -118zM378 151v46c0 39 -13 56 -36 56h-36v-158h36c23 0 36 17 36 56z" />
    <glyph glyph-name="uni045B" unicode="&#x45b;" 
d="M306 0h-100v404c0 56 -8 76 -36 76s-36 -20 -36 -76v-404h-100v642h-34v71h34v53h100v-53h115v-71h-115v-115c13 20 33 48 86 48c70 0 86 -48 86 -156v-419z" />
    <glyph glyph-name="uni0454" unicode="&#x454;" horiz-adv-x="322" 
d="M302 182v-30c0 -111 -43 -160 -135 -160c-94 0 -137 51 -137 160v263c0 109 43 160 137 160c92 0 135 -49 135 -160v-16h-100v5c0 56 -8 76 -36 76s-36 -20 -36 -76v-69h150v-93h-150v-78c0 -56 8 -76 36 -76s36 20 36 76v18h100z" />
    <glyph glyph-name="uni0456" unicode="&#x456;" horiz-adv-x="168" 
d="M134 0h-100v567h100v-567zM84 625c-35 0 -63 28 -63 63s28 63 63 63s63 -28 63 -63s-28 -63 -63 -63z" />
    <glyph glyph-name="uni0455" unicode="&#x455;" horiz-adv-x="327" 
d="M122 187v-24c0 -50 10 -76 42 -76c30 0 40 22 40 50c0 122 -182 105 -182 292c0 95 47 146 144 146c95 0 138 -48 138 -160v-37h-100v26c0 55 -8 76 -40 76c-35 0 -41 -25 -41 -51c0 -136 181 -100 181 -291c0 -93 -43 -146 -142 -146c-97 0 -140 52 -140 158v37h100z
" />
    <glyph glyph-name="uni0491" unicode="&#x491;" horiz-adv-x="304" 
d="M134 0h-100v567h169v96h93v-189h-162v-474z" />
    <glyph glyph-name="uni045F" unicode="&#x45f;" horiz-adv-x="340" 
d="M217 -96h-93v96h-90v567h100v-474h72v474h100v-567h-89v-96z" />
    <glyph glyph-name="uni0453" unicode="&#x453;" horiz-adv-x="304" 
d="M134 0h-100v567h262v-93h-162v-474zM189 637h-73l57 131h111z" />
    <glyph glyph-name="uni0451" unicode="&#x451;" horiz-adv-x="327" 
d="M302 187v-35c0 -111 -43 -160 -135 -160c-94 0 -137 51 -137 160v263c0 109 43 160 137 160c92 0 135 -49 135 -160v-174h-172v-77c0 -56 8 -76 36 -76s36 20 36 76v23h100zM202 335v69c0 56 -8 76 -36 76s-36 -20 -36 -76v-69h72zM81 627c-32 0 -60 26 -60 60
c0 33 28 59 60 59c33 0 59 -26 59 -59c0 -34 -26 -60 -59 -60zM251 627c-32 0 -59 26 -59 60c0 33 27 59 59 59c34 0 60 -26 60 -59c0 -34 -26 -60 -60 -60z" />
    <glyph glyph-name="uni0452" unicode="&#x452;" 
d="M140 -203v80c7 -1 10 -1 16 -1c43 0 50 27 50 77v451c0 56 -8 76 -36 76s-36 -20 -36 -76v-404h-100v642h-34v71h34v53h100v-53h115v-71h-115v-115c13 20 33 48 86 48c70 0 86 -48 86 -156v-477c0 -107 -33 -150 -122 -150c-19 0 -31 2 -44 5z" />
    <glyph glyph-name="uni045C" unicode="&#x45c;" horiz-adv-x="332" 
d="M318 0h-101c0 97 -28 193 -82 290c54 92 82 185 82 277h102c0 -91 -25 -183 -78 -274c52 -98 77 -195 77 -293zM134 0h-100v567h100v-567zM188 637h-73l57 131h111z" />
    <glyph glyph-name="uni045E" unicode="&#x45e;" horiz-adv-x="313" 
d="M191 -200h-104l30 162l-119 605h104l57 -402l44 402h104zM215 750h56c-2 -78 -39 -124 -117 -124s-116 46 -117 124h56c1 -27 14 -53 61 -53s59 26 61 53z" />
    <glyph glyph-name="uni0457" unicode="&#x457;" horiz-adv-x="168" 
d="M134 0h-100v567h100v-567zM-1 627c-32 0 -60 26 -60 60c0 33 28 59 60 59c33 0 59 -26 59 -59c0 -34 -26 -60 -59 -60zM169 627c-32 0 -59 26 -59 60c0 33 27 59 59 59c34 0 60 -26 60 -59c0 -34 -26 -60 -60 -60z" />
    <glyph glyph-name="uni2116" unicode="&#x2116;" horiz-adv-x="747" 
d="M416 0h-134l-132 511v-511h-102v766h129l137 -520v520h102v-766zM724 507v-90c0 -111 -33 -160 -125 -160c-94 0 -127 51 -127 160v90c0 109 33 160 127 160c92 0 125 -49 125 -160zM715 98h-230v86h230v-86zM634 428v68c0 56 -8 76 -36 76s-36 -20 -36 -76v-68
c0 -56 8 -76 36 -76s36 20 36 76z" />
    <glyph glyph-name="angstrom" unicode="&#x212b;" horiz-adv-x="383" 
d="M370 0h-102l-20 170h-113l-20 -170h-102l111 755c-13 15 -20 35 -20 57c0 49 38 87 87 87s87 -38 87 -87c0 -22 -8 -42 -21 -57zM236 267l-45 392l-45 -392h90zM222 812c0 18 -13 31 -31 31s-31 -13 -31 -31s13 -31 31 -31s31 13 31 31z" />
    <glyph glyph-name="G.alt" horiz-adv-x="391" 
d="M259 160v160h-68v97h170v-270c0 -115 -73 -160 -162 -160c-91 0 -164 47 -164 160v472c0 113 70 160 164 160c95 0 162 -48 162 -160v-119h-102v106c0 56 -28 76 -61 76s-61 -20 -61 -76v-446c0 -56 28 -76 61 -76s61 20 61 76z" />
    <glyph glyph-name="J.alt" horiz-adv-x="207" 
d="M11 -12h-4v97h4c28 0 56 20 56 76v605h102v-618c0 -115 -73 -160 -158 -160z" />
    <glyph glyph-name="R.alt" horiz-adv-x="383" 
d="M351 0h-102v239c0 56 -28 76 -66 76h-41v-315h-102v766h172c77 0 139 -49 139 -160v-125c0 -52 -20 -95 -73 -116c57 -16 73 -66 73 -123v-242zM249 488v105c0 56 -18 76 -56 76h-51v-257h51c38 0 56 20 56 76z" />
    <glyph glyph-name="a.alt" horiz-adv-x="331" 
d="M298 0h-87l-8 46c-14 -29 -46 -54 -86 -54c-73 0 -91 63 -91 164v36c0 110 36 152 107 152h65v60c0 56 -8 76 -36 76s-36 -20 -36 -76v-18h-100v27c0 111 43 162 136 162s136 -47 136 -156v-419zM198 164v103h-36c-28 0 -36 -30 -36 -86v-17c0 -56 8 -76 36 -76
s36 20 36 76z" />
    <glyph glyph-name="g.alt" horiz-adv-x="337" 
d="M203 -36v73c-14 -21 -39 -45 -87 -45c-69 0 -85 49 -85 156v271c0 107 16 156 85 156c55 0 79 -32 92 -54l9 46h86v-615c0 -108 -43 -160 -136 -160s-136 53 -136 150v2h100c2 -36 8 -56 36 -56s36 20 36 76zM203 163v241c0 56 -8 76 -36 76s-36 -20 -36 -76v-241
c0 -56 8 -76 36 -76s36 20 36 76z" />
    <glyph glyph-name="j.alt" horiz-adv-x="168" 
d="M114 -199h-100c17 56 20 113 20 169v597h100v-601c0 -55 -3 -110 -20 -165zM84 625c-35 0 -63 28 -63 63s28 63 63 63s63 -28 63 -63s-28 -63 -63 -63z" />
    <glyph glyph-name="y.alt" 
d="M205 -36v73c-14 -21 -39 -45 -87 -45c-69 0 -85 49 -85 156v419h100v-404c0 -56 8 -76 36 -76s36 20 36 76v404h100v-615c0 -108 -43 -160 -136 -160s-136 53 -136 150v2h100c2 -36 8 -56 36 -56s36 20 36 76z" />
    <glyph glyph-name="Gcircumflex.alt" horiz-adv-x="391" 
d="M259 160v160h-68v97h170v-270c0 -115 -73 -160 -162 -160c-91 0 -164 47 -164 160v472c0 113 70 160 164 160c95 0 162 -48 162 -160v-119h-102v106c0 56 -28 76 -61 76s-61 -20 -61 -76v-446c0 -56 28 -76 61 -76s61 20 61 76zM320 836h-78l-45 77l-40 -77h-81l75 141
h90z" />
    <glyph glyph-name="Gbreve.alt" horiz-adv-x="391" 
d="M259 160v160h-68v97h170v-270c0 -115 -73 -160 -162 -160c-91 0 -164 47 -164 160v472c0 113 70 160 164 160c95 0 162 -48 162 -160v-119h-102v106c0 56 -28 76 -61 76s-61 -20 -61 -76v-446c0 -56 28 -76 61 -76s61 20 61 76zM259 949h56c-2 -78 -39 -124 -117 -124
s-116 46 -117 124h56c1 -27 14 -53 61 -53s59 26 61 53z" />
    <glyph glyph-name="Gdotaccent.alt" horiz-adv-x="391" 
d="M259 160v160h-68v97h170v-270c0 -115 -73 -160 -162 -160c-91 0 -164 47 -164 160v472c0 113 70 160 164 160c95 0 162 -48 162 -160v-119h-102v106c0 56 -28 76 -61 76s-61 -20 -61 -76v-446c0 -56 28 -76 61 -76s61 20 61 76zM198 831c-32 0 -60 26 -60 60
c0 33 28 59 60 59c33 0 59 -26 59 -59c0 -34 -26 -60 -59 -60z" />
    <glyph glyph-name="Gcommaaccent.alt" horiz-adv-x="391" 
d="M259 160v160h-68v97h170v-270c0 -115 -73 -160 -162 -160c-91 0 -164 47 -164 160v472c0 113 70 160 164 160c95 0 162 -48 162 -160v-119h-102v106c0 56 -28 76 -61 76s-61 -20 -61 -76v-446c0 -56 28 -76 61 -76s61 20 61 76zM193 -206h-76l53 156h106z" />
    <glyph glyph-name="IJ.alt" horiz-adv-x="389" 
d="M142 0h-102v766h102v-766zM193 -12h-4v97h4c28 0 56 20 56 76v605h102v-618c0 -115 -73 -160 -158 -160z" />
    <glyph glyph-name="ij.alt" horiz-adv-x="336" 
d="M134 0h-100v567h100v-567zM84 625c-35 0 -63 28 -63 63s28 63 63 63s63 -28 63 -63s-28 -63 -63 -63zM282 -199h-100c17 56 20 113 20 169v597h100v-601c0 -55 -3 -110 -20 -165zM252 625c-35 0 -63 28 -63 63s28 63 63 63s63 -28 63 -63s-28 -63 -63 -63z" />
    <glyph glyph-name="Jcircumflex.alt" horiz-adv-x="207" 
d="M240 836h-78l-45 77l-40 -77h-81l75 141h90zM11 -12h-4v97h4c28 0 56 20 56 76v605h102v-618c0 -115 -73 -160 -158 -160z" />
    <glyph glyph-name="Racute.alt" horiz-adv-x="383" 
d="M351 0h-102v239c0 56 -28 76 -66 76h-41v-315h-102v766h172c77 0 139 -49 139 -160v-125c0 -52 -20 -95 -73 -116c57 -16 73 -66 73 -123v-242zM249 488v105c0 56 -18 76 -56 76h-51v-257h51c38 0 56 20 56 76zM204 836h-73l57 131h111z" />
    <glyph glyph-name="Rcommaaccent.alt" horiz-adv-x="383" 
d="M351 0h-102v239c0 56 -28 76 -66 76h-41v-315h-102v766h172c77 0 139 -49 139 -160v-125c0 -52 -20 -95 -73 -116c57 -16 73 -66 73 -123v-242zM249 488v105c0 56 -18 76 -56 76h-51v-257h51c38 0 56 20 56 76zM188 -206h-76l53 156h106z" />
    <glyph glyph-name="Rcaron.alt" horiz-adv-x="383" 
d="M351 0h-102v239c0 56 -28 76 -66 76h-41v-315h-102v766h172c77 0 139 -49 139 -160v-125c0 -52 -20 -95 -73 -116c57 -16 73 -66 73 -123v-242zM249 488v105c0 56 -18 76 -56 76h-51v-257h51c38 0 56 20 56 76zM231 836h-90l-79 141h78l45 -77l40 77h81z" />
    <glyph glyph-name="jcircumflex.alt" horiz-adv-x="168" 
d="M114 -199h-100c17 56 20 113 20 169v597h100v-601c0 -55 -3 -110 -20 -165zM206 637h-78l-45 77l-40 -77h-81l75 141h90z" />
    <glyph glyph-name="dotlessj.alt" horiz-adv-x="168" 
d="M114 -199h-100c17 56 20 113 20 169v597h100v-601c0 -55 -3 -110 -20 -165z" />
    <glyph glyph-name="agrave.alt" horiz-adv-x="331" 
d="M298 0h-87l-8 46c-14 -29 -46 -54 -86 -54c-73 0 -91 63 -91 164v36c0 110 36 152 107 152h65v60c0 56 -8 76 -36 76s-36 -20 -36 -76v-18h-100v27c0 111 43 162 136 162s136 -47 136 -156v-419zM198 164v103h-36c-28 0 -36 -30 -36 -86v-17c0 -56 8 -76 36 -76
s36 20 36 76zM224 637h-73l-95 131h111z" />
    <glyph glyph-name="aacute.alt" horiz-adv-x="331" 
d="M298 0h-87l-8 46c-14 -29 -46 -54 -86 -54c-73 0 -91 63 -91 164v36c0 110 36 152 107 152h65v60c0 56 -8 76 -36 76s-36 -20 -36 -76v-18h-100v27c0 111 43 162 136 162s136 -47 136 -156v-419zM198 164v103h-36c-28 0 -36 -30 -36 -86v-17c0 -56 8 -76 36 -76
s36 20 36 76zM185 637h-73l57 131h111z" />
    <glyph glyph-name="adieresis.alt" horiz-adv-x="330" 
d="M298 0h-87l-8 46c-14 -29 -46 -54 -86 -54c-73 0 -91 63 -91 164v36c0 110 36 152 107 152h65v60c0 56 -8 76 -36 76s-36 -20 -36 -76v-18h-100v27c0 111 43 162 136 162s136 -47 136 -156v-419zM198 164v103h-36c-28 0 -36 -30 -36 -86v-17c0 -56 8 -76 36 -76
s36 20 36 76zM77 627c-32 0 -60 26 -60 60c0 33 28 59 60 59c33 0 59 -26 59 -59c0 -34 -26 -60 -59 -60zM247 627c-32 0 -59 26 -59 60c0 33 27 59 59 59c34 0 60 -26 60 -59c0 -34 -26 -60 -60 -60z" />
    <glyph glyph-name="acircumflex.alt" horiz-adv-x="331" 
d="M298 0h-87l-8 46c-14 -29 -46 -54 -86 -54c-73 0 -91 63 -91 164v36c0 110 36 152 107 152h65v60c0 56 -8 76 -36 76s-36 -20 -36 -76v-18h-100v27c0 111 43 162 136 162s136 -47 136 -156v-419zM198 164v103h-36c-28 0 -36 -30 -36 -86v-17c0 -56 8 -76 36 -76
s36 20 36 76zM283 637h-78l-45 77l-40 -77h-81l75 141h90z" />
    <glyph glyph-name="aring.alt" horiz-adv-x="331" 
d="M298 0h-87l-8 46c-14 -29 -46 -54 -86 -54c-73 0 -91 63 -91 164v36c0 110 36 152 107 152h65v60c0 56 -8 76 -36 76s-36 -20 -36 -76v-18h-100v27c0 111 43 162 136 162s136 -47 136 -156v-419zM198 164v103h-36c-28 0 -36 -30 -36 -86v-17c0 -56 8 -76 36 -76
s36 20 36 76zM194 703c0 18 -13 31 -31 31s-31 -13 -31 -31s13 -31 31 -31s31 13 31 31zM163 616c-49 0 -87 38 -87 87s38 87 87 87s87 -38 87 -87s-38 -87 -87 -87z" />
    <glyph glyph-name="atilde.alt" horiz-adv-x="331" 
d="M298 0h-87l-8 46c-14 -29 -46 -54 -86 -54c-73 0 -91 63 -91 164v36c0 110 36 152 107 152h65v60c0 56 -8 76 -36 76s-36 -20 -36 -76v-18h-100v27c0 111 43 162 136 162s136 -47 136 -156v-419zM198 164v103h-36c-28 0 -36 -30 -36 -86v-17c0 -56 8 -76 36 -76
s36 20 36 76zM220 732h65c-2 -53 -24 -95 -72 -95c-32 0 -54 19 -83 19c-11 0 -24 -1 -26 -20h-65c2 53 24 95 72 95c32 0 54 -19 83 -19c9 0 24 0 26 20z" />
    <glyph glyph-name="amacron.alt" horiz-adv-x="331" 
d="M298 0h-87l-8 46c-14 -29 -46 -54 -86 -54c-73 0 -91 63 -91 164v36c0 110 36 152 107 152h65v60c0 56 -8 76 -36 76s-36 -20 -36 -76v-18h-100v27c0 111 43 162 136 162s136 -47 136 -156v-419zM198 164v103h-36c-28 0 -36 -30 -36 -86v-17c0 -56 8 -76 36 -76
s36 20 36 76zM294 637h-262v81h262v-81z" />
    <glyph glyph-name="abreve.alt" horiz-adv-x="331" 
d="M298 0h-87l-8 46c-14 -29 -46 -54 -86 -54c-73 0 -91 63 -91 164v36c0 110 36 152 107 152h65v60c0 56 -8 76 -36 76s-36 -20 -36 -76v-18h-100v27c0 111 43 162 136 162s136 -47 136 -156v-419zM198 164v103h-36c-28 0 -36 -30 -36 -86v-17c0 -56 8 -76 36 -76
s36 20 36 76zM225 750h56c-2 -78 -39 -124 -117 -124s-116 46 -117 124h56c1 -27 14 -53 61 -53s59 26 61 53z" />
    <glyph glyph-name="aogonek.alt" horiz-adv-x="331" 
d="M312 -156l-35 -52c-76 4 -126 54 -126 111c0 34 18 69 60 94l-8 49c-14 -29 -45 -54 -89 -54c-70 0 -88 65 -88 164v36c0 110 36 152 107 152h65v60c0 56 -8 76 -36 76s-36 -20 -36 -76v-18h-100v27c0 112 43 162 137 162c92 0 135 -48 135 -156v-419
c-38 -25 -58 -57 -58 -86c0 -31 23 -59 72 -70zM198 164v103h-36c-28 0 -36 -30 -36 -86v-17c0 -56 8 -76 36 -76s36 20 36 76z" />
    <glyph glyph-name="gcircumflex.alt" horiz-adv-x="337" 
d="M203 -36v73c-14 -21 -39 -45 -87 -45c-69 0 -85 49 -85 156v271c0 107 16 156 85 156c55 0 79 -32 92 -54l9 46h86v-615c0 -108 -43 -160 -136 -160s-136 53 -136 150v2h100c2 -36 8 -56 36 -56s36 20 36 76zM203 163v241c0 56 -8 76 -36 76s-36 -20 -36 -76v-241
c0 -56 8 -76 36 -76s36 20 36 76zM289 637h-78l-45 77l-40 -77h-81l75 141h90z" />
    <glyph glyph-name="gbreve.alt" horiz-adv-x="337" 
d="M203 -36v73c-14 -21 -39 -45 -87 -45c-69 0 -85 49 -85 156v271c0 107 16 156 85 156c55 0 79 -32 92 -54l9 46h86v-615c0 -108 -43 -160 -136 -160s-136 53 -136 150v2h100c2 -36 8 -56 36 -56s36 20 36 76zM203 163v241c0 56 -8 76 -36 76s-36 -20 -36 -76v-241
c0 -56 8 -76 36 -76s36 20 36 76zM229 750h56c-2 -78 -39 -124 -117 -124s-116 46 -117 124h56c1 -27 14 -53 61 -53s59 26 61 53z" />
    <glyph glyph-name="gdotaccent.alt" horiz-adv-x="337" 
d="M203 -36v73c-14 -21 -39 -45 -87 -45c-69 0 -85 49 -85 156v271c0 107 16 156 85 156c55 0 79 -32 92 -54l9 46h86v-615c0 -108 -43 -160 -136 -160s-136 53 -136 150v2h100c2 -36 8 -56 36 -56s36 20 36 76zM203 163v241c0 56 -8 76 -36 76s-36 -20 -36 -76v-241
c0 -56 8 -76 36 -76s36 20 36 76zM168 632c-32 0 -60 26 -60 60c0 33 28 59 60 59c33 0 59 -26 59 -59c0 -34 -26 -60 -59 -60z" />
    <glyph glyph-name="gcommaaccent.alt" horiz-adv-x="337" 
d="M203 -36v73c-14 -21 -39 -45 -87 -45c-69 0 -85 49 -85 156v271c0 107 16 156 85 156c55 0 79 -32 92 -54l9 46h86v-615c0 -108 -43 -160 -136 -160s-136 53 -136 150v2h100c2 -36 8 -56 36 -56s36 20 36 76zM203 163v241c0 56 -8 76 -36 76s-36 -20 -36 -76v-241
c0 -56 8 -76 36 -76s36 20 36 76zM191 793h76l-53 -156h-106z" />
    <glyph glyph-name="eng.alt" 
d="M286 -199h-100c17 56 20 113 20 169v434c0 56 -8 76 -36 76s-36 -20 -36 -76v-404h-100v567h86l9 -46c13 22 37 54 92 54c69 0 85 -49 85 -156v-453c0 -55 -3 -110 -20 -165z" />
    <glyph glyph-name="ygrave.alt" 
d="M205 -36v73c-14 -21 -39 -45 -87 -45c-69 0 -85 49 -85 156v419h100v-404c0 -56 8 -76 36 -76s36 20 36 76v404h100v-615c0 -108 -43 -160 -136 -160s-136 53 -136 150v2h100c2 -36 8 -56 36 -56s36 20 36 76zM217 637h-73l-95 131h111z" />
    <glyph glyph-name="yacute.alt" 
d="M205 -36v73c-14 -21 -39 -45 -87 -45c-69 0 -85 49 -85 156v419h100v-404c0 -56 8 -76 36 -76s36 20 36 76v404h100v-615c0 -108 -43 -160 -136 -160s-136 53 -136 150v2h100c2 -36 8 -56 36 -56s36 20 36 76zM188 637h-73l57 131h111z" />
    <glyph glyph-name="ycircumflex.alt" 
d="M205 -36v73c-14 -21 -39 -45 -87 -45c-69 0 -85 49 -85 156v419h100v-404c0 -56 8 -76 36 -76s36 20 36 76v404h100v-615c0 -108 -43 -160 -136 -160s-136 53 -136 150v2h100c2 -36 8 -56 36 -56s36 20 36 76zM291 637h-78l-45 77l-40 -77h-81l75 141h90z" />
    <glyph glyph-name="ydieresis.alt" 
d="M205 -36v73c-14 -21 -39 -45 -87 -45c-69 0 -85 49 -85 156v419h100v-404c0 -56 8 -76 36 -76s36 20 36 76v404h100v-615c0 -108 -43 -160 -136 -160s-136 53 -136 150v2h100c2 -36 8 -56 36 -56s36 20 36 76zM85 627c-32 0 -60 26 -60 60c0 33 28 59 60 59
c33 0 59 -26 59 -59c0 -34 -26 -60 -59 -60zM255 627c-32 0 -59 26 -59 60c0 33 27 59 59 59c34 0 60 -26 60 -59c0 -34 -26 -60 -60 -60z" />
    <glyph glyph-name="Kappa.alt" horiz-adv-x="370" 
d="M366 0h-102c-7 128 -54 255 -121 383c61 128 101 255 102 383h102c0 -127 -37 -253 -96 -380c65 -129 110 -257 115 -386zM142 0h-102v766h102v-766z" />
    <glyph glyph-name="alpha.alt" horiz-adv-x="335" 
d="M302 0h-86l-9 46c-13 -22 -37 -54 -92 -54c-69 0 -85 49 -85 156v267c0 109 43 160 137 160c92 0 135 -49 135 -160v-415zM202 163v241c0 56 -8 76 -36 76s-36 -20 -36 -76v-241c0 -56 8 -76 36 -76s36 20 36 76z" />
    <glyph glyph-name="gamma.alt" horiz-adv-x="332" 
d="M231 -198h-100l4 194l-73 408c-9 53 -19 71 -38 71c-4 0 -7 -1 -11 -2l-15 91c22 5 41 7 57 7c60 0 83 -34 92 -110l34 -296l46 402h104l-104 -571z" />
    <glyph glyph-name="eta.alt" 
d="M306 -199h-100v603c0 56 -8 76 -36 76s-36 -20 -36 -76v-404h-100v567h86l9 -46c13 22 37 54 92 54c69 0 85 -49 85 -156v-618z" />
    <glyph glyph-name="kappa.alt" horiz-adv-x="332" 
d="M318 0h-101c0 97 -28 193 -82 290c54 92 82 185 82 277h102c0 -91 -25 -183 -78 -274c52 -98 77 -195 77 -293zM134 0h-100v567h100v-567z" />
    <glyph glyph-name="alphatonos.alt" horiz-adv-x="335" 
d="M302 0h-86l-9 46c-13 -22 -37 -54 -92 -54c-69 0 -85 49 -85 156v267c0 109 43 160 137 160c92 0 135 -49 135 -160v-415zM202 163v241c0 56 -8 76 -36 76s-36 -20 -36 -76v-241c0 -56 8 -76 36 -76s36 20 36 76zM176 637h-73l57 131h111z" />
    <glyph glyph-name="etatonos.alt" 
d="M306 -199h-100v603c0 56 -8 76 -36 76s-36 -20 -36 -76v-404h-100v567h86l9 -46c13 22 37 54 92 54c69 0 85 -49 85 -156v-618zM185 637h-73l57 131h111z" />
    <glyph glyph-name="uni042F.alt" horiz-adv-x="383" 
d="M241 412v257h-51c-38 0 -56 -20 -56 -76v-105c0 -56 18 -76 56 -76h51zM343 0h-102v315h-41c-38 0 -66 -20 -66 -76v-239h-102v242c0 57 16 107 73 123c-53 21 -73 64 -73 116v125c0 111 62 160 139 160h172v-766z" />
    <glyph glyph-name="uni0408.alt" horiz-adv-x="207" 
d="M11 -12h-4v97h4c28 0 56 20 56 76v605h102v-618c0 -115 -73 -160 -158 -160z" />
    <glyph glyph-name="uni0430.alt" horiz-adv-x="331" 
d="M298 0h-87l-8 46c-14 -29 -46 -54 -86 -54c-73 0 -91 63 -91 164v36c0 110 36 152 107 152h65v60c0 56 -8 76 -36 76s-36 -20 -36 -76v-18h-100v27c0 111 43 162 136 162s136 -47 136 -156v-419zM198 164v103h-36c-28 0 -36 -30 -36 -86v-17c0 -56 8 -76 36 -76
s36 20 36 76z" />
    <glyph glyph-name="uni044F.alt" horiz-adv-x="341" 
d="M307 0h-100v221h-29c-29 0 -50 -14 -50 -56v-165h-100v170c0 56 20 83 66 100c-50 16 -66 58 -66 96v83c0 82 40 118 116 118h163v-567zM207 315v157h-37c-29 0 -42 -14 -42 -56v-45c0 -41 13 -56 42 -56h37z" />
    <glyph glyph-name="uni0458.alt" horiz-adv-x="168" 
d="M114 -199h-100c17 56 20 113 20 169v597h100v-601c0 -55 -3 -110 -20 -165zM84 625c-35 0 -63 28 -63 63s28 63 63 63s63 -28 63 -63s-28 -63 -63 -63z" />
    <glyph glyph-name="uni0452.alt" 
d="M286 -199h-100c17 56 20 113 20 169v434c0 56 -8 76 -36 76s-36 -20 -36 -76v-404h-100v642h-34v71h34v53h100v-53h115v-71h-115v-115c13 20 33 48 86 48c70 0 86 -48 86 -156v-453c0 -55 -3 -110 -20 -165z" />
    <glyph glyph-name="dollar.alt" horiz-adv-x="326" 
d="M219 0h-100v104c-67 14 -97 65 -97 154v37h100v-24c0 -50 10 -76 42 -76c30 0 40 22 40 50c0 122 -182 105 -182 292c0 78 31 127 97 141v89h100v-91c58 -16 85 -65 85 -153v-37h-100v26c0 55 -8 76 -40 76c-35 0 -41 -25 -41 -51c0 -136 181 -100 181 -291
c0 -73 -26 -121 -85 -139v-107z" />
    <glyph glyph-name="sterling.alt" horiz-adv-x="417" 
d="M390 0h-369v102h55v212h-55v96h55v202c0 133 80 167 162 167s154 -34 154 -167v-44h-102v38c0 56 -28 76 -56 76s-56 -20 -56 -76v-196h185v-96h-185v-212h212v-102z" />
    <glyph glyph-name="registered.alt" horiz-adv-x="697" 
d="M347 -8c-228 0 -325 146 -325 388c0 244 98 391 326 391c227 0 327 -147 327 -390c0 -242 -99 -389 -328 -389zM350 77c163 0 238 99 238 303c0 207 -77 307 -241 307c-167 0 -238 -104 -238 -303c0 -212 81 -307 241 -307zM492 152h-92l-46 160h-27v-159h-90v467h156
c53 0 98 -31 98 -110v-88c0 -57 -21 -89 -52 -102zM400 450v30c0 39 -12 53 -38 53h-35v-135h35c26 0 38 14 38 52z" />
    <glyph glyph-name="A.uni" horiz-adv-x="384" 
d="M346 0h-92l-5 48c-23 -41 -56 -61 -107 -61c-69 0 -113 37 -113 130v174c0 93 44 130 113 130c47 0 79 -18 102 -53v238c0 56 -28 76 -56 76s-56 -20 -56 -76v-106h-102v126c0 115 74 153 154 153c90 0 162 -47 162 -160v-619zM243 169v70c0 64 -26 86 -59 86
c-25 0 -53 -12 -53 -86v-70c0 -74 28 -86 53 -86c33 0 59 22 59 86z" />
    <glyph glyph-name="E.uni" horiz-adv-x="391" 
d="M361 256v-109c0 -112 -67 -160 -162 -160c-94 0 -164 47 -164 160v472c0 113 73 160 164 160c89 0 162 -45 162 -160v-260h-224v-199c0 -56 28 -76 61 -76s61 20 61 76v96h102zM259 456v150c0 56 -28 76 -61 76s-61 -20 -61 -76v-150h122z" />
    <glyph glyph-name="M.uni" horiz-adv-x="609" 
d="M571 0h-102v597c0 74 -28 86 -52 86c-33 0 -60 -22 -60 -79v-604h-102v597c0 74 -28 86 -53 86c-33 0 -59 -22 -59 -86v-597h-103v766h92l5 -48c23 41 56 61 107 61c50 0 87 -20 104 -67c24 47 62 67 111 67c67 0 112 -37 112 -130v-649z" />
    <glyph glyph-name="N.uni" horiz-adv-x="395" 
d="M357 0h-102v597c0 74 -28 86 -53 86c-33 0 -59 -22 -59 -86v-597h-103v766h92l5 -48c23 41 56 61 107 61c69 0 113 -37 113 -130v-649z" />
    <glyph glyph-name="U.uni" horiz-adv-x="395" 
d="M355 0h-92l-5 48c-23 -41 -56 -61 -107 -61c-69 0 -113 37 -113 130v649h102v-597c0 -74 28 -86 53 -86c33 0 59 22 59 86v597h103v-766z" />
    <glyph glyph-name="Agrave.uni" horiz-adv-x="384" 
d="M346 0h-92l-5 48c-23 -41 -56 -61 -107 -61c-69 0 -113 37 -113 130v174c0 93 44 130 113 130c47 0 79 -18 102 -53v238c0 56 -28 76 -56 76s-56 -20 -56 -76v-106h-102v126c0 115 74 153 154 153c90 0 162 -47 162 -160v-619zM243 169v70c0 64 -26 86 -59 86
c-25 0 -53 -12 -53 -86v-70c0 -74 28 -86 53 -86c33 0 59 22 59 86zM236 836h-73l-95 131h111z" />
    <glyph glyph-name="Aacute.uni" horiz-adv-x="384" 
d="M346 0h-92l-5 48c-23 -41 -56 -61 -107 -61c-69 0 -113 37 -113 130v174c0 93 44 130 113 130c47 0 79 -18 102 -53v238c0 56 -28 76 -56 76s-56 -20 -56 -76v-106h-102v126c0 115 74 153 154 153c90 0 162 -47 162 -160v-619zM243 169v70c0 64 -26 86 -59 86
c-25 0 -53 -12 -53 -86v-70c0 -74 28 -86 53 -86c33 0 59 22 59 86zM216 836h-73l57 131h111z" />
    <glyph glyph-name="Acircumflex.uni" horiz-adv-x="384" 
d="M346 0h-92l-5 48c-23 -41 -56 -61 -107 -61c-69 0 -113 37 -113 130v174c0 93 44 130 113 130c47 0 79 -18 102 -53v238c0 56 -28 76 -56 76s-56 -20 -56 -76v-106h-102v126c0 115 74 153 154 153c90 0 162 -47 162 -160v-619zM243 169v70c0 64 -26 86 -59 86
c-25 0 -53 -12 -53 -86v-70c0 -74 28 -86 53 -86c33 0 59 22 59 86zM309 836h-78l-45 77l-40 -77h-81l75 141h90z" />
    <glyph glyph-name="Adieresis.uni" horiz-adv-x="384" 
d="M346 0h-92l-5 48c-23 -41 -56 -61 -107 -61c-69 0 -113 37 -113 130v174c0 93 44 130 113 130c47 0 79 -18 102 -53v238c0 56 -28 76 -56 76s-56 -20 -56 -76v-106h-102v126c0 115 74 153 154 153c90 0 162 -47 162 -160v-619zM243 169v70c0 64 -26 86 -59 86
c-25 0 -53 -12 -53 -86v-70c0 -74 28 -86 53 -86c33 0 59 22 59 86zM102 826c-32 0 -60 26 -60 60c0 33 28 59 60 59c33 0 59 -26 59 -59c0 -34 -26 -60 -59 -60zM272 826c-32 0 -59 26 -59 60c0 33 27 59 59 59c34 0 60 -26 60 -59c0 -34 -26 -60 -60 -60z" />
    <glyph glyph-name="Atilde.uni" horiz-adv-x="384" 
d="M346 0h-92l-5 48c-23 -41 -56 -61 -107 -61c-69 0 -113 37 -113 130v174c0 93 44 130 113 130c47 0 79 -18 102 -53v238c0 56 -28 76 -56 76s-56 -20 -56 -76v-106h-102v126c0 115 74 153 154 153c90 0 162 -47 162 -160v-619zM243 169v70c0 64 -26 86 -59 86
c-25 0 -53 -12 -53 -86v-70c0 -74 28 -86 53 -86c33 0 59 22 59 86zM245 931h65c-2 -53 -24 -95 -72 -95c-32 0 -54 19 -83 19c-11 0 -24 -1 -26 -20h-65c2 53 24 95 72 95c32 0 54 -19 83 -19c9 0 24 0 26 20z" />
    <glyph glyph-name="Amacron.uni" horiz-adv-x="384" 
d="M346 0h-92l-5 48c-23 -41 -56 -61 -107 -61c-69 0 -113 37 -113 130v174c0 93 44 130 113 130c47 0 79 -18 102 -53v238c0 56 -28 76 -56 76s-56 -20 -56 -76v-106h-102v126c0 115 74 153 154 153c90 0 162 -47 162 -160v-619zM243 169v70c0 64 -26 86 -59 86
c-25 0 -53 -12 -53 -86v-70c0 -74 28 -86 53 -86c33 0 59 22 59 86zM318 836h-262v81h262v-81z" />
    <glyph glyph-name="Abreve.uni" horiz-adv-x="384" 
d="M346 0h-92l-5 48c-23 -41 -56 -61 -107 -61c-69 0 -113 37 -113 130v174c0 93 44 130 113 130c47 0 79 -18 102 -53v238c0 56 -28 76 -56 76s-56 -20 -56 -76v-106h-102v126c0 115 74 153 154 153c90 0 162 -47 162 -160v-619zM243 169v70c0 64 -26 86 -59 86
c-25 0 -53 -12 -53 -86v-70c0 -74 28 -86 53 -86c33 0 59 22 59 86zM248 949h56c-2 -78 -39 -124 -117 -124s-116 46 -117 124h56c1 -27 14 -53 61 -53s59 26 61 53z" />
    <glyph glyph-name="Aring.uni" horiz-adv-x="384" 
d="M346 0h-92l-5 48c-23 -41 -56 -61 -107 -61c-69 0 -113 37 -113 130v174c0 93 44 130 113 130c47 0 79 -18 102 -53v238c0 56 -28 76 -56 76s-56 -20 -56 -76v-106h-102v126c0 115 74 153 154 153c90 0 162 -47 162 -160v-619zM243 169v70c0 64 -26 86 -59 86
c-25 0 -53 -12 -53 -86v-70c0 -74 28 -86 53 -86c33 0 59 22 59 86zM218 902c0 18 -13 31 -31 31s-31 -13 -31 -31s13 -31 31 -31s31 13 31 31zM187 815c-49 0 -87 38 -87 87s38 87 87 87s87 -38 87 -87s-38 -87 -87 -87z" />
    <glyph glyph-name="Aogonek.uni" horiz-adv-x="384" 
d="M360 -156l-35 -52c-76 4 -126 54 -126 110c0 34 17 68 56 93l-6 53c-23 -41 -56 -61 -107 -61c-69 0 -113 37 -113 130v174c0 93 44 130 113 130c47 0 79 -18 102 -53v238c0 56 -28 76 -56 76s-56 -20 -56 -76v-106h-102v126c0 115 74 153 154 153c90 0 162 -47 162 -160
v-619c-38 -25 -58 -57 -58 -86c0 -31 23 -59 72 -70zM243 169v70c0 64 -26 86 -59 86c-25 0 -53 -12 -53 -86v-70c0 -74 28 -86 53 -86c33 0 59 22 59 86z" />
    <glyph glyph-name="AE.uni" horiz-adv-x="600" 
d="M570 256v-109c0 -112 -67 -160 -162 -160c-67 0 -121 23 -147 77c-33 -60 -72 -77 -119 -77c-69 0 -113 37 -113 130v174c0 93 44 130 113 130c47 0 79 -18 102 -53v238c0 56 -28 76 -56 76s-56 -20 -56 -76v-106h-102v126c0 115 74 153 154 153c43 0 82 -11 111 -45
c30 34 69 45 113 45c89 0 162 -45 162 -160v-260h-224v-199c0 -56 28 -76 61 -76s61 20 61 76v96h102zM468 456v150c0 56 -28 76 -61 76c-32 0 -61 -18 -61 -68v-158h122zM243 169v70c0 64 -26 86 -59 86c-25 0 -53 -12 -53 -86v-70c0 -74 28 -86 53 -86c33 0 59 22 59 86z
" />
    <glyph glyph-name="AEacute.uni" horiz-adv-x="600" 
d="M322 836h-73l57 131h111zM570 256v-109c0 -112 -67 -160 -162 -160c-67 0 -121 23 -147 77c-33 -60 -72 -77 -119 -77c-69 0 -113 37 -113 130v174c0 93 44 130 113 130c47 0 79 -18 102 -53v238c0 56 -28 76 -56 76s-56 -20 -56 -76v-106h-102v126c0 115 74 153 154 153
c43 0 82 -11 111 -45c30 34 69 45 113 45c89 0 162 -45 162 -160v-260h-224v-199c0 -56 28 -76 61 -76s61 20 61 76v96h102zM468 456v150c0 56 -28 76 -61 76c-32 0 -61 -18 -61 -68v-158h122zM243 169v70c0 64 -26 86 -59 86c-25 0 -53 -12 -53 -86v-70
c0 -74 28 -86 53 -86c33 0 59 22 59 86z" />
    <glyph glyph-name="Egrave.uni" horiz-adv-x="391" 
d="M361 256v-109c0 -112 -67 -160 -162 -160c-94 0 -164 47 -164 160v472c0 113 73 160 164 160c89 0 162 -45 162 -160v-260h-224v-199c0 -56 28 -76 61 -76s61 20 61 76v96h102zM259 456v150c0 56 -28 76 -61 76s-61 -20 -61 -76v-150h122zM247 836h-73l-95 131h111z" />
    <glyph glyph-name="Eacute.uni" horiz-adv-x="391" 
d="M361 256v-109c0 -112 -67 -160 -162 -160c-94 0 -164 47 -164 160v472c0 113 73 160 164 160c89 0 162 -45 162 -160v-260h-224v-199c0 -56 28 -76 61 -76s61 20 61 76v96h102zM259 456v150c0 56 -28 76 -61 76s-61 -20 -61 -76v-150h122zM222 836h-73l57 131h111z" />
    <glyph glyph-name="Ecircumflex.uni" horiz-adv-x="391" 
d="M361 256v-109c0 -112 -67 -160 -162 -160c-94 0 -164 47 -164 160v472c0 113 73 160 164 160c89 0 162 -45 162 -160v-260h-224v-199c0 -56 28 -76 61 -76s61 20 61 76v96h102zM259 456v150c0 56 -28 76 -61 76s-61 -20 -61 -76v-150h122zM320 836h-78l-45 77l-40 -77
h-81l75 141h90z" />
    <glyph glyph-name="Edieresis.uni" horiz-adv-x="391" 
d="M361 256v-109c0 -112 -67 -160 -162 -160c-94 0 -164 47 -164 160v472c0 113 73 160 164 160c89 0 162 -45 162 -160v-260h-224v-199c0 -56 28 -76 61 -76s61 20 61 76v96h102zM259 456v150c0 56 -28 76 -61 76s-61 -20 -61 -76v-150h122zM113 826c-32 0 -60 26 -60 60
c0 33 28 59 60 59c33 0 59 -26 59 -59c0 -34 -26 -60 -59 -60zM283 826c-32 0 -59 26 -59 60c0 33 27 59 59 59c34 0 60 -26 60 -59c0 -34 -26 -60 -60 -60z" />
    <glyph glyph-name="Emacron.uni" horiz-adv-x="391" 
d="M361 256v-109c0 -112 -67 -160 -162 -160c-94 0 -164 47 -164 160v472c0 113 73 160 164 160c89 0 162 -45 162 -160v-260h-224v-199c0 -56 28 -76 61 -76s61 20 61 76v96h102zM259 456v150c0 56 -28 76 -61 76s-61 -20 -61 -76v-150h122zM329 836h-262v81h262v-81z" />
    <glyph glyph-name="Ebreve.uni" horiz-adv-x="391" 
d="M361 256v-109c0 -112 -67 -160 -162 -160c-94 0 -164 47 -164 160v472c0 113 73 160 164 160c89 0 162 -45 162 -160v-260h-224v-199c0 -56 28 -76 61 -76s61 20 61 76v96h102zM259 456v150c0 56 -28 76 -61 76s-61 -20 -61 -76v-150h122zM259 949h56
c-2 -78 -39 -124 -117 -124s-116 46 -117 124h56c1 -27 14 -53 61 -53s59 26 61 53z" />
    <glyph glyph-name="Edotaccent.uni" horiz-adv-x="391" 
d="M361 256v-109c0 -112 -67 -160 -162 -160c-94 0 -164 47 -164 160v472c0 113 73 160 164 160c89 0 162 -45 162 -160v-260h-224v-199c0 -56 28 -76 61 -76s61 20 61 76v96h102zM259 456v150c0 56 -28 76 -61 76s-61 -20 -61 -76v-150h122zM199 831c-32 0 -60 26 -60 60
c0 33 28 59 60 59c33 0 59 -26 59 -59c0 -34 -26 -60 -59 -60z" />
    <glyph glyph-name="Eogonek.uni" horiz-adv-x="391" 
d="M306 -147l-35 -52c-76 4 -126 54 -126 110c0 27 11 55 35 77c-84 6 -145 53 -145 159v472c0 113 73 160 164 160c89 0 162 -45 162 -160v-260h-224v-199c0 -56 28 -76 61 -76s61 20 61 76v96h102v-109c0 -94 -48 -125 -75 -142c-45 -29 -52 -58 -52 -78
c0 -39 25 -63 72 -74zM259 456v150c0 56 -28 76 -61 76s-61 -20 -61 -76v-150h122z" />
    <glyph glyph-name="Ecaron.uni" horiz-adv-x="391" 
d="M361 256v-109c0 -112 -67 -160 -162 -160c-94 0 -164 47 -164 160v472c0 113 73 160 164 160c89 0 162 -45 162 -160v-260h-224v-199c0 -56 28 -76 61 -76s61 20 61 76v96h102zM259 456v150c0 56 -28 76 -61 76s-61 -20 -61 -76v-150h122zM245 836h-90l-79 141h78l45 -77
l40 77h81z" />
    <glyph glyph-name="uni1E40.uni" horiz-adv-x="609" 
d="M309 831c-32 0 -60 26 -60 60c0 33 28 59 60 59c33 0 59 -26 59 -59c0 -34 -26 -60 -59 -60zM571 0h-102v597c0 74 -28 86 -52 86c-33 0 -60 -22 -60 -79v-604h-102v597c0 74 -28 86 -53 86c-33 0 -59 -22 -59 -86v-597h-103v766h92l5 -48c23 41 56 61 107 61
c50 0 87 -20 104 -67c24 47 62 67 111 67c67 0 112 -37 112 -130v-649z" />
    <glyph glyph-name="Ntilde.uni" horiz-adv-x="395" 
d="M357 0h-102v597c0 74 -28 86 -53 86c-33 0 -59 -22 -59 -86v-597h-103v766h92l5 -48c23 41 56 61 107 61c69 0 113 -37 113 -130v-649zM261 931h65c-2 -53 -24 -95 -72 -95c-32 0 -54 19 -83 19c-11 0 -24 -1 -26 -20h-65c2 53 24 95 72 95c32 0 54 -19 83 -19
c9 0 24 0 26 20z" />
    <glyph glyph-name="Nacute.uni" horiz-adv-x="395" 
d="M357 0h-102v597c0 74 -28 86 -53 86c-33 0 -59 -22 -59 -86v-597h-103v766h92l5 -48c23 41 56 61 107 61c69 0 113 -37 113 -130v-649zM214 836h-73l57 131h111z" />
    <glyph glyph-name="Ncaron.uni" horiz-adv-x="395" 
d="M357 0h-102v597c0 74 -28 86 -53 86c-33 0 -59 -22 -59 -86v-597h-103v766h92l5 -48c23 41 56 61 107 61c69 0 113 -37 113 -130v-649zM246 836h-90l-79 141h78l45 -77l40 77h81z" />
    <glyph glyph-name="Ncommaaccent.uni" horiz-adv-x="395" 
d="M357 0h-102v597c0 74 -28 86 -53 86c-33 0 -59 -22 -59 -86v-597h-103v766h92l5 -48c23 41 56 61 107 61c69 0 113 -37 113 -130v-649zM193 -206h-76l53 156h106z" />
    <glyph glyph-name="Eng.uni" horiz-adv-x="395" 
d="M199 -192h-3v97h3c28 0 56 20 56 76v616c0 74 -28 86 -53 86c-33 0 -59 -22 -59 -86v-597h-103v766h92l5 -48c23 41 56 61 107 61c69 0 113 -37 113 -130v-681c0 -115 -73 -160 -158 -160z" />
    <glyph glyph-name="OE.uni" horiz-adv-x="605" 
d="M575 256v-109c0 -112 -67 -160 -162 -160c-45 0 -84 11 -113 43c-28 -33 -66 -43 -106 -43c-86 0 -159 47 -159 160v472c0 113 70 160 164 160c43 0 79 -10 105 -42c29 32 67 42 109 42c89 0 162 -45 162 -160v-260h-224v-207c0 -50 29 -68 61 -68c33 0 61 20 61 76v96
h102zM249 152v462c0 50 -30 68 -56 68c-28 0 -56 -20 -56 -76v-446c0 -56 28 -76 56 -76c26 0 56 18 56 68zM473 456v150c0 56 -28 76 -61 76c-32 0 -61 -18 -61 -68v-158h122z" />
    <glyph glyph-name="Ugrave.uni" horiz-adv-x="395" 
d="M355 0h-92l-5 48c-23 -41 -56 -61 -107 -61c-69 0 -113 37 -113 130v649h102v-597c0 -74 28 -86 53 -86c33 0 59 22 59 86v597h103v-766zM242 836h-73l-95 131h111z" />
    <glyph glyph-name="Uacute.uni" horiz-adv-x="395" 
d="M355 0h-92l-5 48c-23 -41 -56 -61 -107 -61c-69 0 -113 37 -113 130v649h102v-597c0 -74 28 -86 53 -86c33 0 59 22 59 86v597h103v-766zM226 836h-73l57 131h111z" />
    <glyph glyph-name="Ucircumflex.uni" horiz-adv-x="395" 
d="M355 0h-92l-5 48c-23 -41 -56 -61 -107 -61c-69 0 -113 37 -113 130v649h102v-597c0 -74 28 -86 53 -86c33 0 59 22 59 86v597h103v-766zM308 836h-78l-45 77l-40 -77h-81l75 141h90z" />
    <glyph glyph-name="Udieresis.uni" horiz-adv-x="395" 
d="M355 0h-92l-5 48c-23 -41 -56 -61 -107 -61c-69 0 -113 37 -113 130v649h102v-597c0 -74 28 -86 53 -86c33 0 59 22 59 86v597h103v-766zM111 826c-32 0 -60 26 -60 60c0 33 28 59 60 59c33 0 59 -26 59 -59c0 -34 -26 -60 -59 -60zM281 826c-32 0 -59 26 -59 60
c0 33 27 59 59 59c34 0 60 -26 60 -59c0 -34 -26 -60 -60 -60z" />
    <glyph glyph-name="Utilde.uni" horiz-adv-x="395" 
d="M355 0h-92l-5 48c-23 -41 -56 -61 -107 -61c-69 0 -113 37 -113 130v649h102v-597c0 -74 28 -86 53 -86c33 0 59 22 59 86v597h103v-766zM254 931h65c-2 -53 -24 -95 -72 -95c-32 0 -54 19 -83 19c-11 0 -24 -1 -26 -20h-65c2 53 24 95 72 95c32 0 54 -19 83 -19
c9 0 24 0 26 20z" />
    <glyph glyph-name="Umacron.uni" horiz-adv-x="395" 
d="M355 0h-92l-5 48c-23 -41 -56 -61 -107 -61c-69 0 -113 37 -113 130v649h102v-597c0 -74 28 -86 53 -86c33 0 59 22 59 86v597h103v-766zM327 836h-262v81h262v-81z" />
    <glyph glyph-name="Ubreve.uni" horiz-adv-x="395" 
d="M355 0h-92l-5 48c-23 -41 -56 -61 -107 -61c-69 0 -113 37 -113 130v649h102v-597c0 -74 28 -86 53 -86c33 0 59 22 59 86v597h103v-766zM257 949h56c-2 -78 -39 -124 -117 -124s-116 46 -117 124h56c1 -27 14 -53 61 -53s59 26 61 53z" />
    <glyph glyph-name="Uring.uni" horiz-adv-x="395" 
d="M355 0h-92l-5 48c-23 -41 -56 -61 -107 -61c-69 0 -113 37 -113 130v649h102v-597c0 -74 28 -86 53 -86c33 0 59 22 59 86v597h103v-766zM227 902c0 18 -13 31 -31 31s-31 -13 -31 -31s13 -31 31 -31s31 13 31 31zM196 815c-49 0 -87 38 -87 87s38 87 87 87
s87 -38 87 -87s-38 -87 -87 -87z" />
    <glyph glyph-name="Uhungarumlaut.uni" horiz-adv-x="395" 
d="M355 0h-92l-5 48c-23 -41 -56 -61 -107 -61c-69 0 -113 37 -113 130v649h102v-597c0 -74 28 -86 53 -86c33 0 59 22 59 86v597h103v-766zM158 836h-83l44 135h101zM295 836h-83l44 135h101z" />
    <glyph glyph-name="Uogonek.uni" horiz-adv-x="395" 
d="M369 -156l-35 -52c-76 4 -126 54 -126 110c0 34 17 68 55 92l-5 54c-23 -41 -56 -61 -107 -61c-69 0 -113 37 -113 130v649h102v-597c0 -74 28 -86 53 -86c33 0 59 22 59 86v597h103v-766c-38 -25 -58 -57 -58 -86c0 -31 23 -59 72 -70z" />
    <glyph glyph-name="a.sc" horiz-adv-x="332" 
d="M327 0h-101l-14 122h-90l-15 -122h-101l80 597h160zM200 219l-34 283l-34 -283h68z" />
    <glyph glyph-name="b.sc" horiz-adv-x="351" 
d="M218 0h-183v597h171c69 0 114 -44 114 -125v-76c0 -40 -17 -70 -56 -90c50 -24 64 -51 64 -96v-85c0 -75 -40 -125 -110 -125zM219 412v31c0 43 -14 60 -43 60h-40v-151h40c29 0 43 16 43 60zM227 154v45c0 43 -22 59 -51 59h-40v-164h48c29 0 43 16 43 60z" />
    <glyph glyph-name="c.sc" horiz-adv-x="345" 
d="M132 451v-304c0 -42 20 -60 44 -60s44 18 44 60v53h101v-85c0 -100 -75 -125 -145 -125c-53 0 -145 25 -145 125v368c0 100 92 125 145 125c70 0 145 -25 145 -125v-94h-101v62c0 42 -20 60 -44 60s-44 -18 -44 -60z" />
    <glyph glyph-name="d.sc" horiz-adv-x="352" 
d="M210 0h-175v597h175c70 0 110 -45 110 -124v-348c0 -79 -40 -125 -110 -125zM219 154v290c0 43 -14 59 -43 59h-40v-409h40c29 0 43 16 43 60z" />
    <glyph glyph-name="e.sc" horiz-adv-x="311" 
d="M286 0h-251v597h251v-94h-150v-154h145v-94h-145v-161h150v-94z" />
    <glyph glyph-name="f.sc" horiz-adv-x="307" 
d="M136 0h-101v597h251v-94h-150v-154h145v-94h-145v-255z" />
    <glyph glyph-name="g.sc" horiz-adv-x="350" 
d="M222 146v73h-53v95h154v-206c0 -83 -69 -118 -147 -118c-81 0 -150 42 -150 122v371c0 79 65 125 150 125c86 0 147 -40 147 -118v-99h-101v60c0 46 -23 60 -47 60c-25 0 -48 -14 -48 -60v-305c0 -45 23 -59 48 -59c24 0 47 14 47 59z" />
    <glyph glyph-name="h.sc" horiz-adv-x="359" 
d="M324 0h-101v252h-87v-252h-101v597h101v-251h87v251h101v-597z" />
    <glyph glyph-name="i.sc" horiz-adv-x="171" 
d="M136 0h-101v597h101v-597z" />
    <glyph glyph-name="j.sc" horiz-adv-x="171" 
d="M-9 -150h-3v97h3c22 0 44 16 44 60v590h101v-622c0 -79 -57 -125 -145 -125z" />
    <glyph glyph-name="k.sc" horiz-adv-x="344" 
d="M348 0h-101l-110 299l95 298h101l-91 -296zM136 0h-101v597h101v-597z" />
    <glyph glyph-name="l.sc" horiz-adv-x="251" 
d="M242 0h-207v597h101v-503h106v-94z" />
    <glyph glyph-name="m.sc" horiz-adv-x="535" 
d="M500 0h-101l1 419l-79 -419h-100l-85 416v-416h-101v597h166l67 -407l66 407h166v-597z" />
    <glyph glyph-name="n.sc" horiz-adv-x="416" 
d="M381 0h-141l-106 385l2 -385h-101v597h137l110 -392l-2 392h101v-597z" />
    <glyph glyph-name="o.sc" horiz-adv-x="352" 
d="M321 483v-368c0 -100 -75 -125 -145 -125c-53 0 -145 25 -145 125v368c0 100 92 125 145 125c70 0 145 -25 145 -125zM132 451v-304c0 -42 20 -60 44 -60s44 18 44 60v304c0 42 -20 60 -44 60s-44 -18 -44 -60z" />
    <glyph glyph-name="p.sc" horiz-adv-x="338" 
d="M35 597h171c69 0 114 -46 114 -125v-109c0 -79 -37 -125 -106 -125h-78v-238h-101v597zM219 392v51c0 44 -14 60 -44 60h-39v-170h39c30 0 44 15 44 59z" />
    <glyph glyph-name="q.sc" horiz-adv-x="347" 
d="M284 -83l-82 -33l-47 107c-58 3 -129 38 -129 124v368c0 79 62 125 146 125c92 0 144 -43 144 -125v-368c0 -49 -18 -80 -75 -106zM215 146v305c0 46 -24 60 -44 60c-21 0 -44 -14 -44 -60v-305c0 -45 23 -59 44 -59c20 0 44 14 44 59z" />
    <glyph glyph-name="r.sc" horiz-adv-x="344" 
d="M136 0h-101v597h172c69 0 113 -45 113 -124v-101c0 -54 -14 -87 -57 -111l73 -261h-101l-68 236h-31v-236zM136 503v-170h40c29 0 43 16 43 59v74c0 27 -21 37 -43 37h-40z" />
    <glyph glyph-name="s.sc" 
d="M314 196v-87c0 -86 -72 -119 -144 -119c-73 0 -145 34 -145 119v91h101v-54c0 -43 22 -59 44 -59c15 0 43 11 43 41v46c0 56 -188 118 -188 229v73c0 78 57 132 145 132c105 0 144 -52 144 -131v-88h-101v62c0 44 -21 60 -43 60c-16 0 -44 -12 -44 -41v-47
c0 -80 188 -116 188 -227z" />
    <glyph glyph-name="t.sc" horiz-adv-x="267" 
d="M184 0h-101v503h-74v94h249v-94h-74v-503z" />
    <glyph glyph-name="u.sc" horiz-adv-x="357" 
d="M222 146v451h101v-482c0 -83 -69 -125 -143 -125c-77 0 -146 45 -146 125v482h101v-451c0 -45 23 -59 44 -59c20 0 43 14 43 59z" />
    <glyph glyph-name="v.sc" horiz-adv-x="324" 
d="M315 597l-73 -597h-160l-73 597h101l53 -480l51 480h101z" />
    <glyph glyph-name="w.sc" horiz-adv-x="568" 
d="M558 597l-66 -597h-154l-55 504l-54 -504h-153l-66 597h101l44 -439l52 439h154l51 -439l45 439h101z" />
    <glyph glyph-name="x.sc" horiz-adv-x="342" 
d="M340 0h-101l-66 217l-73 -217h-101l111 307l-106 290h101l68 -196l63 196h102l-97 -290z" />
    <glyph glyph-name="y.sc" horiz-adv-x="325" 
d="M213 0h-102v197l-109 400h102l58 -257l60 257h102l-111 -399v-198z" />
    <glyph glyph-name="z.sc" horiz-adv-x="273" 
d="M254 0h-237v94l124 409h-117v94h230v-60l-133 -443h133v-94z" />
    <glyph glyph-name="ff.sc" horiz-adv-x="614" 
d="M136 0h-101v597h251v-94h-150v-154h145v-94h-145v-255zM443 0h-101v597h251v-94h-150v-154h145v-94h-145v-255z" />
    <glyph glyph-name="fi.sc" horiz-adv-x="478" 
d="M136 0h-101v597h251v-94h-150v-154h145v-94h-145v-255zM443 0h-101v597h101v-597z" />
    <glyph glyph-name="f_j.sc" horiz-adv-x="478" 
d="M136 0h-101v597h251v-94h-150v-154h145v-94h-145v-255zM298 -150h-3v97h3c22 0 44 16 44 60v590h101v-622c0 -79 -57 -125 -145 -125z" />
    <glyph glyph-name="fl.sc" horiz-adv-x="558" 
d="M136 0h-101v597h251v-94h-150v-154h145v-94h-145v-255zM549 0h-207v597h101v-503h106v-94z" />
    <glyph glyph-name="f_t.sc" horiz-adv-x="574" 
d="M136 0h-101v597h251v-94h-150v-154h145v-94h-145v-255zM491 0h-101v503h-74v94h249v-94h-74v-503z" />
    <glyph glyph-name="ffi.sc" horiz-adv-x="785" 
d="M136 0h-101v597h251v-94h-150v-154h145v-94h-145v-255zM443 0h-101v597h251v-94h-150v-154h145v-94h-145v-255zM750 0h-101v597h101v-597z" />
    <glyph glyph-name="ffl.sc" horiz-adv-x="865" 
d="M136 0h-101v597h251v-94h-150v-154h145v-94h-145v-255zM443 0h-101v597h251v-94h-150v-154h145v-94h-145v-255zM856 0h-207v597h101v-503h106v-94z" />
    <glyph glyph-name="germandbls.sc" horiz-adv-x="678" 
d="M314 196v-87c0 -86 -72 -119 -144 -119c-73 0 -145 34 -145 119v91h101v-54c0 -43 22 -59 44 -59c15 0 43 11 43 41v46c0 56 -188 118 -188 229v73c0 78 57 132 145 132c105 0 144 -52 144 -131v-88h-101v62c0 44 -21 60 -43 60c-16 0 -44 -12 -44 -41v-47
c0 -80 188 -116 188 -227zM653 196v-87c0 -86 -72 -119 -144 -119c-73 0 -145 34 -145 119v91h101v-54c0 -43 22 -59 44 -59c15 0 43 11 43 41v46c0 56 -188 118 -188 229v73c0 78 57 132 145 132c105 0 144 -52 144 -131v-88h-101v62c0 44 -21 60 -43 60
c-16 0 -44 -12 -44 -41v-47c0 -80 188 -116 188 -227z" />
    <glyph glyph-name="agrave.sc" horiz-adv-x="332" 
d="M203 649h-67l-92 118h108zM327 0h-101l-14 122h-90l-15 -122h-101l80 597h160zM200 219l-34 283l-34 -283h68z" />
    <glyph glyph-name="aacute.sc" horiz-adv-x="332" 
d="M186 649h-68l51 118h108zM327 0h-101l-14 122h-90l-15 -122h-101l80 597h160zM200 219l-34 283l-34 -283h68z" />
    <glyph glyph-name="acircumflex.sc" horiz-adv-x="332" 
d="M277 649h-74l-38 68l-33 -68h-77l68 132h81zM327 0h-101l-14 122h-90l-15 -122h-101l80 597h160zM200 219l-34 283l-34 -283h68z" />
    <glyph glyph-name="atilde.sc" horiz-adv-x="332" 
d="M221 741h55c0 -49 -15 -91 -61 -91c-28 0 -49 16 -77 16c-8 0 -24 2 -25 -18h-56c2 64 25 91 63 91c28 0 45 -17 75 -17c4 0 24 -7 26 19zM327 0h-101l-14 122h-90l-15 -122h-101l80 597h160zM200 219l-34 283l-34 -283h68z" />
    <glyph glyph-name="adieresis.sc" horiz-adv-x="332" 
d="M89 641c-29 0 -56 24 -56 56c0 31 27 55 56 55c30 0 55 -24 55 -55c0 -32 -25 -56 -55 -56zM242 641c-29 0 -54 24 -54 56c0 31 25 55 54 55c32 0 56 -24 56 -55c0 -32 -24 -56 -56 -56zM327 0h-101l-14 122h-90l-15 -122h-101l80 597h160zM200 219l-34 283l-34 -283h68z
" />
    <glyph glyph-name="aring.sc" horiz-adv-x="332" 
d="M188 719c0 13 -9 22 -22 22s-21 -9 -21 -22s8 -21 21 -21s22 8 22 21zM166 639c-45 0 -80 35 -80 80s35 80 80 80s80 -35 80 -80s-35 -80 -80 -80zM327 0h-101l-14 122h-90l-15 -122h-101l80 597h160zM200 219l-34 283l-34 -283h68z" />
    <glyph glyph-name="amacron.sc" horiz-adv-x="332" 
d="M285 649h-237v80h237v-80zM327 0h-101l-14 122h-90l-15 -122h-101l80 597h160zM200 219l-34 283l-34 -283h68z" />
    <glyph glyph-name="abreve.sc" horiz-adv-x="332" 
d="M218 754h53c-3 -71 -28 -116 -105 -116s-103 45 -104 116h52c2 -19 7 -44 52 -44s49 25 52 44zM327 0h-101l-14 122h-90l-15 -122h-101l80 597h160zM200 219l-34 283l-34 -283h68z" />
    <glyph glyph-name="aogonek.sc" horiz-adv-x="331" 
d="M349 -130l-35 -52c-68 2 -118 47 -118 99c0 24 11 49 31 69l-18 136h-88l-15 -122h-101l80 597h160l81 -597c-24 -26 -39 -49 -39 -69c0 -21 14 -51 62 -61zM199 219l-34 283l-34 -283h68z" />
    <glyph glyph-name="ae.sc" horiz-adv-x="496" 
d="M471 0h-251v122h-90l-32 -122h-100l156 597h317v-94h-150v-154h145v-94h-145v-161h150v-94zM220 226v248l-67 -248h67z" />
    <glyph glyph-name="aeacute.sc" horiz-adv-x="496" 
d="M319 649h-68l51 118h108zM471 0h-251v122h-90l-32 -122h-100l156 597h317v-94h-150v-154h145v-94h-145v-161h150v-94zM220 226v248l-67 -248h67z" />
    <glyph glyph-name="uni1E03.sc" horiz-adv-x="351" 
d="M172 648c-29 0 -56 24 -56 56c0 30 27 54 56 54c30 0 55 -24 55 -54c0 -32 -25 -56 -55 -56zM218 0h-183v597h171c69 0 114 -44 114 -125v-76c0 -40 -17 -70 -56 -90c50 -24 64 -51 64 -96v-85c0 -75 -40 -125 -110 -125zM219 412v31c0 43 -14 60 -43 60h-40v-151h40
c29 0 43 16 43 60zM227 154v45c0 43 -22 59 -51 59h-40v-164h48c29 0 43 16 43 60z" />
    <glyph glyph-name="ccedilla.sc" 
d="M105 -146l14 52c5 -3 15 -7 27 -7c19 0 31 13 31 26c0 12 -7 23 -33 23c-2 0 -5 0 -8 -1l11 45c-66 9 -121 52 -121 123v368c0 79 68 125 150 125c69 0 139 -34 139 -116v-103h-101v62c0 46 -23 60 -43 60c-21 0 -44 -14 -44 -60v-305c0 -45 23 -59 44 -59
c20 0 43 14 43 59v54h101v-85c0 -62 -43 -106 -96 -119l-10 -32c41 0 58 -29 58 -55c0 -32 -23 -68 -91 -68c-31 0 -59 7 -71 13z" />
    <glyph glyph-name="ccircumflex.sc" horiz-adv-x="345" 
d="M287 649h-74l-38 68l-33 -68h-77l68 132h81zM132 451v-304c0 -42 20 -60 44 -60s44 18 44 60v53h101v-85c0 -100 -75 -125 -145 -125c-53 0 -145 25 -145 125v368c0 100 92 125 145 125c70 0 145 -25 145 -125v-94h-101v62c0 42 -20 60 -44 60s-44 -18 -44 -60z" />
    <glyph glyph-name="cacute.sc" horiz-adv-x="345" 
d="M190 649h-68l51 118h108zM132 451v-304c0 -42 20 -60 44 -60s44 18 44 60v53h101v-85c0 -100 -75 -125 -145 -125c-53 0 -145 25 -145 125v368c0 100 92 125 145 125c70 0 145 -25 145 -125v-94h-101v62c0 42 -20 60 -44 60s-44 -18 -44 -60z" />
    <glyph glyph-name="cdotaccent.sc" horiz-adv-x="345" 
d="M176 648c-29 0 -56 24 -56 56c0 30 27 54 56 54c30 0 55 -24 55 -54c0 -32 -25 -56 -55 -56zM132 451v-304c0 -42 20 -60 44 -60s44 18 44 60v53h101v-85c0 -100 -75 -125 -145 -125c-53 0 -145 25 -145 125v368c0 100 92 125 145 125c70 0 145 -25 145 -125v-94h-101v62
c0 42 -20 60 -44 60s-44 -18 -44 -60z" />
    <glyph glyph-name="ccaron.sc" horiz-adv-x="345" 
d="M217 649h-81l-73 132h73l40 -68l31 68h78zM132 451v-304c0 -42 20 -60 44 -60s44 18 44 60v53h101v-85c0 -100 -75 -125 -145 -125c-53 0 -145 25 -145 125v368c0 100 92 125 145 125c70 0 145 -25 145 -125v-94h-101v62c0 42 -20 60 -44 60s-44 -18 -44 -60z" />
    <glyph glyph-name="dcaron.sc" horiz-adv-x="352" 
d="M210 649h-81l-73 132h73l40 -68l31 68h78zM210 0h-175v597h175c70 0 110 -45 110 -124v-348c0 -79 -40 -125 -110 -125zM219 154v290c0 43 -14 59 -43 59h-40v-409h40c29 0 43 16 43 60z" />
    <glyph glyph-name="dcroat.sc" horiz-adv-x="356" 
d="M215 0h-175v256h-39v92h39v249h175c70 0 110 -45 110 -124v-348c0 -79 -40 -125 -110 -125zM224 156v285c0 44 -14 59 -43 59h-40v-152h39v-92h-39v-159h40c29 0 43 16 43 59z" />
    <glyph glyph-name="uni1E0B.sc" horiz-adv-x="351" 
d="M170 648c-29 0 -56 24 -56 56c0 30 27 54 56 54c30 0 55 -24 55 -54c0 -32 -25 -56 -55 -56zM210 0h-175v597h175c70 0 110 -45 110 -124v-348c0 -79 -40 -125 -110 -125zM219 154v290c0 43 -14 59 -43 59h-40v-409h40c29 0 43 16 43 60z" />
    <glyph glyph-name="eth.sc" horiz-adv-x="356" 
d="M215 0h-175v256h-39v92h39v249h175c70 0 110 -45 110 -124v-348c0 -79 -40 -125 -110 -125zM224 156v285c0 44 -14 59 -43 59h-40v-152h39v-92h-39v-159h40c29 0 43 16 43 59z" />
    <glyph glyph-name="egrave.sc" horiz-adv-x="311" 
d="M221 649h-67l-92 118h108zM286 0h-251v597h251v-94h-150v-154h145v-94h-145v-161h150v-94z" />
    <glyph glyph-name="eacute.sc" horiz-adv-x="311" 
d="M177 649h-68l51 118h108zM286 0h-251v597h251v-94h-150v-154h145v-94h-145v-161h150v-94z" />
    <glyph glyph-name="ecircumflex.sc" horiz-adv-x="311" 
d="M268 649h-74l-38 68l-33 -68h-77l68 132h81zM286 0h-251v597h251v-94h-150v-154h145v-94h-145v-161h150v-94z" />
    <glyph glyph-name="edieresis.sc" horiz-adv-x="311" 
d="M84 641c-29 0 -56 24 -56 56c0 31 27 55 56 55c30 0 55 -24 55 -55c0 -32 -25 -56 -55 -56zM237 641c-29 0 -54 24 -54 56c0 31 25 55 54 55c32 0 56 -24 56 -55c0 -32 -24 -56 -56 -56zM286 0h-251v597h251v-94h-150v-154h145v-94h-145v-161h150v-94z" />
    <glyph glyph-name="emacron.sc" horiz-adv-x="311" 
d="M277 649h-237v80h237v-80zM286 0h-251v597h251v-94h-150v-154h145v-94h-145v-161h150v-94z" />
    <glyph glyph-name="ebreve.sc" horiz-adv-x="311" 
d="M216 754h53c-3 -71 -28 -116 -105 -116s-103 45 -104 116h52c2 -19 7 -44 52 -44s49 25 52 44zM286 0h-251v597h251v-94h-150v-154h145v-94h-145v-161h150v-94z" />
    <glyph glyph-name="edotaccent.sc" horiz-adv-x="311" 
d="M169 648c-29 0 -56 24 -56 56c0 30 27 54 56 54c30 0 55 -24 55 -54c0 -32 -25 -56 -55 -56zM286 0h-251v597h251v-94h-150v-154h145v-94h-145v-161h150v-94z" />
    <glyph glyph-name="eogonek.sc" horiz-adv-x="311" 
d="M273 -130l-35 -52c-67 2 -117 47 -117 99c0 30 17 61 51 83h-137v597h251v-94h-150v-154h145v-94h-145v-161h150v-94h-28c-35 -22 -46 -49 -46 -69c0 -21 13 -51 61 -61z" />
    <glyph glyph-name="ecaron.sc" horiz-adv-x="311" 
d="M206 649h-81l-73 132h73l40 -68l31 68h78zM286 0h-251v597h251v-94h-150v-154h145v-94h-145v-161h150v-94z" />
    <glyph glyph-name="uni1E1F.sc" horiz-adv-x="307" 
d="M166 648c-29 0 -56 24 -56 56c0 30 27 54 56 54c30 0 55 -24 55 -54c0 -32 -25 -56 -55 -56zM136 0h-101v597h251v-94h-150v-154h145v-94h-145v-255z" />
    <glyph glyph-name="gcircumflex.sc" horiz-adv-x="350" 
d="M286 649h-74l-38 68l-33 -68h-77l68 132h81zM222 146v73h-53v95h154v-206c0 -83 -69 -118 -147 -118c-81 0 -150 42 -150 122v371c0 79 65 125 150 125c86 0 147 -40 147 -118v-99h-101v60c0 46 -23 60 -47 60c-25 0 -48 -14 -48 -60v-305c0 -45 23 -59 48 -59
c24 0 47 14 47 59z" />
    <glyph glyph-name="gbreve.sc" horiz-adv-x="350" 
d="M225 754h53c-3 -71 -28 -116 -105 -116s-103 45 -104 116h52c2 -19 7 -44 52 -44s49 25 52 44zM222 146v73h-53v95h154v-206c0 -83 -69 -118 -147 -118c-81 0 -150 42 -150 122v371c0 79 65 125 150 125c86 0 147 -40 147 -118v-99h-101v60c0 46 -23 60 -47 60
c-25 0 -48 -14 -48 -60v-305c0 -45 23 -59 48 -59c24 0 47 14 47 59z" />
    <glyph glyph-name="gdotaccent.sc" horiz-adv-x="350" 
d="M175 648c-29 0 -56 24 -56 56c0 30 27 54 56 54c30 0 55 -24 55 -54c0 -32 -25 -56 -55 -56zM222 146v73h-53v95h154v-206c0 -83 -69 -118 -147 -118c-81 0 -150 42 -150 122v371c0 79 65 125 150 125c86 0 147 -40 147 -118v-99h-101v60c0 46 -23 60 -47 60
c-25 0 -48 -14 -48 -60v-305c0 -45 23 -59 48 -59c24 0 47 14 47 59z" />
    <glyph glyph-name="gcommaaccent.sc" horiz-adv-x="350" 
d="M173 -187h-75l50 148h105zM222 146v73h-53v95h154v-206c0 -83 -69 -118 -147 -118c-81 0 -150 42 -150 122v371c0 79 65 125 150 125c86 0 147 -40 147 -118v-99h-101v60c0 46 -23 60 -47 60c-25 0 -48 -14 -48 -60v-305c0 -45 23 -59 48 -59c24 0 47 14 47 59z" />
    <glyph glyph-name="hcircumflex.sc" horiz-adv-x="359" 
d="M291 649h-74l-38 68l-33 -68h-77l68 132h81zM324 0h-101v252h-87v-252h-101v597h101v-251h87v251h101v-597z" />
    <glyph glyph-name="hbar.sc" horiz-adv-x="363" 
d="M326 0h-101v252h-87v-252h-101v442h-35v78h35v77h101v-77h87v77h101v-77h35v-78h-35v-442zM225 346v96h-87v-96h87z" />
    <glyph glyph-name="uni1E23.sc" horiz-adv-x="359" 
d="M180 648c-29 0 -56 24 -56 56c0 30 27 54 56 54c30 0 55 -24 55 -54c0 -32 -25 -56 -55 -56zM324 0h-101v252h-87v-252h-101v597h101v-251h87v251h101v-597z" />
    <glyph glyph-name="igrave.sc" horiz-adv-x="171" 
d="M127 649h-67l-92 118h108zM136 0h-101v597h101v-597z" />
    <glyph glyph-name="iacute.sc" horiz-adv-x="171" 
d="M106 649h-68l51 118h108zM136 0h-101v597h101v-597z" />
    <glyph glyph-name="icircumflex.sc" horiz-adv-x="171" 
d="M196 649h-74l-38 68l-33 -68h-77l68 132h81zM136 0h-101v597h101v-597z" />
    <glyph glyph-name="idieresis.sc" horiz-adv-x="171" 
d="M9 641c-29 0 -56 24 -56 56c0 31 27 55 56 55c30 0 55 -24 55 -55c0 -32 -25 -56 -55 -56zM162 641c-29 0 -54 24 -54 56c0 31 25 55 54 55c32 0 56 -24 56 -55c0 -32 -24 -56 -56 -56zM136 0h-101v597h101v-597z" />
    <glyph glyph-name="itilde.sc" horiz-adv-x="171" 
d="M140 741h55c0 -49 -15 -91 -61 -91c-28 0 -49 15 -77 16c-8 0 -24 -1 -25 -18h-56c2 64 25 91 63 91c28 0 45 -17 75 -17c11 0 24 2 26 19zM136 0h-101v597h101v-597z" />
    <glyph glyph-name="imacron.sc" horiz-adv-x="171" 
d="M204 649h-237v80h237v-80zM136 0h-101v597h101v-597z" />
    <glyph glyph-name="ibreve.sc" horiz-adv-x="171" 
d="M137 754h53c-3 -71 -28 -116 -105 -116s-103 45 -104 116h52c2 -19 7 -44 52 -44s49 25 52 44zM136 0h-101v597h101v-597z" />
    <glyph glyph-name="iogonek.sc" horiz-adv-x="171" 
d="M154 -130l-34 -52c-68 2 -118 47 -118 99c0 24 11 49 33 70v610h101v-597c-31 -22 -43 -49 -43 -69c0 -21 14 -51 61 -61z" />
    <glyph glyph-name="dotlessi.sc" horiz-adv-x="171" 
d="M136 0h-101v597h101v-597z" />
    <glyph glyph-name="idotaccent.sc" horiz-adv-x="171" 
d="M86 648c-29 0 -56 24 -56 56c0 30 27 54 56 54c30 0 55 -24 55 -54c0 -32 -25 -56 -55 -56zM136 0h-101v597h101v-597z" />
    <glyph glyph-name="ij.sc" horiz-adv-x="342" 
d="M136 0h-101v597h101v-597zM162 -150h-3v97h3c22 0 44 16 44 60v590h101v-622c0 -79 -57 -125 -145 -125z" />
    <glyph glyph-name="jcircumflex.sc" horiz-adv-x="171" 
d="M196 649h-74l-38 68l-33 -68h-77l68 132h81zM-9 -150h-3v97h3c22 0 44 16 44 60v590h101v-622c0 -79 -57 -125 -145 -125z" />
    <glyph glyph-name="dotlessj.sc" horiz-adv-x="171" 
d="M-8 -150h-2v97h2c22 0 43 16 43 60v590h101v-616c0 -79 -56 -131 -144 -131z" />
    <glyph glyph-name="kcommaaccent.sc" horiz-adv-x="344" 
d="M175 -187h-75l50 148h105zM348 0h-101l-110 299l95 298h101l-91 -296zM136 0h-101v597h101v-597z" />
    <glyph glyph-name="kgreenlandic.sc" horiz-adv-x="346" 
d="M348 0h-101l-110 299l95 298h101l-91 -296zM136 0h-101v597h101v-597z" />
    <glyph glyph-name="lslash.sc" horiz-adv-x="290" 
d="M280 0h-206v174l-33 -20l-45 79l78 43v321h101v-264l46 26l42 -79l-88 -50v-136h105v-94z" />
    <glyph glyph-name="lacute.sc" horiz-adv-x="251" 
d="M113 649h-68l51 118h108zM242 0h-207v597h101v-503h106v-94z" />
    <glyph glyph-name="ldot.sc" horiz-adv-x="303" 
d="M235 224c-33 0 -60 26 -60 60s27 60 60 60c34 0 61 -26 61 -60s-27 -60 -61 -60zM242 0h-207v597h101v-503h106v-94z" />
    <glyph glyph-name="lcommaaccent.sc" horiz-adv-x="251" 
d="M129 -187h-75l50 148h105zM242 0h-207v597h101v-503h106v-94z" />
    <glyph glyph-name="lcaron.sc" horiz-adv-x="304" 
d="M251 420h-79l27 177h110zM242 0h-207v597h101v-503h106v-94z" />
    <glyph glyph-name="uni1E41.sc" horiz-adv-x="535" 
d="M268 648c-29 0 -56 24 -56 56c0 30 27 54 56 54c30 0 55 -24 55 -54c0 -32 -25 -56 -55 -56zM500 0h-101l1 419l-79 -419h-100l-85 416v-416h-101v597h166l67 -407l66 407h166v-597z" />
    <glyph glyph-name="ntilde.sc" horiz-adv-x="416" 
d="M280 741h55c0 -49 -15 -91 -61 -91c-28 0 -49 15 -77 16c-8 0 -24 -1 -25 -18h-56c2 64 25 91 63 91c28 0 45 -17 75 -17c11 0 24 2 26 19zM381 0h-141l-106 385l2 -385h-101v597h137l110 -392l-2 392h101v-597z" />
    <glyph glyph-name="nacute.sc" horiz-adv-x="416" 
d="M251 649h-68l51 118h108zM381 0h-141l-106 385l2 -385h-101v597h137l110 -392l-2 392h101v-597z" />
    <glyph glyph-name="ncommaaccent.sc" horiz-adv-x="416" 
d="M205 -187h-75l50 148h105zM381 0h-141l-106 385l2 -385h-101v597h137l110 -392l-2 392h101v-597z" />
    <glyph glyph-name="ncaron.sc" horiz-adv-x="416" 
d="M263 649h-81l-73 132h73l40 -68l31 68h78zM381 0h-141l-106 385l2 -385h-101v597h137l110 -392l-2 392h101v-597z" />
    <glyph glyph-name="eng.sc" horiz-adv-x="416" 
d="M236 -159h-1v97h1c22 0 44 16 44 59v15l-146 373l2 -385h-101v597h137l110 -328l-2 328h101v-625c0 -79 -57 -131 -145 -131z" />
    <glyph glyph-name="ograve.sc" horiz-adv-x="352" 
d="M221 649h-67l-92 118h108zM321 483v-368c0 -100 -75 -125 -145 -125c-53 0 -145 25 -145 125v368c0 100 92 125 145 125c70 0 145 -25 145 -125zM132 451v-304c0 -42 20 -60 44 -60s44 18 44 60v304c0 42 -20 60 -44 60s-44 -18 -44 -60z" />
    <glyph glyph-name="oacute.sc" horiz-adv-x="352" 
d="M206 649h-68l51 118h108zM321 483v-368c0 -100 -75 -125 -145 -125c-53 0 -145 25 -145 125v368c0 100 92 125 145 125c70 0 145 -25 145 -125zM132 451v-304c0 -42 20 -60 44 -60s44 18 44 60v304c0 42 -20 60 -44 60s-44 -18 -44 -60z" />
    <glyph glyph-name="ocircumflex.sc" horiz-adv-x="352" 
d="M287 649h-74l-38 68l-33 -68h-77l68 132h81zM321 483v-368c0 -100 -75 -125 -145 -125c-53 0 -145 25 -145 125v368c0 100 92 125 145 125c70 0 145 -25 145 -125zM132 451v-304c0 -42 20 -60 44 -60s44 18 44 60v304c0 42 -20 60 -44 60s-44 -18 -44 -60z" />
    <glyph glyph-name="otilde.sc" horiz-adv-x="352" 
d="M231 741h55c0 -49 -15 -91 -61 -91c-28 0 -49 15 -77 16c-8 0 -24 -1 -25 -18h-56c2 64 25 91 63 91c28 0 45 -17 75 -17c11 0 24 2 26 19zM321 483v-368c0 -100 -75 -125 -145 -125c-53 0 -145 25 -145 125v368c0 100 92 125 145 125c70 0 145 -25 145 -125zM132 451
v-304c0 -42 20 -60 44 -60s44 18 44 60v304c0 42 -20 60 -44 60s-44 -18 -44 -60z" />
    <glyph glyph-name="odieresis.sc" horiz-adv-x="352" 
d="M100 641c-29 0 -56 24 -56 56c0 31 27 55 56 55c30 0 55 -24 55 -55c0 -32 -25 -56 -55 -56zM253 641c-29 0 -54 24 -54 56c0 31 25 55 54 55c32 0 56 -24 56 -55c0 -32 -24 -56 -56 -56zM321 483v-368c0 -100 -75 -125 -145 -125c-53 0 -145 25 -145 125v368
c0 100 92 125 145 125c70 0 145 -25 145 -125zM132 451v-304c0 -42 20 -60 44 -60s44 18 44 60v304c0 42 -20 60 -44 60s-44 -18 -44 -60z" />
    <glyph glyph-name="omacron.sc" horiz-adv-x="352" 
d="M295 649h-237v80h237v-80zM321 483v-368c0 -100 -75 -125 -145 -125c-53 0 -145 25 -145 125v368c0 100 92 125 145 125c70 0 145 -25 145 -125zM132 451v-304c0 -42 20 -60 44 -60s44 18 44 60v304c0 42 -20 60 -44 60s-44 -18 -44 -60z" />
    <glyph glyph-name="obreve.sc" horiz-adv-x="352" 
d="M228 754h53c-3 -71 -28 -116 -105 -116s-103 45 -104 116h52c2 -19 7 -44 52 -44s49 25 52 44zM321 483v-368c0 -100 -75 -125 -145 -125c-53 0 -145 25 -145 125v368c0 100 92 125 145 125c70 0 145 -25 145 -125zM132 451v-304c0 -42 20 -60 44 -60s44 18 44 60v304
c0 42 -20 60 -44 60s-44 -18 -44 -60z" />
    <glyph glyph-name="ohungarumlaut.sc" horiz-adv-x="352" 
d="M148 649h-81l34 124h95zM273 649h-80l34 124h95zM321 483v-368c0 -100 -75 -125 -145 -125c-53 0 -145 25 -145 125v368c0 100 92 125 145 125c70 0 145 -25 145 -125zM132 451v-304c0 -42 20 -60 44 -60s44 18 44 60v304c0 42 -20 60 -44 60s-44 -18 -44 -60z" />
    <glyph glyph-name="oslash.sc" horiz-adv-x="352" 
d="M321 483v-368c0 -100 -75 -125 -145 -125c-10 0 -21 1 -33 3l-5 -34h-29l6 41c-43 14 -84 48 -84 115v368c0 100 92 125 145 125c11 0 23 -1 34 -2l5 32h29l-6 -38c46 -14 83 -47 83 -117zM132 451v-304c0 -9 1 -37 2 -44l60 404c-5 3 -12 4 -18 4c-24 0 -44 -18 -44 -60
zM220 471c0 7 -1 14 -2 20l-60 -401c6 -2 12 -3 18 -3c24 0 44 18 44 60v324z" />
    <glyph glyph-name="oslashacute.sc" horiz-adv-x="353" 
d="M185 649h-68l51 118h108zM321 483v-368c0 -100 -75 -125 -145 -125c-10 0 -21 1 -33 3l-5 -34h-29l6 41c-43 14 -84 48 -84 115v368c0 100 92 125 145 125c11 0 23 -1 34 -2l5 32h29l-6 -38c46 -14 83 -47 83 -117zM132 451v-304c0 -9 1 -37 2 -44l60 404
c-5 3 -12 4 -18 4c-24 0 -44 -18 -44 -60zM220 471c0 7 -1 14 -2 20l-60 -401c6 -2 12 -3 18 -3c24 0 44 18 44 60v324z" />
    <glyph glyph-name="oe.sc" horiz-adv-x="491" 
d="M466 0h-233c-18 -7 -40 -10 -60 -10c-78 0 -147 45 -147 125v368c0 79 66 125 150 125c28 0 48 -5 66 -11h224v-94h-151v-154h145v-94h-145v-161h151v-94zM213 140l1 307c0 48 -22 64 -44 64c-20 0 -43 -14 -43 -60v-305c0 -45 23 -59 44 -59c18 0 42 12 42 53z" />
    <glyph glyph-name="uni1E57.sc" horiz-adv-x="338" 
d="M165 648c-29 0 -56 24 -56 56c0 30 27 54 56 54c30 0 55 -24 55 -54c0 -32 -25 -56 -55 -56zM35 597h171c69 0 114 -46 114 -125v-109c0 -79 -37 -125 -106 -125h-78v-238h-101v597zM219 392v51c0 44 -14 60 -44 60h-39v-170h39c30 0 44 15 44 59z" />
    <glyph glyph-name="thorn.sc" horiz-adv-x="336" 
d="M136 0h-101v597h101v-127h65c83 0 119 -45 119 -138v-65c0 -92 -31 -138 -106 -138h-78v-129zM219 282v35c0 43 -14 59 -43 59h-40v-153h40c29 0 43 16 43 59z" />
    <glyph glyph-name="racute.sc" horiz-adv-x="344" 
d="M187 649h-68l51 118h108zM136 0h-101v597h172c69 0 113 -45 113 -124v-101c0 -54 -14 -87 -57 -111l73 -261h-101l-68 236h-31v-236zM136 503v-170h40c29 0 43 16 43 59v74c0 27 -21 37 -43 37h-40z" />
    <glyph glyph-name="rcommaaccent.sc" horiz-adv-x="344" 
d="M178 -187h-75l50 148h105zM136 0h-101v597h172c69 0 113 -45 113 -124v-101c0 -54 -14 -87 -57 -111l73 -261h-101l-68 236h-31v-236zM136 503v-170h40c29 0 43 16 43 59v74c0 27 -21 37 -43 37h-40z" />
    <glyph glyph-name="rcaron.sc" horiz-adv-x="344" 
d="M213 649h-81l-73 132h73l40 -68l31 68h78zM136 0h-101v597h172c69 0 113 -45 113 -124v-101c0 -54 -14 -87 -57 -111l73 -261h-101l-68 236h-31v-236zM136 503v-170h40c29 0 43 16 43 59v74c0 27 -21 37 -43 37h-40z" />
    <glyph glyph-name="scedilla.sc" 
d="M102 -146l14 52c5 -3 16 -7 28 -7c19 0 30 13 30 26c0 12 -6 23 -33 23c-2 0 -4 0 -7 -1l11 45c-62 8 -120 42 -120 117v91h101v-54c0 -43 22 -59 44 -59s43 16 43 59v28c0 56 -188 118 -188 229v73c0 78 57 132 145 132c105 0 144 -52 144 -131v-88h-101v62
c0 44 -21 60 -43 60s-44 -16 -44 -60v-28c0 -80 188 -116 188 -227v-87c0 -67 -48 -101 -98 -114l-9 -31c41 0 58 -29 58 -55c0 -32 -24 -68 -92 -68c-30 0 -59 7 -71 13z" />
    <glyph glyph-name="scommaaccent.sc" 
d="M176 -187h-75l50 148h105zM314 196v-87c0 -86 -72 -119 -144 -119c-73 0 -145 34 -145 119v91h101v-54c0 -43 22 -59 44 -59c15 0 43 11 43 41v46c0 56 -188 118 -188 229v73c0 78 57 132 145 132c105 0 144 -52 144 -131v-88h-101v62c0 44 -21 60 -43 60
c-16 0 -44 -12 -44 -41v-47c0 -80 188 -116 188 -227z" />
    <glyph glyph-name="scaron.sc" 
d="M213 649h-81l-73 132h73l40 -68l31 68h78zM314 196v-87c0 -86 -72 -119 -144 -119c-73 0 -145 34 -145 119v91h101v-54c0 -43 22 -59 44 -59c15 0 43 11 43 41v46c0 56 -188 118 -188 229v73c0 78 57 132 145 132c105 0 144 -52 144 -131v-88h-101v62c0 44 -21 60 -43 60
c-16 0 -44 -12 -44 -41v-47c0 -80 188 -116 188 -227z" />
    <glyph glyph-name="sacute.sc" 
d="M187 649h-68l51 118h108zM314 196v-87c0 -86 -72 -119 -144 -119c-73 0 -145 34 -145 119v91h101v-54c0 -43 22 -59 44 -59c15 0 43 11 43 41v46c0 56 -188 118 -188 229v73c0 78 57 132 145 132c105 0 144 -52 144 -131v-88h-101v62c0 44 -21 60 -43 60
c-16 0 -44 -12 -44 -41v-47c0 -80 188 -116 188 -227z" />
    <glyph glyph-name="scircumflex.sc" 
d="M281 649h-74l-38 68l-33 -68h-77l68 132h81zM314 196v-87c0 -86 -72 -119 -144 -119c-73 0 -145 34 -145 119v91h101v-54c0 -43 22 -59 44 -59c15 0 43 11 43 41v46c0 56 -188 118 -188 229v73c0 78 57 132 145 132c105 0 144 -52 144 -131v-88h-101v62
c0 44 -21 60 -43 60c-16 0 -44 -12 -44 -41v-47c0 -80 188 -116 188 -227z" />
    <glyph glyph-name="uni1E61.sc" 
d="M170 648c-29 0 -56 24 -56 56c0 30 27 54 56 54c30 0 55 -24 55 -54c0 -32 -25 -56 -55 -56zM314 196v-87c0 -86 -72 -119 -144 -119c-73 0 -145 34 -145 119v91h101v-54c0 -43 22 -59 44 -59c15 0 43 11 43 41v46c0 56 -188 118 -188 229v73c0 78 57 132 145 132
c105 0 144 -52 144 -131v-88h-101v62c0 44 -21 60 -43 60c-16 0 -44 -12 -44 -41v-47c0 -80 188 -116 188 -227z" />
    <glyph glyph-name="tcaron.sc" horiz-adv-x="267" 
d="M174 649h-81l-73 132h73l40 -68l31 68h78zM184 0h-101v503h-74v94h249v-94h-74v-503z" />
    <glyph glyph-name="tcommaaccent.sc" horiz-adv-x="267" 
d="M133 -187h-75l50 148h105zM184 0h-101v503h-74v94h249v-94h-74v-503z" />
    <glyph glyph-name="tbar.sc" horiz-adv-x="279" 
d="M190 0h-101v266h-54v76h54v161h-74v94h249v-94h-74v-161h55v-76h-55v-266z" />
    <glyph glyph-name="uni1E6B.sc" horiz-adv-x="267" 
d="M134 648c-29 0 -56 24 -56 56c0 30 27 54 56 54c30 0 55 -24 55 -54c0 -32 -25 -56 -55 -56zM184 0h-101v503h-74v94h249v-94h-74v-503z" />
    <glyph glyph-name="ugrave.sc" horiz-adv-x="357" 
d="M221 649h-67l-92 118h108zM222 146v451h101v-482c0 -83 -69 -125 -143 -125c-77 0 -146 45 -146 125v482h101v-451c0 -45 23 -59 44 -59c20 0 43 14 43 59z" />
    <glyph glyph-name="uacute.sc" horiz-adv-x="357" 
d="M208 649h-68l51 118h108zM222 146v451h101v-482c0 -83 -69 -125 -143 -125c-77 0 -146 45 -146 125v482h101v-451c0 -45 23 -59 44 -59c20 0 43 14 43 59z" />
    <glyph glyph-name="ucircumflex.sc" horiz-adv-x="357" 
d="M276 649h-74l-38 68l-33 -68h-77l68 132h81zM222 146v451h101v-482c0 -83 -69 -125 -143 -125c-77 0 -146 45 -146 125v482h101v-451c0 -45 23 -59 44 -59c20 0 43 14 43 59z" />
    <glyph glyph-name="udieresis.sc" horiz-adv-x="357" 
d="M102 641c-29 0 -56 24 -56 56c0 31 27 55 56 55c30 0 55 -24 55 -55c0 -32 -25 -56 -55 -56zM255 641c-29 0 -54 24 -54 56c0 31 25 55 54 55c32 0 56 -24 56 -55c0 -32 -24 -56 -56 -56zM222 146v451h101v-482c0 -83 -69 -125 -143 -125c-77 0 -146 45 -146 125v482h101
v-451c0 -45 23 -59 44 -59c20 0 43 14 43 59z" />
    <glyph glyph-name="utilde.sc" horiz-adv-x="357" 
d="M232 741h55c0 -49 -15 -91 -61 -91c-28 0 -49 15 -77 16c-8 0 -24 -1 -25 -18h-56c2 64 25 91 63 91c28 0 45 -17 75 -17c11 0 24 2 26 19zM222 146v451h101v-482c0 -83 -69 -125 -143 -125c-77 0 -146 45 -146 125v482h101v-451c0 -45 23 -59 44 -59c20 0 43 14 43 59z
" />
    <glyph glyph-name="umacron.sc" horiz-adv-x="357" 
d="M297 649h-237v80h237v-80zM222 146v451h101v-482c0 -83 -69 -125 -143 -125c-77 0 -146 45 -146 125v482h101v-451c0 -45 23 -59 44 -59c20 0 43 14 43 59z" />
    <glyph glyph-name="ubreve.sc" horiz-adv-x="357" 
d="M230 754h53c-3 -71 -28 -116 -105 -116s-103 45 -104 116h52c2 -19 7 -44 52 -44s49 25 52 44zM222 146v451h101v-482c0 -83 -69 -125 -143 -125c-77 0 -146 45 -146 125v482h101v-451c0 -45 23 -59 44 -59c20 0 43 14 43 59z" />
    <glyph glyph-name="uhungarumlaut.sc" horiz-adv-x="357" 
d="M148 649h-81l34 124h95zM273 649h-80l34 124h95zM222 146v451h101v-482c0 -83 -69 -125 -143 -125c-77 0 -146 45 -146 125v482h101v-451c0 -45 23 -59 44 -59c20 0 43 14 43 59z" />
    <glyph glyph-name="uring.sc" horiz-adv-x="357" 
d="M200 714c0 13 -9 22 -22 22s-21 -9 -21 -22s8 -21 21 -21s22 8 22 21zM178 634c-45 0 -80 35 -80 80s35 80 80 80s80 -35 80 -80s-35 -80 -80 -80zM222 146v451h101v-482c0 -83 -69 -125 -143 -125c-77 0 -146 45 -146 125v482h101v-451c0 -45 23 -59 44 -59
c20 0 43 14 43 59z" />
    <glyph glyph-name="uogonek.sc" horiz-adv-x="356" 
d="M261 -130l-35 -52c-67 2 -117 47 -117 99c0 26 14 55 40 75c-63 10 -116 55 -116 123v482h101v-451c0 -45 23 -59 44 -59c20 0 43 14 43 59v451h101v-482c0 -69 -45 -95 -70 -111c-48 -30 -52 -58 -52 -72c0 -23 13 -52 61 -62z" />
    <glyph glyph-name="wcircumflex.sc" horiz-adv-x="568" 
d="M394 649h-74l-38 68l-33 -68h-77l68 132h81zM558 597l-66 -597h-154l-55 504l-54 -504h-153l-66 597h101l44 -439l52 439h154l51 -439l45 439h101z" />
    <glyph glyph-name="wdieresis.sc" horiz-adv-x="568" 
d="M207 641c-29 0 -56 24 -56 56c0 31 27 55 56 55c30 0 55 -24 55 -55c0 -32 -25 -56 -55 -56zM360 641c-29 0 -54 24 -54 56c0 31 25 55 54 55c32 0 56 -24 56 -55c0 -32 -24 -56 -56 -56zM558 597l-66 -597h-154l-55 504l-54 -504h-153l-66 597h101l44 -439l52 439h154
l51 -439l45 439h101z" />
    <glyph glyph-name="wgrave.sc" horiz-adv-x="568" 
d="M322 649h-67l-92 118h108zM558 597l-66 -597h-154l-55 504l-54 -504h-153l-66 597h101l44 -439l52 439h154l51 -439l45 439h101z" />
    <glyph glyph-name="wacute.sc" horiz-adv-x="568" 
d="M306 649h-68l51 118h108zM558 597l-66 -597h-154l-55 504l-54 -504h-153l-66 597h101l44 -439l52 439h154l51 -439l45 439h101z" />
    <glyph glyph-name="ygrave.sc" horiz-adv-x="325" 
d="M206 649h-67l-92 118h108zM213 0h-102v197l-109 400h102l58 -257l60 257h102l-111 -399v-198z" />
    <glyph glyph-name="yacute.sc" horiz-adv-x="325" 
d="M188 649h-68l51 118h108zM213 0h-102v197l-109 400h102l58 -257l60 257h102l-111 -399v-198z" />
    </font>
</defs>
</svg>
