<?xml version="1.0" standalone="no"?>
<!DOCTYPE svg PUBLIC "-//W3C//DTD SVG 1.1//EN" "http://www.w3.org/Graphics/SVG/1.1/DTD/svg11.dtd" >
<svg xmlns="http://www.w3.org/2000/svg">
<metadata></metadata>
<defs>
<font id="westpac_helpabold" horiz-adv-x="1351" >
<font-face units-per-em="2048" ascent="1677" descent="-371" />
<missing-glyph horiz-adv-x="542" />
<glyph unicode="&#xfb01;" horiz-adv-x="1398" d="M82 911v183h164v30q0 84 17.5 143.5t72.5 114.5q78 76 176 98.5t238 22.5q184 0 310 -77.5t138 -249.5h-303q-18 150 -180 145q-92 0 -141.5 -47t-49.5 -131v-49h676v-912h127v-182h-522v182h123v729h-406v-729h146v-182h-566v182h146v729h-166z" />
<glyph unicode="&#xfb02;" horiz-adv-x="1421" d="M82 911v183h166v30q0 86 16.5 144.5t71.5 113.5q125 121 403 121q59 0 202.5 -15t258.5 -13v-1293h129v-182h-524v182h123v1108q-84 27 -162 27q-125 0 -184 -51q-57 -55 -58 -150v-22h181v-183h-183v-729h148v-182h-566v182h146v729h-168z" />
<glyph horiz-adv-x="0" />
<glyph horiz-adv-x="0" />
<glyph horiz-adv-x="682" />
<glyph unicode="&#xd;" horiz-adv-x="681" />
<glyph unicode=" "  horiz-adv-x="542" />
<glyph unicode="&#x09;" horiz-adv-x="542" />
<glyph unicode="&#xa0;" horiz-adv-x="542" />
<glyph unicode="!" horiz-adv-x="712" d="M297 1475h324l-58 -1067h-209zM317 0v268h281v-268h-281z" />
<glyph unicode="&#x22;" horiz-adv-x="794" d="M92 1503h236l-33 -635h-170zM467 1503h235l-32 -635h-170z" />
<glyph unicode="#" horiz-adv-x="1312" d="M92 449v184h238l28 209h-215v184h240l59 449h213l-61 -449h205l61 449h213l-61 -449h209v-184h-234l-29 -209h211v-184h-235l-60 -449h-212l59 449h-205l-59 -449h-211l59 449h-213zM543 633h205l28 209h-205z" />
<glyph unicode="$" horiz-adv-x="1218" d="M92 1073q0 193 118 311.5t320 118.5v174h154v-188q111 -35 178 -129h4v115h228v-500h-236q-14 293 -174 325v-434q68 -25 101.5 -37t90 -37.5t85 -47t66.5 -56.5t55.5 -72.5t30.5 -91t13 -116.5q0 -205 -118.5 -314.5t-323.5 -120.5v-196h-154v211q-159 41 -204 147h-4 v-135h-228v506h240q-2 -117 45 -213t151 -121v467q-47 18 -237 100q-201 109 -201 334zM373 1120q0 -129 157 -194v381q-72 -8 -114.5 -61.5t-42.5 -125.5zM684 172q68 18 110 70.5t42 134.5q0 150 -152 203v-408z" />
<glyph unicode="%" horiz-adv-x="1808" d="M174 1098q0 80 15.5 147.5t50 128t100.5 95t156 34.5q119 0 194.5 -62.5t102 -148.5t26.5 -194q0 -170 -75.5 -287t-247.5 -117q-119 0 -194 62.5t-101.5 147.5t-26.5 194zM406 1112q0 -268 90 -268t90 268q0 242 -90 242q-49 0 -69.5 -74t-20.5 -168zM449 -29l747 1532 h170l-750 -1532h-167zM989 375q0 172 75 288.5t247 116.5t247.5 -117.5t75.5 -287.5q0 -172 -75.5 -288t-247.5 -116t-247 116t-75 288zM1221 389q0 -268 90 -268t90 268q0 242 -90 242t-90 -242z" />
<glyph unicode="&#x26;" horiz-adv-x="1619" d="M113 420q0 264 284 416v6q-170 145 -170 329q0 162 120 247t292 85t278.5 -82t106.5 -245q0 -123 -63.5 -211t-196.5 -177l293 -317q83 137 65 420h410v-203h-189q-18 -211 -131 -381l95 -108h231v-199h-389l-115 115q-74 -66 -192.5 -105t-245.5 -39q-217 0 -350 117 t-133 332zM393 393q0 -111 72 -175t178 -64q150 0 258 110l-336 400q-172 -105 -172 -271zM475 1196q0 -98 139 -242q174 113 174 230q0 70 -40.5 114.5t-112.5 44.5q-68 0 -114 -39.5t-46 -107.5z" />
<glyph unicode="'" horiz-adv-x="423" d="M92 1503h240l-33 -635h-174z" />
<glyph unicode="(" horiz-adv-x="671" d="M51 594q0 473 309 934h209q-268 -432 -268 -934q0 -481 279 -936h-220q-309 461 -309 936z" />
<glyph unicode=")" horiz-adv-x="671" d="M92 -342q279 455 279 936q0 502 -269 934h209q309 -461 310 -934q0 -475 -310 -936h-219z" />
<glyph unicode="*" horiz-adv-x="991" d="M92 1083l90 289l217 -125l-45 256h281l-45 -260l221 121l88 -281l-242 -34l172 -191l-231 -172l-104 232l-105 -230l-231 172l180 191z" />
<glyph unicode="+" d="M119 444v203h452v447h207v-447h453v-203h-453v-444h-207v444h-452z" />
<glyph unicode="," horiz-adv-x="684" d="M195 0v268h294v-268l-110 -319h-172l100 319h-112z" />
<glyph unicode="-" horiz-adv-x="821" d="M92 465v229h637v-229h-637z" />
<glyph unicode="." horiz-adv-x="667" d="M195 0v268h278v-268h-278z" />
<glyph unicode="/" horiz-adv-x="860" d="M31 -143l608 1671h190l-610 -1671h-188z" />
<glyph unicode="0" horiz-adv-x="1236" d="M113 762q0 115 13 215t49 199.5t91.5 169t145.5 113.5t206.5 44t206.5 -44t145.5 -113.5t91.5 -169t49 -199.5t13 -215q0 -123 -12 -229.5t-47 -213t-90 -181.5t-146.5 -121t-210 -46t-210 46t-146.5 121t-90 181.5t-47 213t-12 229.5zM397 762q0 -59 1 -93t3 -96.5 t8.5 -101.5t15.5 -92t26.5 -86t39 -63.5t54.5 -46t73.5 -15.5t73.5 15.5t54.5 46t39 63.5t26.5 86t15.5 92t8.5 101.5t3 96t1 93.5q0 553 -221.5 553t-221.5 -553z" />
<glyph unicode="1" horiz-adv-x="1245" d="M195 950v264q203 123 360 273h252v-1299h203v-188h-715v188h227v1014h-8q-119 -129 -319 -252z" />
<glyph unicode="2" horiz-adv-x="1206" d="M92 0v266q287 260 451 443q141 158 182 239.5t41 153.5q0 90 -49 149.5t-135 59.5q-100 0 -153.5 -81t-53.5 -192h-283q4 211 131 338t359 127q211 0 341 -102.5t130 -304.5q0 -147 -72 -262t-236 -285q-166 -172 -389 -348v-6h486v227h231v-422h-981z" />
<glyph unicode="3" horiz-adv-x="1230" d="M131 414h287q14 -244 219 -244q88 0 140 72.5t52 169.5q0 127 -61 194q-27 29 -69 42.5t-83 13.5t-86 -3v189q127 -12 206 50.5t79 197.5q0 92 -48 153.5t-138 61.5q-184 0 -201 -246h-285q4 213 132 325.5t370 112.5q86 0 162 -21.5t143.5 -65.5t106.5 -126t39 -190 q0 -137 -73 -229t-210 -115v-4q150 -16 227.5 -108.5t77.5 -250.5q0 -164 -82 -262q-131 -160 -415 -160q-219 0 -353.5 114t-136.5 329z" />
<glyph unicode="4" horiz-adv-x="1251" d="M92 621l520 866h342v-932h185v-178h-185v-189h185v-188h-660v188h201v189h-586zM303 555h373v637h-4l-369 -629v-8z" />
<glyph unicode="5" horiz-adv-x="1257" d="M152 391h284q4 -98 52.5 -159.5t140.5 -61.5q117 0 166 81t49 206q0 311 -211 311q-78 0 -132.5 -51t-70.5 -135l-260 24l29 869h858v-195h-602l-19 -446l4 -3q94 129 277 130q193 0 300 -138.5t107 -316.5q0 -315 -198 -449q-123 -86 -301 -86q-205 0 -339 109.5 t-134 310.5z" />
<glyph unicode="6" horiz-adv-x="1263" d="M133 711q0 127 15.5 236.5t54.5 214t101.5 178t161.5 118.5t228 45q172 0 288 -103.5t124 -287.5h-272q-8 86 -47 147.5t-113 61.5q-255 0 -273 -559h7q100 197 301 196q205 0 313 -137t108 -350q0 -229 -125.5 -364.5t-355.5 -135.5q-154 0 -260 61.5t-159.5 172 t-75 231.5t-21.5 275zM422 465q0 -127 57.5 -220t173.5 -93q98 0 151.5 89t53.5 220q0 125 -48 215t-161 90q-111 0 -169 -92t-58 -209z" />
<glyph unicode="7" horiz-adv-x="1187" d="M123 1026v449h993v-222l-385 -1065h160v-188h-610v188h155l422 1088v4h-493v-254h-242z" />
<glyph unicode="8" horiz-adv-x="1255" d="M133 401q0 143 80 240.5t219 124.5v6q-279 74 -278 330q0 201 133 301t340 100q209 0 342 -100t133 -301q0 -256 -279 -330v-6q139 -27 219 -124t80 -241q0 -217 -136 -323.5t-359.5 -106.5t-358.5 106.5t-135 323.5zM406 412q0 -113 56 -189t164.5 -76t165 76t56.5 189 q0 117 -55.5 194.5t-166 77.5t-165.5 -78t-55 -194zM420 1095.5q0 -102.5 53 -171t153.5 -68.5t155 68.5t54.5 171t-54.5 166t-155 63.5t-153.5 -63.5t-53 -166z" />
<glyph unicode="9" horiz-adv-x="1263" d="M133 1004q0 229 126 364t355 135q125 0 218.5 -42t148.5 -109.5t90 -167t47 -199.5t12 -221q0 -127 -15 -236.5t-54 -214t-101.5 -178.5t-162 -119t-228.5 -45q-174 0 -288.5 103.5t-122.5 287.5h272q8 -86 47 -147t113 -61q86 0 144.5 58t84 154.5t34.5 178.5t9 170h-8 q-109 -199 -299 -199q-205 0 -313.5 137.5t-108.5 350.5zM403 1014q0 -125 49.5 -215t161.5 -90q111 0 169.5 93t58.5 210q0 127 -55.5 220t-172.5 93q-100 0 -155.5 -90t-55.5 -221z" />
<glyph unicode=":" horiz-adv-x="667" d="M195 0v268h278v-268h-278zM195 774v270h278v-270h-278z" />
<glyph unicode=";" horiz-adv-x="684" d="M195 0v268h294v-268l-110 -319h-172l100 319h-112zM209 774v270h278v-270h-278z" />
<glyph unicode="&#x3c;" d="M119 453v184l1112 506v-230l-838 -366v-6l838 -367v-227z" />
<glyph unicode="=" d="M119 250v211h1112v-211h-1112zM119 631v213h1112v-213h-1112z" />
<glyph unicode="&#x3e;" d="M119 -53v227l839 367v6l-839 366v230l1112 -506v-184z" />
<glyph unicode="?" horiz-adv-x="1187" d="M195 1108q12 182 128.5 288.5t317.5 106.5q207 0 331 -98t124 -295q0 -86 -37 -179t-96 -153l-150 -149q-68 -68 -68 -246h-280q0 247 106 362l156 166q84 90 84 207q0 86 -38 141.5t-118 55.5q-168 0 -182 -207h-278zM467 0v268h281v-268h-281z" />
<glyph unicode="@" horiz-adv-x="1970" d="M236 711q0 336 234.5 564t563.5 228q299 0 509 -179t210 -462q0 -158 -70.5 -305t-185.5 -227q-94 -61 -180 -62q-70 -2 -121.5 37t-67.5 121h-6q-131 -158 -270 -158q-152 0 -228.5 100.5t-72.5 260.5q10 233 162 401q152 162 331 156q74 -2 130.5 -43t78.5 -121h7 q18 43 63 115l145 2q-72 -164 -137 -357q-68 -207 -67 -293q0 -96 71 -96q109 0 199 153.5t90 307.5q0 231 -169 377.5t-413 146.5q-268 0 -466.5 -190.5t-198.5 -480.5q0 -317 189.5 -475t494.5 -158q150 0 288 62.5t236 170.5h146q-100 -166 -290 -264t-384 -98 q-170 0 -311.5 41t-259 127t-184 238.5t-66.5 359.5zM731 635q0 -201 162 -201q88 0 158.5 98.5t103.5 215.5q14 63 19.5 126.5t-29.5 111.5t-105 48q-129 0 -219 -128t-90 -271z" />
<glyph unicode="A" horiz-adv-x="1679" d="M72 0v188h116l488 1293h338l481 -1293h113v-188h-594v188h174l-90 263h-549l-94 -263h178v-188h-561zM616 637h410l-203 604h-4z" />
<glyph unicode="B" horiz-adv-x="1425" d="M72 0v188h172v1098h-172v189h800q180 0 289 -99.5t109 -277.5q-1 -281 -273 -334v-6q143 -18 224.5 -119.5t81.5 -249.5q0 -121 -69 -220t-183 -138q-84 -31 -217 -31h-762zM526 188h250q111 0 176.5 63.5t65.5 172.5q0 100 -58.5 167.5t-158.5 67.5h-275v-471zM526 846 h244q96 0 157.5 63.5t61.5 161.5q0 100 -52 157.5t-151 57.5h-260v-440z" />
<glyph unicode="C" horiz-adv-x="1568" d="M113 756q0 209 66.5 373.5t215 269t359.5 104.5q274 0 409 -162h6v134h230v-531h-246q-37 365 -344 365q-111 0 -190.5 -52.5t-120.5 -139.5t-59.5 -180t-18.5 -198q0 -106 16.5 -198t55 -181.5t117.5 -141.5t190 -52q143 0 232 88t97 233h287q-4 -248 -179 -382 t-435 -134q-342 0 -515 215t-173 570z" />
<glyph unicode="D" horiz-adv-x="1558" d="M72 0v188h170v1098h-170v189h708q336 0 512 -226q154 -195 154 -512q0 -436 -254 -614q-180 -123 -455 -123h-665zM526 188h119q143 0 243.5 32t164.5 128q102 152 102 391q0 147 -41 266t-140.5 200t-246.5 81h-201v-1098z" />
<glyph unicode="E" horiz-adv-x="1443" d="M72 0v188h172v1098h-172v189h1218v-451h-223v258h-541v-440h215v190h197v-563h-197v184h-215v-460h541v274h223v-467h-1218z" />
<glyph unicode="F" horiz-adv-x="1349" d="M72 0v188h172v1098h-172v189h1185v-471h-223v278h-506v-469h201v191h195v-580h-195v201h-201v-437h222v-188h-678z" />
<glyph unicode="G" horiz-adv-x="1671" d="M113 731q0 207 67.5 378t216 282.5t355.5 111.5q266 0 415 -182h13v154h229v-523h-242q-12 160 -104 251t-252 91q-139 0 -252 -118q-131 -139 -131 -435q0 -227 72 -360q51 -94 136 -149.5t187 -55.5q162 0 259 108q92 105 92 256v13h-189v184h594v-184h-147v-553h-238 l-6 162h-8q-145 -190 -418 -191q-203 0 -353.5 106.5t-223 276.5t-72.5 377z" />
<glyph unicode="H" horiz-adv-x="1650" d="M72 0v188h172v1098h-172v189h633v-189h-179v-444h598v444h-178v189h633v-189h-172v-1098h172v-188h-633v188h178v465h-598v-465h179v-188h-633z" />
<glyph unicode="I" horiz-adv-x="858" d="M102 0v188h185v1098h-185v189h654v-189h-187v-1098h187v-188h-654z" />
<glyph unicode="J" horiz-adv-x="1210" d="M115 473h286q-1 -30 -1 -57q0 -125 30 -180q37 -68 123 -68q70 0 102.5 51t32.5 127v940h-201v189h621v-189h-137v-924q0 -199 -120 -295t-312 -96q-127 0 -222.5 50.5t-146.5 144.5q-56 100 -56 272q0 17 1 35z" />
<glyph unicode="K" horiz-adv-x="1517" d="M72 0v188h172v1098h-172v189h622v-189h-168v-487l428 481v6h-133v189h572v-189h-115l-444 -489l475 -609h116v-188h-594v188h142v5l-447 571v-576h168v-188h-622z" />
<glyph unicode="L" horiz-adv-x="1306" d="M72 0v188h172v1098h-172v189h676v-189h-222v-1093h441v325h247v-518h-1142z" />
<glyph unicode="M" horiz-adv-x="2004" d="M72 0v188h172v1098h-172v189h612l307 -1139h6l308 1139h628v-189h-178v-1098h178v-188h-598v188h152l2 1082h-8l-371 -1270h-260l-358 1270h-11l2 -1082h144v-188h-555z" />
<glyph unicode="N" horiz-adv-x="1650" d="M72 0v188h172v1098h-172v189h551l542 -1147h9l-3 958h-172v189h580v-189h-158v-1286h-368l-555 1176h-9l3 -988h161v-188h-581z" />
<glyph unicode="O" horiz-adv-x="1642" d="M113 733q0 371 200 574q189 196 505 196h3q315 0 506 -196q203 -205 203 -574q0 -358 -186.5 -560t-522.5 -202t-522 202t-186 560zM418 737.5q0 -106.5 20.5 -204t64.5 -184.5t126 -139t192.5 -52t191.5 52t125 139t64.5 184.5t20.5 204t-20.5 203.5t-64.5 184 t-125 139.5t-191.5 52.5t-192.5 -52.5t-126 -139.5t-64.5 -184t-20.5 -203.5z" />
<glyph unicode="P" horiz-adv-x="1335" d="M72 0v188h170v1098h-170v189h716q225 0 338 -125q117 -133 117 -318q0 -238 -143 -370q-106 -94 -299 -95h-275v-379h215v-188h-669zM526 756h201q115 0 170 73.5t55 190.5q0 121 -59 192q-59 74 -172 74h-195v-530z" />
<glyph unicode="Q" horiz-adv-x="1660" d="M113 733q0 371 202 574q190 197 480 197h1q291 -1 484 -197q203 -205 203 -574q0 -362 -279 -563l2 -4q140 43 302 43q37 0 75 -2v-227q-131 11 -271 11q-108 0 -222 -7q-229 -13 -282 -13h-11q-328 8 -506 208t-178 554zM418 737.5q0 -143.5 32.5 -267.5t122 -218 t224.5 -94q131 0 221 96t125 221t35 262t-35 262t-125 221.5t-221 96.5q-135 0 -224.5 -94.5t-122 -218t-32.5 -267z" />
<glyph unicode="R" horiz-adv-x="1470" d="M72 0v188h172v1098h-172v189h772q193 0 307.5 -105.5t114.5 -298.5q0 -111 -52.5 -199t-152.5 -135q-48 -22 -105 -28v-4q94 -16 139.5 -54.5t73.5 -132.5l91 -323h129v-195h-373l-103 377q-37 135 -72.5 188t-115.5 53h-199v-430h168v-188h-622zM526 809h193 q119 0 190.5 68.5t71.5 185.5q0 98 -56.5 160.5t-154.5 62.5h-244v-477z" />
<glyph unicode="S" horiz-adv-x="1372" d="M164 1073q0 193 119.5 311.5t324.5 118.5q231 0 332 -145h6v117h228v-500h-236q-12 166 -67.5 251t-198.5 85q-109 0 -167.5 -53.5t-58.5 -137.5q0 -133 168 -196l154 -58q70 -27 101.5 -38t90 -37.5t85 -47t64.5 -56.5t55.5 -72.5t30.5 -90t13 -116.5q0 -207 -127 -322 t-364 -115q-240 0 -318 164h-4v-135h-225v506h240q0 -143 62.5 -241.5t205.5 -98.5q109 0 173 53t64 158q0 90 -46 133t-144 84l-227 90q-170 68 -252 151t-82 238z" />
<glyph unicode="T" horiz-adv-x="1439" d="M102 975v500h1235v-500h-243v305h-232v-1092h197v-188h-678v188h197v1092h-232v-305h-244z" />
<glyph unicode="U" horiz-adv-x="1568" d="M72 1286v189h618v-189h-188v-762q0 -354 301 -354q121 0 205 84t84 244v788h-181v189h586v-189h-145v-780q0 -248 -172 -406q-145 -129 -402 -129q-254 0 -399 135q-94 90 -127 189.5t-33 228.5v762h-147z" />
<glyph unicode="V" horiz-adv-x="1562" d="M51 1286v189h594v-189h-188l329 -993h7l337 993h-180v189h561v-189h-106l-471 -1292h-316l-464 1292h-103z" />
<glyph unicode="W" horiz-adv-x="2121" d="M61 1286v189h560v-189h-179l203 -993h4l266 1186h334l236 -1186h4l229 993h-178v189h520v-189h-90l-309 -1292h-340l-242 1177h-6l-274 -1177h-346l-291 1292h-101z" />
<glyph unicode="X" horiz-adv-x="1601" d="M61 0v188h109l459 566l-434 532h-105v189h598v-189h-166l305 -397l301 397h-167v189h548v-189h-106l-428 -532l452 -566h113v-188h-610v188h172l-332 428l-319 -428h178v-188h-568z" />
<glyph unicode="Y" horiz-adv-x="1443" d="M45 1286v189h588v-189h-158l264 -471l273 471h-148v189h535v-189h-94l-441 -721v-377h205v-188h-690v188h203v373l-439 725h-98z" />
<glyph unicode="Z" horiz-adv-x="1390" d="M113 0v225l800 1047v10h-546v-278h-232v471h1122v-226l-808 -1046v-10h598v290h231v-483h-1165z" />
<glyph unicode="[" horiz-adv-x="618" d="M92 -342v1870h393v-166h-157v-1536h157v-168h-393z" />
<glyph unicode="\" horiz-adv-x="860" d="M31 1528h190l608 -1671h-188z" />
<glyph unicode="]" horiz-adv-x="618" d="M133 -174h158v1536h-158v166h393v-1870h-393v168z" />
<glyph unicode="^" d="M119 625l454 878h203l455 -878h-244l-311 630h-6l-305 -630h-246z" />
<glyph unicode="_" horiz-adv-x="1105" d="M-6 -113h1118v-184h-1118v184z" />
<glyph unicode="`" horiz-adv-x="579" d="M61 1516h281l176 -306h-170z" />
<glyph unicode="a" horiz-adv-x="1267" d="M115 311q2 102 44 175t114.5 111t153.5 55.5t175 17.5q61 0 184 -17v60q0 243 -179 243h-1q-88 0 -132 -54t-44 -150h-274q0 106 51 198q98 170 397 170q145 0 225 -33q123 -51 170.5 -139t49.5 -248l6 -518h141v-182h-377l-6 166l-6 2q-92 -197 -340 -197 q-162 0 -259 88q-93 85 -93 239v13zM389 303q4 -70 42 -109.5t106 -39.5q123 0 183 102t66 244q-72 20 -145 20q-133 -2 -195 -62q-58 -56 -57 -143v-12z" />
<glyph unicode="b" d="M72 0v182h141v1110h-141v183h413v-533h9q53 98 126.5 138t194.5 40q154 0 257.5 -81t145.5 -201.5t42 -274.5q0 -115 -24 -215t-73 -187t-138 -138.5t-210 -51.5q-236 1 -332 191h-8l-6 -162h-397zM483 559q0 -72 10.5 -135.5t36 -127t77.5 -101t126 -37.5q231 0 232 387 q0 393 -232 393q-115 0 -182.5 -101.5t-67.5 -277.5z" />
<glyph unicode="c" horiz-adv-x="1185" d="M92 563q0 227 115 391q119 166 344 166q109 0 180.5 -29.5t114.5 -107.5h6v111h213v-414h-225q-25 256 -211 256q-244 0 -244 -412q0 -90 19.5 -167.5t78 -140t146.5 -62.5q86 0 138 61t62 150h244q-8 -186 -133 -290t-332 -104q-254 0 -385 165t-131 427z" />
<glyph unicode="d" d="M92 563q0 240 108.5 398.5t334.5 158.5q121 0 195.5 -40t127.5 -138h6v350h-141v183h416v-1293h141v-182h-399l-4 162h-11q-94 -190 -331 -191q-158 0 -261.5 91.5t-142.5 218.5t-39 282zM387 545q0 -387 229 -387q74 0 126.5 37.5t78 101t35.5 127t10 135.5 q0 176 -67.5 277.5t-182.5 101.5q-229 0 -229 -393z" />
<glyph unicode="e" horiz-adv-x="1200" d="M92 561q0 246 132 402.5t372 156.5q250 0 379 -136t129 -382q0 -78 -6 -113h-727q0 -145 61.5 -240t188.5 -95q80 0 134 52t70 136h262q-27 -190 -157.5 -280.5t-319.5 -90.5q-242 0 -380 160t-138 430zM377 647l446 -2q2 20 2 35q0 115 -53 193.5t-158 78.5 q-115 0 -172 -87t-65 -218z" />
<glyph unicode="f" horiz-adv-x="862" d="M92 911v183h166v65q0 199 99.5 271.5t289.5 72.5q94 0 164 -28v-185q-66 12 -109 13q-166 0 -165 -148v-61h208v-183h-210v-729h180v-182h-600v182h145v729h-168z" />
<glyph unicode="g" horiz-adv-x="1290" d="M92 -100q0 72 55.5 116.5t165.5 77.5v4q-168 49 -168 162q0 115 201 191v4q-192 90 -192 280v10q4 166 136 270.5t341 104.5q174 0 311 -90q100 117 250 117q20 0 57 -4v-211q-49 16 -102 16q-61 0 -103 -24q57 -78 56 -199q-2 -104 -62.5 -182t-151.5 -113t-196 -47 q-36 -4 -69 -4q-67 0 -127 16q-76 -29 -76 -73q0 -68 293 -78q25 -2 37 -2q246 -10 348 -69.5t102 -209.5q0 -160 -149.5 -247t-430.5 -87q-256 0 -391 70t-135 201zM371 -70q0 -55 66.5 -89t174.5 -34q150 0 237 39t87 99q0 82 -162 86q-137 2 -278 12q-125 -51 -125 -113z M434 752q0 -88 59.5 -137.5t141.5 -49.5q80 0 138 49.5t58 137.5q0 78 -58 133t-140 55t-140.5 -55t-58.5 -133z" />
<glyph unicode="h" horiz-adv-x="1337" d="M72 0v182h139v1110h-139v183h411v-519h4q57 90 129 127t181 37q160 0 250 -82q92 -80 92 -239v-617h137v-182h-545v182h129v518q0 121 -35 168q-47 63 -125 64q-115 0 -166 -93.5t-51 -220.5v-436h135v-182h-546z" />
<glyph unicode="i" horiz-adv-x="731" d="M113 0v182h145v729h-145v183h419v-912h127v-182h-546zM260 1237v250h272v-250h-272z" />
<glyph unicode="j" horiz-adv-x="727" d="M92 -160q47 -14 94 -14q119 0 119 123v962h-143v183h418v-1246q0 -78 -31 -124q-70 -94 -268 -95q-111 0 -189 25v186zM307 1237v250h273v-250h-273z" />
<glyph unicode="k" horiz-adv-x="1300" d="M72 0v182h141v1110h-141v183h413v-865h9l333 301h-151v183h559v-183h-143l-261 -223l306 -506h112v-182h-516v182h113l-189 336l-172 -143v-193h121v-182h-534z" />
<glyph unicode="l" horiz-adv-x="708" d="M82 0v182h137v1110h-137v183h412v-1293h133v-182h-545z" />
<glyph unicode="m" horiz-adv-x="1976" d="M72 0v182h143v729h-143v183h397l4 -166h6q108 192 334 192h2q238 0 303 -198h4q94 198 320 198h2q143 0 227 -71q111 -98 111 -275v-592h133v-182h-535v182h121v527q0 92 -37 152.5t-121 60.5q-100 0 -153 -79t-53 -184v-477h127v-182h-527v182h125v527q0 213 -151 213 q-102 0 -160.5 -80t-58.5 -187v-473h129v-182h-549z" />
<glyph unicode="n" horiz-adv-x="1335" d="M72 0v182h143v729h-143v183h395l6 -166h4q57 102 133 149t191 47q125 0 209 -59q129 -86 129 -256v-627h135v-182h-535v182h125v523q0 123 -53 180q-41 47 -111 47q-211 0 -211 -316v-434h132v-182h-549z" />
<glyph unicode="o" horiz-adv-x="1257" d="M92 551q0 254 142.5 411.5t394.5 157.5t394 -157.5t142 -411.5q0 -260 -148.5 -420t-388 -160t-388 160t-148.5 420zM383 551q0 -86 19.5 -169t78 -154.5t148.5 -71.5t148.5 71.5t77.5 154.5t19 169q0 88 -20 171t-78.5 151.5t-146.5 68.5t-146.5 -68.5t-79 -151.5 t-20.5 -171z" />
<glyph unicode="p" horiz-adv-x="1353" d="M72 -160h143v1071h-143v183h399l6 -164h8q92 190 332 190q119 0 208 -51t139 -137t74 -187.5t24 -214.5q0 -154 -42 -275.5t-145.5 -202.5t-257.5 -81q-119 0 -193.5 41t-127.5 140h-9v-312h156v-182h-571v182zM485 535q0 -176 68 -277.5t182 -101.5q231 0 232 393 q0 387 -232 387q-74 0 -126 -38t-77.5 -101.5t-36 -126.5t-10.5 -135z" />
<glyph unicode="q" horiz-adv-x="1353" d="M92 530q0 113 23.5 214.5t74 187.5t139.5 137t208 51q240 0 331 -190h9l6 164h399v-183h-143v-1071h143v-182h-571v182h155v312h-8q-53 -98 -128 -139.5t-193 -41.5q-154 0 -257.5 81t-145.5 203t-42 275zM387 549q0 -393 231 -393q115 0 182.5 101.5t67.5 277.5 q0 72 -10 135t-35.5 126.5t-78 101.5t-126.5 38q-231 0 -231 -387z" />
<glyph unicode="r" horiz-adv-x="946" d="M113 911v183h397l6 -205h6q76 231 312 231l61 -4v-274q-47 18 -121 18q-115 -2 -176 -86t-61 -225v-367h172v-182h-594v182h143v729h-145z" />
<glyph unicode="s" horiz-adv-x="1130" d="M133 805q0 164 137 256q92 59 244 59h3q164 0 247 -110h6v84h197v-355h-203q-20 217 -191 217q-74 0 -122 -35.5t-48 -105.5q0 -96 105 -115l223 -51q266 -61 266 -330q0 -162 -105.5 -255t-279.5 -93q-178 0 -270 121h-6v-92h-201l2 379h215q10 -231 213 -232 q61 0 107.5 39t46.5 101q0 68 -36 95.5t-110 43.5l-188 43q-115 25 -183.5 113t-68.5 223z" />
<glyph unicode="t" horiz-adv-x="880" d="M31 911v183h168v196l272 96v-292h272v-183h-274v-680q0 -77 74 -77h2q74 0 74 161q0 21 -1 45h168q1 -19 0 -38q0 -167 -49 -238q-76 -113 -229 -113q-150 0 -229.5 72t-79.5 213v655h-168z" />
<glyph unicode="u" horiz-adv-x="1339" d="M72 911v183h411v-717q0 -203 168 -203q96 0 146.5 87t50.5 196v454h-146v183h422v-912h144v-182h-396l-4 168h-8q-90 -197 -319 -197q-125 0 -217 70q-68 55 -90.5 120.5t-22.5 170.5v579h-139z" />
<glyph unicode="v" horiz-adv-x="1267" d="M51 911v183h518v-183h-133l197 -678h10l221 678h-137v183h490v-183h-89l-325 -915h-338l-324 915h-90z" />
<glyph unicode="w" horiz-adv-x="1980" d="M72 911v183h520v-183h-143l149 -690h10l228 877h333l201 -877h10l183 690h-138v183h484v-183h-101l-266 -915h-346l-192 809h-11l-219 -809h-346l-262 915h-94z" />
<glyph unicode="x" horiz-adv-x="1341" d="M72 0v182h104l311 383l-270 346h-106v183h491v-183h-98l194 -247l199 247h-104v183h452v-183h-108l-281 -346l318 -383h96v-182h-504v182h111l-226 283l-227 -283h106v-182h-458z" />
<glyph unicode="y" horiz-adv-x="1298" d="M59 911v183h537v-183h-139l217 -549h6l201 549h-129v183h495v-183h-100l-420 -1071h150v-182h-570v182h158l84 205l-381 866h-109z" />
<glyph unicode="z" horiz-adv-x="1148" d="M133 0v207l569 702v6h-331v-161h-209v340h866v-203l-577 -703v-6h376v183h209v-365h-903z" />
<glyph unicode="{" horiz-adv-x="731" d="M51 526v133q59 4 99 42t40 108v473q0 131 75 188.5t222 57.5h111v-152h-37q-68 0 -101.5 -29.5t-33.5 -119.5v-387q0 -207 -188 -244v-6q188 -37 188 -244v-387q0 -90 34 -119.5t101 -29.5h37v-152h-111q-147 0 -222 57.5t-75 188.5v473q0 70 -39.5 107.5t-99.5 41.5z " />
<glyph unicode="|" horiz-adv-x="598" d="M205 -371v2048h188v-2048h-188z" />
<glyph unicode="}" horiz-adv-x="731" d="M133 -190h37q68 0 101.5 29.5t33.5 119.5v387q1 207 189 244v6q-188 37 -189 244v387q0 90 -33.5 119.5t-101.5 29.5h-37v152h111q147 0 222 -57.5t75 -188.5v-473q0 -70 40 -107.5t99 -42.5v-133q-59 -4 -99 -42t-40 -107v-473q0 -131 -75 -188.5t-222 -57.5h-111v152z " />
<glyph unicode="~" d="M82 524q63 111 139 178q90 78 209 78q88 0 285 -75q166 -64 207 -64q68 0 112.5 47t89.5 133l146 -155q-61 -106 -140 -177q-88 -78 -206 -77q-94 0 -285 75q-12 4 -36.5 14.5t-33 13.5t-27 10t-25.5 10.5t-21.5 7.5t-22.5 5t-19.5 2t-21.5 1q-37 0 -67.5 -14.5t-56 -44 t-41 -55t-38.5 -66.5z" />
<glyph unicode="&#xa1;" horiz-adv-x="720" d="M92 -342l64 1036h204l64 -1036h-332zM121 825v269h274v-269h-274z" />
<glyph unicode="&#xa2;" horiz-adv-x="1167" d="M92 563q0 225 117 391q109 158 326 166v166h153v-182q102 -29 158 -121h8v111h211v-414h-223q-23 211 -154 248v-766q61 18 98 74.5t43 128.5h246q-8 -170 -111.5 -270.5t-275.5 -119.5v-198h-153v198q-217 25 -330 186t-113 402zM385 524q0 -113 36 -211t114 -137v742 q-150 -75 -150 -394z" />
<glyph unicode="&#xa3;" horiz-adv-x="1269" d="M113 0v188h151l39 506h-162v189h178l19 211q16 219 126.5 314t319.5 95q193 0 303.5 -102.5t108.5 -294.5h-266q8 209 -142 215q-88 4 -129 -48t-49 -155l-16 -235h219v-189h-229l-29 -499h328v225h250v-420h-1020z" />
<glyph unicode="&#xa4;" d="M117 252l184 184q-84 127 -84 287q0 158 82 289l-182 184l116 117l179 -178q125 92 264 92t264 -92l178 178l117 -117l-184 -184q84 -127 84 -289q0 -160 -84 -287l184 -184l-117 -117l-180 178q-109 -86 -262 -86q-152 0 -264 86l-179 -178zM414 723q0 -147 80.5 -225 t181 -78t181.5 77.5t81 225.5q0 133 -70.5 221t-191.5 88t-191.5 -88t-70.5 -221z" />
<glyph unicode="&#xa5;" horiz-adv-x="1423" d="M92 1286v189h576v-189h-133l188 -414h8l201 414h-127v189h526v-189h-108l-222 -414h193v-145h-270l-72 -137v-58h342v-143h-342v-201h205v-188h-690v188h202v201h-342v143h342v52l-75 143h-267v145h191l-215 414h-111z" />
<glyph unicode="&#xa6;" horiz-adv-x="598" d="M205 -371v953h188v-953h-188zM205 768v909h188v-909h-188z" />
<glyph unicode="&#xa7;" horiz-adv-x="1265" d="M174 627q0 86 49 154.5t133 99.5v4q-72 39 -112.5 108.5t-40.5 151.5q0 158 124 258t285 100q182 0 306 -94t141 -281h-258q-10 188 -172 189q-70 0 -116 -33.5t-46 -101.5q0 -84 74 -117q158 -72 303 -129q248 -100 248 -307q0 -82 -48.5 -152.5t-123.5 -95.5v-6 q70 -39 110.5 -107.5t40.5 -150.5q0 -133 -106 -238q-109 -102 -326 -102q-70 0 -133.5 10t-123.5 36.5t-103 66.5t-69 104.5t-24 144.5h273q0 -98 53 -146t143 -48q61 0 106.5 35.5t45.5 97.5q0 84 -74 117q-25 10 -311 129q-248 96 -248 303zM420 674q0 -102 127 -156 l198 -80q96 74 97 154q0 92 -119 141l-213 90q-90 -49 -90 -149z" />
<glyph unicode="&#xa8;" horiz-adv-x="690" d="M61 1210v265h220v-265h-220zM410 1210v265h219v-265h-219z" />
<glyph unicode="&#xa9;" horiz-adv-x="1918" d="M195 737.5q0 315.5 224 540.5t539.5 225t540.5 -225t225 -540.5t-225 -541t-540.5 -225.5t-539.5 225.5t-224 541zM336 737q0 -258 182 -441t440.5 -183t441.5 184t183 440t-183 440.5t-441.5 184.5t-440.5 -183.5t-182 -441.5zM547 727q0 203 110.5 335t300.5 128 q153 -5 216 -111h4v92h139v-356h-137q-8 113 -64.5 179.5t-152.5 66.5q-123 0 -185.5 -94.5t-62.5 -239.5q0 -137 62.5 -233.5t185.5 -96.5q168 0 202 234h162q-10 -162 -102 -263.5t-258 -101.5q-209 0 -314.5 130t-105.5 331z" />
<glyph unicode="&#xaa;" horiz-adv-x="802" d="M51 1004q0 121 93.5 177t226.5 56q49 0 112 -10v30q0 127 -106 127q-49 0 -77 -31.5t-28 -84.5h-194q8 236 301 235q295 0 295 -248v-321h78v-127h-246l-4 76h-6q-80 -90 -211 -90q-96 0 -165 53t-69 158zM248 1001q0 -35 23.5 -58t60.5 -23q76 0 112.5 51t38.5 131 q-37 14 -92 14q-143 0 -143 -115z" />
<glyph unicode="&#xab;" horiz-adv-x="1028" d="M92 575l189 467h206l-178 -467l178 -469h-206zM453 575l188 467h207l-178 -467l178 -469h-207z" />
<glyph unicode="&#xac;" d="M119 625v211h1112v-648h-213v437h-899z" />
<glyph unicode="&#xad;" horiz-adv-x="821" d="M92 465v229h637v-229h-637z" />
<glyph unicode="&#xae;" horiz-adv-x="1077" d="M92 1087.5q0 184.5 131 315.5t315.5 131t315.5 -131t131 -315.5t-131 -315.5t-315.5 -131t-315.5 131t-131 315.5zM195 1087.5q0 -143.5 100 -244t243.5 -100.5t244 100.5t100.5 244t-100.5 244t-244 100.5t-243.5 -100.5t-100 -244zM326 856v84h53v303h-53v88h243 q68 0 110 -38.5t42 -104.5q0 -31 -18.5 -62.5t-47.5 -44.5v-4q27 -12 41 -47l33 -90h45v-84h-153l-41 141q-14 45 -35 45h-43v-102h57v-84h-233zM502 1133h49q18 0 31.5 14t13.5 39q0 57 -49 57h-45v-110z" />
<glyph unicode="&#xaf;" horiz-adv-x="716" d="M61 1280v170h594v-170h-594z" />
<glyph unicode="&#xb0;" horiz-adv-x="739" d="M72 1223q0 131 88 219t219 88t220 -88t89 -219t-90 -221.5t-219 -90.5t-218 90.5t-89 221.5zM238 1223q0 -63 39.5 -104.5t101 -41.5t101.5 41t40 105q0 61 -41 101t-100.5 40t-100 -40t-40.5 -101z" />
<glyph unicode="&#xb1;" d="M119 0v203h1112v-203h-1112zM119 575v203h452v316h207v-316h453v-203h-453v-315h-207v315h-452z" />
<glyph unicode="&#xb2;" horiz-adv-x="819" d="M92 772v172q164 152 311 291q51 49 77 90t30 61.5t4 51.5q0 47 -29.5 77.5t-74.5 30.5q-113 0 -121 -155h-197q0 141 85 213.5t231 72.5q135 0 222 -58t87 -187q0 -43 -7.5 -76t-46 -93.5t-112.5 -129.5q-70 -68 -256 -213v-7h268v119h164v-260h-635z" />
<glyph unicode="&#xb3;" horiz-adv-x="827" d="M92 1044h199q10 -150 129 -149q51 0 83 37t32 92q0 88 -48.5 116.5t-140.5 18.5v135q180 -8 180 133q0 55 -30.5 88t-81.5 33q-113 0 -117 -155h-195q0 139 84 215q82 70 240 69q125 0 210 -59t85 -182q-1 -150 -148 -203v-6q162 -43 162 -213q0 -133 -94 -195.5 t-233 -62.5q-135 0 -224.5 71.5t-91.5 216.5z" />
<glyph unicode="&#xb4;" horiz-adv-x="579" d="M61 1210l177 306h280l-289 -306h-168z" />
<glyph unicode="&#xb5;" horiz-adv-x="1349" d="M82 911v183h410v-688q0 -231 170 -232q98 0 148 109.5t50 240.5v387h-147v183h422v-912h143v-182h-395l-4 176h-9q-70 -205 -241 -205q-76 0 -146 41l11 -354h-273v1253h-139z" />
<glyph unicode="&#xb6;" horiz-adv-x="1216" d="M133 1104q0 158 106.5 264.5t266.5 106.5h577v-1676h-186v1467h-211v-1467h-186v940q-160 10 -263.5 109.5t-103.5 255.5z" />
<glyph unicode="&#xb7;" horiz-adv-x="667" d="M195 569v269h278v-269h-278z" />
<glyph unicode="&#xb8;" horiz-adv-x="593" d="M61 -365l50 97q53 -37 136 -36t83 62q0 39 -43 50.5t-84 -11.5l-62 60l99 155h137l-88 -106l2 -2q104 23 172.5 -20.5t68.5 -119.5q0 -92 -70.5 -140t-168.5 -48q-119 0 -232 59z" />
<glyph unicode="&#xb9;" horiz-adv-x="763" d="M113 1315v190q78 41 219 164h182v-760h137v-137h-495v137h161v557q-102 -94 -204 -151z" />
<glyph unicode="&#xba;" horiz-adv-x="790" d="M51 1155q0 160 91 254t253 94t253 -94t91 -254q0 -168 -88 -265t-256 -97q-166 0 -255 97t-89 265zM256 1145q0 -88 35 -155.5t104.5 -67.5t104.5 67.5t35 155.5q0 90 -33 160.5t-106.5 70.5t-106.5 -70.5t-33 -160.5z" />
<glyph unicode="&#xbb;" horiz-adv-x="1028" d="M180 106l178 469l-178 467h207l188 -467l-188 -469h-207zM541 106l178 469l-178 467h207l188 -467l-188 -469h-207z" />
<glyph unicode="&#xbc;" horiz-adv-x="1781" d="M117 1133v190q78 41 219 164h182v-760h137v-137h-495v137h162v557q-102 -94 -205 -151zM408 0l876 1475h172l-876 -1475h-172zM981 223v160l336 514h227v-541h119v-133h-119v-86h119v-137h-449v137h136v86h-369zM1141 356h209v324h-4z" />
<glyph unicode="&#xbd;" horiz-adv-x="1781" d="M86 1133v190q78 41 219 164h182v-760h138v-137h-496v137h162v557q-102 -94 -205 -151zM377 0l876 1475h172l-876 -1475h-172zM1061 0v172q164 152 311 291q51 49 77 90t30 61.5t4 51.5q0 47 -30 77.5t-75 30.5q-113 0 -121 -156h-196q0 139 85 213t230 74 q135 0 222.5 -58.5t87.5 -187.5q0 -43 -7.5 -75.5t-46.5 -93t-112 -130.5q-70 -68 -256 -213v-6h268v119h164v-260h-635z" />
<glyph unicode="&#xbe;" horiz-adv-x="1781" d="M96 872h199q10 -150 129 -149q51 0 83 37t32 92q0 88 -48.5 116.5t-140.5 18.5v135q180 -8 180 133q0 55 -30.5 88t-81.5 33q-113 0 -117 -155h-195q0 139 84 215q82 70 240 69q125 0 210 -59.5t85 -181.5q0 -150 -147 -203v-6q162 -43 161 -213q0 -133 -94 -195.5 t-233 -62.5q-135 0 -224.5 71.5t-91.5 216.5zM420 0l876 1475h172l-876 -1475h-172zM1001 223v160l336 514h228v-541h118v-133h-118v-86h118v-137h-448v137h135v86h-369zM1161 356h209v324h-4z" />
<glyph unicode="&#xbf;" horiz-adv-x="1187" d="M92 18q0 82 40 171.5t101 150.5l148 145q12 12 22.5 28.5t17.5 30t11 33t7 30.5t4 33t1 30v29.5v23.5h277q0 -237 -111 -350l-151 -164q-80 -80 -80 -199q0 -82 41 -134t121 -52q162 0 176 203h276q-12 -178 -132 -288t-316 -110q-203 0 -328 98.5t-125 290.5zM444 825 v269h275v-269h-275z" />
<glyph unicode="&#xc0;" horiz-adv-x="1679" d="M72 0v188h116l488 1293h338l481 -1293h113v-188h-594v188h174l-90 263h-549l-94 -263h178v-188h-561zM549 1896h280l177 -305h-170zM616 637h410l-203 604h-4z" />
<glyph unicode="&#xc1;" horiz-adv-x="1679" d="M72 0v188h116l488 1293h338l481 -1293h113v-188h-594v188h174l-90 263h-549l-94 -263h178v-188h-561zM616 637h410l-203 604h-4zM672 1591l176 305h280l-288 -305h-168z" />
<glyph unicode="&#xc2;" horiz-adv-x="1679" d="M72 0v188h116l488 1293h338l481 -1293h113v-188h-594v188h174l-90 263h-549l-94 -263h178v-188h-561zM508 1599l219 293h225l219 -293h-186l-143 179h-4l-144 -179h-186zM616 637h410l-203 604h-4z" />
<glyph unicode="&#xc3;" horiz-adv-x="1679" d="M72 0v188h116l488 1293h338l481 -1293h113v-188h-594v188h174l-90 263h-549l-94 -263h178v-188h-561zM512 1604q10 133 59.5 206.5t124.5 73.5q59 0 146.5 -44t120.5 -44q41 0 60 20.5t30 73.5h114q-10 -133 -59 -206.5t-125 -73.5q-57 0 -145 44t-121 44 q-39 0 -58.5 -20.5t-29.5 -73.5h-117zM616 637h410l-203 604h-4z" />
<glyph unicode="&#xc4;" horiz-adv-x="1679" d="M72 0v188h116l488 1293h338l481 -1293h113v-188h-594v188h174l-90 263h-549l-94 -263h178v-188h-561zM555 1591v264h219v-264h-219zM616 637h410l-203 604h-4zM903 1591v264h219v-264h-219z" />
<glyph unicode="&#xc5;" horiz-adv-x="1679" d="M72 0v188h116l488 1293h338l481 -1293h113v-188h-594v188h174l-90 263h-549l-94 -263h178v-188h-561zM616 637h410l-203 604h-4zM625 1776q0 88 63.5 151.5t151.5 63.5t150.5 -63.5t62.5 -151.5t-62.5 -151.5t-150.5 -63.5q-90 0 -152.5 63.5t-62.5 151.5zM750 1776 q0 -39 25.5 -66t64.5 -27t63.5 27t24.5 66t-24.5 65.5t-63.5 26.5t-64.5 -26.5t-25.5 -65.5z" />
<glyph unicode="&#xc6;" horiz-adv-x="2152" d="M31 0v188h104l604 1287h1237v-451h-225v258h-590l76 -440h213v190h197v-563h-197v184h-180l80 -460h426v274h223v-467h-1098v188h182l-41 263h-516l-116 -263h155v-188h-534zM610 637h402l-103 659h-6z" />
<glyph unicode="&#xc7;" horiz-adv-x="1568" d="M113 756q0 209 66.5 373.5t215 269t359.5 104.5q274 0 409 -162h6v134h230v-531h-246q-37 365 -344 365q-111 0 -190.5 -52.5t-120.5 -139.5t-59.5 -180t-18.5 -198q0 -106 16.5 -198t55 -181.5t117.5 -141.5t190 -52q143 0 232 88t97 233h287q-4 -236 -162.5 -368.5 t-400.5 -145.5l-55 -67l2 -2q104 23 172.5 -20.5t68.5 -119.5q0 -92 -70.5 -140t-168.5 -48q-119 0 -232 59l49 97q53 -37 136.5 -36t83.5 62q0 39 -43 50.5t-84 -11.5l-62 60l74 118q-303 25 -456.5 237t-153.5 544z" />
<glyph unicode="&#xc8;" horiz-adv-x="1443" d="M72 0v188h172v1098h-172v189h1218v-451h-223v258h-541v-440h215v190h197v-563h-197v184h-215v-460h541v274h223v-467h-1218zM432 1896h281l176 -305h-170z" />
<glyph unicode="&#xc9;" horiz-adv-x="1443" d="M72 0v188h172v1098h-172v189h1218v-451h-223v258h-541v-440h215v190h197v-563h-197v184h-215v-460h541v274h223v-467h-1218zM555 1591l176 305h281l-289 -305h-168z" />
<glyph unicode="&#xca;" horiz-adv-x="1443" d="M72 0v188h172v1098h-172v189h1218v-451h-223v258h-541v-440h215v190h197v-563h-197v184h-215v-460h541v274h223v-467h-1218zM389 1599l219 293h226l219 -293h-187l-143 179h-4l-144 -179h-186z" />
<glyph unicode="&#xcb;" horiz-adv-x="1443" d="M72 0v188h172v1098h-172v189h1218v-451h-223v258h-541v-440h215v190h197v-563h-197v184h-215v-460h541v274h223v-467h-1218zM438 1591v264h219v-264h-219zM786 1591v264h220v-264h-220z" />
<glyph unicode="&#xcc;" horiz-adv-x="858" d="M102 0v188h185v1098h-185v189h654v-189h-187v-1098h187v-188h-654zM160 1896h280l176 -305h-170z" />
<glyph unicode="&#xcd;" horiz-adv-x="858" d="M102 0v188h185v1098h-185v189h654v-189h-187v-1098h187v-188h-654zM242 1591l176 305h280l-288 -305h-168z" />
<glyph unicode="&#xce;" horiz-adv-x="858" d="M96 1599l219 293h226l219 -293h-187l-143 179h-4l-143 -179h-187zM102 0v188h185v1098h-185v189h654v-189h-187v-1098h187v-188h-654z" />
<glyph unicode="&#xcf;" horiz-adv-x="858" d="M102 0v188h185v1098h-185v189h654v-189h-187v-1098h187v-188h-654zM145 1591v264h220v-264h-220zM494 1591v264h219v-264h-219z" />
<glyph unicode="&#xd0;" horiz-adv-x="1507" d="M72 0v188h172v539h-172v154h172v405h-172v189h708q336 0 514 -226q152 -195 152 -512q0 -436 -254 -614q-180 -123 -455 -123h-665zM526 188h119q143 0 243.5 32t164.5 128q102 152 102 391q0 147 -41 266t-140.5 200t-244.5 81h-203v-405h308v-154h-308v-539z" />
<glyph unicode="&#xd1;" horiz-adv-x="1650" d="M72 0v188h172v1098h-172v189h551l542 -1147h9l-3 958h-172v189h580v-189h-158v-1286h-368l-555 1176h-9l3 -988h161v-188h-581zM518 1604q10 133 59.5 206.5t124.5 73.5q59 0 146.5 -44t120.5 -44q41 0 60.5 20.5t29.5 73.5h115q-10 -133 -59.5 -206.5t-125.5 -73.5 q-57 0 -145 44t-121 44q-39 0 -58.5 -20.5t-29.5 -73.5h-117z" />
<glyph unicode="&#xd2;" horiz-adv-x="1642" d="M113 733q0 371 200 574q190 197 508 196q315 0 506 -196q203 -205 203 -574q0 -358 -186.5 -560t-522.5 -202t-522 202t-186 560zM418 737.5q0 -106.5 20.5 -204t64.5 -184.5t126 -139t192.5 -52t191.5 52t125 139t64.5 184.5t20.5 204t-20.5 203.5t-64.5 184t-125 139.5 t-191.5 52.5t-192.5 -52.5t-126 -139.5t-64.5 -184t-20.5 -203.5zM530 1896h281l176 -305h-170z" />
<glyph unicode="&#xd3;" horiz-adv-x="1642" d="M113 733q0 371 200 574q190 197 508 196q315 0 506 -196q203 -205 203 -574q0 -358 -186.5 -560t-522.5 -202t-522 202t-186 560zM418 737.5q0 -106.5 20.5 -204t64.5 -184.5t126 -139t192.5 -52t191.5 52t125 139t64.5 184.5t20.5 204t-20.5 203.5t-64.5 184t-125 139.5 t-191.5 52.5t-192.5 -52.5t-126 -139.5t-64.5 -184t-20.5 -203.5zM653 1591l176 305h281l-289 -305h-168z" />
<glyph unicode="&#xd4;" horiz-adv-x="1642" d="M113 733q0 371 200 574q190 197 508 196q315 0 506 -196q203 -205 203 -574q0 -358 -186.5 -560t-522.5 -202t-522 202t-186 560zM418 737.5q0 -106.5 20.5 -204t64.5 -184.5t126 -139t192.5 -52t191.5 52t125 139t64.5 184.5t20.5 204t-20.5 203.5t-64.5 184t-125 139.5 t-191.5 52.5t-192.5 -52.5t-126 -139.5t-64.5 -184t-20.5 -203.5zM489 1599l220 293h225l219 -293h-186l-144 179h-4l-143 -179h-187z" />
<glyph unicode="&#xd5;" horiz-adv-x="1642" d="M113 733q0 371 200 574q190 197 508 196q315 0 506 -196q203 -205 203 -574q0 -358 -186.5 -560t-522.5 -202t-522 202t-186 560zM418 737.5q0 -106.5 20.5 -204t64.5 -184.5t126 -139t192.5 -52t191.5 52t125 139t64.5 184.5t20.5 204t-20.5 203.5t-64.5 184t-125 139.5 t-191.5 52.5t-192.5 -52.5t-126 -139.5t-64.5 -184t-20.5 -203.5zM494 1604q10 133 59 206.5t125 73.5q59 0 146 -44t120 -44q41 0 60.5 20.5t29.5 73.5h115q-10 -133 -59.5 -206.5t-124.5 -73.5q-57 0 -145.5 44t-121.5 44q-39 0 -58.5 -20.5t-29.5 -73.5h-116z" />
<glyph unicode="&#xd6;" horiz-adv-x="1642" d="M113 733q0 371 200 574q190 197 508 196q315 0 506 -196q203 -205 203 -574q0 -358 -186.5 -560t-522.5 -202t-522 202t-186 560zM418 737.5q0 -106.5 20.5 -204t64.5 -184.5t126 -139t192.5 -52t191.5 52t125 139t64.5 184.5t20.5 204t-20.5 203.5t-64.5 184t-125 139.5 t-191.5 52.5t-192.5 -52.5t-126 -139.5t-64.5 -184t-20.5 -203.5zM537 1591v264h219v-264h-219zM885 1591v264h219v-264h-219z" />
<glyph unicode="&#xd7;" d="M174 178l356 357l-354 352l146 145l352 -354l356 356l148 -147l-355 -355l355 -354l-148 -145l-352 354l-356 -356z" />
<glyph unicode="&#xd8;" horiz-adv-x="1662" d="M123 733q0 369 203 574q190 197 505 196q250 0 424 -125l127 162l95 -80l-129 -164q193 -201 192 -563q0 -358 -186.5 -560t-522.5 -202q-258 0 -432 123l-125 -157l-94 79l127 160q-184 201 -184 557zM430 733q0 -186 57 -327l619 784q-111 129 -275 129 q-197 0 -305 -170q-96 -146 -96 -416zM553 289q100 -131 278 -131q111 0 193 51t126 138t64.5 183.5t20.5 202.5q0 211 -59 346z" />
<glyph unicode="&#xd9;" horiz-adv-x="1568" d="M72 1286v189h618v-189h-188v-762q0 -354 301 -354q121 0 205 84t84 244v788h-181v189h586v-189h-145v-780q0 -248 -172 -406q-145 -129 -402 -129q-254 0 -399 135q-94 90 -127 189.5t-33 228.5v762h-147zM494 1896h280l176 -305h-170z" />
<glyph unicode="&#xda;" horiz-adv-x="1568" d="M72 1286v189h618v-189h-188v-762q0 -354 301 -354q121 0 205 84t84 244v788h-181v189h586v-189h-145v-780q0 -248 -172 -406q-145 -129 -402 -129q-254 0 -399 135q-94 90 -127 189.5t-33 228.5v762h-147zM637 1591l176 305h281l-289 -305h-168z" />
<glyph unicode="&#xdb;" horiz-adv-x="1568" d="M72 1286v189h618v-189h-188v-762q0 -354 301 -354q121 0 205 84t84 244v788h-181v189h586v-189h-145v-780q0 -248 -172 -406q-145 -129 -402 -129q-254 0 -399 135q-94 90 -127 189.5t-33 228.5v762h-147zM453 1599l219 293h225l219 -293h-186l-144 179h-4l-143 -179 h-186z" />
<glyph unicode="&#xdc;" horiz-adv-x="1568" d="M72 1286v189h618v-189h-188v-762q0 -354 301 -354q121 0 205 84t84 244v788h-181v189h586v-189h-145v-780q0 -248 -172 -406q-145 -129 -402 -129q-254 0 -399 135q-94 90 -127 189.5t-33 228.5v762h-147zM500 1591v264h219v-264h-219zM848 1591v264h219v-264h-219z" />
<glyph unicode="&#xdd;" horiz-adv-x="1443" d="M45 1286v189h588v-189h-158l264 -471l273 471h-148v189h535v-189h-94l-441 -721v-377h205v-188h-690v188h203v373l-439 725h-98zM596 1591l176 305h281l-289 -305h-168z" />
<glyph unicode="&#xde;" horiz-adv-x="1339" d="M72 0v188h172v1098h-172v189h628v-189h-174v-133h265q193 0 324.5 -104.5t131.5 -298.5q0 -207 -120.5 -313.5t-333.5 -106.5h-267v-142h174v-188h-628zM526 512h162q133 0 196.5 62.5t63.5 162.5q0 106 -63.5 168t-192.5 62h-166v-455z" />
<glyph unicode="&#xdf;" horiz-adv-x="1384" d="M113 0v182h151l4 924q0 205 154 305q135 92 338 92q205 0 324.5 -92t119.5 -283q0 -270 -260 -327v-8q160 -16 244 -114.5t84 -256.5q0 -145 -66.5 -255t-204.5 -147q-78 -20 -262 -20v182q125 0 182.5 56.5t57.5 183.5q0 276 -274 276v195q74 0 124 31q94 53 95 198 q0 199 -183 199q-135 0 -180 -117q-20 -47 -20 -162v-860h92v-182h-520z" />
<glyph unicode="&#xe0;" horiz-adv-x="1267" d="M115 311q2 102 44 175t114.5 111t153.5 55.5t175 17.5q61 0 184 -17v60q0 244 -180 243q-88 0 -132 -54t-44 -150h-274q0 106 51 198q98 170 397 170q145 0 225 -33q123 -51 170.5 -139t49.5 -248l6 -518h141v-182h-377l-6 166l-6 2q-92 -197 -340 -197q-162 0 -259 88 t-93 252zM365 1516h280l176 -306h-170zM389 303q4 -70 42 -109.5t106 -39.5q123 0 183 102t66 244q-72 20 -145 20q-133 -2 -194.5 -61.5t-57.5 -155.5z" />
<glyph unicode="&#xe1;" horiz-adv-x="1267" d="M115 311q2 102 44 175t114.5 111t153.5 55.5t175 17.5q61 0 184 -17v60q0 244 -180 243q-88 0 -132 -54t-44 -150h-274q0 106 51 198q98 170 397 170q145 0 225 -33q123 -51 170.5 -139t49.5 -248l6 -518h141v-182h-377l-6 166l-6 2q-92 -197 -340 -197q-162 0 -259 88 t-93 252zM389 303q4 -70 42 -109.5t106 -39.5q123 0 183 102t66 244q-72 20 -145 20q-133 -2 -194.5 -61.5t-57.5 -155.5zM446 1210l177 306h280l-289 -306h-168z" />
<glyph unicode="&#xe2;" horiz-adv-x="1267" d="M115 311q2 102 44 175t114.5 111t153.5 55.5t175 17.5q61 0 184 -17v60q0 244 -180 243q-88 0 -132 -54t-44 -150h-274q0 106 51 198q98 170 397 170q145 0 225 -33q123 -51 170.5 -139t49.5 -248l6 -518h141v-182h-377l-6 166l-6 2q-92 -197 -340 -197q-162 0 -259 88 t-93 252zM301 1219l219 292h225l220 -292h-187l-143 178h-4l-144 -178h-186zM389 303q4 -70 42 -109.5t106 -39.5q123 0 183 102t66 244q-72 20 -145 20q-133 -2 -194.5 -61.5t-57.5 -155.5z" />
<glyph unicode="&#xe3;" horiz-adv-x="1267" d="M115 311q2 102 44 175t114.5 111t153.5 55.5t175 17.5q61 0 184 -17v60q0 244 -180 243q-88 0 -132 -54t-44 -150h-274q0 106 51 198q98 170 397 170q145 0 225 -33q123 -51 170.5 -139t49.5 -248l6 -518h141v-182h-377l-6 166l-6 2q-92 -197 -340 -197q-162 0 -259 88 t-93 252zM305 1223q10 133 59.5 206.5t124.5 73.5q59 0 146.5 -44t120.5 -44q41 0 60.5 20.5t29.5 73.5h115q-10 -133 -59.5 -206.5t-125.5 -73.5q-57 0 -145 44t-121 44q-39 0 -58.5 -20.5t-29.5 -73.5h-117zM389 303q4 -70 42 -109.5t106 -39.5q123 0 183 102t66 244 q-72 20 -145 20q-133 -2 -194.5 -61.5t-57.5 -155.5z" />
<glyph unicode="&#xe4;" horiz-adv-x="1267" d="M115 311q2 102 44 175t114.5 111t153.5 55.5t175 17.5q61 0 184 -17v60q0 244 -180 243q-88 0 -132 -54t-44 -150h-274q0 106 51 198q98 170 397 170q145 0 225 -33q123 -51 170.5 -139t49.5 -248l6 -518h141v-182h-377l-6 166l-6 2q-92 -197 -340 -197q-162 0 -259 88 t-93 252zM350 1210v265h219v-265h-219zM389 303q4 -70 42 -109.5t106 -39.5q123 0 183 102t66 244q-72 20 -145 20q-133 -2 -194.5 -61.5t-57.5 -155.5zM698 1210v265h220v-265h-220z" />
<glyph unicode="&#xe5;" horiz-adv-x="1267" d="M115 311q2 102 44 175t114.5 111t153.5 55.5t175 17.5q61 0 184 -17v60q0 244 -180 243q-88 0 -132 -54t-44 -150h-274q0 106 51 198q98 170 397 170q145 0 225 -33q123 -51 170.5 -139t49.5 -248l6 -518h141v-182h-377l-6 166l-6 2q-92 -197 -340 -197q-162 0 -259 88 t-93 252zM389 303q4 -70 42 -109.5t106 -39.5q123 0 183 102t66 244q-72 20 -145 20q-133 -2 -194.5 -61.5t-57.5 -155.5zM420 1395q0 88 63.5 151.5t151.5 63.5t150.5 -63.5t62.5 -151.5t-62.5 -151.5t-150.5 -63.5q-90 0 -152.5 63.5t-62.5 151.5zM545 1395 q0 -39 25.5 -65.5t64.5 -26.5t63.5 26.5t24.5 65.5t-24.5 65.5t-63.5 26.5t-64.5 -26.5t-25.5 -65.5z" />
<glyph unicode="&#xe6;" horiz-adv-x="1765" d="M92 317q2 158 125 248q106 80 361 80h174v72q4 246 -179 246q-88 0 -132 -56.5t-44 -152.5l-264 -2q0 109 47 198q88 170 373 170q131 0 209 -31.5t135 -127.5h4q111 160 316 159q227 0 342.5 -136t115.5 -382q0 -53 -6 -115h-651q-4 -143 50 -238t169 -95q74 0 118 51 t56 137h260q-25 -188 -145.5 -279.5t-294.5 -91.5q-281 1 -383 234h-4q-35 -78 -85 -129t-113.5 -71.5t-110 -27t-107.5 -6.5q-147 0 -242.5 92.5t-93.5 253.5zM354 297q4 -72 47 -116t113 -44q117 0 177.5 105.5t60.5 242.5v2h-181q-98 0 -160.5 -52t-56.5 -138zM1024 645 h387q2 25 2 35q0 119 -46 200t-136 81q-100 0 -152.5 -92.5t-54.5 -223.5z" />
<glyph unicode="&#xe7;" horiz-adv-x="1185" d="M92 563q0 227 115 391q119 166 344 166q109 0 180.5 -29.5t114.5 -107.5h6v111h213v-414h-225q-25 256 -211 256q-244 0 -244 -412q0 -90 19.5 -167.5t78 -140t146.5 -62.5q86 0 138 61t62 150h244q-8 -176 -118.5 -277.5t-295.5 -114.5l-55 -67l2 -2q104 23 173 -20.5 t69 -119.5q0 -92 -70.5 -140t-169.5 -48q-118 0 -231 59l49 97q53 -37 136 -36t83 62q0 39 -43 50.5t-84 -11.5l-61 60l73 118q-215 25 -326.5 187t-111.5 401z" />
<glyph unicode="&#xe8;" horiz-adv-x="1200" d="M92 561q0 246 132 402.5t372 156.5q250 0 379 -136t129 -382q0 -78 -6 -113h-727q0 -145 61.5 -240t188.5 -95q80 0 134 52t70 136h262q-27 -190 -157.5 -280.5t-319.5 -90.5q-242 0 -380 160t-138 430zM309 1516h281l176 -306h-170zM377 647l446 -2q2 20 2 35 q0 115 -53 193.5t-158 78.5q-115 0 -172 -87t-65 -218z" />
<glyph unicode="&#xe9;" horiz-adv-x="1200" d="M92 561q0 246 132 402.5t372 156.5q250 0 379 -136t129 -382q0 -78 -6 -113h-727q0 -145 61.5 -240t188.5 -95q80 0 134 52t70 136h262q-27 -190 -157.5 -280.5t-319.5 -90.5q-242 0 -380 160t-138 430zM377 647l446 -2q2 20 2 35q0 115 -53 193.5t-158 78.5 q-115 0 -172 -87t-65 -218zM432 1210l176 306h281l-289 -306h-168z" />
<glyph unicode="&#xea;" horiz-adv-x="1200" d="M92 561q0 246 132 402.5t372 156.5q250 0 379 -136t129 -382q0 -78 -6 -113h-727q0 -145 61.5 -240t188.5 -95q80 0 134 52t70 136h262q-27 -190 -157.5 -280.5t-319.5 -90.5q-242 0 -380 160t-138 430zM268 1219l219 292h226l219 -292h-187l-143 178h-4l-143 -178h-187z M377 647l446 -2q2 20 2 35q0 115 -53 193.5t-158 78.5q-115 0 -172 -87t-65 -218z" />
<glyph unicode="&#xeb;" horiz-adv-x="1200" d="M92 561q0 246 132 402.5t372 156.5q250 0 379 -136t129 -382q0 -78 -6 -113h-727q0 -145 61.5 -240t188.5 -95q80 0 134 52t70 136h262q-27 -190 -157.5 -280.5t-319.5 -90.5q-242 0 -380 160t-138 430zM315 1210v265h220v-265h-220zM377 647l446 -2q2 20 2 35 q0 115 -53 193.5t-158 78.5q-115 0 -172 -87t-65 -218zM664 1210v265h219v-265h-219z" />
<glyph unicode="&#xec;" horiz-adv-x="731" d="M76 1516h280l176 -306h-170zM113 0v182h145v729h-145v183h419v-912h127v-182h-546z" />
<glyph unicode="&#xed;" horiz-adv-x="731" d="M113 0v182h145v729h-145v183h419v-912h127v-182h-546zM178 1210l176 306h281l-289 -306h-168z" />
<glyph unicode="&#xee;" horiz-adv-x="731" d="M14 1219l219 292h226l219 -292h-186l-144 178h-4l-143 -178h-187zM113 0v182h145v729h-145v183h419v-912h127v-182h-546z" />
<glyph unicode="&#xef;" horiz-adv-x="731" d="M61 1210v265h220v-265h-220zM113 0v182h145v729h-145v183h419v-912h127v-182h-546zM410 1210v265h219v-265h-219z" />
<glyph unicode="&#xf0;" horiz-adv-x="1269" d="M92 543q0 270 180 418q115 96 285 96t266 -103l8 2q-92 166 -251 265l-230 -140l-78 105l166 102q-88 33 -217 55l43 173q211 -27 375 -103l233 146l82 -103l-180 -115q383 -252 383 -745q0 -279 -131 -452t-399 -173q-244 0 -389.5 161t-145.5 411zM377 514 q0 -88 20.5 -165t79 -136t148.5 -59q88 0 146 59t78.5 134t20.5 161q0 143 -58 251.5t-187 108.5q-88 0 -146.5 -58t-80 -134t-21.5 -162z" />
<glyph unicode="&#xf1;" horiz-adv-x="1335" d="M72 0v182h143v729h-143v183h395l6 -166h4q57 102 133 149t191 47q125 0 209 -59q129 -86 129 -256v-627h135v-182h-535v182h125v523q0 123 -53 180q-41 47 -111 47q-211 0 -211 -316v-434h132v-182h-549zM340 1223q10 133 59.5 206.5t124.5 73.5q59 0 146.5 -44 t120.5 -44q41 0 60 20.5t30 73.5h114q-10 -133 -59 -206.5t-125 -73.5q-57 0 -145 44t-121 44q-39 0 -58.5 -20.5t-29.5 -73.5h-117z" />
<glyph unicode="&#xf2;" horiz-adv-x="1257" d="M92 551q0 254 142.5 411.5t394.5 157.5t394 -157.5t142 -411.5q0 -260 -148.5 -420t-388 -160t-388 160t-148.5 420zM338 1516h280l177 -306h-170zM383 551q0 -86 19.5 -169t78 -154.5t148.5 -71.5t148.5 71.5t77.5 154.5t19 169q0 88 -20 171t-78.5 151.5t-146.5 68.5 t-146.5 -68.5t-79 -151.5t-20.5 -171z" />
<glyph unicode="&#xf3;" horiz-adv-x="1257" d="M92 551q0 254 142.5 411.5t394.5 157.5t394 -157.5t142 -411.5q0 -260 -148.5 -420t-388 -160t-388 160t-148.5 420zM383 551q0 -86 19.5 -169t78 -154.5t148.5 -71.5t148.5 71.5t77.5 154.5t19 169q0 88 -20 171t-78.5 151.5t-146.5 68.5t-146.5 -68.5t-79 -151.5 t-20.5 -171zM461 1210l176 306h281l-289 -306h-168z" />
<glyph unicode="&#xf4;" horiz-adv-x="1257" d="M92 551q0 254 142.5 411.5t394.5 157.5t394 -157.5t142 -411.5q0 -260 -148.5 -420t-388 -160t-388 160t-148.5 420zM297 1219l219 292h225l220 -292h-187l-143 178h-4l-144 -178h-186zM383 551q0 -86 19.5 -169t78 -154.5t148.5 -71.5t148.5 71.5t77.5 154.5t19 169 q0 88 -20 171t-78.5 151.5t-146.5 68.5t-146.5 -68.5t-79 -151.5t-20.5 -171z" />
<glyph unicode="&#xf5;" horiz-adv-x="1257" d="M92 551q0 254 142.5 411.5t394.5 157.5t394 -157.5t142 -411.5q0 -260 -148.5 -420t-388 -160t-388 160t-148.5 420zM301 1223q10 133 59.5 206.5t124.5 73.5q59 0 146.5 -44t120.5 -44q41 0 60 20.5t30 73.5h114q-10 -133 -59 -206.5t-125 -73.5q-57 0 -145 44t-121 44 q-39 0 -58.5 -20.5t-29.5 -73.5h-117zM383 551q0 -86 19.5 -169t78 -154.5t148.5 -71.5t148.5 71.5t77.5 154.5t19 169q0 88 -20 171t-78.5 151.5t-146.5 68.5t-146.5 -68.5t-79 -151.5t-20.5 -171z" />
<glyph unicode="&#xf6;" horiz-adv-x="1257" d="M92 551q0 254 142.5 411.5t394.5 157.5t394 -157.5t142 -411.5q0 -260 -148.5 -420t-388 -160t-388 160t-148.5 420zM344 1210v265h219v-265h-219zM383 551q0 -86 19.5 -169t78 -154.5t148.5 -71.5t148.5 71.5t77.5 154.5t19 169q0 88 -20 171t-78.5 151.5t-146.5 68.5 t-146.5 -68.5t-79 -151.5t-20.5 -171zM692 1210v265h219v-265h-219z" />
<glyph unicode="&#xf7;" d="M119 440v213h1112v-213h-1112zM512 158q0 66 46 111.5t111.5 45.5t111.5 -46t46 -111.5t-46 -111.5t-111 -46q-63 0 -110.5 47.5t-47.5 110.5zM512 936q0 63 47 110.5t111 47.5q66 0 111.5 -46.5t45.5 -112t-46 -111.5t-111.5 -46t-111.5 46t-46 112z" />
<glyph unicode="&#xf8;" horiz-adv-x="1257" d="M92 551q0 254 142.5 411.5t394.5 157.5q188 0 319 -92l84 105l86 -70l-88 -111q135 -154 135 -401q0 -260 -148.5 -420t-387.5 -160q-176 0 -305 88l-93 -118l-88 71l97 121q-147 158 -148 418zM383 551q0 -106 29 -201l389 492q-61 100 -172 100q-88 0 -146.5 -68.5 t-79 -151.5t-20.5 -171zM467 240q61 -84 162 -84q90 0 148.5 71.5t77.5 154.5t19 169q0 92 -22 174z" />
<glyph unicode="&#xf9;" horiz-adv-x="1339" d="M72 911v183h411v-717q0 -203 168 -203q96 0 146.5 87t50.5 196v454h-146v183h422v-912h144v-182h-396l-4 168h-8q-90 -197 -319 -197q-125 0 -217 70q-68 55 -90.5 120.5t-22.5 170.5v579h-139zM379 1516h280l177 -306h-170z" />
<glyph unicode="&#xfa;" horiz-adv-x="1339" d="M72 911v183h411v-717q0 -203 168 -203q96 0 146.5 87t50.5 196v454h-146v183h422v-912h144v-182h-396l-4 168h-8q-90 -197 -319 -197q-125 0 -217 70q-68 55 -90.5 120.5t-22.5 170.5v579h-139zM502 1210l176 306h280l-288 -306h-168z" />
<glyph unicode="&#xfb;" horiz-adv-x="1339" d="M72 911v183h411v-717q0 -203 168 -203q96 0 146.5 87t50.5 196v454h-146v183h422v-912h144v-182h-396l-4 168h-8q-90 -197 -319 -197q-125 0 -217 70q-68 55 -90.5 120.5t-22.5 170.5v579h-139zM297 1219l219 292h225l220 -292h-187l-143 178h-4l-144 -178h-186z" />
<glyph unicode="&#xfc;" horiz-adv-x="1339" d="M72 911v183h411v-717q0 -203 168 -203q96 0 146.5 87t50.5 196v454h-146v183h422v-912h144v-182h-396l-4 168h-8q-90 -197 -319 -197q-125 0 -217 70q-68 55 -90.5 120.5t-22.5 170.5v579h-139zM344 1210v265h219v-265h-219zM692 1210v265h219v-265h-219z" />
<glyph unicode="&#xfd;" horiz-adv-x="1298" d="M59 911v183h537v-183h-139l217 -549h6l201 549h-129v183h495v-183h-100l-420 -1071h150v-182h-570v182h158l84 205l-381 866h-109zM522 1210l176 306h281l-289 -306h-168z" />
<glyph unicode="&#xfe;" horiz-adv-x="1353" d="M72 -160h143v1452h-143v183h417v-529h7q98 174 323 174q119 0 208 -51t138 -137t73 -186.5t24 -215.5q0 -242 -109 -400.5t-334 -158.5q-119 0 -194.5 40t-128.5 141h-7v-312h154v-182h-571v182zM485 535q0 -176 68 -277.5t182 -101.5q231 0 232 393q0 387 -232 387 q-74 0 -126 -38t-77.5 -101.5t-36 -126.5t-10.5 -135z" />
<glyph unicode="&#xff;" horiz-adv-x="1298" d="M59 911v183h537v-183h-139l217 -549h6l201 549h-129v183h495v-183h-100l-420 -1071h150v-182h-570v182h158l84 205l-381 866h-109zM385 1210v265h219v-265h-219zM733 1210v265h219v-265h-219z" />
<glyph unicode="&#x152;" horiz-adv-x="2125" d="M113 741q0 356 198 566q195 199 516 198q70 0 174.5 -15t135.5 -15h835v-451h-223v258h-479v-440h153v190h195v-563h-195v184h-153v-460h479v274h223v-467h-844q-39 0 -146.5 -14.5t-180.5 -14.5q-326 0 -507 209t-181 561zM412 741q0 -117 21.5 -215t68.5 -183t134 -133 t208 -48q76 0 168 20v1118q-76 16 -164 17q-190 0 -303 -129q-66 -74 -99.5 -201t-33.5 -246z" />
<glyph unicode="&#x153;" horiz-adv-x="1814" d="M92 551q0 258 127 413.5t373 155.5q113 0 203 -55t137 -170h4q106 225 350 225q217 0 327.5 -138t110.5 -380q0 -53 -6 -115h-651q0 -145 52 -239t167 -94q74 0 118 51t56 137h260q-27 -188 -141.5 -279.5t-280.5 -91.5q-249 0 -360 219h-4q-51 -104 -144.5 -161.5 t-197.5 -57.5q-236 0 -368 158t-132 422zM362 551q0 -98 18.5 -183t73 -153t138.5 -68q66 0 111 39t65 103.5t28.5 122t8.5 123.5q0 416 -213 415q-119 0 -174.5 -119.5t-55.5 -279.5zM1071 645h389q2 25 2 35q0 119 -46 200t-136 81q-100 0 -151.5 -91.5t-57.5 -224.5z" />
<glyph unicode="&#x178;" horiz-adv-x="1443" d="M45 1286v189h588v-189h-158l264 -471l273 471h-148v189h535v-189h-94l-441 -721v-377h205v-188h-690v188h203v373l-439 725h-98zM449 1591v264h219v-264h-219zM797 1591v264h219v-264h-219z" />
<glyph unicode="&#x2c6;" horiz-adv-x="786" d="M61 1219l220 292h225l219 -292h-186l-144 178h-4l-143 -178h-187z" />
<glyph unicode="&#x2dc;" horiz-adv-x="778" d="M61 1223q10 133 59.5 206.5t125.5 73.5q59 0 146 -44t120 -44q41 0 60.5 20.5t29.5 73.5h115q-10 -133 -59.5 -206.5t-125.5 -73.5q-57 0 -145 44t-121 44q-39 0 -58.5 -20.5t-29.5 -73.5h-117z" />
<glyph unicode="&#x2000;" horiz-adv-x="995" />
<glyph unicode="&#x2001;" horiz-adv-x="1991" />
<glyph unicode="&#x2002;" horiz-adv-x="995" />
<glyph unicode="&#x2003;" horiz-adv-x="1991" />
<glyph unicode="&#x2004;" horiz-adv-x="663" />
<glyph unicode="&#x2005;" horiz-adv-x="497" />
<glyph unicode="&#x2006;" horiz-adv-x="331" />
<glyph unicode="&#x2007;" horiz-adv-x="331" />
<glyph unicode="&#x2008;" horiz-adv-x="248" />
<glyph unicode="&#x2009;" horiz-adv-x="398" />
<glyph unicode="&#x200a;" horiz-adv-x="110" />
<glyph unicode="&#x2010;" horiz-adv-x="821" d="M92 465v229h637v-229h-637z" />
<glyph unicode="&#x2011;" horiz-adv-x="821" d="M92 465v229h637v-229h-637z" />
<glyph unicode="&#x2012;" horiz-adv-x="821" d="M92 465v229h637v-229h-637z" />
<glyph unicode="&#x2013;" horiz-adv-x="1306" d="M92 471v217h1122v-217h-1122z" />
<glyph unicode="&#x2014;" horiz-adv-x="2316" d="M92 477v203h2132v-203h-2132z" />
<glyph unicode="&#x2018;" horiz-adv-x="479" d="M92 911v269l111 323h172l-103 -323h115v-269h-295z" />
<glyph unicode="&#x2019;" horiz-adv-x="477" d="M92 1235v268h293v-268l-111 -324h-172l103 324h-113z" />
<glyph unicode="&#x201a;" horiz-adv-x="479" d="M92 0v268h295v-268l-113 -326h-172l103 326h-113z" />
<glyph unicode="&#x201c;" horiz-adv-x="933" d="M92 911v269l111 323h172l-101 -323h113v-269h-295zM547 911v269l110 323h172l-100 -323h113v-269h-295z" />
<glyph unicode="&#x201d;" horiz-adv-x="933" d="M92 1235v268h295v-268l-111 -324h-172l101 324h-113zM547 1235v268h295v-268l-111 -324h-172l100 324h-112z" />
<glyph unicode="&#x201e;" horiz-adv-x="933" d="M92 0v268h295v-268l-113 -326h-170l101 326h-113zM547 0v268h295v-268l-113 -326h-170l100 326h-112z" />
<glyph unicode="&#x2022;" horiz-adv-x="1148" d="M166 717q0 168 118.5 285.5t286.5 117.5t287 -117.5t119 -285.5t-119 -287t-287 -119t-286.5 119t-118.5 287z" />
<glyph unicode="&#x2026;" horiz-adv-x="2086" d="M195 0v268h276v-268h-276zM903 0v268h279v-268h-279zM1614 0v268h278v-268h-278z" />
<glyph unicode="&#x202f;" horiz-adv-x="398" />
<glyph unicode="&#x2039;" horiz-adv-x="671" d="M92 575l189 467h213l-179 -467l179 -469h-213z" />
<glyph unicode="&#x203a;" horiz-adv-x="669" d="M176 106l178 469l-178 467h213l189 -467l-189 -469h-213z" />
<glyph unicode="&#x205f;" horiz-adv-x="497" />
<glyph unicode="&#x20ac;" horiz-adv-x="1724" d="M72 522v144h221q-6 53 -2 127h-219v145h231q43 254 202 409.5t425 155.5q274 0 409 -162h7v134h229v-531h-246q-37 362 -344 363q-160 0 -250 -103.5t-121 -265.5h424v-145h-440q-6 -68 0 -127h440v-144h-424q70 -356 361 -356q143 0 232 88t98 233h286 q-18 -250 -188 -383t-426 -133q-281 0 -449 147.5t-219 403.5h-237z" />
<glyph unicode="&#x2122;" horiz-adv-x="1433" d="M92 1241v246h496v-246h-99v141h-86v-432h80v-102h-284v102h82v432h-88v-141h-101zM637 848v102h78v436h-76v101h209l141 -451h2l144 451h204v-101h-73v-436h75v-102h-237v102h51l-2 273h-2l-113 -375h-92l-117 375h-2v-273h50v-102h-240z" />
<glyph unicode="&#x25fc;" horiz-adv-x="1095" d="M0 0v1096h1096v-1096h-1096z" />
</font>
</defs>
</svg>
