<?xml version="1.0" standalone="no"?>
<!DOCTYPE svg PUBLIC "-//W3C//DTD SVG 1.1//EN" "http://www.w3.org/Graphics/SVG/1.1/DTD/svg11.dtd" >
<svg xmlns="http://www.w3.org/2000/svg" xmlns:xlink="http://www.w3.org/1999/xlink" version="1.1">
<metadata>
Created by FontForge 20161116 at Fri Oct 14 14:36:27 2011
 By Jimmy Warting
The Bitstream version of Caslon Bold of the American Typefounders, 1905. Based on William Caslon I's first English Old Style typefaces of 1725. Caslon modelled his designs on late 17th-century Dutch types, but his artistic skills enabled him to improve upon these models, bringing a variety of form and subtlety of detail. The strokes in Caslon fonts are somewhat heavier than many earlier Old Style fonts, the serifs are thicker and a bit stubby. The Italic letters are irregular in their inclination. The overall effect of a text set in Caslon is legible and aesthetically appealing. Caslon is a favorite font of English printers in setting of a classsical literature. Cyrillic version developed for ParaType in 2001 by Isay Slutsker and Manvel Shmavonyan.
</metadata>
<defs>
<font id="CouttsCaslon-BoldItalic" horiz-adv-x="500" >
  <font-face 
    font-family="Coutts Caslon"
    font-weight="700"
    font-style="italic"
    font-stretch="normal"
    units-per-em="1000"
    panose-1="2 2 7 2 6 5 6 9 3 3"
    ascent="759"
    descent="-241"
    x-height="454"
    cap-height="727"
    bbox="-252 -276 1247 999"
    underline-thickness="50"
    underline-position="-100"
    slope="-12"
    stemh="25"
    stemv="95"
    unicode-range="U+0020-FB02"
  />
<missing-glyph horiz-adv-x="233" 
 />
    <glyph glyph-name="fi" unicode="fi" horiz-adv-x="565" 
d="M367 391h-163c-52 -223 -90 -374 -128 -451c-45 -92 -111 -142 -173 -142c-45 0 -77 29 -77 62c0 26 17 42 43 42c19 0 29 -8 41 -24c14 -18 19 -35 40 -35c55 0 70 185 156 548h-97l10 44h97c61 201 150 301 270 301c74 0 114 -34 114 -75c0 -30 -19 -49 -47 -49
c-22 0 -39 12 -49 36c-11 25 -9 54 -50 54c-58 0 -90 -89 -138 -267h136c33 0 75 4 125 11l-100 -344c-4 -14 -6 -24 -6 -28c0 -9 9 -17 17 -17c18 0 44 36 85 104l21 -11c-55 -105 -111 -158 -163 -158c-37 0 -56 19 -56 56c0 18 5 42 14 72z" />
    <glyph glyph-name="fl" unicode="fl" horiz-adv-x="565" 
d="M380 435l53 181c-21 13 -28 28 -33 45c-9 29 -18 41 -46 41c-58 0 -90 -89 -138 -267h164zM106 391h-97l10 44h97c60 200 152 301 265 301c23 0 49 -6 78 -18l103 18l-181 -620c-5 -18 -7 -31 -7 -39c0 -13 6 -21 14 -21c17 0 43 36 84 105l21 -11
c-55 -105 -109 -158 -167 -158c-33 0 -51 21 -51 55c0 13 3 39 13 73l79 271h-163c-52 -223 -90 -374 -128 -451c-45 -92 -111 -142 -173 -142c-45 0 -77 29 -77 62c0 26 17 42 43 42c19 0 29 -8 41 -24c14 -18 19 -35 40 -35c55 0 70 185 156 548z" />
    <glyph glyph-name=".notdef" horiz-adv-x="233" 
 />
    <glyph glyph-name="space" unicode=" " horiz-adv-x="248" 
 />
    <glyph glyph-name="exclam" unicode="!" horiz-adv-x="389" 
d="M164 189l-25 4c41 151 33 288 43 404c8 95 36 140 92 140c44 0 68 -28 68 -79c0 -42 -15 -98 -47 -165c-51 -107 -103 -203 -131 -304zM47 57c0 40 31 72 71 72c39 0 71 -32 71 -72s-31 -71 -71 -71s-71 31 -71 71z" />
    <glyph glyph-name="quotedbl" unicode="&#x22;" horiz-adv-x="339" 
d="M78 418l-36 224c-1 7 -1 13 -1 19c0 34 17 53 46 53c30 0 47 -18 47 -53c0 -6 0 -13 -1 -19l-36 -224h-19zM242 418l-36 224c-1 7 -1 13 -1 19c0 34 18 53 47 53s47 -19 47 -52c0 -7 -1 -13 -2 -20l-36 -224h-19z" />
    <glyph glyph-name="numbersign" unicode="#" horiz-adv-x="769" 
d="M449 713l-76 -213h131l76 213h89l-76 -213h142l-29 -81h-142l-45 -128h150l-29 -82h-150l-75 -212h-90l76 212h-131l-75 -212h-90l76 212h-147l29 82h147l45 128h-156l30 81h155l76 213h89zM477 419h-134l-46 -129h134z" />
    <glyph glyph-name="dollar" unicode="$" horiz-adv-x="495" 
d="M166 0l-27 -103h-30l28 108c-74 32 -115 92 -115 158c0 46 21 71 54 71c29 0 52 -21 52 -51c0 -28 -24 -55 -24 -85c0 -28 16 -49 43 -57l75 288c-71 64 -107 132 -107 206c0 118 74 192 198 192h14l14 52h30l-15 -56c73 -24 116 -80 116 -132c0 -37 -23 -62 -57 -62
c-24 0 -45 21 -45 53c0 26 14 49 14 69c0 18 -11 31 -36 41l-62 -236c88 -75 131 -144 131 -230c0 -132 -98 -228 -223 -228c-8 0 -17 1 -28 2zM262 479l58 220c-78 0 -122 -41 -122 -111c0 -38 22 -73 64 -109zM174 31h10c91 0 147 53 147 130c0 53 -28 101 -84 145z" />
    <glyph glyph-name="percent" unicode="%" horiz-adv-x="884" 
d="M321 681c-34 -9 -63 -33 -88 -72c-51 -79 -72 -148 -72 -177c0 -44 22 -68 63 -68c46 0 98 39 135 111c20 38 29 75 29 115c0 13 -1 26 -3 39c-27 15 -48 33 -64 52zM725 344c-31 0 -63 -22 -90 -63c-53 -81 -76 -149 -76 -184c0 -44 22 -68 63 -68c40 0 80 27 116 80
c32 47 49 100 49 149c0 54 -25 86 -62 86zM460 125c0 48 20 105 60 156c53 68 115 103 169 103c79 0 127 -48 127 -131c0 -67 -28 -136 -78 -190c-42 -45 -90 -68 -144 -68c-79 0 -134 57 -134 130zM629 736h51l-419 -759h-56l371 674c-35 -22 -69 -32 -108 -32
c-15 0 -33 2 -54 5c2 -14 3 -28 3 -41c0 -52 -16 -101 -49 -150c-45 -67 -105 -101 -171 -101c-79 0 -134 56 -134 129c0 48 20 104 60 156c52 68 115 103 169 103c50 0 87 -20 114 -61c24 -7 44 -11 62 -11c56 0 111 29 161 88z" />
    <glyph glyph-name="ampersand" unicode="&#x26;" horiz-adv-x="875" 
d="M188 423c-28 36 -42 78 -42 124c0 110 93 189 228 189c101 0 162 -51 162 -124c0 -51 -35 -84 -86 -84c-42 0 -69 26 -69 65c0 35 22 56 53 56c8 0 18 -2 31 -2c9 0 17 7 17 15c0 25 -39 50 -99 50c-89 0 -143 -78 -143 -194c0 -23 2 -45 6 -66c24 9 47 13 70 13
c55 0 85 -23 85 -62c0 -30 -26 -52 -71 -52c-39 0 -75 17 -116 48c-49 -24 -73 -62 -73 -112c0 -102 99 -177 274 -177c147 0 233 78 233 167c0 65 -39 100 -111 100c-35 0 -52 -9 -52 -25c0 -10 9 -17 26 -23c26 -10 37 -23 37 -51c0 -36 -23 -59 -59 -59
c-41 0 -67 29 -67 75c0 69 56 135 147 156c58 13 112 20 158 42c50 24 74 56 74 94c0 42 -31 73 -73 73c-15 0 -27 -9 -27 -17c0 -14 26 -31 26 -61c0 -31 -23 -52 -58 -52c-41 0 -65 25 -65 66c0 54 42 92 103 92c84 0 144 -63 144 -148c0 -88 -70 -156 -197 -178
c23 -44 34 -88 34 -134c0 -142 -126 -241 -327 -241c-196 0 -312 99 -312 234c0 79 46 144 139 203zM256 429c16 -35 40 -52 67 -52c20 0 31 10 31 28c0 22 -18 35 -52 35c-14 0 -30 -4 -46 -11z" />
    <glyph glyph-name="quotesingle" unicode="'" horiz-adv-x="175" 
d="M78 418l-36 224c-1 7 -1 13 -1 19c0 34 17 53 46 53c30 0 47 -18 47 -53c0 -6 0 -13 -1 -19l-36 -224h-19z" />
    <glyph glyph-name="parenleft" unicode="(" horiz-adv-x="389" 
d="M368 736l13 -15c-161 -144 -239 -324 -239 -555c0 -86 20 -173 59 -266l-16 -11c-87 129 -133 245 -133 365c0 185 108 355 316 482z" />
    <glyph glyph-name="parenright" unicode=")" horiz-adv-x="389" 
d="M-3 -112l-13 15c161 144 239 325 239 556c0 86 -21 173 -60 266l17 11c87 -129 132 -246 132 -366c0 -185 -107 -355 -315 -482z" />
    <glyph glyph-name="asterisk" unicode="*" 
d="M308 520v-7c0 -66 37 -105 37 -137c0 -27 -16 -46 -44 -46c-29 0 -45 17 -45 43c0 35 37 70 37 136v12c-43 -25 -58 -47 -67 -60c-22 -30 -38 -52 -65 -52c-23 0 -43 20 -43 45c0 32 24 46 73 50c41 3 71 11 93 30c-38 27 -74 27 -111 31c-35 3 -55 22 -55 49
c0 23 18 44 42 44c32 0 45 -25 65 -52c18 -25 40 -45 69 -60v5c0 66 -38 107 -38 143c0 24 17 42 45 42c29 0 44 -16 44 -43c0 -34 -36 -72 -36 -138v-10c24 15 45 28 67 60c21 30 37 53 67 53c21 0 41 -23 41 -46c0 -24 -23 -45 -50 -47c-47 -4 -86 -7 -117 -33
c42 -28 80 -26 112 -29c34 -3 55 -24 55 -52c0 -22 -22 -43 -44 -43c-28 0 -44 25 -64 53c-19 26 -39 45 -68 59z" />
    <glyph glyph-name="plus" unicode="+" horiz-adv-x="833" 
d="M458 596v-257h251v-81h-251v-258h-83v258h-251v81h251v257h83z" />
    <glyph glyph-name="comma" unicode="," horiz-adv-x="248" 
d="M-36 -116v28c65 14 98 36 98 54c0 17 -13 19 -28 28c-24 14 -36 34 -36 62c0 48 30 78 75 78c46 0 79 -34 79 -90c0 -83 -68 -146 -188 -160z" />
    <glyph glyph-name="hyphen" unicode="-" horiz-adv-x="333" 
d="M7 169l25 102h224l-25 -102h-224z" />
    <glyph glyph-name="period" unicode="." horiz-adv-x="248" 
d="M0 60c0 42 32 74 74 74c41 0 74 -32 74 -74c0 -41 -33 -74 -74 -74c-42 0 -74 32 -74 74z" />
    <glyph glyph-name="slash" unicode="/" horiz-adv-x="278" 
d="M-54 -93l299 829h57l-299 -829h-57z" />
    <glyph glyph-name="zero" unicode="0" horiz-adv-x="495" 
d="M172 8c63 0 88 73 131 220c67 229 88 372 88 410c0 47 -28 76 -65 76c-63 0 -87 -73 -131 -219c-70 -236 -87 -384 -87 -410c0 -47 27 -77 64 -77zM180 -16c-104 0 -167 87 -167 245c0 91 22 192 64 287c65 147 149 221 242 221c104 0 166 -86 166 -244
c0 -91 -21 -191 -63 -286c-66 -148 -151 -223 -242 -223z" />
    <glyph glyph-name="one" unicode="1" horiz-adv-x="495" 
d="M331 23l-4 -23h-322l5 23c41 0 70 9 89 28c13 13 24 49 41 108l109 381c5 19 12 37 12 60c0 22 -25 34 -76 34c-7 0 -15 0 -23 -1l6 22c95 7 170 31 233 81h19l-177 -614c-6 -19 -9 -35 -9 -50c0 -39 24 -49 87 -49h10z" />
    <glyph glyph-name="two" unicode="2" horiz-adv-x="495" 
d="M351 166h25l-47 -166h-323v9c0 87 43 158 123 240c120 122 213 192 213 292c0 61 -38 97 -92 97c-53 0 -95 -35 -145 -106l-21 5c54 135 120 199 214 199c96 0 164 -66 164 -156c0 -99 -62 -192 -182 -271c-95 -63 -177 -110 -216 -201h162c67 0 103 9 125 58z" />
    <glyph glyph-name="three" unicode="3" horiz-adv-x="495" 
d="M149 358l3 29c142 51 214 116 214 186c0 52 -32 84 -82 84c-47 0 -95 -32 -143 -97l-15 11c55 110 125 165 211 165c81 0 133 -45 133 -118c0 -82 -64 -139 -190 -212c73 -30 115 -93 115 -171c0 -61 -26 -125 -70 -172c-47 -51 -103 -77 -167 -77
c-87 0 -148 53 -148 121c0 48 27 78 66 78c35 0 61 -25 61 -57c0 -45 -49 -62 -49 -82s26 -38 63 -38c70 0 127 76 127 182c0 98 -41 152 -129 168z" />
    <glyph glyph-name="four" unicode="4" horiz-adv-x="495" 
d="M266 0h-113l66 248h-202v59l406 429h40l-116 -430h100l-16 -58h-99zM64 306h170c33 105 68 202 103 293l-273 -286v-7z" />
    <glyph glyph-name="five" unicode="5" horiz-adv-x="495" 
d="M113 364l-12 8l121 355h178c25 0 46 4 67 14h21l-61 -116h-213l-47 -138c150 -9 237 -97 237 -232c0 -153 -101 -269 -238 -269c-91 0 -147 54 -147 129c0 53 31 86 77 86c36 0 60 -23 60 -60c0 -20 -6 -37 -17 -49c-15 -17 -34 -24 -34 -44s26 -39 66 -39
c79 0 150 77 150 187c0 103 -70 169 -186 169c-7 0 -14 0 -22 -1z" />
    <glyph glyph-name="six" unicode="6" horiz-adv-x="495" 
d="M166 283c-29 -104 -41 -172 -41 -202c0 -43 23 -69 57 -69c35 0 62 28 84 84c32 80 46 171 46 212c0 51 -15 76 -48 76s-62 -34 -98 -101zM454 748l8 -19c-135 -72 -222 -197 -285 -365l8 -4c39 57 75 84 122 84c69 0 122 -61 122 -157c0 -61 -15 -119 -45 -171
c-49 -85 -117 -130 -190 -130c-100 0 -166 74 -166 201c0 124 54 254 159 371c80 90 168 153 267 190z" />
    <glyph glyph-name="seven" unicode="7" horiz-adv-x="495" 
d="M195 0h-121c30 167 141 377 341 607v12h-209c-32 0 -55 -10 -76 -32l-12 9l74 131h306v-36c-162 -224 -264 -454 -303 -691z" />
    <glyph glyph-name="eight" unicode="8" horiz-adv-x="495" 
d="M199 359c-37 73 -58 134 -58 195c0 106 75 182 178 182c92 0 155 -56 155 -135c0 -74 -55 -141 -155 -203c43 -82 67 -150 67 -207c0 -126 -79 -205 -209 -205c-103 0 -165 58 -165 144c0 87 62 165 187 229zM306 428c75 45 113 106 113 179c0 66 -35 105 -90 105
c-50 0 -85 -42 -85 -109c0 -47 20 -106 62 -175zM212 329c-93 -47 -144 -129 -144 -201c0 -73 43 -119 105 -119c56 0 101 53 101 133c0 51 -21 115 -62 187z" />
    <glyph glyph-name="nine" unicode="9" horiz-adv-x="495" 
d="M329 439c29 104 40 172 40 202c0 43 -22 69 -56 69c-35 0 -62 -28 -84 -84c-32 -80 -47 -171 -47 -212c0 -51 16 -75 49 -75s62 33 98 100zM41 -26l-8 19c124 65 218 186 285 365l-9 4c-39 -57 -75 -84 -122 -84c-69 0 -122 61 -122 157c0 61 15 120 45 172
c49 85 117 130 190 130c100 0 166 -75 166 -202c0 -124 -54 -254 -159 -371c-80 -90 -167 -153 -266 -190z" />
    <glyph glyph-name="colon" unicode=":" horiz-adv-x="333" 
d="M103 382c0 40 31 72 71 72c39 0 71 -32 71 -72s-31 -71 -71 -71s-71 31 -71 71zM13 57c0 40 31 72 71 72c39 0 71 -32 71 -72s-31 -71 -71 -71s-71 31 -71 71z" />
    <glyph glyph-name="semicolon" unicode=";" horiz-adv-x="333" 
d="M-22 -116v28c65 14 99 36 99 54c0 17 -13 19 -28 28c-24 14 -36 34 -36 62c0 48 30 78 75 78c46 0 79 -34 79 -90c0 -83 -69 -146 -189 -160zM103 382c0 40 31 72 71 72c39 0 71 -32 71 -72s-31 -71 -71 -71s-71 31 -71 71z" />
    <glyph glyph-name="less" unicode="&#x3c;" horiz-adv-x="833" 
d="M704 484l-456 -186l456 -186v-89l-575 236v78l575 237v-90z" />
    <glyph glyph-name="equal" unicode="=" horiz-adv-x="833" 
d="M709 440v-82h-585v82h585zM709 238v-81h-585v81h585z" />
    <glyph glyph-name="greater" unicode="&#x3e;" horiz-adv-x="833" 
d="M704 337v-78l-575 -236v89l456 186l-456 186v90z" />
    <glyph glyph-name="question" unicode="?" horiz-adv-x="556" 
d="M130 257c0 72 70 92 162 143c106 59 158 121 158 195s-47 118 -125 118s-137 -50 -137 -107c0 -32 21 -54 39 -54c9 0 17 6 17 12c0 14 -7 27 -7 42c0 34 25 58 65 58c38 0 65 -29 65 -72c0 -54 -44 -96 -106 -96s-103 40 -103 103c0 81 71 137 182 137
c119 0 199 -71 199 -165c0 -84 -63 -156 -184 -197c-65 -22 -122 -29 -158 -53c-27 -18 -40 -41 -40 -68s16 -44 40 -44c13 0 20 4 20 14c0 12 -15 23 -15 41c0 22 15 35 41 35c23 0 39 -18 39 -48c0 -40 -33 -70 -78 -70c-44 0 -74 30 -74 76zM79 57c0 40 31 72 71 72
c39 0 71 -32 71 -72s-31 -71 -71 -71s-71 31 -71 71z" />
    <glyph glyph-name="at" unicode="@" horiz-adv-x="986" 
d="M610 377c0 55 -27 89 -67 89c-44 0 -76 -31 -109 -94c-39 -74 -57 -142 -57 -193c0 -56 28 -89 64 -89c42 0 75 28 109 85c39 67 60 148 60 202zM637 402l25 83h84l-84 -301c-4 -16 -8 -31 -8 -47c0 -32 15 -50 40 -50c19 0 55 13 86 38c71 57 111 147 111 253
c0 181 -135 303 -339 303c-112 0 -217 -43 -294 -122c-80 -81 -120 -186 -120 -314c0 -112 39 -199 117 -264c68 -57 162 -89 268 -89c109 0 209 34 305 102l18 -23c-96 -72 -206 -109 -323 -109c-125 0 -230 32 -304 88c-98 74 -151 183 -151 312c0 131 56 250 164 339
c87 72 194 110 314 110c227 0 374 -134 374 -337c0 -105 -41 -198 -111 -261c-40 -35 -84 -54 -128 -54c-63 0 -100 35 -104 100c-41 -67 -87 -99 -148 -99c-87 0 -142 65 -142 166c0 72 32 144 93 202c45 43 98 65 151 65c58 0 95 -31 106 -91z" />
    <glyph glyph-name="A" unicode="A" horiz-adv-x="722" 
d="M135 23l-4 -23h-200l5 23c59 11 82 47 131 118l391 569c48 3 79 15 101 26h25l-21 -631c-1 -40 13 -58 21 -65c16 -14 55 -18 78 -17l-5 -23h-333l5 23h13c16 0 57 0 76 20c13 14 17 39 18 82l2 75h-295l-50 -78c-17 -26 -17 -43 -17 -50c0 -45 44 -49 59 -49zM439 232
l15 421l-288 -421h273z" />
    <glyph glyph-name="B" unicode="B" horiz-adv-x="722" 
d="M-28 0l4 23c74 -1 95 44 110 96l143 500c4 12 8 30 8 40c0 45 -36 45 -75 45h-9l5 23h277c157 0 234 -79 234 -163c0 -88 -96 -172 -224 -179c105 -17 176 -92 176 -182c0 -121 -98 -203 -299 -203h-350zM294 376l-79 -279c-5 -19 -8 -28 -8 -36c0 -33 39 -36 66 -36
c52 0 98 7 139 50c46 49 65 128 65 177c0 120 -104 124 -131 124h-52zM388 704l-86 -302h45c60 0 102 7 137 45c27 30 51 84 51 145c0 69 -38 112 -102 112h-45z" />
    <glyph glyph-name="C" unicode="C" horiz-adv-x="738" 
d="M587 228l30 -9l-78 -233h-18c-5 21 -24 28 -34 28c-11 0 -31 -8 -56 -15c-31 -9 -66 -13 -96 -13c-158 0 -290 106 -290 271c0 83 34 199 131 310c122 141 254 169 331 169c28 0 71 -5 112 -21c33 -13 66 -38 83 -38c7 0 18 6 40 17h13l-65 -233l-30 5v41
c0 120 -33 204 -139 204c-76 0 -163 -51 -243 -187c-75 -127 -88 -239 -88 -308c0 -142 71 -203 150 -203c127 0 215 149 247 215z" />
    <glyph glyph-name="D" unicode="D" horiz-adv-x="833" 
d="M-31 0l5 23c74 -1 95 44 110 96l143 500c5 19 7 31 7 38c0 43 -27 47 -74 47h-9l4 23h271c216 0 347 -125 347 -329c0 -131 -56 -235 -119 -295c-106 -100 -251 -103 -367 -103h-318zM382 694l-164 -573c-9 -32 -10 -45 -10 -51c0 -44 52 -45 78 -45c72 0 168 8 238 84
c15 17 52 62 88 174c20 61 30 120 30 184c0 89 -24 229 -217 229c-14 0 -32 -1 -43 -2z" />
    <glyph glyph-name="E" unicode="E" horiz-adv-x="699" 
d="M-28 0l4 23c74 -1 95 44 110 96l143 500c7 26 8 36 8 41c0 43 -35 44 -75 44h-9l5 23h503l31 -187h-24c-63 137 -119 164 -178 164h-102l-91 -317h57c74 0 137 15 172 128l24 -4l-89 -310l-23 6c3 14 11 52 11 75c0 69 -50 74 -104 74h-56l-72 -248c-3 -12 -6 -22 -6 -40
c0 -30 7 -45 80 -45c67 0 122 -3 175 34c42 29 87 89 116 140l23 -5l-63 -192h-570z" />
    <glyph glyph-name="F" unicode="F" horiz-adv-x="662" 
d="M-28 0l4 23c74 -1 95 44 110 96l143 500c4 12 8 30 8 40c0 45 -36 45 -75 45h-9l5 23h528l31 -187h-23c-73 153 -136 164 -179 164h-127l-89 -311h81c74 0 137 15 172 128l23 -5l-88 -309l-23 5c9 43 11 63 11 75c0 70 -49 75 -104 75h-80l-74 -254c-3 -12 -7 -25 -7 -38
c0 -19 7 -30 14 -36c14 -11 51 -12 67 -11l-4 -23h-315z" />
    <glyph glyph-name="G" unicode="G" horiz-adv-x="778" 
d="M660 466v29c0 136 -30 216 -140 216c-121 0 -213 -119 -266 -234c-37 -81 -74 -207 -74 -297c0 -123 74 -169 145 -169c98 0 131 76 145 125l27 97c7 25 8 35 8 39c0 42 -29 46 -75 46h-9l5 23h317l-4 -23c-55 -5 -67 -10 -72 -14c-16 -11 -26 -41 -38 -82l-50 -174
c-41 -17 -156 -62 -249 -62c-156 0 -285 107 -285 271c0 83 34 199 131 310c122 140 253 169 335 169c28 0 60 -5 102 -19c48 -17 71 -40 89 -40c7 0 13 4 23 9l17 8h13l-65 -233z" />
    <glyph glyph-name="H" unicode="H" horiz-adv-x="889" 
d="M302 401h311l63 218c4 13 7 24 7 38c0 39 -18 47 -74 47h-9l4 23h318l-5 -23c-74 1 -95 -44 -110 -96l-143 -500c-2 -7 -8 -28 -8 -38c0 -43 29 -47 75 -47h9l-5 -23h-317l4 23c74 -1 95 44 110 96l71 250h-310l-76 -261c-5 -17 -7 -28 -7 -38c0 -43 28 -47 75 -47h9
l-5 -23h-317l4 23c74 -1 95 44 110 96l143 500c2 7 8 28 8 38c0 43 -29 47 -75 47h-9l5 23h317l-4 -23c-74 1 -95 -44 -110 -96z" />
    <glyph glyph-name="I" unicode="I" horiz-adv-x="444" 
d="M361 608l-144 -500c-2 -8 -7 -25 -7 -38c0 -43 28 -47 75 -47h9l-5 -23h-317l4 23c74 -1 95 44 110 96l143 500c2 7 8 28 8 38c0 43 -29 47 -75 47h-9l5 23h317l-4 -23c-74 1 -95 -44 -110 -96z" />
    <glyph glyph-name="J" unicode="J" 
d="M163 145l136 474c3 12 7 26 7 38c0 43 -27 47 -74 47h-9l4 23h318l-5 -23c-74 1 -95 -44 -110 -96l-111 -388c-22 -77 -38 -134 -77 -176c-35 -38 -95 -72 -178 -72c-106 0 -157 58 -157 110c0 42 32 75 74 75c38 0 68 -26 68 -59c0 -16 -5 -29 -15 -47
c-7 -12 -12 -20 -12 -31c0 -13 12 -22 32 -22c67 0 90 82 109 147z" />
    <glyph glyph-name="K" unicode="K" horiz-adv-x="727" 
d="M472 727l-5 -23c-74 1 -95 -44 -110 -96l-71 -249l247 222c25 22 69 60 69 87c0 18 -25 34 -51 36l5 23h222l-5 -23c-93 -28 -145 -78 -193 -122l-163 -149l122 -320c14 -36 28 -82 93 -90l-4 -23h-281l2 23c21 -1 68 2 68 39c0 15 -2 24 -14 56l-85 228l-48 -40
l-55 -198c-3 -10 -8 -26 -8 -41c0 -41 35 -47 75 -44l-5 -23h-305l4 23c74 -1 95 44 110 96l143 500c2 7 8 28 8 38c0 43 -29 47 -75 47h-9l5 23h314z" />
    <glyph glyph-name="L" unicode="L" horiz-adv-x="657" 
d="M291 23h84c61 0 103 39 124 63l97 111l23 -5l-63 -192h-584l4 23c74 -1 95 44 110 96l143 500c3 11 8 31 8 44c0 39 -36 41 -75 41h-9l5 23h317l-4 -23c-74 1 -95 -44 -110 -96l-144 -500c-6 -21 -7 -35 -7 -41c0 -44 36 -44 81 -44z" />
    <glyph glyph-name="M" unicode="M" horiz-adv-x="984" 
d="M1015 727l-5 -23c-74 1 -95 -44 -110 -96l-143 -500c-7 -26 -8 -36 -8 -38c0 -43 29 -47 75 -47h9l-5 -23h-310l4 23c74 -1 95 44 110 96l165 573l-442 -692h-35l-37 681l-149 -514c-9 -31 -18 -68 -18 -90c0 -34 32 -53 65 -54l-5 -23h-195l5 23c77 10 92 69 116 152
l126 443c2 8 7 22 7 40c0 38 -39 44 -75 46l6 23h238l28 -546l348 546h235z" />
    <glyph glyph-name="N" unicode="N" horiz-adv-x="880" 
d="M646 196l104 363c5 16 13 41 13 72c0 58 -52 71 -82 73l4 23h227l-5 -23c-88 -16 -106 -84 -125 -152l-157 -552h-34l-315 662l-142 -495c-11 -39 -13 -57 -13 -71c0 -53 47 -72 83 -73l-5 -23h-227l5 23c88 16 106 84 125 152l126 443c2 8 7 22 7 40c0 38 -39 44 -75 46
l6 23h226z" />
    <glyph glyph-name="O" unicode="O" horiz-adv-x="773" 
d="M157 593c98 121 218 145 288 145c167 0 278 -126 278 -313c0 -129 -56 -240 -118 -310c-52 -59 -148 -131 -275 -131c-168 0 -280 124 -280 315c0 140 64 240 107 294zM562 329c10 35 35 124 35 206c0 121 -66 175 -137 175c-57 0 -125 -38 -179 -139
c-17 -33 -45 -94 -70 -178c-30 -103 -36 -164 -36 -206c0 -121 65 -175 137 -175c94 0 152 90 179 139c31 55 53 115 71 178z" />
    <glyph glyph-name="P" unicode="P" horiz-adv-x="722" 
d="M181 704l5 23h233c251 0 303 -101 303 -176c0 -96 -75 -193 -368 -193h-37l-72 -250c-6 -19 -7 -33 -7 -38c0 -43 30 -47 75 -47h9l-5 -23h-317l4 23c74 -1 95 44 110 96l143 500c7 26 8 36 8 38c0 48 -42 47 -75 47h-9zM399 641l-73 -253c62 -5 259 -2 259 185
c0 108 -74 123 -127 123c-26 0 -43 0 -59 -55z" />
    <glyph glyph-name="Q" unicode="Q" horiz-adv-x="773" 
d="M281 571c-17 -33 -45 -94 -70 -178c-30 -103 -36 -164 -36 -206c0 -121 65 -175 137 -175c94 0 152 90 179 139c31 55 53 115 71 178c10 35 35 124 35 206c0 121 -66 175 -137 175c-57 0 -125 -38 -179 -139zM550 -37l14 -27c-66 -47 -164 -93 -256 -93
c-94 0 -126 52 -126 105c0 19 4 37 18 68c-36 18 -150 82 -150 279c0 141 64 244 107 298c84 105 195 145 288 145c167 0 278 -126 278 -313c0 -131 -56 -238 -119 -310c-40 -45 -119 -116 -258 -130c-4 -6 -14 -28 -14 -45c0 -22 18 -43 51 -43c50 0 130 40 167 66z" />
    <glyph glyph-name="R" unicode="R" horiz-adv-x="778" 
d="M294 23l-5 -23h-317l4 23c74 -1 95 44 110 96l143 500c2 7 8 28 8 38c0 48 -43 47 -75 47h-9l5 23h250c58 0 141 -10 195 -33c98 -42 113 -113 113 -154c0 -59 -28 -101 -85 -130c-43 -22 -103 -34 -150 -37l-2 -6c44 -40 53 -82 66 -142l26 -116c11 -50 21 -91 98 -86
l-5 -23h-198l-50 215c-23 97 -33 140 -97 140h-31l-71 -247c-6 -19 -7 -33 -7 -39c0 -42 29 -46 75 -46h9zM369 641l-73 -257c118 -8 277 16 277 185c0 26 -2 127 -133 127c-53 0 -63 -27 -71 -55z" />
    <glyph glyph-name="S" unicode="S" horiz-adv-x="657" 
d="M40 21l-20 5l44 227l26 -6c-3 -108 47 -233 174 -233c90 0 137 64 137 117c0 82 -64 139 -125 192l-24 21c-75 65 -103 124 -103 182c0 100 82 213 251 213c88 0 143 -30 169 -46l31 17l16 -4l-48 -217l-26 7c2 74 -18 215 -149 215c-84 0 -129 -65 -129 -121
c0 -76 83 -133 137 -180l32 -28c41 -36 103 -100 103 -193c0 -124 -118 -205 -270 -205c-86 0 -148 28 -191 56z" />
    <glyph glyph-name="T" unicode="T" horiz-adv-x="667" 
d="M181 119l152 527c6 22 8 30 8 36c0 14 -9 22 -47 22c-120 0 -189 -115 -214 -170h-24l44 193h631l-49 -193h-21c4 131 -56 169 -126 169c-44 0 -56 -18 -73 -77l-149 -518c-2 -7 -8 -28 -8 -38c0 -43 30 -47 75 -47h9l-5 -23h-317l5 23c75 -1 94 44 109 96z" />
    <glyph glyph-name="U" unicode="U" horiz-adv-x="875" 
d="M125 275l100 344c4 14 7 27 7 38c0 48 -37 47 -74 47h-9l4 23h318l-5 -23c-77 0 -95 -44 -110 -96l-115 -397c-6 -20 -16 -51 -16 -79c0 -51 37 -110 169 -110c180 0 228 117 254 204l98 333c5 19 13 44 13 69c0 36 -17 70 -83 76l5 23h226l-4 -23
c-90 -16 -107 -85 -126 -152l-86 -300c-17 -61 -40 -143 -97 -194c-29 -26 -97 -72 -233 -72c-186 0 -259 80 -259 171c0 45 14 88 23 118z" />
    <glyph glyph-name="V" unicode="V" horiz-adv-x="690" 
d="M587 704l5 23h216l-4 -23c-63 -9 -88 -45 -143 -115l-478 -603h-45l22 636c2 49 -14 87 -99 82l4 23h334l-5 -23h-12c-67 0 -91 -2 -95 -102l-19 -457l353 449c10 13 27 34 27 62c0 30 -28 48 -61 48z" />
    <glyph glyph-name="W" unicode="W" horiz-adv-x="917" 
d="M732 727l-5 -23h-13c-71 0 -105 3 -110 -102l-20 -420l287 412c22 32 28 50 28 67c0 29 -35 43 -67 43l5 23h244l-4 -23c-84 -7 -130 -55 -191 -143l-398 -575h-40l25 471l-328 -471h-37l31 637c3 67 -42 87 -114 81l6 23h326l-5 -23h-9c-62 0 -77 -12 -81 -102l-20 -424
l233 336l8 116c5 69 -47 74 -68 74h-6l6 23h317z" />
    <glyph glyph-name="X" unicode="X" horiz-adv-x="833" 
d="M-39 0l4 23c61 8 95 36 170 107l219 207l-88 278c-14 44 -20 61 -31 70c-17 15 -59 18 -71 19l5 23h294l-4 -23c-68 1 -71 -23 -71 -33c0 -14 4 -27 13 -56l57 -181l190 177c24 22 37 38 37 57c0 25 -28 37 -51 36l5 23h220l-5 -23c-68 -12 -106 -44 -182 -114l-203 -189
l84 -263c17 -55 35 -114 109 -115l-5 -23h-294l5 23c24 0 65 10 65 48c0 10 -3 24 -14 59l-55 172l-192 -180c-24 -23 -46 -42 -46 -65c0 -20 15 -34 44 -34h3l-3 -23h-209z" />
    <glyph glyph-name="Y" unicode="Y" horiz-adv-x="699" 
d="M411 365l-73 -257c-2 -7 -8 -24 -8 -38c0 -53 58 -50 110 -47l-5 -23h-377l4 23h20c98 0 110 46 124 96l72 247l-93 248c-14 37 -34 90 -97 90h-5l5 23h294l-5 -23h-14c-35 0 -60 -5 -60 -27c0 -14 5 -38 100 -278l175 194c28 31 37 54 37 70c0 27 -29 41 -55 41l5 23
h191l-4 -23c-53 -15 -78 -44 -150 -125z" />
    <glyph glyph-name="Z" unicode="Z" horiz-adv-x="713" 
d="M516 704h-142c-64 0 -109 -33 -133 -63l-71 -88l-23 2l47 172h516l-553 -693v-11h196c61 0 103 39 124 63l97 111l23 -5l-55 -192h-570v12l544 680v12z" />
    <glyph glyph-name="bracketleft" unicode="[" horiz-adv-x="389" 
d="M234 -102h-274l237 829h239l-9 -33h-144l-219 -763h178z" />
    <glyph glyph-name="backslash" unicode="\" horiz-adv-x="278" 
d="M91 736h53l56 -829h-54z" />
    <glyph glyph-name="bracketright" unicode="]" horiz-adv-x="389" 
d="M125 727h274l-238 -829h-238l8 33h145l219 763h-178z" />
    <glyph glyph-name="asciicircum" unicode="^" horiz-adv-x="1000" 
d="M552 714l245 -276h-51l-247 194l-247 -194h-51l246 276h105z" />
    <glyph glyph-name="underscore" unicode="_" 
d="M500 -152v-84h-500v84h500z" />
    <glyph glyph-name="grave" unicode="`" 
d="M360 508h-33l-119 100c-13 11 -28 24 -28 42c0 17 14 33 33 33c18 0 35 -16 43 -28z" />
    <glyph glyph-name="a" unicode="a" horiz-adv-x="546" 
d="M258 163c49 84 77 169 77 217c0 52 -36 54 -48 54c-53 0 -88 -61 -114 -112c-44 -87 -75 -185 -75 -229c0 -34 23 -47 43 -47c42 0 81 55 117 117zM387 418l49 36h27l-107 -350c-3 -8 -5 -23 -5 -31c0 -15 5 -19 12 -19c27 0 56 50 82 98l19 -13
c-42 -91 -108 -154 -163 -154c-23 0 -49 12 -49 52c0 12 2 27 18 83l-10 3c-47 -83 -101 -136 -169 -136c-65 0 -105 45 -105 113c0 93 72 196 88 217c84 115 165 137 215 137c14 0 53 -2 98 -36z" />
    <glyph glyph-name="b" unicode="b" horiz-adv-x="495" 
d="M250 148c22 46 59 136 59 187c0 47 -25 58 -44 58c-45 0 -77 -51 -92 -78c-26 -46 -86 -188 -86 -252c0 -37 21 -53 44 -53c53 0 93 83 119 138zM278 736l-105 -368h9c25 38 72 86 132 86c52 0 107 -35 107 -122c0 -67 -36 -150 -97 -224c-84 -102 -156 -124 -210 -124
c-85 0 -117 53 -117 107c0 30 13 61 18 80l126 436c3 10 13 51 13 60c0 18 -11 39 -46 39h-6l5 23z" />
    <glyph glyph-name="c" unicode="c" horiz-adv-x="440" 
d="M304 172l19 -10c-4 -8 -25 -59 -61 -101c-40 -47 -93 -76 -147 -76c-60 0 -121 38 -121 134c0 38 10 111 62 193c41 63 110 142 212 142c73 0 111 -42 111 -83c0 -30 -22 -45 -48 -45c-37 0 -57 31 -57 52c0 8 3 15 3 23c0 12 -5 30 -27 30c-21 0 -52 -13 -84 -72
c-36 -67 -60 -162 -60 -238c0 -33 4 -54 14 -67c11 -15 25 -18 37 -18c46 0 81 37 97 57c19 23 37 51 50 79z" />
    <glyph glyph-name="d" unicode="d" horiz-adv-x="546" 
d="M173 322c-44 -86 -75 -186 -75 -230c0 -33 22 -46 43 -46c44 0 87 64 117 117c43 74 77 159 77 217c0 40 -22 54 -48 54c-53 0 -88 -61 -114 -112zM359 435l53 173c5 16 14 42 14 59c0 27 -20 39 -50 39h-3l4 23l171 7l-192 -632c-2 -6 -5 -15 -5 -31c0 -17 7 -19 12 -19
c29 0 57 54 82 98l19 -13c-64 -127 -123 -154 -163 -154c-48 0 -49 43 -49 52c0 12 2 27 18 83l-10 3c-55 -98 -111 -136 -169 -136c-65 0 -104 45 -104 115c0 81 54 169 86 214c83 116 169 138 216 138c14 0 41 -3 70 -19z" />
    <glyph glyph-name="e" unicode="e" horiz-adv-x="440" 
d="M306 162l17 -16c-12 -23 -33 -58 -66 -93c-40 -42 -81 -67 -135 -67c-79 0 -129 57 -129 144c0 79 44 148 82 198c60 78 122 126 200 126c70 0 102 -41 102 -81c0 -41 -28 -124 -265 -198c-10 -46 -11 -70 -11 -82c0 -51 30 -61 51 -61c35 0 69 28 88 47
c27 26 50 57 66 83zM118 206c117 37 167 115 167 173c0 31 -16 49 -36 49s-37 -16 -48 -28c-44 -50 -73 -141 -83 -194z" />
    <glyph glyph-name="f" unicode="f" horiz-adv-x="329" 
d="M106 391h-97l10 44h97c13 48 40 130 78 193c31 50 79 108 162 108c69 0 101 -41 101 -74c0 -24 -14 -47 -47 -47c-31 0 -44 24 -51 58c-3 17 -4 31 -27 31c-57 0 -90 -126 -116 -269h94l-9 -44h-97c-29 -137 -86 -365 -128 -451c-49 -101 -119 -142 -173 -142
c-42 0 -77 26 -77 63c0 22 15 41 43 41c30 0 38 -21 50 -38c9 -13 17 -21 31 -21c11 0 17 6 23 14c21 27 35 71 72 256c25 125 54 249 61 278z" />
    <glyph glyph-name="g" unicode="g" horiz-adv-x="444" 
d="M193 70l25 -8c81 -26 110 -72 110 -124c0 -71 -62 -140 -202 -140c-128 0 -185 57 -185 117s48 86 105 99c-18 10 -50 33 -50 69c0 23 9 72 101 105c-37 23 -67 62 -67 114c0 79 68 152 165 152c16 0 39 -3 54 -5c44 68 80 81 108 81c44 0 62 -30 62 -53
c0 -27 -22 -44 -41 -44c-17 0 -29 8 -36 13c-8 5 -18 12 -36 12c-7 0 -20 -1 -29 -16c48 -21 89 -64 89 -124c0 -85 -73 -147 -173 -147c-28 0 -56 8 -62 9c-17 -7 -48 -27 -48 -44c0 -33 59 -50 110 -66zM83 -1c-41 -6 -88 -36 -88 -84c0 -45 38 -90 139 -90
c97 0 114 39 114 65c0 31 -21 47 -42 59c-30 17 -60 26 -123 50zM243 261c17 33 31 79 31 110c0 40 -23 57 -48 57c-36 0 -55 -31 -70 -62c-20 -41 -33 -83 -33 -108c0 -28 14 -55 49 -55c36 0 57 31 71 58z" />
    <glyph glyph-name="h" unicode="h" horiz-adv-x="556" 
d="M-19 0l181 607c5 17 14 48 14 60c0 22 -16 39 -47 39h-6l4 23l171 7l-149 -477l10 -3c20 36 52 87 86 127c24 28 68 71 125 71c42 0 77 -25 77 -73c0 -43 -23 -96 -33 -122l-59 -157c-1 -3 -6 -19 -6 -22v-4c1 -6 4 -19 17 -19c23 0 69 78 84 104l21 -11
c-17 -32 -42 -73 -66 -101c-22 -26 -52 -56 -96 -56c-59 0 -59 50 -59 63c0 19 10 48 16 64l67 182c18 50 18 68 18 72c0 19 -15 27 -27 27c-36 0 -88 -61 -129 -132c-47 -81 -93 -192 -119 -269h-95z" />
    <glyph glyph-name="i" unicode="i" horiz-adv-x="333" 
d="M281 621c0 -33 -27 -60 -59 -60c-33 0 -60 27 -60 60s27 60 60 60c32 0 59 -27 59 -60zM215 326l-83 -224c-2 -6 -7 -17 -7 -28c0 -6 6 -17 18 -17c6 0 25 2 84 104l21 -11c-17 -32 -43 -73 -67 -102c-18 -22 -51 -55 -99 -55c-10 0 -55 2 -55 58c0 11 2 32 16 69l84 225
c2 4 6 19 6 26c0 6 -4 19 -17 19c-4 0 -26 -2 -85 -104l-21 11c16 32 39 70 66 101c21 25 53 56 96 56c56 0 59 -43 59 -64c0 -14 -2 -25 -16 -64z" />
    <glyph glyph-name="j" unicode="j" horiz-adv-x="301" 
d="M199 359l-74 -296c-29 -115 -77 -265 -215 -265c-57 0 -83 30 -83 57c0 25 18 43 44 43c17 0 33 -8 41 -20c4 -6 9 -21 10 -24c2 -7 6 -24 20 -24c29 0 50 90 58 122l103 392c1 3 5 20 5 26c0 11 -9 19 -17 19c-22 0 -69 -81 -83 -106l-21 11c23 49 83 160 164 160
c44 0 55 -34 55 -57c0 -14 -4 -25 -7 -38zM240 621c0 -33 -27 -60 -60 -60s-60 27 -60 60s27 60 60 60s60 -27 60 -60z" />
    <glyph glyph-name="k" unicode="k" horiz-adv-x="495" 
d="M359 123l19 -11c-21 -57 -63 -126 -136 -126c-40 0 -60 23 -60 69c0 33 8 82 8 101c0 32 -11 37 -34 37c-11 0 -18 0 -25 -2l-55 -191h-99l174 607c4 15 13 49 13 59c0 20 -18 40 -43 40h-9l5 23l170 7l-108 -376c52 47 131 94 183 94c51 0 72 -38 72 -70
c0 -39 -28 -102 -181 -161c20 -18 37 -46 37 -98v-34c0 -34 9 -34 16 -34c18 0 44 46 53 66zM166 310l-29 -94c157 25 202 90 202 134c0 21 -15 42 -44 42c-40 0 -101 -52 -129 -82z" />
    <glyph glyph-name="l" unicode="l" horiz-adv-x="282" 
d="M278 736l-181 -620c-3 -12 -7 -30 -7 -39s3 -21 14 -21c21 0 50 46 84 105l21 -11c-16 -30 -42 -73 -66 -101c-20 -23 -56 -57 -102 -57c-49 0 -50 42 -50 55c0 22 9 59 13 73l141 501c7 24 8 35 8 41c0 25 -16 44 -41 44h-10l5 23z" />
    <glyph glyph-name="m" unicode="m" horiz-adv-x="778" 
d="M109 0h-95l98 340c3 10 6 25 7 32v9c-1 13 -11 17 -15 17c-15 0 -58 -51 -95 -123l-23 9c51 110 114 170 161 170c33 0 55 -28 55 -67c0 -38 -18 -98 -32 -146l9 -3c22 49 53 103 79 138c42 58 81 78 109 78c38 0 62 -32 62 -74c0 -35 -21 -100 -37 -139l9 -3
c23 45 57 98 89 138c50 62 91 78 118 78c39 0 67 -31 67 -77c0 -20 -7 -52 -34 -124l-57 -151c-2 -6 -7 -11 -7 -26c0 -6 3 -18 17 -18c5 0 26 0 85 103l21 -11c-18 -35 -42 -73 -66 -101c-19 -23 -52 -56 -100 -56c-16 0 -55 5 -55 60c0 9 2 28 16 67l67 182
c6 17 19 61 19 75c0 12 -10 17 -19 17c-33 0 -85 -73 -110 -114c-48 -79 -94 -190 -121 -280h-95l93 317c13 43 13 55 13 59c0 17 -15 18 -21 18c-37 0 -87 -94 -97 -113c-5 -9 -66 -122 -115 -281z" />
    <glyph glyph-name="n" unicode="n" horiz-adv-x="556" 
d="M109 0h-95l98 340c3 10 7 32 7 40c0 12 -8 18 -14 18c-11 0 -42 -18 -96 -123l-23 9c71 147 132 170 161 170c36 0 55 -31 55 -67c0 -38 -18 -98 -32 -146l9 -3c23 45 55 96 89 138c18 22 66 78 118 78c40 0 67 -33 67 -77c0 -19 -6 -51 -34 -124l-58 -151
c-2 -6 -6 -21 -6 -26c0 -10 8 -19 17 -19c23 0 71 80 85 104l21 -11c-18 -36 -43 -74 -66 -101c-25 -30 -57 -56 -102 -56c-50 0 -53 44 -53 60c0 10 2 28 16 67l66 182c5 13 19 57 19 75c0 15 -12 17 -18 17c-34 0 -85 -73 -109 -112c-48 -79 -95 -194 -122 -282z" />
    <glyph glyph-name="o" unicode="o" horiz-adv-x="440" 
d="M222 454c90 0 146 -72 146 -174c0 -52 -13 -121 -54 -186c-51 -82 -117 -111 -175 -111c-90 0 -146 72 -146 175c0 48 11 120 54 188c58 92 132 108 175 108zM139 307c-33 -87 -60 -191 -60 -243c0 -38 20 -56 44 -56c47 0 77 70 99 126c41 107 60 199 60 242
s-26 53 -43 53c-49 0 -79 -66 -100 -122z" />
    <glyph glyph-name="p" unicode="p" horiz-adv-x="495" 
d="M-102 -190l5 23c66 1 79 51 98 118l123 431c-19 -12 -66 -44 -115 -114l-18 13c20 38 62 102 149 157l29 101l106 36l-35 -121c118 3 185 -78 185 -181c0 -79 -32 -145 -68 -194c-51 -68 -105 -93 -150 -93c-33 0 -66 16 -91 39l-30 -105c-10 -33 -10 -42 -10 -48
c0 -25 32 -38 54 -39l-5 -23h-227zM226 406l-99 -343c15 -26 39 -40 62 -40c50 0 80 60 98 111c13 36 29 87 29 156c0 22 0 118 -90 116z" />
    <glyph glyph-name="q" unicode="q" 
d="M345 -167l-4 -23h-251l5 23c20 5 62 17 72 30c11 15 24 67 28 80l31 107l-8 3c-32 -44 -79 -67 -122 -67c-53 0 -106 41 -106 136c0 87 44 164 72 205c72 104 144 127 198 127c24 0 67 -5 102 -43l26 20l10 9c10 9 17 13 24 13c8 0 16 -6 17 -14v-2c0 -3 -1 -3 -3 -11
c0 -4 -1 -9 -3 -15l-141 -472c-8 -28 -11 -42 -11 -55c0 -15 4 -45 64 -51zM240 130c49 92 79 200 79 247c0 36 -18 53 -38 53c-33 0 -74 -34 -123 -137c-23 -50 -77 -173 -77 -229c0 -39 24 -46 41 -46c29 0 72 26 118 112z" />
    <glyph glyph-name="r" unicode="r" horiz-adv-x="444" 
d="M14 0l98 340c3 10 6 25 7 32v9c-1 13 -11 17 -15 17c-22 0 -73 -81 -95 -123l-23 9c38 87 107 170 163 170c25 0 53 -19 53 -68c0 -43 -30 -130 -42 -164l10 -4c38 83 110 236 197 236c28 0 62 -14 62 -56c0 -38 -27 -60 -57 -60c-28 0 -40 18 -48 28c-6 7 -13 16 -21 16
c-31 0 -126 -174 -194 -382h-95z" />
    <glyph glyph-name="s" unicode="s" horiz-adv-x="389" 
d="M66 88l11 -25c8 -18 16 -50 58 -50c34 0 60 25 60 65c0 44 -34 83 -74 125c-34 36 -75 75 -75 133s42 118 143 118c93 0 139 -41 139 -80c0 -24 -16 -47 -44 -47c-31 0 -51 21 -51 50v7c0 34 -24 47 -50 47c-28 0 -50 -17 -50 -49c0 -42 36 -72 72 -106l20 -19
c44 -42 61 -92 61 -129c0 -72 -57 -142 -176 -142c-104 0 -155 48 -155 92c0 28 21 48 51 48c24 0 50 -15 60 -38z" />
    <glyph glyph-name="t" unicode="t" horiz-adv-x="333" 
d="M199 391l-92 -296c-2 -6 -6 -22 -6 -27c0 -10 8 -18 17 -18c11 0 23 14 27 19c21 26 46 66 57 85l21 -11c-16 -33 -39 -70 -66 -101c-19 -22 -54 -56 -102 -56c-39 0 -53 29 -53 57c0 26 11 53 16 70l86 278h-65l10 44h69l34 104c28 11 65 29 104 61h13l-51 -165h83
l-9 -44h-93z" />
    <glyph glyph-name="u" unicode="u" horiz-adv-x="579" 
d="M394 446h99l-102 -339c-6 -18 -8 -28 -8 -37c0 -16 9 -22 16 -22c5 0 10 4 14 7c39 33 75 97 85 116l24 -8c-19 -39 -45 -80 -70 -109c-33 -39 -69 -62 -98 -62c-28 0 -58 21 -58 68c0 21 7 65 33 146l-9 2c-25 -46 -60 -99 -93 -138c-46 -54 -89 -78 -124 -78
c-42 0 -71 32 -71 78c0 21 7 51 36 124l60 151c6 14 7 21 7 25c0 11 -8 20 -18 20c-8 0 -15 -6 -20 -10c-11 -9 -31 -31 -69 -94l-22 11c20 36 47 76 69 101c20 23 56 56 105 56c31 0 58 -17 58 -57c0 -22 -6 -44 -17 -71l-70 -182c-17 -44 -19 -59 -19 -69
c0 -20 16 -22 23 -22c40 0 101 96 108 108c55 86 101 191 131 285z" />
    <glyph glyph-name="v" unicode="v" horiz-adv-x="556" 
d="M264 454l-36 -63c-70 -122 -102 -182 -102 -229c0 -54 37 -91 92 -91c50 0 96 31 140 81c24 27 60 73 60 128c0 29 -9 49 -19 72c-10 24 -14 39 -14 50c0 23 17 52 53 52c30 0 58 -18 58 -70c0 -20 -3 -90 -80 -200c-79 -113 -182 -198 -273 -198c-62 0 -103 39 -103 103
c0 50 25 123 136 274c-30 3 -59 11 -81 23c-10 5 -19 13 -27 13s-18 -6 -18 -19c0 -12 9 -17 15 -23c14 -13 19 -21 19 -32c0 -18 -13 -36 -37 -36c-21 0 -43 16 -43 52c0 62 55 113 123 113c18 0 33 -4 44 -6c23 -5 30 -6 43 -6c14 0 27 1 50 12z" />
    <glyph glyph-name="w" unicode="w" horiz-adv-x="778" 
d="M272 454l-105 -157c-28 -42 -59 -109 -59 -156c0 -46 27 -74 72 -74c15 0 50 2 86 35c-2 17 -3 33 -3 49c0 37 5 112 54 200c33 60 75 98 120 98c37 0 56 -24 56 -68c0 -89 -72 -186 -135 -244c22 -35 59 -64 107 -64c95 0 172 88 172 180c0 79 -36 24 -36 141
c0 32 21 60 52 60c25 0 63 -21 63 -100c0 -92 -48 -174 -92 -226c-62 -79 -162 -142 -235 -142c-45 0 -87 25 -106 72c-39 -33 -103 -72 -161 -72c-64 0 -116 42 -116 106c0 45 26 88 51 123c22 30 41 53 114 144c-23 3 -45 10 -64 19c-26 13 -33 19 -39 19
c-8 0 -15 -9 -15 -16c0 -8 6 -15 9 -19c12 -16 15 -24 15 -36c0 -25 -18 -38 -35 -38c-20 0 -40 16 -40 50c0 60 53 116 118 116c15 0 25 -4 37 -7c10 -2 17 -3 29 -3c20 0 52 2 86 10zM345 172c42 36 92 99 92 158c0 37 -21 49 -38 49c-38 0 -67 -55 -67 -138
c0 -14 1 -30 13 -69z" />
    <glyph glyph-name="x" unicode="x" horiz-adv-x="556" 
d="M0 169l26 -9c-4 -13 -13 -42 -13 -64c0 -41 24 -55 46 -55c15 0 27 7 37 14c31 22 53 55 99 124l4 6l-23 129c-4 23 -13 74 -43 74c-28 0 -43 -45 -58 -82l-8 -19l-22 6c9 28 26 75 44 104c20 34 45 57 86 57c22 0 41 -5 58 -24c9 -10 29 -38 42 -114l2 -12
c3 4 35 60 67 96c18 21 51 54 94 54c36 0 62 -26 62 -66c0 -20 -8 -52 -18 -76l-23 6c2 8 5 30 5 38c0 29 -23 42 -45 42c-33 0 -61 -31 -78 -52c-10 -12 -34 -44 -55 -90l25 -135c5 -27 9 -57 34 -57c6 0 14 2 23 11c19 18 37 60 48 90l21 -9c-8 -29 -21 -63 -43 -98
c-37 -59 -74 -75 -98 -75c-19 0 -34 8 -47 25c-16 21 -27 51 -37 112l-4 24c-20 -30 -52 -75 -77 -102c-20 -22 -59 -58 -99 -58c-38 0 -58 33 -58 85c0 14 1 46 26 100z" />
    <glyph glyph-name="y" unicode="y" horiz-adv-x="419" 
d="M-25 284l-20 6c5 25 18 72 35 105c24 45 53 59 77 59c64 0 85 -84 95 -139c13 -72 24 -191 28 -268h10c35 41 101 138 101 201c0 27 -11 54 -27 82c-9 15 -24 38 -24 67c0 34 18 57 49 57c16 0 65 -6 65 -89c0 -137 -92 -269 -149 -344c-74 -97 -188 -223 -311 -223
c-51 0 -66 30 -66 53c0 34 30 53 55 53c19 0 36 -13 48 -22c14 -10 27 -22 49 -22c43 0 114 50 114 139c0 34 -12 161 -26 273c-5 40 -7 63 -18 81c-13 22 -34 18 -46 8c-15 -12 -35 -61 -39 -77z" />
    <glyph glyph-name="z" unicode="z" 
d="M-11 57l302 246c-22 12 -43 27 -61 42s-31 30 -44 40s-29 19 -43 19c-19 0 -35 -13 -35 -33c0 -10 5 -19 19 -34c8 -8 19 -16 19 -33c0 -22 -20 -38 -40 -38c-25 0 -50 21 -50 61c0 75 69 127 146 127c31 0 59 -9 81 -21c24 -13 41 -30 56 -40c8 -5 17 -11 27 -11
c19 0 26 17 32 33c5 14 12 33 36 33c16 0 27 -11 27 -27c0 -17 -12 -31 -35 -50l-297 -245c29 -12 52 -27 83 -54c20 -17 40 -36 67 -36c26 0 47 20 47 48c0 11 -4 14 -11 17c-15 5 -21 3 -43 18c-11 8 -21 17 -21 35c0 22 18 37 42 37c40 0 67 -37 67 -84
c0 -62 -48 -122 -140 -122c-25 0 -47 4 -68 14c-24 11 -39 26 -52 37c-15 13 -26 23 -41 23c-23 0 -32 -19 -44 -39l-5 -8c-10 -16 -25 -25 -38 -25c-14 0 -23 9 -23 22c0 21 23 34 40 48z" />
    <glyph glyph-name="braceleft" unicode="{" 
d="M415 740v-28c-91 -1 -109 -35 -109 -129v-67c0 -126 -16 -182 -129 -206c113 -24 129 -80 129 -206v-67c0 -94 18 -127 109 -128v-28h-5c-147 0 -190 42 -190 169v98c0 101 -27 137 -133 146v33c107 10 133 44 133 146v98c0 129 44 169 195 169z" />
    <glyph glyph-name="bar" unicode="|" 
d="M294 764v-1000h-87v1000h87z" />
    <glyph glyph-name="braceright" unicode="}" 
d="M281 571v-98c0 -102 26 -136 133 -146v-33c-107 -9 -133 -45 -133 -146v-98c0 -127 -44 -169 -191 -169h-5v28c91 1 109 34 109 128v67c0 126 15 182 129 206c-114 24 -129 81 -129 206v67c0 94 -18 128 -109 129v28h5c147 0 191 -42 191 -169z" />
    <glyph glyph-name="asciitilde" unicode="~" horiz-adv-x="833" 
d="M747 383v-90c-65 -45 -126 -69 -186 -69c-29 0 -61 6 -93 17c-69 23 -129 49 -193 49c-58 0 -117 -28 -188 -78v91c69 47 131 70 189 70c57 0 102 -15 143 -29c49 -17 94 -36 143 -36c58 0 117 26 185 75z" />
    <glyph glyph-name="nbspace" unicode="&#xa0;" horiz-adv-x="248" 
 />
    <glyph glyph-name="exclamdown" unicode="&#xa1;" horiz-adv-x="389" 
d="M235 534l24 -5c-41 -151 -33 -287 -43 -403c-8 -95 -35 -141 -91 -141c-44 0 -69 28 -69 79c0 42 15 98 47 165c51 107 104 204 132 305zM352 665c0 -40 -31 -71 -71 -71c-39 0 -71 31 -71 71s31 71 71 71s71 -31 71 -71z" />
    <glyph glyph-name="cent" unicode="&#xa2;" horiz-adv-x="495" 
d="M348 172l19 -10c-38 -94 -98 -152 -180 -175l-52 -128h-35l52 127c-75 7 -115 52 -115 133c0 88 47 195 122 267c46 45 93 67 146 67c11 0 23 -1 34 -3l46 115h36l-51 -125c35 -16 53 -38 53 -68c0 -27 -19 -46 -48 -46c-16 0 -31 6 -44 18l-124 -308
c56 10 102 55 141 136zM176 45l143 356c0 20 -8 30 -25 30c-35 0 -71 -35 -100 -103c-31 -71 -47 -154 -47 -223c0 -31 7 -50 29 -60z" />
    <glyph glyph-name="sterling" unicode="&#xa3;" horiz-adv-x="495" 
d="M143 282h-111l10 44h96c-4 34 -5 64 -5 89c0 172 99 285 206 285c74 0 123 -52 123 -134c0 -80 -42 -134 -91 -134c-36 0 -60 25 -60 56c0 40 17 78 45 103l17 -13c-22 -32 -37 -56 -37 -86c0 -22 16 -37 35 -37c33 0 65 47 65 111c0 61 -31 100 -73 100
c-78 0 -96 -110 -131 -340h134l-10 -44h-134c-8 -58 -18 -109 -33 -153c60 -25 109 -42 153 -42s74 20 90 59l19 -8c-22 -97 -84 -152 -156 -152c-48 0 -84 28 -131 80c-22 -54 -51 -78 -98 -78c-45 0 -78 31 -78 78c0 51 41 88 99 88c21 0 44 -4 69 -12v19
c0 38 -4 77 -13 121zM147 83c-18 26 -41 39 -67 39c-35 0 -60 -24 -60 -55c0 -29 22 -51 51 -51c32 0 58 22 76 67z" />
    <glyph glyph-name="currency" unicode="&#xa4;" horiz-adv-x="606" 
d="M82 698l99 -99c36 27 76 40 122 40s87 -13 123 -40l99 99l46 -45l-100 -100c26 -35 39 -76 39 -121s-13 -86 -39 -121l100 -100l-46 -45l-99 100c-37 -27 -76 -40 -122 -40s-87 13 -123 40l-99 -100l-45 45l99 100c-26 35 -39 76 -39 121s13 86 39 121l-99 100zM446 432
c0 77 -64 142 -142 142s-142 -65 -142 -142c0 -78 63 -141 142 -141s142 63 142 141z" />
    <glyph glyph-name="yen" unicode="&#xa5;" horiz-adv-x="690" 
d="M387 310l-57 -202c-5 -18 -8 -30 -8 -38c0 -38 22 -48 80 -48c9 0 19 1 30 1l-5 -23h-361l5 23h20c78 0 103 24 124 96l55 191h-236l8 32h238l6 24l-36 94h-173l9 32h152l-45 122c-23 61 -45 90 -96 90h-5l4 23h278l-5 -23h-14c-40 0 -60 -8 -60 -27c0 -18 9 -39 20 -67
l80 -211l175 194c26 28 38 53 38 70c0 22 -21 39 -56 41l5 23h191l-4 -23c-54 -12 -100 -68 -170 -147l-57 -65h163l-10 -32h-182l-85 -95l-8 -23h242l-10 -32h-240z" />
    <glyph glyph-name="brokenbar" unicode="&#xa6;" 
d="M294 699v-370h-87v370h87zM294 199v-370h-87v370h87z" />
    <glyph glyph-name="section" unicode="&#xa7;" 
d="M316 499l50 -62c43 -53 69 -97 69 -146c0 -72 -53 -122 -134 -122c-6 0 -13 0 -20 1c43 -51 64 -98 64 -139c0 -72 -66 -126 -164 -126c-86 0 -142 49 -142 108c0 35 25 59 61 59c26 0 47 -21 47 -46c0 -32 -34 -51 -34 -64c0 -17 23 -33 61 -33c54 0 93 35 93 82
c0 43 -33 80 -80 139l-50 63c-42 53 -68 95 -68 143c0 69 57 124 139 124c6 0 11 0 17 -1c-42 48 -63 91 -63 127c0 77 64 130 161 130c82 0 133 -44 133 -97c0 -35 -24 -61 -56 -61c-28 0 -50 21 -50 46c0 29 30 43 30 58c0 14 -21 29 -54 29c-57 0 -91 -31 -91 -74
c0 -39 32 -77 81 -138zM139 387c0 -28 17 -64 51 -110c38 -52 63 -83 108 -83c39 0 66 27 66 63c0 28 -14 60 -41 99c-44 64 -78 96 -112 96c-39 0 -72 -31 -72 -65z" />
    <glyph glyph-name="dieresis" unicode="&#xa8;" 
d="M253 581c0 -26 -18 -49 -48 -49c-32 0 -48 28 -48 49c0 25 23 48 48 48c27 0 48 -22 48 -48zM436 581c0 -26 -18 -49 -48 -49c-32 0 -48 28 -48 49c0 25 23 48 48 48c27 0 48 -22 48 -48z" />
    <glyph glyph-name="copyright" unicode="&#xa9;" horiz-adv-x="822" 
d="M412 684c92 0 182 -38 247 -103c66 -66 104 -157 104 -250c0 -92 -37 -181 -104 -249c-66 -67 -153 -102 -248 -102c-94 0 -180 35 -248 102c-67 67 -104 154 -104 249c0 93 36 181 103 249c66 66 156 104 250 104zM715 331c0 81 -33 161 -90 218c-56 56 -134 88 -213 88
c-81 0 -159 -32 -216 -90c-58 -59 -89 -135 -89 -216c0 -83 32 -158 90 -216c59 -59 132 -89 214 -89s157 31 214 89c58 59 90 137 90 216zM569 537l1 -156h-23c-21 88 -68 133 -134 133c-75 0 -115 -61 -115 -180c0 -121 44 -185 124 -185c53 0 98 28 135 85l21 -13
c-41 -70 -97 -104 -171 -104c-115 0 -204 92 -204 210c0 121 89 212 203 212c65 0 97 -32 113 -32c18 0 26 8 30 30h20z" />
    <glyph glyph-name="ordfeminine" unicode="&#xaa;" horiz-adv-x="408" 
d="M104 441c26 0 54 27 88 82c42 67 57 125 57 152c0 25 -12 38 -36 38c-31 0 -57 -26 -85 -79c-42 -76 -56 -140 -56 -161c0 -19 13 -32 32 -32zM288 702l37 25h20l-80 -245c-3 -9 -4 -16 -4 -22c0 -9 3 -13 9 -13c19 0 34 24 62 68l14 -9c-36 -71 -84 -107 -122 -107
c-25 0 -37 12 -37 36c0 11 5 30 14 58l-8 2c-40 -64 -80 -95 -127 -95c-48 0 -79 30 -79 80c0 40 22 92 67 151c48 64 108 96 161 96c24 0 48 -8 73 -25z" />
    <glyph glyph-name="guillemotleft" unicode="&#xab;" horiz-adv-x="393" 
d="M175 366h14l1 -14c-32 -45 -70 -90 -112 -137c20 -40 35 -83 44 -127v-14h-14c-33 53 -69 102 -109 146c64 48 122 97 176 146zM327 366h14v-14c-32 -45 -69 -90 -111 -137c20 -40 34 -83 43 -127v-14h-14c-33 53 -69 102 -109 146c64 48 123 97 177 146z" />
    <glyph glyph-name="logicalnot" unicode="&#xac;" horiz-adv-x="833" 
d="M709 421v-245h-81v164h-504v81h585z" />
    <glyph glyph-name="uni00AD" unicode="&#xad;" horiz-adv-x="333" 
d="M7 169l25 102h224l-25 -102h-224z" />
    <glyph glyph-name="registered" unicode="&#xae;" horiz-adv-x="822" 
d="M412 684c94 0 186 -39 251 -106c63 -65 100 -155 100 -251c0 -89 -40 -181 -110 -250c-66 -65 -149 -97 -249 -97c-87 0 -175 36 -241 102c-68 68 -104 154 -104 249c0 93 37 182 103 249c66 66 156 104 250 104zM715 331c0 80 -34 161 -90 218c-56 56 -134 88 -213 88
c-81 0 -159 -32 -216 -90c-58 -59 -89 -134 -89 -216c0 -83 32 -158 90 -216c59 -59 132 -89 214 -89s157 31 214 89c58 59 90 136 90 216zM228 535h195c100 0 156 -43 156 -96c0 -57 -43 -85 -138 -102c61 -16 94 -45 106 -98c9 -38 0 -77 31 -77c19 0 29 23 29 65h24v-11
c0 -56 -29 -85 -83 -85c-31 0 -53 10 -65 28c-19 31 -10 69 -17 100c-11 49 -40 71 -89 71h-12v-120c0 -33 13 -43 53 -47v-23h-190v23c42 2 55 13 55 47v254c0 34 -12 44 -55 47v24zM365 479v-126c15 -1 23 -1 26 -1c66 0 102 30 102 83c0 44 -31 77 -82 77
c-30 0 -46 -11 -46 -33z" />
    <glyph glyph-name="macron" unicode="&#xaf;" 
d="M164 550l13 61h252l-13 -61h-252z" />
    <glyph glyph-name="degree" unicode="&#xb0;" horiz-adv-x="329" 
d="M165 713c80 0 144 -65 144 -145c0 -78 -64 -144 -145 -144c-80 0 -143 63 -143 144s64 145 144 145zM255 569c0 50 -40 90 -90 90s-91 -40 -91 -90s41 -91 91 -91c51 0 90 42 90 91z" />
    <glyph glyph-name="plusminus" unicode="&#xb1;" horiz-adv-x="833" 
d="M458 589v-163h251v-81h-251v-163h-83v163h-251v81h251v163h83zM709 89v-82h-585v82h585z" />
    <glyph glyph-name="twosuperior" unicode="&#xb2;" horiz-adv-x="324" 
d="M229 389h16l-31 -100h-213v5c0 53 28 95 81 144c79 74 141 116 141 176c0 36 -25 58 -61 58c-35 0 -63 -21 -96 -64l-14 3c36 81 80 120 142 120c63 0 108 -40 108 -94c0 -59 -41 -115 -120 -163c-63 -37 -117 -66 -143 -120h107c44 0 68 5 83 35z" />
    <glyph glyph-name="threesuperior" unicode="&#xb3;" horiz-adv-x="324" 
d="M95 504l2 17c94 31 142 70 142 112c0 31 -22 50 -55 50c-31 0 -62 -19 -94 -58l-10 7c36 66 83 99 139 99c54 0 88 -27 88 -71c0 -49 -42 -84 -125 -127c48 -18 76 -56 76 -103c0 -37 -17 -75 -46 -103c-32 -31 -68 -46 -111 -46c-57 0 -97 31 -97 72c0 29 17 47 43 47
c23 0 40 -15 40 -34c0 -27 -32 -37 -32 -49s17 -23 42 -23c46 0 83 45 83 109c0 59 -27 91 -85 101z" />
    <glyph glyph-name="acute" unicode="&#xb4;" 
d="M241 508h-35l146 153c16 17 31 21 39 21c19 0 34 -16 34 -34c0 -15 -11 -26 -34 -41z" />
    <glyph glyph-name="mu" unicode="&#xb5;" horiz-adv-x="578" 
d="M33 182l53 250h101l-49 -228c-7 -32 -10 -55 -10 -68c0 -42 26 -67 68 -67c57 0 89 34 105 108l54 255h102l-55 -260c-4 -19 -9 -39 -9 -61c0 -28 16 -44 42 -44c27 0 46 14 63 44c15 27 18 53 36 53c8 0 11 -5 11 -15c0 -14 -10 -58 -28 -91c-26 -46 -61 -70 -107 -70
c-54 0 -85 36 -86 103c-28 -68 -72 -103 -130 -103c-64 0 -103 38 -110 110c-38 -205 -23 -303 -89 -303c-30 0 -48 18 -48 49c0 52 48 160 86 338z" />
    <glyph glyph-name="mu" unicode="&#x3bc;" horiz-adv-x="578" 
d="M33 182l53 250h101l-49 -228c-7 -32 -10 -55 -10 -68c0 -42 26 -67 68 -67c57 0 89 34 105 108l54 255h102l-55 -260c-4 -19 -9 -39 -9 -61c0 -28 16 -44 42 -44c27 0 46 14 63 44c15 27 18 53 36 53c8 0 11 -5 11 -15c0 -14 -10 -58 -28 -91c-26 -46 -61 -70 -107 -70
c-54 0 -85 36 -86 103c-28 -68 -72 -103 -130 -103c-64 0 -103 38 -110 110c-38 -205 -23 -303 -89 -303c-30 0 -48 18 -48 49c0 52 48 160 86 338z" />
    <glyph glyph-name="paragraph" unicode="&#xb6;" 
d="M473 674h-57v-674h-63v674h-83v-674h-63v383c-112 4 -180 73 -180 169c0 100 73 170 191 170h255v-48z" />
    <glyph glyph-name="periodcentered" unicode="&#xb7;" horiz-adv-x="248" 
d="M53 361c0 42 32 74 74 74c41 0 74 -32 74 -74c0 -41 -33 -74 -74 -74c-42 0 -74 32 -74 74z" />
    <glyph glyph-name="cedilla" unicode="&#xb8;" 
d="M29 -181l17 38c33 -19 75 -35 110 -35c39 0 58 14 58 45c0 32 -25 44 -54 44c-8 0 -19 -1 -46 -8l32 97h32l-18 -55c10 2 20 3 30 3c57 0 89 -31 89 -80c0 -53 -42 -86 -107 -86c-41 0 -83 13 -143 37z" />
    <glyph glyph-name="onesuperior" unicode="&#xb9;" horiz-adv-x="325" 
d="M216 303l-3 -14h-212l3 14c27 0 46 5 59 17c9 7 16 29 27 64l72 229c3 11 8 22 8 36c0 13 -17 20 -50 20h-15l3 13c63 4 113 19 154 49h13l-117 -369c-4 -11 -6 -21 -6 -30c0 -23 16 -29 57 -29h7z" />
    <glyph glyph-name="ordmasculine" unicode="&#xba;" horiz-adv-x="327" 
d="M101 397c-63 0 -109 47 -109 122c0 46 15 94 40 132c35 51 82 76 132 76c62 0 109 -46 109 -120c0 -46 -15 -95 -40 -132c-35 -51 -82 -78 -132 -78zM209 672c0 25 -14 37 -33 37c-29 0 -50 -27 -75 -85c-34 -81 -45 -147 -45 -170c0 -25 15 -39 33 -39c29 0 50 30 75 88
c34 82 45 146 45 169z" />
    <glyph glyph-name="guillemotright" unicode="&#xbb;" horiz-adv-x="393" 
d="M-12 74h-14l-1 14c32 45 69 90 111 137c-20 40 -34 83 -43 127v14h14c33 -53 69 -103 109 -147c-64 -48 -122 -96 -176 -145zM139 74h-14v14c32 45 69 90 111 137c-20 40 -34 83 -43 127v14h13c33 -53 70 -103 110 -147c-64 -48 -123 -96 -177 -145z" />
    <glyph glyph-name="onequarter" unicode="&#xbc;" horiz-adv-x="789" 
d="M206 331l-2 -13h-203l3 13c26 0 44 5 56 16c8 7 15 27 26 60l69 213c3 11 7 21 7 34c0 12 -16 19 -48 19c-4 0 -9 0 -14 -1l4 13c59 4 107 17 146 45h12l-111 -344c-4 -10 -6 -19 -6 -28c0 -22 15 -27 55 -27h6zM587 736h56l-443 -759h-57zM645 0h-72l42 139h-127v33
l255 240h26l-73 -241h63l-10 -32h-63zM517 171h107c21 59 43 113 65 164l-172 -160v-4z" />
    <glyph glyph-name="onehalf" unicode="&#xbd;" horiz-adv-x="789" 
d="M206 331l-2 -13h-203l3 13c26 0 44 5 56 16c8 7 15 27 26 60l69 213c3 11 7 21 7 34c0 12 -16 19 -48 19c-4 0 -9 0 -14 -1l4 13c59 4 107 17 146 45h12l-111 -344c-4 -10 -6 -19 -6 -28c0 -22 15 -27 55 -27h6zM587 736h56l-443 -759h-57zM698 93h16l-30 -93h-203v5
c0 49 27 89 77 134c76 69 134 108 134 164c0 34 -23 54 -58 54c-33 0 -59 -19 -91 -59l-13 3c34 75 76 111 135 111c60 0 103 -37 103 -87c0 -56 -39 -108 -115 -152c-59 -35 -111 -62 -136 -113h102c43 0 65 6 79 33z" />
    <glyph glyph-name="threequarters" unicode="&#xbe;" horiz-adv-x="789" 
d="M92 518l2 17c89 28 135 65 135 104c0 29 -21 47 -52 47c-30 0 -60 -18 -90 -54l-10 6c35 61 79 92 133 92c51 0 84 -25 84 -66c0 -46 -40 -78 -120 -119c46 -16 73 -52 73 -95c0 -35 -17 -70 -44 -97c-30 -28 -65 -43 -105 -43c-55 0 -94 30 -94 68c0 27 17 44 42 44
c22 0 38 -14 38 -32c0 -26 -31 -35 -31 -46s17 -22 40 -22c44 0 80 43 80 102c0 55 -26 86 -81 94zM587 736h56l-443 -759h-57zM645 0h-72l42 139h-127v33l255 240h26l-73 -241h63l-10 -32h-63zM517 171h107c21 59 43 113 65 164l-172 -160v-4z" />
    <glyph glyph-name="questiondown" unicode="&#xbf;" horiz-adv-x="556" 
d="M494 665c0 -40 -31 -71 -71 -71c-39 0 -71 31 -71 71s31 71 71 71s71 -31 71 -71zM442 465c0 -72 -69 -92 -161 -143c-106 -59 -158 -121 -158 -195s46 -117 124 -117s138 49 138 106c0 32 -22 54 -40 54c-9 0 -16 -6 -16 -12c0 -14 6 -27 6 -42c0 -34 -24 -57 -64 -57
c-38 0 -66 28 -66 71c0 54 44 96 106 96s104 -40 104 -103c0 -81 -71 -137 -182 -137c-119 0 -199 71 -199 165c0 84 63 156 184 197c65 22 121 29 157 53c27 18 40 41 40 68s-16 45 -40 45c-13 0 -19 -5 -19 -15c0 -12 15 -23 15 -41c0 -22 -15 -35 -41 -35
c-23 0 -40 18 -40 48c0 40 33 70 78 70c44 0 74 -30 74 -76z" />
    <glyph glyph-name="Agrave" unicode="&#xc0;" horiz-adv-x="722" 
d="M135 23l-4 -23h-200l5 23c59 11 82 47 131 118l391 569c48 3 79 15 101 26h25l-21 -631c-1 -40 13 -58 21 -65c16 -14 55 -18 78 -17l-5 -23h-333l5 23h13c16 0 57 0 76 20c13 14 17 39 18 82l2 75h-295l-50 -78c-17 -26 -17 -43 -17 -50c0 -45 44 -49 59 -49zM439 232
l15 421l-288 -421h273zM555 768h-33l-119 100c-13 11 -28 24 -28 42c0 17 14 33 33 33c18 0 35 -16 43 -28z" />
    <glyph glyph-name="Aacute" unicode="&#xc1;" horiz-adv-x="722" 
d="M135 23l-4 -23h-200l5 23c59 11 82 47 131 118l391 569c48 3 79 15 101 26h25l-21 -631c-1 -40 13 -58 21 -65c16 -14 55 -18 78 -17l-5 -23h-333l5 23h13c16 0 57 0 76 20c13 14 17 39 18 82l2 75h-295l-50 -78c-17 -26 -17 -43 -17 -50c0 -45 44 -49 59 -49zM439 232
l15 421l-288 -421h273zM477 768h-35l146 153c16 17 31 21 39 21c19 0 34 -16 34 -34c0 -15 -11 -26 -34 -41z" />
    <glyph glyph-name="Acircumflex" unicode="&#xc2;" horiz-adv-x="722" 
d="M135 23l-4 -23h-200l5 23c59 11 82 47 131 118l391 569c48 3 79 15 101 26h25l-21 -631c-1 -40 13 -58 21 -65c16 -14 55 -18 78 -17l-5 -23h-333l5 23h13c16 0 57 0 76 20c13 14 17 39 18 82l2 75h-295l-50 -78c-17 -26 -17 -43 -17 -50c0 -45 44 -49 59 -49zM439 232
l15 421l-288 -421h273zM653 768h-27l-87 101l-134 -101h-33l151 170h51z" />
    <glyph glyph-name="Atilde" unicode="&#xc3;" horiz-adv-x="722" 
d="M135 23l-4 -23h-200l5 23c59 11 82 47 131 118l391 569c48 3 79 15 101 26h25l-21 -631c-1 -40 13 -58 21 -65c16 -14 55 -18 78 -17l-5 -23h-333l5 23h13c16 0 57 0 76 20c13 14 17 39 18 82l2 75h-295l-50 -78c-17 -26 -17 -43 -17 -50c0 -45 44 -49 59 -49zM439 232
l15 421l-288 -421h273zM640 900h24c-3 -15 -10 -43 -23 -62c-17 -24 -40 -33 -68 -33c-10 0 -18 1 -28 4l-71 20c-5 1 -20 4 -26 4c-15 0 -40 -6 -46 -37h-24c2 17 8 37 17 52c17 28 40 39 68 39c14 0 25 -3 36 -6l64 -18c6 -2 20 -3 27 -3c32 0 46 21 50 40z" />
    <glyph glyph-name="Adieresis" unicode="&#xc4;" horiz-adv-x="722" 
d="M135 23l-4 -23h-200l5 23c59 11 82 47 131 118l391 569c48 3 79 15 101 26h25l-21 -631c-1 -40 13 -58 21 -65c16 -14 55 -18 78 -17l-5 -23h-333l5 23h13c16 0 57 0 76 20c13 14 17 39 18 82l2 75h-295l-50 -78c-17 -26 -17 -43 -17 -50c0 -45 44 -49 59 -49zM439 232
l15 421l-288 -421h273zM471 841c0 -26 -18 -49 -48 -49c-32 0 -48 28 -48 49c0 25 23 48 48 48c27 0 48 -22 48 -48zM654 841c0 -26 -18 -49 -48 -49c-32 0 -48 28 -48 49c0 25 23 48 48 48c27 0 48 -22 48 -48z" />
    <glyph glyph-name="Aring" unicode="&#xc5;" horiz-adv-x="722" 
d="M135 23l-4 -23h-200l5 23c59 11 82 47 131 118l391 569c48 3 79 15 101 26h25l-21 -631c-1 -40 13 -58 21 -65c16 -14 55 -18 78 -17l-5 -23h-333l5 23h13c16 0 57 0 76 20c13 14 17 39 18 82l2 75h-295l-50 -78c-17 -26 -17 -43 -17 -50c0 -45 44 -49 59 -49zM439 232
l15 421l-288 -421h273zM638 881c0 -65 -52 -117 -117 -117c-66 0 -118 52 -118 117c0 66 52 118 118 118c65 0 117 -52 117 -118zM596 881c0 43 -32 76 -75 76s-76 -33 -76 -76s33 -76 76 -76s75 33 75 76z" />
    <glyph glyph-name="AE" unicode="&#xc6;" horiz-adv-x="1028" 
d="M120 23l-4 -23h-212l5 23c70 13 107 65 161 134l337 430c19 24 29 47 29 67c0 29 -30 49 -84 50l4 23h601l32 -187h-23c-63 116 -101 164 -180 164h-102l-90 -317h56c91 0 129 18 172 128l24 -4l-89 -310l-23 6c7 33 12 57 12 75c0 56 -30 74 -105 74h-56l-71 -248
c-4 -15 -7 -27 -7 -38c0 -39 21 -47 80 -47h12c66 0 119 1 163 34c42 31 80 78 116 140l23 -5l-63 -192h-570l4 23c68 3 91 29 110 96l59 207h-199l-155 -195c-19 -24 -29 -44 -29 -60c0 -27 22 -46 62 -48zM449 358l92 321h-25l-248 -321h181z" />
    <glyph glyph-name="Ccedilla" unicode="&#xc7;" horiz-adv-x="738" 
d="M587 228l30 -9l-78 -233h-18c-5 21 -24 28 -34 28c-11 0 -40 -10 -56 -15c-31 -9 -75 -15 -115 -12l-14 -42c10 2 20 3 30 3c57 0 89 -31 89 -80c0 -53 -42 -86 -107 -86c-41 0 -83 13 -143 37l17 38c33 -19 75 -35 110 -35c39 0 58 14 58 45c0 32 -25 44 -54 44
c-8 0 -19 -1 -46 -8l29 87c-146 20 -240 133 -240 267c0 83 34 199 131 310c122 141 254 169 331 169c28 0 71 -5 112 -21c33 -13 66 -38 83 -38c7 0 18 6 40 17h13l-65 -233l-30 5v41c0 120 -33 204 -139 204c-76 0 -163 -51 -243 -187c-75 -127 -88 -239 -88 -308
c0 -142 71 -203 150 -203c127 0 215 149 247 215z" />
    <glyph glyph-name="Egrave" unicode="&#xc8;" horiz-adv-x="699" 
d="M-28 0l4 23c74 -1 95 44 110 96l143 500c7 26 8 36 8 41c0 43 -35 44 -75 44h-9l5 23h503l31 -187h-24c-63 137 -119 164 -178 164h-102l-91 -317h57c74 0 137 15 172 128l24 -4l-89 -310l-23 6c3 14 11 52 11 75c0 69 -50 74 -104 74h-56l-72 -248c-3 -12 -6 -22 -6 -40
c0 -30 7 -45 80 -45c67 0 122 -3 175 34c42 29 87 89 116 140l23 -5l-63 -192h-570zM520 768h-33l-119 100c-13 11 -28 24 -28 42c0 17 14 33 33 33c18 0 35 -16 43 -28z" />
    <glyph glyph-name="Eacute" unicode="&#xc9;" horiz-adv-x="699" 
d="M-28 0l4 23c74 -1 95 44 110 96l143 500c7 26 8 36 8 41c0 43 -35 44 -75 44h-9l5 23h503l31 -187h-24c-63 137 -119 164 -178 164h-102l-91 -317h57c74 0 137 15 172 128l24 -4l-89 -310l-23 6c3 14 11 52 11 75c0 69 -50 74 -104 74h-56l-72 -248c-3 -12 -6 -22 -6 -40
c0 -30 7 -45 80 -45c67 0 122 -3 175 34c42 29 87 89 116 140l23 -5l-63 -192h-570zM441 768h-35l146 153c16 17 31 21 39 21c19 0 34 -16 34 -34c0 -15 -11 -26 -34 -41z" />
    <glyph glyph-name="Ecircumflex" unicode="&#xca;" horiz-adv-x="699" 
d="M-28 0l4 23c74 -1 95 44 110 96l143 500c7 26 8 36 8 41c0 43 -35 44 -75 44h-9l5 23h503l31 -187h-24c-63 137 -119 164 -178 164h-102l-91 -317h57c74 0 137 15 172 128l24 -4l-89 -310l-23 6c3 14 11 52 11 75c0 69 -50 74 -104 74h-56l-72 -248c-3 -12 -6 -22 -6 -40
c0 -30 7 -45 80 -45c67 0 122 -3 175 34c42 29 87 89 116 140l23 -5l-63 -192h-570zM577 768h-27l-87 101l-134 -101h-33l151 170h51z" />
    <glyph glyph-name="Edieresis" unicode="&#xcb;" horiz-adv-x="699" 
d="M-28 0l4 23c74 -1 95 44 110 96l143 500c7 26 8 36 8 41c0 43 -35 44 -75 44h-9l5 23h503l31 -187h-24c-63 137 -119 164 -178 164h-102l-91 -317h57c74 0 137 15 172 128l24 -4l-89 -310l-23 6c3 14 11 52 11 75c0 69 -50 74 -104 74h-56l-72 -248c-3 -12 -6 -22 -6 -40
c0 -30 7 -45 80 -45c67 0 122 -3 175 34c42 29 87 89 116 140l23 -5l-63 -192h-570zM393 841c0 -26 -18 -49 -48 -49c-32 0 -48 28 -48 49c0 25 23 48 48 48c27 0 48 -22 48 -48zM576 841c0 -26 -18 -49 -48 -49c-32 0 -48 28 -48 49c0 25 23 48 48 48c27 0 48 -22 48 -48z
" />
    <glyph glyph-name="Igrave" unicode="&#xcc;" horiz-adv-x="444" 
d="M361 608l-144 -500c-2 -8 -7 -25 -7 -38c0 -43 28 -47 75 -47h9l-5 -23h-317l4 23c74 -1 95 44 110 96l143 500c2 7 8 28 8 38c0 43 -29 47 -75 47h-9l5 23h317l-4 -23c-74 1 -95 -44 -110 -96zM380 768h-33l-119 100c-13 11 -28 24 -28 42c0 17 14 33 33 33
c18 0 35 -16 43 -28z" />
    <glyph glyph-name="Iacute" unicode="&#xcd;" horiz-adv-x="444" 
d="M361 608l-144 -500c-2 -8 -7 -25 -7 -38c0 -43 28 -47 75 -47h9l-5 -23h-317l4 23c74 -1 95 44 110 96l143 500c2 7 8 28 8 38c0 43 -29 47 -75 47h-9l5 23h317l-4 -23c-74 1 -95 -44 -110 -96zM291 768h-35l146 153c16 17 31 21 39 21c19 0 34 -16 34 -34
c0 -15 -11 -26 -34 -41z" />
    <glyph glyph-name="Icircumflex" unicode="&#xce;" horiz-adv-x="444" 
d="M361 608l-144 -500c-2 -8 -7 -25 -7 -38c0 -43 28 -47 75 -47h9l-5 -23h-317l4 23c74 -1 95 44 110 96l143 500c2 7 8 28 8 38c0 43 -29 47 -75 47h-9l5 23h317l-4 -23c-74 1 -95 -44 -110 -96zM457 768h-27l-87 101l-134 -101h-33l151 170h51z" />
    <glyph glyph-name="Idieresis" unicode="&#xcf;" horiz-adv-x="444" 
d="M361 608l-144 -500c-2 -8 -7 -25 -7 -38c0 -43 28 -47 75 -47h9l-5 -23h-317l4 23c74 -1 95 44 110 96l143 500c2 7 8 28 8 38c0 43 -29 47 -75 47h-9l5 23h317l-4 -23c-74 1 -95 -44 -110 -96zM293 841c0 -26 -18 -49 -48 -49c-32 0 -48 28 -48 49c0 25 23 48 48 48
c27 0 48 -22 48 -48zM476 841c0 -26 -18 -49 -48 -49c-32 0 -48 28 -48 49c0 25 23 48 48 48c27 0 48 -22 48 -48z" />
    <glyph glyph-name="Eth" unicode="&#xd0;" horiz-adv-x="838" 
d="M-27 0l5 23c69 3 90 29 110 96l72 246h-156l11 39h155l61 215c5 18 8 30 8 38c0 38 -20 47 -75 47h-9l5 23h271c221 0 346 -126 346 -331c0 -115 -44 -222 -118 -293c-91 -86 -206 -103 -367 -103h-319zM293 365l-70 -242c-6 -22 -11 -39 -11 -54c0 -29 26 -44 79 -44
c105 0 176 17 237 84c31 34 62 92 88 174c21 66 31 128 31 184c0 153 -71 229 -214 229c-15 0 -30 0 -46 -2l-82 -290h174l-11 -39h-175z" />
    <glyph glyph-name="Ntilde" unicode="&#xd1;" horiz-adv-x="880" 
d="M646 196l104 363c5 16 13 41 13 72c0 58 -52 71 -82 73l4 23h227l-5 -23c-88 -16 -106 -84 -125 -152l-157 -552h-34l-315 662l-142 -495c-11 -39 -13 -57 -13 -71c0 -53 47 -72 83 -73l-5 -23h-227l5 23c88 16 106 84 125 152l126 443c2 8 7 22 7 40c0 38 -39 44 -75 46
l6 23h226zM697 900h24c-3 -15 -10 -43 -23 -62c-17 -24 -40 -33 -68 -33c-10 0 -18 1 -28 4l-71 20c-5 1 -20 4 -26 4c-15 0 -40 -6 -46 -37h-24c2 17 8 37 17 52c17 28 40 39 68 39c14 0 25 -3 36 -6l64 -18c6 -2 20 -3 27 -3c32 0 46 21 50 40z" />
    <glyph glyph-name="Ograve" unicode="&#xd2;" horiz-adv-x="773" 
d="M157 593c98 121 218 145 288 145c167 0 278 -126 278 -313c0 -129 -56 -240 -118 -310c-52 -59 -148 -131 -275 -131c-168 0 -280 124 -280 315c0 140 64 240 107 294zM562 329c10 35 35 124 35 206c0 121 -66 175 -137 175c-57 0 -125 -38 -179 -139
c-17 -33 -45 -94 -70 -178c-30 -103 -36 -164 -36 -206c0 -121 65 -175 137 -175c94 0 152 90 179 139c31 55 53 115 71 178zM496 768h-33l-119 100c-13 11 -28 24 -28 42c0 17 14 33 33 33c18 0 35 -16 43 -28z" />
    <glyph glyph-name="Oacute" unicode="&#xd3;" horiz-adv-x="773" 
d="M157 593c98 121 218 145 288 145c167 0 278 -126 278 -313c0 -129 -56 -240 -118 -310c-52 -59 -148 -131 -275 -131c-168 0 -280 124 -280 315c0 140 64 240 107 294zM562 329c10 35 35 124 35 206c0 121 -66 175 -137 175c-57 0 -125 -38 -179 -139
c-17 -33 -45 -94 -70 -178c-30 -103 -36 -164 -36 -206c0 -121 65 -175 137 -175c94 0 152 90 179 139c31 55 53 115 71 178zM408 768h-35l146 153c16 17 31 21 39 21c19 0 34 -16 34 -34c0 -15 -11 -26 -34 -41z" />
    <glyph glyph-name="Ocircumflex" unicode="&#xd4;" horiz-adv-x="773" 
d="M157 593c98 121 218 145 288 145c167 0 278 -126 278 -313c0 -129 -56 -240 -118 -310c-52 -59 -148 -131 -275 -131c-168 0 -280 124 -280 315c0 140 64 240 107 294zM562 329c10 35 35 124 35 206c0 121 -66 175 -137 175c-57 0 -125 -38 -179 -139
c-17 -33 -45 -94 -70 -178c-30 -103 -36 -164 -36 -206c0 -121 65 -175 137 -175c94 0 152 90 179 139c31 55 53 115 71 178zM597 768h-27l-87 101l-134 -101h-33l151 170h51z" />
    <glyph glyph-name="Otilde" unicode="&#xd5;" horiz-adv-x="773" 
d="M157 593c98 121 218 145 288 145c167 0 278 -126 278 -313c0 -129 -56 -240 -118 -310c-52 -59 -148 -131 -275 -131c-168 0 -280 124 -280 315c0 140 64 240 107 294zM562 329c10 35 35 124 35 206c0 121 -66 175 -137 175c-57 0 -125 -38 -179 -139
c-17 -33 -45 -94 -70 -178c-30 -103 -36 -164 -36 -206c0 -121 65 -175 137 -175c94 0 152 90 179 139c31 55 53 115 71 178zM597 900h24c-3 -15 -10 -43 -23 -62c-17 -24 -40 -33 -68 -33c-10 0 -18 1 -28 4l-71 20c-5 1 -20 4 -26 4c-15 0 -40 -6 -46 -37h-24
c2 17 8 37 17 52c17 28 40 39 68 39c14 0 25 -3 36 -6l64 -18c6 -2 20 -3 27 -3c32 0 46 21 50 40z" />
    <glyph glyph-name="Odieresis" unicode="&#xd6;" horiz-adv-x="773" 
d="M157 593c98 121 218 145 288 145c167 0 278 -126 278 -313c0 -129 -56 -240 -118 -310c-52 -59 -148 -131 -275 -131c-168 0 -280 124 -280 315c0 140 64 240 107 294zM562 329c10 35 35 124 35 206c0 121 -66 175 -137 175c-57 0 -125 -38 -179 -139
c-17 -33 -45 -94 -70 -178c-30 -103 -36 -164 -36 -206c0 -121 65 -175 137 -175c94 0 152 90 179 139c31 55 53 115 71 178zM413 841c0 -26 -18 -49 -48 -49c-32 0 -48 28 -48 49c0 25 23 48 48 48c27 0 48 -22 48 -48zM596 841c0 -26 -18 -49 -48 -49c-32 0 -48 28 -48 49
c0 25 23 48 48 48c27 0 48 -22 48 -48z" />
    <glyph glyph-name="multiply" unicode="&#xd7;" horiz-adv-x="833" 
d="M421 356l225 224l57 -57l-224 -225l224 -224l-57 -58l-225 225l-224 -225l-57 58l224 224l-224 225l57 57z" />
    <glyph glyph-name="Oslash" unicode="&#xd8;" horiz-adv-x="773" 
d="M219 5l-59 -111h-42l66 126c-84 50 -134 147 -134 274c0 107 37 211 107 299c75 94 178 144 285 144c40 0 77 -7 112 -21l55 103h43l-64 -119c88 -57 135 -153 135 -277c0 -110 -41 -220 -118 -308c-74 -85 -175 -132 -280 -132c-37 0 -71 8 -106 22zM565 656l-329 -618
c21 -15 47 -23 76 -23c90 0 152 65 211 202c54 124 77 237 77 315c0 51 -10 92 -35 124zM206 61l331 622c-23 17 -47 25 -76 25c-73 0 -131 -46 -183 -142c-67 -123 -106 -280 -106 -394c0 -51 11 -87 34 -111z" />
    <glyph glyph-name="Ugrave" unicode="&#xd9;" horiz-adv-x="875" 
d="M125 275l100 344c4 14 7 27 7 38c0 48 -37 47 -74 47h-9l4 23h318l-5 -23c-77 0 -95 -44 -110 -96l-115 -397c-6 -20 -16 -51 -16 -79c0 -51 37 -110 169 -110c180 0 228 117 254 204l98 333c5 19 13 44 13 69c0 36 -17 70 -83 76l5 23h226l-4 -23
c-90 -16 -107 -85 -126 -152l-86 -300c-17 -61 -40 -143 -97 -194c-29 -26 -97 -72 -233 -72c-186 0 -259 80 -259 171c0 45 14 88 23 118zM601 768h-33l-119 100c-13 11 -28 24 -28 42c0 17 14 33 33 33c18 0 35 -16 43 -28z" />
    <glyph glyph-name="Uacute" unicode="&#xda;" horiz-adv-x="875" 
d="M125 275l100 344c4 14 7 27 7 38c0 48 -37 47 -74 47h-9l4 23h318l-5 -23c-77 0 -95 -44 -110 -96l-115 -397c-6 -20 -16 -51 -16 -79c0 -51 37 -110 169 -110c180 0 228 117 254 204l98 333c5 19 13 44 13 69c0 36 -17 70 -83 76l5 23h226l-4 -23
c-90 -16 -107 -85 -126 -152l-86 -300c-17 -61 -40 -143 -97 -194c-29 -26 -97 -72 -233 -72c-186 0 -259 80 -259 171c0 45 14 88 23 118zM561 768h-35l146 153c16 17 31 21 39 21c19 0 34 -16 34 -34c0 -15 -11 -26 -34 -41z" />
    <glyph glyph-name="Ucircumflex" unicode="&#xdb;" horiz-adv-x="875" 
d="M125 275l100 344c4 14 7 27 7 38c0 48 -37 47 -74 47h-9l4 23h318l-5 -23c-77 0 -95 -44 -110 -96l-115 -397c-6 -20 -16 -51 -16 -79c0 -51 37 -110 169 -110c180 0 228 117 254 204l98 333c5 19 13 44 13 69c0 36 -17 70 -83 76l5 23h226l-4 -23
c-90 -16 -107 -85 -126 -152l-86 -300c-17 -61 -40 -143 -97 -194c-29 -26 -97 -72 -233 -72c-186 0 -259 80 -259 171c0 45 14 88 23 118zM717 769h-27l-87 101l-134 -101h-33l151 170h51z" />
    <glyph glyph-name="Udieresis" unicode="&#xdc;" horiz-adv-x="875" 
d="M125 275l100 344c4 14 7 27 7 38c0 48 -37 47 -74 47h-9l4 23h318l-5 -23c-77 0 -95 -44 -110 -96l-115 -397c-6 -20 -16 -51 -16 -79c0 -51 37 -110 169 -110c180 0 228 117 254 204l98 333c5 19 13 44 13 69c0 36 -17 70 -83 76l5 23h226l-4 -23
c-90 -16 -107 -85 -126 -152l-86 -300c-17 -61 -40 -143 -97 -194c-29 -26 -97 -72 -233 -72c-186 0 -259 80 -259 171c0 45 14 88 23 118zM533 841c0 -26 -18 -49 -48 -49c-32 0 -48 28 -48 49c0 25 23 48 48 48c27 0 48 -22 48 -48zM716 841c0 -26 -18 -49 -48 -49
c-32 0 -48 28 -48 49c0 25 23 48 48 48c27 0 48 -22 48 -48z" />
    <glyph glyph-name="Yacute" unicode="&#xdd;" horiz-adv-x="699" 
d="M411 365l-73 -257c-2 -7 -8 -24 -8 -38c0 -53 58 -50 110 -47l-5 -23h-377l4 23h20c98 0 110 46 124 96l72 247l-93 248c-14 37 -34 90 -97 90h-5l5 23h294l-5 -23h-14c-35 0 -60 -5 -60 -27c0 -14 5 -38 100 -278l175 194c28 31 37 54 37 70c0 27 -29 41 -55 41l5 23
h191l-4 -23c-53 -15 -78 -44 -150 -125zM441 768h-35l146 153c16 17 31 21 39 21c19 0 34 -16 34 -34c0 -15 -11 -26 -34 -41z" />
    <glyph glyph-name="Thorn" unicode="&#xde;" horiz-adv-x="708" 
d="M479 727l-4 -23c-72 -4 -89 -31 -110 -96l-16 -49h12c184 0 285 -69 285 -176c0 -125 -125 -193 -370 -193h-36l-23 -82c-5 -18 -7 -30 -7 -38c0 -38 19 -47 74 -47h10l-5 -23h-317l4 23c68 3 91 29 110 96l143 500c5 18 8 31 8 38c0 38 -20 47 -75 47h-9l5 23h321z
M324 472l-74 -253c12 -1 23 -1 34 -1c144 0 225 71 225 186c0 81 -42 124 -123 124c-41 0 -49 -12 -62 -56z" />
    <glyph glyph-name="germandbls" unicode="&#xdf;" horiz-adv-x="486" 
d="M226 396l2 18c56 4 84 29 106 79c20 46 34 117 34 162c0 39 -18 61 -48 61c-88 0 -108 -158 -180 -453c-40 -162 -71 -278 -116 -348c-44 -69 -98 -105 -152 -105c-45 0 -77 29 -77 62c0 26 17 42 43 42c19 0 29 -9 41 -25c14 -18 20 -34 41 -34c50 0 63 132 117 381
c73 338 134 501 286 501c83 0 137 -58 137 -145c0 -90 -53 -150 -163 -187c74 -31 111 -85 111 -161c0 -61 -27 -137 -68 -186c-40 -48 -82 -72 -127 -72c-55 0 -91 35 -91 86c0 32 15 50 42 50c20 0 33 -11 33 -28c0 -20 -10 -39 -10 -56c0 -11 8 -19 16 -19
c12 0 38 33 62 100c31 87 43 166 43 205c0 49 -23 72 -70 72h-12z" />
    <glyph glyph-name="agrave" unicode="&#xe0;" horiz-adv-x="546" 
d="M258 163c49 84 77 169 77 217c0 52 -36 54 -48 54c-53 0 -88 -61 -114 -112c-44 -87 -75 -185 -75 -229c0 -34 23 -47 43 -47c42 0 81 55 117 117zM387 418l49 36h27l-107 -350c-3 -8 -5 -23 -5 -31c0 -15 5 -19 12 -19c27 0 56 50 82 98l19 -13
c-42 -91 -108 -154 -163 -154c-23 0 -49 12 -49 52c0 12 2 27 18 83l-10 3c-47 -83 -101 -136 -169 -136c-65 0 -105 45 -105 113c0 93 72 196 88 217c84 115 165 137 215 137c14 0 53 -2 98 -36zM383 508h-33l-119 100c-13 11 -28 24 -28 42c0 17 14 33 33 33
c18 0 35 -16 43 -28z" />
    <glyph glyph-name="aacute" unicode="&#xe1;" horiz-adv-x="546" 
d="M258 163c49 84 77 169 77 217c0 52 -36 54 -48 54c-53 0 -88 -61 -114 -112c-44 -87 -75 -185 -75 -229c0 -34 23 -47 43 -47c42 0 81 55 117 117zM387 418l49 36h27l-107 -350c-3 -8 -5 -23 -5 -31c0 -15 5 -19 12 -19c27 0 56 50 82 98l19 -13
c-42 -91 -108 -154 -163 -154c-23 0 -49 12 -49 52c0 12 2 27 18 83l-10 3c-47 -83 -101 -136 -169 -136c-65 0 -105 45 -105 113c0 93 72 196 88 217c84 115 165 137 215 137c14 0 53 -2 98 -36zM264 508h-35l146 153c16 17 31 21 39 21c19 0 34 -16 34 -34
c0 -15 -11 -26 -34 -41z" />
    <glyph glyph-name="acircumflex" unicode="&#xe2;" horiz-adv-x="546" 
d="M258 163c49 84 77 169 77 217c0 52 -36 54 -48 54c-53 0 -88 -61 -114 -112c-44 -87 -75 -185 -75 -229c0 -34 23 -47 43 -47c42 0 81 55 117 117zM387 418l49 36h27l-107 -350c-3 -8 -5 -23 -5 -31c0 -15 5 -19 12 -19c27 0 56 50 82 98l19 -13
c-42 -91 -108 -154 -163 -154c-23 0 -49 12 -49 52c0 12 2 27 18 83l-10 3c-47 -83 -101 -136 -169 -136c-65 0 -105 45 -105 113c0 93 72 196 88 217c84 115 165 137 215 137c14 0 53 -2 98 -36zM440 508h-27l-87 101l-134 -101h-33l151 170h51z" />
    <glyph glyph-name="atilde" unicode="&#xe3;" horiz-adv-x="546" 
d="M258 163c49 84 77 169 77 217c0 52 -36 54 -48 54c-53 0 -88 -61 -114 -112c-44 -87 -75 -185 -75 -229c0 -34 23 -47 43 -47c42 0 81 55 117 117zM387 418l49 36h27l-107 -350c-3 -8 -5 -23 -5 -31c0 -15 5 -19 12 -19c27 0 56 50 82 98l19 -13
c-42 -91 -108 -154 -163 -154c-23 0 -49 12 -49 52c0 12 2 27 18 83l-10 3c-47 -83 -101 -136 -169 -136c-65 0 -105 45 -105 113c0 93 72 196 88 217c84 115 165 137 215 137c14 0 53 -2 98 -36zM440 640h24c-3 -15 -10 -43 -23 -62c-17 -24 -40 -33 -68 -33
c-10 0 -18 1 -28 4l-71 20c-5 1 -20 4 -26 4c-15 0 -40 -6 -46 -37h-24c2 17 8 37 17 52c17 28 40 39 68 39c14 0 25 -3 36 -6l64 -18c6 -2 20 -3 27 -3c32 0 46 21 50 40z" />
    <glyph glyph-name="adieresis" unicode="&#xe4;" horiz-adv-x="546" 
d="M258 163c49 84 77 169 77 217c0 52 -36 54 -48 54c-53 0 -88 -61 -114 -112c-44 -87 -75 -185 -75 -229c0 -34 23 -47 43 -47c42 0 81 55 117 117zM387 418l49 36h27l-107 -350c-3 -8 -5 -23 -5 -31c0 -15 5 -19 12 -19c27 0 56 50 82 98l19 -13
c-42 -91 -108 -154 -163 -154c-23 0 -49 12 -49 52c0 12 2 27 18 83l-10 3c-47 -83 -101 -136 -169 -136c-65 0 -105 45 -105 113c0 93 72 196 88 217c84 115 165 137 215 137c14 0 53 -2 98 -36zM276 581c0 -26 -18 -49 -48 -49c-32 0 -48 28 -48 49c0 25 23 48 48 48
c27 0 48 -22 48 -48zM459 581c0 -26 -18 -49 -48 -49c-32 0 -48 28 -48 49c0 25 23 48 48 48c27 0 48 -22 48 -48z" />
    <glyph glyph-name="aring" unicode="&#xe5;" horiz-adv-x="546" 
d="M258 163c49 84 77 169 77 217c0 52 -36 54 -48 54c-53 0 -88 -61 -114 -112c-44 -87 -75 -185 -75 -229c0 -34 23 -47 43 -47c42 0 81 55 117 117zM387 418l49 36h27l-107 -350c-3 -8 -5 -23 -5 -31c0 -15 5 -19 12 -19c27 0 56 50 82 98l19 -13
c-42 -91 -108 -154 -163 -154c-23 0 -49 12 -49 52c0 12 2 27 18 83l-10 3c-47 -83 -101 -136 -169 -136c-65 0 -105 45 -105 113c0 93 72 196 88 217c84 115 165 137 215 137c14 0 53 -2 98 -36zM444 616c0 -65 -52 -117 -117 -117c-66 0 -118 52 -118 117
c0 66 52 118 118 118c65 0 117 -52 117 -118zM402 616c0 43 -32 76 -75 76s-76 -33 -76 -76s33 -76 76 -76s75 33 75 76z" />
    <glyph glyph-name="ae" unicode="&#xe6;" horiz-adv-x="644" 
d="M392 422c-203 -49 -315 -175 -315 -311c0 -42 20 -65 50 -65c23 0 45 15 66 44c29 41 36 87 49 126c28 85 75 149 150 206zM528 162l18 -16c-56 -106 -127 -160 -201 -160c-58 0 -97 29 -128 90c-45 -60 -81 -88 -137 -88c-65 0 -104 43 -104 116c0 86 50 167 150 233
c116 76 250 117 364 117c68 0 109 -33 109 -82c0 -73 -89 -139 -265 -197c-7 -34 -11 -61 -11 -82c0 -40 18 -61 51 -61c45 0 97 43 154 130zM341 206c107 34 166 107 166 171c0 32 -15 51 -37 51c-42 0 -94 -75 -129 -222z" />
    <glyph glyph-name="ccedilla" unicode="&#xe7;" horiz-adv-x="440" 
d="M304 172l19 -10c-29 -69 -85 -157 -184 -175l-14 -42c10 2 20 3 30 3c57 0 89 -31 89 -80c0 -53 -42 -86 -107 -86c-41 0 -83 13 -143 37l17 38c33 -19 75 -35 110 -35c39 0 58 14 58 45c0 32 -25 44 -54 44c-8 0 -19 -1 -46 -8l27 83c-72 3 -112 59 -112 133
c0 38 10 111 62 193c41 63 110 142 212 142c73 0 111 -42 111 -83c0 -30 -22 -45 -48 -45c-37 0 -57 31 -57 52c0 8 3 15 3 23c0 12 -5 30 -27 30c-21 0 -52 -13 -84 -72c-36 -67 -60 -162 -60 -238c0 -66 21 -85 54 -85c58 0 111 66 144 136z" />
    <glyph glyph-name="egrave" unicode="&#xe8;" horiz-adv-x="440" 
d="M306 162l17 -16c-12 -23 -33 -58 -66 -93c-40 -42 -81 -67 -135 -67c-79 0 -129 57 -129 144c0 79 44 148 82 198c60 78 122 126 200 126c70 0 102 -41 102 -81c0 -41 -28 -124 -265 -198c-10 -46 -11 -70 -11 -82c0 -51 30 -61 51 -61c35 0 69 28 88 47
c27 26 50 57 66 83zM118 206c117 37 167 115 167 173c0 31 -16 49 -36 49s-37 -16 -48 -28c-44 -50 -73 -141 -83 -194zM330 508h-33l-119 100c-13 11 -28 24 -28 42c0 17 14 33 33 33c18 0 35 -16 43 -28z" />
    <glyph glyph-name="eacute" unicode="&#xe9;" horiz-adv-x="440" 
d="M306 162l17 -16c-12 -23 -33 -58 -66 -93c-40 -42 -81 -67 -135 -67c-79 0 -129 57 -129 144c0 79 44 148 82 198c60 78 122 126 200 126c70 0 102 -41 102 -81c0 -41 -28 -124 -265 -198c-10 -46 -11 -70 -11 -82c0 -51 30 -61 51 -61c35 0 69 28 88 47
c27 26 50 57 66 83zM118 206c117 37 167 115 167 173c0 31 -16 49 -36 49s-37 -16 -48 -28c-44 -50 -73 -141 -83 -194zM231 508h-35l146 153c16 17 31 21 39 21c19 0 34 -16 34 -34c0 -15 -11 -26 -34 -41z" />
    <glyph glyph-name="ecircumflex" unicode="&#xea;" horiz-adv-x="440" 
d="M306 162l17 -16c-12 -23 -33 -58 -66 -93c-40 -42 -81 -67 -135 -67c-79 0 -129 57 -129 144c0 79 44 148 82 198c60 78 122 126 200 126c70 0 102 -41 102 -81c0 -41 -28 -124 -265 -198c-10 -46 -11 -70 -11 -82c0 -51 30 -61 51 -61c35 0 69 28 88 47
c27 26 50 57 66 83zM118 206c117 37 167 115 167 173c0 31 -16 49 -36 49s-37 -16 -48 -28c-44 -50 -73 -141 -83 -194zM397 508h-27l-87 101l-134 -101h-33l151 170h51z" />
    <glyph glyph-name="edieresis" unicode="&#xeb;" horiz-adv-x="440" 
d="M306 162l17 -16c-12 -23 -33 -58 -66 -93c-40 -42 -81 -67 -135 -67c-79 0 -129 57 -129 144c0 79 44 148 82 198c60 78 122 126 200 126c70 0 102 -41 102 -81c0 -41 -28 -124 -265 -198c-10 -46 -11 -70 -11 -82c0 -51 30 -61 51 -61c35 0 69 28 88 47
c27 26 50 57 66 83zM118 206c117 37 167 115 167 173c0 31 -16 49 -36 49s-37 -16 -48 -28c-44 -50 -73 -141 -83 -194zM233 581c0 -26 -18 -49 -48 -49c-32 0 -48 28 -48 49c0 25 23 48 48 48c27 0 48 -22 48 -48zM416 581c0 -26 -18 -49 -48 -49c-32 0 -48 28 -48 49
c0 25 23 48 48 48c27 0 48 -22 48 -48z" />
    <glyph glyph-name="igrave" unicode="&#xec;" horiz-adv-x="300" 
d="M215 326l-83 -224c-2 -6 -7 -17 -7 -28c0 -6 6 -17 18 -17c6 0 25 2 84 104l21 -11c-17 -32 -43 -73 -67 -102c-18 -22 -51 -55 -99 -55c-10 0 -55 2 -55 58c0 11 2 32 16 69l84 225c2 4 6 19 6 26c0 6 -4 19 -17 19c-4 0 -26 -2 -85 -104l-21 11c16 32 39 70 66 101
c21 25 53 56 96 56c56 0 59 -43 59 -64c0 -14 -2 -25 -16 -64zM260 508h-33l-119 100c-13 11 -28 24 -28 42c0 17 14 33 33 33c18 0 35 -16 43 -28z" />
    <glyph glyph-name="iacute" unicode="&#xed;" horiz-adv-x="300" 
d="M215 326l-83 -224c-2 -6 -7 -17 -7 -28c0 -6 6 -17 18 -17c6 0 25 2 84 104l21 -11c-17 -32 -43 -73 -67 -102c-18 -22 -51 -55 -99 -55c-10 0 -55 2 -55 58c0 11 2 32 16 69l84 225c2 4 6 19 6 26c0 6 -4 19 -17 19c-4 0 -26 -2 -85 -104l-21 11c16 32 39 70 66 101
c21 25 53 56 96 56c56 0 59 -43 59 -64c0 -14 -2 -25 -16 -64zM141 508h-35l146 153c16 17 31 21 39 21c19 0 34 -16 34 -34c0 -15 -11 -26 -34 -41z" />
    <glyph glyph-name="icircumflex" unicode="&#xee;" horiz-adv-x="300" 
d="M215 326l-83 -224c-2 -6 -7 -17 -7 -28c0 -6 6 -17 18 -17c6 0 25 2 84 104l21 -11c-17 -32 -43 -73 -67 -102c-18 -22 -51 -55 -99 -55c-10 0 -55 2 -55 58c0 11 2 32 16 69l84 225c2 4 6 19 6 26c0 6 -4 19 -17 19c-4 0 -26 -2 -85 -104l-21 11c16 32 39 70 66 101
c21 25 53 56 96 56c56 0 59 -43 59 -64c0 -14 -2 -25 -16 -64zM317 508h-27l-87 101l-134 -101h-33l151 170h51z" />
    <glyph glyph-name="idieresis" unicode="&#xef;" horiz-adv-x="300" 
d="M215 326l-83 -224c-2 -6 -7 -17 -7 -28c0 -6 6 -17 18 -17c6 0 25 2 84 104l21 -11c-17 -32 -43 -73 -67 -102c-18 -22 -51 -55 -99 -55c-10 0 -55 2 -55 58c0 11 2 32 16 69l84 225c2 4 6 19 6 26c0 6 -4 19 -17 19c-4 0 -26 -2 -85 -104l-21 11c16 32 39 70 66 101
c21 25 53 56 96 56c56 0 59 -43 59 -64c0 -14 -2 -25 -16 -64zM153 581c0 -26 -18 -49 -48 -49c-32 0 -48 28 -48 49c0 25 23 48 48 48c27 0 48 -22 48 -48zM336 581c0 -26 -18 -49 -48 -49c-32 0 -48 28 -48 49c0 25 23 48 48 48c27 0 48 -22 48 -48z" />
    <glyph glyph-name="eth" unicode="&#xf0;" horiz-adv-x="440" 
d="M282 377c0 35 -19 55 -44 55c-38 0 -66 -42 -99 -125c-46 -116 -60 -209 -60 -243c0 -36 18 -56 43 -56c38 0 67 43 100 126c46 116 60 208 60 243zM389 617l-100 -27c58 -88 86 -179 86 -270c0 -83 -23 -163 -61 -226c-44 -72 -108 -111 -175 -111
c-85 0 -146 67 -146 174c0 66 20 135 54 189c46 73 108 111 173 111c19 0 38 -4 58 -12c-11 46 -25 90 -43 131l-114 -30l-7 29l105 27c-15 29 -43 70 -82 120l14 14c41 -35 80 -75 118 -121l112 30z" />
    <glyph glyph-name="ntilde" unicode="&#xf1;" horiz-adv-x="556" 
d="M109 0h-95l98 340c3 10 7 32 7 40c0 12 -8 18 -14 18c-11 0 -42 -18 -96 -123l-23 9c71 147 132 170 161 170c36 0 55 -31 55 -67c0 -38 -18 -98 -32 -146l9 -3c23 45 55 96 89 138c18 22 66 78 118 78c40 0 67 -33 67 -77c0 -19 -6 -51 -34 -124l-58 -151
c-2 -6 -6 -21 -6 -26c0 -10 8 -19 17 -19c23 0 71 80 85 104l21 -11c-18 -36 -43 -74 -66 -101c-25 -30 -57 -56 -102 -56c-50 0 -53 44 -53 60c0 10 2 28 16 67l66 182c5 13 19 57 19 75c0 15 -12 17 -18 17c-34 0 -85 -73 -109 -112c-48 -79 -95 -194 -122 -282zM445 640
h24c-3 -15 -10 -43 -23 -62c-17 -24 -40 -33 -68 -33c-10 0 -18 1 -28 4l-71 20c-5 1 -20 4 -26 4c-15 0 -40 -6 -46 -37h-24c2 17 8 37 17 52c17 28 40 39 68 39c14 0 25 -3 36 -6l64 -18c6 -2 20 -3 27 -3c32 0 46 21 50 40z" />
    <glyph glyph-name="ograve" unicode="&#xf2;" horiz-adv-x="440" 
d="M222 454c90 0 146 -72 146 -174c0 -52 -13 -121 -54 -186c-51 -82 -117 -111 -175 -111c-90 0 -146 72 -146 175c0 48 11 120 54 188c58 92 132 108 175 108zM139 307c-33 -87 -60 -191 -60 -243c0 -38 20 -56 44 -56c47 0 77 70 99 126c41 107 60 199 60 242
s-26 53 -43 53c-49 0 -79 -66 -100 -122zM330 508h-33l-119 100c-13 11 -28 24 -28 42c0 17 14 33 33 33c18 0 35 -16 43 -28z" />
    <glyph glyph-name="oacute" unicode="&#xf3;" horiz-adv-x="440" 
d="M222 454c90 0 146 -72 146 -174c0 -52 -13 -121 -54 -186c-51 -82 -117 -111 -175 -111c-90 0 -146 72 -146 175c0 48 11 120 54 188c58 92 132 108 175 108zM139 307c-33 -87 -60 -191 -60 -243c0 -38 20 -56 44 -56c47 0 77 70 99 126c41 107 60 199 60 242
s-26 53 -43 53c-49 0 -79 -66 -100 -122zM211 508h-35l146 153c16 17 31 21 39 21c19 0 34 -16 34 -34c0 -15 -11 -26 -34 -41z" />
    <glyph glyph-name="ocircumflex" unicode="&#xf4;" horiz-adv-x="440" 
d="M222 454c90 0 146 -72 146 -174c0 -52 -13 -121 -54 -186c-51 -82 -117 -111 -175 -111c-90 0 -146 72 -146 175c0 48 11 120 54 188c58 92 132 108 175 108zM139 307c-33 -87 -60 -191 -60 -243c0 -38 20 -56 44 -56c47 0 77 70 99 126c41 107 60 199 60 242
s-26 53 -43 53c-49 0 -79 -66 -100 -122zM387 508h-27l-87 101l-134 -101h-33l151 170h51z" />
    <glyph glyph-name="otilde" unicode="&#xf5;" horiz-adv-x="440" 
d="M222 454c90 0 146 -72 146 -174c0 -52 -13 -121 -54 -186c-51 -82 -117 -111 -175 -111c-90 0 -146 72 -146 175c0 48 11 120 54 188c58 92 132 108 175 108zM139 307c-33 -87 -60 -191 -60 -243c0 -38 20 -56 44 -56c47 0 77 70 99 126c41 107 60 199 60 242
s-26 53 -43 53c-49 0 -79 -66 -100 -122zM387 640h24c-3 -15 -10 -43 -23 -62c-17 -24 -40 -33 -68 -33c-10 0 -18 1 -28 4l-71 20c-5 1 -20 4 -26 4c-15 0 -40 -6 -46 -37h-24c2 17 8 37 17 52c17 28 40 39 68 39c14 0 25 -3 36 -6l64 -18c6 -2 20 -3 27 -3
c32 0 46 21 50 40z" />
    <glyph glyph-name="odieresis" unicode="&#xf6;" horiz-adv-x="440" 
d="M222 454c90 0 146 -72 146 -174c0 -52 -13 -121 -54 -186c-51 -82 -117 -111 -175 -111c-90 0 -146 72 -146 175c0 48 11 120 54 188c58 92 132 108 175 108zM139 307c-33 -87 -60 -191 -60 -243c0 -38 20 -56 44 -56c47 0 77 70 99 126c41 107 60 199 60 242
s-26 53 -43 53c-49 0 -79 -66 -100 -122zM223 581c0 -26 -18 -49 -48 -49c-32 0 -48 28 -48 49c0 25 23 48 48 48c27 0 48 -22 48 -48zM406 581c0 -26 -18 -49 -48 -49c-32 0 -48 28 -48 49c0 25 23 48 48 48c27 0 48 -22 48 -48z" />
    <glyph glyph-name="divide" unicode="&#xf7;" horiz-adv-x="833" 
d="M417 551c37 0 67 -31 67 -68c0 -36 -29 -66 -67 -66s-67 29 -67 66s31 68 67 68zM709 339v-81h-585v81h585zM417 179c37 0 67 -30 67 -67c0 -36 -29 -66 -67 -66s-67 29 -67 66s31 67 67 67z" />
    <glyph glyph-name="oslash" unicode="&#xf8;" horiz-adv-x="440" 
d="M-2 -134l65 137c-50 32 -76 84 -76 153c0 67 21 137 56 190c47 73 109 108 179 108c16 0 31 -1 47 -5l50 107h36l-56 -122c48 -27 74 -80 74 -152c0 -80 -31 -164 -82 -223c-44 -51 -99 -76 -165 -76c-11 0 -22 2 -36 6l-58 -123h-34zM76 25l187 401c-9 4 -18 6 -28 6
c-35 0 -70 -42 -106 -126c-47 -111 -64 -200 -64 -237c0 -19 4 -33 11 -44zM284 410l-185 -401c8 -2 16 -3 23 -3c38 0 71 41 107 125c48 113 65 204 65 241c0 15 -3 27 -10 38z" />
    <glyph glyph-name="ugrave" unicode="&#xf9;" horiz-adv-x="579" 
d="M394 446h99l-102 -339c-6 -18 -8 -28 -8 -37c0 -16 9 -22 16 -22c5 0 10 4 14 7c39 33 75 97 85 116l24 -8c-19 -39 -45 -80 -70 -109c-33 -39 -69 -62 -98 -62c-28 0 -58 21 -58 68c0 21 7 65 33 146l-9 2c-25 -46 -60 -99 -93 -138c-46 -54 -89 -78 -124 -78
c-42 0 -71 32 -71 78c0 21 7 51 36 124l60 151c6 14 7 21 7 25c0 11 -8 20 -18 20c-8 0 -15 -6 -20 -10c-11 -9 -31 -31 -69 -94l-22 11c20 36 47 76 69 101c20 23 56 56 105 56c31 0 58 -17 58 -57c0 -22 -6 -44 -17 -71l-70 -182c-17 -44 -19 -59 -19 -69
c0 -20 16 -22 23 -22c40 0 101 96 108 108c55 86 101 191 131 285zM376 508h-33l-119 100c-13 11 -28 24 -28 42c0 17 14 33 33 33c18 0 35 -16 43 -28z" />
    <glyph glyph-name="uacute" unicode="&#xfa;" horiz-adv-x="579" 
d="M394 446h99l-102 -339c-6 -18 -8 -28 -8 -37c0 -16 9 -22 16 -22c5 0 10 4 14 7c39 33 75 97 85 116l24 -8c-19 -39 -45 -80 -70 -109c-33 -39 -69 -62 -98 -62c-28 0 -58 21 -58 68c0 21 7 65 33 146l-9 2c-25 -46 -60 -99 -93 -138c-46 -54 -89 -78 -124 -78
c-42 0 -71 32 -71 78c0 21 7 51 36 124l60 151c6 14 7 21 7 25c0 11 -8 20 -18 20c-8 0 -15 -6 -20 -10c-11 -9 -31 -31 -69 -94l-22 11c20 36 47 76 69 101c20 23 56 56 105 56c31 0 58 -17 58 -57c0 -22 -6 -44 -17 -71l-70 -182c-17 -44 -19 -59 -19 -69
c0 -20 16 -22 23 -22c40 0 101 96 108 108c55 86 101 191 131 285zM280 508h-35l146 153c16 17 31 21 39 21c19 0 34 -16 34 -34c0 -15 -11 -26 -34 -41z" />
    <glyph glyph-name="ucircumflex" unicode="&#xfb;" horiz-adv-x="579" 
d="M394 446h99l-102 -339c-6 -18 -8 -28 -8 -37c0 -16 9 -22 16 -22c5 0 10 4 14 7c39 33 75 97 85 116l24 -8c-19 -39 -45 -80 -70 -109c-33 -39 -69 -62 -98 -62c-28 0 -58 21 -58 68c0 21 7 65 33 146l-9 2c-25 -46 -60 -99 -93 -138c-46 -54 -89 -78 -124 -78
c-42 0 -71 32 -71 78c0 21 7 51 36 124l60 151c6 14 7 21 7 25c0 11 -8 20 -18 20c-8 0 -15 -6 -20 -10c-11 -9 -31 -31 -69 -94l-22 11c20 36 47 76 69 101c20 23 56 56 105 56c31 0 58 -17 58 -57c0 -22 -6 -44 -17 -71l-70 -182c-17 -44 -19 -59 -19 -69
c0 -20 16 -22 23 -22c40 0 101 96 108 108c55 86 101 191 131 285zM456 508h-27l-87 101l-134 -101h-33l151 170h51z" />
    <glyph glyph-name="udieresis" unicode="&#xfc;" horiz-adv-x="579" 
d="M394 446h99l-102 -339c-6 -18 -8 -28 -8 -37c0 -16 9 -22 16 -22c5 0 10 4 14 7c39 33 75 97 85 116l24 -8c-19 -39 -45 -80 -70 -109c-33 -39 -69 -62 -98 -62c-28 0 -58 21 -58 68c0 21 7 65 33 146l-9 2c-25 -46 -60 -99 -93 -138c-46 -54 -89 -78 -124 -78
c-42 0 -71 32 -71 78c0 21 7 51 36 124l60 151c6 14 7 21 7 25c0 11 -8 20 -18 20c-8 0 -15 -6 -20 -10c-11 -9 -31 -31 -69 -94l-22 11c20 36 47 76 69 101c20 23 56 56 105 56c31 0 58 -17 58 -57c0 -22 -6 -44 -17 -71l-70 -182c-17 -44 -19 -59 -19 -69
c0 -20 16 -22 23 -22c40 0 101 96 108 108c55 86 101 191 131 285zM285 581c0 -26 -18 -49 -48 -49c-32 0 -48 28 -48 49c0 25 23 48 48 48c27 0 48 -22 48 -48zM468 581c0 -26 -18 -49 -48 -49c-32 0 -48 28 -48 49c0 25 23 48 48 48c27 0 48 -22 48 -48z" />
    <glyph glyph-name="yacute" unicode="&#xfd;" horiz-adv-x="419" 
d="M-25 284l-20 6c5 25 18 72 35 105c24 45 53 59 77 59c64 0 85 -84 95 -139c13 -72 24 -191 28 -268h10c35 41 101 138 101 201c0 27 -11 54 -27 82c-9 15 -24 38 -24 67c0 34 18 57 49 57c16 0 65 -6 65 -89c0 -137 -92 -269 -149 -344c-74 -97 -188 -223 -311 -223
c-51 0 -66 30 -66 53c0 34 30 53 55 53c19 0 36 -13 48 -22c14 -10 27 -22 49 -22c43 0 114 50 114 139c0 34 -12 161 -26 273c-5 40 -7 63 -18 81c-13 22 -34 18 -46 8c-15 -12 -35 -61 -39 -77zM178 508h-35l146 153c16 17 31 21 39 21c19 0 34 -16 34 -34
c0 -15 -11 -26 -34 -41z" />
    <glyph glyph-name="thorn" unicode="&#xfe;" horiz-adv-x="495" 
d="M-102 -190l5 23c66 4 77 43 98 118l123 431c-43 -25 -78 -63 -115 -114l-18 13c33 63 82 113 149 157l46 169c6 21 11 39 11 55c0 29 -16 44 -47 44h-3l4 23l166 7l-79 -283c120 -2 187 -68 187 -180c0 -67 -23 -134 -68 -194c-46 -62 -99 -93 -150 -93
c-31 0 -60 13 -91 39l-30 -105c-5 -19 -10 -34 -10 -48c0 -21 17 -32 54 -39l-5 -23h-227zM224 406l-97 -343c17 -27 37 -40 62 -40c38 0 72 37 98 111c19 54 29 107 29 156c0 79 -28 115 -92 116z" />
    <glyph glyph-name="ydieresis" unicode="&#xff;" horiz-adv-x="419" 
d="M-25 284l-20 6c5 25 18 72 35 105c24 45 53 59 77 59c64 0 85 -84 95 -139c13 -72 24 -191 28 -268h10c35 41 101 138 101 201c0 27 -11 54 -27 82c-9 15 -24 38 -24 67c0 34 18 57 49 57c16 0 65 -6 65 -89c0 -137 -92 -269 -149 -344c-74 -97 -188 -223 -311 -223
c-51 0 -66 30 -66 53c0 34 30 53 55 53c19 0 36 -13 48 -22c14 -10 27 -22 49 -22c43 0 114 50 114 139c0 34 -12 161 -26 273c-5 40 -7 63 -18 81c-13 22 -34 18 -46 8c-15 -12 -35 -61 -39 -77zM170 581c0 -26 -18 -49 -48 -49c-32 0 -48 28 -48 49c0 25 23 48 48 48
c27 0 48 -22 48 -48zM353 581c0 -26 -18 -49 -48 -49c-32 0 -48 28 -48 49c0 25 23 48 48 48c27 0 48 -22 48 -48z" />
    <glyph glyph-name="Amacron" unicode="&#x100;" horiz-adv-x="722" 
d="M135 23l-4 -23h-200l5 23c59 11 82 47 131 118l391 569c48 3 79 15 101 26h25l-21 -631c-1 -40 13 -58 21 -65c16 -14 55 -18 78 -17l-5 -23h-333l5 23h13c16 0 57 0 76 20c13 14 17 39 18 82l2 75h-295l-50 -78c-17 -26 -17 -43 -17 -50c0 -45 44 -49 59 -49zM439 232
l15 421l-288 -421h273zM387 810l13 61h252l-13 -61h-252z" />
    <glyph glyph-name="amacron" unicode="&#x101;" horiz-adv-x="546" 
d="M258 163c49 84 77 169 77 217c0 52 -36 54 -48 54c-53 0 -88 -61 -114 -112c-44 -87 -75 -185 -75 -229c0 -34 23 -47 43 -47c42 0 81 55 117 117zM387 418l49 36h27l-107 -350c-3 -8 -5 -23 -5 -31c0 -15 5 -19 12 -19c27 0 56 50 82 98l19 -13
c-42 -91 -108 -154 -163 -154c-23 0 -49 12 -49 52c0 12 2 27 18 83l-10 3c-47 -83 -101 -136 -169 -136c-65 0 -105 45 -105 113c0 93 72 196 88 217c84 115 165 137 215 137c14 0 53 -2 98 -36zM187 550l13 61h252l-13 -61h-252z" />
    <glyph glyph-name="Abreve" unicode="&#x102;" horiz-adv-x="722" 
d="M135 23l-4 -23h-200l5 23c59 11 82 47 131 118l391 569c48 3 79 15 101 26h25l-21 -631c-1 -40 13 -58 21 -65c16 -14 55 -18 78 -17l-5 -23h-333l5 23h13c16 0 57 0 76 20c13 14 17 39 18 82l2 75h-295l-50 -78c-17 -26 -17 -43 -17 -50c0 -45 44 -49 59 -49zM439 232
l15 421l-288 -421h273zM394 920h27c2 -48 36 -71 83 -71c77 0 124 41 148 71h28c-55 -99 -119 -134 -180 -134c-70 0 -107 43 -106 134z" />
    <glyph glyph-name="abreve" unicode="&#x103;" horiz-adv-x="546" 
d="M258 163c49 84 77 169 77 217c0 52 -36 54 -48 54c-53 0 -88 -61 -114 -112c-44 -87 -75 -185 -75 -229c0 -34 23 -47 43 -47c42 0 81 55 117 117zM387 418l49 36h27l-107 -350c-3 -8 -5 -23 -5 -31c0 -15 5 -19 12 -19c27 0 56 50 82 98l19 -13
c-42 -91 -108 -154 -163 -154c-23 0 -49 12 -49 52c0 12 2 27 18 83l-10 3c-47 -83 -101 -136 -169 -136c-65 0 -105 45 -105 113c0 93 72 196 88 217c84 115 165 137 215 137c14 0 53 -2 98 -36zM193 660h27c2 -48 36 -71 83 -71c77 0 124 41 148 71h28
c-55 -99 -119 -134 -180 -134c-70 0 -107 43 -106 134z" />
    <glyph glyph-name="Aogonek" unicode="&#x104;" horiz-adv-x="722" 
d="M135 23l-4 -23h-200l5 23c59 11 82 47 131 118l391 569c48 3 79 15 101 26h25l-21 -631c-1 -40 13 -58 21 -65c16 -14 55 -18 78 -17l-5 -23h-46c-38 -29 -71 -74 -71 -117c0 -33 18 -56 49 -56c7 0 41 0 58 35l15 -9c-21 -46 -62 -72 -104 -72c-44 0 -77 27 -77 71
c0 72 78 132 101 148h-258l5 23h13c16 0 57 0 76 20c13 14 17 39 18 82l2 75h-295l-50 -78c-17 -26 -17 -43 -17 -50c0 -45 44 -49 59 -49zM439 232l15 421l-288 -421h273z" />
    <glyph glyph-name="aogonek" unicode="&#x105;" horiz-adv-x="546" 
d="M258 163c49 84 77 169 77 217c0 52 -36 54 -48 54c-53 0 -88 -61 -114 -112c-45 -87 -75 -185 -75 -228c0 -36 23 -48 43 -48c42 0 81 55 117 117zM387 418l49 36h27l-107 -350c-3 -8 -5 -23 -5 -31c0 -15 5 -19 12 -19c27 0 56 50 82 98l19 -13c-15 -32 -36 -66 -55 -88
c-28 -32 -62 -54 -88 -83c-32 -35 -38 -65 -38 -85c0 -33 18 -56 49 -56c7 0 41 0 58 35l15 -9c-21 -46 -62 -72 -104 -72c-44 0 -77 27 -77 71c0 60 52 110 82 133c-15 -1 -54 3 -54 52c0 12 2 27 18 83l-10 3c-47 -83 -101 -136 -169 -136c-65 0 -105 45 -105 113
c0 93 72 196 88 217c84 115 165 137 215 137c14 0 53 -2 98 -36z" />
    <glyph glyph-name="Cacute" unicode="&#x106;" horiz-adv-x="738" 
d="M587 228l30 -9l-78 -233h-18c-5 21 -24 28 -34 28c-11 0 -31 -8 -56 -15c-31 -9 -66 -13 -96 -13c-158 0 -290 106 -290 271c0 83 34 199 131 310c122 141 254 169 331 169c28 0 71 -5 112 -21c33 -13 66 -38 83 -38c7 0 18 6 40 17h13l-65 -233l-30 5v41
c0 120 -33 204 -139 204c-76 0 -163 -51 -243 -187c-75 -127 -88 -239 -88 -308c0 -142 71 -203 150 -203c127 0 215 149 247 215zM465 768h-35l146 153c16 17 31 21 39 21c19 0 34 -16 34 -34c0 -15 -11 -26 -34 -41z" />
    <glyph glyph-name="cacute" unicode="&#x107;" horiz-adv-x="440" 
d="M304 172l19 -10c-4 -8 -25 -59 -61 -101c-40 -47 -93 -76 -147 -76c-60 0 -121 38 -121 134c0 38 10 111 62 193c41 63 110 142 212 142c73 0 111 -42 111 -83c0 -30 -22 -45 -48 -45c-37 0 -57 31 -57 52c0 8 3 15 3 23c0 12 -5 30 -27 30c-21 0 -52 -13 -84 -72
c-36 -67 -60 -162 -60 -238c0 -33 4 -54 14 -67c11 -15 25 -18 37 -18c46 0 81 37 97 57c19 23 37 51 50 79zM221 508h-35l146 153c16 17 31 21 39 21c19 0 34 -16 34 -34c0 -15 -11 -26 -34 -41z" />
    <glyph glyph-name="Ccircumflex" unicode="&#x108;" horiz-adv-x="738" 
d="M587 228l30 -9l-78 -233h-18c-5 21 -24 28 -34 28c-11 0 -31 -8 -56 -15c-31 -9 -66 -13 -96 -13c-158 0 -290 106 -290 271c0 83 34 199 131 310c122 141 254 169 331 169c28 0 71 -5 112 -21c33 -13 66 -38 83 -38c7 0 18 6 40 17h13l-65 -233l-30 5v41
c0 120 -33 204 -139 204c-76 0 -163 -51 -243 -187c-75 -127 -88 -239 -88 -308c0 -142 71 -203 150 -203c127 0 215 149 247 215zM643 768h-27l-87 101l-134 -101h-33l151 170h51z" />
    <glyph glyph-name="ccircumflex" unicode="&#x109;" horiz-adv-x="440" 
d="M304 172l19 -10c-4 -8 -25 -59 -61 -101c-40 -47 -93 -76 -147 -76c-60 0 -121 38 -121 134c0 38 10 111 62 193c41 63 110 142 212 142c73 0 111 -42 111 -83c0 -30 -22 -45 -48 -45c-37 0 -57 31 -57 52c0 8 3 15 3 23c0 12 -5 30 -27 30c-21 0 -52 -13 -84 -72
c-36 -67 -60 -162 -60 -238c0 -33 4 -54 14 -67c11 -15 25 -18 37 -18c46 0 81 37 97 57c19 23 37 51 50 79zM387 508h-27l-87 101l-134 -101h-33l151 170h51z" />
    <glyph glyph-name="Ccaron" unicode="&#x10c;" horiz-adv-x="738" 
d="M587 228l30 -9l-78 -233h-18c-5 21 -24 28 -34 28c-11 0 -31 -8 -56 -15c-31 -9 -66 -13 -96 -13c-158 0 -290 106 -290 271c0 83 34 199 131 310c122 141 254 169 331 169c28 0 71 -5 112 -21c33 -13 66 -38 83 -38c7 0 18 6 40 17h13l-65 -233l-30 5v41
c0 120 -33 204 -139 204c-76 0 -163 -51 -243 -187c-75 -127 -88 -239 -88 -308c0 -142 71 -203 150 -203c127 0 215 149 247 215zM404 938h26l87 -101l134 101h34l-151 -170h-52z" />
    <glyph glyph-name="ccaron" unicode="&#x10d;" horiz-adv-x="440" 
d="M304 172l19 -10c-4 -8 -25 -59 -61 -101c-40 -47 -93 -76 -147 -76c-60 0 -121 38 -121 134c0 38 10 111 62 193c41 63 110 142 212 142c73 0 111 -42 111 -83c0 -30 -22 -45 -48 -45c-37 0 -57 31 -57 52c0 8 3 15 3 23c0 12 -5 30 -27 30c-21 0 -52 -13 -84 -72
c-36 -67 -60 -162 -60 -238c0 -33 4 -54 14 -67c11 -15 25 -18 37 -18c46 0 81 37 97 57c19 23 37 51 50 79zM147 678h26l87 -101l134 101h34l-151 -170h-52z" />
    <glyph glyph-name="Dcaron" unicode="&#x10e;" horiz-adv-x="833" 
d="M-31 0l5 23c74 -1 95 44 110 96l143 500c5 19 7 31 7 38c0 43 -27 47 -74 47h-9l4 23h271c216 0 347 -125 347 -329c0 -131 -56 -235 -119 -295c-106 -100 -251 -103 -367 -103h-318zM382 694l-164 -573c-9 -32 -10 -45 -10 -51c0 -44 52 -45 78 -45c72 0 168 8 238 84
c15 17 52 62 88 174c20 61 30 120 30 184c0 89 -24 229 -217 229c-14 0 -32 -1 -43 -2zM343 938h26l87 -101l134 101h34l-151 -170h-52z" />
    <glyph glyph-name="dcaron" unicode="&#x10f;" horiz-adv-x="610" 
d="M173 322c-44 -86 -75 -186 -75 -230c0 -33 22 -46 43 -46c44 0 87 64 117 117c43 74 77 159 77 217c0 40 -22 54 -48 54c-53 0 -88 -61 -114 -112zM359 435l53 173c5 16 14 42 14 59c0 27 -20 39 -50 39h-3l4 23l171 7l-192 -632c-2 -6 -5 -15 -5 -31c0 -17 7 -19 12 -19
c29 0 57 54 82 98l19 -13c-64 -127 -123 -154 -163 -154c-48 0 -49 43 -49 52c0 12 2 27 18 83l-10 3c-55 -98 -111 -136 -169 -136c-65 0 -104 45 -104 115c0 81 54 169 86 214c83 116 169 138 216 138c14 0 41 -3 70 -19zM566 510v26c15 4 36 10 49 17c24 13 31 24 31 33
c0 10 -7 15 -14 19l-9 6c-13 9 -29 23 -29 55c0 50 33 70 61 70c34 0 69 -25 69 -81c0 -37 -13 -84 -69 -116c-25 -14 -60 -25 -89 -29z" />
    <glyph glyph-name="Dcroat" unicode="&#x110;" horiz-adv-x="838" 
d="M-27 0l5 23c69 3 90 29 110 96l72 246h-156l11 39h155l61 215c5 18 8 30 8 38c0 38 -20 47 -75 47h-9l5 23h271c221 0 346 -126 346 -331c0 -115 -44 -222 -118 -293c-91 -86 -206 -103 -367 -103h-319zM293 365l-70 -242c-6 -22 -11 -39 -11 -54c0 -29 26 -44 79 -44
c105 0 176 17 237 84c31 34 62 92 88 174c21 66 31 128 31 184c0 153 -71 229 -214 229c-15 0 -30 0 -46 -2l-82 -290h174l-11 -39h-175z" />
    <glyph glyph-name="dcroat" unicode="&#x111;" horiz-adv-x="545" 
d="M173 322c-44 -86 -75 -186 -75 -230c0 -33 22 -46 43 -46c44 0 87 64 117 117c43 74 77 159 77 217c0 40 -22 54 -48 54c-53 0 -88 -61 -114 -112zM359 435l32 103h-180l15 43h178l8 27c5 18 14 41 14 59c0 27 -20 39 -50 39h-3l4 23l171 7l-47 -155h85l-15 -43h-83
l-132 -434c-2 -6 -5 -15 -5 -31c0 -17 7 -19 12 -19c29 0 57 54 82 98l19 -13c-64 -127 -123 -154 -163 -154c-48 0 -49 43 -49 52c0 12 2 27 18 83l-10 3c-55 -98 -111 -136 -169 -136c-65 0 -104 45 -104 115c0 81 54 169 86 214c83 116 169 138 216 138
c14 0 41 -3 70 -19z" />
    <glyph glyph-name="Emacron" unicode="&#x112;" horiz-adv-x="699" 
d="M-28 0l4 23c74 -1 95 44 110 96l143 500c7 26 8 36 8 41c0 43 -35 44 -75 44h-9l5 23h503l31 -187h-24c-63 137 -119 164 -178 164h-102l-91 -317h57c74 0 137 15 172 128l24 -4l-89 -310l-23 6c3 14 11 52 11 75c0 69 -50 74 -104 74h-56l-72 -248c-3 -12 -6 -22 -6 -40
c0 -30 7 -45 80 -45c67 0 122 -3 175 34c42 29 87 89 116 140l23 -5l-63 -192h-570zM324 810l13 61h252l-13 -61h-252z" />
    <glyph glyph-name="emacron" unicode="&#x113;" horiz-adv-x="440" 
d="M306 162l17 -16c-12 -23 -33 -58 -66 -93c-40 -42 -81 -67 -135 -67c-79 0 -129 57 -129 144c0 79 44 148 82 198c60 78 122 126 200 126c70 0 102 -41 102 -81c0 -41 -28 -124 -265 -198c-10 -46 -11 -70 -11 -82c0 -51 30 -61 51 -61c35 0 69 28 88 47
c27 26 50 57 66 83zM118 206c117 37 167 115 167 173c0 31 -16 49 -36 49s-37 -16 -48 -28c-44 -50 -73 -141 -83 -194zM144 550l13 61h252l-13 -61h-252z" />
    <glyph glyph-name="Edotaccent" unicode="&#x116;" horiz-adv-x="699" 
d="M-28 0l4 23c74 -1 95 44 110 96l143 500c7 26 8 36 8 41c0 43 -35 44 -75 44h-9l5 23h503l31 -187h-24c-63 137 -119 164 -178 164h-102l-91 -317h57c74 0 137 15 172 128l24 -4l-89 -310l-23 6c3 14 11 52 11 75c0 69 -50 74 -104 74h-56l-72 -248c-3 -12 -6 -22 -6 -40
c0 -30 7 -45 80 -45c67 0 122 -3 175 34c42 29 87 89 116 140l23 -5l-63 -192h-570zM510 841c0 -28 -23 -53 -53 -53c-28 0 -53 25 -53 53c0 29 26 54 53 54c31 0 53 -27 53 -54z" />
    <glyph glyph-name="edotaccent" unicode="&#x117;" horiz-adv-x="440" 
d="M306 162l17 -16c-12 -23 -33 -58 -66 -93c-40 -42 -81 -67 -135 -67c-79 0 -129 57 -129 144c0 79 44 148 82 198c60 78 122 126 200 126c70 0 102 -41 102 -81c0 -41 -28 -124 -265 -198c-10 -46 -11 -70 -11 -82c0 -51 30 -61 51 -61c35 0 69 28 88 47
c27 26 50 57 66 83zM118 206c117 37 167 115 167 173c0 31 -16 49 -36 49s-37 -16 -48 -28c-44 -50 -73 -141 -83 -194zM330 581c0 -28 -23 -53 -53 -53c-28 0 -53 25 -53 53c0 29 26 54 53 54c31 0 53 -27 53 -54z" />
    <glyph glyph-name="Eogonek" unicode="&#x118;" horiz-adv-x="699" 
d="M-28 0l4 23c74 -1 95 44 110 96l143 500c7 26 8 36 8 41c0 43 -35 44 -75 44h-9l5 23h503l31 -187h-24c-63 137 -119 164 -178 164h-102l-91 -317h57c74 0 137 15 172 128l24 -4l-89 -310l-23 6c3 14 11 52 11 75c0 69 -50 74 -104 74h-56l-72 -248c-3 -12 -6 -22 -6 -40
c0 -30 7 -45 80 -45c67 0 122 -3 175 34c42 29 87 89 116 140l23 -5l-63 -192h-27c-38 -29 -71 -74 -71 -117c0 -33 18 -56 49 -56c7 0 41 0 58 35l15 -9c-21 -46 -62 -72 -104 -72c-44 0 -77 27 -77 71c0 72 78 132 101 148h-514z" />
    <glyph glyph-name="eogonek" unicode="&#x119;" horiz-adv-x="440" 
d="M306 162l17 -16c-18 -35 -42 -68 -67 -93c-47 -46 -63 -50 -94 -85c-19 -21 -38 -50 -38 -85c0 -33 18 -56 49 -56c7 0 41 0 58 35l15 -9c-21 -46 -62 -72 -104 -72c-44 0 -77 27 -77 71c0 59 51 110 87 137c-76 -15 -159 25 -159 141c0 79 44 148 82 198
c60 78 122 126 200 126c70 0 102 -41 102 -81c0 -41 -28 -124 -265 -198c-10 -46 -11 -70 -11 -82c0 -51 30 -61 51 -61c35 0 69 28 88 47c27 26 50 57 66 83zM118 206c117 37 167 115 167 173c0 31 -16 49 -36 49s-37 -16 -48 -28c-44 -50 -73 -141 -83 -194z" />
    <glyph glyph-name="Ecaron" unicode="&#x11a;" horiz-adv-x="699" 
d="M-28 0l4 23c74 -1 95 44 110 96l143 500c7 26 8 36 8 41c0 43 -35 44 -75 44h-9l5 23h503l31 -187h-24c-63 137 -119 164 -178 164h-102l-91 -317h57c74 0 137 15 172 128l24 -4l-89 -310l-23 6c3 14 11 52 11 75c0 69 -50 74 -104 74h-56l-72 -248c-3 -12 -6 -22 -6 -40
c0 -30 7 -45 80 -45c67 0 122 -3 175 34c42 29 87 89 116 140l23 -5l-63 -192h-570zM337 938h26l87 -101l134 101h34l-151 -170h-52z" />
    <glyph glyph-name="ecaron" unicode="&#x11b;" horiz-adv-x="440" 
d="M306 162l17 -16c-12 -23 -33 -58 -66 -93c-40 -42 -81 -67 -135 -67c-79 0 -129 57 -129 144c0 79 44 148 82 198c60 78 122 126 200 126c70 0 102 -41 102 -81c0 -41 -28 -124 -265 -198c-10 -46 -11 -70 -11 -82c0 -51 30 -61 51 -61c35 0 69 28 88 47
c27 26 50 57 66 83zM118 206c117 37 167 115 167 173c0 31 -16 49 -36 49s-37 -16 -48 -28c-44 -50 -73 -141 -83 -194zM157 678h26l87 -101l134 101h34l-151 -170h-52z" />
    <glyph glyph-name="Gcircumflex" unicode="&#x11c;" horiz-adv-x="778" 
d="M660 466v29c0 136 -30 216 -140 216c-121 0 -213 -119 -266 -234c-37 -81 -74 -207 -74 -297c0 -123 74 -169 145 -169c98 0 131 76 145 125l27 97c7 25 8 35 8 39c0 42 -29 46 -75 46h-9l5 23h317l-4 -23c-55 -5 -67 -10 -72 -14c-16 -11 -26 -41 -38 -82l-50 -174
c-41 -17 -156 -62 -249 -62c-156 0 -285 107 -285 271c0 83 34 199 131 310c122 140 253 169 335 169c28 0 60 -5 102 -19c48 -17 71 -40 89 -40c7 0 13 4 23 9l17 8h13l-65 -233zM647 768h-27l-87 101l-134 -101h-33l151 170h51z" />
    <glyph glyph-name="gcircumflex" unicode="&#x11d;" horiz-adv-x="444" 
d="M193 70l25 -8c81 -26 110 -72 110 -124c0 -71 -62 -140 -202 -140c-128 0 -185 57 -185 117s48 86 105 99c-18 10 -50 33 -50 69c0 23 9 72 101 105c-37 23 -67 62 -67 114c0 79 68 152 165 152c16 0 39 -3 54 -5c44 68 80 81 108 81c44 0 62 -30 62 -53
c0 -27 -22 -44 -41 -44c-17 0 -29 8 -36 13c-8 5 -18 12 -36 12c-7 0 -20 -1 -29 -16c48 -21 89 -64 89 -124c0 -85 -73 -147 -173 -147c-28 0 -56 8 -62 9c-17 -7 -48 -27 -48 -44c0 -33 59 -50 110 -66zM83 -1c-41 -6 -88 -36 -88 -84c0 -45 38 -90 139 -90
c97 0 114 39 114 65c0 31 -21 47 -42 59c-30 17 -60 26 -123 50zM243 261c17 33 31 79 31 110c0 40 -23 57 -48 57c-36 0 -55 -31 -70 -62c-20 -41 -33 -83 -33 -108c0 -28 14 -55 49 -55c36 0 57 31 71 58zM347 548h-27l-87 101l-134 -101h-33l151 170h51z" />
    <glyph glyph-name="Gbreve" unicode="&#x11e;" horiz-adv-x="778" 
d="M660 466v29c0 136 -30 216 -140 216c-121 0 -213 -119 -266 -234c-37 -81 -74 -207 -74 -297c0 -123 74 -169 145 -169c98 0 131 76 145 125l27 97c7 25 8 35 8 39c0 42 -29 46 -75 46h-9l5 23h317l-4 -23c-55 -5 -67 -10 -72 -14c-16 -11 -26 -41 -38 -82l-50 -174
c-41 -17 -156 -62 -249 -62c-156 0 -285 107 -285 271c0 83 34 199 131 310c122 140 253 169 335 169c28 0 60 -5 102 -19c48 -17 71 -40 89 -40c7 0 13 4 23 9l17 8h13l-65 -233zM403 920h27c2 -48 36 -71 83 -71c77 0 124 41 148 71h28c-55 -99 -119 -134 -180 -134
c-70 0 -107 43 -106 134z" />
    <glyph glyph-name="gbreve" unicode="&#x11f;" horiz-adv-x="444" 
d="M193 70l25 -8c81 -26 110 -72 110 -124c0 -71 -62 -140 -202 -140c-128 0 -185 57 -185 117s48 86 105 99c-18 10 -50 33 -50 69c0 23 9 72 101 105c-37 23 -67 62 -67 114c0 79 68 152 165 152c16 0 39 -3 54 -5c44 68 80 81 108 81c44 0 62 -30 62 -53
c0 -27 -22 -44 -41 -44c-17 0 -29 8 -36 13c-8 5 -18 12 -36 12c-7 0 -20 -1 -29 -16c48 -21 89 -64 89 -124c0 -85 -73 -147 -173 -147c-28 0 -56 8 -62 9c-17 -7 -48 -27 -48 -44c0 -33 59 -50 110 -66zM83 -1c-41 -6 -88 -36 -88 -84c0 -45 38 -90 139 -90
c97 0 114 39 114 65c0 31 -21 47 -42 59c-30 17 -60 26 -123 50zM243 261c17 33 31 79 31 110c0 40 -23 57 -48 57c-36 0 -55 -31 -70 -62c-20 -41 -33 -83 -33 -108c0 -28 14 -55 49 -55c36 0 57 31 71 58zM100 660h27c2 -48 36 -71 83 -71c77 0 124 41 148 71h28
c-55 -99 -119 -134 -180 -134c-70 0 -107 43 -106 134z" />
    <glyph glyph-name="Gcommaaccent" unicode="&#x122;" horiz-adv-x="778" 
d="M660 466v29c0 136 -30 216 -140 216c-121 0 -213 -119 -266 -234c-37 -81 -74 -207 -74 -297c0 -123 74 -169 145 -169c98 0 131 76 145 125l27 97c7 25 8 35 8 39c0 42 -29 46 -75 46h-9l5 23h317l-4 -23c-55 -5 -67 -10 -72 -14c-16 -11 -26 -41 -38 -82l-50 -174
c-41 -17 -156 -62 -249 -62c-156 0 -285 107 -285 271c0 83 34 199 131 310c122 140 253 169 335 169c28 0 60 -5 102 -19c48 -17 71 -40 89 -40c7 0 13 4 23 9l17 8h13l-65 -233zM239 -276v26c15 4 36 10 49 17c24 13 31 24 31 33c0 10 -7 15 -14 19l-9 6
c-13 9 -29 23 -29 55c0 50 33 70 61 70c34 0 69 -25 69 -81c0 -37 -13 -84 -69 -116c-25 -14 -60 -25 -89 -29z" />
    <glyph glyph-name="gcommaaccent" unicode="&#x123;" horiz-adv-x="444" 
d="M193 70l25 -8c81 -26 110 -72 110 -124c0 -71 -62 -140 -202 -140c-128 0 -185 57 -185 117s48 86 105 99c-18 10 -50 33 -50 69c0 23 9 72 101 105c-37 23 -67 62 -67 114c0 79 68 152 165 152c16 0 39 -3 54 -5c44 68 80 81 108 81c44 0 62 -30 62 -53
c0 -27 -22 -44 -41 -44c-17 0 -29 8 -36 13c-8 5 -18 12 -36 12c-7 0 -20 -1 -29 -16c48 -21 89 -64 89 -124c0 -85 -73 -147 -173 -147c-28 0 -56 8 -62 9c-17 -7 -48 -27 -48 -44c0 -33 59 -50 110 -66zM83 -1c-41 -6 -88 -36 -88 -84c0 -45 38 -90 139 -90
c97 0 114 39 114 65c0 31 -21 47 -42 59c-30 17 -60 26 -123 50zM243 261c17 33 31 79 31 110c0 40 -23 57 -48 57c-36 0 -55 -31 -70 -62c-20 -41 -33 -83 -33 -108c0 -28 14 -55 49 -55c36 0 57 31 71 58zM315 736v-26c-15 -4 -36 -10 -49 -17c-24 -13 -31 -24 -31 -33
c0 -10 7 -15 14 -19l9 -6c13 -9 29 -23 29 -55c0 -50 -33 -70 -61 -70c-34 0 -69 25 -69 81c0 37 13 84 69 116c25 14 60 25 89 29z" />
    <glyph glyph-name="Hcircumflex" unicode="&#x124;" horiz-adv-x="889" 
d="M302 401h311l63 218c4 13 7 24 7 38c0 39 -18 47 -74 47h-9l4 23h318l-5 -23c-74 1 -95 -44 -110 -96l-143 -500c-2 -7 -8 -28 -8 -38c0 -43 29 -47 75 -47h9l-5 -23h-317l4 23c74 -1 95 44 110 96l71 250h-310l-76 -261c-5 -17 -7 -28 -7 -38c0 -43 28 -47 75 -47h9
l-5 -23h-317l4 23c74 -1 95 44 110 96l143 500c2 7 8 28 8 38c0 43 -29 47 -75 47h-9l5 23h317l-4 -23c-74 1 -95 -44 -110 -96zM689 768h-27l-87 101l-134 -101h-33l151 170h51z" />
    <glyph glyph-name="hcircumflex" unicode="&#x125;" horiz-adv-x="556" 
d="M-19 0l181 607c5 17 14 48 14 60c0 22 -16 39 -47 39h-6l4 23l171 7l-149 -477l10 -3c20 36 52 87 86 127c24 28 68 71 125 71c42 0 77 -25 77 -73c0 -43 -23 -96 -33 -122l-59 -157c-1 -3 -6 -19 -6 -22v-4c1 -6 4 -19 17 -19c23 0 69 78 84 104l21 -11
c-17 -32 -42 -73 -66 -101c-22 -26 -52 -56 -96 -56c-59 0 -59 50 -59 63c0 19 10 48 16 64l67 182c18 50 18 68 18 72c0 19 -15 27 -27 27c-36 0 -88 -61 -129 -132c-47 -81 -93 -192 -119 -269h-95zM357 747h-27l-87 101l-134 -101h-33l151 170h51z" />
    <glyph glyph-name="uni012A" unicode="&#x12a;" horiz-adv-x="444" 
d="M361 608l-144 -500c-2 -8 -7 -25 -7 -38c0 -43 28 -47 75 -47h9l-5 -23h-317l4 23c74 -1 95 44 110 96l143 500c2 7 8 28 8 38c0 43 -29 47 -75 47h-9l5 23h317l-4 -23c-74 1 -95 -44 -110 -96zM204 810l13 61h252l-13 -61h-252z" />
    <glyph glyph-name="imacron" unicode="&#x12b;" horiz-adv-x="300" 
d="M215 326l-83 -224c-2 -6 -7 -17 -7 -28c0 -6 6 -17 18 -17c6 0 25 2 84 104l21 -11c-17 -32 -43 -73 -67 -102c-18 -22 -51 -55 -99 -55c-10 0 -55 2 -55 58c0 11 2 32 16 69l84 225c2 4 6 19 6 26c0 6 -4 19 -17 19c-4 0 -26 -2 -85 -104l-21 11c16 32 39 70 66 101
c21 25 53 56 96 56c56 0 59 -43 59 -64c0 -14 -2 -25 -16 -64zM64 550l13 61h252l-13 -61h-252z" />
    <glyph glyph-name="Iogonek" unicode="&#x12e;" horiz-adv-x="444" 
d="M361 608l-144 -500c-2 -8 -7 -25 -7 -38c0 -43 28 -47 75 -47h9l-5 -23h-26c-38 -29 -71 -74 -71 -117c0 -33 18 -56 49 -56c7 0 41 0 58 35l15 -9c-21 -46 -62 -72 -104 -72c-44 0 -77 27 -77 71c0 72 78 132 101 148h-262l4 23c74 -1 95 44 110 96l143 500
c2 7 8 28 8 38c0 43 -29 47 -75 47h-9l5 23h317l-4 -23c-74 1 -95 -44 -110 -96z" />
    <glyph glyph-name="iogonek" unicode="&#x12f;" horiz-adv-x="346" 
d="M294 621c0 -33 -27 -60 -59 -60c-33 0 -60 27 -60 60s27 60 60 60c32 0 59 -27 59 -60zM228 326l-83 -224c-2 -6 -7 -17 -7 -28c0 -6 6 -17 18 -17c6 0 25 2 84 104l21 -11c-16 -32 -43 -74 -68 -102c-13 -14 -27 -27 -42 -40s-31 -25 -44 -40c-28 -30 -38 -60 -38 -85
c0 -33 18 -56 49 -56c7 0 41 0 58 35l15 -9c-21 -46 -62 -72 -104 -72c-44 0 -77 27 -77 71c0 66 64 121 93 142c-33 -7 -63 14 -63 57c0 11 2 32 16 69l84 225c2 4 6 19 6 26c0 6 -4 19 -17 19c-4 0 -26 -2 -85 -104l-21 11c16 32 39 70 66 101c20 23 53 56 98 56
c53 0 57 -41 57 -64c0 -14 -2 -25 -16 -64z" />
    <glyph glyph-name="Idotaccent" unicode="&#x130;" horiz-adv-x="444" 
d="M361 608l-144 -500c-2 -8 -7 -25 -7 -38c0 -43 28 -47 75 -47h9l-5 -23h-317l4 23c74 -1 95 44 110 96l143 500c2 7 8 28 8 38c0 43 -29 47 -75 47h-9l5 23h317l-4 -23c-74 1 -95 -44 -110 -96zM390 841c0 -28 -23 -53 -53 -53c-28 0 -53 25 -53 53c0 29 26 54 53 54
c31 0 53 -27 53 -54z" />
    <glyph glyph-name="dotlessi" unicode="&#x131;" horiz-adv-x="300" 
d="M215 326l-83 -224c-2 -6 -7 -17 -7 -28c0 -6 6 -17 18 -17c6 0 25 2 84 104l21 -11c-17 -32 -43 -73 -67 -102c-18 -22 -51 -55 -99 -55c-10 0 -55 2 -55 58c0 11 2 32 16 69l84 225c2 4 6 19 6 26c0 6 -4 19 -17 19c-4 0 -26 -2 -85 -104l-21 11c16 32 39 70 66 101
c21 25 53 56 96 56c56 0 59 -43 59 -64c0 -14 -2 -25 -16 -64z" />
    <glyph glyph-name="Jcircumflex" unicode="&#x134;" 
d="M163 145l136 474c3 12 7 26 7 38c0 43 -27 47 -74 47h-9l4 23h318l-5 -23c-74 1 -95 -44 -110 -96l-111 -388c-22 -77 -38 -134 -77 -176c-35 -38 -95 -72 -178 -72c-106 0 -157 58 -157 110c0 42 32 75 74 75c38 0 68 -26 68 -59c0 -16 -5 -29 -15 -47
c-7 -12 -12 -20 -12 -31c0 -13 12 -22 32 -22c67 0 90 82 109 147zM526 768h-27l-87 101l-134 -101h-33l151 170h51z" />
    <glyph glyph-name="jcircumflex" unicode="&#x135;" horiz-adv-x="277" 
d="M199 359l-74 -296c-29 -115 -77 -265 -215 -265c-57 0 -83 30 -83 57c0 25 18 43 44 43c17 0 33 -8 41 -20c4 -6 9 -21 10 -24c2 -7 6 -24 20 -24c29 0 50 90 58 122l103 392c1 3 5 20 5 26c0 11 -9 19 -17 19c-22 0 -69 -81 -83 -106l-21 11c23 49 83 160 164 160
c44 0 55 -34 55 -57c0 -14 -4 -25 -7 -38zM297 508h-27l-87 101l-134 -101h-33l151 170h51z" />
    <glyph glyph-name="Kcommaaccent" unicode="&#x136;" horiz-adv-x="727" 
d="M472 727l-5 -23c-74 1 -95 -44 -110 -96l-71 -249l247 222c25 22 69 60 69 87c0 18 -25 34 -51 36l5 23h222l-5 -23c-93 -28 -145 -78 -193 -122l-163 -149l122 -320c14 -36 28 -82 93 -90l-4 -23h-281l2 23c21 -1 68 2 68 39c0 15 -2 24 -14 56l-85 228l-48 -40
l-55 -198c-3 -10 -8 -26 -8 -41c0 -41 35 -47 75 -44l-5 -23h-305l4 23c74 -1 95 44 110 96l143 500c2 7 8 28 8 38c0 43 -29 47 -75 47h-9l5 23h314zM187 -276v26c15 4 36 10 49 17c24 13 31 24 31 33c0 10 -7 15 -14 19l-9 6c-13 9 -29 23 -29 55c0 50 33 70 61 70
c34 0 69 -25 69 -81c0 -37 -13 -84 -69 -116c-25 -14 -60 -25 -89 -29z" />
    <glyph glyph-name="kcommaaccent" unicode="&#x137;" horiz-adv-x="495" 
d="M359 123l19 -11c-21 -57 -63 -126 -136 -126c-40 0 -60 23 -60 69c0 33 8 82 8 101c0 32 -11 37 -34 37c-11 0 -18 0 -25 -2l-55 -191h-99l174 607c4 15 13 49 13 59c0 20 -18 40 -43 40h-9l5 23l170 7l-108 -376c52 47 131 94 183 94c51 0 72 -38 72 -70
c0 -39 -28 -102 -181 -161c20 -18 37 -46 37 -98v-34c0 -34 9 -34 16 -34c18 0 44 46 53 66zM166 310l-29 -94c157 25 202 90 202 134c0 21 -15 42 -44 42c-40 0 -101 -52 -129 -82zM30 -276v26c15 4 36 10 49 17c24 13 31 24 31 33c0 10 -7 15 -14 19l-9 6
c-13 9 -29 23 -29 55c0 50 33 70 61 70c34 0 69 -25 69 -81c0 -37 -13 -84 -69 -116c-25 -14 -60 -25 -89 -29z" />
    <glyph glyph-name="Lacute" unicode="&#x139;" horiz-adv-x="657" 
d="M291 23h84c61 0 103 39 124 63l97 111l23 -5l-63 -192h-584l4 23c74 -1 95 44 110 96l143 500c3 11 8 31 8 44c0 39 -36 41 -75 41h-9l5 23h317l-4 -23c-74 1 -95 -44 -110 -96l-144 -500c-6 -21 -7 -35 -7 -41c0 -44 36 -44 81 -44zM319 768h-35l146 153
c16 17 31 21 39 21c19 0 34 -16 34 -34c0 -15 -11 -26 -34 -41z" />
    <glyph glyph-name="lacute" unicode="&#x13a;" horiz-adv-x="282" 
d="M278 736l-181 -620c-3 -12 -7 -30 -7 -39s3 -21 14 -21c21 0 50 46 84 105l21 -11c-16 -30 -42 -73 -66 -101c-20 -23 -56 -57 -102 -57c-49 0 -50 42 -50 55c0 22 9 59 13 73l141 501c7 24 8 35 8 41c0 25 -16 44 -41 44h-10l5 23zM145 764h-35l146 153
c16 17 31 21 39 21c19 0 34 -16 34 -34c0 -15 -11 -26 -34 -41z" />
    <glyph glyph-name="Lcommaaccent" unicode="&#x13b;" horiz-adv-x="657" 
d="M291 23h84c61 0 103 39 124 63l97 111l23 -5l-63 -192h-584l4 23c74 -1 95 44 110 96l143 500c3 11 8 31 8 44c0 39 -36 41 -75 41h-9l5 23h317l-4 -23c-74 1 -95 -44 -110 -96l-144 -500c-6 -21 -7 -35 -7 -41c0 -44 36 -44 81 -44zM184 -276v26c15 4 36 10 49 17
c24 13 31 24 31 33c0 10 -7 15 -14 19l-9 6c-13 9 -29 23 -29 55c0 50 33 70 61 70c34 0 69 -25 69 -81c0 -37 -13 -84 -69 -116c-25 -14 -60 -25 -89 -29z" />
    <glyph glyph-name="lcommaaccent" unicode="&#x13c;" horiz-adv-x="282" 
d="M278 736l-181 -620c-3 -12 -7 -30 -7 -39s3 -21 14 -21c21 0 50 46 84 105l21 -11c-16 -30 -42 -73 -66 -101c-20 -23 -56 -57 -102 -57c-49 0 -50 42 -50 55c0 22 9 59 13 73l141 501c7 24 8 35 8 41c0 25 -16 44 -41 44h-10l5 23zM-34 -276v26c15 4 36 10 49 17
c24 13 31 24 31 33c0 10 -7 15 -14 19l-9 6c-13 9 -29 23 -29 55c0 50 33 70 61 70c34 0 69 -25 69 -81c0 -37 -13 -84 -69 -116c-25 -14 -60 -25 -89 -29z" />
    <glyph glyph-name="Lcaron" unicode="&#x13d;" horiz-adv-x="657" 
d="M291 23h84c61 0 103 39 124 63l97 111l23 -5l-63 -192h-584l4 23c74 -1 95 44 110 96l143 500c3 11 8 31 8 44c0 39 -36 41 -75 41h-9l5 23h317l-4 -23c-74 1 -95 -44 -110 -96l-144 -500c-6 -21 -7 -35 -7 -41c0 -44 36 -44 81 -44zM556 510v26c15 4 36 10 49 17
c24 13 31 24 31 33c0 10 -7 15 -14 19l-9 6c-13 9 -29 23 -29 55c0 50 33 70 61 70c34 0 69 -25 69 -81c0 -37 -13 -84 -69 -116c-25 -14 -60 -25 -89 -29z" />
    <glyph glyph-name="lcaron" unicode="&#x13e;" horiz-adv-x="345" 
d="M278 736l-181 -620c-3 -12 -7 -30 -7 -39s3 -21 14 -21c21 0 50 46 84 105l21 -11c-16 -30 -42 -73 -66 -101c-20 -23 -56 -57 -102 -57c-49 0 -50 42 -50 55c0 22 9 59 13 73l141 501c7 24 8 35 8 41c0 25 -16 44 -41 44h-10l5 23zM286 510v26c15 4 36 10 49 17
c24 13 31 24 31 33c0 10 -7 15 -14 19l-9 6c-13 9 -29 23 -29 55c0 50 33 70 61 70c34 0 69 -25 69 -81c0 -37 -13 -84 -69 -116c-25 -14 -60 -25 -89 -29z" />
    <glyph glyph-name="Lslash" unicode="&#x141;" horiz-adv-x="662" 
d="M296 23h84c48 0 87 21 124 63l97 111l23 -5l-64 -192h-584l5 23c69 3 90 29 110 96l58 199l-138 -72l15 49l137 73l71 251c5 18 8 30 8 38c0 38 -20 47 -75 47h-9l4 23h318l-5 -23c-69 -3 -91 -29 -110 -96l-51 -177l215 114l-13 -51l-217 -114l-77 -272
c-5 -18 -8 -30 -8 -38c0 -40 21 -47 82 -47z" />
    <glyph glyph-name="lslash" unicode="&#x142;" horiz-adv-x="292" 
d="M191 420l102 59l-12 -46l-104 -59l-75 -258c-5 -18 -8 -31 -8 -39c0 -13 7 -21 15 -21c17 0 43 36 84 105l21 -11c-55 -105 -109 -158 -167 -158c-33 0 -52 21 -52 55c0 16 5 40 14 73l57 203l-103 -59l12 46l104 60l67 237c6 22 12 40 12 55c0 29 -17 44 -48 44h-3l5 23
l170 7z" />
    <glyph glyph-name="Nacute" unicode="&#x143;" horiz-adv-x="880" 
d="M646 196l104 363c5 16 13 41 13 72c0 58 -52 71 -82 73l4 23h227l-5 -23c-88 -16 -106 -84 -125 -152l-157 -552h-34l-315 662l-142 -495c-11 -39 -13 -57 -13 -71c0 -53 47 -72 83 -73l-5 -23h-227l5 23c88 16 106 84 125 152l126 443c2 8 7 22 7 40c0 38 -39 44 -75 46
l6 23h226zM541 768h-35l146 153c16 17 31 21 39 21c19 0 34 -16 34 -34c0 -15 -11 -26 -34 -41z" />
    <glyph glyph-name="nacute" unicode="&#x144;" horiz-adv-x="556" 
d="M109 0h-95l98 340c3 10 7 32 7 40c0 12 -8 18 -14 18c-11 0 -42 -18 -96 -123l-23 9c71 147 132 170 161 170c36 0 55 -31 55 -67c0 -38 -18 -98 -32 -146l9 -3c23 45 55 96 89 138c18 22 66 78 118 78c40 0 67 -33 67 -77c0 -19 -6 -51 -34 -124l-58 -151
c-2 -6 -6 -21 -6 -26c0 -10 8 -19 17 -19c23 0 71 80 85 104l21 -11c-18 -36 -43 -74 -66 -101c-25 -30 -57 -56 -102 -56c-50 0 -53 44 -53 60c0 10 2 28 16 67l66 182c5 13 19 57 19 75c0 15 -12 17 -18 17c-34 0 -85 -73 -109 -112c-48 -79 -95 -194 -122 -282zM269 508
h-35l146 153c16 17 31 21 39 21c19 0 34 -16 34 -34c0 -15 -11 -26 -34 -41z" />
    <glyph glyph-name="Ncommaaccent" unicode="&#x145;" horiz-adv-x="880" 
d="M646 196l104 363c5 16 13 41 13 72c0 58 -52 71 -82 73l4 23h227l-5 -23c-88 -16 -106 -84 -125 -152l-157 -552h-34l-315 662l-142 -495c-11 -39 -13 -57 -13 -71c0 -53 47 -72 83 -73l-5 -23h-227l5 23c88 16 106 84 125 152l126 443c2 8 7 22 7 40c0 38 -39 44 -75 46
l6 23h226zM246 -276v26c15 4 36 10 49 17c24 13 31 24 31 33c0 10 -7 15 -14 19l-9 6c-13 9 -29 23 -29 55c0 50 33 70 61 70c34 0 69 -25 69 -81c0 -37 -13 -84 -69 -116c-25 -14 -60 -25 -89 -29z" />
    <glyph glyph-name="ncommaaccent" unicode="&#x146;" horiz-adv-x="556" 
d="M109 0h-95l98 340c3 10 7 32 7 40c0 12 -8 18 -14 18c-11 0 -42 -18 -96 -123l-23 9c71 147 132 170 161 170c36 0 55 -31 55 -67c0 -38 -18 -98 -32 -146l9 -3c23 45 55 96 89 138c18 22 66 78 118 78c40 0 67 -33 67 -77c0 -19 -6 -51 -34 -124l-58 -151
c-2 -6 -6 -21 -6 -26c0 -10 8 -19 17 -19c23 0 71 80 85 104l21 -11c-18 -36 -43 -74 -66 -101c-25 -30 -57 -56 -102 -56c-50 0 -53 44 -53 60c0 10 2 28 16 67l66 182c5 13 19 57 19 75c0 15 -12 17 -18 17c-34 0 -85 -73 -109 -112c-48 -79 -95 -194 -122 -282zM89 -276
v26c15 4 36 10 49 17c24 13 31 24 31 33c0 10 -7 15 -14 19l-9 6c-13 9 -29 23 -29 55c0 50 33 70 61 70c34 0 69 -25 69 -81c0 -37 -13 -84 -69 -116c-25 -14 -60 -25 -89 -29z" />
    <glyph glyph-name="Ncaron" unicode="&#x147;" horiz-adv-x="880" 
d="M646 196l104 363c5 16 13 41 13 72c0 58 -52 71 -82 73l4 23h227l-5 -23c-88 -16 -106 -84 -125 -152l-157 -552h-34l-315 662l-142 -495c-11 -39 -13 -57 -13 -71c0 -53 47 -72 83 -73l-5 -23h-227l5 23c88 16 106 84 125 152l126 443c2 8 7 22 7 40c0 38 -39 44 -75 46
l6 23h226zM457 938h26l87 -101l134 101h34l-151 -170h-52z" />
    <glyph glyph-name="ncaron" unicode="&#x148;" horiz-adv-x="556" 
d="M109 0h-95l98 340c3 10 7 32 7 40c0 12 -8 18 -14 18c-11 0 -42 -18 -96 -123l-23 9c71 147 132 170 161 170c36 0 55 -31 55 -67c0 -38 -18 -98 -32 -146l9 -3c23 45 55 96 89 138c18 22 66 78 118 78c40 0 67 -33 67 -77c0 -19 -6 -51 -34 -124l-58 -151
c-2 -6 -6 -21 -6 -26c0 -10 8 -19 17 -19c23 0 71 80 85 104l21 -11c-18 -36 -43 -74 -66 -101c-25 -30 -57 -56 -102 -56c-50 0 -53 44 -53 60c0 10 2 28 16 67l66 182c5 13 19 57 19 75c0 15 -12 17 -18 17c-34 0 -85 -73 -109 -112c-48 -79 -95 -194 -122 -282zM205 678
h26l87 -101l134 101h34l-151 -170h-52z" />
    <glyph glyph-name="Omacron" unicode="&#x14c;" horiz-adv-x="773" 
d="M157 593c98 121 218 145 288 145c167 0 278 -126 278 -313c0 -129 -56 -240 -118 -310c-52 -59 -148 -131 -275 -131c-168 0 -280 124 -280 315c0 140 64 240 107 294zM562 329c10 35 35 124 35 206c0 121 -66 175 -137 175c-57 0 -125 -38 -179 -139
c-17 -33 -45 -94 -70 -178c-30 -103 -36 -164 -36 -206c0 -121 65 -175 137 -175c94 0 152 90 179 139c31 55 53 115 71 178zM344 810l13 61h252l-13 -61h-252z" />
    <glyph glyph-name="omacron" unicode="&#x14d;" horiz-adv-x="440" 
d="M222 454c90 0 146 -72 146 -174c0 -52 -13 -121 -54 -186c-51 -82 -117 -111 -175 -111c-90 0 -146 72 -146 175c0 48 11 120 54 188c58 92 132 108 175 108zM139 307c-33 -87 -60 -191 -60 -243c0 -38 20 -56 44 -56c47 0 77 70 99 126c41 107 60 199 60 242
s-26 53 -43 53c-49 0 -79 -66 -100 -122zM134 550l13 61h252l-13 -61h-252z" />
    <glyph glyph-name="Obreve" unicode="&#x14e;" horiz-adv-x="773" 
d="M157 593c98 121 218 145 288 145c167 0 278 -126 278 -313c0 -129 -56 -240 -118 -310c-52 -59 -148 -131 -275 -131c-168 0 -280 124 -280 315c0 140 64 240 107 294zM562 329c10 35 35 124 35 206c0 121 -66 175 -137 175c-57 0 -125 -38 -179 -139
c-17 -33 -45 -94 -70 -178c-30 -103 -36 -164 -36 -206c0 -121 65 -175 137 -175c94 0 152 90 179 139c31 55 53 115 71 178zM350 920h27c2 -48 36 -71 83 -71c77 0 124 41 148 71h28c-55 -99 -119 -134 -180 -134c-70 0 -107 43 -106 134z" />
    <glyph glyph-name="obreve" unicode="&#x14f;" horiz-adv-x="440" 
d="M222 454c90 0 146 -72 146 -174c0 -52 -13 -121 -54 -186c-51 -82 -117 -111 -175 -111c-90 0 -146 72 -146 175c0 48 11 120 54 188c58 92 132 108 175 108zM139 307c-33 -87 -60 -191 -60 -243c0 -38 20 -56 44 -56c47 0 77 70 99 126c41 107 60 199 60 242
s-26 53 -43 53c-49 0 -79 -66 -100 -122zM140 660h27c2 -48 36 -71 83 -71c77 0 124 41 148 71h28c-55 -99 -119 -134 -180 -134c-70 0 -107 43 -106 134z" />
    <glyph glyph-name="Ohungarumlaut" unicode="&#x150;" horiz-adv-x="773" 
d="M157 593c98 121 218 145 288 145c167 0 278 -126 278 -313c0 -129 -56 -240 -118 -310c-52 -59 -148 -131 -275 -131c-168 0 -280 124 -280 315c0 140 64 240 107 294zM562 329c10 35 35 124 35 206c0 121 -66 175 -137 175c-57 0 -125 -38 -179 -139
c-17 -33 -45 -94 -70 -178c-30 -103 -36 -164 -36 -206c0 -121 65 -175 137 -175c94 0 152 90 179 139c31 55 53 115 71 178zM356 768l76 144c9 17 18 31 36 31c19 0 33 -16 33 -30c0 -15 -14 -31 -22 -41l-92 -104h-31zM477 768l94 147c9 15 22 28 38 28
c18 0 32 -16 32 -32c0 -15 -13 -28 -25 -39l-108 -104h-31z" />
    <glyph glyph-name="ohungarumlaut" unicode="&#x151;" horiz-adv-x="440" 
d="M222 454c90 0 146 -72 146 -174c0 -52 -13 -121 -54 -186c-51 -82 -117 -111 -175 -111c-90 0 -146 72 -146 175c0 48 11 120 54 188c58 92 132 108 175 108zM139 307c-33 -87 -60 -191 -60 -243c0 -38 20 -56 44 -56c47 0 77 70 99 126c41 107 60 199 60 242
s-26 53 -43 53c-49 0 -79 -66 -100 -122zM166 508l76 144c9 17 18 31 36 31c19 0 33 -16 33 -30c0 -15 -14 -31 -22 -41l-92 -104h-31zM287 508l94 147c9 15 22 28 38 28c18 0 32 -16 32 -32c0 -15 -13 -28 -25 -39l-108 -104h-31z" />
    <glyph glyph-name="OE" unicode="&#x152;" horiz-adv-x="1053" 
d="M911 0h-523c-113 0 -194 13 -256 68c-58 52 -86 119 -86 208c0 114 41 221 115 304c102 115 211 147 370 147h499l32 -187h-24c-63 116 -100 164 -179 164h-102l-91 -317h57c91 0 129 18 172 128l24 -4l-89 -310l-23 6c7 33 12 57 12 75c0 56 -30 74 -105 74h-56
l-71 -248c-5 -16 -7 -28 -7 -38c0 -43 28 -47 102 -47c67 0 115 7 152 34c42 31 81 78 117 140l23 -5zM500 273l68 245c13 47 21 81 21 105c0 47 -33 77 -94 77c-88 0 -162 -50 -221 -148c-61 -101 -97 -233 -97 -367c0 -103 46 -155 138 -155c105 0 139 76 185 243z" />
    <glyph glyph-name="oe" unicode="&#x153;" horiz-adv-x="681" 
d="M282 376c0 36 -19 56 -44 56c-37 0 -65 -41 -99 -125c-45 -112 -60 -209 -60 -243c0 -36 19 -56 44 -56c37 0 65 42 99 126c46 113 60 209 60 242zM546 162l18 -16c-56 -106 -127 -160 -201 -160c-40 0 -72 15 -102 45c-43 -32 -82 -49 -120 -49c-85 0 -148 69 -148 175
c0 65 20 135 54 189c46 73 108 108 175 108c51 0 94 -21 129 -70c54 47 109 70 164 70c62 0 102 -34 102 -82c0 -73 -88 -139 -264 -197c-7 -34 -12 -61 -12 -82c0 -40 19 -61 52 -61c45 0 96 43 153 130zM359 206c107 34 167 107 167 171c0 32 -15 51 -37 51
c-42 0 -95 -75 -130 -222z" />
    <glyph glyph-name="Racute" unicode="&#x154;" horiz-adv-x="778" 
d="M294 23l-5 -23h-317l4 23c74 -1 95 44 110 96l143 500c2 7 8 28 8 38c0 48 -43 47 -75 47h-9l5 23h250c58 0 141 -10 195 -33c98 -42 113 -113 113 -154c0 -59 -28 -101 -85 -130c-43 -22 -103 -34 -150 -37l-2 -6c44 -40 53 -82 66 -142l26 -116c11 -50 21 -91 98 -86
l-5 -23h-198l-50 215c-23 97 -33 140 -97 140h-31l-71 -247c-6 -19 -7 -33 -7 -39c0 -42 29 -46 75 -46h9zM369 641l-73 -257c118 -8 277 16 277 185c0 26 -2 127 -133 127c-53 0 -63 -27 -71 -55zM421 768h-35l146 153c16 17 31 21 39 21c19 0 34 -16 34 -34
c0 -15 -11 -26 -34 -41z" />
    <glyph glyph-name="racute" unicode="&#x155;" horiz-adv-x="444" 
d="M14 0l98 340c3 10 6 25 7 32v9c-1 13 -11 17 -15 17c-22 0 -73 -81 -95 -123l-23 9c38 87 107 170 163 170c25 0 53 -19 53 -68c0 -43 -30 -130 -42 -164l10 -4c38 83 110 236 197 236c28 0 62 -14 62 -56c0 -38 -27 -60 -57 -60c-28 0 -40 18 -48 28c-6 7 -13 16 -21 16
c-31 0 -126 -174 -194 -382h-95zM213 508h-35l146 153c16 17 31 21 39 21c19 0 34 -16 34 -34c0 -15 -11 -26 -34 -41z" />
    <glyph glyph-name="Rcommaaccent" unicode="&#x156;" horiz-adv-x="778" 
d="M294 23l-5 -23h-317l4 23c74 -1 95 44 110 96l143 500c2 7 8 28 8 38c0 48 -43 47 -75 47h-9l5 23h250c58 0 141 -10 195 -33c98 -42 113 -113 113 -154c0 -59 -28 -101 -85 -130c-43 -22 -103 -34 -150 -37l-2 -6c44 -40 53 -82 66 -142l26 -116c11 -50 21 -91 98 -86
l-5 -23h-198l-50 215c-23 97 -33 140 -97 140h-31l-71 -247c-6 -19 -7 -33 -7 -39c0 -42 29 -46 75 -46h9zM369 641l-73 -257c118 -8 277 16 277 185c0 26 -2 127 -133 127c-53 0 -63 -27 -71 -55zM231 -276v26c15 4 36 10 49 17c24 13 31 24 31 33c0 10 -7 15 -14 19l-9 6
c-13 9 -29 23 -29 55c0 50 33 70 61 70c34 0 69 -25 69 -81c0 -37 -13 -84 -69 -116c-25 -14 -60 -25 -89 -29z" />
    <glyph glyph-name="rcommaaccent" unicode="&#x157;" horiz-adv-x="444" 
d="M14 0l98 340c3 10 6 25 7 32v9c-1 13 -11 17 -15 17c-22 0 -73 -81 -95 -123l-23 9c38 87 107 170 163 170c25 0 53 -19 53 -68c0 -43 -30 -130 -42 -164l10 -4c38 83 110 236 197 236c28 0 62 -14 62 -56c0 -38 -27 -60 -57 -60c-28 0 -40 18 -48 28c-6 7 -13 16 -21 16
c-31 0 -126 -174 -194 -382h-95zM-30 -276v26c15 4 36 10 49 17c24 13 31 24 31 33c0 10 -7 15 -14 19l-9 6c-13 9 -29 23 -29 55c0 50 33 70 61 70c34 0 69 -25 69 -81c0 -37 -13 -84 -69 -116c-25 -14 -60 -25 -89 -29z" />
    <glyph glyph-name="Rcaron" unicode="&#x158;" horiz-adv-x="778" 
d="M294 23l-5 -23h-317l4 23c74 -1 95 44 110 96l143 500c2 7 8 28 8 38c0 48 -43 47 -75 47h-9l5 23h250c58 0 141 -10 195 -33c98 -42 113 -113 113 -154c0 -59 -28 -101 -85 -130c-43 -22 -103 -34 -150 -37l-2 -6c44 -40 53 -82 66 -142l26 -116c11 -50 21 -91 98 -86
l-5 -23h-198l-50 215c-23 97 -33 140 -97 140h-31l-71 -247c-6 -19 -7 -33 -7 -39c0 -42 29 -46 75 -46h9zM369 641l-73 -257c118 -8 277 16 277 185c0 26 -2 127 -133 127c-53 0 -63 -27 -71 -55zM337 938h26l87 -101l134 101h34l-151 -170h-52z" />
    <glyph glyph-name="rcaron" unicode="&#x159;" horiz-adv-x="444" 
d="M14 0l98 340c3 10 6 25 7 32v9c-1 13 -11 17 -15 17c-22 0 -73 -81 -95 -123l-23 9c38 87 107 170 163 170c25 0 53 -19 53 -68c0 -43 -30 -130 -42 -164l10 -4c38 83 110 236 197 236c28 0 62 -14 62 -56c0 -38 -27 -60 -57 -60c-28 0 -40 18 -48 28c-6 7 -13 16 -21 16
c-31 0 -126 -174 -194 -382h-95zM149 678h26l87 -101l134 101h34l-151 -170h-52z" />
    <glyph glyph-name="Sacute" unicode="&#x15a;" horiz-adv-x="657" 
d="M40 21l-20 5l44 227l26 -6c-3 -108 47 -233 174 -233c90 0 137 64 137 117c0 82 -64 139 -125 192l-24 21c-75 65 -103 124 -103 182c0 100 82 213 251 213c88 0 143 -30 169 -46l31 17l16 -4l-48 -217l-26 7c2 74 -18 215 -149 215c-84 0 -129 -65 -129 -121
c0 -76 83 -133 137 -180l32 -28c41 -36 103 -100 103 -193c0 -124 -118 -205 -270 -205c-86 0 -148 28 -191 56zM357 768h-35l146 153c16 17 31 21 39 21c19 0 34 -16 34 -34c0 -15 -11 -26 -34 -41z" />
    <glyph glyph-name="sacute" unicode="&#x15b;" horiz-adv-x="389" 
d="M66 88l11 -25c8 -18 16 -50 58 -50c34 0 60 25 60 65c0 44 -34 83 -74 125c-34 36 -75 75 -75 133s42 118 143 118c93 0 139 -41 139 -80c0 -24 -16 -47 -44 -47c-31 0 -51 21 -51 50v7c0 34 -24 47 -50 47c-28 0 -50 -17 -50 -49c0 -42 36 -72 72 -106l20 -19
c44 -42 61 -92 61 -129c0 -72 -57 -142 -176 -142c-104 0 -155 48 -155 92c0 28 21 48 51 48c24 0 50 -15 60 -38zM177 508h-35l146 153c16 17 31 21 39 21c19 0 34 -16 34 -34c0 -15 -11 -26 -34 -41z" />
    <glyph glyph-name="Scircumflex" unicode="&#x15c;" horiz-adv-x="657" 
d="M40 21l-20 5l44 227l26 -6c-3 -108 47 -233 174 -233c90 0 137 64 137 117c0 82 -64 139 -125 192l-24 21c-75 65 -103 124 -103 182c0 100 82 213 251 213c88 0 143 -30 169 -46l31 17l16 -4l-48 -217l-26 7c2 74 -18 215 -149 215c-84 0 -129 -65 -129 -121
c0 -76 83 -133 137 -180l32 -28c41 -36 103 -100 103 -193c0 -124 -118 -205 -270 -205c-86 0 -148 28 -191 56zM537 768h-27l-87 101l-134 -101h-33l151 170h51z" />
    <glyph glyph-name="scircumflex" unicode="&#x15d;" horiz-adv-x="389" 
d="M66 88l11 -25c8 -18 16 -50 58 -50c34 0 60 25 60 65c0 44 -34 83 -74 125c-34 36 -75 75 -75 133s42 118 143 118c93 0 139 -41 139 -80c0 -24 -16 -47 -44 -47c-31 0 -51 21 -51 50v7c0 34 -24 47 -50 47c-28 0 -50 -17 -50 -49c0 -42 36 -72 72 -106l20 -19
c44 -42 61 -92 61 -129c0 -72 -57 -142 -176 -142c-104 0 -155 48 -155 92c0 28 21 48 51 48c24 0 50 -15 60 -38zM348 508h-27l-87 101l-134 -101h-33l151 170h51z" />
    <glyph glyph-name="Scedilla" unicode="&#x15e;" horiz-adv-x="657" 
d="M40 21l-20 5l44 227l26 -6c-3 -108 47 -233 174 -233c90 0 137 64 137 117c0 82 -64 139 -125 192l-24 21c-75 65 -103 124 -103 182c0 100 82 213 251 213c88 0 143 -30 169 -46l31 17l16 -4l-48 -217l-26 7c2 74 -18 215 -149 215c-84 0 -129 -65 -129 -121
c0 -76 83 -133 137 -180l32 -28c42 -36 103 -100 103 -193c0 -120 -120 -211 -267 -205l-13 -39c10 2 20 3 30 3c57 0 89 -31 89 -80c0 -53 -42 -86 -107 -86c-41 0 -83 13 -143 37l17 38c33 -19 75 -35 110 -35c39 0 58 14 58 44c0 34 -26 45 -54 45c-8 0 -19 -1 -46 -8
l27 83c-78 5 -134 36 -162 54z" />
    <glyph glyph-name="scedilla" unicode="&#x15f;" horiz-adv-x="389" 
d="M66 88l11 -25c8 -18 16 -50 58 -50c34 0 60 25 60 65c0 44 -34 83 -74 125c-34 36 -75 75 -75 133s42 118 143 118c93 0 139 -41 139 -80c0 -24 -16 -47 -44 -47c-31 0 -51 21 -51 50v7c0 34 -24 47 -50 47c-28 0 -50 -17 -50 -49c0 -42 36 -72 72 -106l20 -19
c44 -42 61 -92 61 -129c0 -72 -64 -144 -168 -142l-14 -41c10 2 20 3 30 3c57 0 89 -31 89 -80c0 -53 -42 -86 -107 -86c-41 0 -83 13 -143 37l17 38c33 -19 75 -35 110 -35c39 0 58 14 58 45c0 32 -25 44 -54 44c-8 0 -19 -1 -46 -8l28 84c-67 2 -131 40 -131 91
c0 28 21 48 51 48c24 0 50 -15 60 -38z" />
    <glyph glyph-name="Scaron" unicode="&#x160;" horiz-adv-x="657" 
d="M40 21l-20 5l44 227l26 -6c-3 -108 47 -233 174 -233c90 0 137 64 137 117c0 82 -64 139 -125 192l-24 21c-75 65 -103 124 -103 182c0 100 82 213 251 213c88 0 143 -30 169 -46l31 17l16 -4l-48 -217l-26 7c2 74 -18 215 -149 215c-84 0 -129 -65 -129 -121
c0 -76 83 -133 137 -180l32 -28c41 -36 103 -100 103 -193c0 -124 -118 -205 -270 -205c-86 0 -148 28 -191 56zM297 938h26l87 -101l134 101h34l-151 -170h-52z" />
    <glyph glyph-name="scaron" unicode="&#x161;" horiz-adv-x="389" 
d="M66 88l11 -25c8 -18 16 -50 58 -50c34 0 60 25 60 65c0 44 -34 83 -74 125c-34 36 -75 75 -75 133s42 118 143 118c93 0 139 -41 139 -80c0 -24 -16 -47 -44 -47c-31 0 -51 21 -51 50v7c0 34 -24 47 -50 47c-28 0 -50 -17 -50 -49c0 -42 36 -72 72 -106l20 -19
c44 -42 61 -92 61 -129c0 -72 -57 -142 -176 -142c-104 0 -155 48 -155 92c0 28 21 48 51 48c24 0 50 -15 60 -38zM104 678h26l87 -101l134 101h34l-151 -170h-52z" />
    <glyph glyph-name="Tcedilla" unicode="&#x162;" horiz-adv-x="667" 
d="M181 119l152 527c6 22 8 30 8 36c0 14 -9 22 -47 22c-120 0 -189 -115 -214 -170h-24l44 193h631l-49 -193h-21c4 131 -56 169 -126 169c-44 0 -56 -18 -73 -77l-149 -518c-2 -7 -8 -28 -8 -38c0 -43 30 -47 75 -47h9l-5 -23h-142l-18 -55c10 2 20 3 30 3
c57 0 89 -31 89 -80c0 -53 -42 -86 -107 -86c-41 0 -83 13 -143 37l17 38c33 -19 75 -35 110 -35c39 0 58 14 58 45c0 32 -25 44 -54 44c-8 0 -19 -1 -46 -8l32 97h-143l5 23c75 -1 94 44 109 96z" />
    <glyph glyph-name="tcedilla" unicode="&#x163;" horiz-adv-x="345" 
d="M211 391l-92 -296c-2 -6 -6 -22 -6 -27c0 -10 8 -18 17 -18c11 0 23 14 27 19c21 26 46 66 57 85l21 -11c-25 -51 -53 -86 -66 -101c-27 -31 -48 -45 -79 -53l-14 -44c10 2 20 3 30 3c57 0 89 -31 89 -80c0 -53 -42 -86 -107 -86c-41 0 -83 13 -143 37l17 38
c33 -19 75 -35 110 -35c39 0 58 14 58 45c0 32 -25 44 -54 44c-8 0 -19 -1 -46 -8l28 84c-33 3 -44 32 -44 56c0 26 11 53 16 70l86 278h-65l10 44h69l34 104c28 11 65 29 104 61h13l-51 -165h83l-9 -44h-93z" />
    <glyph glyph-name="Tcaron" unicode="&#x164;" horiz-adv-x="667" 
d="M181 119l152 527c6 22 8 30 8 36c0 14 -9 22 -47 22c-120 0 -189 -115 -214 -170h-24l44 193h631l-49 -193h-21c4 131 -56 169 -126 169c-44 0 -56 -18 -73 -77l-149 -518c-2 -7 -8 -28 -8 -38c0 -43 30 -47 75 -47h9l-5 -23h-317l5 23c75 -1 94 44 109 96zM321 938h26
l87 -101l134 101h34l-151 -170h-52z" />
    <glyph glyph-name="tcaron" unicode="&#x165;" horiz-adv-x="350" 
d="M199 391l-92 -296c-2 -6 -6 -22 -6 -27c0 -10 8 -18 17 -18c11 0 23 14 27 19c21 26 46 66 57 85l21 -11c-16 -33 -39 -70 -66 -101c-19 -22 -54 -56 -102 -56c-39 0 -53 29 -53 57c0 26 11 53 16 70l86 278h-65l10 44h69l34 104c28 11 65 29 104 61h13l-51 -165h83
l-9 -44h-93zM306 509v26c15 4 36 10 49 17c24 13 31 24 31 33c0 10 -7 15 -14 19l-9 6c-13 9 -29 23 -29 55c0 50 33 70 61 70c34 0 69 -25 69 -81c0 -37 -13 -84 -69 -116c-25 -14 -60 -25 -89 -29z" />
    <glyph glyph-name="Umacron" unicode="&#x16a;" horiz-adv-x="875" 
d="M125 275l100 344c4 14 7 27 7 38c0 48 -37 47 -74 47h-9l4 23h318l-5 -23c-77 0 -95 -44 -110 -96l-115 -397c-6 -20 -16 -51 -16 -79c0 -51 37 -110 169 -110c180 0 228 117 254 204l98 333c5 19 13 44 13 69c0 36 -17 70 -83 76l5 23h226l-4 -23
c-90 -16 -107 -85 -126 -152l-86 -300c-17 -61 -40 -143 -97 -194c-29 -26 -97 -72 -233 -72c-186 0 -259 80 -259 171c0 45 14 88 23 118zM444 810l13 61h252l-13 -61h-252z" />
    <glyph glyph-name="umacron" unicode="&#x16b;" horiz-adv-x="579" 
d="M394 446h99l-102 -339c-6 -18 -8 -28 -8 -37c0 -16 9 -22 16 -22c5 0 10 4 14 7c39 33 75 97 85 116l24 -8c-19 -39 -45 -80 -70 -109c-33 -39 -69 -62 -98 -62c-28 0 -58 21 -58 68c0 21 7 65 33 146l-9 2c-25 -46 -60 -99 -93 -138c-46 -54 -89 -78 -124 -78
c-42 0 -71 32 -71 78c0 21 7 51 36 124l60 151c6 14 7 21 7 25c0 11 -8 20 -18 20c-8 0 -15 -6 -20 -10c-11 -9 -31 -31 -69 -94l-22 11c20 36 47 76 69 101c20 23 56 56 105 56c31 0 58 -17 58 -57c0 -22 -6 -44 -17 -71l-70 -182c-17 -44 -19 -59 -19 -69
c0 -20 16 -22 23 -22c40 0 101 96 108 108c55 86 101 191 131 285zM203 550l13 61h252l-13 -61h-252z" />
    <glyph glyph-name="Ubreve" unicode="&#x16c;" horiz-adv-x="875" 
d="M125 275l100 344c4 14 7 27 7 38c0 48 -37 47 -74 47h-9l4 23h318l-5 -23c-77 0 -95 -44 -110 -96l-115 -397c-6 -20 -16 -51 -16 -79c0 -51 37 -110 169 -110c180 0 228 117 254 204l98 333c5 19 13 44 13 69c0 36 -17 70 -83 76l5 23h226l-4 -23
c-90 -16 -107 -85 -126 -152l-86 -300c-17 -61 -40 -143 -97 -194c-29 -26 -97 -72 -233 -72c-186 0 -259 80 -259 171c0 45 14 88 23 118zM470 920h27c2 -48 36 -71 83 -71c77 0 124 41 148 71h28c-55 -99 -119 -134 -180 -134c-70 0 -107 43 -106 134z" />
    <glyph glyph-name="ubreve" unicode="&#x16d;" horiz-adv-x="579" 
d="M394 446h99l-102 -339c-6 -18 -8 -28 -8 -37c0 -16 9 -22 16 -22c5 0 10 4 14 7c39 33 75 97 85 116l24 -8c-19 -39 -45 -80 -70 -109c-33 -39 -69 -62 -98 -62c-28 0 -58 21 -58 68c0 21 7 65 33 146l-9 2c-25 -46 -60 -99 -93 -138c-46 -54 -89 -78 -124 -78
c-42 0 -71 32 -71 78c0 21 7 51 36 124l60 151c6 14 7 21 7 25c0 11 -8 20 -18 20c-8 0 -15 -6 -20 -10c-11 -9 -31 -31 -69 -94l-22 11c20 36 47 76 69 101c20 23 56 56 105 56c31 0 58 -17 58 -57c0 -22 -6 -44 -17 -71l-70 -182c-17 -44 -19 -59 -19 -69
c0 -20 16 -22 23 -22c40 0 101 96 108 108c55 86 101 191 131 285zM209 660h27c2 -48 36 -71 83 -71c77 0 124 41 148 71h28c-55 -99 -119 -134 -180 -134c-70 0 -107 43 -106 134z" />
    <glyph glyph-name="Uring" unicode="&#x16e;" horiz-adv-x="875" 
d="M125 275l100 344c4 14 7 27 7 38c0 48 -37 47 -74 47h-9l4 23h318l-5 -23c-77 0 -95 -44 -110 -96l-115 -397c-6 -20 -16 -51 -16 -79c0 -51 37 -110 169 -110c180 0 228 117 254 204l98 333c5 19 13 44 13 69c0 36 -17 70 -83 76l5 23h226l-4 -23
c-90 -16 -107 -85 -126 -152l-86 -300c-17 -61 -40 -143 -97 -194c-29 -26 -97 -72 -233 -72c-186 0 -259 80 -259 171c0 45 14 88 23 118zM701 876c0 -65 -52 -117 -117 -117c-66 0 -118 52 -118 117c0 66 52 118 118 118c65 0 117 -52 117 -118zM659 876
c0 43 -32 76 -75 76s-76 -33 -76 -76s33 -76 76 -76s75 33 75 76z" />
    <glyph glyph-name="uring" unicode="&#x16f;" horiz-adv-x="579" 
d="M394 446h99l-102 -339c-6 -18 -8 -28 -8 -37c0 -16 9 -22 16 -22c5 0 10 4 14 7c39 33 75 97 85 116l24 -8c-19 -39 -45 -80 -70 -109c-33 -39 -69 -62 -98 -62c-28 0 -58 21 -58 68c0 21 7 65 33 146l-9 2c-25 -46 -60 -99 -93 -138c-46 -54 -89 -78 -124 -78
c-42 0 -71 32 -71 78c0 21 7 51 36 124l60 151c6 14 7 21 7 25c0 11 -8 20 -18 20c-8 0 -15 -6 -20 -10c-11 -9 -31 -31 -69 -94l-22 11c20 36 47 76 69 101c20 23 56 56 105 56c31 0 58 -17 58 -57c0 -22 -6 -44 -17 -71l-70 -182c-17 -44 -19 -59 -19 -69
c0 -20 16 -22 23 -22c40 0 101 96 108 108c55 86 101 191 131 285zM447 616c0 -65 -52 -117 -117 -117c-66 0 -118 52 -118 117c0 66 52 118 118 118c65 0 117 -52 117 -118zM405 616c0 43 -32 76 -75 76s-76 -33 -76 -76s33 -76 76 -76s75 33 75 76z" />
    <glyph glyph-name="Uhungarumlaut" unicode="&#x170;" horiz-adv-x="875" 
d="M125 275l100 344c4 14 7 27 7 38c0 48 -37 47 -74 47h-9l4 23h318l-5 -23c-77 0 -95 -44 -110 -96l-115 -397c-6 -20 -16 -51 -16 -79c0 -51 37 -110 169 -110c180 0 228 117 254 204l98 333c5 19 13 44 13 69c0 36 -17 70 -83 76l5 23h226l-4 -23
c-90 -16 -107 -85 -126 -152l-86 -300c-17 -61 -40 -143 -97 -194c-29 -26 -97 -72 -233 -72c-186 0 -259 80 -259 171c0 45 14 88 23 118zM476 768l76 144c9 17 18 31 36 31c19 0 33 -16 33 -30c0 -15 -14 -31 -22 -41l-92 -104h-31zM597 768l94 147c9 15 22 28 38 28
c18 0 32 -16 32 -32c0 -15 -13 -28 -25 -39l-108 -104h-31z" />
    <glyph glyph-name="uhungarumlaut" unicode="&#x171;" horiz-adv-x="579" 
d="M394 446h99l-102 -339c-6 -18 -8 -28 -8 -37c0 -16 9 -22 16 -22c5 0 10 4 14 7c39 33 75 97 85 116l24 -8c-19 -39 -45 -80 -70 -109c-33 -39 -69 -62 -98 -62c-28 0 -58 21 -58 68c0 21 7 65 33 146l-9 2c-25 -46 -60 -99 -93 -138c-46 -54 -89 -78 -124 -78
c-42 0 -71 32 -71 78c0 21 7 51 36 124l60 151c6 14 7 21 7 25c0 11 -8 20 -18 20c-8 0 -15 -6 -20 -10c-11 -9 -31 -31 -69 -94l-22 11c20 36 47 76 69 101c20 23 56 56 105 56c31 0 58 -17 58 -57c0 -22 -6 -44 -17 -71l-70 -182c-17 -44 -19 -59 -19 -69
c0 -20 16 -22 23 -22c40 0 101 96 108 108c55 86 101 191 131 285zM235 508l76 144c9 17 18 31 36 31c19 0 33 -16 33 -30c0 -15 -14 -31 -22 -41l-92 -104h-31zM356 508l94 147c9 15 22 28 38 28c18 0 32 -16 32 -32c0 -15 -13 -28 -25 -39l-108 -104h-31z" />
    <glyph glyph-name="Uogonek" unicode="&#x172;" horiz-adv-x="875" 
d="M125 275l100 344c4 14 7 27 7 38c0 48 -37 47 -74 47h-9l4 23h318l-5 -23c-77 0 -95 -44 -110 -96l-115 -397c-6 -20 -16 -51 -16 -79c0 -51 37 -110 169 -110c180 0 228 117 254 204l98 333c5 19 13 44 13 69c0 36 -17 70 -83 76l5 23h226l-4 -23
c-90 -16 -107 -85 -126 -152l-86 -300c-16 -57 -41 -145 -97 -194c-29 -25 -44 -25 -92 -62c-43 -33 -68 -74 -68 -113c0 -33 18 -56 49 -56c7 0 41 0 58 35l15 -9c-21 -46 -62 -72 -104 -72c-44 0 -77 27 -77 71c0 73 78 132 100 147c-25 -6 -60 -13 -114 -13
c-186 0 -259 80 -259 171c0 45 14 88 23 118z" />
    <glyph glyph-name="uogonek" unicode="&#x173;" horiz-adv-x="579" 
d="M394 446h99l-102 -339c-6 -18 -8 -28 -8 -37c0 -16 9 -22 16 -22c5 0 10 4 14 7c39 33 75 97 85 116l24 -8c-19 -38 -47 -83 -70 -109c-13 -15 -28 -28 -43 -41c-17 -14 -34 -28 -49 -45c-28 -31 -38 -60 -38 -85c0 -33 18 -56 49 -56c7 0 41 0 58 35l15 -9
c-21 -46 -62 -72 -104 -72c-44 0 -77 27 -77 71c0 67 65 121 91 140c-35 0 -58 28 -58 68c0 21 7 65 33 146l-9 2c-25 -46 -60 -99 -93 -138c-46 -54 -89 -78 -124 -78c-42 0 -71 32 -71 78c0 21 7 51 36 124l60 151c6 14 7 21 7 25c0 11 -8 20 -18 20c-8 0 -15 -6 -20 -10
c-11 -9 -31 -31 -69 -94l-22 11c20 36 47 76 69 101c20 23 56 56 105 56c31 0 58 -17 58 -57c0 -22 -6 -44 -17 -71l-70 -182c-17 -44 -19 -59 -19 -69c0 -20 16 -22 23 -22c40 0 101 96 108 108c55 86 101 191 131 285z" />
    <glyph glyph-name="Ydieresis" unicode="&#x178;" horiz-adv-x="699" 
d="M411 365l-73 -257c-2 -7 -8 -24 -8 -38c0 -53 58 -50 110 -47l-5 -23h-377l4 23h20c98 0 110 46 124 96l72 247l-93 248c-14 37 -34 90 -97 90h-5l5 23h294l-5 -23h-14c-35 0 -60 -5 -60 -27c0 -14 5 -38 100 -278l175 194c28 31 37 54 37 70c0 27 -29 41 -55 41l5 23
h191l-4 -23c-53 -15 -78 -44 -150 -125zM433 841c0 -26 -18 -49 -48 -49c-32 0 -48 28 -48 49c0 25 23 48 48 48c27 0 48 -22 48 -48zM616 841c0 -26 -18 -49 -48 -49c-32 0 -48 28 -48 49c0 25 23 48 48 48c27 0 48 -22 48 -48z" />
    <glyph glyph-name="Zacute" unicode="&#x179;" horiz-adv-x="713" 
d="M516 704h-142c-64 0 -109 -33 -133 -63l-71 -88l-23 2l47 172h516l-553 -693v-11h196c61 0 103 39 124 63l97 111l23 -5l-55 -192h-570v12l544 680v12zM421 768h-35l146 153c16 17 31 21 39 21c19 0 34 -16 34 -34c0 -15 -11 -26 -34 -41z" />
    <glyph glyph-name="zacute" unicode="&#x17a;" 
d="M-11 57l302 246c-22 12 -43 27 -61 42s-31 30 -44 40s-29 19 -43 19c-19 0 -35 -13 -35 -33c0 -10 5 -19 19 -34c8 -8 19 -16 19 -33c0 -22 -20 -38 -40 -38c-25 0 -50 21 -50 61c0 75 69 127 146 127c31 0 59 -9 81 -21c24 -13 41 -30 56 -40c8 -5 17 -11 27 -11
c19 0 26 17 32 33c5 14 12 33 36 33c16 0 27 -11 27 -27c0 -17 -12 -31 -35 -50l-297 -245c29 -12 52 -27 83 -54c20 -17 40 -36 67 -36c26 0 47 20 47 48c0 11 -4 14 -11 17c-15 5 -21 3 -43 18c-11 8 -21 17 -21 35c0 22 18 37 42 37c40 0 67 -37 67 -84
c0 -62 -48 -122 -140 -122c-25 0 -47 4 -68 14c-24 11 -39 26 -52 37c-15 13 -26 23 -41 23c-23 0 -32 -19 -44 -39l-5 -8c-10 -16 -25 -25 -38 -25c-14 0 -23 9 -23 22c0 21 23 34 40 48zM241 508h-35l146 153c16 17 31 21 39 21c19 0 34 -16 34 -34c0 -15 -11 -26 -34 -41
z" />
    <glyph glyph-name="Zdotaccent" unicode="&#x17b;" horiz-adv-x="713" 
d="M516 704h-142c-64 0 -109 -33 -133 -63l-71 -88l-23 2l47 172h516l-553 -693v-11h196c61 0 103 39 124 63l97 111l23 -5l-55 -192h-570v12l544 680v12zM510 841c0 -28 -23 -53 -53 -53c-28 0 -53 25 -53 53c0 29 26 54 53 54c31 0 53 -27 53 -54z" />
    <glyph glyph-name="zdotaccent" unicode="&#x17c;" 
d="M-11 57l302 246c-22 12 -43 27 -61 42s-31 30 -44 40s-29 19 -43 19c-19 0 -35 -13 -35 -33c0 -10 5 -19 19 -34c8 -8 19 -16 19 -33c0 -22 -20 -38 -40 -38c-25 0 -50 21 -50 61c0 75 69 127 146 127c31 0 59 -9 81 -21c24 -13 41 -30 56 -40c8 -5 17 -11 27 -11
c19 0 26 17 32 33c5 14 12 33 36 33c16 0 27 -11 27 -27c0 -17 -12 -31 -35 -50l-297 -245c29 -12 52 -27 83 -54c20 -17 40 -36 67 -36c26 0 47 20 47 48c0 11 -4 14 -11 17c-15 5 -21 3 -43 18c-11 8 -21 17 -21 35c0 22 18 37 42 37c40 0 67 -37 67 -84
c0 -62 -48 -122 -140 -122c-25 0 -47 4 -68 14c-24 11 -39 26 -52 37c-15 13 -26 23 -41 23c-23 0 -32 -19 -44 -39l-5 -8c-10 -16 -25 -25 -38 -25c-14 0 -23 9 -23 22c0 21 23 34 40 48zM350 581c0 -28 -23 -53 -53 -53c-28 0 -53 25 -53 53c0 29 26 54 53 54
c31 0 53 -27 53 -54z" />
    <glyph glyph-name="Zcaron" unicode="&#x17d;" horiz-adv-x="713" 
d="M516 704h-142c-64 0 -109 -33 -133 -63l-71 -88l-23 2l47 172h516l-553 -693v-11h196c61 0 103 39 124 63l97 111l23 -5l-55 -192h-570v12l544 680v12zM337 938h26l87 -101l134 101h34l-151 -170h-52z" />
    <glyph glyph-name="zcaron" unicode="&#x17e;" 
d="M-11 57l302 246c-22 12 -43 27 -61 42s-31 30 -44 40s-29 19 -43 19c-19 0 -35 -13 -35 -33c0 -10 5 -19 19 -34c8 -8 19 -16 19 -33c0 -22 -20 -38 -40 -38c-25 0 -50 21 -50 61c0 75 69 127 146 127c31 0 59 -9 81 -21c24 -13 41 -30 56 -40c8 -5 17 -11 27 -11
c19 0 26 17 32 33c5 14 12 33 36 33c16 0 27 -11 27 -27c0 -17 -12 -31 -35 -50l-297 -245c29 -12 52 -27 83 -54c20 -17 40 -36 67 -36c26 0 47 20 47 48c0 11 -4 14 -11 17c-15 5 -21 3 -43 18c-11 8 -21 17 -21 35c0 22 18 37 42 37c40 0 67 -37 67 -84
c0 -62 -48 -122 -140 -122c-25 0 -47 4 -68 14c-24 11 -39 26 -52 37c-15 13 -26 23 -41 23c-23 0 -32 -19 -44 -39l-5 -8c-10 -16 -25 -25 -38 -25c-14 0 -23 9 -23 22c0 21 23 34 40 48zM177 678h26l87 -101l134 101h34l-151 -170h-52z" />
    <glyph glyph-name="uni018F" unicode="&#x18f;" horiz-adv-x="672" 
d="M111 457l-24 20c27 44 72 109 110 150c83 90 164 109 221 109c96 0 204 -65 204 -233c0 -122 -71 -247 -129 -325c-109 -145 -238 -192 -333 -192c-108 0 -158 66 -158 130c0 150 265 276 459 314c15 74 15 122 15 133c0 44 -11 114 -95 114c-73 0 -127 -45 -170 -92
c-37 -40 -75 -91 -100 -128zM452 390c-225 -40 -334 -184 -334 -291c0 -50 30 -79 76 -79c25 0 68 7 114 55c66 68 122 222 144 315z" />
    <glyph glyph-name="florin" unicode="&#x192;" horiz-adv-x="495" 
d="M202 403h-106l9 42h101c38 192 116 292 213 292c70 0 114 -41 114 -92c0 -39 -25 -63 -60 -63c-32 0 -59 20 -66 49c-9 36 2 75 -27 75c-34 0 -51 -86 -67 -261h111l-9 -42h-109c-33 -399 -105 -595 -258 -595c-64 0 -111 41 -111 90c0 39 25 66 61 66
c29 0 54 -18 63 -44c12 -36 2 -77 30 -77c59 0 67 187 111 560z" />
    <glyph glyph-name="uni01CF" unicode="&#x1cf;" horiz-adv-x="444" 
d="M361 608l-144 -500c-2 -8 -7 -25 -7 -38c0 -43 28 -47 75 -47h9l-5 -23h-317l4 23c74 -1 95 44 110 96l143 500c2 7 8 28 8 38c0 43 -29 47 -75 47h-9l5 23h317l-4 -23c-74 1 -95 -44 -110 -96zM218 938h26l87 -101l134 101h34l-151 -170h-52z" />
    <glyph glyph-name="uni01D0" unicode="&#x1d0;" horiz-adv-x="300" 
d="M215 326l-83 -224c-2 -6 -7 -17 -7 -28c0 -6 6 -17 18 -17c6 0 25 2 84 104l21 -11c-17 -32 -43 -73 -67 -102c-18 -22 -51 -55 -99 -55c-10 0 -55 2 -55 58c0 11 2 32 16 69l84 225c2 4 6 19 6 26c0 6 -4 19 -17 19c-4 0 -26 -2 -85 -104l-21 11c16 32 39 70 66 101
c21 25 53 56 96 56c56 0 59 -43 59 -64c0 -14 -2 -25 -16 -64zM77 678h26l87 -101l134 101h34l-151 -170h-52z" />
    <glyph glyph-name="uni01DD" unicode="&#x1dd;" horiz-adv-x="434" 
d="M48 278l-17 16c12 23 33 58 66 93c40 42 81 67 135 67c79 0 129 -57 129 -144c0 -79 -44 -148 -82 -198c-60 -78 -122 -126 -200 -126c-70 0 -102 41 -102 81c0 41 28 124 265 198c10 46 11 70 11 82c0 51 -30 61 -51 61c-35 0 -69 -28 -88 -47c-27 -26 -50 -57 -66 -83z
M236 234c-117 -37 -167 -115 -167 -173c0 -31 16 -49 36 -49s37 16 48 28c44 50 73 141 83 194z" />
    <glyph glyph-name="Gcaron" unicode="&#x1e6;" horiz-adv-x="778" 
d="M660 466v29c0 136 -30 216 -140 216c-121 0 -213 -119 -266 -234c-37 -81 -74 -207 -74 -297c0 -123 74 -169 145 -169c98 0 131 76 145 125l27 97c7 25 8 35 8 39c0 42 -29 46 -75 46h-9l5 23h317l-4 -23c-55 -5 -67 -10 -72 -14c-16 -11 -26 -41 -38 -82l-50 -174
c-41 -17 -156 -62 -249 -62c-156 0 -285 107 -285 271c0 83 34 199 131 310c122 140 253 169 335 169c28 0 60 -5 102 -19c48 -17 71 -40 89 -40c7 0 13 4 23 9l17 8h13l-65 -233zM397 938h26l87 -101l134 101h34l-151 -170h-52z" />
    <glyph glyph-name="gcaron" unicode="&#x1e7;" horiz-adv-x="444" 
d="M193 70l25 -8c81 -26 110 -72 110 -124c0 -71 -62 -140 -202 -140c-128 0 -185 57 -185 117s48 86 105 99c-18 10 -50 33 -50 69c0 23 9 72 101 105c-37 23 -67 62 -67 114c0 79 68 152 165 152c16 0 39 -3 54 -5c44 68 80 81 108 81c44 0 62 -30 62 -53
c0 -27 -22 -44 -41 -44c-17 0 -29 8 -36 13c-8 5 -18 12 -36 12c-7 0 -20 -1 -29 -16c48 -21 89 -64 89 -124c0 -85 -73 -147 -173 -147c-28 0 -56 8 -62 9c-17 -7 -48 -27 -48 -44c0 -33 59 -50 110 -66zM83 -1c-41 -6 -88 -36 -88 -84c0 -45 38 -90 139 -90
c97 0 114 39 114 65c0 31 -21 47 -42 59c-30 17 -60 26 -123 50zM243 261c17 33 31 79 31 110c0 40 -23 57 -48 57c-36 0 -55 -31 -70 -62c-20 -41 -33 -83 -33 -108c0 -28 14 -55 49 -55c36 0 57 31 71 58zM107 678h26l87 -101l134 101h34l-151 -170h-52z" />
    <glyph glyph-name="Scommaaccent" unicode="&#x218;" horiz-adv-x="657" 
d="M40 21l-20 5l44 227l26 -6c-3 -108 47 -233 174 -233c90 0 137 64 137 117c0 82 -64 139 -125 192l-24 21c-75 65 -103 124 -103 182c0 100 82 213 251 213c88 0 143 -30 169 -46l31 17l16 -4l-48 -217l-26 7c2 74 -18 215 -149 215c-84 0 -129 -65 -129 -121
c0 -76 83 -133 137 -180l32 -28c41 -36 103 -100 103 -193c0 -124 -118 -205 -270 -205c-86 0 -148 28 -191 56zM173 -276v26c15 4 36 10 49 17c24 13 31 24 31 33c0 10 -7 15 -14 19l-9 6c-13 9 -29 23 -29 55c0 50 33 70 61 70c34 0 69 -25 69 -81c0 -37 -13 -84 -69 -116
c-25 -14 -60 -25 -89 -29z" />
    <glyph glyph-name="scommaaccent" unicode="&#x219;" horiz-adv-x="389" 
d="M66 88l11 -25c8 -18 16 -50 58 -50c34 0 60 25 60 65c0 44 -34 83 -74 125c-34 36 -75 75 -75 133s42 118 143 118c93 0 139 -41 139 -80c0 -24 -16 -47 -44 -47c-31 0 -51 21 -51 50v7c0 34 -24 47 -50 47c-28 0 -50 -17 -50 -49c0 -42 36 -72 72 -106l20 -19
c44 -42 61 -92 61 -129c0 -72 -57 -142 -176 -142c-104 0 -155 48 -155 92c0 28 21 48 51 48c24 0 50 -15 60 -38zM24 -276v26c15 4 36 10 49 17c24 13 31 24 31 33c0 10 -7 15 -14 19l-9 6c-13 9 -29 23 -29 55c0 50 33 70 61 70c34 0 69 -25 69 -81
c0 -37 -13 -84 -69 -116c-25 -14 -60 -25 -89 -29z" />
    <glyph glyph-name="Tcommaaccent" unicode="&#x21a;" horiz-adv-x="667" 
d="M181 119l152 527c6 22 8 30 8 36c0 14 -9 22 -47 22c-120 0 -189 -115 -214 -170h-24l44 193h631l-49 -193h-21c4 131 -56 169 -126 169c-44 0 -56 -18 -73 -77l-149 -518c-2 -7 -8 -28 -8 -38c0 -43 30 -47 75 -47h9l-5 -23h-317l5 23c75 -1 94 44 109 96zM125 -276v26
c15 4 36 10 49 17c24 13 31 24 31 33c0 10 -7 15 -14 19l-9 6c-13 9 -29 23 -29 55c0 50 33 70 61 70c34 0 69 -25 69 -81c0 -37 -13 -84 -69 -116c-25 -14 -60 -25 -89 -29z" />
    <glyph glyph-name="tcommaaccent" unicode="&#x21b;" horiz-adv-x="333" 
d="M199 391l-92 -296c-2 -6 -6 -22 -6 -27c0 -10 8 -18 17 -18c11 0 23 14 27 19c21 26 46 66 57 85l21 -11c-16 -33 -39 -70 -66 -101c-19 -22 -54 -56 -102 -56c-39 0 -53 29 -53 57c0 26 11 53 16 70l86 278h-65l10 44h69l34 104c28 11 65 29 104 61h13l-51 -165h83
l-9 -44h-93zM-26 -276v26c15 4 36 10 49 17c24 13 31 24 31 33c0 10 -7 15 -14 19l-9 6c-13 9 -29 23 -29 55c0 50 33 70 61 70c34 0 69 -25 69 -81c0 -37 -13 -84 -69 -116c-25 -14 -60 -25 -89 -29z" />
    <glyph glyph-name="uni0228" unicode="&#x228;" horiz-adv-x="699" 
d="M-28 0l4 23c74 -1 95 44 110 96l143 500c7 26 8 36 8 41c0 43 -35 44 -75 44h-9l5 23h503l31 -187h-24c-63 137 -119 164 -178 164h-102l-91 -317h57c74 0 137 15 172 128l24 -4l-89 -310l-23 6c3 14 11 52 11 75c0 69 -50 74 -104 74h-56l-72 -248c-3 -12 -6 -22 -6 -40
c0 -30 7 -45 80 -45c67 0 122 -3 175 34c42 29 87 89 116 140l23 -5l-63 -192h-202l-18 -55c10 2 20 3 30 3c57 0 89 -31 89 -80c0 -53 -42 -86 -107 -86c-41 0 -83 13 -143 37l17 38c33 -19 75 -35 110 -35c39 0 58 14 58 45c0 32 -25 44 -54 44c-8 0 -19 -1 -46 -8l32 97
h-336z" />
    <glyph glyph-name="uni0229" unicode="&#x229;" horiz-adv-x="453" 
d="M319 162l17 -16c-22 -42 -46 -72 -66 -93c-32 -33 -74 -67 -136 -67l-13 -41c10 2 20 3 30 3c57 0 89 -31 89 -80c0 -53 -42 -86 -107 -86c-41 0 -83 13 -143 37l17 38c33 -19 75 -35 110 -35c39 0 58 14 58 45c0 32 -25 44 -54 44c-8 0 -19 -1 -46 -8l29 86
c-69 15 -98 78 -98 141c0 79 43 148 82 198c60 78 122 126 200 126c70 0 102 -41 102 -81c0 -41 -28 -124 -265 -198c-10 -46 -11 -70 -11 -82c0 -51 30 -61 51 -61c35 0 69 28 88 47c27 26 50 57 66 83zM131 206c117 37 167 115 167 173c0 31 -16 49 -36 49
s-37 -16 -48 -28c-44 -50 -73 -141 -83 -194z" />
    <glyph glyph-name="uni0237" unicode="&#x237;" horiz-adv-x="277" 
d="M199 359l-74 -296c-29 -115 -77 -265 -215 -265c-57 0 -83 30 -83 57c0 25 18 43 44 43c17 0 33 -8 41 -20c4 -6 9 -21 10 -24c2 -7 6 -24 20 -24c29 0 50 90 58 122l103 392c1 3 5 20 5 26c0 11 -9 19 -17 19c-22 0 -69 -81 -83 -106l-21 11c23 49 83 160 164 160
c44 0 55 -34 55 -57c0 -14 -4 -25 -7 -38z" />
    <glyph glyph-name="uni0259" unicode="&#x259;" horiz-adv-x="434" 
d="M48 278l-17 16c12 23 33 58 66 93c40 42 81 67 135 67c79 0 129 -57 129 -144c0 -79 -44 -148 -82 -198c-60 -78 -122 -126 -200 -126c-70 0 -102 41 -102 81c0 41 28 124 265 198c10 46 11 70 11 82c0 51 -30 61 -51 61c-35 0 -69 -28 -88 -47c-27 -26 -50 -57 -66 -83z
M236 234c-117 -37 -167 -115 -167 -173c0 -31 16 -49 36 -49s37 16 48 28c44 50 73 141 83 194z" />
    <glyph glyph-name="afii57929" unicode="&#x2bc;" horiz-adv-x="248" 
d="M96 510v26c15 4 36 10 49 17c24 13 31 24 31 33c0 10 -7 15 -14 19l-9 6c-13 9 -29 23 -29 55c0 50 33 70 61 70c34 0 69 -25 69 -81c0 -37 -13 -84 -69 -116c-25 -14 -60 -25 -89 -29z" />
    <glyph glyph-name="circumflex" unicode="&#x2c6;" 
d="M417 508h-27l-87 101l-134 -101h-33l151 170h51z" />
    <glyph glyph-name="caron" unicode="&#x2c7;" 
d="M177 678h26l87 -101l134 101h34l-151 -170h-52z" />
    <glyph glyph-name="breve" unicode="&#x2d8;" 
d="M170 660h27c2 -48 36 -71 83 -71c77 0 124 41 148 71h28c-55 -99 -119 -134 -180 -134c-70 0 -107 43 -106 134z" />
    <glyph glyph-name="dotaccent" unicode="&#x2d9;" 
d="M350 581c0 -28 -23 -53 -53 -53c-28 0 -53 25 -53 53c0 29 26 54 53 54c31 0 53 -27 53 -54z" />
    <glyph glyph-name="ring" unicode="&#x2da;" 
d="M421 616c0 -65 -52 -117 -117 -117c-66 0 -118 52 -118 117c0 66 52 118 118 118c65 0 117 -52 117 -118zM379 616c0 43 -32 76 -75 76s-76 -33 -76 -76s33 -76 76 -76s75 33 75 76z" />
    <glyph glyph-name="ogonek" unicode="&#x2db;" 
d="M169 15h24c-52 -40 -89 -85 -89 -132c0 -33 18 -56 49 -56c7 0 41 0 58 35l15 -9c-21 -46 -62 -72 -104 -72c-44 0 -77 27 -77 71c0 78 89 142 124 163z" />
    <glyph glyph-name="tilde" unicode="&#x2dc;" 
d="M417 640h24c-3 -15 -10 -43 -23 -62c-17 -24 -40 -33 -68 -33c-10 0 -18 1 -28 4l-71 20c-5 1 -20 4 -26 4c-15 0 -40 -6 -46 -37h-24c2 17 8 37 17 52c17 28 40 39 68 39c14 0 25 -3 36 -6l64 -18c6 -2 20 -3 27 -3c32 0 46 21 50 40z" />
    <glyph glyph-name="hungarumlaut" unicode="&#x2dd;" 
d="M196 508l76 144c9 17 18 31 36 31c19 0 33 -16 33 -30c0 -15 -14 -31 -22 -41l-92 -104h-31zM317 508l94 147c9 15 22 28 38 28c18 0 32 -16 32 -32c0 -15 -13 -28 -25 -39l-108 -104h-31z" />
    <glyph glyph-name="acutecomb" unicode="&#x301;" horiz-adv-x="2" 
d="M-152 508h-35l146 153c16 17 31 21 39 21c19 0 34 -16 34 -34c0 -15 -11 -26 -34 -41z" />
    <glyph glyph-name="acutecomb" unicode="&#xf400;" horiz-adv-x="2" 
d="M-152 508h-35l146 153c16 17 31 21 39 21c19 0 34 -16 34 -34c0 -15 -11 -26 -34 -41z" />
    <glyph glyph-name="uni0313" unicode="&#x313;" horiz-adv-x="248" 
d="M96 510v26c15 4 36 10 49 17c24 13 31 24 31 33c0 10 -7 15 -14 19l-9 6c-13 9 -29 23 -29 55c0 50 33 70 61 70c34 0 69 -25 69 -81c0 -37 -13 -84 -69 -116c-25 -14 -60 -25 -89 -29z" />
    <glyph glyph-name="uni0315" unicode="&#x315;" horiz-adv-x="248" 
d="M96 510v26c15 4 36 10 49 17c24 13 31 24 31 33c0 10 -7 15 -14 19l-9 6c-13 9 -29 23 -29 55c0 50 33 70 61 70c34 0 69 -25 69 -81c0 -37 -13 -84 -69 -116c-25 -14 -60 -25 -89 -29z" />
    <glyph glyph-name="uni0326" unicode="&#x326;" horiz-adv-x="248" 
d="M-20 -276v26c15 4 36 10 49 17c24 13 31 24 31 33c0 10 -7 15 -14 19l-9 6c-13 9 -29 23 -29 55c0 50 33 70 61 70c34 0 69 -25 69 -81c0 -37 -13 -84 -69 -116c-25 -14 -60 -25 -89 -29z" />
    <glyph glyph-name="Delta" unicode="&#x394;" horiz-adv-x="717" 
d="M717 0h-717l341 727h41zM530 104l-213 478l-219 -478h432z" />
    <glyph glyph-name="Delta" unicode="&#x2206;" horiz-adv-x="717" 
d="M717 0h-717l341 727h41zM530 104l-213 478l-219 -478h432z" />
    <glyph glyph-name="Omega" unicode="&#x3a9;" horiz-adv-x="720" 
d="M68 209l24 -37c16 -25 41 -61 88 -61h118v49c-134 19 -231 127 -231 281c0 165 113 284 293 284s293 -119 293 -284c0 -154 -97 -262 -231 -281v-49h119c47 0 72 36 88 61l24 37l27 -12l-52 -197h-245v191c135 9 144 175 144 246c0 190 -73 253 -167 253
s-167 -63 -167 -253c0 -71 9 -237 144 -246v-191h-245l-52 197z" />
    <glyph glyph-name="Omega" unicode="&#x2126;" horiz-adv-x="720" 
d="M68 209l24 -37c16 -25 41 -61 88 -61h118v49c-134 19 -231 127 -231 281c0 165 113 284 293 284s293 -119 293 -284c0 -154 -97 -262 -231 -281v-49h119c47 0 72 36 88 61l24 37l27 -12l-52 -197h-245v191c135 9 144 175 144 246c0 190 -73 253 -167 253
s-167 -63 -167 -253c0 -71 9 -237 144 -246v-191h-245l-52 197z" />
    <glyph glyph-name="pi" unicode="&#x3c0;" horiz-adv-x="548" 
d="M495 119l-8 -30c-10 -36 -29 -100 -103 -100c-43 0 -92 24 -92 91v284h-144v-68c0 -103 -11 -167 -29 -213c-25 -65 -67 -95 -101 -95c-23 0 -48 15 -48 47c0 18 6 31 14 40c13 14 35 19 50 24c21 7 34 14 47 37c27 48 28 135 28 179v49h-32c-32 0 -45 -21 -57 -42
l-17 -29l-31 21l15 36c16 39 49 98 148 98h259c15 0 41 0 57 31l15 29l36 -18l-58 -126h-30c-11 0 -15 3 -15 -25v-233c0 -13 1 -37 23 -37c21 0 28 21 30 29l6 21h37z" />
    <glyph glyph-name="afii10023" unicode="&#x401;" horiz-adv-x="722" 
d="M-28 0l4 23c74 -1 95 44 110 96l143 500c7 26 8 36 8 41c0 43 -35 44 -75 44h-9l5 23h503l31 -187h-24c-63 137 -119 164 -178 164h-102l-91 -317h57c74 0 137 15 172 128l24 -4l-89 -310l-23 6c3 14 11 52 11 75c0 69 -50 74 -104 74h-56l-72 -248c-3 -12 -6 -22 -6 -40
c0 -30 7 -45 80 -45c67 0 122 -3 175 34c42 29 87 89 116 140l23 -5l-63 -192h-570zM404 841c0 -26 -18 -49 -48 -49c-32 0 -48 28 -48 49c0 25 23 48 48 48c27 0 48 -22 48 -48zM587 841c0 -26 -18 -49 -48 -49c-32 0 -48 28 -48 49c0 25 23 48 48 48c27 0 48 -22 48 -48z
" />
    <glyph glyph-name="afii10051" unicode="&#x402;" horiz-adv-x="847" 
d="M739 727l-49 -193h-21c4 131 -56 169 -126 169c-44 0 -56 -18 -73 -77l-69 -241c88 36 140 47 205 47c148 0 176 -91 176 -153c0 -113 -97 -290 -289 -290c-70 0 -111 40 -111 88s40 72 74 72c32 0 54 -22 54 -55s-19 -48 -19 -56c0 -5 3 -14 15 -14c26 0 81 29 118 164
c9 32 18 80 18 113c0 81 -55 89 -89 89c-48 0 -91 -13 -163 -44l-72 -253c-8 -29 -13 -59 -13 -93h-230l5 23c75 -1 94 44 109 96l152 527c6 22 8 30 8 36c0 14 -9 22 -47 22c-120 0 -189 -115 -214 -170h-24l44 193h631z" />
    <glyph glyph-name="afii10052" unicode="&#x403;" horiz-adv-x="658" 
d="M283 0h-311l8 26l31 2c46 3 62 49 70 76l142 497c15 54 15 92 -47 92h-23l5 24h494l32 -186h-31l-43 73c-46 79 -84 86 -129 86h-95l-160 -563c-11 -38 -25 -99 38 -101l28 -1zM441 768h-35l146 153c16 17 31 21 39 21c19 0 34 -16 34 -34c0 -15 -11 -26 -34 -41z" />
    <glyph glyph-name="afii10053" unicode="&#x404;" horiz-adv-x="738" 
d="M584 225l30 -9l-75 -230h-18c-5 21 -24 28 -34 28c-11 0 -31 -8 -56 -15c-31 -9 -66 -13 -96 -13c-158 0 -290 106 -290 271c0 83 34 199 131 310c122 140 254 169 333 169c26 0 68 -4 110 -21c33 -13 66 -38 83 -38c7 0 18 6 40 17h13l-65 -223l-29 5v41
c0 151 -67 194 -140 194c-120 0 -203 -121 -243 -187c-26 -43 -43 -77 -57 -123h290l-8 -33h-292c-14 -51 -21 -105 -21 -152c0 -142 71 -203 150 -203c110 0 200 116 244 212z" />
    <glyph glyph-name="afii10054" unicode="&#x405;" horiz-adv-x="657" 
d="M40 21l-20 5l44 227l26 -6c-3 -108 47 -233 174 -233c90 0 137 64 137 117c0 82 -64 139 -125 192l-24 21c-75 65 -103 124 -103 182c0 100 82 213 251 213c88 0 143 -30 169 -46l31 17l16 -4l-48 -217l-26 7c2 74 -18 215 -149 215c-84 0 -129 -65 -129 -121
c0 -76 83 -133 137 -180l32 -28c41 -36 103 -100 103 -193c0 -124 -118 -205 -270 -205c-86 0 -148 28 -191 56z" />
    <glyph glyph-name="afii10055" unicode="&#x406;" horiz-adv-x="444" 
d="M361 608l-144 -500c-2 -8 -7 -25 -7 -38c0 -43 28 -47 75 -47h9l-5 -23h-317l4 23c74 -1 95 44 110 96l143 500c2 7 8 28 8 38c0 43 -29 47 -75 47h-9l5 23h317l-4 -23c-74 1 -95 -44 -110 -96z" />
    <glyph glyph-name="afii10056" unicode="&#x407;" horiz-adv-x="444" 
d="M305 841c0 -26 -18 -49 -48 -49c-32 0 -48 28 -48 49c0 25 23 48 48 48c27 0 48 -22 48 -48zM488 841c0 -26 -18 -49 -48 -49c-32 0 -48 28 -48 49c0 25 23 48 48 48c27 0 48 -22 48 -48zM361 608l-144 -500c-2 -8 -7 -25 -7 -38c0 -43 28 -47 75 -47h9l-5 -23h-317l4 23
c74 -1 95 44 110 96l143 500c2 7 8 28 8 38c0 43 -29 47 -75 47h-9l5 23h317l-4 -23c-74 1 -95 -44 -110 -96z" />
    <glyph glyph-name="afii10057" unicode="&#x408;" 
d="M163 145l136 474c3 12 7 26 7 38c0 43 -27 47 -74 47h-9l4 23h318l-5 -23c-74 1 -95 -44 -110 -96l-111 -388c-22 -77 -38 -134 -77 -176c-35 -38 -95 -72 -178 -72c-106 0 -157 58 -157 110c0 42 32 75 74 75c38 0 68 -26 68 -59c0 -16 -5 -29 -15 -47
c-7 -12 -12 -20 -12 -31c0 -13 12 -22 32 -22c67 0 90 82 109 147z" />
    <glyph glyph-name="afii10058" unicode="&#x409;" horiz-adv-x="1072" 
d="M296 704l6 23h568l-5 -23c-27 0 -56 -9 -73 -24c-19 -17 -29 -44 -37 -72l-60 -209c10 1 26 2 38 2c7 0 113 2 187 -49c26 -18 77 -63 77 -145c0 -54 -21 -128 -111 -173c-49 -25 -120 -39 -188 -34h-332l4 23c27 0 56 9 73 24c19 17 29 44 37 72l167 585h-94
c-38 0 -62 -12 -86 -47c-22 -33 -38 -81 -102 -236c-17 -42 -91 -218 -161 -322c-37 -55 -84 -111 -154 -111c-49 0 -82 30 -82 76c0 47 35 78 73 78c21 0 35 -9 47 -17c10 -6 23 -14 39 -14c52 0 94 85 118 131c30 56 89 191 117 260s39 105 39 134c0 63 -58 68 -81 68h-24
zM688 373l-79 -276c-5 -19 -8 -28 -8 -36c0 -12 5 -20 14 -26s21 -10 45 -10c68 0 110 32 128 50c43 43 65 120 65 174c0 102 -72 127 -123 127c-10 0 -21 -1 -42 -3z" />
    <glyph glyph-name="afii10059" unicode="&#x40a;" horiz-adv-x="1123" 
d="M807 608l-61 -209c10 1 26 2 38 2c7 0 113 2 187 -49c26 -18 77 -64 77 -148c0 -51 -21 -124 -111 -170c-63 -32 -124 -34 -188 -34h-331l4 23c74 -1 95 44 110 96l71 250h-310l-76 -261c-5 -17 -7 -28 -7 -38c0 -43 28 -47 75 -47h9l-5 -23h-317l4 23
c74 -1 95 44 110 96l143 500c2 7 8 28 8 38c0 43 -29 47 -75 47h-9l5 23h317l-4 -23c-74 1 -95 -44 -110 -96l-59 -207h311l63 218c4 13 7 24 7 38c0 39 -18 47 -74 47h-9l4 23h317l-4 -23c-82 1 -99 -57 -110 -96zM739 373l-79 -276c-5 -19 -8 -28 -8 -36
c0 -30 32 -36 59 -36c68 0 110 32 128 50c47 47 65 129 65 176c0 98 -70 125 -125 125c-9 0 -19 -1 -40 -3z" />
    <glyph glyph-name="afii10060" unicode="&#x40b;" horiz-adv-x="854" 
d="M187 119l152 527c6 22 8 30 8 36c0 14 -7 22 -40 22c-77 0 -161 -73 -206 -170h-24l44 193h610l-49 -193h-21c4 150 -75 169 -120 169c-49 0 -59 -26 -73 -77l-62 -217l17 5c49 14 107 20 150 20c37 0 79 -5 115 -28c37 -23 57 -59 57 -108c0 -33 -11 -69 -20 -98
l-27 -92c-8 -28 -8 -39 -8 -41c0 -43 35 -44 75 -44h9l-5 -23h-309l4 23c74 1 92 55 104 96l44 153c34 118 -41 128 -78 128c-56 0 -113 -15 -138 -23l-77 -269c-2 -7 -8 -28 -8 -38c0 -39 25 -47 65 -47h9l-5 -23h-307l5 23c75 -1 94 44 109 96z" />
    <glyph glyph-name="afii10061" unicode="&#x40c;" horiz-adv-x="767" 
d="M158 727h317l-4 -23c-82 1 -99 -57 -110 -96l-64 -220h63c38 0 81 13 122 78c20 32 35 72 54 118c18 45 35 82 61 112c22 25 46 39 82 39c58 0 79 -42 79 -75c0 -39 -33 -68 -72 -68c-19 0 -31 9 -40 15c-10 7 -19 16 -29 16c-11 0 -30 -6 -49 -51
c-19 -46 -31 -81 -56 -122c-22 -35 -44 -57 -72 -74c94 -24 113 -101 112 -166l-1 -112c0 -38 16 -51 31 -51c21 0 36 23 44 36l15 24l21 -11l-17 -29c-18 -31 -51 -80 -124 -80c-53 0 -97 29 -98 118l-1 152c0 59 -28 99 -85 99h-49l-70 -240c-26 -88 13 -93 67 -93h9
l-5 -23h-317l4 23c74 -1 95 44 110 96l143 500c2 7 8 28 8 39c0 46 -38 46 -75 46h-9zM481 768h-35l146 153c16 17 31 21 39 21c19 0 34 -16 34 -34c0 -15 -11 -26 -34 -41z" />
    <glyph glyph-name="afii10062" unicode="&#x40e;" horiz-adv-x="686" 
d="M101 704l5 23h299l-5 -23h-14c-43 0 -58 -8 -58 -31c0 -7 3 -30 4 -36l67 -347l208 300c33 47 34 67 34 73c0 27 -29 41 -55 41l5 23h200l-4 -23c-24 -6 -76 -21 -148 -125l-292 -423c-30 -44 -74 -95 -108 -123c-23 -19 -65 -46 -119 -46c-62 0 -94 39 -94 79
c0 44 32 67 64 67c39 0 55 -21 65 -37c7 -10 21 -30 47 -30c27 0 54 31 71 56l16 23l-91 469c-16 83 -70 90 -92 90h-5zM751 957l23 -15c-24 -38 -56 -73 -88 -98c-84 -65 -159 -69 -190 -69c-100 0 -125 64 -125 100c0 38 29 86 81 86c40 0 70 -23 70 -60
c0 -33 -22 -45 -22 -58c0 -9 3 -26 37 -26c62 0 124 44 135 52c30 22 60 58 79 88z" />
    <glyph glyph-name="afii10145" unicode="&#x40f;" horiz-adv-x="894" 
d="M922 727l-4 -23c-74 1 -95 -44 -110 -96l-143 -500c-2 -7 -8 -28 -8 -38c0 -43 29 -47 75 -47h9l-5 -23h-367c-6 -28 -6 -50 -6 -59c0 -20 2 -37 5 -53c3 -17 5 -27 5 -37c0 -23 -10 -42 -26 -54c-11 -8 -28 -15 -52 -15c-15 0 -32 2 -45 15c-10 9 -15 23 -15 37
c0 12 5 22 10 31c8 13 16 22 26 33c16 17 28 29 39 44c13 18 23 39 29 58h-367l5 23c74 -1 95 44 110 96l143 500c2 7 8 28 8 38c0 43 -29 47 -75 47h-9l5 23h317l-4 -23c-74 1 -95 -44 -110 -96l-167 -584h310l172 595c4 14 7 27 7 38c0 43 -28 47 -75 47h-9l5 23h317z" />
    <glyph glyph-name="afii10017" unicode="&#x410;" horiz-adv-x="722" 
d="M135 23l-4 -23h-200l5 23c59 11 82 47 131 118l391 569c48 3 79 15 101 26h25l-21 -631c-1 -40 13 -58 21 -65c16 -14 55 -18 78 -17l-5 -23h-333l5 23h13c16 0 57 0 76 20c13 14 17 39 18 82l2 75h-295l-50 -78c-17 -26 -17 -43 -17 -50c0 -45 44 -49 59 -49zM439 232
l15 421l-288 -421h273z" />
    <glyph glyph-name="afii10018" unicode="&#x411;" horiz-adv-x="733" 
d="M87 119l143 500c7 26 8 36 8 41c0 43 -35 44 -75 44h-9l5 23h503l31 -187h-24c-63 137 -119 164 -178 164h-102l-88 -305c11 1 27 2 44 2c69 0 154 -14 205 -49c35 -24 77 -72 77 -148c0 -51 -21 -124 -111 -170c-63 -32 -124 -34 -188 -34h-356l5 23c74 -1 95 44 110 96
zM294 374l-79 -277c-5 -19 -8 -28 -8 -36c0 -36 47 -36 71 -36c37 0 91 1 140 50c46 47 65 130 65 176c0 68 -34 125 -141 125c-19 0 -36 -1 -48 -2z" />
    <glyph glyph-name="afii10019" unicode="&#x412;" horiz-adv-x="722" 
d="M-28 0l4 23c74 -1 95 44 110 96l143 500c4 12 8 30 8 40c0 45 -36 45 -75 45h-9l5 23h277c157 0 234 -79 234 -163c0 -88 -96 -172 -224 -179c105 -17 176 -92 176 -182c0 -121 -98 -203 -299 -203h-350zM294 376l-79 -279c-5 -19 -8 -28 -8 -36c0 -33 39 -36 66 -36
c52 0 98 7 139 50c46 49 65 128 65 177c0 120 -104 124 -131 124h-52zM388 704l-86 -302h45c60 0 102 7 137 45c27 30 51 84 51 145c0 69 -38 112 -102 112h-45z" />
    <glyph glyph-name="afii10020" unicode="&#x413;" horiz-adv-x="658" 
d="M283 0h-311l8 26l31 2c46 3 62 49 70 76l142 497c15 54 15 92 -47 92h-23l5 24h494l32 -186h-31l-43 73c-46 79 -84 86 -129 86h-95l-160 -563c-11 -38 -25 -99 38 -101l28 -1z" />
    <glyph glyph-name="afii10021" unicode="&#x414;" horiz-adv-x="821" 
d="M628 -200h-32l-7 123c-5 83 -59 77 -102 77h-366c-82 0 -137 -72 -161 -113l-51 -87h-32l60 225h33c60 0 96 54 112 76c32 45 56 81 91 141c51 88 104 205 126 260c36 92 37 127 37 134c0 63 -58 68 -81 68h-24l4 23h606l-4 -23c-74 1 -95 -44 -110 -96l-140 -482
c-4 -12 -8 -31 -8 -45c0 -48 39 -49 60 -49h55zM424 28l193 676h-128c-38 0 -62 -12 -86 -47c-18 -27 -31 -62 -67 -151c-24 -59 -31 -81 -78 -175c-58 -115 -82 -154 -129 -224c-22 -34 -34 -46 -34 -59c0 -21 17 -20 33 -20h296z" />
    <glyph glyph-name="afii10022" unicode="&#x415;" horiz-adv-x="699" 
d="M-28 0l4 23c74 -1 95 44 110 96l143 500c7 26 8 36 8 41c0 43 -35 44 -75 44h-9l5 23h503l31 -187h-24c-63 137 -119 164 -178 164h-102l-91 -317h57c74 0 137 15 172 128l24 -4l-89 -310l-23 6c3 14 11 52 11 75c0 69 -50 74 -104 74h-56l-72 -248c-3 -12 -6 -22 -6 -40
c0 -30 7 -45 80 -45c67 0 122 -3 175 34c42 29 87 89 116 140l23 -5l-63 -192h-570z" />
    <glyph glyph-name="afii10024" unicode="&#x416;" horiz-adv-x="1041" 
d="M774 727l-4 -23c-79 2 -97 -59 -108 -96l-63 -220h29c31 0 71 13 112 78c12 19 26 46 60 118c22 45 39 84 64 112c22 25 48 39 84 39c51 0 74 -40 74 -73c0 -42 -36 -67 -69 -67c-19 0 -32 8 -40 14c-9 5 -22 14 -33 14c-21 0 -39 -35 -47 -51c-19 -37 -40 -86 -63 -122
c-19 -31 -38 -53 -69 -74c106 -27 111 -120 112 -166l2 -112c1 -44 19 -51 31 -51c21 0 36 22 45 37l14 23l21 -11l-16 -29c-33 -61 -78 -80 -124 -80c-82 0 -94 70 -95 118l-4 152c-1 53 -25 99 -76 99h-22l-72 -248c-2 -8 -7 -26 -7 -38c0 -47 37 -47 69 -47h9l-5 -23
h-298l4 23c63 -3 88 39 104 96l67 237h-18c-28 0 -57 0 -94 -35c-39 -36 -66 -98 -91 -148c-40 -81 -58 -111 -75 -132c-32 -40 -66 -54 -109 -54c-53 0 -96 30 -92 94l3 45h24l-2 -27c-3 -38 19 -42 29 -42c11 0 20 4 33 19c11 13 24 34 48 86c12 27 26 60 51 97
c28 42 58 70 100 90c48 24 109 33 117 34c-22 29 -28 53 -32 83c-4 31 -4 57 -7 90c-3 44 -18 65 -30 65c-7 0 -17 -7 -27 -14c-11 -7 -22 -12 -37 -12c-34 0 -58 28 -58 63c0 38 31 77 79 77c29 0 50 -10 67 -30c29 -34 35 -82 38 -121c5 -75 3 -122 17 -155
c13 -32 33 -41 63 -41h13l67 231c4 12 8 31 8 41c0 46 -44 44 -70 44h-16l5 23h310z" />
    <glyph glyph-name="afii10025" unicode="&#x417;" horiz-adv-x="659" 
d="M256 401h36c73 0 105 23 127 46c21 22 51 65 51 147c0 69 -31 114 -100 114c-81 0 -138 -78 -152 -97l-59 -81l-23 2l55 195h33l6 -10c8 -13 19 -18 54 -6s77 27 121 27c106 0 199 -71 199 -171c0 -99 -104 -173 -224 -182c104 -17 176 -93 176 -180
c0 -50 -18 -123 -113 -174c-64 -34 -143 -47 -206 -47c-73 0 -132 17 -171 47c-34 26 -61 69 -61 116c0 58 40 82 74 82c47 0 67 -38 67 -67c0 -14 -4 -27 -7 -41c-3 -12 -5 -23 -5 -35c0 -49 30 -77 84 -77c59 0 102 33 129 64c46 53 65 129 65 179
c0 122 -104 122 -131 122h-34z" />
    <glyph glyph-name="afii10026" unicode="&#x418;" horiz-adv-x="902" 
d="M930 727l-5 -23c-74 1 -95 -44 -110 -96l-143 -500c-2 -7 -8 -28 -8 -38c0 -43 29 -47 75 -47h9l-5 -23h-317l4 23c74 -1 95 44 110 96l134 463l-459 -483c-27 -72 30 -76 70 -76h9l-5 -23h-317l4 23c74 -1 95 44 110 96l143 500c2 7 8 28 8 38c0 15 -6 29 -14 36
c-11 10 -33 11 -61 11h-9l5 23h317l-4 -23c-74 1 -95 -44 -110 -96l-128 -445l455 481c7 21 1 40 -10 49c-12 10 -33 11 -61 11h-9l4 23h318z" />
    <glyph glyph-name="afii10027" unicode="&#x419;" horiz-adv-x="902" 
d="M930 727l-5 -23c-74 1 -95 -44 -110 -96l-143 -500c-2 -7 -8 -28 -8 -38c0 -43 29 -47 75 -47h9l-5 -23h-317l4 23c74 -1 95 44 110 96l134 463l-459 -483c-27 -72 30 -76 70 -76h9l-5 -23h-317l4 23c74 -1 95 44 110 96l143 500c2 7 8 28 8 38c0 15 -6 29 -14 36
c-11 10 -33 11 -61 11h-9l5 23h317l-4 -23c-74 1 -95 -44 -110 -96l-128 -445l455 481c7 21 1 40 -10 49c-12 10 -33 11 -61 11h-9l4 23h318zM802 957l23 -15c-24 -38 -56 -73 -88 -98c-84 -65 -159 -69 -190 -69c-100 0 -125 64 -125 100c0 38 29 86 81 86
c40 0 70 -23 70 -60c0 -33 -22 -45 -22 -58c0 -9 3 -26 37 -26c62 0 124 44 135 52c30 22 60 58 79 88z" />
    <glyph glyph-name="afii10028" unicode="&#x41a;" horiz-adv-x="767" 
d="M158 727h317l-4 -23c-82 1 -99 -57 -110 -96l-64 -220h63c38 0 81 13 122 78c20 32 35 72 54 118c18 45 35 82 61 112c22 25 46 39 82 39c58 0 79 -42 79 -75c0 -39 -33 -68 -72 -68c-19 0 -31 9 -40 15c-10 7 -19 16 -29 16c-11 0 -30 -6 -49 -51
c-19 -46 -31 -81 -56 -122c-22 -35 -44 -57 -72 -74c94 -24 113 -101 112 -166l-1 -112c0 -38 16 -51 31 -51c21 0 36 23 44 36l15 24l21 -11l-17 -29c-18 -31 -51 -80 -124 -80c-53 0 -97 29 -98 118l-1 152c0 59 -28 99 -85 99h-49l-70 -240c-26 -88 13 -93 67 -93h9
l-5 -23h-317l4 23c74 -1 95 44 110 96l143 500c2 7 8 28 8 39c0 46 -38 46 -75 46h-9z" />
    <glyph glyph-name="afii10029" unicode="&#x41b;" horiz-adv-x="842" 
d="M296 704l6 23h568l-5 -23c-74 1 -95 -44 -110 -96l-143 -500c-2 -7 -8 -28 -8 -38c0 -43 29 -47 75 -47h9l-5 -23h-317l4 23c74 -1 95 44 110 96l167 585h-94c-38 0 -62 -12 -86 -47c-22 -33 -38 -81 -102 -236c-17 -42 -91 -218 -161 -322c-37 -55 -84 -111 -154 -111
c-49 0 -82 30 -82 76c0 47 35 78 73 78c21 0 35 -9 47 -17c10 -6 23 -14 39 -14c52 0 94 85 118 131c30 56 89 191 117 260s39 105 39 134c0 63 -58 68 -81 68h-24z" />
    <glyph glyph-name="afii10030" unicode="&#x41c;" horiz-adv-x="984" 
d="M1015 727l-5 -23c-74 1 -95 -44 -110 -96l-143 -500c-7 -26 -8 -36 -8 -38c0 -43 29 -47 75 -47h9l-5 -23h-310l4 23c74 -1 95 44 110 96l165 573l-442 -692h-35l-37 681l-149 -514c-9 -31 -18 -68 -18 -90c0 -34 32 -53 65 -54l-5 -23h-195l5 23c77 10 92 69 116 152
l126 443c2 8 7 22 7 40c0 38 -39 44 -75 46l6 23h238l28 -546l348 546h235z" />
    <glyph glyph-name="afii10031" unicode="&#x41d;" horiz-adv-x="889" 
d="M302 401h311l63 218c4 13 7 24 7 38c0 39 -18 47 -74 47h-9l4 23h318l-5 -23c-74 1 -95 -44 -110 -96l-143 -500c-2 -7 -8 -28 -8 -38c0 -43 29 -47 75 -47h9l-5 -23h-317l4 23c74 -1 95 44 110 96l71 250h-310l-76 -261c-5 -17 -7 -28 -7 -38c0 -43 28 -47 75 -47h9
l-5 -23h-317l4 23c74 -1 95 44 110 96l143 500c2 7 8 28 8 38c0 43 -29 47 -75 47h-9l5 23h317l-4 -23c-74 1 -95 -44 -110 -96z" />
    <glyph glyph-name="afii10032" unicode="&#x41e;" horiz-adv-x="773" 
d="M157 593c98 121 218 145 288 145c167 0 278 -126 278 -313c0 -129 -56 -240 -118 -310c-52 -59 -148 -131 -275 -131c-168 0 -280 124 -280 315c0 140 64 240 107 294zM562 329c10 35 35 124 35 206c0 121 -66 175 -137 175c-57 0 -125 -38 -179 -139
c-17 -33 -45 -94 -70 -178c-30 -103 -36 -164 -36 -206c0 -121 65 -175 137 -175c94 0 152 90 179 139c31 55 53 115 71 178z" />
    <glyph glyph-name="afii10033" unicode="&#x41f;" horiz-adv-x="894" 
d="M-28 0l4 23c74 -1 95 44 110 96l143 500c2 7 8 28 8 38c0 43 -29 47 -75 47h-9l5 23h764l-5 -23c-74 1 -95 -44 -110 -96l-143 -500c-2 -7 -8 -28 -8 -38c0 -43 29 -47 75 -47h9l-5 -23h-317l4 23c74 -1 95 44 110 96l167 584h-310l-172 -595c-4 -14 -7 -27 -7 -38
c0 -43 28 -47 75 -47h9l-5 -23h-317z" />
    <glyph glyph-name="afii10034" unicode="&#x420;" horiz-adv-x="722" 
d="M181 704l5 23h233c251 0 303 -101 303 -176c0 -96 -75 -193 -368 -193h-37l-72 -250c-6 -19 -7 -33 -7 -38c0 -43 30 -47 75 -47h9l-5 -23h-317l4 23c74 -1 95 44 110 96l143 500c7 26 8 36 8 38c0 48 -42 47 -75 47h-9zM399 641l-73 -253c62 -5 259 -2 259 185
c0 108 -74 123 -127 123c-26 0 -43 0 -59 -55z" />
    <glyph glyph-name="afii10035" unicode="&#x421;" horiz-adv-x="738" 
d="M587 228l30 -9l-78 -233h-18c-5 21 -24 28 -34 28c-11 0 -31 -8 -56 -15c-31 -9 -66 -13 -96 -13c-158 0 -290 106 -290 271c0 83 34 199 131 310c122 141 254 169 331 169c28 0 71 -5 112 -21c33 -13 66 -38 83 -38c7 0 18 6 40 17h13l-65 -233l-30 5v41
c0 120 -33 204 -139 204c-76 0 -163 -51 -243 -187c-75 -127 -88 -239 -88 -308c0 -142 71 -203 150 -203c127 0 215 149 247 215z" />
    <glyph glyph-name="afii10036" unicode="&#x422;" horiz-adv-x="667" 
d="M181 119l152 527c6 22 8 30 8 36c0 14 -9 22 -47 22c-120 0 -189 -115 -214 -170h-24l44 193h631l-49 -193h-21c4 131 -56 169 -126 169c-44 0 -56 -18 -73 -77l-149 -518c-2 -7 -8 -28 -8 -38c0 -43 30 -47 75 -47h9l-5 -23h-317l5 23c75 -1 94 44 109 96z" />
    <glyph glyph-name="afii10037" unicode="&#x423;" horiz-adv-x="686" 
d="M101 704l5 23h299l-5 -23h-14c-43 0 -58 -8 -58 -31c0 -7 3 -30 4 -36l67 -347l208 300c33 47 34 67 34 73c0 27 -29 41 -55 41l5 23h200l-4 -23c-24 -6 -76 -21 -148 -125l-292 -423c-30 -44 -74 -95 -108 -123c-23 -19 -65 -46 -119 -46c-62 0 -94 39 -94 79
c0 44 32 67 64 67c39 0 55 -21 65 -37c7 -10 21 -30 47 -30c27 0 54 31 71 56l16 23l-91 469c-16 83 -70 90 -92 90h-5z" />
    <glyph glyph-name="afii10038" unicode="&#x424;" horiz-adv-x="911" 
d="M704 747l-4 -23c-23 0 -77 -5 -97 -59c71 -4 146 -30 194 -79c38 -39 64 -97 64 -167c0 -73 -25 -152 -81 -213c-72 -78 -184 -120 -341 -119c-2 -7 -6 -19 -6 -26c0 -43 33 -44 73 -44h9l-5 -23h-305l4 23c49 -1 84 19 99 70c-71 4 -146 30 -194 79
c-38 39 -64 97 -64 167c0 73 25 152 81 213c72 78 184 120 341 119c13 59 -59 59 -69 59h-9l5 23h305zM596 639l-150 -526c73 0 140 31 191 91c60 72 93 187 93 273c0 41 -9 98 -58 135c-11 8 -37 25 -76 27zM317 113l150 526c-73 0 -140 -31 -191 -91
c-60 -72 -93 -187 -93 -273c0 -41 9 -98 58 -135c11 -8 37 -25 76 -27z" />
    <glyph glyph-name="afii10039" unicode="&#x425;" horiz-adv-x="833" 
d="M-39 0l4 23c61 8 95 36 170 107l219 207l-88 278c-14 44 -20 61 -31 70c-17 15 -59 18 -71 19l5 23h294l-4 -23c-68 1 -71 -23 -71 -33c0 -14 4 -27 13 -56l57 -181l190 177c24 22 37 38 37 57c0 25 -28 37 -51 36l5 23h220l-5 -23c-68 -12 -106 -44 -182 -114l-203 -189
l84 -263c17 -55 35 -114 109 -115l-5 -23h-294l5 23c24 0 65 10 65 48c0 10 -3 24 -14 59l-55 172l-192 -180c-24 -23 -46 -42 -46 -65c0 -20 15 -34 44 -34h3l-3 -23h-209z" />
    <glyph glyph-name="afii10040" unicode="&#x426;" horiz-adv-x="897" 
d="M917 727l-4 -23c-74 1 -95 -44 -110 -96l-140 -482c-4 -12 -8 -31 -8 -45c0 -48 39 -49 60 -49h45l-66 -232h-32l-7 123c-5 83 -59 77 -102 77h-581l5 23c74 -1 95 44 110 96l143 500c2 7 8 28 8 38c0 43 -29 47 -75 47h-9l5 23h317l-4 -23c-74 1 -95 -44 -110 -96
l-166 -580h305l171 591c4 14 7 27 7 38c0 43 -28 47 -75 47h-9l5 23h317z" />
    <glyph glyph-name="afii10041" unicode="&#x427;" horiz-adv-x="766" 
d="M612 23l-5 -23h-317l4 23c74 -1 95 44 110 96l57 202l-30 -8c-46 -12 -93 -20 -150 -20c-37 0 -79 5 -115 28c-37 23 -57 59 -57 108c0 33 11 69 20 98l27 92c8 28 8 39 8 41c0 43 -35 44 -75 44h-9l5 23h315l-4 -23c-74 1 -95 -44 -110 -96l-44 -153
c-34 -117 41 -128 78 -128c58 0 120 16 151 27l77 265c4 12 7 24 7 40c0 36 -18 45 -74 45h-9l4 23h318l-5 -23c-74 1 -95 -44 -110 -96l-143 -500c-2 -7 -8 -28 -8 -38c0 -43 29 -47 75 -47h9z" />
    <glyph glyph-name="afii10042" unicode="&#x428;" horiz-adv-x="1219" 
d="M1247 727l-4 -23c-74 1 -95 -44 -110 -96l-144 -500c-2 -7 -8 -28 -8 -38c0 -43 29 -47 75 -47h9l-5 -23h-1088l5 23c74 -1 95 44 110 96l143 500c2 7 8 28 8 38c0 43 -29 47 -75 47h-9l5 23h313l-4 -23c-77 -2 -94 -54 -106 -96l-167 -584h249l172 595c2 7 8 28 8 38
c0 43 -31 47 -71 47h-9l5 23h309l-4 -23c-77 -2 -94 -54 -106 -96l-167 -584h249l172 595c4 14 7 27 7 38c0 43 -29 47 -71 47h-9l5 23h313z" />
    <glyph glyph-name="afii10043" unicode="&#x429;" horiz-adv-x="1227" 
d="M1247 727l-4 -23c-74 1 -95 -44 -110 -96l-138 -482c-4 -13 -8 -31 -8 -45c0 -48 39 -49 60 -49h45l-66 -232h-32l-7 123c-5 83 -59 77 -102 77h-913l5 23c74 -1 95 44 110 96l143 500c2 7 8 28 8 38c0 43 -29 47 -75 47h-9l5 23h313l-4 -23c-77 -2 -94 -54 -106 -96
l-167 -584h249l172 595c2 7 8 28 8 38c0 43 -31 47 -71 47h-9l5 23h309l-4 -23c-77 -2 -94 -54 -106 -96l-167 -584h249l172 595c4 14 7 27 7 38c0 43 -29 47 -71 47h-9l5 23h313z" />
    <glyph glyph-name="afii10044" unicode="&#x42a;" horiz-adv-x="807" 
d="M591 727l-4 -23c-74 1 -96 -44 -110 -96l-58 -209c10 1 26 2 38 2c7 0 113 2 187 -49c26 -18 77 -64 77 -148c0 -51 -21 -124 -111 -170c-63 -32 -124 -34 -188 -34h-332l5 23c74 -1 95 44 110 96l167 585h-127l-133 -166h-25l55 189h449zM412 373l-79 -276
c-5 -19 -8 -28 -8 -36c0 -30 32 -36 59 -36c68 0 110 32 128 50c47 47 65 129 65 176c0 98 -70 125 -125 125c-9 0 -19 -1 -40 -3z" />
    <glyph glyph-name="afii10045" unicode="&#x42b;" horiz-adv-x="1021" 
d="M476 727l-4 -23c-82 1 -99 -57 -110 -96l-61 -209c10 1 28 2 46 2c66 0 124 -14 173 -49c48 -35 77 -80 77 -145c0 -55 -21 -127 -111 -173c-63 -32 -124 -34 -188 -34h-326l5 23c74 -1 95 44 110 96l143 500c7 26 8 36 8 41c0 43 -35 44 -75 44h-9l5 23h317zM294 373
l-79 -276c-5 -19 -8 -28 -8 -36c0 -22 18 -36 59 -36c51 0 95 21 124 50c47 47 65 129 65 176c0 98 -70 125 -124 125c-9 0 -16 -1 -37 -3zM935 608l-144 -500c-2 -8 -7 -25 -7 -38c0 -43 28 -47 75 -47h9l-5 -23h-317l4 23c74 -1 95 44 110 96l143 500c2 7 8 28 8 39
c0 46 -38 46 -75 46h-9l5 23h317l-4 -23c-74 1 -95 -44 -110 -96z" />
    <glyph glyph-name="afii10046" unicode="&#x42c;" horiz-adv-x="678" 
d="M476 727l-4 -23c-82 1 -99 -57 -110 -96l-61 -209c10 1 26 2 38 2c7 0 113 2 187 -49c26 -18 77 -64 77 -148c0 -51 -21 -124 -111 -170c-63 -32 -124 -34 -188 -34h-332l5 23c74 -1 95 44 110 96l143 500c2 7 8 28 8 38c0 43 -29 47 -75 47h-9l5 23h317zM294 373
l-79 -276c-5 -19 -8 -28 -8 -36c0 -30 32 -36 59 -36c68 0 110 32 128 50c47 47 65 129 65 176c0 98 -70 125 -125 125c-9 0 -19 -1 -40 -3z" />
    <glyph glyph-name="afii10047" unicode="&#x42d;" horiz-adv-x="727" 
d="M230 368l9 33h292c12 43 18 86 18 133c0 101 -42 176 -133 176c-78 0 -141 -47 -199 -121c-16 -21 -51 -70 -69 -97l-29 1l67 234h25l6 -11c5 -9 9 -18 24 -18c10 0 22 6 49 15c35 12 76 25 130 25c173 0 257 -125 257 -268c0 -102 -41 -218 -114 -311
c-81 -103 -199 -175 -321 -175c-52 0 -109 15 -151 47c-42 33 -63 78 -63 118c0 47 30 80 70 80c32 0 65 -22 65 -69c0 -13 -3 -26 -5 -39c-2 -12 -4 -23 -4 -35c0 -53 40 -74 82 -74c108 0 176 103 205 152c38 66 65 133 82 204h-293z" />
    <glyph glyph-name="afii10048" unicode="&#x42e;" horiz-adv-x="1090" 
d="M298 391h109c13 61 40 131 97 202c91 113 198 140 269 140c151 0 267 -116 267 -308c0 -129 -56 -240 -118 -310c-48 -55 -136 -126 -258 -126c-168 0 -267 127 -267 310c0 5 1 30 4 61h-112l-72 -252c-2 -8 -7 -25 -7 -38c0 -43 28 -47 75 -47h9l-5 -23h-317l4 23
c74 -1 95 44 110 96l143 500c2 7 8 28 8 38c0 43 -29 47 -75 47h-9l5 23h317l-4 -23c-74 1 -95 -44 -110 -96zM882 329c10 35 35 124 35 206c0 90 -40 170 -124 170c-79 0 -135 -74 -167 -134c-17 -32 -45 -94 -70 -178c-30 -103 -36 -164 -36 -206c0 -128 71 -170 125 -170
c44 0 107 27 166 134c31 56 52 115 71 178z" />
    <glyph glyph-name="afii10049" unicode="&#x42f;" horiz-adv-x="798" 
d="M357 350l1 5c-81 13 -161 69 -161 169c0 56 24 124 103 167c57 31 121 36 173 36h353l-5 -23c-74 1 -95 -44 -110 -96l-143 -500c-2 -7 -8 -28 -8 -39c0 -46 38 -46 75 -46h9l-5 -23h-317l4 23c74 -1 95 44 110 96l63 222h-30c-36 0 -85 -8 -130 -50
c-31 -29 -55 -71 -79 -118c-32 -61 -50 -103 -75 -133c-32 -39 -66 -53 -109 -53c-56 0 -98 29 -94 93l3 45h24l-2 -27c-2 -25 6 -42 29 -42c10 0 22 4 35 19c10 12 19 28 40 73c20 44 36 77 58 105c26 32 57 54 97 70c31 13 68 22 91 27zM506 365l97 338h-54
c-80 0 -135 -32 -163 -62c-33 -34 -55 -91 -55 -151c0 -34 8 -78 55 -106c28 -16 60 -19 88 -19h32z" />
    <glyph glyph-name="afii10065" unicode="&#x430;" horiz-adv-x="546" 
d="M258 163c49 84 77 169 77 217c0 52 -36 54 -48 54c-53 0 -88 -61 -114 -112c-44 -87 -75 -185 -75 -229c0 -34 23 -47 43 -47c42 0 81 55 117 117zM387 418l49 36h27l-107 -350c-3 -8 -5 -23 -5 -31c0 -15 5 -19 12 -19c27 0 56 50 82 98l19 -13
c-42 -91 -108 -154 -163 -154c-23 0 -49 12 -49 52c0 12 2 27 18 83l-10 3c-47 -83 -101 -136 -169 -136c-65 0 -105 45 -105 113c0 93 72 196 88 217c84 115 165 137 215 137c14 0 53 -2 98 -36z" />
    <glyph glyph-name="afii10066" unicode="&#x431;" horiz-adv-x="440" 
d="M65 336l5 -2c7 10 26 37 55 62c39 34 83 52 123 52c78 0 122 -70 122 -169c0 -52 -13 -119 -54 -185c-51 -82 -117 -111 -175 -111c-90 0 -146 72 -146 175c0 74 32 187 65 261c45 100 100 155 138 182c49 35 94 44 132 53c70 16 111 23 155 89l13 -7
c-9 -27 -25 -61 -49 -93c-44 -59 -90 -75 -166 -95c-49 -13 -90 -24 -130 -60c-48 -43 -71 -105 -77 -121zM125 8c48 0 77 70 99 126c48 123 60 202 60 236c0 43 -26 53 -43 53c-49 0 -79 -65 -100 -120c-41 -105 -60 -196 -60 -239c0 -38 20 -56 44 -56z" />
    <glyph glyph-name="afii10067" unicode="&#x432;" horiz-adv-x="440" 
d="M219 241l-1 -3c24 -1 51 -9 71 -23c26 -19 36 -46 36 -73c0 -46 -29 -100 -82 -129c-32 -18 -80 -27 -117 -27c-99 0 -133 73 -133 144c0 103 83 216 152 271c44 35 87 53 139 53c16 0 36 -2 52 -9c31 -13 46 -40 46 -67c0 -26 -12 -65 -65 -98c-37 -23 -79 -35 -98 -39z
M88 75c0 -30 5 -42 9 -48s13 -16 30 -16c21 0 48 17 70 55c15 26 30 67 30 101c0 54 -44 55 -58 55s-30 -2 -40 -9c-26 -18 -41 -112 -41 -138zM129 240c38 10 75 28 105 52c33 27 62 69 62 101c0 34 -24 38 -33 38c-31 0 -65 -39 -85 -73c-19 -34 -38 -85 -49 -118z" />
    <glyph glyph-name="afii10068" unicode="&#x433;" horiz-adv-x="343" 
d="M262 136l20 -14c-26 -35 -59 -68 -103 -98c-31 -21 -63 -38 -110 -38c-62 0 -100 39 -100 89c0 58 39 96 89 131c38 26 46 29 71 48c23 17 51 41 51 87c0 43 -29 48 -43 48c-33 0 -78 -38 -104 -74l-18 13c22 30 56 68 90 93c27 20 54 33 87 33c51 0 87 -35 87 -82
c0 -61 -54 -103 -85 -126c-25 -18 -58 -39 -89 -70c-19 -19 -35 -41 -35 -75c0 -17 6 -32 14 -41c9 -10 24 -17 41 -17c44 0 103 47 137 93z" />
    <glyph glyph-name="afii10069" unicode="&#x434;" horiz-adv-x="481" 
d="M187 722l9 21c30 -11 81 -33 118 -64c38 -32 108 -111 108 -271c0 -94 -29 -225 -95 -314c-74 -99 -157 -108 -193 -108c-95 0 -143 62 -143 142c0 61 20 127 60 188c45 69 119 138 212 138c22 0 41 -4 62 -17c4 21 6 40 6 60c0 53 -8 129 -68 181c-20 18 -52 34 -76 44z
M79 60c0 -41 21 -52 41 -52c59 0 110 106 142 185c14 36 52 143 52 191c0 38 -26 46 -42 46c-54 0 -98 -83 -126 -145c-19 -43 -67 -155 -67 -225z" />
    <glyph glyph-name="afii10070" unicode="&#x435;" horiz-adv-x="440" 
d="M306 162l17 -16c-12 -23 -33 -58 -66 -93c-40 -42 -81 -67 -135 -67c-79 0 -129 57 -129 144c0 79 44 148 82 198c60 78 122 126 200 126c70 0 102 -41 102 -81c0 -41 -28 -124 -265 -198c-10 -46 -11 -70 -11 -82c0 -51 30 -61 51 -61c35 0 69 28 88 47
c27 26 50 57 66 83zM118 206c117 37 167 115 167 173c0 31 -16 49 -36 49s-37 -16 -48 -28c-44 -50 -73 -141 -83 -194z" />
    <glyph glyph-name="afii10072" unicode="&#x436;" horiz-adv-x="790" 
d="M462 446l-62 -204h58c34 77 73 121 98 146c52 51 92 66 129 66c44 0 57 -29 57 -50c0 -28 -25 -46 -47 -46s-32 13 -38 24c-5 10 -9 25 -20 25c-14 0 -35 -33 -44 -52c-12 -26 -65 -140 -65 -239c0 -37 7 -54 13 -62c6 -9 15 -18 31 -18c33 0 58 38 70 56
c9 15 18 30 26 44l21 -11c-9 -19 -22 -43 -39 -68c-22 -32 -53 -71 -109 -71c-43 0 -110 25 -110 127c0 34 5 70 18 107h-55l-66 -220h-84l66 220h-55c-29 -82 -76 -138 -107 -168c-53 -51 -92 -66 -128 -66c-45 0 -58 29 -58 50c0 24 18 46 46 46c22 0 32 -10 40 -27
c6 -12 7 -22 18 -22c14 0 30 18 45 49c32 67 65 167 65 243c0 36 -7 52 -13 61s-15 18 -31 18c-33 0 -57 -38 -70 -57c-10 -15 -17 -26 -26 -43l-21 11c6 13 20 39 39 67c23 33 53 72 109 72c36 0 111 -17 111 -133c0 -29 -3 -52 -12 -79h55l61 204h84z" />
    <glyph glyph-name="afii10073" unicode="&#x437;" horiz-adv-x="413" 
d="M98 247h19c46 0 79 21 99 39c27 25 39 53 39 80c0 18 -6 48 -54 48c-26 0 -49 -7 -71 -19c-25 -14 -50 -34 -68 -55l-20 14c20 26 44 48 78 67c35 20 74 33 123 33c17 0 47 -2 70 -16c15 -9 38 -30 38 -69c0 -40 -21 -72 -64 -96c-27 -15 -62 -27 -86 -32v-3
c20 -1 50 -7 72 -21c27 -17 38 -41 38 -73c0 -31 -12 -87 -77 -124c-37 -21 -88 -34 -137 -34c-99 0 -128 58 -128 98c0 35 27 50 48 50c19 0 48 -11 48 -55c0 -11 -2 -27 -2 -34c0 -29 20 -36 38 -36c25 0 56 12 80 58c12 23 23 55 23 82c0 31 -11 73 -72 73h-41z" />
    <glyph glyph-name="afii10074" unicode="&#x438;" horiz-adv-x="579" 
d="M394 446h99l-102 -339c-6 -18 -8 -28 -8 -37c0 -16 9 -22 16 -22c5 0 10 4 14 7c39 33 75 97 85 116l24 -8c-19 -39 -45 -80 -70 -109c-33 -39 -69 -62 -98 -62c-28 0 -58 21 -58 68c0 21 7 65 33 146l-9 2c-25 -46 -60 -99 -93 -138c-46 -54 -89 -78 -124 -78
c-42 0 -71 32 -71 78c0 21 7 51 36 124l60 151c6 14 7 21 7 25c0 11 -8 20 -18 20c-8 0 -15 -6 -20 -10c-11 -9 -31 -31 -69 -94l-22 11c20 36 47 76 69 101c20 23 56 56 105 56c31 0 58 -17 58 -57c0 -22 -6 -44 -17 -71l-70 -182c-17 -44 -19 -59 -19 -69
c0 -20 16 -22 23 -22c40 0 101 96 108 108c55 86 101 191 131 285z" />
    <glyph glyph-name="afii10075" unicode="&#x439;" horiz-adv-x="576" 
d="M385 446h99l-102 -339c-6 -18 -8 -28 -8 -37c0 -16 9 -22 16 -22c5 0 10 4 14 7c39 33 75 97 85 116l24 -8c-19 -39 -45 -80 -70 -109c-33 -39 -69 -62 -98 -62c-28 0 -58 21 -58 68c0 21 7 65 33 146l-9 2c-25 -46 -60 -99 -93 -138c-46 -54 -89 -78 -124 -78
c-42 0 -71 32 -71 78c0 21 7 51 36 124l60 151c6 14 7 21 7 25c0 11 -8 20 -18 20c-8 0 -15 -6 -20 -10c-11 -9 -31 -31 -69 -94l-22 11c20 36 47 76 69 101c20 23 56 56 105 56c31 0 58 -17 58 -57c0 -22 -6 -44 -17 -71l-70 -182c-17 -44 -19 -59 -19 -69
c0 -20 16 -22 23 -22c40 0 101 96 108 108c55 86 101 191 131 285zM501 724l18 -11c-23 -37 -53 -70 -86 -95c-48 -36 -96 -53 -146 -53c-75 0 -103 44 -103 84c0 35 27 75 72 75c35 0 48 -22 48 -41c0 -15 -9 -33 -22 -44c-7 -6 -14 -10 -14 -20c0 -13 15 -23 41 -23
c39 0 86 16 132 58c10 9 35 33 60 70z" />
    <glyph glyph-name="afii10076" unicode="&#x43a;" horiz-adv-x="523" 
d="M178 215l-64 -215h-99l102 339c6 21 8 31 8 39c0 14 -9 20 -16 20c-5 0 -10 -4 -14 -7c-39 -34 -75 -97 -85 -116l-24 8c6 13 32 64 70 109c24 28 59 62 105 62c39 0 61 -30 61 -68c0 -14 -5 -41 -10 -59l-26 -86h23c21 0 48 10 73 55c11 21 18 37 40 81
c16 31 40 77 95 77c42 0 56 -30 56 -51c0 -28 -24 -49 -51 -49c-17 0 -27 7 -34 12c-6 5 -13 12 -21 12c-16 0 -27 -23 -33 -36c-9 -19 -27 -55 -37 -70c-11 -17 -20 -28 -35 -39c61 -18 70 -68 72 -95l5 -58c2 -19 7 -23 17 -23c18 0 44 47 54 66l19 -11
c-5 -10 -26 -50 -41 -71c-20 -28 -53 -55 -84 -55c-18 0 -57 10 -60 90l-2 63c-1 28 -6 76 -44 76h-20z" />
    <glyph glyph-name="afii10077" unicode="&#x43b;" horiz-adv-x="533" 
d="M121 421l8 25h304l-101 -339c-5 -18 -8 -29 -8 -38c0 -16 10 -21 16 -21c5 0 10 4 14 7c39 34 75 97 85 116l24 -8c-6 -13 -32 -64 -70 -109c-24 -29 -59 -62 -104 -62c-41 0 -62 31 -62 68c0 14 5 41 10 59l88 296h-46c-18 0 -30 -4 -42 -18c-15 -18 -25 -48 -49 -113
c-23 -61 -57 -140 -94 -201c-25 -40 -66 -95 -122 -95c-30 0 -56 22 -56 53c0 27 20 54 50 54c13 0 24 -5 33 -12c7 -5 15 -15 28 -15c21 0 45 37 62 66c33 59 58 125 69 155c20 55 25 75 25 90c0 28 -18 42 -36 42h-26z" />
    <glyph glyph-name="afii10078" unicode="&#x43c;" horiz-adv-x="702" 
d="M602 446l-101 -339c-5 -18 -8 -29 -8 -38c0 -16 10 -21 16 -21c5 0 10 4 14 7c39 34 75 97 85 116l24 -8c-6 -13 -32 -64 -70 -109c-24 -29 -59 -62 -104 -62c-41 0 -62 31 -62 68c0 14 5 41 10 59l84 281h-4l-249 -400h-25l20 395h-3c-11 -35 -21 -64 -39 -111
c-36 -95 -63 -154 -91 -201c-25 -42 -63 -95 -116 -95c-32 0 -57 23 -57 53c0 27 20 54 50 54c20 0 30 -10 36 -14c6 -6 15 -13 25 -13c34 0 80 109 99 157c14 37 47 124 47 154c0 28 -19 42 -36 42h-26l8 25h192l-17 -281l177 281h121z" />
    <glyph glyph-name="afii10079" unicode="&#x43d;" horiz-adv-x="570" 
d="M476 171l24 -8c-6 -13 -32 -64 -70 -109c-24 -29 -59 -62 -104 -62c-41 0 -62 31 -62 68c0 14 5 41 10 59l27 92h-124l-63 -211h-99l102 340c3 11 8 25 8 37c0 16 -10 21 -16 21c-5 0 -10 -4 -14 -7c-39 -34 -75 -97 -85 -116l-24 8c6 13 32 64 70 109
c24 28 59 62 105 62c39 0 61 -30 61 -68c0 -14 -5 -41 -10 -59l-26 -85h124l61 204h99l-101 -339c-5 -18 -8 -29 -8 -38c0 -16 10 -21 16 -21c5 0 10 4 14 7c39 34 75 97 85 116z" />
    <glyph glyph-name="afii10080" unicode="&#x43e;" horiz-adv-x="440" 
d="M222 454c90 0 146 -72 146 -174c0 -52 -13 -121 -54 -186c-51 -82 -117 -111 -175 -111c-90 0 -146 72 -146 175c0 48 11 120 54 188c58 92 132 108 175 108zM139 307c-33 -87 -60 -191 -60 -243c0 -38 20 -56 44 -56c47 0 77 70 99 126c41 107 60 199 60 242
s-26 53 -43 53c-49 0 -79 -66 -100 -122z" />
    <glyph glyph-name="afii10081" unicode="&#x43f;" horiz-adv-x="556" 
d="M109 0h-95l98 340c3 10 7 32 7 40c0 12 -8 18 -14 18c-11 0 -42 -18 -96 -123l-23 9c71 147 132 170 161 170c36 0 55 -31 55 -67c0 -38 -18 -98 -32 -146l9 -3c23 45 55 96 89 138c18 22 66 78 118 78c40 0 67 -33 67 -77c0 -19 -6 -51 -34 -124l-58 -151
c-2 -6 -6 -21 -6 -26c0 -10 8 -19 17 -19c23 0 71 80 85 104l21 -11c-18 -36 -43 -74 -66 -101c-25 -30 -57 -56 -102 -56c-50 0 -53 44 -53 60c0 10 2 28 16 67l66 182c5 13 19 57 19 75c0 15 -12 17 -18 17c-34 0 -85 -73 -109 -112c-48 -79 -95 -194 -122 -282z" />
    <glyph glyph-name="afii10082" unicode="&#x440;" horiz-adv-x="495" 
d="M-102 -190l5 23c66 1 79 51 98 118l123 431c-19 -12 -66 -44 -115 -114l-18 13c20 38 62 102 149 157l29 101l106 36l-35 -121c118 3 185 -78 185 -181c0 -79 -32 -145 -68 -194c-51 -68 -105 -93 -150 -93c-33 0 -66 16 -91 39l-30 -105c-10 -33 -10 -42 -10 -48
c0 -25 32 -38 54 -39l-5 -23h-227zM226 406l-99 -343c15 -26 39 -40 62 -40c50 0 80 60 98 111c13 36 29 87 29 156c0 22 0 118 -90 116z" />
    <glyph glyph-name="afii10083" unicode="&#x441;" horiz-adv-x="440" 
d="M304 172l19 -10c-4 -8 -25 -59 -61 -101c-40 -47 -93 -76 -147 -76c-60 0 -121 38 -121 134c0 38 10 111 62 193c41 63 110 142 212 142c73 0 111 -42 111 -83c0 -30 -22 -45 -48 -45c-37 0 -57 31 -57 52c0 8 3 15 3 23c0 12 -5 30 -27 30c-21 0 -52 -13 -84 -72
c-36 -67 -60 -162 -60 -238c0 -33 4 -54 14 -67c11 -15 25 -18 37 -18c46 0 81 37 97 57c19 23 37 51 50 79z" />
    <glyph glyph-name="afii10084" unicode="&#x442;" horiz-adv-x="778" 
d="M109 0h-95l98 340c3 10 6 25 7 32v9c-1 13 -11 17 -15 17c-15 0 -58 -51 -95 -123l-23 9c51 110 114 170 161 170c33 0 55 -28 55 -67c0 -38 -18 -98 -32 -146l9 -3c22 49 53 103 79 138c42 58 81 78 109 78c38 0 62 -32 62 -74c0 -35 -21 -100 -37 -139l9 -3
c23 45 57 98 89 138c50 62 91 78 118 78c39 0 67 -31 67 -77c0 -20 -7 -52 -34 -124l-57 -151c-2 -6 -7 -11 -7 -26c0 -6 3 -18 17 -18c5 0 26 0 85 103l21 -11c-18 -35 -42 -73 -66 -101c-19 -23 -52 -56 -100 -56c-16 0 -55 5 -55 60c0 9 2 28 16 67l67 182
c6 17 19 61 19 75c0 12 -10 17 -19 17c-33 0 -85 -73 -110 -114c-48 -79 -94 -190 -121 -280h-95l93 317c13 43 13 55 13 59c0 17 -15 18 -21 18c-37 0 -87 -94 -97 -113c-5 -9 -66 -122 -115 -281z" />
    <glyph glyph-name="afii10085" unicode="&#x443;" horiz-adv-x="419" 
d="M-25 284l-20 6c5 25 18 72 35 105c24 45 53 59 77 59c64 0 85 -84 95 -139c13 -72 24 -191 28 -268h10c35 41 101 138 101 201c0 27 -11 54 -27 82c-9 15 -24 38 -24 67c0 34 18 57 49 57c16 0 65 -6 65 -89c0 -137 -92 -269 -149 -344c-74 -97 -188 -223 -311 -223
c-51 0 -66 30 -66 53c0 34 30 53 55 53c19 0 36 -13 48 -22c14 -10 27 -22 49 -22c43 0 114 50 114 139c0 34 -12 161 -26 273c-5 40 -7 63 -18 81c-13 22 -34 18 -46 8c-15 -12 -35 -61 -39 -77z" />
    <glyph glyph-name="afii10086" unicode="&#x444;" horiz-adv-x="658" 
d="M276 30l-17 -53c-13 -40 -36 -87 -61 -116c-35 -40 -83 -63 -134 -63c-55 0 -80 33 -80 63c0 22 15 41 43 41c34 0 42 -27 48 -42c6 -14 13 -30 29 -30c8 0 30 6 46 57c10 34 6 31 22 89l15 54c-22 -21 -53 -41 -90 -41c-64 0 -105 54 -105 136c0 68 30 157 71 220
c49 75 109 108 157 108c37 0 60 -20 72 -39l16 50c19 60 34 91 46 111c46 77 118 111 177 111c62 0 97 -39 97 -74c0 -24 -14 -47 -47 -47c-27 0 -43 18 -51 58c-2 12 -6 35 -26 35c-41 0 -63 -56 -76 -98c-7 -24 -13 -48 -28 -102l-12 -44c32 28 59 39 92 39
c64 0 105 -57 105 -130c0 -69 -31 -163 -71 -223c-48 -73 -113 -111 -165 -111c-43 0 -64 27 -73 41zM356 301l-39 -133c-6 -22 -14 -64 -14 -88c0 -53 27 -61 37 -61c25 0 64 24 108 154c15 43 35 114 35 164c0 62 -25 77 -42 77c-33 0 -66 -50 -85 -113zM219 159l29 101
c9 30 16 70 16 97c0 45 -20 60 -36 60c-25 0 -67 -27 -111 -159c-28 -83 -33 -135 -33 -168c0 -59 27 -67 38 -67c34 0 73 53 97 136z" />
    <glyph glyph-name="afii10087" unicode="&#x445;" horiz-adv-x="556" 
d="M0 169l26 -9c-4 -13 -13 -42 -13 -64c0 -41 24 -55 46 -55c15 0 27 7 37 14c31 22 53 55 99 124l4 6l-23 129c-4 23 -13 74 -43 74c-28 0 -43 -45 -58 -82l-8 -19l-22 6c9 28 26 75 44 104c20 34 45 57 86 57c22 0 41 -5 58 -24c9 -10 29 -38 42 -114l2 -12
c3 4 35 60 67 96c18 21 51 54 94 54c36 0 62 -26 62 -66c0 -20 -8 -52 -18 -76l-23 6c2 8 5 30 5 38c0 29 -23 42 -45 42c-33 0 -61 -31 -78 -52c-10 -12 -34 -44 -55 -90l25 -135c5 -27 9 -57 34 -57c6 0 14 2 23 11c19 18 37 60 48 90l21 -9c-8 -29 -21 -63 -43 -98
c-37 -59 -74 -75 -98 -75c-19 0 -34 8 -47 25c-16 21 -27 51 -37 112l-4 24c-20 -30 -52 -75 -77 -102c-20 -22 -59 -58 -99 -58c-38 0 -58 33 -58 85c0 14 1 46 26 100z" />
    <glyph glyph-name="afii10088" unicode="&#x446;" horiz-adv-x="560" 
d="M374 446h99l-102 -339c-6 -18 -8 -28 -8 -37c0 -16 9 -22 16 -22c5 0 10 4 14 7c39 33 75 97 85 116l25 -8c-19 -32 -35 -62 -48 -91c-17 -37 -23 -55 -33 -102c-11 -49 -18 -85 -39 -111c-32 -41 -75 -44 -116 -44h-29v18h9c19 0 35 0 51 20c17 22 9 34 35 81
c18 34 44 52 71 87l-2 3c-16 -17 -43 -32 -68 -32c-30 0 -58 21 -58 68c0 34 19 104 33 146l-9 2c-25 -46 -60 -99 -93 -138c-46 -54 -89 -78 -124 -78c-42 0 -71 32 -71 79c0 22 7 51 36 123l60 151c6 14 7 21 7 25c0 9 -6 20 -18 20c-8 0 -14 -5 -20 -10
c-27 -25 -62 -82 -69 -94l-22 11c20 36 47 76 69 101c20 23 56 56 105 56c31 0 58 -17 58 -57c0 -22 -6 -44 -17 -71l-70 -182c-17 -44 -19 -59 -19 -69c0 -20 16 -22 23 -22c40 0 101 96 108 108c55 86 101 191 131 285z" />
    <glyph glyph-name="afii10089" unicode="&#x447;" horiz-adv-x="520" 
d="M-24 286l-22 11c20 36 47 76 69 101c20 23 56 56 105 56c32 0 58 -17 58 -57c0 -20 -5 -33 -9 -47l-21 -70c-5 -18 -8 -29 -8 -37c0 -24 17 -28 27 -28c24 0 56 35 74 60c21 29 44 73 55 111l18 60h99l-102 -339c-6 -21 -8 -30 -8 -38c0 -16 10 -21 16 -21c5 0 10 4 14 7
c39 34 75 97 85 116l24 -8c-6 -13 -32 -64 -70 -109c-24 -29 -59 -62 -104 -62c-41 0 -62 31 -62 68c0 14 5 41 10 59l41 135c-31 -41 -87 -97 -143 -97c-45 0 -73 32 -73 77c0 11 2 29 12 60l15 47c2 5 7 23 7 29c0 9 -6 20 -18 20c-8 0 -14 -5 -20 -10
c-27 -25 -62 -82 -69 -94z" />
    <glyph glyph-name="afii10090" unicode="&#x448;" horiz-adv-x="778" 
d="M577 440h95l-98 -340c-3 -10 -6 -25 -7 -32v-9c1 -13 11 -17 15 -17c15 0 58 51 95 123l23 -9c-51 -110 -114 -170 -161 -170c-33 0 -55 28 -55 67c0 38 18 98 32 146l-9 3c-22 -49 -53 -103 -79 -138c-42 -58 -81 -78 -109 -78c-38 0 -62 32 -62 74c0 35 21 100 37 139
l-9 3c-23 -45 -57 -98 -89 -138c-50 -62 -91 -78 -118 -78c-39 0 -67 31 -67 77c0 20 7 52 34 124l57 151c2 6 7 11 7 26c0 6 -3 18 -17 18c-5 0 -26 0 -85 -103l-21 11c18 35 42 73 66 101c19 23 52 56 100 56c16 0 55 -5 55 -60c0 -9 -2 -28 -16 -67l-67 -182
c-6 -17 -19 -61 -19 -75c0 -12 10 -17 19 -17c33 0 85 73 110 114c48 79 94 190 121 280h95l-93 -317c-13 -43 -13 -55 -13 -59c0 -17 15 -18 21 -18c37 0 87 94 97 113c5 9 66 122 115 281z" />
    <glyph glyph-name="afii10091" unicode="&#x449;" horiz-adv-x="779" 
d="M577 446h95l-102 -339c-6 -18 -8 -28 -8 -37c0 -16 9 -22 16 -22c5 0 10 4 14 7c39 33 75 97 85 116l24 -8c-19 -32 -35 -62 -48 -91c-17 -37 -23 -55 -33 -102c-11 -49 -18 -85 -39 -111c-32 -41 -75 -44 -116 -44h-29v18h9c19 0 35 0 51 20c17 22 9 33 35 81
c17 32 43 52 72 87l-2 3c-16 -17 -44 -32 -62 -32c-26 0 -55 21 -55 68c0 10 1 42 32 145l-9 3c-22 -49 -53 -103 -79 -138c-42 -58 -81 -78 -109 -78c-38 0 -62 32 -62 74c0 35 21 100 37 139l-9 3c-23 -45 -57 -98 -89 -138c-50 -62 -91 -78 -118 -78c-39 0 -67 31 -67 77
c0 20 7 52 34 124l57 151c2 6 7 11 7 26c0 6 -3 18 -17 18c-5 0 -26 0 -85 -103l-21 11c18 35 42 73 66 101c19 23 52 56 100 56c16 0 55 -5 55 -60c0 -9 -2 -28 -16 -67l-67 -182c-6 -17 -19 -61 -19 -75c0 -12 10 -17 19 -17c33 0 85 73 110 114c48 79 94 190 121 280h95
l-93 -317c-13 -43 -13 -55 -13 -59c0 -17 15 -18 21 -18c37 0 87 94 97 113c5 9 66 122 115 281z" />
    <glyph glyph-name="afii10092" unicode="&#x44a;" horiz-adv-x="462" 
d="M332 446v-17c-22 -22 -48 -50 -67 -73c-26 -31 -51 -69 -74 -111c22 16 61 38 102 38c46 0 96 -25 96 -92c0 -53 -29 -110 -74 -150c-55 -49 -116 -55 -147 -55c-71 0 -120 41 -120 113c0 51 19 114 87 182c26 26 85 76 108 96l-2 2c-23 -8 -54 -14 -79 -14
c-41 0 -71 18 -88 27c-7 4 -13 7 -18 7c-8 0 -18 -6 -18 -19c0 -12 9 -17 15 -23c14 -13 19 -21 19 -32c0 -18 -13 -36 -37 -36c-21 0 -43 16 -43 52c0 28 11 56 34 78c21 19 56 35 90 35c24 0 48 -7 63 -10c30 -7 48 -10 71 -10c14 0 39 1 82 12zM136 56
c0 -17 5 -45 39 -45c24 0 55 19 86 82c13 26 32 75 32 106c0 23 -9 43 -39 43c-24 0 -57 -16 -87 -79c-30 -62 -31 -94 -31 -107z" />
    <glyph glyph-name="afii10093" unicode="&#x44b;" horiz-adv-x="700" 
d="M8 286l-22 11c20 36 47 76 69 101c20 23 56 56 105 56c37 0 58 -22 58 -59c0 -25 -9 -48 -17 -69l-30 -81c33 26 74 38 102 38c46 0 96 -25 96 -92c0 -91 -87 -205 -222 -205c-81 0 -119 45 -119 107c0 14 2 49 25 109l55 143c4 11 7 18 7 25c0 12 -9 20 -18 20
c-8 0 -15 -6 -20 -10c-11 -9 -31 -31 -69 -94zM116 54c0 -35 22 -43 40 -43c28 0 58 28 85 82c13 26 32 75 32 106c0 23 -9 43 -39 43c-29 0 -62 -25 -87 -79c-8 -16 -31 -74 -31 -109zM606 165l24 -8c-6 -13 -32 -64 -70 -109c-24 -29 -59 -62 -104 -62
c-41 0 -62 31 -62 68c0 14 5 41 10 59l100 333h99l-104 -345c-6 -21 -8 -30 -8 -38c0 -16 10 -21 16 -21c5 0 10 4 14 7c39 34 75 97 85 116z" />
    <glyph glyph-name="afii10094" unicode="&#x44c;" horiz-adv-x="436" 
d="M7 286l-22 11c20 36 47 76 69 101c20 23 56 56 105 56c37 0 58 -22 58 -59c0 -25 -9 -48 -17 -69l-30 -81c33 26 74 38 102 38c46 0 96 -25 96 -92c0 -91 -87 -205 -222 -205c-81 0 -119 45 -119 107c0 14 2 49 25 109l55 143c4 11 7 18 7 25c0 12 -9 20 -18 20
c-8 0 -15 -6 -20 -10c-11 -9 -31 -31 -69 -94zM115 54c0 -35 22 -43 40 -43c28 0 58 28 85 82c13 26 32 75 32 106c0 23 -9 43 -39 43c-29 0 -62 -25 -87 -79c-8 -16 -31 -74 -31 -109z" />
    <glyph glyph-name="afii10095" unicode="&#x44d;" horiz-adv-x="423" 
d="M65 319l-20 11c28 42 57 68 64 74c30 26 70 50 121 50c60 0 121 -38 121 -134c0 -41 -10 -109 -62 -193c-42 -67 -106 -141 -199 -141c-84 0 -121 54 -121 98c0 35 27 50 48 50c19 0 48 -11 48 -55c0 -7 0 -13 -1 -20c0 -5 -1 -11 -1 -16c0 -32 29 -34 40 -34
c22 0 48 10 78 71c18 37 36 88 46 136h-158l8 25h155c5 26 7 48 7 77c0 22 -1 50 -15 67c-7 8 -19 18 -39 18c-42 0 -88 -44 -120 -84z" />
    <glyph glyph-name="afii10096" unicode="&#x44e;" horiz-adv-x="668" 
d="M186 239h65c8 35 23 73 44 107c36 58 93 108 170 108c130 0 131 -146 131 -171c0 -90 -32 -155 -53 -189c-36 -58 -97 -108 -166 -108c-92 0 -151 88 -132 222h-68l-63 -208h-99l102 340c3 11 8 25 8 37c0 16 -10 21 -16 21c-5 0 -10 -4 -14 -7c-39 -34 -75 -97 -85 -116
l-24 8c6 13 32 64 70 109c24 28 59 62 105 62c39 0 61 -30 61 -68c0 -14 -5 -41 -10 -59zM385 307c-25 -66 -59 -183 -59 -242c0 -34 16 -54 36 -54c40 0 70 66 91 123c21 56 58 179 58 245c0 45 -24 50 -34 50c-46 0 -76 -78 -92 -122z" />
    <glyph glyph-name="afii10097" unicode="&#x44f;" horiz-adv-x="544" 
d="M2 130l-4 -17c-4 -15 -8 -43 16 -43c20 0 38 27 47 42c16 26 34 53 57 70c28 21 61 26 69 27l1 6c-41 1 -68 20 -73 24c-26 20 -35 46 -35 74c0 35 17 67 43 90c44 39 99 43 130 43h206c-13 -27 -23 -50 -33 -75c-21 -54 -28 -84 -38 -117l-45 -148c-5 -15 -8 -26 -8 -37
c0 -16 10 -21 16 -21c5 0 10 4 14 7c39 34 75 97 85 116l24 -8c-6 -13 -32 -64 -70 -109c-24 -29 -59 -62 -104 -62c-41 0 -62 31 -62 68c0 14 5 41 10 59l23 76h-13c-30 0 -53 -28 -68 -49c-21 -31 -41 -68 -56 -92c-25 -38 -51 -63 -98 -63c-43 0 -72 25 -72 72
c0 15 4 34 8 46l6 21h24zM282 226l57 192c-4 0 -24 2 -36 2c-92 0 -122 -78 -122 -126c0 -40 28 -68 70 -68h31z" />
    <glyph glyph-name="afii10071" unicode="&#x451;" horiz-adv-x="439" 
d="M306 162l17 -16c-12 -23 -33 -58 -66 -93c-40 -42 -81 -67 -135 -67c-79 0 -129 57 -129 144c0 79 44 148 82 198c60 78 122 126 200 126c70 0 102 -41 102 -81c0 -41 -28 -124 -265 -198c-10 -46 -11 -70 -11 -82c0 -51 30 -61 51 -61c35 0 69 28 88 47
c27 26 50 57 66 83zM118 206c117 37 167 115 167 173c0 31 -16 49 -36 49s-37 -16 -48 -28c-44 -50 -73 -141 -83 -194zM223 581c0 -26 -18 -49 -48 -49c-32 0 -48 28 -48 49c0 25 23 48 48 48c27 0 48 -22 48 -48zM406 581c0 -26 -18 -49 -48 -49c-32 0 -48 28 -48 49
c0 25 23 48 48 48c27 0 48 -22 48 -48z" />
    <glyph glyph-name="afii10099" unicode="&#x452;" horiz-adv-x="532" 
d="M-19 0l160 538h-102l14 43h101l8 26c5 16 14 49 14 60c0 22 -16 39 -47 39h-6l4 23l171 7l-48 -155h163l-14 -43h-163l-87 -279l10 -3c20 36 52 87 86 127c24 28 68 71 125 71c31 0 77 -15 77 -77c0 -25 -6 -44 -15 -68l-117 -327c-31 -87 -76 -184 -191 -184
c-57 0 -83 30 -83 57c0 25 18 43 44 43c17 0 33 -8 41 -20c4 -6 9 -21 10 -24c2 -7 6 -24 20 -24c28 0 50 88 61 122l117 350c16 48 17 63 17 72c0 19 -15 27 -27 27c-36 0 -88 -61 -129 -132c-47 -81 -93 -192 -119 -269h-95z" />
    <glyph glyph-name="afii10100" unicode="&#x453;" horiz-adv-x="343" 
d="M262 136l20 -14c-26 -35 -59 -68 -103 -98c-31 -21 -63 -38 -110 -38c-62 0 -100 39 -100 89c0 58 39 96 89 131c38 26 46 29 71 48c23 17 51 41 51 87c0 43 -29 48 -43 48c-33 0 -78 -38 -104 -74l-18 13c22 30 56 68 90 93c27 20 54 33 87 33c51 0 87 -35 87 -82
c0 -61 -54 -103 -85 -126c-25 -18 -58 -39 -89 -70c-19 -19 -35 -41 -35 -75c0 -17 6 -32 14 -41c9 -10 24 -17 41 -17c44 0 103 47 137 93zM216 508h-35l146 153c16 17 31 21 39 21c19 0 34 -16 34 -34c0 -15 -11 -26 -34 -41z" />
    <glyph glyph-name="afii10101" unicode="&#x454;" horiz-adv-x="440" 
d="M304 172l19 -10c-54 -128 -138 -177 -208 -177c-60 0 -121 38 -121 134c0 38 10 111 62 193c41 63 110 142 212 142c73 0 111 -42 111 -83c0 -30 -22 -45 -48 -45c-37 0 -57 31 -57 52c0 8 3 15 3 23c0 12 -5 30 -27 30c-21 0 -52 -13 -84 -72c-19 -35 -34 -78 -43 -116
h152l-5 -25h-152c-7 -27 -12 -57 -12 -97c0 -66 21 -85 53 -85c59 0 113 67 145 136z" />
    <glyph glyph-name="afii10102" unicode="&#x455;" horiz-adv-x="389" 
d="M66 88l11 -25c8 -18 16 -50 58 -50c34 0 60 25 60 65c0 44 -34 83 -74 125c-34 36 -75 75 -75 133s42 118 143 118c93 0 139 -41 139 -80c0 -24 -16 -47 -44 -47c-31 0 -51 21 -51 50v7c0 34 -24 47 -50 47c-28 0 -50 -17 -50 -49c0 -42 36 -72 72 -106l20 -19
c44 -42 61 -92 61 -129c0 -72 -57 -142 -176 -142c-104 0 -155 48 -155 92c0 28 21 48 51 48c24 0 50 -15 60 -38z" />
    <glyph glyph-name="afii10103" unicode="&#x456;" horiz-adv-x="333" 
d="M281 621c0 -33 -27 -60 -59 -60c-33 0 -60 27 -60 60s27 60 60 60c32 0 59 -27 59 -60zM215 326l-83 -224c-2 -6 -7 -17 -7 -28c0 -6 6 -17 18 -17c6 0 25 2 84 104l21 -11c-17 -32 -43 -73 -67 -102c-18 -22 -51 -55 -99 -55c-10 0 -55 2 -55 58c0 11 2 32 16 69l84 225
c2 4 6 19 6 26c0 6 -4 19 -17 19c-4 0 -26 -2 -85 -104l-21 11c16 32 39 70 66 101c21 25 53 56 96 56c56 0 59 -43 59 -64c0 -14 -2 -25 -16 -64z" />
    <glyph glyph-name="afii10104" unicode="&#x457;" horiz-adv-x="339" 
d="M215 326l-83 -224c-2 -6 -7 -17 -7 -28c0 -6 6 -17 18 -17c6 0 25 2 84 104l21 -11c-17 -32 -43 -73 -67 -102c-18 -22 -51 -55 -99 -55c-10 0 -55 2 -55 58c0 11 2 32 16 69l84 225c2 4 6 19 6 26c0 6 -4 19 -17 19c-4 0 -26 -2 -85 -104l-21 11c16 32 39 70 66 101
c21 25 53 56 96 56c56 0 59 -43 59 -64c0 -14 -2 -25 -16 -64zM323 621c0 -27 -20 -54 -53 -54c-34 0 -53 32 -53 54c0 26 27 53 53 53c29 0 53 -25 53 -53zM140 621c0 -27 -20 -54 -53 -54c-34 0 -53 32 -53 54c0 26 27 53 53 53c29 0 53 -25 53 -53z" />
    <glyph glyph-name="afii10105" unicode="&#x458;" horiz-adv-x="301" 
d="M199 359l-74 -296c-29 -115 -77 -265 -215 -265c-57 0 -83 30 -83 57c0 25 18 43 44 43c17 0 33 -8 41 -20c4 -6 9 -21 10 -24c2 -7 6 -24 20 -24c29 0 50 90 58 122l103 392c1 3 5 20 5 26c0 11 -9 19 -17 19c-22 0 -69 -81 -83 -106l-21 11c23 49 83 160 164 160
c44 0 55 -34 55 -57c0 -14 -4 -25 -7 -38zM240 621c0 -33 -27 -60 -60 -60s-60 27 -60 60s27 60 60 60s60 -27 60 -60z" />
    <glyph glyph-name="afii10106" unicode="&#x459;" horiz-adv-x="627" 
d="M433 446l-72 -201c33 26 74 38 102 38c46 0 96 -25 96 -92c0 -53 -29 -110 -74 -150c-48 -43 -104 -55 -147 -55c-63 0 -115 33 -115 107c0 31 8 57 17 83l85 239h-46c-18 0 -30 -4 -42 -18c-15 -18 -25 -48 -49 -113c-23 -61 -57 -140 -94 -201
c-25 -40 -66 -95 -122 -95c-30 0 -56 22 -56 53c0 27 20 54 50 54c13 0 24 -5 33 -12c7 -5 15 -15 28 -15c21 0 45 37 62 66c33 59 58 125 69 155c20 55 25 75 25 90c0 28 -18 42 -36 42h-26l8 25h304zM306 54c0 -35 22 -43 40 -43c28 0 58 28 85 82c13 26 32 75 32 106
c0 23 -9 43 -39 43c-29 0 -62 -25 -87 -79c-8 -16 -31 -74 -31 -109z" />
    <glyph glyph-name="afii10107" unicode="&#x45a;" horiz-adv-x="685" 
d="M186 242h124l61 204h99l-58 -204c29 21 70 41 109 41c46 0 96 -25 96 -92c0 -91 -86 -205 -222 -205c-81 0 -119 45 -119 107c0 29 8 57 18 93l7 25h-124l-63 -211h-99l102 340c3 11 8 25 8 37c0 16 -10 21 -16 21c-5 0 -10 -4 -14 -7c-39 -34 -75 -97 -85 -116l-24 8
c6 13 32 64 70 109c24 28 59 62 105 62c39 0 61 -30 61 -68c0 -14 -5 -41 -10 -59zM364 54c0 -35 22 -43 40 -43c28 0 58 28 85 82c13 26 32 75 32 106c0 23 -9 43 -39 43c-29 0 -62 -25 -87 -79c-8 -16 -31 -74 -31 -109z" />
    <glyph glyph-name="afii10108" unicode="&#x45b;" horiz-adv-x="556" 
d="M-19 0l160 538h-102l14 43h101l8 26c5 16 14 49 14 60c0 22 -16 39 -47 39h-6l4 23l171 7l-48 -155h163l-14 -43h-163l-87 -279l10 -3c20 36 52 87 86 127c24 28 68 71 125 71c42 0 77 -25 77 -73c0 -43 -23 -96 -33 -122l-59 -157c-1 -3 -6 -19 -6 -22v-4
c1 -6 4 -19 17 -19c23 0 69 78 84 104l21 -11c-17 -32 -42 -73 -66 -101c-22 -26 -52 -56 -96 -56c-59 0 -59 50 -59 63c0 19 10 48 16 64l67 182c18 50 18 68 18 72c0 19 -15 27 -27 27c-36 0 -88 -61 -129 -132c-47 -81 -93 -192 -119 -269h-95z" />
    <glyph glyph-name="afii10109" unicode="&#x45c;" horiz-adv-x="523" 
d="M178 215l-64 -215h-99l102 339c6 21 8 31 8 39c0 14 -9 20 -16 20c-5 0 -10 -4 -14 -7c-39 -34 -75 -97 -85 -116l-24 8c6 13 32 64 70 109c24 28 59 62 105 62c39 0 61 -30 61 -68c0 -14 -5 -41 -10 -59l-26 -86h23c21 0 48 10 73 55c11 21 18 37 40 81
c16 31 40 77 95 77c42 0 56 -30 56 -51c0 -28 -24 -49 -51 -49c-17 0 -27 7 -34 12c-6 5 -13 12 -21 12c-16 0 -27 -23 -33 -36c-9 -19 -27 -55 -37 -70c-11 -17 -20 -28 -35 -39c61 -18 70 -68 72 -95l5 -58c2 -19 7 -23 17 -23c18 0 44 47 54 66l19 -11
c-5 -10 -26 -50 -41 -71c-20 -28 -53 -55 -84 -55c-18 0 -57 10 -60 90l-2 63c-1 28 -6 76 -44 76h-20zM301 508h-35l146 153c16 17 31 21 39 21c19 0 34 -16 34 -34c0 -15 -11 -26 -34 -41z" />
    <glyph glyph-name="afii10110" unicode="&#x45e;" horiz-adv-x="419" 
d="M-25 284l-20 6c5 25 18 72 35 105c24 45 53 59 77 59c64 0 85 -84 95 -139c13 -72 24 -191 28 -268h10c35 41 101 138 101 201c0 27 -11 54 -27 82c-9 15 -24 38 -24 67c0 34 18 57 49 57c16 0 65 -6 65 -89c0 -137 -92 -269 -149 -344c-74 -97 -188 -223 -311 -223
c-51 0 -66 30 -66 53c0 34 30 53 55 53c19 0 36 -13 48 -22c14 -10 27 -22 49 -22c43 0 114 50 114 139c0 34 -12 161 -26 273c-5 40 -7 63 -18 81c-13 22 -34 18 -46 8c-15 -12 -35 -61 -39 -77zM439 724l18 -11c-23 -37 -53 -70 -86 -95c-48 -36 -96 -53 -146 -53
c-75 0 -103 44 -103 84c0 35 27 75 72 75c35 0 48 -22 48 -41c0 -15 -9 -33 -22 -44c-7 -6 -14 -10 -14 -20c0 -13 15 -23 41 -23c39 0 86 16 132 58c10 9 35 33 60 70z" />
    <glyph glyph-name="afii10193" unicode="&#x45f;" horiz-adv-x="570" 
d="M385 446h99l-102 -339c-6 -18 -8 -28 -8 -37c0 -16 9 -22 16 -22c5 0 10 4 14 7c39 33 75 97 85 116l24 -8c-19 -39 -45 -80 -70 -109c-33 -39 -69 -62 -98 -62c-28 0 -58 21 -58 68c0 21 7 65 33 146l-9 2c-25 -46 -60 -99 -93 -138c-46 -54 -89 -78 -124 -78
c-42 0 -71 32 -71 78c0 21 7 51 36 124l60 151c6 14 7 21 7 25c0 11 -8 20 -18 20c-8 0 -15 -6 -20 -10c-11 -9 -31 -31 -69 -94l-22 11c20 36 47 76 69 101c20 23 56 56 105 56c31 0 58 -17 58 -57c0 -22 -6 -44 -17 -71l-70 -182c-17 -44 -19 -59 -19 -69
c0 -20 16 -22 23 -22c40 0 101 96 108 108c55 86 101 191 131 285zM241 34l11 -18l-14 -12c-15 -13 -33 -29 -20 -86l4 -18c20 -88 -32 -121 -59 -137l-31 -19l-14 17l16 12c7 5 29 22 21 86l-3 23c-6 42 0 70 17 93c15 20 32 30 50 43z" />
    <glyph glyph-name="afii10146" unicode="&#x462;" horiz-adv-x="780" 
d="M559 736l-4 -23c-84 1 -97 -57 -110 -96l-1 -3h270l-49 -193h-21c4 150 -74 169 -126 169h-81l-56 -191c10 1 26 2 38 2c7 0 113 2 187 -49c26 -18 77 -64 77 -148c0 -51 -21 -124 -111 -170c-63 -32 -124 -34 -188 -34h-332l5 23c74 -1 95 44 110 96l135 472h-22
c-103 0 -178 -90 -214 -170h-24l44 193h223l4 14c2 7 8 28 8 38c0 43 -29 47 -75 47h-9l5 23h317zM374 373l-79 -276c-5 -19 -8 -28 -8 -36c0 -30 32 -36 59 -36c68 0 110 32 128 50c47 47 65 129 65 176c0 98 -70 125 -125 125c-9 0 -19 -1 -40 -3z" />
    <glyph glyph-name="afii10194" unicode="&#x463;" horiz-adv-x="684" 
d="M109 0h-95l98 340c3 10 7 32 7 40c0 12 -8 18 -14 18c-11 0 -42 -18 -96 -123l-23 9c71 146 132 170 163 170c38 0 53 -36 53 -67c0 -38 -18 -98 -32 -146l9 -3c23 46 55 96 89 138c27 34 71 78 123 78c48 0 67 -42 67 -75c0 -14 -3 -28 -8 -41l-32 -93
c33 26 74 38 102 38c46 0 96 -25 96 -92c0 -91 -87 -205 -222 -205c-81 0 -119 45 -119 107c0 28 7 61 25 109l37 100c8 22 21 53 21 74c0 16 -13 18 -18 18c-34 0 -85 -73 -109 -112c-48 -79 -95 -194 -122 -282zM363 54c0 -35 22 -43 40 -43c24 0 53 19 85 82
c9 18 32 69 32 106c0 23 -9 43 -39 43c-29 0 -62 -25 -87 -79c-8 -16 -31 -74 -31 -109z" />
    <glyph glyph-name="afii10147" unicode="&#x472;" horiz-adv-x="773" 
d="M157 593c98 121 218 145 288 145c167 0 278 -126 278 -313c0 -129 -56 -240 -118 -310c-52 -59 -148 -131 -275 -131c-168 0 -280 124 -280 315c0 140 64 240 107 294zM213 401h368c9 49 16 91 16 134c0 121 -65 175 -137 175c-57 0 -125 -38 -179 -139
c-23 -42 -49 -108 -68 -170zM573 369h-369c-13 -46 -29 -119 -29 -182c0 -121 65 -175 137 -175c94 0 152 90 179 139c38 68 64 149 82 218z" />
    <glyph glyph-name="afii10195" unicode="&#x473;" horiz-adv-x="440" 
d="M222 454c90 0 146 -72 146 -174c0 -52 -13 -121 -54 -186c-51 -82 -117 -111 -175 -111c-90 0 -146 72 -146 175c0 48 11 120 54 188c58 92 132 108 175 108zM139 307l-23 -65h142c7 25 24 92 24 134c0 43 -26 53 -43 53c-28 0 -65 -24 -100 -122zM249 211h-142
c-14 -41 -28 -114 -28 -147c0 -38 20 -56 44 -56c34 0 69 40 99 126z" />
    <glyph glyph-name="afii10148" unicode="&#x474;" horiz-adv-x="786" 
d="M394 704h-12c-67 0 -91 -2 -95 -102l-19 -457l354 449c71 90 122 144 198 144c58 0 84 -36 84 -71c0 -46 -39 -82 -83 -82c-63 0 -19 43 -96 43c-30 0 -61 -36 -70 -47l-472 -595h-45l22 636c2 49 -14 87 -99 82l4 23h334z" />
    </font>
</defs>
</svg>
