<?xml version="1.0" standalone="no"?>
<!DOCTYPE svg PUBLIC "-//W3C//DTD SVG 1.1//EN" "http://www.w3.org/Graphics/SVG/1.1/DTD/svg11.dtd" >
<svg xmlns="http://www.w3.org/2000/svg" xmlns:xlink="http://www.w3.org/1999/xlink" version="1.1">
<metadata>
Created by FontForge 20160407 at Fri Oct 28 14:51:47 2016
 By Jimmy Warting
Copyright (C) 2001, 2008 Hoefler &#38; Frere-Jones. http://www.typography.com
</metadata>
<defs>
<font id="GothamXNarrow-Bold" horiz-adv-x="300" >
  <font-face 
    font-family="Gotham XNarrow Bold"
    font-weight="400"
    font-stretch="condensed"
    units-per-em="1000"
    panose-1="0 0 0 0 0 0 0 0 0 0"
    ascent="800"
    descent="-200"
    x-height="536"
    cap-height="700"
    bbox="-173 -249 949 967"
    underline-thickness="50"
    underline-position="-100"
    stemh="124"
    stemv="130"
    unicode-range="U+0020-FB04"
  />
<missing-glyph horiz-adv-x="500" 
d="M0 -200v1000h500v-1000h-500zM71 750l179 -390l179 390h-358zM50 -76l172 376l-172 376v-752zM450 676l-172 -376l172 -376v752zM250 240l-179 -390h358z" />
    <glyph glyph-name="f_f" unicode="ff" horiz-adv-x="566" 
d="M63 0v428h-44v106h44v37c0 50 12 86 36 110c25 24 62 37 110 37c29 0 48 -3 66 -8v-108c-11 3 -20 5 -33 5c-31 0 -50 -17 -50 -52v-21h81v-106h-80v-428h-130zM346 0v428h-42v106h42v37c0 50 12 86 37 110c24 24 61 37 109 37c30 0 49 -3 66 -8v-108c-11 3 -19 5 -33 5
c-31 0 -50 -17 -50 -52v-21h83v-106h-82v-428h-130z" />
    <glyph glyph-name="fi" unicode="fi" horiz-adv-x="512" 
d="M63 0v428h-44v106h44v37c0 50 12 86 36 110c25 24 62 37 110 37c29 0 48 -3 66 -8v-108c-11 3 -20 5 -33 5c-31 0 -50 -17 -50 -52v-21h83v-106h-82v-428h-130zM334 0v536h130v-536h-130zM332 590v124h134v-124h-134z" />
    <glyph glyph-name="fl" unicode="fl" horiz-adv-x="512" 
d="M63 0v428h-44v106h44v37c0 50 12 86 36 110c25 24 62 37 110 37c29 0 48 -3 66 -8v-108c-11 3 -20 5 -33 5c-31 0 -50 -17 -50 -52v-21h83v-106h-82v-428h-130zM334 0v714h130v-714h-130z" />
    <glyph glyph-name="f_f_i" unicode="ffi" horiz-adv-x="793" 
d="M63 0v428h-44v106h44v37c0 50 12 86 36 110c25 24 62 37 110 37c29 0 48 -3 66 -8v-108c-11 3 -20 5 -33 5c-31 0 -50 -17 -50 -52v-21h81v-106h-80v-428h-130zM346 0v428h-42v106h42v37c0 50 12 86 37 110c24 24 61 37 109 37c30 0 49 -3 66 -8v-108c-11 3 -19 5 -33 5
c-31 0 -50 -17 -50 -52v-21h83v-106h-82v-428h-130zM615 0v536h130v-536h-130zM613 590v124h134v-124h-134z" />
    <glyph glyph-name="f_f_l" unicode="ffl" horiz-adv-x="793" 
d="M63 0v428h-44v106h44v37c0 50 12 86 36 110c25 24 62 37 110 37c29 0 48 -3 66 -8v-108c-11 3 -20 5 -33 5c-31 0 -50 -17 -50 -52v-21h81v-106h-80v-428h-130zM346 0v428h-42v106h42v37c0 50 12 86 37 110c24 24 61 37 109 37c30 0 49 -3 66 -8v-108c-11 3 -19 5 -33 5
c-31 0 -50 -17 -50 -52v-21h83v-106h-82v-428h-130zM615 0v714h130v-714h-130z" />
    <glyph glyph-name=".notdef" horiz-adv-x="500" 
d="M0 -200v1000h500v-1000h-500zM71 750l179 -390l179 390h-358zM50 -76l172 376l-172 376v-752zM450 676l-172 -376l172 -376v752zM250 240l-179 -390h358z" />
    <glyph glyph-name="A" unicode="A" horiz-adv-x="543" 
d="M10 0l194 703h135l195 -703h-137l-38 146h-180l-37 -146h-132zM211 265h116l-57 230z" />
    <glyph glyph-name="B" unicode="B" horiz-adv-x="515" 
d="M54 0v700h187c75 0 142 -19 182 -60c31 -31 47 -69 47 -119v-4c0 -86 -48 -130 -98 -155c67 -28 118 -71 118 -162v-7c0 -125 -99 -193 -243 -193h-193zM338 495v1c0 55 -36 83 -94 83h-58v-169h54c60 0 98 31 98 85zM357 209c0 53 -39 87 -103 87h-68v-175h70
c60 0 101 32 101 87v1z" />
    <glyph glyph-name="C" unicode="C" horiz-adv-x="485" 
d="M290 -8c-156 0 -255 122 -255 350v16c0 228 112 350 263 350c73 0 125 -27 167 -68l-76 -107c-26 26 -56 47 -92 47c-69 0 -125 -77 -125 -227v-5c0 -160 60 -228 123 -228c40 0 68 20 100 52l71 -104c-52 -50 -109 -76 -176 -76z" />
    <glyph glyph-name="D" unicode="D" horiz-adv-x="553" 
d="M54 0v700h173c183 0 292 -127 292 -342v-16c0 -214 -109 -342 -292 -342h-173zM225 578h-37v-456h37c93 0 156 67 156 223v10c0 156 -63 223 -156 223z" />
    <glyph glyph-name="E" unicode="E" horiz-adv-x="456" 
d="M54 0v700h364v-124h-231v-162h204v-124h-204v-166h235v-124h-368z" />
    <glyph glyph-name="F" unicode="F" horiz-adv-x="438" 
d="M54 0v700h358v-125h-224v-166h196v-125h-196v-284h-134z" />
    <glyph glyph-name="G" unicode="G" horiz-adv-x="545" 
d="M311 -8c-155 0 -276 117 -276 350v16c0 216 118 350 283 350c66 0 124 -21 178 -66l-74 -110c-19 22 -51 49 -103 49c-86 0 -147 -83 -147 -223v-14c0 -162 69 -229 148 -229c23 0 45 6 57 14v152h-95v118h220v-347c-54 -34 -114 -60 -191 -60z" />
    <glyph glyph-name="H" unicode="H" horiz-adv-x="547" 
d="M54 0v700h134v-285h171v285h134v-700h-134v289h-171v-289h-134z" />
    <glyph glyph-name="I" unicode="I" horiz-adv-x="249" 
d="M58 0v700h133v-700h-133z" />
    <glyph glyph-name="J" unicode="J" horiz-adv-x="394" 
d="M154 -8c-61 0 -117 28 -150 71l77 96c16 -21 36 -39 66 -39c39 0 65 26 65 88v492h133v-499c0 -71 -18 -123 -54 -158c-33 -33 -80 -51 -137 -51z" />
    <glyph glyph-name="K" unicode="K" horiz-adv-x="524" 
d="M54 0v700h134v-298l167 298h156l-180 -296l186 -404h-154l-128 277l-47 -79v-198h-134z" />
    <glyph glyph-name="L" unicode="L" horiz-adv-x="418" 
d="M54 0v700h134v-575h210v-125h-344z" />
    <glyph glyph-name="M" unicode="M" horiz-adv-x="627" 
d="M54 0v700h137l123 -271l122 271h138v-700h-131v436l-129 -278h-2l-129 276v-434h-129z" />
    <glyph glyph-name="N" unicode="N" horiz-adv-x="562" 
d="M54 0v700h124l199 -382v382h131v-700h-116l-207 398v-398h-131z" />
    <glyph glyph-name="O" unicode="O" horiz-adv-x="579" 
d="M289 -11c-151 0 -254 129 -254 349v23c0 221 104 350 255 350s254 -129 254 -349v-23c0 -220 -104 -350 -255 -350zM290 112c67 0 117 73 117 231v13c0 158 -51 232 -118 232s-117 -73 -117 -231v-13c0 -158 51 -232 118 -232z" />
    <glyph glyph-name="P" unicode="P" horiz-adv-x="490" 
d="M54 0v700h174c146 0 242 -82 242 -238v-2c0 -160 -102 -238 -238 -244h-44v-216h-134zM188 338h35c74 0 112 48 112 119c0 77 -35 120 -111 120h-36v-239z" />
    <glyph glyph-name="Q" unicode="Q" horiz-adv-x="584" 
d="M564 63l-75 -81l-59 57c-40 -33 -87 -50 -139 -50c-153 0 -256 129 -256 349v23c0 221 104 350 255 350s254 -129 254 -349v-23c0 -86 -18 -159 -48 -216zM296 111c17 0 32 4 46 12l-78 73l72 81l60 -59c7 32 11 72 11 122v19c0 158 -51 229 -118 229s-117 -70 -117 -228
v-19c0 -168 51 -230 124 -230z" />
    <glyph glyph-name="Q.alt" horiz-adv-x="579" 
d="M421 -88l-68 86c-20 -6 -42 -9 -64 -9c-151 0 -254 129 -254 349v23c0 221 104 350 255 350s254 -129 254 -349v-23c0 -115 -28 -206 -77 -266l120 -160v-1h-166zM290 112c67 0 117 73 117 231v13c0 158 -51 232 -118 232s-117 -73 -117 -231v-13
c0 -158 51 -232 118 -232z" />
    <glyph glyph-name="R" unicode="R" horiz-adv-x="518" 
d="M54 0v700h198c73 0 134 -21 175 -62c37 -37 58 -92 58 -164v-6c0 -100 -45 -162 -107 -197l123 -271h-149l-105 237h-59v-237h-134zM188 356h53c73 0 110 44 110 111c0 74 -40 110 -113 110h-50v-221z" />
    <glyph glyph-name="S" unicode="S" horiz-adv-x="448" 
d="M216 -7c-70 0 -147 24 -216 93l80 104c30 -29 75 -73 134 -73c49 0 78 32 78 72c0 31 -16 55 -95 102c-106 63 -168 118 -168 216v2c0 118 86 198 211 198c60 0 133 -22 189 -81l-82 -103c-25 27 -64 60 -113 60c-40 0 -70 -24 -70 -61c0 -33 16 -57 113 -117
c99 -61 150 -115 150 -208v-2c0 -120 -93 -202 -211 -202z" />
    <glyph glyph-name="T" unicode="T" horiz-adv-x="444" 
d="M155 0v574h-133v126h400v-126h-133v-574h-134z" />
    <glyph glyph-name="U" unicode="U" horiz-adv-x="542" 
d="M270 -10c-132 0 -222 81 -222 250v460h134v-467c0 -81 35 -119 89 -119s89 37 89 118v468h133v-459c0 -171 -90 -251 -223 -251z" />
    <glyph glyph-name="V" unicode="V" horiz-adv-x="516" 
d="M193 -3l-183 703h141l109 -470l109 470h137l-183 -703h-130z" />
    <glyph glyph-name="W" unicode="W" horiz-adv-x="788" 
d="M168 -3l-155 703h140l86 -446l96 447h120l96 -447l86 446h137l-155 -703h-131l-95 431l-95 -431h-130z" />
    <glyph glyph-name="X" unicode="X" horiz-adv-x="518" 
d="M350 700h145l-158 -342l164 -358h-148l-95 234l-97 -234h-144l164 356l-158 344h148l88 -222z" />
    <glyph glyph-name="Y" unicode="Y" horiz-adv-x="506" 
d="M186 0v276l-182 424h146l104 -269l105 269h142l-181 -423v-277h-134z" />
    <glyph glyph-name="Z" unicode="Z" horiz-adv-x="476" 
d="M38 0v104l244 474h-236v122h393v-104l-244 -474h244v-122h-401z" />
    <glyph glyph-name="a" unicode="a" horiz-adv-x="435" 
d="M152 -9c-73 0 -130 59 -130 160v11c0 119 62 171 153 171c35 0 63 -8 92 -21v24c0 61 -35 89 -86 89c-42 0 -80 -21 -96 -32l-39 107c44 24 94 42 154 42c62 0 111 -18 143 -50c34 -34 51 -86 51 -152v-340h-128v57c-27 -43 -63 -66 -114 -66zM199 92c37 -2 68 28 68 70
v65c-15 7 -38 14 -58 14c-38 0 -62 -26 -62 -76v-2c0 -48 22 -69 52 -71z" />
    <glyph glyph-name="a.alt" horiz-adv-x="486" 
d="M191 -10c-85 0 -159 74 -159 262v32c0 187 73 262 159 262c62 0 95 -41 120 -77v67h130v-536h-130v71c-24 -39 -58 -81 -120 -81zM236 109c45 0 76 56 76 150v18c0 93 -31 150 -76 150s-74 -57 -74 -150v-18c0 -94 29 -150 74 -150z" />
    <glyph glyph-name="b" unicode="b" horiz-adv-x="486" 
d="M295 -10c-62 0 -96 41 -120 77v-67h-130v714h130v-249c24 39 58 81 120 81c85 0 159 -74 159 -262v-32c0 -187 -73 -262 -159 -262zM250 109c45 0 74 57 74 150v18c0 94 -29 150 -74 150s-76 -56 -76 -150v-18c0 -93 31 -150 76 -150z" />
    <glyph glyph-name="c" unicode="c" horiz-adv-x="386" 
d="M232 -11c-122 0 -202 101 -202 266v23c0 165 87 267 211 267c50 0 89 -16 131 -50l-60 -108c-16 18 -36 37 -67 37c-52 0 -85 -57 -85 -153v-7c0 -96 28 -154 85 -154c31 0 49 18 68 40l59 -99c-35 -38 -82 -62 -140 -62z" />
    <glyph glyph-name="d" unicode="d" horiz-adv-x="486" 
d="M191 -10c-85 0 -159 74 -159 262v32c0 187 73 262 159 262c62 0 95 -41 120 -77v245h130v-714h-130v71c-24 -39 -58 -81 -120 -81zM236 109c45 0 76 56 76 150v18c0 93 -31 150 -76 150s-74 -57 -74 -150v-18c0 -94 29 -150 74 -150z" />
    <glyph glyph-name="e" unicode="e" horiz-adv-x="442" 
d="M245 -11c-121 0 -217 99 -217 269v17c0 166 86 270 198 270c124 0 191 -109 191 -277c0 -4 0 -25 -1 -54h-259c9 -73 47 -110 98 -110c38 0 68 24 93 50l57 -96c-48 -44 -99 -69 -160 -69zM156 307h137c-3 81 -26 127 -67 127c-39 0 -66 -43 -70 -127z" />
    <glyph glyph-name="f" unicode="f" horiz-adv-x="283" 
d="M63 0v428h-44v106h44v37c0 50 12 86 36 110c25 24 62 37 110 37c29 0 48 -3 66 -8v-108c-11 3 -20 5 -33 5c-31 0 -50 -17 -50 -52v-21h83v-106h-82v-428h-130z" />
    <glyph glyph-name="g" unicode="g" horiz-adv-x="486" 
d="M215 -143c-63 0 -113 11 -167 33l34 106c29 -16 81 -29 120 -29c71 0 109 32 109 106v44c-26 -41 -60 -81 -123 -81c-85 0 -156 74 -156 253v4c0 181 72 253 156 253c63 0 97 -40 123 -77v67h130v-463c0 -73 -18 -124 -54 -160c-38 -39 -96 -56 -172 -56zM236 154
c44 0 76 49 76 137c0 87 -32 137 -76 137s-74 -50 -74 -137c0 -89 30 -137 74 -137z" />
    <glyph glyph-name="h" unicode="h" horiz-adv-x="464" 
d="M45 0v714h130v-246c26 42 59 78 117 78c84 0 131 -64 131 -161v-385h-130v351c0 51 -22 78 -58 78s-60 -27 -60 -78v-351h-130z" />
    <glyph glyph-name="i" unicode="i" horiz-adv-x="227" 
d="M46 590v124h134v-124h-134zM48 0v536h130v-536h-130z" />
    <glyph glyph-name="j" unicode="j" horiz-adv-x="228" 
d="M48 590v124h134v-124h-134zM37 -144c-24 0 -35 2 -53 5v102c6 0 12 -1 18 -1c28 0 48 13 48 50v524h130v-535c0 -101 -53 -145 -143 -145z" />
    <glyph glyph-name="k" unicode="k" horiz-adv-x="439" 
d="M45 0v714h130v-379l111 201h147l-131 -215l131 -321h-146l-79 209l-33 -56v-153h-130z" />
    <glyph glyph-name="l" unicode="l" horiz-adv-x="227" 
d="M48 0v714h130v-714h-130z" />
    <glyph glyph-name="m" unicode="m" horiz-adv-x="707" 
d="M45 0v536h130v-68c28 45 62 78 117 78c54 0 89 -28 112 -70c30 38 68 70 124 70c76 0 135 -55 135 -161v-385h-130v350c0 51 -20 79 -56 79c-35 0 -58 -28 -58 -79v-350h-130v350c0 51 -20 79 -56 79c-35 0 -58 -28 -58 -79v-350h-130z" />
    <glyph glyph-name="n" unicode="n" horiz-adv-x="464" 
d="M45 0v536h130v-68c26 42 59 78 117 78c84 0 131 -64 131 -161v-385h-130v351c0 51 -22 78 -58 78s-60 -27 -60 -78v-351h-130z" />
    <glyph glyph-name="o" unicode="o" horiz-adv-x="478" 
d="M239 -11c-121 0 -209 101 -209 267v21c0 166 89 268 209 268c121 0 209 -101 209 -267v-21c0 -166 -88 -268 -209 -268zM239 103c52 0 80 62 80 158v12c0 96 -29 158 -80 158c-52 0 -80 -61 -80 -158v-12c0 -95 30 -158 80 -158z" />
    <glyph glyph-name="p" unicode="p" horiz-adv-x="486" 
d="M45 -141v677h130v-71c24 39 58 81 120 81c85 0 159 -74 159 -262v-32c0 -187 -73 -262 -159 -262c-62 0 -96 41 -120 77v-208h-130zM250 109c45 0 74 57 74 150v18c0 94 -29 150 -74 150s-76 -56 -76 -150v-18c0 -93 31 -150 76 -150z" />
    <glyph glyph-name="q" unicode="q" horiz-adv-x="486" 
d="M311 -141v212c-24 -39 -58 -81 -120 -81c-85 0 -159 74 -159 262v32c0 187 73 262 159 262c62 0 95 -41 120 -77v67h130v-677h-130zM236 109c45 0 76 56 76 150v18c0 93 -31 150 -76 150s-74 -57 -74 -150v-18c0 -94 29 -150 74 -150z" />
    <glyph glyph-name="r" unicode="r" horiz-adv-x="309" 
d="M45 0v536h130v-81c21 55 55 92 116 88v-148h-4c-72 0 -112 -46 -112 -140v-255h-130z" />
    <glyph glyph-name="s" unicode="s" horiz-adv-x="366" 
d="M177 -10c-50 0 -115 17 -173 67l60 99c37 -32 75 -55 113 -55c35 0 49 21 49 42v1c0 29 -27 45 -83 78c-77 46 -120 87 -120 162v2c0 96 71 158 170 158c47 0 103 -17 152 -54l-57 -99c-24 21 -58 42 -95 42c-31 0 -47 -18 -47 -39v-2c0 -26 26 -43 83 -77
c82 -49 120 -93 120 -162v-2c0 -102 -75 -161 -172 -161z" />
    <glyph glyph-name="t" unicode="t" horiz-adv-x="304" 
d="M189 -8c-69 0 -126 25 -126 121v315h-43v108h43v137h130v-137h85v-108h-85v-280c0 -28 13 -40 39 -40c15 0 31 4 45 11v-104c-23 -13 -54 -23 -88 -23z" />
    <glyph glyph-name="u" unicode="u" horiz-adv-x="464" 
d="M173 -10c-85 0 -131 64 -131 161v385h130v-351c0 -51 21 -78 57 -78s60 27 60 78v351h130v-536h-130v68c-26 -42 -59 -78 -116 -78z" />
    <glyph glyph-name="v" unicode="v" horiz-adv-x="445" 
d="M160 -3l-146 539h132l78 -352l78 352h130l-146 -539h-126z" />
    <glyph glyph-name="w" unicode="w" horiz-adv-x="643" 
d="M132 -3l-116 539h131l57 -309l64 310h108l65 -310l57 309h130l-118 -539h-123l-66 305l-66 -305h-123z" />
    <glyph glyph-name="x" unicode="x" horiz-adv-x="436" 
d="M153 536l66 -159l66 159h133l-125 -262l130 -274h-138l-68 169l-69 -169h-135l129 274l-125 262h136z" />
    <glyph glyph-name="y" unicode="y" horiz-adv-x="445" 
d="M224 193l76 343h130l-144 -536c-29 -106 -68 -145 -143 -145c-28 0 -64 9 -93 26l26 101c14 -8 33 -15 49 -15c19 0 33 8 38 34l-149 535h133z" />
    <glyph glyph-name="z" unicode="z" horiz-adv-x="386" 
d="M25 0v92l189 336h-182v108h330v-92l-189 -336h189v-108h-337z" />
    <glyph glyph-name="Aacute" unicode="&#xc1;" horiz-adv-x="543" 
d="M10 0l194 703h135l195 -703h-137l-38 146h-180l-37 -146h-132zM211 265h116l-57 230zM216 745l99 139l112 -53l-113 -86h-98z" />
    <glyph glyph-name="aacute" unicode="&#xe1;" horiz-adv-x="435" 
d="M152 -9c-73 0 -130 59 -130 160v11c0 119 62 171 153 171c35 0 63 -8 92 -21v24c0 61 -35 89 -86 89c-42 0 -80 -21 -96 -32l-39 107c44 24 94 42 154 42c62 0 111 -18 143 -50c34 -34 51 -86 51 -152v-340h-128v57c-27 -43 -63 -66 -114 -66zM199 92c37 -2 68 28 68 70
v65c-15 7 -38 14 -58 14c-38 0 -62 -26 -62 -76v-2c0 -48 22 -69 52 -71zM164 582l95 158l106 -52l-110 -106h-91z" />
    <glyph glyph-name="aacute.alt" horiz-adv-x="486" 
d="M199 582l95 158l106 -52l-110 -106h-91zM191 -10c-85 0 -159 74 -159 262v32c0 187 73 262 159 262c62 0 95 -41 120 -77v67h130v-536h-130v71c-24 -39 -58 -81 -120 -81zM236 109c45 0 76 56 76 150v18c0 93 -31 150 -76 150s-74 -57 -74 -150v-18
c0 -94 29 -150 74 -150z" />
    <glyph glyph-name="Abreve" unicode="&#x102;" horiz-adv-x="543" 
d="M10 0l194 703h135l195 -703h-137l-38 146h-180l-37 -146h-132zM211 265h116l-57 230zM271 741c-80 0 -139 42 -143 125h83c7 -29 25 -43 60 -43c34 0 53 14 60 43h83c-5 -83 -63 -125 -143 -125z" />
    <glyph glyph-name="abreve" unicode="&#x103;" horiz-adv-x="435" 
d="M152 -9c-73 0 -130 59 -130 160v11c0 119 62 171 153 171c35 0 63 -8 92 -21v24c0 61 -35 89 -86 89c-42 0 -80 -21 -96 -32l-39 107c44 24 94 42 154 42c62 0 111 -18 143 -50c34 -34 51 -86 51 -152v-340h-128v57c-27 -43 -63 -66 -114 -66zM199 92c37 -2 68 28 68 70
v65c-15 7 -38 14 -58 14c-38 0 -62 -26 -62 -76v-2c0 -48 22 -69 52 -71zM217 577c-77 0 -136 45 -143 133h82c6 -30 25 -51 61 -51s55 21 61 51h82c-7 -88 -66 -133 -143 -133z" />
    <glyph glyph-name="abreve.alt" horiz-adv-x="486" 
d="M191 -10c-85 0 -159 74 -159 262v32c0 187 73 262 159 262c62 0 95 -41 120 -77v67h130v-536h-130v71c-24 -39 -58 -81 -120 -81zM236 109c45 0 76 56 76 150v18c0 93 -31 150 -76 150s-74 -57 -74 -150v-18c0 -94 29 -150 74 -150zM250 577c-77 0 -136 45 -143 133h82
c6 -30 25 -51 61 -51s55 21 61 51h82c-7 -88 -66 -133 -143 -133z" />
    <glyph glyph-name="Acircumflex" unicode="&#xc2;" horiz-adv-x="543" 
d="M10 0l194 703h135l195 -703h-137l-38 146h-180l-37 -146h-132zM211 265h116l-57 230zM120 743l94 130h114l94 -130h-97l-55 51l-55 -51h-95z" />
    <glyph glyph-name="acircumflex" unicode="&#xe2;" horiz-adv-x="435" 
d="M152 -9c-73 0 -130 59 -130 160v11c0 119 62 171 153 171c35 0 63 -8 92 -21v24c0 61 -35 89 -86 89c-42 0 -80 -21 -96 -32l-39 107c44 24 94 42 154 42c62 0 111 -18 143 -50c34 -34 51 -86 51 -152v-340h-128v57c-27 -43 -63 -66 -114 -66zM199 92c37 -2 68 28 68 70
v65c-15 7 -38 14 -58 14c-38 0 -62 -26 -62 -76v-2c0 -48 22 -69 52 -71zM69 582l94 145h108l94 -145h-91l-58 63l-58 -63h-89z" />
    <glyph glyph-name="acircumflex.alt" horiz-adv-x="486" 
d="M102 582l94 145h108l94 -145h-91l-58 63l-58 -63h-89zM191 -10c-85 0 -159 74 -159 262v32c0 187 73 262 159 262c62 0 95 -41 120 -77v67h130v-536h-130v71c-24 -39 -58 -81 -120 -81zM236 109c45 0 76 56 76 150v18c0 93 -31 150 -76 150s-74 -57 -74 -150v-18
c0 -94 29 -150 74 -150z" />
    <glyph glyph-name="Adieresis" unicode="&#xc4;" horiz-adv-x="543" 
d="M10 0l194 703h135l195 -703h-137l-38 146h-180l-37 -146h-132zM211 265h116l-57 230zM298 747v115h122v-115h-122zM122 747v115h122v-115h-122z" />
    <glyph glyph-name="adieresis" unicode="&#xe4;" horiz-adv-x="435" 
d="M152 -9c-73 0 -130 59 -130 160v11c0 119 62 171 153 171c35 0 63 -8 92 -21v24c0 61 -35 89 -86 89c-42 0 -80 -21 -96 -32l-39 107c44 24 94 42 154 42c62 0 111 -18 143 -50c34 -34 51 -86 51 -152v-340h-128v57c-27 -43 -63 -66 -114 -66zM199 92c37 -2 68 28 68 70
v65c-15 7 -38 14 -58 14c-38 0 -62 -26 -62 -76v-2c0 -48 22 -69 52 -71zM240 584v117h120v-117h-120zM74 584v117h120v-117h-120z" />
    <glyph glyph-name="adieresis.alt" horiz-adv-x="486" 
d="M273 584v117h120v-117h-120zM107 584v117h120v-117h-120zM191 -10c-85 0 -159 74 -159 262v32c0 187 73 262 159 262c62 0 95 -41 120 -77v67h130v-536h-130v71c-24 -39 -58 -81 -120 -81zM236 109c45 0 76 56 76 150v18c0 93 -31 150 -76 150s-74 -57 -74 -150v-18
c0 -94 29 -150 74 -150z" />
    <glyph glyph-name="AE" unicode="&#xc6;" horiz-adv-x="737" 
d="M3 0l256 700h440v-124h-221v-162h194v-124h-194v-166h225v-124h-359v146h-157l-51 -146h-133zM230 265h114v306h-12z" />
    <glyph glyph-name="ae" unicode="&#xe6;" horiz-adv-x="678" 
d="M168 -9c-88 0 -146 64 -146 168v3c0 119 62 171 153 171c35 0 63 -8 92 -21v24c0 59 -34 89 -84 89c-41 0 -78 -21 -97 -35l-40 110c44 24 94 42 154 42c67 0 111 -23 139 -62c31 41 73 65 125 65c121 0 189 -109 189 -277c0 -4 0 -25 -1 -54h-259c9 -73 45 -110 99 -110
c37 0 68 20 92 50l57 -96c-48 -46 -99 -69 -160 -69c-69 0 -126 33 -162 94c-33 -53 -86 -92 -151 -92zM392 307h137c-3 81 -26 127 -67 127c-39 0 -66 -43 -70 -127zM205 92c28 0 59 20 82 63c-5 21 -10 45 -12 70c-18 9 -39 16 -64 16c-39 0 -64 -26 -64 -75v-3
c0 -46 24 -71 58 -71z" />
    <glyph glyph-name="AEacute" unicode="&#x1fc;" horiz-adv-x="737" 
d="M370 742l99 139l112 -53l-113 -86h-98zM3 0l256 700h440v-124h-221v-162h194v-124h-194v-166h225v-124h-359v146h-157l-51 -146h-133zM230 265h114v306h-12z" />
    <glyph glyph-name="aeacute" unicode="&#x1fd;" horiz-adv-x="678" 
d="M285 582l95 158l106 -52l-110 -106h-91zM168 -9c-88 0 -146 64 -146 168v3c0 119 62 171 153 171c35 0 63 -8 92 -21v24c0 59 -34 89 -84 89c-41 0 -78 -21 -97 -35l-40 110c44 24 94 42 154 42c67 0 111 -23 139 -62c31 41 73 65 125 65c121 0 189 -109 189 -277
c0 -4 0 -25 -1 -54h-259c9 -73 45 -110 99 -110c37 0 68 20 92 50l57 -96c-48 -46 -99 -69 -160 -69c-69 0 -126 33 -162 94c-33 -53 -86 -92 -151 -92zM392 307h137c-3 81 -26 127 -67 127c-39 0 -66 -43 -70 -127zM205 92c28 0 59 20 82 63c-5 21 -10 45 -12 70
c-18 9 -39 16 -64 16c-39 0 -64 -26 -64 -75v-3c0 -46 24 -71 58 -71z" />
    <glyph glyph-name="Agrave" unicode="&#xc0;" horiz-adv-x="543" 
d="M10 0l194 703h135l195 -703h-137l-38 146h-180l-37 -146h-132zM211 265h116l-57 230zM327 745h-98l-113 86l112 53z" />
    <glyph glyph-name="agrave" unicode="&#xe0;" horiz-adv-x="435" 
d="M152 -9c-73 0 -130 59 -130 160v11c0 119 62 171 153 171c35 0 63 -8 92 -21v24c0 61 -35 89 -86 89c-42 0 -80 -21 -96 -32l-39 107c44 24 94 42 154 42c62 0 111 -18 143 -50c34 -34 51 -86 51 -152v-340h-128v57c-27 -43 -63 -66 -114 -66zM199 92c37 -2 68 28 68 70
v65c-15 7 -38 14 -58 14c-38 0 -62 -26 -62 -76v-2c0 -48 22 -69 52 -71zM177 582l-110 106l106 52l95 -158h-91z" />
    <glyph glyph-name="agrave.alt" horiz-adv-x="486" 
d="M191 -10c-85 0 -159 74 -159 262v32c0 187 73 262 159 262c62 0 95 -41 120 -77v67h130v-536h-130v71c-24 -39 -58 -81 -120 -81zM236 109c45 0 76 56 76 150v18c0 93 -31 150 -76 150s-74 -57 -74 -150v-18c0 -94 29 -150 74 -150zM212 582l-110 106l106 52l95 -158h-91
z" />
    <glyph glyph-name="Amacron" unicode="&#x100;" horiz-adv-x="543" 
d="M10 0l194 703h135l195 -703h-137l-38 146h-180l-37 -146h-132zM211 265h116l-57 230zM124 749v90h294v-90h-294z" />
    <glyph glyph-name="amacron" unicode="&#x101;" horiz-adv-x="435" 
d="M152 -9c-73 0 -130 59 -130 160v11c0 119 62 171 153 171c35 0 63 -8 92 -21v24c0 61 -35 89 -86 89c-42 0 -80 -21 -96 -32l-39 107c44 24 94 42 154 42c62 0 111 -18 143 -50c34 -34 51 -86 51 -152v-340h-128v57c-27 -43 -63 -66 -114 -66zM199 92c37 -2 68 28 68 70
v65c-15 7 -38 14 -58 14c-38 0 -62 -26 -62 -76v-2c0 -48 22 -69 52 -71zM79 586v87h276v-87h-276z" />
    <glyph glyph-name="amacron.alt" horiz-adv-x="486" 
d="M191 -10c-85 0 -159 74 -159 262v32c0 187 73 262 159 262c62 0 95 -41 120 -77v67h130v-536h-130v71c-24 -39 -58 -81 -120 -81zM236 109c45 0 76 56 76 150v18c0 93 -31 150 -76 150s-74 -57 -74 -150v-18c0 -94 29 -150 74 -150zM112 586v87h276v-87h-276z" />
    <glyph glyph-name="Aogonek" unicode="&#x104;" horiz-adv-x="543" 
d="M538 -85v-68c-15 -3 -30 -4 -42 -4c-71 0 -110 29 -110 77c0 31 13 55 35 80h-24l-38 146h-180l-37 -146h-132l194 703h135l195 -703h-24c-16 -21 -23 -37 -23 -53c0 -25 19 -34 51 -32zM211 265h116l-57 230z" />
    <glyph glyph-name="aogonek" unicode="&#x105;" horiz-adv-x="435" 
d="M397 -85v-68c-15 -3 -30 -4 -42 -4c-71 0 -110 29 -110 77c0 31 13 55 35 80h-14v57c-27 -43 -63 -66 -114 -66c-73 0 -130 59 -130 160v11c0 119 62 171 153 171c35 0 63 -8 92 -21v24c0 61 -35 89 -86 89c-42 0 -80 -21 -96 -32l-39 107c44 24 94 42 154 42
c62 0 111 -18 143 -50c34 -34 51 -86 51 -152v-340h-25c-16 -21 -23 -37 -23 -53c0 -25 19 -34 51 -32zM199 92c37 -2 68 28 68 70v65c-15 7 -38 14 -58 14c-38 0 -62 -26 -62 -76v-2c0 -48 22 -69 52 -71z" />
    <glyph glyph-name="aogonek.alt" horiz-adv-x="486" 
d="M446 -85v-68c-15 -3 -30 -4 -42 -4c-71 0 -110 29 -110 77c0 31 13 55 35 80h-18v71c-24 -39 -58 -81 -120 -81c-85 0 -159 74 -159 262v32c0 187 73 262 159 262c62 0 95 -41 120 -77v67h130v-536h-23c-16 -21 -23 -37 -23 -53c0 -25 19 -34 51 -32zM236 109
c45 0 76 56 76 150v18c0 93 -31 150 -76 150s-74 -57 -74 -150v-18c0 -94 29 -150 74 -150z" />
    <glyph glyph-name="Aring" unicode="&#xc5;" horiz-adv-x="543" 
d="M10 0l185 673c-15 16 -24 37 -24 61c0 55 46 94 101 94s101 -39 101 -94c0 -25 -9 -46 -25 -62l186 -672h-137l-38 146h-180l-37 -146h-132zM211 265h116l-57 230zM272 689c28 0 48 19 48 45s-20 46 -48 46s-48 -20 -48 -46s20 -45 48 -45z" />
    <glyph glyph-name="aring" unicode="&#xe5;" horiz-adv-x="435" 
d="M152 -9c-73 0 -130 59 -130 160v11c0 119 62 171 153 171c35 0 63 -8 92 -21v24c0 61 -35 89 -86 89c-42 0 -80 -21 -96 -32l-39 107c44 24 94 42 154 42c62 0 111 -18 143 -50c34 -34 51 -86 51 -152v-340h-128v57c-27 -43 -63 -66 -114 -66zM199 92c37 -2 68 28 68 70
v65c-15 7 -38 14 -58 14c-38 0 -62 -26 -62 -76v-2c0 -48 22 -69 52 -71zM217 577c-55 0 -99 43 -99 100c0 56 44 99 99 99s99 -42 99 -99s-44 -100 -99 -100zM217 625c27 0 48 22 48 52c0 29 -21 52 -48 52s-48 -23 -48 -52c0 -30 21 -52 48 -52z" />
    <glyph glyph-name="aring.alt" horiz-adv-x="486" 
d="M250 577c-55 0 -99 43 -99 100c0 56 44 99 99 99s99 -42 99 -99s-44 -100 -99 -100zM250 625c27 0 48 22 48 52c0 29 -21 52 -48 52s-48 -23 -48 -52c0 -30 21 -52 48 -52zM191 -10c-85 0 -159 74 -159 262v32c0 187 73 262 159 262c62 0 95 -41 120 -77v67h130v-536
h-130v71c-24 -39 -58 -81 -120 -81zM236 109c45 0 76 56 76 150v18c0 93 -31 150 -76 150s-74 -57 -74 -150v-18c0 -94 29 -150 74 -150z" />
    <glyph glyph-name="aring.alt2" horiz-adv-x="435" 
d="M152 -9c-73 0 -130 59 -130 160v11c0 119 62 171 153 171c35 0 63 -8 92 -21v24c0 61 -35 89 -86 89c-42 0 -80 -21 -96 -32l-39 107c28 15 58 28 92 35c-13 17 -20 38 -20 61c0 56 44 99 99 99s99 -42 99 -99c0 -28 -10 -52 -27 -69c21 -9 39 -20 54 -35
c34 -34 51 -86 51 -152v-340h-128v57c-27 -43 -63 -66 -114 -66zM199 92c37 -2 68 28 68 70v65c-15 7 -38 14 -58 14c-38 0 -62 -26 -62 -76v-2c0 -48 22 -69 52 -71zM217 544c27 0 48 22 48 52c0 29 -21 52 -48 52s-48 -23 -48 -52c0 -30 21 -52 48 -52z" />
    <glyph glyph-name="Aringacute" unicode="&#x1fa;" horiz-adv-x="543" 
d="M10 0l185 673c-15 16 -24 37 -24 61c0 55 46 94 101 94s101 -39 101 -94c0 -25 -9 -46 -25 -62l186 -672h-137l-38 146h-180l-37 -146h-132zM211 265h116l-57 230zM219 849l97 118l112 -53l-108 -65h-101zM272 689c28 0 48 19 48 45s-20 46 -48 46s-48 -20 -48 -46
s20 -45 48 -45z" />
    <glyph glyph-name="aringacute" unicode="&#x1fb;" horiz-adv-x="435" 
d="M167 801l91 124l105 -49l-102 -75h-94zM152 -9c-73 0 -130 59 -130 160v11c0 119 62 171 153 171c35 0 63 -8 92 -21v24c0 61 -35 89 -86 89c-42 0 -80 -21 -96 -32l-39 107c44 24 94 42 154 42c62 0 111 -18 143 -50c34 -34 51 -86 51 -152v-340h-128v57
c-27 -43 -63 -66 -114 -66zM199 92c37 -2 68 28 68 70v65c-15 7 -38 14 -58 14c-38 0 -62 -26 -62 -76v-2c0 -48 22 -69 52 -71zM217 577c-55 0 -99 43 -99 100c0 56 44 99 99 99s99 -42 99 -99s-44 -100 -99 -100zM217 625c27 0 48 22 48 52c0 29 -21 52 -48 52
s-48 -23 -48 -52c0 -30 21 -52 48 -52z" />
    <glyph glyph-name="aringacute.alt" horiz-adv-x="486" 
d="M201 801l91 124l105 -49l-102 -75h-94zM250 577c-55 0 -99 43 -99 100c0 56 44 99 99 99s99 -42 99 -99s-44 -100 -99 -100zM250 625c27 0 48 22 48 52c0 29 -21 52 -48 52s-48 -23 -48 -52c0 -30 21 -52 48 -52zM191 -10c-85 0 -159 74 -159 262v32
c0 187 73 262 159 262c62 0 95 -41 120 -77v67h130v-536h-130v71c-24 -39 -58 -81 -120 -81zM236 109c45 0 76 56 76 150v18c0 93 -31 150 -76 150s-74 -57 -74 -150v-18c0 -94 29 -150 74 -150z" />
    <glyph glyph-name="aringacute.alt2" horiz-adv-x="435" 
d="M167 722l91 124l105 -48l-102 -76h-94zM152 -9c-73 0 -130 59 -130 160v11c0 119 62 171 153 171c35 0 63 -8 92 -21v24c0 61 -35 89 -86 89c-42 0 -80 -21 -96 -32l-39 107c28 15 58 28 92 35c-13 17 -20 38 -20 61c0 56 44 99 99 99s99 -42 99 -99
c0 -28 -10 -52 -27 -69c21 -9 39 -20 54 -35c34 -34 51 -86 51 -152v-340h-128v57c-27 -43 -63 -66 -114 -66zM199 92c37 -2 68 28 68 70v65c-15 7 -38 14 -58 14c-38 0 -62 -26 -62 -76v-2c0 -48 22 -69 52 -71zM217 544c27 0 48 22 48 52c0 29 -21 52 -48 52
s-48 -23 -48 -52c0 -30 21 -52 48 -52z" />
    <glyph glyph-name="Atilde" unicode="&#xc3;" horiz-adv-x="543" 
d="M10 0l194 703h135l195 -703h-137l-38 146h-180l-37 -146h-132zM211 265h116l-57 230zM346 745c-26 0 -52 11 -75 20c-19 9 -37 16 -49 16c-19 0 -27 -12 -38 -42l-73 20c17 81 42 119 93 119c26 0 54 -11 77 -21c19 -8 35 -15 47 -15c19 0 27 12 38 42l73 -19
c-17 -82 -42 -120 -93 -120z" />
    <glyph glyph-name="atilde" unicode="&#xe3;" horiz-adv-x="435" 
d="M152 -9c-73 0 -130 59 -130 160v11c0 119 62 171 153 171c35 0 63 -8 92 -21v24c0 61 -35 89 -86 89c-42 0 -80 -21 -96 -32l-39 107c44 24 94 42 154 42c62 0 111 -18 143 -50c34 -34 51 -86 51 -152v-340h-128v57c-27 -43 -63 -66 -114 -66zM199 92c37 -2 68 28 68 70
v65c-15 7 -38 14 -58 14c-38 0 -62 -26 -62 -76v-2c0 -48 22 -69 52 -71zM290 581c-25 0 -51 12 -73 21c-19 8 -36 16 -48 16c-21 0 -28 -12 -38 -43l-71 19c17 81 40 118 90 118c25 0 51 -12 73 -21c19 -8 36 -16 48 -16c21 0 28 12 38 43l71 -19
c-17 -81 -40 -118 -90 -118z" />
    <glyph glyph-name="atilde.alt" horiz-adv-x="486" 
d="M191 -10c-85 0 -159 74 -159 262v32c0 187 73 262 159 262c62 0 95 -41 120 -77v67h130v-536h-130v71c-24 -39 -58 -81 -120 -81zM236 109c45 0 76 56 76 150v18c0 93 -31 150 -76 150s-74 -57 -74 -150v-18c0 -94 29 -150 74 -150zM324 581c-25 0 -51 12 -73 21
c-19 8 -36 16 -48 16c-21 0 -28 -12 -38 -43l-71 19c17 81 40 118 90 118c25 0 51 -12 73 -21c19 -8 36 -16 48 -16c21 0 28 12 38 43l71 -19c-17 -81 -40 -118 -90 -118z" />
    <glyph glyph-name="Cacute" unicode="&#x106;" horiz-adv-x="485" 
d="M290 -8c-156 0 -255 122 -255 350v16c0 228 112 350 263 350c73 0 125 -27 167 -68l-76 -107c-26 26 -56 47 -92 47c-69 0 -125 -77 -125 -227v-5c0 -160 60 -228 123 -228c40 0 68 20 100 52l71 -104c-52 -50 -109 -76 -176 -76zM222 745l99 139l112 -53l-113 -86h-98z
" />
    <glyph glyph-name="cacute" unicode="&#x107;" horiz-adv-x="386" 
d="M172 582l95 158l106 -52l-110 -106h-91zM232 -11c-122 0 -202 101 -202 266v23c0 165 87 267 211 267c50 0 89 -16 131 -50l-60 -108c-16 18 -36 37 -67 37c-52 0 -85 -57 -85 -153v-7c0 -96 28 -154 85 -154c31 0 49 18 68 40l59 -99c-35 -38 -82 -62 -140 -62z" />
    <glyph glyph-name="Ccaron" unicode="&#x10c;" horiz-adv-x="485" 
d="M290 -8c-156 0 -255 122 -255 350v16c0 228 112 350 263 350c73 0 125 -27 167 -68l-76 -107c-26 26 -56 47 -92 47c-69 0 -125 -77 -125 -227v-5c0 -160 60 -228 123 -228c40 0 68 20 100 52l71 -104c-52 -50 -109 -76 -176 -76zM428 875l-94 -130h-114l-94 130h97
l55 -51l55 51h95z" />
    <glyph glyph-name="ccaron" unicode="&#x10d;" horiz-adv-x="386" 
d="M373 727l-94 -145h-108l-94 145h91l58 -63l58 63h89zM232 -11c-122 0 -202 101 -202 266v23c0 165 87 267 211 267c50 0 89 -16 131 -50l-60 -108c-16 18 -36 37 -67 37c-52 0 -85 -57 -85 -153v-7c0 -96 28 -154 85 -154c31 0 49 18 68 40l59 -99
c-35 -38 -82 -62 -140 -62z" />
    <glyph glyph-name="Ccedilla" unicode="&#xc7;" horiz-adv-x="485" 
d="M265 -143l-110 43l67 100c-116 32 -187 149 -187 342v16c0 228 112 350 263 350c73 0 125 -27 167 -68l-76 -107c-26 26 -56 47 -92 47c-69 0 -125 -77 -125 -227v-5c0 -160 60 -228 123 -228c40 0 68 20 100 52l71 -104c-46 -44 -96 -69 -153 -75z" />
    <glyph glyph-name="ccedilla" unicode="&#xe7;" horiz-adv-x="386" 
d="M210 -143l-110 43l67 100c-85 30 -137 121 -137 255v23c0 165 87 267 211 267c50 0 89 -16 131 -50l-60 -108c-16 18 -36 37 -67 37c-52 0 -85 -57 -85 -153v-7c0 -96 28 -154 85 -154c31 0 49 18 68 40l59 -99c-30 -33 -68 -54 -115 -60z" />
    <glyph glyph-name="Cdotaccent" unicode="&#x10a;" horiz-adv-x="485" 
d="M215 747v115h124v-115h-124zM290 -8c-156 0 -255 122 -255 350v16c0 228 112 350 263 350c73 0 125 -27 167 -68l-76 -107c-26 26 -56 47 -92 47c-69 0 -125 -77 -125 -227v-5c0 -160 60 -228 123 -228c40 0 68 20 100 52l71 -104c-52 -50 -109 -76 -176 -76z" />
    <glyph glyph-name="cdotaccent" unicode="&#x10b;" horiz-adv-x="386" 
d="M232 -11c-122 0 -202 101 -202 266v23c0 165 87 267 211 267c50 0 89 -16 131 -50l-60 -108c-16 18 -36 37 -67 37c-52 0 -85 -57 -85 -153v-7c0 -96 28 -154 85 -154c31 0 49 18 68 40l59 -99c-35 -38 -82 -62 -140 -62zM164 584v117h122v-117h-122z" />
    <glyph glyph-name="Dcaron" unicode="&#x10e;" horiz-adv-x="553" 
d="M54 0v700h173c183 0 292 -127 292 -342v-16c0 -214 -109 -342 -292 -342h-173zM225 578h-37v-456h37c93 0 156 67 156 223v10c0 156 -63 223 -156 223zM418 872l-94 -130h-114l-94 130h97l55 -51l55 51h95z" />
    <glyph glyph-name="dcaron" unicode="&#x10f;" horiz-adv-x="486" 
d="M473 570l10 170h90v-2l-46 -168h-54zM191 -10c-85 0 -159 74 -159 262v32c0 187 73 262 159 262c62 0 95 -41 120 -77v245h130v-714h-130v71c-24 -39 -58 -81 -120 -81zM236 109c45 0 76 56 76 150v18c0 93 -31 150 -76 150s-74 -57 -74 -150v-18c0 -94 29 -150 74 -150z
" />
    <glyph glyph-name="Dcroat" unicode="&#x110;" horiz-adv-x="569" 
d="M70 0v292h-51v120h51v288h173c179 0 292 -127 292 -342v-16c0 -214 -113 -342 -292 -342h-173zM293 292h-89v-170h37c93 0 156 67 156 223v10c0 156 -63 223 -156 223h-37v-166h89v-120z" />
    <glyph glyph-name="dcroat" unicode="&#x111;" horiz-adv-x="486" 
d="M205 585v87h106v42h130v-42h45v-89h-45v-583h-130v71c-24 -39 -58 -81 -120 -81c-85 0 -159 74 -159 262v32c0 187 73 262 159 262c62 0 95 -41 120 -77v116h-106zM236 109c45 0 76 56 76 150v18c0 93 -31 150 -76 150s-74 -57 -74 -150v-18c0 -94 29 -150 74 -150z" />
    <glyph glyph-name="Eacute" unicode="&#xc9;" horiz-adv-x="456" 
d="M182 742l99 139l112 -53l-113 -86h-98zM54 0v700h364v-124h-231v-162h204v-124h-204v-166h235v-124h-368z" />
    <glyph glyph-name="eacute" unicode="&#xe9;" horiz-adv-x="442" 
d="M172 582l95 158l106 -52l-110 -106h-91zM245 -11c-121 0 -217 99 -217 269v17c0 166 86 270 198 270c124 0 191 -109 191 -277c0 -4 0 -25 -1 -54h-259c9 -73 47 -110 98 -110c38 0 68 24 93 50l57 -96c-48 -44 -99 -69 -160 -69zM156 307h137c-3 81 -26 127 -67 127
c-39 0 -66 -43 -70 -127z" />
    <glyph glyph-name="Ebreve" unicode="&#x114;" horiz-adv-x="456" 
d="M238 738c-80 0 -139 42 -143 125h83c7 -29 25 -43 60 -43c34 0 53 14 60 43h83c-5 -83 -63 -125 -143 -125zM54 0v700h364v-124h-231v-162h204v-124h-204v-166h235v-124h-368z" />
    <glyph glyph-name="ebreve" unicode="&#x115;" horiz-adv-x="442" 
d="M245 -11c-121 0 -217 99 -217 269v17c0 166 86 270 198 270c124 0 191 -109 191 -277c0 -4 0 -25 -1 -54h-259c9 -73 47 -110 98 -110c38 0 68 24 93 50l57 -96c-48 -44 -99 -69 -160 -69zM156 307h137c-3 81 -26 127 -67 127c-39 0 -66 -43 -70 -127zM225 577
c-77 0 -136 45 -143 133h82c6 -30 25 -51 61 -51s55 21 61 51h82c-7 -88 -66 -133 -143 -133z" />
    <glyph glyph-name="Ecaron" unicode="&#x11a;" horiz-adv-x="456" 
d="M389 872l-94 -130h-114l-94 130h97l55 -51l55 51h95zM54 0v700h364v-124h-231v-162h204v-124h-204v-166h235v-124h-368z" />
    <glyph glyph-name="ecaron" unicode="&#x11b;" horiz-adv-x="442" 
d="M373 727l-94 -145h-108l-94 145h91l58 -63l58 63h89zM245 -11c-121 0 -217 99 -217 269v17c0 166 86 270 198 270c124 0 191 -109 191 -277c0 -4 0 -25 -1 -54h-259c9 -73 47 -110 98 -110c38 0 68 24 93 50l57 -96c-48 -44 -99 -69 -160 -69zM156 307h137
c-3 81 -26 127 -67 127c-39 0 -66 -43 -70 -127z" />
    <glyph glyph-name="Ecircumflex" unicode="&#xca;" horiz-adv-x="456" 
d="M54 0v700h364v-124h-231v-162h204v-124h-204v-166h235v-124h-368zM87 742l94 130h114l94 -130h-97l-55 51l-55 -51h-95z" />
    <glyph glyph-name="ecircumflex" unicode="&#xea;" horiz-adv-x="442" 
d="M77 580l94 145h108l94 -145h-91l-58 63l-58 -63h-89zM245 -11c-121 0 -217 99 -217 269v17c0 166 86 270 198 270c124 0 191 -109 191 -277c0 -4 0 -25 -1 -54h-259c9 -73 47 -110 98 -110c38 0 68 24 93 50l57 -96c-48 -44 -99 -69 -160 -69zM156 307h137
c-3 81 -26 127 -67 127c-39 0 -66 -43 -70 -127z" />
    <glyph glyph-name="Edieresis" unicode="&#xcb;" horiz-adv-x="456" 
d="M265 744v115h122v-115h-122zM89 744v115h122v-115h-122zM54 0v700h364v-124h-231v-162h204v-124h-204v-166h235v-124h-368z" />
    <glyph glyph-name="edieresis" unicode="&#xeb;" horiz-adv-x="442" 
d="M248 584v117h120v-117h-120zM82 584v117h120v-117h-120zM245 -11c-121 0 -217 99 -217 269v17c0 166 86 270 198 270c124 0 191 -109 191 -277c0 -4 0 -25 -1 -54h-259c9 -73 47 -110 98 -110c38 0 68 24 93 50l57 -96c-48 -44 -99 -69 -160 -69zM156 307h137
c-3 81 -26 127 -67 127c-39 0 -66 -43 -70 -127z" />
    <glyph glyph-name="Edotaccent" unicode="&#x116;" horiz-adv-x="456" 
d="M176 744v115h124v-115h-124zM54 0v700h364v-124h-231v-162h204v-124h-204v-166h235v-124h-368z" />
    <glyph glyph-name="edotaccent" unicode="&#x117;" horiz-adv-x="442" 
d="M245 -11c-121 0 -217 99 -217 269v17c0 166 86 270 198 270c124 0 191 -109 191 -277c0 -4 0 -25 -1 -54h-259c9 -73 47 -110 98 -110c38 0 68 24 93 50l57 -96c-48 -44 -99 -69 -160 -69zM156 307h137c-3 81 -26 127 -67 127c-39 0 -66 -43 -70 -127zM164 584v117h122
v-117h-122z" />
    <glyph glyph-name="Egrave" unicode="&#xc8;" horiz-adv-x="456" 
d="M293 742h-98l-113 86l112 53zM54 0v700h364v-124h-231v-162h204v-124h-204v-166h235v-124h-368z" />
    <glyph glyph-name="egrave" unicode="&#xe8;" horiz-adv-x="442" 
d="M245 -11c-121 0 -217 99 -217 269v17c0 166 86 270 198 270c124 0 191 -109 191 -277c0 -4 0 -25 -1 -54h-259c9 -73 47 -110 98 -110c38 0 68 24 93 50l57 -96c-48 -44 -99 -69 -160 -69zM156 307h137c-3 81 -26 127 -67 127c-39 0 -66 -43 -70 -127zM185 582l-110 106
l106 52l95 -158h-91z" />
    <glyph glyph-name="Emacron" unicode="&#x112;" horiz-adv-x="456" 
d="M91 746v90h294v-90h-294zM54 0v700h364v-124h-231v-162h204v-124h-204v-166h235v-124h-368z" />
    <glyph glyph-name="emacron" unicode="&#x113;" horiz-adv-x="442" 
d="M245 -11c-121 0 -217 99 -217 269v17c0 166 86 270 198 270c124 0 191 -109 191 -277c0 -4 0 -25 -1 -54h-259c9 -73 47 -110 98 -110c38 0 68 24 93 50l57 -96c-48 -44 -99 -69 -160 -69zM156 307h137c-3 81 -26 127 -67 127c-39 0 -66 -43 -70 -127zM87 586v87h276v-87
h-276z" />
    <glyph glyph-name="Eogonek" unicode="&#x118;" horiz-adv-x="456" 
d="M54 0v700h364v-124h-231v-162h204v-124h-204v-166h235v-124h-29c-16 -21 -23 -37 -23 -53c0 -25 19 -34 51 -32v-68c-15 -3 -30 -4 -42 -4c-71 0 -110 29 -110 77c0 31 13 55 35 80h-250z" />
    <glyph glyph-name="eogonek" unicode="&#x119;" horiz-adv-x="442" 
d="M348 154l57 -96l-28 -27c-30 -30 -48 -60 -48 -82c0 -27 18 -36 51 -34v-68c-16 -3 -30 -4 -42 -4c-71 0 -110 29 -110 75c0 27 12 48 30 71h-13c-121 0 -217 99 -217 269v17c0 166 86 270 198 270c124 0 191 -109 191 -277c0 -4 -1 -49 -1 -54h-259
c9 -73 47 -110 98 -110c38 0 68 24 93 50zM156 307h137c-3 81 -26 127 -67 127c-39 0 -66 -43 -70 -127z" />
    <glyph glyph-name="Eth" unicode="&#xd0;" horiz-adv-x="569" 
d="M70 0v292h-51v120h51v288h173c179 0 292 -127 292 -342v-16c0 -214 -113 -342 -292 -342h-173zM293 292h-89v-170h37c93 0 156 67 156 223v10c0 156 -63 223 -156 223h-37v-166h89v-120z" />
    <glyph glyph-name="eth" unicode="&#xf0;" horiz-adv-x="478" 
d="M402 641l-57 -18c60 -90 102 -200 102 -324v-19c0 -186 -84 -291 -212 -291c-119 0 -205 105 -205 269v25c0 156 80 252 166 252c34 0 57 -10 84 -32c-14 28 -31 56 -51 83l-87 -27l-28 75l61 19l-59 61h154l22 -24l83 26zM238 103c53 0 80 63 80 158v11
c0 97 -30 159 -81 159c-50 0 -78 -62 -78 -158v-11c0 -95 28 -159 79 -159z" />
    <glyph glyph-name="Gbreve" unicode="&#x11e;" horiz-adv-x="545" 
d="M299 741c-80 0 -139 42 -143 125h83c7 -29 25 -43 60 -43c34 0 53 14 60 43h83c-5 -83 -63 -125 -143 -125zM311 -8c-155 0 -276 117 -276 350v16c0 216 118 350 283 350c66 0 124 -21 178 -66l-74 -110c-19 22 -51 49 -103 49c-86 0 -147 -83 -147 -223v-14
c0 -162 69 -229 148 -229c23 0 45 6 57 14v152h-95v118h220v-347c-54 -34 -114 -60 -191 -60z" />
    <glyph glyph-name="gbreve" unicode="&#x11f;" horiz-adv-x="486" 
d="M215 -143c-63 0 -113 11 -167 33l34 106c29 -16 81 -29 120 -29c71 0 109 32 109 106v44c-26 -41 -60 -81 -123 -81c-85 0 -156 74 -156 253v4c0 181 72 253 156 253c63 0 97 -40 123 -77v67h130v-463c0 -73 -18 -124 -54 -160c-38 -39 -96 -56 -172 -56zM236 154
c44 0 76 49 76 137c0 87 -32 137 -76 137s-74 -50 -74 -137c0 -89 30 -137 74 -137zM250 577c-77 0 -136 45 -143 133h82c6 -30 25 -51 61 -51s55 21 61 51h82c-7 -88 -66 -133 -143 -133z" />
    <glyph glyph-name="Gcommaaccent" unicode="&#x122;" horiz-adv-x="545" 
d="M238 -249l-6 42c47 5 64 22 62 59h-54v99h118v-87c0 -79 -43 -110 -120 -113zM311 -8c-155 0 -276 117 -276 350v16c0 216 118 350 283 350c66 0 124 -21 178 -66l-74 -110c-19 22 -51 49 -103 49c-86 0 -147 -83 -147 -223v-14c0 -162 69 -229 148 -229c23 0 45 6 57 14
v152h-95v118h220v-347c-54 -34 -114 -60 -191 -60z" />
    <glyph glyph-name="gcommaaccent" unicode="&#x123;" horiz-adv-x="486" 
d="M215 -143c-63 0 -113 11 -167 33l34 106c29 -16 81 -29 120 -29c71 0 109 32 109 106v44c-26 -41 -60 -81 -123 -81c-85 0 -156 74 -156 253v4c0 181 72 253 156 253c63 0 97 -40 123 -77v67h130v-463c0 -73 -18 -124 -54 -160c-38 -39 -96 -56 -172 -56zM236 154
c44 0 76 49 76 137c0 87 -32 137 -76 137s-74 -50 -74 -137c0 -89 30 -137 74 -137zM310 784l6 -42c-47 -5 -64 -22 -62 -59h54v-99h-118v87c0 79 43 110 120 113z" />
    <glyph glyph-name="Gdotaccent" unicode="&#x120;" horiz-adv-x="545" 
d="M237 747v115h124v-115h-124zM311 -8c-155 0 -276 117 -276 350v16c0 216 118 350 283 350c66 0 124 -21 178 -66l-74 -110c-19 22 -51 49 -103 49c-86 0 -147 -83 -147 -223v-14c0 -162 69 -229 148 -229c23 0 45 6 57 14v152h-95v118h220v-347
c-54 -34 -114 -60 -191 -60z" />
    <glyph glyph-name="gdotaccent" unicode="&#x121;" horiz-adv-x="486" 
d="M215 -143c-63 0 -113 11 -167 33l34 106c29 -16 81 -29 120 -29c71 0 109 32 109 106v44c-26 -41 -60 -81 -123 -81c-85 0 -156 74 -156 253v4c0 181 72 253 156 253c63 0 97 -40 123 -77v67h130v-463c0 -73 -18 -124 -54 -160c-38 -39 -96 -56 -172 -56zM236 154
c44 0 76 49 76 137c0 87 -32 137 -76 137s-74 -50 -74 -137c0 -89 30 -137 74 -137zM189 584v117h122v-117h-122z" />
    <glyph glyph-name="Hbar" unicode="&#x126;" horiz-adv-x="557" 
d="M10 515v105h49v80h134v-82h172v82h133v-80h49v-105h-49v-515h-133v289h-172v-289h-134v515h-49zM193 415h172v102h-172v-102z" />
    <glyph glyph-name="hbar" unicode="&#x127;" horiz-adv-x="464" 
d="M281 585h-106v-117c26 42 59 78 117 78c84 0 131 -64 131 -161v-385h-130v351c0 51 -22 78 -58 78s-60 -27 -60 -78v-351h-130v583h-45v89h45v42h130v-42h106v-87z" />
    <glyph glyph-name="Iacute" unicode="&#xcd;" horiz-adv-x="249" 
d="M58 0v700h133v-700h-133zM70 742l99 139l112 -53l-113 -86h-98z" />
    <glyph glyph-name="iacute" unicode="&#xed;" horiz-adv-x="227" 
d="M62 582l95 158l106 -52l-110 -106h-91zM48 0v536h130v-536h-130z" />
    <glyph glyph-name="Ibreve" unicode="&#x12c;" horiz-adv-x="249" 
d="M58 0v700h133v-700h-133zM125 738c-80 0 -139 42 -143 125h83c7 -29 25 -43 60 -43c34 0 53 14 60 43h83c-5 -83 -63 -125 -143 -125z" />
    <glyph glyph-name="ibreve" unicode="&#x12d;" horiz-adv-x="227" 
d="M48 0v536h130v-536h-130zM114 577c-77 0 -136 45 -143 133h82c6 -30 25 -51 61 -51s55 21 61 51h82c-7 -88 -66 -133 -143 -133z" />
    <glyph glyph-name="Icircumflex" unicode="&#xce;" horiz-adv-x="249" 
d="M58 0v700h133v-700h-133zM-26 742l94 130h114l94 -130h-97l-55 51l-55 -51h-95z" />
    <glyph glyph-name="icircumflex" unicode="&#xee;" horiz-adv-x="227" 
d="M-34 582l94 145h108l94 -145h-91l-58 63l-58 -63h-89zM48 0v536h130v-536h-130z" />
    <glyph glyph-name="Idieresis" unicode="&#xcf;" horiz-adv-x="249" 
d="M58 0v700h133v-700h-133zM152 744v115h122v-115h-122zM-24 744v115h122v-115h-122z" />
    <glyph glyph-name="idieresis" unicode="&#xef;" horiz-adv-x="227" 
d="M137 584v117h120v-117h-120zM-29 584v117h120v-117h-120zM48 0v536h130v-536h-130z" />
    <glyph glyph-name="Idotaccent" unicode="&#x130;" horiz-adv-x="249" 
d="M58 0v700h133v-700h-133zM63 744v115h124v-115h-124z" />
    <glyph glyph-name="dotlessi" unicode="&#x131;" horiz-adv-x="227" 
d="M48 0v536h130v-536h-130z" />
    <glyph glyph-name="Igrave" unicode="&#xcc;" horiz-adv-x="249" 
d="M58 0v700h133v-700h-133zM180 742h-98l-113 86l112 53z" />
    <glyph glyph-name="igrave" unicode="&#xec;" horiz-adv-x="227" 
d="M48 0v536h130v-536h-130zM74 582l-110 106l106 52l95 -158h-91z" />
    <glyph glyph-name="Imacron" unicode="&#x12a;" horiz-adv-x="249" 
d="M58 0v700h133v-700h-133zM-22 746v90h294v-90h-294z" />
    <glyph glyph-name="imacron" unicode="&#x12b;" horiz-adv-x="227" 
d="M48 0v536h130v-536h-130zM-24 586v87h276v-87h-276z" />
    <glyph glyph-name="Iogonek" unicode="&#x12e;" horiz-adv-x="249" 
d="M58 0v700h133v-700h-20c-16 -21 -23 -37 -23 -53c0 -25 19 -34 51 -32v-68c-15 -3 -30 -4 -42 -4c-71 0 -110 29 -110 77c0 31 13 55 35 80h-24z" />
    <glyph glyph-name="iogonek" unicode="&#x12f;" horiz-adv-x="227" 
d="M48 0v536h130v-536h-18c-16 -21 -23 -37 -23 -53c0 -25 19 -34 51 -32v-68c-15 -3 -30 -4 -42 -4c-71 0 -110 29 -110 77c0 31 13 55 35 80h-23zM46 590v124h134v-124h-134z" />
    <glyph glyph-name="Kcommaaccent" unicode="&#x136;" horiz-adv-x="524" 
d="M203 -247l-6 42c47 5 64 22 62 59h-54v99h118v-87c0 -79 -43 -110 -120 -113zM54 0v700h134v-298l167 298h156l-180 -296l186 -404h-154l-128 277l-47 -79v-198h-134z" />
    <glyph glyph-name="kcommaaccent" unicode="&#x137;" horiz-adv-x="439" 
d="M166 -248l-6 42c47 5 64 22 62 59h-54v99h118v-87c0 -79 -43 -110 -120 -113zM45 0v714h130v-379l111 201h147l-131 -215l131 -321h-146l-79 209l-33 -56v-153h-130z" />
    <glyph glyph-name="Lacute" unicode="&#x139;" horiz-adv-x="418" 
d="M84 741l99 139l112 -53l-113 -86h-98zM54 0v700h134v-575h210v-125h-344z" />
    <glyph glyph-name="lacute" unicode="&#x13a;" horiz-adv-x="227" 
d="M67 747l99 139l112 -53l-113 -86h-98zM48 0v714h130v-714h-130z" />
    <glyph glyph-name="Lcaron" unicode="&#x13d;" horiz-adv-x="418" 
d="M227 530l10 170h90v-2l-46 -168h-54zM54 0v700h134v-575h210v-125h-344z" />
    <glyph glyph-name="lcaron" unicode="&#x13e;" horiz-adv-x="227" 
d="M211 570l10 170h90v-2l-46 -168h-54zM48 0v714h130v-714h-130z" />
    <glyph glyph-name="Lcommaaccent" unicode="&#x13b;" horiz-adv-x="418" 
d="M165 -248l-6 42c47 5 64 22 62 59h-54v99h118v-87c0 -79 -43 -110 -120 -113zM54 0v700h134v-575h210v-125h-344z" />
    <glyph glyph-name="lcommaaccent" unicode="&#x13c;" horiz-adv-x="227" 
d="M53 -248l-6 42c47 5 64 22 62 59h-54v99h118v-87c0 -79 -43 -110 -120 -113zM48 0v714h130v-714h-130z" />
    <glyph glyph-name="Ldot" unicode="&#x13f;" horiz-adv-x="418" 
d="M277 310v118h115v-118h-115zM54 0v700h134v-575h210v-125h-344z" />
    <glyph glyph-name="ldot" unicode="&#x140;" horiz-adv-x="315" 
d="M221 308v114h100v-114h-100zM48 0v714h130v-714h-130z" />
    <glyph glyph-name="Lslash" unicode="&#x141;" horiz-adv-x="446" 
d="M302 372l-99 -50v-197h211v-125h-344v254l-51 -26v127l51 25v320h133v-252l99 52v-128z" />
    <glyph glyph-name="lslash" unicode="&#x142;" horiz-adv-x="271" 
d="M257 371l-57 -32v-339h-129v267l-57 -32v125l57 31v323h129v-251l57 32v-124z" />
    <glyph glyph-name="Nacute" unicode="&#x143;" horiz-adv-x="562" 
d="M226 742l99 139l112 -53l-113 -86h-98zM54 0v700h124l199 -382v382h131v-700h-116l-207 398v-398h-131z" />
    <glyph glyph-name="nacute" unicode="&#x144;" horiz-adv-x="464" 
d="M181 582l95 158l106 -52l-110 -106h-91zM45 0v536h130v-68c26 42 59 78 117 78c84 0 131 -64 131 -161v-385h-130v351c0 51 -22 78 -58 78s-60 -27 -60 -78v-351h-130z" />
    <glyph glyph-name="Ncaron" unicode="&#x147;" horiz-adv-x="562" 
d="M431 872l-94 -130h-114l-94 130h97l55 -51l55 51h95zM54 0v700h124l199 -382v382h131v-700h-116l-207 398v-398h-131z" />
    <glyph glyph-name="ncaron" unicode="&#x148;" horiz-adv-x="464" 
d="M382 727l-94 -145h-108l-94 145h91l58 -63l58 63h89zM45 0v536h130v-68c26 42 59 78 117 78c84 0 131 -64 131 -161v-385h-130v351c0 51 -22 78 -58 78s-60 -27 -60 -78v-351h-130z" />
    <glyph glyph-name="Ncommaaccent" unicode="&#x145;" horiz-adv-x="562" 
d="M220 -247l-6 42c47 5 64 22 62 59h-54v99h118v-87c0 -79 -43 -110 -120 -113zM54 0v700h124l199 -382v382h131v-700h-116l-207 398v-398h-131z" />
    <glyph glyph-name="ncommaaccent" unicode="&#x146;" horiz-adv-x="464" 
d="M173 -248l-6 42c47 5 64 22 62 59h-54v99h118v-87c0 -79 -43 -110 -120 -113zM45 0v536h130v-68c26 42 59 78 117 78c84 0 131 -64 131 -161v-385h-130v351c0 51 -22 78 -58 78s-60 -27 -60 -78v-351h-130z" />
    <glyph glyph-name="Ntilde" unicode="&#xd1;" horiz-adv-x="562" 
d="M355 742c-26 0 -52 11 -75 20c-19 9 -37 16 -49 16c-19 0 -27 -12 -38 -42l-73 20c17 81 42 119 93 119c26 0 54 -11 77 -21c19 -8 35 -15 47 -15c19 0 27 12 38 42l73 -19c-17 -82 -42 -120 -93 -120zM54 0v700h124l199 -382v382h131v-700h-116l-207 398v-398h-131z" />
    <glyph glyph-name="ntilde" unicode="&#xf1;" horiz-adv-x="464" 
d="M45 0v536h130v-68c26 42 59 78 117 78c84 0 131 -64 131 -161v-385h-130v351c0 51 -22 78 -58 78s-60 -27 -60 -78v-351h-130zM308 581c-25 0 -51 12 -73 21c-19 8 -36 16 -48 16c-21 0 -28 -12 -38 -43l-71 19c17 81 40 118 90 118c25 0 51 -12 73 -21
c19 -8 36 -16 48 -16c21 0 28 12 38 43l71 -19c-17 -81 -40 -118 -90 -118z" />
    <glyph glyph-name="Oacute" unicode="&#xd3;" horiz-adv-x="579" 
d="M234 745l99 139l112 -53l-113 -86h-98zM289 -11c-151 0 -254 129 -254 349v23c0 221 104 350 255 350s254 -129 254 -349v-23c0 -220 -104 -350 -255 -350zM290 112c67 0 117 73 117 231v13c0 158 -51 232 -118 232s-117 -73 -117 -231v-13c0 -158 51 -232 118 -232z" />
    <glyph glyph-name="oacute" unicode="&#xf3;" horiz-adv-x="478" 
d="M187 582l95 158l106 -52l-110 -106h-91zM239 -11c-121 0 -209 101 -209 267v21c0 166 89 268 209 268c121 0 209 -101 209 -267v-21c0 -166 -88 -268 -209 -268zM239 103c52 0 80 62 80 158v12c0 96 -29 158 -80 158c-52 0 -80 -61 -80 -158v-12c0 -95 30 -158 80 -158z
" />
    <glyph glyph-name="Obreve" unicode="&#x14e;" horiz-adv-x="579" 
d="M289 741c-80 0 -139 42 -143 125h83c7 -29 25 -43 60 -43c34 0 53 14 60 43h83c-5 -83 -63 -125 -143 -125zM289 -11c-151 0 -254 129 -254 349v23c0 221 104 350 255 350s254 -129 254 -349v-23c0 -220 -104 -350 -255 -350zM290 112c67 0 117 73 117 231v13
c0 158 -51 232 -118 232s-117 -73 -117 -231v-13c0 -158 51 -232 118 -232z" />
    <glyph glyph-name="obreve" unicode="&#x14f;" horiz-adv-x="478" 
d="M239 -11c-121 0 -209 101 -209 267v21c0 166 89 268 209 268c121 0 209 -101 209 -267v-21c0 -166 -88 -268 -209 -268zM239 103c52 0 80 62 80 158v12c0 96 -29 158 -80 158c-52 0 -80 -61 -80 -158v-12c0 -95 30 -158 80 -158zM240 577c-77 0 -136 45 -143 133h82
c6 -30 25 -51 61 -51s55 21 61 51h82c-7 -88 -66 -133 -143 -133z" />
    <glyph glyph-name="Ocircumflex" unicode="&#xd4;" horiz-adv-x="579" 
d="M289 -11c-151 0 -254 129 -254 349v23c0 221 104 350 255 350s254 -129 254 -349v-23c0 -220 -104 -350 -255 -350zM290 112c67 0 117 73 117 231v13c0 158 -51 232 -118 232s-117 -73 -117 -231v-13c0 -158 51 -232 118 -232zM138 745l94 130h114l94 -130h-97l-55 51
l-55 -51h-95z" />
    <glyph glyph-name="ocircumflex" unicode="&#xf4;" horiz-adv-x="478" 
d="M92 580l94 145h108l94 -145h-91l-58 63l-58 -63h-89zM239 -11c-121 0 -209 101 -209 267v21c0 166 89 268 209 268c121 0 209 -101 209 -267v-21c0 -166 -88 -268 -209 -268zM239 103c52 0 80 62 80 158v12c0 96 -29 158 -80 158c-52 0 -80 -61 -80 -158v-12
c0 -95 30 -158 80 -158z" />
    <glyph glyph-name="Odieresis" unicode="&#xd6;" horiz-adv-x="579" 
d="M316 747v115h122v-115h-122zM140 747v115h122v-115h-122zM289 -11c-151 0 -254 129 -254 349v23c0 221 104 350 255 350s254 -129 254 -349v-23c0 -220 -104 -350 -255 -350zM290 112c67 0 117 73 117 231v13c0 158 -51 232 -118 232s-117 -73 -117 -231v-13
c0 -158 51 -232 118 -232z" />
    <glyph glyph-name="odieresis" unicode="&#xf6;" horiz-adv-x="478" 
d="M263 584v117h120v-117h-120zM97 584v117h120v-117h-120zM239 -11c-121 0 -209 101 -209 267v21c0 166 89 268 209 268c121 0 209 -101 209 -267v-21c0 -166 -88 -268 -209 -268zM239 103c52 0 80 62 80 158v12c0 96 -29 158 -80 158c-52 0 -80 -61 -80 -158v-12
c0 -95 30 -158 80 -158z" />
    <glyph glyph-name="OE" unicode="&#x152;" horiz-adv-x="748" 
d="M327 0c-180 0 -292 127 -292 342v16c0 214 112 342 292 342h383v-124h-221v-162h194v-124h-194v-166h225v-124h-387zM328 122h27v456h-26c-94 0 -157 -67 -157 -223v-10c0 -156 63 -223 156 -223z" />
    <glyph glyph-name="oe" unicode="&#x153;" horiz-adv-x="737" 
d="M236 -11c-116 0 -206 101 -206 267v21c0 166 90 268 208 268c61 0 110 -28 144 -78c33 50 81 78 139 78c123 0 190 -109 190 -277c0 -4 0 -25 -1 -54h-258c9 -73 45 -110 99 -110c37 0 68 20 92 50l57 -96c-48 -46 -99 -69 -160 -69c-65 0 -120 28 -158 81
c-33 -52 -84 -81 -146 -81zM450 307h137c-3 81 -26 127 -67 127c-39 0 -66 -43 -70 -127zM238 103c51 0 78 62 78 158v12c0 96 -28 158 -78 158c-51 0 -79 -61 -79 -158v-12c0 -95 30 -158 79 -158z" />
    <glyph glyph-name="Ograve" unicode="&#xd2;" horiz-adv-x="579" 
d="M344 745h-98l-113 86l112 53zM289 -11c-151 0 -254 129 -254 349v23c0 221 104 350 255 350s254 -129 254 -349v-23c0 -220 -104 -350 -255 -350zM290 112c67 0 117 73 117 231v13c0 158 -51 232 -118 232s-117 -73 -117 -231v-13c0 -158 51 -232 118 -232z" />
    <glyph glyph-name="ograve" unicode="&#xf2;" horiz-adv-x="478" 
d="M239 -11c-121 0 -209 101 -209 267v21c0 166 89 268 209 268c121 0 209 -101 209 -267v-21c0 -166 -88 -268 -209 -268zM239 103c52 0 80 62 80 158v12c0 96 -29 158 -80 158c-52 0 -80 -61 -80 -158v-12c0 -95 30 -158 80 -158zM200 582l-110 106l106 52l95 -158h-91z
" />
    <glyph glyph-name="Ohungarumlaut" unicode="&#x150;" horiz-adv-x="579" 
d="M289 -11c-151 0 -254 129 -254 349v23c0 221 104 350 255 350s254 -129 254 -349v-23c0 -220 -104 -350 -255 -350zM290 112c67 0 117 73 117 231v13c0 158 -51 232 -118 232s-117 -73 -117 -231v-13c0 -158 51 -232 118 -232zM162 745l99 139l103 -53l-110 -86h-92z
M306 745l99 139l104 -53l-110 -86h-93z" />
    <glyph glyph-name="ohungarumlaut" unicode="&#x151;" horiz-adv-x="478" 
d="M255 582l94 158l100 -52l-108 -106h-86zM118 582l94 158l100 -52l-108 -106h-86zM239 -11c-121 0 -209 101 -209 267v21c0 166 89 268 209 268c121 0 209 -101 209 -267v-21c0 -166 -88 -268 -209 -268zM239 103c52 0 80 62 80 158v12c0 96 -29 158 -80 158
c-52 0 -80 -61 -80 -158v-12c0 -95 30 -158 80 -158z" />
    <glyph glyph-name="Omacron" unicode="&#x14c;" horiz-adv-x="579" 
d="M142 749v90h294v-90h-294zM289 -11c-151 0 -254 129 -254 349v23c0 221 104 350 255 350s254 -129 254 -349v-23c0 -220 -104 -350 -255 -350zM290 112c67 0 117 73 117 231v13c0 158 -51 232 -118 232s-117 -73 -117 -231v-13c0 -158 51 -232 118 -232z" />
    <glyph glyph-name="omacron" unicode="&#x14d;" horiz-adv-x="478" 
d="M102 586v87h276v-87h-276zM239 -11c-121 0 -209 101 -209 267v21c0 166 89 268 209 268c121 0 209 -101 209 -267v-21c0 -166 -88 -268 -209 -268zM239 103c52 0 80 62 80 158v12c0 96 -29 158 -80 158c-52 0 -80 -61 -80 -158v-12c0 -95 30 -158 80 -158z" />
    <glyph glyph-name="Oslash" unicode="&#xd8;" horiz-adv-x="579" 
d="M445 705h98l-59 -102c38 -59 60 -141 60 -241v-23c0 -219 -105 -350 -255 -350c-51 0 -95 15 -133 42l-22 -36h-98l59 102c-38 59 -60 140 -60 241v23c0 220 105 350 255 350c50 0 95 -15 133 -43zM290 110c70 0 119 73 119 231v17c0 39 -3 73 -9 102l-182 -315
c20 -24 44 -35 72 -35zM170 342c0 -39 3 -73 8 -102l182 315c-19 23 -44 35 -71 35c-70 0 -119 -73 -119 -231v-17z" />
    <glyph glyph-name="oslash" unicode="&#xf8;" horiz-adv-x="478" 
d="M369 542h92l-58 -89c28 -45 45 -104 45 -175v-21c0 -166 -88 -268 -209 -268c-42 0 -79 12 -110 34l-20 -31h-92l57 89c-28 44 -44 103 -44 175v21c0 166 89 268 209 268c41 0 78 -12 110 -34zM153 261c0 -19 1 -37 4 -53l131 201c-14 15 -30 24 -49 24
c-55 0 -86 -62 -86 -160v-12zM239 101c55 0 86 64 86 160v12c0 19 -2 36 -4 52l-131 -201c13 -15 30 -23 49 -23z" />
    <glyph glyph-name="Oslashacute" unicode="&#x1fe;" horiz-adv-x="579" 
d="M445 705h98l-59 -102c38 -59 60 -141 60 -241v-23c0 -219 -105 -350 -255 -350c-51 0 -95 15 -133 42l-22 -36h-98l59 102c-38 59 -60 140 -60 241v23c0 220 105 350 255 350c50 0 95 -15 133 -43zM290 110c70 0 119 73 119 231v17c0 39 -3 73 -9 102l-182 -315
c20 -24 44 -35 72 -35zM170 342c0 -39 3 -73 8 -102l182 315c-19 23 -44 35 -71 35c-70 0 -119 -73 -119 -231v-17zM234 745l99 139l112 -53l-113 -86h-98z" />
    <glyph glyph-name="oslashacute" unicode="&#x1ff;" horiz-adv-x="478" 
d="M369 542h92l-58 -89c28 -45 45 -104 45 -175v-21c0 -166 -88 -268 -209 -268c-42 0 -79 12 -110 34l-20 -31h-92l57 89c-28 44 -44 103 -44 175v21c0 166 89 268 209 268c41 0 78 -12 110 -34zM186 582l95 158l106 -52l-110 -106h-91zM153 261c0 -19 1 -37 4 -53l131 201
c-14 15 -30 24 -49 24c-55 0 -86 -62 -86 -160v-12zM239 101c55 0 86 64 86 160v12c0 19 -2 36 -4 52l-131 -201c13 -15 30 -23 49 -23z" />
    <glyph glyph-name="Otilde" unicode="&#xd5;" horiz-adv-x="579" 
d="M364 745c-26 0 -52 11 -75 20c-19 9 -37 16 -49 16c-19 0 -27 -12 -38 -42l-73 20c17 81 42 119 93 119c26 0 54 -11 77 -21c19 -8 35 -15 47 -15c19 0 27 12 38 42l73 -19c-17 -82 -42 -120 -93 -120zM289 -11c-151 0 -254 129 -254 349v23c0 221 104 350 255 350
s254 -129 254 -349v-23c0 -220 -104 -350 -255 -350zM290 112c67 0 117 73 117 231v13c0 158 -51 232 -118 232s-117 -73 -117 -231v-13c0 -158 51 -232 118 -232z" />
    <glyph glyph-name="otilde" unicode="&#xf5;" horiz-adv-x="478" 
d="M239 -11c-121 0 -209 101 -209 267v21c0 166 89 268 209 268c121 0 209 -101 209 -267v-21c0 -166 -88 -268 -209 -268zM239 103c52 0 80 62 80 158v12c0 96 -29 158 -80 158c-52 0 -80 -61 -80 -158v-12c0 -95 30 -158 80 -158zM313 581c-25 0 -51 12 -73 21
c-19 8 -36 16 -48 16c-21 0 -28 -12 -38 -43l-71 19c17 81 40 118 90 118c25 0 51 -12 73 -21c19 -8 36 -16 48 -16c21 0 28 12 38 43l71 -19c-17 -81 -40 -118 -90 -118z" />
    <glyph glyph-name="Racute" unicode="&#x154;" horiz-adv-x="518" 
d="M54 0v700h198c73 0 134 -21 175 -62c37 -37 58 -92 58 -164v-6c0 -100 -45 -162 -107 -197l123 -271h-149l-105 237h-59v-237h-134zM188 356h53c73 0 110 44 110 111c0 74 -40 110 -113 110h-50v-221zM197 742l99 139l112 -53l-113 -86h-98z" />
    <glyph glyph-name="racute" unicode="&#x155;" horiz-adv-x="309" 
d="M113 582l95 158l106 -52l-110 -106h-91zM45 0v536h130v-81c21 55 55 92 116 88v-148h-4c-72 0 -112 -46 -112 -140v-255h-130z" />
    <glyph glyph-name="Rcaron" unicode="&#x158;" horiz-adv-x="518" 
d="M54 0v700h198c73 0 134 -21 175 -62c37 -37 58 -92 58 -164v-6c0 -100 -45 -162 -107 -197l123 -271h-149l-105 237h-59v-237h-134zM188 356h53c73 0 110 44 110 111c0 74 -40 110 -113 110h-50v-221zM403 872l-94 -130h-114l-94 130h97l55 -51l55 51h95z" />
    <glyph glyph-name="rcaron" unicode="&#x159;" horiz-adv-x="309" 
d="M312 727l-94 -145h-108l-94 145h91l58 -63l58 63h89zM45 0v536h130v-81c21 55 55 92 116 88v-148h-4c-72 0 -112 -46 -112 -140v-255h-130z" />
    <glyph glyph-name="Rcommaaccent" unicode="&#x156;" horiz-adv-x="518" 
d="M54 0v700h198c73 0 134 -21 175 -62c37 -37 58 -92 58 -164v-6c0 -100 -45 -162 -107 -197l123 -271h-149l-105 237h-59v-237h-134zM188 356h53c73 0 110 44 110 111c0 74 -40 110 -113 110h-50v-221zM191 -247l-6 42c47 5 64 22 62 59h-54v99h118v-87
c0 -79 -43 -110 -120 -113z" />
    <glyph glyph-name="rcommaaccent" unicode="&#x157;" horiz-adv-x="309" 
d="M56 -248l-6 42c47 5 64 22 62 59h-54v99h118v-87c0 -79 -43 -110 -120 -113zM45 0v536h130v-81c21 55 55 92 116 88v-148h-4c-72 0 -112 -46 -112 -140v-255h-130z" />
    <glyph glyph-name="Sacute" unicode="&#x15a;" horiz-adv-x="448" 
d="M216 -7c-70 0 -147 24 -216 93l80 104c30 -29 75 -73 134 -73c49 0 78 32 78 72c0 31 -16 55 -95 102c-106 63 -168 118 -168 216v2c0 118 86 198 211 198c60 0 133 -22 189 -81l-82 -103c-25 27 -64 60 -113 60c-40 0 -70 -24 -70 -61c0 -33 16 -57 113 -117
c99 -61 150 -115 150 -208v-2c0 -120 -93 -202 -211 -202zM173 745l99 139l112 -53l-113 -86h-98z" />
    <glyph glyph-name="sacute" unicode="&#x15b;" horiz-adv-x="366" 
d="M135 582l95 158l106 -52l-110 -106h-91zM177 -10c-50 0 -115 17 -173 67l60 99c37 -32 75 -55 113 -55c35 0 49 21 49 42v1c0 29 -27 45 -83 78c-77 46 -120 87 -120 162v2c0 96 71 158 170 158c47 0 103 -17 152 -54l-57 -99c-24 21 -58 42 -95 42
c-31 0 -47 -18 -47 -39v-2c0 -26 26 -43 83 -77c82 -49 120 -93 120 -162v-2c0 -102 -75 -161 -172 -161z" />
    <glyph glyph-name="Scaron" unicode="&#x160;" horiz-adv-x="448" 
d="M216 -7c-70 0 -147 24 -216 93l80 104c30 -29 75 -73 134 -73c49 0 78 32 78 72c0 31 -16 55 -95 102c-106 63 -168 118 -168 216v2c0 118 86 198 211 198c60 0 133 -22 189 -81l-82 -103c-25 27 -64 60 -113 60c-40 0 -70 -24 -70 -61c0 -33 16 -57 113 -117
c99 -61 150 -115 150 -208v-2c0 -120 -93 -202 -211 -202zM380 875l-94 -130h-114l-94 130h97l55 -51l55 51h95z" />
    <glyph glyph-name="scaron" unicode="&#x161;" horiz-adv-x="366" 
d="M335 727l-94 -145h-108l-94 145h91l58 -63l58 63h89zM177 -10c-50 0 -115 17 -173 67l60 99c37 -32 75 -55 113 -55c35 0 49 21 49 42v1c0 29 -27 45 -83 78c-77 46 -120 87 -120 162v2c0 96 71 158 170 158c47 0 103 -17 152 -54l-57 -99c-24 21 -58 42 -95 42
c-31 0 -47 -18 -47 -39v-2c0 -26 26 -43 83 -77c82 -49 120 -93 120 -162v-2c0 -102 -75 -161 -172 -161z" />
    <glyph glyph-name="Scedilla" unicode="&#x15e;" horiz-adv-x="448" 
d="M222 -143l-110 43l64 96c-58 7 -120 34 -176 90l80 104c30 -29 75 -73 134 -73c49 0 78 32 78 72c0 31 -16 55 -95 102c-106 63 -168 118 -168 216v2c0 118 86 198 211 198c60 0 133 -22 189 -81l-82 -103c-25 27 -64 60 -113 60c-40 0 -70 -24 -70 -61
c0 -33 16 -57 113 -117c99 -61 150 -115 150 -208v-2c0 -100 -65 -173 -154 -195z" />
    <glyph glyph-name="scedilla" unicode="&#x15f;" horiz-adv-x="366" 
d="M177 -143l-110 43l64 95c-41 7 -86 26 -127 62l60 99c37 -32 75 -55 113 -55c35 0 49 21 49 42v1c0 29 -27 45 -83 78c-77 46 -120 87 -120 162v2c0 96 71 158 170 158c47 0 103 -17 152 -54l-57 -99c-24 21 -58 42 -95 42c-31 0 -47 -18 -47 -39v-2c0 -26 26 -43 83 -77
c82 -49 120 -93 120 -162v-2c0 -84 -51 -139 -123 -155z" />
    <glyph glyph-name="Scommaaccent" unicode="&#x218;" horiz-adv-x="448" 
d="M216 -7c-70 0 -147 24 -216 93l80 104c30 -29 75 -73 134 -73c49 0 78 32 78 72c0 31 -16 55 -95 102c-106 63 -168 118 -168 216v2c0 118 86 198 211 198c60 0 133 -22 189 -81l-82 -103c-25 27 -64 60 -113 60c-40 0 -70 -24 -70 -61c0 -33 16 -57 113 -117
c99 -61 150 -115 150 -208v-2c0 -120 -93 -202 -211 -202zM162 -249l-6 42c47 5 64 22 62 59h-54v99h118v-87c0 -79 -43 -110 -120 -113z" />
    <glyph glyph-name="scommaaccent" unicode="&#x219;" horiz-adv-x="366" 
d="M121 -248l-6 42c47 5 64 22 62 59h-54v99h118v-87c0 -79 -43 -110 -120 -113zM177 -10c-50 0 -115 17 -173 67l60 99c37 -32 75 -55 113 -55c35 0 49 21 49 42v1c0 29 -27 45 -83 78c-77 46 -120 87 -120 162v2c0 96 71 158 170 158c47 0 103 -17 152 -54l-57 -99
c-24 21 -58 42 -95 42c-31 0 -47 -18 -47 -39v-2c0 -26 26 -43 83 -77c82 -49 120 -93 120 -162v-2c0 -102 -75 -161 -172 -161z" />
    <glyph glyph-name="Tcaron" unicode="&#x164;" horiz-adv-x="444" 
d="M373 872l-94 -130h-114l-94 130h97l55 -51l55 51h95zM155 0v574h-133v126h400v-126h-133v-574h-134z" />
    <glyph glyph-name="tcaron" unicode="&#x165;" horiz-adv-x="304" 
d="M230 570l10 170h90v-2l-46 -168h-54zM189 -8c-69 0 -126 25 -126 121v315h-43v108h43v137h130v-137h85v-108h-85v-280c0 -28 13 -40 39 -40c15 0 31 4 45 11v-104c-23 -13 -54 -23 -88 -23z" />
    <glyph glyph-name="Tcommaaccent" unicode="&#x162;" horiz-adv-x="444" 
d="M162 -248l-6 42c47 5 64 22 62 59h-54v99h118v-87c0 -79 -43 -110 -120 -113zM155 0v574h-133v126h400v-126h-133v-574h-134z" />
    <glyph glyph-name="tcommaaccent" unicode="&#x163;" horiz-adv-x="304" 
d="M104 -248l-6 42c47 5 64 22 62 59h-54v99h118v-87c0 -79 -43 -110 -120 -113zM189 -8c-69 0 -126 25 -126 121v315h-43v108h43v137h130v-137h85v-108h-85v-280c0 -28 13 -40 39 -40c15 0 31 4 45 11v-104c-23 -13 -54 -23 -88 -23z" />
    <glyph glyph-name="Thorn" unicode="&#xde;" horiz-adv-x="492" 
d="M54 0v700h134v-98h40c146 0 242 -82 242 -238v-2c0 -160 -102 -244 -238 -244h-44v-118h-134zM188 240h35c74 0 112 48 112 119c0 77 -35 120 -111 120h-36v-239z" />
    <glyph glyph-name="thorn" unicode="&#xfe;" horiz-adv-x="486" 
d="M45 -141v855h130v-249c24 39 58 81 120 81c85 0 159 -74 159 -262v-32c0 -187 -73 -262 -159 -262c-62 0 -96 41 -120 77v-208h-130zM250 109c45 0 74 57 74 150v18c0 94 -29 150 -74 150s-76 -56 -76 -150v-18c0 -93 31 -150 76 -150z" />
    <glyph glyph-name="Uacute" unicode="&#xda;" horiz-adv-x="542" 
d="M216 742l99 139l112 -53l-113 -86h-98zM270 -10c-132 0 -222 81 -222 250v460h134v-467c0 -81 35 -119 89 -119s89 37 89 118v468h133v-459c0 -171 -90 -251 -223 -251z" />
    <glyph glyph-name="uacute" unicode="&#xfa;" horiz-adv-x="464" 
d="M178 582l95 158l106 -52l-110 -106h-91zM173 -10c-85 0 -131 64 -131 161v385h130v-351c0 -51 21 -78 57 -78s60 27 60 78v351h130v-536h-130v68c-26 -42 -59 -78 -116 -78z" />
    <glyph glyph-name="Ubreve" unicode="&#x16c;" horiz-adv-x="542" 
d="M270 732c-80 0 -139 42 -143 125h83c7 -29 25 -43 60 -43c34 0 53 14 60 43h83c-5 -83 -63 -125 -143 -125zM270 -10c-132 0 -222 81 -222 250v460h134v-467c0 -81 35 -119 89 -119s89 37 89 118v468h133v-459c0 -171 -90 -251 -223 -251z" />
    <glyph glyph-name="ubreve" unicode="&#x16d;" horiz-adv-x="464" 
d="M173 -10c-85 0 -131 64 -131 161v385h130v-351c0 -51 21 -78 57 -78s60 27 60 78v351h130v-536h-130v68c-26 -42 -59 -78 -116 -78zM231 577c-77 0 -136 45 -143 133h82c6 -30 25 -51 61 -51s55 21 61 51h82c-7 -88 -66 -133 -143 -133z" />
    <glyph glyph-name="Ucircumflex" unicode="&#xdb;" horiz-adv-x="542" 
d="M270 -10c-132 0 -222 81 -222 250v460h134v-467c0 -81 35 -119 89 -119s89 37 89 118v468h133v-459c0 -171 -90 -251 -223 -251zM119 742l94 130h114l94 -130h-97l-55 51l-55 -51h-95z" />
    <glyph glyph-name="ucircumflex" unicode="&#xfb;" horiz-adv-x="464" 
d="M83 582l94 145h108l94 -145h-91l-58 63l-58 -63h-89zM173 -10c-85 0 -131 64 -131 161v385h130v-351c0 -51 21 -78 57 -78s60 27 60 78v351h130v-536h-130v68c-26 -42 -59 -78 -116 -78z" />
    <glyph glyph-name="Udieresis" unicode="&#xdc;" horiz-adv-x="542" 
d="M297 744v115h122v-115h-122zM121 744v115h122v-115h-122zM270 -10c-132 0 -222 81 -222 250v460h134v-467c0 -81 35 -119 89 -119s89 37 89 118v468h133v-459c0 -171 -90 -251 -223 -251z" />
    <glyph glyph-name="udieresis" unicode="&#xfc;" horiz-adv-x="464" 
d="M254 584v117h120v-117h-120zM88 584v117h120v-117h-120zM173 -10c-85 0 -131 64 -131 161v385h130v-351c0 -51 21 -78 57 -78s60 27 60 78v351h130v-536h-130v68c-26 -42 -59 -78 -116 -78z" />
    <glyph glyph-name="Ugrave" unicode="&#xd9;" horiz-adv-x="542" 
d="M327 742h-98l-113 86l112 53zM270 -10c-132 0 -222 81 -222 250v460h134v-467c0 -81 35 -119 89 -119s89 37 89 118v468h133v-459c0 -171 -90 -251 -223 -251z" />
    <glyph glyph-name="ugrave" unicode="&#xf9;" horiz-adv-x="464" 
d="M173 -10c-85 0 -131 64 -131 161v385h130v-351c0 -51 21 -78 57 -78s60 27 60 78v351h130v-536h-130v68c-26 -42 -59 -78 -116 -78zM191 582l-110 106l106 52l95 -158h-91z" />
    <glyph glyph-name="Uhungarumlaut" unicode="&#x170;" horiz-adv-x="542" 
d="M270 -10c-132 0 -222 81 -222 250v460h134v-467c0 -81 35 -119 89 -119s89 37 89 118v468h133v-459c0 -171 -90 -251 -223 -251zM144 742l99 139l103 -53l-110 -86h-92zM288 742l99 139l104 -53l-110 -86h-93z" />
    <glyph glyph-name="uhungarumlaut" unicode="&#x171;" horiz-adv-x="464" 
d="M173 -10c-85 0 -131 64 -131 161v385h130v-351c0 -51 21 -78 57 -78s60 27 60 78v351h130v-536h-130v68c-26 -42 -59 -78 -116 -78zM246 582l94 158l100 -52l-108 -106h-86zM109 582l94 158l100 -52l-108 -106h-86z" />
    <glyph glyph-name="Umacron" unicode="&#x16a;" horiz-adv-x="542" 
d="M123 746v90h294v-90h-294zM270 -10c-132 0 -222 81 -222 250v460h134v-467c0 -81 35 -119 89 -119s89 37 89 118v468h133v-459c0 -171 -90 -251 -223 -251z" />
    <glyph glyph-name="umacron" unicode="&#x16b;" horiz-adv-x="464" 
d="M173 -10c-85 0 -131 64 -131 161v385h130v-351c0 -51 21 -78 57 -78s60 27 60 78v351h130v-536h-130v68c-26 -42 -59 -78 -116 -78zM93 586v87h276v-87h-276z" />
    <glyph glyph-name="Uogonek" unicode="&#x172;" horiz-adv-x="542" 
d="M342 -85v-68c-15 -3 -30 -4 -42 -4c-71 0 -110 29 -110 77c0 29 12 52 31 75c-105 18 -173 98 -173 245v460h134v-467c0 -81 35 -119 89 -119s89 37 89 118v468h133v-459c0 -154 -73 -234 -185 -248c-12 -18 -17 -32 -17 -46c0 -25 19 -34 51 -32z" />
    <glyph glyph-name="uogonek" unicode="&#x173;" horiz-adv-x="464" 
d="M173 -10c-85 0 -131 64 -131 161v385h130v-351c0 -51 21 -78 57 -78s60 27 60 78v351h130v-536h-23c-16 -21 -23 -37 -23 -53c0 -25 19 -34 51 -32v-68c-15 -3 -30 -4 -42 -4c-71 0 -110 29 -110 77c0 31 13 55 35 80h-18v68c-26 -42 -59 -78 -116 -78z" />
    <glyph glyph-name="Uring" unicode="&#x16e;" horiz-adv-x="542" 
d="M270 -10c-132 0 -222 81 -222 250v460h134v-467c0 -81 35 -119 89 -119s89 37 89 118v468h133v-459c0 -171 -90 -251 -223 -251zM270 723c-55 0 -101 39 -101 94c0 54 46 93 101 93s101 -39 101 -93c0 -55 -46 -94 -101 -94zM270 771c28 0 48 20 48 46
c0 25 -20 45 -48 45s-48 -20 -48 -45c0 -26 20 -46 48 -46z" />
    <glyph glyph-name="uring" unicode="&#x16f;" horiz-adv-x="464" 
d="M231 569c-55 0 -99 43 -99 100c0 56 44 99 99 99s99 -42 99 -99s-44 -100 -99 -100zM231 617c27 0 48 22 48 52c0 29 -21 52 -48 52s-48 -23 -48 -52c0 -30 21 -52 48 -52zM173 -10c-85 0 -131 64 -131 161v385h130v-351c0 -51 21 -78 57 -78s60 27 60 78v351h130v-536
h-130v68c-26 -42 -59 -78 -116 -78z" />
    <glyph glyph-name="Wacute" unicode="&#x1e82;" horiz-adv-x="788" 
d="M338 742l99 139l112 -53l-113 -86h-98zM168 -3l-155 703h140l86 -446l96 447h120l96 -447l86 446h137l-155 -703h-131l-95 431l-95 -431h-130z" />
    <glyph glyph-name="wacute" unicode="&#x1e83;" horiz-adv-x="643" 
d="M269 582l95 158l106 -52l-110 -106h-91zM132 -3l-116 539h131l57 -309l64 310h108l65 -310l57 309h130l-118 -539h-123l-66 305l-66 -305h-123z" />
    <glyph glyph-name="Wcircumflex" unicode="&#x174;" horiz-adv-x="788" 
d="M168 -3l-155 703h140l86 -446l96 447h120l96 -447l86 446h137l-155 -703h-131l-95 431l-95 -431h-130zM242 742l94 130h114l94 -130h-97l-55 51l-55 -51h-95z" />
    <glyph glyph-name="wcircumflex" unicode="&#x175;" horiz-adv-x="643" 
d="M173 582l94 145h108l94 -145h-91l-58 63l-58 -63h-89zM132 -3l-116 539h131l57 -309l64 310h108l65 -310l57 309h130l-118 -539h-123l-66 305l-66 -305h-123z" />
    <glyph glyph-name="Wdieresis" unicode="&#x1e84;" horiz-adv-x="788" 
d="M420 744v115h122v-115h-122zM244 744v115h122v-115h-122zM168 -3l-155 703h140l86 -446l96 447h120l96 -447l86 446h137l-155 -703h-131l-95 431l-95 -431h-130z" />
    <glyph glyph-name="wdieresis" unicode="&#x1e85;" horiz-adv-x="643" 
d="M344 584v117h120v-117h-120zM178 584v117h120v-117h-120zM132 -3l-116 539h131l57 -309l64 310h108l65 -310l57 309h130l-118 -539h-123l-66 305l-66 -305h-123z" />
    <glyph glyph-name="Wgrave" unicode="&#x1e80;" horiz-adv-x="788" 
d="M448 742h-98l-113 86l112 53zM168 -3l-155 703h140l86 -446l96 447h120l96 -447l86 446h137l-155 -703h-131l-95 431l-95 -431h-130z" />
    <glyph glyph-name="wgrave" unicode="&#x1e81;" horiz-adv-x="643" 
d="M132 -3l-116 539h131l57 -309l64 310h108l65 -310l57 309h130l-118 -539h-123l-66 305l-66 -305h-123zM282 582l-110 106l106 52l95 -158h-91z" />
    <glyph glyph-name="Yacute" unicode="&#xdd;" horiz-adv-x="506" 
d="M186 0v276l-182 424h146l104 -269l105 269h142l-181 -423v-277h-134zM197 742l99 139l112 -53l-113 -86h-98z" />
    <glyph glyph-name="yacute" unicode="&#xfd;" horiz-adv-x="445" 
d="M224 193l76 343h130l-144 -536c-29 -106 -68 -145 -143 -145c-28 0 -64 9 -93 26l26 101c14 -8 33 -15 49 -15c19 0 33 8 38 34l-149 535h133zM170 582l95 158l106 -52l-110 -106h-91z" />
    <glyph glyph-name="Ycircumflex" unicode="&#x176;" horiz-adv-x="506" 
d="M186 0v276l-182 424h146l104 -269l105 269h142l-181 -423v-277h-134zM101 742l94 130h114l94 -130h-97l-55 51l-55 -51h-95z" />
    <glyph glyph-name="ycircumflex" unicode="&#x177;" horiz-adv-x="445" 
d="M224 193l76 343h130l-144 -536c-29 -106 -68 -145 -143 -145c-28 0 -64 9 -93 26l26 101c14 -8 33 -15 49 -15c19 0 33 8 38 34l-149 535h133zM75 582l94 145h108l94 -145h-91l-58 63l-58 -63h-89z" />
    <glyph glyph-name="Ydieresis" unicode="&#x178;" horiz-adv-x="506" 
d="M186 0v276l-182 424h146l104 -269l105 269h142l-181 -423v-277h-134zM279 744v115h122v-115h-122zM103 744v115h122v-115h-122z" />
    <glyph glyph-name="ydieresis" unicode="&#xff;" horiz-adv-x="445" 
d="M224 193l76 343h130l-144 -536c-29 -106 -68 -145 -143 -145c-28 0 -64 9 -93 26l26 101c14 -8 33 -15 49 -15c19 0 33 8 38 34l-149 535h133zM246 584v117h120v-117h-120zM80 584v117h120v-117h-120z" />
    <glyph glyph-name="Ygrave" unicode="&#x1ef2;" horiz-adv-x="506" 
d="M186 0v276l-182 424h146l104 -269l105 269h142l-181 -423v-277h-134zM308 742h-98l-113 86l112 53z" />
    <glyph glyph-name="ygrave" unicode="&#x1ef3;" horiz-adv-x="445" 
d="M224 193l76 343h130l-144 -536c-29 -106 -68 -145 -143 -145c-28 0 -64 9 -93 26l26 101c14 -8 33 -15 49 -15c19 0 33 8 38 34l-149 535h133zM183 582l-110 106l106 52l95 -158h-91z" />
    <glyph glyph-name="Zacute" unicode="&#x179;" horiz-adv-x="476" 
d="M38 0v104l244 474h-236v122h393v-104l-244 -474h244v-122h-401zM187 742l99 139l112 -53l-113 -86h-98z" />
    <glyph glyph-name="zacute" unicode="&#x17a;" horiz-adv-x="386" 
d="M145 582l95 158l106 -52l-110 -106h-91zM25 0v92l189 336h-182v108h330v-92l-189 -336h189v-108h-337z" />
    <glyph glyph-name="Zcaron" unicode="&#x17d;" horiz-adv-x="476" 
d="M394 872l-94 -130h-114l-94 130h97l55 -51l55 51h95zM38 0v104l244 474h-236v122h393v-104l-244 -474h244v-122h-401z" />
    <glyph glyph-name="zcaron" unicode="&#x17e;" horiz-adv-x="386" 
d="M344 727l-94 -145h-108l-94 145h91l58 -63l58 63h89zM25 0v92l189 336h-182v108h330v-92l-189 -336h189v-108h-337z" />
    <glyph glyph-name="Zdotaccent" unicode="&#x17b;" horiz-adv-x="476" 
d="M181 744v115h124v-115h-124zM38 0v104l244 474h-236v122h393v-104l-244 -474h244v-122h-401z" />
    <glyph glyph-name="zdotaccent" unicode="&#x17c;" horiz-adv-x="386" 
d="M25 0v92l189 336h-182v108h330v-92l-189 -336h189v-108h-337zM135 584v117h122v-117h-122z" />
    <glyph glyph-name="schwa" unicode="&#x259;" horiz-adv-x="442" 
d="M197 547c121 0 217 -99 217 -269v-17c0 -166 -86 -270 -198 -270c-124 0 -191 109 -191 277c0 4 0 25 1 54h259c-9 73 -47 110 -98 110c-38 0 -68 -24 -93 -50l-57 96c48 44 99 69 160 69zM286 229h-137c3 -81 26 -127 67 -127c39 0 66 43 70 127z" />
    <glyph glyph-name="germandbls" unicode="&#xdf;" horiz-adv-x="478" 
d="M234 -2v106c58 5 88 41 88 102c0 57 -32 95 -88 107v91c41 27 65 69 65 120v1c0 50 -23 81 -59 81c-42 0 -65 -37 -65 -102v-504h-130v500c0 132 73 218 198 218c118 0 182 -80 182 -176v-6c0 -82 -35 -128 -82 -161c61 -29 107 -81 107 -169v-6
c0 -126 -78 -202 -216 -202z" />
    <glyph glyph-name="zero" unicode="0" horiz-adv-x="530" 
d="M265 -11c-144 0 -230 121 -230 348v25c0 228 88 349 231 349c141 0 229 -121 229 -348v-25c0 -228 -88 -349 -230 -349zM266 113c53 0 93 58 93 228v17c0 170 -42 229 -94 229c-54 0 -94 -58 -94 -228v-17c0 -170 41 -229 95 -229z" />
    <glyph glyph-name="one" unicode="1" horiz-adv-x="316" 
d="M120 0v563l-90 -26l-12 124l142 44h94v-705h-134z" />
    <glyph glyph-name="two" unicode="2" horiz-adv-x="458" 
d="M38 0v111l176 236c60 80 79 118 79 161c0 46 -34 75 -74 75c-42 0 -73 -27 -111 -72l-78 93c53 69 128 107 202 107c110 0 196 -69 196 -191v-2c0 -78 -27 -130 -110 -237l-120 -155h224v-126h-384z" />
    <glyph glyph-name="three" unicode="3" horiz-adv-x="448" 
d="M196 -11c-74 0 -137 27 -183 70l65 104c22 -20 58 -50 110 -50c54 0 95 37 95 97v2c0 64 -50 102 -145 102h-16l-9 87l138 174h-207v125h364v-113l-149 -177c83 -20 157 -82 157 -194v-4c0 -136 -94 -223 -220 -223z" />
    <glyph glyph-name="three.alt" horiz-adv-x="446" 
d="M199 -11c-69 0 -131 22 -185 68l64 104c26 -22 65 -48 113 -48c56 0 95 37 95 92v1c0 54 -36 94 -130 94h-32v116h32c85 0 121 39 121 93c0 50 -38 78 -83 78c-50 0 -85 -32 -104 -48l-67 95c52 48 118 77 189 77c108 0 197 -65 197 -180v-1c0 -84 -47 -137 -105 -163
c65 -25 115 -80 115 -168v-2c0 -122 -91 -208 -220 -208z" />
    <glyph glyph-name="four" unicode="4" horiz-adv-x="509" 
d="M286 0v137h-256l-10 99l267 467h125v-451h73v-115h-73v-137h-126zM154 252h132v236z" />
    <glyph glyph-name="five" unicode="5" horiz-adv-x="455" 
d="M201 -11c-65 0 -130 24 -181 70l67 105c35 -30 66 -49 110 -49c57 0 95 43 95 109v1c0 65 -45 103 -101 103c-27 0 -52 -8 -72 -18l-72 47l20 343h330v-125h-223l-8 -133c18 4 36 8 63 8c99 0 196 -62 196 -219v-3c0 -150 -97 -239 -224 -239z" />
    <glyph glyph-name="six" unicode="6" horiz-adv-x="495" 
d="M252 -11c-57 0 -104 20 -138 55c-48 50 -79 125 -79 276v9c0 265 97 382 249 382c54 0 103 -18 150 -51l-58 -111c-18 16 -54 38 -93 38c-66 0 -108 -59 -113 -172c32 23 67 37 113 37c91 0 180 -67 180 -219v-3c0 -143 -94 -241 -211 -241zM251 109c51 0 82 43 82 114v1
c0 71 -31 114 -82 114s-82 -43 -82 -114v-1c0 -71 31 -114 82 -114z" />
    <glyph glyph-name="seven" unicode="7" horiz-adv-x="449" 
d="M60 0l219 571h-245v129h383v-99l-216 -601h-141z" />
    <glyph glyph-name="eight" unicode="8" horiz-adv-x="488" 
d="M244 -11c-124 0 -215 77 -215 201v5c0 91 43 138 96 168c-47 30 -80 83 -80 154v5c0 110 82 189 199 189s199 -79 199 -189v-5c0 -71 -33 -124 -80 -154c53 -30 96 -77 96 -168v-5c0 -124 -91 -201 -215 -201zM244 99c47 0 85 37 85 103v2c0 63 -37 101 -85 101
s-85 -38 -85 -101v-2c0 -66 38 -103 85 -103zM244 416c41 0 74 36 74 95c0 60 -35 91 -74 91s-74 -31 -74 -91c0 -59 33 -95 74 -95z" />
    <glyph glyph-name="nine" unicode="9" horiz-adv-x="493" 
d="M211 113c66 0 108 59 112 163c-32 -23 -67 -36 -112 -36c-91 0 -180 68 -180 223v3c0 146 94 245 211 245c57 0 104 -20 138 -55c48 -50 79 -125 79 -276v-9c0 -265 -97 -382 -249 -382c-54 0 -106 17 -161 59l58 111c29 -24 65 -46 104 -46zM243 354c51 0 82 44 82 118
v1c0 74 -31 118 -82 118s-82 -44 -82 -118v-1c0 -74 31 -118 82 -118z" />
    <glyph glyph-name="period" unicode="." horiz-adv-x="243" 
d="M48 0v147h147v-147h-147z" />
    <glyph glyph-name="comma" unicode="," horiz-adv-x="243" 
d="M32 -162l-11 54c72 13 94 59 89 108h-62v147h147v-122c0 -116 -57 -178 -163 -187z" />
    <glyph glyph-name="colon" unicode=":" horiz-adv-x="253" 
d="M53 389v147h147v-147h-147zM53 0v147h147v-147h-147z" />
    <glyph glyph-name="semicolon" unicode=";" horiz-adv-x="253" 
d="M53 389v147h147v-147h-147zM37 -162l-11 54c72 13 94 59 89 108h-62v147h147v-122c0 -116 -57 -178 -163 -187z" />
    <glyph glyph-name="ellipsis" unicode="&#x2026;" horiz-adv-x="773" 
d="M573 0v145h146v-145h-146zM314 0v145h145v-145h-145zM54 0v145h146v-145h-146z" />
    <glyph glyph-name="periodcentered" unicode="&#xb7;" horiz-adv-x="256" 
d="M54 236v147h147v-147h-147z" />
    <glyph glyph-name="bullet" unicode="&#x2022;" horiz-adv-x="406" 
d="M203 203c-71 0 -125 55 -125 144v12c0 90 54 145 125 145c70 0 125 -55 125 -145v-12c0 -89 -55 -144 -125 -144z" />
    <glyph glyph-name="ampersand" unicode="&#x26;" horiz-adv-x="531" 
d="M423 -13l-52 69c-42 -41 -89 -66 -157 -66c-107 0 -193 76 -193 194v3c0 87 43 151 118 202c-38 58 -56 103 -56 152v5c0 89 65 165 170 165c98 0 162 -68 162 -161v-5c0 -85 -46 -141 -117 -186l74 -110c12 27 21 55 33 100l103 -30c-16 -68 -37 -123 -63 -169l75 -100z
M238 440c42 28 62 63 62 102v1c0 36 -20 62 -49 62c-31 0 -50 -27 -50 -61v-2c0 -30 11 -61 37 -102zM230 103c29 0 54 14 77 36l-105 160c-34 -29 -50 -70 -50 -105v-3c0 -52 31 -88 78 -88z" />
    <glyph glyph-name="exclam" unicode="!" horiz-adv-x="260" 
d="M95 225l-43 455v20h156v-20l-44 -455h-69zM56 0v147h147v-147h-147z" />
    <glyph glyph-name="exclamdown" unicode="&#xa1;" horiz-adv-x="260" 
d="M56 553v147h147v-147h-147zM52 0v20l43 455h69l44 -455v-20h-156z" />
    <glyph glyph-name="question" unicode="?" horiz-adv-x="403" 
d="M134 225l-15 171l4 5c82 13 125 52 125 107v2c0 45 -33 74 -78 74c-46 0 -80 -32 -97 -50l-70 96c50 46 105 76 175 76c124 0 202 -78 202 -192c0 -110 -67 -165 -146 -190l-12 -99h-88zM105 0v147h147v-147h-147z" />
    <glyph glyph-name="questiondown" unicode="&#xbf;" horiz-adv-x="403" 
d="M225 -6c-124 0 -202 78 -202 192c0 110 67 165 146 190l12 99h88l15 -171l-4 -5c-82 -13 -125 -52 -125 -107v-2c0 -45 33 -74 78 -74c46 0 80 32 97 50l70 -96c-50 -46 -105 -76 -175 -76zM151 553v147h147v-147h-147z" />
    <glyph glyph-name="quotedblleft" unicode="&#x201c;" horiz-adv-x="461" 
d="M260 395v122c0 115 57 178 163 187l11 -54c-72 -13 -94 -59 -89 -108h62v-147h-147zM46 395v122c0 115 57 178 163 187l11 -54c-72 -13 -94 -59 -89 -108h62v-147h-147z" />
    <glyph glyph-name="quotedblright" unicode="&#x201d;" horiz-adv-x="461" 
d="M252 391l-11 54c72 13 94 59 89 108h-62v147h147v-122c0 -115 -57 -178 -163 -187zM38 391l-11 54c72 13 94 59 89 108h-62v147h147v-122c0 -115 -56 -178 -163 -187z" />
    <glyph glyph-name="quoteleft" unicode="&#x2018;" horiz-adv-x="248" 
d="M46 395v122c0 115 57 178 163 187l11 -54c-72 -13 -94 -59 -89 -108h62v-147h-147z" />
    <glyph glyph-name="quoteright" unicode="&#x2019;" horiz-adv-x="248" 
d="M38 391l-11 54c72 13 94 59 89 108h-62v147h147v-122c0 -115 -56 -178 -163 -187z" />
    <glyph glyph-name="quotedblbase" unicode="&#x201e;" horiz-adv-x="483" 
d="M258 -162l-11 54c78 13 102 59 97 108h-62v147h147v-122c0 -116 -57 -177 -171 -187zM38 -162l-11 54c78 13 102 59 97 108h-62v147h147v-122c0 -116 -57 -177 -171 -187z" />
    <glyph glyph-name="quotesinglbase" unicode="&#x201a;" horiz-adv-x="263" 
d="M38 -162l-11 54c78 13 102 59 97 108h-62v147h147v-122c0 -116 -57 -177 -171 -187z" />
    <glyph glyph-name="guillemotleft" unicode="&#xab;" horiz-adv-x="525" 
d="M402 43l-156 221v8l156 221l91 -49l-106 -175l108 -175zM186 43l-156 221v8l156 221l91 -49l-106 -175l108 -175z" />
    <glyph glyph-name="guillemotright" unicode="&#xbb;" horiz-adv-x="525" 
d="M338 43l-90 49l106 175l-108 175l92 51l157 -221v-8zM123 43l-91 49l106 175l-108 175l93 51l156 -221v-8z" />
    <glyph glyph-name="guilsinglleft" unicode="&#x2039;" horiz-adv-x="309" 
d="M186 43l-156 221v8l156 221l91 -49l-106 -175l108 -175z" />
    <glyph glyph-name="guilsinglright" unicode="&#x203a;" horiz-adv-x="309" 
d="M123 43l-91 49l106 175l-108 175l93 51l156 -221v-8z" />
    <glyph glyph-name="hyphen" unicode="-" horiz-adv-x="363" 
d="M43 245v130h277v-130h-277z" />
    <glyph glyph-name="endash" unicode="&#x2013;" horiz-adv-x="483" 
d="M43 247v126h397v-126h-397z" />
    <glyph glyph-name="emdash" unicode="&#x2014;" horiz-adv-x="757" 
d="M43 247v126h671v-126h-671z" />
    <glyph glyph-name="underscore" unicode="_" horiz-adv-x="507" 
d="M-2 -154v101h511v-101h-511z" />
    <glyph glyph-name="slash" unicode="/" horiz-adv-x="390" 
d="M-16 -109l302 888h110l-302 -888h-110z" />
    <glyph glyph-name="backslash" unicode="\" horiz-adv-x="390" 
d="M296 -109l-302 888h110l302 -888h-110z" />
    <glyph glyph-name="bar" unicode="|" horiz-adv-x="286" 
d="M92 -109v888h103v-888h-103z" />
    <glyph glyph-name="parenleft" unicode="(" horiz-adv-x="353" 
d="M286 -136c-165 70 -238 224 -238 424s73 354 238 424l44 -83c-116 -65 -155 -190 -155 -341s39 -276 155 -341z" />
    <glyph glyph-name="parenright" unicode=")" horiz-adv-x="353" 
d="M67 -136l-44 83c116 65 155 190 155 341s-39 276 -155 341l44 83c165 -70 238 -224 238 -424s-73 -354 -238 -424z" />
    <glyph glyph-name="bracketleft" unicode="[" horiz-adv-x="352" 
d="M70 -130v830h243v-97h-124v-636h124v-97h-243z" />
    <glyph glyph-name="bracketright" unicode="]" horiz-adv-x="352" 
d="M39 -130v97h125v636h-125v97h243v-830h-243z" />
    <glyph glyph-name="braceleft" unicode="{" horiz-adv-x="377" 
d="M329 -141c-146 13 -202 78 -202 169c0 41 18 81 18 122c0 58 -32 85 -89 85h-23v104h23c57 0 89 27 89 85c0 41 -18 81 -18 122c0 91 56 156 202 169l17 -90c-68 -6 -102 -34 -102 -88c0 -48 20 -80 20 -127c0 -64 -46 -110 -115 -123c69 -13 115 -59 115 -123
c0 -47 -20 -79 -20 -127c0 -54 34 -82 102 -88z" />
    <glyph glyph-name="braceright" unicode="}" horiz-adv-x="377" 
d="M48 -141l-17 90c68 6 102 34 102 88c0 48 -20 80 -20 127c0 64 46 110 115 123c-69 13 -115 59 -115 123c0 47 20 79 20 127c0 54 -34 82 -102 88l17 90c146 -13 202 -78 202 -169c0 -41 -18 -81 -18 -122c0 -58 32 -85 89 -85h23v-104h-23c-57 0 -89 -27 -89 -85
c0 -41 18 -81 18 -122c0 -91 -56 -156 -202 -169z" />
    <glyph glyph-name="at" unicode="@" horiz-adv-x="763" 
d="M372 -146c-191 0 -337 146 -335 383c0 248 150 474 372 474c184 0 316 -158 316 -338c0 -169 -68 -306 -179 -306c-70 0 -105 34 -119 73c-29 -41 -67 -71 -117 -71c-67 0 -121 52 -121 147c0 156 82 292 176 292c52 0 80 -32 96 -66l10 55l105 -17l-45 -260
c-4 -17 -6 -34 -6 -53c0 -34 17 -52 47 -52c60 0 110 115 110 261c0 156 -110 294 -276 294c-193 0 -326 -210 -326 -436c-1 -207 121 -340 296 -340c68 0 125 16 182 50l21 -34c-63 -38 -125 -56 -207 -56zM348 159c15 0 29 6 41 19c31 31 50 116 50 164s-22 67 -50 67
c-15 0 -29 -6 -41 -19c-31 -31 -50 -116 -50 -164s22 -67 50 -67z" />
    <glyph glyph-name="copyright" unicode="&#xa9;" horiz-adv-x="636" 
d="M318 -11c-164 0 -283 144 -283 350v22c0 206 120 350 283 350c164 0 283 -144 283 -350v-22c0 -206 -120 -350 -283 -350zM318 27c145 0 244 130 244 312v23c0 182 -98 311 -244 311c-145 0 -244 -130 -244 -312v-23c0 -182 98 -311 244 -311zM327 153
c-86 0 -142 69 -142 193v12c0 128 63 194 145 194c41 0 68 -13 93 -35l-40 -62c-13 13 -28 25 -52 25c-37 0 -69 -37 -69 -123v-8c0 -88 32 -124 71 -124c19 0 34 9 52 29l38 -59c-29 -33 -64 -42 -96 -42z" />
    <glyph glyph-name="published" unicode="&#x2117;" horiz-adv-x="636" 
d="M318 -11c-164 0 -283 144 -283 350v22c0 206 120 350 283 350c164 0 283 -144 283 -350v-22c0 -206 -120 -350 -283 -350zM318 27c145 0 244 130 244 312v23c0 182 -98 311 -244 311c-145 0 -244 -130 -244 -312v-23c0 -182 98 -311 244 -311zM222 164v385h96
c80 0 133 -45 133 -130v-2c0 -88 -56 -131 -131 -134h-24v-119h-74zM296 350h22c35 0 59 24 59 66c0 45 -22 66 -59 66h-22v-132z" />
    <glyph glyph-name="registered.alt" horiz-adv-x="636" 
d="M318 -11c-164 0 -283 144 -283 350v22c0 206 120 350 283 350c164 0 283 -144 283 -350v-22c0 -206 -120 -350 -283 -350zM318 27c145 0 244 130 244 312v23c0 182 -98 311 -244 311c-145 0 -244 -130 -244 -312v-23c0 -182 98 -311 244 -311zM206 165v385h108
c41 0 75 -11 98 -34c21 -21 32 -51 32 -90v-4c0 -54 -25 -89 -59 -107l67 -150h-81l-58 131h-33v-131h-74zM280 361h31c36 0 59 22 59 62c0 44 -25 60 -61 60h-29v-122z" />
    <glyph glyph-name="registered" unicode="&#xae;" horiz-adv-x="333" 
d="M166 357c-83 0 -144 72 -144 173v11c0 101 61 173 144 173c84 0 145 -72 145 -173v-10c0 -102 -61 -174 -145 -174zM166 378c73 0 122 65 122 153v10c0 88 -49 152 -122 152c-72 0 -121 -65 -121 -152v-11c0 -87 48 -152 121 -152zM108 444v189h58c41 0 68 -20 68 -61v-2
c0 -27 -13 -45 -30 -54l34 -72h-45l-30 62h-14v-62h-41zM149 541h15c17 0 28 11 28 28c0 19 -11 28 -28 28h-15v-56z" />
    <glyph glyph-name="servicemark" unicode="&#x2120;" horiz-adv-x="538" 
d="M257 388v312h70l52 -114l53 114h69v-312h-64v197l-57 -126h-3l-56 126v-197h-64zM114 384c-35 0 -68 12 -100 38l30 53c17 -14 44 -33 70 -33c21 0 33 11 33 28c0 16 -10 24 -43 43c-51 29 -79 51 -79 99c0 55 41 91 99 91c31 0 62 -10 88 -32l-31 -53
c-14 11 -33 26 -57 26c-22 0 -33 -12 -33 -26c0 -16 10 -23 43 -43c53 -32 79 -55 79 -101c0 -55 -43 -90 -99 -90z" />
    <glyph glyph-name="trademark" unicode="&#x2122;" horiz-adv-x="527" 
d="M246 388v312h70l52 -114l53 114h69v-312h-64v197l-57 -126h-3l-56 126v-197h-64zM78 388v250h-59v62h184v-62h-59v-250h-66z" />
    <glyph glyph-name="asterisk" unicode="*" horiz-adv-x="347" 
d="M133 386l17 115l-82 -69l-41 71l99 40l-99 41l41 71l82 -69l-17 115h81l-17 -115l82 69l41 -71l-99 -41l99 -40l-41 -71l-82 69l17 -115h-81z" />
    <glyph glyph-name="dagger" unicode="&#x2020;" horiz-adv-x="302" 
d="M110 238l12 271l-91 -10v81l90 -11l-14 131h88l-14 -131l90 11v-81l-91 10l12 -271h-82z" />
    <glyph glyph-name="daggerdbl" unicode="&#x2021;" horiz-adv-x="320" 
d="M116 0l14 130l-90 -10v81l91 -11l-13 160l13 159l-91 -10v81l90 -11l-14 131h88l-14 -131l90 11v-81l-91 10l13 -159l-13 -160l91 11v-81l-90 10l14 -130h-88z" />
    <glyph glyph-name="dollar" unicode="$" horiz-adv-x="460" 
d="M434 622l-80 -96c-28 30 -62 58 -110 58c-46 0 -71 -29 -71 -62c0 -38 20 -58 107 -115c108 -69 150 -129 150 -216v-1c0 -99 -63 -169 -153 -189v-105h-88v102c-61 7 -127 35 -177 95l79 98c32 -38 79 -75 135 -75c47 0 73 31 73 69v1c0 30 -16 57 -87 100
c-128 77 -170 134 -170 226v1c0 96 59 165 147 185v70h88v-66c55 -7 113 -32 157 -80z" />
    <glyph glyph-name="sterling" unicode="&#xa3;" horiz-adv-x="459" 
d="M36 0v88l59 25v162h-57v117h57v102c0 75 18 129 56 165c33 32 81 50 128 50c65 0 122 -24 161 -74l-82 -93c-14 17 -34 37 -66 37c-13 0 -29 -4 -40 -15c-15 -14 -21 -40 -21 -73v-99h143v-117h-143v-156h201v-119h-396z" />
    <glyph glyph-name="Euro" unicode="&#x20ac;" horiz-adv-x="505" 
d="M485 642l-76 -98c-13 16 -34 41 -74 41c-41 0 -79 -31 -97 -104h132v-94h-145v-28v-17v-25h145v-94h-134c18 -81 58 -108 98 -108c38 0 64 26 78 44l73 -96c-43 -47 -94 -74 -156 -74c-116 0 -201 79 -230 234h-71v94h61v24v17v29h-61v94h73c30 151 117 230 232 230
c65 0 106 -24 152 -69z" />
    <glyph glyph-name="yen" unicode="&#xa5;" horiz-adv-x="507" 
d="M66 254v98h93l-148 348h143l101 -275l102 275h139l-149 -348h94v-98h-123v-61h123v-98h-123v-95h-129v95h-123v98h123v61h-123z" />
    <glyph glyph-name="cent" unicode="&#xa2;" horiz-adv-x="404" 
d="M302 705l-7 -80c33 -8 59 -23 85 -44l-60 -108c-13 15 -34 37 -69 37c-52 0 -88 -52 -88 -157v-3c0 -104 34 -154 87 -154c27 0 46 11 72 36l60 -99c-35 -33 -72 -54 -126 -58l-6 -81h-88l7 94c-82 32 -136 123 -136 254v21c0 149 71 246 174 265l6 77h89z" />
    <glyph glyph-name="baht" unicode="&#xe3f;" horiz-adv-x="489" 
d="M242 788h86l-12 -99c81 -22 138 -76 138 -168v-4c0 -88 -50 -132 -102 -156c64 -29 114 -70 114 -161v-6c0 -122 -92 -190 -226 -194l-12 -121h-86l13 121h-109v700h179h7zM174 118h62c61 0 101 33 101 89v3c0 55 -39 89 -102 89h-61v-181zM174 407h56c59 0 97 31 97 89
v1c0 56 -36 85 -94 85h-59v-175z" />
    <glyph glyph-name="colonmonetary" unicode="&#x20a1;" horiz-adv-x="440" 
d="M349 779h49l-12 -98c16 -7 30 -15 45 -26l-62 -107c-25 20 -45 34 -84 34c-71 0 -125 -62 -125 -226v-16c0 -172 54 -222 127 -222c33 0 51 10 83 34l57 -98c-34 -26 -66 -48 -117 -54l-13 -118h-49l14 115c-21 1 -40 5 -59 11l-14 -126h-48l17 146
c-77 48 -128 151 -128 313v18c0 207 86 316 202 339l10 81h48l-8 -76c20 0 39 -2 58 -6z" />
    <glyph glyph-name="florin" unicode="&#x192;" horiz-adv-x="408" 
d="M79 -5c-25 0 -41 2 -57 6v112c10 -2 19 -3 30 -3c30 0 48 15 53 55l20 190h-53v107h66l9 89c12 100 64 154 159 154c38 0 63 -4 82 -9v-115c-16 5 -32 8 -50 8c-36 0 -59 -20 -64 -65l-6 -62h94v-107h-106l-23 -209c-13 -110 -65 -151 -154 -151z" />
    <glyph glyph-name="naira" unicode="&#x20a6;" horiz-adv-x="646" 
d="M629 194h-86v-194h-124l-103 221h2l-85 188h-2v-188h1v-221h-129v194h-86v100h86v116h-86v100h86v190h132l91 -196h-1l88 -196h2v196h-1v196h129v-190h86v-100h-86v-116h86v-100z" />
    <glyph glyph-name="peso" unicode="&#x20b1;" horiz-adv-x="579" 
d="M98 0v403h-86v98h86v199h163c131 0 221 -71 238 -199h86v-98h-87c-21 -125 -114 -189 -234 -194h-33v-209h-133zM260 328c65 0 109 46 109 125c0 86 -42 127 -109 127h-30v-252h30z" />
    <glyph glyph-name="R_p" horiz-adv-x="895" 
d="M47 0v700h165c134 0 221 -76 221 -225v-6c0 -103 -42 -160 -97 -194l113 -275h-140l-92 241h-45v-241h-125zM497 -141v677h121v-70c21 37 52 80 110 80c78 0 143 -71 143 -260v-36c0 -188 -65 -260 -143 -260c-59 0 -88 42 -110 76v-207h-121zM681 104c40 0 63 53 63 147
v34c0 94 -23 147 -63 147c-39 0 -64 -53 -64 -147v-34c0 -93 25 -147 64 -147zM172 354h37c57 0 99 39 99 115v1c0 83 -44 113 -101 113h-35v-229z" />
    <glyph glyph-name="rupee" unicode="&#x20a8;" horiz-adv-x="806" 
d="M47 0v700h165c134 0 221 -76 221 -225v-6c0 -103 -42 -160 -97 -194l113 -275h-140l-92 241h-45v-241h-125zM626 -10c-52 0 -111 18 -165 69l60 92c38 -36 69 -54 102 -54c32 0 51 19 51 46v1c0 22 -10 39 -74 81c-72 46 -115 88 -115 164v2c0 95 67 153 159 153
c44 0 98 -12 147 -54l-57 -95c-21 16 -50 42 -87 42c-28 0 -47 -18 -47 -42v-1c0 -22 11 -37 77 -81c80 -54 113 -93 113 -161v-2c0 -99 -69 -160 -164 -160zM172 354h37c57 0 99 39 99 115v1c0 83 -44 113 -101 113h-35v-229z" />
    <glyph glyph-name="won" unicode="&#x20a9;" horiz-adv-x="846" 
d="M788 700l-38 -194h83v-101h-102l-21 -107h123v-102h-142l-38 -198h-145l-45 238v7l-39 211h-2l-40 -211v-7l-45 -238h-145l-38 198h-141v101h121l-20 108h-101v101h81l-37 194h140l34 -216l1 -11l37 -239h2l45 245v8l41 214h135l40 -216l1 -8l44 -243h3l37 242l1 10
l33 214h137z" />
    <glyph glyph-name="sheqel" unicode="&#x20aa;" horiz-adv-x="519" 
d="M188 139l-21 183h66l15 -125c6 -52 29 -74 69 -74h65v413h93v-536h-159c-73 0 -118 44 -128 139zM277 338c0 49 -20 75 -59 75h-80v-413h-94v536h193c62 0 105 -47 105 -126v-196h-65v124z" />
    <glyph glyph-name="numbersign" unicode="#" horiz-adv-x="497" 
d="M451 272v-116h-82l-18 -156h-97l18 156h-94l-18 -156h-98l18 156h-59v116h73l19 160h-68v116h82l18 152h98l-18 -152h94l17 152h98l-18 -152h59v-116h-73l-19 -160h68zM209 434l-19 -164h97l19 164h-97z" />
    <glyph glyph-name="paragraph" unicode="&#xb6;" horiz-adv-x="445" 
d="M254 0v226h-9c-118 7 -223 79 -223 236v2c0 163 107 236 247 236h119v-700h-134z" />
    <glyph glyph-name="section" unicode="&#xa7;" horiz-adv-x="492" 
d="M375 228c24 -24 36 -56 36 -89v-2c0 -90 -70 -147 -174 -147c-57 0 -116 18 -161 53l55 92c18 -13 60 -37 101 -37c34 0 54 16 54 38c0 25 -18 40 -96 70c-98 38 -159 73 -159 148v2c0 53 34 95 86 116c-24 24 -36 56 -36 89v2c0 90 70 147 174 147c57 0 116 -18 161 -53
l-55 -92c-18 13 -60 37 -101 37c-34 0 -54 -16 -54 -38c0 -25 18 -40 96 -70c98 -38 159 -72 159 -148v-2c0 -53 -34 -95 -86 -116zM294 283c24 0 47 20 47 45v1c0 30 -30 47 -74 67c-33 15 -49 21 -69 21c-24 0 -47 -20 -47 -45v-1c0 -30 30 -47 74 -67
c33 -15 49 -21 69 -21z" />
    <glyph glyph-name="ordfeminine" unicode="&#xaa;" horiz-adv-x="302" 
d="M115 401c-41 0 -72 33 -72 88v6c0 66 34 94 85 94c19 0 35 -5 51 -12v13c0 32 -19 49 -48 49c-21 0 -42 -10 -53 -19l-24 59c22 13 53 25 90 25c32 0 56 -8 75 -26c20 -18 30 -48 30 -86v-186h-71v32c-15 -23 -34 -37 -63 -37zM38 293v54h220v-54h-220zM141 457
c22 0 39 14 39 37v37c-9 3 -22 8 -33 8c-22 0 -35 -12 -35 -40v-5c0 -26 12 -37 29 -37z" />
    <glyph glyph-name="ordmasculine" unicode="&#xba;" horiz-adv-x="302" 
d="M151 400c-66 0 -114 56 -114 146v12c0 91 48 147 114 147s114 -56 114 -146v-12c0 -91 -49 -147 -114 -147zM41 293v54h220v-54h-220zM151 462c27 0 43 34 43 86v9c0 52 -16 85 -43 85s-43 -32 -43 -85v-9c0 -52 16 -86 43 -86z" />
    <glyph glyph-name="degree" unicode="&#xb0;" horiz-adv-x="350" 
d="M175 364c-76 0 -134 65 -134 167v8c0 102 58 167 134 167c77 0 135 -65 135 -167v-8c0 -102 -58 -167 -135 -167zM175 440c33 0 56 33 56 94v2c0 62 -23 94 -56 94s-56 -32 -56 -94v-2c0 -61 23 -94 56 -94z" />
    <glyph glyph-name="percent" unicode="%" horiz-adv-x="677" 
d="M165 339c-80 0 -133 71 -133 176v15c0 105 54 177 134 177s133 -72 133 -177v-14c0 -105 -53 -177 -134 -177zM165 622c-27 0 -42 -32 -42 -95v-8c0 -64 16 -96 43 -96c28 0 43 32 43 96v7c0 64 -17 96 -44 96zM309 369l183 331h89l-211 -369l-184 -331h-89zM511 -7
c-80 0 -133 72 -133 177v14c0 106 53 177 134 177c80 0 133 -71 133 -176v-15c0 -105 -53 -177 -134 -177zM512 78c27 0 42 32 42 95v8c0 64 -16 96 -43 96s-43 -32 -43 -96v-7c0 -64 17 -96 44 -96z" />
    <glyph glyph-name="perthousand" unicode="&#x2030;" horiz-adv-x="981" 
d="M166 423c28 0 43 32 43 96v7c0 64 -17 96 -44 96s-42 -32 -42 -95v-8c0 -64 16 -96 43 -96zM165 339c-80 0 -133 71 -133 176v15c0 105 54 177 134 177s133 -72 133 -177v-14c0 -105 -53 -177 -134 -177zM581 700l-211 -369l-184 -331h-89l212 369l183 331h89zM512 78
c27 0 42 32 42 95v8c0 64 -16 96 -43 96s-43 -32 -43 -96v-7c0 -64 17 -96 44 -96zM511 -7c-80 0 -133 72 -133 177v14c0 106 53 177 134 177c80 0 133 -71 133 -176v-15c0 -105 -53 -177 -134 -177zM816 78c27 0 42 32 42 95v8c0 64 -16 96 -43 96c-28 0 -43 -32 -43 -96
v-7c0 -64 17 -96 44 -96zM815 -7c-80 0 -133 72 -133 177v14c0 106 53 177 134 177c80 0 133 -71 133 -176v-15c0 -105 -54 -177 -134 -177z" />
    <glyph glyph-name="quotedbl" unicode="&#x22;" horiz-adv-x="410" 
d="M241 381l6 319h138v-8l-88 -311h-56zM49 381l7 319h138v-8l-88 -311h-57z" />
    <glyph glyph-name="quotesingle" unicode="'" horiz-adv-x="219" 
d="M49 381l7 319h139v-8l-89 -311h-57z" />
    <glyph glyph-name="plus" unicode="+" horiz-adv-x="476" 
d="M177 147v144h-138v122h138v144h122v-144h138v-122h-138v-144h-122z" />
    <glyph glyph-name="minus" unicode="&#x2212;" horiz-adv-x="476" 
d="M436 288h-396v128h396v-128z" />
    <glyph glyph-name="divide" unicode="&#xf7;" horiz-adv-x="476" 
d="M173 472v126h130v-126h-130zM436 294h-396v116h396v-116zM173 106v126h130v-126h-130z" />
    <glyph glyph-name="equal" unicode="=" horiz-adv-x="476" 
d="M42 397v127h392v-127h-392zM42 180v127h392v-127h-392z" />
    <glyph glyph-name="multiply" unicode="&#xd7;" horiz-adv-x="476" 
d="M350 145l-112 123l-113 -123l-89 78l123 129l-123 128l90 79l112 -123l113 123l89 -78l-123 -129l123 -128z" />
    <glyph glyph-name="less" unicode="&#x3c;" horiz-adv-x="476" 
d="M422 93l-379 199v120l379 199v-141l-246 -117l246 -117v-143z" />
    <glyph glyph-name="greater" unicode="&#x3e;" horiz-adv-x="476" 
d="M54 93v141l246 117l-246 117v143l379 -199v-120z" />
    <glyph glyph-name="plusminus" unicode="&#xb1;" horiz-adv-x="476" 
d="M435 326h-137v-142h-120l1 142h-138v121l138 -1l-1 143h120v-143l137 1v-121zM434 0h-392v114h392v-114z" />
    <glyph glyph-name="onehalf" unicode="&#xbd;" horiz-adv-x="620" 
d="M355 0v68l97 114c30 36 46 53 46 77c0 23 -17 38 -39 38c-23 0 -40 -13 -68 -38l-41 56c37 38 71 57 117 57c67 0 113 -39 113 -103c0 -35 -10 -63 -52 -111l-74 -84h126v-74h-225zM76 0l188 366l163 334h70l-188 -366l-163 -334h-70zM182 335h-83v283l-60 -26l-9 74
l92 38h60v-369z" />
    <glyph glyph-name="onehalf.alt" horiz-adv-x="675" 
d="M268 335h-224v68h76v217l-70 -28l-9 73l101 39h59v-301h67v-68zM416 0v68l97 114c30 36 46 53 46 77c0 23 -17 38 -39 38c-23 0 -40 -13 -68 -38l-41 56c37 38 71 57 117 57c67 0 113 -39 113 -103c0 -35 -10 -63 -52 -111l-74 -84h126v-74h-225zM140 0l188 366l163 334
h70l-188 -366l-163 -334h-70z" />
    <glyph glyph-name="onethird" unicode="&#x2153;" horiz-adv-x="620" 
d="M466 -7c-47 0 -83 17 -111 40l36 62c18 -14 42 -29 72 -29c28 0 47 17 47 45c0 29 -26 43 -73 44h-18l-6 53l77 84h-117v73h213v-60l-85 -91c51 -9 90 -39 90 -101c0 -73 -49 -120 -125 -120zM182 335h-83v283l-60 -26l-9 74l92 38h60v-369zM72 0l188 366l163 334h70
l-188 -366l-163 -334h-70z" />
    <glyph glyph-name="onethird.alt" horiz-adv-x="675" 
d="M268 335h-224v68h76v217l-70 -28l-9 73l101 39h59v-301h67v-68zM520 -7c-47 0 -83 17 -111 40l36 62c18 -14 42 -29 72 -29c28 0 47 17 47 45c0 29 -26 43 -73 44h-18l-6 53l77 84h-117v73h213v-60l-85 -91c51 -9 90 -39 90 -101c0 -73 -49 -120 -125 -120zM133 0
l188 366l163 334h70l-188 -366l-163 -334h-70z" />
    <glyph glyph-name="twothirds" unicode="&#x2154;" horiz-adv-x="675" 
d="M526 -7c-47 0 -83 17 -111 40l36 62c18 -14 42 -29 72 -29c28 0 47 17 47 45c0 29 -26 43 -73 44h-18l-6 53l77 84h-117v73h213v-60l-85 -91c51 -9 90 -39 90 -101c0 -73 -49 -120 -125 -120zM33 335v68l97 114c30 36 46 53 46 77c0 23 -17 38 -39 38
c-23 0 -40 -13 -68 -38l-41 56c37 38 71 57 117 57c67 0 113 -39 113 -103c0 -35 -10 -63 -52 -111l-74 -84h126v-74h-225zM128 0l188 366l163 334h70l-188 -366l-163 -334h-70z" />
    <glyph glyph-name="onequarter" unicode="&#xbc;" horiz-adv-x="620" 
d="M182 335h-83v283l-60 -26l-9 74l92 38h60v-369zM89 0l188 366l163 334h70l-188 -366l-163 -334h-70zM554 70v-71h-73v71h-143l-3 72l123 226h96v-232h36v-66h-36zM484 136v144h-4l-79 -144h83z" />
    <glyph glyph-name="onequarter.alt" horiz-adv-x="675" 
d="M271 335h-224v68h76v217l-70 -28l-9 73l101 39h59v-301h67v-68zM148 0l188 366l163 334h70l-188 -366l-163 -334h-70zM611 70v-71h-73v71h-143l-3 72l123 226h96v-232h36v-66h-36zM541 136v144h-4l-79 -144h83z" />
    <glyph glyph-name="threequarters" unicode="&#xbe;" horiz-adv-x="675" 
d="M614 70v-71h-73v71h-143l-3 72l123 226h96v-232h36v-66h-36zM544 136v144h-4l-79 -144h83zM143 0l188 366l163 334h70l-188 -366l-163 -334h-70zM141 328c-47 0 -83 17 -111 40l36 62c18 -14 42 -29 72 -29c28 0 47 17 47 45c0 29 -26 43 -73 44h-18l-6 53l77 84h-117v73
h213v-60l-85 -91c51 -9 90 -39 90 -101c0 -73 -49 -120 -125 -120z" />
    <glyph glyph-name="onefifth" unicode="&#x2155;" horiz-adv-x="620" 
d="M458 -7c-40 0 -73 12 -111 41l37 63c23 -18 44 -31 71 -31c33 0 49 21 49 52c0 30 -17 45 -48 45c-18 0 -32 -5 -45 -10l-47 24l15 188h189v-73h-125l-5 -64c12 3 23 5 38 5c60 0 109 -35 109 -112c0 -81 -52 -128 -127 -128zM182 335h-83v283l-60 -26l-9 74l92 38h60
v-369zM71 0l188 366l163 334h70l-188 -366l-163 -334h-70z" />
    <glyph glyph-name="onefifth.alt" horiz-adv-x="675" 
d="M268 335h-224v68h76v217l-70 -28l-9 73l101 39h59v-301h67v-68zM519 -7c-40 0 -73 12 -111 41l37 63c23 -18 44 -31 71 -31c33 0 49 21 49 52c0 30 -17 45 -48 45c-18 0 -32 -5 -45 -10l-47 24l15 188h189v-73h-125l-5 -64c12 3 23 5 38 5c60 0 109 -35 109 -112
c0 -81 -52 -128 -127 -128zM138 0l188 366l163 334h70l-188 -366l-163 -334h-70z" />
    <glyph glyph-name="twofifths" unicode="&#x2156;" horiz-adv-x="675" 
d="M522 -7c-40 0 -73 12 -111 41l37 63c23 -18 44 -31 71 -31c33 0 49 21 49 52c0 30 -17 45 -48 45c-18 0 -32 -5 -45 -10l-47 24l15 188h189v-73h-125l-5 -64c12 3 23 5 38 5c60 0 109 -35 109 -112c0 -81 -52 -128 -127 -128zM135 0l188 366l163 334h70l-188 -366
l-163 -334h-70zM33 335v68l97 114c30 36 46 53 46 77c0 23 -17 38 -39 38c-23 0 -40 -13 -68 -38l-41 56c37 38 71 57 117 57c67 0 113 -39 113 -103c0 -35 -10 -63 -52 -111l-74 -84h126v-74h-225z" />
    <glyph glyph-name="threefifths" unicode="&#x2157;" horiz-adv-x="675" 
d="M522 -7c-40 0 -73 12 -111 41l37 63c23 -18 44 -31 71 -31c33 0 49 21 49 52c0 30 -17 45 -48 45c-18 0 -32 -5 -45 -10l-47 24l15 188h189v-73h-125l-5 -64c12 3 23 5 38 5c60 0 109 -35 109 -112c0 -81 -52 -128 -127 -128zM124 0l188 366l163 334h70l-188 -366
l-163 -334h-70zM141 328c-47 0 -83 17 -111 40l36 62c18 -14 42 -29 72 -29c28 0 47 17 47 45c0 29 -26 43 -73 44h-18l-6 53l77 84h-117v73h213v-60l-85 -91c51 -9 90 -39 90 -101c0 -73 -49 -120 -125 -120z" />
    <glyph glyph-name="fourfifths" unicode="&#x2158;" horiz-adv-x="675" 
d="M236 405v-71h-73v71h-143l-3 72l123 226h96v-232h36v-66h-36zM166 471v144h-4l-79 -144h83zM522 -7c-40 0 -73 12 -111 41l37 63c23 -18 44 -31 71 -31c33 0 49 21 49 52c0 30 -17 45 -48 45c-18 0 -32 -5 -45 -10l-47 24l15 188h189v-73h-125l-5 -64c12 3 23 5 38 5
c60 0 109 -35 109 -112c0 -81 -52 -128 -127 -128zM131 0l188 366l163 334h70l-188 -366l-163 -334h-70z" />
    <glyph glyph-name="onesixth" unicode="&#x2159;" horiz-adv-x="620" 
d="M466 -7c-31 0 -58 11 -78 30c-27 26 -43 67 -43 142v9c0 136 55 198 138 198c36 0 64 -11 90 -28l-31 -64c-9 7 -35 20 -60 20c-34 0 -57 -22 -60 -79c15 12 35 19 62 19c49 0 99 -31 99 -117c0 -82 -52 -130 -117 -130zM78 0l188 366l163 334h70l-188 -366l-163 -334
h-70zM182 335h-83v283l-60 -26l-9 74l92 38h60v-369zM466 63c26 0 43 20 43 57c0 36 -18 54 -43 54s-43 -17 -43 -54s18 -57 43 -57z" />
    <glyph glyph-name="onesixth.alt" horiz-adv-x="675" 
d="M532 -7c-31 0 -58 11 -78 30c-27 26 -43 67 -43 142v9c0 136 55 198 138 198c36 0 64 -11 90 -28l-31 -64c-9 7 -35 20 -60 20c-34 0 -57 -22 -60 -79c15 12 35 19 62 19c49 0 99 -31 99 -117c0 -82 -52 -130 -117 -130zM141 0l188 366l163 334h70l-188 -366l-163 -334
h-70zM268 335h-224v68h76v217l-70 -28l-9 73l101 39h59v-301h67v-68zM532 63c26 0 43 20 43 57c0 36 -18 54 -43 54s-43 -17 -43 -54s18 -57 43 -57z" />
    <glyph glyph-name="fivesixths" unicode="&#x215a;" horiz-adv-x="675" 
d="M525 -7c-31 0 -58 11 -78 30c-27 26 -43 67 -43 142v9c0 136 55 198 138 198c36 0 64 -11 90 -28l-31 -64c-9 7 -35 20 -60 20c-34 0 -57 -22 -60 -79c15 12 35 19 62 19c49 0 99 -31 99 -117c0 -82 -52 -130 -117 -130zM138 328c-40 0 -73 12 -111 41l37 63
c23 -18 44 -31 71 -31c33 0 49 21 49 52c0 30 -17 45 -48 45c-18 0 -32 -5 -45 -10l-47 24l15 188h189v-73h-125l-5 -64c12 3 23 5 38 5c60 0 109 -35 109 -112c0 -81 -52 -128 -127 -128zM126 0l188 366l163 334h70l-188 -366l-163 -334h-70zM525 63c26 0 43 20 43 57
c0 36 -18 54 -43 54s-43 -17 -43 -54s18 -57 43 -57z" />
    <glyph glyph-name="oneeighth" unicode="&#x215b;" horiz-adv-x="620" 
d="M465 -7c-72 0 -123 43 -123 108c0 45 23 74 51 91c-25 16 -43 42 -43 80c0 59 48 100 115 100s115 -41 115 -100c0 -38 -18 -64 -43 -80c28 -17 51 -46 51 -91c0 -65 -51 -108 -123 -108zM465 311c-24 0 -41 -17 -41 -45c0 -29 17 -45 41 -45s41 16 41 45
c0 28 -17 45 -41 45zM465 158c-26 0 -46 -19 -46 -52s19 -52 46 -52s46 19 46 52s-20 52 -46 52zM182 335h-83v283l-60 -26l-9 74l92 38h60v-369zM71 0l188 366l163 334h70l-188 -366l-163 -334h-70z" />
    <glyph glyph-name="oneeighth.alt" horiz-adv-x="675" 
d="M265 335h-224v68h76v217l-70 -28l-9 73l101 39h59v-301h67v-68zM531 -7c-72 0 -123 43 -123 108c0 45 23 74 51 91c-25 16 -43 42 -43 80c0 59 48 100 115 100s115 -41 115 -100c0 -38 -18 -64 -43 -80c28 -17 51 -46 51 -91c0 -65 -51 -108 -123 -108zM531 311
c-24 0 -41 -17 -41 -45c0 -29 17 -45 41 -45s41 16 41 45c0 28 -17 45 -41 45zM531 158c-26 0 -46 -19 -46 -52s19 -52 46 -52s46 19 46 52s-20 52 -46 52zM138 0l188 366l163 334h70l-188 -366l-163 -334h-70z" />
    <glyph glyph-name="threeeighths" unicode="&#x215c;" horiz-adv-x="675" 
d="M529 -7c-72 0 -123 43 -123 108c0 45 23 74 51 91c-25 16 -43 42 -43 80c0 59 48 100 115 100s115 -41 115 -100c0 -38 -18 -64 -43 -80c28 -17 51 -46 51 -91c0 -65 -51 -108 -123 -108zM529 311c-24 0 -41 -17 -41 -45c0 -29 17 -45 41 -45s41 16 41 45
c0 28 -17 45 -41 45zM529 158c-26 0 -46 -19 -46 -52s19 -52 46 -52s46 19 46 52s-20 52 -46 52zM126 0l188 366l163 334h70l-188 -366l-163 -334h-70zM141 328c-47 0 -83 17 -111 40l36 62c18 -14 42 -29 72 -29c28 0 47 17 47 45c0 29 -26 43 -73 44h-18l-6 53l77 84h-117
v73h213v-60l-85 -91c51 -9 90 -39 90 -101c0 -73 -49 -120 -125 -120z" />
    <glyph glyph-name="fiveeighths" unicode="&#x215d;" horiz-adv-x="675" 
d="M529 -7c-72 0 -123 43 -123 108c0 45 23 74 51 91c-25 16 -43 42 -43 80c0 59 48 100 115 100s115 -41 115 -100c0 -38 -18 -64 -43 -80c28 -17 51 -46 51 -91c0 -65 -51 -108 -123 -108zM529 311c-24 0 -41 -17 -41 -45c0 -29 17 -45 41 -45s41 16 41 45
c0 28 -17 45 -41 45zM529 158c-26 0 -46 -19 -46 -52s19 -52 46 -52s46 19 46 52s-20 52 -46 52zM126 0l188 366l163 334h70l-188 -366l-163 -334h-70zM139 328c-40 0 -73 12 -111 41l37 63c23 -18 44 -31 71 -31c33 0 49 21 49 52c0 30 -17 45 -48 45c-18 0 -32 -5 -45 -10
l-47 24l15 188h189v-73h-125l-5 -64c12 3 23 5 38 5c60 0 109 -35 109 -112c0 -81 -52 -128 -127 -128z" />
    <glyph glyph-name="seveneighths" unicode="&#x215e;" horiz-adv-x="675" 
d="M511 -7c-72 0 -123 43 -123 108c0 45 23 74 51 91c-25 16 -43 42 -43 80c0 59 48 100 115 100s115 -41 115 -100c0 -38 -18 -64 -43 -80c28 -17 51 -46 51 -91c0 -65 -51 -108 -123 -108zM511 311c-24 0 -41 -17 -41 -45c0 -29 17 -45 41 -45s41 16 41 45
c0 28 -17 45 -41 45zM511 158c-26 0 -46 -19 -46 -52s19 -52 46 -52s46 19 46 52s-20 52 -46 52zM150 334h-85l119 290h-136v76h223v-59zM93 0l188 366l163 334h70l-188 -366l-163 -334h-70z" />
    <glyph glyph-name="zero.sup" unicode="&#x2070;" 
d="M149 438c-78 0 -123 63 -123 183v12c0 121 45 184 124 184c77 0 124 -63 124 -183v-12c0 -121 -47 -184 -125 -184zM149 743c-27 0 -43 -27 -43 -111v-9c0 -84 16 -111 44 -111c26 0 43 27 43 111v9c0 84 -17 111 -44 111z" />
    <glyph glyph-name="one.sup" unicode="&#xb9;" horiz-adv-x="244" 
d="M180 445h-83v283l-60 -26l-9 74l92 38h60v-369z" />
    <glyph glyph-name="one.sup_alt" 
d="M272 445h-224v68h76v217l-70 -28l-9 73l101 39h59v-301h67v-68z" />
    <glyph glyph-name="two.sup" unicode="&#xb2;" 
d="M38 445v68l97 114c30 36 46 53 46 77c0 23 -17 38 -39 38c-23 0 -40 -13 -68 -38l-41 56c37 38 71 57 117 57c67 0 113 -39 113 -103c0 -35 -10 -63 -52 -111l-74 -84h126v-74h-225z" />
    <glyph glyph-name="three.sup" unicode="&#xb3;" 
d="M140 438c-47 0 -83 17 -111 40l36 62c18 -14 42 -29 72 -29c28 0 47 17 47 45c0 29 -26 43 -73 44h-18l-6 53l77 84h-117v73h213v-60l-85 -91c51 -9 90 -39 90 -101c0 -73 -49 -120 -125 -120z" />
    <glyph glyph-name="four.sup" unicode="&#x2074;" 
d="M244 515v-71h-73v71h-143l-3 72l123 226h96v-232h36v-66h-36zM174 581v144h-4l-79 -144h83z" />
    <glyph glyph-name="five.sup" unicode="&#x2075;" 
d="M138 438c-40 0 -73 12 -111 41l37 63c23 -18 44 -31 71 -31c33 0 49 21 49 52c0 30 -17 45 -48 45c-18 0 -32 -5 -45 -10l-47 24l15 188h189v-73h-125l-5 -64c12 3 23 5 38 5c60 0 109 -35 109 -112c0 -81 -52 -128 -127 -128z" />
    <glyph glyph-name="six.sup" unicode="&#x2076;" 
d="M152 438c-31 0 -58 11 -78 30c-27 26 -43 67 -43 142v9c0 136 55 198 138 198c36 0 64 -11 90 -28l-31 -64c-9 7 -35 20 -60 20c-34 0 -57 -22 -60 -79c15 12 35 19 62 19c49 0 99 -31 99 -117c0 -82 -52 -130 -117 -130zM152 508c26 0 43 20 43 57c0 36 -18 54 -43 54
s-43 -17 -43 -54s18 -57 43 -57z" />
    <glyph glyph-name="seven.sup" unicode="&#x2077;" 
d="M141 444h-85l119 290h-136v76h223v-59z" />
    <glyph glyph-name="eight.sup" unicode="&#x2078;" 
d="M150 438c-72 0 -123 43 -123 108c0 45 23 74 51 91c-25 16 -43 42 -43 80c0 59 48 100 115 100s115 -41 115 -100c0 -38 -18 -64 -43 -80c28 -17 51 -46 51 -91c0 -65 -51 -108 -123 -108zM150 756c-24 0 -41 -17 -41 -45c0 -29 17 -45 41 -45s41 16 41 45
c0 28 -17 45 -41 45zM150 603c-26 0 -46 -19 -46 -52s19 -52 46 -52s46 19 46 52s-20 52 -46 52z" />
    <glyph glyph-name="nine.sup" unicode="&#x2079;" 
d="M148 817c31 0 58 -11 78 -30c27 -26 43 -67 43 -142v-9c0 -136 -55 -198 -138 -198c-35 0 -68 12 -94 30l28 65c15 -10 42 -23 67 -23c34 0 57 22 59 75c-14 -12 -34 -19 -61 -19c-49 0 -99 31 -99 119c0 84 52 132 117 132zM148 632c25 0 43 17 43 56s-18 59 -43 59
c-26 0 -43 -20 -43 -59c0 -38 18 -56 43 -56z" />
    <glyph glyph-name="zero.inf" unicode="&#x2080;" 
d="M149 -139c-78 0 -123 63 -123 183v12c0 121 45 184 124 184c77 0 124 -63 124 -183v-12c0 -121 -47 -184 -125 -184zM149 166c-27 0 -43 -27 -43 -111v-9c0 -84 16 -111 44 -111c26 0 43 27 43 111v9c0 84 -17 111 -44 111z" />
    <glyph glyph-name="one.inf" unicode="&#x2081;" horiz-adv-x="244" 
d="M180 -132h-83v283l-60 -26l-9 74l92 38h60v-369z" />
    <glyph glyph-name="one.inf_alt" 
d="M272 -132h-224v68h76v217l-70 -28l-9 73l101 39h59v-301h67v-68z" />
    <glyph glyph-name="two.inf" unicode="&#x2082;" 
d="M38 -132v68l97 114c30 36 46 53 46 77c0 23 -17 38 -39 38c-23 0 -40 -13 -68 -38l-41 56c37 38 71 57 117 57c67 0 113 -39 113 -103c0 -35 -10 -63 -52 -111l-74 -84h126v-74h-225z" />
    <glyph glyph-name="three.inf" unicode="&#x2083;" 
d="M140 -139c-47 0 -83 17 -111 40l36 62c18 -14 42 -29 72 -29c28 0 47 17 47 45c0 29 -26 43 -73 44h-18l-6 53l77 84h-117v73h213v-60l-85 -91c51 -9 90 -39 90 -101c0 -73 -49 -120 -125 -120z" />
    <glyph glyph-name="four.inf" unicode="&#x2084;" 
d="M244 -62v-71h-73v71h-143l-3 72l123 226h96v-232h36v-66h-36zM174 4v144h-4l-79 -144h83z" />
    <glyph glyph-name="five.inf" unicode="&#x2085;" 
d="M138 -139c-40 0 -73 12 -111 41l37 63c23 -18 44 -31 71 -31c33 0 49 21 49 52c0 30 -17 45 -48 45c-18 0 -32 -5 -45 -10l-47 24l15 188h189v-73h-125l-5 -64c12 3 23 5 38 5c60 0 109 -35 109 -112c0 -81 -52 -128 -127 -128z" />
    <glyph glyph-name="six.inf" unicode="&#x2086;" 
d="M152 -139c-31 0 -58 11 -78 30c-27 26 -43 67 -43 142v9c0 136 55 198 138 198c36 0 64 -11 90 -28l-31 -64c-9 7 -35 20 -60 20c-34 0 -57 -22 -60 -79c15 12 35 19 62 19c49 0 99 -31 99 -117c0 -82 -52 -130 -117 -130zM152 -69c26 0 43 20 43 57c0 36 -18 54 -43 54
s-43 -17 -43 -54s18 -57 43 -57z" />
    <glyph glyph-name="seven.inf" unicode="&#x2087;" 
d="M141 -133h-85l119 290h-136v76h223v-59z" />
    <glyph glyph-name="eight.inf" unicode="&#x2088;" 
d="M150 -139c-72 0 -123 43 -123 108c0 45 23 74 51 91c-25 16 -43 42 -43 80c0 59 48 100 115 100s115 -41 115 -100c0 -38 -18 -64 -43 -80c28 -17 51 -46 51 -91c0 -65 -51 -108 -123 -108zM150 179c-24 0 -41 -17 -41 -45c0 -29 17 -45 41 -45s41 16 41 45
c0 28 -17 45 -41 45zM150 26c-26 0 -46 -19 -46 -52s19 -52 46 -52s46 19 46 52s-20 52 -46 52z" />
    <glyph glyph-name="nine.inf" unicode="&#x2089;" 
d="M148 240c31 0 58 -11 78 -30c27 -26 43 -67 43 -142v-9c0 -136 -55 -198 -138 -198c-35 0 -68 12 -94 30l28 65c15 -10 42 -23 67 -23c34 0 57 22 59 75c-14 -12 -34 -19 -61 -19c-49 0 -99 31 -99 119c0 84 52 132 117 132zM148 55c25 0 43 17 43 56s-18 59 -43 59
c-26 0 -43 -20 -43 -59c0 -38 18 -56 43 -56z" />
    <glyph glyph-name="zero.tab" horiz-adv-x="450" 
d="M225 -10c-130 0 -201 111 -201 345v29c0 234 72 346 201 346c128 0 201 -111 201 -345v-29c0 -234 -73 -346 -201 -346zM225 591c-46 0 -73 -47 -73 -227v-27c0 -180 27 -228 73 -228s72 47 72 227v27c0 180 -27 228 -72 228z" />
    <glyph glyph-name="one.tab" horiz-adv-x="450" 
d="M427 0h-381v110h137v453l-125 -53l-13 123l177 72h92v-595h113v-110z" />
    <glyph glyph-name="two.tab" horiz-adv-x="450" 
d="M414 0h-379v110l172 241c57 83 74 125 74 162c0 50 -36 71 -69 71c-50 0 -85 -41 -111 -72l-81 85c58 79 128 114 206 114c112 0 189 -71 189 -184v-3c0 -72 -26 -123 -88 -215l-130 -183h217v-126z" />
    <glyph glyph-name="three.tab" horiz-adv-x="450" 
d="M196 -11c-74 0 -135 27 -181 70l65 103c22 -20 57 -50 109 -50c54 0 93 38 93 98v2c0 64 -46 102 -141 102h-17l-9 85l135 176l-204 1v124h360v-113l-149 -177c83 -20 157 -82 157 -194v-4c0 -136 -92 -223 -218 -223z" />
    <glyph glyph-name="three.tab_alt" horiz-adv-x="450" 
d="M201 -11c-69 0 -132 22 -186 68l63 102c26 -22 68 -48 116 -48c57 0 94 37 94 94c0 54 -45 98 -136 98h-26v110h26c82 0 129 44 129 98c0 51 -38 80 -87 78s-84 -32 -103 -49l-67 94c52 48 118 77 189 77c109 0 198 -64 198 -181c0 -84 -47 -137 -105 -163
c65 -25 113 -79 113 -170c0 -122 -89 -208 -218 -208z" />
    <glyph glyph-name="four.tab" horiz-adv-x="450" 
d="M256 0v136h-229l-10 112l204 455h155v-457h60v-110h-60v-136h-120zM257 245v274h-6l-125 -274h131z" />
    <glyph glyph-name="five.tab" horiz-adv-x="450" 
d="M197 -11c-60 0 -127 21 -173 65l61 105c32 -27 67 -48 108 -48c57 0 94 45 94 115c0 66 -36 101 -90 101c-36 0 -59 -13 -77 -24l-70 46l21 351h317v-121h-215l-9 -147c16 5 40 11 69 11c94 0 184 -55 184 -211v-2c0 -150 -97 -241 -220 -241z" />
    <glyph glyph-name="six.tab" horiz-adv-x="450" 
d="M232 -11c-56 0 -101 19 -131 49c-50 50 -75 130 -75 283v15c0 271 89 375 236 375c50 0 95 -12 145 -43l-54 -111c-21 15 -54 33 -92 33c-66 0 -108 -61 -111 -173c26 21 62 39 111 39c91 0 170 -61 170 -213v-13c0 -144 -82 -241 -199 -241zM229 105c52 0 79 45 79 119
v3c0 75 -27 119 -79 119c-51 0 -79 -45 -79 -119v-3c0 -74 28 -119 79 -119z" />
    <glyph glyph-name="seven.tab" horiz-adv-x="450" 
d="M273 572h-235v128h375v-99l-206 -601h-139z" />
    <glyph glyph-name="eight.tab" horiz-adv-x="450" 
d="M225 -10c-117 0 -199 79 -199 202v5c0 84 38 136 88 166c-45 29 -75 76 -75 151v4c0 110 74 192 186 192s186 -82 186 -192v-4c0 -75 -30 -122 -75 -151c50 -30 88 -82 88 -166v-5c0 -123 -82 -202 -199 -202zM225 97c44 0 74 37 74 105v4c0 67 -32 103 -74 103
s-74 -36 -74 -103v-4c0 -68 30 -105 74 -105zM225 412c39 0 65 36 65 96v3c0 62 -27 93 -65 93s-65 -31 -65 -93v-3c0 -60 26 -96 65 -96z" />
    <glyph glyph-name="nine.tab" horiz-adv-x="450" 
d="M188 -11c-50 0 -105 16 -155 46l54 111c33 -22 64 -36 102 -36c66 0 107 60 111 165c-26 -21 -62 -39 -111 -39c-91 0 -170 62 -170 217v13c0 147 82 245 199 245c59 0 102 -20 132 -50c48 -48 74 -129 74 -282v-15c0 -271 -89 -375 -236 -375zM221 346
c51 0 79 46 79 123v3c0 77 -28 123 -79 123c-52 0 -79 -46 -79 -123v-3c0 -78 27 -123 79 -123z" />
    <glyph glyph-name="period.tab" horiz-adv-x="225" 
d="M44 0v155h137v-155h-137z" />
    <glyph glyph-name="comma.tab" horiz-adv-x="225" 
d="M27 -159l-12 53c66 11 90 57 85 106h-56v155h137v-130c0 -116 -52 -176 -154 -184z" />
    <glyph glyph-name="colon.tab" horiz-adv-x="225" 
d="M44 382v154h136v-154h-136zM44 0v154h136v-154h-136z" />
    <glyph glyph-name="semicolon.tab" horiz-adv-x="225" 
d="M44 382v154h136v-154h-136zM27 -159l-12 53c66 11 90 57 85 106h-56v154h136v-129c0 -116 -51 -176 -153 -184z" />
    <glyph glyph-name="twodotleader.tab" horiz-adv-x="450" 
d="M271 0v150h133v-150h-133zM46 0v150h133v-150h-133z" />
    <glyph glyph-name="periodcentered.tab" horiz-adv-x="225" 
d="M44 232v155h137v-155h-137z" />
    <glyph glyph-name="slash.tab" horiz-adv-x="450" 
d="M445 780l-339 -890h-111l339 890h111z" />
    <glyph glyph-name="bar.tab" horiz-adv-x="225" 
d="M60 -110v890h104v-890h-104z" />
    <glyph glyph-name="underscore.tab" horiz-adv-x="450" 
d="M-2 -154v101h454v-101h-454z" />
    <glyph glyph-name="dollar.tab" horiz-adv-x="450" 
d="M312 776l-7 -79c41 -10 82 -30 119 -66l-71 -100c-30 28 -67 54 -114 54c-44 0 -69 -26 -69 -63c0 -39 20 -57 103 -115c104 -72 148 -123 148 -213v-1c0 -110 -77 -187 -182 -196l-10 -109h-87l11 115c-48 11 -96 36 -139 82l70 101c35 -36 81 -71 135 -71
c48 0 73 31 73 72v1c0 31 -14 54 -83 97c-125 77 -168 134 -168 226v1c0 107 70 181 177 191l7 73h87z" />
    <glyph glyph-name="sterling.tab" horiz-adv-x="450" 
d="M92 392v102c0 75 20 129 59 167c31 30 77 48 128 48c64 0 115 -24 156 -68l-76 -97c-19 18 -40 37 -71 37c-14 0 -29 -5 -39 -15c-16 -15 -22 -40 -22 -73v-101h140v-116h-140v-157h196v-119h-389v88l58 24v164h-56v116h56z" />
    <glyph glyph-name="Euro.tab" horiz-adv-x="450" 
d="M20 388v92h64c28 154 109 230 218 230c46 0 95 -15 140 -55l-61 -103c-17 16 -39 35 -72 35c-40 0 -75 -30 -92 -107h119v-92h-129v-28v-19v-25h129v-92h-121c16 -82 53 -111 92 -111c30 0 51 16 73 37l62 -99c-46 -43 -92 -61 -143 -61c-108 0 -190 78 -216 234h-63v92
h55v25v17v30h-55z" />
    <glyph glyph-name="yen.tab" horiz-adv-x="450" 
d="M53 189h109v66h-109v94h86l-135 351h137l85 -274l86 274h134l-136 -351h87v-94h-109v-66h109v-94h-109v-95h-126v95h-109v94z" />
    <glyph glyph-name="cent.tab" horiz-adv-x="450" 
d="M328 705l-6 -83c36 -9 68 -25 97 -51l-60 -98c-26 25 -54 38 -88 38c-59 0 -103 -49 -103 -153v-14c0 -99 42 -148 103 -148c38 0 69 22 90 45l58 -96c-37 -36 -84 -60 -140 -65l-7 -86h-89l8 95c-89 28 -149 115 -149 250v21c0 152 78 250 190 266l7 79h89z" />
    <glyph glyph-name="numbersign.tab" horiz-adv-x="450" 
d="M18 271h65l16 162h-59v114h69l15 153h91l-16 -153h86l14 153h91l-15 -153h57v-114h-67l-16 -162h60v-114h-70l-15 -157h-91l15 157h-85l-14 -157h-91l15 157h-55v114zM187 435l-15 -166h88l15 166h-88z" />
    <glyph glyph-name="paragraph.tab" horiz-adv-x="450" 
d="M255 0v226h-10c-116 7 -220 79 -220 237v1c0 162 106 236 242 236h123v-700h-135z" />
    <glyph glyph-name="section.tab" horiz-adv-x="450" 
d="M216 -8c-55 0 -105 20 -149 53l53 91c16 -13 55 -37 92 -37c28 0 44 15 44 37c0 27 -29 45 -90 72c-90 39 -142 72 -142 147v2c0 53 33 97 87 116c-24 26 -37 55 -37 91v1c0 87 65 143 161 143c55 0 105 -20 149 -53l-53 -91c-16 13 -55 37 -92 37c-28 0 -44 -15 -44 -37
c0 -27 29 -45 90 -72c90 -39 142 -72 142 -147v-2c0 -53 -33 -97 -87 -116c24 -26 37 -55 37 -91v-1c0 -87 -65 -143 -161 -143zM182 416c-25 0 -46 -20 -46 -45v-1c0 -32 31 -47 73 -67c30 -14 43 -19 60 -19c25 0 46 20 46 45v1c0 32 -31 47 -73 67c-30 14 -43 19 -60 19z
" />
    <glyph glyph-name="degree.tab" horiz-adv-x="450" 
d="M224 301c-93 0 -163 84 -163 199v8c0 115 71 199 165 199c93 0 163 -84 163 -199v-8c0 -115 -71 -199 -165 -199zM225 385c47 0 77 44 77 115v8c0 71 -30 115 -77 115s-77 -44 -77 -115v-8c0 -71 30 -115 77 -115z" />
    <glyph glyph-name="percent.tab" horiz-adv-x="450" 
d="M122 706c70 0 107 -64 107 -178v-26c0 -108 -37 -178 -107 -178s-107 64 -107 178v26c0 114 37 178 107 178zM328 376c70 0 107 -64 107 -178v-26c0 -114 -37 -178 -107 -178s-107 64 -107 178v26c0 108 37 178 107 178zM342 700h67l-166 -360l-135 -340h-67l166 360z
M123 632c-21 0 -32 -26 -32 -102v-30c0 -76 11 -102 32 -102s31 26 31 102v30c0 76 -10 102 -31 102zM327 302c-21 0 -31 -26 -31 -102v-30c0 -76 10 -102 31 -102s32 26 32 102v30c0 76 -11 102 -32 102z" />
    <glyph glyph-name="quotedbl.tab" horiz-adv-x="450" 
d="M261 381l15 319h139v-8l-97 -311h-57zM63 381l15 319h140v-8l-97 -311h-58z" />
    <glyph glyph-name="quotesingle.tab" horiz-adv-x="225" 
d="M50 381l16 319h139v-8l-96 -311h-59z" />
    <glyph glyph-name="plus.tab" horiz-adv-x="450" 
d="M417 294h-134v-140h-116v140h-134v116h134v140h116v-140h134v-116z" />
    <glyph glyph-name="minus.tab" horiz-adv-x="450" 
d="M416 289h-382v126h382v-126z" />
    <glyph glyph-name="divide.tab" horiz-adv-x="450" 
d="M162 472v124h126v-124h-126zM416 294h-382v116h382v-116zM162 108v124h126v-124h-126z" />
    <glyph glyph-name="equal.tab" horiz-adv-x="450" 
d="M409 398h-368v122h368v-122zM409 184h-368v122h368v-122z" />
    <glyph glyph-name="multiply.tab" horiz-adv-x="450" 
d="M333 150l-109 118l-109 -118l-86 77l118 125l-118 124l87 78l110 -118l109 118l86 -77l-118 -125l118 -124z" />
    <glyph glyph-name="less.tab" horiz-adv-x="450" 
d="M402 95l-361 199v116l361 199v-139l-230 -117l230 -117v-141z" />
    <glyph glyph-name="greater.tab" horiz-adv-x="450" 
d="M409 294l-361 -199v139l230 117l-230 117v141l361 -199v-116z" />
    <glyph glyph-name="plusminus.tab" horiz-adv-x="450" 
d="M417 331h-134v-138h-116v138h-134v116h134v139h116v-139h134v-116zM416 0h-382v112h382v-112z" />
    <glyph glyph-name="space" unicode=" " horiz-adv-x="184" 
 />
    <glyph glyph-name="uni00A0" unicode="&#xa0;" horiz-adv-x="184" 
 />
    <glyph glyph-name="emspace" unicode="&#x2003;" horiz-adv-x="1000" 
 />
    <glyph glyph-name="enspace" unicode="&#x2002;" horiz-adv-x="500" 
 />
    <glyph glyph-name="threeperemspace" unicode="&#x2004;" horiz-adv-x="333" 
 />
    <glyph glyph-name="fourperemspace" unicode="&#x2005;" horiz-adv-x="250" 
 />
    <glyph glyph-name="thinspace" unicode="&#x2009;" horiz-adv-x="133" 
 />
    <glyph glyph-name="hairspace" unicode="&#x200a;" horiz-adv-x="75" 
 />
    <glyph glyph-name="space.tab" horiz-adv-x="225" 
 />
    <glyph glyph-name="figurespace" unicode="&#x2007;" horiz-adv-x="450" 
 />
    <glyph glyph-name="NUL" horiz-adv-x="0" 
 />
    <glyph glyph-name="asciicircum" unicode="^" horiz-adv-x="500" 
d="M99 499l101 197h99l102 -197h-89l-63 124l-63 -124h-87z" />
    <glyph glyph-name="asciitilde" unicode="~" horiz-adv-x="421" 
d="M280 247c-32 0 -56 12 -76 23c-18 10 -34 19 -51 19c-22 0 -31 -15 -42 -49l-70 21c14 81 53 120 101 120c32 0 55 -12 75 -24c18 -9 34 -18 51 -18c22 0 38 15 48 49l64 -21c-14 -82 -53 -120 -100 -120z" />
    <glyph glyph-name="hfjslug" horiz-adv-x="694" 
d="M644 -200h-208l-8 14h-163l-8 -14h-207v303c18 0 32 14 32 32c0 17 -14 32 -32 32v554h100l30 79h334l29 -79h101v-921zM400 563v-172h15v78h38v14h-38v66h43v14h-58zM184 563v-172h15v79h47v-79h15v172h-15v-79h-47v79h-15zM460 394c5 -2 14 -4 21 -4c20 0 31 11 31 36
v137h-16v-137c0 -16 -5 -22 -16 -22c-6 0 -15 3 -20 5v-15zM371 465l-13 3c-2 -9 -5 -21 -8 -30h-1l-16 31c13 12 23 26 23 42s-9 31 -27 31c-17 0 -28 -15 -28 -31c0 -15 6 -24 14 -39c-15 -12 -23 -28 -23 -47c0 -22 12 -37 29 -37c13 0 23 9 29 24h1l12 -24l12 6l-17 32
c5 12 9 25 13 39zM523 323v-46h8v12l8 8l15 -20h10l-20 26l18 20h-10l-20 -24h-1v24h-8zM488 292l10 -15h9l-12 17c5 2 10 6 10 14c0 9 -7 15 -17 15h-20v-46h8v15h12zM426 276c14 0 24 11 24 24c0 12 -10 24 -24 24s-24 -12 -24 -24c0 -13 10 -24 24 -24zM370 301l-13 22
h-9l18 -29v-17h8v17l18 29h-9zM193 323v-46h34v7h-26v13h23v7h-23v12h26v7h-34zM132 323v-46h8v32l25 -32h7v46h-8v-32l-25 32h-7zM241 323l14 -47h8l11 34h1l11 -34h8l14 47h-8l-10 -35h-1l-11 35h-7l-11 -35h-1l-10 35h-8zM327 479c-7 13 -12 22 -12 32s6 19 14 19
s13 -9 13 -19c0 -12 -5 -21 -15 -32zM342 423c-5 -13 -12 -21 -20 -21c-9 0 -16 10 -16 25c0 13 7 26 16 35zM487 299h-11v17h11c6 0 10 -3 10 -8s-4 -9 -10 -9zM426 283c-10 0 -16 8 -16 17c0 8 6 17 16 17s16 -9 16 -17c0 -9 -6 -17 -16 -17z" />
    <glyph glyph-name="i.dot" horiz-adv-x="227" 
d="M46 590v124h134v-124h-134zM48 0v536h130v-536h-130z" />
    <glyph glyph-name="fraction" unicode="&#x2044;" horiz-adv-x="75" 
d="M-173 0l188 366l163 334h70l-188 -366l-163 -334h-70z" />
    <glyph glyph-name="zero.num" 
d="M149 328c-78 0 -123 63 -123 183v12c0 121 45 184 124 184c77 0 124 -63 124 -183v-12c0 -121 -47 -184 -125 -184zM149 633c-27 0 -43 -27 -43 -111v-9c0 -84 16 -111 44 -111c26 0 43 27 43 111v9c0 84 -17 111 -44 111z" />
    <glyph glyph-name="one.num" horiz-adv-x="244" 
d="M180 335h-83v283l-60 -26l-9 74l92 38h60v-369z" />
    <glyph glyph-name="one.num_alt" 
d="M272 335h-224v68h76v217l-70 -28l-9 73l101 39h59v-301h67v-68z" />
    <glyph glyph-name="two.num" 
d="M38 335v68l97 114c30 36 46 53 46 77c0 23 -17 38 -39 38c-23 0 -40 -13 -68 -38l-41 56c37 38 71 57 117 57c67 0 113 -39 113 -103c0 -35 -10 -63 -52 -111l-74 -84h126v-74h-225z" />
    <glyph glyph-name="three.num" 
d="M140 328c-47 0 -83 17 -111 40l36 62c18 -14 42 -29 72 -29c28 0 47 17 47 45c0 29 -26 43 -73 44h-18l-6 53l77 84h-117v73h213v-60l-85 -91c51 -9 90 -39 90 -101c0 -73 -49 -120 -125 -120z" />
    <glyph glyph-name="four.num" 
d="M244 405v-71h-73v71h-143l-3 72l123 226h96v-232h36v-66h-36zM174 471v144h-4l-79 -144h83z" />
    <glyph glyph-name="five.num" 
d="M138 328c-40 0 -73 12 -111 41l37 63c23 -18 44 -31 71 -31c33 0 49 21 49 52c0 30 -17 45 -48 45c-18 0 -32 -5 -45 -10l-47 24l15 188h189v-73h-125l-5 -64c12 3 23 5 38 5c60 0 109 -35 109 -112c0 -81 -52 -128 -127 -128z" />
    <glyph glyph-name="six.num" 
d="M152 328c-31 0 -58 11 -78 30c-27 26 -43 67 -43 142v9c0 136 55 198 138 198c36 0 64 -11 90 -28l-31 -64c-9 7 -35 20 -60 20c-34 0 -57 -22 -60 -79c15 12 35 19 62 19c49 0 99 -31 99 -117c0 -82 -52 -130 -117 -130zM152 398c26 0 43 20 43 57c0 36 -18 54 -43 54
s-43 -17 -43 -54s18 -57 43 -57z" />
    <glyph glyph-name="seven.num" 
d="M141 334h-85l119 290h-136v76h223v-59z" />
    <glyph glyph-name="eight.num" 
d="M150 328c-72 0 -123 43 -123 108c0 45 23 74 51 91c-25 16 -43 42 -43 80c0 59 48 100 115 100s115 -41 115 -100c0 -38 -18 -64 -43 -80c28 -17 51 -46 51 -91c0 -65 -51 -108 -123 -108zM150 646c-24 0 -41 -17 -41 -45c0 -29 17 -45 41 -45s41 16 41 45
c0 28 -17 45 -41 45zM150 493c-26 0 -46 -19 -46 -52s19 -52 46 -52s46 19 46 52s-20 52 -46 52z" />
    <glyph glyph-name="nine.num" 
d="M148 707c31 0 58 -11 78 -30c27 -26 43 -67 43 -142v-9c0 -136 -55 -198 -138 -198c-35 0 -68 12 -94 30l28 65c15 -10 42 -23 67 -23c34 0 57 22 59 75c-14 -12 -34 -19 -61 -19c-49 0 -99 31 -99 119c0 84 52 132 117 132zM148 522c25 0 43 17 43 56s-18 59 -43 59
c-26 0 -43 -20 -43 -59c0 -38 18 -56 43 -56z" />
    <glyph glyph-name="zero.den" 
d="M149 -7c-78 0 -123 63 -123 183v12c0 121 45 184 124 184c77 0 124 -63 124 -183v-12c0 -121 -47 -184 -125 -184zM149 298c-27 0 -43 -27 -43 -111v-9c0 -84 16 -111 44 -111c26 0 43 27 43 111v9c0 84 -17 111 -44 111z" />
    <glyph glyph-name="one.den" horiz-adv-x="244" 
d="M180 0h-83v283l-60 -26l-9 74l92 38h60v-369z" />
    <glyph glyph-name="one.den_alt" 
d="M272 0h-224v68h76v217l-70 -28l-9 73l101 39h59v-301h67v-68z" />
    <glyph glyph-name="two.den" 
d="M38 0v68l97 114c30 36 46 53 46 77c0 23 -17 38 -39 38c-23 0 -40 -13 -68 -38l-41 56c37 38 71 57 117 57c67 0 113 -39 113 -103c0 -35 -10 -63 -52 -111l-74 -84h126v-74h-225z" />
    <glyph glyph-name="three.den" 
d="M140 -7c-47 0 -83 17 -111 40l36 62c18 -14 42 -29 72 -29c28 0 47 17 47 45c0 29 -26 43 -73 44h-18l-6 53l77 84h-117v73h213v-60l-85 -91c51 -9 90 -39 90 -101c0 -73 -49 -120 -125 -120z" />
    <glyph glyph-name="four.den" 
d="M244 70v-71h-73v71h-143l-3 72l123 226h96v-232h36v-66h-36zM174 136v144h-4l-79 -144h83z" />
    <glyph glyph-name="five.den" 
d="M138 -7c-40 0 -73 12 -111 41l37 63c23 -18 44 -31 71 -31c33 0 49 21 49 52c0 30 -17 45 -48 45c-18 0 -32 -5 -45 -10l-47 24l15 188h189v-73h-125l-5 -64c12 3 23 5 38 5c60 0 109 -35 109 -112c0 -81 -52 -128 -127 -128z" />
    <glyph glyph-name="six.den" 
d="M152 -7c-31 0 -58 11 -78 30c-27 26 -43 67 -43 142v9c0 136 55 198 138 198c36 0 64 -11 90 -28l-31 -64c-9 7 -35 20 -60 20c-34 0 -57 -22 -60 -79c15 12 35 19 62 19c49 0 99 -31 99 -117c0 -82 -52 -130 -117 -130zM152 63c26 0 43 20 43 57c0 36 -18 54 -43 54
s-43 -17 -43 -54s18 -57 43 -57z" />
    <glyph glyph-name="seven.den" 
d="M141 -1h-85l119 290h-136v76h223v-59z" />
    <glyph glyph-name="eight.den" 
d="M150 -7c-72 0 -123 43 -123 108c0 45 23 74 51 91c-25 16 -43 42 -43 80c0 59 48 100 115 100s115 -41 115 -100c0 -38 -18 -64 -43 -80c28 -17 51 -46 51 -91c0 -65 -51 -108 -123 -108zM150 311c-24 0 -41 -17 -41 -45c0 -29 17 -45 41 -45s41 16 41 45
c0 28 -17 45 -41 45zM150 158c-26 0 -46 -19 -46 -52s19 -52 46 -52s46 19 46 52s-20 52 -46 52z" />
    <glyph glyph-name="nine.den" 
d="M148 372c31 0 58 -11 78 -30c27 -26 43 -67 43 -142v-9c0 -136 -55 -198 -138 -198c-35 0 -68 12 -94 30l28 65c15 -10 42 -23 67 -23c34 0 57 22 59 75c-14 -12 -34 -19 -61 -19c-49 0 -99 31 -99 119c0 84 52 132 117 132zM148 187c25 0 43 17 43 56s-18 59 -43 59
c-26 0 -43 -20 -43 -59c0 -38 18 -56 43 -56z" />
    <glyph glyph-name="acute" unicode="&#xb4;" horiz-adv-x="500" 
d="M153 582l95 158l106 -52l-110 -106h-91z" />
    <glyph glyph-name="hungarumlaut" unicode="&#x2dd;" horiz-adv-x="500" 
d="M222 582l94 158l100 -52l-108 -106h-86zM85 582l94 158l100 -52l-108 -106h-86z" />
    <glyph glyph-name="caron.alt" horiz-adv-x="500" 
d="M184 570l10 170h90v-2l-46 -168h-54z" />
    <glyph glyph-name="grave" unicode="`" horiz-adv-x="500" 
d="M248 582l-110 106l106 52l95 -158h-91z" />
    <glyph glyph-name="circumflex" unicode="&#x2c6;" horiz-adv-x="500" 
d="M102 582l94 145h108l94 -145h-91l-58 63l-58 -63h-89z" />
    <glyph glyph-name="caron" unicode="&#x2c7;" horiz-adv-x="500" 
d="M398 727l-94 -145h-108l-94 145h91l58 -63l58 63h89z" />
    <glyph glyph-name="breve" unicode="&#x2d8;" horiz-adv-x="500" 
d="M250 577c-77 0 -136 45 -143 133h82c6 -30 25 -51 61 -51s55 21 61 51h82c-7 -88 -66 -133 -143 -133z" />
    <glyph glyph-name="tilde" unicode="&#x2dc;" horiz-adv-x="500" 
d="M320 581c-25 0 -51 12 -73 21c-19 8 -36 16 -48 16c-21 0 -28 -12 -38 -43l-71 19c17 81 40 118 90 118c25 0 51 -12 73 -21c19 -8 36 -16 48 -16c21 0 28 12 38 43l71 -19c-17 -81 -40 -118 -90 -118z" />
    <glyph glyph-name="macron" unicode="&#xaf;" horiz-adv-x="500" 
d="M112 586v87h276v-87h-276z" />
    <glyph glyph-name="dieresis" unicode="&#xa8;" horiz-adv-x="500" 
d="M273 584v117h120v-117h-120zM107 584v117h120v-117h-120z" />
    <glyph glyph-name="dotaccent" unicode="&#x2d9;" horiz-adv-x="500" 
d="M189 584v117h122v-117h-122z" />
    <glyph glyph-name="ring" unicode="&#x2da;" horiz-adv-x="500" 
d="M250 577c-55 0 -99 43 -99 100c0 56 44 99 99 99s99 -42 99 -99s-44 -100 -99 -100zM250 625c27 0 48 22 48 52c0 29 -21 52 -48 52s-48 -23 -48 -52c0 -30 21 -52 48 -52z" />
    <glyph glyph-name="acute.cap" horiz-adv-x="500" 
d="M151 742l99 139l112 -53l-113 -86h-98z" />
    <glyph glyph-name="hungarumlaut.cap" horiz-adv-x="500" 
d="M76 742l99 139l103 -53l-110 -86h-92zM220 742l99 139l104 -53l-110 -86h-93z" />
    <glyph glyph-name="grave.cap" horiz-adv-x="500" 
d="M341 742h-98l-113 86l112 53z" />
    <glyph glyph-name="circumflex.cap" horiz-adv-x="500" 
d="M99 742l94 130h114l94 -130h-97l-55 51l-55 -51h-95z" />
    <glyph glyph-name="caron.cap" horiz-adv-x="500" 
d="M401 872l-94 -130h-114l-94 130h97l55 -51l55 51h95z" />
    <glyph glyph-name="breve.cap" horiz-adv-x="500" 
d="M250 738c-80 0 -139 42 -143 125h83c7 -29 25 -43 60 -43c34 0 53 14 60 43h83c-5 -83 -63 -125 -143 -125z" />
    <glyph glyph-name="tilde.cap" horiz-adv-x="500" 
d="M321 742c-26 0 -52 11 -75 20c-19 9 -37 16 -49 16c-19 0 -27 -12 -38 -42l-73 20c17 81 42 119 93 119c26 0 54 -11 77 -21c19 -8 35 -15 47 -15c19 0 27 12 38 42l73 -19c-17 -82 -42 -120 -93 -120z" />
    <glyph glyph-name="macron.cap" horiz-adv-x="500" 
d="M103 746v90h294v-90h-294z" />
    <glyph glyph-name="dieresis.cap" horiz-adv-x="500" 
d="M277 744v115h122v-115h-122zM101 744v115h122v-115h-122z" />
    <glyph glyph-name="dotaccent.cap" horiz-adv-x="500" 
d="M188 744v115h124v-115h-124z" />
    <glyph glyph-name="ring.cap" horiz-adv-x="500" 
d="M250 738c-55 0 -101 39 -101 94c0 54 46 93 101 93s101 -39 101 -93c0 -55 -46 -94 -101 -94zM250 786c28 0 48 20 48 46c0 25 -20 45 -48 45s-48 -20 -48 -45c0 -26 20 -46 48 -46z" />
    <glyph glyph-name="commaaccent" unicode="&#x326;" horiz-adv-x="500" 
d="M191 -248l-6 42c47 5 64 22 62 59h-54v99h118v-87c0 -79 -43 -110 -120 -113z" />
    <glyph glyph-name="cedilla" unicode="&#xb8;" horiz-adv-x="500" 
d="M249 -143l-110 43l81 120h87z" />
    <glyph glyph-name="ogonek" unicode="&#x2db;" horiz-adv-x="500" 
d="M329 -85v-68c-15 -3 -30 -4 -42 -4c-71 0 -110 29 -110 77c0 35 18 61 45 90h87c-22 -27 -31 -45 -31 -63c0 -25 19 -34 51 -32z" />
    </font>
</defs>
</svg>
