<?xml version="1.0" standalone="no"?>
<!DOCTYPE svg PUBLIC "-//W3C//DTD SVG 1.1//EN" "http://www.w3.org/Graphics/SVG/1.1/DTD/svg11.dtd" >
<svg xmlns="http://www.w3.org/2000/svg">
<metadata></metadata>
<defs>
<font id="proxima_nova_altSBdIt" horiz-adv-x="1175" >
<font-face units-per-em="2048" ascent="1618" descent="-430" />
<missing-glyph horiz-adv-x="528" />
<glyph unicode="&#xfb01;" horiz-adv-x="1126" d="M82 0l176 803h-164l43 186h162l12 55q35 164 123 253t230 89q55 0 105 -11t95 -40l-78 -153q-20 16 -45.5 22t-54.5 6q-66 0 -103.5 -40t-56.5 -126l-12 -55h203l-43 -186h-201l-176 -803h-215zM662 0l219 989h215l-219 -989h-215zM907 1225q0 37 14.5 64.5t36 47 t49 29.5t52.5 10q53 0 87 -33.5t34 -80.5q0 -37 -14.5 -65t-36 -47.5t-49 -29.5t-52.5 -10q-53 0 -87 34t-34 81z" />
<glyph unicode="&#xfb02;" horiz-adv-x="1216" d="M82 0l176 803h-164l43 186h162l12 55q35 164 123 253t230 89q55 0 105 -11t95 -40l-78 -153q-20 16 -45.5 22t-54.5 6q-66 0 -103.5 -40t-56.5 -126l-12 -55h203l-43 -186h-201l-176 -803h-215zM707 168q0 39 8 72l248 1126h215l-238 -1073q-2 -12 -3 -22.5t-1 -22.5 q0 -39 26.5 -60.5t71.5 -21.5q23 0 47.5 8t34.5 19l12 -173q-23 -18 -62.5 -31.5t-92.5 -13.5q-125 0 -195.5 50.5t-70.5 142.5z" />
<glyph horiz-adv-x="0" />
<glyph unicode="&#xd;" horiz-adv-x="0" />
<glyph horiz-adv-x="0" />
<glyph horiz-adv-x="0" />
<glyph unicode=" "  horiz-adv-x="528" />
<glyph unicode="&#x09;" horiz-adv-x="528" />
<glyph unicode="&#xa0;" horiz-adv-x="528" />
<glyph unicode="!" horiz-adv-x="499" d="M25 111q0 63 46 108t109 45q55 0 93 -39t38 -92q0 -66 -45.5 -111t-111.5 -45q-53 0 -91 39t-38 95zM139 420l170 946h262l-245 -946h-187z" />
<glyph unicode="&#x22;" horiz-adv-x="778" d="M236 801q6 115 12 209q2 39 4 78.5t4 71.5t4 55.5t2 29.5q4 61 43 101t98 40q43 0 75 -30.5t32 -77.5q0 -16 -5 -31.5t-9 -23.5q-2 -4 -10.5 -25.5t-20.5 -52.5t-26.5 -68t-28.5 -76q-37 -90 -78 -200h-96zM578 801q6 115 12 209q2 39 4 78.5t4 71.5t4 55.5t2 29.5 q4 61 43 101t98 40q43 0 75 -30.5t32 -77.5q0 -16 -5 -31.5t-9 -23.5q-2 -4 -10.5 -25.5t-20.5 -52.5t-26.5 -68t-28.5 -76q-37 -90 -78 -200h-96z" />
<glyph unicode="#" horiz-adv-x="1243" d="M8 358l76 142h209l203 366h-209l73 142h215l197 358h164l-197 -358h207l197 358h164l-199 -358h207l-72 -142h-213l-205 -366h215l-73 -142h-219l-199 -358h-164l201 358h-209l-199 -358h-164l199 358h-205zM457 500h205l204 366h-207z" />
<glyph unicode="$" horiz-adv-x="1239" d="M31 227l151 174q51 -72 129 -121t174 -73l86 395q-66 25 -129 55.5t-114.5 72.5t-82 98.5t-30.5 134.5q0 82 36 158.5t103.5 136t162.5 95.5t212 36h19l40 184h164l-45 -205q106 -23 195.5 -75t148.5 -124l-153 -172q-47 57 -108.5 95t-131.5 61l-80 -356 q66 -27 131.5 -57.5t116.5 -73.5t83 -100.5t32 -135.5q0 -90 -35 -172t-101.5 -144.5t-164 -100.5t-219.5 -38h-25l-39 -180h-164l43 199q-135 27 -240.5 87t-164.5 146zM469 1004q0 -49 45 -84t115 -64l71 322h-6q-49 0 -90 -14.5t-70.5 -38t-47 -55t-17.5 -66.5zM643 188 q63 0 110.5 18.5t76 47.5t43 63.5t14.5 67.5q0 53 -46 90t-118 68z" />
<glyph unicode="%" horiz-adv-x="1529" d="M154 0l1173 1366h139l-1175 -1366h-137zM172 989q0 88 30.5 162t82 126t119 80.5t141.5 28.5q63 0 121.5 -19t102.5 -55t69.5 -88.5t25.5 -117.5q0 -88 -30.5 -162t-82 -126t-118.5 -80.5t-141 -28.5q-66 0 -123.5 19.5t-101.5 56t-69.5 88t-25.5 116.5zM332 1004 q0 -68 46 -113t118 -45q43 0 80.5 18.5t66.5 50t45.5 76.5t16.5 101q0 70 -46.5 114.5t-117.5 44.5q-43 0 -81 -18.5t-66.5 -51t-45 -77.5t-16.5 -100zM745 256q0 88 31 162t82 126t118.5 80.5t141.5 28.5q63 0 121.5 -19.5t101.5 -55t69 -88t26 -117.5q0 -88 -31 -162 t-82 -126t-118.5 -81t-141.5 -29q-66 0 -123 19.5t-100 56.5t-69 88t-26 117zM903 270q0 -68 47 -112.5t119 -44.5q41 0 79 18.5t66.5 50t46 76.5t17.5 100q0 70 -47 115t-119 45q-41 0 -79 -18.5t-66.5 -51t-46 -77.5t-17.5 -101z" />
<glyph unicode="&#x26;" horiz-adv-x="1320" d="M20 328q0 98 33 170.5t88.5 126t126 91.5t148.5 68q-18 59 -28.5 114.5t-10.5 111.5q0 80 31.5 148.5t86 118.5t127 79.5t154.5 29.5q68 0 128.5 -16t106.5 -49t72.5 -82t26.5 -115q0 -90 -37 -153.5t-98.5 -108.5t-139 -77.5t-157.5 -61.5q20 -41 42.5 -82t45.5 -82 q29 -49 54.5 -95t53.5 -89q66 72 117 143.5t84 128.5l156 -98q-53 -78 -118.5 -162t-141.5 -158q74 -111 166 -229h-263q-16 20 -33.5 43t-35.5 49q-80 -53 -169 -85t-187 -32q-90 0 -168 21.5t-136.5 64.5t-91.5 110t-33 157zM258 354q0 -51 18.5 -90t49 -64.5t70.5 -39 t85 -13.5q57 0 114.5 23t113.5 61q-39 59 -73 112.5t-54 90.5q-61 104 -109 205q-92 -45 -153.5 -110.5t-61.5 -174.5zM594 1010q0 -35 7 -73t20 -79q61 20 114 44t93 52.5t62.5 64.5t22.5 85q0 61 -38.5 93t-92.5 32q-33 0 -66.5 -14.5t-60 -42t-44 -68.5t-17.5 -94z" />
<glyph unicode="'" horiz-adv-x="438" d="M236 801q6 115 12 209q2 39 4 78.5t4 71.5t4 55.5t2 29.5q4 61 43 101t98 40q43 0 75 -30.5t32 -77.5q0 -16 -5 -31.5t-9 -23.5q-2 -4 -10.5 -25.5t-20.5 -52.5t-26.5 -68t-28.5 -76q-37 -90 -78 -200h-96z" />
<glyph unicode="(" horiz-adv-x="565" d="M49 205q0 160 37 320.5t107.5 314t172 296t230.5 267.5l111 -113q-203 -252 -318 -540.5t-115 -608.5q0 -117 22.5 -236.5t55.5 -223.5l-153 -89q-72 123 -111 281t-39 332z" />
<glyph unicode=")" horiz-adv-x="567" d="M-143 -295q203 254 317.5 543t114.5 608q0 115 -22.5 234.5t-55.5 224.5l156 88q72 -123 109.5 -280.5t37.5 -331.5q0 -160 -37 -321t-107.5 -314.5t-172 -296t-230.5 -267.5z" />
<glyph unicode="*" horiz-adv-x="710" d="M166 1008l225 82l-180 122l78 91l164 -142l41 225h114l-63 -235l219 102l35 -104l-224 -80l177 -125l-78 -90l-164 141l-39 -225h-117l64 236l-219 -101z" />
<glyph unicode="+" horiz-adv-x="1028" d="M86 623l31 137h379l90 411h151l-90 -411h379l-31 -137h-379l-94 -426h-151l94 426h-379z" />
<glyph unicode="," horiz-adv-x="501" d="M-37 -176q55 27 110.5 73t78.5 99h-19q-45 0 -77.5 30.5t-32.5 86.5q0 31 13 58.5t35.5 48t50.5 32.5t58 12q53 0 95 -36.5t42 -108.5q0 -55 -21.5 -110.5t-58 -105.5t-87 -92t-107.5 -71z" />
<glyph unicode="-" horiz-adv-x="614" d="M41 403l39 185h491l-39 -185h-491z" />
<glyph unicode="." horiz-adv-x="503" d="M25 111q0 63 46 108t109 45q55 0 93 -39t38 -92q0 -66 -45.5 -111t-111.5 -45q-53 0 -91 39t-38 95z" />
<glyph unicode="/" horiz-adv-x="645" d="M-123 -41l805 1448h168l-807 -1448h-166z" />
<glyph unicode="0" horiz-adv-x="1263" d="M102 518q0 162 47.5 317.5t135.5 278.5t209.5 197.5t273.5 74.5q221 0 346 -141t125 -399q0 -160 -47 -316.5t-133 -279.5t-208.5 -199t-272.5 -76q-111 0 -199 37t-149.5 106.5t-94.5 171t-33 228.5zM344 506q0 -68 14.5 -126t45 -101t78.5 -67t116 -24q94 0 168 64.5 t125 163t77.5 216.5t26.5 226q0 68 -14 126t-44 100t-78 66t-116 24q-94 0 -168.5 -63.5t-126 -162t-78 -216.5t-26.5 -226z" />
<glyph unicode="1" horiz-adv-x="778" d="M135 969l479 397h209l-301 -1366h-239l233 1057l-274 -234z" />
<glyph unicode="2" horiz-adv-x="1218" d="M-8 0l49 227q211 123 380 227.5t285.5 196.5t179 175t62.5 165q0 88 -74.5 136.5t-191.5 48.5q-115 0 -200 -37t-146 -90l-105 172q86 78 210 121.5t257 43.5q98 0 188.5 -23.5t160 -71.5t110.5 -118.5t41 -164.5q0 -109 -58.5 -210.5t-163 -200.5t-246.5 -195.5 t-308 -190.5h606l-47 -211h-989z" />
<glyph unicode="3" d="M-18 260l165 141q29 -51 74 -91t98.5 -66.5t111.5 -41t116 -14.5q135 0 205.5 65.5t70.5 166.5q0 74 -64.5 123t-207.5 49q-43 0 -88 -1t-62 -3l50 217q8 0 30.5 -1t51 -1h57h49.5q59 0 112.5 11t93.5 34.5t63.5 60.5t23.5 88q0 78 -77 128.5t-212 50.5q-88 0 -175 -29 t-163 -92l-90 162q84 78 200.5 123.5t250.5 45.5q113 0 207 -23.5t161.5 -67.5t105.5 -109.5t38 -149.5q0 -74 -33 -134t-86 -104t-119 -72t-133 -34q104 -25 179 -97.5t75 -197.5q0 -90 -39 -166.5t-107.5 -134t-162.5 -89.5t-203 -32q-92 0 -179 19.5t-162 56.5 t-133.5 89.5t-92.5 119.5z" />
<glyph unicode="4" horiz-adv-x="1187" d="M14 309l49 213l734 844h342l-187 -846h183l-48 -211h-182l-67 -309h-240l68 309h-652zM297 520h416l139 631z" />
<glyph unicode="5" horiz-adv-x="1228" d="M53 244l172 147q55 -98 149.5 -150.5t223.5 -52.5q63 0 117.5 20.5t93.5 57.5t60.5 86t21.5 105q0 104 -78 159.5t-201 55.5q-82 0 -143 -21.5t-123 -66.5l-153 65l155 717h895l-45 -211h-655l-84 -377q51 41 118.5 65.5t159.5 24.5q82 0 156 -24.5t129 -73.5t87 -120.5 t32 -166.5q0 -102 -40 -194t-111.5 -162t-173 -111t-224.5 -41q-193 0 -327 70t-212 199z" />
<glyph unicode="6" horiz-adv-x="1230" d="M94 494q0 156 45 315.5t134 287.5t221.5 208.5t308.5 80.5q147 0 256.5 -51t179.5 -141l-152 -168q-45 72 -123.5 110t-177.5 38q-86 0 -153.5 -36t-118.5 -94.5t-88 -132t-57 -147.5q-4 -14 -8.5 -26.5t-6.5 -22.5q27 29 68 57.5t89 51t102.5 35.5t111.5 13 q90 0 168 -25.5t135 -73.5t90 -116.5t33 -154.5q0 -106 -43 -201.5t-118 -168.5t-175 -115t-215 -42q-242 0 -374 135.5t-132 383.5zM328 465q0 -125 74.5 -201t199.5 -76q63 0 118.5 22.5t95.5 61.5t62.5 90.5t22.5 108.5q0 96 -80 151.5t-200 55.5q-86 0 -159 -36 t-132 -95q-2 -12 -2 -39v-43z" />
<glyph unicode="7" horiz-adv-x="1089" d="M129 0l768 1155h-696l45 211h985l-37 -166l-788 -1200h-277z" />
<glyph unicode="8" horiz-adv-x="1220" d="M45 334q0 141 103.5 246.5t289.5 148.5q-43 18 -83 46t-70.5 62.5t-49 79t-18.5 93.5q0 98 46 169.5t120 117.5t166 67.5t184 21.5q94 0 184.5 -21.5t161 -64.5t114.5 -107.5t44 -150.5q0 -72 -26.5 -131t-76 -105t-117 -78t-149.5 -46q47 -23 90 -54.5t77 -71.5 t53.5 -87t19.5 -102q0 -90 -44 -163t-118 -123t-171.5 -78t-201.5 -28t-200.5 21.5t-169 67t-115.5 112t-43 158.5zM299 379q0 -47 21.5 -83t59.5 -59.5t90.5 -36t111.5 -12.5q53 0 104 14.5t92 40t65.5 63.5t24.5 85q0 41 -22.5 75t-57 60.5t-76.5 45t-81 28.5 q-70 -4 -130.5 -21.5t-105.5 -46t-70.5 -67.5t-25.5 -86zM457 983q0 -35 20.5 -64.5t53 -53t71.5 -41t74 -25.5q135 10 219 61t84 139q0 37 -20.5 70t-55.5 55.5t-83 36t-103 13.5q-51 0 -98.5 -13.5t-83 -38t-57 -59.5t-21.5 -80z" />
<glyph unicode="9" horiz-adv-x="1230" d="M70 172l151 166q47 -72 125 -110t176 -38q86 0 153.5 37t120 95.5t88.5 132t56 147.5q6 14 9 26.5t5 22.5q-27 -29 -66.5 -57.5t-87.5 -51t-103.5 -35.5t-112.5 -13q-90 0 -168 25.5t-135.5 72.5t-89 115.5t-31.5 154.5q0 106 43 202.5t116.5 168.5t174 114t215.5 42 q242 0 373.5 -135.5t131.5 -383.5q0 -156 -45 -314.5t-133 -287.5t-221 -210t-307 -81q-147 0 -257 51.5t-181 143.5zM410 893q0 -96 78.5 -150.5t201.5 -54.5q84 0 157 36t132 95q2 12 3 39t1 43q0 125 -74.5 200t-201.5 75q-63 0 -117.5 -23t-94.5 -61.5t-62.5 -90 t-22.5 -108.5z" />
<glyph unicode=":" horiz-adv-x="485" d="M25 111q0 63 46 108t109 45q55 0 93 -39t38 -92q0 -66 -45.5 -111t-111.5 -45q-53 0 -91 39t-38 95zM186 850q0 66 46.5 111t111.5 45q53 0 91 -39t38 -95q0 -63 -46.5 -108t-109.5 -45q-55 0 -93 39t-38 92z" />
<glyph unicode=";" horiz-adv-x="501" d="M-37 -176q55 27 110.5 73t78.5 99h-19q-45 0 -77.5 30.5t-32.5 86.5q0 31 13 58.5t35.5 48t50.5 32.5t58 12q53 0 95 -36.5t42 -108.5q0 -55 -21.5 -110.5t-58 -105.5t-87 -92t-107.5 -71zM186 850q0 66 46.5 111t111.5 45q53 0 91 -39t38 -95q0 -63 -46.5 -108 t-109.5 -45q-55 0 -93 39t-38 92z" />
<glyph unicode="&#x3c;" horiz-adv-x="1028" d="M82 608l35 156l1003 424l-39 -172l-819 -338l670 -336l-35 -158z" />
<glyph unicode="=" horiz-adv-x="1028" d="M41 420l31 139h909l-31 -139h-909zM127 811l31 137h909l-31 -137h-909z" />
<glyph unicode="&#x3e;" horiz-adv-x="1028" d="M-12 184l39 172l823 336l-674 338l35 158l815 -424l-35 -156z" />
<glyph unicode="?" horiz-adv-x="940" d="M178 1227q96 86 199.5 122.5t214.5 36.5q88 0 166 -20t135 -59t90 -95.5t33 -126.5q0 -90 -36 -151.5t-89 -105.5t-116.5 -75.5t-117 -63.5t-89.5 -68.5t-36 -90.5q0 -14 5.5 -32.5t21.5 -34.5l-194 -62q-39 63 -39 146q0 74 31.5 125t80.5 89t104.5 66.5t104.5 58 t81 65.5t32 87q0 61 -51.5 99.5t-151.5 38.5q-76 0 -146.5 -29t-129.5 -84zM233 111q0 63 46.5 108t111.5 45q53 0 91 -39t38 -92q0 -66 -46 -111t-109 -45q-55 0 -93.5 39t-38.5 95z" />
<glyph unicode="@" horiz-adv-x="1603" d="M113 500q0 166 67.5 312t179 256t259 174.5t307.5 64.5q147 0 266 -50.5t203 -137.5t130 -202.5t46 -246.5q0 -125 -35 -218.5t-90 -154.5t-124 -92t-134 -31q-90 0 -137 48t-56 110l-2 14q-53 -78 -135 -125t-172 -47q-74 0 -132 25.5t-100 70.5t-63.5 107.5 t-21.5 136.5q0 104 40 196.5t105.5 162t150.5 109.5t175 40q98 0 162.5 -43t97.5 -105l22 117h193l-111 -524q-2 -8 -3 -22.5t-1 -22.5q0 -49 24.5 -73.5t59.5 -24.5q31 0 66.5 18t66.5 59t52.5 107.5t21.5 163.5q0 123 -41 225t-115.5 177t-180 116t-234.5 41 q-147 0 -279.5 -59.5t-233 -160t-159 -232.5t-58.5 -275q0 -121 43 -226.5t121 -182.5t184.5 -121t233.5 -44q106 0 198.5 31t176.5 84l41 -59q-96 -61 -203.5 -95t-222.5 -34q-139 0 -258 49t-206 136t-136 205t-49 253zM569 528q0 -88 49.5 -143t137.5 -55q90 0 155.5 50 t104.5 105l53 258q-8 20 -22.5 42t-38 40.5t-54 29.5t-69.5 11q-68 0 -126.5 -28.5t-100.5 -75.5t-65.5 -108.5t-23.5 -125.5z" />
<glyph unicode="A" horiz-adv-x="1378" d="M-109 0l840 1366h299l236 -1366h-260l-43 264h-627l-158 -264h-287zM451 475h491l-102 651z" />
<glyph unicode="B" horiz-adv-x="1329" d="M35 0l301 1366h622q84 0 151 -25.5t114 -68.5t72.5 -101.5t25.5 -126.5q0 -70 -25.5 -132t-68.5 -110t-100.5 -80t-118.5 -38q45 -12 81.5 -40t62.5 -64.5t39 -81.5t13 -90q0 -74 -26.5 -147t-84 -131t-146.5 -94t-214 -36h-698zM322 211h397q59 0 104 18.5t76 48 t47.5 68.5t16.5 82q0 72 -47.5 118t-131.5 46h-378zM453 803h391q61 0 103 17.5t67.5 47t37 65.5t11.5 73q0 66 -48 107.5t-120 41.5h-365z" />
<glyph unicode="C" horiz-adv-x="1396" d="M104 582q0 182 64.5 331.5t173.5 255t250 163t297 57.5q115 0 208 -28t165.5 -76t126 -113.5t86.5 -141.5l-230 -82q-49 117 -147.5 172.5t-220.5 55.5q-102 0 -196.5 -42t-166.5 -119t-115 -183.5t-43 -235.5q0 -88 29 -163t83 -129t131 -85t173 -31q92 0 182 41 t160 117l182 -129q-57 -68 -123.5 -114t-137 -74.5t-141.5 -41t-134 -12.5q-139 0 -259 43t-208 122t-138.5 190.5t-50.5 251.5z" />
<glyph unicode="D" horiz-adv-x="1454" d="M35 0l301 1366h498q115 0 220 -43t185 -120t128 -184.5t48 -236.5q0 -137 -49 -276t-154.5 -252t-271.5 -183.5t-399 -70.5h-506zM322 211h262q135 0 243.5 45t183 121t115.5 176t41 213q0 84 -28.5 154.5t-78.5 123t-119 82t-150 29.5h-261z" />
<glyph unicode="E" horiz-adv-x="1181" d="M35 0l301 1366h936l-45 -211h-697l-77 -352h682l-48 -211h-681l-84 -381h696l-47 -211h-936z" />
<glyph unicode="F" horiz-adv-x="1153" d="M35 0l301 1366h936l-45 -211h-697l-77 -352h682l-48 -211h-681l-132 -592h-239z" />
<glyph unicode="G" horiz-adv-x="1468" d="M104 582q0 182 66 331.5t176.5 255t259 163t314.5 57.5q100 0 185 -26t153.5 -71t120 -103.5t81.5 -121.5l-217 -94q-45 94 -142 148.5t-214 54.5q-104 0 -199.5 -43t-169.5 -120t-118 -183.5t-44 -233.5q0 -90 29 -166t82 -129t127 -83t164 -30q86 0 157.5 27t128 73 t97.5 106.5t65 129.5h-485l47 211h735q-63 -371 -262 -565.5t-512 -194.5q-133 0 -246.5 44t-197.5 124t-132.5 191.5t-48.5 247.5z" />
<glyph unicode="H" horiz-adv-x="1480" d="M35 0l301 1366h239l-122 -557h710l123 557h240l-301 -1366h-240l131 598h-710l-132 -598h-239z" />
<glyph unicode="I" horiz-adv-x="530" d="M35 0l301 1366h239l-301 -1366h-239z" />
<glyph unicode="J" horiz-adv-x="987" d="M-53 137l135 178q35 -57 96.5 -92t138.5 -35q111 0 178.5 69t92.5 179l205 930h239l-207 -932q-53 -236 -173.5 -347.5t-319.5 -111.5q-115 0 -219.5 40t-165.5 122z" />
<glyph unicode="K" horiz-adv-x="1271" d="M35 0l301 1366h239l-139 -631l662 631h309l-696 -643l438 -723h-283l-336 586l-159 -150l-97 -436h-239z" />
<glyph unicode="L" horiz-adv-x="1036" d="M18 0l301 1366h240l-254 -1155h602l-47 -211h-842z" />
<glyph unicode="M" horiz-adv-x="1710" d="M35 0l301 1366h330l163 -938l580 938h346l-301 -1366h-240l234 1055l-651 -1055h-103l-186 1055l-234 -1055h-239z" />
<glyph unicode="N" horiz-adv-x="1474" d="M35 0l301 1366h246l485 -958l213 958h240l-301 -1366h-232l-493 989l-220 -989h-239z" />
<glyph unicode="O" horiz-adv-x="1566" d="M104 582q0 170 60.5 317.5t167 256t249 171t308.5 62.5q137 0 256 -41t207 -120t139 -190.5t51 -253.5q0 -170 -60.5 -317.5t-166 -256t-247.5 -172t-308 -63.5q-137 0 -257 42t-208 120t-139.5 190.5t-51.5 254.5zM356 596q0 -96 32 -172t88 -128t132 -80t164 -28 q106 0 200.5 44t165 122t111.5 184.5t41 229.5q0 96 -31.5 172t-88 128t-133 80t-165.5 28q-106 0 -200 -44.5t-164 -122t-111 -184t-41 -229.5z" />
<glyph unicode="P" horiz-adv-x="1247" d="M35 0l301 1366h586q80 0 147.5 -29.5t117.5 -80t77.5 -117t27.5 -140.5q0 -78 -27.5 -163.5t-92 -157.5t-169 -119t-258.5 -47h-358l-113 -512h-239zM434 723h326q66 0 118 19.5t89 54t56 80t19 98.5q0 78 -54 129t-140 51h-318z" />
<glyph unicode="Q" horiz-adv-x="1566" d="M104 582q0 170 60.5 317.5t167 256t249 171t308.5 62.5q137 0 256 -41t207 -120t139 -190.5t51 -253.5q0 -203 -84 -370.5t-225 -278.5l76 -112l-191 -99l-71 107q-66 -27 -137.5 -41.5t-149.5 -14.5q-137 0 -257 42t-208 120t-139.5 190.5t-51.5 254.5zM356 596 q0 -96 32 -172t88 -128t132 -80t164 -28q80 0 154 25l-138 209l193 96l127 -194q84 78 133 192.5t49 251.5q0 96 -31.5 172t-88 128t-133 80t-165.5 28q-106 0 -200 -44.5t-164 -122t-111 -184t-41 -229.5z" />
<glyph unicode="R" horiz-adv-x="1288" d="M35 0l301 1366h549q80 0 152.5 -25.5t130 -73.5t91 -117t33.5 -157q0 -92 -30.5 -173t-86 -142.5t-131 -100t-165.5 -51.5l215 -526h-267l-190 510h-250l-113 -510h-239zM434 721h326h2q135 0 207.5 72.5t72.5 177.5q0 41 -16 74.5t-44 58t-63.5 38t-74.5 13.5h-314z" />
<glyph unicode="S" horiz-adv-x="1216" d="M14 227l152 174q72 -98 192.5 -155.5t264.5 -57.5q66 0 112.5 18.5t76.5 47.5t44 63.5t14 67.5q0 55 -50 93t-123.5 70t-162 63.5t-162 76.5t-123.5 110.5t-50 164.5q0 82 35.5 158.5t103.5 136t163 95.5t212 36q160 0 298 -57.5t224 -162.5l-154 -172 q-74 92 -184.5 136.5t-218.5 44.5q-49 0 -90 -14.5t-71 -38t-47 -55.5t-17 -66q0 -51 50 -87t123.5 -67t162 -63.5t162 -78.5t123.5 -113t50 -165q0 -90 -34.5 -172t-101 -144.5t-164 -100.5t-220.5 -38q-96 0 -186 18.5t-167 52.5t-137.5 80t-99.5 101z" />
<glyph unicode="T" horiz-adv-x="1181" d="M203 1155l45 211h1067l-45 -211h-414l-256 -1155h-240l256 1155h-413z" />
<glyph unicode="U" horiz-adv-x="1474" d="M143 442q0 25 3.5 53.5t7.5 45.5l182 825h244l-183 -821q-2 -10 -5 -30.5t-3 -43.5q0 -59 21.5 -111.5t62.5 -90.5t101.5 -60.5t138.5 -22.5q170 0 258 97.5t125 261.5l180 821h244l-183 -825q-29 -125 -74.5 -229.5t-120.5 -179.5t-180.5 -116t-248.5 -41 q-139 0 -245 34t-178.5 95.5t-109.5 147.5t-37 190z" />
<glyph unicode="V" horiz-adv-x="1378" d="M195 1366h260l170 -1104l657 1104h285l-838 -1366h-299z" />
<glyph unicode="W" horiz-adv-x="1849" d="M205 1366h260l35 -1051l514 1051h190l51 -1051l498 1051h275l-693 -1366h-256l-43 1010l-487 -1010h-256z" />
<glyph unicode="X" horiz-adv-x="1353" d="M-104 0l673 717l-340 649h271l254 -492l448 492h305l-633 -678l363 -688h-272l-277 526l-489 -526h-303z" />
<glyph unicode="Y" horiz-adv-x="1304" d="M195 1366h260l245 -584l504 584h289l-705 -799l-124 -567h-240l125 567z" />
<glyph unicode="Z" horiz-adv-x="1206" d="M-20 0l43 195l897 960h-684l47 211h1009l-43 -192l-897 -963h699l-45 -211h-1026z" />
<glyph unicode="[" horiz-adv-x="542" d="M-109 -389l396 1778h415l-32 -148h-256l-330 -1483h258l-35 -147h-416z" />
<glyph unicode="\" horiz-adv-x="645" d="M201 1407h159l164 -1448h-159z" />
<glyph unicode="]" horiz-adv-x="542" d="M-162 -389l33 147h258l328 1483h-256l32 148h416l-395 -1778h-416z" />
<glyph unicode="^" horiz-adv-x="894" d="M78 682l483 684h158l176 -684h-156l-125 535l-362 -535h-174z" />
<glyph unicode="_" horiz-adv-x="1155" d="M-168 -229l35 147h1165l-33 -147h-1167z" />
<glyph unicode="`" horiz-adv-x="491" d="M207 1434h205l221 -295h-154z" />
<glyph unicode="a" horiz-adv-x="1099" d="M43 262q0 86 29.5 153.5t80 115t117 72t140.5 24.5q113 0 196.5 -35t149.5 -105l30 136q2 6 3.5 22.5t1.5 28.5q0 72 -67 117t-177 45q-82 0 -151.5 -28t-129.5 -75l-57 154q170 127 381 127q84 0 159.5 -16.5t134 -53.5t93.5 -93t35 -136q0 -18 -4 -50t-9 -51l-135 -614 h-215l23 104q-59 -59 -132 -94t-169 -35q-63 0 -123 17.5t-105 53.5t-72.5 90t-27.5 126zM264 281q0 -78 54.5 -118t146.5 -40q74 0 131 26.5t100 71.5l35 148q-35 53 -101.5 81.5t-148.5 28.5q-98 0 -157.5 -56t-59.5 -142z" />
<glyph unicode="b" horiz-adv-x="1189" d="M29 0l301 1366h215l-111 -508q61 76 138 116t171 40q170 0 274.5 -105.5t104.5 -302.5q0 -117 -34.5 -229.5t-101 -201.5t-164 -144.5t-220.5 -55.5q-106 0 -192 44t-136 122l-30 -141h-215zM309 301q35 -57 101.5 -96t158.5 -39q74 0 134.5 32.5t103.5 88t66.5 127 t23.5 149.5q0 121 -67.5 190.5t-176.5 69.5q-78 0 -146.5 -40t-111.5 -99z" />
<glyph unicode="c" horiz-adv-x="1019" d="M68 422q0 123 44 230.5t120.5 187.5t180 127t224.5 47q145 0 240.5 -52.5t146.5 -138.5l-162 -123q-35 59 -94 91t-131 32q-80 0 -144.5 -31.5t-109.5 -86t-69.5 -125t-24.5 -148.5q0 -66 21.5 -115t58.5 -82.5t86 -51t106 -17.5q72 0 129.5 30.5t97.5 77.5l117 -143 q-59 -61 -148 -108.5t-216 -47.5q-106 0 -193.5 32t-150 90.5t-96 140t-33.5 184.5z" />
<glyph unicode="d" horiz-adv-x="1189" d="M66 385q0 115 34.5 227.5t102 201.5t164 144.5t219.5 55.5q109 0 193.5 -44t133.5 -122l115 518h215l-303 -1366h-215l31 131q-63 -76 -140 -116t-172 -40q-168 0 -273 106.5t-105 303.5zM291 428q0 -121 68.5 -191.5t175.5 -70.5q80 0 147.5 41t112.5 100l84 383 q-35 57 -102 95t-159 38q-74 0 -134 -32.5t-103 -88t-66.5 -127t-23.5 -147.5z" />
<glyph unicode="e" horiz-adv-x="1140" d="M68 418q0 121 43 229.5t118.5 189.5t179 129t224.5 48q96 0 177 -31t139.5 -88t90 -137t31.5 -180q0 -41 -7 -86.5t-13 -67.5h-764q-2 -4 -2 -14.5v-18.5q0 -43 18.5 -86t55 -76.5t93 -55t132.5 -21.5q70 0 141.5 21.5t122.5 62.5l70 -152q-72 -49 -164.5 -79t-186.5 -30 q-115 0 -207 31t-157.5 89.5t-100 139t-34.5 183.5zM309 578h563h5q0 4 1 13t1 13q0 98 -65.5 166t-195.5 68q-59 0 -111 -21.5t-93 -57.5t-69 -83t-36 -98z" />
<glyph unicode="f" horiz-adv-x="632" d="M82 0l176 803h-164l43 186h162l12 55q35 164 123 253t230 89q55 0 105 -11t95 -40l-78 -153q-20 16 -45.5 22t-54.5 6q-66 0 -103.5 -40t-56.5 -126l-12 -55h203l-43 -186h-201l-176 -803h-215z" />
<glyph unicode="g" horiz-adv-x="1189" d="M-29 -231l129 143q49 -70 137.5 -103.5t192.5 -33.5q49 0 96 13t87 45t71 85t49 133l25 109q-57 -72 -138 -115t-180 -43q-76 0 -143.5 23.5t-118.5 72.5t-81.5 125t-30.5 183q0 115 35.5 224t101 194t161 137.5t216.5 52.5q96 0 186 -45t145 -121l33 141h215l-209 -938 q-31 -133 -85 -220t-122.5 -139t-148.5 -72.5t-160 -20.5q-143 0 -260 36.5t-203 133.5zM291 444q0 -117 67.5 -184t178.5 -67q74 0 142.5 38.5t115.5 94.5l79 358q-37 66 -109.5 102.5t-160.5 36.5q-72 0 -129 -30.5t-98 -83t-63.5 -121t-22.5 -144.5z" />
<glyph unicode="h" horiz-adv-x="1163" d="M31 0l301 1366h215l-115 -510q31 29 68 57.5t79 51t90 36t101 13.5q139 0 222 -65.5t83 -182.5q0 -16 -4 -42t-8 -42l-150 -682h-215l138 623q4 12 6 30.5t2 30.5q0 76 -53.5 107.5t-131.5 31.5q-76 0 -144.5 -42t-117.5 -91l-151 -690h-215z" />
<glyph unicode="i" horiz-adv-x="493" d="M29 0l219 989h215l-219 -989h-215zM274 1225q0 37 14.5 64.5t36 47t49 29.5t52.5 10q53 0 87 -33.5t34 -80.5q0 -37 -14.5 -65t-36 -47.5t-49 -29.5t-52.5 -10q-53 0 -87 34t-34 81z" />
<glyph unicode="j" horiz-adv-x="493" d="M-381 -317l94 153q49 -61 133 -61q61 0 105.5 40t64.5 128l232 1046h215l-232 -1046q-35 -158 -116.5 -251t-237.5 -93q-174 0 -258 84zM274 1225q0 37 14.5 64.5t36 47t49 29.5t52.5 10q53 0 87 -33.5t34 -80.5q0 -37 -14.5 -65t-36 -47.5t-49 -29.5t-52.5 -10 q-53 0 -87 34t-34 81z" />
<glyph unicode="k" horiz-adv-x="1079" d="M29 0l301 1366h215l-187 -840l533 463h274l-510 -448l299 -541h-258l-217 416l-176 -150l-59 -266h-215z" />
<glyph unicode="l" horiz-adv-x="585" d="M74 168q0 39 8 72l248 1126h215l-238 -1073q-2 -12 -3 -22.5t-1 -22.5q0 -39 26.5 -60.5t71.5 -21.5q23 0 47.5 8t34.5 19l13 -173q-23 -18 -63 -31.5t-93 -13.5q-125 0 -195.5 50.5t-70.5 142.5z" />
<glyph unicode="m" horiz-adv-x="1708" d="M29 0l219 989h215l-31 -133q20 23 51 50.5t69 51t85 40t100 16.5q70 0 121 -22.5t84 -53.5t49.5 -63.5t16.5 -53.5v-4q31 37 66.5 72t77.5 62.5t90 45t104 17.5q53 0 103 -16.5t88 -47t60.5 -77t22.5 -107.5q0 -18 -4 -43t-8 -41l-150 -682h-215l139 631q2 8 4.5 23.5 t2.5 29.5q0 68 -45.5 103.5t-108.5 35.5q-66 0 -127 -40t-104 -93l-154 -690h-215l139 631q8 31 8 59q0 59 -40 96t-115 37q-66 0 -126.5 -41t-103.5 -92l-153 -690h-215z" />
<glyph unicode="n" horiz-adv-x="1163" d="M29 0l219 989h215l-31 -133q31 29 68 57.5t79 51t90 36t101 13.5q139 0 222 -65.5t83 -182.5q0 -14 -4 -41t-8 -43l-150 -682h-215l138 621q4 16 6 31.5t2 31.5q0 76 -53.5 107.5t-131.5 31.5q-76 0 -144.5 -41t-117.5 -92l-153 -690h-215z" />
<glyph unicode="o" d="M68 422q0 117 42 223.5t116.5 188t178 131t226.5 49.5q113 0 201 -33t148 -92.5t92 -140t32 -179.5q0 -117 -42 -223t-117 -189t-178 -132.5t-226 -49.5q-113 0 -201 33t-148.5 92.5t-92 141.5t-31.5 180zM291 430q0 -123 67.5 -193.5t190.5 -70.5q74 0 134 32.5t104 88 t69 126t25 146.5q0 123 -68 193.5t-190 70.5q-74 0 -134.5 -32.5t-104.5 -88t-68.5 -126t-24.5 -146.5z" />
<glyph unicode="p" horiz-adv-x="1185" d="M-55 -377l303 1366h215l-29 -131q61 76 138 116t171 40q170 0 274.5 -105.5t104.5 -302.5q0 -117 -34.5 -229.5t-101 -201.5t-164 -144.5t-220.5 -55.5q-106 0 -192 44t-136 122l-114 -518h-215zM309 301q35 -57 101.5 -96t158.5 -39q74 0 134.5 32.5t103.5 88t66.5 127 t23.5 149.5q0 121 -67.5 190.5t-176.5 69.5q-78 0 -146.5 -40t-111.5 -99z" />
<glyph unicode="q" horiz-adv-x="1185" d="M66 385q0 115 34.5 227.5t102 201.5t164 144.5t219.5 55.5q109 0 193.5 -44t133.5 -122l31 141h215l-303 -1366h-215l115 508q-63 -76 -140 -116t-172 -40q-168 0 -273 106.5t-105 303.5zM291 428q0 -121 68.5 -191.5t175.5 -70.5q80 0 147.5 41t112.5 100l84 383 q-35 57 -102 95t-159 38q-74 0 -134 -32.5t-103 -88t-66.5 -127t-23.5 -147.5z" />
<glyph unicode="r" horiz-adv-x="710" d="M29 0l219 989h215l-31 -137q68 76 152 119t207 43l-50 -217q-10 4 -33.5 7t-52.5 3q-78 0 -148.5 -41t-115.5 -96l-147 -670h-215z" />
<glyph unicode="s" horiz-adv-x="966" d="M-8 154l127 147q20 -27 56 -54.5t80 -49t95 -36t107 -14.5q86 0 133 40t47 94q0 39 -38 64.5t-95.5 47t-123 45t-122.5 56t-95 80t-38 118.5q0 63 25.5 121.5t75.5 103t124 71t168 26.5q127 0 233.5 -45t170.5 -115l-117 -143q-16 25 -47 49t-70 42.5t-84 30t-92 11.5 q-82 0 -127 -34t-45 -83q0 -37 38 -60.5t94 -45t123 -45t123 -57.5t94 -83t38 -123q0 -68 -27.5 -129t-80 -107t-129.5 -74t-175 -28q-135 0 -251.5 45.5t-194.5 133.5z" />
<glyph unicode="t" horiz-adv-x="653" d="M86 803l43 186h164l59 271h215l-59 -271h201l-43 -186h-201l-113 -510q-2 -10 -3 -18.5t-1 -18.5q0 -41 24.5 -65.5t73.5 -24.5q23 0 46.5 8t35.5 19l13 -173q-62 -45 -156 -45q-121 0 -193.5 48.5t-72.5 152.5q0 8 1 26.5t5 37.5l125 563h-164z" />
<glyph unicode="u" horiz-adv-x="1161" d="M86 225q0 14 3 40t7 42l152 682h215l-137 -618q-4 -16 -7.5 -31.5t-3.5 -32.5q0 -76 53.5 -108.5t131.5 -32.5q76 0 145.5 42t118.5 93l151 688h215l-219 -989h-215l31 135q-31 -29 -67.5 -57.5t-78.5 -51t-90.5 -37t-101.5 -14.5q-139 0 -221 67t-82 183z" />
<glyph unicode="v" horiz-adv-x="1030" d="M104 989h224l123 -741l454 741h238l-623 -989h-231z" />
<glyph unicode="w" horiz-adv-x="1546" d="M119 989h217l49 -719l395 719h189l75 -719l369 719h232l-527 -989h-225l-72 725l-389 -725h-225z" />
<glyph unicode="x" horiz-adv-x="1017" d="M-100 0l475 508l-234 481h234l160 -334l309 334h250l-451 -481l254 -508h-233l-177 365l-337 -365h-250z" />
<glyph unicode="y" horiz-adv-x="1161" d="M-57 -231l131 143q25 -35 60.5 -61.5t78.5 -43t92 -24.5t98 -8q133 0 204 72.5t102 203.5l24 113q-66 -59 -146.5 -107.5t-189.5 -48.5q-63 0 -118.5 14.5t-96.5 45t-64.5 78t-23.5 110.5q0 14 1 33.5t9 50.5l144 649h215l-131 -588q-4 -18 -6 -35.5t-2 -27.5 q0 -41 15 -67.5t41 -43t59.5 -22.5t68.5 -6q78 0 146.5 42t115.5 91l145 657h215l-208 -938q-47 -211 -174 -331.5t-340 -120.5q-156 0 -269.5 39.5t-195.5 130.5z" />
<glyph unicode="z" horiz-adv-x="974" d="M-16 0l36 164l621 639h-479l43 186h776l-35 -155l-631 -646h494l-39 -188h-786z" />
<glyph unicode="{" horiz-adv-x="567" d="M-23 -145q0 31 7 59l86 383q2 10 3 18.5t1 18.5q0 45 -20.5 73.5t-59.5 28.5l29 127q59 0 91.5 41t45.5 98l86 381q35 158 129 232t229 74h125l-33 -148h-125q-133 0 -168 -156l-92 -419q-16 -66 -47 -115t-86 -68q33 -16 46.5 -45.5t13.5 -66.5q0 -16 -2.5 -34t-6.5 -36 l-86 -385q-2 -10 -3 -20.5t-1 -20.5q0 -53 33 -85t84 -32h111l-33 -147h-96q-51 0 -98.5 17.5t-83.5 50t-57.5 76.5t-21.5 100z" />
<glyph unicode="|" horiz-adv-x="438" d="M186 -41v1448h148v-1448h-148z" />
<glyph unicode="}" horiz-adv-x="567" d="M-164 -389l33 147h125q133 0 168 156l92 420q16 66 47 115t86 67q-33 16 -46 47t-13 66q0 16 2 33.5t6 35.5l86 385q2 10 3 20.5t1 20.5q0 53 -33 85t-84 32h-110l32 148h97q51 0 98 -17.5t83 -50.5t57.5 -77t21.5 -99q0 -14 -2 -30.5t-6 -29.5l-84 -383q-2 -10 -3 -18 t-1 -16q0 -45 20 -75t59 -30l-28 -127q-59 0 -92 -41t-45 -98l-87 -381q-35 -158 -129 -231.5t-229 -73.5h-125z" />
<glyph unicode="~" horiz-adv-x="1038" d="M135 870q20 94 52 183.5t77 158t106.5 110.5t143.5 42q72 0 112 -27.5t59.5 -69.5t26.5 -90.5t15 -90.5t23.5 -69.5t52.5 -27.5q33 0 65.5 31t62.5 82t54.5 119.5t40.5 144.5l145 -16q-20 -92 -50.5 -181.5t-76 -159t-106.5 -112.5t-143 -43q-74 0 -113 27.5t-58.5 68.5 t-26.5 90.5t-15.5 90t-24.5 68.5t-53 28q-35 0 -66.5 -30t-60.5 -80t-53.5 -118.5t-40.5 -146.5z" />
<glyph unicode="&#xa1;" horiz-adv-x="499" d="M-76 -377l248 948h186l-170 -948h-264zM186 858q0 63 46 108.5t112 45.5q53 0 91 -39t38 -92q0 -66 -46 -111t-110 -45q-55 0 -93 39t-38 94z" />
<glyph unicode="&#xa2;" horiz-adv-x="1019" d="M68 422q0 119 42 225.5t115.5 186t174 128t216.5 52.5l33 143h160l-35 -158q88 -23 149.5 -68.5t100.5 -107.5l-162 -123q-47 78 -131 107l-143 -641q61 6 112.5 35.5t87.5 72.5l117 -143q-59 -61 -147 -107.5t-213 -48.5l-39 -180h-160l43 199q-147 39 -234 150.5 t-87 277.5zM289 432q0 -92 40 -152.5t105 -89.5l139 627q-66 -12 -119 -48t-89.5 -88t-56 -115.5t-19.5 -133.5z" />
<glyph unicode="&#xa3;" horiz-adv-x="1097" d="M18 156q66 27 122.5 66.5t98.5 86.5t66.5 100.5t24.5 106.5q0 10 -1 17.5t-1 17.5h-273l31 141h193q-29 57 -57.5 115.5t-28.5 136.5q0 90 40.5 170t111.5 140.5t165 96t203 35.5q80 0 154.5 -17t134 -51t103.5 -82t62 -110l-215 -92q-16 72 -79.5 114t-149.5 42 q-55 0 -104.5 -19.5t-87 -55.5t-59 -85t-21.5 -110q0 -37 8 -67t20.5 -56.5t25.5 -52t25 -52.5h295l-30 -141h-240q-4 -49 -23.5 -96t-49 -87t-64.5 -72t-68 -50q47 16 94 16t85 -12t73 -25.5t71 -26t79 -12.5q59 0 101 23.5t75 54.5l53 -190q-43 -43 -102.5 -72t-143.5 -29 q-68 0 -125 14.5t-109 32t-101.5 32t-104.5 14.5q-53 0 -110.5 -20.5t-121.5 -59.5z" />
<glyph unicode="&#xa5;" horiz-adv-x="1304" d="M-12 242l32 139h492l41 186h-492l31 140h400l-293 659h260l246 -584l503 584h289l-582 -659h390l-31 -140h-481l-41 -186h481l-31 -139h-481l-53 -242h-240l53 242h-493z" />
<glyph unicode="&#xa6;" horiz-adv-x="438" d="M186 -41v647h148v-647h-148zM186 760v647h148v-647h-148z" />
<glyph unicode="&#xa7;" horiz-adv-x="976" d="M-55 4l125 129q53 -68 145 -107.5t197 -39.5q86 0 138 45t52 104q0 45 -37 75t-93 52.5t-121.5 45t-122 56t-93.5 82t-37 123.5q0 100 70 178t207 109q-74 33 -119 87t-45 132q0 63 27.5 120.5t79 99.5t123 66.5t159.5 24.5q147 0 251.5 -39.5t170.5 -111.5l-117 -117 q-49 59 -131 88t-164 29q-88 0 -138 -40t-50 -95q0 -45 38 -73t94 -50.5t121.5 -44t122 -54t94.5 -81.5t38 -125q0 -98 -64.5 -179t-181.5 -118q74 -41 103.5 -93.5t29.5 -113.5q0 -68 -28.5 -129.5t-82 -106.5t-127 -71.5t-165.5 -26.5q-152 0 -271.5 44t-197.5 126z M315 610q0 -66 57.5 -100.5t151.5 -65.5q100 27 141.5 78.5t41.5 102.5q0 66 -48.5 100.5t-113.5 56.5q-121 -16 -175.5 -64t-54.5 -108z" />
<glyph unicode="&#xa8;" horiz-adv-x="583" d="M123 1233q0 27 11 50.5t29.5 41.5t43 29.5t51.5 11.5q45 0 76 -30.5t31 -75.5q0 -27 -11.5 -51.5t-30 -43t-43 -29t-51.5 -10.5q-47 0 -76.5 30t-29.5 77zM551 1233q0 27 11 50.5t29.5 41.5t43 29.5t51.5 11.5q45 0 76 -30.5t31 -75.5q0 -27 -11.5 -51.5t-30 -43t-43 -29 t-51.5 -10.5q-47 0 -76.5 30t-29.5 77z" />
<glyph unicode="&#xa9;" horiz-adv-x="1593" d="M131 684q0 147 55.5 275t150.5 224.5t224 152t275 55.5q147 0 276 -55.5t225.5 -152t151.5 -224.5t55 -275q0 -145 -55 -274t-151.5 -225.5t-225.5 -152t-276 -55.5q-145 0 -274.5 55.5t-224.5 152t-150.5 225.5t-55.5 274zM201 684q0 -131 50 -246.5t136 -203 t202 -137.5t247 -50t247.5 50t203.5 137.5t137.5 203t50.5 246.5t-50.5 248t-137.5 203t-203.5 136t-247.5 50t-247 -50t-202 -136t-136 -203t-50 -248zM410 629q0 104 39.5 194t107.5 157t154 103.5t178 36.5q106 0 189 -41t134 -125l-69 -49q-37 68 -103.5 103.5 t-152.5 35.5q-72 0 -141.5 -30.5t-125 -86t-90 -131t-34.5 -165.5q0 -61 21.5 -116.5t61 -97.5t96 -66.5t128.5 -24.5q68 0 130 28.5t103 69.5l47 -64q-55 -47 -126.5 -78.5t-153.5 -31.5q-92 0 -165 29.5t-123 80t-77.5 120t-27.5 149.5z" />
<glyph unicode="&#xaa;" horiz-adv-x="843" d="M168 926q0 82 26.5 154.5t73.5 128t109.5 87t136.5 31.5q72 0 129 -24.5t92 -75.5l19 84h157l-141 -643h-160l19 86q-45 -53 -94.5 -78t-110.5 -25q-51 0 -97 17.5t-82 51.5t-56.5 86t-20.5 120zM332 942q0 -82 44 -123t111 -41q51 0 93.5 23.5t72.5 58.5l60 268 q-23 35 -68 54.5t-94 19.5q-47 0 -87 -21.5t-69.5 -56t-46 -83t-16.5 -99.5z" />
<glyph unicode="&#xab;" horiz-adv-x="1003" d="M59 498l410 362h213l-418 -373l238 -358h-197zM408 498l409 362h213l-418 -373l238 -358h-197z" />
<glyph unicode="&#xac;" horiz-adv-x="1046" d="M127 811l31 137h909l-117 -528h-143l86 391h-766z" />
<glyph unicode="&#xad;" horiz-adv-x="614" d="M41 403l39 185h491l-39 -185h-491z" />
<glyph unicode="&#xae;" horiz-adv-x="1011" d="M172 952q0 90 34 170t93 138.5t138 92t169 33.5t170 -33.5t138.5 -92t92 -138.5t33.5 -170t-33.5 -168.5t-93 -138t-139.5 -93.5t-170 -34t-169 34t-137 93.5t-92 138t-34 168.5zM236 952q0 -76 28.5 -143.5t78.5 -117.5t116.5 -79.5t144.5 -29.5t146.5 29.5t119 79.5 t80 117.5t29.5 143.5q0 78 -29.5 146.5t-80 119t-119 79t-146.5 28.5t-144.5 -28.5t-116.5 -79t-78.5 -119t-28.5 -146.5zM385 702l109 498h190q61 0 102 -36t41 -95q0 -37 -14 -67.5t-37.5 -53t-52.5 -35t-59 -12.5l90 -199h-80l-86 197h-92l-43 -197h-68zM510 961h135 q49 0 80 30.5t31 71.5q0 35 -22.5 56.5t-63.5 21.5h-121z" />
<glyph unicode="&#xaf;" horiz-adv-x="743" d="M158 1210l28 127h742l-29 -127h-741z" />
<glyph unicode="&#xb0;" horiz-adv-x="618" d="M182 1120q0 55 20.5 103.5t56.5 85.5t84 57t103 20t103.5 -20t84.5 -57t57.5 -85.5t21.5 -103.5t-21.5 -103t-57.5 -84t-84 -56.5t-104 -20.5q-55 0 -103 20.5t-84 56.5t-56.5 84t-20.5 103zM305 1120q0 -59 40 -99t99 -40t102.5 40t43.5 99t-42 101.5t-102 42.5 q-59 0 -100 -42t-41 -102z" />
<glyph unicode="&#xb1;" horiz-adv-x="1028" d="M-51 0l28 139h912l-31 -139h-909zM96 666l31 139h379l90 409h152l-91 -409h379l-30 -139h-379l-95 -424h-151l94 424h-379z" />
<glyph unicode="&#xb2;" horiz-adv-x="806" d="M178 862l29 131q145 86 249.5 150.5t171 117t98.5 97.5t32 92q0 55 -45 83t-109 28q-70 0 -129 -25t-100 -66l-70 109q59 55 140 85t165 30q63 0 120.5 -14.5t102 -44t70 -72.5t25.5 -101q0 -61 -35 -119.5t-98.5 -116t-150.5 -113.5t-193 -118h380l-28 -133h-625z" />
<glyph unicode="&#xb3;" horiz-adv-x="806" d="M195 997l104 101q41 -59 105.5 -88t134.5 -29q78 0 116.5 40t38.5 93q0 47 -52 75t-140 28h-36t-30 -3l29 132q20 -2 62 -2.5t67 -0.5q78 0 122 30t44 83q0 51 -53.5 78t-120.5 27q-123 0 -217 -80l-58 104q53 47 130 78t159 31q141 0 234.5 -54.5t93.5 -158.5 q0 -84 -60.5 -142.5t-167.5 -66.5q63 -16 110.5 -60t47.5 -118q0 -45 -20.5 -89t-60.5 -79t-98 -56.5t-134 -21.5q-119 0 -211 40t-139 109z" />
<glyph unicode="&#xb4;" horiz-adv-x="491" d="M137 1139l352 295h209l-403 -295h-158z" />
<glyph unicode="&#xb5;" horiz-adv-x="1161" d="M-55 -377l303 1366h215l-146 -659q-10 -92 33 -129t129 -37q82 0 158 41t125 90l153 694h215l-219 -989h-215l29 131q-66 -59 -166 -107.5t-217 -48.5q-57 0 -102 13l-80 -365h-215z" />
<glyph unicode="&#xb6;" horiz-adv-x="919" d="M162 981q0 72 29.5 141.5t83 123.5t126 87t158.5 33h434l-348 -1571h-113l326 1458h-170l-326 -1458h-112l192 867q-57 0 -108 23.5t-89 66.5t-60.5 101t-22.5 128z" />
<glyph unicode="&#xb7;" horiz-adv-x="503" d="M109 492q0 63 46 108t109 45q55 0 93 -39t38 -92q0 -66 -45.5 -111t-111.5 -45q-53 0 -91 39t-38 95z" />
<glyph unicode="&#xb8;" horiz-adv-x="438" d="M-182 -315l63 88q35 -35 81 -53.5t93 -18.5q53 0 82 22.5t29 59.5q0 23 -16.5 38t-49.5 15q-41 0 -65 -31l-74 48l100 170h113l-80 -132q29 23 66 23q51 0 85 -33t34 -92q0 -86 -64 -136t-162 -50q-78 0 -139 23.5t-96 58.5z" />
<glyph unicode="&#xb9;" horiz-adv-x="540" d="M225 1430l310 251h143l-180 -819h-166l131 600l-162 -135z" />
<glyph unicode="&#xba;" horiz-adv-x="829" d="M172 948q0 80 30.5 149.5t83 120t121 80t146.5 29.5q150 0 235.5 -83t85.5 -212q0 -80 -30.5 -149.5t-82.5 -120.5t-121.5 -81t-145.5 -30q-150 0 -236 83t-86 214zM336 944q0 -74 43 -119t117 -45q51 0 92 22.5t68.5 58.5t42 81t14.5 92q0 74 -44 118t-118 44 q-53 0 -93 -21.5t-66.5 -57.5t-41 -81t-14.5 -92z" />
<glyph unicode="&#xbb;" horiz-adv-x="1003" d="M-23 129l418 373l-237 358h196l246 -368l-410 -363h-213zM326 129l417 373l-237 358h196l246 -368l-409 -363h-213z" />
<glyph unicode="&#xbc;" horiz-adv-x="1650" d="M145 0l1176 1366h137l-1175 -1366h-138zM156 1114l309 252h143l-180 -819h-166l131 600l-162 -135zM844 188l26 117l451 514h229l-110 -500h110l-28 -131h-111l-41 -188h-164l41 188h-403zM1038 319h238l78 351z" />
<glyph unicode="&#xbd;" horiz-adv-x="1722" d="M145 0l1176 1366h137l-1175 -1366h-138zM156 1114l309 252h143l-180 -819h-166l131 600l-162 -135zM905 0l29 131q145 86 249.5 150.5t171 117t98.5 97.5t32 92q0 55 -45 82.5t-109 27.5q-70 0 -129 -24.5t-100 -65.5l-70 109q59 55 140 84.5t165 29.5q63 0 121 -14 t102 -44t69.5 -73t25.5 -100q0 -61 -35 -119.5t-98.5 -116t-150.5 -113.5t-193 -118h381l-29 -133h-625z" />
<glyph unicode="&#xbe;" horiz-adv-x="1849" d="M125 682l104 100q41 -59 105.5 -87.5t134.5 -28.5q78 0 117 39.5t39 93.5q0 47 -52.5 74.5t-140.5 27.5h-35.5t-29.5 -2l28 131q20 -2 62.5 -2h66.5q78 0 122 29.5t44 83.5q0 51 -53 77.5t-121 26.5q-123 0 -217 -80l-57 105q53 47 130 77.5t158 30.5q141 0 234.5 -54 t93.5 -159q0 -84 -60.5 -142t-166.5 -67q63 -16 110 -60t47 -118q0 -45 -20 -89t-60 -79t-98.5 -56.5t-134.5 -21.5q-119 0 -211 40t-139 110zM344 0l1176 1366h137l-1176 -1366h-137zM1040 188l27 117l451 514h229l-111 -500h111l-29 -131h-110l-41 -188h-164l41 188h-404z M1235 319h238l77 351z" />
<glyph unicode="&#xbf;" horiz-adv-x="811" d="M-80 -98q0 90 36 152.5t90 106.5t116.5 75.5t117 63.5t90.5 69t36 90q0 14 -6.5 32.5t-22.5 34.5l194 62q20 -33 30.5 -68t10.5 -78q0 -74 -32.5 -125t-80.5 -89t-104.5 -66.5t-104.5 -58t-81 -65.5t-33 -87q0 -63 52.5 -101t150.5 -38q76 0 146.5 28.5t129.5 83.5 l105 -164q-96 -86 -199.5 -122.5t-214.5 -36.5q-90 0 -167 20.5t-135 59t-91 95t-33 126.5zM416 856q0 66 45.5 111t111.5 45q53 0 91 -39t38 -94q0 -63 -46 -108.5t-109 -45.5q-55 0 -93 39t-38 92z" />
<glyph unicode="&#xc0;" horiz-adv-x="1378" d="M-109 0l840 1366h299l236 -1366h-260l-43 264h-627l-158 -264h-287zM451 475h491l-102 651zM639 1786h205l221 -295h-154z" />
<glyph unicode="&#xc1;" horiz-adv-x="1378" d="M-109 0l840 1366h299l236 -1366h-260l-43 264h-627l-158 -264h-287zM451 475h491l-102 651zM754 1491l352 295h209l-404 -295h-157z" />
<glyph unicode="&#xc2;" horiz-adv-x="1378" d="M-109 0l840 1366h299l236 -1366h-260l-43 264h-627l-158 -264h-287zM451 475h491l-102 651zM621 1491l256 295h196l131 -295h-131l-117 199l-194 -199h-141z" />
<glyph unicode="&#xc3;" horiz-adv-x="1378" d="M-109 0l840 1366h299l236 -1366h-260l-43 264h-627l-158 -264h-287zM451 475h491l-102 651zM584 1499q27 127 82 201t159 74q55 0 86 -25t54.5 -55.5t46 -55t59.5 -24.5q35 0 62.5 34.5t46.5 112.5h118q-27 -127 -83 -200.5t-160 -73.5q-55 0 -86 24.5t-53.5 55t-45 55.5 t-59.5 25q-35 0 -62.5 -35t-43.5 -113h-121z" />
<glyph unicode="&#xc4;" horiz-adv-x="1378" d="M-109 0l840 1366h299l236 -1366h-260l-43 264h-627l-158 -264h-287zM451 475h491l-102 651zM600 1585q0 27 11.5 50.5t29.5 42t43 29.5t51 11q45 0 76 -30.5t31 -75.5q0 -27 -11.5 -51.5t-30 -43t-43 -28.5t-50.5 -10q-47 0 -77 29.5t-30 76.5zM1028 1585q0 27 11.5 50.5 t29.5 42t43 29.5t51 11q45 0 76 -30.5t31 -75.5q0 -27 -11.5 -51.5t-30 -43t-43 -28.5t-50.5 -10q-47 0 -77 29.5t-30 76.5z" />
<glyph unicode="&#xc5;" horiz-adv-x="1378" d="M-109 0l840 1366h299l236 -1366h-260l-43 264h-627l-158 -264h-287zM451 475h491l-102 651zM727 1608q0 47 18.5 89t50 72.5t72.5 49t88 18.5q86 0 138.5 -52t52.5 -138q0 -47 -18.5 -88t-49 -73t-72.5 -50.5t-89 -18.5q-86 0 -138.5 52.5t-52.5 138.5zM831 1618 q0 -41 27 -68.5t68 -27.5q47 0 81.5 33.5t34.5 80.5q0 43 -25.5 70t-68.5 27q-47 0 -82 -34t-35 -81z" />
<glyph unicode="&#xc6;" horiz-adv-x="1966" d="M-115 0l1141 1366h1032l-45 -211h-696l-78 -352h682l-47 -211h-682l-84 -381h696l-47 -211h-936l58 264h-496l-215 -264h-283zM543 475h383l141 637z" />
<glyph unicode="&#xc7;" horiz-adv-x="1396" d="M104 582q0 182 64.5 331.5t173.5 255t250 163t297 57.5q115 0 208 -28t165.5 -76t126 -113.5t86.5 -141.5l-230 -82q-49 117 -147.5 172.5t-220.5 55.5q-102 0 -196.5 -42t-166.5 -119t-115 -183.5t-43 -235.5q0 -88 29 -163t83 -129t131 -85t173 -31q92 0 182 41 t160 117l182 -129q-57 -68 -123.5 -114t-137 -74.5t-141.5 -41t-134 -12.5h-20.5t-20.5 2l-51 -86q29 23 65 23q51 0 85 -33t34 -92q0 -86 -63.5 -136t-161.5 -50q-78 0 -139.5 23.5t-96.5 58.5l64 88q35 -35 81 -53.5t93 -18.5q53 0 81.5 22.5t28.5 59.5q0 23 -16 38 t-49 15q-41 0 -66 -31l-73 48l79 137q-113 20 -206 70.5t-160.5 126t-105.5 175t-38 220.5z" />
<glyph unicode="&#xc8;" horiz-adv-x="1181" d="M35 0l301 1366h936l-45 -211h-697l-77 -352h682l-48 -211h-681l-84 -381h696l-47 -211h-936zM561 1786h205l221 -295h-153z" />
<glyph unicode="&#xc9;" horiz-adv-x="1181" d="M35 0l301 1366h936l-45 -211h-697l-77 -352h682l-48 -211h-681l-84 -381h696l-47 -211h-936zM676 1491l352 295h209l-403 -295h-158z" />
<glyph unicode="&#xca;" horiz-adv-x="1181" d="M35 0l301 1366h936l-45 -211h-697l-77 -352h682l-48 -211h-681l-84 -381h696l-47 -211h-936zM541 1491l256 295h196l131 -295h-131l-116 199l-195 -199h-141z" />
<glyph unicode="&#xcb;" horiz-adv-x="1181" d="M35 0l301 1366h936l-45 -211h-697l-77 -352h682l-48 -211h-681l-84 -381h696l-47 -211h-936zM524 1585q0 27 11.5 50.5t30 42t43 29.5t50.5 11q45 0 76 -30.5t31 -75.5q0 -27 -11.5 -51.5t-29.5 -43t-43 -28.5t-51 -10q-47 0 -77 29.5t-30 76.5zM952 1585q0 27 11.5 50.5 t30 42t43 29.5t50.5 11q45 0 76 -30.5t31 -75.5q0 -27 -11.5 -51.5t-29.5 -43t-43 -28.5t-51 -10q-47 0 -77 29.5t-30 76.5z" />
<glyph unicode="&#xcc;" horiz-adv-x="530" d="M35 0l301 1366h239l-301 -1366h-239zM211 1786h205l221 -295h-154z" />
<glyph unicode="&#xcd;" horiz-adv-x="530" d="M35 0l301 1366h239l-301 -1366h-239zM332 1491l352 295h209l-404 -295h-157z" />
<glyph unicode="&#xce;" horiz-adv-x="530" d="M35 0l301 1366h239l-301 -1366h-239zM193 1491l256 295h196l131 -295h-131l-117 199l-194 -199h-141z" />
<glyph unicode="&#xcf;" horiz-adv-x="530" d="M35 0l301 1366h239l-301 -1366h-239zM174 1583q0 27 11.5 50.5t29.5 42t43 29.5t51 11q45 0 76 -30.5t31 -75.5q0 -27 -11.5 -51.5t-30 -43t-43 -28.5t-50.5 -10q-47 0 -77 29.5t-30 76.5zM602 1583q0 27 11.5 50.5t30 42t43 29.5t50.5 11q45 0 76 -30.5t31 -75.5 q0 -27 -11.5 -51.5t-30 -43t-43 -28.5t-50.5 -10q-47 0 -77 29.5t-30 76.5z" />
<glyph unicode="&#xd0;" horiz-adv-x="1507" d="M39 588l43 192h178l129 586h498q115 0 220 -43t185 -120t128 -184.5t48 -236.5q0 -137 -49 -276t-154.5 -252t-271.5 -183.5t-399 -70.5h-506l129 588h-178zM375 211h268q133 0 240.5 45t182.5 122t115 177t40 211q0 84 -29 154.5t-79 123t-118.5 82t-150.5 29.5h-260 l-84 -375h323l-43 -192h-323z" />
<glyph unicode="&#xd1;" horiz-adv-x="1474" d="M35 0l301 1366h246l485 -958l213 958h240l-301 -1366h-232l-493 989l-220 -989h-239zM627 1499q27 127 82 201t159 74q55 0 86 -25t54.5 -55.5t46 -55t59.5 -24.5q35 0 62.5 34.5t46.5 112.5h118q-27 -127 -83 -200.5t-160 -73.5q-55 0 -86 24.5t-53.5 55t-45 55.5 t-59.5 25q-35 0 -62.5 -35t-43.5 -113h-121z" />
<glyph unicode="&#xd2;" horiz-adv-x="1566" d="M104 582q0 170 60.5 317.5t167 256t249 171t308.5 62.5q137 0 256 -41t207 -120t139 -190.5t51 -253.5q0 -170 -60.5 -317.5t-166 -256t-247.5 -172t-308 -63.5q-137 0 -257 42t-208 120t-139.5 190.5t-51.5 254.5zM356 596q0 -96 32 -172t88 -128t132 -80t164 -28 q106 0 200.5 44t165 122t111.5 184.5t41 229.5q0 96 -31.5 172t-88 128t-133 80t-165.5 28q-106 0 -200 -44.5t-164 -122t-111 -184t-41 -229.5zM737 1786h205l221 -295h-153z" />
<glyph unicode="&#xd3;" horiz-adv-x="1566" d="M104 582q0 170 60.5 317.5t167 256t249 171t308.5 62.5q137 0 256 -41t207 -120t139 -190.5t51 -253.5q0 -170 -60.5 -317.5t-166 -256t-247.5 -172t-308 -63.5q-137 0 -257 42t-208 120t-139.5 190.5t-51.5 254.5zM356 596q0 -96 32 -172t88 -128t132 -80t164 -28 q106 0 200.5 44t165 122t111.5 184.5t41 229.5q0 96 -31.5 172t-88 128t-133 80t-165.5 28q-106 0 -200 -44.5t-164 -122t-111 -184t-41 -229.5zM848 1491l352 295h209l-403 -295h-158z" />
<glyph unicode="&#xd4;" horiz-adv-x="1566" d="M104 582q0 170 60.5 317.5t167 256t249 171t308.5 62.5q137 0 256 -41t207 -120t139 -190.5t51 -253.5q0 -170 -60.5 -317.5t-166 -256t-247.5 -172t-308 -63.5q-137 0 -257 42t-208 120t-139.5 190.5t-51.5 254.5zM356 596q0 -96 32 -172t88 -128t132 -80t164 -28 q106 0 200.5 44t165 122t111.5 184.5t41 229.5q0 96 -31.5 172t-88 128t-133 80t-165.5 28q-106 0 -200 -44.5t-164 -122t-111 -184t-41 -229.5zM717 1491l256 295h196l131 -295h-131l-116 199l-195 -199h-141z" />
<glyph unicode="&#xd5;" horiz-adv-x="1566" d="M104 582q0 170 60.5 317.5t167 256t249 171t308.5 62.5q137 0 256 -41t207 -120t139 -190.5t51 -253.5q0 -170 -60.5 -317.5t-166 -256t-247.5 -172t-308 -63.5q-137 0 -257 42t-208 120t-139.5 190.5t-51.5 254.5zM356 596q0 -96 32 -172t88 -128t132 -80t164 -28 q106 0 200.5 44t165 122t111.5 184.5t41 229.5q0 96 -31.5 172t-88 128t-133 80t-165.5 28q-106 0 -200 -44.5t-164 -122t-111 -184t-41 -229.5zM678 1499q27 127 82 201t160 74q55 0 85.5 -25t54 -55.5t46 -55t59.5 -24.5q35 0 62.5 34.5t46.5 112.5h119 q-27 -127 -83.5 -200.5t-160.5 -73.5q-55 0 -86 24.5t-53.5 55t-45 55.5t-59.5 25q-35 0 -62.5 -35t-43.5 -113h-121z" />
<glyph unicode="&#xd6;" horiz-adv-x="1566" d="M104 582q0 170 60.5 317.5t167 256t249 171t308.5 62.5q137 0 256 -41t207 -120t139 -190.5t51 -253.5q0 -170 -60.5 -317.5t-166 -256t-247.5 -172t-308 -63.5q-137 0 -257 42t-208 120t-139.5 190.5t-51.5 254.5zM356 596q0 -96 32 -172t88 -128t132 -80t164 -28 q106 0 200.5 44t165 122t111.5 184.5t41 229.5q0 96 -31.5 172t-88 128t-133 80t-165.5 28q-106 0 -200 -44.5t-164 -122t-111 -184t-41 -229.5zM694 1585q0 27 11.5 50.5t30 42t43 29.5t50.5 11q45 0 76 -30.5t31 -75.5q0 -27 -11.5 -51.5t-29.5 -43t-43 -28.5t-51 -10 q-47 0 -77 29.5t-30 76.5zM1122 1585q0 27 11.5 50.5t30 42t43 29.5t50.5 11q45 0 76 -30.5t31 -75.5q0 -27 -11.5 -51.5t-29.5 -43t-43 -28.5t-51 -10q-47 0 -77 29.5t-30 76.5z" />
<glyph unicode="&#xd7;" horiz-adv-x="1028" d="M90 393l369 301l-228 291l111 88l225 -291l367 299l84 -104l-365 -301l224 -291l-109 -90l-225 291l-365 -299z" />
<glyph unicode="&#xd8;" horiz-adv-x="1566" d="M78 0l172 182q-70 76 -108 176.5t-38 223.5q0 170 60.5 317.5t167 256t249 171t308.5 62.5q113 0 213 -29t182 -82l84 88h178l-162 -170q74 -78 116 -180.5t42 -231.5q0 -170 -60.5 -317.5t-166 -256t-247.5 -172t-308 -63.5q-119 0 -223.5 31t-190.5 90l-90 -96h-178z M356 596q0 -135 64 -234l702 744q-109 70 -250 70q-106 0 -200 -44.5t-164 -122t-111 -184t-41 -229.5zM510 268q53 -41 119.5 -60.5t142.5 -19.5q106 0 200.5 44t165 122t111.5 184.5t41 229.5q0 76 -19.5 138.5t-53.5 109.5z" />
<glyph unicode="&#xd9;" horiz-adv-x="1474" d="M143 442q0 25 3.5 53.5t7.5 45.5l182 825h244l-183 -821q-2 -10 -5 -30.5t-3 -43.5q0 -59 21.5 -111.5t62.5 -90.5t101.5 -60.5t138.5 -22.5q170 0 258 97.5t125 261.5l180 821h244l-183 -825q-29 -125 -74.5 -229.5t-120.5 -179.5t-180.5 -116t-248.5 -41 q-139 0 -245 34t-178.5 95.5t-109.5 147.5t-37 190zM688 1786h205l221 -295h-153z" />
<glyph unicode="&#xda;" horiz-adv-x="1474" d="M143 442q0 25 3.5 53.5t7.5 45.5l182 825h244l-183 -821q-2 -10 -5 -30.5t-3 -43.5q0 -59 21.5 -111.5t62.5 -90.5t101.5 -60.5t138.5 -22.5q170 0 258 97.5t125 261.5l180 821h244l-183 -825q-29 -125 -74.5 -229.5t-120.5 -179.5t-180.5 -116t-248.5 -41 q-139 0 -245 34t-178.5 95.5t-109.5 147.5t-37 190zM801 1491l352 295h209l-404 -295h-157z" />
<glyph unicode="&#xdb;" horiz-adv-x="1474" d="M143 442q0 25 3.5 53.5t7.5 45.5l182 825h244l-183 -821q-2 -10 -5 -30.5t-3 -43.5q0 -59 21.5 -111.5t62.5 -90.5t101.5 -60.5t138.5 -22.5q170 0 258 97.5t125 261.5l180 821h244l-183 -825q-29 -125 -74.5 -229.5t-120.5 -179.5t-180.5 -116t-248.5 -41 q-139 0 -245 34t-178.5 95.5t-109.5 147.5t-37 190zM676 1491l256 295h196l132 -295h-132l-116 199l-195 -199h-141z" />
<glyph unicode="&#xdc;" horiz-adv-x="1474" d="M143 442q0 25 3.5 53.5t7.5 45.5l182 825h244l-183 -821q-2 -10 -5 -30.5t-3 -43.5q0 -59 21.5 -111.5t62.5 -90.5t101.5 -60.5t138.5 -22.5q170 0 258 97.5t125 261.5l180 821h244l-183 -825q-29 -125 -74.5 -229.5t-120.5 -179.5t-180.5 -116t-248.5 -41 q-139 0 -245 34t-178.5 95.5t-109.5 147.5t-37 190zM649 1585q0 27 11.5 50.5t30 42t43 29.5t50.5 11q45 0 76 -30.5t31 -75.5q0 -27 -11.5 -51.5t-30 -43t-43 -28.5t-50.5 -10q-47 0 -77 29.5t-30 76.5zM1077 1585q0 27 11.5 50.5t30 42t43 29.5t50.5 11q45 0 76 -30.5 t31 -75.5q0 -27 -11.5 -51.5t-29.5 -43t-43 -28.5t-51 -10q-47 0 -77 29.5t-30 76.5z" />
<glyph unicode="&#xdd;" horiz-adv-x="1304" d="M195 1366h260l245 -584l504 584h289l-705 -799l-124 -567h-240l125 567zM721 1491l352 295h209l-403 -295h-158z" />
<glyph unicode="&#xde;" horiz-adv-x="1247" d="M35 0l301 1366h239l-49 -229h344q80 0 147.5 -30t117 -80t78 -116.5t28.5 -142.5q0 -82 -29.5 -169t-95 -157.5t-170 -115.5t-252.5 -45h-358l-62 -281h-239zM383 492h326q70 0 123 21.5t87.5 56t53 80.5t18.5 95q0 78 -56 129.5t-138 51.5h-318z" />
<glyph unicode="&#xdf;" horiz-adv-x="1275" d="M31 0l219 993q18 82 55 154t94.5 125t135 83.5t176.5 30.5q74 0 145.5 -18t128.5 -54t92 -85t35 -111q0 -68 -27.5 -114t-69.5 -79.5t-91.5 -58t-91 -48t-69.5 -50.5t-28 -66q0 -35 35 -58t87 -42.5t112.5 -40t113 -52.5t87 -79t34.5 -119q0 -66 -27.5 -126t-80 -107 t-127 -75t-166.5 -28q-145 0 -244.5 44t-185.5 141l125 135q53 -66 127.5 -105.5t183.5 -39.5q86 0 134 41.5t48 93.5q0 39 -34.5 62.5t-87 44t-113 40t-112.5 49t-87 73.5t-35 114t26.5 119t67.5 82.5t87.5 59t87 47t67.5 46.5t27 57q0 55 -55.5 86t-129.5 31 q-92 0 -152.5 -53t-82.5 -150l-219 -993h-215z" />
<glyph unicode="&#xe0;" horiz-adv-x="1099" d="M43 262q0 86 29.5 153.5t80 115t117 72t140.5 24.5q113 0 196.5 -35t149.5 -105l30 136q2 6 3.5 22.5t1.5 28.5q0 72 -67 117t-177 45q-82 0 -151.5 -28t-129.5 -75l-57 154q170 127 381 127q84 0 159.5 -16.5t134 -53.5t93.5 -93t35 -136q0 -18 -4 -50t-9 -51l-135 -614 h-215l23 104q-59 -59 -132 -94t-169 -35q-63 0 -123 17.5t-105 53.5t-72.5 90t-27.5 126zM264 281q0 -78 54.5 -118t146.5 -40q74 0 131 26.5t100 71.5l35 148q-35 53 -101.5 81.5t-148.5 28.5q-98 0 -157.5 -56t-59.5 -142zM432 1434h205l221 -295h-153z" />
<glyph unicode="&#xe1;" horiz-adv-x="1099" d="M43 262q0 86 29.5 153.5t80 115t117 72t140.5 24.5q113 0 196.5 -35t149.5 -105l30 136q2 6 3.5 22.5t1.5 28.5q0 72 -67 117t-177 45q-82 0 -151.5 -28t-129.5 -75l-57 154q170 127 381 127q84 0 159.5 -16.5t134 -53.5t93.5 -93t35 -136q0 -18 -4 -50t-9 -51l-135 -614 h-215l23 104q-59 -59 -132 -94t-169 -35q-63 0 -123 17.5t-105 53.5t-72.5 90t-27.5 126zM264 281q0 -78 54.5 -118t146.5 -40q74 0 131 26.5t100 71.5l35 148q-35 53 -101.5 81.5t-148.5 28.5q-98 0 -157.5 -56t-59.5 -142zM553 1139l352 295h209l-403 -295h-158z" />
<glyph unicode="&#xe2;" horiz-adv-x="1099" d="M43 262q0 86 29.5 153.5t80 115t117 72t140.5 24.5q113 0 196.5 -35t149.5 -105l30 136q2 6 3.5 22.5t1.5 28.5q0 72 -67 117t-177 45q-82 0 -151.5 -28t-129.5 -75l-57 154q170 127 381 127q84 0 159.5 -16.5t134 -53.5t93.5 -93t35 -136q0 -18 -4 -50t-9 -51l-135 -614 h-215l23 104q-59 -59 -132 -94t-169 -35q-63 0 -123 17.5t-105 53.5t-72.5 90t-27.5 126zM264 281q0 -78 54.5 -118t146.5 -40q74 0 131 26.5t100 71.5l35 148q-35 53 -101.5 81.5t-148.5 28.5q-98 0 -157.5 -56t-59.5 -142zM420 1139l256 295h196l132 -295h-132l-116 198 l-195 -198h-141z" />
<glyph unicode="&#xe3;" horiz-adv-x="1099" d="M43 262q0 86 29.5 153.5t80 115t117 72t140.5 24.5q113 0 196.5 -35t149.5 -105l30 136q2 6 3.5 22.5t1.5 28.5q0 72 -67 117t-177 45q-82 0 -151.5 -28t-129.5 -75l-57 154q170 127 381 127q84 0 159.5 -16.5t134 -53.5t93.5 -93t35 -136q0 -18 -4 -50t-9 -51l-135 -614 h-215l23 104q-59 -59 -132 -94t-169 -35q-63 0 -123 17.5t-105 53.5t-72.5 90t-27.5 126zM264 281q0 -78 54.5 -118t146.5 -40q74 0 131 26.5t100 71.5l35 148q-35 53 -101.5 81.5t-148.5 28.5q-98 0 -157.5 -56t-59.5 -142zM379 1147q27 127 82 200.5t160 73.5 q55 0 85.5 -24.5t54 -55t46 -55t59.5 -24.5q35 0 62.5 34.5t46.5 112.5h119q-27 -127 -83.5 -200.5t-160.5 -73.5q-55 0 -86 24.5t-53.5 55t-45 55t-59.5 24.5q-35 0 -62.5 -34.5t-43.5 -112.5h-121z" />
<glyph unicode="&#xe4;" horiz-adv-x="1099" d="M43 262q0 86 29.5 153.5t80 115t117 72t140.5 24.5q113 0 196.5 -35t149.5 -105l30 136q2 6 3.5 22.5t1.5 28.5q0 72 -67 117t-177 45q-82 0 -151.5 -28t-129.5 -75l-57 154q170 127 381 127q84 0 159.5 -16.5t134 -53.5t93.5 -93t35 -136q0 -18 -4 -50t-9 -51l-135 -614 h-215l23 104q-59 -59 -132 -94t-169 -35q-63 0 -123 17.5t-105 53.5t-72.5 90t-27.5 126zM264 281q0 -78 54.5 -118t146.5 -40q74 0 131 26.5t100 71.5l35 148q-35 53 -101.5 81.5t-148.5 28.5q-98 0 -157.5 -56t-59.5 -142zM391 1233q0 27 11.5 50.5t30 41.5t43 29.5 t50.5 11.5q45 0 76 -30.5t31 -75.5q0 -27 -11.5 -51.5t-30 -43t-43 -29t-50.5 -10.5q-47 0 -77 30t-30 77zM819 1233q0 27 11.5 50.5t30 41.5t43 29.5t50.5 11.5q45 0 76 -30.5t31 -75.5q0 -27 -11.5 -51.5t-30 -43t-43 -29t-50.5 -10.5q-47 0 -77 30t-30 77z" />
<glyph unicode="&#xe5;" horiz-adv-x="1099" d="M43 262q0 86 29.5 153.5t80 115t117 72t140.5 24.5q113 0 196.5 -35t149.5 -105l30 136q2 6 3.5 22.5t1.5 28.5q0 72 -67 117t-177 45q-82 0 -151.5 -28t-129.5 -75l-57 154q170 127 381 127q84 0 159.5 -16.5t134 -53.5t93.5 -93t35 -136q0 -18 -4 -50t-9 -51l-135 -614 h-215l23 104q-59 -59 -132 -94t-169 -35q-63 0 -123 17.5t-105 53.5t-72.5 90t-27.5 126zM264 281q0 -78 54.5 -118t146.5 -40q74 0 131 26.5t100 71.5l35 148q-35 53 -101.5 81.5t-148.5 28.5q-98 0 -157.5 -56t-59.5 -142zM539 1317q0 47 18 89t50 72.5t73 49t88 18.5 q86 0 138 -52t52 -138q0 -47 -18 -88t-49 -73t-73 -50.5t-89 -18.5q-86 0 -138 52.5t-52 138.5zM643 1327q0 -41 26.5 -68.5t67.5 -27.5q47 0 82 33.5t35 81.5q0 43 -25.5 69.5t-68.5 26.5q-47 0 -82 -34t-35 -81z" />
<glyph unicode="&#xe6;" horiz-adv-x="1814" d="M43 262q0 88 30.5 156.5t82 115t118 70t136.5 23.5q111 0 201.5 -36t144.5 -99l30 131q4 14 4.5 26.5t0.5 24.5q0 78 -70 120t-174 42q-84 0 -150.5 -28t-130.5 -75l-57 154q86 66 181 96.5t200 30.5q135 0 226 -48t114 -165q57 92 156.5 152.5t238.5 60.5q86 0 163 -29 t134 -84t90 -136t33 -187q0 -20 -2 -45t-5 -46.5t-6 -39t-6 -23.5h-763q0 -2 -1 -12.5t-1 -20.5q0 -43 19 -86t56 -76.5t93.5 -55t130.5 -21.5q66 0 138 20.5t126 63.5l67 -152q-66 -49 -149.5 -79t-179.5 -30q-156 0 -261.5 54.5t-166.5 152.5q-84 -84 -193 -145.5 t-252 -61.5q-68 0 -130 17.5t-110.5 52.5t-77 89t-28.5 128zM264 281q0 -78 55.5 -118t145.5 -40q70 0 140.5 33.5t133.5 113.5q-10 37 -10 84v17q-16 27 -43 46t-60.5 33.5t-70.5 21.5t-74 7q-94 0 -155.5 -54t-61.5 -144zM989 578h561q2 10 2 28q0 49 -18 91t-52 74 t-81 49.5t-105 17.5q-68 0 -120 -23.5t-88.5 -60.5t-61.5 -84t-37 -92z" />
<glyph unicode="&#xe7;" horiz-adv-x="1019" d="M68 422q0 123 44 230.5t120.5 187.5t180 127t224.5 47q145 0 240.5 -52.5t146.5 -138.5l-162 -123q-35 59 -94 91t-131 32q-80 0 -144.5 -31.5t-109.5 -86t-69.5 -125t-24.5 -148.5q0 -66 21.5 -115t58.5 -82.5t86 -51t106 -17.5q72 0 129.5 30.5t97.5 77.5l117 -143 q-59 -61 -148 -108.5t-216 -47.5h-17l-51 -84q29 23 66 23q51 0 84.5 -33t33.5 -92q0 -86 -63.5 -136t-161.5 -50q-78 0 -139.5 23.5t-95.5 58.5l63 88q35 -35 81 -53.5t93 -18.5q53 0 82 22.5t29 59.5q0 23 -16.5 38t-49.5 15q-41 0 -65 -31l-74 48l78 135 q-160 31 -255 145.5t-95 288.5z" />
<glyph unicode="&#xe8;" horiz-adv-x="1140" d="M68 418q0 121 43 229.5t118.5 189.5t179 129t224.5 48q96 0 177 -31t139.5 -88t90 -137t31.5 -180q0 -41 -7 -86.5t-13 -67.5h-764q-2 -4 -2 -14.5v-18.5q0 -43 18.5 -86t55 -76.5t93 -55t132.5 -21.5q70 0 141.5 21.5t122.5 62.5l70 -152q-72 -49 -164.5 -79t-186.5 -30 q-115 0 -207 31t-157.5 89.5t-100 139t-34.5 183.5zM309 578h563h5q0 4 1 13t1 13q0 98 -65.5 166t-195.5 68q-59 0 -111 -21.5t-93 -57.5t-69 -83t-36 -98zM451 1434h204l222 -295h-154z" />
<glyph unicode="&#xe9;" horiz-adv-x="1140" d="M68 418q0 121 43 229.5t118.5 189.5t179 129t224.5 48q96 0 177 -31t139.5 -88t90 -137t31.5 -180q0 -41 -7 -86.5t-13 -67.5h-764q-2 -4 -2 -14.5v-18.5q0 -43 18.5 -86t55 -76.5t93 -55t132.5 -21.5q70 0 141.5 21.5t122.5 62.5l70 -152q-72 -49 -164.5 -79t-186.5 -30 q-115 0 -207 31t-157.5 89.5t-100 139t-34.5 183.5zM309 578h563h5q0 4 1 13t1 13q0 98 -65.5 166t-195.5 68q-59 0 -111 -21.5t-93 -57.5t-69 -83t-36 -98zM567 1139l353 295h208l-403 -295h-158z" />
<glyph unicode="&#xea;" horiz-adv-x="1140" d="M68 418q0 121 43 229.5t118.5 189.5t179 129t224.5 48q96 0 177 -31t139.5 -88t90 -137t31.5 -180q0 -41 -7 -86.5t-13 -67.5h-764q-2 -4 -2 -14.5v-18.5q0 -43 18.5 -86t55 -76.5t93 -55t132.5 -21.5q70 0 141.5 21.5t122.5 62.5l70 -152q-72 -49 -164.5 -79t-186.5 -30 q-115 0 -207 31t-157.5 89.5t-100 139t-34.5 183.5zM309 578h563h5q0 4 1 13t1 13q0 98 -65.5 166t-195.5 68q-59 0 -111 -21.5t-93 -57.5t-69 -83t-36 -98zM434 1139l256 295h197l131 -295h-131l-117 198l-195 -198h-141z" />
<glyph unicode="&#xeb;" horiz-adv-x="1140" d="M68 418q0 121 43 229.5t118.5 189.5t179 129t224.5 48q96 0 177 -31t139.5 -88t90 -137t31.5 -180q0 -41 -7 -86.5t-13 -67.5h-764q-2 -4 -2 -14.5v-18.5q0 -43 18.5 -86t55 -76.5t93 -55t132.5 -21.5q70 0 141.5 21.5t122.5 62.5l70 -152q-72 -49 -164.5 -79t-186.5 -30 q-115 0 -207 31t-157.5 89.5t-100 139t-34.5 183.5zM309 578h563h5q0 4 1 13t1 13q0 98 -65.5 166t-195.5 68q-59 0 -111 -21.5t-93 -57.5t-69 -83t-36 -98zM414 1233q0 27 11 50.5t29.5 41.5t43 29.5t51.5 11.5q45 0 75.5 -30.5t30.5 -75.5q0 -27 -11 -51.5t-29.5 -43 t-43 -29t-51.5 -10.5q-47 0 -76.5 30t-29.5 77zM842 1233q0 27 11 50.5t29.5 41.5t43 29.5t51.5 11.5q45 0 75.5 -30.5t30.5 -75.5q0 -27 -11 -51.5t-29.5 -43t-43 -29t-51.5 -10.5q-47 0 -76.5 30t-29.5 77z" />
<glyph unicode="&#xec;" horiz-adv-x="493" d="M29 0l219 989h215l-219 -989h-215zM115 1434h204l222 -295h-154z" />
<glyph unicode="&#xed;" horiz-adv-x="493" d="M29 0l219 989h215l-219 -989h-215zM231 1139l353 295h209l-404 -295h-158z" />
<glyph unicode="&#xee;" horiz-adv-x="493" d="M29 0l219 989h215l-219 -989h-215zM96 1139l256 295h197l131 -295h-131l-117 198l-194 -198h-142z" />
<glyph unicode="&#xef;" horiz-adv-x="493" d="M29 0l219 989h215l-219 -989h-215zM78 1233q0 27 11 50.5t29.5 41.5t43 29.5t51.5 11.5q45 0 75.5 -30.5t30.5 -75.5q0 -27 -11 -51.5t-29.5 -43t-43 -29t-51.5 -10.5q-47 0 -76.5 30t-29.5 77zM506 1233q0 27 11 50.5t29.5 41.5t43 29.5t51.5 11.5q45 0 76 -30.5 t31 -75.5q0 -27 -11.5 -51.5t-30 -43t-43 -29t-51.5 -10.5q-47 0 -76.5 30t-29.5 77z" />
<glyph unicode="&#xf0;" d="M63 403q0 117 39 217.5t108 176t161 118.5t196 43q111 0 202 -53t138 -166q-27 96 -92 191.5t-153 183.5l-326 -98l-23 106l256 76q-29 27 -58.5 50.5t-59.5 45.5l151 160q117 -90 209 -184l233 69l23 -104l-176 -53q111 -133 167 -272.5t56 -284.5q0 -133 -40 -251 t-113.5 -207t-179 -140.5t-234.5 -51.5q-109 0 -198 31t-152.5 88.5t-98.5 135t-35 173.5zM287 418q0 -113 67.5 -182.5t196.5 -69.5q68 0 126 27.5t102 76.5t68.5 115t24.5 139q0 45 -16 89t-49 79t-83 56.5t-120 21.5q-68 0 -125 -27.5t-100 -74.5t-67.5 -111.5 t-24.5 -138.5z" />
<glyph unicode="&#xf1;" horiz-adv-x="1163" d="M39 0l219 989h215l-31 -133q31 29 68 57.5t79 51t90 36t101 13.5q139 0 222 -65.5t83 -182.5q0 -14 -4 -41t-8 -43l-149 -682h-215l137 621q4 16 6 31.5t2 31.5q0 76 -53 107.5t-131 31.5q-76 0 -144.5 -41t-117.5 -92l-154 -690h-215zM397 1147q27 127 82.5 200.5 t159.5 73.5q55 0 86 -24.5t54.5 -55t46 -55t59.5 -24.5q35 0 62.5 34.5t45.5 112.5h119q-27 -127 -83.5 -200.5t-160.5 -73.5q-55 0 -85.5 24.5t-53 55t-45 55t-59.5 24.5q-35 0 -62.5 -34.5t-44.5 -112.5h-121z" />
<glyph unicode="&#xf2;" d="M68 422q0 117 42 223.5t116.5 188t178 131t226.5 49.5q113 0 201 -33t148 -92.5t92 -140t32 -179.5q0 -117 -42 -223t-117 -189t-178 -132.5t-226 -49.5q-113 0 -201 33t-148.5 92.5t-92 141.5t-31.5 180zM291 430q0 -123 67.5 -193.5t190.5 -70.5q74 0 134 32.5t104 88 t69 126t25 146.5q0 123 -68 193.5t-190 70.5q-74 0 -134.5 -32.5t-104.5 -88t-68.5 -126t-24.5 -146.5zM457 1434h205l221 -295h-154z" />
<glyph unicode="&#xf3;" d="M68 422q0 117 42 223.5t116.5 188t178 131t226.5 49.5q113 0 201 -33t148 -92.5t92 -140t32 -179.5q0 -117 -42 -223t-117 -189t-178 -132.5t-226 -49.5q-113 0 -201 33t-148.5 92.5t-92 141.5t-31.5 180zM291 430q0 -123 67.5 -193.5t190.5 -70.5q74 0 134 32.5t104 88 t69 126t25 146.5q0 123 -68 193.5t-190 70.5q-74 0 -134.5 -32.5t-104.5 -88t-68.5 -126t-24.5 -146.5zM571 1139l353 295h209l-404 -295h-158z" />
<glyph unicode="&#xf4;" d="M68 422q0 117 42 223.5t116.5 188t178 131t226.5 49.5q113 0 201 -33t148 -92.5t92 -140t32 -179.5q0 -117 -42 -223t-117 -189t-178 -132.5t-226 -49.5q-113 0 -201 33t-148.5 92.5t-92 141.5t-31.5 180zM291 430q0 -123 67.5 -193.5t190.5 -70.5q74 0 134 32.5t104 88 t69 126t25 146.5q0 123 -68 193.5t-190 70.5q-74 0 -134.5 -32.5t-104.5 -88t-68.5 -126t-24.5 -146.5zM440 1139l256 295h197l131 -295h-131l-117 198l-194 -198h-142z" />
<glyph unicode="&#xf5;" d="M68 422q0 117 42 223.5t116.5 188t178 131t226.5 49.5q113 0 201 -33t148 -92.5t92 -140t32 -179.5q0 -117 -42 -223t-117 -189t-178 -132.5t-226 -49.5q-113 0 -201 33t-148.5 92.5t-92 141.5t-31.5 180zM291 430q0 -123 67.5 -193.5t190.5 -70.5q74 0 134 32.5t104 88 t69 126t25 146.5q0 123 -68 193.5t-190 70.5q-74 0 -134.5 -32.5t-104.5 -88t-68.5 -126t-24.5 -146.5zM403 1147q27 127 82.5 200.5t159.5 73.5q55 0 86 -24.5t54.5 -55t46 -55t59.5 -24.5q35 0 62.5 34.5t45.5 112.5h119q-27 -127 -83.5 -200.5t-160.5 -73.5 q-55 0 -85.5 24.5t-53 55t-45 55t-59.5 24.5q-35 0 -62.5 -34.5t-44.5 -112.5h-121z" />
<glyph unicode="&#xf6;" d="M68 422q0 117 42 223.5t116.5 188t178 131t226.5 49.5q113 0 201 -33t148 -92.5t92 -140t32 -179.5q0 -117 -42 -223t-117 -189t-178 -132.5t-226 -49.5q-113 0 -201 33t-148.5 92.5t-92 141.5t-31.5 180zM291 430q0 -123 67.5 -193.5t190.5 -70.5q74 0 134 32.5t104 88 t69 126t25 146.5q0 123 -68 193.5t-190 70.5q-74 0 -134.5 -32.5t-104.5 -88t-68.5 -126t-24.5 -146.5zM418 1233q0 27 11 50.5t29.5 41.5t43 29.5t51.5 11.5q45 0 75.5 -30.5t30.5 -75.5q0 -27 -11 -51.5t-29.5 -43t-43 -29t-51.5 -10.5q-47 0 -76.5 30t-29.5 77zM846 1233 q0 27 11 50.5t29.5 41.5t43 29.5t51.5 11.5q45 0 75.5 -30.5t30.5 -75.5q0 -27 -11 -51.5t-29.5 -43t-43 -29t-51.5 -10.5q-47 0 -76.5 30t-29.5 77z" />
<glyph unicode="&#xf7;" horiz-adv-x="1046" d="M86 623l31 137h927l-30 -137h-928zM369 303q0 49 35.5 84t87.5 35q41 0 70.5 -30t29.5 -73q0 -49 -36 -83.5t-85 -34.5q-43 0 -72.5 29.5t-29.5 72.5zM537 1057q0 49 35.5 84t84.5 35q43 0 73 -30t30 -73q0 -49 -37 -84t-86 -35q-41 0 -70.5 30t-29.5 73z" />
<glyph unicode="&#xf8;" d="M-12 0l159 152q-80 111 -79 270q0 117 42 223.5t116.5 188t178 131t226.5 49.5q98 0 178 -25.5t139 -73.5l76 74h150l-154 -147q41 -55 62.5 -124t21.5 -149q0 -117 -42 -223t-117 -189t-178 -132.5t-226 -49.5q-102 0 -183.5 27t-140.5 74l-80 -76h-149zM291 430 q0 -72 20 -121l482 459q-68 55 -170 55q-74 0 -134.5 -32.5t-104.5 -88t-68.5 -126t-24.5 -146.5zM373 223q67 -57 176 -57q74 0 134 32.5t104 88t69 126t25 146.5q0 72 -25 127z" />
<glyph unicode="&#xf9;" horiz-adv-x="1161" d="M86 225q0 14 3 40t7 42l152 682h215l-137 -618q-4 -16 -7.5 -31.5t-3.5 -32.5q0 -76 53.5 -108.5t131.5 -32.5q76 0 145.5 42t118.5 93l151 688h215l-219 -989h-215l31 135q-31 -29 -67.5 -57.5t-78.5 -51t-90.5 -37t-101.5 -14.5q-139 0 -221 67t-82 183zM455 1434h204 l222 -295h-154z" />
<glyph unicode="&#xfa;" horiz-adv-x="1161" d="M86 225q0 14 3 40t7 42l152 682h215l-137 -618q-4 -16 -7.5 -31.5t-3.5 -32.5q0 -76 53.5 -108.5t131.5 -32.5q76 0 145.5 42t118.5 93l151 688h215l-219 -989h-215l31 135q-31 -29 -67.5 -57.5t-78.5 -51t-90.5 -37t-101.5 -14.5q-139 0 -221 67t-82 183zM567 1139 l353 295h208l-403 -295h-158z" />
<glyph unicode="&#xfb;" horiz-adv-x="1161" d="M86 225q0 14 3 40t7 42l152 682h215l-137 -618q-4 -16 -7.5 -31.5t-3.5 -32.5q0 -76 53.5 -108.5t131.5 -32.5q76 0 145.5 42t118.5 93l151 688h215l-219 -989h-215l31 135q-31 -29 -67.5 -57.5t-78.5 -51t-90.5 -37t-101.5 -14.5q-139 0 -221 67t-82 183zM432 1139 l256 295h197l131 -295h-131l-117 198l-195 -198h-141z" />
<glyph unicode="&#xfc;" horiz-adv-x="1161" d="M86 225q0 14 3 40t7 42l152 682h215l-137 -618q-4 -16 -7.5 -31.5t-3.5 -32.5q0 -76 53.5 -108.5t131.5 -32.5q76 0 145.5 42t118.5 93l151 688h215l-219 -989h-215l31 135q-31 -29 -67.5 -57.5t-78.5 -51t-90.5 -37t-101.5 -14.5q-139 0 -221 67t-82 183zM418 1233 q0 27 11 50.5t29.5 41.5t43 29.5t51.5 11.5q45 0 75.5 -30.5t30.5 -75.5q0 -27 -11 -51.5t-29.5 -43t-43 -29t-51.5 -10.5q-47 0 -76.5 30t-29.5 77zM846 1233q0 27 11 50.5t29.5 41.5t43 29.5t51.5 11.5q45 0 75.5 -30.5t30.5 -75.5q0 -27 -11 -51.5t-29.5 -43t-43 -29 t-51.5 -10.5q-47 0 -76.5 30t-29.5 77z" />
<glyph unicode="&#xfd;" horiz-adv-x="1161" d="M-57 -231l131 143q25 -35 60.5 -61.5t78.5 -43t92 -24.5t98 -8q133 0 204 72.5t102 203.5l24 113q-66 -59 -146.5 -107.5t-189.5 -48.5q-63 0 -118.5 14.5t-96.5 45t-64.5 78t-23.5 110.5q0 14 1 33.5t9 50.5l144 649h215l-131 -588q-4 -18 -6 -35.5t-2 -27.5 q0 -41 15 -67.5t41 -43t59.5 -22.5t68.5 -6q78 0 146.5 42t115.5 91l145 657h215l-208 -938q-47 -211 -174 -331.5t-340 -120.5q-156 0 -269.5 39.5t-195.5 130.5zM563 1139l352 295h209l-403 -295h-158z" />
<glyph unicode="&#xfe;" horiz-adv-x="1185" d="M-55 -377l385 1743h215l-111 -508q61 76 138 116t171 40q170 0 274.5 -105.5t104.5 -302.5q0 -117 -34.5 -229.5t-101 -201.5t-164 -144.5t-220.5 -55.5q-106 0 -192 44t-136 122l-114 -518h-215zM309 301q35 -57 101.5 -96t158.5 -39q74 0 134.5 32.5t103.5 88t66.5 127 t23.5 149.5q0 121 -67.5 190.5t-176.5 69.5q-78 0 -146.5 -40t-111.5 -99z" />
<glyph unicode="&#xff;" horiz-adv-x="1161" d="M-57 -231l131 143q25 -35 60.5 -61.5t78.5 -43t92 -24.5t98 -8q133 0 204 72.5t102 203.5l24 113q-66 -59 -146.5 -107.5t-189.5 -48.5q-63 0 -118.5 14.5t-96.5 45t-64.5 78t-23.5 110.5q0 14 1 33.5t9 50.5l144 649h215l-131 -588q-4 -18 -6 -35.5t-2 -27.5 q0 -41 15 -67.5t41 -43t59.5 -22.5t68.5 -6q78 0 146.5 42t115.5 91l145 657h215l-208 -938q-47 -211 -174 -331.5t-340 -120.5q-156 0 -269.5 39.5t-195.5 130.5zM406 1233q0 27 11 50.5t29.5 41.5t43 29.5t51.5 11.5q45 0 75.5 -30.5t30.5 -75.5q0 -27 -11 -51.5 t-29.5 -43t-43 -29t-51.5 -10.5q-47 0 -76.5 30t-29.5 77zM834 1233q0 27 11 50.5t29.5 41.5t43 29.5t51.5 11.5q45 0 75.5 -30.5t30.5 -75.5q0 -27 -11 -51.5t-29.5 -43t-43 -29t-51.5 -10.5q-47 0 -76.5 30t-29.5 77z" />
<glyph unicode="&#x131;" horiz-adv-x="493" d="M29 0l219 989h215l-219 -989h-215z" />
<glyph unicode="&#x141;" horiz-adv-x="1085" d="M2 420l43 198l180 93l146 655h239l-114 -516l196 100l-43 -200l-196 -101l-97 -438h602l-47 -211h-841l112 512z" />
<glyph unicode="&#x142;" horiz-adv-x="643" d="M4 438l37 162l201 102l147 664h215l-119 -541l203 105l-35 -160l-204 -104l-82 -373q-2 -12 -3.5 -22.5t-1.5 -22.5q0 -39 27 -60.5t72 -21.5q23 0 47 8t35 19l12 -173q-23 -18 -62.5 -31.5t-93.5 -13.5q-125 0 -195.5 50.5t-70.5 142.5q0 39 8 72l66 303z" />
<glyph unicode="&#x152;" horiz-adv-x="2238" d="M104 582q0 180 62.5 327.5t168 254t246 164.5t296.5 58q152 0 275.5 -61t188.5 -207l56 248h936l-47 -211h-697l-78 -352h682l-47 -211h-682l-84 -381h697l-45 -211h-936l37 178q-76 -92 -189 -147.5t-266 -55.5q-123 0 -227.5 45.5t-181 125t-121 191.5t-44.5 245z M356 596q0 -92 30 -168t83 -129t127 -82t162 -29q131 0 245.5 64.5t186.5 181.5l96 430q-33 150 -139.5 230t-259.5 80q-113 0 -210 -45.5t-168 -123t-112 -183t-41 -226.5z" />
<glyph unicode="&#x153;" horiz-adv-x="1935" d="M68 422q0 113 39.5 219.5t113.5 189t176.5 133t229.5 50.5q84 0 149.5 -24.5t113.5 -61.5t78.5 -80t45.5 -80q29 37 67.5 80t90 80t116 61.5t146.5 24.5q90 0 168.5 -29t138 -84t93.5 -136t34 -187q0 -41 -6.5 -83t-14.5 -71h-755q-2 -4 -2 -13.5v-19.5q0 -45 19 -88 t56 -76.5t92.5 -54t126.5 -20.5q70 0 141.5 22.5t119.5 61.5l69 -152q-66 -47 -155 -78t-191 -31q-88 0 -157.5 24t-122 60.5t-85 79.5t-47.5 82q-31 -37 -68.5 -80t-87.5 -79.5t-114.5 -61.5t-148.5 -25q-104 0 -190.5 31t-149 88.5t-96 140t-33.5 187.5zM291 430 q0 -123 65.5 -193.5t188.5 -70.5q70 0 130 31.5t104 86t68.5 126t24.5 149.5q0 70 -20.5 120t-55 82t-80.5 47t-98 15q-68 0 -128 -30.5t-104 -85t-69.5 -126t-25.5 -151.5zM1114 578h559q0 4 1 10t1 16q0 47 -15 90t-47 75t-80 50.5t-114 18.5q-63 0 -115.5 -25 t-92.5 -62.5t-65.5 -83.5t-31.5 -89z" />
<glyph unicode="&#x160;" horiz-adv-x="1216" d="M14 227l152 174q72 -98 192.5 -155.5t264.5 -57.5q66 0 112.5 18.5t76.5 47.5t44 63.5t14 67.5q0 55 -50 93t-123.5 70t-162 63.5t-162 76.5t-123.5 110.5t-50 164.5q0 82 35.5 158.5t103.5 136t163 95.5t212 36q160 0 298 -57.5t224 -162.5l-154 -172 q-74 92 -184.5 136.5t-218.5 44.5q-49 0 -90 -14.5t-71 -38t-47 -55.5t-17 -66q0 -51 50 -87t123.5 -67t162 -63.5t162 -78.5t123.5 -113t50 -165q0 -90 -34.5 -172t-101 -144.5t-164 -100.5t-220.5 -38q-96 0 -186 18.5t-167 52.5t-137.5 80t-99.5 101zM586 1786h133 l115 -197l196 197h139l-256 -295h-196z" />
<glyph unicode="&#x161;" horiz-adv-x="966" d="M-8 154l127 147q20 -27 56 -54.5t80 -49t95 -36t107 -14.5q86 0 133 40t47 94q0 39 -38 64.5t-95.5 47t-123 45t-122.5 56t-95 80t-38 118.5q0 63 25.5 121.5t75.5 103t124 71t168 26.5q127 0 233.5 -45t170.5 -115l-117 -143q-16 25 -47 49t-70 42.5t-84 30t-92 11.5 q-82 0 -127 -34t-45 -83q0 -37 38 -60.5t94 -45t123 -45t123 -57.5t94 -83t38 -123q0 -68 -27.5 -129t-80 -107t-129.5 -74t-175 -28q-135 0 -251.5 45.5t-194.5 133.5zM393 1434h133l115 -197l197 197h139l-256 -295h-197z" />
<glyph unicode="&#x178;" horiz-adv-x="1304" d="M195 1366h260l245 -584l504 584h289l-705 -799l-124 -567h-240l125 567zM567 1585q0 27 11.5 50.5t30 42t43 29.5t50.5 11q45 0 76 -30.5t31 -75.5q0 -27 -11.5 -51.5t-29.5 -43t-43 -28.5t-51 -10q-47 0 -77 29.5t-30 76.5zM995 1585q0 27 11.5 50.5t30 42t43 29.5 t50.5 11q45 0 76 -30.5t31 -75.5q0 -27 -11.5 -51.5t-29.5 -43t-43 -28.5t-51 -10q-47 0 -77 29.5t-30 76.5z" />
<glyph unicode="&#x17d;" horiz-adv-x="1206" d="M-20 0l43 195l897 960h-684l47 211h1009l-43 -192l-897 -963h699l-45 -211h-1026zM596 1786h133l115 -197l196 197h140l-256 -295h-197z" />
<glyph unicode="&#x17e;" horiz-adv-x="974" d="M-16 0l36 164l621 639h-479l43 186h776l-35 -155l-631 -646h494l-39 -188h-786zM389 1434h133l115 -197l197 197h139l-256 -295h-197z" />
<glyph unicode="&#x192;" horiz-adv-x="911" d="M-80 -330l184 832h-122v190h163l84 373q33 147 117 234t229 87q70 0 136.5 -19t122.5 -73l-97 -166q-20 25 -49 36.5t-61 11.5q-61 0 -104.5 -41t-59.5 -117l-72 -326h254v-190h-295l-186 -832h-244z" />
<glyph unicode="&#x2c6;" horiz-adv-x="583" d="M141 1139l256 295h197l131 -295h-131l-117 198l-194 -198h-142z" />
<glyph unicode="&#x2da;" horiz-adv-x="417" d="M182 1317q0 47 18.5 89t50.5 72.5t73 49t88 18.5q86 0 138 -52t52 -138q0 -47 -18.5 -88t-49 -73t-72.5 -50.5t-89 -18.5q-86 0 -138.5 52.5t-52.5 138.5zM287 1327q0 -41 26.5 -68.5t67.5 -27.5q47 0 82 33.5t35 81.5q0 43 -26 69.5t-69 26.5q-47 0 -81.5 -34t-34.5 -81 z" />
<glyph unicode="&#x2dc;" horiz-adv-x="657" d="M143 1147q27 127 82.5 200.5t159.5 73.5q55 0 86 -24.5t54.5 -55t46 -55t59.5 -24.5q35 0 62.5 34.5t45.5 112.5h119q-27 -127 -83.5 -200.5t-160.5 -73.5q-55 0 -85.5 24.5t-53 55t-45 55t-59.5 24.5q-35 0 -62.5 -34.5t-44.5 -112.5h-121z" />
<glyph unicode="&#x3c0;" horiz-adv-x="1218" d="M96 0l185 834h-150l41 190h1104l-41 -190h-148l-184 -834h-217l184 834h-372l-185 -834h-217z" />
<glyph unicode="&#x2000;" horiz-adv-x="918" />
<glyph unicode="&#x2001;" horiz-adv-x="1837" />
<glyph unicode="&#x2002;" horiz-adv-x="918" />
<glyph unicode="&#x2003;" horiz-adv-x="1837" />
<glyph unicode="&#x2004;" horiz-adv-x="612" />
<glyph unicode="&#x2005;" horiz-adv-x="459" />
<glyph unicode="&#x2006;" horiz-adv-x="306" />
<glyph unicode="&#x2007;" horiz-adv-x="306" />
<glyph unicode="&#x2008;" horiz-adv-x="229" />
<glyph unicode="&#x2009;" horiz-adv-x="367" />
<glyph unicode="&#x200a;" horiz-adv-x="102" />
<glyph unicode="&#x2010;" horiz-adv-x="614" d="M41 403l39 185h491l-39 -185h-491z" />
<glyph unicode="&#x2011;" horiz-adv-x="614" d="M41 403l39 185h491l-39 -185h-491z" />
<glyph unicode="&#x2012;" horiz-adv-x="614" d="M41 403l39 185h491l-39 -185h-491z" />
<glyph unicode="&#x2013;" horiz-adv-x="1214" d="M41 403l39 185h1091l-38 -185h-1092z" />
<glyph unicode="&#x2014;" horiz-adv-x="1705" d="M41 403l39 185h1583l-39 -185h-1583z" />
<glyph unicode="&#x2018;" horiz-adv-x="501" d="M203 1012q0 53 21.5 108.5t58 105.5t86 92t106.5 71l80 -84q-55 -27 -110.5 -73t-77.5 -99h20q43 0 76 -30t33 -85q0 -31 -13.5 -59.5t-35 -49t-49 -33t-58.5 -12.5q-55 0 -96 38t-41 110z" />
<glyph unicode="&#x2019;" horiz-adv-x="501" d="M213 948q55 27 110.5 73t77.5 99q-4 -2 -10 -2h-10q-43 0 -76 31t-33 86q0 31 13.5 58.5t35 48t49 32.5t58.5 12q55 0 96 -36.5t41 -108.5q0 -55 -21.5 -110.5t-58 -105.5t-86 -92t-106.5 -69z" />
<glyph unicode="&#x201a;" horiz-adv-x="501" d="M-37 -176q55 27 110.5 73t78.5 99h-19q-45 0 -77.5 30.5t-32.5 86.5q0 31 13 58.5t35.5 48t50.5 32.5t58 12q53 0 95 -36.5t42 -108.5q0 -55 -21.5 -110.5t-58 -105.5t-87 -92t-107.5 -71z" />
<glyph unicode="&#x201c;" horiz-adv-x="880" d="M211 1012q0 53 21.5 108.5t58.5 105.5t86 92t106 71l80 -84q-55 -27 -110.5 -73t-77.5 -99h20q43 0 76 -30t33 -85q0 -31 -13.5 -59.5t-35 -49t-49 -33t-58.5 -12.5q-55 0 -96 38t-41 110zM588 1012q0 53 21.5 108.5t58.5 105.5t87 92t107 71l80 -84q-55 -27 -110.5 -73 t-77.5 -99h18q45 0 78 -30t33 -85q0 -31 -13.5 -59.5t-36 -49t-50 -33t-58.5 -12.5q-53 0 -95 38t-42 110z" />
<glyph unicode="&#x201d;" horiz-adv-x="880" d="M213 948q55 27 110.5 73t77.5 99q-4 -2 -10 -2h-10q-43 0 -76 31t-33 86q0 31 13.5 58.5t35 48t49 32.5t58.5 12q55 0 96 -36.5t41 -108.5q0 -55 -21.5 -110.5t-58 -105.5t-86 -92t-106.5 -69zM590 948q55 27 110.5 73t77.5 99q-4 -2 -9 -2h-9q-45 0 -78 31t-33 86 q0 31 13.5 58.5t36 48t50 32.5t58.5 12q53 0 95 -36.5t42 -108.5q0 -55 -21.5 -110.5t-58.5 -105.5t-87 -92t-107 -69z" />
<glyph unicode="&#x201e;" horiz-adv-x="880" d="M-37 -176q55 27 110.5 73t78.5 99h-19q-45 0 -77.5 30.5t-32.5 86.5q0 31 13 58.5t35.5 48t50.5 32.5t58 12q53 0 95 -36.5t42 -108.5q0 -55 -21.5 -110.5t-58 -105.5t-87 -92t-107.5 -71zM342 -176q55 27 110.5 73t77.5 99h-20q-43 0 -76 30.5t-33 86.5q0 31 13.5 58.5 t35 48t49 32.5t58.5 12q55 0 96 -36.5t41 -108.5q0 -55 -21.5 -110.5t-58 -105.5t-86 -92t-106.5 -71z" />
<glyph unicode="&#x2020;" horiz-adv-x="555" d="M170 1077l25 111l182 -6l37 204h121l-54 -204l183 6l-25 -111l-180 8l-84 -415h-121l100 415z" />
<glyph unicode="&#x2021;" horiz-adv-x="555" d="M57 569l25 111l180 -8l92 413l-184 -8l25 111l180 -6l39 204h121l-54 -204l183 6l-25 -111l-180 8l-92 -413l184 8l-25 -111l-180 6l-39 -206h-121l56 206z" />
<glyph unicode="&#x2022;" horiz-adv-x="733" d="M131 475q0 51 21.5 98.5t57.5 81t83 54t100 20.5q90 0 149.5 -59.5t59.5 -149.5q0 -53 -21.5 -99t-56.5 -81t-83 -55.5t-99 -20.5q-92 0 -151.5 59.5t-59.5 151.5z" />
<glyph unicode="&#x2026;" horiz-adv-x="1505" d="M25 111q0 63 46 108t109 45q55 0 93 -39t38 -92q0 -66 -45.5 -111t-111.5 -45q-53 0 -91 39t-38 95zM526 111q0 63 46 108t110 45q55 0 93 -39t38 -92q0 -66 -46 -111t-112 -45q-53 0 -91 39t-38 95zM1028 111q0 63 46 108t110 45q55 0 93 -39t38 -92q0 -66 -46 -111 t-112 -45q-53 0 -91 39t-38 95z" />
<glyph unicode="&#x202f;" horiz-adv-x="367" />
<glyph unicode="&#x2030;" horiz-adv-x="2265" d="M154 0l1173 1366h139l-1175 -1366h-137zM172 989q0 88 30.5 162t82 126t119 80.5t141.5 28.5q63 0 121.5 -19t102.5 -55t69.5 -88.5t25.5 -117.5q0 -88 -30.5 -162t-82 -126t-118.5 -80.5t-141 -28.5q-66 0 -123.5 19.5t-101.5 56t-69.5 88t-25.5 116.5zM332 1004 q0 -68 46 -113t118 -45q43 0 80.5 18.5t66.5 50t45.5 76.5t16.5 101q0 70 -46.5 114.5t-117.5 44.5q-43 0 -81 -18.5t-66.5 -51t-45 -77.5t-16.5 -100zM745 256q0 88 31 162t82 126t118.5 80.5t141.5 28.5q63 0 121.5 -19.5t101.5 -55t69 -88t26 -117.5q0 -88 -31 -162 t-82 -126t-118.5 -81t-141.5 -29q-66 0 -123 19.5t-100 56.5t-69 88t-26 117zM903 270q0 -68 47 -112.5t119 -44.5q41 0 79 18.5t66.5 50t46 76.5t17.5 100q0 70 -47 115t-119 45q-41 0 -79 -18.5t-66.5 -51t-46 -77.5t-17.5 -101zM1481 256q0 88 30.5 162t82 126t119 80.5 t140.5 28.5q63 0 122 -19.5t102 -55t68.5 -88t25.5 -117.5q0 -88 -31 -162t-82 -126t-118.5 -81t-141.5 -29q-66 0 -123 19.5t-100 56.5t-68.5 88t-25.5 117zM1638 270q0 -68 47 -112.5t119 -44.5q41 0 79 18.5t66.5 50t46 76.5t17.5 100q0 70 -47 115t-119 45 q-41 0 -78.5 -18.5t-66.5 -51t-46.5 -77.5t-17.5 -101z" />
<glyph unicode="&#x2039;" horiz-adv-x="655" d="M59 498l410 362h213l-418 -373l238 -358h-197z" />
<glyph unicode="&#x203a;" horiz-adv-x="655" d="M-23 129l418 373l-237 358h196l246 -368l-410 -363h-213z" />
<glyph unicode="&#x2044;" horiz-adv-x="309" d="M-463 0l1176 1366h137l-1176 -1366h-137z" />
<glyph unicode="&#x205f;" horiz-adv-x="459" />
<glyph unicode="&#x20ac;" horiz-adv-x="1439" d="M45 471l31 139h82q2 39 6 77t10 73h-65l32 139h74q45 113 120 204t170 154.5t206.5 97.5t230.5 34q115 0 208 -28t166 -76t126 -113.5t86 -141.5l-230 -82q-49 117 -147 172.5t-221 55.5q-137 0 -256 -74t-191 -203h576l-31 -139h-598q-10 -35 -15 -73t-5 -77h585 l-30 -139h-539q35 -129 138.5 -206t260.5 -77q92 0 182.5 41t159.5 117l183 -129q-57 -68 -124 -114t-137.5 -74.5t-141.5 -41t-134 -12.5q-125 0 -234.5 35t-194.5 99.5t-142.5 155.5t-75.5 206h-121z" />
<glyph unicode="&#x2122;" horiz-adv-x="929" d="M215 1313l10 53h312l-11 -53h-127l-88 -398h-57l88 398h-127zM512 915l98 451h88l60 -328l203 328h88l-99 -451h-57l82 373l-236 -373h-16l-72 373l-82 -373h-57z" />
<glyph unicode="&#x25fc;" horiz-adv-x="993" d="M0 0v993h993v-993h-993z" />
</font>
</defs>
</svg>
