<?xml version="1.0" encoding="UTF-8"?>
<svg xmlns="http://www.w3.org/2000/svg" xmlns:xlink="http://www.w3.org/1999/xlink" version="1.2" >
<font id="Cadillac Sans SemiBold">
<font-face  font-family="Cadillac Sans" units-per-em="1000" ascent="750" descent="-250" font-style="normal" font-weight="600" font-stretch="normal" cap-height="700" x-height="542" underline-position="-75" underline-thickness="50" />
<missing-glyph  horiz-adv-x="603" d="M58 -100 L58 800 L544 800 L544 -100 L58 -100 Z M168 -5 L435 -5 L435 705 L168 705 L168 -5 Z " />
<glyph glyph-name=".null" d="" />
<glyph glyph-name="nonmarkingreturn" unicode="&#xd;" horiz-adv-x="196" d="" />
<glyph glyph-name="space" unicode="&#x20;" horiz-adv-x="204" d="" />
<glyph glyph-name="A" unicode="A" horiz-adv-x="627" d="M602 0 L459 0 L417 164 L197 164 L154 0 L25 0 L25 88 L203 700 L424 700 L602 88 L602 0 Z M310 579 L307 579 L229 285 L385 285 L310 579 Z " />
<glyph glyph-name="B" unicode="B" horiz-adv-x="604" d="M477 369 Q499 359 522.5 341 Q546 323 563 296 L563 119 Q551 98 532 77 Q513 56 487 38.5 Q461 21 428 10.5 Q395 0 356 0 L58 0 L58 700 L351 700 Q389 700 420.5 689.5 Q452 679 477.5 662 Q503 645 521.5 623.5 Q540 602 552 581 L552 441 Q540 421 519.5 400.5 Q499 380 477 369 Z M321 414 Q348 414 370.5 426.5 Q393 439 407 461 L407 534 Q395 557 371.5 569.5 Q348 582 316 582 L216 582 L216 414 L321 414 Z M418 262 Q406 282 381.5 295.5 Q357 309 327 309 L216 309 L216 118 L323 118 Q361 118 383.5 131.5 Q406 145 418 167 L418 262 Z " />
<glyph glyph-name="C" unicode="C" horiz-adv-x="606" d="M313 715 Q372 715 416 700.5 Q460 686 491 665 Q522 644 541.5 619.5 Q561 595 572 574 L572 500 L436 500 Q425 539 395.5 565.5 Q366 592 315 592 Q273 592 245 573.5 Q217 555 206 530 L206 170 Q217 145 245 126.5 Q273 108 315 108 Q366 108 395.5 134.5 Q425 161 436 200 L572 200 L572 126 Q561 105 541.5 80.5 Q522 56 491 35 Q460 14 416 -0.5 Q372 -15 313 -15 Q254 -15 209.5 0 Q165 15 132.5 37.5 Q100 60 79.5 87 Q59 114 48 138 L48 562 Q59 586 79.5 613 Q100 640 132.5 662.5 Q165 685 209.5 700 Q254 715 313 715 Z " />
<glyph glyph-name="D" unicode="D" horiz-adv-x="629" d="M348 700 Q397 700 435 687.5 Q473 675 502 655.5 Q531 636 550.5 611.5 Q570 587 581 562 L581 138 Q570 113 550.5 88.5 Q531 64 502 44.5 Q473 25 435 12.5 Q397 0 348 0 L58 0 L58 700 L348 700 Z M216 120 L316 120 Q358 120 385 136 Q412 152 423 177 L423 523 Q412 548 385 564 Q358 580 316 580 L216 580 L216 120 Z " />
<glyph glyph-name="E" unicode="E" horiz-adv-x="538" d="M216 579 L216 419 L474 419 L474 298 L216 298 L216 121 L499 121 L499 0 L58 0 L58 700 L492 700 L492 579 L216 579 Z " />
<glyph glyph-name="F" unicode="F" horiz-adv-x="516" d="M216 579 L216 412 L468 412 L468 291 L216 291 L216 0 L58 0 L58 700 L480 700 L480 579 L216 579 Z " />
<glyph glyph-name="G" unicode="G" horiz-adv-x="628" d="M315 592 Q272 592 244.5 573 Q217 554 206 530 L206 171 Q217 146 245 127.5 Q273 109 316 109 Q361 109 387 126.5 Q413 144 425 167 L425 272 L321 272 L321 391 L572 391 L572 0 L448 0 L448 49 Q422 22 383.5 3.5 Q345 -15 285 -15 Q234 -15 194.5 0 Q155 15 126 37.5 Q97 60 78 87 Q59 114 48 139 L48 562 Q59 586 79.5 613 Q100 640 132.5 662.5 Q165 685 209.5 700 Q254 715 313 715 Q372 715 416 700.5 Q460 686 491 665 Q522 644 541.5 619.5 Q561 595 572 574 L572 500 L436 500 Q425 539 395.5 565.5 Q366 592 315 592 Z " />
<glyph glyph-name="H" unicode="H" horiz-adv-x="655" d="M439 0 L439 300 L216 300 L216 0 L58 0 L58 700 L216 700 L216 421 L439 421 L439 700 L597 700 L597 0 L439 0 Z " />
<glyph glyph-name="I" unicode="I" horiz-adv-x="274" d="M58 0 L58 700 L216 700 L216 0 L58 0 Z " />
<glyph glyph-name="J" unicode="J" horiz-adv-x="387" d="M332 139 Q318 109 296.5 83 Q275 57 244.5 38.5 Q214 20 173 9 Q132 -2 78 -2 Q58 -2 43 -1.5 Q28 -1 20 0 L20 120 L66 120 Q108 120 135.5 135.5 Q163 151 174 178 L174 700 L332 700 L332 139 Z " />
<glyph glyph-name="K" unicode="K" horiz-adv-x="617" d="M588 0 L463 0 L279 299 L216 229 L216 0 L58 0 L58 700 L216 700 L216 427 L453 700 L562 700 L562 612 L382 413 L588 88 L588 0 Z " />
<glyph glyph-name="L" unicode="L" horiz-adv-x="458" d="M437 121 L437 0 L58 0 L58 700 L216 700 L216 121 L437 121 Z " />
<glyph glyph-name="M" unicode="M" horiz-adv-x="806" d="M600 0 L600 498 L597 498 L449 142 L357 142 L208 498 L205 498 L205 0 L58 0 L58 700 L267 700 L405 365 L408 365 L541 700 L748 700 L748 0 L600 0 Z " />
<glyph glyph-name="N" unicode="N" horiz-adv-x="668" d="M431 0 L208 465 L205 465 L205 0 L58 0 L58 700 L237 700 L460 235 L463 235 L463 700 L610 700 L610 0 L431 0 Z " />
<glyph glyph-name="O" unicode="O" horiz-adv-x="626" d="M313 715 Q372 715 416.5 700 Q461 685 493.5 662.5 Q526 640 546.5 613 Q567 586 578 562 L578 139 Q567 114 546.5 87 Q526 60 493.5 37.5 Q461 15 416.5 0 Q372 -15 313 -15 Q254 -15 209.5 0 Q165 15 132.5 37.5 Q100 60 79.5 87 Q59 114 48 139 L48 562 Q59 586 79.5 613 Q100 640 132.5 662.5 Q165 685 209.5 700 Q254 715 313 715 Z M313 592 Q271 592 244 573.5 Q217 555 206 530 L206 171 Q217 146 244 127.5 Q271 109 313 109 Q356 109 382.5 127.5 Q409 146 420 171 L420 530 Q409 555 382.5 573.5 Q356 592 313 592 Z " />
<glyph glyph-name="P" unicode="P" horiz-adv-x="591" d="M347 700 Q413 700 468.5 669.5 Q524 639 557 581 L557 374 Q543 350 523 328.5 Q503 307 476.5 290.5 Q450 274 417.5 264.5 Q385 255 347 255 L216 255 L216 0 L58 0 L58 700 L347 700 Z M216 374 L311 374 Q342 374 366.5 386.5 Q391 399 405 424 L405 530 Q390 557 364.5 568.5 Q339 580 311 580 L216 580 L216 374 Z " />
<glyph glyph-name="Q" unicode="Q" horiz-adv-x="626" d="M583 -149 L504 -149 Q477 -149 448 -139 Q419 -129 393 -111 Q367 -93 345 -68.5 Q323 -44 311 -15 Q252 -15 208 0 Q164 15 132 37.5 Q100 60 79.5 87 Q59 114 48 139 L48 562 Q59 586 79.5 613 Q100 640 132.5 662.5 Q165 685 209.5 700 Q254 715 313 715 Q372 715 416.5 700 Q461 685 493.5 662.5 Q526 640 546.5 613 Q567 586 578 562 L578 139 Q564 106 531.5 69.5 Q499 33 444 10 Q457 -14 479.5 -26.5 Q502 -39 519 -39 L583 -39 L583 -149 Z M206 171 Q217 146 244 127.5 Q271 109 313 109 Q356 109 382.5 127.5 Q409 146 420 171 L420 530 Q409 555 382.5 573.5 Q356 592 313 592 Q271 592 244 573.5 Q217 555 206 530 L206 171 Z " />
<glyph glyph-name="R" unicode="R" horiz-adv-x="607" d="M572 0 L447 0 L290 275 L216 275 L216 0 L58 0 L58 700 L352 700 Q418 700 473.5 669 Q529 638 561 581 L561 396 Q541 361 511.5 334.5 Q482 308 443 293 L572 88 L572 0 Z M316 388 Q384 388 411 438 L411 530 Q398 555 373 567.5 Q348 580 316 580 L216 580 L216 388 L316 388 Z " />
<glyph glyph-name="S" unicode="S" horiz-adv-x="592" d="M295 715 Q348 715 389.5 702.5 Q431 690 461.5 671 Q492 652 511.5 630.5 Q531 609 541 591 L541 517 L405 517 Q395 547 368.5 569.5 Q342 592 294 592 Q259 592 235 577.5 Q211 563 201 546 L201 474 Q208 461 223 451 Q238 441 278 430 L328 417 Q383 403 421 388 Q459 373 484 356.5 Q509 340 524 323.5 Q539 307 549 290 L549 119 Q538 101 519 77.5 Q500 54 469.5 33.5 Q439 13 395.5 -1 Q352 -15 294 -15 Q234 -15 190 -1 Q146 13 115 33.5 Q84 54 65 77 Q46 100 37 119 L37 193 L173 193 Q183 156 214 132.5 Q245 109 293 109 Q336 109 361 126.5 Q386 144 397 163 L397 235 Q388 252 369 264.5 Q350 277 310 288 L260 300 Q209 312 174 325.5 Q139 339 115 353.5 Q91 368 75.5 384 Q60 400 48 419 L48 591 Q58 609 77.5 630.5 Q97 652 127 670.5 Q157 689 199 702 Q241 715 295 715 Z " />
<glyph glyph-name="T" unicode="T" horiz-adv-x="545" d="M352 579 L352 0 L194 0 L194 579 L25 579 L25 700 L520 700 L520 579 L352 579 Z " />
<glyph glyph-name="U" unicode="U" horiz-adv-x="640" d="M585 139 Q574 114 553.5 87 Q533 60 500.5 37.5 Q468 15 423.5 0 Q379 -15 320 -15 Q261 -15 216.5 0 Q172 15 139.5 37.5 Q107 60 86.5 87 Q66 114 55 139 L55 700 L213 700 L213 172 Q224 147 250.5 128.5 Q277 110 320 110 Q363 110 389 128.5 Q415 147 427 172 L427 700 L585 700 L585 139 Z " />
<glyph glyph-name="V" unicode="V" horiz-adv-x="629" d="M422 0 L206 0 L26 612 L26 700 L173 700 L318 152 L321 152 L467 700 L604 700 L604 612 L422 0 Z " />
<glyph glyph-name="W" unicode="W" horiz-adv-x="919" d="M767 0 L565 0 L460 444 L457 444 L353 0 L153 0 L31 612 L31 700 L179 700 L271 179 L274 179 L393 700 L534 700 L654 179 L657 179 L748 700 L888 700 L888 612 L767 0 Z " />
<glyph glyph-name="X" unicode="X" horiz-adv-x="598" d="M402 357 L562 88 L562 0 L423 0 L296 255 L293 255 L161 0 L35 0 L35 88 L195 357 L41 612 L41 700 L178 700 L303 457 L306 457 L431 700 L557 700 L557 612 L402 357 Z " />
<glyph glyph-name="Y" unicode="Y" horiz-adv-x="580" d="M366 277 L366 0 L207 0 L207 293 L28 612 L28 700 L161 700 L293 435 L296 435 L427 700 L553 700 L553 612 L366 277 Z " />
<glyph glyph-name="Z" unicode="Z" horiz-adv-x="558" d="M222 121 L522 121 L522 0 L36 0 L36 103 L334 579 L40 579 L40 700 L522 700 L522 597 L222 121 Z " />
<glyph glyph-name="Agrave" unicode="&#xc0;" horiz-adv-x="627" d="M602 0 L459 0 L417 164 L197 164 L154 0 L25 0 L25 88 L203 700 L424 700 L602 88 L602 0 Z M310 579 L307 579 L229 285 L385 285 L310 579 Z M377 747 L272 747 L192 844 L192 907 L322 907 L377 762 L377 747 Z " />
<glyph glyph-name="Aacute" unicode="&#xc1;" horiz-adv-x="627" d="M602 0 L459 0 L417 164 L197 164 L154 0 L25 0 L25 88 L203 700 L424 700 L602 88 L602 0 Z M310 579 L307 579 L229 285 L385 285 L310 579 Z M351 747 L246 747 L246 762 L299 907 L432 907 L432 844 L351 747 Z " />
<glyph glyph-name="Acircumflex" unicode="&#xc2;" horiz-adv-x="627" d="M602 0 L459 0 L417 164 L197 164 L154 0 L25 0 L25 88 L203 700 L424 700 L602 88 L602 0 Z M310 579 L307 579 L229 285 L385 285 L310 579 Z M487 747 L383 747 L314 842 L244 747 L140 747 L140 762 L220 907 L408 907 L487 762 L487 747 Z " />
<glyph glyph-name="Atilde" unicode="&#xc3;" horiz-adv-x="627" d="M602 0 L459 0 L417 164 L197 164 L154 0 L25 0 L25 88 L203 700 L424 700 L602 88 L602 0 Z M310 579 L307 579 L229 285 L385 285 L310 579 Z M242 888 Q269 888 287 880 Q305 872 319 863 Q333 854 345 846 Q357 838 372 838 Q400 839 405 863 L405 883 L491 883 L491 824 Q484 794 457 770.5 Q430 747 385 747 Q357 747 339 755 Q321 763 307.5 772 Q294 781 282.5 789 Q271 797 256 797 Q242 797 233 789 Q224 781 222 772 L222 752 L137 752 L137 810 Q144 842 171.5 865 Q199 888 242 888 Z " />
<glyph glyph-name="Adieresis" unicode="&#xc4;" horiz-adv-x="627" d="M602 0 L459 0 L417 164 L197 164 L154 0 L25 0 L25 88 L203 700 L424 700 L602 88 L602 0 Z M310 579 L307 579 L229 285 L385 285 L310 579 Z M205 889 Q238 889 254.5 878.5 Q271 868 276 861 L276 780 Q271 773 254.5 762 Q238 751 205 751 Q173 751 156.5 762 Q140 773 134 780 L134 861 Q140 868 156.5 878.5 Q173 889 205 889 Z M422 889 Q455 889 471.5 878.5 Q488 868 493 861 L493 780 Q488 773 471.5 762 Q455 751 422 751 Q390 751 373.5 762 Q357 773 351 780 L351 861 Q357 868 373.5 878.5 Q390 889 422 889 Z " />
<glyph glyph-name="Amacron" unicode="&#x100;" horiz-adv-x="627" d="M602 0 L459 0 L417 164 L197 164 L154 0 L25 0 L25 88 L203 700 L424 700 L602 88 L602 0 Z M310 579 L307 579 L229 285 L385 285 L310 579 Z M141 760 L141 858 L485 858 L485 760 L141 760 Z " />
<glyph glyph-name="Abreve" unicode="&#x102;" horiz-adv-x="627" d="M602 0 L459 0 L417 164 L197 164 L154 0 L25 0 L25 88 L203 700 L424 700 L602 88 L602 0 Z M310 579 L307 579 L229 285 L385 285 L310 579 Z M485 828 Q467 790 425 764.5 Q383 739 314 739 Q245 739 202.5 764.5 Q160 790 142 828 L142 888 L249 888 L249 850 Q253 842 268 829.5 Q283 817 314 817 Q345 817 359.5 829.5 Q374 842 378 850 L378 888 L485 888 L485 828 Z " />
<glyph glyph-name="Aring" unicode="&#xc5;" horiz-adv-x="627" d="M602 0 L459 0 L417 164 L197 164 L154 0 L25 0 L25 88 L203 700 L232 700 Q202 717 189 742 L189 834 Q203 862 236 879.5 Q269 897 314 897 Q359 897 391.5 879.5 Q424 862 439 834 L439 742 Q426 717 396 700 L424 700 L602 88 L602 0 Z M257 763 Q262 755 275.5 747 Q289 739 314 739 Q338 739 351.5 747 Q365 755 370 763 L370 814 Q365 822 351.5 830 Q338 838 314 838 Q289 838 275.5 830 Q262 822 257 814 L257 763 Z M310 579 L307 579 L229 285 L385 285 L310 579 Z " />
<glyph glyph-name="Aogonek" unicode="&#x104;" horiz-adv-x="627" d="M602 0 Q555 -40 536 -64.5 Q517 -89 512 -100 L512 -124 Q517 -131 529 -135.5 Q541 -140 556 -140 Q566 -140 577 -138.5 Q588 -137 602 -132 L602 -211 Q590 -217 572.5 -221 Q555 -225 526 -225 Q488 -225 454 -213.5 Q420 -202 407 -173 L407 -95 Q415 -78 435 -52 Q455 -26 489 0 L459 0 L417 164 L197 164 L154 0 L25 0 L25 88 L203 700 L424 700 L602 88 L602 0 Z M310 579 L307 579 L229 285 L385 285 L310 579 Z " />
<glyph glyph-name="AE" unicode="&#xc6;" horiz-adv-x="863" d="M824 0 L386 0 L386 173 L221 173 L153 0 L25 0 L25 88 L281 700 L818 700 L818 579 L544 579 L544 419 L800 419 L800 298 L544 298 L544 121 L824 121 L824 0 Z M386 581 L382 581 L269 294 L386 294 L386 581 Z " />
<glyph glyph-name="Cacute" unicode="&#x106;" horiz-adv-x="606" d="M313 715 Q372 715 416 700.5 Q460 686 491 665 Q522 644 541.5 619.5 Q561 595 572 574 L572 500 L436 500 Q425 539 395.5 565.5 Q366 592 315 592 Q273 592 245 573.5 Q217 555 206 530 L206 170 Q217 145 245 126.5 Q273 108 315 108 Q366 108 395.5 134.5 Q425 161 436 200 L572 200 L572 126 Q561 105 541.5 80.5 Q522 56 491 35 Q460 14 416 -0.5 Q372 -15 313 -15 Q254 -15 209.5 0 Q165 15 132.5 37.5 Q100 60 79.5 87 Q59 114 48 138 L48 562 Q59 586 79.5 613 Q100 640 132.5 662.5 Q165 685 209.5 700 Q254 715 313 715 Z M353 747 L248 747 L248 762 L301 907 L434 907 L434 844 L353 747 Z " />
<glyph glyph-name="Ccircumflex" unicode="&#x108;" horiz-adv-x="606" d="M313 715 Q372 715 416 700.5 Q460 686 491 665 Q522 644 541.5 619.5 Q561 595 572 574 L572 500 L436 500 Q425 539 395.5 565.5 Q366 592 315 592 Q273 592 245 573.5 Q217 555 206 530 L206 170 Q217 145 245 126.5 Q273 108 315 108 Q366 108 395.5 134.5 Q425 161 436 200 L572 200 L572 126 Q561 105 541.5 80.5 Q522 56 491 35 Q460 14 416 -0.5 Q372 -15 313 -15 Q254 -15 209.5 0 Q165 15 132.5 37.5 Q100 60 79.5 87 Q59 114 48 138 L48 562 Q59 586 79.5 613 Q100 640 132.5 662.5 Q165 685 209.5 700 Q254 715 313 715 Z M489 747 L385 747 L316 842 L246 747 L142 747 L142 762 L222 907 L410 907 L489 762 L489 747 Z " />
<glyph glyph-name="Ccaron" unicode="&#x10c;" horiz-adv-x="606" d="M313 715 Q372 715 416 700.5 Q460 686 491 665 Q522 644 541.5 619.5 Q561 595 572 574 L572 500 L436 500 Q425 539 395.5 565.5 Q366 592 315 592 Q273 592 245 573.5 Q217 555 206 530 L206 170 Q217 145 245 126.5 Q273 108 315 108 Q366 108 395.5 134.5 Q425 161 436 200 L572 200 L572 126 Q561 105 541.5 80.5 Q522 56 491 35 Q460 14 416 -0.5 Q372 -15 313 -15 Q254 -15 209.5 0 Q165 15 132.5 37.5 Q100 60 79.5 87 Q59 114 48 138 L48 562 Q59 586 79.5 613 Q100 640 132.5 662.5 Q165 685 209.5 700 Q254 715 313 715 Z M410 747 L222 747 L142 891 L142 907 L246 907 L316 811 L385 907 L489 907 L489 891 L410 747 Z " />
<glyph glyph-name="Cdotaccent" unicode="&#x10a;" horiz-adv-x="606" d="M313 715 Q372 715 416 700.5 Q460 686 491 665 Q522 644 541.5 619.5 Q561 595 572 574 L572 500 L436 500 Q425 539 395.5 565.5 Q366 592 315 592 Q273 592 245 573.5 Q217 555 206 530 L206 170 Q217 145 245 126.5 Q273 108 315 108 Q366 108 395.5 134.5 Q425 161 436 200 L572 200 L572 126 Q561 105 541.5 80.5 Q522 56 491 35 Q460 14 416 -0.5 Q372 -15 313 -15 Q254 -15 209.5 0 Q165 15 132.5 37.5 Q100 60 79.5 87 Q59 114 48 138 L48 562 Q59 586 79.5 613 Q100 640 132.5 662.5 Q165 685 209.5 700 Q254 715 313 715 Z M316 898 Q350 898 369 885 Q388 872 394 858 L394 796 Q388 781 369 768.5 Q350 756 316 756 Q283 756 263.5 768.5 Q244 781 237 796 L237 858 Q244 872 263.5 885 Q283 898 316 898 Z " />
<glyph glyph-name="Ccedilla" unicode="&#xc7;" horiz-adv-x="606" d="M315 592 Q273 592 245 573.5 Q217 555 206 530 L206 170 Q217 145 245 126.5 Q273 108 315 108 Q366 108 395.5 134.5 Q425 161 436 200 L572 200 L572 126 Q562 106 543.5 83 Q525 60 496.5 39 Q468 18 428.5 3.5 Q389 -11 336 -14 L325 -43 L333 -43 Q372 -43 392.5 -59 Q413 -75 421 -93 L421 -169 Q408 -196 376 -212 Q344 -228 298 -228 Q265 -228 238 -222.5 Q211 -217 197 -209 L219 -147 Q235 -152 253 -155.5 Q271 -159 290 -159 Q310 -159 322 -153 Q334 -147 338 -139 L338 -116 Q330 -100 292 -100 L231 -100 L261 -12 Q215 -6 179.5 10.5 Q144 27 118 48 Q92 69 75 93 Q58 117 48 138 L48 562 Q59 586 79.5 613 Q100 640 132.5 662.5 Q165 685 209.5 700 Q254 715 313 715 Q372 715 416 700.5 Q460 686 491 665 Q522 644 541.5 619.5 Q561 595 572 574 L572 500 L436 500 Q425 539 395.5 565.5 Q366 592 315 592 Z " />
<glyph glyph-name="Dcaron" unicode="&#x10e;" horiz-adv-x="629" d="M348 700 Q397 700 435 687.5 Q473 675 502 655.5 Q531 636 550.5 611.5 Q570 587 581 562 L581 138 Q570 113 550.5 88.5 Q531 64 502 44.5 Q473 25 435 12.5 Q397 0 348 0 L58 0 L58 700 L348 700 Z M216 120 L316 120 Q358 120 385 136 Q412 152 423 177 L423 523 Q412 548 385 564 Q358 580 316 580 L216 580 L216 120 Z M409 747 L221 747 L141 891 L141 907 L245 907 L315 811 L384 907 L488 907 L488 891 L409 747 Z " />
<glyph glyph-name="Dcroat" unicode="&#x110;" horiz-adv-x="653" d="M365 700 Q414 700 452 687.5 Q490 675 519 655.5 Q548 636 567.5 611.5 Q587 587 598 562 L598 138 Q587 113 567.5 88.5 Q548 64 519 44.5 Q490 25 452 12.5 Q414 0 365 0 L75 0 L75 297 L32 297 L32 414 L75 414 L75 700 L365 700 Z M440 523 Q429 548 402 564 Q375 580 333 580 L233 580 L233 414 L348 414 L348 297 L233 297 L233 120 L333 120 Q375 120 402 136 Q429 152 440 177 L440 523 Z " />
<glyph glyph-name="Egrave" unicode="&#xc8;" horiz-adv-x="538" d="M216 579 L216 419 L474 419 L474 298 L216 298 L216 121 L499 121 L499 0 L58 0 L58 700 L492 700 L492 579 L216 579 Z M333 747 L228 747 L148 844 L148 907 L278 907 L333 762 L333 747 Z " />
<glyph glyph-name="Eacute" unicode="&#xc9;" horiz-adv-x="538" d="M216 579 L216 419 L474 419 L474 298 L216 298 L216 121 L499 121 L499 0 L58 0 L58 700 L492 700 L492 579 L216 579 Z M308 747 L203 747 L203 762 L256 907 L389 907 L389 844 L308 747 Z " />
<glyph glyph-name="Ecircumflex" unicode="&#xca;" horiz-adv-x="538" d="M216 579 L216 419 L474 419 L474 298 L216 298 L216 121 L499 121 L499 0 L58 0 L58 700 L492 700 L492 579 L216 579 Z M443 747 L339 747 L270 842 L200 747 L96 747 L96 762 L176 907 L364 907 L443 762 L443 747 Z " />
<glyph glyph-name="Ecaron" unicode="&#x11a;" horiz-adv-x="538" d="M216 579 L216 419 L474 419 L474 298 L216 298 L216 121 L499 121 L499 0 L58 0 L58 700 L492 700 L492 579 L216 579 Z M364 747 L176 747 L96 891 L96 907 L200 907 L270 811 L339 907 L443 907 L443 891 L364 747 Z " />
<glyph glyph-name="Edieresis" unicode="&#xcb;" horiz-adv-x="538" d="M216 579 L216 419 L474 419 L474 298 L216 298 L216 121 L499 121 L499 0 L58 0 L58 700 L492 700 L492 579 L216 579 Z M161 889 Q194 889 210.5 878.5 Q227 868 232 861 L232 780 Q227 773 210.5 762 Q194 751 161 751 Q129 751 112.5 762 Q96 773 90 780 L90 861 Q96 868 112.5 878.5 Q129 889 161 889 Z M378 889 Q411 889 427.5 878.5 Q444 868 449 861 L449 780 Q444 773 427.5 762 Q411 751 378 751 Q346 751 329.5 762 Q313 773 307 780 L307 861 Q313 868 329.5 878.5 Q346 889 378 889 Z " />
<glyph glyph-name="Emacron" unicode="&#x112;" horiz-adv-x="538" d="M216 579 L216 419 L474 419 L474 298 L216 298 L216 121 L499 121 L499 0 L58 0 L58 700 L492 700 L492 579 L216 579 Z M98 760 L98 858 L442 858 L442 760 L98 760 Z " />
<glyph glyph-name="Ebreve" unicode="&#x114;" horiz-adv-x="538" d="M216 579 L216 419 L474 419 L474 298 L216 298 L216 121 L499 121 L499 0 L58 0 L58 700 L492 700 L492 579 L216 579 Z M441 828 Q423 790 381 764.5 Q339 739 270 739 Q201 739 158.5 764.5 Q116 790 98 828 L98 888 L205 888 L205 850 Q209 842 224 829.5 Q239 817 270 817 Q301 817 315.5 829.5 Q330 842 334 850 L334 888 L441 888 L441 828 Z " />
<glyph glyph-name="Edotaccent" unicode="&#x116;" horiz-adv-x="538" d="M216 579 L216 419 L474 419 L474 298 L216 298 L216 121 L499 121 L499 0 L58 0 L58 700 L492 700 L492 579 L216 579 Z M270 898 Q304 898 323 885 Q342 872 348 858 L348 796 Q342 781 323 768.5 Q304 756 270 756 Q237 756 217.5 768.5 Q198 781 191 796 L191 858 Q198 872 217.5 885 Q237 898 270 898 Z " />
<glyph glyph-name="Eogonek" unicode="&#x118;" horiz-adv-x="538" d="M499 0 Q451 -40 432.5 -63.5 Q414 -87 409 -100 L409 -124 Q414 -131 426 -135.5 Q438 -140 453 -140 Q463 -140 474 -138.5 Q485 -137 499 -132 L499 -211 Q487 -217 469.5 -221 Q452 -225 423 -225 Q385 -225 351 -213.5 Q317 -202 303 -173 L303 -95 Q311 -78 331.5 -52 Q352 -26 385 0 L58 0 L58 700 L492 700 L492 579 L216 579 L216 419 L474 419 L474 298 L216 298 L216 121 L499 121 L499 0 Z " />
<glyph glyph-name="Gcircumflex" unicode="&#x11c;" horiz-adv-x="628" d="M315 592 Q272 592 244.5 573 Q217 554 206 530 L206 171 Q217 146 245 127.5 Q273 109 316 109 Q361 109 387 126.5 Q413 144 425 167 L425 272 L321 272 L321 391 L572 391 L572 0 L448 0 L448 49 Q422 22 383.5 3.5 Q345 -15 285 -15 Q234 -15 194.5 0 Q155 15 126 37.5 Q97 60 78 87 Q59 114 48 139 L48 562 Q59 586 79.5 613 Q100 640 132.5 662.5 Q165 685 209.5 700 Q254 715 313 715 Q372 715 416 700.5 Q460 686 491 665 Q522 644 541.5 619.5 Q561 595 572 574 L572 500 L436 500 Q425 539 395.5 565.5 Q366 592 315 592 Z M487 747 L383 747 L314 842 L244 747 L140 747 L140 762 L220 907 L408 907 L487 762 L487 747 Z " />
<glyph glyph-name="Gbreve" unicode="&#x11e;" horiz-adv-x="628" d="M315 592 Q272 592 244.5 573 Q217 554 206 530 L206 171 Q217 146 245 127.5 Q273 109 316 109 Q361 109 387 126.5 Q413 144 425 167 L425 272 L321 272 L321 391 L572 391 L572 0 L448 0 L448 49 Q422 22 383.5 3.5 Q345 -15 285 -15 Q234 -15 194.5 0 Q155 15 126 37.5 Q97 60 78 87 Q59 114 48 139 L48 562 Q59 586 79.5 613 Q100 640 132.5 662.5 Q165 685 209.5 700 Q254 715 313 715 Q372 715 416 700.5 Q460 686 491 665 Q522 644 541.5 619.5 Q561 595 572 574 L572 500 L436 500 Q425 539 395.5 565.5 Q366 592 315 592 Z M485 828 Q467 790 425 764.5 Q383 739 314 739 Q245 739 202.5 764.5 Q160 790 142 828 L142 888 L249 888 L249 850 Q253 842 268 829.5 Q283 817 314 817 Q345 817 359.5 829.5 Q374 842 378 850 L378 888 L485 888 L485 828 Z " />
<glyph glyph-name="Gdotaccent" unicode="&#x120;" horiz-adv-x="628" d="M315 592 Q272 592 244.5 573 Q217 554 206 530 L206 171 Q217 146 245 127.5 Q273 109 316 109 Q361 109 387 126.5 Q413 144 425 167 L425 272 L321 272 L321 391 L572 391 L572 0 L448 0 L448 49 Q422 22 383.5 3.5 Q345 -15 285 -15 Q234 -15 194.5 0 Q155 15 126 37.5 Q97 60 78 87 Q59 114 48 139 L48 562 Q59 586 79.5 613 Q100 640 132.5 662.5 Q165 685 209.5 700 Q254 715 313 715 Q372 715 416 700.5 Q460 686 491 665 Q522 644 541.5 619.5 Q561 595 572 574 L572 500 L436 500 Q425 539 395.5 565.5 Q366 592 315 592 Z M314 898 Q348 898 367 885 Q386 872 392 858 L392 796 Q386 781 367 768.5 Q348 756 314 756 Q281 756 261.5 768.5 Q242 781 235 796 L235 858 Q242 872 261.5 885 Q281 898 314 898 Z " />
<glyph glyph-name="Gcommaaccent" unicode="&#x122;" horiz-adv-x="628" d="M315 592 Q272 592 244.5 573 Q217 554 206 530 L206 171 Q217 146 245 127.5 Q273 109 316 109 Q361 109 387 126.5 Q413 144 425 167 L425 272 L321 272 L321 391 L572 391 L572 0 L448 0 L448 49 Q422 22 383.5 3.5 Q345 -15 285 -15 Q234 -15 194.5 0 Q155 15 126 37.5 Q97 60 78 87 Q59 114 48 139 L48 562 Q59 586 79.5 613 Q100 640 132.5 662.5 Q165 685 209.5 700 Q254 715 313 715 Q372 715 416 700.5 Q460 686 491 665 Q522 644 541.5 619.5 Q561 595 572 574 L572 500 L436 500 Q425 539 395.5 565.5 Q366 592 315 592 Z M314 -50 Q347 -50 365 -57.5 Q383 -65 389 -72 L389 -178 Q386 -186 379.5 -196 Q373 -206 361 -214.5 Q349 -223 332 -228.5 Q315 -234 293 -234 L245 -234 L245 -188 L280 -188 Q292 -188 302 -185 Q312 -182 317 -174 L317 -152 L314 -152 Q282 -152 263 -146.5 Q244 -141 239 -133 L239 -72 Q244 -65 263 -57.5 Q282 -50 314 -50 Z " />
<glyph glyph-name="Hcircumflex" unicode="&#x124;" horiz-adv-x="655" d="M439 0 L439 300 L216 300 L216 0 L58 0 L58 700 L216 700 L216 421 L439 421 L439 700 L597 700 L597 0 L439 0 Z M501 747 L397 747 L328 842 L258 747 L154 747 L154 762 L234 907 L422 907 L501 762 L501 747 Z " />
<glyph glyph-name="Hbar" unicode="&#x126;" horiz-adv-x="655" d="M597 536 L597 0 L439 0 L439 300 L216 300 L216 0 L58 0 L58 536 L25 536 L25 630 L58 630 L58 700 L216 700 L216 630 L439 630 L439 700 L597 700 L597 630 L633 630 L633 536 L597 536 Z M216 536 L216 421 L439 421 L439 536 L216 536 Z " />
<glyph glyph-name="Igrave" unicode="&#xcc;" horiz-adv-x="274" d="M58 0 L58 700 L216 700 L216 0 L58 0 Z M200 747 L95 747 L15 844 L15 907 L145 907 L200 762 L200 747 Z " />
<glyph glyph-name="Iacute" unicode="&#xcd;" horiz-adv-x="274" d="M58 0 L58 700 L216 700 L216 0 L58 0 Z M175 747 L70 747 L70 762 L123 907 L256 907 L256 844 L175 747 Z " />
<glyph glyph-name="Icircumflex" unicode="&#xce;" horiz-adv-x="274" d="M58 0 L58 700 L216 700 L216 0 L58 0 Z M310 747 L206 747 L137 842 L67 747 L-37 747 L-37 762 L43 907 L231 907 L310 762 L310 747 Z " />
<glyph glyph-name="Itilde" unicode="&#x128;" horiz-adv-x="274" d="M58 0 L58 700 L216 700 L216 0 L58 0 Z M65 888 Q92 888 110 880 Q128 872 142 863 Q156 854 168 846 Q180 838 195 838 Q223 839 228 863 L228 883 L314 883 L314 824 Q307 794 280 770.5 Q253 747 208 747 Q180 747 162 755 Q144 763 130.5 772 Q117 781 105.5 789 Q94 797 79 797 Q65 797 56 789 Q47 781 45 772 L45 752 L-40 752 L-40 810 Q-33 842 -5.5 865 Q22 888 65 888 Z " />
<glyph glyph-name="Idieresis" unicode="&#xcf;" horiz-adv-x="274" d="M58 0 L58 700 L216 700 L216 0 L58 0 Z M28 889 Q61 889 77.5 878.5 Q94 868 99 861 L99 780 Q94 773 77.5 762 Q61 751 28 751 Q-4 751 -20.5 762 Q-37 773 -43 780 L-43 861 Q-37 868 -20.5 878.5 Q-4 889 28 889 Z M245 889 Q278 889 294.5 878.5 Q311 868 316 861 L316 780 Q311 773 294.5 762 Q278 751 245 751 Q213 751 196.5 762 Q180 773 174 780 L174 861 Q180 868 196.5 878.5 Q213 889 245 889 Z " />
<glyph glyph-name="Imacron" unicode="&#x12a;" horiz-adv-x="274" d="M58 0 L58 700 L216 700 L216 0 L58 0 Z M-35 760 L-35 858 L309 858 L309 760 L-35 760 Z " />
<glyph glyph-name="Ibreve" unicode="&#x12c;" horiz-adv-x="274" d="M58 0 L58 700 L216 700 L216 0 L58 0 Z M308 828 Q290 790 248 764.5 Q206 739 137 739 Q68 739 25.5 764.5 Q-17 790 -35 828 L-35 888 L72 888 L72 850 Q76 842 91 829.5 Q106 817 137 817 Q168 817 182.5 829.5 Q197 842 201 850 L201 888 L308 888 L308 828 Z " />
<glyph glyph-name="Iogonek" unicode="&#x12e;" horiz-adv-x="274" d="M216 0 Q172 -37 151.5 -63 Q131 -89 126 -100 L126 -124 Q131 -131 143 -135.5 Q155 -140 170 -140 Q180 -140 191 -138.5 Q202 -137 216 -132 L216 -211 Q204 -217 186.5 -221 Q169 -225 140 -225 Q102 -225 68.5 -213.5 Q35 -202 21 -173 L21 -95 Q29 -78 49 -52 Q69 -26 103 0 L58 0 L58 700 L216 700 L216 0 Z " />
<glyph glyph-name="IJ" unicode="&#x132;" horiz-adv-x="661" d="M58 0 L58 700 L216 700 L216 0 L58 0 Z M606 139 Q592 109 570.5 83 Q549 57 518.5 38.5 Q488 20 447 9 Q406 -2 352 -2 Q332 -2 317 -1.5 Q302 -1 294 0 L294 120 L340 120 Q382 120 409.5 135.5 Q437 151 448 178 L448 700 L606 700 L606 139 Z " />
<glyph glyph-name="Jcircumflex" unicode="&#x134;" horiz-adv-x="387" d="M332 139 Q318 109 296.5 83 Q275 57 244.5 38.5 Q214 20 173 9 Q132 -2 78 -2 Q58 -2 43 -1.5 Q28 -1 20 0 L20 120 L66 120 Q108 120 135.5 135.5 Q163 151 174 178 L174 700 L332 700 L332 139 Z M425 747 L321 747 L252 842 L182 747 L78 747 L78 762 L158 907 L346 907 L425 762 L425 747 Z " />
<glyph glyph-name="Kcommaaccent" unicode="&#x136;" horiz-adv-x="617" d="M588 0 L463 0 L279 299 L216 229 L216 0 L58 0 L58 700 L216 700 L216 427 L453 700 L562 700 L562 612 L382 413 L588 88 L588 0 Z M309 -50 Q342 -50 360 -57.5 Q378 -65 384 -72 L384 -178 Q381 -186 374.5 -196 Q368 -206 356 -214.5 Q344 -223 327 -228.5 Q310 -234 288 -234 L240 -234 L240 -188 L275 -188 Q287 -188 297 -185 Q307 -182 312 -174 L312 -152 L309 -152 Q277 -152 258 -146.5 Q239 -141 234 -133 L234 -72 Q239 -65 258 -57.5 Q277 -50 309 -50 Z " />
<glyph glyph-name="Lacute" unicode="&#x139;" horiz-adv-x="458" d="M437 121 L437 0 L58 0 L58 700 L216 700 L216 121 L437 121 Z M187 747 L82 747 L82 762 L135 907 L268 907 L268 844 L187 747 Z " />
<glyph glyph-name="Lcaron" unicode="&#x13d;" horiz-adv-x="458" d="M437 121 L437 0 L58 0 L58 700 L216 700 L216 121 L437 121 Z M374 491 L286 491 L286 506 L306 700 L422 700 L422 625 L374 491 Z " />
<glyph glyph-name="Lcommaaccent" unicode="&#x13b;" horiz-adv-x="458" d="M437 121 L437 0 L58 0 L58 700 L216 700 L216 121 L437 121 Z M230 -50 Q263 -50 281 -57.5 Q299 -65 305 -72 L305 -178 Q302 -186 295.5 -196 Q289 -206 277 -214.5 Q265 -223 248 -228.5 Q231 -234 209 -234 L161 -234 L161 -188 L196 -188 Q208 -188 218 -185 Q228 -182 233 -174 L233 -152 L230 -152 Q198 -152 179 -146.5 Q160 -141 155 -133 L155 -72 Q160 -65 179 -57.5 Q198 -50 230 -50 Z " />
<glyph glyph-name="Lslash" unicode="&#x141;" horiz-adv-x="493" d="M472 0 L93 0 L93 188 L24 152 L24 270 L93 306 L93 700 L251 700 L251 388 L387 458 L387 341 L251 270 L251 121 L472 121 L472 0 Z " />
<glyph glyph-name="Ldot" unicode="&#x13f;" horiz-adv-x="481" d="M437 121 L437 0 L58 0 L58 700 L216 700 L216 121 L437 121 Z M459 427 L459 351 Q453 335 432.5 323 Q412 311 381 311 Q351 311 331 323 Q311 335 303 351 L303 427 Q311 444 331 456 Q351 468 381 468 Q412 468 432.5 455.5 Q453 443 459 427 Z " />
<glyph glyph-name="Nacute" unicode="&#x143;" horiz-adv-x="668" d="M431 0 L208 465 L205 465 L205 0 L58 0 L58 700 L237 700 L460 235 L463 235 L463 700 L610 700 L610 0 L431 0 Z M377 747 L272 747 L272 762 L325 907 L458 907 L458 844 L377 747 Z " />
<glyph glyph-name="Ncaron" unicode="&#x147;" horiz-adv-x="668" d="M431 0 L208 465 L205 465 L205 0 L58 0 L58 700 L237 700 L460 235 L463 235 L463 700 L610 700 L610 0 L431 0 Z M434 747 L246 747 L166 891 L166 907 L270 907 L340 811 L409 907 L513 907 L513 891 L434 747 Z " />
<glyph glyph-name="Ntilde" unicode="&#xd1;" horiz-adv-x="668" d="M431 0 L208 465 L205 465 L205 0 L58 0 L58 700 L237 700 L460 235 L463 235 L463 700 L610 700 L610 0 L431 0 Z M268 888 Q295 888 313 880 Q331 872 345 863 Q359 854 371 846 Q383 838 398 838 Q426 839 431 863 L431 883 L517 883 L517 824 Q510 794 483 770.5 Q456 747 411 747 Q383 747 365 755 Q347 763 333.5 772 Q320 781 308.5 789 Q297 797 282 797 Q268 797 259 789 Q250 781 248 772 L248 752 L163 752 L163 810 Q170 842 197.5 865 Q225 888 268 888 Z " />
<glyph glyph-name="Ncommaaccent" unicode="&#x145;" horiz-adv-x="668" d="M431 0 L208 465 L205 465 L205 0 L58 0 L58 700 L237 700 L460 235 L463 235 L463 700 L610 700 L610 0 L431 0 Z M334 -50 Q367 -50 385 -57.5 Q403 -65 409 -72 L409 -178 Q406 -186 399.5 -196 Q393 -206 381 -214.5 Q369 -223 352 -228.5 Q335 -234 313 -234 L265 -234 L265 -188 L300 -188 Q312 -188 322 -185 Q332 -182 337 -174 L337 -152 L334 -152 Q302 -152 283 -146.5 Q264 -141 259 -133 L259 -72 Q264 -65 283 -57.5 Q302 -50 334 -50 Z " />
<glyph glyph-name="Ograve" unicode="&#xd2;" horiz-adv-x="626" d="M313 715 Q372 715 416.5 700 Q461 685 493.5 662.5 Q526 640 546.5 613 Q567 586 578 562 L578 139 Q567 114 546.5 87 Q526 60 493.5 37.5 Q461 15 416.5 0 Q372 -15 313 -15 Q254 -15 209.5 0 Q165 15 132.5 37.5 Q100 60 79.5 87 Q59 114 48 139 L48 562 Q59 586 79.5 613 Q100 640 132.5 662.5 Q165 685 209.5 700 Q254 715 313 715 Z M313 592 Q271 592 244 573.5 Q217 555 206 530 L206 171 Q217 146 244 127.5 Q271 109 313 109 Q356 109 382.5 127.5 Q409 146 420 171 L420 530 Q409 555 382.5 573.5 Q356 592 313 592 Z M376 747 L271 747 L191 844 L191 907 L321 907 L376 762 L376 747 Z " />
<glyph glyph-name="Oacute" unicode="&#xd3;" horiz-adv-x="626" d="M313 715 Q372 715 416.5 700 Q461 685 493.5 662.5 Q526 640 546.5 613 Q567 586 578 562 L578 139 Q567 114 546.5 87 Q526 60 493.5 37.5 Q461 15 416.5 0 Q372 -15 313 -15 Q254 -15 209.5 0 Q165 15 132.5 37.5 Q100 60 79.5 87 Q59 114 48 139 L48 562 Q59 586 79.5 613 Q100 640 132.5 662.5 Q165 685 209.5 700 Q254 715 313 715 Z M313 592 Q271 592 244 573.5 Q217 555 206 530 L206 171 Q217 146 244 127.5 Q271 109 313 109 Q356 109 382.5 127.5 Q409 146 420 171 L420 530 Q409 555 382.5 573.5 Q356 592 313 592 Z M350 747 L245 747 L245 762 L298 907 L431 907 L431 844 L350 747 Z " />
<glyph glyph-name="Ocircumflex" unicode="&#xd4;" horiz-adv-x="626" d="M313 715 Q372 715 416.5 700 Q461 685 493.5 662.5 Q526 640 546.5 613 Q567 586 578 562 L578 139 Q567 114 546.5 87 Q526 60 493.5 37.5 Q461 15 416.5 0 Q372 -15 313 -15 Q254 -15 209.5 0 Q165 15 132.5 37.5 Q100 60 79.5 87 Q59 114 48 139 L48 562 Q59 586 79.5 613 Q100 640 132.5 662.5 Q165 685 209.5 700 Q254 715 313 715 Z M313 592 Q271 592 244 573.5 Q217 555 206 530 L206 171 Q217 146 244 127.5 Q271 109 313 109 Q356 109 382.5 127.5 Q409 146 420 171 L420 530 Q409 555 382.5 573.5 Q356 592 313 592 Z M486 747 L382 747 L313 842 L243 747 L139 747 L139 762 L219 907 L407 907 L486 762 L486 747 Z " />
<glyph glyph-name="Otilde" unicode="&#xd5;" horiz-adv-x="626" d="M313 715 Q372 715 416.5 700 Q461 685 493.5 662.5 Q526 640 546.5 613 Q567 586 578 562 L578 139 Q567 114 546.5 87 Q526 60 493.5 37.5 Q461 15 416.5 0 Q372 -15 313 -15 Q254 -15 209.5 0 Q165 15 132.5 37.5 Q100 60 79.5 87 Q59 114 48 139 L48 562 Q59 586 79.5 613 Q100 640 132.5 662.5 Q165 685 209.5 700 Q254 715 313 715 Z M313 592 Q271 592 244 573.5 Q217 555 206 530 L206 171 Q217 146 244 127.5 Q271 109 313 109 Q356 109 382.5 127.5 Q409 146 420 171 L420 530 Q409 555 382.5 573.5 Q356 592 313 592 Z M241 888 Q268 888 286 880 Q304 872 318 863 Q332 854 344 846 Q356 838 371 838 Q399 839 404 863 L404 883 L490 883 L490 824 Q483 794 456 770.5 Q429 747 384 747 Q356 747 338 755 Q320 763 306.5 772 Q293 781 281.5 789 Q270 797 255 797 Q241 797 232 789 Q223 781 221 772 L221 752 L136 752 L136 810 Q143 842 170.5 865 Q198 888 241 888 Z " />
<glyph glyph-name="Odieresis" unicode="&#xd6;" horiz-adv-x="626" d="M313 715 Q372 715 416.5 700 Q461 685 493.5 662.5 Q526 640 546.5 613 Q567 586 578 562 L578 139 Q567 114 546.5 87 Q526 60 493.5 37.5 Q461 15 416.5 0 Q372 -15 313 -15 Q254 -15 209.5 0 Q165 15 132.5 37.5 Q100 60 79.5 87 Q59 114 48 139 L48 562 Q59 586 79.5 613 Q100 640 132.5 662.5 Q165 685 209.5 700 Q254 715 313 715 Z M313 592 Q271 592 244 573.5 Q217 555 206 530 L206 171 Q217 146 244 127.5 Q271 109 313 109 Q356 109 382.5 127.5 Q409 146 420 171 L420 530 Q409 555 382.5 573.5 Q356 592 313 592 Z M204 889 Q237 889 253.5 878.5 Q270 868 275 861 L275 780 Q270 773 253.5 762 Q237 751 204 751 Q172 751 155.5 762 Q139 773 133 780 L133 861 Q139 868 155.5 878.5 Q172 889 204 889 Z M421 889 Q454 889 470.5 878.5 Q487 868 492 861 L492 780 Q487 773 470.5 762 Q454 751 421 751 Q389 751 372.5 762 Q356 773 350 780 L350 861 Q356 868 372.5 878.5 Q389 889 421 889 Z " />
<glyph glyph-name="Omacron" unicode="&#x14c;" horiz-adv-x="626" d="M313 715 Q372 715 416.5 700 Q461 685 493.5 662.5 Q526 640 546.5 613 Q567 586 578 562 L578 139 Q567 114 546.5 87 Q526 60 493.5 37.5 Q461 15 416.5 0 Q372 -15 313 -15 Q254 -15 209.5 0 Q165 15 132.5 37.5 Q100 60 79.5 87 Q59 114 48 139 L48 562 Q59 586 79.5 613 Q100 640 132.5 662.5 Q165 685 209.5 700 Q254 715 313 715 Z M313 592 Q271 592 244 573.5 Q217 555 206 530 L206 171 Q217 146 244 127.5 Q271 109 313 109 Q356 109 382.5 127.5 Q409 146 420 171 L420 530 Q409 555 382.5 573.5 Q356 592 313 592 Z M140 760 L140 858 L484 858 L484 760 L140 760 Z " />
<glyph glyph-name="Obreve" unicode="&#x14e;" horiz-adv-x="626" d="M313 715 Q372 715 416.5 700 Q461 685 493.5 662.5 Q526 640 546.5 613 Q567 586 578 562 L578 139 Q567 114 546.5 87 Q526 60 493.5 37.5 Q461 15 416.5 0 Q372 -15 313 -15 Q254 -15 209.5 0 Q165 15 132.5 37.5 Q100 60 79.5 87 Q59 114 48 139 L48 562 Q59 586 79.5 613 Q100 640 132.5 662.5 Q165 685 209.5 700 Q254 715 313 715 Z M313 592 Q271 592 244 573.5 Q217 555 206 530 L206 171 Q217 146 244 127.5 Q271 109 313 109 Q356 109 382.5 127.5 Q409 146 420 171 L420 530 Q409 555 382.5 573.5 Q356 592 313 592 Z M484 828 Q466 790 424 764.5 Q382 739 313 739 Q244 739 201.5 764.5 Q159 790 141 828 L141 888 L248 888 L248 850 Q252 842 267 829.5 Q282 817 313 817 Q344 817 358.5 829.5 Q373 842 377 850 L377 888 L484 888 L484 828 Z " />
<glyph glyph-name="Ohungarumlaut" unicode="&#x150;" horiz-adv-x="626" d="M313 715 Q372 715 416.5 700 Q461 685 493.5 662.5 Q526 640 546.5 613 Q567 586 578 562 L578 139 Q567 114 546.5 87 Q526 60 493.5 37.5 Q461 15 416.5 0 Q372 -15 313 -15 Q254 -15 209.5 0 Q165 15 132.5 37.5 Q100 60 79.5 87 Q59 114 48 139 L48 562 Q59 586 79.5 613 Q100 640 132.5 662.5 Q165 685 209.5 700 Q254 715 313 715 Z M313 592 Q271 592 244 573.5 Q217 555 206 530 L206 171 Q217 146 244 127.5 Q271 109 313 109 Q356 109 382.5 127.5 Q409 146 420 171 L420 530 Q409 555 382.5 573.5 Q356 592 313 592 Z M263 747 L168 747 L168 762 L206 906 L319 906 L319 855 L263 747 Z M457 747 L363 747 L363 762 L401 906 L514 906 L514 855 L457 747 Z " />
<glyph glyph-name="Oslash" unicode="&#xd8;" horiz-adv-x="626" d="M550 609 Q559 597 566 585 Q573 573 578 562 L578 139 Q567 114 546.5 87 Q526 60 493.5 37.5 Q461 15 416.5 0 Q372 -15 313 -15 Q256 -15 213.5 -1.5 Q171 12 139 33 L115 0 L48 0 L48 52 L76 91 Q59 114 48 139 L48 562 Q59 586 79.5 613 Q100 640 132.5 662.5 Q165 685 209.5 700 Q254 715 313 715 Q370 715 412.5 701.5 Q455 688 487 667 L511 700 L578 700 L578 648 L550 609 Z M406 553 Q392 570 368.5 581 Q345 592 313 592 Q271 592 244 573.5 Q217 555 206 530 L206 273 L406 553 Z M221 148 Q235 131 258 120 Q281 109 313 109 Q356 109 382.5 127.5 Q409 146 420 171 L420 427 L221 148 Z " />
<glyph glyph-name="OE" unicode="&#x152;" horiz-adv-x="899" d="M860 0 L419 0 Q396 -7 369.5 -11 Q343 -15 312 -15 Q253 -15 209 0 Q165 15 132.5 37.5 Q100 60 79.5 87 Q59 114 48 139 L48 562 Q59 586 79.5 613 Q100 640 132 662.5 Q164 685 208.5 700 Q253 715 312 715 Q343 715 369.5 711 Q396 707 419 700 L853 700 L853 579 L577 579 L577 419 L835 419 L835 298 L577 298 L577 121 L860 121 L860 0 Z M312 109 Q355 109 381.5 127.5 Q408 146 419 171 L419 530 Q409 555 382 573.5 Q355 592 312 592 Q270 592 243.5 573.5 Q217 555 206 530 L206 171 Q216 146 243 127.5 Q270 109 312 109 Z " />
<glyph glyph-name="Racute" unicode="&#x154;" horiz-adv-x="607" d="M572 0 L447 0 L290 275 L216 275 L216 0 L58 0 L58 700 L352 700 Q418 700 473.5 669 Q529 638 561 581 L561 396 Q541 361 511.5 334.5 Q482 308 443 293 L572 88 L572 0 Z M316 388 Q384 388 411 438 L411 530 Q398 555 373 567.5 Q348 580 316 580 L216 580 L216 388 L316 388 Z M341 747 L236 747 L236 762 L289 907 L422 907 L422 844 L341 747 Z " />
<glyph glyph-name="Rcaron" unicode="&#x158;" horiz-adv-x="607" d="M572 0 L447 0 L290 275 L216 275 L216 0 L58 0 L58 700 L352 700 Q418 700 473.5 669 Q529 638 561 581 L561 396 Q541 361 511.5 334.5 Q482 308 443 293 L572 88 L572 0 Z M316 388 Q384 388 411 438 L411 530 Q398 555 373 567.5 Q348 580 316 580 L216 580 L216 388 L316 388 Z M398 747 L210 747 L130 891 L130 907 L234 907 L304 811 L373 907 L477 907 L477 891 L398 747 Z " />
<glyph glyph-name="Rcommaaccent" unicode="&#x156;" horiz-adv-x="607" d="M572 0 L447 0 L290 275 L216 275 L216 0 L58 0 L58 700 L352 700 Q418 700 473.5 669 Q529 638 561 581 L561 396 Q541 361 511.5 334.5 Q482 308 443 293 L572 88 L572 0 Z M316 388 Q384 388 411 438 L411 530 Q398 555 373 567.5 Q348 580 316 580 L216 580 L216 388 L316 388 Z M304 -50 Q337 -50 355 -57.5 Q373 -65 379 -72 L379 -178 Q376 -186 369.5 -196 Q363 -206 351 -214.5 Q339 -223 322 -228.5 Q305 -234 283 -234 L235 -234 L235 -188 L270 -188 Q282 -188 292 -185 Q302 -182 307 -174 L307 -152 L304 -152 Q272 -152 253 -146.5 Q234 -141 229 -133 L229 -72 Q234 -65 253 -57.5 Q272 -50 304 -50 Z " />
<glyph glyph-name="Sacute" unicode="&#x15a;" horiz-adv-x="592" d="M295 715 Q348 715 389.5 702.5 Q431 690 461.5 671 Q492 652 511.5 630.5 Q531 609 541 591 L541 517 L405 517 Q395 547 368.5 569.5 Q342 592 294 592 Q259 592 235 577.5 Q211 563 201 546 L201 474 Q208 461 223 451 Q238 441 278 430 L328 417 Q383 403 421 388 Q459 373 484 356.5 Q509 340 524 323.5 Q539 307 549 290 L549 119 Q538 101 519 77.5 Q500 54 469.5 33.5 Q439 13 395.5 -1 Q352 -15 294 -15 Q234 -15 190 -1 Q146 13 115 33.5 Q84 54 65 77 Q46 100 37 119 L37 193 L173 193 Q183 156 214 132.5 Q245 109 293 109 Q336 109 361 126.5 Q386 144 397 163 L397 235 Q388 252 369 264.5 Q350 277 310 288 L260 300 Q209 312 174 325.5 Q139 339 115 353.5 Q91 368 75.5 384 Q60 400 48 419 L48 591 Q58 609 77.5 630.5 Q97 652 127 670.5 Q157 689 199 702 Q241 715 295 715 Z M341 747 L236 747 L236 762 L289 907 L422 907 L422 844 L341 747 Z " />
<glyph glyph-name="Scircumflex" unicode="&#x15c;" horiz-adv-x="592" d="M295 715 Q348 715 389.5 702.5 Q431 690 461.5 671 Q492 652 511.5 630.5 Q531 609 541 591 L541 517 L405 517 Q395 547 368.5 569.5 Q342 592 294 592 Q259 592 235 577.5 Q211 563 201 546 L201 474 Q208 461 223 451 Q238 441 278 430 L328 417 Q383 403 421 388 Q459 373 484 356.5 Q509 340 524 323.5 Q539 307 549 290 L549 119 Q538 101 519 77.5 Q500 54 469.5 33.5 Q439 13 395.5 -1 Q352 -15 294 -15 Q234 -15 190 -1 Q146 13 115 33.5 Q84 54 65 77 Q46 100 37 119 L37 193 L173 193 Q183 156 214 132.5 Q245 109 293 109 Q336 109 361 126.5 Q386 144 397 163 L397 235 Q388 252 369 264.5 Q350 277 310 288 L260 300 Q209 312 174 325.5 Q139 339 115 353.5 Q91 368 75.5 384 Q60 400 48 419 L48 591 Q58 609 77.5 630.5 Q97 652 127 670.5 Q157 689 199 702 Q241 715 295 715 Z M477 747 L373 747 L304 842 L234 747 L130 747 L130 762 L210 907 L398 907 L477 762 L477 747 Z " />
<glyph glyph-name="Scaron" unicode="&#x160;" horiz-adv-x="592" d="M295 715 Q348 715 389.5 702.5 Q431 690 461.5 671 Q492 652 511.5 630.5 Q531 609 541 591 L541 517 L405 517 Q395 547 368.5 569.5 Q342 592 294 592 Q259 592 235 577.5 Q211 563 201 546 L201 474 Q208 461 223 451 Q238 441 278 430 L328 417 Q383 403 421 388 Q459 373 484 356.5 Q509 340 524 323.5 Q539 307 549 290 L549 119 Q538 101 519 77.5 Q500 54 469.5 33.5 Q439 13 395.5 -1 Q352 -15 294 -15 Q234 -15 190 -1 Q146 13 115 33.5 Q84 54 65 77 Q46 100 37 119 L37 193 L173 193 Q183 156 214 132.5 Q245 109 293 109 Q336 109 361 126.5 Q386 144 397 163 L397 235 Q388 252 369 264.5 Q350 277 310 288 L260 300 Q209 312 174 325.5 Q139 339 115 353.5 Q91 368 75.5 384 Q60 400 48 419 L48 591 Q58 609 77.5 630.5 Q97 652 127 670.5 Q157 689 199 702 Q241 715 295 715 Z M398 747 L210 747 L130 891 L130 907 L234 907 L304 811 L373 907 L477 907 L477 891 L398 747 Z " />
<glyph glyph-name="Scedilla" unicode="&#x15e;" horiz-adv-x="592" d="M328 417 Q383 403 421 388 Q459 373 484 356.5 Q509 340 524 323.5 Q539 307 549 290 L549 119 Q539 102 521.5 80.5 Q504 59 477 39 Q450 19 412 4.5 Q374 -10 323 -14 L312 -43 L320 -43 Q359 -43 379.5 -59 Q400 -75 408 -93 L408 -169 Q395 -196 363 -212 Q331 -228 286 -228 Q252 -228 225 -222.5 Q198 -217 184 -209 L206 -147 Q222 -152 240 -155.5 Q258 -159 277 -159 Q297 -159 309 -153 Q321 -147 325 -139 L325 -116 Q317 -100 279 -100 L218 -100 L248 -13 Q200 -7 164 8 Q128 23 102.5 42 Q77 61 61 81.5 Q45 102 37 119 L37 193 L173 193 Q183 156 214 132.5 Q245 109 293 109 Q336 109 361 126.5 Q386 144 397 163 L397 236 Q388 253 369 265.5 Q350 278 310 288 L260 300 Q209 312 174 325.5 Q139 339 115 353.5 Q91 368 75.5 384 Q60 400 48 419 L48 591 Q58 609 77.5 630.5 Q97 652 127 670.5 Q157 689 199 702 Q241 715 295 715 Q348 715 389.5 702.5 Q431 690 461.5 671 Q492 652 511.5 630.5 Q531 609 541 591 L541 517 L405 517 Q395 547 368.5 569.5 Q342 592 294 592 Q259 592 235 577.5 Q211 563 201 546 L201 474 Q208 461 223 451 Q238 441 278 430 L328 417 Z " />
<glyph glyph-name="Scommaaccent" unicode="&#x218;" horiz-adv-x="592" d="M295 715 Q348 715 389.5 702.5 Q431 690 461.5 671 Q492 652 511.5 630.5 Q531 609 541 591 L541 517 L405 517 Q395 547 368.5 569.5 Q342 592 294 592 Q259 592 235 577.5 Q211 563 201 546 L201 474 Q208 461 223 451 Q238 441 278 430 L328 417 Q383 403 421 388 Q459 373 484 356.5 Q509 340 524 323.5 Q539 307 549 290 L549 119 Q538 101 519 77.5 Q500 54 469.5 33.5 Q439 13 395.5 -1 Q352 -15 294 -15 Q234 -15 190 -1 Q146 13 115 33.5 Q84 54 65 77 Q46 100 37 119 L37 193 L173 193 Q183 156 214 132.5 Q245 109 293 109 Q336 109 361 126.5 Q386 144 397 163 L397 235 Q388 252 369 264.5 Q350 277 310 288 L260 300 Q209 312 174 325.5 Q139 339 115 353.5 Q91 368 75.5 384 Q60 400 48 419 L48 591 Q58 609 77.5 630.5 Q97 652 127 670.5 Q157 689 199 702 Q241 715 295 715 Z M293 -50 Q326 -50 344 -57.5 Q362 -65 368 -72 L368 -178 Q365 -186 358.5 -196 Q352 -206 340 -214.5 Q328 -223 311 -228.5 Q294 -234 272 -234 L224 -234 L224 -188 L259 -188 Q271 -188 281 -185 Q291 -182 296 -174 L296 -152 L293 -152 Q261 -152 242 -146.5 Q223 -141 218 -133 L218 -72 Q223 -65 242 -57.5 Q261 -50 293 -50 Z " />
<glyph glyph-name="Tcaron" unicode="&#x164;" horiz-adv-x="545" d="M352 579 L352 0 L194 0 L194 579 L25 579 L25 700 L520 700 L520 579 L352 579 Z M367 747 L179 747 L99 891 L99 907 L203 907 L273 811 L342 907 L446 907 L446 891 L367 747 Z " />
<glyph glyph-name="uni021A" unicode="&#x21a;" horiz-adv-x="545" d="M352 579 L352 0 L194 0 L194 579 L25 579 L25 700 L520 700 L520 579 L352 579 Z M273 -50 Q306 -50 324 -57.5 Q342 -65 348 -72 L348 -178 Q345 -186 338.5 -196 Q332 -206 320 -214.5 Q308 -223 291 -228.5 Q274 -234 252 -234 L204 -234 L204 -188 L239 -188 Q251 -188 261 -185 Q271 -182 276 -174 L276 -152 L273 -152 Q241 -152 222 -146.5 Q203 -141 198 -133 L198 -72 Q203 -65 222 -57.5 Q241 -50 273 -50 Z " />
<glyph glyph-name="Tbar" unicode="&#x166;" horiz-adv-x="545" d="M352 414 L470 414 L470 319 L352 319 L352 0 L194 0 L194 319 L77 319 L77 414 L194 414 L194 579 L25 579 L25 700 L520 700 L520 579 L352 579 L352 414 Z " />
<glyph glyph-name="Ugrave" unicode="&#xd9;" horiz-adv-x="640" d="M585 139 Q574 114 553.5 87 Q533 60 500.5 37.5 Q468 15 423.5 0 Q379 -15 320 -15 Q261 -15 216.5 0 Q172 15 139.5 37.5 Q107 60 86.5 87 Q66 114 55 139 L55 700 L213 700 L213 172 Q224 147 250.5 128.5 Q277 110 320 110 Q363 110 389 128.5 Q415 147 427 172 L427 700 L585 700 L585 139 Z M383 747 L278 747 L198 844 L198 907 L328 907 L383 762 L383 747 Z " />
<glyph glyph-name="Uacute" unicode="&#xda;" horiz-adv-x="640" d="M585 139 Q574 114 553.5 87 Q533 60 500.5 37.5 Q468 15 423.5 0 Q379 -15 320 -15 Q261 -15 216.5 0 Q172 15 139.5 37.5 Q107 60 86.5 87 Q66 114 55 139 L55 700 L213 700 L213 172 Q224 147 250.5 128.5 Q277 110 320 110 Q363 110 389 128.5 Q415 147 427 172 L427 700 L585 700 L585 139 Z M357 747 L252 747 L252 762 L305 907 L438 907 L438 844 L357 747 Z " />
<glyph glyph-name="Ucircumflex" unicode="&#xdb;" horiz-adv-x="640" d="M585 139 Q574 114 553.5 87 Q533 60 500.5 37.5 Q468 15 423.5 0 Q379 -15 320 -15 Q261 -15 216.5 0 Q172 15 139.5 37.5 Q107 60 86.5 87 Q66 114 55 139 L55 700 L213 700 L213 172 Q224 147 250.5 128.5 Q277 110 320 110 Q363 110 389 128.5 Q415 147 427 172 L427 700 L585 700 L585 139 Z M493 747 L389 747 L320 842 L250 747 L146 747 L146 762 L226 907 L414 907 L493 762 L493 747 Z " />
<glyph glyph-name="Utilde" unicode="&#x168;" horiz-adv-x="640" d="M585 139 Q574 114 553.5 87 Q533 60 500.5 37.5 Q468 15 423.5 0 Q379 -15 320 -15 Q261 -15 216.5 0 Q172 15 139.5 37.5 Q107 60 86.5 87 Q66 114 55 139 L55 700 L213 700 L213 172 Q224 147 250.5 128.5 Q277 110 320 110 Q363 110 389 128.5 Q415 147 427 172 L427 700 L585 700 L585 139 Z M248 888 Q275 888 293 880 Q311 872 325 863 Q339 854 351 846 Q363 838 378 838 Q406 839 411 863 L411 883 L497 883 L497 824 Q490 794 463 770.5 Q436 747 391 747 Q363 747 345 755 Q327 763 313.5 772 Q300 781 288.5 789 Q277 797 262 797 Q248 797 239 789 Q230 781 228 772 L228 752 L143 752 L143 810 Q150 842 177.5 865 Q205 888 248 888 Z " />
<glyph glyph-name="Udieresis" unicode="&#xdc;" horiz-adv-x="640" d="M585 139 Q574 114 553.5 87 Q533 60 500.5 37.5 Q468 15 423.5 0 Q379 -15 320 -15 Q261 -15 216.5 0 Q172 15 139.5 37.5 Q107 60 86.5 87 Q66 114 55 139 L55 700 L213 700 L213 172 Q224 147 250.5 128.5 Q277 110 320 110 Q363 110 389 128.5 Q415 147 427 172 L427 700 L585 700 L585 139 Z M211 889 Q244 889 260.5 878.5 Q277 868 282 861 L282 780 Q277 773 260.5 762 Q244 751 211 751 Q179 751 162.5 762 Q146 773 140 780 L140 861 Q146 868 162.5 878.5 Q179 889 211 889 Z M428 889 Q461 889 477.5 878.5 Q494 868 499 861 L499 780 Q494 773 477.5 762 Q461 751 428 751 Q396 751 379.5 762 Q363 773 357 780 L357 861 Q363 868 379.5 878.5 Q396 889 428 889 Z " />
<glyph glyph-name="Umacron" unicode="&#x16a;" horiz-adv-x="640" d="M585 139 Q574 114 553.5 87 Q533 60 500.5 37.5 Q468 15 423.5 0 Q379 -15 320 -15 Q261 -15 216.5 0 Q172 15 139.5 37.5 Q107 60 86.5 87 Q66 114 55 139 L55 700 L213 700 L213 172 Q224 147 250.5 128.5 Q277 110 320 110 Q363 110 389 128.5 Q415 147 427 172 L427 700 L585 700 L585 139 Z M147 760 L147 858 L491 858 L491 760 L147 760 Z " />
<glyph glyph-name="Ubreve" unicode="&#x16c;" horiz-adv-x="640" d="M585 139 Q574 114 553.5 87 Q533 60 500.5 37.5 Q468 15 423.5 0 Q379 -15 320 -15 Q261 -15 216.5 0 Q172 15 139.5 37.5 Q107 60 86.5 87 Q66 114 55 139 L55 700 L213 700 L213 172 Q224 147 250.5 128.5 Q277 110 320 110 Q363 110 389 128.5 Q415 147 427 172 L427 700 L585 700 L585 139 Z M491 828 Q473 790 431 764.5 Q389 739 320 739 Q251 739 208.5 764.5 Q166 790 148 828 L148 888 L255 888 L255 850 Q259 842 274 829.5 Q289 817 320 817 Q351 817 365.5 829.5 Q380 842 384 850 L384 888 L491 888 L491 828 Z " />
<glyph glyph-name="Uring" unicode="&#x16e;" horiz-adv-x="640" d="M585 139 Q574 114 553.5 87 Q533 60 500.5 37.5 Q468 15 423.5 0 Q379 -15 320 -15 Q261 -15 216.5 0 Q172 15 139.5 37.5 Q107 60 86.5 87 Q66 114 55 139 L55 700 L213 700 L213 172 Q224 147 250.5 128.5 Q277 110 320 110 Q363 110 389 128.5 Q415 147 427 172 L427 700 L585 700 L585 139 Z M320 897 Q364 897 397 879.5 Q430 862 445 834 L445 742 Q430 715 397 697.5 Q364 680 320 680 Q275 680 242 697.5 Q209 715 195 742 L195 834 Q209 862 242 879.5 Q275 897 320 897 Z M320 838 Q295 838 281.5 830 Q268 822 263 814 L263 763 Q268 755 281.5 747 Q295 739 320 739 Q344 739 357.5 747 Q371 755 376 763 L376 814 Q371 822 357.5 830 Q344 838 320 838 Z " />
<glyph glyph-name="Uhungarumlaut" unicode="&#x170;" horiz-adv-x="640" d="M585 139 Q574 114 553.5 87 Q533 60 500.5 37.5 Q468 15 423.5 0 Q379 -15 320 -15 Q261 -15 216.5 0 Q172 15 139.5 37.5 Q107 60 86.5 87 Q66 114 55 139 L55 700 L213 700 L213 172 Q224 147 250.5 128.5 Q277 110 320 110 Q363 110 389 128.5 Q415 147 427 172 L427 700 L585 700 L585 139 Z M270 747 L175 747 L175 762 L213 906 L326 906 L326 855 L270 747 Z M464 747 L370 747 L370 762 L408 906 L521 906 L521 855 L464 747 Z " />
<glyph glyph-name="Uogonek" unicode="&#x172;" horiz-adv-x="640" d="M585 139 Q575 117 559.5 95.5 Q544 74 518 49 Q493 25 472.5 1.5 Q452 -22 437 -42.5 Q422 -63 412.5 -78.5 Q403 -94 401 -100 L401 -124 Q406 -131 418 -135.5 Q430 -140 444 -140 Q455 -140 466 -138.5 Q477 -137 491 -132 L491 -211 Q479 -217 461.5 -221 Q444 -225 415 -225 Q376 -225 342.5 -213.5 Q309 -202 295 -173 L295 -95 Q302 -81 319 -58 Q336 -35 362 -12 Q342 -15 320 -15 Q261 -15 216.5 0 Q172 15 139.5 37.5 Q107 60 86.5 87 Q66 114 55 139 L55 700 L213 700 L213 172 Q224 147 250.5 128.5 Q277 110 320 110 Q363 110 389 128.5 Q415 147 427 172 L427 700 L585 700 L585 139 Z " />
<glyph glyph-name="Wgrave" unicode="&#x1e80;" horiz-adv-x="919" d="M767 0 L565 0 L460 444 L457 444 L353 0 L153 0 L31 612 L31 700 L179 700 L271 179 L274 179 L393 700 L534 700 L654 179 L657 179 L748 700 L888 700 L888 612 L767 0 Z M527 747 L422 747 L342 844 L342 907 L472 907 L527 762 L527 747 Z " />
<glyph glyph-name="Wacute" unicode="&#x1e82;" horiz-adv-x="919" d="M767 0 L565 0 L460 444 L457 444 L353 0 L153 0 L31 612 L31 700 L179 700 L271 179 L274 179 L393 700 L534 700 L654 179 L657 179 L748 700 L888 700 L888 612 L767 0 Z M501 747 L396 747 L396 762 L449 907 L582 907 L582 844 L501 747 Z " />
<glyph glyph-name="Wcircumflex" unicode="&#x174;" horiz-adv-x="919" d="M767 0 L565 0 L460 444 L457 444 L353 0 L153 0 L31 612 L31 700 L179 700 L271 179 L274 179 L393 700 L534 700 L654 179 L657 179 L748 700 L888 700 L888 612 L767 0 Z M637 747 L533 747 L464 842 L394 747 L290 747 L290 762 L370 907 L558 907 L637 762 L637 747 Z " />
<glyph glyph-name="Wdieresis" unicode="&#x1e84;" horiz-adv-x="919" d="M767 0 L565 0 L460 444 L457 444 L353 0 L153 0 L31 612 L31 700 L179 700 L271 179 L274 179 L393 700 L534 700 L654 179 L657 179 L748 700 L888 700 L888 612 L767 0 Z M355 889 Q388 889 404.5 878.5 Q421 868 426 861 L426 780 Q421 773 404.5 762 Q388 751 355 751 Q323 751 306.5 762 Q290 773 284 780 L284 861 Q290 868 306.5 878.5 Q323 889 355 889 Z M572 889 Q605 889 621.5 878.5 Q638 868 643 861 L643 780 Q638 773 621.5 762 Q605 751 572 751 Q540 751 523.5 762 Q507 773 501 780 L501 861 Q507 868 523.5 878.5 Q540 889 572 889 Z " />
<glyph glyph-name="Ygrave" unicode="&#x1ef2;" horiz-adv-x="580" d="M366 277 L366 0 L207 0 L207 293 L28 612 L28 700 L161 700 L293 435 L296 435 L427 700 L553 700 L553 612 L366 277 Z M353 747 L248 747 L168 844 L168 907 L298 907 L353 762 L353 747 Z " />
<glyph glyph-name="Yacute" unicode="&#xdd;" horiz-adv-x="580" d="M366 277 L366 0 L207 0 L207 293 L28 612 L28 700 L161 700 L293 435 L296 435 L427 700 L553 700 L553 612 L366 277 Z M328 747 L223 747 L223 762 L276 907 L409 907 L409 844 L328 747 Z " />
<glyph glyph-name="Ycircumflex" unicode="&#x176;" horiz-adv-x="580" d="M366 277 L366 0 L207 0 L207 293 L28 612 L28 700 L161 700 L293 435 L296 435 L427 700 L553 700 L553 612 L366 277 Z M463 747 L359 747 L290 842 L220 747 L116 747 L116 762 L196 907 L384 907 L463 762 L463 747 Z " />
<glyph glyph-name="Ydieresis" unicode="&#x178;" horiz-adv-x="580" d="M366 277 L366 0 L207 0 L207 293 L28 612 L28 700 L161 700 L293 435 L296 435 L427 700 L553 700 L553 612 L366 277 Z M181 889 Q214 889 230.5 878.5 Q247 868 252 861 L252 780 Q247 773 230.5 762 Q214 751 181 751 Q149 751 132.5 762 Q116 773 110 780 L110 861 Q116 868 132.5 878.5 Q149 889 181 889 Z M398 889 Q431 889 447.5 878.5 Q464 868 469 861 L469 780 Q464 773 447.5 762 Q431 751 398 751 Q366 751 349.5 762 Q333 773 327 780 L327 861 Q333 868 349.5 878.5 Q366 889 398 889 Z " />
<glyph glyph-name="Zacute" unicode="&#x179;" horiz-adv-x="558" d="M222 121 L522 121 L522 0 L36 0 L36 103 L334 579 L40 579 L40 700 L522 700 L522 597 L222 121 Z M316 747 L211 747 L211 762 L264 907 L397 907 L397 844 L316 747 Z " />
<glyph glyph-name="Zcaron" unicode="&#x17d;" horiz-adv-x="558" d="M222 121 L522 121 L522 0 L36 0 L36 103 L334 579 L40 579 L40 700 L522 700 L522 597 L222 121 Z M373 747 L185 747 L105 891 L105 907 L209 907 L279 811 L348 907 L452 907 L452 891 L373 747 Z " />
<glyph glyph-name="Zdotaccent" unicode="&#x17b;" horiz-adv-x="558" d="M222 121 L522 121 L522 0 L36 0 L36 103 L334 579 L40 579 L40 700 L522 700 L522 597 L222 121 Z M279 898 Q313 898 332 885 Q351 872 357 858 L357 796 Q351 781 332 768.5 Q313 756 279 756 Q246 756 226.5 768.5 Q207 781 200 796 L200 858 Q207 872 226.5 885 Q246 898 279 898 Z " />
<glyph glyph-name="Eng" unicode="&#x14a;" horiz-adv-x="668" d="M610 -31 Q598 -59 575 -85 Q552 -111 519 -131.5 Q486 -152 442.5 -164 Q399 -176 345 -176 Q331 -176 320.5 -175.5 Q310 -175 304 -174 L304 -57 Q309 -58 321.5 -58.5 Q334 -59 342 -59 Q377 -59 402.5 -47.5 Q428 -36 442 -17 L208 465 L205 465 L205 0 L58 0 L58 700 L237 700 L460 235 L463 235 L463 700 L610 700 L610 -31 Z " />
<glyph glyph-name="Eth" unicode="&#xd0;" horiz-adv-x="653" d="M365 700 Q414 700 452 687.5 Q490 675 519 655.5 Q548 636 567.5 611.5 Q587 587 598 562 L598 138 Q587 113 567.5 88.5 Q548 64 519 44.5 Q490 25 452 12.5 Q414 0 365 0 L75 0 L75 297 L32 297 L32 414 L75 414 L75 700 L365 700 Z M440 523 Q429 548 402 564 Q375 580 333 580 L233 580 L233 414 L348 414 L348 297 L233 297 L233 120 L333 120 Q375 120 402 136 Q429 152 440 177 L440 523 Z " />
<glyph glyph-name="Thorn" unicode="&#xde;" horiz-adv-x="591" d="M347 588 Q413 588 468.5 557.5 Q524 527 557 470 L557 263 Q543 239 523 217 Q503 195 476.5 178.5 Q450 162 417.5 152.5 Q385 143 347 143 L216 143 L216 0 L58 0 L58 700 L216 700 L216 588 L347 588 Z M405 419 Q390 445 364.5 457 Q339 469 311 469 L216 469 L216 263 L311 263 Q342 263 366.5 275.5 Q391 288 405 313 L405 419 Z " />
<glyph glyph-name="a" unicode="a" horiz-adv-x="556" d="M272 557 Q325 557 365 544 Q405 531 434 510.5 Q463 490 481.5 466 Q500 442 509 421 L509 0 L368 0 L368 41 Q345 18 309 1.5 Q273 -15 221 -15 Q178 -15 146.5 -5.5 Q115 4 93 17.5 Q71 31 58.5 45.5 Q46 60 41 69 L41 239 Q46 250 59 265.5 Q72 281 93.5 295 Q115 309 146.5 319 Q178 329 220 329 L363 329 L363 392 Q353 413 330 428 Q307 443 272 443 Q235 443 211.5 426.5 Q188 410 177 387 L52 387 L52 453 Q57 462 72.5 479.5 Q88 497 114.5 514.5 Q141 532 180 544.5 Q219 557 272 557 Z M266 87 Q302 87 326 99 Q350 111 363 127 L363 232 L266 232 Q235 232 213 221 Q191 210 184 199 L184 122 Q190 112 212 99.5 Q234 87 266 87 Z " />
<glyph glyph-name="b" unicode="b" horiz-adv-x="560" d="M333 554 Q375 554 406.5 541.5 Q438 529 460 511 Q482 493 496 471.5 Q510 450 517 432 L517 111 Q510 93 496 71.5 Q482 50 460 31.5 Q438 13 406.5 0.5 Q375 -12 333 -12 Q284 -12 249.5 4 Q215 20 191 44 L191 0 L50 0 L50 700 L196 700 L196 503 Q219 526 253 540 Q287 554 333 554 Z M370 398 Q363 412 340.5 425.5 Q318 439 285 439 Q254 439 231.5 429.5 Q209 420 196 406 L196 137 Q209 123 232 113 Q255 103 286 103 Q318 103 340.5 116.5 Q363 130 370 144 L370 398 Z " />
<glyph glyph-name="c" unicode="c" horiz-adv-x="541" d="M280 557 Q333 557 372.5 544 Q412 531 439.5 512.5 Q467 494 483.5 474 Q500 454 508 440 L508 373 L382 373 Q367 408 343.5 425.5 Q320 443 280 443 Q245 443 222 427.5 Q199 412 189 392 L189 151 Q199 131 222 115 Q245 99 280 99 Q320 99 343.5 116.5 Q367 134 382 169 L508 169 L508 103 Q500 88 483.5 68 Q467 48 439.5 29.5 Q412 11 372.5 -2 Q333 -15 280 -15 Q227 -15 187 -2 Q147 11 118 31.5 Q89 52 70.5 76 Q52 100 43 121 L43 421 Q52 442 70.5 466 Q89 490 118 510.5 Q147 531 187 544 Q227 557 280 557 Z " />
<glyph glyph-name="d" unicode="d" horiz-adv-x="560" d="M510 0 L369 0 L369 44 Q345 20 310 4 Q275 -12 226 -12 Q184 -12 153 0.5 Q122 13 99.5 31.5 Q77 50 63 71.5 Q49 93 43 111 L43 432 Q49 449 63 471 Q77 493 99.5 511 Q122 529 153 541.5 Q184 554 226 554 Q273 554 306.5 540 Q340 526 364 503 L364 700 L510 700 L510 0 Z M275 103 Q306 103 328.5 113 Q351 123 364 137 L364 406 Q351 420 328 429.5 Q305 439 274 439 Q240 439 218 425 Q196 411 190 398 L190 144 Q196 132 218 117.5 Q240 103 275 103 Z " />
<glyph glyph-name="e" unicode="e" horiz-adv-x="548" d="M280 557 Q333 557 372.5 544 Q412 531 439.5 512.5 Q467 494 484 474 Q501 454 508 440 L508 232 L189 232 L189 149 Q199 129 222.5 113 Q246 97 281 97 Q320 97 344 114 Q368 131 384 166 L508 166 L508 103 Q501 89 484 68.5 Q467 48 439.5 29.5 Q412 11 372.5 -2 Q333 -15 280 -15 Q227 -15 187 -2 Q147 11 118 31.5 Q89 52 70.5 76 Q52 100 43 121 L43 421 Q52 442 70.5 466 Q89 490 118 510.5 Q147 531 187 544 Q227 557 280 557 Z M280 445 Q245 445 222 429.5 Q199 414 189 394 L189 330 L372 330 L372 394 Q364 414 340 429.5 Q316 445 280 445 Z " />
<glyph glyph-name="f" unicode="f" horiz-adv-x="349" d="M253 728 Q285 728 309 724 Q333 720 343 717 L343 616 Q333 618 307 618 Q285 618 270 614.5 Q255 611 245.5 605.5 Q236 600 231 594.5 Q226 589 223 585 L223 542 L327 542 L327 435 L223 435 L223 0 L77 0 L77 435 L22 435 L22 542 L77 542 L77 634 Q83 650 95.5 666.5 Q108 683 129 696.5 Q150 710 180.5 719 Q211 728 253 728 Z " />
<glyph glyph-name="g" unicode="g" horiz-adv-x="560" d="M510 -50 Q500 -72 481.5 -95 Q463 -118 434 -137 Q405 -156 365 -168.5 Q325 -181 272 -181 Q219 -181 179 -168.5 Q139 -156 111 -138 Q83 -120 66 -100.5 Q49 -81 41 -67 L41 -9 L170 -9 Q201 -67 272 -67 Q309 -67 331.5 -53.5 Q354 -40 364 -20 L364 80 Q340 58 306 43.5 Q272 29 227 29 Q185 29 154 41.5 Q123 54 100.5 72 Q78 90 64 111.5 Q50 133 43 151 L43 432 Q50 450 64 471.5 Q78 493 100.5 511 Q123 529 154 541.5 Q185 554 227 554 Q275 554 309.5 538 Q344 522 369 498 L369 542 L510 542 L510 -50 Z M275 143 Q307 143 329 153.5 Q351 164 364 178 L364 405 Q351 419 328.5 429 Q306 439 274 439 Q238 439 217 424.5 Q196 410 189 398 L189 185 Q196 172 217 157.5 Q238 143 275 143 Z " />
<glyph glyph-name="h" unicode="h" horiz-adv-x="565" d="M333 554 Q375 554 406.5 541.5 Q438 529 460.5 511 Q483 493 497.5 471 Q512 449 518 432 L518 0 L371 0 L371 398 Q364 412 341 425.5 Q318 439 286 439 Q254 439 230.5 428.5 Q207 418 196 405 L196 0 L50 0 L50 700 L196 700 L196 504 Q220 526 254.5 540 Q289 554 333 554 Z " />
<glyph glyph-name="i" unicode="i" horiz-adv-x="252" d="M53 0 L53 542 L199 542 L199 0 L53 0 Z M126 745 Q158 745 177.5 732.5 Q197 720 204 705 L204 643 Q197 628 177.5 615.5 Q158 603 126 603 Q94 603 74 615.5 Q54 628 47 643 L47 705 Q54 720 74 732.5 Q94 745 126 745 Z " />
<glyph glyph-name="j" unicode="j" horiz-adv-x="246" d="M196 -46 Q187 -68 169 -92 Q151 -116 122.5 -135.5 Q94 -155 53 -167.5 Q12 -180 -42 -180 L-42 -68 Q-6 -68 17.5 -50 Q41 -32 50 -8 L50 542 L196 542 L196 -46 Z M124 745 Q156 745 175.5 732.5 Q195 720 202 705 L202 643 Q195 628 175.5 615.5 Q156 603 124 603 Q92 603 72 615.5 Q52 628 45 643 L45 705 Q52 720 72 732.5 Q92 745 124 745 Z " />
<glyph glyph-name="k" unicode="k" horiz-adv-x="540" d="M521 0 L405 0 L258 220 L196 156 L196 0 L50 0 L50 700 L196 700 L196 330 L396 542 L494 542 L494 462 L357 321 L521 80 L521 0 Z " />
<glyph glyph-name="l" unicode="l" horiz-adv-x="246" d="M50 0 L50 700 L196 700 L196 0 L50 0 Z " />
<glyph glyph-name="m" unicode="m" horiz-adv-x="829" d="M613 554 Q652 554 681 542 Q710 530 730.5 512 Q751 494 763.5 473.5 Q776 453 782 435 L782 0 L635 0 L635 403 Q629 417 610.5 428 Q592 439 564 439 Q537 439 518.5 430.5 Q500 422 489 409 L489 0 L343 0 L343 403 Q336 418 317.5 428.5 Q299 439 271 439 Q244 439 225.5 430.5 Q207 422 196 409 L196 0 L50 0 L50 542 L186 542 L186 497 Q209 522 241.5 538 Q274 554 320 554 Q374 554 409 533 Q444 512 465 482 Q488 512 524.5 533 Q561 554 613 554 Z " />
<glyph glyph-name="n" unicode="n" horiz-adv-x="564" d="M333 554 Q375 554 406.5 541.5 Q438 529 460 511 Q482 493 495.5 471.5 Q509 450 516 432 L516 0 L370 0 L370 398 Q362 413 339.5 426 Q317 439 285 439 Q254 439 231.5 429.5 Q209 420 196 406 L196 0 L50 0 L50 542 L186 542 L186 495 Q212 520 247.5 537 Q283 554 333 554 Z " />
<glyph glyph-name="o" unicode="o" horiz-adv-x="561" d="M281 557 Q334 557 374 544 Q414 531 443 510.5 Q472 490 490.5 466 Q509 442 518 421 L518 121 Q509 100 490.5 76 Q472 52 443 31.5 Q414 11 374 -2 Q334 -15 281 -15 Q228 -15 188 -2 Q148 11 118.5 31.5 Q89 52 70.5 76 Q52 100 43 121 L43 421 Q52 442 70.5 466 Q89 490 118.5 510.5 Q148 531 188 544 Q228 557 281 557 Z M280 443 Q245 443 221.5 427.5 Q198 412 189 392 L189 151 Q198 131 221.5 115 Q245 99 280 99 Q316 99 340 115 Q364 131 372 151 L372 392 Q364 412 340 427.5 Q316 443 280 443 Z " />
<glyph glyph-name="p" unicode="p" horiz-adv-x="560" d="M333 554 Q375 554 406.5 541.5 Q438 529 460 511 Q482 493 496 472 Q510 451 517 432 L517 111 Q510 93 496 71.5 Q482 50 460 31.5 Q438 13 406.5 0.5 Q375 -12 333 -12 Q287 -12 253 2 Q219 16 196 39 L196 -166 L50 -166 L50 542 L191 542 L191 498 Q215 522 249.5 538 Q284 554 333 554 Z M370 398 Q363 413 340 426 Q317 439 285 439 Q254 439 231.5 429.5 Q209 420 196 406 L196 137 Q209 123 231.5 113 Q254 103 286 103 Q317 103 340 116.5 Q363 130 370 144 L370 398 Z " />
<glyph glyph-name="q" unicode="q" horiz-adv-x="560" d="M510 -166 L364 -166 L364 39 Q340 16 306.5 2 Q273 -12 226 -12 Q184 -12 153 0.5 Q122 13 99.5 31.5 Q77 50 63 71.5 Q49 93 43 111 L43 432 Q50 450 63.5 471 Q77 492 99.5 510.5 Q122 529 153 541.5 Q184 554 226 554 Q275 554 310 538 Q345 522 369 498 L369 542 L510 542 L510 -166 Z M275 103 Q306 103 328.5 113 Q351 123 364 137 L364 406 Q351 420 328.5 429.5 Q306 439 274 439 Q242 439 219.5 425.5 Q197 412 190 398 L190 144 Q195 132 218 117.5 Q241 103 275 103 Z " />
<glyph glyph-name="r" unicode="r" horiz-adv-x="379" d="M337 543 Q340 543 344.5 543 Q349 543 357 542 L357 408 Q349 409 343 409 Q337 409 332 409 Q279 409 245.5 396.5 Q212 384 196 367 L196 0 L49 0 L49 542 L186 542 L186 468 Q206 499 242 521 Q278 543 337 543 Z " />
<glyph glyph-name="s" unicode="s" horiz-adv-x="506" d="M253 557 Q301 557 337.5 546 Q374 535 399.5 519.5 Q425 504 441 488 Q457 472 465 460 L465 400 L339 400 Q329 423 308 436.5 Q287 450 253 450 Q224 450 204 440 Q184 430 176 419 L176 369 Q184 357 201 348.5 Q218 340 244 335 L294 324 Q336 315 367 304 Q398 293 419.5 281 Q441 269 454 257 Q467 245 473 235 L473 89 Q465 77 448.5 59 Q432 41 405.5 24.5 Q379 8 341.5 -3.5 Q304 -15 253 -15 Q202 -15 164 -3.5 Q126 8 99.5 24.5 Q73 41 56.5 59 Q40 77 33 89 L33 149 L159 149 Q187 92 254 92 Q286 92 307.5 104.5 Q329 117 338 131 L338 177 Q330 191 312 199.5 Q294 208 268 213 L217 223 Q175 232 144.5 243.5 Q114 255 93 267 Q72 279 59.5 291.5 Q47 304 41 314 L41 460 Q48 471 63.5 487.5 Q79 504 105 519.5 Q131 535 167.5 546 Q204 557 253 557 Z " />
<glyph glyph-name="t" unicode="t" horiz-adv-x="363" d="M307 100 Q319 100 329 101 Q339 102 343 102 L343 -1 Q330 -5 307.5 -8.5 Q285 -12 253 -12 Q211 -12 180.5 -3 Q150 6 129 19.5 Q108 33 95.5 49.5 Q83 66 77 82 L77 435 L22 435 L22 542 L77 542 L77 655 L223 655 L223 542 L327 542 L327 435 L223 435 L223 133 Q226 129 231.5 123.5 Q237 118 247 112.5 Q257 107 271.5 103.5 Q286 100 307 100 Z " />
<glyph glyph-name="u" unicode="u" horiz-adv-x="559" d="M509 0 L373 0 L373 47 Q349 22 314 5 Q279 -12 228 -12 Q187 -12 156 0.5 Q125 13 103.5 31.5 Q82 50 68 71 Q54 92 47 109 L47 542 L193 542 L193 144 Q199 132 220.5 117.5 Q242 103 276 103 Q308 103 329.5 113.5 Q351 124 363 137 L363 542 L509 542 L509 0 Z " />
<glyph glyph-name="v" unicode="v" horiz-adv-x="536" d="M358 0 L178 0 L30 462 L30 542 L165 542 L273 153 L276 153 L384 542 L507 542 L507 462 L358 0 Z " />
<glyph glyph-name="w" unicode="w" horiz-adv-x="797" d="M649 0 L488 0 L404 327 L401 327 L317 0 L151 0 L32 462 L32 542 L167 542 L247 161 L250 161 L344 542 L471 542 L563 161 L566 161 L646 542 L769 542 L769 462 L649 0 Z " />
<glyph glyph-name="x" unicode="x" horiz-adv-x="516" d="M360 278 L486 81 L486 0 L358 0 L260 194 L257 194 L155 0 L30 0 L30 81 L156 278 L38 462 L38 542 L163 542 L257 360 L260 360 L355 542 L478 542 L478 462 L360 278 Z " />
<glyph glyph-name="y" unicode="y" horiz-adv-x="529" d="M501 462 L315 -97 Q289 -132 242 -153.5 Q195 -175 125 -175 Q97 -175 74.5 -172.5 Q52 -170 41 -166 L41 -62 Q50 -63 61 -63.5 Q72 -64 84 -64 Q129 -64 153 -53.5 Q177 -43 189 -30 L199 4 L30 461 L30 542 L165 542 L270 187 L273 187 L375 542 L501 542 L501 462 Z " />
<glyph glyph-name="z" unicode="z" horiz-adv-x="486" d="M195 109 L459 109 L459 0 L28 0 L28 101 L285 434 L36 434 L36 542 L459 542 L459 448 L195 109 Z " />
<glyph glyph-name="agrave" unicode="&#xe0;" horiz-adv-x="556" d="M272 557 Q325 557 365 544 Q405 531 434 510.5 Q463 490 481.5 466 Q500 442 509 421 L509 0 L368 0 L368 41 Q345 18 309 1.5 Q273 -15 221 -15 Q178 -15 146.5 -5.5 Q115 4 93 17.5 Q71 31 58.5 45.5 Q46 60 41 69 L41 239 Q46 250 59 265.5 Q72 281 93.5 295 Q115 309 146.5 319 Q178 329 220 329 L363 329 L363 392 Q353 413 330 428 Q307 443 272 443 Q235 443 211.5 426.5 Q188 410 177 387 L52 387 L52 453 Q57 462 72.5 479.5 Q88 497 114.5 514.5 Q141 532 180 544.5 Q219 557 272 557 Z M266 87 Q302 87 326 99 Q350 111 363 127 L363 232 L266 232 Q235 232 213 221 Q191 210 184 199 L184 122 Q190 112 212 99.5 Q234 87 266 87 Z M338 604 L229 604 L149 704 L149 767 L283 767 L338 619 L338 604 Z " />
<glyph glyph-name="aacute" unicode="&#xe1;" horiz-adv-x="556" d="M272 557 Q325 557 365 544 Q405 531 434 510.5 Q463 490 481.5 466 Q500 442 509 421 L509 0 L368 0 L368 41 Q345 18 309 1.5 Q273 -15 221 -15 Q178 -15 146.5 -5.5 Q115 4 93 17.5 Q71 31 58.5 45.5 Q46 60 41 69 L41 239 Q46 250 59 265.5 Q72 281 93.5 295 Q115 309 146.5 319 Q178 329 220 329 L363 329 L363 392 Q353 413 330 428 Q307 443 272 443 Q235 443 211.5 426.5 Q188 410 177 387 L52 387 L52 453 Q57 462 72.5 479.5 Q88 497 114.5 514.5 Q141 532 180 544.5 Q219 557 272 557 Z M266 87 Q302 87 326 99 Q350 111 363 127 L363 232 L266 232 Q235 232 213 221 Q191 210 184 199 L184 122 Q190 112 212 99.5 Q234 87 266 87 Z M332 604 L222 604 L222 619 L276 767 L411 767 L411 704 L332 604 Z " />
<glyph glyph-name="acircumflex" unicode="&#xe2;" horiz-adv-x="556" d="M272 557 Q325 557 365 544 Q405 531 434 510.5 Q463 490 481.5 466 Q500 442 509 421 L509 0 L368 0 L368 41 Q345 18 309 1.5 Q273 -15 221 -15 Q178 -15 146.5 -5.5 Q115 4 93 17.5 Q71 31 58.5 45.5 Q46 60 41 69 L41 239 Q46 250 59 265.5 Q72 281 93.5 295 Q115 309 146.5 319 Q178 329 220 329 L363 329 L363 392 Q353 413 330 428 Q307 443 272 443 Q235 443 211.5 426.5 Q188 410 177 387 L52 387 L52 453 Q57 462 72.5 479.5 Q88 497 114.5 514.5 Q141 532 180 544.5 Q219 557 272 557 Z M266 87 Q302 87 326 99 Q350 111 363 127 L363 232 L266 232 Q235 232 213 221 Q191 210 184 199 L184 122 Q190 112 212 99.5 Q234 87 266 87 Z M454 601 L350 601 L281 699 L211 601 L107 601 L107 616 L187 764 L375 764 L454 616 L454 601 Z " />
<glyph glyph-name="atilde" unicode="&#xe3;" horiz-adv-x="556" d="M272 557 Q325 557 365 544 Q405 531 434 510.5 Q463 490 481.5 466 Q500 442 509 421 L509 0 L368 0 L368 41 Q345 18 309 1.5 Q273 -15 221 -15 Q178 -15 146.5 -5.5 Q115 4 93 17.5 Q71 31 58.5 45.5 Q46 60 41 69 L41 239 Q46 250 59 265.5 Q72 281 93.5 295 Q115 309 146.5 319 Q178 329 220 329 L363 329 L363 392 Q353 413 330 428 Q307 443 272 443 Q235 443 211.5 426.5 Q188 410 177 387 L52 387 L52 453 Q57 462 72.5 479.5 Q88 497 114.5 514.5 Q141 532 180 544.5 Q219 557 272 557 Z M266 87 Q302 87 326 99 Q350 111 363 127 L363 232 L266 232 Q235 232 213 221 Q191 210 184 199 L184 122 Q190 112 212 99.5 Q234 87 266 87 Z M209 747 Q236 747 254 739 Q272 731 286 722 Q300 713 312 705 Q324 697 339 697 Q367 697 372 722 L372 742 L458 742 L458 683 Q451 653 424.5 629 Q398 605 353 605 Q325 605 307 613 Q289 621 275 630 Q261 639 249.5 647 Q238 655 223 655 Q208 655 200 647 Q192 639 189 631 L189 611 L104 611 L104 669 Q111 701 138 724 Q165 747 209 747 Z " />
<glyph glyph-name="adieresis" unicode="&#xe4;" horiz-adv-x="556" d="M272 557 Q325 557 365 544 Q405 531 434 510.5 Q463 490 481.5 466 Q500 442 509 421 L509 0 L368 0 L368 41 Q345 18 309 1.5 Q273 -15 221 -15 Q178 -15 146.5 -5.5 Q115 4 93 17.5 Q71 31 58.5 45.5 Q46 60 41 69 L41 239 Q46 250 59 265.5 Q72 281 93.5 295 Q115 309 146.5 319 Q178 329 220 329 L363 329 L363 392 Q353 413 330 428 Q307 443 272 443 Q235 443 211.5 426.5 Q188 410 177 387 L52 387 L52 453 Q57 462 72.5 479.5 Q88 497 114.5 514.5 Q141 532 180 544.5 Q219 557 272 557 Z M266 87 Q302 87 326 99 Q350 111 363 127 L363 232 L266 232 Q235 232 213 221 Q191 210 184 199 L184 122 Q190 112 212 99.5 Q234 87 266 87 Z M171 743 Q205 743 221 732 Q237 721 243 714 L243 631 Q237 624 221 613 Q205 602 171 602 Q139 602 122 613 Q105 624 100 631 L100 714 Q105 721 122 732 Q139 743 171 743 Z M390 743 Q423 743 439.5 732 Q456 721 461 714 L461 631 Q456 624 439.5 613 Q423 602 390 602 Q357 602 340.5 613 Q324 624 318 631 L318 714 Q324 721 340.5 732 Q357 743 390 743 Z " />
<glyph glyph-name="amacron" unicode="&#x101;" horiz-adv-x="556" d="M272 557 Q325 557 365 544 Q405 531 434 510.5 Q463 490 481.5 466 Q500 442 509 421 L509 0 L368 0 L368 41 Q345 18 309 1.5 Q273 -15 221 -15 Q178 -15 146.5 -5.5 Q115 4 93 17.5 Q71 31 58.5 45.5 Q46 60 41 69 L41 239 Q46 250 59 265.5 Q72 281 93.5 295 Q115 309 146.5 319 Q178 329 220 329 L363 329 L363 392 Q353 413 330 428 Q307 443 272 443 Q235 443 211.5 426.5 Q188 410 177 387 L52 387 L52 453 Q57 462 72.5 479.5 Q88 497 114.5 514.5 Q141 532 180 544.5 Q219 557 272 557 Z M266 87 Q302 87 326 99 Q350 111 363 127 L363 232 L266 232 Q235 232 213 221 Q191 210 184 199 L184 122 Q190 112 212 99.5 Q234 87 266 87 Z M109 627 L109 725 L453 725 L453 627 L109 627 Z " />
<glyph glyph-name="abreve" unicode="&#x103;" horiz-adv-x="556" d="M272 557 Q325 557 365 544 Q405 531 434 510.5 Q463 490 481.5 466 Q500 442 509 421 L509 0 L368 0 L368 41 Q345 18 309 1.5 Q273 -15 221 -15 Q178 -15 146.5 -5.5 Q115 4 93 17.5 Q71 31 58.5 45.5 Q46 60 41 69 L41 239 Q46 250 59 265.5 Q72 281 93.5 295 Q115 309 146.5 319 Q178 329 220 329 L363 329 L363 392 Q353 413 330 428 Q307 443 272 443 Q235 443 211.5 426.5 Q188 410 177 387 L52 387 L52 453 Q57 462 72.5 479.5 Q88 497 114.5 514.5 Q141 532 180 544.5 Q219 557 272 557 Z M266 87 Q302 87 326 99 Q350 111 363 127 L363 232 L266 232 Q235 232 213 221 Q191 210 184 199 L184 122 Q190 112 212 99.5 Q234 87 266 87 Z M452 684 Q434 646 392 621 Q350 596 281 596 Q212 596 169.5 621 Q127 646 109 684 L109 745 L216 745 L216 707 Q220 698 235 685.5 Q250 673 281 673 Q312 673 326.5 685.5 Q341 698 345 707 L345 745 L452 745 L452 684 Z " />
<glyph glyph-name="aring" unicode="&#xe5;" horiz-adv-x="556" d="M272 557 Q325 557 365 544 Q405 531 434 510.5 Q463 490 481.5 466 Q500 442 509 421 L509 0 L368 0 L368 41 Q345 18 309 1.5 Q273 -15 221 -15 Q178 -15 146.5 -5.5 Q115 4 93 17.5 Q71 31 58.5 45.5 Q46 60 41 69 L41 239 Q46 250 59 265.5 Q72 281 93.5 295 Q115 309 146.5 319 Q178 329 220 329 L363 329 L363 392 Q353 413 330 428 Q307 443 272 443 Q235 443 211.5 426.5 Q188 410 177 387 L52 387 L52 453 Q57 462 72.5 479.5 Q88 497 114.5 514.5 Q141 532 180 544.5 Q219 557 272 557 Z M266 87 Q302 87 326 99 Q350 111 363 127 L363 232 L266 232 Q235 232 213 221 Q191 210 184 199 L184 122 Q190 112 212 99.5 Q234 87 266 87 Z M280 813 Q324 813 357 795.5 Q390 778 405 750 L405 655 Q390 627 357 609.5 Q324 592 280 592 Q235 592 202 609.5 Q169 627 155 655 L155 750 Q169 778 202 795.5 Q235 813 280 813 Z M280 754 Q255 754 241.5 746 Q228 738 223 730 L223 675 Q228 667 241.5 659 Q255 651 280 651 Q304 651 317.5 659 Q331 667 336 675 L336 730 Q331 738 317.5 746 Q304 754 280 754 Z " />
<glyph glyph-name="aogonek" unicode="&#x105;" horiz-adv-x="556" d="M475 -140 Q486 -140 497 -138.5 Q508 -137 522 -132 L522 -211 Q510 -217 492.5 -221 Q475 -225 446 -225 Q408 -225 374 -213.5 Q340 -202 326 -173 L326 -95 Q334 -78 354.5 -52 Q375 -26 408 0 L368 0 L368 41 Q345 18 309 1.5 Q273 -15 221 -15 Q178 -15 146.5 -5.5 Q115 4 93 17.5 Q71 31 58.5 45.5 Q46 60 41 69 L41 239 Q46 250 59 265.5 Q72 281 93.5 295 Q115 309 146.5 319 Q178 329 220 329 L363 329 L363 392 Q353 413 330 428 Q307 443 272 443 Q235 443 211.5 426.5 Q188 410 177 387 L52 387 L52 453 Q58 462 73 479.5 Q88 497 114.5 514.5 Q141 532 179.5 544.5 Q218 557 272 557 Q325 557 365 544 Q405 531 434 510.5 Q463 490 481.5 466 Q500 442 509 421 L509 0 Q487 -21 473 -37.5 Q459 -54 450.5 -66 Q442 -78 438 -86 Q434 -94 432 -100 L432 -124 Q437 -131 449 -135.5 Q461 -140 475 -140 Z M266 87 Q302 87 326 99 Q350 111 363 127 L363 232 L266 232 Q234 232 213 221 Q192 210 184 199 L184 122 Q190 112 212 99.5 Q234 87 266 87 Z " />
<glyph glyph-name="ae" unicode="&#xe6;" horiz-adv-x="868" d="M509 149 Q518 129 541.5 113 Q565 97 601 97 Q639 97 663.5 114 Q688 131 704 166 L828 166 L828 103 Q820 89 803.5 68.5 Q787 48 759.5 29.5 Q732 11 692.5 -2 Q653 -15 600 -15 Q537 -15 492 3.5 Q447 22 418 48 Q386 19 340.5 2 Q295 -15 231 -15 Q186 -15 152.5 -5.5 Q119 4 96 17.5 Q73 31 59.5 45.5 Q46 60 41 69 L41 239 Q46 250 59 265.5 Q72 281 93.5 295 Q115 309 146.5 319 Q178 329 220 329 L363 329 L363 392 Q353 413 330 428 Q307 443 272 443 Q234 443 211.5 426.5 Q189 410 177 387 L52 387 L52 453 Q58 462 73 479.5 Q88 497 114.5 514.5 Q141 532 179.5 544.5 Q218 557 272 557 Q326 557 366.5 542.5 Q407 528 436 507 Q465 528 505 542.5 Q545 557 600 557 Q653 557 692.5 544 Q732 531 759.5 512.5 Q787 494 803.5 474 Q820 454 828 440 L828 232 L509 232 L509 149 Z M692 330 L692 394 Q684 414 660 429.5 Q636 445 600 445 Q565 445 541.5 429.5 Q518 414 509 394 L509 330 L692 330 Z M266 232 Q234 232 213 220.5 Q192 209 184 199 L184 122 Q189 112 211.5 99.5 Q234 87 266 87 Q303 87 327 99 Q351 111 363 128 L363 232 L266 232 Z " />
<glyph glyph-name="cacute" unicode="&#x107;" horiz-adv-x="541" d="M280 557 Q333 557 372.5 544 Q412 531 439.5 512.5 Q467 494 483.5 474 Q500 454 508 440 L508 373 L382 373 Q367 408 343.5 425.5 Q320 443 280 443 Q245 443 222 427.5 Q199 412 189 392 L189 151 Q199 131 222 115 Q245 99 280 99 Q320 99 343.5 116.5 Q367 134 382 169 L508 169 L508 103 Q500 88 483.5 68 Q467 48 439.5 29.5 Q412 11 372.5 -2 Q333 -15 280 -15 Q227 -15 187 -2 Q147 11 118 31.5 Q89 52 70.5 76 Q52 100 43 121 L43 421 Q52 442 70.5 466 Q89 490 118 510.5 Q147 531 187 544 Q227 557 280 557 Z M334 604 L224 604 L224 619 L278 767 L413 767 L413 704 L334 604 Z " />
<glyph glyph-name="ccircumflex" unicode="&#x109;" horiz-adv-x="541" d="M280 557 Q333 557 372.5 544 Q412 531 439.5 512.5 Q467 494 483.5 474 Q500 454 508 440 L508 373 L382 373 Q367 408 343.5 425.5 Q320 443 280 443 Q245 443 222 427.5 Q199 412 189 392 L189 151 Q199 131 222 115 Q245 99 280 99 Q320 99 343.5 116.5 Q367 134 382 169 L508 169 L508 103 Q500 88 483.5 68 Q467 48 439.5 29.5 Q412 11 372.5 -2 Q333 -15 280 -15 Q227 -15 187 -2 Q147 11 118 31.5 Q89 52 70.5 76 Q52 100 43 121 L43 421 Q52 442 70.5 466 Q89 490 118 510.5 Q147 531 187 544 Q227 557 280 557 Z M456 601 L352 601 L283 699 L213 601 L109 601 L109 616 L189 764 L377 764 L456 616 L456 601 Z " />
<glyph glyph-name="ccaron" unicode="&#x10d;" horiz-adv-x="541" d="M280 557 Q333 557 372.5 544 Q412 531 439.5 512.5 Q467 494 483.5 474 Q500 454 508 440 L508 373 L382 373 Q367 408 343.5 425.5 Q320 443 280 443 Q245 443 222 427.5 Q199 412 189 392 L189 151 Q199 131 222 115 Q245 99 280 99 Q320 99 343.5 116.5 Q367 134 382 169 L508 169 L508 103 Q500 88 483.5 68 Q467 48 439.5 29.5 Q412 11 372.5 -2 Q333 -15 280 -15 Q227 -15 187 -2 Q147 11 118 31.5 Q89 52 70.5 76 Q52 100 43 121 L43 421 Q52 442 70.5 466 Q89 490 118 510.5 Q147 531 187 544 Q227 557 280 557 Z M377 601 L189 601 L109 748 L109 764 L213 764 L283 666 L352 764 L456 764 L456 748 L377 601 Z " />
<glyph glyph-name="cdotaccent" unicode="&#x10b;" horiz-adv-x="541" d="M280 557 Q333 557 372.5 544 Q412 531 439.5 512.5 Q467 494 483.5 474 Q500 454 508 440 L508 373 L382 373 Q367 408 343.5 425.5 Q320 443 280 443 Q245 443 222 427.5 Q199 412 189 392 L189 151 Q199 131 222 115 Q245 99 280 99 Q320 99 343.5 116.5 Q367 134 382 169 L508 169 L508 103 Q500 88 483.5 68 Q467 48 439.5 29.5 Q412 11 372.5 -2 Q333 -15 280 -15 Q227 -15 187 -2 Q147 11 118 31.5 Q89 52 70.5 76 Q52 100 43 121 L43 421 Q52 442 70.5 466 Q89 490 118 510.5 Q147 531 187 544 Q227 557 280 557 Z M284 745 Q316 745 335.5 732.5 Q355 720 362 705 L362 643 Q355 628 335.5 615.5 Q316 603 284 603 Q252 603 232 615.5 Q212 628 205 643 L205 705 Q212 720 232 732.5 Q252 745 284 745 Z " />
<glyph glyph-name="ccedilla" unicode="&#xe7;" horiz-adv-x="541" d="M280 443 Q245 443 221.5 427.5 Q198 412 189 392 L189 151 Q199 130 222 114.5 Q245 99 280 99 Q320 99 343.5 116.5 Q367 134 382 169 L508 169 L508 103 Q501 89 485.5 70 Q470 51 444.5 33 Q419 15 383.5 1.5 Q348 -12 300 -14 L289 -43 L297 -43 Q335 -43 356 -59 Q377 -75 385 -93 L385 -169 Q372 -196 340 -212 Q308 -228 262 -228 Q229 -228 202 -222.5 Q175 -217 161 -209 L183 -147 Q199 -152 217 -155.5 Q235 -159 254 -159 Q274 -159 286 -153 Q298 -147 302 -139 L302 -116 Q294 -100 256 -100 L195 -100 L226 -11 Q186 -4 155.5 10 Q125 24 103 43 Q81 62 66 82.5 Q51 103 43 121 L43 421 Q52 442 70.5 466 Q89 490 118 510.5 Q147 531 187 544 Q227 557 280 557 Q333 557 372.5 544 Q412 531 439.5 512.5 Q467 494 484 474 Q501 454 508 440 L508 373 L382 373 Q368 407 343.5 425 Q319 443 280 443 Z " />
<glyph glyph-name="dcaron" unicode="&#x10f;" horiz-adv-x="729" d="M510 0 L369 0 L369 44 Q345 20 310 4 Q275 -12 226 -12 Q184 -12 153 0.5 Q122 13 99.5 31.5 Q77 50 63 71.5 Q49 93 43 111 L43 432 Q49 449 63 471 Q77 493 99.5 511 Q122 529 153 541.5 Q184 554 226 554 Q273 554 306.5 540 Q340 526 364 503 L364 700 L510 700 L510 0 Z M275 103 Q306 103 328.5 113 Q351 123 364 137 L364 406 Q351 420 328 429.5 Q305 439 274 439 Q240 439 218 425 Q196 411 190 398 L190 144 Q196 132 218 117.5 Q240 103 275 103 Z M659 491 L571 491 L571 506 L591 700 L707 700 L707 625 L659 491 Z " />
<glyph glyph-name="egrave" unicode="&#xe8;" horiz-adv-x="548" d="M280 557 Q333 557 372.5 544 Q412 531 439.5 512.5 Q467 494 484 474 Q501 454 508 440 L508 232 L189 232 L189 149 Q199 129 222.5 113 Q246 97 281 97 Q320 97 344 114 Q368 131 384 166 L508 166 L508 103 Q501 89 484 68.5 Q467 48 439.5 29.5 Q412 11 372.5 -2 Q333 -15 280 -15 Q227 -15 187 -2 Q147 11 118 31.5 Q89 52 70.5 76 Q52 100 43 121 L43 421 Q52 442 70.5 466 Q89 490 118 510.5 Q147 531 187 544 Q227 557 280 557 Z M280 445 Q245 445 222 429.5 Q199 414 189 394 L189 330 L372 330 L372 394 Q364 414 340 429.5 Q316 445 280 445 Z M342 604 L233 604 L153 704 L153 767 L287 767 L342 619 L342 604 Z " />
<glyph glyph-name="eacute" unicode="&#xe9;" horiz-adv-x="548" d="M280 557 Q333 557 372.5 544 Q412 531 439.5 512.5 Q467 494 484 474 Q501 454 508 440 L508 232 L189 232 L189 149 Q199 129 222.5 113 Q246 97 281 97 Q320 97 344 114 Q368 131 384 166 L508 166 L508 103 Q501 89 484 68.5 Q467 48 439.5 29.5 Q412 11 372.5 -2 Q333 -15 280 -15 Q227 -15 187 -2 Q147 11 118 31.5 Q89 52 70.5 76 Q52 100 43 121 L43 421 Q52 442 70.5 466 Q89 490 118 510.5 Q147 531 187 544 Q227 557 280 557 Z M280 445 Q245 445 222 429.5 Q199 414 189 394 L189 330 L372 330 L372 394 Q364 414 340 429.5 Q316 445 280 445 Z M337 604 L227 604 L227 619 L281 767 L416 767 L416 704 L337 604 Z " />
<glyph glyph-name="ecircumflex" unicode="&#xea;" horiz-adv-x="548" d="M280 557 Q333 557 372.5 544 Q412 531 439.5 512.5 Q467 494 484 474 Q501 454 508 440 L508 232 L189 232 L189 149 Q199 129 222.5 113 Q246 97 281 97 Q320 97 344 114 Q368 131 384 166 L508 166 L508 103 Q501 89 484 68.5 Q467 48 439.5 29.5 Q412 11 372.5 -2 Q333 -15 280 -15 Q227 -15 187 -2 Q147 11 118 31.5 Q89 52 70.5 76 Q52 100 43 121 L43 421 Q52 442 70.5 466 Q89 490 118 510.5 Q147 531 187 544 Q227 557 280 557 Z M280 445 Q245 445 222 429.5 Q199 414 189 394 L189 330 L372 330 L372 394 Q364 414 340 429.5 Q316 445 280 445 Z M459 601 L355 601 L286 699 L216 601 L112 601 L112 616 L192 764 L380 764 L459 616 L459 601 Z " />
<glyph glyph-name="ecaron" unicode="&#x11b;" horiz-adv-x="548" d="M280 557 Q333 557 372.5 544 Q412 531 439.5 512.5 Q467 494 484 474 Q501 454 508 440 L508 232 L189 232 L189 149 Q199 129 222.5 113 Q246 97 281 97 Q320 97 344 114 Q368 131 384 166 L508 166 L508 103 Q501 89 484 68.5 Q467 48 439.5 29.5 Q412 11 372.5 -2 Q333 -15 280 -15 Q227 -15 187 -2 Q147 11 118 31.5 Q89 52 70.5 76 Q52 100 43 121 L43 421 Q52 442 70.5 466 Q89 490 118 510.5 Q147 531 187 544 Q227 557 280 557 Z M280 445 Q245 445 222 429.5 Q199 414 189 394 L189 330 L372 330 L372 394 Q364 414 340 429.5 Q316 445 280 445 Z M380 601 L192 601 L112 748 L112 764 L216 764 L286 666 L355 764 L459 764 L459 748 L380 601 Z " />
<glyph glyph-name="edieresis" unicode="&#xeb;" horiz-adv-x="548" d="M280 557 Q333 557 372.5 544 Q412 531 439.5 512.5 Q467 494 484 474 Q501 454 508 440 L508 232 L189 232 L189 149 Q199 129 222.5 113 Q246 97 281 97 Q320 97 344 114 Q368 131 384 166 L508 166 L508 103 Q501 89 484 68.5 Q467 48 439.5 29.5 Q412 11 372.5 -2 Q333 -15 280 -15 Q227 -15 187 -2 Q147 11 118 31.5 Q89 52 70.5 76 Q52 100 43 121 L43 421 Q52 442 70.5 466 Q89 490 118 510.5 Q147 531 187 544 Q227 557 280 557 Z M280 445 Q245 445 222 429.5 Q199 414 189 394 L189 330 L372 330 L372 394 Q364 414 340 429.5 Q316 445 280 445 Z M176 743 Q210 743 226 732 Q242 721 248 714 L248 631 Q242 624 226 613 Q210 602 176 602 Q144 602 127 613 Q110 624 105 631 L105 714 Q110 721 127 732 Q144 743 176 743 Z M395 743 Q428 743 444.5 732 Q461 721 466 714 L466 631 Q461 624 444.5 613 Q428 602 395 602 Q362 602 345.5 613 Q329 624 323 631 L323 714 Q329 721 345.5 732 Q362 743 395 743 Z " />
<glyph glyph-name="emacron" unicode="&#x113;" horiz-adv-x="548" d="M280 557 Q333 557 372.5 544 Q412 531 439.5 512.5 Q467 494 484 474 Q501 454 508 440 L508 232 L189 232 L189 149 Q199 129 222.5 113 Q246 97 281 97 Q320 97 344 114 Q368 131 384 166 L508 166 L508 103 Q501 89 484 68.5 Q467 48 439.5 29.5 Q412 11 372.5 -2 Q333 -15 280 -15 Q227 -15 187 -2 Q147 11 118 31.5 Q89 52 70.5 76 Q52 100 43 121 L43 421 Q52 442 70.5 466 Q89 490 118 510.5 Q147 531 187 544 Q227 557 280 557 Z M280 445 Q245 445 222 429.5 Q199 414 189 394 L189 330 L372 330 L372 394 Q364 414 340 429.5 Q316 445 280 445 Z M113 627 L113 725 L457 725 L457 627 L113 627 Z " />
<glyph glyph-name="ebreve" unicode="&#x115;" horiz-adv-x="548" d="M280 557 Q333 557 372.5 544 Q412 531 439.5 512.5 Q467 494 484 474 Q501 454 508 440 L508 232 L189 232 L189 149 Q199 129 222.5 113 Q246 97 281 97 Q320 97 344 114 Q368 131 384 166 L508 166 L508 103 Q501 89 484 68.5 Q467 48 439.5 29.5 Q412 11 372.5 -2 Q333 -15 280 -15 Q227 -15 187 -2 Q147 11 118 31.5 Q89 52 70.5 76 Q52 100 43 121 L43 421 Q52 442 70.5 466 Q89 490 118 510.5 Q147 531 187 544 Q227 557 280 557 Z M280 445 Q245 445 222 429.5 Q199 414 189 394 L189 330 L372 330 L372 394 Q364 414 340 429.5 Q316 445 280 445 Z M457 684 Q439 646 397 621 Q355 596 286 596 Q217 596 174.5 621 Q132 646 114 684 L114 745 L221 745 L221 707 Q225 698 240 685.5 Q255 673 286 673 Q317 673 331.5 685.5 Q346 698 350 707 L350 745 L457 745 L457 684 Z " />
<glyph glyph-name="edotaccent" unicode="&#x117;" horiz-adv-x="548" d="M280 557 Q333 557 372.5 544 Q412 531 439.5 512.5 Q467 494 484 474 Q501 454 508 440 L508 232 L189 232 L189 149 Q199 129 222.5 113 Q246 97 281 97 Q320 97 344 114 Q368 131 384 166 L508 166 L508 103 Q501 89 484 68.5 Q467 48 439.5 29.5 Q412 11 372.5 -2 Q333 -15 280 -15 Q227 -15 187 -2 Q147 11 118 31.5 Q89 52 70.5 76 Q52 100 43 121 L43 421 Q52 442 70.5 466 Q89 490 118 510.5 Q147 531 187 544 Q227 557 280 557 Z M280 445 Q245 445 222 429.5 Q199 414 189 394 L189 330 L372 330 L372 394 Q364 414 340 429.5 Q316 445 280 445 Z M286 745 Q318 745 337.5 732.5 Q357 720 364 705 L364 643 Q357 628 337.5 615.5 Q318 603 286 603 Q254 603 234 615.5 Q214 628 207 643 L207 705 Q214 720 234 732.5 Q254 745 286 745 Z " />
<glyph glyph-name="eogonek" unicode="&#x119;" horiz-adv-x="548" d="M280 557 Q333 557 372.5 544 Q412 531 439.5 512.5 Q467 494 484 474 Q501 454 508 440 L508 232 L189 232 L189 149 Q199 129 222.5 113 Q246 97 281 97 Q320 97 344 114 Q368 131 384 166 L508 166 L508 103 Q496 79 480.5 50.5 Q465 22 450 -6 Q435 -34 423.5 -59 Q412 -84 408 -100 L408 -124 Q413 -131 425 -135.5 Q437 -140 452 -140 Q462 -140 473 -138.5 Q484 -137 498 -132 L498 -211 Q486 -217 468.5 -221 Q451 -225 422 -225 Q384 -225 350 -213.5 Q316 -202 303 -173 L303 -95 Q308 -81 321 -57.5 Q334 -34 356 -5 Q339 -10 320.5 -12.5 Q302 -15 280 -15 Q227 -15 187 -2 Q147 11 118 31.5 Q89 52 70.5 76 Q52 100 43 121 L43 421 Q52 442 70.5 466 Q89 490 118 510.5 Q147 531 187 544 Q227 557 280 557 Z M280 445 Q245 445 222 429.5 Q199 414 189 394 L189 330 L372 330 L372 394 Q364 414 340 429.5 Q316 445 280 445 Z " />
<glyph glyph-name="gcircumflex" unicode="&#x11d;" horiz-adv-x="560" d="M510 -50 Q500 -72 481.5 -95 Q463 -118 434 -137 Q405 -156 365 -168.5 Q325 -181 272 -181 Q219 -181 179 -168.5 Q139 -156 111 -138 Q83 -120 66 -100.5 Q49 -81 41 -67 L41 -9 L170 -9 Q201 -67 272 -67 Q309 -67 331.5 -53.5 Q354 -40 364 -20 L364 80 Q340 58 306 43.5 Q272 29 227 29 Q185 29 154 41.5 Q123 54 100.5 72 Q78 90 64 111.5 Q50 133 43 151 L43 432 Q50 450 64 471.5 Q78 493 100.5 511 Q123 529 154 541.5 Q185 554 227 554 Q275 554 309.5 538 Q344 522 369 498 L369 542 L510 542 L510 -50 Z M275 143 Q307 143 329 153.5 Q351 164 364 178 L364 405 Q351 419 328.5 429 Q306 439 274 439 Q238 439 217 424.5 Q196 410 189 398 L189 185 Q196 172 217 157.5 Q238 143 275 143 Z M453 601 L349 601 L280 699 L210 601 L106 601 L106 616 L186 764 L374 764 L453 616 L453 601 Z " />
<glyph glyph-name="gbreve" unicode="&#x11f;" horiz-adv-x="560" d="M510 -50 Q500 -72 481.5 -95 Q463 -118 434 -137 Q405 -156 365 -168.5 Q325 -181 272 -181 Q219 -181 179 -168.5 Q139 -156 111 -138 Q83 -120 66 -100.5 Q49 -81 41 -67 L41 -9 L170 -9 Q201 -67 272 -67 Q309 -67 331.5 -53.5 Q354 -40 364 -20 L364 80 Q340 58 306 43.5 Q272 29 227 29 Q185 29 154 41.5 Q123 54 100.5 72 Q78 90 64 111.5 Q50 133 43 151 L43 432 Q50 450 64 471.5 Q78 493 100.5 511 Q123 529 154 541.5 Q185 554 227 554 Q275 554 309.5 538 Q344 522 369 498 L369 542 L510 542 L510 -50 Z M275 143 Q307 143 329 153.5 Q351 164 364 178 L364 405 Q351 419 328.5 429 Q306 439 274 439 Q238 439 217 424.5 Q196 410 189 398 L189 185 Q196 172 217 157.5 Q238 143 275 143 Z M451 684 Q433 646 391 621 Q349 596 280 596 Q211 596 168.5 621 Q126 646 108 684 L108 745 L215 745 L215 707 Q219 698 234 685.5 Q249 673 280 673 Q311 673 325.5 685.5 Q340 698 344 707 L344 745 L451 745 L451 684 Z " />
<glyph glyph-name="gdotaccent" unicode="&#x121;" horiz-adv-x="560" d="M510 -50 Q500 -72 481.5 -95 Q463 -118 434 -137 Q405 -156 365 -168.5 Q325 -181 272 -181 Q219 -181 179 -168.5 Q139 -156 111 -138 Q83 -120 66 -100.5 Q49 -81 41 -67 L41 -9 L170 -9 Q201 -67 272 -67 Q309 -67 331.5 -53.5 Q354 -40 364 -20 L364 80 Q340 58 306 43.5 Q272 29 227 29 Q185 29 154 41.5 Q123 54 100.5 72 Q78 90 64 111.5 Q50 133 43 151 L43 432 Q50 450 64 471.5 Q78 493 100.5 511 Q123 529 154 541.5 Q185 554 227 554 Q275 554 309.5 538 Q344 522 369 498 L369 542 L510 542 L510 -50 Z M275 143 Q307 143 329 153.5 Q351 164 364 178 L364 405 Q351 419 328.5 429 Q306 439 274 439 Q238 439 217 424.5 Q196 410 189 398 L189 185 Q196 172 217 157.5 Q238 143 275 143 Z M280 745 Q312 745 331.5 732.5 Q351 720 358 705 L358 643 Q351 628 331.5 615.5 Q312 603 280 603 Q248 603 228 615.5 Q208 628 201 643 L201 705 Q208 720 228 732.5 Q248 745 280 745 Z " />
<glyph glyph-name="gcommaaccent" unicode="&#x123;" horiz-adv-x="560" d="M510 -50 Q500 -72 481.5 -95 Q463 -118 434 -137 Q405 -156 365 -168.5 Q325 -181 272 -181 Q219 -181 179 -168.5 Q139 -156 111 -138 Q83 -120 66 -100.5 Q49 -81 41 -67 L41 -9 L170 -9 Q201 -67 272 -67 Q309 -67 331.5 -53.5 Q354 -40 364 -20 L364 80 Q340 58 306 43.5 Q272 29 227 29 Q185 29 154 41.5 Q123 54 100.5 72 Q78 90 64 111.5 Q50 133 43 151 L43 432 Q50 450 64 471.5 Q78 493 100.5 511 Q123 529 154 541.5 Q185 554 227 554 Q275 554 309.5 538 Q344 522 369 498 L369 542 L510 542 L510 -50 Z M275 143 Q307 143 329 153.5 Q351 164 364 178 L364 405 Q351 419 328.5 429 Q306 439 274 439 Q238 439 217 424.5 Q196 410 189 398 L189 185 Q196 172 217 157.5 Q238 143 275 143 Z M280 718 Q313 718 332.5 705 Q352 692 358 678 L358 629 Q352 616 332.5 603 Q313 590 280 590 Q247 590 227.5 603 Q208 616 202 629 L202 753 Q205 762 213 771.5 Q221 781 234.5 789.5 Q248 798 266 803.5 Q284 809 307 809 L344 809 L344 754 L322 754 Q284 754 277 741 L277 718 L280 718 Z " />
<glyph glyph-name="hcircumflex" unicode="&#x125;" horiz-adv-x="565" d="M333 554 Q375 554 406.5 541.5 Q438 529 460.5 511 Q483 493 497.5 471 Q512 449 518 432 L518 0 L371 0 L371 398 Q364 412 341 425.5 Q318 439 286 439 Q254 439 230.5 428.5 Q207 418 196 405 L196 0 L50 0 L50 700 L196 700 L196 504 Q220 526 254.5 540 Q289 554 333 554 Z M462 742 L358 742 L289 837 L219 742 L115 742 L115 757 L195 902 L383 902 L462 757 L462 742 Z " />
<glyph glyph-name="hbar" unicode="&#x127;" horiz-adv-x="579" d="M366 653 L366 576 L211 576 L211 481 Q235 503 268.5 517 Q302 531 348 531 Q390 531 421.5 518.5 Q453 506 475 488 Q497 470 510.5 448.5 Q524 427 531 409 L531 0 L385 0 L385 375 Q378 387 357.5 401.5 Q337 416 300 416 Q268 416 245.5 405.5 Q223 395 211 381 L211 0 L65 0 L65 576 L24 576 L24 653 L65 653 L65 700 L211 700 L211 653 L366 653 Z " />
<glyph glyph-name="igrave" unicode="&#xec;" horiz-adv-x="252" d="M53 0 L53 542 L199 542 L199 0 L53 0 Z M183 604 L74 604 L-6 704 L-6 767 L128 767 L183 619 L183 604 Z " />
<glyph glyph-name="iacute" unicode="&#xed;" horiz-adv-x="252" d="M53 0 L53 542 L199 542 L199 0 L53 0 Z M177 604 L67 604 L67 619 L121 767 L256 767 L256 704 L177 604 Z " />
<glyph glyph-name="icircumflex" unicode="&#xee;" horiz-adv-x="252" d="M53 0 L53 542 L199 542 L199 0 L53 0 Z M299 601 L195 601 L126 699 L56 601 L-48 601 L-48 616 L32 764 L220 764 L299 616 L299 601 Z " />
<glyph glyph-name="itilde" unicode="&#x129;" horiz-adv-x="252" d="M53 0 L53 542 L199 542 L199 0 L53 0 Z M54 747 Q81 747 99 739 Q117 731 131 722 Q145 713 157 705 Q169 697 184 697 Q212 697 217 722 L217 742 L303 742 L303 683 Q296 653 269.5 629 Q243 605 198 605 Q170 605 152 613 Q134 621 120 630 Q106 639 94.5 647 Q83 655 68 655 Q53 655 45 647 Q37 639 34 631 L34 611 L-51 611 L-51 669 Q-44 701 -17 724 Q10 747 54 747 Z " />
<glyph glyph-name="idieresis" unicode="&#xef;" horiz-adv-x="252" d="M53 0 L53 542 L199 542 L199 0 L53 0 Z M16 743 Q50 743 66 732 Q82 721 88 714 L88 631 Q82 624 66 613 Q50 602 16 602 Q-16 602 -33 613 Q-50 624 -55 631 L-55 714 Q-50 721 -33 732 Q-16 743 16 743 Z M235 743 Q268 743 284.5 732 Q301 721 306 714 L306 631 Q301 624 284.5 613 Q268 602 235 602 Q202 602 185.5 613 Q169 624 163 631 L163 714 Q169 721 185.5 732 Q202 743 235 743 Z " />
<glyph glyph-name="imacron" unicode="&#x12b;" horiz-adv-x="252" d="M53 0 L53 542 L199 542 L199 0 L53 0 Z M-47 627 L-47 725 L297 725 L297 627 L-47 627 Z " />
<glyph glyph-name="ibreve" unicode="&#x12d;" horiz-adv-x="252" d="M53 0 L53 542 L199 542 L199 0 L53 0 Z M297 684 Q279 646 237 621 Q195 596 126 596 Q57 596 14.5 621 Q-28 646 -46 684 L-46 745 L61 745 L61 707 Q65 698 80 685.5 Q95 673 126 673 Q157 673 171.5 685.5 Q186 698 190 707 L190 745 L297 745 L297 684 Z " />
<glyph glyph-name="iogonek" unicode="&#x12f;" horiz-adv-x="252" d="M126 745 Q159 745 178.5 732 Q198 719 204 705 L204 645 Q198 631 178.5 618 Q159 605 126 605 Q93 605 73.5 618 Q54 631 48 645 L48 705 Q54 719 73.5 732 Q93 745 126 745 Z M199 542 L199 0 Q152 -41 133 -64.5 Q114 -88 109 -100 L109 -124 Q114 -131 126 -135.5 Q138 -140 153 -140 Q163 -140 174 -138.5 Q185 -137 199 -132 L199 -211 Q187 -217 169.5 -221 Q152 -225 123 -225 Q85 -225 51.5 -213.5 Q18 -202 4 -173 L4 -95 Q12 -78 32.5 -52 Q53 -26 87 0 L53 0 L53 542 L199 542 Z " />
<glyph glyph-name="dotlessi" unicode="&#x131;" horiz-adv-x="252" d="M53 0 L53 542 L199 542 L199 0 L53 0 Z " />
<glyph glyph-name="ij" unicode="&#x133;" horiz-adv-x="498" d="M53 0 L53 542 L199 542 L199 0 L53 0 Z M126 745 Q158 745 177.5 732.5 Q197 720 204 705 L204 643 Q197 628 177.5 615.5 Q158 603 126 603 Q94 603 74 615.5 Q54 628 47 643 L47 705 Q54 720 74 732.5 Q94 745 126 745 Z M448 -46 Q439 -68 421 -92 Q403 -116 374.5 -135.5 Q346 -155 305 -167.5 Q264 -180 210 -180 L210 -68 Q246 -68 269.5 -50 Q293 -32 302 -8 L302 542 L448 542 L448 -46 Z M376 745 Q408 745 427.5 732.5 Q447 720 454 705 L454 643 Q447 628 427.5 615.5 Q408 603 376 603 Q344 603 324 615.5 Q304 628 297 643 L297 705 Q304 720 324 732.5 Q344 745 376 745 Z " />
<glyph glyph-name="dotlessj" unicode="&#x237;" horiz-adv-x="246" d="M196 -46 Q187 -68 169 -92 Q151 -116 122.5 -135.5 Q94 -155 53 -167.5 Q12 -180 -42 -180 L-42 -68 Q-6 -68 17.5 -50 Q41 -32 50 -8 L50 542 L196 542 L196 -46 Z " />
<glyph glyph-name="jcircumflex" unicode="&#x135;" horiz-adv-x="246" d="M196 -46 Q187 -68 169 -92 Q151 -116 122.5 -135.5 Q94 -155 53 -167.5 Q12 -180 -42 -180 L-42 -68 Q-6 -68 17.5 -50 Q41 -32 50 -8 L50 542 L196 542 L196 -46 Z M297 601 L193 601 L124 699 L54 601 L-50 601 L-50 616 L30 764 L218 764 L297 616 L297 601 Z " />
<glyph glyph-name="kcommaaccent" unicode="&#x137;" horiz-adv-x="540" d="M521 0 L405 0 L258 220 L196 156 L196 0 L50 0 L50 700 L196 700 L196 330 L396 542 L494 542 L494 462 L357 321 L521 80 L521 0 Z M270 -50 Q303 -50 321 -57.5 Q339 -65 345 -72 L345 -178 Q342 -186 335.5 -196 Q329 -206 317 -214.5 Q305 -223 288 -228.5 Q271 -234 249 -234 L201 -234 L201 -188 L236 -188 Q248 -188 258 -185 Q268 -182 273 -174 L273 -152 L270 -152 Q238 -152 219 -146.5 Q200 -141 195 -133 L195 -72 Q200 -65 219 -57.5 Q238 -50 270 -50 Z " />
<glyph glyph-name="lacute" unicode="&#x13a;" horiz-adv-x="246" d="M50 0 L50 700 L196 700 L196 0 L50 0 Z M164 745 L59 745 L59 760 L112 905 L245 905 L245 842 L164 745 Z " />
<glyph glyph-name="lcaron" unicode="&#x13e;" horiz-adv-x="414" d="M50 0 L50 700 L196 700 L196 0 L50 0 Z M344 491 L256 491 L256 506 L276 700 L392 700 L392 625 L344 491 Z " />
<glyph glyph-name="lcommaaccent" unicode="&#x13c;" horiz-adv-x="246" d="M50 0 L50 700 L196 700 L196 0 L50 0 Z M123 -50 Q156 -50 174 -57.5 Q192 -65 198 -72 L198 -178 Q195 -186 188.5 -196 Q182 -206 170 -214.5 Q158 -223 141 -228.5 Q124 -234 102 -234 L54 -234 L54 -188 L89 -188 Q101 -188 111 -185 Q121 -182 126 -174 L126 -152 L123 -152 Q91 -152 72 -146.5 Q53 -141 48 -133 L48 -72 Q53 -65 72 -57.5 Q91 -50 123 -50 Z " />
<glyph glyph-name="lslash" unicode="&#x142;" horiz-adv-x="348" d="M247 354 L247 0 L101 0 L101 269 L29 227 L29 345 L101 387 L101 700 L247 700 L247 472 L319 514 L319 396 L247 354 Z " />
<glyph glyph-name="ldot" unicode="&#x140;" horiz-adv-x="437" d="M50 0 L50 700 L196 700 L196 0 L50 0 Z M341 433 Q373 433 392.5 420.5 Q412 408 419 393 L419 331 Q412 316 392.5 303.5 Q373 291 341 291 Q309 291 289 303.5 Q269 316 262 331 L262 393 Q269 408 289 420.5 Q309 433 341 433 Z " />
<glyph glyph-name="nacute" unicode="&#x144;" horiz-adv-x="564" d="M333 554 Q375 554 406.5 541.5 Q438 529 460 511 Q482 493 495.5 471.5 Q509 450 516 432 L516 0 L370 0 L370 398 Q362 413 339.5 426 Q317 439 285 439 Q254 439 231.5 429.5 Q209 420 196 406 L196 0 L50 0 L50 542 L186 542 L186 495 Q212 520 247.5 537 Q283 554 333 554 Z M333 604 L223 604 L223 619 L277 767 L412 767 L412 704 L333 604 Z " />
<glyph glyph-name="ncaron" unicode="&#x148;" horiz-adv-x="564" d="M333 554 Q375 554 406.5 541.5 Q438 529 460 511 Q482 493 495.5 471.5 Q509 450 516 432 L516 0 L370 0 L370 398 Q362 413 339.5 426 Q317 439 285 439 Q254 439 231.5 429.5 Q209 420 196 406 L196 0 L50 0 L50 542 L186 542 L186 495 Q212 520 247.5 537 Q283 554 333 554 Z M376 601 L188 601 L108 748 L108 764 L212 764 L282 666 L351 764 L455 764 L455 748 L376 601 Z " />
<glyph glyph-name="ntilde" unicode="&#xf1;" horiz-adv-x="564" d="M333 554 Q375 554 406.5 541.5 Q438 529 460 511 Q482 493 495.5 471.5 Q509 450 516 432 L516 0 L370 0 L370 398 Q362 413 339.5 426 Q317 439 285 439 Q254 439 231.5 429.5 Q209 420 196 406 L196 0 L50 0 L50 542 L186 542 L186 495 Q212 520 247.5 537 Q283 554 333 554 Z M210 747 Q237 747 255 739 Q273 731 287 722 Q301 713 313 705 Q325 697 340 697 Q368 697 373 722 L373 742 L459 742 L459 683 Q452 653 425.5 629 Q399 605 354 605 Q326 605 308 613 Q290 621 276 630 Q262 639 250.5 647 Q239 655 224 655 Q209 655 201 647 Q193 639 190 631 L190 611 L105 611 L105 669 Q112 701 139 724 Q166 747 210 747 Z " />
<glyph glyph-name="ncommaaccent" unicode="&#x146;" horiz-adv-x="564" d="M333 554 Q375 554 406.5 541.5 Q438 529 460 511 Q482 493 495.5 471.5 Q509 450 516 432 L516 0 L370 0 L370 398 Q362 413 339.5 426 Q317 439 285 439 Q254 439 231.5 429.5 Q209 420 196 406 L196 0 L50 0 L50 542 L186 542 L186 495 Q212 520 247.5 537 Q283 554 333 554 Z M282 -50 Q315 -50 333 -57.5 Q351 -65 357 -72 L357 -178 Q354 -186 347.5 -196 Q341 -206 329 -214.5 Q317 -223 300 -228.5 Q283 -234 261 -234 L213 -234 L213 -188 L248 -188 Q260 -188 270 -185 Q280 -182 285 -174 L285 -152 L282 -152 Q250 -152 231 -146.5 Q212 -141 207 -133 L207 -72 Q212 -65 231 -57.5 Q250 -50 282 -50 Z " />
<glyph glyph-name="napostrophe" unicode="&#x149;" horiz-adv-x="564" d="M333 554 Q375 554 406.5 541.5 Q438 529 460 511 Q482 493 495.5 471.5 Q509 450 516 432 L516 0 L370 0 L370 398 Q362 413 339.5 426 Q317 439 285 439 Q254 439 231.5 429.5 Q209 420 196 406 L196 0 L50 0 L50 542 L186 542 L186 495 Q212 520 247.5 537 Q283 554 333 554 Z M91 761 Q124 761 142 753.5 Q160 746 166 739 L166 633 Q163 625 156.5 615 Q150 605 138 596.5 Q126 588 109 582.5 Q92 577 70 577 L22 577 L22 623 L57 623 Q69 623 79 626 Q89 629 94 637 L94 659 L91 659 Q59 659 40 664.5 Q21 670 16 678 L16 739 Q21 746 40 753.5 Q59 761 91 761 Z " />
<glyph glyph-name="ograve" unicode="&#xf2;" horiz-adv-x="561" d="M281 557 Q334 557 374 544 Q414 531 443 510.5 Q472 490 490.5 466 Q509 442 518 421 L518 121 Q509 100 490.5 76 Q472 52 443 31.5 Q414 11 374 -2 Q334 -15 281 -15 Q228 -15 188 -2 Q148 11 118.5 31.5 Q89 52 70.5 76 Q52 100 43 121 L43 421 Q52 442 70.5 466 Q89 490 118.5 510.5 Q148 531 188 544 Q228 557 281 557 Z M280 443 Q245 443 221.5 427.5 Q198 412 189 392 L189 151 Q198 131 221.5 115 Q245 99 280 99 Q316 99 340 115 Q364 131 372 151 L372 392 Q364 412 340 427.5 Q316 443 280 443 Z M337 604 L228 604 L148 704 L148 767 L282 767 L337 619 L337 604 Z " />
<glyph glyph-name="oacute" unicode="&#xf3;" horiz-adv-x="561" d="M281 557 Q334 557 374 544 Q414 531 443 510.5 Q472 490 490.5 466 Q509 442 518 421 L518 121 Q509 100 490.5 76 Q472 52 443 31.5 Q414 11 374 -2 Q334 -15 281 -15 Q228 -15 188 -2 Q148 11 118.5 31.5 Q89 52 70.5 76 Q52 100 43 121 L43 421 Q52 442 70.5 466 Q89 490 118.5 510.5 Q148 531 188 544 Q228 557 281 557 Z M280 443 Q245 443 221.5 427.5 Q198 412 189 392 L189 151 Q198 131 221.5 115 Q245 99 280 99 Q316 99 340 115 Q364 131 372 151 L372 392 Q364 412 340 427.5 Q316 443 280 443 Z M331 604 L221 604 L221 619 L275 767 L410 767 L410 704 L331 604 Z " />
<glyph glyph-name="ocircumflex" unicode="&#xf4;" horiz-adv-x="561" d="M281 557 Q334 557 374 544 Q414 531 443 510.5 Q472 490 490.5 466 Q509 442 518 421 L518 121 Q509 100 490.5 76 Q472 52 443 31.5 Q414 11 374 -2 Q334 -15 281 -15 Q228 -15 188 -2 Q148 11 118.5 31.5 Q89 52 70.5 76 Q52 100 43 121 L43 421 Q52 442 70.5 466 Q89 490 118.5 510.5 Q148 531 188 544 Q228 557 281 557 Z M280 443 Q245 443 221.5 427.5 Q198 412 189 392 L189 151 Q198 131 221.5 115 Q245 99 280 99 Q316 99 340 115 Q364 131 372 151 L372 392 Q364 412 340 427.5 Q316 443 280 443 Z M453 601 L349 601 L280 699 L210 601 L106 601 L106 616 L186 764 L374 764 L453 616 L453 601 Z " />
<glyph glyph-name="otilde" unicode="&#xf5;" horiz-adv-x="561" d="M281 557 Q334 557 374 544 Q414 531 443 510.5 Q472 490 490.5 466 Q509 442 518 421 L518 121 Q509 100 490.5 76 Q472 52 443 31.5 Q414 11 374 -2 Q334 -15 281 -15 Q228 -15 188 -2 Q148 11 118.5 31.5 Q89 52 70.5 76 Q52 100 43 121 L43 421 Q52 442 70.5 466 Q89 490 118.5 510.5 Q148 531 188 544 Q228 557 281 557 Z M280 443 Q245 443 221.5 427.5 Q198 412 189 392 L189 151 Q198 131 221.5 115 Q245 99 280 99 Q316 99 340 115 Q364 131 372 151 L372 392 Q364 412 340 427.5 Q316 443 280 443 Z M208 747 Q235 747 253 739 Q271 731 285 722 Q299 713 311 705 Q323 697 338 697 Q366 697 371 722 L371 742 L457 742 L457 683 Q450 653 423.5 629 Q397 605 352 605 Q324 605 306 613 Q288 621 274 630 Q260 639 248.5 647 Q237 655 222 655 Q207 655 199 647 Q191 639 188 631 L188 611 L103 611 L103 669 Q110 701 137 724 Q164 747 208 747 Z " />
<glyph glyph-name="odieresis" unicode="&#xf6;" horiz-adv-x="561" d="M281 557 Q334 557 374 544 Q414 531 443 510.5 Q472 490 490.5 466 Q509 442 518 421 L518 121 Q509 100 490.5 76 Q472 52 443 31.5 Q414 11 374 -2 Q334 -15 281 -15 Q228 -15 188 -2 Q148 11 118.5 31.5 Q89 52 70.5 76 Q52 100 43 121 L43 421 Q52 442 70.5 466 Q89 490 118.5 510.5 Q148 531 188 544 Q228 557 281 557 Z M280 443 Q245 443 221.5 427.5 Q198 412 189 392 L189 151 Q198 131 221.5 115 Q245 99 280 99 Q316 99 340 115 Q364 131 372 151 L372 392 Q364 412 340 427.5 Q316 443 280 443 Z M170 743 Q204 743 220 732 Q236 721 242 714 L242 631 Q236 624 220 613 Q204 602 170 602 Q138 602 121 613 Q104 624 99 631 L99 714 Q104 721 121 732 Q138 743 170 743 Z M389 743 Q422 743 438.5 732 Q455 721 460 714 L460 631 Q455 624 438.5 613 Q422 602 389 602 Q356 602 339.5 613 Q323 624 317 631 L317 714 Q323 721 339.5 732 Q356 743 389 743 Z " />
<glyph glyph-name="omacron" unicode="&#x14d;" horiz-adv-x="561" d="M281 557 Q334 557 374 544 Q414 531 443 510.5 Q472 490 490.5 466 Q509 442 518 421 L518 121 Q509 100 490.5 76 Q472 52 443 31.5 Q414 11 374 -2 Q334 -15 281 -15 Q228 -15 188 -2 Q148 11 118.5 31.5 Q89 52 70.5 76 Q52 100 43 121 L43 421 Q52 442 70.5 466 Q89 490 118.5 510.5 Q148 531 188 544 Q228 557 281 557 Z M280 443 Q245 443 221.5 427.5 Q198 412 189 392 L189 151 Q198 131 221.5 115 Q245 99 280 99 Q316 99 340 115 Q364 131 372 151 L372 392 Q364 412 340 427.5 Q316 443 280 443 Z M108 627 L108 725 L452 725 L452 627 L108 627 Z " />
<glyph glyph-name="obreve" unicode="&#x14f;" horiz-adv-x="561" d="M281 557 Q334 557 374 544 Q414 531 443 510.5 Q472 490 490.5 466 Q509 442 518 421 L518 121 Q509 100 490.5 76 Q472 52 443 31.5 Q414 11 374 -2 Q334 -15 281 -15 Q228 -15 188 -2 Q148 11 118.5 31.5 Q89 52 70.5 76 Q52 100 43 121 L43 421 Q52 442 70.5 466 Q89 490 118.5 510.5 Q148 531 188 544 Q228 557 281 557 Z M280 443 Q245 443 221.5 427.5 Q198 412 189 392 L189 151 Q198 131 221.5 115 Q245 99 280 99 Q316 99 340 115 Q364 131 372 151 L372 392 Q364 412 340 427.5 Q316 443 280 443 Z M451 684 Q433 646 391 621 Q349 596 280 596 Q211 596 168.5 621 Q126 646 108 684 L108 745 L215 745 L215 707 Q219 698 234 685.5 Q249 673 280 673 Q311 673 325.5 685.5 Q340 698 344 707 L344 745 L451 745 L451 684 Z " />
<glyph glyph-name="ohungarumlaut" unicode="&#x151;" horiz-adv-x="561" d="M281 557 Q334 557 374 544 Q414 531 443 510.5 Q472 490 490.5 466 Q509 442 518 421 L518 121 Q509 100 490.5 76 Q472 52 443 31.5 Q414 11 374 -2 Q334 -15 281 -15 Q228 -15 188 -2 Q148 11 118.5 31.5 Q89 52 70.5 76 Q52 100 43 121 L43 421 Q52 442 70.5 466 Q89 490 118.5 510.5 Q148 531 188 544 Q228 557 281 557 Z M280 443 Q245 443 221.5 427.5 Q198 412 189 392 L189 151 Q198 131 221.5 115 Q245 99 280 99 Q316 99 340 115 Q364 131 372 151 L372 392 Q364 412 340 427.5 Q316 443 280 443 Z M230 598 L135 598 L135 613 L173 761 L286 761 L286 709 L230 598 Z M424 598 L330 598 L330 613 L368 761 L481 761 L481 709 L424 598 Z " />
<glyph glyph-name="oslash" unicode="&#xf8;" horiz-adv-x="561" d="M493 463 Q501 452 507 441.5 Q513 431 518 421 L518 121 Q509 100 490.5 76 Q472 52 443 31.5 Q414 11 374 -2 Q334 -15 281 -15 Q232 -15 194 -3.5 Q156 8 127 26 L106 0 L43 0 L43 49 L68 79 Q60 90 54 100.5 Q48 111 43 121 L43 421 Q52 442 70.5 466 Q89 490 118.5 510.5 Q148 531 188 544 Q228 557 281 557 Q330 557 367.5 545.5 Q405 534 434 517 L455 542 L518 542 L518 494 L493 463 Z M356 424 Q343 436 324 444 Q305 452 280 452 Q245 452 221.5 436 Q198 420 189 400 L189 224 L356 424 Z M205 119 Q217 107 236 99 Q255 91 280 91 Q316 91 340 106.5 Q364 122 372 142 L372 319 L205 119 Z " />
<glyph glyph-name="oe" unicode="&#x153;" horiz-adv-x="877" d="M518 149 Q528 129 551.5 113 Q575 97 610 97 Q649 97 673.5 114 Q698 131 713 166 L837 166 L837 103 Q830 89 813 68.5 Q796 48 768.5 29.5 Q741 11 701.5 -2 Q662 -15 609 -15 Q555 -15 514.5 -1.5 Q474 12 445 33 Q416 12 375.5 -1.5 Q335 -15 281 -15 Q228 -15 188 -2 Q148 11 118.5 31.5 Q89 52 70.5 76 Q52 100 43 121 L43 421 Q52 442 70.5 466 Q89 490 118.5 510.5 Q148 531 188 544 Q228 557 281 557 Q335 557 375.5 543.5 Q416 530 445 509 Q474 530 514.5 543.5 Q555 557 609 557 Q662 557 701.5 544 Q741 531 768.5 512.5 Q796 494 813 474 Q830 454 837 440 L837 232 L518 232 L518 149 Z M609 445 Q574 445 551 429.5 Q528 414 518 394 L518 330 L702 330 L702 394 Q693 414 669 429.5 Q645 445 609 445 Z M280 99 Q316 99 340 115 Q364 131 372 151 L372 392 Q364 412 340 427.5 Q316 443 280 443 Q245 443 221.5 427.5 Q198 412 189 392 L189 151 Q198 131 221.5 115 Q245 99 280 99 Z " />
<glyph glyph-name="racute" unicode="&#x155;" horiz-adv-x="379" d="M337 543 Q340 543 344.5 543 Q349 543 357 542 L357 408 Q349 409 343 409 Q337 409 332 409 Q279 409 245.5 396.5 Q212 384 196 367 L196 0 L49 0 L49 542 L186 542 L186 468 Q206 499 242 521 Q278 543 337 543 Z M257 604 L147 604 L147 619 L201 767 L336 767 L336 704 L257 604 Z " />
<glyph glyph-name="rcaron" unicode="&#x159;" horiz-adv-x="379" d="M337 543 Q340 543 344.5 543 Q349 543 357 542 L357 408 Q349 409 343 409 Q337 409 332 409 Q279 409 245.5 396.5 Q212 384 196 367 L196 0 L49 0 L49 542 L186 542 L186 468 Q206 499 242 521 Q278 543 337 543 Z M300 601 L112 601 L32 748 L32 764 L136 764 L206 666 L275 764 L379 764 L379 748 L300 601 Z " />
<glyph glyph-name="rcommaaccent" unicode="&#x157;" horiz-adv-x="379" d="M337 543 Q340 543 344.5 543 Q349 543 357 542 L357 408 Q349 409 343 409 Q337 409 332 409 Q279 409 245.5 396.5 Q212 384 196 367 L196 0 L49 0 L49 542 L186 542 L186 468 Q206 499 242 521 Q278 543 337 543 Z M122 -50 Q155 -50 173 -57.5 Q191 -65 197 -72 L197 -178 Q194 -186 187.5 -196 Q181 -206 169 -214.5 Q157 -223 140 -228.5 Q123 -234 101 -234 L53 -234 L53 -188 L88 -188 Q100 -188 110 -185 Q120 -182 125 -174 L125 -152 L122 -152 Q90 -152 71 -146.5 Q52 -141 47 -133 L47 -72 Q52 -65 71 -57.5 Q90 -50 122 -50 Z " />
<glyph glyph-name="sacute" unicode="&#x15b;" horiz-adv-x="506" d="M253 557 Q301 557 337.5 546 Q374 535 399.5 519.5 Q425 504 441 488 Q457 472 465 460 L465 400 L339 400 Q329 423 308 436.5 Q287 450 253 450 Q224 450 204 440 Q184 430 176 419 L176 369 Q184 357 201 348.5 Q218 340 244 335 L294 324 Q336 315 367 304 Q398 293 419.5 281 Q441 269 454 257 Q467 245 473 235 L473 89 Q465 77 448.5 59 Q432 41 405.5 24.5 Q379 8 341.5 -3.5 Q304 -15 253 -15 Q202 -15 164 -3.5 Q126 8 99.5 24.5 Q73 41 56.5 59 Q40 77 33 89 L33 149 L159 149 Q187 92 254 92 Q286 92 307.5 104.5 Q329 117 338 131 L338 177 Q330 191 312 199.5 Q294 208 268 213 L217 223 Q175 232 144.5 243.5 Q114 255 93 267 Q72 279 59.5 291.5 Q47 304 41 314 L41 460 Q48 471 63.5 487.5 Q79 504 105 519.5 Q131 535 167.5 546 Q204 557 253 557 Z M310 604 L200 604 L200 619 L254 767 L389 767 L389 704 L310 604 Z " />
<glyph glyph-name="scircumflex" unicode="&#x15d;" horiz-adv-x="506" d="M253 557 Q301 557 337.5 546 Q374 535 399.5 519.5 Q425 504 441 488 Q457 472 465 460 L465 400 L339 400 Q329 423 308 436.5 Q287 450 253 450 Q224 450 204 440 Q184 430 176 419 L176 369 Q184 357 201 348.5 Q218 340 244 335 L294 324 Q336 315 367 304 Q398 293 419.5 281 Q441 269 454 257 Q467 245 473 235 L473 89 Q465 77 448.5 59 Q432 41 405.5 24.5 Q379 8 341.5 -3.5 Q304 -15 253 -15 Q202 -15 164 -3.5 Q126 8 99.5 24.5 Q73 41 56.5 59 Q40 77 33 89 L33 149 L159 149 Q187 92 254 92 Q286 92 307.5 104.5 Q329 117 338 131 L338 177 Q330 191 312 199.5 Q294 208 268 213 L217 223 Q175 232 144.5 243.5 Q114 255 93 267 Q72 279 59.5 291.5 Q47 304 41 314 L41 460 Q48 471 63.5 487.5 Q79 504 105 519.5 Q131 535 167.5 546 Q204 557 253 557 Z M432 601 L328 601 L259 699 L189 601 L85 601 L85 616 L165 764 L353 764 L432 616 L432 601 Z " />
<glyph glyph-name="scaron" unicode="&#x161;" horiz-adv-x="506" d="M253 557 Q301 557 337.5 546 Q374 535 399.5 519.5 Q425 504 441 488 Q457 472 465 460 L465 400 L339 400 Q329 423 308 436.5 Q287 450 253 450 Q224 450 204 440 Q184 430 176 419 L176 369 Q184 357 201 348.5 Q218 340 244 335 L294 324 Q336 315 367 304 Q398 293 419.5 281 Q441 269 454 257 Q467 245 473 235 L473 89 Q465 77 448.5 59 Q432 41 405.5 24.5 Q379 8 341.5 -3.5 Q304 -15 253 -15 Q202 -15 164 -3.5 Q126 8 99.5 24.5 Q73 41 56.5 59 Q40 77 33 89 L33 149 L159 149 Q187 92 254 92 Q286 92 307.5 104.5 Q329 117 338 131 L338 177 Q330 191 312 199.5 Q294 208 268 213 L217 223 Q175 232 144.5 243.5 Q114 255 93 267 Q72 279 59.5 291.5 Q47 304 41 314 L41 460 Q48 471 63.5 487.5 Q79 504 105 519.5 Q131 535 167.5 546 Q204 557 253 557 Z M353 601 L165 601 L85 748 L85 764 L189 764 L259 666 L328 764 L432 764 L432 748 L353 601 Z " />
<glyph glyph-name="scedilla" unicode="&#x15f;" horiz-adv-x="506" d="M294 324 Q336 315 367 304 Q398 293 419.5 281 Q441 269 454 257 Q467 245 473 235 L473 89 Q466 78 451.5 62 Q437 46 414.5 30.5 Q392 15 360.5 3 Q329 -9 287 -13 L275 -44 L284 -44 Q322 -44 343 -60 Q364 -76 372 -93 L372 -169 Q359 -196 327 -212.5 Q295 -229 249 -229 Q216 -229 189 -223.5 Q162 -218 148 -210 L169 -147 Q186 -152 203.5 -155.5 Q221 -159 241 -159 Q260 -159 272 -153.5 Q284 -148 288 -140 L288 -117 Q279 -100 242 -100 L182 -100 L211 -13 Q171 -8 140.5 4.5 Q110 17 88.5 32 Q67 47 53.5 62.5 Q40 78 33 89 L33 149 L159 149 Q187 92 254 92 Q286 92 307.5 104.5 Q329 117 338 131 L338 177 Q330 191 312 199.5 Q294 208 268 213 L217 223 Q175 232 144.5 243.5 Q114 255 93 267 Q72 279 59.5 291.5 Q47 304 41 314 L41 460 Q48 471 63.5 487.5 Q79 504 105 519.5 Q131 535 167.5 546 Q204 557 253 557 Q301 557 337.5 546 Q374 535 399.5 519.5 Q425 504 441 487.5 Q457 471 465 460 L465 400 L339 400 Q329 423 308.5 436.5 Q288 450 253 450 Q223 450 203.5 440 Q184 430 176 419 L176 369 Q184 357 201 348.5 Q218 340 244 335 L294 324 Z " />
<glyph glyph-name="scommaaccent" unicode="&#x219;" horiz-adv-x="506" d="M253 557 Q301 557 337.5 546 Q374 535 399.5 519.5 Q425 504 441 488 Q457 472 465 460 L465 400 L339 400 Q329 423 308 436.5 Q287 450 253 450 Q224 450 204 440 Q184 430 176 419 L176 369 Q184 357 201 348.5 Q218 340 244 335 L294 324 Q336 315 367 304 Q398 293 419.5 281 Q441 269 454 257 Q467 245 473 235 L473 89 Q465 77 448.5 59 Q432 41 405.5 24.5 Q379 8 341.5 -3.5 Q304 -15 253 -15 Q202 -15 164 -3.5 Q126 8 99.5 24.5 Q73 41 56.5 59 Q40 77 33 89 L33 149 L159 149 Q187 92 254 92 Q286 92 307.5 104.5 Q329 117 338 131 L338 177 Q330 191 312 199.5 Q294 208 268 213 L217 223 Q175 232 144.5 243.5 Q114 255 93 267 Q72 279 59.5 291.5 Q47 304 41 314 L41 460 Q48 471 63.5 487.5 Q79 504 105 519.5 Q131 535 167.5 546 Q204 557 253 557 Z M257 -50 Q290 -50 308 -57.5 Q326 -65 332 -72 L332 -178 Q329 -186 322.5 -196 Q316 -206 304 -214.5 Q292 -223 275 -228.5 Q258 -234 236 -234 L188 -234 L188 -188 L223 -188 Q235 -188 245 -185 Q255 -182 260 -174 L260 -152 L257 -152 Q225 -152 206 -146.5 Q187 -141 182 -133 L182 -72 Q187 -65 206 -57.5 Q225 -50 257 -50 Z " />
<glyph glyph-name="germandbls" unicode="&#xdf;" horiz-adv-x="562" d="M282 715 Q332 715 370.5 703 Q409 691 436.5 674 Q464 657 481.5 638 Q499 619 507 606 L507 430 Q496 412 476.5 395 Q457 378 437 368 Q475 347 495 322.5 Q515 298 525 275 L525 121 Q511 91 491 68.5 Q471 46 441.5 31 Q412 16 371.5 8 Q331 0 277 0 L277 114 Q314 114 338 121 Q362 128 379 160 L379 253 Q367 281 341 293 Q315 305 286 305 L286 415 Q313 415 336.5 426 Q360 437 372 457 L372 556 Q360 576 336.5 588.5 Q313 601 282 601 Q249 601 227.5 587 Q206 573 196 556 L196 0 L50 0 L50 588 Q60 608 78.5 630.5 Q97 653 125.5 671.5 Q154 690 193 702.5 Q232 715 282 715 Z " />
<glyph glyph-name="tcaron" unicode="&#x165;" horiz-adv-x="440" d="M417 731 L370 599 L285 599 L285 615 L305 806 L417 806 L417 731 Z M223 133 Q226 129 231.5 123.5 Q237 118 247 112.5 Q257 107 271.5 103.5 Q286 100 307 100 Q319 100 329 101 Q339 102 343 102 L343 -1 Q332 -3 309.5 -7.5 Q287 -12 253 -12 Q211 -12 180.5 -3 Q150 6 129 19.5 Q108 33 95.5 49.5 Q83 66 77 82 L77 435 L22 435 L22 542 L77 542 L77 655 L223 655 L223 542 L327 542 L327 435 L223 435 L223 133 Z " />
<glyph glyph-name="uni021B" unicode="&#x21b;" horiz-adv-x="363" d="M307 100 Q319 100 329 101 Q339 102 343 102 L343 -1 Q330 -5 307.5 -8.5 Q285 -12 253 -12 Q211 -12 180.5 -3 Q150 6 129 19.5 Q108 33 95.5 49.5 Q83 66 77 82 L77 435 L22 435 L22 542 L77 542 L77 655 L223 655 L223 542 L327 542 L327 435 L223 435 L223 133 Q226 129 231.5 123.5 Q237 118 247 112.5 Q257 107 271.5 103.5 Q286 100 307 100 Z M216 -50 Q249 -50 267 -57.5 Q285 -65 291 -72 L291 -178 Q288 -186 281.5 -196 Q275 -206 263 -214.5 Q251 -223 234 -228.5 Q217 -234 195 -234 L147 -234 L147 -188 L182 -188 Q194 -188 204 -185 Q214 -182 219 -174 L219 -152 L216 -152 Q184 -152 165 -146.5 Q146 -141 141 -133 L141 -72 Q146 -65 165 -57.5 Q184 -50 216 -50 Z " />
<glyph glyph-name="tbar" unicode="&#x167;" horiz-adv-x="363" d="M307 100 Q319 100 329 101 Q339 102 343 102 L343 -1 Q332 -3 309.5 -7.5 Q287 -12 253 -12 Q211 -12 180.5 -3 Q150 6 129 19.5 Q108 33 95.5 49.5 Q83 66 77 82 L77 227 L22 227 L22 334 L77 334 L77 435 L22 435 L22 542 L77 542 L77 655 L223 655 L223 542 L327 542 L327 435 L223 435 L223 334 L327 334 L327 227 L223 227 L223 133 Q226 129 231.5 123.5 Q237 118 247 112.5 Q257 107 271.5 103.5 Q286 100 307 100 Z " />
<glyph glyph-name="ugrave" unicode="&#xf9;" horiz-adv-x="559" d="M509 0 L373 0 L373 47 Q349 22 314 5 Q279 -12 228 -12 Q187 -12 156 0.5 Q125 13 103.5 31.5 Q82 50 68 71 Q54 92 47 109 L47 542 L193 542 L193 144 Q199 132 220.5 117.5 Q242 103 276 103 Q308 103 329.5 113.5 Q351 124 363 137 L363 542 L509 542 L509 0 Z M337 604 L228 604 L148 704 L148 767 L282 767 L337 619 L337 604 Z " />
<glyph glyph-name="uacute" unicode="&#xfa;" horiz-adv-x="559" d="M509 0 L373 0 L373 47 Q349 22 314 5 Q279 -12 228 -12 Q187 -12 156 0.5 Q125 13 103.5 31.5 Q82 50 68 71 Q54 92 47 109 L47 542 L193 542 L193 144 Q199 132 220.5 117.5 Q242 103 276 103 Q308 103 329.5 113.5 Q351 124 363 137 L363 542 L509 542 L509 0 Z M331 604 L221 604 L221 619 L275 767 L410 767 L410 704 L331 604 Z " />
<glyph glyph-name="ucircumflex" unicode="&#xfb;" horiz-adv-x="559" d="M509 0 L373 0 L373 47 Q349 22 314 5 Q279 -12 228 -12 Q187 -12 156 0.5 Q125 13 103.5 31.5 Q82 50 68 71 Q54 92 47 109 L47 542 L193 542 L193 144 Q199 132 220.5 117.5 Q242 103 276 103 Q308 103 329.5 113.5 Q351 124 363 137 L363 542 L509 542 L509 0 Z M453 601 L349 601 L280 699 L210 601 L106 601 L106 616 L186 764 L374 764 L453 616 L453 601 Z " />
<glyph glyph-name="utilde" unicode="&#x169;" horiz-adv-x="559" d="M509 0 L373 0 L373 47 Q349 22 314 5 Q279 -12 228 -12 Q187 -12 156 0.5 Q125 13 103.5 31.5 Q82 50 68 71 Q54 92 47 109 L47 542 L193 542 L193 144 Q199 132 220.5 117.5 Q242 103 276 103 Q308 103 329.5 113.5 Q351 124 363 137 L363 542 L509 542 L509 0 Z M208 747 Q235 747 253 739 Q271 731 285 722 Q299 713 311 705 Q323 697 338 697 Q366 697 371 722 L371 742 L457 742 L457 683 Q450 653 423.5 629 Q397 605 352 605 Q324 605 306 613 Q288 621 274 630 Q260 639 248.5 647 Q237 655 222 655 Q207 655 199 647 Q191 639 188 631 L188 611 L103 611 L103 669 Q110 701 137 724 Q164 747 208 747 Z " />
<glyph glyph-name="udieresis" unicode="&#xfc;" horiz-adv-x="559" d="M509 0 L373 0 L373 47 Q349 22 314 5 Q279 -12 228 -12 Q187 -12 156 0.5 Q125 13 103.5 31.5 Q82 50 68 71 Q54 92 47 109 L47 542 L193 542 L193 144 Q199 132 220.5 117.5 Q242 103 276 103 Q308 103 329.5 113.5 Q351 124 363 137 L363 542 L509 542 L509 0 Z M170 743 Q204 743 220 732 Q236 721 242 714 L242 631 Q236 624 220 613 Q204 602 170 602 Q138 602 121 613 Q104 624 99 631 L99 714 Q104 721 121 732 Q138 743 170 743 Z M389 743 Q422 743 438.5 732 Q455 721 460 714 L460 631 Q455 624 438.5 613 Q422 602 389 602 Q356 602 339.5 613 Q323 624 317 631 L317 714 Q323 721 339.5 732 Q356 743 389 743 Z " />
<glyph glyph-name="umacron" unicode="&#x16b;" horiz-adv-x="559" d="M509 0 L373 0 L373 47 Q349 22 314 5 Q279 -12 228 -12 Q187 -12 156 0.5 Q125 13 103.5 31.5 Q82 50 68 71 Q54 92 47 109 L47 542 L193 542 L193 144 Q199 132 220.5 117.5 Q242 103 276 103 Q308 103 329.5 113.5 Q351 124 363 137 L363 542 L509 542 L509 0 Z M107 627 L107 725 L451 725 L451 627 L107 627 Z " />
<glyph glyph-name="ubreve" unicode="&#x16d;" horiz-adv-x="559" d="M509 0 L373 0 L373 47 Q349 22 314 5 Q279 -12 228 -12 Q187 -12 156 0.5 Q125 13 103.5 31.5 Q82 50 68 71 Q54 92 47 109 L47 542 L193 542 L193 144 Q199 132 220.5 117.5 Q242 103 276 103 Q308 103 329.5 113.5 Q351 124 363 137 L363 542 L509 542 L509 0 Z M451 684 Q433 646 391 621 Q349 596 280 596 Q211 596 168.5 621 Q126 646 108 684 L108 745 L215 745 L215 707 Q219 698 234 685.5 Q249 673 280 673 Q311 673 325.5 685.5 Q340 698 344 707 L344 745 L451 745 L451 684 Z " />
<glyph glyph-name="uring" unicode="&#x16f;" horiz-adv-x="559" d="M509 0 L373 0 L373 47 Q349 22 314 5 Q279 -12 228 -12 Q187 -12 156 0.5 Q125 13 103.5 31.5 Q82 50 68 71 Q54 92 47 109 L47 542 L193 542 L193 144 Q199 132 220.5 117.5 Q242 103 276 103 Q308 103 329.5 113.5 Q351 124 363 137 L363 542 L509 542 L509 0 Z M279 813 Q323 813 356 795.5 Q389 778 404 750 L404 655 Q389 627 356 609.5 Q323 592 279 592 Q234 592 201 609.5 Q168 627 154 655 L154 750 Q168 778 201 795.5 Q234 813 279 813 Z M279 754 Q254 754 240.5 746 Q227 738 222 730 L222 675 Q227 667 240.5 659 Q254 651 279 651 Q303 651 316.5 659 Q330 667 335 675 L335 730 Q330 738 316.5 746 Q303 754 279 754 Z " />
<glyph glyph-name="uhungarumlaut" unicode="&#x171;" horiz-adv-x="559" d="M509 0 L373 0 L373 47 Q349 22 314 5 Q279 -12 228 -12 Q187 -12 156 0.5 Q125 13 103.5 31.5 Q82 50 68 71 Q54 92 47 109 L47 542 L193 542 L193 144 Q199 132 220.5 117.5 Q242 103 276 103 Q308 103 329.5 113.5 Q351 124 363 137 L363 542 L509 542 L509 0 Z M230 598 L135 598 L135 613 L173 761 L286 761 L286 709 L230 598 Z M424 598 L330 598 L330 613 L368 761 L481 761 L481 709 L424 598 Z " />
<glyph glyph-name="uogonek" unicode="&#x173;" horiz-adv-x="559" d="M509 0 Q465 -37 444.5 -62.5 Q424 -88 419 -100 L419 -124 Q424 -131 436 -135.5 Q448 -140 463 -140 Q473 -140 484 -138.5 Q495 -137 509 -132 L509 -211 Q497 -217 479.5 -221 Q462 -225 433 -225 Q395 -225 361 -213.5 Q327 -202 313 -173 L313 -95 Q321 -78 341.5 -52 Q362 -26 396 0 L373 0 L373 47 Q349 22 314 5 Q279 -12 228 -12 Q187 -12 156 0.5 Q125 13 103.5 31.5 Q82 50 68 71 Q54 92 47 109 L47 542 L193 542 L193 144 Q200 133 219.5 118 Q239 103 276 103 Q308 103 329.5 113.5 Q351 124 363 137 L363 542 L509 542 L509 0 Z " />
<glyph glyph-name="wgrave" unicode="&#x1e81;" horiz-adv-x="797" d="M649 0 L488 0 L404 327 L401 327 L317 0 L151 0 L32 462 L32 542 L167 542 L247 161 L250 161 L344 542 L471 542 L563 161 L566 161 L646 542 L769 542 L769 462 L649 0 Z M455 604 L346 604 L266 704 L266 767 L400 767 L455 619 L455 604 Z " />
<glyph glyph-name="wacute" unicode="&#x1e83;" horiz-adv-x="797" d="M649 0 L488 0 L404 327 L401 327 L317 0 L151 0 L32 462 L32 542 L167 542 L247 161 L250 161 L344 542 L471 542 L563 161 L566 161 L646 542 L769 542 L769 462 L649 0 Z M450 604 L340 604 L340 619 L394 767 L529 767 L529 704 L450 604 Z " />
<glyph glyph-name="wcircumflex" unicode="&#x175;" horiz-adv-x="797" d="M649 0 L488 0 L404 327 L401 327 L317 0 L151 0 L32 462 L32 542 L167 542 L247 161 L250 161 L344 542 L471 542 L563 161 L566 161 L646 542 L769 542 L769 462 L649 0 Z M572 601 L468 601 L399 699 L329 601 L225 601 L225 616 L305 764 L493 764 L572 616 L572 601 Z " />
<glyph glyph-name="wdieresis" unicode="&#x1e85;" horiz-adv-x="797" d="M649 0 L488 0 L404 327 L401 327 L317 0 L151 0 L32 462 L32 542 L167 542 L247 161 L250 161 L344 542 L471 542 L563 161 L566 161 L646 542 L769 542 L769 462 L649 0 Z M289 743 Q323 743 339 732 Q355 721 361 714 L361 631 Q355 624 339 613 Q323 602 289 602 Q257 602 240 613 Q223 624 218 631 L218 714 Q223 721 240 732 Q257 743 289 743 Z M508 743 Q541 743 557.5 732 Q574 721 579 714 L579 631 Q574 624 557.5 613 Q541 602 508 602 Q475 602 458.5 613 Q442 624 436 631 L436 714 Q442 721 458.5 732 Q475 743 508 743 Z " />
<glyph glyph-name="ygrave" unicode="&#x1ef3;" horiz-adv-x="529" d="M501 462 L315 -97 Q289 -132 242 -153.5 Q195 -175 125 -175 Q97 -175 74.5 -172.5 Q52 -170 41 -166 L41 -62 Q50 -63 61 -63.5 Q72 -64 84 -64 Q129 -64 153 -53.5 Q177 -43 189 -30 L199 4 L30 461 L30 542 L165 542 L270 187 L273 187 L375 542 L501 542 L501 462 Z M319 604 L210 604 L130 704 L130 767 L264 767 L319 619 L319 604 Z " />
<glyph glyph-name="yacute" unicode="&#xfd;" horiz-adv-x="529" d="M501 462 L315 -97 Q289 -132 242 -153.5 Q195 -175 125 -175 Q97 -175 74.5 -172.5 Q52 -170 41 -166 L41 -62 Q50 -63 61 -63.5 Q72 -64 84 -64 Q129 -64 153 -53.5 Q177 -43 189 -30 L199 4 L30 461 L30 542 L165 542 L270 187 L273 187 L375 542 L501 542 L501 462 Z M314 604 L204 604 L204 619 L258 767 L393 767 L393 704 L314 604 Z " />
<glyph glyph-name="ycircumflex" unicode="&#x177;" horiz-adv-x="529" d="M501 462 L315 -97 Q289 -132 242 -153.5 Q195 -175 125 -175 Q97 -175 74.5 -172.5 Q52 -170 41 -166 L41 -62 Q50 -63 61 -63.5 Q72 -64 84 -64 Q129 -64 153 -53.5 Q177 -43 189 -30 L199 4 L30 461 L30 542 L165 542 L270 187 L273 187 L375 542 L501 542 L501 462 Z M435 601 L331 601 L262 699 L192 601 L88 601 L88 616 L168 764 L356 764 L435 616 L435 601 Z " />
<glyph glyph-name="ydieresis" unicode="&#xff;" horiz-adv-x="529" d="M501 462 L315 -97 Q289 -132 242 -153.5 Q195 -175 125 -175 Q97 -175 74.5 -172.5 Q52 -170 41 -166 L41 -62 Q50 -63 61 -63.5 Q72 -64 84 -64 Q129 -64 153 -53.5 Q177 -43 189 -30 L199 4 L30 461 L30 542 L165 542 L270 187 L273 187 L375 542 L501 542 L501 462 Z M152 743 Q186 743 202 732 Q218 721 224 714 L224 631 Q218 624 202 613 Q186 602 152 602 Q120 602 103 613 Q86 624 81 631 L81 714 Q86 721 103 732 Q120 743 152 743 Z M371 743 Q404 743 420.5 732 Q437 721 442 714 L442 631 Q437 624 420.5 613 Q404 602 371 602 Q338 602 321.5 613 Q305 624 299 631 L299 714 Q305 721 321.5 732 Q338 743 371 743 Z " />
<glyph glyph-name="zacute" unicode="&#x17a;" horiz-adv-x="486" d="M195 109 L459 109 L459 0 L28 0 L28 101 L285 434 L36 434 L36 542 L459 542 L459 448 L195 109 Z M291 604 L181 604 L181 619 L235 767 L370 767 L370 704 L291 604 Z " />
<glyph glyph-name="zcaron" unicode="&#x17e;" horiz-adv-x="486" d="M195 109 L459 109 L459 0 L28 0 L28 101 L285 434 L36 434 L36 542 L459 542 L459 448 L195 109 Z M334 601 L146 601 L66 748 L66 764 L170 764 L240 666 L309 764 L413 764 L413 748 L334 601 Z " />
<glyph glyph-name="zdotaccent" unicode="&#x17c;" horiz-adv-x="486" d="M195 109 L459 109 L459 0 L28 0 L28 101 L285 434 L36 434 L36 542 L459 542 L459 448 L195 109 Z M241 745 Q273 745 292.5 732.5 Q312 720 319 705 L319 643 Q312 628 292.5 615.5 Q273 603 241 603 Q209 603 189 615.5 Q169 628 162 643 L162 705 Q169 720 189 732.5 Q209 745 241 745 Z " />
<glyph glyph-name="eng" unicode="&#x14b;" horiz-adv-x="565" d="M334 554 Q376 554 407 541.5 Q438 529 460.5 511 Q483 493 497 471.5 Q511 450 518 432 L518 -38 Q509 -59 490.5 -83 Q472 -107 443 -127.5 Q414 -148 374 -161 Q334 -174 281 -174 L281 -61 Q316 -61 339 -43.5 Q362 -26 371 -3 L371 398 Q364 410 343 424.5 Q322 439 286 439 Q254 439 231.5 428.5 Q209 418 196 404 L196 0 L50 0 L50 542 L186 542 L186 494 Q211 520 247 537 Q283 554 334 554 Z " />
<glyph glyph-name="eth" unicode="&#xf0;" horiz-adv-x="561" d="M474 587 Q503 554 518 521 L518 121 Q509 100 490.5 76 Q472 52 443 31.5 Q414 11 374 -2 Q334 -15 281 -15 Q228 -15 188 -2 Q148 11 118.5 31.5 Q89 52 70.5 76 Q52 100 43 121 L43 340 Q50 362 65.5 385.5 Q81 409 106 428.5 Q131 448 164.5 460.5 Q198 473 240 473 Q288 473 317.5 461.5 Q347 450 372 433 L372 489 Q367 503 357 516 Q347 529 334 541 L180 491 L180 569 L260 595 Q229 613 196 627.5 Q163 642 133 653 L208 734 Q259 720 311 696.5 Q363 673 407 643 L518 679 L518 601 L474 587 Z M372 323 Q361 337 338 348.5 Q315 360 281 360 Q246 360 222 345 Q198 330 189 310 L189 151 Q198 131 221.5 115 Q245 99 280 99 Q316 99 340 115 Q364 131 372 151 L372 323 Z " />
<glyph glyph-name="thorn" unicode="&#xfe;" horiz-adv-x="559" d="M333 554 Q375 554 406.5 541.5 Q438 529 460 511 Q482 493 496 471.5 Q510 450 517 432 L517 111 Q510 93 496 71.5 Q482 50 460 31.5 Q438 13 406.5 0.5 Q375 -12 333 -12 Q287 -12 253 2 Q219 16 196 39 L196 -166 L50 -166 L50 700 L196 700 L196 503 Q219 526 253 540 Q287 554 333 554 Z M370 398 Q363 410 342.5 424.5 Q322 439 285 439 Q254 439 231.5 429.5 Q209 420 196 406 L196 137 Q209 123 231.5 113 Q254 103 286 103 Q322 103 342.5 118 Q363 133 370 144 L370 398 Z " />
<glyph glyph-name="longs" unicode="&#x17f;" horiz-adv-x="334" d="M225 715 Q257 715 281.5 711 Q306 707 315 703 L315 600 Q310 601 301 602 Q292 603 280 603 Q258 603 243.5 599.5 Q229 596 219.5 590.5 Q210 585 204.5 579 Q199 573 196 569 L196 0 L49 0 L49 620 Q55 636 67.5 653 Q80 670 101 683.5 Q122 697 152.5 706 Q183 715 225 715 Z " />
<glyph glyph-name="fi" unicode="&#xfb01;" horiz-adv-x="601" d="M253 728 Q285 728 309 724 Q333 720 343 717 L343 616 Q333 618 307 618 Q285 618 270 614.5 Q255 611 245.5 605.5 Q236 600 231 594.5 Q226 589 223 585 L223 542 L327 542 L327 435 L223 435 L223 0 L77 0 L77 435 L22 435 L22 542 L77 542 L77 634 Q83 650 95.5 666.5 Q108 683 129 696.5 Q150 710 180.5 719 Q211 728 253 728 Z M402 0 L402 542 L548 542 L548 0 L402 0 Z M475 745 Q507 745 526.5 732.5 Q546 720 553 705 L553 643 Q546 628 526.5 615.5 Q507 603 475 603 Q443 603 423 615.5 Q403 628 396 643 L396 705 Q403 720 423 732.5 Q443 745 475 745 Z " />
<glyph glyph-name="fl" unicode="&#xfb02;" horiz-adv-x="595" d="M253 728 Q285 728 309 724 Q333 720 343 717 L343 616 Q333 618 307 618 Q285 618 270 614.5 Q255 611 245.5 605.5 Q236 600 231 594.5 Q226 589 223 585 L223 542 L327 542 L327 435 L223 435 L223 0 L77 0 L77 435 L22 435 L22 542 L77 542 L77 634 Q83 650 95.5 666.5 Q108 683 129 696.5 Q150 710 180.5 719 Q211 728 253 728 Z M399 0 L399 700 L545 700 L545 0 L399 0 Z " />
<glyph glyph-name="ampersand" unicode="&#x26;" horiz-adv-x="684" d="M666 0 L580 0 L520 57 Q484 25 435 5 Q386 -15 313 -15 Q254 -15 209 -2 Q164 11 131.5 30.5 Q99 50 78 74 Q57 98 47 121 L47 275 Q63 307 94.5 337 Q126 367 177 385 Q148 413 128 434 Q108 455 98 471 L98 598 Q107 613 125 633 Q143 653 171.5 671 Q200 689 239 701.5 Q278 714 329 714 Q380 714 419 701.5 Q458 689 486 671 Q514 653 532.5 633 Q551 613 560 598 L560 536 L426 536 Q422 548 414.5 559.5 Q407 571 395 581 Q383 591 366.5 597 Q350 603 329 603 Q297 603 275.5 591 Q254 579 245 568 L245 504 Q251 490 264.5 476 Q278 462 292 448 L463 284 L463 384 L591 384 L591 162 L666 90 L666 0 Z M193 153 Q205 128 240 112.5 Q275 97 317 97 Q355 97 383 108 Q411 119 433 141 L264 302 Q239 296 220 282.5 Q201 269 193 252 L193 153 Z " />
<glyph glyph-name="grave" unicode="&#x60;" horiz-adv-x="460" d="M325 604 L216 604 L136 704 L136 767 L270 767 L325 619 L325 604 Z " />
<glyph glyph-name="acute" unicode="&#xb4;" horiz-adv-x="460" d="M245 604 L135 604 L135 619 L189 767 L324 767 L324 704 L245 604 Z " />
<glyph glyph-name="circumflex" unicode="&#x2c6;" horiz-adv-x="460" d="M403 601 L299 601 L230 699 L160 601 L56 601 L56 616 L136 764 L324 764 L403 616 L403 601 Z " />
<glyph glyph-name="caron" unicode="&#x2c7;" horiz-adv-x="460" d="M324 601 L136 601 L56 748 L56 764 L160 764 L230 666 L299 764 L403 764 L403 748 L324 601 Z " />
<glyph glyph-name="tilde" unicode="&#x2dc;" horiz-adv-x="460" d="M158 747 Q185 747 203 739 Q221 731 235 722 Q249 713 261 705 Q273 697 288 697 Q316 697 321 722 L321 742 L407 742 L407 683 Q400 653 373.5 629 Q347 605 302 605 Q274 605 256 613 Q238 621 224 630 Q210 639 198.5 647 Q187 655 172 655 Q157 655 149 647 Q141 639 138 631 L138 611 L53 611 L53 669 Q60 701 87 724 Q114 747 158 747 Z " />
<glyph glyph-name="dieresis" unicode="&#xa8;" horiz-adv-x="460" d="M121 743 Q155 743 171 732 Q187 721 193 714 L193 631 Q187 624 171 613 Q155 602 121 602 Q89 602 72 613 Q55 624 50 631 L50 714 Q55 721 72 732 Q89 743 121 743 Z M340 743 Q373 743 389.5 732 Q406 721 411 714 L411 631 Q406 624 389.5 613 Q373 602 340 602 Q307 602 290.5 613 Q274 624 268 631 L268 714 Q274 721 290.5 732 Q307 743 340 743 Z " />
<glyph glyph-name="breve" unicode="&#x2d8;" horiz-adv-x="460" d="M401 684 Q383 646 341 621 Q299 596 230 596 Q161 596 118.5 621 Q76 646 58 684 L58 745 L165 745 L165 707 Q169 698 184 685.5 Q199 673 230 673 Q261 673 275.5 685.5 Q290 698 294 707 L294 745 L401 745 L401 684 Z " />
<glyph glyph-name="ring" unicode="&#x2da;" horiz-adv-x="460" d="M230 813 Q274 813 307 795.5 Q340 778 355 750 L355 655 Q340 627 307 609.5 Q274 592 230 592 Q185 592 152 609.5 Q119 627 105 655 L105 750 Q119 778 152 795.5 Q185 813 230 813 Z M230 754 Q205 754 191.5 746 Q178 738 173 730 L173 675 Q178 667 191.5 659 Q205 651 230 651 Q254 651 267.5 659 Q281 667 286 675 L286 730 Q281 738 267.5 746 Q254 754 230 754 Z " />
<glyph glyph-name="hungarumlaut" unicode="&#x2dd;" horiz-adv-x="460" d="M154 598 L59 598 L59 613 L97 761 L210 761 L210 709 L154 598 Z M348 598 L254 598 L254 613 L292 761 L405 761 L405 709 L348 598 Z " />
<glyph glyph-name="dotaccent" unicode="&#x2d9;" horiz-adv-x="460" d="M230 745 Q262 745 281.5 732.5 Q301 720 308 705 L308 643 Q301 628 281.5 615.5 Q262 603 230 603 Q198 603 178 615.5 Q158 628 151 643 L151 705 Q158 720 178 732.5 Q198 745 230 745 Z " />
<glyph glyph-name="cedilla" unicode="&#xb8;" horiz-adv-x="460" d="M256 -43 Q294 -43 315 -59 Q336 -75 344 -93 L344 -169 Q331 -196 299 -212 Q267 -228 221 -228 Q188 -228 161 -222.5 Q134 -217 120 -209 L141 -147 Q158 -152 175.5 -155.5 Q193 -159 213 -159 Q232 -159 244 -153 Q256 -147 260 -139 L260 -116 Q252 -100 214 -100 L154 -100 L189 5 L266 5 L248 -43 L256 -43 Z " />
<glyph glyph-name="ogonek" unicode="&#x2db;" horiz-adv-x="460" d="M331 0 Q308 -21 294 -37.5 Q280 -54 272 -66 Q264 -78 260 -86 Q256 -94 254 -100 L254 -124 Q259 -131 270.5 -135.5 Q282 -140 297 -140 Q307 -140 318 -138.5 Q329 -137 343 -132 L343 -211 Q332 -217 314.5 -221 Q297 -225 268 -225 Q229 -225 195.5 -213.5 Q162 -202 148 -173 L148 -95 Q152 -85 161.5 -71 Q171 -57 185 -41 Q199 -25 218 -9 Q237 7 261 21 L331 0 Z " />
<glyph glyph-name="comma" unicode="&#x2c;" horiz-adv-x="223" d="M111 146 Q144 146 164 132.5 Q184 119 189 105 L189 -57 Q186 -66 178 -78 Q170 -90 156.5 -101.5 Q143 -113 125 -121 Q107 -129 84 -129 L47 -129 L47 -66 L76 -66 Q86 -66 96 -59.5 Q106 -53 111 -44 L111 -14 Q78 -14 59 -0.5 Q40 13 33 27 L33 105 Q40 119 59 132.5 Q78 146 111 146 Z " />
<glyph glyph-name="semicolon" unicode="&#x3b;" horiz-adv-x="237" d="M118 146 Q151 146 171 132.5 Q191 119 196 105 L196 -57 Q193 -66 185 -78 Q177 -90 163.5 -101.5 Q150 -113 132 -121 Q114 -129 91 -129 L54 -129 L54 -66 L83 -66 Q93 -66 103 -59.5 Q113 -53 118 -44 L118 -14 Q85 -14 66 -0.5 Q47 13 40 27 L40 105 Q47 119 66 132.5 Q85 146 118 146 Z M118 513 Q152 513 171.5 499.5 Q191 486 196 472 L196 396 Q191 382 171.5 369 Q152 356 118 356 Q85 356 66 369 Q47 382 40 396 L40 472 Q47 486 66 499.5 Q85 513 118 513 Z " />
<glyph glyph-name="colon" unicode="&#x3a;" horiz-adv-x="237" d="M118 146 Q152 146 171.5 132.5 Q191 119 196 105 L196 29 Q191 15 171.5 2 Q152 -11 118 -11 Q85 -11 66 2 Q47 15 40 29 L40 105 Q47 119 66 132.5 Q85 146 118 146 Z M118 513 Q152 513 171.5 499.5 Q191 486 196 472 L196 396 Q191 382 171.5 369 Q152 356 118 356 Q85 356 66 369 Q47 382 40 396 L40 472 Q47 486 66 499.5 Q85 513 118 513 Z " />
<glyph glyph-name="period" unicode="&#x2e;" horiz-adv-x="223" d="M111 146 Q145 146 164.5 132.5 Q184 119 189 105 L189 29 Q184 15 164.5 2 Q145 -11 111 -11 Q78 -11 59 2 Q40 15 33 29 L33 105 Q40 119 59 132.5 Q78 146 111 146 Z " />
<glyph glyph-name="ellipsis" unicode="&#x2026;" horiz-adv-x="655" d="M111 144 Q145 144 164.5 130.5 Q184 117 189 103 L189 29 Q184 15 164.5 2 Q145 -11 111 -11 Q78 -11 59 2 Q40 15 33 29 L33 103 Q40 117 59 130.5 Q78 144 111 144 Z M327 144 Q362 144 381 130.5 Q400 117 406 103 L406 29 Q400 15 381 2 Q362 -11 327 -11 Q295 -11 275.5 2 Q256 15 250 29 L250 103 Q256 117 275.5 130.5 Q295 144 327 144 Z M543 144 Q578 144 597 130.5 Q616 117 622 103 L622 29 Q616 15 597 2 Q578 -11 543 -11 Q511 -11 491.5 2 Q472 15 466 29 L466 103 Q472 117 491.5 130.5 Q511 144 543 144 Z " />
<glyph glyph-name="hyphen" unicode="&#x2d;" horiz-adv-x="366" d="M35 277 L35 393 L332 393 L332 277 L35 277 Z " />
<glyph glyph-name="exclam" unicode="&#x21;" horiz-adv-x="287" d="M208 189 L80 189 L61 557 L61 700 L226 700 L226 557 L208 189 Z M143 139 Q177 139 196.5 126 Q216 113 221 99 L221 29 Q216 15 196.5 2 Q177 -11 143 -11 Q110 -11 91 2 Q72 15 65 29 L65 99 Q72 113 91 126 Q110 139 143 139 Z " />
<glyph glyph-name="exclamdown" unicode="&#xa1;" horiz-adv-x="287" d="M79 355 L207 355 L226 -13 L226 -156 L61 -156 L61 -13 L79 355 Z M144 405 Q110 405 90.5 418 Q71 431 66 445 L66 515 Q71 529 90.5 542 Q110 555 144 555 Q177 555 196 542 Q215 529 222 515 L222 445 Q215 431 196 418 Q177 405 144 405 Z " />
<glyph glyph-name="question" unicode="&#x3f;" horiz-adv-x="540" d="M263 715 Q319 715 361 702 Q403 689 433.5 670 Q464 651 483 629.5 Q502 608 513 590 L513 419 Q502 399 478 379 Q454 359 434 345 L299 251 L299 196 L149 196 L149 308 L291 406 Q316 423 335 438.5 Q354 454 361 470 L361 545 Q349 564 323.5 578 Q298 592 263 592 Q222 592 195.5 574 Q169 556 160 531 L26 531 L26 607 Q37 622 56 641 Q75 660 104 676.5 Q133 693 172.5 704 Q212 715 263 715 Z M224 146 Q258 146 277.5 132.5 Q297 119 302 105 L302 29 Q297 15 277.5 2 Q258 -11 224 -11 Q191 -11 172 2 Q153 15 146 29 L146 105 Q153 119 172 132.5 Q191 146 224 146 Z " />
<glyph glyph-name="questiondown" unicode="&#xbf;" horiz-adv-x="540" d="M277 -169 Q221 -169 179 -156 Q137 -143 106.5 -124 Q76 -105 57 -83.5 Q38 -62 27 -44 L27 127 Q38 147 62 167 Q86 187 106 201 L241 295 L241 350 L391 350 L391 238 L249 140 Q224 123 205 107.5 Q186 92 179 76 L179 1 Q191 -18 216.5 -32 Q242 -46 277 -46 Q318 -46 344.5 -28 Q371 -10 380 15 L514 15 L514 -61 Q503 -76 484 -95 Q465 -114 436 -130.5 Q407 -147 367.5 -158 Q328 -169 277 -169 Z M316 400 Q282 400 262.5 413.5 Q243 427 238 441 L238 517 Q243 531 262.5 544 Q282 557 316 557 Q349 557 368 544 Q387 531 394 517 L394 441 Q387 427 368 413.5 Q349 400 316 400 Z " />
<glyph glyph-name="quoteleft" unicode="&#x2018;" horiz-adv-x="224" d="M113 436 Q80 436 60 449.5 Q40 463 35 477 L35 639 Q38 648 46 660 Q54 672 67.5 683.5 Q81 695 99 703 Q117 711 140 711 L177 711 L177 648 L148 648 Q138 648 128 641.5 Q118 635 113 626 L113 596 Q146 596 165 582.5 Q184 569 191 555 L191 477 Q184 463 165 449.5 Q146 436 113 436 Z " />
<glyph glyph-name="quoteright" unicode="&#x2019;" horiz-adv-x="224" d="M112 715 Q145 715 165 701.5 Q185 688 190 674 L190 512 Q187 503 179 491 Q171 479 157.5 467.5 Q144 456 126 448 Q108 440 85 440 L48 440 L48 503 L77 503 Q87 503 97 509.5 Q107 516 112 525 L112 555 Q79 555 60 568.5 Q41 582 34 596 L34 674 Q41 688 60 701.5 Q79 715 112 715 Z " />
<glyph glyph-name="quotedblleft" unicode="&#x201c;" horiz-adv-x="438" d="M113 437 Q80 437 60 450.5 Q40 464 35 478 L35 640 Q38 649 46 661 Q54 673 67.5 684.5 Q81 696 99 704 Q117 712 140 712 L177 712 L177 649 L148 649 Q138 649 128 642.5 Q118 636 113 627 L113 597 Q146 597 165 583.5 Q184 570 191 556 L191 478 Q184 464 165 450.5 Q146 437 113 437 Z M326 437 Q293 437 273 450.5 Q253 464 248 478 L248 640 Q251 649 259 661 Q267 673 280.5 684.5 Q294 696 312 704 Q330 712 353 712 L390 712 L390 649 L361 649 Q351 649 341 642.5 Q331 636 326 627 L326 597 Q359 597 378 583.5 Q397 570 404 556 L404 478 Q397 464 378 450.5 Q359 437 326 437 Z " />
<glyph glyph-name="quotedblright" unicode="&#x201d;" horiz-adv-x="438" d="M112 715 Q145 715 165 701.5 Q185 688 190 674 L190 512 Q187 503 179 491 Q171 479 157.5 467.5 Q144 456 126 448 Q108 440 85 440 L48 440 L48 503 L77 503 Q87 503 97 509.5 Q107 516 112 525 L112 555 Q79 555 60 568.5 Q41 582 34 596 L34 674 Q41 688 60 701.5 Q79 715 112 715 Z M325 715 Q358 715 378 701.5 Q398 688 403 674 L403 512 Q400 503 392 491 Q384 479 370.5 467.5 Q357 456 339 448 Q321 440 298 440 L261 440 L261 503 L290 503 Q300 503 310 509.5 Q320 516 325 525 L325 555 Q292 555 273 568.5 Q254 582 247 596 L247 674 Q254 688 273 701.5 Q292 715 325 715 Z " />
<glyph glyph-name="quotesinglbase" unicode="&#x201a;" horiz-adv-x="224" d="M112 146 Q145 146 165 132.5 Q185 119 190 105 L190 -57 Q187 -66 179 -78 Q171 -90 157.5 -101.5 Q144 -113 126 -121 Q108 -129 85 -129 L48 -129 L48 -66 L77 -66 Q87 -66 97 -59.5 Q107 -53 112 -44 L112 -14 Q79 -14 60 -0.5 Q41 13 34 27 L34 105 Q41 119 60 132.5 Q79 146 112 146 Z " />
<glyph glyph-name="quotedblbase" unicode="&#x201e;" horiz-adv-x="439" d="M112 146 Q145 146 165 132.5 Q185 119 190 105 L190 -57 Q187 -66 179 -78 Q171 -90 157.5 -101.5 Q144 -113 126 -121 Q108 -129 85 -129 L48 -129 L48 -66 L77 -66 Q87 -66 97 -59.5 Q107 -53 112 -44 L112 -14 Q79 -14 60 -0.5 Q41 13 34 27 L34 105 Q41 119 60 132.5 Q79 146 112 146 Z M326 146 Q359 146 379 132.5 Q399 119 404 105 L404 -57 Q401 -66 393 -78 Q385 -90 371.5 -101.5 Q358 -113 340 -121 Q322 -129 299 -129 L262 -129 L262 -66 L291 -66 Q301 -66 311 -59.5 Q321 -53 326 -44 L326 -14 Q293 -14 274 -0.5 Q255 13 248 27 L248 105 Q255 119 274 132.5 Q293 146 326 146 Z " />
<glyph glyph-name="guilsinglleft" unicode="&#x2039;" horiz-adv-x="354" d="M154 288 L315 111 L315 33 L209 33 L35 231 L35 344 L209 542 L315 542 L315 465 L154 288 Z " />
<glyph glyph-name="guilsinglright" unicode="&#x203a;" horiz-adv-x="354" d="M319 231 L146 33 L39 33 L39 111 L199 288 L39 465 L39 542 L146 542 L319 344 L319 231 Z " />
<glyph glyph-name="guillemotleft" unicode="&#xab;" horiz-adv-x="624" d="M154 288 L315 111 L315 33 L209 33 L35 231 L35 344 L209 542 L315 542 L315 465 L154 288 Z M426 288 L586 111 L586 33 L480 33 L306 231 L306 344 L480 542 L586 542 L586 465 L426 288 Z " />
<glyph glyph-name="guillemotright" unicode="&#xbb;" horiz-adv-x="624" d="M319 231 L146 33 L39 33 L39 111 L199 288 L39 465 L39 542 L146 542 L319 344 L319 231 Z M590 231 L417 33 L309 33 L309 111 L470 288 L309 465 L309 542 L417 542 L590 344 L590 231 Z " />
<glyph glyph-name="slash" unicode="&#x2f;" horiz-adv-x="411" d="M163 -110 L39 -110 L39 -32 L247 731 L371 731 L371 653 L163 -110 Z " />
<glyph glyph-name="bar" unicode="&#x7c;" horiz-adv-x="320" d="M81 -130 L81 790 L238 790 L238 -130 L81 -130 Z " />
<glyph glyph-name="endash" unicode="&#x2013;" horiz-adv-x="566" d="M35 277 L35 393 L532 393 L532 277 L35 277 Z " />
<glyph glyph-name="emdash" unicode="&#x2014;" horiz-adv-x="866" d="M35 277 L35 393 L832 393 L832 277 L35 277 Z " />
<glyph glyph-name="bullet" unicode="&#x2022;" horiz-adv-x="350" d="M174 475 Q219 475 251.5 458 Q284 441 301 415 L301 277 Q284 250 251.5 232.5 Q219 215 174 215 Q129 215 96.5 233.5 Q64 252 49 278 L49 415 Q64 439 96.5 457 Q129 475 174 475 Z " />
<glyph glyph-name="parenleft" unicode="&#x28;" horiz-adv-x="362" d="M320 594 Q296 594 278 587 Q260 580 247 568 Q234 556 225.5 541 Q217 526 213 510 L213 22 Q222 -10 247.5 -36 Q273 -62 320 -62 L330 -62 L330 -168 L320 -168 Q261 -168 215.5 -153 Q170 -138 137 -114 Q104 -90 82.5 -60.5 Q61 -31 50 -2 L50 534 Q61 563 82.5 592.5 Q104 622 137 646 Q170 670 215.5 685 Q261 700 320 700 L330 700 L330 594 L320 594 Z " />
<glyph glyph-name="parenright" unicode="&#x29;" horiz-adv-x="362" d="M42 700 Q101 700 146.5 685 Q192 670 225 646 Q258 622 279.5 592.5 Q301 563 312 534 L312 -2 Q301 -31 279.5 -60.5 Q258 -90 225 -114 Q192 -138 146.5 -153 Q101 -168 42 -168 L32 -168 L32 -62 L42 -62 Q88 -62 114 -36 Q140 -10 149 22 L149 510 Q144 526 136 541 Q128 556 115 568 Q102 580 84 587 Q66 594 42 594 L32 594 L32 700 L42 700 Z " />
<glyph glyph-name="bracketleft" unicode="&#x5b;" horiz-adv-x="368" d="M216 594 L216 -62 L330 -62 L330 -168 L58 -168 L58 700 L330 700 L330 594 L216 594 Z " />
<glyph glyph-name="bracketright" unicode="&#x5d;" horiz-adv-x="368" d="M38 -168 L38 -62 L151 -62 L151 594 L38 594 L38 700 L309 700 L309 -168 L38 -168 Z " />
<glyph glyph-name="braceleft" unicode="&#x7b;" horiz-adv-x="381" d="M244 345 Q224 290 177 261 Q224 232 244 177 L244 24 Q248 5 255 -12.5 Q262 -30 274.5 -43 Q287 -56 305.5 -64 Q324 -72 351 -72 L351 -178 Q292 -178 246.5 -163 Q201 -148 168 -124.5 Q135 -101 113.5 -71.5 Q92 -42 81 -12 L81 157 Q76 189 60.5 198.5 Q45 208 25 208 L25 314 Q45 314 60.5 323.5 Q76 333 81 365 L81 534 Q92 563 113.5 592.5 Q135 622 168 646 Q201 670 246.5 685 Q292 700 351 700 L351 594 Q324 594 305.5 586 Q287 578 274.5 565 Q262 552 255 534.5 Q248 517 244 498 L244 345 Z " />
<glyph glyph-name="braceright" unicode="&#x7d;" horiz-adv-x="381" d="M300 365 Q305 333 320.5 323.5 Q336 314 356 314 L356 208 Q336 208 320.5 198.5 Q305 189 300 157 L300 -12 Q289 -42 267.5 -71.5 Q246 -101 213 -124.5 Q180 -148 134.5 -163 Q89 -178 30 -178 L30 -72 Q57 -72 75.5 -64 Q94 -56 106.5 -43 Q119 -30 126 -12.5 Q133 5 137 24 L137 177 Q157 232 204 261 Q157 290 137 345 L137 498 Q133 517 126 534.5 Q119 552 106.5 565 Q94 578 75.5 586 Q57 594 30 594 L30 700 Q89 700 134.5 685 Q180 670 213 646 Q246 622 267.5 592.5 Q289 563 300 534 L300 365 Z " />
<glyph glyph-name="asterisk" unicode="&#x2a;" horiz-adv-x="492" d="M450 606 Q455 592 457 576 Q459 560 455 544 L307 520 L413 413 Q407 399 396 386.5 Q385 374 372 365 Q360 355 345.5 348.5 Q331 342 314 341 L246 472 L178 341 Q162 342 147 348.5 Q132 355 120 365 Q107 374 96 386.5 Q85 399 79 413 L185 520 L37 544 Q33 560 35 576 Q37 592 42 606 Q47 621 55.5 635 Q64 649 75 660 L207 593 L185 739 Q199 747 214.5 750.5 Q230 754 246 754 Q262 754 277.5 750.5 Q293 747 307 739 L284 593 L417 660 Q428 649 436.5 635 Q445 621 450 606 Z " />
<glyph glyph-name="dagger" unicode="&#x2020;" horiz-adv-x="644" d="M615 347 L519 347 L395 358 L381 -168 L259 -168 L246 358 L124 347 L29 347 L29 478 L124 478 L243 467 L241 557 L241 700 L400 700 L400 557 L398 467 L519 478 L615 478 L615 347 Z " />
<glyph glyph-name="daggerdbl" unicode="&#x2021;" horiz-adv-x="664" d="M391 196 L519 208 L615 208 L615 77 L519 77 L388 89 L381 -168 L259 -168 L253 89 L124 77 L29 77 L29 208 L124 208 L250 196 L245 388 L124 377 L29 377 L29 508 L124 508 L242 497 L241 557 L241 700 L400 700 L400 557 L398 497 L519 508 L615 508 L615 377 L519 377 L396 388 L391 196 Z " />
<glyph glyph-name="section" unicode="&#xa7;" horiz-adv-x="524" d="M261 614 Q229 614 208 601.5 Q187 589 178 575 L178 528 Q186 514 204 506 Q222 498 247 493 L302 480 Q344 472 375 460.5 Q406 449 427.5 437 Q449 425 462 413 Q475 401 481 391 L481 247 Q474 236 461 222 Q448 208 427 194 Q450 181 462.5 169 Q475 157 481 146 L481 11 Q473 0 457 -18 Q441 -36 414.5 -52.5 Q388 -69 350 -81 Q312 -93 261 -93 Q210 -93 172 -81 Q134 -69 107.5 -52 Q81 -35 65 -17.5 Q49 0 42 11 L42 62 L173 62 Q177 42 200.5 25 Q224 8 262 8 Q294 8 315.5 20.5 Q337 33 345 47 L345 94 Q338 108 319.5 116 Q301 124 276 129 L221 142 Q179 151 148 162 Q117 173 95.5 185 Q74 197 61 209 Q48 221 42 231 L42 375 Q49 386 62 400 Q75 414 96 428 Q74 441 61 453 Q48 465 42 476 L42 611 Q49 622 65.5 640 Q82 658 108.5 674.5 Q135 691 173 703 Q211 715 262 715 Q313 715 351.5 703 Q390 691 416.5 674.5 Q443 658 458.5 640 Q474 622 481 611 L481 560 L351 560 Q346 580 322.5 597 Q299 614 261 614 Z M345 338 Q338 352 320.5 360 Q303 368 277 374 L257 378 Q227 376 206.5 364 Q186 352 178 339 L178 284 Q185 271 203 262.5 Q221 254 247 248 L266 244 Q297 246 317 258 Q337 270 345 283 L345 338 Z " />
<glyph glyph-name="paragraph" unicode="&#xb6;" horiz-adv-x="671" d="M295 -100 L295 233 L250 233 Q212 233 179.5 242.5 Q147 252 120.5 268.5 Q94 285 74 306.5 Q54 328 41 352 L41 581 Q73 639 128.5 669.5 Q184 700 250 700 L404 700 L404 -100 L295 -100 Z M500 -100 L500 700 L610 700 L610 -100 L500 -100 Z " />
<glyph glyph-name="asciicircum" unicode="&#x5e;" horiz-adv-x="505" d="M466 342 L371 342 L262 555 L243 555 L134 342 L39 342 L39 427 L184 700 L321 700 L466 428 L466 342 Z " />
<glyph glyph-name="asciitilde" unicode="&#x7e;" horiz-adv-x="585" d="M172 451 Q208 451 242 443 Q276 435 309 425.5 Q342 416 374.5 408 Q407 400 440 400 Q465 400 485.5 407 Q506 414 521 422 Q539 432 552 444 L552 317 Q539 307 522 300 Q508 293 487.5 288 Q467 283 441 283 Q402 283 368 291 Q334 299 301.5 308.5 Q269 318 237 326 Q205 334 170 334 Q141 334 116 326 Q91 318 73 308 Q52 297 34 283 L34 405 Q50 417 71 428 Q89 436 114.5 443.5 Q140 451 172 451 Z " />
<glyph glyph-name="brokenbar" unicode="&#xa6;" horiz-adv-x="321" d="M81 389 L81 790 L238 790 L238 389 L81 389 Z M81 -129 L81 298 L238 298 L238 -129 L81 -129 Z " />
<glyph glyph-name="backslash" unicode="&#x5c;" horiz-adv-x="411" d="M371 -110 L247 -110 L39 653 L39 731 L163 731 L371 -32 L371 -110 Z " />
<glyph glyph-name="underscore" unicode="&#x5f;" horiz-adv-x="518" d="M-5 -147 L-5 -53 L523 -53 L523 -147 L-5 -147 Z " />
<glyph glyph-name="quotesingle" unicode="&#x27;" horiz-adv-x="195" d="M143 440 L52 440 L34 578 L34 700 L161 700 L161 579 L143 440 Z " />
<glyph glyph-name="quotedbl" unicode="&#x22;" horiz-adv-x="396" d="M143 440 L52 440 L34 578 L34 700 L161 700 L161 579 L143 440 Z M344 440 L253 440 L235 578 L235 700 L362 700 L362 579 L344 440 Z " />
<glyph glyph-name="at" unicode="&#x40;" horiz-adv-x="923" d="M468 715 Q559 715 630.5 688.5 Q702 662 754.5 622.5 Q807 583 839.5 537.5 Q872 492 886 454 L886 105 Q862 67 818 49 Q774 31 724 31 Q671 31 633 49 Q595 67 569 99 Q543 72 505 53.5 Q467 35 416 35 Q379 35 349.5 46.5 Q320 58 298 75 Q276 92 262 112 Q248 132 241 149 L241 401 Q248 417 261.5 437 Q275 457 296 474 Q317 491 346 502.5 Q375 514 412 514 Q458 514 491 498 Q524 482 547 459 L547 501 L676 501 L676 138 Q692 109 734 109 Q756 109 768.5 116.5 Q781 124 792 137 L792 436 Q781 462 756.5 495.5 Q732 529 692 559 Q652 589 595.5 610 Q539 631 465 631 Q410 631 360.5 618 Q311 605 269 580 Q227 555 194 518 Q161 481 140 433 L140 120 Q161 73 194 36.5 Q227 0 269.5 -26 Q312 -52 361.5 -65.5 Q411 -79 465 -79 Q565 -79 645 -32 L692 -98 Q642 -128 585 -144.5 Q528 -161 465 -161 Q394 -161 329 -143.5 Q264 -126 209 -92.5 Q154 -59 112 -11 Q70 37 45 98 L45 456 Q70 517 113.5 565 Q157 613 213.5 646.5 Q270 680 335 697.5 Q400 715 468 715 Z M455 132 Q488 132 511.5 144 Q535 156 547 171 L547 379 Q535 394 511.5 405.5 Q488 417 455 417 Q420 417 399 403 Q378 389 373 377 L373 172 Q379 161 399.5 146.5 Q420 132 455 132 Z " />
<glyph glyph-name="copyright" unicode="&#xa9;" horiz-adv-x="798" d="M399 715 Q474 715 541 686.5 Q608 658 658 608.5 Q708 559 737 492.5 Q766 426 766 350 Q766 274 737 207.5 Q708 141 658 91.5 Q608 42 541 13.5 Q474 -15 399 -15 Q324 -15 257 13.5 Q190 42 140 91.5 Q90 141 61 207.5 Q32 274 32 350 Q32 426 61 492.5 Q90 559 140 608.5 Q190 658 257 686.5 Q324 715 399 715 Z M399 655 Q336 655 281 631 Q226 607 185.5 566 Q145 525 121.5 469 Q98 413 98 350 Q98 287 121.5 231 Q145 175 185.5 134 Q226 93 281 69 Q336 45 399 45 Q462 45 517 69 Q572 93 612.5 134 Q653 175 676 231 Q699 287 699 350 Q699 413 676 469 Q653 525 612.5 566 Q572 607 517 631 Q462 655 399 655 Z M398 580 Q443 580 476.5 569.5 Q510 559 533 544.5 Q556 530 570 514.5 Q584 499 590 489 L590 436 L485 436 Q479 454 458 471 Q437 488 400 488 Q369 488 349.5 476 Q330 464 322 452 L322 247 Q330 235 349.5 223 Q369 211 400 211 Q437 211 458 228 Q479 245 485 263 L590 263 L590 210 Q584 200 570 184.5 Q556 169 533 154.5 Q510 140 476.5 129.5 Q443 119 398 119 Q353 119 318.5 130.5 Q284 142 260 158.5 Q236 175 221.5 193 Q207 211 201 224 L201 475 Q207 488 221.5 506 Q236 524 260 540.5 Q284 557 318.5 568.5 Q353 580 398 580 Z " />
<glyph glyph-name="registered" unicode="&#xae;" horiz-adv-x="518" d="M259 824 Q308 824 352 805 Q396 786 429 753.5 Q462 721 481 677.5 Q500 634 500 585 Q500 536 481 492.5 Q462 449 429 416.5 Q396 384 352 365 Q308 346 259 346 Q210 346 166 365 Q122 384 89 416.5 Q56 449 37 492.5 Q18 536 18 585 Q18 634 37 677.5 Q56 721 89 753.5 Q122 786 166 805 Q210 824 259 824 Z M259 388 Q299 388 334.5 403.5 Q370 419 396.5 446 Q423 473 438 508.5 Q453 544 453 585 Q453 625 438 661 Q423 697 396.5 724 Q370 751 334.5 766.5 Q299 782 259 782 Q218 782 183 766.5 Q148 751 121.5 724 Q95 697 80 661 Q65 625 65 585 Q65 544 80 508.5 Q95 473 121.5 446 Q148 419 183 403.5 Q218 388 259 388 Z M284 725 Q310 725 334.5 711 Q359 697 371 672 L371 595 Q356 565 324 552 L368 495 L368 455 L311 455 L262 543 L224 543 L224 455 L160 455 L160 725 L284 725 Z M271 593 Q281 593 291 597 Q301 601 306 613 L306 655 Q301 666 291 670 Q281 674 271 674 L224 674 L224 593 L271 593 Z " />
<glyph glyph-name="trademark" unicode="&#x2122;" horiz-adv-x="806" d="M216 623 L216 310 L119 310 L119 623 L24 623 L24 700 L312 700 L312 623 L216 623 Z M670 310 L670 553 L668 553 L581 310 L526 310 L439 553 L437 553 L437 310 L346 310 L346 700 L475 700 L556 479 L558 479 L638 700 L761 700 L761 310 L670 310 Z " />
<glyph glyph-name="uni2117" unicode="&#x2117;" horiz-adv-x="798" d="M399 715 Q474 715 541 686.5 Q608 658 658 608.5 Q708 559 737 492.5 Q766 426 766 350 Q766 274 737 207.5 Q708 141 658 91.5 Q608 42 541 13.5 Q474 -15 399 -15 Q324 -15 257 13.5 Q190 42 140 91.5 Q90 141 61 207.5 Q32 274 32 350 Q32 426 61 492.5 Q90 559 140 608.5 Q190 658 257 686.5 Q324 715 399 715 Z M399 655 Q336 655 281 631 Q226 607 185.5 566 Q145 525 121.5 469 Q98 413 98 350 Q98 287 121.5 231 Q145 175 185.5 134 Q226 93 281 69 Q336 45 399 45 Q462 45 517 69 Q572 93 612.5 134 Q653 175 676 231 Q699 287 699 350 Q699 413 676 469 Q653 525 612.5 566 Q572 607 517 631 Q462 655 399 655 Z M449 565 Q493 565 531 541.5 Q569 518 587 477 L587 349 Q569 309 531 285 Q493 261 449 261 L356 261 L356 128 L253 128 L253 565 L449 565 Z M356 339 L430 339 Q447 339 462.5 347 Q478 355 487 375 L487 452 Q478 471 462.5 479.5 Q447 488 430 488 L356 488 L356 339 Z " />
<glyph glyph-name="currency" unicode="&#xa4;" horiz-adv-x="590" d="M510 482 Q518 472 523 462.5 Q528 453 533 444 L533 224 Q529 215 523.5 206 Q518 197 511 187 L537 160 L537 89 L443 89 L419 113 Q393 102 362.5 95 Q332 88 295 88 Q258 88 228 94.5 Q198 101 173 112 L149 89 L52 89 L52 160 L79 187 Q65 206 57 224 L57 444 Q61 453 66.5 462.5 Q72 472 79 482 L52 509 L52 580 L149 580 L173 556 Q198 567 228 573.5 Q258 580 295 580 Q332 580 362.5 573 Q393 566 418 555 L443 580 L537 580 L537 509 L510 482 Z M387 417 Q378 437 354.5 453 Q331 469 295 469 Q260 469 236.5 453 Q213 437 204 417 L204 251 Q213 231 236.5 215 Q260 199 295 199 Q331 199 354.5 215 Q378 231 387 251 L387 417 Z " />
<glyph glyph-name="Euro" unicode="&#x20ac;" horiz-adv-x="599" d="M325 600 Q290 600 264 584 Q238 568 229 548 L229 463 L449 463 L449 384 L229 384 L229 326 L449 326 L449 247 L229 247 L229 152 Q238 132 264 116 Q290 100 325 100 Q369 100 395.5 122 Q422 144 429 179 L561 179 L561 100 Q554 87 536 67.5 Q518 48 489 29.5 Q460 11 419 -2 Q378 -15 325 -15 Q272 -15 230.5 -2 Q189 11 158 31 Q127 51 106.5 74.5 Q86 98 77 118 L77 247 L28 247 L28 326 L77 326 L77 384 L28 384 L28 463 L77 463 L77 582 Q86 602 106.5 625.5 Q127 649 158 669 Q189 689 230.5 702 Q272 715 325 715 Q378 715 419 702 Q460 689 489 670.5 Q518 652 536 632.5 Q554 613 561 600 L561 521 L429 521 Q422 556 395.5 578 Q369 600 325 600 Z " />
<glyph glyph-name="dollar" unicode="&#x24;" horiz-adv-x="592" d="M329 417 Q384 403 421.5 387.5 Q459 372 483.5 356 Q508 340 523 323.5 Q538 307 547 290 L547 119 Q538 103 523 83.5 Q508 64 485 45.5 Q462 27 430 12 Q398 -3 356 -10 L356 -92 L236 -92 L236 -11 Q192 -4 159 11 Q126 26 102.5 44.5 Q79 63 64 83 Q49 103 41 119 L41 191 L178 191 Q188 154 218 130.5 Q248 107 294 107 Q336 107 360.5 124.5 Q385 142 395 161 L395 236 Q387 253 368.5 265.5 Q350 278 311 288 L262 300 Q212 313 177.5 326 Q143 339 119 353.5 Q95 368 80 384 Q65 400 53 419 L53 591 Q61 606 76 624 Q91 642 113.5 659 Q136 676 166.5 689.5 Q197 703 236 710 L236 792 L356 792 L356 710 Q395 704 425.5 690 Q456 676 478.5 659.5 Q501 643 516 624.5 Q531 606 539 591 L539 519 L403 519 Q393 550 368 572 Q343 594 296 594 Q262 594 238.5 580 Q215 566 205 549 L205 474 Q212 461 226.5 451 Q241 441 280 430 L329 417 Z " />
<glyph glyph-name="cent" unicode="&#xa2;" horiz-adv-x="541" d="M280 443 Q245 443 222 427.5 Q199 412 189 392 L189 151 Q199 131 222 115 Q245 99 280 99 Q320 99 343.5 116.5 Q367 134 382 169 L508 169 L508 103 Q502 91 489 74.5 Q476 58 455.5 41.5 Q435 25 406.5 11 Q378 -3 341 -10 L341 -92 L221 -92 L221 -10 Q183 -3 153 11.5 Q123 26 101.5 44.5 Q80 63 65.5 83 Q51 103 43 121 L43 421 Q51 439 65.5 459 Q80 479 101.5 497.5 Q123 516 153 530.5 Q183 545 221 552 L221 634 L341 634 L341 552 Q378 545 406.5 531 Q435 517 455.5 501 Q476 485 489 468.5 Q502 452 508 440 L508 373 L382 373 Q367 408 343.5 425.5 Q320 443 280 443 Z " />
<glyph glyph-name="sterling" unicode="&#xa3;" horiz-adv-x="608" d="M331 600 Q295 600 269 584 Q243 568 234 548 L234 391 L465 391 L465 298 L234 298 L234 170 Q223 144 202 118 L567 118 L567 0 L40 0 L40 100 Q49 102 62.5 111 Q76 120 83 139 L83 298 L33 298 L33 391 L83 391 L83 582 Q92 602 112 625.5 Q132 649 163 669 Q194 689 236 702 Q278 715 331 715 Q384 715 424.5 702 Q465 689 494.5 670.5 Q524 652 542 632.5 Q560 613 567 600 L567 521 L434 521 Q427 556 400.5 578 Q374 600 331 600 Z " />
<glyph glyph-name="florin" unicode="&#x192;" horiz-adv-x="422" d="M347 604 Q327 604 314 600 Q301 596 292.5 590.5 Q284 585 279.5 579 Q275 573 272 568 L272 516 L381 516 L381 409 L272 409 L272 -85 Q266 -102 253.5 -119 Q241 -136 221 -149.5 Q201 -163 171.5 -172 Q142 -181 102 -181 Q70 -181 44 -177.5 Q18 -174 6 -169 L6 -71 L51 -71 Q71 -71 84.5 -67.5 Q98 -64 106.5 -58.5 Q115 -53 119.5 -47 Q124 -41 126 -36 L126 409 L62 409 L62 516 L126 516 L126 618 Q132 634 144 651 Q156 668 176.5 682 Q197 696 226 705 Q255 714 295 714 Q328 714 354 710 Q380 706 392 702 L392 604 L347 604 Z " />
<glyph glyph-name="yen" unicode="&#xa5;" horiz-adv-x="596" d="M374 270 L565 270 L565 191 L374 191 L374 0 L215 0 L215 191 L30 191 L30 270 L215 270 L215 293 L191 335 L30 335 L30 414 L147 414 L36 612 L36 700 L169 700 L301 435 L304 435 L436 700 L561 700 L561 612 L450 414 L565 414 L565 335 L406 335 L374 277 L374 270 Z " />
<glyph glyph-name="uni20A8" unicode="&#x20a8;" horiz-adv-x="514" d="M396 621 Q405 610 413 599 Q421 588 427 576 L427 517 L497 517 L497 437 L427 437 L427 387 Q414 360 393.5 338.5 Q373 317 348.5 301 Q324 285 295.5 275.5 Q267 266 239 264 L427 78 L427 0 L292 0 L48 263 L48 356 L186 356 Q211 356 238 370 Q265 384 276 411 L276 437 L48 437 L48 517 L276 517 L276 541 Q270 554 260 564.5 Q250 575 237.5 582 Q225 589 211.5 592.5 Q198 596 186 596 L48 596 L48 700 L497 700 L497 621 L396 621 Z " />
<glyph glyph-name="uni20BA" unicode="&#x20ba;" horiz-adv-x="588" d="M545 115 Q539 101 521 81.5 Q503 62 473.5 44 Q444 26 403 13 Q362 0 309 0 L89 0 L89 209 L27 179 L27 270 L89 300 L89 373 L27 343 L27 433 L89 463 L89 700 L241 700 L241 537 L417 623 L417 533 L241 447 L241 374 L417 459 L417 369 L241 283 L241 115 L309 115 Q355 115 380 137 Q405 159 413 194 L545 194 L545 115 Z " />
<glyph glyph-name="uni20BD" unicode="&#x20bd;" horiz-adv-x="604" d="M359 700 Q425 700 480 669.5 Q535 639 568 581 L568 392 Q555 368 535 346.5 Q515 325 488.5 309.5 Q462 294 429.5 284.5 Q397 275 359 275 L228 275 L228 220 L474 220 L474 141 L228 141 L228 0 L70 0 L70 141 L20 141 L20 220 L70 220 L70 275 L20 275 L20 377 L70 377 L70 700 L359 700 Z M417 533 Q402 559 376.5 571 Q351 583 323 583 L228 583 L228 377 L323 377 Q354 377 378.5 389.5 Q403 402 417 427 L417 533 Z " />
<glyph glyph-name="ordfeminine" unicode="&#xaa;" horiz-adv-x="396" d="M195 711 Q229 711 255 702.5 Q281 694 300.5 680.5 Q320 667 332 650 Q344 633 350 617 L350 356 L263 356 L263 379 Q246 365 222.5 356.5 Q199 348 168 348 Q139 348 118 354 Q97 360 82 368.5 Q67 377 58.5 386.5 Q50 396 46 402 L46 501 Q50 508 59 518 Q68 528 82.5 537.5 Q97 547 118 554 Q139 561 168 561 L260 561 L260 603 Q253 620 237 631.5 Q221 643 195 643 Q170 643 153 631.5 Q136 620 128 604 L53 604 L53 642 Q57 649 67.5 661 Q78 673 95 684 Q112 695 136.5 703 Q161 711 195 711 Z M189 414 Q217 414 234.5 421 Q252 428 260 439 L260 503 L189 503 Q163 503 150 494 Q137 485 132 478 L132 439 Q137 432 150 423 Q163 414 189 414 Z " />
<glyph glyph-name="ordmasculine" unicode="&#xba;" horiz-adv-x="403" d="M201 711 Q235 711 261.5 702.5 Q288 694 307.5 680.5 Q327 667 339 650 Q351 633 357 617 L357 441 Q351 425 339 408.5 Q327 392 307.5 378.5 Q288 365 261.5 356.5 Q235 348 201 348 Q168 348 141.5 356.5 Q115 365 96 378.5 Q77 392 64.5 408.5 Q52 425 46 441 L46 617 Q52 633 64.5 650 Q77 667 96 680.5 Q115 694 141.5 702.5 Q168 711 201 711 Z M201 641 Q175 641 158.5 630 Q142 619 135 602 L135 455 Q142 440 158.5 429 Q175 418 201 418 Q226 418 243.5 429 Q261 440 268 455 L268 602 Q261 619 243.5 630 Q226 641 201 641 Z " />
<glyph glyph-name="numbersign" unicode="&#x23;" horiz-adv-x="569" d="M451 294 L507 294 L507 190 L434 190 L404 0 L301 0 L301 78 L319 190 L198 190 L167 0 L65 0 L65 78 L83 190 L27 190 L27 294 L100 294 L118 409 L62 409 L62 514 L135 514 L165 700 L267 700 L267 622 L250 514 L371 514 L401 700 L503 700 L503 622 L486 514 L542 514 L542 409 L469 409 L451 294 Z M232 409 L214 294 L335 294 L354 409 L232 409 Z " />
<glyph glyph-name="uni2116" unicode="&#x2116;" horiz-adv-x="1016" d="M806 707 Q848 707 879 696.5 Q910 686 932.5 670.5 Q955 655 969 637 Q983 619 990 603 L990 442 Q983 427 969 408.5 Q955 390 932.5 374.5 Q910 359 879 348.5 Q848 338 806 338 Q764 338 732.5 348.5 Q701 359 678.5 374.5 Q656 390 642 408.5 Q628 427 621 442 L621 603 Q628 619 642 637 Q656 655 678.5 670.5 Q701 686 732.5 696.5 Q764 707 806 707 Z M391 0 L208 432 L205 432 L205 0 L58 0 L58 700 L221 700 L404 267 L407 267 L407 700 L554 700 L554 0 L391 0 Z M806 623 Q775 623 757.5 610 Q740 597 732 582 L732 463 Q740 449 757.5 435.5 Q775 422 806 422 Q836 422 854 435.5 Q872 449 879 463 L879 582 Q872 597 854 610 Q836 623 806 623 Z M621 205 L621 296 L990 296 L990 205 L621 205 Z " />
<glyph glyph-name="zero" unicode="0" horiz-adv-x="592" d="M296 715 Q349 715 391 702 Q433 689 463.5 669 Q494 649 514.5 625.5 Q535 602 544 582 L544 119 Q535 98 514.5 74.5 Q494 51 463.5 31 Q433 11 391 -2 Q349 -15 296 -15 Q243 -15 201 -2 Q159 11 128.5 31 Q98 51 77.5 74.5 Q57 98 48 119 L48 582 Q57 602 77.5 625.5 Q98 649 128.5 669 Q159 689 201 702 Q243 715 296 715 Z M296 600 Q261 600 234.5 584 Q208 568 200 548 L200 152 Q208 132 234.5 116.5 Q261 101 296 101 Q331 101 357 116.5 Q383 132 392 152 L392 548 Q383 568 357 584 Q331 600 296 600 Z " />
<glyph glyph-name="one" unicode="1" horiz-adv-x="457" d="M420 102 L420 0 L56 0 L56 102 L165 102 L165 549 L55 504 L55 615 L211 700 L317 700 L317 102 L420 102 Z " />
<glyph glyph-name="two" unicode="2" horiz-adv-x="569" d="M278 715 Q331 715 373 702 Q415 689 446 669 Q477 649 497 625.5 Q517 602 526 582 L526 433 Q519 416 509 400.5 Q499 385 482.5 369 Q466 353 440.5 335 Q415 317 377 293 L300 247 Q258 222 230 199.5 Q202 177 192 157 L192 121 L530 121 L530 0 L41 0 L41 191 Q51 212 64 229.5 Q77 247 95 263.5 Q113 280 137.5 297 Q162 314 194 334 L280 386 Q321 411 344.5 431 Q368 451 374 473 L374 549 Q365 569 339.5 584.5 Q314 600 279 600 Q240 600 211 580.5 Q182 561 174 521 L42 521 L42 600 Q48 612 67.5 632.5 Q87 653 115.5 671 Q144 689 184.5 702 Q225 715 278 715 Z " />
<glyph glyph-name="three" unicode="3" horiz-adv-x="571" d="M276 715 Q328 715 369 702 Q410 689 440 669.5 Q470 650 489 628 Q508 606 517 589 L517 442 Q507 425 481.5 404 Q456 383 418 366 Q457 349 485 322.5 Q513 296 524 273 L524 119 Q515 99 495 75.5 Q475 52 444 32 Q413 12 371 -1.5 Q329 -15 276 -15 Q223 -15 182 -2 Q141 11 111 29 Q81 47 62.5 67 Q44 87 37 101 L37 180 L170 180 Q178 145 206 123 Q234 101 276 101 Q312 101 337.5 116.5 Q363 132 372 152 L372 248 Q364 271 338.5 288.5 Q313 306 277 306 L192 306 L192 416 L272 416 Q308 416 332 432 Q356 448 365 464 L365 555 Q356 571 333.5 585.5 Q311 600 276 600 Q252 600 234.5 593.5 Q217 587 205 576.5 Q193 566 186.5 553.5 Q180 541 177 528 L44 528 L44 607 Q51 619 68.5 637 Q86 655 114.5 672.5 Q143 690 183 702.5 Q223 715 276 715 Z " />
<glyph glyph-name="four" unicode="4" horiz-adv-x="592" d="M573 264 L573 149 L495 149 L495 0 L350 0 L350 149 L27 149 L27 260 L286 700 L495 700 L495 264 L573 264 Z M169 264 L350 264 L350 567 L347 567 L169 264 Z " />
<glyph glyph-name="five" unicode="5" horiz-adv-x="562" d="M193 578 L193 408 Q218 428 250.5 440.5 Q283 453 327 453 Q364 453 395.5 443.5 Q427 434 451.5 418.5 Q476 403 493 383.5 Q510 364 519 345 L519 101 Q511 87 493 67 Q475 47 446 29 Q417 11 376.5 -2 Q336 -15 283 -15 Q230 -15 189.5 -2.5 Q149 10 119.5 28 Q90 46 71.5 66 Q53 86 44 101 L44 180 L177 180 Q184 148 211 124.5 Q238 101 283 101 Q318 101 344 116.5 Q370 132 379 152 L379 293 Q370 313 344.5 329.5 Q319 346 284 346 Q265 346 250 341.5 Q235 337 224 330 Q213 323 205 316 Q197 309 193 303 L55 303 L55 700 L514 700 L514 578 L193 578 Z " />
<glyph glyph-name="six" unicode="6" horiz-adv-x="579" d="M297 600 Q261 600 235.5 584 Q210 568 200 548 L200 397 Q227 417 261.5 430 Q296 443 341 443 Q379 443 410 433.5 Q441 424 465.5 409 Q490 394 507 374.5 Q524 355 533 335 L533 101 Q525 87 507.5 67.5 Q490 48 460.5 29.5 Q431 11 390.5 -2 Q350 -15 297 -15 Q244 -15 202 -1.5 Q160 12 129.5 32 Q99 52 78.5 75.5 Q58 99 49 119 L49 582 Q59 603 79 626 Q99 649 130 669 Q161 689 202.5 702 Q244 715 297 715 Q350 715 390.5 702.5 Q431 690 460 672 Q489 654 507 634 Q525 614 533 600 L533 521 L400 521 Q393 557 367 578.5 Q341 600 297 600 Z M294 335 Q265 335 242.5 326.5 Q220 318 200 302 L200 152 Q210 132 235.5 116.5 Q261 101 297 101 Q332 101 358.5 116.5 Q385 132 393 152 L393 285 Q385 305 358.5 320 Q332 335 294 335 Z " />
<glyph glyph-name="seven" unicode="7" horiz-adv-x="509" d="M226 0 L97 0 L97 88 L333 579 L16 579 L16 700 L484 700 L484 590 L226 0 Z " />
<glyph glyph-name="eight" unicode="8" horiz-adv-x="590" d="M455 374 Q495 354 515 333 Q535 312 547 291 L547 119 Q538 102 519.5 79 Q501 56 470.5 35 Q440 14 396.5 -0.5 Q353 -15 295 -15 Q238 -15 195 -1 Q152 13 121.5 33.5 Q91 54 72 77.5 Q53 101 43 119 L43 291 Q54 312 75.5 330 Q97 348 135 365 Q103 383 86 402 Q69 421 60 436 L60 598 Q70 614 89 634.5 Q108 655 136.5 673 Q165 691 204.5 703 Q244 715 295 715 Q346 715 385.5 703 Q425 691 454 673 Q483 655 502 634.5 Q521 614 531 598 L531 436 Q521 420 503.5 404 Q486 388 455 374 Z M206 472 Q211 462 227.5 450.5 Q244 439 278 430 L308 422 Q336 430 357 444 Q378 458 384 472 L384 557 Q374 572 352 586 Q330 600 295 600 Q261 600 238.5 586 Q216 572 206 557 L206 472 Z M397 255 Q389 271 366.5 285 Q344 299 305 309 L283 314 Q245 305 222 286.5 Q199 268 194 255 L194 153 Q198 144 207 135 Q216 126 228.5 118 Q241 110 258 105 Q275 100 295 100 Q336 100 362 117.5 Q388 135 397 153 L397 255 Z " />
<glyph glyph-name="nine" unicode="9" horiz-adv-x="579" d="M282 715 Q335 715 377 701.5 Q419 688 450 668 Q481 648 501.5 624.5 Q522 601 531 581 L531 118 Q521 97 500.5 74 Q480 51 449 31 Q418 11 376.5 -2 Q335 -15 282 -15 Q229 -15 188.5 -2.5 Q148 10 119 28 Q90 46 72 66 Q54 86 46 100 L46 179 L179 179 Q186 143 212.5 121.5 Q239 100 282 100 Q318 100 344 116 Q370 132 379 152 L379 294 Q352 274 317.5 261 Q283 248 238 248 Q200 248 169 257.5 Q138 267 113.5 282 Q89 297 72 316.5 Q55 336 46 356 L46 599 Q54 612 72 632 Q90 652 119 670.5 Q148 689 188.5 702 Q229 715 282 715 Z M285 356 Q314 356 336.5 364.5 Q359 373 379 389 L379 548 Q370 568 344 583.5 Q318 599 282 599 Q247 599 221 583.5 Q195 568 186 548 L186 406 Q195 386 221 371 Q247 356 285 356 Z " />
<glyph glyph-name="uni00A0" unicode="&#xa0;" horiz-adv-x="204" d="" />
<glyph glyph-name="fraction" unicode="&#x2044;" horiz-adv-x="188" d="M-111 0 L-177 0 L-177 62 L300 700 L365 700 L365 638 L-111 0 Z " />
<glyph glyph-name="onequarter" unicode="&#xbc;" horiz-adv-x="909" d="M286 349 L286 280 L44 280 L44 349 L114 349 L114 614 L44 610 L44 673 L132 700 L220 700 L220 349 L286 349 Z M247 0 L181 0 L181 62 L658 700 L723 700 L723 638 L247 0 Z M868 163 L868 85 L816 85 L816 0 L715 0 L715 85 L493 85 L493 160 L674 420 L816 420 L816 163 L868 163 Z M595 163 L715 163 L715 331 L712 331 L595 163 Z " />
<glyph glyph-name="onehalf" unicode="&#xbd;" horiz-adv-x="963" d="M287 349 L287 280 L45 280 L45 349 L115 349 L115 614 L45 610 L45 673 L133 700 L221 700 L221 349 L287 349 Z M247 0 L181 0 L181 62 L658 700 L723 700 L723 638 L247 0 Z M743 430 Q779 430 807.5 422 Q836 414 857 402 Q878 390 891.5 375.5 Q905 361 911 348 L911 266 Q901 243 879 223 Q857 203 808 175 L754 144 Q728 128 709 114 Q690 100 685 88 L685 84 L915 84 L915 0 L581 0 L581 99 Q594 125 616.5 147.5 Q639 170 683 196 L744 233 Q771 250 785.5 261.5 Q800 273 806 286 L806 322 Q799 332 783.5 340 Q768 348 743 348 Q713 348 695 335 Q677 322 672 307 L581 307 L581 362 Q586 371 598.5 382.5 Q611 394 631.5 404.5 Q652 415 679.5 422.5 Q707 430 743 430 Z " />
<glyph glyph-name="threequarters" unicode="&#xbe;" horiz-adv-x="954" d="M205 709 Q241 709 269 701 Q297 693 317 681.5 Q337 670 350 656.5 Q363 643 369 632 L369 542 Q364 533 348 520.5 Q332 508 307 498 Q334 489 350.5 474.5 Q367 460 375 446 L375 351 Q369 339 355 325 Q341 311 319.5 299 Q298 287 269 279 Q240 271 204 271 Q168 271 139.5 279 Q111 287 91 297.5 Q71 308 58.5 319.5 Q46 331 41 338 L41 396 L129 396 Q134 378 154 365.5 Q174 353 204 353 Q227 353 245 361 Q263 369 269 379 L269 429 Q263 440 246.5 448.5 Q230 457 205 457 L149 457 L149 533 L203 533 Q226 533 242.5 541 Q259 549 265 557 L265 606 Q259 613 243.5 620.5 Q228 628 205 628 Q176 628 158 615.5 Q140 603 135 588 L47 588 L47 645 Q52 652 64 662.5 Q76 673 95.5 683.5 Q115 694 142 701.5 Q169 709 205 709 Z M288 0 L222 0 L222 62 L699 700 L764 700 L764 638 L288 0 Z M906 163 L906 85 L854 85 L854 0 L753 0 L753 85 L531 85 L531 160 L712 420 L854 420 L854 163 L906 163 Z M633 163 L753 163 L753 331 L750 331 L633 163 Z " />
<glyph glyph-name="fiveeighths" unicode="&#x215d;" horiz-adv-x="1013" d="M916 218 Q939 206 953 191.5 Q967 177 974 164 L974 71 Q967 59 953.5 45 Q940 31 919 19 Q898 7 869 -1 Q840 -9 804 -9 Q768 -9 739.5 -1 Q711 7 690 19 Q669 31 655 45 Q641 59 635 71 L635 164 Q642 176 656 190.5 Q670 205 692 218 Q674 229 663 239 Q652 249 646 256 L646 364 Q651 371 663 382 Q675 393 694.5 403.5 Q714 414 741 421.5 Q768 429 804 429 Q840 429 867.5 421 Q895 413 914 402.5 Q933 392 945 381 Q957 370 962 364 L962 256 Q957 250 945.5 239.5 Q934 229 916 218 Z M744 272 Q750 265 765.5 258 Q781 251 804 251 Q828 251 843.5 258 Q859 265 864 272 L864 330 Q859 337 843.5 344.5 Q828 352 804 352 Q781 352 765.5 344.5 Q750 337 744 330 L744 272 Z M868 158 Q862 168 845 175.5 Q828 183 804 183 Q781 183 763.5 175.5 Q746 168 740 158 L740 94 Q746 84 763.5 76 Q781 68 804 68 Q828 68 845 76 Q862 84 868 94 L868 158 Z M142 616 L142 530 Q159 541 181 548 Q203 555 233 555 Q280 555 315.5 535 Q351 515 362 492 L362 338 Q357 330 344.5 319 Q332 308 312 297 Q292 286 264 278.5 Q236 271 200 271 Q164 271 136 278.5 Q108 286 88 296.5 Q68 307 55.5 318.5 Q43 330 37 338 L37 396 L125 396 Q131 378 150.5 365.5 Q170 353 200 353 Q224 353 241.5 361 Q259 369 265 379 L265 456 Q259 466 243 474.5 Q227 483 202 483 Q178 483 162.5 472.5 Q147 462 142 456 L45 456 L45 700 L359 700 L359 616 L142 616 Z M300 0 L234 0 L234 62 L711 700 L776 700 L776 638 L300 0 Z " />
<glyph glyph-name="oneeighth" unicode="&#x215b;" horiz-adv-x="978" d="M259 0 L193 0 L193 62 L670 700 L735 700 L735 638 L259 0 Z M286 349 L286 280 L44 280 L44 349 L114 349 L114 614 L44 610 L44 673 L132 700 L220 700 L220 349 L286 349 Z M875 218 Q898 206 912 191.5 Q926 177 933 164 L933 71 Q926 59 912.5 45 Q899 31 878 19 Q857 7 828 -1 Q799 -9 763 -9 Q727 -9 698.5 -1 Q670 7 649 19 Q628 31 614 45 Q600 59 594 71 L594 164 Q601 176 615 190.5 Q629 205 651 218 Q633 229 622 239 Q611 249 605 256 L605 364 Q610 371 622 382 Q634 393 653.5 403.5 Q673 414 700 421.5 Q727 429 763 429 Q799 429 826.5 421 Q854 413 873 402.5 Q892 392 904 381 Q916 370 921 364 L921 256 Q916 250 904.5 239.5 Q893 229 875 218 Z M703 272 Q709 265 724.5 258 Q740 251 763 251 Q787 251 802.5 258 Q818 265 823 272 L823 330 Q818 337 802.5 344.5 Q787 352 763 352 Q740 352 724.5 344.5 Q709 337 703 330 L703 272 Z M827 158 Q821 168 804 175.5 Q787 183 763 183 Q740 183 722.5 175.5 Q705 168 699 158 L699 94 Q705 84 722.5 76 Q740 68 763 68 Q787 68 804 76 Q821 84 827 94 L827 158 Z " />
<glyph glyph-name="seveneighths" unicode="&#x215e;" horiz-adv-x="941" d="M848 218 Q871 206 885 191.5 Q899 177 906 164 L906 71 Q899 59 885.5 45 Q872 31 851 19 Q830 7 801 -1 Q772 -9 736 -9 Q700 -9 671.5 -1 Q643 7 622 19 Q601 31 587 45 Q573 59 567 71 L567 164 Q574 176 588 190.5 Q602 205 624 218 Q606 229 595 239 Q584 249 578 256 L578 364 Q583 371 595 382 Q607 393 626.5 403.5 Q646 414 673 421.5 Q700 429 736 429 Q772 429 799.5 421 Q827 413 846 402.5 Q865 392 877 381 Q889 370 894 364 L894 256 Q889 250 877.5 239.5 Q866 229 848 218 Z M676 272 Q682 265 697.5 258 Q713 251 736 251 Q760 251 775.5 258 Q791 265 796 272 L796 330 Q791 337 775.5 344.5 Q760 352 736 352 Q713 352 697.5 344.5 Q682 337 676 330 L676 272 Z M800 158 Q794 168 777 175.5 Q760 183 736 183 Q713 183 695.5 175.5 Q678 168 672 158 L672 94 Q678 84 695.5 76 Q713 68 736 68 Q760 68 777 76 Q794 84 800 94 L800 158 Z M187 280 L97 280 L97 339 L246 613 L246 616 L37 616 L37 700 L353 700 L353 627 L187 280 Z M224 0 L158 0 L158 62 L635 700 L700 700 L700 638 L224 0 Z " />
<glyph glyph-name="threeeighths" unicode="&#x215c;" horiz-adv-x="1006" d="M907 218 Q930 206 944 191.5 Q958 177 965 164 L965 71 Q958 59 944.5 45 Q931 31 910 19 Q889 7 860 -1 Q831 -9 795 -9 Q759 -9 730.5 -1 Q702 7 681 19 Q660 31 646 45 Q632 59 626 71 L626 164 Q633 176 647 190.5 Q661 205 683 218 Q665 229 654 239 Q643 249 637 256 L637 364 Q642 371 654 382 Q666 393 685.5 403.5 Q705 414 732 421.5 Q759 429 795 429 Q831 429 858.5 421 Q886 413 905 402.5 Q924 392 936 381 Q948 370 953 364 L953 256 Q948 250 936.5 239.5 Q925 229 907 218 Z M735 272 Q741 265 756.5 258 Q772 251 795 251 Q819 251 834.5 258 Q850 265 855 272 L855 330 Q850 337 834.5 344.5 Q819 352 795 352 Q772 352 756.5 344.5 Q741 337 735 330 L735 272 Z M859 158 Q853 168 836 175.5 Q819 183 795 183 Q772 183 754.5 175.5 Q737 168 731 158 L731 94 Q737 84 754.5 76 Q772 68 795 68 Q819 68 836 76 Q853 84 859 94 L859 158 Z M202 709 Q238 709 266 701 Q294 693 314 681.5 Q334 670 347 656.5 Q360 643 366 632 L366 542 Q361 533 345 520.5 Q329 508 304 498 Q331 489 347.5 474.5 Q364 460 372 446 L372 351 Q366 339 352 325 Q338 311 316.5 299 Q295 287 266 279 Q237 271 201 271 Q165 271 136.5 279 Q108 287 88 297.5 Q68 308 55.5 319.5 Q43 331 38 338 L38 396 L126 396 Q131 378 151 365.5 Q171 353 201 353 Q224 353 242 361 Q260 369 266 379 L266 429 Q260 440 243.5 448.5 Q227 457 202 457 L146 457 L146 533 L200 533 Q223 533 239.5 541 Q256 549 262 557 L262 606 Q256 613 240.5 620.5 Q225 628 202 628 Q173 628 155 615.5 Q137 603 132 588 L44 588 L44 645 Q49 652 61 662.5 Q73 673 92.5 683.5 Q112 694 139 701.5 Q166 709 202 709 Z M295 0 L229 0 L229 62 L706 700 L771 700 L771 638 L295 0 Z " />
<glyph glyph-name="twothirds" unicode="&#x2154;" horiz-adv-x="1046" d="M827 429 Q863 429 891 421 Q919 413 939 401.5 Q959 390 972 376.5 Q985 363 991 352 L991 262 Q986 253 970 240.5 Q954 228 929 218 Q956 209 972.5 194.5 Q989 180 997 166 L997 71 Q991 59 977 45 Q963 31 941.5 19 Q920 7 891 -1 Q862 -9 826 -9 Q790 -9 761.5 -1 Q733 7 713 17.5 Q693 28 680.5 39.5 Q668 51 663 58 L663 116 L751 116 Q756 98 776 85.5 Q796 73 826 73 Q849 73 867 81 Q885 89 891 99 L891 149 Q885 160 868.5 168.5 Q852 177 827 177 L771 177 L771 253 L825 253 Q848 253 864.5 261 Q881 269 887 277 L887 326 Q881 333 865.5 340.5 Q850 348 827 348 Q798 348 780 335.5 Q762 323 757 308 L669 308 L669 365 Q674 372 686 382.5 Q698 393 717.5 403.5 Q737 414 764 421.5 Q791 429 827 429 Z M204 710 Q240 710 268.5 702 Q297 694 318 682 Q339 670 352.5 655.5 Q366 641 372 628 L372 546 Q362 523 340 503 Q318 483 269 455 L215 424 Q189 408 170 394 Q151 380 146 368 L146 364 L376 364 L376 280 L42 280 L42 379 Q55 405 77.5 427.5 Q100 450 144 476 L205 513 Q232 530 246.5 541.5 Q261 553 267 566 L267 602 Q260 612 244.5 620 Q229 628 204 628 Q174 628 156 615 Q138 602 133 587 L42 587 L42 642 Q47 651 59.5 662.5 Q72 674 92.5 684.5 Q113 695 140.5 702.5 Q168 710 204 710 Z M331 0 L265 0 L265 62 L742 700 L807 700 L807 638 L331 0 Z " />
<glyph glyph-name="uniE000" unicode="&#xe000;" horiz-adv-x="1037" d="M305 0 L239 0 L239 62 L716 700 L781 700 L781 638 L305 0 Z M213 629 Q188 629 172 621 Q156 613 150 603 L150 518 Q168 531 191 538.5 Q214 546 243 546 Q296 546 329 527 Q362 508 375 484 L375 338 Q370 330 357.5 319 Q345 308 325 297 Q305 286 277 278.5 Q249 271 213 271 Q177 271 148.5 279 Q120 287 99 299 Q78 311 64.5 325 Q51 339 44 351 L44 629 Q51 641 64.5 655 Q78 669 99 681 Q120 693 148.5 701 Q177 709 213 709 Q249 709 277.5 701.5 Q306 694 326 683.5 Q346 673 358 661.5 Q370 650 375 642 L375 589 L284 589 Q277 607 258.5 618 Q240 629 213 629 Z M213 474 Q178 474 150 457 L150 373 Q156 363 173 355 Q190 347 213 347 Q237 347 254.5 355 Q272 363 278 373 L278 449 Q272 459 255 466.5 Q238 474 213 474 Z M921 218 Q944 206 958 191.5 Q972 177 979 164 L979 71 Q972 59 958.5 45 Q945 31 924 19 Q903 7 874 -1 Q845 -9 809 -9 Q773 -9 744.5 -1 Q716 7 695 19 Q674 31 660 45 Q646 59 640 71 L640 164 Q647 176 661 190.5 Q675 205 697 218 Q679 229 668 239 Q657 249 651 256 L651 364 Q656 371 668 382 Q680 393 699.5 403.5 Q719 414 746 421.5 Q773 429 809 429 Q845 429 872.5 421 Q900 413 919 402.5 Q938 392 950 381 Q962 370 967 364 L967 256 Q962 250 950.5 239.5 Q939 229 921 218 Z M749 272 Q755 265 770.5 258 Q786 251 809 251 Q833 251 848.5 258 Q864 265 869 272 L869 330 Q864 337 848.5 344.5 Q833 352 809 352 Q786 352 770.5 344.5 Q755 337 749 330 L749 272 Z M873 158 Q867 168 850 175.5 Q833 183 809 183 Q786 183 768.5 175.5 Q751 168 745 158 L745 94 Q751 84 768.5 76 Q786 68 809 68 Q833 68 850 76 Q867 84 873 94 L873 158 Z " />
<glyph glyph-name="uniE001" unicode="&#xe001;" horiz-adv-x="1266" d="M280 349 L280 280 L38 280 L38 349 L108 349 L108 614 L38 610 L38 673 L126 700 L214 700 L214 349 L280 349 Z M1062 349 Q1037 349 1021 341 Q1005 333 999 323 L999 238 Q1017 251 1040 258.5 Q1063 266 1092 266 Q1145 266 1178 247 Q1211 228 1224 204 L1224 58 Q1219 50 1206.5 39 Q1194 28 1174 17 Q1154 6 1126 -1.5 Q1098 -9 1062 -9 Q1026 -9 997.5 -1 Q969 7 948 19 Q927 31 913.5 45 Q900 59 893 71 L893 349 Q900 361 913.5 375 Q927 389 948 401 Q969 413 997.5 421 Q1026 429 1062 429 Q1098 429 1126.5 421.5 Q1155 414 1175 403.5 Q1195 393 1207 381.5 Q1219 370 1224 362 L1224 309 L1133 309 Q1126 327 1107.5 338 Q1089 349 1062 349 Z M1062 194 Q1027 194 999 177 L999 93 Q1005 83 1022 75 Q1039 67 1062 67 Q1086 67 1103.5 75 Q1121 83 1127 93 L1127 169 Q1121 179 1104 186.5 Q1087 194 1062 194 Z M238 0 L172 0 L172 62 L649 700 L714 700 L714 638 L238 0 Z M842 69 L842 0 L600 0 L600 69 L670 69 L670 334 L600 330 L600 393 L688 420 L776 420 L776 69 L842 69 Z " />
<glyph glyph-name="percent" unicode="&#x25;" horiz-adv-x="907" d="M212 709 Q248 709 276.5 701 Q305 693 326 679.5 Q347 666 361 649.5 Q375 633 381 617 L381 436 Q375 420 361 403.5 Q347 387 326 374 Q305 361 276.5 353 Q248 345 212 345 Q176 345 147.5 353 Q119 361 98 374 Q77 387 63.5 403.5 Q50 420 44 436 L44 617 Q50 633 63.5 649.5 Q77 666 98 679.5 Q119 693 147.5 701 Q176 709 212 709 Z M249 0 L183 0 L183 62 L660 700 L725 700 L725 638 L249 0 Z M212 633 Q189 633 172 624 Q155 615 149 603 L149 451 Q155 439 172 430 Q189 421 212 421 Q236 421 252.5 430 Q269 439 275 451 L275 603 Q269 615 252.5 624 Q236 633 212 633 Z M695 356 Q731 356 759.5 347.5 Q788 339 809 326 Q830 313 843.5 296.5 Q857 280 864 264 L864 83 Q857 66 843.5 50 Q830 34 809 20.5 Q788 7 759.5 -1 Q731 -9 695 -9 Q659 -9 630 -1 Q601 7 580 20.5 Q559 34 545.5 50 Q532 66 526 83 L526 264 Q532 280 545.5 296.5 Q559 313 580 326 Q601 339 630 347.5 Q659 356 695 356 Z M695 280 Q672 280 655 270.5 Q638 261 632 249 L632 97 Q638 86 655 76.5 Q672 67 695 67 Q718 67 735 76.5 Q752 86 758 97 L758 249 Q752 261 735 270.5 Q718 280 695 280 Z " />
<glyph glyph-name="perthousand" unicode="&#x2030;" horiz-adv-x="1296" d="M212 709 Q248 709 276.5 701 Q305 693 326 679.5 Q347 666 361 649.5 Q375 633 381 617 L381 436 Q375 420 361 403.5 Q347 387 326 374 Q305 361 276.5 353 Q248 345 212 345 Q176 345 147.5 353 Q119 361 98 374 Q77 387 63.5 403.5 Q50 420 44 436 L44 617 Q50 633 63.5 649.5 Q77 666 98 679.5 Q119 693 147.5 701 Q176 709 212 709 Z M249 0 L183 0 L183 62 L660 700 L725 700 L725 638 L249 0 Z M212 633 Q189 633 172 624 Q155 615 149 603 L149 451 Q155 439 172 430 Q189 421 212 421 Q236 421 252.5 430 Q269 439 275 451 L275 603 Q269 615 252.5 624 Q236 633 212 633 Z M695 356 Q731 356 759.5 347.5 Q788 339 809 326 Q830 313 843.5 296.5 Q857 280 864 264 L864 83 Q857 66 843.5 50 Q830 34 809 20.5 Q788 7 759.5 -1 Q731 -9 695 -9 Q659 -9 630 -1 Q601 7 580 20.5 Q559 34 545.5 50 Q532 66 526 83 L526 264 Q532 280 545.5 296.5 Q559 313 580 326 Q601 339 630 347.5 Q659 356 695 356 Z M1084 356 Q1120 356 1148.5 347.5 Q1177 339 1198 326 Q1219 313 1232.5 296.5 Q1246 280 1253 264 L1253 83 Q1246 66 1232.5 50 Q1219 34 1198 20.5 Q1177 7 1148.5 -1 Q1120 -9 1084 -9 Q1048 -9 1019.5 -1 Q991 7 970 20.5 Q949 34 935.5 50 Q922 66 915 83 L915 264 Q922 280 935.5 296.5 Q949 313 970 326 Q991 339 1019.5 347.5 Q1048 356 1084 356 Z M695 280 Q672 280 655 270.5 Q638 261 632 249 L632 97 Q638 86 655 76.5 Q672 67 695 67 Q718 67 735 76.5 Q752 86 758 97 L758 249 Q752 261 735 270.5 Q718 280 695 280 Z M1084 280 Q1061 280 1044 270.5 Q1027 261 1021 249 L1021 97 Q1027 86 1044 76.5 Q1061 67 1084 67 Q1108 67 1124.5 76.5 Q1141 86 1147 97 L1147 249 Q1141 261 1124.5 270.5 Q1108 280 1084 280 Z " />
<glyph glyph-name="plus" unicode="&#x2b;" horiz-adv-x="586" d="M352 277 L352 75 L234 75 L234 277 L35 277 L35 393 L234 393 L234 593 L352 593 L352 393 L552 393 L552 277 L352 277 Z " />
<glyph glyph-name="minus" unicode="&#x2212;" horiz-adv-x="586" d="M35 277 L35 393 L552 393 L552 277 L35 277 Z " />
<glyph glyph-name="plusminus" unicode="&#xb1;" horiz-adv-x="586" d="M552 357 L352 357 L352 182 L234 182 L234 357 L35 357 L35 474 L234 474 L234 649 L352 649 L352 474 L552 474 L552 357 Z M552 134 L552 17 L35 17 L35 134 L552 134 Z " />
<glyph glyph-name="multiply" unicode="&#xd7;" horiz-adv-x="586" d="M376 335 L543 166 L543 89 L456 89 L293 251 L132 89 L42 89 L42 166 L210 335 L42 503 L42 580 L132 580 L293 418 L456 580 L543 580 L543 503 L376 335 Z " />
<glyph glyph-name="divide" unicode="&#xf7;" horiz-adv-x="586" d="M35 277 L35 393 L552 393 L552 277 L35 277 Z M293 218 Q327 218 346.5 204.5 Q366 191 371 177 L371 101 Q366 87 346.5 74 Q327 61 293 61 Q260 61 241 74 Q222 87 215 101 L215 177 Q222 191 241 204.5 Q260 218 293 218 Z M293 612 Q327 612 346.5 598.5 Q366 585 371 571 L371 495 Q366 481 346.5 468 Q327 455 293 455 Q260 455 241 468 Q222 481 215 495 L215 571 Q222 585 241 598.5 Q260 612 293 612 Z " />
<glyph glyph-name="equal" unicode="&#x3d;" horiz-adv-x="586" d="M35 171 L35 287 L552 287 L552 171 L35 171 Z M35 384 L35 500 L552 500 L552 384 L35 384 Z " />
<glyph glyph-name="notequal" unicode="&#x2260;" horiz-adv-x="586" d="M333 286 L552 286 L552 170 L289 170 L252 75 L134 75 L171 170 L35 170 L35 286 L215 286 L253 384 L35 384 L35 500 L298 500 L334 593 L452 593 L416 500 L552 500 L552 384 L371 384 L333 286 Z " />
<glyph glyph-name="approxequal" unicode="&#x2248;" horiz-adv-x="586" d="M172 313 Q208 313 242 305 Q276 297 309 287.5 Q342 278 374.5 270 Q407 262 440 262 Q465 262 485.5 269 Q506 276 521 284 Q539 294 552 306 L552 179 Q539 169 522 162 Q508 155 487.5 150 Q467 145 441 145 Q402 145 368 153 Q334 161 301.5 170.5 Q269 180 237 188 Q205 196 170 196 Q141 196 116 188 Q91 180 73 170 Q52 159 34 145 L34 267 Q50 279 71 290 Q89 298 114.5 305.5 Q140 313 172 313 Z M172 528 Q208 528 242 520 Q276 512 309 502.5 Q342 493 374.5 485 Q407 477 440 477 Q465 477 485.5 484 Q506 491 521 499 Q539 509 552 521 L552 394 Q539 384 522 377 Q508 370 487.5 365 Q467 360 441 360 Q402 360 368 368 Q334 376 301.5 385.5 Q269 395 237 403 Q205 411 170 411 Q141 411 116 403 Q91 395 73 385 Q52 374 34 360 L34 482 Q50 494 71 505 Q89 513 114.5 520.5 Q140 528 172 528 Z " />
<glyph glyph-name="less" unicode="&#x3c;" horiz-adv-x="586" d="M182 296 L559 129 L559 49 L452 49 L27 244 L27 348 L452 542 L559 542 L559 463 L182 296 Z " />
<glyph glyph-name="greater" unicode="&#x3e;" horiz-adv-x="586" d="M559 244 L134 49 L27 49 L27 129 L404 296 L27 463 L27 542 L134 542 L559 348 L559 244 Z " />
<glyph glyph-name="lessequal" unicode="&#x2264;" horiz-adv-x="586" d="M224 390 L552 266 L552 186 L445 186 L35 337 L35 414 L445 593 L552 593 L552 513 L224 390 Z M35 17 L35 134 L552 134 L552 17 L35 17 Z " />
<glyph glyph-name="greaterequal" unicode="&#x2265;" horiz-adv-x="586" d="M552 337 L141 186 L35 186 L35 266 L363 390 L35 513 L35 593 L141 593 L552 414 L552 337 Z M35 17 L35 134 L552 134 L552 17 L35 17 Z " />
<glyph glyph-name="logicalnot" unicode="&#xac;" horiz-adv-x="586" d="M434 75 L434 277 L35 277 L35 393 L552 393 L552 75 L434 75 Z " />
<glyph glyph-name="Delta" unicode="&#x2206;" horiz-adv-x="627" d="M602 0 L25 0 L25 88 L203 700 L424 700 L602 88 L602 0 Z M310 579 L307 579 L186 121 L428 121 L310 579 Z " />
<glyph glyph-name="Omega" unicode="&#x2126;" horiz-adv-x="632" d="M462 121 L581 121 L581 0 L350 0 L350 166 Q377 170 396 187 Q415 204 423 225 L423 528 Q412 555 384 573 Q356 591 316 591 Q276 591 248 573 Q220 555 209 528 L209 225 Q217 204 236.5 187.5 Q256 171 283 166 L283 0 L51 0 L51 121 L170 121 Q126 141 96.5 171.5 Q67 202 51 235 L51 562 Q78 623 144 669 Q210 715 316 715 Q422 715 488 669 Q554 623 581 562 L581 235 Q567 202 536.5 172 Q506 142 462 121 Z " />
<glyph glyph-name="mu" unicode="&#xb5;" horiz-adv-x="559" d="M509 0 L373 0 L373 47 Q350 21 315 4.5 Q280 -12 231 -12 Q211 -12 193 -9 L193 -166 L47 -166 L47 542 L193 542 L193 141 Q196 136 202.5 129 Q209 122 219.5 115.5 Q230 109 244 104.5 Q258 100 276 100 Q309 100 330 110.5 Q351 121 363 135 L363 542 L509 542 L509 0 Z " />
<glyph glyph-name="pi" unicode="&#x3c0;" horiz-adv-x="697" d="M545 437 L545 131 Q548 126 553.5 120.5 Q559 115 568.5 110 Q578 105 592.5 101.5 Q607 98 629 98 Q641 98 650.5 98.5 Q660 99 665 100 L665 -1 Q654 -3 631.5 -7.5 Q609 -12 574 -12 Q532 -12 501.5 -3 Q471 6 450.5 19.5 Q430 33 417.5 49.5 Q405 66 399 82 L399 437 L252 437 L252 0 L105 0 L105 437 L32 437 L32 542 L662 542 L662 437 L545 437 Z " />
<glyph glyph-name="degree" unicode="&#xb0;" horiz-adv-x="392" d="M196 807 Q233 807 261 798 Q289 789 309.5 775.5 Q330 762 343 747 Q356 732 362 719 L362 589 Q356 576 343 561 Q330 546 309.5 532.5 Q289 519 261 510 Q233 501 196 501 Q159 501 131 510 Q103 519 82.5 532 Q62 545 49 560.5 Q36 576 30 589 L30 719 Q36 732 49 747.5 Q62 763 82.5 776 Q103 789 131 798 Q159 807 196 807 Z M195 723 Q170 723 154 713 Q138 703 132 692 L132 616 Q138 605 154 595 Q170 585 195 585 Q221 585 236.5 595 Q252 605 259 616 L259 692 Q252 703 236.5 713 Q221 723 195 723 Z " />
<glyph glyph-name="infinity" unicode="&#x221e;" horiz-adv-x="789" d="M540 528 Q576 528 604.5 520 Q633 512 654 499 Q675 486 689 469.5 Q703 453 709 437 L709 271 Q703 254 689 238 Q675 222 654 208.5 Q633 195 604.5 187 Q576 179 540 179 Q482 179 449 198.5 Q416 218 396 244 Q375 218 340.5 198.5 Q306 179 249 179 Q213 179 184 187.5 Q155 196 134 209 Q113 222 99.5 238.5 Q86 255 80 271 L80 436 Q86 452 99.5 468.5 Q113 485 134 498 Q155 511 184 519.5 Q213 528 249 528 Q307 528 340.5 507.5 Q374 487 394 461 Q414 487 447.5 507.5 Q481 528 540 528 Z M249 258 Q273 258 292.5 267 Q312 276 318 288 L344 354 L318 419 Q312 431 292.5 440 Q273 449 249 449 Q226 449 209 440 Q192 431 186 419 L186 288 Q192 276 209 267 Q226 258 249 258 Z M603 419 Q597 431 581 440 Q565 449 541 449 Q517 449 499.5 440 Q482 431 475 419 L446 349 L471 288 Q477 276 497 267 Q517 258 541 258 Q565 258 581 267 Q597 276 603 288 L603 419 Z " />
<glyph glyph-name="partialdiff" unicode="&#x2202;" horiz-adv-x="561" d="M208 734 Q256 720 304.5 699 Q353 678 395.5 650.5 Q438 623 470.5 590.5 Q503 558 518 521 L518 121 Q509 100 490.5 76 Q472 52 443 31.5 Q414 11 374 -2 Q334 -15 281 -15 Q228 -15 188 -2 Q148 11 118.5 31.5 Q89 52 70.5 76 Q52 100 43 121 L43 340 Q50 362 65.5 385.5 Q81 409 106 428.5 Q131 448 164.5 460.5 Q198 473 240 473 Q288 473 317.5 461.5 Q347 450 372 433 L372 489 Q361 516 335 540.5 Q309 565 275 586 Q241 607 203.5 624 Q166 641 133 653 L208 734 Z M281 362 Q246 362 222 347 Q198 332 189 312 L189 148 Q198 128 221.5 112.5 Q245 97 280 97 Q316 97 340 112.5 Q364 128 372 148 L372 326 Q361 339 338 350.5 Q315 362 281 362 Z " />
<glyph glyph-name="integral" unicode="&#x222b;" horiz-adv-x="426" d="M309 714 Q341 714 367.5 710 Q394 706 405 702 L405 604 L361 604 Q341 604 327.5 600 Q314 596 305.5 590.5 Q297 585 292.5 579 Q288 573 286 568 L286 -85 Q280 -102 267.5 -119 Q255 -136 234.5 -149.5 Q214 -163 185 -172 Q156 -181 116 -181 Q84 -181 57.5 -177.5 Q31 -174 20 -169 L20 -71 L65 -71 Q85 -71 98 -67.5 Q111 -64 119.5 -58.5 Q128 -53 132.5 -47 Q137 -41 140 -36 L140 618 Q146 634 158 651 Q170 668 190.5 682 Q211 696 240 705 Q269 714 309 714 Z " />
<glyph glyph-name="radical" unicode="&#x221a;" horiz-adv-x="593" d="M569 622 L381 0 L209 0 L74 432 L21 432 L21 542 L187 542 L294 178 L297 178 L439 700 L569 700 L569 622 Z " />
<glyph glyph-name="summation" unicode="&#x2211;" horiz-adv-x="553" d="M374 351 L374 251 L227 17 L517 17 L517 -100 L36 -100 L36 -1 L221 301 L36 601 L36 700 L517 700 L517 583 L227 583 L374 351 Z " />
<glyph glyph-name="product" unicode="&#x220f;" horiz-adv-x="636" d="M420 -100 L420 583 L216 583 L216 -100 L58 -100 L58 700 L578 700 L578 -100 L420 -100 Z " />
<glyph glyph-name="lozenge" unicode="&#x25ca;" horiz-adv-x="600" d="M382 0 L223 0 L36 350 L223 700 L382 700 L569 350 L382 0 Z M303 158 L409 350 L303 542 L196 350 L303 158 Z " />
<glyph glyph-name="arrowleft" unicode="&#x2190;" horiz-adv-x="760" d="M0 387 L312 700 L411 700 L411 610 L202 409 L760 409 L760 290 L202 290 L411 90 L411 0 L312 0 L0 312 L0 387 Z " />
<glyph glyph-name="arrowright" unicode="&#x2192;" horiz-adv-x="760" d="M760 312 L448 0 L349 0 L349 90 L558 290 L0 290 L0 409 L558 409 L349 610 L349 700 L448 700 L760 387 L760 312 Z " />
<glyph glyph-name="arrowup" unicode="&#x2191;" horiz-adv-x="760" d="M730 362 L643 362 L449 559 L449 0 L312 0 L312 559 L117 362 L30 362 L30 448 L343 760 L418 760 L730 448 L730 362 Z " />
<glyph glyph-name="arrowdown" unicode="&#x2193;" horiz-adv-x="760" d="M730 252 L418 -60 L343 -60 L30 252 L30 338 L117 338 L312 141 L312 700 L449 700 L449 141 L643 338 L730 338 L730 252 Z " />
<glyph glyph-name="uni0410" unicode="&#x410;" horiz-adv-x="627" d="M602 0 L459 0 L417 164 L197 164 L154 0 L25 0 L25 88 L203 700 L424 700 L602 88 L602 0 Z M310 579 L307 579 L229 285 L385 285 L310 579 Z " />
<glyph glyph-name="uni0411" unicode="&#x411;" horiz-adv-x="594" d="M352 438 Q416 438 472.5 407.5 Q529 377 559 323 L559 119 Q548 98 529 76.5 Q510 55 484 38 Q458 21 425.5 10.5 Q393 0 354 0 L58 0 L58 700 L546 700 L546 582 L216 582 L216 438 L352 438 Z M414 274 Q403 294 378 308 Q353 322 323 322 L216 322 L216 116 L319 116 Q357 116 379.5 130.5 Q402 145 414 167 L414 274 Z " />
<glyph glyph-name="uni0412" unicode="&#x412;" horiz-adv-x="604" d="M477 369 Q499 359 522.5 341 Q546 323 563 296 L563 119 Q551 98 532 77 Q513 56 487 38.5 Q461 21 428 10.5 Q395 0 356 0 L58 0 L58 700 L351 700 Q389 700 420.5 689.5 Q452 679 477.5 662 Q503 645 521.5 623.5 Q540 602 552 581 L552 441 Q540 421 519.5 400.5 Q499 380 477 369 Z M321 414 Q348 414 370.5 426.5 Q393 439 407 461 L407 534 Q395 557 371.5 569.5 Q348 582 316 582 L216 582 L216 414 L321 414 Z M418 262 Q406 282 381.5 295.5 Q357 309 327 309 L216 309 L216 118 L323 118 Q361 118 383.5 131.5 Q406 145 418 167 L418 262 Z " />
<glyph glyph-name="uni0413" unicode="&#x413;" horiz-adv-x="515" d="M216 582 L216 0 L58 0 L58 700 L490 700 L490 582 L216 582 Z " />
<glyph glyph-name="uni0414" unicode="&#x414;" horiz-adv-x="717" d="M691 -129 L558 -129 L558 0 L157 0 L157 -129 L24 -129 L24 119 Q52 127 80.5 146.5 Q109 166 120 189 L180 700 L611 700 L611 119 L691 119 L691 -129 Z M453 582 L311 582 L264 166 Q249 139 218 119 L453 119 L453 582 Z " />
<glyph glyph-name="uni0415" unicode="&#x415;" horiz-adv-x="538" d="M216 579 L216 419 L474 419 L474 298 L216 298 L216 121 L499 121 L499 0 L58 0 L58 700 L492 700 L492 579 L216 579 Z " />
<glyph glyph-name="uni0416" unicode="&#x416;" horiz-adv-x="887" d="M713 373 L858 88 L858 0 L728 0 L582 304 L518 304 L518 0 L369 0 L369 304 L304 304 L159 0 L29 0 L29 88 L174 373 L35 612 L35 700 L157 700 L304 422 L369 422 L369 700 L518 700 L518 422 L583 422 L730 700 L852 700 L852 612 L713 373 Z " />
<glyph glyph-name="uni0417" unicode="&#x417;" horiz-adv-x="598" d="M551 449 Q540 429 518.5 403.5 Q497 378 460 356 Q497 335 518.5 309.5 Q540 284 551 264 L551 119 Q542 101 523 78 Q504 55 473.5 34.5 Q443 14 399 -0.5 Q355 -15 296 -15 Q237 -15 193 -0.5 Q149 14 118.5 35 Q88 56 68.5 79 Q49 102 40 119 L40 190 L177 190 Q187 153 217.5 129.5 Q248 106 295 106 Q337 106 363 124 Q389 142 399 160 L399 242 Q394 251 385.5 261 Q377 271 364 279 Q351 287 334 292.5 Q317 298 296 297 L203 297 L203 416 L296 416 Q317 415 334 420 Q351 425 364 433 Q377 441 385.5 451 Q394 461 399 470 L399 540 Q389 558 363 576 Q337 594 295 594 Q248 594 217.5 570.5 Q187 547 177 510 L40 510 L40 581 Q49 598 68.5 621 Q88 644 118.5 665 Q149 686 193 700.5 Q237 715 296 715 Q355 715 399 700.5 Q443 686 473.5 665.5 Q504 645 523 622 Q542 599 551 581 L551 449 Z " />
<glyph glyph-name="uni0418" unicode="&#x418;" horiz-adv-x="668" d="M463 0 L463 460 L460 460 L212 0 L58 0 L58 700 L205 700 L205 240 L208 240 L456 700 L610 700 L610 0 L463 0 Z " />
<glyph glyph-name="uni0419" unicode="&#x419;" horiz-adv-x="668" d="M463 0 L463 460 L460 460 L212 0 L58 0 L58 700 L205 700 L205 240 L208 240 L456 700 L610 700 L610 0 L463 0 Z M505 828 Q487 790 445 764.5 Q403 739 334 739 Q265 739 222.5 764.5 Q180 790 162 828 L162 888 L269 888 L269 850 Q273 842 288 829.5 Q303 817 334 817 Q365 817 379.5 829.5 Q394 842 398 850 L398 888 L505 888 L505 828 Z " />
<glyph glyph-name="uni041A" unicode="&#x41a;" horiz-adv-x="596" d="M398 370 L568 88 L568 0 L438 0 L270 304 L209 304 L209 0 L51 0 L51 700 L209 700 L209 422 L270 422 L440 700 L561 700 L561 612 L398 370 Z " />
<glyph glyph-name="uni041B" unicode="&#x41b;" horiz-adv-x="660" d="M444 0 L444 582 L304 582 L247 85 Q230 58 209 41 Q188 24 161 14 Q134 4 99.5 0 Q65 -4 20 -4 L20 117 Q53 117 76 129.5 Q99 142 107 159 L171 700 L602 700 L602 0 L444 0 Z " />
<glyph glyph-name="uni041C" unicode="&#x41c;" horiz-adv-x="770" d="M565 0 L565 473 L562 473 L428 154 L342 154 L208 473 L205 473 L205 0 L58 0 L58 700 L252 700 L388 374 L391 374 L521 700 L712 700 L712 0 L565 0 Z " />
<glyph glyph-name="uni041D" unicode="&#x41d;" horiz-adv-x="655" d="M439 0 L439 300 L216 300 L216 0 L58 0 L58 700 L216 700 L216 421 L439 421 L439 700 L597 700 L597 0 L439 0 Z " />
<glyph glyph-name="uni041E" unicode="&#x41e;" horiz-adv-x="626" d="M313 715 Q372 715 416.5 700 Q461 685 493.5 662.5 Q526 640 546.5 613 Q567 586 578 562 L578 139 Q567 114 546.5 87 Q526 60 493.5 37.5 Q461 15 416.5 0 Q372 -15 313 -15 Q254 -15 209.5 0 Q165 15 132.5 37.5 Q100 60 79.5 87 Q59 114 48 139 L48 562 Q59 586 79.5 613 Q100 640 132.5 662.5 Q165 685 209.5 700 Q254 715 313 715 Z M313 592 Q271 592 244 573.5 Q217 555 206 530 L206 171 Q217 146 244 127.5 Q271 109 313 109 Q356 109 382.5 127.5 Q409 146 420 171 L420 530 Q409 555 382.5 573.5 Q356 592 313 592 Z " />
<glyph glyph-name="uni041F" unicode="&#x41f;" horiz-adv-x="642" d="M427 0 L427 582 L216 582 L216 0 L58 0 L58 700 L585 700 L585 0 L427 0 Z " />
<glyph glyph-name="uni0420" unicode="&#x420;" horiz-adv-x="591" d="M347 700 Q413 700 468.5 669.5 Q524 639 557 581 L557 374 Q543 350 523 328.5 Q503 307 476.5 290.5 Q450 274 417.5 264.5 Q385 255 347 255 L216 255 L216 0 L58 0 L58 700 L347 700 Z M216 374 L311 374 Q342 374 366.5 386.5 Q391 399 405 424 L405 530 Q390 557 364.5 568.5 Q339 580 311 580 L216 580 L216 374 Z " />
<glyph glyph-name="uni0421" unicode="&#x421;" horiz-adv-x="606" d="M313 715 Q372 715 416 700.5 Q460 686 491 665 Q522 644 541.5 619.5 Q561 595 572 574 L572 500 L436 500 Q425 539 395.5 565.5 Q366 592 315 592 Q273 592 245 573.5 Q217 555 206 530 L206 170 Q217 145 245 126.5 Q273 108 315 108 Q366 108 395.5 134.5 Q425 161 436 200 L572 200 L572 126 Q561 105 541.5 80.5 Q522 56 491 35 Q460 14 416 -0.5 Q372 -15 313 -15 Q254 -15 209.5 0 Q165 15 132.5 37.5 Q100 60 79.5 87 Q59 114 48 138 L48 562 Q59 586 79.5 613 Q100 640 132.5 662.5 Q165 685 209.5 700 Q254 715 313 715 Z " />
<glyph glyph-name="uni0422" unicode="&#x422;" horiz-adv-x="545" d="M352 579 L352 0 L194 0 L194 579 L25 579 L25 700 L520 700 L520 579 L352 579 Z " />
<glyph glyph-name="uni0423" unicode="&#x423;" horiz-adv-x="578" d="M547 612 L334 69 Q296 25 249.5 9 Q203 -7 140 -7 Q122 -7 106.5 -5 Q91 -3 81 -1 L81 112 Q87 111 97.5 110.5 Q108 110 120 110 Q149 110 173 117.5 Q197 125 210 139 L225 182 L31 612 L31 700 L159 700 L303 356 L424 700 L547 700 L547 612 Z " />
<glyph glyph-name="uni0424" unicode="&#x424;" horiz-adv-x="782" d="M494 647 Q531 647 567.5 636.5 Q604 626 636 607 Q668 588 694 562 Q720 536 735 505 L735 195 Q720 164 694 138 Q668 112 636 93 Q604 74 567.5 63.5 Q531 53 494 53 L461 53 L461 -40 L323 -40 L323 53 L290 53 Q253 53 216.5 63.5 Q180 74 147.5 93 Q115 112 89 138 Q63 164 48 195 L48 505 Q63 536 89 562 Q115 588 147.5 607 Q180 626 216.5 636.5 Q253 647 290 647 L323 647 L323 740 L461 740 L461 647 L494 647 Z M323 530 L303 530 Q270 530 239 514.5 Q208 499 193 475 L193 225 Q208 201 239 185.5 Q270 170 303 170 L323 170 L323 530 Z M590 475 Q576 499 545 514.5 Q514 530 481 530 L461 530 L461 170 L481 170 Q514 170 545 185.5 Q576 201 590 225 L590 475 Z " />
<glyph glyph-name="uni0425" unicode="&#x425;" horiz-adv-x="598" d="M402 357 L562 88 L562 0 L423 0 L296 255 L293 255 L161 0 L35 0 L35 88 L195 357 L41 612 L41 700 L178 700 L303 457 L306 457 L431 700 L557 700 L557 612 L402 357 Z " />
<glyph glyph-name="uni0426" unicode="&#x426;" horiz-adv-x="690" d="M665 119 L665 -129 L532 -129 L532 0 L58 0 L58 700 L216 700 L216 119 L427 119 L427 700 L585 700 L585 119 L665 119 Z " />
<glyph glyph-name="uni0427" unicode="&#x427;" horiz-adv-x="632" d="M574 0 L416 0 L416 263 Q389 248 355 239 Q321 230 279 230 Q233 230 196 239.5 Q159 249 130.5 264.5 Q102 280 82.5 299.5 Q63 319 52 338 L52 700 L210 700 L210 386 Q220 372 245 358 Q270 344 312 344 Q346 344 372.5 353.5 Q399 363 416 376 L416 700 L574 700 L574 0 Z " />
<glyph glyph-name="uni0428" unicode="&#x428;" horiz-adv-x="924" d="M58 0 L58 700 L216 700 L216 118 L384 118 L384 700 L542 700 L542 118 L708 118 L708 700 L866 700 L866 0 L58 0 Z " />
<glyph glyph-name="uni0429" unicode="&#x429;" horiz-adv-x="972" d="M947 119 L947 -129 L814 -129 L814 0 L58 0 L58 700 L216 700 L216 119 L384 119 L384 700 L542 700 L542 119 L708 119 L708 700 L866 700 L866 119 L947 119 Z " />
<glyph glyph-name="uni042A" unicode="&#x42a;" horiz-adv-x="685" d="M441 445 Q506 445 562 414 Q618 383 649 329 L649 119 Q637 98 618 76.5 Q599 55 573 38 Q547 21 514.5 10.5 Q482 0 443 0 L147 0 L147 583 L25 583 L25 700 L305 700 L305 445 L441 445 Z M305 116 L409 116 Q447 116 469.5 130.5 Q492 145 504 167 L504 281 Q492 301 467.5 314.5 Q443 328 413 328 L305 328 L305 116 Z " />
<glyph glyph-name="uni042B" unicode="&#x42b;" horiz-adv-x="840" d="M339 445 Q403 445 459.5 414 Q516 383 546 329 L546 119 Q534 98 515 76.5 Q496 55 470 38 Q444 21 411.5 10.5 Q379 0 340 0 L58 0 L58 700 L216 700 L216 445 L339 445 Z M624 0 L624 700 L782 700 L782 0 L624 0 Z M216 116 L306 116 Q344 116 366.5 130.5 Q389 145 401 167 L401 281 Q390 301 365 314.5 Q340 328 310 328 L216 328 L216 116 Z " />
<glyph glyph-name="uni042C" unicode="&#x42c;" horiz-adv-x="596" d="M352 445 Q416 445 472.5 414 Q529 383 559 329 L559 119 Q548 98 529 76.5 Q510 55 484 38 Q458 21 425.5 10.5 Q393 0 354 0 L58 0 L58 700 L216 700 L216 445 L352 445 Z M216 116 L319 116 Q357 116 379.5 130.5 Q402 145 414 167 L414 281 Q403 301 378 314.5 Q353 328 323 328 L216 328 L216 116 Z " />
<glyph glyph-name="uni042D" unicode="&#x42d;" horiz-adv-x="615" d="M300 592 Q249 592 219.5 565.5 Q190 539 179 500 L43 500 L43 574 Q54 595 73.5 619.5 Q93 644 124 665 Q155 686 199 700.5 Q243 715 302 715 Q361 715 405.5 700 Q450 685 482.5 662.5 Q515 640 535.5 613 Q556 586 567 562 L567 138 Q556 114 535.5 87 Q515 60 482.5 37.5 Q450 15 405.5 0 Q361 -15 302 -15 Q243 -15 199 -0.5 Q155 14 124 35 Q93 56 73.5 80.5 Q54 105 43 126 L43 200 L179 200 Q190 161 219.5 134.5 Q249 108 300 108 Q342 108 370 126.5 Q398 145 409 170 L409 300 L201 300 L201 414 L409 414 L409 530 Q398 555 370 573.5 Q342 592 300 592 Z " />
<glyph glyph-name="uni042E" unicode="&#x42e;" horiz-adv-x="888" d="M582 715 Q640 715 683.5 700 Q727 685 758 662.5 Q789 640 809 613 Q829 586 840 562 L840 139 Q829 114 809 87 Q789 60 758 37.5 Q727 15 683.5 0 Q640 -15 582 -15 Q524 -15 480.5 0 Q437 15 406 37.5 Q375 60 355 87 Q335 114 324 139 L324 299 L216 299 L216 0 L58 0 L58 700 L216 700 L216 417 L324 417 L324 562 Q335 586 354.5 613 Q374 640 405 662.5 Q436 685 479.5 700 Q523 715 582 715 Z M682 532 Q671 557 647 575.5 Q623 594 582 594 Q541 594 517 575.5 Q493 557 482 532 L482 168 Q493 144 517 125 Q541 106 582 106 Q623 106 647 125 Q671 144 682 168 L682 532 Z " />
<glyph glyph-name="uni042F" unicode="&#x42f;" horiz-adv-x="613" d="M555 0 L397 0 L397 267 L320 267 L174 0 L45 0 L45 88 L166 284 Q126 299 96 325.5 Q66 352 46 387 L46 581 Q78 638 133.5 669 Q189 700 255 700 L555 700 L555 0 Z M290 582 Q258 582 233.5 569 Q209 556 196 532 L196 431 Q209 408 233 394.5 Q257 381 290 381 L397 381 L397 582 L290 582 Z " />
<glyph glyph-name="uni0490" unicode="&#x490;" horiz-adv-x="500" d="M216 582 L216 0 L58 0 L58 700 L343 700 L343 814 L476 814 L476 582 L216 582 Z " />
<glyph glyph-name="uni0406" unicode="&#x406;" horiz-adv-x="274" d="M58 0 L58 700 L216 700 L216 0 L58 0 Z " />
<glyph glyph-name="uni0402" unicode="&#x402;" horiz-adv-x="713" d="M452 451 Q498 451 535 441.5 Q572 432 600.5 416.5 Q629 401 648.5 381.5 Q668 362 679 343 L679 106 Q668 87 648.5 67.5 Q629 48 600.5 32.5 Q572 17 535 7.5 Q498 -2 453 -2 L415 -2 L415 113 Q459 113 485 127 Q511 141 521 155 L521 293 Q511 307 486 321 Q461 335 419 335 Q385 335 358.5 325 Q332 315 315 302 L315 0 L157 0 L157 582 L25 582 L25 700 L493 700 L493 582 L315 582 L315 418 Q342 433 376 442 Q410 451 452 451 Z " />
<glyph glyph-name="uni0452" unicode="&#x452;" horiz-adv-x="579" d="M366 653 L366 576 L211 576 L211 481 Q235 503 268.5 517 Q302 531 348 531 Q390 531 421.5 518.5 Q453 506 475 488 Q497 470 510.5 448.5 Q524 427 531 409 L531 -33 Q522 -54 504 -78 Q486 -102 457 -122.5 Q428 -143 387.5 -156 Q347 -169 294 -169 L294 -59 Q330 -59 353.5 -41.5 Q377 -24 385 0 L385 375 Q378 387 357.5 401.5 Q337 416 300 416 Q268 416 245.5 405.5 Q223 395 211 381 L211 0 L65 0 L65 576 L24 576 L24 653 L65 653 L65 700 L211 700 L211 653 L366 653 Z " />
<glyph glyph-name="uni0403" unicode="&#x403;" horiz-adv-x="515" d="M216 582 L216 0 L58 0 L58 700 L490 700 L490 582 L216 582 Z M295 747 L190 747 L190 762 L243 907 L376 907 L376 844 L295 747 Z " />
<glyph glyph-name="uni0453" unicode="&#x453;" horiz-adv-x="450" d="M197 435 L197 0 L50 0 L50 542 L424 542 L424 435 L197 435 Z M277 604 L167 604 L167 619 L221 767 L356 767 L356 704 L277 604 Z " />
<glyph glyph-name="uni0456" unicode="&#x456;" horiz-adv-x="252" d="M53 0 L53 542 L199 542 L199 0 L53 0 Z " />
<glyph glyph-name="uni0491" unicode="&#x491;" horiz-adv-x="457" d="M197 435 L197 0 L50 0 L50 542 L304 542 L304 628 L427 628 L427 435 L197 435 Z " />
<glyph glyph-name="uni0408" unicode="&#x408;" horiz-adv-x="387" d="M332 139 Q318 109 296.5 83 Q275 57 244.5 38.5 Q214 20 173 9 Q132 -2 78 -2 Q58 -2 43 -1.5 Q28 -1 20 0 L20 120 L66 120 Q108 120 135.5 135.5 Q163 151 174 178 L174 700 L332 700 L332 139 Z " />
<glyph glyph-name="uni0404" unicode="&#x404;" horiz-adv-x="615" d="M315 592 Q273 592 245 573.5 Q217 555 206 530 L206 414 L414 414 L414 300 L206 300 L206 170 Q217 145 245 126.5 Q273 108 315 108 Q366 108 395.5 134.5 Q425 161 436 200 L572 200 L572 126 Q561 105 541.5 80.5 Q522 56 491 35 Q460 14 416 -0.5 Q372 -15 313 -15 Q254 -15 209.5 0 Q165 15 132.5 37.5 Q100 60 79.5 87 Q59 114 48 138 L48 562 Q59 586 79.5 613 Q100 640 132.5 662.5 Q165 685 209.5 700 Q254 715 313 715 Q372 715 416 700.5 Q460 686 491 665 Q522 644 541.5 619.5 Q561 595 572 574 L572 500 L436 500 Q425 539 395.5 565.5 Q366 592 315 592 Z " />
<glyph glyph-name="uni0454" unicode="&#x454;" horiz-adv-x="541" d="M280 443 Q245 443 222 427.5 Q199 412 189 392 L189 322 L363 322 L363 226 L189 226 L189 151 Q199 131 222 115 Q245 99 280 99 Q320 99 343.5 116.5 Q367 134 382 169 L508 169 L508 103 Q500 88 483.5 68 Q467 48 439.5 29.5 Q412 11 372.5 -2 Q333 -15 280 -15 Q227 -15 187 -2 Q147 11 118 31.5 Q89 52 70.5 76 Q52 100 43 121 L43 421 Q52 442 70.5 466 Q89 490 118 510.5 Q147 531 187 544 Q227 557 280 557 Q333 557 372.5 544 Q412 531 439.5 512.5 Q467 494 483.5 474 Q500 454 508 440 L508 373 L382 373 Q367 408 343.5 425.5 Q320 443 280 443 Z " />
<glyph glyph-name="uni0407" unicode="&#x407;" horiz-adv-x="274" d="M37 880 Q70 880 86 869 Q102 858 107 851 L107 777 Q102 770 86 759 Q70 748 37 748 Q5 748 -11.5 759 Q-28 770 -34 777 L-34 851 Q-28 858 -11.5 869 Q5 880 37 880 Z M238 880 Q272 880 287.5 869 Q303 858 309 851 L309 777 Q303 770 287.5 759 Q272 748 238 748 Q206 748 190 759 Q174 770 168 777 L168 851 Q174 858 190 869 Q206 880 238 880 Z M58 0 L58 700 L216 700 L216 0 L58 0 Z " />
<glyph glyph-name="uni0457" unicode="&#x457;" horiz-adv-x="288" d="M45 743 Q79 743 95 732 Q111 721 116 714 L116 636 Q111 628 95 617.5 Q79 607 45 607 Q13 607 -3 618 Q-19 629 -25 636 L-25 714 Q-19 721 -3 732 Q13 743 45 743 Z M242 743 Q276 743 292 732 Q308 721 313 714 L313 636 Q308 628 292 617.5 Q276 607 242 607 Q210 607 194 618 Q178 629 172 636 L172 714 Q178 721 194 732 Q210 743 242 743 Z M70 0 L70 542 L217 542 L217 0 L70 0 Z " />
<glyph glyph-name="uni0409" unicode="&#x409;" horiz-adv-x="982" d="M738 445 Q802 445 858 414 Q914 383 945 329 L945 119 Q934 98 915 76.5 Q896 55 870 38 Q844 21 811 10.5 Q778 0 739 0 L444 0 L444 582 L304 582 L247 85 Q230 58 209 41 Q188 24 161 14 Q134 4 99.5 0 Q65 -4 20 -4 L20 117 Q53 117 76 129.5 Q99 142 107 159 L171 700 L602 700 L602 445 L738 445 Z M800 281 Q789 301 764 314.5 Q739 328 709 328 L602 328 L602 116 L705 116 Q743 116 765.5 130.5 Q788 145 800 167 L800 281 Z " />
<glyph glyph-name="uni0459" unicode="&#x459;" horiz-adv-x="852" d="M657 362 Q711 362 754 336.5 Q797 311 824 269 L824 93 Q795 50 753 25 Q711 0 661 0 L378 0 L378 435 L263 435 L223 78 Q209 54 190.5 38 Q172 22 147 12.5 Q122 3 89.5 -0.5 Q57 -4 15 -4 L15 107 Q45 107 65.5 119 Q86 131 93 146 L140 542 L524 542 L524 362 L657 362 Z M686 217 Q678 230 659 242.5 Q640 255 611 255 L525 255 L525 106 L611 106 Q637 106 656 117.5 Q675 129 686 143 L686 217 Z " />
</font>
</svg>
