<?xml version="1.0" encoding="UTF-8"?>
<svg xmlns="http://www.w3.org/2000/svg" xmlns:xlink="http://www.w3.org/1999/xlink" version="1.2" >
<font id="Cadillac Serif Web SemiBold">
<font-face  font-family="Cadillac Serif Web" units-per-em="1000" ascent="700" descent="-300" font-style="normal" font-weight="600" font-stretch="normal" cap-height="625" x-height="444" underline-position="-75" underline-thickness="50" />
<missing-glyph  horiz-adv-x="535" d="M20 693 L515 693 L515 0 L20 0 L20 693 Z M436 644 L99 644 L268 391 L436 644 Z M466 94 L466 599 L297 347 L466 94 Z M436 50 L268 302 L99 50 L436 50 Z M70 94 L238 347 L70 599 L70 94 Z " />
<glyph glyph-name="null" d="" />
<glyph glyph-name="nonmarkingreturn" unicode="&#xd;" horiz-adv-x="166" d="" />
<glyph glyph-name="nbspace" unicode="&#xa0;" horiz-adv-x="166" d="" />
<glyph glyph-name="space" unicode="&#x20;" horiz-adv-x="166" d="" />
<glyph glyph-name="A" unicode="A" horiz-adv-x="647" d="M380 198 L185 198 L145 88 Q139 71 139 64 Q139 52 152.5 43.5 Q166 35 198 29 L198 0 Q177 0 151 1.5 Q125 3 102 3 Q90 3 76 2.5 Q62 2 48 1.5 Q34 1 21 0.5 Q8 0 -2 0 L-2 29 L63 48 L281 626 L355 626 L557 103 Q564 86 570.5 74 Q577 62 586 54 Q595 46 609 40 Q623 34 645 29 L645 0 Q634 0 617.5 0.5 Q601 1 583 1.5 Q565 2 547.5 2.5 Q530 3 517 3 Q508 3 489.5 2.5 Q471 2 449.5 1.5 Q428 1 406.5 0.5 Q385 0 370 0 L370 29 L437 48 L380 198 Z M204 248 L361 248 L282 459 L204 248 Z " />
<glyph glyph-name="B" unicode="B" horiz-adv-x="593" d="M38 29 L101 48 L101 526 Q101 542 99.5 553 Q98 564 91.5 571.5 Q85 579 72 584.5 Q59 590 36 596 L36 625 L307 625 Q371 625 413 615 Q455 605 481 582 Q520 549 520 487 Q520 437 490 400 Q460 363 403 346 Q482 329 519.5 288 Q557 247 557 181 Q557 104 509 56 Q482 29 439.5 14.5 Q397 0 340 0 L38 0 L38 29 Z M384 471 Q384 524 362 549 Q338 576 271 576 L237 576 L237 361 L281 361 Q332 361 357 386 Q371 400 377.5 422 Q384 444 384 471 Z M414 182 Q414 214 407 238.5 Q400 263 383 280 Q367 296 341.5 304 Q316 312 274 312 L237 312 L237 87 Q237 68 250.5 58.5 Q264 49 305 49 Q356 49 385 78.5 Q414 108 414 182 Z " />
<glyph glyph-name="C" unicode="C" horiz-adv-x="577" d="M553 114 Q520 54 461 19 Q402 -16 323 -16 Q256 -16 206.5 4 Q157 24 122 60 Q78 105 56.5 169 Q35 233 35 309 Q35 390 59 453.5 Q83 517 128 560 Q168 599 223.5 619.5 Q279 640 347 640 Q398 640 439.5 632.5 Q481 625 521 622 Q522 604 523 580.5 Q524 557 525 533 Q526 509 527 486 Q528 463 530 445 L491 445 Q480 519 444.5 552 Q409 585 355 585 Q315 585 282.5 566 Q250 547 227.5 512 Q205 477 193 427 Q181 377 181 314 Q181 250 193.5 202 Q206 154 229 122 Q274 57 353 57 Q402 57 444.5 79.5 Q487 102 516 140 L553 114 Z " />
<glyph glyph-name="D" unicode="D" horiz-adv-x="670" d="M38 29 L101 48 L101 526 Q101 542 99.5 553 Q98 564 91.5 571.5 Q85 579 72 584.5 Q59 590 36 596 L36 625 L262 625 Q373 625 445.5 603.5 Q518 582 563 536 Q635 461 635 310 Q635 166 557 83 Q519 43 464.5 21.5 Q410 0 328 0 L38 0 L38 29 Z M491 311 Q491 389 476.5 440 Q462 491 433 521 Q407 548 368 560 Q329 572 273 572 L237 572 L237 90 Q237 68 250 59 Q263 50 298 50 L304 50 Q345 50 375 62.5 Q405 75 428 98 Q491 164 491 311 Z " />
<glyph glyph-name="E" unicode="E" horiz-adv-x="564" d="M38 29 L101 48 L101 526 Q101 542 99.5 553 Q98 564 91.5 571.5 Q85 579 72 584.5 Q59 590 36 596 L36 625 L496 625 Q496 611 497.5 589.5 Q499 568 500.5 545.5 Q502 523 503.5 502.5 Q505 482 507 470 L469 470 Q461 505 451.5 526 Q442 547 424 558 Q406 569 376 572.5 Q346 576 298 576 Q282 576 265.5 575.5 Q249 575 237 574 L237 347 L283 347 Q327 347 366.5 349.5 Q406 352 422 356 L416 291 Q390 295 355.5 296.5 Q321 298 283 298 L237 298 L237 94 Q237 69 258 59 Q279 49 340 49 Q376 49 401 53 Q426 57 443 68.5 Q460 80 470 100.5 Q480 121 487 153 L524 153 Q523 141 522 120.5 Q521 100 520.5 77.5 Q520 55 519.5 34 Q519 13 519 0 L38 0 L38 29 Z " />
<glyph glyph-name="F" unicode="F" horiz-adv-x="523" d="M237 99 Q237 82 240 71 Q243 60 251.5 52.5 Q260 45 275 39.5 Q290 34 314 29 L314 0 Q303 0 284 0.5 Q265 1 243.5 1.5 Q222 2 202 2.5 Q182 3 170 3 Q153 3 134 2.5 Q115 2 96.5 1.5 Q78 1 62.5 0.5 Q47 0 38 0 L38 29 L101 48 L101 526 Q101 542 99.5 553 Q98 564 91.5 571.5 Q85 579 72 584.5 Q59 590 36 596 L36 625 L492 625 Q492 611 493.5 589.5 Q495 568 496.5 545.5 Q498 523 499.5 502.5 Q501 482 503 470 L465 470 Q457 505 447.5 526 Q438 547 420 558 Q402 569 372 572.5 Q342 576 294 576 Q278 576 263.5 575.5 Q249 575 237 574 L237 347 L279 347 Q323 347 362.5 349.5 Q402 352 418 356 L412 291 Q386 295 351.5 296.5 Q317 298 279 298 L237 298 L237 99 Z " />
<glyph glyph-name="G" unicode="G" horiz-adv-x="670" d="M578 36 Q559 25 533 15.5 Q507 6 476.5 -1 Q446 -8 413.5 -12 Q381 -16 349 -16 Q277 -16 220 4.5 Q163 25 123 64 Q80 106 57.5 168 Q35 230 35 311 Q35 383 57.5 443.5 Q80 504 123 547.5 Q166 591 228 615.5 Q290 640 369 640 Q420 640 466.5 632 Q513 624 552 620 Q553 581 555 534 Q557 487 561 445 L522 445 Q511 515 472.5 550 Q434 585 373 585 Q331 585 295.5 567 Q260 549 234.5 514.5 Q209 480 195 429.5 Q181 379 181 315 Q181 188 224.5 115 Q268 42 354 42 Q402 42 425 65 Q436 76 441 92 Q446 108 446 134 L446 243 L374 263 L374 292 Q383 292 399.5 291.5 Q416 291 435.5 290.5 Q455 290 475.5 289.5 Q496 289 513 289 Q525 289 542.5 289.5 Q560 290 579 290.5 Q598 291 615 291.5 Q632 292 643 292 L643 263 Q620 257 607 251.5 Q594 246 587.5 238.5 Q581 231 579.5 220 Q578 209 578 193 L578 36 Z " />
<glyph glyph-name="H" unicode="H" horiz-adv-x="727" d="M490 294 L237 294 L237 99 Q237 82 238.5 71.5 Q240 61 246.5 53.5 Q253 46 266 40.5 Q279 35 302 29 L302 0 Q291 0 273.5 0.5 Q256 1 237 1.5 Q218 2 200 2.5 Q182 3 170 3 Q153 3 134 2.5 Q115 2 96.5 1.5 Q78 1 62.5 0.5 Q47 0 38 0 L38 29 L101 48 L101 526 Q101 542 99.5 553 Q98 564 91.5 571.5 Q85 579 72 584.5 Q59 590 36 596 L36 625 Q46 625 64 624.5 Q82 624 101 623.5 Q120 623 138 622.5 Q156 622 168 622 Q185 622 204 622.5 Q223 623 241.5 623.5 Q260 624 275.5 624.5 Q291 625 300 625 L300 596 L237 577 L237 350 L490 350 L490 526 Q490 542 488.5 553 Q487 564 480.5 571.5 Q474 579 461 584.5 Q448 590 425 596 L425 625 Q435 625 453 624.5 Q471 624 490 623.5 Q509 623 527 622.5 Q545 622 557 622 Q574 622 593 622.5 Q612 623 630.5 623.5 Q649 624 664.5 624.5 Q680 625 689 625 L689 596 L626 577 L626 99 Q626 82 627.5 71.5 Q629 61 635.5 53.5 Q642 46 655 40.5 Q668 35 691 29 L691 0 Q680 0 662.5 0.5 Q645 1 626 1.5 Q607 2 589 2.5 Q571 3 559 3 Q542 3 523 2.5 Q504 2 485.5 1.5 Q467 1 451.5 0.5 Q436 0 427 0 L427 29 L490 48 L490 294 Z " />
<glyph glyph-name="I" unicode="I" horiz-adv-x="340" d="M102 526 Q102 542 100.5 553 Q99 564 92.5 571.5 Q86 579 73 584.5 Q60 590 37 596 L37 625 Q47 625 65 624.5 Q83 624 102 623.5 Q121 623 139 622.5 Q157 622 169 622 Q186 622 205 622.5 Q224 623 242.5 623.5 Q261 624 276.5 624.5 Q292 625 301 625 L301 596 L238 577 L238 99 Q238 82 239.5 71.5 Q241 61 247.5 53.5 Q254 46 267 40.5 Q280 35 303 29 L303 0 Q292 0 274.5 0.5 Q257 1 238 1.5 Q219 2 201 2.5 Q183 3 171 3 Q154 3 135 2.5 Q116 2 97.5 1.5 Q79 1 63.5 0.5 Q48 0 39 0 L39 29 L102 48 L102 526 Z " />
<glyph glyph-name="J" unicode="J" horiz-adv-x="326" d="M232 88 Q232 38 223 -10.5 Q214 -59 188.5 -101 Q163 -143 118 -174 Q73 -205 1 -219 L-11 -181 Q20 -167 41 -146 Q62 -125 74 -93.5 Q86 -62 91 -19.5 Q96 23 96 80 L96 526 Q96 542 94.5 553 Q93 564 86.5 571.5 Q80 579 67 584.5 Q54 590 31 596 L31 625 Q41 625 59 624.5 Q77 624 96 623.5 Q115 623 133 622.5 Q151 622 163 622 Q180 622 199 622.5 Q218 623 236.5 623.5 Q255 624 270.5 624.5 Q286 625 295 625 L295 596 L232 577 L232 88 Z " />
<glyph glyph-name="K" unicode="K" horiz-adv-x="647" d="M101 526 Q101 542 99.5 553 Q98 564 91.5 571.5 Q85 579 72 584.5 Q59 590 36 596 L36 625 Q46 625 64 624.5 Q82 624 101 623.5 Q120 623 138 622.5 Q156 622 168 622 Q185 622 204 622.5 Q223 623 241.5 623.5 Q260 624 275.5 624.5 Q291 625 300 625 L300 596 L237 577 L237 320 L454 580 L394 596 L394 625 Q416 624 449 623 Q482 622 504 622 Q527 622 559 623 Q591 624 611 625 L611 596 Q587 593 570 588.5 Q553 584 539 576 Q525 568 512 555.5 Q499 543 482 523 L373 395 L533 117 Q546 94 556.5 79 Q567 64 579 54 Q591 44 605.5 38.5 Q620 33 641 29 L641 0 L430 0 Q428 12 426 22.5 Q424 33 420 44 Q416 55 409.5 69 Q403 83 392 102 L285 291 L237 234 L237 99 Q237 82 238.5 71.5 Q240 61 246.5 53.5 Q253 46 266 40.5 Q279 35 302 29 L302 0 Q291 0 273.5 0.5 Q256 1 237 1.5 Q218 2 200 2.5 Q182 3 170 3 Q153 3 134 2.5 Q115 2 96.5 1.5 Q78 1 62.5 0.5 Q47 0 38 0 L38 29 L101 48 L101 526 Z " />
<glyph glyph-name="L" unicode="L" horiz-adv-x="534" d="M237 93 Q237 81 241 72 Q245 63 256 58 Q267 53 286.5 50.5 Q306 48 336 48 Q370 48 394 52.5 Q418 57 434 68.5 Q450 80 460 100.5 Q470 121 477 153 L514 153 Q513 141 512 120.5 Q511 100 510.5 77.5 Q510 55 509.5 34 Q509 13 509 0 L38 0 L38 29 L101 48 L101 526 Q101 542 99.5 553 Q98 564 91.5 571.5 Q85 579 72 584.5 Q59 590 36 596 L36 625 Q46 625 64 624.5 Q82 624 101 623.5 Q120 623 138 622.5 Q156 622 168 622 Q185 622 204 622.5 Q223 623 241.5 623.5 Q260 624 275.5 624.5 Q291 625 300 625 L300 596 L237 577 L237 93 Z " />
<glyph glyph-name="M" unicode="M" horiz-adv-x="859" d="M821 596 L758 577 L758 99 Q758 82 759.5 71.5 Q761 61 767.5 53.5 Q774 46 787 40.5 Q800 35 823 29 L823 0 Q812 0 795 0.5 Q778 1 759 1.5 Q740 2 722 2.5 Q704 3 692 3 Q675 3 656 2.5 Q637 2 618.5 1.5 Q600 1 584.5 0.5 Q569 0 560 0 L560 29 L623 48 L623 465 L420 -3 L368 -3 L167 463 L167 99 Q167 82 168.5 71.5 Q170 61 176.5 53.5 Q183 46 196 40.5 Q209 35 232 29 L232 0 Q211 1 184.5 1.5 Q158 2 135 2 Q101 2 79 1.5 Q57 1 38 0 L38 29 L101 48 L101 526 Q101 542 99.5 553 Q98 564 91.5 571.5 Q85 579 72 584.5 Q59 590 36 596 L36 625 L238 625 L428 175 L622 625 L821 625 L821 596 Z " />
<glyph glyph-name="N" unicode="N" horiz-adv-x="704" d="M610 -2 L525 -2 L167 466 L167 99 Q167 82 168.5 71.5 Q170 61 176.5 53.5 Q183 46 196 40.5 Q209 35 232 29 L232 0 Q211 1 184.5 1.5 Q158 2 135 2 Q101 2 79 1.5 Q57 1 38 0 L38 29 L101 48 L101 526 Q101 542 99.5 553 Q98 564 91.5 571.5 Q85 579 72 584.5 Q59 590 36 596 L36 625 L211 625 L544 190 L544 527 Q544 543 542.5 554 Q541 565 534.5 572.5 Q528 580 515 585.5 Q502 591 479 597 L479 626 Q500 625 526.5 624.5 Q553 624 576 624 Q610 624 632 624.5 Q654 625 673 626 L673 597 L610 578 L610 -2 Z " />
<glyph glyph-name="O" unicode="O" horiz-adv-x="656" d="M621 312 Q621 244 603 184 Q585 124 548.5 79.5 Q512 35 457 9.5 Q402 -16 328 -16 Q254 -16 199 9.5 Q144 35 107.5 79.5 Q71 124 53 184 Q35 244 35 312 Q35 380 53 440 Q71 500 107.5 544.5 Q144 589 199 614.5 Q254 640 328 640 Q402 640 457 614.5 Q512 589 548.5 544.5 Q585 500 603 440 Q621 380 621 312 Z M475 312 Q475 364 467.5 413 Q460 462 443 500 Q426 538 398 561 Q370 584 328 584 Q286 584 258 561 Q230 538 213 500 Q196 462 188.5 413 Q181 364 181 312 Q181 260 188.5 211 Q196 162 213 124 Q230 86 258 63 Q286 40 328 40 Q370 40 398 63 Q426 86 443 124 Q460 162 467.5 211 Q475 260 475 312 Z " />
<glyph glyph-name="P" unicode="P" horiz-adv-x="564" d="M237 99 Q237 82 240 71 Q243 60 251.5 52.5 Q260 45 275 39.5 Q290 34 314 29 L314 0 Q303 0 284 0.5 Q265 1 243.5 1.5 Q222 2 202 2.5 Q182 3 170 3 Q153 3 134 2.5 Q115 2 96.5 1.5 Q78 1 62.5 0.5 Q47 0 38 0 L38 29 L101 48 L101 526 Q101 542 99.5 553 Q98 564 91.5 571.5 Q85 579 72 584.5 Q59 590 36 596 L36 625 L270 625 Q342 625 395.5 613.5 Q449 602 484 573 Q510 552 523.5 520 Q537 488 537 443 Q537 402 522 367 Q507 332 475.5 306.5 Q444 281 395.5 266.5 Q347 252 281 252 L237 252 L237 99 Z M394 441 Q394 477 386 501.5 Q378 526 364 542 Q347 561 321.5 568 Q296 575 262 575 L237 575 L237 301 L262 301 Q300 301 325.5 311.5 Q351 322 366 340.5 Q381 359 387.5 385 Q394 411 394 441 Z " />
<glyph glyph-name="Q" unicode="Q" horiz-adv-x="656" d="M621 312 Q621 209 580.5 128 Q540 47 456 9 Q476 -72 562 -116 Q648 -160 777 -167 L777 -203 Q676 -203 598.5 -194.5 Q521 -186 463.5 -165 Q406 -144 367 -107.5 Q328 -71 305 -15 Q237 -11 186 16 Q135 43 101.5 87 Q68 131 51.5 188.5 Q35 246 35 312 Q35 380 53 440 Q71 500 107.5 544.5 Q144 589 199 614.5 Q254 640 328 640 Q402 640 457 614.5 Q512 589 548.5 544.5 Q585 500 603 440 Q621 380 621 312 Z M475 312 Q475 364 467.5 413 Q460 462 443 500 Q426 538 398 561 Q370 584 328 584 Q286 584 258 561 Q230 538 213 500 Q196 462 188.5 413 Q181 364 181 312 Q181 260 188.5 211 Q196 162 213 124 Q230 86 258 63 Q286 40 328 40 Q370 40 398 63 Q426 86 443 124 Q460 162 467.5 211 Q475 260 475 312 Z " />
<glyph glyph-name="R" unicode="R" horiz-adv-x="630" d="M237 99 Q237 82 238.5 71.5 Q240 61 246.5 53.5 Q253 46 266 40.5 Q279 35 302 29 L302 0 Q291 0 273.5 0.5 Q256 1 237 1.5 Q218 2 200 2.5 Q182 3 170 3 Q153 3 134 2.5 Q115 2 96.5 1.5 Q78 1 62.5 0.5 Q47 0 38 0 L38 29 L101 48 L101 526 Q101 542 99.5 553 Q98 564 91.5 571.5 Q85 579 72 584.5 Q59 590 36 596 L36 625 L262 625 Q341 625 395.5 613.5 Q450 602 484 576 Q537 535 537 454 Q537 400 505.5 360 Q474 320 414 300 Q430 295 441 287 Q452 279 461.5 266.5 Q471 254 479 237 Q487 220 497 198 L535 110 Q544 88 552.5 73.5 Q561 59 571.5 50 Q582 41 595.5 36.5 Q609 32 628 29 L628 0 L425 0 Q424 26 419.5 45.5 Q415 65 403 92 L357 197 Q347 219 339 233 Q331 247 321 254.5 Q311 262 297.5 265 Q284 268 264 268 L237 268 L237 99 Z M394 448 Q394 482 386.5 505 Q379 528 365 542 Q347 562 320 568.5 Q293 575 258 575 L237 575 L237 314 L264 314 Q301 314 325 323.5 Q349 333 364 350 Q380 367 387 392 Q394 417 394 448 Z " />
<glyph glyph-name="S" unicode="S" horiz-adv-x="520" d="M471 181 Q471 143 456 107.5 Q441 72 412 44.5 Q383 17 340 0.5 Q297 -16 240 -16 Q194 -16 146.5 -7.5 Q99 1 64 15 L64 168 L103 168 Q107 131 119.5 105.5 Q132 80 150 64.5 Q168 49 189.5 42.5 Q211 36 234 36 Q285 36 316 62.5 Q347 89 347 134 Q347 173 325.5 197 Q304 221 272 239.5 Q240 258 202.5 275 Q165 292 133 315.5 Q101 339 79.5 373 Q58 407 58 461 Q58 501 74 534 Q90 567 119 590.5 Q148 614 188.5 627 Q229 640 278 640 Q318 640 358.5 633.5 Q399 627 435 624 Q435 612 435.5 591.5 Q436 571 437 549 Q438 527 439.5 506 Q441 485 442 470 L403 470 Q395 528 364 557.5 Q333 587 285 587 Q239 587 208.5 561.5 Q178 536 178 493 Q178 460 199.5 438.5 Q221 417 254 398.5 Q287 380 324.5 362.5 Q362 345 395 321 Q428 297 449.5 263.5 Q471 230 471 181 Z " />
<glyph glyph-name="T" unicode="T" horiz-adv-x="600" d="M574 625 Q574 611 574.5 588.5 Q575 566 576 542 Q577 518 578 496 Q579 474 580 461 L542 461 Q533 497 524 519 Q515 541 502 553.5 Q489 566 469 570.5 Q449 575 418 575 L368 575 L368 99 Q368 82 369.5 71.5 Q371 61 377.5 53.5 Q384 46 397 40.5 Q410 35 433 29 L433 0 Q422 0 404.5 0.5 Q387 1 368 1.5 Q349 2 331 2.5 Q313 3 301 3 Q284 3 265 2.5 Q246 2 227.5 1.5 Q209 1 193.5 0.5 Q178 0 169 0 L169 29 L232 48 L232 575 L182 575 Q151 575 131 570.5 Q111 566 98 553.5 Q85 541 76 519 Q67 497 58 461 L20 461 Q21 474 22 496 Q23 518 24 542 Q25 566 25.5 588.5 Q26 611 26 625 L574 625 Z " />
<glyph glyph-name="U" unicode="U" horiz-adv-x="671" d="M514 526 Q514 542 512.5 553 Q511 564 504.5 571.5 Q498 579 485 584.5 Q472 590 449 596 L449 625 Q470 624 496.5 623.5 Q523 623 546 623 Q580 623 602 623.5 Q624 624 643 625 L643 596 L580 577 L580 234 Q580 167 565 122.5 Q550 78 521 47 Q460 -16 342 -16 Q276 -16 228 3.5 Q180 23 148 56 Q118 88 104.5 133.5 Q91 179 91 236 L91 526 Q91 542 89.5 553 Q88 564 81.5 571.5 Q75 579 62 584.5 Q49 590 26 596 L26 625 Q36 625 54 624.5 Q72 624 91 623.5 Q110 623 128 622.5 Q146 622 158 622 Q175 622 194 622.5 Q213 623 231.5 623.5 Q250 624 265.5 624.5 Q281 625 290 625 L290 596 L227 577 L227 232 Q227 178 237 143.5 Q247 109 268 86 Q304 47 371 47 Q437 47 473 86 Q494 109 504 143.5 Q514 178 514 232 L514 526 Z " />
<glyph glyph-name="V" unicode="V" horiz-adv-x="620" d="M626 596 Q606 593 592.5 589.5 Q579 586 569 579.5 Q559 573 552.5 562.5 Q546 552 540 535 L352 -1 L283 -1 L78 522 Q70 541 62.5 553.5 Q55 566 45.5 573.5 Q36 581 22.5 586 Q9 591 -10 596 L-10 625 Q-4 625 13.5 624.5 Q31 624 52 623.5 Q73 623 93 622.5 Q113 622 124 622 Q137 622 156 622.5 Q175 623 194.5 623.5 Q214 624 231 624.5 Q248 625 258 625 L258 596 L197 579 L352 177 L490 579 L434 596 L434 625 Q457 624 485.5 623 Q514 622 538 622 Q558 622 581 622.5 Q604 623 626 625 L626 596 L626 596 Z " />
<glyph glyph-name="W" unicode="W" horiz-adv-x="936" d="M677 -1 L607 -1 L477 376 L340 -1 L268 -1 L78 522 Q71 541 63.5 553.5 Q56 566 46 573.5 Q36 581 22.5 586 Q9 591 -10 596 L-10 625 Q-4 625 13.5 624.5 Q31 624 52 623.5 Q73 623 93 622.5 Q113 622 124 622 Q137 622 156 622.5 Q175 623 194.5 623.5 Q214 624 231 624.5 Q248 625 258 625 L258 596 L196 579 L340 178 L445 470 L421 538 Q416 553 410.5 562.5 Q405 572 397.5 578 Q390 584 379 588 Q368 592 351 596 L351 625 Q385 623 417 622.5 Q449 622 478 622 Q490 622 506.5 622 Q523 622 540.5 622.5 Q558 623 575.5 623.5 Q593 624 608 625 L608 596 L542 579 L674 178 L806 579 L750 596 L750 625 Q773 624 801.5 623 Q830 622 854 622 Q874 622 897 622.5 Q920 623 942 625 L942 596 Q922 593 908.5 589.5 Q895 586 885.5 579.5 Q876 573 869.5 562.5 Q863 552 857 535 L677 -1 Z " />
<glyph glyph-name="X" unicode="X" horiz-adv-x="628" d="M630 0 Q618 0 600.5 0.5 Q583 1 564 1.5 Q545 2 526 2.5 Q507 3 492 3 Q480 3 460 2.5 Q440 2 419.5 1.5 Q399 1 381.5 0.5 Q364 0 357 0 L357 29 L415 44 L286 238 L161 44 L216 29 L216 0 Q208 0 193.5 0.5 Q179 1 163 1.5 Q147 2 131 2.5 Q115 3 105 3 Q95 3 81 2.5 Q67 2 52.5 1.5 Q38 1 26 0.5 Q14 0 7 0 L7 29 Q47 34 71.5 46.5 Q96 59 114 86 L249 293 L92 530 Q81 547 71 558 Q61 569 50.5 576.5 Q40 584 27 588 Q14 592 -3 596 L-3 625 Q9 625 26.5 624.5 Q44 624 63 623.5 Q82 623 101 622.5 Q120 622 135 622 Q147 622 166.5 622.5 Q186 623 205.5 623.5 Q225 624 241.5 624.5 Q258 625 266 625 L266 596 L212 580 L333 397 L452 581 L399 596 L399 625 Q407 625 421 624.5 Q435 624 450.5 623.5 Q466 623 481 622.5 Q496 622 507 622 Q517 622 530 622.5 Q543 623 556 623.5 Q569 624 580 624.5 Q591 625 598 625 L598 596 Q578 594 563 590 Q548 586 537 579.5 Q526 573 516.5 563 Q507 553 498 539 L370 343 L542 84 Q559 58 578.5 47.5 Q598 37 630 29 L630 0 Z " />
<glyph glyph-name="Y" unicode="Y" horiz-adv-x="589" d="M367 247 L367 99 Q367 82 368.5 71.5 Q370 61 376.5 53.5 Q383 46 396 40.5 Q409 35 432 29 L432 0 Q421 0 403.5 0.5 Q386 1 367 1.5 Q348 2 330 2.5 Q312 3 300 3 Q283 3 264 2.5 Q245 2 226.5 1.5 Q208 1 192.5 0.5 Q177 0 168 0 L168 29 L231 48 L231 245 L83 522 Q73 540 65 552 Q57 564 47.5 572.5 Q38 581 25 586 Q12 591 -7 596 L-7 625 Q-1 625 16.5 624.5 Q34 624 55 623.5 Q76 623 96 622.5 Q116 622 127 622 Q140 622 159 622.5 Q178 623 197.5 623.5 Q217 624 234.5 624.5 Q252 625 262 625 L262 596 L200 579 L335 321 L457 579 L402 596 L402 625 Q425 624 453 623 Q481 622 505 622 Q548 622 592 625 L592 596 Q572 593 558.5 589.5 Q545 586 535.5 579 Q526 572 518.5 561.5 Q511 551 503 534 L367 247 Z " />
<glyph glyph-name="Z" unicode="Z" horiz-adv-x="569" d="M521 164 Q520 146 519 124 Q518 102 517 79 Q516 56 515.5 35.5 Q515 15 515 0 L46 0 L46 36 L361 574 L140 574 L93 467 L59 467 Q60 479 61 499.5 Q62 520 62.5 543 Q63 566 63.5 588 Q64 610 64 625 L519 625 L519 589 L202 51 L367 51 Q397 51 417 57.5 Q437 64 450.5 78 Q464 92 472 113 Q480 134 485 164 L521 164 L521 164 Z " />
<glyph glyph-name="a" unicode="a" horiz-adv-x="480" d="M467 22 Q447 6 419.5 -3.5 Q392 -13 362 -13 Q329 -13 310 -1 Q291 11 284 29 Q263 8 233 -4 Q203 -16 171 -16 Q108 -16 69.5 21.5 Q31 59 31 122 Q31 198 95 237.5 Q159 277 278 277 L278 304 Q278 325 274 343 Q270 361 259 373 Q241 394 208 394 Q175 394 148 372.5 Q121 351 104 311 L58 329 Q77 385 123.5 422.5 Q170 460 244 460 Q283 460 315.5 449 Q348 438 368 415 Q388 392 397.5 362 Q407 332 407 285 L407 86 Q407 67 413 57 Q419 47 435 47 Q450 47 467 55 L467 22 Z M218 46 Q234 46 250.5 53.5 Q267 61 278 72 L278 232 Q219 232 188.5 206.5 Q158 181 158 128 Q158 96 171.5 71 Q185 46 218 46 Z " />
<glyph glyph-name="b" unicode="b" horiz-adv-x="530" d="M195 405 Q220 430 252 445 Q284 460 321 460 Q358 460 390.5 444.5 Q423 429 447 399.5 Q471 370 484.5 326 Q498 282 498 225 Q498 170 482.5 125.5 Q467 81 437 49.5 Q407 18 364 1 Q321 -16 267 -16 Q210 -16 160 -3.5 Q110 9 66 31 L66 576 Q66 591 64 600 Q62 609 56 616 Q50 623 39.5 627.5 Q29 632 12 638 L12 665 Q70 665 114 667 Q158 669 195 673 L195 405 Z M365 221 Q365 309 343.5 350.5 Q322 392 283 392 Q259 392 236 379.5 Q213 367 195 350 L195 66 Q206 55 225 46.5 Q244 38 267 38 Q319 38 342 86.5 Q365 135 365 221 Z " />
<glyph glyph-name="c" unicode="c" horiz-adv-x="445" d="M423 99 Q399 48 350.5 16 Q302 -16 236 -16 Q188 -16 149.5 0.5 Q111 17 84.5 47.5 Q58 78 43.5 121.5 Q29 165 29 218 Q29 276 46 321 Q63 366 93 396 Q157 460 267 460 Q302 460 334.5 455 Q367 450 397 445 Q397 430 397.5 410 Q398 390 398.5 369 Q399 348 399.5 328 Q400 308 401 294 L367 294 Q362 347 339 377 Q316 407 273 407 Q244 407 223 393.5 Q202 380 188.5 356 Q175 332 168.5 299.5 Q162 267 162 230 Q162 142 193.5 99 Q225 56 276 56 Q311 56 338.5 74.5 Q366 93 386 122 L423 99 Z " />
<glyph glyph-name="d" unicode="d" horiz-adv-x="541" d="M427 -13 Q397 -13 375.5 0 Q354 13 344 39 Q321 14 289 -1 Q257 -16 218 -16 Q173 -16 138.5 2 Q104 20 80 51 Q56 82 43.5 123.5 Q31 165 31 213 Q31 265 44.5 310 Q58 355 84.5 388.5 Q111 422 149 441 Q187 460 236 460 Q264 460 290 450.5 Q316 441 336 427 L336 576 Q336 591 333.5 600.5 Q331 610 325 616.5 Q319 623 308 628 Q297 633 280 638 L280 665 Q338 665 383 667 Q428 669 465 673 L465 89 Q465 47 494 47 Q502 47 511 49.5 Q520 52 528 56 L528 22 Q508 7 481.5 -3 Q455 -13 427 -13 Z M263 54 Q283 54 302.5 62.5 Q322 71 336 86 L336 373 Q321 384 301.5 391.5 Q282 399 263 399 Q239 399 220.5 386 Q202 373 189.5 350 Q177 327 170.5 295 Q164 263 164 225 Q164 144 190 99 Q216 54 263 54 Z " />
<glyph glyph-name="e" unicode="e" horiz-adv-x="464" d="M426 101 Q403 49 354 16.5 Q305 -16 239 -16 Q186 -16 147 3 Q108 22 81.5 54.5 Q55 87 42 130.5 Q29 174 29 223 Q29 274 44.5 317.5 Q60 361 88 392.5 Q116 424 156 442 Q196 460 244 460 Q329 460 379.5 407 Q430 354 430 258 Q430 251 430 242 Q430 233 429 225 L161 225 Q161 141 192 98.5 Q223 56 275 56 Q312 56 341 75 Q370 94 390 124 L426 101 Z M319 273 Q318 336 298.5 371 Q279 406 243 406 Q207 406 186.5 369 Q166 332 162 273 L319 273 Z " />
<glyph glyph-name="f" unicode="f" horiz-adv-x="332" d="M214 80 Q214 69 216.5 61.5 Q219 54 226 48 Q233 42 245.5 37 Q258 32 279 26 L279 0 Q265 0 247.5 0.5 Q230 1 212.5 1.5 Q195 2 179 2.5 Q163 3 152 3 Q140 3 123.5 2.5 Q107 2 89.5 1.5 Q72 1 57 0.5 Q42 0 34 0 L34 26 L85 46 L85 396 L18 396 L18 444 L85 444 L85 454 Q85 568 144 627 Q195 680 287 680 Q311 680 335 674.5 Q359 669 378 659 Q397 649 408.5 634.5 Q420 620 420 602 Q420 572 400 552.5 Q380 533 359 533 Q341 533 330.5 548.5 Q320 564 311 582.5 Q302 601 291.5 616.5 Q281 632 263 632 Q248 632 238.5 621 Q229 610 223.5 591 Q218 572 216 546 Q214 520 214 491 L214 444 L332 444 L323 396 L214 396 L214 80 Z " />
<glyph glyph-name="g" unicode="g" horiz-adv-x="488" d="M437 295 Q437 259 424 229.5 Q411 200 386.5 178 Q362 156 325.5 144 Q289 132 242 132 Q191 132 155 145 Q149 136 149 126 Q149 107 173 98 Q197 89 232.5 83 Q268 77 309.5 71 Q351 65 386.5 51 Q422 37 446 11.5 Q470 -14 470 -58 Q470 -102 448.5 -135 Q427 -168 392 -190 Q357 -212 312.5 -223.5 Q268 -235 222 -235 Q178 -235 141 -226 Q104 -217 77 -200.5 Q50 -184 35 -160.5 Q20 -137 20 -108 Q20 -72 44.5 -44.5 Q69 -17 109 -2 Q86 10 73 29 Q60 48 60 77 Q60 105 74 127 Q88 149 114 165 Q80 187 63 220.5 Q46 254 46 296 Q46 332 59.5 362 Q73 392 98 413.5 Q123 435 159.5 447.5 Q196 460 243 460 Q299 460 342 441 Q354 441 372 443 Q390 445 409.5 447.5 Q429 450 448 453.5 Q467 457 482 460 L482 392 L454 392 Q439 392 423.5 393.5 Q408 395 398 397 Q415 377 426 351.5 Q437 326 437 295 Z M378 -98 Q378 -77 357 -66 Q336 -55 303.5 -48.5 Q271 -42 232.5 -37 Q194 -32 159 -23 Q148 -36 141 -53.5 Q134 -71 134 -91 Q134 -129 163 -152 Q192 -175 247 -175 Q272 -175 295.5 -169 Q319 -163 337.5 -153 Q356 -143 367 -129 Q378 -115 378 -98 Z M315 296 Q315 346 297.5 377 Q280 408 243 408 Q205 408 186.5 377 Q168 346 168 296 Q168 246 185.5 215 Q203 184 242 184 Q281 184 298 215 Q315 246 315 296 Z " />
<glyph glyph-name="h" unicode="h" horiz-adv-x="560" d="M362 46 L362 286 Q362 308 358.5 326.5 Q355 345 346 359 Q338 370 326.5 377 Q315 384 298 384 Q272 384 248 368 Q224 352 206 331 L206 80 Q206 57 216 47 Q226 37 258 26 L258 0 Q230 0 198.5 1.5 Q167 3 144 3 Q132 3 115.5 2.5 Q99 2 81.5 1.5 Q64 1 49 0.5 Q34 0 26 0 L26 26 L77 46 L77 576 Q77 591 75 600 Q73 609 67 616 Q61 623 50.5 627.5 Q40 632 23 638 L23 665 Q81 665 125 667 Q169 669 206 673 L206 388 Q231 419 268.5 439.5 Q306 460 349 460 Q416 460 452 419 Q471 398 481 367 Q491 336 491 293 L491 79 Q491 56 501 46 Q511 36 543 25 L543 0 Q517 0 484.5 1.5 Q452 3 429 3 Q417 3 400.5 2.5 Q384 2 366.5 1.5 Q349 1 334 0.5 Q319 0 311 0 L311 26 L362 46 Z " />
<glyph glyph-name="i" unicode="i" horiz-adv-x="287" d="M213 80 Q213 57 223 47 Q233 37 265 26 L265 0 Q237 0 205.5 1.5 Q174 3 151 3 Q139 3 122.5 2.5 Q106 2 88.5 1.5 Q71 1 56 0.5 Q41 0 33 0 L33 26 L84 46 L84 355 Q84 370 82 379 Q80 388 74 395 Q68 402 57.5 406.5 Q47 411 30 417 L30 444 Q88 444 132 446 Q176 448 213 452 L213 80 Z M212 580 Q212 549 191.5 528.5 Q171 508 141 508 Q111 508 90.5 528.5 Q70 549 70 580 Q70 611 90.5 631.5 Q111 652 141 652 Q171 652 191.5 631.5 Q212 611 212 580 Z " />
<glyph glyph-name="j" unicode="j" horiz-adv-x="277" d="M209 7 Q209 -53 194 -96 Q179 -139 152 -168 Q125 -197 87 -213 Q49 -229 3 -234 L-4 -197 Q39 -182 59.5 -145.5 Q80 -109 80 -34 L80 355 Q80 370 78 379 Q76 388 70 395 Q64 402 53.5 406.5 Q43 411 26 417 L26 444 Q84 444 128 446 Q172 448 209 452 L209 7 Z M208 580 Q208 549 187.5 528.5 Q167 508 137 508 Q107 508 86.5 528.5 Q66 549 66 580 Q66 611 86.5 631.5 Q107 652 137 652 Q167 652 187.5 631.5 Q208 611 208 580 Z " />
<glyph glyph-name="k" unicode="k" horiz-adv-x="528" d="M206 268 L359 403 L315 417 L315 444 Q321 444 334.5 443.5 Q348 443 364 443 Q380 443 395.5 442.5 Q411 442 421 442 Q430 442 443 442.5 Q456 443 469 443 Q482 443 492.5 443.5 Q503 444 508 444 L508 417 Q488 415 472.5 411.5 Q457 408 441.5 400 Q426 392 409 379 Q392 366 369 347 L331 315 L444 99 Q454 80 462 68 Q470 56 480 48 Q490 40 502 35 Q514 30 532 27 L532 0 L431 0 Q407 0 390 4 Q373 8 360 17 Q347 26 337 40.5 Q327 55 316 76 L236 233 L206 207 L206 80 Q206 57 216 47 Q226 37 258 26 L258 0 Q230 0 198.5 1.5 Q167 3 144 3 Q132 3 115.5 2.5 Q99 2 81.5 1.5 Q64 1 49 0.5 Q34 0 26 0 L26 26 L77 46 L77 576 Q77 591 75 600 Q73 609 67 616 Q61 623 50.5 627.5 Q40 632 23 638 L23 665 Q81 665 125 667 Q169 669 206 673 L206 268 Z " />
<glyph glyph-name="l" unicode="l" horiz-adv-x="279" d="M206 80 Q206 57 216 47 Q226 37 258 26 L258 0 Q230 0 198.5 1.5 Q167 3 144 3 Q132 3 115.5 2.5 Q99 2 81.5 1.5 Q64 1 49 0.5 Q34 0 26 0 L26 26 L77 46 L77 576 Q77 591 75 600 Q73 609 67 616 Q61 623 50.5 627.5 Q40 632 23 638 L23 665 Q81 665 125 667 Q169 669 206 673 L206 80 Z " />
<glyph glyph-name="m" unicode="m" horiz-adv-x="840" d="M29 444 Q87 444 131 446 Q175 448 212 452 L212 388 Q237 417 272.5 438.5 Q308 460 350 460 Q395 460 428.5 440 Q462 420 478 378 Q503 410 542.5 435 Q582 460 629 460 Q696 460 732 419 Q751 398 761 367 Q771 336 771 293 L771 79 Q771 56 781 46 Q791 36 823 25 L823 0 Q797 0 764.5 1.5 Q732 3 709 3 Q697 3 680.5 2.5 Q664 2 646.5 1.5 Q629 1 614 0.5 Q599 0 591 0 L591 26 L642 46 L642 286 Q642 308 638.5 326.5 Q635 345 626 359 Q618 370 606.5 377 Q595 384 578 384 Q553 384 530 369.5 Q507 355 489 333 Q492 315 492 292 L492 79 Q492 56 502 46 Q512 36 544 25 L544 0 Q518 0 485.5 1.5 Q453 3 430 3 Q418 3 401.5 2.5 Q385 2 367.5 1.5 Q350 1 335 0.5 Q320 0 312 0 L312 26 L363 46 L363 286 Q363 308 359.5 326.5 Q356 345 347 359 Q339 370 327.5 377 Q316 384 299 384 Q275 384 252 369 Q229 354 212 331 L212 80 Q212 57 222 47 Q232 37 264 26 L264 0 Q236 0 204.5 1.5 Q173 3 150 3 Q138 3 121.5 2.5 Q105 2 87.5 1.5 Q70 1 55 0.5 Q40 0 32 0 L32 26 L83 46 L83 355 Q83 370 81 379 Q79 388 73 395 Q67 402 56.5 406.5 Q46 411 29 417 L29 444 Z " />
<glyph glyph-name="n" unicode="n" horiz-adv-x="566" d="M29 444 Q87 444 131 446 Q175 448 212 452 L212 388 Q237 419 274.5 439.5 Q312 460 355 460 Q422 460 458 419 Q477 398 487 367 Q497 336 497 293 L497 79 Q497 56 507 46 Q517 36 549 25 L549 0 Q522 0 490 1.5 Q458 3 435 3 Q423 3 406.5 2.5 Q390 2 372.5 1.5 Q355 1 340 0.5 Q325 0 317 0 L317 26 L368 46 L368 286 Q368 308 364.5 326.5 Q361 345 352 359 Q344 370 332.5 377 Q321 384 304 384 Q278 384 254 368 Q230 352 212 331 L212 80 Q212 57 222 47 Q232 37 264 26 L264 0 Q236 0 204.5 1.5 Q173 3 150 3 Q138 3 121.5 2.5 Q105 2 87.5 1.5 Q70 1 55 0.5 Q40 0 32 0 L32 26 L83 46 L83 355 Q83 370 81 379 Q79 388 73 395 Q67 402 56.5 406.5 Q46 411 29 417 L29 444 Z " />
<glyph glyph-name="o" unicode="o" horiz-adv-x="512" d="M483 222 Q483 169 467.5 125 Q452 81 423 49.5 Q394 18 352 1 Q310 -16 256 -16 Q202 -16 160 1 Q118 18 89 49.5 Q60 81 44.5 125 Q29 169 29 222 Q29 275 44.5 319 Q60 363 89 394.5 Q118 426 160 443 Q202 460 256 460 Q310 460 352 443 Q394 426 423 394.5 Q452 363 467.5 319 Q483 275 483 222 Z M350 222 Q350 262 345 295.5 Q340 329 328.5 354 Q317 379 299 393 Q281 407 256 407 Q230 407 212.5 393 Q195 379 183.5 354 Q172 329 167 295.5 Q162 262 162 222 Q162 182 167 148 Q172 114 183.5 89.5 Q195 65 212.5 51 Q230 37 256 37 Q281 37 299 51 Q317 65 328.5 89.5 Q340 114 345 148 Q350 182 350 222 Z " />
<glyph glyph-name="p" unicode="p" horiz-adv-x="544" d="M281 45 Q305 45 323.5 58 Q342 71 354.5 94 Q367 117 373.5 149 Q380 181 380 219 Q380 304 358.5 346.5 Q337 389 298 389 Q272 389 249 373 Q226 357 208 335 L208 69 Q223 58 243 51.5 Q263 45 281 45 Z M146 -217 Q134 -217 117.5 -217.5 Q101 -218 83.5 -218.5 Q66 -219 51 -219.5 Q36 -220 28 -220 L28 -194 L79 -174 L79 355 Q79 370 77 379 Q75 388 69 395 Q63 402 52.5 406.5 Q42 411 25 417 L25 444 Q83 444 127 446 Q171 448 208 452 L208 393 Q230 421 262 440.5 Q294 460 334 460 Q377 460 410.5 442 Q444 424 467 393 Q490 362 501.5 320.5 Q513 279 513 231 Q513 179 499.5 134 Q486 89 459.5 55.5 Q433 22 395 3 Q357 -16 308 -16 Q281 -16 254.5 -7.5 Q228 1 208 15 L208 -140 Q208 -151 210.5 -158.5 Q213 -166 220 -172 Q227 -178 239.5 -183 Q252 -188 273 -194 L273 -220 Q259 -220 241.5 -219.5 Q224 -219 206.5 -218.5 Q189 -218 173 -217.5 Q157 -217 146 -217 Z " />
<glyph glyph-name="q" unicode="q" horiz-adv-x="531" d="M213 -16 Q176 -16 143 -1.5 Q110 13 85.5 42 Q61 71 46.5 115 Q32 159 32 219 Q32 276 48.5 321 Q65 366 96 397 Q127 428 170 444 Q213 460 267 460 Q317 460 368 445 Q419 430 464 404 L464 -131 Q464 -146 466 -155 Q468 -164 474 -171 Q480 -178 490.5 -182.5 Q501 -187 518 -193 L518 -220 Q460 -220 416 -222 Q372 -224 335 -228 L335 34 Q312 11 281 -2.5 Q250 -16 213 -16 Z M165 223 Q165 134 190 93 Q215 52 255 52 Q274 52 295.5 61 Q317 70 335 86 L335 378 Q321 391 304 398.5 Q287 406 267 406 Q216 406 190.5 357 Q165 308 165 223 Z " />
<glyph glyph-name="r" unicode="r" horiz-adv-x="409" d="M212 380 Q237 415 266.5 437.5 Q296 460 331 460 Q362 460 381.5 443.5 Q401 427 401 404 Q401 392 396.5 380.5 Q392 369 384.5 359 Q377 349 367 343 Q357 337 346 337 Q336 337 328 343 Q320 349 312 356 Q304 363 295.5 369 Q287 375 277 375 Q260 375 244 361.5 Q228 348 212 328 L212 80 Q212 69 214.5 61.5 Q217 54 224 48 Q231 42 243.5 37 Q256 32 277 26 L277 0 Q263 0 245.5 0.5 Q228 1 210.5 1.5 Q193 2 177 2.5 Q161 3 150 3 Q138 3 121.5 2.5 Q105 2 87.5 1.5 Q70 1 55 0.5 Q40 0 32 0 L32 26 L83 46 L83 355 Q83 370 81 379 Q79 388 73 395 Q67 402 56.5 406.5 Q46 411 29 417 L29 444 Q87 444 131 446 Q175 448 212 452 L212 380 Z " />
<glyph glyph-name="s" unicode="s" horiz-adv-x="418" d="M380 128 Q380 94 367 67.5 Q354 41 330 22.5 Q306 4 272.5 -6 Q239 -16 199 -16 Q163 -16 126 -9 Q89 -2 57 10 L57 136 L90 136 Q96 92 122.5 63 Q149 34 196 34 Q227 34 246.5 49.5 Q266 65 266 92 Q266 115 250 130 Q234 145 210 158 Q186 171 158.5 183.5 Q131 196 107 214 Q83 232 67 257.5 Q51 283 51 322 Q51 377 89 413 Q112 436 148 448 Q184 460 227 460 Q261 460 292 454.5 Q323 449 351 445 Q351 413 352 377.5 Q353 342 355 316 L322 316 Q316 359 294 385 Q272 411 231 411 Q202 411 183 396 Q164 381 164 355 Q164 332 180 316.5 Q196 301 220 288 Q244 275 272 262 Q300 249 324 231.5 Q348 214 364 189 Q380 164 380 128 Z " />
<glyph glyph-name="t" unicode="t" horiz-adv-x="359" d="M345 66 Q320 29 282.5 6.5 Q245 -16 200 -16 Q141 -16 111 16 Q79 48 79 119 L79 396 L12 396 L12 444 L79 444 L79 538 L208 573 L208 444 L326 444 L317 396 L208 396 L208 117 Q208 54 250 54 Q267 54 283.5 65 Q300 76 316 94 L345 66 Z " />
<glyph glyph-name="u" unicode="u" horiz-adv-x="555" d="M210 -16 Q143 -16 107 25 Q88 46 78 77 Q68 108 68 151 L68 355 Q68 370 66 379 Q64 388 58 395 Q52 402 41.5 406.5 Q31 411 14 417 L14 444 Q72 444 116 446 Q160 448 197 452 L197 158 Q197 136 200.5 117.5 Q204 99 213 85 Q221 74 232.5 67 Q244 60 261 60 Q287 60 309 75 Q331 90 349 113 L349 355 Q349 370 347 379 Q345 388 339 395 Q333 402 322.5 406.5 Q312 411 295 417 L295 444 Q353 444 397 446 Q441 448 478 452 L478 89 Q478 47 507 47 Q515 47 524 49.5 Q533 52 541 56 L541 22 Q521 7 494.5 -3 Q468 -13 440 -13 Q405 -13 382 5 Q359 23 353 57 Q323 22 287 3 Q251 -16 210 -16 Z " />
<glyph glyph-name="v" unicode="v" horiz-adv-x="473" d="M65 356 Q59 372 52.5 381.5 Q46 391 38 397.5 Q30 404 18.5 408 Q7 412 -10 417 L-10 444 Q-5 444 10 443.5 Q25 443 42.5 442.5 Q60 442 77.5 441.5 Q95 441 106 441 Q118 441 136 441.5 Q154 442 172.5 442.5 Q191 443 206 443.5 Q221 444 227 444 L227 417 L182 402 L222 298 Q242 246 256.5 205.5 Q271 165 282 130 Q288 150 296 173 Q304 196 312 219 Q320 242 328 264 Q336 286 343 304 L380 403 L337 417 L337 444 Q355 444 377.5 443 Q400 442 418 442 Q437 442 458 443 Q479 444 492 444 L492 417 Q475 414 464 410.5 Q453 407 446 401.5 Q439 396 434 388 Q429 380 424 367 L287 -1 L207 -1 L65 356 Z " />
<glyph glyph-name="w" unicode="w" horiz-adv-x="720" d="M58 356 Q52 372 45.5 381.5 Q39 391 31 397.5 Q23 404 11.5 408 Q0 412 -17 417 L-17 444 Q-12 444 2.5 443.5 Q17 443 34.5 442.5 Q52 442 69.5 441.5 Q87 441 98 441 Q110 441 128 441.5 Q146 442 164 442.5 Q182 443 197 443.5 Q212 444 218 444 L218 417 L172 402 L200 332 Q223 275 240 227 Q257 179 270 140 Q277 160 286 184.5 Q295 209 305.5 236 Q316 263 326.5 290.5 Q337 318 347 344 Q339 363 332.5 375.5 Q326 388 318.5 396 Q311 404 301 408.5 Q291 413 276 417 L276 444 Q283 444 298 443.5 Q313 443 329.5 442.5 Q346 442 362 441.5 Q378 441 389 441 Q401 441 415.5 441.5 Q430 442 445 442.5 Q460 443 473.5 443.5 Q487 444 498 444 L498 417 L448 404 L476 327 Q493 280 509 229.5 Q525 179 535 141 L622 403 L574 418 L574 444 Q588 444 611.5 442.5 Q635 441 658 441 Q681 441 700.5 442.5 Q720 444 734 444 L734 418 Q704 412 689.5 402 Q675 392 665 364 L538 -1 L468 -1 L372 273 L270 -1 L201 -1 L58 356 Z " />
<glyph glyph-name="x" unicode="x" horiz-adv-x="493" d="M220 160 L147 40 L188 27 L188 0 Q184 0 174 0.5 Q164 1 151.5 1.5 Q139 2 125 2.5 Q111 3 98 3 Q87 3 73.5 2.5 Q60 2 47 1.5 Q34 1 24.5 0.5 Q15 0 11 0 L11 27 Q30 29 45 32 Q60 35 71 40.5 Q82 46 91.5 55.5 Q101 65 110 79 L189 205 L89 353 Q78 369 69.5 380 Q61 391 52 397.5 Q43 404 31.5 408.5 Q20 413 4 417 L4 444 Q23 444 56 442.5 Q89 441 121 441 Q152 441 185.5 442.5 Q219 444 238 444 L238 417 L196 403 L275 286 L347 404 L306 417 L306 444 Q310 444 319.5 443.5 Q329 443 341.5 442.5 Q354 442 367.5 441.5 Q381 441 394 441 Q417 441 443 442.5 Q469 444 477 444 L477 417 Q457 415 444 412.5 Q431 410 420.5 404.5 Q410 399 401.5 389.5 Q393 380 384 365 L306 241 L408 91 Q419 74 427.5 63.5 Q436 53 445 46.5 Q454 40 465 35.5 Q476 31 493 27 L493 0 Q474 0 441 1.5 Q408 3 376 3 Q345 3 311.5 1.5 Q278 0 259 0 L259 27 L301 41 L220 160 Z " />
<glyph glyph-name="y" unicode="y" horiz-adv-x="477" d="M234 -120 Q213 -174 183 -204.5 Q153 -235 106 -235 Q75 -235 52.5 -219.5 Q30 -204 30 -176 Q30 -156 41.5 -144 Q53 -132 71 -132 Q85 -132 97 -136 Q109 -140 126 -140 Q153 -140 169.5 -121 Q186 -102 201 -63 L220 -13 L63 356 Q56 372 50 381.5 Q44 391 35.5 397.5 Q27 404 16 408 Q5 412 -12 417 L-12 444 Q-7 444 8 443.5 Q23 443 40.5 442.5 Q58 442 75.5 441.5 Q93 441 104 441 Q116 441 134 441.5 Q152 442 170.5 442.5 Q189 443 204 443.5 Q219 444 225 444 L225 417 L180 402 L207 334 Q224 290 245 239.5 Q266 189 283 142 Q290 161 301 190.5 Q312 220 325.5 255.5 Q339 291 354 329 Q369 367 383 403 L340 417 L340 444 Q358 444 380.5 443 Q403 442 421 442 Q440 442 461 443 Q482 444 495 444 L495 417 Q478 415 467 411.5 Q456 408 448.5 402.5 Q441 397 436 388.5 Q431 380 426 367 L234 -120 Z " />
<glyph glyph-name="z" unicode="z" horiz-adv-x="446" d="M190 48 L298 48 Q315 48 326 50.5 Q337 53 344.5 60 Q352 67 357.5 79 Q363 91 368 110 L375 136 L406 136 Q406 121 405.5 102 Q405 83 404.5 64 Q404 45 404 28 Q404 11 404 0 L40 0 L40 38 L256 396 L113 396 L78 309 L48 309 Q50 341 50 378.5 Q50 416 50 444 L406 444 L406 406 L190 48 Z " />
<glyph glyph-name="ampersand" unicode="&#x26;" horiz-adv-x="711" d="M686 24 Q661 7 632 -4 Q603 -15 572 -15 Q535 -15 504.5 1 Q474 17 442 51 Q405 18 356 1 Q307 -16 253 -16 Q205 -16 164 -2 Q123 12 93 37 Q63 62 46 95.5 Q29 129 29 167 Q29 228 67.5 269.5 Q106 311 177 342 Q147 377 130.5 412.5 Q114 448 114 484 Q114 520 128.5 548.5 Q143 577 167 597.5 Q191 618 222.5 629 Q254 640 288 640 Q321 640 349 630 Q377 620 397.5 603 Q418 586 429.5 562.5 Q441 539 441 512 Q441 468 413 430 Q385 392 321 355 L480 179 Q493 205 501.5 239 Q510 273 514 309 Q498 315 482.5 321 Q467 327 451 334 L451 363 Q468 361 496.5 360 Q525 359 548 359 Q566 359 592.5 360 Q619 361 637 363 L637 334 Q616 329 602 324 Q588 319 579 311.5 Q570 304 565 293 Q560 282 556 265 Q548 228 538.5 198.5 Q529 169 515 141 L554 98 Q583 66 600 56 Q617 46 638 46 Q661 46 686 57 L686 24 Z M215 302 Q188 283 172.5 254.5 Q157 226 157 188 Q157 161 166.5 137 Q176 113 193.5 94.5 Q211 76 236 65.5 Q261 55 293 55 Q322 55 350.5 64.5 Q379 74 403 92 L215 302 Z M285 392 Q320 418 339 447 Q358 476 358 511 Q358 543 339.5 566 Q321 589 289 589 Q260 589 240 568.5 Q220 548 220 514 Q220 487 234 460 Q248 433 285 392 Z " />
<glyph glyph-name="at" unicode="&#x40;" horiz-adv-x="777" d="M529 264 Q524 248 522.5 238.5 Q521 229 521 221 Q521 210 527 201.5 Q533 193 547 193 Q566 193 585 209 Q604 225 619 252.5 Q634 280 643 316.5 Q652 353 652 393 Q652 436 638.5 473 Q625 510 599 536 Q573 562 535.5 577 Q498 592 451 592 Q386 592 331 564.5 Q276 537 235 491.5 Q194 446 171 386 Q148 326 148 261 Q148 210 163.5 167.5 Q179 125 208.5 95 Q238 65 282 48 Q326 31 383 31 Q449 31 514 52 Q579 73 633 111 L651 85 Q590 38 515.5 11 Q441 -16 361 -16 Q286 -16 226.5 4 Q167 24 125.5 60 Q84 96 62 147.5 Q40 199 40 262 Q40 335 70 403.5 Q100 472 154 524.5 Q208 577 284 608.5 Q360 640 452 640 Q519 640 572.5 621 Q626 602 663.5 568 Q701 534 721 488.5 Q741 443 741 389 Q741 341 724 297 Q707 253 678 219.5 Q649 186 610.5 166 Q572 146 528 146 Q488 146 464 162.5 Q440 179 434 205 Q416 176 387.5 158.5 Q359 141 323 141 Q276 141 247 171.5 Q218 202 218 256 Q218 301 235.5 341 Q253 381 282 411 Q311 441 349.5 459 Q388 477 430 477 Q469 477 497 457 L518 477 L581 468 L585 461 L529 264 Z M471 419 Q459 433 437 433 Q413 433 392 416 Q371 399 355.5 372.5 Q340 346 331 313.5 Q322 281 322 251 Q322 225 332 212.5 Q342 200 356 200 Q382 200 403.5 227.5 Q425 255 444 324 L471 419 Z " />
<glyph glyph-name="exclam" unicode="&#x21;" horiz-adv-x="262" d="M64 51 Q64 80 83 99.5 Q102 119 131 119 Q160 119 179.5 99.5 Q199 80 199 51 Q199 22 179.5 3 Q160 -16 131 -16 Q102 -16 83 3 Q64 22 64 51 Z M111 184 Q107 245 99 296 Q91 347 82.5 391.5 Q74 436 67.5 475.5 Q61 515 61 553 Q61 595 80 617.5 Q99 640 131 640 Q163 640 182 617.5 Q201 595 201 553 Q201 515 194.5 475.5 Q188 436 179.5 391.5 Q171 347 163 296 Q155 245 151 184 L111 184 Z " />
<glyph glyph-name="exclamdown" unicode="&#xa1;" horiz-adv-x="262" d="M64 393 Q64 422 83 441 Q102 460 131 460 Q160 460 179.5 441 Q199 422 199 393 Q199 364 179.5 344.5 Q160 325 131 325 Q102 325 83 344.5 Q64 364 64 393 Z M151 260 Q155 199 163 148 Q171 97 179.5 52.5 Q188 8 194.5 -32 Q201 -72 201 -109 Q201 -151 182 -173.5 Q163 -196 131 -196 Q99 -196 80 -173.5 Q61 -151 61 -109 Q61 -72 67.5 -32 Q74 8 82.5 52.5 Q91 97 99 148 Q107 199 111 260 L151 260 Z " />
<glyph glyph-name="question" unicode="&#x3f;" horiz-adv-x="426" d="M390 480 Q390 447 378.5 421.5 Q367 396 348.5 374.5 Q330 353 308 333 Q286 313 266 290.5 Q246 268 229.5 241 Q213 214 207 178 L161 178 Q163 227 177.5 263.5 Q192 300 208.5 332.5 Q225 365 238.5 396 Q252 427 252 465 Q252 513 228.5 540 Q205 567 163 567 Q130 567 103.5 551 Q77 535 57 506 L18 530 Q44 583 92 611.5 Q140 640 205 640 Q243 640 276.5 629 Q310 618 335.5 597.5 Q361 577 375.5 547.5 Q390 518 390 480 Z M115 51 Q115 80 134 99.5 Q153 119 182 119 Q211 119 230.5 99.5 Q250 80 250 51 Q250 22 230.5 3 Q211 -16 182 -16 Q153 -16 134 3 Q115 22 115 51 Z " />
<glyph glyph-name="questiondown" unicode="&#xbf;" horiz-adv-x="426" d="M36 -36 Q36 -3 48 22.5 Q60 48 78 69.5 Q96 91 118 111 Q140 131 160 153.5 Q180 176 196 203 Q212 230 219 266 L265 266 Q263 217 248.5 180 Q234 143 217.5 111 Q201 79 187.5 47.5 Q174 16 174 -21 Q174 -69 197.5 -96 Q221 -123 263 -123 Q296 -123 322.5 -107 Q349 -91 369 -62 L408 -86 Q382 -139 334 -167.5 Q286 -196 221 -196 Q183 -196 149.5 -185 Q116 -174 90.5 -153.5 Q65 -133 50.5 -103.5 Q36 -74 36 -36 Z M311 393 Q311 364 292 344.5 Q273 325 244 325 Q215 325 195.5 344.5 Q176 364 176 393 Q176 422 195.5 441 Q215 460 244 460 Q273 460 292 441 Q311 422 311 393 Z " />
<glyph glyph-name="asterisk" unicode="&#x2a;" horiz-adv-x="395" d="M207 443 Q209 427 213 410 Q217 393 221.5 377 Q226 361 229 346.5 Q232 332 232 320 Q232 281 197 281 Q163 281 163 320 Q163 343 173 377 Q183 411 187 443 Q174 433 161 421 Q148 409 136 397.5 Q124 386 113 376.5 Q102 367 92 361 Q81 354 69 354 Q55 354 45.5 364.5 Q36 375 36 389 Q36 408 58 420 Q68 426 82 430.5 Q96 435 112 439.5 Q128 444 145 449 Q162 454 177 460 Q162 467 145 472 Q128 477 112 481.5 Q96 486 82 490.5 Q68 495 58 501 Q36 513 36 532 Q36 546 45.5 556.5 Q55 567 69 567 Q81 567 92 560 Q102 554 113 544.5 Q124 535 136 523.5 Q148 512 161 500 Q174 488 187 478 Q183 510 173 544 Q163 578 163 601 Q163 640 197 640 Q232 640 232 601 Q232 589 229 574.5 Q226 560 221.5 544 Q217 528 213 511 Q209 494 207 478 Q220 488 233 500 Q246 512 258 523.5 Q270 535 281 544.5 Q292 554 302 560 Q313 567 325 567 Q340 567 349.5 556.5 Q359 546 359 532 Q359 513 337 501 Q327 495 312.5 490.5 Q298 486 282 481.5 Q266 477 249.5 472 Q233 467 218 460 Q248 447 282.5 439 Q317 431 337 420 Q359 408 359 389 Q359 375 349.5 364.5 Q340 354 325 354 Q313 354 302 361 Q292 367 281 376.5 Q270 386 258 397.5 Q246 409 233 421 Q220 433 207 443 Z " />
<glyph glyph-name="period" unicode="&#x2e;" horiz-adv-x="227" d="M46 51 Q46 80 65 99.5 Q84 119 113 119 Q142 119 161.5 99.5 Q181 80 181 51 Q181 22 161.5 3 Q142 -16 113 -16 Q84 -16 65 3 Q46 22 46 51 Z " />
<glyph glyph-name="comma" unicode="&#x2c;" horiz-adv-x="227" d="M175 27 Q175 -19 147 -66.5 Q119 -114 59 -149 L44 -126 Q70 -103 88.5 -78 Q107 -53 107 -30 Q107 -10 96 1 Q85 12 72 20.5 Q59 29 48 39 Q37 49 37 66 Q37 89 53.5 104 Q70 119 99 119 Q134 119 154.5 92 Q175 65 175 27 Z " />
<glyph glyph-name="colon" unicode="&#x3a;" horiz-adv-x="227" d="M46 51 Q46 80 65 99.5 Q84 119 113 119 Q142 119 161.5 99.5 Q181 80 181 51 Q181 22 161.5 3 Q142 -16 113 -16 Q84 -16 65 3 Q46 22 46 51 Z M46 336 Q46 365 65 384.5 Q84 404 113 404 Q142 404 161.5 384.5 Q181 365 181 336 Q181 307 161.5 288 Q142 269 113 269 Q84 269 65 288 Q46 307 46 336 Z " />
<glyph glyph-name="semicolon" unicode="&#x3b;" horiz-adv-x="230" d="M46 336 Q46 365 65 384.5 Q84 404 113 404 Q142 404 161.5 384.5 Q181 365 181 336 Q181 307 161.5 288 Q142 269 113 269 Q84 269 65 288 Q46 307 46 336 Z M183 27 Q183 -19 155 -66.5 Q127 -114 67 -149 L52 -126 Q78 -103 96.5 -78 Q115 -53 115 -30 Q115 -10 104 1 Q93 12 80 20.5 Q67 29 56 39 Q45 49 45 66 Q45 89 61.5 104 Q78 119 107 119 Q142 119 162.5 92 Q183 65 183 27 Z " />
<glyph glyph-name="ellipsis" unicode="&#x2026;" horiz-adv-x="681" d="M46 51 Q46 80 65 99.5 Q84 119 113 119 Q142 119 161.5 99.5 Q181 80 181 51 Q181 22 161.5 3 Q142 -16 113 -16 Q84 -16 65 3 Q46 22 46 51 Z M273 51 Q273 80 292 99.5 Q311 119 340 119 Q369 119 388.5 99.5 Q408 80 408 51 Q408 22 388.5 3 Q369 -16 340 -16 Q311 -16 292 3 Q273 22 273 51 Z M500 51 Q500 80 519 99.5 Q538 119 567 119 Q596 119 615.5 99.5 Q635 80 635 51 Q635 22 615.5 3 Q596 -16 567 -16 Q538 -16 519 3 Q500 22 500 51 Z " />
<glyph glyph-name="periodcentered" unicode="&#xb7;" horiz-adv-x="227" d="M46 222 Q46 251 65 270.5 Q84 290 113 290 Q142 290 161.5 270.5 Q181 251 181 222 Q181 193 161.5 174 Q142 155 113 155 Q84 155 65 174 Q46 193 46 222 Z " />
<glyph glyph-name="uni22C5" unicode="&#x22c5;" horiz-adv-x="227" d="M46 222 Q46 251 65 270.5 Q84 290 113 290 Q142 290 161.5 270.5 Q181 251 181 222 Q181 193 161.5 174 Q142 155 113 155 Q84 155 65 174 Q46 193 46 222 Z " />
<glyph glyph-name="bullet" unicode="&#x2022;" horiz-adv-x="321" d="M48 220 Q48 243 57 263.5 Q66 284 81 299.5 Q96 315 116.5 324 Q137 333 160 333 Q183 333 203.5 324 Q224 315 239.5 299.5 Q255 284 264 263.5 Q273 243 273 220 Q273 197 264 176.5 Q255 156 239.5 141 Q224 126 203.5 117 Q183 108 160 108 Q137 108 116.5 117 Q96 126 81 141 Q66 156 57 176.5 Q48 197 48 220 Z " />
<glyph glyph-name="slash" unicode="&#x2f;" horiz-adv-x="334" d="M95 -16 L36 -16 L238 640 L298 640 L95 -16 Z " />
<glyph glyph-name="parenleft" unicode="&#x28;" horiz-adv-x="331" d="M66 312 Q66 384 83 454 Q100 524 129 584.5 Q158 645 197.5 692 Q237 739 281 766 L343 766 Q306 734 278 684.5 Q250 635 231 575 Q212 515 202.5 447.5 Q193 380 193 312 Q193 244 202.5 176.5 Q212 109 231 49 Q250 -11 278 -60.5 Q306 -110 343 -142 L281 -142 Q237 -115 197.5 -68 Q158 -21 129 39.5 Q100 100 83 170 Q66 240 66 312 Z " />
<glyph glyph-name="brokenbar" unicode="&#xa6;" horiz-adv-x="265" d="M101 340 L101 710 L164 710 L164 340 L101 340 Z M101 -265 L101 105 L164 105 L164 -265 L101 -265 Z " />
<glyph glyph-name="parenright" unicode="&#x29;" horiz-adv-x="331" d="M265 312 Q265 240 248 170 Q231 100 201.5 39.5 Q172 -21 133 -68 Q94 -115 50 -142 L-12 -142 Q25 -110 53 -60.5 Q81 -11 100 49 Q119 109 128.5 176.5 Q138 244 138 312 Q138 380 128.5 447.5 Q119 515 100 575 Q81 635 53 684.5 Q25 734 -12 766 L50 766 Q94 739 133 692 Q172 645 201.5 584.5 Q231 524 248 454 Q265 384 265 312 Z " />
<glyph glyph-name="bracketleft" unicode="&#x5b;" horiz-adv-x="332" d="M98 -142 L98 767 L334 767 L334 719 L216 719 L216 -94 L334 -94 L334 -142 L98 -142 Z " />
<glyph glyph-name="backslash" unicode="&#x5c;" horiz-adv-x="334" d="M36 640 L96 640 L298 -16 L239 -16 L36 640 Z " />
<glyph glyph-name="bracketright" unicode="&#x5d;" horiz-adv-x="332" d="M-2 -142 L-2 -94 L116 -94 L116 719 L-2 719 L-2 767 L234 767 L234 -142 L-2 -142 Z " />
<glyph glyph-name="braceleft" unicode="&#x7b;" horiz-adv-x="319" d="M56 330 Q88 338 105 357.5 Q122 377 122 407 Q122 430 117.5 455.5 Q113 481 107 507 Q101 533 96.5 559.5 Q92 586 92 612 Q92 682 151 723.5 Q210 765 311 767 L311 738 Q260 730 236.5 710 Q213 690 213 651 Q213 634 217 610.5 Q221 587 226 560.5 Q231 534 235 507.5 Q239 481 239 457 Q239 437 233 416.5 Q227 396 213.5 376.5 Q200 357 177 340 Q154 323 120 312 Q154 301 177 284 Q200 267 213.5 247.5 Q227 228 233 207 Q239 186 239 167 Q239 143 235 116.5 Q231 90 226 64 Q221 38 217 14.5 Q213 -9 213 -26 Q213 -65 236.5 -85 Q260 -105 311 -113 L311 -142 Q260 -141 219.5 -130 Q179 -119 150.5 -98.5 Q122 -78 107 -50 Q92 -22 92 13 Q92 38 96.5 64.5 Q101 91 107 117.5 Q113 144 117.5 169 Q122 194 122 217 Q122 247 105 266.5 Q88 286 56 294 L56 330 Z " />
<glyph glyph-name="bar" unicode="&#x7c;" horiz-adv-x="265" d="M101 -265 L101 710 L164 710 L164 -265 L101 -265 Z " />
<glyph glyph-name="braceright" unicode="&#x7d;" horiz-adv-x="319" d="M263 294 Q231 286 214 266.5 Q197 247 197 217 Q197 194 201.5 169 Q206 144 212 117.5 Q218 91 222.5 64.5 Q227 38 227 13 Q227 -22 212 -50 Q197 -78 168.5 -98.5 Q140 -119 99.5 -130 Q59 -141 8 -142 L8 -113 Q59 -105 82.5 -85 Q106 -65 106 -26 Q106 -9 102 14.5 Q98 38 93 64 Q88 90 84 116.5 Q80 143 80 167 Q80 186 86 207 Q92 228 105.5 247.5 Q119 267 142 284 Q165 301 199 312 Q165 323 142 340 Q119 357 105.5 376.5 Q92 396 86 416.5 Q80 437 80 457 Q80 481 84 507.5 Q88 534 93 560.5 Q98 587 102 610.5 Q106 634 106 651 Q106 690 82.5 710 Q59 730 8 738 L8 767 Q109 765 168 723.5 Q227 682 227 612 Q227 586 222.5 559.5 Q218 533 212 507 Q206 481 201.5 455.5 Q197 430 197 407 Q197 377 214 357.5 Q231 338 263 330 L263 294 Z " />
<glyph glyph-name="hyphen" unicode="&#x2d;" horiz-adv-x="327" d="M38 196 L38 258 L289 258 L289 196 L38 196 Z " />
<glyph glyph-name="uni00AD" unicode="&#xad;" horiz-adv-x="327" d="M38 196 L38 258 L289 258 L289 196 L38 196 Z " />
<glyph glyph-name="endash" unicode="&#x2013;" horiz-adv-x="500" d="M0 196 L0 258 L500 258 L500 196 L0 196 Z " />
<glyph glyph-name="emdash" unicode="&#x2014;" horiz-adv-x="1000" d="M0 196 L0 258 L1000 258 L1000 196 L0 196 Z " />
<glyph glyph-name="underscore" unicode="&#x5f;" horiz-adv-x="500" d="M24 -164 L24 -115 L476 -115 L476 -164 L24 -164 Z " />
<glyph glyph-name="dagger" unicode="&#x2020;" horiz-adv-x="460" d="M212 380 Q195 379 177.5 374.5 Q160 370 143 365 Q126 360 109 356 Q92 352 76 352 Q54 352 40 362.5 Q26 373 26 395 Q26 417 40 427.5 Q54 438 76 438 Q92 438 109 434 Q126 430 143 425 Q160 420 177.5 415.5 Q195 411 212 410 Q212 431 206 452 Q200 473 193 494 Q186 515 180 534.5 Q174 554 174 571 Q174 600 187.5 620 Q201 640 230 640 Q259 640 272.5 620 Q286 600 286 571 Q286 554 280 534.5 Q274 515 267 494 Q260 473 254 452 Q248 431 248 410 Q265 411 282.5 415.5 Q300 420 317 425 Q334 430 350.5 434 Q367 438 384 438 Q406 438 420 427.5 Q434 417 434 395 Q434 373 420 362.5 Q406 352 384 352 Q367 352 350.5 356 Q334 360 317 365 Q300 370 282.5 374.5 Q265 379 248 380 Q250 352 259 316.5 Q268 281 273 252 Q265 214 256.5 123 Q248 32 248 -106 L214 -106 Q214 29 204 122 Q194 215 186 253 Q188 266 192 282.5 Q196 299 200.5 316 Q205 333 208 349.5 Q211 366 212 380 Z " />
<glyph glyph-name="daggerdbl" unicode="&#x2021;" horiz-adv-x="400" d="M185 272 Q184 292 181.5 312 Q179 332 174 348 Q176 372 179 389.5 Q182 407 182 430 Q155 428 131.5 418.5 Q108 409 85 409 Q63 409 51.5 419.5 Q40 430 40 446 Q40 462 51.5 472.5 Q63 483 85 483 Q108 483 131.5 473.5 Q155 464 182 462 Q180 480 175.5 496 Q171 512 166.5 527.5 Q162 543 158 558 Q154 573 154 588 Q154 610 166.5 625 Q179 640 202 640 Q225 640 235.5 625 Q246 610 246 588 Q246 573 242 558 Q238 543 233.5 527.5 Q229 512 224 496 Q219 480 218 462 Q245 464 268.5 473.5 Q292 483 315 483 Q337 483 348.5 472.5 Q360 462 360 446 Q360 430 348.5 419.5 Q337 409 315 409 Q292 409 268.5 418.5 Q245 428 218 430 Q218 407 221 389.5 Q224 372 226 348 Q221 332 218.5 312 Q216 292 215 272 L185 272 Z M215 235 Q216 215 218.5 195 Q221 175 226 159 Q224 135 221 117.5 Q218 100 218 77 Q245 79 268.5 88.5 Q292 98 315 98 Q337 98 348.5 87.5 Q360 77 360 61 Q360 45 348.5 34.5 Q337 24 315 24 Q292 24 268.5 33.5 Q245 43 218 45 Q219 27 224 11 Q229 -5 233.5 -20.5 Q238 -36 242 -51 Q246 -66 246 -81 Q246 -103 234.5 -118 Q223 -133 200 -133 Q177 -133 165.5 -118 Q154 -103 154 -81 Q154 -66 158 -51 Q162 -36 166.5 -20.5 Q171 -5 175.5 11 Q180 27 182 45 Q155 43 131.5 33.5 Q108 24 85 24 Q63 24 51.5 34.5 Q40 45 40 61 Q40 77 51.5 87.5 Q63 98 85 98 Q108 98 131.5 88.5 Q155 79 182 77 Q182 100 179 117.5 Q176 135 174 159 Q179 175 181.5 195 Q184 215 185 235 L215 235 Z " />
<glyph glyph-name="section" unicode="&#xa7;" horiz-adv-x="450" d="M66 232 Q66 280 92.5 315 Q119 350 161 367 Q142 377 125 389.5 Q108 402 95 418 Q82 434 74 454.5 Q66 475 66 502 Q66 534 79 559.5 Q92 585 115 603 Q138 621 169 630.5 Q200 640 236 640 Q271 640 301.5 633 Q332 626 361 622 Q361 594 361.5 559 Q362 524 364 498 L331 498 Q324 549 303 572.5 Q282 596 243 596 Q214 596 194 579 Q174 562 174 535 Q174 511 189.5 494.5 Q205 478 228.5 464.5 Q252 451 279 438.5 Q306 426 329.5 409.5 Q353 393 368.5 369 Q384 345 384 310 Q384 261 357 226 Q330 191 288 174 Q307 164 324 151.5 Q341 139 354.5 123.5 Q368 108 376 87.5 Q384 67 384 40 Q384 8 371 -17.5 Q358 -43 335 -61 Q312 -79 281 -88.5 Q250 -98 214 -98 Q179 -98 148.5 -91 Q118 -84 89 -80 Q89 -52 88.5 -17 Q88 18 86 44 L119 44 Q126 -7 147 -30.5 Q168 -54 207 -54 Q236 -54 256 -37 Q276 -20 276 7 Q276 31 260.5 47.5 Q245 64 221.5 77 Q198 90 171 102.5 Q144 115 120.5 132 Q97 149 81.5 172.5 Q66 196 66 232 Z M285 271 Q285 303 265.5 319.5 Q246 336 223 336 Q198 336 182 319 Q166 302 166 276 Q166 244 186 228 Q206 212 229 212 Q254 212 269.5 229 Q285 246 285 271 Z " />
<glyph glyph-name="paragraph" unicode="&#xb6;" horiz-adv-x="525" d="M485 596 L418 575 L418 -106 L346 -106 L346 572 L291 572 L291 -106 L219 -106 L219 293 Q134 293 82 337 Q30 381 30 458 Q30 533 82 579 Q134 625 230 625 L485 625 L485 596 Z " />
<glyph glyph-name="registered" unicode="&#xae;" horiz-adv-x="712" d="M680 314 Q680 245 655 185.5 Q630 126 586 82 Q542 38 483 13 Q424 -12 356 -12 Q288 -12 229 13 Q170 38 126 82 Q82 126 57 185.5 Q32 245 32 314 Q32 383 57 442.5 Q82 502 126 546 Q170 590 229 615 Q288 640 356 640 Q424 640 483 615 Q542 590 586 546 Q630 502 655 442.5 Q680 383 680 314 Z M619 314 Q619 372 599.5 422.5 Q580 473 544.5 510 Q509 547 461 568 Q413 589 356 589 Q299 589 251 568 Q203 547 167.5 510 Q132 473 112.5 422.5 Q93 372 93 314 Q93 256 112.5 205.5 Q132 155 167.5 118 Q203 81 251 60 Q299 39 356 39 Q413 39 461 60 Q509 81 544.5 118 Q580 155 599.5 205.5 Q619 256 619 314 Z M236 422 Q236 439 230.5 446.5 Q225 454 204 462 L204 476 L346 476 Q385 476 410 470 Q435 464 452 448 Q473 427 473 392 Q473 361 454 340.5 Q435 320 402 313 Q424 306 435.5 295 Q447 284 454 264 L469 222 Q477 199 487.5 188 Q498 177 516 172 L516 158 L398 158 Q398 170 396 182 Q394 194 388 211 L370 263 Q364 280 355.5 286.5 Q347 293 328 293 L319 293 L319 212 Q319 195 324.5 187.5 Q330 180 351 172 L351 158 Q345 158 334.5 158 Q324 158 313 158.5 Q302 159 291.5 159 Q281 159 275 159 Q255 159 234 158.5 Q213 158 205 158 L205 172 L236 183 L236 422 Z M319 318 L328 318 Q357 318 373 336.5 Q389 355 389 386 Q389 420 373 435 Q357 450 328 450 L319 450 L319 318 Z " />
<glyph glyph-name="copyright" unicode="&#xa9;" horiz-adv-x="712" d="M680 314 Q680 245 655 185.5 Q630 126 586 82 Q542 38 483 13 Q424 -12 356 -12 Q288 -12 229 13 Q170 38 126 82 Q82 126 57 185.5 Q32 245 32 314 Q32 383 57 442.5 Q82 502 126 546 Q170 590 229 615 Q288 640 356 640 Q424 640 483 615 Q542 590 586 546 Q630 502 655 442.5 Q680 383 680 314 Z M619 314 Q619 372 599.5 422.5 Q580 473 544.5 510 Q509 547 461 568 Q413 589 356 589 Q299 589 251 568 Q203 547 167.5 510 Q132 473 112.5 422.5 Q93 372 93 314 Q93 256 112.5 205.5 Q132 155 167.5 118 Q203 81 251 60 Q299 39 356 39 Q413 39 461 60 Q509 81 544.5 118 Q580 155 599.5 205.5 Q619 256 619 314 Z M476 212 Q456 183 424.5 165 Q393 147 352 147 Q279 147 241 192.5 Q203 238 203 311 Q203 387 246 433 Q289 479 369 479 Q397 479 421 475 Q445 471 466 469 Q466 459 466 446.5 Q466 434 466.5 421 Q467 408 467.5 396 Q468 384 468 377 L444 377 Q439 410 423 429.5 Q407 449 378 449 Q342 449 318 415.5 Q294 382 294 313 Q294 259 314.5 224.5 Q335 190 376 190 Q398 190 417.5 200 Q437 210 455 228 L476 212 Z " />
<glyph glyph-name="trademark" unicode="&#x2122;" horiz-adv-x="741" d="M261 544 Q258 561 253 571 Q248 581 240 586 Q232 591 220.5 592 Q209 593 192 593 L192 400 Q192 386 199 381 Q206 376 231 368 L231 344 Q226 344 215.5 344 Q205 344 193.5 344.5 Q182 345 171.5 345 Q161 345 156 345 Q150 345 139 345 Q128 345 116 344.5 Q104 344 93 344 Q82 344 78 344 L78 368 L120 379 L120 593 Q103 593 91.5 592 Q80 591 72 586 Q64 581 59 571 Q54 561 51 544 L24 544 Q24 550 25 560.5 Q26 571 26.5 583 Q27 595 27.5 606.5 Q28 618 28 625 L284 625 Q284 618 284.5 606.5 Q285 595 285.5 583 Q286 571 286.5 560.5 Q287 550 287 544 L261 544 Z M386 400 Q386 386 393 381 Q400 376 425 368 L425 344 Q415 344 395 344.5 Q375 345 365 345 Q359 345 350.5 345 Q342 345 333 344.5 Q324 344 315.5 344 Q307 344 303 344 L303 368 L345 379 L345 569 Q345 582 337 587.5 Q329 593 304 601 L304 625 L429 625 L510 435 L594 625 L712 625 L712 601 L673 592 L673 400 Q673 387 679.5 381.5 Q686 376 712 368 L712 344 Q707 344 696.5 344 Q686 344 674.5 344.5 Q663 345 652.5 345 Q642 345 637 345 Q631 345 620 345 Q609 345 597 344.5 Q585 344 574 344 Q563 344 559 344 L559 368 L601 379 L601 542 L512 341 L477 341 L386 553 L386 400 Z " />
<glyph glyph-name="quotedblleft" unicode="&#x201c;" horiz-adv-x="365" d="M192 464 Q192 510 220 557.5 Q248 605 308 640 L323 617 Q297 594 278.5 569 Q260 544 260 521 Q260 501 271 490 Q282 479 295 470.5 Q308 462 319 452 Q330 442 330 425 Q330 402 313.5 387 Q297 372 268 372 Q233 372 212.5 399 Q192 426 192 464 Z M30 464 Q30 510 58 557.5 Q86 605 146 640 L161 617 Q135 594 116.5 569 Q98 544 98 521 Q98 501 109 490 Q120 479 133 470.5 Q146 462 157 452 Q168 442 168 425 Q168 402 151.5 387 Q135 372 106 372 Q71 372 50.5 399 Q30 426 30 464 Z " />
<glyph glyph-name="quotedblright" unicode="&#x201d;" horiz-adv-x="365" d="M173 548 Q173 502 145 454.5 Q117 407 57 372 L42 395 Q68 418 86.5 443 Q105 468 105 491 Q105 511 94 522 Q83 533 70 541.5 Q57 550 46 560 Q35 570 35 587 Q35 610 51.5 625 Q68 640 97 640 Q132 640 152.5 613 Q173 586 173 548 Z M335 548 Q335 502 307 454.5 Q279 407 219 372 L204 395 Q230 418 248.5 443 Q267 468 267 491 Q267 511 256 522 Q245 533 232 541.5 Q219 550 208 560 Q197 570 197 587 Q197 610 213.5 625 Q230 640 259 640 Q294 640 314.5 613 Q335 586 335 548 Z " />
<glyph glyph-name="quoteleft" unicode="&#x2018;" horiz-adv-x="203" d="M30 464 Q30 510 58 557.5 Q86 605 146 640 L161 617 Q135 594 116.5 569 Q98 544 98 521 Q98 501 109 490 Q120 479 133 470.5 Q146 462 157 452 Q168 442 168 425 Q168 402 151.5 387 Q135 372 106 372 Q71 372 50.5 399 Q30 426 30 464 Z " />
<glyph glyph-name="quoteright" unicode="&#x2019;" horiz-adv-x="203" d="M173 548 Q173 502 145 454.5 Q117 407 57 372 L42 395 Q68 418 86.5 443 Q105 468 105 491 Q105 511 94 522 Q83 533 70 541.5 Q57 550 46 560 Q35 570 35 587 Q35 610 51.5 625 Q68 640 97 640 Q132 640 152.5 613 Q173 586 173 548 Z " />
<glyph glyph-name="guillemotleft" unicode="&#xab;" horiz-adv-x="444" d="M212 67 L183 42 L42 218 L183 394 L212 369 L147 218 L212 67 Z M386 67 L357 42 L216 218 L357 394 L386 369 L321 218 L386 67 Z " />
<glyph glyph-name="guillemotright" unicode="&#xbb;" horiz-adv-x="444" d="M123 218 L58 369 L87 394 L228 218 L87 42 L58 67 L123 218 Z M297 218 L232 369 L261 394 L402 218 L261 42 L232 67 L297 218 Z " />
<glyph glyph-name="guilsinglleft" unicode="&#x2039;" horiz-adv-x="270" d="M212 67 L183 42 L42 218 L183 394 L212 369 L147 218 L212 67 Z " />
<glyph glyph-name="guilsinglright" unicode="&#x203a;" horiz-adv-x="270" d="M123 218 L58 369 L87 394 L228 218 L87 42 L58 67 L123 218 Z " />
<glyph glyph-name="quotesinglbase" unicode="&#x201a;" horiz-adv-x="203" d="M173 1 Q173 -45 145 -92.5 Q117 -140 57 -175 L42 -152 Q68 -129 86.5 -104 Q105 -79 105 -56 Q105 -36 94 -25 Q83 -14 70 -5.5 Q57 3 46 13 Q35 23 35 40 Q35 63 51.5 78 Q68 93 97 93 Q132 93 152.5 66 Q173 39 173 1 Z " />
<glyph glyph-name="quotedblbase" unicode="&#x201e;" horiz-adv-x="365" d="M173 1 Q173 -45 145 -92.5 Q117 -140 57 -175 L42 -152 Q68 -129 86.5 -104 Q105 -79 105 -56 Q105 -36 94 -25 Q83 -14 70 -5.5 Q57 3 46 13 Q35 23 35 40 Q35 63 51.5 78 Q68 93 97 93 Q132 93 152.5 66 Q173 39 173 1 Z M335 1 Q335 -45 307 -92.5 Q279 -140 219 -175 L204 -152 Q230 -129 248.5 -104 Q267 -79 267 -56 Q267 -36 256 -25 Q245 -14 232 -5.5 Q219 3 208 13 Q197 23 197 40 Q197 63 213.5 78 Q230 93 259 93 Q294 93 314.5 66 Q335 39 335 1 Z " />
<glyph glyph-name="fi" unicode="&#xfb01;" horiz-adv-x="595" d="M214 80 Q214 57 226 47 Q238 37 270 26 L270 0 Q242 0 208 1.5 Q174 3 152 3 Q140 3 123.5 2.5 Q107 2 89.5 1.5 Q72 1 57 0.5 Q42 0 34 0 L34 26 L85 46 L85 396 L18 396 L18 444 L85 444 Q85 556 145.5 618 Q206 680 317 680 Q349 680 381 674 Q413 668 439 657 Q465 646 481 631 Q497 616 497 597 Q497 586 492 573.5 Q487 561 478.5 551 Q470 541 458.5 534.5 Q447 528 435 528 Q417 528 403.5 544 Q390 560 375.5 579.5 Q361 599 342 615.5 Q323 632 295 632 Q272 632 256.5 620.5 Q241 609 231.5 589.5 Q222 570 218 543.5 Q214 517 214 487 L214 444 L338 444 Q396 444 440 446 Q484 448 521 452 L521 80 Q521 57 531 47 Q541 37 573 26 L573 0 Q545 0 513.5 1.5 Q482 3 459 3 Q447 3 430.5 2.5 Q414 2 396.5 1.5 Q379 1 364 0.5 Q349 0 341 0 L341 26 L392 46 L392 355 Q392 381 382.5 388.5 Q373 396 346 396 L214 396 L214 80 Z " />
<glyph glyph-name="fl" unicode="&#xfb02;" horiz-adv-x="597" d="M524 80 Q524 57 534 47 Q544 37 576 26 L576 0 Q548 0 516.5 1.5 Q485 3 462 3 Q450 3 433.5 2.5 Q417 2 399.5 1.5 Q382 1 367 0.5 Q352 0 344 0 L344 26 L395 46 L395 605 Q380 615 359 621.5 Q338 628 315 628 Q262 628 238 591.5 Q214 555 214 486 L214 444 L322 444 L313 396 L214 396 L214 80 Q214 57 226 47 Q238 37 270 26 L270 0 Q242 0 208 1.5 Q174 3 152 3 Q140 3 123.5 2.5 Q107 2 89.5 1.5 Q72 1 57 0.5 Q42 0 34 0 L34 26 L85 46 L85 396 L18 396 L18 444 L85 444 Q85 564 146 625 Q201 680 310 680 Q337 680 362.5 677.5 Q388 675 413.5 672.5 Q439 670 466.5 667.5 Q494 665 524 665 L524 80 Z " />
<glyph glyph-name="f_f" unicode="&#xfb00;" horiz-adv-x="637" d="M519 80 Q519 57 531 47 Q543 37 575 26 L575 0 Q547 0 513 1.5 Q479 3 457 3 Q445 3 428.5 2.5 Q412 2 394.5 1.5 Q377 1 362 0.5 Q347 0 339 0 L339 26 L390 46 L390 396 L214 396 L214 80 Q214 57 225.5 47 Q237 37 269 26 L269 0 Q241 0 207.5 1.5 Q174 3 152 3 Q140 3 123.5 2.5 Q107 2 89.5 1.5 Q72 1 57 0.5 Q42 0 34 0 L34 26 L85 46 L85 396 L18 396 L18 444 L85 444 Q85 493 100 534 Q115 575 143 604.5 Q171 634 210 650.5 Q249 667 299 667 Q337 667 379 656 Q421 645 448 626 L449 627 Q500 680 592 680 Q616 680 640.5 674.5 Q665 669 684 659 Q703 649 715 634.5 Q727 620 727 602 Q727 572 707 552.5 Q687 533 666 533 Q648 533 637.5 548.5 Q627 564 617 582.5 Q607 601 596.5 616.5 Q586 632 568 632 Q553 632 543.5 621 Q534 610 528.5 591 Q523 572 521 546 Q519 520 519 491 L519 444 L627 444 L618 396 L519 396 L519 80 Z M287 619 Q250 619 232 581.5 Q214 544 214 479 L214 444 L390 444 L390 454 Q390 474 391.5 491.5 Q393 509 397 525 Q385 538 372.5 554.5 Q360 571 347 585.5 Q334 600 319 609.5 Q304 619 287 619 Z " />
<glyph glyph-name="f_f_i" unicode="&#xfb03;" horiz-adv-x="900" d="M390 444 Q390 489 400 525 Q388 538 375.5 554.5 Q363 571 349.5 585 Q336 599 321 609 Q306 619 288 619 Q251 619 232.5 582 Q214 545 214 479 L214 444 L390 444 Z M603 632 Q562 632 540.5 594.5 Q519 557 519 487 L519 444 L643 444 Q701 444 745 446 Q789 448 826 452 L826 80 Q826 57 836 47 Q846 37 878 26 L878 0 Q850 0 818.5 1.5 Q787 3 764 3 Q752 3 735.5 2.5 Q719 2 701.5 1.5 Q684 1 669 0.5 Q654 0 646 0 L646 26 L697 46 L697 355 Q697 381 687.5 388.5 Q678 396 651 396 L519 396 L519 80 Q519 57 531 47 Q543 37 575 26 L575 0 Q547 0 513 1.5 Q479 3 457 3 Q445 3 428.5 2.5 Q412 2 394.5 1.5 Q377 1 362 0.5 Q347 0 339 0 L339 26 L390 46 L390 396 L214 396 L214 80 Q214 57 226 47 Q238 37 270 26 L270 0 Q242 0 208 1.5 Q174 3 152 3 Q140 3 123.5 2.5 Q107 2 89.5 1.5 Q72 1 57 0.5 Q42 0 34 0 L34 26 L85 46 L85 396 L18 396 L18 444 L85 444 Q85 493 100.5 534 Q116 575 144 604.5 Q172 634 211.5 650.5 Q251 667 301 667 Q321 667 343 664 Q365 661 385.5 655 Q406 649 424.5 641 Q443 633 456 623 Q518 680 625 680 Q657 680 689 674 Q721 668 747 657 Q773 646 789 631 Q805 616 805 597 Q805 586 800 573.5 Q795 561 786.5 551 Q778 541 766.5 534.5 Q755 528 743 528 Q725 528 711.5 544 Q698 560 683.5 579.5 Q669 599 650 615.5 Q631 632 603 632 Z " />
<glyph glyph-name="f_f_l" unicode="&#xfb04;" horiz-adv-x="902" d="M829 80 Q829 57 839 47 Q849 37 881 26 L881 0 Q853 0 821.5 1.5 Q790 3 767 3 Q755 3 738.5 2.5 Q722 2 704.5 1.5 Q687 1 672 0.5 Q657 0 649 0 L649 26 L700 46 L700 605 Q685 615 664 621.5 Q643 628 620 628 Q567 628 543 591.5 Q519 555 519 486 L519 444 L627 444 L618 396 L519 396 L519 80 Q519 57 531 47 Q543 37 575 26 L575 0 Q547 0 513 1.5 Q479 3 457 3 Q445 3 428.5 2.5 Q412 2 394.5 1.5 Q377 1 362 0.5 Q347 0 339 0 L339 26 L390 46 L390 396 L214 396 L214 80 Q214 57 226 47 Q238 37 270 26 L270 0 Q242 0 208 1.5 Q174 3 152 3 Q140 3 123.5 2.5 Q107 2 89.5 1.5 Q72 1 57 0.5 Q42 0 34 0 L34 26 L85 46 L85 396 L18 396 L18 444 L85 444 Q85 493 100.5 534 Q116 575 144 604.5 Q172 634 211.5 650.5 Q251 667 301 667 Q320 667 341 664 Q362 661 382 656 Q402 651 420 643.5 Q438 636 452 626 Q508 680 615 680 Q642 680 667.5 677.5 Q693 675 718.5 672.5 Q744 670 771.5 667.5 Q799 665 829 665 L829 80 Z M288 619 Q251 619 232.5 582 Q214 545 214 479 L214 444 L390 444 Q390 488 399 526 Q387 539 375 555.5 Q363 572 349.5 586 Q336 600 321 609.5 Q306 619 288 619 Z " />
<glyph glyph-name="grave" unicode="&#x60;" horiz-adv-x="290" d="M38 596 L70 635 Q82 649 94 649 Q106 649 121 634 L252 510 L238 491 L39 583 L38 596 Z " />
<glyph glyph-name="acute" unicode="&#xb4;" horiz-adv-x="290" d="M251 583 L52 491 L38 510 L169 634 Q184 649 196 649 Q208 649 220 635 L252 596 L251 583 Z " />
<glyph glyph-name="dieresis" unicode="&#xa8;" horiz-adv-x="290" d="M3 575 Q3 598 19.5 614.5 Q36 631 59 631 Q82 631 98.5 614.5 Q115 598 115 575 Q115 552 98.5 535.5 Q82 519 59 519 Q36 519 19.5 535.5 Q3 552 3 575 Z M174 575 Q174 598 190.5 614.5 Q207 631 230 631 Q253 631 269.5 614.5 Q286 598 286 575 Q286 552 269.5 535.5 Q253 519 230 519 Q207 519 190.5 535.5 Q174 552 174 575 Z " />
<glyph glyph-name="circumflex" unicode="&#x2c6;" horiz-adv-x="290" d="M178 651 L276 509 L251 497 L145 583 L39 497 L14 509 L112 651 L178 651 Z " />
<glyph glyph-name="tilde" unicode="&#x2dc;" horiz-adv-x="290" d="M287 623 Q281 567 256.5 543 Q232 519 200 519 Q183 519 166.5 525 Q150 531 134.5 537.5 Q119 544 104.5 550 Q90 556 75 556 Q45 556 33 520 L3 525 Q9 581 33.5 605 Q58 629 90 629 Q107 629 123.5 623 Q140 617 155.5 610.5 Q171 604 185.5 598 Q200 592 215 592 Q245 592 257 628 L287 623 Z " />
<glyph glyph-name="macron" unicode="&#xaf;" horiz-adv-x="290" d="M21 528 L21 586 L269 586 L269 528 L21 528 Z " />
<glyph glyph-name="breve" unicode="&#x2d8;" horiz-adv-x="290" d="M145 511 Q88 511 57.5 544.5 Q27 578 27 633 L60 633 Q66 605 89.5 591 Q113 577 145 577 Q177 577 200.5 591 Q224 605 230 633 L263 633 Q263 578 232.5 544.5 Q202 511 145 511 Z " />
<glyph glyph-name="dotaccent" unicode="&#x2d9;" horiz-adv-x="290" d="M81 574 Q81 600 100 619 Q119 638 145 638 Q171 638 190 619 Q209 600 209 574 Q209 548 190 529 Q171 510 145 510 Q119 510 100 529 Q81 548 81 574 Z " />
<glyph glyph-name="ring" unicode="&#x2da;" horiz-adv-x="290" d="M102 590 Q102 570 113.5 556 Q125 542 145 542 Q165 542 176.5 556 Q188 570 188 590 Q188 610 176.5 624 Q165 638 145 638 Q125 638 113.5 624 Q102 610 102 590 Z M237 590 Q237 553 211 526.5 Q185 500 145 500 Q105 500 79 526.5 Q53 553 53 590 Q53 627 79 653.5 Q105 680 145 680 Q185 680 211 653.5 Q237 627 237 590 Z " />
<glyph glyph-name="cedilla" unicode="&#xb8;" horiz-adv-x="290" d="M237 -126 Q237 -152 223 -173 Q209 -194 184.5 -208 Q160 -222 127.5 -229.5 Q95 -237 58 -236 L53 -203 Q101 -198 129.5 -178.5 Q158 -159 158 -128 Q158 -108 145.5 -98.5 Q133 -89 104 -82 Q91 -79 88.5 -75 Q86 -71 89 -61 L115 16 L166 16 L146 -43 Q184 -50 210.5 -70.5 Q237 -91 237 -126 Z " />
<glyph glyph-name="hungarumlaut" unicode="&#x2dd;" horiz-adv-x="290" d="M152 603 L-7 498 L-21 514 L78 645 Q84 653 90 657.5 Q96 662 104 662 Q115 662 126 648 L153 614 L152 603 Z M311 603 L152 498 L138 514 L237 645 Q243 653 249 657.5 Q255 662 263 662 Q274 662 285 648 L312 614 L311 603 Z " />
<glyph glyph-name="ogonek" unicode="&#x2db;" horiz-adv-x="290" d="M245 -205 Q228 -216 202.5 -223.5 Q177 -231 151 -231 Q103 -231 74 -205 Q45 -179 45 -135 Q45 -108 57.5 -80.5 Q70 -53 91 -28.5 Q112 -4 139.5 15 Q167 34 198 43 L216 28 Q173 4 149 -39 Q125 -82 125 -126 Q125 -154 140 -168.5 Q155 -183 180 -183 Q194 -183 208 -180.5 Q222 -178 234 -173 L245 -205 Z " />
<glyph glyph-name="caron" unicode="&#x2c7;" horiz-adv-x="290" d="M112 497 L14 639 L39 651 L145 565 L251 651 L276 639 L178 497 L112 497 Z " />
<glyph glyph-name="commaaccent" unicode="&#xf6c3;" horiz-adv-x="290" d="M205 -126 Q204 -168 181.5 -209.5 Q159 -251 105 -281 L90 -260 Q113 -241 128.5 -219.5 Q144 -198 144 -177 Q144 -161 134.5 -151 Q125 -141 114 -133 Q103 -125 93.5 -116 Q84 -107 84 -92 Q84 -73 99 -59.5 Q114 -46 138 -46 Q169 -46 187 -70 Q205 -94 205 -126 Z " />
<glyph glyph-name="zero" unicode="0" horiz-adv-x="528" d="M491 312 Q491 243 476.5 183.5 Q462 124 433.5 79.5 Q405 35 362.5 9.5 Q320 -16 264 -16 Q208 -16 165.5 9.5 Q123 35 94.5 79.5 Q66 124 51.5 183.5 Q37 243 37 312 Q37 381 51.5 440.5 Q66 500 94.5 544.5 Q123 589 165.5 614.5 Q208 640 264 640 Q320 640 362.5 614.5 Q405 589 433.5 544.5 Q462 500 476.5 440.5 Q491 381 491 312 Z M354 312 Q354 372 349 423 Q344 474 333.5 511 Q323 548 306 568.5 Q289 589 264 589 Q239 589 222 568.5 Q205 548 194.5 511 Q184 474 179 423 Q174 372 174 312 Q174 252 179 201 Q184 150 194.5 113 Q205 76 222 55.5 Q239 35 264 35 Q289 35 306 55.5 Q323 76 333.5 113 Q344 150 349 201 Q354 252 354 312 Z " />
<glyph glyph-name="one" unicode="1" horiz-adv-x="528" d="M208 498 Q208 513 205 522.5 Q202 532 193.5 539.5 Q185 547 169.5 552.5 Q154 558 128 564 L128 593 Q183 595 222.5 604.5 Q262 614 290 632 L336 632 L336 99 Q336 82 338.5 71 Q341 60 348.5 52 Q356 44 370 39 Q384 34 408 29 L408 0 Q397 0 380 0.5 Q363 1 344 1.5 Q325 2 307 2.5 Q289 3 277 3 Q260 3 239.5 2.5 Q219 2 199 1.5 Q179 1 162 0.5 Q145 0 136 0 L136 29 L208 48 L208 498 Z " />
<glyph glyph-name="two" unicode="2" horiz-adv-x="528" d="M451 162 Q448 146 445 125.5 Q442 105 440 83 Q438 61 435.5 39.5 Q433 18 432 0 L71 0 L67 40 Q127 109 171.5 163.5 Q216 218 245.5 265 Q275 312 290 355 Q305 398 305 443 Q305 506 281 537.5 Q257 569 213 569 Q179 569 154 549.5 Q129 530 112 494 L68 515 Q94 578 142.5 609 Q191 640 259 640 Q296 640 329 628.5 Q362 617 387 594 Q412 571 427 536.5 Q442 502 442 457 Q442 402 418 356 Q394 310 357 267.5 Q320 225 274.5 184 Q229 143 187 98 L339 98 Q374 98 392 115 Q410 132 420 167 L451 162 Z " />
<glyph glyph-name="three" unicode="3" horiz-adv-x="528" d="M451 176 Q451 134 434 98.5 Q417 63 387 37.5 Q357 12 317 -2 Q277 -16 231 -16 Q197 -16 166.5 -10.5 Q136 -5 113.5 6 Q91 17 77.5 32 Q64 47 64 67 Q64 89 80 107 Q96 125 116 125 Q132 125 142.5 110 Q153 95 164 77 Q175 59 189 44 Q203 29 227 29 Q249 29 265.5 40 Q282 51 292.5 69.5 Q303 88 308 113 Q313 138 313 166 Q313 204 301.5 232 Q290 260 269 278 Q248 296 219 305.5 Q190 315 155 317 L155 360 Q224 363 261 396 Q298 429 298 485 Q298 527 275.5 550 Q253 573 216 573 Q181 573 157.5 555.5 Q134 538 119 510 L75 532 Q95 580 141.5 610 Q188 640 256 640 Q289 640 320 631.5 Q351 623 375.5 605 Q400 587 415 559.5 Q430 532 430 494 Q430 440 392 399.5 Q354 359 288 345 Q369 333 410 287.5 Q451 242 451 176 Z " />
<glyph glyph-name="four" unicode="4" horiz-adv-x="528" d="M407 99 Q407 82 408.5 71 Q410 60 417 52 Q424 44 436.5 39 Q449 34 472 29 L472 0 Q461 0 445 0.5 Q429 1 411 1.5 Q393 2 376.5 2.5 Q360 3 348 3 Q331 3 311.5 2.5 Q292 2 273 1.5 Q254 1 238 0.5 Q222 0 213 0 L213 29 L279 48 L279 141 L31 141 L27 178 L324 625 L407 625 L407 216 L486 216 L486 141 L407 141 L407 99 Z M279 464 L114 216 L279 216 L279 464 Z " />
<glyph glyph-name="five" unicode="5" horiz-adv-x="528" d="M120 124 Q138 124 148 109 Q158 94 167 76.5 Q176 59 188.5 44 Q201 29 225 29 Q263 29 288 70.5 Q313 112 313 191 Q313 261 290 302 Q267 343 219 343 Q198 343 180 336 Q162 329 147 318 L106 331 L115 625 L423 625 L406 527 L167 527 L163 377 Q180 387 204 392.5 Q228 398 255 398 Q298 398 334 384 Q370 370 396 344 Q422 318 436.5 281 Q451 244 451 198 Q451 151 434 112 Q417 73 387 44.5 Q357 16 315 0 Q273 -16 223 -16 Q191 -16 163.5 -10 Q136 -4 115.5 7 Q95 18 83 33.5 Q71 49 71 69 Q71 90 85.5 107 Q100 124 120 124 Z " />
<glyph glyph-name="six" unicode="6" horiz-adv-x="528" d="M482 189 Q482 144 466.5 106.5 Q451 69 423 41.5 Q395 14 355.5 -1 Q316 -16 267 -16 Q162 -16 108 46 Q54 108 54 215 Q54 283 78.5 348.5 Q103 414 145.5 470.5 Q188 527 246.5 571 Q305 615 374 640 L392 603 Q324 561 280.5 499.5 Q237 438 217 363 Q234 374 257.5 382.5 Q281 391 308 391 Q346 391 378 377 Q410 363 433 337 Q456 311 469 273.5 Q482 236 482 189 Z M202 304 Q196 278 193 247.5 Q190 217 190 191 Q190 111 210 71.5 Q230 32 268 32 Q289 32 304 44 Q319 56 329.5 76.5 Q340 97 345 124.5 Q350 152 350 183 Q350 249 332 290 Q314 331 271 331 Q251 331 233 323 Q215 315 202 304 Z " />
<glyph glyph-name="seven" unicode="7" horiz-adv-x="528" d="M284 0 L151 0 L383 527 L200 527 Q177 527 160.5 524 Q144 521 132 513 Q120 505 111 491 Q102 477 95 455 L64 461 Q67 474 70.5 495 Q74 516 77 539.5 Q80 563 82.5 586 Q85 609 86 625 L461 625 L476 597 L284 0 Z " />
<glyph glyph-name="eight" unicode="8" horiz-adv-x="528" d="M444 500 Q444 452 414.5 417.5 Q385 383 339 362 Q366 346 391 327.5 Q416 309 436 286.5 Q456 264 468 235.5 Q480 207 480 172 Q480 133 464 98.5 Q448 64 419.5 38.5 Q391 13 350 -1.5 Q309 -16 260 -16 Q218 -16 179.5 -5.5 Q141 5 111.5 26 Q82 47 64.5 79 Q47 111 47 154 Q47 209 83.5 249 Q120 289 173 312 Q133 339 104 380 Q75 421 75 476 Q75 511 88 541 Q101 571 125.5 593 Q150 615 185.5 627.5 Q221 640 265 640 Q347 640 395.5 602.5 Q444 565 444 500 Z M224 281 Q201 261 181.5 229 Q162 197 162 150 Q162 99 188.5 66 Q215 33 262 33 Q305 33 332.5 61 Q360 89 360 134 Q360 159 348.5 180 Q337 201 318 218.5 Q299 236 274.5 251.5 Q250 267 224 281 Z M290 390 Q313 410 328.5 440 Q344 470 344 505 Q344 545 322.5 567.5 Q301 590 267 590 Q232 590 210.5 568.5 Q189 547 189 513 Q189 476 213 448.5 Q237 421 290 390 Z " />
<glyph glyph-name="nine" unicode="9" horiz-adv-x="528" d="M46 435 Q46 480 61.5 517.5 Q77 555 105 582.5 Q133 610 172.5 625 Q212 640 261 640 Q366 640 420 578 Q474 516 474 409 Q474 341 449.5 275.5 Q425 210 382.5 153.5 Q340 97 281.5 53 Q223 9 154 -16 L136 21 Q204 63 247.5 124.5 Q291 186 311 261 Q294 250 270.5 241.5 Q247 233 220 233 Q182 233 150 247 Q118 261 95 287 Q72 313 59 350.5 Q46 388 46 435 Z M326 320 Q332 346 335 376.5 Q338 407 338 433 Q338 513 318 552.5 Q298 592 260 592 Q239 592 224 580 Q209 568 198.5 547.5 Q188 527 183 499.5 Q178 472 178 441 Q178 375 196 334 Q214 293 257 293 Q277 293 295 301 Q313 309 326 320 Z " />
<glyph glyph-name="dollar" unicode="&#x24;" horiz-adv-x="528" d="M294 376 Q324 359 355 340.5 Q386 322 411 298 Q436 274 452 242.5 Q468 211 468 169 Q468 138 457 107 Q446 76 422.5 50.5 Q399 25 363 7 Q327 -11 276 -16 L276 -115 L234 -115 L234 -17 Q206 -16 177.5 -5.5 Q149 5 125 24.5 Q101 44 83.5 74 Q66 104 61 145 L114 156 Q118 129 129.5 107.5 Q141 86 157.5 71 Q174 56 193.5 48 Q213 40 234 39 L234 253 Q204 269 173 286.5 Q142 304 117 327.5 Q92 351 76 382 Q60 413 60 457 Q60 492 73 523.5 Q86 555 111 579.5 Q136 604 171.5 619 Q207 634 252 637 L252 730 L294 730 L294 637 Q361 630 402.5 589.5 Q444 549 452 481 L400 471 Q393 520 364.5 548 Q336 576 294 582 L294 376 Z M177 495 Q177 463 198.5 441 Q220 419 252 399 L252 581 Q216 574 196.5 550.5 Q177 527 177 495 Z M346 131 Q346 164 326 187 Q306 210 276 229 L276 41 Q308 49 327 73 Q346 97 346 131 Z " />
<glyph glyph-name="cent" unicode="&#xa2;" horiz-adv-x="528" d="M429 315 Q409 341 386 358.5 Q363 376 336 383 L336 60 Q363 67 386 85 Q409 103 429 129 L466 103 Q444 60 411 31.5 Q378 3 336 -8 L336 -76 L294 -76 L294 -16 Q238 -16 195.5 2 Q153 20 124.5 52 Q96 84 81 127.5 Q66 171 66 222 Q66 270 81 313 Q96 356 125 389 Q154 422 196.5 441 Q239 460 294 460 L294 524 L336 524 L336 452 Q378 441 411 412 Q444 383 466 341 L429 315 Z M194 222 Q194 191 200 163 Q206 135 218.5 113 Q231 91 249.5 76.5 Q268 62 294 58 L294 385 Q268 382 249.5 367.5 Q231 353 218.5 331 Q206 309 200 281 Q194 253 194 222 Z " />
<glyph glyph-name="Euro" unicode="&#x20ac;" horiz-adv-x="528" d="M220 285 L383 285 L374 235 L225 235 Q228 197 238.5 164.5 Q249 132 266 107.5 Q283 83 307 69 Q331 55 360 55 Q392 55 423 70.5 Q454 86 481 118 L516 91 Q487 40 438.5 12 Q390 -16 331 -16 Q280 -16 238 2.5 Q196 21 164.5 54 Q133 87 113.5 133 Q94 179 87 235 L26 235 L34 285 L82 285 L82 338 L26 338 L34 388 L88 388 Q95 444 115 490.5 Q135 537 166.5 570 Q198 603 240.5 621.5 Q283 640 336 640 Q394 640 438 612 Q482 584 511 533 L476 506 Q449 538 421.5 553.5 Q394 569 362 569 Q303 569 270 519 Q237 469 225 388 L383 388 L374 338 L220 338 L220 285 Z " />
<glyph glyph-name="florin" unicode="&#x192;" horiz-adv-x="528" d="M536 573 Q536 548 520 528 Q504 508 485 508 Q470 508 460.5 521.5 Q451 535 442.5 551.5 Q434 568 424 582 Q414 596 398 596 Q368 596 347.5 544.5 Q327 493 307 383 L412 383 L393 336 L299 336 L249 49 Q225 -89 172.5 -148 Q120 -207 35 -207 Q-60 -207 -112 -127 L-79 -100 Q-64 -120 -42.5 -135 Q-21 -150 7 -150 Q55 -150 81.5 -105.5 Q108 -61 125 35 L178 336 L91 336 L109 383 L186 383 Q211 515 271 577.5 Q331 640 414 640 Q440 640 462 634.5 Q484 629 500.5 620 Q517 611 526.5 598.5 Q536 586 536 573 Z " />
<glyph glyph-name="sterling" unicode="&#xa3;" horiz-adv-x="528" d="M505 109 Q486 48 455 17 Q424 -14 373 -14 Q336 -14 301 1 Q266 16 228 48 Q211 18 184.5 1.5 Q158 -15 122 -15 Q81 -15 54.5 7 Q28 29 28 67 Q28 100 50 121.5 Q72 143 112 143 Q128 143 140 139 Q140 146 140.5 161.5 Q141 177 141 196.5 Q141 216 141 236.5 Q141 257 141 274 L141 314 L64 314 L64 362 L141 362 L141 405 Q141 521 192 580.5 Q243 640 336 640 Q366 640 392.5 634.5 Q419 629 439 619 Q459 609 470.5 595 Q482 581 482 565 Q482 544 467.5 525 Q453 506 434 506 Q419 506 407.5 520 Q396 534 384.5 551 Q373 568 359.5 582 Q346 596 327 596 Q266 596 266 465 L266 362 L389 362 L378 314 L266 314 L266 285 Q266 229 263.5 189.5 Q261 150 253 112 Q321 81 380 81 Q413 81 436 92 Q459 103 479 126 L505 109 Z M139 98 Q127 105 110 105 Q93 105 83.5 95.5 Q74 86 74 70 Q74 56 82.5 46.5 Q91 37 105 37 Q124 37 131.5 53 Q139 69 139 98 Z " />
<glyph glyph-name="yen" unicode="&#xa5;" horiz-adv-x="528" d="M345 283 L460 283 L451 233 L337 233 L337 177 L460 177 L451 127 L337 127 L337 99 Q337 82 338.5 71.5 Q340 61 346.5 53.5 Q353 46 366 40.5 Q379 35 402 29 L402 0 Q391 0 374 0.5 Q357 1 338 1.5 Q319 2 301.5 2.5 Q284 3 272 3 Q255 3 236 2.5 Q217 2 199.5 1.5 Q182 1 166.5 0.5 Q151 0 142 0 L142 29 L205 48 L205 127 L81 127 L90 177 L205 177 L205 233 L81 233 L90 283 L193 283 L75 522 Q66 541 57.5 553 Q49 565 39.5 573 Q30 581 17 586 Q4 591 -15 596 L-15 625 Q-9 625 8.5 624.5 Q26 624 46 623.5 Q66 623 86 622.5 Q106 622 117 622 Q130 622 149 622.5 Q168 623 187.5 623.5 Q207 624 224.5 624.5 Q242 625 252 625 L252 596 L190 579 L306 338 L411 579 L356 596 L356 625 Q379 624 406 623 Q433 622 457 622 Q500 622 544 625 L544 596 Q524 593 510.5 589.5 Q497 586 487 579 Q477 572 469.5 561.5 Q462 551 455 534 L345 283 Z " />
<glyph glyph-name="numbersign" unicode="&#x23;" horiz-adv-x="528" d="M508 445 L492 375 L401 375 L375 249 L466 249 L451 179 L359 179 L318 -16 L242 -16 L284 179 L188 179 L146 -16 L70 -16 L112 179 L20 179 L36 249 L127 249 L153 375 L62 375 L77 445 L168 445 L210 640 L286 640 L245 445 L340 445 L382 640 L457 640 L416 445 L508 445 Z M203 249 L299 249 L326 375 L229 375 L203 249 Z " />
<glyph glyph-name="percent" unicode="&#x25;" horiz-adv-x="769" d="M224 -15 L167 -15 L544 640 L601 640 L224 -15 Z M326 441 Q326 352 286.5 302.5 Q247 253 182 253 Q117 253 77.5 302.5 Q38 352 38 441 Q38 530 77.5 580 Q117 630 182 630 Q247 630 286.5 580 Q326 530 326 441 Z M228 441 Q228 515 217 554.5 Q206 594 182 594 Q158 594 147 554.5 Q136 515 136 441 Q136 367 147 328 Q158 289 182 289 Q206 289 217 328 Q228 367 228 441 Z M731 182 Q731 93 691.5 43.5 Q652 -6 587 -6 Q522 -6 482.5 43.5 Q443 93 443 182 Q443 271 482.5 321 Q522 371 587 371 Q652 371 691.5 321 Q731 271 731 182 Z M633 182 Q633 256 622 295.5 Q611 335 587 335 Q563 335 552 295.5 Q541 256 541 182 Q541 108 552 69 Q563 30 587 30 Q611 30 622 69 Q633 108 633 182 Z " />
<glyph glyph-name="perthousand" unicode="&#x2030;" horiz-adv-x="1091" d="M224 -15 L167 -15 L544 640 L601 640 L224 -15 Z M326 441 Q326 352 286.5 302.5 Q247 253 182 253 Q117 253 77.5 302.5 Q38 352 38 441 Q38 530 77.5 580 Q117 630 182 630 Q247 630 286.5 580 Q326 530 326 441 Z M228 441 Q228 515 217 554.5 Q206 594 182 594 Q158 594 147 554.5 Q136 515 136 441 Q136 367 147 328 Q158 289 182 289 Q206 289 217 328 Q228 367 228 441 Z M731 182 Q731 93 691.5 43.5 Q652 -6 587 -6 Q522 -6 482.5 43.5 Q443 93 443 182 Q443 271 482.5 321 Q522 371 587 371 Q652 371 691.5 321 Q731 271 731 182 Z M633 182 Q633 256 622 295.5 Q611 335 587 335 Q563 335 552 295.5 Q541 256 541 182 Q541 108 552 69 Q563 30 587 30 Q611 30 622 69 Q633 108 633 182 Z M1053 182 Q1053 93 1013.5 43.5 Q974 -6 909 -6 Q844 -6 804.5 43.5 Q765 93 765 182 Q765 271 804.5 321 Q844 371 909 371 Q974 371 1013.5 321 Q1053 271 1053 182 Z M955 182 Q955 256 944 295.5 Q933 335 909 335 Q885 335 874 295.5 Q863 256 863 182 Q863 108 874 69 Q885 30 909 30 Q933 30 944 69 Q955 108 955 182 Z " />
<glyph glyph-name="plus" unicode="&#x2b;" horiz-adv-x="450" d="M262 186 L262 53 L188 53 L188 186 L55 186 L55 260 L188 260 L188 393 L262 393 L262 260 L395 260 L395 186 L262 186 Z " />
<glyph glyph-name="minus" unicode="&#x2212;" horiz-adv-x="450" d="M395 260 L395 186 L55 186 L55 260 L395 260 Z " />
<glyph glyph-name="multiply" unicode="&#xd7;" horiz-adv-x="450" d="M277 222 L371 128 L319 76 L225 170 L131 76 L79 128 L173 222 L79 316 L131 368 L225 274 L319 368 L371 316 L277 222 Z " />
<glyph glyph-name="less" unicode="&#x3c;" horiz-adv-x="450" d="M55 261 L395 426 L395 345 L147 223 L395 101 L395 20 L55 185 L55 261 Z " />
<glyph glyph-name="divide" unicode="&#xf7;" horiz-adv-x="450" d="M282 356 Q282 335 266.5 319.5 Q251 304 229 304 Q207 304 191.5 319.5 Q176 335 176 356 Q176 379 191.5 394 Q207 409 229 409 Q251 409 266.5 394 Q282 379 282 356 Z M395 260 L395 186 L55 186 L55 260 L395 260 Z M282 89 Q282 68 266.5 52.5 Q251 37 229 37 Q207 37 191.5 52.5 Q176 68 176 89 Q176 112 191.5 127 Q207 142 229 142 Q251 142 266.5 127 Q282 112 282 89 Z " />
<glyph glyph-name="equal" unicode="&#x3d;" horiz-adv-x="450" d="M55 109 L55 183 L395 183 L395 109 L55 109 Z M395 335 L395 261 L55 261 L55 335 L395 335 Z " />
<glyph glyph-name="logicalnot" unicode="&#xac;" horiz-adv-x="450" d="M321 261 L55 261 L55 335 L395 335 L395 109 L321 109 L321 261 Z " />
<glyph glyph-name="greater" unicode="&#x3e;" horiz-adv-x="450" d="M395 185 L55 20 L55 101 L303 223 L55 345 L55 426 L395 261 L395 185 Z " />
<glyph glyph-name="notequal" unicode="&#x2260;" horiz-adv-x="450" d="M204 109 L165 29 L99 29 L138 109 L55 109 L55 183 L172 183 L211 261 L55 261 L55 335 L245 335 L285 416 L351 416 L311 335 L395 335 L395 261 L277 261 L238 183 L395 183 L395 109 L204 109 Z " />
<glyph glyph-name="approxequal" unicode="&#x2248;" horiz-adv-x="450" d="M396 359 Q390 305 365.5 272 Q341 239 292 239 Q270 239 251.5 247 Q233 255 215.5 265 Q198 275 181.5 283 Q165 291 148 291 Q104 291 89 239 L53 239 Q59 293 83.5 326 Q108 359 157 359 Q179 359 197.5 351 Q216 343 233.5 333 Q251 323 267.5 315 Q284 307 301 307 Q345 307 360 359 L396 359 Z M396 206 Q390 152 365.5 119 Q341 86 292 86 Q270 86 251.5 94 Q233 102 215.5 112 Q198 122 181.5 130 Q165 138 148 138 Q104 138 89 86 L53 86 Q59 140 83.5 173 Q108 206 157 206 Q179 206 197.5 198 Q216 190 233.5 180 Q251 170 267.5 162 Q284 154 301 154 Q345 154 360 206 L396 206 Z " />
<glyph glyph-name="plusminus" unicode="&#xb1;" horiz-adv-x="450" d="M262 271 L262 138 L188 138 L188 271 L55 271 L55 345 L188 345 L188 478 L262 478 L262 345 L395 345 L395 271 L262 271 Z M55 0 L55 74 L395 74 L395 0 L55 0 Z " />
<glyph glyph-name="lessequal" unicode="&#x2264;" horiz-adv-x="450" d="M55 0 L55 74 L395 74 L395 0 L55 0 Z M55 346 L395 511 L395 430 L147 308 L395 186 L395 105 L55 270 L55 346 Z " />
<glyph glyph-name="greaterequal" unicode="&#x2265;" horiz-adv-x="450" d="M395 270 L55 105 L55 186 L303 308 L55 430 L55 511 L395 346 L395 270 Z M55 0 L55 74 L395 74 L395 0 L55 0 Z " />
<glyph glyph-name="asciicircum" unicode="&#x5e;" horiz-adv-x="450" d="M331 342 L224 531 L118 342 L29 342 L193 625 L256 625 L420 342 L331 342 Z " />
<glyph glyph-name="asciitilde" unicode="&#x7e;" horiz-adv-x="450" d="M418 376 Q411 313 383.5 276.5 Q356 240 301 240 Q276 240 254.5 249 Q233 258 213.5 268.5 Q194 279 175 288 Q156 297 136 297 Q111 297 96.5 281 Q82 265 75 240 L31 240 Q38 303 65.5 339.5 Q93 376 148 376 Q173 376 194.5 367 Q216 358 235.5 347.5 Q255 337 274 328 Q293 319 313 319 Q338 319 352.5 335 Q367 351 374 376 L418 376 Z " />
<glyph glyph-name="lozenge" unicode="&#x25ca;" horiz-adv-x="553" d="M245 0 L45 316 L245 625 L308 625 L508 316 L308 0 L245 0 Z M276 548 L127 316 L276 77 L426 316 L276 548 Z " />
<glyph glyph-name="degree" unicode="&#xb0;" horiz-adv-x="322" d="M161 430 Q194 430 212.5 452.5 Q231 475 231 508 Q231 541 212.5 563.5 Q194 586 161 586 Q128 586 109.5 563.5 Q91 541 91 508 Q91 475 109.5 452.5 Q128 430 161 430 Z M161 376 Q101 376 63.5 412.5 Q26 449 26 508 Q26 567 63.5 603.5 Q101 640 161 640 Q221 640 258.5 603.5 Q296 567 296 508 Q296 449 258.5 412.5 Q221 376 161 376 Z " />
<glyph glyph-name="quotesingle" unicode="&#x27;" horiz-adv-x="180" d="M90 640 Q121 640 133 619.5 Q145 599 145 573 Q145 553 140 529.5 Q135 506 129 481 Q123 456 117 431 Q111 406 109 383 L71 383 Q69 406 63 431 Q57 456 51 481 Q45 506 40 529.5 Q35 553 35 573 Q35 599 47 619.5 Q59 640 90 640 Z " />
<glyph glyph-name="quotedbl" unicode="&#x22;" horiz-adv-x="340" d="M90 640 Q121 640 133 619.5 Q145 599 145 573 Q145 553 140 529.5 Q135 506 129 481 Q123 456 117 431 Q111 406 109 383 L71 383 Q69 406 63 431 Q57 456 51 481 Q45 506 40 529.5 Q35 553 35 573 Q35 599 47 619.5 Q59 640 90 640 Z M250 640 Q281 640 293 619.5 Q305 599 305 573 Q305 553 300 529.5 Q295 506 289 481 Q283 456 277 431 Q271 406 269 383 L231 383 Q229 406 223 431 Q217 456 211 481 Q205 506 200 529.5 Q195 553 195 573 Q195 599 207 619.5 Q219 640 250 640 Z " />
<glyph glyph-name="radical" unicode="&#x221a;" horiz-adv-x="628" d="M159 444 Q184 444 201.5 441.5 Q219 439 231.5 432 Q244 425 252.5 412 Q261 399 269 378 L355 146 L497 551 Q511 592 534.5 608.5 Q558 625 605 625 L638 625 L638 579 L612 579 Q586 579 574 570 Q562 561 553 534 L367 -2 L295 -2 L156 353 Q151 366 146.5 374.5 Q142 383 136 388.5 Q130 394 120.5 396 Q111 398 96 398 L48 398 L48 444 L159 444 Z " />
<glyph glyph-name="currency" unicode="&#xa4;" horiz-adv-x="528" d="M460 311 Q460 266 444.5 228 Q429 190 400 164 L464 66 L398 66 L353 134 Q314 116 264 116 Q214 116 175 134 L130 66 L64 66 L128 164 Q99 190 83.5 228 Q68 266 68 311 Q68 356 83.5 394 Q99 432 128 458 L64 556 L130 556 L175 488 Q214 506 264 506 Q314 506 353 488 L398 556 L464 556 L400 458 Q429 432 444.5 394 Q460 356 460 311 Z M337 311 Q337 374 321 415.5 Q305 457 264 457 Q223 457 207 415.5 Q191 374 191 311 Q191 248 207 206.5 Q223 165 264 165 Q305 165 321 206.5 Q337 248 337 311 Z " />
<glyph glyph-name="infinity" unicode="&#x221e;" horiz-adv-x="690" d="M176 364 Q141 364 121 344.5 Q101 325 101 292 Q101 260 122.5 241 Q144 222 182 222 Q216 222 247 235.5 Q278 249 296 273 Q274 311 244 337.5 Q214 364 176 364 Z M482 128 Q432 128 395 152.5 Q358 177 326 225 Q303 176 266.5 152 Q230 128 190 128 Q161 128 136.5 139.5 Q112 151 94 173 Q76 195 66 225.5 Q56 256 56 294 Q56 331 67 363 Q78 395 98 419 Q118 443 146 457 Q174 471 209 471 Q258 471 295 446.5 Q332 422 364 374 Q387 423 423.5 447 Q460 471 501 471 Q529 471 553.5 459.5 Q578 448 596 426 Q614 404 624 373.5 Q634 343 634 305 Q634 268 623.5 236 Q613 204 593 180 Q573 156 545 142 Q517 128 482 128 Z M514 235 Q549 235 569 254.5 Q589 274 589 307 Q589 339 567.5 358 Q546 377 508 377 Q474 377 443.5 363.5 Q413 350 395 326 Q417 288 446.5 261.5 Q476 235 514 235 Z " />
<glyph glyph-name="uni00B5" unicode="&#xb5;" horiz-adv-x="557" d="M211 -16 Q154 -16 118 14 Q126 -31 133.5 -66 Q141 -101 141 -132 Q141 -161 129 -180.5 Q117 -200 88 -200 Q59 -200 47 -180.5 Q35 -161 35 -132 Q35 -107 40.5 -79 Q46 -51 52 -17 Q58 17 63.5 58 Q69 99 69 151 L69 355 Q69 370 67 379 Q65 388 59 395 Q53 402 42.5 406.5 Q32 411 15 417 L15 444 Q73 444 117 446 Q161 448 198 452 L198 158 Q198 136 201.5 117.5 Q205 99 214 85 Q222 74 233.5 67 Q245 60 262 60 Q288 60 310 75 Q332 90 350 113 L350 355 Q350 370 348 379 Q346 388 340 395 Q334 402 323.5 406.5 Q313 411 296 417 L296 444 Q354 444 398 446 Q442 448 479 452 L479 89 Q479 47 508 47 Q516 47 525 49.5 Q534 52 542 56 L542 22 Q522 7 495.5 -3 Q469 -13 441 -13 Q406 -13 383 5 Q360 23 354 57 Q324 22 288 3 Q252 -16 211 -16 Z " />
<glyph glyph-name="partialdiff" unicode="&#x2202;" horiz-adv-x="511" d="M48 189 Q48 230 60 267 Q72 304 94.5 331.5 Q117 359 149 375.5 Q181 392 222 392 Q273 392 308 364 Q288 439 245.5 501.5 Q203 564 137 606 L152 640 Q220 616 277.5 573 Q335 530 376.5 474 Q418 418 441.5 352 Q465 286 465 216 Q465 171 452 129 Q439 87 412.5 55 Q386 23 345.5 3.5 Q305 -16 251 -16 Q202 -16 164 -0.5 Q126 15 100.5 42.5 Q75 70 61.5 107.5 Q48 145 48 189 Z M175 182 Q175 155 178 128.5 Q181 102 189.5 80.5 Q198 59 213 45.5 Q228 32 252 32 Q271 32 286 44 Q301 56 311.5 77.5 Q322 99 327.5 128 Q333 157 333 192 Q333 218 331 248.5 Q329 279 323 305 Q293 332 260 332 Q237 332 221 320 Q205 308 195 287.5 Q185 267 180 239.5 Q175 212 175 182 Z " />
<glyph glyph-name="summation" unicode="&#x2211;" horiz-adv-x="535" d="M14 -75 L6 -62 L263 291 L21 688 L29 699 L477 699 Q477 684 477.5 663 Q478 642 478.5 620.5 Q479 599 480 579.5 Q481 560 482 549 L451 549 L406 653 L181 653 L360 358 Q365 349 365.5 342.5 Q366 336 360 328 L143 28 L343 28 Q370 28 389.5 32 Q409 36 422 45.5 Q435 55 443 70.5 Q451 86 456 108 L487 108 Q485 90 483.5 64.5 Q482 39 480.5 13 Q479 -13 478 -37 Q477 -61 477 -75 L14 -75 Z " />
<glyph glyph-name="product" unicode="&#x220f;" horiz-adv-x="707" d="M614 25 Q614 8 615.5 -2.5 Q617 -13 623.5 -20.5 Q630 -28 643 -33.5 Q656 -39 679 -45 L679 -74 Q668 -74 650.5 -73.5 Q633 -73 614 -72.5 Q595 -72 577 -71.5 Q559 -71 547 -71 Q530 -71 511 -71.5 Q492 -72 473.5 -72.5 Q455 -73 439.5 -73.5 Q424 -74 415 -74 L415 -45 L478 -25 L478 653 L229 653 L229 25 Q229 8 230.5 -2.5 Q232 -13 238.5 -20.5 Q245 -28 258 -33.5 Q271 -39 294 -45 L294 -74 Q283 -74 265.5 -73.5 Q248 -73 229 -72.5 Q210 -72 192 -71.5 Q174 -71 162 -71 Q145 -71 126 -71.5 Q107 -72 88.5 -72.5 Q70 -73 54.5 -73.5 Q39 -74 30 -74 L30 -45 L93 -26 L93 601 Q93 617 91.5 628 Q90 639 83.5 646.5 Q77 654 64 659.5 Q51 665 28 671 L28 700 L679 700 L679 671 Q656 665 643 659.5 Q630 654 623.5 646.5 Q617 639 615.5 628 Q614 617 614 601 L614 25 Z " />
<glyph glyph-name="integral" unicode="&#x222b;" horiz-adv-x="385" d="M126 321 Q126 409 135 477.5 Q144 546 164 593.5 Q184 641 215.5 666 Q247 691 291 691 Q331 691 357 673.5 Q383 656 383 634 Q383 614 371 597.5 Q359 581 342 581 Q330 581 323.5 591.5 Q317 602 310 614 Q303 626 294.5 636.5 Q286 647 271 647 Q252 647 239.5 628.5 Q227 610 227 574 Q227 549 232 518 Q237 487 243 452 Q249 417 254 377.5 Q259 338 259 296 Q259 120 220.5 23 Q182 -74 94 -74 Q54 -74 28 -56.5 Q2 -39 2 -17 Q2 3 14 19.5 Q26 36 43 36 Q55 36 61.5 25.5 Q68 15 75 3 Q82 -9 90.5 -19.5 Q99 -30 114 -30 Q133 -30 145.5 -11.5 Q158 7 158 43 Q158 68 153 99 Q148 130 142 165 Q136 200 131 239.5 Q126 279 126 321 Z " />
<glyph glyph-name="Ohm" unicode="&#x2126;" horiz-adv-x="732" d="M366 587 Q327 587 298 568.5 Q269 550 249.5 518.5 Q230 487 220 444 Q210 401 210 352 Q210 307 217.5 266 Q225 225 240.5 186 Q256 147 280.5 108.5 Q305 70 339 30 L331 0 L54 0 Q54 14 53 35 Q52 56 50.5 78.5 Q49 101 47.5 123 Q46 145 44 163 L76 163 Q81 140 86.5 126 Q92 112 102 104 Q112 96 127.5 93 Q143 90 169 90 L236 90 Q199 111 167.5 139 Q136 167 113 201 Q90 235 77 274.5 Q64 314 64 358 Q64 418 84.5 469.5 Q105 521 144 559 Q183 597 239 618.5 Q295 640 366 640 Q437 640 493 618.5 Q549 597 588 559 Q627 521 647.5 469.5 Q668 418 668 358 Q668 314 655 274.5 Q642 235 619 201 Q596 167 564.5 139 Q533 111 496 90 L563 90 Q589 90 604.5 93 Q620 96 630 104 Q640 112 645.5 126 Q651 140 656 163 L688 163 Q686 145 684.5 123 Q683 101 681.5 78.5 Q680 56 679 35 Q678 14 678 0 L401 0 L393 30 Q427 70 451.5 108.5 Q476 147 491.5 186 Q507 225 514.5 266 Q522 307 522 352 Q522 401 512 444 Q502 487 482.5 518.5 Q463 550 434 568.5 Q405 587 366 587 Z " />
<glyph glyph-name="Delta" unicode="&#x2206;" horiz-adv-x="611" d="M30 20 L260 625 L335 625 L577 20 L567 0 L39 0 L30 20 Z M266 461 L113 57 L423 57 L266 461 Z " />
<glyph glyph-name="litre" unicode="&#x2113;" horiz-adv-x="480" d="M257 153 Q257 94 276 70 Q295 46 333 46 Q351 46 374.5 51 Q398 56 412 61 L412 27 Q387 9 354.5 -1.5 Q322 -12 287 -12 Q250 -12 220.5 -3 Q191 6 171 26 Q150 46 139 75 Q128 104 128 152 L128 173 Q112 165 94 156.5 Q76 148 59 140 L42 179 Q63 190 85 202 Q107 214 128 226 L128 399 Q128 534 186 595 Q228 640 297 640 Q359 640 392.5 604 Q426 568 426 506 Q426 438 381 370.5 Q336 303 257 246 L257 153 Z M325 514 Q325 592 295 592 Q275 592 266 555.5 Q257 519 257 432 L257 328 Q292 373 308.5 418 Q325 463 325 514 Z " />
<glyph glyph-name="estimated" unicode="&#x212e;" horiz-adv-x="788" d="M169 305 Q164 305 164 301 L164 122 Q164 111 173 102 Q215 56 272.5 30 Q330 4 394 4 Q466 4 526 33 Q586 62 630 113 L683 113 Q633 55 557.5 20 Q482 -15 393 -15 Q318 -15 252 11 Q186 37 136.5 81 Q87 125 58.5 184.5 Q30 244 30 312 Q30 380 58.5 439.5 Q87 499 136.5 543.5 Q186 588 252 614 Q318 640 393 640 Q469 640 535.5 614 Q602 588 651.5 543.5 Q701 499 729.5 439.5 Q758 380 758 312 L758 305 L169 305 Z M626 506 Q626 517 616 527 Q573 571 516.5 596 Q460 621 394 621 Q330 621 273 595 Q216 569 174 524 Q164 516 164 502 L164 326 Q164 321 169 321 L621 321 Q626 321 626 326 L626 506 Z " />
<glyph glyph-name="numero" unicode="&#x2116;" horiz-adv-x="1012" d="M695 180 L695 230 L960 230 L960 180 L695 180 Z M610 -2 L525 -2 L167 466 L167 99 Q167 82 168.5 71.5 Q170 61 176.5 53.5 Q183 46 196 40.5 Q209 35 232 29 L232 0 Q211 1 184.5 1.5 Q158 2 135 2 Q101 2 79 1.5 Q57 1 38 0 L38 29 L101 48 L101 526 Q101 542 99.5 553 Q98 564 91.5 571.5 Q85 579 72 584.5 Q59 590 36 596 L36 625 L211 625 L544 190 L544 527 Q544 543 542.5 554 Q541 565 534.5 572.5 Q528 580 515 585.5 Q502 591 479 597 L479 626 Q500 625 526.5 624.5 Q553 624 576 624 Q610 624 632 624.5 Q654 625 673 626 L673 597 L610 578 L610 -2 Z M978 425 Q978 392 968 363 Q958 334 938.5 313 Q919 292 891 280 Q863 268 827 268 Q791 268 763 280 Q735 292 715.5 313 Q696 334 686 363 Q676 392 676 425 Q676 458 686 487 Q696 516 715.5 537 Q735 558 763 570 Q791 582 827 582 Q863 582 891 570 Q919 558 938.5 537 Q958 516 968 487 Q978 458 978 425 Z M884 425 Q884 479 870 509.5 Q856 540 827 540 Q798 540 784 509.5 Q770 479 770 425 Q770 371 784 340.5 Q798 310 827 310 Q856 310 870 340.5 Q884 371 884 425 Z " />
<glyph glyph-name="ordfeminine" unicode="&#xaa;" horiz-adv-x="324" d="M186 402 Q153 402 133 389 Q113 376 113 345 Q113 324 122.5 311 Q132 298 149 298 Q161 298 170.5 304 Q180 310 186 317 L186 402 Z M246 254 Q225 254 211.5 263 Q198 272 193 286 Q179 271 158.5 262 Q138 253 113 253 Q69 253 46 276.5 Q23 300 23 335 Q23 384 63 406.5 Q103 429 186 430 L186 435 Q186 465 172 482 Q159 497 136 497 Q113 497 95.5 484 Q78 471 68 451 L37 464 Q51 498 81 520.5 Q111 543 162 543 Q216 543 246 513 Q275 484 275 431 L275 317 Q275 307 278 302 Q281 297 291 297 Q300 297 310 301 L310 277 Q299 267 281.5 260.5 Q264 254 246 254 Z " />
<glyph glyph-name="ordmasculine" unicode="&#xba;" horiz-adv-x="340" d="M320 398 Q320 329 279.5 291 Q239 253 170 253 Q101 253 60.5 291 Q20 329 20 398 Q20 467 60.5 505 Q101 543 170 543 Q239 543 279.5 505 Q320 467 320 398 Z M223 398 Q223 505 170 505 Q117 505 117 398 Q117 291 170 291 Q223 291 223 398 Z " />
<glyph glyph-name="onesuperior" unicode="&#xb9;" horiz-adv-x="336" d="M219 424 Q219 417 220 412.5 Q221 408 226 404 Q231 400 240 397 Q249 394 266 391 L266 369 Q258 369 245.5 369 Q233 369 219.5 369.5 Q206 370 193.5 370 Q181 370 173 370 Q162 370 149 370 Q136 370 122.5 369.5 Q109 369 97.5 369 Q86 369 80 369 L80 391 L128 403 L128 650 Q128 660 126.5 666.5 Q125 673 119.5 677.5 Q114 682 103 685.5 Q92 689 73 694 L73 716 Q114 716 139.5 721.5 Q165 727 182 737 L219 737 L219 424 Z " />
<glyph glyph-name="twosuperior" unicode="&#xb2;" horiz-adv-x="336" d="M288 482 Q286 472 284 457.5 Q282 443 280 427.5 Q278 412 276 396.5 Q274 381 273 369 L48 369 L47 399 Q71 429 95.5 456 Q120 483 139.5 509.5 Q159 536 171 563.5 Q183 591 183 622 Q183 656 170.5 672 Q158 688 137 688 Q117 688 101.5 676 Q86 664 74 645 L44 661 Q61 696 91.5 718 Q122 740 167 740 Q216 740 248 712 Q280 684 280 630 Q280 598 265.5 573 Q251 548 229 527 Q206 504 178.5 483.5 Q151 463 130 440 L204 440 Q230 440 243.5 448 Q257 456 265 482 L288 482 Z " />
<glyph glyph-name="threesuperior" unicode="&#xb3;" horiz-adv-x="336" d="M196 571 Q240 564 265.5 537.5 Q291 511 291 474 Q291 424 251 393.5 Q211 363 150 363 Q105 363 75 377.5 Q45 392 45 418 Q45 432 55.5 444 Q66 456 80 456 Q91 456 98 447 Q105 438 112 427.5 Q119 417 126.5 408 Q134 399 147 399 Q169 399 181.5 419.5 Q194 440 194 468 Q194 512 169 528.5 Q144 545 101 545 L101 575 Q139 578 162 596.5 Q185 615 185 644 Q185 664 173.5 676.5 Q162 689 141 689 Q121 689 105 678 Q89 667 80 652 L51 666 Q65 700 97 720 Q129 740 170 740 Q217 740 246.5 717 Q276 694 276 654 Q276 590 196 571 Z " />
<glyph glyph-name="fraction" unicode="&#x2044;" horiz-adv-x="104" d="M-108 -15 L-165 -15 L212 640 L269 640 L-108 -15 Z " />
<glyph glyph-name="onehalf" unicode="&#xbd;" horiz-adv-x="769" d="M209 314 Q209 307 210 302.5 Q211 298 216 294 Q221 290 230 287 Q239 284 256 281 L256 259 Q248 259 235.5 259 Q223 259 209.5 259.5 Q196 260 183.5 260 Q171 260 163 260 Q152 260 139 260 Q126 260 112.5 259.5 Q99 259 87.5 259 Q76 259 70 259 L70 281 L118 293 L118 540 Q118 550 116.5 556.5 Q115 563 109.5 567.5 Q104 572 93 575.5 Q82 579 63 584 L63 606 Q104 606 129.5 611.5 Q155 617 172 627 L209 627 L209 314 Z M224 -15 L167 -15 L544 640 L601 640 L224 -15 Z M700 113 Q698 103 696 88.5 Q694 74 692 58.5 Q690 43 688 27.5 Q686 12 685 0 L460 0 L459 30 Q483 60 507.5 87 Q532 114 551.5 140.5 Q571 167 583 194.5 Q595 222 595 253 Q595 287 582.5 303 Q570 319 549 319 Q529 319 513.5 307 Q498 295 486 276 L456 292 Q473 327 503.5 349 Q534 371 579 371 Q628 371 660 343 Q692 315 692 261 Q692 229 677.5 204 Q663 179 641 158 Q618 135 590.5 114.5 Q563 94 542 71 L616 71 Q642 71 655.5 79 Q669 87 677 113 L700 113 Z " />
<glyph glyph-name="onequarter" unicode="&#xbc;" horiz-adv-x="769" d="M209 314 Q209 307 210 302.5 Q211 298 216 294 Q221 290 230 287 Q239 284 256 281 L256 259 Q248 259 235.5 259 Q223 259 209.5 259.5 Q196 260 183.5 260 Q171 260 163 260 Q152 260 139 260 Q126 260 112.5 259.5 Q99 259 87.5 259 Q76 259 70 259 L70 281 L118 293 L118 540 Q118 550 116.5 556.5 Q115 563 109.5 567.5 Q104 572 93 575.5 Q82 579 63 584 L63 606 Q104 606 129.5 611.5 Q155 617 172 627 L209 627 L209 314 Z M224 -15 L167 -15 L544 640 L601 640 L224 -15 Z M563 267 L476 140 L563 140 L563 267 Z M563 95 L421 95 L420 118 L590 367 L654 367 L654 140 L707 140 L707 95 L654 95 L654 55 Q654 48 655 43.5 Q656 39 661 35 Q666 31 675 28 Q684 25 701 22 L701 0 Q693 0 680.5 0 Q668 0 654.5 0.5 Q641 1 628.5 1 Q616 1 608 1 Q597 1 584 1 Q571 1 557.5 0.5 Q544 0 532.5 0 Q521 0 515 0 L515 22 L563 34 L563 95 Z " />
<glyph glyph-name="threequarters" unicode="&#xbe;" horiz-adv-x="769" d="M239 -15 L182 -15 L559 640 L616 640 L239 -15 Z M568 267 L481 140 L568 140 L568 267 Z M568 95 L426 95 L425 118 L595 367 L659 367 L659 140 L712 140 L712 95 L659 95 L659 55 Q659 48 660 43.5 Q661 39 666 35 Q671 31 680 28 Q689 25 706 22 L706 0 Q698 0 685.5 0 Q673 0 659.5 0.5 Q646 1 633.5 1 Q621 1 613 1 Q602 1 589 1 Q576 1 562.5 0.5 Q549 0 537.5 0 Q526 0 520 0 L520 22 L568 34 L568 95 Z M205 461 Q249 454 274.5 427.5 Q300 401 300 364 Q300 314 260 283.5 Q220 253 159 253 Q114 253 84 267.5 Q54 282 54 308 Q54 322 64.5 334 Q75 346 89 346 Q100 346 107 337 Q114 328 121 317.5 Q128 307 135.5 298 Q143 289 156 289 Q178 289 190.5 309.5 Q203 330 203 358 Q203 402 178 418.5 Q153 435 110 435 L110 465 Q148 468 171 486.5 Q194 505 194 534 Q194 554 182.5 566.5 Q171 579 150 579 Q130 579 114 568 Q98 557 89 542 L60 556 Q74 590 106 610 Q138 630 179 630 Q226 630 255.5 607 Q285 584 285 544 Q285 480 205 461 Z " />
<glyph glyph-name="Agrave" unicode="&#xc0;" horiz-adv-x="647" d="M380 198 L185 198 L145 88 Q139 71 139 64 Q139 52 152.5 43.5 Q166 35 198 29 L198 0 Q177 0 151 1.5 Q125 3 102 3 Q90 3 76 2.5 Q62 2 48 1.5 Q34 1 21 0.5 Q8 0 -2 0 L-2 29 L63 48 L281 626 L355 626 L557 103 Q564 86 570.5 74 Q577 62 586 54 Q595 46 609 40 Q623 34 645 29 L645 0 Q634 0 617.5 0.5 Q601 1 583 1.5 Q565 2 547.5 2.5 Q530 3 517 3 Q508 3 489.5 2.5 Q471 2 449.5 1.5 Q428 1 406.5 0.5 Q385 0 370 0 L370 29 L437 48 L380 198 Z M204 248 L361 248 L282 459 L204 248 Z M213 756 L244 794 Q255 808 267 808 Q279 808 296 794 L433 685 L423 665 L216 743 L213 756 Z " />
<glyph glyph-name="Aacute" unicode="&#xc1;" horiz-adv-x="647" d="M380 198 L185 198 L145 88 Q139 71 139 64 Q139 52 152.5 43.5 Q166 35 198 29 L198 0 Q177 0 151 1.5 Q125 3 102 3 Q90 3 76 2.5 Q62 2 48 1.5 Q34 1 21 0.5 Q8 0 -2 0 L-2 29 L63 48 L281 626 L355 626 L557 103 Q564 86 570.5 74 Q577 62 586 54 Q595 46 609 40 Q623 34 645 29 L645 0 Q634 0 617.5 0.5 Q601 1 583 1.5 Q565 2 547.5 2.5 Q530 3 517 3 Q508 3 489.5 2.5 Q471 2 449.5 1.5 Q428 1 406.5 0.5 Q385 0 370 0 L370 29 L437 48 L380 198 Z M204 248 L361 248 L282 459 L204 248 Z M430 743 L223 665 L213 685 L350 794 Q367 808 379 808 Q391 808 402 794 L433 756 L430 743 Z " />
<glyph glyph-name="Acircumflex" unicode="&#xc2;" horiz-adv-x="647" d="M380 198 L185 198 L145 88 Q139 71 139 64 Q139 52 152.5 43.5 Q166 35 198 29 L198 0 Q177 0 151 1.5 Q125 3 102 3 Q90 3 76 2.5 Q62 2 48 1.5 Q34 1 21 0.5 Q8 0 -2 0 L-2 29 L63 48 L281 626 L355 626 L557 103 Q564 86 570.5 74 Q577 62 586 54 Q595 46 609 40 Q623 34 645 29 L645 0 Q634 0 617.5 0.5 Q601 1 583 1.5 Q565 2 547.5 2.5 Q530 3 517 3 Q508 3 489.5 2.5 Q471 2 449.5 1.5 Q428 1 406.5 0.5 Q385 0 370 0 L370 29 L437 48 L380 198 Z M204 248 L361 248 L282 459 L204 248 Z M356 805 L456 685 L438 668 L323 739 L208 668 L190 685 L290 805 L356 805 Z " />
<glyph glyph-name="Atilde" unicode="&#xc3;" horiz-adv-x="647" d="M380 198 L185 198 L145 88 Q139 71 139 64 Q139 52 152.5 43.5 Q166 35 198 29 L198 0 Q177 0 151 1.5 Q125 3 102 3 Q90 3 76 2.5 Q62 2 48 1.5 Q34 1 21 0.5 Q8 0 -2 0 L-2 29 L63 48 L281 626 L355 626 L557 103 Q564 86 570.5 74 Q577 62 586 54 Q595 46 609 40 Q623 34 645 29 L645 0 Q634 0 617.5 0.5 Q601 1 583 1.5 Q565 2 547.5 2.5 Q530 3 517 3 Q508 3 489.5 2.5 Q471 2 449.5 1.5 Q428 1 406.5 0.5 Q385 0 370 0 L370 29 L437 48 L380 198 Z M204 248 L361 248 L282 459 L204 248 Z M465 789 Q459 733 434.5 710 Q410 687 378 687 Q361 687 344.5 693 Q328 699 312.5 705.5 Q297 712 282.5 718 Q268 724 253 724 Q222 724 211 690 L181 695 Q187 751 211.5 774 Q236 797 268 797 Q285 797 301.5 791 Q318 785 333.5 778.5 Q349 772 363.5 766 Q378 760 393 760 Q424 760 435 794 L465 789 Z " />
<glyph glyph-name="Adieresis" unicode="&#xc4;" horiz-adv-x="647" d="M380 198 L185 198 L145 88 Q139 71 139 64 Q139 52 152.5 43.5 Q166 35 198 29 L198 0 Q177 0 151 1.5 Q125 3 102 3 Q90 3 76 2.5 Q62 2 48 1.5 Q34 1 21 0.5 Q8 0 -2 0 L-2 29 L63 48 L281 626 L355 626 L557 103 Q564 86 570.5 74 Q577 62 586 54 Q595 46 609 40 Q623 34 645 29 L645 0 Q634 0 617.5 0.5 Q601 1 583 1.5 Q565 2 547.5 2.5 Q530 3 517 3 Q508 3 489.5 2.5 Q471 2 449.5 1.5 Q428 1 406.5 0.5 Q385 0 370 0 L370 29 L437 48 L380 198 Z M204 248 L361 248 L282 459 L204 248 Z M182 740 Q182 763 198.5 779.5 Q215 796 238 796 Q261 796 277.5 779.5 Q294 763 294 740 Q294 717 277.5 700.5 Q261 684 238 684 Q215 684 198.5 700.5 Q182 717 182 740 Z M353 740 Q353 763 369.5 779.5 Q386 796 409 796 Q432 796 448.5 779.5 Q465 763 465 740 Q465 717 448.5 700.5 Q432 684 409 684 Q386 684 369.5 700.5 Q353 717 353 740 Z " />
<glyph glyph-name="Amacron" unicode="&#x100;" horiz-adv-x="647" d="M380 198 L185 198 L145 88 Q139 71 139 64 Q139 52 152.5 43.5 Q166 35 198 29 L198 0 Q177 0 151 1.5 Q125 3 102 3 Q90 3 76 2.5 Q62 2 48 1.5 Q34 1 21 0.5 Q8 0 -2 0 L-2 29 L63 48 L281 626 L355 626 L557 103 Q564 86 570.5 74 Q577 62 586 54 Q595 46 609 40 Q623 34 645 29 L645 0 Q634 0 617.5 0.5 Q601 1 583 1.5 Q565 2 547.5 2.5 Q530 3 517 3 Q508 3 489.5 2.5 Q471 2 449.5 1.5 Q428 1 406.5 0.5 Q385 0 370 0 L370 29 L437 48 L380 198 Z M204 248 L361 248 L282 459 L204 248 Z M199 695 L199 753 L447 753 L447 695 L199 695 Z " />
<glyph glyph-name="Abreve" unicode="&#x102;" horiz-adv-x="647" d="M380 198 L185 198 L145 88 Q139 71 139 64 Q139 52 152.5 43.5 Q166 35 198 29 L198 0 Q177 0 151 1.5 Q125 3 102 3 Q90 3 76 2.5 Q62 2 48 1.5 Q34 1 21 0.5 Q8 0 -2 0 L-2 29 L63 48 L281 626 L355 626 L557 103 Q564 86 570.5 74 Q577 62 586 54 Q595 46 609 40 Q623 34 645 29 L645 0 Q634 0 617.5 0.5 Q601 1 583 1.5 Q565 2 547.5 2.5 Q530 3 517 3 Q508 3 489.5 2.5 Q471 2 449.5 1.5 Q428 1 406.5 0.5 Q385 0 370 0 L370 29 L437 48 L380 198 Z M204 248 L361 248 L282 459 L204 248 Z M323 676 Q266 676 235.5 709.5 Q205 743 205 798 L238 798 Q244 770 267.5 756 Q291 742 323 742 Q355 742 378.5 756 Q402 770 408 798 L441 798 Q441 743 410.5 709.5 Q380 676 323 676 Z " />
<glyph glyph-name="Acaron" unicode="&#x1cd;" horiz-adv-x="647" d="M380 198 L185 198 L145 88 Q139 71 139 64 Q139 52 152.5 43.5 Q166 35 198 29 L198 0 Q177 0 151 1.5 Q125 3 102 3 Q90 3 76 2.5 Q62 2 48 1.5 Q34 1 21 0.5 Q8 0 -2 0 L-2 29 L63 48 L281 626 L355 626 L557 103 Q564 86 570.5 74 Q577 62 586 54 Q595 46 609 40 Q623 34 645 29 L645 0 Q634 0 617.5 0.5 Q601 1 583 1.5 Q565 2 547.5 2.5 Q530 3 517 3 Q508 3 489.5 2.5 Q471 2 449.5 1.5 Q428 1 406.5 0.5 Q385 0 370 0 L370 29 L437 48 L380 198 Z M204 248 L361 248 L282 459 L204 248 Z M286 671 L186 791 L204 808 L319 737 L434 808 L452 791 L352 671 L286 671 Z " />
<glyph glyph-name="Aring" unicode="&#xc5;" horiz-adv-x="647" d="M380 198 L185 198 L145 88 Q139 71 139 64 Q139 52 152.5 43.5 Q166 35 198 29 L198 0 Q177 0 151 1.5 Q125 3 102 3 Q90 3 76 2.5 Q62 2 48 1.5 Q34 1 21 0.5 Q8 0 -2 0 L-2 29 L63 48 L281 626 L355 626 L557 103 Q564 86 570.5 74 Q577 62 586 54 Q595 46 609 40 Q623 34 645 29 L645 0 Q634 0 617.5 0.5 Q601 1 583 1.5 Q565 2 547.5 2.5 Q530 3 517 3 Q508 3 489.5 2.5 Q471 2 449.5 1.5 Q428 1 406.5 0.5 Q385 0 370 0 L370 29 L437 48 L380 198 Z M204 248 L361 248 L282 459 L204 248 Z M280 758 Q280 738 291.5 724 Q303 710 323 710 Q343 710 354.5 724 Q366 738 366 758 Q366 778 354.5 792 Q343 806 323 806 Q303 806 291.5 792 Q280 778 280 758 Z M415 758 Q415 721 389 694.5 Q363 668 323 668 Q283 668 257 694.5 Q231 721 231 758 Q231 795 257 821.5 Q283 848 323 848 Q363 848 389 821.5 Q415 795 415 758 Z " />
<glyph glyph-name="Aringacute" unicode="&#x1fa;" horiz-adv-x="647" d="M429 943 L230 851 L216 870 L347 994 Q362 1009 374 1009 Q386 1009 398 995 L430 956 L429 943 Z M380 198 L185 198 L145 88 Q139 71 139 64 Q139 52 152.5 43.5 Q166 35 198 29 L198 0 Q177 0 151 1.5 Q125 3 102 3 Q90 3 76 2.5 Q62 2 48 1.5 Q34 1 21 0.5 Q8 0 -2 0 L-2 29 L63 48 L281 626 L355 626 L557 103 Q564 86 570.5 74 Q577 62 586 54 Q595 46 609 40 Q623 34 645 29 L645 0 Q634 0 617.5 0.5 Q601 1 583 1.5 Q565 2 547.5 2.5 Q530 3 517 3 Q508 3 489.5 2.5 Q471 2 449.5 1.5 Q428 1 406.5 0.5 Q385 0 370 0 L370 29 L437 48 L380 198 Z M204 248 L361 248 L282 459 L204 248 Z M280 758 Q280 738 291.5 724 Q303 710 323 710 Q343 710 354.5 724 Q366 738 366 758 Q366 778 354.5 792 Q343 806 323 806 Q303 806 291.5 792 Q280 778 280 758 Z M415 758 Q415 721 389 694.5 Q363 668 323 668 Q283 668 257 694.5 Q231 721 231 758 Q231 795 257 821.5 Q283 848 323 848 Q363 848 389 821.5 Q415 795 415 758 Z " />
<glyph glyph-name="Aogonek" unicode="&#x104;" horiz-adv-x="647" d="M617 -205 Q600 -216 574.5 -223.5 Q549 -231 523 -231 Q475 -231 446 -205 Q417 -179 417 -135 Q417 -99 438.5 -62 Q460 -25 495 3 Q482 3 465.5 2.5 Q449 2 431.5 1.5 Q414 1 398 0.5 Q382 0 370 0 L370 29 L437 48 L380 198 L185 198 L145 88 Q139 71 139 64 Q139 52 152.5 43.5 Q166 35 198 29 L198 0 Q177 0 151 1.5 Q125 3 102 3 Q90 3 76 2.5 Q62 2 48 1.5 Q34 1 21 0.5 Q8 0 -2 0 L-2 29 L63 48 L281 626 L355 626 L557 103 Q564 86 570.5 74 Q577 62 586 54 Q595 46 609 40 Q623 34 645 29 L645 0 Q629 0 603.5 0.5 Q578 1 553 2 Q526 -24 511.5 -58 Q497 -92 497 -126 Q497 -154 512 -168.5 Q527 -183 552 -183 Q566 -183 580 -180.5 Q594 -178 606 -173 L617 -205 Z M204 248 L361 248 L282 459 L204 248 Z " />
<glyph glyph-name="AE" unicode="&#xc6;" horiz-adv-x="877" d="M414 299 L259 299 L137 83 Q133 76 130.5 70 Q128 64 128 59 Q128 48 140.5 41 Q153 34 188 29 L188 0 Q179 0 166.5 0.5 Q154 1 140.5 1.5 Q127 2 113.5 2.5 Q100 3 90 3 Q63 3 35.5 1.5 Q8 0 -14 0 L-14 29 L49 48 L329 543 Q339 560 339 570 Q339 581 325.5 587.5 Q312 594 281 596 L281 625 L809 625 Q809 611 810.5 589.5 Q812 568 813.5 545.5 Q815 523 816.5 502.5 Q818 482 820 470 L782 470 Q774 505 764.5 526 Q755 547 737 558 Q719 569 689 572.5 Q659 576 611 576 Q595 576 578.5 575.5 Q562 575 550 574 L550 347 L596 347 Q640 347 679.5 349.5 Q719 352 735 356 L729 291 Q703 295 668.5 296.5 Q634 298 596 298 L550 298 L550 94 Q550 69 571 59 Q592 49 653 49 Q689 49 714 53 Q739 57 756 68.5 Q773 80 783 100.5 Q793 121 800 153 L837 153 Q836 141 835 120.5 Q834 100 833.5 77.5 Q833 55 832.5 34 Q832 13 832 0 L351 0 L351 29 L414 48 L414 299 Z M285 346 L414 346 L414 574 L285 346 Z " />
<glyph glyph-name="AEacute" unicode="&#x1fc;" horiz-adv-x="877" d="M693 743 L486 665 L476 685 L613 794 Q630 808 642 808 Q654 808 665 794 L696 756 L693 743 Z M414 299 L259 299 L137 83 Q133 76 130.5 70 Q128 64 128 59 Q128 48 140.5 41 Q153 34 188 29 L188 0 Q179 0 166.5 0.5 Q154 1 140.5 1.5 Q127 2 113.5 2.5 Q100 3 90 3 Q63 3 35.5 1.5 Q8 0 -14 0 L-14 29 L49 48 L329 543 Q339 560 339 570 Q339 581 325.5 587.5 Q312 594 281 596 L281 625 L809 625 Q809 611 810.5 589.5 Q812 568 813.5 545.5 Q815 523 816.5 502.5 Q818 482 820 470 L782 470 Q774 505 764.5 526 Q755 547 737 558 Q719 569 689 572.5 Q659 576 611 576 Q595 576 578.5 575.5 Q562 575 550 574 L550 347 L596 347 Q640 347 679.5 349.5 Q719 352 735 356 L729 291 Q703 295 668.5 296.5 Q634 298 596 298 L550 298 L550 94 Q550 69 571 59 Q592 49 653 49 Q689 49 714 53 Q739 57 756 68.5 Q773 80 783 100.5 Q793 121 800 153 L837 153 Q836 141 835 120.5 Q834 100 833.5 77.5 Q833 55 832.5 34 Q832 13 832 0 L351 0 L351 29 L414 48 L414 299 Z M285 346 L414 346 L414 574 L285 346 Z " />
<glyph glyph-name="Cacute" unicode="&#x106;" horiz-adv-x="577" d="M553 114 Q520 54 461 19 Q402 -16 323 -16 Q256 -16 206.5 4 Q157 24 122 60 Q78 105 56.5 169 Q35 233 35 309 Q35 390 59 453.5 Q83 517 128 560 Q168 599 223.5 619.5 Q279 640 347 640 Q398 640 439.5 632.5 Q481 625 521 622 Q522 604 523 580.5 Q524 557 525 533 Q526 509 527 486 Q528 463 530 445 L491 445 Q480 519 444.5 552 Q409 585 355 585 Q315 585 282.5 566 Q250 547 227.5 512 Q205 477 193 427 Q181 377 181 314 Q181 250 193.5 202 Q206 154 229 122 Q274 57 353 57 Q402 57 444.5 79.5 Q487 102 516 140 L553 114 Z M449 743 L242 665 L232 685 L369 794 Q386 808 398 808 Q410 808 421 794 L452 756 L449 743 Z " />
<glyph glyph-name="Ccedilla" unicode="&#xc7;" horiz-adv-x="577" d="M430 -126 Q430 -152 416 -173 Q402 -194 377.5 -208 Q353 -222 320.5 -229.5 Q288 -237 251 -236 L246 -203 Q294 -198 322.5 -178.5 Q351 -159 351 -128 Q351 -108 338.5 -98.5 Q326 -89 297 -82 Q284 -79 281.5 -75 Q279 -71 282 -61 L297 -15 Q240 -11 197 8 Q154 27 122 60 Q78 105 56.5 169 Q35 233 35 309 Q35 386 57 447.5 Q79 509 119 551.5 Q159 594 215 617 Q271 640 340 640 Q394 640 437.5 633 Q481 626 521 622 Q522 604 523 580.5 Q524 557 525 533 Q526 509 527 486 Q528 463 530 445 L491 445 Q480 519 444.5 552 Q409 585 355 585 Q315 585 282.5 566 Q250 547 227.5 512 Q205 477 193 427 Q181 377 181 314 Q181 250 193.5 202 Q206 154 229 122 Q274 57 353 57 Q402 57 444.5 79.5 Q487 102 516 140 L553 114 Q522 58 470 24.5 Q418 -9 348 -15 L339 -43 Q377 -50 403.5 -70.5 Q430 -91 430 -126 Z " />
<glyph glyph-name="Ccircumflex" unicode="&#x108;" horiz-adv-x="577" d="M553 114 Q520 54 461 19 Q402 -16 323 -16 Q256 -16 206.5 4 Q157 24 122 60 Q78 105 56.5 169 Q35 233 35 309 Q35 390 59 453.5 Q83 517 128 560 Q168 599 223.5 619.5 Q279 640 347 640 Q398 640 439.5 632.5 Q481 625 521 622 Q522 604 523 580.5 Q524 557 525 533 Q526 509 527 486 Q528 463 530 445 L491 445 Q480 519 444.5 552 Q409 585 355 585 Q315 585 282.5 566 Q250 547 227.5 512 Q205 477 193 427 Q181 377 181 314 Q181 250 193.5 202 Q206 154 229 122 Q274 57 353 57 Q402 57 444.5 79.5 Q487 102 516 140 L553 114 Z M376 805 L476 685 L458 668 L343 739 L228 668 L210 685 L310 805 L376 805 Z " />
<glyph glyph-name="Ccaron" unicode="&#x10c;" horiz-adv-x="577" d="M553 114 Q520 54 461 19 Q402 -16 323 -16 Q256 -16 206.5 4 Q157 24 122 60 Q78 105 56.5 169 Q35 233 35 309 Q35 390 59 453.5 Q83 517 128 560 Q168 599 223.5 619.5 Q279 640 347 640 Q398 640 439.5 632.5 Q481 625 521 622 Q522 604 523 580.5 Q524 557 525 533 Q526 509 527 486 Q528 463 530 445 L491 445 Q480 519 444.5 552 Q409 585 355 585 Q315 585 282.5 566 Q250 547 227.5 512 Q205 477 193 427 Q181 377 181 314 Q181 250 193.5 202 Q206 154 229 122 Q274 57 353 57 Q402 57 444.5 79.5 Q487 102 516 140 L553 114 Z M312 671 L212 791 L230 808 L345 737 L460 808 L478 791 L378 671 L312 671 Z " />
<glyph glyph-name="Cdotaccent" unicode="&#x10a;" horiz-adv-x="577" d="M553 114 Q520 54 461 19 Q402 -16 323 -16 Q256 -16 206.5 4 Q157 24 122 60 Q78 105 56.5 169 Q35 233 35 309 Q35 390 59 453.5 Q83 517 128 560 Q168 599 223.5 619.5 Q279 640 347 640 Q398 640 439.5 632.5 Q481 625 521 622 Q522 604 523 580.5 Q524 557 525 533 Q526 509 527 486 Q528 463 530 445 L491 445 Q480 519 444.5 552 Q409 585 355 585 Q315 585 282.5 566 Q250 547 227.5 512 Q205 477 193 427 Q181 377 181 314 Q181 250 193.5 202 Q206 154 229 122 Q274 57 353 57 Q402 57 444.5 79.5 Q487 102 516 140 L553 114 Z M280 747 Q280 773 299 792 Q318 811 344 811 Q370 811 389 792 Q408 773 408 747 Q408 721 389 702 Q370 683 344 683 Q318 683 299 702 Q280 721 280 747 Z " />
<glyph glyph-name="Dcaron" unicode="&#x10e;" horiz-adv-x="670" d="M38 29 L101 48 L101 526 Q101 542 99.5 553 Q98 564 91.5 571.5 Q85 579 72 584.5 Q59 590 36 596 L36 625 L262 625 Q373 625 445.5 603.5 Q518 582 563 536 Q635 461 635 310 Q635 166 557 83 Q519 43 464.5 21.5 Q410 0 328 0 L38 0 L38 29 Z M491 311 Q491 389 476.5 440 Q462 491 433 521 Q407 548 368 560 Q329 572 273 572 L237 572 L237 90 Q237 68 250 59 Q263 50 298 50 L304 50 Q345 50 375 62.5 Q405 75 428 98 Q491 164 491 311 Z M322 671 L222 791 L240 808 L355 737 L470 808 L488 791 L388 671 L322 671 Z " />
<glyph glyph-name="Dcroat" unicode="&#x110;" horiz-adv-x="672" d="M40 29 L103 48 L103 295 L34 295 L34 349 L103 349 L103 526 Q103 542 101.5 553 Q100 564 93.5 571.5 Q87 579 74 584.5 Q61 590 38 596 L38 625 L264 625 Q375 625 447.5 603.5 Q520 582 565 536 Q637 461 637 310 Q637 166 559 83 Q521 43 466.5 21.5 Q412 0 330 0 L40 0 L40 29 Z M493 311 Q493 389 478.5 440 Q464 491 435 521 Q409 548 370 560 Q331 572 275 572 L239 572 L239 349 L335 349 L335 295 L239 295 L239 90 Q239 67 252 58.5 Q265 50 300 50 L306 50 Q347 50 377 62.5 Q407 75 430 98 Q493 164 493 311 Z " />
<glyph glyph-name="Eth" unicode="&#xd0;" horiz-adv-x="672" d="M40 29 L103 48 L103 295 L34 295 L34 349 L103 349 L103 526 Q103 542 101.5 553 Q100 564 93.5 571.5 Q87 579 74 584.5 Q61 590 38 596 L38 625 L264 625 Q375 625 447.5 603.5 Q520 582 565 536 Q637 461 637 310 Q637 166 559 83 Q521 43 466.5 21.5 Q412 0 330 0 L40 0 L40 29 Z M493 311 Q493 389 478.5 440 Q464 491 435 521 Q409 548 370 560 Q331 572 275 572 L239 572 L239 349 L335 349 L335 295 L239 295 L239 90 Q239 67 252 58.5 Q265 50 300 50 L306 50 Q347 50 377 62.5 Q407 75 430 98 Q493 164 493 311 Z " />
<glyph glyph-name="Egrave" unicode="&#xc8;" horiz-adv-x="564" d="M38 29 L101 48 L101 526 Q101 542 99.5 553 Q98 564 91.5 571.5 Q85 579 72 584.5 Q59 590 36 596 L36 625 L496 625 Q496 611 497.5 589.5 Q499 568 500.5 545.5 Q502 523 503.5 502.5 Q505 482 507 470 L469 470 Q461 505 451.5 526 Q442 547 424 558 Q406 569 376 572.5 Q346 576 298 576 Q282 576 265.5 575.5 Q249 575 237 574 L237 347 L283 347 Q327 347 366.5 349.5 Q406 352 422 356 L416 291 Q390 295 355.5 296.5 Q321 298 283 298 L237 298 L237 94 Q237 69 258 59 Q279 49 340 49 Q376 49 401 53 Q426 57 443 68.5 Q460 80 470 100.5 Q480 121 487 153 L524 153 Q523 141 522 120.5 Q521 100 520.5 77.5 Q520 55 519.5 34 Q519 13 519 0 L38 0 L38 29 Z M186 756 L217 794 Q228 808 240 808 Q252 808 269 794 L406 685 L396 665 L189 743 L186 756 Z " />
<glyph glyph-name="Eacute" unicode="&#xc9;" horiz-adv-x="564" d="M38 29 L101 48 L101 526 Q101 542 99.5 553 Q98 564 91.5 571.5 Q85 579 72 584.5 Q59 590 36 596 L36 625 L496 625 Q496 611 497.5 589.5 Q499 568 500.5 545.5 Q502 523 503.5 502.5 Q505 482 507 470 L469 470 Q461 505 451.5 526 Q442 547 424 558 Q406 569 376 572.5 Q346 576 298 576 Q282 576 265.5 575.5 Q249 575 237 574 L237 347 L283 347 Q327 347 366.5 349.5 Q406 352 422 356 L416 291 Q390 295 355.5 296.5 Q321 298 283 298 L237 298 L237 94 Q237 69 258 59 Q279 49 340 49 Q376 49 401 53 Q426 57 443 68.5 Q460 80 470 100.5 Q480 121 487 153 L524 153 Q523 141 522 120.5 Q521 100 520.5 77.5 Q520 55 519.5 34 Q519 13 519 0 L38 0 L38 29 Z M409 743 L202 665 L192 685 L329 794 Q346 808 358 808 Q370 808 381 794 L412 756 L409 743 Z " />
<glyph glyph-name="Ecircumflex" unicode="&#xca;" horiz-adv-x="564" d="M38 29 L101 48 L101 526 Q101 542 99.5 553 Q98 564 91.5 571.5 Q85 579 72 584.5 Q59 590 36 596 L36 625 L496 625 Q496 611 497.5 589.5 Q499 568 500.5 545.5 Q502 523 503.5 502.5 Q505 482 507 470 L469 470 Q461 505 451.5 526 Q442 547 424 558 Q406 569 376 572.5 Q346 576 298 576 Q282 576 265.5 575.5 Q249 575 237 574 L237 347 L283 347 Q327 347 366.5 349.5 Q406 352 422 356 L416 291 Q390 295 355.5 296.5 Q321 298 283 298 L237 298 L237 94 Q237 69 258 59 Q279 49 340 49 Q376 49 401 53 Q426 57 443 68.5 Q460 80 470 100.5 Q480 121 487 153 L524 153 Q523 141 522 120.5 Q521 100 520.5 77.5 Q520 55 519.5 34 Q519 13 519 0 L38 0 L38 29 Z M329 805 L429 685 L411 668 L296 739 L181 668 L163 685 L263 805 L329 805 Z " />
<glyph glyph-name="Ecaron" unicode="&#x11a;" horiz-adv-x="564" d="M38 29 L101 48 L101 526 Q101 542 99.5 553 Q98 564 91.5 571.5 Q85 579 72 584.5 Q59 590 36 596 L36 625 L496 625 Q496 611 497.5 589.5 Q499 568 500.5 545.5 Q502 523 503.5 502.5 Q505 482 507 470 L469 470 Q461 505 451.5 526 Q442 547 424 558 Q406 569 376 572.5 Q346 576 298 576 Q282 576 265.5 575.5 Q249 575 237 574 L237 347 L283 347 Q327 347 366.5 349.5 Q406 352 422 356 L416 291 Q390 295 355.5 296.5 Q321 298 283 298 L237 298 L237 94 Q237 69 258 59 Q279 49 340 49 Q376 49 401 53 Q426 57 443 68.5 Q460 80 470 100.5 Q480 121 487 153 L524 153 Q523 141 522 120.5 Q521 100 520.5 77.5 Q520 55 519.5 34 Q519 13 519 0 L38 0 L38 29 Z M263 671 L163 791 L181 808 L296 737 L411 808 L429 791 L329 671 L263 671 Z " />
<glyph glyph-name="Edieresis" unicode="&#xcb;" horiz-adv-x="564" d="M38 29 L101 48 L101 526 Q101 542 99.5 553 Q98 564 91.5 571.5 Q85 579 72 584.5 Q59 590 36 596 L36 625 L496 625 Q496 611 497.5 589.5 Q499 568 500.5 545.5 Q502 523 503.5 502.5 Q505 482 507 470 L469 470 Q461 505 451.5 526 Q442 547 424 558 Q406 569 376 572.5 Q346 576 298 576 Q282 576 265.5 575.5 Q249 575 237 574 L237 347 L283 347 Q327 347 366.5 349.5 Q406 352 422 356 L416 291 Q390 295 355.5 296.5 Q321 298 283 298 L237 298 L237 94 Q237 69 258 59 Q279 49 340 49 Q376 49 401 53 Q426 57 443 68.5 Q460 80 470 100.5 Q480 121 487 153 L524 153 Q523 141 522 120.5 Q521 100 520.5 77.5 Q520 55 519.5 34 Q519 13 519 0 L38 0 L38 29 Z M154 740 Q154 763 170.5 779.5 Q187 796 210 796 Q233 796 249.5 779.5 Q266 763 266 740 Q266 717 249.5 700.5 Q233 684 210 684 Q187 684 170.5 700.5 Q154 717 154 740 Z M325 740 Q325 763 341.5 779.5 Q358 796 381 796 Q404 796 420.5 779.5 Q437 763 437 740 Q437 717 420.5 700.5 Q404 684 381 684 Q358 684 341.5 700.5 Q325 717 325 740 Z " />
<glyph glyph-name="Emacron" unicode="&#x112;" horiz-adv-x="564" d="M38 29 L101 48 L101 526 Q101 542 99.5 553 Q98 564 91.5 571.5 Q85 579 72 584.5 Q59 590 36 596 L36 625 L496 625 Q496 611 497.5 589.5 Q499 568 500.5 545.5 Q502 523 503.5 502.5 Q505 482 507 470 L469 470 Q461 505 451.5 526 Q442 547 424 558 Q406 569 376 572.5 Q346 576 298 576 Q282 576 265.5 575.5 Q249 575 237 574 L237 347 L283 347 Q327 347 366.5 349.5 Q406 352 422 356 L416 291 Q390 295 355.5 296.5 Q321 298 283 298 L237 298 L237 94 Q237 69 258 59 Q279 49 340 49 Q376 49 401 53 Q426 57 443 68.5 Q460 80 470 100.5 Q480 121 487 153 L524 153 Q523 141 522 120.5 Q521 100 520.5 77.5 Q520 55 519.5 34 Q519 13 519 0 L38 0 L38 29 Z M162 695 L162 753 L410 753 L410 695 L162 695 Z " />
<glyph glyph-name="Ebreve" unicode="&#x114;" horiz-adv-x="564" d="M38 29 L101 48 L101 526 Q101 542 99.5 553 Q98 564 91.5 571.5 Q85 579 72 584.5 Q59 590 36 596 L36 625 L496 625 Q496 611 497.5 589.5 Q499 568 500.5 545.5 Q502 523 503.5 502.5 Q505 482 507 470 L469 470 Q461 505 451.5 526 Q442 547 424 558 Q406 569 376 572.5 Q346 576 298 576 Q282 576 265.5 575.5 Q249 575 237 574 L237 347 L283 347 Q327 347 366.5 349.5 Q406 352 422 356 L416 291 Q390 295 355.5 296.5 Q321 298 283 298 L237 298 L237 94 Q237 69 258 59 Q279 49 340 49 Q376 49 401 53 Q426 57 443 68.5 Q460 80 470 100.5 Q480 121 487 153 L524 153 Q523 141 522 120.5 Q521 100 520.5 77.5 Q520 55 519.5 34 Q519 13 519 0 L38 0 L38 29 Z M298 676 Q241 676 210.5 709.5 Q180 743 180 798 L213 798 Q219 770 242.5 756 Q266 742 298 742 Q330 742 353.5 756 Q377 770 383 798 L416 798 Q416 743 385.5 709.5 Q355 676 298 676 Z " />
<glyph glyph-name="Edotaccent" unicode="&#x116;" horiz-adv-x="564" d="M38 29 L101 48 L101 526 Q101 542 99.5 553 Q98 564 91.5 571.5 Q85 579 72 584.5 Q59 590 36 596 L36 625 L496 625 Q496 611 497.5 589.5 Q499 568 500.5 545.5 Q502 523 503.5 502.5 Q505 482 507 470 L469 470 Q461 505 451.5 526 Q442 547 424 558 Q406 569 376 572.5 Q346 576 298 576 Q282 576 265.5 575.5 Q249 575 237 574 L237 347 L283 347 Q327 347 366.5 349.5 Q406 352 422 356 L416 291 Q390 295 355.5 296.5 Q321 298 283 298 L237 298 L237 94 Q237 69 258 59 Q279 49 340 49 Q376 49 401 53 Q426 57 443 68.5 Q460 80 470 100.5 Q480 121 487 153 L524 153 Q523 141 522 120.5 Q521 100 520.5 77.5 Q520 55 519.5 34 Q519 13 519 0 L38 0 L38 29 Z M236 747 Q236 773 255 792 Q274 811 300 811 Q326 811 345 792 Q364 773 364 747 Q364 721 345 702 Q326 683 300 683 Q274 683 255 702 Q236 721 236 747 Z " />
<glyph glyph-name="Eogonek" unicode="&#x118;" horiz-adv-x="564" d="M38 29 L101 48 L101 526 Q101 542 99.5 553 Q98 564 91.5 571.5 Q85 579 72 584.5 Q59 590 36 596 L36 625 L496 625 Q496 611 497.5 589.5 Q499 568 500.5 545.5 Q502 523 503.5 502.5 Q505 482 507 470 L469 470 Q461 505 451.5 526 Q442 547 424 558 Q406 569 376 572.5 Q346 576 298 576 Q282 576 265.5 575.5 Q249 575 237 574 L237 347 L283 347 Q327 347 366.5 349.5 Q406 352 422 356 L416 291 Q390 295 355.5 296.5 Q321 298 283 298 L237 298 L237 94 Q237 69 258 59 Q279 49 340 49 Q376 49 401 53 Q426 57 443 68.5 Q460 80 470 100.5 Q480 121 487 153 L524 153 Q523 141 522 120.5 Q521 100 520.5 77.5 Q520 55 519.5 34 Q519 13 519 0 L447 0 Q421 -26 407 -59.5 Q393 -93 393 -126 Q393 -154 408 -168.5 Q423 -183 448 -183 Q462 -183 476 -180.5 Q490 -178 502 -173 L513 -205 Q496 -216 470.5 -223.5 Q445 -231 419 -231 Q371 -231 342 -205 Q313 -179 313 -135 Q313 -100 333.5 -64 Q354 -28 388 0 L38 0 L38 29 Z " />
<glyph glyph-name="Gcircumflex" unicode="&#x11c;" horiz-adv-x="670" d="M578 36 Q559 25 533 15.5 Q507 6 476.5 -1 Q446 -8 413.5 -12 Q381 -16 349 -16 Q277 -16 220 4.5 Q163 25 123 64 Q80 106 57.5 168 Q35 230 35 311 Q35 383 57.5 443.5 Q80 504 123 547.5 Q166 591 228 615.5 Q290 640 369 640 Q420 640 466.5 632 Q513 624 552 620 Q553 581 555 534 Q557 487 561 445 L522 445 Q511 515 472.5 550 Q434 585 373 585 Q331 585 295.5 567 Q260 549 234.5 514.5 Q209 480 195 429.5 Q181 379 181 315 Q181 188 224.5 115 Q268 42 354 42 Q402 42 425 65 Q436 76 441 92 Q446 108 446 134 L446 243 L374 263 L374 292 Q383 292 399.5 291.5 Q416 291 435.5 290.5 Q455 290 475.5 289.5 Q496 289 513 289 Q525 289 542.5 289.5 Q560 290 579 290.5 Q598 291 615 291.5 Q632 292 643 292 L643 263 Q620 257 607 251.5 Q594 246 587.5 238.5 Q581 231 579.5 220 Q578 209 578 193 L578 36 Z M395 805 L495 685 L477 668 L362 739 L247 668 L229 685 L329 805 L395 805 Z " />
<glyph glyph-name="Gbreve" unicode="&#x11e;" horiz-adv-x="670" d="M578 36 Q559 25 533 15.5 Q507 6 476.5 -1 Q446 -8 413.5 -12 Q381 -16 349 -16 Q277 -16 220 4.5 Q163 25 123 64 Q80 106 57.5 168 Q35 230 35 311 Q35 383 57.5 443.5 Q80 504 123 547.5 Q166 591 228 615.5 Q290 640 369 640 Q420 640 466.5 632 Q513 624 552 620 Q553 581 555 534 Q557 487 561 445 L522 445 Q511 515 472.5 550 Q434 585 373 585 Q331 585 295.5 567 Q260 549 234.5 514.5 Q209 480 195 429.5 Q181 379 181 315 Q181 188 224.5 115 Q268 42 354 42 Q402 42 425 65 Q436 76 441 92 Q446 108 446 134 L446 243 L374 263 L374 292 Q383 292 399.5 291.5 Q416 291 435.5 290.5 Q455 290 475.5 289.5 Q496 289 513 289 Q525 289 542.5 289.5 Q560 290 579 290.5 Q598 291 615 291.5 Q632 292 643 292 L643 263 Q620 257 607 251.5 Q594 246 587.5 238.5 Q581 231 579.5 220 Q578 209 578 193 L578 36 Z M367 676 Q310 676 279.5 709.5 Q249 743 249 798 L282 798 Q288 770 311.5 756 Q335 742 367 742 Q399 742 422.5 756 Q446 770 452 798 L485 798 Q485 743 454.5 709.5 Q424 676 367 676 Z " />
<glyph glyph-name="Gdotaccent" unicode="&#x120;" horiz-adv-x="670" d="M578 36 Q559 25 533 15.5 Q507 6 476.5 -1 Q446 -8 413.5 -12 Q381 -16 349 -16 Q277 -16 220 4.5 Q163 25 123 64 Q80 106 57.5 168 Q35 230 35 311 Q35 383 57.5 443.5 Q80 504 123 547.5 Q166 591 228 615.5 Q290 640 369 640 Q420 640 466.5 632 Q513 624 552 620 Q553 581 555 534 Q557 487 561 445 L522 445 Q511 515 472.5 550 Q434 585 373 585 Q331 585 295.5 567 Q260 549 234.5 514.5 Q209 480 195 429.5 Q181 379 181 315 Q181 188 224.5 115 Q268 42 354 42 Q402 42 425 65 Q436 76 441 92 Q446 108 446 134 L446 243 L374 263 L374 292 Q383 292 399.5 291.5 Q416 291 435.5 290.5 Q455 290 475.5 289.5 Q496 289 513 289 Q525 289 542.5 289.5 Q560 290 579 290.5 Q598 291 615 291.5 Q632 292 643 292 L643 263 Q620 257 607 251.5 Q594 246 587.5 238.5 Q581 231 579.5 220 Q578 209 578 193 L578 36 Z M299 747 Q299 773 318 792 Q337 811 363 811 Q389 811 408 792 Q427 773 427 747 Q427 721 408 702 Q389 683 363 683 Q337 683 318 702 Q299 721 299 747 Z " />
<glyph glyph-name="Gcommaaccent" unicode="&#x122;" horiz-adv-x="670" d="M578 36 Q559 25 533 15.5 Q507 6 476.5 -1 Q446 -8 413.5 -12 Q381 -16 349 -16 Q277 -16 220 4.5 Q163 25 123 64 Q80 106 57.5 168 Q35 230 35 311 Q35 383 57.5 443.5 Q80 504 123 547.5 Q166 591 228 615.5 Q290 640 369 640 Q420 640 466.5 632 Q513 624 552 620 Q553 581 555 534 Q557 487 561 445 L522 445 Q511 515 472.5 550 Q434 585 373 585 Q331 585 295.5 567 Q260 549 234.5 514.5 Q209 480 195 429.5 Q181 379 181 315 Q181 188 224.5 115 Q268 42 354 42 Q402 42 425 65 Q436 76 441 92 Q446 108 446 134 L446 243 L374 263 L374 292 Q383 292 399.5 291.5 Q416 291 435.5 290.5 Q455 290 475.5 289.5 Q496 289 513 289 Q525 289 542.5 289.5 Q560 290 579 290.5 Q598 291 615 291.5 Q632 292 643 292 L643 263 Q620 257 607 251.5 Q594 246 587.5 238.5 Q581 231 579.5 220 Q578 209 578 193 L578 36 Z M409 -126 Q408 -168 385.5 -209.5 Q363 -251 309 -281 L294 -260 Q317 -241 332.5 -219.5 Q348 -198 348 -177 Q348 -161 338.5 -151 Q329 -141 318 -133 Q307 -125 297.5 -116 Q288 -107 288 -92 Q288 -73 303 -59.5 Q318 -46 342 -46 Q373 -46 391 -70 Q409 -94 409 -126 Z " />
<glyph glyph-name="Hcircumflex" unicode="&#x124;" horiz-adv-x="727" d="M490 294 L237 294 L237 99 Q237 82 238.5 71.5 Q240 61 246.5 53.5 Q253 46 266 40.5 Q279 35 302 29 L302 0 Q291 0 273.5 0.5 Q256 1 237 1.5 Q218 2 200 2.5 Q182 3 170 3 Q153 3 134 2.5 Q115 2 96.5 1.5 Q78 1 62.5 0.5 Q47 0 38 0 L38 29 L101 48 L101 526 Q101 542 99.5 553 Q98 564 91.5 571.5 Q85 579 72 584.5 Q59 590 36 596 L36 625 Q46 625 64 624.5 Q82 624 101 623.5 Q120 623 138 622.5 Q156 622 168 622 Q185 622 204 622.5 Q223 623 241.5 623.5 Q260 624 275.5 624.5 Q291 625 300 625 L300 596 L237 577 L237 350 L490 350 L490 526 Q490 542 488.5 553 Q487 564 480.5 571.5 Q474 579 461 584.5 Q448 590 425 596 L425 625 Q435 625 453 624.5 Q471 624 490 623.5 Q509 623 527 622.5 Q545 622 557 622 Q574 622 593 622.5 Q612 623 630.5 623.5 Q649 624 664.5 624.5 Q680 625 689 625 L689 596 L626 577 L626 99 Q626 82 627.5 71.5 Q629 61 635.5 53.5 Q642 46 655 40.5 Q668 35 691 29 L691 0 Q680 0 662.5 0.5 Q645 1 626 1.5 Q607 2 589 2.5 Q571 3 559 3 Q542 3 523 2.5 Q504 2 485.5 1.5 Q467 1 451.5 0.5 Q436 0 427 0 L427 29 L490 48 L490 294 Z M396 805 L496 685 L478 668 L363 739 L248 668 L230 685 L330 805 L396 805 Z " />
<glyph glyph-name="Hbar" unicode="&#x126;" horiz-adv-x="731" d="M239 504 L492 504 L492 526 Q492 542 490.5 553 Q489 564 482.5 571.5 Q476 579 463 584.5 Q450 590 427 596 L427 625 Q437 625 455 624.5 Q473 624 492 623.5 Q511 623 529 622.5 Q547 622 559 622 Q576 622 595 622.5 Q614 623 632.5 623.5 Q651 624 666.5 624.5 Q682 625 691 625 L691 596 L628 577 L628 504 L703 504 L703 450 L628 450 L628 99 Q628 82 629.5 71.5 Q631 61 637.5 53.5 Q644 46 657 40.5 Q670 35 693 29 L693 0 Q682 0 664.5 0.5 Q647 1 628 1.5 Q609 2 591 2.5 Q573 3 561 3 Q544 3 525 2.5 Q506 2 487.5 1.5 Q469 1 453.5 0.5 Q438 0 429 0 L429 29 L492 48 L492 294 L239 294 L239 99 Q239 82 240.5 71.5 Q242 61 248.5 53.5 Q255 46 268 40.5 Q281 35 304 29 L304 0 Q293 0 275.5 0.5 Q258 1 239 1.5 Q220 2 202 2.5 Q184 3 172 3 Q155 3 136 2.5 Q117 2 98.5 1.5 Q80 1 64.5 0.5 Q49 0 40 0 L40 29 L103 48 L103 450 L28 450 L28 504 L103 504 L103 526 Q103 542 101.5 553 Q100 564 93.5 571.5 Q87 579 74 584.5 Q61 590 38 596 L38 625 Q48 625 66 624.5 Q84 624 103 623.5 Q122 623 140 622.5 Q158 622 170 622 Q187 622 206 622.5 Q225 623 243.5 623.5 Q262 624 277.5 624.5 Q293 625 302 625 L302 596 L239 577 L239 504 Z M492 450 L239 450 L239 350 L492 350 L492 450 Z " />
<glyph glyph-name="Igrave" unicode="&#xcc;" horiz-adv-x="340" d="M102 526 Q102 542 100.5 553 Q99 564 92.5 571.5 Q86 579 73 584.5 Q60 590 37 596 L37 625 Q47 625 65 624.5 Q83 624 102 623.5 Q121 623 139 622.5 Q157 622 169 622 Q186 622 205 622.5 Q224 623 242.5 623.5 Q261 624 276.5 624.5 Q292 625 301 625 L301 596 L238 577 L238 99 Q238 82 239.5 71.5 Q241 61 247.5 53.5 Q254 46 267 40.5 Q280 35 303 29 L303 0 Q292 0 274.5 0.5 Q257 1 238 1.5 Q219 2 201 2.5 Q183 3 171 3 Q154 3 135 2.5 Q116 2 97.5 1.5 Q79 1 63.5 0.5 Q48 0 39 0 L39 29 L102 48 L102 526 Z M60 756 L91 794 Q102 808 114 808 Q126 808 143 794 L280 685 L270 665 L63 743 L60 756 Z " />
<glyph glyph-name="Iacute" unicode="&#xcd;" horiz-adv-x="340" d="M102 526 Q102 542 100.5 553 Q99 564 92.5 571.5 Q86 579 73 584.5 Q60 590 37 596 L37 625 Q47 625 65 624.5 Q83 624 102 623.5 Q121 623 139 622.5 Q157 622 169 622 Q186 622 205 622.5 Q224 623 242.5 623.5 Q261 624 276.5 624.5 Q292 625 301 625 L301 596 L238 577 L238 99 Q238 82 239.5 71.5 Q241 61 247.5 53.5 Q254 46 267 40.5 Q280 35 303 29 L303 0 Q292 0 274.5 0.5 Q257 1 238 1.5 Q219 2 201 2.5 Q183 3 171 3 Q154 3 135 2.5 Q116 2 97.5 1.5 Q79 1 63.5 0.5 Q48 0 39 0 L39 29 L102 48 L102 526 Z M277 743 L70 665 L60 685 L197 794 Q214 808 226 808 Q238 808 249 794 L280 756 L277 743 Z " />
<glyph glyph-name="Icircumflex" unicode="&#xce;" horiz-adv-x="340" d="M102 526 Q102 542 100.5 553 Q99 564 92.5 571.5 Q86 579 73 584.5 Q60 590 37 596 L37 625 Q47 625 65 624.5 Q83 624 102 623.5 Q121 623 139 622.5 Q157 622 169 622 Q186 622 205 622.5 Q224 623 242.5 623.5 Q261 624 276.5 624.5 Q292 625 301 625 L301 596 L238 577 L238 99 Q238 82 239.5 71.5 Q241 61 247.5 53.5 Q254 46 267 40.5 Q280 35 303 29 L303 0 Q292 0 274.5 0.5 Q257 1 238 1.5 Q219 2 201 2.5 Q183 3 171 3 Q154 3 135 2.5 Q116 2 97.5 1.5 Q79 1 63.5 0.5 Q48 0 39 0 L39 29 L102 48 L102 526 Z M203 805 L303 685 L285 668 L170 739 L55 668 L37 685 L137 805 L203 805 Z " />
<glyph glyph-name="Itilde" unicode="&#x128;" horiz-adv-x="340" d="M102 526 Q102 542 100.5 553 Q99 564 92.5 571.5 Q86 579 73 584.5 Q60 590 37 596 L37 625 Q47 625 65 624.5 Q83 624 102 623.5 Q121 623 139 622.5 Q157 622 169 622 Q186 622 205 622.5 Q224 623 242.5 623.5 Q261 624 276.5 624.5 Q292 625 301 625 L301 596 L238 577 L238 99 Q238 82 239.5 71.5 Q241 61 247.5 53.5 Q254 46 267 40.5 Q280 35 303 29 L303 0 Q292 0 274.5 0.5 Q257 1 238 1.5 Q219 2 201 2.5 Q183 3 171 3 Q154 3 135 2.5 Q116 2 97.5 1.5 Q79 1 63.5 0.5 Q48 0 39 0 L39 29 L102 48 L102 526 Z M312 789 Q306 733 281.5 710 Q257 687 225 687 Q208 687 191.5 693 Q175 699 159.5 705.5 Q144 712 129.5 718 Q115 724 100 724 Q69 724 58 690 L28 695 Q34 751 58.5 774 Q83 797 115 797 Q132 797 148.5 791 Q165 785 180.5 778.5 Q196 772 210.5 766 Q225 760 240 760 Q271 760 282 794 L312 789 Z " />
<glyph glyph-name="Idieresis" unicode="&#xcf;" horiz-adv-x="340" d="M102 526 Q102 542 100.5 553 Q99 564 92.5 571.5 Q86 579 73 584.5 Q60 590 37 596 L37 625 Q47 625 65 624.5 Q83 624 102 623.5 Q121 623 139 622.5 Q157 622 169 622 Q186 622 205 622.5 Q224 623 242.5 623.5 Q261 624 276.5 624.5 Q292 625 301 625 L301 596 L238 577 L238 99 Q238 82 239.5 71.5 Q241 61 247.5 53.5 Q254 46 267 40.5 Q280 35 303 29 L303 0 Q292 0 274.5 0.5 Q257 1 238 1.5 Q219 2 201 2.5 Q183 3 171 3 Q154 3 135 2.5 Q116 2 97.5 1.5 Q79 1 63.5 0.5 Q48 0 39 0 L39 29 L102 48 L102 526 Z M28 740 Q28 763 44.5 779.5 Q61 796 84 796 Q107 796 123.5 779.5 Q140 763 140 740 Q140 717 123.5 700.5 Q107 684 84 684 Q61 684 44.5 700.5 Q28 717 28 740 Z M199 740 Q199 763 215.5 779.5 Q232 796 255 796 Q278 796 294.5 779.5 Q311 763 311 740 Q311 717 294.5 700.5 Q278 684 255 684 Q232 684 215.5 700.5 Q199 717 199 740 Z " />
<glyph glyph-name="Imacron" unicode="&#x12a;" horiz-adv-x="340" d="M102 526 Q102 542 100.5 553 Q99 564 92.5 571.5 Q86 579 73 584.5 Q60 590 37 596 L37 625 Q47 625 65 624.5 Q83 624 102 623.5 Q121 623 139 622.5 Q157 622 169 622 Q186 622 205 622.5 Q224 623 242.5 623.5 Q261 624 276.5 624.5 Q292 625 301 625 L301 596 L238 577 L238 99 Q238 82 239.5 71.5 Q241 61 247.5 53.5 Q254 46 267 40.5 Q280 35 303 29 L303 0 Q292 0 274.5 0.5 Q257 1 238 1.5 Q219 2 201 2.5 Q183 3 171 3 Q154 3 135 2.5 Q116 2 97.5 1.5 Q79 1 63.5 0.5 Q48 0 39 0 L39 29 L102 48 L102 526 Z M46 695 L46 753 L294 753 L294 695 L46 695 Z " />
<glyph glyph-name="Ibreve" unicode="&#x12c;" horiz-adv-x="340" d="M102 526 Q102 542 100.5 553 Q99 564 92.5 571.5 Q86 579 73 584.5 Q60 590 37 596 L37 625 Q47 625 65 624.5 Q83 624 102 623.5 Q121 623 139 622.5 Q157 622 169 622 Q186 622 205 622.5 Q224 623 242.5 623.5 Q261 624 276.5 624.5 Q292 625 301 625 L301 596 L238 577 L238 99 Q238 82 239.5 71.5 Q241 61 247.5 53.5 Q254 46 267 40.5 Q280 35 303 29 L303 0 Q292 0 274.5 0.5 Q257 1 238 1.5 Q219 2 201 2.5 Q183 3 171 3 Q154 3 135 2.5 Q116 2 97.5 1.5 Q79 1 63.5 0.5 Q48 0 39 0 L39 29 L102 48 L102 526 Z M170 676 Q113 676 82.5 709.5 Q52 743 52 798 L85 798 Q91 770 114.5 756 Q138 742 170 742 Q202 742 225.5 756 Q249 770 255 798 L288 798 Q288 743 257.5 709.5 Q227 676 170 676 Z " />
<glyph glyph-name="Idotaccent" unicode="&#x130;" horiz-adv-x="340" d="M102 526 Q102 542 100.5 553 Q99 564 92.5 571.5 Q86 579 73 584.5 Q60 590 37 596 L37 625 Q47 625 65 624.5 Q83 624 102 623.5 Q121 623 139 622.5 Q157 622 169 622 Q186 622 205 622.5 Q224 623 242.5 623.5 Q261 624 276.5 624.5 Q292 625 301 625 L301 596 L238 577 L238 99 Q238 82 239.5 71.5 Q241 61 247.5 53.5 Q254 46 267 40.5 Q280 35 303 29 L303 0 Q292 0 274.5 0.5 Q257 1 238 1.5 Q219 2 201 2.5 Q183 3 171 3 Q154 3 135 2.5 Q116 2 97.5 1.5 Q79 1 63.5 0.5 Q48 0 39 0 L39 29 L102 48 L102 526 Z M106 747 Q106 773 125 792 Q144 811 170 811 Q196 811 215 792 Q234 773 234 747 Q234 721 215 702 Q196 683 170 683 Q144 683 125 702 Q106 721 106 747 Z " />
<glyph glyph-name="Iogonek" unicode="&#x12e;" horiz-adv-x="340" d="M273 -205 Q256 -216 230.5 -223.5 Q205 -231 179 -231 Q131 -231 102 -205 Q73 -179 73 -135 Q73 -99 94.5 -62 Q116 -25 151 3 L39 0 L39 29 L102 48 L102 526 Q102 542 100.5 553 Q99 564 92.5 571.5 Q86 579 73 584.5 Q60 590 37 596 L37 625 Q47 625 65 624.5 Q83 624 102 623.5 Q121 623 139 622.5 Q157 622 169 622 Q186 622 205 622.5 Q224 623 242.5 623.5 Q261 624 276.5 624.5 Q292 625 301 625 L301 596 L238 577 L238 99 Q238 82 239.5 71.5 Q241 61 247.5 53.5 Q254 46 267 40.5 Q280 35 303 29 L303 0 Q288 0 261.5 1 Q235 2 209 2 Q182 -24 167.5 -58 Q153 -92 153 -126 Q153 -154 168 -168.5 Q183 -183 208 -183 Q222 -183 236 -180.5 Q250 -178 262 -173 L273 -205 Z " />
<glyph glyph-name="IJ" unicode="&#x132;" horiz-adv-x="666" d="M102 526 Q102 542 100.5 553 Q99 564 92.5 571.5 Q86 579 73 584.5 Q60 590 37 596 L37 625 Q47 625 65 624.5 Q83 624 102 623.5 Q121 623 139 622.5 Q157 622 169 622 Q186 622 205 622.5 Q224 623 242.5 623.5 Q261 624 276.5 624.5 Q292 625 301 625 L301 596 L238 577 L238 99 Q238 82 239.5 71.5 Q241 61 247.5 53.5 Q254 46 267 40.5 Q280 35 303 29 L303 0 Q292 0 274.5 0.5 Q257 1 238 1.5 Q219 2 201 2.5 Q183 3 171 3 Q154 3 135 2.5 Q116 2 97.5 1.5 Q79 1 63.5 0.5 Q48 0 39 0 L39 29 L102 48 L102 526 Z M572 88 Q572 38 563 -10.5 Q554 -59 528.5 -101 Q503 -143 458 -174 Q413 -205 341 -219 L329 -181 Q360 -167 381 -146 Q402 -125 414 -93.5 Q426 -62 431 -19.5 Q436 23 436 80 L436 526 Q436 542 434.5 553 Q433 564 426.5 571.5 Q420 579 407 584.5 Q394 590 371 596 L371 625 Q381 625 399 624.5 Q417 624 436 623.5 Q455 623 473 622.5 Q491 622 503 622 Q520 622 539 622.5 Q558 623 576.5 623.5 Q595 624 610.5 624.5 Q626 625 635 625 L635 596 L572 577 L572 88 Z " />
<glyph glyph-name="Jcircumflex" unicode="&#x134;" horiz-adv-x="326" d="M232 88 Q232 38 223 -10.5 Q214 -59 188.5 -101 Q163 -143 118 -174 Q73 -205 1 -219 L-11 -181 Q20 -167 41 -146 Q62 -125 74 -93.5 Q86 -62 91 -19.5 Q96 23 96 80 L96 526 Q96 542 94.5 553 Q93 564 86.5 571.5 Q80 579 67 584.5 Q54 590 31 596 L31 625 Q41 625 59 624.5 Q77 624 96 623.5 Q115 623 133 622.5 Q151 622 163 622 Q180 622 199 622.5 Q218 623 236.5 623.5 Q255 624 270.5 624.5 Q286 625 295 625 L295 596 L232 577 L232 88 Z M196 805 L296 685 L278 668 L163 739 L48 668 L30 685 L130 805 L196 805 Z " />
<glyph glyph-name="Kcommaaccent" unicode="&#x136;" horiz-adv-x="647" d="M101 526 Q101 542 99.5 553 Q98 564 91.5 571.5 Q85 579 72 584.5 Q59 590 36 596 L36 625 Q46 625 64 624.5 Q82 624 101 623.5 Q120 623 138 622.5 Q156 622 168 622 Q185 622 204 622.5 Q223 623 241.5 623.5 Q260 624 275.5 624.5 Q291 625 300 625 L300 596 L237 577 L237 320 L454 580 L394 596 L394 625 Q416 624 449 623 Q482 622 504 622 Q527 622 559 623 Q591 624 611 625 L611 596 Q587 593 570 588.5 Q553 584 539 576 Q525 568 512 555.5 Q499 543 482 523 L373 395 L533 117 Q546 94 556.5 79 Q567 64 579 54 Q591 44 605.5 38.5 Q620 33 641 29 L641 0 L430 0 Q428 12 426 22.5 Q424 33 420 44 Q416 55 409.5 69 Q403 83 392 102 L285 291 L237 234 L237 99 Q237 82 238.5 71.5 Q240 61 246.5 53.5 Q253 46 266 40.5 Q279 35 302 29 L302 0 Q291 0 273.5 0.5 Q256 1 237 1.5 Q218 2 200 2.5 Q182 3 170 3 Q153 3 134 2.5 Q115 2 96.5 1.5 Q78 1 62.5 0.5 Q47 0 38 0 L38 29 L101 48 L101 526 Z M410 -126 Q409 -168 386.5 -209.5 Q364 -251 310 -281 L295 -260 Q318 -241 333.5 -219.5 Q349 -198 349 -177 Q349 -161 339.5 -151 Q330 -141 319 -133 Q308 -125 298.5 -116 Q289 -107 289 -92 Q289 -73 304 -59.5 Q319 -46 343 -46 Q374 -46 392 -70 Q410 -94 410 -126 Z " />
<glyph glyph-name="Lacute" unicode="&#x139;" horiz-adv-x="534" d="M237 93 Q237 81 241 72 Q245 63 256 58 Q267 53 286.5 50.5 Q306 48 336 48 Q370 48 394 52.5 Q418 57 434 68.5 Q450 80 460 100.5 Q470 121 477 153 L514 153 Q513 141 512 120.5 Q511 100 510.5 77.5 Q510 55 509.5 34 Q509 13 509 0 L38 0 L38 29 L101 48 L101 526 Q101 542 99.5 553 Q98 564 91.5 571.5 Q85 579 72 584.5 Q59 590 36 596 L36 625 Q46 625 64 624.5 Q82 624 101 623.5 Q120 623 138 622.5 Q156 622 168 622 Q185 622 204 622.5 Q223 623 241.5 623.5 Q260 624 275.5 624.5 Q291 625 300 625 L300 596 L237 577 L237 93 Z M276 743 L69 665 L59 685 L196 794 Q213 808 225 808 Q237 808 248 794 L279 756 L276 743 Z " />
<glyph glyph-name="Lcaron" unicode="&#x13d;" horiz-adv-x="534" d="M237 93 Q237 81 241 72 Q245 63 256 58 Q267 53 286.5 50.5 Q306 48 336 48 Q370 48 394 52.5 Q418 57 434 68.5 Q450 80 460 100.5 Q470 121 477 153 L514 153 Q513 141 512 120.5 Q511 100 510.5 77.5 Q510 55 509.5 34 Q509 13 509 0 L38 0 L38 29 L101 48 L101 526 Q101 542 99.5 553 Q98 564 91.5 571.5 Q85 579 72 584.5 Q59 590 36 596 L36 625 Q46 625 64 624.5 Q82 624 101 623.5 Q120 623 138 622.5 Q156 622 168 622 Q185 622 204 622.5 Q223 623 241.5 623.5 Q260 624 275.5 624.5 Q291 625 300 625 L300 596 L237 577 L237 93 Z M472 560 Q471 518 448.5 476.5 Q426 435 372 405 L357 426 Q380 445 395.5 466.5 Q411 488 411 509 Q411 525 401.5 535 Q392 545 381 553 Q370 561 360.5 570 Q351 579 351 594 Q351 613 366 626.5 Q381 640 405 640 Q436 640 454 616 Q472 592 472 560 Z " />
<glyph glyph-name="Lcommaaccent" unicode="&#x13b;" horiz-adv-x="534" d="M237 93 Q237 81 241 72 Q245 63 256 58 Q267 53 286.5 50.5 Q306 48 336 48 Q370 48 394 52.5 Q418 57 434 68.5 Q450 80 460 100.5 Q470 121 477 153 L514 153 Q513 141 512 120.5 Q511 100 510.5 77.5 Q510 55 509.5 34 Q509 13 509 0 L38 0 L38 29 L101 48 L101 526 Q101 542 99.5 553 Q98 564 91.5 571.5 Q85 579 72 584.5 Q59 590 36 596 L36 625 Q46 625 64 624.5 Q82 624 101 623.5 Q120 623 138 622.5 Q156 622 168 622 Q185 622 204 622.5 Q223 623 241.5 623.5 Q260 624 275.5 624.5 Q291 625 300 625 L300 596 L237 577 L237 93 Z M363 -126 Q362 -168 339.5 -209.5 Q317 -251 263 -281 L248 -260 Q271 -241 286.5 -219.5 Q302 -198 302 -177 Q302 -161 292.5 -151 Q283 -141 272 -133 Q261 -125 251.5 -116 Q242 -107 242 -92 Q242 -73 257 -59.5 Q272 -46 296 -46 Q327 -46 345 -70 Q363 -94 363 -126 Z " />
<glyph glyph-name="Lslash" unicode="&#x141;" horiz-adv-x="534" d="M237 380 L339 444 L368 397 L237 315 L237 93 Q237 81 241 72 Q245 63 256 58 Q267 53 286.5 50.5 Q306 48 336 48 Q370 48 394 52.5 Q418 57 434 68.5 Q450 80 460 100.5 Q470 121 477 153 L514 153 Q513 141 512 120.5 Q511 100 510.5 77.5 Q510 55 509.5 34 Q509 13 509 0 L38 0 L38 29 L101 48 L101 229 L38 190 L9 237 L101 294 L101 526 Q101 542 99.5 553 Q98 564 91.5 571.5 Q85 579 72 584.5 Q59 590 36 596 L36 625 Q46 625 64 624.5 Q82 624 101 623.5 Q120 623 138 622.5 Q156 622 168 622 Q185 622 204 622.5 Q223 623 241.5 623.5 Q260 624 275.5 624.5 Q291 625 300 625 L300 596 L237 577 L237 380 Z " />
<glyph glyph-name="Ldot" unicode="&#x13f;" horiz-adv-x="534" d="M237 93 Q237 81 241 72 Q245 63 256 58 Q267 53 286.5 50.5 Q306 48 336 48 Q370 48 394 52.5 Q418 57 434 68.5 Q450 80 460 100.5 Q470 121 477 153 L514 153 Q513 141 512 120.5 Q511 100 510.5 77.5 Q510 55 509.5 34 Q509 13 509 0 L38 0 L38 29 L101 48 L101 526 Q101 542 99.5 553 Q98 564 91.5 571.5 Q85 579 72 584.5 Q59 590 36 596 L36 625 Q46 625 64 624.5 Q82 624 101 623.5 Q120 623 138 622.5 Q156 622 168 622 Q185 622 204 622.5 Q223 623 241.5 623.5 Q260 624 275.5 624.5 Q291 625 300 625 L300 596 L237 577 L237 93 Z M364 332 Q364 358 383 377 Q402 396 428 396 Q454 396 473 377 Q492 358 492 332 Q492 306 473 287 Q454 268 428 268 Q402 268 383 287 Q364 306 364 332 Z " />
<glyph glyph-name="Nacute" unicode="&#x143;" horiz-adv-x="704" d="M610 -2 L525 -2 L167 466 L167 99 Q167 82 168.5 71.5 Q170 61 176.5 53.5 Q183 46 196 40.5 Q209 35 232 29 L232 0 Q211 1 184.5 1.5 Q158 2 135 2 Q101 2 79 1.5 Q57 1 38 0 L38 29 L101 48 L101 526 Q101 542 99.5 553 Q98 564 91.5 571.5 Q85 579 72 584.5 Q59 590 36 596 L36 625 L211 625 L544 190 L544 527 Q544 543 542.5 554 Q541 565 534.5 572.5 Q528 580 515 585.5 Q502 591 479 597 L479 626 Q500 625 526.5 624.5 Q553 624 576 624 Q610 624 632 624.5 Q654 625 673 626 L673 597 L610 578 L610 -2 Z M477 743 L270 665 L260 685 L397 794 Q414 808 426 808 Q438 808 449 794 L480 756 L477 743 Z " />
<glyph glyph-name="Ncaron" unicode="&#x147;" horiz-adv-x="704" d="M610 -2 L525 -2 L167 466 L167 99 Q167 82 168.5 71.5 Q170 61 176.5 53.5 Q183 46 196 40.5 Q209 35 232 29 L232 0 Q211 1 184.5 1.5 Q158 2 135 2 Q101 2 79 1.5 Q57 1 38 0 L38 29 L101 48 L101 526 Q101 542 99.5 553 Q98 564 91.5 571.5 Q85 579 72 584.5 Q59 590 36 596 L36 625 L211 625 L544 190 L544 527 Q544 543 542.5 554 Q541 565 534.5 572.5 Q528 580 515 585.5 Q502 591 479 597 L479 626 Q500 625 526.5 624.5 Q553 624 576 624 Q610 624 632 624.5 Q654 625 673 626 L673 597 L610 578 L610 -2 Z M335 671 L235 791 L253 808 L368 737 L483 808 L501 791 L401 671 L335 671 Z " />
<glyph glyph-name="Ntilde" unicode="&#xd1;" horiz-adv-x="704" d="M610 -2 L525 -2 L167 466 L167 99 Q167 82 168.5 71.5 Q170 61 176.5 53.5 Q183 46 196 40.5 Q209 35 232 29 L232 0 Q211 1 184.5 1.5 Q158 2 135 2 Q101 2 79 1.5 Q57 1 38 0 L38 29 L101 48 L101 526 Q101 542 99.5 553 Q98 564 91.5 571.5 Q85 579 72 584.5 Q59 590 36 596 L36 625 L211 625 L544 190 L544 527 Q544 543 542.5 554 Q541 565 534.5 572.5 Q528 580 515 585.5 Q502 591 479 597 L479 626 Q500 625 526.5 624.5 Q553 624 576 624 Q610 624 632 624.5 Q654 625 673 626 L673 597 L610 578 L610 -2 Z M510 789 Q504 733 479.5 710 Q455 687 423 687 Q406 687 389.5 693 Q373 699 357.5 705.5 Q342 712 327.5 718 Q313 724 298 724 Q267 724 256 690 L226 695 Q232 751 256.5 774 Q281 797 313 797 Q330 797 346.5 791 Q363 785 378.5 778.5 Q394 772 408.5 766 Q423 760 438 760 Q469 760 480 794 L510 789 Z " />
<glyph glyph-name="Ncommaaccent" unicode="&#x145;" horiz-adv-x="704" d="M610 -2 L525 -2 L167 466 L167 99 Q167 82 168.5 71.5 Q170 61 176.5 53.5 Q183 46 196 40.5 Q209 35 232 29 L232 0 Q211 1 184.5 1.5 Q158 2 135 2 Q101 2 79 1.5 Q57 1 38 0 L38 29 L101 48 L101 526 Q101 542 99.5 553 Q98 564 91.5 571.5 Q85 579 72 584.5 Q59 590 36 596 L36 625 L211 625 L544 190 L544 527 Q544 543 542.5 554 Q541 565 534.5 572.5 Q528 580 515 585.5 Q502 591 479 597 L479 626 Q500 625 526.5 624.5 Q553 624 576 624 Q610 624 632 624.5 Q654 625 673 626 L673 597 L610 578 L610 -2 Z M430 -126 Q429 -168 406.5 -209.5 Q384 -251 330 -281 L315 -260 Q338 -241 353.5 -219.5 Q369 -198 369 -177 Q369 -161 359.5 -151 Q350 -141 339 -133 Q328 -125 318.5 -116 Q309 -107 309 -92 Q309 -73 324 -59.5 Q339 -46 363 -46 Q394 -46 412 -70 Q430 -94 430 -126 Z " />
<glyph glyph-name="Eng" unicode="&#x14a;" horiz-adv-x="704" d="M465 -82 Q497 -82 515 -64 Q533 -46 540 -15 L167 466 L167 99 Q167 82 168.5 71.5 Q170 61 176.5 53.5 Q183 46 196 40.5 Q209 35 232 29 L232 0 Q211 1 184.5 1.5 Q158 2 135 2 Q101 2 79 1.5 Q57 1 38 0 L38 29 L101 48 L101 526 Q101 542 99.5 553 Q98 564 91.5 571.5 Q85 579 72 584.5 Q59 590 36 596 L36 625 L211 625 L544 195 L544 527 Q544 543 542.5 554 Q541 565 534.5 572.5 Q528 580 515 585.5 Q502 591 479 597 L479 626 Q500 625 526.5 624.5 Q553 624 576 624 Q610 624 632 624.5 Q654 625 673 626 L673 597 L610 578 L610 28 Q610 -27 601 -69.5 Q592 -112 569 -139 Q551 -161 525 -173 Q499 -185 462 -185 Q438 -185 410 -178.5 Q382 -172 368 -163 Q360 -158 358 -153 Q356 -148 357 -140 L367 -62 L382 -57 Q405 -70 424.5 -76 Q444 -82 465 -82 Z " />
<glyph glyph-name="Ograve" unicode="&#xd2;" horiz-adv-x="656" d="M621 312 Q621 244 603 184 Q585 124 548.5 79.5 Q512 35 457 9.5 Q402 -16 328 -16 Q254 -16 199 9.5 Q144 35 107.5 79.5 Q71 124 53 184 Q35 244 35 312 Q35 380 53 440 Q71 500 107.5 544.5 Q144 589 199 614.5 Q254 640 328 640 Q402 640 457 614.5 Q512 589 548.5 544.5 Q585 500 603 440 Q621 380 621 312 Z M475 312 Q475 364 467.5 413 Q460 462 443 500 Q426 538 398 561 Q370 584 328 584 Q286 584 258 561 Q230 538 213 500 Q196 462 188.5 413 Q181 364 181 312 Q181 260 188.5 211 Q196 162 213 124 Q230 86 258 63 Q286 40 328 40 Q370 40 398 63 Q426 86 443 124 Q460 162 467.5 211 Q475 260 475 312 Z M218 756 L249 794 Q260 808 272 808 Q284 808 301 794 L438 685 L428 665 L221 743 L218 756 Z " />
<glyph glyph-name="Oacute" unicode="&#xd3;" horiz-adv-x="656" d="M621 312 Q621 244 603 184 Q585 124 548.5 79.5 Q512 35 457 9.5 Q402 -16 328 -16 Q254 -16 199 9.5 Q144 35 107.5 79.5 Q71 124 53 184 Q35 244 35 312 Q35 380 53 440 Q71 500 107.5 544.5 Q144 589 199 614.5 Q254 640 328 640 Q402 640 457 614.5 Q512 589 548.5 544.5 Q585 500 603 440 Q621 380 621 312 Z M475 312 Q475 364 467.5 413 Q460 462 443 500 Q426 538 398 561 Q370 584 328 584 Q286 584 258 561 Q230 538 213 500 Q196 462 188.5 413 Q181 364 181 312 Q181 260 188.5 211 Q196 162 213 124 Q230 86 258 63 Q286 40 328 40 Q370 40 398 63 Q426 86 443 124 Q460 162 467.5 211 Q475 260 475 312 Z M439 743 L232 665 L222 685 L359 794 Q376 808 388 808 Q400 808 411 794 L442 756 L439 743 Z " />
<glyph glyph-name="Ocircumflex" unicode="&#xd4;" horiz-adv-x="656" d="M621 312 Q621 244 603 184 Q585 124 548.5 79.5 Q512 35 457 9.5 Q402 -16 328 -16 Q254 -16 199 9.5 Q144 35 107.5 79.5 Q71 124 53 184 Q35 244 35 312 Q35 380 53 440 Q71 500 107.5 544.5 Q144 589 199 614.5 Q254 640 328 640 Q402 640 457 614.5 Q512 589 548.5 544.5 Q585 500 603 440 Q621 380 621 312 Z M475 312 Q475 364 467.5 413 Q460 462 443 500 Q426 538 398 561 Q370 584 328 584 Q286 584 258 561 Q230 538 213 500 Q196 462 188.5 413 Q181 364 181 312 Q181 260 188.5 211 Q196 162 213 124 Q230 86 258 63 Q286 40 328 40 Q370 40 398 63 Q426 86 443 124 Q460 162 467.5 211 Q475 260 475 312 Z M361 805 L461 685 L443 668 L328 739 L213 668 L195 685 L295 805 L361 805 Z " />
<glyph glyph-name="Otilde" unicode="&#xd5;" horiz-adv-x="656" d="M621 312 Q621 244 603 184 Q585 124 548.5 79.5 Q512 35 457 9.5 Q402 -16 328 -16 Q254 -16 199 9.5 Q144 35 107.5 79.5 Q71 124 53 184 Q35 244 35 312 Q35 380 53 440 Q71 500 107.5 544.5 Q144 589 199 614.5 Q254 640 328 640 Q402 640 457 614.5 Q512 589 548.5 544.5 Q585 500 603 440 Q621 380 621 312 Z M475 312 Q475 364 467.5 413 Q460 462 443 500 Q426 538 398 561 Q370 584 328 584 Q286 584 258 561 Q230 538 213 500 Q196 462 188.5 413 Q181 364 181 312 Q181 260 188.5 211 Q196 162 213 124 Q230 86 258 63 Q286 40 328 40 Q370 40 398 63 Q426 86 443 124 Q460 162 467.5 211 Q475 260 475 312 Z M470 789 Q464 733 439.5 710 Q415 687 383 687 Q366 687 349.5 693 Q333 699 317.5 705.5 Q302 712 287.5 718 Q273 724 258 724 Q227 724 216 690 L186 695 Q192 751 216.5 774 Q241 797 273 797 Q290 797 306.5 791 Q323 785 338.5 778.5 Q354 772 368.5 766 Q383 760 398 760 Q429 760 440 794 L470 789 Z " />
<glyph glyph-name="Odieresis" unicode="&#xd6;" horiz-adv-x="656" d="M621 312 Q621 244 603 184 Q585 124 548.5 79.5 Q512 35 457 9.5 Q402 -16 328 -16 Q254 -16 199 9.5 Q144 35 107.5 79.5 Q71 124 53 184 Q35 244 35 312 Q35 380 53 440 Q71 500 107.5 544.5 Q144 589 199 614.5 Q254 640 328 640 Q402 640 457 614.5 Q512 589 548.5 544.5 Q585 500 603 440 Q621 380 621 312 Z M475 312 Q475 364 467.5 413 Q460 462 443 500 Q426 538 398 561 Q370 584 328 584 Q286 584 258 561 Q230 538 213 500 Q196 462 188.5 413 Q181 364 181 312 Q181 260 188.5 211 Q196 162 213 124 Q230 86 258 63 Q286 40 328 40 Q370 40 398 63 Q426 86 443 124 Q460 162 467.5 211 Q475 260 475 312 Z M187 740 Q187 763 203.5 779.5 Q220 796 243 796 Q266 796 282.5 779.5 Q299 763 299 740 Q299 717 282.5 700.5 Q266 684 243 684 Q220 684 203.5 700.5 Q187 717 187 740 Z M358 740 Q358 763 374.5 779.5 Q391 796 414 796 Q437 796 453.5 779.5 Q470 763 470 740 Q470 717 453.5 700.5 Q437 684 414 684 Q391 684 374.5 700.5 Q358 717 358 740 Z " />
<glyph glyph-name="Omacron" unicode="&#x14c;" horiz-adv-x="656" d="M621 312 Q621 244 603 184 Q585 124 548.5 79.5 Q512 35 457 9.5 Q402 -16 328 -16 Q254 -16 199 9.5 Q144 35 107.5 79.5 Q71 124 53 184 Q35 244 35 312 Q35 380 53 440 Q71 500 107.5 544.5 Q144 589 199 614.5 Q254 640 328 640 Q402 640 457 614.5 Q512 589 548.5 544.5 Q585 500 603 440 Q621 380 621 312 Z M475 312 Q475 364 467.5 413 Q460 462 443 500 Q426 538 398 561 Q370 584 328 584 Q286 584 258 561 Q230 538 213 500 Q196 462 188.5 413 Q181 364 181 312 Q181 260 188.5 211 Q196 162 213 124 Q230 86 258 63 Q286 40 328 40 Q370 40 398 63 Q426 86 443 124 Q460 162 467.5 211 Q475 260 475 312 Z M204 695 L204 753 L452 753 L452 695 L204 695 Z " />
<glyph glyph-name="Obreve" unicode="&#x14e;" horiz-adv-x="656" d="M621 312 Q621 244 603 184 Q585 124 548.5 79.5 Q512 35 457 9.5 Q402 -16 328 -16 Q254 -16 199 9.5 Q144 35 107.5 79.5 Q71 124 53 184 Q35 244 35 312 Q35 380 53 440 Q71 500 107.5 544.5 Q144 589 199 614.5 Q254 640 328 640 Q402 640 457 614.5 Q512 589 548.5 544.5 Q585 500 603 440 Q621 380 621 312 Z M475 312 Q475 364 467.5 413 Q460 462 443 500 Q426 538 398 561 Q370 584 328 584 Q286 584 258 561 Q230 538 213 500 Q196 462 188.5 413 Q181 364 181 312 Q181 260 188.5 211 Q196 162 213 124 Q230 86 258 63 Q286 40 328 40 Q370 40 398 63 Q426 86 443 124 Q460 162 467.5 211 Q475 260 475 312 Z M328 676 Q271 676 240.5 709.5 Q210 743 210 798 L243 798 Q249 770 272.5 756 Q296 742 328 742 Q360 742 383.5 756 Q407 770 413 798 L446 798 Q446 743 415.5 709.5 Q385 676 328 676 Z " />
<glyph glyph-name="Ohungarumlaut" unicode="&#x150;" horiz-adv-x="656" d="M621 312 Q621 244 603 184 Q585 124 548.5 79.5 Q512 35 457 9.5 Q402 -16 328 -16 Q254 -16 199 9.5 Q144 35 107.5 79.5 Q71 124 53 184 Q35 244 35 312 Q35 380 53 440 Q71 500 107.5 544.5 Q144 589 199 614.5 Q254 640 328 640 Q402 640 457 614.5 Q512 589 548.5 544.5 Q585 500 603 440 Q621 380 621 312 Z M475 312 Q475 364 467.5 413 Q460 462 443 500 Q426 538 398 561 Q370 584 328 584 Q286 584 258 561 Q230 538 213 500 Q196 462 188.5 413 Q181 364 181 312 Q181 260 188.5 211 Q196 162 213 124 Q230 86 258 63 Q286 40 328 40 Q370 40 398 63 Q426 86 443 124 Q460 162 467.5 211 Q475 260 475 312 Z M333 745 L158 665 L147 681 L258 790 Q266 797 272 801.5 Q278 806 285 806 Q294 806 306 793 L335 757 L333 745 Z M506 745 L331 665 L320 681 L431 790 Q439 797 445 801.5 Q451 806 458 806 Q467 806 479 793 L508 757 L506 745 Z " />
<glyph glyph-name="Oslash" unicode="&#xd8;" horiz-adv-x="656" d="M621 312 Q621 244 603 184 Q585 124 548.5 79.5 Q512 35 457 9.5 Q402 -16 328 -16 Q290 -16 258 -9.5 Q226 -3 198 9 L170 -45 L108 -45 L151 38 Q92 82 63.5 153.5 Q35 225 35 312 Q35 380 53 440 Q71 500 107.5 544.5 Q144 589 199 614.5 Q254 640 328 640 Q363 640 394.5 633.5 Q426 627 453 616 L481 670 L543 670 L500 589 Q561 545 591 472.5 Q621 400 621 312 Z M475 312 Q475 360 468.5 405.5 Q462 451 448 488 L237 84 Q272 40 328 40 Q370 40 398 63 Q426 86 443 124 Q460 162 467.5 211 Q475 260 475 312 Z M181 312 Q181 265 186.5 221.5 Q192 178 205 142 L415 544 Q399 563 377.5 573.5 Q356 584 328 584 Q286 584 258 561 Q230 538 213 500 Q196 462 188.5 413 Q181 364 181 312 Z " />
<glyph glyph-name="Oslashacute" unicode="&#x1fe;" horiz-adv-x="656" d="M443 743 L236 665 L226 685 L363 794 Q380 808 392 808 Q404 808 415 794 L446 756 L443 743 Z M621 312 Q621 244 603 184 Q585 124 548.5 79.5 Q512 35 457 9.5 Q402 -16 328 -16 Q290 -16 258 -9.5 Q226 -3 198 9 L170 -45 L108 -45 L151 38 Q92 82 63.5 153.5 Q35 225 35 312 Q35 380 53 440 Q71 500 107.5 544.5 Q144 589 199 614.5 Q254 640 328 640 Q363 640 394.5 633.5 Q426 627 453 616 L481 670 L543 670 L500 589 Q561 545 591 472.5 Q621 400 621 312 Z M475 312 Q475 360 468.5 405.5 Q462 451 448 488 L237 84 Q272 40 328 40 Q370 40 398 63 Q426 86 443 124 Q460 162 467.5 211 Q475 260 475 312 Z M181 312 Q181 265 186.5 221.5 Q192 178 205 142 L415 544 Q399 563 377.5 573.5 Q356 584 328 584 Q286 584 258 561 Q230 538 213 500 Q196 462 188.5 413 Q181 364 181 312 Z " />
<glyph glyph-name="OE" unicode="&#x152;" horiz-adv-x="896" d="M551 0 Q492 0 438.5 -8 Q385 -16 328 -16 Q254 -16 199 9.5 Q144 35 107.5 79.5 Q71 124 53 184 Q35 244 35 312 Q35 380 53 440 Q71 500 107.5 544.5 Q144 589 199 614.5 Q254 640 328 640 Q385 640 438.5 632.5 Q492 625 551 625 L828 625 Q828 611 829.5 589.5 Q831 568 832.5 545.5 Q834 523 835.5 502.5 Q837 482 839 470 L801 470 Q793 505 783.5 526 Q774 547 756 558 Q738 569 708 572.5 Q678 576 630 576 Q614 576 597.5 575.5 Q581 575 569 574 L569 347 L615 347 Q659 347 698.5 349.5 Q738 352 754 356 L748 291 Q722 295 687.5 296.5 Q653 298 615 298 L569 298 L569 94 Q569 69 590 59 Q611 49 672 49 Q708 49 733 53 Q758 57 775 68.5 Q792 80 802 100.5 Q812 121 819 153 L856 153 Q855 141 854 120.5 Q853 100 852.5 77.5 Q852 55 851.5 34 Q851 13 851 0 L551 0 Z M433 495 Q433 521 427 537.5 Q421 554 409 565 Q384 585 339 585 Q300 585 273.5 569.5 Q247 554 229 527 Q203 488 192 431 Q181 374 181 312 Q181 250 192 193 Q203 136 229 97 Q247 70 273.5 54.5 Q300 39 339 39 Q384 39 409 59 Q421 70 427 86.5 Q433 103 433 129 L433 495 Z " />
<glyph glyph-name="Thorn" unicode="&#xde;" horiz-adv-x="591" d="M101 526 Q101 542 99.5 553 Q98 564 91.5 571.5 Q85 579 72 584.5 Q59 590 36 596 L36 625 Q46 625 64 624.5 Q82 624 101 623.5 Q120 623 138 622.5 Q156 622 168 622 Q185 622 204 622.5 Q223 623 241.5 623.5 Q260 624 275.5 624.5 Q291 625 300 625 L300 596 L237 577 L237 505 L280 505 Q352 505 405.5 493.5 Q459 482 494 453 Q520 432 533.5 400 Q547 368 547 323 Q547 282 532 247 Q517 212 485.5 186.5 Q454 161 405.5 146.5 Q357 132 291 132 L237 132 L237 99 Q237 82 238.5 71.5 Q240 61 246.5 53.5 Q253 46 266 40.5 Q279 35 302 29 L302 0 Q291 0 273.5 0.5 Q256 1 237 1.5 Q218 2 200 2.5 Q182 3 170 3 Q153 3 134 2.5 Q115 2 96.5 1.5 Q78 1 62.5 0.5 Q47 0 38 0 L38 29 L101 48 L101 526 Z M237 455 L237 181 L272 181 Q310 181 335.5 191.5 Q361 202 376 220.5 Q391 239 397.5 265 Q404 291 404 321 Q404 357 396 381.5 Q388 406 374 422 Q357 441 331.5 448 Q306 455 272 455 L237 455 Z " />
<glyph glyph-name="Racute" unicode="&#x154;" horiz-adv-x="630" d="M237 99 Q237 82 238.5 71.5 Q240 61 246.5 53.5 Q253 46 266 40.5 Q279 35 302 29 L302 0 Q291 0 273.5 0.5 Q256 1 237 1.5 Q218 2 200 2.5 Q182 3 170 3 Q153 3 134 2.5 Q115 2 96.5 1.5 Q78 1 62.5 0.5 Q47 0 38 0 L38 29 L101 48 L101 526 Q101 542 99.5 553 Q98 564 91.5 571.5 Q85 579 72 584.5 Q59 590 36 596 L36 625 L262 625 Q341 625 395.5 613.5 Q450 602 484 576 Q537 535 537 454 Q537 400 505.5 360 Q474 320 414 300 Q430 295 441 287 Q452 279 461.5 266.5 Q471 254 479 237 Q487 220 497 198 L535 110 Q544 88 552.5 73.5 Q561 59 571.5 50 Q582 41 595.5 36.5 Q609 32 628 29 L628 0 L425 0 Q424 26 419.5 45.5 Q415 65 403 92 L357 197 Q347 219 339 233 Q331 247 321 254.5 Q311 262 297.5 265 Q284 268 264 268 L237 268 L237 99 Z M394 448 Q394 482 386.5 505 Q379 528 365 542 Q347 562 320 568.5 Q293 575 258 575 L237 575 L237 314 L264 314 Q301 314 325 323.5 Q349 333 364 350 Q380 367 387 392 Q394 417 394 448 Z M432 743 L225 665 L215 685 L352 794 Q369 808 381 808 Q393 808 404 794 L435 756 L432 743 Z " />
<glyph glyph-name="Rcaron" unicode="&#x158;" horiz-adv-x="630" d="M237 99 Q237 82 238.5 71.5 Q240 61 246.5 53.5 Q253 46 266 40.5 Q279 35 302 29 L302 0 Q291 0 273.5 0.5 Q256 1 237 1.5 Q218 2 200 2.5 Q182 3 170 3 Q153 3 134 2.5 Q115 2 96.5 1.5 Q78 1 62.5 0.5 Q47 0 38 0 L38 29 L101 48 L101 526 Q101 542 99.5 553 Q98 564 91.5 571.5 Q85 579 72 584.5 Q59 590 36 596 L36 625 L262 625 Q341 625 395.5 613.5 Q450 602 484 576 Q537 535 537 454 Q537 400 505.5 360 Q474 320 414 300 Q430 295 441 287 Q452 279 461.5 266.5 Q471 254 479 237 Q487 220 497 198 L535 110 Q544 88 552.5 73.5 Q561 59 571.5 50 Q582 41 595.5 36.5 Q609 32 628 29 L628 0 L425 0 Q424 26 419.5 45.5 Q415 65 403 92 L357 197 Q347 219 339 233 Q331 247 321 254.5 Q311 262 297.5 265 Q284 268 264 268 L237 268 L237 99 Z M394 448 Q394 482 386.5 505 Q379 528 365 542 Q347 562 320 568.5 Q293 575 258 575 L237 575 L237 314 L264 314 Q301 314 325 323.5 Q349 333 364 350 Q380 367 387 392 Q394 417 394 448 Z M282 671 L182 791 L200 808 L315 737 L430 808 L448 791 L348 671 L282 671 Z " />
<glyph glyph-name="Rcommaaccent" unicode="&#x156;" horiz-adv-x="630" d="M237 99 Q237 82 238.5 71.5 Q240 61 246.5 53.5 Q253 46 266 40.5 Q279 35 302 29 L302 0 Q291 0 273.5 0.5 Q256 1 237 1.5 Q218 2 200 2.5 Q182 3 170 3 Q153 3 134 2.5 Q115 2 96.5 1.5 Q78 1 62.5 0.5 Q47 0 38 0 L38 29 L101 48 L101 526 Q101 542 99.5 553 Q98 564 91.5 571.5 Q85 579 72 584.5 Q59 590 36 596 L36 625 L262 625 Q341 625 395.5 613.5 Q450 602 484 576 Q537 535 537 454 Q537 400 505.5 360 Q474 320 414 300 Q430 295 441 287 Q452 279 461.5 266.5 Q471 254 479 237 Q487 220 497 198 L535 110 Q544 88 552.5 73.5 Q561 59 571.5 50 Q582 41 595.5 36.5 Q609 32 628 29 L628 0 L425 0 Q424 26 419.5 45.5 Q415 65 403 92 L357 197 Q347 219 339 233 Q331 247 321 254.5 Q311 262 297.5 265 Q284 268 264 268 L237 268 L237 99 Z M394 448 Q394 482 386.5 505 Q379 528 365 542 Q347 562 320 568.5 Q293 575 258 575 L237 575 L237 314 L264 314 Q301 314 325 323.5 Q349 333 364 350 Q380 367 387 392 Q394 417 394 448 Z M409 -126 Q408 -168 385.5 -209.5 Q363 -251 309 -281 L294 -260 Q317 -241 332.5 -219.5 Q348 -198 348 -177 Q348 -161 338.5 -151 Q329 -141 318 -133 Q307 -125 297.5 -116 Q288 -107 288 -92 Q288 -73 303 -59.5 Q318 -46 342 -46 Q373 -46 391 -70 Q409 -94 409 -126 Z " />
<glyph glyph-name="Sacute" unicode="&#x15a;" horiz-adv-x="520" d="M471 181 Q471 143 456 107.5 Q441 72 412 44.5 Q383 17 340 0.5 Q297 -16 240 -16 Q194 -16 146.5 -7.5 Q99 1 64 15 L64 168 L103 168 Q107 131 119.5 105.5 Q132 80 150 64.5 Q168 49 189.5 42.5 Q211 36 234 36 Q285 36 316 62.5 Q347 89 347 134 Q347 173 325.5 197 Q304 221 272 239.5 Q240 258 202.5 275 Q165 292 133 315.5 Q101 339 79.5 373 Q58 407 58 461 Q58 501 74 534 Q90 567 119 590.5 Q148 614 188.5 627 Q229 640 278 640 Q318 640 358.5 633.5 Q399 627 435 624 Q435 612 435.5 591.5 Q436 571 437 549 Q438 527 439.5 506 Q441 485 442 470 L403 470 Q395 528 364 557.5 Q333 587 285 587 Q239 587 208.5 561.5 Q178 536 178 493 Q178 460 199.5 438.5 Q221 417 254 398.5 Q287 380 324.5 362.5 Q362 345 395 321 Q428 297 449.5 263.5 Q471 230 471 181 Z M388 743 L181 665 L171 685 L308 794 Q325 808 337 808 Q349 808 360 794 L391 756 L388 743 Z " />
<glyph glyph-name="Scircumflex" unicode="&#x15c;" horiz-adv-x="520" d="M471 181 Q471 143 456 107.5 Q441 72 412 44.5 Q383 17 340 0.5 Q297 -16 240 -16 Q194 -16 146.5 -7.5 Q99 1 64 15 L64 168 L103 168 Q107 131 119.5 105.5 Q132 80 150 64.5 Q168 49 189.5 42.5 Q211 36 234 36 Q285 36 316 62.5 Q347 89 347 134 Q347 173 325.5 197 Q304 221 272 239.5 Q240 258 202.5 275 Q165 292 133 315.5 Q101 339 79.5 373 Q58 407 58 461 Q58 501 74 534 Q90 567 119 590.5 Q148 614 188.5 627 Q229 640 278 640 Q318 640 358.5 633.5 Q399 627 435 624 Q435 612 435.5 591.5 Q436 571 437 549 Q438 527 439.5 506 Q441 485 442 470 L403 470 Q395 528 364 557.5 Q333 587 285 587 Q239 587 208.5 561.5 Q178 536 178 493 Q178 460 199.5 438.5 Q221 417 254 398.5 Q287 380 324.5 362.5 Q362 345 395 321 Q428 297 449.5 263.5 Q471 230 471 181 Z M315 805 L415 685 L397 668 L282 739 L167 668 L149 685 L249 805 L315 805 Z " />
<glyph glyph-name="Scaron" unicode="&#x160;" horiz-adv-x="520" d="M471 181 Q471 143 456 107.5 Q441 72 412 44.5 Q383 17 340 0.5 Q297 -16 240 -16 Q194 -16 146.5 -7.5 Q99 1 64 15 L64 168 L103 168 Q107 131 119.5 105.5 Q132 80 150 64.5 Q168 49 189.5 42.5 Q211 36 234 36 Q285 36 316 62.5 Q347 89 347 134 Q347 173 325.5 197 Q304 221 272 239.5 Q240 258 202.5 275 Q165 292 133 315.5 Q101 339 79.5 373 Q58 407 58 461 Q58 501 74 534 Q90 567 119 590.5 Q148 614 188.5 627 Q229 640 278 640 Q318 640 358.5 633.5 Q399 627 435 624 Q435 612 435.5 591.5 Q436 571 437 549 Q438 527 439.5 506 Q441 485 442 470 L403 470 Q395 528 364 557.5 Q333 587 285 587 Q239 587 208.5 561.5 Q178 536 178 493 Q178 460 199.5 438.5 Q221 417 254 398.5 Q287 380 324.5 362.5 Q362 345 395 321 Q428 297 449.5 263.5 Q471 230 471 181 Z M247 671 L147 791 L165 808 L280 737 L395 808 L413 791 L313 671 L247 671 Z " />
<glyph glyph-name="Scedilla" unicode="&#x15e;" horiz-adv-x="520" d="M471 181 Q471 145 458 111.5 Q445 78 419 51 Q393 24 354.5 6.5 Q316 -11 266 -15 L257 -43 Q295 -50 321.5 -70.5 Q348 -91 348 -126 Q348 -152 334 -173 Q320 -194 295.5 -208 Q271 -222 238.5 -229.5 Q206 -237 169 -236 L164 -203 Q212 -198 240.5 -178.5 Q269 -159 269 -128 Q269 -108 256.5 -98.5 Q244 -89 215 -82 Q202 -79 199.5 -75 Q197 -71 200 -61 L215 -15 Q174 -13 134.5 -4.5 Q95 4 64 15 L64 168 L103 168 Q107 131 119.5 105.5 Q132 80 150 64.5 Q168 49 189.5 42.5 Q211 36 234 36 Q287 36 317 62.5 Q347 89 347 134 Q347 173 325.5 197 Q304 221 272 239.5 Q240 258 202.5 275 Q165 292 133 315.5 Q101 339 79.5 373 Q58 407 58 461 Q58 501 74 534 Q90 567 119 590.5 Q148 614 188.5 627 Q229 640 278 640 Q318 640 358.5 633.5 Q399 627 435 624 Q435 612 435.5 591.5 Q436 571 437 549 Q438 527 439.5 506 Q441 485 442 470 L403 470 Q395 528 364 557.5 Q333 587 285 587 Q239 587 208.5 561.5 Q178 536 178 493 Q178 460 199.5 438.5 Q221 417 254 398.5 Q287 380 324.5 362.5 Q362 345 395 321 Q428 297 449.5 263.5 Q471 230 471 181 Z " />
<glyph glyph-name="Scommaaccent" unicode="&#x218;" horiz-adv-x="520" d="M471 181 Q471 143 456 107.5 Q441 72 412 44.5 Q383 17 340 0.5 Q297 -16 240 -16 Q194 -16 146.5 -7.5 Q99 1 64 15 L64 168 L103 168 Q107 131 119.5 105.5 Q132 80 150 64.5 Q168 49 189.5 42.5 Q211 36 234 36 Q285 36 316 62.5 Q347 89 347 134 Q347 173 325.5 197 Q304 221 272 239.5 Q240 258 202.5 275 Q165 292 133 315.5 Q101 339 79.5 373 Q58 407 58 461 Q58 501 74 534 Q90 567 119 590.5 Q148 614 188.5 627 Q229 640 278 640 Q318 640 358.5 633.5 Q399 627 435 624 Q435 612 435.5 591.5 Q436 571 437 549 Q438 527 439.5 506 Q441 485 442 470 L403 470 Q395 528 364 557.5 Q333 587 285 587 Q239 587 208.5 561.5 Q178 536 178 493 Q178 460 199.5 438.5 Q221 417 254 398.5 Q287 380 324.5 362.5 Q362 345 395 321 Q428 297 449.5 263.5 Q471 230 471 181 Z M322 -126 Q321 -168 298.5 -209.5 Q276 -251 222 -281 L207 -260 Q230 -241 245.5 -219.5 Q261 -198 261 -177 Q261 -161 251.5 -151 Q242 -141 231 -133 Q220 -125 210.5 -116 Q201 -107 201 -92 Q201 -73 216 -59.5 Q231 -46 255 -46 Q286 -46 304 -70 Q322 -94 322 -126 Z " />
<glyph glyph-name="Tcaron" unicode="&#x164;" horiz-adv-x="600" d="M574 625 Q574 611 574.5 588.5 Q575 566 576 542 Q577 518 578 496 Q579 474 580 461 L542 461 Q533 497 524 519 Q515 541 502 553.5 Q489 566 469 570.5 Q449 575 418 575 L368 575 L368 99 Q368 82 369.5 71.5 Q371 61 377.5 53.5 Q384 46 397 40.5 Q410 35 433 29 L433 0 Q422 0 404.5 0.5 Q387 1 368 1.5 Q349 2 331 2.5 Q313 3 301 3 Q284 3 265 2.5 Q246 2 227.5 1.5 Q209 1 193.5 0.5 Q178 0 169 0 L169 29 L232 48 L232 575 L182 575 Q151 575 131 570.5 Q111 566 98 553.5 Q85 541 76 519 Q67 497 58 461 L20 461 Q21 474 22 496 Q23 518 24 542 Q25 566 25.5 588.5 Q26 611 26 625 L574 625 Z M267 671 L167 791 L185 808 L300 737 L415 808 L433 791 L333 671 L267 671 Z " />
<glyph glyph-name="Tcommaaccent" unicode="&#x162;" horiz-adv-x="600" d="M574 625 Q574 611 574.5 588.5 Q575 566 576 542 Q577 518 578 496 Q579 474 580 461 L542 461 Q533 497 524 519 Q515 541 502 553.5 Q489 566 469 570.5 Q449 575 418 575 L368 575 L368 99 Q368 82 369.5 71.5 Q371 61 377.5 53.5 Q384 46 397 40.5 Q410 35 433 29 L433 0 Q422 0 404.5 0.5 Q387 1 368 1.5 Q349 2 331 2.5 Q313 3 301 3 Q284 3 265 2.5 Q246 2 227.5 1.5 Q209 1 193.5 0.5 Q178 0 169 0 L169 29 L232 48 L232 575 L182 575 Q151 575 131 570.5 Q111 566 98 553.5 Q85 541 76 519 Q67 497 58 461 L20 461 Q21 474 22 496 Q23 518 24 542 Q25 566 25.5 588.5 Q26 611 26 625 L574 625 Z M364 -126 Q363 -168 340.5 -209.5 Q318 -251 264 -281 L249 -260 Q272 -241 287.5 -219.5 Q303 -198 303 -177 Q303 -161 293.5 -151 Q284 -141 273 -133 Q262 -125 252.5 -116 Q243 -107 243 -92 Q243 -73 258 -59.5 Q273 -46 297 -46 Q328 -46 346 -70 Q364 -94 364 -126 Z " />
<glyph glyph-name="uni021A" unicode="&#x21a;" horiz-adv-x="600" d="M574 625 Q574 611 574.5 588.5 Q575 566 576 542 Q577 518 578 496 Q579 474 580 461 L542 461 Q533 497 524 519 Q515 541 502 553.5 Q489 566 469 570.5 Q449 575 418 575 L368 575 L368 99 Q368 82 369.5 71.5 Q371 61 377.5 53.5 Q384 46 397 40.5 Q410 35 433 29 L433 0 Q422 0 404.5 0.5 Q387 1 368 1.5 Q349 2 331 2.5 Q313 3 301 3 Q284 3 265 2.5 Q246 2 227.5 1.5 Q209 1 193.5 0.5 Q178 0 169 0 L169 29 L232 48 L232 575 L182 575 Q151 575 131 570.5 Q111 566 98 553.5 Q85 541 76 519 Q67 497 58 461 L20 461 Q21 474 22 496 Q23 518 24 542 Q25 566 25.5 588.5 Q26 611 26 625 L574 625 Z M364 -126 Q363 -168 340.5 -209.5 Q318 -251 264 -281 L249 -260 Q272 -241 287.5 -219.5 Q303 -198 303 -177 Q303 -161 293.5 -151 Q284 -141 273 -133 Q262 -125 252.5 -116 Q243 -107 243 -92 Q243 -73 258 -59.5 Q273 -46 297 -46 Q328 -46 346 -70 Q364 -94 364 -126 Z " />
<glyph glyph-name="Tbar" unicode="&#x166;" horiz-adv-x="600" d="M368 291 L368 99 Q368 82 369.5 71.5 Q371 61 377.5 53.5 Q384 46 397 40.5 Q410 35 433 29 L433 0 Q422 0 404.5 0.5 Q387 1 368 1.5 Q349 2 331 2.5 Q313 3 301 3 Q284 3 265 2.5 Q246 2 227.5 1.5 Q209 1 193.5 0.5 Q178 0 169 0 L169 29 L232 48 L232 291 L120 291 L120 345 L232 345 L232 575 L182 575 Q151 575 131 570.5 Q111 566 98 553.5 Q85 541 76 519 Q67 497 58 461 L20 461 Q21 474 22 496 Q23 518 24 542 Q25 566 25.5 588.5 Q26 611 26 625 L574 625 Q574 611 574.5 588.5 Q575 566 576 542 Q577 518 578 496 Q579 474 580 461 L542 461 Q533 497 524 519 Q515 541 502 553.5 Q489 566 469 570.5 Q449 575 418 575 L368 575 L368 345 L478 345 L478 291 L368 291 Z " />
<glyph glyph-name="Ugrave" unicode="&#xd9;" horiz-adv-x="671" d="M514 526 Q514 542 512.5 553 Q511 564 504.5 571.5 Q498 579 485 584.5 Q472 590 449 596 L449 625 Q470 624 496.5 623.5 Q523 623 546 623 Q580 623 602 623.5 Q624 624 643 625 L643 596 L580 577 L580 234 Q580 167 565 122.5 Q550 78 521 47 Q460 -16 342 -16 Q276 -16 228 3.5 Q180 23 148 56 Q118 88 104.5 133.5 Q91 179 91 236 L91 526 Q91 542 89.5 553 Q88 564 81.5 571.5 Q75 579 62 584.5 Q49 590 26 596 L26 625 Q36 625 54 624.5 Q72 624 91 623.5 Q110 623 128 622.5 Q146 622 158 622 Q175 622 194 622.5 Q213 623 231.5 623.5 Q250 624 265.5 624.5 Q281 625 290 625 L290 596 L227 577 L227 232 Q227 178 237 143.5 Q247 109 268 86 Q304 47 371 47 Q437 47 473 86 Q494 109 504 143.5 Q514 178 514 232 L514 526 Z M255 756 L286 794 Q297 808 309 808 Q321 808 338 794 L475 685 L465 665 L258 743 L255 756 Z " />
<glyph glyph-name="Uacute" unicode="&#xda;" horiz-adv-x="671" d="M514 526 Q514 542 512.5 553 Q511 564 504.5 571.5 Q498 579 485 584.5 Q472 590 449 596 L449 625 Q470 624 496.5 623.5 Q523 623 546 623 Q580 623 602 623.5 Q624 624 643 625 L643 596 L580 577 L580 234 Q580 167 565 122.5 Q550 78 521 47 Q460 -16 342 -16 Q276 -16 228 3.5 Q180 23 148 56 Q118 88 104.5 133.5 Q91 179 91 236 L91 526 Q91 542 89.5 553 Q88 564 81.5 571.5 Q75 579 62 584.5 Q49 590 26 596 L26 625 Q36 625 54 624.5 Q72 624 91 623.5 Q110 623 128 622.5 Q146 622 158 622 Q175 622 194 622.5 Q213 623 231.5 623.5 Q250 624 265.5 624.5 Q281 625 290 625 L290 596 L227 577 L227 232 Q227 178 237 143.5 Q247 109 268 86 Q304 47 371 47 Q437 47 473 86 Q494 109 504 143.5 Q514 178 514 232 L514 526 Z M482 743 L275 665 L265 685 L402 794 Q419 808 431 808 Q443 808 454 794 L485 756 L482 743 Z " />
<glyph glyph-name="Ucircumflex" unicode="&#xdb;" horiz-adv-x="671" d="M514 526 Q514 542 512.5 553 Q511 564 504.5 571.5 Q498 579 485 584.5 Q472 590 449 596 L449 625 Q470 624 496.5 623.5 Q523 623 546 623 Q580 623 602 623.5 Q624 624 643 625 L643 596 L580 577 L580 234 Q580 167 565 122.5 Q550 78 521 47 Q460 -16 342 -16 Q276 -16 228 3.5 Q180 23 148 56 Q118 88 104.5 133.5 Q91 179 91 236 L91 526 Q91 542 89.5 553 Q88 564 81.5 571.5 Q75 579 62 584.5 Q49 590 26 596 L26 625 Q36 625 54 624.5 Q72 624 91 623.5 Q110 623 128 622.5 Q146 622 158 622 Q175 622 194 622.5 Q213 623 231.5 623.5 Q250 624 265.5 624.5 Q281 625 290 625 L290 596 L227 577 L227 232 Q227 178 237 143.5 Q247 109 268 86 Q304 47 371 47 Q437 47 473 86 Q494 109 504 143.5 Q514 178 514 232 L514 526 Z M404 805 L504 685 L486 668 L371 739 L256 668 L238 685 L338 805 L404 805 Z " />
<glyph glyph-name="Utilde" unicode="&#x168;" horiz-adv-x="671" d="M514 526 Q514 542 512.5 553 Q511 564 504.5 571.5 Q498 579 485 584.5 Q472 590 449 596 L449 625 Q470 624 496.5 623.5 Q523 623 546 623 Q580 623 602 623.5 Q624 624 643 625 L643 596 L580 577 L580 234 Q580 167 565 122.5 Q550 78 521 47 Q460 -16 342 -16 Q276 -16 228 3.5 Q180 23 148 56 Q118 88 104.5 133.5 Q91 179 91 236 L91 526 Q91 542 89.5 553 Q88 564 81.5 571.5 Q75 579 62 584.5 Q49 590 26 596 L26 625 Q36 625 54 624.5 Q72 624 91 623.5 Q110 623 128 622.5 Q146 622 158 622 Q175 622 194 622.5 Q213 623 231.5 623.5 Q250 624 265.5 624.5 Q281 625 290 625 L290 596 L227 577 L227 232 Q227 178 237 143.5 Q247 109 268 86 Q304 47 371 47 Q437 47 473 86 Q494 109 504 143.5 Q514 178 514 232 L514 526 Z M513 789 Q507 733 482.5 710 Q458 687 426 687 Q409 687 392.5 693 Q376 699 360.5 705.5 Q345 712 330.5 718 Q316 724 301 724 Q270 724 259 690 L229 695 Q235 751 259.5 774 Q284 797 316 797 Q333 797 349.5 791 Q366 785 381.5 778.5 Q397 772 411.5 766 Q426 760 441 760 Q472 760 483 794 L513 789 Z " />
<glyph glyph-name="Udieresis" unicode="&#xdc;" horiz-adv-x="671" d="M514 526 Q514 542 512.5 553 Q511 564 504.5 571.5 Q498 579 485 584.5 Q472 590 449 596 L449 625 Q470 624 496.5 623.5 Q523 623 546 623 Q580 623 602 623.5 Q624 624 643 625 L643 596 L580 577 L580 234 Q580 167 565 122.5 Q550 78 521 47 Q460 -16 342 -16 Q276 -16 228 3.5 Q180 23 148 56 Q118 88 104.5 133.5 Q91 179 91 236 L91 526 Q91 542 89.5 553 Q88 564 81.5 571.5 Q75 579 62 584.5 Q49 590 26 596 L26 625 Q36 625 54 624.5 Q72 624 91 623.5 Q110 623 128 622.5 Q146 622 158 622 Q175 622 194 622.5 Q213 623 231.5 623.5 Q250 624 265.5 624.5 Q281 625 290 625 L290 596 L227 577 L227 232 Q227 178 237 143.5 Q247 109 268 86 Q304 47 371 47 Q437 47 473 86 Q494 109 504 143.5 Q514 178 514 232 L514 526 Z M230 740 Q230 763 246.5 779.5 Q263 796 286 796 Q309 796 325.5 779.5 Q342 763 342 740 Q342 717 325.5 700.5 Q309 684 286 684 Q263 684 246.5 700.5 Q230 717 230 740 Z M401 740 Q401 763 417.5 779.5 Q434 796 457 796 Q480 796 496.5 779.5 Q513 763 513 740 Q513 717 496.5 700.5 Q480 684 457 684 Q434 684 417.5 700.5 Q401 717 401 740 Z " />
<glyph glyph-name="Umacron" unicode="&#x16a;" horiz-adv-x="671" d="M514 526 Q514 542 512.5 553 Q511 564 504.5 571.5 Q498 579 485 584.5 Q472 590 449 596 L449 625 Q470 624 496.5 623.5 Q523 623 546 623 Q580 623 602 623.5 Q624 624 643 625 L643 596 L580 577 L580 234 Q580 167 565 122.5 Q550 78 521 47 Q460 -16 342 -16 Q276 -16 228 3.5 Q180 23 148 56 Q118 88 104.5 133.5 Q91 179 91 236 L91 526 Q91 542 89.5 553 Q88 564 81.5 571.5 Q75 579 62 584.5 Q49 590 26 596 L26 625 Q36 625 54 624.5 Q72 624 91 623.5 Q110 623 128 622.5 Q146 622 158 622 Q175 622 194 622.5 Q213 623 231.5 623.5 Q250 624 265.5 624.5 Q281 625 290 625 L290 596 L227 577 L227 232 Q227 178 237 143.5 Q247 109 268 86 Q304 47 371 47 Q437 47 473 86 Q494 109 504 143.5 Q514 178 514 232 L514 526 Z M247 695 L247 753 L495 753 L495 695 L247 695 Z " />
<glyph glyph-name="Ubreve" unicode="&#x16c;" horiz-adv-x="671" d="M514 526 Q514 542 512.5 553 Q511 564 504.5 571.5 Q498 579 485 584.5 Q472 590 449 596 L449 625 Q470 624 496.5 623.5 Q523 623 546 623 Q580 623 602 623.5 Q624 624 643 625 L643 596 L580 577 L580 234 Q580 167 565 122.5 Q550 78 521 47 Q460 -16 342 -16 Q276 -16 228 3.5 Q180 23 148 56 Q118 88 104.5 133.5 Q91 179 91 236 L91 526 Q91 542 89.5 553 Q88 564 81.5 571.5 Q75 579 62 584.5 Q49 590 26 596 L26 625 Q36 625 54 624.5 Q72 624 91 623.5 Q110 623 128 622.5 Q146 622 158 622 Q175 622 194 622.5 Q213 623 231.5 623.5 Q250 624 265.5 624.5 Q281 625 290 625 L290 596 L227 577 L227 232 Q227 178 237 143.5 Q247 109 268 86 Q304 47 371 47 Q437 47 473 86 Q494 109 504 143.5 Q514 178 514 232 L514 526 Z M372 676 Q315 676 284.5 709.5 Q254 743 254 798 L287 798 Q293 770 316.5 756 Q340 742 372 742 Q404 742 427.5 756 Q451 770 457 798 L490 798 Q490 743 459.5 709.5 Q429 676 372 676 Z " />
<glyph glyph-name="Uring" unicode="&#x16e;" horiz-adv-x="671" d="M514 526 Q514 542 512.5 553 Q511 564 504.5 571.5 Q498 579 485 584.5 Q472 590 449 596 L449 625 Q470 624 496.5 623.5 Q523 623 546 623 Q580 623 602 623.5 Q624 624 643 625 L643 596 L580 577 L580 234 Q580 167 565 122.5 Q550 78 521 47 Q460 -16 342 -16 Q276 -16 228 3.5 Q180 23 148 56 Q118 88 104.5 133.5 Q91 179 91 236 L91 526 Q91 542 89.5 553 Q88 564 81.5 571.5 Q75 579 62 584.5 Q49 590 26 596 L26 625 Q36 625 54 624.5 Q72 624 91 623.5 Q110 623 128 622.5 Q146 622 158 622 Q175 622 194 622.5 Q213 623 231.5 623.5 Q250 624 265.5 624.5 Q281 625 290 625 L290 596 L227 577 L227 232 Q227 178 237 143.5 Q247 109 268 86 Q304 47 371 47 Q437 47 473 86 Q494 109 504 143.5 Q514 178 514 232 L514 526 Z M328 758 Q328 738 339.5 724 Q351 710 371 710 Q391 710 402.5 724 Q414 738 414 758 Q414 778 402.5 792 Q391 806 371 806 Q351 806 339.5 792 Q328 778 328 758 Z M463 758 Q463 721 437 694.5 Q411 668 371 668 Q331 668 305 694.5 Q279 721 279 758 Q279 795 305 821.5 Q331 848 371 848 Q411 848 437 821.5 Q463 795 463 758 Z " />
<glyph glyph-name="Uhungarumlaut" unicode="&#x170;" horiz-adv-x="671" d="M514 526 Q514 542 512.5 553 Q511 564 504.5 571.5 Q498 579 485 584.5 Q472 590 449 596 L449 625 Q470 624 496.5 623.5 Q523 623 546 623 Q580 623 602 623.5 Q624 624 643 625 L643 596 L580 577 L580 234 Q580 167 565 122.5 Q550 78 521 47 Q460 -16 342 -16 Q276 -16 228 3.5 Q180 23 148 56 Q118 88 104.5 133.5 Q91 179 91 236 L91 526 Q91 542 89.5 553 Q88 564 81.5 571.5 Q75 579 62 584.5 Q49 590 26 596 L26 625 Q36 625 54 624.5 Q72 624 91 623.5 Q110 623 128 622.5 Q146 622 158 622 Q175 622 194 622.5 Q213 623 231.5 623.5 Q250 624 265.5 624.5 Q281 625 290 625 L290 596 L227 577 L227 232 Q227 178 237 143.5 Q247 109 268 86 Q304 47 371 47 Q437 47 473 86 Q494 109 504 143.5 Q514 178 514 232 L514 526 Z M377 745 L202 665 L191 681 L302 790 Q310 797 316 801.5 Q322 806 329 806 Q338 806 350 793 L379 757 L377 745 Z M550 745 L375 665 L364 681 L475 790 Q483 797 489 801.5 Q495 806 502 806 Q511 806 523 793 L552 757 L550 745 Z " />
<glyph glyph-name="Uogonek" unicode="&#x172;" horiz-adv-x="671" d="M227 232 Q227 178 237 143.5 Q247 109 268 86 Q304 47 371 47 Q437 47 473 86 Q494 109 504 143.5 Q514 178 514 232 L514 526 Q514 542 512.5 553 Q511 564 504.5 571.5 Q498 579 485 584.5 Q472 590 449 596 L449 625 Q470 624 496.5 623.5 Q523 623 546 623 Q572 623 598 623.5 Q624 624 643 625 L643 595 L580 576 L580 227 Q580 192 576.5 165 Q573 138 566 117 Q559 96 547.5 79 Q536 62 521 47 Q492 18 471 -4.5 Q450 -27 436 -47 Q422 -67 415.5 -86 Q409 -105 409 -126 Q409 -155 424.5 -169 Q440 -183 464 -183 Q478 -183 492 -180.5 Q506 -178 518 -173 L529 -205 Q512 -216 486.5 -223.5 Q461 -231 435 -231 Q388 -231 359 -205 Q330 -179 330 -135 Q330 -104 346.5 -72 Q363 -40 389 -13 Q366 -16 342 -16 Q276 -16 228 3.5 Q180 23 148 56 Q118 88 104.5 133.5 Q91 179 91 236 L91 526 Q91 542 89.5 553 Q88 564 81.5 571.5 Q75 579 62 584.5 Q49 590 26 596 L26 625 Q36 625 54 624.5 Q72 624 91 623.5 Q110 623 128 622.5 Q146 622 158 622 Q175 622 194 622.5 Q213 623 231.5 623.5 Q250 624 265.5 624.5 Q281 625 290 625 L290 596 L227 577 L227 232 Z " />
<glyph glyph-name="Wgrave" unicode="&#x1e80;" horiz-adv-x="936" d="M677 -1 L607 -1 L477 376 L340 -1 L268 -1 L78 522 Q71 541 63.5 553.5 Q56 566 46 573.5 Q36 581 22.5 586 Q9 591 -10 596 L-10 625 Q-4 625 13.5 624.5 Q31 624 52 623.5 Q73 623 93 622.5 Q113 622 124 622 Q137 622 156 622.5 Q175 623 194.5 623.5 Q214 624 231 624.5 Q248 625 258 625 L258 596 L196 579 L340 178 L445 470 L421 538 Q416 553 410.5 562.5 Q405 572 397.5 578 Q390 584 379 588 Q368 592 351 596 L351 625 Q385 623 417 622.5 Q449 622 478 622 Q490 622 506.5 622 Q523 622 540.5 622.5 Q558 623 575.5 623.5 Q593 624 608 625 L608 596 L542 579 L674 178 L806 579 L750 596 L750 625 Q773 624 801.5 623 Q830 622 854 622 Q874 622 897 622.5 Q920 623 942 625 L942 596 Q922 593 908.5 589.5 Q895 586 885.5 579.5 Q876 573 869.5 562.5 Q863 552 857 535 L677 -1 Z M368 756 L399 794 Q410 808 422 808 Q434 808 451 794 L588 685 L578 665 L371 743 L368 756 Z " />
<glyph glyph-name="Wacute" unicode="&#x1e82;" horiz-adv-x="936" d="M677 -1 L607 -1 L477 376 L340 -1 L268 -1 L78 522 Q71 541 63.5 553.5 Q56 566 46 573.5 Q36 581 22.5 586 Q9 591 -10 596 L-10 625 Q-4 625 13.5 624.5 Q31 624 52 623.5 Q73 623 93 622.5 Q113 622 124 622 Q137 622 156 622.5 Q175 623 194.5 623.5 Q214 624 231 624.5 Q248 625 258 625 L258 596 L196 579 L340 178 L445 470 L421 538 Q416 553 410.5 562.5 Q405 572 397.5 578 Q390 584 379 588 Q368 592 351 596 L351 625 Q385 623 417 622.5 Q449 622 478 622 Q490 622 506.5 622 Q523 622 540.5 622.5 Q558 623 575.5 623.5 Q593 624 608 625 L608 596 L542 579 L674 178 L806 579 L750 596 L750 625 Q773 624 801.5 623 Q830 622 854 622 Q874 622 897 622.5 Q920 623 942 625 L942 596 Q922 593 908.5 589.5 Q895 586 885.5 579.5 Q876 573 869.5 562.5 Q863 552 857 535 L677 -1 Z M605 743 L398 665 L388 685 L525 794 Q542 808 554 808 Q566 808 577 794 L608 756 L605 743 Z " />
<glyph glyph-name="Wcircumflex" unicode="&#x174;" horiz-adv-x="936" d="M677 -1 L607 -1 L477 376 L340 -1 L268 -1 L78 522 Q71 541 63.5 553.5 Q56 566 46 573.5 Q36 581 22.5 586 Q9 591 -10 596 L-10 625 Q-4 625 13.5 624.5 Q31 624 52 623.5 Q73 623 93 622.5 Q113 622 124 622 Q137 622 156 622.5 Q175 623 194.5 623.5 Q214 624 231 624.5 Q248 625 258 625 L258 596 L196 579 L340 178 L445 470 L421 538 Q416 553 410.5 562.5 Q405 572 397.5 578 Q390 584 379 588 Q368 592 351 596 L351 625 Q385 623 417 622.5 Q449 622 478 622 Q490 622 506.5 622 Q523 622 540.5 622.5 Q558 623 575.5 623.5 Q593 624 608 625 L608 596 L542 579 L674 178 L806 579 L750 596 L750 625 Q773 624 801.5 623 Q830 622 854 622 Q874 622 897 622.5 Q920 623 942 625 L942 596 Q922 593 908.5 589.5 Q895 586 885.5 579.5 Q876 573 869.5 562.5 Q863 552 857 535 L677 -1 Z M511 805 L611 685 L593 668 L478 739 L363 668 L345 685 L445 805 L511 805 Z " />
<glyph glyph-name="Wdieresis" unicode="&#x1e84;" horiz-adv-x="936" d="M677 -1 L607 -1 L477 376 L340 -1 L268 -1 L78 522 Q71 541 63.5 553.5 Q56 566 46 573.5 Q36 581 22.5 586 Q9 591 -10 596 L-10 625 Q-4 625 13.5 624.5 Q31 624 52 623.5 Q73 623 93 622.5 Q113 622 124 622 Q137 622 156 622.5 Q175 623 194.5 623.5 Q214 624 231 624.5 Q248 625 258 625 L258 596 L196 579 L340 178 L445 470 L421 538 Q416 553 410.5 562.5 Q405 572 397.5 578 Q390 584 379 588 Q368 592 351 596 L351 625 Q385 623 417 622.5 Q449 622 478 622 Q490 622 506.5 622 Q523 622 540.5 622.5 Q558 623 575.5 623.5 Q593 624 608 625 L608 596 L542 579 L674 178 L806 579 L750 596 L750 625 Q773 624 801.5 623 Q830 622 854 622 Q874 622 897 622.5 Q920 623 942 625 L942 596 Q922 593 908.5 589.5 Q895 586 885.5 579.5 Q876 573 869.5 562.5 Q863 552 857 535 L677 -1 Z M338 740 Q338 763 354.5 779.5 Q371 796 394 796 Q417 796 433.5 779.5 Q450 763 450 740 Q450 717 433.5 700.5 Q417 684 394 684 Q371 684 354.5 700.5 Q338 717 338 740 Z M509 740 Q509 763 525.5 779.5 Q542 796 565 796 Q588 796 604.5 779.5 Q621 763 621 740 Q621 717 604.5 700.5 Q588 684 565 684 Q542 684 525.5 700.5 Q509 717 509 740 Z " />
<glyph glyph-name="Ygrave" unicode="&#x1ef2;" horiz-adv-x="589" d="M367 247 L367 99 Q367 82 368.5 71.5 Q370 61 376.5 53.5 Q383 46 396 40.5 Q409 35 432 29 L432 0 Q421 0 403.5 0.5 Q386 1 367 1.5 Q348 2 330 2.5 Q312 3 300 3 Q283 3 264 2.5 Q245 2 226.5 1.5 Q208 1 192.5 0.5 Q177 0 168 0 L168 29 L231 48 L231 245 L83 522 Q73 540 65 552 Q57 564 47.5 572.5 Q38 581 25 586 Q12 591 -7 596 L-7 625 Q-1 625 16.5 624.5 Q34 624 55 623.5 Q76 623 96 622.5 Q116 622 127 622 Q140 622 159 622.5 Q178 623 197.5 623.5 Q217 624 234.5 624.5 Q252 625 262 625 L262 596 L200 579 L335 321 L457 579 L402 596 L402 625 Q425 624 453 623 Q481 622 505 622 Q548 622 592 625 L592 596 Q572 593 558.5 589.5 Q545 586 535.5 579 Q526 572 518.5 561.5 Q511 551 503 534 L367 247 Z M214 756 L245 794 Q256 808 268 808 Q280 808 297 794 L434 685 L424 665 L217 743 L214 756 Z " />
<glyph glyph-name="Yacute" unicode="&#xdd;" horiz-adv-x="589" d="M367 247 L367 99 Q367 82 368.5 71.5 Q370 61 376.5 53.5 Q383 46 396 40.5 Q409 35 432 29 L432 0 Q421 0 403.5 0.5 Q386 1 367 1.5 Q348 2 330 2.5 Q312 3 300 3 Q283 3 264 2.5 Q245 2 226.5 1.5 Q208 1 192.5 0.5 Q177 0 168 0 L168 29 L231 48 L231 245 L83 522 Q73 540 65 552 Q57 564 47.5 572.5 Q38 581 25 586 Q12 591 -7 596 L-7 625 Q-1 625 16.5 624.5 Q34 624 55 623.5 Q76 623 96 622.5 Q116 622 127 622 Q140 622 159 622.5 Q178 623 197.5 623.5 Q217 624 234.5 624.5 Q252 625 262 625 L262 596 L200 579 L335 321 L457 579 L402 596 L402 625 Q425 624 453 623 Q481 622 505 622 Q548 622 592 625 L592 596 Q572 593 558.5 589.5 Q545 586 535.5 579 Q526 572 518.5 561.5 Q511 551 503 534 L367 247 Z M447 743 L240 665 L230 685 L367 794 Q384 808 396 808 Q408 808 419 794 L450 756 L447 743 Z " />
<glyph glyph-name="Ycircumflex" unicode="&#x176;" horiz-adv-x="589" d="M367 247 L367 99 Q367 82 368.5 71.5 Q370 61 376.5 53.5 Q383 46 396 40.5 Q409 35 432 29 L432 0 Q421 0 403.5 0.5 Q386 1 367 1.5 Q348 2 330 2.5 Q312 3 300 3 Q283 3 264 2.5 Q245 2 226.5 1.5 Q208 1 192.5 0.5 Q177 0 168 0 L168 29 L231 48 L231 245 L83 522 Q73 540 65 552 Q57 564 47.5 572.5 Q38 581 25 586 Q12 591 -7 596 L-7 625 Q-1 625 16.5 624.5 Q34 624 55 623.5 Q76 623 96 622.5 Q116 622 127 622 Q140 622 159 622.5 Q178 623 197.5 623.5 Q217 624 234.5 624.5 Q252 625 262 625 L262 596 L200 579 L335 321 L457 579 L402 596 L402 625 Q425 624 453 623 Q481 622 505 622 Q548 622 592 625 L592 596 Q572 593 558.5 589.5 Q545 586 535.5 579 Q526 572 518.5 561.5 Q511 551 503 534 L367 247 Z M367 805 L467 685 L449 668 L334 739 L219 668 L201 685 L301 805 L367 805 Z " />
<glyph glyph-name="Ydieresis" unicode="&#x178;" horiz-adv-x="589" d="M367 247 L367 99 Q367 82 368.5 71.5 Q370 61 376.5 53.5 Q383 46 396 40.5 Q409 35 432 29 L432 0 Q421 0 403.5 0.5 Q386 1 367 1.5 Q348 2 330 2.5 Q312 3 300 3 Q283 3 264 2.5 Q245 2 226.5 1.5 Q208 1 192.5 0.5 Q177 0 168 0 L168 29 L231 48 L231 245 L83 522 Q73 540 65 552 Q57 564 47.5 572.5 Q38 581 25 586 Q12 591 -7 596 L-7 625 Q-1 625 16.5 624.5 Q34 624 55 623.5 Q76 623 96 622.5 Q116 622 127 622 Q140 622 159 622.5 Q178 623 197.5 623.5 Q217 624 234.5 624.5 Q252 625 262 625 L262 596 L200 579 L335 321 L457 579 L402 596 L402 625 Q425 624 453 623 Q481 622 505 622 Q548 622 592 625 L592 596 Q572 593 558.5 589.5 Q545 586 535.5 579 Q526 572 518.5 561.5 Q511 551 503 534 L367 247 Z M193 740 Q193 763 209.5 779.5 Q226 796 249 796 Q272 796 288.5 779.5 Q305 763 305 740 Q305 717 288.5 700.5 Q272 684 249 684 Q226 684 209.5 700.5 Q193 717 193 740 Z M364 740 Q364 763 380.5 779.5 Q397 796 420 796 Q443 796 459.5 779.5 Q476 763 476 740 Q476 717 459.5 700.5 Q443 684 420 684 Q397 684 380.5 700.5 Q364 717 364 740 Z " />
<glyph glyph-name="Zacute" unicode="&#x179;" horiz-adv-x="569" d="M521 164 Q520 146 519 124 Q518 102 517 79 Q516 56 515.5 35.5 Q515 15 515 0 L46 0 L46 36 L361 574 L140 574 L93 467 L59 467 Q60 479 61 499.5 Q62 520 62.5 543 Q63 566 63.5 588 Q64 610 64 625 L519 625 L519 589 L202 51 L367 51 Q397 51 417 57.5 Q437 64 450.5 78 Q464 92 472 113 Q480 134 485 164 L521 164 L521 164 Z M411 743 L204 665 L194 685 L331 794 Q348 808 360 808 Q372 808 383 794 L414 756 L411 743 Z " />
<glyph glyph-name="Zcaron" unicode="&#x17d;" horiz-adv-x="569" d="M521 164 Q520 146 519 124 Q518 102 517 79 Q516 56 515.5 35.5 Q515 15 515 0 L46 0 L46 36 L361 574 L140 574 L93 467 L59 467 Q60 479 61 499.5 Q62 520 62.5 543 Q63 566 63.5 588 Q64 610 64 625 L519 625 L519 589 L202 51 L367 51 Q397 51 417 57.5 Q437 64 450.5 78 Q464 92 472 113 Q480 134 485 164 L521 164 L521 164 Z M271 671 L171 791 L189 808 L304 737 L419 808 L437 791 L337 671 L271 671 Z " />
<glyph glyph-name="Zdotaccent" unicode="&#x17b;" horiz-adv-x="569" d="M521 164 Q520 146 519 124 Q518 102 517 79 Q516 56 515.5 35.5 Q515 15 515 0 L46 0 L46 36 L361 574 L140 574 L93 467 L59 467 Q60 479 61 499.5 Q62 520 62.5 543 Q63 566 63.5 588 Q64 610 64 625 L519 625 L519 589 L202 51 L367 51 Q397 51 417 57.5 Q437 64 450.5 78 Q464 92 472 113 Q480 134 485 164 L521 164 L521 164 Z M238 747 Q238 773 257 792 Q276 811 302 811 Q328 811 347 792 Q366 773 366 747 Q366 721 347 702 Q328 683 302 683 Q276 683 257 702 Q238 721 238 747 Z " />
<glyph glyph-name="agrave" unicode="&#xe0;" horiz-adv-x="480" d="M467 22 Q447 6 419.5 -3.5 Q392 -13 362 -13 Q329 -13 310 -1 Q291 11 284 29 Q263 8 233 -4 Q203 -16 171 -16 Q108 -16 69.5 21.5 Q31 59 31 122 Q31 198 95 237.5 Q159 277 278 277 L278 304 Q278 325 274 343 Q270 361 259 373 Q241 394 208 394 Q175 394 148 372.5 Q121 351 104 311 L58 329 Q77 385 123.5 422.5 Q170 460 244 460 Q283 460 315.5 449 Q348 438 368 415 Q388 392 397.5 362 Q407 332 407 285 L407 86 Q407 67 413 57 Q419 47 435 47 Q450 47 467 55 L467 22 Z M218 46 Q234 46 250.5 53.5 Q267 61 278 72 L278 232 Q219 232 188.5 206.5 Q158 181 158 128 Q158 96 171.5 71 Q185 46 218 46 Z M137 596 L169 635 Q181 649 193 649 Q205 649 220 634 L351 510 L337 491 L138 583 L137 596 Z " />
<glyph glyph-name="aacute" unicode="&#xe1;" horiz-adv-x="480" d="M467 22 Q447 6 419.5 -3.5 Q392 -13 362 -13 Q329 -13 310 -1 Q291 11 284 29 Q263 8 233 -4 Q203 -16 171 -16 Q108 -16 69.5 21.5 Q31 59 31 122 Q31 198 95 237.5 Q159 277 278 277 L278 304 Q278 325 274 343 Q270 361 259 373 Q241 394 208 394 Q175 394 148 372.5 Q121 351 104 311 L58 329 Q77 385 123.5 422.5 Q170 460 244 460 Q283 460 315.5 449 Q348 438 368 415 Q388 392 397.5 362 Q407 332 407 285 L407 86 Q407 67 413 57 Q419 47 435 47 Q450 47 467 55 L467 22 Z M218 46 Q234 46 250.5 53.5 Q267 61 278 72 L278 232 Q219 232 188.5 206.5 Q158 181 158 128 Q158 96 171.5 71 Q185 46 218 46 Z M350 583 L151 491 L137 510 L268 634 Q283 649 295 649 Q307 649 319 635 L351 596 L350 583 Z " />
<glyph glyph-name="acircumflex" unicode="&#xe2;" horiz-adv-x="480" d="M467 22 Q447 6 419.5 -3.5 Q392 -13 362 -13 Q329 -13 310 -1 Q291 11 284 29 Q263 8 233 -4 Q203 -16 171 -16 Q108 -16 69.5 21.5 Q31 59 31 122 Q31 198 95 237.5 Q159 277 278 277 L278 304 Q278 325 274 343 Q270 361 259 373 Q241 394 208 394 Q175 394 148 372.5 Q121 351 104 311 L58 329 Q77 385 123.5 422.5 Q170 460 244 460 Q283 460 315.5 449 Q348 438 368 415 Q388 392 397.5 362 Q407 332 407 285 L407 86 Q407 67 413 57 Q419 47 435 47 Q450 47 467 55 L467 22 Z M218 46 Q234 46 250.5 53.5 Q267 61 278 72 L278 232 Q219 232 188.5 206.5 Q158 181 158 128 Q158 96 171.5 71 Q185 46 218 46 Z M273 651 L371 509 L346 497 L240 583 L134 497 L109 509 L207 651 L273 651 Z " />
<glyph glyph-name="atilde" unicode="&#xe3;" horiz-adv-x="480" d="M467 22 Q447 6 419.5 -3.5 Q392 -13 362 -13 Q329 -13 310 -1 Q291 11 284 29 Q263 8 233 -4 Q203 -16 171 -16 Q108 -16 69.5 21.5 Q31 59 31 122 Q31 198 95 237.5 Q159 277 278 277 L278 304 Q278 325 274 343 Q270 361 259 373 Q241 394 208 394 Q175 394 148 372.5 Q121 351 104 311 L58 329 Q77 385 123.5 422.5 Q170 460 244 460 Q283 460 315.5 449 Q348 438 368 415 Q388 392 397.5 362 Q407 332 407 285 L407 86 Q407 67 413 57 Q419 47 435 47 Q450 47 467 55 L467 22 Z M218 46 Q234 46 250.5 53.5 Q267 61 278 72 L278 232 Q219 232 188.5 206.5 Q158 181 158 128 Q158 96 171.5 71 Q185 46 218 46 Z M382 623 Q376 567 351.5 543 Q327 519 295 519 Q278 519 261.5 525 Q245 531 229.5 537.5 Q214 544 199.5 550 Q185 556 170 556 Q140 556 128 520 L98 525 Q104 581 128.5 605 Q153 629 185 629 Q202 629 218.5 623 Q235 617 250.5 610.5 Q266 604 280.5 598 Q295 592 310 592 Q340 592 352 628 L382 623 Z " />
<glyph glyph-name="adieresis" unicode="&#xe4;" horiz-adv-x="480" d="M467 22 Q447 6 419.5 -3.5 Q392 -13 362 -13 Q329 -13 310 -1 Q291 11 284 29 Q263 8 233 -4 Q203 -16 171 -16 Q108 -16 69.5 21.5 Q31 59 31 122 Q31 198 95 237.5 Q159 277 278 277 L278 304 Q278 325 274 343 Q270 361 259 373 Q241 394 208 394 Q175 394 148 372.5 Q121 351 104 311 L58 329 Q77 385 123.5 422.5 Q170 460 244 460 Q283 460 315.5 449 Q348 438 368 415 Q388 392 397.5 362 Q407 332 407 285 L407 86 Q407 67 413 57 Q419 47 435 47 Q450 47 467 55 L467 22 Z M218 46 Q234 46 250.5 53.5 Q267 61 278 72 L278 232 Q219 232 188.5 206.5 Q158 181 158 128 Q158 96 171.5 71 Q185 46 218 46 Z M98 575 Q98 598 114.5 614.5 Q131 631 154 631 Q177 631 193.5 614.5 Q210 598 210 575 Q210 552 193.5 535.5 Q177 519 154 519 Q131 519 114.5 535.5 Q98 552 98 575 Z M269 575 Q269 598 285.5 614.5 Q302 631 325 631 Q348 631 364.5 614.5 Q381 598 381 575 Q381 552 364.5 535.5 Q348 519 325 519 Q302 519 285.5 535.5 Q269 552 269 575 Z " />
<glyph glyph-name="amacron" unicode="&#x101;" horiz-adv-x="480" d="M467 22 Q447 6 419.5 -3.5 Q392 -13 362 -13 Q329 -13 310 -1 Q291 11 284 29 Q263 8 233 -4 Q203 -16 171 -16 Q108 -16 69.5 21.5 Q31 59 31 122 Q31 198 95 237.5 Q159 277 278 277 L278 304 Q278 325 274 343 Q270 361 259 373 Q241 394 208 394 Q175 394 148 372.5 Q121 351 104 311 L58 329 Q77 385 123.5 422.5 Q170 460 244 460 Q283 460 315.5 449 Q348 438 368 415 Q388 392 397.5 362 Q407 332 407 285 L407 86 Q407 67 413 57 Q419 47 435 47 Q450 47 467 55 L467 22 Z M218 46 Q234 46 250.5 53.5 Q267 61 278 72 L278 232 Q219 232 188.5 206.5 Q158 181 158 128 Q158 96 171.5 71 Q185 46 218 46 Z M116 528 L116 586 L364 586 L364 528 L116 528 Z " />
<glyph glyph-name="abreve" unicode="&#x103;" horiz-adv-x="480" d="M467 22 Q447 6 419.5 -3.5 Q392 -13 362 -13 Q329 -13 310 -1 Q291 11 284 29 Q263 8 233 -4 Q203 -16 171 -16 Q108 -16 69.5 21.5 Q31 59 31 122 Q31 198 95 237.5 Q159 277 278 277 L278 304 Q278 325 274 343 Q270 361 259 373 Q241 394 208 394 Q175 394 148 372.5 Q121 351 104 311 L58 329 Q77 385 123.5 422.5 Q170 460 244 460 Q283 460 315.5 449 Q348 438 368 415 Q388 392 397.5 362 Q407 332 407 285 L407 86 Q407 67 413 57 Q419 47 435 47 Q450 47 467 55 L467 22 Z M218 46 Q234 46 250.5 53.5 Q267 61 278 72 L278 232 Q219 232 188.5 206.5 Q158 181 158 128 Q158 96 171.5 71 Q185 46 218 46 Z M240 511 Q183 511 152.5 544.5 Q122 578 122 633 L155 633 Q161 605 184.5 591 Q208 577 240 577 Q272 577 295.5 591 Q319 605 325 633 L358 633 Q358 578 327.5 544.5 Q297 511 240 511 Z " />
<glyph glyph-name="acaron" unicode="&#x1ce;" horiz-adv-x="480" d="M467 22 Q447 6 419.5 -3.5 Q392 -13 362 -13 Q329 -13 310 -1 Q291 11 284 29 Q263 8 233 -4 Q203 -16 171 -16 Q108 -16 69.5 21.5 Q31 59 31 122 Q31 198 95 237.5 Q159 277 278 277 L278 304 Q278 325 274 343 Q270 361 259 373 Q241 394 208 394 Q175 394 148 372.5 Q121 351 104 311 L58 329 Q77 385 123.5 422.5 Q170 460 244 460 Q283 460 315.5 449 Q348 438 368 415 Q388 392 397.5 362 Q407 332 407 285 L407 86 Q407 67 413 57 Q419 47 435 47 Q450 47 467 55 L467 22 Z M218 46 Q234 46 250.5 53.5 Q267 61 278 72 L278 232 Q219 232 188.5 206.5 Q158 181 158 128 Q158 96 171.5 71 Q185 46 218 46 Z M207 497 L109 639 L134 651 L240 565 L346 651 L371 639 L273 497 L207 497 Z " />
<glyph glyph-name="aring" unicode="&#xe5;" horiz-adv-x="480" d="M467 22 Q447 6 419.5 -3.5 Q392 -13 362 -13 Q329 -13 310 -1 Q291 11 284 29 Q263 8 233 -4 Q203 -16 171 -16 Q108 -16 69.5 21.5 Q31 59 31 122 Q31 198 95 237.5 Q159 277 278 277 L278 304 Q278 325 274 343 Q270 361 259 373 Q241 394 208 394 Q175 394 148 372.5 Q121 351 104 311 L58 329 Q77 385 123.5 422.5 Q170 460 244 460 Q283 460 315.5 449 Q348 438 368 415 Q388 392 397.5 362 Q407 332 407 285 L407 86 Q407 67 413 57 Q419 47 435 47 Q450 47 467 55 L467 22 Z M218 46 Q234 46 250.5 53.5 Q267 61 278 72 L278 232 Q219 232 188.5 206.5 Q158 181 158 128 Q158 96 171.5 71 Q185 46 218 46 Z M197 590 Q197 570 208.5 556 Q220 542 240 542 Q260 542 271.5 556 Q283 570 283 590 Q283 610 271.5 624 Q260 638 240 638 Q220 638 208.5 624 Q197 610 197 590 Z M332 590 Q332 553 306 526.5 Q280 500 240 500 Q200 500 174 526.5 Q148 553 148 590 Q148 627 174 653.5 Q200 680 240 680 Q280 680 306 653.5 Q332 627 332 590 Z " />
<glyph glyph-name="aringacute" unicode="&#x1fb;" horiz-adv-x="480" d="M467 22 Q447 6 419.5 -3.5 Q392 -13 362 -13 Q329 -13 310 -1 Q291 11 284 29 Q263 8 233 -4 Q203 -16 171 -16 Q108 -16 69.5 21.5 Q31 59 31 122 Q31 198 95 237.5 Q159 277 278 277 L278 304 Q278 325 274 343 Q270 361 259 373 Q241 394 208 394 Q175 394 148 372.5 Q121 351 104 311 L58 329 Q77 385 123.5 422.5 Q170 460 244 460 Q283 460 315.5 449 Q348 438 368 415 Q388 392 397.5 362 Q407 332 407 285 L407 86 Q407 67 413 57 Q419 47 435 47 Q450 47 467 55 L467 22 Z M218 46 Q234 46 250.5 53.5 Q267 61 278 72 L278 232 Q219 232 188.5 206.5 Q158 181 158 128 Q158 96 171.5 71 Q185 46 218 46 Z M197 590 Q197 570 208.5 556 Q220 542 240 542 Q260 542 271.5 556 Q283 570 283 590 Q283 610 271.5 624 Q260 638 240 638 Q220 638 208.5 624 Q197 610 197 590 Z M332 590 Q332 553 306 526.5 Q280 500 240 500 Q200 500 174 526.5 Q148 553 148 590 Q148 627 174 653.5 Q200 680 240 680 Q280 680 306 653.5 Q332 627 332 590 Z M346 769 L147 677 L133 696 L264 820 Q279 835 291 835 Q303 835 315 821 L347 782 L346 769 Z " />
<glyph glyph-name="aogonek" unicode="&#x105;" horiz-adv-x="480" d="M473 -205 Q456 -216 430.5 -223.5 Q405 -231 379 -231 Q331 -231 302 -204.5 Q273 -178 273 -133 Q273 -97 294.5 -66.5 Q316 -36 348 -12 Q322 -10 306 1 Q290 12 284 29 Q263 8 233 -4 Q203 -16 171 -16 Q108 -16 69.5 21.5 Q31 59 31 122 Q31 198 95 237.5 Q159 277 278 277 L278 304 Q278 325 274 343 Q270 361 259 373 Q241 394 208 394 Q175 394 148 372.5 Q121 351 104 311 L58 329 Q77 385 123.5 422.5 Q170 460 244 460 Q283 460 315.5 449 Q348 438 368 415 Q388 392 397.5 362 Q407 332 407 285 L407 86 Q407 67 413 57 Q419 47 435 47 Q450 47 467 55 L467 22 Q414 -6 383.5 -41.5 Q353 -77 353 -123 Q353 -152 368.5 -167.5 Q384 -183 410 -183 Q424 -183 437 -180.5 Q450 -178 462 -173 L473 -205 Z M218 46 Q234 46 250.5 53.5 Q267 61 278 72 L278 232 Q219 232 188.5 206.5 Q158 181 158 128 Q158 96 171.5 71 Q185 46 218 46 Z " />
<glyph glyph-name="ae" unicode="&#xe6;" horiz-adv-x="713" d="M675 101 Q652 49 603 16.5 Q554 -16 488 -16 Q439 -16 401.5 0 Q364 16 338 45 Q312 16 274.5 0 Q237 -16 190 -16 Q158 -16 129.5 -7.5 Q101 1 79 18 Q57 35 44 61 Q31 87 31 122 Q31 198 95 237.5 Q159 277 278 277 L278 304 Q278 325 274 343 Q270 361 259 373 Q241 394 208 394 Q175 394 148 372.5 Q121 351 104 311 L58 329 Q77 385 123.5 422.5 Q170 460 244 460 Q282 460 313 449.5 Q344 439 365 418 Q418 460 493 460 Q578 460 628.5 407 Q679 354 679 258 Q679 251 679 242 Q679 233 678 225 L410 225 Q410 141 441 98.5 Q472 56 524 56 Q561 56 590 75 Q619 94 639 124 L675 101 Z M234 46 Q257 46 277.5 55.5 Q298 65 312 81 Q295 111 286.5 147 Q278 183 278 223 L278 232 Q224 232 191 207.5 Q158 183 158 130 Q158 90 179.5 68 Q201 46 234 46 Z M568 273 Q567 336 547.5 371 Q528 406 492 406 Q456 406 435.5 369 Q415 332 411 273 L568 273 Z " />
<glyph glyph-name="aeacute" unicode="&#x1fd;" horiz-adv-x="713" d="M675 101 Q652 49 603 16.5 Q554 -16 488 -16 Q439 -16 401.5 0 Q364 16 338 45 Q312 16 274.5 0 Q237 -16 190 -16 Q158 -16 129.5 -7.5 Q101 1 79 18 Q57 35 44 61 Q31 87 31 122 Q31 198 95 237.5 Q159 277 278 277 L278 304 Q278 325 274 343 Q270 361 259 373 Q241 394 208 394 Q175 394 148 372.5 Q121 351 104 311 L58 329 Q77 385 123.5 422.5 Q170 460 244 460 Q282 460 313 449.5 Q344 439 365 418 Q418 460 493 460 Q578 460 628.5 407 Q679 354 679 258 Q679 251 679 242 Q679 233 678 225 L410 225 Q410 141 441 98.5 Q472 56 524 56 Q561 56 590 75 Q619 94 639 124 L675 101 Z M234 46 Q257 46 277.5 55.5 Q298 65 312 81 Q295 111 286.5 147 Q278 183 278 223 L278 232 Q224 232 191 207.5 Q158 183 158 130 Q158 90 179.5 68 Q201 46 234 46 Z M568 273 Q567 336 547.5 371 Q528 406 492 406 Q456 406 435.5 369 Q415 332 411 273 L568 273 Z M492 583 L293 491 L279 510 L410 634 Q425 649 437 649 Q449 649 461 635 L493 596 L492 583 Z " />
<glyph glyph-name="cacute" unicode="&#x107;" horiz-adv-x="445" d="M423 99 Q399 48 350.5 16 Q302 -16 236 -16 Q188 -16 149.5 0.5 Q111 17 84.5 47.5 Q58 78 43.5 121.5 Q29 165 29 218 Q29 276 46 321 Q63 366 93 396 Q157 460 267 460 Q302 460 334.5 455 Q367 450 397 445 Q397 430 397.5 410 Q398 390 398.5 369 Q399 348 399.5 328 Q400 308 401 294 L367 294 Q362 347 339 377 Q316 407 273 407 Q244 407 223 393.5 Q202 380 188.5 356 Q175 332 168.5 299.5 Q162 267 162 230 Q162 142 193.5 99 Q225 56 276 56 Q311 56 338.5 74.5 Q366 93 386 122 L423 99 Z M368 583 L169 491 L155 510 L286 634 Q301 649 313 649 Q325 649 337 635 L369 596 L368 583 Z " />
<glyph glyph-name="ccedilla" unicode="&#xe7;" horiz-adv-x="445" d="M345 -126 Q345 -152 331 -173 Q317 -194 292.5 -208 Q268 -222 235.5 -229.5 Q203 -237 166 -236 L161 -203 Q209 -198 237.5 -178.5 Q266 -159 266 -128 Q266 -108 253.5 -98.5 Q241 -89 212 -82 Q199 -79 196.5 -75 Q194 -71 197 -61 L212 -15 Q126 -7 77.5 55.5 Q29 118 29 218 Q29 276 46 321 Q63 366 93 396 Q157 460 267 460 Q302 460 334.5 455 Q367 450 397 445 Q397 430 397.5 410 Q398 390 398.5 369 Q399 348 399.5 328 Q400 308 401 294 L367 294 Q362 347 339 377 Q316 407 273 407 Q244 407 223 393.5 Q202 380 188.5 356 Q175 332 168.5 299.5 Q162 267 162 230 Q162 142 193.5 99 Q225 56 276 56 Q311 56 338.5 74.5 Q366 93 386 122 L423 99 Q401 53 360.5 22.5 Q320 -8 263 -14 L254 -43 Q292 -50 318.5 -70.5 Q345 -91 345 -126 Z " />
<glyph glyph-name="ccircumflex" unicode="&#x109;" horiz-adv-x="445" d="M423 99 Q399 48 350.5 16 Q302 -16 236 -16 Q188 -16 149.5 0.5 Q111 17 84.5 47.5 Q58 78 43.5 121.5 Q29 165 29 218 Q29 276 46 321 Q63 366 93 396 Q157 460 267 460 Q302 460 334.5 455 Q367 450 397 445 Q397 430 397.5 410 Q398 390 398.5 369 Q399 348 399.5 328 Q400 308 401 294 L367 294 Q362 347 339 377 Q316 407 273 407 Q244 407 223 393.5 Q202 380 188.5 356 Q175 332 168.5 299.5 Q162 267 162 230 Q162 142 193.5 99 Q225 56 276 56 Q311 56 338.5 74.5 Q366 93 386 122 L423 99 Z M295 651 L393 509 L368 497 L262 583 L156 497 L131 509 L229 651 L295 651 Z " />
<glyph glyph-name="ccaron" unicode="&#x10d;" horiz-adv-x="445" d="M423 99 Q399 48 350.5 16 Q302 -16 236 -16 Q188 -16 149.5 0.5 Q111 17 84.5 47.5 Q58 78 43.5 121.5 Q29 165 29 218 Q29 276 46 321 Q63 366 93 396 Q157 460 267 460 Q302 460 334.5 455 Q367 450 397 445 Q397 430 397.5 410 Q398 390 398.5 369 Q399 348 399.5 328 Q400 308 401 294 L367 294 Q362 347 339 377 Q316 407 273 407 Q244 407 223 393.5 Q202 380 188.5 356 Q175 332 168.5 299.5 Q162 267 162 230 Q162 142 193.5 99 Q225 56 276 56 Q311 56 338.5 74.5 Q366 93 386 122 L423 99 Z M229 497 L131 639 L156 651 L262 565 L368 651 L393 639 L295 497 L229 497 Z " />
<glyph glyph-name="cdotaccent" unicode="&#x10b;" horiz-adv-x="445" d="M423 99 Q399 48 350.5 16 Q302 -16 236 -16 Q188 -16 149.5 0.5 Q111 17 84.5 47.5 Q58 78 43.5 121.5 Q29 165 29 218 Q29 276 46 321 Q63 366 93 396 Q157 460 267 460 Q302 460 334.5 455 Q367 450 397 445 Q397 430 397.5 410 Q398 390 398.5 369 Q399 348 399.5 328 Q400 308 401 294 L367 294 Q362 347 339 377 Q316 407 273 407 Q244 407 223 393.5 Q202 380 188.5 356 Q175 332 168.5 299.5 Q162 267 162 230 Q162 142 193.5 99 Q225 56 276 56 Q311 56 338.5 74.5 Q366 93 386 122 L423 99 Z M198 574 Q198 600 217 619 Q236 638 262 638 Q288 638 307 619 Q326 600 326 574 Q326 548 307 529 Q288 510 262 510 Q236 510 217 529 Q198 548 198 574 Z " />
<glyph glyph-name="dcaron" unicode="&#x10f;" horiz-adv-x="619" d="M427 -13 Q397 -13 375.5 0 Q354 13 344 39 Q321 14 289 -1 Q257 -16 218 -16 Q173 -16 138.5 2 Q104 20 80 51 Q56 82 43.5 123.5 Q31 165 31 213 Q31 265 44.5 310 Q58 355 84.5 388.5 Q111 422 149 441 Q187 460 236 460 Q264 460 290 450.5 Q316 441 336 427 L336 576 Q336 591 333.5 600.5 Q331 610 325 616.5 Q319 623 308 628 Q297 633 280 638 L280 665 Q338 665 383 667 Q428 669 465 673 L465 89 Q465 47 494 47 Q502 47 511 49.5 Q520 52 528 56 L528 22 Q508 7 481.5 -3 Q455 -13 427 -13 Z M263 54 Q283 54 302.5 62.5 Q322 71 336 86 L336 373 Q321 384 301.5 391.5 Q282 399 263 399 Q239 399 220.5 386 Q202 373 189.5 350 Q177 327 170.5 295 Q164 263 164 225 Q164 144 190 99 Q216 54 263 54 Z M639 560 Q638 518 615.5 476.5 Q593 435 539 405 L524 426 Q547 445 562.5 466.5 Q578 488 578 509 Q578 525 568.5 535 Q559 545 548 553 Q537 561 527.5 570 Q518 579 518 594 Q518 613 533 626.5 Q548 640 572 640 Q603 640 621 616 Q639 592 639 560 Z " />
<glyph glyph-name="dcroat" unicode="&#x111;" horiz-adv-x="543" d="M427 -13 Q397 -13 375.5 0 Q354 13 344 39 Q321 14 289 -1 Q257 -16 218 -16 Q173 -16 138.5 2 Q104 20 80 51 Q56 82 43.5 123.5 Q31 165 31 213 Q31 265 44.5 310 Q58 355 84.5 388.5 Q111 422 149 441 Q187 460 236 460 Q264 460 290 450.5 Q316 441 336 427 L336 521 L199 521 L199 565 L336 565 L336 576 Q336 591 333.5 600.5 Q331 610 325 616.5 Q319 623 308 628 Q297 633 280 638 L280 665 Q338 665 383 667 Q428 669 465 673 L465 565 L537 565 L537 521 L465 521 L465 89 Q465 47 494 47 Q502 47 511 49.5 Q520 52 528 56 L528 22 Q508 7 481.5 -3 Q455 -13 427 -13 Z M263 54 Q283 54 302.5 62.5 Q322 71 336 86 L336 373 Q321 384 301.5 391.5 Q282 399 263 399 Q239 399 220.5 386 Q202 373 189.5 350 Q177 327 170.5 295 Q164 263 164 225 Q164 144 190 99 Q216 54 263 54 Z " />
<glyph glyph-name="eth" unicode="&#xf0;" horiz-adv-x="515" d="M424 612 L434 569 L354 550 Q414 484 447 401.5 Q480 319 480 229 Q480 178 466 133.5 Q452 89 423.5 56 Q395 23 352 3.5 Q309 -16 252 -16 Q201 -16 160 0.5 Q119 17 90.5 47.5 Q62 78 46.5 121.5 Q31 165 31 218 Q31 269 45 311 Q59 353 84 383.5 Q109 414 144.5 431 Q180 448 223 448 Q250 448 272 440.5 Q294 433 310 422 Q300 445 285 476 Q270 507 257 527 L149 502 L139 545 L228 566 Q209 588 187.5 607.5 Q166 627 141 643 L157 681 Q202 665 241.5 640.5 Q281 616 315 586 L424 612 Z M348 204 Q348 240 343.5 279.5 Q339 319 329 356 Q314 372 295 381.5 Q276 391 256 391 Q211 391 187.5 346 Q164 301 164 208 Q164 125 188 80.5 Q212 36 256 36 Q297 36 322.5 79 Q348 122 348 204 Z " />
<glyph glyph-name="egrave" unicode="&#xe8;" horiz-adv-x="464" d="M426 101 Q403 49 354 16.5 Q305 -16 239 -16 Q186 -16 147 3 Q108 22 81.5 54.5 Q55 87 42 130.5 Q29 174 29 223 Q29 274 44.5 317.5 Q60 361 88 392.5 Q116 424 156 442 Q196 460 244 460 Q329 460 379.5 407 Q430 354 430 258 Q430 251 430 242 Q430 233 429 225 L161 225 Q161 141 192 98.5 Q223 56 275 56 Q312 56 341 75 Q370 94 390 124 L426 101 Z M319 273 Q318 336 298.5 371 Q279 406 243 406 Q207 406 186.5 369 Q166 332 162 273 L319 273 Z M145 596 L177 635 Q189 649 201 649 Q213 649 228 634 L359 510 L345 491 L146 583 L145 596 Z " />
</font>
</svg>
