<?xml version="1.0" encoding="UTF-8"?>
<svg xmlns="http://www.w3.org/2000/svg" xmlns:xlink="http://www.w3.org/1999/xlink" version="1.2" >
<font id="Cadillac Serif Web Heavy Italic">
<font-face  font-family="Cadillac Serif Web" units-per-em="1000" ascent="700" descent="-300" font-style="italic" font-weight="900" font-stretch="normal" slope="-15" cap-height="625" x-height="444" underline-position="-75" underline-thickness="50" />
<missing-glyph  horiz-adv-x="535" d="M20 693 L515 693 L515 0 L20 0 L20 693 Z M436 644 L99 644 L268 391 L436 644 Z M466 94 L466 599 L297 347 L466 94 Z M436 50 L268 302 L99 50 L436 50 Z M70 94 L238 347 L70 599 L70 94 Z " />
<glyph glyph-name="null" d="" />
<glyph glyph-name="nonmarkingreturn" unicode="&#xd;" horiz-adv-x="160" d="" />
<glyph glyph-name="space" unicode="&#x20;" horiz-adv-x="160" d="" />
<glyph glyph-name="nbspace" unicode="&#xa0;" horiz-adv-x="160" d="" />
<glyph glyph-name="A" unicode="A" horiz-adv-x="642" d="M144 67 Q144 56 156 49.5 Q168 43 188 41 L178 0 Q155 2 129 2.5 Q103 3 80 3 Q69 3 54 2.5 Q39 2 24 1.5 Q9 1 -5 0.5 Q-19 0 -28 0 L-17 41 L45 58 L380 625 L510 625 L571 121 Q574 100 577 87 Q580 74 587 65.5 Q594 57 605.5 52 Q617 47 636 41 L626 0 Q618 0 599.5 0.5 Q581 1 559.5 1.5 Q538 2 517 2.5 Q496 3 483 3 Q469 3 446 2.5 Q423 2 400 1.5 Q377 1 357.5 0.5 Q338 0 331 0 L341 41 L399 57 L386 170 L196 170 L159 105 Q151 91 147.5 83 Q144 75 144 67 Z M234 232 L379 232 L355 441 L234 232 Z " />
<glyph glyph-name="B" unicode="B" horiz-adv-x="642" d="M20 41 L82 59 L190 505 Q195 528 195 539 Q195 557 182 567.5 Q169 578 143 584 L153 625 L450 625 Q497 625 533.5 619 Q570 613 596 599 Q625 584 640.5 558.5 Q656 533 656 495 Q656 442 618.5 404 Q581 366 507 347 Q559 334 592 297.5 Q625 261 625 210 Q625 169 608.5 131.5 Q592 94 560 66 Q523 34 465.5 17 Q408 0 325 0 L10 0 L20 41 Z M438 235 Q438 269 421 286 Q400 308 344 308 L323 308 L275 108 Q264 61 310 61 Q337 61 360.5 77 Q384 93 401 118.5 Q418 144 428 174.5 Q438 205 438 235 Z M480 500 Q480 518 474.5 530 Q469 542 459 550 Q440 565 399 565 L386 565 L338 368 L354 368 Q381 368 401 376.5 Q421 385 437 399 Q457 418 468.5 444.5 Q480 471 480 500 Z " />
<glyph glyph-name="C" unicode="C" horiz-adv-x="587" d="M554 112 Q508 55 443.5 20 Q379 -15 302 -15 Q250 -15 207.5 0 Q165 15 135 44 Q105 73 88.5 117 Q72 161 72 218 Q72 293 99 368 Q126 443 178 503.5 Q230 564 304.5 602 Q379 640 474 640 Q515 640 559.5 634.5 Q604 629 657 624 Q645 581 633 531 Q621 481 611 438 L549 438 Q551 451 552.5 467 Q554 483 554 494 Q554 569 487 569 Q439 569 397 534.5 Q355 500 324.5 447.5 Q294 395 276.5 332 Q259 269 259 211 Q259 158 283 126.5 Q307 95 358 95 Q396 95 436 111 Q476 127 513 154 L554 112 Z " />
<glyph glyph-name="D" unicode="D" horiz-adv-x="689" d="M407 625 Q473 625 529.5 614 Q586 603 627.5 576.5 Q669 550 692.5 505.5 Q716 461 716 394 Q715 314 686 242.5 Q657 171 603 117 Q549 63 472 31.5 Q395 0 299 0 L10 0 L20 41 L82 59 L190 505 Q195 528 195 539 Q195 557 182 567.5 Q169 578 143 584 L153 625 L407 625 Z M307 64 Q349 64 389 98.5 Q429 133 460 186.5 Q491 240 510 304 Q529 368 529 428 Q529 498 498 530 Q468 561 398 561 L385 561 L275 107 Q270 85 276 74.5 Q282 64 307 64 Z " />
<glyph glyph-name="E" unicode="E" horiz-adv-x="576" d="M20 41 L82 59 L190 505 Q195 528 195 539 Q195 557 182 567.5 Q169 578 143 584 L153 625 L630 625 Q626 609 621.5 586 Q617 563 612.5 539 Q608 515 604 493.5 Q600 472 598 459 L543 459 Q543 494 541 513 Q539 532 528 545 Q510 566 446 566 L386 566 L334 349 L359 349 Q407 349 447 352.5 Q487 356 510 361 L483 277 Q474 278 459 280 Q444 282 425 283 Q406 284 384.5 285 Q363 286 343 286 L318 286 L279 124 Q276 110 276 104 Q276 80 295.5 70 Q315 60 342 60 Q368 60 389.5 64.5 Q411 69 428.5 80 Q446 91 460.5 111 Q475 131 486 162 L544 162 Q540 150 534 128 Q528 106 521.5 82 Q515 58 509.5 35.5 Q504 13 501 0 L10 0 L20 41 Z " />
<glyph glyph-name="F" unicode="F" horiz-adv-x="542" d="M539 459 Q539 494 537 513 Q535 532 524 545 Q506 566 442 566 L387 566 L335 349 L355 349 Q403 349 443 352 Q483 355 506 360 L479 277 Q470 278 455 280 Q440 282 421 283 Q402 284 380.5 285 Q359 286 339 286 L319 286 L279 120 Q274 97 274 86 Q274 70 290.5 59.5 Q307 49 344 41 L334 0 Q323 0 301 0.5 Q279 1 255 1.5 Q231 2 208 2.5 Q185 3 172 3 Q157 3 133.5 2.5 Q110 2 86 1.5 Q62 1 41 0.5 Q20 0 11 0 L21 41 L83 59 L191 505 Q196 528 196 539 Q196 557 183 567.5 Q170 578 144 584 L154 625 L626 625 Q622 609 617.5 586 Q613 563 608.5 539 Q604 515 600 493.5 Q596 472 594 459 L539 459 Z " />
<glyph glyph-name="G" unicode="G" horiz-adv-x="678" d="M499 568 Q462 568 431.5 554.5 Q401 541 377 516 Q349 487 327 447.5 Q305 408 290 364 Q275 320 267 273.5 Q259 227 259 185 Q259 123 280 91.5 Q301 60 339 60 Q379 60 399 91 Q419 122 431 172 L448 242 L383 261 L393 302 Q402 302 423 301.5 Q444 301 468 300.5 Q492 300 514 299.5 Q536 299 547 299 Q558 299 579 299 Q600 299 623 299.5 Q646 300 667 300.5 Q688 301 700 302 L690 261 Q668 256 654.5 250.5 Q641 245 633 236.5 Q625 228 620 216.5 Q615 205 611 187 L579 56 Q522 24 457.5 4.5 Q393 -15 324 -15 Q203 -15 137.5 46 Q72 107 72 224 Q72 274 83.5 321.5 Q95 369 117 411.5 Q139 454 170 491.5 Q201 529 239 558 Q291 598 356 619 Q421 640 496 640 Q520 640 546.5 637.5 Q573 635 599 631.5 Q625 628 648.5 624.5 Q672 621 691 619 Q679 576 667.5 528.5 Q656 481 646 438 L585 438 Q589 458 589 478 Q589 521 566 544.5 Q543 568 499 568 Z " />
<glyph glyph-name="H" unicode="H" horiz-adv-x="731" d="M335 360 L517 360 L553 505 Q558 528 558 539 Q558 557 545 567.5 Q532 578 506 584 L516 625 Q527 625 546 624.5 Q565 624 586 623.5 Q607 623 627 622.5 Q647 622 661 622 Q676 622 699.5 622.5 Q723 623 747 623.5 Q771 624 791.5 624.5 Q812 625 821 625 L811 584 L749 566 L641 120 Q636 97 636 86 Q636 68 649 57.5 Q662 47 688 41 L678 0 Q667 0 647.5 0.5 Q628 1 607 1.5 Q586 2 565.5 2.5 Q545 3 532 3 Q517 3 494 2.5 Q471 2 447 1.5 Q423 1 402.5 0.5 Q382 0 373 0 L383 41 L445 59 L501 291 L319 291 L278 120 Q273 97 273 86 Q273 68 286 57.5 Q299 47 325 41 L315 0 Q304 0 285 0.5 Q266 1 245 1.5 Q224 2 203.5 2.5 Q183 3 170 3 Q155 3 131.5 2.5 Q108 2 84 1.5 Q60 1 39.5 0.5 Q19 0 10 0 L20 41 L82 59 L190 505 Q195 528 195 539 Q195 557 182 567.5 Q169 578 143 584 L153 625 Q164 625 183.5 624.5 Q203 624 224 623.5 Q245 623 265 622.5 Q285 622 299 622 Q314 622 337 622.5 Q360 623 384 623.5 Q408 624 428.5 624.5 Q449 625 458 625 L448 584 L386 566 L335 360 Z " />
<glyph glyph-name="I" unicode="I" horiz-adv-x="372" d="M192 505 Q197 528 197 539 Q197 557 184 567.5 Q171 578 145 584 L155 625 Q166 625 185 624.5 Q204 624 225 623.5 Q246 623 266 622.5 Q286 622 300 622 Q315 622 338.5 622.5 Q362 623 386 623.5 Q410 624 430.5 624.5 Q451 625 460 625 L450 584 L388 566 L280 120 Q275 97 275 86 Q275 68 288 57.5 Q301 47 327 41 L317 0 Q306 0 286.5 0.5 Q267 1 246 1.5 Q225 2 204.5 2.5 Q184 3 171 3 Q156 3 133 2.5 Q110 2 86 1.5 Q62 1 41.5 0.5 Q21 0 12 0 L22 41 L84 59 L192 505 Z " />
<glyph glyph-name="J" unicode="J" horiz-adv-x="354" d="M272 124 Q261 81 249.5 46.5 Q238 12 224.5 -16.5 Q211 -45 194.5 -68.5 Q178 -92 158 -113 Q119 -154 62 -182 Q5 -210 -76 -223 L-94 -169 Q-57 -152 -30.5 -132 Q-4 -112 16 -83.5 Q36 -55 51 -15.5 Q66 24 80 81 L184 505 Q189 528 189 539 Q189 557 176 567.5 Q163 578 137 584 L147 625 Q158 625 177.5 624.5 Q197 624 218 623.5 Q239 623 259 622.5 Q279 622 293 622 Q308 622 331 622.5 Q354 623 378 623.5 Q402 624 422.5 624.5 Q443 625 452 625 L442 584 L380 566 L272 124 Z " />
<glyph glyph-name="K" unicode="K" horiz-adv-x="679" d="M190 505 Q195 528 195 539 Q195 557 182 567.5 Q169 578 143 584 L153 625 Q164 625 183.5 624.5 Q203 624 224.5 623.5 Q246 623 266 622.5 Q286 622 300 622 Q315 622 338 622.5 Q361 623 384.5 623.5 Q408 624 428.5 624.5 Q449 625 458 625 L448 584 L386 566 L332 349 L563 569 L522 584 L532 625 Q543 624 558 623.5 Q573 623 589 622.5 Q605 622 620 622 Q635 622 647 622 Q658 622 672 622.5 Q686 623 700.5 623.5 Q715 624 728 624.5 Q741 625 750 625 L739 584 Q718 582 703.5 578.5 Q689 575 675.5 568.5 Q662 562 648.5 550.5 Q635 539 617 523 L498 412 L594 109 Q600 91 608 83.5 Q616 76 630 76 Q639 76 648 78 Q657 80 664 82 L651 29 Q640 21 624.5 14 Q609 7 591.5 1 Q574 -5 556 -8.5 Q538 -12 522 -12 Q477 -12 453.5 12 Q430 36 415 87 L356 280 L303 228 L278 120 Q273 97 273 86 Q273 68 286 57.5 Q299 47 325 41 L315 0 Q304 0 285 0.5 Q266 1 245 1.5 Q224 2 204 2.5 Q184 3 171 3 Q156 3 132.5 2.5 Q109 2 85 1.5 Q61 1 40 0.5 Q19 0 10 0 L20 41 L82 59 L190 505 Z " />
<glyph glyph-name="L" unicode="L" horiz-adv-x="543" d="M279 124 Q276 110 276 104 Q276 80 295.5 70 Q315 60 342 60 Q364 60 383.5 64.5 Q403 69 419.5 80 Q436 91 450 111 Q464 131 475 162 L533 162 Q529 150 523 128 Q517 106 510.5 82 Q504 58 498.5 35.5 Q493 13 490 0 L10 0 L20 41 L82 59 L190 505 Q195 528 195 539 Q195 557 182 567.5 Q169 578 143 584 L153 625 Q164 625 183.5 624.5 Q203 624 224.5 623.5 Q246 623 266 622.5 Q286 622 300 622 Q315 622 338 622.5 Q361 623 384.5 623.5 Q408 624 428.5 624.5 Q449 625 458 625 L448 584 L386 566 L279 124 Z " />
<glyph glyph-name="M" unicode="M" horiz-adv-x="868" d="M388 625 L430 356 Q436 319 442 273 Q448 227 451 193 Q464 219 479 247.5 Q494 276 514 308 L709 625 L956 625 L946 584 L886 566 L778 120 Q773 100 773 86 Q773 51 826 41 L817 0 Q805 1 783 1.5 Q761 2 737 2.5 Q713 3 691 3 Q669 3 657 3 Q646 3 626 2.5 Q606 2 584.5 1.5 Q563 1 544 0.5 Q525 0 516 0 L525 41 L583 58 L621 214 Q637 279 649.5 332.5 Q662 386 676 437 Q650 392 620.5 341 Q591 290 557 234 L412 -3 L315 -3 L277 234 Q269 285 261.5 336 Q254 387 249 435 Q240 390 229.5 340 Q219 290 207 241 L178 120 Q173 97 173 86 Q173 68 185 57.5 Q197 47 223 41 L213 0 Q190 2 164.5 2.5 Q139 3 116 3 Q105 3 90.5 2.5 Q76 2 61 1.5 Q46 1 32.5 0.5 Q19 0 10 0 L20 41 L82 60 L189 505 Q194 528 194 539 Q194 557 181 567.5 Q168 578 142 584 L152 625 L388 625 Z " />
<glyph glyph-name="N" unicode="N" horiz-adv-x="707" d="M190 505 Q195 528 195 539 Q195 557 182 567.5 Q169 578 143 584 L153 625 L372 625 L560 216 L630 505 Q635 528 635 539 Q635 573 581 584 L591 625 Q614 623 641 622.5 Q668 622 691 622 Q702 622 716.5 622.5 Q731 623 746 623.5 Q761 624 774.5 624.5 Q788 625 797 625 L787 584 L725 565 L591 0 L460 0 L255 445 L178 120 Q173 97 173 86 Q173 68 187 57.5 Q201 47 227 41 L217 0 Q194 2 166 2.5 Q138 3 115 3 Q104 3 89.5 2.5 Q75 2 60.5 1.5 Q46 1 33 0.5 Q20 0 11 0 L21 41 L83 60 L190 505 Z " />
<glyph glyph-name="O" unicode="O" horiz-adv-x="661" d="M502 459 Q502 513 486.5 540 Q471 567 442 567 Q410 567 380 535 Q350 503 326 449 Q312 417 299.5 379.5 Q287 342 278 304.5 Q269 267 264 231 Q259 195 259 166 Q259 112 275 85 Q291 58 320 58 Q352 58 381.5 90 Q411 122 435 176 Q449 208 461.5 245.5 Q474 283 483 320.5 Q492 358 497 394 Q502 430 502 459 Z M445 640 Q496 640 540.5 624 Q585 608 618 577.5 Q651 547 670 501 Q689 455 689 395 Q689 321 662.5 248 Q636 175 587 116.5 Q538 58 469.5 21.5 Q401 -15 316 -15 Q265 -15 220.5 1 Q176 17 143 47.5 Q110 78 91 124 Q72 170 72 230 Q72 304 98.5 377 Q125 450 173.5 508.5 Q222 567 291 603.5 Q360 640 445 640 Z " />
<glyph glyph-name="P" unicode="P" horiz-adv-x="615" d="M278 120 Q273 97 273 86 Q273 70 289.5 59.5 Q306 49 343 41 L333 0 Q322 0 300 0.5 Q278 1 254 1.5 Q230 2 207 2.5 Q184 3 171 3 Q156 3 132.5 2.5 Q109 2 85 1.5 Q61 1 40 0.5 Q19 0 10 0 L20 41 L82 59 L190 505 Q195 528 195 539 Q195 557 182 567.5 Q169 578 143 584 L153 625 L420 625 Q494 625 545.5 613.5 Q597 602 628 574 Q669 536 669 476 Q669 422 645.5 379.5 Q622 337 580 308 Q538 279 480.5 264 Q423 249 355 249 L309 249 L278 120 Z M484 496 Q484 529 465 548 Q447 566 401 566 L386 566 L323 308 L331 308 Q364 308 392.5 323.5 Q421 339 441 364.5 Q461 390 472.5 424 Q484 458 484 496 Z " />
<glyph glyph-name="Q" unicode="Q" horiz-adv-x="661" d="M445 640 Q496 640 540.5 624 Q585 608 618 577.5 Q651 547 670 501 Q689 455 689 395 Q689 335 671 274.5 Q653 214 620 161.5 Q587 109 539.5 68 Q492 27 433 5 Q433 -69 500 -104 Q567 -139 701 -144 L686 -202 Q661 -204 630.5 -205.5 Q600 -207 574 -207 Q489 -207 428 -193 Q367 -179 327 -153 Q287 -127 266.5 -90 Q246 -53 241 -6 Q204 4 173 23.5 Q142 43 119.5 73 Q97 103 84.5 142 Q72 181 72 230 Q72 304 98.5 377 Q125 450 173.5 508.5 Q222 567 291 603.5 Q360 640 445 640 Z M502 459 Q502 513 486.5 540 Q471 567 442 567 Q410 567 380 535 Q350 503 326 449 Q312 417 299.5 379.5 Q287 342 278 304.5 Q269 267 264 231 Q259 195 259 166 Q259 112 274.5 85 Q290 58 319 58 Q351 58 381 90 Q411 122 435 176 Q449 208 461.5 245.5 Q474 283 483 320.5 Q492 358 497 394 Q502 430 502 459 Z " />
<glyph glyph-name="R" unicode="R" horiz-adv-x="671" d="M278 120 Q273 97 273 86 Q273 68 290.5 58 Q308 48 337 41 L327 0 Q316 0 295 0.5 Q274 1 250.5 1.5 Q227 2 205 2.5 Q183 3 170 3 Q155 3 131.5 2.5 Q108 2 84 1.5 Q60 1 39.5 0.5 Q19 0 10 0 L20 41 L82 59 L190 505 Q195 528 195 539 Q195 557 182 567.5 Q169 578 143 584 L153 625 L449 625 Q577 625 632 573 Q671 537 671 478 Q671 441 656.5 411 Q642 381 618.5 358.5 Q595 336 564.5 321 Q534 306 503 299 Q535 288 548 269.5 Q561 251 566 215 L580 109 Q582 92 588.5 84 Q595 76 610 76 Q619 76 628.5 78 Q638 80 645 82 L633 32 Q608 15 576 1.5 Q544 -12 509 -12 Q459 -12 434.5 12.5 Q410 37 403 87 L389 200 Q386 220 382 232.5 Q378 245 370.5 252 Q363 259 352 261.5 Q341 264 326 264 L312 264 L278 120 Z M326 321 L330 321 Q363 321 389 330 Q415 339 435 359 Q459 385 472.5 420 Q486 455 486 491 Q486 529 466 548 Q456 557 441.5 561.5 Q427 566 404 566 L386 566 L326 321 Z " />
<glyph glyph-name="S" unicode="S" horiz-adv-x="549" d="M527 201 Q527 158 507.5 119 Q488 80 451 50 Q414 20 361.5 2.5 Q309 -15 242 -15 Q191 -15 139 -3 Q87 9 52 26 L88 180 L148 180 Q147 175 146.5 169 Q146 163 146 157 Q146 112 169 83.5 Q192 55 246 55 Q268 55 288 61.5 Q308 68 323 79.5 Q338 91 346.5 107 Q355 123 355 143 Q355 169 333 188.5 Q311 208 280 228 Q245 250 218 270 Q191 290 171.5 312.5 Q152 335 142 361.5 Q132 388 132 423 Q132 471 153 511 Q174 551 211 579.5 Q248 608 298.5 624 Q349 640 407 640 Q457 640 502 631.5 Q547 623 589 617 Q584 601 578.5 578.5 Q573 556 568 533 Q563 510 558.5 488.5 Q554 467 551 453 L492 453 Q493 458 493.5 468 Q494 478 494 483 Q494 523 475 546.5 Q456 570 408 570 Q387 570 368.5 564 Q350 558 335.5 547 Q321 536 312.5 520 Q304 504 304 483 Q304 454 327 433 Q350 412 382 391 Q406 375 431.5 357.5 Q457 340 478.5 318 Q500 296 513.5 267.5 Q527 239 527 201 Z " />
<glyph glyph-name="T" unicode="T" horiz-adv-x="624" d="M327 562 L312 562 Q278 562 255 556 Q232 550 215.5 536.5 Q199 523 187 500 Q175 477 162 444 L102 444 Q107 461 114 485.5 Q121 510 128 536 Q135 562 141.5 586 Q148 610 151 625 L710 625 Q706 609 701 584 Q696 559 691 532 Q686 505 682 481 Q678 457 676 444 L620 444 Q620 477 618.5 499.5 Q617 522 609 536 Q601 550 583 556 Q565 562 532 562 L508 562 L401 120 Q396 97 396 86 Q396 68 409 57.5 Q422 47 448 41 L438 0 Q427 0 407.5 0.5 Q388 1 367 1.5 Q346 2 325.5 2.5 Q305 3 292 3 Q277 3 254 2.5 Q231 2 207 1.5 Q183 1 162.5 0.5 Q142 0 133 0 L143 41 L205 59 L327 562 Z " />
<glyph glyph-name="U" unicode="U" horiz-adv-x="687" d="M628 234 Q601 119 547 64 Q510 26 458.5 5.5 Q407 -15 339 -15 Q227 -15 168.5 33.5 Q110 82 110 160 Q110 177 113.5 199 Q117 221 125 255 L185 504 Q190 527 190 539 Q190 557 177 567.5 Q164 578 138 584 L148 625 Q159 625 178.5 624.5 Q198 624 219 623.5 Q240 623 260 622.5 Q280 622 294 622 Q309 622 332 622.5 Q355 623 379 623.5 Q403 624 423.5 624.5 Q444 625 453 625 L443 584 L381 566 L305 251 Q299 227 295 205 Q291 183 291 163 Q291 122 314 97.5 Q337 73 384 73 Q421 73 448.5 87.5 Q476 102 496.5 127.5 Q517 153 530.5 188 Q544 223 554 264 L612 505 Q617 528 617 539 Q617 557 604.5 567 Q592 577 567 584 L577 625 Q600 623 627 622.5 Q654 622 677 622 Q688 622 702 622.5 Q716 623 730 623.5 Q744 624 756.5 624.5 Q769 625 778 625 L768 584 L708 566 L628 234 Z " />
<glyph glyph-name="V" unicode="V" horiz-adv-x="618" d="M236 -2 L168 520 Q166 537 161.5 547.5 Q157 558 149 564.5 Q141 571 128 575 Q115 579 95 584 L105 625 Q116 624 137 623.5 Q158 623 181.5 622.5 Q205 622 226 622 Q247 622 258 622 Q269 622 290.5 622.5 Q312 623 335 623.5 Q358 624 378.5 624.5 Q399 625 408 625 L398 584 L340 570 L383 210 L583 569 L533 584 L543 625 Q552 625 566 624.5 Q580 624 595 623.5 Q610 623 623.5 622.5 Q637 622 646 622 Q669 622 695.5 622.5 Q722 623 746 625 L736 584 Q716 582 703 579 Q690 576 680.5 569 Q671 562 662.5 551 Q654 540 645 524 L349 -2 L236 -2 Z " />
<glyph glyph-name="W" unicode="W" horiz-adv-x="933" d="M538 330 L346 0 L237 0 L171 520 Q169 537 165 547.5 Q161 558 153 564.5 Q145 571 132.5 575 Q120 579 100 584 L110 625 Q121 624 141.5 623.5 Q162 623 184.5 622.5 Q207 622 227.5 622 Q248 622 260 622 Q271 622 292 622.5 Q313 623 335.5 623.5 Q358 624 378 624.5 Q398 625 407 625 L397 584 L339 565 L383 210 L527 457 L523 520 Q521 538 518 548.5 Q515 559 509 566 Q503 573 492.5 576.5 Q482 580 466 584 L476 625 Q487 624 508 623.5 Q529 623 551.5 622.5 Q574 622 595 622 Q616 622 628 622 Q639 622 657 622.5 Q675 623 693.5 623.5 Q712 624 729 624.5 Q746 625 755 625 L745 584 L685 564 L712 229 L894 563 L839 584 L849 625 Q858 625 871 624.5 Q884 624 898 623.5 Q912 623 926 622.5 Q940 622 951 622 Q974 622 1005.5 623 Q1037 624 1059 625 L1049 584 Q1014 582 996 569.5 Q978 557 960 524 L673 0 L566 0 L538 330 Z " />
<glyph glyph-name="X" unicode="X" horiz-adv-x="642" d="M-15 41 Q16 46 39.5 57.5 Q63 69 85 91 L281 292 L196 522 Q191 537 184.5 546.5 Q178 556 168 563 Q158 570 144.5 574.5 Q131 579 112 584 L122 625 Q133 624 158.5 623.5 Q184 623 212 622.5 Q240 622 265 622 Q290 622 302 622 Q313 622 332 622.5 Q351 623 371 623.5 Q391 624 409 624.5 Q427 625 436 625 L426 584 L365 567 L420 420 L561 568 L517 584 L527 625 Q536 625 550 624.5 Q564 624 579 623.5 Q594 623 608.5 622.5 Q623 622 634 622 Q657 622 688.5 622.5 Q720 623 744 625 L734 584 Q699 581 676.5 570.5 Q654 560 630 535 L447 346 L541 99 Q547 83 554 73 Q561 63 571.5 57 Q582 51 597 47.5 Q612 44 634 41 L624 0 Q613 1 589 1.5 Q565 2 538.5 2.5 Q512 3 488 3 Q464 3 452 3 Q441 3 420 2.5 Q399 2 376 1.5 Q353 1 332.5 0.5 Q312 0 303 0 L313 41 L369 59 L310 217 L156 58 L204 41 L194 0 Q185 0 170 0.5 Q155 1 138 1.5 Q121 2 105 2.5 Q89 3 78 3 Q55 3 27 2.5 Q-1 2 -26 0 L-15 41 L-15 41 Z " />
<glyph glyph-name="Y" unicode="Y" horiz-adv-x="597" d="M395 120 Q390 97 390 86 Q390 68 403 57.5 Q416 47 442 41 L432 0 Q421 0 401.5 0.5 Q382 1 361 1.5 Q340 2 319.5 2.5 Q299 3 286 3 Q271 3 248 2.5 Q225 2 201 1.5 Q177 1 156.5 0.5 Q136 0 127 0 L137 41 L199 59 L245 250 L174 514 Q169 533 163 545 Q157 557 149 564 Q141 571 128.5 575.5 Q116 580 98 584 L108 625 Q119 624 139 623.5 Q159 623 181 622.5 Q203 622 223 622 Q243 622 255 622 Q266 622 287 622.5 Q308 623 330.5 623.5 Q353 624 373 624.5 Q393 625 402 625 L392 584 L338 565 L398 327 L558 566 L511 584 L521 625 Q540 624 568.5 623 Q597 622 619 622 Q642 622 669.5 623 Q697 624 721 625 L711 584 Q693 583 681 580 Q669 577 659.5 570.5 Q650 564 641 553.5 Q632 543 622 528 L423 237 L395 120 Z " />
<glyph glyph-name="Z" unicode="Z" horiz-adv-x="573" d="M637 583 Q593 518 544 450 Q495 382 444.5 315 Q394 248 343 184 Q292 120 243 63 L336 63 Q374 63 401.5 69 Q429 75 449 94 Q463 108 474.5 127 Q486 146 497 172 L555 172 Q550 155 544 132 Q538 109 531.5 85 Q525 61 519 38.5 Q513 16 509 0 L45 0 L28 42 Q72 107 121 175 Q170 243 220 309.5 Q270 376 321 440.5 Q372 505 421 562 L263 562 L181 457 L126 457 Q130 470 137 493 Q144 516 151 541 Q158 566 164 588.5 Q170 611 173 625 L621 625 L637 583 Z " />
<glyph glyph-name="a" unicode="a" horiz-adv-x="552" d="M560 440 L483 140 Q476 112 476 100 Q476 75 502 75 Q515 75 530 80 L519 31 Q493 13 456.5 0.5 Q420 -12 388 -12 Q355 -12 334.5 3 Q314 18 309 49 Q285 17 251.5 1 Q218 -15 183 -15 Q122 -15 83.5 28.5 Q45 72 45 148 Q45 213 73.5 273.5 Q102 334 148 378 Q188 416 239.5 438 Q291 460 342 460 Q392 460 430 435 L451 458 L547 452 L560 440 Z M251 84 Q279 84 298.5 124.5 Q318 165 335 229 L374 376 Q366 387 350 387 Q335 387 321.5 377.5 Q308 368 295 352 Q280 332 265.5 305 Q251 278 240.5 248.5 Q230 219 223.5 189 Q217 159 217 135 Q217 108 226 96 Q235 84 251 84 Z " />
<glyph glyph-name="b" unicode="b" horiz-adv-x="543" d="M340 360 Q315 360 292 321.5 Q269 283 248 198 L216 69 Q220 64 227 61 Q234 58 242 58 Q257 58 271 67.5 Q285 77 298 93 Q313 112 327 139.5 Q341 167 351.5 196.5 Q362 226 368 255.5 Q374 285 374 310 Q374 360 340 360 Z M30 4 L171 568 Q174 580 174 590 Q174 602 165 611 Q156 620 131 628 L140 665 Q164 665 193.5 665.5 Q223 666 251.5 667 Q280 668 306.5 670 Q333 672 351 674 L364 662 L331 525 Q323 492 310.5 456.5 Q298 421 285 396 L287 395 Q310 424 341.5 442 Q373 460 412 460 Q471 460 508.5 417.5 Q546 375 546 297 Q546 232 518.5 171.5 Q491 111 445 67 Q405 29 353.5 7 Q302 -15 250 -15 Q226 -15 203 -9 Q180 -3 160 10 L139 -13 L43 -8 L30 4 Z " />
<glyph glyph-name="c" unicode="c" horiz-adv-x="463" d="M435 98 Q415 72 390 51.5 Q365 31 336.5 16 Q308 1 277 -7 Q246 -15 215 -15 Q135 -15 89.5 31 Q44 77 44 156 Q44 218 68 275.5 Q92 333 136 376 Q176 414 229 437 Q282 460 348 460 Q390 460 431.5 451.5 Q473 443 502 440 Q498 426 492 405 Q486 384 480 361.5 Q474 339 469 318 Q464 297 461 285 L403 285 Q401 339 390 363.5 Q379 388 350 388 Q335 388 319 380 Q303 372 289 357 Q274 340 260.5 317.5 Q247 295 237 269.5 Q227 244 221.5 216.5 Q216 189 216 164 Q216 128 234 109.5 Q252 91 284 91 Q312 91 341.5 101 Q371 111 401 134 L435 98 Z " />
<glyph glyph-name="d" unicode="d" horiz-adv-x="553" d="M252 84 Q280 84 299.5 124.5 Q319 165 336 229 L375 376 Q367 387 351 387 Q336 387 322 377.5 Q308 368 295 352 Q280 332 265.5 305 Q251 278 240.5 248.5 Q230 219 223.5 189 Q217 159 217 135 Q217 108 226.5 96 Q236 84 252 84 Z M184 -15 Q123 -15 84 28.5 Q45 72 45 148 Q45 213 73.5 273.5 Q102 334 148 378 Q188 416 239.5 438 Q291 460 343 460 Q368 460 394 452 L423 568 Q426 580 426 590 Q426 602 417 611 Q408 620 383 628 L392 665 Q416 665 445.5 665.5 Q475 666 503.5 667 Q532 668 558.5 670 Q585 672 603 674 L616 662 L484 140 Q477 112 477 100 Q477 75 503 75 Q516 75 531 80 L520 31 Q494 13 457 0.5 Q420 -12 388 -12 Q356 -12 335.5 3 Q315 18 310 49 Q286 17 252 1 Q218 -15 184 -15 Z " />
<glyph glyph-name="e" unicode="e" horiz-adv-x="483" d="M225 -15 Q186 -15 153 -4 Q120 7 95.5 28.5 Q71 50 57.5 82 Q44 114 44 155 Q44 215 69 270.5 Q94 326 136.5 368 Q179 410 234.5 435 Q290 460 351 460 Q382 460 410 452.5 Q438 445 458 430.5 Q478 416 490 395 Q502 374 502 347 Q502 317 482.5 287 Q463 257 426 232.5 Q389 208 336 192 Q283 176 216 173 Q216 158 219.5 143 Q223 128 231 116 Q239 104 253 97 Q267 90 287 90 Q318 90 354 103 Q390 116 419 136 L455 100 Q414 49 352 17 Q290 -15 225 -15 Z M338 388 Q321 388 305.5 377 Q290 366 276 346 Q260 323 247.5 294 Q235 265 227 236 Q252 240 276.5 252 Q301 264 320.5 281.5 Q340 299 352.5 319.5 Q365 340 365 361 Q365 388 338 388 Z " />
<glyph glyph-name="f" unicode="f" horiz-adv-x="367" d="M155 -220 L-15 -220 L136 385 L75 385 L90 444 L151 444 Q167 493 190 536 Q213 579 246 611 Q279 643 322 661.5 Q365 680 422 680 Q492 680 533.5 658.5 Q575 637 575 606 Q575 591 567 575.5 Q559 560 546.5 548 Q534 536 519.5 528 Q505 520 492 520 Q474 520 462.5 534.5 Q451 549 441.5 566.5 Q432 584 423 598.5 Q414 613 401 613 Q389 613 378.5 600 Q368 587 358 564.5 Q348 542 338.5 511 Q329 480 320 444 L432 444 L407 385 L305 385 L155 -220 Z " />
<glyph glyph-name="g" unicode="g" horiz-adv-x="535" d="M284 120 Q240 120 200 132 Q198 128 198 121 Q198 108 218.5 101 Q239 94 269.5 88 Q300 82 335.5 75 Q371 68 401.5 54 Q432 40 452.5 17 Q473 -6 473 -43 Q473 -81 450 -115.5 Q427 -150 387.5 -176.5 Q348 -203 294.5 -219 Q241 -235 180 -235 Q127 -235 84 -225.5 Q41 -216 11 -200 Q-19 -184 -35.5 -162 Q-52 -140 -52 -114 Q-52 -78 -18.5 -52.5 Q15 -27 73 -15 Q62 -4 55 11.5 Q48 27 48 47 Q48 79 72.5 107.5 Q97 136 142 159 Q116 178 100 205 Q84 232 84 270 Q84 311 103.5 346 Q123 381 156.5 406.5 Q190 432 234.5 446 Q279 460 329 460 Q344 460 359.5 458.5 Q375 457 391 453 Q413 504 442.5 531.5 Q472 559 510 559 Q537 559 553 543 Q569 527 569 498 Q569 479 562 460 Q555 441 547 424 Q527 444 497 444 Q474 444 452 432 Q486 415 507.5 385 Q529 355 529 310 Q529 269 509.5 234 Q490 199 456.5 173.5 Q423 148 378.5 134 Q334 120 284 120 Z M315 -109 Q315 -96 297.5 -89 Q280 -82 253 -76.5 Q226 -71 194 -65.5 Q162 -60 132 -49 Q114 -72 114 -98 Q114 -124 138.5 -140.5 Q163 -157 205 -157 Q253 -157 284 -141.5 Q315 -126 315 -109 Z M282 190 Q300 190 315 207 Q325 218 333.5 235 Q342 252 348 271 Q354 290 357.5 309.5 Q361 329 361 346 Q361 369 353 379.5 Q345 390 331 390 Q313 390 298 373 Q288 362 279.5 345 Q271 328 265 309 Q259 290 255.5 270.5 Q252 251 252 234 Q252 211 260 200.5 Q268 190 282 190 Z " />
<glyph glyph-name="h" unicode="h" horiz-adv-x="559" d="M326 506 Q318 473 305.5 436.5 Q293 400 280 375 L282 374 Q292 391 308 406.5 Q324 422 344.5 434 Q365 446 388.5 453 Q412 460 438 460 Q491 460 518 429.5 Q545 399 545 354 Q545 324 534.5 282.5 Q524 241 512 201 Q503 169 495.5 142 Q488 115 488 99 Q488 88 493.5 81.5 Q499 75 513 75 Q525 75 542 80 L530 31 Q504 13 467.5 0.5 Q431 -12 397 -12 Q360 -12 337 8 Q314 28 314 69 Q314 96 322 131 Q330 166 341 201 Q352 238 361.5 270 Q371 302 371 319 Q371 345 345 345 Q328 345 311 330.5 Q294 316 280 287 Q269 262 256 219 Q243 176 224 99 L200 0 L30 0 L171 568 Q174 580 174 590 Q174 602 165 611 Q156 620 131 628 L140 665 Q164 665 193.5 665.5 Q223 666 251.5 667 Q280 668 306.5 670 Q333 672 351 674 L364 662 L326 506 Z " />
<glyph glyph-name="i" unicode="i" horiz-adv-x="316" d="M350 604 Q350 583 342.5 563.5 Q335 544 321 528 Q307 512 287.5 502.5 Q268 493 246 493 Q214 493 195 512 Q176 531 176 560 Q176 581 184 600.5 Q192 620 206 636 Q220 652 239 661.5 Q258 671 281 671 Q313 671 331.5 652 Q350 633 350 604 Z M242 140 Q235 112 235 100 Q235 75 261 75 Q274 75 289 80 L278 31 Q252 13 215.5 0.5 Q179 -12 145 -12 Q108 -12 85 8.5 Q62 29 62 71 Q62 100 72 140 L126 347 Q129 359 129 369 Q129 381 120 390 Q111 399 86 407 L95 444 Q119 444 148.5 444.5 Q178 445 207 446 Q236 447 262.5 449 Q289 451 307 453 L320 441 L242 140 Z " />
<glyph glyph-name="j" unicode="j" horiz-adv-x="301" d="M349 604 Q349 583 341.5 563.5 Q334 544 320 528 Q306 512 286.5 502.5 Q267 493 245 493 Q213 493 194 512 Q175 531 175 560 Q175 581 183 600.5 Q191 620 205 636 Q219 652 238 661.5 Q257 671 280 671 Q312 671 330.5 652 Q349 633 349 604 Z M214 26 Q197 -40 174 -80.5 Q151 -121 122 -150 Q80 -191 25.5 -207 Q-29 -223 -89 -225 L-95 -180 Q-70 -171 -50.5 -159 Q-31 -147 -16 -129.5 Q-1 -112 11 -87 Q23 -62 32 -25 L125 347 Q128 359 128 369 Q128 381 119 390 Q110 399 85 407 L94 444 Q118 444 147.5 444.5 Q177 445 206 446 Q235 447 261.5 449 Q288 451 306 453 L319 441 L214 26 Z " />
<glyph glyph-name="k" unicode="k" horiz-adv-x="547" d="M266 268 L319 307 Q363 339 386.5 373 Q410 407 421 440 L587 444 L587 424 L417 309 L456 106 Q460 88 469 81.5 Q478 75 492 75 Q498 75 507 76.5 Q516 78 524 80 L512 31 Q486 13 455 0.5 Q424 -12 389 -12 Q347 -12 327.5 10.5 Q308 33 299 80 L274 212 L247 193 L199 0 L29 0 L171 568 Q174 580 174 590 Q174 602 165 611 Q156 620 131 628 L140 665 Q164 665 193.5 665.5 Q223 666 252 667 Q281 668 307.5 670 Q334 672 352 674 L365 662 L266 268 Z " />
<glyph glyph-name="l" unicode="l" horiz-adv-x="305" d="M235 140 Q228 112 228 100 Q228 75 254 75 Q267 75 282 80 L271 31 Q245 13 208.5 0.5 Q172 -12 138 -12 Q101 -12 78 8.5 Q55 29 55 71 Q55 100 65 140 L174 568 Q177 580 177 590 Q177 602 168 611 Q159 620 134 628 L143 665 Q167 665 196.5 665.5 Q226 666 254.5 667 Q283 668 309.5 670 Q336 672 354 674 L367 662 L235 140 Z " />
<glyph glyph-name="m" unicode="m" horiz-adv-x="814" d="M289 374 Q309 409 349.5 434.5 Q390 460 441 460 Q487 460 512.5 436 Q538 412 543 374 Q563 408 602 434 Q641 460 692 460 Q743 460 771.5 429.5 Q800 399 800 354 Q800 324 789.5 283 Q779 242 767 202 Q758 170 750.5 143 Q743 116 743 100 Q743 89 748.5 82.5 Q754 76 768 76 Q780 76 797 81 L785 32 Q759 14 722.5 1.5 Q686 -11 652 -11 Q615 -12 592 8 Q569 28 569 69 Q569 96 577 131 Q585 166 596 201 Q607 238 616.5 270 Q626 302 626 319 Q626 330 619.5 337.5 Q613 345 601 345 Q578 345 560.5 321.5 Q543 298 529 265 Q502 199 486.5 131 Q471 63 466 0 L303 0 Q304 23 306.5 45.5 Q309 68 314.5 93 Q320 118 328.5 148 Q337 178 349 216 Q363 257 369 280 Q375 303 375 317 Q375 345 349 345 Q314 345 287 287 Q276 262 262.5 219 Q249 176 230 99 L206 0 L36 0 L123 347 Q126 359 126 369 Q126 381 117 390 Q108 399 83 407 L92 444 Q141 444 194 446 Q247 448 284 453 L297 441 L286 375 L289 374 Z " />
<glyph glyph-name="n" unicode="n" horiz-adv-x="565" d="M297 441 L286 375 L289 374 Q309 409 351 434.5 Q393 460 444 460 Q497 460 524 429.5 Q551 399 551 354 Q551 324 540.5 282.5 Q530 241 518 201 Q509 169 501.5 142 Q494 115 494 99 Q494 88 499.5 81.5 Q505 75 519 75 Q531 75 548 80 L536 31 Q510 13 473.5 0.5 Q437 -12 403 -12 Q366 -12 343 8 Q320 28 320 69 Q320 96 328 131 Q336 166 347 201 Q358 238 367.5 270 Q377 302 377 319 Q377 345 351 345 Q334 345 317 330.5 Q300 316 286 287 Q275 262 262 219 Q249 176 230 99 L206 0 L36 0 L123 347 Q126 359 126 369 Q126 381 117 390 Q108 399 83 407 L92 444 Q141 444 194 446 Q247 448 284 453 L297 441 Z " />
<glyph glyph-name="o" unicode="o" horiz-adv-x="523" d="M245 -15 Q201 -15 164.5 -2.5 Q128 10 101 33.5 Q74 57 59 91.5 Q44 126 44 170 Q44 228 65 280.5 Q86 333 123.5 373 Q161 413 212.5 436.5 Q264 460 326 460 Q369 460 406 447.5 Q443 435 470 411.5 Q497 388 512 353.5 Q527 319 527 275 Q527 217 506 164.5 Q485 112 447.5 72 Q410 32 358 8.5 Q306 -15 245 -15 Z M327 389 Q314 389 302.5 378.5 Q291 368 280.5 350.5 Q270 333 261 310.5 Q252 288 245 264 Q231 219 223.5 177 Q216 135 216 105 Q216 56 244 56 Q257 56 268.5 66.5 Q280 77 290.5 94.5 Q301 112 309.5 134.5 Q318 157 326 181 Q340 226 347.5 268 Q355 310 355 340 Q355 389 327 389 Z " />
<glyph glyph-name="p" unicode="p" horiz-adv-x="548" d="M346 360 Q321 360 298.5 321.5 Q276 283 255 198 L223 69 Q227 64 234 61 Q241 58 249 58 Q264 58 277 67.5 Q290 77 303 93 Q318 112 332 139.5 Q346 167 356.5 196.5 Q367 226 373 255.5 Q379 285 379 310 Q379 360 346 360 Z M282 384 L284 383 Q310 423 345.5 441.5 Q381 460 419 460 Q479 460 515 416 Q551 372 551 296 Q551 233 523.5 172 Q496 111 450 67 Q410 29 359.5 7 Q309 -15 257 -15 Q231 -15 204 -7 L151 -220 L-19 -220 L123 347 Q126 359 126 369 Q126 381 117 390 Q108 399 83 407 L92 444 Q141 444 189.5 446 Q238 448 275 453 L288 441 L282 384 Z " />
<glyph glyph-name="q" unicode="q" horiz-adv-x="541" d="M217 135 Q217 108 226 96 Q235 84 251 84 Q279 84 299.5 124.5 Q320 165 336 229 L373 376 Q365 387 349 387 Q334 387 320 377.5 Q306 368 293 352 Q278 332 264 305 Q250 278 239.5 248.5 Q229 219 223 189.5 Q217 160 217 135 Z M259 -86 Q270 -44 283 -10.5 Q296 23 310 48 L308 49 Q285 20 253.5 2.5 Q222 -15 183 -15 Q122 -15 83.5 28.5 Q45 72 45 148 Q45 212 72.5 273 Q100 334 146 378 Q186 416 237.5 438 Q289 460 341 460 Q391 460 429 435 L450 458 L545 452 L558 440 L418 -123 Q415 -135 415 -145 Q415 -157 424 -166 Q433 -175 458 -183 L449 -220 Q425 -220 395.5 -220.5 Q366 -221 337.5 -222 Q309 -223 282.5 -225 Q256 -227 238 -229 L225 -217 L259 -86 Z " />
<glyph glyph-name="r" unicode="r" horiz-adv-x="447" d="M285 370 L288 369 Q317 412 355.5 436 Q394 460 426 460 Q457 460 474.5 445 Q492 430 492 405 Q492 389 486 371 Q480 353 470 337.5 Q460 322 446.5 312 Q433 302 418 302 Q407 302 398.5 307 Q390 312 381.5 317.5 Q373 323 364 328 Q355 333 344 333 Q308 333 286 287 Q275 262 262 219 Q249 176 230 99 L206 0 L36 0 L123 347 Q126 359 126 369 Q126 381 117 390 Q108 399 83 407 L92 444 Q141 444 194 446 Q247 448 284 453 L297 441 L285 370 Z " />
<glyph glyph-name="s" unicode="s" horiz-adv-x="446" d="M466 440 Q462 428 456.5 408 Q451 388 445.5 366.5 Q440 345 435.5 325 Q431 305 428 292 L372 292 Q370 346 353.5 368.5 Q337 391 304 391 Q281 391 263.5 380 Q246 369 246 349 Q246 334 259 322 Q272 310 291 298 Q310 286 333 273 Q356 260 375 243 Q394 226 407 203.5 Q420 181 420 150 Q420 113 403.5 82.5 Q387 52 357.5 30.5 Q328 9 286.5 -3 Q245 -15 195 -15 Q157 -15 109.5 -6.5 Q62 2 25 16 Q29 29 34 48 Q39 67 44.5 86.5 Q50 106 54.5 125 Q59 144 62 158 L119 158 Q121 110 142 82 Q163 54 202 54 Q228 54 245 66 Q262 78 262 96 Q262 110 249 120.5 Q236 131 217 141.5 Q198 152 175 164 Q152 176 133 193.5 Q114 211 101 234.5 Q88 258 88 292 Q88 325 103 355.5 Q118 386 147 409.5 Q176 433 217 446.5 Q258 460 311 460 Q353 460 396 451.5 Q439 443 466 440 Z " />
<glyph glyph-name="t" unicode="t" horiz-adv-x="378" d="M345 553 L317 444 L429 444 L404 385 L302 385 L242 145 Q237 127 237 112 Q237 98 245.5 89 Q254 80 272 80 Q289 80 307.5 87.5 Q326 95 345 107 L372 69 Q333 27 283.5 6 Q234 -15 185 -15 Q127 -15 97.5 16.5 Q68 48 68 95 Q68 115 72.5 138.5 Q77 162 82 183 L133 385 L72 385 L87 444 L148 444 L166 516 L331 566 L345 553 Z " />
<glyph glyph-name="u" unicode="u" horiz-adv-x="570" d="M257 211 Q249 181 245 160 Q241 139 241 128 Q241 113 248.5 106.5 Q256 100 267 100 Q283 100 298 113.5 Q313 127 327 158 Q338 183 351 226 Q364 269 383 346 L407 444 L577 444 L501 137 Q494 109 494 97 Q494 75 520 75 Q533 75 548 80 L537 31 Q511 13 474.5 0.5 Q438 -12 404 -12 Q368 -12 345 8 Q322 28 321 66 Q300 33 261.5 9 Q223 -15 174 -15 Q121 -15 93.5 16.5 Q66 48 66 93 Q66 116 70.5 140.5 Q75 165 82 193 L121 347 Q124 359 124 369 Q124 381 115 390 Q106 399 81 407 L90 444 Q114 444 143.5 444.5 Q173 445 201.5 446 Q230 447 256.5 449 Q283 451 301 453 L314 441 L257 211 Z " />
<glyph glyph-name="v" unicode="v" horiz-adv-x="507" d="M273 130 Q334 190 357.5 269.5 Q381 349 381 449 L540 444 Q542 404 527.5 361 Q513 318 487 275 Q461 232 425.5 191 Q390 150 350.5 114 Q311 78 270.5 48 Q230 18 194 -2 L107 -2 L106 344 Q106 359 104 369.5 Q102 380 96.5 386.5 Q91 393 81 397.5 Q71 402 54 407 L63 444 Q87 444 114 444.5 Q141 445 166.5 446 Q192 447 216 449 Q240 451 258 453 L271 441 L273 130 Z " />
<glyph glyph-name="w" unicode="w" horiz-adv-x="756" d="M278 132 Q323 181 349 259.5 Q375 338 372 447 L531 444 L538 126 Q565 156 582.5 192.5 Q600 229 610.5 270 Q621 311 625.5 356.5 Q630 402 630 449 L789 445 Q793 385 763.5 319 Q734 253 686 192 Q638 131 578 79.5 Q518 28 460 -2 L375 -2 L372 161 Q343 113 296.5 68.5 Q250 24 201 -2 L114 -2 L107 344 Q107 359 105 369.5 Q103 380 97.5 387 Q92 394 81.5 398.5 Q71 403 54 407 L63 444 Q87 444 114 444.5 Q141 445 166.5 446 Q192 447 216 449 Q240 451 258 453 L271 441 L278 132 Z " />
<glyph glyph-name="x" unicode="x" horiz-adv-x="519" d="M91 444 Q140 444 189.5 446 Q239 448 276 453 L291 443 L338 318 Q370 381 415 420.5 Q460 460 509 460 Q531 460 549 453 L511 305 Q490 317 465 317 Q436 317 411.5 302.5 Q387 288 361 261 L422 106 Q429 89 437 82 Q445 75 461 75 Q473 75 490 80 L478 30 Q456 10 424.5 -1 Q393 -12 367 -12 Q322 -12 295.5 16.5 Q269 45 246 103 L234 134 Q202 73 157 34 Q112 -5 47 -14 L26 117 Q90 121 131 139 Q172 157 210 193 L152 343 Q146 359 140.5 369.5 Q135 380 127.5 387 Q120 394 109 398.5 Q98 403 82 407 L91 444 Z " />
<glyph glyph-name="y" unicode="y" horiz-adv-x="559" d="M257 211 Q249 181 245 160 Q241 139 241 128 Q241 113 248.5 106.5 Q256 100 267 100 Q283 100 298 113.5 Q313 127 327 158 Q338 183 351 226 Q364 269 383 346 L407 444 L577 444 L480 54 Q445 -85 347.5 -151.5 Q250 -218 87 -225 L79 -177 Q122 -165 158 -149.5 Q194 -134 222.5 -110.5 Q251 -87 272 -53.5 Q293 -20 305 29 L310 51 Q287 23 252 4 Q217 -15 174 -15 Q121 -15 93.5 16.5 Q66 48 66 93 Q66 116 70.5 140.5 Q75 165 82 193 L122 347 Q125 359 125 369 Q125 381 116 390 Q107 399 81 407 L91 444 Q115 444 144.5 444.5 Q174 445 202.5 446 Q231 447 257.5 449 Q284 451 302 453 L315 441 L257 211 Z " />
<glyph glyph-name="z" unicode="z" horiz-adv-x="483" d="M11 19 Q25 46 51.5 84.5 Q78 123 115.5 170.5 Q153 218 200.5 272 Q248 326 304 385 L272 385 Q234 385 212.5 380.5 Q191 376 177 365 Q165 356 156 342.5 Q147 329 138 310 L90 310 Q98 341 107.5 377 Q117 413 125 444 L507 444 L520 425 Q506 398 479.5 359.5 Q453 321 415.5 273.5 Q378 226 330.5 171.5 Q283 117 227 59 L271 59 Q307 59 329 64.5 Q351 70 366 83 Q388 102 406 137 L453 137 Q449 122 443.5 103 Q438 84 433 64.5 Q428 45 423.5 27.5 Q419 10 416 0 L24 0 L11 19 Z " />
<glyph glyph-name="ampersand" unicode="&#x26;" horiz-adv-x="687" d="M445 242 Q442 264 442 283 Q442 348 473 376 Q504 404 581 406 Q603 407 619.5 408.5 Q636 410 647 415 Q658 420 664.5 429 Q671 438 674 454 L718 449 Q718 370 695.5 333 Q673 296 625 288 Q622 227 598.5 172 Q575 117 533 75.5 Q491 34 432 9.5 Q373 -15 298 -15 Q244 -15 199 0.5 Q154 16 122 44 Q90 72 72 109 Q54 146 54 190 Q54 228 66.5 259.5 Q79 291 102 316 Q125 341 157 358 Q189 375 228 383 Q205 398 191 422.5 Q177 447 177 476 Q177 512 195.5 542.5 Q214 573 247 594.5 Q280 616 324.5 628 Q369 640 421 640 Q466 640 512.5 630.5 Q559 621 591 609 Q588 598 582.5 578 Q577 558 571.5 536.5 Q566 515 561 494.5 Q556 474 553 462 L502 462 Q503 470 503.5 476.5 Q504 483 504 489 Q504 566 434 566 Q413 566 394 557.5 Q375 549 361 534.5 Q347 520 339 501 Q331 482 331 461 Q331 435 347 419 Q367 397 415 397 L419 397 L394 337 Q363 335 336.5 325.5 Q310 316 290.5 299.5 Q271 283 260 260.5 Q249 238 249 210 Q249 163 282 133 Q315 103 369 103 Q408 103 440.5 117 Q473 131 497 155.5 Q521 180 536.5 213.5 Q552 247 556 285 Q536 284 524 281 Q512 278 505.5 273 Q499 268 495.5 260 Q492 252 490 241 L445 242 Z " />
<glyph glyph-name="at" unicode="&#x40;" horiz-adv-x="809" d="M588 252 Q583 232 583 224 Q583 206 601 206 Q616 206 633 221 Q650 236 664.5 261 Q679 286 688 319 Q697 352 697 387 Q697 430 683 465.5 Q669 501 642.5 526.5 Q616 552 578 566 Q540 580 493 580 Q430 580 377.5 552.5 Q325 525 287 481 Q249 437 228 380 Q207 323 207 265 Q207 161 270 104 Q301 75 344 60 Q387 45 444 45 Q510 45 574.5 65 Q639 85 696 123 L719 89 Q655 40 577.5 12.5 Q500 -15 422 -15 Q327 -15 257 12 Q187 39 142 87 Q72 163 72 271 Q72 340 103 406.5 Q134 473 190 524.5 Q246 576 323.5 608 Q401 640 495 640 Q566 640 623 620 Q680 600 720.5 564.5 Q761 529 783 482 Q805 435 805 381 Q805 333 787 290.5 Q769 248 737.5 216.5 Q706 185 664.5 166.5 Q623 148 576 148 Q533 148 509.5 163 Q486 178 475 198 Q459 176 434.5 162.5 Q410 149 378 149 Q327 149 296.5 180.5 Q266 212 266 266 Q266 306 280.5 343.5 Q295 381 322 409.5 Q349 438 386 455 Q423 472 468 472 Q500 472 526 459 L551 473 L631 464 L639 452 L588 252 Z M495 415 Q488 420 479 420 Q462 420 448 408 Q434 396 423 376 Q409 351 401.5 320 Q394 289 394 261 Q394 221 416 221 Q435 221 447 244.5 Q459 268 470 313 L495 415 Z " />
<glyph glyph-name="exclam" unicode="&#x21;" horiz-adv-x="300" d="M121 -15 Q92 -15 73.5 2.5 Q55 20 55 46 Q55 66 64 84.5 Q73 103 87.5 117.5 Q102 132 121.5 140.5 Q141 149 162 149 Q191 149 209.5 131.5 Q228 114 228 88 Q228 68 219 49.5 Q210 31 195 16.5 Q180 2 161 -6.5 Q142 -15 121 -15 Z M148 214 Q156 268 152.5 328 Q149 388 149 445 Q149 485 156.5 521 Q164 557 180 583 Q196 609 220.5 624.5 Q245 640 279 640 Q316 640 335 621 Q354 602 354 572 Q354 549 348.5 527 Q343 505 334 483.5 Q325 462 314.5 442 Q304 422 294 404 Q268 356 243 307.5 Q218 259 204 214 L148 214 Z " />
<glyph glyph-name="exclamdown" unicode="&#xa1;" horiz-adv-x="300" d="M239.015 460.998 Q268.011 460.998 286.509 443.5 Q305.007 426.002 305.007 400.006 Q305.007 380.008 296.008 361.51 Q287.009 343.013 272.511 328.514 Q258.012 314.016 238.515 305.517 Q219.017 297.018 198.02 297.018 Q169.023 297.018 150.526 314.516 Q132.028 332.014 132.028 358.011 Q132.028 378.008 141.027 396.506 Q150.026 415.004 165.024 429.502 Q180.022 444 199.02 452.499 Q218.017 460.998 239.015 460.998 Z M212.018 232.026 Q204.019 178.033 207.519 118.04 Q211.018 58.0474 211.018 1.05432 Q211.018 -38.9408 203.519 -74.9364 Q196.02 -110.932 180.022 -136.929 Q164.024 -162.926 139.527 -178.424 Q115.03 -193.922 81.0341 -193.922 Q44.0386 -193.922 25.0409 -174.924 Q6.04321 -155.927 6.04321 -125.93 Q6.04321 -102.933 11.5425 -80.9357 Q17.0419 -58.9384 26.0408 -37.441 Q35.0397 -15.9436 45.5384 4.05396 Q56.0371 24.0515 66.0359 42.0493 Q92.0327 90.0435 117.03 138.538 Q142.027 187.032 156.025 232.026 L212.018 232.026 Z " />
<glyph glyph-name="question" unicode="&#x3f;" horiz-adv-x="463" d="M205 214 Q213 254 235 286.5 Q257 319 280.5 349 Q304 379 322 408.5 Q340 438 340 473 Q340 502 321.5 520 Q303 538 268 538 Q233 538 202 520.5 Q171 503 144 477 L102 518 Q121 547 148.5 570 Q176 593 207 608.5 Q238 624 272 632 Q306 640 339 640 Q381 640 415 629 Q449 618 473.5 599 Q498 580 511.5 553 Q525 526 525 495 Q525 459 511 432.5 Q497 406 474 385 Q451 364 422.5 346 Q394 328 365.5 309 Q337 290 311.5 267 Q286 244 269 214 L205 214 Z M178 -15 Q149 -15 130.5 2.5 Q112 20 112 46 Q112 66 121 84.5 Q130 103 144.5 117.5 Q159 132 178.5 140.5 Q198 149 219 149 Q248 149 266.5 131.5 Q285 114 285 88 Q285 68 276 49.5 Q267 31 252 16.5 Q237 2 218 -6.5 Q199 -15 178 -15 Z " />
<glyph glyph-name="questiondown" unicode="&#xbf;" horiz-adv-x="463" d="M324.025 232.026 Q316.026 192.031 294.029 159.535 Q272.031 127.039 248.534 97.0426 Q225.037 67.0463 207.039 37.5499 Q189.042 8.05347 189.042 -26.9423 Q189.042 -55.9387 207.539 -73.9365 Q226.037 -91.9343 261.033 -91.9343 Q296.028 -91.9343 327.025 -74.4365 Q358.021 -56.9386 385.018 -30.9418 L427.012 -71.9368 Q408.015 -100.933 380.518 -123.93 Q353.021 -146.928 322.025 -162.426 Q291.029 -177.924 257.033 -185.923 Q223.037 -193.922 190.041 -193.922 Q148.047 -193.922 114.051 -182.923 Q80.0548 -171.925 55.5578 -152.927 Q31.0608 -133.929 17.5624 -106.932 Q4.06409 -79.9358 4.06409 -48.9396 Q4.06409 -12.944 18.0624 13.5528 Q32.0607 40.0496 55.0579 61.047 Q78.0551 82.0444 106.552 100.042 Q135.048 118.04 163.545 137.038 Q192.041 156.035 217.538 179.033 Q243.035 202.03 260.033 232.026 L324.025 232.026 Z M351.022 460.998 Q380.018 460.998 398.516 443.5 Q417.014 426.002 417.014 400.006 Q417.014 380.008 408.015 361.51 Q399.016 343.013 384.518 328.514 Q370.019 314.016 350.522 305.517 Q331.024 297.018 310.027 297.018 Q281.03 297.018 262.533 314.516 Q244.035 332.014 244.035 358.011 Q244.035 378.008 253.034 396.506 Q262.033 415.004 277.031 429.502 Q292.029 444 311.027 452.499 Q330.024 460.998 351.022 460.998 Z " />
<glyph glyph-name="asterisk" unicode="&#x2a;" horiz-adv-x="411" d="M308 454 L369 435 Q399 426 414 417 Q429 408 429 391 Q429 375 415 357.5 Q401 340 380 340 Q367 340 355.5 350 Q344 360 325 380 L283 424 L287 372 Q288 363 288.5 352.5 Q289 342 289 331 Q289 308 276.5 288 Q264 268 236 268 Q218 268 210.5 277 Q203 286 203 297 Q203 311 208.5 326 Q214 341 225 361 L258 424 L198 380 Q168 357 152.5 349 Q137 341 124 341 Q110 341 101 350 Q92 359 92 373 Q92 396 113.5 409.5 Q135 423 179 435 L249 454 L188 473 Q158 482 143 491 Q128 500 128 517 Q128 533 142 550.5 Q156 568 177 568 Q190 568 201.5 558 Q213 548 232 528 L274 484 L270 536 Q269 545 268.5 555.5 Q268 566 268 577 Q268 600 280.5 620 Q293 640 321 640 Q339 640 346.5 631 Q354 622 354 611 Q354 597 348.5 582 Q343 567 332 547 L299 484 L359 528 Q389 551 404.5 559 Q420 567 433 567 Q447 567 456 558 Q465 549 465 535 Q465 512 443.5 498.5 Q422 485 378 473 L308 454 Z " />
<glyph glyph-name="period" unicode="&#x2e;" horiz-adv-x="252" d="M96 -15 Q66 -15 47.5 2.5 Q29 20 29 47 Q29 68 38 87 Q47 106 62.5 120.5 Q78 135 98 144 Q118 153 139 153 Q169 153 187.5 135.5 Q206 118 206 91 Q206 70 197 51 Q188 32 172.5 17.5 Q157 3 137 -6 Q117 -15 96 -15 Z " />
<glyph glyph-name="comma" unicode="&#x2c;" horiz-adv-x="252" d="M197 86 Q197 51 181.5 17.5 Q166 -16 140 -47 Q114 -78 78.5 -105 Q43 -132 3 -154 L-18 -119 Q29 -82 52.5 -55 Q76 -28 76 -5 Q76 7 69.5 15.5 Q63 24 55.5 33 Q48 42 41.5 52 Q35 62 35 77 Q35 92 42.5 107 Q50 122 62.5 133.5 Q75 145 91.5 152 Q108 159 127 159 Q163 159 180 136.5 Q197 114 197 86 Z " />
<glyph glyph-name="colon" unicode="&#x3a;" horiz-adv-x="252" d="M96 -15 Q66 -15 47.5 2.5 Q29 20 29 47 Q29 68 38 87 Q47 106 62.5 120.5 Q78 135 98 144 Q118 153 139 153 Q169 153 187.5 135.5 Q206 118 206 91 Q206 70 197 51 Q188 32 172.5 17.5 Q157 3 137 -6 Q117 -15 96 -15 Z M172 293 Q142 293 123.5 310.5 Q105 328 105 355 Q105 376 114 395 Q123 414 138.5 428.5 Q154 443 174 452 Q194 461 215 461 Q245 461 263.5 443.5 Q282 426 282 399 Q282 378 273 359 Q264 340 248.5 325.5 Q233 311 213 302 Q193 293 172 293 Z " />
<glyph glyph-name="semicolon" unicode="&#x3b;" horiz-adv-x="252" d="M172 293 Q142 293 123.5 310.5 Q105 328 105 355 Q105 376 114 395 Q123 414 138.5 428.5 Q154 443 174 452 Q194 461 215 461 Q245 461 263.5 443.5 Q282 426 282 399 Q282 378 273 359 Q264 340 248.5 325.5 Q233 311 213 302 Q193 293 172 293 Z M197 86 Q197 51 181.5 17.5 Q166 -16 140 -47 Q114 -78 78.5 -105 Q43 -132 3 -154 L-18 -119 Q29 -82 52.5 -55 Q76 -28 76 -5 Q76 7 69.5 15.5 Q63 24 55.5 33 Q48 42 41.5 52 Q35 62 35 77 Q35 92 42.5 107 Q50 122 62.5 133.5 Q75 145 91.5 152 Q108 159 127 159 Q163 159 180 136.5 Q197 114 197 86 Z " />
<glyph glyph-name="ellipsis" unicode="&#x2026;" horiz-adv-x="756" d="M96 -15 Q66 -15 47.5 2.5 Q29 20 29 47 Q29 68 38 87 Q47 106 62.5 120.5 Q78 135 98 144 Q118 153 139 153 Q169 153 187.5 135.5 Q206 118 206 91 Q206 70 197 51 Q188 32 172.5 17.5 Q157 3 137 -6 Q117 -15 96 -15 Z M348 -15 Q318 -15 299.5 2.5 Q281 20 281 47 Q281 68 290 87 Q299 106 314.5 120.5 Q330 135 350 144 Q370 153 391 153 Q421 153 439.5 135.5 Q458 118 458 91 Q458 70 449 51 Q440 32 424.5 17.5 Q409 3 389 -6 Q369 -15 348 -15 Z M600 -15 Q570 -15 551.5 2.5 Q533 20 533 47 Q533 68 542 87 Q551 106 566.5 120.5 Q582 135 602 144 Q622 153 643 153 Q673 153 691.5 135.5 Q710 118 710 91 Q710 70 701 51 Q692 32 676.5 17.5 Q661 3 641 -6 Q621 -15 600 -15 Z " />
<glyph glyph-name="periodcentered" unicode="&#xb7;" horiz-adv-x="252" d="M127 143 Q97 143 78.5 160.5 Q60 178 60 205 Q60 226 69 245 Q78 264 93.5 278.5 Q109 293 129 302 Q149 311 170 311 Q200 311 218.5 293.5 Q237 276 237 249 Q237 228 228 209 Q219 190 203.5 175.5 Q188 161 168 152 Q148 143 127 143 Z " />
<glyph glyph-name="uni22C5" unicode="&#x22c5;" horiz-adv-x="252" d="M127 143 Q97 143 78.5 160.5 Q60 178 60 205 Q60 226 69 245 Q78 264 93.5 278.5 Q109 293 129 302 Q149 311 170 311 Q200 311 218.5 293.5 Q237 276 237 249 Q237 228 228 209 Q219 190 203.5 175.5 Q188 161 168 152 Q148 143 127 143 Z " />
<glyph glyph-name="bullet" unicode="&#x2022;" horiz-adv-x="345" d="M171 97 Q124 97 98 122.5 Q72 148 72 188 Q72 217 84.5 245 Q97 273 118.5 294.5 Q140 316 168 329 Q196 342 226 342 Q273 342 299 316.5 Q325 291 325 251 Q325 222 312.5 194 Q300 166 278.5 144.5 Q257 123 229 110 Q201 97 171 97 Z " />
<glyph glyph-name="slash" unicode="&#x2f;" horiz-adv-x="362" d="M86 -15 L14 -15 L374 640 L448 640 L86 -15 Z " />
<glyph glyph-name="parenleft" unicode="&#x28;" horiz-adv-x="370" d="M242 -142 Q210 -116 182.5 -81.5 Q155 -47 135 -6.5 Q115 34 103.5 80 Q92 126 92 177 Q92 263 120 347.5 Q148 432 197 508.5 Q246 585 313 650.5 Q380 716 457 766 L502 729 Q446 673 401.5 598.5 Q357 524 326.5 440.5 Q296 357 279.5 269.5 Q263 182 263 101 Q263 45 271.5 -10 Q280 -65 298 -100 L242 -142 L242 -142 Z " />
<glyph glyph-name="brokenbar" unicode="&#xa6;" horiz-adv-x="256" d="M148 332 L239 710 L308 710 L217 332 L148 332 Z M5 -265 L95 113 L164 113 L73 -265 L5 -265 Z " />
<glyph glyph-name="parenright" unicode="&#x29;" horiz-adv-x="370" d="M234 766 Q266 740 293.5 705.5 Q321 671 341 630.5 Q361 590 372.5 544 Q384 498 384 447 Q384 361 356 276.5 Q328 192 279 115.5 Q230 39 163 -27 Q96 -93 19 -142 L-26 -105 Q30 -49 74.5 25.5 Q119 100 149.5 183.5 Q180 267 196.5 354.5 Q213 442 213 523 Q213 579 204.5 634 Q196 689 178 724 L234 766 Z " />
<glyph glyph-name="bracketleft" unicode="&#x5b;" horiz-adv-x="397" d="M33 -142 L251 766 L528 766 L514 705 L407 705 L216 -81 L323 -81 L309 -142 L33 -142 Z " />
<glyph glyph-name="backslash" unicode="&#x5c;" horiz-adv-x="340" d="M150 640 L217 640 L260 -15 L194 -15 L150 640 Z " />
<glyph glyph-name="bracketright" unicode="&#x5d;" horiz-adv-x="397" d="M459 766 L241 -142 L-36 -142 L-22 -81 L85 -81 L276 705 L169 705 L183 766 L459 766 Z " />
<glyph glyph-name="braceleft" unicode="&#x7b;" horiz-adv-x="361" d="M102 338 Q128 344 145.5 355 Q163 366 173.5 385.5 Q184 405 188 434 Q192 463 192 504 Q192 568 208 617 Q224 666 261.5 699 Q299 732 359 749 Q419 766 508 766 L498 724 Q462 718 438.5 707.5 Q415 697 401 678.5 Q387 660 381 632.5 Q375 605 375 565 Q375 509 366 469.5 Q357 430 335.5 401 Q314 372 277.5 351 Q241 330 187 312 Q246 294 273 266.5 Q300 239 300 198 Q300 162 287.5 129 Q275 96 259.5 66.5 Q244 37 231.5 11 Q219 -15 219 -36 Q219 -86 299 -100 L289 -142 Q171 -142 113.5 -106 Q56 -70 56 -7 Q56 24 69.5 56 Q83 88 98.5 118.5 Q114 149 127.5 178.5 Q141 208 141 235 Q141 275 89 286 L102 338 Z " />
<glyph glyph-name="bar" unicode="&#x7c;" horiz-adv-x="256" d="M5 -265 L239 710 L308 710 L73 -265 L5 -265 Z " />
<glyph glyph-name="braceright" unicode="&#x7d;" horiz-adv-x="361" d="M359 286 Q333 280 315.5 269 Q298 258 287.5 238.5 Q277 219 273 190 Q269 161 269 120 Q269 55 253 6 Q237 -43 199.5 -76 Q162 -109 101.5 -125.5 Q41 -142 -47 -142 L-37 -100 Q-1 -94 22.5 -83.5 Q46 -73 60 -54.5 Q74 -36 80 -8.5 Q86 19 86 59 Q86 115 95 154.5 Q104 194 125.5 223 Q147 252 183.5 273 Q220 294 274 312 Q215 330 188 357.5 Q161 385 161 426 Q161 462 173.5 495 Q186 528 201.5 557.5 Q217 587 229.5 613 Q242 639 242 660 Q242 710 162 724 L172 766 Q290 766 347.5 730 Q405 694 405 631 Q405 599 391.5 567.5 Q378 536 362.5 505.5 Q347 475 333.5 445.5 Q320 416 320 389 Q320 349 372 338 L359 286 Z " />
<glyph glyph-name="hyphen" unicode="&#x2d;" horiz-adv-x="306" d="M52 264 L319 264 L300 180 L33 180 L52 264 Z " />
<glyph glyph-name="uni00AD" unicode="&#xad;" horiz-adv-x="306" d="M52 264 L319 264 L300 180 L33 180 L52 264 Z " />
<glyph glyph-name="endash" unicode="&#x2013;" horiz-adv-x="500" d="M34 264 L534 264 L515 180 L15 180 L34 264 Z " />
<glyph glyph-name="emdash" unicode="&#x2014;" horiz-adv-x="1000" d="M34 264 L1034 264 L1015 180 L15 180 L34 264 Z " />
<glyph glyph-name="underscore" unicode="&#x5f;" horiz-adv-x="500" d="M-24 -182 L-10 -123 L440 -123 L426 -182 L-24 -182 Z " />
<glyph glyph-name="dagger" unicode="&#x2020;" horiz-adv-x="499" d="M270 352 Q258 352 240 347.5 Q222 343 201.5 337 Q181 331 161 326.5 Q141 322 126 322 Q100 322 84 335 Q68 348 68 368 Q68 401 94 417.5 Q120 434 152 434 Q168 434 186.5 429 Q205 424 222 418.5 Q239 413 255 408 Q271 403 283 403 Q286 415 284 430.5 Q282 446 279 462.5 Q276 479 273 496.5 Q270 514 270 530 Q270 572 294.5 601.5 Q319 631 359 631 Q387 631 400 617 Q413 603 413 583 Q413 556 402.5 534 Q392 512 378 491 Q364 470 349.5 449 Q335 428 328 403 Q340 403 358.5 407.5 Q377 412 397.5 418 Q418 424 438 428.5 Q458 433 474 433 Q497 433 513.5 423 Q530 413 530 393 Q530 358 504.5 339.5 Q479 321 445 321 Q430 321 412.5 326 Q395 331 377 336.5 Q359 342 343 347 Q327 352 315 352 Q315 340 315 322 Q315 304 316 285 Q317 266 317.5 248 Q318 230 319 220 Q310 201 297.5 172 Q285 143 270 102 Q255 61 238.5 7 Q222 -47 206 -116 L153 -116 Q185 19 193.5 101 Q202 183 203 221 Q209 229 218.5 245.5 Q228 262 238 281.5 Q248 301 256.5 320 Q265 339 270 352 Z " />
<glyph glyph-name="daggerdbl" unicode="&#x2021;" horiz-adv-x="443" d="M234 277 Q237 303 237.5 322.5 Q238 342 238 355 Q241 362 247 374.5 Q253 387 259.5 401 Q266 415 272.5 428.5 Q279 442 282 451 Q274 451 261 447.5 Q248 444 234 439.5 Q220 435 205.5 431.5 Q191 428 180 428 Q162 428 149.5 437 Q137 446 137 461 Q137 483 155 496.5 Q173 510 199 510 Q209 510 221.5 506.5 Q234 503 246.5 499 Q259 495 270.5 491.5 Q282 488 291 488 Q295 504 290.5 528.5 Q286 553 286 576 Q286 608 304 631.5 Q322 655 351 655 Q371 655 381 644 Q391 633 391 616 Q391 599 384 583.5 Q377 568 367 553 Q357 538 347 522 Q337 506 331 488 Q339 488 352 491.5 Q365 495 380 499 Q395 503 409.5 506.5 Q424 510 436 510 Q476 510 476 478 Q476 459 461 443.5 Q446 428 417 428 Q406 428 393.5 431.5 Q381 435 368 439.5 Q355 444 343 447.5 Q331 451 322 451 Q321 443 320.5 431 Q320 419 319.5 405.5 Q319 392 319.5 378.5 Q320 365 320 354 Q313 341 304 322 Q295 303 286 277 L234 277 Z M277 240 Q274 214 273.5 194.5 Q273 175 273 162 Q270 155 264 142.5 Q258 130 251.5 116 Q245 102 238.5 88.5 Q232 75 229 66 Q237 66 250 69.5 Q263 73 277 77.5 Q291 82 305.5 85.5 Q320 89 331 89 Q349 89 361.5 80 Q374 71 374 56 Q374 34 356 20.5 Q338 7 312 7 Q301 7 289 10.5 Q277 14 264.5 18 Q252 22 240.5 25.5 Q229 29 220 29 Q216 13 220.5 -11.5 Q225 -36 225 -59 Q225 -91 207 -114.5 Q189 -138 160 -138 Q140 -138 130 -127 Q120 -116 120 -99 Q120 -82 127 -66.5 Q134 -51 144 -36 Q154 -21 164 -5 Q174 11 180 29 Q172 29 159 25.5 Q146 22 131 18 Q116 14 101.5 10.5 Q87 7 75 7 Q35 7 35 39 Q35 58 50 73.5 Q65 89 94 89 Q105 89 117.5 85.5 Q130 82 143 77.5 Q156 73 168 69.5 Q180 66 189 66 Q190 73 190.5 85.5 Q191 98 191.5 111.5 Q192 125 191.5 138.5 Q191 152 191 163 Q198 176 207 195 Q216 214 225 240 L277 240 Z " />
<glyph glyph-name="section" unicode="&#xa7;" horiz-adv-x="475" d="M517 614 Q513 602 508 583 Q503 564 497.5 543.5 Q492 523 487.5 504 Q483 485 480 472 L427 472 Q425 526 408 549.5 Q391 573 358 573 Q335 573 317.5 561.5 Q300 550 300 529 Q300 514 313 502 Q326 490 345 478 Q364 466 386.5 453 Q409 440 428 423 Q447 406 460 383.5 Q473 361 473 330 Q473 272 435.5 231.5 Q398 191 332 174 Q347 164 360.5 153 Q374 142 384.5 128 Q395 114 401 97 Q407 80 407 59 Q407 22 391 -8.5 Q375 -39 345.5 -60.5 Q316 -82 274.5 -94 Q233 -106 183 -106 Q145 -106 98.5 -97.5 Q52 -89 15 -75 Q19 -62 24 -43 Q29 -24 34.5 -4.5 Q40 15 44.5 34 Q49 53 52 67 L106 67 Q108 19 129.5 -10 Q151 -39 190 -39 Q216 -39 233 -26.5 Q250 -14 250 5 Q250 19 237 29.5 Q224 40 205 50.5 Q186 61 163.5 73 Q141 85 122 102.5 Q103 120 90 143.5 Q77 167 77 201 Q77 252 111 294.5 Q145 337 209 356 Q182 375 162.5 402 Q143 429 143 472 Q143 505 158 535.5 Q173 566 201.5 589.5 Q230 613 271 626.5 Q312 640 365 640 Q382 640 402.5 638 Q423 636 443.5 632.5 Q464 629 483 624.5 Q502 620 517 614 Z M322 276 Q322 286 313.5 297 Q305 308 284 308 Q259 308 243.5 292 Q228 276 228 258 Q228 248 236.5 237 Q245 226 266 226 Q291 226 306.5 242 Q322 258 322 276 Z " />
<glyph glyph-name="paragraph" unicode="&#xb6;" horiz-adv-x="543" d="M637 625 L627 584 L560 566 L398 -106 L294 -106 L456 562 L409 562 L247 -106 L143 -106 L238 287 Q162 289 126 325 Q90 361 90 418 Q90 459 107 494.5 Q124 530 153 557 Q188 589 241 607 Q294 625 360 625 L637 625 Z " />
<glyph glyph-name="registered" unicode="&#xae;" horiz-adv-x="702" d="M708 314 Q708 246 682.5 186.5 Q657 127 613 82.5 Q569 38 509.5 12 Q450 -14 382 -14 Q315 -14 256 12 Q197 38 153 82.5 Q109 127 83.5 186.5 Q58 246 58 314 Q58 381 83.5 440.5 Q109 500 153 544.5 Q197 589 256 614.5 Q315 640 382 640 Q450 640 509.5 614.5 Q569 589 613 544.5 Q657 500 682.5 440.5 Q708 381 708 314 Z M632 314 Q632 368 613.5 417 Q595 466 561.5 502.5 Q528 539 482 560.5 Q436 582 382 582 Q328 582 282 560.5 Q236 539 202.5 502.5 Q169 466 150.5 417 Q132 368 132 314 Q132 259 150.5 210.5 Q169 162 202.5 125.5 Q236 89 282 68 Q328 47 382 47 Q436 47 482 68 Q528 89 561.5 125.5 Q595 162 613.5 210.5 Q632 259 632 314 Z M358 234 Q358 219 360.5 210 Q363 201 379 196 L390 193 L390 176 Q384 176 373.5 176.5 Q363 177 351.5 177 Q340 177 329.5 177 Q319 177 313 177 Q308 177 297 177 Q286 177 274 176.5 Q262 176 251.5 176 Q241 176 237 176 L237 193 L269 203 L269 417 Q269 432 266.5 441 Q264 450 248 455 L237 457 L237 475 L378 475 Q447 475 475 456 Q503 437 503 395 Q503 369 485.5 351 Q468 333 438 323 Q461 317 470.5 308 Q480 299 487 278 L500 232 Q506 213 513.5 204.5 Q521 196 540 193 L540 176 L423 176 Q423 196 414 223 L400 272 Q395 290 388.5 296 Q382 302 369 302 L358 302 L358 234 Z M413 389 Q413 424 400 437 Q394 445 385.5 447 Q377 449 366 449 L358 449 L358 327 L373 327 Q397 327 405 346.5 Q413 366 413 389 Z " />
<glyph glyph-name="copyright" unicode="&#xa9;" horiz-adv-x="702" d="M498 223 Q481 192 453.5 175 Q426 158 384 158 Q312 158 275 199.5 Q238 241 238 310 Q238 385 278.5 427.5 Q319 470 395 470 Q421 470 441.5 467 Q462 464 485 462 L488 371 L462 371 Q457 407 443 423.5 Q429 440 404 440 Q370 440 353 406 Q336 372 336 314 Q336 251 355.5 225.5 Q375 200 405 200 Q425 200 443 208.5 Q461 217 476 238 L498 223 Z M708 314 Q708 246 682.5 186.5 Q657 127 613 82.5 Q569 38 509.5 12 Q450 -14 382 -14 Q315 -14 256 12 Q197 38 153 82.5 Q109 127 83.5 186.5 Q58 246 58 314 Q58 381 83.5 440.5 Q109 500 153 544.5 Q197 589 256 614.5 Q315 640 382 640 Q450 640 509.5 614.5 Q569 589 613 544.5 Q657 500 682.5 440.5 Q708 381 708 314 Z M632 314 Q632 368 613.5 417 Q595 466 561.5 502.5 Q528 539 482 560.5 Q436 582 382 582 Q328 582 282 560.5 Q236 539 202.5 502.5 Q169 466 150.5 417 Q132 368 132 314 Q132 259 150.5 210.5 Q169 162 202.5 125.5 Q236 89 282 68 Q328 47 382 47 Q436 47 482 68 Q528 89 561.5 125.5 Q595 162 613.5 210.5 Q632 259 632 314 Z " />
<glyph glyph-name="trademark" unicode="&#x2122;" horiz-adv-x="749" d="M442 625 L582 625 L605 467 L710 625 L845 625 L838 595 L806 587 L763 410 Q760 398 760 393 Q760 386 765 382.5 Q770 379 788 374 L781 344 Q776 344 763.5 344 Q751 344 737.5 344.5 Q724 345 712 345 Q700 345 695 345 Q690 345 680 345 Q670 345 659.5 344.5 Q649 344 639 344 Q629 344 625 344 L632 374 L664 382 L697 524 L576 342 L533 342 L503 529 L474 410 Q471 398 471 393 Q471 386 476 382.5 Q481 379 499 374 L492 344 Q481 344 463.5 344.5 Q446 345 435 345 Q424 345 405.5 344.5 Q387 344 378 344 L385 374 L417 382 L460 559 Q463 571 463 576 Q463 583 458 586.5 Q453 590 435 595 L442 625 Z M179 382 L231 596 L222 596 Q202 596 189.5 584.5 Q177 573 163 544 L126 544 Q128 550 131 561 Q134 572 137.5 584 Q141 596 143.5 607.5 Q146 619 148 625 L421 625 L403 544 L367 544 Q366 572 360 584 Q354 596 331 596 L325 596 L280 410 Q277 398 277 393 Q277 386 282 382.5 Q287 379 305 374 L298 344 Q293 344 281.5 344 Q270 344 257 344.5 Q244 345 232.5 345 Q221 345 216 345 Q211 345 200 345 Q189 345 177 344.5 Q165 344 154.5 344 Q144 344 140 344 L147 374 L179 382 Z " />
<glyph glyph-name="quotedblleft" unicode="&#x201c;" horiz-adv-x="432" d="M96 400 Q96 435 111.5 468.5 Q127 502 153 533 Q179 564 214.5 591 Q250 618 290 640 L311 605 Q264 568 240.5 541 Q217 514 217 491 Q217 479 223.5 470.5 Q230 462 237.5 453 Q245 444 251.5 434 Q258 424 258 409 Q258 394 250.5 379 Q243 364 230.5 352.5 Q218 341 201.5 334 Q185 327 166 327 Q130 327 113 349.5 Q96 372 96 400 Z M306 400 Q306 435 321.5 468.5 Q337 502 363 533 Q389 564 424.5 591 Q460 618 500 640 L521 605 Q474 568 450.5 541 Q427 514 427 491 Q427 479 433.5 470.5 Q440 462 447.5 453 Q455 444 461.5 434 Q468 424 468 409 Q468 394 460.5 379 Q453 364 440.5 352.5 Q428 341 411.5 334 Q395 327 376 327 Q340 327 323 349.5 Q306 372 306 400 Z " />
<glyph glyph-name="quotedblright" unicode="&#x201d;" horiz-adv-x="432" d="M511 567 Q511 532 495.5 498.5 Q480 465 454 434 Q428 403 392.5 376 Q357 349 317 327 L296 362 Q343 399 366.5 426 Q390 453 390 476 Q390 488 383.5 496.5 Q377 505 369.5 514 Q362 523 355.5 533 Q349 543 349 558 Q349 573 356.5 588 Q364 603 376.5 614.5 Q389 626 405.5 633 Q422 640 441 640 Q477 640 494 617.5 Q511 595 511 567 Z M301 567 Q301 532 285.5 498.5 Q270 465 244 434 Q218 403 182.5 376 Q147 349 107 327 L86 362 Q133 399 156.5 426 Q180 453 180 476 Q180 488 173.5 496.5 Q167 505 159.5 514 Q152 523 145.5 533 Q139 543 139 558 Q139 573 146.5 588 Q154 603 166.5 614.5 Q179 626 195.5 633 Q212 640 231 640 Q267 640 284 617.5 Q301 595 301 567 Z " />
<glyph glyph-name="quoteleft" unicode="&#x2018;" horiz-adv-x="222" d="M96 400 Q96 435 111.5 468.5 Q127 502 153 533 Q179 564 214.5 591 Q250 618 290 640 L311 605 Q264 568 240.5 541 Q217 514 217 491 Q217 479 223.5 470.5 Q230 462 237.5 453 Q245 444 251.5 434 Q258 424 258 409 Q258 394 250.5 379 Q243 364 230.5 352.5 Q218 341 201.5 334 Q185 327 166 327 Q130 327 113 349.5 Q96 372 96 400 Z " />
<glyph glyph-name="quoteright" unicode="&#x2019;" horiz-adv-x="222" d="M301 567 Q301 532 285.5 498.5 Q270 465 244 434 Q218 403 182.5 376 Q147 349 107 327 L86 362 Q133 399 156.5 426 Q180 453 180 476 Q180 488 173.5 496.5 Q167 505 159.5 514 Q152 523 145.5 533 Q139 543 139 558 Q139 573 146.5 588 Q154 603 166.5 614.5 Q179 626 195.5 633 Q212 640 231 640 Q267 640 284 617.5 Q301 595 301 567 Z " />
<glyph glyph-name="guillemotleft" unicode="&#xab;" horiz-adv-x="511" d="M262 413 L301 373 L196 222 L234 70 L172 25 L51 221 L262 413 Z M472 413 L510 373 L406 222 L444 70 L381 25 L260 221 L472 413 Z " />
<glyph glyph-name="guillemotright" unicode="&#xbb;" horiz-adv-x="511" d="M296 25 L257 65 L362 216 L324 368 L386 413 L507 217 L296 25 Z M86 25 L48 65 L152 216 L114 368 L177 413 L298 217 L86 25 Z " />
<glyph glyph-name="guilsinglleft" unicode="&#x2039;" horiz-adv-x="302" d="M263 413 L301 373 L197 222 L235 70 L172 25 L51 221 L263 413 Z " />
<glyph glyph-name="guilsinglright" unicode="&#x203a;" horiz-adv-x="302" d="M86 25 L48 65 L152 216 L114 368 L177 413 L298 217 L86 25 Z " />
<glyph glyph-name="quotesinglbase" unicode="&#x201a;" horiz-adv-x="222" d="M177 63 Q177 28 161.5 -5.5 Q146 -39 120 -70 Q94 -101 58.5 -128 Q23 -155 -17 -177 L-38 -142 Q9 -105 32.5 -78 Q56 -51 56 -28 Q56 -16 49.5 -7.5 Q43 1 35.5 10 Q28 19 21.5 29 Q15 39 15 54 Q15 69 22.5 84 Q30 99 42.5 110.5 Q55 122 71.5 129 Q88 136 107 136 Q143 136 160 113.5 Q177 91 177 63 Z " />
<glyph glyph-name="quotedblbase" unicode="&#x201e;" horiz-adv-x="432" d="M387 63 Q387 28 371.5 -5.5 Q356 -39 330 -70 Q304 -101 268.5 -128 Q233 -155 193 -177 L172 -142 Q219 -105 242.5 -78 Q266 -51 266 -28 Q266 -16 259.5 -7.5 Q253 1 245.5 10 Q238 19 231.5 29 Q225 39 225 54 Q225 69 232.5 84 Q240 99 252.5 110.5 Q265 122 281.5 129 Q298 136 317 136 Q353 136 370 113.5 Q387 91 387 63 Z M177 63 Q177 28 161.5 -5.5 Q146 -39 120 -70 Q94 -101 58.5 -128 Q23 -155 -17 -177 L-38 -142 Q9 -105 32.5 -78 Q56 -51 56 -28 Q56 -16 49.5 -7.5 Q43 1 35.5 10 Q28 19 21.5 29 Q15 39 15 54 Q15 69 22.5 84 Q30 99 42.5 110.5 Q55 122 71.5 129 Q88 136 107 136 Q143 136 160 113.5 Q177 91 177 63 Z " />
<glyph glyph-name="fi" unicode="&#xfb01;" horiz-adv-x="626" d="M155 -220 L-15 -220 L136 385 L75 385 L90 444 L151 444 Q188 557 259 618.5 Q330 680 444 680 Q480 680 514.5 672.5 Q549 665 576 652 Q603 639 619 621.5 Q635 604 635 584 Q635 568 627 552 Q619 536 606 523.5 Q593 511 576.5 503.5 Q560 496 543 496 Q519 496 508.5 514.5 Q498 533 489.5 555.5 Q481 578 469.5 596.5 Q458 615 432 615 Q397 615 370 573.5 Q343 532 321 444 L406 444 Q430 444 459.5 444.5 Q489 445 517.5 446 Q546 447 572.5 449 Q599 451 617 453 L630 441 L552 141 Q545 113 545 101 Q545 76 571 76 Q584 76 599 81 L588 32 Q562 14 525.5 1 Q489 -12 455 -12 Q418 -12 395 8.5 Q372 29 372 71 Q372 100 382 140 L433 333 Q436 345 436 355 Q436 368 425 376.5 Q414 385 389 385 L306 385 L155 -220 Z " />
<glyph glyph-name="fl" unicode="&#xfb02;" horiz-adv-x="636" d="M566 140 Q559 112 559 100 Q559 75 585 75 Q598 75 613 80 L602 31 Q576 13 539.5 0.5 Q503 -12 469 -12 Q432 -12 409 8.5 Q386 29 386 71 Q386 100 396 140 L514 603 Q490 614 463 614 Q415 614 379.5 575 Q344 536 320 444 L431 444 L407 385 L305 385 L155 -220 L-15 -220 L136 385 L75 385 L90 444 L151 444 Q183 559 254 619.5 Q325 680 442 680 Q491 680 531 674 Q571 668 617 668 Q636 668 654.5 670 Q673 672 686 674 L699 662 L566 140 Z " />
<glyph glyph-name="f_f" unicode="&#xfb00;" horiz-adv-x="692" d="M151 444 Q167 493 192.5 534 Q218 575 253.5 604.5 Q289 634 335 650.5 Q381 667 439 667 Q482 667 519 654.5 Q556 642 580 623 Q614 651 656.5 665.5 Q699 680 747 680 Q817 680 858.5 658.5 Q900 637 900 606 Q900 591 892 575.5 Q884 560 871.5 548 Q859 536 844.5 528 Q830 520 817 520 Q799 520 787.5 534.5 Q776 549 766.5 566.5 Q757 584 748 598.5 Q739 613 726 613 Q714 613 703.5 600 Q693 587 683 564.5 Q673 542 663.5 511 Q654 480 645 444 L757 444 L732 385 L630 385 L484 -206 L314 -206 L461 385 L305 385 L155 -220 L-15 -220 L136 385 L75 385 L90 444 L151 444 Z M476 444 Q490 486 505 519 Q498 533 490.5 547.5 Q483 562 474 573.5 Q465 585 454 592.5 Q443 600 429 600 Q414 600 399 592.5 Q384 585 370.5 567 Q357 549 344.5 519 Q332 489 320 444 L476 444 Z " />
<glyph glyph-name="f_f_i" unicode="&#xfb03;" horiz-adv-x="951" d="M484 -206 L314 -206 L461 385 L305 385 L155 -220 L-15 -220 L136 385 L75 385 L90 444 L151 444 Q167 493 192.5 534 Q218 575 253.5 604.5 Q289 634 335 650.5 Q381 667 439 667 Q484 667 522.5 653 Q561 639 585 619 Q657 680 769 680 Q805 680 839.5 672.5 Q874 665 901 652 Q928 639 944 621.5 Q960 604 960 584 Q960 568 952 552 Q944 536 931 523.5 Q918 511 901.5 503.5 Q885 496 868 496 Q844 496 833.5 514.5 Q823 533 814.5 555.5 Q806 578 794.5 596.5 Q783 615 757 615 Q722 615 695 573.5 Q668 532 646 444 L731 444 Q755 444 784.5 444.5 Q814 445 842.5 446 Q871 447 897.5 449 Q924 451 942 453 L955 441 L877 141 Q870 113 870 101 Q870 76 896 76 Q909 76 924 81 L913 32 Q887 14 850.5 1 Q814 -12 780 -12 Q743 -12 720 8.5 Q697 29 697 71 Q697 100 707 140 L758 333 Q761 345 761 355 Q761 368 750 376.5 Q739 385 714 385 L630 385 L484 -206 Z M429 600 Q414 600 399 592.5 Q384 585 370.5 567 Q357 549 344.5 519 Q332 489 320 444 L476 444 Q483 464 490.5 482.5 Q498 501 506 518 Q498 532 490.5 546.5 Q483 561 474 573 Q465 585 454 592.5 Q443 600 429 600 Z " />
<glyph glyph-name="f_f_l" unicode="&#xfb04;" horiz-adv-x="961" d="M757 444 L732 385 L630 385 L484 -206 L314 -206 L461 385 L305 385 L155 -220 L-15 -220 L136 385 L75 385 L90 444 L151 444 Q167 493 192.5 534 Q218 575 253.5 604.5 Q289 634 335 650.5 Q381 667 439 667 Q483 667 520.5 654 Q558 641 582 622 Q654 680 767 680 Q816 680 856 674 Q896 668 942 668 Q961 668 979.5 670 Q998 672 1011 674 L1024 662 L891 140 Q884 112 884 100 Q884 75 910 75 Q923 75 938 80 L927 31 Q901 13 864.5 0.5 Q828 -12 794 -12 Q757 -12 734 8.5 Q711 29 711 71 Q711 100 721 140 L839 603 Q815 614 788 614 Q740 614 704.5 575 Q669 536 645 444 L757 444 Z M429 600 Q414 600 399 592.5 Q384 585 370.5 567 Q357 549 344.5 519 Q332 489 320 444 L476 444 Q481 465 488.5 484.5 Q496 504 504 521 Q497 534 489.5 548.5 Q482 563 473 574 Q464 585 453.5 592.5 Q443 600 429 600 Z " />
<glyph glyph-name="grave" unicode="&#x60;" horiz-adv-x="320" d="M164 612 L194 655 Q209 676 230 676 Q250 676 269 657 L395 524 L375 496 L167 596 L164 612 Z " />
<glyph glyph-name="acute" unicode="&#xb4;" horiz-adv-x="320" d="M391 595 L138 496 L123 524 L300 658 Q312 667 323 672.5 Q334 678 345 678 Q356 678 362.5 672.5 Q369 667 375 656 L397 611 L391 595 Z " />
<glyph glyph-name="dieresis" unicode="&#xa8;" horiz-adv-x="320" d="M154 496 Q131 496 116 510 Q101 524 101 545 Q101 561 108.5 576.5 Q116 592 128 604 Q140 616 156 623 Q172 630 189 630 Q213 630 227.5 616 Q242 602 242 581 Q242 564 234.5 549 Q227 534 215 522 Q203 510 187 503 Q171 496 154 496 Z M340 496 Q317 496 302 510 Q287 524 287 545 Q287 561 294.5 576.5 Q302 592 314 604 Q326 616 342 623 Q358 630 375 630 Q399 630 413.5 616 Q428 602 428 581 Q428 564 420.5 549 Q413 534 401 522 Q389 510 373 503 Q357 496 340 496 Z " />
<glyph glyph-name="circumflex" unicode="&#x2c6;" horiz-adv-x="320" d="M397 500 L285 580 L150 497 L120 515 L261 663 L352 663 L426 510 L397 500 Z " />
<glyph glyph-name="tilde" unicode="&#x2dc;" horiz-adv-x="320" d="M302 503 Q282 503 267 508 Q252 513 238 519.5 Q224 526 210.5 531 Q197 536 181 536 Q161 536 148 526 Q135 516 127 502 L92 513 Q113 568 148 598 Q183 628 221 628 Q240 628 255.5 623 Q271 618 285 611.5 Q299 605 312.5 600 Q326 595 342 595 Q362 595 375 605 Q388 615 396 629 L431 618 Q410 563 375 533 Q340 503 302 503 Z " />
<glyph glyph-name="macron" unicode="&#xaf;" horiz-adv-x="320" d="M142 522 L159 594 L393 594 L376 522 L142 522 Z " />
<glyph glyph-name="breve" unicode="&#x2d8;" horiz-adv-x="320" d="M410 640 Q404 613 390 589 Q376 565 356 547 Q336 529 310.5 518.5 Q285 508 255 508 Q206 508 179.5 535.5 Q153 563 154 605 Q154 624 158 640 L204 640 Q206 614 225 600.5 Q244 587 272 587 Q301 587 326 601 Q351 615 365 640 L410 640 L410 640 Z " />
<glyph glyph-name="dotaccent" unicode="&#x2d9;" horiz-adv-x="320" d="M247 500 Q218 500 202.5 517.5 Q187 535 187 561 Q187 579 195.5 595.5 Q204 612 217.5 624.5 Q231 637 248.5 645 Q266 653 284 653 Q313 653 328.5 635.5 Q344 618 344 592 Q344 574 335.5 557.5 Q327 541 313.5 528.5 Q300 516 282.5 508 Q265 500 247 500 Z " />
<glyph glyph-name="ring" unicode="&#x2da;" horiz-adv-x="320" d="M262 546 Q285 546 302 565.5 Q319 585 319 609 Q319 626 309.5 635 Q300 644 285 644 Q262 644 245 624.5 Q228 605 228 581 Q228 564 237.5 555 Q247 546 262 546 Z M254 499 Q219 499 196.5 522 Q174 545 174 577 Q174 600 183.5 620.5 Q193 641 209.5 657 Q226 673 247.5 682 Q269 691 293 691 Q328 691 350.5 668.5 Q373 646 373 614 Q373 591 363.5 570 Q354 549 337.5 533.5 Q321 518 299.5 508.5 Q278 499 254 499 Z " />
<glyph glyph-name="cedilla" unicode="&#xb8;" horiz-adv-x="320" d="M225 -104 Q225 -139 206 -165.5 Q187 -192 157 -209.5 Q127 -227 89 -235.5 Q51 -244 13 -242 L8 -201 Q56 -192 91 -170 Q126 -148 126 -115 Q126 -99 116.5 -93 Q107 -87 94 -84 Q86 -82 78.5 -80.5 Q71 -79 66.5 -77 Q62 -75 60.5 -70.5 Q59 -66 64 -58 L108 16 L181 16 L154 -31 Q186 -37 205.5 -54.5 Q225 -72 225 -104 Z " />
<glyph glyph-name="hungarumlaut" unicode="&#x2dd;" horiz-adv-x="320" d="M266 601 L59 487 L43 510 L181 653 Q194 666 204 671 Q214 676 223 676 Q242 676 252 656 L272 616 L266 601 Z M456 601 L249 487 L233 510 L371 653 Q384 666 394 671 Q404 676 413 676 Q432 676 442 656 L462 616 L456 601 Z " />
<glyph glyph-name="ogonek" unicode="&#x2db;" horiz-adv-x="320" d="M216 -208 Q200 -220 170.5 -231 Q141 -242 108 -242 Q63 -242 36.5 -218 Q10 -194 10 -156 Q10 -126 26 -98 Q42 -70 69.5 -46 Q97 -22 134.5 -3 Q172 16 215 28 L226 0 Q202 -10 181.5 -26 Q161 -42 146 -60.5 Q131 -79 122 -99.5 Q113 -120 113 -140 Q113 -159 123.5 -169.5 Q134 -180 152 -180 Q166 -180 179 -176.5 Q192 -173 203 -168 L216 -208 Z " />
<glyph glyph-name="caron" unicode="&#x2c7;" horiz-adv-x="320" d="M158 660 L270 580 L405 663 L435 645 L294 497 L203 497 L129 650 L158 660 Z " />
<glyph glyph-name="commaaccent" unicode="&#xf6c3;" horiz-adv-x="320" d="M197 -105 Q197 -136 184 -165.5 Q171 -195 148 -221.5 Q125 -248 94 -272 Q63 -296 28 -315 L10 -285 Q51 -253 71 -229 Q91 -205 91 -185 Q91 -175 85.5 -167 Q80 -159 73.5 -151.5 Q67 -144 61.5 -135 Q56 -126 56 -113 Q56 -86 79.5 -64 Q103 -42 136 -42 Q168 -42 182.5 -61.5 Q197 -81 197 -105 Z " />
<glyph glyph-name="zero" unicode="0" horiz-adv-x="570" d="M66 198 Q66 238 73.5 282.5 Q81 327 96.5 371 Q112 415 135 457 Q158 499 188 534 Q229 581 284 610.5 Q339 640 407 640 Q456 640 493 623.5 Q530 607 554.5 578.5 Q579 550 591 511 Q603 472 603 427 Q603 387 595 342.5 Q587 298 571.5 253.5 Q556 209 533 167 Q510 125 480 90 Q439 43 384.5 14 Q330 -15 262 -15 Q212 -15 175.5 1.5 Q139 18 114.5 46.5 Q90 75 78 114 Q66 153 66 198 Z M430 502 Q430 535 422 555 Q414 575 397 575 Q378 575 358.5 551 Q339 527 321.5 488 Q304 449 289 400 Q274 351 263 301 Q252 251 245.5 204 Q239 157 239 123 Q239 90 247 70 Q255 50 272 50 Q291 50 310.5 74 Q330 98 347.5 137 Q365 176 380 225 Q395 274 406 324 Q417 374 423.5 421 Q430 468 430 502 Z " />
<glyph glyph-name="one" unicode="1" horiz-adv-x="570" d="M117 41 L196 60 L292 460 Q295 472 295 482 Q295 504 277.5 516 Q260 528 219 539 L228 580 Q291 583 347 595.5 Q403 608 435 630 L506 630 L377 94 Q375 84 375 80 Q375 65 389 56.5 Q403 48 444 41 L435 0 Q423 1 401.5 1.5 Q380 2 356 2.5 Q332 3 310.5 3 Q289 3 278 3 Q267 3 242.5 2.5 Q218 2 191 1.5 Q164 1 140.5 0.5 Q117 0 108 0 L117 41 Z " />
<glyph glyph-name="two" unicode="2" horiz-adv-x="570" d="M501 189 Q496 172 490 148.5 Q484 125 478 98.5 Q472 72 466 46.5 Q460 21 456 0 L63 0 L42 40 Q141 122 208 183.5 Q275 245 316 293.5 Q357 342 374.5 381 Q392 420 392 456 Q392 492 372 514.5 Q352 537 314 537 Q282 537 251.5 520.5 Q221 504 195 473 L152 507 Q189 565 248 602.5 Q307 640 387 640 Q429 640 463.5 628 Q498 616 522.5 594.5 Q547 573 560.5 542.5 Q574 512 574 476 Q574 416 542 370 Q510 324 461.5 284.5 Q413 245 356 208.5 Q299 172 250 132 L354 132 Q371 132 386.5 133 Q402 134 415 140 Q428 146 439 158.5 Q450 171 458 193 L501 189 Z " />
<glyph glyph-name="three" unicode="3" horiz-adv-x="570" d="M239 49 Q258 49 276 62 Q294 75 307.5 96.5 Q321 118 329.5 147.5 Q338 177 338 210 Q338 258 309 280 Q280 302 221 307 L233 358 Q307 362 352.5 394 Q398 426 398 471 Q398 501 379 519 Q360 537 327 537 Q293 537 262.5 520.5 Q232 504 207 475 L162 507 Q200 569 258.5 604.5 Q317 640 386 640 Q429 640 464.5 628 Q500 616 523 593 Q542 574 553 548.5 Q564 523 564 491 Q564 440 528 400 Q492 360 427 340 Q473 321 498 288 Q523 255 523 205 Q523 158 500.5 118 Q478 78 439.5 48.5 Q401 19 350.5 2 Q300 -15 244 -15 Q197 -15 163.5 -7 Q130 1 108.5 13.5 Q87 26 76.5 42.5 Q66 59 66 77 Q66 92 72.5 106 Q79 120 89.5 131 Q100 142 113.5 148.5 Q127 155 141 155 Q160 155 170 138.5 Q180 122 189 102 Q198 82 208.5 65.5 Q219 49 239 49 Z " />
<glyph glyph-name="four" unicode="4" horiz-adv-x="570" d="M481 226 L552 226 L529 133 L459 133 L450 94 Q448 84 448 80 Q448 65 462 56.5 Q476 48 517 41 L508 0 Q496 1 474.5 1.5 Q453 2 429 2.5 Q405 3 383.5 3 Q362 3 351 3 Q340 3 316 2.5 Q292 2 266 1.5 Q240 1 217 0.5 Q194 0 185 0 L194 41 L269 60 L286 133 L58 133 L40 175 L439 625 L578 625 L481 226 Z M169 226 L308 226 L361 442 L169 226 Z " />
<glyph glyph-name="five" unicode="5" horiz-adv-x="570" d="M215 -15 Q177 -15 147 -7 Q117 1 97 14 Q77 27 66.5 44 Q56 61 56 79 Q56 92 62 105.5 Q68 119 78 129.5 Q88 140 102 146.5 Q116 153 131 153 Q144 153 151.5 145.5 Q159 138 164.5 126 Q170 114 174.5 101 Q179 88 185.5 76 Q192 64 201.5 56.5 Q211 49 227 49 Q254 49 275.5 71.5 Q297 94 311.5 127 Q326 160 334 197 Q342 234 342 263 Q342 305 325 323.5 Q308 342 281 342 Q262 342 242.5 331 Q223 320 208 303 L154 317 L228 625 L574 625 L535 493 L266 493 L240 383 Q258 395 283.5 403 Q309 411 341 411 Q386 411 419.5 398 Q453 385 475 362 Q497 339 508 308.5 Q519 278 519 243 Q519 192 498.5 145.5 Q478 99 439 63.5 Q400 28 343.5 6.5 Q287 -15 215 -15 Z " />
<glyph glyph-name="six" unicode="6" horiz-adv-x="570" d="M568 597 Q505 565 443.5 510.5 Q382 456 336 383 Q352 388 369.5 390 Q387 392 401 392 Q473 392 516.5 355 Q560 318 560 245 Q560 194 540.5 147 Q521 100 485 64 Q449 28 398.5 6.5 Q348 -15 287 -15 Q242 -15 204 -2.5 Q166 10 139 34.5 Q112 59 96.5 94.5 Q81 130 81 177 Q81 243 117.5 313 Q154 383 217.5 446.5 Q281 510 366.5 561.5 Q452 613 551 641 L568 597 Z M338 319 Q329 319 318.5 317.5 Q308 316 299 313 Q280 269 268.5 218.5 Q257 168 257 122 Q257 82 268.5 66.5 Q280 51 295 51 Q313 51 329.5 72.5 Q346 94 358.5 126 Q371 158 378.5 194 Q386 230 386 259 Q386 288 375.5 303.5 Q365 319 338 319 Z " />
<glyph glyph-name="seven" unicode="7" horiz-adv-x="570" d="M616 592 L298 0 L116 0 L467 493 L291 493 Q268 493 252 490.5 Q236 488 224.5 481.5 Q213 475 204.5 463 Q196 451 189 432 L146 436 Q151 452 157.5 476 Q164 500 171 526.5 Q178 553 184 578.5 Q190 604 195 625 L594 625 L616 592 Z " />
<glyph glyph-name="eight" unicode="8" horiz-adv-x="570" d="M177 448 Q177 486 194.5 521 Q212 556 244 582.5 Q276 609 320.5 624.5 Q365 640 419 640 Q500 640 549.5 605 Q599 570 599 507 Q599 479 587.5 455 Q576 431 556.5 410.5 Q537 390 511 373 Q485 356 456 342 Q474 326 490.5 309.5 Q507 293 520 274.5 Q533 256 541 234 Q549 212 549 186 Q549 145 531 109 Q513 73 478.5 45 Q444 17 393.5 1 Q343 -15 278 -15 Q230 -15 191 -3.5 Q152 8 124 29 Q96 50 81 78.5 Q66 107 66 142 Q66 201 111 247 Q156 293 228 319 Q209 343 193 374.5 Q177 406 177 448 Z M379 132 Q379 167 351.5 198 Q324 229 285 260 Q254 241 234 210 Q214 179 214 139 Q214 100 234.5 75.5 Q255 51 290 51 Q308 51 324 57.5 Q340 64 352 75.5 Q364 87 371.5 101.5 Q379 116 379 132 Z M467 517 Q467 544 452.5 560.5 Q438 577 414 577 Q388 577 367.5 554 Q347 531 347 493 Q347 464 361 440 Q375 416 397 395 Q424 416 445.5 448.5 Q467 481 467 517 Z " />
<glyph glyph-name="nine" unicode="9" horiz-adv-x="570" d="M102 28 Q165 60 226.5 114.5 Q288 169 334 242 Q318 237 300.5 235 Q283 233 269 233 Q197 233 153.5 270 Q110 307 110 380 Q110 431 129.5 478 Q149 525 185 561 Q221 597 271.5 618.5 Q322 640 383 640 Q428 640 466 627.5 Q504 615 531 590.5 Q558 566 573.5 530 Q589 494 589 448 Q589 382 552.5 312 Q516 242 452.5 178.5 Q389 115 303.5 63.5 Q218 12 119 -16 L102 28 Z M332 306 Q341 306 351.5 307.5 Q362 309 371 312 Q390 356 401.5 406.5 Q413 457 413 503 Q413 543 401.5 558.5 Q390 574 375 574 Q357 574 340.5 552.5 Q324 531 311.5 499 Q299 467 291.5 431 Q284 395 284 366 Q284 337 294.5 321.5 Q305 306 332 306 Z " />
<glyph glyph-name="dollar" unicode="&#x24;" horiz-adv-x="570" d="M142 141 Q148 105 170 80 Q192 55 234 47 L280 239 Q256 254 231.5 270.5 Q207 287 187.5 309 Q168 331 155.5 359 Q143 387 143 423 Q143 471 164 511 Q185 551 221 579.5 Q257 608 305 624 Q353 640 408 640 L416 640 L437 727 L488 738 L462 634 Q519 622 549 584.5 Q579 547 581 491 L518 486 Q514 563 448 577 L401 385 Q425 369 450 352 Q475 335 495.5 313 Q516 291 528.5 264 Q541 237 541 201 Q541 158 521.5 119 Q502 80 466 50.5 Q430 21 379.5 3.5 Q329 -14 266 -15 L243 -114 L192 -125 L219 -12 Q154 -1 121 38 Q88 77 83 131 L142 141 Z M371 141 Q371 166 358 181.5 Q345 197 321 213 L281 48 Q319 54 345 79 Q371 104 371 141 Z M313 486 Q313 460 325 444 Q337 428 360 411 L400 577 Q364 572 338.5 546.5 Q313 521 313 486 Z " />
<glyph glyph-name="cent" unicode="&#xa2;" horiz-adv-x="570" d="M455 454 Q480 447 498 433.5 Q516 420 529 402 Q542 384 549.5 362.5 Q557 341 562 317 L501 306 Q491 341 476.5 361 Q462 381 438 386 L367 90 Q412 99 459 134 L493 98 Q465 62 426.5 35.5 Q388 9 345 -4 L331 -62 L281 -72 L295 -13 Q289 -14 283.5 -14.5 Q278 -15 273 -15 Q191 -15 146.5 33 Q102 81 102 159 Q102 220 126 276.5 Q150 333 194 376 Q234 414 288 437 Q342 460 405 460 L408 460 L421 511 L471 521 L455 454 Z M274 164 Q274 132 286.5 114.5 Q299 97 320 91 L390 384 Q361 375 339.5 348.5 Q318 322 303.5 289 Q289 256 281.5 222 Q274 188 274 164 Z " />
<glyph glyph-name="Euro" unicode="&#x20ac;" horiz-adv-x="570" d="M323 228 Q321 217 320 203 Q319 189 319 178 Q319 133 337.5 105.5 Q356 78 400 78 Q428 78 459.5 93 Q491 108 520 137 L557 101 Q513 40 451.5 12.5 Q390 -15 328 -15 Q276 -15 238 1 Q200 17 175 44.5 Q150 72 138 108 Q126 144 126 184 Q126 193 126.5 205.5 Q127 218 128 228 L53 228 L77 282 L134 282 L148 342 L77 342 L102 396 L168 396 Q189 447 219.5 491.5 Q250 536 289 569 Q328 602 375.5 621 Q423 640 477 640 Q545 640 588.5 609 Q632 578 660 524 L611 493 Q572 547 512 547 Q465 547 428 508 Q391 469 365 396 L503 396 L479 342 L348 342 Q343 328 339 312 Q335 296 331 282 L477 282 L453 228 L323 228 Z " />
<glyph glyph-name="florin" unicode="&#x192;" horiz-adv-x="570" d="M-122 -81 Q-107 -98 -87 -112 Q-67 -126 -41 -126 Q-23 -126 -7.5 -118 Q8 -110 23 -91 Q38 -72 53.5 -40.5 Q69 -9 89 37 L220 345 L121 345 L150 399 L244 399 Q268 453 295.5 494.5 Q323 536 354 566 Q393 604 438 622 Q483 640 541 640 Q567 640 592.5 634.5 Q618 629 638 619 Q658 609 670 595 Q682 581 682 564 Q682 549 674.5 535 Q667 521 655.5 509.5 Q644 498 630 491.5 Q616 485 604 485 Q585 485 574.5 500.5 Q564 516 555.5 534.5 Q547 553 538 568.5 Q529 584 514 584 Q500 584 485 568 Q470 552 454 514 L406 399 L519 399 L486 345 L384 345 L269 73 Q239 2 213.5 -45.5 Q188 -93 157 -128 Q124 -166 82.5 -186.5 Q41 -207 -12 -207 Q-61 -207 -99.5 -182 Q-138 -157 -165 -115 L-122 -81 Z " />
<glyph glyph-name="sterling" unicode="&#xa3;" horiz-adv-x="570" d="M504 371 L478 317 L367 317 Q353 261 336 210 Q319 159 299 121 Q321 113 347 108.5 Q373 104 401 104 Q440 104 472 117.5 Q504 131 534 160 L565 137 Q526 60 482 22.5 Q438 -15 374 -15 Q337 -15 301.5 1 Q266 17 241 37 Q216 11 188.5 -2 Q161 -15 128 -15 Q86 -15 61 8 Q36 31 36 66 Q36 104 63 129.5 Q90 155 134 155 Q139 155 144 155 Q149 155 156 154 L196 317 L112 317 L125 371 L209 371 L213 389 Q239 509 307.5 574.5 Q376 640 485 640 Q519 640 548 633.5 Q577 627 598.5 616 Q620 605 632 590.5 Q644 576 644 561 Q644 548 637.5 534.5 Q631 521 621 510 Q611 499 597.5 492 Q584 485 571 485 Q553 485 541.5 500.5 Q530 516 520 535 Q510 554 499 569.5 Q488 585 472 585 Q446 585 431.5 555.5 Q417 526 406 481 L380 371 L504 371 Z M112 58 Q135 58 145 107 Q137 110 126 110 Q111 110 101.5 101.5 Q92 93 92 79 Q92 70 97.5 64 Q103 58 112 58 Z " />
<glyph glyph-name="yen" unicode="&#xa5;" horiz-adv-x="570" d="M385 131 L383 122 Q378 99 378 86 Q378 67 390 56 Q402 45 429 37 L420 0 Q409 0 389.5 0.5 Q370 1 348.5 1.5 Q327 2 306.5 2.5 Q286 3 273 3 Q258 3 235.5 2.5 Q213 2 190 1.5 Q167 1 147 0.5 Q127 0 118 0 L127 37 L189 56 L207 131 L84 131 L108 185 L221 185 L234 243 L111 243 L135 297 L228 297 L169 514 Q164 533 158.5 545 Q153 557 145 564.5 Q137 572 125 576 Q113 580 95 584 L105 625 Q116 624 135 623.5 Q154 623 174 622.5 Q194 622 213 622 Q232 622 244 622 Q255 622 275.5 622.5 Q296 623 318.5 623.5 Q341 624 361 624.5 Q381 625 390 625 L380 584 L326 565 L386 330 L546 566 L499 584 L509 625 Q528 624 556 623 Q584 622 606 622 Q629 622 654.5 623 Q680 624 704 625 L694 584 Q677 582 664 579 Q651 576 640.5 570 Q630 564 620.5 554 Q611 544 601 528 L444 297 L542 297 L518 243 L412 243 L399 185 L515 185 L491 131 L385 131 Z " />
<glyph glyph-name="numbersign" unicode="&#x23;" horiz-adv-x="570" d="M281 272 L366 272 L384 357 L299 357 L281 272 Z M462 272 L554 272 L535 181 L443 181 L402 -15 L305 -15 L346 181 L262 181 L221 -15 L124 -15 L165 181 L72 181 L92 272 L185 272 L203 357 L111 357 L130 448 L222 448 L264 640 L360 640 L319 448 L403 448 L445 640 L541 640 L500 448 L593 448 L573 357 L480 357 L462 272 Z " />
<glyph glyph-name="percent" unicode="&#x25;" horiz-adv-x="852" d="M642 -5 Q579 -5 541.5 30.5 Q504 66 504 129 Q504 175 519.5 218.5 Q535 262 563 296 Q591 330 629.5 350.5 Q668 371 714 371 Q777 371 814.5 335.5 Q852 300 852 237 Q852 191 836.5 147.5 Q821 104 793 70 Q765 36 726.5 15.5 Q688 -5 642 -5 Z M644 38 Q658 38 669 56 Q679 72 690 102.5 Q701 133 710 167.5 Q719 202 725 235 Q731 268 731 290 Q731 328 712 328 Q698 328 687 310 Q676 293 665 263 Q654 233 645 198.5 Q636 164 630.5 131 Q625 98 625 76 Q625 38 644 38 Z M236 254 Q173 254 135.5 289.5 Q98 325 98 388 Q98 434 113.5 477.5 Q129 521 157 555 Q185 589 223.5 609.5 Q262 630 308 630 Q371 630 408.5 594.5 Q446 559 446 496 Q446 450 430.5 406.5 Q415 363 387 329 Q359 295 320.5 274.5 Q282 254 236 254 Z M238 297 Q252 297 263 315 Q273 331 284 361.5 Q295 392 304 426.5 Q313 461 319 494 Q325 527 325 549 Q325 587 306 587 Q292 587 281 569 Q270 552 259 522 Q248 492 239 457.5 Q230 423 224.5 390 Q219 357 219 335 Q219 297 238 297 Z M234 -15 L158 -15 L717 640 L793 640 L234 -15 Z " />
<glyph glyph-name="perthousand" unicode="&#x2030;" horiz-adv-x="1228" d="M642 -5 Q579 -5 541.5 30.5 Q504 66 504 129 Q504 175 519.5 218.5 Q535 262 563 296 Q591 330 629.5 350.5 Q668 371 714 371 Q777 371 814.5 335.5 Q852 300 852 237 Q852 191 836.5 147.5 Q821 104 793 70 Q765 36 726.5 15.5 Q688 -5 642 -5 Z M644 38 Q658 38 669 56 Q679 72 690 102.5 Q701 133 710 167.5 Q719 202 725 235 Q731 268 731 290 Q731 328 712 328 Q698 328 687 310 Q676 293 665 263 Q654 233 645 198.5 Q636 164 630.5 131 Q625 98 625 76 Q625 38 644 38 Z M236 254 Q173 254 135.5 289.5 Q98 325 98 388 Q98 434 113.5 477.5 Q129 521 157 555 Q185 589 223.5 609.5 Q262 630 308 630 Q371 630 408.5 594.5 Q446 559 446 496 Q446 450 430.5 406.5 Q415 363 387 329 Q359 295 320.5 274.5 Q282 254 236 254 Z M238 297 Q252 297 263 315 Q273 331 284 361.5 Q295 392 304 426.5 Q313 461 319 494 Q325 527 325 549 Q325 587 306 587 Q292 587 281 569 Q270 552 259 522 Q248 492 239 457.5 Q230 423 224.5 390 Q219 357 219 335 Q219 297 238 297 Z M1018 -5 Q955 -5 917.5 30.5 Q880 66 880 129 Q880 175 895.5 218.5 Q911 262 939 296 Q967 330 1005.5 350.5 Q1044 371 1090 371 Q1153 371 1190.5 335.5 Q1228 300 1228 237 Q1228 191 1212.5 147.5 Q1197 104 1169 70 Q1141 36 1102.5 15.5 Q1064 -5 1018 -5 Z M1020 38 Q1034 38 1045 56 Q1055 72 1066 102.5 Q1077 133 1086 167.5 Q1095 202 1101 235 Q1107 268 1107 290 Q1107 328 1088 328 Q1074 328 1063 310 Q1052 293 1041 263 Q1030 233 1021 198.5 Q1012 164 1006.5 131 Q1001 98 1001 76 Q1001 38 1020 38 Z M234 -15 L158 -15 L717 640 L793 640 L234 -15 Z " />
<glyph glyph-name="plus" unicode="&#x2b;" horiz-adv-x="460" d="M297 172 L267 49 L160 49 L190 172 L70 172 L95 275 L215 275 L245 397 L352 397 L322 275 L443 275 L418 172 L297 172 Z " />
<glyph glyph-name="minus" unicode="&#x2212;" horiz-adv-x="460" d="M70 172 L95 275 L443 275 L418 172 L70 172 Z " />
<glyph glyph-name="multiply" unicode="&#xd7;" horiz-adv-x="460" d="M308 64 L242 151 L135 64 L79 138 L187 224 L120 310 L212 384 L277 297 L385 384 L440 310 L334 224 L399 138 L308 64 Z " />
<glyph glyph-name="less" unicode="&#x3c;" horiz-adv-x="460" d="M70 178 L92 269 L481 438 L454 325 L228 224 L405 124 L378 10 L70 178 Z " />
<glyph glyph-name="divide" unicode="&#xf7;" horiz-adv-x="460" d="M443 275 L418 172 L70 172 L95 275 L443 275 Z M204 -5 Q180 -5 165 9 Q150 23 150 45 Q150 61 157.5 76.5 Q165 92 177 103.5 Q189 115 204.5 122 Q220 129 237 129 Q261 129 276 115 Q291 101 291 79 Q291 62 283.5 47 Q276 32 264 20.5 Q252 9 236.5 2 Q221 -5 204 -5 Z M282 321 Q258 321 243 335 Q228 349 228 371 Q228 387 235.5 402.5 Q243 418 255 429.5 Q267 441 282.5 448 Q298 455 315 455 Q339 455 354 441 Q369 427 369 405 Q369 388 361.5 373 Q354 358 342 346.5 Q330 335 314.5 328 Q299 321 282 321 Z " />
<glyph glyph-name="equal" unicode="&#x3d;" horiz-adv-x="460" d="M89 251 L114 354 L462 354 L437 251 L89 251 Z M52 93 L76 196 L424 196 L399 93 L52 93 Z " />
<glyph glyph-name="logicalnot" unicode="&#xac;" horiz-adv-x="460" d="M399 93 L296 93 L331 251 L89 251 L114 354 L462 354 L399 93 Z " />
<glyph glyph-name="greater" unicode="&#x3e;" horiz-adv-x="460" d="M32 7 L59 121 L285 222 L107 322 L134 435 L441 266 L419 175 L32 7 Z " />
<glyph glyph-name="notequal" unicode="&#x2260;" horiz-adv-x="460" d="M202 93 L163 37 L89 37 L128 93 L52 93 L76 196 L200 196 L238 251 L89 251 L114 354 L310 354 L350 410 L425 410 L385 354 L462 354 L437 251 L313 251 L275 196 L424 196 L399 93 L202 93 Z " />
<glyph glyph-name="approxequal" unicode="&#x2248;" horiz-adv-x="460" d="M461 374 Q443 313 408 278.5 Q373 244 327 244 Q306 244 290.5 250.5 Q275 257 262 265.5 Q249 274 236.5 280.5 Q224 287 209 287 Q181 287 157 244 L104 244 Q125 307 163 340 Q201 373 240 373 Q263 373 278.5 366.5 Q294 360 306.5 352.5 Q319 345 330.5 338.5 Q342 332 357 332 Q374 332 386 344.5 Q398 357 407 374 L461 374 Z M422 212 Q404 151 369 116.5 Q334 82 288 82 Q267 82 251.5 88.5 Q236 95 223 103.5 Q210 112 197.5 118.5 Q185 125 170 125 Q142 125 118 82 L65 82 Q86 145 124 178 Q162 211 201 211 Q224 211 239.5 204.5 Q255 198 267.5 190.5 Q280 183 291.5 176.5 Q303 170 318 170 Q335 170 347 182.5 Q359 195 368 212 L422 212 Z " />
<glyph glyph-name="plusminus" unicode="&#xb1;" horiz-adv-x="460" d="M322 279 L292 156 L189 156 L219 279 L97 279 L122 382 L244 382 L273 504 L376 504 L347 382 L470 382 L445 279 L322 279 Z M31 0 L55 103 L402 103 L378 0 L31 0 Z " />
<glyph glyph-name="lessequal" unicode="&#x2264;" horiz-adv-x="460" d="M99 285 L121 376 L509 545 L482 432 L256 331 L433 231 L406 117 L99 285 Z M31 0 L55 103 L402 103 L378 0 L31 0 Z " />
<glyph glyph-name="greaterequal" unicode="&#x2265;" horiz-adv-x="460" d="M59 117 L85 231 L312 332 L134 432 L161 545 L469 376 L447 285 L59 117 Z M31 0 L55 103 L402 103 L378 0 L31 0 Z " />
<glyph glyph-name="asciicircum" unicode="&#x5e;" horiz-adv-x="460" d="M372 338 L319 502 L188 338 L67 338 L307 625 L392 625 L493 338 L372 338 Z " />
<glyph glyph-name="asciitilde" unicode="&#x7e;" horiz-adv-x="460" d="M507 398 Q493 358 474 328 Q455 298 432 278.5 Q409 259 384 249.5 Q359 240 334 240 Q310 240 291 248.5 Q272 257 255 266.5 Q238 276 222 284.5 Q206 293 188 293 Q162 293 147.5 277.5 Q133 262 120 239 L52 239 Q79 319 127 358 Q175 397 225 397 Q250 397 268.5 388.5 Q287 380 303.5 370.5 Q320 361 336.5 352.5 Q353 344 375 344 Q396 344 411 359.5 Q426 375 439 398 L507 398 Z " />
<glyph glyph-name="lozenge" unicode="&#x25ca;" horiz-adv-x="531" d="M208 0 L84 316 L359 625 L422 625 L547 316 L271 0 L208 0 Z M365 521 L183 316 L264 104 L448 316 L365 521 Z " />
<glyph glyph-name="degree" unicode="&#xb0;" horiz-adv-x="336" d="M317 519 Q317 540 304.5 556 Q292 572 266 572 Q249 572 234.5 564.5 Q220 557 209 544.5 Q198 532 192 516 Q186 500 186 483 Q186 462 198.5 446 Q211 430 237 430 Q254 430 268.5 437.5 Q283 445 294 457.5 Q305 470 311 486 Q317 502 317 519 Z M399 525 Q399 488 384.5 458 Q370 428 346.5 406.5 Q323 385 292.5 373.5 Q262 362 231 362 Q196 362 172 372 Q148 382 133 398.5 Q118 415 111 435.5 Q104 456 104 477 Q104 514 118.5 544 Q133 574 156.5 595.5 Q180 617 210 628.5 Q240 640 272 640 Q306 640 330.5 630 Q355 620 370 603.5 Q385 587 392 566.5 Q399 546 399 525 Z " />
<glyph glyph-name="quotesingle" unicode="&#x27;" horiz-adv-x="207" d="M267 586 Q267 560 256.5 534.5 Q246 509 232 482.5 Q218 456 202 427.5 Q186 399 176 368 L121 368 Q122 400 121 437 Q120 474 120 512 Q120 567 140.5 603.5 Q161 640 208 640 Q235 640 251 626 Q267 612 267 586 Z " />
<glyph glyph-name="quotedbl" unicode="&#x22;" horiz-adv-x="389" d="M269 586 Q269 560 258.5 534.5 Q248 509 234 482.5 Q220 456 204 427.5 Q188 399 178 368 L123 368 Q124 400 123 437 Q122 474 122 512 Q122 567 142.5 603.5 Q163 640 210 640 Q237 640 253 626 Q269 612 269 586 Z M455 586 Q455 560 444.5 534.5 Q434 509 420 482.5 Q406 456 390 427.5 Q374 399 364 368 L309 368 Q310 400 309 437 Q308 474 308 512 Q308 567 328.5 603.5 Q349 640 396 640 Q423 640 439 626 Q455 612 455 586 Z " />
<glyph glyph-name="radical" unicode="&#x221a;" horiz-adv-x="645" d="M232 444 Q280 444 300.5 431 Q321 418 326 378 L355 145 L595 551 Q608 572 620 586.5 Q632 601 646.5 609.5 Q661 618 679.5 621.5 Q698 625 722 625 L774 625 L760 566 L732 566 Q708 566 693.5 558.5 Q679 551 661 521 L351 -2 L229 -2 L177 353 Q174 372 166 378.5 Q158 385 132 385 L90 385 L105 444 L232 444 Z " />
<glyph glyph-name="currency" unicode="&#xa4;" horiz-adv-x="570" d="M292 110 Q266 110 244 114 Q222 118 202 126 L142 59 L63 59 L154 157 Q106 202 106 268 Q106 332 138.5 386 Q171 440 225 473 L184 564 L256 564 L283 501 Q304 508 326.5 512 Q349 516 373 516 Q428 516 470 496 L531 564 L609 564 L515 464 Q559 420 559 358 Q559 295 528 242.5 Q497 190 446 156 L488 59 L416 59 L387 127 Q341 110 292 110 Z M298 174 Q315 174 330.5 199 Q346 224 363 281 Q376 324 383 360.5 Q390 397 390 414 Q390 452 367 452 Q350 452 334.5 427 Q319 402 302 345 Q289 302 282 265.5 Q275 229 275 212 Q275 174 298 174 Z " />
<glyph glyph-name="infinity" unicode="&#x221e;" horiz-adv-x="700" d="M234 372 Q203 372 180 351.5 Q157 331 157 299 Q157 277 172 264 Q187 251 213 251 Q240 251 268.5 263 Q297 275 320 292 Q306 332 285 352 Q264 372 234 372 Z M559 274 Q590 274 613 294.5 Q636 315 636 347 Q636 369 621 382 Q606 395 580 395 Q553 395 524.5 383 Q496 371 473 354 Q487 314 508 294 Q529 274 559 274 Z M348 221 Q315 180 280.5 157 Q246 134 205 134 Q185 134 166 142 Q147 150 132 167 Q117 184 107.5 210.5 Q98 237 98 274 Q98 317 113 359.5 Q128 402 155.5 436 Q183 470 222.5 491 Q262 512 311 512 Q404 512 445 425 Q478 466 512.5 489 Q547 512 588 512 Q608 512 627 504 Q646 496 661 479 Q676 462 685.5 435.5 Q695 409 695 372 Q695 329 680 286.5 Q665 244 637 210 Q609 176 570 155 Q531 134 482 134 Q389 134 348 221 Z " />
<glyph glyph-name="uni00B5" unicode="&#xb5;" horiz-adv-x="572" d="M109 6 Q109 -9 110 -30.5 Q111 -52 111 -65 Q111 -90 105 -114.5 Q99 -139 87 -158 Q75 -177 57 -188.5 Q39 -200 15 -200 Q-14 -200 -26.5 -182 Q-39 -164 -39 -140 Q-39 -110 -26.5 -81.5 Q-14 -53 4 -18.5 Q22 16 41.5 58.5 Q61 101 76 160 L123 347 Q126 359 126 369 Q126 381 117 390 Q108 399 83 407 L92 444 Q116 444 145.5 444.5 Q175 445 203.5 446 Q232 447 258.5 449 Q285 451 303 453 L316 441 L259 211 Q251 181 247 160 Q243 139 243 128 Q243 113 250.5 106.5 Q258 100 269 100 Q285 100 300 113.5 Q315 127 329 158 Q340 183 353 226 Q366 269 385 346 L409 444 L579 444 L503 137 Q496 109 496 97 Q496 75 522 75 Q535 75 550 80 L539 31 Q513 13 476.5 0.5 Q440 -12 406 -12 Q370 -12 347 8 Q324 28 323 66 Q302 33 263.5 9 Q225 -15 176 -15 Q135 -15 109 6 Z " />
<glyph glyph-name="partialdiff" unicode="&#x2202;" horiz-adv-x="550" d="M296 396 Q333 396 359 387 Q360 453 331 505.5 Q302 558 251 593 L283 641 Q341 621 390 589 Q439 557 475 514.5 Q511 472 531 420 Q551 368 551 308 Q551 240 529.5 181.5 Q508 123 468.5 79 Q429 35 373.5 10 Q318 -15 249 -15 Q204 -15 169 -2 Q134 11 110.5 33.5 Q87 56 74.5 86.5 Q62 117 62 152 Q62 201 79.5 245.5 Q97 290 128.5 323.5 Q160 357 203 376.5 Q246 396 296 396 Z M228 112 Q228 47 265 47 Q286 47 303.5 68 Q321 89 334 123.5 Q347 158 354.5 201.5 Q362 245 362 290 Q362 297 362 304 Q362 311 361 316 Q346 321 332 321 Q306 321 287 299.5 Q268 278 254.5 246 Q241 214 234.5 177.5 Q228 141 228 112 Z " />
<glyph glyph-name="summation" unicode="&#x2211;" horiz-adv-x="545" d="M-17 -74 L-24 -56 L310 295 L154 683 L171 700 L642 700 Q639 685 634 662.5 Q629 640 623.5 616.5 Q618 593 614 572 Q610 551 608 540 L565 540 L534 638 L341 638 L451 365 Q453 359 452.5 353 Q452 347 445 340 L172 56 L358 56 Q381 56 397 59.5 Q413 63 425 71 Q437 79 446.5 91.5 Q456 104 465 123 L514 123 Q508 105 499.5 77.5 Q491 50 482 21 Q473 -8 465.5 -34 Q458 -60 455 -74 L-17 -74 Z " />
<glyph glyph-name="product" unicode="&#x220f;" horiz-adv-x="767" d="M461 -15 L619 638 L406 638 L262 46 Q257 23 257 12 Q257 -6 270 -16.5 Q283 -27 309 -33 L299 -74 Q288 -74 269 -73.5 Q250 -73 229 -72.5 Q208 -72 188 -71.5 Q168 -71 155 -71 Q140 -71 117 -71.5 Q94 -72 70.5 -72.5 Q47 -73 26.5 -73.5 Q6 -74 -3 -74 L7 -33 L69 -15 L213 578 Q219 602 219 618 Q219 631 212 640.5 Q205 650 187 655 L167 661 L176 700 L877 700 L868 661 L844 655 Q829 651 819 646 Q809 641 802.5 632 Q796 623 791 610 Q786 597 782 578 L654 46 Q649 23 649 12 Q649 -6 662 -16.5 Q675 -27 701 -33 L691 -74 Q680 -74 661 -73.5 Q642 -73 621 -72.5 Q600 -72 580 -71.5 Q560 -71 547 -71 Q532 -71 509 -71.5 Q486 -72 462.5 -72.5 Q439 -73 418.5 -73.5 Q398 -74 389 -74 L399 -33 L461 -15 Z " />
<glyph glyph-name="integral" unicode="&#x222b;" horiz-adv-x="380" d="M331 359 Q331 278 315 207.5 Q299 137 271 81 Q235 9 184 -32.5 Q133 -74 73 -74 Q22 -74 -5.5 -54 Q-33 -34 -33 -8 Q-33 3 -27 15 Q-21 27 -12 36.5 Q-3 46 8.5 52 Q20 58 32 58 Q47 58 53 46 Q59 34 62.5 20 Q66 6 71.5 -6 Q77 -18 91 -18 Q106 -18 118 -7 Q130 4 138.5 21.5 Q147 39 151.5 60.5 Q156 82 156 103 Q156 133 153 172 Q150 211 150 246 Q150 327 166 398 Q182 469 210 525 Q246 597 297 638.5 Q348 680 408 680 Q459 680 486.5 660 Q514 640 514 614 Q514 603 508 591 Q502 579 493 569.5 Q484 560 472.5 554 Q461 548 449 548 Q434 548 428 560 Q422 572 418.5 586 Q415 600 409.5 612 Q404 624 390 624 Q375 624 363 613 Q351 602 342.5 584.5 Q334 567 329.5 545.5 Q325 524 325 503 Q325 473 328 433.5 Q331 394 331 359 Z " />
<glyph glyph-name="Ohm" unicode="&#x2126;" horiz-adv-x="730" d="M26 0 Q29 14 33 34.5 Q37 55 41 77 Q45 99 48.5 120.5 Q52 142 55 160 L100 160 Q100 145 102.5 135 Q105 125 112.5 120 Q120 115 134 113 Q148 111 172 111 L231 111 Q166 143 132 198 Q98 253 98 316 Q98 380 127.5 438.5 Q157 497 208.5 542 Q260 587 331.5 613.5 Q403 640 487 640 Q552 640 602 623 Q652 606 686 577 Q720 548 737.5 509.5 Q755 471 755 427 Q755 372 734 324 Q713 276 677.5 236 Q642 196 595.5 164.5 Q549 133 498 111 L558 111 Q582 111 597 113 Q612 115 622 120 Q632 125 639 135 Q646 145 654 160 L700 160 Q694 142 687 120.5 Q680 99 673 77 Q666 55 660 34.5 Q654 14 651 0 L373 0 L377 57 Q414 96 447 143 Q480 190 505 242 Q530 294 545 350 Q560 406 560 463 Q560 512 540 543 Q520 574 477 574 Q443 574 415.5 556 Q388 538 367 509 Q346 480 331.5 443.5 Q317 407 307.5 368.5 Q298 330 293.5 293.5 Q289 257 289 229 Q289 185 298 142.5 Q307 100 327 57 L303 0 L26 0 L26 0 Z " />
<glyph glyph-name="Delta" unicode="&#x2206;" horiz-adv-x="623" d="M6 34 L373 625 L493 625 L580 34 L556 0 L13 0 L6 34 Z M344 446 L113 72 L398 72 L344 446 Z " />
<glyph glyph-name="litre" unicode="&#x2113;" horiz-adv-x="553" d="M318 170 Q315 156 312 140.5 Q309 125 309 114 Q309 86 325.5 74.5 Q342 63 369 63 Q389 63 410 66.5 Q431 70 445 74 L434 26 Q423 18 405.5 11 Q388 4 368 -2 Q348 -8 326.5 -11.5 Q305 -15 285 -15 Q240 -15 210.5 -5 Q181 5 163 21.5 Q145 38 137.5 60 Q130 82 130 105 Q112 100 89 94 Q66 88 49 84 L41 127 Q65 134 89 142.5 Q113 151 135 159 L191 391 Q206 452 228 495 Q250 538 279 567 Q315 603 360 621.5 Q405 640 454 640 Q483 640 508.5 633.5 Q534 627 552.5 613 Q571 599 582 577.5 Q593 556 593 526 Q593 472 569 422.5 Q545 373 506 329.5 Q467 286 418.5 249.5 Q370 213 321 185 L318 170 Z M457 556 Q457 578 444 578 Q428 578 415 546.5 Q402 515 384 443 L348 296 Q372 324 392 359.5 Q412 395 426.5 431 Q441 467 449 500 Q457 533 457 556 Z " />
<glyph glyph-name="estimated" unicode="&#x212e;" horiz-adv-x="788" d="M219 305 Q214 305 214 301 L214 122 Q214 111 223 102 Q265 56 322.5 30 Q380 4 444 4 Q516 4 576 33 Q636 62 680 113 L733 113 Q683 55 607.5 20 Q532 -15 443 -15 Q368 -15 302 11 Q236 37 186.5 81 Q137 125 108.5 184.5 Q80 244 80 312 Q80 380 108.5 439.5 Q137 499 186.5 543.5 Q236 588 302 614 Q368 640 443 640 Q519 640 585.5 614 Q652 588 701.5 543.5 Q751 499 779.5 439.5 Q808 380 808 312 L808 305 L219 305 Z M676 506 Q676 517 666 527 Q623 571 566.5 596 Q510 621 444 621 Q380 621 323 595 Q266 569 224 524 Q214 516 214 502 L214 326 Q214 321 219 321 L671 321 Q676 321 676 326 L676 506 Z " />
<glyph glyph-name="numero" unicode="&#x2116;" horiz-adv-x="1055" d="M189 505 Q194 528 194 539 Q194 557 181 567.5 Q168 578 142 584 L152 625 L371 625 L559 216 L629 505 Q634 528 634 539 Q634 573 580 584 L590 625 Q613 623 640 622.5 Q667 622 690 622 Q701 622 715.5 622.5 Q730 623 745 623.5 Q760 624 773.5 624.5 Q787 625 796 625 L786 584 L724 565 L590 0 L459 0 L254 445 L177 120 Q172 97 172 86 Q172 68 186 57.5 Q200 47 226 41 L216 0 Q193 2 165 2.5 Q137 3 114 3 Q103 3 88.5 2.5 Q74 2 59.5 1.5 Q45 1 32 0.5 Q19 0 10 0 L20 41 L82 60 L189 505 Z M889 266 Q831 266 792.5 298 Q754 330 754 390 Q754 429 768 464 Q782 499 807.5 525.5 Q833 552 868 568 Q903 584 944 584 Q1002 584 1040.5 551.5 Q1079 519 1079 460 Q1079 421 1065 386 Q1051 351 1025.5 324 Q1000 297 965 281.5 Q930 266 889 266 Z M944 537 Q936 537 928 530 Q920 523 913 511 Q906 499 900 484 Q894 469 889 453 Q879 422 874.5 393.5 Q870 365 870 345 Q870 312 889 312 Q897 312 905 319 Q913 326 919.5 338 Q926 350 932.5 365.5 Q939 381 944 397 Q953 427 958 455.5 Q963 484 963 504 Q963 537 944 537 Z M714 170 L729 229 L1009 229 L994 170 L714 170 Z " />
<glyph glyph-name="ordfeminine" unicode="&#xaa;" horiz-adv-x="368" d="M309 251 Q286 251 271.5 261 Q257 271 253 289 Q238 271 216 261 Q194 251 172 251 Q132 251 108 278.5 Q84 306 84 351 Q84 389 98 424 Q112 459 137 486 Q162 513 196.5 529 Q231 545 271 545 Q287 545 302.5 541.5 Q318 538 329 530 L343 542 L415 539 L422 530 L375 337 Q372 325 372 319 Q372 306 386 306 Q390 306 396 307 Q402 308 406 309 L399 278 Q383 267 357 259 Q331 251 309 251 Z M225 315 Q241 315 251.5 338 Q262 361 272 402 L294 493 Q287 498 279 498 Q261 498 246 478 Q237 467 229.5 451 Q222 435 216.5 417.5 Q211 400 208 382 Q205 364 205 349 Q205 331 211 323 Q217 315 225 315 Z " />
<glyph glyph-name="ordmasculine" unicode="&#xba;" horiz-adv-x="358" d="M222 251 Q160 251 121.5 280.5 Q83 310 83 367 Q83 406 98 438.5 Q113 471 138.5 494.5 Q164 518 198.5 531.5 Q233 545 271 545 Q333 545 371.5 515.5 Q410 486 410 429 Q410 390 395 357.5 Q380 325 354.5 301.5 Q329 278 294.5 264.5 Q260 251 222 251 Z M223 298 Q236 298 247.5 317 Q259 336 268 362.5 Q277 389 282.5 417 Q288 445 288 462 Q288 498 270 498 Q257 498 245.5 479 Q234 460 225 433.5 Q216 407 210.5 379 Q205 351 205 334 Q205 298 223 298 Z " />
<glyph glyph-name="onesuperior" unicode="&#xb9;" horiz-adv-x="382" d="M257 636 Q262 656 258 662.5 Q254 669 235 674 L208 680 L215 711 Q250 711 285.5 717 Q321 723 343 737 L403 737 L331 437 Q328 423 330.5 415 Q333 407 349 405 L382 400 L374 369 Q368 369 353 369.5 Q338 370 321 370.5 Q304 371 287.5 371 Q271 371 261 371 Q251 371 234.5 371 Q218 371 200 370.5 Q182 370 164.5 369.5 Q147 369 136 369 L144 400 L204 413 L257 636 Z " />
<glyph glyph-name="twosuperior" unicode="&#xb2;" horiz-adv-x="382" d="M418 503 Q414 492 408.5 474 Q403 456 397.5 436.5 Q392 417 387.5 399 Q383 381 380 369 L119 369 L110 398 Q213 480 260.5 535.5 Q308 591 308 631 Q308 649 297 661.5 Q286 674 265 674 Q242 674 224.5 660.5 Q207 647 193 628 L161 650 Q183 687 224.5 713.5 Q266 740 320 740 Q374 740 406.5 712.5 Q439 685 439 642 Q439 607 419 580 Q399 553 370 532 Q341 511 309 493.5 Q277 476 252 459 L333 459 Q353 459 364.5 468.5 Q376 478 387 504 L418 503 Z " />
<glyph glyph-name="threesuperior" unicode="&#xb3;" horiz-adv-x="382" d="M334 740 Q388 740 418 715.5 Q448 691 448 654 Q448 620 421 596 Q394 572 352 564 Q421 549 421 487 Q421 459 407 436.5 Q393 414 368 398 Q343 382 308.5 373 Q274 364 234 364 Q180 364 150 381.5 Q120 399 120 426 Q120 445 134.5 461.5 Q149 478 168 478 Q181 478 187.5 467 Q194 456 199 443.5 Q204 431 211 420 Q218 409 232 409 Q243 409 253.5 416.5 Q264 424 272 435.5 Q280 447 285 461.5 Q290 476 290 490 Q290 517 267.5 528 Q245 539 201 539 L211 577 Q263 578 292.5 593.5 Q322 609 322 638 Q322 654 312 664 Q302 674 282 674 Q260 674 241 662.5 Q222 651 208 633 L177 654 Q201 692 240.5 716 Q280 740 334 740 Z " />
<glyph glyph-name="fraction" unicode="&#x2044;" horiz-adv-x="113" d="M-133 -15 L-209 -15 L350 640 L426 640 L-133 -15 Z " />
<glyph glyph-name="onehalf" unicode="&#xbd;" horiz-adv-x="840" d="M211 526 Q216 546 212 552.5 Q208 559 189 564 L162 570 L169 601 Q204 601 239.5 607 Q275 613 297 627 L357 627 L285 327 Q282 313 284.5 305 Q287 297 303 295 L336 290 L328 259 Q322 259 307 259.5 Q292 260 275 260.5 Q258 261 241.5 261 Q225 261 215 261 Q205 261 188.5 261 Q172 261 154 260.5 Q136 260 118.5 259.5 Q101 259 90 259 L98 290 L158 303 L211 526 Z M811 134 Q807 123 801.5 105 Q796 87 790.5 67.5 Q785 48 780.5 30 Q776 12 773 0 L512 0 L503 29 Q606 111 653.5 166.5 Q701 222 701 262 Q701 280 690 292.5 Q679 305 658 305 Q635 305 617.5 291.5 Q600 278 586 259 L554 281 Q576 318 617.5 344.5 Q659 371 713 371 Q767 371 799.5 343.5 Q832 316 832 273 Q832 238 812 211 Q792 184 763 163 Q734 142 702 124.5 Q670 107 645 90 L726 90 Q746 90 757.5 99.5 Q769 109 780 135 L811 134 Z M235 -15 L159 -15 L718 640 L794 640 L235 -15 Z " />
<glyph glyph-name="onequarter" unicode="&#xbc;" horiz-adv-x="840" d="M753 96 L746 68 Q743 54 745.5 46 Q748 38 764 36 L797 31 L789 0 Q783 0 768 0.5 Q753 1 736 1.5 Q719 2 702.5 2 Q686 2 676 2 Q666 2 649.5 2 Q633 2 615 1.5 Q597 1 579.5 0.5 Q562 0 551 0 L559 31 L619 44 L632 96 L496 96 L483 123 L707 366 L818 366 L765 146 L819 146 L807 96 L753 96 Z M643 146 L673 271 L558 146 L643 146 Z M216 526 Q221 546 217 552.5 Q213 559 194 564 L167 570 L174 601 Q209 601 244.5 607 Q280 613 302 627 L362 627 L290 327 Q287 313 289.5 305 Q292 297 308 295 L341 290 L333 259 Q327 259 312 259.5 Q297 260 280 260.5 Q263 261 246.5 261 Q230 261 220 261 Q210 261 193.5 261 Q177 261 159 260.5 Q141 260 123.5 259.5 Q106 259 95 259 L103 290 L163 303 L216 526 Z M240 -15 L164 -15 L723 640 L799 640 L240 -15 Z " />
<glyph glyph-name="threequarters" unicode="&#xbe;" horiz-adv-x="840" d="M300 630 Q354 630 384 605.5 Q414 581 414 544 Q414 510 387 486 Q360 462 318 454 Q387 439 387 377 Q387 349 373 326.5 Q359 304 334 288 Q309 272 274.5 263 Q240 254 200 254 Q146 254 116 271.5 Q86 289 86 316 Q86 335 100.5 351.5 Q115 368 134 368 Q147 368 153.5 357 Q160 346 165 333.5 Q170 321 177 310 Q184 299 198 299 Q209 299 219.5 306.5 Q230 314 238 325.5 Q246 337 251 351.5 Q256 366 256 380 Q256 407 233.5 418 Q211 429 167 429 L177 467 Q229 468 258.5 483.5 Q288 499 288 528 Q288 544 278 554 Q268 564 248 564 Q226 564 207 552.5 Q188 541 174 523 L143 544 Q167 582 206.5 606 Q246 630 300 630 Z M760 96 L753 68 Q750 54 752.5 46 Q755 38 771 36 L804 31 L796 0 Q790 0 775 0.5 Q760 1 743 1.5 Q726 2 709.5 2 Q693 2 683 2 Q673 2 656.5 2 Q640 2 622 1.5 Q604 1 586.5 0.5 Q569 0 558 0 L566 31 L626 44 L639 96 L503 96 L490 123 L714 366 L825 366 L772 146 L826 146 L814 96 L760 96 Z M650 146 L680 271 L565 146 L650 146 Z M247 -15 L171 -15 L730 640 L806 640 L247 -15 Z " />
<glyph glyph-name="Agrave" unicode="&#xc0;" horiz-adv-x="642" d="M144 67 Q144 56 156 49.5 Q168 43 188 41 L178 0 Q155 2 129 2.5 Q103 3 80 3 Q69 3 54 2.5 Q39 2 24 1.5 Q9 1 -5 0.5 Q-19 0 -28 0 L-17 41 L45 58 L380 625 L510 625 L571 121 Q574 100 577 87 Q580 74 587 65.5 Q594 57 605.5 52 Q617 47 636 41 L626 0 Q618 0 599.5 0.5 Q581 1 559.5 1.5 Q538 2 517 2.5 Q496 3 483 3 Q469 3 446 2.5 Q423 2 400 1.5 Q377 1 357.5 0.5 Q338 0 331 0 L341 41 L399 57 L386 170 L196 170 L159 105 Q151 91 147.5 83 Q144 75 144 67 Z M234 232 L379 232 L355 441 L234 232 Z M343 763 L371 806 Q387 829 408 829 Q420 829 430.5 823 Q441 817 452 807 L579 695 L560 666 L345 747 L343 763 Z " />
<glyph glyph-name="Aacute" unicode="&#xc1;" horiz-adv-x="642" d="M144 67 Q144 56 156 49.5 Q168 43 188 41 L178 0 Q155 2 129 2.5 Q103 3 80 3 Q69 3 54 2.5 Q39 2 24 1.5 Q9 1 -5 0.5 Q-19 0 -28 0 L-17 41 L45 58 L380 625 L510 625 L571 121 Q574 100 577 87 Q580 74 587 65.5 Q594 57 605.5 52 Q617 47 636 41 L626 0 Q618 0 599.5 0.5 Q581 1 559.5 1.5 Q538 2 517 2.5 Q496 3 483 3 Q469 3 446 2.5 Q423 2 400 1.5 Q377 1 357.5 0.5 Q338 0 331 0 L341 41 L399 57 L386 170 L196 170 L159 105 Q151 91 147.5 83 Q144 75 144 67 Z M234 232 L379 232 L355 441 L234 232 Z M590 747 L340 667 L327 694 L501 809 Q528 827 546 827 Q568 827 578 802 L595 762 L590 747 Z " />
<glyph glyph-name="Acircumflex" unicode="&#xc2;" horiz-adv-x="642" d="M144 67 Q144 56 156 49.5 Q168 43 188 41 L178 0 Q155 2 129 2.5 Q103 3 80 3 Q69 3 54 2.5 Q39 2 24 1.5 Q9 1 -5 0.5 Q-19 0 -28 0 L-17 41 L45 58 L380 625 L510 625 L571 121 Q574 100 577 87 Q580 74 587 65.5 Q594 57 605.5 52 Q617 47 636 41 L626 0 Q618 0 599.5 0.5 Q581 1 559.5 1.5 Q538 2 517 2.5 Q496 3 483 3 Q469 3 446 2.5 Q423 2 400 1.5 Q377 1 357.5 0.5 Q338 0 331 0 L341 41 L399 57 L386 170 L196 170 L159 105 Q151 91 147.5 83 Q144 75 144 67 Z M234 232 L379 232 L355 441 L234 232 Z M474 749 L333 670 L310 692 L447 824 L537 824 L612 689 L584 670 L474 749 Z " />
<glyph glyph-name="Atilde" unicode="&#xc3;" horiz-adv-x="642" d="M144 67 Q144 56 156 49.5 Q168 43 188 41 L178 0 Q155 2 129 2.5 Q103 3 80 3 Q69 3 54 2.5 Q39 2 24 1.5 Q9 1 -5 0.5 Q-19 0 -28 0 L-17 41 L45 58 L380 625 L510 625 L571 121 Q574 100 577 87 Q580 74 587 65.5 Q594 57 605.5 52 Q617 47 636 41 L626 0 Q618 0 599.5 0.5 Q581 1 559.5 1.5 Q538 2 517 2.5 Q496 3 483 3 Q469 3 446 2.5 Q423 2 400 1.5 Q377 1 357.5 0.5 Q338 0 331 0 L341 41 L399 57 L386 170 L196 170 L159 105 Q151 91 147.5 83 Q144 75 144 67 Z M234 232 L379 232 L355 441 L234 232 Z M501 678 Q481 678 466 683 Q451 688 437 694.5 Q423 701 409.5 706 Q396 711 380 711 Q360 711 347 701 Q334 691 326 677 L291 688 Q312 743 347 773 Q382 803 420 803 Q439 803 454.5 798 Q470 793 484 786.5 Q498 780 511.5 775 Q525 770 541 770 Q561 770 574 780 Q587 790 595 804 L630 793 Q609 738 574 708 Q539 678 501 678 Z " />
<glyph glyph-name="Adieresis" unicode="&#xc4;" horiz-adv-x="642" d="M144 67 Q144 56 156 49.5 Q168 43 188 41 L178 0 Q155 2 129 2.5 Q103 3 80 3 Q69 3 54 2.5 Q39 2 24 1.5 Q9 1 -5 0.5 Q-19 0 -28 0 L-17 41 L45 58 L380 625 L510 625 L571 121 Q574 100 577 87 Q580 74 587 65.5 Q594 57 605.5 52 Q617 47 636 41 L626 0 Q618 0 599.5 0.5 Q581 1 559.5 1.5 Q538 2 517 2.5 Q496 3 483 3 Q469 3 446 2.5 Q423 2 400 1.5 Q377 1 357.5 0.5 Q338 0 331 0 L341 41 L399 57 L386 170 L196 170 L159 105 Q151 91 147.5 83 Q144 75 144 67 Z M234 232 L379 232 L355 441 L234 232 Z M358 676 Q335 676 320 690 Q305 704 305 725 Q305 741 312.5 756.5 Q320 772 332 784 Q344 796 360 803 Q376 810 393 810 Q417 810 431.5 796 Q446 782 446 761 Q446 744 438.5 729 Q431 714 419 702 Q407 690 391 683 Q375 676 358 676 Z M544 676 Q521 676 506 690 Q491 704 491 725 Q491 741 498.5 756.5 Q506 772 518 784 Q530 796 546 803 Q562 810 579 810 Q603 810 617.5 796 Q632 782 632 761 Q632 744 624.5 729 Q617 714 605 702 Q593 690 577 683 Q561 676 544 676 Z " />
<glyph glyph-name="Amacron" unicode="&#x100;" horiz-adv-x="642" d="M144 67 Q144 56 156 49.5 Q168 43 188 41 L178 0 Q155 2 129 2.5 Q103 3 80 3 Q69 3 54 2.5 Q39 2 24 1.5 Q9 1 -5 0.5 Q-19 0 -28 0 L-17 41 L45 58 L380 625 L510 625 L571 121 Q574 100 577 87 Q580 74 587 65.5 Q594 57 605.5 52 Q617 47 636 41 L626 0 Q618 0 599.5 0.5 Q581 1 559.5 1.5 Q538 2 517 2.5 Q496 3 483 3 Q469 3 446 2.5 Q423 2 400 1.5 Q377 1 357.5 0.5 Q338 0 331 0 L341 41 L399 57 L386 170 L196 170 L159 105 Q151 91 147.5 83 Q144 75 144 67 Z M234 232 L379 232 L355 441 L234 232 Z M335 688 L352 760 L586 760 L569 688 L335 688 Z " />
<glyph glyph-name="Abreve" unicode="&#x102;" horiz-adv-x="642" d="M144 67 Q144 56 156 49.5 Q168 43 188 41 L178 0 Q155 2 129 2.5 Q103 3 80 3 Q69 3 54 2.5 Q39 2 24 1.5 Q9 1 -5 0.5 Q-19 0 -28 0 L-17 41 L45 58 L380 625 L510 625 L571 121 Q574 100 577 87 Q580 74 587 65.5 Q594 57 605.5 52 Q617 47 636 41 L626 0 Q618 0 599.5 0.5 Q581 1 559.5 1.5 Q538 2 517 2.5 Q496 3 483 3 Q469 3 446 2.5 Q423 2 400 1.5 Q377 1 357.5 0.5 Q338 0 331 0 L341 41 L399 57 L386 170 L196 170 L159 105 Q151 91 147.5 83 Q144 75 144 67 Z M234 232 L379 232 L355 441 L234 232 Z M605 806 Q599 779 585 755 Q571 731 551 713 Q531 695 505.5 684.5 Q480 674 450 674 Q401 674 374.5 701.5 Q348 729 349 771 Q349 790 353 806 L399 806 Q401 780 420 766.5 Q439 753 467 753 Q496 753 521 767 Q546 781 560 806 L605 806 L605 806 Z " />
<glyph glyph-name="Acaron" unicode="&#x1cd;" horiz-adv-x="642" d="M144 67 Q144 56 156 49.5 Q168 43 188 41 L178 0 Q155 2 129 2.5 Q103 3 80 3 Q69 3 54 2.5 Q39 2 24 1.5 Q9 1 -5 0.5 Q-19 0 -28 0 L-17 41 L45 58 L380 625 L510 625 L571 121 Q574 100 577 87 Q580 74 587 65.5 Q594 57 605.5 52 Q617 47 636 41 L626 0 Q618 0 599.5 0.5 Q581 1 559.5 1.5 Q538 2 517 2.5 Q496 3 483 3 Q469 3 446 2.5 Q423 2 400 1.5 Q377 1 357.5 0.5 Q338 0 331 0 L341 41 L399 57 L386 170 L196 170 L159 105 Q151 91 147.5 83 Q144 75 144 67 Z M234 232 L379 232 L355 441 L234 232 Z M470 750 L611 829 L634 807 L497 675 L407 675 L332 810 L360 829 L470 750 Z " />
<glyph glyph-name="Aring" unicode="&#xc5;" horiz-adv-x="642" d="M144 67 Q144 56 156 49.5 Q168 43 188 41 L178 0 Q155 2 129 2.5 Q103 3 80 3 Q69 3 54 2.5 Q39 2 24 1.5 Q9 1 -5 0.5 Q-19 0 -28 0 L-17 41 L45 58 L380 625 L510 625 L571 121 Q574 100 577 87 Q580 74 587 65.5 Q594 57 605.5 52 Q617 47 636 41 L626 0 Q618 0 599.5 0.5 Q581 1 559.5 1.5 Q538 2 517 2.5 Q496 3 483 3 Q469 3 446 2.5 Q423 2 400 1.5 Q377 1 357.5 0.5 Q338 0 331 0 L341 41 L399 57 L386 170 L196 170 L159 105 Q151 91 147.5 83 Q144 75 144 67 Z M234 232 L379 232 L355 441 L234 232 Z M459 721 Q482 721 499 740.5 Q516 760 516 784 Q516 801 506.5 810 Q497 819 482 819 Q459 819 442 799.5 Q425 780 425 756 Q425 739 434.5 730 Q444 721 459 721 Z M451 674 Q416 674 393.5 697 Q371 720 371 752 Q371 775 380.5 795.5 Q390 816 406.5 832 Q423 848 444.5 857 Q466 866 490 866 Q525 866 547.5 843.5 Q570 821 570 789 Q570 766 560.5 745 Q551 724 534.5 708.5 Q518 693 496.5 683.5 Q475 674 451 674 Z " />
<glyph glyph-name="Aringacute" unicode="&#x1fa;" horiz-adv-x="642" d="M144 67 Q144 56 156 49.5 Q168 43 188 41 L178 0 Q155 2 129 2.5 Q103 3 80 3 Q69 3 54 2.5 Q39 2 24 1.5 Q9 1 -5 0.5 Q-19 0 -28 0 L-17 41 L45 58 L380 625 L510 625 L571 121 Q574 100 577 87 Q580 74 587 65.5 Q594 57 605.5 52 Q617 47 636 41 L626 0 Q618 0 599.5 0.5 Q581 1 559.5 1.5 Q538 2 517 2.5 Q496 3 483 3 Q469 3 446 2.5 Q423 2 400 1.5 Q377 1 357.5 0.5 Q338 0 331 0 L341 41 L399 57 L386 170 L196 170 L159 105 Q151 91 147.5 83 Q144 75 144 67 Z M234 232 L379 232 L355 441 L234 232 Z M638 952 L385 853 L370 881 L547 1015 Q559 1024 570 1029.5 Q581 1035 592 1035 Q603 1035 609.5 1029.5 Q616 1024 622 1013 L644 968 L638 952 Z M457 705 Q480 705 497 724.5 Q514 744 514 768 Q514 785 504.5 794 Q495 803 480 803 Q457 803 440 783.5 Q423 764 423 740 Q423 723 432.5 714 Q442 705 457 705 Z M449 658 Q414 658 391.5 681 Q369 704 369 736 Q369 759 378.5 779.5 Q388 800 404.5 816 Q421 832 442.5 841 Q464 850 488 850 Q523 850 545.5 827.5 Q568 805 568 773 Q568 750 558.5 729 Q549 708 532.5 692.5 Q516 677 494.5 667.5 Q473 658 449 658 Z " />
<glyph glyph-name="Aogonek" unicode="&#x104;" horiz-adv-x="642" d="M564 -208 Q548 -220 518.5 -231 Q489 -242 456 -242 Q411 -242 384.5 -218 Q358 -194 358 -156 Q358 -116 385.5 -73.5 Q413 -31 458 3 Q441 3 421.5 2.5 Q402 2 383.5 1.5 Q365 1 351 0.5 Q337 0 331 0 L341 41 L399 57 L386 170 L196 170 L159 105 Q151 91 147.5 83 Q144 75 144 67 Q144 56 156 49.5 Q168 43 188 41 L178 0 Q155 2 129 2.5 Q103 3 80 3 Q69 3 54 2.5 Q39 2 24 1.5 Q9 1 -5 0.5 Q-19 0 -28 0 L-17 41 L45 58 L380 625 L509 625 L570 121 Q573 100 576.5 87 Q580 74 586.5 65.5 Q593 57 605 52 Q617 47 636 41 L626 0 Q615 0 589 1 Q563 2 536 2 Q504 -26 482.5 -66 Q461 -106 461 -140 Q461 -159 471.5 -169.5 Q482 -180 500 -180 Q514 -180 527 -176.5 Q540 -173 551 -168 L564 -208 Z M234 232 L379 232 L355 441 L234 232 Z " />
<glyph glyph-name="AE" unicode="&#xc6;" horiz-adv-x="914" d="M368 349 L490 349 L543 564 L368 349 Z M348 0 L358 41 L420 59 L475 286 L315 286 L151 84 Q141 71 141 65 Q141 57 151 51.5 Q161 46 189 40 L179 0 Q156 1 130.5 1.5 Q105 2 80 2 Q69 2 54.5 2 Q40 2 25 1.5 Q10 1 -4.5 0.5 Q-19 0 -28 0 L-18 40 L43 58 L435 538 Q447 553 447 562 Q447 571 435 575.5 Q423 580 402 584 L412 625 L968 625 Q964 609 959.5 586 Q955 563 950.5 539 Q946 515 942 493.5 Q938 472 936 459 L881 459 Q881 494 879 513 Q877 532 866 545 Q848 566 784 566 L724 566 L672 349 L697 349 Q745 349 785 352 Q825 355 848 360 L821 277 Q812 278 797 280 Q782 282 763 283 Q744 284 722.5 285 Q701 286 681 286 L656 286 L616 119 Q614 109 614 104 Q614 82 629 72 Q647 60 680 60 Q706 60 727.5 64.5 Q749 69 766.5 80 Q784 91 798.5 111 Q813 131 824 162 L882 162 Q878 150 872 128 Q866 106 859.5 82 Q853 58 847.5 35.5 Q842 13 839 0 L348 0 Z " />
<glyph glyph-name="AEacute" unicode="&#x1fc;" horiz-adv-x="914" d="M368 349 L490 349 L543 564 L368 349 Z M348 0 L358 41 L420 59 L475 286 L315 286 L151 84 Q141 71 141 65 Q141 57 151 51.5 Q161 46 189 40 L179 0 Q156 1 130.5 1.5 Q105 2 80 2 Q69 2 54.5 2 Q40 2 25 1.5 Q10 1 -4.5 0.5 Q-19 0 -28 0 L-18 40 L43 58 L435 538 Q447 553 447 562 Q447 571 435 575.5 Q423 580 402 584 L412 625 L968 625 Q964 609 959.5 586 Q955 563 950.5 539 Q946 515 942 493.5 Q938 472 936 459 L881 459 Q881 494 879 513 Q877 532 866 545 Q848 566 784 566 L724 566 L672 349 L697 349 Q745 349 785 352 Q825 355 848 360 L821 277 Q812 278 797 280 Q782 282 763 283 Q744 284 722.5 285 Q701 286 681 286 L656 286 L616 119 Q614 109 614 104 Q614 82 629 72 Q647 60 680 60 Q706 60 727.5 64.5 Q749 69 766.5 80 Q784 91 798.5 111 Q813 131 824 162 L882 162 Q878 150 872 128 Q866 106 859.5 82 Q853 58 847.5 35.5 Q842 13 839 0 L348 0 Z M855 747 L605 667 L592 694 L766 809 Q793 827 811 827 Q833 827 843 802 L860 762 L855 747 Z " />
<glyph glyph-name="Cacute" unicode="&#x106;" horiz-adv-x="587" d="M554 112 Q508 55 443.5 20 Q379 -15 302 -15 Q250 -15 207.5 0 Q165 15 135 44 Q105 73 88.5 117 Q72 161 72 218 Q72 293 99 368 Q126 443 178 503.5 Q230 564 304.5 602 Q379 640 474 640 Q515 640 559.5 634.5 Q604 629 657 624 Q645 581 633 531 Q621 481 611 438 L549 438 Q551 451 552.5 467 Q554 483 554 494 Q554 569 487 569 Q439 569 397 534.5 Q355 500 324.5 447.5 Q294 395 276.5 332 Q259 269 259 211 Q259 158 283 126.5 Q307 95 358 95 Q396 95 436 111 Q476 127 513 154 L554 112 Z M626 747 L376 667 L363 694 L537 809 Q564 827 582 827 Q604 827 614 802 L631 762 L626 747 Z " />
<glyph glyph-name="Ccedilla" unicode="&#xc7;" horiz-adv-x="587" d="M386 -104 Q386 -139 367 -165.5 Q348 -192 318 -209.5 Q288 -227 250 -235.5 Q212 -244 174 -242 L169 -201 Q217 -192 252 -170 Q287 -148 287 -115 Q287 -99 277.5 -93 Q268 -87 255 -84 Q247 -82 239.5 -80.5 Q232 -79 227.5 -77 Q223 -75 221.5 -70.5 Q220 -66 225 -58 L252 -11 Q169 2 120.5 59.5 Q72 117 72 218 Q72 293 99 368 Q126 443 177 503.5 Q228 564 302.5 602 Q377 640 472 640 Q520 640 567.5 634.5 Q615 629 657 624 Q645 581 633 531 Q621 481 611 438 L549 438 Q551 451 552.5 467 Q554 483 554 494 Q554 529 536 549 Q518 569 483 569 Q437 569 396.5 534.5 Q356 500 325.5 447.5 Q295 395 277 332 Q259 269 259 211 Q259 158 283 126.5 Q307 95 358 95 Q396 95 436 111 Q476 127 513 154 L554 112 Q511 59 452.5 25 Q394 -9 325 -14 L315 -31 Q347 -37 366.5 -54.5 Q386 -72 386 -104 Z " />
<glyph glyph-name="Ccircumflex" unicode="&#x108;" horiz-adv-x="587" d="M554 112 Q508 55 443.5 20 Q379 -15 302 -15 Q250 -15 207.5 0 Q165 15 135 44 Q105 73 88.5 117 Q72 161 72 218 Q72 293 99 368 Q126 443 178 503.5 Q230 564 304.5 602 Q379 640 474 640 Q515 640 559.5 634.5 Q604 629 657 624 Q645 581 633 531 Q621 481 611 438 L549 438 Q551 451 552.5 467 Q554 483 554 494 Q554 569 487 569 Q439 569 397 534.5 Q355 500 324.5 447.5 Q294 395 276.5 332 Q259 269 259 211 Q259 158 283 126.5 Q307 95 358 95 Q396 95 436 111 Q476 127 513 154 L554 112 Z M503 749 L362 670 L339 692 L476 824 L566 824 L641 689 L613 670 L503 749 Z " />
<glyph glyph-name="Ccaron" unicode="&#x10c;" horiz-adv-x="587" d="M554 112 Q508 55 443.5 20 Q379 -15 302 -15 Q250 -15 207.5 0 Q165 15 135 44 Q105 73 88.5 117 Q72 161 72 218 Q72 293 99 368 Q126 443 178 503.5 Q230 564 304.5 602 Q379 640 474 640 Q515 640 559.5 634.5 Q604 629 657 624 Q645 581 633 531 Q621 481 611 438 L549 438 Q551 451 552.5 467 Q554 483 554 494 Q554 569 487 569 Q439 569 397 534.5 Q355 500 324.5 447.5 Q294 395 276.5 332 Q259 269 259 211 Q259 158 283 126.5 Q307 95 358 95 Q396 95 436 111 Q476 127 513 154 L554 112 Z M510 750 L651 829 L674 807 L537 675 L447 675 L372 810 L400 829 L510 750 Z " />
<glyph glyph-name="Cdotaccent" unicode="&#x10a;" horiz-adv-x="587" d="M554 112 Q508 55 443.5 20 Q379 -15 302 -15 Q250 -15 207.5 0 Q165 15 135 44 Q105 73 88.5 117 Q72 161 72 218 Q72 293 99 368 Q126 443 178 503.5 Q230 564 304.5 602 Q379 640 474 640 Q515 640 559.5 634.5 Q604 629 657 624 Q645 581 633 531 Q621 481 611 438 L549 438 Q551 451 552.5 467 Q554 483 554 494 Q554 569 487 569 Q439 569 397 534.5 Q355 500 324.5 447.5 Q294 395 276.5 332 Q259 269 259 211 Q259 158 283 126.5 Q307 95 358 95 Q396 95 436 111 Q476 127 513 154 L554 112 Z M488 674 Q459 674 443.5 691.5 Q428 709 428 735 Q428 753 436.5 769.5 Q445 786 458.5 798.5 Q472 811 489.5 819 Q507 827 525 827 Q554 827 569.5 809.5 Q585 792 585 766 Q585 748 576.5 731.5 Q568 715 554.5 702.5 Q541 690 523.5 682 Q506 674 488 674 Z " />
<glyph glyph-name="Dcaron" unicode="&#x10e;" horiz-adv-x="689" d="M407 625 Q473 625 529.5 614 Q586 603 627.5 576.5 Q669 550 692.5 505.5 Q716 461 716 394 Q715 314 686 242.5 Q657 171 603 117 Q549 63 472 31.5 Q395 0 299 0 L10 0 L20 41 L82 59 L190 505 Q195 528 195 539 Q195 557 182 567.5 Q169 578 143 584 L153 625 L407 625 Z M307 64 Q349 64 389 98.5 Q429 133 460 186.5 Q491 240 510 304 Q529 368 529 428 Q529 498 498 530 Q468 561 398 561 L385 561 L275 107 Q270 85 276 74.5 Q282 64 307 64 Z M487 750 L628 829 L651 807 L514 675 L424 675 L349 810 L377 829 L487 750 Z " />
<glyph glyph-name="Dcroat" unicode="&#x110;" horiz-adv-x="689" d="M407 625 Q473 625 529.5 614 Q586 603 627.5 576.5 Q669 550 692.5 505.5 Q716 461 716 394 Q715 314 686 242.5 Q657 171 603 117 Q549 63 472 31.5 Q395 0 299 0 L10 0 L20 41 L82 59 L138 290 L65 290 L82 361 L155 361 L190 505 Q195 528 195 539 Q195 557 182 567.5 Q169 578 143 584 L153 625 L407 625 Z M336 361 L424 361 L407 290 L319 290 L275 107 Q270 85 276 74.5 Q282 64 307 64 Q349 64 389 98.5 Q429 133 460 186.5 Q491 240 510 304 Q529 368 529 428 Q529 498 498 530 Q468 561 398 561 L385 561 L336 361 Z " />
<glyph glyph-name="Eth" unicode="&#xd0;" horiz-adv-x="689" d="M407 625 Q473 625 529.5 614 Q586 603 627.5 576.5 Q669 550 692.5 505.5 Q716 461 716 394 Q715 314 686 242.5 Q657 171 603 117 Q549 63 472 31.5 Q395 0 299 0 L10 0 L20 41 L82 59 L138 290 L65 290 L82 361 L155 361 L190 505 Q195 528 195 539 Q195 557 182 567.5 Q169 578 143 584 L153 625 L407 625 Z M336 361 L424 361 L407 290 L319 290 L275 107 Q270 85 276 74.5 Q282 64 307 64 Q349 64 389 98.5 Q429 133 460 186.5 Q491 240 510 304 Q529 368 529 428 Q529 498 498 530 Q468 561 398 561 L385 561 L336 361 Z " />
<glyph glyph-name="Egrave" unicode="&#xc8;" horiz-adv-x="576" d="M20 41 L82 59 L190 505 Q195 528 195 539 Q195 557 182 567.5 Q169 578 143 584 L153 625 L630 625 Q626 609 621.5 586 Q617 563 612.5 539 Q608 515 604 493.5 Q600 472 598 459 L543 459 Q543 494 541 513 Q539 532 528 545 Q510 566 446 566 L386 566 L334 349 L359 349 Q407 349 447 352.5 Q487 356 510 361 L483 277 Q474 278 459 280 Q444 282 425 283 Q406 284 384.5 285 Q363 286 343 286 L318 286 L279 124 Q276 110 276 104 Q276 80 295.5 70 Q315 60 342 60 Q368 60 389.5 64.5 Q411 69 428.5 80 Q446 91 460.5 111 Q475 131 486 162 L544 162 Q540 150 534 128 Q528 106 521.5 82 Q515 58 509.5 35.5 Q504 13 501 0 L10 0 L20 41 Z M310 763 L338 806 Q354 829 375 829 Q387 829 397.5 823 Q408 817 419 807 L546 695 L527 666 L312 747 L310 763 Z " />
<glyph glyph-name="Eacute" unicode="&#xc9;" horiz-adv-x="576" d="M20 41 L82 59 L190 505 Q195 528 195 539 Q195 557 182 567.5 Q169 578 143 584 L153 625 L630 625 Q626 609 621.5 586 Q617 563 612.5 539 Q608 515 604 493.5 Q600 472 598 459 L543 459 Q543 494 541 513 Q539 532 528 545 Q510 566 446 566 L386 566 L334 349 L359 349 Q407 349 447 352.5 Q487 356 510 361 L483 277 Q474 278 459 280 Q444 282 425 283 Q406 284 384.5 285 Q363 286 343 286 L318 286 L279 124 Q276 110 276 104 Q276 80 295.5 70 Q315 60 342 60 Q368 60 389.5 64.5 Q411 69 428.5 80 Q446 91 460.5 111 Q475 131 486 162 L544 162 Q540 150 534 128 Q528 106 521.5 82 Q515 58 509.5 35.5 Q504 13 501 0 L10 0 L20 41 Z M557 747 L307 667 L294 694 L468 809 Q495 827 513 827 Q535 827 545 802 L562 762 L557 747 Z " />
<glyph glyph-name="Ecircumflex" unicode="&#xca;" horiz-adv-x="576" d="M20 41 L82 59 L190 505 Q195 528 195 539 Q195 557 182 567.5 Q169 578 143 584 L153 625 L630 625 Q626 609 621.5 586 Q617 563 612.5 539 Q608 515 604 493.5 Q600 472 598 459 L543 459 Q543 494 541 513 Q539 532 528 545 Q510 566 446 566 L386 566 L334 349 L359 349 Q407 349 447 352.5 Q487 356 510 361 L483 277 Q474 278 459 280 Q444 282 425 283 Q406 284 384.5 285 Q363 286 343 286 L318 286 L279 124 Q276 110 276 104 Q276 80 295.5 70 Q315 60 342 60 Q368 60 389.5 64.5 Q411 69 428.5 80 Q446 91 460.5 111 Q475 131 486 162 L544 162 Q540 150 534 128 Q528 106 521.5 82 Q515 58 509.5 35.5 Q504 13 501 0 L10 0 L20 41 Z M441 749 L300 670 L277 692 L414 824 L504 824 L579 689 L551 670 L441 749 Z " />
<glyph glyph-name="Ecaron" unicode="&#x11a;" horiz-adv-x="576" d="M20 41 L82 59 L190 505 Q195 528 195 539 Q195 557 182 567.5 Q169 578 143 584 L153 625 L630 625 Q626 609 621.5 586 Q617 563 612.5 539 Q608 515 604 493.5 Q600 472 598 459 L543 459 Q543 494 541 513 Q539 532 528 545 Q510 566 446 566 L386 566 L334 349 L359 349 Q407 349 447 352.5 Q487 356 510 361 L483 277 Q474 278 459 280 Q444 282 425 283 Q406 284 384.5 285 Q363 286 343 286 L318 286 L279 124 Q276 110 276 104 Q276 80 295.5 70 Q315 60 342 60 Q368 60 389.5 64.5 Q411 69 428.5 80 Q446 91 460.5 111 Q475 131 486 162 L544 162 Q540 150 534 128 Q528 106 521.5 82 Q515 58 509.5 35.5 Q504 13 501 0 L10 0 L20 41 Z M425 750 L566 829 L589 807 L452 675 L362 675 L287 810 L315 829 L425 750 Z " />
<glyph glyph-name="Edieresis" unicode="&#xcb;" horiz-adv-x="576" d="M20 41 L82 59 L190 505 Q195 528 195 539 Q195 557 182 567.5 Q169 578 143 584 L153 625 L630 625 Q626 609 621.5 586 Q617 563 612.5 539 Q608 515 604 493.5 Q600 472 598 459 L543 459 Q543 494 541 513 Q539 532 528 545 Q510 566 446 566 L386 566 L334 349 L359 349 Q407 349 447 352.5 Q487 356 510 361 L483 277 Q474 278 459 280 Q444 282 425 283 Q406 284 384.5 285 Q363 286 343 286 L318 286 L279 124 Q276 110 276 104 Q276 80 295.5 70 Q315 60 342 60 Q368 60 389.5 64.5 Q411 69 428.5 80 Q446 91 460.5 111 Q475 131 486 162 L544 162 Q540 150 534 128 Q528 106 521.5 82 Q515 58 509.5 35.5 Q504 13 501 0 L10 0 L20 41 Z M318 676 Q295 676 280 690 Q265 704 265 725 Q265 741 272.5 756.5 Q280 772 292 784 Q304 796 320 803 Q336 810 353 810 Q377 810 391.5 796 Q406 782 406 761 Q406 744 398.5 729 Q391 714 379 702 Q367 690 351 683 Q335 676 318 676 Z M504 676 Q481 676 466 690 Q451 704 451 725 Q451 741 458.5 756.5 Q466 772 478 784 Q490 796 506 803 Q522 810 539 810 Q563 810 577.5 796 Q592 782 592 761 Q592 744 584.5 729 Q577 714 565 702 Q553 690 537 683 Q521 676 504 676 Z " />
<glyph glyph-name="Emacron" unicode="&#x112;" horiz-adv-x="576" d="M20 41 L82 59 L190 505 Q195 528 195 539 Q195 557 182 567.5 Q169 578 143 584 L153 625 L630 625 Q626 609 621.5 586 Q617 563 612.5 539 Q608 515 604 493.5 Q600 472 598 459 L543 459 Q543 494 541 513 Q539 532 528 545 Q510 566 446 566 L386 566 L334 349 L359 349 Q407 349 447 352.5 Q487 356 510 361 L483 277 Q474 278 459 280 Q444 282 425 283 Q406 284 384.5 285 Q363 286 343 286 L318 286 L279 124 Q276 110 276 104 Q276 80 295.5 70 Q315 60 342 60 Q368 60 389.5 64.5 Q411 69 428.5 80 Q446 91 460.5 111 Q475 131 486 162 L544 162 Q540 150 534 128 Q528 106 521.5 82 Q515 58 509.5 35.5 Q504 13 501 0 L10 0 L20 41 Z M303 688 L320 760 L554 760 L537 688 L303 688 Z " />
<glyph glyph-name="Ebreve" unicode="&#x114;" horiz-adv-x="576" d="M20 41 L82 59 L190 505 Q195 528 195 539 Q195 557 182 567.5 Q169 578 143 584 L153 625 L630 625 Q626 609 621.5 586 Q617 563 612.5 539 Q608 515 604 493.5 Q600 472 598 459 L543 459 Q543 494 541 513 Q539 532 528 545 Q510 566 446 566 L386 566 L334 349 L359 349 Q407 349 447 352.5 Q487 356 510 361 L483 277 Q474 278 459 280 Q444 282 425 283 Q406 284 384.5 285 Q363 286 343 286 L318 286 L279 124 Q276 110 276 104 Q276 80 295.5 70 Q315 60 342 60 Q368 60 389.5 64.5 Q411 69 428.5 80 Q446 91 460.5 111 Q475 131 486 162 L544 162 Q540 150 534 128 Q528 106 521.5 82 Q515 58 509.5 35.5 Q504 13 501 0 L10 0 L20 41 Z M567 806 Q561 779 547 755 Q533 731 513 713 Q493 695 467.5 684.5 Q442 674 412 674 Q363 674 336.5 701.5 Q310 729 311 771 Q311 790 315 806 L361 806 Q363 780 382 766.5 Q401 753 429 753 Q458 753 483 767 Q508 781 522 806 L567 806 L567 806 Z " />
<glyph glyph-name="Edotaccent" unicode="&#x116;" horiz-adv-x="576" d="M20 41 L82 59 L190 505 Q195 528 195 539 Q195 557 182 567.5 Q169 578 143 584 L153 625 L630 625 Q626 609 621.5 586 Q617 563 612.5 539 Q608 515 604 493.5 Q600 472 598 459 L543 459 Q543 494 541 513 Q539 532 528 545 Q510 566 446 566 L386 566 L334 349 L359 349 Q407 349 447 352.5 Q487 356 510 361 L483 277 Q474 278 459 280 Q444 282 425 283 Q406 284 384.5 285 Q363 286 343 286 L318 286 L279 124 Q276 110 276 104 Q276 80 295.5 70 Q315 60 342 60 Q368 60 389.5 64.5 Q411 69 428.5 80 Q446 91 460.5 111 Q475 131 486 162 L544 162 Q540 150 534 128 Q528 106 521.5 82 Q515 58 509.5 35.5 Q504 13 501 0 L10 0 L20 41 Z M410 674 Q381 674 365.5 691.5 Q350 709 350 735 Q350 753 358.5 769.5 Q367 786 380.5 798.5 Q394 811 411.5 819 Q429 827 447 827 Q476 827 491.5 809.5 Q507 792 507 766 Q507 748 498.5 731.5 Q490 715 476.5 702.5 Q463 690 445.5 682 Q428 674 410 674 Z " />
<glyph glyph-name="Eogonek" unicode="&#x118;" horiz-adv-x="576" d="M279 124 Q276 110 276 104 Q276 80 295.5 70 Q315 60 342 60 Q368 60 389.5 64.5 Q411 69 428.5 80 Q446 91 460.5 111 Q475 131 486 162 L544 162 Q540 150 534 128 Q528 106 521.5 82 Q515 58 509.5 35.5 Q504 13 501 0 L433 0 Q401 -29 381 -68 Q361 -107 361 -140 Q361 -159 371.5 -169.5 Q382 -180 400 -180 Q414 -180 427 -176.5 Q440 -173 451 -168 L464 -208 Q448 -220 418.5 -231 Q389 -242 356 -242 Q311 -242 284.5 -218 Q258 -194 258 -156 Q258 -117 284.5 -75.5 Q311 -34 354 0 L10 0 L20 41 L82 59 L190 505 Q195 528 195 539 Q195 557 182 567.5 Q169 578 143 584 L153 625 L630 625 Q626 609 621.5 586 Q617 563 612.5 539 Q608 515 604 493.5 Q600 472 598 459 L543 459 Q543 494 541 513 Q539 532 528 545 Q510 566 446 566 L386 566 L334 349 L359 349 Q407 349 447 352.5 Q487 356 510 361 L483 277 Q474 278 459 280 Q444 282 425 283 Q406 284 384.5 285 Q363 286 343 286 L318 286 L279 124 Z " />
<glyph glyph-name="Gcircumflex" unicode="&#x11c;" horiz-adv-x="678" d="M499 568 Q462 568 431.5 554.5 Q401 541 377 516 Q349 487 327 447.5 Q305 408 290 364 Q275 320 267 273.5 Q259 227 259 185 Q259 123 280 91.5 Q301 60 339 60 Q379 60 399 91 Q419 122 431 172 L448 242 L383 261 L393 302 Q402 302 423 301.5 Q444 301 468 300.5 Q492 300 514 299.5 Q536 299 547 299 Q558 299 579 299 Q600 299 623 299.5 Q646 300 667 300.5 Q688 301 700 302 L690 261 Q668 256 654.5 250.5 Q641 245 633 236.5 Q625 228 620 216.5 Q615 205 611 187 L579 56 Q522 24 457.5 4.5 Q393 -15 324 -15 Q203 -15 137.5 46 Q72 107 72 224 Q72 274 83.5 321.5 Q95 369 117 411.5 Q139 454 170 491.5 Q201 529 239 558 Q291 598 356 619 Q421 640 496 640 Q520 640 546.5 637.5 Q573 635 599 631.5 Q625 628 648.5 624.5 Q672 621 691 619 Q679 576 667.5 528.5 Q656 481 646 438 L585 438 Q589 458 589 478 Q589 521 566 544.5 Q543 568 499 568 Z M522 749 L381 670 L358 692 L495 824 L585 824 L660 689 L632 670 L522 749 Z " />
<glyph glyph-name="Gbreve" unicode="&#x11e;" horiz-adv-x="678" d="M499 568 Q462 568 431.5 554.5 Q401 541 377 516 Q349 487 327 447.5 Q305 408 290 364 Q275 320 267 273.5 Q259 227 259 185 Q259 123 280 91.5 Q301 60 339 60 Q379 60 399 91 Q419 122 431 172 L448 242 L383 261 L393 302 Q402 302 423 301.5 Q444 301 468 300.5 Q492 300 514 299.5 Q536 299 547 299 Q558 299 579 299 Q600 299 623 299.5 Q646 300 667 300.5 Q688 301 700 302 L690 261 Q668 256 654.5 250.5 Q641 245 633 236.5 Q625 228 620 216.5 Q615 205 611 187 L579 56 Q522 24 457.5 4.5 Q393 -15 324 -15 Q203 -15 137.5 46 Q72 107 72 224 Q72 274 83.5 321.5 Q95 369 117 411.5 Q139 454 170 491.5 Q201 529 239 558 Q291 598 356 619 Q421 640 496 640 Q520 640 546.5 637.5 Q573 635 599 631.5 Q625 628 648.5 624.5 Q672 621 691 619 Q679 576 667.5 528.5 Q656 481 646 438 L585 438 Q589 458 589 478 Q589 521 566 544.5 Q543 568 499 568 Z M643 806 Q637 779 623 755 Q609 731 589 713 Q569 695 543.5 684.5 Q518 674 488 674 Q439 674 412.5 701.5 Q386 729 387 771 Q387 790 391 806 L437 806 Q439 780 458 766.5 Q477 753 505 753 Q534 753 559 767 Q584 781 598 806 L643 806 L643 806 Z " />
<glyph glyph-name="Gdotaccent" unicode="&#x120;" horiz-adv-x="678" d="M499 568 Q462 568 431.5 554.5 Q401 541 377 516 Q349 487 327 447.5 Q305 408 290 364 Q275 320 267 273.5 Q259 227 259 185 Q259 123 280 91.5 Q301 60 339 60 Q379 60 399 91 Q419 122 431 172 L448 242 L383 261 L393 302 Q402 302 423 301.5 Q444 301 468 300.5 Q492 300 514 299.5 Q536 299 547 299 Q558 299 579 299 Q600 299 623 299.5 Q646 300 667 300.5 Q688 301 700 302 L690 261 Q668 256 654.5 250.5 Q641 245 633 236.5 Q625 228 620 216.5 Q615 205 611 187 L579 56 Q522 24 457.5 4.5 Q393 -15 324 -15 Q203 -15 137.5 46 Q72 107 72 224 Q72 274 83.5 321.5 Q95 369 117 411.5 Q139 454 170 491.5 Q201 529 239 558 Q291 598 356 619 Q421 640 496 640 Q520 640 546.5 637.5 Q573 635 599 631.5 Q625 628 648.5 624.5 Q672 621 691 619 Q679 576 667.5 528.5 Q656 481 646 438 L585 438 Q589 458 589 478 Q589 521 566 544.5 Q543 568 499 568 Z M490 674 Q461 674 445.5 691.5 Q430 709 430 735 Q430 753 438.5 769.5 Q447 786 460.5 798.5 Q474 811 491.5 819 Q509 827 527 827 Q556 827 571.5 809.5 Q587 792 587 766 Q587 748 578.5 731.5 Q570 715 556.5 702.5 Q543 690 525.5 682 Q508 674 490 674 Z " />
<glyph glyph-name="Gcommaaccent" unicode="&#x122;" horiz-adv-x="678" d="M499 568 Q462 568 431.5 554.5 Q401 541 377 516 Q349 487 327 447.5 Q305 408 290 364 Q275 320 267 273.5 Q259 227 259 185 Q259 123 280 91.5 Q301 60 339 60 Q379 60 399 91 Q419 122 431 172 L448 242 L383 261 L393 302 Q402 302 423 301.5 Q444 301 468 300.5 Q492 300 514 299.5 Q536 299 547 299 Q558 299 579 299 Q600 299 623 299.5 Q646 300 667 300.5 Q688 301 700 302 L690 261 Q668 256 654.5 250.5 Q641 245 633 236.5 Q625 228 620 216.5 Q615 205 611 187 L579 56 Q522 24 457.5 4.5 Q393 -15 324 -15 Q203 -15 137.5 46 Q72 107 72 224 Q72 274 83.5 321.5 Q95 369 117 411.5 Q139 454 170 491.5 Q201 529 239 558 Q291 598 356 619 Q421 640 496 640 Q520 640 546.5 637.5 Q573 635 599 631.5 Q625 628 648.5 624.5 Q672 621 691 619 Q679 576 667.5 528.5 Q656 481 646 438 L585 438 Q589 458 589 478 Q589 521 566 544.5 Q543 568 499 568 Z M383 -105 Q383 -136 370 -165.5 Q357 -195 334 -221.5 Q311 -248 280 -272 Q249 -296 214 -315 L196 -285 Q237 -253 257 -229 Q277 -205 277 -185 Q277 -175 271.5 -167 Q266 -159 259.5 -151.5 Q253 -144 247.5 -135 Q242 -126 242 -113 Q242 -86 265.5 -64 Q289 -42 322 -42 Q354 -42 368.5 -61.5 Q383 -81 383 -105 Z " />
<glyph glyph-name="Hcircumflex" unicode="&#x124;" horiz-adv-x="731" d="M378 360 L560 360 L596 505 Q601 528 601 539 Q601 557 588 567.5 Q575 578 549 584 L559 625 Q570 625 589 624.5 Q608 624 629 623.5 Q650 623 670 622.5 Q690 622 704 622 Q719 622 742.5 622.5 Q766 623 790 623.5 Q814 624 834.5 624.5 Q855 625 864 625 L854 584 L792 566 L684 120 Q679 97 679 86 Q679 68 692 57.5 Q705 47 731 41 L721 0 Q710 0 690.5 0.5 Q671 1 650 1.5 Q629 2 608.5 2.5 Q588 3 575 3 Q560 3 537 2.5 Q514 2 490 1.5 Q466 1 445.5 0.5 Q425 0 416 0 L426 41 L488 59 L544 291 L362 291 L321 120 Q316 97 316 86 Q316 68 329 57.5 Q342 47 368 41 L358 0 Q347 0 328 0.5 Q309 1 288 1.5 Q267 2 246.5 2.5 Q226 3 213 3 Q198 3 174.5 2.5 Q151 2 127 1.5 Q103 1 82.5 0.5 Q62 0 53 0 L63 41 L125 59 L233 505 Q238 528 238 539 Q238 557 225 567.5 Q212 578 186 584 L196 625 Q207 625 226.5 624.5 Q246 624 267 623.5 Q288 623 308 622.5 Q328 622 342 622 Q357 622 380 622.5 Q403 623 427 623.5 Q451 624 471.5 624.5 Q492 625 501 625 L491 584 L429 566 L378 360 Z M510 749 L369 670 L346 692 L483 824 L573 824 L648 689 L620 670 L510 749 Z " />
<glyph glyph-name="Hbar" unicode="&#x126;" horiz-adv-x="730" d="M190 505 Q195 528 195 539 Q195 557 182 567.5 Q169 578 143 584 L153 625 Q164 625 183.5 624.5 Q203 624 224 623.5 Q245 623 265 622.5 Q285 622 299 622 Q314 622 337 622.5 Q360 623 384 623.5 Q408 624 428.5 624.5 Q449 625 458 625 L448 584 L386 566 L371 505 L553 505 Q558 528 558 539 Q558 557 545 567.5 Q532 578 506 584 L516 625 Q527 625 546 624.5 Q565 624 586 623.5 Q607 623 627 622.5 Q647 622 661 622 Q676 622 699.5 622.5 Q723 623 747 623.5 Q771 624 791.5 624.5 Q812 625 821 625 L811 584 L749 566 L734 505 L823 505 L806 437 L717 437 L641 120 Q636 97 636 86 Q636 68 649 57.5 Q662 47 688 41 L678 0 Q667 0 647.5 0.5 Q628 1 607 1.5 Q586 2 565.5 2.5 Q545 3 532 3 Q517 3 494 2.5 Q471 2 447 1.5 Q423 1 402.5 0.5 Q382 0 373 0 L383 41 L445 59 L501 291 L319 291 L278 120 Q273 97 273 86 Q273 68 286 57.5 Q299 47 325 41 L315 0 Q304 0 285 0.5 Q266 1 245 1.5 Q224 2 203.5 2.5 Q183 3 170 3 Q155 3 131.5 2.5 Q108 2 84 1.5 Q60 1 39.5 0.5 Q19 0 10 0 L20 41 L82 59 L173 437 L86 437 L103 505 L190 505 Z M517 360 L536 437 L354 437 L335 360 L517 360 Z " />
<glyph glyph-name="Igrave" unicode="&#xcc;" horiz-adv-x="372" d="M192 505 Q197 528 197 539 Q197 557 184 567.5 Q171 578 145 584 L155 625 Q166 625 185 624.5 Q204 624 225 623.5 Q246 623 266 622.5 Q286 622 300 622 Q315 622 338.5 622.5 Q362 623 386 623.5 Q410 624 430.5 624.5 Q451 625 460 625 L450 584 L388 566 L280 120 Q275 97 275 86 Q275 68 288 57.5 Q301 47 327 41 L317 0 Q306 0 286.5 0.5 Q267 1 246 1.5 Q225 2 204.5 2.5 Q184 3 171 3 Q156 3 133 2.5 Q110 2 86 1.5 Q62 1 41.5 0.5 Q21 0 12 0 L22 41 L84 59 L192 505 Z M208 763 L236 806 Q252 829 273 829 Q285 829 295.5 823 Q306 817 317 807 L444 695 L425 666 L210 747 L208 763 Z " />
<glyph glyph-name="Iacute" unicode="&#xcd;" horiz-adv-x="372" d="M192 505 Q197 528 197 539 Q197 557 184 567.5 Q171 578 145 584 L155 625 Q166 625 185 624.5 Q204 624 225 623.5 Q246 623 266 622.5 Q286 622 300 622 Q315 622 338.5 622.5 Q362 623 386 623.5 Q410 624 430.5 624.5 Q451 625 460 625 L450 584 L388 566 L280 120 Q275 97 275 86 Q275 68 288 57.5 Q301 47 327 41 L317 0 Q306 0 286.5 0.5 Q267 1 246 1.5 Q225 2 204.5 2.5 Q184 3 171 3 Q156 3 133 2.5 Q110 2 86 1.5 Q62 1 41.5 0.5 Q21 0 12 0 L22 41 L84 59 L192 505 Z M455 747 L205 667 L192 694 L366 809 Q393 827 411 827 Q433 827 443 802 L460 762 L455 747 Z " />
<glyph glyph-name="Icircumflex" unicode="&#xce;" horiz-adv-x="372" d="M192 505 Q197 528 197 539 Q197 557 184 567.5 Q171 578 145 584 L155 625 Q166 625 185 624.5 Q204 624 225 623.5 Q246 623 266 622.5 Q286 622 300 622 Q315 622 338.5 622.5 Q362 623 386 623.5 Q410 624 430.5 624.5 Q451 625 460 625 L450 584 L388 566 L280 120 Q275 97 275 86 Q275 68 288 57.5 Q301 47 327 41 L317 0 Q306 0 286.5 0.5 Q267 1 246 1.5 Q225 2 204.5 2.5 Q184 3 171 3 Q156 3 133 2.5 Q110 2 86 1.5 Q62 1 41.5 0.5 Q21 0 12 0 L22 41 L84 59 L192 505 Z M331 749 L190 670 L167 692 L304 824 L394 824 L469 689 L441 670 L331 749 Z " />
<glyph glyph-name="Itilde" unicode="&#x128;" horiz-adv-x="372" d="M192 505 Q197 528 197 539 Q197 557 184 567.5 Q171 578 145 584 L155 625 Q166 625 185 624.5 Q204 624 225 623.5 Q246 623 266 622.5 Q286 622 300 622 Q315 622 338.5 622.5 Q362 623 386 623.5 Q410 624 430.5 624.5 Q451 625 460 625 L450 584 L388 566 L280 120 Q275 97 275 86 Q275 68 288 57.5 Q301 47 327 41 L317 0 Q306 0 286.5 0.5 Q267 1 246 1.5 Q225 2 204.5 2.5 Q184 3 171 3 Q156 3 133 2.5 Q110 2 86 1.5 Q62 1 41.5 0.5 Q21 0 12 0 L22 41 L84 59 L192 505 Z M357 678 Q337 678 322 683 Q307 688 293 694.5 Q279 701 265.5 706 Q252 711 236 711 Q216 711 203 701 Q190 691 182 677 L147 688 Q168 743 203 773 Q238 803 276 803 Q295 803 310.5 798 Q326 793 340 786.5 Q354 780 367.5 775 Q381 770 397 770 Q417 770 430 780 Q443 790 451 804 L486 793 Q465 738 430 708 Q395 678 357 678 Z " />
<glyph glyph-name="Idieresis" unicode="&#xcf;" horiz-adv-x="372" d="M192 505 Q197 528 197 539 Q197 557 184 567.5 Q171 578 145 584 L155 625 Q166 625 185 624.5 Q204 624 225 623.5 Q246 623 266 622.5 Q286 622 300 622 Q315 622 338.5 622.5 Q362 623 386 623.5 Q410 624 430.5 624.5 Q451 625 460 625 L450 584 L388 566 L280 120 Q275 97 275 86 Q275 68 288 57.5 Q301 47 327 41 L317 0 Q306 0 286.5 0.5 Q267 1 246 1.5 Q225 2 204.5 2.5 Q184 3 171 3 Q156 3 133 2.5 Q110 2 86 1.5 Q62 1 41.5 0.5 Q21 0 12 0 L22 41 L84 59 L192 505 Z M218 676 Q195 676 180 690 Q165 704 165 725 Q165 741 172.5 756.5 Q180 772 192 784 Q204 796 220 803 Q236 810 253 810 Q277 810 291.5 796 Q306 782 306 761 Q306 744 298.5 729 Q291 714 279 702 Q267 690 251 683 Q235 676 218 676 Z M404 676 Q381 676 366 690 Q351 704 351 725 Q351 741 358.5 756.5 Q366 772 378 784 Q390 796 406 803 Q422 810 439 810 Q463 810 477.5 796 Q492 782 492 761 Q492 744 484.5 729 Q477 714 465 702 Q453 690 437 683 Q421 676 404 676 Z " />
<glyph glyph-name="Imacron" unicode="&#x12a;" horiz-adv-x="372" d="M192 505 Q197 528 197 539 Q197 557 184 567.5 Q171 578 145 584 L155 625 Q166 625 185 624.5 Q204 624 225 623.5 Q246 623 266 622.5 Q286 622 300 622 Q315 622 338.5 622.5 Q362 623 386 623.5 Q410 624 430.5 624.5 Q451 625 460 625 L450 584 L388 566 L280 120 Q275 97 275 86 Q275 68 288 57.5 Q301 47 327 41 L317 0 Q306 0 286.5 0.5 Q267 1 246 1.5 Q225 2 204.5 2.5 Q184 3 171 3 Q156 3 133 2.5 Q110 2 86 1.5 Q62 1 41.5 0.5 Q21 0 12 0 L22 41 L84 59 L192 505 Z M201 688 L218 760 L452 760 L435 688 L201 688 Z " />
<glyph glyph-name="Ibreve" unicode="&#x12c;" horiz-adv-x="372" d="M192 505 Q197 528 197 539 Q197 557 184 567.5 Q171 578 145 584 L155 625 Q166 625 185 624.5 Q204 624 225 623.5 Q246 623 266 622.5 Q286 622 300 622 Q315 622 338.5 622.5 Q362 623 386 623.5 Q410 624 430.5 624.5 Q451 625 460 625 L450 584 L388 566 L280 120 Q275 97 275 86 Q275 68 288 57.5 Q301 47 327 41 L317 0 Q306 0 286.5 0.5 Q267 1 246 1.5 Q225 2 204.5 2.5 Q184 3 171 3 Q156 3 133 2.5 Q110 2 86 1.5 Q62 1 41.5 0.5 Q21 0 12 0 L22 41 L84 59 L192 505 Z M465 806 Q459 779 445 755 Q431 731 411 713 Q391 695 365.5 684.5 Q340 674 310 674 Q261 674 234.5 701.5 Q208 729 209 771 Q209 790 213 806 L259 806 Q261 780 280 766.5 Q299 753 327 753 Q356 753 381 767 Q406 781 420 806 L465 806 L465 806 Z " />
<glyph glyph-name="Idotaccent" unicode="&#x130;" horiz-adv-x="372" d="M192 505 Q197 528 197 539 Q197 557 184 567.5 Q171 578 145 584 L155 625 Q166 625 185 624.5 Q204 624 225 623.5 Q246 623 266 622.5 Q286 622 300 622 Q315 622 338.5 622.5 Q362 623 386 623.5 Q410 624 430.5 624.5 Q451 625 460 625 L450 584 L388 566 L280 120 Q275 97 275 86 Q275 68 288 57.5 Q301 47 327 41 L317 0 Q306 0 286.5 0.5 Q267 1 246 1.5 Q225 2 204.5 2.5 Q184 3 171 3 Q156 3 133 2.5 Q110 2 86 1.5 Q62 1 41.5 0.5 Q21 0 12 0 L22 41 L84 59 L192 505 Z M312 674 Q283 674 267.5 691.5 Q252 709 252 735 Q252 753 260.5 769.5 Q269 786 282.5 798.5 Q296 811 313.5 819 Q331 827 349 827 Q378 827 393.5 809.5 Q409 792 409 766 Q409 748 400.5 731.5 Q392 715 378.5 702.5 Q365 690 347.5 682 Q330 674 312 674 Z " />
<glyph glyph-name="Iogonek" unicode="&#x12e;" horiz-adv-x="372" d="M247 -208 Q231 -220 201.5 -231 Q172 -242 139 -242 Q94 -242 67.5 -218 Q41 -194 41 -156 Q41 -116 68.5 -73.5 Q96 -31 141 3 Q124 3 104.5 2.5 Q85 2 67 1.5 Q49 1 34 0.5 Q19 0 12 0 L22 41 L84 59 L192 505 Q197 528 197 539 Q197 557 184 567.5 Q171 578 145 584 L155 625 Q166 625 185 624.5 Q204 624 225 623.5 Q246 623 266 622.5 Q286 622 300 622 Q315 622 338.5 622.5 Q362 623 386 623.5 Q410 624 430.5 624.5 Q451 625 460 625 L450 584 L388 566 L280 120 Q275 97 275 86 Q275 68 288 57.5 Q301 47 327 41 L317 0 Q302 0 274.5 1 Q247 2 219 2 Q187 -26 165.5 -66 Q144 -106 144 -140 Q144 -159 154.5 -169.5 Q165 -180 183 -180 Q197 -180 210 -176.5 Q223 -173 234 -168 L247 -208 Z " />
<glyph glyph-name="IJ" unicode="&#x132;" horiz-adv-x="726" d="M192 505 Q197 528 197 539 Q197 557 184 567.5 Q171 578 145 584 L155 625 Q166 625 185 624.5 Q204 624 225 623.5 Q246 623 266 622.5 Q286 622 300 622 Q315 622 338.5 622.5 Q362 623 386 623.5 Q410 624 430.5 624.5 Q451 625 460 625 L450 584 L388 566 L280 120 Q275 97 275 86 Q275 68 288 57.5 Q301 47 327 41 L317 0 Q306 0 286.5 0.5 Q267 1 246 1.5 Q225 2 204.5 2.5 Q184 3 171 3 Q156 3 133 2.5 Q110 2 86 1.5 Q62 1 41.5 0.5 Q21 0 12 0 L22 41 L84 59 L192 505 Z M644 124 Q633 81 621.5 46.5 Q610 12 596.5 -16.5 Q583 -45 566.5 -68.5 Q550 -92 530 -113 Q491 -154 434 -182 Q377 -210 296 -223 L278 -169 Q315 -152 341.5 -132 Q368 -112 388 -83.5 Q408 -55 423 -15.5 Q438 24 452 81 L556 505 Q561 528 561 539 Q561 557 548 567.5 Q535 578 509 584 L519 625 Q530 625 549.5 624.5 Q569 624 590 623.5 Q611 623 631 622.5 Q651 622 665 622 Q680 622 703 622.5 Q726 623 750 623.5 Q774 624 794.5 624.5 Q815 625 824 625 L814 584 L752 566 L644 124 Z " />
<glyph glyph-name="Jcircumflex" unicode="&#x134;" horiz-adv-x="354" d="M272 124 Q261 81 249.5 46.5 Q238 12 224.5 -16.5 Q211 -45 194.5 -68.5 Q178 -92 158 -113 Q119 -154 62 -182 Q5 -210 -76 -223 L-94 -169 Q-57 -152 -30.5 -132 Q-4 -112 16 -83.5 Q36 -55 51 -15.5 Q66 24 80 81 L184 505 Q189 528 189 539 Q189 557 176 567.5 Q163 578 137 584 L147 625 Q158 625 177.5 624.5 Q197 624 218 623.5 Q239 623 259 622.5 Q279 622 293 622 Q308 622 331 622.5 Q354 623 378 623.5 Q402 624 422.5 624.5 Q443 625 452 625 L442 584 L380 566 L272 124 Z M325 749 L184 670 L161 692 L298 824 L388 824 L463 689 L435 670 L325 749 Z " />
<glyph glyph-name="Kcommaaccent" unicode="&#x136;" horiz-adv-x="679" d="M190 505 Q195 528 195 539 Q195 557 182 567.5 Q169 578 143 584 L153 625 Q164 625 183.5 624.5 Q203 624 224.5 623.5 Q246 623 266 622.5 Q286 622 300 622 Q315 622 338 622.5 Q361 623 384.5 623.5 Q408 624 428.5 624.5 Q449 625 458 625 L448 584 L386 566 L332 349 L563 569 L522 584 L532 625 Q543 624 558 623.5 Q573 623 589 622.5 Q605 622 620 622 Q635 622 647 622 Q658 622 672 622.5 Q686 623 700.5 623.5 Q715 624 728 624.5 Q741 625 750 625 L739 584 Q718 582 703.5 578.5 Q689 575 675.5 568.5 Q662 562 648.5 550.5 Q635 539 617 523 L498 412 L594 109 Q600 91 608 83.5 Q616 76 630 76 Q639 76 648 78 Q657 80 664 82 L651 29 Q640 21 624.5 14 Q609 7 591.5 1 Q574 -5 556 -8.5 Q538 -12 522 -12 Q477 -12 453.5 12 Q430 36 415 87 L356 280 L303 228 L278 120 Q273 97 273 86 Q273 68 286 57.5 Q299 47 325 41 L315 0 Q304 0 285 0.5 Q266 1 245 1.5 Q224 2 204 2.5 Q184 3 171 3 Q156 3 132.5 2.5 Q109 2 85 1.5 Q61 1 40 0.5 Q19 0 10 0 L20 41 L82 59 L190 505 Z M417 -105 Q417 -136 404 -165.5 Q391 -195 368 -221.5 Q345 -248 314 -272 Q283 -296 248 -315 L230 -285 Q271 -253 291 -229 Q311 -205 311 -185 Q311 -175 305.5 -167 Q300 -159 293.5 -151.5 Q287 -144 281.5 -135 Q276 -126 276 -113 Q276 -86 299.5 -64 Q323 -42 356 -42 Q388 -42 402.5 -61.5 Q417 -81 417 -105 Z " />
<glyph glyph-name="Lacute" unicode="&#x139;" horiz-adv-x="543" d="M279 124 Q276 110 276 104 Q276 80 295.5 70 Q315 60 342 60 Q364 60 383.5 64.5 Q403 69 419.5 80 Q436 91 450 111 Q464 131 475 162 L533 162 Q529 150 523 128 Q517 106 510.5 82 Q504 58 498.5 35.5 Q493 13 490 0 L10 0 L20 41 L82 59 L190 505 Q195 528 195 539 Q195 557 182 567.5 Q169 578 143 584 L153 625 Q164 625 183.5 624.5 Q203 624 224.5 623.5 Q246 623 266 622.5 Q286 622 300 622 Q315 622 338 622.5 Q361 623 384.5 623.5 Q408 624 428.5 624.5 Q449 625 458 625 L448 584 L386 566 L279 124 Z M454 747 L204 667 L191 694 L365 809 Q392 827 410 827 Q432 827 442 802 L459 762 L454 747 Z " />
<glyph glyph-name="Lcaron" unicode="&#x13d;" horiz-adv-x="543" d="M279 124 Q276 110 276 104 Q276 80 295.5 70 Q315 60 342 60 Q364 60 383.5 64.5 Q403 69 419.5 80 Q436 91 450 111 Q464 131 475 162 L533 162 Q529 150 523 128 Q517 106 510.5 82 Q504 58 498.5 35.5 Q493 13 490 0 L10 0 L20 41 L82 59 L190 505 Q195 528 195 539 Q195 557 182 567.5 Q169 578 143 584 L153 625 Q164 625 183.5 624.5 Q203 624 224.5 623.5 Q246 623 266 622.5 Q286 622 300 622 Q315 622 338 622.5 Q361 623 384.5 623.5 Q408 624 428.5 624.5 Q449 625 458 625 L448 584 L386 566 L279 124 Z M628 577 Q628 546 615 516.5 Q602 487 579 460.5 Q556 434 525 410 Q494 386 459 367 L441 397 Q482 429 502 453 Q522 477 522 497 Q522 507 516.5 515 Q511 523 504.5 530.5 Q498 538 492.5 547 Q487 556 487 569 Q487 596 510.5 618 Q534 640 567 640 Q599 640 613.5 620.5 Q628 601 628 577 Z " />
<glyph glyph-name="Lcommaaccent" unicode="&#x13b;" horiz-adv-x="543" d="M279 124 Q276 110 276 104 Q276 80 295.5 70 Q315 60 342 60 Q364 60 383.5 64.5 Q403 69 419.5 80 Q436 91 450 111 Q464 131 475 162 L533 162 Q529 150 523 128 Q517 106 510.5 82 Q504 58 498.5 35.5 Q493 13 490 0 L10 0 L20 41 L82 59 L190 505 Q195 528 195 539 Q195 557 182 567.5 Q169 578 143 584 L153 625 Q164 625 183.5 624.5 Q203 624 224.5 623.5 Q246 623 266 622.5 Q286 622 300 622 Q315 622 338 622.5 Q361 623 384.5 623.5 Q408 624 428.5 624.5 Q449 625 458 625 L448 584 L386 566 L279 124 Z M337 -105 Q337 -136 324 -165.5 Q311 -195 288 -221.5 Q265 -248 234 -272 Q203 -296 168 -315 L150 -285 Q191 -253 211 -229 Q231 -205 231 -185 Q231 -175 225.5 -167 Q220 -159 213.5 -151.5 Q207 -144 201.5 -135 Q196 -126 196 -113 Q196 -86 219.5 -64 Q243 -42 276 -42 Q308 -42 322.5 -61.5 Q337 -81 337 -105 Z " />
<glyph glyph-name="Lslash" unicode="&#x141;" horiz-adv-x="543" d="M342 60 Q364 60 383.5 64.5 Q403 69 419.5 80 Q436 91 450 111 Q464 131 475 162 L533 162 Q529 150 523 128 Q517 106 510.5 82 Q504 58 498.5 35.5 Q493 13 490 0 L10 0 L20 41 L82 59 L117 205 L58 174 L31 230 L137 285 L190 505 Q195 528 195 539 Q195 557 182 567.5 Q169 578 143 584 L153 625 Q164 625 183.5 624.5 Q203 624 224.5 623.5 Q246 623 266 622.5 Q286 622 300 622 Q315 622 338 622.5 Q361 623 384.5 623.5 Q408 624 428.5 624.5 Q449 625 458 625 L448 584 L386 566 L344 394 L441 445 L469 389 L325 313 L278 119 Q276 109 276 104 Q276 82 291 72 Q309 60 342 60 Z " />
<glyph glyph-name="Ldot" unicode="&#x13f;" horiz-adv-x="543" d="M279 124 Q276 110 276 104 Q276 80 295.5 70 Q315 60 342 60 Q364 60 383.5 64.5 Q403 69 419.5 80 Q436 91 450 111 Q464 131 475 162 L533 162 Q529 150 523 128 Q517 106 510.5 82 Q504 58 498.5 35.5 Q493 13 490 0 L10 0 L20 41 L82 59 L190 505 Q195 528 195 539 Q195 557 182 567.5 Q169 578 143 584 L153 625 Q164 625 183.5 624.5 Q203 624 224.5 623.5 Q246 623 266 622.5 Q286 622 300 622 Q315 622 338 622.5 Q361 623 384.5 623.5 Q408 624 428.5 624.5 Q449 625 458 625 L448 584 L386 566 L279 124 Z M476 270 Q447 270 431.5 287.5 Q416 305 416 331 Q416 349 424.5 365.5 Q433 382 446.5 394.5 Q460 407 477.5 415 Q495 423 513 423 Q542 423 557.5 405.5 Q573 388 573 362 Q573 344 564.5 327.5 Q556 311 542.5 298.5 Q529 286 511.5 278 Q494 270 476 270 Z " />
<glyph glyph-name="Nacute" unicode="&#x143;" horiz-adv-x="706" d="M189 505 Q194 528 194 539 Q194 557 181 567.5 Q168 578 142 584 L152 625 L371 625 L559 216 L629 505 Q634 528 634 539 Q634 573 580 584 L590 625 Q613 623 640 622.5 Q667 622 690 622 Q701 622 715.5 622.5 Q730 623 745 623.5 Q760 624 773.5 624.5 Q787 625 796 625 L786 584 L724 565 L590 0 L459 0 L254 445 L177 120 Q172 97 172 86 Q172 68 186 57.5 Q200 47 226 41 L216 0 Q193 2 165 2.5 Q137 3 114 3 Q103 3 88.5 2.5 Q74 2 59.5 1.5 Q45 1 32 0.5 Q19 0 10 0 L20 41 L82 60 L189 505 Z M626 747 L376 667 L363 694 L537 809 Q564 827 582 827 Q604 827 614 802 L631 762 L626 747 Z " />
<glyph glyph-name="Ncaron" unicode="&#x147;" horiz-adv-x="706" d="M189 505 Q194 528 194 539 Q194 557 181 567.5 Q168 578 142 584 L152 625 L371 625 L559 216 L629 505 Q634 528 634 539 Q634 573 580 584 L590 625 Q613 623 640 622.5 Q667 622 690 622 Q701 622 715.5 622.5 Q730 623 745 623.5 Q760 624 773.5 624.5 Q787 625 796 625 L786 584 L724 565 L590 0 L459 0 L254 445 L177 120 Q172 97 172 86 Q172 68 186 57.5 Q200 47 226 41 L216 0 Q193 2 165 2.5 Q137 3 114 3 Q103 3 88.5 2.5 Q74 2 59.5 1.5 Q45 1 32 0.5 Q19 0 10 0 L20 41 L82 60 L189 505 Z M502 750 L643 829 L666 807 L529 675 L439 675 L364 810 L392 829 L502 750 Z " />
<glyph glyph-name="Ntilde" unicode="&#xd1;" horiz-adv-x="706" d="M189 505 Q194 528 194 539 Q194 557 181 567.5 Q168 578 142 584 L152 625 L371 625 L559 216 L629 505 Q634 528 634 539 Q634 573 580 584 L590 625 Q613 623 640 622.5 Q667 622 690 622 Q701 622 715.5 622.5 Q730 623 745 623.5 Q760 624 773.5 624.5 Q787 625 796 625 L786 584 L724 565 L590 0 L459 0 L254 445 L177 120 Q172 97 172 86 Q172 68 186 57.5 Q200 47 226 41 L216 0 Q193 2 165 2.5 Q137 3 114 3 Q103 3 88.5 2.5 Q74 2 59.5 1.5 Q45 1 32 0.5 Q19 0 10 0 L20 41 L82 60 L189 505 Z M545 678 Q525 678 510 683 Q495 688 481 694.5 Q467 701 453.5 706 Q440 711 424 711 Q404 711 391 701 Q378 691 370 677 L335 688 Q356 743 391 773 Q426 803 464 803 Q483 803 498.5 798 Q514 793 528 786.5 Q542 780 555.5 775 Q569 770 585 770 Q605 770 618 780 Q631 790 639 804 L674 793 Q653 738 618 708 Q583 678 545 678 Z " />
<glyph glyph-name="Ncommaaccent" unicode="&#x145;" horiz-adv-x="706" d="M189 505 Q194 528 194 539 Q194 557 181 567.5 Q168 578 142 584 L152 625 L371 625 L559 216 L629 505 Q634 528 634 539 Q634 573 580 584 L590 625 Q613 623 640 622.5 Q667 622 690 622 Q701 622 715.5 622.5 Q730 623 745 623.5 Q760 624 773.5 624.5 Q787 625 796 625 L786 584 L724 565 L590 0 L459 0 L254 445 L177 120 Q172 97 172 86 Q172 68 186 57.5 Q200 47 226 41 L216 0 Q193 2 165 2.5 Q137 3 114 3 Q103 3 88.5 2.5 Q74 2 59.5 1.5 Q45 1 32 0.5 Q19 0 10 0 L20 41 L82 60 L189 505 Z M376 -105 Q376 -136 363 -165.5 Q350 -195 327 -221.5 Q304 -248 273 -272 Q242 -296 207 -315 L189 -285 Q230 -253 250 -229 Q270 -205 270 -185 Q270 -175 264.5 -167 Q259 -159 252.5 -151.5 Q246 -144 240.5 -135 Q235 -126 235 -113 Q235 -86 258.5 -64 Q282 -42 315 -42 Q347 -42 361.5 -61.5 Q376 -81 376 -105 Z " />
<glyph glyph-name="Eng" unicode="&#x14a;" horiz-adv-x="706" d="M395 -72 Q423 -72 446 -61 Q469 -50 486 -32 L255 444 L177 119 Q172 96 172 85 Q172 67 186 56.5 Q200 46 226 40 L216 -1 Q193 1 165 1.5 Q137 2 114 2 Q103 2 88.5 1.5 Q74 1 59.5 0.5 Q45 0 32 -0.5 Q19 -1 10 -1 L20 40 L82 59 L190 504 Q195 527 195 538 Q195 556 182 566.5 Q169 577 143 583 L153 624 L372 624 L563 235 L629 504 Q634 527 634 538 Q634 572 580 583 L590 624 Q613 622 640 621 Q667 620 690 620 Q701 620 715.5 620.5 Q730 621 745 621.5 Q760 622 773.5 622.5 Q787 623 796 623 L786 582 L724 563 L607 72 Q597 29 586.5 -3.5 Q576 -36 564 -61.5 Q552 -87 538 -106.5 Q524 -126 507 -143 Q478 -172 439 -188.5 Q400 -205 354 -205 Q325 -205 296 -197 Q267 -189 247 -176 Q240 -171 239.5 -166.5 Q239 -162 241 -154 L279 -46 L297 -39 Q317 -55 341 -63.5 Q365 -72 395 -72 Z " />
<glyph glyph-name="Ograve" unicode="&#xd2;" horiz-adv-x="661" d="M502 459 Q502 513 486.5 540 Q471 567 442 567 Q410 567 380 535 Q350 503 326 449 Q312 417 299.5 379.5 Q287 342 278 304.5 Q269 267 264 231 Q259 195 259 166 Q259 112 275 85 Q291 58 320 58 Q352 58 381.5 90 Q411 122 435 176 Q449 208 461.5 245.5 Q474 283 483 320.5 Q492 358 497 394 Q502 430 502 459 Z M445 640 Q496 640 540.5 624 Q585 608 618 577.5 Q651 547 670 501 Q689 455 689 395 Q689 321 662.5 248 Q636 175 587 116.5 Q538 58 469.5 21.5 Q401 -15 316 -15 Q265 -15 220.5 1 Q176 17 143 47.5 Q110 78 91 124 Q72 170 72 230 Q72 304 98.5 377 Q125 450 173.5 508.5 Q222 567 291 603.5 Q360 640 445 640 Z M362 763 L390 806 Q406 829 427 829 Q439 829 449.5 823 Q460 817 471 807 L598 695 L579 666 L364 747 L362 763 Z " />
<glyph glyph-name="Oacute" unicode="&#xd3;" horiz-adv-x="661" d="M502 459 Q502 513 486.5 540 Q471 567 442 567 Q410 567 380 535 Q350 503 326 449 Q312 417 299.5 379.5 Q287 342 278 304.5 Q269 267 264 231 Q259 195 259 166 Q259 112 275 85 Q291 58 320 58 Q352 58 381.5 90 Q411 122 435 176 Q449 208 461.5 245.5 Q474 283 483 320.5 Q492 358 497 394 Q502 430 502 459 Z M445 640 Q496 640 540.5 624 Q585 608 618 577.5 Q651 547 670 501 Q689 455 689 395 Q689 321 662.5 248 Q636 175 587 116.5 Q538 58 469.5 21.5 Q401 -15 316 -15 Q265 -15 220.5 1 Q176 17 143 47.5 Q110 78 91 124 Q72 170 72 230 Q72 304 98.5 377 Q125 450 173.5 508.5 Q222 567 291 603.5 Q360 640 445 640 Z M609 747 L359 667 L346 694 L520 809 Q547 827 565 827 Q587 827 597 802 L614 762 L609 747 Z " />
<glyph glyph-name="Ocircumflex" unicode="&#xd4;" horiz-adv-x="661" d="M502 459 Q502 513 486.5 540 Q471 567 442 567 Q410 567 380 535 Q350 503 326 449 Q312 417 299.5 379.5 Q287 342 278 304.5 Q269 267 264 231 Q259 195 259 166 Q259 112 275 85 Q291 58 320 58 Q352 58 381.5 90 Q411 122 435 176 Q449 208 461.5 245.5 Q474 283 483 320.5 Q492 358 497 394 Q502 430 502 459 Z M445 640 Q496 640 540.5 624 Q585 608 618 577.5 Q651 547 670 501 Q689 455 689 395 Q689 321 662.5 248 Q636 175 587 116.5 Q538 58 469.5 21.5 Q401 -15 316 -15 Q265 -15 220.5 1 Q176 17 143 47.5 Q110 78 91 124 Q72 170 72 230 Q72 304 98.5 377 Q125 450 173.5 508.5 Q222 567 291 603.5 Q360 640 445 640 Z M487 749 L346 670 L323 692 L460 824 L550 824 L625 689 L597 670 L487 749 Z " />
<glyph glyph-name="Otilde" unicode="&#xd5;" horiz-adv-x="661" d="M502 459 Q502 513 486.5 540 Q471 567 442 567 Q410 567 380 535 Q350 503 326 449 Q312 417 299.5 379.5 Q287 342 278 304.5 Q269 267 264 231 Q259 195 259 166 Q259 112 275 85 Q291 58 320 58 Q352 58 381.5 90 Q411 122 435 176 Q449 208 461.5 245.5 Q474 283 483 320.5 Q492 358 497 394 Q502 430 502 459 Z M445 640 Q496 640 540.5 624 Q585 608 618 577.5 Q651 547 670 501 Q689 455 689 395 Q689 321 662.5 248 Q636 175 587 116.5 Q538 58 469.5 21.5 Q401 -15 316 -15 Q265 -15 220.5 1 Q176 17 143 47.5 Q110 78 91 124 Q72 170 72 230 Q72 304 98.5 377 Q125 450 173.5 508.5 Q222 567 291 603.5 Q360 640 445 640 Z M521 678 Q501 678 486 683 Q471 688 457 694.5 Q443 701 429.5 706 Q416 711 400 711 Q380 711 367 701 Q354 691 346 677 L311 688 Q332 743 367 773 Q402 803 440 803 Q459 803 474.5 798 Q490 793 504 786.5 Q518 780 531.5 775 Q545 770 561 770 Q581 770 594 780 Q607 790 615 804 L650 793 Q629 738 594 708 Q559 678 521 678 Z " />
<glyph glyph-name="Odieresis" unicode="&#xd6;" horiz-adv-x="661" d="M502 459 Q502 513 486.5 540 Q471 567 442 567 Q410 567 380 535 Q350 503 326 449 Q312 417 299.5 379.5 Q287 342 278 304.5 Q269 267 264 231 Q259 195 259 166 Q259 112 275 85 Q291 58 320 58 Q352 58 381.5 90 Q411 122 435 176 Q449 208 461.5 245.5 Q474 283 483 320.5 Q492 358 497 394 Q502 430 502 459 Z M445 640 Q496 640 540.5 624 Q585 608 618 577.5 Q651 547 670 501 Q689 455 689 395 Q689 321 662.5 248 Q636 175 587 116.5 Q538 58 469.5 21.5 Q401 -15 316 -15 Q265 -15 220.5 1 Q176 17 143 47.5 Q110 78 91 124 Q72 170 72 230 Q72 304 98.5 377 Q125 450 173.5 508.5 Q222 567 291 603.5 Q360 640 445 640 Z M370 676 Q347 676 332 690 Q317 704 317 725 Q317 741 324.5 756.5 Q332 772 344 784 Q356 796 372 803 Q388 810 405 810 Q429 810 443.5 796 Q458 782 458 761 Q458 744 450.5 729 Q443 714 431 702 Q419 690 403 683 Q387 676 370 676 Z M556 676 Q533 676 518 690 Q503 704 503 725 Q503 741 510.5 756.5 Q518 772 530 784 Q542 796 558 803 Q574 810 591 810 Q615 810 629.5 796 Q644 782 644 761 Q644 744 636.5 729 Q629 714 617 702 Q605 690 589 683 Q573 676 556 676 Z " />
<glyph glyph-name="Omacron" unicode="&#x14c;" horiz-adv-x="661" d="M502 459 Q502 513 486.5 540 Q471 567 442 567 Q410 567 380 535 Q350 503 326 449 Q312 417 299.5 379.5 Q287 342 278 304.5 Q269 267 264 231 Q259 195 259 166 Q259 112 275 85 Q291 58 320 58 Q352 58 381.5 90 Q411 122 435 176 Q449 208 461.5 245.5 Q474 283 483 320.5 Q492 358 497 394 Q502 430 502 459 Z M445 640 Q496 640 540.5 624 Q585 608 618 577.5 Q651 547 670 501 Q689 455 689 395 Q689 321 662.5 248 Q636 175 587 116.5 Q538 58 469.5 21.5 Q401 -15 316 -15 Q265 -15 220.5 1 Q176 17 143 47.5 Q110 78 91 124 Q72 170 72 230 Q72 304 98.5 377 Q125 450 173.5 508.5 Q222 567 291 603.5 Q360 640 445 640 Z M345 688 L362 760 L596 760 L579 688 L345 688 Z " />
<glyph glyph-name="Obreve" unicode="&#x14e;" horiz-adv-x="661" d="M502 459 Q502 513 486.5 540 Q471 567 442 567 Q410 567 380 535 Q350 503 326 449 Q312 417 299.5 379.5 Q287 342 278 304.5 Q269 267 264 231 Q259 195 259 166 Q259 112 275 85 Q291 58 320 58 Q352 58 381.5 90 Q411 122 435 176 Q449 208 461.5 245.5 Q474 283 483 320.5 Q492 358 497 394 Q502 430 502 459 Z M445 640 Q496 640 540.5 624 Q585 608 618 577.5 Q651 547 670 501 Q689 455 689 395 Q689 321 662.5 248 Q636 175 587 116.5 Q538 58 469.5 21.5 Q401 -15 316 -15 Q265 -15 220.5 1 Q176 17 143 47.5 Q110 78 91 124 Q72 170 72 230 Q72 304 98.5 377 Q125 450 173.5 508.5 Q222 567 291 603.5 Q360 640 445 640 Z M609 806 Q603 779 589 755 Q575 731 555 713 Q535 695 509.5 684.5 Q484 674 454 674 Q405 674 378.5 701.5 Q352 729 353 771 Q353 790 357 806 L403 806 Q405 780 424 766.5 Q443 753 471 753 Q500 753 525 767 Q550 781 564 806 L609 806 L609 806 Z " />
<glyph glyph-name="Ohungarumlaut" unicode="&#x150;" horiz-adv-x="661" d="M502 459 Q502 513 486.5 540 Q471 567 442 567 Q410 567 380 535 Q350 503 326 449 Q312 417 299.5 379.5 Q287 342 278 304.5 Q269 267 264 231 Q259 195 259 166 Q259 112 275 85 Q291 58 320 58 Q352 58 381.5 90 Q411 122 435 176 Q449 208 461.5 245.5 Q474 283 483 320.5 Q492 358 497 394 Q502 430 502 459 Z M445 640 Q496 640 540.5 624 Q585 608 618 577.5 Q651 547 670 501 Q689 455 689 395 Q689 321 662.5 248 Q636 175 587 116.5 Q538 58 469.5 21.5 Q401 -15 316 -15 Q265 -15 220.5 1 Q176 17 143 47.5 Q110 78 91 124 Q72 170 72 230 Q72 304 98.5 377 Q125 450 173.5 508.5 Q222 567 291 603.5 Q360 640 445 640 Z M498 753 L279 666 L267 689 L417 802 Q443 822 460 822 Q479 822 489 797 L502 766 L498 753 Z M690 753 L471 666 L459 689 L609 802 Q635 822 652 822 Q671 822 681 797 L694 766 L690 753 Z " />
<glyph glyph-name="Oslash" unicode="&#xd8;" horiz-adv-x="652" d="M574 611 Q622 585 651 536 Q680 487 680 413 Q680 338 653.5 262 Q627 186 577.5 124.5 Q528 63 457.5 24 Q387 -15 300 -15 Q277 -15 256.5 -11.5 Q236 -8 216 -2 L171 -80 L107 -80 L165 21 Q123 48 97.5 95.5 Q72 143 72 212 Q72 287 98.5 363 Q125 439 174.5 500.5 Q224 562 294.5 601 Q365 640 452 640 Q485 640 520 632 L563 705 L629 705 L574 611 Z M309 59 Q327 59 344.5 72 Q362 85 379 109 Q396 133 412 166 Q428 199 443 239 Q465 299 479 362 Q493 425 493 479 L266 91 Q273 74 284 66.5 Q295 59 309 59 Z M309 386 Q290 335 277 281 Q264 227 260 178 L476 550 Q463 566 443 566 Q425 566 407.5 553 Q390 540 373 516 Q356 492 340 459 Q324 426 309 386 Z " />
<glyph glyph-name="Oslashacute" unicode="&#x1fe;" horiz-adv-x="652" d="M574 611 Q622 585 651 536 Q680 487 680 413 Q680 338 653.5 262 Q627 186 577.5 124.5 Q528 63 457.5 24 Q387 -15 300 -15 Q277 -15 256.5 -11.5 Q236 -8 216 -2 L171 -80 L107 -80 L165 21 Q123 48 97.5 95.5 Q72 143 72 212 Q72 287 98.5 363 Q125 439 174.5 500.5 Q224 562 294.5 601 Q365 640 452 640 Q485 640 520 632 L563 705 L629 705 L574 611 Z M309 59 Q327 59 344.5 72 Q362 85 379 109 Q396 133 412 166 Q428 199 443 239 Q465 299 479 362 Q493 425 493 479 L266 91 Q273 74 284 66.5 Q295 59 309 59 Z M309 386 Q290 335 277 281 Q264 227 260 178 L476 550 Q463 566 443 566 Q425 566 407.5 553 Q390 540 373 516 Q356 492 340 459 Q324 426 309 386 Z M605 747 L355 667 L342 694 L516 809 Q543 827 561 827 Q583 827 593 802 L610 762 L605 747 Z " />
<glyph glyph-name="OE" unicode="&#x152;" horiz-adv-x="881" d="M312 59 Q349 59 373 86 Q389 103 400.5 133 Q412 163 423 210 L481 447 Q486 466 489 483 Q492 500 492 514 Q492 537 481.5 551.5 Q471 566 449 566 Q410 566 373.5 517 Q337 468 307 386 Q285 326 271 262.5 Q257 199 257 145 Q257 100 271.5 79.5 Q286 59 312 59 Z M543 0 Q501 0 468 -2.5 Q435 -5 406 -7.5 Q377 -10 351 -12.5 Q325 -15 298 -15 Q250 -15 208.5 -1 Q167 13 136.5 41 Q106 69 88 112 Q70 155 70 212 Q70 287 96.5 363 Q123 439 172.5 500.5 Q222 562 292.5 601 Q363 640 450 640 Q478 640 505.5 637.5 Q533 635 561.5 632.5 Q590 630 621 627.5 Q652 625 688 625 L935 625 Q931 609 926.5 586 Q922 563 917.5 539 Q913 515 909 493.5 Q905 472 903 459 L848 459 Q848 494 846 513 Q844 532 833 545 Q815 566 751 566 L691 566 L639 349 L664 349 Q712 349 752 352 Q792 355 815 360 L788 277 Q779 278 764 280 Q749 282 730 283 Q711 284 689.5 285 Q668 286 648 286 L623 286 L583 119 Q581 109 581 104 Q581 82 596 72 Q614 60 647 60 Q673 60 694.5 64.5 Q716 69 733.5 80 Q751 91 765.5 111 Q780 131 791 162 L849 162 Q845 150 839 128 Q833 106 826.5 82 Q820 58 814.5 35.5 Q809 13 806 0 L543 0 Z " />
<glyph glyph-name="Thorn" unicode="&#xde;" horiz-adv-x="626" d="M391 503 Q465 503 516.5 491.5 Q568 480 599 452 Q640 414 640 354 Q640 300 616.5 257.5 Q593 215 551 186 Q509 157 451.5 142 Q394 127 326 127 L281 127 Q274 99 274 86 Q274 68 291.5 58 Q309 48 338 41 L328 0 Q317 0 295.5 0.5 Q274 1 250 1.5 Q226 2 203.5 2.5 Q181 3 168 3 Q153 3 130 2.5 Q107 2 83.5 1.5 Q60 1 39.5 0.5 Q19 0 10 0 L20 41 L82 59 L190 505 Q195 528 195 539 Q195 557 177.5 567 Q160 577 131 584 L141 625 Q152 625 173 624.5 Q194 624 217 623.5 Q240 623 261.5 622.5 Q283 622 297 622 Q312 622 335.5 622.5 Q359 623 383.5 623.5 Q408 624 429 624.5 Q450 625 459 625 L449 584 L387 566 L372 503 L391 503 Z M459 374 Q459 407 440 426 Q422 444 376 444 L358 444 L295 185 L306 185 Q339 185 367.5 200.5 Q396 216 416 242 Q436 268 447.5 302 Q459 336 459 374 Z " />
<glyph glyph-name="Racute" unicode="&#x154;" horiz-adv-x="671" d="M278 120 Q273 97 273 86 Q273 68 290.5 58 Q308 48 337 41 L327 0 Q316 0 295 0.5 Q274 1 250.5 1.5 Q227 2 205 2.5 Q183 3 170 3 Q155 3 131.5 2.5 Q108 2 84 1.5 Q60 1 39.5 0.5 Q19 0 10 0 L20 41 L82 59 L190 505 Q195 528 195 539 Q195 557 182 567.5 Q169 578 143 584 L153 625 L449 625 Q577 625 632 573 Q671 537 671 478 Q671 441 656.5 411 Q642 381 618.5 358.5 Q595 336 564.5 321 Q534 306 503 299 Q535 288 548 269.5 Q561 251 566 215 L580 109 Q582 92 588.5 84 Q595 76 610 76 Q619 76 628.5 78 Q638 80 645 82 L633 32 Q608 15 576 1.5 Q544 -12 509 -12 Q459 -12 434.5 12.5 Q410 37 403 87 L389 200 Q386 220 382 232.5 Q378 245 370.5 252 Q363 259 352 261.5 Q341 264 326 264 L312 264 L278 120 Z M326 321 L330 321 Q363 321 389 330 Q415 339 435 359 Q459 385 472.5 420 Q486 455 486 491 Q486 529 466 548 Q456 557 441.5 561.5 Q427 566 404 566 L386 566 L326 321 Z M594 747 L344 667 L331 694 L505 809 Q532 827 550 827 Q572 827 582 802 L599 762 L594 747 Z " />
<glyph glyph-name="Rcaron" unicode="&#x158;" horiz-adv-x="671" d="M278 120 Q273 97 273 86 Q273 68 290.5 58 Q308 48 337 41 L327 0 Q316 0 295 0.5 Q274 1 250.5 1.5 Q227 2 205 2.5 Q183 3 170 3 Q155 3 131.5 2.5 Q108 2 84 1.5 Q60 1 39.5 0.5 Q19 0 10 0 L20 41 L82 59 L190 505 Q195 528 195 539 Q195 557 182 567.5 Q169 578 143 584 L153 625 L449 625 Q577 625 632 573 Q671 537 671 478 Q671 441 656.5 411 Q642 381 618.5 358.5 Q595 336 564.5 321 Q534 306 503 299 Q535 288 548 269.5 Q561 251 566 215 L580 109 Q582 92 588.5 84 Q595 76 610 76 Q619 76 628.5 78 Q638 80 645 82 L633 32 Q608 15 576 1.5 Q544 -12 509 -12 Q459 -12 434.5 12.5 Q410 37 403 87 L389 200 Q386 220 382 232.5 Q378 245 370.5 252 Q363 259 352 261.5 Q341 264 326 264 L312 264 L278 120 Z M326 321 L330 321 Q363 321 389 330 Q415 339 435 359 Q459 385 472.5 420 Q486 455 486 491 Q486 529 466 548 Q456 557 441.5 561.5 Q427 566 404 566 L386 566 L326 321 Z M452 750 L593 829 L616 807 L479 675 L389 675 L314 810 L342 829 L452 750 Z " />
<glyph glyph-name="Rcommaaccent" unicode="&#x156;" horiz-adv-x="671" d="M278 120 Q273 97 273 86 Q273 68 290.5 58 Q308 48 337 41 L327 0 Q316 0 295 0.5 Q274 1 250.5 1.5 Q227 2 205 2.5 Q183 3 170 3 Q155 3 131.5 2.5 Q108 2 84 1.5 Q60 1 39.5 0.5 Q19 0 10 0 L20 41 L82 59 L190 505 Q195 528 195 539 Q195 557 182 567.5 Q169 578 143 584 L153 625 L449 625 Q577 625 632 573 Q671 537 671 478 Q671 441 656.5 411 Q642 381 618.5 358.5 Q595 336 564.5 321 Q534 306 503 299 Q535 288 548 269.5 Q561 251 566 215 L580 109 Q582 92 588.5 84 Q595 76 610 76 Q619 76 628.5 78 Q638 80 645 82 L633 32 Q608 15 576 1.5 Q544 -12 509 -12 Q459 -12 434.5 12.5 Q410 37 403 87 L389 200 Q386 220 382 232.5 Q378 245 370.5 252 Q363 259 352 261.5 Q341 264 326 264 L312 264 L278 120 Z M326 321 L330 321 Q363 321 389 330 Q415 339 435 359 Q459 385 472.5 420 Q486 455 486 491 Q486 529 466 548 Q456 557 441.5 561.5 Q427 566 404 566 L386 566 L326 321 Z M393 -105 Q393 -136 380 -165.5 Q367 -195 344 -221.5 Q321 -248 290 -272 Q259 -296 224 -315 L206 -285 Q247 -253 267 -229 Q287 -205 287 -185 Q287 -175 281.5 -167 Q276 -159 269.5 -151.5 Q263 -144 257.5 -135 Q252 -126 252 -113 Q252 -86 275.5 -64 Q299 -42 332 -42 Q364 -42 378.5 -61.5 Q393 -81 393 -105 Z " />
<glyph glyph-name="Sacute" unicode="&#x15a;" horiz-adv-x="549" d="M527 201 Q527 158 507.5 119 Q488 80 451 50 Q414 20 361.5 2.5 Q309 -15 242 -15 Q191 -15 139 -3 Q87 9 52 26 L88 180 L148 180 Q147 175 146.5 169 Q146 163 146 157 Q146 112 169 83.5 Q192 55 246 55 Q268 55 288 61.5 Q308 68 323 79.5 Q338 91 346.5 107 Q355 123 355 143 Q355 169 333 188.5 Q311 208 280 228 Q245 250 218 270 Q191 290 171.5 312.5 Q152 335 142 361.5 Q132 388 132 423 Q132 471 153 511 Q174 551 211 579.5 Q248 608 298.5 624 Q349 640 407 640 Q457 640 502 631.5 Q547 623 589 617 Q584 601 578.5 578.5 Q573 556 568 533 Q563 510 558.5 488.5 Q554 467 551 453 L492 453 Q493 458 493.5 468 Q494 478 494 483 Q494 523 475 546.5 Q456 570 408 570 Q387 570 368.5 564 Q350 558 335.5 547 Q321 536 312.5 520 Q304 504 304 483 Q304 454 327 433 Q350 412 382 391 Q406 375 431.5 357.5 Q457 340 478.5 318 Q500 296 513.5 267.5 Q527 239 527 201 Z M560 747 L310 667 L297 694 L471 809 Q498 827 516 827 Q538 827 548 802 L565 762 L560 747 Z " />
<glyph glyph-name="Scircumflex" unicode="&#x15c;" horiz-adv-x="549" d="M527 201 Q527 158 507.5 119 Q488 80 451 50 Q414 20 361.5 2.5 Q309 -15 242 -15 Q191 -15 139 -3 Q87 9 52 26 L88 180 L148 180 Q147 175 146.5 169 Q146 163 146 157 Q146 112 169 83.5 Q192 55 246 55 Q268 55 288 61.5 Q308 68 323 79.5 Q338 91 346.5 107 Q355 123 355 143 Q355 169 333 188.5 Q311 208 280 228 Q245 250 218 270 Q191 290 171.5 312.5 Q152 335 142 361.5 Q132 388 132 423 Q132 471 153 511 Q174 551 211 579.5 Q248 608 298.5 624 Q349 640 407 640 Q457 640 502 631.5 Q547 623 589 617 Q584 601 578.5 578.5 Q573 556 568 533 Q563 510 558.5 488.5 Q554 467 551 453 L492 453 Q493 458 493.5 468 Q494 478 494 483 Q494 523 475 546.5 Q456 570 408 570 Q387 570 368.5 564 Q350 558 335.5 547 Q321 536 312.5 520 Q304 504 304 483 Q304 454 327 433 Q350 412 382 391 Q406 375 431.5 357.5 Q457 340 478.5 318 Q500 296 513.5 267.5 Q527 239 527 201 Z M437 749 L296 670 L273 692 L410 824 L500 824 L575 689 L547 670 L437 749 Z " />
<glyph glyph-name="Scaron" unicode="&#x160;" horiz-adv-x="549" d="M527 201 Q527 158 507.5 119 Q488 80 451 50 Q414 20 361.5 2.5 Q309 -15 242 -15 Q191 -15 139 -3 Q87 9 52 26 L88 180 L148 180 Q147 175 146.5 169 Q146 163 146 157 Q146 112 169 83.5 Q192 55 246 55 Q268 55 288 61.5 Q308 68 323 79.5 Q338 91 346.5 107 Q355 123 355 143 Q355 169 333 188.5 Q311 208 280 228 Q245 250 218 270 Q191 290 171.5 312.5 Q152 335 142 361.5 Q132 388 132 423 Q132 471 153 511 Q174 551 211 579.5 Q248 608 298.5 624 Q349 640 407 640 Q457 640 502 631.5 Q547 623 589 617 Q584 601 578.5 578.5 Q573 556 568 533 Q563 510 558.5 488.5 Q554 467 551 453 L492 453 Q493 458 493.5 468 Q494 478 494 483 Q494 523 475 546.5 Q456 570 408 570 Q387 570 368.5 564 Q350 558 335.5 547 Q321 536 312.5 520 Q304 504 304 483 Q304 454 327 433 Q350 412 382 391 Q406 375 431.5 357.5 Q457 340 478.5 318 Q500 296 513.5 267.5 Q527 239 527 201 Z M431 750 L572 829 L595 807 L458 675 L368 675 L293 810 L321 829 L431 750 Z " />
<glyph glyph-name="Scedilla" unicode="&#x15e;" horiz-adv-x="549" d="M527 201 Q527 161 510 124.5 Q493 88 461.5 59 Q430 30 383.5 11 Q337 -8 279 -13 L269 -31 Q301 -37 320.5 -54.5 Q340 -72 340 -104 Q340 -139 321 -165.5 Q302 -192 272 -209.5 Q242 -227 204 -235.5 Q166 -244 128 -242 L123 -201 Q171 -192 206 -170 Q241 -148 241 -115 Q241 -99 231.5 -93 Q222 -87 209 -84 Q201 -82 193.5 -80.5 Q186 -79 181.5 -77 Q177 -75 175.5 -70.5 Q174 -66 179 -58 L205 -13 Q163 -9 122 2 Q81 13 53 28 L88 180 L148 180 Q147 175 146.5 169 Q146 163 146 157 Q146 112 169 83.5 Q192 55 246 55 Q268 55 288 61.5 Q308 68 323 79.5 Q338 91 346.5 107 Q355 123 355 143 Q355 169 333 188.5 Q311 208 280 228 Q256 243 229.5 260.5 Q203 278 181.5 300.5 Q160 323 146 353 Q132 383 132 423 Q132 471 153 511 Q174 551 211 579.5 Q248 608 298.5 624 Q349 640 407 640 Q457 640 502 631.5 Q547 623 589 617 Q584 601 578.5 578.5 Q573 556 568 533 Q563 510 558.5 488.5 Q554 467 551 453 L492 453 Q493 458 493.5 468 Q494 478 494 483 Q494 523 475 546.5 Q456 570 408 570 Q387 570 368.5 564 Q350 558 335.5 547 Q321 536 312.5 520 Q304 504 304 483 Q304 454 327 433 Q350 412 382 391 Q406 375 431.5 357.5 Q457 340 478.5 318 Q500 296 513.5 267.5 Q527 239 527 201 Z " />
<glyph glyph-name="Scommaaccent" unicode="&#x218;" horiz-adv-x="549" d="M527 201 Q527 158 507.5 119 Q488 80 451 50 Q414 20 361.5 2.5 Q309 -15 242 -15 Q191 -15 139 -3 Q87 9 52 26 L88 180 L148 180 Q147 175 146.5 169 Q146 163 146 157 Q146 112 169 83.5 Q192 55 246 55 Q268 55 288 61.5 Q308 68 323 79.5 Q338 91 346.5 107 Q355 123 355 143 Q355 169 333 188.5 Q311 208 280 228 Q245 250 218 270 Q191 290 171.5 312.5 Q152 335 142 361.5 Q132 388 132 423 Q132 471 153 511 Q174 551 211 579.5 Q248 608 298.5 624 Q349 640 407 640 Q457 640 502 631.5 Q547 623 589 617 Q584 601 578.5 578.5 Q573 556 568 533 Q563 510 558.5 488.5 Q554 467 551 453 L492 453 Q493 458 493.5 468 Q494 478 494 483 Q494 523 475 546.5 Q456 570 408 570 Q387 570 368.5 564 Q350 558 335.5 547 Q321 536 312.5 520 Q304 504 304 483 Q304 454 327 433 Q350 412 382 391 Q406 375 431.5 357.5 Q457 340 478.5 318 Q500 296 513.5 267.5 Q527 239 527 201 Z M299 -105 Q299 -136 286 -165.5 Q273 -195 250 -221.5 Q227 -248 196 -272 Q165 -296 130 -315 L112 -285 Q153 -253 173 -229 Q193 -205 193 -185 Q193 -175 187.5 -167 Q182 -159 175.5 -151.5 Q169 -144 163.5 -135 Q158 -126 158 -113 Q158 -86 181.5 -64 Q205 -42 238 -42 Q270 -42 284.5 -61.5 Q299 -81 299 -105 Z " />
<glyph glyph-name="Tcaron" unicode="&#x164;" horiz-adv-x="624" d="M327 562 L312 562 Q278 562 255 556 Q232 550 215.5 536.5 Q199 523 187 500 Q175 477 162 444 L102 444 Q107 461 114 485.5 Q121 510 128 536 Q135 562 141.5 586 Q148 610 151 625 L710 625 Q706 609 701 584 Q696 559 691 532 Q686 505 682 481 Q678 457 676 444 L620 444 Q620 477 618.5 499.5 Q617 522 609 536 Q601 550 583 556 Q565 562 532 562 L508 562 L401 120 Q396 97 396 86 Q396 68 409 57.5 Q422 47 448 41 L438 0 Q427 0 407.5 0.5 Q388 1 367 1.5 Q346 2 325.5 2.5 Q305 3 292 3 Q277 3 254 2.5 Q231 2 207 1.5 Q183 1 162.5 0.5 Q142 0 133 0 L143 41 L205 59 L327 562 Z M459 750 L600 829 L623 807 L486 675 L396 675 L321 810 L349 829 L459 750 Z " />
<glyph glyph-name="Tcommaaccent" unicode="&#x162;" horiz-adv-x="624" d="M327 562 L312 562 Q278 562 255 556 Q232 550 215.5 536.5 Q199 523 187 500 Q175 477 162 444 L102 444 Q107 461 114 485.5 Q121 510 128 536 Q135 562 141.5 586 Q148 610 151 625 L710 625 Q706 609 701 584 Q696 559 691 532 Q686 505 682 481 Q678 457 676 444 L620 444 Q620 477 618.5 499.5 Q617 522 609 536 Q601 550 583 556 Q565 562 532 562 L508 562 L401 120 Q396 97 396 86 Q396 68 409 57.5 Q422 47 448 41 L438 0 Q427 0 407.5 0.5 Q388 1 367 1.5 Q346 2 325.5 2.5 Q305 3 292 3 Q277 3 254 2.5 Q231 2 207 1.5 Q183 1 162.5 0.5 Q142 0 133 0 L143 41 L205 59 L327 562 Z M337 -105 Q337 -136 324 -165.5 Q311 -195 288 -221.5 Q265 -248 234 -272 Q203 -296 168 -315 L150 -285 Q191 -253 211 -229 Q231 -205 231 -185 Q231 -175 225.5 -167 Q220 -159 213.5 -151.5 Q207 -144 201.5 -135 Q196 -126 196 -113 Q196 -86 219.5 -64 Q243 -42 276 -42 Q308 -42 322.5 -61.5 Q337 -81 337 -105 Z " />
<glyph glyph-name="uni021A" unicode="&#x21a;" horiz-adv-x="624" d="M327 562 L312 562 Q278 562 255 556 Q232 550 215.5 536.5 Q199 523 187 500 Q175 477 162 444 L102 444 Q107 461 114 485.5 Q121 510 128 536 Q135 562 141.5 586 Q148 610 151 625 L710 625 Q706 609 701 584 Q696 559 691 532 Q686 505 682 481 Q678 457 676 444 L620 444 Q620 477 618.5 499.5 Q617 522 609 536 Q601 550 583 556 Q565 562 532 562 L508 562 L401 120 Q396 97 396 86 Q396 68 409 57.5 Q422 47 448 41 L438 0 Q427 0 407.5 0.5 Q388 1 367 1.5 Q346 2 325.5 2.5 Q305 3 292 3 Q277 3 254 2.5 Q231 2 207 1.5 Q183 1 162.5 0.5 Q142 0 133 0 L143 41 L205 59 L327 562 Z M337 -105 Q337 -136 324 -165.5 Q311 -195 288 -221.5 Q265 -248 234 -272 Q203 -296 168 -315 L150 -285 Q191 -253 211 -229 Q231 -205 231 -185 Q231 -175 225.5 -167 Q220 -159 213.5 -151.5 Q207 -144 201.5 -135 Q196 -126 196 -113 Q196 -86 219.5 -64 Q243 -42 276 -42 Q308 -42 322.5 -61.5 Q337 -81 337 -105 Z " />
<glyph glyph-name="Tbar" unicode="&#x166;" horiz-adv-x="624" d="M434 258 L401 120 Q396 97 396 86 Q396 68 409 57.5 Q422 47 448 41 L438 0 Q427 0 407.5 0.5 Q388 1 367 1.5 Q346 2 325.5 2.5 Q305 3 292 3 Q277 3 254 2.5 Q231 2 207 1.5 Q183 1 162.5 0.5 Q142 0 133 0 L143 41 L205 59 L253 258 L148 258 L164 327 L270 327 L327 562 L310 562 Q276 562 253.5 556.5 Q231 551 214.5 537.5 Q198 524 186 501 Q174 478 162 444 L102 444 Q107 461 114 485.5 Q121 510 128 536 Q135 562 141.5 586 Q148 610 151 625 L710 625 Q706 609 701 584 Q696 559 691 532 Q686 505 682 481 Q678 457 676 444 L620 444 Q620 477 618.5 499.5 Q617 522 608 536 Q599 550 581 556 Q563 562 530 562 L508 562 L451 327 L557 327 L541 258 L434 258 Z " />
<glyph glyph-name="Ugrave" unicode="&#xd9;" horiz-adv-x="687" d="M628 234 Q601 119 547 64 Q510 26 458.5 5.5 Q407 -15 339 -15 Q227 -15 168.5 33.5 Q110 82 110 160 Q110 177 113.5 199 Q117 221 125 255 L185 504 Q190 527 190 539 Q190 557 177 567.5 Q164 578 138 584 L148 625 Q159 625 178.5 624.5 Q198 624 219 623.5 Q240 623 260 622.5 Q280 622 294 622 Q309 622 332 622.5 Q355 623 379 623.5 Q403 624 423.5 624.5 Q444 625 453 625 L443 584 L381 566 L305 251 Q299 227 295 205 Q291 183 291 163 Q291 122 314 97.5 Q337 73 384 73 Q421 73 448.5 87.5 Q476 102 496.5 127.5 Q517 153 530.5 188 Q544 223 554 264 L612 505 Q617 528 617 539 Q617 557 604.5 567 Q592 577 567 584 L577 625 Q600 623 627 622.5 Q654 622 677 622 Q688 622 702 622.5 Q716 623 730 623.5 Q744 624 756.5 624.5 Q769 625 778 625 L768 584 L708 566 L628 234 Z M401 763 L429 806 Q445 829 466 829 Q478 829 488.5 823 Q499 817 510 807 L637 695 L618 666 L403 747 L401 763 Z " />
<glyph glyph-name="Uacute" unicode="&#xda;" horiz-adv-x="687" d="M628 234 Q601 119 547 64 Q510 26 458.5 5.5 Q407 -15 339 -15 Q227 -15 168.5 33.5 Q110 82 110 160 Q110 177 113.5 199 Q117 221 125 255 L185 504 Q190 527 190 539 Q190 557 177 567.5 Q164 578 138 584 L148 625 Q159 625 178.5 624.5 Q198 624 219 623.5 Q240 623 260 622.5 Q280 622 294 622 Q309 622 332 622.5 Q355 623 379 623.5 Q403 624 423.5 624.5 Q444 625 453 625 L443 584 L381 566 L305 251 Q299 227 295 205 Q291 183 291 163 Q291 122 314 97.5 Q337 73 384 73 Q421 73 448.5 87.5 Q476 102 496.5 127.5 Q517 153 530.5 188 Q544 223 554 264 L612 505 Q617 528 617 539 Q617 557 604.5 567 Q592 577 567 584 L577 625 Q600 623 627 622.5 Q654 622 677 622 Q688 622 702 622.5 Q716 623 730 623.5 Q744 624 756.5 624.5 Q769 625 778 625 L768 584 L708 566 L628 234 Z M660 747 L410 667 L397 694 L571 809 Q598 827 616 827 Q638 827 648 802 L665 762 L660 747 Z " />
<glyph glyph-name="Ucircumflex" unicode="&#xdb;" horiz-adv-x="687" d="M628 234 Q601 119 547 64 Q510 26 458.5 5.5 Q407 -15 339 -15 Q227 -15 168.5 33.5 Q110 82 110 160 Q110 177 113.5 199 Q117 221 125 255 L185 504 Q190 527 190 539 Q190 557 177 567.5 Q164 578 138 584 L148 625 Q159 625 178.5 624.5 Q198 624 219 623.5 Q240 623 260 622.5 Q280 622 294 622 Q309 622 332 622.5 Q355 623 379 623.5 Q403 624 423.5 624.5 Q444 625 453 625 L443 584 L381 566 L305 251 Q299 227 295 205 Q291 183 291 163 Q291 122 314 97.5 Q337 73 384 73 Q421 73 448.5 87.5 Q476 102 496.5 127.5 Q517 153 530.5 188 Q544 223 554 264 L612 505 Q617 528 617 539 Q617 557 604.5 567 Q592 577 567 584 L577 625 Q600 623 627 622.5 Q654 622 677 622 Q688 622 702 622.5 Q716 623 730 623.5 Q744 624 756.5 624.5 Q769 625 778 625 L768 584 L708 566 L628 234 Z M531 749 L390 670 L367 692 L504 824 L594 824 L669 689 L641 670 L531 749 Z " />
<glyph glyph-name="Utilde" unicode="&#x168;" horiz-adv-x="687" d="M628 234 Q601 119 547 64 Q510 26 458.5 5.5 Q407 -15 339 -15 Q227 -15 168.5 33.5 Q110 82 110 160 Q110 177 113.5 199 Q117 221 125 255 L185 504 Q190 527 190 539 Q190 557 177 567.5 Q164 578 138 584 L148 625 Q159 625 178.5 624.5 Q198 624 219 623.5 Q240 623 260 622.5 Q280 622 294 622 Q309 622 332 622.5 Q355 623 379 623.5 Q403 624 423.5 624.5 Q444 625 453 625 L443 584 L381 566 L305 251 Q299 227 295 205 Q291 183 291 163 Q291 122 314 97.5 Q337 73 384 73 Q421 73 448.5 87.5 Q476 102 496.5 127.5 Q517 153 530.5 188 Q544 223 554 264 L612 505 Q617 528 617 539 Q617 557 604.5 567 Q592 577 567 584 L577 625 Q600 623 627 622.5 Q654 622 677 622 Q688 622 702 622.5 Q716 623 730 623.5 Q744 624 756.5 624.5 Q769 625 778 625 L768 584 L708 566 L628 234 Z M562 678 Q542 678 527 683 Q512 688 498 694.5 Q484 701 470.5 706 Q457 711 441 711 Q421 711 408 701 Q395 691 387 677 L352 688 Q373 743 408 773 Q443 803 481 803 Q500 803 515.5 798 Q531 793 545 786.5 Q559 780 572.5 775 Q586 770 602 770 Q622 770 635 780 Q648 790 656 804 L691 793 Q670 738 635 708 Q600 678 562 678 Z " />
<glyph glyph-name="Udieresis" unicode="&#xdc;" horiz-adv-x="687" d="M628 234 Q601 119 547 64 Q510 26 458.5 5.5 Q407 -15 339 -15 Q227 -15 168.5 33.5 Q110 82 110 160 Q110 177 113.5 199 Q117 221 125 255 L185 504 Q190 527 190 539 Q190 557 177 567.5 Q164 578 138 584 L148 625 Q159 625 178.5 624.5 Q198 624 219 623.5 Q240 623 260 622.5 Q280 622 294 622 Q309 622 332 622.5 Q355 623 379 623.5 Q403 624 423.5 624.5 Q444 625 453 625 L443 584 L381 566 L305 251 Q299 227 295 205 Q291 183 291 163 Q291 122 314 97.5 Q337 73 384 73 Q421 73 448.5 87.5 Q476 102 496.5 127.5 Q517 153 530.5 188 Q544 223 554 264 L612 505 Q617 528 617 539 Q617 557 604.5 567 Q592 577 567 584 L577 625 Q600 623 627 622.5 Q654 622 677 622 Q688 622 702 622.5 Q716 623 730 623.5 Q744 624 756.5 624.5 Q769 625 778 625 L768 584 L708 566 L628 234 Z M421 676 Q398 676 383 690 Q368 704 368 725 Q368 741 375.5 756.5 Q383 772 395 784 Q407 796 423 803 Q439 810 456 810 Q480 810 494.5 796 Q509 782 509 761 Q509 744 501.5 729 Q494 714 482 702 Q470 690 454 683 Q438 676 421 676 Z M607 676 Q584 676 569 690 Q554 704 554 725 Q554 741 561.5 756.5 Q569 772 581 784 Q593 796 609 803 Q625 810 642 810 Q666 810 680.5 796 Q695 782 695 761 Q695 744 687.5 729 Q680 714 668 702 Q656 690 640 683 Q624 676 607 676 Z " />
<glyph glyph-name="Umacron" unicode="&#x16a;" horiz-adv-x="687" d="M628 234 Q601 119 547 64 Q510 26 458.5 5.5 Q407 -15 339 -15 Q227 -15 168.5 33.5 Q110 82 110 160 Q110 177 113.5 199 Q117 221 125 255 L185 504 Q190 527 190 539 Q190 557 177 567.5 Q164 578 138 584 L148 625 Q159 625 178.5 624.5 Q198 624 219 623.5 Q240 623 260 622.5 Q280 622 294 622 Q309 622 332 622.5 Q355 623 379 623.5 Q403 624 423.5 624.5 Q444 625 453 625 L443 584 L381 566 L305 251 Q299 227 295 205 Q291 183 291 163 Q291 122 314 97.5 Q337 73 384 73 Q421 73 448.5 87.5 Q476 102 496.5 127.5 Q517 153 530.5 188 Q544 223 554 264 L612 505 Q617 528 617 539 Q617 557 604.5 567 Q592 577 567 584 L577 625 Q600 623 627 622.5 Q654 622 677 622 Q688 622 702 622.5 Q716 623 730 623.5 Q744 624 756.5 624.5 Q769 625 778 625 L768 584 L708 566 L628 234 Z M404 688 L421 760 L655 760 L638 688 L404 688 Z " />
<glyph glyph-name="Ubreve" unicode="&#x16c;" horiz-adv-x="687" d="M628 234 Q601 119 547 64 Q510 26 458.5 5.5 Q407 -15 339 -15 Q227 -15 168.5 33.5 Q110 82 110 160 Q110 177 113.5 199 Q117 221 125 255 L185 504 Q190 527 190 539 Q190 557 177 567.5 Q164 578 138 584 L148 625 Q159 625 178.5 624.5 Q198 624 219 623.5 Q240 623 260 622.5 Q280 622 294 622 Q309 622 332 622.5 Q355 623 379 623.5 Q403 624 423.5 624.5 Q444 625 453 625 L443 584 L381 566 L305 251 Q299 227 295 205 Q291 183 291 163 Q291 122 314 97.5 Q337 73 384 73 Q421 73 448.5 87.5 Q476 102 496.5 127.5 Q517 153 530.5 188 Q544 223 554 264 L612 505 Q617 528 617 539 Q617 557 604.5 567 Q592 577 567 584 L577 625 Q600 623 627 622.5 Q654 622 677 622 Q688 622 702 622.5 Q716 623 730 623.5 Q744 624 756.5 624.5 Q769 625 778 625 L768 584 L708 566 L628 234 Z M678 806 Q672 779 658 755 Q644 731 624 713 Q604 695 578.5 684.5 Q553 674 523 674 Q474 674 447.5 701.5 Q421 729 422 771 Q422 790 426 806 L472 806 Q474 780 493 766.5 Q512 753 540 753 Q569 753 594 767 Q619 781 633 806 L678 806 L678 806 Z " />
<glyph glyph-name="Uring" unicode="&#x16e;" horiz-adv-x="687" d="M628 234 Q601 119 547 64 Q510 26 458.5 5.5 Q407 -15 339 -15 Q227 -15 168.5 33.5 Q110 82 110 160 Q110 177 113.5 199 Q117 221 125 255 L185 504 Q190 527 190 539 Q190 557 177 567.5 Q164 578 138 584 L148 625 Q159 625 178.5 624.5 Q198 624 219 623.5 Q240 623 260 622.5 Q280 622 294 622 Q309 622 332 622.5 Q355 623 379 623.5 Q403 624 423.5 624.5 Q444 625 453 625 L443 584 L381 566 L305 251 Q299 227 295 205 Q291 183 291 163 Q291 122 314 97.5 Q337 73 384 73 Q421 73 448.5 87.5 Q476 102 496.5 127.5 Q517 153 530.5 188 Q544 223 554 264 L612 505 Q617 528 617 539 Q617 557 604.5 567 Q592 577 567 584 L577 625 Q600 623 627 622.5 Q654 622 677 622 Q688 622 702 622.5 Q716 623 730 623.5 Q744 624 756.5 624.5 Q769 625 778 625 L768 584 L708 566 L628 234 Z M534 721 Q557 721 574 740.5 Q591 760 591 784 Q591 801 581.5 810 Q572 819 557 819 Q534 819 517 799.5 Q500 780 500 756 Q500 739 509.5 730 Q519 721 534 721 Z M526 674 Q491 674 468.5 697 Q446 720 446 752 Q446 775 455.5 795.5 Q465 816 481.5 832 Q498 848 519.5 857 Q541 866 565 866 Q600 866 622.5 843.5 Q645 821 645 789 Q645 766 635.5 745 Q626 724 609.5 708.5 Q593 693 571.5 683.5 Q550 674 526 674 Z " />
<glyph glyph-name="Uhungarumlaut" unicode="&#x170;" horiz-adv-x="687" d="M628 234 Q601 119 547 64 Q510 26 458.5 5.5 Q407 -15 339 -15 Q227 -15 168.5 33.5 Q110 82 110 160 Q110 177 113.5 199 Q117 221 125 255 L185 504 Q190 527 190 539 Q190 557 177 567.5 Q164 578 138 584 L148 625 Q159 625 178.5 624.5 Q198 624 219 623.5 Q240 623 260 622.5 Q280 622 294 622 Q309 622 332 622.5 Q355 623 379 623.5 Q403 624 423.5 624.5 Q444 625 453 625 L443 584 L381 566 L305 251 Q299 227 295 205 Q291 183 291 163 Q291 122 314 97.5 Q337 73 384 73 Q421 73 448.5 87.5 Q476 102 496.5 127.5 Q517 153 530.5 188 Q544 223 554 264 L612 505 Q617 528 617 539 Q617 557 604.5 567 Q592 577 567 584 L577 625 Q600 623 627 622.5 Q654 622 677 622 Q688 622 702 622.5 Q716 623 730 623.5 Q744 624 756.5 624.5 Q769 625 778 625 L768 584 L708 566 L628 234 Z M544 753 L325 666 L313 689 L463 802 Q489 822 506 822 Q525 822 535 797 L548 766 L544 753 Z M736 753 L517 666 L505 689 L655 802 Q681 822 698 822 Q717 822 727 797 L740 766 L736 753 Z " />
<glyph glyph-name="Uogonek" unicode="&#x172;" horiz-adv-x="687" d="M441 -208 Q425 -220 395.5 -231 Q366 -242 333 -242 Q288 -242 261.5 -218 Q235 -194 235 -156 Q235 -117 264 -80.5 Q293 -44 339 -15 Q227 -15 168.5 33.5 Q110 82 110 160 Q110 177 113.5 199 Q117 221 125 255 L185 504 Q190 527 190 539 Q190 557 177 567.5 Q164 578 138 584 L148 625 Q159 625 178.5 624.5 Q198 624 219 623.5 Q240 623 260 622.5 Q280 622 294 622 Q309 622 332 622.5 Q355 623 379 623.5 Q403 624 423.5 624.5 Q444 625 453 625 L443 584 L381 566 L305 251 Q299 227 295 205 Q291 183 291 163 Q291 122 314 97.5 Q337 73 384 73 Q421 73 448.5 87.5 Q476 102 496.5 127.5 Q517 153 530.5 188 Q544 223 554 264 L612 505 Q617 528 617 539 Q617 557 604.5 567 Q592 577 567 584 L577 625 Q600 623 627 622.5 Q654 622 677 622 Q688 622 702 622.5 Q716 623 730 623.5 Q744 624 756.5 624.5 Q769 625 778 625 L768 584 L708 566 L628 234 Q601 119 547 64 Q526 42 490.5 18.5 Q455 -5 421.5 -30 Q388 -55 363 -82.5 Q338 -110 338 -140 Q338 -158 348.5 -169 Q359 -180 378 -180 Q392 -180 404.5 -176.5 Q417 -173 428 -168 L441 -208 Z " />
<glyph glyph-name="Wgrave" unicode="&#x1e80;" horiz-adv-x="933" d="M538 330 L346 0 L237 0 L171 520 Q169 537 165 547.5 Q161 558 153 564.5 Q145 571 132.5 575 Q120 579 100 584 L110 625 Q121 624 141.5 623.5 Q162 623 184.5 622.5 Q207 622 227.5 622 Q248 622 260 622 Q271 622 292 622.5 Q313 623 335.5 623.5 Q358 624 378 624.5 Q398 625 407 625 L397 584 L339 565 L383 210 L527 457 L523 520 Q521 538 518 548.5 Q515 559 509 566 Q503 573 492.5 576.5 Q482 580 466 584 L476 625 Q487 624 508 623.5 Q529 623 551.5 622.5 Q574 622 595 622 Q616 622 628 622 Q639 622 657 622.5 Q675 623 693.5 623.5 Q712 624 729 624.5 Q746 625 755 625 L745 584 L685 564 L712 229 L894 563 L839 584 L849 625 Q858 625 871 624.5 Q884 624 898 623.5 Q912 623 926 622.5 Q940 622 951 622 Q974 622 1005.5 623 Q1037 624 1059 625 L1049 584 Q1014 582 996 569.5 Q978 557 960 524 L673 0 L566 0 L538 330 Z M518 763 L546 806 Q562 829 583 829 Q595 829 605.5 823 Q616 817 627 807 L754 695 L735 666 L520 747 L518 763 Z " />
<glyph glyph-name="Wacute" unicode="&#x1e82;" horiz-adv-x="933" d="M538 330 L346 0 L237 0 L171 520 Q169 537 165 547.5 Q161 558 153 564.5 Q145 571 132.5 575 Q120 579 100 584 L110 625 Q121 624 141.5 623.5 Q162 623 184.5 622.5 Q207 622 227.5 622 Q248 622 260 622 Q271 622 292 622.5 Q313 623 335.5 623.5 Q358 624 378 624.5 Q398 625 407 625 L397 584 L339 565 L383 210 L527 457 L523 520 Q521 538 518 548.5 Q515 559 509 566 Q503 573 492.5 576.5 Q482 580 466 584 L476 625 Q487 624 508 623.5 Q529 623 551.5 622.5 Q574 622 595 622 Q616 622 628 622 Q639 622 657 622.5 Q675 623 693.5 623.5 Q712 624 729 624.5 Q746 625 755 625 L745 584 L685 564 L712 229 L894 563 L839 584 L849 625 Q858 625 871 624.5 Q884 624 898 623.5 Q912 623 926 622.5 Q940 622 951 622 Q974 622 1005.5 623 Q1037 624 1059 625 L1049 584 Q1014 582 996 569.5 Q978 557 960 524 L673 0 L566 0 L538 330 Z M765 747 L515 667 L502 694 L676 809 Q703 827 721 827 Q743 827 753 802 L770 762 L765 747 Z " />
<glyph glyph-name="Wcircumflex" unicode="&#x174;" horiz-adv-x="933" d="M538 330 L346 0 L237 0 L171 520 Q169 537 165 547.5 Q161 558 153 564.5 Q145 571 132.5 575 Q120 579 100 584 L110 625 Q121 624 141.5 623.5 Q162 623 184.5 622.5 Q207 622 227.5 622 Q248 622 260 622 Q271 622 292 622.5 Q313 623 335.5 623.5 Q358 624 378 624.5 Q398 625 407 625 L397 584 L339 565 L383 210 L527 457 L523 520 Q521 538 518 548.5 Q515 559 509 566 Q503 573 492.5 576.5 Q482 580 466 584 L476 625 Q487 624 508 623.5 Q529 623 551.5 622.5 Q574 622 595 622 Q616 622 628 622 Q639 622 657 622.5 Q675 623 693.5 623.5 Q712 624 729 624.5 Q746 625 755 625 L745 584 L685 564 L712 229 L894 563 L839 584 L849 625 Q858 625 871 624.5 Q884 624 898 623.5 Q912 623 926 622.5 Q940 622 951 622 Q974 622 1005.5 623 Q1037 624 1059 625 L1049 584 Q1014 582 996 569.5 Q978 557 960 524 L673 0 L566 0 L538 330 Z M645 749 L504 670 L481 692 L618 824 L708 824 L783 689 L755 670 L645 749 Z " />
<glyph glyph-name="Wdieresis" unicode="&#x1e84;" horiz-adv-x="933" d="M538 330 L346 0 L237 0 L171 520 Q169 537 165 547.5 Q161 558 153 564.5 Q145 571 132.5 575 Q120 579 100 584 L110 625 Q121 624 141.5 623.5 Q162 623 184.5 622.5 Q207 622 227.5 622 Q248 622 260 622 Q271 622 292 622.5 Q313 623 335.5 623.5 Q358 624 378 624.5 Q398 625 407 625 L397 584 L339 565 L383 210 L527 457 L523 520 Q521 538 518 548.5 Q515 559 509 566 Q503 573 492.5 576.5 Q482 580 466 584 L476 625 Q487 624 508 623.5 Q529 623 551.5 622.5 Q574 622 595 622 Q616 622 628 622 Q639 622 657 622.5 Q675 623 693.5 623.5 Q712 624 729 624.5 Q746 625 755 625 L745 584 L685 564 L712 229 L894 563 L839 584 L849 625 Q858 625 871 624.5 Q884 624 898 623.5 Q912 623 926 622.5 Q940 622 951 622 Q974 622 1005.5 623 Q1037 624 1059 625 L1049 584 Q1014 582 996 569.5 Q978 557 960 524 L673 0 L566 0 L538 330 Z M530 676 Q507 676 492 690 Q477 704 477 725 Q477 741 484.5 756.5 Q492 772 504 784 Q516 796 532 803 Q548 810 565 810 Q589 810 603.5 796 Q618 782 618 761 Q618 744 610.5 729 Q603 714 591 702 Q579 690 563 683 Q547 676 530 676 Z M716 676 Q693 676 678 690 Q663 704 663 725 Q663 741 670.5 756.5 Q678 772 690 784 Q702 796 718 803 Q734 810 751 810 Q775 810 789.5 796 Q804 782 804 761 Q804 744 796.5 729 Q789 714 777 702 Q765 690 749 683 Q733 676 716 676 Z " />
<glyph glyph-name="Ygrave" unicode="&#x1ef2;" horiz-adv-x="597" d="M395 120 Q390 97 390 86 Q390 68 403 57.5 Q416 47 442 41 L432 0 Q421 0 401.5 0.5 Q382 1 361 1.5 Q340 2 319.5 2.5 Q299 3 286 3 Q271 3 248 2.5 Q225 2 201 1.5 Q177 1 156.5 0.5 Q136 0 127 0 L137 41 L199 59 L245 250 L174 514 Q169 533 163 545 Q157 557 149 564 Q141 571 128.5 575.5 Q116 580 98 584 L108 625 Q119 624 139 623.5 Q159 623 181 622.5 Q203 622 223 622 Q243 622 255 622 Q266 622 287 622.5 Q308 623 330.5 623.5 Q353 624 373 624.5 Q393 625 402 625 L392 584 L338 565 L398 327 L558 566 L511 584 L521 625 Q540 624 568.5 623 Q597 622 619 622 Q642 622 669.5 623 Q697 624 721 625 L711 584 Q693 583 681 580 Q669 577 659.5 570.5 Q650 564 641 553.5 Q632 543 622 528 L423 237 L395 120 Z M346 763 L374 806 Q390 829 411 829 Q423 829 433.5 823 Q444 817 455 807 L582 695 L563 666 L348 747 L346 763 Z " />
<glyph glyph-name="Yacute" unicode="&#xdd;" horiz-adv-x="597" d="M395 120 Q390 97 390 86 Q390 68 403 57.5 Q416 47 442 41 L432 0 Q421 0 401.5 0.5 Q382 1 361 1.5 Q340 2 319.5 2.5 Q299 3 286 3 Q271 3 248 2.5 Q225 2 201 1.5 Q177 1 156.5 0.5 Q136 0 127 0 L137 41 L199 59 L245 250 L174 514 Q169 533 163 545 Q157 557 149 564 Q141 571 128.5 575.5 Q116 580 98 584 L108 625 Q119 624 139 623.5 Q159 623 181 622.5 Q203 622 223 622 Q243 622 255 622 Q266 622 287 622.5 Q308 623 330.5 623.5 Q353 624 373 624.5 Q393 625 402 625 L392 584 L338 565 L398 327 L558 566 L511 584 L521 625 Q540 624 568.5 623 Q597 622 619 622 Q642 622 669.5 623 Q697 624 721 625 L711 584 Q693 583 681 580 Q669 577 659.5 570.5 Q650 564 641 553.5 Q632 543 622 528 L423 237 L395 120 Z M598 747 L348 667 L335 694 L509 809 Q536 827 554 827 Q576 827 586 802 L603 762 L598 747 Z " />
<glyph glyph-name="Ycircumflex" unicode="&#x176;" horiz-adv-x="597" d="M395 120 Q390 97 390 86 Q390 68 403 57.5 Q416 47 442 41 L432 0 Q421 0 401.5 0.5 Q382 1 361 1.5 Q340 2 319.5 2.5 Q299 3 286 3 Q271 3 248 2.5 Q225 2 201 1.5 Q177 1 156.5 0.5 Q136 0 127 0 L137 41 L199 59 L245 250 L174 514 Q169 533 163 545 Q157 557 149 564 Q141 571 128.5 575.5 Q116 580 98 584 L108 625 Q119 624 139 623.5 Q159 623 181 622.5 Q203 622 223 622 Q243 622 255 622 Q266 622 287 622.5 Q308 623 330.5 623.5 Q353 624 373 624.5 Q393 625 402 625 L392 584 L338 565 L398 327 L558 566 L511 584 L521 625 Q540 624 568.5 623 Q597 622 619 622 Q642 622 669.5 623 Q697 624 721 625 L711 584 Q693 583 681 580 Q669 577 659.5 570.5 Q650 564 641 553.5 Q632 543 622 528 L423 237 L395 120 Z M477 749 L336 670 L313 692 L450 824 L540 824 L615 689 L587 670 L477 749 Z " />
<glyph glyph-name="Ydieresis" unicode="&#x178;" horiz-adv-x="597" d="M395 120 Q390 97 390 86 Q390 68 403 57.5 Q416 47 442 41 L432 0 Q421 0 401.5 0.5 Q382 1 361 1.5 Q340 2 319.5 2.5 Q299 3 286 3 Q271 3 248 2.5 Q225 2 201 1.5 Q177 1 156.5 0.5 Q136 0 127 0 L137 41 L199 59 L245 250 L174 514 Q169 533 163 545 Q157 557 149 564 Q141 571 128.5 575.5 Q116 580 98 584 L108 625 Q119 624 139 623.5 Q159 623 181 622.5 Q203 622 223 622 Q243 622 255 622 Q266 622 287 622.5 Q308 623 330.5 623.5 Q353 624 373 624.5 Q393 625 402 625 L392 584 L338 565 L398 327 L558 566 L511 584 L521 625 Q540 624 568.5 623 Q597 622 619 622 Q642 622 669.5 623 Q697 624 721 625 L711 584 Q693 583 681 580 Q669 577 659.5 570.5 Q650 564 641 553.5 Q632 543 622 528 L423 237 L395 120 Z M369 676 Q346 676 331 690 Q316 704 316 725 Q316 741 323.5 756.5 Q331 772 343 784 Q355 796 371 803 Q387 810 404 810 Q428 810 442.5 796 Q457 782 457 761 Q457 744 449.5 729 Q442 714 430 702 Q418 690 402 683 Q386 676 369 676 Z M555 676 Q532 676 517 690 Q502 704 502 725 Q502 741 509.5 756.5 Q517 772 529 784 Q541 796 557 803 Q573 810 590 810 Q614 810 628.5 796 Q643 782 643 761 Q643 744 635.5 729 Q628 714 616 702 Q604 690 588 683 Q572 676 555 676 Z " />
<glyph glyph-name="Zacute" unicode="&#x179;" horiz-adv-x="573" d="M637 583 Q593 518 544 450 Q495 382 444.5 315 Q394 248 343 184 Q292 120 243 63 L336 63 Q374 63 401.5 69 Q429 75 449 94 Q463 108 474.5 127 Q486 146 497 172 L555 172 Q550 155 544 132 Q538 109 531.5 85 Q525 61 519 38.5 Q513 16 509 0 L45 0 L28 42 Q72 107 121 175 Q170 243 220 309.5 Q270 376 321 440.5 Q372 505 421 562 L263 562 L181 457 L126 457 Q130 470 137 493 Q144 516 151 541 Q158 566 164 588.5 Q170 611 173 625 L621 625 L637 583 Z M577 747 L327 667 L314 694 L488 809 Q515 827 533 827 Q555 827 565 802 L582 762 L577 747 Z " />
<glyph glyph-name="Zcaron" unicode="&#x17d;" horiz-adv-x="573" d="M637 583 Q593 518 544 450 Q495 382 444.5 315 Q394 248 343 184 Q292 120 243 63 L336 63 Q374 63 401.5 69 Q429 75 449 94 Q463 108 474.5 127 Q486 146 497 172 L555 172 Q550 155 544 132 Q538 109 531.5 85 Q525 61 519 38.5 Q513 16 509 0 L45 0 L28 42 Q72 107 121 175 Q170 243 220 309.5 Q270 376 321 440.5 Q372 505 421 562 L263 562 L181 457 L126 457 Q130 470 137 493 Q144 516 151 541 Q158 566 164 588.5 Q170 611 173 625 L621 625 L637 583 Z M434 750 L575 829 L598 807 L461 675 L371 675 L296 810 L324 829 L434 750 Z " />
<glyph glyph-name="Zdotaccent" unicode="&#x17b;" horiz-adv-x="573" d="M637 583 Q593 518 544 450 Q495 382 444.5 315 Q394 248 343 184 Q292 120 243 63 L336 63 Q374 63 401.5 69 Q429 75 449 94 Q463 108 474.5 127 Q486 146 497 172 L555 172 Q550 155 544 132 Q538 109 531.5 85 Q525 61 519 38.5 Q513 16 509 0 L45 0 L28 42 Q72 107 121 175 Q170 243 220 309.5 Q270 376 321 440.5 Q372 505 421 562 L263 562 L181 457 L126 457 Q130 470 137 493 Q144 516 151 541 Q158 566 164 588.5 Q170 611 173 625 L621 625 L637 583 Z M416 674 Q387 674 371.5 691.5 Q356 709 356 735 Q356 753 364.5 769.5 Q373 786 386.5 798.5 Q400 811 417.5 819 Q435 827 453 827 Q482 827 497.5 809.5 Q513 792 513 766 Q513 748 504.5 731.5 Q496 715 482.5 702.5 Q469 690 451.5 682 Q434 674 416 674 Z " />
<glyph glyph-name="agrave" unicode="&#xe0;" horiz-adv-x="552" d="M560 440 L483 140 Q476 112 476 100 Q476 75 502 75 Q515 75 530 80 L519 31 Q493 13 456.5 0.5 Q420 -12 388 -12 Q355 -12 334.5 3 Q314 18 309 49 Q285 17 251.5 1 Q218 -15 183 -15 Q122 -15 83.5 28.5 Q45 72 45 148 Q45 213 73.5 273.5 Q102 334 148 378 Q188 416 239.5 438 Q291 460 342 460 Q392 460 430 435 L451 458 L547 452 L560 440 Z M251 84 Q279 84 298.5 124.5 Q318 165 335 229 L374 376 Q366 387 350 387 Q335 387 321.5 377.5 Q308 368 295 352 Q280 332 265.5 305 Q251 278 240.5 248.5 Q230 219 223.5 189 Q217 159 217 135 Q217 108 226 96 Q235 84 251 84 Z M261 612 L291 655 Q306 676 327 676 Q347 676 366 657 L492 524 L472 496 L264 596 L261 612 Z " />
<glyph glyph-name="aacute" unicode="&#xe1;" horiz-adv-x="552" d="M560 440 L483 140 Q476 112 476 100 Q476 75 502 75 Q515 75 530 80 L519 31 Q493 13 456.5 0.5 Q420 -12 388 -12 Q355 -12 334.5 3 Q314 18 309 49 Q285 17 251.5 1 Q218 -15 183 -15 Q122 -15 83.5 28.5 Q45 72 45 148 Q45 213 73.5 273.5 Q102 334 148 378 Q188 416 239.5 438 Q291 460 342 460 Q392 460 430 435 L451 458 L547 452 L560 440 Z M251 84 Q279 84 298.5 124.5 Q318 165 335 229 L374 376 Q366 387 350 387 Q335 387 321.5 377.5 Q308 368 295 352 Q280 332 265.5 305 Q251 278 240.5 248.5 Q230 219 223.5 189 Q217 159 217 135 Q217 108 226 96 Q235 84 251 84 Z M507 595 L254 496 L239 524 L416 658 Q428 667 439 672.5 Q450 678 461 678 Q472 678 478.5 672.5 Q485 667 491 656 L513 611 L507 595 Z " />
<glyph glyph-name="acircumflex" unicode="&#xe2;" horiz-adv-x="552" d="M560 440 L483 140 Q476 112 476 100 Q476 75 502 75 Q515 75 530 80 L519 31 Q493 13 456.5 0.5 Q420 -12 388 -12 Q355 -12 334.5 3 Q314 18 309 49 Q285 17 251.5 1 Q218 -15 183 -15 Q122 -15 83.5 28.5 Q45 72 45 148 Q45 213 73.5 273.5 Q102 334 148 378 Q188 416 239.5 438 Q291 460 342 460 Q392 460 430 435 L451 458 L547 452 L560 440 Z M251 84 Q279 84 298.5 124.5 Q318 165 335 229 L374 376 Q366 387 350 387 Q335 387 321.5 377.5 Q308 368 295 352 Q280 332 265.5 305 Q251 278 240.5 248.5 Q230 219 223.5 189 Q217 159 217 135 Q217 108 226 96 Q235 84 251 84 Z M500 500 L388 580 L253 497 L223 515 L364 663 L455 663 L529 510 L500 500 Z " />
<glyph glyph-name="atilde" unicode="&#xe3;" horiz-adv-x="552" d="M560 440 L483 140 Q476 112 476 100 Q476 75 502 75 Q515 75 530 80 L519 31 Q493 13 456.5 0.5 Q420 -12 388 -12 Q355 -12 334.5 3 Q314 18 309 49 Q285 17 251.5 1 Q218 -15 183 -15 Q122 -15 83.5 28.5 Q45 72 45 148 Q45 213 73.5 273.5 Q102 334 148 378 Q188 416 239.5 438 Q291 460 342 460 Q392 460 430 435 L451 458 L547 452 L560 440 Z M251 84 Q279 84 298.5 124.5 Q318 165 335 229 L374 376 Q366 387 350 387 Q335 387 321.5 377.5 Q308 368 295 352 Q280 332 265.5 305 Q251 278 240.5 248.5 Q230 219 223.5 189 Q217 159 217 135 Q217 108 226 96 Q235 84 251 84 Z M416 503 Q396 503 381 508 Q366 513 352 519.5 Q338 526 324.5 531 Q311 536 295 536 Q275 536 262 526 Q249 516 241 502 L206 513 Q227 568 262 598 Q297 628 335 628 Q354 628 369.5 623 Q385 618 399 611.5 Q413 605 426.5 600 Q440 595 456 595 Q476 595 489 605 Q502 615 510 629 L545 618 Q524 563 489 533 Q454 503 416 503 Z " />
<glyph glyph-name="adieresis" unicode="&#xe4;" horiz-adv-x="552" d="M560 440 L483 140 Q476 112 476 100 Q476 75 502 75 Q515 75 530 80 L519 31 Q493 13 456.5 0.5 Q420 -12 388 -12 Q355 -12 334.5 3 Q314 18 309 49 Q285 17 251.5 1 Q218 -15 183 -15 Q122 -15 83.5 28.5 Q45 72 45 148 Q45 213 73.5 273.5 Q102 334 148 378 Q188 416 239.5 438 Q291 460 342 460 Q392 460 430 435 L451 458 L547 452 L560 440 Z M251 84 Q279 84 298.5 124.5 Q318 165 335 229 L374 376 Q366 387 350 387 Q335 387 321.5 377.5 Q308 368 295 352 Q280 332 265.5 305 Q251 278 240.5 248.5 Q230 219 223.5 189 Q217 159 217 135 Q217 108 226 96 Q235 84 251 84 Z M263 496 Q240 496 225 510 Q210 524 210 545 Q210 561 217.5 576.5 Q225 592 237 604 Q249 616 265 623 Q281 630 298 630 Q322 630 336.5 616 Q351 602 351 581 Q351 564 343.5 549 Q336 534 324 522 Q312 510 296 503 Q280 496 263 496 Z M449 496 Q426 496 411 510 Q396 524 396 545 Q396 561 403.5 576.5 Q411 592 423 604 Q435 616 451 623 Q467 630 484 630 Q508 630 522.5 616 Q537 602 537 581 Q537 564 529.5 549 Q522 534 510 522 Q498 510 482 503 Q466 496 449 496 Z " />
<glyph glyph-name="amacron" unicode="&#x101;" horiz-adv-x="552" d="M560 440 L483 140 Q476 112 476 100 Q476 75 502 75 Q515 75 530 80 L519 31 Q493 13 456.5 0.5 Q420 -12 388 -12 Q355 -12 334.5 3 Q314 18 309 49 Q285 17 251.5 1 Q218 -15 183 -15 Q122 -15 83.5 28.5 Q45 72 45 148 Q45 213 73.5 273.5 Q102 334 148 378 Q188 416 239.5 438 Q291 460 342 460 Q392 460 430 435 L451 458 L547 452 L560 440 Z M251 84 Q279 84 298.5 124.5 Q318 165 335 229 L374 376 Q366 387 350 387 Q335 387 321.5 377.5 Q308 368 295 352 Q280 332 265.5 305 Q251 278 240.5 248.5 Q230 219 223.5 189 Q217 159 217 135 Q217 108 226 96 Q235 84 251 84 Z M248 522 L265 594 L499 594 L482 522 L248 522 Z " />
<glyph glyph-name="abreve" unicode="&#x103;" horiz-adv-x="552" d="M560 440 L483 140 Q476 112 476 100 Q476 75 502 75 Q515 75 530 80 L519 31 Q493 13 456.5 0.5 Q420 -12 388 -12 Q355 -12 334.5 3 Q314 18 309 49 Q285 17 251.5 1 Q218 -15 183 -15 Q122 -15 83.5 28.5 Q45 72 45 148 Q45 213 73.5 273.5 Q102 334 148 378 Q188 416 239.5 438 Q291 460 342 460 Q392 460 430 435 L451 458 L547 452 L560 440 Z M251 84 Q279 84 298.5 124.5 Q318 165 335 229 L374 376 Q366 387 350 387 Q335 387 321.5 377.5 Q308 368 295 352 Q280 332 265.5 305 Q251 278 240.5 248.5 Q230 219 223.5 189 Q217 159 217 135 Q217 108 226 96 Q235 84 251 84 Z M513 640 Q507 613 493 589 Q479 565 459 547 Q439 529 413.5 518.5 Q388 508 358 508 Q309 508 282.5 535.5 Q256 563 257 605 Q257 624 261 640 L307 640 Q309 614 328 600.5 Q347 587 375 587 Q404 587 429 601 Q454 615 468 640 L513 640 L513 640 Z " />
<glyph glyph-name="acaron" unicode="&#x1ce;" horiz-adv-x="552" d="M560 440 L483 140 Q476 112 476 100 Q476 75 502 75 Q515 75 530 80 L519 31 Q493 13 456.5 0.5 Q420 -12 388 -12 Q355 -12 334.5 3 Q314 18 309 49 Q285 17 251.5 1 Q218 -15 183 -15 Q122 -15 83.5 28.5 Q45 72 45 148 Q45 213 73.5 273.5 Q102 334 148 378 Q188 416 239.5 438 Q291 460 342 460 Q392 460 430 435 L451 458 L547 452 L560 440 Z M251 84 Q279 84 298.5 124.5 Q318 165 335 229 L374 376 Q366 387 350 387 Q335 387 321.5 377.5 Q308 368 295 352 Q280 332 265.5 305 Q251 278 240.5 248.5 Q230 219 223.5 189 Q217 159 217 135 Q217 108 226 96 Q235 84 251 84 Z M276 660 L388 580 L523 663 L553 645 L412 497 L321 497 L247 650 L276 660 Z " />
<glyph glyph-name="aring" unicode="&#xe5;" horiz-adv-x="552" d="M560 440 L483 140 Q476 112 476 100 Q476 75 502 75 Q515 75 530 80 L519 31 Q493 13 456.5 0.5 Q420 -12 388 -12 Q355 -12 334.5 3 Q314 18 309 49 Q285 17 251.5 1 Q218 -15 183 -15 Q122 -15 83.5 28.5 Q45 72 45 148 Q45 213 73.5 273.5 Q102 334 148 378 Q188 416 239.5 438 Q291 460 342 460 Q392 460 430 435 L451 458 L547 452 L560 440 Z M251 84 Q279 84 298.5 124.5 Q318 165 335 229 L374 376 Q366 387 350 387 Q335 387 321.5 377.5 Q308 368 295 352 Q280 332 265.5 305 Q251 278 240.5 248.5 Q230 219 223.5 189 Q217 159 217 135 Q217 108 226 96 Q235 84 251 84 Z M374 546 Q397 546 414 565.5 Q431 585 431 609 Q431 626 421.5 635 Q412 644 397 644 Q374 644 357 624.5 Q340 605 340 581 Q340 564 349.5 555 Q359 546 374 546 Z M366 499 Q331 499 308.5 522 Q286 545 286 577 Q286 600 295.5 620.5 Q305 641 321.5 657 Q338 673 359.5 682 Q381 691 405 691 Q440 691 462.5 668.5 Q485 646 485 614 Q485 591 475.5 570 Q466 549 449.5 533.5 Q433 518 411.5 508.5 Q390 499 366 499 Z " />
<glyph glyph-name="aringacute" unicode="&#x1fb;" horiz-adv-x="552" d="M560 440 L483 140 Q476 112 476 100 Q476 75 502 75 Q515 75 530 80 L519 31 Q493 13 456.5 0.5 Q420 -12 388 -12 Q355 -12 334.5 3 Q314 18 309 49 Q285 17 251.5 1 Q218 -15 183 -15 Q122 -15 83.5 28.5 Q45 72 45 148 Q45 213 73.5 273.5 Q102 334 148 378 Q188 416 239.5 438 Q291 460 342 460 Q392 460 430 435 L451 458 L547 452 L560 440 Z M251 84 Q279 84 298.5 124.5 Q318 165 335 229 L374 376 Q366 387 350 387 Q335 387 321.5 377.5 Q308 368 295 352 Q280 332 265.5 305 Q251 278 240.5 248.5 Q230 219 223.5 189 Q217 159 217 135 Q217 108 226 96 Q235 84 251 84 Z M549 784 L296 685 L281 713 L458 847 Q470 856 481 861.5 Q492 867 503 867 Q514 867 520.5 861.5 Q527 856 533 845 L555 800 L549 784 Z M370 536 Q393 536 410 555.5 Q427 575 427 599 Q427 616 417.5 625 Q408 634 393 634 Q370 634 353 614.5 Q336 595 336 571 Q336 554 345.5 545 Q355 536 370 536 Z M362 489 Q327 489 304.5 512 Q282 535 282 567 Q282 590 291.5 610.5 Q301 631 317.5 647 Q334 663 355.5 672 Q377 681 401 681 Q436 681 458.5 658.5 Q481 636 481 604 Q481 581 471.5 560 Q462 539 445.5 523.5 Q429 508 407.5 498.5 Q386 489 362 489 Z " />
<glyph glyph-name="aogonek" unicode="&#x105;" horiz-adv-x="552" d="M454 -208 Q438 -220 408.5 -231 Q379 -242 346 -242 Q301 -242 274.5 -218 Q248 -194 248 -156 Q248 -112 279 -74.5 Q310 -37 361 -9 Q315 2 309 49 Q285 17 251.5 1 Q218 -15 183 -15 Q122 -15 83.5 28.5 Q45 72 45 148 Q45 213 73.5 273.5 Q102 334 148 378 Q188 416 239.5 438 Q291 460 342 460 Q392 460 430 435 L451 458 L547 452 L560 440 L483 140 Q476 112 476 100 Q476 75 502 75 Q515 75 530 80 L519 31 Q438 -13 394.5 -55 Q351 -97 351 -138 Q351 -155 360.5 -167.5 Q370 -180 390 -180 Q401 -180 415.5 -176 Q430 -172 441 -168 L454 -208 Z M251 84 Q279 84 298.5 124.5 Q318 165 335 229 L374 376 Q366 387 350 387 Q335 387 321.5 377.5 Q308 368 295 352 Q280 332 265.5 305 Q251 278 240.5 248.5 Q230 219 223.5 189 Q217 159 217 135 Q217 108 226 96 Q235 84 251 84 Z " />
<glyph glyph-name="ae" unicode="&#xe6;" horiz-adv-x="756" d="M342 460 Q378 460 413.5 450 Q449 440 477 415 Q511 436 549 448 Q587 460 629 460 Q695 460 735 429 Q775 398 775 347 Q775 287 704 231 Q633 175 510 121 Q518 106 533 97 Q548 88 571 88 Q601 88 636.5 100.5 Q672 113 700 136 L736 100 Q695 49 634.5 17 Q574 -15 509 -15 Q460 -15 420.5 2.5 Q381 20 358 53 Q316 24 272 4.5 Q228 -15 183 -15 Q122 -15 83.5 29 Q45 73 45 151 Q45 215 73.5 274.5 Q102 334 148 378 Q188 416 239.5 438 Q291 460 342 460 Z M254 84 Q269 84 289.5 91.5 Q310 99 332 113 Q328 130 328 155 Q328 213 350 265.5 Q372 318 410 360 Q400 372 388.5 378.5 Q377 385 360 385 Q326 385 299 356 Q281 337 266 310 Q251 283 240 253 Q229 223 223 192 Q217 161 217 135 Q217 84 254 84 Z M616 389 Q593 389 573 366.5 Q553 344 537.5 312 Q522 280 512.5 245.5 Q503 211 501 186 Q576 236 609.5 280.5 Q643 325 643 360 Q643 372 636.5 380.5 Q630 389 616 389 Z " />
</font>
</svg>
