<?xml version="1.0" encoding="UTF-8"?>
<svg xmlns="http://www.w3.org/2000/svg" xmlns:xlink="http://www.w3.org/1999/xlink" version="1.2" >
<font id="Cadillac Sans ExtraBold Italic">
<font-face  font-family="Cadillac Sans" units-per-em="1000" ascent="750" descent="-250" font-style="italic" font-weight="800" font-stretch="normal" slope="-12" cap-height="700" x-height="546" underline-position="-75" underline-thickness="50" />
<missing-glyph  horiz-adv-x="606" d="M486 -100 L-41 -100 L152 800 L679 800 L486 -100 Z M270 675 L131 25 L367 25 L507 675 L270 675 Z " />
<glyph glyph-name=".null" d="" />
<glyph glyph-name="nonmarkingreturn" unicode="&#xd;" horiz-adv-x="196" d="" />
<glyph glyph-name="space" unicode="&#x20;" horiz-adv-x="201" d="" />
<glyph glyph-name="A" unicode="A" horiz-adv-x="644" d="M565 0 L373 0 L374 133 L204 133 L149 0 L-37 0 L-13 114 L261 700 L565 700 L589 114 L565 0 Z M378 545 L375 545 L271 294 L376 294 L378 545 Z " />
<glyph glyph-name="B" unicode="B" horiz-adv-x="617" d="M532 365 Q577 342 591 307 L550 120 Q519 68 457.5 34 Q396 0 317 0 L-14 0 L135 700 L432 700 Q521 700 573 664 Q625 628 640 580 L610 432 Q599 413 576.5 394 Q554 375 532 365 Z M433 519 Q421 546 376 546 L316 546 L291 424 L355 424 Q397 424 418 453 L433 519 Z M386 264 Q380 277 365.5 284.5 Q351 292 329 292 L262 292 L233 154 L302 154 Q327 154 342.5 161.5 Q358 169 369 184 L386 264 Z " />
<glyph glyph-name="C" unicode="C" horiz-adv-x="608" d="M646 579 L627 488 L444 488 Q442 517 423 533.5 Q404 550 372 550 Q327 550 303 518 L231 182 Q236 167 252 158.5 Q268 150 292 150 Q352 150 384 212 L569 212 L549 121 Q514 66 445.5 25 Q377 -16 266 -16 Q188 -16 132.5 8 Q77 32 46.5 67 Q16 102 8 138 L99 562 Q134 625 208.5 670.5 Q283 716 396 716 Q472 716 525 693.5 Q578 671 607 640 Q636 609 646 579 Z " />
<glyph glyph-name="D" unicode="D" horiz-adv-x="632" d="M658 562 L567 138 Q531 75 467 37.5 Q403 0 307 0 L-14 0 L135 700 L434 700 Q534 700 588.5 659.5 Q643 619 658 562 Z M316 541 L234 159 L292 159 Q317 159 335.5 167.5 Q354 176 364 190 L433 511 Q429 525 413.5 533 Q398 541 371 541 L316 541 Z " />
<glyph glyph-name="E" unicode="E" horiz-adv-x="537" d="M315 539 L293 437 L520 437 L485 275 L258 275 L235 161 L482 161 L447 0 L-14 0 L135 700 L591 700 L556 539 L315 539 Z " />
<glyph glyph-name="F" unicode="F" horiz-adv-x="517" d="M315 539 L290 427 L510 427 L476 265 L257 265 L200 0 L-14 0 L135 700 L577 700 L543 539 L315 539 Z " />
<glyph glyph-name="G" unicode="G" horiz-adv-x="620" d="M303 518 L231 182 Q234 168 250 159 Q266 150 291 150 Q315 150 333.5 157.5 Q352 165 362 176 L379 255 L311 255 L345 412 L611 412 L523 0 L362 0 L372 46 Q310 -16 220 -16 Q127 -16 74.5 31 Q22 78 8 138 L99 562 Q131 623 207.5 669.5 Q284 716 397 716 Q474 716 527 693.5 Q580 671 608 640 Q636 609 646 579 L627 488 L443 488 Q441 517 422.5 533.5 Q404 550 372 550 Q349 550 331.5 541 Q314 532 303 518 Z " />
<glyph glyph-name="H" unicode="H" horiz-adv-x="664" d="M348 0 L407 280 L259 280 L200 0 L-14 0 L135 700 L349 700 L294 441 L441 441 L497 700 L711 700 L562 0 L348 0 Z " />
<glyph glyph-name="I" unicode="I" horiz-adv-x="302" d="M200 0 L-14 0 L135 700 L349 700 L200 0 Z " />
<glyph glyph-name="J" unicode="J" horiz-adv-x="387" d="M316 138 Q278 66 209 31.5 Q140 -3 32 -3 Q-15 -3 -39 0 L-4 161 L33 161 Q65 161 84 169 Q103 177 115 192 L222 700 L436 700 L316 138 Z " />
<glyph glyph-name="K" unicode="K" horiz-adv-x="639" d="M555 0 L388 0 L299 255 L243 203 L200 0 L-14 0 L135 700 L349 700 L305 493 L518 700 L679 700 L654 586 L465 410 L579 114 L555 0 Z " />
<glyph glyph-name="L" unicode="L" horiz-adv-x="462" d="M418 161 L384 0 L-14 0 L135 700 L349 700 L235 161 L418 161 Z " />
<glyph glyph-name="M" unicode="M" horiz-adv-x="815" d="M514 0 L600 405 L597 405 L428 117 L319 117 L273 405 L270 405 L184 0 L-14 0 L135 700 L399 700 L438 432 L441 432 L584 700 L862 700 L713 0 L514 0 Z " />
<glyph glyph-name="N" unicode="N" horiz-adv-x="674" d="M349 0 L265 363 L262 363 L184 0 L-14 0 L135 700 L358 700 L443 336 L446 336 L523 700 L721 700 L572 0 L349 0 Z " />
<glyph glyph-name="O" unicode="O" horiz-adv-x="626" d="M652 562 L561 138 Q522 73 449.5 28.5 Q377 -16 264 -16 Q187 -16 132 8 Q77 32 46.5 67 Q16 102 8 138 L99 562 Q136 627 209 671.5 Q282 716 395 716 Q472 716 527.5 692 Q583 668 613.5 633 Q644 598 652 562 Z M303 518 L231 182 Q235 168 250.5 159 Q266 150 289 150 Q333 150 356 182 L428 518 Q424 532 408.5 541 Q393 550 370 550 Q324 550 303 518 Z " />
<glyph glyph-name="P" unicode="P" horiz-adv-x="609" d="M649 580 L601 355 Q557 292 498.5 263.5 Q440 235 357 235 L250 235 L200 0 L-14 0 L135 700 L435 700 Q508 700 564 669.5 Q620 639 649 580 Z M429 513 Q425 527 410 534 Q395 541 373 541 L315 541 L284 394 L341 394 Q389 394 410 423 L429 513 Z " />
<glyph glyph-name="Q" unicode="Q" horiz-adv-x="626" d="M431 19 Q437 7 447.5 0.5 Q458 -6 468 -6 L537 -6 L506 -152 L410 -152 Q380 -152 346 -135 Q312 -118 285 -86.5 Q258 -55 249 -15 Q177 -13 125 11 Q73 35 44.5 69.5 Q16 104 8 138 L99 562 Q136 627 209 671.5 Q282 716 395 716 Q472 716 527.5 692 Q583 668 613.5 633 Q644 598 652 562 L561 138 Q511 58 431 19 Z M289 150 Q333 150 356 182 L428 518 Q424 532 408.5 541 Q393 550 370 550 Q324 550 303 518 L231 182 Q235 168 250.5 159 Q266 150 289 150 Z " />
<glyph glyph-name="R" unicode="R" horiz-adv-x="621" d="M649 580 L607 376 Q562 311 498 282 L560 114 L536 0 L369 0 L291 256 L254 256 L200 0 L-14 0 L135 700 L439 700 Q522 700 575.5 669 Q629 638 649 580 Z M285 402 L345 402 Q396 402 417 431 L433 512 Q429 526 414.5 533.5 Q400 541 377 541 L316 541 L285 402 Z " />
<glyph glyph-name="S" unicode="S" horiz-adv-x="593" d="M624 582 L605 491 L421 491 Q419 518 403.5 534 Q388 550 356 550 Q335 550 319 542 Q303 534 293 522 L282 471 Q284 461 294.5 454.5 Q305 448 326 443 L367 431 Q463 407 505 376.5 Q547 346 571 304 L531 120 Q439 -16 246 -16 Q170 -16 116 5.5 Q62 27 33 58.5 Q4 90 -5 120 L15 211 L199 211 Q200 181 219.5 165.5 Q239 150 270 150 Q314 150 338 181 L351 239 Q348 249 337 256 Q326 263 303 269 L261 280 Q167 304 125 333 Q83 362 63 405 L100 582 Q135 636 204 676 Q273 716 381 716 Q454 716 506.5 694 Q559 672 587.5 641 Q616 610 624 582 Z " />
<glyph glyph-name="T" unicode="T" horiz-adv-x="560" d="M444 539 L330 0 L116 0 L230 539 L82 539 L116 700 L626 700 L591 539 L444 539 Z " />
<glyph glyph-name="U" unicode="U" horiz-adv-x="637" d="M566 138 Q528 75 454.5 29.5 Q381 -16 268 -16 Q191 -16 136.5 8 Q82 32 51.5 67 Q21 102 13 138 L133 700 L347 700 L236 182 Q240 168 254.5 159 Q269 150 293 150 Q337 150 361 182 L472 700 L686 700 L566 138 Z " />
<glyph glyph-name="V" unicode="V" horiz-adv-x="641" d="M408 0 L117 0 L88 586 L112 700 L310 700 L305 215 L308 215 L513 700 L711 700 L686 586 L408 0 Z " />
<glyph glyph-name="W" unicode="W" horiz-adv-x="937" d="M740 0 L484 0 L486 339 L483 339 L342 0 L81 0 L93 586 L117 700 L315 700 L288 266 L291 266 L469 700 L648 700 L643 266 L646 266 L803 700 L1002 700 L977 586 L740 0 Z " />
<glyph glyph-name="X" unicode="X" horiz-adv-x="610" d="M459 355 L549 114 L525 0 L339 0 L298 218 L295 218 L156 0 L-31 0 L-7 114 L185 356 L98 586 L122 700 L305 700 L349 491 L352 491 L484 700 L671 700 L646 586 L459 355 Z " />
<glyph glyph-name="Y" unicode="Y" horiz-adv-x="600" d="M400 258 L345 0 L130 0 L189 279 L88 586 L113 700 L293 700 L338 475 L341 475 L482 700 L670 700 L645 586 L400 258 Z " />
<glyph glyph-name="Z" unicode="Z" horiz-adv-x="553" d="M266 161 L502 161 L468 0 L-31 0 L-2 137 L318 539 L87 539 L121 700 L617 700 L588 563 L266 161 Z " />
<glyph glyph-name="Agrave" unicode="&#xc0;" horiz-adv-x="644" d="M565 0 L373 0 L374 133 L204 133 L149 0 L-37 0 L-13 114 L261 700 L565 700 L589 114 L565 0 Z M378 545 L375 545 L271 294 L376 294 L378 545 Z M482 740 L346 740 L284 825 L302 907 L472 907 L485 755 L482 740 Z " />
<glyph glyph-name="Aacute" unicode="&#xc1;" horiz-adv-x="644" d="M565 0 L373 0 L374 133 L204 133 L149 0 L-37 0 L-13 114 L261 700 L565 700 L589 114 L565 0 Z M378 545 L375 545 L271 294 L376 294 L378 545 Z M472 740 L335 740 L338 755 L414 907 L591 907 L573 825 L472 740 Z " />
<glyph glyph-name="Acircumflex" unicode="&#xc2;" horiz-adv-x="644" d="M565 0 L373 0 L374 133 L204 133 L149 0 L-37 0 L-13 114 L261 700 L565 700 L589 114 L565 0 Z M378 545 L375 545 L271 294 L376 294 L378 545 Z M619 740 L482 740 L445 826 L371 740 L226 740 L229 755 L332 907 L584 907 L622 755 L619 740 Z " />
<glyph glyph-name="Atilde" unicode="&#xc3;" horiz-adv-x="644" d="M565 0 L373 0 L374 133 L204 133 L149 0 L-37 0 L-13 114 L261 700 L565 700 L589 114 L565 0 Z M378 545 L375 545 L271 294 L376 294 L378 545 Z M466 876 Q477 867 484 863 Q491 859 501 859 Q512 859 520.5 864.5 Q529 870 533 880 L538 901 L650 901 L634 829 Q620 792 582 765 Q544 738 495 738 Q463 738 446 746 Q429 754 411 768 Q401 777 394 781 Q387 785 377 785 Q366 785 358 779 Q350 773 346 764 L342 743 L230 743 L246 815 Q257 852 295.5 879 Q334 906 383 906 Q414 906 431 898 Q448 890 466 876 Z " />
<glyph glyph-name="Adieresis" unicode="&#xc4;" horiz-adv-x="644" d="M565 0 L373 0 L374 133 L204 133 L149 0 L-37 0 L-13 114 L261 700 L565 700 L589 114 L565 0 Z M378 545 L375 545 L271 294 L376 294 L378 545 Z M425 866 L406 771 Q390 756 367.5 745 Q345 734 307 734 Q249 734 225 771 L244 866 Q262 881 284 892 Q306 903 343 903 Q381 903 398.5 892 Q416 881 425 866 Z M653 866 L634 771 Q618 756 595.5 745 Q573 734 535 734 Q477 734 453 771 L472 866 Q490 881 512 892 Q534 903 571 903 Q609 903 626.5 892 Q644 881 653 866 Z " />
<glyph glyph-name="Amacron" unicode="&#x100;" horiz-adv-x="644" d="M565 0 L373 0 L374 133 L204 133 L149 0 L-37 0 L-13 114 L261 700 L565 700 L589 114 L565 0 Z M378 545 L375 545 L271 294 L376 294 L378 545 Z M238 749 L265 876 L637 876 L610 749 L238 749 Z " />
<glyph glyph-name="Abreve" unicode="&#x102;" horiz-adv-x="644" d="M565 0 L373 0 L374 133 L204 133 L149 0 L-37 0 L-13 114 L261 700 L565 700 L589 114 L565 0 Z M378 545 L375 545 L271 294 L376 294 L378 545 Z M638 837 Q609 788 556.5 762 Q504 736 433 736 Q359 736 310 763 Q261 790 245 837 L259 900 L401 900 L393 862 Q396 851 407.5 842.5 Q419 834 441 834 Q464 834 479.5 842.5 Q495 851 502 862 L510 900 L652 900 L638 837 Z " />
<glyph glyph-name="Aring" unicode="&#xc5;" horiz-adv-x="644" d="M589 114 L565 0 L373 0 L374 133 L204 133 L149 0 L-37 0 L-13 114 L261 700 L322 700 Q289 719 279 748 L299 843 Q321 875 360.5 894 Q400 913 447 913 Q496 913 532.5 894 Q569 875 581 843 L562 748 Q540 718 505 700 L565 700 L589 114 Z M369 772 Q372 764 385 756.5 Q398 749 420 749 Q442 749 458.5 756.5 Q475 764 481 772 L491 819 Q488 827 475 834.5 Q462 842 440 842 Q419 842 403 835 Q387 828 379 819 L369 772 Z M376 294 L378 545 L375 545 L271 294 L376 294 Z " />
<glyph glyph-name="Aogonek" unicode="&#x104;" horiz-adv-x="644" d="M468 -94 L463 -113 Q470 -127 499 -127 Q517 -127 539 -122 L518 -221 Q504 -227 486.5 -230.5 Q469 -234 438 -234 Q393 -234 357 -219 Q321 -204 311 -176 L330 -91 Q340 -73 368 -47.5 Q396 -22 431 0 L373 0 L374 133 L204 133 L149 0 L-37 0 L-13 114 L261 700 L565 700 L589 114 L565 0 Q492 -57 468 -94 Z M376 294 L378 545 L375 545 L271 294 L376 294 Z " />
<glyph glyph-name="AE" unicode="&#xc6;" horiz-adv-x="870" d="M780 0 L323 0 L352 137 L221 137 L148 0 L-37 0 L-13 114 L324 700 L924 700 L889 539 L652 539 L630 437 L853 437 L818 275 L596 275 L572 161 L815 161 L780 0 Z M438 540 L435 540 L307 298 L387 298 L438 540 Z " />
<glyph glyph-name="Cacute" unicode="&#x106;" horiz-adv-x="608" d="M646 579 L627 488 L444 488 Q442 517 423 533.5 Q404 550 372 550 Q327 550 303 518 L231 182 Q236 167 252 158.5 Q268 150 292 150 Q352 150 384 212 L569 212 L549 121 Q514 66 445.5 25 Q377 -16 266 -16 Q188 -16 132.5 8 Q77 32 46.5 67 Q16 102 8 138 L99 562 Q134 625 208.5 670.5 Q283 716 396 716 Q472 716 525 693.5 Q578 671 607 640 Q636 609 646 579 Z M466 740 L329 740 L332 755 L408 907 L585 907 L567 825 L466 740 Z " />
<glyph glyph-name="Ccircumflex" unicode="&#x108;" horiz-adv-x="608" d="M646 579 L627 488 L444 488 Q442 517 423 533.5 Q404 550 372 550 Q327 550 303 518 L231 182 Q236 167 252 158.5 Q268 150 292 150 Q352 150 384 212 L569 212 L549 121 Q514 66 445.5 25 Q377 -16 266 -16 Q188 -16 132.5 8 Q77 32 46.5 67 Q16 102 8 138 L99 562 Q134 625 208.5 670.5 Q283 716 396 716 Q472 716 525 693.5 Q578 671 607 640 Q636 609 646 579 Z M614 740 L477 740 L440 826 L366 740 L221 740 L224 755 L327 907 L579 907 L617 755 L614 740 Z " />
<glyph glyph-name="Ccaron" unicode="&#x10c;" horiz-adv-x="608" d="M646 579 L627 488 L444 488 Q442 517 423 533.5 Q404 550 372 550 Q327 550 303 518 L231 182 Q236 167 252 158.5 Q268 150 292 150 Q352 150 384 212 L569 212 L549 121 Q514 66 445.5 25 Q377 -16 266 -16 Q188 -16 132.5 8 Q77 32 46.5 67 Q16 102 8 138 L99 562 Q134 625 208.5 670.5 Q283 716 396 716 Q472 716 525 693.5 Q578 671 607 640 Q636 609 646 579 Z M544 740 L291 740 L252 892 L256 907 L390 907 L428 820 L501 907 L650 907 L646 892 L544 740 Z " />
<glyph glyph-name="Cdotaccent" unicode="&#x10a;" horiz-adv-x="608" d="M646 579 L627 488 L444 488 Q442 517 423 533.5 Q404 550 372 550 Q327 550 303 518 L231 182 Q236 167 252 158.5 Q268 150 292 150 Q352 150 384 212 L569 212 L549 121 Q514 66 445.5 25 Q377 -16 266 -16 Q188 -16 132.5 8 Q77 32 46.5 67 Q16 102 8 138 L99 562 Q134 625 208.5 670.5 Q283 716 396 716 Q472 716 525 693.5 Q578 671 607 640 Q636 609 646 579 Z M545 862 L530 792 Q516 770 487 754 Q458 738 416 738 Q376 738 353.5 754 Q331 770 326 792 L341 862 Q356 884 385 900 Q414 916 454 916 Q495 916 518 900 Q541 884 545 862 Z " />
<glyph glyph-name="Ccedilla" unicode="&#xc7;" horiz-adv-x="608" d="M303 518 L231 182 Q236 167 252 158.5 Q268 150 292 150 Q352 150 384 212 L569 212 L549 121 Q515 68 451.5 28.5 Q388 -11 286 -15 L275 -36 L282 -36 Q321 -36 340.5 -51 Q360 -66 363 -88 L345 -168 Q305 -235 193 -235 Q161 -235 133.5 -230.5 Q106 -226 88 -219 L130 -143 Q174 -149 196 -149 Q215 -149 229.5 -144.5 Q244 -140 249 -133 L253 -115 Q249 -103 209 -103 L149 -103 L199 -11 Q116 3 67.5 46.5 Q19 90 8 138 L99 562 Q134 625 208.5 670.5 Q283 716 396 716 Q472 716 525 693.5 Q578 671 607 640 Q636 609 646 579 L627 488 L444 488 Q442 517 423 533.5 Q404 550 372 550 Q327 550 303 518 Z " />
<glyph glyph-name="Dcaron" unicode="&#x10e;" horiz-adv-x="632" d="M658 562 L567 138 Q531 75 467 37.5 Q403 0 307 0 L-14 0 L135 700 L434 700 Q534 700 588.5 659.5 Q643 619 658 562 Z M316 541 L234 159 L292 159 Q317 159 335.5 167.5 Q354 176 364 190 L433 511 Q429 525 413.5 533 Q398 541 371 541 L316 541 Z M543 740 L290 740 L251 892 L255 907 L389 907 L427 820 L500 907 L649 907 L645 892 L543 740 Z " />
<glyph glyph-name="Dcroat" unicode="&#x110;" horiz-adv-x="644" d="M669 562 L578 138 Q543 75 479 37.5 Q415 0 319 0 L-2 0 L57 277 L25 277 L58 433 L90 433 L147 700 L445 700 Q545 700 600 659.5 Q655 619 669 562 Z M444 511 Q435 541 382 541 L327 541 L304 433 L373 433 L339 277 L270 277 L245 159 L303 159 Q329 159 347.5 167.5 Q366 176 376 190 L444 511 Z " />
<glyph glyph-name="Egrave" unicode="&#xc8;" horiz-adv-x="537" d="M315 539 L293 437 L520 437 L485 275 L258 275 L235 161 L482 161 L447 0 L-14 0 L135 700 L591 700 L556 539 L315 539 Z M432 740 L296 740 L234 825 L252 907 L422 907 L435 755 L432 740 Z " />
<glyph glyph-name="Eacute" unicode="&#xc9;" horiz-adv-x="537" d="M315 539 L293 437 L520 437 L485 275 L258 275 L235 161 L482 161 L447 0 L-14 0 L135 700 L591 700 L556 539 L315 539 Z M422 740 L285 740 L288 755 L364 907 L541 907 L523 825 L422 740 Z " />
<glyph glyph-name="Ecircumflex" unicode="&#xca;" horiz-adv-x="537" d="M315 539 L293 437 L520 437 L485 275 L258 275 L235 161 L482 161 L447 0 L-14 0 L135 700 L591 700 L556 539 L315 539 Z M569 740 L432 740 L395 826 L321 740 L176 740 L179 755 L282 907 L534 907 L572 755 L569 740 Z " />
<glyph glyph-name="Ecaron" unicode="&#x11a;" horiz-adv-x="537" d="M315 539 L293 437 L520 437 L485 275 L258 275 L235 161 L482 161 L447 0 L-14 0 L135 700 L591 700 L556 539 L315 539 Z M499 740 L246 740 L207 892 L211 907 L345 907 L383 820 L456 907 L605 907 L601 892 L499 740 Z " />
<glyph glyph-name="Edieresis" unicode="&#xcb;" horiz-adv-x="537" d="M315 539 L293 437 L520 437 L485 275 L258 275 L235 161 L482 161 L447 0 L-14 0 L135 700 L591 700 L556 539 L315 539 Z M375 866 L356 771 Q340 756 317.5 745 Q295 734 257 734 Q199 734 175 771 L194 866 Q212 881 234 892 Q256 903 293 903 Q331 903 348.5 892 Q366 881 375 866 Z M603 866 L584 771 Q568 756 545.5 745 Q523 734 485 734 Q427 734 403 771 L422 866 Q440 881 462 892 Q484 903 521 903 Q559 903 576.5 892 Q594 881 603 866 Z " />
<glyph glyph-name="Emacron" unicode="&#x112;" horiz-adv-x="537" d="M315 539 L293 437 L520 437 L485 275 L258 275 L235 161 L482 161 L447 0 L-14 0 L135 700 L591 700 L556 539 L315 539 Z M188 749 L215 876 L587 876 L560 749 L188 749 Z " />
<glyph glyph-name="Ebreve" unicode="&#x114;" horiz-adv-x="537" d="M315 539 L293 437 L520 437 L485 275 L258 275 L235 161 L482 161 L447 0 L-14 0 L135 700 L591 700 L556 539 L315 539 Z M588 837 Q559 788 506.5 762 Q454 736 383 736 Q309 736 260 763 Q211 790 195 837 L209 900 L351 900 L343 862 Q346 851 357.5 842.5 Q369 834 391 834 Q414 834 429.5 842.5 Q445 851 452 862 L460 900 L602 900 L588 837 Z " />
<glyph glyph-name="Edotaccent" unicode="&#x116;" horiz-adv-x="537" d="M315 539 L293 437 L520 437 L485 275 L258 275 L235 161 L482 161 L447 0 L-14 0 L135 700 L591 700 L556 539 L315 539 Z M500 862 L485 792 Q471 770 442 754 Q413 738 371 738 Q331 738 308.5 754 Q286 770 281 792 L296 862 Q311 884 340 900 Q369 916 409 916 Q450 916 473 900 Q496 884 500 862 Z " />
<glyph glyph-name="Eogonek" unicode="&#x118;" horiz-adv-x="537" d="M315 539 L293 437 L520 437 L485 275 L258 275 L235 161 L482 161 L447 0 Q373 -58 349 -94 L344 -113 Q351 -127 381 -127 Q397 -127 421 -122 L399 -221 Q385 -227 367.5 -230.5 Q350 -234 319 -234 Q274 -234 238 -218.5 Q202 -203 193 -175 L211 -91 Q221 -73 249.5 -47.5 Q278 -22 314 0 L-14 0 L135 700 L591 700 L556 539 L315 539 Z " />
<glyph glyph-name="Gcircumflex" unicode="&#x11c;" horiz-adv-x="620" d="M303 518 L231 182 Q234 168 250 159 Q266 150 291 150 Q315 150 333.5 157.5 Q352 165 362 176 L379 255 L311 255 L345 412 L611 412 L523 0 L362 0 L372 46 Q310 -16 220 -16 Q127 -16 74.5 31 Q22 78 8 138 L99 562 Q131 623 207.5 669.5 Q284 716 397 716 Q474 716 527 693.5 Q580 671 608 640 Q636 609 646 579 L627 488 L443 488 Q441 517 422.5 533.5 Q404 550 372 550 Q349 550 331.5 541 Q314 532 303 518 Z M607 740 L470 740 L433 826 L359 740 L214 740 L217 755 L320 907 L572 907 L610 755 L607 740 Z " />
<glyph glyph-name="Gbreve" unicode="&#x11e;" horiz-adv-x="620" d="M303 518 L231 182 Q234 168 250 159 Q266 150 291 150 Q315 150 333.5 157.5 Q352 165 362 176 L379 255 L311 255 L345 412 L611 412 L523 0 L362 0 L372 46 Q310 -16 220 -16 Q127 -16 74.5 31 Q22 78 8 138 L99 562 Q131 623 207.5 669.5 Q284 716 397 716 Q474 716 527 693.5 Q580 671 608 640 Q636 609 646 579 L627 488 L443 488 Q441 517 422.5 533.5 Q404 550 372 550 Q349 550 331.5 541 Q314 532 303 518 Z M626 837 Q597 788 544.5 762 Q492 736 421 736 Q347 736 298 763 Q249 790 233 837 L247 900 L389 900 L381 862 Q384 851 395.5 842.5 Q407 834 429 834 Q452 834 467.5 842.5 Q483 851 490 862 L498 900 L640 900 L626 837 Z " />
<glyph glyph-name="Gdotaccent" unicode="&#x120;" horiz-adv-x="620" d="M303 518 L231 182 Q234 168 250 159 Q266 150 291 150 Q315 150 333.5 157.5 Q352 165 362 176 L379 255 L311 255 L345 412 L611 412 L523 0 L362 0 L372 46 Q310 -16 220 -16 Q127 -16 74.5 31 Q22 78 8 138 L99 562 Q131 623 207.5 669.5 Q284 716 397 716 Q474 716 527 693.5 Q580 671 608 640 Q636 609 646 579 L627 488 L443 488 Q441 517 422.5 533.5 Q404 550 372 550 Q349 550 331.5 541 Q314 532 303 518 Z M538 862 L523 792 Q509 770 480 754 Q451 738 409 738 Q369 738 346.5 754 Q324 770 319 792 L334 862 Q349 884 378 900 Q407 916 447 916 Q488 916 511 900 Q534 884 538 862 Z " />
<glyph glyph-name="Gcommaaccent" unicode="&#x122;" horiz-adv-x="620" d="M303 518 L231 182 Q234 168 250 159 Q266 150 291 150 Q315 150 333.5 157.5 Q352 165 362 176 L379 255 L311 255 L345 412 L611 412 L523 0 L362 0 L372 46 Q310 -16 220 -16 Q127 -16 74.5 31 Q22 78 8 138 L99 562 Q131 623 207.5 669.5 Q284 716 397 716 Q474 716 527 693.5 Q580 671 608 640 Q636 609 646 579 L627 488 L443 488 Q441 517 422.5 533.5 Q404 550 372 550 Q349 550 331.5 541 Q314 532 303 518 Z M119 -199 L165 -199 Q185 -199 198 -195.5 Q211 -192 218 -181 L222 -166 Q182 -166 156 -159.5 Q130 -153 124 -142 L139 -69 Q150 -58 176 -49.5 Q202 -41 242 -41 Q282 -41 306 -49.5 Q330 -58 338 -69 L314 -185 Q298 -217 263.5 -237 Q229 -257 174 -257 L107 -257 L119 -199 Z " />
<glyph glyph-name="Hcircumflex" unicode="&#x124;" horiz-adv-x="664" d="M348 0 L407 280 L259 280 L200 0 L-14 0 L135 700 L349 700 L294 441 L441 441 L497 700 L711 700 L562 0 L348 0 Z M629 740 L492 740 L455 826 L381 740 L236 740 L239 755 L342 907 L594 907 L632 755 L629 740 Z " />
<glyph glyph-name="Hbar" unicode="&#x126;" horiz-adv-x="664" d="M682 520 L571 0 L357 0 L417 280 L269 280 L210 0 L-4 0 L107 520 L83 520 L109 644 L133 644 L145 700 L359 700 L347 644 L495 644 L507 700 L721 700 L709 644 L731 644 L705 520 L682 520 Z M321 520 L304 441 L451 441 L468 520 L321 520 Z " />
<glyph glyph-name="Igrave" unicode="&#xcc;" horiz-adv-x="302" d="M200 0 L-14 0 L135 700 L349 700 L200 0 Z M310 740 L174 740 L112 825 L130 907 L300 907 L313 755 L310 740 Z " />
<glyph glyph-name="Iacute" unicode="&#xcd;" horiz-adv-x="302" d="M200 0 L-14 0 L135 700 L349 700 L200 0 Z M300 740 L163 740 L166 755 L242 907 L419 907 L401 825 L300 740 Z " />
<glyph glyph-name="Icircumflex" unicode="&#xce;" horiz-adv-x="302" d="M200 0 L-14 0 L135 700 L349 700 L200 0 Z M448 740 L311 740 L274 826 L200 740 L55 740 L58 755 L161 907 L413 907 L451 755 L448 740 Z " />
<glyph glyph-name="Itilde" unicode="&#x128;" horiz-adv-x="302" d="M200 0 L-14 0 L135 700 L349 700 L200 0 Z M295 876 Q306 867 313 863 Q320 859 330 859 Q341 859 349.5 864.5 Q358 870 362 880 L367 901 L479 901 L463 829 Q449 792 411 765 Q373 738 324 738 Q292 738 275 746 Q258 754 240 768 Q230 777 223 781 Q216 785 206 785 Q195 785 187 779 Q179 773 175 764 L171 743 L59 743 L75 815 Q86 852 124.5 879 Q163 906 212 906 Q243 906 260 898 Q277 890 295 876 Z " />
<glyph glyph-name="Idieresis" unicode="&#xcf;" horiz-adv-x="302" d="M200 0 L-14 0 L135 700 L349 700 L200 0 Z M254 866 L235 771 Q219 756 196.5 745 Q174 734 136 734 Q78 734 54 771 L73 866 Q91 881 113 892 Q135 903 172 903 Q210 903 227.5 892 Q245 881 254 866 Z M482 866 L463 771 Q447 756 424.5 745 Q402 734 364 734 Q306 734 282 771 L301 866 Q319 881 341 892 Q363 903 400 903 Q438 903 455.5 892 Q473 881 482 866 Z " />
<glyph glyph-name="Imacron" unicode="&#x12a;" horiz-adv-x="302" d="M200 0 L-14 0 L135 700 L349 700 L200 0 Z M67 749 L94 876 L466 876 L439 749 L67 749 Z " />
<glyph glyph-name="Ibreve" unicode="&#x12c;" horiz-adv-x="302" d="M200 0 L-14 0 L135 700 L349 700 L200 0 Z M467 837 Q438 788 385.5 762 Q333 736 262 736 Q188 736 139 763 Q90 790 74 837 L88 900 L230 900 L222 862 Q225 851 236.5 842.5 Q248 834 270 834 Q293 834 308.5 842.5 Q324 851 331 862 L339 900 L481 900 L467 837 Z " />
<glyph glyph-name="Iogonek" unicode="&#x12e;" horiz-adv-x="302" d="M103 -94 L98 -113 Q105 -127 134 -127 Q151 -127 174 -122 L153 -221 Q123 -234 73 -234 Q27 -234 -9 -219 Q-45 -204 -54 -176 L-35 -91 Q-25 -74 3.5 -48 Q32 -22 67 0 L-14 0 L135 700 L349 700 L200 0 Q127 -57 103 -94 Z " />
<glyph glyph-name="IJ" unicode="&#x132;" horiz-adv-x="689" d="M200 0 L-14 0 L135 700 L349 700 L200 0 Z M618 138 Q580 66 511 31.5 Q442 -3 334 -3 Q287 -3 263 0 L298 161 L335 161 Q367 161 386 169 Q405 177 417 192 L524 700 L738 700 L618 138 Z " />
<glyph glyph-name="Jcircumflex" unicode="&#x134;" horiz-adv-x="387" d="M316 138 Q278 66 209 31.5 Q140 -3 32 -3 Q-15 -3 -39 0 L-4 161 L33 161 Q65 161 84 169 Q103 177 115 192 L222 700 L436 700 L316 138 Z M533 740 L396 740 L359 826 L285 740 L140 740 L143 755 L246 907 L498 907 L536 755 L533 740 Z " />
<glyph glyph-name="Kcommaaccent" unicode="&#x136;" horiz-adv-x="639" d="M555 0 L388 0 L299 255 L243 203 L200 0 L-14 0 L135 700 L349 700 L305 493 L518 700 L679 700 L654 586 L465 410 L579 114 L555 0 Z M155 -199 L201 -199 Q221 -199 234 -195.5 Q247 -192 254 -181 L258 -166 Q218 -166 192 -159.5 Q166 -153 160 -142 L175 -69 Q186 -58 212 -49.5 Q238 -41 278 -41 Q318 -41 342 -49.5 Q366 -58 374 -69 L350 -185 Q334 -217 299.5 -237 Q265 -257 210 -257 L143 -257 L155 -199 Z " />
<glyph glyph-name="Lacute" unicode="&#x139;" horiz-adv-x="462" d="M418 161 L384 0 L-14 0 L135 700 L349 700 L235 161 L418 161 Z M316 740 L179 740 L182 755 L258 907 L435 907 L417 825 L316 740 Z " />
<glyph glyph-name="Lcaron" unicode="&#x13d;" horiz-adv-x="488" d="M418 161 L384 0 L-14 0 L135 700 L349 700 L235 161 L418 161 Z M453 464 L340 464 L343 479 L412 700 L560 700 L539 600 L453 464 Z " />
<glyph glyph-name="Lcommaaccent" unicode="&#x13b;" horiz-adv-x="462" d="M418 161 L384 0 L-14 0 L135 700 L349 700 L235 161 L418 161 Z M38 -199 L84 -199 Q104 -199 117 -195.5 Q130 -192 137 -181 L141 -166 Q101 -166 75 -159.5 Q49 -153 43 -142 L58 -69 Q69 -58 95 -49.5 Q121 -41 161 -41 Q201 -41 225 -49.5 Q249 -58 257 -69 L233 -185 Q217 -217 182.5 -237 Q148 -257 93 -257 L26 -257 L38 -199 Z " />
<glyph glyph-name="Lslash" unicode="&#x141;" horiz-adv-x="499" d="M421 0 L23 0 L57 157 L-12 125 L23 282 L90 314 L173 700 L387 700 L328 424 L436 474 L403 318 L295 268 L272 161 L455 161 L421 0 Z " />
<glyph glyph-name="Ldot" unicode="&#x13f;" horiz-adv-x="505" d="M418 161 L384 0 L-14 0 L135 700 L349 700 L235 161 L418 161 Z M544 438 L524 344 Q510 321 483.5 305.5 Q457 290 418 290 Q377 290 352 306.5 Q327 323 321 344 L341 438 Q355 460 381.5 476 Q408 492 445 492 Q488 492 513 476 Q538 460 544 438 Z " />
<glyph glyph-name="Nacute" unicode="&#x143;" horiz-adv-x="674" d="M349 0 L265 363 L262 363 L184 0 L-14 0 L135 700 L358 700 L443 336 L446 336 L523 700 L721 700 L572 0 L349 0 Z M497 740 L360 740 L363 755 L439 907 L616 907 L598 825 L497 740 Z " />
<glyph glyph-name="Ncaron" unicode="&#x147;" horiz-adv-x="674" d="M349 0 L265 363 L262 363 L184 0 L-14 0 L135 700 L358 700 L443 336 L446 336 L523 700 L721 700 L572 0 L349 0 Z M575 740 L322 740 L283 892 L287 907 L421 907 L459 820 L532 907 L681 907 L677 892 L575 740 Z " />
<glyph glyph-name="Ntilde" unicode="&#xd1;" horiz-adv-x="674" d="M349 0 L265 363 L262 363 L184 0 L-14 0 L135 700 L358 700 L443 336 L446 336 L523 700 L721 700 L572 0 L349 0 Z M492 876 Q503 867 510 863 Q517 859 527 859 Q538 859 546.5 864.5 Q555 870 559 880 L564 901 L676 901 L660 829 Q646 792 608 765 Q570 738 521 738 Q489 738 472 746 Q455 754 437 768 Q427 777 420 781 Q413 785 403 785 Q392 785 384 779 Q376 773 372 764 L368 743 L256 743 L272 815 Q283 852 321.5 879 Q360 906 409 906 Q440 906 457 898 Q474 890 492 876 Z " />
<glyph glyph-name="Ncommaaccent" unicode="&#x145;" horiz-adv-x="674" d="M349 0 L265 363 L262 363 L184 0 L-14 0 L135 700 L358 700 L443 336 L446 336 L523 700 L721 700 L572 0 L349 0 Z M144 -199 L190 -199 Q210 -199 223 -195.5 Q236 -192 243 -181 L247 -166 Q207 -166 181 -159.5 Q155 -153 149 -142 L164 -69 Q175 -58 201 -49.5 Q227 -41 267 -41 Q307 -41 331 -49.5 Q355 -58 363 -69 L339 -185 Q323 -217 288.5 -237 Q254 -257 199 -257 L132 -257 L144 -199 Z " />
<glyph glyph-name="Ograve" unicode="&#xd2;" horiz-adv-x="626" d="M652 562 L561 138 Q522 73 449.5 28.5 Q377 -16 264 -16 Q187 -16 132 8 Q77 32 46.5 67 Q16 102 8 138 L99 562 Q136 627 209 671.5 Q282 716 395 716 Q472 716 527.5 692 Q583 668 613.5 633 Q644 598 652 562 Z M303 518 L231 182 Q235 168 250.5 159 Q266 150 289 150 Q333 150 356 182 L428 518 Q424 532 408.5 541 Q393 550 370 550 Q324 550 303 518 Z M472 740 L336 740 L274 825 L292 907 L462 907 L475 755 L472 740 Z " />
<glyph glyph-name="Oacute" unicode="&#xd3;" horiz-adv-x="626" d="M652 562 L561 138 Q522 73 449.5 28.5 Q377 -16 264 -16 Q187 -16 132 8 Q77 32 46.5 67 Q16 102 8 138 L99 562 Q136 627 209 671.5 Q282 716 395 716 Q472 716 527.5 692 Q583 668 613.5 633 Q644 598 652 562 Z M303 518 L231 182 Q235 168 250.5 159 Q266 150 289 150 Q333 150 356 182 L428 518 Q424 532 408.5 541 Q393 550 370 550 Q324 550 303 518 Z M462 740 L325 740 L328 755 L404 907 L581 907 L563 825 L462 740 Z " />
<glyph glyph-name="Ocircumflex" unicode="&#xd4;" horiz-adv-x="626" d="M652 562 L561 138 Q522 73 449.5 28.5 Q377 -16 264 -16 Q187 -16 132 8 Q77 32 46.5 67 Q16 102 8 138 L99 562 Q136 627 209 671.5 Q282 716 395 716 Q472 716 527.5 692 Q583 668 613.5 633 Q644 598 652 562 Z M303 518 L231 182 Q235 168 250.5 159 Q266 150 289 150 Q333 150 356 182 L428 518 Q424 532 408.5 541 Q393 550 370 550 Q324 550 303 518 Z M610 740 L473 740 L436 826 L362 740 L217 740 L220 755 L323 907 L575 907 L613 755 L610 740 Z " />
<glyph glyph-name="Otilde" unicode="&#xd5;" horiz-adv-x="626" d="M652 562 L561 138 Q522 73 449.5 28.5 Q377 -16 264 -16 Q187 -16 132 8 Q77 32 46.5 67 Q16 102 8 138 L99 562 Q136 627 209 671.5 Q282 716 395 716 Q472 716 527.5 692 Q583 668 613.5 633 Q644 598 652 562 Z M303 518 L231 182 Q235 168 250.5 159 Q266 150 289 150 Q333 150 356 182 L428 518 Q424 532 408.5 541 Q393 550 370 550 Q324 550 303 518 Z M457 876 Q468 867 475 863 Q482 859 492 859 Q503 859 511.5 864.5 Q520 870 524 880 L529 901 L641 901 L625 829 Q611 792 573 765 Q535 738 486 738 Q454 738 437 746 Q420 754 402 768 Q392 777 385 781 Q378 785 368 785 Q357 785 349 779 Q341 773 337 764 L333 743 L221 743 L237 815 Q248 852 286.5 879 Q325 906 374 906 Q405 906 422 898 Q439 890 457 876 Z " />
<glyph glyph-name="Odieresis" unicode="&#xd6;" horiz-adv-x="626" d="M652 562 L561 138 Q522 73 449.5 28.5 Q377 -16 264 -16 Q187 -16 132 8 Q77 32 46.5 67 Q16 102 8 138 L99 562 Q136 627 209 671.5 Q282 716 395 716 Q472 716 527.5 692 Q583 668 613.5 633 Q644 598 652 562 Z M303 518 L231 182 Q235 168 250.5 159 Q266 150 289 150 Q333 150 356 182 L428 518 Q424 532 408.5 541 Q393 550 370 550 Q324 550 303 518 Z M416 866 L397 771 Q381 756 358.5 745 Q336 734 298 734 Q240 734 216 771 L235 866 Q253 881 275 892 Q297 903 334 903 Q372 903 389.5 892 Q407 881 416 866 Z M644 866 L625 771 Q609 756 586.5 745 Q564 734 526 734 Q468 734 444 771 L463 866 Q481 881 503 892 Q525 903 562 903 Q600 903 617.5 892 Q635 881 644 866 Z " />
<glyph glyph-name="Omacron" unicode="&#x14c;" horiz-adv-x="626" d="M652 562 L561 138 Q522 73 449.5 28.5 Q377 -16 264 -16 Q187 -16 132 8 Q77 32 46.5 67 Q16 102 8 138 L99 562 Q136 627 209 671.5 Q282 716 395 716 Q472 716 527.5 692 Q583 668 613.5 633 Q644 598 652 562 Z M303 518 L231 182 Q235 168 250.5 159 Q266 150 289 150 Q333 150 356 182 L428 518 Q424 532 408.5 541 Q393 550 370 550 Q324 550 303 518 Z M229 749 L256 876 L628 876 L601 749 L229 749 Z " />
<glyph glyph-name="Obreve" unicode="&#x14e;" horiz-adv-x="626" d="M652 562 L561 138 Q522 73 449.5 28.5 Q377 -16 264 -16 Q187 -16 132 8 Q77 32 46.5 67 Q16 102 8 138 L99 562 Q136 627 209 671.5 Q282 716 395 716 Q472 716 527.5 692 Q583 668 613.5 633 Q644 598 652 562 Z M303 518 L231 182 Q235 168 250.5 159 Q266 150 289 150 Q333 150 356 182 L428 518 Q424 532 408.5 541 Q393 550 370 550 Q324 550 303 518 Z M629 837 Q600 788 547.5 762 Q495 736 424 736 Q350 736 301 763 Q252 790 236 837 L250 900 L392 900 L384 862 Q387 851 398.5 842.5 Q410 834 432 834 Q455 834 470.5 842.5 Q486 851 493 862 L501 900 L643 900 L629 837 Z " />
<glyph glyph-name="Ohungarumlaut" unicode="&#x150;" horiz-adv-x="626" d="M652 562 L561 138 Q522 73 449.5 28.5 Q377 -16 264 -16 Q187 -16 132 8 Q77 32 46.5 67 Q16 102 8 138 L99 562 Q136 627 209 671.5 Q282 716 395 716 Q472 716 527.5 692 Q583 668 613.5 633 Q644 598 652 562 Z M303 518 L231 182 Q235 168 250.5 159 Q266 150 289 150 Q333 150 356 182 L428 518 Q424 532 408.5 541 Q393 550 370 550 Q324 550 303 518 Z M372 740 L244 740 L247 755 L310 907 L460 907 L445 841 L372 740 Z M581 740 L455 740 L458 755 L520 907 L670 907 L655 841 L581 740 Z " />
<glyph glyph-name="Oslash" unicode="&#xd8;" horiz-adv-x="626" d="M668 642 L634 605 Q648 582 652 562 L561 138 Q522 73 449.5 28.5 Q377 -16 264 -16 Q159 -16 89 30 L61 0 L-22 0 L-10 58 L25 95 Q14 114 8 138 L99 562 Q136 627 209 671.5 Q282 716 395 716 Q500 716 570 670 L598 700 L681 700 L668 642 Z M267 351 L428 520 Q423 533 408 541.5 Q393 550 370 550 Q324 550 303 518 L267 351 Z M392 350 L231 180 Q236 167 251.5 158.5 Q267 150 289 150 Q333 150 356 182 L392 350 Z " />
<glyph glyph-name="OE" unicode="&#x152;" horiz-adv-x="869" d="M646 539 L625 437 L852 437 L817 275 L590 275 L566 161 L813 161 L779 0 L356 0 Q305 -16 252 -16 Q180 -16 127.5 8 Q75 32 45.5 67 Q16 102 8 138 L99 562 Q136 627 209 671.5 Q282 716 395 716 Q456 716 502 700 L923 700 L888 539 L646 539 Z M289 150 Q308 150 325 156 Q342 162 354 171 L430 529 Q422 538 405 544 Q388 550 370 550 Q324 550 303 518 L231 182 Q235 168 250.5 159 Q266 150 289 150 Z " />
<glyph glyph-name="Racute" unicode="&#x154;" horiz-adv-x="621" d="M649 580 L607 376 Q562 311 498 282 L560 114 L536 0 L369 0 L291 256 L254 256 L200 0 L-14 0 L135 700 L439 700 Q522 700 575.5 669 Q629 638 649 580 Z M285 402 L345 402 Q396 402 417 431 L433 512 Q429 526 414.5 533.5 Q400 541 377 541 L316 541 L285 402 Z M460 740 L323 740 L326 755 L402 907 L579 907 L561 825 L460 740 Z " />
<glyph glyph-name="Rcaron" unicode="&#x158;" horiz-adv-x="621" d="M649 580 L607 376 Q562 311 498 282 L560 114 L536 0 L369 0 L291 256 L254 256 L200 0 L-14 0 L135 700 L439 700 Q522 700 575.5 669 Q629 638 649 580 Z M285 402 L345 402 Q396 402 417 431 L433 512 Q429 526 414.5 533.5 Q400 541 377 541 L316 541 L285 402 Z M538 740 L285 740 L246 892 L250 907 L384 907 L422 820 L495 907 L644 907 L640 892 L538 740 Z " />
<glyph glyph-name="Rcommaaccent" unicode="&#x156;" horiz-adv-x="621" d="M649 580 L607 376 Q562 311 498 282 L560 114 L536 0 L369 0 L291 256 L254 256 L200 0 L-14 0 L135 700 L439 700 Q522 700 575.5 669 Q629 638 649 580 Z M285 402 L345 402 Q396 402 417 431 L433 512 Q429 526 414.5 533.5 Q400 541 377 541 L316 541 L285 402 Z M118 -199 L164 -199 Q184 -199 197 -195.5 Q210 -192 217 -181 L221 -166 Q181 -166 155 -159.5 Q129 -153 123 -142 L138 -69 Q149 -58 175 -49.5 Q201 -41 241 -41 Q281 -41 305 -49.5 Q329 -58 337 -69 L313 -185 Q297 -217 262.5 -237 Q228 -257 173 -257 L106 -257 L118 -199 Z " />
<glyph glyph-name="Sacute" unicode="&#x15a;" horiz-adv-x="593" d="M624 582 L605 491 L421 491 Q419 518 403.5 534 Q388 550 356 550 Q335 550 319 542 Q303 534 293 522 L282 471 Q284 461 294.5 454.5 Q305 448 326 443 L367 431 Q463 407 505 376.5 Q547 346 571 304 L531 120 Q439 -16 246 -16 Q170 -16 116 5.5 Q62 27 33 58.5 Q4 90 -5 120 L15 211 L199 211 Q200 181 219.5 165.5 Q239 150 270 150 Q314 150 338 181 L351 239 Q348 249 337 256 Q326 263 303 269 L261 280 Q167 304 125 333 Q83 362 63 405 L100 582 Q135 636 204 676 Q273 716 381 716 Q454 716 506.5 694 Q559 672 587.5 641 Q616 610 624 582 Z M457 740 L320 740 L323 755 L399 907 L576 907 L558 825 L457 740 Z " />
<glyph glyph-name="Scircumflex" unicode="&#x15c;" horiz-adv-x="593" d="M624 582 L605 491 L421 491 Q419 518 403.5 534 Q388 550 356 550 Q335 550 319 542 Q303 534 293 522 L282 471 Q284 461 294.5 454.5 Q305 448 326 443 L367 431 Q463 407 505 376.5 Q547 346 571 304 L531 120 Q439 -16 246 -16 Q170 -16 116 5.5 Q62 27 33 58.5 Q4 90 -5 120 L15 211 L199 211 Q200 181 219.5 165.5 Q239 150 270 150 Q314 150 338 181 L351 239 Q348 249 337 256 Q326 263 303 269 L261 280 Q167 304 125 333 Q83 362 63 405 L100 582 Q135 636 204 676 Q273 716 381 716 Q454 716 506.5 694 Q559 672 587.5 641 Q616 610 624 582 Z M605 740 L468 740 L431 826 L357 740 L212 740 L215 755 L318 907 L570 907 L608 755 L605 740 Z " />
<glyph glyph-name="Scaron" unicode="&#x160;" horiz-adv-x="593" d="M624 582 L605 491 L421 491 Q419 518 403.5 534 Q388 550 356 550 Q335 550 319 542 Q303 534 293 522 L282 471 Q284 461 294.5 454.5 Q305 448 326 443 L367 431 Q463 407 505 376.5 Q547 346 571 304 L531 120 Q439 -16 246 -16 Q170 -16 116 5.5 Q62 27 33 58.5 Q4 90 -5 120 L15 211 L199 211 Q200 181 219.5 165.5 Q239 150 270 150 Q314 150 338 181 L351 239 Q348 249 337 256 Q326 263 303 269 L261 280 Q167 304 125 333 Q83 362 63 405 L100 582 Q135 636 204 676 Q273 716 381 716 Q454 716 506.5 694 Q559 672 587.5 641 Q616 610 624 582 Z M535 740 L282 740 L243 892 L247 907 L381 907 L419 820 L492 907 L641 907 L637 892 L535 740 Z " />
<glyph glyph-name="Scedilla" unicode="&#x15e;" horiz-adv-x="593" d="M293 522 L282 471 Q284 461 294.5 454.5 Q305 448 326 443 L367 431 Q463 407 505 376.5 Q547 346 571 304 L531 120 Q496 67 434 28.5 Q372 -10 273 -15 L261 -36 L268 -36 Q306 -36 326 -51 Q346 -66 350 -88 L332 -168 Q292 -235 180 -235 Q148 -235 120 -230.5 Q92 -226 75 -219 L117 -143 Q159 -149 183 -149 Q201 -149 215.5 -144.5 Q230 -140 235 -133 L240 -115 Q236 -103 196 -103 L136 -103 L185 -12 Q102 0 54.5 39 Q7 78 -5 120 L15 211 L199 211 Q200 181 219.5 165.5 Q239 150 270 150 Q314 150 338 181 L351 239 Q348 249 337 256 Q326 263 303 269 L261 280 Q167 304 125 333 Q83 362 63 405 L100 582 Q135 636 204 676 Q273 716 381 716 Q454 716 506.5 694 Q559 672 587.5 641 Q616 610 624 582 L605 491 L421 491 Q419 518 403.5 534 Q388 550 356 550 Q335 550 319 542 Q303 534 293 522 Z " />
<glyph glyph-name="Scommaaccent" unicode="&#x218;" horiz-adv-x="593" d="M624 582 L605 491 L421 491 Q419 518 403.5 534 Q388 550 356 550 Q335 550 319 542 Q303 534 293 522 L282 471 Q284 461 294.5 454.5 Q305 448 326 443 L367 431 Q463 407 505 376.5 Q547 346 571 304 L531 120 Q439 -16 246 -16 Q170 -16 116 5.5 Q62 27 33 58.5 Q4 90 -5 120 L15 211 L199 211 Q200 181 219.5 165.5 Q239 150 270 150 Q314 150 338 181 L351 239 Q348 249 337 256 Q326 263 303 269 L261 280 Q167 304 125 333 Q83 362 63 405 L100 582 Q135 636 204 676 Q273 716 381 716 Q454 716 506.5 694 Q559 672 587.5 641 Q616 610 624 582 Z M105 -199 L151 -199 Q171 -199 184 -195.5 Q197 -192 204 -181 L208 -166 Q168 -166 142 -159.5 Q116 -153 110 -142 L125 -69 Q136 -58 162 -49.5 Q188 -41 228 -41 Q268 -41 292 -49.5 Q316 -58 324 -69 L300 -185 Q284 -217 249.5 -237 Q215 -257 160 -257 L93 -257 L105 -199 Z " />
<glyph glyph-name="Tcaron" unicode="&#x164;" horiz-adv-x="560" d="M444 539 L330 0 L116 0 L230 539 L82 539 L116 700 L626 700 L591 539 L444 539 Z M507 740 L254 740 L215 892 L219 907 L353 907 L391 820 L464 907 L613 907 L609 892 L507 740 Z " />
<glyph glyph-name="uni021A" unicode="&#x21a;" horiz-adv-x="560" d="M444 539 L330 0 L116 0 L230 539 L82 539 L116 700 L626 700 L591 539 L444 539 Z M87 -199 L133 -199 Q153 -199 166 -195.5 Q179 -192 186 -181 L190 -166 Q150 -166 124 -159.5 Q98 -153 92 -142 L107 -69 Q118 -58 144 -49.5 Q170 -41 210 -41 Q250 -41 274 -49.5 Q298 -58 306 -69 L282 -185 Q266 -217 231.5 -237 Q197 -257 142 -257 L75 -257 L87 -199 Z " />
<glyph glyph-name="Tbar" unicode="&#x166;" horiz-adv-x="560" d="M429 420 L530 420 L503 296 L403 296 L340 0 L126 0 L189 296 L90 296 L117 420 L215 420 L240 539 L91 539 L126 700 L636 700 L601 539 L454 539 L429 420 Z " />
<glyph glyph-name="Ugrave" unicode="&#xd9;" horiz-adv-x="637" d="M566 138 Q528 75 454.5 29.5 Q381 -16 268 -16 Q191 -16 136.5 8 Q82 32 51.5 67 Q21 102 13 138 L133 700 L347 700 L236 182 Q240 168 254.5 159 Q269 150 293 150 Q337 150 361 182 L472 700 L686 700 L566 138 Z M478 740 L342 740 L280 825 L298 907 L468 907 L481 755 L478 740 Z " />
<glyph glyph-name="Uacute" unicode="&#xda;" horiz-adv-x="637" d="M566 138 Q528 75 454.5 29.5 Q381 -16 268 -16 Q191 -16 136.5 8 Q82 32 51.5 67 Q21 102 13 138 L133 700 L347 700 L236 182 Q240 168 254.5 159 Q269 150 293 150 Q337 150 361 182 L472 700 L686 700 L566 138 Z M468 740 L331 740 L334 755 L410 907 L587 907 L569 825 L468 740 Z " />
<glyph glyph-name="Ucircumflex" unicode="&#xdb;" horiz-adv-x="637" d="M566 138 Q528 75 454.5 29.5 Q381 -16 268 -16 Q191 -16 136.5 8 Q82 32 51.5 67 Q21 102 13 138 L133 700 L347 700 L236 182 Q240 168 254.5 159 Q269 150 293 150 Q337 150 361 182 L472 700 L686 700 L566 138 Z M615 740 L478 740 L441 826 L367 740 L222 740 L225 755 L328 907 L580 907 L618 755 L615 740 Z " />
<glyph glyph-name="Utilde" unicode="&#x168;" horiz-adv-x="637" d="M566 138 Q528 75 454.5 29.5 Q381 -16 268 -16 Q191 -16 136.5 8 Q82 32 51.5 67 Q21 102 13 138 L133 700 L347 700 L236 182 Q240 168 254.5 159 Q269 150 293 150 Q337 150 361 182 L472 700 L686 700 L566 138 Z M462 876 Q473 867 480 863 Q487 859 497 859 Q508 859 516.5 864.5 Q525 870 529 880 L534 901 L646 901 L630 829 Q616 792 578 765 Q540 738 491 738 Q459 738 442 746 Q425 754 407 768 Q397 777 390 781 Q383 785 373 785 Q362 785 354 779 Q346 773 342 764 L338 743 L226 743 L242 815 Q253 852 291.5 879 Q330 906 379 906 Q410 906 427 898 Q444 890 462 876 Z " />
<glyph glyph-name="Udieresis" unicode="&#xdc;" horiz-adv-x="637" d="M566 138 Q528 75 454.5 29.5 Q381 -16 268 -16 Q191 -16 136.5 8 Q82 32 51.5 67 Q21 102 13 138 L133 700 L347 700 L236 182 Q240 168 254.5 159 Q269 150 293 150 Q337 150 361 182 L472 700 L686 700 L566 138 Z M421 866 L402 771 Q386 756 363.5 745 Q341 734 303 734 Q245 734 221 771 L240 866 Q258 881 280 892 Q302 903 339 903 Q377 903 394.5 892 Q412 881 421 866 Z M649 866 L630 771 Q614 756 591.5 745 Q569 734 531 734 Q473 734 449 771 L468 866 Q486 881 508 892 Q530 903 567 903 Q605 903 622.5 892 Q640 881 649 866 Z " />
<glyph glyph-name="Umacron" unicode="&#x16a;" horiz-adv-x="637" d="M566 138 Q528 75 454.5 29.5 Q381 -16 268 -16 Q191 -16 136.5 8 Q82 32 51.5 67 Q21 102 13 138 L133 700 L347 700 L236 182 Q240 168 254.5 159 Q269 150 293 150 Q337 150 361 182 L472 700 L686 700 L566 138 Z M234 749 L261 876 L633 876 L606 749 L234 749 Z " />
<glyph glyph-name="Ubreve" unicode="&#x16c;" horiz-adv-x="637" d="M566 138 Q528 75 454.5 29.5 Q381 -16 268 -16 Q191 -16 136.5 8 Q82 32 51.5 67 Q21 102 13 138 L133 700 L347 700 L236 182 Q240 168 254.5 159 Q269 150 293 150 Q337 150 361 182 L472 700 L686 700 L566 138 Z M634 837 Q605 788 552.5 762 Q500 736 429 736 Q355 736 306 763 Q257 790 241 837 L255 900 L397 900 L389 862 Q392 851 403.5 842.5 Q415 834 437 834 Q460 834 475.5 842.5 Q491 851 498 862 L506 900 L648 900 L634 837 Z " />
<glyph glyph-name="Uring" unicode="&#x16e;" horiz-adv-x="637" d="M686 700 L566 138 Q528 75 454.5 29.5 Q381 -16 268 -16 Q191 -16 136.5 8 Q82 32 51.5 67 Q21 102 13 138 L133 700 L322 700 Q289 719 279 748 L299 843 Q321 875 360.5 894 Q400 913 447 913 Q496 913 532.5 894 Q569 875 581 843 L562 748 Q540 718 506 700 L686 700 Z M369 772 Q372 764 385 756.5 Q398 749 420 749 Q442 749 458.5 756.5 Q475 764 481 772 L491 819 Q488 827 475 834.5 Q462 842 440 842 Q419 842 403 835 Q387 828 379 819 L369 772 Z M361 182 L469 685 Q439 678 413 678 Q376 678 345 689 L236 182 Q240 168 254.5 159 Q269 150 293 150 Q337 150 361 182 Z " />
<glyph glyph-name="Uhungarumlaut" unicode="&#x170;" horiz-adv-x="637" d="M566 138 Q528 75 454.5 29.5 Q381 -16 268 -16 Q191 -16 136.5 8 Q82 32 51.5 67 Q21 102 13 138 L133 700 L347 700 L236 182 Q240 168 254.5 159 Q269 150 293 150 Q337 150 361 182 L472 700 L686 700 L566 138 Z M378 740 L250 740 L253 755 L316 907 L466 907 L451 841 L378 740 Z M587 740 L461 740 L464 755 L526 907 L676 907 L661 841 L587 740 Z " />
<glyph glyph-name="Uogonek" unicode="&#x172;" horiz-adv-x="637" d="M686 700 L566 138 Q538 93 484 46 Q366 -57 348 -94 L342 -113 Q349 -127 379 -127 Q396 -127 419 -122 L397 -221 Q369 -234 318 -234 Q272 -234 236 -219 Q200 -204 191 -176 L209 -91 Q219 -76 240.5 -55.5 Q262 -35 289 -15 Q282 -16 268 -16 Q191 -16 136.5 8 Q82 32 51.5 67 Q21 102 13 138 L133 700 L347 700 L236 182 Q240 168 254.5 159 Q269 150 293 150 Q337 150 361 182 L472 700 L686 700 Z " />
<glyph glyph-name="Wgrave" unicode="&#x1e80;" horiz-adv-x="937" d="M740 0 L484 0 L486 339 L483 339 L342 0 L81 0 L93 586 L117 700 L315 700 L288 266 L291 266 L469 700 L648 700 L643 266 L646 266 L803 700 L1002 700 L977 586 L740 0 Z M636 740 L500 740 L438 825 L456 907 L626 907 L639 755 L636 740 Z " />
<glyph glyph-name="Wacute" unicode="&#x1e82;" horiz-adv-x="937" d="M740 0 L484 0 L486 339 L483 339 L342 0 L81 0 L93 586 L117 700 L315 700 L288 266 L291 266 L469 700 L648 700 L643 266 L646 266 L803 700 L1002 700 L977 586 L740 0 Z M626 740 L489 740 L492 755 L568 907 L745 907 L727 825 L626 740 Z " />
<glyph glyph-name="Wcircumflex" unicode="&#x174;" horiz-adv-x="937" d="M740 0 L484 0 L486 339 L483 339 L342 0 L81 0 L93 586 L117 700 L315 700 L288 266 L291 266 L469 700 L648 700 L643 266 L646 266 L803 700 L1002 700 L977 586 L740 0 Z M773 740 L636 740 L599 826 L525 740 L380 740 L383 755 L486 907 L738 907 L776 755 L773 740 Z " />
<glyph glyph-name="Wdieresis" unicode="&#x1e84;" horiz-adv-x="937" d="M740 0 L484 0 L486 339 L483 339 L342 0 L81 0 L93 586 L117 700 L315 700 L288 266 L291 266 L469 700 L648 700 L643 266 L646 266 L803 700 L1002 700 L977 586 L740 0 Z M579 866 L560 771 Q544 756 521.5 745 Q499 734 461 734 Q403 734 379 771 L398 866 Q416 881 438 892 Q460 903 497 903 Q535 903 552.5 892 Q570 881 579 866 Z M807 866 L788 771 Q772 756 749.5 745 Q727 734 689 734 Q631 734 607 771 L626 866 Q644 881 666 892 Q688 903 725 903 Q763 903 780.5 892 Q798 881 807 866 Z " />
<glyph glyph-name="Ygrave" unicode="&#x1ef2;" horiz-adv-x="600" d="M400 258 L345 0 L130 0 L189 279 L88 586 L113 700 L293 700 L338 475 L341 475 L482 700 L670 700 L645 586 L400 258 Z M460 740 L324 740 L262 825 L280 907 L450 907 L463 755 L460 740 Z " />
<glyph glyph-name="Yacute" unicode="&#xdd;" horiz-adv-x="600" d="M400 258 L345 0 L130 0 L189 279 L88 586 L113 700 L293 700 L338 475 L341 475 L482 700 L670 700 L645 586 L400 258 Z M449 740 L312 740 L315 755 L391 907 L568 907 L550 825 L449 740 Z " />
<glyph glyph-name="Ycircumflex" unicode="&#x176;" horiz-adv-x="600" d="M400 258 L345 0 L130 0 L189 279 L88 586 L113 700 L293 700 L338 475 L341 475 L482 700 L670 700 L645 586 L400 258 Z M597 740 L460 740 L423 826 L349 740 L204 740 L207 755 L310 907 L562 907 L600 755 L597 740 Z " />
<glyph glyph-name="Ydieresis" unicode="&#x178;" horiz-adv-x="600" d="M400 258 L345 0 L130 0 L189 279 L88 586 L113 700 L293 700 L338 475 L341 475 L482 700 L670 700 L645 586 L400 258 Z M403 866 L384 771 Q368 756 345.5 745 Q323 734 285 734 Q227 734 203 771 L222 866 Q240 881 262 892 Q284 903 321 903 Q359 903 376.5 892 Q394 881 403 866 Z M631 866 L612 771 Q596 756 573.5 745 Q551 734 513 734 Q455 734 431 771 L450 866 Q468 881 490 892 Q512 903 549 903 Q587 903 604.5 892 Q622 881 631 866 Z " />
<glyph glyph-name="Zacute" unicode="&#x179;" horiz-adv-x="553" d="M266 161 L502 161 L468 0 L-31 0 L-2 137 L318 539 L87 539 L121 700 L617 700 L588 563 L266 161 Z M426 740 L289 740 L292 755 L368 907 L545 907 L527 825 L426 740 Z " />
<glyph glyph-name="Zcaron" unicode="&#x17d;" horiz-adv-x="553" d="M266 161 L502 161 L468 0 L-31 0 L-2 137 L318 539 L87 539 L121 700 L617 700 L588 563 L266 161 Z M503 740 L250 740 L211 892 L215 907 L349 907 L387 820 L460 907 L609 907 L605 892 L503 740 Z " />
<glyph glyph-name="Zdotaccent" unicode="&#x17b;" horiz-adv-x="553" d="M266 161 L502 161 L468 0 L-31 0 L-2 137 L318 539 L87 539 L121 700 L617 700 L588 563 L266 161 Z M504 862 L489 792 Q475 770 446 754 Q417 738 375 738 Q335 738 312.5 754 Q290 770 285 792 L300 862 Q315 884 344 900 Q373 916 413 916 Q454 916 477 900 Q500 884 504 862 Z " />
<glyph glyph-name="Eng" unicode="&#x14a;" horiz-adv-x="674" d="M564 -36 Q527 -105 451 -142 Q375 -179 272 -179 Q233 -179 217 -177 L251 -21 Q265 -23 287 -23 Q307 -23 323.5 -18 Q340 -13 350 -4 L265 363 L262 363 L184 0 L-14 0 L135 700 L358 700 L443 336 L446 336 L523 700 L721 700 L564 -36 Z " />
<glyph glyph-name="Eth" unicode="&#xd0;" horiz-adv-x="644" d="M669 562 L578 138 Q543 75 479 37.5 Q415 0 319 0 L-2 0 L57 277 L25 277 L58 433 L90 433 L147 700 L445 700 Q545 700 600 659.5 Q655 619 669 562 Z M444 511 Q435 541 382 541 L327 541 L304 433 L373 433 L339 277 L270 277 L245 159 L303 159 Q329 159 347.5 167.5 Q366 176 376 190 L444 511 Z " />
<glyph glyph-name="Thorn" unicode="&#xde;" horiz-adv-x="609" d="M626 475 L578 250 Q535 187 476 158 Q417 129 335 129 L228 129 L200 0 L-14 0 L135 700 L349 700 L327 594 L412 594 Q486 594 542 564 Q598 534 626 475 Z M407 407 Q402 421 387 428 Q372 435 351 435 L293 435 L261 288 L318 288 Q367 288 388 317 L407 407 Z " />
<glyph glyph-name="a" unicode="a" horiz-adv-x="568" d="M565 423 L475 0 L284 0 L291 35 Q231 -16 155 -16 Q106 -16 70 -2 Q34 12 13.5 31.5 Q-7 51 -12 67 L25 241 Q47 276 96 305.5 Q145 335 214 335 L349 335 L359 384 Q354 394 340.5 401.5 Q327 409 309 409 Q262 409 240 369 L65 369 L83 452 Q110 491 171.5 526.5 Q233 562 332 562 Q401 562 451 540 Q501 518 529 486 Q557 454 565 423 Z M246 115 Q277 115 305 134 L322 212 L263 212 Q228 212 208 192 L197 137 Q202 129 214 122 Q226 115 246 115 Z " />
<glyph glyph-name="b" unicode="b" horiz-adv-x="571" d="M571 425 L505 121 Q477 69 424 29 Q371 -11 301 -11 Q219 -11 178 45 L169 0 L-22 0 L127 700 L325 700 L284 509 Q346 557 420 557 Q491 557 528 516.5 Q565 476 571 425 Z M362 379 Q359 388 347 395.5 Q335 403 315 403 Q280 403 258 386 L210 160 Q227 143 260 143 Q280 143 296 150.5 Q312 158 317 166 L362 379 Z " />
<glyph glyph-name="c" unicode="c" horiz-adv-x="553" d="M563 449 L545 366 L373 366 Q370 387 354 398 Q338 409 313 409 Q294 409 278.5 401.5 Q263 394 255 383 L207 163 Q211 152 225 144.5 Q239 137 258 137 Q308 137 331 180 L504 180 L486 92 Q453 52 394.5 18 Q336 -16 238 -16 Q167 -16 116 5.5 Q65 27 36.5 59 Q8 91 1 123 L65 423 Q97 479 165 520.5 Q233 562 336 562 Q405 562 453.5 542 Q502 522 528 496 Q554 470 563 449 Z " />
<glyph glyph-name="d" unicode="d" horiz-adv-x="570" d="M625 700 L476 0 L286 0 L295 42 Q240 -11 163 -11 Q114 -11 78 9.5 Q42 30 22.5 60.5 Q3 91 0 121 L65 425 Q91 477 143 517 Q195 557 266 557 Q344 557 386 508 L427 700 L625 700 Z M258 143 Q290 143 311 159 L360 388 Q341 403 310 403 Q291 403 275.5 395.5 Q260 388 253 379 L209 167 Q212 158 225 150.5 Q238 143 258 143 Z " />
<glyph glyph-name="e" unicode="e" horiz-adv-x="557" d="M563 448 L512 214 L218 214 L207 158 Q210 148 224 140 Q238 132 258 132 Q307 132 330 174 L503 174 L486 93 Q455 54 396 19 Q337 -16 237 -16 Q166 -16 115 5.5 Q64 27 36 59 Q8 91 1 123 L65 423 Q96 478 164.5 520 Q233 562 335 562 Q404 562 453 541 Q502 520 528 494 Q554 468 563 448 Z M255 388 L245 337 L355 337 L366 388 Q363 398 348.5 406 Q334 414 314 414 Q295 414 279.5 406.5 Q264 399 255 388 Z " />
<glyph glyph-name="f" unicode="f" horiz-adv-x="358" d="M447 721 L418 588 L389 589 Q346 589 328 574 L322 546 L397 546 L367 404 L292 404 L206 0 L7 0 L93 404 L49 404 L79 546 L123 546 L143 638 Q166 678 219 706.5 Q272 735 347 735 Q408 735 447 721 Z " />
<glyph glyph-name="g" unicode="g" horiz-adv-x="570" d="M592 546 L466 -45 Q433 -104 366 -143 Q299 -182 193 -182 Q92 -182 36.5 -144 Q-19 -106 -36 -62 L-22 3 L153 3 Q159 -14 175.5 -22.5 Q192 -31 214 -31 Q255 -31 277 -4 L295 81 Q243 36 172 36 Q123 36 87.5 56.5 Q52 77 33 107.5 Q14 138 11 168 L65 425 Q92 477 143.5 517 Q195 557 266 557 Q348 557 393 500 L402 546 L592 546 Z M322 207 L361 387 Q343 403 310 403 Q291 403 275.5 395.5 Q260 388 253 379 L218 214 Q221 205 234 197.5 Q247 190 268 190 Q302 190 322 207 Z " />
<glyph glyph-name="h" unicode="h" horiz-adv-x="574" d="M571 425 L480 0 L282 0 L362 379 Q357 388 345 395.5 Q333 403 313 403 Q280 403 259 387 L176 0 L-22 0 L127 700 L325 700 L285 509 Q343 557 415 557 Q464 557 498 537 Q532 517 550 486.5 Q568 456 571 425 Z " />
<glyph glyph-name="i" unicode="i" horiz-adv-x="274" d="M178 0 L-20 0 L96 546 L294 546 L178 0 Z M333 708 L317 638 Q302 616 273 600 Q244 584 204 584 Q164 584 141.5 600 Q119 616 114 638 L130 708 Q145 730 173.5 746 Q202 762 242 762 Q283 762 305.5 746 Q328 730 333 708 Z " />
<glyph glyph-name="j" unicode="j" horiz-adv-x="272" d="M166 -45 Q138 -106 66.5 -143 Q-5 -180 -116 -180 L-84 -29 Q-64 -29 -46 -18 Q-28 -7 -20 8 L95 546 L292 546 L166 -45 Z M332 708 L316 638 Q301 616 272 600 Q243 584 203 584 Q163 584 140.5 600 Q118 616 113 638 L129 708 Q144 730 172.5 746 Q201 762 241 762 Q282 762 304.5 746 Q327 730 332 708 Z " />
<glyph glyph-name="k" unicode="k" horiz-adv-x="565" d="M487 0 L333 0 L259 186 L206 139 L176 0 L-22 0 L127 700 L325 700 L259 388 L433 546 L578 546 L556 442 L418 323 L509 104 L487 0 Z " />
<glyph glyph-name="l" unicode="l" horiz-adv-x="270" d="M176 0 L-22 0 L127 700 L325 700 L176 0 Z " />
<glyph glyph-name="m" unicode="m" horiz-adv-x="849" d="M846 426 L755 0 L557 0 L638 382 Q636 390 625.5 396.5 Q615 403 597 403 Q568 403 549 391 L466 0 L268 0 L349 382 Q347 390 336.5 396.5 Q326 403 308 403 Q277 403 258 389 L176 0 L-22 0 L94 546 L277 546 L266 494 Q326 557 409 557 Q457 557 490 536.5 Q523 516 540 484 Q608 557 698 557 Q746 557 778.5 537 Q811 517 827.5 487 Q844 457 846 426 Z " />
<glyph glyph-name="n" unicode="n" horiz-adv-x="573" d="M570 425 L480 0 L282 0 L362 379 Q357 388 345.5 395.5 Q334 403 314 403 Q278 403 258 386 L176 0 L-22 0 L94 546 L277 546 L266 493 Q328 557 413 557 Q462 557 496.5 537.5 Q531 518 549 487.5 Q567 457 570 425 Z " />
<glyph glyph-name="o" unicode="o" horiz-adv-x="573" d="M572 423 L508 123 Q473 65 406.5 24.5 Q340 -16 237 -16 Q166 -16 115.5 5.5 Q65 27 37 59 Q9 91 1 123 L65 423 Q99 480 166 521 Q233 562 336 562 Q407 562 457.5 540 Q508 518 535.5 486.5 Q563 455 572 423 Z M255 382 L207 163 Q211 152 224.5 144.5 Q238 137 258 137 Q279 137 295 145 Q311 153 318 164 L365 383 Q363 394 349 401.5 Q335 409 315 409 Q295 409 279 401.5 Q263 394 255 382 Z " />
<glyph glyph-name="p" unicode="p" horiz-adv-x="571" d="M571 425 L505 121 Q477 69 424 29 Q371 -11 301 -11 Q225 -11 184 38 L139 -166 L-59 -166 L94 546 L285 546 L275 501 Q339 557 420 557 Q491 557 528 516.5 Q565 476 571 425 Z M362 379 Q359 388 347 395.5 Q335 403 315 403 Q282 403 259 387 L210 160 Q227 143 260 143 Q280 143 296 150.5 Q312 158 317 166 L362 379 Z " />
<glyph glyph-name="q" unicode="q" horiz-adv-x="570" d="M592 546 L439 -166 L241 -166 L284 32 Q233 -11 163 -11 Q114 -11 78 9.5 Q42 30 22.5 60.5 Q3 91 0 121 L65 425 Q92 477 143.5 517 Q195 557 266 557 Q349 557 392 500 L402 546 L592 546 Z M311 158 L361 387 Q343 403 310 403 Q291 403 275.5 395.5 Q260 388 253 379 L209 167 Q212 158 225 150.5 Q238 143 258 143 Q289 143 311 158 Z " />
<glyph glyph-name="r" unicode="r" horiz-adv-x="401" d="M438 546 L399 364 Q390 365 374 365 Q329 365 297 357.5 Q265 350 248 338 L176 0 L-22 0 L94 546 L277 546 L261 469 Q289 506 323 527 Q357 548 407 548 Q426 548 438 546 Z " />
<glyph glyph-name="s" unicode="s" horiz-adv-x="524" d="M532 454 L516 385 L347 385 Q343 403 328.5 413 Q314 423 291 423 Q274 423 260.5 417 Q247 411 241 401 L234 371 Q239 357 273 350 L318 340 Q401 322 437 298 Q473 274 491 245 L459 94 Q429 53 369.5 18.5 Q310 -16 215 -16 Q145 -16 96 3 Q47 22 21 47.5 Q-5 73 -13 94 L2 163 L174 163 Q178 145 193 134 Q208 123 233 123 Q252 123 266 129.5 Q280 136 288 146 L296 177 Q290 193 255 200 L209 208 Q129 224 92 250 Q55 276 38 306 L70 454 Q99 494 159 528 Q219 562 312 562 Q378 562 425 543.5 Q472 525 497 500.5 Q522 476 532 454 Z " />
<glyph glyph-name="t" unicode="t" horiz-adv-x="372" d="M292 404 L238 152 Q251 137 296 137 L322 138 L293 0 Q249 -14 194 -14 Q117 -14 76 13.5 Q35 41 25 83 L94 404 L49 404 L79 546 L125 546 L148 657 L347 657 L323 546 L397 546 L367 404 L292 404 Z " />
<glyph glyph-name="u" unicode="u" horiz-adv-x="569" d="M591 546 L475 0 L292 0 L302 48 Q245 -11 161 -11 Q112 -11 76.5 9.5 Q41 30 22.5 61 Q4 92 3 121 L93 546 L292 546 L211 167 Q214 158 226.5 150.5 Q239 143 258 143 Q289 143 311 158 L393 546 L591 546 Z " />
<glyph glyph-name="v" unicode="v" horiz-adv-x="554" d="M341 0 L97 0 L60 442 L82 546 L261 546 L261 214 L264 214 L410 546 L588 546 L567 442 L341 0 Z " />
<glyph glyph-name="w" unicode="w" horiz-adv-x="817" d="M621 0 L412 0 L407 249 L404 249 L297 0 L81 0 L62 442 L84 546 L265 546 L249 222 L252 222 L389 546 L549 546 L546 222 L549 222 L673 546 L849 546 L828 442 L621 0 Z " />
<glyph glyph-name="x" unicode="x" horiz-adv-x="542" d="M411 278 L484 104 L462 0 L288 0 L258 167 L255 167 L152 0 L-36 0 L-14 104 L133 279 L65 442 L87 546 L257 546 L287 388 L290 388 L386 546 L572 546 L550 442 L411 278 Z " />
<glyph glyph-name="y" unicode="y" horiz-adv-x="550" d="M397 546 L585 546 L563 442 L273 -102 Q236 -139 183 -158.5 Q130 -178 48 -178 Q19 -178 -8.5 -174.5 Q-36 -171 -52 -166 L-21 -27 Q1 -29 27 -29 Q85 -29 117 -6 L126 13 L60 442 L82 546 L258 546 L269 260 L272 260 L397 546 Z " />
<glyph glyph-name="z" unicode="z" horiz-adv-x="500" d="M232 145 L448 145 L417 0 L-33 0 L-5 135 L260 400 L60 400 L91 546 L533 546 L507 420 L232 145 Z " />
<glyph glyph-name="agrave" unicode="&#xe0;" horiz-adv-x="568" d="M565 423 L475 0 L284 0 L291 35 Q231 -16 155 -16 Q106 -16 70 -2 Q34 12 13.5 31.5 Q-7 51 -12 67 L25 241 Q47 276 96 305.5 Q145 335 214 335 L349 335 L359 384 Q354 394 340.5 401.5 Q327 409 309 409 Q262 409 240 369 L65 369 L83 452 Q110 491 171.5 526.5 Q233 562 332 562 Q401 562 451 540 Q501 518 529 486 Q557 454 565 423 Z M246 115 Q277 115 305 134 L322 212 L263 212 Q228 212 208 192 L197 137 Q202 129 214 122 Q226 115 246 115 Z M433 599 L290 599 L229 687 L247 769 L424 769 L435 614 L433 599 Z " />
<glyph glyph-name="aacute" unicode="&#xe1;" horiz-adv-x="568" d="M565 423 L475 0 L284 0 L291 35 Q231 -16 155 -16 Q106 -16 70 -2 Q34 12 13.5 31.5 Q-7 51 -12 67 L25 241 Q47 276 96 305.5 Q145 335 214 335 L349 335 L359 384 Q354 394 340.5 401.5 Q327 409 309 409 Q262 409 240 369 L65 369 L83 452 Q110 491 171.5 526.5 Q233 562 332 562 Q401 562 451 540 Q501 518 529 486 Q557 454 565 423 Z M246 115 Q277 115 305 134 L322 212 L263 212 Q228 212 208 192 L197 137 Q202 129 214 122 Q226 115 246 115 Z M436 599 L284 599 L286 614 L365 769 L555 769 L537 687 L436 599 Z " />
<glyph glyph-name="acircumflex" unicode="&#xe2;" horiz-adv-x="568" d="M565 423 L475 0 L284 0 L291 35 Q231 -16 155 -16 Q106 -16 70 -2 Q34 12 13.5 31.5 Q-7 51 -12 67 L25 241 Q47 276 96 305.5 Q145 335 214 335 L349 335 L359 384 Q354 394 340.5 401.5 Q327 409 309 409 Q262 409 240 369 L65 369 L83 452 Q110 491 171.5 526.5 Q233 562 332 562 Q401 562 451 540 Q501 518 529 486 Q557 454 565 423 Z M246 115 Q277 115 305 134 L322 212 L263 212 Q228 212 208 192 L197 137 Q202 129 214 122 Q226 115 246 115 Z M555 594 L418 594 L382 683 L307 594 L162 594 L165 609 L269 764 L521 764 L558 609 L555 594 Z " />
<glyph glyph-name="atilde" unicode="&#xe3;" horiz-adv-x="568" d="M565 423 L475 0 L284 0 L291 35 Q231 -16 155 -16 Q106 -16 70 -2 Q34 12 13.5 31.5 Q-7 51 -12 67 L25 241 Q47 276 96 305.5 Q145 335 214 335 L349 335 L359 384 Q354 394 340.5 401.5 Q327 409 309 409 Q262 409 240 369 L65 369 L83 452 Q110 491 171.5 526.5 Q233 562 332 562 Q401 562 451 540 Q501 518 529 486 Q557 454 565 423 Z M246 115 Q277 115 305 134 L322 212 L263 212 Q228 212 208 192 L197 137 Q202 129 214 122 Q226 115 246 115 Z M398 731 Q411 722 420 717.5 Q429 713 440 713 Q461 713 471 734 L475 754 L586 754 L571 682 Q556 645 521.5 618.5 Q487 592 440 592 Q410 592 392.5 599.5 Q375 607 354 621 Q341 631 332.5 635 Q324 639 313 639 Q293 639 282 618 L278 597 L167 597 L182 669 Q195 706 230 732.5 Q265 759 313 759 Q342 759 360.5 751.5 Q379 744 398 731 Z " />
<glyph glyph-name="adieresis" unicode="&#xe4;" horiz-adv-x="568" d="M565 423 L475 0 L284 0 L291 35 Q231 -16 155 -16 Q106 -16 70 -2 Q34 12 13.5 31.5 Q-7 51 -12 67 L25 241 Q47 276 96 305.5 Q145 335 214 335 L349 335 L359 384 Q354 394 340.5 401.5 Q327 409 309 409 Q262 409 240 369 L65 369 L83 452 Q110 491 171.5 526.5 Q233 562 332 562 Q401 562 451 540 Q501 518 529 486 Q557 454 565 423 Z M246 115 Q277 115 305 134 L322 212 L263 212 Q228 212 208 192 L197 137 Q202 129 214 122 Q226 115 246 115 Z M360 720 L339 620 Q323 605 300.5 594 Q278 583 240 583 Q182 583 158 620 L179 720 Q217 758 278 758 Q341 758 360 720 Z M592 720 L571 620 Q555 605 532.5 594 Q510 583 472 583 Q435 583 416 594.5 Q397 606 390 620 L411 720 Q449 758 510 758 Q570 758 592 720 Z " />
<glyph glyph-name="amacron" unicode="&#x101;" horiz-adv-x="568" d="M565 423 L475 0 L284 0 L291 35 Q231 -16 155 -16 Q106 -16 70 -2 Q34 12 13.5 31.5 Q-7 51 -12 67 L25 241 Q47 276 96 305.5 Q145 335 214 335 L349 335 L359 384 Q354 394 340.5 401.5 Q327 409 309 409 Q262 409 240 369 L65 369 L83 452 Q110 491 171.5 526.5 Q233 562 332 562 Q401 562 451 540 Q501 518 529 486 Q557 454 565 423 Z M246 115 Q277 115 305 134 L322 212 L263 212 Q228 212 208 192 L197 137 Q202 129 214 122 Q226 115 246 115 Z M176 607 L204 734 L576 734 L548 607 L176 607 Z " />
<glyph glyph-name="abreve" unicode="&#x103;" horiz-adv-x="568" d="M565 423 L475 0 L284 0 L291 35 Q231 -16 155 -16 Q106 -16 70 -2 Q34 12 13.5 31.5 Q-7 51 -12 67 L25 241 Q47 276 96 305.5 Q145 335 214 335 L349 335 L359 384 Q354 394 340.5 401.5 Q327 409 309 409 Q262 409 240 369 L65 369 L83 452 Q110 491 171.5 526.5 Q233 562 332 562 Q401 562 451 540 Q501 518 529 486 Q557 454 565 423 Z M246 115 Q277 115 305 134 L322 212 L263 212 Q228 212 208 192 L197 137 Q202 129 214 122 Q226 115 246 115 Z M575 690 Q546 642 493.5 616 Q441 590 370 590 Q296 590 247 617 Q198 644 182 690 L196 754 L338 754 L330 716 Q333 705 344.5 696.5 Q356 688 378 688 Q401 688 416.5 696.5 Q432 705 439 716 L447 754 L589 754 L575 690 Z " />
<glyph glyph-name="aring" unicode="&#xe5;" horiz-adv-x="568" d="M565 423 L475 0 L284 0 L291 35 Q231 -16 155 -16 Q106 -16 70 -2 Q34 12 13.5 31.5 Q-7 51 -12 67 L25 241 Q47 276 96 305.5 Q145 335 214 335 L349 335 L359 384 Q354 394 340.5 401.5 Q327 409 309 409 Q262 409 240 369 L65 369 L83 452 Q110 491 171.5 526.5 Q233 562 332 562 Q401 562 451 540 Q501 518 529 486 Q557 454 565 423 Z M246 115 Q277 115 305 134 L322 212 L263 212 Q228 212 208 192 L197 137 Q202 129 214 122 Q226 115 246 115 Z M533 758 L513 656 Q489 623 450.5 605 Q412 587 364 587 Q315 587 278.5 605.5 Q242 624 230 656 L251 758 Q273 790 312.5 809 Q352 828 399 828 Q448 828 484.5 809 Q521 790 533 758 Z M331 734 L320 680 Q323 672 336 664.5 Q349 657 371 657 Q393 657 409.5 664.5 Q426 672 432 680 L443 734 Q440 742 427 749.5 Q414 757 392 757 Q370 757 353.5 749.5 Q337 742 331 734 Z " />
<glyph glyph-name="aogonek" unicode="&#x105;" horiz-adv-x="568" d="M378 -94 L373 -113 Q380 -127 409 -127 Q427 -127 449 -122 L428 -221 Q398 -234 348 -234 Q303 -234 267 -219 Q231 -204 221 -176 L240 -91 Q250 -73 278.5 -47.5 Q307 -22 343 0 L284 0 L291 35 Q231 -16 155 -16 Q106 -16 70 -2 Q34 12 13.5 31.5 Q-7 51 -12 67 L25 241 Q47 276 96 305.5 Q145 335 214 335 L349 335 L359 384 Q354 394 340.5 401.5 Q327 409 309 409 Q262 409 240 369 L65 369 L83 452 Q110 491 171.5 526.5 Q233 562 332 562 Q401 562 451 540 Q501 518 529 486 Q557 454 565 423 L475 0 Q402 -57 378 -94 Z M246 115 Q277 115 305 134 L322 212 L263 212 Q228 212 208 192 L197 137 Q202 129 214 122 Q226 115 246 115 Z " />
<glyph glyph-name="ae" unicode="&#xe6;" horiz-adv-x="859" d="M520 214 L509 158 Q512 148 526 140 Q540 132 560 132 Q609 132 632 174 L805 174 L788 93 Q759 54 699 19 Q639 -16 539 -16 Q482 -16 437 -1 Q392 14 361 39 Q282 -16 178 -16 Q96 -16 50 11 Q4 38 -12 67 L25 241 Q47 276 96 306.5 Q145 337 214 337 L349 337 L359 386 Q353 396 339.5 402.5 Q326 409 309 409 Q262 409 240 369 L65 369 L83 452 Q110 491 171.5 526.5 Q233 562 332 562 Q416 562 478 526 Q550 562 638 562 Q707 562 755.5 541 Q804 520 830 494 Q856 468 865 448 L814 214 L520 214 Z M616 414 Q597 414 581.5 406.5 Q566 399 557 388 L547 337 L658 337 L668 388 Q665 398 650.5 406 Q636 414 616 414 Z M246 115 Q280 115 305 135 L322 214 L263 214 Q230 214 208 192 L197 137 Q202 129 214 122 Q226 115 246 115 Z " />
<glyph glyph-name="cacute" unicode="&#x107;" horiz-adv-x="553" d="M563 449 L545 366 L373 366 Q370 387 354 398 Q338 409 313 409 Q294 409 278.5 401.5 Q263 394 255 383 L207 163 Q211 152 225 144.5 Q239 137 258 137 Q308 137 331 180 L504 180 L486 92 Q453 52 394.5 18 Q336 -16 238 -16 Q167 -16 116 5.5 Q65 27 36.5 59 Q8 91 1 123 L65 423 Q97 479 165 520.5 Q233 562 336 562 Q405 562 453.5 542 Q502 522 528 496 Q554 470 563 449 Z M433 599 L281 599 L283 614 L362 769 L552 769 L534 687 L433 599 Z " />
<glyph glyph-name="ccircumflex" unicode="&#x109;" horiz-adv-x="553" d="M563 449 L545 366 L373 366 Q370 387 354 398 Q338 409 313 409 Q294 409 278.5 401.5 Q263 394 255 383 L207 163 Q211 152 225 144.5 Q239 137 258 137 Q308 137 331 180 L504 180 L486 92 Q453 52 394.5 18 Q336 -16 238 -16 Q167 -16 116 5.5 Q65 27 36.5 59 Q8 91 1 123 L65 423 Q97 479 165 520.5 Q233 562 336 562 Q405 562 453.5 542 Q502 522 528 496 Q554 470 563 449 Z M552 594 L415 594 L379 683 L304 594 L159 594 L162 609 L266 764 L518 764 L555 609 L552 594 Z " />
<glyph glyph-name="ccaron" unicode="&#x10d;" horiz-adv-x="553" d="M563 449 L545 366 L373 366 Q370 387 354 398 Q338 409 313 409 Q294 409 278.5 401.5 Q263 394 255 383 L207 163 Q211 152 225 144.5 Q239 137 258 137 Q308 137 331 180 L504 180 L486 92 Q453 52 394.5 18 Q336 -16 238 -16 Q167 -16 116 5.5 Q65 27 36.5 59 Q8 91 1 123 L65 423 Q97 479 165 520.5 Q233 562 336 562 Q405 562 453.5 542 Q502 522 528 496 Q554 470 563 449 Z M482 594 L229 594 L192 749 L195 764 L328 764 L366 675 L439 764 L589 764 L586 749 L482 594 Z " />
<glyph glyph-name="cdotaccent" unicode="&#x10b;" horiz-adv-x="553" d="M563 449 L545 366 L373 366 Q370 387 354 398 Q338 409 313 409 Q294 409 278.5 401.5 Q263 394 255 383 L207 163 Q211 152 225 144.5 Q239 137 258 137 Q308 137 331 180 L504 180 L486 92 Q453 52 394.5 18 Q336 -16 238 -16 Q167 -16 116 5.5 Q65 27 36.5 59 Q8 91 1 123 L65 423 Q97 479 165 520.5 Q233 562 336 562 Q405 562 453.5 542 Q502 522 528 496 Q554 470 563 449 Z M483 708 L467 638 Q452 616 423 600 Q394 584 354 584 Q314 584 291.5 600 Q269 616 264 638 L280 708 Q295 730 323.5 746 Q352 762 392 762 Q433 762 455.5 746 Q478 730 483 708 Z " />
<glyph glyph-name="ccedilla" unicode="&#xe7;" horiz-adv-x="553" d="M255 383 L207 163 Q211 152 225 144.5 Q239 137 258 137 Q308 137 331 180 L504 180 L486 92 Q455 54 399.5 21 Q344 -12 252 -15 L241 -36 L248 -36 Q287 -36 306.5 -51 Q326 -66 329 -88 L312 -168 Q270 -235 159 -235 Q128 -235 99.5 -230.5 Q71 -226 54 -219 L97 -143 Q139 -149 162 -149 Q181 -149 195.5 -144.5 Q210 -140 215 -133 L219 -115 Q215 -103 176 -103 L116 -103 L166 -9 Q95 5 53 43.5 Q11 82 1 123 L65 423 Q97 479 165 520.5 Q233 562 336 562 Q405 562 453.5 542 Q502 522 528 496 Q554 470 563 449 L545 366 L373 366 Q370 387 354 398 Q338 409 313 409 Q294 409 278.5 401.5 Q263 394 255 383 Z " />
<glyph glyph-name="dcaron" unicode="&#x10f;" horiz-adv-x="765" d="M625 700 L476 0 L286 0 L295 42 Q240 -11 163 -11 Q114 -11 78 9.5 Q42 30 22.5 60.5 Q3 91 0 121 L65 425 Q91 477 143 517 Q195 557 266 557 Q344 557 386 508 L427 700 L625 700 Z M258 143 Q290 143 311 159 L360 388 Q341 403 310 403 Q291 403 275.5 395.5 Q260 388 253 379 L209 167 Q212 158 225 150.5 Q238 143 258 143 Z M728 464 L615 464 L618 479 L687 700 L835 700 L814 600 L728 464 Z " />
<glyph glyph-name="egrave" unicode="&#xe8;" horiz-adv-x="557" d="M563 448 L512 214 L218 214 L207 158 Q210 148 224 140 Q238 132 258 132 Q307 132 330 174 L503 174 L486 93 Q455 54 396 19 Q337 -16 237 -16 Q166 -16 115 5.5 Q64 27 36 59 Q8 91 1 123 L65 423 Q96 478 164.5 520 Q233 562 335 562 Q404 562 453 541 Q502 520 528 494 Q554 468 563 448 Z M255 388 L245 337 L355 337 L366 388 Q363 398 348.5 406 Q334 414 314 414 Q295 414 279.5 406.5 Q264 399 255 388 Z M433 599 L290 599 L229 687 L247 769 L424 769 L435 614 L433 599 Z " />
<glyph glyph-name="eacute" unicode="&#xe9;" horiz-adv-x="557" d="M563 448 L512 214 L218 214 L207 158 Q210 148 224 140 Q238 132 258 132 Q307 132 330 174 L503 174 L486 93 Q455 54 396 19 Q337 -16 237 -16 Q166 -16 115 5.5 Q64 27 36 59 Q8 91 1 123 L65 423 Q96 478 164.5 520 Q233 562 335 562 Q404 562 453 541 Q502 520 528 494 Q554 468 563 448 Z M255 388 L245 337 L355 337 L366 388 Q363 398 348.5 406 Q334 414 314 414 Q295 414 279.5 406.5 Q264 399 255 388 Z M436 599 L284 599 L286 614 L365 769 L555 769 L537 687 L436 599 Z " />
<glyph glyph-name="ecircumflex" unicode="&#xea;" horiz-adv-x="557" d="M563 448 L512 214 L218 214 L207 158 Q210 148 224 140 Q238 132 258 132 Q307 132 330 174 L503 174 L486 93 Q455 54 396 19 Q337 -16 237 -16 Q166 -16 115 5.5 Q64 27 36 59 Q8 91 1 123 L65 423 Q96 478 164.5 520 Q233 562 335 562 Q404 562 453 541 Q502 520 528 494 Q554 468 563 448 Z M255 388 L245 337 L355 337 L366 388 Q363 398 348.5 406 Q334 414 314 414 Q295 414 279.5 406.5 Q264 399 255 388 Z M555 594 L418 594 L382 683 L307 594 L162 594 L165 609 L269 764 L521 764 L558 609 L555 594 Z " />
<glyph glyph-name="ecaron" unicode="&#x11b;" horiz-adv-x="557" d="M563 448 L512 214 L218 214 L207 158 Q210 148 224 140 Q238 132 258 132 Q307 132 330 174 L503 174 L486 93 Q455 54 396 19 Q337 -16 237 -16 Q166 -16 115 5.5 Q64 27 36 59 Q8 91 1 123 L65 423 Q96 478 164.5 520 Q233 562 335 562 Q404 562 453 541 Q502 520 528 494 Q554 468 563 448 Z M255 388 L245 337 L355 337 L366 388 Q363 398 348.5 406 Q334 414 314 414 Q295 414 279.5 406.5 Q264 399 255 388 Z M485 594 L232 594 L195 749 L198 764 L331 764 L369 675 L442 764 L592 764 L589 749 L485 594 Z " />
<glyph glyph-name="edieresis" unicode="&#xeb;" horiz-adv-x="557" d="M563 448 L512 214 L218 214 L207 158 Q210 148 224 140 Q238 132 258 132 Q307 132 330 174 L503 174 L486 93 Q455 54 396 19 Q337 -16 237 -16 Q166 -16 115 5.5 Q64 27 36 59 Q8 91 1 123 L65 423 Q96 478 164.5 520 Q233 562 335 562 Q404 562 453 541 Q502 520 528 494 Q554 468 563 448 Z M255 388 L245 337 L355 337 L366 388 Q363 398 348.5 406 Q334 414 314 414 Q295 414 279.5 406.5 Q264 399 255 388 Z M360 720 L339 620 Q323 605 300.5 594 Q278 583 240 583 Q182 583 158 620 L179 720 Q217 758 278 758 Q341 758 360 720 Z M592 720 L571 620 Q555 605 532.5 594 Q510 583 472 583 Q435 583 416 594.5 Q397 606 390 620 L411 720 Q449 758 510 758 Q570 758 592 720 Z " />
<glyph glyph-name="emacron" unicode="&#x113;" horiz-adv-x="557" d="M563 448 L512 214 L218 214 L207 158 Q210 148 224 140 Q238 132 258 132 Q307 132 330 174 L503 174 L486 93 Q455 54 396 19 Q337 -16 237 -16 Q166 -16 115 5.5 Q64 27 36 59 Q8 91 1 123 L65 423 Q96 478 164.5 520 Q233 562 335 562 Q404 562 453 541 Q502 520 528 494 Q554 468 563 448 Z M255 388 L245 337 L355 337 L366 388 Q363 398 348.5 406 Q334 414 314 414 Q295 414 279.5 406.5 Q264 399 255 388 Z M176 607 L204 734 L576 734 L548 607 L176 607 Z " />
<glyph glyph-name="ebreve" unicode="&#x115;" horiz-adv-x="557" d="M563 448 L512 214 L218 214 L207 158 Q210 148 224 140 Q238 132 258 132 Q307 132 330 174 L503 174 L486 93 Q455 54 396 19 Q337 -16 237 -16 Q166 -16 115 5.5 Q64 27 36 59 Q8 91 1 123 L65 423 Q96 478 164.5 520 Q233 562 335 562 Q404 562 453 541 Q502 520 528 494 Q554 468 563 448 Z M255 388 L245 337 L355 337 L366 388 Q363 398 348.5 406 Q334 414 314 414 Q295 414 279.5 406.5 Q264 399 255 388 Z M575 690 Q546 642 493.5 616 Q441 590 370 590 Q296 590 247 617 Q198 644 182 690 L196 754 L338 754 L330 716 Q333 705 344.5 696.5 Q356 688 378 688 Q401 688 416.5 696.5 Q432 705 439 716 L447 754 L589 754 L575 690 Z " />
<glyph glyph-name="edotaccent" unicode="&#x117;" horiz-adv-x="557" d="M563 448 L512 214 L218 214 L207 158 Q210 148 224 140 Q238 132 258 132 Q307 132 330 174 L503 174 L486 93 Q455 54 396 19 Q337 -16 237 -16 Q166 -16 115 5.5 Q64 27 36 59 Q8 91 1 123 L65 423 Q96 478 164.5 520 Q233 562 335 562 Q404 562 453 541 Q502 520 528 494 Q554 468 563 448 Z M255 388 L245 337 L355 337 L366 388 Q363 398 348.5 406 Q334 414 314 414 Q295 414 279.5 406.5 Q264 399 255 388 Z M486 708 L470 638 Q455 616 426 600 Q397 584 357 584 Q317 584 294.5 600 Q272 616 267 638 L283 708 Q298 730 326.5 746 Q355 762 395 762 Q436 762 458.5 746 Q481 730 486 708 Z " />
<glyph glyph-name="eogonek" unicode="&#x119;" horiz-adv-x="557" d="M218 214 L207 158 Q210 148 224 140 Q238 132 258 132 Q307 132 330 174 L503 174 L486 93 Q465 69 446 50 Q411 15 382.5 -26.5 Q354 -68 345 -93 L340 -113 Q347 -127 377 -127 Q393 -127 417 -122 L395 -221 Q381 -227 363.5 -230.5 Q346 -234 315 -234 Q269 -234 233.5 -219 Q198 -204 189 -176 L207 -91 Q224 -58 273 -14 Q261 -16 237 -16 Q166 -16 115 5.5 Q64 27 36 59 Q8 91 1 123 L65 423 Q96 478 164.5 520 Q233 562 335 562 Q404 562 453 541 Q502 520 528 494 Q554 468 563 448 L512 214 L218 214 Z M245 337 L355 337 L366 388 Q363 398 348.5 406 Q334 414 314 414 Q295 414 279.5 406.5 Q264 399 255 388 L245 337 Z " />
<glyph glyph-name="gcircumflex" unicode="&#x11d;" horiz-adv-x="570" d="M592 546 L466 -45 Q433 -104 366 -143 Q299 -182 193 -182 Q92 -182 36.5 -144 Q-19 -106 -36 -62 L-22 3 L153 3 Q159 -14 175.5 -22.5 Q192 -31 214 -31 Q255 -31 277 -4 L295 81 Q243 36 172 36 Q123 36 87.5 56.5 Q52 77 33 107.5 Q14 138 11 168 L65 425 Q92 477 143.5 517 Q195 557 266 557 Q348 557 393 500 L402 546 L592 546 Z M322 207 L361 387 Q343 403 310 403 Q291 403 275.5 395.5 Q260 388 253 379 L218 214 Q221 205 234 197.5 Q247 190 268 190 Q302 190 322 207 Z M550 594 L413 594 L377 683 L302 594 L157 594 L160 609 L264 764 L516 764 L553 609 L550 594 Z " />
<glyph glyph-name="gbreve" unicode="&#x11f;" horiz-adv-x="570" d="M592 546 L466 -45 Q433 -104 366 -143 Q299 -182 193 -182 Q92 -182 36.5 -144 Q-19 -106 -36 -62 L-22 3 L153 3 Q159 -14 175.5 -22.5 Q192 -31 214 -31 Q255 -31 277 -4 L295 81 Q243 36 172 36 Q123 36 87.5 56.5 Q52 77 33 107.5 Q14 138 11 168 L65 425 Q92 477 143.5 517 Q195 557 266 557 Q348 557 393 500 L402 546 L592 546 Z M322 207 L361 387 Q343 403 310 403 Q291 403 275.5 395.5 Q260 388 253 379 L218 214 Q221 205 234 197.5 Q247 190 268 190 Q302 190 322 207 Z M570 690 Q541 642 488.5 616 Q436 590 365 590 Q291 590 242 617 Q193 644 177 690 L191 754 L333 754 L325 716 Q328 705 339.5 696.5 Q351 688 373 688 Q396 688 411.5 696.5 Q427 705 434 716 L442 754 L584 754 L570 690 Z " />
<glyph glyph-name="gdotaccent" unicode="&#x121;" horiz-adv-x="570" d="M592 546 L466 -45 Q433 -104 366 -143 Q299 -182 193 -182 Q92 -182 36.5 -144 Q-19 -106 -36 -62 L-22 3 L153 3 Q159 -14 175.5 -22.5 Q192 -31 214 -31 Q255 -31 277 -4 L295 81 Q243 36 172 36 Q123 36 87.5 56.5 Q52 77 33 107.5 Q14 138 11 168 L65 425 Q92 477 143.5 517 Q195 557 266 557 Q348 557 393 500 L402 546 L592 546 Z M322 207 L361 387 Q343 403 310 403 Q291 403 275.5 395.5 Q260 388 253 379 L218 214 Q221 205 234 197.5 Q247 190 268 190 Q302 190 322 207 Z M481 708 L465 638 Q450 616 421 600 Q392 584 352 584 Q312 584 289.5 600 Q267 616 262 638 L278 708 Q293 730 321.5 746 Q350 762 390 762 Q431 762 453.5 746 Q476 730 481 708 Z " />
<glyph glyph-name="gcommaaccent" unicode="&#x123;" horiz-adv-x="570" d="M592 546 L466 -45 Q433 -104 366 -143 Q299 -182 193 -182 Q92 -182 36.5 -144 Q-19 -106 -36 -62 L-22 3 L153 3 Q159 -14 175.5 -22.5 Q192 -31 214 -31 Q255 -31 277 -4 L295 81 Q243 36 172 36 Q123 36 87.5 56.5 Q52 77 33 107.5 Q14 138 11 168 L65 425 Q92 477 143.5 517 Q195 557 266 557 Q348 557 393 500 L402 546 L592 546 Z M322 207 L361 387 Q343 403 310 403 Q291 403 275.5 395.5 Q260 388 253 379 L218 214 Q221 205 234 197.5 Q247 190 268 190 Q302 190 322 207 Z M326 759 L322 743 Q398 743 417 689 L405 632 Q369 578 300 578 Q259 578 233.5 594.5 Q208 611 202 632 L233 776 Q248 803 285.5 825.5 Q323 848 377 848 L433 848 L418 776 L390 776 Q339 776 326 759 Z " />
<glyph glyph-name="hcircumflex" unicode="&#x125;" horiz-adv-x="574" d="M571 425 L480 0 L282 0 L362 379 Q357 388 345 395.5 Q333 403 313 403 Q280 403 259 387 L176 0 L-22 0 L127 700 L325 700 L285 509 Q343 557 415 557 Q464 557 498 537 Q532 517 550 486.5 Q568 456 571 425 Z M589 736 L452 736 L415 822 L341 736 L196 736 L199 751 L302 903 L554 903 L592 751 L589 736 Z " />
<glyph glyph-name="hbar" unicode="&#x127;" horiz-adv-x="588" d="M579 392 L495 0 L297 0 L371 346 Q366 355 353.5 362.5 Q341 370 321 370 Q289 370 266 354 L191 0 L-7 0 L112 558 L78 558 L100 657 L133 657 L142 700 L340 700 L331 657 L461 657 L439 558 L310 558 L292 476 Q352 524 423 524 Q472 524 506 503.5 Q540 483 558 453 Q576 423 579 392 Z " />
<glyph glyph-name="igrave" unicode="&#xec;" horiz-adv-x="274" d="M178 0 L-20 0 L96 546 L294 546 L178 0 Z M279 599 L136 599 L75 687 L93 769 L270 769 L281 614 L279 599 Z " />
<glyph glyph-name="iacute" unicode="&#xed;" horiz-adv-x="274" d="M178 0 L-20 0 L96 546 L294 546 L178 0 Z M282 599 L130 599 L132 614 L211 769 L401 769 L383 687 L282 599 Z " />
<glyph glyph-name="icircumflex" unicode="&#xee;" horiz-adv-x="274" d="M178 0 L-20 0 L96 546 L294 546 L178 0 Z M402 594 L265 594 L229 683 L154 594 L9 594 L12 609 L116 764 L368 764 L405 609 L402 594 Z " />
<glyph glyph-name="itilde" unicode="&#x129;" horiz-adv-x="274" d="M178 0 L-20 0 L96 546 L294 546 L178 0 Z M245 731 Q258 722 267 717.5 Q276 713 287 713 Q308 713 318 734 L322 754 L433 754 L418 682 Q403 645 368.5 618.5 Q334 592 287 592 Q257 592 239.5 599.5 Q222 607 201 621 Q188 631 179.5 635 Q171 639 160 639 Q140 639 129 618 L125 597 L14 597 L29 669 Q42 706 77 732.5 Q112 759 160 759 Q189 759 207.5 751.5 Q226 744 245 731 Z " />
<glyph glyph-name="idieresis" unicode="&#xef;" horiz-adv-x="274" d="M178 0 L-20 0 L96 546 L294 546 L178 0 Z M207 720 L186 620 Q170 605 147.5 594 Q125 583 87 583 Q29 583 5 620 L26 720 Q64 758 125 758 Q188 758 207 720 Z M439 720 L418 620 Q402 605 379.5 594 Q357 583 319 583 Q282 583 263 594.5 Q244 606 237 620 L258 720 Q296 758 357 758 Q417 758 439 720 Z " />
<glyph glyph-name="imacron" unicode="&#x12b;" horiz-adv-x="274" d="M178 0 L-20 0 L96 546 L294 546 L178 0 Z M23 607 L51 734 L423 734 L395 607 L23 607 Z " />
<glyph glyph-name="ibreve" unicode="&#x12d;" horiz-adv-x="274" d="M178 0 L-20 0 L96 546 L294 546 L178 0 Z M422 690 Q393 642 340.5 616 Q288 590 217 590 Q143 590 94 617 Q45 644 29 690 L43 754 L185 754 L177 716 Q180 705 191.5 696.5 Q203 688 225 688 Q248 688 263.5 696.5 Q279 705 286 716 L294 754 L436 754 L422 690 Z " />
<glyph glyph-name="iogonek" unicode="&#x12f;" horiz-adv-x="274" d="M332 708 L317 638 Q302 616 272.5 600 Q243 584 203 584 Q163 584 141 599.5 Q119 615 114 638 L129 708 Q144 730 173 746 Q202 762 242 762 Q282 762 304.5 746 Q327 730 332 708 Z M96 546 L294 546 L178 0 Q103 -58 81 -94 L75 -113 Q82 -127 112 -127 Q129 -127 152 -122 L130 -221 Q102 -234 51 -234 Q5 -234 -31 -219 Q-67 -204 -76 -176 L-58 -91 Q-47 -73 -18.5 -47.5 Q10 -22 45 0 L-20 0 L96 546 Z " />
<glyph glyph-name="dotlessi" unicode="&#x131;" horiz-adv-x="274" d="M178 0 L-20 0 L96 546 L294 546 L178 0 Z " />
<glyph glyph-name="ij" unicode="&#x133;" horiz-adv-x="546" d="M178 0 L-20 0 L96 546 L294 546 L178 0 Z M333 708 L317 638 Q302 616 273 600 Q244 584 204 584 Q164 584 141.5 600 Q119 616 114 638 L130 708 Q145 730 173.5 746 Q202 762 242 762 Q283 762 305.5 746 Q328 730 333 708 Z M440 -45 Q412 -106 340.5 -143 Q269 -180 158 -180 L190 -29 Q210 -29 228 -18 Q246 -7 254 8 L369 546 L566 546 L440 -45 Z M606 708 L590 638 Q575 616 546 600 Q517 584 477 584 Q437 584 414.5 600 Q392 616 387 638 L403 708 Q418 730 446.5 746 Q475 762 515 762 Q556 762 578.5 746 Q601 730 606 708 Z " />
<glyph glyph-name="jcircumflex" unicode="&#x135;" horiz-adv-x="272" d="M166 -45 Q138 -106 66.5 -143 Q-5 -180 -116 -180 L-84 -29 Q-64 -29 -46 -18 Q-28 -7 -20 8 L95 546 L292 546 L166 -45 Z M401 594 L264 594 L228 683 L153 594 L8 594 L11 609 L115 764 L367 764 L404 609 L401 594 Z " />
<glyph glyph-name="kcommaaccent" unicode="&#x137;" horiz-adv-x="565" d="M487 0 L333 0 L259 186 L206 139 L176 0 L-22 0 L127 700 L325 700 L259 388 L433 546 L578 546 L556 442 L418 323 L509 104 L487 0 Z M89 -199 L135 -199 Q155 -199 168 -195.5 Q181 -192 188 -181 L192 -166 Q152 -166 126 -159.5 Q100 -153 94 -142 L109 -69 Q120 -58 146 -49.5 Q172 -41 212 -41 Q252 -41 276 -49.5 Q300 -58 308 -69 L284 -185 Q268 -217 233.5 -237 Q199 -257 144 -257 L77 -257 L89 -199 Z " />
<glyph glyph-name="lacute" unicode="&#x13a;" horiz-adv-x="270" d="M176 0 L-22 0 L127 700 L325 700 L176 0 Z M292 736 L155 736 L158 751 L234 903 L411 903 L393 821 L292 736 Z " />
<glyph glyph-name="lcaron" unicode="&#x13e;" horiz-adv-x="465" d="M176 0 L-22 0 L127 700 L325 700 L176 0 Z M429 464 L316 464 L319 479 L388 700 L536 700 L515 600 L429 464 Z " />
<glyph glyph-name="lcommaaccent" unicode="&#x13c;" horiz-adv-x="270" d="M176 0 L-22 0 L127 700 L325 700 L176 0 Z M-58 -199 L-12 -199 Q8 -199 21 -195.5 Q34 -192 41 -181 L45 -166 Q5 -166 -21 -159.5 Q-47 -153 -53 -142 L-38 -69 Q-27 -58 -1 -49.5 Q25 -41 65 -41 Q105 -41 129 -49.5 Q153 -58 161 -69 L137 -185 Q121 -217 86.5 -237 Q52 -257 -3 -257 L-70 -257 L-58 -199 Z " />
<glyph glyph-name="lslash" unicode="&#x142;" horiz-adv-x="355" d="M291 342 L219 0 L20 0 L69 226 L11 197 L44 353 L102 383 L170 700 L368 700 L325 498 L382 528 L349 372 L291 342 Z " />
<glyph glyph-name="ldot" unicode="&#x140;" horiz-adv-x="481" d="M176 0 L-22 0 L127 700 L325 700 L176 0 Z M506 397 L490 327 Q475 305 446 289 Q417 273 377 273 Q337 273 314.5 289 Q292 305 287 327 L303 397 Q318 419 346.5 435 Q375 451 415 451 Q456 451 478.5 435 Q501 419 506 397 Z " />
<glyph glyph-name="nacute" unicode="&#x144;" horiz-adv-x="573" d="M570 425 L480 0 L282 0 L362 379 Q357 388 345.5 395.5 Q334 403 314 403 Q278 403 258 386 L176 0 L-22 0 L94 546 L277 546 L266 493 Q328 557 413 557 Q462 557 496.5 537.5 Q531 518 549 487.5 Q567 457 570 425 Z M432 599 L280 599 L282 614 L361 769 L551 769 L533 687 L432 599 Z " />
<glyph glyph-name="ncaron" unicode="&#x148;" horiz-adv-x="573" d="M570 425 L480 0 L282 0 L362 379 Q357 388 345.5 395.5 Q334 403 314 403 Q278 403 258 386 L176 0 L-22 0 L94 546 L277 546 L266 493 Q328 557 413 557 Q462 557 496.5 537.5 Q531 518 549 487.5 Q567 457 570 425 Z M481 594 L228 594 L191 749 L194 764 L327 764 L365 675 L438 764 L588 764 L585 749 L481 594 Z " />
<glyph glyph-name="ntilde" unicode="&#xf1;" horiz-adv-x="573" d="M570 425 L480 0 L282 0 L362 379 Q357 388 345.5 395.5 Q334 403 314 403 Q278 403 258 386 L176 0 L-22 0 L94 546 L277 546 L266 493 Q328 557 413 557 Q462 557 496.5 537.5 Q531 518 549 487.5 Q567 457 570 425 Z M394 731 Q407 722 416 717.5 Q425 713 436 713 Q457 713 467 734 L471 754 L582 754 L567 682 Q552 645 517.5 618.5 Q483 592 436 592 Q406 592 388.5 599.5 Q371 607 350 621 Q337 631 328.5 635 Q320 639 309 639 Q289 639 278 618 L274 597 L163 597 L178 669 Q191 706 226 732.5 Q261 759 309 759 Q338 759 356.5 751.5 Q375 744 394 731 Z " />
<glyph glyph-name="ncommaaccent" unicode="&#x146;" horiz-adv-x="573" d="M570 425 L480 0 L282 0 L362 379 Q357 388 345.5 395.5 Q334 403 314 403 Q278 403 258 386 L176 0 L-22 0 L94 546 L277 546 L266 493 Q328 557 413 557 Q462 557 496.5 537.5 Q531 518 549 487.5 Q567 457 570 425 Z M93 -199 L139 -199 Q159 -199 172 -195.5 Q185 -192 192 -181 L196 -166 Q156 -166 130 -159.5 Q104 -153 98 -142 L113 -69 Q124 -58 150 -49.5 Q176 -41 216 -41 Q256 -41 280 -49.5 Q304 -58 312 -69 L288 -185 Q272 -217 237.5 -237 Q203 -257 148 -257 L81 -257 L93 -199 Z " />
<glyph glyph-name="napostrophe" unicode="&#x149;" horiz-adv-x="573" d="M570 425 L480 0 L282 0 L362 379 Q357 388 345.5 395.5 Q334 403 314 403 Q278 403 258 386 L176 0 L-22 0 L94 546 L277 546 L266 493 Q328 557 413 557 Q462 557 496.5 537.5 Q531 518 549 487.5 Q567 457 570 425 Z M38 624 L84 624 Q104 624 117 627.5 Q130 631 137 642 L141 657 Q101 657 75 663.5 Q49 670 43 681 L58 754 Q69 765 95 773.5 Q121 782 161 782 Q201 782 225 773.5 Q249 765 257 754 L233 638 Q217 606 182.5 586 Q148 566 93 566 L26 566 L38 624 Z " />
<glyph glyph-name="ograve" unicode="&#xf2;" horiz-adv-x="573" d="M572 423 L508 123 Q473 65 406.5 24.5 Q340 -16 237 -16 Q166 -16 115.5 5.5 Q65 27 37 59 Q9 91 1 123 L65 423 Q99 480 166 521 Q233 562 336 562 Q407 562 457.5 540 Q508 518 535.5 486.5 Q563 455 572 423 Z M255 382 L207 163 Q211 152 224.5 144.5 Q238 137 258 137 Q279 137 295 145 Q311 153 318 164 L365 383 Q363 394 349 401.5 Q335 409 315 409 Q295 409 279 401.5 Q263 394 255 382 Z M428 599 L285 599 L224 687 L242 769 L419 769 L430 614 L428 599 Z " />
<glyph glyph-name="oacute" unicode="&#xf3;" horiz-adv-x="573" d="M572 423 L508 123 Q473 65 406.5 24.5 Q340 -16 237 -16 Q166 -16 115.5 5.5 Q65 27 37 59 Q9 91 1 123 L65 423 Q99 480 166 521 Q233 562 336 562 Q407 562 457.5 540 Q508 518 535.5 486.5 Q563 455 572 423 Z M255 382 L207 163 Q211 152 224.5 144.5 Q238 137 258 137 Q279 137 295 145 Q311 153 318 164 L365 383 Q363 394 349 401.5 Q335 409 315 409 Q295 409 279 401.5 Q263 394 255 382 Z M431 599 L279 599 L281 614 L360 769 L550 769 L532 687 L431 599 Z " />
<glyph glyph-name="ocircumflex" unicode="&#xf4;" horiz-adv-x="573" d="M572 423 L508 123 Q473 65 406.5 24.5 Q340 -16 237 -16 Q166 -16 115.5 5.5 Q65 27 37 59 Q9 91 1 123 L65 423 Q99 480 166 521 Q233 562 336 562 Q407 562 457.5 540 Q508 518 535.5 486.5 Q563 455 572 423 Z M255 382 L207 163 Q211 152 224.5 144.5 Q238 137 258 137 Q279 137 295 145 Q311 153 318 164 L365 383 Q363 394 349 401.5 Q335 409 315 409 Q295 409 279 401.5 Q263 394 255 382 Z M551 594 L414 594 L378 683 L303 594 L158 594 L161 609 L265 764 L517 764 L554 609 L551 594 Z " />
<glyph glyph-name="otilde" unicode="&#xf5;" horiz-adv-x="573" d="M572 423 L508 123 Q473 65 406.5 24.5 Q340 -16 237 -16 Q166 -16 115.5 5.5 Q65 27 37 59 Q9 91 1 123 L65 423 Q99 480 166 521 Q233 562 336 562 Q407 562 457.5 540 Q508 518 535.5 486.5 Q563 455 572 423 Z M255 382 L207 163 Q211 152 224.5 144.5 Q238 137 258 137 Q279 137 295 145 Q311 153 318 164 L365 383 Q363 394 349 401.5 Q335 409 315 409 Q295 409 279 401.5 Q263 394 255 382 Z M394 731 Q407 722 416 717.5 Q425 713 436 713 Q457 713 467 734 L471 754 L582 754 L567 682 Q552 645 517.5 618.5 Q483 592 436 592 Q406 592 388.5 599.5 Q371 607 350 621 Q337 631 328.5 635 Q320 639 309 639 Q289 639 278 618 L274 597 L163 597 L178 669 Q191 706 226 732.5 Q261 759 309 759 Q338 759 356.5 751.5 Q375 744 394 731 Z " />
<glyph glyph-name="odieresis" unicode="&#xf6;" horiz-adv-x="573" d="M572 423 L508 123 Q473 65 406.5 24.5 Q340 -16 237 -16 Q166 -16 115.5 5.5 Q65 27 37 59 Q9 91 1 123 L65 423 Q99 480 166 521 Q233 562 336 562 Q407 562 457.5 540 Q508 518 535.5 486.5 Q563 455 572 423 Z M255 382 L207 163 Q211 152 224.5 144.5 Q238 137 258 137 Q279 137 295 145 Q311 153 318 164 L365 383 Q363 394 349 401.5 Q335 409 315 409 Q295 409 279 401.5 Q263 394 255 382 Z M356 720 L335 620 Q319 605 296.5 594 Q274 583 236 583 Q178 583 154 620 L175 720 Q213 758 274 758 Q337 758 356 720 Z M588 720 L567 620 Q551 605 528.5 594 Q506 583 468 583 Q431 583 412 594.5 Q393 606 386 620 L407 720 Q445 758 506 758 Q566 758 588 720 Z " />
<glyph glyph-name="omacron" unicode="&#x14d;" horiz-adv-x="573" d="M572 423 L508 123 Q473 65 406.5 24.5 Q340 -16 237 -16 Q166 -16 115.5 5.5 Q65 27 37 59 Q9 91 1 123 L65 423 Q99 480 166 521 Q233 562 336 562 Q407 562 457.5 540 Q508 518 535.5 486.5 Q563 455 572 423 Z M255 382 L207 163 Q211 152 224.5 144.5 Q238 137 258 137 Q279 137 295 145 Q311 153 318 164 L365 383 Q363 394 349 401.5 Q335 409 315 409 Q295 409 279 401.5 Q263 394 255 382 Z M172 607 L200 734 L572 734 L544 607 L172 607 Z " />
<glyph glyph-name="obreve" unicode="&#x14f;" horiz-adv-x="573" d="M572 423 L508 123 Q473 65 406.5 24.5 Q340 -16 237 -16 Q166 -16 115.5 5.5 Q65 27 37 59 Q9 91 1 123 L65 423 Q99 480 166 521 Q233 562 336 562 Q407 562 457.5 540 Q508 518 535.5 486.5 Q563 455 572 423 Z M255 382 L207 163 Q211 152 224.5 144.5 Q238 137 258 137 Q279 137 295 145 Q311 153 318 164 L365 383 Q363 394 349 401.5 Q335 409 315 409 Q295 409 279 401.5 Q263 394 255 382 Z M571 690 Q542 642 489.5 616 Q437 590 366 590 Q292 590 243 617 Q194 644 178 690 L192 754 L334 754 L326 716 Q329 705 340.5 696.5 Q352 688 374 688 Q397 688 412.5 696.5 Q428 705 435 716 L443 754 L585 754 L571 690 Z " />
<glyph glyph-name="ohungarumlaut" unicode="&#x151;" horiz-adv-x="573" d="M572 423 L508 123 Q473 65 406.5 24.5 Q340 -16 237 -16 Q166 -16 115.5 5.5 Q65 27 37 59 Q9 91 1 123 L65 423 Q99 480 166 521 Q233 562 336 562 Q407 562 457.5 540 Q508 518 535.5 486.5 Q563 455 572 423 Z M255 382 L207 163 Q211 152 224.5 144.5 Q238 137 258 137 Q279 137 295 145 Q311 153 318 164 L365 383 Q363 394 349 401.5 Q335 409 315 409 Q295 409 279 401.5 Q263 394 255 382 Z M317 593 L188 593 L192 608 L255 763 L407 763 L392 697 L317 593 Z M527 593 L399 593 L403 608 L465 763 L617 763 L602 697 L527 593 Z " />
<glyph glyph-name="oslash" unicode="&#xf8;" horiz-adv-x="573" d="M586 489 L555 461 Q568 439 572 423 L508 123 Q473 65 406.5 24.5 Q340 -16 237 -16 Q145 -16 82 23 L58 0 L-25 0 L-14 58 L17 86 Q6 103 1 123 L65 423 Q99 480 166 521 Q233 562 336 562 Q427 562 490 523 L515 546 L598 546 L586 489 Z M234 286 L355 398 Q338 409 315 409 Q295 409 279 401.5 Q263 394 255 382 L234 286 Z M339 260 L218 149 Q233 137 258 137 Q279 137 295 145 Q311 153 318 164 L339 260 Z " />
<glyph glyph-name="oe" unicode="&#x153;" horiz-adv-x="866" d="M527 214 L515 158 Q519 147 533 139.5 Q547 132 567 132 Q616 132 638 174 L812 174 L795 93 Q764 54 704.5 19 Q645 -16 545 -16 Q456 -16 396 19 Q326 -16 237 -16 Q166 -16 115.5 5.5 Q65 27 37 59 Q9 91 1 123 L65 423 Q99 480 166 521 Q233 562 336 562 Q422 562 485 526 Q554 562 644 562 Q713 562 762 541 Q811 520 837 494 Q863 468 872 448 L820 214 L527 214 Z M623 414 Q604 414 588.5 406.5 Q573 399 565 389 L558 357 L554 337 L664 337 L675 388 Q672 398 657.5 406 Q643 414 623 414 Z M258 137 Q279 137 295 145 Q311 153 318 164 L363 373 L365 383 Q363 394 349 401.5 Q335 409 315 409 Q295 409 279 401.5 Q263 394 255 382 L207 163 Q211 152 224.5 144.5 Q238 137 258 137 Z " />
<glyph glyph-name="racute" unicode="&#x155;" horiz-adv-x="401" d="M438 546 L399 364 Q390 365 374 365 Q329 365 297 357.5 Q265 350 248 338 L176 0 L-22 0 L94 546 L277 546 L261 469 Q289 506 323 527 Q357 548 407 548 Q426 548 438 546 Z M357 599 L205 599 L207 614 L286 769 L476 769 L458 687 L357 599 Z " />
<glyph glyph-name="rcaron" unicode="&#x159;" horiz-adv-x="401" d="M438 546 L399 364 Q390 365 374 365 Q329 365 297 357.5 Q265 350 248 338 L176 0 L-22 0 L94 546 L277 546 L261 469 Q289 506 323 527 Q357 548 407 548 Q426 548 438 546 Z M407 594 L154 594 L117 749 L120 764 L253 764 L291 675 L364 764 L514 764 L511 749 L407 594 Z " />
<glyph glyph-name="rcommaaccent" unicode="&#x157;" horiz-adv-x="401" d="M438 546 L399 364 Q390 365 374 365 Q329 365 297 357.5 Q265 350 248 338 L176 0 L-22 0 L94 546 L277 546 L261 469 Q289 506 323 527 Q357 548 407 548 Q426 548 438 546 Z M-59 -199 L-13 -199 Q7 -199 20 -195.5 Q33 -192 40 -181 L44 -166 Q4 -166 -22 -159.5 Q-48 -153 -54 -142 L-39 -69 Q-28 -58 -2 -49.5 Q24 -41 64 -41 Q104 -41 128 -49.5 Q152 -58 160 -69 L136 -185 Q120 -217 85.5 -237 Q51 -257 -4 -257 L-71 -257 L-59 -199 Z " />
<glyph glyph-name="sacute" unicode="&#x15b;" horiz-adv-x="524" d="M532 454 L516 385 L347 385 Q343 403 328.5 413 Q314 423 291 423 Q274 423 260.5 417 Q247 411 241 401 L234 371 Q239 357 273 350 L318 340 Q401 322 437 298 Q473 274 491 245 L459 94 Q429 53 369.5 18.5 Q310 -16 215 -16 Q145 -16 96 3 Q47 22 21 47.5 Q-5 73 -13 94 L2 163 L174 163 Q178 145 193 134 Q208 123 233 123 Q252 123 266 129.5 Q280 136 288 146 L296 177 Q290 193 255 200 L209 208 Q129 224 92 250 Q55 276 38 306 L70 454 Q99 494 159 528 Q219 562 312 562 Q378 562 425 543.5 Q472 525 497 500.5 Q522 476 532 454 Z M410 599 L258 599 L260 614 L339 769 L529 769 L511 687 L410 599 Z " />
<glyph glyph-name="scircumflex" unicode="&#x15d;" horiz-adv-x="524" d="M532 454 L516 385 L347 385 Q343 403 328.5 413 Q314 423 291 423 Q274 423 260.5 417 Q247 411 241 401 L234 371 Q239 357 273 350 L318 340 Q401 322 437 298 Q473 274 491 245 L459 94 Q429 53 369.5 18.5 Q310 -16 215 -16 Q145 -16 96 3 Q47 22 21 47.5 Q-5 73 -13 94 L2 163 L174 163 Q178 145 193 134 Q208 123 233 123 Q252 123 266 129.5 Q280 136 288 146 L296 177 Q290 193 255 200 L209 208 Q129 224 92 250 Q55 276 38 306 L70 454 Q99 494 159 528 Q219 562 312 562 Q378 562 425 543.5 Q472 525 497 500.5 Q522 476 532 454 Z M530 594 L393 594 L357 683 L282 594 L137 594 L140 609 L244 764 L496 764 L533 609 L530 594 Z " />
<glyph glyph-name="scaron" unicode="&#x161;" horiz-adv-x="524" d="M532 454 L516 385 L347 385 Q343 403 328.5 413 Q314 423 291 423 Q274 423 260.5 417 Q247 411 241 401 L234 371 Q239 357 273 350 L318 340 Q401 322 437 298 Q473 274 491 245 L459 94 Q429 53 369.5 18.5 Q310 -16 215 -16 Q145 -16 96 3 Q47 22 21 47.5 Q-5 73 -13 94 L2 163 L174 163 Q178 145 193 134 Q208 123 233 123 Q252 123 266 129.5 Q280 136 288 146 L296 177 Q290 193 255 200 L209 208 Q129 224 92 250 Q55 276 38 306 L70 454 Q99 494 159 528 Q219 562 312 562 Q378 562 425 543.5 Q472 525 497 500.5 Q522 476 532 454 Z M460 594 L207 594 L170 749 L173 764 L306 764 L344 675 L417 764 L567 764 L564 749 L460 594 Z " />
<glyph glyph-name="scedilla" unicode="&#x15f;" horiz-adv-x="524" d="M241 401 L234 371 Q239 357 273 350 L318 340 Q401 322 437 298 Q473 274 491 245 L459 94 Q432 57 379 24 Q326 -9 242 -15 L230 -37 L237 -37 Q276 -37 295.5 -52 Q315 -67 318 -89 L301 -169 Q259 -236 148 -236 Q116 -236 88.5 -231.5 Q61 -227 44 -220 L86 -144 Q128 -150 151 -150 Q170 -150 184.5 -145.5 Q199 -141 204 -134 L208 -116 Q204 -104 165 -104 L105 -104 L155 -11 Q105 -4 69 15 Q33 34 13 55.5 Q-7 77 -13 94 L2 163 L174 163 Q178 145 193 134 Q208 123 233 123 Q252 123 266 129.5 Q280 136 288 146 L296 177 Q290 193 255 200 L209 208 Q129 224 92 250 Q55 276 38 306 L70 454 Q99 494 159 528 Q219 562 312 562 Q378 562 425 543.5 Q472 525 497 500.5 Q522 476 532 454 L516 385 L347 385 Q343 403 328.5 413 Q314 423 291 423 Q274 423 260.5 417 Q247 411 241 401 Z " />
<glyph glyph-name="scommaaccent" unicode="&#x219;" horiz-adv-x="524" d="M532 454 L516 385 L347 385 Q343 403 328.5 413 Q314 423 291 423 Q274 423 260.5 417 Q247 411 241 401 L234 371 Q239 357 273 350 L318 340 Q401 322 437 298 Q473 274 491 245 L459 94 Q429 53 369.5 18.5 Q310 -16 215 -16 Q145 -16 96 3 Q47 22 21 47.5 Q-5 73 -13 94 L2 163 L174 163 Q178 145 193 134 Q208 123 233 123 Q252 123 266 129.5 Q280 136 288 146 L296 177 Q290 193 255 200 L209 208 Q129 224 92 250 Q55 276 38 306 L70 454 Q99 494 159 528 Q219 562 312 562 Q378 562 425 543.5 Q472 525 497 500.5 Q522 476 532 454 Z M73 -200 L119 -200 Q139 -200 152 -196.5 Q165 -193 172 -182 L176 -167 Q136 -167 110 -160.5 Q84 -154 78 -143 L93 -70 Q104 -59 130 -50.5 Q156 -42 196 -42 Q236 -42 260 -50.5 Q284 -59 292 -70 L268 -186 Q252 -218 217.5 -238 Q183 -258 128 -258 L61 -258 L73 -200 Z " />
<glyph glyph-name="germandbls" unicode="&#xdf;" horiz-adv-x="571" d="M596 605 L556 421 Q541 395 490 363 Q516 338 529 319.5 Q542 301 546 282 L511 123 Q475 58 407 29 Q339 0 224 0 L256 153 Q285 153 298.5 157.5 Q312 162 324 177 L342 256 Q331 281 289 283 L320 429 Q338 429 354.5 436 Q371 443 383 456 L400 538 Q395 550 381 556.5 Q367 563 348 563 Q330 563 315 556 Q300 549 291 538 L176 0 L-22 0 L102 579 Q119 610 155 641.5 Q191 673 246 694.5 Q301 716 370 716 Q467 716 522 679.5 Q577 643 596 605 Z " />
<glyph glyph-name="tcaron" unicode="&#x165;" horiz-adv-x="484" d="M302 404 L248 152 Q261 137 306 137 L332 138 L303 0 Q259 -14 204 -14 Q127 -14 86 13.5 Q45 41 35 83 L104 404 L59 404 L89 546 L135 546 L158 657 L357 657 L333 546 L407 546 L377 404 L302 404 Z M499 588 L386 588 L389 603 L458 824 L606 824 L585 724 L499 588 Z " />
<glyph glyph-name="uni021B" unicode="&#x21b;" horiz-adv-x="372" d="M292 404 L238 152 Q251 137 296 137 L322 138 L293 0 Q249 -14 194 -14 Q117 -14 76 13.5 Q35 41 25 83 L94 404 L49 404 L79 546 L125 546 L148 657 L347 657 L323 546 L397 546 L367 404 L292 404 Z M24 -199 L70 -199 Q90 -199 103 -195.5 Q116 -192 123 -181 L127 -166 Q87 -166 61 -159.5 Q35 -153 29 -142 L44 -69 Q55 -58 81 -49.5 Q107 -41 147 -41 Q187 -41 211 -49.5 Q235 -58 243 -69 L219 -185 Q203 -217 168.5 -237 Q134 -257 79 -257 L12 -257 L24 -199 Z " />
<glyph glyph-name="tbar" unicode="&#x167;" horiz-adv-x="372" d="M301 404 L289 346 L365 346 L335 205 L258 205 L247 152 Q260 137 306 137 L332 138 L303 0 Q259 -14 204 -14 Q127 -14 86 13.5 Q45 41 35 83 L61 205 L17 205 L46 346 L91 346 L104 404 L59 404 L89 546 L134 546 L158 657 L356 657 L332 546 L407 546 L377 404 L301 404 Z " />
<glyph glyph-name="ugrave" unicode="&#xf9;" horiz-adv-x="569" d="M591 546 L475 0 L292 0 L302 48 Q245 -11 161 -11 Q112 -11 76.5 9.5 Q41 30 22.5 61 Q4 92 3 121 L93 546 L292 546 L211 167 Q214 158 226.5 150.5 Q239 143 258 143 Q289 143 311 158 L393 546 L591 546 Z M428 599 L285 599 L224 687 L242 769 L419 769 L430 614 L428 599 Z " />
<glyph glyph-name="uacute" unicode="&#xfa;" horiz-adv-x="569" d="M591 546 L475 0 L292 0 L302 48 Q245 -11 161 -11 Q112 -11 76.5 9.5 Q41 30 22.5 61 Q4 92 3 121 L93 546 L292 546 L211 167 Q214 158 226.5 150.5 Q239 143 258 143 Q289 143 311 158 L393 546 L591 546 Z M431 599 L279 599 L281 614 L360 769 L550 769 L532 687 L431 599 Z " />
<glyph glyph-name="ucircumflex" unicode="&#xfb;" horiz-adv-x="569" d="M591 546 L475 0 L292 0 L302 48 Q245 -11 161 -11 Q112 -11 76.5 9.5 Q41 30 22.5 61 Q4 92 3 121 L93 546 L292 546 L211 167 Q214 158 226.5 150.5 Q239 143 258 143 Q289 143 311 158 L393 546 L591 546 Z M550 594 L413 594 L377 683 L302 594 L157 594 L160 609 L264 764 L516 764 L553 609 L550 594 Z " />
<glyph glyph-name="utilde" unicode="&#x169;" horiz-adv-x="569" d="M591 546 L475 0 L292 0 L302 48 Q245 -11 161 -11 Q112 -11 76.5 9.5 Q41 30 22.5 61 Q4 92 3 121 L93 546 L292 546 L211 167 Q214 158 226.5 150.5 Q239 143 258 143 Q289 143 311 158 L393 546 L591 546 Z M393 731 Q406 722 415 717.5 Q424 713 435 713 Q456 713 466 734 L470 754 L581 754 L566 682 Q551 645 516.5 618.5 Q482 592 435 592 Q405 592 387.5 599.5 Q370 607 349 621 Q336 631 327.5 635 Q319 639 308 639 Q288 639 277 618 L273 597 L162 597 L177 669 Q190 706 225 732.5 Q260 759 308 759 Q337 759 355.5 751.5 Q374 744 393 731 Z " />
<glyph glyph-name="udieresis" unicode="&#xfc;" horiz-adv-x="569" d="M591 546 L475 0 L292 0 L302 48 Q245 -11 161 -11 Q112 -11 76.5 9.5 Q41 30 22.5 61 Q4 92 3 121 L93 546 L292 546 L211 167 Q214 158 226.5 150.5 Q239 143 258 143 Q289 143 311 158 L393 546 L591 546 Z M355 720 L334 620 Q318 605 295.5 594 Q273 583 235 583 Q177 583 153 620 L174 720 Q212 758 273 758 Q336 758 355 720 Z M587 720 L566 620 Q550 605 527.5 594 Q505 583 467 583 Q430 583 411 594.5 Q392 606 385 620 L406 720 Q444 758 505 758 Q565 758 587 720 Z " />
<glyph glyph-name="umacron" unicode="&#x16b;" horiz-adv-x="569" d="M591 546 L475 0 L292 0 L302 48 Q245 -11 161 -11 Q112 -11 76.5 9.5 Q41 30 22.5 61 Q4 92 3 121 L93 546 L292 546 L211 167 Q214 158 226.5 150.5 Q239 143 258 143 Q289 143 311 158 L393 546 L591 546 Z M171 607 L199 734 L571 734 L543 607 L171 607 Z " />
<glyph glyph-name="ubreve" unicode="&#x16d;" horiz-adv-x="569" d="M591 546 L475 0 L292 0 L302 48 Q245 -11 161 -11 Q112 -11 76.5 9.5 Q41 30 22.5 61 Q4 92 3 121 L93 546 L292 546 L211 167 Q214 158 226.5 150.5 Q239 143 258 143 Q289 143 311 158 L393 546 L591 546 Z M570 690 Q541 642 488.5 616 Q436 590 365 590 Q291 590 242 617 Q193 644 177 690 L191 754 L333 754 L325 716 Q328 705 339.5 696.5 Q351 688 373 688 Q396 688 411.5 696.5 Q427 705 434 716 L442 754 L584 754 L570 690 Z " />
<glyph glyph-name="uring" unicode="&#x16f;" horiz-adv-x="569" d="M591 546 L475 0 L292 0 L302 48 Q245 -11 161 -11 Q112 -11 76.5 9.5 Q41 30 22.5 61 Q4 92 3 121 L93 546 L292 546 L211 167 Q214 158 226.5 150.5 Q239 143 258 143 Q289 143 311 158 L393 546 L591 546 Z M528 758 L508 656 Q484 623 445.5 605 Q407 587 359 587 Q310 587 273.5 605.5 Q237 624 225 656 L246 758 Q268 790 307.5 809 Q347 828 394 828 Q443 828 479.5 809 Q516 790 528 758 Z M326 734 L315 680 Q318 672 331 664.5 Q344 657 366 657 Q388 657 404.5 664.5 Q421 672 427 680 L438 734 Q435 742 422 749.5 Q409 757 387 757 Q365 757 348.5 749.5 Q332 742 326 734 Z " />
<glyph glyph-name="uhungarumlaut" unicode="&#x171;" horiz-adv-x="569" d="M591 546 L475 0 L292 0 L302 48 Q245 -11 161 -11 Q112 -11 76.5 9.5 Q41 30 22.5 61 Q4 92 3 121 L93 546 L292 546 L211 167 Q214 158 226.5 150.5 Q239 143 258 143 Q289 143 311 158 L393 546 L591 546 Z M316 593 L187 593 L191 608 L254 763 L406 763 L391 697 L316 593 Z M526 593 L398 593 L402 608 L464 763 L616 763 L601 697 L526 593 Z " />
<glyph glyph-name="uogonek" unicode="&#x173;" horiz-adv-x="569" d="M378 -94 L373 -113 Q380 -127 409 -127 Q427 -127 449 -122 L428 -221 Q398 -234 348 -234 Q303 -234 267 -219 Q231 -204 221 -176 L240 -91 Q250 -73 278.5 -47.5 Q307 -22 343 0 L292 0 L302 48 Q245 -11 161 -11 Q112 -11 76.5 9.5 Q41 30 22.5 61 Q4 92 3 121 L93 546 L292 546 L211 167 Q214 158 226.5 150.5 Q239 143 258 143 Q289 143 311 158 L393 546 L591 546 L475 0 Q402 -57 378 -94 Z " />
<glyph glyph-name="wgrave" unicode="&#x1e81;" horiz-adv-x="817" d="M621 0 L412 0 L407 249 L404 249 L297 0 L81 0 L62 442 L84 546 L265 546 L249 222 L252 222 L389 546 L549 546 L546 222 L549 222 L673 546 L849 546 L828 442 L621 0 Z M550 599 L407 599 L346 687 L364 769 L541 769 L552 614 L550 599 Z " />
<glyph glyph-name="wacute" unicode="&#x1e83;" horiz-adv-x="817" d="M621 0 L412 0 L407 249 L404 249 L297 0 L81 0 L62 442 L84 546 L265 546 L249 222 L252 222 L389 546 L549 546 L546 222 L549 222 L673 546 L849 546 L828 442 L621 0 Z M553 599 L401 599 L403 614 L482 769 L672 769 L654 687 L553 599 Z " />
<glyph glyph-name="wcircumflex" unicode="&#x175;" horiz-adv-x="817" d="M621 0 L412 0 L407 249 L404 249 L297 0 L81 0 L62 442 L84 546 L265 546 L249 222 L252 222 L389 546 L549 546 L546 222 L549 222 L673 546 L849 546 L828 442 L621 0 Z M673 594 L536 594 L500 683 L425 594 L280 594 L283 609 L387 764 L639 764 L676 609 L673 594 Z " />
<glyph glyph-name="wdieresis" unicode="&#x1e85;" horiz-adv-x="817" d="M621 0 L412 0 L407 249 L404 249 L297 0 L81 0 L62 442 L84 546 L265 546 L249 222 L252 222 L389 546 L549 546 L546 222 L549 222 L673 546 L849 546 L828 442 L621 0 Z M478 720 L457 620 Q441 605 418.5 594 Q396 583 358 583 Q300 583 276 620 L297 720 Q335 758 396 758 Q459 758 478 720 Z M710 720 L689 620 Q673 605 650.5 594 Q628 583 590 583 Q553 583 534 594.5 Q515 606 508 620 L529 720 Q567 758 628 758 Q688 758 710 720 Z " />
<glyph glyph-name="ygrave" unicode="&#x1ef3;" horiz-adv-x="550" d="M397 546 L585 546 L563 442 L273 -102 Q236 -139 183 -158.5 Q130 -178 48 -178 Q19 -178 -8.5 -174.5 Q-36 -171 -52 -166 L-21 -27 Q1 -29 27 -29 Q85 -29 117 -6 L126 13 L60 442 L82 546 L258 546 L269 260 L272 260 L397 546 Z M413 599 L270 599 L209 687 L227 769 L404 769 L415 614 L413 599 Z " />
<glyph glyph-name="yacute" unicode="&#xfd;" horiz-adv-x="550" d="M397 546 L585 546 L563 442 L273 -102 Q236 -139 183 -158.5 Q130 -178 48 -178 Q19 -178 -8.5 -174.5 Q-36 -171 -52 -166 L-21 -27 Q1 -29 27 -29 Q85 -29 117 -6 L126 13 L60 442 L82 546 L258 546 L269 260 L272 260 L397 546 Z M416 599 L264 599 L266 614 L345 769 L535 769 L517 687 L416 599 Z " />
<glyph glyph-name="ycircumflex" unicode="&#x177;" horiz-adv-x="550" d="M397 546 L585 546 L563 442 L273 -102 Q236 -139 183 -158.5 Q130 -178 48 -178 Q19 -178 -8.5 -174.5 Q-36 -171 -52 -166 L-21 -27 Q1 -29 27 -29 Q85 -29 117 -6 L126 13 L60 442 L82 546 L258 546 L269 260 L272 260 L397 546 Z M535 594 L398 594 L362 683 L287 594 L142 594 L145 609 L249 764 L501 764 L538 609 L535 594 Z " />
<glyph glyph-name="ydieresis" unicode="&#xff;" horiz-adv-x="550" d="M397 546 L585 546 L563 442 L273 -102 Q236 -139 183 -158.5 Q130 -178 48 -178 Q19 -178 -8.5 -174.5 Q-36 -171 -52 -166 L-21 -27 Q1 -29 27 -29 Q85 -29 117 -6 L126 13 L60 442 L82 546 L258 546 L269 260 L272 260 L397 546 Z M340 720 L319 620 Q303 605 280.5 594 Q258 583 220 583 Q162 583 138 620 L159 720 Q197 758 258 758 Q321 758 340 720 Z M572 720 L551 620 Q535 605 512.5 594 Q490 583 452 583 Q415 583 396 594.5 Q377 606 370 620 L391 720 Q429 758 490 758 Q550 758 572 720 Z " />
<glyph glyph-name="zacute" unicode="&#x17a;" horiz-adv-x="500" d="M232 145 L448 145 L417 0 L-33 0 L-5 135 L260 400 L60 400 L91 546 L533 546 L507 420 L232 145 Z M392 599 L240 599 L242 614 L321 769 L511 769 L493 687 L392 599 Z " />
<glyph glyph-name="zcaron" unicode="&#x17e;" horiz-adv-x="500" d="M232 145 L448 145 L417 0 L-33 0 L-5 135 L260 400 L60 400 L91 546 L533 546 L507 420 L232 145 Z M442 594 L189 594 L152 749 L155 764 L288 764 L326 675 L399 764 L549 764 L546 749 L442 594 Z " />
<glyph glyph-name="zdotaccent" unicode="&#x17c;" horiz-adv-x="500" d="M232 145 L448 145 L417 0 L-33 0 L-5 135 L260 400 L60 400 L91 546 L533 546 L507 420 L232 145 Z M443 708 L427 638 Q412 616 383 600 Q354 584 314 584 Q274 584 251.5 600 Q229 616 224 638 L240 708 Q255 730 283.5 746 Q312 762 352 762 Q393 762 415.5 746 Q438 730 443 708 Z " />
<glyph glyph-name="eng" unicode="&#x14b;" horiz-adv-x="573" d="M570 425 L470 -45 Q441 -106 370 -143 Q299 -180 188 -180 L220 -29 Q239 -29 257 -18.5 Q275 -8 283 6 L362 379 Q357 388 345.5 395.5 Q334 403 314 403 Q278 403 258 386 L176 0 L-22 0 L94 546 L277 546 L266 493 Q328 557 413 557 Q462 557 496.5 537.5 Q531 518 549 487.5 Q567 457 570 425 Z " />
<glyph glyph-name="eth" unicode="&#xf0;" horiz-adv-x="573" d="M606 590 L567 578 Q582 556 592 526 L506 124 Q472 68 404 26 Q336 -16 236 -16 Q135 -16 76 26.5 Q17 69 -1 123 L42 325 Q54 356 85 388 Q116 420 159.5 440.5 Q203 461 249 461 Q325 461 373 424 L386 485 Q383 504 373 519 L221 472 L242 567 L301 585 Q249 618 201 634 L320 735 Q429 706 503 647 L627 684 L606 590 Z M316 163 L344 292 Q322 310 292 310 Q272 310 256 302.5 Q240 295 232 284 L206 163 Q209 153 223.5 145 Q238 137 258 137 Q277 137 293 144.5 Q309 152 316 163 Z " />
<glyph glyph-name="thorn" unicode="&#xfe;" horiz-adv-x="571" d="M571 425 L505 121 Q477 69 424 29 Q371 -11 301 -11 Q223 -11 183 39 L139 -166 L-59 -166 L127 700 L325 700 L284 509 Q346 557 420 557 Q491 557 528 516.5 Q565 476 571 425 Z M362 379 Q359 388 347 395.5 Q335 403 315 403 Q278 403 258 386 L209 160 Q226 143 260 143 Q280 143 296 150.5 Q312 158 317 166 L362 379 Z " />
<glyph glyph-name="longs" unicode="&#x17f;" horiz-adv-x="343" d="M418 721 L389 588 L361 589 Q332 589 320 584.5 Q308 580 300 574 L177 0 L-21 0 L115 638 Q138 678 190.5 706.5 Q243 735 319 735 Q353 735 379 730.5 Q405 726 418 721 Z " />
<glyph glyph-name="fi" unicode="&#xfb01;" horiz-adv-x="632" d="M447 721 L418 588 L389 589 Q346 589 328 574 L322 546 L397 546 L367 404 L292 404 L206 0 L7 0 L93 404 L49 404 L79 546 L123 546 L143 638 Q166 678 219 706.5 Q272 735 347 735 Q408 735 447 721 Z M536 0 L338 0 L454 546 L652 546 L536 0 Z M691 708 L675 638 Q660 616 631 600 Q602 584 562 584 Q522 584 499.5 600 Q477 616 472 638 L488 708 Q503 730 531.5 746 Q560 762 600 762 Q641 762 663.5 746 Q686 730 691 708 Z " />
<glyph glyph-name="fl" unicode="&#xfb02;" horiz-adv-x="629" d="M447 721 L418 588 L389 589 Q346 589 328 574 L322 546 L397 546 L367 404 L292 404 L206 0 L7 0 L93 404 L49 404 L79 546 L123 546 L143 638 Q166 678 219 706.5 Q272 735 347 735 Q408 735 447 721 Z M534 0 L336 0 L485 700 L683 700 L534 0 Z " />
<glyph glyph-name="ampersand" unicode="&#x26;" horiz-adv-x="700" d="M595 175 L646 116 L622 0 L505 0 L470 40 Q428 13 379 -1.5 Q330 -16 267 -16 Q151 -16 86 26.5 Q21 69 2 123 L36 279 Q57 309 92.5 336.5 Q128 364 176 382 Q132 437 124 460 L149 584 Q183 636 250 675.5 Q317 715 420 715 Q521 715 576.5 674 Q632 633 653 583 L639 513 L461 513 Q457 538 441.5 552.5 Q426 567 398 567 Q379 567 362.5 560 Q346 553 340 544 L330 499 Q336 480 372 437 L459 335 L472 396 L643 396 L595 175 Z M296 132 Q343 132 376 150 L269 273 Q243 267 227 248 L208 163 Q213 151 239.5 141.5 Q266 132 296 132 Z " />
<glyph glyph-name="grave" unicode="&#x60;" horiz-adv-x="486" d="M425 599 L282 599 L221 687 L239 769 L416 769 L427 614 L425 599 Z " />
<glyph glyph-name="acute" unicode="&#xb4;" horiz-adv-x="486" d="M350 599 L198 599 L200 614 L279 769 L469 769 L451 687 L350 599 Z " />
<glyph glyph-name="circumflex" unicode="&#x2c6;" horiz-adv-x="486" d="M508 594 L371 594 L335 683 L260 594 L115 594 L118 609 L222 764 L474 764 L511 609 L508 594 Z " />
<glyph glyph-name="caron" unicode="&#x2c7;" horiz-adv-x="486" d="M438 594 L185 594 L148 749 L151 764 L284 764 L322 675 L395 764 L545 764 L542 749 L438 594 Z " />
<glyph glyph-name="tilde" unicode="&#x2dc;" horiz-adv-x="486" d="M351 731 Q364 722 373 717.5 Q382 713 393 713 Q414 713 424 734 L428 754 L539 754 L524 682 Q509 645 474.5 618.5 Q440 592 393 592 Q363 592 345.5 599.5 Q328 607 307 621 Q294 631 285.5 635 Q277 639 266 639 Q246 639 235 618 L231 597 L120 597 L135 669 Q148 706 183 732.5 Q218 759 266 759 Q295 759 313.5 751.5 Q332 744 351 731 Z " />
<glyph glyph-name="dieresis" unicode="&#xa8;" horiz-adv-x="486" d="M314 720 L293 620 Q277 605 254.5 594 Q232 583 194 583 Q136 583 112 620 L133 720 Q171 758 232 758 Q295 758 314 720 Z M546 720 L525 620 Q509 605 486.5 594 Q464 583 426 583 Q389 583 370 594.5 Q351 606 344 620 L365 720 Q403 758 464 758 Q524 758 546 720 Z " />
<glyph glyph-name="breve" unicode="&#x2d8;" horiz-adv-x="486" d="M528 690 Q499 642 446.5 616 Q394 590 323 590 Q249 590 200 617 Q151 644 135 690 L149 754 L291 754 L283 716 Q286 705 297.5 696.5 Q309 688 331 688 Q354 688 369.5 696.5 Q385 705 392 716 L400 754 L542 754 L528 690 Z " />
<glyph glyph-name="ring" unicode="&#x2da;" horiz-adv-x="486" d="M487 758 L467 656 Q443 623 404.5 605 Q366 587 318 587 Q269 587 232.5 605.5 Q196 624 184 656 L205 758 Q227 790 266.5 809 Q306 828 353 828 Q402 828 438.5 809 Q475 790 487 758 Z M285 734 L274 680 Q277 672 290 664.5 Q303 657 325 657 Q347 657 363.5 664.5 Q380 672 386 680 L397 734 Q394 742 381 749.5 Q368 757 346 757 Q324 757 307.5 749.5 Q291 742 285 734 Z " />
<glyph glyph-name="hungarumlaut" unicode="&#x2dd;" horiz-adv-x="486" d="M246 593 L117 593 L121 608 L184 763 L336 763 L321 697 L246 593 Z M456 593 L328 593 L332 608 L394 763 L546 763 L531 697 L456 593 Z " />
<glyph glyph-name="dotaccent" unicode="&#x2d9;" horiz-adv-x="486" d="M438 708 L422 638 Q407 616 378 600 Q349 584 309 584 Q269 584 246.5 600 Q224 616 219 638 L235 708 Q250 730 278.5 746 Q307 762 347 762 Q388 762 410.5 746 Q433 730 438 708 Z " />
<glyph glyph-name="cedilla" unicode="&#xb8;" horiz-adv-x="486" d="M205 -36 L212 -36 Q251 -36 270.5 -51 Q290 -66 293 -88 L276 -168 Q234 -235 123 -235 Q92 -235 64 -230.5 Q36 -226 18 -219 L61 -143 Q103 -149 126 -149 Q145 -149 159.5 -144.5 Q174 -140 179 -133 L183 -115 Q179 -103 140 -103 L80 -103 L137 4 L228 4 L205 -36 Z " />
<glyph glyph-name="ogonek" unicode="&#x2db;" horiz-adv-x="486" d="M301 0 Q227 -58 205 -94 L199 -113 Q206 -127 236 -127 Q252 -127 276 -122 L254 -221 Q226 -234 174 -234 Q128 -234 92.5 -219 Q57 -204 48 -176 L66 -91 Q80 -67 123 -32.5 Q166 2 215 24 L301 0 Z " />
<glyph glyph-name="comma" unicode="&#x2c;" horiz-adv-x="257" d="M201 134 L160 -55 Q111 -147 4 -147 L-44 -147 L-27 -65 L11 -65 Q25 -65 39 -57 Q53 -49 62 -36 L66 -15 Q26 -15 4 1 Q-18 17 -23 39 L-3 134 Q11 156 38.5 172 Q66 188 106 188 Q145 188 169.5 171.5 Q194 155 201 134 Z " />
<glyph glyph-name="semicolon" unicode="&#x3b;" horiz-adv-x="268" d="M206 134 L165 -55 Q116 -147 9 -147 L-39 -147 L-22 -65 L16 -65 Q30 -65 44 -57 Q58 -49 67 -36 L71 -15 Q31 -15 9 1 Q-13 17 -18 39 L2 134 Q16 156 43.5 172 Q71 188 111 188 Q150 188 174.5 171.5 Q199 155 206 134 Z M279 474 L259 380 Q245 357 218.5 341.5 Q192 326 153 326 Q111 326 86.5 342.5 Q62 359 55 380 L75 474 Q90 496 116.5 512 Q143 528 179 528 Q223 528 248 511.5 Q273 495 279 474 Z " />
<glyph glyph-name="colon" unicode="&#x3a;" horiz-adv-x="268" d="M206 134 L186 40 Q172 17 145.5 1.5 Q119 -14 80 -14 Q38 -14 13.5 2.5 Q-11 19 -18 40 L2 134 Q17 156 43.5 172 Q70 188 106 188 Q150 188 175 171.5 Q200 155 206 134 Z M278 473 L258 379 Q244 356 217.5 340.5 Q191 325 152 325 Q110 325 85.5 341.5 Q61 358 54 379 L74 473 Q89 495 115.5 511 Q142 527 178 527 Q222 527 247 510.5 Q272 494 278 473 Z " />
<glyph glyph-name="period" unicode="&#x2e;" horiz-adv-x="257" d="M201 134 L181 40 Q167 17 140.5 1.5 Q114 -14 75 -14 Q33 -14 8.5 2.5 Q-16 19 -23 40 L-3 134 Q12 156 38.5 172 Q65 188 101 188 Q145 188 170 171.5 Q195 155 201 134 Z " />
<glyph glyph-name="ellipsis" unicode="&#x2026;" horiz-adv-x="753" d="M201 133 L181 40 Q167 19 137 2.5 Q107 -14 66 -14 Q26 -14 4 2 Q-18 18 -23 40 L-3 133 Q12 155 41 171.5 Q70 188 110 188 Q151 188 174 171.5 Q197 155 201 133 Z M449 133 L429 40 Q415 19 385 2.5 Q355 -14 314 -14 Q275 -14 252.5 2.5 Q230 19 225 40 L245 133 Q260 155 289.5 171.5 Q319 188 358 188 Q399 188 422 171.5 Q445 155 449 133 Z M697 133 L677 40 Q663 19 633 2.5 Q603 -14 562 -14 Q522 -14 500 2 Q478 18 473 40 L493 133 Q508 155 537 171.5 Q566 188 606 188 Q647 188 670 171.5 Q693 155 697 133 Z " />
<glyph glyph-name="hyphen" unicode="&#x2d;" horiz-adv-x="369" d="M338 254 L24 254 L57 410 L370 410 L338 254 Z " />
<glyph glyph-name="exclam" unicode="&#x21;" horiz-adv-x="304" d="M317 528 L227 226 L57 226 L95 528 L132 700 L354 700 L317 528 Z M224 134 L204 40 Q190 17 163.5 1.5 Q137 -14 98 -14 Q57 -14 32.5 2.5 Q8 19 1 40 L21 134 Q36 156 62.5 172 Q89 188 125 188 Q168 188 193.5 171.5 Q219 155 224 134 Z " />
<glyph glyph-name="exclamdown" unicode="&#xa1;" horiz-adv-x="304" d="M79 412 L99 506 Q113 529 139.5 544.5 Q166 560 205 560 Q246 560 271 543.5 Q296 527 302 506 L282 412 Q267 389 240.5 373.5 Q214 358 178 358 Q135 358 110 374 Q85 390 79 412 Z M-14 17 L76 320 L246 320 L208 17 L171 -154 L-51 -154 L-14 17 Z " />
<glyph glyph-name="question" unicode="&#x3f;" horiz-adv-x="550" d="M598 582 L562 410 Q538 379 469 340 L329 260 L320 222 L120 222 L144 334 L288 418 Q324 438 343 451 Q362 464 370 477 L380 522 Q376 534 361 542 Q346 550 326 550 Q301 550 281 539.5 Q261 529 251 512 L69 512 L88 608 Q130 650 197 683 Q264 716 361 716 Q468 716 524 674.5 Q580 633 598 582 Z M304 134 L285 40 Q271 17 244.5 1.5 Q218 -14 179 -14 Q137 -14 112.5 2.5 Q88 19 81 40 L101 134 Q116 156 142.5 172 Q169 188 205 188 Q248 188 273.5 171.5 Q299 155 304 134 Z " />
<glyph glyph-name="questiondown" unicode="&#xbf;" horiz-adv-x="550" d="M246 414 L266 508 Q279 531 305.5 546.5 Q332 562 371 562 Q413 562 437.5 545.5 Q462 529 469 508 L449 414 Q434 392 407.5 376 Q381 360 345 360 Q302 360 276.5 376 Q251 392 246 414 Z M-48 -35 L-12 137 Q13 170 81 208 L221 288 L230 326 L430 326 L406 214 L262 129 Q225 108 206.5 95.5 Q188 83 180 70 L170 26 Q174 13 189 5.5 Q204 -2 224 -2 Q249 -2 269 8.5 Q289 19 299 36 L481 36 L462 -60 Q420 -102 353 -135 Q286 -168 189 -168 Q82 -168 26 -126.5 Q-30 -85 -48 -35 Z " />
<glyph glyph-name="quoteleft" unicode="&#x2018;" horiz-adv-x="258" d="M54 431 L94 620 Q143 712 251 712 L299 712 L281 630 L244 630 Q229 630 215 622 Q201 614 193 601 L188 580 Q228 580 250.5 563.5 Q273 547 278 526 L257 431 Q243 409 216 393 Q189 377 149 377 Q110 377 85.5 393.5 Q61 410 54 431 Z " />
<glyph glyph-name="quoteright" unicode="&#x2019;" horiz-adv-x="258" d="M321 662 L280 473 Q231 381 124 381 L76 381 L93 463 L131 463 Q145 463 159 471 Q173 479 182 492 L186 513 Q146 513 124 529 Q102 545 97 567 L117 662 Q131 684 158.5 700 Q186 716 226 716 Q265 716 289.5 699.5 Q314 683 321 662 Z " />
<glyph glyph-name="quotedblleft" unicode="&#x201c;" horiz-adv-x="507" d="M55 431 L96 620 Q145 712 252 712 L300 712 L282 630 L245 630 Q230 630 216.5 622.5 Q203 615 194 601 L190 580 Q229 580 251.5 563.5 Q274 547 279 526 L259 431 Q245 409 217.5 393 Q190 377 150 377 Q111 377 86.5 393.5 Q62 410 55 431 Z M305 431 L345 620 Q394 712 502 712 L550 712 L532 630 L495 630 Q480 630 466 622 Q452 614 444 601 L439 580 Q479 580 501.5 563.5 Q524 547 528 526 L508 431 Q494 409 467 393 Q440 377 400 377 Q361 377 336.5 393.5 Q312 410 305 431 Z " />
<glyph glyph-name="quotedblright" unicode="&#x201d;" horiz-adv-x="507" d="M321 662 L280 473 Q231 381 124 381 L76 381 L93 463 L131 463 Q145 463 159 471 Q173 479 182 492 L186 513 Q146 513 124 529 Q102 545 97 567 L117 662 Q131 684 158.5 700 Q186 716 226 716 Q265 716 289.5 699.5 Q314 683 321 662 Z M570 662 L529 473 Q480 381 373 381 L325 381 L342 463 L380 463 Q394 463 408 471 Q422 479 431 492 L435 513 Q395 513 373 529 Q351 545 346 567 L366 662 Q380 684 407.5 700 Q435 716 475 716 Q514 716 538.5 699.5 Q563 683 570 662 Z " />
<glyph glyph-name="quotesinglbase" unicode="&#x201a;" horiz-adv-x="258" d="M209 134 L168 -55 Q119 -147 12 -147 L-36 -147 L-19 -65 L19 -65 Q33 -65 47 -57 Q61 -49 70 -36 L74 -15 Q34 -15 12 1 Q-10 17 -15 39 L5 134 Q19 156 46.5 172 Q74 188 114 188 Q153 188 177.5 171.5 Q202 155 209 134 Z " />
<glyph glyph-name="quotedblbase" unicode="&#x201e;" horiz-adv-x="507" d="M207 134 L166 -55 Q117 -147 10 -147 L-38 -147 L-21 -65 L17 -65 Q31 -65 45 -57 Q59 -49 68 -36 L72 -15 Q32 -15 10 1 Q-12 17 -17 39 L3 134 Q17 156 44.5 172 Q72 188 112 188 Q151 188 175.5 171.5 Q200 155 207 134 Z M457 134 L416 -55 Q367 -147 260 -147 L212 -147 L229 -65 L267 -65 Q281 -65 295 -57 Q309 -49 318 -36 L322 -15 Q282 -15 260 1 Q238 17 233 39 L253 134 Q267 156 294.5 172 Q322 188 362 188 Q401 188 425.5 171.5 Q450 155 457 134 Z " />
<glyph glyph-name="guilsinglleft" unicode="&#x2039;" horiz-adv-x="369" d="M185 273 L306 120 L284 17 L160 17 L13 203 L46 359 L250 546 L397 546 L376 442 L185 273 Z " />
<glyph glyph-name="guilsinglright" unicode="&#x203a;" horiz-adv-x="369" d="M326 204 L122 17 L-25 17 L-4 120 L187 290 L66 442 L88 546 L212 546 L359 359 L326 204 Z " />
<glyph glyph-name="guillemotleft" unicode="&#xab;" horiz-adv-x="653" d="M185 273 L306 120 L284 17 L160 17 L13 203 L46 359 L250 546 L397 546 L376 442 L185 273 Z M471 273 L592 120 L570 17 L446 17 L299 203 L332 359 L536 546 L683 546 L661 442 L471 273 Z " />
<glyph glyph-name="guillemotright" unicode="&#xbb;" horiz-adv-x="653" d="M324 204 L120 17 L-27 17 L-5 120 L185 290 L64 442 L86 546 L210 546 L357 359 L324 204 Z M610 204 L406 17 L259 17 L280 120 L471 290 L350 442 L372 546 L496 546 L643 359 L610 204 Z " />
<glyph glyph-name="slash" unicode="&#x2f;" horiz-adv-x="430" d="M114 -110 L-53 -110 L-30 -6 L330 731 L497 731 L475 627 L114 -110 Z " />
<glyph glyph-name="bar" unicode="&#x7c;" horiz-adv-x="316" d="M282 -130 L68 -130 L68 790 L282 790 L282 -130 Z " />
<glyph glyph-name="endash" unicode="&#x2013;" horiz-adv-x="569" d="M538 254 L24 254 L57 410 L570 410 L538 254 Z " />
<glyph glyph-name="emdash" unicode="&#x2014;" horiz-adv-x="869" d="M838 254 L24 254 L57 410 L870 410 L838 254 Z " />
<glyph glyph-name="bullet" unicode="&#x2022;" horiz-adv-x="369" d="M366 420 L331 255 Q274 181 173 181 Q122 181 84 202.5 Q46 224 31 256 L67 420 Q92 453 132 472 Q172 491 224 491 Q274 491 312 471 Q350 451 366 420 Z " />
<glyph glyph-name="parenleft" unicode="&#x28;" horiz-adv-x="357" d="M392 560 L380 560 Q354 560 335.5 547 Q317 534 308 514 L200 15 Q201 -5 215.5 -16.5 Q230 -28 253 -28 L266 -28 L236 -168 L224 -168 Q149 -168 95.5 -143 Q42 -118 12 -78.5 Q-18 -39 -24 4 L89 528 Q128 600 206 650 Q284 700 399 700 L422 700 L392 560 Z " />
<glyph glyph-name="parenright" unicode="&#x29;" horiz-adv-x="357" d="M-38 -28 L-26 -28 Q-1 -28 18 -15 Q37 -2 46 18 L154 517 Q153 537 138 548.5 Q123 560 100 560 L88 560 L118 700 L130 700 Q205 700 258.5 675 Q312 650 341.5 610.5 Q371 571 377 528 L265 4 Q226 -68 148 -118 Q70 -168 -45 -168 L-68 -168 L-38 -28 Z " />
<glyph glyph-name="bracketleft" unicode="&#x5b;" horiz-adv-x="369" d="M316 560 L189 -28 L276 -28 L246 -168 L-55 -168 L131 700 L432 700 L402 560 L316 560 Z " />
<glyph glyph-name="bracketright" unicode="&#x5d;" horiz-adv-x="369" d="M-67 -168 L-37 -28 L50 -28 L176 560 L89 560 L119 700 L420 700 L234 -168 L-67 -168 Z " />
<glyph glyph-name="braceleft" unicode="&#x7b;" horiz-adv-x="376" d="M6 -9 L37 139 Q39 148 39 161 Q39 176 32 182.5 Q25 189 11 189 L41 330 Q60 330 71 341.5 Q82 353 89 380 L121 528 Q160 603 239.5 651.5 Q319 700 441 700 L411 560 Q375 560 358.5 539.5 Q342 519 332 480 L305 355 Q275 298 212 259 Q256 224 264 163 L237 38 Q233 14 233 5 Q233 -17 244 -29 Q255 -41 283 -41 L253 -181 Q143 -181 83.5 -130.5 Q24 -80 6 -9 Z " />
<glyph glyph-name="braceright" unicode="&#x7d;" horiz-adv-x="376" d="M365 528 L333 380 Q331 372 331 358 Q331 343 338 336.5 Q345 330 360 330 L330 189 Q310 189 299 178 Q288 167 281 139 L250 -9 Q211 -84 131.5 -132.5 Q52 -181 -71 -181 L-41 -41 Q-4 -41 12 -21 Q28 -1 39 39 L66 164 Q96 221 159 260 Q114 296 106 356 L133 481 Q137 505 137 515 Q137 536 125.5 548 Q114 560 87 560 L118 700 Q228 700 287.5 649.5 Q347 599 365 528 Z " />
<glyph glyph-name="asterisk" unicode="&#x2a;" horiz-adv-x="489" d="M520 550 Q520 533 518 524 L397 509 L487 425 Q473 393 433 362 Q396 335 356 329 L304 441 L251 329 Q211 335 174 362 Q134 393 120 425 L210 509 L89 524 Q87 533 87 550 Q87 580 96 607 Q113 654 140 678 L245 620 L222 738 Q259 757 303 757 Q350 757 384 738 L361 619 L468 678 Q494 654 511 607 Q520 580 520 550 Z " />
<glyph glyph-name="dagger" unicode="&#x2020;" horiz-adv-x="656" d="M658 313 L555 313 L448 326 L431 -168 L265 -168 L248 326 L145 313 L42 313 L42 489 L145 489 L243 477 L241 528 L241 700 L456 700 L456 528 L454 477 L555 489 L658 489 L658 313 Z " />
<glyph glyph-name="daggerdbl" unicode="&#x2021;" horiz-adv-x="676" d="M432 206 L543 219 L646 219 L646 43 L543 43 L427 57 L419 -168 L253 -168 L245 57 L133 43 L30 43 L30 219 L133 219 L240 206 L235 356 L133 343 L30 343 L30 519 L133 519 L230 507 L229 528 L229 700 L444 700 L444 528 L443 507 L543 519 L646 519 L646 343 L543 343 L437 356 L432 206 Z " />
<glyph glyph-name="section" unicode="&#xa7;" horiz-adv-x="533" d="M274 560 L267 527 Q275 512 314 504 L354 495 Q435 478 477 452 Q519 426 529 403 L497 248 Q479 226 449 205 Q463 193 479 168 L448 20 Q422 -18 358.5 -53.5 Q295 -89 197 -89 Q129 -89 82 -69.5 Q35 -50 10 -25 Q-15 0 -24 20 L-11 82 L164 82 Q165 65 179 54.5 Q193 44 217 44 Q235 44 251 50.5 Q267 57 275 67 L282 99 Q275 115 235 123 L196 132 Q114 149 72 175 Q30 201 20 224 L52 379 Q74 403 101 422 Q82 438 71 459 L102 606 Q116 628 148 653 Q180 678 232 697 Q284 716 352 716 Q420 716 467.5 696.5 Q515 677 540 651.5 Q565 626 573 606 L561 545 L385 545 Q385 562 371 572.5 Q357 583 333 583 Q315 583 298.5 576.5 Q282 570 274 560 Z M286 354 L274 356 Q241 353 226 333 L217 297 Q221 289 233.5 282.5 Q246 276 263 273 L276 270 Q310 275 324 294 L332 329 Q328 338 315.5 344.5 Q303 351 286 354 Z " />
<glyph glyph-name="paragraph" unicode="&#xb6;" horiz-adv-x="678" d="M346 -100 L201 -100 L269 217 L239 217 Q162 217 113 251 Q64 285 46 337 L98 580 Q145 639 208.5 669.5 Q272 700 342 700 L517 700 L346 -100 Z M553 -100 L408 -100 L579 700 L724 700 L553 -100 Z " />
<glyph glyph-name="asciicircum" unicode="&#x5e;" horiz-adv-x="497" d="M497 342 L370 342 L289 502 L268 502 L188 342 L60 342 L60 457 L191 700 L366 700 L497 457 L497 342 Z " />
<glyph glyph-name="asciitilde" unicode="&#x7e;" horiz-adv-x="587" d="M328 445 Q367 433 396.5 426.5 Q426 420 455 420 Q484 420 509 430 Q534 440 550.5 451.5 Q567 463 567 464 L567 297 Q567 296 551.5 287 Q536 278 511.5 270.5 Q487 263 456 263 Q421 263 389.5 269.5 Q358 276 313 289 Q275 301 245.5 307.5 Q216 314 185 314 Q150 314 120 302.5 Q90 291 69.5 277.5 Q49 264 49 263 L49 425 Q49 426 68 438.5 Q87 451 118 461 Q149 471 187 471 Q220 471 252 464.5 Q284 458 328 445 Z " />
<glyph glyph-name="brokenbar" unicode="&#xa6;" horiz-adv-x="316" d="M282 380 L68 380 L68 790 L282 790 L282 380 Z M282 -130 L68 -130 L68 321 L282 321 L282 -130 Z " />
<glyph glyph-name="backslash" unicode="&#x5c;" horiz-adv-x="430" d="M316 -110 L149 -110 L105 627 L128 731 L295 731 L340 -6 L316 -110 Z " />
<glyph glyph-name="underscore" unicode="&#x5f;" horiz-adv-x="535" d="M-99 -162 L-72 -41 L474 -41 L446 -162 L-99 -162 Z " />
<glyph glyph-name="quotesingle" unicode="&#x27;" horiz-adv-x="225" d="M200 394 L76 394 L85 544 L118 700 L289 700 L256 545 L200 394 Z " />
<glyph glyph-name="quotedbl" unicode="&#x22;" horiz-adv-x="451" d="M200 394 L76 394 L85 544 L118 700 L289 700 L256 545 L200 394 Z M427 394 L303 394 L312 544 L345 700 L516 700 L483 545 L427 394 Z " />
<glyph glyph-name="at" unicode="&#x40;" horiz-adv-x="907" d="M925 453 L849 104 Q818 66 770 48 Q722 30 669 30 Q558 30 506 93 Q441 38 355 38 Q312 38 278 57 Q244 76 224 104 Q204 132 201 158 L250 389 Q273 435 323 472 Q373 509 436 509 Q510 509 546 457 L554 496 L727 496 L652 146 Q662 128 693 128 Q708 128 719 132.5 Q730 137 741 146 L803 432 Q795 473 765 513 Q735 553 677 581 Q619 609 532 609 Q428 609 336.5 560.5 Q245 512 187 426 L122 128 Q142 40 214 -8 Q286 -56 389 -56 Q487 -56 568 -14 L610 -105 Q505 -162 376 -162 Q230 -162 128.5 -93 Q27 -24 -3 99 L74 455 Q145 579 271.5 647.5 Q398 716 546 716 Q659 716 742 674 Q825 632 871 571 Q917 510 925 453 Z M427 166 Q446 166 462 172 Q478 178 488 187 L525 361 Q512 382 475 382 Q457 382 441 375 Q425 368 420 360 L384 188 Q386 181 397.5 173.5 Q409 166 427 166 Z " />
<glyph glyph-name="copyright" unicode="&#xa9;" horiz-adv-x="786" d="M776 350 Q776 249 726 165.5 Q676 82 591.5 33 Q507 -16 407 -16 Q308 -16 223.5 33 Q139 82 89 165.5 Q39 249 39 350 Q39 451 89 534.5 Q139 618 223.5 667 Q308 716 407 716 Q507 716 591.5 667 Q676 618 726 534.5 Q776 451 776 350 Z M122 350 Q122 270 159.5 203.5 Q197 137 262.5 98 Q328 59 407 59 Q487 59 552.5 98 Q618 137 655.5 203.5 Q693 270 693 350 Q693 430 655.5 496.5 Q618 563 552.5 602 Q487 641 407 641 Q328 641 262.5 602 Q197 563 159.5 496.5 Q122 430 122 350 Z M603 491 L603 427 L462 427 Q459 441 445 451.5 Q431 462 409 462 Q393 462 380.5 456 Q368 450 364 442 L364 258 Q368 250 380.5 244 Q393 238 409 238 Q431 238 445 248.5 Q459 259 462 273 L603 273 L603 208 Q580 175 534 146.5 Q488 118 406 118 Q322 118 271.5 153.5 Q221 189 203 229 L203 471 Q221 510 271.5 545.5 Q322 581 406 581 Q488 581 534.5 552.5 Q581 524 603 491 Z " />
<glyph glyph-name="registered" unicode="&#xae;" horiz-adv-x="518" d="M568 585 Q568 521 535 466 Q502 411 446.5 378.5 Q391 346 327 346 Q263 346 207 378.5 Q151 411 118 466 Q85 521 85 585 Q85 649 118 704 Q151 759 207 791.5 Q263 824 327 824 Q391 824 446.5 791.5 Q502 759 535 704 Q568 649 568 585 Z M512 585 Q512 636 487 679 Q462 722 420 747.5 Q378 773 327 773 Q276 773 233.5 747.5 Q191 722 166 679 Q141 636 141 585 Q141 534 166 491 Q191 448 233.5 422.5 Q276 397 327 397 Q378 397 420 422.5 Q462 448 487 491 Q512 534 512 585 Z M442 668 L442 587 Q433 565 407 550 L441 509 L441 459 L366 459 L328 536 L303 536 L303 459 L221 459 L221 721 L353 721 Q380 721 405.5 706.5 Q431 692 442 668 Z M303 598 L336 598 Q354 598 358 610 L358 646 Q354 657 336 657 L303 657 L303 598 Z " />
<glyph glyph-name="trademark" unicode="&#x2122;" horiz-adv-x="819" d="M301 598 L239 310 L109 310 L171 598 L90 598 L112 700 L403 700 L382 598 L301 598 Z M674 310 L714 498 L712 498 L604 310 L537 310 L510 498 L508 498 L468 310 L347 310 L430 700 L597 700 L622 536 L624 536 L718 700 L877 700 L794 310 L674 310 Z " />
<glyph glyph-name="uni2117" unicode="&#x2117;" horiz-adv-x="786" d="M761 350 Q761 249 711.5 165 Q662 81 577.5 32.5 Q493 -16 393 -16 Q293 -16 208.5 33 Q124 82 74 165.5 Q24 249 24 350 Q24 451 74 534.5 Q124 618 208.5 667 Q293 716 393 716 Q493 716 577.5 667.5 Q662 619 711.5 535 Q761 451 761 350 Z M107 350 Q107 270 145 203.5 Q183 137 248.5 98 Q314 59 393 59 Q473 59 538 98 Q603 137 640.5 203.5 Q678 270 678 350 Q678 430 640.5 496.5 Q603 563 538 602 Q473 641 393 641 Q314 641 248.5 602 Q183 563 145 496.5 Q107 430 107 350 Z M584 473 L584 339 Q568 300 529 276 Q490 252 445 252 L376 252 L376 140 L241 140 L241 560 L445 560 Q490 560 529 536 Q568 512 584 473 Z M376 461 L376 351 L421 351 Q431 351 440.5 356.5 Q450 362 454 372 L454 441 Q450 451 440.5 456 Q431 461 421 461 L376 461 Z " />
<glyph glyph-name="currency" unicode="&#xa4;" horiz-adv-x="591" d="M562 497 L545 480 Q552 471 561 453 L561 210 L546 183 L562 167 L562 73 L436 73 L420 89 Q368 71 308 71 Q245 71 197 88 L182 73 L53 73 L53 167 L69 183 Q60 197 54 210 L54 453 Q60 467 70 481 L53 497 L53 592 L182 592 L198 575 Q251 592 308 592 Q367 592 419 574 L436 592 L562 592 L562 497 Z M363 418 Q358 429 343 436.5 Q328 444 308 444 Q288 444 273 436.5 Q258 429 252 418 L252 245 Q259 234 273.5 226 Q288 218 308 218 Q327 218 342 226 Q357 234 363 245 L363 418 Z " />
<glyph glyph-name="Euro" unicode="&#x20ac;" horiz-adv-x="603" d="M327 536 L312 468 L506 468 L486 372 L291 372 L283 333 L477 333 L456 237 L262 237 L247 164 Q250 153 265 145 Q280 137 300 137 Q331 137 350.5 152 Q370 167 382 195 L559 195 L537 92 Q505 55 440.5 19.5 Q376 -16 278 -16 Q207 -16 154.5 6 Q102 28 71.5 59.5 Q41 91 32 120 L57 237 L17 237 L38 333 L77 333 L85 372 L47 372 L67 468 L106 468 L130 580 Q164 633 237 674.5 Q310 716 415 716 Q513 716 568.5 679 Q624 642 646 606 L624 505 L453 505 Q453 531 436 547 Q419 563 389 563 Q369 563 352 555 Q335 547 327 536 Z " />
<glyph glyph-name="dollar" unicode="&#x24;" horiz-adv-x="600" d="M301 527 L289 474 Q293 455 331 445 L380 433 Q470 409 513.5 377.5 Q557 346 574 307 L533 120 Q502 76 450 39.5 Q398 3 320 -10 L303 -90 L143 -90 L161 -7 Q93 8 54.5 44.5 Q16 81 2 120 L20 206 L204 206 Q206 176 224 161 Q242 146 271 146 Q293 146 311 154.5 Q329 163 339 176 L352 236 Q350 247 339 254 Q328 261 306 266 L260 279 Q172 302 129.5 332.5 Q87 363 69 402 L106 582 Q134 624 186 660.5 Q238 697 314 710 L332 791 L491 791 L473 706 Q538 690 576 654 Q614 618 626 582 L608 497 L423 497 Q419 555 363 555 Q343 555 326 546.5 Q309 538 301 527 Z " />
<glyph glyph-name="cent" unicode="&#xa2;" horiz-adv-x="553" d="M255 383 L207 163 Q211 152 225 144.5 Q239 137 258 137 Q308 137 331 180 L504 180 L486 92 Q417 9 305 -10 L288 -91 L128 -91 L147 -4 Q85 13 47.5 49 Q10 85 1 123 L65 423 Q90 468 141 505 Q192 542 267 556 L283 636 L443 636 L425 551 Q483 535 517.5 504.5 Q552 474 563 449 L545 366 L373 366 Q370 387 354 398 Q338 409 313 409 Q294 409 278.5 401.5 Q263 394 255 383 Z " />
<glyph glyph-name="sterling" unicode="&#xa3;" horiz-adv-x="609" d="M328 536 L299 402 L507 402 L483 287 L274 287 L257 208 Q249 192 235.5 177 Q222 162 219 158 L552 158 L518 0 L-23 0 L5 133 Q14 134 24 140.5 Q34 147 42 159 L69 287 L30 287 L54 402 L93 402 L131 580 Q166 633 239 674.5 Q312 716 416 716 Q485 716 534.5 696 Q584 676 610 651 Q636 626 647 606 L625 505 L453 505 Q451 532 436 547.5 Q421 563 391 563 Q371 563 353.5 555 Q336 547 328 536 Z " />
<glyph glyph-name="florin" unicode="&#x192;" horiz-adv-x="412" d="M354 549 L347 517 L424 517 L394 375 L316 375 L219 -81 Q195 -123 145 -151.5 Q95 -180 22 -180 Q-12 -180 -41 -175.5 Q-70 -171 -85 -166 L-57 -35 L-18 -35 Q20 -35 35 -15 L118 375 L66 375 L96 517 L149 517 L170 616 Q193 657 243.5 686 Q294 715 367 715 Q400 715 429 710.5 Q458 706 473 700 L445 569 L406 569 Q367 569 354 549 Z " />
<glyph glyph-name="yen" unicode="&#xa5;" horiz-adv-x="618" d="M436 293 L596 293 L576 196 L396 196 L354 0 L139 0 L181 196 L10 196 L30 293 L194 293 L176 348 L42 348 L63 444 L144 444 L98 586 L122 700 L305 700 L350 475 L353 475 L494 700 L679 700 L655 586 L549 444 L630 444 L609 348 L477 348 L436 293 Z " />
<glyph glyph-name="uni20A8" unicode="&#x20a8;" horiz-adv-x="509" d="M562 604 L479 604 Q488 591 491 579 L477 511 L542 511 L521 415 L457 415 L446 364 Q420 322 372.5 291 Q325 260 274 249 L389 104 L368 0 L204 0 L29 241 L56 364 L176 364 Q226 364 247 394 L251 415 L67 415 L88 511 L271 511 L276 533 Q272 546 257.5 554 Q243 562 221 562 L99 562 L128 700 L582 700 L562 604 Z " />
<glyph glyph-name="uni20BA" unicode="&#x20ba;" horiz-adv-x="605" d="M560 211 L538 110 Q522 87 489 62 Q456 37 402 18.5 Q348 0 278 0 L22 0 L62 190 L-2 161 L22 271 L86 300 L97 355 L33 327 L56 437 L121 465 L171 700 L376 700 L348 565 L518 640 L494 530 L324 455 L313 400 L482 475 L458 364 L289 290 L260 153 L300 153 Q356 153 383 211 L560 211 Z " />
<glyph glyph-name="uni20BD" unicode="&#x20bd;" horiz-adv-x="626" d="M666 580 L624 377 Q585 320 524.5 288.5 Q464 257 384 257 L273 257 L264 215 L484 215 L464 119 L243 119 L217 0 L3 0 L29 119 L-13 119 L8 215 L49 215 L58 257 L17 257 L46 394 L87 394 L153 700 L463 700 Q533 700 587.5 668.5 Q642 637 666 580 Z M447 515 Q443 529 428 536.5 Q413 544 392 544 L334 544 L302 394 L357 394 Q407 394 427 423 L447 515 Z " />
<glyph glyph-name="ordfeminine" unicode="&#xaa;" horiz-adv-x="405" d="M436 614 L380 352 L271 352 L276 374 Q234 343 184 343 Q151 343 125.5 352 Q100 361 86 374 Q72 387 69 398 L90 500 Q105 524 136 543.5 Q167 563 214 563 L309 563 L316 598 Q314 611 302.5 619.5 Q291 628 273 628 Q255 628 241 619.5 Q227 611 219 597 L117 597 L126 639 Q145 667 183 689.5 Q221 712 284 712 Q351 712 391 682.5 Q431 653 436 614 Z M229 425 Q262 425 283 442 L293 491 L242 491 Q213 491 196 472 L191 444 Q192 437 202 431 Q212 425 229 425 Z " />
<glyph glyph-name="ordmasculine" unicode="&#xba;" horiz-adv-x="412" d="M443 614 L406 442 Q384 400 341 371.5 Q298 343 232 343 Q166 343 125 373 Q84 403 77 442 L115 614 Q138 655 181.5 683.5 Q225 712 290 712 Q335 712 368.5 697.5 Q402 683 421 660.5 Q440 638 443 614 Z M227 595 L197 459 Q200 447 211 439.5 Q222 432 240 432 Q258 432 272.5 439.5 Q287 447 293 459 L323 595 Q321 608 309.5 616.5 Q298 625 281 625 Q263 625 248.5 616.5 Q234 608 227 595 Z " />
<glyph glyph-name="numbersign" unicode="&#x23;" horiz-adv-x="559" d="M475 319 L513 319 L484 179 L423 179 L356 0 L219 0 L240 104 L269 179 L193 179 L126 0 L-10 0 L11 104 L40 179 L1 179 L31 319 L92 319 L119 392 L81 392 L112 532 L171 532 L234 700 L371 700 L350 596 L326 532 L401 532 L463 700 L600 700 L579 596 L555 532 L593 532 L563 392 L503 392 L475 319 Z M348 392 L273 392 L246 319 L321 319 L348 392 Z " />
<glyph glyph-name="uni2116" unicode="&#x2116;" horiz-adv-x="1057" d="M1106 598 L1073 446 Q1044 404 987.5 370 Q931 336 851 336 Q770 336 728 370 Q686 404 675 446 L708 598 Q735 641 792 674.5 Q849 708 930 708 Q1010 708 1053 674.5 Q1096 641 1106 598 Z M529 0 L318 0 L258 330 L255 330 L184 0 L-14 0 L135 700 L346 700 L407 369 L410 369 L480 700 L679 700 L529 0 Z M850 572 L828 472 Q831 462 843.5 454.5 Q856 447 875 447 Q893 447 907.5 454.5 Q922 462 930 472 L952 572 Q949 583 937 590 Q925 597 907 597 Q888 597 872.5 590 Q857 583 850 572 Z M1017 186 L619 186 L645 305 L1043 305 L1017 186 Z " />
<glyph glyph-name="zero" unicode="0" horiz-adv-x="600" d="M629 580 L530 120 Q496 67 423.5 25.5 Q351 -16 249 -16 Q178 -16 126 5.5 Q74 27 43.5 58.5 Q13 90 3 120 L102 580 Q136 633 209 674.5 Q282 716 385 716 Q456 716 507.5 694.5 Q559 673 588.5 642 Q618 611 629 580 Z M299 536 L218 164 Q222 153 237 145 Q252 137 272 137 Q292 137 309.5 145 Q327 153 334 164 L415 536 Q412 547 396 555 Q380 563 360 563 Q340 563 323.5 555 Q307 547 299 536 Z " />
<glyph glyph-name="one" unicode="1" horiz-adv-x="466" d="M410 136 L382 0 L-18 0 L11 136 L112 136 L190 502 L82 464 L113 614 L286 700 L438 700 L317 136 L410 136 Z " />
<glyph glyph-name="two" unicode="2" horiz-adv-x="576" d="M608 580 L575 421 Q556 386 524 359.5 Q492 333 421 298 L330 253 Q279 228 253.5 213 Q228 198 219 185 L215 162 L520 162 L486 0 L-26 0 L22 228 Q61 299 188 364 L300 420 Q339 439 356.5 451.5 Q374 464 382 479 L394 537 Q388 548 374 555.5 Q360 563 341 563 Q287 563 261 505 L82 505 L103 606 Q140 648 203 682 Q266 716 365 716 Q436 716 488 694.5 Q540 673 569.5 642 Q599 611 608 580 Z " />
<glyph glyph-name="three" unicode="3" horiz-adv-x="572" d="M603 582 L571 430 Q548 396 470 361 Q496 344 515.5 322.5 Q535 301 541 282 L506 120 Q473 67 400.5 25.5 Q328 -16 224 -16 Q126 -16 68.5 20.5 Q11 57 -11 94 L12 195 L185 195 Q185 168 201.5 152.5 Q218 137 247 137 Q267 137 283.5 144.5 Q300 152 310 164 L327 247 Q326 263 311.5 273 Q297 283 272 283 L180 283 L211 428 L301 428 Q325 428 344 437 Q363 446 372 460 L389 538 Q383 549 369.5 556 Q356 563 336 563 Q305 563 288 548 Q271 533 258 506 L79 506 L100 608 Q131 645 196.5 680.5 Q262 716 360 716 Q430 716 481.5 694.5 Q533 673 563 642 Q593 611 603 582 Z " />
<glyph glyph-name="four" unicode="4" horiz-adv-x="612" d="M594 280 L561 129 L496 129 L470 0 L273 0 L300 129 L-5 129 L26 275 L331 700 L619 700 L530 280 L594 280 Z M380 512 L218 280 L333 280 L383 512 L380 512 Z " />
<glyph glyph-name="five" unicode="5" horiz-adv-x="561" d="M283 537 L256 415 Q308 448 379 448 Q443 448 489 418 Q535 388 546 349 L491 94 Q460 53 397 18.5 Q334 -16 235 -16 Q165 -16 114.5 3 Q64 22 35.5 47.5 Q7 73 -3 94 L20 195 L193 195 Q193 169 209.5 153 Q226 137 255 137 Q275 137 291.5 144.5 Q308 152 317 164 L344 283 Q338 295 325 302.5 Q312 310 294 310 Q255 310 228 281 L39 281 L129 700 L620 700 L585 537 L283 537 Z " />
<glyph glyph-name="six" unicode="6" horiz-adv-x="583" d="M299 536 L273 415 Q331 447 397 447 Q462 447 506.5 418 Q551 389 562 347 L508 94 Q493 72 460 47 Q427 22 373.5 3 Q320 -16 250 -16 Q179 -16 126.5 5.5 Q74 27 44 58.5 Q14 90 4 120 L102 580 Q136 633 208 674.5 Q280 716 382 716 Q451 716 501.5 696.5 Q552 677 580 651.5 Q608 626 618 606 L596 505 L423 505 Q418 563 361 563 Q341 563 324 555 Q307 547 299 536 Z M247 294 L218 164 Q222 153 236.5 145 Q251 137 271 137 Q291 137 309 145 Q327 153 334 164 L360 282 Q356 293 341.5 300.5 Q327 308 305 308 Q277 308 247 294 Z " />
<glyph glyph-name="seven" unicode="7" horiz-adv-x="527" d="M213 0 L27 0 L51 114 L351 538 L74 538 L109 700 L597 700 L566 554 L213 0 Z " />
<glyph glyph-name="eight" unicode="8" horiz-adv-x="599" d="M626 584 L592 421 Q568 390 523 368 Q559 341 573 302 L534 120 Q499 67 429 25.5 Q359 -16 248 -16 Q140 -16 81 26 Q22 68 0 120 L39 303 Q64 336 117 361 Q85 387 72 421 L106 584 Q138 634 208 675 Q278 716 381 716 Q454 716 506.5 694 Q559 672 588 641.5 Q617 611 626 584 Z M286 471 Q296 449 328 440 L351 435 Q383 446 397 469 L412 537 Q407 548 393.5 556 Q380 564 360 564 Q324 564 301 539 L286 471 Z M358 257 Q351 279 309 287 L286 293 Q267 286 253.5 275.5 Q240 265 235 256 L215 165 Q220 153 235.5 144.5 Q251 136 273 136 Q316 136 338 166 L358 257 Z " />
<glyph glyph-name="nine" unicode="9" horiz-adv-x="583" d="M612 580 L514 120 Q480 67 408 25.5 Q336 -16 233 -16 Q164 -16 114 3.5 Q64 23 36 48.5 Q8 74 -2 94 L19 195 L192 195 Q194 168 209.5 152.5 Q225 137 254 137 Q274 137 291 145 Q308 153 317 164 L340 274 Q281 243 217 243 Q152 243 107 272 Q62 301 51 342 L107 606 Q135 644 200.5 680 Q266 716 365 716 Q436 716 488.5 694.5 Q541 673 571.5 641.5 Q602 610 612 580 Z M367 395 L397 536 Q393 547 378.5 555 Q364 563 344 563 Q324 563 306 555 Q288 547 281 536 L253 408 Q257 397 271.5 389.5 Q286 382 308 382 Q338 382 367 395 Z " />
<glyph glyph-name="uni00A0" unicode="&#xa0;" horiz-adv-x="201" d="" />
<glyph glyph-name="fraction" unicode="&#x2044;" horiz-adv-x="207" d="M-125 0 L-230 0 L-213 80 L366 700 L469 700 L453 620 L-125 0 Z " />
<glyph glyph-name="onequarter" unicode="&#xbc;" horiz-adv-x="943" d="M242 0 L137 0 L154 80 L733 700 L836 700 L820 620 L242 0 Z M328 369 L310 280 L43 280 L61 369 L126 369 L174 588 L108 587 L125 669 L218 700 L337 700 L266 369 L328 369 Z M883 173 L860 71 L816 71 L802 0 L669 0 L683 71 L470 71 L492 169 L702 420 L891 420 L839 173 L883 173 Z M628 173 L706 173 L734 301 L731 301 L628 173 Z " />
<glyph glyph-name="onehalf" unicode="&#xbd;" horiz-adv-x="989" d="M330 369 L312 280 L45 280 L63 369 L128 369 L176 588 L110 587 L127 669 L220 700 L339 700 L268 369 L330 369 Z M242 0 L137 0 L154 80 L733 700 L836 700 L820 620 L242 0 Z M960 347 L941 259 Q929 236 905 219 Q881 202 831 177 L771 148 Q719 123 706 110 L910 110 L887 0 L539 0 L563 113 Q576 138 605 162.5 Q634 187 672 207 L750 248 Q758 252 772 259 Q786 266 794 271 Q802 276 807 282 L813 313 Q803 325 776 325 Q756 325 741.5 316 Q727 307 723 297 L602 297 L616 365 Q634 388 679 409.5 Q724 431 792 431 Q860 431 903 405 Q946 379 960 347 Z " />
<glyph glyph-name="threequarters" unicode="&#xbe;" horiz-adv-x="977" d="M278 0 L173 0 L190 80 L769 700 L872 700 L856 620 L278 0 Z M915 173 L892 71 L848 71 L834 0 L701 0 L715 71 L502 71 L524 169 L734 420 L923 420 L871 173 L915 173 Z M660 173 L738 173 L766 301 L763 301 L660 173 Z M463 628 L443 535 Q435 525 418.5 514 Q402 503 380 494 Q414 478 427 451 L406 352 Q383 320 335 295 Q287 270 217 270 Q150 270 108 292 Q66 314 52 334 L67 402 L187 402 Q188 391 200 383 Q212 375 230 375 Q259 375 274 387 L283 428 Q276 443 245 443 L183 443 L205 541 L266 541 Q279 541 290.5 544.5 Q302 548 308 553 L317 593 Q314 598 304 601.5 Q294 605 281 605 Q262 605 248.5 597.5 Q235 590 228 579 L108 579 L123 647 Q142 670 183.5 690 Q225 710 294 710 Q342 710 378 697 Q414 684 435.5 665 Q457 646 463 628 Z " />
<glyph glyph-name="fiveeighths" unicode="&#x215d;" horiz-adv-x="1029" d="M939 214 Q969 193 978 169 L957 72 Q934 39 887 14.5 Q840 -10 770 -10 Q722 -10 686 3 Q650 16 628 35 Q606 54 599 72 L619 169 Q641 200 679 221 Q661 233 648 249 L673 365 Q691 386 734.5 408 Q778 430 845 430 Q912 430 951 408.5 Q990 387 1008 365 L983 249 Q969 231 939 214 Z M780 268 Q793 259 818 259 Q832 259 843 262 Q854 265 858 268 L871 320 Q866 324 856 327 Q846 330 832 330 Q807 330 792 320 L780 268 Z M837 163 Q833 167 823 170 Q813 173 800 173 Q786 173 774 170 Q762 167 758 163 L744 100 Q746 96 757 93 Q768 90 782 90 Q795 90 806.5 93 Q818 96 824 100 L837 163 Z M440 590 L235 590 L223 532 Q255 554 307 554 Q350 554 380.5 537.5 Q411 521 421 497 L386 334 Q368 311 325.5 290.5 Q283 270 215 270 Q168 270 132.5 281.5 Q97 293 76.5 308 Q56 323 49 334 L63 402 L183 402 Q184 391 196.5 383 Q209 375 228 375 Q241 375 252.5 378.5 Q264 382 270 387 L284 450 Q280 454 270.5 457.5 Q261 461 247 461 Q234 461 222 456.5 Q210 452 205 447 L76 447 L130 700 L464 700 L440 590 Z M290 0 L185 0 L202 80 L781 700 L884 700 L868 620 L290 0 Z " />
<glyph glyph-name="oneeighth" unicode="&#x215b;" horiz-adv-x="987" d="M246 0 L141 0 L158 80 L737 700 L840 700 L824 620 L246 0 Z M325 369 L307 280 L40 280 L58 369 L123 369 L171 588 L105 587 L122 669 L215 700 L334 700 L263 369 L325 369 Z M895 214 Q925 193 934 169 L913 72 Q890 39 843 14.5 Q796 -10 726 -10 Q678 -10 642 3 Q606 16 584 35 Q562 54 555 72 L575 169 Q597 200 635 221 Q617 233 604 249 L629 365 Q647 386 690.5 408 Q734 430 801 430 Q868 430 907 408.5 Q946 387 964 365 L939 249 Q925 231 895 214 Z M736 268 Q749 259 774 259 Q788 259 799 262 Q810 265 814 268 L827 320 Q822 324 812 327 Q802 330 788 330 Q763 330 748 320 L736 268 Z M793 163 Q789 167 779 170 Q769 173 756 173 Q742 173 730 170 Q718 167 714 163 L700 100 Q702 96 713 93 Q724 90 738 90 Q751 90 762.5 93 Q774 96 780 100 L793 163 Z " />
<glyph glyph-name="seveneighths" unicode="&#x215e;" horiz-adv-x="963" d="M876 214 Q906 193 915 169 L894 72 Q871 39 824 14.5 Q777 -10 707 -10 Q659 -10 623 3 Q587 16 565 35 Q543 54 536 72 L556 169 Q578 200 616 221 Q598 233 585 249 L610 365 Q628 386 671.5 408 Q715 430 782 430 Q849 430 888 408.5 Q927 387 945 365 L920 249 Q906 231 876 214 Z M717 268 Q730 259 755 259 Q769 259 780 262 Q791 265 795 268 L808 320 Q803 324 793 327 Q783 330 769 330 Q744 330 729 320 L717 268 Z M774 163 Q770 167 760 170 Q750 173 737 173 Q723 173 711 170 Q699 167 695 163 L681 100 Q683 96 694 93 Q705 90 719 90 Q732 90 743.5 93 Q755 96 761 100 L774 163 Z M229 280 L100 280 L115 356 L294 587 L294 590 L110 590 L134 700 L461 700 L442 607 L229 280 Z M218 0 L113 0 L130 80 L709 700 L812 700 L796 620 L218 0 Z " />
<glyph glyph-name="threeeighths" unicode="&#x215c;" horiz-adv-x="1018" d="M928 214 Q958 193 967 169 L946 72 Q923 39 876 14.5 Q829 -10 759 -10 Q711 -10 675 3 Q639 16 617 35 Q595 54 588 72 L608 169 Q630 200 668 221 Q650 233 637 249 L662 365 Q680 386 723.5 408 Q767 430 834 430 Q901 430 940 408.5 Q979 387 997 365 L972 249 Q958 231 928 214 Z M769 268 Q782 259 807 259 Q821 259 832 262 Q843 265 847 268 L860 320 Q855 324 845 327 Q835 330 821 330 Q796 330 781 320 L769 268 Z M826 163 Q822 167 812 170 Q802 173 789 173 Q775 173 763 170 Q751 167 747 163 L733 100 Q735 96 746 93 Q757 90 771 90 Q784 90 795.5 93 Q807 96 813 100 L826 163 Z M461 628 L441 535 Q433 525 416.5 514 Q400 503 378 494 Q412 478 425 451 L404 352 Q381 320 333 295 Q285 270 215 270 Q148 270 106 292 Q64 314 50 334 L65 402 L185 402 Q186 391 198 383 Q210 375 228 375 Q257 375 272 387 L281 428 Q274 443 243 443 L181 443 L203 541 L264 541 Q277 541 288.5 544.5 Q300 548 306 553 L315 593 Q312 598 302 601.5 Q292 605 279 605 Q260 605 246.5 597.5 Q233 590 226 579 L106 579 L121 647 Q140 670 181.5 690 Q223 710 292 710 Q340 710 376 697 Q412 684 433.5 665 Q455 646 461 628 Z M286 0 L181 0 L198 80 L777 700 L880 700 L864 620 L286 0 Z " />
<glyph glyph-name="twothirds" unicode="&#x2154;" horiz-adv-x="1071" d="M1032 348 L1012 255 Q1004 245 987.5 234 Q971 223 949 214 Q983 198 996 171 L975 72 Q952 40 904 15 Q856 -10 786 -10 Q719 -10 677 12 Q635 34 621 54 L636 122 L756 122 Q757 111 769 103 Q781 95 799 95 Q828 95 843 107 L852 148 Q845 163 814 163 L752 163 L774 261 L835 261 Q848 261 859.5 264.5 Q871 268 877 273 L886 313 Q883 318 873 321.5 Q863 325 850 325 Q831 325 817.5 317.5 Q804 310 797 299 L677 299 L692 367 Q711 390 752.5 410 Q794 430 863 430 Q911 430 947 417 Q983 404 1004.5 385 Q1026 366 1032 348 Z M462 627 L443 539 Q431 516 407 499 Q383 482 333 457 L273 428 Q221 403 208 390 L412 390 L389 280 L41 280 L65 393 Q78 418 107 442.5 Q136 467 174 487 L252 528 Q260 532 274 539 Q288 546 296 551 Q304 556 309 562 L315 593 Q305 605 278 605 Q258 605 243.5 596 Q229 587 225 577 L104 577 L118 645 Q136 668 181 689.5 Q226 711 294 711 Q362 711 405 685 Q448 659 462 627 Z M318 0 L213 0 L230 80 L809 700 L912 700 L896 620 L318 0 Z " />
<glyph glyph-name="uniE000" unicode="&#xe000;" horiz-adv-x="1060" d="M295 0 L190 0 L207 80 L786 700 L889 700 L873 620 L295 0 Z M247 594 L233 528 Q272 549 316 549 Q361 549 391.5 533 Q422 517 433 493 L400 334 Q379 310 337 290 Q295 270 227 270 Q158 270 113.5 296 Q69 322 56 352 L115 628 Q138 661 186 685.5 Q234 710 305 710 Q371 710 412 688 Q453 666 466 646 L452 582 L330 582 Q329 592 318 598.5 Q307 605 289 605 Q275 605 263.5 601.5 Q252 598 247 594 Z M216 449 L201 380 Q203 376 214 373 Q225 370 239 370 Q252 370 263.5 373 Q275 376 281 380 L295 446 Q293 450 282.5 453 Q272 456 256 456 Q234 456 216 449 Z M944 214 Q974 193 983 169 L962 72 Q939 39 892 14.5 Q845 -10 775 -10 Q727 -10 691 3 Q655 16 633 35 Q611 54 604 72 L624 169 Q646 200 684 221 Q666 233 653 249 L678 365 Q696 386 739.5 408 Q783 430 850 430 Q917 430 956 408.5 Q995 387 1013 365 L988 249 Q974 231 944 214 Z M785 268 Q798 259 823 259 Q837 259 848 262 Q859 265 863 268 L876 320 Q871 324 861 327 Q851 330 837 330 Q812 330 797 320 L785 268 Z M842 163 Q838 167 828 170 Q818 173 805 173 Q791 173 779 170 Q767 167 763 163 L749 100 Q751 96 762 93 Q773 90 787 90 Q800 90 811.5 93 Q823 96 829 100 L842 163 Z " />
<glyph glyph-name="uniE001" unicode="&#xe001;" horiz-adv-x="1294" d="M325 369 L307 280 L40 280 L58 369 L123 369 L171 588 L105 587 L122 669 L215 700 L334 700 L263 369 L325 369 Z M1051 314 L1037 248 Q1076 269 1120 269 Q1165 269 1195.5 253 Q1226 237 1237 213 L1204 54 Q1183 30 1141 10 Q1099 -10 1031 -10 Q962 -10 917.5 16 Q873 42 860 72 L919 348 Q942 381 990 405.5 Q1038 430 1109 430 Q1175 430 1216 408 Q1257 386 1270 366 L1256 302 L1134 302 Q1133 312 1122 318.5 Q1111 325 1093 325 Q1079 325 1067.5 321.5 Q1056 318 1051 314 Z M1020 169 L1005 100 Q1007 96 1018 93 Q1029 90 1043 90 Q1056 90 1067.5 93 Q1079 96 1085 100 L1099 166 Q1097 170 1086.5 173 Q1076 176 1060 176 Q1038 176 1020 169 Z M230 0 L125 0 L142 80 L721 700 L824 700 L808 620 L230 0 Z M830 89 L812 0 L545 0 L563 89 L628 89 L676 308 L610 307 L627 389 L720 420 L839 420 L768 89 L830 89 Z " />
<glyph glyph-name="percent" unicode="&#x25;" horiz-adv-x="927" d="M470 612 L432 438 Q408 397 361.5 369 Q315 341 244 341 Q173 341 130.5 369.5 Q88 398 76 438 L113 612 Q139 654 185.5 682 Q232 710 303 710 Q374 710 416 681 Q458 652 470 612 Z M813 620 L217 0 L131 0 L148 80 L745 700 L830 700 L813 620 Z M249 594 L220 456 Q222 449 232 444.5 Q242 440 255 440 Q270 440 281.5 444.5 Q293 449 298 456 L327 594 Q325 601 315 606 Q305 611 291 611 Q278 611 266 606 Q254 601 249 594 Z M883 262 L845 88 Q821 46 774.5 18 Q728 -10 657 -10 Q586 -10 544 18.5 Q502 47 489 88 L526 262 Q552 303 598.5 331 Q645 359 716 359 Q788 359 829.5 330.5 Q871 302 883 262 Z M662 244 L633 106 Q635 99 645 94 Q655 89 668 89 Q682 89 693.5 94 Q705 99 711 106 L740 244 Q738 251 728.5 255.5 Q719 260 705 260 Q691 260 679 255.5 Q667 251 662 244 Z " />
<glyph glyph-name="perthousand" unicode="&#x2030;" horiz-adv-x="1324" d="M470 612 L432 438 Q408 397 361.5 369 Q315 341 244 341 Q173 341 130.5 369.5 Q88 398 76 438 L113 612 Q139 654 185.5 682 Q232 710 303 710 Q374 710 416 681 Q458 652 470 612 Z M813 620 L217 0 L131 0 L148 80 L745 700 L830 700 L813 620 Z M249 594 L220 456 Q222 449 232 444.5 Q242 440 255 440 Q270 440 281.5 444.5 Q293 449 298 456 L327 594 Q325 601 315 606 Q305 611 291 611 Q278 611 266 606 Q254 601 249 594 Z M883 262 L845 88 Q821 46 774.5 18 Q728 -10 657 -10 Q586 -10 544 18.5 Q502 47 489 88 L526 262 Q552 303 598.5 331 Q645 359 716 359 Q788 359 829.5 330.5 Q871 302 883 262 Z M1281 262 L1243 88 Q1219 47 1172.5 18.5 Q1126 -10 1055 -10 Q984 -10 941.5 19 Q899 48 886 88 L924 262 Q948 303 995.5 331 Q1043 359 1114 359 Q1185 359 1227 330.5 Q1269 302 1281 262 Z M662 244 L633 106 Q635 99 645 94 Q655 89 668 89 Q682 89 693.5 94 Q705 99 711 106 L740 244 Q738 251 728.5 255.5 Q719 260 705 260 Q691 260 679 255.5 Q667 251 662 244 Z M1060 244 L1031 106 Q1033 99 1042.5 94 Q1052 89 1066 89 Q1080 89 1091 94 Q1102 99 1108 106 L1137 244 Q1135 251 1126 255.5 Q1117 260 1102 260 Q1089 260 1077 255.5 Q1065 251 1060 244 Z " />
<glyph glyph-name="plus" unicode="&#x2b;" horiz-adv-x="589" d="M373 254 L373 65 L215 65 L215 254 L28 254 L28 410 L215 410 L215 598 L373 598 L373 410 L561 410 L561 254 L373 254 Z " />
<glyph glyph-name="minus" unicode="&#x2212;" horiz-adv-x="589" d="M40 254 L40 410 L573 410 L573 254 L40 254 Z " />
<glyph glyph-name="plusminus" unicode="&#xb1;" horiz-adv-x="589" d="M561 358 L373 358 L373 196 L215 196 L215 358 L28 358 L28 514 L215 514 L215 675 L373 675 L373 514 L561 514 L561 358 Z M561 164 L561 8 L28 8 L28 164 L561 164 Z " />
<glyph glyph-name="multiply" unicode="&#xd7;" horiz-adv-x="589" d="M420 333 L574 176 L574 73 L457 73 L309 220 L161 73 L41 73 L41 176 L196 333 L41 488 L41 592 L161 592 L309 444 L457 592 L574 592 L574 488 L420 333 Z " />
<glyph glyph-name="divide" unicode="&#xf7;" horiz-adv-x="589" d="M409 593 L409 500 Q400 478 374 461.5 Q348 445 307 445 Q267 445 241.5 461.5 Q216 478 206 500 L206 593 Q216 615 241.5 631.5 Q267 648 307 648 Q348 648 374 631.5 Q400 615 409 593 Z M574 254 L41 254 L41 410 L574 410 L574 254 Z M409 165 L409 71 Q400 50 374 33.5 Q348 17 307 17 Q267 17 241.5 33.5 Q216 50 206 71 L206 165 Q216 187 241.5 203 Q267 219 307 219 Q348 219 374 203 Q400 187 409 165 Z " />
<glyph glyph-name="equal" unicode="&#x3d;" horiz-adv-x="589" d="M40 145 L40 301 L573 301 L573 145 L40 145 Z M40 364 L40 520 L573 520 L573 364 L40 364 Z " />
<glyph glyph-name="notequal" unicode="&#x2260;" horiz-adv-x="589" d="M373 301 L573 301 L573 145 L314 145 L284 65 L127 65 L157 145 L39 145 L39 301 L215 301 L239 364 L39 364 L39 520 L297 520 L327 598 L484 598 L455 520 L573 520 L573 364 L397 364 L373 301 Z " />
<glyph glyph-name="approxequal" unicode="&#x2248;" horiz-adv-x="589" d="M324 300 Q363 288 392.5 281.5 Q422 275 451 275 Q480 275 505 285 Q530 295 546.5 306.5 Q563 318 563 319 L563 152 Q563 151 547.5 142 Q532 133 507.5 125.5 Q483 118 452 118 Q417 118 385.5 124.5 Q354 131 309 144 Q271 156 241.5 162.5 Q212 169 181 169 Q146 169 116 157.5 Q86 146 65.5 132.5 Q45 119 45 118 L45 280 Q45 281 64 293.5 Q83 306 114 316 Q145 326 183 326 Q216 326 248 319.5 Q280 313 324 300 Z M324 521 Q363 509 392.5 502.5 Q422 496 451 496 Q480 496 505 506 Q530 516 546.5 527.5 Q563 539 563 540 L563 373 Q563 372 547.5 363 Q532 354 507.5 346.5 Q483 339 452 339 Q417 339 385.5 345.5 Q354 352 309 365 Q271 377 241.5 383.5 Q212 390 181 390 Q146 390 116 378.5 Q86 367 65.5 353.5 Q45 340 45 339 L45 501 Q45 502 64 514.5 Q83 527 114 537 Q145 547 183 547 Q216 547 248 540.5 Q280 534 324 521 Z " />
<glyph glyph-name="less" unicode="&#x3c;" horiz-adv-x="589" d="M213 293 L558 145 L558 40 L414 40 L17 222 L17 363 L414 546 L558 546 L558 441 L213 293 Z " />
<glyph glyph-name="greater" unicode="&#x3e;" horiz-adv-x="589" d="M585 222 L188 40 L44 40 L44 145 L389 293 L44 441 L44 546 L188 546 L585 363 L585 222 Z " />
<glyph glyph-name="lessequal" unicode="&#x2264;" horiz-adv-x="589" d="M269 412 L561 310 L561 205 L417 205 L28 341 L28 444 L417 619 L561 619 L561 514 L269 412 Z M28 8 L28 164 L561 164 L561 8 L28 8 Z " />
<glyph glyph-name="greaterequal" unicode="&#x2265;" horiz-adv-x="589" d="M575 341 L186 205 L42 205 L42 310 L334 412 L42 514 L42 619 L186 619 L575 444 L575 341 Z M42 8 L42 164 L575 164 L575 8 L42 8 Z " />
<glyph glyph-name="logicalnot" unicode="&#xac;" horiz-adv-x="589" d="M403 65 L403 254 L27 254 L27 410 L561 410 L561 65 L403 65 Z " />
<glyph glyph-name="uni00AD" unicode="&#xad;" horiz-adv-x="369" d="M338 254 L24 254 L57 410 L370 410 L338 254 Z " />
<glyph glyph-name="Delta" unicode="&#x2206;" horiz-adv-x="644" d="M565 0 L-37 0 L-13 114 L261 700 L565 700 L589 114 L565 0 Z M382 545 L379 545 L217 161 L375 161 L382 545 Z " />
<glyph glyph-name="Omega" unicode="&#x2126;" horiz-adv-x="635" d="M473 161 L571 161 L536 0 L288 0 L334 218 Q346 220 357 228 Q368 236 374 246 L433 518 Q429 532 414.5 541 Q400 550 377 550 Q354 550 335.5 541 Q317 532 308 518 L249 246 Q251 236 258 228 Q265 220 277 218 L231 0 L-17 0 L18 161 L132 161 Q94 183 70 210 Q46 237 39 265 L103 562 Q139 624 214.5 670 Q290 716 403 716 Q478 716 532.5 691.5 Q587 667 617 632 Q647 597 656 562 L593 259 Q553 200 473 161 Z " />
<glyph glyph-name="mu" unicode="&#xb5;" horiz-adv-x="569" d="M591 546 L475 0 L292 0 L303 51 Q243 -11 160 -11 L152 -11 L161 -66 L139 -166 L-59 -166 L94 546 L292 546 L209 157 Q225 143 253 143 Q287 143 312 160 L393 546 L591 546 Z " />
<glyph glyph-name="pi" unicode="&#x3c0;" horiz-adv-x="634" d="M641 404 L591 404 L506 0 L307 0 L393 404 L296 404 L210 0 L12 0 L97 404 L50 404 L80 546 L671 546 L641 404 Z " />
<glyph glyph-name="degree" unicode="&#xb0;" horiz-adv-x="405" d="M474 713 L445 580 Q421 542 376 514 Q331 486 259 486 Q188 486 146 515 Q104 544 91 580 L120 713 Q143 749 189.5 778 Q236 807 307 807 Q377 807 420 777.5 Q463 748 474 713 Z M249 678 L235 615 Q237 607 247 601.5 Q257 596 272 596 Q287 596 298.5 601.5 Q310 607 317 615 L331 678 Q328 686 317.5 691.5 Q307 697 292 697 Q278 697 266.5 691.5 Q255 686 249 678 Z " />
<glyph glyph-name="infinity" unicode="&#x221e;" horiz-adv-x="795" d="M717 433 L717 270 Q702 230 655.5 201.5 Q609 173 537 173 Q450 173 402 223 Q348 173 260 173 Q188 173 142 201.5 Q96 230 81 270 L81 433 Q96 473 142 501.5 Q188 530 260 530 Q349 530 398 476 Q447 530 537 530 Q609 530 655.5 501.5 Q702 473 717 433 Z M308 289 L334 352 L308 414 Q304 421 289 426 Q274 431 260 431 Q246 431 235.5 426 Q225 421 221 414 L221 289 Q225 282 235.5 277 Q246 272 260 272 Q274 272 289 277 Q304 282 308 289 Z M576 414 Q572 421 562 426 Q552 431 538 431 Q524 431 513 426 Q502 421 498 414 L468 341 L489 289 Q493 282 508 277 Q523 272 538 272 Q552 272 562 277 Q572 282 576 289 L576 414 Z " />
<glyph glyph-name="partialdiff" unicode="&#x2202;" horiz-adv-x="573" d="M538 526 L538 124 Q514 69 451 26.5 Q388 -16 285 -16 Q183 -16 119.5 26 Q56 68 31 123 L31 325 Q40 357 64.5 388.5 Q89 420 128.5 440.5 Q168 461 218 461 Q258 461 286 452 Q314 443 340 424 L340 482 Q326 524 261 564.5 Q196 605 124 630 L221 735 Q329 708 417 653 Q505 598 538 526 Z M229 290 L229 158 Q235 147 250 139.5 Q265 132 285 132 Q305 132 320 139.5 Q335 147 340 158 L340 292 Q334 302 319 308.5 Q304 315 285 315 Q265 315 250 308 Q235 301 229 290 Z " />
<glyph glyph-name="integral" unicode="&#x222b;" horiz-adv-x="414" d="M393 700 L393 569 L354 569 Q331 569 320.5 563.5 Q310 558 305 549 L305 -81 Q291 -122 247 -151 Q203 -180 130 -180 Q96 -180 66 -175.5 Q36 -171 20 -166 L20 -35 L59 -35 Q97 -35 107 -15 L107 616 Q122 657 166 686 Q210 715 283 715 Q316 715 345.5 710.5 Q375 706 393 700 Z " />
<glyph glyph-name="radical" unicode="&#x221a;" horiz-adv-x="599" d="M618 596 L454 0 L227 0 L111 399 L62 399 L62 546 L260 546 L338 243 L341 243 L442 700 L618 700 L618 596 Z " />
<glyph glyph-name="summation" unicode="&#x2211;" horiz-adv-x="552" d="M406 366 L406 235 L293 56 L537 56 L537 -100 L40 -100 L40 32 L199 300 L40 568 L40 700 L537 700 L537 544 L293 544 L406 366 Z " />
<glyph glyph-name="product" unicode="&#x220f;" horiz-adv-x="627" d="M390 -100 L390 544 L270 544 L270 -100 L56 -100 L56 700 L604 700 L604 -100 L390 -100 Z " />
<glyph glyph-name="lozenge" unicode="&#x25ca;" horiz-adv-x="617" d="M429 0 L213 0 L37 350 L213 700 L429 700 L605 350 L429 0 Z M321 216 L390 350 L321 484 L252 350 L321 216 Z " />
<glyph glyph-name="arrowleft" unicode="&#x2190;" horiz-adv-x="760" d="M10 397 L313 700 L447 700 L447 578 L285 429 L770 429 L770 271 L285 271 L447 122 L447 0 L313 0 L10 303 L10 397 Z " />
<glyph glyph-name="arrowright" unicode="&#x2192;" horiz-adv-x="760" d="M776 303 L473 0 L338 0 L338 122 L501 271 L16 271 L16 429 L501 429 L338 578 L338 700 L473 700 L776 397 L776 303 Z " />
<glyph glyph-name="arrowup" unicode="&#x2191;" horiz-adv-x="760" d="M750 340 L634 340 L492 488 L492 0 L309 0 L309 488 L166 340 L50 340 L50 458 L353 760 L448 760 L750 458 L750 340 Z " />
<glyph glyph-name="arrowdown" unicode="&#x2193;" horiz-adv-x="760" d="M734 242 L431 -60 L336 -60 L34 242 L34 360 L149 360 L292 212 L292 700 L475 700 L475 212 L618 360 L734 360 L734 242 Z " />
<glyph glyph-name="uni0410" unicode="&#x410;" horiz-adv-x="644" d="M565 0 L373 0 L374 133 L204 133 L149 0 L-37 0 L-13 114 L261 700 L565 700 L589 114 L565 0 Z M378 545 L375 545 L271 294 L376 294 L378 545 Z " />
<glyph glyph-name="uni0411" unicode="&#x411;" horiz-adv-x="606" d="M316 544 L297 452 L394 452 Q463 452 517 420.5 Q571 389 592 334 L546 120 Q511 65 452.5 32.5 Q394 0 322 0 L-14 0 L135 700 L655 700 L622 544 L316 544 Z M263 299 L232 152 L297 152 Q339 152 363 181 L382 271 Q378 283 364 291 Q350 299 328 299 L263 299 Z " />
<glyph glyph-name="uni0412" unicode="&#x412;" horiz-adv-x="617" d="M532 365 Q577 342 591 307 L550 120 Q519 68 457.5 34 Q396 0 317 0 L-14 0 L135 700 L432 700 Q521 700 573 664 Q625 628 640 580 L610 432 Q599 413 576.5 394 Q554 375 532 365 Z M433 519 Q421 546 376 546 L316 546 L291 424 L355 424 Q397 424 418 453 L433 519 Z M386 264 Q380 277 365.5 284.5 Q351 292 329 292 L262 292 L233 154 L302 154 Q327 154 342.5 161.5 Q358 169 369 184 L386 264 Z " />
<glyph glyph-name="uni0413" unicode="&#x413;" horiz-adv-x="531" d="M316 544 L200 0 L-14 0 L135 700 L597 700 L565 544 L316 544 Z " />
<glyph glyph-name="uni0414" unicode="&#x414;" horiz-adv-x="743" d="M618 157 L697 157 L636 -124 L458 -124 L485 0 L141 0 L114 -124 L-64 -124 L-4 157 Q24 164 55 182 Q86 200 101 222 L262 700 L734 700 L618 157 Z M404 157 L487 544 L406 544 L290 193 Q273 171 250 157 L404 157 Z " />
<glyph glyph-name="uni0415" unicode="&#x415;" horiz-adv-x="537" d="M315 539 L293 437 L520 437 L485 275 L258 275 L235 161 L482 161 L447 0 L-14 0 L135 700 L591 700 L556 539 L315 539 Z " />
<glyph glyph-name="uni0416" unicode="&#x416;" horiz-adv-x="914" d="M789 376 L854 114 L830 0 L655 0 L594 283 L560 283 L500 0 L299 0 L359 283 L327 283 L151 0 L-32 0 L-9 114 L169 376 L98 586 L122 700 L285 700 L357 439 L392 439 L448 700 L649 700 L594 439 L627 439 L803 700 L974 700 L950 586 L789 376 Z " />
<glyph glyph-name="uni0417" unicode="&#x417;" horiz-adv-x="599" d="M630 580 L600 437 Q568 388 504 351 Q528 332 543.5 311 Q559 290 565 271 L532 120 Q498 66 427.5 25 Q357 -16 246 -16 Q137 -16 77.5 27 Q18 70 -3 120 L15 206 L200 206 Q204 145 269 145 Q292 145 310.5 154 Q329 163 338 175 L353 245 Q350 258 334.5 266.5 Q319 275 291 275 L192 275 L197 301 L225 432 L332 432 Q356 432 373.5 440.5 Q391 449 399 462 L413 525 Q410 537 394.5 546 Q379 555 356 555 Q326 555 301.5 540 Q277 525 263 494 L77 494 L95 580 Q129 632 201 674 Q273 716 383 716 Q460 716 512.5 693.5 Q565 671 592.5 640 Q620 609 630 580 Z " />
<glyph glyph-name="uni0418" unicode="&#x418;" horiz-adv-x="674" d="M374 0 L452 367 L449 367 L191 0 L-14 0 L135 700 L333 700 L255 332 L258 332 L516 700 L721 700 L572 0 L374 0 Z " />
<glyph glyph-name="uni0419" unicode="&#x419;" horiz-adv-x="674" d="M374 0 L452 367 L449 367 L191 0 L-14 0 L135 700 L333 700 L255 332 L258 332 L516 700 L721 700 L572 0 L374 0 Z M653 837 Q624 788 571.5 762 Q519 736 448 736 Q374 736 325 763 Q276 790 260 837 L274 900 L416 900 L408 862 Q411 851 422.5 842.5 Q434 834 456 834 Q479 834 494.5 842.5 Q510 851 517 862 L525 900 L667 900 L653 837 Z " />
<glyph glyph-name="uni041A" unicode="&#x41a;" horiz-adv-x="618" d="M471 366 L558 114 L534 0 L364 0 L284 283 L250 283 L190 0 L-24 0 L125 700 L339 700 L284 439 L314 439 L501 700 L678 700 L653 586 L471 366 Z " />
<glyph glyph-name="uni041B" unicode="&#x41b;" horiz-adv-x="675" d="M573 0 L359 0 L475 544 L396 544 L245 89 Q213 46 174.5 26 Q136 6 89 0.5 Q42 -5 -39 -5 L-5 156 Q22 156 44.5 165.5 Q67 175 79 190 L250 700 L722 700 L573 0 Z " />
<glyph glyph-name="uni041C" unicode="&#x41c;" horiz-adv-x="781" d="M480 0 L561 384 L558 384 L407 128 L310 128 L269 384 L266 384 L184 0 L-14 0 L135 700 L385 700 L423 439 L426 439 L567 700 L828 700 L679 0 L480 0 Z " />
<glyph glyph-name="uni041D" unicode="&#x41d;" horiz-adv-x="664" d="M348 0 L407 280 L259 280 L200 0 L-14 0 L135 700 L349 700 L294 441 L441 441 L497 700 L711 700 L562 0 L348 0 Z " />
<glyph glyph-name="uni041E" unicode="&#x41e;" horiz-adv-x="626" d="M652 562 L561 138 Q522 73 449.5 28.5 Q377 -16 264 -16 Q187 -16 132 8 Q77 32 46.5 67 Q16 102 8 138 L99 562 Q136 627 209 671.5 Q282 716 395 716 Q472 716 527.5 692 Q583 668 613.5 633 Q644 598 652 562 Z M303 518 L231 182 Q235 168 250.5 159 Q266 150 289 150 Q333 150 356 182 L428 518 Q424 532 408.5 541 Q393 550 370 550 Q324 550 303 518 Z " />
<glyph glyph-name="uni041F" unicode="&#x41f;" horiz-adv-x="658" d="M556 0 L342 0 L456 539 L315 539 L200 0 L-14 0 L135 700 L705 700 L556 0 Z " />
<glyph glyph-name="uni0420" unicode="&#x420;" horiz-adv-x="609" d="M649 580 L601 355 Q557 292 498.5 263.5 Q440 235 357 235 L250 235 L200 0 L-14 0 L135 700 L435 700 Q508 700 564 669.5 Q620 639 649 580 Z M429 513 Q425 527 410 534 Q395 541 373 541 L315 541 L284 394 L341 394 Q389 394 410 423 L429 513 Z " />
<glyph glyph-name="uni0421" unicode="&#x421;" horiz-adv-x="608" d="M646 579 L627 488 L444 488 Q442 517 423 533.5 Q404 550 372 550 Q327 550 303 518 L231 182 Q236 167 252 158.5 Q268 150 292 150 Q352 150 384 212 L569 212 L549 121 Q514 66 445.5 25 Q377 -16 266 -16 Q188 -16 132.5 8 Q77 32 46.5 67 Q16 102 8 138 L99 562 Q134 625 208.5 670.5 Q283 716 396 716 Q472 716 525 693.5 Q578 671 607 640 Q636 609 646 579 Z " />
<glyph glyph-name="uni0422" unicode="&#x422;" horiz-adv-x="560" d="M444 539 L330 0 L116 0 L230 539 L82 539 L116 700 L626 700 L591 539 L444 539 Z " />
<glyph glyph-name="uni0423" unicode="&#x423;" horiz-adv-x="595" d="M660 700 L636 586 L327 74 Q274 27 219 9.5 Q164 -8 88 -8 Q46 -8 18 -2 L50 148 Q74 146 90 146 Q117 146 141.5 152.5 Q166 159 177 169 L190 191 L93 586 L117 700 L287 700 L338 432 L482 700 L660 700 Z " />
<glyph glyph-name="uni0424" unicode="&#x424;" horiz-adv-x="823" d="M838 500 L774 200 Q729 130 654 90 Q579 50 500 50 L458 50 L439 -40 L253 -40 L272 50 L250 50 Q200 50 152.5 69.5 Q105 89 70 123.5 Q35 158 21 200 L85 500 Q127 567 203 608.5 Q279 650 357 650 L401 650 L420 740 L606 740 L587 650 L611 650 Q661 650 709 630 Q757 610 791.5 576 Q826 542 838 500 Z M306 206 L367 494 L351 494 Q329 494 307 484.5 Q285 475 273 462 L224 238 Q231 225 249 215.5 Q267 206 290 206 L306 206 Z M635 462 Q628 475 610 484.5 Q592 494 570 494 L554 494 L492 206 L508 206 Q531 206 552.5 215.5 Q574 225 586 238 L635 462 Z " />
<glyph glyph-name="uni0425" unicode="&#x425;" horiz-adv-x="610" d="M459 355 L549 114 L525 0 L339 0 L298 218 L295 218 L156 0 L-31 0 L-7 114 L185 356 L98 586 L122 700 L305 700 L349 491 L352 491 L484 700 L671 700 L646 586 L459 355 Z " />
<glyph glyph-name="uni0426" unicode="&#x426;" horiz-adv-x="705" d="M659 157 L598 -124 L420 -124 L448 0 L-14 0 L135 700 L349 700 L234 157 L366 157 L482 700 L696 700 L580 157 L659 157 Z " />
<glyph glyph-name="uni0427" unicode="&#x427;" horiz-adv-x="641" d="M688 700 L539 0 L325 0 L375 237 Q327 216 271 216 Q184 216 125.5 248.5 Q67 281 52 329 L132 700 L346 700 L280 393 Q286 381 301.5 373.5 Q317 366 341 366 Q374 366 406 383 L474 700 L688 700 Z " />
<glyph glyph-name="uni0428" unicode="&#x428;" horiz-adv-x="938" d="M-14 0 L135 700 L349 700 L233 156 L337 156 L453 700 L667 700 L551 156 L655 156 L771 700 L985 700 L836 0 L-14 0 Z " />
<glyph glyph-name="uni0429" unicode="&#x429;" horiz-adv-x="995" d="M949 157 L888 -124 L710 -124 L737 0 L-14 0 L135 700 L349 700 L234 157 L338 157 L453 700 L667 700 L552 157 L656 157 L771 700 L985 700 L870 157 L949 157 Z " />
<glyph glyph-name="uni042A" unicode="&#x42a;" horiz-adv-x="694" d="M681 343 L634 120 Q600 68 541 34 Q482 0 410 0 L74 0 L190 544 L83 544 L116 700 L438 700 L387 461 L484 461 Q552 461 605.5 429.5 Q659 398 681 343 Z M474 281 Q460 309 418 309 L354 309 L320 152 L385 152 Q428 152 452 181 L474 281 Z " />
<glyph glyph-name="uni042B" unicode="&#x42b;" horiz-adv-x="880" d="M298 461 L385 461 Q453 461 506.5 429.5 Q560 398 582 343 L535 120 Q501 68 442 34 Q383 0 311 0 L-14 0 L135 700 L349 700 L298 461 Z M779 0 L565 0 L714 700 L928 700 L779 0 Z M265 309 L232 152 L286 152 Q329 152 353 181 L375 281 Q361 309 319 309 L265 309 Z " />
<glyph glyph-name="uni042C" unicode="&#x42c;" horiz-adv-x="606" d="M298 461 L395 461 Q463 461 517 429.5 Q571 398 593 343 L546 120 Q512 68 452.5 34 Q393 0 321 0 L-14 0 L135 700 L349 700 L298 461 Z M265 309 L232 152 L296 152 Q321 152 336 159.5 Q351 167 363 181 L385 281 Q380 294 365.5 301.5 Q351 309 330 309 L265 309 Z " />
<glyph glyph-name="uni042D" unicode="&#x42d;" horiz-adv-x="614" d="M640 562 L549 138 Q513 75 438.5 29.5 Q364 -16 251 -16 Q175 -16 122 6.5 Q69 29 40 60 Q11 91 1 121 L20 212 L204 212 Q206 183 225 166.5 Q244 150 275 150 Q322 150 344 182 L366 282 L191 282 L222 428 L397 428 L417 518 Q412 533 396 541.5 Q380 550 356 550 Q295 550 263 488 L79 488 L99 579 Q134 634 202.5 675 Q271 716 382 716 Q459 716 514.5 692 Q570 668 600.5 633 Q631 598 640 562 Z " />
<glyph glyph-name="uni042E" unicode="&#x42e;" horiz-adv-x="907" d="M932 562 L841 138 Q802 75 731 29.5 Q660 -16 549 -16 Q473 -16 419.5 8 Q366 32 336.5 67 Q307 102 299 138 L329 278 L259 278 L200 0 L-14 0 L135 700 L349 700 L292 434 L363 434 L390 562 Q429 625 500 670.5 Q571 716 682 716 Q758 716 812 692 Q866 668 895 633 Q924 598 932 562 Z M710 523 Q699 555 659 555 Q618 555 595 523 L521 177 Q532 145 572 145 Q614 145 635 177 L710 523 Z " />
<glyph glyph-name="uni042F" unicode="&#x42f;" horiz-adv-x="630" d="M677 700 L528 0 L314 0 L366 245 L337 245 L166 0 L-22 0 L2 114 L136 276 Q83 307 56 365 L102 580 Q141 637 203 668.5 Q265 700 335 700 L677 700 Z M430 544 L361 544 Q337 544 318.5 536 Q300 528 291 514 L270 420 Q279 391 332 391 L398 391 L430 544 Z " />
<glyph glyph-name="uni0490" unicode="&#x490;" horiz-adv-x="519" d="M316 544 L200 0 L-14 0 L135 700 L407 700 L430 809 L608 809 L552 544 L316 544 Z " />
<glyph glyph-name="uni0406" unicode="&#x406;" horiz-adv-x="302" d="M200 0 L-14 0 L135 700 L349 700 L200 0 Z " />
<glyph glyph-name="uni0402" unicode="&#x402;" horiz-adv-x="725" d="M713 341 L663 112 Q591 -1 407 -1 L358 -1 L391 150 Q415 150 434 157 Q453 164 463 176 L485 277 Q479 289 463.5 296 Q448 303 424 303 Q389 303 359 287 L298 0 L84 0 L200 544 L83 544 L116 700 L609 700 L576 544 L414 544 L391 437 Q437 454 494 454 Q580 454 638.5 421 Q697 388 713 341 Z " />
<glyph glyph-name="uni0452" unicode="&#x452;" horiz-adv-x="588" d="M579 392 L485 -45 Q457 -106 385.5 -143 Q314 -180 203 -180 L235 -29 Q254 -29 272 -18.5 Q290 -8 298 6 L371 346 Q366 355 354.5 362.5 Q343 370 323 370 Q291 370 266 353 L191 0 L-7 0 L112 558 L78 558 L100 657 L133 657 L142 700 L340 700 L331 657 L461 657 L439 558 L310 558 L293 477 Q348 524 421 524 Q470 524 505 504.5 Q540 485 558 454.5 Q576 424 579 392 Z " />
<glyph glyph-name="uni0403" unicode="&#x403;" horiz-adv-x="531" d="M316 544 L200 0 L-14 0 L135 700 L597 700 L565 544 L316 544 Z M415 740 L278 740 L281 755 L357 907 L534 907 L516 825 L415 740 Z " />
<glyph glyph-name="uni0453" unicode="&#x453;" horiz-adv-x="466" d="M264 402 L178 0 L-20 0 L96 546 L499 546 L469 402 L264 402 Z M379 599 L227 599 L229 614 L308 769 L498 769 L480 687 L379 599 Z " />
<glyph glyph-name="uni0456" unicode="&#x456;" horiz-adv-x="274" d="M178 0 L-20 0 L96 546 L294 546 L178 0 Z " />
<glyph glyph-name="uni0491" unicode="&#x491;" horiz-adv-x="478" d="M264 402 L178 0 L-20 0 L96 546 L342 546 L360 627 L524 627 L476 402 L264 402 Z " />
<glyph glyph-name="uni0408" unicode="&#x408;" horiz-adv-x="387" d="M316 138 Q278 66 209 31.5 Q140 -3 32 -3 Q-15 -3 -39 0 L-4 161 L33 161 Q65 161 84 169 Q103 177 115 192 L222 700 L436 700 L316 138 Z " />
<glyph glyph-name="uni0404" unicode="&#x404;" horiz-adv-x="614" d="M303 518 L284 428 L459 428 L428 282 L252 282 L231 182 Q236 167 252 158.5 Q268 150 292 150 Q352 150 384 212 L569 212 L549 121 Q514 66 445.5 25 Q377 -16 266 -16 Q188 -16 132.5 8 Q77 32 46.5 67 Q16 102 8 138 L99 562 Q134 625 208.5 670.5 Q283 716 396 716 Q472 716 525 693.5 Q578 671 607 640 Q636 609 646 579 L627 488 L444 488 Q442 517 423 533.5 Q404 550 372 550 Q327 550 303 518 Z " />
<glyph glyph-name="uni0454" unicode="&#x454;" horiz-adv-x="553" d="M255 383 L244 334 L389 334 L362 214 L218 214 L207 163 Q211 152 225 144.5 Q239 137 258 137 Q307 137 331 180 L504 180 L486 92 Q453 52 394.5 18 Q336 -16 238 -16 Q167 -16 116 5.5 Q65 27 36.5 59 Q8 91 1 123 L65 423 Q97 479 165 520.5 Q233 562 336 562 Q405 562 453.5 542 Q502 522 528 496 Q554 470 563 449 L545 366 L373 366 Q370 387 354 398 Q338 409 313 409 Q294 409 278.5 401.5 Q263 394 255 383 Z " />
<glyph glyph-name="uni0407" unicode="&#x407;" horiz-adv-x="302" d="M256 863 L237 771 Q220 755 198 744 Q176 733 138 733 Q101 733 83.5 744 Q66 755 56 771 L75 863 Q94 879 115.5 890 Q137 901 174 901 Q234 901 256 863 Z M480 863 L462 771 Q443 754 421.5 743.5 Q400 733 363 733 Q303 733 281 771 L300 863 Q317 879 339 890 Q361 901 398 901 Q461 901 480 863 Z M200 0 L-14 0 L135 700 L349 700 L200 0 Z " />
<glyph glyph-name="uni0457" unicode="&#x457;" horiz-adv-x="318" d="M233 723 L212 624 Q196 609 173.5 598 Q151 587 113 587 Q76 587 59 598 Q42 609 31 624 L52 723 Q69 738 91.5 749.5 Q114 761 151 761 Q211 761 233 723 Z M459 723 L439 624 Q420 608 399 597.5 Q378 587 340 587 Q282 587 258 624 L279 723 Q296 739 318 750 Q340 761 377 761 Q440 761 459 723 Z M200 0 L2 0 L118 546 L316 546 L200 0 Z " />
<glyph glyph-name="uni0409" unicode="&#x409;" horiz-adv-x="979" d="M966 343 L919 120 Q885 68 825.5 34 Q766 0 694 0 L359 0 L475 544 L396 544 L245 89 Q213 46 174.5 26 Q136 6 89 0.5 Q42 -5 -39 -5 L-5 156 Q22 156 44.5 165.5 Q67 175 79 190 L250 700 L722 700 L671 461 L768 461 Q836 461 890 429.5 Q944 398 966 343 Z M758 281 Q753 294 738.5 301.5 Q724 309 703 309 L638 309 L605 152 L670 152 Q694 152 709 159.5 Q724 167 736 181 L758 281 Z " />
<glyph glyph-name="uni0459" unicode="&#x459;" horiz-adv-x="869" d="M851 291 L808 94 Q774 44 724.5 22 Q675 0 618 0 L302 0 L388 402 L324 402 L218 81 Q186 43 151.5 24.5 Q117 6 73.5 0.5 Q30 -5 -44 -5 L-13 143 Q12 143 33 152 Q54 161 63 174 L189 546 L616 546 L583 385 L681 385 Q740 385 786 359 Q832 333 851 291 Z M649 222 Q646 231 634.5 238 Q623 245 601 245 L552 245 L530 140 L577 140 Q598 140 611.5 146 Q625 152 637 163 L649 222 Z " />
<glyph glyph-name="uni040A" unicode="&#x40a;" horiz-adv-x="961" d="M949 343 L902 120 Q868 68 808.5 34 Q749 0 677 0 L342 0 L407 305 L323 305 L259 0 L45 0 L194 700 L408 700 L357 461 L440 461 L491 700 L705 700 L654 461 L751 461 Q819 461 873 429.5 Q927 398 949 343 Z M741 281 Q736 294 721.5 301.5 Q707 309 686 309 L621 309 L588 152 L653 152 Q677 152 692 159.5 Q707 167 719 181 L741 281 Z " />
<glyph glyph-name="uni045A" unicode="&#x45a;" horiz-adv-x="867" d="M843 282 L802 94 Q767 44 717.5 22 Q668 0 612 0 L300 0 L350 235 L228 235 L178 0 L-20 0 L96 546 L294 546 L258 377 L380 377 L416 546 L614 546 L579 377 L673 377 Q732 377 778 351 Q824 325 843 282 Z M641 213 Q638 222 626.5 229 Q615 236 593 236 L548 236 L527 140 L570 140 Q606 140 631 163 L641 213 Z " />
<glyph glyph-name="uni0458" unicode="&#x458;" horiz-adv-x="272" d="M166 -45 Q138 -106 66.5 -143 Q-5 -180 -116 -180 L-84 -29 Q-64 -29 -46 -18 Q-28 -7 -20 8 L95 546 L292 546 L166 -45 Z M332 708 L316 638 Q301 616 272 600 Q243 584 203 584 Q163 584 140.5 600 Q118 616 113 638 L129 708 Q144 730 172.5 746 Q201 762 241 762 Q282 762 304.5 746 Q327 730 332 708 Z " />
<glyph glyph-name="uni0405" unicode="&#x405;" horiz-adv-x="593" d="M624 582 L605 491 L421 491 Q419 518 403.5 534 Q388 550 356 550 Q335 550 319 542 Q303 534 293 522 L282 471 Q284 461 294.5 454.5 Q305 448 326 443 L367 431 Q463 407 505 376.5 Q547 346 571 304 L531 120 Q439 -16 246 -16 Q170 -16 116 5.5 Q62 27 33 58.5 Q4 90 -5 120 L15 211 L199 211 Q200 181 219.5 165.5 Q239 150 270 150 Q314 150 338 181 L351 239 Q348 249 337 256 Q326 263 303 269 L261 280 Q167 304 125 333 Q83 362 63 405 L100 582 Q135 636 204 676 Q273 716 381 716 Q454 716 506.5 694 Q559 672 587.5 641 Q616 610 624 582 Z " />
<glyph glyph-name="uni040B" unicode="&#x40b;" horiz-adv-x="696" d="M576 544 L414 544 L392 443 L479 443 Q547 443 602.5 410.5 Q658 378 676 325 L608 0 L412 0 L468 262 Q463 274 448.5 282 Q434 290 412 290 L359 290 L298 0 L84 0 L200 544 L83 544 L116 700 L609 700 L576 544 Z " />
<glyph glyph-name="uni045B" unicode="&#x45b;" horiz-adv-x="588" d="M579 392 L495 0 L297 0 L371 346 Q366 355 353.5 362.5 Q341 370 321 370 Q289 370 266 354 L191 0 L-7 0 L112 558 L78 558 L100 657 L133 657 L142 700 L340 700 L331 657 L461 657 L439 558 L310 558 L292 476 Q352 524 423 524 Q472 524 506 503.5 Q540 483 558 453 Q576 423 579 392 Z " />
<glyph glyph-name="uni040C" unicode="&#x40c;" horiz-adv-x="618" d="M471 366 L558 114 L534 0 L364 0 L284 283 L250 283 L190 0 L-24 0 L125 700 L339 700 L284 439 L314 439 L501 700 L678 700 L653 586 L471 366 Z M458 740 L321 740 L324 755 L400 907 L577 907 L559 825 L458 740 Z " />
<glyph glyph-name="uni045C" unicode="&#x45c;" horiz-adv-x="554" d="M429 281 L497 104 L476 0 L334 0 L256 204 L221 204 L178 0 L-20 0 L96 546 L294 546 L252 347 L282 347 L430 546 L587 546 L565 443 L429 281 Z M422 599 L270 599 L272 614 L351 769 L541 769 L523 687 L422 599 Z " />
<glyph glyph-name="uni0455" unicode="&#x455;" horiz-adv-x="524" d="M532 454 L516 385 L347 385 Q343 403 328.5 413 Q314 423 291 423 Q274 423 260.5 417 Q247 411 241 401 L234 371 Q239 357 273 350 L318 340 Q401 322 437 298 Q473 274 491 245 L459 94 Q429 53 369.5 18.5 Q310 -16 215 -16 Q145 -16 96 3 Q47 22 21 47.5 Q-5 73 -13 94 L2 163 L174 163 Q178 145 193 134 Q208 123 233 123 Q252 123 266 129.5 Q280 136 288 146 L296 177 Q290 193 255 200 L209 208 Q129 224 92 250 Q55 276 38 306 L70 454 Q99 494 159 528 Q219 562 312 562 Q378 562 425 543.5 Q472 525 497 500.5 Q522 476 532 454 Z " />
<glyph glyph-name="uni040E" unicode="&#x40e;" horiz-adv-x="588" d="M605 837 Q576 788 523.5 762 Q471 736 400 736 Q326 736 277 763 Q228 790 212 837 L226 900 L368 900 L360 862 Q363 851 374.5 842.5 Q386 834 408 834 Q431 834 446.5 842.5 Q462 851 469 862 L477 900 L619 900 L605 837 Z M659 700 L635 586 L326 74 Q273 27 218 9.5 Q163 -8 87 -8 Q45 -8 17 -2 L49 148 Q73 146 89 146 Q116 146 140.5 152.5 Q165 159 176 169 L189 191 L92 586 L116 700 L286 700 L337 432 L481 700 L659 700 Z " />
<glyph glyph-name="uni045E" unicode="&#x45e;" horiz-adv-x="550" d="M397 546 L585 546 L563 442 L273 -102 Q236 -139 183 -158.5 Q130 -178 48 -178 Q19 -178 -8.5 -174.5 Q-36 -171 -52 -166 L-21 -27 Q1 -29 27 -29 Q85 -29 117 -6 L126 13 L60 442 L82 546 L258 546 L269 260 L272 260 L397 546 Z M555 690 Q526 642 473.5 616 Q421 590 350 590 Q276 590 227 617 Q178 644 162 690 L176 754 L318 754 L310 716 Q313 705 324.5 696.5 Q336 688 358 688 Q381 688 396.5 696.5 Q412 705 419 716 L427 754 L569 754 L555 690 Z " />
<glyph glyph-name="uni040F" unicode="&#x40f;" horiz-adv-x="649" d="M355 0 L328 -124 L151 -124 L178 0 L-14 0 L135 700 L349 700 L233 156 L366 156 L482 700 L696 700 L547 0 L355 0 Z " />
<glyph glyph-name="uni045F" unicode="&#x45f;" horiz-adv-x="581" d="M315 0 L290 -114 L126 -114 L151 0 L-20 0 L96 546 L294 546 L208 143 L317 143 L403 546 L602 546 L486 0 L315 0 Z " />
<glyph glyph-name="uni0401" unicode="&#x401;" horiz-adv-x="537" d="M315 539 L293 437 L520 437 L485 275 L258 275 L235 161 L482 161 L447 0 L-14 0 L135 700 L591 700 L556 539 L315 539 Z M375 866 L356 771 Q340 756 317.5 745 Q295 734 257 734 Q199 734 175 771 L194 866 Q212 881 234 892 Q256 903 293 903 Q331 903 348.5 892 Q366 881 375 866 Z M603 866 L584 771 Q568 756 545.5 745 Q523 734 485 734 Q427 734 403 771 L422 866 Q440 881 462 892 Q484 903 521 903 Q559 903 576.5 892 Q594 881 603 866 Z " />
<glyph glyph-name="uni0451" unicode="&#x451;" horiz-adv-x="557" d="M563 448 L512 214 L218 214 L207 158 Q210 148 224 140 Q238 132 258 132 Q307 132 330 174 L503 174 L486 93 Q455 54 396 19 Q337 -16 237 -16 Q166 -16 115 5.5 Q64 27 36 59 Q8 91 1 123 L65 423 Q96 478 164.5 520 Q233 562 335 562 Q404 562 453 541 Q502 520 528 494 Q554 468 563 448 Z M255 388 L245 337 L355 337 L366 388 Q363 398 348.5 406 Q334 414 314 414 Q295 414 279.5 406.5 Q264 399 255 388 Z M360 720 L339 620 Q323 605 300.5 594 Q278 583 240 583 Q182 583 158 620 L179 720 Q217 758 278 758 Q341 758 360 720 Z M592 720 L571 620 Q555 605 532.5 594 Q510 583 472 583 Q435 583 416 594.5 Q397 606 390 620 L411 720 Q449 758 510 758 Q570 758 592 720 Z " />
<glyph glyph-name="uni044F" unicode="&#x44f;" horiz-adv-x="576" d="M596 546 L480 0 L282 0 L318 168 L291 168 L153 0 L-21 0 L1 103 L99 196 Q56 223 37 265 L77 451 Q108 494 157 520 Q206 546 257 546 L596 546 Z M368 402 L306 402 Q286 402 272.5 396 Q259 390 247 380 L236 324 Q240 315 252.5 308 Q265 301 288 301 L347 301 L368 402 Z " />
<glyph glyph-name="uni0430" unicode="&#x430;" horiz-adv-x="568" d="M565 423 L475 0 L284 0 L291 35 Q231 -16 155 -16 Q106 -16 70 -2 Q34 12 13.5 31.5 Q-7 51 -12 67 L25 241 Q47 276 96 305.5 Q145 335 214 335 L349 335 L359 384 Q354 394 340.5 401.5 Q327 409 309 409 Q262 409 240 369 L65 369 L83 452 Q110 491 171.5 526.5 Q233 562 332 562 Q401 562 451 540 Q501 518 529 486 Q557 454 565 423 Z M246 115 Q277 115 305 134 L322 212 L263 212 Q228 212 208 192 L197 137 Q202 129 214 122 Q226 115 246 115 Z " />
<glyph glyph-name="uni0431" unicode="&#x431;" horiz-adv-x="560" d="M612 716 L581 574 Q556 547 508 533.5 Q460 520 387 512 Q296 502 261 470 L249 416 Q307 461 375 461 Q428 461 464.5 440 Q501 419 519.5 388 Q538 357 540 328 L496 123 Q460 65 397 24.5 Q334 -16 232 -16 Q130 -16 74.5 26.5 Q19 69 4 123 L92 539 Q124 581 179.5 614 Q235 647 332 666 Q399 679 427.5 688.5 Q456 698 477 716 L612 716 Z M224 297 L195 158 Q197 147 210.5 139.5 Q224 132 244 132 Q264 132 280.5 139.5 Q297 147 305 158 L334 289 Q331 299 316.5 307 Q302 315 282 315 Q267 315 251.5 310.5 Q236 306 224 297 Z " />
<glyph glyph-name="uni0432" unicode="&#x432;" horiz-adv-x="549" d="M552 451 L525 327 Q515 316 496 303.5 Q477 291 458 283 Q495 268 508 242 L476 94 Q446 49 397.5 24.5 Q349 0 286 0 L-20 0 L96 546 L385 546 Q455 546 496 519 Q537 492 552 451 Z M359 392 Q350 414 310 414 L253 414 L236 330 L292 330 Q311 330 326.5 336 Q342 342 350 352 L359 392 Z M318 197 Q314 207 302 213 Q290 219 270 219 L212 219 L194 132 L250 132 Q289 132 308 155 L318 197 Z " />
<glyph glyph-name="uni0433" unicode="&#x433;" horiz-adv-x="466" d="M264 402 L178 0 L-20 0 L96 546 L499 546 L469 402 L264 402 Z " />
<glyph glyph-name="uni0434" unicode="&#x434;" horiz-adv-x="661" d="M541 144 L616 144 L561 -114 L396 -114 L421 0 L122 0 L97 -114 L-68 -114 L-13 144 Q13 151 41 166.5 Q69 182 83 202 L200 546 L627 546 L541 144 Z M224 144 L343 144 L399 402 L335 402 L258 176 Q245 158 224 144 Z " />
<glyph glyph-name="uni0435" unicode="&#x435;" horiz-adv-x="557" d="M563 448 L512 214 L218 214 L207 158 Q210 148 224 140 Q238 132 258 132 Q307 132 330 174 L503 174 L486 93 Q455 54 396 19 Q337 -16 237 -16 Q166 -16 115 5.5 Q64 27 36 59 Q8 91 1 123 L65 423 Q96 478 164.5 520 Q233 562 335 562 Q404 562 453 541 Q502 520 528 494 Q554 468 563 448 Z M255 388 L245 337 L355 337 L366 388 Q363 398 348.5 406 Q334 414 314 414 Q295 414 279.5 406.5 Q264 399 255 388 Z " />
<glyph glyph-name="uni0436" unicode="&#x436;" horiz-adv-x="808" d="M693 281 L748 104 L727 0 L570 0 L509 204 L483 204 L439 0 L252 0 L296 204 L270 204 L134 0 L-35 0 L-13 104 L122 298 L65 443 L86 546 L232 546 L301 347 L326 347 L368 546 L555 546 L514 347 L540 347 L680 546 L837 546 L816 443 L693 281 Z " />
<glyph glyph-name="uni0437" unicode="&#x437;" horiz-adv-x="539" d="M546 451 L519 333 Q496 302 450 275 Q481 251 494 217 L468 94 Q435 51 375 17.5 Q315 -16 217 -16 Q149 -16 100 3 Q51 22 24 47.5 Q-3 73 -11 94 L6 169 L178 169 Q185 129 234 129 Q270 129 291 152 L300 194 Q291 216 255 216 L170 216 L195 334 L281 334 Q315 334 334 357 L343 395 Q341 404 328.5 410.5 Q316 417 296 417 Q248 417 222 376 L50 376 L67 451 Q93 491 157 526.5 Q221 562 319 562 Q387 562 435.5 543.5 Q484 525 510.5 499.5 Q537 474 546 451 Z " />
<glyph glyph-name="uni0438" unicode="&#x438;" horiz-adv-x="604" d="M324 0 L384 278 L381 278 L167 0 L-20 0 L96 546 L279 546 L220 267 L223 267 L436 546 L625 546 L509 0 L324 0 Z " />
<glyph glyph-name="uni0439" unicode="&#x439;" horiz-adv-x="604" d="M324 0 L384 278 L381 278 L167 0 L-20 0 L96 546 L279 546 L220 267 L223 267 L436 546 L625 546 L509 0 L324 0 Z M587 690 Q558 642 505.5 616 Q453 590 382 590 Q308 590 259 617 Q210 644 194 690 L208 754 L350 754 L342 716 Q345 705 356.5 696.5 Q368 688 390 688 Q413 688 428.5 696.5 Q444 705 451 716 L459 754 L601 754 L587 690 Z " />
<glyph glyph-name="uni043A" unicode="&#x43a;" horiz-adv-x="554" d="M429 281 L497 104 L476 0 L334 0 L256 204 L221 204 L178 0 L-20 0 L96 546 L294 546 L252 347 L282 347 L430 546 L587 546 L565 443 L429 281 Z " />
<glyph glyph-name="uni043B" unicode="&#x43b;" horiz-adv-x="596" d="M500 0 L302 0 L388 402 L324 402 L218 81 Q189 43 154.5 24.5 Q120 6 75.5 0.5 Q31 -5 -44 -5 L-13 143 Q12 143 33 152 Q54 161 63 174 L189 546 L616 546 L500 0 Z " />
<glyph glyph-name="uni043C" unicode="&#x43c;" horiz-adv-x="701" d="M420 0 L482 287 L479 287 L349 96 L274 96 L227 287 L224 287 L163 0 L-20 0 L96 546 L324 546 L366 365 L369 365 L478 546 L721 546 L605 0 L420 0 Z " />
<glyph glyph-name="uni043D" unicode="&#x43d;" horiz-adv-x="600" d="M306 0 L351 210 L222 210 L178 0 L-20 0 L96 546 L294 546 L253 352 L381 352 L422 546 L621 546 L505 0 L306 0 Z " />
<glyph glyph-name="uni043E" unicode="&#x43e;" horiz-adv-x="573" d="M572 423 L508 123 Q473 65 406.5 24.5 Q340 -16 237 -16 Q166 -16 115.5 5.5 Q65 27 37 59 Q9 91 1 123 L65 423 Q99 480 166 521 Q233 562 336 562 Q407 562 457.5 540 Q508 518 535.5 486.5 Q563 455 572 423 Z M255 382 L207 163 Q211 152 224.5 144.5 Q238 137 258 137 Q279 137 295 145 Q311 153 318 164 L365 383 Q363 394 349 401.5 Q335 409 315 409 Q295 409 279 401.5 Q263 394 255 382 Z " />
<glyph glyph-name="uni043F" unicode="&#x43f;" horiz-adv-x="577" d="M283 0 L369 402 L264 402 L178 0 L-20 0 L96 546 L597 546 L481 0 L283 0 Z " />
<glyph glyph-name="uni0440" unicode="&#x440;" horiz-adv-x="571" d="M571 425 L505 121 Q477 69 424 29 Q371 -11 301 -11 Q225 -11 184 38 L139 -166 L-59 -166 L94 546 L285 546 L275 501 Q339 557 420 557 Q491 557 528 516.5 Q565 476 571 425 Z M362 379 Q359 388 347 395.5 Q335 403 315 403 Q282 403 259 387 L210 160 Q227 143 260 143 Q280 143 296 150.5 Q312 158 317 166 L362 379 Z " />
<glyph glyph-name="uni0441" unicode="&#x441;" horiz-adv-x="553" d="M563 449 L545 366 L373 366 Q370 387 354 398 Q338 409 313 409 Q294 409 278.5 401.5 Q263 394 255 383 L207 163 Q211 152 225 144.5 Q239 137 258 137 Q308 137 331 180 L504 180 L486 92 Q453 52 394.5 18 Q336 -16 238 -16 Q167 -16 116 5.5 Q65 27 36.5 59 Q8 91 1 123 L65 423 Q97 479 165 520.5 Q233 562 336 562 Q405 562 453.5 542 Q502 522 528 496 Q554 470 563 449 Z " />
<glyph glyph-name="uni0442" unicode="&#x442;" horiz-adv-x="500" d="M53 402 L83 546 L533 546 L503 402 L378 402 L292 0 L94 0 L180 402 L53 402 Z " />
<glyph glyph-name="uni0443" unicode="&#x443;" horiz-adv-x="550" d="M397 546 L585 546 L563 442 L273 -102 Q236 -139 183 -158.5 Q130 -178 48 -178 Q19 -178 -8.5 -174.5 Q-36 -171 -52 -166 L-21 -27 Q1 -29 27 -29 Q85 -29 117 -6 L126 13 L60 442 L82 546 L258 546 L269 260 L272 260 L397 546 Z " />
<glyph glyph-name="uni0444" unicode="&#x444;" horiz-adv-x="807" d="M807 426 L741 120 Q716 66 661.5 27.5 Q607 -11 535 -11 Q481 -11 441 14 L403 -166 L215 -166 L253 11 Q212 -11 160 -11 Q112 -11 77 9 Q42 29 22.5 59.5 Q3 90 0 120 L66 426 Q91 480 145.5 518.5 Q200 557 272 557 Q327 557 365 532 L401 700 L589 700 L553 536 Q597 557 647 557 Q695 557 730 537 Q765 517 784.5 486.5 Q804 456 807 426 Z M281 140 L338 406 Q326 411 310 411 Q291 411 276.5 404 Q262 397 255 388 L207 157 Q209 149 220 142 Q231 135 249 135 Q266 135 281 140 Z M600 388 Q597 397 586.5 404 Q576 411 557 411 Q542 411 525 406 L469 140 Q482 135 498 135 Q516 135 530.5 142 Q545 149 551 157 L600 388 Z " />
<glyph glyph-name="uni0445" unicode="&#x445;" horiz-adv-x="542" d="M411 278 L484 104 L462 0 L288 0 L258 167 L255 167 L152 0 L-36 0 L-14 104 L133 279 L65 442 L87 546 L257 546 L287 388 L290 388 L386 546 L572 546 L550 442 L411 278 Z " />
<glyph glyph-name="uni0446" unicode="&#x446;" horiz-adv-x="630" d="M585 144 L530 -114 L365 -114 L390 0 L-20 0 L96 546 L294 546 L208 143 L313 143 L399 546 L597 546 L511 144 L585 144 Z " />
<glyph glyph-name="uni0447" unicode="&#x447;" horiz-adv-x="561" d="M582 546 L466 0 L268 0 L304 173 Q273 164 232 164 Q154 164 103.5 188 Q53 212 32 253 L95 546 L293 546 L246 324 Q260 303 297 303 Q311 303 333 309 L384 546 L582 546 Z " />
<glyph glyph-name="uni0448" unicode="&#x448;" horiz-adv-x="843" d="M-20 0 L96 546 L294 546 L208 143 L294 143 L380 546 L578 546 L492 143 L579 143 L665 546 L863 546 L747 0 L-20 0 Z " />
<glyph glyph-name="uni0449" unicode="&#x449;" horiz-adv-x="900" d="M851 144 L796 -114 L631 -114 L656 0 L-20 0 L96 546 L294 546 L208 143 L294 143 L380 546 L578 546 L492 143 L579 143 L665 546 L863 546 L777 144 L851 144 Z " />
<glyph glyph-name="uni044A" unicode="&#x44a;" horiz-adv-x="643" d="M620 291 L577 94 Q512 0 387 0 L71 0 L157 404 L53 404 L83 546 L385 546 L352 385 L450 385 Q509 385 555 359 Q601 333 620 291 Z M418 222 Q415 231 403 238 Q391 245 370 245 L321 245 L298 140 L346 140 Q381 140 406 163 L418 222 Z " />
<glyph glyph-name="uni044B" unicode="&#x44b;" horiz-adv-x="803" d="M261 385 L353 385 Q412 385 458 359 Q504 333 523 291 L480 94 Q446 44 397 22 Q348 0 295 0 L-20 0 L96 546 L294 546 L261 385 Z M708 0 L510 0 L626 546 L824 546 L708 0 Z M230 245 L207 140 L249 140 Q270 140 283.5 146 Q297 152 309 163 L321 222 Q318 231 306.5 238 Q295 245 273 245 L230 245 Z " />
<glyph glyph-name="uni044C" unicode="&#x44c;" horiz-adv-x="551" d="M261 385 L359 385 Q418 385 464 359 Q510 333 529 291 L486 94 Q421 0 296 0 L-20 0 L96 546 L294 546 L261 385 Z M230 245 L207 140 L255 140 Q290 140 315 163 L327 222 Q324 231 312 238 Q300 245 279 245 L230 245 Z " />
<glyph glyph-name="uni044D" unicode="&#x44d;" horiz-adv-x="553" d="M552 423 L488 123 Q456 67 387.5 25.5 Q319 -16 216 -16 Q147 -16 99 4 Q51 24 25 50 Q-1 76 -10 97 L8 180 L180 180 Q183 159 199 148 Q215 137 239 137 Q259 137 274.5 144.5 Q290 152 298 163 L309 214 L164 214 L191 334 L335 334 L345 383 Q342 394 328 401.5 Q314 409 294 409 Q245 409 221 366 L49 366 L67 454 Q98 493 157.5 527.5 Q217 562 315 562 Q386 562 437 540.5 Q488 519 516 487 Q544 455 552 423 Z " />
<glyph glyph-name="uni044E" unicode="&#x44e;" horiz-adv-x="835" d="M835 423 L771 123 Q735 65 669 24.5 Q603 -16 499 -16 Q429 -16 378.5 5.5 Q328 27 300 59 Q272 91 264 123 L281 205 L222 205 L178 0 L-20 0 L96 546 L294 546 L252 348 L312 348 L328 423 Q362 480 429 521 Q496 562 599 562 Q670 562 720.5 540 Q771 518 798.5 486.5 Q826 455 835 423 Z M628 383 Q626 394 612 401.5 Q598 409 578 409 Q557 409 541 401.5 Q525 394 517 382 L470 163 Q474 152 487.5 144.5 Q501 137 520 137 Q541 137 557.5 145 Q574 153 581 164 L628 383 Z " />
<glyph glyph-name="Idot" unicode="&#x130;" horiz-adv-x="302" d="M200 0 L-14 0 L135 700 L349 700 L200 0 Z M379 862 L364 792 Q350 770 321 754 Q292 738 250 738 Q210 738 187.5 754 Q165 770 160 792 L175 862 Q190 884 219 900 Q248 916 288 916 Q329 916 352 900 Q375 884 379 862 Z " />
<glyph glyph-name="uni0162" unicode="&#x162;" horiz-adv-x="560" d="M626 700 L591 539 L444 539 L330 0 L264 0 L244 -36 L251 -36 Q290 -36 309.5 -51 Q329 -66 332 -88 L314 -168 Q274 -235 162 -235 Q131 -235 103 -230.5 Q75 -226 57 -219 L99 -143 Q143 -149 165 -149 Q184 -149 198.5 -144.5 Q213 -140 218 -133 L222 -115 Q218 -103 178 -103 L118 -103 L174 0 L116 0 L230 539 L82 539 L116 700 L626 700 Z " />
<glyph glyph-name="dslash" unicode="&#x111;" horiz-adv-x="586" d="M631 558 L595 558 L476 0 L286 0 L295 42 Q240 -11 163 -11 Q114 -11 78 9.5 Q42 30 22.5 60.5 Q3 91 0 121 L58 391 Q83 442 135.5 482.5 Q188 523 259 523 Q335 523 379 474 L397 558 L270 558 L291 657 L418 657 L427 700 L625 700 L616 657 L652 657 L631 558 Z M258 143 Q290 143 311 159 L353 353 Q333 369 302 369 Q283 369 268 361.5 Q253 354 246 345 L209 167 Q212 158 225 150.5 Q238 143 258 143 Z " />
<glyph glyph-name="uni0237" unicode="&#x237;" horiz-adv-x="272" d="M166 -45 Q138 -106 66.5 -143 Q-5 -180 -116 -180 L-84 -29 Q-64 -29 -46 -18 Q-28 -7 -20 8 L95 546 L292 546 L166 -45 Z " />
<glyph glyph-name="uni0163" unicode="&#x163;" horiz-adv-x="372" d="M292 404 L238 152 Q251 137 296 137 L322 138 L293 0 Q249 -14 194 -14 L193 -14 L181 -36 L188 -36 Q227 -36 246.5 -51 Q266 -66 269 -88 L251 -168 Q211 -235 99 -235 Q68 -235 40 -230.5 Q12 -226 -6 -219 L36 -143 Q80 -149 102 -149 Q121 -149 135.5 -144.5 Q150 -140 155 -133 L159 -115 Q155 -103 115 -103 L55 -103 L110 -2 Q42 22 25 83 L94 404 L49 404 L79 546 L125 546 L148 657 L347 657 L323 546 L397 546 L367 404 L292 404 Z " />
<glyph glyph-name="f_f" unicode="&#xfb00;" horiz-adv-x="683" d="M653 574 L647 546 L722 546 L692 404 L617 404 L531 0 L332 0 L418 404 L417 404 L292 404 L206 0 L7 0 L93 404 L49 404 L79 546 L123 546 L143 638 Q166 678 219 706.5 Q272 735 347 735 Q408 735 447 721 L418 588 L389 589 Q346 589 328 574 L322 546 L404 546 L448 546 L468 638 Q491 678 544 706.5 Q597 735 672 735 Q733 735 772 721 L743 588 L714 589 Q671 589 653 574 Z " />
<glyph glyph-name="uni04D8" unicode="&#x4d8;" horiz-adv-x="617" d="M643 562 L552 138 Q516 75 441.5 29.5 Q367 -16 254 -16 Q178 -16 125 6.5 Q72 29 43 60 Q14 91 4 121 L63 398 L393 398 L419 518 Q414 533 398.5 541.5 Q383 550 359 550 Q298 550 266 488 L82 488 L101 579 Q136 634 204.5 675 Q273 716 384 716 Q462 716 517.5 692 Q573 668 603.5 633 Q634 598 643 562 Z M347 182 L363 258 L230 258 L214 184 Q232 150 278 150 Q325 150 347 182 Z " />
<glyph glyph-name="uni04D9" unicode="&#x4d9;" horiz-adv-x="557" d="M-6 98 L45 332 L338 332 L350 388 Q347 399 333 406.5 Q319 414 298 414 Q249 414 227 372 L54 372 L71 453 Q102 492 161 527 Q220 562 320 562 Q391 562 441.5 540 Q492 518 520 486.5 Q548 455 556 423 L492 123 Q461 67 392.5 25.5 Q324 -16 221 -16 Q152 -16 103.5 5 Q55 26 29 52 Q3 78 -6 98 Z M301 158 L312 209 L201 209 L190 158 Q194 148 208.5 140 Q223 132 242 132 Q262 132 277.5 139.5 Q293 147 301 158 Z " />
<glyph glyph-name="Alpha" unicode="&#x391;" horiz-adv-x="644" d="M565 0 L373 0 L374 133 L204 133 L149 0 L-37 0 L-13 114 L261 700 L565 700 L589 114 L565 0 Z M378 545 L375 545 L271 294 L376 294 L378 545 Z " />
<glyph glyph-name="Beta" unicode="&#x392;" horiz-adv-x="617" d="M532 365 Q577 342 591 307 L550 120 Q519 68 457.5 34 Q396 0 317 0 L-14 0 L135 700 L432 700 Q521 700 573 664 Q625 628 640 580 L610 432 Q599 413 576.5 394 Q554 375 532 365 Z M433 519 Q421 546 376 546 L316 546 L291 424 L355 424 Q397 424 418 453 L433 519 Z M386 264 Q380 277 365.5 284.5 Q351 292 329 292 L262 292 L233 154 L302 154 Q327 154 342.5 161.5 Q358 169 369 184 L386 264 Z " />
<glyph glyph-name="Gamma" unicode="&#x393;" horiz-adv-x="484" d="M516 539 L315 539 L200 0 L-14 0 L135 700 L550 700 L516 539 Z " />
<glyph glyph-name="Epsilon" unicode="&#x395;" horiz-adv-x="537" d="M315 539 L293 437 L520 437 L485 275 L258 275 L235 161 L482 161 L447 0 L-14 0 L135 700 L591 700 L556 539 L315 539 Z " />
<glyph glyph-name="Zeta" unicode="&#x396;" horiz-adv-x="553" d="M266 161 L502 161 L468 0 L-31 0 L-2 137 L318 539 L87 539 L121 700 L617 700 L588 563 L266 161 Z " />
<glyph glyph-name="Eta" unicode="&#x397;" horiz-adv-x="664" d="M348 0 L407 280 L259 280 L200 0 L-14 0 L135 700 L349 700 L294 441 L441 441 L497 700 L711 700 L562 0 L348 0 Z " />
<glyph glyph-name="Theta" unicode="&#x398;" horiz-adv-x="626" d="M652 562 L561 138 Q522 73 449.5 28.5 Q377 -16 264 -16 Q187 -16 132 8 Q77 32 46.5 67 Q16 102 8 138 L99 562 Q136 627 209 671.5 Q282 716 395 716 Q472 716 527.5 692 Q583 668 613.5 633 Q644 598 652 562 Z M303 518 L231 182 Q235 168 250.5 159 Q266 150 289 150 Q333 150 356 182 L428 518 Q424 532 408.5 541 Q393 550 370 550 Q324 550 303 518 Z M386 423 L359 298 L277 298 L304 423 L386 423 Z " />
<glyph glyph-name="Iota" unicode="&#x399;" horiz-adv-x="302" d="M200 0 L-14 0 L135 700 L349 700 L200 0 Z " />
<glyph glyph-name="Kappa" unicode="&#x39a;" horiz-adv-x="639" d="M555 0 L388 0 L299 255 L243 203 L200 0 L-14 0 L135 700 L349 700 L305 493 L518 700 L679 700 L654 586 L465 410 L579 114 L555 0 Z " />
<glyph glyph-name="Lambda" unicode="&#x39b;" horiz-adv-x="640" d="M265 700 L556 700 L584 114 L560 0 L362 0 L366 483 L363 483 L161 0 L-37 0 L-13 114 L265 700 Z " />
<glyph glyph-name="Mu" unicode="&#x39c;" horiz-adv-x="815" d="M514 0 L600 405 L597 405 L428 117 L319 117 L273 405 L270 405 L184 0 L-14 0 L135 700 L399 700 L438 432 L441 432 L584 700 L862 700 L713 0 L514 0 Z " />
<glyph glyph-name="Nu" unicode="&#x39d;" horiz-adv-x="674" d="M349 0 L265 363 L262 363 L184 0 L-14 0 L135 700 L358 700 L443 336 L446 336 L523 700 L721 700 L572 0 L349 0 Z " />
<glyph glyph-name="Xi" unicode="&#x39e;" horiz-adv-x="576" d="M595 539 L450 539 L430 440 L540 440 L506 279 L395 279 L370 161 L520 161 L486 0 L-26 0 L9 161 L163 161 L187 279 L73 279 L107 440 L222 440 L243 539 L94 539 L128 700 L630 700 L595 539 Z " />
<glyph glyph-name="Omicron" unicode="&#x39f;" horiz-adv-x="626" d="M652 562 L561 138 Q522 73 449.5 28.5 Q377 -16 264 -16 Q187 -16 132 8 Q77 32 46.5 67 Q16 102 8 138 L99 562 Q136 627 209 671.5 Q282 716 395 716 Q472 716 527.5 692 Q583 668 613.5 633 Q644 598 652 562 Z M303 518 L231 182 Q235 168 250.5 159 Q266 150 289 150 Q333 150 356 182 L428 518 Q424 532 408.5 541 Q393 550 370 550 Q324 550 303 518 Z " />
<glyph glyph-name="Pi" unicode="&#x3a0;" horiz-adv-x="658" d="M556 0 L342 0 L456 539 L315 539 L200 0 L-14 0 L135 700 L705 700 L556 0 Z " />
<glyph glyph-name="Rho" unicode="&#x3a1;" horiz-adv-x="609" d="M649 580 L601 355 Q557 292 498.5 263.5 Q440 235 357 235 L250 235 L200 0 L-14 0 L135 700 L435 700 Q508 700 564 669.5 Q620 639 649 580 Z M429 513 Q425 527 410 534 Q395 541 373 541 L315 541 L284 394 L341 394 Q389 394 410 423 L429 513 Z " />
<glyph glyph-name="Sigma" unicode="&#x3a3;" horiz-adv-x="558" d="M577 539 L325 539 L428 345 L265 161 L502 161 L468 0 L-31 0 L-2 136 L192 360 L94 543 L128 700 L612 700 L577 539 Z " />
<glyph glyph-name="Tau" unicode="&#x3a4;" horiz-adv-x="560" d="M444 539 L330 0 L116 0 L230 539 L82 539 L116 700 L626 700 L591 539 L444 539 Z " />
<glyph glyph-name="Upsilon" unicode="&#x3a5;" horiz-adv-x="600" d="M400 258 L345 0 L130 0 L189 279 L88 586 L113 700 L293 700 L338 475 L341 475 L482 700 L670 700 L645 586 L400 258 Z " />
<glyph glyph-name="Phi" unicode="&#x3a6;" horiz-adv-x="846" d="M859 503 L793 197 Q748 127 672.5 87 Q597 47 519 47 L467 47 L452 -20 L266 -20 L280 47 L249 47 Q199 47 151.5 66.5 Q104 86 69 120.5 Q34 155 20 197 L86 503 Q128 571 205 615.5 Q282 660 359 660 L413 660 L426 720 L612 720 L599 660 L633 660 Q683 660 730.5 638.5 Q778 617 812.5 581 Q847 545 859 503 Z M314 203 L379 504 L353 504 Q332 504 309.5 491.5 Q287 479 274 464 L223 236 Q231 222 248.5 212.5 Q266 203 289 203 L314 203 Z M656 464 Q648 479 630.5 491.5 Q613 504 591 504 L566 504 L500 203 L527 203 Q550 203 572 212.5 Q594 222 605 236 L656 464 Z " />
<glyph glyph-name="Chi" unicode="&#x3a7;" horiz-adv-x="610" d="M459 355 L549 114 L525 0 L339 0 L298 218 L295 218 L156 0 L-31 0 L-7 114 L185 356 L98 586 L122 700 L305 700 L349 491 L352 491 L484 700 L671 700 L646 586 L459 355 Z " />
<glyph glyph-name="Psi" unicode="&#x3a8;" horiz-adv-x="835" d="M885 700 L794 274 Q753 207 676 169 Q599 131 509 131 L482 131 L454 0 L264 0 L292 131 L284 131 Q196 131 130.5 170.5 Q65 210 41 274 L132 700 L332 700 L252 323 Q258 308 275.5 298 Q293 288 323 288 L326 288 L413 700 L603 700 L516 288 L522 288 Q576 288 604 323 L685 700 L885 700 Z " />
<glyph glyph-name="Alphatonos" unicode="&#x386;" horiz-adv-x="644" d="M565 0 L373 0 L374 133 L204 133 L149 0 L-37 0 L-13 114 L261 700 L565 700 L589 114 L565 0 Z M378 545 L375 545 L271 294 L376 294 L378 545 Z M195 700 L177 619 L76 530 L-74 530 L-72 545 L7 700 L195 700 Z " />
<glyph glyph-name="Epsilontonos" unicode="&#x388;" horiz-adv-x="537" d="M315 539 L293 437 L520 437 L485 275 L258 275 L235 161 L482 161 L447 0 L-14 0 L135 700 L591 700 L556 539 L315 539 Z M94 700 L76 619 L-25 530 L-175 530 L-173 545 L-94 700 L94 700 Z " />
<glyph glyph-name="Etatonos" unicode="&#x389;" horiz-adv-x="664" d="M348 0 L407 280 L259 280 L200 0 L-14 0 L135 700 L349 700 L294 441 L441 441 L497 700 L711 700 L562 0 L348 0 Z M94 700 L76 619 L-25 530 L-175 530 L-173 545 L-94 700 L94 700 Z " />
<glyph glyph-name="Iotatonos" unicode="&#x38a;" horiz-adv-x="302" d="M200 0 L-14 0 L135 700 L349 700 L200 0 Z M94 700 L76 619 L-25 530 L-175 530 L-173 545 L-94 700 L94 700 Z " />
<glyph glyph-name="Omicrontonos" unicode="&#x38c;" horiz-adv-x="626" d="M652 562 L561 138 Q522 73 449.5 28.5 Q377 -16 264 -16 Q187 -16 132 8 Q77 32 46.5 67 Q16 102 8 138 L99 562 Q136 627 209 671.5 Q282 716 395 716 Q472 716 527.5 692 Q583 668 613.5 633 Q644 598 652 562 Z M303 518 L231 182 Q235 168 250.5 159 Q266 150 289 150 Q333 150 356 182 L428 518 Q424 532 408.5 541 Q393 550 370 550 Q324 550 303 518 Z M114 700 L96 619 L-5 530 L-155 530 L-153 545 L-74 700 L114 700 Z " />
<glyph glyph-name="Upsilontonos" unicode="&#x38e;" horiz-adv-x="600" d="M400 258 L345 0 L130 0 L189 279 L88 586 L113 700 L293 700 L338 475 L341 475 L482 700 L670 700 L645 586 L400 258 Z M84 700 L66 619 L-35 530 L-185 530 L-183 545 L-104 700 L84 700 Z " />
<glyph glyph-name="Omegatonos" unicode="&#x38f;" horiz-adv-x="635" d="M473 161 L571 161 L536 0 L288 0 L334 218 Q346 220 357 228 Q368 236 374 246 L433 518 Q429 532 414.5 541 Q400 550 377 550 Q354 550 335.5 541 Q317 532 308 518 L249 246 Q251 236 258 228 Q265 220 277 218 L231 0 L-17 0 L18 161 L132 161 Q94 183 70 210 Q46 237 39 265 L103 562 Q139 624 214.5 670 Q290 716 403 716 Q478 716 532.5 691.5 Q587 667 617 632 Q647 597 656 562 L593 259 Q553 200 473 161 Z M114 700 L96 619 L-5 530 L-155 530 L-153 545 L-74 700 L114 700 Z " />
<glyph glyph-name="Iotadieresis" unicode="&#x3aa;" horiz-adv-x="302" d="M200 0 L-14 0 L135 700 L349 700 L200 0 Z M254 866 L235 771 Q219 756 196.5 745 Q174 734 136 734 Q78 734 54 771 L73 866 Q91 881 113 892 Q135 903 172 903 Q210 903 227.5 892 Q245 881 254 866 Z M482 866 L463 771 Q447 756 424.5 745 Q402 734 364 734 Q306 734 282 771 L301 866 Q319 881 341 892 Q363 903 400 903 Q438 903 455.5 892 Q473 881 482 866 Z " />
<glyph glyph-name="Upsilondieresis" unicode="&#x3ab;" horiz-adv-x="600" d="M400 258 L345 0 L130 0 L189 279 L88 586 L113 700 L293 700 L338 475 L341 475 L482 700 L670 700 L645 586 L400 258 Z M403 866 L384 771 Q368 756 345.5 745 Q323 734 285 734 Q227 734 203 771 L222 866 Q240 881 262 892 Q284 903 321 903 Q359 903 376.5 892 Q394 881 403 866 Z M631 866 L612 771 Q596 756 573.5 745 Q551 734 513 734 Q455 734 431 771 L450 866 Q468 881 490 892 Q512 903 549 903 Q587 903 604.5 892 Q622 881 631 866 Z " />
<glyph glyph-name="alpha" unicode="&#x3b1;" horiz-adv-x="570" d="M592 546 L476 0 L286 0 L295 42 Q239 -11 163 -11 Q114 -11 78 9.5 Q42 30 22.5 60.5 Q3 91 0 121 L65 425 Q91 477 143 517 Q195 557 266 557 Q348 557 392 501 L402 546 L592 546 Z M258 143 Q289 143 311 158 L360 387 Q344 403 310 403 Q291 403 275.5 395.5 Q260 388 253 379 L209 167 Q212 158 225 150.5 Q238 143 258 143 Z " />
<glyph glyph-name="beta" unicode="&#x3b2;" horiz-adv-x="571" d="M489 378 Q535 339 548 296 L511 123 Q484 68 432 28.5 Q380 -11 308 -11 Q229 -11 184 43 L139 -166 L-59 -166 L102 579 Q135 634 201 675 Q267 716 367 716 Q434 716 481.5 697 Q529 678 555 653 Q581 628 592 606 L555 435 Q546 421 527 405 Q508 389 489 378 Z M387 539 Q382 551 371.5 557 Q361 563 343 563 Q326 563 312.5 556 Q299 549 291 538 L210 162 Q227 143 263 143 Q283 143 299.5 151.5 Q316 160 323 170 L345 273 Q341 285 327 292 Q313 299 292 299 L279 299 L310 440 L320 440 Q335 440 348.5 447.5 Q362 455 371 469 L387 539 Z " />
<glyph glyph-name="gamma" unicode="&#x3b3;" horiz-adv-x="554" d="M566 442 L317 0 L316 0 L280 -166 L83 -166 L119 2 L60 442 L81 546 L257 546 L270 251 L273 251 L410 546 L588 546 L566 442 Z " />
<glyph glyph-name="delta" unicode="&#x3b4;" horiz-adv-x="573" d="M299 556 L290 518 Q291 510 302 503.5 Q313 497 329 494 L379 483 Q455 467 499.5 428 Q544 389 555 347 L508 123 Q474 67 406.5 25.5 Q339 -16 240 -16 Q167 -16 116 6 Q65 28 37.5 60 Q10 92 1 123 L45 329 Q63 358 97.5 384.5 Q132 411 181 427 Q147 442 128.5 459.5 Q110 477 104 492 L128 608 Q157 647 217 681.5 Q277 716 372 716 Q437 716 483 696.5 Q529 677 554.5 652.5 Q580 628 589 608 L575 540 L407 540 Q395 577 352 577 Q335 577 321 571 Q307 565 299 556 Z M303 355 Q283 355 267 347 Q251 339 243 328 L207 163 Q211 152 225 144.5 Q239 137 258 137 Q278 137 294.5 145 Q311 153 318 164 L353 329 Q351 340 337 347.5 Q323 355 303 355 Z " />
<glyph glyph-name="epsilon" unicode="&#x3b5;" horiz-adv-x="549" d="M256 390 L251 366 Q255 352 268.5 344.5 Q282 337 300 337 L379 337 L352 217 L276 217 Q255 217 238.5 210.5 Q222 204 214 192 L206 156 Q209 147 224 139.5 Q239 132 258 132 Q308 132 335 171 L502 171 L485 94 Q453 50 392 17 Q331 -16 230 -16 Q161 -16 111 3.5 Q61 23 32.5 49 Q4 75 -6 96 L20 212 Q32 233 57 253 Q82 273 110 285 Q91 296 75.5 312 Q60 328 53 343 L76 451 Q91 475 124.5 500.5 Q158 526 211 544 Q264 562 332 562 Q399 562 448 543 Q497 524 524 499 Q551 474 560 453 L545 381 L368 381 Q364 396 349.5 405 Q335 414 312 414 Q276 414 256 390 Z " />
<glyph glyph-name="zeta" unicode="&#x3b6;" horiz-adv-x="524" d="M227 243 L213 174 Q216 167 230.5 160.5 Q245 154 264 154 L467 154 L407 -125 L240 -125 L267 0 L191 0 Q132 0 91 20 Q50 40 28 69.5 Q6 99 2 130 L31 269 Q59 317 115 367 L321 554 L117 554 L148 700 L587 700 L558 563 L269 294 Q239 266 227 243 Z " />
<glyph glyph-name="eta" unicode="&#x3b7;" horiz-adv-x="573" d="M570 425 L443 -166 L245 -166 L362 379 Q357 388 345.5 395.5 Q334 403 314 403 Q278 403 258 386 L176 0 L-22 0 L94 546 L277 546 L266 493 Q328 557 413 557 Q462 557 496.5 537.5 Q531 518 549 487.5 Q567 457 570 425 Z " />
<glyph glyph-name="theta" unicode="&#x3b8;" horiz-adv-x="568" d="M599 589 L497 111 Q458 58 392.5 21 Q327 -16 231 -16 Q134 -16 78 22 Q22 60 2 111 L104 589 Q144 642 209 679 Q274 716 370 716 Q466 716 521 678.5 Q576 641 599 589 Z M286 537 L264 435 L373 435 L395 537 Q392 547 378.5 554.5 Q365 562 345 562 Q307 562 286 537 Z M315 163 L347 313 L238 313 L205 163 Q209 153 222.5 145.5 Q236 138 256 138 Q275 138 291 145 Q307 152 315 163 Z " />
<glyph glyph-name="iota" unicode="&#x3b9;" horiz-adv-x="274" d="M178 0 L-20 0 L96 546 L294 546 L178 0 Z " />
<glyph glyph-name="kappa" unicode="&#x3ba;" horiz-adv-x="565" d="M509 104 L487 0 L333 0 L259 186 L206 139 L176 0 L-22 0 L94 546 L292 546 L258 388 L433 546 L578 546 L556 442 L418 323 L509 104 Z " />
<glyph glyph-name="lambda" unicode="&#x3bb;" horiz-adv-x="545" d="M487 104 L466 0 L290 0 L285 301 L152 0 L-36 0 L-14 104 L240 531 L235 569 Q225 579 204.5 584.5 Q184 590 161 590 Q143 590 119 588 L148 721 Q189 734 246 734 Q364 734 421 656 L487 104 Z " />
<glyph glyph-name="nu" unicode="&#x3bd;" horiz-adv-x="554" d="M341 0 L97 0 L60 442 L82 546 L261 546 L261 214 L264 214 L410 546 L588 546 L567 442 L341 0 Z " />
<glyph glyph-name="xi" unicode="&#x3be;" horiz-adv-x="533" d="M590 627 L568 524 L392 524 Q388 562 348 562 Q317 562 298 539 L282 468 Q293 440 325 440 L412 440 L381 299 L295 299 Q274 299 257 291.5 Q240 284 230 271 L210 177 Q213 169 226 161.5 Q239 154 259 154 L467 154 L407 -125 L240 -125 L267 0 L177 0 Q122 0 83.5 20 Q45 40 25.5 69.5 Q6 99 2 130 L37 296 Q50 316 81 338.5 Q112 361 148 376 Q125 387 104 407.5 Q83 428 79 443 L107 579 Q144 635 209.5 675.5 Q275 716 370 716 Q463 716 516.5 686.5 Q570 657 590 627 Z " />
</font>
</svg>
