<?xml version="1.0" encoding="utf-8" ?><svg version="1.1" xmlns = 'http://www.w3.org/2000/svg'><defs><font id='web' horiz-adv-x="1000">
<font-face font-family="web" descent="-410" cap-height="1518" units-per-em="2048" bbox="-186,-633,3422,2564" x-height="1139" ascent="1638" />
<missing-glyph horiz-adv-x="1024" d="M 0 1434 L 1024 1434 L 1024 0 L 0 0 L 0 1434 Z M 102 102 L 922 102 L 922 1331 L 102 1331 L 102 102 Z" /><glyph horiz-adv-x="451" d="" unicode=" " />
<glyph horiz-adv-x="801" d="M 233 332 L 565 332 L 565 0 L 233 0 L 233 332 Z M 248 1518 L 555 1518 L 524 465 L 274 465 L 248 1518 Z" unicode="!" />
<glyph horiz-adv-x="1133" d="M 182 1518 L 471 1518 L 455 842 L 201 842 L 182 1518 Z M 662 1518 L 952 1518 L 934 842 L 680 842 L 662 1518 Z" unicode="&#x22;" />
<glyph horiz-adv-x="1610" d="M 350 385 L 121 385 L 121 633 L 395 633 L 436 844 L 121 844 L 121 1096 L 483 1096 L 567 1518 L 834 1518 L 750 1096 L 985 1096 L 1067 1518 L 1333 1518 L 1253 1096 L 1491 1096 L 1491 844 L 1206 844 L 1165 633 L 1491 633 L 1491 385 L 1118 385 L 1044 0 L 776 0 L 850 385 L 616 385 L 543 0 L 274 0 L 350 385 Z M 915 618 L 963 860 L 686 860 L 639 618 L 915 618 Z" unicode="#" />
<glyph horiz-adv-x="1395" d="M 573 4 C 485 10 400 25 316 49 C 232 73 154 110 84 160 L 209 358 C 249 332 289 311 328 295 C 366 278 405 265 444 255 C 482 245 521 237 561 233 C 601 229 642 227 684 227 C 747 227 800 231 842 241 C 884 250 918 264 943 282 C 968 300 986 322 996 348 C 1006 374 1012 404 1012 438 C 1012 476 1005 508 991 532 C 977 556 957 576 929 592 C 901 608 865 620 822 630 C 779 640 728 649 670 659 C 626 665 583 673 541 681 C 499 689 458 700 420 713 C 382 726 346 742 314 762 C 282 781 254 805 230 835 C 206 864 187 899 174 940 C 160 980 154 1029 154 1085 C 154 1153 162 1212 180 1263 C 198 1313 224 1356 259 1391 C 294 1425 338 1452 390 1472 C 442 1492 503 1505 573 1513 L 573 1661 L 831 1661 L 831 1513 C 915 1505 988 1491 1049 1471 C 1110 1451 1162 1427 1206 1401 L 1083 1190 C 1060 1204 1034 1216 1004 1228 C 974 1239 943 1249 909 1257 C 875 1265 841 1271 805 1275 C 769 1279 734 1282 700 1282 C 644 1282 599 1277 563 1269 C 527 1261 499 1249 478 1233 C 457 1217 442 1198 434 1176 C 426 1154 422 1128 422 1100 C 422 1062 429 1032 445 1010 C 460 987 482 968 512 954 C 542 939 579 927 623 918 C 667 908 718 899 776 889 C 819 881 861 873 903 864 C 945 855 984 844 1021 830 C 1058 816 1092 800 1124 780 C 1156 760 1183 736 1206 707 C 1228 677 1246 643 1259 603 C 1271 563 1278 515 1278 461 C 1278 397 1269 339 1252 287 C 1235 235 1209 189 1173 151 C 1137 113 1090 81 1034 57 C 977 33 909 16 831 8 L 831 -193 L 573 -193 L 573 4 Z" unicode="$" />
<glyph horiz-adv-x="2484" d="M 541 549 C 463 549 394 560 336 582 C 277 604 228 637 189 680 C 150 722 121 774 101 835 C 81 896 72 966 72 1044 C 72 1120 81 1189 101 1251 C 121 1313 150 1365 189 1408 C 228 1451 277 1484 336 1507 C 394 1530 463 1542 541 1542 C 617 1542 683 1530 741 1508 C 798 1485 846 1452 884 1409 C 922 1366 951 1314 971 1252 C 991 1190 1001 1121 1001 1044 C 1001 966 991 896 971 835 C 951 774 922 722 884 680 C 846 637 798 604 741 582 C 683 560 617 549 541 549 Z M 541 764 C 581 764 614 770 641 784 C 667 798 689 817 706 841 C 722 865 734 895 741 929 C 748 963 752 1002 752 1044 C 752 1085 748 1123 741 1157 C 733 1191 721 1220 705 1244 C 689 1268 667 1287 640 1301 C 613 1314 580 1321 541 1321 C 501 1321 467 1314 439 1301 C 411 1288 389 1269 372 1245 C 355 1221 343 1192 335 1158 C 327 1124 324 1086 324 1044 C 324 1002 327 963 335 929 C 342 895 354 865 371 841 C 388 817 410 798 438 784 C 466 770 500 764 541 764 Z M 1946 -20 C 1868 -20 1801 -8 1743 14 C 1685 36 1636 69 1598 112 C 1559 155 1530 207 1510 269 C 1490 331 1481 401 1481 479 C 1481 555 1490 624 1510 686 C 1530 748 1559 800 1598 843 C 1636 886 1685 919 1743 942 C 1801 965 1868 977 1946 977 C 2022 977 2090 965 2148 942 C 2206 919 2254 886 2293 843 C 2331 800 2360 748 2380 686 C 2400 624 2410 555 2410 479 C 2410 401 2400 331 2380 269 C 2360 207 2331 155 2293 112 C 2254 69 2206 36 2148 14 C 2090 -8 2022 -20 1946 -20 Z M 1946 197 C 1986 197 2019 203 2047 217 C 2074 230 2096 249 2113 274 C 2129 298 2141 328 2148 363 C 2155 397 2159 436 2159 479 C 2159 519 2155 557 2148 591 C 2140 625 2128 654 2112 678 C 2095 702 2073 720 2046 734 C 2019 747 1986 754 1946 754 C 1906 754 1873 747 1846 734 C 1818 721 1796 703 1780 679 C 1763 655 1751 626 1744 592 C 1736 558 1733 520 1733 479 C 1733 436 1736 397 1744 363 C 1751 328 1763 298 1779 274 C 1795 249 1817 230 1845 217 C 1872 203 1906 197 1946 197 Z M 1534 1520 L 1796 1520 L 946 0 L 686 0 L 1534 1520 Z" unicode="%" />
<glyph horiz-adv-x="1706" d="M 647 -20 C 550 -20 466 -12 395 3 C 323 18 264 43 218 78 C 171 113 136 159 114 215 C 91 271 80 340 80 422 C 80 479 88 530 105 575 C 121 619 144 659 173 694 C 201 729 234 760 272 786 C 310 812 349 836 391 858 C 368 910 351 962 339 1013 C 327 1063 322 1113 322 1163 C 322 1227 331 1283 350 1331 C 369 1378 396 1417 431 1449 C 465 1480 507 1503 557 1519 C 606 1534 661 1542 723 1542 C 784 1542 838 1534 885 1520 C 931 1506 970 1483 1002 1453 C 1034 1422 1058 1383 1074 1335 C 1090 1287 1098 1229 1098 1163 C 1098 1109 1088 1061 1069 1020 C 1050 978 1025 942 993 910 C 961 878 924 849 883 824 C 842 799 800 776 756 756 C 784 716 815 677 848 641 C 880 605 913 571 946 541 C 969 518 991 497 1013 479 C 1035 460 1056 442 1077 426 C 1114 484 1147 554 1176 635 C 1204 715 1234 808 1264 913 L 1499 856 C 1468 738 1435 634 1401 542 C 1367 450 1327 369 1282 299 C 1310 287 1336 277 1360 270 C 1384 262 1408 257 1430 254 C 1452 250 1474 248 1494 247 C 1514 246 1534 246 1554 246 L 1571 246 L 1571 0 L 1544 0 C 1502 0 1463 1 1425 4 C 1387 6 1350 11 1314 18 C 1278 25 1242 35 1206 48 C 1170 60 1134 77 1096 98 C 1038 58 972 28 899 9 C 826 -10 742 -20 647 -20 Z M 647 207 C 738 207 815 221 879 250 C 855 269 830 290 806 312 C 781 334 755 358 729 385 C 687 425 648 467 610 512 C 572 556 538 603 506 653 C 484 639 463 623 445 607 C 426 591 410 573 396 555 C 382 537 371 517 363 495 C 355 473 352 450 352 426 C 352 394 355 365 361 339 C 367 312 380 289 401 269 C 421 249 451 234 490 223 C 529 212 581 207 647 207 Z M 586 1163 C 586 1130 591 1095 601 1057 C 611 1019 626 981 645 942 C 675 956 702 970 728 986 C 753 1002 775 1018 794 1036 C 812 1054 827 1073 838 1094 C 848 1114 854 1137 854 1163 C 854 1210 844 1246 826 1270 C 807 1294 773 1307 723 1307 C 673 1307 637 1294 617 1270 C 596 1246 586 1210 586 1163 Z" unicode="&#x26;" />
<glyph horiz-adv-x="655" d="M 182 1520 L 471 1520 L 455 842 L 201 842 L 182 1520 Z" unicode="'" />
<glyph horiz-adv-x="1044" d="M 641 -389 C 593 -348 543 -296 493 -232 C 442 -168 396 -94 355 -10 C 313 74 279 169 253 275 C 226 380 213 495 213 621 C 213 697 219 771 231 843 C 243 915 260 985 281 1051 C 302 1117 327 1179 355 1238 C 383 1296 412 1350 444 1400 C 476 1450 508 1494 542 1534 C 576 1573 609 1606 641 1634 L 844 1499 C 804 1456 763 1407 722 1352 C 681 1297 644 1234 611 1163 C 578 1091 551 1011 531 921 C 510 831 500 731 500 621 C 500 509 511 407 533 315 C 555 223 583 141 617 69 C 651 -3 688 -66 728 -120 C 768 -174 807 -218 844 -254 L 641 -389 L 641 -389 Z" unicode="(" />
<glyph horiz-adv-x="1044" d="M 203 -254 C 243 -212 283 -163 323 -109 C 363 -55 400 7 433 78 C 466 149 493 229 514 319 C 534 408 545 509 545 621 C 545 731 533 833 511 925 C 489 1017 461 1100 427 1173 C 393 1246 357 1310 317 1364 C 277 1418 239 1463 203 1499 L 401 1634 C 449 1592 499 1540 551 1476 C 602 1412 649 1338 691 1253 C 733 1167 767 1072 794 966 C 820 860 834 745 834 621 C 834 544 827 469 815 397 C 803 325 786 256 765 190 C 743 124 718 62 690 4 C 662 -53 632 -107 600 -157 C 568 -206 535 -250 501 -289 C 467 -328 433 -361 401 -389 L 203 -254 Z" unicode=")" />
<glyph horiz-adv-x="1231" d="M 530 848 L 231 653 L 121 854 L 442 1008 L 121 1165 L 231 1364 L 530 1167 L 506 1520 L 723 1520 L 698 1165 L 999 1364 L 1110 1167 L 786 1008 L 1110 852 L 999 655 L 698 852 L 723 500 L 506 500 L 530 848 Z" unicode="*" />
<glyph horiz-adv-x="1466" d="M 594 594 L 199 594 L 199 852 L 594 852 L 594 1245 L 872 1245 L 872 852 L 1268 852 L 1268 594 L 872 594 L 872 199 L 594 199 L 594 594 Z" unicode="+" />
<glyph horiz-adv-x="573" d="M 125 -164 C 157 -148 183 -134 203 -122 C 223 -110 238 -99 250 -88 C 261 -76 269 -64 273 -50 C 277 -36 279 -20 279 0 L 121 0 L 121 338 L 451 338 L 451 96 C 451 57 449 23 447 -7 C 445 -37 440 -64 434 -88 C 427 -112 418 -134 406 -153 C 394 -172 379 -190 360 -207 C 341 -223 318 -239 291 -255 C 264 -271 232 -287 195 -303 L 125 -164 Z" unicode="," />
<glyph horiz-adv-x="885" d="M 86 791 L 797 791 L 797 535 L 86 535 L 86 791 Z" unicode="-" />
<glyph horiz-adv-x="573" d="M 121 338 L 451 338 L 451 0 L 121 0 L 121 338 Z" unicode="." />
<glyph horiz-adv-x="1135" d="M 850 1518 L 1135 1518 L 287 0 L 0 0 L 850 1518 Z" unicode="/" />
<glyph horiz-adv-x="1561" d="M 782 -23 C 660 -23 558 -5 476 29 C 394 64 327 115 277 182 C 227 248 191 330 169 427 C 147 524 137 635 137 760 C 137 885 147 996 169 1094 C 191 1191 227 1273 277 1339 C 327 1405 394 1456 476 1490 C 558 1524 660 1542 782 1542 C 901 1542 1001 1524 1083 1490 C 1165 1456 1231 1405 1281 1339 C 1331 1273 1368 1191 1390 1094 C 1412 996 1423 885 1423 760 C 1423 635 1412 524 1390 427 C 1368 330 1331 248 1281 182 C 1231 115 1165 64 1083 29 C 1001 -5 901 -23 782 -23 Z M 782 227 C 854 227 913 239 959 264 C 1005 288 1041 324 1067 370 C 1093 416 1110 472 1120 538 C 1130 604 1135 678 1135 760 C 1135 842 1130 916 1120 981 C 1110 1046 1093 1101 1067 1145 C 1041 1189 1005 1223 959 1247 C 913 1270 854 1282 782 1282 C 709 1282 650 1270 604 1247 C 558 1223 521 1189 495 1145 C 469 1101 451 1046 441 981 C 431 916 426 842 426 760 C 426 678 431 604 441 538 C 451 472 469 416 495 370 C 521 324 558 288 604 264 C 650 239 709 227 782 227 Z" unicode="0" />
<glyph horiz-adv-x="829" d="M 334 1260 L 68 1260 L 68 1518 L 608 1518 L 608 0 L 334 0 L 334 1260 Z" unicode="1" />
<glyph horiz-adv-x="1292" d="M 70 225 L 569 672 C 625 723 673 767 713 805 C 753 843 785 878 810 910 C 835 942 853 973 864 1003 C 875 1033 881 1066 881 1102 C 881 1134 876 1163 868 1187 C 859 1211 844 1230 823 1246 C 802 1261 774 1272 739 1280 C 703 1288 659 1292 606 1292 C 568 1292 529 1289 490 1284 C 451 1279 414 1272 378 1264 C 342 1255 308 1245 276 1234 C 244 1222 217 1210 195 1198 L 68 1419 C 106 1439 144 1457 182 1473 C 220 1488 262 1501 306 1511 C 350 1521 398 1529 451 1534 C 504 1539 565 1542 633 1542 C 720 1542 796 1534 862 1519 C 928 1503 983 1479 1027 1446 C 1071 1413 1104 1370 1126 1318 C 1148 1265 1159 1202 1159 1128 C 1159 1070 1152 1017 1139 970 C 1125 922 1104 876 1076 831 C 1047 786 1010 741 966 695 C 922 649 869 598 807 543 L 465 238 L 1178 238 L 1178 0 L 70 0 L 70 225 Z" unicode="2" />
<glyph horiz-adv-x="1311" d="M 633 -25 C 566 -25 505 -21 450 -15 C 394 -8 342 1 293 14 C 244 27 197 44 153 64 C 108 84 63 107 18 135 L 152 350 C 191 328 229 308 267 292 C 305 275 342 261 380 249 C 418 237 456 229 496 223 C 535 217 576 215 618 215 C 672 215 719 218 759 226 C 799 234 831 247 856 266 C 881 284 900 309 912 341 C 924 373 930 413 930 461 C 930 502 925 537 915 567 C 905 596 887 620 862 638 C 837 656 803 670 759 679 C 715 687 660 692 594 692 L 342 692 L 342 934 L 590 934 C 646 934 692 937 730 943 C 768 949 798 960 822 975 C 845 989 862 1009 872 1033 C 882 1057 887 1088 887 1124 C 887 1157 882 1185 873 1207 C 863 1229 848 1247 827 1261 C 805 1274 777 1283 742 1289 C 707 1295 664 1298 612 1298 C 576 1298 540 1295 503 1290 C 465 1285 429 1278 393 1269 C 357 1259 322 1248 289 1235 C 256 1222 227 1208 201 1192 L 55 1403 C 92 1425 133 1445 178 1463 C 223 1481 271 1495 321 1507 C 371 1518 422 1527 476 1533 C 530 1539 584 1542 639 1542 C 724 1542 799 1535 864 1523 C 929 1511 984 1490 1028 1462 C 1072 1434 1105 1396 1127 1350 C 1149 1304 1161 1247 1161 1180 C 1161 1128 1157 1082 1150 1043 C 1143 1004 1132 971 1117 943 C 1102 915 1083 892 1061 874 C 1038 856 1011 841 979 831 C 1018 821 1052 807 1080 789 C 1108 770 1132 745 1150 714 C 1168 682 1181 644 1189 599 C 1197 554 1202 500 1202 438 C 1202 346 1188 271 1161 212 C 1133 152 1095 105 1045 70 C 995 34 935 10 865 -4 C 795 -18 717 -25 633 -25 Z" unicode="3" />
<glyph horiz-adv-x="1417" d="M 80 543 L 750 1518 L 1051 1518 L 387 559 L 852 559 L 909 1006 L 1108 1006 L 1108 559 L 1360 559 L 1360 328 L 1108 328 L 1108 0 L 850 0 L 850 328 L 80 328 L 80 543 Z" unicode="4" />
<glyph horiz-adv-x="1358" d="M 672 -23 C 604 -23 541 -18 484 -10 C 426 -1 374 10 326 25 C 278 40 234 57 194 76 C 154 95 118 115 84 137 L 219 352 C 249 335 281 318 314 302 C 347 286 382 271 418 258 C 454 245 493 235 534 227 C 575 219 619 215 666 215 C 712 215 756 218 797 225 C 838 231 874 244 905 264 C 935 284 959 312 977 349 C 995 385 1004 434 1004 494 C 1004 552 995 600 979 637 C 962 673 939 702 910 722 C 880 742 846 756 806 763 C 766 770 724 774 678 774 C 646 774 616 772 589 770 C 561 768 536 764 512 760 C 488 755 465 749 443 741 C 421 733 399 725 379 715 L 143 786 L 182 1518 L 1167 1518 L 1167 1274 L 426 1274 L 410 954 C 444 970 490 984 548 995 C 606 1006 672 1012 748 1012 C 796 1012 842 1009 887 1004 C 932 999 975 990 1015 976 C 1055 962 1091 944 1124 920 C 1156 896 1185 866 1209 828 C 1233 790 1251 744 1264 691 C 1277 637 1284 574 1284 502 C 1284 428 1277 363 1263 309 C 1249 254 1230 207 1204 169 C 1178 130 1146 98 1110 73 C 1074 48 1033 28 988 14 C 942 0 893 -9 840 -15 C 786 -20 730 -23 672 -23 Z" unicode="5" />
<glyph horiz-adv-x="1473" d="M 774 -23 C 660 -23 562 -9 481 18 C 399 45 333 86 281 142 C 229 198 190 267 166 351 C 141 435 129 533 129 647 C 129 751 134 845 145 929 C 156 1013 175 1087 202 1151 C 229 1215 265 1271 310 1317 C 355 1363 411 1401 479 1431 C 547 1461 627 1483 720 1497 C 813 1511 921 1518 1044 1518 L 1165 1518 L 1165 1274 L 1036 1274 C 942 1274 862 1269 796 1259 C 729 1249 673 1235 628 1217 C 582 1199 546 1179 519 1155 C 491 1131 470 1104 455 1076 C 439 1047 428 1017 422 985 C 416 953 411 921 408 889 C 444 935 500 970 574 992 C 648 1014 745 1026 864 1026 C 962 1026 1043 1014 1108 991 C 1173 968 1225 935 1264 891 C 1303 847 1331 793 1347 730 C 1363 667 1372 596 1372 516 C 1372 431 1361 355 1341 289 C 1321 222 1287 165 1240 119 C 1193 73 1132 37 1056 13 C 980 -10 886 -23 774 -23 Z M 776 213 C 842 213 897 219 939 233 C 981 247 1014 266 1038 292 C 1062 318 1078 349 1087 385 C 1095 421 1100 461 1100 506 C 1100 550 1095 591 1085 627 C 1075 663 1057 693 1033 719 C 1009 744 976 764 934 778 C 892 792 840 799 778 799 C 721 799 670 793 626 782 C 581 771 543 754 513 732 C 482 709 458 681 442 647 C 426 613 418 574 418 528 C 418 470 425 421 441 381 C 456 341 479 308 509 283 C 539 258 577 240 622 229 C 666 218 718 213 776 213 Z" unicode="6" />
<glyph horiz-adv-x="1178" d="M 825 1274 L 29 1274 L 29 1518 L 1133 1518 L 1133 1309 L 565 0 L 272 0 L 825 1274 Z" unicode="7" />
<glyph horiz-adv-x="1491" d="M 745 -33 C 627 -33 527 -21 447 2 C 366 26 301 58 251 100 C 201 142 166 191 145 247 C 123 303 113 363 113 428 C 113 474 117 519 125 562 C 133 604 146 643 165 679 C 184 714 209 745 240 772 C 271 798 310 819 356 834 C 316 848 284 867 259 889 C 234 911 215 935 201 963 C 187 991 177 1021 172 1054 C 166 1086 164 1121 164 1157 C 164 1209 172 1258 189 1305 C 206 1351 236 1392 280 1427 C 324 1462 383 1490 458 1511 C 533 1531 629 1542 745 1542 C 862 1542 958 1531 1034 1511 C 1109 1490 1168 1462 1212 1427 C 1256 1391 1286 1350 1303 1304 C 1320 1258 1329 1209 1329 1157 C 1329 1121 1326 1086 1320 1052 C 1314 1018 1303 988 1288 960 C 1273 932 1253 907 1229 885 C 1204 863 1173 846 1135 834 C 1181 818 1220 797 1252 771 C 1284 744 1309 713 1329 678 C 1348 642 1362 603 1370 561 C 1378 519 1382 474 1382 428 C 1382 363 1371 303 1349 247 C 1327 191 1292 142 1242 100 C 1192 58 1126 26 1045 2 C 963 -21 863 -33 745 -33 Z M 745 201 C 808 201 862 206 907 218 C 951 229 988 245 1016 267 C 1044 288 1065 314 1078 345 C 1091 376 1098 411 1098 451 C 1098 491 1091 526 1078 557 C 1065 588 1044 614 1016 636 C 988 657 951 673 907 685 C 862 696 808 702 745 702 C 681 702 626 696 582 685 C 538 673 502 657 474 636 C 446 614 425 588 413 557 C 401 526 395 491 395 451 C 395 411 401 376 413 345 C 425 314 446 288 474 267 C 502 245 538 229 582 218 C 626 206 681 201 745 201 Z M 745 924 C 804 924 854 928 894 937 C 934 946 966 959 990 976 C 1014 992 1031 1013 1041 1037 C 1051 1061 1057 1089 1057 1120 C 1057 1150 1051 1177 1041 1201 C 1031 1225 1014 1245 990 1262 C 966 1278 934 1291 894 1300 C 854 1308 804 1313 745 1313 C 685 1313 636 1308 596 1300 C 556 1291 525 1278 501 1262 C 477 1245 461 1225 451 1201 C 441 1177 436 1150 436 1120 C 436 1089 441 1061 451 1037 C 461 1013 477 992 501 976 C 525 959 556 946 596 937 C 636 928 685 924 745 924 Z" unicode="8" />
<glyph horiz-adv-x="1473" d="M 322 238 L 453 238 C 547 238 628 243 695 253 C 761 263 817 277 863 295 C 908 313 944 334 972 358 C 999 382 1020 409 1035 438 C 1050 466 1061 496 1067 528 C 1073 560 1077 592 1081 625 C 1044 577 988 543 914 521 C 840 499 743 489 625 489 C 527 489 445 501 380 525 C 314 549 262 584 223 629 C 184 673 157 727 141 790 C 125 852 117 922 117 999 C 117 1083 127 1159 147 1226 C 167 1293 201 1350 248 1397 C 295 1443 357 1479 433 1504 C 509 1529 603 1542 715 1542 C 828 1542 925 1528 1007 1501 C 1088 1474 1155 1433 1207 1378 C 1259 1322 1298 1253 1323 1169 C 1347 1085 1360 987 1360 874 C 1360 770 1354 676 1343 592 C 1332 508 1313 433 1287 369 C 1260 304 1224 248 1179 202 C 1134 155 1078 117 1010 87 C 942 57 862 35 769 21 C 675 7 567 0 444 0 L 322 0 L 322 238 Z M 711 711 C 767 711 818 716 863 727 C 907 738 945 755 976 777 C 1006 799 1030 826 1046 860 C 1062 894 1071 933 1071 979 C 1071 1037 1063 1086 1048 1126 C 1032 1166 1010 1199 980 1224 C 950 1249 912 1267 868 1279 C 824 1290 773 1296 715 1296 C 647 1296 592 1289 550 1275 C 508 1261 475 1242 451 1217 C 427 1191 410 1161 402 1125 C 393 1089 389 1048 389 1004 C 389 958 394 918 404 882 C 414 846 431 815 456 790 C 480 764 513 745 555 731 C 596 717 648 711 711 711 Z" unicode="9" />
<glyph horiz-adv-x="614" d="M 141 328 L 471 328 L 471 0 L 141 0 L 141 328 Z M 141 1153 L 471 1153 L 471 825 L 141 825 L 141 1153 Z" unicode=":" />
<glyph horiz-adv-x="614" d="M 145 -164 C 177 -148 203 -134 223 -122 C 243 -110 258 -99 270 -88 C 281 -76 289 -64 293 -50 C 297 -36 299 -20 299 0 L 141 0 L 141 328 L 471 328 L 471 96 C 471 44 468 -1 462 -40 C 456 -79 445 -114 427 -145 C 409 -175 383 -203 349 -228 C 315 -253 271 -278 215 -303 L 145 -164 Z M 141 1153 L 471 1153 L 471 825 L 141 825 L 141 1153 Z" unicode=";" />
<glyph horiz-adv-x="1466" d="M 225 610 L 225 809 L 1161 1274 L 1161 1016 L 516 711 L 1161 403 L 1161 141 L 225 610 Z" unicode="&#x3C;" />
<glyph horiz-adv-x="1466" d="M 211 608 L 1257 608 L 1257 352 L 211 352 L 211 608 Z M 211 1092 L 1257 1092 L 1257 838 L 211 838 L 211 1092 Z" unicode="=" />
<glyph horiz-adv-x="1466" d="M 305 403 L 952 707 L 305 1014 L 305 1274 L 1243 807 L 1243 608 L 305 141 L 305 403 Z" unicode="&#x3E;" />
<glyph horiz-adv-x="1419" d="M 530 432 C 520 501 517 560 521 608 C 524 656 535 697 554 732 C 572 767 600 798 636 824 C 672 850 718 877 774 903 C 818 923 855 942 883 958 C 911 974 933 989 949 1005 C 965 1021 976 1038 982 1056 C 988 1074 991 1097 991 1124 C 991 1150 987 1173 981 1193 C 975 1213 962 1229 942 1243 C 922 1257 893 1267 857 1275 C 820 1282 771 1286 711 1286 C 626 1286 547 1276 474 1258 C 401 1240 334 1216 272 1186 L 156 1423 C 192 1441 232 1458 277 1473 C 321 1487 369 1500 419 1510 C 469 1520 520 1528 573 1534 C 626 1539 679 1542 731 1542 C 827 1542 909 1534 979 1519 C 1048 1504 1105 1481 1150 1449 C 1194 1417 1227 1377 1248 1327 C 1269 1277 1280 1218 1280 1149 C 1280 1093 1273 1046 1261 1006 C 1248 966 1230 932 1206 902 C 1182 872 1152 845 1117 822 C 1082 799 1042 777 997 756 C 949 733 911 713 883 695 C 855 677 835 657 822 635 C 809 613 802 586 801 554 C 799 522 801 482 805 432 L 530 432 Z M 502 297 L 831 297 L 831 0 L 502 0 L 502 297 Z" unicode="?" />
<glyph horiz-adv-x="2189" d="M 1124 -338 C 965 -338 825 -320 704 -286 C 583 -252 482 -197 401 -122 C 319 -47 258 49 216 167 C 174 285 154 429 154 598 C 154 768 176 913 221 1033 C 265 1153 329 1250 411 1326 C 493 1402 591 1457 707 1492 C 822 1526 950 1544 1092 1544 C 1236 1544 1366 1526 1483 1492 C 1600 1457 1700 1402 1782 1326 C 1864 1250 1928 1153 1973 1033 C 2017 913 2040 768 2040 598 C 2040 494 2034 408 2022 339 C 2010 270 1989 215 1960 174 C 1930 132 1891 103 1842 86 C 1792 69 1730 61 1655 61 C 1597 61 1550 65 1514 74 C 1478 83 1449 95 1428 110 C 1406 125 1391 142 1382 160 C 1372 178 1366 197 1362 217 C 1346 194 1328 174 1308 156 C 1287 138 1262 123 1232 111 C 1202 99 1167 89 1127 83 C 1086 77 1038 74 983 74 C 897 74 826 87 770 115 C 714 142 669 179 635 227 C 601 275 578 331 564 396 C 550 461 543 532 543 608 C 543 683 550 753 565 818 C 580 882 605 938 640 986 C 675 1034 722 1071 780 1098 C 838 1125 910 1139 997 1139 C 1049 1139 1093 1136 1131 1131 C 1168 1125 1200 1117 1227 1107 C 1253 1097 1275 1083 1293 1067 C 1311 1051 1326 1032 1339 1010 L 1401 1124 L 1569 1110 L 1569 365 C 1569 343 1570 322 1573 303 C 1576 283 1582 266 1592 252 C 1602 238 1616 227 1635 219 C 1653 211 1678 207 1710 207 C 1748 207 1779 213 1802 226 C 1825 239 1842 261 1854 292 C 1866 322 1873 362 1877 412 C 1880 462 1882 524 1882 598 C 1882 742 1864 864 1829 965 C 1794 1065 1743 1147 1676 1211 C 1608 1275 1526 1321 1428 1350 C 1330 1378 1218 1393 1092 1393 C 971 1393 862 1378 766 1350 C 670 1321 588 1275 520 1211 C 452 1147 401 1065 365 965 C 329 864 311 742 311 598 C 311 458 328 338 364 239 C 400 139 452 58 521 -4 C 589 -67 674 -113 775 -142 C 875 -171 991 -186 1122 -186 C 1172 -186 1223 -183 1273 -177 C 1323 -171 1372 -164 1419 -154 C 1466 -144 1511 -132 1553 -118 C 1595 -104 1633 -88 1667 -72 L 1735 -207 C 1652 -248 1559 -280 1456 -303 C 1353 -326 1242 -338 1124 -338 Z M 1044 289 C 1092 289 1133 295 1168 307 C 1203 319 1232 339 1255 365 C 1277 391 1294 424 1305 464 C 1315 504 1321 552 1321 608 C 1321 663 1316 710 1306 748 C 1296 786 1280 817 1258 841 C 1236 865 1207 882 1172 893 C 1136 903 1094 909 1044 909 C 996 909 956 901 924 887 C 892 873 866 853 847 827 C 828 801 815 769 807 732 C 799 695 795 654 795 608 C 795 562 799 519 807 480 C 815 441 828 407 847 379 C 866 351 892 329 924 313 C 956 297 996 289 1044 289 Z" unicode="@" />
<glyph horiz-adv-x="1585" d="M 643 1528 L 940 1528 L 1550 0 L 1249 0 L 1143 270 L 428 270 L 322 0 L 35 0 L 643 1528 Z M 1047 524 L 784 1182 L 524 524 L 1047 524 Z" unicode="A" />
<glyph horiz-adv-x="1520" d="M 160 1518 L 852 1518 C 948 1518 1031 1510 1101 1496 C 1171 1481 1228 1458 1273 1427 C 1318 1395 1351 1355 1373 1307 C 1394 1258 1405 1200 1405 1133 C 1405 1043 1388 970 1354 914 C 1320 858 1268 817 1196 793 C 1240 782 1278 766 1310 746 C 1341 726 1367 700 1387 670 C 1407 639 1421 603 1430 562 C 1439 520 1444 473 1444 420 C 1444 338 1431 271 1406 217 C 1380 163 1342 120 1292 88 C 1242 56 1179 33 1105 20 C 1030 6 944 0 846 0 L 160 0 L 160 1518 Z M 879 250 C 926 250 967 253 1001 261 C 1035 268 1063 279 1085 295 C 1107 311 1123 331 1133 356 C 1143 380 1149 410 1149 446 C 1149 481 1144 511 1134 536 C 1124 560 1108 580 1086 596 C 1064 612 1035 623 1001 630 C 967 637 925 641 877 641 L 446 641 L 446 250 L 879 250 Z M 862 901 C 911 901 951 905 983 914 C 1015 922 1040 935 1059 951 C 1077 967 1090 987 1097 1011 C 1104 1034 1108 1060 1108 1090 C 1108 1118 1103 1144 1095 1166 C 1087 1188 1073 1206 1054 1220 C 1035 1234 1010 1245 978 1253 C 946 1260 908 1264 862 1264 L 446 1264 L 446 901 L 862 901 Z" unicode="B" />
<glyph horiz-adv-x="1536" d="M 848 -23 C 710 -23 592 -5 494 28 C 396 62 317 113 255 179 C 193 245 147 327 119 425 C 90 522 76 634 76 760 C 76 896 93 1013 129 1111 C 164 1209 215 1290 283 1354 C 351 1418 433 1465 531 1496 C 629 1526 740 1542 864 1542 C 929 1542 989 1537 1045 1528 C 1100 1519 1151 1506 1199 1488 C 1246 1470 1290 1448 1330 1422 C 1370 1395 1408 1364 1444 1329 L 1239 1124 C 1191 1170 1136 1206 1076 1232 C 1016 1257 944 1270 862 1270 C 692 1270 567 1226 488 1140 C 408 1054 369 926 369 758 C 369 675 377 602 395 538 C 413 474 441 421 481 377 C 520 333 571 300 634 278 C 696 255 773 244 864 244 C 915 244 960 248 998 256 C 1036 264 1071 274 1101 288 C 1131 302 1159 318 1183 337 C 1207 355 1231 375 1255 397 L 1454 205 C 1424 175 1392 146 1356 119 C 1320 91 1279 67 1231 46 C 1183 25 1128 8 1066 -4 C 1003 -16 930 -23 848 -23 Z" unicode="C" />
<glyph horiz-adv-x="1593" d="M 160 1518 L 690 1518 C 838 1518 964 1506 1069 1483 C 1174 1460 1260 1420 1327 1363 C 1393 1305 1442 1228 1473 1130 C 1504 1032 1520 909 1520 760 C 1520 612 1503 490 1471 393 C 1439 295 1389 217 1321 159 C 1253 101 1165 60 1059 36 C 953 12 826 0 678 0 L 160 0 L 160 1518 Z M 694 262 C 801 262 889 270 958 288 C 1027 306 1081 334 1121 374 C 1161 413 1188 464 1204 528 C 1219 591 1227 668 1227 760 C 1227 852 1220 929 1206 991 C 1192 1053 1166 1104 1128 1142 C 1089 1180 1035 1208 966 1224 C 896 1240 806 1249 694 1249 L 451 1249 L 451 262 L 694 262 Z" unicode="D" />
<glyph horiz-adv-x="1382" d="M 160 1518 L 1266 1518 L 1266 1247 L 451 1247 L 451 909 L 1245 909 L 1245 645 L 451 645 L 451 262 L 1274 262 L 1274 0 L 160 0 L 160 1518 Z" unicode="E" />
<glyph horiz-adv-x="1309" d="M 160 1518 L 1231 1518 L 1231 1247 L 451 1247 L 451 881 L 1210 881 L 1210 614 L 451 614 L 451 0 L 160 0 L 160 1518 Z" unicode="F" />
<glyph horiz-adv-x="1626" d="M 844 -23 C 696 -23 573 -6 475 28 C 376 62 297 112 238 178 C 179 244 137 326 113 424 C 88 521 76 633 76 760 C 76 897 93 1015 128 1114 C 162 1212 213 1293 280 1357 C 346 1420 428 1467 526 1497 C 624 1527 736 1542 862 1542 C 938 1542 1006 1536 1067 1526 C 1128 1515 1183 1500 1232 1482 C 1281 1463 1324 1441 1362 1416 C 1400 1390 1433 1363 1462 1333 L 1257 1126 C 1237 1145 1214 1163 1190 1181 C 1166 1199 1138 1214 1107 1227 C 1075 1240 1039 1250 999 1258 C 959 1266 912 1270 860 1270 C 773 1270 699 1259 637 1238 C 575 1216 524 1184 484 1141 C 444 1098 414 1045 395 981 C 376 917 367 842 367 758 C 367 669 374 591 390 525 C 405 459 431 404 469 360 C 506 316 556 283 619 261 C 682 239 762 229 858 229 C 938 229 1005 236 1058 250 C 1110 264 1152 286 1183 316 C 1214 346 1236 383 1249 428 C 1261 472 1268 525 1268 586 L 1268 621 L 821 621 L 821 872 L 1556 872 L 1556 641 C 1556 533 1545 438 1523 356 C 1501 274 1463 204 1409 148 C 1355 92 1282 49 1190 20 C 1098 -8 983 -23 844 -23 Z" unicode="G" />
<glyph horiz-adv-x="1651" d="M 160 1518 L 451 1518 L 451 922 L 1200 922 L 1200 1518 L 1491 1518 L 1491 0 L 1200 0 L 1200 643 L 451 643 L 451 0 L 160 0 L 160 1518 Z" unicode="H" />
<glyph horiz-adv-x="649" d="M 180 1518 L 469 1518 L 469 0 L 180 0 L 180 1518 Z" unicode="I" />
<glyph horiz-adv-x="903" d="M 256 -4 C 226 -4 202 -4 184 -4 C 165 -4 148 -3 134 -3 C 120 -3 106 -2 93 -2 C 80 -2 65 -1 49 0 L 49 260 L 221 260 C 267 260 305 264 337 272 C 368 280 393 293 412 311 C 431 329 445 351 453 379 C 461 407 465 440 465 479 L 465 1518 L 754 1518 L 754 469 C 754 377 742 300 718 239 C 694 178 661 130 618 94 C 574 58 522 32 461 18 C 399 3 331 -4 256 -4 Z" unicode="J" />
<glyph horiz-adv-x="1528" d="M 682 698 L 446 424 L 446 0 L 160 0 L 160 1518 L 446 1518 L 446 795 L 1067 1518 L 1395 1518 L 874 918 L 1468 0 L 1139 0 L 682 698 Z" unicode="K" />
<glyph horiz-adv-x="1249" d="M 160 1518 L 451 1518 L 451 260 L 1212 260 L 1212 0 L 160 0 L 160 1518 Z" unicode="L" />
<glyph horiz-adv-x="1970" d="M 160 1518 L 541 1518 L 987 418 L 1434 1518 L 1810 1518 L 1810 0 L 1526 0 L 1526 1059 L 1092 0 L 862 0 L 430 1055 L 430 0 L 160 0 L 160 1518 Z" unicode="M" />
<glyph horiz-adv-x="1663" d="M 160 1518 L 475 1518 L 1223 492 L 1223 1518 L 1503 1518 L 1503 0 L 1237 0 L 440 1087 L 440 0 L 160 0 L 160 1518 Z" unicode="N" />
<glyph horiz-adv-x="1737" d="M 868 -25 C 746 -25 637 -10 539 18 C 441 46 358 92 290 155 C 221 218 168 299 131 399 C 94 498 76 618 76 760 C 76 900 94 1020 131 1119 C 168 1218 221 1299 290 1362 C 358 1424 441 1470 539 1499 C 637 1527 746 1542 868 1542 C 988 1542 1098 1527 1196 1499 C 1294 1470 1377 1424 1447 1362 C 1516 1299 1569 1218 1607 1119 C 1644 1020 1663 900 1663 760 C 1663 618 1644 498 1607 399 C 1569 299 1516 218 1447 155 C 1377 92 1294 46 1196 18 C 1098 -10 988 -25 868 -25 Z M 868 240 C 959 240 1036 251 1100 275 C 1163 298 1214 332 1254 376 C 1294 420 1323 474 1341 538 C 1359 602 1368 674 1368 756 C 1368 836 1359 907 1341 971 C 1323 1035 1294 1089 1254 1133 C 1214 1177 1163 1211 1100 1235 C 1036 1258 959 1270 868 1270 C 776 1270 699 1258 636 1235 C 572 1211 521 1177 482 1133 C 442 1089 414 1035 396 971 C 378 907 369 836 369 756 C 369 674 378 602 396 538 C 414 474 442 420 482 376 C 521 332 572 298 636 275 C 699 251 776 240 868 240 Z" unicode="O" />
<glyph horiz-adv-x="1530" d="M 160 1518 L 872 1518 C 982 1518 1074 1506 1148 1484 C 1222 1461 1282 1428 1328 1386 C 1373 1344 1405 1292 1425 1231 C 1444 1169 1454 1100 1454 1022 C 1454 944 1444 872 1425 808 C 1406 743 1374 687 1328 640 C 1282 593 1220 557 1144 531 C 1068 505 972 492 858 492 L 444 492 L 444 0 L 160 0 L 160 1518 Z M 870 748 C 920 748 963 752 1000 762 C 1037 771 1068 786 1092 807 C 1116 827 1133 854 1145 887 C 1157 920 1163 960 1163 1008 C 1163 1056 1157 1097 1146 1129 C 1134 1161 1117 1187 1093 1207 C 1069 1227 1038 1241 1000 1249 C 962 1257 918 1262 866 1262 L 444 1262 L 444 748 L 870 748 Z" unicode="P" />
<glyph horiz-adv-x="1737" d="M 1118 -399 C 1022 -399 943 -391 882 -377 C 820 -362 772 -338 738 -306 C 704 -274 681 -232 669 -181 C 657 -129 653 -67 657 6 C 565 20 484 44 412 79 C 340 114 279 162 229 223 C 179 283 141 358 115 447 C 89 535 76 640 76 760 C 76 900 94 1020 130 1119 C 166 1218 219 1299 287 1362 C 355 1424 438 1470 536 1499 C 634 1527 744 1542 868 1542 C 991 1542 1102 1527 1200 1499 C 1298 1470 1382 1424 1450 1362 C 1518 1299 1571 1218 1608 1119 C 1644 1020 1663 900 1663 760 C 1663 625 1646 510 1613 415 C 1579 319 1531 241 1469 180 C 1407 119 1331 74 1241 44 C 1151 14 1049 -2 936 -6 C 934 -36 936 -61 940 -81 C 944 -101 952 -116 966 -127 C 979 -138 998 -146 1022 -150 C 1046 -154 1078 -156 1116 -156 L 1303 -156 L 1303 -395 C 1285 -396 1260 -397 1227 -398 C 1193 -398 1157 -399 1118 -399 Z M 868 240 C 961 240 1039 251 1103 275 C 1167 298 1218 332 1258 376 C 1297 420 1325 474 1342 538 C 1359 602 1368 674 1368 756 C 1368 836 1359 907 1342 971 C 1325 1035 1297 1089 1258 1133 C 1218 1177 1167 1211 1103 1235 C 1039 1258 961 1270 868 1270 C 774 1270 696 1258 633 1235 C 569 1211 518 1177 479 1133 C 439 1089 411 1035 394 971 C 377 907 369 836 369 756 C 369 674 377 602 394 538 C 411 474 439 420 479 376 C 518 332 569 298 633 275 C 696 251 774 240 868 240 Z" unicode="Q" />
<glyph horiz-adv-x="1554" d="M 813 528 L 444 528 L 444 0 L 160 0 L 160 1518 L 872 1518 C 984 1518 1076 1506 1150 1483 C 1223 1460 1281 1428 1325 1386 C 1369 1344 1399 1293 1417 1233 C 1435 1173 1444 1107 1444 1034 C 1444 979 1438 927 1428 877 C 1417 827 1399 782 1373 740 C 1347 698 1312 662 1270 631 C 1227 599 1174 575 1110 557 L 1425 0 L 1112 0 L 813 528 Z M 864 786 C 912 786 953 789 989 797 C 1025 804 1055 817 1079 835 C 1103 853 1121 877 1133 907 C 1145 937 1151 976 1151 1022 C 1151 1069 1145 1108 1133 1139 C 1121 1170 1104 1195 1080 1213 C 1056 1231 1025 1243 989 1251 C 953 1258 910 1262 860 1262 L 444 1262 L 444 786 L 864 786 Z" unicode="R" />
<glyph horiz-adv-x="1499" d="M 754 -23 C 611 -23 481 -6 364 26 C 247 59 144 108 55 172 L 203 387 C 286 331 373 290 465 265 C 556 239 649 227 745 227 C 820 227 882 231 931 239 C 979 247 1018 260 1046 277 C 1074 294 1094 316 1105 342 C 1116 368 1122 400 1122 436 C 1122 472 1113 502 1096 525 C 1079 547 1054 566 1022 581 C 989 595 949 607 901 617 C 853 626 799 635 739 645 C 643 659 557 675 483 693 C 409 711 346 737 296 769 C 245 801 206 844 180 896 C 154 948 141 1014 141 1096 C 141 1178 153 1247 178 1304 C 203 1360 241 1406 292 1442 C 342 1477 406 1502 482 1518 C 558 1534 648 1542 752 1542 C 824 1542 890 1538 950 1530 C 1010 1522 1064 1512 1113 1499 C 1161 1485 1205 1470 1243 1452 C 1281 1434 1316 1416 1346 1397 L 1188 1165 C 1163 1181 1134 1197 1101 1211 C 1068 1225 1032 1237 994 1248 C 956 1258 916 1267 874 1273 C 832 1279 791 1282 750 1282 C 688 1282 637 1278 596 1271 C 555 1264 522 1253 498 1239 C 473 1225 455 1206 445 1184 C 435 1161 430 1134 430 1102 C 430 1068 438 1040 454 1018 C 470 996 495 978 527 964 C 559 950 599 938 647 929 C 695 919 750 910 813 901 C 872 891 928 882 981 872 C 1033 862 1082 849 1126 835 C 1170 820 1210 802 1245 782 C 1280 761 1310 735 1335 705 C 1359 675 1378 639 1391 597 C 1404 555 1411 507 1411 451 C 1411 374 1399 306 1376 247 C 1353 188 1316 139 1264 99 C 1212 59 1144 28 1060 8 C 976 -12 874 -23 754 -23 Z" unicode="S" />
<glyph horiz-adv-x="1438" d="M 573 1247 L 37 1247 L 37 1518 L 1403 1518 L 1403 1247 L 866 1247 L 866 0 L 573 0 L 573 1247 Z" unicode="T" />
<glyph horiz-adv-x="1653" d="M 825 -29 C 723 -29 635 -20 562 -4 C 488 11 427 34 377 62 C 327 90 287 124 257 162 C 227 200 204 242 188 287 C 172 331 162 378 157 427 C 152 475 150 524 150 573 L 150 1518 L 440 1518 L 440 610 C 440 552 445 500 455 454 C 465 408 484 369 512 337 C 540 305 580 280 631 263 C 681 246 747 238 829 238 C 910 238 976 246 1027 262 C 1078 278 1118 302 1147 334 C 1175 366 1195 405 1205 451 C 1215 497 1221 550 1221 610 L 1221 1518 L 1505 1518 L 1505 573 C 1505 524 1502 475 1497 427 C 1492 378 1481 331 1465 287 C 1449 242 1425 200 1395 162 C 1365 124 1324 90 1274 62 C 1224 34 1162 11 1089 -4 C 1015 -20 927 -29 825 -29 Z" unicode="U" />
<glyph horiz-adv-x="1573" d="M 35 1518 L 342 1518 L 791 354 L 1235 1518 L 1538 1518 L 934 -10 L 637 -10 L 35 1518 Z" unicode="V" />
<glyph horiz-adv-x="2218" d="M 47 1518 L 352 1518 L 664 473 L 987 1518 L 1249 1518 L 1573 473 L 1884 1518 L 2171 1518 L 1702 -10 L 1444 -10 L 1110 1063 L 776 -10 L 518 -10 L 47 1518 Z" unicode="W" />
<glyph horiz-adv-x="1563" d="M 770 580 L 385 0 L 61 0 L 618 797 L 117 1518 L 442 1518 L 793 1016 L 1126 1518 L 1450 1518 L 944 799 L 1503 0 L 1174 0 L 770 580 Z" unicode="X" />
<glyph horiz-adv-x="1526" d="M 618 545 L 12 1518 L 326 1518 L 768 809 L 1212 1518 L 1513 1518 L 907 547 L 907 0 L 618 0 L 618 545 Z" unicode="Y" />
<glyph horiz-adv-x="1403" d="M 74 223 L 936 1247 L 109 1247 L 109 1518 L 1303 1518 L 1303 1274 L 451 260 L 1325 260 L 1325 0 L 74 0 L 74 223 Z" unicode="Z" />
<glyph horiz-adv-x="1030" d="M 231 1589 L 844 1589 L 844 1343 L 514 1343 L 514 -98 L 850 -98 L 850 -338 L 231 -338 L 231 1589 Z" unicode="[" />
<glyph horiz-adv-x="1135" d="M 0 1518 L 287 1518 L 1135 0 L 850 0 L 0 1518 Z" unicode="\" />
<glyph horiz-adv-x="1030" d="M 180 -98 L 514 -98 L 514 1343 L 182 1343 L 182 1589 L 797 1589 L 797 -338 L 180 -338 L 180 -98 Z" unicode="]" />
<glyph horiz-adv-x="1208" d="M 459 1516 L 750 1516 L 1067 1153 L 803 1153 L 600 1339 L 401 1153 L 141 1153 L 459 1516 Z" unicode="^" />
<glyph horiz-adv-x="928" d="M -76 -90 L 1004 -90 L 1004 -305 L -76 -305 L -76 -90 Z" unicode="_" />
<glyph horiz-adv-x="1208" d="M 170 1628 L 508 1628 L 803 1266 L 551 1266 L 170 1628 Z" unicode="`" />
<glyph horiz-adv-x="1309" d="M 487 -20 C 399 -20 328 -10 273 7 C 218 25 175 51 143 83 C 111 115 90 152 78 196 C 66 239 61 286 61 336 C 61 417 74 484 102 538 C 129 591 172 633 232 664 C 291 695 368 717 463 729 C 557 741 672 748 807 748 L 860 748 C 858 778 855 804 849 826 C 843 848 831 867 814 882 C 796 897 771 908 739 916 C 707 924 664 928 610 928 C 574 928 540 925 508 919 C 476 913 445 905 417 895 C 388 885 362 875 338 864 C 314 852 294 841 276 831 L 135 1042 C 155 1056 181 1071 215 1087 C 249 1103 288 1118 332 1132 C 376 1146 424 1157 476 1166 C 528 1175 583 1180 641 1180 C 743 1180 825 1171 889 1154 C 952 1136 1001 1109 1037 1072 C 1073 1035 1097 988 1109 930 C 1121 872 1128 802 1128 721 L 1128 352 C 1128 327 1129 307 1131 292 C 1133 277 1137 266 1144 258 C 1151 250 1162 244 1176 242 C 1190 239 1209 238 1233 238 L 1233 4 C 1223 0 1209 -1 1191 -2 C 1172 -3 1147 -4 1116 -4 C 1086 -4 1060 -2 1038 1 C 1016 4 996 10 980 19 C 963 28 949 40 937 56 C 925 71 914 91 905 115 C 873 73 824 40 758 16 C 691 -8 601 -20 487 -20 Z M 541 213 C 652 213 733 234 784 278 C 834 321 860 391 860 487 L 860 539 L 825 539 C 753 539 690 537 638 535 C 586 533 541 529 505 523 C 468 517 438 510 415 501 C 392 491 374 480 361 467 C 348 453 339 438 335 420 C 330 402 328 381 328 358 C 328 334 331 313 338 295 C 344 277 356 261 372 249 C 388 237 410 228 438 222 C 465 216 499 213 541 213 Z" unicode="a" />
<glyph horiz-adv-x="1378" d="M 788 -20 C 731 -20 681 -17 637 -11 C 593 -5 554 2 521 12 C 488 22 460 35 437 51 C 414 66 395 84 379 104 L 324 -12 L 135 10 L 135 1589 L 414 1589 L 414 1061 C 445 1101 492 1130 556 1150 C 619 1170 702 1180 805 1180 C 903 1180 983 1164 1047 1134 C 1111 1103 1161 1061 1198 1007 C 1235 953 1261 889 1276 816 C 1290 743 1298 664 1298 580 C 1298 494 1290 415 1275 342 C 1259 269 1232 206 1194 152 C 1156 98 1104 56 1038 26 C 972 -4 888 -20 788 -20 Z M 737 223 C 793 223 840 231 876 248 C 912 265 940 289 961 319 C 981 349 996 386 1004 428 C 1012 470 1016 516 1016 567 C 1016 619 1012 666 1004 709 C 996 752 982 789 962 821 C 942 852 913 876 877 894 C 841 911 794 920 737 920 C 677 920 627 913 587 899 C 546 885 513 864 488 836 C 462 808 444 771 433 727 C 421 682 416 629 416 567 C 416 505 421 453 431 410 C 441 366 459 331 483 303 C 507 275 540 255 582 242 C 623 229 675 223 737 223 Z" unicode="b" />
<glyph horiz-adv-x="1190" d="M 659 -20 C 581 -20 513 -13 455 0 C 396 14 345 33 302 59 C 259 84 223 115 195 151 C 167 187 144 227 127 271 C 109 315 97 364 90 416 C 83 468 80 522 80 580 C 80 636 83 690 90 742 C 97 794 109 842 126 886 C 143 930 166 971 195 1007 C 224 1043 260 1074 304 1100 C 348 1125 400 1145 460 1159 C 520 1173 591 1180 672 1180 C 776 1180 865 1163 939 1131 C 1013 1098 1076 1053 1126 997 L 928 809 C 915 821 901 834 886 847 C 870 860 852 872 832 882 C 812 892 788 901 762 908 C 736 914 706 918 672 918 C 610 918 559 909 519 893 C 479 877 447 854 423 824 C 399 794 383 757 374 715 C 364 672 360 624 360 571 C 360 518 364 470 373 427 C 382 384 398 347 422 317 C 446 287 478 263 518 247 C 558 231 610 223 674 223 C 702 223 727 225 751 229 C 775 233 797 240 819 250 C 840 259 861 271 881 285 C 901 299 921 316 942 336 L 1124 162 C 1092 132 1060 105 1028 83 C 996 60 963 41 927 26 C 891 10 851 0 808 -8 C 764 -16 715 -20 659 -20 Z" unicode="c" />
<glyph horiz-adv-x="1378" d="M 578 -23 C 479 -23 398 -7 334 24 C 270 55 219 98 181 153 C 143 207 117 271 102 345 C 87 419 80 498 80 584 C 80 668 87 746 103 819 C 118 891 145 954 184 1008 C 222 1061 274 1103 340 1134 C 405 1164 488 1180 588 1180 C 642 1180 690 1177 731 1171 C 772 1165 808 1157 838 1147 C 868 1137 893 1124 913 1110 C 933 1096 949 1080 963 1063 L 963 1589 L 1243 1589 L 1243 12 L 1030 -10 L 999 111 C 981 89 960 70 936 54 C 912 37 883 23 849 12 C 815 0 775 -8 731 -14 C 687 -20 636 -23 578 -23 Z M 643 225 C 702 225 752 232 793 246 C 834 260 867 281 892 311 C 917 341 935 378 946 423 C 957 468 963 522 963 584 C 963 644 958 696 948 739 C 938 782 920 817 896 844 C 871 871 838 891 797 903 C 756 915 705 922 643 922 C 585 922 538 913 502 897 C 466 881 437 858 416 828 C 395 798 381 763 373 722 C 365 680 362 634 362 584 C 362 532 365 484 373 440 C 381 396 395 359 416 327 C 437 295 466 270 502 252 C 538 234 585 225 643 225 Z" unicode="d" />
<glyph horiz-adv-x="1255" d="M 668 -23 C 586 -23 515 -15 454 -1 C 393 13 341 34 297 60 C 253 86 218 117 190 154 C 162 191 139 232 123 277 C 107 321 95 369 89 420 C 83 471 80 524 80 580 C 80 634 83 686 90 736 C 96 786 108 834 125 879 C 141 923 164 964 192 1001 C 220 1037 256 1069 300 1096 C 343 1122 395 1143 455 1158 C 515 1172 585 1180 666 1180 C 748 1180 818 1171 876 1153 C 933 1135 980 1110 1018 1078 C 1056 1046 1085 1008 1106 964 C 1127 920 1142 871 1152 818 C 1162 765 1167 709 1169 650 C 1170 590 1170 529 1169 467 L 350 467 C 354 427 363 391 375 359 C 387 327 405 301 429 279 C 453 257 484 240 523 228 C 561 216 610 211 668 211 C 712 211 752 213 788 219 C 823 224 855 231 884 241 C 912 251 938 262 962 275 C 986 288 1008 303 1030 319 L 1176 131 C 1140 104 1104 81 1068 62 C 1032 42 993 26 953 14 C 912 1 868 -8 822 -14 C 775 -20 724 -23 668 -23 Z M 657 940 C 602 940 556 934 519 922 C 482 910 452 893 428 871 C 404 849 387 822 375 791 C 363 759 354 724 350 686 L 909 686 C 907 722 903 756 897 788 C 891 819 880 846 863 868 C 846 890 821 908 789 921 C 756 933 712 940 657 940 Z" unicode="e" />
<glyph horiz-adv-x="879" d="M 55 1153 L 272 1153 L 272 1223 C 272 1285 278 1341 291 1391 C 303 1441 325 1483 357 1517 C 388 1551 430 1577 483 1595 C 536 1613 603 1622 684 1622 C 717 1622 746 1621 771 1621 C 795 1620 815 1619 831 1618 L 831 1384 L 721 1384 C 687 1384 659 1380 637 1373 C 615 1365 597 1355 585 1341 C 572 1327 563 1311 558 1291 C 553 1271 551 1249 551 1225 L 551 1153 L 831 1153 L 831 907 L 551 907 L 551 0 L 272 0 L 272 907 L 55 907 L 55 1153 Z" unicode="f" />
<glyph horiz-adv-x="1307" d="M 629 422 C 597 422 568 422 541 424 C 513 425 487 428 463 432 C 459 424 455 415 453 407 C 450 399 449 391 449 383 C 449 368 451 356 457 347 C 463 337 473 330 488 325 C 503 320 524 317 550 315 C 576 313 609 313 651 313 C 766 313 861 308 937 298 C 1012 288 1072 272 1117 248 C 1161 224 1192 191 1210 151 C 1228 111 1237 60 1237 0 C 1237 -66 1225 -123 1201 -169 C 1177 -215 1140 -253 1090 -283 C 1040 -312 976 -333 899 -347 C 822 -360 731 -367 625 -367 C 519 -367 430 -363 356 -355 C 282 -347 221 -333 175 -312 C 129 -291 95 -262 74 -226 C 53 -189 43 -142 43 -84 C 43 -51 47 -21 56 7 C 64 35 78 60 96 83 C 114 105 138 125 167 141 C 195 157 230 169 270 178 C 241 197 222 220 214 248 C 205 276 201 306 201 338 C 201 368 205 396 213 424 C 221 452 234 477 252 500 C 156 558 109 655 109 791 C 109 853 118 909 138 957 C 158 1005 189 1046 231 1079 C 273 1112 326 1137 392 1154 C 458 1171 537 1180 629 1180 C 637 1180 645 1180 654 1180 C 663 1180 672 1179 682 1178 L 1190 1270 L 1190 1051 L 1016 1051 C 1058 1027 1092 995 1116 955 C 1140 915 1153 860 1153 791 C 1153 727 1142 672 1122 626 C 1102 580 1070 541 1027 511 C 984 481 930 458 864 444 C 798 429 719 422 629 422 Z M 635 -164 C 699 -164 751 -160 792 -154 C 833 -148 865 -138 889 -126 C 913 -114 929 -99 938 -81 C 947 -63 952 -42 952 -18 C 952 6 946 25 936 41 C 926 56 908 68 884 77 C 859 85 826 91 786 95 C 746 98 695 100 635 100 C 565 100 510 96 469 90 C 428 84 397 75 375 63 C 353 51 339 37 333 21 C 327 4 324 -14 324 -35 C 324 -58 328 -78 338 -94 C 348 -110 364 -124 388 -134 C 412 -144 444 -152 484 -157 C 524 -161 574 -164 635 -164 Z M 629 621 C 675 621 715 624 747 631 C 779 638 804 648 823 662 C 842 676 856 693 864 714 C 872 735 877 760 877 788 C 877 845 857 887 819 914 C 781 940 717 954 629 954 C 582 954 543 950 511 944 C 479 937 454 927 435 914 C 415 900 401 883 393 862 C 385 841 381 816 381 788 C 381 760 385 735 393 714 C 401 693 415 676 435 662 C 454 648 479 638 511 631 C 543 624 582 621 629 621 Z" unicode="g" />
<glyph horiz-adv-x="1337" d="M 135 1589 L 414 1589 L 414 1071 C 425 1085 441 1098 461 1111 C 481 1124 506 1136 537 1146 C 567 1156 604 1164 647 1170 C 689 1176 739 1180 797 1180 C 885 1180 956 1168 1010 1145 C 1064 1122 1105 1090 1135 1048 C 1165 1006 1185 955 1195 896 C 1205 837 1210 772 1210 700 L 1210 0 L 932 0 L 932 645 C 932 683 930 719 926 751 C 922 783 912 811 896 835 C 880 858 857 876 826 889 C 794 902 752 909 698 909 C 638 909 589 902 552 888 C 515 874 486 855 466 831 C 446 806 432 776 426 742 C 419 707 416 669 416 627 L 416 0 L 135 0 L 135 1589 Z" unicode="h" />
<glyph horiz-adv-x="571" d="M 147 1153 L 424 1153 L 424 0 L 147 0 L 147 1153 Z M 145 1546 L 426 1546 L 426 1270 L 145 1270 L 145 1546 Z" unicode="i" />
<glyph horiz-adv-x="571" d="M 6 -127 L 29 -127 C 55 -127 75 -124 91 -120 C 107 -115 119 -107 127 -95 C 135 -83 140 -68 143 -48 C 145 -28 147 -2 147 29 L 147 1153 L 424 1153 L 424 31 C 424 -43 418 -104 408 -153 C 397 -201 378 -240 351 -269 C 323 -297 286 -317 239 -329 C 191 -340 131 -346 57 -346 L 6 -346 L 6 -127 Z M 145 1546 L 426 1546 L 426 1270 L 145 1270 L 145 1546 Z" unicode="j" />
<glyph horiz-adv-x="1206" d="M 135 1589 L 412 1589 L 412 639 L 842 1153 L 1149 1153 L 756 680 L 1186 0 L 877 0 L 569 473 L 412 291 L 412 0 L 135 0 L 135 1589 Z" unicode="k" />
<glyph horiz-adv-x="674" d="M 442 -4 C 392 -4 348 1 311 13 C 274 24 243 43 219 69 C 195 95 177 129 165 173 C 153 216 147 270 147 334 L 147 1589 L 424 1589 L 424 367 C 424 343 425 322 428 306 C 431 290 437 277 445 267 C 453 257 465 250 481 246 C 497 242 517 240 543 240 L 584 240 L 584 4 C 572 2 554 0 528 -1 C 502 -3 473 -4 442 -4 Z" unicode="l" />
<glyph horiz-adv-x="2087" d="M 135 1137 L 352 1153 L 377 1053 C 389 1070 405 1086 427 1102 C 449 1117 476 1130 509 1142 C 542 1154 581 1163 626 1170 C 671 1176 724 1180 784 1180 C 844 1180 894 1176 934 1170 C 974 1163 1006 1154 1032 1142 C 1057 1130 1076 1115 1090 1099 C 1104 1083 1115 1065 1124 1047 C 1138 1066 1157 1084 1181 1100 C 1205 1116 1234 1130 1269 1142 C 1304 1154 1345 1163 1392 1170 C 1439 1176 1494 1180 1556 1180 C 1615 1180 1666 1174 1709 1164 C 1752 1154 1788 1139 1818 1119 C 1848 1099 1872 1075 1891 1047 C 1909 1019 1924 987 1934 952 C 1944 916 1950 877 1954 835 C 1958 793 1960 748 1960 700 L 1960 0 L 1679 0 L 1679 645 C 1679 683 1677 719 1675 751 C 1672 783 1664 811 1650 835 C 1636 858 1614 876 1585 889 C 1555 902 1514 909 1460 909 C 1399 909 1351 902 1315 888 C 1279 874 1251 855 1233 831 C 1214 806 1202 776 1196 742 C 1190 707 1188 669 1188 627 L 1188 0 L 907 0 L 907 645 C 907 683 905 719 903 751 C 900 783 892 811 878 835 C 864 858 842 876 812 889 C 782 902 740 909 686 909 C 625 909 577 902 541 888 C 505 874 478 855 460 831 C 441 806 429 776 424 742 C 418 707 416 669 416 627 L 416 0 L 135 0 L 135 1137 Z" unicode="m" />
<glyph horiz-adv-x="1337" d="M 135 1137 L 352 1153 L 377 1053 C 391 1069 409 1085 431 1101 C 453 1116 481 1129 515 1141 C 548 1153 588 1162 634 1169 C 680 1176 734 1180 797 1180 C 885 1180 956 1168 1010 1145 C 1064 1122 1105 1090 1135 1048 C 1165 1006 1185 955 1195 896 C 1205 837 1210 772 1210 700 L 1210 0 L 932 0 L 932 645 C 932 683 930 719 926 751 C 922 783 912 811 896 835 C 880 858 857 876 826 889 C 794 902 752 909 698 909 C 638 909 589 902 552 888 C 515 874 486 855 466 831 C 446 806 432 776 426 742 C 419 707 416 669 416 627 L 416 0 L 135 0 L 135 1137 Z" unicode="n" />
<glyph horiz-adv-x="1339" d="M 670 -23 C 564 -23 473 -9 399 16 C 324 42 263 81 216 132 C 168 183 134 246 112 321 C 90 396 80 482 80 580 C 80 677 90 763 112 838 C 134 912 168 975 216 1026 C 263 1076 324 1115 399 1141 C 473 1167 564 1180 670 1180 C 776 1180 867 1167 942 1141 C 1016 1115 1077 1076 1124 1026 C 1171 975 1205 912 1227 838 C 1249 763 1260 677 1260 580 C 1260 482 1249 396 1227 321 C 1205 246 1171 183 1124 132 C 1077 81 1016 42 942 16 C 867 -9 776 -23 670 -23 Z M 670 223 C 729 223 778 231 818 247 C 858 263 889 286 913 316 C 937 346 954 382 964 425 C 974 468 979 517 979 571 C 979 625 974 673 964 717 C 954 760 937 797 913 827 C 889 857 858 880 818 896 C 778 912 729 920 670 920 C 610 920 561 912 521 896 C 481 880 450 857 426 827 C 402 797 385 760 375 717 C 365 673 360 625 360 571 C 360 517 365 468 375 425 C 385 382 402 346 426 316 C 450 286 481 263 521 247 C 561 231 610 223 670 223 Z" unicode="o" />
<glyph horiz-adv-x="1378" d="M 135 1137 L 352 1153 L 377 1047 C 392 1067 411 1085 435 1101 C 458 1117 487 1131 521 1143 C 555 1155 596 1164 643 1170 C 689 1176 744 1180 807 1180 C 905 1180 985 1164 1049 1134 C 1112 1103 1162 1061 1199 1007 C 1236 953 1262 889 1276 816 C 1290 743 1298 664 1298 580 C 1298 495 1290 416 1275 344 C 1260 271 1233 208 1195 154 C 1157 100 1105 58 1040 28 C 974 -2 891 -18 791 -18 C 736 -18 688 -15 648 -10 C 607 -4 572 3 542 13 C 512 23 486 35 466 49 C 446 63 429 80 416 98 L 416 -338 L 135 -338 L 135 1137 Z M 737 225 C 793 225 840 233 876 250 C 912 266 940 290 961 320 C 981 350 996 387 1004 429 C 1012 471 1016 517 1016 569 C 1016 620 1012 667 1004 710 C 996 753 982 790 962 821 C 942 852 913 876 877 894 C 841 911 794 920 737 920 C 677 920 627 913 587 900 C 546 886 513 865 488 837 C 462 809 444 772 433 728 C 421 684 416 631 416 569 C 416 507 421 455 431 412 C 441 368 459 333 483 305 C 507 277 540 257 582 244 C 623 231 675 225 737 225 Z" unicode="p" />
<glyph horiz-adv-x="1378" d="M 963 90 C 944 69 923 51 900 37 C 876 23 849 11 818 2 C 787 -6 752 -13 713 -17 C 673 -21 628 -23 578 -23 C 479 -23 398 -7 334 23 C 270 54 219 97 181 152 C 143 206 117 270 102 344 C 87 417 80 496 80 582 C 80 666 87 745 103 818 C 118 890 145 953 184 1007 C 222 1061 274 1103 340 1134 C 405 1164 488 1180 588 1180 C 645 1180 695 1177 739 1172 C 783 1166 821 1158 854 1148 C 887 1138 915 1125 939 1110 C 963 1094 983 1077 999 1057 L 1055 1161 L 1243 1145 L 1243 -338 L 963 -338 L 963 90 Z M 643 225 C 702 225 752 232 793 246 C 834 260 867 281 892 311 C 917 340 935 377 946 422 C 957 467 963 520 963 582 C 963 643 958 695 948 738 C 938 781 920 816 896 844 C 871 871 838 891 797 903 C 756 915 705 922 643 922 C 585 922 538 913 502 897 C 466 881 437 858 416 828 C 395 798 381 763 373 721 C 365 679 362 632 362 582 C 362 530 365 483 373 439 C 381 395 395 358 416 326 C 437 294 466 270 502 252 C 538 234 585 225 643 225 Z" unicode="q" />
<glyph horiz-adv-x="805" d="M 135 1137 L 352 1153 L 381 1024 C 393 1042 410 1060 434 1077 C 457 1094 485 1109 517 1121 C 549 1133 585 1143 626 1151 C 666 1159 710 1163 758 1165 L 758 893 C 689 892 632 884 588 870 C 544 855 509 834 484 808 C 458 781 441 748 431 710 C 421 672 416 629 416 582 L 416 0 L 135 0 L 135 1137 Z" unicode="r" />
<glyph horiz-adv-x="1149" d="M 563 -20 C 469 -20 377 -9 285 12 C 193 33 109 70 31 123 L 174 334 C 205 314 238 296 272 281 C 306 266 341 254 376 244 C 411 234 446 227 481 222 C 516 217 550 215 582 215 C 624 215 660 216 690 220 C 720 223 744 229 762 238 C 780 246 793 258 801 274 C 809 289 813 309 813 334 C 813 354 809 370 801 383 C 793 395 781 406 763 415 C 745 423 722 431 693 437 C 663 443 627 450 584 457 C 514 467 449 478 389 491 C 329 504 278 523 235 549 C 192 575 158 610 134 654 C 110 698 98 756 98 829 C 98 885 106 935 124 979 C 142 1023 170 1059 209 1089 C 247 1119 297 1141 359 1157 C 421 1172 496 1180 584 1180 C 675 1180 761 1171 843 1153 C 924 1135 995 1109 1055 1075 L 922 852 C 900 863 877 873 852 883 C 826 892 799 900 771 907 C 743 914 713 920 683 924 C 653 928 622 930 592 930 C 548 930 512 927 484 923 C 456 918 434 911 418 903 C 402 894 392 883 386 871 C 380 858 377 843 377 827 C 377 807 380 791 387 779 C 394 766 406 755 422 747 C 438 738 460 731 488 725 C 515 719 549 713 590 707 C 662 695 728 683 789 671 C 849 658 902 639 946 615 C 990 590 1024 557 1048 515 C 1072 473 1085 418 1085 348 C 1085 282 1075 225 1056 179 C 1037 132 1007 94 966 65 C 924 35 870 14 804 0 C 738 -13 657 -20 563 -20 Z" unicode="s" />
<glyph horiz-adv-x="903" d="M 55 1153 L 260 1153 L 309 1448 L 526 1493 L 526 1153 L 811 1153 L 811 907 L 526 907 L 526 387 C 526 363 527 342 530 324 C 533 306 540 290 550 278 C 560 265 576 255 597 249 C 617 243 646 240 682 240 L 811 240 L 811 0 C 801 -1 787 -2 771 -2 C 755 -2 738 -3 721 -3 C 703 -3 686 -4 670 -4 C 653 -4 639 -4 627 -4 C 552 -4 490 2 441 16 C 392 30 353 51 325 79 C 296 107 276 144 265 188 C 253 232 248 284 248 346 L 248 907 L 55 907 L 55 1153 Z" unicode="t" />
<glyph horiz-adv-x="1323" d="M 664 -20 C 554 -20 464 -9 394 12 C 324 33 270 66 231 110 C 191 154 164 211 150 280 C 136 348 129 430 129 524 L 129 1153 L 408 1153 L 408 518 C 408 476 409 438 412 403 C 415 367 425 337 441 311 C 457 285 483 265 518 251 C 553 236 602 229 666 229 C 708 229 743 232 772 239 C 801 245 825 255 844 267 C 862 279 877 294 887 312 C 897 329 905 348 910 370 C 914 392 917 415 918 441 C 919 466 920 493 920 522 L 920 1153 L 1194 1153 L 1194 528 C 1194 433 1187 351 1173 283 C 1159 214 1133 157 1095 112 C 1056 67 1002 34 933 12 C 864 -9 774 -20 664 -20 Z" unicode="u" />
<glyph horiz-adv-x="1221" d="M 4 1153 L 303 1153 L 616 324 L 930 1153 L 1217 1153 L 758 -12 L 461 -12 L 4 1153 Z" unicode="v" />
<glyph horiz-adv-x="1862" d="M 20 1153 L 315 1153 L 557 393 L 799 1153 L 1075 1153 L 1317 395 L 1559 1153 L 1841 1153 L 1456 -12 L 1182 -12 L 932 760 L 680 -12 L 408 -12 L 20 1153 Z" unicode="w" />
<glyph horiz-adv-x="1198" d="M 586 399 L 317 0 L 18 0 L 442 604 L 57 1153 L 369 1153 L 612 805 L 846 1153 L 1143 1153 L 758 600 L 1180 0 L 866 0 L 586 399 Z" unicode="x" />
<glyph horiz-adv-x="1169" d="M 270 -346 C 264 -346 256 -346 247 -346 C 237 -346 227 -346 217 -346 C 207 -346 196 -345 186 -345 C 176 -345 167 -344 160 -344 L 160 -127 L 246 -127 C 276 -127 302 -125 322 -123 C 342 -120 359 -115 372 -109 C 385 -102 395 -93 403 -81 C 411 -69 418 -55 424 -37 L 444 20 L 4 1153 L 303 1153 L 594 362 L 879 1153 L 1167 1153 L 696 -68 C 677 -118 656 -160 633 -196 C 610 -231 582 -260 550 -282 C 517 -304 478 -320 433 -330 C 387 -340 333 -346 270 -346 Z" unicode="y" />
<glyph horiz-adv-x="1087" d="M 49 195 L 649 907 L 82 907 L 82 1153 L 1022 1153 L 1022 956 L 418 231 L 1044 231 L 1044 0 L 49 0 L 49 195 Z" unicode="z" />
<glyph horiz-adv-x="1106" d="M 692 -338 C 623 -338 564 -332 515 -320 C 466 -308 426 -291 394 -267 C 362 -243 339 -214 325 -179 C 310 -143 303 -102 303 -55 C 303 -33 305 -9 311 17 C 316 44 323 72 331 102 C 339 131 347 160 356 190 C 365 220 374 248 382 276 C 390 303 396 328 402 351 C 407 374 410 394 410 410 C 410 431 405 448 396 461 C 387 474 372 484 352 491 C 332 498 305 503 271 505 C 237 507 196 508 147 508 L 147 741 C 195 741 235 742 269 744 C 302 746 329 750 350 757 C 371 764 386 774 396 788 C 405 801 410 819 410 842 C 410 858 407 877 402 901 C 396 924 390 949 382 976 C 374 1003 365 1032 356 1062 C 347 1092 339 1121 331 1150 C 323 1179 316 1207 311 1234 C 305 1261 303 1285 303 1307 C 303 1353 310 1394 325 1430 C 339 1465 362 1494 394 1518 C 426 1542 466 1559 515 1571 C 564 1583 623 1589 692 1589 L 926 1589 L 926 1343 L 758 1343 C 726 1343 699 1341 678 1337 C 656 1333 639 1326 627 1317 C 614 1308 605 1296 600 1281 C 594 1266 592 1248 592 1227 C 592 1215 594 1198 599 1178 C 603 1158 609 1135 617 1110 C 624 1084 632 1057 640 1029 C 648 1000 655 972 663 944 C 670 916 676 888 681 862 C 685 836 688 813 688 793 C 688 755 678 721 658 692 C 638 662 605 641 557 627 C 581 619 602 610 619 599 C 635 587 649 574 659 560 C 669 546 677 530 681 514 C 685 497 688 479 688 461 C 688 440 685 416 681 390 C 676 364 670 336 663 308 C 655 279 648 250 640 221 C 632 191 624 164 617 138 C 609 112 603 88 599 67 C 594 46 592 30 592 18 C 592 -4 594 -22 600 -37 C 605 -52 614 -64 627 -73 C 639 -82 656 -88 678 -92 C 699 -96 726 -98 758 -98 L 926 -98 L 926 -338 L 692 -338 L 692 -338 Z" unicode="{" />
<glyph horiz-adv-x="748" d="M 231 1589 L 514 1589 L 514 -338 L 231 -338 L 231 1589 Z" unicode="|" />
<glyph horiz-adv-x="1106" d="M 180 -98 L 350 -98 C 382 -98 408 -96 430 -92 C 451 -88 468 -82 481 -73 C 493 -64 502 -52 508 -37 C 513 -22 516 -4 516 18 C 516 30 513 46 508 67 C 503 88 497 112 490 138 C 483 164 475 191 467 221 C 458 250 450 279 443 308 C 436 336 430 364 425 390 C 420 416 418 440 418 461 C 418 498 427 531 447 561 C 467 590 501 612 549 627 C 501 641 467 662 447 692 C 427 721 418 755 418 793 C 418 813 420 836 425 862 C 430 888 436 916 443 944 C 450 972 458 1000 467 1029 C 475 1057 483 1084 490 1110 C 497 1135 503 1158 508 1178 C 513 1198 516 1215 516 1227 C 516 1248 513 1266 508 1281 C 502 1296 493 1308 481 1317 C 468 1326 451 1333 430 1337 C 408 1341 382 1343 350 1343 L 180 1343 L 180 1589 L 414 1589 C 482 1589 541 1583 591 1571 C 640 1559 680 1542 712 1518 C 743 1494 766 1465 781 1430 C 795 1394 803 1353 803 1307 C 803 1285 800 1261 795 1234 C 789 1207 783 1179 775 1150 C 767 1121 758 1092 749 1062 C 740 1032 732 1003 724 976 C 716 949 709 924 704 901 C 698 877 696 858 696 842 C 696 820 700 803 709 790 C 718 777 733 767 753 760 C 773 753 800 748 834 746 C 867 744 908 743 958 743 L 958 510 C 910 510 870 509 837 507 C 803 505 776 501 755 494 C 734 487 719 477 710 464 C 700 450 696 432 696 410 C 696 394 698 374 704 351 C 709 328 716 303 724 276 C 732 248 740 220 749 190 C 758 160 767 131 775 102 C 783 72 789 44 795 17 C 800 -9 803 -33 803 -55 C 803 -102 795 -143 781 -179 C 766 -214 743 -243 712 -267 C 680 -291 640 -308 591 -320 C 541 -332 482 -338 414 -338 L 180 -338 L 180 -98 Z" unicode="}" />
<glyph horiz-adv-x="1208" d="M 137 911 C 187 973 240 1022 295 1059 C 349 1095 404 1114 459 1114 C 494 1114 524 1108 549 1097 C 573 1086 596 1074 617 1061 C 637 1047 657 1035 676 1024 C 695 1013 717 1008 741 1008 C 789 1008 845 1046 909 1124 L 1069 995 C 1043 963 1017 935 991 909 C 965 883 938 860 911 842 C 884 824 857 809 829 799 C 801 789 774 784 748 784 C 714 784 684 789 660 800 C 635 811 612 823 591 837 C 570 851 550 863 530 874 C 510 885 487 891 463 891 C 440 891 415 882 387 865 C 359 847 329 819 299 780 L 137 911 Z" unicode="~" />
<glyph horiz-adv-x="451" d="" unicode="" />
<glyph horiz-adv-x="801" d="M 276 1055 L 526 1055 L 555 0 L 248 0 L 276 1055 Z M 236 1518 L 567 1518 L 567 1188 L 236 1188 L 236 1518 Z" unicode="" />
<glyph horiz-adv-x="1192" d="M 524 -6 C 436 5 364 27 308 61 C 251 95 206 137 173 188 C 140 239 117 298 104 364 C 90 430 84 502 84 580 C 84 654 90 723 103 789 C 115 855 138 913 171 964 C 204 1015 249 1058 306 1093 C 363 1127 436 1151 524 1163 L 524 1300 L 791 1300 L 791 1165 C 863 1155 925 1135 979 1106 C 1032 1077 1078 1041 1118 997 L 926 815 C 912 827 898 840 883 853 C 867 865 850 877 830 887 C 810 897 787 906 761 912 C 735 918 706 922 672 922 C 610 922 559 913 519 897 C 479 881 446 857 422 827 C 398 796 381 759 371 716 C 361 673 356 625 356 571 C 356 517 360 469 370 426 C 380 382 397 345 421 314 C 445 283 477 259 518 242 C 559 225 611 217 674 217 C 702 217 727 219 751 223 C 775 227 797 234 818 244 C 839 253 860 265 880 279 C 900 293 920 310 942 330 L 1116 162 C 1091 139 1067 118 1043 100 C 1019 82 994 66 968 52 C 942 38 914 26 885 17 C 856 7 825 0 791 -4 L 791 -193 L 524 -193 L 524 -6 Z" unicode="" />
<glyph horiz-adv-x="1346" d="M 870 -16 C 796 -16 724 -5 656 15 C 587 35 525 61 469 92 C 427 62 374 39 309 23 C 243 7 162 0 66 0 L 66 233 C 133 233 186 236 224 244 C 262 251 290 263 309 279 C 327 295 339 315 343 340 C 347 364 350 394 350 428 C 350 458 345 494 336 536 C 326 577 315 621 303 668 L 57 668 L 57 887 L 242 887 C 231 929 222 970 215 1011 C 208 1051 205 1090 205 1126 C 205 1187 213 1243 230 1295 C 246 1346 274 1390 314 1427 C 353 1464 405 1493 471 1513 C 536 1533 617 1544 715 1544 C 803 1544 882 1537 953 1524 C 1024 1510 1093 1490 1161 1464 L 1053 1227 C 1027 1238 1000 1247 971 1255 C 942 1263 913 1269 883 1274 C 853 1279 823 1283 793 1285 C 763 1287 735 1288 709 1288 C 663 1288 625 1283 595 1274 C 565 1264 542 1251 525 1233 C 508 1215 496 1194 490 1170 C 484 1145 481 1117 481 1087 C 481 1060 483 1029 489 995 C 495 961 502 925 512 887 L 918 887 L 918 668 L 567 668 C 577 626 586 585 592 545 C 598 505 602 468 602 434 C 602 407 601 381 599 356 C 597 331 593 308 588 287 C 629 269 673 255 719 243 C 765 231 814 225 864 225 C 900 225 930 228 952 235 C 974 242 992 253 1004 269 C 1016 284 1024 303 1028 327 C 1032 351 1034 380 1034 414 L 1034 471 L 1278 471 L 1278 403 C 1278 325 1270 260 1255 207 C 1240 153 1216 110 1184 77 C 1151 44 1109 20 1057 6 C 1005 -8 943 -16 870 -16 Z" unicode="" />
<glyph horiz-adv-x="1370" d="M 147 680 L 539 680 L 23 1518 L 319 1518 L 684 903 L 1051 1518 L 1346 1518 L 827 680 L 1219 680 L 1219 469 L 821 469 L 821 344 L 1219 344 L 1219 133 L 821 133 L 821 0 L 545 0 L 545 133 L 147 133 L 147 344 L 545 344 L 545 469 L 147 469 L 147 680 Z" unicode="" />
<glyph horiz-adv-x="748" d="M 231 465 L 514 465 L 514 -338 L 231 -338 L 231 465 Z M 231 1589 L 514 1589 L 514 786 L 231 786 L 231 1589 Z" unicode="" />
<glyph horiz-adv-x="1210" d="M 332 -12 C 296 -12 267 -11 245 -11 C 222 -10 202 -9 186 -8 L 186 215 L 297 215 C 335 215 366 218 389 226 C 411 233 428 244 440 258 C 452 272 459 288 462 308 C 465 328 467 350 467 375 L 467 434 C 349 447 263 480 207 532 C 151 584 123 658 123 754 C 123 846 149 919 203 973 C 257 1027 339 1061 451 1077 L 451 1128 C 451 1165 452 1201 456 1236 C 460 1270 467 1302 478 1332 C 489 1362 504 1389 523 1413 C 542 1437 567 1457 598 1474 C 629 1491 666 1504 710 1514 C 754 1523 806 1528 866 1528 C 901 1528 930 1527 953 1527 C 975 1526 995 1525 1012 1524 L 1012 1290 L 901 1290 C 861 1290 830 1286 808 1279 C 785 1271 768 1261 756 1247 C 744 1233 737 1216 734 1196 C 730 1176 729 1154 729 1130 L 729 1081 C 967 1055 1087 946 1087 754 C 1087 658 1059 585 1003 533 C 947 481 862 449 748 436 L 748 387 C 748 331 743 278 734 230 C 724 181 705 139 676 103 C 646 67 604 38 550 18 C 495 -1 422 -12 332 -12 Z M 604 610 C 694 610 760 620 800 642 C 840 664 860 699 860 748 C 860 796 840 830 800 852 C 760 874 694 885 604 885 C 558 885 519 882 487 877 C 455 871 428 863 408 852 C 388 841 373 827 364 810 C 354 792 350 772 350 748 C 350 724 354 703 364 685 C 373 667 388 653 408 642 C 428 631 455 623 487 618 C 519 612 558 610 604 610 Z" unicode="" />
<glyph horiz-adv-x="1208" d="M 250 1538 L 504 1538 L 504 1274 L 250 1274 L 250 1538 Z M 707 1538 L 958 1538 L 958 1274 L 707 1274 L 707 1538 Z" unicode="" />
<glyph horiz-adv-x="1669" d="M 850 266 C 680 266 554 309 473 395 C 392 481 352 606 352 770 C 352 856 364 931 388 995 C 412 1059 446 1111 490 1152 C 534 1193 588 1224 651 1244 C 713 1264 783 1274 860 1274 C 940 1274 1011 1262 1072 1239 C 1132 1216 1185 1182 1231 1137 L 1104 1006 C 1072 1036 1036 1058 996 1074 C 956 1090 910 1098 858 1098 C 752 1098 673 1070 620 1015 C 567 959 541 877 541 768 C 541 661 566 579 617 522 C 668 464 749 436 860 436 C 892 436 920 438 945 443 C 969 448 992 455 1012 464 C 1032 473 1051 484 1067 496 C 1083 508 1099 521 1114 535 L 1237 412 C 1217 392 1196 374 1173 356 C 1149 338 1122 323 1092 310 C 1061 296 1026 286 986 278 C 946 270 901 266 850 266 Z M 834 -25 C 706 -25 595 -5 500 35 C 405 75 326 130 263 200 C 200 270 153 352 121 448 C 89 544 74 648 74 760 C 74 871 89 974 121 1070 C 153 1166 200 1249 263 1319 C 326 1389 405 1444 500 1484 C 595 1524 706 1544 834 1544 C 960 1544 1071 1524 1166 1484 C 1261 1444 1340 1389 1404 1319 C 1468 1249 1515 1166 1547 1070 C 1579 974 1595 871 1595 760 C 1595 648 1579 544 1547 448 C 1515 352 1468 270 1404 200 C 1340 130 1261 75 1166 35 C 1071 -5 960 -25 834 -25 Z M 834 84 C 948 84 1046 101 1128 136 C 1210 170 1277 218 1330 278 C 1382 338 1421 410 1446 492 C 1470 574 1483 664 1483 760 C 1483 856 1470 945 1446 1027 C 1421 1109 1382 1181 1330 1242 C 1277 1303 1210 1351 1128 1386 C 1046 1420 948 1438 834 1438 C 718 1438 619 1420 537 1386 C 455 1351 387 1303 335 1242 C 283 1181 244 1109 220 1027 C 196 945 184 856 184 760 C 184 664 196 574 220 492 C 244 410 283 338 335 278 C 387 218 455 170 537 136 C 619 101 718 84 834 84 Z" unicode="" />
<glyph horiz-adv-x="1249" d="M 453 569 C 389 569 335 576 293 591 C 251 606 217 627 192 653 C 166 679 148 709 138 744 C 128 779 123 817 123 858 C 123 924 135 978 159 1022 C 183 1065 221 1100 271 1126 C 321 1152 384 1170 460 1180 C 536 1190 625 1196 729 1196 L 768 1196 C 766 1220 763 1240 758 1258 C 753 1275 744 1289 730 1301 C 716 1313 696 1321 671 1327 C 645 1332 612 1335 571 1335 C 543 1335 515 1332 489 1328 C 463 1323 438 1317 415 1310 C 392 1302 371 1294 352 1286 C 333 1277 317 1268 303 1260 L 186 1432 C 202 1443 224 1455 252 1468 C 279 1480 310 1492 346 1503 C 381 1513 420 1522 462 1529 C 504 1536 549 1540 596 1540 C 678 1540 745 1533 796 1519 C 847 1505 887 1484 916 1454 C 944 1424 964 1385 974 1338 C 984 1291 989 1235 989 1169 L 989 874 C 989 854 989 838 991 826 C 993 814 997 804 1003 798 C 1009 792 1017 787 1029 785 C 1040 783 1055 782 1075 782 L 1075 586 C 1067 584 1055 583 1041 583 C 1027 582 1007 582 983 582 C 955 582 930 583 909 586 C 887 589 869 595 854 604 C 838 612 826 624 816 640 C 806 655 798 675 793 700 C 780 678 765 658 748 642 C 731 626 710 612 684 601 C 658 590 626 582 589 577 C 551 571 506 569 453 569 Z M 211 457 L 989 457 L 989 254 L 211 254 L 211 457 Z M 512 760 C 596 760 660 777 703 812 C 746 846 768 903 768 981 L 768 1028 L 743 1028 C 659 1028 592 1025 540 1020 C 488 1015 447 1007 418 996 C 388 984 368 969 358 949 C 347 929 342 905 342 877 C 342 837 354 808 379 789 C 404 769 448 760 512 760 Z" unicode="" />
<glyph horiz-adv-x="1526" d="M 203 575 L 512 1153 L 758 1153 L 469 575 L 758 0 L 512 0 L 203 575 Z M 711 575 L 1020 1153 L 1268 1153 L 979 575 L 1268 0 L 1020 0 L 711 575 Z" unicode="" />
<glyph horiz-adv-x="1466" d="M 1268 852 L 1268 199 L 989 199 L 989 594 L 199 594 L 199 852 L 1268 852 Z" unicode="" />
<glyph horiz-adv-x="885" d="M 86 791 L 797 791 L 797 535 L 86 535 L 86 791 Z" unicode="" />
<glyph horiz-adv-x="1669" d="M 834 -25 C 706 -25 595 -5 500 35 C 405 75 326 130 263 200 C 200 270 153 352 121 448 C 89 544 74 648 74 760 C 74 871 89 974 121 1070 C 153 1166 200 1249 263 1319 C 326 1389 405 1444 500 1484 C 595 1524 706 1544 834 1544 C 960 1544 1071 1524 1166 1484 C 1261 1444 1340 1389 1404 1319 C 1468 1249 1515 1166 1547 1070 C 1579 974 1595 871 1595 760 C 1595 648 1579 544 1547 448 C 1515 352 1468 270 1404 200 C 1340 130 1261 75 1166 35 C 1071 -5 960 -25 834 -25 Z M 834 84 C 948 84 1046 101 1128 136 C 1210 170 1277 218 1330 278 C 1382 338 1421 410 1446 492 C 1470 574 1483 664 1483 760 C 1483 856 1470 945 1446 1027 C 1421 1109 1382 1181 1330 1242 C 1277 1303 1210 1351 1128 1386 C 1046 1420 948 1438 834 1438 C 718 1438 619 1420 537 1386 C 455 1351 387 1303 335 1242 C 283 1181 244 1109 220 1027 C 196 945 184 856 184 760 C 184 664 196 574 220 492 C 244 410 283 338 335 278 C 387 218 455 170 537 136 C 619 101 718 84 834 84 Z M 870 625 L 633 625 L 633 283 L 461 283 L 461 1231 L 903 1231 C 975 1231 1034 1224 1080 1210 C 1126 1196 1162 1176 1188 1150 C 1214 1124 1231 1092 1241 1055 C 1250 1018 1255 977 1255 932 C 1255 897 1252 864 1246 833 C 1240 802 1229 774 1213 749 C 1197 723 1176 701 1150 682 C 1123 663 1089 649 1047 639 L 1249 283 L 1063 283 L 870 625 Z M 897 778 C 929 778 957 780 980 785 C 1003 789 1022 797 1036 809 C 1050 820 1061 835 1067 854 C 1073 873 1077 897 1077 926 C 1077 954 1073 978 1067 998 C 1061 1017 1050 1032 1036 1044 C 1021 1055 1002 1063 979 1068 C 956 1072 928 1075 895 1075 L 633 1075 L 633 778 L 897 778 Z" unicode="" />
<glyph horiz-adv-x="1208" d="M 190 1477 L 1020 1477 L 1020 1247 L 190 1247 L 190 1477 Z" unicode="" />
<glyph horiz-adv-x="1165" d="M 582 553 C 498 553 425 565 365 591 C 304 617 254 652 215 697 C 176 741 147 794 129 854 C 111 914 102 979 102 1049 C 102 1117 111 1181 129 1241 C 147 1301 176 1353 215 1398 C 254 1442 304 1477 365 1503 C 425 1529 498 1542 582 1542 C 666 1542 739 1529 800 1503 C 860 1477 910 1442 950 1398 C 989 1353 1018 1301 1037 1241 C 1055 1181 1065 1117 1065 1049 C 1065 979 1055 914 1037 854 C 1018 794 989 741 950 697 C 910 652 860 617 800 591 C 739 565 666 553 582 553 Z M 582 762 C 629 762 669 769 702 783 C 735 797 762 817 782 842 C 802 867 817 896 826 930 C 835 964 840 1000 840 1040 C 840 1079 835 1116 826 1150 C 817 1184 802 1213 782 1238 C 762 1263 735 1283 702 1297 C 669 1311 629 1319 582 1319 C 534 1319 493 1311 461 1297 C 429 1283 403 1263 383 1238 C 363 1213 349 1184 341 1150 C 332 1116 328 1079 328 1040 C 328 1000 332 964 341 930 C 349 896 363 867 383 842 C 403 817 429 797 461 783 C 493 769 534 762 582 762 Z" unicode="" />
<glyph horiz-adv-x="1466" d="M 199 274 L 594 274 L 594 594 L 199 594 L 199 852 L 594 852 L 594 1245 L 872 1245 L 872 852 L 1268 852 L 1268 594 L 872 594 L 872 274 L 1268 274 L 1268 18 L 199 18 L 199 274 Z" unicode="" />
<glyph horiz-adv-x="1014" d="M 129 690 L 440 969 C 480 1005 513 1034 539 1058 C 565 1082 585 1103 600 1122 C 614 1141 624 1159 629 1177 C 634 1194 637 1214 637 1237 C 637 1255 634 1271 629 1285 C 623 1299 614 1310 601 1320 C 587 1330 569 1337 547 1342 C 525 1347 497 1350 463 1350 C 439 1350 416 1348 392 1345 C 368 1342 346 1338 324 1332 C 302 1326 281 1320 262 1313 C 242 1305 225 1298 211 1290 L 115 1454 C 139 1466 164 1478 190 1488 C 215 1498 243 1506 273 1513 C 303 1519 335 1524 371 1528 C 407 1532 447 1534 492 1534 C 550 1534 601 1529 646 1519 C 690 1509 728 1493 758 1471 C 788 1449 811 1421 827 1387 C 842 1352 850 1310 850 1262 C 850 1222 845 1187 836 1157 C 826 1126 812 1096 792 1068 C 772 1039 747 1010 717 980 C 687 950 650 916 608 879 L 428 713 L 858 713 L 858 539 L 129 539 L 129 690 Z" unicode="" />
<glyph horiz-adv-x="1042" d="M 506 526 C 460 526 419 528 381 532 C 343 536 308 543 275 552 C 242 560 211 571 182 585 C 152 598 123 614 94 633 L 201 788 C 247 761 292 741 337 728 C 381 715 431 709 485 709 C 520 709 550 711 575 715 C 599 719 619 726 635 736 C 651 746 662 761 669 779 C 676 797 680 821 680 850 C 680 874 676 894 670 910 C 664 926 653 940 637 950 C 621 960 600 968 573 972 C 545 976 511 979 469 979 L 305 979 L 305 1151 L 465 1151 C 499 1151 528 1152 552 1154 C 576 1156 595 1161 610 1168 C 624 1175 635 1185 641 1199 C 647 1212 651 1229 651 1251 C 651 1270 648 1286 642 1299 C 636 1311 626 1321 613 1329 C 599 1336 582 1341 560 1344 C 538 1346 512 1348 481 1348 C 427 1348 376 1341 330 1329 C 284 1316 245 1300 213 1282 L 111 1444 C 135 1458 162 1471 192 1483 C 222 1494 254 1504 288 1512 C 322 1520 358 1526 396 1530 C 434 1534 472 1536 512 1536 C 576 1536 631 1531 677 1521 C 723 1511 760 1496 788 1476 C 816 1456 837 1431 850 1401 C 863 1371 870 1337 870 1298 C 870 1238 859 1191 839 1157 C 819 1123 787 1097 743 1081 C 795 1065 834 1038 859 998 C 884 958 897 900 897 825 C 897 771 889 725 873 687 C 857 649 832 619 800 595 C 768 571 727 553 678 542 C 629 531 572 526 506 526 Z" unicode="" />
<glyph horiz-adv-x="1208" d="M 700 1628 L 1038 1628 L 657 1266 L 408 1266 L 700 1628 Z" unicode="" />
<glyph horiz-adv-x="1341" d="M 553 -23 C 522 -23 493 -21 467 -18 C 440 -14 415 -10 393 -4 L 393 -338 L 135 -338 L 135 1153 L 414 1153 L 414 504 C 414 462 416 425 421 391 C 425 357 436 329 452 305 C 468 281 491 262 521 249 C 551 235 593 229 645 229 C 705 229 754 236 791 250 C 828 264 856 284 876 310 C 895 336 908 366 914 402 C 920 437 924 476 924 518 L 924 1153 L 1206 1153 L 1206 12 L 991 -10 L 965 109 C 929 67 877 35 808 12 C 739 -11 654 -23 553 -23 Z" unicode="" />
<glyph horiz-adv-x="1360" d="M 477 530 C 401 543 338 564 289 593 C 239 621 200 657 172 699 C 143 741 123 789 112 843 C 101 897 96 956 96 1022 C 96 1100 104 1169 121 1231 C 138 1292 168 1344 212 1386 C 255 1428 314 1461 390 1484 C 465 1506 561 1518 678 1518 L 1192 1518 L 1192 0 L 930 0 L 930 514 L 741 514 L 741 0 L 477 0 L 477 530 Z M 930 741 L 930 1270 L 674 1270 C 618 1270 571 1265 533 1257 C 495 1248 465 1234 442 1214 C 418 1194 402 1167 392 1133 C 382 1099 377 1058 377 1008 C 377 959 382 918 392 884 C 402 850 419 822 443 801 C 466 780 496 765 533 755 C 570 745 616 741 670 741 L 930 741 Z" unicode="" />
<glyph horiz-adv-x="573" d="M 121 907 L 451 907 L 451 561 L 121 561 L 121 907 Z" unicode="" />
<glyph horiz-adv-x="1208" d="M 608 -500 C 554 -500 505 -493 462 -481 C 418 -469 379 -453 344 -434 L 416 -299 C 446 -313 476 -325 507 -333 C 537 -341 568 -346 598 -346 C 625 -346 647 -344 665 -340 C 683 -336 697 -331 707 -324 C 717 -316 725 -307 729 -296 C 733 -285 735 -272 735 -258 C 735 -222 719 -199 688 -190 C 656 -180 611 -178 553 -182 L 496 -143 L 528 14 L 688 14 L 670 -88 C 702 -87 733 -88 763 -90 C 793 -92 819 -100 843 -113 C 867 -125 886 -144 900 -170 C 914 -196 922 -231 922 -276 C 922 -316 915 -351 901 -379 C 887 -407 866 -431 840 -449 C 813 -467 780 -480 741 -488 C 702 -496 658 -500 608 -500 Z" unicode="" />
<glyph horiz-adv-x="743" d="M 299 1329 L 125 1329 L 125 1518 L 520 1518 L 520 539 L 299 539 L 299 1329 Z" unicode="" />
<glyph horiz-adv-x="1241" d="M 623 571 C 539 571 466 581 406 603 C 345 624 295 655 256 696 C 217 737 188 788 170 849 C 152 909 143 979 143 1059 C 143 1137 152 1206 170 1266 C 188 1326 217 1377 256 1418 C 295 1458 345 1489 406 1510 C 466 1531 539 1542 623 1542 C 705 1542 777 1531 837 1510 C 897 1489 946 1458 985 1418 C 1024 1377 1053 1326 1072 1266 C 1090 1206 1100 1137 1100 1059 C 1100 979 1090 909 1072 849 C 1053 788 1024 737 985 696 C 946 655 897 624 837 603 C 777 581 705 571 623 571 Z M 623 774 C 667 774 704 780 735 793 C 766 805 791 823 811 847 C 831 871 845 900 854 934 C 863 968 868 1007 868 1051 C 868 1094 863 1133 854 1167 C 845 1201 831 1230 811 1254 C 791 1278 766 1296 735 1308 C 704 1320 667 1327 623 1327 C 578 1327 540 1320 509 1308 C 477 1296 452 1278 433 1254 C 413 1230 399 1201 390 1167 C 381 1133 377 1094 377 1051 C 377 1007 381 968 390 934 C 399 900 413 871 433 847 C 452 823 477 805 509 793 C 540 780 578 774 623 774 Z M 203 455 L 1040 455 L 1040 250 L 203 250 L 203 455 Z" unicode="" />
<glyph horiz-adv-x="1526" d="M 549 578 L 260 1153 L 506 1153 L 815 578 L 506 0 L 260 0 L 549 578 Z M 1055 578 L 768 1153 L 1014 1153 L 1323 578 L 1014 0 L 768 0 L 1055 578 Z" unicode="" />
<glyph horiz-adv-x="2048" d="M 1620 193 L 1130 193 L 1130 352 L 1567 981 L 1806 981 L 1380 369 L 1624 369 L 1665 588 L 1829 588 L 1829 369 L 1982 369 L 1982 193 L 1829 193 L 1829 0 L 1620 0 L 1620 193 Z M 262 1325 L 88 1325 L 88 1518 L 489 1518 L 489 537 L 262 537 L 262 1325 Z M 1264 1518 L 1509 1518 L 664 0 L 416 0 L 1264 1518 Z" unicode="" />
<glyph horiz-adv-x="2163" d="M 1303 158 L 1612 432 C 1653 468 1687 498 1713 522 C 1739 546 1759 567 1773 585 C 1787 603 1797 620 1802 636 C 1807 652 1810 672 1810 694 C 1810 712 1807 727 1802 741 C 1796 755 1787 766 1774 776 C 1761 786 1743 793 1721 798 C 1699 802 1671 805 1638 805 C 1588 805 1541 799 1496 787 C 1451 775 1414 761 1384 745 L 1286 913 C 1312 925 1338 937 1364 947 C 1390 957 1417 965 1447 972 C 1477 979 1509 984 1545 988 C 1580 991 1620 993 1665 993 C 1723 993 1774 988 1818 978 C 1862 968 1900 952 1930 930 C 1960 908 1982 880 1998 846 C 2013 811 2021 769 2021 719 C 2021 680 2016 646 2008 616 C 1999 586 1985 557 1966 529 C 1946 501 1921 472 1891 442 C 1861 412 1824 378 1782 340 L 1606 180 L 2025 180 L 2025 0 L 1303 0 L 1303 158 Z M 262 1325 L 88 1325 L 88 1518 L 489 1518 L 489 537 L 262 537 L 262 1325 Z M 1264 1518 L 1509 1518 L 664 0 L 416 0 L 1264 1518 Z" unicode="" />
<glyph horiz-adv-x="2304" d="M 489 530 C 443 530 401 532 363 536 C 325 540 290 547 258 556 C 225 564 194 575 165 589 C 135 602 106 617 76 635 L 188 797 C 210 783 232 772 254 762 C 276 752 298 743 320 737 C 342 730 366 725 390 722 C 414 718 439 717 467 717 C 502 717 532 718 557 722 C 581 725 601 732 617 742 C 633 752 644 766 651 784 C 658 802 662 825 662 854 C 662 878 658 898 652 914 C 646 930 635 943 619 953 C 603 963 582 970 555 974 C 528 978 494 981 453 981 L 289 981 L 289 1159 L 449 1159 C 483 1159 512 1160 536 1162 C 560 1164 579 1169 594 1176 C 608 1183 619 1193 625 1206 C 631 1219 635 1236 635 1257 C 635 1276 631 1292 625 1304 C 619 1316 609 1326 595 1333 C 581 1340 564 1345 542 1348 C 520 1350 494 1352 463 1352 C 408 1352 358 1345 313 1332 C 268 1319 229 1303 197 1284 L 94 1450 C 142 1479 201 1502 271 1518 C 341 1534 416 1542 496 1542 C 560 1542 615 1537 660 1527 C 705 1517 742 1502 770 1482 C 798 1462 819 1438 832 1408 C 845 1378 852 1344 852 1305 C 852 1245 840 1197 817 1163 C 793 1129 760 1103 717 1087 C 742 1079 765 1069 785 1055 C 805 1041 823 1024 837 1003 C 851 982 861 957 869 929 C 877 900 881 867 881 829 C 881 775 872 730 856 692 C 840 654 815 624 783 600 C 751 576 710 558 661 547 C 612 535 555 530 489 530 Z M 1874 193 L 1384 193 L 1384 352 L 1821 981 L 2062 981 L 1634 369 L 1880 369 L 1921 588 L 2085 588 L 2085 369 L 2236 369 L 2236 193 L 2085 193 L 2085 0 L 1874 0 L 1874 193 Z M 1520 1518 L 1765 1518 L 918 0 L 672 0 L 1520 1518 Z" unicode="" />
<glyph horiz-adv-x="1419" d="M 688 -25 C 591 -25 508 -17 439 -2 C 369 12 312 36 268 68 C 224 100 191 141 170 191 C 149 241 139 301 139 371 C 139 425 145 472 157 512 C 169 552 188 587 212 617 C 236 647 265 673 301 696 C 336 718 376 740 422 762 C 469 784 506 804 534 822 C 561 840 581 860 594 882 C 607 904 614 931 616 963 C 617 994 616 1035 612 1085 L 887 1085 C 896 1015 899 957 896 909 C 892 861 881 820 862 785 C 843 750 816 720 780 694 C 744 668 699 642 643 616 C 599 594 563 576 535 560 C 507 544 484 529 468 513 C 452 497 441 480 435 462 C 429 443 426 421 426 395 C 426 369 429 346 436 326 C 442 306 456 289 476 275 C 496 261 524 250 561 242 C 598 234 647 231 709 231 C 792 231 870 240 944 259 C 1017 277 1084 302 1145 334 L 1264 96 C 1227 78 1186 61 1141 46 C 1096 31 1049 18 999 8 C 949 -2 898 -10 845 -16 C 792 -22 740 -25 688 -25 Z M 586 1518 L 918 1518 L 918 1221 L 586 1221 L 586 1518 Z" unicode="" />
<glyph horiz-adv-x="1583" d="M 643 1528 L 940 1528 L 1550 0 L 1249 0 L 1143 270 L 428 270 L 322 0 L 35 0 L 643 1528 Z M 1047 524 L 784 1182 L 524 524 L 1047 524 Z M 354 1964 L 692 1964 L 987 1602 L 735 1602 L 354 1964 Z" unicode="" />
<glyph horiz-adv-x="1583" d="M 643 1528 L 940 1528 L 1550 0 L 1249 0 L 1143 270 L 428 270 L 322 0 L 35 0 L 643 1528 Z M 1047 524 L 784 1182 L 524 524 L 1047 524 Z M 885 1964 L 1223 1964 L 842 1602 L 592 1602 L 885 1964 Z" unicode="" />
<glyph horiz-adv-x="1583" d="M 643 1528 L 940 1528 L 1550 0 L 1249 0 L 1143 270 L 428 270 L 322 0 L 35 0 L 643 1528 Z M 1047 524 L 784 1182 L 524 524 L 1047 524 Z M 643 1964 L 934 1964 L 1251 1602 L 987 1602 L 784 1788 L 586 1602 L 326 1602 L 643 1964 Z" unicode="" />
<glyph horiz-adv-x="1583" d="M 643 1528 L 940 1528 L 1550 0 L 1249 0 L 1143 270 L 428 270 L 322 0 L 35 0 L 643 1528 Z M 1047 524 L 784 1182 L 524 524 L 1047 524 Z M 322 1729 C 346 1759 372 1787 399 1812 C 425 1836 452 1857 479 1875 C 506 1893 533 1906 561 1916 C 588 1926 615 1931 643 1931 C 678 1931 708 1925 733 1914 C 757 1903 780 1891 801 1878 C 821 1864 841 1852 861 1841 C 880 1830 902 1825 926 1825 C 974 1825 1030 1864 1094 1942 L 1253 1812 C 1227 1780 1201 1752 1175 1726 C 1149 1700 1122 1678 1095 1660 C 1068 1642 1041 1627 1013 1617 C 985 1607 958 1602 932 1602 C 898 1602 868 1607 844 1618 C 819 1629 796 1641 775 1655 C 754 1668 734 1680 714 1691 C 694 1702 671 1708 647 1708 C 624 1708 599 1699 571 1682 C 543 1664 514 1636 483 1597 L 322 1729 Z" unicode="" />
<glyph horiz-adv-x="1583" d="M 643 1528 L 940 1528 L 1550 0 L 1249 0 L 1143 270 L 428 270 L 322 0 L 35 0 L 643 1528 Z M 1047 524 L 784 1182 L 524 524 L 1047 524 Z M 434 1874 L 688 1874 L 688 1610 L 434 1610 L 434 1874 Z M 891 1874 L 1143 1874 L 1143 1610 L 891 1610 L 891 1874 Z" unicode="" />
<glyph horiz-adv-x="1583" d="M 602 1427 C 570 1453 546 1485 532 1525 C 517 1565 510 1609 510 1657 C 510 1697 515 1734 526 1769 C 536 1804 553 1835 576 1861 C 598 1887 627 1908 663 1923 C 698 1938 741 1946 791 1946 C 838 1946 879 1938 915 1923 C 950 1908 979 1887 1002 1861 C 1025 1835 1042 1804 1054 1769 C 1065 1734 1071 1697 1071 1657 C 1071 1609 1063 1566 1048 1528 C 1032 1489 1009 1456 977 1430 L 1550 0 L 1251 0 L 1143 270 L 426 270 L 322 0 L 35 0 L 602 1427 Z M 1047 524 L 784 1182 L 524 524 L 1047 524 Z M 791 1511 C 815 1511 836 1514 854 1522 C 872 1530 886 1540 897 1553 C 907 1566 915 1581 920 1599 C 925 1617 928 1636 928 1657 C 928 1677 925 1696 920 1714 C 915 1732 907 1747 897 1760 C 886 1773 872 1783 854 1791 C 836 1798 815 1802 791 1802 C 765 1802 744 1798 727 1791 C 709 1783 695 1773 684 1760 C 673 1747 665 1732 660 1714 C 655 1696 653 1677 653 1657 C 653 1636 655 1617 660 1599 C 665 1581 673 1566 684 1553 C 695 1540 709 1530 727 1522 C 744 1514 765 1511 791 1511 Z" unicode="" />
<glyph horiz-adv-x="2312" d="M 969 1518 L 2193 1518 L 2193 1247 L 1380 1247 L 1380 907 L 2173 907 L 2173 647 L 1380 647 L 1380 260 L 2202 260 L 2202 0 L 1100 0 L 1100 279 L 483 279 L 299 0 L 14 0 L 969 1518 Z M 1100 522 L 1100 1262 L 625 522 L 1100 522 Z" unicode="" />
<glyph horiz-adv-x="1536" d="M 770 -500 C 716 -500 667 -493 623 -481 C 579 -469 540 -453 506 -434 L 578 -299 C 608 -313 638 -325 669 -333 C 699 -341 730 -346 760 -346 C 786 -346 808 -344 826 -340 C 844 -336 858 -331 869 -324 C 879 -316 887 -307 891 -296 C 895 -285 897 -272 897 -258 C 897 -222 881 -199 849 -190 C 817 -180 773 -178 715 -182 L 657 -143 L 684 -12 C 575 0 482 26 406 66 C 329 106 266 158 217 223 C 168 288 132 365 110 455 C 87 545 76 646 76 760 C 76 896 93 1013 129 1111 C 164 1209 215 1290 283 1354 C 351 1418 433 1465 531 1496 C 629 1526 740 1542 864 1542 C 929 1542 989 1537 1045 1528 C 1100 1519 1151 1506 1199 1488 C 1246 1470 1290 1448 1330 1422 C 1370 1395 1408 1364 1444 1329 L 1239 1124 C 1191 1170 1136 1206 1076 1232 C 1016 1257 944 1270 862 1270 C 692 1270 567 1226 488 1140 C 408 1054 369 926 369 758 C 369 675 377 602 395 538 C 413 474 441 421 481 377 C 520 333 571 300 634 278 C 696 255 773 244 864 244 C 915 244 960 248 998 256 C 1036 264 1071 274 1101 288 C 1131 302 1159 318 1183 337 C 1207 355 1231 375 1255 397 L 1454 205 C 1424 175 1392 146 1356 119 C 1320 91 1279 67 1232 46 C 1184 25 1130 8 1068 -4 C 1006 -16 934 -23 852 -23 L 842 -23 L 831 -88 C 863 -87 894 -88 924 -90 C 954 -92 980 -100 1004 -113 C 1028 -125 1047 -144 1061 -170 C 1075 -196 1083 -231 1083 -276 C 1083 -316 1076 -351 1062 -379 C 1048 -407 1028 -431 1002 -449 C 975 -467 942 -480 903 -488 C 864 -496 820 -500 770 -500 Z" unicode="" />
<glyph horiz-adv-x="1382" d="M 160 1518 L 1266 1518 L 1266 1247 L 451 1247 L 451 909 L 1245 909 L 1245 645 L 451 645 L 451 262 L 1274 262 L 1274 0 L 160 0 L 160 1518 Z M 254 1964 L 592 1964 L 887 1602 L 635 1602 L 254 1964 Z" unicode="" />
<glyph horiz-adv-x="1382" d="M 784 1964 L 1122 1964 L 741 1602 L 492 1602 L 784 1964 Z M 160 1518 L 1266 1518 L 1266 1247 L 451 1247 L 451 909 L 1245 909 L 1245 645 L 451 645 L 451 262 L 1274 262 L 1274 0 L 160 0 L 160 1518 Z" unicode="" />
<glyph horiz-adv-x="1382" d="M 543 1964 L 834 1964 L 1151 1602 L 887 1602 L 684 1788 L 485 1602 L 225 1602 L 543 1964 Z M 160 1518 L 1266 1518 L 1266 1247 L 451 1247 L 451 909 L 1245 909 L 1245 645 L 451 645 L 451 262 L 1274 262 L 1274 0 L 160 0 L 160 1518 Z" unicode="" />
<glyph horiz-adv-x="1382" d="M 334 1874 L 588 1874 L 588 1610 L 334 1610 L 334 1874 Z M 791 1874 L 1042 1874 L 1042 1610 L 791 1610 L 791 1874 Z M 160 1518 L 1266 1518 L 1266 1247 L 451 1247 L 451 909 L 1245 909 L 1245 645 L 451 645 L 451 262 L 1274 262 L 1274 0 L 160 0 L 160 1518 Z" unicode="" />
<glyph horiz-adv-x="649" d="M -158 1964 L 195 1964 L 469 1602 L 207 1602 L -158 1964 Z M 180 1518 L 469 1518 L 469 0 L 180 0 L 180 1518 Z" unicode="" />
<glyph horiz-adv-x="649" d="M 453 1964 L 803 1964 L 440 1602 L 180 1602 L 453 1964 Z M 180 1518 L 469 1518 L 469 0 L 180 0 L 180 1518 Z" unicode="" />
<glyph horiz-adv-x="649" d="M 178 1964 L 469 1964 L 750 1602 L 485 1602 L 319 1790 L 156 1602 L -104 1602 L 178 1964 Z M 180 1518 L 469 1518 L 469 0 L 180 0 L 180 1518 Z" unicode="" />
<glyph horiz-adv-x="649" d="M 180 1518 L 469 1518 L 469 0 L 180 0 L 180 1518 Z M -29 1874 L 225 1874 L 225 1610 L -29 1610 L -29 1874 Z M 428 1874 L 680 1874 L 680 1610 L 428 1610 L 428 1874 Z" unicode="" />
<glyph horiz-adv-x="1593" d="M 0 889 L 160 889 L 160 1518 L 690 1518 C 838 1518 964 1506 1069 1483 C 1174 1460 1260 1420 1327 1363 C 1393 1305 1442 1228 1473 1130 C 1504 1032 1520 909 1520 760 C 1520 612 1503 490 1469 393 C 1435 295 1384 217 1315 159 C 1245 101 1158 60 1052 36 C 946 12 822 0 678 0 L 160 0 L 160 653 L 0 653 L 0 889 Z M 694 262 C 801 262 889 270 958 288 C 1027 306 1081 334 1121 374 C 1161 413 1188 464 1204 528 C 1219 591 1227 668 1227 760 C 1227 852 1220 929 1206 991 C 1192 1053 1166 1104 1128 1142 C 1089 1180 1035 1208 966 1224 C 896 1240 806 1249 694 1249 L 451 1249 L 451 889 L 750 889 L 750 653 L 451 653 L 451 262 L 694 262 Z" unicode="" />
<glyph horiz-adv-x="1663" d="M 160 1518 L 475 1518 L 1223 492 L 1223 1518 L 1503 1518 L 1503 0 L 1237 0 L 440 1087 L 440 0 L 160 0 L 160 1518 Z M 360 1729 C 410 1790 463 1839 518 1876 C 572 1912 627 1931 682 1931 C 717 1931 747 1925 772 1914 C 796 1903 819 1891 840 1878 C 860 1864 880 1852 900 1841 C 919 1830 941 1825 965 1825 C 1013 1825 1069 1864 1133 1942 L 1292 1812 C 1266 1780 1240 1752 1214 1726 C 1188 1700 1161 1678 1134 1660 C 1107 1642 1080 1627 1052 1617 C 1024 1607 997 1602 971 1602 C 937 1602 907 1607 883 1618 C 858 1629 835 1641 814 1655 C 793 1668 773 1680 753 1691 C 733 1702 710 1708 686 1708 C 663 1708 638 1699 610 1682 C 582 1664 553 1636 522 1597 L 360 1729 Z" unicode="" />
<glyph horiz-adv-x="1737" d="M 868 -25 C 746 -25 637 -10 539 18 C 441 46 358 92 290 155 C 221 218 168 299 131 399 C 94 498 76 618 76 760 C 76 900 94 1020 131 1119 C 168 1218 221 1299 290 1362 C 358 1424 441 1470 539 1499 C 637 1527 746 1542 868 1542 C 988 1542 1098 1527 1196 1499 C 1294 1470 1377 1424 1447 1362 C 1516 1299 1569 1218 1607 1119 C 1644 1020 1663 900 1663 760 C 1663 618 1644 498 1607 399 C 1569 299 1516 218 1447 155 C 1377 92 1294 46 1196 18 C 1098 -10 988 -25 868 -25 Z M 868 240 C 959 240 1036 251 1100 275 C 1163 298 1214 332 1254 376 C 1294 420 1323 474 1341 538 C 1359 602 1368 674 1368 756 C 1368 836 1359 907 1341 971 C 1323 1035 1294 1089 1254 1133 C 1214 1177 1163 1211 1100 1235 C 1036 1258 959 1270 868 1270 C 776 1270 699 1258 636 1235 C 572 1211 521 1177 482 1133 C 442 1089 414 1035 396 971 C 378 907 369 836 369 756 C 369 674 378 602 396 538 C 414 474 442 420 482 376 C 521 332 572 298 636 275 C 699 251 776 240 868 240 Z M 432 1964 L 770 1964 L 1065 1602 L 813 1602 L 432 1964 Z" unicode="" />
<glyph horiz-adv-x="1737" d="M 963 1964 L 1300 1964 L 920 1602 L 670 1602 L 963 1964 Z M 868 -25 C 746 -25 637 -10 539 18 C 441 46 358 92 290 155 C 221 218 168 299 131 399 C 94 498 76 618 76 760 C 76 900 94 1020 131 1119 C 168 1218 221 1299 290 1362 C 358 1424 441 1470 539 1499 C 637 1527 746 1542 868 1542 C 988 1542 1098 1527 1196 1499 C 1294 1470 1377 1424 1447 1362 C 1516 1299 1569 1218 1607 1119 C 1644 1020 1663 900 1663 760 C 1663 618 1644 498 1607 399 C 1569 299 1516 218 1447 155 C 1377 92 1294 46 1196 18 C 1098 -10 988 -25 868 -25 Z M 868 240 C 959 240 1036 251 1100 275 C 1163 298 1214 332 1254 376 C 1294 420 1323 474 1341 538 C 1359 602 1368 674 1368 756 C 1368 836 1359 907 1341 971 C 1323 1035 1294 1089 1254 1133 C 1214 1177 1163 1211 1100 1235 C 1036 1258 959 1270 868 1270 C 776 1270 699 1258 636 1235 C 572 1211 521 1177 482 1133 C 442 1089 414 1035 396 971 C 378 907 369 836 369 756 C 369 674 378 602 396 538 C 414 474 442 420 482 376 C 521 332 572 298 636 275 C 699 251 776 240 868 240 Z" unicode="" />
<glyph horiz-adv-x="1737" d="M 721 1964 L 1012 1964 L 1329 1602 L 1065 1602 L 862 1788 L 664 1602 L 403 1602 L 721 1964 Z M 868 -25 C 746 -25 637 -10 539 18 C 441 46 358 92 290 155 C 221 218 168 299 131 399 C 94 498 76 618 76 760 C 76 900 94 1020 131 1119 C 168 1218 221 1299 290 1362 C 358 1424 441 1470 539 1499 C 637 1527 746 1542 868 1542 C 988 1542 1098 1527 1196 1499 C 1294 1470 1377 1424 1447 1362 C 1516 1299 1569 1218 1607 1119 C 1644 1020 1663 900 1663 760 C 1663 618 1644 498 1607 399 C 1569 299 1516 218 1447 155 C 1377 92 1294 46 1196 18 C 1098 -10 988 -25 868 -25 Z M 868 240 C 959 240 1036 251 1100 275 C 1163 298 1214 332 1254 376 C 1294 420 1323 474 1341 538 C 1359 602 1368 674 1368 756 C 1368 836 1359 907 1341 971 C 1323 1035 1294 1089 1254 1133 C 1214 1177 1163 1211 1100 1235 C 1036 1258 959 1270 868 1270 C 776 1270 699 1258 636 1235 C 572 1211 521 1177 482 1133 C 442 1089 414 1035 396 971 C 378 907 369 836 369 756 C 369 674 378 602 396 538 C 414 474 442 420 482 376 C 521 332 572 298 636 275 C 699 251 776 240 868 240 Z" unicode="" />
<glyph horiz-adv-x="1737" d="M 868 -25 C 746 -25 637 -10 539 18 C 441 46 358 92 290 155 C 221 218 168 299 131 399 C 94 498 76 618 76 760 C 76 900 94 1020 131 1119 C 168 1218 221 1299 290 1362 C 358 1424 441 1470 539 1499 C 637 1527 746 1542 868 1542 C 988 1542 1098 1527 1196 1499 C 1294 1470 1377 1424 1447 1362 C 1516 1299 1569 1218 1607 1119 C 1644 1020 1663 900 1663 760 C 1663 618 1644 498 1607 399 C 1569 299 1516 218 1447 155 C 1377 92 1294 46 1196 18 C 1098 -10 988 -25 868 -25 Z M 868 240 C 959 240 1036 251 1100 275 C 1163 298 1214 332 1254 376 C 1294 420 1323 474 1341 538 C 1359 602 1368 674 1368 756 C 1368 836 1359 907 1341 971 C 1323 1035 1294 1089 1254 1133 C 1214 1177 1163 1211 1100 1235 C 1036 1258 959 1270 868 1270 C 776 1270 699 1258 636 1235 C 572 1211 521 1177 482 1133 C 442 1089 414 1035 396 971 C 378 907 369 836 369 756 C 369 674 378 602 396 538 C 414 474 442 420 482 376 C 521 332 572 298 636 275 C 699 251 776 240 868 240 Z M 399 1729 C 449 1790 502 1839 557 1876 C 611 1912 666 1931 721 1931 C 756 1931 786 1925 811 1914 C 835 1903 858 1891 879 1878 C 899 1864 919 1852 939 1841 C 958 1830 980 1825 1004 1825 C 1052 1825 1107 1864 1171 1942 L 1331 1812 C 1305 1780 1279 1752 1253 1726 C 1227 1700 1200 1678 1173 1660 C 1146 1642 1119 1627 1091 1617 C 1063 1607 1036 1602 1010 1602 C 976 1602 946 1607 922 1618 C 897 1629 874 1641 853 1655 C 832 1668 812 1680 792 1691 C 772 1702 749 1708 725 1708 C 702 1708 677 1699 649 1682 C 621 1664 592 1636 561 1597 L 399 1729 Z" unicode="" />
<glyph horiz-adv-x="1737" d="M 512 1874 L 766 1874 L 766 1610 L 512 1610 L 512 1874 Z M 969 1874 L 1221 1874 L 1221 1610 L 969 1610 L 969 1874 Z M 868 -25 C 746 -25 637 -10 539 18 C 441 46 358 92 290 155 C 221 218 168 299 131 399 C 94 498 76 618 76 760 C 76 900 94 1020 131 1119 C 168 1218 221 1299 290 1362 C 358 1424 441 1470 539 1499 C 637 1527 746 1542 868 1542 C 988 1542 1098 1527 1196 1499 C 1294 1470 1377 1424 1447 1362 C 1516 1299 1569 1218 1607 1119 C 1644 1020 1663 900 1663 760 C 1663 618 1644 498 1607 399 C 1569 299 1516 218 1447 155 C 1377 92 1294 46 1196 18 C 1098 -10 988 -25 868 -25 Z M 868 240 C 959 240 1036 251 1100 275 C 1163 298 1214 332 1254 376 C 1294 420 1323 474 1341 538 C 1359 602 1368 674 1368 756 C 1368 836 1359 907 1341 971 C 1323 1035 1294 1089 1254 1133 C 1214 1177 1163 1211 1100 1235 C 1036 1258 959 1270 868 1270 C 776 1270 699 1258 636 1235 C 572 1211 521 1177 482 1133 C 442 1089 414 1035 396 971 C 378 907 369 836 369 756 C 369 674 378 602 396 538 C 414 474 442 420 482 376 C 521 332 572 298 636 275 C 699 251 776 240 868 240 Z" unicode="" />
<glyph horiz-adv-x="1466" d="M 252 412 L 561 721 L 252 1032 L 424 1208 L 735 899 L 1042 1208 L 1214 1032 L 905 721 L 1214 414 L 1042 236 L 735 547 L 422 236 L 252 412 Z" unicode="" />
<glyph horiz-adv-x="1737" d="M 868 -25 C 811 -25 757 -22 707 -16 C 656 -10 608 -1 563 10 L 508 -84 L 233 -84 L 346 109 C 258 169 191 252 145 358 C 99 464 76 598 76 760 C 76 900 94 1020 130 1119 C 166 1218 219 1299 287 1362 C 355 1424 438 1470 536 1499 C 634 1527 744 1542 868 1542 C 922 1542 973 1539 1022 1533 C 1070 1527 1117 1519 1161 1509 L 1217 1604 L 1489 1604 L 1380 1417 C 1470 1356 1540 1272 1589 1165 C 1638 1057 1663 922 1663 760 C 1663 618 1644 498 1608 399 C 1571 299 1518 218 1450 155 C 1382 92 1298 46 1200 18 C 1102 -10 991 -25 868 -25 Z M 868 229 C 963 229 1043 241 1108 265 C 1173 289 1226 323 1266 369 C 1306 415 1334 470 1352 535 C 1369 600 1378 674 1378 756 C 1378 849 1366 931 1343 1002 C 1319 1073 1281 1132 1227 1178 L 688 248 C 713 242 741 237 771 234 C 801 230 834 229 868 229 Z M 358 756 C 358 664 368 583 389 514 C 410 444 446 387 496 342 L 1030 1266 C 1006 1271 981 1275 954 1277 C 926 1279 898 1280 868 1280 C 772 1280 692 1268 627 1244 C 562 1220 510 1185 470 1140 C 430 1094 401 1039 384 975 C 366 910 358 837 358 756 Z" unicode="" />
<glyph horiz-adv-x="1653" d="M 825 -29 C 723 -29 635 -20 562 -4 C 488 11 427 34 377 62 C 327 90 287 124 257 162 C 227 200 204 242 188 287 C 172 331 162 378 157 427 C 152 475 150 524 150 573 L 150 1518 L 440 1518 L 440 610 C 440 552 445 500 455 454 C 465 408 484 369 512 337 C 540 305 580 280 631 263 C 681 246 747 238 829 238 C 910 238 976 246 1027 262 C 1078 278 1118 302 1147 334 C 1175 366 1195 405 1205 451 C 1215 497 1221 550 1221 610 L 1221 1518 L 1505 1518 L 1505 573 C 1505 524 1502 475 1497 427 C 1492 378 1481 331 1465 287 C 1449 242 1425 200 1395 162 C 1365 124 1324 90 1274 62 C 1224 34 1162 11 1089 -4 C 1015 -20 927 -29 825 -29 Z M 389 1964 L 727 1964 L 1022 1602 L 770 1602 L 389 1964 Z" unicode="" />
<glyph horiz-adv-x="1653" d="M 920 1964 L 1257 1964 L 877 1602 L 627 1602 L 920 1964 Z M 825 -29 C 723 -29 635 -20 562 -4 C 488 11 427 34 377 62 C 327 90 287 124 257 162 C 227 200 204 242 188 287 C 172 331 162 378 157 427 C 152 475 150 524 150 573 L 150 1518 L 440 1518 L 440 610 C 440 552 445 500 455 454 C 465 408 484 369 512 337 C 540 305 580 280 631 263 C 681 246 747 238 829 238 C 910 238 976 246 1027 262 C 1078 278 1118 302 1147 334 C 1175 366 1195 405 1205 451 C 1215 497 1221 550 1221 610 L 1221 1518 L 1505 1518 L 1505 573 C 1505 524 1502 475 1497 427 C 1492 378 1481 331 1465 287 C 1449 242 1425 200 1395 162 C 1365 124 1324 90 1274 62 C 1224 34 1162 11 1089 -4 C 1015 -20 927 -29 825 -29 Z" unicode="" />
<glyph horiz-adv-x="1653" d="M 678 1964 L 969 1964 L 1286 1602 L 1022 1602 L 819 1788 L 621 1602 L 360 1602 L 678 1964 Z M 825 -29 C 723 -29 635 -20 562 -4 C 488 11 427 34 377 62 C 327 90 287 124 257 162 C 227 200 204 242 188 287 C 172 331 162 378 157 427 C 152 475 150 524 150 573 L 150 1518 L 440 1518 L 440 610 C 440 552 445 500 455 454 C 465 408 484 369 512 337 C 540 305 580 280 631 263 C 681 246 747 238 829 238 C 910 238 976 246 1027 262 C 1078 278 1118 302 1147 334 C 1175 366 1195 405 1205 451 C 1215 497 1221 550 1221 610 L 1221 1518 L 1505 1518 L 1505 573 C 1505 524 1502 475 1497 427 C 1492 378 1481 331 1465 287 C 1449 242 1425 200 1395 162 C 1365 124 1324 90 1274 62 C 1224 34 1162 11 1089 -4 C 1015 -20 927 -29 825 -29 Z" unicode="" />
<glyph horiz-adv-x="1653" d="M 469 1874 L 723 1874 L 723 1610 L 469 1610 L 469 1874 Z M 926 1874 L 1178 1874 L 1178 1610 L 926 1610 L 926 1874 Z M 825 -29 C 723 -29 635 -20 562 -4 C 488 11 427 34 377 62 C 327 90 287 124 257 162 C 227 200 204 242 188 287 C 172 331 162 378 157 427 C 152 475 150 524 150 573 L 150 1518 L 440 1518 L 440 610 C 440 552 445 500 455 454 C 465 408 484 369 512 337 C 540 305 580 280 631 263 C 681 246 747 238 829 238 C 910 238 976 246 1027 262 C 1078 278 1118 302 1147 334 C 1175 366 1195 405 1205 451 C 1215 497 1221 550 1221 610 L 1221 1518 L 1505 1518 L 1505 573 C 1505 524 1502 475 1497 427 C 1492 378 1481 331 1465 287 C 1449 242 1425 200 1395 162 C 1365 124 1324 90 1274 62 C 1224 34 1162 11 1089 -4 C 1015 -20 927 -29 825 -29 Z" unicode="" />
<glyph horiz-adv-x="1526" d="M 618 545 L 12 1518 L 326 1518 L 768 809 L 1212 1518 L 1513 1518 L 907 547 L 907 0 L 618 0 L 618 545 Z M 856 1964 L 1194 1964 L 813 1602 L 563 1602 L 856 1964 Z" unicode="" />
<glyph horiz-adv-x="1530" d="M 160 1518 L 444 1518 L 444 1305 L 872 1305 C 988 1305 1084 1293 1160 1271 C 1235 1248 1294 1215 1338 1172 C 1381 1129 1411 1077 1428 1015 C 1445 953 1454 883 1454 805 C 1454 727 1445 655 1429 591 C 1413 526 1383 470 1339 424 C 1295 377 1234 341 1157 315 C 1079 289 980 276 858 276 L 444 276 L 444 0 L 160 0 L 160 1518 Z M 870 535 C 924 535 969 539 1006 549 C 1043 558 1073 573 1097 594 C 1120 614 1137 641 1147 674 C 1157 707 1163 747 1163 795 C 1163 843 1158 884 1148 916 C 1138 948 1121 974 1098 994 C 1075 1014 1045 1028 1007 1036 C 969 1044 922 1049 866 1049 L 444 1049 L 444 535 L 870 535 Z" unicode="" />
<glyph horiz-adv-x="1399" d="M 135 1073 C 135 1119 138 1164 144 1208 C 150 1252 162 1293 178 1333 C 194 1372 215 1408 243 1441 C 270 1474 304 1503 346 1527 C 387 1551 436 1570 494 1584 C 552 1597 619 1604 696 1604 C 872 1604 1002 1568 1086 1498 C 1170 1428 1212 1326 1212 1194 C 1212 1140 1208 1094 1201 1055 C 1193 1016 1182 982 1166 954 C 1150 925 1131 901 1107 882 C 1083 863 1056 847 1024 834 C 1074 824 1118 811 1156 793 C 1194 775 1226 751 1252 721 C 1278 691 1297 653 1311 608 C 1324 563 1331 509 1331 446 C 1331 370 1322 304 1306 248 C 1290 192 1259 146 1214 109 C 1168 72 1105 45 1024 27 C 942 9 837 0 707 0 L 582 0 L 582 244 L 698 244 C 776 244 838 249 885 260 C 932 270 968 285 993 305 C 1018 324 1035 347 1043 375 C 1051 402 1055 433 1055 467 C 1055 505 1049 538 1037 565 C 1025 592 1004 614 974 631 C 943 647 901 659 848 667 C 794 674 726 678 643 678 L 643 903 C 699 903 745 907 783 915 C 820 923 850 936 873 954 C 895 972 911 994 921 1022 C 931 1049 936 1082 936 1120 C 936 1154 931 1183 923 1209 C 914 1235 900 1256 881 1274 C 861 1291 836 1304 805 1313 C 773 1322 735 1327 690 1327 C 640 1327 598 1321 563 1310 C 527 1298 498 1282 476 1260 C 454 1238 437 1210 427 1177 C 417 1144 412 1106 412 1063 L 412 0 L 135 0 L 135 1073 Z" unicode="" />
<glyph horiz-adv-x="1309" d="M 487 -20 C 399 -20 328 -10 273 7 C 218 25 175 51 143 83 C 111 115 90 152 78 196 C 66 239 61 286 61 336 C 61 417 74 484 102 538 C 129 591 172 633 232 664 C 291 695 368 717 463 729 C 557 741 672 748 807 748 L 860 748 C 858 778 855 804 849 826 C 843 848 831 867 814 882 C 796 897 771 908 739 916 C 707 924 664 928 610 928 C 574 928 540 925 508 919 C 476 913 445 905 417 895 C 388 885 362 875 338 864 C 314 852 294 841 276 831 L 135 1042 C 155 1056 181 1071 215 1087 C 249 1103 288 1118 332 1132 C 376 1146 424 1157 476 1166 C 528 1175 583 1180 641 1180 C 743 1180 825 1171 889 1154 C 952 1136 1001 1109 1037 1072 C 1073 1035 1097 988 1109 930 C 1121 872 1128 802 1128 721 L 1128 352 C 1128 327 1129 307 1131 292 C 1133 277 1137 266 1144 258 C 1151 250 1162 244 1176 242 C 1190 239 1209 238 1233 238 L 1233 4 C 1223 0 1209 -1 1191 -2 C 1172 -3 1147 -4 1116 -4 C 1086 -4 1060 -2 1038 1 C 1016 4 996 10 980 19 C 963 28 949 40 937 56 C 925 71 914 91 905 115 C 873 73 824 40 758 16 C 691 -8 601 -20 487 -20 Z M 541 213 C 652 213 733 234 784 278 C 834 321 860 391 860 487 L 860 539 L 825 539 C 753 539 690 537 638 535 C 586 533 541 529 505 523 C 468 517 438 510 415 501 C 392 491 374 480 361 467 C 348 453 339 438 335 420 C 330 402 328 381 328 358 C 328 334 331 313 338 295 C 344 277 356 261 372 249 C 388 237 410 228 438 222 C 465 216 499 213 541 213 Z M 221 1628 L 559 1628 L 854 1266 L 602 1266 L 221 1628 Z" unicode="" />
<glyph horiz-adv-x="1309" d="M 487 -20 C 399 -20 328 -10 273 7 C 218 25 175 51 143 83 C 111 115 90 152 78 196 C 66 239 61 286 61 336 C 61 417 74 484 102 538 C 129 591 172 633 232 664 C 291 695 368 717 463 729 C 557 741 672 748 807 748 L 860 748 C 858 778 855 804 849 826 C 843 848 831 867 814 882 C 796 897 771 908 739 916 C 707 924 664 928 610 928 C 574 928 540 925 508 919 C 476 913 445 905 417 895 C 388 885 362 875 338 864 C 314 852 294 841 276 831 L 135 1042 C 155 1056 181 1071 215 1087 C 249 1103 288 1118 332 1132 C 376 1146 424 1157 476 1166 C 528 1175 583 1180 641 1180 C 743 1180 825 1171 889 1154 C 952 1136 1001 1109 1037 1072 C 1073 1035 1097 988 1109 930 C 1121 872 1128 802 1128 721 L 1128 352 C 1128 327 1129 307 1131 292 C 1133 277 1137 266 1144 258 C 1151 250 1162 244 1176 242 C 1190 239 1209 238 1233 238 L 1233 4 C 1223 0 1209 -1 1191 -2 C 1172 -3 1147 -4 1116 -4 C 1086 -4 1060 -2 1038 1 C 1016 4 996 10 980 19 C 963 28 949 40 937 56 C 925 71 914 91 905 115 C 873 73 824 40 758 16 C 691 -8 601 -20 487 -20 Z M 541 213 C 652 213 733 234 784 278 C 834 321 860 391 860 487 L 860 539 L 825 539 C 753 539 690 537 638 535 C 586 533 541 529 505 523 C 468 517 438 510 415 501 C 392 491 374 480 361 467 C 348 453 339 438 335 420 C 330 402 328 381 328 358 C 328 334 331 313 338 295 C 344 277 356 261 372 249 C 388 237 410 228 438 222 C 465 216 499 213 541 213 Z M 752 1628 L 1090 1628 L 709 1266 L 459 1266 L 752 1628 Z" unicode="" />
<glyph horiz-adv-x="1309" d="M 487 -20 C 399 -20 328 -10 273 7 C 218 25 175 51 143 83 C 111 115 90 152 78 196 C 66 239 61 286 61 336 C 61 417 74 484 102 538 C 129 591 172 633 232 664 C 291 695 368 717 463 729 C 557 741 672 748 807 748 L 860 748 C 858 778 855 804 849 826 C 843 848 831 867 814 882 C 796 897 771 908 739 916 C 707 924 664 928 610 928 C 574 928 540 925 508 919 C 476 913 445 905 417 895 C 388 885 362 875 338 864 C 314 852 294 841 276 831 L 135 1042 C 155 1056 181 1071 215 1087 C 249 1103 288 1118 332 1132 C 376 1146 424 1157 476 1166 C 528 1175 583 1180 641 1180 C 743 1180 825 1171 889 1154 C 952 1136 1001 1109 1037 1072 C 1073 1035 1097 988 1109 930 C 1121 872 1128 802 1128 721 L 1128 352 C 1128 327 1129 307 1131 292 C 1133 277 1137 266 1144 258 C 1151 250 1162 244 1176 242 C 1190 239 1209 238 1233 238 L 1233 4 C 1223 0 1209 -1 1191 -2 C 1172 -3 1147 -4 1116 -4 C 1086 -4 1060 -2 1038 1 C 1016 4 996 10 980 19 C 963 28 949 40 937 56 C 925 71 914 91 905 115 C 873 73 824 40 758 16 C 691 -8 601 -20 487 -20 Z M 541 213 C 652 213 733 234 784 278 C 834 321 860 391 860 487 L 860 539 L 825 539 C 753 539 690 537 638 535 C 586 533 541 529 505 523 C 468 517 438 510 415 501 C 392 491 374 480 361 467 C 348 453 339 438 335 420 C 330 402 328 381 328 358 C 328 334 331 313 338 295 C 344 277 356 261 372 249 C 388 237 410 228 438 222 C 465 216 499 213 541 213 Z M 510 1628 L 801 1628 L 1118 1266 L 854 1266 L 651 1452 L 453 1266 L 193 1266 L 510 1628 Z" unicode="" />
<glyph horiz-adv-x="1309" d="M 487 -20 C 399 -20 328 -10 273 7 C 218 25 175 51 143 83 C 111 115 90 152 78 196 C 66 239 61 286 61 336 C 61 417 74 484 102 538 C 129 591 172 633 232 664 C 291 695 368 717 463 729 C 557 741 672 748 807 748 L 860 748 C 858 778 855 804 849 826 C 843 848 831 867 814 882 C 796 897 771 908 739 916 C 707 924 664 928 610 928 C 574 928 540 925 508 919 C 476 913 445 905 417 895 C 388 885 362 875 338 864 C 314 852 294 841 276 831 L 135 1042 C 155 1056 181 1071 215 1087 C 249 1103 288 1118 332 1132 C 376 1146 424 1157 476 1166 C 528 1175 583 1180 641 1180 C 743 1180 825 1171 889 1154 C 952 1136 1001 1109 1037 1072 C 1073 1035 1097 988 1109 930 C 1121 872 1128 802 1128 721 L 1128 352 C 1128 327 1129 307 1131 292 C 1133 277 1137 266 1144 258 C 1151 250 1162 244 1176 242 C 1190 239 1209 238 1233 238 L 1233 4 C 1223 0 1209 -1 1191 -2 C 1172 -3 1147 -4 1116 -4 C 1086 -4 1060 -2 1038 1 C 1016 4 996 10 980 19 C 963 28 949 40 937 56 C 925 71 914 91 905 115 C 873 73 824 40 758 16 C 691 -8 601 -20 487 -20 Z M 541 213 C 652 213 733 234 784 278 C 834 321 860 391 860 487 L 860 539 L 825 539 C 753 539 690 537 638 535 C 586 533 541 529 505 523 C 468 517 438 510 415 501 C 392 491 374 480 361 467 C 348 453 339 438 335 420 C 330 402 328 381 328 358 C 328 334 331 313 338 295 C 344 277 356 261 372 249 C 388 237 410 228 438 222 C 465 216 499 213 541 213 Z M 188 1393 C 238 1455 291 1504 346 1540 C 400 1576 455 1595 510 1595 C 545 1595 575 1589 600 1578 C 624 1567 647 1555 668 1542 C 688 1528 708 1516 728 1505 C 747 1494 769 1489 793 1489 C 841 1489 897 1528 961 1606 L 1120 1477 C 1094 1445 1068 1417 1042 1391 C 1016 1365 989 1342 962 1324 C 935 1306 908 1291 880 1281 C 852 1271 825 1266 799 1266 C 765 1266 735 1271 711 1282 C 686 1293 663 1305 642 1319 C 621 1332 601 1344 581 1355 C 561 1366 538 1372 514 1372 C 491 1372 466 1363 438 1346 C 410 1328 381 1300 350 1262 L 188 1393 Z" unicode="" />
<glyph horiz-adv-x="1309" d="M 487 -20 C 399 -20 328 -10 273 7 C 218 25 175 51 143 83 C 111 115 90 152 78 196 C 66 239 61 286 61 336 C 61 417 74 484 102 538 C 129 591 172 633 232 664 C 291 695 368 717 463 729 C 557 741 672 748 807 748 L 860 748 C 858 778 855 804 849 826 C 843 848 831 867 814 882 C 796 897 771 908 739 916 C 707 924 664 928 610 928 C 574 928 540 925 508 919 C 476 913 445 905 417 895 C 388 885 362 875 338 864 C 314 852 294 841 276 831 L 135 1042 C 155 1056 181 1071 215 1087 C 249 1103 288 1118 332 1132 C 376 1146 424 1157 476 1166 C 528 1175 583 1180 641 1180 C 743 1180 825 1171 889 1154 C 952 1136 1001 1109 1037 1072 C 1073 1035 1097 988 1109 930 C 1121 872 1128 802 1128 721 L 1128 352 C 1128 327 1129 307 1131 292 C 1133 277 1137 266 1144 258 C 1151 250 1162 244 1176 242 C 1190 239 1209 238 1233 238 L 1233 4 C 1223 0 1209 -1 1191 -2 C 1172 -3 1147 -4 1116 -4 C 1086 -4 1060 -2 1038 1 C 1016 4 996 10 980 19 C 963 28 949 40 937 56 C 925 71 914 91 905 115 C 873 73 824 40 758 16 C 691 -8 601 -20 487 -20 Z M 541 213 C 652 213 733 234 784 278 C 834 321 860 391 860 487 L 860 539 L 825 539 C 753 539 690 537 638 535 C 586 533 541 529 505 523 C 468 517 438 510 415 501 C 392 491 374 480 361 467 C 348 453 339 438 335 420 C 330 402 328 381 328 358 C 328 334 331 313 338 295 C 344 277 356 261 372 249 C 388 237 410 228 438 222 C 465 216 499 213 541 213 Z M 301 1538 L 555 1538 L 555 1274 L 301 1274 L 301 1538 Z M 758 1538 L 1010 1538 L 1010 1274 L 758 1274 L 758 1538 Z" unicode="" />
<glyph horiz-adv-x="1309" d="M 487 -20 C 399 -20 328 -10 273 7 C 218 25 175 51 143 83 C 111 115 90 152 78 196 C 66 239 61 286 61 336 C 61 417 74 484 102 538 C 129 591 172 633 232 664 C 291 695 368 717 463 729 C 557 741 672 748 807 748 L 860 748 C 858 778 855 804 849 826 C 843 848 831 867 814 882 C 796 897 771 908 739 916 C 707 924 664 928 610 928 C 574 928 540 925 508 919 C 476 913 445 905 417 895 C 388 885 362 875 338 864 C 314 852 294 841 276 831 L 135 1042 C 155 1056 181 1071 215 1087 C 249 1103 288 1118 332 1132 C 376 1146 424 1157 476 1166 C 528 1175 583 1180 641 1180 C 743 1180 825 1171 889 1154 C 952 1136 1001 1109 1037 1072 C 1073 1035 1097 988 1109 930 C 1121 872 1128 802 1128 721 L 1128 352 C 1128 327 1129 307 1131 292 C 1133 277 1137 266 1144 258 C 1151 250 1162 244 1176 242 C 1190 239 1209 238 1233 238 L 1233 4 C 1223 0 1209 -1 1191 -2 C 1172 -3 1147 -4 1116 -4 C 1086 -4 1060 -2 1038 1 C 1016 4 996 10 980 19 C 963 28 949 40 937 56 C 925 71 914 91 905 115 C 873 73 824 40 758 16 C 691 -8 601 -20 487 -20 Z M 541 213 C 652 213 733 234 784 278 C 834 321 860 391 860 487 L 860 539 L 825 539 C 753 539 690 537 638 535 C 586 533 541 529 505 523 C 468 517 438 510 415 501 C 392 491 374 480 361 467 C 348 453 339 438 335 420 C 330 402 328 381 328 358 C 328 334 331 313 338 295 C 344 277 356 261 372 249 C 388 237 410 228 438 222 C 465 216 499 213 541 213 Z M 655 1235 C 605 1235 563 1242 528 1257 C 492 1271 463 1291 441 1317 C 418 1343 401 1373 391 1408 C 380 1443 375 1481 375 1522 C 375 1562 380 1600 391 1636 C 401 1671 418 1702 441 1728 C 463 1754 492 1774 528 1789 C 563 1804 605 1812 655 1812 C 703 1812 744 1804 779 1789 C 814 1774 843 1754 867 1728 C 890 1702 907 1671 919 1636 C 930 1600 936 1562 936 1522 C 936 1481 930 1443 919 1408 C 907 1373 890 1343 867 1317 C 843 1291 814 1271 779 1257 C 744 1242 703 1235 655 1235 Z M 655 1378 C 679 1378 700 1381 718 1389 C 736 1396 750 1406 761 1419 C 772 1432 780 1447 785 1465 C 790 1483 793 1502 793 1522 C 793 1542 790 1561 785 1579 C 780 1597 772 1612 761 1625 C 750 1638 736 1648 718 1656 C 700 1663 679 1667 655 1667 C 629 1667 608 1663 591 1656 C 573 1648 559 1638 549 1625 C 538 1612 530 1597 525 1579 C 520 1561 518 1542 518 1522 C 518 1502 520 1483 525 1465 C 530 1447 538 1432 549 1419 C 559 1406 573 1396 591 1389 C 608 1381 629 1378 655 1378 Z" unicode="" />
<glyph horiz-adv-x="2023" d="M 1438 -23 C 1374 -23 1318 -18 1268 -10 C 1218 -1 1173 11 1135 27 C 1097 43 1064 62 1036 84 C 1008 106 985 132 967 160 C 942 120 914 88 882 64 C 850 40 815 22 775 10 C 735 -2 692 -10 645 -14 C 597 -18 545 -20 489 -20 C 405 -20 336 -11 281 5 C 226 21 182 45 150 76 C 117 106 94 144 81 188 C 67 232 61 281 61 336 C 61 417 75 484 103 538 C 131 591 176 633 236 664 C 296 695 373 717 467 729 C 561 741 675 748 807 748 L 860 748 C 858 778 855 804 849 826 C 843 848 831 867 814 882 C 796 897 771 908 739 916 C 707 924 664 928 610 928 C 574 928 540 925 508 919 C 475 913 444 906 415 897 C 386 888 360 878 336 867 C 312 855 291 844 274 834 L 135 1042 C 155 1056 181 1071 215 1087 C 249 1103 288 1118 332 1132 C 376 1146 424 1157 476 1166 C 528 1175 583 1180 641 1180 C 692 1180 738 1177 778 1171 C 818 1165 853 1157 884 1147 C 914 1137 940 1124 962 1108 C 984 1092 1002 1075 1018 1055 C 1060 1093 1114 1124 1181 1146 C 1248 1168 1332 1180 1434 1180 C 1518 1180 1589 1171 1647 1153 C 1705 1135 1754 1110 1792 1078 C 1830 1046 1859 1008 1880 964 C 1900 920 1915 871 1924 818 C 1933 765 1938 709 1939 650 C 1939 590 1939 529 1937 467 L 1118 467 C 1122 427 1131 391 1143 359 C 1155 327 1174 301 1198 279 C 1222 257 1254 240 1293 228 C 1331 216 1380 211 1438 211 C 1482 211 1522 213 1558 219 C 1593 224 1625 231 1654 241 C 1682 251 1708 262 1732 275 C 1756 288 1778 303 1800 319 L 1946 131 C 1910 104 1875 81 1840 62 C 1804 42 1767 26 1727 14 C 1687 1 1643 -8 1596 -14 C 1548 -20 1496 -23 1438 -23 Z M 541 213 C 597 213 645 218 685 229 C 725 239 759 256 785 278 C 811 300 830 328 842 363 C 854 397 860 439 860 487 L 860 539 L 825 539 C 719 539 633 536 568 531 C 503 525 453 516 417 502 C 381 488 358 470 346 447 C 334 423 328 394 328 358 C 328 334 331 313 337 295 C 343 277 355 261 371 249 C 387 237 408 228 436 222 C 463 216 498 213 541 213 Z M 1427 940 C 1372 940 1326 934 1289 922 C 1252 910 1222 892 1198 870 C 1174 848 1157 821 1145 789 C 1133 757 1124 722 1120 684 L 1679 684 C 1677 721 1673 755 1668 787 C 1663 818 1652 845 1636 868 C 1619 890 1594 908 1562 921 C 1529 933 1484 940 1427 940 Z" unicode="" />
<glyph horiz-adv-x="1190" d="M 600 -500 C 544 -500 494 -493 452 -481 C 409 -469 370 -453 334 -434 L 406 -299 C 436 -313 466 -325 498 -333 C 529 -341 560 -346 590 -346 C 616 -346 638 -344 656 -340 C 673 -336 687 -331 697 -324 C 707 -316 715 -307 719 -296 C 723 -285 725 -272 725 -258 C 725 -222 709 -199 677 -190 C 645 -180 601 -178 543 -182 L 485 -143 L 514 -10 C 428 2 357 26 301 60 C 245 94 200 137 168 189 C 135 241 112 300 99 366 C 86 432 80 503 80 580 C 80 636 83 690 90 742 C 97 794 109 842 126 886 C 143 930 166 971 195 1007 C 224 1043 260 1074 304 1100 C 348 1125 400 1145 460 1159 C 520 1173 591 1180 672 1180 C 776 1180 865 1163 939 1131 C 1013 1098 1076 1053 1126 997 L 928 809 C 915 821 901 834 886 847 C 870 860 852 872 832 882 C 812 892 788 901 762 908 C 736 914 706 918 672 918 C 610 918 559 909 519 893 C 479 877 447 854 423 824 C 399 794 383 757 374 715 C 364 672 360 624 360 571 C 360 518 364 470 373 427 C 382 384 398 347 422 317 C 446 287 478 263 518 247 C 558 231 610 223 674 223 C 702 223 727 225 751 229 C 775 233 797 240 819 250 C 840 259 861 271 881 285 C 901 299 921 316 942 336 L 1124 162 C 1092 132 1060 105 1030 83 C 999 61 966 42 931 27 C 895 12 857 1 815 -7 C 773 -15 726 -19 672 -20 L 659 -88 C 691 -87 722 -88 752 -90 C 782 -92 808 -100 832 -113 C 856 -125 875 -144 889 -170 C 903 -196 911 -231 911 -276 C 911 -316 904 -351 890 -379 C 876 -407 856 -431 830 -449 C 803 -467 770 -480 732 -488 C 694 -496 650 -500 600 -500 Z" unicode="" />
<glyph horiz-adv-x="1255" d="M 668 -23 C 586 -23 515 -15 454 -1 C 393 13 341 34 297 60 C 253 86 218 117 190 154 C 162 191 139 232 123 277 C 107 321 95 369 89 420 C 83 471 80 524 80 580 C 80 634 83 686 90 736 C 96 786 108 834 125 879 C 141 923 164 964 192 1001 C 220 1037 256 1069 300 1096 C 343 1122 395 1143 455 1158 C 515 1172 585 1180 666 1180 C 748 1180 818 1171 876 1153 C 933 1135 980 1110 1018 1078 C 1056 1046 1085 1008 1106 964 C 1127 920 1142 871 1152 818 C 1162 765 1167 709 1169 650 C 1170 590 1170 529 1169 467 L 350 467 C 354 427 363 391 375 359 C 387 327 405 301 429 279 C 453 257 484 240 523 228 C 561 216 610 211 668 211 C 712 211 752 213 788 219 C 823 224 855 231 884 241 C 912 251 938 262 962 275 C 986 288 1008 303 1030 319 L 1176 131 C 1140 104 1104 81 1068 62 C 1032 42 993 26 953 14 C 912 1 868 -8 822 -14 C 775 -20 724 -23 668 -23 Z M 657 940 C 602 940 556 934 519 922 C 482 910 452 893 428 871 C 404 849 387 822 375 791 C 363 759 354 724 350 686 L 909 686 C 907 722 903 756 897 788 C 891 819 880 846 863 868 C 846 890 821 908 789 921 C 756 933 712 940 657 940 Z M 190 1628 L 528 1628 L 823 1266 L 571 1266 L 190 1628 Z" unicode="" />
<glyph horiz-adv-x="1255" d="M 721 1628 L 1059 1628 L 678 1266 L 428 1266 L 721 1628 Z M 668 -23 C 586 -23 515 -15 454 -1 C 393 13 341 34 297 60 C 253 86 218 117 190 154 C 162 191 139 232 123 277 C 107 321 95 369 89 420 C 83 471 80 524 80 580 C 80 634 83 686 90 736 C 96 786 108 834 125 879 C 141 923 164 964 192 1001 C 220 1037 256 1069 300 1096 C 343 1122 395 1143 455 1158 C 515 1172 585 1180 666 1180 C 748 1180 818 1171 876 1153 C 933 1135 980 1110 1018 1078 C 1056 1046 1085 1008 1106 964 C 1127 920 1142 871 1152 818 C 1162 765 1167 709 1169 650 C 1170 590 1170 529 1169 467 L 350 467 C 354 427 363 391 375 359 C 387 327 405 301 429 279 C 453 257 484 240 523 228 C 561 216 610 211 668 211 C 712 211 752 213 788 219 C 823 224 855 231 884 241 C 912 251 938 262 962 275 C 986 288 1008 303 1030 319 L 1176 131 C 1140 104 1104 81 1068 62 C 1032 42 993 26 953 14 C 912 1 868 -8 822 -14 C 775 -20 724 -23 668 -23 Z M 657 940 C 602 940 556 934 519 922 C 482 910 452 893 428 871 C 404 849 387 822 375 791 C 363 759 354 724 350 686 L 909 686 C 907 722 903 756 897 788 C 891 819 880 846 863 868 C 846 890 821 908 789 921 C 756 933 712 940 657 940 Z" unicode="" />
<glyph horiz-adv-x="1255" d="M 479 1628 L 770 1628 L 1087 1266 L 823 1266 L 621 1452 L 422 1266 L 162 1266 L 479 1628 Z M 668 -23 C 586 -23 515 -15 454 -1 C 393 13 341 34 297 60 C 253 86 218 117 190 154 C 162 191 139 232 123 277 C 107 321 95 369 89 420 C 83 471 80 524 80 580 C 80 634 83 686 90 736 C 96 786 108 834 125 879 C 141 923 164 964 192 1001 C 220 1037 256 1069 300 1096 C 343 1122 395 1143 455 1158 C 515 1172 585 1180 666 1180 C 748 1180 818 1171 876 1153 C 933 1135 980 1110 1018 1078 C 1056 1046 1085 1008 1106 964 C 1127 920 1142 871 1152 818 C 1162 765 1167 709 1169 650 C 1170 590 1170 529 1169 467 L 350 467 C 354 427 363 391 375 359 C 387 327 405 301 429 279 C 453 257 484 240 523 228 C 561 216 610 211 668 211 C 712 211 752 213 788 219 C 823 224 855 231 884 241 C 912 251 938 262 962 275 C 986 288 1008 303 1030 319 L 1176 131 C 1140 104 1104 81 1068 62 C 1032 42 993 26 953 14 C 912 1 868 -8 822 -14 C 775 -20 724 -23 668 -23 Z M 657 940 C 602 940 556 934 519 922 C 482 910 452 893 428 871 C 404 849 387 822 375 791 C 363 759 354 724 350 686 L 909 686 C 907 722 903 756 897 788 C 891 819 880 846 863 868 C 846 890 821 908 789 921 C 756 933 712 940 657 940 Z" unicode="" />
<glyph horiz-adv-x="1255" d="M 270 1538 L 524 1538 L 524 1274 L 270 1274 L 270 1538 Z M 727 1538 L 979 1538 L 979 1274 L 727 1274 L 727 1538 Z M 668 -23 C 586 -23 515 -15 454 -1 C 393 13 341 34 297 60 C 253 86 218 117 190 154 C 162 191 139 232 123 277 C 107 321 95 369 89 420 C 83 471 80 524 80 580 C 80 634 83 686 90 736 C 96 786 108 834 125 879 C 141 923 164 964 192 1001 C 220 1037 256 1069 300 1096 C 343 1122 395 1143 455 1158 C 515 1172 585 1180 666 1180 C 748 1180 818 1171 876 1153 C 933 1135 980 1110 1018 1078 C 1056 1046 1085 1008 1106 964 C 1127 920 1142 871 1152 818 C 1162 765 1167 709 1169 650 C 1170 590 1170 529 1169 467 L 350 467 C 354 427 363 391 375 359 C 387 327 405 301 429 279 C 453 257 484 240 523 228 C 561 216 610 211 668 211 C 712 211 752 213 788 219 C 823 224 855 231 884 241 C 912 251 938 262 962 275 C 986 288 1008 303 1030 319 L 1176 131 C 1140 104 1104 81 1068 62 C 1032 42 993 26 953 14 C 912 1 868 -8 822 -14 C 775 -20 724 -23 668 -23 Z M 657 940 C 602 940 556 934 519 922 C 482 910 452 893 428 871 C 404 849 387 822 375 791 C 363 759 354 724 350 686 L 909 686 C 907 722 903 756 897 788 C 891 819 880 846 863 868 C 846 890 821 908 789 921 C 756 933 712 940 657 940 Z" unicode="" />
<glyph horiz-adv-x="571" d="M -119 1626 L 221 1626 L 424 1266 L 168 1266 L -119 1626 Z M 147 1153 L 424 1153 L 424 0 L 147 0 L 147 1153 Z" unicode="" />
<glyph horiz-adv-x="571" d="M 350 1626 L 692 1626 L 406 1266 L 152 1266 L 350 1626 Z M 147 1153 L 424 1153 L 424 0 L 147 0 L 147 1153 Z" unicode="" />
<glyph horiz-adv-x="571" d="M 147 1626 L 424 1626 L 684 1266 L 426 1266 L 283 1452 L 137 1266 L -115 1266 L 147 1626 Z M 147 1153 L 424 1153 L 424 0 L 147 0 L 147 1153 Z" unicode="" />
<glyph horiz-adv-x="571" d="M -29 1540 L 199 1540 L 199 1280 L -29 1280 L -29 1540 Z M 375 1540 L 600 1540 L 600 1280 L 375 1280 L 375 1540 Z M 147 1153 L 424 1153 L 424 0 L 147 0 L 147 1153 Z" unicode="" />
<glyph horiz-adv-x="1341" d="M 582 1374 L 715 1403 C 697 1423 679 1445 661 1467 C 642 1489 622 1511 602 1534 L 868 1628 C 894 1604 918 1579 942 1553 C 966 1526 989 1498 1012 1468 L 1284 1528 L 1284 1339 L 1112 1300 C 1158 1206 1194 1103 1221 989 C 1248 875 1262 752 1262 618 C 1262 504 1249 406 1225 325 C 1201 244 1164 178 1115 126 C 1065 74 1003 37 929 13 C 855 -11 768 -23 668 -23 C 561 -23 470 -9 396 17 C 322 44 261 82 214 132 C 167 181 133 240 112 310 C 90 380 80 457 80 543 C 80 623 88 697 105 766 C 121 834 149 894 189 944 C 229 994 281 1033 346 1061 C 411 1089 492 1104 588 1104 C 673 1104 743 1097 798 1083 C 853 1069 896 1046 928 1012 C 919 1046 907 1082 891 1120 C 875 1158 854 1197 829 1239 L 582 1186 L 582 1374 Z M 668 223 C 726 223 774 230 814 245 C 854 260 886 282 910 310 C 934 338 952 372 963 413 C 973 453 979 499 979 551 C 979 603 973 648 963 688 C 952 728 934 761 910 788 C 886 815 854 835 814 849 C 774 863 726 870 668 870 C 611 870 563 863 524 849 C 485 835 453 815 429 788 C 405 761 387 728 376 688 C 365 648 360 603 360 551 C 360 499 365 453 376 413 C 387 372 405 338 429 310 C 453 282 485 260 524 245 C 563 230 611 223 668 223 Z" unicode="" />
<glyph horiz-adv-x="1337" d="M 135 1137 L 352 1153 L 377 1053 C 391 1069 409 1085 431 1101 C 453 1116 481 1129 515 1141 C 548 1153 588 1162 634 1169 C 680 1176 734 1180 797 1180 C 885 1180 956 1168 1010 1145 C 1064 1122 1105 1090 1135 1048 C 1165 1006 1185 955 1195 896 C 1205 837 1210 772 1210 700 L 1210 0 L 932 0 L 932 645 C 932 683 930 719 926 751 C 922 783 912 811 896 835 C 880 858 857 876 826 889 C 794 902 752 909 698 909 C 638 909 589 902 552 888 C 515 874 486 855 466 831 C 446 806 432 776 426 742 C 419 707 416 669 416 627 L 416 0 L 135 0 L 135 1137 Z M 199 1393 C 249 1455 301 1504 356 1540 C 411 1576 466 1595 520 1595 C 555 1595 585 1589 610 1578 C 635 1567 658 1555 678 1542 C 698 1528 718 1516 738 1505 C 757 1494 779 1489 803 1489 C 851 1489 907 1528 971 1606 L 1130 1477 C 1104 1445 1078 1417 1052 1391 C 1026 1365 999 1342 972 1324 C 945 1306 918 1291 891 1281 C 863 1271 836 1266 809 1266 C 775 1266 745 1271 721 1282 C 696 1293 673 1305 652 1319 C 631 1332 611 1344 591 1355 C 571 1366 548 1372 524 1372 C 501 1372 476 1363 448 1346 C 420 1328 391 1300 360 1262 L 199 1393 Z" unicode="" />
<glyph horiz-adv-x="1339" d="M 670 -23 C 564 -23 473 -9 399 16 C 324 42 263 81 216 132 C 168 183 134 246 112 321 C 90 396 80 482 80 580 C 80 677 90 763 112 838 C 134 912 168 975 216 1026 C 263 1076 324 1115 399 1141 C 473 1167 564 1180 670 1180 C 776 1180 867 1167 942 1141 C 1016 1115 1077 1076 1124 1026 C 1171 975 1205 912 1227 838 C 1249 763 1260 677 1260 580 C 1260 482 1249 396 1227 321 C 1205 246 1171 183 1124 132 C 1077 81 1016 42 942 16 C 867 -9 776 -23 670 -23 Z M 670 223 C 729 223 778 231 818 247 C 858 263 889 286 913 316 C 937 346 954 382 964 425 C 974 468 979 517 979 571 C 979 625 974 673 964 717 C 954 760 937 797 913 827 C 889 857 858 880 818 896 C 778 912 729 920 670 920 C 610 920 561 912 521 896 C 481 880 450 857 426 827 C 402 797 385 760 375 717 C 365 673 360 625 360 571 C 360 517 365 468 375 425 C 385 382 402 346 426 316 C 450 286 481 263 521 247 C 561 231 610 223 670 223 Z M 233 1628 L 571 1628 L 866 1266 L 614 1266 L 233 1628 Z" unicode="" />
<glyph horiz-adv-x="1339" d="M 764 1628 L 1102 1628 L 721 1266 L 471 1266 L 764 1628 Z M 670 -23 C 564 -23 473 -9 399 16 C 324 42 263 81 216 132 C 168 183 134 246 112 321 C 90 396 80 482 80 580 C 80 677 90 763 112 838 C 134 912 168 975 216 1026 C 263 1076 324 1115 399 1141 C 473 1167 564 1180 670 1180 C 776 1180 867 1167 942 1141 C 1016 1115 1077 1076 1124 1026 C 1171 975 1205 912 1227 838 C 1249 763 1260 677 1260 580 C 1260 482 1249 396 1227 321 C 1205 246 1171 183 1124 132 C 1077 81 1016 42 942 16 C 867 -9 776 -23 670 -23 Z M 670 223 C 729 223 778 231 818 247 C 858 263 889 286 913 316 C 937 346 954 382 964 425 C 974 468 979 517 979 571 C 979 625 974 673 964 717 C 954 760 937 797 913 827 C 889 857 858 880 818 896 C 778 912 729 920 670 920 C 610 920 561 912 521 896 C 481 880 450 857 426 827 C 402 797 385 760 375 717 C 365 673 360 625 360 571 C 360 517 365 468 375 425 C 385 382 402 346 426 316 C 450 286 481 263 521 247 C 561 231 610 223 670 223 Z" unicode="" />
<glyph horiz-adv-x="1339" d="M 522 1628 L 813 1628 L 1130 1266 L 866 1266 L 664 1452 L 465 1266 L 205 1266 L 522 1628 Z M 670 -23 C 564 -23 473 -9 399 16 C 324 42 263 81 216 132 C 168 183 134 246 112 321 C 90 396 80 482 80 580 C 80 677 90 763 112 838 C 134 912 168 975 216 1026 C 263 1076 324 1115 399 1141 C 473 1167 564 1180 670 1180 C 776 1180 867 1167 942 1141 C 1016 1115 1077 1076 1124 1026 C 1171 975 1205 912 1227 838 C 1249 763 1260 677 1260 580 C 1260 482 1249 396 1227 321 C 1205 246 1171 183 1124 132 C 1077 81 1016 42 942 16 C 867 -9 776 -23 670 -23 Z M 670 223 C 729 223 778 231 818 247 C 858 263 889 286 913 316 C 937 346 954 382 964 425 C 974 468 979 517 979 571 C 979 625 974 673 964 717 C 954 760 937 797 913 827 C 889 857 858 880 818 896 C 778 912 729 920 670 920 C 610 920 561 912 521 896 C 481 880 450 857 426 827 C 402 797 385 760 375 717 C 365 673 360 625 360 571 C 360 517 365 468 375 425 C 385 382 402 346 426 316 C 450 286 481 263 521 247 C 561 231 610 223 670 223 Z" unicode="" />
<glyph horiz-adv-x="1339" d="M 670 -23 C 564 -23 473 -9 399 16 C 324 42 263 81 216 132 C 168 183 134 246 112 321 C 90 396 80 482 80 580 C 80 677 90 763 112 838 C 134 912 168 975 216 1026 C 263 1076 324 1115 399 1141 C 473 1167 564 1180 670 1180 C 776 1180 867 1167 942 1141 C 1016 1115 1077 1076 1124 1026 C 1171 975 1205 912 1227 838 C 1249 763 1260 677 1260 580 C 1260 482 1249 396 1227 321 C 1205 246 1171 183 1124 132 C 1077 81 1016 42 942 16 C 867 -9 776 -23 670 -23 Z M 670 223 C 729 223 778 231 818 247 C 858 263 889 286 913 316 C 937 346 954 382 964 425 C 974 468 979 517 979 571 C 979 625 974 673 964 717 C 954 760 937 797 913 827 C 889 857 858 880 818 896 C 778 912 729 920 670 920 C 610 920 561 912 521 896 C 481 880 450 857 426 827 C 402 797 385 760 375 717 C 365 673 360 625 360 571 C 360 517 365 468 375 425 C 385 382 402 346 426 316 C 450 286 481 263 521 247 C 561 231 610 223 670 223 Z M 201 1393 C 251 1455 303 1504 358 1540 C 413 1576 468 1595 522 1595 C 557 1595 587 1589 612 1578 C 637 1567 660 1555 680 1542 C 700 1528 720 1516 740 1505 C 759 1494 781 1489 805 1489 C 853 1489 909 1528 973 1606 L 1133 1477 C 1107 1445 1081 1417 1055 1391 C 1029 1365 1002 1342 975 1324 C 947 1306 920 1291 893 1281 C 865 1271 838 1266 811 1266 C 777 1266 747 1271 723 1282 C 698 1293 675 1305 654 1319 C 633 1332 613 1344 593 1355 C 573 1366 550 1372 526 1372 C 503 1372 478 1363 450 1346 C 422 1328 393 1300 362 1262 L 201 1393 Z" unicode="" />
<glyph horiz-adv-x="1339" d="M 313 1538 L 567 1538 L 567 1274 L 313 1274 L 313 1538 Z M 770 1538 L 1022 1538 L 1022 1274 L 770 1274 L 770 1538 Z M 670 -23 C 564 -23 473 -9 399 16 C 324 42 263 81 216 132 C 168 183 134 246 112 321 C 90 396 80 482 80 580 C 80 677 90 763 112 838 C 134 912 168 975 216 1026 C 263 1076 324 1115 399 1141 C 473 1167 564 1180 670 1180 C 776 1180 867 1167 942 1141 C 1016 1115 1077 1076 1124 1026 C 1171 975 1205 912 1227 838 C 1249 763 1260 677 1260 580 C 1260 482 1249 396 1227 321 C 1205 246 1171 183 1124 132 C 1077 81 1016 42 942 16 C 867 -9 776 -23 670 -23 Z M 670 223 C 729 223 778 231 818 247 C 858 263 889 286 913 316 C 937 346 954 382 964 425 C 974 468 979 517 979 571 C 979 625 974 673 964 717 C 954 760 937 797 913 827 C 889 857 858 880 818 896 C 778 912 729 920 670 920 C 610 920 561 912 521 896 C 481 880 450 857 426 827 C 402 797 385 760 375 717 C 365 673 360 625 360 571 C 360 517 365 468 375 425 C 385 382 402 346 426 316 C 450 286 481 263 521 247 C 561 231 610 223 670 223 Z" unicode="" />
<glyph horiz-adv-x="1466" d="M 588 432 L 879 432 L 879 176 L 588 176 L 588 432 Z M 199 852 L 1268 852 L 1268 594 L 199 594 L 199 852 Z M 588 1270 L 879 1270 L 879 1012 L 588 1012 L 588 1270 Z" unicode="" />
<glyph horiz-adv-x="1339" d="M 670 -23 C 626 -23 584 -20 546 -16 C 507 -12 471 -6 438 2 L 383 -88 L 131 -88 L 246 96 C 186 148 143 214 118 294 C 92 374 80 469 80 580 C 80 677 90 763 110 838 C 130 912 164 975 210 1026 C 256 1076 317 1115 392 1141 C 467 1167 560 1180 670 1180 C 714 1180 755 1177 793 1173 C 831 1169 866 1163 899 1155 L 956 1245 L 1208 1245 L 1094 1059 C 1153 1008 1195 943 1221 863 C 1247 783 1260 689 1260 580 C 1260 482 1249 396 1229 321 C 1209 246 1175 183 1129 132 C 1083 81 1022 42 947 16 C 871 -9 779 -23 670 -23 Z M 670 215 C 730 215 781 223 821 240 C 861 256 894 280 918 311 C 942 341 960 379 970 423 C 980 467 985 516 985 571 C 985 621 980 667 972 709 C 963 750 948 786 928 817 L 565 225 C 580 221 596 218 614 217 C 632 215 650 215 670 215 Z M 356 571 C 356 521 360 477 368 437 C 376 397 389 362 408 332 L 764 918 C 749 920 734 921 719 923 C 703 925 687 926 670 926 C 608 926 557 917 517 901 C 477 885 445 861 421 831 C 397 800 380 763 370 719 C 360 675 356 625 356 571 Z" unicode="" />
<glyph horiz-adv-x="1323" d="M 664 -20 C 554 -20 464 -9 394 12 C 324 33 270 66 231 110 C 191 154 164 211 150 280 C 136 348 129 430 129 524 L 129 1153 L 408 1153 L 408 518 C 408 476 409 438 412 403 C 415 367 425 337 441 311 C 457 285 483 265 518 251 C 553 236 602 229 666 229 C 708 229 743 232 772 239 C 801 245 825 255 844 267 C 862 279 877 294 887 312 C 897 329 905 348 910 370 C 914 392 917 415 918 441 C 919 466 920 493 920 522 L 920 1153 L 1194 1153 L 1194 528 C 1194 433 1187 351 1173 283 C 1159 214 1133 157 1095 112 C 1056 67 1002 34 933 12 C 864 -9 774 -20 664 -20 Z M 225 1628 L 563 1628 L 858 1266 L 606 1266 L 225 1628 Z" unicode="" />
<glyph horiz-adv-x="1323" d="M 756 1628 L 1094 1628 L 713 1266 L 463 1266 L 756 1628 Z M 664 -20 C 554 -20 464 -9 394 12 C 324 33 270 66 231 110 C 191 154 164 211 150 280 C 136 348 129 430 129 524 L 129 1153 L 408 1153 L 408 518 C 408 476 409 438 412 403 C 415 367 425 337 441 311 C 457 285 483 265 518 251 C 553 236 602 229 666 229 C 708 229 743 232 772 239 C 801 245 825 255 844 267 C 862 279 877 294 887 312 C 897 329 905 348 910 370 C 914 392 917 415 918 441 C 919 466 920 493 920 522 L 920 1153 L 1194 1153 L 1194 528 C 1194 433 1187 351 1173 283 C 1159 214 1133 157 1095 112 C 1056 67 1002 34 933 12 C 864 -9 774 -20 664 -20 Z" unicode="" />
<glyph horiz-adv-x="1323" d="M 514 1628 L 805 1628 L 1122 1266 L 858 1266 L 655 1452 L 457 1266 L 197 1266 L 514 1628 Z M 664 -20 C 554 -20 464 -9 394 12 C 324 33 270 66 231 110 C 191 154 164 211 150 280 C 136 348 129 430 129 524 L 129 1153 L 408 1153 L 408 518 C 408 476 409 438 412 403 C 415 367 425 337 441 311 C 457 285 483 265 518 251 C 553 236 602 229 666 229 C 708 229 743 232 772 239 C 801 245 825 255 844 267 C 862 279 877 294 887 312 C 897 329 905 348 910 370 C 914 392 917 415 918 441 C 919 466 920 493 920 522 L 920 1153 L 1194 1153 L 1194 528 C 1194 433 1187 351 1173 283 C 1159 214 1133 157 1095 112 C 1056 67 1002 34 933 12 C 864 -9 774 -20 664 -20 Z" unicode="" />
<glyph horiz-adv-x="1323" d="M 305 1538 L 559 1538 L 559 1274 L 305 1274 L 305 1538 Z M 762 1538 L 1014 1538 L 1014 1274 L 762 1274 L 762 1538 Z M 664 -20 C 554 -20 464 -9 394 12 C 324 33 270 66 231 110 C 191 154 164 211 150 280 C 136 348 129 430 129 524 L 129 1153 L 408 1153 L 408 518 C 408 476 409 438 412 403 C 415 367 425 337 441 311 C 457 285 483 265 518 251 C 553 236 602 229 666 229 C 708 229 743 232 772 239 C 801 245 825 255 844 267 C 862 279 877 294 887 312 C 897 329 905 348 910 370 C 914 392 917 415 918 441 C 919 466 920 493 920 522 L 920 1153 L 1194 1153 L 1194 528 C 1194 433 1187 351 1173 283 C 1159 214 1133 157 1095 112 C 1056 67 1002 34 933 12 C 864 -9 774 -20 664 -20 Z" unicode="" />
<glyph horiz-adv-x="1169" d="M 270 -346 C 264 -346 256 -346 247 -346 C 237 -346 227 -346 217 -346 C 207 -346 196 -345 186 -345 C 176 -345 167 -344 160 -344 L 160 -127 L 246 -127 C 276 -127 302 -125 322 -123 C 342 -120 359 -115 372 -109 C 385 -102 395 -93 403 -81 C 411 -69 418 -55 424 -37 L 444 20 L 4 1153 L 303 1153 L 594 362 L 879 1153 L 1167 1153 L 696 -68 C 677 -118 656 -160 633 -196 C 610 -231 582 -260 550 -282 C 517 -304 478 -320 433 -330 C 387 -340 333 -346 270 -346 Z M 684 1628 L 1022 1628 L 641 1266 L 391 1266 L 684 1628 Z" unicode="" />
<glyph horiz-adv-x="1378" d="M 135 1589 L 414 1589 L 414 1061 C 445 1101 492 1130 555 1150 C 618 1170 702 1180 807 1180 C 905 1180 985 1164 1049 1134 C 1112 1103 1162 1061 1199 1007 C 1236 953 1262 889 1276 816 C 1290 743 1298 664 1298 580 C 1298 495 1290 416 1275 343 C 1260 270 1233 207 1195 153 C 1157 99 1105 56 1040 26 C 974 -4 891 -20 791 -20 C 736 -20 688 -17 648 -12 C 607 -6 572 1 542 11 C 512 21 486 33 466 47 C 446 61 429 78 416 96 L 416 -338 L 135 -338 L 135 1589 Z M 737 225 C 793 225 840 233 876 250 C 912 266 940 290 961 320 C 981 350 996 387 1004 429 C 1012 471 1016 517 1016 569 C 1016 620 1012 667 1004 710 C 996 753 982 790 962 821 C 942 852 913 876 877 894 C 841 911 794 920 737 920 C 677 920 627 913 587 900 C 546 886 513 865 488 837 C 462 809 444 772 433 728 C 421 684 416 631 416 569 C 416 507 421 455 431 412 C 441 368 459 333 483 305 C 507 277 540 257 582 244 C 623 231 675 225 737 225 Z" unicode="" />
<glyph horiz-adv-x="1169" d="M 270 -346 C 264 -346 256 -346 247 -346 C 237 -346 227 -346 217 -346 C 207 -346 196 -345 186 -345 C 176 -345 167 -344 160 -344 L 160 -127 L 246 -127 C 276 -127 302 -125 322 -123 C 342 -120 359 -115 372 -109 C 385 -102 395 -93 403 -81 C 411 -69 418 -55 424 -37 L 444 20 L 4 1153 L 303 1153 L 594 362 L 879 1153 L 1167 1153 L 696 -68 C 677 -118 656 -160 633 -196 C 610 -231 582 -260 550 -282 C 517 -304 478 -320 433 -330 C 387 -340 333 -346 270 -346 Z M 233 1538 L 487 1538 L 487 1274 L 233 1274 L 233 1538 Z M 690 1538 L 942 1538 L 942 1274 L 690 1274 L 690 1538 Z" unicode="" />
<glyph horiz-adv-x="1583" d="M 643 1528 L 940 1528 L 1550 0 L 1249 0 L 1143 270 L 428 270 L 322 0 L 35 0 L 643 1528 Z M 1047 524 L 784 1182 L 524 524 L 1047 524 Z M 375 1812 L 1204 1812 L 1204 1583 L 375 1583 L 375 1812 Z" unicode="" />
<glyph horiz-adv-x="1309" d="M 487 -20 C 399 -20 328 -10 273 7 C 218 25 175 51 143 83 C 111 115 90 152 78 196 C 66 239 61 286 61 336 C 61 417 74 484 102 538 C 129 591 172 633 232 664 C 291 695 368 717 463 729 C 557 741 672 748 807 748 L 860 748 C 858 778 855 804 849 826 C 843 848 831 867 814 882 C 796 897 771 908 739 916 C 707 924 664 928 610 928 C 574 928 540 925 508 919 C 476 913 445 905 417 895 C 388 885 362 875 338 864 C 314 852 294 841 276 831 L 135 1042 C 155 1056 181 1071 215 1087 C 249 1103 288 1118 332 1132 C 376 1146 424 1157 476 1166 C 528 1175 583 1180 641 1180 C 743 1180 825 1171 889 1154 C 952 1136 1001 1109 1037 1072 C 1073 1035 1097 988 1109 930 C 1121 872 1128 802 1128 721 L 1128 352 C 1128 327 1129 307 1131 292 C 1133 277 1137 266 1144 258 C 1151 250 1162 244 1176 242 C 1190 239 1209 238 1233 238 L 1233 4 C 1223 0 1209 -1 1191 -2 C 1172 -3 1147 -4 1116 -4 C 1086 -4 1060 -2 1038 1 C 1016 4 996 10 980 19 C 963 28 949 40 937 56 C 925 71 914 91 905 115 C 873 73 824 40 758 16 C 691 -8 601 -20 487 -20 Z M 541 213 C 652 213 733 234 784 278 C 834 321 860 391 860 487 L 860 539 L 825 539 C 753 539 690 537 638 535 C 586 533 541 529 505 523 C 468 517 438 510 415 501 C 392 491 374 480 361 467 C 348 453 339 438 335 420 C 330 402 328 381 328 358 C 328 334 331 313 338 295 C 344 277 356 261 372 249 C 388 237 410 228 438 222 C 465 216 499 213 541 213 Z M 242 1477 L 1071 1477 L 1071 1247 L 242 1247 L 242 1477 Z" unicode="" />
<glyph horiz-adv-x="1583" d="M 643 1528 L 940 1528 L 1550 0 L 1249 0 L 1143 270 L 428 270 L 322 0 L 35 0 L 643 1528 Z M 1047 524 L 784 1182 L 524 524 L 1047 524 Z M 788 1573 C 714 1573 653 1582 604 1601 C 554 1619 514 1645 482 1679 C 450 1712 424 1752 406 1799 C 388 1846 373 1898 362 1954 L 565 1993 C 573 1959 582 1930 592 1905 C 602 1880 615 1859 632 1843 C 648 1827 669 1814 694 1806 C 719 1798 750 1794 788 1794 C 826 1794 857 1798 883 1806 C 908 1814 929 1827 946 1843 C 962 1859 976 1880 986 1905 C 996 1930 1004 1959 1012 1993 L 1217 1956 C 1205 1899 1189 1847 1171 1800 C 1152 1753 1126 1713 1094 1679 C 1062 1645 1021 1619 972 1601 C 922 1582 861 1573 788 1573 Z" unicode="" />
<glyph horiz-adv-x="1309" d="M 487 -20 C 399 -20 328 -10 273 7 C 218 25 175 51 143 83 C 111 115 90 152 78 196 C 66 239 61 286 61 336 C 61 417 74 484 102 538 C 129 591 172 633 232 664 C 291 695 368 717 463 729 C 557 741 672 748 807 748 L 860 748 C 858 778 855 804 849 826 C 843 848 831 867 814 882 C 796 897 771 908 739 916 C 707 924 664 928 610 928 C 574 928 540 925 508 919 C 476 913 445 905 417 895 C 388 885 362 875 338 864 C 314 852 294 841 276 831 L 135 1042 C 155 1056 181 1071 215 1087 C 249 1103 288 1118 332 1132 C 376 1146 424 1157 476 1166 C 528 1175 583 1180 641 1180 C 743 1180 825 1171 889 1154 C 952 1136 1001 1109 1037 1072 C 1073 1035 1097 988 1109 930 C 1121 872 1128 802 1128 721 L 1128 352 C 1128 327 1129 307 1131 292 C 1133 277 1137 266 1144 258 C 1151 250 1162 244 1176 242 C 1190 239 1209 238 1233 238 L 1233 4 C 1223 0 1209 -1 1191 -2 C 1172 -3 1147 -4 1116 -4 C 1086 -4 1060 -2 1038 1 C 1016 4 996 10 980 19 C 963 28 949 40 937 56 C 925 71 914 91 905 115 C 873 73 824 40 758 16 C 691 -8 601 -20 487 -20 Z M 541 213 C 652 213 733 234 784 278 C 834 321 860 391 860 487 L 860 539 L 825 539 C 753 539 690 537 638 535 C 586 533 541 529 505 523 C 468 517 438 510 415 501 C 392 491 374 480 361 467 C 348 453 339 438 335 420 C 330 402 328 381 328 358 C 328 334 331 313 338 295 C 344 277 356 261 372 249 C 388 237 410 228 438 222 C 465 216 499 213 541 213 Z M 655 1237 C 581 1237 519 1246 470 1265 C 420 1283 380 1309 348 1343 C 316 1376 291 1416 273 1463 C 255 1510 240 1562 229 1618 L 432 1657 C 440 1623 449 1594 459 1569 C 469 1544 482 1523 499 1507 C 515 1491 536 1478 561 1470 C 586 1462 617 1458 655 1458 C 693 1458 724 1462 750 1470 C 775 1478 796 1491 813 1507 C 829 1523 843 1544 853 1569 C 863 1594 871 1623 879 1657 L 1083 1620 C 1071 1563 1055 1511 1037 1464 C 1019 1417 993 1377 961 1343 C 929 1309 888 1283 839 1265 C 789 1246 728 1237 655 1237 Z" unicode="" />
<glyph horiz-adv-x="1583" d="M 643 1528 L 940 1528 L 1550 0 L 1466 0 C 1401 -40 1354 -78 1324 -115 C 1294 -152 1280 -185 1280 -213 C 1280 -225 1281 -237 1284 -247 C 1287 -257 1293 -266 1301 -274 C 1309 -281 1320 -287 1335 -291 C 1349 -295 1369 -297 1393 -297 C 1421 -297 1448 -294 1475 -288 C 1501 -282 1524 -276 1544 -270 L 1597 -424 C 1562 -439 1524 -451 1483 -461 C 1441 -470 1399 -475 1356 -475 C 1299 -475 1252 -470 1215 -460 C 1177 -450 1147 -436 1125 -418 C 1103 -400 1087 -378 1078 -353 C 1069 -327 1065 -299 1065 -268 C 1065 -236 1070 -205 1082 -177 C 1093 -148 1107 -122 1125 -98 C 1142 -74 1161 -52 1182 -34 C 1203 -15 1223 0 1243 12 L 1143 270 L 428 270 L 322 0 L 35 0 L 643 1528 Z M 1047 524 L 784 1182 L 524 524 L 1047 524 Z" unicode="" />
<glyph horiz-adv-x="1309" d="M 487 -20 C 399 -20 328 -10 273 7 C 218 25 175 51 143 83 C 111 115 90 152 78 196 C 66 239 61 286 61 336 C 61 417 74 484 102 538 C 129 591 172 633 232 664 C 291 695 368 717 463 729 C 557 741 672 748 807 748 L 860 748 C 858 778 855 804 849 826 C 843 848 831 867 814 882 C 796 897 771 908 739 916 C 707 924 664 928 610 928 C 574 928 540 925 508 919 C 476 913 445 905 417 895 C 388 885 362 875 338 864 C 314 852 294 841 276 831 L 135 1042 C 155 1056 181 1071 215 1087 C 249 1103 288 1118 332 1132 C 376 1146 424 1157 476 1166 C 528 1175 583 1180 641 1180 C 743 1180 825 1171 889 1154 C 952 1136 1001 1109 1037 1072 C 1073 1035 1097 988 1109 930 C 1121 872 1128 802 1128 721 L 1128 352 C 1128 327 1129 307 1131 292 C 1133 277 1137 266 1144 258 C 1151 250 1162 244 1176 242 C 1190 239 1209 238 1233 238 L 1233 4 C 1162 -39 1110 -79 1076 -115 C 1042 -151 1026 -184 1026 -213 C 1026 -225 1027 -237 1030 -247 C 1032 -257 1038 -266 1046 -274 C 1054 -281 1065 -287 1080 -291 C 1095 -295 1115 -297 1139 -297 C 1167 -297 1195 -294 1223 -288 C 1251 -282 1274 -275 1294 -268 L 1350 -422 C 1314 -438 1275 -451 1232 -461 C 1189 -470 1146 -475 1102 -475 C 1046 -475 999 -470 962 -460 C 924 -450 894 -436 872 -418 C 850 -400 834 -378 825 -353 C 815 -327 811 -299 811 -268 C 811 -232 817 -199 830 -169 C 842 -139 858 -113 878 -90 C 897 -66 918 -46 941 -30 C 963 -13 984 0 1004 10 C 993 14 983 18 975 23 C 966 27 958 33 952 41 C 931 58 915 83 905 115 C 873 73 824 40 758 16 C 691 -8 601 -20 487 -20 Z M 541 213 C 652 213 733 234 784 278 C 834 321 860 391 860 487 L 860 539 L 825 539 C 753 539 690 537 638 535 C 586 533 541 529 505 523 C 468 517 438 510 415 501 C 392 491 374 480 361 467 C 348 453 339 438 335 420 C 330 402 328 381 328 358 C 328 334 331 313 338 295 C 344 277 356 261 372 249 C 388 237 410 228 438 222 C 465 216 499 213 541 213 Z" unicode="" />
<glyph horiz-adv-x="1536" d="M 862 1964 L 1200 1964 L 819 1602 L 569 1602 L 862 1964 Z M 848 -23 C 710 -23 592 -5 494 28 C 396 62 317 113 255 179 C 193 245 147 327 119 425 C 90 522 76 634 76 760 C 76 896 93 1013 129 1111 C 164 1209 215 1290 283 1354 C 351 1418 433 1465 531 1496 C 629 1526 740 1542 864 1542 C 929 1542 989 1537 1045 1528 C 1100 1519 1151 1506 1199 1488 C 1246 1470 1290 1448 1330 1422 C 1370 1395 1408 1364 1444 1329 L 1239 1124 C 1191 1170 1136 1206 1076 1232 C 1016 1257 944 1270 862 1270 C 692 1270 567 1226 488 1140 C 408 1054 369 926 369 758 C 369 675 377 602 395 538 C 413 474 441 421 481 377 C 520 333 571 300 634 278 C 696 255 773 244 864 244 C 915 244 960 248 998 256 C 1036 264 1071 274 1101 288 C 1131 302 1159 318 1183 337 C 1207 355 1231 375 1255 397 L 1454 205 C 1424 175 1392 146 1356 119 C 1320 91 1279 67 1231 46 C 1183 25 1128 8 1066 -4 C 1003 -16 930 -23 848 -23 Z" unicode="" />
<glyph horiz-adv-x="1190" d="M 692 1628 L 1030 1628 L 649 1266 L 399 1266 L 692 1628 Z M 659 -20 C 581 -20 513 -13 455 0 C 396 14 345 33 302 59 C 259 84 223 115 195 151 C 167 187 144 227 127 271 C 109 315 97 364 90 416 C 83 468 80 522 80 580 C 80 636 83 690 90 742 C 97 794 109 842 126 886 C 143 930 166 971 195 1007 C 224 1043 260 1074 304 1100 C 348 1125 400 1145 460 1159 C 520 1173 591 1180 672 1180 C 776 1180 865 1163 939 1131 C 1013 1098 1076 1053 1126 997 L 928 809 C 915 821 901 834 886 847 C 870 860 852 872 832 882 C 812 892 788 901 762 908 C 736 914 706 918 672 918 C 610 918 559 909 519 893 C 479 877 447 854 423 824 C 399 794 383 757 374 715 C 364 672 360 624 360 571 C 360 518 364 470 373 427 C 382 384 398 347 422 317 C 446 287 478 263 518 247 C 558 231 610 223 674 223 C 702 223 727 225 751 229 C 775 233 797 240 819 250 C 840 259 861 271 881 285 C 901 299 921 316 942 336 L 1124 162 C 1092 132 1060 105 1028 83 C 996 60 963 41 927 26 C 891 10 851 0 808 -8 C 764 -16 715 -20 659 -20 Z" unicode="" />
<glyph horiz-adv-x="1536" d="M 651 1964 L 942 1964 L 1260 1602 L 995 1602 L 793 1788 L 594 1602 L 334 1602 L 651 1964 Z M 848 -23 C 710 -23 592 -5 494 28 C 396 62 317 113 255 179 C 193 245 147 327 119 425 C 90 522 76 634 76 760 C 76 896 93 1013 129 1111 C 164 1209 215 1290 283 1354 C 351 1418 433 1465 531 1496 C 629 1526 740 1542 864 1542 C 929 1542 989 1537 1045 1528 C 1100 1519 1151 1506 1199 1488 C 1246 1470 1290 1448 1330 1422 C 1370 1395 1408 1364 1444 1329 L 1239 1124 C 1191 1170 1136 1206 1076 1232 C 1016 1257 944 1270 862 1270 C 692 1270 567 1226 488 1140 C 408 1054 369 926 369 758 C 369 675 377 602 395 538 C 413 474 441 421 481 377 C 520 333 571 300 634 278 C 696 255 773 244 864 244 C 915 244 960 248 998 256 C 1036 264 1071 274 1101 288 C 1131 302 1159 318 1183 337 C 1207 355 1231 375 1255 397 L 1454 205 C 1424 175 1392 146 1356 119 C 1320 91 1279 67 1231 46 C 1183 25 1128 8 1066 -4 C 1003 -16 930 -23 848 -23 Z" unicode="" />
<glyph horiz-adv-x="1190" d="M 467 1628 L 758 1628 L 1075 1266 L 811 1266 L 608 1452 L 410 1266 L 150 1266 L 467 1628 Z M 659 -20 C 581 -20 513 -13 455 0 C 396 14 345 33 302 59 C 259 84 223 115 195 151 C 167 187 144 227 127 271 C 109 315 97 364 90 416 C 83 468 80 522 80 580 C 80 636 83 690 90 742 C 97 794 109 842 126 886 C 143 930 166 971 195 1007 C 224 1043 260 1074 304 1100 C 348 1125 400 1145 460 1159 C 520 1173 591 1180 672 1180 C 776 1180 865 1163 939 1131 C 1013 1098 1076 1053 1126 997 L 928 809 C 915 821 901 834 886 847 C 870 860 852 872 832 882 C 812 892 788 901 762 908 C 736 914 706 918 672 918 C 610 918 559 909 519 893 C 479 877 447 854 423 824 C 399 794 383 757 374 715 C 364 672 360 624 360 571 C 360 518 364 470 373 427 C 382 384 398 347 422 317 C 446 287 478 263 518 247 C 558 231 610 223 674 223 C 702 223 727 225 751 229 C 775 233 797 240 819 250 C 840 259 861 271 881 285 C 901 299 921 316 942 336 L 1124 162 C 1092 132 1060 105 1028 83 C 996 60 963 41 927 26 C 891 10 851 0 808 -8 C 764 -16 715 -20 659 -20 Z" unicode="" />
<glyph horiz-adv-x="1536" d="M 848 -23 C 710 -23 592 -5 494 28 C 396 62 317 113 255 179 C 193 245 147 327 119 425 C 90 522 76 634 76 760 C 76 896 93 1013 129 1111 C 164 1209 215 1290 283 1354 C 351 1418 433 1465 531 1496 C 629 1526 740 1542 864 1542 C 929 1542 989 1537 1045 1528 C 1100 1519 1151 1506 1199 1488 C 1246 1470 1290 1448 1330 1422 C 1370 1395 1408 1364 1444 1329 L 1239 1124 C 1191 1170 1136 1206 1076 1232 C 1016 1257 944 1270 862 1270 C 692 1270 567 1226 488 1140 C 408 1054 369 926 369 758 C 369 675 377 602 395 538 C 413 474 441 421 481 377 C 520 333 571 300 634 278 C 696 255 773 244 864 244 C 915 244 960 248 998 256 C 1036 264 1071 274 1101 288 C 1131 302 1159 318 1183 337 C 1207 355 1231 375 1255 397 L 1454 205 C 1424 175 1392 146 1356 119 C 1320 91 1279 67 1231 46 C 1183 25 1128 8 1066 -4 C 1003 -16 930 -23 848 -23 Z M 659 1868 L 942 1868 L 942 1597 L 659 1597 L 659 1868 Z" unicode="" />
<glyph horiz-adv-x="1190" d="M 659 -20 C 581 -20 513 -13 455 0 C 396 14 345 33 302 59 C 259 84 223 115 195 151 C 167 187 144 227 127 271 C 109 315 97 364 90 416 C 83 468 80 522 80 580 C 80 636 83 690 90 742 C 97 794 109 842 126 886 C 143 930 166 971 195 1007 C 224 1043 260 1074 304 1100 C 348 1125 400 1145 460 1159 C 520 1173 591 1180 672 1180 C 776 1180 865 1163 939 1131 C 1013 1098 1076 1053 1126 997 L 928 809 C 915 821 901 834 886 847 C 870 860 852 872 832 882 C 812 892 788 901 762 908 C 736 914 706 918 672 918 C 610 918 559 909 519 893 C 479 877 447 854 423 824 C 399 794 383 757 374 715 C 364 672 360 624 360 571 C 360 518 364 470 373 427 C 382 384 398 347 422 317 C 446 287 478 263 518 247 C 558 231 610 223 674 223 C 702 223 727 225 751 229 C 775 233 797 240 819 250 C 840 259 861 271 881 285 C 901 299 921 316 942 336 L 1124 162 C 1092 132 1060 105 1028 83 C 996 60 963 41 927 26 C 891 10 851 0 808 -8 C 764 -16 715 -20 659 -20 Z M 487 1532 L 770 1532 L 770 1262 L 487 1262 L 487 1532 Z" unicode="" />
<glyph horiz-adv-x="1536" d="M 303 1964 L 569 1964 L 770 1780 L 969 1964 L 1229 1964 L 911 1602 L 621 1602 L 303 1964 Z M 848 -23 C 710 -23 592 -5 494 28 C 396 62 317 113 255 179 C 193 245 147 327 119 425 C 90 522 76 634 76 760 C 76 896 93 1013 129 1111 C 164 1209 215 1290 283 1354 C 351 1418 433 1465 531 1496 C 629 1526 740 1542 864 1542 C 929 1542 989 1537 1045 1528 C 1100 1519 1151 1506 1199 1488 C 1246 1470 1290 1448 1330 1422 C 1370 1395 1408 1364 1444 1329 L 1239 1124 C 1191 1170 1136 1206 1076 1232 C 1016 1257 944 1270 862 1270 C 692 1270 567 1226 488 1140 C 408 1054 369 926 369 758 C 369 675 377 602 395 538 C 413 474 441 421 481 377 C 520 333 571 300 634 278 C 696 255 773 244 864 244 C 915 244 960 248 998 256 C 1036 264 1071 274 1101 288 C 1131 302 1159 318 1183 337 C 1207 355 1231 375 1255 397 L 1454 205 C 1424 175 1392 146 1356 119 C 1320 91 1279 67 1231 46 C 1183 25 1128 8 1066 -4 C 1003 -16 930 -23 848 -23 Z" unicode="" />
<glyph horiz-adv-x="1190" d="M 133 1628 L 399 1628 L 600 1444 L 799 1628 L 1059 1628 L 741 1266 L 451 1266 L 133 1628 Z M 659 -20 C 581 -20 513 -13 455 0 C 396 14 345 33 302 59 C 259 84 223 115 195 151 C 167 187 144 227 127 271 C 109 315 97 364 90 416 C 83 468 80 522 80 580 C 80 636 83 690 90 742 C 97 794 109 842 126 886 C 143 930 166 971 195 1007 C 224 1043 260 1074 304 1100 C 348 1125 400 1145 460 1159 C 520 1173 591 1180 672 1180 C 776 1180 865 1163 939 1131 C 1013 1098 1076 1053 1126 997 L 928 809 C 915 821 901 834 886 847 C 870 860 852 872 832 882 C 812 892 788 901 762 908 C 736 914 706 918 672 918 C 610 918 559 909 519 893 C 479 877 447 854 423 824 C 399 794 383 757 374 715 C 364 672 360 624 360 571 C 360 518 364 470 373 427 C 382 384 398 347 422 317 C 446 287 478 263 518 247 C 558 231 610 223 674 223 C 702 223 727 225 751 229 C 775 233 797 240 819 250 C 840 259 861 271 881 285 C 901 299 921 316 942 336 L 1124 162 C 1092 132 1060 105 1028 83 C 996 60 963 41 927 26 C 891 10 851 0 808 -8 C 764 -16 715 -20 659 -20 Z" unicode="" />
<glyph horiz-adv-x="1593" d="M 330 1964 L 596 1964 L 797 1780 L 995 1964 L 1255 1964 L 938 1602 L 647 1602 L 330 1964 Z M 160 1518 L 690 1518 C 838 1518 964 1506 1069 1483 C 1174 1460 1260 1420 1327 1363 C 1393 1305 1442 1228 1473 1130 C 1504 1032 1520 909 1520 760 C 1520 612 1503 490 1471 393 C 1439 295 1389 217 1321 159 C 1253 101 1165 60 1059 36 C 953 12 826 0 678 0 L 160 0 L 160 1518 Z M 694 262 C 801 262 889 270 958 288 C 1027 306 1081 334 1121 374 C 1161 413 1188 464 1204 528 C 1219 591 1227 668 1227 760 C 1227 852 1220 929 1206 991 C 1192 1053 1166 1104 1128 1142 C 1089 1180 1035 1208 966 1224 C 896 1240 806 1249 694 1249 L 451 1249 L 451 262 L 694 262 Z" unicode="" />
<glyph horiz-adv-x="1669" d="M 1378 1157 C 1406 1171 1428 1183 1446 1193 C 1464 1203 1478 1214 1488 1224 C 1498 1234 1504 1246 1508 1258 C 1511 1270 1513 1285 1513 1303 L 1389 1303 L 1389 1589 L 1665 1589 L 1665 1384 C 1665 1334 1662 1291 1657 1257 C 1651 1223 1641 1193 1625 1167 C 1609 1141 1587 1118 1558 1098 C 1528 1078 1490 1057 1442 1036 L 1378 1157 Z M 578 -23 C 479 -23 398 -7 334 24 C 270 55 219 98 181 153 C 143 207 117 271 102 345 C 87 419 80 498 80 584 C 80 668 87 746 103 819 C 118 891 145 954 184 1008 C 222 1061 274 1103 340 1134 C 405 1164 488 1180 588 1180 C 642 1180 690 1177 731 1171 C 772 1165 808 1157 838 1147 C 868 1137 893 1124 913 1110 C 933 1096 949 1080 963 1063 L 963 1589 L 1243 1589 L 1243 12 L 1030 -10 L 999 111 C 981 89 960 70 936 54 C 912 37 883 23 849 12 C 815 0 775 -8 731 -14 C 687 -20 636 -23 578 -23 Z M 643 225 C 702 225 752 232 793 246 C 834 260 867 281 892 311 C 917 341 935 378 946 423 C 957 468 963 522 963 584 C 963 644 958 696 948 739 C 938 782 920 817 896 844 C 871 871 838 891 797 903 C 756 915 705 922 643 922 C 585 922 538 913 502 897 C 466 881 437 858 416 828 C 395 798 381 763 373 722 C 365 680 362 634 362 584 C 362 532 365 484 373 440 C 381 396 395 359 416 327 C 437 295 466 270 502 252 C 538 234 585 225 643 225 Z" unicode="" />
<glyph horiz-adv-x="1593" d="M 0 889 L 160 889 L 160 1518 L 690 1518 C 838 1518 964 1506 1069 1483 C 1174 1460 1260 1420 1327 1363 C 1393 1305 1442 1228 1473 1130 C 1504 1032 1520 909 1520 760 C 1520 612 1503 490 1469 393 C 1435 295 1384 217 1315 159 C 1245 101 1158 60 1052 36 C 946 12 822 0 678 0 L 160 0 L 160 653 L 0 653 L 0 889 Z M 694 262 C 801 262 889 270 958 288 C 1027 306 1081 334 1121 374 C 1161 413 1188 464 1204 528 C 1219 591 1227 668 1227 760 C 1227 852 1220 929 1206 991 C 1192 1053 1166 1104 1128 1142 C 1089 1180 1035 1208 966 1224 C 896 1240 806 1249 694 1249 L 451 1249 L 451 889 L 750 889 L 750 653 L 451 653 L 451 262 L 694 262 Z" unicode="" />
<glyph horiz-adv-x="1378" d="M 702 1473 L 963 1473 L 963 1589 L 1243 1589 L 1243 1473 L 1378 1473 L 1378 1245 L 1243 1245 L 1243 12 L 1030 -10 L 999 111 C 981 89 960 70 936 54 C 912 37 883 23 849 12 C 815 0 775 -8 731 -14 C 687 -20 636 -23 578 -23 C 479 -23 398 -7 334 24 C 270 55 219 98 181 153 C 143 207 117 271 102 345 C 87 419 80 498 80 584 C 80 668 87 746 103 819 C 118 891 145 954 184 1008 C 222 1061 274 1103 340 1134 C 405 1164 488 1180 588 1180 C 642 1180 690 1177 731 1171 C 772 1165 808 1157 838 1147 C 868 1137 893 1124 913 1110 C 933 1096 949 1080 963 1063 L 963 1245 L 702 1245 L 702 1473 Z M 643 225 C 702 225 752 232 793 246 C 834 260 867 281 892 311 C 917 341 935 378 946 423 C 957 468 963 522 963 584 C 963 644 958 696 948 739 C 938 782 920 817 896 844 C 871 871 838 891 797 903 C 756 915 705 922 643 922 C 585 922 538 913 502 897 C 466 881 437 858 416 828 C 395 798 381 763 373 722 C 365 680 362 634 362 584 C 362 532 365 484 373 440 C 381 396 395 359 416 327 C 437 295 466 270 502 252 C 538 234 585 225 643 225 Z" unicode="" />
<glyph horiz-adv-x="1382" d="M 160 1518 L 1266 1518 L 1266 1247 L 451 1247 L 451 909 L 1245 909 L 1245 645 L 451 645 L 451 262 L 1274 262 L 1274 0 L 160 0 L 160 1518 Z M 274 1812 L 1104 1812 L 1104 1583 L 274 1583 L 274 1812 Z" unicode="" />
<glyph horiz-adv-x="1255" d="M 668 -23 C 586 -23 515 -15 454 -1 C 393 13 341 34 297 60 C 253 86 218 117 190 154 C 162 191 139 232 123 277 C 107 321 95 369 89 420 C 83 471 80 524 80 580 C 80 634 83 686 90 736 C 96 786 108 834 125 879 C 141 923 164 964 192 1001 C 220 1037 256 1069 300 1096 C 343 1122 395 1143 455 1158 C 515 1172 585 1180 666 1180 C 748 1180 818 1171 876 1153 C 933 1135 980 1110 1018 1078 C 1056 1046 1085 1008 1106 964 C 1127 920 1142 871 1152 818 C 1162 765 1167 709 1169 650 C 1170 590 1170 529 1169 467 L 350 467 C 354 427 363 391 375 359 C 387 327 405 301 429 279 C 453 257 484 240 523 228 C 561 216 610 211 668 211 C 712 211 752 213 788 219 C 823 224 855 231 884 241 C 912 251 938 262 962 275 C 986 288 1008 303 1030 319 L 1176 131 C 1140 104 1104 81 1068 62 C 1032 42 993 26 953 14 C 912 1 868 -8 822 -14 C 775 -20 724 -23 668 -23 Z M 657 940 C 602 940 556 934 519 922 C 482 910 452 893 428 871 C 404 849 387 822 375 791 C 363 759 354 724 350 686 L 909 686 C 907 722 903 756 897 788 C 891 819 880 846 863 868 C 846 890 821 908 789 921 C 756 933 712 940 657 940 Z M 211 1477 L 1040 1477 L 1040 1247 L 211 1247 L 211 1477 Z" unicode="" />
<glyph horiz-adv-x="1382" d="M 160 1518 L 1266 1518 L 1266 1247 L 451 1247 L 451 909 L 1245 909 L 1245 645 L 451 645 L 451 262 L 1274 262 L 1274 0 L 160 0 L 160 1518 Z M 690 1573 C 616 1573 554 1582 505 1601 C 455 1619 415 1645 383 1679 C 351 1712 326 1752 308 1799 C 290 1846 275 1898 264 1954 L 467 1993 C 475 1959 484 1930 494 1905 C 504 1880 517 1859 534 1843 C 550 1827 571 1814 596 1806 C 621 1798 652 1794 690 1794 C 728 1794 759 1798 785 1806 C 810 1814 831 1827 848 1843 C 864 1859 877 1880 887 1905 C 897 1930 905 1959 913 1993 L 1118 1956 C 1106 1899 1090 1847 1072 1800 C 1054 1753 1028 1713 996 1679 C 964 1645 923 1619 874 1601 C 824 1582 763 1573 690 1573 Z" unicode="" />
<glyph horiz-adv-x="1255" d="M 668 -23 C 586 -23 515 -15 454 -1 C 393 13 341 34 297 60 C 253 86 218 117 190 154 C 162 191 139 232 123 277 C 107 321 95 369 89 420 C 83 471 80 524 80 580 C 80 634 83 686 90 736 C 96 786 108 834 125 879 C 141 923 164 964 192 1001 C 220 1037 256 1069 300 1096 C 343 1122 395 1143 455 1158 C 515 1172 585 1180 666 1180 C 748 1180 818 1171 876 1153 C 933 1135 980 1110 1018 1078 C 1056 1046 1085 1008 1106 964 C 1127 920 1142 871 1152 818 C 1162 765 1167 709 1169 650 C 1170 590 1170 529 1169 467 L 350 467 C 354 427 363 391 375 359 C 387 327 405 301 429 279 C 453 257 484 240 523 228 C 561 216 610 211 668 211 C 712 211 752 213 788 219 C 823 224 855 231 884 241 C 912 251 938 262 962 275 C 986 288 1008 303 1030 319 L 1176 131 C 1140 104 1104 81 1068 62 C 1032 42 993 26 953 14 C 912 1 868 -8 822 -14 C 775 -20 724 -23 668 -23 Z M 657 940 C 602 940 556 934 519 922 C 482 910 452 893 428 871 C 404 849 387 822 375 791 C 363 759 354 724 350 686 L 909 686 C 907 722 903 756 897 788 C 891 819 880 846 863 868 C 846 890 821 908 789 921 C 756 933 712 940 657 940 Z M 627 1237 C 553 1237 491 1246 442 1265 C 392 1283 352 1309 320 1343 C 288 1376 263 1416 245 1463 C 227 1510 212 1562 201 1618 L 403 1657 C 411 1623 420 1594 430 1569 C 440 1544 453 1523 470 1507 C 486 1491 507 1478 533 1470 C 558 1462 589 1458 627 1458 C 665 1458 696 1462 721 1470 C 746 1478 767 1491 784 1507 C 800 1523 814 1544 824 1569 C 834 1594 842 1623 850 1657 L 1055 1620 C 1043 1563 1027 1511 1009 1464 C 991 1417 965 1377 933 1343 C 901 1309 860 1283 811 1265 C 761 1246 700 1237 627 1237 Z" unicode="" />
<glyph horiz-adv-x="1382" d="M 160 1518 L 1266 1518 L 1266 1247 L 451 1247 L 451 909 L 1245 909 L 1245 645 L 451 645 L 451 262 L 1274 262 L 1274 0 L 160 0 L 160 1518 Z M 547 1868 L 829 1868 L 829 1597 L 547 1597 L 547 1868 Z" unicode="" />
<glyph horiz-adv-x="1255" d="M 668 -23 C 586 -23 515 -15 454 -1 C 393 13 341 34 297 60 C 253 86 218 117 190 154 C 162 191 139 232 123 277 C 107 321 95 369 89 420 C 83 471 80 524 80 580 C 80 634 83 686 90 736 C 96 786 108 834 125 879 C 141 923 164 964 192 1001 C 220 1037 256 1069 300 1096 C 343 1122 395 1143 455 1158 C 515 1172 585 1180 666 1180 C 748 1180 818 1171 876 1153 C 933 1135 980 1110 1018 1078 C 1056 1046 1085 1008 1106 964 C 1127 920 1142 871 1152 818 C 1162 765 1167 709 1169 650 C 1170 590 1170 529 1169 467 L 350 467 C 354 427 363 391 375 359 C 387 327 405 301 429 279 C 453 257 484 240 523 228 C 561 216 610 211 668 211 C 712 211 752 213 788 219 C 823 224 855 231 884 241 C 912 251 938 262 962 275 C 986 288 1008 303 1030 319 L 1176 131 C 1140 104 1104 81 1068 62 C 1032 42 993 26 953 14 C 912 1 868 -8 822 -14 C 775 -20 724 -23 668 -23 Z M 657 940 C 602 940 556 934 519 922 C 482 910 452 893 428 871 C 404 849 387 822 375 791 C 363 759 354 724 350 686 L 909 686 C 907 722 903 756 897 788 C 891 819 880 846 863 868 C 846 890 821 908 789 921 C 756 933 712 940 657 940 Z M 483 1532 L 766 1532 L 766 1262 L 483 1262 L 483 1532 Z" unicode="" />
<glyph horiz-adv-x="1382" d="M 160 1518 L 1266 1518 L 1266 1247 L 451 1247 L 451 909 L 1245 909 L 1245 645 L 451 645 L 451 262 L 1274 262 L 1274 0 L 1106 0 C 1045 -39 1000 -78 972 -116 C 944 -154 930 -186 930 -213 C 930 -225 931 -237 934 -247 C 937 -257 943 -266 951 -274 C 959 -281 970 -287 985 -291 C 999 -295 1018 -297 1042 -297 C 1057 -297 1073 -296 1090 -294 C 1106 -292 1123 -289 1139 -286 C 1155 -282 1170 -279 1184 -275 C 1198 -271 1211 -268 1221 -264 L 1276 -418 C 1258 -426 1238 -433 1216 -440 C 1194 -447 1172 -453 1148 -458 C 1124 -463 1100 -467 1076 -470 C 1052 -473 1028 -475 1006 -475 C 949 -475 902 -470 865 -460 C 827 -450 797 -436 775 -418 C 753 -400 737 -378 728 -353 C 719 -327 715 -299 715 -268 C 715 -236 720 -206 730 -179 C 740 -151 753 -126 769 -104 C 785 -81 802 -61 821 -44 C 840 -26 859 -12 877 0 L 160 0 L 160 1518 Z" unicode="" />
<glyph horiz-adv-x="1255" d="M 662 -23 C 581 -22 510 -14 450 0 C 390 14 338 35 295 61 C 251 87 216 119 188 156 C 160 192 139 233 123 277 C 107 321 95 369 89 420 C 83 471 80 524 80 580 C 80 634 83 686 90 736 C 96 786 108 834 125 879 C 141 923 164 964 192 1001 C 220 1037 256 1069 300 1096 C 343 1122 395 1143 455 1158 C 515 1172 585 1180 666 1180 C 748 1180 818 1171 876 1153 C 933 1135 980 1110 1018 1078 C 1056 1046 1085 1008 1106 964 C 1127 920 1142 871 1152 818 C 1162 765 1167 709 1169 650 C 1170 590 1170 529 1169 467 L 350 467 C 354 427 362 391 374 359 C 386 327 404 301 428 279 C 452 257 484 240 523 228 C 561 216 610 211 668 211 C 712 211 752 213 788 219 C 823 224 855 231 884 241 C 912 251 938 262 962 275 C 986 288 1008 303 1030 319 L 1176 131 C 1140 105 1105 83 1071 64 C 1036 44 999 28 961 16 C 925 -5 895 -26 869 -47 C 843 -68 822 -88 806 -108 C 789 -128 777 -147 769 -165 C 761 -183 758 -199 758 -213 C 758 -225 759 -237 762 -247 C 764 -257 770 -266 778 -274 C 786 -281 797 -287 812 -291 C 826 -295 846 -297 870 -297 C 884 -297 900 -296 917 -294 C 933 -292 950 -289 966 -286 C 982 -282 997 -279 1011 -275 C 1025 -271 1037 -268 1047 -264 L 1102 -418 C 1084 -426 1065 -433 1043 -440 C 1021 -447 999 -453 976 -458 C 952 -463 928 -467 904 -470 C 880 -473 856 -475 834 -475 C 777 -475 730 -470 692 -460 C 654 -450 624 -436 602 -418 C 580 -400 564 -378 555 -353 C 545 -327 541 -299 541 -268 C 541 -240 544 -214 552 -190 C 560 -166 570 -143 582 -123 C 594 -103 609 -84 625 -67 C 641 -50 657 -35 674 -23 L 662 -23 Z M 657 940 C 602 940 556 934 519 922 C 482 910 452 893 428 871 C 404 849 387 822 375 791 C 363 759 354 724 350 686 L 909 686 C 907 722 903 756 897 788 C 891 819 880 846 863 868 C 846 890 821 908 789 921 C 756 933 712 940 657 940 Z" unicode="" />
<glyph horiz-adv-x="1382" d="M 225 1964 L 492 1964 L 692 1780 L 891 1964 L 1151 1964 L 834 1602 L 543 1602 L 225 1964 Z M 160 1518 L 1266 1518 L 1266 1247 L 451 1247 L 451 909 L 1245 909 L 1245 645 L 451 645 L 451 262 L 1274 262 L 1274 0 L 160 0 L 160 1518 Z" unicode="" />
<glyph horiz-adv-x="1255" d="M 162 1628 L 428 1628 L 629 1444 L 827 1628 L 1087 1628 L 770 1266 L 479 1266 L 162 1628 Z M 668 -23 C 586 -23 515 -15 454 -1 C 393 13 341 34 297 60 C 253 86 218 117 190 154 C 162 191 139 232 123 277 C 107 321 95 369 89 420 C 83 471 80 524 80 580 C 80 634 83 686 90 736 C 96 786 108 834 125 879 C 141 923 164 964 192 1001 C 220 1037 256 1069 300 1096 C 343 1122 395 1143 455 1158 C 515 1172 585 1180 666 1180 C 748 1180 818 1171 876 1153 C 933 1135 980 1110 1018 1078 C 1056 1046 1085 1008 1106 964 C 1127 920 1142 871 1152 818 C 1162 765 1167 709 1169 650 C 1170 590 1170 529 1169 467 L 350 467 C 354 427 363 391 375 359 C 387 327 405 301 429 279 C 453 257 484 240 523 228 C 561 216 610 211 668 211 C 712 211 752 213 788 219 C 823 224 855 231 884 241 C 912 251 938 262 962 275 C 986 288 1008 303 1030 319 L 1176 131 C 1140 104 1104 81 1068 62 C 1032 42 993 26 953 14 C 912 1 868 -8 822 -14 C 775 -20 724 -23 668 -23 Z M 657 940 C 602 940 556 934 519 922 C 482 910 452 893 428 871 C 404 849 387 822 375 791 C 363 759 354 724 350 686 L 909 686 C 907 722 903 756 897 788 C 891 819 880 846 863 868 C 846 890 821 908 789 921 C 756 933 712 940 657 940 Z" unicode="" />
<glyph horiz-adv-x="1626" d="M 670 1964 L 961 1964 L 1278 1602 L 1014 1602 L 811 1788 L 612 1602 L 352 1602 L 670 1964 Z M 844 -23 C 696 -23 573 -6 475 28 C 376 62 297 112 238 178 C 179 244 137 326 113 424 C 88 521 76 633 76 760 C 76 897 93 1015 128 1114 C 162 1212 213 1293 280 1357 C 346 1420 428 1467 526 1497 C 624 1527 736 1542 862 1542 C 938 1542 1006 1536 1067 1526 C 1128 1515 1183 1500 1232 1482 C 1281 1463 1324 1441 1362 1416 C 1400 1390 1433 1363 1462 1333 L 1257 1126 C 1237 1145 1214 1163 1190 1181 C 1166 1199 1138 1214 1107 1227 C 1075 1240 1039 1250 999 1258 C 959 1266 912 1270 860 1270 C 773 1270 699 1259 637 1238 C 575 1216 524 1184 484 1141 C 444 1098 414 1045 395 981 C 376 917 367 842 367 758 C 367 669 374 591 390 525 C 405 459 431 404 469 360 C 506 316 556 283 619 261 C 682 239 762 229 858 229 C 938 229 1005 236 1058 250 C 1110 264 1152 286 1183 316 C 1214 346 1236 383 1249 428 C 1261 472 1268 525 1268 586 L 1268 621 L 821 621 L 821 872 L 1556 872 L 1556 641 C 1556 533 1545 438 1523 356 C 1501 274 1463 204 1409 148 C 1355 92 1282 49 1190 20 C 1098 -8 983 -23 844 -23 Z" unicode="" />
<glyph horiz-adv-x="1307" d="M 492 1671 L 782 1671 L 1100 1309 L 836 1309 L 633 1495 L 434 1309 L 174 1309 L 492 1671 Z M 629 422 C 597 422 568 422 541 424 C 513 425 487 428 463 432 C 459 424 455 415 453 407 C 450 399 449 391 449 383 C 449 368 451 356 457 347 C 463 337 473 330 488 325 C 503 320 524 317 550 315 C 576 313 609 313 651 313 C 766 313 861 308 937 298 C 1012 288 1072 272 1117 248 C 1161 224 1192 191 1210 151 C 1228 111 1237 60 1237 0 C 1237 -66 1225 -123 1201 -169 C 1177 -215 1140 -253 1090 -283 C 1040 -312 976 -333 899 -347 C 822 -360 731 -367 625 -367 C 519 -367 430 -363 356 -355 C 282 -347 221 -333 175 -312 C 129 -291 95 -262 74 -226 C 53 -189 43 -142 43 -84 C 43 -51 47 -21 56 7 C 64 35 78 60 96 83 C 114 105 138 125 167 141 C 195 157 230 169 270 178 C 241 197 222 220 214 248 C 205 276 201 306 201 338 C 201 368 205 396 213 424 C 221 452 234 477 252 500 C 156 558 109 655 109 791 C 109 853 118 909 138 957 C 158 1005 189 1046 231 1079 C 273 1112 326 1137 392 1154 C 458 1171 537 1180 629 1180 C 637 1180 645 1180 654 1180 C 663 1180 672 1179 682 1178 L 1190 1270 L 1190 1051 L 1016 1051 C 1058 1027 1092 995 1116 955 C 1140 915 1153 860 1153 791 C 1153 727 1142 672 1122 626 C 1102 580 1070 541 1027 511 C 984 481 930 458 864 444 C 798 429 719 422 629 422 Z M 635 -164 C 699 -164 751 -160 792 -154 C 833 -148 865 -138 889 -126 C 913 -114 929 -99 938 -81 C 947 -63 952 -42 952 -18 C 952 6 946 25 936 41 C 926 56 908 68 884 77 C 859 85 826 91 786 95 C 746 98 695 100 635 100 C 565 100 510 96 469 90 C 428 84 397 75 375 63 C 353 51 339 37 333 21 C 327 4 324 -14 324 -35 C 324 -58 328 -78 338 -94 C 348 -110 364 -124 388 -134 C 412 -144 444 -152 484 -157 C 524 -161 574 -164 635 -164 Z M 629 621 C 675 621 715 624 747 631 C 779 638 804 648 823 662 C 842 676 856 693 864 714 C 872 735 877 760 877 788 C 877 845 857 887 819 914 C 781 940 717 954 629 954 C 582 954 543 950 511 944 C 479 937 454 927 435 914 C 415 900 401 883 393 862 C 385 841 381 816 381 788 C 381 760 385 735 393 714 C 401 693 415 676 435 662 C 454 648 479 638 511 631 C 543 624 582 621 629 621 Z" unicode="" />
<glyph horiz-adv-x="1626" d="M 844 -23 C 696 -23 573 -6 475 28 C 376 62 297 112 238 178 C 179 244 137 326 113 424 C 88 521 76 633 76 760 C 76 897 93 1015 128 1114 C 162 1212 213 1293 280 1357 C 346 1420 428 1467 526 1497 C 624 1527 736 1542 862 1542 C 938 1542 1006 1536 1067 1526 C 1128 1515 1183 1500 1232 1482 C 1281 1463 1324 1441 1362 1416 C 1400 1390 1433 1363 1462 1333 L 1257 1126 C 1237 1145 1214 1163 1190 1181 C 1166 1199 1138 1214 1107 1227 C 1075 1240 1039 1250 999 1258 C 959 1266 912 1270 860 1270 C 773 1270 699 1259 637 1238 C 575 1216 524 1184 484 1141 C 444 1098 414 1045 395 981 C 376 917 367 842 367 758 C 367 669 374 591 390 525 C 405 459 431 404 469 360 C 506 316 556 283 619 261 C 682 239 762 229 858 229 C 938 229 1005 236 1058 250 C 1110 264 1152 286 1183 316 C 1214 346 1236 383 1249 428 C 1261 472 1268 525 1268 586 L 1268 621 L 821 621 L 821 872 L 1556 872 L 1556 641 C 1556 533 1545 438 1523 356 C 1501 274 1463 204 1409 148 C 1355 92 1282 49 1190 20 C 1098 -8 983 -23 844 -23 Z M 811 1573 C 737 1573 675 1582 626 1601 C 576 1619 536 1645 504 1679 C 472 1712 447 1752 429 1799 C 411 1846 396 1898 385 1954 L 588 1993 C 595 1959 604 1930 614 1905 C 624 1880 638 1859 655 1843 C 671 1827 692 1814 717 1806 C 742 1798 773 1794 811 1794 C 849 1794 880 1798 906 1806 C 931 1814 952 1827 969 1843 C 985 1859 998 1880 1008 1905 C 1018 1930 1026 1959 1034 1993 L 1239 1956 C 1227 1899 1211 1847 1193 1800 C 1175 1753 1149 1713 1117 1679 C 1085 1645 1044 1619 995 1601 C 945 1582 884 1573 811 1573 Z" unicode="" />
<glyph horiz-adv-x="1307" d="M 629 422 C 597 422 568 422 541 424 C 513 425 487 428 463 432 C 459 424 455 415 453 407 C 450 399 449 391 449 383 C 449 368 451 356 457 347 C 463 337 473 330 488 325 C 503 320 524 317 550 315 C 576 313 609 313 651 313 C 766 313 861 308 937 298 C 1012 288 1072 272 1117 248 C 1161 224 1192 191 1210 151 C 1228 111 1237 60 1237 0 C 1237 -66 1225 -123 1201 -169 C 1177 -215 1140 -253 1090 -283 C 1040 -312 976 -333 899 -347 C 822 -360 731 -367 625 -367 C 519 -367 430 -363 356 -355 C 282 -347 221 -333 175 -312 C 129 -291 95 -262 74 -226 C 53 -189 43 -142 43 -84 C 43 -51 47 -21 56 7 C 64 35 78 60 96 83 C 114 105 138 125 167 141 C 195 157 230 169 270 178 C 241 197 222 220 214 248 C 205 276 201 306 201 338 C 201 368 205 396 213 424 C 221 452 234 477 252 500 C 156 558 109 655 109 791 C 109 853 118 909 138 957 C 158 1005 189 1046 231 1079 C 273 1112 326 1137 392 1154 C 458 1171 537 1180 629 1180 C 637 1180 645 1180 654 1180 C 663 1180 672 1179 682 1178 L 1190 1270 L 1190 1051 L 1016 1051 C 1058 1027 1092 995 1116 955 C 1140 915 1153 860 1153 791 C 1153 727 1142 672 1122 626 C 1102 580 1070 541 1027 511 C 984 481 930 458 864 444 C 798 429 719 422 629 422 Z M 635 -164 C 699 -164 751 -160 792 -154 C 833 -148 865 -138 889 -126 C 913 -114 929 -99 938 -81 C 947 -63 952 -42 952 -18 C 952 6 946 25 936 41 C 926 56 908 68 884 77 C 859 85 826 91 786 95 C 746 98 695 100 635 100 C 565 100 510 96 469 90 C 428 84 397 75 375 63 C 353 51 339 37 333 21 C 327 4 324 -14 324 -35 C 324 -58 328 -78 338 -94 C 348 -110 364 -124 388 -134 C 412 -144 444 -152 484 -157 C 524 -161 574 -164 635 -164 Z M 629 621 C 675 621 715 624 747 631 C 779 638 804 648 823 662 C 842 676 856 693 864 714 C 872 735 877 760 877 788 C 877 845 857 887 819 914 C 781 940 717 954 629 954 C 582 954 543 950 511 944 C 479 937 454 927 435 914 C 415 900 401 883 393 862 C 385 841 381 816 381 788 C 381 760 385 735 393 714 C 401 693 415 676 435 662 C 454 648 479 638 511 631 C 543 624 582 621 629 621 Z M 651 1237 C 577 1237 515 1246 466 1265 C 416 1283 376 1309 344 1343 C 312 1376 287 1416 269 1463 C 251 1510 236 1562 225 1618 L 428 1657 C 436 1623 445 1594 455 1569 C 465 1544 478 1523 495 1507 C 511 1491 532 1478 557 1470 C 582 1462 613 1458 651 1458 C 689 1458 720 1462 746 1470 C 771 1478 792 1491 809 1507 C 825 1523 838 1544 848 1569 C 858 1594 866 1623 874 1657 L 1079 1620 C 1067 1563 1051 1511 1033 1464 C 1015 1417 989 1377 957 1343 C 925 1309 884 1283 835 1265 C 785 1246 724 1237 651 1237 Z" unicode="" />
<glyph horiz-adv-x="1626" d="M 844 -23 C 696 -23 573 -6 475 28 C 376 62 297 112 238 178 C 179 244 137 326 113 424 C 88 521 76 633 76 760 C 76 897 93 1015 128 1114 C 162 1212 213 1293 280 1357 C 346 1420 428 1467 526 1497 C 624 1527 736 1542 862 1542 C 938 1542 1006 1536 1067 1526 C 1128 1515 1183 1500 1232 1482 C 1281 1463 1324 1441 1362 1416 C 1400 1390 1433 1363 1462 1333 L 1257 1126 C 1237 1145 1214 1163 1190 1181 C 1166 1199 1138 1214 1107 1227 C 1075 1240 1039 1250 999 1258 C 959 1266 912 1270 860 1270 C 773 1270 699 1259 637 1238 C 575 1216 524 1184 484 1141 C 444 1098 414 1045 395 981 C 376 917 367 842 367 758 C 367 669 374 591 390 525 C 405 459 431 404 469 360 C 506 316 556 283 619 261 C 682 239 762 229 858 229 C 938 229 1005 236 1058 250 C 1110 264 1152 286 1183 316 C 1214 346 1236 383 1249 428 C 1261 472 1268 525 1268 586 L 1268 621 L 821 621 L 821 872 L 1556 872 L 1556 641 C 1556 533 1545 438 1523 356 C 1501 274 1463 204 1409 148 C 1355 92 1282 49 1190 20 C 1098 -8 983 -23 844 -23 Z M 678 1868 L 961 1868 L 961 1597 L 678 1597 L 678 1868 Z" unicode="" />
<glyph horiz-adv-x="1307" d="M 629 422 C 597 422 568 422 541 424 C 513 425 487 428 463 432 C 459 424 455 415 453 407 C 450 399 449 391 449 383 C 449 368 451 356 457 347 C 463 337 473 330 488 325 C 503 320 524 317 550 315 C 576 313 609 313 651 313 C 766 313 861 308 937 298 C 1012 288 1072 272 1117 248 C 1161 224 1192 191 1210 151 C 1228 111 1237 60 1237 0 C 1237 -66 1225 -123 1201 -169 C 1177 -215 1140 -253 1090 -283 C 1040 -312 976 -333 899 -347 C 822 -360 731 -367 625 -367 C 519 -367 430 -363 356 -355 C 282 -347 221 -333 175 -312 C 129 -291 95 -262 74 -226 C 53 -189 43 -142 43 -84 C 43 -51 47 -21 56 7 C 64 35 78 60 96 83 C 114 105 138 125 167 141 C 195 157 230 169 270 178 C 241 197 222 220 214 248 C 205 276 201 306 201 338 C 201 368 205 396 213 424 C 221 452 234 477 252 500 C 156 558 109 655 109 791 C 109 853 118 909 138 957 C 158 1005 189 1046 231 1079 C 273 1112 326 1137 392 1154 C 458 1171 537 1180 629 1180 C 637 1180 645 1180 654 1180 C 663 1180 672 1179 682 1178 L 1190 1270 L 1190 1051 L 1016 1051 C 1058 1027 1092 995 1116 955 C 1140 915 1153 860 1153 791 C 1153 727 1142 672 1122 626 C 1102 580 1070 541 1027 511 C 984 481 930 458 864 444 C 798 429 719 422 629 422 Z M 635 -164 C 699 -164 751 -160 792 -154 C 833 -148 865 -138 889 -126 C 913 -114 929 -99 938 -81 C 947 -63 952 -42 952 -18 C 952 6 946 25 936 41 C 926 56 908 68 884 77 C 859 85 826 91 786 95 C 746 98 695 100 635 100 C 565 100 510 96 469 90 C 428 84 397 75 375 63 C 353 51 339 37 333 21 C 327 4 324 -14 324 -35 C 324 -58 328 -78 338 -94 C 348 -110 364 -124 388 -134 C 412 -144 444 -152 484 -157 C 524 -161 574 -164 635 -164 Z M 629 621 C 675 621 715 624 747 631 C 779 638 804 648 823 662 C 842 676 856 693 864 714 C 872 735 877 760 877 788 C 877 845 857 887 819 914 C 781 940 717 954 629 954 C 582 954 543 950 511 944 C 479 937 454 927 435 914 C 415 900 401 883 393 862 C 385 841 381 816 381 788 C 381 760 385 735 393 714 C 401 693 415 676 435 662 C 454 648 479 638 511 631 C 543 624 582 621 629 621 Z M 512 1532 L 795 1532 L 795 1262 L 512 1262 L 512 1532 Z" unicode="" />
<glyph horiz-adv-x="1626" d="M 670 -512 C 698 -498 721 -485 739 -475 C 757 -465 770 -454 780 -444 C 790 -434 796 -423 800 -411 C 803 -399 805 -384 805 -367 L 668 -367 L 668 -80 L 956 -80 L 956 -285 C 956 -335 953 -377 948 -411 C 943 -445 933 -475 917 -501 C 901 -527 878 -550 849 -570 C 819 -590 781 -611 733 -633 L 670 -512 Z M 844 -23 C 696 -23 573 -6 475 28 C 376 62 297 112 238 178 C 179 244 137 326 113 424 C 88 521 76 633 76 760 C 76 897 93 1015 128 1114 C 162 1212 213 1293 280 1357 C 346 1420 428 1467 526 1497 C 624 1527 736 1542 862 1542 C 938 1542 1006 1536 1067 1526 C 1128 1515 1183 1500 1232 1482 C 1281 1463 1324 1441 1362 1416 C 1400 1390 1433 1363 1462 1333 L 1257 1126 C 1237 1145 1214 1163 1190 1181 C 1166 1199 1138 1214 1107 1227 C 1075 1240 1039 1250 999 1258 C 959 1266 912 1270 860 1270 C 773 1270 699 1259 637 1238 C 575 1216 524 1184 484 1141 C 444 1098 414 1045 395 981 C 376 917 367 842 367 758 C 367 669 374 591 390 525 C 405 459 431 404 469 360 C 506 316 556 283 619 261 C 682 239 762 229 858 229 C 938 229 1005 236 1058 250 C 1110 264 1152 286 1183 316 C 1214 346 1236 383 1249 428 C 1261 472 1268 525 1268 586 L 1268 621 L 821 621 L 821 872 L 1556 872 L 1556 641 C 1556 533 1545 438 1523 356 C 1501 274 1463 204 1409 148 C 1355 92 1282 49 1190 20 C 1098 -8 983 -23 844 -23 Z" unicode="" />
<glyph horiz-adv-x="1307" d="M 506 1444 C 506 1494 508 1536 514 1571 C 519 1605 530 1635 546 1661 C 562 1686 585 1709 615 1729 C 645 1749 684 1770 733 1792 L 793 1673 C 765 1659 742 1646 724 1636 C 706 1626 693 1615 683 1605 C 673 1594 667 1582 664 1570 C 660 1558 659 1543 659 1526 L 795 1526 L 795 1264 L 506 1264 L 506 1444 Z M 629 422 C 597 422 568 422 541 424 C 513 425 487 428 463 432 C 459 424 455 415 453 407 C 450 399 449 391 449 383 C 449 368 451 356 457 347 C 463 337 473 330 488 325 C 503 320 524 317 550 315 C 576 313 609 313 651 313 C 766 313 861 308 937 298 C 1012 288 1072 272 1117 248 C 1161 224 1192 191 1210 151 C 1228 111 1237 60 1237 0 C 1237 -66 1225 -123 1201 -169 C 1177 -215 1140 -253 1090 -283 C 1040 -312 976 -333 899 -347 C 822 -360 731 -367 625 -367 C 519 -367 430 -363 356 -355 C 282 -347 221 -333 175 -312 C 129 -291 95 -262 74 -226 C 53 -189 43 -142 43 -84 C 43 -51 47 -21 56 7 C 64 35 78 60 96 83 C 114 105 138 125 167 141 C 195 157 230 169 270 178 C 241 197 222 220 214 248 C 205 276 201 306 201 338 C 201 368 205 396 213 424 C 221 452 234 477 252 500 C 156 558 109 655 109 791 C 109 853 118 909 138 957 C 158 1005 189 1046 231 1079 C 273 1112 326 1137 392 1154 C 458 1171 537 1180 629 1180 C 637 1180 645 1180 654 1180 C 663 1180 672 1179 682 1178 L 1190 1270 L 1190 1051 L 1016 1051 C 1058 1027 1092 995 1116 955 C 1140 915 1153 860 1153 791 C 1153 727 1142 672 1122 626 C 1102 580 1070 541 1027 511 C 984 481 930 458 864 444 C 798 429 719 422 629 422 Z M 635 -164 C 699 -164 751 -160 792 -154 C 833 -148 865 -138 889 -126 C 913 -114 929 -99 938 -81 C 947 -63 952 -42 952 -18 C 952 6 946 25 936 41 C 926 56 908 68 884 77 C 859 85 826 91 786 95 C 746 98 695 100 635 100 C 565 100 510 96 469 90 C 428 84 397 75 375 63 C 353 51 339 37 333 21 C 327 4 324 -14 324 -35 C 324 -58 328 -78 338 -94 C 348 -110 364 -124 388 -134 C 412 -144 444 -152 484 -157 C 524 -161 574 -164 635 -164 Z M 629 621 C 675 621 715 624 747 631 C 779 638 804 648 823 662 C 842 676 856 693 864 714 C 872 735 877 760 877 788 C 877 845 857 887 819 914 C 781 940 717 954 629 954 C 582 954 543 950 511 944 C 479 937 454 927 435 914 C 415 900 401 883 393 862 C 385 841 381 816 381 788 C 381 760 385 735 393 714 C 401 693 415 676 435 662 C 454 648 479 638 511 631 C 543 624 582 621 629 621 Z" unicode="" />
<glyph horiz-adv-x="1651" d="M 678 1964 L 969 1964 L 1286 1602 L 1022 1602 L 819 1788 L 621 1602 L 360 1602 L 678 1964 Z M 160 1518 L 451 1518 L 451 922 L 1200 922 L 1200 1518 L 1491 1518 L 1491 0 L 1200 0 L 1200 643 L 451 643 L 451 0 L 160 0 L 160 1518 Z" unicode="" />
<glyph horiz-adv-x="1337" d="M 131 1991 L 422 1991 L 739 1628 L 475 1628 L 272 1815 L 74 1628 L -186 1628 L 131 1991 Z M 135 1589 L 414 1589 L 414 1071 C 425 1085 441 1098 461 1111 C 481 1124 506 1136 537 1146 C 567 1156 604 1164 647 1170 C 689 1176 739 1180 797 1180 C 885 1180 956 1168 1010 1145 C 1064 1122 1105 1090 1135 1048 C 1165 1006 1185 955 1195 896 C 1205 837 1210 772 1210 700 L 1210 0 L 932 0 L 932 645 C 932 683 930 719 926 751 C 922 783 912 811 896 835 C 880 858 857 876 826 889 C 794 902 752 909 698 909 C 638 909 589 902 552 888 C 515 874 486 855 466 831 C 446 806 432 776 426 742 C 419 707 416 669 416 627 L 416 0 L 135 0 L 135 1589 Z" unicode="" />
<glyph horiz-adv-x="1651" d="M 53 1335 L 160 1335 L 160 1518 L 451 1518 L 451 1335 L 1200 1335 L 1200 1518 L 1491 1518 L 1491 1335 L 1595 1335 L 1595 1092 L 1491 1092 L 1491 0 L 1200 0 L 1200 643 L 451 643 L 451 0 L 160 0 L 160 1092 L 53 1092 L 53 1335 Z M 1200 922 L 1200 1092 L 451 1092 L 451 922 L 1200 922 Z" unicode="" />
<glyph horiz-adv-x="1337" d="M 135 1266 L 0 1266 L 0 1452 L 135 1452 L 135 1589 L 414 1589 L 414 1452 L 676 1452 L 676 1266 L 414 1266 L 414 1071 C 425 1085 441 1098 461 1111 C 481 1124 506 1136 537 1146 C 567 1156 604 1164 647 1170 C 689 1176 739 1180 797 1180 C 885 1180 956 1168 1010 1145 C 1064 1122 1105 1090 1135 1048 C 1165 1006 1185 955 1195 896 C 1205 837 1210 772 1210 700 L 1210 0 L 932 0 L 932 645 C 932 683 930 719 926 751 C 922 783 912 811 896 835 C 880 858 857 876 826 889 C 794 902 752 909 698 909 C 638 909 589 902 552 888 C 515 874 486 855 466 831 C 446 806 432 776 426 742 C 419 707 416 669 416 627 L 416 0 L 135 0 L 135 1266 Z" unicode="" />
<glyph horiz-adv-x="649" d="M 180 1518 L 469 1518 L 469 0 L 180 0 L 180 1518 Z M -143 1729 C -118 1759 -92 1787 -66 1812 C -39 1836 -12 1857 14 1875 C 41 1893 68 1906 96 1916 C 123 1926 150 1931 178 1931 C 213 1931 243 1925 268 1914 C 293 1903 316 1891 336 1878 C 356 1864 376 1852 396 1841 C 415 1830 437 1825 461 1825 C 509 1825 565 1864 629 1942 L 788 1812 C 762 1780 736 1752 710 1726 C 684 1700 657 1678 630 1660 C 603 1642 576 1627 548 1617 C 520 1607 493 1602 467 1602 C 433 1602 403 1607 379 1618 C 354 1629 331 1641 310 1655 C 289 1668 269 1680 249 1691 C 229 1702 206 1708 182 1708 C 159 1708 134 1699 106 1682 C 78 1664 49 1636 18 1597 L -143 1729 Z" unicode="" />
<glyph horiz-adv-x="571" d="M 147 1153 L 424 1153 L 424 0 L 147 0 L 147 1153 Z M -180 1393 C -130 1455 -77 1504 -22 1540 C 32 1576 87 1595 141 1595 C 176 1595 206 1589 231 1578 C 256 1567 279 1555 299 1542 C 319 1528 339 1516 359 1505 C 378 1494 400 1489 424 1489 C 472 1489 528 1528 592 1606 L 752 1477 C 726 1445 700 1417 674 1391 C 648 1365 621 1342 594 1324 C 566 1306 539 1291 512 1281 C 484 1271 457 1266 430 1266 C 396 1266 366 1271 342 1282 C 317 1293 294 1305 273 1319 C 252 1332 232 1344 212 1355 C 192 1366 169 1372 145 1372 C 122 1372 97 1363 69 1346 C 41 1328 12 1300 -18 1262 L -180 1393 Z" unicode="" />
<glyph horiz-adv-x="649" d="M 180 1518 L 469 1518 L 469 0 L 180 0 L 180 1518 Z M -88 1812 L 741 1812 L 741 1583 L -88 1583 L -88 1812 Z" unicode="" />
<glyph horiz-adv-x="571" d="M 147 1153 L 424 1153 L 424 0 L 147 0 L 147 1153 Z M -125 1477 L 705 1477 L 705 1247 L -125 1247 L -125 1477 Z" unicode="" />
<glyph horiz-adv-x="649" d="M 180 1518 L 469 1518 L 469 0 L 180 0 L 180 1518 Z M 326 1573 C 252 1573 190 1582 141 1601 C 91 1619 51 1645 19 1679 C -13 1712 -38 1752 -56 1799 C -74 1846 -88 1898 -100 1954 L 102 1993 C 110 1959 119 1930 129 1905 C 139 1880 152 1859 169 1843 C 185 1827 206 1814 232 1806 C 257 1798 288 1794 326 1794 C 364 1794 395 1798 420 1806 C 445 1814 466 1827 483 1843 C 499 1859 513 1880 523 1905 C 533 1930 541 1959 549 1993 L 754 1956 C 742 1899 726 1847 708 1800 C 689 1753 663 1713 631 1679 C 599 1645 558 1619 509 1601 C 459 1582 398 1573 326 1573 Z" unicode="" />
<glyph horiz-adv-x="571" d="M 147 1153 L 424 1153 L 424 0 L 147 0 L 147 1153 Z M 289 1237 C 215 1237 153 1246 104 1265 C 54 1283 14 1309 -18 1343 C -50 1376 -75 1416 -93 1463 C -111 1510 -125 1562 -137 1618 L 66 1657 C 73 1623 82 1594 92 1569 C 102 1544 116 1523 132 1507 C 148 1491 169 1478 195 1470 C 220 1462 251 1458 289 1458 C 327 1458 358 1462 383 1470 C 408 1478 429 1491 446 1507 C 462 1523 476 1544 486 1569 C 496 1594 504 1623 512 1657 L 717 1620 C 705 1563 689 1511 671 1464 C 653 1417 627 1377 595 1343 C 563 1309 522 1283 473 1265 C 423 1246 362 1237 289 1237 Z" unicode="" />
<glyph horiz-adv-x="649" d="M 346 -475 C 290 -475 243 -470 205 -460 C 167 -450 137 -436 115 -418 C 92 -400 76 -378 67 -353 C 57 -327 53 -299 53 -268 C 53 -234 57 -204 67 -176 C 76 -148 88 -123 103 -101 C 117 -78 134 -58 152 -42 C 170 -25 189 -11 207 0 L 180 0 L 180 1518 L 469 1518 L 469 0 C 400 -43 350 -82 318 -117 C 286 -152 270 -184 270 -213 C 270 -225 271 -237 274 -247 C 276 -257 282 -266 290 -274 C 298 -281 310 -287 325 -291 C 339 -295 359 -297 383 -297 C 413 -297 442 -293 470 -287 C 498 -280 522 -273 543 -266 L 598 -420 C 562 -436 522 -450 479 -460 C 436 -470 392 -475 346 -475 Z" unicode="" />
<glyph horiz-adv-x="571" d="M 301 -475 C 245 -475 198 -470 160 -460 C 122 -450 92 -436 70 -418 C 47 -400 31 -378 22 -353 C 12 -327 8 -299 8 -268 C 8 -234 12 -204 22 -176 C 32 -148 44 -123 60 -101 C 75 -78 92 -58 111 -41 C 130 -24 149 -10 168 2 L 147 2 L 147 1153 L 424 1153 L 424 0 C 354 -43 303 -82 272 -117 C 240 -152 225 -184 225 -213 C 225 -225 226 -237 229 -247 C 231 -257 237 -266 245 -274 C 253 -281 265 -287 280 -291 C 294 -295 314 -297 338 -297 C 368 -297 397 -293 425 -287 C 453 -280 477 -273 498 -266 L 553 -420 C 517 -436 477 -450 434 -460 C 391 -470 347 -475 301 -475 Z M 145 1546 L 426 1546 L 426 1270 L 145 1270 L 145 1546 Z" unicode="" />
<glyph horiz-adv-x="649" d="M 180 1518 L 469 1518 L 469 0 L 180 0 L 180 1518 Z M 184 1868 L 467 1868 L 467 1597 L 184 1597 L 184 1868 Z" unicode="" />
<glyph horiz-adv-x="571" d="M 147 1153 L 424 1153 L 424 0 L 147 0 L 147 1153 Z" unicode="" />
<glyph horiz-adv-x="1552" d="M 180 1518 L 469 1518 L 469 0 L 180 0 L 180 1518 Z M 903 -4 C 873 -4 849 -4 831 -4 C 812 -4 795 -3 781 -3 C 767 -3 753 -2 740 -2 C 727 -2 712 -1 696 0 L 696 260 L 868 260 C 914 260 952 264 984 272 C 1015 280 1040 293 1059 311 C 1078 329 1092 351 1100 379 C 1108 407 1112 440 1112 479 L 1112 1518 L 1401 1518 L 1401 469 C 1401 377 1389 300 1365 239 C 1341 178 1308 130 1265 94 C 1221 58 1169 32 1108 18 C 1046 3 978 -4 903 -4 Z" unicode="" />
<glyph horiz-adv-x="1145" d="M 147 1153 L 424 1153 L 424 0 L 147 0 L 147 1153 Z M 145 1546 L 426 1546 L 426 1270 L 145 1270 L 145 1546 Z M 575 -127 L 598 -127 C 624 -127 644 -124 660 -120 C 676 -115 688 -107 696 -95 C 704 -83 710 -68 713 -48 C 715 -28 717 -2 717 29 L 717 1153 L 993 1153 L 993 31 C 993 -43 987 -104 977 -153 C 967 -201 948 -240 921 -269 C 893 -297 856 -317 809 -329 C 761 -340 701 -346 627 -346 L 575 -346 L 575 -127 Z M 715 1546 L 995 1546 L 995 1270 L 715 1270 L 715 1546 Z" unicode="" />
<glyph horiz-adv-x="903" d="M 461 1964 L 752 1964 L 1069 1602 L 805 1602 L 602 1788 L 403 1602 L 143 1602 L 461 1964 Z M 256 -4 C 226 -4 202 -4 184 -4 C 165 -4 148 -3 134 -3 C 120 -3 106 -2 93 -2 C 80 -2 65 -1 49 0 L 49 260 L 221 260 C 267 260 305 264 337 272 C 368 280 393 293 412 311 C 431 329 445 351 453 379 C 461 407 465 440 465 479 L 465 1518 L 754 1518 L 754 469 C 754 377 742 300 718 239 C 694 178 661 130 618 94 C 574 58 522 32 461 18 C 399 3 331 -4 256 -4 Z" unicode="" />
<glyph horiz-adv-x="571" d="M 6 -131 L 29 -131 C 55 -131 75 -128 91 -124 C 107 -119 119 -111 127 -99 C 135 -87 140 -72 143 -52 C 145 -32 147 -6 147 25 L 147 1153 L 424 1153 L 424 27 C 424 -46 418 -107 408 -155 C 397 -203 378 -241 351 -269 C 323 -297 286 -317 239 -329 C 191 -340 131 -346 57 -346 L 6 -346 L 6 -131 Z M 143 1628 L 434 1628 L 752 1266 L 487 1266 L 285 1452 L 86 1266 L -174 1266 L 143 1628 Z" unicode="" />
<glyph horiz-adv-x="1528" d="M 618 -512 C 646 -498 669 -485 687 -475 C 705 -465 719 -454 729 -444 C 739 -434 745 -423 749 -411 C 752 -399 754 -384 754 -367 L 616 -367 L 616 -80 L 905 -80 L 905 -285 C 905 -335 902 -377 897 -411 C 891 -445 881 -475 865 -501 C 849 -527 827 -550 798 -570 C 768 -590 730 -611 682 -633 L 618 -512 Z M 682 698 L 446 424 L 446 0 L 160 0 L 160 1518 L 446 1518 L 446 795 L 1067 1518 L 1395 1518 L 874 918 L 1468 0 L 1139 0 L 682 698 Z" unicode="" />
<glyph horiz-adv-x="1206" d="M 457 -512 C 485 -498 508 -485 526 -475 C 544 -465 557 -454 567 -444 C 577 -434 583 -423 587 -411 C 590 -399 592 -384 592 -367 L 455 -367 L 455 -80 L 743 -80 L 743 -285 C 743 -335 740 -377 735 -411 C 730 -445 720 -475 704 -501 C 688 -527 665 -550 636 -570 C 606 -590 568 -611 520 -633 L 457 -512 Z M 135 1589 L 412 1589 L 412 639 L 842 1153 L 1149 1153 L 756 680 L 1186 0 L 877 0 L 569 473 L 412 291 L 412 0 L 135 0 L 135 1589 Z" unicode="" />
<glyph horiz-adv-x="1206" d="M 135 1153 L 412 1153 L 412 639 L 842 1153 L 1149 1153 L 756 680 L 1186 0 L 877 0 L 569 473 L 412 291 L 412 0 L 135 0 L 135 1153 Z" unicode="" />
<glyph horiz-adv-x="1249" d="M 471 1964 L 809 1964 L 428 1602 L 178 1602 L 471 1964 Z M 160 1518 L 451 1518 L 451 260 L 1212 260 L 1212 0 L 160 0 L 160 1518 Z" unicode="" />
<glyph horiz-adv-x="674" d="M 446 2032 L 784 2032 L 403 1669 L 154 1669 L 446 2032 Z M 442 -4 C 392 -4 348 1 311 13 C 274 24 243 43 219 69 C 195 95 177 129 165 173 C 153 216 147 270 147 334 L 147 1589 L 424 1589 L 424 367 C 424 343 425 322 428 306 C 431 290 437 277 445 267 C 453 257 465 250 481 246 C 497 242 517 240 543 240 L 584 240 L 584 4 C 572 2 554 0 528 -1 C 502 -3 473 -4 442 -4 Z" unicode="" />
<glyph horiz-adv-x="1249" d="M 479 -512 C 507 -498 530 -485 548 -475 C 566 -465 579 -454 589 -444 C 599 -434 605 -423 609 -411 C 612 -399 614 -384 614 -367 L 477 -367 L 477 -80 L 766 -80 L 766 -285 C 766 -335 763 -377 758 -411 C 752 -445 742 -475 726 -501 C 710 -527 688 -550 659 -570 C 629 -590 591 -611 543 -633 L 479 -512 Z M 160 1518 L 451 1518 L 451 260 L 1212 260 L 1212 0 L 160 0 L 160 1518 Z" unicode="" />
<glyph horiz-adv-x="674" d="M 193 -512 C 221 -498 244 -485 262 -475 C 280 -465 293 -454 303 -444 C 313 -434 319 -423 323 -411 C 326 -399 328 -384 328 -367 L 190 -367 L 190 -80 L 479 -80 L 479 -285 C 479 -335 476 -377 471 -411 C 466 -445 456 -475 440 -501 C 424 -527 401 -550 372 -570 C 342 -590 304 -611 256 -633 L 193 -512 Z M 442 -4 C 392 -4 348 1 311 13 C 274 24 243 43 219 69 C 195 95 177 129 165 173 C 153 216 147 270 147 334 L 147 1589 L 424 1589 L 424 367 C 424 343 425 322 428 306 C 431 290 437 277 445 267 C 453 257 465 250 481 246 C 497 242 517 240 543 240 L 584 240 L 584 4 C 572 2 554 0 528 -1 C 502 -3 473 -4 442 -4 Z" unicode="" />
<glyph horiz-adv-x="1249" d="M 608 1157 C 636 1171 658 1183 676 1193 C 694 1203 708 1214 718 1224 C 728 1234 734 1246 738 1258 C 741 1270 743 1285 743 1303 L 618 1303 L 618 1589 L 895 1589 L 895 1384 C 895 1334 892 1291 887 1257 C 881 1223 871 1193 855 1167 C 839 1141 817 1118 788 1098 C 758 1078 720 1057 672 1036 L 608 1157 Z M 160 1518 L 451 1518 L 451 260 L 1212 260 L 1212 0 L 160 0 L 160 1518 Z" unicode="" />
<glyph horiz-adv-x="856" d="M 565 1157 C 593 1171 615 1183 633 1193 C 651 1203 665 1214 675 1224 C 685 1234 691 1246 695 1258 C 698 1270 700 1285 700 1303 L 575 1303 L 575 1589 L 852 1589 L 852 1384 C 852 1334 849 1291 844 1257 C 838 1223 828 1193 812 1167 C 796 1141 774 1118 745 1098 C 715 1078 677 1057 629 1036 L 565 1157 Z M 442 -4 C 392 -4 348 1 311 13 C 274 24 243 43 219 69 C 195 95 177 129 165 173 C 153 216 147 270 147 334 L 147 1589 L 424 1589 L 424 367 C 424 343 425 322 428 306 C 431 290 437 277 445 267 C 453 257 465 250 481 246 C 497 242 517 240 543 240 L 584 240 L 584 4 C 572 2 554 0 528 -1 C 502 -3 473 -4 442 -4 Z" unicode="" />
<glyph horiz-adv-x="1395" d="M 160 1518 L 451 1518 L 451 260 L 1212 260 L 1212 0 L 160 0 L 160 1518 Z M 850 956 L 1180 956 L 1180 610 L 850 610 L 850 956 Z" unicode="" />
<glyph horiz-adv-x="1182" d="M 442 -4 C 392 -4 348 1 311 13 C 274 24 243 43 219 69 C 195 95 177 129 165 173 C 153 216 147 270 147 334 L 147 1589 L 424 1589 L 424 367 C 424 343 425 322 428 306 C 431 290 437 277 445 267 C 453 257 465 250 481 246 C 497 242 517 240 543 240 L 584 240 L 584 4 C 572 2 554 0 528 -1 C 502 -3 473 -4 442 -4 Z M 717 907 L 1047 907 L 1047 561 L 717 561 L 717 907 Z" unicode="" />
<glyph horiz-adv-x="1249" d="M 0 793 L 160 881 L 160 1518 L 451 1518 L 451 1040 L 748 1206 L 748 965 L 451 801 L 451 260 L 1212 260 L 1212 0 L 160 0 L 160 641 L 0 553 L 0 793 Z" unicode="" />
<glyph horiz-adv-x="803" d="M 49 932 L 236 1038 L 236 1589 L 514 1589 L 514 1200 L 713 1315 L 713 1077 L 514 963 L 514 362 C 514 337 515 317 518 301 C 520 285 526 272 534 262 C 542 252 554 246 570 242 C 585 238 605 236 631 236 L 674 236 L 674 4 C 661 2 642 0 616 -1 C 590 -3 562 -4 532 -4 C 480 -4 436 1 399 12 C 362 23 331 42 307 68 C 283 94 265 128 253 171 C 241 213 236 266 236 330 L 236 803 L 49 696 L 49 932 Z" unicode="" />
<glyph horiz-adv-x="1663" d="M 924 1964 L 1262 1964 L 881 1602 L 631 1602 L 924 1964 Z M 160 1518 L 475 1518 L 1223 492 L 1223 1518 L 1503 1518 L 1503 0 L 1237 0 L 440 1087 L 440 0 L 160 0 L 160 1518 Z" unicode="" />
<glyph horiz-adv-x="1337" d="M 762 1628 L 1100 1628 L 719 1266 L 469 1266 L 762 1628 Z M 135 1137 L 352 1153 L 377 1053 C 391 1069 409 1085 431 1101 C 453 1116 481 1129 515 1141 C 548 1153 588 1162 634 1169 C 680 1176 734 1180 797 1180 C 885 1180 956 1168 1010 1145 C 1064 1122 1105 1090 1135 1048 C 1165 1006 1185 955 1195 896 C 1205 837 1210 772 1210 700 L 1210 0 L 932 0 L 932 645 C 932 683 930 719 926 751 C 922 783 912 811 896 835 C 880 858 857 876 826 889 C 794 902 752 909 698 909 C 638 909 589 902 552 888 C 515 874 486 855 466 831 C 446 806 432 776 426 742 C 419 707 416 669 416 627 L 416 0 L 135 0 L 135 1137 Z" unicode="" />
<glyph horiz-adv-x="1663" d="M 686 -512 C 714 -498 737 -485 755 -475 C 773 -465 786 -454 796 -444 C 806 -434 812 -423 816 -411 C 819 -399 821 -384 821 -367 L 684 -367 L 684 -80 L 973 -80 L 973 -285 C 973 -335 970 -377 965 -411 C 959 -445 949 -475 933 -501 C 917 -527 895 -550 866 -570 C 836 -590 798 -611 750 -633 L 686 -512 Z M 160 1518 L 475 1518 L 1223 492 L 1223 1518 L 1503 1518 L 1503 0 L 1237 0 L 440 1087 L 440 0 L 160 0 L 160 1518 Z" unicode="" />
<glyph horiz-adv-x="1337" d="M 524 -512 C 552 -498 575 -485 593 -475 C 611 -465 624 -454 634 -444 C 644 -434 650 -423 654 -411 C 657 -399 659 -384 659 -367 L 522 -367 L 522 -80 L 811 -80 L 811 -285 C 811 -335 808 -377 803 -411 C 797 -445 787 -475 771 -501 C 755 -527 733 -550 704 -570 C 674 -590 636 -611 588 -633 L 524 -512 Z M 135 1137 L 352 1153 L 377 1053 C 391 1069 409 1085 431 1101 C 453 1116 481 1129 515 1141 C 548 1153 588 1162 634 1169 C 680 1176 734 1180 797 1180 C 885 1180 956 1168 1010 1145 C 1064 1122 1105 1090 1135 1048 C 1165 1006 1185 955 1195 896 C 1205 837 1210 772 1210 700 L 1210 0 L 932 0 L 932 645 C 932 683 930 719 926 751 C 922 783 912 811 896 835 C 880 858 857 876 826 889 C 794 902 752 909 698 909 C 638 909 589 902 552 888 C 515 874 486 855 466 831 C 446 806 432 776 426 742 C 419 707 416 669 416 627 L 416 0 L 135 0 L 135 1137 Z" unicode="" />
<glyph horiz-adv-x="1663" d="M 365 1964 L 631 1964 L 831 1780 L 1030 1964 L 1290 1964 L 973 1602 L 682 1602 L 365 1964 Z M 160 1518 L 475 1518 L 1223 492 L 1223 1518 L 1503 1518 L 1503 0 L 1237 0 L 440 1087 L 440 0 L 160 0 L 160 1518 Z" unicode="" />
<glyph horiz-adv-x="1337" d="M 203 1628 L 469 1628 L 670 1444 L 868 1628 L 1128 1628 L 811 1266 L 520 1266 L 203 1628 Z M 135 1137 L 352 1153 L 377 1053 C 391 1069 409 1085 431 1101 C 453 1116 481 1129 515 1141 C 548 1153 588 1162 634 1169 C 680 1176 734 1180 797 1180 C 885 1180 956 1168 1010 1145 C 1064 1122 1105 1090 1135 1048 C 1165 1006 1185 955 1195 896 C 1205 837 1210 772 1210 700 L 1210 0 L 932 0 L 932 645 C 932 683 930 719 926 751 C 922 783 912 811 896 835 C 880 858 857 876 826 889 C 794 902 752 909 698 909 C 638 909 589 902 552 888 C 515 874 486 855 466 831 C 446 806 432 776 426 742 C 419 707 416 669 416 627 L 416 0 L 135 0 L 135 1137 Z" unicode="" />
<glyph horiz-adv-x="1835" d="M 125 997 C 157 1012 183 1026 203 1038 C 223 1050 239 1063 250 1076 C 261 1089 269 1104 273 1120 C 277 1136 279 1155 279 1178 L 121 1178 L 121 1518 L 451 1518 L 451 1274 C 451 1214 448 1163 442 1121 C 436 1079 425 1042 407 1011 C 389 980 363 952 329 928 C 295 903 251 878 195 854 L 125 997 Z M 633 1137 L 850 1153 L 874 1053 C 888 1069 907 1085 929 1101 C 951 1116 978 1129 1012 1141 C 1045 1153 1085 1162 1131 1169 C 1177 1176 1231 1180 1294 1180 C 1382 1180 1453 1168 1507 1145 C 1561 1122 1603 1090 1633 1048 C 1663 1006 1683 955 1693 896 C 1703 837 1708 772 1708 700 L 1708 0 L 1430 0 L 1430 645 C 1430 683 1428 719 1424 751 C 1420 783 1410 811 1394 835 C 1378 858 1355 876 1324 889 C 1292 902 1250 909 1196 909 C 1135 909 1086 902 1049 888 C 1012 874 983 855 963 831 C 943 806 929 776 923 742 C 916 707 913 669 913 627 L 913 0 L 633 0 L 633 1137 Z" unicode="" />
<glyph horiz-adv-x="1663" d="M 160 1518 L 475 1518 L 1227 487 L 1227 1518 L 1503 1518 L 1503 86 C 1503 -6 1491 -82 1467 -142 C 1443 -202 1410 -251 1367 -287 C 1323 -323 1271 -348 1210 -363 C 1149 -377 1081 -385 1006 -385 C 980 -385 956 -384 936 -384 C 916 -384 897 -383 881 -383 C 865 -383 850 -382 837 -382 C 823 -382 811 -381 799 -381 L 799 -129 L 971 -129 C 1048 -129 1105 -115 1141 -89 C 1177 -63 1200 -21 1208 35 L 438 1092 L 438 0 L 160 0 L 160 1518 Z" unicode="" />
<glyph horiz-adv-x="1337" d="M 791 -131 L 813 -131 C 839 -131 860 -128 876 -124 C 892 -119 904 -111 912 -99 C 920 -87 926 -72 928 -52 C 930 -32 932 -6 932 25 L 932 647 C 932 685 930 721 926 754 C 922 787 912 815 896 839 C 880 863 857 881 826 895 C 794 908 752 915 698 915 C 638 915 589 908 552 894 C 515 880 486 860 466 835 C 446 809 432 779 426 744 C 419 709 416 671 416 629 L 416 0 L 135 0 L 135 1137 L 352 1153 L 377 1016 C 391 1037 409 1058 431 1078 C 453 1098 481 1115 515 1130 C 548 1145 588 1157 634 1166 C 680 1175 734 1180 797 1180 C 885 1180 956 1168 1010 1145 C 1064 1121 1105 1089 1135 1047 C 1165 1005 1185 954 1195 895 C 1205 836 1210 771 1210 700 L 1210 10 C 1210 -59 1204 -116 1193 -162 C 1181 -208 1162 -244 1134 -271 C 1106 -298 1068 -317 1021 -329 C 973 -340 914 -346 842 -346 L 791 -346 L 791 -131 Z" unicode="" />
<glyph horiz-adv-x="1737" d="M 453 1812 L 1282 1812 L 1282 1583 L 453 1583 L 453 1812 Z M 868 -25 C 746 -25 637 -10 539 18 C 441 46 358 92 290 155 C 221 218 168 299 131 399 C 94 498 76 618 76 760 C 76 900 94 1020 131 1119 C 168 1218 221 1299 290 1362 C 358 1424 441 1470 539 1499 C 637 1527 746 1542 868 1542 C 988 1542 1098 1527 1196 1499 C 1294 1470 1377 1424 1447 1362 C 1516 1299 1569 1218 1607 1119 C 1644 1020 1663 900 1663 760 C 1663 618 1644 498 1607 399 C 1569 299 1516 218 1447 155 C 1377 92 1294 46 1196 18 C 1098 -10 988 -25 868 -25 Z M 868 240 C 959 240 1036 251 1100 275 C 1163 298 1214 332 1254 376 C 1294 420 1323 474 1341 538 C 1359 602 1368 674 1368 756 C 1368 836 1359 907 1341 971 C 1323 1035 1294 1089 1254 1133 C 1214 1177 1163 1211 1100 1235 C 1036 1258 959 1270 868 1270 C 776 1270 699 1258 636 1235 C 572 1211 521 1177 482 1133 C 442 1089 414 1035 396 971 C 378 907 369 836 369 756 C 369 674 378 602 396 538 C 414 474 442 420 482 376 C 521 332 572 298 636 275 C 699 251 776 240 868 240 Z" unicode="" />
<glyph horiz-adv-x="1339" d="M 254 1477 L 1083 1477 L 1083 1247 L 254 1247 L 254 1477 Z M 670 -23 C 564 -23 473 -9 399 16 C 324 42 263 81 216 132 C 168 183 134 246 112 321 C 90 396 80 482 80 580 C 80 677 90 763 112 838 C 134 912 168 975 216 1026 C 263 1076 324 1115 399 1141 C 473 1167 564 1180 670 1180 C 776 1180 867 1167 942 1141 C 1016 1115 1077 1076 1124 1026 C 1171 975 1205 912 1227 838 C 1249 763 1260 677 1260 580 C 1260 482 1249 396 1227 321 C 1205 246 1171 183 1124 132 C 1077 81 1016 42 942 16 C 867 -9 776 -23 670 -23 Z M 670 223 C 729 223 778 231 818 247 C 858 263 889 286 913 316 C 937 346 954 382 964 425 C 974 468 979 517 979 571 C 979 625 974 673 964 717 C 954 760 937 797 913 827 C 889 857 858 880 818 896 C 778 912 729 920 670 920 C 610 920 561 912 521 896 C 481 880 450 857 426 827 C 402 797 385 760 375 717 C 365 673 360 625 360 571 C 360 517 365 468 375 425 C 385 382 402 346 426 316 C 450 286 481 263 521 247 C 561 231 610 223 670 223 Z" unicode="" />
<glyph horiz-adv-x="1737" d="M 868 -25 C 746 -25 637 -10 539 18 C 441 46 358 92 290 155 C 221 218 168 299 131 399 C 94 498 76 618 76 760 C 76 900 94 1020 131 1119 C 168 1218 221 1299 290 1362 C 358 1424 441 1470 539 1499 C 637 1527 746 1542 868 1542 C 988 1542 1098 1527 1196 1499 C 1294 1470 1377 1424 1447 1362 C 1516 1299 1569 1218 1607 1119 C 1644 1020 1663 900 1663 760 C 1663 618 1644 498 1607 399 C 1569 299 1516 218 1447 155 C 1377 92 1294 46 1196 18 C 1098 -10 988 -25 868 -25 Z M 868 240 C 959 240 1036 251 1100 275 C 1163 298 1214 332 1254 376 C 1294 420 1323 474 1341 538 C 1359 602 1368 674 1368 756 C 1368 836 1359 907 1341 971 C 1323 1035 1294 1089 1254 1133 C 1214 1177 1163 1211 1100 1235 C 1036 1258 959 1270 868 1270 C 776 1270 699 1258 636 1235 C 572 1211 521 1177 482 1133 C 442 1089 414 1035 396 971 C 378 907 369 836 369 756 C 369 674 378 602 396 538 C 414 474 442 420 482 376 C 521 332 572 298 636 275 C 699 251 776 240 868 240 Z M 866 1573 C 792 1573 730 1582 681 1601 C 631 1619 591 1645 559 1679 C 527 1712 502 1752 484 1799 C 466 1846 451 1898 440 1954 L 643 1993 C 651 1959 660 1930 670 1905 C 680 1880 693 1859 710 1843 C 726 1827 747 1814 772 1806 C 797 1798 828 1794 866 1794 C 904 1794 935 1798 961 1806 C 986 1814 1007 1827 1024 1843 C 1040 1859 1054 1880 1064 1905 C 1074 1930 1082 1959 1090 1993 L 1294 1956 C 1282 1899 1266 1847 1248 1800 C 1230 1753 1204 1713 1172 1679 C 1140 1645 1099 1619 1050 1601 C 1000 1582 939 1573 866 1573 Z" unicode="" />
<glyph horiz-adv-x="1339" d="M 670 -23 C 564 -23 473 -9 399 16 C 324 42 263 81 216 132 C 168 183 134 246 112 321 C 90 396 80 482 80 580 C 80 677 90 763 112 838 C 134 912 168 975 216 1026 C 263 1076 324 1115 399 1141 C 473 1167 564 1180 670 1180 C 776 1180 867 1167 942 1141 C 1016 1115 1077 1076 1124 1026 C 1171 975 1205 912 1227 838 C 1249 763 1260 677 1260 580 C 1260 482 1249 396 1227 321 C 1205 246 1171 183 1124 132 C 1077 81 1016 42 942 16 C 867 -9 776 -23 670 -23 Z M 670 223 C 729 223 778 231 818 247 C 858 263 889 286 913 316 C 937 346 954 382 964 425 C 974 468 979 517 979 571 C 979 625 974 673 964 717 C 954 760 937 797 913 827 C 889 857 858 880 818 896 C 778 912 729 920 670 920 C 610 920 561 912 521 896 C 481 880 450 857 426 827 C 402 797 385 760 375 717 C 365 673 360 625 360 571 C 360 517 365 468 375 425 C 385 382 402 346 426 316 C 450 286 481 263 521 247 C 561 231 610 223 670 223 Z M 668 1237 C 594 1237 532 1246 483 1265 C 433 1283 393 1309 361 1343 C 329 1376 304 1416 286 1463 C 268 1510 253 1562 242 1618 L 444 1657 C 452 1623 461 1594 471 1569 C 481 1544 494 1523 511 1507 C 527 1491 548 1478 574 1470 C 599 1462 630 1458 668 1458 C 706 1458 737 1462 762 1470 C 787 1478 808 1491 825 1507 C 841 1523 855 1544 865 1569 C 875 1594 883 1623 891 1657 L 1096 1620 C 1084 1563 1068 1511 1050 1464 C 1032 1417 1006 1377 974 1343 C 942 1309 901 1283 852 1265 C 802 1246 741 1237 668 1237 Z" unicode="" />
<glyph horiz-adv-x="1737" d="M 662 1962 L 985 1962 L 639 1602 L 403 1602 L 662 1962 Z M 1192 1962 L 1516 1962 L 1171 1602 L 934 1602 L 1192 1962 Z M 868 -25 C 746 -25 637 -10 539 18 C 441 46 358 92 290 155 C 221 218 168 299 131 399 C 94 498 76 618 76 760 C 76 900 94 1020 131 1119 C 168 1218 221 1299 290 1362 C 358 1424 441 1470 539 1499 C 637 1527 746 1542 868 1542 C 988 1542 1098 1527 1196 1499 C 1294 1470 1377 1424 1447 1362 C 1516 1299 1569 1218 1607 1119 C 1644 1020 1663 900 1663 760 C 1663 618 1644 498 1607 399 C 1569 299 1516 218 1447 155 C 1377 92 1294 46 1196 18 C 1098 -10 988 -25 868 -25 Z M 868 240 C 959 240 1036 251 1100 275 C 1163 298 1214 332 1254 376 C 1294 420 1323 474 1341 538 C 1359 602 1368 674 1368 756 C 1368 836 1359 907 1341 971 C 1323 1035 1294 1089 1254 1133 C 1214 1177 1163 1211 1100 1235 C 1036 1258 959 1270 868 1270 C 776 1270 699 1258 636 1235 C 572 1211 521 1177 482 1133 C 442 1089 414 1035 396 971 C 378 907 369 836 369 756 C 369 674 378 602 396 538 C 414 474 442 420 482 376 C 521 332 572 298 636 275 C 699 251 776 240 868 240 Z" unicode="" />
<glyph horiz-adv-x="1339" d="M 463 1626 L 786 1626 L 440 1266 L 205 1266 L 463 1626 Z M 993 1626 L 1317 1626 L 973 1266 L 735 1266 L 993 1626 Z M 670 -23 C 564 -23 473 -9 399 16 C 324 42 263 81 216 132 C 168 183 134 246 112 321 C 90 396 80 482 80 580 C 80 677 90 763 112 838 C 134 912 168 975 216 1026 C 263 1076 324 1115 399 1141 C 473 1167 564 1180 670 1180 C 776 1180 867 1167 942 1141 C 1016 1115 1077 1076 1124 1026 C 1171 975 1205 912 1227 838 C 1249 763 1260 677 1260 580 C 1260 482 1249 396 1227 321 C 1205 246 1171 183 1124 132 C 1077 81 1016 42 942 16 C 867 -9 776 -23 670 -23 Z M 670 223 C 729 223 778 231 818 247 C 858 263 889 286 913 316 C 937 346 954 382 964 425 C 974 468 979 517 979 571 C 979 625 974 673 964 717 C 954 760 937 797 913 827 C 889 857 858 880 818 896 C 778 912 729 920 670 920 C 610 920 561 912 521 896 C 481 880 450 857 426 827 C 402 797 385 760 375 717 C 365 673 360 625 360 571 C 360 517 365 468 375 425 C 385 382 402 346 426 316 C 450 286 481 263 521 247 C 561 231 610 223 670 223 Z" unicode="" />
<glyph horiz-adv-x="2585" d="M 1389 141 C 1328 85 1255 44 1169 16 C 1083 -11 982 -25 868 -25 C 744 -25 634 -10 536 18 C 438 46 355 92 287 155 C 219 218 166 299 130 399 C 94 498 76 618 76 760 C 76 900 94 1020 130 1119 C 166 1218 219 1299 287 1362 C 355 1424 438 1470 536 1499 C 634 1527 744 1542 868 1542 C 1094 1542 1268 1486 1389 1376 L 1389 1518 L 2466 1518 L 2466 1247 L 1653 1247 L 1653 907 L 2445 907 L 2445 647 L 1653 647 L 1653 260 L 2474 260 L 2474 0 L 1389 0 L 1389 141 Z M 868 240 C 961 240 1039 251 1103 275 C 1167 298 1218 332 1258 376 C 1297 420 1325 474 1342 538 C 1359 602 1368 674 1368 756 C 1368 836 1359 907 1342 971 C 1325 1035 1297 1089 1258 1133 C 1218 1177 1167 1211 1103 1235 C 1039 1258 961 1270 868 1270 C 774 1270 696 1258 633 1235 C 569 1211 518 1177 479 1133 C 439 1089 411 1035 394 971 C 377 907 369 836 369 756 C 369 674 377 602 394 538 C 411 474 439 420 479 376 C 518 332 569 298 633 275 C 696 251 774 240 868 240 Z" unicode="" />
<glyph horiz-adv-x="2154" d="M 1569 -23 C 1509 -23 1456 -19 1409 -12 C 1361 -4 1319 6 1282 20 C 1245 34 1213 50 1185 70 C 1157 90 1134 112 1114 137 C 1070 85 1013 45 941 18 C 869 -9 778 -23 670 -23 C 560 -23 467 -9 392 16 C 317 42 256 81 210 132 C 164 183 130 246 110 321 C 90 396 80 482 80 580 C 80 677 90 763 110 838 C 130 912 164 975 210 1026 C 256 1076 317 1115 392 1141 C 467 1167 560 1180 670 1180 C 780 1180 871 1166 943 1138 C 1015 1110 1072 1070 1116 1018 C 1136 1042 1159 1065 1187 1085 C 1215 1105 1247 1122 1284 1136 C 1320 1150 1362 1160 1409 1168 C 1455 1176 1508 1180 1567 1180 C 1651 1180 1722 1171 1780 1153 C 1838 1135 1886 1110 1924 1078 C 1962 1046 1991 1008 2012 964 C 2032 920 2047 871 2057 818 C 2066 765 2071 709 2072 650 C 2072 590 2072 529 2071 467 L 1249 467 C 1253 427 1262 391 1274 359 C 1286 327 1305 301 1329 279 C 1353 257 1385 240 1424 228 C 1462 216 1511 211 1569 211 C 1613 211 1653 213 1689 219 C 1724 224 1756 231 1785 241 C 1813 251 1839 262 1863 275 C 1887 288 1909 303 1931 319 L 2077 131 C 2041 104 2006 81 1971 62 C 1935 42 1898 26 1858 14 C 1818 1 1774 -8 1727 -14 C 1679 -20 1627 -23 1569 -23 Z M 670 223 C 729 223 778 231 818 247 C 858 263 889 286 913 316 C 937 346 954 382 964 425 C 974 468 979 517 979 571 C 979 625 974 673 964 717 C 954 760 937 797 913 827 C 889 857 858 880 818 896 C 778 912 729 920 670 920 C 610 920 561 912 521 896 C 481 880 450 857 426 827 C 402 797 385 760 375 717 C 365 673 360 625 360 571 C 360 517 365 468 375 425 C 385 382 402 346 426 316 C 450 286 481 263 521 247 C 561 231 610 223 670 223 Z M 1559 940 C 1503 940 1457 934 1420 922 C 1383 910 1353 892 1329 870 C 1305 848 1288 821 1276 789 C 1264 757 1255 722 1251 684 L 1810 684 C 1808 721 1804 755 1799 787 C 1794 818 1783 845 1767 868 C 1751 890 1726 908 1694 921 C 1661 933 1616 940 1559 940 Z" unicode="" />
<glyph horiz-adv-x="1554" d="M 870 1964 L 1208 1964 L 827 1602 L 578 1602 L 870 1964 Z M 813 528 L 444 528 L 444 0 L 160 0 L 160 1518 L 872 1518 C 984 1518 1076 1506 1150 1483 C 1223 1460 1281 1428 1325 1386 C 1369 1344 1399 1293 1417 1233 C 1435 1173 1444 1107 1444 1034 C 1444 979 1438 927 1428 877 C 1417 827 1399 782 1373 740 C 1347 698 1312 662 1270 631 C 1227 599 1174 575 1110 557 L 1425 0 L 1112 0 L 813 528 Z M 864 786 C 912 786 953 789 989 797 C 1025 804 1055 817 1079 835 C 1103 853 1121 877 1133 907 C 1145 937 1151 976 1151 1022 C 1151 1069 1145 1108 1133 1139 C 1121 1170 1104 1195 1080 1213 C 1056 1231 1025 1243 989 1251 C 953 1258 910 1262 860 1262 L 444 1262 L 444 786 L 864 786 Z" unicode="" />
<glyph horiz-adv-x="805" d="M 508 1628 L 846 1628 L 465 1266 L 215 1266 L 508 1628 Z M 135 1137 L 352 1153 L 381 1024 C 393 1042 410 1060 434 1077 C 457 1094 485 1109 517 1121 C 549 1133 585 1143 626 1151 C 666 1159 710 1163 758 1165 L 758 893 C 689 892 632 884 588 870 C 544 855 509 834 484 808 C 458 781 441 748 431 710 C 421 672 416 629 416 582 L 416 0 L 135 0 L 135 1137 Z" unicode="" />
</font>
</defs>
</svg>
