<?xml version="1.0" encoding="utf-8" ?><svg version="1.1" xmlns = 'http://www.w3.org/2000/svg'><defs><font id='web' horiz-adv-x="1000">
<font-face font-family="web" descent="-410" cap-height="1518" units-per-em="2048" bbox="-227,-766,3760,2660" x-height="1174" ascent="1638" />
<missing-glyph horiz-adv-x="1024" d="" /><glyph horiz-adv-x="420" d="" unicode=" " />
<glyph horiz-adv-x="868" d="M 203 432 L 662 432 L 662 0 L 203 0 L 203 432 Z M 211 1518 L 655 1518 L 614 510 L 250 510 L 211 1518 Z" unicode="!" />
<glyph horiz-adv-x="1288" d="M 162 1518 L 584 1518 L 561 752 L 184 752 L 162 1518 Z M 702 1518 L 1126 1518 L 1102 752 L 727 752 L 702 1518 Z" unicode="&#x22;" />
<glyph horiz-adv-x="1712" d="M 315 315 L 104 315 L 104 668 L 383 668 L 401 774 L 104 774 L 104 1126 L 469 1126 L 545 1518 L 932 1518 L 856 1126 L 993 1126 L 1067 1518 L 1454 1518 L 1380 1126 L 1608 1126 L 1608 774 L 1313 774 L 1294 668 L 1608 668 L 1608 315 L 1227 315 L 1165 0 L 778 0 L 840 315 L 702 315 L 643 0 L 256 0 L 315 315 Z M 934 645 L 963 797 L 762 797 L 733 645 L 934 645 Z" unicode="#" />
<glyph horiz-adv-x="1430" d="M 530 8 C 484 13 439 20 394 29 C 348 38 304 49 262 63 C 219 76 178 91 139 109 C 100 127 65 147 33 170 L 203 451 C 281 404 359 370 439 350 C 518 329 600 319 686 319 C 744 319 792 322 828 328 C 864 334 893 344 913 356 C 933 368 946 382 953 398 C 959 414 963 433 963 453 C 963 479 958 500 948 516 C 938 532 921 545 898 555 C 875 565 845 573 807 579 C 769 585 722 592 666 598 C 620 603 575 609 530 616 C 485 623 442 633 400 646 C 358 658 320 675 284 695 C 248 715 217 740 191 772 C 164 803 143 841 128 886 C 113 931 106 985 106 1047 C 106 1118 115 1180 133 1234 C 151 1287 178 1332 214 1369 C 250 1406 294 1436 347 1458 C 399 1480 460 1497 530 1507 L 530 1669 L 903 1669 L 903 1509 C 949 1503 990 1497 1028 1489 C 1065 1481 1099 1471 1130 1461 C 1160 1451 1188 1440 1213 1429 C 1237 1417 1260 1406 1282 1395 L 1110 1096 C 1088 1108 1062 1120 1031 1131 C 1000 1142 967 1152 932 1160 C 897 1168 861 1174 825 1179 C 788 1183 753 1186 719 1186 C 670 1186 631 1183 602 1177 C 572 1171 550 1163 534 1153 C 518 1143 508 1131 503 1117 C 498 1103 496 1087 496 1071 C 496 1042 502 1019 515 1003 C 527 986 547 973 574 963 C 600 953 634 945 676 939 C 717 933 766 926 823 920 C 867 914 910 907 953 899 C 996 891 1037 881 1076 869 C 1115 856 1151 840 1184 820 C 1217 800 1246 774 1270 744 C 1294 714 1313 677 1327 635 C 1341 592 1348 541 1348 483 C 1348 420 1339 362 1323 310 C 1307 258 1281 212 1245 172 C 1209 132 1163 98 1107 72 C 1051 45 983 26 903 14 L 903 -193 L 530 -193 L 530 8 Z" unicode="$" />
<glyph horiz-adv-x="2697" d="M 580 514 C 497 514 423 525 358 547 C 293 569 238 601 193 644 C 147 687 113 741 89 805 C 65 869 53 944 53 1030 C 53 1112 65 1185 89 1249 C 113 1313 147 1366 193 1410 C 238 1453 293 1486 358 1508 C 423 1530 497 1542 580 1542 C 660 1542 732 1531 796 1509 C 860 1487 914 1454 959 1411 C 1004 1368 1039 1315 1063 1251 C 1087 1187 1100 1113 1100 1030 C 1100 944 1087 869 1063 805 C 1039 741 1004 687 959 644 C 914 601 860 569 796 547 C 732 525 660 514 580 514 Z M 580 815 C 638 815 679 833 703 870 C 727 907 739 960 739 1030 C 739 1096 726 1146 702 1181 C 678 1215 637 1233 580 1233 C 521 1233 479 1215 453 1181 C 427 1147 414 1096 414 1030 C 414 960 426 907 452 870 C 478 833 520 815 580 815 Z M 2122 -18 C 2040 -18 1967 -7 1902 15 C 1837 37 1782 69 1737 113 C 1691 157 1657 211 1633 275 C 1609 339 1597 414 1597 500 C 1597 582 1609 654 1633 718 C 1657 782 1691 835 1737 879 C 1782 923 1837 956 1902 978 C 1967 1000 2040 1012 2122 1012 C 2202 1012 2274 1000 2339 978 C 2403 956 2458 923 2503 880 C 2548 836 2583 783 2607 719 C 2631 655 2644 582 2644 500 C 2644 414 2631 339 2607 275 C 2583 211 2548 157 2503 113 C 2458 69 2403 37 2339 15 C 2274 -7 2202 -18 2122 -18 Z M 2122 283 C 2180 283 2221 301 2246 338 C 2271 374 2284 428 2284 500 C 2284 564 2271 614 2246 648 C 2220 682 2179 700 2122 700 C 2064 700 2022 683 1996 649 C 1970 615 1958 566 1958 500 C 1958 428 1970 374 1996 338 C 2021 301 2063 283 2122 283 Z M 1585 1520 L 1960 1520 L 1110 0 L 735 0 L 1585 1520 Z" unicode="%" />
<glyph horiz-adv-x="1798" d="M 692 -18 C 592 -18 503 -11 425 3 C 347 17 281 41 227 76 C 173 110 131 157 103 216 C 75 274 61 348 61 438 C 61 496 69 546 86 590 C 102 634 125 672 153 705 C 181 738 213 766 251 790 C 288 814 327 834 369 852 C 348 893 332 935 320 977 C 308 1019 303 1062 303 1106 C 303 1180 314 1244 337 1299 C 360 1353 393 1399 435 1435 C 477 1471 527 1497 586 1515 C 645 1533 711 1542 784 1542 C 856 1542 920 1533 976 1517 C 1032 1500 1079 1474 1117 1438 C 1155 1402 1185 1357 1205 1302 C 1225 1247 1235 1182 1235 1106 C 1235 1053 1226 1006 1210 966 C 1193 926 1171 890 1143 859 C 1115 828 1082 801 1045 779 C 1007 756 968 736 928 719 L 995 655 C 1017 633 1039 614 1060 596 C 1080 578 1101 562 1122 547 C 1150 597 1175 655 1199 721 C 1223 787 1247 861 1272 944 L 1612 864 C 1584 764 1555 674 1525 593 C 1495 512 1462 439 1425 375 C 1467 361 1505 353 1540 350 C 1574 347 1608 346 1640 346 L 1653 346 L 1653 0 L 1624 0 C 1578 0 1535 1 1495 4 C 1454 6 1415 11 1378 18 C 1340 25 1304 34 1268 46 C 1232 58 1195 72 1159 90 C 1097 52 1028 25 952 8 C 876 -9 789 -18 692 -18 Z M 692 299 C 718 299 744 300 768 302 C 792 304 814 307 836 313 C 812 333 787 355 762 379 C 736 402 710 427 684 455 C 662 475 641 496 620 518 C 598 539 577 561 557 584 C 527 566 503 546 485 524 C 467 501 459 474 459 442 C 459 424 460 407 464 390 C 467 373 476 358 491 344 C 506 330 529 319 561 311 C 592 303 636 299 692 299 Z M 686 1106 C 686 1083 690 1059 699 1035 C 707 1011 719 986 733 961 C 779 978 815 998 843 1021 C 871 1043 885 1072 885 1106 C 885 1140 878 1165 864 1183 C 850 1201 824 1210 784 1210 C 744 1210 718 1201 705 1183 C 692 1165 686 1140 686 1106 Z" unicode="&#x26;" />
<glyph horiz-adv-x="748" d="M 162 1520 L 584 1520 L 561 754 L 184 754 L 162 1520 Z" unicode="'" />
<glyph horiz-adv-x="1114" d="M 610 -401 C 562 -361 514 -309 464 -245 C 414 -181 369 -106 329 -20 C 288 66 255 162 229 270 C 203 378 190 495 190 623 C 190 698 196 772 208 845 C 220 917 236 987 257 1054 C 277 1121 301 1185 329 1245 C 356 1305 385 1361 416 1412 C 447 1463 479 1509 512 1549 C 545 1589 578 1623 610 1651 L 905 1466 C 869 1422 833 1375 798 1323 C 762 1271 730 1212 702 1146 C 673 1079 650 1003 632 918 C 614 833 606 736 606 627 C 606 516 616 416 636 327 C 656 237 681 158 711 88 C 741 18 773 -41 808 -91 C 842 -141 875 -183 905 -217 L 610 -401 L 610 -401 Z" unicode="(" />
<glyph horiz-adv-x="1114" d="M 211 -217 C 246 -174 281 -127 316 -75 C 351 -23 383 36 411 103 C 439 169 461 245 479 330 C 497 415 506 513 506 623 C 506 733 496 833 476 923 C 456 1012 432 1091 402 1161 C 372 1231 340 1291 306 1342 C 272 1392 240 1434 211 1466 L 502 1651 C 549 1610 598 1558 648 1494 C 698 1430 743 1355 784 1269 C 825 1183 859 1086 885 979 C 911 871 924 754 924 627 C 924 551 918 477 906 405 C 894 332 877 262 857 195 C 836 127 812 63 784 3 C 756 -56 727 -112 696 -163 C 664 -214 632 -260 599 -300 C 565 -340 533 -374 502 -401 L 211 -217 Z" unicode=")" />
<glyph horiz-adv-x="1284" d="M 520 756 L 262 571 L 102 860 L 395 983 L 102 1110 L 260 1397 L 520 1210 L 483 1520 L 797 1520 L 760 1206 L 1022 1397 L 1182 1112 L 885 983 L 1182 858 L 1024 575 L 760 760 L 795 449 L 483 449 L 520 756 Z" unicode="*" />
<glyph horiz-adv-x="1507" d="M 553 541 L 176 541 L 176 903 L 553 903 L 553 1276 L 956 1276 L 956 903 L 1331 903 L 1331 541 L 956 541 L 956 164 L 553 164 L 553 541 Z" unicode="+" />
<glyph horiz-adv-x="657" d="M 119 -166 C 160 -146 193 -130 219 -118 C 244 -105 263 -93 277 -82 C 291 -71 300 -59 304 -47 C 308 -35 311 -19 311 0 L 98 0 L 98 442 L 557 442 L 557 133 C 557 85 555 42 552 5 C 549 -31 543 -64 535 -94 C 527 -123 515 -149 499 -173 C 483 -197 463 -219 438 -239 C 412 -259 381 -279 344 -299 C 307 -318 263 -338 213 -360 L 119 -166 Z" unicode="," />
<glyph horiz-adv-x="842" d="M 66 874 L 776 874 L 776 514 L 66 514 L 66 874 Z" unicode="-" />
<glyph horiz-adv-x="657" d="M 98 442 L 557 442 L 557 0 L 98 0 L 98 442 Z" unicode="." />
<glyph horiz-adv-x="1260" d="M 848 1518 L 1260 1518 L 412 0 L 0 0 L 848 1518 Z" unicode="/" />
<glyph horiz-adv-x="1626" d="M 815 -23 C 692 -23 586 -7 497 23 C 408 54 335 102 278 166 C 220 230 178 312 150 410 C 122 508 109 625 109 760 C 109 894 122 1011 150 1109 C 178 1207 220 1289 278 1353 C 335 1417 408 1464 497 1495 C 586 1526 692 1542 815 1542 C 935 1542 1040 1526 1128 1495 C 1216 1464 1289 1417 1347 1353 C 1405 1289 1448 1207 1476 1109 C 1504 1011 1518 894 1518 760 C 1518 625 1504 508 1476 410 C 1448 312 1405 230 1347 166 C 1289 102 1216 54 1128 23 C 1040 -7 935 -23 815 -23 Z M 815 330 C 869 330 914 338 950 355 C 986 372 1015 398 1037 433 C 1059 468 1074 513 1084 567 C 1093 621 1098 686 1098 760 C 1098 834 1093 897 1084 950 C 1074 1002 1059 1045 1037 1078 C 1015 1111 986 1135 950 1151 C 914 1166 869 1174 815 1174 C 761 1174 715 1166 679 1151 C 643 1135 613 1111 591 1078 C 568 1045 552 1002 542 950 C 532 897 528 834 528 760 C 528 686 532 621 542 567 C 552 513 568 468 591 433 C 613 398 643 372 679 355 C 715 338 761 330 815 330 Z" unicode="0" />
<glyph horiz-adv-x="895" d="M 299 1153 L 57 1153 L 57 1518 L 698 1518 L 698 0 L 299 0 L 299 1153 Z" unicode="1" />
<glyph horiz-adv-x="1378" d="M 63 315 L 551 700 C 609 746 657 785 696 818 C 735 850 766 879 790 905 C 813 930 829 954 839 976 C 849 998 854 1021 854 1047 C 854 1071 851 1091 846 1109 C 840 1127 829 1141 813 1153 C 797 1165 774 1173 744 1179 C 714 1185 675 1188 627 1188 C 592 1188 555 1185 517 1180 C 478 1174 440 1167 403 1159 C 365 1150 330 1140 298 1128 C 265 1116 237 1104 215 1092 L 31 1403 C 75 1426 119 1446 161 1464 C 203 1481 249 1495 298 1507 C 346 1519 400 1527 460 1533 C 520 1539 590 1542 670 1542 C 767 1542 852 1533 926 1517 C 999 1501 1060 1474 1109 1438 C 1158 1401 1195 1354 1220 1296 C 1244 1238 1257 1167 1257 1085 C 1257 1027 1248 973 1230 925 C 1212 876 1187 829 1153 785 C 1119 741 1079 697 1031 655 C 983 612 930 568 870 522 L 625 336 L 1270 336 L 1270 0 L 63 0 L 63 315 Z" unicode="2" />
<glyph horiz-adv-x="1378" d="M 670 -25 C 590 -25 518 -21 454 -14 C 390 -6 332 4 278 19 C 224 34 174 53 128 75 C 82 97 36 122 -8 152 L 180 457 C 218 435 255 415 293 397 C 330 379 368 363 406 351 C 444 338 484 328 524 321 C 564 314 605 311 649 311 C 693 311 731 313 763 318 C 795 323 820 332 840 345 C 860 357 874 375 883 397 C 892 419 897 447 897 481 C 897 513 892 539 884 560 C 875 580 860 597 840 609 C 820 621 793 629 760 634 C 726 638 685 641 635 641 L 342 641 L 342 958 L 631 958 C 672 958 707 959 735 963 C 763 966 786 972 804 981 C 822 990 834 1002 842 1018 C 850 1034 854 1054 854 1079 C 854 1101 851 1120 845 1135 C 839 1150 829 1162 813 1171 C 797 1180 776 1186 748 1190 C 720 1194 683 1196 639 1196 C 603 1196 565 1193 527 1188 C 488 1182 451 1175 415 1166 C 379 1157 345 1146 313 1134 C 281 1121 255 1108 233 1094 L 27 1391 C 65 1415 109 1436 158 1455 C 207 1473 260 1489 316 1502 C 372 1515 430 1525 492 1532 C 553 1538 616 1542 680 1542 C 772 1542 853 1535 925 1523 C 996 1511 1056 1490 1105 1461 C 1153 1432 1190 1394 1215 1347 C 1240 1299 1253 1241 1253 1171 C 1253 1117 1249 1070 1242 1032 C 1234 994 1223 961 1209 935 C 1194 908 1176 886 1154 869 C 1132 851 1107 837 1079 825 C 1111 815 1140 802 1167 786 C 1193 770 1216 747 1235 718 C 1253 689 1268 652 1278 608 C 1288 564 1294 509 1294 444 C 1294 348 1277 270 1245 210 C 1213 149 1169 101 1113 66 C 1057 31 991 7 915 -5 C 839 -18 757 -25 670 -25 Z" unicode="3" />
<glyph horiz-adv-x="1468" d="M 49 573 L 709 1518 L 1141 1518 L 494 596 L 838 596 L 922 993 L 1204 993 L 1204 596 L 1423 596 L 1423 274 L 1204 274 L 1204 0 L 831 0 L 831 274 L 49 274 L 49 573 Z" unicode="4" />
<glyph horiz-adv-x="1413" d="M 705 -23 C 625 -23 553 -18 487 -8 C 421 2 362 15 308 31 C 254 47 206 66 164 88 C 121 109 83 131 49 154 L 238 459 C 268 441 301 424 335 407 C 369 389 404 374 442 360 C 480 346 519 334 561 326 C 603 317 646 313 692 313 C 728 313 761 314 793 317 C 825 319 853 327 877 340 C 901 352 919 371 933 396 C 947 421 954 456 954 502 C 954 546 947 581 933 607 C 919 633 901 652 878 665 C 854 678 827 686 796 689 C 764 692 731 694 696 694 C 646 694 601 690 562 683 C 523 676 487 665 455 651 L 117 752 L 158 1518 L 1239 1518 L 1239 1171 L 500 1171 L 489 973 C 523 989 567 1002 622 1012 C 676 1021 736 1026 801 1026 C 849 1026 896 1024 943 1020 C 989 1016 1033 1009 1075 997 C 1116 985 1154 967 1190 945 C 1225 923 1255 893 1281 855 C 1306 817 1326 770 1340 715 C 1354 659 1362 593 1362 516 C 1362 438 1354 370 1340 313 C 1325 256 1304 208 1276 168 C 1248 128 1215 95 1176 70 C 1137 45 1093 26 1045 12 C 996 -1 943 -10 886 -15 C 828 -20 768 -23 705 -23 Z" unicode="5" />
<glyph horiz-adv-x="1534" d="M 805 -23 C 675 -23 565 -7 475 24 C 385 55 313 100 257 160 C 201 220 161 293 137 380 C 112 467 100 566 100 678 C 100 780 105 871 116 952 C 127 1033 147 1105 175 1167 C 203 1229 240 1283 287 1327 C 334 1371 394 1408 466 1436 C 538 1464 623 1485 723 1498 C 822 1511 938 1518 1071 1518 L 1253 1518 L 1253 1171 L 1059 1171 C 964 1171 884 1167 820 1159 C 756 1151 703 1140 662 1126 C 621 1112 590 1095 568 1077 C 546 1058 531 1038 521 1017 C 511 995 506 973 504 950 C 502 927 501 905 500 883 C 516 907 536 928 561 946 C 586 964 617 978 653 990 C 689 1002 731 1011 779 1017 C 827 1023 883 1026 946 1026 C 1044 1026 1126 1015 1192 993 C 1258 971 1310 939 1350 897 C 1390 855 1418 802 1435 740 C 1451 677 1460 605 1460 524 C 1460 437 1448 360 1425 292 C 1402 224 1365 167 1313 121 C 1261 74 1193 38 1110 14 C 1026 -10 925 -23 805 -23 Z M 807 307 C 863 307 908 311 942 321 C 976 330 1002 343 1020 361 C 1038 379 1050 400 1056 425 C 1062 450 1065 478 1065 510 C 1065 541 1061 569 1054 594 C 1046 619 1033 640 1014 658 C 995 676 969 689 936 699 C 903 708 861 713 811 713 C 709 713 636 696 591 663 C 546 630 524 579 524 510 C 524 440 546 389 591 356 C 635 323 707 307 807 307 Z" unicode="6" />
<glyph horiz-adv-x="1264" d="M 758 1171 L 10 1171 L 10 1518 L 1204 1518 L 1204 1225 L 682 0 L 254 0 L 758 1171 Z" unicode="7" />
<glyph horiz-adv-x="1561" d="M 778 -37 C 688 -37 608 -30 539 -18 C 469 -6 409 10 358 32 C 306 53 263 78 228 108 C 193 138 165 170 144 204 C 122 238 107 275 98 313 C 88 351 84 390 84 430 C 84 470 87 511 93 551 C 99 591 111 629 129 664 C 146 699 170 731 200 759 C 230 787 270 811 319 829 C 277 847 244 868 220 892 C 196 915 177 940 165 967 C 152 994 144 1023 140 1053 C 136 1083 135 1113 135 1145 C 135 1177 138 1209 145 1241 C 152 1273 165 1304 183 1334 C 201 1363 225 1390 256 1416 C 287 1441 326 1463 374 1482 C 421 1500 478 1515 544 1526 C 610 1536 688 1542 778 1542 C 868 1542 946 1536 1013 1526 C 1079 1515 1136 1500 1184 1482 C 1232 1463 1271 1441 1302 1415 C 1333 1389 1357 1362 1375 1333 C 1393 1303 1405 1273 1412 1241 C 1419 1209 1423 1177 1423 1145 C 1423 1113 1421 1082 1418 1052 C 1414 1022 1406 993 1394 966 C 1381 938 1362 913 1338 890 C 1313 866 1279 846 1237 829 C 1289 811 1331 787 1363 759 C 1395 730 1419 698 1436 663 C 1452 628 1463 591 1469 551 C 1474 511 1477 470 1477 430 C 1477 371 1466 314 1444 258 C 1422 202 1385 152 1332 108 C 1278 64 1207 29 1117 3 C 1027 -23 914 -37 778 -37 Z M 778 268 C 833 268 879 272 916 282 C 952 292 982 305 1004 323 C 1026 340 1041 361 1051 385 C 1060 409 1065 435 1065 463 C 1065 492 1060 519 1051 543 C 1041 567 1026 587 1004 605 C 982 622 952 635 916 645 C 879 654 833 659 778 659 C 723 659 677 654 641 645 C 605 635 576 622 555 605 C 533 587 518 567 509 543 C 500 519 496 492 496 463 C 496 435 500 409 509 385 C 518 361 533 340 555 323 C 576 305 605 292 641 282 C 677 272 723 268 778 268 Z M 778 936 C 828 936 869 939 901 947 C 933 955 959 965 978 979 C 996 992 1009 1008 1017 1027 C 1024 1046 1028 1067 1028 1090 C 1028 1111 1024 1131 1017 1149 C 1009 1167 996 1182 978 1195 C 959 1207 933 1217 901 1224 C 869 1231 828 1235 778 1235 C 728 1235 687 1231 655 1224 C 623 1217 597 1207 579 1195 C 560 1182 547 1167 540 1149 C 533 1131 530 1111 530 1090 C 530 1067 533 1046 540 1027 C 547 1008 560 992 579 979 C 597 965 623 955 655 947 C 687 939 728 936 778 936 Z" unicode="8" />
<glyph horiz-adv-x="1534" d="M 305 336 L 502 336 C 598 336 679 340 744 348 C 808 356 861 368 902 382 C 943 396 974 412 995 431 C 1016 450 1031 470 1041 492 C 1050 514 1055 536 1057 559 C 1058 582 1059 605 1061 627 C 1045 603 1024 582 999 564 C 974 546 943 531 907 519 C 871 507 828 498 780 492 C 732 486 676 483 614 483 C 516 483 434 495 368 519 C 302 543 249 577 209 621 C 169 665 141 718 125 780 C 108 842 100 911 100 987 C 100 1073 111 1151 134 1220 C 157 1288 195 1346 247 1394 C 299 1442 366 1478 450 1504 C 533 1529 635 1542 756 1542 C 886 1542 995 1526 1085 1495 C 1175 1463 1247 1418 1303 1358 C 1358 1298 1398 1225 1423 1138 C 1447 1051 1460 952 1460 842 C 1460 740 1454 648 1443 567 C 1432 485 1413 413 1385 351 C 1357 289 1320 235 1273 191 C 1226 147 1167 110 1095 82 C 1023 54 937 33 837 20 C 737 6 621 0 489 0 L 305 0 L 305 336 Z M 750 788 C 850 788 923 804 968 837 C 1013 870 1036 921 1036 991 C 1036 1061 1013 1112 969 1145 C 925 1177 853 1194 754 1194 C 697 1194 652 1189 618 1180 C 584 1170 558 1157 540 1139 C 522 1121 510 1100 504 1075 C 498 1050 496 1022 496 991 C 496 959 499 931 507 906 C 515 881 528 860 547 842 C 566 824 592 811 625 802 C 658 792 700 788 750 788 Z" unicode="9" />
<glyph horiz-adv-x="698" d="M 119 428 L 578 428 L 578 0 L 119 0 L 119 428 Z M 119 1174 L 578 1174 L 578 748 L 119 748 L 119 1174 Z" unicode=":" />
<glyph horiz-adv-x="698" d="M 139 -166 C 180 -146 213 -130 239 -118 C 264 -105 283 -93 297 -82 C 311 -71 320 -59 325 -47 C 329 -35 332 -19 332 0 L 119 0 L 119 428 L 578 428 L 578 133 C 578 72 574 18 567 -28 C 559 -75 544 -118 520 -156 C 496 -194 461 -230 416 -263 C 370 -295 309 -328 233 -360 L 139 -166 Z M 119 1174 L 578 1174 L 578 748 L 119 748 L 119 1174 Z" unicode=";" />
<glyph horiz-adv-x="1507" d="M 236 573 L 236 846 L 1194 1319 L 1194 952 L 662 711 L 1194 469 L 1194 98 L 236 573 Z" unicode="&#x3C;" />
<glyph horiz-adv-x="1507" d="M 188 639 L 1319 639 L 1319 279 L 188 279 L 188 639 Z M 188 1163 L 1319 1163 L 1319 805 L 188 805 L 188 1163 Z" unicode="=" />
<glyph horiz-adv-x="1507" d="M 313 467 L 848 707 L 313 950 L 313 1319 L 1274 844 L 1274 569 L 313 98 L 313 467 Z" unicode="&#x3E;" />
<glyph horiz-adv-x="1477" d="M 500 459 C 488 529 483 589 487 637 C 490 685 502 727 522 761 C 542 795 572 824 612 848 C 651 872 701 895 762 918 C 804 934 837 947 862 959 C 886 971 905 982 918 994 C 931 1005 940 1017 944 1030 C 948 1043 950 1059 950 1077 C 950 1093 947 1108 942 1122 C 937 1135 927 1146 911 1155 C 895 1163 873 1170 845 1175 C 816 1179 778 1182 731 1182 C 645 1180 568 1170 498 1152 C 428 1134 363 1111 303 1083 L 133 1419 C 171 1437 215 1454 264 1469 C 312 1484 364 1497 419 1508 C 473 1518 530 1527 588 1533 C 646 1539 705 1542 764 1542 C 860 1542 945 1534 1020 1520 C 1095 1506 1158 1482 1210 1449 C 1262 1415 1301 1371 1328 1317 C 1354 1263 1368 1196 1368 1116 C 1368 1057 1361 1006 1349 964 C 1337 922 1319 885 1295 855 C 1271 825 1242 799 1207 778 C 1172 756 1132 737 1087 721 C 1037 701 999 685 971 671 C 943 657 923 642 911 624 C 899 606 892 585 891 560 C 890 534 891 501 895 459 L 500 459 Z M 467 381 L 926 381 L 926 0 L 467 0 L 467 381 Z" unicode="?" />
<glyph horiz-adv-x="2154" d="M 1120 -338 C 1016 -338 919 -331 829 -319 C 739 -306 657 -285 583 -256 C 509 -227 443 -189 385 -142 C 327 -95 279 -37 240 31 C 200 100 170 181 150 274 C 129 367 119 474 119 594 C 119 717 130 826 153 921 C 176 1015 208 1098 250 1168 C 292 1238 342 1298 400 1346 C 458 1394 523 1432 594 1462 C 664 1491 740 1512 821 1525 C 901 1537 985 1544 1073 1544 C 1163 1544 1249 1537 1332 1525 C 1414 1512 1491 1491 1563 1462 C 1634 1432 1699 1394 1757 1346 C 1815 1298 1865 1239 1906 1169 C 1947 1099 1979 1016 2002 922 C 2024 827 2036 718 2036 596 C 2036 489 2029 401 2015 331 C 2001 261 1978 206 1945 165 C 1912 124 1868 95 1813 79 C 1758 63 1690 55 1608 55 C 1550 55 1502 58 1464 65 C 1426 72 1395 82 1371 94 C 1347 106 1328 119 1315 135 C 1302 151 1292 167 1286 184 C 1273 168 1258 153 1240 140 C 1222 126 1200 115 1173 105 C 1145 95 1112 88 1074 82 C 1035 76 988 74 934 74 C 844 74 770 88 713 118 C 656 147 611 186 579 235 C 547 284 524 341 512 405 C 500 469 494 537 494 608 C 494 678 500 746 514 810 C 528 874 552 931 587 980 C 621 1028 668 1067 728 1096 C 787 1124 862 1139 954 1139 C 1004 1139 1047 1137 1083 1133 C 1119 1129 1149 1123 1174 1115 C 1198 1107 1219 1098 1236 1087 C 1252 1075 1267 1063 1280 1049 L 1350 1118 L 1585 1096 L 1585 381 C 1585 359 1587 341 1590 325 C 1593 309 1599 295 1607 284 C 1615 272 1626 264 1641 258 C 1655 252 1674 250 1698 250 C 1728 250 1752 255 1769 266 C 1786 277 1799 296 1807 323 C 1815 349 1819 385 1821 429 C 1822 473 1823 529 1823 596 C 1823 744 1804 866 1768 962 C 1732 1058 1681 1133 1615 1189 C 1549 1245 1470 1284 1378 1306 C 1286 1328 1184 1339 1073 1339 C 1004 1339 938 1334 875 1325 C 812 1315 753 1300 698 1278 C 643 1256 593 1226 548 1190 C 503 1153 465 1107 433 1052 C 401 996 376 931 358 856 C 340 780 332 693 332 594 C 332 452 350 334 388 240 C 426 146 479 72 548 17 C 616 -38 699 -77 796 -99 C 892 -121 1000 -133 1118 -133 C 1162 -133 1208 -130 1256 -125 C 1304 -119 1351 -112 1397 -102 C 1443 -92 1487 -81 1529 -67 C 1571 -53 1608 -39 1642 -23 L 1731 -207 C 1647 -248 1553 -280 1449 -303 C 1344 -326 1234 -338 1120 -338 Z M 1028 375 C 1066 375 1098 380 1124 391 C 1150 402 1170 418 1186 438 C 1201 458 1212 482 1219 511 C 1225 539 1229 572 1229 608 C 1229 643 1226 674 1221 700 C 1215 726 1205 748 1191 766 C 1176 784 1155 797 1129 806 C 1103 814 1069 819 1028 819 C 992 819 962 813 940 803 C 917 792 899 777 887 758 C 874 739 865 717 861 691 C 856 665 854 638 854 608 C 854 578 856 549 861 521 C 865 493 874 468 887 446 C 899 424 917 407 940 394 C 962 381 992 375 1028 375 Z" unicode="@" />
<glyph horiz-adv-x="1681" d="M 623 1528 L 1055 1528 L 1667 0 L 1227 0 L 1151 197 L 504 197 L 428 0 L 14 0 L 623 1528 Z M 1016 545 L 827 1028 L 639 545 L 1016 545 Z" unicode="A" />
<glyph horiz-adv-x="1599" d="M 139 1518 L 866 1518 C 976 1518 1070 1510 1148 1496 C 1226 1482 1291 1459 1342 1427 C 1392 1395 1429 1353 1453 1302 C 1477 1250 1489 1188 1489 1114 C 1489 1025 1473 954 1442 902 C 1410 850 1362 811 1298 786 C 1342 775 1379 760 1409 740 C 1439 720 1463 696 1481 666 C 1499 636 1511 600 1519 559 C 1526 517 1530 470 1530 416 C 1530 330 1515 261 1487 207 C 1459 153 1417 111 1361 80 C 1305 49 1236 28 1154 17 C 1071 5 975 0 866 0 L 139 0 L 139 1518 Z M 920 326 C 953 326 981 328 1004 334 C 1027 339 1046 347 1060 359 C 1074 370 1084 384 1090 401 C 1096 417 1100 437 1100 461 C 1100 483 1096 503 1090 520 C 1084 537 1074 551 1060 563 C 1046 574 1027 582 1004 588 C 981 593 953 596 920 596 L 555 596 L 555 326 L 920 326 Z M 881 920 C 917 920 946 923 969 929 C 992 935 1010 943 1024 954 C 1037 965 1046 979 1051 995 C 1056 1011 1059 1029 1059 1049 C 1059 1069 1056 1086 1051 1102 C 1046 1118 1037 1131 1024 1143 C 1010 1154 992 1163 969 1169 C 946 1175 917 1178 881 1178 L 555 1178 L 555 920 L 881 920 Z" unicode="B" />
<glyph horiz-adv-x="1593" d="M 856 -23 C 706 -23 581 -5 479 29 C 377 64 295 115 233 182 C 171 249 126 331 99 428 C 72 525 59 636 59 760 C 59 898 77 1016 115 1115 C 152 1214 206 1295 277 1358 C 348 1421 434 1467 536 1497 C 638 1527 753 1542 883 1542 C 959 1542 1028 1537 1090 1527 C 1151 1517 1207 1502 1257 1482 C 1307 1462 1352 1438 1394 1409 C 1435 1379 1474 1345 1511 1307 L 1219 1014 C 1197 1035 1176 1054 1154 1072 C 1132 1089 1107 1104 1081 1116 C 1054 1128 1024 1137 992 1143 C 959 1149 922 1153 881 1153 C 809 1153 747 1144 697 1127 C 647 1109 606 1084 575 1051 C 544 1017 522 976 508 926 C 494 876 487 818 487 754 C 487 692 492 637 504 588 C 515 538 535 496 565 462 C 595 428 635 401 687 383 C 738 365 803 356 883 356 C 928 356 968 359 1002 367 C 1036 374 1067 384 1095 397 C 1123 410 1148 426 1172 444 C 1195 462 1219 483 1243 506 L 1522 233 C 1490 199 1454 166 1415 135 C 1376 104 1331 77 1279 53 C 1227 29 1166 11 1097 -2 C 1028 -16 948 -23 856 -23 Z" unicode="C" />
<glyph horiz-adv-x="1645" d="M 139 1518 L 709 1518 C 861 1518 993 1507 1104 1485 C 1214 1463 1305 1424 1377 1368 C 1449 1312 1502 1234 1536 1136 C 1570 1038 1587 912 1587 760 C 1587 609 1570 485 1536 387 C 1502 289 1449 211 1377 154 C 1305 96 1214 56 1104 34 C 993 11 861 0 709 0 L 139 0 L 139 1518 Z M 733 369 C 828 369 904 376 960 390 C 1016 404 1059 427 1089 458 C 1118 489 1137 529 1146 579 C 1154 629 1159 689 1159 760 C 1159 806 1157 848 1154 885 C 1151 921 1144 954 1134 982 C 1124 1010 1109 1033 1089 1053 C 1069 1073 1043 1089 1010 1101 C 977 1113 936 1122 888 1128 C 839 1134 781 1137 713 1137 L 563 1137 L 563 369 L 733 369 Z" unicode="D" />
<glyph horiz-adv-x="1458" d="M 139 1518 L 1348 1518 L 1348 1135 L 563 1135 L 563 950 L 1327 950 L 1327 580 L 563 580 L 563 367 L 1356 367 L 1356 0 L 139 0 L 139 1518 Z" unicode="E" />
<glyph horiz-adv-x="1389" d="M 139 1518 L 1307 1518 L 1307 1135 L 563 1135 L 563 909 L 1286 909 L 1286 532 L 563 532 L 563 0 L 139 0 L 139 1518 Z" unicode="F" />
<glyph horiz-adv-x="1659" d="M 850 -23 C 690 -23 558 -5 456 29 C 353 64 272 115 214 182 C 155 249 114 331 92 428 C 70 525 59 636 59 760 C 59 897 77 1015 113 1114 C 149 1212 202 1293 272 1357 C 342 1420 428 1467 530 1497 C 632 1527 749 1542 881 1542 C 960 1542 1032 1536 1097 1526 C 1161 1515 1220 1500 1273 1480 C 1326 1460 1373 1436 1415 1408 C 1457 1380 1494 1348 1528 1313 L 1235 1020 C 1217 1037 1199 1054 1179 1070 C 1159 1086 1135 1100 1108 1112 C 1080 1124 1048 1134 1011 1142 C 973 1149 929 1153 879 1153 C 803 1153 740 1144 690 1126 C 639 1108 598 1083 568 1049 C 537 1015 515 974 502 925 C 489 875 483 819 483 756 C 483 686 487 624 497 571 C 506 518 524 474 552 439 C 580 404 619 378 670 360 C 721 342 788 334 872 334 C 931 334 981 337 1023 345 C 1065 352 1099 364 1125 381 C 1151 397 1170 418 1182 444 C 1194 470 1200 501 1200 539 L 1200 563 L 815 563 L 815 905 L 1610 905 L 1610 623 C 1610 512 1596 416 1570 335 C 1543 253 1500 186 1440 133 C 1380 80 1301 41 1205 15 C 1108 -10 990 -23 850 -23 Z" unicode="G" />
<glyph horiz-adv-x="1710" d="M 139 1518 L 563 1518 L 563 973 L 1145 973 L 1145 1518 L 1571 1518 L 1571 0 L 1145 0 L 1145 575 L 563 575 L 563 0 L 139 0 L 139 1518 Z" unicode="H" />
<glyph horiz-adv-x="752" d="M 164 1518 L 588 1518 L 588 0 L 164 0 L 164 1518 Z" unicode="I" />
<glyph horiz-adv-x="989" d="M 37 367 L 242 367 C 280 367 311 369 336 375 C 361 381 381 390 396 402 C 410 414 421 430 427 450 C 433 470 436 494 436 522 L 436 1518 L 860 1518 L 860 506 C 860 400 845 314 816 248 C 786 181 746 129 695 91 C 644 53 584 28 516 14 C 447 0 373 -6 295 -6 C 255 -6 222 -5 198 -5 C 173 -5 152 -4 134 -4 C 116 -4 100 -3 86 -3 C 72 -2 55 -1 37 0 L 37 367 Z" unicode="J" />
<glyph horiz-adv-x="1614" d="M 729 582 L 557 373 L 557 0 L 139 0 L 139 1518 L 557 1518 L 557 920 L 1034 1518 L 1501 1518 L 1001 913 L 1575 0 L 1094 0 L 729 582 Z" unicode="K" />
<glyph horiz-adv-x="1294" d="M 139 1518 L 563 1518 L 563 367 L 1278 367 L 1278 0 L 139 0 L 139 1518 Z" unicode="L" />
<glyph horiz-adv-x="2071" d="M 139 1518 L 694 1518 L 1034 614 L 1376 1518 L 1929 1518 L 1929 0 L 1516 0 L 1516 881 L 1176 0 L 858 0 L 522 874 L 522 0 L 139 0 L 139 1518 Z" unicode="M" />
<glyph horiz-adv-x="1731" d="M 139 1518 L 594 1518 L 1186 715 L 1186 1518 L 1591 1518 L 1591 0 L 1200 0 L 545 887 L 545 0 L 139 0 L 139 1518 Z" unicode="N" />
<glyph horiz-adv-x="1767" d="M 883 -25 C 762 -25 651 -11 551 15 C 450 41 363 85 290 147 C 217 209 160 290 120 390 C 79 490 59 613 59 760 C 59 906 79 1028 120 1128 C 160 1228 217 1308 290 1370 C 363 1431 450 1475 551 1502 C 651 1528 762 1542 883 1542 C 1003 1542 1113 1528 1214 1502 C 1315 1475 1402 1431 1475 1370 C 1548 1308 1605 1228 1646 1128 C 1687 1028 1708 906 1708 760 C 1708 613 1687 490 1646 390 C 1605 290 1548 209 1475 147 C 1402 85 1315 41 1214 15 C 1113 -11 1003 -25 883 -25 Z M 883 348 C 961 348 1026 358 1077 378 C 1128 398 1168 425 1198 461 C 1228 497 1248 539 1260 589 C 1272 638 1278 692 1278 752 C 1278 810 1272 864 1260 913 C 1248 962 1228 1004 1198 1040 C 1168 1076 1128 1103 1077 1123 C 1026 1143 961 1153 883 1153 C 803 1153 738 1143 687 1123 C 636 1103 596 1076 566 1040 C 536 1004 516 962 504 913 C 492 864 487 810 487 752 C 487 692 492 638 504 589 C 516 539 536 497 566 461 C 596 425 636 398 687 378 C 738 358 803 348 883 348 Z" unicode="O" />
<glyph horiz-adv-x="1612" d="M 139 1518 L 901 1518 C 1031 1518 1139 1504 1224 1478 C 1308 1451 1375 1414 1424 1366 C 1472 1318 1506 1262 1525 1196 C 1544 1130 1554 1059 1554 981 C 1554 929 1550 880 1542 832 C 1534 784 1521 739 1502 697 C 1483 655 1457 616 1425 582 C 1392 547 1351 517 1301 492 C 1251 467 1191 448 1121 434 C 1051 420 970 414 877 414 L 553 414 L 553 0 L 139 0 L 139 1518 Z M 895 764 C 937 764 973 767 1003 774 C 1033 780 1057 791 1076 807 C 1094 822 1108 842 1116 867 C 1124 891 1128 922 1128 958 C 1128 996 1124 1027 1116 1053 C 1108 1078 1095 1098 1077 1114 C 1059 1130 1035 1141 1005 1147 C 975 1153 937 1157 893 1157 L 553 1157 L 553 764 L 895 764 Z" unicode="P" />
<glyph horiz-adv-x="1767" d="M 1133 -424 C 1056 -424 990 -420 934 -413 C 878 -405 830 -394 791 -378 C 751 -362 720 -343 696 -319 C 672 -295 653 -267 641 -235 C 628 -202 620 -165 617 -123 C 613 -81 613 -34 616 18 C 532 34 455 59 387 94 C 319 129 260 176 212 236 C 163 295 125 368 99 454 C 72 540 59 642 59 760 C 59 906 79 1028 120 1128 C 160 1228 217 1308 290 1370 C 363 1431 450 1475 551 1502 C 651 1528 762 1542 883 1542 C 1003 1542 1113 1528 1214 1502 C 1315 1475 1402 1431 1475 1370 C 1548 1308 1605 1228 1646 1128 C 1687 1028 1708 906 1708 760 C 1708 624 1690 509 1655 416 C 1619 322 1570 246 1507 186 C 1443 126 1367 82 1279 53 C 1191 24 1093 6 987 0 C 987 -18 989 -32 993 -43 C 997 -53 1004 -61 1015 -67 C 1025 -72 1040 -75 1058 -77 C 1076 -79 1100 -80 1130 -80 L 1343 -80 L 1343 -418 C 1313 -420 1279 -421 1242 -422 C 1205 -423 1169 -424 1133 -424 Z M 883 348 C 961 348 1026 358 1077 378 C 1128 398 1168 425 1198 461 C 1228 497 1248 539 1260 589 C 1272 638 1278 692 1278 752 C 1278 810 1272 864 1260 913 C 1248 962 1228 1004 1198 1040 C 1168 1076 1128 1103 1077 1123 C 1026 1143 961 1153 883 1153 C 803 1153 738 1143 687 1123 C 636 1103 596 1076 566 1040 C 536 1004 516 962 504 913 C 492 864 487 810 487 752 C 487 692 492 638 504 589 C 516 539 536 497 566 461 C 596 425 636 398 687 378 C 738 358 803 348 883 348 Z" unicode="Q" />
<glyph horiz-adv-x="1636" d="M 827 455 L 553 455 L 553 0 L 139 0 L 139 1518 L 909 1518 C 999 1518 1078 1511 1144 1499 C 1210 1486 1267 1468 1315 1445 C 1362 1422 1400 1395 1430 1363 C 1460 1331 1483 1295 1500 1257 C 1516 1218 1528 1176 1534 1132 C 1540 1088 1544 1042 1544 995 C 1544 947 1540 900 1533 853 C 1525 805 1511 760 1490 718 C 1468 675 1438 636 1400 600 C 1362 564 1312 534 1251 510 L 1528 0 L 1073 0 L 827 455 Z M 895 807 C 935 807 970 809 998 814 C 1026 819 1049 828 1067 841 C 1084 853 1096 871 1104 893 C 1112 915 1116 944 1116 979 C 1116 1015 1112 1044 1105 1068 C 1097 1091 1085 1109 1068 1122 C 1050 1135 1027 1144 999 1149 C 971 1154 935 1157 893 1157 L 553 1157 L 553 807 L 895 807 Z" unicode="R" />
<glyph horiz-adv-x="1559" d="M 786 -23 C 702 -23 622 -18 546 -8 C 470 2 400 16 335 35 C 269 53 210 75 156 101 C 102 127 54 156 14 188 L 227 494 C 303 441 388 400 481 371 C 574 342 672 328 774 328 C 846 328 902 330 943 335 C 983 340 1013 348 1033 359 C 1052 369 1064 382 1068 398 C 1072 413 1075 431 1075 453 C 1075 471 1068 487 1056 499 C 1043 511 1024 522 998 531 C 972 539 939 547 900 553 C 860 559 814 566 760 573 C 648 587 552 604 471 624 C 389 644 322 671 269 707 C 215 743 176 789 150 845 C 124 901 111 971 111 1057 C 111 1147 124 1223 151 1285 C 178 1347 219 1397 275 1435 C 330 1473 400 1500 484 1517 C 568 1533 668 1542 784 1542 C 870 1542 948 1537 1017 1528 C 1085 1518 1146 1506 1200 1491 C 1254 1476 1301 1459 1341 1441 C 1381 1423 1415 1404 1444 1386 L 1214 1057 C 1192 1071 1164 1086 1131 1100 C 1098 1114 1062 1126 1023 1137 C 984 1148 944 1157 902 1164 C 860 1170 819 1174 780 1174 C 724 1174 680 1171 648 1167 C 615 1163 590 1156 573 1148 C 555 1139 544 1128 539 1115 C 534 1101 532 1085 532 1067 C 532 1045 538 1028 552 1015 C 566 1001 587 990 615 982 C 643 973 678 966 720 960 C 762 954 811 947 868 940 C 931 932 990 923 1046 913 C 1101 903 1152 890 1199 875 C 1245 859 1287 841 1324 819 C 1360 797 1391 771 1417 739 C 1442 707 1461 669 1475 625 C 1488 581 1495 531 1495 473 C 1495 395 1484 326 1462 265 C 1440 203 1402 151 1348 109 C 1294 66 1221 33 1130 11 C 1038 -11 924 -23 786 -23 Z" unicode="S" />
<glyph horiz-adv-x="1464" d="M 520 1135 L 16 1135 L 16 1518 L 1450 1518 L 1450 1135 L 946 1135 L 946 0 L 520 0 L 520 1135 Z" unicode="T" />
<glyph horiz-adv-x="1710" d="M 856 -31 C 740 -31 642 -22 561 -4 C 480 13 413 37 359 68 C 305 98 262 134 232 175 C 201 216 178 260 162 306 C 146 352 137 400 133 450 C 129 500 127 548 127 596 L 127 1518 L 553 1518 L 553 653 C 553 601 556 555 563 517 C 570 478 585 446 607 420 C 629 394 660 375 700 363 C 740 350 794 344 862 344 C 928 344 981 350 1021 362 C 1061 374 1093 392 1115 417 C 1137 442 1152 474 1160 513 C 1167 552 1171 599 1171 653 L 1171 1518 L 1583 1518 L 1583 596 C 1583 548 1581 500 1577 450 C 1573 400 1563 352 1548 306 C 1532 260 1509 216 1479 175 C 1448 134 1406 98 1352 68 C 1298 37 1230 13 1150 -4 C 1069 -22 971 -31 856 -31 Z" unicode="U" />
<glyph horiz-adv-x="1661" d="M 14 1518 L 461 1518 L 836 516 L 1208 1518 L 1647 1518 L 1044 -10 L 612 -10 L 14 1518 Z" unicode="V" />
<glyph horiz-adv-x="2216" d="M 23 1518 L 465 1518 L 688 686 L 928 1518 L 1313 1518 L 1554 686 L 1778 1518 L 2193 1518 L 1745 -10 L 1368 -10 L 1108 881 L 848 -10 L 471 -10 L 23 1518 Z" unicode="W" />
<glyph horiz-adv-x="1675" d="M 819 481 L 510 0 L 39 0 L 598 799 L 100 1518 L 580 1518 L 852 1124 L 1106 1518 L 1577 1518 L 1073 807 L 1634 0 L 1153 0 L 819 481 Z" unicode="X" />
<glyph horiz-adv-x="1620" d="M 596 504 L -4 1518 L 451 1518 L 817 883 L 1184 1518 L 1622 1518 L 1020 500 L 1020 0 L 596 0 L 596 504 Z" unicode="Y" />
<glyph horiz-adv-x="1446" d="M 51 313 L 825 1135 L 86 1135 L 86 1518 L 1366 1518 L 1366 1171 L 606 367 L 1389 367 L 1389 0 L 51 0 L 51 313 Z" unicode="Z" />
<glyph horiz-adv-x="1114" d="M 209 1589 L 950 1589 L 950 1241 L 621 1241 L 621 0 L 956 0 L 956 -338 L 209 -338 L 209 1589 Z" unicode="[" />
<glyph horiz-adv-x="1260" d="M 0 1518 L 412 1518 L 1260 0 L 848 0 L 0 1518 Z" unicode="\" />
<glyph horiz-adv-x="1114" d="M 156 0 L 492 0 L 492 1241 L 164 1241 L 164 1589 L 903 1589 L 903 -338 L 156 -338 L 156 0 Z" unicode="]" />
<glyph horiz-adv-x="1208" d="M 397 1481 L 811 1481 L 1130 1075 L 756 1075 L 600 1229 L 444 1075 L 78 1075 L 397 1481 Z" unicode="^" />
<glyph horiz-adv-x="928" d="M -76 -61 L 1004 -61 L 1004 -360 L -76 -360 L -76 -61 Z" unicode="_" />
<glyph horiz-adv-x="1208" d="M 78 1686 L 563 1686 L 842 1280 L 487 1280 L 78 1686 Z" unicode="`" />
<glyph horiz-adv-x="1348" d="M 487 -18 C 392 -18 315 -8 256 10 C 196 29 150 55 117 89 C 83 122 61 161 49 206 C 37 251 31 300 31 352 C 31 434 46 501 76 553 C 106 605 151 645 213 674 C 274 703 351 723 443 733 C 535 743 644 748 770 748 L 807 748 C 806 763 804 777 801 789 C 797 801 789 811 776 820 C 763 828 744 835 719 839 C 694 843 660 846 616 846 C 580 846 546 843 514 837 C 481 831 450 824 422 815 C 393 806 367 796 343 785 C 319 773 299 762 283 752 L 80 1049 C 102 1063 132 1079 170 1097 C 208 1115 252 1131 302 1146 C 352 1161 408 1174 469 1184 C 529 1194 594 1200 662 1200 C 771 1200 860 1191 930 1174 C 999 1156 1053 1129 1093 1092 C 1132 1054 1159 1006 1174 948 C 1188 890 1196 819 1196 737 L 1196 424 C 1196 404 1196 389 1198 377 C 1200 365 1204 356 1210 350 C 1216 344 1225 339 1237 337 C 1249 335 1266 334 1288 334 L 1288 4 C 1274 0 1253 -1 1226 -3 C 1198 -5 1162 -6 1116 -6 C 1086 -6 1059 -4 1035 -2 C 1011 0 989 6 970 14 C 951 22 934 32 919 46 C 903 60 889 78 877 100 C 847 64 800 35 736 14 C 671 -7 588 -18 487 -18 Z M 571 307 C 652 307 712 319 750 343 C 788 367 807 408 807 465 L 807 504 L 797 504 C 735 504 683 503 641 501 C 598 499 563 495 535 491 C 507 487 485 481 469 475 C 453 469 441 461 433 453 C 425 444 420 434 418 423 C 416 412 416 400 416 387 C 416 357 427 337 450 325 C 472 313 513 307 571 307 Z" unicode="a" />
<glyph horiz-adv-x="1432" d="M 844 -18 C 792 -18 745 -15 704 -9 C 663 -3 627 3 596 13 C 564 23 537 34 515 47 C 493 60 475 74 461 88 L 381 -14 L 113 14 L 113 1589 L 516 1589 L 516 1110 C 548 1138 593 1160 652 1176 C 711 1192 783 1200 868 1200 C 936 1200 995 1192 1047 1177 C 1099 1161 1143 1140 1181 1113 C 1219 1085 1250 1053 1275 1015 C 1299 977 1319 936 1334 891 C 1348 845 1359 797 1365 746 C 1371 695 1374 643 1374 590 C 1374 536 1370 483 1364 432 C 1357 381 1346 333 1330 288 C 1314 243 1294 202 1268 164 C 1242 126 1209 94 1170 67 C 1130 40 1084 19 1030 4 C 976 -10 914 -18 844 -18 Z M 762 324 C 804 324 839 330 865 343 C 891 356 912 374 927 397 C 941 419 951 446 956 476 C 960 506 963 539 963 573 C 963 607 960 640 956 671 C 952 702 942 729 928 753 C 914 777 893 796 867 810 C 841 824 806 831 762 831 C 714 831 675 825 644 813 C 612 801 587 785 569 763 C 550 741 537 714 529 682 C 521 650 518 613 518 573 C 518 533 521 497 527 466 C 533 435 546 409 564 388 C 582 367 606 351 638 340 C 670 329 711 324 762 324 Z" unicode="b" />
<glyph horiz-adv-x="1227" d="M 678 -18 C 593 -18 519 -10 455 4 C 391 18 337 39 291 66 C 245 92 207 124 177 161 C 147 198 123 239 105 284 C 87 329 74 377 67 429 C 60 481 57 534 57 590 C 57 644 60 696 67 747 C 73 798 85 846 103 891 C 121 936 145 978 175 1016 C 205 1054 244 1086 292 1113 C 340 1140 397 1161 463 1177 C 529 1192 608 1200 698 1200 C 804 1200 899 1183 984 1150 C 1069 1117 1141 1066 1200 997 L 915 729 C 903 741 891 753 878 765 C 865 777 850 787 833 797 C 816 807 796 814 774 820 C 752 826 726 829 696 829 C 647 829 608 822 578 810 C 548 798 524 780 508 758 C 492 736 481 709 475 679 C 469 648 467 614 467 578 C 467 541 469 507 475 476 C 481 445 492 418 508 396 C 524 373 548 355 579 343 C 609 330 650 324 700 324 C 724 324 747 325 768 329 C 788 333 808 339 827 347 C 845 355 864 366 882 380 C 900 394 920 410 940 430 L 1198 184 C 1161 149 1125 119 1091 94 C 1056 68 1019 47 979 31 C 939 14 895 2 847 -6 C 799 -14 742 -18 678 -18 Z" unicode="c" />
<glyph horiz-adv-x="1432" d="M 569 -23 C 501 -23 441 -15 389 0 C 337 15 292 37 254 65 C 216 93 185 126 160 164 C 134 202 114 244 99 290 C 83 336 72 384 66 436 C 60 487 57 540 57 594 C 57 647 60 699 67 750 C 73 800 84 848 100 893 C 116 938 137 979 163 1017 C 189 1055 222 1087 261 1114 C 300 1141 346 1162 399 1177 C 452 1192 514 1200 584 1200 C 632 1200 674 1197 710 1191 C 746 1185 777 1178 803 1170 C 829 1161 850 1151 868 1141 C 885 1130 899 1120 911 1110 L 911 1589 L 1319 1589 L 1319 14 L 1008 -14 L 967 92 C 949 76 929 61 905 47 C 881 33 853 20 821 10 C 788 0 751 -8 709 -14 C 667 -20 621 -23 569 -23 Z M 670 326 C 716 326 755 332 786 345 C 817 357 842 375 861 398 C 879 421 892 449 900 482 C 907 515 911 552 911 594 C 911 634 908 669 902 699 C 896 729 884 755 867 775 C 849 795 825 810 793 820 C 761 830 720 836 670 836 C 626 836 591 829 565 817 C 539 804 518 787 504 765 C 490 743 480 718 476 689 C 471 659 469 628 469 594 C 469 560 471 526 475 494 C 479 462 489 433 503 408 C 517 383 538 363 564 348 C 590 333 626 326 670 326 Z" unicode="d" />
<glyph horiz-adv-x="1294" d="M 692 -23 C 604 -23 528 -15 463 0 C 397 14 341 35 294 62 C 247 89 208 121 178 159 C 147 197 123 238 105 284 C 87 330 74 378 67 430 C 60 481 57 534 57 590 C 57 643 60 695 67 746 C 74 797 87 845 105 891 C 123 936 147 977 178 1015 C 208 1053 247 1085 294 1113 C 341 1140 397 1161 463 1177 C 528 1192 604 1200 692 1200 C 779 1200 853 1191 914 1173 C 975 1155 1026 1129 1067 1097 C 1108 1065 1140 1026 1164 980 C 1188 934 1205 884 1216 828 C 1227 772 1233 713 1235 649 C 1237 585 1237 518 1235 449 L 451 449 C 455 425 463 403 474 385 C 485 367 500 351 519 339 C 537 327 561 318 589 312 C 617 306 652 303 692 303 C 735 303 774 305 810 310 C 846 315 878 322 908 331 C 937 340 964 351 988 364 C 1012 376 1034 390 1055 406 L 1257 145 C 1215 113 1174 86 1133 65 C 1091 43 1048 26 1003 13 C 957 0 909 -8 858 -14 C 807 -20 752 -23 692 -23 Z M 680 864 C 638 864 604 860 576 852 C 548 844 526 833 508 818 C 490 803 476 785 466 763 C 456 741 450 716 446 688 L 866 688 C 864 712 862 734 858 756 C 854 777 845 796 833 812 C 821 828 803 840 779 850 C 755 859 722 864 680 864 Z" unicode="e" />
<glyph horiz-adv-x="971" d="M 45 1174 L 266 1174 L 266 1196 C 266 1270 273 1334 289 1389 C 305 1444 331 1490 369 1527 C 407 1564 457 1592 520 1610 C 583 1628 662 1638 758 1638 C 782 1638 803 1637 819 1637 C 835 1637 849 1636 861 1636 C 873 1636 883 1635 893 1634 C 903 1633 914 1632 926 1632 L 926 1303 L 813 1303 C 783 1303 759 1301 741 1297 C 723 1293 708 1287 698 1279 C 688 1270 681 1259 677 1246 C 673 1232 672 1216 672 1198 L 672 1174 L 926 1174 L 926 829 L 672 829 L 672 0 L 266 0 L 266 829 L 45 829 L 45 1174 Z" unicode="f" />
<glyph horiz-adv-x="1393" d="M 666 432 C 643 432 621 432 601 432 C 580 432 560 434 541 436 C 539 432 539 428 539 425 C 539 421 539 418 539 414 C 539 402 541 393 545 387 C 549 380 557 375 569 371 C 581 367 597 365 619 364 C 641 362 669 362 705 362 C 833 362 938 356 1020 345 C 1102 334 1166 316 1212 291 C 1258 265 1290 231 1307 189 C 1324 146 1333 93 1333 31 C 1333 -45 1318 -108 1290 -159 C 1261 -209 1218 -250 1162 -281 C 1105 -312 1035 -334 952 -347 C 868 -360 772 -367 664 -367 C 542 -367 441 -363 359 -356 C 277 -349 210 -335 160 -315 C 110 -294 74 -265 52 -228 C 30 -191 20 -143 20 -84 C 20 -17 41 37 83 81 C 125 124 184 154 258 172 C 227 197 206 225 195 256 C 183 286 178 317 178 348 C 178 381 183 411 193 438 C 203 464 218 489 238 512 C 186 542 147 581 123 629 C 98 677 86 734 86 801 C 86 864 96 920 118 970 C 140 1020 174 1062 221 1096 C 268 1130 328 1155 401 1173 C 474 1191 562 1200 666 1200 L 705 1200 L 1286 1333 L 1286 1028 L 1130 1028 C 1147 1018 1163 1006 1178 993 C 1192 980 1205 965 1215 947 C 1225 929 1234 908 1240 884 C 1246 860 1249 833 1249 801 C 1249 737 1237 681 1215 635 C 1193 589 1158 550 1111 520 C 1063 490 1003 467 929 453 C 855 439 768 432 666 432 Z M 680 -111 C 728 -111 767 -108 798 -104 C 828 -99 853 -92 871 -83 C 889 -73 901 -62 908 -48 C 914 -34 918 -19 918 -2 C 918 14 914 27 907 38 C 900 49 888 58 870 65 C 852 71 827 76 797 79 C 766 82 727 84 680 84 C 624 84 579 82 546 79 C 513 76 488 71 471 64 C 453 56 442 47 437 35 C 432 23 430 8 430 -10 C 430 -25 432 -39 437 -52 C 442 -64 453 -75 471 -84 C 488 -92 513 -99 546 -104 C 579 -108 624 -111 680 -111 Z M 666 659 C 704 659 735 661 759 666 C 783 671 801 679 815 689 C 829 699 838 711 843 726 C 847 741 850 758 850 778 C 850 798 847 815 843 830 C 838 845 829 857 815 867 C 801 877 783 884 759 889 C 735 894 704 897 666 897 C 628 897 598 894 574 889 C 550 884 532 877 519 867 C 505 857 496 845 491 830 C 485 815 483 798 483 778 C 483 758 485 741 491 726 C 496 711 505 699 519 689 C 532 679 550 671 574 666 C 598 661 628 659 666 659 Z" unicode="g" />
<glyph horiz-adv-x="1407" d="M 113 1589 L 516 1589 L 516 1110 C 528 1120 544 1130 565 1141 C 585 1151 611 1161 641 1170 C 671 1178 705 1185 745 1191 C 785 1197 830 1200 881 1200 C 966 1200 1036 1188 1090 1165 C 1144 1141 1187 1108 1218 1065 C 1249 1022 1270 970 1282 910 C 1294 850 1300 783 1300 709 L 1300 0 L 895 0 L 895 625 C 895 652 893 677 890 701 C 887 725 880 745 869 763 C 857 780 841 794 819 804 C 797 814 767 819 729 819 C 683 819 646 814 618 805 C 590 795 569 782 554 764 C 539 746 529 725 525 701 C 520 676 518 648 518 618 L 518 0 L 113 0 L 113 1589 Z" unicode="h" />
<glyph horiz-adv-x="657" d="M 125 1174 L 530 1174 L 530 0 L 125 0 L 125 1174 Z M 123 1589 L 532 1589 L 532 1260 L 123 1260 L 123 1589 Z" unicode="i" />
<glyph horiz-adv-x="657" d="M 8 -43 L 39 -43 C 59 -43 75 -41 87 -37 C 98 -33 106 -27 112 -17 C 118 -7 121 5 123 23 C 124 41 125 64 125 92 L 125 1174 L 530 1174 L 530 94 C 530 4 523 -68 509 -125 C 495 -182 472 -227 438 -260 C 404 -293 358 -316 301 -329 C 243 -341 171 -348 84 -348 L 8 -348 L 8 -43 Z M 123 1589 L 532 1589 L 532 1260 L 123 1260 L 123 1589 Z" unicode="j" />
<glyph horiz-adv-x="1305" d="M 113 1589 L 514 1589 L 514 776 L 831 1174 L 1274 1174 L 891 698 L 1305 0 L 854 0 L 618 391 L 514 266 L 514 0 L 113 0 L 113 1589 Z" unicode="k" />
<glyph horiz-adv-x="750" d="M 485 -4 C 429 -4 378 1 334 13 C 290 24 252 44 221 74 C 190 104 166 144 150 195 C 133 246 125 311 125 391 L 125 1589 L 530 1589 L 530 442 C 530 420 531 403 534 390 C 537 376 542 366 550 358 C 558 350 568 345 582 342 C 596 339 613 338 635 338 L 670 338 L 670 4 C 662 2 651 1 638 1 C 625 0 610 0 594 -1 C 578 -2 560 -3 541 -3 C 522 -3 503 -4 485 -4 Z" unicode="l" />
<glyph horiz-adv-x="2140" d="M 113 1151 L 428 1176 L 461 1075 C 487 1111 534 1140 601 1164 C 667 1188 756 1200 868 1200 C 930 1200 980 1196 1019 1190 C 1057 1183 1089 1174 1113 1163 C 1137 1151 1155 1138 1168 1123 C 1181 1107 1193 1091 1204 1075 C 1220 1093 1239 1110 1263 1126 C 1287 1142 1316 1155 1350 1166 C 1384 1176 1423 1185 1469 1191 C 1514 1197 1566 1200 1626 1200 C 1711 1200 1780 1188 1834 1165 C 1887 1141 1928 1108 1958 1065 C 1988 1022 2008 970 2018 910 C 2028 850 2034 783 2034 709 L 2034 0 L 1626 0 L 1626 625 C 1626 652 1625 677 1623 701 C 1621 725 1616 745 1607 763 C 1597 780 1582 794 1562 804 C 1542 814 1513 819 1475 819 C 1429 819 1392 814 1366 805 C 1339 795 1319 782 1306 764 C 1292 746 1284 725 1281 701 C 1277 676 1276 648 1276 618 L 1276 0 L 870 0 L 870 625 C 870 652 869 677 867 701 C 865 725 860 745 850 763 C 840 780 825 794 805 804 C 784 814 755 819 717 819 C 671 819 634 814 608 805 C 581 795 561 782 548 764 C 534 746 526 725 523 701 C 519 676 518 648 518 618 L 518 0 L 113 0 L 113 1151 Z" unicode="m" />
<glyph horiz-adv-x="1407" d="M 113 1151 L 428 1176 L 461 1071 C 477 1088 496 1104 520 1120 C 543 1136 571 1149 605 1161 C 639 1173 678 1182 723 1189 C 768 1196 821 1200 881 1200 C 966 1200 1036 1188 1090 1165 C 1144 1141 1187 1108 1218 1065 C 1249 1022 1270 970 1282 910 C 1294 850 1300 783 1300 709 L 1300 0 L 895 0 L 895 625 C 895 652 893 677 890 701 C 887 725 880 745 869 763 C 857 780 841 794 819 804 C 797 814 767 819 729 819 C 683 819 646 814 618 805 C 590 795 569 782 554 764 C 539 746 529 725 525 701 C 520 676 518 648 518 618 L 518 0 L 113 0 L 113 1151 Z" unicode="n" />
<glyph horiz-adv-x="1386" d="M 694 -23 C 579 -23 481 -9 401 18 C 320 45 254 85 203 137 C 152 189 115 254 92 330 C 68 406 57 492 57 590 C 57 687 68 773 92 849 C 115 925 152 989 203 1041 C 254 1093 320 1132 401 1159 C 481 1186 579 1200 694 1200 C 808 1200 906 1186 987 1159 C 1067 1132 1133 1093 1184 1041 C 1234 989 1271 925 1294 849 C 1317 773 1329 687 1329 590 C 1329 492 1317 406 1294 330 C 1271 254 1234 189 1184 137 C 1133 85 1067 45 987 18 C 906 -9 808 -23 694 -23 Z M 694 324 C 742 324 780 330 810 343 C 840 355 863 373 879 396 C 895 418 907 445 913 476 C 919 507 922 541 922 578 C 922 614 919 648 913 679 C 907 710 895 737 879 759 C 863 781 840 799 810 812 C 780 824 742 831 694 831 C 646 831 608 824 578 812 C 548 799 525 781 509 759 C 492 737 481 710 475 679 C 469 648 467 614 467 578 C 467 541 469 507 475 476 C 481 445 492 418 509 396 C 525 373 548 355 578 343 C 608 330 646 324 694 324 Z" unicode="o" />
<glyph horiz-adv-x="1432" d="M 113 1151 L 428 1176 L 459 1081 C 475 1095 494 1110 516 1124 C 538 1138 566 1151 599 1163 C 631 1174 670 1183 714 1190 C 758 1196 810 1200 870 1200 C 938 1200 997 1192 1049 1177 C 1101 1161 1145 1140 1183 1113 C 1220 1085 1251 1053 1276 1015 C 1300 977 1320 936 1334 891 C 1348 845 1359 797 1365 746 C 1371 695 1374 643 1374 590 C 1374 508 1366 431 1351 358 C 1335 284 1308 220 1269 164 C 1229 108 1175 64 1107 31 C 1039 -1 952 -18 846 -18 C 798 -18 757 -15 722 -10 C 686 -5 656 1 630 9 C 604 17 582 27 564 38 C 546 48 530 60 518 72 L 518 -338 L 113 -338 L 113 1151 Z M 762 324 C 804 324 839 330 865 343 C 891 356 912 374 927 397 C 941 419 951 446 956 476 C 960 506 963 539 963 573 C 963 607 960 640 956 671 C 952 702 942 729 928 753 C 914 777 893 796 867 810 C 841 824 806 831 762 831 C 714 831 675 825 644 813 C 612 801 587 785 569 763 C 550 741 537 714 529 682 C 521 650 518 613 518 573 C 518 533 521 497 527 466 C 533 435 546 409 564 388 C 582 367 606 351 638 340 C 670 329 711 324 762 324 Z" unicode="p" />
<glyph horiz-adv-x="1432" d="M 911 61 C 875 30 829 8 775 -4 C 720 -16 651 -23 569 -23 C 467 -23 382 -6 316 27 C 250 61 197 106 159 163 C 121 219 94 285 79 359 C 64 433 57 510 57 592 C 57 645 60 697 67 748 C 73 799 84 847 100 892 C 116 937 137 978 163 1016 C 189 1054 222 1086 261 1114 C 300 1141 346 1162 399 1177 C 452 1192 514 1200 584 1200 C 636 1200 682 1197 723 1191 C 764 1185 800 1178 832 1168 C 863 1158 890 1147 912 1135 C 934 1123 953 1110 969 1096 L 1049 1176 L 1319 1151 L 1319 -338 L 911 -338 L 911 61 Z M 670 326 C 716 326 755 332 786 345 C 817 357 842 375 861 398 C 879 421 892 449 900 482 C 907 514 911 551 911 592 C 911 632 908 668 902 698 C 896 728 884 754 867 774 C 849 794 825 810 793 820 C 761 830 720 836 670 836 C 626 836 591 829 565 817 C 539 804 518 787 504 765 C 490 743 480 717 476 687 C 471 657 469 626 469 592 C 469 558 471 525 475 493 C 479 461 489 433 503 408 C 517 383 538 363 564 348 C 590 333 626 326 670 326 Z" unicode="q" />
<glyph horiz-adv-x="874" d="M 113 1151 L 428 1176 L 469 1053 C 481 1070 499 1086 523 1102 C 546 1118 573 1132 605 1144 C 637 1156 671 1166 709 1174 C 747 1182 787 1186 829 1188 L 829 797 C 761 796 707 790 666 780 C 625 770 594 755 572 735 C 550 715 535 690 528 660 C 521 630 518 595 518 555 L 518 0 L 113 0 L 113 1151 Z" unicode="r" />
<glyph horiz-adv-x="1227" d="M 596 -18 C 482 -18 374 -5 272 20 C 169 46 78 85 0 139 L 199 418 C 227 399 258 382 293 367 C 327 351 363 338 400 327 C 437 316 474 308 512 302 C 550 296 586 293 621 293 C 655 293 683 293 705 295 C 726 297 742 300 754 304 C 766 308 774 314 778 321 C 782 328 784 337 784 348 C 784 356 781 364 777 370 C 773 376 765 382 754 387 C 742 391 726 395 706 399 C 685 403 659 406 627 410 C 577 414 528 419 482 425 C 436 431 392 439 352 450 C 312 461 275 476 241 494 C 207 512 179 535 155 563 C 131 591 113 626 100 666 C 86 706 80 755 80 811 C 80 875 90 932 110 980 C 130 1028 161 1069 205 1102 C 249 1134 305 1159 375 1175 C 444 1191 528 1200 627 1200 C 675 1200 724 1197 773 1193 C 821 1189 868 1182 914 1173 C 959 1164 1002 1153 1043 1139 C 1084 1125 1121 1108 1155 1090 L 973 791 C 952 801 928 810 901 819 C 874 828 846 836 817 842 C 787 848 757 854 727 858 C 697 862 668 864 641 864 C 606 864 578 862 558 860 C 537 858 521 854 511 850 C 500 846 493 840 490 833 C 486 826 485 818 485 809 C 485 801 486 793 490 787 C 493 781 500 775 510 771 C 520 767 535 763 554 759 C 573 755 598 752 629 750 C 679 744 728 739 775 733 C 822 727 866 718 907 708 C 948 698 985 684 1019 668 C 1052 652 1081 631 1105 605 C 1129 579 1147 547 1160 510 C 1173 473 1180 429 1180 377 C 1180 309 1170 250 1151 200 C 1131 150 1099 109 1054 77 C 1008 45 948 21 874 5 C 799 -10 706 -18 596 -18 Z" unicode="s" />
<glyph horiz-adv-x="977" d="M 45 1174 L 254 1174 L 319 1425 L 633 1493 L 633 1174 L 889 1174 L 889 829 L 633 829 L 633 459 C 633 439 634 421 637 406 C 639 391 645 378 655 368 C 664 358 678 350 696 345 C 714 340 740 338 772 338 L 889 338 L 889 0 C 827 -4 758 -6 684 -6 C 598 -6 526 1 468 15 C 410 29 363 53 328 85 C 292 117 267 158 252 209 C 236 260 229 323 229 397 L 229 829 L 45 829 L 45 1174 Z" unicode="t" />
<glyph horiz-adv-x="1389" d="M 694 -23 C 582 -23 489 -12 414 8 C 339 29 279 63 233 111 C 187 158 155 220 135 298 C 115 375 106 470 106 582 L 106 1174 L 512 1174 L 512 573 C 512 536 513 503 516 473 C 518 443 526 418 538 398 C 550 377 568 361 593 350 C 618 339 653 334 698 334 C 742 334 776 339 801 351 C 825 362 844 378 856 399 C 868 419 876 444 879 474 C 881 504 883 537 883 573 L 883 1174 L 1282 1174 L 1282 582 C 1282 470 1272 375 1253 298 C 1233 221 1201 159 1155 111 C 1109 63 1049 29 974 8 C 899 -12 806 -23 694 -23 Z" unicode="u" />
<glyph horiz-adv-x="1327" d="M -14 1174 L 424 1174 L 676 473 L 930 1174 L 1341 1174 L 874 -12 L 451 -12 L -14 1174 Z" unicode="v" />
<glyph horiz-adv-x="1931" d="M 12 1174 L 440 1174 L 596 573 L 774 1174 L 1176 1174 L 1354 575 L 1509 1174 L 1919 1174 L 1556 -12 L 1167 -12 L 965 637 L 764 -12 L 375 -12 L 12 1174 Z" unicode="w" />
<glyph horiz-adv-x="1288" d="M 621 313 L 422 0 L -6 0 L 416 614 L 35 1174 L 489 1174 L 666 915 L 827 1174 L 1255 1174 L 872 612 L 1292 0 L 838 0 L 621 313 Z" unicode="x" />
<glyph horiz-adv-x="1253" d="M 283 -350 C 267 -350 248 -349 225 -349 C 201 -348 179 -347 158 -346 L 158 -43 L 244 -43 C 279 -43 307 -42 329 -40 C 351 -38 368 -35 381 -30 C 394 -25 404 -18 410 -10 C 416 -1 422 10 426 25 L 428 33 L -14 1174 L 424 1174 L 643 547 L 856 1174 L 1268 1174 L 815 -18 C 792 -79 767 -131 740 -173 C 713 -215 679 -249 639 -275 C 599 -301 550 -320 493 -332 C 435 -344 365 -350 283 -350 Z" unicode="y" />
<glyph horiz-adv-x="1147" d="M 27 268 L 553 829 L 59 829 L 59 1174 L 1102 1174 L 1102 903 L 573 324 L 1124 324 L 1124 0 L 27 0 L 27 268 Z" unicode="z" />
<glyph horiz-adv-x="1190" d="M 721 -338 C 573 -338 464 -313 394 -263 C 324 -213 289 -137 289 -37 C 289 -16 291 6 296 31 C 301 55 307 80 314 106 C 321 132 329 158 338 184 C 346 210 354 234 361 258 C 368 282 374 304 379 324 C 384 344 387 361 387 375 C 387 395 383 410 375 422 C 367 433 353 442 333 448 C 313 454 287 457 253 459 C 219 460 177 461 125 461 L 125 791 C 177 791 219 791 253 793 C 287 794 313 798 333 804 C 353 810 367 818 375 830 C 383 841 387 857 387 877 C 387 897 381 925 371 959 C 361 993 350 1029 338 1067 C 326 1105 314 1144 304 1183 C 294 1221 289 1256 289 1288 C 289 1388 324 1464 394 1514 C 464 1564 573 1589 721 1589 L 1032 1589 L 1032 1241 L 821 1241 C 800 1241 783 1240 769 1238 C 755 1236 743 1232 734 1227 C 725 1222 719 1215 715 1206 C 711 1197 709 1185 709 1171 C 709 1159 713 1138 722 1110 C 731 1082 741 1050 752 1015 C 762 979 772 943 781 905 C 790 867 795 833 795 803 C 795 785 792 767 787 749 C 782 731 774 715 763 699 C 751 683 736 669 717 657 C 697 644 673 634 645 627 C 673 619 697 608 717 595 C 736 582 751 568 763 552 C 774 536 782 520 787 502 C 792 484 795 467 795 449 C 795 418 790 383 781 345 C 772 306 762 268 752 232 C 741 195 731 162 722 132 C 713 102 709 82 709 70 C 709 55 711 43 715 34 C 719 25 725 18 734 13 C 743 8 755 5 769 3 C 783 1 800 0 821 0 L 1032 0 L 1032 -338 L 721 -338 L 721 -338 Z" unicode="{" />
<glyph horiz-adv-x="831" d="M 209 1589 L 621 1589 L 621 -338 L 209 -338 L 209 1589 Z" unicode="|" />
<glyph horiz-adv-x="1190" d="M 158 0 L 369 0 C 389 0 407 1 421 3 C 435 5 446 8 455 13 C 464 18 471 25 475 34 C 479 43 481 55 481 70 C 481 82 476 102 467 132 C 458 162 448 195 438 232 C 427 268 417 306 408 345 C 399 383 395 418 395 449 C 395 467 397 484 402 502 C 407 520 415 536 427 552 C 438 568 453 582 473 595 C 492 608 516 619 545 627 C 516 634 492 644 473 657 C 453 669 438 683 427 699 C 415 715 407 731 402 749 C 397 767 395 785 395 803 C 395 833 399 867 408 905 C 417 943 427 979 438 1015 C 448 1050 458 1082 467 1110 C 476 1138 481 1159 481 1171 C 481 1199 472 1218 455 1227 C 438 1236 409 1241 369 1241 L 158 1241 L 158 1589 L 469 1589 C 616 1589 725 1564 795 1514 C 865 1464 901 1388 901 1288 C 901 1256 895 1221 885 1183 C 875 1144 864 1105 852 1067 C 840 1029 828 993 818 959 C 808 925 803 897 803 877 C 803 857 807 841 815 830 C 823 818 836 810 856 804 C 876 798 902 794 936 793 C 970 791 1013 791 1065 791 L 1065 461 C 1013 461 970 460 936 459 C 902 457 876 454 856 448 C 836 442 823 433 815 422 C 807 410 803 395 803 375 C 803 361 805 344 810 324 C 815 304 821 282 828 258 C 835 234 843 210 852 184 C 860 158 868 132 875 106 C 882 80 888 55 893 31 C 898 6 901 -16 901 -37 C 901 -137 865 -213 795 -263 C 725 -313 616 -338 469 -338 L 158 -338 L 158 0 Z" unicode="}" />
<glyph horiz-adv-x="1208" d="M 61 872 C 128 954 194 1018 260 1062 C 326 1106 391 1128 455 1128 C 491 1128 521 1122 547 1110 C 573 1098 596 1085 616 1071 C 636 1057 656 1044 675 1032 C 693 1020 714 1014 737 1014 C 747 1014 759 1016 772 1020 C 784 1024 798 1030 812 1040 C 826 1049 842 1062 859 1078 C 876 1094 895 1115 915 1139 L 1137 956 C 1071 875 1004 812 938 767 C 872 722 807 700 743 700 C 719 700 697 702 679 708 C 660 714 643 721 627 730 C 611 738 597 748 584 758 C 571 768 558 778 545 787 C 532 795 519 802 506 808 C 492 814 478 817 463 817 C 441 817 416 808 386 790 C 356 772 322 738 283 690 L 61 872 Z" unicode="~" />
<glyph horiz-adv-x="483" d="" unicode="" />
<glyph horiz-adv-x="868" d="M 252 1008 L 616 1008 L 655 0 L 211 0 L 252 1008 Z M 205 1518 L 664 1518 L 664 1085 L 205 1085 L 205 1518 Z" unicode="" />
<glyph horiz-adv-x="1241" d="M 481 6 C 397 22 328 48 274 84 C 220 120 178 164 147 216 C 116 268 95 325 83 389 C 71 453 66 520 66 590 C 66 657 71 722 82 785 C 93 847 114 904 144 956 C 174 1008 217 1052 271 1090 C 325 1127 395 1154 481 1171 L 481 1323 L 866 1323 L 866 1176 C 932 1163 991 1142 1045 1113 C 1099 1083 1146 1045 1188 999 C 1142 957 1097 914 1053 870 C 1008 826 963 783 918 741 C 906 753 893 764 879 776 C 865 787 850 797 833 807 C 815 816 795 823 773 829 C 751 835 725 838 696 838 C 648 838 609 831 579 818 C 548 805 524 787 506 764 C 488 741 476 714 469 682 C 462 650 459 616 459 578 C 459 540 462 505 469 473 C 475 441 488 413 506 390 C 524 366 548 348 579 335 C 610 321 650 315 700 315 C 724 315 746 316 766 320 C 786 323 806 329 825 337 C 844 345 863 355 882 369 C 900 382 920 398 940 418 L 1186 184 C 1160 160 1135 139 1111 120 C 1087 101 1062 84 1037 70 C 1011 55 985 42 957 32 C 929 21 898 12 866 6 L 866 -193 L 481 -193 L 481 6 Z" unicode="" />
<glyph horiz-adv-x="1440" d="M 895 -12 C 824 -12 755 -2 689 17 C 622 36 560 61 504 92 C 452 62 389 40 314 24 C 238 8 147 0 41 0 L 41 326 C 111 326 166 329 205 335 C 243 341 272 350 290 362 C 308 374 319 390 323 410 C 326 429 328 452 328 479 C 328 496 325 516 320 539 C 315 562 309 587 301 614 L 39 614 L 39 922 L 211 922 C 203 952 197 983 193 1013 C 188 1043 186 1072 186 1100 C 186 1164 195 1224 213 1279 C 231 1333 262 1380 306 1419 C 350 1458 410 1489 484 1511 C 558 1533 652 1544 764 1544 C 860 1544 947 1537 1026 1523 C 1105 1509 1182 1488 1257 1460 L 1104 1122 C 1078 1133 1049 1142 1018 1150 C 987 1158 956 1164 924 1169 C 892 1174 862 1178 832 1180 C 802 1182 776 1184 754 1184 C 716 1184 687 1180 665 1174 C 643 1167 627 1157 615 1145 C 603 1133 596 1118 593 1100 C 589 1082 588 1063 588 1042 C 588 1026 589 1007 593 987 C 596 967 600 945 606 922 L 938 922 L 938 614 L 678 614 C 682 591 685 569 688 548 C 690 527 692 507 692 489 C 692 466 691 444 690 423 C 688 401 686 381 682 362 C 712 350 744 341 778 335 C 812 329 847 326 883 326 C 917 326 944 329 965 335 C 985 341 1001 350 1012 364 C 1023 377 1030 394 1034 416 C 1038 437 1040 463 1040 494 L 1040 557 L 1391 557 L 1391 477 C 1391 383 1381 305 1361 243 C 1341 180 1310 130 1269 92 C 1228 54 1177 28 1115 12 C 1053 -4 979 -12 895 -12 Z" unicode="" />
<glyph horiz-adv-x="1458" d="M 160 686 L 524 686 L 12 1518 L 444 1518 L 729 1018 L 1016 1518 L 1446 1518 L 932 686 L 1292 686 L 1292 459 L 928 459 L 928 379 L 1292 379 L 1292 152 L 928 152 L 928 0 L 526 0 L 526 152 L 160 152 L 160 379 L 526 379 L 526 459 L 160 459 L 160 686 Z" unicode="" />
<glyph horiz-adv-x="831" d="M 209 465 L 621 465 L 621 -338 L 209 -338 L 209 465 Z M 209 1589 L 621 1589 L 621 786 L 209 786 L 209 1589 Z" unicode="" />
<glyph horiz-adv-x="1305" d="M 356 -6 C 328 -6 307 -5 291 -5 C 275 -5 261 -4 250 -4 C 239 -4 229 -3 220 -3 C 211 -2 200 -1 188 0 L 188 311 L 303 311 C 333 311 357 312 375 316 C 393 320 408 325 418 333 C 428 340 434 350 438 362 C 441 374 443 388 444 406 C 337 424 259 462 209 519 C 159 575 135 651 135 745 C 135 838 159 914 209 973 C 259 1032 337 1072 444 1094 C 444 1155 451 1212 463 1264 C 475 1316 499 1362 535 1400 C 571 1438 621 1467 685 1489 C 749 1511 832 1522 936 1522 C 964 1522 986 1521 1002 1521 C 1018 1521 1031 1520 1042 1520 C 1053 1520 1063 1519 1072 1518 C 1080 1517 1091 1516 1104 1516 L 1104 1186 L 991 1186 C 961 1186 936 1184 918 1181 C 899 1177 885 1172 875 1165 C 865 1158 858 1149 854 1137 C 850 1125 848 1112 848 1096 C 958 1075 1039 1035 1091 976 C 1143 917 1169 840 1169 745 C 1169 649 1143 573 1092 517 C 1040 460 960 422 850 403 C 848 343 841 289 827 239 C 813 189 788 145 752 109 C 716 73 666 44 602 24 C 538 4 456 -6 356 -6 Z M 651 623 C 689 623 721 625 747 630 C 772 634 792 641 807 651 C 822 661 833 673 839 687 C 845 701 848 717 848 735 C 848 754 845 771 839 785 C 833 799 822 810 807 819 C 792 828 772 835 747 839 C 721 843 689 846 651 846 C 613 846 581 843 556 839 C 531 835 511 828 497 819 C 482 810 472 799 466 785 C 460 771 457 754 457 735 C 457 717 460 701 466 687 C 472 673 482 661 497 651 C 511 641 531 634 556 630 C 581 625 613 623 651 623 Z" unicode="" />
<glyph horiz-adv-x="1208" d="M 182 1597 L 547 1597 L 547 1280 L 182 1280 L 182 1597 Z M 664 1597 L 1028 1597 L 1028 1280 L 664 1280 L 664 1597 Z" unicode="" />
<glyph horiz-adv-x="1632" d="M 834 289 C 746 289 670 299 608 321 C 546 343 495 374 455 415 C 415 456 387 507 369 567 C 351 627 342 695 342 772 C 342 856 354 929 379 990 C 403 1051 438 1101 482 1140 C 526 1178 580 1207 642 1225 C 704 1243 774 1253 850 1253 C 896 1253 937 1250 975 1244 C 1013 1238 1047 1228 1079 1216 C 1110 1204 1138 1189 1164 1171 C 1190 1153 1214 1132 1237 1108 L 1057 928 C 1031 954 1003 975 971 991 C 939 1006 898 1014 848 1014 C 762 1014 701 993 663 951 C 625 909 606 848 606 768 C 606 730 610 695 618 665 C 626 635 639 609 658 588 C 677 566 702 550 733 539 C 764 527 803 522 850 522 C 876 522 900 524 921 528 C 942 532 961 539 979 547 C 996 555 1012 564 1027 576 C 1041 587 1056 600 1071 614 L 1243 446 C 1223 424 1200 404 1176 386 C 1152 367 1123 350 1091 336 C 1059 321 1022 309 980 301 C 938 293 889 289 834 289 Z M 817 -25 C 689 -25 578 -4 483 37 C 388 78 309 134 245 205 C 181 276 134 359 102 455 C 70 550 55 652 55 760 C 55 832 62 901 76 968 C 90 1034 111 1097 139 1155 C 167 1213 203 1266 245 1314 C 287 1362 337 1403 393 1437 C 449 1471 513 1497 584 1516 C 654 1534 732 1544 817 1544 C 901 1544 978 1534 1048 1516 C 1118 1497 1182 1471 1238 1437 C 1294 1403 1344 1362 1386 1314 C 1428 1266 1464 1213 1492 1155 C 1520 1097 1542 1034 1556 968 C 1570 901 1577 832 1577 760 C 1577 652 1561 550 1529 455 C 1497 359 1450 276 1387 205 C 1323 134 1244 78 1149 37 C 1054 -4 943 -25 817 -25 Z M 817 115 C 929 115 1025 132 1103 167 C 1181 201 1244 248 1292 307 C 1340 365 1375 434 1397 512 C 1419 590 1430 672 1430 760 C 1430 846 1419 929 1397 1007 C 1375 1085 1340 1154 1292 1213 C 1244 1271 1181 1318 1103 1353 C 1025 1387 929 1405 817 1405 C 703 1405 608 1387 530 1353 C 452 1318 388 1271 340 1213 C 292 1154 257 1085 235 1007 C 213 929 203 846 203 760 C 203 672 213 590 235 512 C 257 434 292 365 340 307 C 388 248 452 201 530 167 C 608 132 703 115 817 115 Z" unicode="" />
<glyph horiz-adv-x="1292" d="M 453 555 C 383 555 325 563 281 579 C 237 595 202 616 177 644 C 151 672 134 704 125 740 C 115 776 111 814 111 854 C 111 920 123 975 147 1017 C 171 1059 208 1091 258 1114 C 308 1137 370 1153 446 1161 C 521 1169 609 1174 711 1174 L 739 1174 C 738 1186 736 1197 734 1207 C 731 1217 724 1225 714 1232 C 704 1238 689 1243 669 1247 C 649 1251 621 1253 586 1253 C 557 1253 529 1250 503 1246 C 476 1241 451 1235 428 1228 C 405 1220 384 1212 365 1204 C 345 1195 329 1186 315 1178 L 152 1419 C 170 1431 194 1444 225 1458 C 255 1472 291 1485 332 1497 C 372 1509 417 1519 466 1527 C 515 1535 567 1540 623 1540 C 711 1540 784 1533 840 1519 C 896 1505 940 1483 972 1453 C 1004 1423 1025 1384 1037 1337 C 1049 1289 1055 1232 1055 1165 L 1055 915 C 1055 899 1055 887 1057 878 C 1058 868 1061 861 1066 856 C 1071 850 1079 847 1089 845 C 1099 843 1112 842 1130 842 L 1130 571 C 1118 569 1101 567 1079 565 C 1057 563 1028 563 991 563 C 965 563 941 564 919 568 C 897 571 877 577 859 586 C 841 594 825 606 812 620 C 798 634 788 652 780 674 C 768 654 754 637 740 622 C 726 607 707 595 683 585 C 659 575 628 567 592 562 C 555 557 509 555 453 555 Z M 203 485 L 1051 485 L 1051 201 L 203 201 L 203 485 Z M 545 817 C 609 817 658 827 690 847 C 722 867 739 900 739 946 L 739 977 L 731 977 C 657 977 599 975 558 971 C 516 967 486 961 466 953 C 446 945 434 936 430 924 C 426 912 424 899 424 883 C 424 871 425 860 429 852 C 432 843 438 836 447 831 C 456 826 468 822 484 820 C 500 818 520 817 545 817 Z" unicode="" />
<glyph horiz-adv-x="1663" d="M 211 586 L 520 1174 L 872 1174 L 596 586 L 872 0 L 520 0 L 211 586 Z M 729 586 L 1038 1174 L 1393 1174 L 1116 586 L 1393 0 L 1038 0 L 729 586 Z" unicode="" />
<glyph horiz-adv-x="1507" d="M 1331 903 L 1331 164 L 928 164 L 928 541 L 176 541 L 176 903 L 1331 903 Z" unicode="" />
<glyph horiz-adv-x="842" d="M 66 874 L 776 874 L 776 514 L 66 514 L 66 874 Z" unicode="" />
<glyph horiz-adv-x="1632" d="M 817 -25 C 689 -25 578 -4 483 37 C 388 78 309 134 245 205 C 181 276 134 359 102 455 C 70 550 55 652 55 760 C 55 832 62 901 76 968 C 90 1034 111 1097 139 1155 C 167 1213 203 1266 245 1314 C 287 1362 337 1403 393 1437 C 449 1471 513 1497 584 1516 C 654 1534 732 1544 817 1544 C 901 1544 978 1534 1048 1516 C 1118 1497 1182 1471 1238 1437 C 1294 1403 1344 1362 1386 1314 C 1428 1266 1464 1213 1492 1155 C 1520 1097 1542 1034 1556 968 C 1570 901 1577 832 1577 760 C 1577 652 1561 550 1529 455 C 1497 359 1450 276 1387 205 C 1323 134 1244 78 1149 37 C 1054 -4 943 -25 817 -25 Z M 817 115 C 929 115 1025 132 1103 167 C 1181 201 1244 248 1292 307 C 1340 365 1375 434 1397 512 C 1419 590 1430 672 1430 760 C 1430 846 1419 929 1397 1007 C 1375 1085 1340 1154 1292 1213 C 1244 1271 1181 1318 1103 1353 C 1025 1387 929 1405 817 1405 C 703 1405 608 1387 530 1353 C 452 1318 388 1271 340 1213 C 292 1154 257 1085 235 1007 C 213 929 203 846 203 760 C 203 672 213 590 235 512 C 257 434 292 365 340 307 C 388 248 452 201 530 167 C 608 132 703 115 817 115 Z M 840 582 L 672 582 L 672 313 L 432 313 L 432 1204 L 881 1204 C 964 1204 1030 1195 1079 1179 C 1128 1163 1165 1141 1191 1113 C 1216 1085 1232 1052 1240 1015 C 1247 977 1251 938 1251 897 C 1251 869 1249 840 1246 812 C 1242 784 1235 757 1223 732 C 1211 707 1194 684 1172 663 C 1150 642 1120 625 1083 612 L 1243 313 L 983 313 L 840 582 Z M 872 786 C 898 786 920 787 937 790 C 954 793 968 798 978 806 C 988 814 994 824 998 838 C 1002 851 1004 868 1004 889 C 1004 909 1002 926 998 940 C 994 953 988 963 978 971 C 968 979 954 984 937 987 C 919 989 897 991 870 991 L 672 991 L 672 786 L 872 786 Z" unicode="" />
<glyph horiz-adv-x="1208" d="M 143 1602 L 1065 1602 L 1065 1280 L 143 1280 L 143 1602 Z" unicode="" />
<glyph horiz-adv-x="1165" d="M 582 535 C 492 535 414 548 349 576 C 284 603 231 640 189 686 C 147 732 116 786 96 847 C 76 907 66 971 66 1038 C 66 1104 76 1168 96 1229 C 116 1290 147 1344 189 1390 C 231 1436 284 1473 349 1501 C 414 1528 492 1542 582 1542 C 671 1542 748 1528 814 1501 C 879 1473 933 1436 975 1390 C 1017 1344 1049 1290 1069 1229 C 1089 1168 1100 1104 1100 1038 C 1100 971 1089 907 1069 847 C 1049 786 1017 732 975 686 C 933 640 879 603 814 576 C 748 548 671 535 582 535 Z M 582 825 C 620 825 651 830 677 842 C 702 853 722 868 737 887 C 752 905 763 927 769 951 C 775 975 778 1001 778 1028 C 778 1054 775 1080 769 1104 C 763 1128 752 1150 737 1168 C 722 1186 702 1201 677 1212 C 651 1223 620 1229 582 1229 C 543 1229 511 1223 486 1212 C 461 1201 441 1186 427 1168 C 412 1150 402 1128 396 1104 C 390 1080 387 1054 387 1028 C 387 1001 390 975 396 951 C 402 927 412 905 427 887 C 441 868 461 853 486 842 C 511 830 543 825 582 825 Z" unicode="" />
<glyph horiz-adv-x="1507" d="M 176 362 L 553 362 L 553 541 L 176 541 L 176 903 L 553 903 L 553 1276 L 956 1276 L 956 903 L 1331 903 L 1331 541 L 956 541 L 956 362 L 1331 362 L 1331 0 L 176 0 L 176 362 Z" unicode="" />
<glyph horiz-adv-x="1126" d="M 125 696 L 455 958 C 499 992 534 1021 561 1044 C 587 1066 608 1086 623 1102 C 637 1118 647 1132 652 1145 C 656 1158 659 1173 659 1190 C 659 1202 657 1213 653 1224 C 649 1234 642 1243 631 1251 C 620 1259 605 1265 585 1269 C 565 1273 538 1276 506 1276 C 482 1276 458 1274 434 1270 C 410 1266 386 1262 362 1256 C 338 1250 316 1243 296 1235 C 275 1227 257 1218 242 1210 L 102 1442 C 132 1458 163 1471 193 1483 C 223 1495 256 1504 291 1512 C 325 1520 363 1526 405 1530 C 447 1534 495 1536 549 1536 C 615 1536 673 1530 725 1519 C 776 1508 819 1490 855 1466 C 890 1441 917 1409 935 1370 C 953 1330 963 1283 963 1227 C 963 1187 957 1152 947 1120 C 937 1088 921 1057 900 1027 C 878 997 851 967 818 937 C 785 907 746 874 700 838 L 565 731 L 971 731 L 971 483 L 125 483 L 125 696 Z" unicode="" />
<glyph horiz-adv-x="1143" d="M 557 471 C 499 471 447 473 402 479 C 356 485 315 493 277 503 C 239 513 203 526 171 542 C 139 558 107 576 76 596 L 231 815 C 275 788 320 767 366 752 C 412 736 464 729 522 729 C 554 729 581 730 603 733 C 625 735 642 740 655 748 C 668 756 677 766 683 779 C 689 792 692 809 692 829 C 692 847 689 863 683 876 C 677 888 667 898 653 906 C 639 913 621 918 599 921 C 576 924 548 926 514 926 L 313 926 L 313 1141 L 510 1141 C 538 1141 561 1141 581 1143 C 601 1144 617 1147 629 1151 C 641 1155 650 1162 656 1171 C 661 1180 664 1192 664 1208 C 664 1222 661 1234 656 1243 C 651 1251 643 1258 631 1263 C 619 1267 604 1270 586 1272 C 567 1273 544 1274 516 1274 C 453 1274 398 1266 350 1251 C 302 1236 263 1220 233 1204 L 92 1434 C 144 1466 211 1492 293 1510 C 375 1528 465 1538 565 1538 C 640 1538 704 1532 756 1521 C 808 1509 850 1493 883 1472 C 915 1450 939 1424 953 1393 C 967 1361 975 1326 975 1286 C 975 1254 971 1226 965 1202 C 958 1178 948 1156 936 1138 C 924 1119 909 1103 892 1090 C 875 1076 856 1065 836 1057 C 860 1049 882 1038 902 1025 C 922 1012 940 995 955 974 C 970 953 982 928 991 898 C 999 868 1004 832 1004 791 C 1004 681 966 600 892 548 C 817 496 705 471 557 471 Z" unicode="" />
<glyph horiz-adv-x="1208" d="M 645 1686 L 1130 1686 L 721 1280 L 367 1280 L 645 1686 Z" unicode="" />
<glyph horiz-adv-x="1409" d="M 541 -23 C 530 -23 520 -22 511 -21 C 501 -20 492 -20 483 -20 L 483 -338 L 113 -338 L 113 1174 L 518 1174 L 518 528 C 518 497 520 470 524 446 C 528 422 537 401 549 385 C 561 368 577 355 599 347 C 621 338 649 334 684 334 C 729 334 765 338 792 347 C 819 356 840 369 854 387 C 868 404 877 425 881 450 C 885 474 887 503 887 535 L 887 1174 L 1294 1174 L 1294 14 L 985 -14 L 946 94 C 925 70 900 51 870 36 C 840 21 808 9 773 1 C 737 -7 700 -13 660 -17 C 620 -21 581 -23 541 -23 Z" unicode="" />
<glyph horiz-adv-x="1452" d="M 426 469 C 352 488 293 514 248 548 C 203 582 168 621 143 665 C 118 709 101 757 93 811 C 84 865 80 921 80 981 C 80 1033 83 1082 90 1129 C 96 1175 108 1218 126 1258 C 144 1298 168 1334 199 1366 C 229 1398 269 1425 317 1448 C 365 1470 424 1488 492 1500 C 560 1512 641 1518 733 1518 L 1311 1518 L 1311 0 L 930 0 L 930 434 L 807 434 L 807 0 L 426 0 L 426 469 Z M 930 754 L 930 1167 L 725 1167 C 677 1167 638 1163 608 1157 C 578 1150 554 1138 536 1122 C 518 1106 506 1084 499 1058 C 492 1031 489 998 489 958 C 489 920 492 888 500 862 C 507 836 520 815 538 799 C 556 783 580 771 610 764 C 640 757 677 754 723 754 L 930 754 Z" unicode="" />
<glyph horiz-adv-x="657" d="M 98 1016 L 557 1016 L 557 561 L 98 561 L 98 1016 Z" unicode="" />
<glyph horiz-adv-x="1208" d="M 596 -537 C 536 -537 482 -530 434 -517 C 386 -503 343 -485 303 -463 L 399 -281 C 432 -297 464 -309 496 -318 C 528 -327 556 -332 580 -332 C 618 -332 647 -327 665 -318 C 683 -308 692 -289 692 -260 C 692 -242 686 -228 676 -219 C 666 -209 652 -203 636 -199 C 620 -195 601 -194 580 -195 C 559 -195 538 -197 518 -199 L 449 -158 L 487 14 L 707 14 L 688 -84 C 720 -83 753 -84 785 -86 C 817 -88 845 -96 870 -110 C 895 -124 915 -144 931 -172 C 946 -200 954 -239 954 -289 C 954 -341 944 -383 925 -415 C 906 -447 880 -473 848 -491 C 815 -509 777 -521 734 -527 C 690 -533 644 -537 596 -537 Z" unicode="" />
<glyph horiz-adv-x="817" d="M 287 1249 L 121 1249 L 121 1518 L 602 1518 L 602 483 L 287 483 L 287 1249 Z" unicode="" />
<glyph horiz-adv-x="1272" d="M 637 551 C 543 551 464 562 399 584 C 333 606 280 639 239 681 C 197 723 167 775 149 837 C 130 899 121 969 121 1049 C 121 1127 130 1197 149 1259 C 167 1320 197 1372 239 1414 C 280 1456 333 1487 399 1509 C 464 1531 543 1542 637 1542 C 729 1542 808 1531 874 1509 C 939 1487 992 1456 1033 1414 C 1074 1372 1104 1320 1123 1259 C 1141 1197 1151 1127 1151 1049 C 1151 969 1141 899 1123 837 C 1104 775 1074 723 1033 681 C 992 639 939 606 874 584 C 808 562 729 551 637 551 Z M 637 831 C 673 831 703 836 727 846 C 751 856 770 871 784 890 C 798 908 807 930 813 956 C 818 981 821 1008 821 1038 C 821 1068 818 1095 813 1120 C 807 1145 798 1167 784 1185 C 770 1203 751 1217 727 1227 C 703 1237 673 1243 637 1243 C 599 1243 569 1237 545 1227 C 521 1217 503 1203 489 1185 C 475 1167 466 1145 461 1120 C 455 1095 453 1068 453 1038 C 453 1008 455 981 461 956 C 466 930 475 908 489 890 C 503 871 521 856 545 846 C 569 836 599 831 637 831 Z M 182 481 L 1090 481 L 1090 197 L 182 197 L 182 481 Z" unicode="" />
<glyph horiz-adv-x="1663" d="M 549 588 L 272 1174 L 625 1174 L 934 588 L 625 0 L 272 0 L 549 588 Z M 1067 588 L 791 1174 L 1145 1174 L 1454 588 L 1145 0 L 791 0 L 1067 588 Z" unicode="" />
<glyph horiz-adv-x="2314" d="M 1819 168 L 1292 168 L 1292 387 L 1753 1030 L 2093 1030 L 1649 412 L 1825 412 L 1884 598 L 2116 598 L 2116 412 L 2265 412 L 2265 168 L 2116 168 L 2116 0 L 1819 0 L 1819 168 Z M 225 1249 L 59 1249 L 59 1518 L 551 1518 L 551 485 L 225 485 L 225 1249 Z M 1319 1518 L 1671 1518 L 823 0 L 469 0 L 1319 1518 Z" unicode="" />
<glyph horiz-adv-x="2400" d="M 1452 213 L 1782 475 C 1826 509 1861 537 1888 559 C 1915 581 1936 599 1950 614 C 1964 629 1974 643 1979 655 C 1984 667 1987 682 1987 698 C 1987 710 1985 722 1981 732 C 1977 742 1970 751 1959 759 C 1948 767 1932 773 1912 777 C 1892 781 1865 784 1833 784 C 1809 784 1785 782 1761 779 C 1737 775 1713 771 1689 765 C 1665 759 1643 752 1623 744 C 1602 736 1584 727 1569 719 L 1430 950 C 1460 966 1491 979 1521 991 C 1551 1003 1583 1013 1618 1021 C 1652 1029 1690 1034 1732 1038 C 1774 1042 1822 1044 1876 1044 C 1942 1044 2000 1038 2052 1027 C 2103 1016 2146 998 2182 974 C 2217 949 2244 917 2262 878 C 2280 839 2290 791 2290 735 C 2290 695 2284 660 2274 629 C 2264 598 2248 568 2227 539 C 2205 510 2178 481 2145 452 C 2112 422 2073 390 2028 354 L 1892 248 L 2298 248 L 2298 0 L 1452 0 L 1452 213 Z M 225 1249 L 59 1249 L 59 1518 L 551 1518 L 551 485 L 225 485 L 225 1249 Z M 1319 1518 L 1671 1518 L 823 0 L 469 0 L 1319 1518 Z" unicode="" />
<glyph horiz-adv-x="2632" d="M 553 475 C 495 475 443 477 398 483 C 352 489 311 497 273 507 C 235 517 199 530 167 546 C 135 562 103 580 72 600 L 227 819 C 271 792 315 771 361 756 C 407 740 459 733 518 733 C 550 733 577 734 599 737 C 621 739 638 744 651 752 C 664 760 673 770 679 783 C 685 796 688 813 688 834 C 688 852 685 868 679 880 C 673 892 663 902 649 910 C 635 917 617 922 595 925 C 572 928 544 930 510 930 L 309 930 L 309 1145 L 506 1145 C 534 1145 557 1145 577 1147 C 596 1148 612 1151 624 1155 C 636 1159 645 1166 651 1175 C 656 1184 659 1196 659 1212 C 659 1226 656 1238 651 1247 C 646 1255 638 1262 627 1267 C 615 1271 600 1274 582 1276 C 563 1277 540 1278 512 1278 C 449 1278 394 1270 346 1255 C 298 1240 259 1224 229 1208 L 88 1438 C 140 1470 207 1496 289 1514 C 370 1532 461 1542 561 1542 C 636 1542 700 1536 752 1525 C 804 1513 846 1497 879 1476 C 911 1454 935 1428 949 1397 C 963 1365 971 1330 971 1290 C 971 1258 967 1230 960 1206 C 953 1182 943 1160 931 1142 C 919 1123 904 1107 887 1094 C 870 1080 851 1069 831 1061 C 855 1053 877 1042 898 1029 C 918 1016 936 999 951 978 C 966 957 978 932 986 902 C 994 872 999 836 999 795 C 999 685 961 604 887 552 C 813 500 701 475 553 475 Z M 2134 168 L 1608 168 L 1608 387 L 2071 1030 L 2410 1030 L 1966 412 L 2142 412 L 2202 598 L 2433 598 L 2433 412 L 2583 412 L 2583 168 L 2433 168 L 2433 0 L 2134 0 L 2134 168 Z M 1638 1518 L 1991 1518 L 1141 0 L 788 0 L 1638 1518 Z" unicode="" />
<glyph horiz-adv-x="1477" d="M 713 -25 C 617 -25 531 -17 456 -3 C 381 10 318 34 266 68 C 214 101 175 145 149 199 C 122 253 109 321 109 401 C 109 459 115 510 127 552 C 139 594 157 631 181 662 C 205 692 234 718 269 739 C 303 760 343 779 389 797 C 439 815 477 832 505 846 C 533 860 553 875 565 893 C 577 910 584 931 585 957 C 586 983 585 1017 582 1059 L 977 1059 C 989 987 993 927 989 879 C 985 831 972 790 951 756 C 929 722 899 694 860 670 C 821 646 773 624 715 602 C 673 586 639 572 614 560 C 589 548 570 537 557 525 C 544 513 536 501 532 488 C 528 474 526 458 526 440 C 526 423 528 408 534 395 C 539 382 549 371 565 363 C 580 354 602 347 631 343 C 659 338 697 336 745 336 C 830 337 908 347 978 365 C 1048 383 1114 406 1174 434 L 1343 98 C 1304 80 1260 63 1212 48 C 1163 32 1111 19 1057 9 C 1002 -1 945 -10 887 -16 C 829 -22 771 -25 713 -25 Z M 551 1518 L 1010 1518 L 1010 1137 L 551 1137 L 551 1518 Z" unicode="" />
<glyph horiz-adv-x="1681" d="M 623 1528 L 1055 1528 L 1667 0 L 1227 0 L 1151 197 L 504 197 L 428 0 L 14 0 L 623 1528 Z M 1016 545 L 827 1028 L 639 545 L 1016 545 Z M 313 2001 L 799 2001 L 1077 1595 L 723 1595 L 313 2001 Z" unicode="" />
<glyph horiz-adv-x="1681" d="M 623 1528 L 1055 1528 L 1667 0 L 1227 0 L 1151 197 L 504 197 L 428 0 L 14 0 L 623 1528 Z M 1016 545 L 827 1028 L 639 545 L 1016 545 Z M 881 2001 L 1366 2001 L 956 1595 L 602 1595 L 881 2001 Z" unicode="" />
<glyph horiz-adv-x="1681" d="M 623 1528 L 1055 1528 L 1667 0 L 1227 0 L 1151 197 L 504 197 L 428 0 L 14 0 L 623 1528 Z M 1016 545 L 827 1028 L 639 545 L 1016 545 Z M 633 2001 L 1047 2001 L 1366 1595 L 991 1595 L 836 1749 L 680 1595 L 313 1595 L 633 2001 Z" unicode="" />
<glyph horiz-adv-x="1681" d="M 623 1528 L 1055 1528 L 1667 0 L 1227 0 L 1151 197 L 504 197 L 428 0 L 14 0 L 623 1528 Z M 1016 545 L 827 1028 L 639 545 L 1016 545 Z M 297 1761 C 363 1843 429 1907 495 1951 C 561 1995 626 2017 690 2017 C 726 2017 757 2011 783 1999 C 809 1987 832 1974 852 1960 C 872 1946 892 1933 911 1921 C 929 1909 950 1903 973 1903 C 983 1903 995 1905 1007 1909 C 1019 1913 1033 1919 1048 1929 C 1062 1938 1078 1951 1095 1967 C 1112 1983 1131 2004 1151 2028 L 1372 1845 C 1306 1763 1240 1700 1174 1656 C 1108 1611 1043 1589 979 1589 C 943 1589 912 1595 888 1607 C 863 1619 840 1633 820 1647 C 800 1661 780 1675 762 1687 C 743 1699 722 1706 698 1706 C 676 1706 651 1697 622 1679 C 592 1661 558 1627 518 1579 L 297 1761 Z" unicode="" />
<glyph horiz-adv-x="1681" d="M 623 1528 L 1055 1528 L 1667 0 L 1227 0 L 1151 197 L 504 197 L 428 0 L 14 0 L 623 1528 Z M 1016 545 L 827 1028 L 639 545 L 1016 545 Z M 418 1913 L 782 1913 L 782 1595 L 418 1595 L 418 1913 Z M 899 1913 L 1264 1913 L 1264 1595 L 899 1595 L 899 1913 Z" unicode="" />
<glyph horiz-adv-x="1681" d="M 582 1427 C 561 1456 546 1489 536 1525 C 526 1561 522 1599 522 1640 C 522 1686 527 1728 539 1768 C 551 1808 569 1842 595 1872 C 621 1901 654 1924 694 1941 C 734 1957 782 1966 840 1966 C 894 1966 940 1957 980 1941 C 1019 1924 1052 1901 1078 1872 C 1104 1842 1123 1808 1136 1768 C 1148 1728 1155 1686 1155 1640 C 1155 1599 1150 1561 1140 1526 C 1130 1491 1114 1460 1094 1432 L 1667 0 L 1227 0 L 1151 197 L 504 197 L 428 0 L 14 0 L 582 1427 Z M 1016 545 L 827 1028 L 639 545 L 1016 545 Z M 840 1511 C 862 1511 881 1514 897 1521 C 913 1527 925 1536 935 1548 C 944 1560 951 1573 955 1589 C 959 1605 961 1622 961 1640 C 961 1658 959 1676 955 1692 C 951 1708 944 1722 935 1734 C 925 1746 913 1755 897 1762 C 881 1768 862 1772 840 1772 C 816 1772 797 1768 782 1762 C 766 1755 754 1746 745 1734 C 735 1722 729 1708 725 1692 C 721 1676 719 1658 719 1640 C 719 1622 721 1605 725 1589 C 729 1573 735 1560 745 1548 C 754 1536 766 1527 782 1521 C 797 1514 816 1511 840 1511 Z" unicode="" />
<glyph horiz-adv-x="2433" d="M 940 1518 L 2322 1518 L 2322 1135 L 1538 1135 L 1538 950 L 2302 950 L 2302 580 L 1538 580 L 1538 367 L 2331 367 L 2331 0 L 1133 0 L 1133 217 L 549 217 L 399 0 L -10 0 L 940 1518 Z M 1133 559 L 1133 1151 L 748 559 L 1133 559 Z" unicode="" />
<glyph horiz-adv-x="1593" d="M 788 -537 C 728 -537 675 -530 627 -517 C 579 -503 536 -485 496 -463 L 592 -281 C 624 -297 657 -309 689 -318 C 721 -327 748 -332 772 -332 C 810 -332 839 -327 857 -318 C 875 -308 885 -289 885 -260 C 885 -242 879 -228 869 -219 C 859 -209 845 -203 829 -199 C 813 -195 794 -194 773 -195 C 752 -195 731 -197 711 -199 L 641 -158 L 674 -12 C 560 2 463 29 385 69 C 307 109 243 162 195 228 C 147 294 112 371 91 460 C 69 549 59 649 59 760 C 59 898 77 1016 115 1115 C 152 1214 206 1295 277 1358 C 348 1421 434 1467 536 1497 C 638 1527 753 1542 883 1542 C 959 1542 1028 1537 1090 1527 C 1151 1517 1207 1502 1257 1482 C 1307 1462 1352 1438 1394 1409 C 1435 1379 1474 1345 1511 1307 L 1219 1014 C 1197 1035 1176 1054 1154 1072 C 1132 1089 1107 1104 1081 1116 C 1054 1128 1024 1137 992 1143 C 959 1149 922 1153 881 1153 C 809 1153 747 1144 697 1127 C 647 1109 606 1084 575 1051 C 544 1017 522 976 508 926 C 494 876 487 818 487 754 C 487 692 492 637 504 588 C 515 538 535 496 565 462 C 595 428 635 401 687 383 C 738 365 803 356 883 356 C 928 356 968 359 1002 367 C 1036 374 1067 384 1095 397 C 1123 410 1148 426 1172 444 C 1195 462 1219 483 1243 506 L 1522 233 C 1490 199 1456 168 1419 138 C 1381 108 1338 81 1288 58 C 1238 35 1181 16 1117 2 C 1052 -12 977 -21 891 -23 L 881 -84 C 913 -83 946 -84 978 -86 C 1010 -88 1038 -96 1063 -110 C 1088 -124 1108 -144 1124 -172 C 1139 -200 1147 -239 1147 -289 C 1147 -341 1137 -383 1118 -415 C 1099 -447 1073 -473 1041 -491 C 1008 -509 970 -521 926 -527 C 882 -533 836 -537 788 -537 Z" unicode="" />
<glyph horiz-adv-x="1458" d="M 139 1518 L 1348 1518 L 1348 1135 L 563 1135 L 563 950 L 1327 950 L 1327 580 L 563 580 L 563 367 L 1356 367 L 1356 0 L 139 0 L 139 1518 Z M 203 2001 L 688 2001 L 967 1595 L 612 1595 L 203 2001 Z" unicode="" />
<glyph horiz-adv-x="1458" d="M 139 1518 L 1348 1518 L 1348 1135 L 563 1135 L 563 950 L 1327 950 L 1327 580 L 563 580 L 563 367 L 1356 367 L 1356 0 L 139 0 L 139 1518 Z M 770 2001 L 1255 2001 L 846 1595 L 492 1595 L 770 2001 Z" unicode="" />
<glyph horiz-adv-x="1458" d="M 139 1518 L 1348 1518 L 1348 1135 L 563 1135 L 563 950 L 1327 950 L 1327 580 L 563 580 L 563 367 L 1356 367 L 1356 0 L 139 0 L 139 1518 Z M 522 2001 L 936 2001 L 1255 1595 L 881 1595 L 725 1749 L 569 1595 L 203 1595 L 522 2001 Z" unicode="" />
<glyph horiz-adv-x="1458" d="M 139 1518 L 1348 1518 L 1348 1135 L 563 1135 L 563 950 L 1327 950 L 1327 580 L 563 580 L 563 367 L 1356 367 L 1356 0 L 139 0 L 139 1518 Z M 307 1913 L 672 1913 L 672 1595 L 307 1595 L 307 1913 Z M 788 1913 L 1153 1913 L 1153 1595 L 788 1595 L 788 1913 Z" unicode="" />
<glyph horiz-adv-x="752" d="M -203 2001 L 303 2001 L 588 1595 L 213 1595 L -203 2001 Z M 164 1518 L 588 1518 L 588 0 L 164 0 L 164 1518 Z" unicode="" />
<glyph horiz-adv-x="752" d="M 446 2001 L 952 2001 L 539 1595 L 164 1595 L 446 2001 Z M 164 1518 L 588 1518 L 588 0 L 164 0 L 164 1518 Z" unicode="" />
<glyph horiz-adv-x="752" d="M 168 2001 L 582 2001 L 881 1595 L 506 1595 L 371 1749 L 236 1595 L -131 1595 L 168 2001 Z M 164 1518 L 588 1518 L 588 0 L 164 0 L 164 1518 Z" unicode="" />
<glyph horiz-adv-x="752" d="M 164 1518 L 588 1518 L 588 0 L 164 0 L 164 1518 Z M -47 1913 L 317 1913 L 317 1595 L -47 1595 L -47 1913 Z M 434 1913 L 799 1913 L 799 1595 L 434 1595 L 434 1913 Z" unicode="" />
<glyph horiz-adv-x="1645" d="M 0 924 L 139 924 L 139 1518 L 709 1518 C 861 1518 993 1507 1104 1485 C 1214 1463 1305 1424 1377 1368 C 1449 1312 1502 1234 1536 1136 C 1570 1038 1587 912 1587 760 C 1587 609 1568 485 1532 387 C 1495 289 1440 211 1367 154 C 1293 96 1202 56 1092 34 C 982 11 855 0 709 0 L 139 0 L 139 590 L 0 590 L 0 924 Z M 733 369 C 828 369 904 376 960 390 C 1016 404 1059 427 1089 458 C 1118 489 1137 529 1146 579 C 1154 629 1159 689 1159 760 C 1159 806 1157 848 1154 885 C 1151 921 1144 954 1134 982 C 1124 1010 1109 1033 1089 1053 C 1069 1073 1043 1089 1010 1101 C 977 1113 936 1122 888 1128 C 839 1134 781 1137 713 1137 L 563 1137 L 563 924 L 813 924 L 813 590 L 563 590 L 563 369 L 733 369 Z" unicode="" />
<glyph horiz-adv-x="1731" d="M 139 1518 L 594 1518 L 1186 715 L 1186 1518 L 1591 1518 L 1591 0 L 1200 0 L 545 887 L 545 0 L 139 0 L 139 1518 Z M 322 1761 C 388 1843 454 1907 520 1951 C 586 1995 651 2017 715 2017 C 751 2017 781 2011 807 1999 C 833 1987 856 1974 876 1960 C 896 1946 916 1933 935 1921 C 953 1909 974 1903 997 1903 C 1007 1903 1019 1905 1032 1909 C 1044 1913 1058 1919 1073 1929 C 1087 1938 1103 1951 1120 1967 C 1137 1983 1156 2004 1176 2028 L 1397 1845 C 1331 1763 1264 1700 1198 1656 C 1132 1611 1067 1589 1004 1589 C 980 1589 958 1591 939 1597 C 920 1603 903 1610 888 1619 C 872 1627 858 1637 845 1647 C 831 1657 818 1667 805 1676 C 792 1684 779 1691 766 1697 C 752 1703 738 1706 723 1706 C 701 1706 676 1697 647 1679 C 617 1661 583 1627 543 1579 L 322 1761 Z" unicode="" />
<glyph horiz-adv-x="1767" d="M 883 -25 C 762 -25 651 -11 551 15 C 450 41 363 85 290 147 C 217 209 160 290 120 390 C 79 490 59 613 59 760 C 59 906 79 1028 120 1128 C 160 1228 217 1308 290 1370 C 363 1431 450 1475 551 1502 C 651 1528 762 1542 883 1542 C 1003 1542 1113 1528 1214 1502 C 1315 1475 1402 1431 1475 1370 C 1548 1308 1605 1228 1646 1128 C 1687 1028 1708 906 1708 760 C 1708 613 1687 490 1646 390 C 1605 290 1548 209 1475 147 C 1402 85 1315 41 1214 15 C 1113 -11 1003 -25 883 -25 Z M 883 348 C 961 348 1026 358 1077 378 C 1128 398 1168 425 1198 461 C 1228 497 1248 539 1260 589 C 1272 638 1278 692 1278 752 C 1278 810 1272 864 1260 913 C 1248 962 1228 1004 1198 1040 C 1168 1076 1128 1103 1077 1123 C 1026 1143 961 1153 883 1153 C 803 1153 738 1143 687 1123 C 636 1103 596 1076 566 1040 C 536 1004 516 962 504 913 C 492 864 487 810 487 752 C 487 692 492 638 504 589 C 516 539 536 497 566 461 C 596 425 636 398 687 378 C 738 358 803 348 883 348 Z M 356 2001 L 842 2001 L 1120 1595 L 766 1595 L 356 2001 Z" unicode="" />
<glyph horiz-adv-x="1767" d="M 883 -25 C 762 -25 651 -11 551 15 C 450 41 363 85 290 147 C 217 209 160 290 120 390 C 79 490 59 613 59 760 C 59 906 79 1028 120 1128 C 160 1228 217 1308 290 1370 C 363 1431 450 1475 551 1502 C 651 1528 762 1542 883 1542 C 1003 1542 1113 1528 1214 1502 C 1315 1475 1402 1431 1475 1370 C 1548 1308 1605 1228 1646 1128 C 1687 1028 1708 906 1708 760 C 1708 613 1687 490 1646 390 C 1605 290 1548 209 1475 147 C 1402 85 1315 41 1214 15 C 1113 -11 1003 -25 883 -25 Z M 883 348 C 961 348 1026 358 1077 378 C 1128 398 1168 425 1198 461 C 1228 497 1248 539 1260 589 C 1272 638 1278 692 1278 752 C 1278 810 1272 864 1260 913 C 1248 962 1228 1004 1198 1040 C 1168 1076 1128 1103 1077 1123 C 1026 1143 961 1153 883 1153 C 803 1153 738 1143 687 1123 C 636 1103 596 1076 566 1040 C 536 1004 516 962 504 913 C 492 864 487 810 487 752 C 487 692 492 638 504 589 C 516 539 536 497 566 461 C 596 425 636 398 687 378 C 738 358 803 348 883 348 Z M 924 2001 L 1409 2001 L 999 1595 L 645 1595 L 924 2001 Z" unicode="" />
<glyph horiz-adv-x="1767" d="M 883 -25 C 762 -25 651 -11 551 15 C 450 41 363 85 290 147 C 217 209 160 290 120 390 C 79 490 59 613 59 760 C 59 906 79 1028 120 1128 C 160 1228 217 1308 290 1370 C 363 1431 450 1475 551 1502 C 651 1528 762 1542 883 1542 C 1003 1542 1113 1528 1214 1502 C 1315 1475 1402 1431 1475 1370 C 1548 1308 1605 1228 1646 1128 C 1687 1028 1708 906 1708 760 C 1708 613 1687 490 1646 390 C 1605 290 1548 209 1475 147 C 1402 85 1315 41 1214 15 C 1113 -11 1003 -25 883 -25 Z M 883 348 C 961 348 1026 358 1077 378 C 1128 398 1168 425 1198 461 C 1228 497 1248 539 1260 589 C 1272 638 1278 692 1278 752 C 1278 810 1272 864 1260 913 C 1248 962 1228 1004 1198 1040 C 1168 1076 1128 1103 1077 1123 C 1026 1143 961 1153 883 1153 C 803 1153 738 1143 687 1123 C 636 1103 596 1076 566 1040 C 536 1004 516 962 504 913 C 492 864 487 810 487 752 C 487 692 492 638 504 589 C 516 539 536 497 566 461 C 596 425 636 398 687 378 C 738 358 803 348 883 348 Z M 676 2001 L 1090 2001 L 1409 1595 L 1034 1595 L 879 1749 L 723 1595 L 356 1595 L 676 2001 Z" unicode="" />
<glyph horiz-adv-x="1767" d="M 883 -25 C 762 -25 651 -11 551 15 C 450 41 363 85 290 147 C 217 209 160 290 120 390 C 79 490 59 613 59 760 C 59 906 79 1028 120 1128 C 160 1228 217 1308 290 1370 C 363 1431 450 1475 551 1502 C 651 1528 762 1542 883 1542 C 1003 1542 1113 1528 1214 1502 C 1315 1475 1402 1431 1475 1370 C 1548 1308 1605 1228 1646 1128 C 1687 1028 1708 906 1708 760 C 1708 613 1687 490 1646 390 C 1605 290 1548 209 1475 147 C 1402 85 1315 41 1214 15 C 1113 -11 1003 -25 883 -25 Z M 883 348 C 961 348 1026 358 1077 378 C 1128 398 1168 425 1198 461 C 1228 497 1248 539 1260 589 C 1272 638 1278 692 1278 752 C 1278 810 1272 864 1260 913 C 1248 962 1228 1004 1198 1040 C 1168 1076 1128 1103 1077 1123 C 1026 1143 961 1153 883 1153 C 803 1153 738 1143 687 1123 C 636 1103 596 1076 566 1040 C 536 1004 516 962 504 913 C 492 864 487 810 487 752 C 487 692 492 638 504 589 C 516 539 536 497 566 461 C 596 425 636 398 687 378 C 738 358 803 348 883 348 Z M 340 1761 C 406 1843 472 1907 538 1951 C 604 1995 669 2017 733 2017 C 769 2017 800 2011 826 1999 C 852 1987 875 1974 895 1960 C 915 1946 935 1933 954 1921 C 972 1909 993 1903 1016 1903 C 1026 1903 1038 1905 1050 1909 C 1062 1913 1076 1919 1091 1929 C 1105 1938 1121 1951 1138 1967 C 1155 1983 1174 2004 1194 2028 L 1415 1845 C 1349 1763 1283 1700 1217 1656 C 1151 1611 1086 1589 1022 1589 C 986 1589 955 1595 931 1607 C 906 1619 883 1633 863 1647 C 843 1661 823 1675 805 1687 C 786 1699 765 1706 741 1706 C 719 1706 694 1697 665 1679 C 635 1661 601 1627 561 1579 L 340 1761 Z" unicode="" />
<glyph horiz-adv-x="1767" d="M 883 -25 C 762 -25 651 -11 551 15 C 450 41 363 85 290 147 C 217 209 160 290 120 390 C 79 490 59 613 59 760 C 59 906 79 1028 120 1128 C 160 1228 217 1308 290 1370 C 363 1431 450 1475 551 1502 C 651 1528 762 1542 883 1542 C 1003 1542 1113 1528 1214 1502 C 1315 1475 1402 1431 1475 1370 C 1548 1308 1605 1228 1646 1128 C 1687 1028 1708 906 1708 760 C 1708 613 1687 490 1646 390 C 1605 290 1548 209 1475 147 C 1402 85 1315 41 1214 15 C 1113 -11 1003 -25 883 -25 Z M 883 348 C 961 348 1026 358 1077 378 C 1128 398 1168 425 1198 461 C 1228 497 1248 539 1260 589 C 1272 638 1278 692 1278 752 C 1278 810 1272 864 1260 913 C 1248 962 1228 1004 1198 1040 C 1168 1076 1128 1103 1077 1123 C 1026 1143 961 1153 883 1153 C 803 1153 738 1143 687 1123 C 636 1103 596 1076 566 1040 C 536 1004 516 962 504 913 C 492 864 487 810 487 752 C 487 692 492 638 504 589 C 516 539 536 497 566 461 C 596 425 636 398 687 378 C 738 358 803 348 883 348 Z M 461 1913 L 825 1913 L 825 1595 L 461 1595 L 461 1913 Z M 942 1913 L 1307 1913 L 1307 1595 L 942 1595 L 942 1913 Z" unicode="" />
<glyph horiz-adv-x="1507" d="M 211 426 L 506 721 L 211 1014 L 461 1270 L 756 975 L 1049 1270 L 1296 1014 L 1001 721 L 1296 428 L 1049 172 L 756 467 L 457 170 L 211 426 Z" unicode="" />
<glyph horiz-adv-x="1767" d="M 883 -25 C 831 -25 781 -22 734 -17 C 686 -12 641 -5 598 4 L 545 -84 L 205 -84 L 328 119 C 286 149 248 184 215 225 C 181 266 153 313 130 366 C 107 418 89 477 77 543 C 65 608 59 680 59 760 C 59 906 79 1028 120 1128 C 160 1228 217 1308 290 1370 C 363 1431 450 1475 551 1502 C 651 1528 762 1542 883 1542 C 934 1542 983 1539 1031 1534 C 1079 1529 1125 1521 1169 1511 L 1225 1604 L 1563 1604 L 1438 1399 C 1480 1369 1518 1333 1552 1292 C 1585 1251 1613 1204 1636 1152 C 1659 1099 1677 1040 1689 975 C 1701 910 1708 838 1708 760 C 1708 613 1687 490 1646 390 C 1605 290 1548 209 1475 147 C 1402 85 1315 41 1214 15 C 1113 -11 1003 -25 883 -25 Z M 883 332 C 965 332 1032 342 1086 363 C 1139 384 1181 413 1212 450 C 1242 487 1264 531 1276 583 C 1288 634 1294 690 1294 752 C 1294 812 1288 868 1276 919 C 1264 969 1243 1013 1212 1051 L 780 338 C 810 334 845 332 883 332 Z M 471 752 C 471 692 476 636 487 586 C 498 535 519 491 549 455 L 977 1163 C 947 1167 916 1169 883 1169 C 800 1169 732 1158 679 1138 C 626 1117 584 1088 553 1051 C 522 1014 501 970 489 919 C 477 868 471 812 471 752 Z" unicode="" />
<glyph horiz-adv-x="1710" d="M 856 -31 C 740 -31 642 -22 561 -4 C 480 13 413 37 359 68 C 305 98 262 134 232 175 C 201 216 178 260 162 306 C 146 352 137 400 133 450 C 129 500 127 548 127 596 L 127 1518 L 553 1518 L 553 653 C 553 601 556 555 563 517 C 570 478 585 446 607 420 C 629 394 660 375 700 363 C 740 350 794 344 862 344 C 928 344 981 350 1021 362 C 1061 374 1093 392 1115 417 C 1137 442 1152 474 1160 513 C 1167 552 1171 599 1171 653 L 1171 1518 L 1583 1518 L 1583 596 C 1583 548 1581 500 1577 450 C 1573 400 1563 352 1548 306 C 1532 260 1509 216 1479 175 C 1448 134 1406 98 1352 68 C 1298 37 1230 13 1150 -4 C 1069 -22 971 -31 856 -31 Z M 328 2001 L 813 2001 L 1092 1595 L 737 1595 L 328 2001 Z" unicode="" />
<glyph horiz-adv-x="1710" d="M 856 -31 C 740 -31 642 -22 561 -4 C 480 13 413 37 359 68 C 305 98 262 134 232 175 C 201 216 178 260 162 306 C 146 352 137 400 133 450 C 129 500 127 548 127 596 L 127 1518 L 553 1518 L 553 653 C 553 601 556 555 563 517 C 570 478 585 446 607 420 C 629 394 660 375 700 363 C 740 350 794 344 862 344 C 928 344 981 350 1021 362 C 1061 374 1093 392 1115 417 C 1137 442 1152 474 1160 513 C 1167 552 1171 599 1171 653 L 1171 1518 L 1583 1518 L 1583 596 C 1583 548 1581 500 1577 450 C 1573 400 1563 352 1548 306 C 1532 260 1509 216 1479 175 C 1448 134 1406 98 1352 68 C 1298 37 1230 13 1150 -4 C 1069 -22 971 -31 856 -31 Z M 895 2001 L 1380 2001 L 971 1595 L 616 1595 L 895 2001 Z" unicode="" />
<glyph horiz-adv-x="1710" d="M 856 -31 C 740 -31 642 -22 561 -4 C 480 13 413 37 359 68 C 305 98 262 134 232 175 C 201 216 178 260 162 306 C 146 352 137 400 133 450 C 129 500 127 548 127 596 L 127 1518 L 553 1518 L 553 653 C 553 601 556 555 563 517 C 570 478 585 446 607 420 C 629 394 660 375 700 363 C 740 350 794 344 862 344 C 928 344 981 350 1021 362 C 1061 374 1093 392 1115 417 C 1137 442 1152 474 1160 513 C 1167 552 1171 599 1171 653 L 1171 1518 L 1583 1518 L 1583 596 C 1583 548 1581 500 1577 450 C 1573 400 1563 352 1548 306 C 1532 260 1509 216 1479 175 C 1448 134 1406 98 1352 68 C 1298 37 1230 13 1150 -4 C 1069 -22 971 -31 856 -31 Z M 647 2001 L 1061 2001 L 1380 1595 L 1006 1595 L 850 1749 L 694 1595 L 328 1595 L 647 2001 Z" unicode="" />
<glyph horiz-adv-x="1710" d="M 856 -31 C 740 -31 642 -22 561 -4 C 480 13 413 37 359 68 C 305 98 262 134 232 175 C 201 216 178 260 162 306 C 146 352 137 400 133 450 C 129 500 127 548 127 596 L 127 1518 L 553 1518 L 553 653 C 553 601 556 555 563 517 C 570 478 585 446 607 420 C 629 394 660 375 700 363 C 740 350 794 344 862 344 C 928 344 981 350 1021 362 C 1061 374 1093 392 1115 417 C 1137 442 1152 474 1160 513 C 1167 552 1171 599 1171 653 L 1171 1518 L 1583 1518 L 1583 596 C 1583 548 1581 500 1577 450 C 1573 400 1563 352 1548 306 C 1532 260 1509 216 1479 175 C 1448 134 1406 98 1352 68 C 1298 37 1230 13 1150 -4 C 1069 -22 971 -31 856 -31 Z M 432 1913 L 797 1913 L 797 1595 L 432 1595 L 432 1913 Z M 913 1913 L 1278 1913 L 1278 1595 L 913 1595 L 913 1913 Z" unicode="" />
<glyph horiz-adv-x="1620" d="M 596 504 L -4 1518 L 451 1518 L 817 883 L 1184 1518 L 1622 1518 L 1020 500 L 1020 0 L 596 0 L 596 504 Z M 850 2001 L 1335 2001 L 926 1595 L 571 1595 L 850 2001 Z" unicode="" />
<glyph horiz-adv-x="1612" d="M 139 1518 L 553 1518 L 553 1339 L 901 1339 C 993 1339 1073 1333 1141 1321 C 1209 1309 1268 1291 1316 1269 C 1364 1247 1404 1220 1435 1188 C 1465 1156 1489 1120 1507 1080 C 1525 1040 1537 997 1544 951 C 1550 904 1554 855 1554 803 C 1554 751 1550 702 1544 654 C 1538 606 1526 561 1509 519 C 1491 477 1467 438 1436 404 C 1404 369 1363 339 1313 314 C 1263 289 1202 270 1131 256 C 1059 242 975 236 877 236 L 553 236 L 553 0 L 139 0 L 139 1518 Z M 895 586 C 940 586 978 589 1008 596 C 1038 602 1061 613 1079 629 C 1097 644 1109 664 1117 689 C 1124 713 1128 744 1128 780 C 1128 818 1124 849 1117 875 C 1110 900 1098 920 1081 936 C 1063 952 1039 963 1009 969 C 978 975 939 979 893 979 L 553 979 L 553 586 L 895 586 Z" unicode="" />
<glyph horiz-adv-x="1473" d="M 113 1036 C 113 1082 115 1129 121 1176 C 127 1222 137 1267 153 1310 C 169 1352 191 1392 220 1429 C 248 1466 285 1498 331 1525 C 377 1552 432 1573 497 1589 C 562 1604 639 1612 729 1612 C 823 1612 904 1602 973 1583 C 1042 1563 1099 1535 1144 1499 C 1189 1463 1223 1418 1245 1365 C 1267 1312 1278 1252 1278 1186 C 1278 1130 1273 1082 1265 1044 C 1256 1005 1244 972 1228 945 C 1212 917 1193 895 1171 877 C 1149 859 1124 843 1098 829 C 1147 816 1191 802 1230 786 C 1269 770 1302 748 1329 721 C 1355 693 1376 658 1390 616 C 1404 574 1411 520 1411 455 C 1411 399 1407 348 1400 304 C 1392 260 1379 221 1360 187 C 1341 153 1315 125 1283 101 C 1251 77 1210 58 1160 43 C 1110 28 1050 17 981 10 C 911 3 830 0 737 0 L 621 0 L 621 344 L 723 344 C 785 344 835 347 873 354 C 911 360 940 370 961 383 C 981 396 995 412 1002 430 C 1008 448 1012 470 1012 494 C 1012 522 1007 545 998 563 C 988 581 970 596 943 607 C 916 618 878 626 829 630 C 780 634 716 637 637 637 L 637 911 C 693 911 737 914 771 921 C 804 927 829 937 846 951 C 863 965 874 982 879 1002 C 884 1022 887 1045 887 1073 C 887 1095 884 1114 880 1132 C 875 1150 866 1165 854 1178 C 841 1190 824 1200 803 1207 C 781 1213 754 1217 721 1217 C 682 1217 649 1213 623 1206 C 597 1199 575 1188 559 1172 C 543 1156 531 1136 524 1112 C 517 1087 514 1057 514 1022 L 514 0 L 113 0 L 113 1036 Z" unicode="" />
<glyph horiz-adv-x="1348" d="M 487 -18 C 392 -18 315 -8 256 10 C 196 29 150 55 117 89 C 83 122 61 161 49 206 C 37 251 31 300 31 352 C 31 434 46 501 76 553 C 106 605 151 645 213 674 C 274 703 351 723 443 733 C 535 743 644 748 770 748 L 807 748 C 806 763 804 777 801 789 C 797 801 789 811 776 820 C 763 828 744 835 719 839 C 694 843 660 846 616 846 C 580 846 546 843 514 837 C 481 831 450 824 422 815 C 393 806 367 796 343 785 C 319 773 299 762 283 752 L 80 1049 C 102 1063 132 1079 170 1097 C 208 1115 252 1131 302 1146 C 352 1161 408 1174 469 1184 C 529 1194 594 1200 662 1200 C 771 1200 860 1191 930 1174 C 999 1156 1053 1129 1093 1092 C 1132 1054 1159 1006 1174 948 C 1188 890 1196 819 1196 737 L 1196 424 C 1196 404 1196 389 1198 377 C 1200 365 1204 356 1210 350 C 1216 344 1225 339 1237 337 C 1249 335 1266 334 1288 334 L 1288 4 C 1274 0 1253 -1 1226 -3 C 1198 -5 1162 -6 1116 -6 C 1086 -6 1059 -4 1035 -2 C 1011 0 989 6 970 14 C 951 22 934 32 919 46 C 903 60 889 78 877 100 C 847 64 800 35 736 14 C 671 -7 588 -18 487 -18 Z M 571 307 C 652 307 712 319 750 343 C 788 367 807 408 807 465 L 807 504 L 797 504 C 735 504 683 503 641 501 C 598 499 563 495 535 491 C 507 487 485 481 469 475 C 453 469 441 461 433 453 C 425 444 420 434 418 423 C 416 412 416 400 416 387 C 416 357 427 337 450 325 C 472 313 513 307 571 307 Z M 147 1686 L 633 1686 L 911 1280 L 557 1280 L 147 1686 Z" unicode="" />
<glyph horiz-adv-x="1348" d="M 487 -18 C 392 -18 315 -8 256 10 C 196 29 150 55 117 89 C 83 122 61 161 49 206 C 37 251 31 300 31 352 C 31 434 46 501 76 553 C 106 605 151 645 213 674 C 274 703 351 723 443 733 C 535 743 644 748 770 748 L 807 748 C 806 763 804 777 801 789 C 797 801 789 811 776 820 C 763 828 744 835 719 839 C 694 843 660 846 616 846 C 580 846 546 843 514 837 C 481 831 450 824 422 815 C 393 806 367 796 343 785 C 319 773 299 762 283 752 L 80 1049 C 102 1063 132 1079 170 1097 C 208 1115 252 1131 302 1146 C 352 1161 408 1174 469 1184 C 529 1194 594 1200 662 1200 C 771 1200 860 1191 930 1174 C 999 1156 1053 1129 1093 1092 C 1132 1054 1159 1006 1174 948 C 1188 890 1196 819 1196 737 L 1196 424 C 1196 404 1196 389 1198 377 C 1200 365 1204 356 1210 350 C 1216 344 1225 339 1237 337 C 1249 335 1266 334 1288 334 L 1288 4 C 1274 0 1253 -1 1226 -3 C 1198 -5 1162 -6 1116 -6 C 1086 -6 1059 -4 1035 -2 C 1011 0 989 6 970 14 C 951 22 934 32 919 46 C 903 60 889 78 877 100 C 847 64 800 35 736 14 C 671 -7 588 -18 487 -18 Z M 571 307 C 652 307 712 319 750 343 C 788 367 807 408 807 465 L 807 504 L 797 504 C 735 504 683 503 641 501 C 598 499 563 495 535 491 C 507 487 485 481 469 475 C 453 469 441 461 433 453 C 425 444 420 434 418 423 C 416 412 416 400 416 387 C 416 357 427 337 450 325 C 472 313 513 307 571 307 Z M 715 1686 L 1200 1686 L 791 1280 L 436 1280 L 715 1686 Z" unicode="" />
<glyph horiz-adv-x="1348" d="M 487 -18 C 392 -18 315 -8 256 10 C 196 29 150 55 117 89 C 83 122 61 161 49 206 C 37 251 31 300 31 352 C 31 434 46 501 76 553 C 106 605 151 645 213 674 C 274 703 351 723 443 733 C 535 743 644 748 770 748 L 807 748 C 806 763 804 777 801 789 C 797 801 789 811 776 820 C 763 828 744 835 719 839 C 694 843 660 846 616 846 C 580 846 546 843 514 837 C 481 831 450 824 422 815 C 393 806 367 796 343 785 C 319 773 299 762 283 752 L 80 1049 C 102 1063 132 1079 170 1097 C 208 1115 252 1131 302 1146 C 352 1161 408 1174 469 1184 C 529 1194 594 1200 662 1200 C 771 1200 860 1191 930 1174 C 999 1156 1053 1129 1093 1092 C 1132 1054 1159 1006 1174 948 C 1188 890 1196 819 1196 737 L 1196 424 C 1196 404 1196 389 1198 377 C 1200 365 1204 356 1210 350 C 1216 344 1225 339 1237 337 C 1249 335 1266 334 1288 334 L 1288 4 C 1274 0 1253 -1 1226 -3 C 1198 -5 1162 -6 1116 -6 C 1086 -6 1059 -4 1035 -2 C 1011 0 989 6 970 14 C 951 22 934 32 919 46 C 903 60 889 78 877 100 C 847 64 800 35 736 14 C 671 -7 588 -18 487 -18 Z M 571 307 C 652 307 712 319 750 343 C 788 367 807 408 807 465 L 807 504 L 797 504 C 735 504 683 503 641 501 C 598 499 563 495 535 491 C 507 487 485 481 469 475 C 453 469 441 461 433 453 C 425 444 420 434 418 423 C 416 412 416 400 416 387 C 416 357 427 337 450 325 C 472 313 513 307 571 307 Z M 467 1686 L 881 1686 L 1200 1280 L 825 1280 L 670 1434 L 514 1280 L 147 1280 L 467 1686 Z" unicode="" />
<glyph horiz-adv-x="1348" d="M 487 -18 C 392 -18 315 -8 256 10 C 196 29 150 55 117 89 C 83 122 61 161 49 206 C 37 251 31 300 31 352 C 31 434 46 501 76 553 C 106 605 151 645 213 674 C 274 703 351 723 443 733 C 535 743 644 748 770 748 L 807 748 C 806 763 804 777 801 789 C 797 801 789 811 776 820 C 763 828 744 835 719 839 C 694 843 660 846 616 846 C 580 846 546 843 514 837 C 481 831 450 824 422 815 C 393 806 367 796 343 785 C 319 773 299 762 283 752 L 80 1049 C 102 1063 132 1079 170 1097 C 208 1115 252 1131 302 1146 C 352 1161 408 1174 469 1184 C 529 1194 594 1200 662 1200 C 771 1200 860 1191 930 1174 C 999 1156 1053 1129 1093 1092 C 1132 1054 1159 1006 1174 948 C 1188 890 1196 819 1196 737 L 1196 424 C 1196 404 1196 389 1198 377 C 1200 365 1204 356 1210 350 C 1216 344 1225 339 1237 337 C 1249 335 1266 334 1288 334 L 1288 4 C 1274 0 1253 -1 1226 -3 C 1198 -5 1162 -6 1116 -6 C 1086 -6 1059 -4 1035 -2 C 1011 0 989 6 970 14 C 951 22 934 32 919 46 C 903 60 889 78 877 100 C 847 64 800 35 736 14 C 671 -7 588 -18 487 -18 Z M 571 307 C 652 307 712 319 750 343 C 788 367 807 408 807 465 L 807 504 L 797 504 C 735 504 683 503 641 501 C 598 499 563 495 535 491 C 507 487 485 481 469 475 C 453 469 441 461 433 453 C 425 444 420 434 418 423 C 416 412 416 400 416 387 C 416 357 427 337 450 325 C 472 313 513 307 571 307 Z M 131 1446 C 197 1528 263 1592 329 1636 C 395 1680 460 1702 524 1702 C 560 1702 591 1696 617 1684 C 643 1672 666 1658 686 1644 C 706 1630 726 1617 745 1605 C 763 1593 784 1587 807 1587 C 828 1587 853 1595 882 1613 C 910 1631 945 1664 985 1712 L 1206 1530 C 1140 1448 1074 1385 1008 1341 C 942 1296 877 1274 813 1274 C 777 1274 746 1280 722 1292 C 697 1304 674 1318 654 1332 C 634 1346 614 1360 596 1372 C 577 1384 556 1391 532 1391 C 510 1391 485 1382 456 1364 C 426 1346 392 1312 352 1264 L 131 1446 Z" unicode="" />
<glyph horiz-adv-x="1348" d="M 487 -18 C 392 -18 315 -8 256 10 C 196 29 150 55 117 89 C 83 122 61 161 49 206 C 37 251 31 300 31 352 C 31 434 46 501 76 553 C 106 605 151 645 213 674 C 274 703 351 723 443 733 C 535 743 644 748 770 748 L 807 748 C 806 763 804 777 801 789 C 797 801 789 811 776 820 C 763 828 744 835 719 839 C 694 843 660 846 616 846 C 580 846 546 843 514 837 C 481 831 450 824 422 815 C 393 806 367 796 343 785 C 319 773 299 762 283 752 L 80 1049 C 102 1063 132 1079 170 1097 C 208 1115 252 1131 302 1146 C 352 1161 408 1174 469 1184 C 529 1194 594 1200 662 1200 C 771 1200 860 1191 930 1174 C 999 1156 1053 1129 1093 1092 C 1132 1054 1159 1006 1174 948 C 1188 890 1196 819 1196 737 L 1196 424 C 1196 404 1196 389 1198 377 C 1200 365 1204 356 1210 350 C 1216 344 1225 339 1237 337 C 1249 335 1266 334 1288 334 L 1288 4 C 1274 0 1253 -1 1226 -3 C 1198 -5 1162 -6 1116 -6 C 1086 -6 1059 -4 1035 -2 C 1011 0 989 6 970 14 C 951 22 934 32 919 46 C 903 60 889 78 877 100 C 847 64 800 35 736 14 C 671 -7 588 -18 487 -18 Z M 571 307 C 652 307 712 319 750 343 C 788 367 807 408 807 465 L 807 504 L 797 504 C 735 504 683 503 641 501 C 598 499 563 495 535 491 C 507 487 485 481 469 475 C 453 469 441 461 433 453 C 425 444 420 434 418 423 C 416 412 416 400 416 387 C 416 357 427 337 450 325 C 472 313 513 307 571 307 Z M 252 1597 L 616 1597 L 616 1280 L 252 1280 L 252 1597 Z M 733 1597 L 1098 1597 L 1098 1280 L 733 1280 L 733 1597 Z" unicode="" />
<glyph horiz-adv-x="1348" d="M 487 -18 C 392 -18 315 -8 256 10 C 196 29 150 55 117 89 C 83 122 61 161 49 206 C 37 251 31 300 31 352 C 31 434 46 501 76 553 C 106 605 151 645 213 674 C 274 703 351 723 443 733 C 535 743 644 748 770 748 L 807 748 C 806 763 804 777 801 789 C 797 801 789 811 776 820 C 763 828 744 835 719 839 C 694 843 660 846 616 846 C 580 846 546 843 514 837 C 481 831 450 824 422 815 C 393 806 367 796 343 785 C 319 773 299 762 283 752 L 80 1049 C 102 1063 132 1079 170 1097 C 208 1115 252 1131 302 1146 C 352 1161 408 1174 469 1184 C 529 1194 594 1200 662 1200 C 771 1200 860 1191 930 1174 C 999 1156 1053 1129 1093 1092 C 1132 1054 1159 1006 1174 948 C 1188 890 1196 819 1196 737 L 1196 424 C 1196 404 1196 389 1198 377 C 1200 365 1204 356 1210 350 C 1216 344 1225 339 1237 337 C 1249 335 1266 334 1288 334 L 1288 4 C 1274 0 1253 -1 1226 -3 C 1198 -5 1162 -6 1116 -6 C 1086 -6 1059 -4 1035 -2 C 1011 0 989 6 970 14 C 951 22 934 32 919 46 C 903 60 889 78 877 100 C 847 64 800 35 736 14 C 671 -7 588 -18 487 -18 Z M 571 307 C 652 307 712 319 750 343 C 788 367 807 408 807 465 L 807 504 L 797 504 C 735 504 683 503 641 501 C 598 499 563 495 535 491 C 507 487 485 481 469 475 C 453 469 441 461 433 453 C 425 444 420 434 418 423 C 416 412 416 400 416 387 C 416 357 427 337 450 325 C 472 313 513 307 571 307 Z M 674 1257 C 616 1257 568 1265 528 1282 C 488 1298 455 1321 429 1350 C 403 1379 385 1413 373 1452 C 361 1491 356 1533 356 1579 C 356 1624 361 1666 373 1706 C 385 1746 403 1780 429 1810 C 455 1839 488 1862 528 1879 C 568 1896 616 1905 674 1905 C 728 1905 774 1896 814 1879 C 853 1862 886 1839 912 1810 C 938 1780 957 1746 970 1706 C 982 1666 989 1624 989 1579 C 989 1533 982 1491 970 1452 C 957 1413 938 1379 912 1350 C 886 1321 853 1298 814 1282 C 774 1265 728 1257 674 1257 Z M 674 1450 C 696 1450 715 1453 731 1460 C 747 1466 759 1475 769 1487 C 778 1499 785 1512 789 1528 C 793 1544 795 1561 795 1579 C 795 1597 793 1615 789 1631 C 785 1647 778 1660 769 1672 C 759 1684 747 1693 731 1700 C 715 1706 696 1710 674 1710 C 650 1710 631 1706 616 1700 C 600 1693 588 1684 579 1672 C 569 1660 563 1647 559 1631 C 555 1615 553 1597 553 1579 C 553 1561 555 1544 559 1528 C 563 1512 569 1499 579 1487 C 588 1475 600 1466 616 1460 C 631 1453 650 1450 674 1450 Z" unicode="" />
<glyph horiz-adv-x="2030" d="M 1427 -23 C 1305 -23 1207 -9 1131 17 C 1055 44 996 81 954 127 C 926 93 895 67 863 48 C 830 28 794 14 756 4 C 717 -5 675 -11 631 -14 C 587 -16 539 -18 487 -18 C 390 -18 312 -8 252 12 C 192 32 146 59 114 93 C 81 127 59 166 48 211 C 36 255 31 302 31 352 C 31 434 46 501 76 553 C 106 605 151 645 213 674 C 274 703 351 723 443 733 C 535 743 644 748 770 748 L 807 748 C 806 763 804 777 801 789 C 797 801 789 811 776 820 C 763 828 744 835 719 839 C 694 843 660 846 616 846 C 580 846 546 843 514 837 C 481 831 450 824 422 815 C 393 806 367 796 343 785 C 319 773 299 762 283 752 L 80 1049 C 102 1063 132 1079 170 1097 C 208 1115 252 1131 302 1146 C 352 1161 408 1174 469 1184 C 529 1194 594 1200 662 1200 C 753 1200 828 1191 886 1175 C 944 1159 990 1136 1026 1108 C 1070 1136 1124 1159 1189 1175 C 1254 1191 1333 1200 1427 1200 C 1514 1200 1588 1191 1650 1173 C 1711 1155 1762 1129 1803 1097 C 1844 1065 1876 1026 1900 980 C 1923 934 1940 884 1952 828 C 1963 772 1969 713 1971 649 C 1973 585 1972 518 1970 449 L 1186 449 C 1190 425 1198 403 1209 385 C 1220 367 1235 351 1254 339 C 1273 327 1297 318 1325 312 C 1353 306 1387 303 1427 303 C 1471 303 1510 305 1546 310 C 1581 315 1613 322 1643 331 C 1672 340 1699 351 1723 364 C 1747 376 1769 390 1790 406 L 1993 145 C 1951 113 1910 86 1870 65 C 1829 43 1786 26 1742 13 C 1697 0 1649 -8 1598 -14 C 1546 -20 1489 -23 1427 -23 Z M 567 307 C 651 307 712 319 750 343 C 788 367 807 408 807 465 L 807 504 L 797 504 C 735 504 683 503 641 501 C 598 499 563 495 535 491 C 507 487 485 481 469 475 C 453 469 441 461 433 453 C 425 444 420 434 418 423 C 416 412 416 400 416 387 C 416 357 427 337 449 325 C 471 313 511 307 567 307 Z M 1415 864 C 1373 864 1339 860 1311 852 C 1283 844 1261 833 1243 818 C 1225 803 1211 785 1202 763 C 1192 741 1186 716 1182 688 L 1602 688 C 1600 712 1597 734 1593 756 C 1589 777 1581 796 1569 812 C 1556 828 1538 840 1514 850 C 1490 859 1457 864 1415 864 Z" unicode="" />
<glyph horiz-adv-x="1227" d="M 604 -537 C 544 -537 490 -530 442 -517 C 394 -503 351 -485 311 -463 L 408 -281 C 440 -297 473 -309 505 -318 C 537 -327 564 -332 588 -332 C 626 -332 655 -327 673 -318 C 691 -308 700 -289 700 -260 C 700 -242 694 -228 684 -219 C 674 -209 660 -203 644 -199 C 628 -195 609 -194 588 -195 C 567 -195 546 -197 526 -199 L 457 -158 L 492 -4 C 404 11 332 37 276 74 C 220 110 175 155 143 208 C 110 260 87 319 75 384 C 63 449 57 518 57 590 C 57 644 60 696 67 747 C 73 798 85 846 103 891 C 121 936 145 978 175 1016 C 205 1054 244 1086 292 1113 C 340 1140 397 1161 463 1177 C 529 1192 608 1200 698 1200 C 804 1200 899 1183 984 1150 C 1069 1117 1141 1066 1200 997 L 915 729 C 903 741 891 753 878 765 C 865 777 850 787 833 797 C 816 807 796 814 774 820 C 752 826 726 829 696 829 C 647 829 608 822 578 810 C 548 798 524 780 508 758 C 492 736 481 709 475 679 C 469 648 467 614 467 578 C 467 541 469 507 475 476 C 481 445 492 418 508 396 C 524 373 548 355 579 343 C 609 330 650 324 700 324 C 724 324 747 325 768 329 C 788 333 808 339 827 347 C 845 355 864 366 882 380 C 900 394 920 410 940 430 L 1198 184 C 1162 150 1128 121 1095 97 C 1061 72 1026 51 988 35 C 950 19 909 6 864 -2 C 819 -11 767 -16 709 -18 L 696 -84 C 728 -83 761 -84 793 -86 C 825 -88 853 -96 878 -110 C 903 -124 923 -144 939 -172 C 955 -200 963 -239 963 -289 C 963 -341 953 -383 934 -415 C 915 -447 889 -473 857 -491 C 824 -509 786 -521 742 -527 C 698 -533 652 -537 604 -537 Z" unicode="" />
<glyph horiz-adv-x="1294" d="M 692 -23 C 604 -23 528 -15 463 0 C 397 14 341 35 294 62 C 247 89 208 121 178 159 C 147 197 123 238 105 284 C 87 330 74 378 67 430 C 60 481 57 534 57 590 C 57 643 60 695 67 746 C 74 797 87 845 105 891 C 123 936 147 977 178 1015 C 208 1053 247 1085 294 1113 C 341 1140 397 1161 463 1177 C 528 1192 604 1200 692 1200 C 779 1200 853 1191 914 1173 C 975 1155 1026 1129 1067 1097 C 1108 1065 1140 1026 1164 980 C 1188 934 1205 884 1216 828 C 1227 772 1233 713 1235 649 C 1237 585 1237 518 1235 449 L 451 449 C 455 425 463 403 474 385 C 485 367 500 351 519 339 C 537 327 561 318 589 312 C 617 306 652 303 692 303 C 735 303 774 305 810 310 C 846 315 878 322 908 331 C 937 340 964 351 988 364 C 1012 376 1034 390 1055 406 L 1257 145 C 1215 113 1174 86 1133 65 C 1091 43 1048 26 1003 13 C 957 0 909 -8 858 -14 C 807 -20 752 -23 692 -23 Z M 680 864 C 638 864 604 860 576 852 C 548 844 526 833 508 818 C 490 803 476 785 466 763 C 456 741 450 716 446 688 L 866 688 C 864 712 862 734 858 756 C 854 777 845 796 833 812 C 821 828 803 840 779 850 C 755 859 722 864 680 864 Z M 121 1686 L 606 1686 L 885 1280 L 530 1280 L 121 1686 Z" unicode="" />
<glyph horiz-adv-x="1294" d="M 692 -23 C 604 -23 528 -15 463 0 C 397 14 341 35 294 62 C 247 89 208 121 178 159 C 147 197 123 238 105 284 C 87 330 74 378 67 430 C 60 481 57 534 57 590 C 57 643 60 695 67 746 C 74 797 87 845 105 891 C 123 936 147 977 178 1015 C 208 1053 247 1085 294 1113 C 341 1140 397 1161 463 1177 C 528 1192 604 1200 692 1200 C 779 1200 853 1191 914 1173 C 975 1155 1026 1129 1067 1097 C 1108 1065 1140 1026 1164 980 C 1188 934 1205 884 1216 828 C 1227 772 1233 713 1235 649 C 1237 585 1237 518 1235 449 L 451 449 C 455 425 463 403 474 385 C 485 367 500 351 519 339 C 537 327 561 318 589 312 C 617 306 652 303 692 303 C 735 303 774 305 810 310 C 846 315 878 322 908 331 C 937 340 964 351 988 364 C 1012 376 1034 390 1055 406 L 1257 145 C 1215 113 1174 86 1133 65 C 1091 43 1048 26 1003 13 C 957 0 909 -8 858 -14 C 807 -20 752 -23 692 -23 Z M 680 864 C 638 864 604 860 576 852 C 548 844 526 833 508 818 C 490 803 476 785 466 763 C 456 741 450 716 446 688 L 866 688 C 864 712 862 734 858 756 C 854 777 845 796 833 812 C 821 828 803 840 779 850 C 755 859 722 864 680 864 Z M 688 1686 L 1174 1686 L 764 1280 L 410 1280 L 688 1686 Z" unicode="" />
<glyph horiz-adv-x="1294" d="M 692 -23 C 604 -23 528 -15 463 0 C 397 14 341 35 294 62 C 247 89 208 121 178 159 C 147 197 123 238 105 284 C 87 330 74 378 67 430 C 60 481 57 534 57 590 C 57 643 60 695 67 746 C 74 797 87 845 105 891 C 123 936 147 977 178 1015 C 208 1053 247 1085 294 1113 C 341 1140 397 1161 463 1177 C 528 1192 604 1200 692 1200 C 779 1200 853 1191 914 1173 C 975 1155 1026 1129 1067 1097 C 1108 1065 1140 1026 1164 980 C 1188 934 1205 884 1216 828 C 1227 772 1233 713 1235 649 C 1237 585 1237 518 1235 449 L 451 449 C 455 425 463 403 474 385 C 485 367 500 351 519 339 C 537 327 561 318 589 312 C 617 306 652 303 692 303 C 735 303 774 305 810 310 C 846 315 878 322 908 331 C 937 340 964 351 988 364 C 1012 376 1034 390 1055 406 L 1257 145 C 1215 113 1174 86 1133 65 C 1091 43 1048 26 1003 13 C 957 0 909 -8 858 -14 C 807 -20 752 -23 692 -23 Z M 680 864 C 638 864 604 860 576 852 C 548 844 526 833 508 818 C 490 803 476 785 466 763 C 456 741 450 716 446 688 L 866 688 C 864 712 862 734 858 756 C 854 777 845 796 833 812 C 821 828 803 840 779 850 C 755 859 722 864 680 864 Z M 440 1686 L 854 1686 L 1174 1280 L 799 1280 L 643 1434 L 487 1280 L 121 1280 L 440 1686 Z" unicode="" />
<glyph horiz-adv-x="1294" d="M 692 -23 C 604 -23 528 -15 463 0 C 397 14 341 35 294 62 C 247 89 208 121 178 159 C 147 197 123 238 105 284 C 87 330 74 378 67 430 C 60 481 57 534 57 590 C 57 643 60 695 67 746 C 74 797 87 845 105 891 C 123 936 147 977 178 1015 C 208 1053 247 1085 294 1113 C 341 1140 397 1161 463 1177 C 528 1192 604 1200 692 1200 C 779 1200 853 1191 914 1173 C 975 1155 1026 1129 1067 1097 C 1108 1065 1140 1026 1164 980 C 1188 934 1205 884 1216 828 C 1227 772 1233 713 1235 649 C 1237 585 1237 518 1235 449 L 451 449 C 455 425 463 403 474 385 C 485 367 500 351 519 339 C 537 327 561 318 589 312 C 617 306 652 303 692 303 C 735 303 774 305 810 310 C 846 315 878 322 908 331 C 937 340 964 351 988 364 C 1012 376 1034 390 1055 406 L 1257 145 C 1215 113 1174 86 1133 65 C 1091 43 1048 26 1003 13 C 957 0 909 -8 858 -14 C 807 -20 752 -23 692 -23 Z M 680 864 C 638 864 604 860 576 852 C 548 844 526 833 508 818 C 490 803 476 785 466 763 C 456 741 450 716 446 688 L 866 688 C 864 712 862 734 858 756 C 854 777 845 796 833 812 C 821 828 803 840 779 850 C 755 859 722 864 680 864 Z M 225 1597 L 590 1597 L 590 1280 L 225 1280 L 225 1597 Z M 707 1597 L 1071 1597 L 1071 1280 L 707 1280 L 707 1597 Z" unicode="" />
<glyph horiz-adv-x="657" d="M -137 1686 L 358 1686 L 526 1280 L 162 1280 L -137 1686 Z M 125 1174 L 530 1174 L 530 0 L 125 0 L 125 1174 Z" unicode="" />
<glyph horiz-adv-x="657" d="M 297 1686 L 793 1686 L 494 1280 L 129 1280 L 297 1686 Z M 125 1174 L 530 1174 L 530 0 L 125 0 L 125 1174 Z" unicode="" />
<glyph horiz-adv-x="657" d="M 131 1686 L 524 1686 L 803 1280 L 438 1280 L 324 1434 L 209 1280 L -147 1280 L 131 1686 Z M 125 1174 L 530 1174 L 530 0 L 125 0 L 125 1174 Z" unicode="" />
<glyph horiz-adv-x="657" d="M -43 1597 L 281 1597 L 281 1280 L -43 1280 L -43 1597 Z M 377 1597 L 700 1597 L 700 1280 L 377 1280 L 377 1597 Z M 125 1174 L 530 1174 L 530 0 L 125 0 L 125 1174 Z" unicode="" />
<glyph horiz-adv-x="1391" d="M 545 1354 L 684 1378 C 668 1402 652 1427 636 1452 C 620 1476 602 1501 584 1526 L 983 1647 C 1007 1619 1031 1590 1054 1558 C 1077 1526 1099 1491 1120 1454 L 1343 1493 L 1343 1235 L 1227 1214 C 1259 1119 1285 1023 1303 925 C 1321 827 1331 735 1331 649 C 1331 525 1317 421 1290 336 C 1262 250 1222 181 1168 128 C 1114 74 1048 36 968 12 C 888 -11 796 -23 692 -23 C 576 -23 477 -9 397 19 C 317 47 251 86 201 136 C 150 186 113 245 91 313 C 68 381 57 455 57 535 C 57 607 65 674 81 737 C 97 799 124 854 163 901 C 201 947 253 984 319 1011 C 384 1037 466 1051 565 1051 C 597 1051 628 1048 659 1044 C 689 1039 718 1032 745 1023 C 771 1013 795 1002 817 988 C 838 974 856 958 870 940 C 866 965 860 995 850 1029 C 840 1063 826 1101 809 1141 L 545 1096 L 545 1354 Z M 692 324 C 736 324 773 329 803 340 C 832 351 855 367 873 387 C 891 407 903 430 911 458 C 918 485 922 515 922 547 C 922 579 918 609 911 635 C 903 661 891 684 873 702 C 855 720 832 735 803 745 C 773 755 736 760 692 760 C 648 760 612 755 584 745 C 555 735 532 720 515 702 C 497 684 485 661 478 635 C 470 609 467 579 467 547 C 467 515 470 485 478 458 C 485 430 497 407 515 387 C 532 367 555 351 584 340 C 612 329 648 324 692 324 Z" unicode="" />
<glyph horiz-adv-x="1407" d="M 113 1151 L 428 1176 L 461 1071 C 477 1088 496 1104 520 1120 C 543 1136 571 1149 605 1161 C 639 1173 678 1182 723 1189 C 768 1196 821 1200 881 1200 C 966 1200 1036 1188 1090 1165 C 1144 1141 1187 1108 1218 1065 C 1249 1022 1270 970 1282 910 C 1294 850 1300 783 1300 709 L 1300 0 L 895 0 L 895 625 C 895 652 893 677 890 701 C 887 725 880 745 869 763 C 857 780 841 794 819 804 C 797 814 767 819 729 819 C 683 819 646 814 618 805 C 590 795 569 782 554 764 C 539 746 529 725 525 701 C 520 676 518 648 518 618 L 518 0 L 113 0 L 113 1151 Z M 160 1446 C 226 1528 292 1592 358 1636 C 424 1680 489 1702 553 1702 C 589 1702 619 1696 645 1684 C 671 1672 694 1658 715 1644 C 735 1630 755 1617 774 1605 C 792 1593 813 1587 836 1587 C 857 1587 882 1595 911 1613 C 939 1631 974 1664 1014 1712 L 1235 1530 C 1169 1448 1103 1385 1037 1341 C 971 1296 906 1274 842 1274 C 818 1274 796 1276 777 1282 C 758 1288 741 1295 726 1304 C 710 1312 696 1322 683 1332 C 669 1342 656 1352 643 1361 C 630 1369 617 1376 604 1382 C 590 1388 576 1391 561 1391 C 539 1391 514 1382 485 1364 C 455 1346 421 1312 381 1264 L 160 1446 Z" unicode="" />
<glyph horiz-adv-x="1386" d="M 694 -23 C 579 -23 481 -9 401 18 C 320 45 254 85 203 137 C 152 189 115 254 92 330 C 68 406 57 492 57 590 C 57 687 68 773 92 849 C 115 925 152 989 203 1041 C 254 1093 320 1132 401 1159 C 481 1186 579 1200 694 1200 C 808 1200 906 1186 987 1159 C 1067 1132 1133 1093 1184 1041 C 1234 989 1271 925 1294 849 C 1317 773 1329 687 1329 590 C 1329 492 1317 406 1294 330 C 1271 254 1234 189 1184 137 C 1133 85 1067 45 987 18 C 906 -9 808 -23 694 -23 Z M 694 324 C 742 324 780 330 810 343 C 840 355 863 373 879 396 C 895 418 907 445 913 476 C 919 507 922 541 922 578 C 922 614 919 648 913 679 C 907 710 895 737 879 759 C 863 781 840 799 810 812 C 780 824 742 831 694 831 C 646 831 608 824 578 812 C 548 799 525 781 509 759 C 492 737 481 710 475 679 C 469 648 467 614 467 578 C 467 541 469 507 475 476 C 481 445 492 418 509 396 C 525 373 548 355 578 343 C 608 330 646 324 694 324 Z M 166 1686 L 651 1686 L 930 1280 L 575 1280 L 166 1686 Z" unicode="" />
<glyph horiz-adv-x="1386" d="M 694 -23 C 579 -23 481 -9 401 18 C 320 45 254 85 203 137 C 152 189 115 254 92 330 C 68 406 57 492 57 590 C 57 687 68 773 92 849 C 115 925 152 989 203 1041 C 254 1093 320 1132 401 1159 C 481 1186 579 1200 694 1200 C 808 1200 906 1186 987 1159 C 1067 1132 1133 1093 1184 1041 C 1234 989 1271 925 1294 849 C 1317 773 1329 687 1329 590 C 1329 492 1317 406 1294 330 C 1271 254 1234 189 1184 137 C 1133 85 1067 45 987 18 C 906 -9 808 -23 694 -23 Z M 694 324 C 742 324 780 330 810 343 C 840 355 863 373 879 396 C 895 418 907 445 913 476 C 919 507 922 541 922 578 C 922 614 919 648 913 679 C 907 710 895 737 879 759 C 863 781 840 799 810 812 C 780 824 742 831 694 831 C 646 831 608 824 578 812 C 548 799 525 781 509 759 C 492 737 481 710 475 679 C 469 648 467 614 467 578 C 467 541 469 507 475 476 C 481 445 492 418 509 396 C 525 373 548 355 578 343 C 608 330 646 324 694 324 Z M 733 1686 L 1219 1686 L 809 1280 L 455 1280 L 733 1686 Z" unicode="" />
<glyph horiz-adv-x="1386" d="M 694 -23 C 579 -23 481 -9 401 18 C 320 45 254 85 203 137 C 152 189 115 254 92 330 C 68 406 57 492 57 590 C 57 687 68 773 92 849 C 115 925 152 989 203 1041 C 254 1093 320 1132 401 1159 C 481 1186 579 1200 694 1200 C 808 1200 906 1186 987 1159 C 1067 1132 1133 1093 1184 1041 C 1234 989 1271 925 1294 849 C 1317 773 1329 687 1329 590 C 1329 492 1317 406 1294 330 C 1271 254 1234 189 1184 137 C 1133 85 1067 45 987 18 C 906 -9 808 -23 694 -23 Z M 694 324 C 742 324 780 330 810 343 C 840 355 863 373 879 396 C 895 418 907 445 913 476 C 919 507 922 541 922 578 C 922 614 919 648 913 679 C 907 710 895 737 879 759 C 863 781 840 799 810 812 C 780 824 742 831 694 831 C 646 831 608 824 578 812 C 548 799 525 781 509 759 C 492 737 481 710 475 679 C 469 648 467 614 467 578 C 467 541 469 507 475 476 C 481 445 492 418 509 396 C 525 373 548 355 578 343 C 608 330 646 324 694 324 Z M 485 1686 L 899 1686 L 1219 1280 L 844 1280 L 688 1434 L 532 1280 L 166 1280 L 485 1686 Z" unicode="" />
<glyph horiz-adv-x="1386" d="M 694 -23 C 579 -23 481 -9 401 18 C 320 45 254 85 203 137 C 152 189 115 254 92 330 C 68 406 57 492 57 590 C 57 687 68 773 92 849 C 115 925 152 989 203 1041 C 254 1093 320 1132 401 1159 C 481 1186 579 1200 694 1200 C 808 1200 906 1186 987 1159 C 1067 1132 1133 1093 1184 1041 C 1234 989 1271 925 1294 849 C 1317 773 1329 687 1329 590 C 1329 492 1317 406 1294 330 C 1271 254 1234 189 1184 137 C 1133 85 1067 45 987 18 C 906 -9 808 -23 694 -23 Z M 694 324 C 742 324 780 330 810 343 C 840 355 863 373 879 396 C 895 418 907 445 913 476 C 919 507 922 541 922 578 C 922 614 919 648 913 679 C 907 710 895 737 879 759 C 863 781 840 799 810 812 C 780 824 742 831 694 831 C 646 831 608 824 578 812 C 548 799 525 781 509 759 C 492 737 481 710 475 679 C 469 648 467 614 467 578 C 467 541 469 507 475 476 C 481 445 492 418 509 396 C 525 373 548 355 578 343 C 608 330 646 324 694 324 Z M 150 1446 C 216 1528 282 1592 348 1636 C 414 1680 479 1702 543 1702 C 579 1702 609 1696 635 1684 C 661 1672 684 1658 704 1644 C 724 1630 744 1617 763 1605 C 781 1593 802 1587 825 1587 C 846 1587 871 1595 900 1613 C 929 1631 964 1664 1004 1712 L 1225 1530 C 1159 1448 1092 1385 1026 1341 C 960 1296 895 1274 831 1274 C 807 1274 785 1276 767 1282 C 748 1288 731 1295 715 1304 C 699 1312 685 1322 672 1332 C 659 1342 646 1352 633 1361 C 620 1369 607 1376 594 1382 C 580 1388 566 1391 551 1391 C 529 1391 504 1382 475 1364 C 445 1346 411 1312 371 1264 L 150 1446 Z" unicode="" />
<glyph horiz-adv-x="1386" d="M 694 -23 C 579 -23 481 -9 401 18 C 320 45 254 85 203 137 C 152 189 115 254 92 330 C 68 406 57 492 57 590 C 57 687 68 773 92 849 C 115 925 152 989 203 1041 C 254 1093 320 1132 401 1159 C 481 1186 579 1200 694 1200 C 808 1200 906 1186 987 1159 C 1067 1132 1133 1093 1184 1041 C 1234 989 1271 925 1294 849 C 1317 773 1329 687 1329 590 C 1329 492 1317 406 1294 330 C 1271 254 1234 189 1184 137 C 1133 85 1067 45 987 18 C 906 -9 808 -23 694 -23 Z M 694 324 C 742 324 780 330 810 343 C 840 355 863 373 879 396 C 895 418 907 445 913 476 C 919 507 922 541 922 578 C 922 614 919 648 913 679 C 907 710 895 737 879 759 C 863 781 840 799 810 812 C 780 824 742 831 694 831 C 646 831 608 824 578 812 C 548 799 525 781 509 759 C 492 737 481 710 475 679 C 469 648 467 614 467 578 C 467 541 469 507 475 476 C 481 445 492 418 509 396 C 525 373 548 355 578 343 C 608 330 646 324 694 324 Z M 270 1597 L 635 1597 L 635 1280 L 270 1280 L 270 1597 Z M 752 1597 L 1116 1597 L 1116 1280 L 752 1280 L 752 1597 Z" unicode="" />
<glyph horiz-adv-x="1507" d="M 555 453 L 950 453 L 950 131 L 555 131 L 555 453 Z M 176 903 L 1331 903 L 1331 541 L 176 541 L 176 903 Z M 555 1313 L 950 1313 L 950 991 L 555 991 L 555 1313 Z" unicode="" />
<glyph horiz-adv-x="1386" d="M 694 -23 C 646 -23 602 -20 561 -16 C 520 -11 482 -5 446 2 L 387 -90 L 109 -90 L 233 102 C 169 153 124 220 97 302 C 70 384 57 480 57 590 C 57 687 67 773 89 849 C 110 925 145 989 195 1041 C 244 1093 309 1132 391 1159 C 473 1186 574 1200 694 1200 C 785 1200 866 1192 936 1176 L 997 1268 L 1280 1268 L 1153 1075 C 1216 1023 1261 957 1288 875 C 1315 793 1329 698 1329 590 C 1329 492 1318 406 1297 330 C 1276 254 1241 189 1192 137 C 1142 85 1077 45 996 18 C 915 -9 814 -23 694 -23 Z M 694 313 C 744 313 784 319 815 333 C 846 347 870 365 887 389 C 904 413 915 441 921 473 C 927 505 930 540 930 578 C 930 606 928 634 924 660 C 920 686 914 709 905 731 L 635 317 C 644 315 653 313 663 313 C 672 313 682 313 694 313 Z M 459 578 C 459 552 460 527 462 504 C 464 480 469 459 475 440 L 735 840 C 729 840 722 840 715 841 C 708 841 701 842 694 842 C 644 842 603 835 573 822 C 542 808 518 790 501 766 C 484 742 473 715 467 683 C 461 651 459 616 459 578 Z" unicode="" />
<glyph horiz-adv-x="1389" d="M 694 -23 C 582 -23 489 -12 414 8 C 339 29 279 63 233 111 C 187 158 155 220 135 298 C 115 375 106 470 106 582 L 106 1174 L 512 1174 L 512 573 C 512 536 513 503 516 473 C 518 443 526 418 538 398 C 550 377 568 361 593 350 C 618 339 653 334 698 334 C 742 334 776 339 801 351 C 825 362 844 378 856 399 C 868 419 876 444 879 474 C 881 504 883 537 883 573 L 883 1174 L 1282 1174 L 1282 582 C 1282 470 1272 375 1253 298 C 1233 221 1201 159 1155 111 C 1109 63 1049 29 974 8 C 899 -12 806 -23 694 -23 Z M 168 1686 L 653 1686 L 932 1280 L 578 1280 L 168 1686 Z" unicode="" />
<glyph horiz-adv-x="1389" d="M 694 -23 C 582 -23 489 -12 414 8 C 339 29 279 63 233 111 C 187 158 155 220 135 298 C 115 375 106 470 106 582 L 106 1174 L 512 1174 L 512 573 C 512 536 513 503 516 473 C 518 443 526 418 538 398 C 550 377 568 361 593 350 C 618 339 653 334 698 334 C 742 334 776 339 801 351 C 825 362 844 378 856 399 C 868 419 876 444 879 474 C 881 504 883 537 883 573 L 883 1174 L 1282 1174 L 1282 582 C 1282 470 1272 375 1253 298 C 1233 221 1201 159 1155 111 C 1109 63 1049 29 974 8 C 899 -12 806 -23 694 -23 Z M 735 1686 L 1221 1686 L 811 1280 L 457 1280 L 735 1686 Z" unicode="" />
<glyph horiz-adv-x="1389" d="M 694 -23 C 582 -23 489 -12 414 8 C 339 29 279 63 233 111 C 187 158 155 220 135 298 C 115 375 106 470 106 582 L 106 1174 L 512 1174 L 512 573 C 512 536 513 503 516 473 C 518 443 526 418 538 398 C 550 377 568 361 593 350 C 618 339 653 334 698 334 C 742 334 776 339 801 351 C 825 362 844 378 856 399 C 868 419 876 444 879 474 C 881 504 883 537 883 573 L 883 1174 L 1282 1174 L 1282 582 C 1282 470 1272 375 1253 298 C 1233 221 1201 159 1155 111 C 1109 63 1049 29 974 8 C 899 -12 806 -23 694 -23 Z M 487 1686 L 901 1686 L 1221 1280 L 846 1280 L 690 1434 L 535 1280 L 168 1280 L 487 1686 Z" unicode="" />
<glyph horiz-adv-x="1389" d="M 694 -23 C 582 -23 489 -12 414 8 C 339 29 279 63 233 111 C 187 158 155 220 135 298 C 115 375 106 470 106 582 L 106 1174 L 512 1174 L 512 573 C 512 536 513 503 516 473 C 518 443 526 418 538 398 C 550 377 568 361 593 350 C 618 339 653 334 698 334 C 742 334 776 339 801 351 C 825 362 844 378 856 399 C 868 419 876 444 879 474 C 881 504 883 537 883 573 L 883 1174 L 1282 1174 L 1282 582 C 1282 470 1272 375 1253 298 C 1233 221 1201 159 1155 111 C 1109 63 1049 29 974 8 C 899 -12 806 -23 694 -23 Z M 272 1597 L 637 1597 L 637 1280 L 272 1280 L 272 1597 Z M 754 1597 L 1118 1597 L 1118 1280 L 754 1280 L 754 1597 Z" unicode="" />
<glyph horiz-adv-x="1253" d="M 283 -350 C 267 -350 248 -349 225 -349 C 201 -348 179 -347 158 -346 L 158 -43 L 244 -43 C 279 -43 307 -42 329 -40 C 351 -38 368 -35 381 -30 C 394 -25 404 -18 410 -10 C 416 -1 422 10 426 25 L 428 33 L -14 1174 L 424 1174 L 643 547 L 856 1174 L 1268 1174 L 815 -18 C 792 -79 767 -131 740 -173 C 713 -215 679 -249 639 -275 C 599 -301 550 -320 493 -332 C 435 -344 365 -350 283 -350 Z M 668 1686 L 1153 1686 L 743 1280 L 389 1280 L 668 1686 Z" unicode="" />
<glyph horiz-adv-x="1432" d="M 113 1589 L 516 1589 L 516 1108 C 548 1138 592 1160 650 1176 C 708 1192 781 1200 870 1200 C 938 1200 997 1192 1049 1177 C 1101 1161 1145 1140 1183 1113 C 1220 1085 1251 1053 1276 1015 C 1300 977 1320 936 1334 891 C 1348 845 1359 797 1365 746 C 1371 695 1374 643 1374 590 C 1374 508 1366 431 1351 358 C 1335 284 1308 220 1269 164 C 1229 108 1175 64 1107 31 C 1039 -1 952 -18 846 -18 C 798 -18 757 -15 722 -10 C 686 -5 656 1 630 9 C 604 17 582 27 564 38 C 546 48 530 60 518 72 L 518 -338 L 113 -338 L 113 1589 Z M 762 324 C 804 324 839 330 865 343 C 891 356 912 374 927 397 C 941 419 951 446 956 476 C 960 506 963 539 963 573 C 963 607 960 640 956 671 C 952 702 942 729 928 753 C 914 777 893 796 867 810 C 841 824 806 831 762 831 C 714 831 675 825 644 813 C 612 801 587 785 569 763 C 550 741 537 714 529 682 C 521 650 518 613 518 573 C 518 533 521 497 527 466 C 533 435 546 409 564 388 C 582 367 606 351 638 340 C 670 329 711 324 762 324 Z" unicode="" />
<glyph horiz-adv-x="1253" d="M 283 -350 C 267 -350 248 -349 225 -349 C 201 -348 179 -347 158 -346 L 158 -43 L 244 -43 C 279 -43 307 -42 329 -40 C 351 -38 368 -35 381 -30 C 394 -25 404 -18 410 -10 C 416 -1 422 10 426 25 L 428 33 L -14 1174 L 424 1174 L 643 547 L 856 1174 L 1268 1174 L 815 -18 C 792 -79 767 -131 740 -173 C 713 -215 679 -249 639 -275 C 599 -301 550 -320 493 -332 C 435 -344 365 -350 283 -350 Z M 205 1597 L 569 1597 L 569 1280 L 205 1280 L 205 1597 Z M 686 1597 L 1051 1597 L 1051 1280 L 686 1280 L 686 1597 Z" unicode="" />
<glyph horiz-adv-x="1681" d="M 623 1528 L 1055 1528 L 1667 0 L 1227 0 L 1151 197 L 504 197 L 428 0 L 14 0 L 623 1528 Z M 1016 545 L 827 1028 L 639 545 L 1016 545 Z M 379 1917 L 1300 1917 L 1300 1595 L 379 1595 L 379 1917 Z" unicode="" />
<glyph horiz-adv-x="1348" d="M 487 -18 C 392 -18 315 -8 256 10 C 196 29 150 55 117 89 C 83 122 61 161 49 206 C 37 251 31 300 31 352 C 31 434 46 501 76 553 C 106 605 151 645 213 674 C 274 703 351 723 443 733 C 535 743 644 748 770 748 L 807 748 C 806 763 804 777 801 789 C 797 801 789 811 776 820 C 763 828 744 835 719 839 C 694 843 660 846 616 846 C 580 846 546 843 514 837 C 481 831 450 824 422 815 C 393 806 367 796 343 785 C 319 773 299 762 283 752 L 80 1049 C 102 1063 132 1079 170 1097 C 208 1115 252 1131 302 1146 C 352 1161 408 1174 469 1184 C 529 1194 594 1200 662 1200 C 771 1200 860 1191 930 1174 C 999 1156 1053 1129 1093 1092 C 1132 1054 1159 1006 1174 948 C 1188 890 1196 819 1196 737 L 1196 424 C 1196 404 1196 389 1198 377 C 1200 365 1204 356 1210 350 C 1216 344 1225 339 1237 337 C 1249 335 1266 334 1288 334 L 1288 4 C 1274 0 1253 -1 1226 -3 C 1198 -5 1162 -6 1116 -6 C 1086 -6 1059 -4 1035 -2 C 1011 0 989 6 970 14 C 951 22 934 32 919 46 C 903 60 889 78 877 100 C 847 64 800 35 736 14 C 671 -7 588 -18 487 -18 Z M 571 307 C 652 307 712 319 750 343 C 788 367 807 408 807 465 L 807 504 L 797 504 C 735 504 683 503 641 501 C 598 499 563 495 535 491 C 507 487 485 481 469 475 C 453 469 441 461 433 453 C 425 444 420 434 418 423 C 416 412 416 400 416 387 C 416 357 427 337 450 325 C 472 313 513 307 571 307 Z M 213 1602 L 1135 1602 L 1135 1280 L 213 1280 L 213 1602 Z" unicode="" />
<glyph horiz-adv-x="1681" d="M 623 1528 L 1055 1528 L 1667 0 L 1227 0 L 1151 197 L 504 197 L 428 0 L 14 0 L 623 1528 Z M 1016 545 L 827 1028 L 639 545 L 1016 545 Z M 840 1575 C 760 1575 693 1585 639 1606 C 585 1627 540 1657 505 1696 C 469 1735 441 1783 421 1839 C 401 1895 384 1959 371 2030 L 659 2083 C 667 2043 675 2011 685 1986 C 694 1960 705 1940 719 1925 C 732 1909 748 1899 768 1893 C 787 1887 811 1884 840 1884 C 868 1884 892 1887 911 1893 C 930 1899 946 1909 960 1925 C 973 1940 984 1960 994 1986 C 1003 2011 1012 2043 1020 2083 L 1313 2032 C 1297 1960 1279 1896 1258 1840 C 1236 1784 1208 1736 1173 1697 C 1137 1657 1093 1627 1039 1606 C 985 1585 919 1575 840 1575 Z" unicode="" />
<glyph horiz-adv-x="1348" d="M 487 -18 C 392 -18 315 -8 256 10 C 196 29 150 55 117 89 C 83 122 61 161 49 206 C 37 251 31 300 31 352 C 31 434 46 501 76 553 C 106 605 151 645 213 674 C 274 703 351 723 443 733 C 535 743 644 748 770 748 L 807 748 C 806 763 804 777 801 789 C 797 801 789 811 776 820 C 763 828 744 835 719 839 C 694 843 660 846 616 846 C 580 846 546 843 514 837 C 481 831 450 824 422 815 C 393 806 367 796 343 785 C 319 773 299 762 283 752 L 80 1049 C 102 1063 132 1079 170 1097 C 208 1115 252 1131 302 1146 C 352 1161 408 1174 469 1184 C 529 1194 594 1200 662 1200 C 771 1200 860 1191 930 1174 C 999 1156 1053 1129 1093 1092 C 1132 1054 1159 1006 1174 948 C 1188 890 1196 819 1196 737 L 1196 424 C 1196 404 1196 389 1198 377 C 1200 365 1204 356 1210 350 C 1216 344 1225 339 1237 337 C 1249 335 1266 334 1288 334 L 1288 4 C 1274 0 1253 -1 1226 -3 C 1198 -5 1162 -6 1116 -6 C 1086 -6 1059 -4 1035 -2 C 1011 0 989 6 970 14 C 951 22 934 32 919 46 C 903 60 889 78 877 100 C 847 64 800 35 736 14 C 671 -7 588 -18 487 -18 Z M 571 307 C 652 307 712 319 750 343 C 788 367 807 408 807 465 L 807 504 L 797 504 C 735 504 683 503 641 501 C 598 499 563 495 535 491 C 507 487 485 481 469 475 C 453 469 441 461 433 453 C 425 444 420 434 418 423 C 416 412 416 400 416 387 C 416 357 427 337 450 325 C 472 313 513 307 571 307 Z M 674 1260 C 594 1260 527 1270 473 1291 C 419 1312 374 1342 339 1381 C 303 1420 275 1468 255 1524 C 235 1580 218 1643 205 1714 L 494 1767 C 502 1728 510 1696 519 1670 C 528 1644 539 1624 553 1609 C 566 1594 582 1584 602 1578 C 621 1572 645 1569 674 1569 C 702 1569 726 1572 745 1578 C 764 1584 780 1594 794 1609 C 807 1624 818 1644 828 1670 C 837 1696 846 1728 854 1767 L 1147 1716 C 1131 1644 1113 1580 1092 1524 C 1070 1468 1042 1420 1007 1381 C 971 1342 927 1312 873 1291 C 819 1270 753 1260 674 1260 Z" unicode="" />
<glyph horiz-adv-x="1681" d="M 623 1528 L 1055 1528 L 1667 0 L 1493 0 C 1433 -43 1388 -83 1358 -121 C 1328 -158 1313 -194 1313 -229 C 1313 -241 1314 -251 1318 -259 C 1321 -267 1327 -274 1335 -280 C 1343 -285 1355 -289 1369 -291 C 1383 -293 1401 -295 1423 -295 C 1452 -295 1484 -291 1520 -284 C 1555 -276 1590 -266 1624 -254 L 1681 -436 C 1623 -460 1567 -479 1511 -492 C 1455 -505 1403 -512 1354 -512 C 1291 -512 1239 -506 1199 -496 C 1159 -486 1127 -471 1103 -451 C 1079 -431 1063 -406 1054 -377 C 1044 -347 1040 -314 1040 -276 C 1040 -240 1045 -207 1057 -178 C 1069 -148 1084 -122 1102 -99 C 1120 -76 1140 -56 1162 -40 C 1184 -23 1205 -10 1225 0 L 1151 197 L 504 197 L 428 0 L 14 0 L 623 1528 Z M 1016 545 L 827 1028 L 639 545 L 1016 545 Z" unicode="" />
<glyph horiz-adv-x="1348" d="M 487 -18 C 392 -18 315 -8 256 10 C 196 29 150 55 117 89 C 83 122 61 161 49 206 C 37 251 31 300 31 352 C 31 434 46 501 76 553 C 106 605 151 645 213 674 C 274 703 351 723 443 733 C 535 743 644 748 770 748 L 807 748 C 806 763 804 777 801 789 C 797 801 789 811 776 820 C 763 828 744 835 719 839 C 694 843 660 846 616 846 C 580 846 546 843 514 837 C 481 831 450 824 422 815 C 393 806 367 796 343 785 C 319 773 299 762 283 752 L 80 1049 C 102 1063 132 1079 170 1097 C 208 1115 252 1131 302 1146 C 352 1161 408 1174 469 1184 C 529 1194 594 1200 662 1200 C 771 1200 860 1191 930 1174 C 999 1156 1053 1129 1093 1092 C 1132 1054 1159 1006 1174 948 C 1188 890 1196 819 1196 737 L 1196 424 C 1196 404 1196 389 1198 377 C 1200 365 1204 356 1210 350 C 1216 344 1225 339 1237 337 C 1249 335 1266 334 1288 334 L 1288 4 C 1218 -42 1167 -83 1135 -119 C 1103 -155 1087 -192 1087 -229 C 1087 -241 1088 -251 1092 -259 C 1095 -267 1101 -274 1110 -280 C 1118 -285 1130 -289 1144 -291 C 1158 -293 1176 -295 1198 -295 C 1226 -295 1255 -292 1285 -287 C 1314 -281 1338 -275 1358 -268 L 1415 -451 C 1371 -469 1324 -483 1276 -495 C 1227 -506 1178 -512 1128 -512 C 1066 -512 1014 -506 974 -496 C 933 -486 901 -471 878 -451 C 854 -431 838 -406 829 -377 C 819 -347 815 -314 815 -276 C 815 -240 821 -207 834 -177 C 846 -147 862 -121 881 -98 C 900 -74 921 -54 943 -37 C 965 -20 986 -6 1006 4 C 988 8 972 13 958 20 C 943 26 930 35 918 47 C 909 54 901 62 895 70 C 889 78 883 88 877 100 C 847 64 800 35 736 14 C 671 -7 588 -18 487 -18 Z M 571 307 C 652 307 712 319 750 343 C 788 367 807 408 807 465 L 807 504 L 797 504 C 735 504 683 503 641 501 C 598 499 563 495 535 491 C 507 487 485 481 469 475 C 453 469 441 461 433 453 C 425 444 420 434 418 423 C 416 412 416 400 416 387 C 416 357 427 337 450 325 C 472 313 513 307 571 307 Z" unicode="" />
<glyph horiz-adv-x="1593" d="M 856 -23 C 706 -23 581 -5 479 29 C 377 64 295 115 233 182 C 171 249 126 331 99 428 C 72 525 59 636 59 760 C 59 898 77 1016 115 1115 C 152 1214 206 1295 277 1358 C 348 1421 434 1467 536 1497 C 638 1527 753 1542 883 1542 C 959 1542 1028 1537 1090 1527 C 1151 1517 1207 1502 1257 1482 C 1307 1462 1352 1438 1394 1409 C 1435 1379 1474 1345 1511 1307 L 1219 1014 C 1197 1035 1176 1054 1154 1072 C 1132 1089 1107 1104 1081 1116 C 1054 1128 1024 1137 992 1143 C 959 1149 922 1153 881 1153 C 809 1153 747 1144 697 1127 C 647 1109 606 1084 575 1051 C 544 1017 522 976 508 926 C 494 876 487 818 487 754 C 487 692 492 637 504 588 C 515 538 535 496 565 462 C 595 428 635 401 687 383 C 738 365 803 356 883 356 C 928 356 968 359 1002 367 C 1036 374 1067 384 1095 397 C 1123 410 1148 426 1172 444 C 1195 462 1219 483 1243 506 L 1522 233 C 1490 199 1454 166 1415 135 C 1376 104 1331 77 1279 53 C 1227 29 1166 11 1097 -2 C 1028 -16 948 -23 856 -23 Z M 838 2001 L 1323 2001 L 913 1595 L 559 1595 L 838 2001 Z" unicode="" />
<glyph horiz-adv-x="1227" d="M 678 -18 C 593 -18 519 -10 455 4 C 391 18 337 39 291 66 C 245 92 207 124 177 161 C 147 198 123 239 105 284 C 87 329 74 377 67 429 C 60 481 57 534 57 590 C 57 644 60 696 67 747 C 73 798 85 846 103 891 C 121 936 145 978 175 1016 C 205 1054 244 1086 292 1113 C 340 1140 397 1161 463 1177 C 529 1192 608 1200 698 1200 C 804 1200 899 1183 984 1150 C 1069 1117 1141 1066 1200 997 L 915 729 C 903 741 891 753 878 765 C 865 777 850 787 833 797 C 816 807 796 814 774 820 C 752 826 726 829 696 829 C 647 829 608 822 578 810 C 548 798 524 780 508 758 C 492 736 481 709 475 679 C 469 648 467 614 467 578 C 467 541 469 507 475 476 C 481 445 492 418 508 396 C 524 373 548 355 579 343 C 609 330 650 324 700 324 C 724 324 747 325 768 329 C 788 333 808 339 827 347 C 845 355 864 366 882 380 C 900 394 920 410 940 430 L 1198 184 C 1161 149 1125 119 1091 94 C 1056 68 1019 47 979 31 C 939 14 895 2 847 -6 C 799 -14 742 -18 678 -18 Z M 653 1686 L 1139 1686 L 729 1280 L 375 1280 L 653 1686 Z" unicode="" />
<glyph horiz-adv-x="1593" d="" unicode="" />
<glyph horiz-adv-x="1227" d="" unicode="" />
<glyph horiz-adv-x="1593" d="" unicode="" />
<glyph horiz-adv-x="1227" d="" unicode="" />
<glyph horiz-adv-x="1593" d="M 856 -23 C 706 -23 581 -5 479 29 C 377 64 295 115 233 182 C 171 249 126 331 99 428 C 72 525 59 636 59 760 C 59 898 77 1016 115 1115 C 152 1214 206 1295 277 1358 C 348 1421 434 1467 536 1497 C 638 1527 753 1542 883 1542 C 959 1542 1028 1537 1090 1527 C 1151 1517 1207 1502 1257 1482 C 1307 1462 1352 1438 1394 1409 C 1435 1379 1474 1345 1511 1307 L 1219 1014 C 1197 1035 1176 1054 1154 1072 C 1132 1089 1107 1104 1081 1116 C 1054 1128 1024 1137 992 1143 C 959 1149 922 1153 881 1153 C 809 1153 747 1144 697 1127 C 647 1109 606 1084 575 1051 C 544 1017 522 976 508 926 C 494 876 487 818 487 754 C 487 692 492 637 504 588 C 515 538 535 496 565 462 C 595 428 635 401 687 383 C 738 365 803 356 883 356 C 928 356 968 359 1002 367 C 1036 374 1067 384 1095 397 C 1123 410 1148 426 1172 444 C 1195 462 1219 483 1243 506 L 1522 233 C 1490 199 1454 166 1415 135 C 1376 104 1331 77 1279 53 C 1227 29 1166 11 1097 -2 C 1028 -16 948 -23 856 -23 Z M 270 2001 L 645 2001 L 801 1847 L 956 2001 L 1323 2001 L 1004 1595 L 590 1595 L 270 2001 Z" unicode="" />
<glyph horiz-adv-x="1227" d="M 678 -18 C 593 -18 519 -10 455 4 C 391 18 337 39 291 66 C 245 92 207 124 177 161 C 147 198 123 239 105 284 C 87 329 74 377 67 429 C 60 481 57 534 57 590 C 57 644 60 696 67 747 C 73 798 85 846 103 891 C 121 936 145 978 175 1016 C 205 1054 244 1086 292 1113 C 340 1140 397 1161 463 1177 C 529 1192 608 1200 698 1200 C 804 1200 899 1183 984 1150 C 1069 1117 1141 1066 1200 997 L 915 729 C 903 741 891 753 878 765 C 865 777 850 787 833 797 C 816 807 796 814 774 820 C 752 826 726 829 696 829 C 647 829 608 822 578 810 C 548 798 524 780 508 758 C 492 736 481 709 475 679 C 469 648 467 614 467 578 C 467 541 469 507 475 476 C 481 445 492 418 508 396 C 524 373 548 355 579 343 C 609 330 650 324 700 324 C 724 324 747 325 768 329 C 788 333 808 339 827 347 C 845 355 864 366 882 380 C 900 394 920 410 940 430 L 1198 184 C 1161 149 1125 119 1091 94 C 1056 68 1019 47 979 31 C 939 14 895 2 847 -6 C 799 -14 742 -18 678 -18 Z M 86 1686 L 461 1686 L 616 1532 L 772 1686 L 1139 1686 L 819 1280 L 406 1280 L 86 1686 Z" unicode="" />
<glyph horiz-adv-x="1645" d="M 139 1518 L 709 1518 C 861 1518 993 1507 1104 1485 C 1214 1463 1305 1424 1377 1368 C 1449 1312 1502 1234 1536 1136 C 1570 1038 1587 912 1587 760 C 1587 609 1570 485 1536 387 C 1502 289 1449 211 1377 154 C 1305 96 1214 56 1104 34 C 993 11 861 0 709 0 L 139 0 L 139 1518 Z M 733 369 C 828 369 904 376 960 390 C 1016 404 1059 427 1089 458 C 1118 489 1137 529 1146 579 C 1154 629 1159 689 1159 760 C 1159 806 1157 848 1154 885 C 1151 921 1144 954 1134 982 C 1124 1010 1109 1033 1089 1053 C 1069 1073 1043 1089 1010 1101 C 977 1113 936 1122 888 1128 C 839 1134 781 1137 713 1137 L 563 1137 L 563 369 L 733 369 Z M 295 2001 L 670 2001 L 825 1847 L 981 2001 L 1348 2001 L 1028 1595 L 614 1595 L 295 2001 Z" unicode="" />
<glyph horiz-adv-x="1804" d="M 1430 1069 C 1465 1085 1493 1099 1514 1110 C 1535 1120 1551 1130 1563 1140 C 1574 1150 1581 1160 1585 1170 C 1589 1180 1591 1194 1591 1210 L 1432 1210 L 1432 1589 L 1804 1589 L 1804 1325 C 1804 1263 1801 1211 1795 1169 C 1789 1127 1775 1091 1755 1061 C 1735 1030 1705 1002 1667 978 C 1628 954 1576 928 1511 901 L 1430 1069 Z M 569 -23 C 501 -23 441 -15 389 0 C 337 15 292 37 254 65 C 216 93 185 126 160 164 C 134 202 114 244 99 290 C 83 336 72 384 66 436 C 60 487 57 540 57 594 C 57 647 60 699 67 750 C 73 800 84 848 100 893 C 116 938 137 979 163 1017 C 189 1055 222 1087 261 1114 C 300 1141 346 1162 399 1177 C 452 1192 514 1200 584 1200 C 632 1200 674 1197 710 1191 C 746 1185 777 1178 803 1170 C 829 1161 850 1151 868 1141 C 885 1130 899 1120 911 1110 L 911 1589 L 1319 1589 L 1319 14 L 1008 -14 L 967 92 C 949 76 929 61 905 47 C 881 33 853 20 821 10 C 788 0 751 -8 709 -14 C 667 -20 621 -23 569 -23 Z M 670 326 C 716 326 755 332 786 345 C 817 357 842 375 861 398 C 879 421 892 449 900 482 C 907 515 911 552 911 594 C 911 634 908 669 902 699 C 896 729 884 755 867 775 C 849 795 825 810 793 820 C 761 830 720 836 670 836 C 626 836 591 829 565 817 C 539 804 518 787 504 765 C 490 743 480 718 476 689 C 471 659 469 628 469 594 C 469 560 471 526 475 494 C 479 462 489 433 503 408 C 517 383 538 363 564 348 C 590 333 626 326 670 326 Z" unicode="" />
<glyph horiz-adv-x="1645" d="M 0 924 L 139 924 L 139 1518 L 709 1518 C 861 1518 993 1507 1104 1485 C 1214 1463 1305 1424 1377 1368 C 1449 1312 1502 1234 1536 1136 C 1570 1038 1587 912 1587 760 C 1587 609 1568 485 1532 387 C 1495 289 1440 211 1367 154 C 1293 96 1202 56 1092 34 C 982 11 855 0 709 0 L 139 0 L 139 590 L 0 590 L 0 924 Z M 733 369 C 828 369 904 376 960 390 C 1016 404 1059 427 1089 458 C 1118 489 1137 529 1146 579 C 1154 629 1159 689 1159 760 C 1159 806 1157 848 1154 885 C 1151 921 1144 954 1134 982 C 1124 1010 1109 1033 1089 1053 C 1069 1073 1043 1089 1010 1101 C 977 1113 936 1122 888 1128 C 839 1134 781 1137 713 1137 L 563 1137 L 563 924 L 813 924 L 813 590 L 563 590 L 563 369 L 733 369 Z" unicode="" />
<glyph horiz-adv-x="1432" d="M 729 1497 L 911 1497 L 911 1589 L 1319 1589 L 1319 1497 L 1430 1497 L 1430 1237 L 1319 1237 L 1319 14 L 1008 -14 L 967 92 C 949 76 929 61 905 47 C 881 33 853 20 821 10 C 788 0 751 -8 709 -14 C 667 -20 621 -23 569 -23 C 501 -23 441 -15 389 0 C 337 15 292 37 254 65 C 216 93 185 126 160 164 C 134 202 114 244 99 290 C 83 336 72 384 66 436 C 60 487 57 540 57 594 C 57 647 60 699 67 750 C 73 800 84 848 100 893 C 116 938 137 979 163 1017 C 189 1055 222 1087 261 1114 C 300 1141 346 1162 399 1177 C 452 1192 514 1200 584 1200 C 632 1200 674 1197 710 1191 C 746 1185 777 1178 803 1170 C 829 1161 850 1151 868 1141 C 885 1130 899 1120 911 1110 L 911 1237 L 729 1237 L 729 1497 Z M 670 326 C 716 326 755 332 786 345 C 817 357 842 375 861 398 C 879 421 892 449 900 482 C 907 515 911 552 911 594 C 911 634 908 669 902 699 C 896 729 884 755 867 775 C 849 795 825 810 793 820 C 761 830 720 836 670 836 C 626 836 591 829 565 817 C 539 804 518 787 504 765 C 490 743 480 718 476 689 C 471 659 469 628 469 594 C 469 560 471 526 475 494 C 479 462 489 433 503 408 C 517 383 538 363 564 348 C 590 333 626 326 670 326 Z" unicode="" />
<glyph horiz-adv-x="1458" d="M 139 1518 L 1348 1518 L 1348 1135 L 563 1135 L 563 950 L 1327 950 L 1327 580 L 563 580 L 563 367 L 1356 367 L 1356 0 L 139 0 L 139 1518 Z M 268 1917 L 1190 1917 L 1190 1595 L 268 1595 L 268 1917 Z" unicode="" />
<glyph horiz-adv-x="1294" d="M 692 -23 C 604 -23 528 -15 463 0 C 397 14 341 35 294 62 C 247 89 208 121 178 159 C 147 197 123 238 105 284 C 87 330 74 378 67 430 C 60 481 57 534 57 590 C 57 643 60 695 67 746 C 74 797 87 845 105 891 C 123 936 147 977 178 1015 C 208 1053 247 1085 294 1113 C 341 1140 397 1161 463 1177 C 528 1192 604 1200 692 1200 C 779 1200 853 1191 914 1173 C 975 1155 1026 1129 1067 1097 C 1108 1065 1140 1026 1164 980 C 1188 934 1205 884 1216 828 C 1227 772 1233 713 1235 649 C 1237 585 1237 518 1235 449 L 451 449 C 455 425 463 403 474 385 C 485 367 500 351 519 339 C 537 327 561 318 589 312 C 617 306 652 303 692 303 C 735 303 774 305 810 310 C 846 315 878 322 908 331 C 937 340 964 351 988 364 C 1012 376 1034 390 1055 406 L 1257 145 C 1215 113 1174 86 1133 65 C 1091 43 1048 26 1003 13 C 957 0 909 -8 858 -14 C 807 -20 752 -23 692 -23 Z M 680 864 C 638 864 604 860 576 852 C 548 844 526 833 508 818 C 490 803 476 785 466 763 C 456 741 450 716 446 688 L 866 688 C 864 712 862 734 858 756 C 854 777 845 796 833 812 C 821 828 803 840 779 850 C 755 859 722 864 680 864 Z M 186 1602 L 1108 1602 L 1108 1280 L 186 1280 L 186 1602 Z" unicode="" />
<glyph horiz-adv-x="1458" d="" unicode="" />
<glyph horiz-adv-x="1294" d="" unicode="" />
<glyph horiz-adv-x="1458" d="M 139 1518 L 1348 1518 L 1348 1135 L 563 1135 L 563 950 L 1327 950 L 1327 580 L 563 580 L 563 367 L 1356 367 L 1356 0 L 139 0 L 139 1518 Z M 522 1917 L 934 1917 L 934 1595 L 522 1595 L 522 1917 Z" unicode="" />
<glyph horiz-adv-x="1294" d="M 692 -23 C 604 -23 528 -15 463 0 C 397 14 341 35 294 62 C 247 89 208 121 178 159 C 147 197 123 238 105 284 C 87 330 74 378 67 430 C 60 481 57 534 57 590 C 57 643 60 695 67 746 C 74 797 87 845 105 891 C 123 936 147 977 178 1015 C 208 1053 247 1085 294 1113 C 341 1140 397 1161 463 1177 C 528 1192 604 1200 692 1200 C 779 1200 853 1191 914 1173 C 975 1155 1026 1129 1067 1097 C 1108 1065 1140 1026 1164 980 C 1188 934 1205 884 1216 828 C 1227 772 1233 713 1235 649 C 1237 585 1237 518 1235 449 L 451 449 C 455 425 463 403 474 385 C 485 367 500 351 519 339 C 537 327 561 318 589 312 C 617 306 652 303 692 303 C 735 303 774 305 810 310 C 846 315 878 322 908 331 C 937 340 964 351 988 364 C 1012 376 1034 390 1055 406 L 1257 145 C 1215 113 1174 86 1133 65 C 1091 43 1048 26 1003 13 C 957 0 909 -8 858 -14 C 807 -20 752 -23 692 -23 Z M 680 864 C 638 864 604 860 576 852 C 548 844 526 833 508 818 C 490 803 476 785 466 763 C 456 741 450 716 446 688 L 866 688 C 864 712 862 734 858 756 C 854 777 845 796 833 812 C 821 828 803 840 779 850 C 755 859 722 864 680 864 Z M 440 1602 L 852 1602 L 852 1280 L 440 1280 L 440 1602 Z" unicode="" />
<glyph horiz-adv-x="1458" d="M 139 1518 L 1348 1518 L 1348 1135 L 563 1135 L 563 950 L 1327 950 L 1327 580 L 563 580 L 563 367 L 1356 367 L 1356 0 L 1171 0 C 1111 -43 1066 -83 1036 -121 C 1006 -158 991 -194 991 -229 C 991 -241 992 -251 996 -259 C 999 -267 1005 -274 1014 -280 C 1022 -285 1034 -289 1048 -291 C 1062 -293 1080 -295 1102 -295 C 1130 -295 1162 -291 1198 -284 C 1234 -276 1269 -266 1303 -254 L 1360 -436 C 1302 -460 1245 -479 1189 -492 C 1133 -505 1081 -512 1032 -512 C 969 -512 917 -506 877 -496 C 837 -486 805 -471 781 -451 C 757 -431 741 -406 732 -377 C 723 -347 719 -314 719 -276 C 719 -240 726 -208 741 -179 C 756 -149 775 -123 797 -100 C 819 -77 843 -57 869 -40 C 895 -23 918 -10 940 0 L 139 0 L 139 1518 Z" unicode="" />
<glyph horiz-adv-x="1294" d="M 692 -23 C 604 -23 528 -15 463 0 C 397 14 341 35 294 62 C 247 89 208 121 178 159 C 147 197 123 238 105 284 C 87 330 74 378 67 430 C 60 481 57 534 57 590 C 57 643 60 695 67 746 C 74 797 87 845 105 891 C 123 936 147 977 178 1015 C 208 1053 247 1085 294 1113 C 341 1140 397 1161 463 1177 C 528 1192 604 1200 692 1200 C 779 1200 853 1191 914 1173 C 975 1155 1026 1129 1067 1097 C 1108 1065 1140 1026 1164 980 C 1188 934 1205 884 1216 828 C 1227 772 1233 713 1235 649 C 1237 585 1237 518 1235 449 L 451 449 C 455 425 463 403 474 385 C 485 367 500 351 519 339 C 537 327 561 318 589 312 C 617 306 652 303 692 303 C 735 303 774 305 810 310 C 846 315 878 322 908 331 C 937 340 964 351 988 364 C 1012 376 1034 390 1055 406 L 1257 145 C 1213 112 1170 85 1128 63 C 1085 41 1040 23 993 10 C 928 -36 879 -78 846 -116 C 813 -154 797 -192 797 -229 C 797 -241 798 -251 802 -259 C 805 -267 811 -274 819 -280 C 827 -285 839 -289 853 -291 C 867 -293 885 -295 907 -295 C 936 -295 968 -291 1004 -284 C 1039 -276 1074 -266 1108 -254 L 1165 -436 C 1107 -460 1051 -479 995 -492 C 939 -505 887 -512 838 -512 C 775 -512 723 -506 683 -496 C 643 -486 611 -471 587 -451 C 563 -431 547 -406 538 -377 C 528 -347 524 -314 524 -276 C 524 -246 529 -218 540 -192 C 551 -166 565 -143 583 -122 C 600 -101 619 -82 641 -66 C 662 -49 683 -35 705 -23 L 692 -23 Z M 680 864 C 638 864 604 860 576 852 C 548 844 526 833 508 818 C 490 803 476 785 466 763 C 456 741 450 716 446 688 L 866 688 C 864 712 862 734 858 756 C 854 777 845 796 833 812 C 821 828 803 840 779 850 C 755 859 722 864 680 864 Z" unicode="" />
<glyph horiz-adv-x="1458" d="M 139 1518 L 1348 1518 L 1348 1135 L 563 1135 L 563 950 L 1327 950 L 1327 580 L 563 580 L 563 367 L 1356 367 L 1356 0 L 139 0 L 139 1518 Z M 203 2001 L 578 2001 L 733 1847 L 889 2001 L 1255 2001 L 936 1595 L 522 1595 L 203 2001 Z" unicode="" />
<glyph horiz-adv-x="1294" d="M 692 -23 C 604 -23 528 -15 463 0 C 397 14 341 35 294 62 C 247 89 208 121 178 159 C 147 197 123 238 105 284 C 87 330 74 378 67 430 C 60 481 57 534 57 590 C 57 643 60 695 67 746 C 74 797 87 845 105 891 C 123 936 147 977 178 1015 C 208 1053 247 1085 294 1113 C 341 1140 397 1161 463 1177 C 528 1192 604 1200 692 1200 C 779 1200 853 1191 914 1173 C 975 1155 1026 1129 1067 1097 C 1108 1065 1140 1026 1164 980 C 1188 934 1205 884 1216 828 C 1227 772 1233 713 1235 649 C 1237 585 1237 518 1235 449 L 451 449 C 455 425 463 403 474 385 C 485 367 500 351 519 339 C 537 327 561 318 589 312 C 617 306 652 303 692 303 C 735 303 774 305 810 310 C 846 315 878 322 908 331 C 937 340 964 351 988 364 C 1012 376 1034 390 1055 406 L 1257 145 C 1215 113 1174 86 1133 65 C 1091 43 1048 26 1003 13 C 957 0 909 -8 858 -14 C 807 -20 752 -23 692 -23 Z M 680 864 C 638 864 604 860 576 852 C 548 844 526 833 508 818 C 490 803 476 785 466 763 C 456 741 450 716 446 688 L 866 688 C 864 712 862 734 858 756 C 854 777 845 796 833 812 C 821 828 803 840 779 850 C 755 859 722 864 680 864 Z M 121 1686 L 496 1686 L 651 1532 L 807 1686 L 1174 1686 L 854 1280 L 440 1280 L 121 1686 Z" unicode="" />
<glyph horiz-adv-x="1659" d="" unicode="" />
<glyph horiz-adv-x="1393" d="" unicode="" />
<glyph horiz-adv-x="1659" d="M 850 -23 C 690 -23 558 -5 456 29 C 353 64 272 115 214 182 C 155 249 114 331 92 428 C 70 525 59 636 59 760 C 59 897 77 1015 113 1114 C 149 1212 202 1293 272 1357 C 342 1420 428 1467 530 1497 C 632 1527 749 1542 881 1542 C 960 1542 1032 1536 1097 1526 C 1161 1515 1220 1500 1273 1480 C 1326 1460 1373 1436 1415 1408 C 1457 1380 1494 1348 1528 1313 L 1235 1020 C 1217 1037 1199 1054 1179 1070 C 1159 1086 1135 1100 1108 1112 C 1080 1124 1048 1134 1011 1142 C 973 1149 929 1153 879 1153 C 803 1153 740 1144 690 1126 C 639 1108 598 1083 568 1049 C 537 1015 515 974 502 925 C 489 875 483 819 483 756 C 483 686 487 624 497 571 C 506 518 524 474 552 439 C 580 404 619 378 670 360 C 721 342 788 334 872 334 C 931 334 981 337 1023 345 C 1065 352 1099 364 1125 381 C 1151 397 1170 418 1182 444 C 1194 470 1200 501 1200 539 L 1200 563 L 815 563 L 815 905 L 1610 905 L 1610 623 C 1610 512 1596 416 1570 335 C 1543 253 1500 186 1440 133 C 1380 80 1301 41 1205 15 C 1108 -10 990 -23 850 -23 Z M 829 1575 C 749 1575 682 1585 628 1606 C 574 1627 530 1657 495 1696 C 459 1735 431 1783 411 1839 C 390 1895 373 1959 360 2030 L 649 2083 C 657 2043 665 2011 675 1986 C 684 1960 695 1940 709 1925 C 722 1909 738 1899 757 1893 C 776 1887 800 1884 829 1884 C 857 1884 881 1887 901 1893 C 920 1899 936 1909 950 1925 C 963 1940 974 1960 984 1986 C 993 2011 1002 2043 1010 2083 L 1303 2032 C 1287 1960 1269 1896 1248 1840 C 1226 1784 1198 1736 1162 1697 C 1126 1657 1082 1627 1028 1606 C 974 1585 908 1575 829 1575 Z" unicode="" />
<glyph horiz-adv-x="1393" d="M 666 432 C 643 432 621 432 601 432 C 580 432 560 434 541 436 C 539 432 539 428 539 425 C 539 421 539 418 539 414 C 539 402 541 393 545 387 C 549 380 557 375 569 371 C 581 367 597 365 619 364 C 641 362 669 362 705 362 C 833 362 938 356 1020 345 C 1102 334 1166 316 1212 291 C 1258 265 1290 231 1307 189 C 1324 146 1333 93 1333 31 C 1333 -45 1318 -108 1290 -159 C 1261 -209 1218 -250 1162 -281 C 1105 -312 1035 -334 952 -347 C 868 -360 772 -367 664 -367 C 542 -367 441 -363 359 -356 C 277 -349 210 -335 160 -315 C 110 -294 74 -265 52 -228 C 30 -191 20 -143 20 -84 C 20 -17 41 37 83 81 C 125 124 184 154 258 172 C 227 197 206 225 195 256 C 183 286 178 317 178 348 C 178 381 183 411 193 438 C 203 464 218 489 238 512 C 186 542 147 581 123 629 C 98 677 86 734 86 801 C 86 864 96 920 118 970 C 140 1020 174 1062 221 1096 C 268 1130 328 1155 401 1173 C 474 1191 562 1200 666 1200 L 705 1200 L 1286 1333 L 1286 1028 L 1130 1028 C 1147 1018 1163 1006 1178 993 C 1192 980 1205 965 1215 947 C 1225 929 1234 908 1240 884 C 1246 860 1249 833 1249 801 C 1249 737 1237 681 1215 635 C 1193 589 1158 550 1111 520 C 1063 490 1003 467 929 453 C 855 439 768 432 666 432 Z M 680 -111 C 728 -111 767 -108 798 -104 C 828 -99 853 -92 871 -83 C 889 -73 901 -62 908 -48 C 914 -34 918 -19 918 -2 C 918 14 914 27 907 38 C 900 49 888 58 870 65 C 852 71 827 76 797 79 C 766 82 727 84 680 84 C 624 84 579 82 546 79 C 513 76 488 71 471 64 C 453 56 442 47 437 35 C 432 23 430 8 430 -10 C 430 -25 432 -39 437 -52 C 442 -64 453 -75 471 -84 C 488 -92 513 -99 546 -104 C 579 -108 624 -111 680 -111 Z M 666 659 C 704 659 735 661 759 666 C 783 671 801 679 815 689 C 829 699 838 711 843 726 C 847 741 850 758 850 778 C 850 798 847 815 843 830 C 838 845 829 857 815 867 C 801 877 783 884 759 889 C 735 894 704 897 666 897 C 628 897 598 894 574 889 C 550 884 532 877 519 867 C 505 857 496 845 491 830 C 485 815 483 798 483 778 C 483 758 485 741 491 726 C 496 711 505 699 519 689 C 532 679 550 671 574 666 C 598 661 628 659 666 659 Z M 696 1260 C 616 1260 549 1270 495 1291 C 441 1312 397 1342 362 1381 C 326 1420 298 1468 278 1524 C 257 1580 240 1643 227 1714 L 516 1767 C 524 1728 532 1696 542 1670 C 551 1644 562 1624 576 1609 C 589 1594 605 1584 624 1578 C 643 1572 667 1569 696 1569 C 724 1569 748 1572 768 1578 C 787 1584 803 1594 817 1609 C 830 1624 841 1644 851 1670 C 860 1696 869 1728 877 1767 L 1169 1716 C 1154 1644 1136 1580 1115 1524 C 1093 1468 1065 1420 1029 1381 C 993 1342 949 1312 895 1291 C 841 1270 775 1260 696 1260 Z" unicode="" />
<glyph horiz-adv-x="1659" d="" unicode="" />
<glyph horiz-adv-x="1393" d="" unicode="" />
<glyph horiz-adv-x="1659" d="M 850 -23 C 690 -23 558 -5 456 29 C 353 64 272 115 214 182 C 155 249 114 331 92 428 C 70 525 59 636 59 760 C 59 897 77 1015 113 1114 C 149 1212 202 1293 272 1357 C 342 1420 428 1467 530 1497 C 632 1527 749 1542 881 1542 C 960 1542 1032 1536 1097 1526 C 1161 1515 1220 1500 1273 1480 C 1326 1460 1373 1436 1415 1408 C 1457 1380 1494 1348 1528 1313 L 1235 1020 C 1217 1037 1199 1054 1179 1070 C 1159 1086 1135 1100 1108 1112 C 1080 1124 1048 1134 1011 1142 C 973 1149 929 1153 879 1153 C 803 1153 740 1144 690 1126 C 639 1108 598 1083 568 1049 C 537 1015 515 974 502 925 C 489 875 483 819 483 756 C 483 686 487 624 497 571 C 506 518 524 474 552 439 C 580 404 619 378 670 360 C 721 342 788 334 872 334 C 931 334 981 337 1023 345 C 1065 352 1099 364 1125 381 C 1151 397 1170 418 1182 444 C 1194 470 1200 501 1200 539 L 1200 563 L 815 563 L 815 905 L 1610 905 L 1610 623 C 1610 512 1596 416 1570 335 C 1543 253 1500 186 1440 133 C 1380 80 1301 41 1205 15 C 1108 -10 990 -23 850 -23 Z M 651 -598 C 686 -581 714 -567 736 -557 C 757 -546 773 -536 785 -526 C 796 -516 803 -506 807 -496 C 811 -486 813 -473 813 -457 L 633 -457 L 633 -78 L 1026 -78 L 1026 -342 C 1026 -383 1024 -420 1022 -452 C 1020 -484 1015 -512 1008 -538 C 1000 -563 990 -586 977 -606 C 963 -626 946 -644 924 -662 C 902 -680 876 -697 845 -714 C 813 -730 776 -748 733 -766 L 651 -598 Z" unicode="" />
<glyph horiz-adv-x="1393" d="M 666 432 C 643 432 621 432 601 432 C 580 432 560 434 541 436 C 539 432 539 428 539 425 C 539 421 539 418 539 414 C 539 402 541 393 545 387 C 549 380 557 375 569 371 C 581 367 597 365 619 364 C 641 362 669 362 705 362 C 833 362 938 356 1020 345 C 1102 334 1166 316 1212 291 C 1258 265 1290 231 1307 189 C 1324 146 1333 93 1333 31 C 1333 -45 1318 -108 1290 -159 C 1261 -209 1218 -250 1162 -281 C 1105 -312 1035 -334 952 -347 C 868 -360 772 -367 664 -367 C 542 -367 441 -363 359 -356 C 277 -349 210 -335 160 -315 C 110 -294 74 -265 52 -228 C 30 -191 20 -143 20 -84 C 20 -17 41 37 83 81 C 125 124 184 154 258 172 C 227 197 206 225 195 256 C 183 286 178 317 178 348 C 178 381 183 411 193 438 C 203 464 218 489 238 512 C 186 542 147 581 123 629 C 98 677 86 734 86 801 C 86 864 96 920 118 970 C 140 1020 174 1062 221 1096 C 268 1130 328 1155 401 1173 C 474 1191 562 1200 666 1200 L 705 1200 L 1286 1333 L 1286 1028 L 1130 1028 C 1147 1018 1163 1006 1178 993 C 1192 980 1205 965 1215 947 C 1225 929 1234 908 1240 884 C 1246 860 1249 833 1249 801 C 1249 737 1237 681 1215 635 C 1193 589 1158 550 1111 520 C 1063 490 1003 467 929 453 C 855 439 768 432 666 432 Z M 680 -111 C 728 -111 767 -108 798 -104 C 828 -99 853 -92 871 -83 C 889 -73 901 -62 908 -48 C 914 -34 918 -19 918 -2 C 918 14 914 27 907 38 C 900 49 888 58 870 65 C 852 71 827 76 797 79 C 766 82 727 84 680 84 C 624 84 579 82 546 79 C 513 76 488 71 471 64 C 453 56 442 47 437 35 C 432 23 430 8 430 -10 C 430 -25 432 -39 437 -52 C 442 -64 453 -75 471 -84 C 488 -92 513 -99 546 -104 C 579 -108 624 -111 680 -111 Z M 666 659 C 704 659 735 661 759 666 C 783 671 801 679 815 689 C 829 699 838 711 843 726 C 847 741 850 758 850 778 C 850 798 847 815 843 830 C 838 845 829 857 815 867 C 801 877 783 884 759 889 C 735 894 704 897 666 897 C 628 897 598 894 574 889 C 550 884 532 877 519 867 C 505 857 496 845 491 830 C 485 815 483 798 483 778 C 483 758 485 741 491 726 C 496 711 505 699 519 689 C 532 679 550 671 574 666 C 598 661 628 659 666 659 Z M 500 1507 C 500 1568 503 1619 509 1661 C 515 1703 528 1739 549 1770 C 569 1800 599 1828 638 1853 C 676 1877 729 1903 795 1931 L 874 1763 C 838 1747 810 1733 789 1722 C 768 1711 752 1701 741 1692 C 729 1682 722 1672 718 1662 C 714 1651 713 1638 713 1622 L 893 1622 L 893 1280 L 500 1280 L 500 1507 Z" unicode="" />
<glyph horiz-adv-x="1710" d="" unicode="" />
<glyph horiz-adv-x="1407" d="" unicode="" />
<glyph horiz-adv-x="1710" d="" unicode="" />
<glyph horiz-adv-x="1407" d="" unicode="" />
<glyph horiz-adv-x="752" d="" unicode="" />
<glyph horiz-adv-x="657" d="" unicode="" />
<glyph horiz-adv-x="752" d="M 164 1518 L 588 1518 L 588 0 L 164 0 L 164 1518 Z M -86 1917 L 836 1917 L 836 1595 L -86 1595 L -86 1917 Z" unicode="" />
<glyph horiz-adv-x="657" d="M 125 1174 L 530 1174 L 530 0 L 125 0 L 125 1174 Z M -133 1602 L 788 1602 L 788 1280 L -133 1280 L -133 1602 Z" unicode="" />
<glyph horiz-adv-x="752" d="" unicode="" />
<glyph horiz-adv-x="657" d="" unicode="" />
<glyph horiz-adv-x="752" d="M 164 1518 L 588 1518 L 588 0 C 521 -44 473 -84 445 -120 C 417 -156 403 -192 403 -229 C 403 -241 404 -251 408 -259 C 411 -267 417 -274 426 -280 C 434 -285 446 -289 460 -291 C 474 -293 492 -295 514 -295 C 542 -295 570 -292 598 -288 C 625 -283 656 -274 690 -262 L 748 -444 C 690 -469 638 -487 590 -497 C 542 -507 493 -512 444 -512 C 382 -512 330 -506 290 -496 C 249 -486 217 -471 194 -451 C 170 -431 154 -406 145 -377 C 135 -347 131 -314 131 -276 C 131 -240 136 -208 148 -179 C 160 -149 175 -123 193 -100 C 211 -77 230 -57 252 -40 C 273 -23 293 -10 313 0 L 164 0 L 164 1518 Z" unicode="" />
<glyph horiz-adv-x="657" d="M 125 1174 L 530 1174 L 530 0 C 463 -44 416 -84 388 -120 C 360 -156 346 -192 346 -229 C 346 -241 347 -251 351 -259 C 354 -267 360 -274 369 -280 C 377 -285 389 -289 403 -291 C 417 -293 435 -295 457 -295 C 485 -295 513 -292 541 -288 C 568 -283 599 -274 633 -262 L 690 -444 C 632 -469 580 -487 532 -497 C 484 -507 435 -512 387 -512 C 324 -512 272 -506 232 -496 C 192 -486 160 -471 136 -451 C 112 -431 96 -406 87 -377 C 78 -347 74 -314 74 -276 C 74 -240 79 -208 91 -179 C 103 -149 118 -123 136 -100 C 154 -77 173 -57 195 -40 C 216 -23 236 -10 256 0 L 125 0 L 125 1174 Z M 123 1589 L 532 1589 L 532 1260 L 123 1260 L 123 1589 Z" unicode="" />
<glyph horiz-adv-x="752" d="M 164 1518 L 588 1518 L 588 0 L 164 0 L 164 1518 Z M 168 1917 L 580 1917 L 580 1595 L 168 1595 L 168 1917 Z" unicode="" />
<glyph horiz-adv-x="657" d="M 125 1174 L 530 1174 L 530 0 L 125 0 L 125 1174 Z" unicode="" />
<glyph horiz-adv-x="1741" d="" unicode="" />
<glyph horiz-adv-x="1315" d="" unicode="" />
<glyph horiz-adv-x="989" d="" unicode="" />
<glyph horiz-adv-x="657" d="" unicode="" />
<glyph horiz-adv-x="1614" d="M 729 582 L 557 373 L 557 0 L 139 0 L 139 1518 L 557 1518 L 557 920 L 1034 1518 L 1501 1518 L 1001 913 L 1575 0 L 1094 0 L 729 582 Z M 629 -598 C 664 -581 692 -567 714 -557 C 735 -546 751 -536 763 -526 C 774 -516 781 -506 785 -496 C 789 -486 791 -473 791 -457 L 610 -457 L 610 -78 L 1004 -78 L 1004 -342 C 1004 -383 1002 -420 1000 -452 C 998 -484 993 -512 986 -538 C 978 -563 968 -586 955 -606 C 941 -626 924 -644 902 -662 C 880 -680 854 -697 823 -714 C 791 -730 754 -748 711 -766 L 629 -598 Z" unicode="" />
<glyph horiz-adv-x="1305" d="M 113 1589 L 514 1589 L 514 776 L 831 1174 L 1274 1174 L 891 698 L 1305 0 L 854 0 L 618 391 L 514 266 L 514 0 L 113 0 L 113 1589 Z M 473 -598 C 508 -581 536 -567 558 -557 C 579 -546 595 -536 607 -526 C 618 -516 625 -506 629 -496 C 633 -486 635 -473 635 -457 L 455 -457 L 455 -78 L 848 -78 L 848 -342 C 848 -383 846 -420 844 -452 C 842 -484 837 -512 830 -538 C 822 -563 812 -586 799 -606 C 785 -626 768 -644 746 -662 C 724 -680 698 -697 667 -714 C 635 -730 598 -748 555 -766 L 473 -598 Z" unicode="" />
<glyph horiz-adv-x="1305" d="" unicode="" />
<glyph horiz-adv-x="1294" d="M 139 1518 L 563 1518 L 563 367 L 1278 367 L 1278 0 L 139 0 L 139 1518 Z M 455 2001 L 940 2001 L 530 1595 L 176 1595 L 455 2001 Z" unicode="" />
<glyph horiz-adv-x="750" d="M 485 -4 C 429 -4 378 1 334 13 C 290 24 252 44 221 74 C 190 104 166 144 150 195 C 133 246 125 311 125 391 L 125 1589 L 530 1589 L 530 442 C 530 420 531 403 534 390 C 537 376 542 366 550 358 C 558 350 568 345 582 342 C 596 339 613 338 635 338 L 670 338 L 670 4 C 662 2 651 1 638 1 C 625 0 610 0 594 -1 C 578 -2 560 -3 541 -3 C 522 -3 503 -4 485 -4 Z M 416 2083 L 901 2083 L 492 1677 L 137 1677 L 416 2083 Z" unicode="" />
<glyph horiz-adv-x="1294" d="M 139 1518 L 563 1518 L 563 367 L 1278 367 L 1278 0 L 139 0 L 139 1518 Z M 469 -598 C 504 -581 532 -567 554 -557 C 575 -546 591 -536 603 -526 C 614 -516 621 -506 625 -496 C 629 -486 631 -473 631 -457 L 451 -457 L 451 -78 L 844 -78 L 844 -342 C 844 -383 842 -420 840 -452 C 838 -484 833 -512 826 -538 C 818 -563 808 -586 795 -606 C 781 -626 764 -644 742 -662 C 720 -680 694 -697 663 -714 C 631 -730 594 -748 551 -766 L 469 -598 Z" unicode="" />
<glyph horiz-adv-x="750" d="M 485 -4 C 429 -4 378 1 334 13 C 290 24 252 44 221 74 C 190 104 166 144 150 195 C 133 246 125 311 125 391 L 125 1589 L 530 1589 L 530 442 C 530 420 531 403 534 390 C 537 376 542 366 550 358 C 558 350 568 345 582 342 C 596 339 613 338 635 338 L 670 338 L 670 4 C 662 2 651 1 638 1 C 625 0 610 0 594 -1 C 578 -2 560 -3 541 -3 C 522 -3 503 -4 485 -4 Z M 197 -598 C 232 -581 260 -567 281 -557 C 302 -546 318 -536 330 -526 C 341 -516 348 -506 352 -496 C 356 -486 358 -473 358 -457 L 178 -457 L 178 -78 L 571 -78 L 571 -342 C 571 -404 568 -455 562 -497 C 556 -539 542 -575 522 -606 C 502 -636 472 -664 434 -688 C 395 -712 343 -738 279 -766 L 197 -598 Z" unicode="" />
<glyph horiz-adv-x="1294" d="M 672 1069 C 707 1085 735 1099 757 1110 C 778 1120 794 1130 806 1140 C 817 1150 824 1160 828 1170 C 832 1180 834 1194 834 1210 L 674 1210 L 674 1589 L 1047 1589 L 1047 1325 C 1047 1283 1045 1247 1043 1215 C 1041 1183 1036 1154 1029 1129 C 1021 1103 1011 1081 998 1061 C 984 1041 967 1022 945 1004 C 923 986 897 969 866 953 C 834 936 797 919 754 901 L 672 1069 Z M 139 1518 L 563 1518 L 563 367 L 1278 367 L 1278 0 L 139 0 L 139 1518 Z" unicode="" />
<glyph horiz-adv-x="1016" d="M 641 1069 C 676 1085 704 1099 726 1110 C 747 1120 763 1130 775 1140 C 786 1150 793 1160 797 1170 C 801 1180 803 1194 803 1210 L 643 1210 L 643 1589 L 1016 1589 L 1016 1325 C 1016 1283 1014 1247 1012 1215 C 1010 1183 1005 1154 998 1129 C 990 1103 980 1081 967 1061 C 953 1041 936 1022 914 1004 C 892 986 866 969 835 953 C 803 936 766 919 723 901 L 641 1069 Z M 485 -4 C 429 -4 378 1 334 13 C 290 24 252 44 221 74 C 190 104 166 144 150 195 C 133 246 125 311 125 391 L 125 1589 L 530 1589 L 530 442 C 530 420 531 403 534 390 C 537 376 542 366 550 358 C 558 350 568 345 582 342 C 596 339 613 338 635 338 L 670 338 L 670 4 C 662 2 651 1 638 1 C 625 0 610 0 594 -1 C 578 -2 560 -3 541 -3 C 522 -3 503 -4 485 -4 Z" unicode="" />
<glyph horiz-adv-x="1522" d="" unicode="" />
<glyph horiz-adv-x="1360" d="" unicode="" />
<glyph horiz-adv-x="1294" d="M 0 819 L 139 895 L 139 1518 L 563 1518 L 563 1128 L 811 1264 L 811 924 L 563 788 L 563 367 L 1278 367 L 1278 0 L 139 0 L 139 555 L 0 479 L 0 819 Z" unicode="" />
<glyph horiz-adv-x="883" d="M 51 932 L 217 1026 L 217 1589 L 623 1589 L 623 1260 L 788 1356 L 788 1016 L 623 920 L 623 442 C 623 420 624 403 627 390 C 629 376 634 366 642 358 C 650 350 660 345 674 342 C 688 339 705 338 727 338 L 762 338 L 762 4 C 754 2 743 1 730 1 C 717 0 702 0 686 -1 C 670 -2 652 -3 634 -3 C 615 -3 596 -4 578 -4 C 522 -4 471 1 427 13 C 382 24 344 44 313 74 C 282 104 258 144 242 195 C 225 246 217 311 217 391 L 217 686 L 51 592 L 51 932 Z" unicode="" />
<glyph horiz-adv-x="1731" d="M 139 1518 L 594 1518 L 1186 715 L 1186 1518 L 1591 1518 L 1591 0 L 1200 0 L 545 887 L 545 0 L 139 0 L 139 1518 Z M 905 2001 L 1391 2001 L 981 1595 L 627 1595 L 905 2001 Z" unicode="" />
<glyph horiz-adv-x="1407" d="M 113 1151 L 428 1176 L 461 1071 C 477 1088 496 1104 520 1120 C 543 1136 571 1149 605 1161 C 639 1173 678 1182 723 1189 C 768 1196 821 1200 881 1200 C 966 1200 1036 1188 1090 1165 C 1144 1141 1187 1108 1218 1065 C 1249 1022 1270 970 1282 910 C 1294 850 1300 783 1300 709 L 1300 0 L 895 0 L 895 625 C 895 652 893 677 890 701 C 887 725 880 745 869 763 C 857 780 841 794 819 804 C 797 814 767 819 729 819 C 683 819 646 814 618 805 C 590 795 569 782 554 764 C 539 746 529 725 525 701 C 520 676 518 648 518 618 L 518 0 L 113 0 L 113 1151 Z M 743 1686 L 1229 1686 L 819 1280 L 465 1280 L 743 1686 Z" unicode="" />
<glyph horiz-adv-x="1731" d="M 139 1518 L 594 1518 L 1186 715 L 1186 1518 L 1591 1518 L 1591 0 L 1200 0 L 545 887 L 545 0 L 139 0 L 139 1518 Z M 686 -598 C 721 -581 749 -567 771 -557 C 792 -546 808 -536 820 -526 C 831 -516 838 -506 842 -496 C 846 -486 848 -473 848 -457 L 668 -457 L 668 -78 L 1061 -78 L 1061 -342 C 1061 -383 1059 -420 1057 -452 C 1055 -484 1050 -512 1043 -538 C 1035 -563 1025 -586 1012 -606 C 998 -626 981 -644 959 -662 C 937 -680 911 -697 880 -714 C 848 -730 811 -748 768 -766 L 686 -598 Z" unicode="" />
<glyph horiz-adv-x="1407" d="M 113 1151 L 428 1176 L 461 1071 C 477 1088 496 1104 520 1120 C 543 1136 571 1149 605 1161 C 639 1173 678 1182 723 1189 C 768 1196 821 1200 881 1200 C 966 1200 1036 1188 1090 1165 C 1144 1141 1187 1108 1218 1065 C 1249 1022 1270 970 1282 910 C 1294 850 1300 783 1300 709 L 1300 0 L 895 0 L 895 625 C 895 652 893 677 890 701 C 887 725 880 745 869 763 C 857 780 841 794 819 804 C 797 814 767 819 729 819 C 683 819 646 814 618 805 C 590 795 569 782 554 764 C 539 746 529 725 525 701 C 520 676 518 648 518 618 L 518 0 L 113 0 L 113 1151 Z M 524 -598 C 559 -581 587 -567 609 -557 C 630 -546 646 -536 658 -526 C 669 -516 676 -506 680 -496 C 684 -486 686 -473 686 -457 L 506 -457 L 506 -78 L 899 -78 L 899 -342 C 899 -383 897 -420 895 -452 C 893 -484 888 -512 881 -538 C 873 -563 863 -586 850 -606 C 836 -626 819 -644 797 -662 C 775 -680 749 -697 718 -714 C 686 -730 649 -748 606 -766 L 524 -598 Z" unicode="" />
<glyph horiz-adv-x="1731" d="M 139 1518 L 594 1518 L 1186 715 L 1186 1518 L 1591 1518 L 1591 0 L 1200 0 L 545 887 L 545 0 L 139 0 L 139 1518 Z M 338 2001 L 713 2001 L 868 1847 L 1024 2001 L 1391 2001 L 1071 1595 L 657 1595 L 338 2001 Z" unicode="" />
<glyph horiz-adv-x="1407" d="M 113 1151 L 428 1176 L 461 1071 C 477 1088 496 1104 520 1120 C 543 1136 571 1149 605 1161 C 639 1173 678 1182 723 1189 C 768 1196 821 1200 881 1200 C 966 1200 1036 1188 1090 1165 C 1144 1141 1187 1108 1218 1065 C 1249 1022 1270 970 1282 910 C 1294 850 1300 783 1300 709 L 1300 0 L 895 0 L 895 625 C 895 652 893 677 890 701 C 887 725 880 745 869 763 C 857 780 841 794 819 804 C 797 814 767 819 729 819 C 683 819 646 814 618 805 C 590 795 569 782 554 764 C 539 746 529 725 525 701 C 520 676 518 648 518 618 L 518 0 L 113 0 L 113 1151 Z M 176 1686 L 551 1686 L 707 1532 L 862 1686 L 1229 1686 L 909 1280 L 496 1280 L 176 1686 Z" unicode="" />
<glyph horiz-adv-x="1950" d="" unicode="" />
<glyph horiz-adv-x="1731" d="" unicode="" />
<glyph horiz-adv-x="1407" d="" unicode="" />
<glyph horiz-adv-x="1767" d="M 883 -25 C 762 -25 651 -11 551 15 C 450 41 363 85 290 147 C 217 209 160 290 120 390 C 79 490 59 613 59 760 C 59 906 79 1028 120 1128 C 160 1228 217 1308 290 1370 C 363 1431 450 1475 551 1502 C 651 1528 762 1542 883 1542 C 1003 1542 1113 1528 1214 1502 C 1315 1475 1402 1431 1475 1370 C 1548 1308 1605 1228 1646 1128 C 1687 1028 1708 906 1708 760 C 1708 613 1687 490 1646 390 C 1605 290 1548 209 1475 147 C 1402 85 1315 41 1214 15 C 1113 -11 1003 -25 883 -25 Z M 883 348 C 961 348 1026 358 1077 378 C 1128 398 1168 425 1198 461 C 1228 497 1248 539 1260 589 C 1272 638 1278 692 1278 752 C 1278 810 1272 864 1260 913 C 1248 962 1228 1004 1198 1040 C 1168 1076 1128 1103 1077 1123 C 1026 1143 961 1153 883 1153 C 803 1153 738 1143 687 1123 C 636 1103 596 1076 566 1040 C 536 1004 516 962 504 913 C 492 864 487 810 487 752 C 487 692 492 638 504 589 C 516 539 536 497 566 461 C 596 425 636 398 687 378 C 738 358 803 348 883 348 Z M 422 1917 L 1343 1917 L 1343 1595 L 422 1595 L 422 1917 Z" unicode="" />
<glyph horiz-adv-x="1386" d="M 694 -23 C 579 -23 481 -9 401 18 C 320 45 254 85 203 137 C 152 189 115 254 92 330 C 68 406 57 492 57 590 C 57 687 68 773 92 849 C 115 925 152 989 203 1041 C 254 1093 320 1132 401 1159 C 481 1186 579 1200 694 1200 C 808 1200 906 1186 987 1159 C 1067 1132 1133 1093 1184 1041 C 1234 989 1271 925 1294 849 C 1317 773 1329 687 1329 590 C 1329 492 1317 406 1294 330 C 1271 254 1234 189 1184 137 C 1133 85 1067 45 987 18 C 906 -9 808 -23 694 -23 Z M 694 324 C 742 324 780 330 810 343 C 840 355 863 373 879 396 C 895 418 907 445 913 476 C 919 507 922 541 922 578 C 922 614 919 648 913 679 C 907 710 895 737 879 759 C 863 781 840 799 810 812 C 780 824 742 831 694 831 C 646 831 608 824 578 812 C 548 799 525 781 509 759 C 492 737 481 710 475 679 C 469 648 467 614 467 578 C 467 541 469 507 475 476 C 481 445 492 418 509 396 C 525 373 548 355 578 343 C 608 330 646 324 694 324 Z M 231 1602 L 1153 1602 L 1153 1280 L 231 1280 L 231 1602 Z" unicode="" />
<glyph horiz-adv-x="1767" d="" unicode="" />
<glyph horiz-adv-x="1386" d="" unicode="" />
<glyph horiz-adv-x="1767" d="M 883 -25 C 762 -25 651 -11 551 15 C 450 41 363 85 290 147 C 217 209 160 290 120 390 C 79 490 59 613 59 760 C 59 906 79 1028 120 1128 C 160 1228 217 1308 290 1370 C 363 1431 450 1475 551 1502 C 651 1528 762 1542 883 1542 C 1003 1542 1113 1528 1214 1502 C 1315 1475 1402 1431 1475 1370 C 1548 1308 1605 1228 1646 1128 C 1687 1028 1708 906 1708 760 C 1708 613 1687 490 1646 390 C 1605 290 1548 209 1475 147 C 1402 85 1315 41 1214 15 C 1113 -11 1003 -25 883 -25 Z M 883 348 C 961 348 1026 358 1077 378 C 1128 398 1168 425 1198 461 C 1228 497 1248 539 1260 589 C 1272 638 1278 692 1278 752 C 1278 810 1272 864 1260 913 C 1248 962 1228 1004 1198 1040 C 1168 1076 1128 1103 1077 1123 C 1026 1143 961 1153 883 1153 C 803 1153 738 1143 687 1123 C 636 1103 596 1076 566 1040 C 536 1004 516 962 504 913 C 492 864 487 810 487 752 C 487 692 492 638 504 589 C 516 539 536 497 566 461 C 596 425 636 398 687 378 C 738 358 803 348 883 348 Z M 592 2001 L 1057 2001 L 668 1595 L 334 1595 L 592 2001 Z M 1190 2001 L 1655 2001 L 1266 1595 L 932 1595 L 1190 2001 Z" unicode="" />
<glyph horiz-adv-x="1386" d="M 694 -23 C 579 -23 481 -9 401 18 C 320 45 254 85 203 137 C 152 189 115 254 92 330 C 68 406 57 492 57 590 C 57 687 68 773 92 849 C 115 925 152 989 203 1041 C 254 1093 320 1132 401 1159 C 481 1186 579 1200 694 1200 C 808 1200 906 1186 987 1159 C 1067 1132 1133 1093 1184 1041 C 1234 989 1271 925 1294 849 C 1317 773 1329 687 1329 590 C 1329 492 1317 406 1294 330 C 1271 254 1234 189 1184 137 C 1133 85 1067 45 987 18 C 906 -9 808 -23 694 -23 Z M 694 324 C 742 324 780 330 810 343 C 840 355 863 373 879 396 C 895 418 907 445 913 476 C 919 507 922 541 922 578 C 922 614 919 648 913 679 C 907 710 895 737 879 759 C 863 781 840 799 810 812 C 780 824 742 831 694 831 C 646 831 608 824 578 812 C 548 799 525 781 509 759 C 492 737 481 710 475 679 C 469 648 467 614 467 578 C 467 541 469 507 475 476 C 481 445 492 418 509 396 C 525 373 548 355 578 343 C 608 330 646 324 694 324 Z M 401 1686 L 866 1686 L 477 1280 L 143 1280 L 401 1686 Z M 999 1686 L 1464 1686 L 1075 1280 L 741 1280 L 999 1686 Z" unicode="" />
<glyph horiz-adv-x="2587" d="M 1309 76 C 1253 42 1189 16 1119 0 C 1048 -16 969 -25 883 -25 C 762 -25 651 -11 551 15 C 450 41 363 85 290 147 C 217 209 160 290 120 390 C 79 490 59 613 59 760 C 59 906 79 1028 120 1128 C 160 1228 217 1308 290 1370 C 363 1431 450 1475 551 1502 C 651 1528 762 1542 883 1542 C 1056 1542 1198 1508 1309 1442 L 1309 1518 L 2476 1518 L 2476 1135 L 1692 1135 L 1692 950 L 2456 950 L 2456 580 L 1692 580 L 1692 367 L 2484 367 L 2484 0 L 1309 0 L 1309 76 Z M 883 348 C 961 348 1026 358 1077 378 C 1128 398 1168 425 1198 461 C 1228 497 1248 539 1260 589 C 1272 638 1278 692 1278 752 C 1278 810 1272 864 1260 913 C 1248 962 1228 1004 1198 1040 C 1168 1076 1128 1103 1077 1123 C 1026 1143 961 1153 883 1153 C 803 1153 738 1143 687 1123 C 636 1103 596 1076 566 1040 C 536 1004 516 962 504 913 C 492 864 487 810 487 752 C 487 692 492 638 504 589 C 516 539 536 497 566 461 C 596 425 636 398 687 378 C 738 358 803 348 883 348 Z" unicode="" />
<glyph horiz-adv-x="2163" d="M 1561 -23 C 1453 -23 1364 -12 1293 7 C 1221 27 1164 56 1120 94 C 1074 56 1017 27 948 7 C 878 -13 794 -23 694 -23 C 574 -23 473 -9 391 18 C 309 45 244 85 195 137 C 145 189 110 254 89 330 C 67 406 57 492 57 590 C 57 687 67 773 89 849 C 110 925 145 989 195 1041 C 244 1093 309 1132 391 1159 C 473 1186 574 1200 694 1200 C 795 1200 880 1189 950 1169 C 1019 1148 1076 1119 1122 1081 C 1166 1117 1223 1145 1294 1167 C 1365 1189 1454 1200 1561 1200 C 1647 1200 1721 1191 1783 1173 C 1844 1155 1895 1129 1936 1097 C 1977 1065 2009 1026 2033 980 C 2056 934 2073 884 2085 828 C 2096 772 2102 713 2104 649 C 2106 585 2105 518 2103 449 L 1319 449 C 1323 425 1331 403 1342 385 C 1353 367 1368 351 1387 339 C 1406 327 1430 318 1458 312 C 1486 306 1521 303 1561 303 C 1604 303 1643 305 1679 310 C 1715 315 1747 322 1776 331 C 1805 340 1832 351 1856 364 C 1880 376 1902 390 1923 406 L 2126 145 C 2084 113 2043 86 2003 65 C 1962 43 1919 26 1875 13 C 1831 0 1783 -8 1732 -14 C 1680 -20 1623 -23 1561 -23 Z M 694 324 C 742 324 780 330 810 343 C 840 355 863 373 879 396 C 895 418 907 445 913 476 C 919 507 922 541 922 578 C 922 614 919 648 913 679 C 907 710 895 737 879 759 C 863 781 840 799 810 812 C 780 824 742 831 694 831 C 646 831 608 824 578 812 C 548 799 525 781 509 759 C 492 737 481 710 475 679 C 469 648 467 614 467 578 C 467 541 469 507 475 476 C 481 445 492 418 509 396 C 525 373 548 355 578 343 C 608 330 646 324 694 324 Z M 1548 864 C 1506 864 1472 860 1444 852 C 1416 844 1394 833 1376 818 C 1358 803 1344 785 1335 763 C 1325 741 1319 716 1315 688 L 1735 688 C 1733 712 1731 734 1727 756 C 1723 777 1714 796 1702 812 C 1689 828 1671 840 1647 850 C 1623 859 1590 864 1548 864 Z" unicode="" />
<glyph horiz-adv-x="1636" d="M 827 455 L 553 455 L 553 0 L 139 0 L 139 1518 L 909 1518 C 999 1518 1078 1511 1144 1499 C 1210 1486 1267 1468 1315 1445 C 1362 1422 1400 1395 1430 1363 C 1460 1331 1483 1295 1500 1257 C 1516 1218 1528 1176 1534 1132 C 1540 1088 1544 1042 1544 995 C 1544 947 1540 900 1533 853 C 1525 805 1511 760 1490 718 C 1468 675 1438 636 1400 600 C 1362 564 1312 534 1251 510 L 1528 0 L 1073 0 L 827 455 Z M 895 807 C 935 807 970 809 998 814 C 1026 819 1049 828 1067 841 C 1084 853 1096 871 1104 893 C 1112 915 1116 944 1116 979 C 1116 1015 1112 1044 1105 1068 C 1097 1091 1085 1109 1068 1122 C 1050 1135 1027 1144 999 1149 C 971 1154 935 1157 893 1157 L 553 1157 L 553 807 L 895 807 Z M 858 2001 L 1343 2001 L 934 1595 L 580 1595 L 858 2001 Z" unicode="" />
<glyph horiz-adv-x="874" d="M 113 1151 L 428 1176 L 469 1053 C 481 1070 499 1086 523 1102 C 546 1118 573 1132 605 1144 C 637 1156 671 1166 709 1174 C 747 1182 787 1186 829 1188 L 829 797 C 761 796 707 790 666 780 C 625 770 594 755 572 735 C 550 715 535 690 528 660 C 521 630 518 595 518 555 L 518 0 L 113 0 L 113 1151 Z M 471 1686 L 956 1686 L 547 1280 L 193 1280 L 471 1686 Z" unicode="" />
<glyph horiz-adv-x="1636" d="M 827 455 L 553 455 L 553 0 L 139 0 L 139 1518 L 909 1518 C 999 1518 1078 1511 1144 1499 C 1210 1486 1267 1468 1315 1445 C 1362 1422 1400 1395 1430 1363 C 1460 1331 1483 1295 1500 1257 C 1516 1218 1528 1176 1534 1132 C 1540 1088 1544 1042 1544 995 C 1544 947 1540 900 1533 853 C 1525 805 1511 760 1490 718 C 1468 675 1438 636 1400 600 C 1362 564 1312 534 1251 510 L 1528 0 L 1073 0 L 827 455 Z M 895 807 C 935 807 970 809 998 814 C 1026 819 1049 828 1067 841 C 1084 853 1096 871 1104 893 C 1112 915 1116 944 1116 979 C 1116 1015 1112 1044 1105 1068 C 1097 1091 1085 1109 1068 1122 C 1050 1135 1027 1144 999 1149 C 971 1154 935 1157 893 1157 L 553 1157 L 553 807 L 895 807 Z M 639 -598 C 674 -581 702 -567 724 -557 C 745 -546 761 -536 773 -526 C 784 -516 791 -506 795 -496 C 799 -486 801 -473 801 -457 L 621 -457 L 621 -78 L 1014 -78 L 1014 -342 C 1014 -383 1012 -420 1010 -452 C 1008 -484 1003 -512 996 -538 C 988 -563 978 -586 965 -606 C 951 -626 934 -644 912 -662 C 890 -680 864 -697 833 -714 C 801 -730 764 -748 721 -766 L 639 -598 Z" unicode="" />
<glyph horiz-adv-x="874" d="M 113 1151 L 428 1176 L 469 1053 C 481 1070 499 1086 523 1102 C 546 1118 573 1132 605 1144 C 637 1156 671 1166 709 1174 C 747 1182 787 1186 829 1188 L 829 797 C 761 796 707 790 666 780 C 625 770 594 755 572 735 C 550 715 535 690 528 660 C 521 630 518 595 518 555 L 518 0 L 113 0 L 113 1151 Z M 135 -598 C 170 -581 198 -567 220 -557 C 241 -546 257 -536 269 -526 C 280 -516 287 -506 291 -496 C 295 -486 297 -473 297 -457 L 117 -457 L 117 -78 L 510 -78 L 510 -342 C 510 -383 508 -420 506 -452 C 504 -484 499 -512 492 -538 C 484 -563 474 -586 461 -606 C 447 -626 430 -644 408 -662 C 386 -680 360 -697 329 -714 C 297 -730 260 -748 217 -766 L 135 -598 Z" unicode="" />
<glyph horiz-adv-x="1636" d="M 827 455 L 553 455 L 553 0 L 139 0 L 139 1518 L 909 1518 C 999 1518 1078 1511 1144 1499 C 1210 1486 1267 1468 1315 1445 C 1362 1422 1400 1395 1430 1363 C 1460 1331 1483 1295 1500 1257 C 1516 1218 1528 1176 1534 1132 C 1540 1088 1544 1042 1544 995 C 1544 947 1540 900 1533 853 C 1525 805 1511 760 1490 718 C 1468 675 1438 636 1400 600 C 1362 564 1312 534 1251 510 L 1528 0 L 1073 0 L 827 455 Z M 895 807 C 935 807 970 809 998 814 C 1026 819 1049 828 1067 841 C 1084 853 1096 871 1104 893 C 1112 915 1116 944 1116 979 C 1116 1015 1112 1044 1105 1068 C 1097 1091 1085 1109 1068 1122 C 1050 1135 1027 1144 999 1149 C 971 1154 935 1157 893 1157 L 553 1157 L 553 807 L 895 807 Z M 291 2001 L 666 2001 L 821 1847 L 977 2001 L 1343 2001 L 1024 1595 L 610 1595 L 291 2001 Z" unicode="" />
<glyph horiz-adv-x="862" d="M 113 1151 L 428 1176 L 469 1053 C 481 1070 499 1086 523 1102 C 546 1118 573 1132 605 1144 C 637 1156 671 1166 709 1174 C 747 1182 787 1186 829 1188 L 829 797 C 761 796 707 790 666 780 C 625 770 594 755 572 735 C 550 715 535 690 528 660 C 521 630 518 595 518 555 L 518 0 L 113 0 L 113 1151 Z M -51 1686 L 324 1686 L 479 1532 L 635 1686 L 1001 1686 L 682 1280 L 268 1280 L -51 1686 Z" unicode="" />
<glyph horiz-adv-x="1559" d="M 786 -23 C 702 -23 622 -18 546 -8 C 470 2 400 16 335 35 C 269 53 210 75 156 101 C 102 127 54 156 14 188 L 227 494 C 303 441 388 400 481 371 C 574 342 672 328 774 328 C 846 328 902 330 943 335 C 983 340 1013 348 1033 359 C 1052 369 1064 382 1068 398 C 1072 413 1075 431 1075 453 C 1075 471 1068 487 1056 499 C 1043 511 1024 522 998 531 C 972 539 939 547 900 553 C 860 559 814 566 760 573 C 648 587 552 604 471 624 C 389 644 322 671 269 707 C 215 743 176 789 150 845 C 124 901 111 971 111 1057 C 111 1147 124 1223 151 1285 C 178 1347 219 1397 275 1435 C 330 1473 400 1500 484 1517 C 568 1533 668 1542 784 1542 C 870 1542 948 1537 1017 1528 C 1085 1518 1146 1506 1200 1491 C 1254 1476 1301 1459 1341 1441 C 1381 1423 1415 1404 1444 1386 L 1214 1057 C 1192 1071 1164 1086 1131 1100 C 1098 1114 1062 1126 1023 1137 C 984 1148 944 1157 902 1164 C 860 1170 819 1174 780 1174 C 724 1174 680 1171 648 1167 C 615 1163 590 1156 573 1148 C 555 1139 544 1128 539 1115 C 534 1101 532 1085 532 1067 C 532 1045 538 1028 552 1015 C 566 1001 587 990 615 982 C 643 973 678 966 720 960 C 762 954 811 947 868 940 C 931 932 990 923 1046 913 C 1101 903 1152 890 1199 875 C 1245 859 1287 841 1324 819 C 1360 797 1391 771 1417 739 C 1442 707 1461 669 1475 625 C 1488 581 1495 531 1495 473 C 1495 395 1484 326 1462 265 C 1440 203 1402 151 1348 109 C 1294 66 1221 33 1130 11 C 1038 -11 924 -23 786 -23 Z M 819 2001 L 1305 2001 L 895 1595 L 541 1595 L 819 2001 Z" unicode="" />
<glyph horiz-adv-x="1227" d="M 596 -18 C 482 -18 374 -5 272 20 C 169 46 78 85 0 139 L 199 418 C 227 399 258 382 293 367 C 327 351 363 338 400 327 C 437 316 474 308 512 302 C 550 296 586 293 621 293 C 655 293 683 293 705 295 C 726 297 742 300 754 304 C 766 308 774 314 778 321 C 782 328 784 337 784 348 C 784 356 781 364 777 370 C 773 376 765 382 754 387 C 742 391 726 395 706 399 C 685 403 659 406 627 410 C 577 414 528 419 482 425 C 436 431 392 439 352 450 C 312 461 275 476 241 494 C 207 512 179 535 155 563 C 131 591 113 626 100 666 C 86 706 80 755 80 811 C 80 875 90 932 110 980 C 130 1028 161 1069 205 1102 C 249 1134 305 1159 375 1175 C 444 1191 528 1200 627 1200 C 675 1200 724 1197 773 1193 C 821 1189 868 1182 914 1173 C 959 1164 1002 1153 1043 1139 C 1084 1125 1121 1108 1155 1090 L 973 791 C 952 801 928 810 901 819 C 874 828 846 836 817 842 C 787 848 757 854 727 858 C 697 862 668 864 641 864 C 606 864 578 862 558 860 C 537 858 521 854 511 850 C 500 846 493 840 490 833 C 486 826 485 818 485 809 C 485 801 486 793 490 787 C 493 781 500 775 510 771 C 520 767 535 763 554 759 C 573 755 598 752 629 750 C 679 744 728 739 775 733 C 822 727 866 718 907 708 C 948 698 985 684 1019 668 C 1052 652 1081 631 1105 605 C 1129 579 1147 547 1160 510 C 1173 473 1180 429 1180 377 C 1180 309 1170 250 1151 200 C 1131 150 1099 109 1054 77 C 1008 45 948 21 874 5 C 799 -10 706 -18 596 -18 Z M 653 1686 L 1139 1686 L 729 1280 L 375 1280 L 653 1686 Z" unicode="" />
<glyph horiz-adv-x="1559" d="" unicode="" />
<glyph horiz-adv-x="1227" d="" unicode="" />
<glyph horiz-adv-x="1559" d="M 770 -537 C 710 -537 656 -530 608 -517 C 560 -503 517 -485 477 -463 L 573 -281 C 606 -297 639 -309 671 -318 C 703 -327 730 -332 754 -332 C 792 -332 821 -327 839 -318 C 857 -308 866 -289 866 -260 C 866 -242 860 -228 850 -219 C 840 -209 826 -203 810 -199 C 794 -195 775 -194 754 -195 C 733 -195 712 -197 692 -199 L 623 -158 L 653 -18 C 514 -8 391 14 283 50 C 175 86 85 132 14 188 L 227 494 C 303 441 388 400 481 371 C 574 342 672 328 774 328 C 846 328 902 330 943 335 C 983 340 1013 348 1033 359 C 1052 369 1064 382 1068 398 C 1072 413 1075 431 1075 453 C 1075 471 1068 487 1056 499 C 1043 511 1024 522 998 531 C 972 539 939 547 900 553 C 860 559 814 566 760 573 C 648 587 552 604 471 624 C 389 644 322 671 269 707 C 215 743 176 789 150 845 C 124 901 111 971 111 1057 C 111 1147 124 1223 151 1285 C 178 1347 219 1397 275 1435 C 330 1473 400 1500 484 1517 C 568 1533 668 1542 784 1542 C 870 1542 948 1537 1017 1528 C 1085 1518 1146 1506 1200 1491 C 1254 1476 1301 1459 1341 1441 C 1381 1423 1415 1404 1444 1386 L 1214 1057 C 1192 1071 1164 1086 1131 1100 C 1098 1114 1062 1126 1023 1137 C 984 1148 944 1157 902 1164 C 860 1170 819 1174 780 1174 C 724 1174 680 1171 648 1167 C 615 1163 590 1156 573 1148 C 555 1139 544 1128 539 1115 C 534 1101 532 1085 532 1067 C 532 1045 538 1028 552 1015 C 566 1001 587 990 615 982 C 643 973 678 966 720 960 C 762 954 811 947 868 940 C 931 932 990 923 1046 913 C 1101 903 1152 890 1199 875 C 1245 859 1287 841 1324 819 C 1360 797 1391 771 1417 739 C 1442 707 1461 669 1475 625 C 1488 581 1495 531 1495 473 C 1495 399 1485 333 1465 275 C 1445 216 1412 165 1365 123 C 1317 81 1254 47 1174 23 C 1094 0 994 -15 874 -20 L 862 -84 C 894 -83 927 -84 959 -86 C 991 -88 1019 -96 1044 -110 C 1069 -124 1089 -144 1105 -172 C 1120 -200 1128 -239 1128 -289 C 1128 -341 1118 -383 1099 -415 C 1080 -447 1054 -473 1022 -491 C 989 -509 951 -521 908 -527 C 864 -533 818 -537 770 -537 Z" unicode="" />
<glyph horiz-adv-x="1227" d="M 604 -537 C 544 -537 490 -530 442 -517 C 394 -503 351 -485 311 -463 L 408 -281 C 440 -297 473 -309 505 -318 C 537 -327 564 -332 588 -332 C 626 -332 655 -327 673 -318 C 691 -308 700 -289 700 -260 C 700 -242 694 -228 684 -219 C 674 -209 660 -203 644 -199 C 628 -195 609 -194 588 -195 C 567 -195 546 -197 526 -199 L 457 -158 L 489 -14 C 395 -6 307 9 224 34 C 140 58 66 93 0 139 L 199 418 C 227 399 258 382 293 367 C 327 351 363 338 400 327 C 437 316 474 308 512 302 C 550 296 586 293 621 293 C 655 293 683 293 705 295 C 726 297 742 300 754 304 C 766 308 774 314 778 321 C 782 328 784 337 784 348 C 784 356 781 364 777 370 C 773 376 765 382 754 387 C 742 391 726 395 706 399 C 685 403 659 406 627 410 C 577 414 528 419 482 425 C 436 431 392 439 352 450 C 312 461 275 476 241 494 C 207 512 179 535 155 563 C 131 591 113 626 100 666 C 86 706 80 755 80 811 C 80 875 90 932 110 980 C 130 1028 161 1069 205 1102 C 249 1134 305 1159 375 1175 C 444 1191 528 1200 627 1200 C 675 1200 724 1197 773 1193 C 821 1189 868 1182 914 1173 C 959 1164 1002 1153 1043 1139 C 1084 1125 1121 1108 1155 1090 L 973 791 C 952 801 928 810 901 819 C 874 828 846 836 817 842 C 787 848 757 854 727 858 C 697 862 668 864 641 864 C 606 864 578 862 558 860 C 537 858 521 854 511 850 C 500 846 493 840 490 833 C 486 826 485 818 485 809 C 485 801 486 793 490 787 C 493 781 500 775 510 771 C 520 767 535 763 554 759 C 573 755 598 752 629 750 C 679 744 728 739 775 733 C 822 727 866 718 907 708 C 948 698 985 684 1019 668 C 1052 652 1081 631 1105 605 C 1129 579 1147 547 1160 510 C 1173 473 1180 429 1180 377 C 1180 315 1172 260 1156 214 C 1140 167 1113 127 1077 95 C 1040 63 992 38 932 20 C 872 2 797 -9 709 -14 L 696 -84 C 728 -83 761 -84 793 -86 C 825 -88 853 -96 878 -110 C 903 -124 923 -144 939 -172 C 955 -200 963 -239 963 -289 C 963 -341 953 -383 934 -415 C 915 -447 889 -473 857 -491 C 824 -509 786 -521 742 -527 C 698 -533 652 -537 604 -537 Z" unicode="" />
<glyph horiz-adv-x="1559" d="M 786 -23 C 702 -23 622 -18 546 -8 C 470 2 400 16 335 35 C 269 53 210 75 156 101 C 102 127 54 156 14 188 L 227 494 C 303 441 388 400 481 371 C 574 342 672 328 774 328 C 846 328 902 330 943 335 C 983 340 1013 348 1033 359 C 1052 369 1064 382 1068 398 C 1072 413 1075 431 1075 453 C 1075 471 1068 487 1056 499 C 1043 511 1024 522 998 531 C 972 539 939 547 900 553 C 860 559 814 566 760 573 C 648 587 552 604 471 624 C 389 644 322 671 269 707 C 215 743 176 789 150 845 C 124 901 111 971 111 1057 C 111 1147 124 1223 151 1285 C 178 1347 219 1397 275 1435 C 330 1473 400 1500 484 1517 C 568 1533 668 1542 784 1542 C 870 1542 948 1537 1017 1528 C 1085 1518 1146 1506 1200 1491 C 1254 1476 1301 1459 1341 1441 C 1381 1423 1415 1404 1444 1386 L 1214 1057 C 1192 1071 1164 1086 1131 1100 C 1098 1114 1062 1126 1023 1137 C 984 1148 944 1157 902 1164 C 860 1170 819 1174 780 1174 C 724 1174 680 1171 648 1167 C 615 1163 590 1156 573 1148 C 555 1139 544 1128 539 1115 C 534 1101 532 1085 532 1067 C 532 1045 538 1028 552 1015 C 566 1001 587 990 615 982 C 643 973 678 966 720 960 C 762 954 811 947 868 940 C 931 932 990 923 1046 913 C 1101 903 1152 890 1199 875 C 1245 859 1287 841 1324 819 C 1360 797 1391 771 1417 739 C 1442 707 1461 669 1475 625 C 1488 581 1495 531 1495 473 C 1495 395 1484 326 1462 265 C 1440 203 1402 151 1348 109 C 1294 66 1221 33 1130 11 C 1038 -11 924 -23 786 -23 Z M 252 2001 L 627 2001 L 782 1847 L 938 2001 L 1305 2001 L 985 1595 L 571 1595 L 252 2001 Z" unicode="" />
<glyph horiz-adv-x="1227" d="M 596 -18 C 482 -18 374 -5 272 20 C 169 46 78 85 0 139 L 199 418 C 227 399 258 382 293 367 C 327 351 363 338 400 327 C 437 316 474 308 512 302 C 550 296 586 293 621 293 C 655 293 683 293 705 295 C 726 297 742 300 754 304 C 766 308 774 314 778 321 C 782 328 784 337 784 348 C 784 356 781 364 777 370 C 773 376 765 382 754 387 C 742 391 726 395 706 399 C 685 403 659 406 627 410 C 577 414 528 419 482 425 C 436 431 392 439 352 450 C 312 461 275 476 241 494 C 207 512 179 535 155 563 C 131 591 113 626 100 666 C 86 706 80 755 80 811 C 80 875 90 932 110 980 C 130 1028 161 1069 205 1102 C 249 1134 305 1159 375 1175 C 444 1191 528 1200 627 1200 C 675 1200 724 1197 773 1193 C 821 1189 868 1182 914 1173 C 959 1164 1002 1153 1043 1139 C 1084 1125 1121 1108 1155 1090 L 973 791 C 952 801 928 810 901 819 C 874 828 846 836 817 842 C 787 848 757 854 727 858 C 697 862 668 864 641 864 C 606 864 578 862 558 860 C 537 858 521 854 511 850 C 500 846 493 840 490 833 C 486 826 485 818 485 809 C 485 801 486 793 490 787 C 493 781 500 775 510 771 C 520 767 535 763 554 759 C 573 755 598 752 629 750 C 679 744 728 739 775 733 C 822 727 866 718 907 708 C 948 698 985 684 1019 668 C 1052 652 1081 631 1105 605 C 1129 579 1147 547 1160 510 C 1173 473 1180 429 1180 377 C 1180 309 1170 250 1151 200 C 1131 150 1099 109 1054 77 C 1008 45 948 21 874 5 C 799 -10 706 -18 596 -18 Z M 86 1686 L 461 1686 L 616 1532 L 772 1686 L 1139 1686 L 819 1280 L 406 1280 L 86 1686 Z" unicode="" />
<glyph horiz-adv-x="1464" d="M 520 1135 L 16 1135 L 16 1518 L 1450 1518 L 1450 1135 L 946 1135 L 946 0 L 520 0 L 520 1135 Z M 553 -598 C 588 -581 616 -567 638 -557 C 659 -546 675 -536 687 -526 C 698 -516 705 -506 709 -496 C 713 -486 715 -473 715 -457 L 535 -457 L 535 -78 L 928 -78 L 928 -342 C 928 -383 926 -420 924 -452 C 922 -484 917 -512 910 -538 C 902 -563 892 -586 879 -606 C 865 -626 848 -644 826 -662 C 804 -680 778 -697 747 -714 C 715 -730 678 -748 635 -766 L 553 -598 Z" unicode="" />
<glyph horiz-adv-x="977" d="M 45 1174 L 254 1174 L 319 1425 L 633 1493 L 633 1174 L 889 1174 L 889 829 L 633 829 L 633 459 C 633 439 634 421 637 406 C 639 391 645 378 655 368 C 664 358 678 350 696 345 C 714 340 740 338 772 338 L 889 338 L 889 0 C 827 -4 758 -6 684 -6 C 598 -6 526 1 468 15 C 410 29 363 53 328 85 C 292 117 267 158 252 209 C 236 260 229 323 229 397 L 229 829 L 45 829 L 45 1174 Z M 264 -598 C 299 -581 327 -567 349 -557 C 370 -546 386 -536 398 -526 C 409 -516 416 -506 420 -496 C 424 -486 426 -473 426 -457 L 246 -457 L 246 -78 L 639 -78 L 639 -342 C 639 -383 637 -420 635 -452 C 633 -484 628 -512 621 -538 C 613 -563 603 -586 590 -606 C 576 -626 559 -644 537 -662 C 515 -680 489 -697 458 -714 C 426 -730 389 -748 346 -766 L 264 -598 Z" unicode="" />
<glyph horiz-adv-x="1464" d="M 520 1135 L 16 1135 L 16 1518 L 1450 1518 L 1450 1135 L 946 1135 L 946 0 L 520 0 L 520 1135 Z M 205 2001 L 580 2001 L 735 1847 L 891 2001 L 1257 2001 L 938 1595 L 524 1595 L 205 2001 Z" unicode="" />
<glyph horiz-adv-x="977" d="M 713 1438 C 746 1454 773 1467 793 1477 C 813 1487 828 1496 839 1505 C 850 1514 857 1524 861 1534 C 864 1544 866 1557 866 1573 L 715 1573 L 715 1933 L 1067 1933 L 1067 1681 C 1067 1622 1064 1573 1058 1533 C 1052 1493 1040 1459 1021 1430 C 1001 1401 973 1375 937 1352 C 901 1328 852 1304 791 1278 L 713 1438 Z M 45 1174 L 254 1174 L 319 1425 L 633 1493 L 633 1174 L 889 1174 L 889 829 L 633 829 L 633 459 C 633 439 634 421 637 406 C 639 391 645 378 655 368 C 664 358 678 350 696 345 C 714 340 740 338 772 338 L 889 338 L 889 0 C 827 -4 758 -6 684 -6 C 598 -6 526 1 468 15 C 410 29 363 53 328 85 C 292 117 267 158 252 209 C 236 260 229 323 229 397 L 229 829 L 45 829 L 45 1174 Z" unicode="" />
<glyph horiz-adv-x="1464" d="" unicode="" />
<glyph horiz-adv-x="977" d="" unicode="" />
<glyph horiz-adv-x="1710" d="" unicode="" />
<glyph horiz-adv-x="1389" d="" unicode="" />
<glyph horiz-adv-x="1710" d="M 856 -31 C 740 -31 642 -22 561 -4 C 480 13 413 37 359 68 C 305 98 262 134 232 175 C 201 216 178 260 162 306 C 146 352 137 400 133 450 C 129 500 127 548 127 596 L 127 1518 L 553 1518 L 553 653 C 553 601 556 555 563 517 C 570 478 585 446 607 420 C 629 394 660 375 700 363 C 740 350 794 344 862 344 C 928 344 981 350 1021 362 C 1061 374 1093 392 1115 417 C 1137 442 1152 474 1160 513 C 1167 552 1171 599 1171 653 L 1171 1518 L 1583 1518 L 1583 596 C 1583 548 1581 500 1577 450 C 1573 400 1563 352 1548 306 C 1532 260 1509 216 1479 175 C 1448 134 1406 98 1352 68 C 1298 37 1230 13 1150 -4 C 1069 -22 971 -31 856 -31 Z M 393 1917 L 1315 1917 L 1315 1595 L 393 1595 L 393 1917 Z" unicode="" />
<glyph horiz-adv-x="1389" d="M 694 -23 C 582 -23 489 -12 414 8 C 339 29 279 63 233 111 C 187 158 155 220 135 298 C 115 375 106 470 106 582 L 106 1174 L 512 1174 L 512 573 C 512 536 513 503 516 473 C 518 443 526 418 538 398 C 550 377 568 361 593 350 C 618 339 653 334 698 334 C 742 334 776 339 801 351 C 825 362 844 378 856 399 C 868 419 876 444 879 474 C 881 504 883 537 883 573 L 883 1174 L 1282 1174 L 1282 582 C 1282 470 1272 375 1253 298 C 1233 221 1201 159 1155 111 C 1109 63 1049 29 974 8 C 899 -12 806 -23 694 -23 Z M 233 1602 L 1155 1602 L 1155 1280 L 233 1280 L 233 1602 Z" unicode="" />
<glyph horiz-adv-x="1710" d="" unicode="" />
<glyph horiz-adv-x="1389" d="" unicode="" />
<glyph horiz-adv-x="1710" d="M 856 -31 C 740 -31 642 -22 561 -4 C 480 13 413 37 359 68 C 305 98 262 134 232 175 C 201 216 178 260 162 306 C 146 352 137 400 133 450 C 129 500 127 548 127 596 L 127 1518 L 553 1518 L 553 653 C 553 601 556 555 563 517 C 570 478 585 446 607 420 C 629 394 660 375 700 363 C 740 350 794 344 862 344 C 928 344 981 350 1021 362 C 1061 374 1093 392 1115 417 C 1137 442 1152 474 1160 513 C 1167 552 1171 599 1171 653 L 1171 1518 L 1583 1518 L 1583 596 C 1583 548 1581 500 1577 450 C 1573 400 1563 352 1548 306 C 1532 260 1509 216 1479 175 C 1448 134 1406 98 1352 68 C 1298 37 1230 13 1150 -4 C 1069 -22 971 -31 856 -31 Z M 854 1573 C 797 1573 749 1581 709 1598 C 669 1614 636 1637 610 1666 C 584 1694 566 1728 554 1767 C 542 1806 537 1848 537 1894 C 537 1940 542 1982 554 2022 C 566 2062 584 2096 610 2126 C 636 2155 669 2178 709 2195 C 749 2211 797 2220 854 2220 C 908 2220 954 2211 994 2195 C 1033 2178 1066 2155 1092 2126 C 1118 2096 1137 2062 1150 2022 C 1162 1982 1169 1940 1169 1894 C 1169 1848 1162 1806 1150 1767 C 1137 1728 1118 1694 1092 1666 C 1066 1637 1033 1614 994 1598 C 954 1581 908 1573 854 1573 Z M 854 1765 C 876 1765 895 1768 911 1775 C 927 1781 939 1790 949 1802 C 958 1814 965 1827 969 1843 C 973 1859 975 1876 975 1894 C 975 1912 973 1930 969 1946 C 965 1962 958 1975 949 1987 C 939 1999 927 2008 911 2015 C 895 2021 876 2025 854 2025 C 830 2025 811 2021 796 2015 C 780 2008 768 1999 759 1987 C 749 1975 743 1962 739 1946 C 735 1930 733 1912 733 1894 C 733 1876 735 1859 739 1843 C 743 1827 749 1814 759 1802 C 768 1790 780 1781 796 1775 C 811 1768 830 1765 854 1765 Z" unicode="" />
<glyph horiz-adv-x="1389" d="M 694 -23 C 582 -23 489 -12 414 8 C 339 29 279 63 233 111 C 187 158 155 220 135 298 C 115 375 106 470 106 582 L 106 1174 L 512 1174 L 512 573 C 512 536 513 503 516 473 C 518 443 526 418 538 398 C 550 377 568 361 593 350 C 618 339 653 334 698 334 C 742 334 776 339 801 351 C 825 362 844 378 856 399 C 868 419 876 444 879 474 C 881 504 883 537 883 573 L 883 1174 L 1282 1174 L 1282 582 C 1282 470 1272 375 1253 298 C 1233 221 1201 159 1155 111 C 1109 63 1049 29 974 8 C 899 -12 806 -23 694 -23 Z M 694 1257 C 637 1257 589 1265 549 1282 C 509 1298 476 1321 450 1350 C 424 1379 406 1413 394 1452 C 382 1491 377 1533 377 1579 C 377 1624 382 1666 394 1706 C 406 1746 424 1780 450 1810 C 476 1839 509 1862 549 1879 C 589 1896 637 1905 694 1905 C 748 1905 794 1896 834 1879 C 874 1862 907 1839 933 1810 C 959 1780 978 1746 991 1706 C 1003 1666 1010 1624 1010 1579 C 1010 1533 1003 1491 991 1452 C 978 1413 959 1379 933 1350 C 907 1321 874 1298 834 1282 C 794 1265 748 1257 694 1257 Z M 694 1450 C 716 1450 735 1453 751 1460 C 767 1466 779 1475 789 1487 C 798 1499 805 1512 809 1528 C 813 1544 815 1561 815 1579 C 815 1597 813 1615 809 1631 C 805 1647 798 1660 789 1672 C 779 1684 767 1693 751 1700 C 735 1706 716 1710 694 1710 C 670 1710 651 1706 636 1700 C 620 1693 608 1684 599 1672 C 589 1660 583 1647 579 1631 C 575 1615 573 1597 573 1579 C 573 1561 575 1544 579 1528 C 583 1512 589 1499 599 1487 C 608 1475 620 1466 636 1460 C 651 1453 670 1450 694 1450 Z" unicode="" />
<glyph horiz-adv-x="1710" d="M 856 -31 C 740 -31 642 -22 561 -4 C 480 13 413 37 359 68 C 305 98 262 134 232 175 C 201 216 178 260 162 306 C 146 352 137 400 133 450 C 129 500 127 548 127 596 L 127 1518 L 553 1518 L 553 653 C 553 601 556 555 563 517 C 570 478 585 446 607 420 C 629 394 660 375 700 363 C 740 350 794 344 862 344 C 928 344 981 350 1021 362 C 1061 374 1093 392 1115 417 C 1137 442 1152 474 1160 513 C 1167 552 1171 599 1171 653 L 1171 1518 L 1583 1518 L 1583 596 C 1583 548 1581 500 1577 450 C 1573 400 1563 352 1548 306 C 1532 260 1509 216 1479 175 C 1448 134 1406 98 1352 68 C 1298 37 1230 13 1150 -4 C 1069 -22 971 -31 856 -31 Z M 563 2001 L 1028 2001 L 639 1595 L 305 1595 L 563 2001 Z M 1161 2001 L 1626 2001 L 1237 1595 L 903 1595 L 1161 2001 Z" unicode="" />
<glyph horiz-adv-x="1389" d="M 694 -23 C 582 -23 489 -12 414 8 C 339 29 279 63 233 111 C 187 158 155 220 135 298 C 115 375 106 470 106 582 L 106 1174 L 512 1174 L 512 573 C 512 536 513 503 516 473 C 518 443 526 418 538 398 C 550 377 568 361 593 350 C 618 339 653 334 698 334 C 742 334 776 339 801 351 C 825 362 844 378 856 399 C 868 419 876 444 879 474 C 881 504 883 537 883 573 L 883 1174 L 1282 1174 L 1282 582 C 1282 470 1272 375 1253 298 C 1233 221 1201 159 1155 111 C 1109 63 1049 29 974 8 C 899 -12 806 -23 694 -23 Z M 403 1686 L 868 1686 L 479 1280 L 145 1280 L 403 1686 Z M 1001 1686 L 1466 1686 L 1077 1280 L 743 1280 L 1001 1686 Z" unicode="" />
<glyph horiz-adv-x="1710" d="M 1077 -512 C 1014 -512 962 -506 922 -496 C 882 -486 850 -471 826 -451 C 802 -431 786 -406 777 -377 C 768 -347 764 -314 764 -276 C 764 -247 769 -220 779 -196 C 789 -171 803 -148 819 -128 C 835 -107 853 -88 873 -72 C 893 -55 914 -41 934 -29 C 921 -29 908 -29 895 -30 C 882 -30 869 -31 856 -31 C 740 -31 642 -22 561 -4 C 480 13 413 37 359 68 C 305 98 262 134 232 175 C 201 216 178 260 162 306 C 146 352 137 400 133 450 C 129 500 127 548 127 596 L 127 1518 L 553 1518 L 553 653 C 553 601 556 555 563 517 C 570 478 585 446 607 420 C 629 394 660 375 700 363 C 740 350 794 344 862 344 C 928 344 981 350 1021 362 C 1061 374 1093 392 1115 417 C 1137 442 1152 474 1160 513 C 1167 552 1171 599 1171 653 L 1171 1518 L 1583 1518 L 1583 596 C 1583 540 1580 485 1574 432 C 1568 379 1556 329 1538 281 C 1519 233 1492 189 1456 149 C 1420 108 1371 73 1311 43 C 1259 17 1216 -7 1181 -32 C 1146 -56 1118 -80 1096 -103 C 1074 -126 1059 -148 1050 -170 C 1040 -191 1036 -211 1036 -229 C 1036 -241 1037 -251 1041 -259 C 1044 -267 1050 -274 1059 -280 C 1067 -285 1079 -289 1093 -291 C 1107 -293 1125 -295 1147 -295 C 1175 -295 1207 -291 1243 -284 C 1279 -276 1314 -266 1348 -254 L 1405 -436 C 1347 -460 1290 -479 1235 -492 C 1179 -505 1127 -512 1077 -512 Z" unicode="" />
</font>
</defs>
</svg>
