<?xml version="1.0" standalone="no"?>
<!DOCTYPE svg PUBLIC "-//W3C//DTD SVG 1.1//EN" "http://www.w3.org/Graphics/SVG/1.1/DTD/svg11.dtd" >
<svg>
<metadata>
Created by FontForge 20120731 at Wed Oct 25 11:36:21 2017
 By www-data
Copyright 2012 Dalton Maag Ltd. Modification of this file requires prior written permission from Dalton Maag Ltd.
</metadata>
<defs>
<font id="HPSimplified-Italic" horiz-adv-x="536" >
  <font-face 
    font-family="HP Simplified"
    font-weight="400"
    font-style="italic"
    font-stretch="normal"
    units-per-em="1000"
    panose-1="2 11 6 6 2 2 4 9 0 0"
    ascent="809"
    descent="-191"
    x-height="510"
    cap-height="693"
    bbox="-67 -197 860 876"
    underline-thickness="90"
    underline-position="-55"
    slope="-11.5"
    unicode-range="U+0008-201E"
  />
<missing-glyph horiz-adv-x="500" 
d="M50 0v750h400v-750h-400zM400 50v650h-300v-650h300z" />
    <glyph glyph-name=".notdef" horiz-adv-x="500" 
d="M50 0v750h400v-750h-400zM400 50v650h-300v-650h300z" />
    <glyph glyph-name=".null" horiz-adv-x="0" 
 />
    <glyph glyph-name=".null" horiz-adv-x="0" 
 />
    <glyph glyph-name=".null" horiz-adv-x="0" 
 />
    <glyph glyph-name="nonmarkingreturn" unicode="&#x9;" horiz-adv-x="206" 
 />
    <glyph glyph-name="nonmarkingreturn" unicode="&#xd;" horiz-adv-x="206" 
 />
    <glyph glyph-name="space" unicode=" " horiz-adv-x="206" 
 />
    <glyph glyph-name="exclam" unicode="!" horiz-adv-x="258" 
d="M133 231q0 18 5 51.5t11.5 74t14.5 82.5t14 75l35 179h75q14 0 18 -5t4 -13q0 -4 -2 -15t-4 -23l-14 -67q-18 -83 -41.5 -178t-46.5 -182h-49q-10 0 -15 4.5t-5 16.5zM126 -6q-28 0 -42.5 13t-14.5 36q0 38 21 58t56 20q28 0 42.5 -12.5t14.5 -34.5q0 -38 -20.5 -59
t-56.5 -21z" />
    <glyph glyph-name="quotedbl" unicode="&#x22;" horiz-adv-x="328" 
d="M135 470zM240 693q18 0 18 -15q0 -8 -6 -32.5t-14.5 -55t-18.5 -63.5t-17 -57h-49q-18 0 -18 16q0 7 1 17.5t4 27.5l27 162h73zM398 693q18 0 18 -15q0 -8 -6 -32.5t-14.5 -55t-18.5 -63.5t-17 -57h-49q-18 0 -18 16q0 7 1 17.5t4 27.5l27 162h73z" />
    <glyph glyph-name="numbersign" unicode="#" horiz-adv-x="565" 
d="M557 671q5 0 9 -2.5t4 -9.5q0 -3 -9.5 -44.5t-24.5 -104.5h57q21 0 21 -19v-58h-97l-44 -185h68q21 0 21 -19v-58h-108q-9 -37 -16.5 -68t-12.5 -54q-6 -27 -12 -49h-62q-13 0 -13 12q0 2 10 46.5t27 112.5h-134q-9 -37 -16.5 -68t-12.5 -54q-6 -27 -12 -49h-62
q-13 0 -13 12q0 2 10 46.5t27 112.5h-60q-20 0 -20 20v57h98l44 185h-70q-20 0 -20 20v57h108q8 34 15.5 63.5t12.5 51.5q6 26 11 46h63q5 0 9 -2.5t4 -9.5q0 -3 -9.5 -44.5t-24.5 -104.5h132q8 34 15.5 63.5t12.5 51.5q6 26 11 46h63zM260 248h133l44 185h-133z" />
    <glyph glyph-name="dollar" unicode="$" 
d="M455 663q45 -11 75 -27.5t30 -36.5q0 -13 -8 -29l-14 -29q-12 10 -39 22.5t-65 20.5l-56 -200q29 -15 54.5 -31.5t45 -38t31 -48.5t11.5 -62q0 -49 -19 -86.5t-52.5 -63.5t-78.5 -39.5t-97 -13.5l-27 -99h-34q-11 1 -14.5 4.5t-3.5 8.5t1 9.5t3 11.5l19 70q-9 1 -32 6.5
t-46 14.5t-41 21.5t-18 27.5q0 8 2.5 14.5t5.5 13.5l16 33q29 -18 63 -31.5t73 -18.5l63 229q-30 16 -56.5 33.5t-46 38.5t-31 47t-11.5 59q0 38 15 70.5t43 56.5t67.5 38t88.5 14h11t18 -2l27 98l33 -2q11 0 14.5 -4t3.5 -10q0 -4 -8 -33zM296 86q61 4 94.5 31.5t33.5 78.5
q0 31 -17.5 52.5t-53.5 41.5zM252 501q0 -18 6.5 -32t17 -24.5t24.5 -18.5t29 -16l50 181q-10 2 -23 2q-21 0 -39.5 -5t-33 -16.5t-23 -29t-8.5 -41.5z" />
    <glyph glyph-name="percent" unicode="%" horiz-adv-x="795" 
d="M689 677h56q16 0 16 -13q0 -7 -8 -18l-516 -646h-57q-16 0 -16 13q2 9 9 18zM250 382q22 0 40 16t31 40t19.5 53t6.5 56q0 33 -10.5 53t-37.5 20q-23 0 -40.5 -16t-30.5 -40t-19.5 -53t-6.5 -55q0 -35 10.5 -54.5t37.5 -19.5zM240 314q-51 0 -83.5 35t-32.5 99
q0 51 14 94.5t39 76t59 51t75 18.5q50 0 82 -34.5t32 -98.5q0 -51 -13.5 -95t-38.5 -76.5t-59 -51t-74 -18.5zM624 57q22 0 40 16t31 40t19.5 53t6.5 56q0 33 -10.5 53t-37.5 20q-23 0 -40.5 -16t-30.5 -40t-19.5 -53t-6.5 -55q0 -35 10.5 -54.5t37.5 -19.5zM614 -11
q-51 0 -83.5 35t-32.5 99q0 51 14 94.5t39 76t59 51t75 18.5q50 0 82 -34.5t32 -98.5q0 -51 -13.5 -95t-38.5 -76.5t-59 -51t-74 -18.5z" />
    <glyph glyph-name="ampersand" unicode="&#x26;" horiz-adv-x="609" 
d="M58 150q0 40 14.5 72.5t39 59.5t58 49.5t72.5 42.5q-23 29 -40.5 66.5t-17.5 81.5q0 33 12.5 65.5t37.5 58t62.5 41.5t88.5 16q71 0 115.5 -35t44.5 -101q0 -36 -13.5 -65t-36.5 -54t-55.5 -46.5t-69.5 -41.5q36 -42 64 -76.5t52 -70.5q21 33 37 71.5t26 70.5h58
q17 0 17 -13q0 -5 -2 -15t-7 -21q-17 -50 -38 -90t-47 -75q20 -37 34 -71t23 -70h-74q-15 0 -21 14q-7 19 -13.5 33t-12.5 28q-42 -38 -94.5 -61.5t-124.5 -23.5q-86 0 -137.5 40.5t-51.5 119.5zM259 70q52 0 93 18.5t75 53.5q-29 49 -64 92.5t-72 84.5q-29 -15 -53.5 -30.5
t-43 -34.5t-29 -42t-10.5 -51q0 -48 30.5 -69.5t73.5 -21.5zM274 521q0 -34 13 -58.5t33 -47.5q32 16 57.5 31.5t43.5 32.5t27.5 37t9.5 45q0 32 -19 50.5t-58 18.5q-47 0 -77 -27.5t-30 -81.5z" />
    <glyph glyph-name="quotesingle" unicode="'" horiz-adv-x="170" 
d="M240 693q18 0 18 -15q0 -8 -6 -32.5t-14.5 -55t-18.5 -63.5t-17 -57h-49q-18 0 -18 16q0 7 1 17.5t4 27.5l27 162h73z" />
    <glyph glyph-name="parenleft" unicode="(" horiz-adv-x="290" 
d="M155 -59q-25 54 -38.5 116t-13.5 140t15 155t43.5 149.5t70.5 140t97 126.5h57q18 0 18 -13q0 -8 -14 -27q-43 -57 -78.5 -120.5t-60.5 -131t-39 -138t-14 -141.5q0 -80 13 -146.5t34 -132.5h-59q-14 0 -20 6t-11 17z" />
    <glyph glyph-name="parenright" unicode=")" horiz-adv-x="271" 
d="M246 745q24 -53 37 -114t13 -136q0 -159 -54.5 -306t-165.5 -271h-61q-17 0 -17 13q0 10 13 27q91 115 141.5 254.5t50.5 288.5q0 41 -3 76t-8.5 67t-13.5 62t-18 62h55q14 0 20 -6t11 -17z" />
    <glyph glyph-name="asterisk" unicode="*" horiz-adv-x="395" 
d="M330 504l77 -109l-53 -33q-2 -2 -5.5 -3.5t-7.5 -1.5q-11 0 -18 17l-41 98l-89 -121l-47 39q-7 6 -7 12t6 13t13 13l83 79l-121 26l22 56q7 17 18 17q5 0 10.5 -2t12.5 -5l86 -40l5 134h67q13 0 13 -12q0 -5 -1 -10.5t-3 -11.5l-26 -102l118 53l13 -40q4 -15 4 -24
q0 -11 -8 -15t-18 -6z" />
    <glyph glyph-name="plus" unicode="+" horiz-adv-x="518" 
d="M264 132q-21 0 -21 15q0 3 1 10t3 15l26 128h-126q-22 0 -22 18q0 4 1 11.5t3 14.5l8 40h152l34 168h63q21 0 21 -15q0 -4 -1 -11t-3 -15l-26 -127h127q22 0 22 -19q0 -4 -1 -11t-3 -14l-8 -40h-153l-34 -168h-63z" />
    <glyph glyph-name="comma" unicode="," horiz-adv-x="229" 
d="M191 72q0 -29 -15.5 -56.5t-34.5 -55.5l-57 -84h-45q-15 0 -15 11q0 7 10 23l58 92q-17 4 -27 13.5t-10 25.5q0 38 19.5 59t56.5 21q60 0 60 -49z" />
    <glyph glyph-name="hyphen" unicode="-" horiz-adv-x="372" 
d="M102 318h265q11 0 15 -4.5t4 -11.5q0 -4 -1 -10.5t-2 -10.5l-11 -53h-265q-11 0 -15 4.5t-4 11.5q0 4 1 10.5t2 10.5z" />
    <glyph glyph-name="period" unicode="." horiz-adv-x="220" 
d="M107 -6q-28 0 -42.5 14.5t-14.5 37.5q0 38 21 56.5t56 18.5q28 0 42.5 -14t14.5 -36q0 -38 -20.5 -57.5t-56.5 -19.5z" />
    <glyph glyph-name="slash" unicode="/" horiz-adv-x="367" 
d="M100 -83h-73q-17 0 -17 15q0 4 2 9l4 10l384 817h73q17 0 17 -15q0 -4 -2 -9l-4 -10z" />
    <glyph glyph-name="zero" unicode="0" 
d="M195 208q0 -64 18.5 -95.5t63.5 -31.5q49 0 84 39.5t57.5 98t33 125.5t10.5 123q0 23 -3 46.5t-11.5 43t-24.5 32t-43 12.5q-33 0 -59.5 -18.5t-47 -49t-35.5 -70.5t-24.5 -83.5t-14 -88t-4.5 -83.5zM93 211q0 92 19.5 179t57.5 154.5t95 108t132 40.5q169 0 169 -222
q0 -85 -18 -171t-55.5 -155t-95 -112.5t-136.5 -43.5q-168 0 -168 222z" />
    <glyph glyph-name="one" unicode="1" 
d="M367 579q-35 -13 -70.5 -28.5t-67.5 -28.5q-8 -3 -13.5 -5t-10.5 -2q-13 0 -13 14q0 3 1.5 12.5t3.5 17.5l8 40q60 27 103.5 45.5t78.5 30.5q28 10 44.5 14t27.5 4q25 0 25 -22q0 -5 -1 -10t-2 -13l-132 -648h-72q-14 0 -19 5t-5 14q0 6 3.5 25.5t8.5 40.5z" />
    <glyph glyph-name="two" unicode="2" 
d="M350 276q-40 -27 -69 -51.5t-49.5 -48t-33.5 -45.5t-20 -44h270q23 0 23 -18q0 -6 -1 -14.5t-3 -16.5l-8 -38h-375q-11 0 -16.5 6.5t-5.5 15.5q0 4 1 11.5t4 18.5q10 42 26 78t40 69t59 65t85 67q20 15 52.5 36t63 47.5t53 56.5t22.5 63q0 38 -27.5 57t-76.5 19
q-33 0 -61.5 -7t-49.5 -15.5t-34 -15.5t-17 -7q-12 0 -12 14q0 2 0.5 4.5t1.5 9t3 18t6 32.5q12 7 30.5 16t42 16.5t51.5 12.5t58 5q34 0 67.5 -8t59 -26t41.5 -46.5t16 -69.5q0 -45 -17.5 -81t-47 -67.5t-69 -60t-83.5 -58.5z" />
    <glyph glyph-name="three" unicode="3" 
d="M245 310q-21 0 -21 16q0 4 5 26l9 40h50q46 0 77 12t49.5 30.5t26 41t7.5 43.5q0 44 -26 68t-83 24q-30 0 -55.5 -5t-44.5 -11t-31.5 -11t-16.5 -5q-13 0 -13 16q0 4 0.5 7.5t1.5 8.5l9 39q28 17 71.5 30t96.5 13q86 0 137.5 -41t51.5 -119q0 -30 -9.5 -59.5t-28 -54
t-47 -42.5t-65.5 -25q53 -14 77.5 -49t24.5 -86q0 -54 -22 -96t-58 -71.5t-83.5 -45t-98.5 -15.5q-28 0 -58 4.5t-54.5 12t-40.5 18t-16 23.5q0 6 2 13.5t6 20.5l8 25q29 -12 64 -21t78 -9q80 0 125.5 39.5t45.5 104.5q0 47 -28 68.5t-85 21.5h-38z" />
    <glyph glyph-name="four" unicode="4" 
d="M541 677q20 0 20 -17q0 -5 -1.5 -15t-4.5 -24l-73 -374h47q12 0 15.5 -4t3.5 -12t-6 -36l-5 -26h-71l-34 -169h-63q-24 0 -24 18q0 3 2.5 16.5t4.5 25.5l22 109h-258q-10 0 -18.5 3.5t-8.5 15.5q0 8 3 21.5t6 22.5q30 67 69 131t84 121t95.5 106t103.5 87h91zM388 247
l77 349q-39 -31 -79.5 -74t-76.5 -91t-66.5 -96t-50.5 -88h196z" />
    <glyph glyph-name="five" unicode="5" 
d="M234 76q39 0 72 11t57 32t37.5 51.5t13.5 70.5q0 45 -27 71t-89 26q-20 0 -39.5 -2.5t-36 -5t-28.5 -5t-18 -2.5q-19 0 -19 18q0 5 2 14t4 20l79 302h305q14 0 19.5 -5t5.5 -13q0 -10 -4 -30l-7 -38h-250l-48 -181q12 2 26 3.5t32 1.5q39 0 74.5 -10t62 -30.5t42 -52.5
t15.5 -77q0 -52 -18.5 -98.5t-54 -81.5t-85.5 -55.5t-113 -20.5q-21 0 -49.5 3.5t-54.5 11t-44 18t-18 25.5q0 6 1.5 13t6.5 21l8 25q21 -9 58 -19.5t82 -10.5z" />
    <glyph glyph-name="six" unicode="6" 
d="M568 587q-14 6 -44.5 15t-65.5 9q-85 0 -141.5 -56t-85.5 -182q26 28 61.5 44t80.5 16q35 0 65 -12t52.5 -34t35 -53t12.5 -70q0 -53 -16 -102.5t-47 -88t-77 -61.5t-106 -23q-42 0 -76 16t-57 44.5t-35.5 67t-12.5 82.5q0 110 23.5 201t67 156t104 101t134.5 36
q28 0 58 -5t57 -18q14 -7 21.5 -14t7.5 -19q0 -7 -2.5 -13.5t-4.5 -13.5zM350 352q-42 0 -78 -23t-58 -61q-5 -22 -7 -43t-2 -38q0 -18 4.5 -38.5t15.5 -37t29.5 -27.5t46.5 -11q33 0 59 15t44 39.5t27.5 56t9.5 63.5q0 50 -23 77.5t-68 27.5z" />
    <glyph glyph-name="seven" unicode="7" 
d="M166 0q-21 0 -21 19q0 12 8.5 33t19.5 44q59 122 135 246.5t163 247.5h-280q-22 0 -22 17q0 5 2 16l4 22l6 32h382q12 0 17 -5t5 -13q0 -5 -1 -12.5t-3 -15.5l-7 -32q-107 -152 -191 -301.5t-144 -297.5h-73z" />
    <glyph glyph-name="eight" unicode="8" 
d="M454 353q38 -21 59 -56t21 -83q0 -51 -18 -92.5t-51 -71t-79.5 -45.5t-103.5 -16q-43 0 -79.5 12t-62.5 34t-41 53.5t-15 70.5q0 74 39 127t108 76q-33 20 -48 53.5t-15 68.5q0 46 16.5 84t46 66t71 43.5t92.5 15.5q42 0 75.5 -12.5t57 -34t36 -51t12.5 -63.5
q0 -61 -31.5 -107.5t-89.5 -71.5zM182 170q0 -45 31.5 -72.5t79.5 -27.5q34 0 60.5 11t45 30.5t28.5 45t10 54.5q0 45 -26 75.5t-84 30.5q-33 0 -60 -11.5t-46 -31.5t-29 -46.5t-10 -57.5zM352 396q60 0 96 34.5t36 91.5q0 36 -21.5 63.5t-73.5 27.5q-60 0 -95.5 -36.5
t-35.5 -92.5q0 -35 22 -61.5t72 -26.5z" />
    <glyph glyph-name="nine" unicode="9" 
d="M98 98q14 -7 44.5 -16.5t72.5 -9.5q85 0 142 56.5t86 184.5q-26 -29 -63.5 -44.5t-79.5 -15.5q-36 0 -66.5 11.5t-53 34t-35 55.5t-12.5 77q0 47 15.5 93.5t46.5 84t76.5 61t104.5 23.5q87 0 135 -58t48 -184q0 -82 -21 -164.5t-62.5 -148.5t-103 -107.5t-142.5 -41.5
q-29 0 -62 6t-59 17q-14 6 -21 13t-7 20t7 29zM321 334q42 0 78 23t58 61q5 19 7 39t2 37q0 20 -4.5 40.5t-15.5 37t-29.5 27t-46.5 10.5q-33 0 -59 -14.5t-44 -38.5t-27.5 -54.5t-9.5 -61.5q0 -50 23 -78t68 -28z" />
    <glyph glyph-name="colon" unicode=":" horiz-adv-x="224" 
d="M54 0zM182 386q-28 0 -42.5 14.5t-14.5 37.5q0 38 21 56.5t56 18.5q28 0 42.5 -14t14.5 -36q0 -38 -20.5 -57.5t-56.5 -19.5zM111 -6q-28 0 -42.5 14.5t-14.5 37.5q0 38 21 56.5t56 18.5q28 0 42.5 -14t14.5 -36q0 -38 -20.5 -57.5t-56.5 -19.5z" />
    <glyph glyph-name="semicolon" unicode=";" horiz-adv-x="228" 
d="M32 0zM183 386q-28 0 -42.5 14.5t-14.5 37.5q0 38 21 56.5t56 18.5q28 0 42.5 -14t14.5 -36q0 -38 -20.5 -57.5t-56.5 -19.5zM199 72q0 -29 -15.5 -56.5t-34.5 -55.5l-57 -84h-45q-15 0 -15 11q0 7 10 23l58 92q-17 4 -27 13.5t-10 25.5q0 38 19.5 59t56.5 21
q60 0 60 -49z" />
    <glyph glyph-name="less" unicode="&#x3c;" horiz-adv-x="507" 
d="M443 232q9 -5 13 -8.5t4 -11.5q0 -3 -1 -8.5t-3 -13.5l-11 -56l-291 159q-11 6 -15.5 10.5t-4.5 13.5q0 4 1 9.5t2 10.5l8 41l348 165q13 6 21 6q12 0 12 -12q0 -3 -1 -9t-3 -14l-10 -49l-276 -125z" />
    <glyph glyph-name="equal" unicode="=" horiz-adv-x="518" 
d="M173 380q-22 0 -22 18q0 4 0.5 11t2.5 14l8 39h359q22 0 22 -19q0 -4 -1 -10.5t-3 -14.5l-7 -38h-359zM138 216q-22 0 -22 18q0 4 0.5 11t2.5 14l8 39h359q22 0 22 -19q0 -4 -1 -10.5t-3 -14.5l-7 -38h-359z" />
    <glyph glyph-name="greater" unicode="&#x3e;" horiz-adv-x="507" 
d="M203 451q-9 5 -13 8.5t-4 11.5q0 3 1 8.5t3 13.5l11 56l291 -159q11 -6 15.5 -10.5t4.5 -13.5q0 -4 -1 -9.5t-2 -10.5l-8 -41l-348 -165q-14 -6 -21 -6q-12 0 -12 12q0 3 1 9t3 14l10 49l276 125z" />
    <glyph glyph-name="question" unicode="?" horiz-adv-x="410" 
d="M183 206q-14 0 -20.5 4.5t-6.5 23.5q0 28 10 51t26.5 44t39 41t47.5 40q19 16 37.5 31.5t32 32t22 35t8.5 40.5q0 71 -89 71q-23 0 -42.5 -4t-35.5 -9.5t-27 -9.5t-17 -4q-9 0 -13 5t-4 13q0 5 1 14t3 19l4 21q21 11 62.5 24.5t95.5 13.5q76 0 118 -37t42 -100
q0 -35 -11 -63.5t-29.5 -53.5t-43.5 -47t-52 -44q-26 -21 -45 -37t-32.5 -32.5t-22.5 -36t-13 -46.5h-45zM164 -6q-27 0 -42 13t-15 36q0 38 21 58t57 20q27 0 41.5 -12.5t14.5 -34.5q0 -38 -20.5 -59t-56.5 -21z" />
    <glyph glyph-name="at" unicode="@" horiz-adv-x="815" 
d="M525 107q-22 -27 -52.5 -45.5t-72.5 -18.5q-59 0 -89.5 41.5t-30.5 112.5q0 54 16 108.5t47.5 98t78.5 71t108 27.5q40 0 71 -10t48 -18q24 -12 24 -29q0 -7 -1.5 -14t-4.5 -19l-41 -169q-3 -12 -6 -27t-6 -30.5t-5.5 -31t-3.5 -27.5q47 6 79 35.5t52 70.5t29 87.5
t9 86.5q0 53 -16 90.5t-45.5 61.5t-70.5 35t-90 11q-91 0 -163 -36t-121.5 -96t-75.5 -138t-26 -162q0 -68 17.5 -114.5t50 -75.5t78.5 -42t102 -13q32 0 63.5 3.5t63.5 10.5q11 2 18.5 4t10.5 2q13 0 17 -18l11 -45q-40 -16 -93 -24.5t-106 -8.5q-68 0 -126.5 17t-101.5 55
t-68 98t-25 146q0 109 35 203.5t98 163.5t151 108.5t195 39.5q55 0 109 -14.5t96.5 -47t69 -84.5t26.5 -128q0 -64 -18 -127.5t-53.5 -114.5t-89 -83t-125.5 -32q-20 0 -30.5 9t-14.5 24q-2 10 -2 15v7zM525 425q-40 0 -69 -21.5t-48 -54.5t-28.5 -73t-9.5 -78
q0 -32 12 -53.5t44 -21.5q29 0 54.5 15.5t43.5 36.5l57 240q-11 5 -25 7.5t-31 2.5z" />
    <glyph glyph-name="A" unicode="A" horiz-adv-x="524" 
d="M193 194q-20 -50 -38.5 -99.5t-32.5 -94.5h-71q-12 0 -17 5t-5 13q0 10 3 19.5t8 23.5q38 107 112.5 268t195.5 364h89q28 0 34 -31q11 -68 20 -171.5t9 -224.5q0 -74 -2 -140t-6 -126h-75q-22 0 -22 23q0 6 1 25t2.5 44t3 52t2.5 50h-211zM391 611q-26 -47 -47.5 -89.5
t-41.5 -83t-38.5 -81t-37.5 -82.5h179q1 13 1.5 26t0.5 24q0 70 -2.5 140t-13.5 146z" />
    <glyph glyph-name="B" unicode="B" horiz-adv-x="541" 
d="M180 81h86q36 0 66.5 8t53.5 25t36 43t13 63q0 96 -117 96h-91zM242 394h84q65 0 107 33.5t42 100.5q0 47 -30.5 68t-81.5 21q-24 0 -43 -2t-34 -4zM205 682q36 8 78 13t91 5q36 0 72 -8.5t64 -27.5t45.5 -49.5t17.5 -74.5q0 -66 -33 -114t-96 -71q46 -18 68 -55.5
t22 -81.5q0 -57 -22 -98t-59.5 -67.5t-86 -39.5t-101.5 -13h-170q-23 0 -23 17q0 14 10 60z" />
    <glyph glyph-name="C" unicode="C" horiz-adv-x="489" 
d="M450 703q20 0 42.5 -4t41 -10.5t31 -16t12.5 -20.5q0 -10 -7 -29l-11 -28q-16 6 -43 13t-59 7q-63 0 -109.5 -37t-77.5 -93.5t-46 -124.5t-15 -130q0 -79 26 -114t88 -35q27 0 51.5 6.5t46.5 15.5q7 3 14 5.5t12 2.5q14 0 20 -24l11 -44q-30 -21 -74.5 -37.5t-98.5 -16.5
q-99 0 -150.5 56.5t-51.5 175.5q0 57 10.5 115t31 111.5t50 100t68 81t85.5 54.5t102 20z" />
    <glyph glyph-name="D" unicode="D" horiz-adv-x="575" 
d="M96 0q-14 0 -19 5t-5 14q0 5 2 17t5 27.5t6.5 32.5t6.5 32l112 555q27 6 65 11t76 5q118 0 186 -65.5t68 -200.5q0 -89 -26.5 -167.5t-75 -137.5t-117 -93.5t-153.5 -34.5h-131zM232 84q57 0 105.5 26.5t84.5 73.5t56 112.5t20 142.5q0 94 -36.5 136t-111.5 42
q-17 0 -32 -1.5t-29 -3.5l-106 -528h49z" />
    <glyph glyph-name="E" unicode="E" horiz-adv-x="506" 
d="M205 693h354q23 0 23 -18q0 -4 -1 -12.5t-3 -15.5l-8 -40h-284l-43 -213h230q23 0 23 -19q0 -4 -1 -12t-3 -16l-8 -40h-258l-45 -221h266q23 0 23 -18q0 -4 -1 -12.5t-3 -15.5l-8 -40h-362q-14 0 -19 5t-5 14q0 6 3.5 23.5t7.5 38.5z" />
    <glyph glyph-name="F" unicode="F" horiz-adv-x="469" 
d="M288 607l-43 -217h210q23 0 23 -18q0 -5 -1.5 -13t-3.5 -16l-8 -40h-237l-60 -303h-72q-14 0 -19 5t-5 14q0 6 3 23.5t8 38.5l122 612h342q23 0 23 -18q0 -4 -1 -12.5t-3 -15.5l-8 -40h-270z" />
    <glyph glyph-name="G" unicode="G" horiz-adv-x="564" 
d="M585 590q-18 7 -49 15.5t-73 8.5q-68 0 -116 -35.5t-79 -91t-45.5 -122.5t-14.5 -130q0 -33 7 -61.5t23 -50.5t42.5 -34.5t66.5 -12.5q25 0 48 3.5t36 7.5l39 193h-77q-20 0 -20 16q0 6 1 13t2 12l8 43h164q14 0 18.5 -4.5t4.5 -11.5q0 -9 -8 -47l-55 -281
q-35 -14 -80.5 -22.5t-96.5 -8.5t-93 14.5t-72 44t-46.5 74t-16.5 105.5q0 85 23.5 170.5t69 153t112 110t152.5 42.5q31 0 57.5 -4.5t46 -12t30.5 -16.5t11 -19q0 -6 -3 -15.5t-6 -17.5l-11 -28v0z" />
    <glyph glyph-name="H" unicode="H" horiz-adv-x="595" 
d="M521 0h-72q-14 0 -19 5t-5 14q0 6 3 25t8 41l45 226h-251l-62 -311h-72q-14 0 -19 5t-5 14q0 6 3 25t8 41l122 608h72q14 0 19 -5t5 -14q0 -6 -3 -24t-8 -40l-43 -211h252l59 294h72q14 0 19 -5t5 -14q0 -6 -3.5 -24t-7.5 -40z" />
    <glyph glyph-name="I" unicode="I" horiz-adv-x="246" 
d="M170 0h-72q-14 0 -19 5t-5 14q0 6 3 25t8 41l122 608h72q14 0 19 -5t5 -14q0 -6 -3.5 -24t-7.5 -40z" />
    <glyph glyph-name="J" unicode="J" horiz-adv-x="360" 
d="M401 693q14 0 19 -5t5 -14q0 -3 -1.5 -12l-3.5 -21l-80 -386q-12 -56 -26.5 -104t-38 -83.5t-59.5 -56t-90 -20.5q-24 0 -44.5 4.5t-35 11.5t-23 15t-8.5 15q0 8 2 15t7 21l9 26q12 -6 35 -12.5t49 -6.5q27 0 46 10t32 28.5t22 43.5t15 55l97 476h72z" />
    <glyph glyph-name="K" unicode="K" horiz-adv-x="505" 
d="M250 410q63 50 131.5 122.5t130.5 160.5h82q16 0 16 -14q0 -10 -13 -27q-23 -32 -52 -68t-63.5 -73.5t-73.5 -74.5t-81 -70q28 -35 53 -78.5t46.5 -91.5t39.5 -98t32 -98h-78q-17 0 -24.5 9t-11.5 21q-11 34 -25 72.5t-32 78.5t-40.5 80t-51.5 78l-67 -339h-72
q-14 0 -19 5t-5 13q0 7 3 26t8 41l122 608h72q14 0 19 -5t5 -14q0 -6 -3.5 -24t-7.5 -40z" />
    <glyph glyph-name="L" unicode="L" horiz-adv-x="445" 
d="M186 88h235q23 0 23 -18q0 -4 -1 -12.5t-3 -15.5l-8 -42h-336q-14 0 -19 5t-5 14q0 6 3 23.5t8 38.5l122 612h73q14 0 19 -5t5 -14q0 -6 -3.5 -23.5t-8.5 -38.5z" />
    <glyph glyph-name="M" unicode="M" horiz-adv-x="684" 
d="M537 52q16 87 27 147.5t18.5 103.5t13 73.5t10.5 59t10 59t12 73.5l-214 -392h-59q-14 0 -19 6t-6 17l-50 369q-15 -63 -32 -137.5t-34.5 -150.5t-33.5 -149t-28 -131h-70q-22 0 -22 17q0 8 3 23.5t5 24.5q13 60 23.5 106.5t20 87t19 81.5t22 90.5t29 112.5t38.5 150h91
q21 0 24 -27q19 -134 30.5 -213t16.5 -120q6 -48 8 -65l228 425h90q25 0 25 -19q0 -5 -1 -14.5t-3 -18.5q-4 -27 -11 -71t-15.5 -99.5t-18 -118t-19.5 -124.5t-20 -121t-19 -107h-72q-22 0 -22 18q0 6 1.5 16t3.5 18z" />
    <glyph glyph-name="N" unicode="N" horiz-adv-x="597" 
d="M525 0h-73q-24 0 -29 23q-8 30 -19.5 70.5t-25 86.5t-28.5 94.5t-29.5 95t-28 87.5t-24.5 72l-106 -529h-67q-23 0 -23 19q0 6 3 23.5t8 38.5l122 612h67q17 0 23.5 -4.5t11.5 -18.5q11 -30 30.5 -89t42 -129.5t45 -143.5t39.5 -133l104 518h66q14 0 19 -5t5 -14
q0 -6 -3.5 -23.5t-7.5 -38.5z" />
    <glyph glyph-name="O" unicode="O" horiz-adv-x="610" 
d="M211 233q0 -32 7 -60t21 -49t34.5 -33t48.5 -12q53 0 93.5 35t68 90.5t41.5 124t14 134.5q0 31 -7 58.5t-20.5 47.5t-34 32t-48.5 12q-52 0 -92.5 -33t-68.5 -86.5t-42.5 -121.5t-14.5 -139zM316 -11q-97 0 -152.5 64t-55.5 185q0 97 24 182t67.5 148t103.5 99t132 36
q46 0 84.5 -16.5t65.5 -48t42 -77t15 -104.5q0 -96 -23.5 -181t-66.5 -149t-103 -101t-133 -37z" />
    <glyph glyph-name="P" unicode="P" horiz-adv-x="529" 
d="M96 0q-14 0 -19 5t-5 14q0 15 7 44t12 56l113 563q39 9 83.5 13.5t91.5 4.5q44 0 82.5 -10t67 -32t44.5 -57t16 -85q0 -60 -18 -110t-51.5 -86t-80.5 -55.5t-105 -19.5t-116 15l-52 -260h-70zM234 341q23 -6 45 -9.5t48 -3.5q41 0 71 15t50 41t30 60.5t10 74.5
q0 56 -30.5 78.5t-89.5 22.5q-24 0 -41 -1.5t-37 -4.5z" />
    <glyph glyph-name="Q" unicode="Q" horiz-adv-x="610" 
d="M310 -11q-97 0 -149.5 64t-52.5 185q0 97 25 182t69.5 148t105 99t132.5 36q94 0 148 -64t54 -182q0 -69 -13 -133t-37 -119t-58.5 -98.5t-76.5 -71.5q21 -31 44 -73.5t39 -87.5h-85q-13 0 -17 6t-8 17q-6 13 -13 27t-15 27.5t-15 25t-13 20.5q-32 -8 -64 -8zM211 233
q0 -32 6 -60t18.5 -49t32.5 -33t48 -12q53 0 94.5 35t70 90.5t43.5 124t15 134.5q0 31 -6 58.5t-19 47.5t-32.5 32t-47.5 12q-52 0 -93 -33t-70 -86.5t-44.5 -121.5t-15.5 -139z" />
    <glyph glyph-name="R" unicode="R" horiz-adv-x="530" 
d="M95 0q-23 0 -23 19q0 3 1.5 12.5t4 21.5l5 24t4.5 20l117 585q35 8 76 13t85 5q112 0 165 -44.5t53 -131.5q0 -74 -41 -131.5t-113 -86.5q14 -31 27 -72.5t23.5 -85t18 -83t10.5 -65.5h-77q-14 0 -20 6.5t-8 20.5q-3 25 -9.5 59.5t-15 70.5t-19 69.5t-20.5 58.5
q-8 -1 -17 -1.5t-18 -0.5h-82l-57 -283h-70zM238 362h92q28 0 55 10t48.5 30t34.5 49.5t13 67.5q0 54 -29 77.5t-92 23.5q-21 0 -39 -1.5t-32 -3.5z" />
    <glyph glyph-name="S" unicode="S" horiz-adv-x="489" 
d="M250 -10q-54 0 -96 12t-61 24q-19 11 -28 19t-9 19q0 6 2 14t5 16l13 32q28 -17 71 -32t98 -15q29 0 55 7.5t45.5 22.5t31 37t11.5 51q0 40 -23.5 65.5t-76.5 52.5q-31 16 -58.5 33t-48.5 38.5t-33 49.5t-12 66q0 42 15 79t42.5 64t67.5 42.5t91 15.5q48 0 80.5 -8.5
t59.5 -22.5q20 -11 27 -19.5t7 -18.5q0 -11 -7 -28l-13 -29q-9 5 -24 11.5t-34.5 12.5t-43.5 10t-49 4q-57 0 -89 -29t-32 -72q0 -23 7.5 -39.5t21 -29.5t32.5 -23.5t42 -22.5q34 -18 62 -36.5t47 -41.5t29.5 -51.5t10.5 -65.5q0 -50 -18 -90t-49.5 -67.5t-74.5 -42
t-94 -14.5z" />
    <glyph glyph-name="T" unicode="T" horiz-adv-x="500" 
d="M294 0h-72q-14 0 -19 5t-5 14q0 2 2 16t10 50l105 520h-150q-23 0 -23 17q0 5 1.5 14.5t2.5 14.5l8 42h430q22 0 22 -16q0 -7 -4 -30l-7 -42h-180z" />
    <glyph glyph-name="U" unicode="U" horiz-adv-x="589" 
d="M221 259q-4 -19 -8 -44.5t-4 -48.5q0 -40 21 -64t76 -24q69 0 105.5 42.5t51.5 116.5l92 456h74q14 0 18.5 -5t4.5 -14q0 -6 -4 -27.5t-7 -36.5l-73 -365q-14 -69 -36.5 -118t-55.5 -79.5t-76.5 -44.5t-98.5 -14q-41 0 -76 9t-61 29t-41 52.5t-15 79.5q0 23 4.5 54.5
t9.5 59.5l84 420h73q14 0 19.5 -5t5.5 -14q0 -3 -1.5 -10.5t-3 -17t-4 -19.5t-3.5 -17z" />
    <glyph glyph-name="V" unicode="V" horiz-adv-x="508" 
d="M595 693q11 0 14 -4t3 -10q0 -3 -2 -10.5t-4 -14.5q-26 -74 -60 -160.5t-73.5 -174.5t-82 -170.5t-83.5 -148.5h-91q-18 0 -26 9.5t-11 29.5q-6 41 -11 83.5t-8 90t-5 102t-2 119.5q0 66 1.5 129t5.5 130h81q11 0 16 -6.5t5 -17.5q0 -17 -1.5 -38.5t-3 -50t-3 -66
t-1.5 -86.5q0 -38 0.5 -80.5t2 -86t4 -87t5.5 -82.5q43 81 80.5 164.5t69 162.5t56 149t41.5 125h83z" />
    <glyph glyph-name="W" unicode="W" horiz-adv-x="777" 
d="M289 0h-88q-26 0 -29 25q-8 72 -12 146.5t-4 159.5q0 90 4.5 179t15.5 183h78q20 0 20 -19q0 -6 -0.5 -16.5t-2.5 -20.5q-9 -74 -14.5 -153t-5.5 -183q0 -48 1 -97t3 -101l206 528h54q18 0 25.5 -10.5t7.5 -27.5l4 -60q2 -31 3.5 -69t2.5 -78t1.5 -80t0.5 -74v-31
t-0.5 -23t-0.5 -28v-45q67 155 116 301.5t91 286.5h74q20 0 20 -16q0 -3 -1.5 -8.5t-3.5 -14.5q-16 -56 -41.5 -134t-58.5 -166t-72 -180t-81 -174h-93q-23 0 -23 26q0 38 -0.5 84t-1 103.5t-0.5 128.5v159z" />
    <glyph glyph-name="X" unicode="X" horiz-adv-x="538" 
d="M58 0q-25 0 -25 15q0 6 2 13.5t9 21.5q15 29 38 67t53 79t65.5 83t74.5 80q-19 34 -37 75t-32.5 84.5t-25 88t-14.5 86.5h84q11 0 15 -7.5t6 -15.5q14 -77 32 -137.5t48 -117.5q24 27 51 61t53 71t49 74.5t39 71.5h74q19 0 19 -15q0 -10 -11 -32q-16 -30 -41.5 -68
t-56 -77.5t-63.5 -78.5t-64 -71q45 -72 72.5 -161.5t41.5 -189.5h-78q-15 0 -20 7t-7 20q-14 75 -32 140t-52 124q-32 -34 -61 -71t-54.5 -75t-47 -75t-37.5 -70h-67z" />
    <glyph glyph-name="Y" unicode="Y" horiz-adv-x="503" 
d="M605 651q-47 -95 -107.5 -190.5t-148.5 -201.5l-51 -259h-73q-14 0 -19 5t-5 13q0 7 3.5 26t8.5 41l37 182q-22 56 -38 108t-28 104t-20 104.5t-12 109.5h84q14 0 17 -6.5t5 -20.5q3 -30 7.5 -66.5t11.5 -76.5t17 -82.5t24 -85.5q33 42 62.5 86.5t55 88.5t46 85.5
t34.5 77.5h73q23 0 23 -17q0 -11 -7 -25z" />
    <glyph glyph-name="Z" unicode="Z" horiz-adv-x="482" 
d="M54 0q-23 0 -23 18q0 9 5 38l5 27q40 55 89 119.5t102.5 132.5t110 137t112.5 133h-273q-23 0 -23 18q0 6 4 28l8 42h385q22 0 22 -18q0 -4 -4 -28l-7 -40q-60 -69 -119 -140t-113 -138t-101 -128.5t-83 -112.5h290q22 0 22 -18q0 -7 -4 -28l-8 -42h-397v0z" />
    <glyph glyph-name="bracketleft" unicode="[" horiz-adv-x="337" 
d="M87 -83q-22 0 -22 18q0 6 5 29l161 804h204q9 0 15 -4.5t6 -12.5q0 -5 -1 -12.5t-3 -15.5l-7 -34h-136l-141 -693h110q22 0 22 -18q0 -5 -1 -12t-3 -15l-7 -34h-202z" />
    <glyph glyph-name="backslash" unicode="\" horiz-adv-x="395" 
d="M351 -83q-12 0 -18.5 6t-10.5 21l-208 824h71q12 0 18.5 -6t10.5 -21l208 -824h-71z" />
    <glyph glyph-name="bracketright" unicode="]" horiz-adv-x="336" 
d="M382 768q22 0 22 -18q0 -6 -5 -29l-161 -804h-204q-9 0 -15 4.5t-6 12.5q0 5 1 12.5t3 15.5l7 34h136l141 693h-110q-22 0 -22 18q0 5 1 12t3 15l7 34h202z" />
    <glyph glyph-name="asciicircum" unicode="^" horiz-adv-x="519" 
d="M147 337q-17 0 -17 13q0 7 9 19l217 312h60q13 0 17.5 -4t8.5 -17l92 -323h-72q-11 0 -16 4.5t-9 18.5l-59 213l-162 -236h-69z" />
    <glyph glyph-name="underscore" unicode="_" horiz-adv-x="487" 
d="M12 -130q-22 0 -22 18q0 5 0.5 10t2.5 15l9 41h469q22 0 22 -19q0 -4 -1 -10t-3 -15l-8 -40h-469v0z" />
    <glyph glyph-name="grave" unicode="`" horiz-adv-x="329" 
d="M206 693q12 -28 23 -56t25 -62h-48q-13 0 -23 14l-76 119h78q13 0 21 -15z" />
    <glyph glyph-name="a" unicode="a" horiz-adv-x="510" 
d="M363 444q-44 0 -77.5 -23.5t-56.5 -61.5t-35 -86t-12 -98q0 -19 2.5 -37t10.5 -32t22 -22.5t37 -8.5q35 0 63.5 19t48.5 47l68 291q-8 3 -28 7.5t-43 4.5zM371 58q-36 -38 -72 -54t-76 -16q-66 0 -103.5 47t-37.5 133q0 69 18.5 133t54.5 113t88 78t119 29q42 0 80 -9
t58 -18t28 -16t8 -23q0 -7 -4.5 -29t-9.5 -41l-42 -177q-7 -29 -12 -63t-8 -65t-4.5 -53.5t-1.5 -26.5h-53q-14 0 -19 5.5t-7 17.5z" />
    <glyph glyph-name="b" unicode="b" horiz-adv-x="512" 
d="M255 469q29 29 61 40.5t64 11.5q65 0 104 -46.5t39 -131.5q0 -69 -18.5 -132.5t-54.5 -113t-89.5 -79t-122.5 -29.5q-39 0 -73.5 8t-54.5 16q-21 8 -29 16t-8 21q0 7 2.5 19t5.5 26l126 623h72q22 0 22 -17q0 -5 -2 -14.5t-4 -20.5zM352 440q-18 0 -35 -5.5t-31.5 -14
t-26.5 -18.5t-21 -19l-63 -303q9 -3 27.5 -7t42.5 -4q43 0 76.5 22t56.5 59.5t35 87t12 105.5q0 45 -18 71t-55 26z" />
    <glyph glyph-name="c" unicode="c" horiz-adv-x="409" 
d="M271 73q20 0 37.5 3t32.5 8q11 3 18.5 6t12.5 3q10 0 13.5 -7t7.5 -18l9 -35q-29 -19 -69.5 -31.5t-82.5 -12.5q-84 0 -127 50.5t-43 144.5q0 61 17 121t50.5 108t82.5 78t113 30q22 0 44 -4.5t38.5 -11.5t27 -16t10.5 -18q0 -5 -3 -12.5t-5 -13.5l-11 -26
q-10 5 -33.5 12.5t-57.5 7.5q-44 0 -76.5 -23t-54.5 -59.5t-32.5 -82t-10.5 -90.5q0 -51 20.5 -81t71.5 -30z" />
    <glyph glyph-name="d" unicode="d" horiz-adv-x="510" 
d="M482 208q-6 -28 -10.5 -62.5t-7.5 -65t-5 -53t-2 -27.5h-54q-14 0 -19 5.5t-7 17.5l-4 35q-36 -38 -74.5 -54t-76.5 -16q-69 0 -105.5 47t-36.5 133q0 69 19 132.5t54 112.5t85.5 78.5t112.5 29.5q25 0 48 -5t43 -13l44 215h68q26 0 26 -20q0 -5 -2 -13t-4 -19zM252 72
q34 0 64.5 19t50.5 46l61 294q-10 4 -28.5 8.5t-44.5 4.5q-41 0 -73 -22.5t-54.5 -60.5t-34.5 -87.5t-12 -103.5q0 -46 17.5 -72t53.5 -26z" />
    <glyph glyph-name="e" unicode="e" horiz-adv-x="469" 
d="M177 189v-18q0 -46 19.5 -72.5t72.5 -26.5q30 0 57.5 7t42.5 12q9 3 15.5 5t12.5 2q9 0 13 -6.5t7 -19.5l8 -34q-31 -20 -74.5 -34.5t-94.5 -14.5q-41 0 -73.5 11t-55 34.5t-35 60t-12.5 88.5q0 54 14.5 114t46.5 109.5t81.5 82t120.5 32.5q72 0 114.5 -36.5t42.5 -103.5
q0 -35 -14 -69t-48.5 -61.5t-92.5 -44.5t-146 -17h-22zM205 261q101 0 152.5 31.5t51.5 84.5q0 29 -17 48t-55 19q-34 0 -60 -15.5t-45 -41t-31 -58.5t-17 -68h21z" />
    <glyph glyph-name="f" unicode="f" horiz-adv-x="349" 
d="M-21 -95q5 -1 10 -1h10q51 0 82 42.5t50 143.5l63 344h-43q-22 0 -22 17q0 8 2.5 23t7.5 36h70l9 45q7 38 23.5 70t40 55t54 36t66.5 13q18 0 36.5 -3t34 -8.5t25.5 -14t10 -19.5q0 -6 -3 -18l-9 -30q-16 5 -35 8.5t-42 3.5q-26 0 -43 -6t-28 -18.5t-18 -31.5t-13 -45
l-8 -37h90q23 0 23 -17q0 -4 -1 -10t-3 -14l-7 -35h-116l-65 -342q-7 -38 -21.5 -84.5t-39 -86.5t-60.5 -67t-85 -27q-18 0 -35.5 7.5t-17.5 29.5q0 9 3 21z" />
    <glyph glyph-name="g" unicode="g" horiz-adv-x="507" 
d="M427 437q-8 2 -23 3.5t-36 1.5q-44 0 -78 -19t-57 -53t-35 -81t-12 -103q0 -38 16.5 -64t54.5 -26q31 0 60.5 15t49.5 39zM517 431l-76 -411q-10 -52 -32 -89.5t-53.5 -61.5t-71.5 -35t-85 -11q-48 0 -81.5 10t-42.5 15q-22 11 -22 29q0 7 2.5 16.5t7.5 21.5l8 19
q28 -13 60.5 -20.5t67.5 -7.5q66 0 102.5 30.5t47.5 81.5l9 44q-31 -28 -62 -37.5t-62 -9.5q-35 0 -63 12.5t-47 35t-29 53t-10 66.5q0 70 18.5 131.5t55.5 107.5t91 72t126 26q60 0 105 -6.5t60 -10.5q14 -3 19 -8.5t5 -12.5q0 -8 -3 -24l-7 -30z" />
    <glyph glyph-name="h" unicode="h" horiz-adv-x="528" 
d="M275 718q26 0 26 -20q0 -5 -2 -13t-4 -19l-40 -200q24 20 62 37.5t85 17.5q60 0 95.5 -32.5t35.5 -96.5q0 -17 -3.5 -43t-9.5 -58l-59 -291h-69q-16 0 -20.5 5.5t-4.5 13.5q0 5 2.5 17t4.5 25l48 239q6 30 8.5 47t2.5 34q0 58 -67 58q-42 0 -75 -19t-51 -38l-77 -382h-69
q-16 0 -20.5 5t-4.5 13q0 5 2.5 18.5t4.5 24.5l132 657h67z" />
    <glyph glyph-name="i" unicode="i" horiz-adv-x="231" 
d="M232 589q-29 0 -41.5 11.5t-12.5 29.5q0 32 18 50.5t53 18.5q29 0 42 -12t13 -29q0 -32 -18 -50.5t-54 -18.5zM235 509q16 0 20.5 -5t4.5 -13q0 -5 -2 -17t-5 -26l-91 -448h-69q-16 0 -20.5 5t-4.5 13q0 5 2 17t5 26l91 448h69z" />
    <glyph glyph-name="j" unicode="j" horiz-adv-x="234" 
d="M167 509h70q16 0 20.5 -5t4.5 -13q0 -6 -2.5 -18.5t-4.5 -24.5l-80 -393q-11 -53 -28 -95.5t-40.5 -73t-53.5 -47t-67 -16.5q-19 0 -36 7.5t-17 26.5q0 13 4 28l5 18q5 -1 9 -1h9q25 0 43 9t32 29.5t24.5 54t20.5 83.5zM233 589q-29 0 -42 10.5t-13 28.5q0 32 18.5 51.5
t53.5 19.5q29 0 41.5 -11t12.5 -28q0 -32 -18 -51.5t-53 -19.5z" />
    <glyph glyph-name="k" unicode="k" horiz-adv-x="486" 
d="M277 718q26 0 26 -20q0 -5 -3 -18t-5 -24l-71 -348q75 52 134 107.5t91 93.5h82q8 0 11.5 -3.5t3.5 -8.5q0 -7 -5 -14t-10 -13q-7 -9 -27.5 -30.5t-51 -49.5t-68.5 -58.5t-80 -56.5q67 -70 111 -143.5t70 -131.5h-82q-15 0 -23.5 5t-14.5 18q-25 51 -64 112.5t-88 111.5
l-50 -247h-69q-25 0 -25 19q0 5 2 15.5t4 21.5l134 662h68z" />
    <glyph glyph-name="l" unicode="l" horiz-adv-x="286" 
d="M184 133q-2 -8 -3 -16.5t-1 -16.5q0 -14 8.5 -18.5t17.5 -4.5q15 0 25.5 2t18.5 2q9 0 12.5 -6t5.5 -17l6 -39q-8 -5 -37.5 -14t-66.5 -9q-41 0 -67 19.5t-26 60.5q0 22 6 51l119 591h70q24 0 24 -19q0 -5 -2 -13t-4 -20z" />
    <glyph glyph-name="m" unicode="m" horiz-adv-x="800" 
d="M223 510q12 0 16 -3t5 -9q1 -5 1 -9.5v-10.5v-19q24 23 59.5 42.5t83.5 19.5q46 0 77 -18t43 -56q28 29 69.5 51.5t94.5 22.5q62 0 97 -32t35 -97q0 -38 -12 -101l-60 -291h-69q-16 0 -20.5 5.5t-4.5 13.5q0 5 2.5 17t4.5 25l48 239q6 30 8.5 47t2.5 34q0 28 -17 43
t-46 15q-20 0 -38 -6t-34 -15t-28.5 -20t-21.5 -21q-1 -14 -4 -36t-9 -50l-59 -291h-68q-17 0 -21.5 5.5t-4.5 13.5q0 5 2.5 17t4.5 25l48 239q6 30 8.5 47t2.5 34q0 58 -64 58q-40 0 -69 -19t-46 -38l-77 -382h-69q-16 0 -20.5 5.5t-4.5 13.5q0 5 2.5 18t4.5 24l90 449h57z
" />
    <glyph glyph-name="n" unicode="n" horiz-adv-x="530" 
d="M224 510q20 0 21 -12q1 -5 1 -9v-10v-21q24 23 65.5 43t91.5 20q58 0 94.5 -31.5t36.5 -97.5q0 -18 -3.5 -43.5t-9.5 -57.5l-59 -291h-68q-16 0 -21 5.5t-5 13.5q0 5 2.5 17t4.5 25l48 239q6 30 8.5 47t2.5 34q0 58 -69 58q-21 0 -39.5 -5.5t-34.5 -14t-28.5 -18.5
t-21.5 -19l-77 -382h-70q-15 0 -19.5 5.5t-4.5 13.5q0 5 2.5 18t4.5 24l90 449h57z" />
    <glyph glyph-name="o" unicode="o" horiz-adv-x="518" 
d="M85 180q0 67 18 128.5t52 108.5t83.5 75.5t112.5 28.5q83 0 132.5 -48.5t49.5 -142.5q0 -66 -17 -128t-50.5 -109t-83 -75.5t-113.5 -28.5q-85 0 -134.5 48t-49.5 143zM183 182q0 -48 21 -79t67 -31q41 0 71.5 22t51 58.5t31 82.5t10.5 94q0 49 -20.5 79.5t-65.5 30.5
q-41 0 -72 -22.5t-52 -58.5t-31.5 -82t-10.5 -94z" />
    <glyph glyph-name="p" unicode="p" horiz-adv-x="517" 
d="M276 79q45 0 74.5 24t47 60.5t24.5 79.5t7 81q0 117 -125 117q-25 0 -46 -3l-66 -334q8 -6 29 -15.5t55 -9.5zM158 432h-18q-8 0 -14 3t-6 12q0 4 1 12.5t3 16.5l6 27q35 6 82 10.5t92 4.5q49 0 90.5 -12.5t71 -38.5t46 -66t16.5 -94q0 -51 -13.5 -105t-43 -98.5
t-74.5 -73.5t-108 -29q-29 0 -58.5 7t-54.5 24l-42 -202h-65q-11 0 -19 3t-8 15q0 8 5 33z" />
    <glyph glyph-name="q" unicode="q" horiz-adv-x="511" 
d="M432 439q-10 2 -25 3t-35 1q-45 0 -80.5 -21t-60.5 -57.5t-38 -85.5t-13 -104q0 -40 18.5 -65.5t56.5 -25.5q31 0 62.5 16t51.5 39zM352 47q-31 -26 -63 -36t-61 -10q-66 0 -107 44.5t-41 119.5q0 72 18.5 136.5t55.5 112.5t93 76.5t130 28.5q62 0 106 -6t65 -11
q14 -4 19 -9t5 -14q0 -5 -1.5 -14t-3.5 -16l-5 -22l-38 4q-26 -154 -57 -301t-61 -300h-66q-11 0 -18.5 3.5t-7.5 15.5q0 7 5 32q9 42 17 83t16 83z" />
    <glyph glyph-name="r" unicode="r" horiz-adv-x="352" 
d="M410 419q-9 2 -17.5 2h-14.5q-36 0 -75 -15.5t-68 -44.5l-72 -361h-70q-15 0 -19.5 5.5t-4.5 13.5q0 5 2.5 18t4.5 24l90 449h60q9 0 15 -3.5t6 -14.5q0 -5 -0.5 -11.5t-1.5 -13.5l-2 -25q27 29 66.5 49.5t84.5 20.5q31 0 31 -22q0 -6 -2 -15l-4 -18z" />
    <glyph glyph-name="s" unicode="s" horiz-adv-x="422" 
d="M207 -11q-41 0 -77.5 9t-56.5 18q-15 7 -22 13.5t-7 17.5q0 7 2.5 16t5.5 17l8 22q5 -3 19.5 -8t34 -10t42.5 -9t46 -4q22 0 43.5 4t38.5 13t27 24t10 38q0 24 -17.5 40.5t-65.5 33.5q-27 10 -51.5 21t-43.5 27t-30 37.5t-11 51.5q0 39 16 69t44 50.5t65.5 30.5t80.5 10
q48 0 80 -10t43 -15q14 -7 20 -14t6 -15q0 -11 -7 -30l-9 -23q-15 7 -51.5 17t-81.5 10q-18 0 -37 -3t-34.5 -11t-26 -22t-10.5 -37q0 -13 5.5 -22.5t17 -17t29 -15t41.5 -16.5q27 -11 50 -23t40 -28t26.5 -37.5t9.5 -51.5q0 -42 -17 -73.5t-45.5 -52.5t-67.5 -31.5
t-82 -10.5z" />
    <glyph glyph-name="t" unicode="t" horiz-adv-x="356" 
d="M251 72q18 0 37 5t25 5q8 0 12 -5.5t7 -16.5l8 -36q-26 -14 -58 -22t-65 -8q-50 0 -78 25t-28 73q0 21 3.5 43t8.5 44l52 255h-42q-22 0 -22 17q0 6 2 17t4 24l4 18h68l27 131h70q24 0 24 -18q0 -10 -5 -32l-17 -81h102q23 0 23 -17q0 -5 -1.5 -11.5t-3.5 -17.5l-6 -30
h-128l-59 -290q-2 -12 -3 -21t-1 -16q0 -20 11.5 -27.5t28.5 -7.5z" />
    <glyph glyph-name="u" unicode="u" horiz-adv-x="522" 
d="M493 208q-6 -29 -10.5 -62t-8 -63t-5.5 -53t-2 -30h-52q-14 0 -19.5 5t-7.5 18l-5 37q-28 -29 -69 -50t-92 -21q-61 0 -97.5 33.5t-36.5 99.5q0 13 3 38t10 59l59 291h69q15 0 20 -5.5t5 -13.5q0 -5 -2.5 -17t-4.5 -25l-48 -240q-6 -29 -8.5 -46t-2.5 -32q0 -60 67 -60
q20 0 38 5.5t34 14.5t28.5 19t21.5 19l77 381h69q15 0 20 -5t5 -13q0 -6 -2.5 -19t-4.5 -24z" />
    <glyph glyph-name="v" unicode="v" horiz-adv-x="453" 
d="M500 435q-20 -54 -47 -110.5t-57.5 -112.5t-65 -110t-69.5 -102h-53q-18 0 -26.5 5.5t-13.5 23.5q-10 33 -20.5 78t-19.5 96.5t-14.5 108t-5.5 113.5q0 17 0.5 36t2.5 49h70q15 0 20 -5.5t5 -25.5v-51q0 -99 7.5 -175.5t24.5 -149.5q54 90 103.5 195t84.5 212h69
q20 0 20 -16q0 -17 -15 -59z" />
    <glyph glyph-name="w" unicode="w" horiz-adv-x="693" 
d="M497 119q22 43 44.5 92t43 100t38.5 101.5t32 97.5h71q12 0 15.5 -4.5t3.5 -11.5q0 -8 -4 -23t-12 -36q-18 -52 -41.5 -108.5t-49.5 -113t-55.5 -111t-59.5 -102.5h-57q-18 0 -26 8t-10 26l-24 316l-163 -350h-58q-17 0 -25.5 5.5t-13.5 23.5q-20 88 -29 187t-9 209v36
t2 49h69q15 0 20.5 -5.5t5.5 -23.5q0 -8 -0.5 -34t-0.5 -71q0 -21 0.5 -51t2 -65.5t4.5 -74t8 -75.5l164 357h65q23 0 24 -23z" />
    <glyph glyph-name="x" unicode="x" horiz-adv-x="447" 
d="M497 510q22 0 22 -16q0 -15 -19 -43q-18 -27 -39 -53.5t-43 -51.5t-44.5 -47.5t-42.5 -40.5q22 -33 41.5 -70.5t33.5 -73t23 -66t12 -48.5h-69q-14 0 -22 5.5t-12 20.5q-5 18 -12 41t-16 47t-20 48.5t-24 45.5q-53 -48 -91.5 -101.5t-70.5 -106.5h-62q-23 0 -23 14
q0 8 6 21.5t14 24.5q34 50 76 101t105 106q-15 23 -32 51.5t-32 60t-28 65t-21 66.5h77q13 0 18 -6t10 -20q13 -39 32.5 -86t41.5 -80q42 42 83 93.5t69 98.5h59z" />
    <glyph glyph-name="y" unicode="y" horiz-adv-x="471" 
d="M50 -174q-23 0 -38.5 9.5t-15.5 26.5q0 9 3 26l4 20q5 -1 14.5 -1.5t17.5 -0.5q44 0 80.5 30t78.5 89q-17 37 -31 83.5t-24.5 98t-16.5 107t-6 111.5v36t2 49h72q14 0 19 -6t5 -25v-51q0 -91 9 -172t31 -150q57 91 102.5 191.5t83.5 212.5h70q12 0 15.5 -4.5t3.5 -11.5
q0 -8 -4.5 -22.5t-11.5 -36.5q-13 -39 -36 -91t-52.5 -108.5t-63 -113t-66.5 -103.5q-65 -92 -122 -142.5t-123 -50.5z" />
    <glyph glyph-name="z" unicode="z" horiz-adv-x="445" 
d="M57 0q-12 0 -16 4.5t-4 12.5q0 9 5 31l6 29q66 78 153 170.5t177 182.5h-227q-21 0 -21 17q0 9 5 31l7 32h338q12 0 16 -4.5t4 -11.5t-6 -34l-6 -30q-49 -48 -97 -97t-91.5 -94.5t-81 -86t-64.5 -72.5h240q21 0 21 -17q0 -7 -5 -30l-7 -33h-346v0z" />
    <glyph glyph-name="braceleft" unicode="{" horiz-adv-x="330" 
d="M275 487q-5 -24 -11 -48.5t-15.5 -44.5t-24.5 -34t-38 -18q20 -7 32.5 -21t12.5 -41q0 -9 -2.5 -23t-6.5 -34l-27 -134q-2 -12 -5 -29.5t-3 -29.5q0 -41 50 -41q14 0 25 1.5t19 1.5q13 0 13 -9q0 -6 -3 -21l-7 -37q-20 -6 -43 -9.5t-42 -3.5q-51 0 -79.5 25.5t-28.5 71.5
q0 17 3.5 38.5t8.5 42.5l27 136q3 14 5.5 25t2.5 18q0 10 -4 14t-12 9t-15.5 8t-7.5 14q0 4 1.5 10.5t3.5 13.5l10 48q28 1 40.5 12.5t20.5 50.5l34 170q6 29 14.5 56.5t24.5 49t41 34.5t63 13q11 0 27 -1t31 -4.5t26 -10t11 -17.5q0 -8 -4 -25l-6 -24q-10 2 -24.5 4
t-31.5 2q-23 0 -37.5 -7t-23 -19.5t-13.5 -31t-9 -40.5z" />
    <glyph glyph-name="bar" unicode="|" horiz-adv-x="257" 
d="M232 768h66q22 0 22 -17q0 -5 -2.5 -17t-4.5 -24l-159 -793h-66q-22 0 -22 17q0 5 2.5 16t4.5 23z" />
    <glyph glyph-name="braceright" unicode="}" horiz-adv-x="336" 
d="M188 197q5 24 11 48.5t15.5 44.5t24.5 34t38 18q-20 7 -32.5 21t-12.5 41q0 9 2.5 23t6.5 34l27 134q2 12 5 29.5t3 29.5q0 41 -50 41q-14 0 -25 -1.5t-19 -1.5q-13 0 -13 9q0 6 3 21l7 37q20 6 43 9.5t42 3.5q51 0 79.5 -25.5t28.5 -71.5q0 -17 -3.5 -38.5t-8.5 -42.5
l-27 -136q-3 -14 -5.5 -25t-2.5 -18q0 -10 4 -14t12 -9t15.5 -8t7.5 -14q0 -4 -1.5 -10.5t-3.5 -13.5l-10 -48q-28 -1 -40.5 -12.5t-20.5 -50.5l-34 -170q-6 -29 -15 -56.5t-24.5 -49t-40.5 -34.5t-63 -13q-11 0 -27 1t-31 4.5t-26 10t-11 17.5q0 8 4 25l6 24q10 -2 24.5 -4
t31.5 -2q23 0 37.5 7t23 19.5t13 30.5t9.5 41z" />
    <glyph glyph-name="asciitilde" unicode="~" horiz-adv-x="457" 
d="M499 408q14 0 18 -5t4 -14q0 -29 -11 -53.5t-30 -42.5t-44 -28t-53 -10q-30 0 -55 12t-46 29q-19 16 -36 27t-36 11q-25 0 -36.5 -21t-19.5 -55h-46q-14 0 -18.5 5t-4.5 14q0 28 11.5 52.5t30 42.5t43.5 28.5t52 10.5q29 0 57.5 -14.5t53.5 -34.5q19 -15 32.5 -23
t31.5 -8q26 0 37 21t18 56h47z" />
    <glyph glyph-name="quotesinglbase" unicode="&#x201a;" horiz-adv-x="233" 
d="M213 70q0 -29 -14 -55.5t-34 -52.5l-51 -72h-44q-15 0 -15 10q0 7 11 23l54 81q-17 4 -27.5 14t-10.5 30q0 33 19.5 53t55.5 20q27 0 41.5 -14t14.5 -37z" />
    <glyph glyph-name="quotedblbase" unicode="&#x201e;" horiz-adv-x="380" 
d="M55 0zM213 70q0 -29 -14 -55.5t-34 -52.5l-51 -72h-44q-15 0 -15 10q0 7 11 23l54 81q-17 4 -27.5 14t-10.5 30q0 33 19.5 53t55.5 20q27 0 41.5 -14t14.5 -37zM383 70q0 -29 -14 -55.5t-34 -52.5l-51 -72h-44q-15 0 -15 10q0 7 11 23l54 81q-17 4 -27.5 14t-10.5 30
q0 33 19.5 53t55.5 20q27 0 41.5 -14t14.5 -37z" />
    <glyph glyph-name="circumflex" unicode="&#x2c6;" horiz-adv-x="356" 
d="M117 573q-11 0 -11 10q0 7 9 18q22 28 49.5 59t57.5 61h61q11 0 17.5 -3.5t11.5 -16.5l52 -128h-57q-10 0 -14.5 3.5t-8.5 12.5l-30 74l-76 -90h-61z" />
    <glyph glyph-name="quoteleft" unicode="&#x2018;" horiz-adv-x="203" 
d="M135 514q0 29 14 55.5t34 52.5l51 73h44q15 0 15 -11q0 -8 -11 -22l-54 -82q17 -3 27.5 -13t10.5 -30q0 -33 -19.5 -53t-55.5 -20q-27 0 -41.5 13.5t-14.5 36.5z" />
    <glyph glyph-name="quoteright" unicode="&#x2019;" horiz-adv-x="206" 
d="M290 646q0 -29 -14 -55.5t-34 -52.5l-51 -72h-44q-15 0 -15 10q0 7 11 23l54 81q-17 4 -27.5 14t-10.5 30q0 33 19.5 53t55.5 20q27 0 41.5 -14t14.5 -37z" />
    <glyph glyph-name="quotedblleft" unicode="&#x201c;" horiz-adv-x="374" 
d="M135 464zM305 514q0 29 14 55.5t34 52.5l51 73h44q15 0 15 -11q0 -8 -11 -22l-54 -82q17 -3 27.5 -13t10.5 -30q0 -33 -19.5 -53t-55.5 -20q-27 0 -41.5 13.5t-14.5 36.5zM135 514q0 29 14 55.5t34 52.5l51 73h44q15 0 15 -11q0 -8 -11 -22l-54 -82q17 -3 27.5 -13
t10.5 -30q0 -33 -19.5 -53t-55.5 -20q-27 0 -41.5 13.5t-14.5 36.5z" />
    <glyph glyph-name="quotedblright" unicode="&#x201d;" horiz-adv-x="376" 
d="M132 466zM460 646q0 -29 -14 -55.5t-34 -52.5l-51 -72h-44q-15 0 -15 10q0 7 11 23l54 81q-17 4 -27.5 14t-10.5 30q0 33 19.5 53t55.5 20q27 0 41.5 -14t14.5 -37zM290 646q0 -29 -14 -55.5t-34 -52.5l-51 -72h-44q-15 0 -15 10q0 7 11 23l54 81q-17 4 -27.5 14
t-10.5 30q0 33 19.5 53t55.5 20q27 0 41.5 -14t14.5 -37z" />
    <glyph glyph-name="tilde" unicode="&#x2dc;" horiz-adv-x="362" 
d="M391 702q9 0 12 -3.5t3 -9.5q0 -24 -8 -44t-21.5 -34.5t-31.5 -22.5t-37 -8q-38 0 -74 31q-10 8 -21.5 18t-26.5 10q-19 0 -26.5 -19t-11.5 -38h-41q-9 0 -12 3.5t-3 9.5q0 25 8.5 45t22 34.5t31.5 22t37 7.5q23 0 40 -9t34 -23q14 -11 24.5 -19.5t21.5 -8.5q18 0 26 17
t13 41h41z" />
    <glyph glyph-name="uni00A0" unicode="&#xa0;" horiz-adv-x="206" 
 />
    <glyph glyph-name="dieresis" unicode="&#xa8;" horiz-adv-x="365" 
d="M146 589q-28 0 -40.5 11.5t-12.5 28.5q0 31 17.5 49.5t52.5 18.5q28 0 41 -11.5t13 -28.5q0 -31 -18 -49.5t-53 -18.5zM335 589q-28 0 -40.5 11.5t-12.5 28.5q0 31 17.5 49.5t52.5 18.5q28 0 41 -11.5t13 -28.5q0 -31 -18 -49.5t-53 -18.5z" />
    <glyph glyph-name="acute" unicode="&#xb4;" horiz-adv-x="344" 
d="M181 575q-12 0 -12 8q0 5 3 11q16 24 37.5 54.5t41.5 59.5h67q8 0 11 -4t3 -9t-2.5 -10.5t-10.5 -13.5l-92 -96h-46z" />
    <glyph glyph-name="cedilla" unicode="&#xb8;" horiz-adv-x="434" 
d="M254 5l-32 -53l14 -5q23 -8 36.5 -23.5t13.5 -38.5q0 -39 -31.5 -60.5t-79.5 -21.5q-31 0 -53 8q-10 4 -10 13q0 6 3 14l5 17q7 -2 17 -3t21 -1q18 0 37 5.5t19 25.5q0 11 -8.5 15.5t-22.5 9.5l-13 4q-15 5 -15 13q0 7 4.5 15t9.5 18l29 48h56z" />
    <glyph glyph-name="Agrave" unicode="&#xc0;" horiz-adv-x="524" 
d="M29 0zM193 194q-20 -50 -38.5 -99.5t-32.5 -94.5h-71q-12 0 -17 5t-5 13q0 10 3 19.5t8 23.5q38 107 112.5 268t195.5 364h89q28 0 34 -31q11 -68 20 -171.5t9 -224.5q0 -74 -2 -140t-6 -126h-75q-22 0 -22 23q0 6 1 25t2.5 44t3 52t2.5 50h-211zM391 611
q-26 -47 -47.5 -89.5t-41.5 -83t-38.5 -81t-37.5 -82.5h179q1 13 1.5 26t0.5 24q0 70 -2.5 140t-13.5 146zM391 745q-14 0 -22 14l-71 110h82q13 0 21 -15q11 -24 21 -50.5t21 -58.5h-52z" />
    <glyph glyph-name="Aacute" unicode="&#xc1;" horiz-adv-x="524" 
d="M29 0zM193 194q-20 -50 -38.5 -99.5t-32.5 -94.5h-71q-12 0 -17 5t-5 13q0 10 3 19.5t8 23.5q38 107 112.5 268t195.5 364h89q28 0 34 -31q11 -68 20 -171.5t9 -224.5q0 -74 -2 -140t-6 -126h-75q-22 0 -22 23q0 6 1 25t2.5 44t3 52t2.5 50h-211zM391 611
q-26 -47 -47.5 -89.5t-41.5 -83t-38.5 -81t-37.5 -82.5h179q1 13 1.5 26t0.5 24q0 70 -2.5 140t-13.5 146zM371 745q-12 0 -12 8q0 5 3 11q14 22 34 50.5t39 54.5h69q8 0 11 -4t3 -9t-2.5 -10.5t-10.5 -13.5l-83 -87h-51z" />
    <glyph glyph-name="Acircumflex" unicode="&#xc2;" horiz-adv-x="524" 
d="M29 0zM193 194q-20 -50 -38.5 -99.5t-32.5 -94.5h-71q-12 0 -17 5t-5 13q0 10 3 19.5t8 23.5q38 107 112.5 268t195.5 364h89q28 0 34 -31q11 -68 20 -171.5t9 -224.5q0 -74 -2 -140t-6 -126h-75q-22 0 -22 23q0 6 1 25t2.5 44t3 52t2.5 50h-211zM391 611
q-26 -47 -47.5 -89.5t-41.5 -83t-38.5 -81t-37.5 -82.5h179q1 13 1.5 26t0.5 24q0 70 -2.5 140t-13.5 146zM306 745q-11 0 -11 10q0 7 9 18q11 14 20.5 25l19 22t21 22.5l26.5 26.5h61q11 0 17.5 -3.5t11.5 -16.5l42 -104h-57q-10 0 -14.5 3.5t-8.5 12.5l-20 47l-56 -63h-61
z" />
    <glyph glyph-name="Atilde" unicode="&#xc3;" horiz-adv-x="524" 
d="M29 0zM193 194q-20 -50 -38.5 -99.5t-32.5 -94.5h-71q-12 0 -17 5t-5 13q0 10 3 19.5t8 23.5q38 107 112.5 268t195.5 364h89q28 0 34 -31q11 -68 20 -171.5t9 -224.5q0 -74 -2 -140t-6 -126h-75q-22 0 -22 23q0 6 1 25t2.5 44t3 52t2.5 50h-211zM391 611
q-26 -47 -47.5 -89.5t-41.5 -83t-38.5 -81t-37.5 -82.5h179q1 13 1.5 26t0.5 24q0 70 -2.5 140t-13.5 146zM563 874q9 0 12 -3.5t3 -9.5q0 -24 -8 -44t-21.5 -34.5t-31.5 -22.5t-37 -8q-38 0 -74 31q-10 8 -21.5 18t-26.5 10q-19 0 -26.5 -19t-11.5 -38h-41q-9 0 -12 3.5
t-3 9.5q0 25 8.5 45t22 34.5t31.5 22t37 7.5q23 0 40 -9t34 -23q14 -11 24.5 -19.5t21.5 -8.5q18 0 26 17t13 41h41z" />
    <glyph glyph-name="Adieresis" unicode="&#xc4;" horiz-adv-x="524" 
d="M29 0zM193 194q-20 -50 -38.5 -99.5t-32.5 -94.5h-71q-12 0 -17 5t-5 13q0 10 3 19.5t8 23.5q38 107 112.5 268t195.5 364h89q28 0 34 -31q11 -68 20 -171.5t9 -224.5q0 -74 -2 -140t-6 -126h-75q-22 0 -22 23q0 6 1 25t2.5 44t3 52t2.5 50h-211zM391 611
q-26 -47 -47.5 -89.5t-41.5 -83t-38.5 -81t-37.5 -82.5h179q1 13 1.5 26t0.5 24q0 70 -2.5 140t-13.5 146zM324 759q-27 0 -39.5 11t-12.5 28q0 30 17.5 48.5t51.5 18.5q27 0 40 -11.5t13 -27.5q0 -30 -17.5 -48.5t-52.5 -18.5zM509 759q-27 0 -39.5 11t-12.5 28
q0 30 17.5 48.5t51.5 18.5q27 0 40 -11.5t13 -27.5q0 -30 -17.5 -48.5t-52.5 -18.5z" />
    <glyph glyph-name="Ccedilla" unicode="&#xc7;" horiz-adv-x="489" 
d="M450 703q20 0 42.5 -4t41 -10.5t31 -16t12.5 -20.5q0 -10 -7 -29l-11 -28q-16 6 -43 13t-59 7q-63 0 -109.5 -37t-77.5 -93.5t-46 -124.5t-15 -130q0 -79 26 -114t88 -35q27 0 51.5 6.5t46.5 15.5q7 3 14 5.5t12 2.5q14 0 20 -24l11 -44q-28 -20 -68 -35t-88 -18l-22 -38
l14 -5q23 -8 36.5 -23.5t13.5 -38.5q0 -39 -31.5 -60.5t-79.5 -21.5q-31 0 -53 8q-10 4 -10 13q0 6 3 14l5 17q7 -2 17 -3t21 -1q18 0 37 5.5t19 25.5q0 11 -8.5 15.5t-22.5 9.5l-13 4q-15 5 -15 13q0 7 4.5 15t9.5 18l20 34q-81 10 -122.5 66.5t-41.5 163.5q0 57 10.5 115
t31 111.5t50 100t68 81t85.5 54.5t102 20z" />
    <glyph glyph-name="Eacute" unicode="&#xc9;" horiz-adv-x="506" 
d="M72 0zM205 693h354q23 0 23 -18q0 -4 -1 -12.5t-3 -15.5l-8 -40h-284l-43 -213h230q23 0 23 -19q0 -4 -1 -12t-3 -16l-8 -40h-258l-45 -221h266q23 0 23 -18q0 -4 -1 -12.5t-3 -15.5l-8 -40h-362q-14 0 -19 5t-5 14q0 6 3.5 23.5t7.5 38.5zM375 745q-12 0 -12 8q0 5 3 11
q14 22 34 50.5t39 54.5h69q8 0 11 -4t3 -9t-2.5 -10.5t-10.5 -13.5l-83 -87h-51z" />
    <glyph glyph-name="Ecircumflex" unicode="&#xca;" horiz-adv-x="506" 
d="M72 0zM205 693h354q23 0 23 -18q0 -4 -1 -12.5t-3 -15.5l-8 -40h-284l-43 -213h230q23 0 23 -19q0 -4 -1 -12t-3 -16l-8 -40h-258l-45 -221h266q23 0 23 -18q0 -4 -1 -12.5t-3 -15.5l-8 -40h-362q-14 0 -19 5t-5 14q0 6 3.5 23.5t7.5 38.5zM306 745q-11 0 -11 10
q0 7 9 18q11 14 20.5 25l19 22t21 22.5l26.5 26.5h61q11 0 17.5 -3.5t11.5 -16.5l42 -104h-57q-10 0 -14.5 3.5t-8.5 12.5l-20 47l-56 -63h-61z" />
    <glyph glyph-name="Iacute" unicode="&#xcd;" horiz-adv-x="246" 
d="M74 0zM170 0h-72q-14 0 -19 5t-5 14q0 6 3 25t8 41l122 608h72q14 0 19 -5t5 -14q0 -6 -3.5 -24t-7.5 -40zM239 745q-12 0 -12 8q0 5 3 11q14 22 34 50.5t39 54.5h69q8 0 11 -4t3 -9t-2.5 -10.5t-10.5 -13.5l-83 -87h-51z" />
    <glyph glyph-name="Oacute" unicode="&#xd3;" horiz-adv-x="610" 
d="M108 0zM211 233q0 -32 7 -60t21 -49t34.5 -33t48.5 -12q53 0 93.5 35t68 90.5t41.5 124t14 134.5q0 31 -7 58.5t-20.5 47.5t-34 32t-48.5 12q-52 0 -92.5 -33t-68.5 -86.5t-42.5 -121.5t-14.5 -139zM316 -11q-97 0 -152.5 64t-55.5 185q0 97 24 182t67.5 148t103.5 99
t132 36q46 0 84.5 -16.5t65.5 -48t42 -77t15 -104.5q0 -96 -23.5 -181t-66.5 -149t-103 -101t-133 -37zM429 745q-12 0 -12 8q0 5 3 11q14 22 34 50.5t39 54.5h69q8 0 11 -4t3 -9t-2.5 -10.5t-10.5 -13.5l-83 -87h-51z" />
    <glyph glyph-name="Ocircumflex" unicode="&#xd4;" horiz-adv-x="610" 
d="M108 0zM211 233q0 -32 7 -60t21 -49t34.5 -33t48.5 -12q53 0 93.5 35t68 90.5t41.5 124t14 134.5q0 31 -7 58.5t-20.5 47.5t-34 32t-48.5 12q-52 0 -92.5 -33t-68.5 -86.5t-42.5 -121.5t-14.5 -139zM316 -11q-97 0 -152.5 64t-55.5 185q0 97 24 182t67.5 148t103.5 99
t132 36q46 0 84.5 -16.5t65.5 -48t42 -77t15 -104.5q0 -96 -23.5 -181t-66.5 -149t-103 -101t-133 -37zM361 745q-11 0 -11 10q0 7 9 18q11 14 20.5 25l19 22t21 22.5l26.5 26.5h61q11 0 17.5 -3.5t11.5 -16.5l42 -104h-57q-10 0 -14.5 3.5t-8.5 12.5l-20 47l-56 -63h-61z
" />
    <glyph glyph-name="Otilde" unicode="&#xd5;" horiz-adv-x="610" 
d="M108 0zM211 233q0 -32 7 -60t21 -49t34.5 -33t48.5 -12q53 0 93.5 35t68 90.5t41.5 124t14 134.5q0 31 -7 58.5t-20.5 47.5t-34 32t-48.5 12q-52 0 -92.5 -33t-68.5 -86.5t-42.5 -121.5t-14.5 -139zM316 -11q-97 0 -152.5 64t-55.5 185q0 97 24 182t67.5 148t103.5 99
t132 36q46 0 84.5 -16.5t65.5 -48t42 -77t15 -104.5q0 -96 -23.5 -181t-66.5 -149t-103 -101t-133 -37zM607 874q9 0 12 -3.5t3 -9.5q0 -24 -8 -44t-21.5 -34.5t-31.5 -22.5t-37 -8q-38 0 -74 31q-10 8 -21.5 18t-26.5 10q-19 0 -26.5 -19t-11.5 -38h-41q-9 0 -12 3.5
t-3 9.5q0 25 8.5 45t22 34.5t31.5 22t37 7.5q23 0 40 -9t34 -23q14 -11 24.5 -19.5t21.5 -8.5q18 0 26 17t13 41h41z" />
    <glyph glyph-name="Odieresis" unicode="&#xd6;" horiz-adv-x="610" 
d="M108 0zM211 233q0 -32 7 -60t21 -49t34.5 -33t48.5 -12q53 0 93.5 35t68 90.5t41.5 124t14 134.5q0 31 -7 58.5t-20.5 47.5t-34 32t-48.5 12q-52 0 -92.5 -33t-68.5 -86.5t-42.5 -121.5t-14.5 -139zM316 -11q-97 0 -152.5 64t-55.5 185q0 97 24 182t67.5 148t103.5 99
t132 36q46 0 84.5 -16.5t65.5 -48t42 -77t15 -104.5q0 -96 -23.5 -181t-66.5 -149t-103 -101t-133 -37zM365 759q-27 0 -39.5 11t-12.5 28q0 30 17.5 48.5t51.5 18.5q27 0 40 -11.5t13 -27.5q0 -30 -17.5 -48.5t-52.5 -18.5zM550 759q-27 0 -39.5 11t-12.5 28
q0 30 17.5 48.5t51.5 18.5q27 0 40 -11.5t13 -27.5q0 -30 -17.5 -48.5t-52.5 -18.5z" />
    <glyph glyph-name="Uacute" unicode="&#xda;" horiz-adv-x="589" 
d="M108 0zM221 259q-4 -19 -8 -44.5t-4 -48.5q0 -40 21 -64t76 -24q69 0 105.5 42.5t51.5 116.5l92 456h74q14 0 18.5 -5t4.5 -14q0 -6 -4 -27.5t-7 -36.5l-73 -365q-14 -69 -36.5 -118t-55.5 -79.5t-76.5 -44.5t-98.5 -14q-41 0 -76 9t-61 29t-41 52.5t-15 79.5
q0 23 4.5 54.5t9.5 59.5l84 420h73q14 0 19.5 -5t5.5 -14q0 -3 -1.5 -10.5t-3 -17t-4 -19.5t-3.5 -17zM418 745q-12 0 -12 8q0 5 3 11q14 22 34 50.5t39 54.5h69q8 0 11 -4t3 -9t-2.5 -10.5t-10.5 -13.5l-83 -87h-51z" />
    <glyph glyph-name="Udieresis" unicode="&#xdc;" horiz-adv-x="589" 
d="M108 0zM221 259q-4 -19 -8 -44.5t-4 -48.5q0 -40 21 -64t76 -24q69 0 105.5 42.5t51.5 116.5l92 456h74q14 0 18.5 -5t4.5 -14q0 -6 -4 -27.5t-7 -36.5l-73 -365q-14 -69 -36.5 -118t-55.5 -79.5t-76.5 -44.5t-98.5 -14q-41 0 -76 9t-61 29t-41 52.5t-15 79.5
q0 23 4.5 54.5t9.5 59.5l84 420h73q14 0 19.5 -5t5.5 -14q0 -3 -1.5 -10.5t-3 -17t-4 -19.5t-3.5 -17zM352 759q-27 0 -39.5 11t-12.5 28q0 30 17.5 48.5t51.5 18.5q27 0 40 -11.5t13 -27.5q0 -30 -17.5 -48.5t-52.5 -18.5zM537 759q-27 0 -39.5 11t-12.5 28q0 30 17.5 48.5
t51.5 18.5q27 0 40 -11.5t13 -27.5q0 -30 -17.5 -48.5t-52.5 -18.5z" />
    <glyph glyph-name="germandbls" unicode="&#xdf;" horiz-adv-x="548" 
d="M93 0q-23 0 -23 19q0 6 2.5 19.5t5.5 27.5l90 446q19 98 73 156t155 58q35 0 67 -9.5t56 -28t38.5 -47t14.5 -65.5q0 -44 -20.5 -73t-54.5 -60q-31 -28 -45.5 -44t-14.5 -30q0 -15 16 -33.5t35 -40.5q23 -26 39.5 -56.5t16.5 -72.5q0 -39 -14.5 -71t-40 -54.5t-61 -35
t-77.5 -12.5q-35 0 -61.5 6.5t-40.5 14.5q-19 11 -19 25q0 13 7 30l10 23q17 -8 43 -14.5t54 -6.5q46 0 73.5 23.5t27.5 63.5q0 29 -13.5 51t-31.5 44q-23 26 -40.5 47.5t-17.5 50.5q0 19 6 35t16.5 31t25 29t32.5 30q23 21 39.5 41.5t16.5 50.5q0 37 -25.5 57t-63.5 20
q-28 0 -48.5 -10.5t-35.5 -29t-24.5 -44t-15.5 -55.5l-102 -506h-70z" />
    <glyph glyph-name="agrave" unicode="&#xe0;" horiz-adv-x="510" 
d="M82 0zM363 444q-44 0 -77.5 -23.5t-56.5 -61.5t-35 -86t-12 -98q0 -19 2.5 -37t10.5 -32t22 -22.5t37 -8.5q35 0 63.5 19t48.5 47l68 291q-8 3 -28 7.5t-43 4.5zM371 58q-36 -38 -72 -54t-76 -16q-66 0 -103.5 47t-37.5 133q0 69 18.5 133t54.5 113t88 78t119 29
q42 0 80 -9t58 -18t28 -16t8 -23q0 -7 -4.5 -29t-9.5 -41l-42 -177q-7 -29 -12 -63t-8 -65t-4.5 -53.5t-1.5 -26.5h-53q-14 0 -19 5.5t-7 17.5zM383 693q12 -28 23 -56t25 -62h-48q-13 0 -23 14l-76 119h78q13 0 21 -15z" />
    <glyph glyph-name="aacute" unicode="&#xe1;" horiz-adv-x="510" 
d="M82 0zM363 444q-44 0 -77.5 -23.5t-56.5 -61.5t-35 -86t-12 -98q0 -19 2.5 -37t10.5 -32t22 -22.5t37 -8.5q35 0 63.5 19t48.5 47l68 291q-8 3 -28 7.5t-43 4.5zM371 58q-36 -38 -72 -54t-76 -16q-66 0 -103.5 47t-37.5 133q0 69 18.5 133t54.5 113t88 78t119 29
q42 0 80 -9t58 -18t28 -16t8 -23q0 -7 -4.5 -29t-9.5 -41l-42 -177q-7 -29 -12 -63t-8 -65t-4.5 -53.5t-1.5 -26.5h-53q-14 0 -19 5.5t-7 17.5zM373 575q-12 0 -12 8q0 5 3 11q16 24 37.5 54.5t41.5 59.5h67q8 0 11 -4t3 -9t-2.5 -10.5t-10.5 -13.5l-92 -96h-46z" />
    <glyph glyph-name="acircumflex" unicode="&#xe2;" horiz-adv-x="510" 
d="M82 0zM363 444q-44 0 -77.5 -23.5t-56.5 -61.5t-35 -86t-12 -98q0 -19 2.5 -37t10.5 -32t22 -22.5t37 -8.5q35 0 63.5 19t48.5 47l68 291q-8 3 -28 7.5t-43 4.5zM371 58q-36 -38 -72 -54t-76 -16q-66 0 -103.5 47t-37.5 133q0 69 18.5 133t54.5 113t88 78t119 29
q42 0 80 -9t58 -18t28 -16t8 -23q0 -7 -4.5 -29t-9.5 -41l-42 -177q-7 -29 -12 -63t-8 -65t-4.5 -53.5t-1.5 -26.5h-53q-14 0 -19 5.5t-7 17.5zM276 573q-11 0 -11 10q0 7 9 18q22 28 49.5 59t57.5 61h61q11 0 17.5 -3.5t11.5 -16.5l52 -128h-57q-10 0 -14.5 3.5t-8.5 12.5
l-30 74l-76 -90h-61z" />
    <glyph glyph-name="atilde" unicode="&#xe3;" horiz-adv-x="510" 
d="M82 0zM363 444q-44 0 -77.5 -23.5t-56.5 -61.5t-35 -86t-12 -98q0 -19 2.5 -37t10.5 -32t22 -22.5t37 -8.5q35 0 63.5 19t48.5 47l68 291q-8 3 -28 7.5t-43 4.5zM371 58q-36 -38 -72 -54t-76 -16q-66 0 -103.5 47t-37.5 133q0 69 18.5 133t54.5 113t88 78t119 29
q42 0 80 -9t58 -18t28 -16t8 -23q0 -7 -4.5 -29t-9.5 -41l-42 -177q-7 -29 -12 -63t-8 -65t-4.5 -53.5t-1.5 -26.5h-53q-14 0 -19 5.5t-7 17.5zM544 702q9 0 12 -3.5t3 -9.5q0 -24 -8 -44t-21.5 -34.5t-31.5 -22.5t-37 -8q-38 0 -74 31q-10 8 -21.5 18t-26.5 10
q-19 0 -26.5 -19t-11.5 -38h-41q-9 0 -12 3.5t-3 9.5q0 25 8.5 45t22 34.5t31.5 22t37 7.5q23 0 40 -9t34 -23q14 -11 24.5 -19.5t21.5 -8.5q18 0 26 17t13 41h41z" />
    <glyph glyph-name="adieresis" unicode="&#xe4;" horiz-adv-x="510" 
d="M82 0zM363 444q-44 0 -77.5 -23.5t-56.5 -61.5t-35 -86t-12 -98q0 -19 2.5 -37t10.5 -32t22 -22.5t37 -8.5q35 0 63.5 19t48.5 47l68 291q-8 3 -28 7.5t-43 4.5zM371 58q-36 -38 -72 -54t-76 -16q-66 0 -103.5 47t-37.5 133q0 69 18.5 133t54.5 113t88 78t119 29
q42 0 80 -9t58 -18t28 -16t8 -23q0 -7 -4.5 -29t-9.5 -41l-42 -177q-7 -29 -12 -63t-8 -65t-4.5 -53.5t-1.5 -26.5h-53q-14 0 -19 5.5t-7 17.5zM296 589q-28 0 -40.5 11.5t-12.5 28.5q0 31 17.5 49.5t52.5 18.5q28 0 41 -11.5t13 -28.5q0 -31 -18 -49.5t-53 -18.5zM485 589
q-28 0 -40.5 11.5t-12.5 28.5q0 31 17.5 49.5t52.5 18.5q28 0 41 -11.5t13 -28.5q0 -31 -18 -49.5t-53 -18.5z" />
    <glyph glyph-name="ccedilla" unicode="&#xe7;" horiz-adv-x="409" 
d="M271 73q20 0 37.5 3t32.5 8q11 3 18.5 6t12.5 3q10 0 14 -7t7 -18l9 -35q-25 -17 -58.5 -28t-68.5 -15l-23 -38l14 -5q23 -8 36.5 -23.5t13.5 -38.5q0 -39 -31.5 -60.5t-79.5 -21.5q-31 0 -53 8q-10 4 -10 13q0 6 3 14l5 17q7 -2 17 -3t21 -1q18 0 37 5.5t19 25.5
q0 11 -8.5 15.5t-22.5 9.5l-13 4q-15 5 -15 13q0 7 4.5 15t9.5 18l20 34q-69 9 -104 58.5t-35 134.5q0 61 17 121t50.5 108t82.5 78t113 30q22 0 44 -4.5t38.5 -11.5t27 -16t10.5 -18q0 -5 -3 -12.5t-5 -13.5l-11 -26q-10 5 -33.5 12.5t-57.5 7.5q-44 0 -76.5 -23
t-54.5 -59.5t-32.5 -82t-10.5 -90.5q0 -51 20.5 -81t71.5 -30z" />
    <glyph glyph-name="eacute" unicode="&#xe9;" horiz-adv-x="469" 
d="M80 0zM177 189v-18q0 -46 19.5 -72.5t72.5 -26.5q30 0 57.5 7t42.5 12q9 3 15.5 5t12.5 2q9 0 13 -6.5t7 -19.5l8 -34q-31 -20 -74.5 -34.5t-94.5 -14.5q-41 0 -73.5 11t-55 34.5t-35 60t-12.5 88.5q0 54 14.5 114t46.5 109.5t81.5 82t120.5 32.5q72 0 114.5 -36.5
t42.5 -103.5q0 -35 -14 -69t-48.5 -61.5t-92.5 -44.5t-146 -17h-22zM205 261q101 0 152.5 31.5t51.5 84.5q0 29 -17 48t-55 19q-34 0 -60 -15.5t-45 -41t-31 -58.5t-17 -68h21zM333 575q-12 0 -12 8q0 5 3 11q16 24 37.5 54.5t41.5 59.5h67q8 0 11 -4t3 -9t-2.5 -10.5
t-10.5 -13.5l-92 -96h-46z" />
    <glyph glyph-name="ecircumflex" unicode="&#xea;" horiz-adv-x="469" 
d="M80 0zM177 189v-18q0 -46 19.5 -72.5t72.5 -26.5q30 0 57.5 7t42.5 12q9 3 15.5 5t12.5 2q9 0 13 -6.5t7 -19.5l8 -34q-31 -20 -74.5 -34.5t-94.5 -14.5q-41 0 -73.5 11t-55 34.5t-35 60t-12.5 88.5q0 54 14.5 114t46.5 109.5t81.5 82t120.5 32.5q72 0 114.5 -36.5
t42.5 -103.5q0 -35 -14 -69t-48.5 -61.5t-92.5 -44.5t-146 -17h-22zM205 261q101 0 152.5 31.5t51.5 84.5q0 29 -17 48t-55 19q-34 0 -60 -15.5t-45 -41t-31 -58.5t-17 -68h21zM240 573q-11 0 -11 10q0 7 9 18q22 28 49.5 59t57.5 61h61q11 0 17.5 -3.5t11.5 -16.5l52 -128
h-57q-10 0 -14.5 3.5t-8.5 12.5l-30 74l-76 -90h-61z" />
    <glyph glyph-name="iacute" unicode="&#xed;" horiz-adv-x="232" 
d="M69 0zM237 509q16 0 20.5 -5t4.5 -13q0 -6 -2.5 -18.5t-4.5 -24.5l-92 -448h-70q-15 0 -19.5 5.5t-4.5 13.5q0 5 2 16.5t5 25.5l91 448h70zM200 575q-12 0 -12 8q0 5 3 11q16 24 37.5 54.5t41.5 59.5h67q8 0 11 -4t3 -9t-2.5 -10.5t-10.5 -13.5l-92 -96h-46z" />
    <glyph glyph-name="oacute" unicode="&#xf3;" horiz-adv-x="518" 
d="M85 0zM85 180q0 67 18 128.5t52 108.5t83.5 75.5t112.5 28.5q83 0 132.5 -48.5t49.5 -142.5q0 -66 -17 -128t-50.5 -109t-83 -75.5t-113.5 -28.5q-85 0 -134.5 48t-49.5 143zM183 182q0 -48 21 -79t67 -31q41 0 71.5 22t51 58.5t31 82.5t10.5 94q0 49 -20.5 79.5
t-65.5 30.5q-41 0 -72 -22.5t-52 -58.5t-31.5 -82t-10.5 -94zM351 575q-12 0 -12 8q0 5 3 11q16 24 37.5 54.5t41.5 59.5h67q8 0 11 -4t3 -9t-2.5 -10.5t-10.5 -13.5l-92 -96h-46z" />
    <glyph glyph-name="ocircumflex" unicode="&#xf4;" horiz-adv-x="518" 
d="M85 0zM85 180q0 67 18 128.5t52 108.5t83.5 75.5t112.5 28.5q83 0 132.5 -48.5t49.5 -142.5q0 -66 -17 -128t-50.5 -109t-83 -75.5t-113.5 -28.5q-85 0 -134.5 48t-49.5 143zM183 182q0 -48 21 -79t67 -31q41 0 71.5 22t51 58.5t31 82.5t10.5 94q0 49 -20.5 79.5
t-65.5 30.5q-41 0 -72 -22.5t-52 -58.5t-31.5 -82t-10.5 -94zM255 573q-11 0 -11 10q0 7 9 18q22 28 49.5 59t57.5 61h61q11 0 17.5 -3.5t11.5 -16.5l52 -128h-57q-10 0 -14.5 3.5t-8.5 12.5l-30 74l-76 -90h-61z" />
    <glyph glyph-name="otilde" unicode="&#xf5;" horiz-adv-x="518" 
d="M85 0zM85 180q0 67 18 128.5t52 108.5t83.5 75.5t112.5 28.5q83 0 132.5 -48.5t49.5 -142.5q0 -66 -17 -128t-50.5 -109t-83 -75.5t-113.5 -28.5q-85 0 -134.5 48t-49.5 143zM183 182q0 -48 21 -79t67 -31q41 0 71.5 22t51 58.5t31 82.5t10.5 94q0 49 -20.5 79.5
t-65.5 30.5q-41 0 -72 -22.5t-52 -58.5t-31.5 -82t-10.5 -94zM531 702q9 0 12 -3.5t3 -9.5q0 -24 -8 -44t-21.5 -34.5t-31.5 -22.5t-37 -8q-38 0 -74 31q-10 8 -21.5 18t-26.5 10q-19 0 -26.5 -19t-11.5 -38h-41q-9 0 -12 3.5t-3 9.5q0 25 8.5 45t22 34.5t31.5 22t37 7.5
q23 0 40 -9t34 -23q14 -11 24.5 -19.5t21.5 -8.5q18 0 26 17t13 41h41z" />
    <glyph glyph-name="odieresis" unicode="&#xf6;" horiz-adv-x="518" 
d="M85 0zM85 180q0 67 18 128.5t52 108.5t83.5 75.5t112.5 28.5q83 0 132.5 -48.5t49.5 -142.5q0 -66 -17 -128t-50.5 -109t-83 -75.5t-113.5 -28.5q-85 0 -134.5 48t-49.5 143zM183 182q0 -48 21 -79t67 -31q41 0 71.5 22t51 58.5t31 82.5t10.5 94q0 49 -20.5 79.5
t-65.5 30.5q-41 0 -72 -22.5t-52 -58.5t-31.5 -82t-10.5 -94zM288 589q-28 0 -40.5 11.5t-12.5 28.5q0 31 17.5 49.5t52.5 18.5q28 0 41 -11.5t13 -28.5q0 -31 -18 -49.5t-53 -18.5zM477 589q-28 0 -40.5 11.5t-12.5 28.5q0 31 17.5 49.5t52.5 18.5q28 0 41 -11.5t13 -28.5
q0 -31 -18 -49.5t-53 -18.5z" />
    <glyph glyph-name="uacute" unicode="&#xfa;" horiz-adv-x="522" 
d="M88 0zM493 208q-6 -29 -10.5 -62t-8 -63t-5.5 -53t-2 -30h-52q-14 0 -19.5 5t-7.5 18l-5 37q-28 -29 -69 -50t-92 -21q-61 0 -97.5 33.5t-36.5 99.5q0 13 3 38t10 59l59 291h69q15 0 20 -5.5t5 -13.5q0 -5 -2.5 -17t-4.5 -25l-48 -240q-6 -29 -8.5 -46t-2.5 -32
q0 -60 67 -60q20 0 38 5.5t34 14.5t28.5 19t21.5 19l77 381h69q15 0 20 -5t5 -13q0 -6 -2.5 -19t-4.5 -24zM335 575q-12 0 -12 8q0 5 3 11q16 24 37.5 54.5t41.5 59.5h67q8 0 11 -4t3 -9t-2.5 -10.5t-10.5 -13.5l-92 -96h-46z" />
    <glyph glyph-name="udieresis" unicode="&#xfc;" horiz-adv-x="522" 
d="M88 0zM493 208q-6 -29 -10.5 -62t-8 -63t-5.5 -53t-2 -30h-52q-14 0 -19.5 5t-7.5 18l-5 37q-28 -29 -69 -50t-92 -21q-61 0 -97.5 33.5t-36.5 99.5q0 13 3 38t10 59l59 291h69q15 0 20 -5.5t5 -13.5q0 -5 -2.5 -17t-4.5 -25l-48 -240q-6 -29 -8.5 -46t-2.5 -32
q0 -60 67 -60q20 0 38 5.5t34 14.5t28.5 19t21.5 19l77 381h69q15 0 20 -5t5 -13q0 -6 -2.5 -19t-4.5 -24zM272 589q-28 0 -40.5 11.5t-12.5 28.5q0 31 17.5 49.5t52.5 18.5q28 0 41 -11.5t13 -28.5q0 -31 -18 -49.5t-53 -18.5zM461 589q-28 0 -40.5 11.5t-12.5 28.5
q0 31 17.5 49.5t52.5 18.5q28 0 41 -11.5t13 -28.5q0 -31 -18 -49.5t-53 -18.5z" />
    <glyph glyph-name="dotlessi" unicode="&#x131;" horiz-adv-x="231" 
d="M237 509q16 0 20.5 -5t4.5 -13q0 -6 -2.5 -18.5t-4.5 -24.5l-92 -448h-70q-15 0 -19.5 5.5t-4.5 13.5q0 5 2 16.5t5 25.5l91 448h70z" />
    <glyph glyph-name="cedilla.cap" horiz-adv-x="434" 
d="M254 5l-32 -53l14 -5q23 -8 36.5 -23.5t13.5 -38.5q0 -39 -31.5 -60.5t-79.5 -21.5q-31 0 -53 8q-10 4 -10 13q0 6 3 14l5 17q7 -2 17 -3t21 -1q18 0 37 5.5t19 25.5q0 11 -8.5 15.5t-22.5 9.5l-13 4q-15 5 -15 13q0 7 4.5 15t9.5 18l29 48h56z" />
    <glyph glyph-name="tilde.cap" horiz-adv-x="362" 
d="M391 874q9 0 12 -3.5t3 -9.5q0 -24 -8 -44t-21.5 -34.5t-31.5 -22.5t-37 -8q-38 0 -74 31q-10 8 -21.5 18t-26.5 10q-19 0 -26.5 -19t-11.5 -38h-41q-9 0 -12 3.5t-3 9.5q0 25 8.5 45t22 34.5t31.5 22t37 7.5q23 0 40 -9t34 -23q14 -11 24.5 -19.5t21.5 -8.5q18 0 26 17
t13 41h41z" />
    <glyph glyph-name="dieresis.cap" horiz-adv-x="365" 
d="M155 759q-27 0 -39.5 11t-12.5 28q0 30 17.5 48.5t51.5 18.5q27 0 40 -11.5t13 -27.5q0 -30 -17.5 -48.5t-52.5 -18.5zM340 759q-27 0 -39.5 11t-12.5 28q0 30 17.5 48.5t51.5 18.5q27 0 40 -11.5t13 -27.5q0 -30 -17.5 -48.5t-52.5 -18.5z" />
    <glyph glyph-name="dotaccent.cap" horiz-adv-x="430" 
d="M208 757q-29 0 -41.5 11.5t-12.5 29.5q0 32 18 50.5t53 18.5q29 0 42 -12t13 -29q0 -32 -18 -50.5t-54 -18.5z" />
    <glyph glyph-name="circumflex.cap" horiz-adv-x="354" 
d="M175 745q-11 0 -11 10q0 7 9 18q11 14 20.5 25l19 22t21 22.5l26.5 26.5h61q11 0 17.5 -3.5t11.5 -16.5l42 -104h-57q-10 0 -14.5 3.5t-8.5 12.5l-20 47l-56 -63h-61z" />
    <glyph glyph-name="acute.cap" horiz-adv-x="331" 
d="M187 745q-12 0 -12 8q0 5 3 11q14 22 34 50.5t39 54.5h69q8 0 11 -4t3 -9t-2.5 -10.5t-10.5 -13.5l-83 -87h-51z" />
    <glyph glyph-name="grave.cap" horiz-adv-x="329" 
d="M208 745q-14 0 -22 14l-71 110h82q13 0 21 -15q11 -24 21 -50.5t21 -58.5h-52z" />
    <glyph glyph-name=".ttfautohint" horiz-adv-x="329" 
d="M0 0z" />
    </font>
</defs>
</svg>
