<?xml version="1.0" standalone="no"?>
<!DOCTYPE svg PUBLIC "-//W3C//DTD SVG 1.1//EN" "http://www.w3.org/Graphics/SVG/1.1/DTD/svg11.dtd" >
<svg xmlns="http://www.w3.org/2000/svg">
<metadata></metadata>
<defs>
<font id="proxima_novathin" horiz-adv-x="1081" >
<font-face units-per-em="2048" ascent="1618" descent="-430" />
<missing-glyph horiz-adv-x="532" />
<glyph unicode="&#xfb00;" horiz-adv-x="1007" d="M41 934v55h164v105q0 139 65.5 215.5t182.5 76.5q47 0 83.5 -11t84.5 -50l-37 -49q-27 25 -58.5 40t-72.5 15q-94 0 -140.5 -62.5t-46.5 -174.5v-105h201v-55h-201v-934h-61v934h-164zM545 934v55h164v105q0 139 65.5 215.5t182.5 76.5q47 0 83.5 -11t84.5 -50l-37 -49 q-27 25 -58.5 40t-72.5 15q-94 0 -140.5 -62.5t-46.5 -174.5v-105h201v-55h-201v-934h-61v934h-164z" />
<glyph unicode="&#xfb01;" horiz-adv-x="917" d="M41 934v55h164v105q0 139 65.5 215.5t182.5 76.5q33 0 61.5 -5t54.5 -21l-26 -53q-18 10 -40 17t-50 7q-94 0 -140.5 -62.5t-46.5 -174.5v-105h201v-55h-201v-934h-61v934h-164zM651 1219q0 25 18.5 42t41.5 17q25 0 42 -17.5t17 -41.5q0 -25 -17 -42.5t-42 -17.5 q-23 0 -41.5 17.5t-18.5 42.5zM680 0v989h62v-989h-62z" />
<glyph unicode="&#xfb02;" horiz-adv-x="917" d="M41 934v55h164v105q0 139 65.5 215.5t182.5 76.5q33 0 61.5 -5t54.5 -21l-26 -53q-18 10 -40 17t-50 7q-94 0 -140.5 -62.5t-46.5 -174.5v-105h201v-55h-201v-934h-61v934h-164zM680 0v1366h62v-1366h-62z" />
<glyph unicode="&#xfb03;" horiz-adv-x="1421" d="M41 934v55h164v105q0 139 65.5 215.5t182.5 76.5q47 0 83.5 -11t84.5 -50l-37 -49q-27 25 -58.5 40t-72.5 15q-94 0 -140.5 -62.5t-46.5 -174.5v-105h201v-55h-201v-934h-61v934h-164zM545 934v55h164v105q0 139 65.5 215.5t182.5 76.5q33 0 61.5 -5t54.5 -21l-26 -53 q-18 10 -40 17t-50 7q-94 0 -140.5 -62.5t-46.5 -174.5v-105h201v-55h-201v-934h-61v934h-164zM1155 1219q0 25 18.5 42t41.5 17q25 0 42 -17.5t17 -41.5q0 -25 -17 -42.5t-42 -17.5q-23 0 -41.5 17.5t-18.5 42.5zM1184 0v989h62v-989h-62z" />
<glyph unicode="&#xfb04;" horiz-adv-x="1421" d="M41 934v55h164v105q0 139 65.5 215.5t182.5 76.5q47 0 83.5 -11t84.5 -50l-37 -49q-27 25 -58.5 40t-72.5 15q-94 0 -140.5 -62.5t-46.5 -174.5v-105h201v-55h-201v-934h-61v934h-164zM545 934v55h164v105q0 139 65.5 215.5t182.5 76.5q33 0 61.5 -5t54.5 -21l-26 -53 q-18 10 -40 17t-50 7q-94 0 -140.5 -62.5t-46.5 -174.5v-105h201v-55h-201v-934h-61v934h-164zM1184 0v1366h62v-1366h-62z" />
<glyph horiz-adv-x="0" />
<glyph horiz-adv-x="0" />
<glyph unicode="&#xd;" horiz-adv-x="0" />
<glyph unicode=" "  horiz-adv-x="532" />
<glyph unicode="&#x09;" horiz-adv-x="532" />
<glyph unicode="&#xa0;" horiz-adv-x="532" />
<glyph unicode="!" horiz-adv-x="425" d="M145 49q0 27 19.5 46.5t48.5 19.5t48.5 -19.5t19.5 -46.5q0 -29 -19.5 -48t-48.5 -19t-48.5 19t-19.5 48zM170 1366h86l-23 -1036h-40z" />
<glyph unicode="&#x22;" horiz-adv-x="593" d="M127 1333q0 23 15.5 38t37.5 15q23 0 38 -15t15 -38q0 -4 -1 -24.5t-4 -51t-6 -68.5t-5 -77q-8 -92 -14 -205h-45q-8 113 -17 205q-4 39 -6 77t-4 68.5t-3 51t-1 24.5zM360 1333q0 23 15.5 38t38.5 15t38 -15t15 -38q0 -4 -1 -24.5t-4 -51t-6 -68.5t-5 -77 q-8 -92 -15 -205h-45q-8 113 -16 205q-4 39 -6 77t-4.5 68.5t-3.5 51t-1 24.5z" />
<glyph unicode="#" horiz-adv-x="1161" d="M53 391l19 60h237l156 464h-240l17 60h243l129 391h68l-129 -391h254l129 391h68l-132 -391h236l-14 -60h-240l-158 -464h246l-18 -60h-246l-131 -391h-68l133 391h-256l-131 -391h-67l131 391h-236zM377 451h252l157 464h-254z" />
<glyph unicode="$" horiz-adv-x="1177" d="M109 193l53 47q59 -74 160.5 -135.5t240.5 -67.5v651q-78 20 -151.5 46t-132 65t-93 96t-34.5 145q0 80 33.5 143.5t90 108.5t131 69.5t156.5 27.5v184h66v-187q131 -8 229 -58t164 -132l-51 -47q-66 84 -152 126t-190 50v-584q80 -23 155.5 -51t135 -72.5t96.5 -110 t37 -161.5q0 -55 -19.5 -117.5t-67.5 -116t-130 -91t-207 -44.5v-182h-66v180q-154 4 -268.5 64.5t-185.5 153.5zM223 1040q0 -66 28 -109.5t75 -75.5t108.5 -53.5t128.5 -41.5v567q-72 -2 -133 -24.5t-107.5 -60.5t-73 -89.5t-26.5 -112.5zM629 37q104 6 171.5 37.5 t107.5 77t56.5 96.5t16.5 98q0 76 -28.5 128t-78 89t-113 61.5t-132.5 45.5v-633z" />
<glyph unicode="%" horiz-adv-x="1452" d="M74 1051q0 72 23.5 133t64.5 106t99 70.5t126 25.5q70 0 127 -25.5t98 -70.5t64.5 -106.5t23.5 -132.5q0 -72 -23.5 -132.5t-64.5 -105.5t-98 -69.5t-127 -24.5q-68 0 -126 24.5t-99 69.5t-64.5 105.5t-23.5 132.5zM141 1051q0 -55 18.5 -105.5t50.5 -88.5t77 -60.5 t100 -22.5t100 22.5t78 60.5t50.5 88t17.5 106q0 57 -17.5 107t-50.5 89t-78 61.5t-100 22.5t-100 -22.5t-77 -61.5t-50.5 -89t-18.5 -107zM260 0l873 1366h75l-874 -1366h-74zM752 307q0 72 23.5 133.5t64.5 106.5t99 70.5t126 25.5t126 -25.5t99 -70.5t64.5 -106.5 t23.5 -133.5t-23.5 -132t-64.5 -105t-99 -70t-126 -25t-126 25t-99 70t-64.5 105.5t-23.5 131.5zM819 307q0 -55 17.5 -105t50.5 -88t78 -60.5t100 -22.5t100 22.5t78 60.5t50.5 88t17.5 105q0 57 -17.5 107.5t-50.5 89.5t-78 61.5t-100 22.5t-100 -22.5t-78 -61.5 t-50.5 -89t-17.5 -108z" />
<glyph unicode="&#x26;" horiz-adv-x="1304" d="M96 342q0 82 25.5 145.5t68.5 112.5t99.5 88t116.5 74q-53 82 -86 163t-33 154q0 68 24.5 124.5t65.5 97t97 63t118 22.5q123 0 194.5 -63t71.5 -186q0 -76 -31.5 -133.5t-82 -102.5t-115 -83t-129.5 -75q47 -70 99 -131t93 -104q53 -59 103.5 -112.5t101.5 -104.5 q66 100 105.5 199.5t56.5 150.5l65 -25q-31 -80 -71.5 -181t-104.5 -195q59 -57 123 -115.5t139 -124.5h-108q-41 35 -92.5 82t-104.5 100q-72 -90 -171 -148.5t-236 -58.5q-82 0 -155 24t-128 70t-87 114.5t-32 158.5zM168 342q0 -76 27.5 -133t72.5 -95t104.5 -57.5 t125.5 -19.5q115 0 202.5 56.5t153.5 139.5q-68 70 -126 131.5t-89 98.5q-49 55 -100.5 117.5t-98.5 128.5q-55 -31 -104 -67t-86 -80t-59.5 -98t-22.5 -122zM358 1079q0 -66 30 -138.5t77 -143.5q61 33 119.5 66.5t102.5 72.5t71.5 88t27.5 113q0 94 -55 141t-139 47 q-47 0 -90 -18.5t-75 -50t-50.5 -77t-18.5 -100.5z" />
<glyph unicode="'" horiz-adv-x="360" d="M127 1333q0 23 15.5 38t37.5 15q23 0 38 -15t15 -38q0 -4 -1 -24.5t-4 -51t-6 -68.5t-5 -77q-8 -92 -14 -205h-45q-8 113 -17 205q-4 39 -6 77t-4 68.5t-3 51t-1 24.5z" />
<glyph unicode="(" horiz-adv-x="421" d="M96 498q0 248 64.5 471t193.5 434l33 -23q-47 -100 -88 -198.5t-69.5 -204t-45 -223t-16.5 -256.5t16.5 -256t45 -222.5t69.5 -204t88 -198.5l-33 -25q-129 211 -193.5 434.5t-64.5 471.5z" />
<glyph unicode=")" horiz-adv-x="421" d="M35 -383q47 100 87 198.5t69.5 204t46 222t16.5 256.5q0 139 -16.5 256.5t-46 223t-69.5 204t-87 198.5l33 23q129 -211 193.5 -434.5t64.5 -470.5q0 -248 -64.5 -471.5t-193.5 -434.5z" />
<glyph unicode="*" horiz-adv-x="675" d="M84 1001l217 111l-217 111l31 53l204 -133l-12 243h62l-13 -243l205 133l31 -53l-217 -111l217 -111l-31 -53l-205 133l13 -243h-62l12 243l-204 -133z" />
<glyph unicode="+" horiz-adv-x="1011" d="M59 659v62h414v442h66v-442h413v-62h-413v-454h-66v454h-414z" />
<glyph unicode="," horiz-adv-x="425" d="M119 -205q49 37 78.5 89.5t29.5 99.5q-2 -2 -6 -2h-10q-29 0 -47.5 19t-18.5 48q0 27 18.5 46.5t47.5 19.5q33 0 56.5 -28t23.5 -81q0 -78 -39 -145.5t-88 -102.5z" />
<glyph unicode="-" horiz-adv-x="614" d="M61 465v61h492v-61h-492z" />
<glyph unicode="." horiz-adv-x="425" d="M145 49q0 27 19.5 46.5t48.5 19.5t48.5 -19.5t19.5 -46.5q0 -29 -19.5 -48t-48.5 -19t-48.5 19t-19.5 48z" />
<glyph unicode="/" horiz-adv-x="548" d="M0 -41l485 1448h64l-486 -1448h-63z" />
<glyph unicode="0" horiz-adv-x="1239" d="M133 682q0 119 25.5 244t83 227t150.5 167.5t229 65.5q135 0 227 -65.5t149.5 -167.5t83 -227t25.5 -244t-25.5 -244t-83 -228.5t-149.5 -169t-227 -65.5t-228.5 65.5t-151 169t-83 228.5t-25.5 244zM205 682q0 -109 20.5 -223.5t68.5 -207.5t128 -153.5t199 -60.5 q117 0 196.5 60.5t127.5 153.5t68.5 207.5t20.5 223.5t-20.5 223.5t-68.5 207.5t-127 152.5t-197 59.5q-119 0 -199 -59.5t-128 -152.5t-68.5 -207.5t-20.5 -223.5z" />
<glyph unicode="1" horiz-adv-x="567" d="M61 1083l265 283h61v-1366h-65v1272l-216 -236z" />
<glyph unicode="2" horiz-adv-x="1181" d="M121 0v57q164 135 308 261t251.5 244t170 230.5t62.5 223.5q0 82 -30.5 141.5t-78.5 96t-108.5 54t-122.5 17.5q-131 0 -227 -51t-149 -133l-54 39q63 94 175 150t257 56q66 0 136.5 -19t130 -64.5t98.5 -116t39 -170.5q0 -121 -62.5 -236.5t-167 -233.5t-242.5 -238 t-290 -247h766v-61h-862z" />
<glyph unicode="3" horiz-adv-x="1087" d="M74 205l57 33q53 -86 148.5 -143.5t236.5 -57.5q170 0 270.5 86t100.5 239q0 84 -33 143.5t-87 97.5t-126 55.5t-149 17.5h-70t-45 -2v65q16 -2 44 -2h71q72 0 139 16.5t119.5 52.5t84 91t31.5 133q0 70 -28.5 125t-76.5 93t-111.5 57.5t-133.5 19.5q-123 0 -209 -46 t-164 -138l-51 41q68 86 175.5 145t248.5 59q80 0 154.5 -23.5t133 -68.5t93.5 -111.5t35 -152.5q0 -84 -31 -141.5t-75 -96t-95 -59t-90 -26.5q43 -4 96.5 -26t101.5 -62.5t80.5 -104t32.5 -152.5q0 -84 -28.5 -154.5t-85 -121.5t-137.5 -81t-185 -30q-80 0 -149.5 18.5 t-126 50.5t-98.5 73t-68 88z" />
<glyph unicode="4" horiz-adv-x="1073" d="M78 399v68l624 899h86v-905h207v-62h-207v-399h-65v399h-645zM150 461h573v831z" />
<glyph unicode="5" horiz-adv-x="1175" d="M166 205l53 39q66 -100 157 -153.5t232 -53.5q78 0 145.5 27.5t117 76.5t78 117t28.5 148q0 86 -28.5 155.5t-78 117.5t-117 73.5t-145.5 25.5q-96 0 -181 -33.5t-163 -107.5l-55 33v696h745v-61h-680v-596q51 49 137.5 90t196.5 41q86 0 164 -28t138.5 -82t96 -136 t35.5 -188q0 -100 -35.5 -180.5t-96 -135.5t-138.5 -85t-164 -30q-84 0 -151.5 16.5t-120.5 46.5t-95 72t-75 95z" />
<glyph unicode="6" horiz-adv-x="1181" d="M133 682q0 125 24.5 250t82 226.5t150.5 164.5t231 63q137 0 219 -51t139 -133l-49 -43q-25 35 -53.5 65.5t-65.5 53t-84 35t-106 12.5q-121 0 -202 -59.5t-130 -154.5t-69.5 -214t-20.5 -235v-37t2 -37q20 35 60 78t94.5 79.5t121 61t139.5 24.5q92 0 171 -26.5 t137.5 -79.5t91.5 -134t33 -190q0 -78 -29 -154.5t-84 -137t-138.5 -97.5t-189.5 -37q-133 0 -224 59.5t-146.5 159t-80 226.5t-24.5 262zM209 504q6 -76 30.5 -159t71.5 -151.5t120 -112.5t177 -44q96 0 167 33.5t117 87t68.5 118t22.5 125.5q0 92 -27.5 162t-77 116 t-117 68.5t-147.5 22.5q-61 0 -120.5 -20.5t-112.5 -55.5t-97 -84t-75 -106z" />
<glyph unicode="7" horiz-adv-x="1001" d="M74 1305v61h854v-45l-604 -1321h-74l600 1305h-776z" />
<glyph unicode="8" horiz-adv-x="1148" d="M135 338q0 74 31 134t81 106.5t113.5 78t128.5 48.5q-61 14 -120.5 41.5t-106.5 68.5t-75.5 96.5t-28.5 124.5q0 88 36.5 154.5t95 109.5t133.5 64.5t152 21.5q76 0 151 -21.5t134.5 -64.5t96 -109.5t36.5 -154.5q0 -70 -28.5 -125t-75.5 -96t-106.5 -68.5t-120.5 -41.5 q66 -16 129 -48t112 -78.5t80 -106.5t31 -134q0 -80 -33 -146.5t-91.5 -114.5t-139.5 -75t-175 -27q-96 0 -177 27t-139 75t-91 114.5t-33 146.5zM201 338q0 -72 30.5 -127t83 -94t119.5 -59.5t141 -20.5q72 0 138.5 20.5t119 59.5t84 94t31.5 127q0 88 -47 150.5 t-108.5 102.5t-124 60.5t-93.5 24.5q-31 -4 -93 -24.5t-124.5 -60.5t-109.5 -102.5t-47 -150.5zM223 1036q0 -82 43 -137t101.5 -89t117.5 -51.5t90 -23.5q31 6 90.5 23.5t118 51.5t101.5 89t43 137q0 68 -29 122t-77 91t-111.5 56.5t-135.5 19.5t-136 -19.5t-112 -56.5 t-76 -91t-28 -122z" />
<glyph unicode="9" horiz-adv-x="1181" d="M133 963q0 78 28.5 154.5t84 137t137.5 97.5t190 37q133 0 224.5 -59.5t146.5 -159t80 -226.5t25 -262q0 -125 -25 -250t-82 -226.5t-150.5 -165t-230.5 -63.5t-219 51.5t-139 133.5l49 43q25 -35 53.5 -65.5t65.5 -53.5t84 -35t106 -12q121 0 202 59.5t130 154.5 t69.5 214t20.5 235v37t-2 37q-20 -35 -60 -78t-94.5 -79.5t-121 -61.5t-140.5 -25q-92 0 -171 27t-137 80t-91 134t-33 190zM199 963q0 -92 27.5 -162t76.5 -116t116.5 -68.5t147.5 -22.5q61 0 121 20.5t113 55.5t97 84t75 106q-6 76 -30.5 159t-72 151.5t-120 112.5 t-177.5 44q-96 0 -166.5 -33.5t-116.5 -87t-68.5 -118t-22.5 -125.5z" />
<glyph unicode=":" horiz-adv-x="425" d="M145 49q0 27 19.5 46.5t48.5 19.5t48.5 -19.5t19.5 -46.5q0 -29 -19.5 -48t-48.5 -19t-48.5 19t-19.5 48zM145 936q0 29 19.5 48.5t48.5 19.5t48.5 -19.5t19.5 -48.5q0 -27 -19.5 -46.5t-48.5 -19.5t-48.5 19.5t-19.5 46.5z" />
<glyph unicode=";" horiz-adv-x="425" d="M119 -205q49 37 78.5 89.5t29.5 99.5q-2 -2 -6 -2h-10q-29 0 -47.5 19t-18.5 48q0 27 18.5 46.5t47.5 19.5q33 0 56.5 -28t23.5 -81q0 -78 -39 -145.5t-88 -102.5zM145 936q0 29 19.5 48.5t48.5 19.5t48.5 -19.5t19.5 -48.5q0 -27 -19.5 -46.5t-48.5 -19.5t-48.5 19.5 t-19.5 46.5z" />
<glyph unicode="&#x3c;" horiz-adv-x="1011" d="M59 664v43l893 481v-74l-809 -430l809 -426v-74z" />
<glyph unicode="=" horiz-adv-x="1011" d="M59 451v61h893v-61h-893zM59 856v62h893v-62h-893z" />
<glyph unicode="&#x3e;" horiz-adv-x="1011" d="M59 184v74l809 426l-809 430v74l893 -481v-43z" />
<glyph unicode="?" horiz-adv-x="956" d="M53 1167q68 98 174.5 158.5t264.5 60.5q90 0 160.5 -25.5t119.5 -68.5t74.5 -100t25.5 -119q0 -80 -32.5 -137t-81.5 -102.5t-105.5 -81t-105.5 -73.5t-82 -80t-33 -99q0 -23 16.5 -54.5t51.5 -54.5l-39 -47q-49 37 -69.5 76t-20.5 80q0 70 31.5 119t79.5 89t103.5 75.5 t103.5 75.5t80 91t32 123q0 51 -20.5 96t-59.5 80t-96.5 55.5t-132.5 20.5q-150 0 -238 -54t-154 -147zM387 49q0 27 19.5 46.5t48.5 19.5t48 -19.5t19 -46.5q0 -29 -19 -48t-48 -19t-48.5 19t-19.5 48z" />
<glyph unicode="@" horiz-adv-x="1603" d="M72 500q0 168 67.5 314.5t179 256t259 173t307.5 63.5q143 0 262 -52.5t204 -142.5t132 -212t47 -263q0 -113 -24.5 -199t-67.5 -144t-99.5 -89t-117.5 -31q-82 0 -129.5 54.5t-47.5 125.5v13q-27 -37 -64.5 -72t-82.5 -61.5t-96 -43t-107 -16.5q-139 0 -225 87t-86 237 q0 111 43 207t113.5 166.5t159.5 111.5t182 41q106 0 172.5 -53t95.5 -125l29 141h61l-127 -602q-2 -10 -2 -18.5v-18.5q0 -55 33 -87t78 -32q31 0 72.5 18.5t81.5 64.5t67.5 126t27.5 201q0 129 -43 239.5t-121.5 192.5t-187 128t-239.5 46q-152 0 -287 -62.5t-237.5 -165 t-162 -237.5t-59.5 -278q0 -125 44 -231.5t124 -185.5t189.5 -124t238.5 -45q115 0 208 32t177 85l33 -47q-96 -61 -203.5 -95t-222.5 -34q-139 0 -258 49t-206 136t-136 205t-49 253zM451 498q0 -117 63 -193t180 -76q63 0 118.5 20.5t102 53.5t84 73t64.5 81l70 321 q-10 31 -30 63.5t-50.5 61.5t-73.5 47.5t-98 18.5q-90 0 -168 -40t-136.5 -106.5t-92 -151.5t-33.5 -173z" />
<glyph unicode="A" horiz-adv-x="1302" d="M43 0l569 1366h78l570 -1366h-76l-152 367h-762l-151 -367h-76zM295 428h713l-357 862z" />
<glyph unicode="B" horiz-adv-x="1228" d="M180 0v1366h514q82 0 150.5 -22.5t118 -66.5t77 -109.5t27.5 -149.5q0 -66 -20.5 -119t-54.5 -93t-78 -66.5t-89 -34.5q55 -8 103.5 -40t85.5 -78t58.5 -102.5t21.5 -115.5q0 -176 -105.5 -272.5t-286.5 -96.5h-522zM246 61h456q152 0 236 82t84 224q0 57 -20.5 112.5 t-60.5 98.5t-99.5 68.5t-139.5 25.5h-456v-611zM246 733h448q76 0 132.5 22.5t94 60.5t56 90t18.5 112q0 57 -18.5 109.5t-56 92.5t-94 62.5t-132.5 22.5h-448v-572z" />
<glyph unicode="C" horiz-adv-x="1366" d="M133 682q0 158 53.5 288t145.5 223t217 144.5t266 51.5q145 0 264 -55.5t211 -159.5l-51 -46q-72 92 -183.5 145.5t-240.5 53.5t-239.5 -47t-193.5 -131t-130 -204t-47 -263t47 -262t130 -204t193.5 -132t239.5 -47t240.5 53t183.5 146l53 -43q-192 -218 -477 -218 q-141 0 -266 51.5t-217 144.5t-145.5 223t-53.5 288z" />
<glyph unicode="D" horiz-adv-x="1400" d="M180 0v1366h406q160 0 285.5 -55.5t212.5 -149.5t134.5 -218t47.5 -261q0 -139 -47.5 -262t-134.5 -217t-213 -148.5t-285 -54.5h-406zM246 61h340q145 0 257.5 48.5t190.5 132.5t119 197.5t41 242.5t-41 241.5t-119 197.5t-190.5 134.5t-257.5 49.5h-340v-1244z" />
<glyph unicode="E" horiz-adv-x="1142" d="M180 0v1366h836v-61h-770v-572h755v-61h-755v-611h770v-61h-836z" />
<glyph unicode="F" horiz-adv-x="1091" d="M180 0v1366h836v-61h-770v-572h755v-61h-755v-672h-66z" />
<glyph unicode="G" horiz-adv-x="1449" d="M133 682q0 158 53.5 288t145.5 223t217 144.5t266 51.5q156 0 277.5 -53.5t222.5 -157.5l-43 -45q-80 92 -200 143t-257 51q-129 0 -239.5 -47t-193.5 -131t-130 -204t-47 -263t47 -262t130 -205t193.5 -133t239.5 -47q76 0 141.5 17.5t121 44t98.5 59t73 63.5v375h-563 v61h629v-462q-88 -98 -217 -159t-283 -61q-141 0 -266 51.5t-217 145.5t-145.5 224t-53.5 288z" />
<glyph unicode="H" horiz-adv-x="1423" d="M180 0v1366h66v-633h932v633h65v-1366h-65v672h-932v-672h-66z" />
<glyph unicode="I" horiz-adv-x="425" d="M180 0v1366h66v-1366h-66z" />
<glyph unicode="J" horiz-adv-x="952" d="M33 154l55 49q47 -68 116.5 -117t174.5 -49q154 0 241 95t87 247v987h65v-987q0 -102 -31.5 -178t-86 -126t-125 -75t-150.5 -25q-113 0 -197 43t-149 136z" />
<glyph unicode="K" horiz-adv-x="1169" d="M180 0v1366h66v-788l710 788h88l-593 -653l655 -713h-88l-608 672l-164 -178v-494h-66z" />
<glyph unicode="L" horiz-adv-x="1021" d="M180 0v1366h66v-1305h686v-61h-752z" />
<glyph unicode="M" horiz-adv-x="1576" d="M180 0v1366h105l503 -1223l504 1223h105v-1366h-66v1288l-532 -1288h-21l-532 1288v-1288h-66z" />
<glyph unicode="N" horiz-adv-x="1413" d="M180 0v1366h66l921 -1247v1247h66v-1366h-66l-921 1260v-1260h-66z" />
<glyph unicode="O" horiz-adv-x="1564" d="M133 682q0 147 45 276t130 224.5t205 151t269 55.5q147 0 268 -55.5t205 -151t130.5 -224.5t46.5 -276t-46.5 -276.5t-130.5 -224.5t-205 -150.5t-268 -55.5q-150 0 -269.5 55.5t-204.5 150.5t-130 224.5t-45 276.5zM205 682q0 -139 40 -257t115.5 -204t182 -135 t239.5 -49q131 0 237.5 49t182.5 135t117 204t41 257q0 141 -41 259t-117 204t-182.5 134t-237.5 48q-133 0 -239.5 -48t-182 -134t-115.5 -204t-40 -259z" />
<glyph unicode="P" horiz-adv-x="1136" d="M180 0v1366h473q94 0 169 -30.5t126 -84t78 -124t27 -148.5t-28 -148.5t-79 -124t-124.5 -84t-168.5 -30.5h-407v-592h-66zM246 653h405q76 0 136.5 24.5t103.5 67.5t66.5 102.5t23.5 131.5q0 70 -23.5 130t-66.5 103t-103.5 68t-136.5 25h-405v-652z" />
<glyph unicode="Q" horiz-adv-x="1564" d="M133 682q0 147 45 276t130 224.5t205 151t269 55.5q147 0 268 -55.5t205 -151t130.5 -224.5t46.5 -276q0 -160 -52.5 -294t-148.5 -232l158 -156l-46 -47l-159 160q-80 -66 -181.5 -102t-220.5 -36q-150 0 -269.5 55.5t-204.5 150.5t-130 224.5t-45 276.5zM205 682 q0 -139 40 -257t115.5 -204t182 -135t239.5 -49q104 0 193.5 31.5t161.5 89.5l-226 227l47 47l228 -229q84 86 129 209t45 270q0 141 -41 259t-117 204t-182.5 134t-237.5 48q-133 0 -239.5 -48t-182 -134t-115.5 -204t-40 -259z" />
<glyph unicode="R" horiz-adv-x="1185" d="M180 0v1366h471q82 0 156 -25.5t129 -74.5t87 -121t32 -166t-32 -167t-87 -122t-129 -74.5t-156 -25.5l422 -590h-84l-416 590h-327v-590h-66zM246 651h405q76 0 137.5 24.5t104.5 68.5t66.5 103.5t23.5 131.5q0 70 -23.5 130t-66.5 103t-104.5 68t-137.5 25h-405v-654z " />
<glyph unicode="S" horiz-adv-x="1177" d="M109 193l53 47q31 -39 74 -75t96 -64.5t116.5 -46t137.5 -17.5q119 0 194.5 29.5t120.5 75.5t62.5 100.5t17.5 103.5q0 113 -61.5 175.5t-153.5 101.5t-199.5 64.5t-200 65.5t-153.5 105.5t-61 181.5q0 82 34.5 147.5t94 109.5t137.5 68t162 24q152 0 261 -51.5 t181 -141.5l-51 -47q-72 94 -172.5 136t-218.5 42q-74 0 -139.5 -21.5t-113.5 -59.5t-76 -90t-28 -116q0 -74 36 -121t94.5 -79.5t133 -55t151.5 -46t151.5 -51.5t133 -72t94.5 -108.5t36 -160.5q0 -57 -21.5 -122.5t-74 -121t-143.5 -91.5t-228 -36q-160 0 -282 61.5 t-195 156.5z" />
<glyph unicode="T" horiz-adv-x="1144" d="M78 1305v61h989v-61h-463v-1305h-65v1305h-461z" />
<glyph unicode="U" horiz-adv-x="1376" d="M180 518v848h66v-848q0 -229 112.5 -355t329.5 -126t329.5 126t112.5 355v848h66v-848q0 -256 -129 -399.5t-379 -143.5t-379 145.5t-129 397.5z" />
<glyph unicode="V" horiz-adv-x="1302" d="M43 1366h76l532 -1290l533 1290h76l-570 -1366h-78z" />
<glyph unicode="W" horiz-adv-x="1744" d="M51 1366h72l356 -1268l359 1268h69l359 -1268l356 1268h72l-389 -1366h-78l-355 1243l-354 -1243h-78z" />
<glyph unicode="X" horiz-adv-x="1306" d="M51 0l565 700l-534 666h88l483 -612l484 612h88l-535 -664l565 -702h-86l-516 651l-516 -651h-86z" />
<glyph unicode="Y" horiz-adv-x="1249" d="M43 1366h84l498 -709l497 709h84l-549 -774v-592h-65v592z" />
<glyph unicode="Z" horiz-adv-x="1183" d="M109 0v61l874 1244h-874v61h952v-61l-877 -1244h891v-61h-966z" />
<glyph unicode="[" horiz-adv-x="434" d="M70 -389v1778h329v-62h-268v-1655h268v-61h-329z" />
<glyph unicode="\" horiz-adv-x="548" d="M0 1407h63l486 -1448h-64z" />
<glyph unicode="]" horiz-adv-x="434" d="M35 -328h268v1655h-268v62h330v-1778h-330v61z" />
<glyph unicode="^" horiz-adv-x="868" d="M39 682l369 684h53l368 -684h-69l-326 629l-325 -629h-70z" />
<glyph unicode="_" horiz-adv-x="1155" d="M-6 -82h1167v-61h-1167v61z" />
<glyph unicode="`" horiz-adv-x="419" d="M0 1434h92l328 -295h-62z" />
<glyph unicode="a" horiz-adv-x="1052" d="M127 305q0 80 29.5 141.5t78 103.5t111 63.5t127.5 21.5q104 0 188 -35t154 -111v224q0 59 -22.5 105t-60.5 77t-88 47t-107 16q-98 0 -173 -35.5t-145 -119.5l-47 41q72 86 156 128t209 42q74 0 135 -18.5t107 -55.5t72 -93t26 -132v-715h-62v121q-70 -76 -153.5 -111 t-188.5 -35q-66 0 -128 21.5t-110.5 63.5t-78 103.5t-29.5 141.5zM195 305q0 -57 20.5 -107.5t59 -87t92.5 -58t122 -21.5q98 0 183.5 37.5t142.5 113.5v246q-57 76 -142 114t-184 38q-68 0 -122 -21.5t-92.5 -58.5t-59 -87.5t-20.5 -107.5z" />
<glyph unicode="b" horiz-adv-x="1159" d="M176 0v1366h62v-547q59 88 152 141.5t204 53.5q100 0 181 -38t139.5 -105.5t90 -164t31.5 -212.5q0 -117 -31.5 -213.5t-90 -164t-139.5 -104.5t-181 -37q-59 0 -112.5 15.5t-99.5 41t-83 60.5t-61 74v-166h-62zM238 227q23 -39 59.5 -74.5t83.5 -62.5t101.5 -43 t111.5 -16q90 0 159.5 35.5t118 98t73 146.5t24.5 183q0 98 -24.5 182t-73 147.5t-118 99t-159.5 35.5q-57 0 -111.5 -16t-101.5 -44t-84 -64.5t-59 -75.5v-531z" />
<glyph unicode="c" horiz-adv-x="1009" d="M123 496q0 106 32.5 200.5t93 165t146.5 111.5t195 41q121 0 197.5 -44t140.5 -122l-45 -37q-59 82 -131 114.5t-158 32.5q-96 0 -171 -35.5t-126 -98t-79 -147.5t-28 -181t28 -181.5t79 -149t126 -99t171 -35.5q86 0 157.5 33.5t131.5 115.5l45 -39q-63 -78 -140 -122 t-198 -44q-109 0 -195 41t-146.5 112t-93 166t-32.5 202z" />
<glyph unicode="d" horiz-adv-x="1159" d="M123 494q0 117 31.5 213t90 163.5t139.5 105.5t181 38q111 0 204 -53.5t153 -141.5v547h61v-1366h-61v166q-25 -39 -62 -74t-83 -60.5t-100 -41t-112 -15.5q-100 0 -181 37t-139.5 104.5t-90 164t-31.5 213.5zM190 494q0 -98 25 -182.5t72 -147t117.5 -98t160.5 -35.5 q57 0 111.5 16t101.5 43t84 62.5t60 74.5v531q-23 39 -60 75.5t-84 64.5t-101 44t-112 16q-90 0 -160.5 -35.5t-117.5 -99t-72 -147.5t-25 -182z" />
<glyph unicode="e" horiz-adv-x="1169" d="M123 496q0 106 35 201.5t97 165t147 110.5t186 41q113 0 198.5 -42t144 -114t87.5 -166t29 -196v-21h-854q2 -90 31.5 -171t83.5 -141.5t130 -96t170 -35.5q205 0 344 149l37 -39q-76 -78 -166 -122t-215 -44q-109 0 -197.5 39t-152 109t-99.5 165t-36 208zM193 530h788 q0 72 -23.5 148t-72.5 138.5t-124 102t-175 39.5q-96 0 -168 -39.5t-121 -101t-75.5 -137.5t-28.5 -150z" />
<glyph unicode="f" horiz-adv-x="503" d="M41 934v55h164v105q0 139 65.5 215.5t182.5 76.5q47 0 83.5 -11t84.5 -50l-37 -49q-27 25 -58.5 40t-72.5 15q-94 0 -140.5 -62.5t-46.5 -174.5v-105h201v-55h-201v-934h-61v934h-164z" />
<glyph unicode="g" horiz-adv-x="1159" d="M123 492q0 117 31.5 213t90 164.5t139.5 106.5t181 38q111 0 204 -53.5t153 -141.5v170h61v-995q0 -106 -31.5 -181t-87 -123t-132.5 -69.5t-167 -21.5q-61 0 -112.5 6t-96.5 23.5t-86 46t-84 73.5l45 51q66 -80 142 -112.5t192 -32.5q74 0 138.5 19.5t113.5 60.5 t77 105.5t28 154.5v172q-25 -39 -62 -74t-83 -61.5t-100 -43t-112 -16.5q-100 0 -181 37t-139.5 105.5t-90 165t-31.5 213.5zM190 492q0 -98 25 -182.5t72 -148t117.5 -99t160.5 -35.5q57 0 111.5 16t101.5 44t84 64.5t60 75.5v531q-23 39 -60 75.5t-84 64.5t-101 44 t-112 16q-90 0 -160.5 -36.5t-117.5 -99t-72 -147.5t-25 -183z" />
<glyph unicode="h" d="M176 0v1366h62v-532q27 33 67.5 65.5t87.5 58t99.5 41t103.5 15.5q147 0 228 -72t81 -248v-694h-61v694q0 78 -18.5 129t-52.5 81t-81 42t-104 12q-51 0 -102.5 -15t-97.5 -40.5t-85 -59.5t-65 -71v-772h-62z" />
<glyph unicode="i" horiz-adv-x="413" d="M147 1219q0 25 18.5 42t41.5 17q25 0 42 -17.5t17 -41.5q0 -25 -17 -42.5t-42 -17.5q-23 0 -41.5 17.5t-18.5 42.5zM176 0v989h62v-989h-62z" />
<glyph unicode="j" horiz-adv-x="413" d="M-195 -324l39 52q25 -29 64 -51.5t86 -22.5q78 0 130 44t52 146v1145h62v-1145q0 -129 -65.5 -187t-178.5 -58q-59 0 -103.5 19.5t-85.5 57.5zM147 1219q0 25 18.5 42t41.5 17q25 0 42 -17.5t17 -41.5q0 -25 -17 -42.5t-42 -17.5q-23 0 -41.5 17.5t-18.5 42.5z" />
<glyph unicode="k" horiz-adv-x="1015" d="M176 0v1366h62v-979l645 602h88l-482 -446l476 -543h-88l-435 498l-204 -189v-309h-62z" />
<glyph unicode="l" horiz-adv-x="413" d="M176 0v1366h62v-1366h-62z" />
<glyph unicode="m" horiz-adv-x="1576" d="M176 0v989h62v-155q14 25 45.5 55.5t74.5 58t93.5 47t103.5 19.5q57 0 102 -16.5t77 -43t50.5 -60.5t26.5 -69q20 35 54 69t77 60.5t93 43t102 16.5q135 0 199.5 -77t64.5 -224v-713h-62v713q0 117 -50 181t-163 64q-41 0 -86 -14t-86 -39.5t-76.5 -59.5t-58.5 -71v-774 h-61v713q0 117 -50.5 181t-162.5 64q-41 0 -85 -15t-85 -40.5t-77 -59.5t-60 -71v-772h-62z" />
<glyph unicode="n" d="M176 0v989h62v-155q27 33 67.5 65.5t87.5 58t99.5 41t103.5 15.5q147 0 228 -74t81 -250v-690h-61v690q0 78 -18.5 129t-52.5 82t-81 44t-104 13q-51 0 -102.5 -15t-97.5 -40.5t-85 -59.5t-65 -71v-772h-62z" />
<glyph unicode="o" horiz-adv-x="1167" d="M123 496q0 109 32.5 204t93 164.5t145.5 109.5t190 40q104 0 190 -40t145.5 -109.5t92 -165t32.5 -203.5q0 -109 -32.5 -204t-92 -166t-145.5 -111t-190 -40t-189.5 40t-146 111t-93 166t-32.5 204zM190 496q0 -90 26 -174t76 -148.5t124 -103.5t168 -39t167.5 39 t124 103.5t76 148.5t25.5 174t-25.5 173t-76 147.5t-124 103t-167.5 38.5t-168 -38.5t-124 -103t-76 -147.5t-26 -173z" />
<glyph unicode="p" horiz-adv-x="1150" d="M176 -377v1366h62v-166q25 39 61.5 73t82.5 60.5t99.5 42t112.5 15.5q100 0 181 -37t139.5 -104.5t90 -164t31.5 -212.5q0 -117 -31.5 -213.5t-90 -164t-139.5 -105.5t-181 -38q-111 0 -204 53.5t-152 141.5v-547h-62zM238 231q23 -39 59.5 -75.5t83.5 -64.5t101.5 -44 t111.5 -16q90 0 159.5 35.5t118 99t73 147.5t24.5 183q0 98 -24.5 182t-73 146.5t-118 98t-159.5 35.5q-57 0 -111.5 -16t-101.5 -43t-84 -62.5t-59 -74.5v-531z" />
<glyph unicode="q" horiz-adv-x="1150" d="M115 496q0 117 31.5 213t90 163.5t139.5 104.5t181 37q57 0 111.5 -15.5t100.5 -42t83 -60.5t61 -73v166h62v-1366h-62v547q-59 -88 -152 -141.5t-204 -53.5q-100 0 -181 38t-139.5 105.5t-90 164t-31.5 213.5zM182 496q0 -98 24.5 -182.5t72 -148t118 -99t160.5 -35.5 q57 0 111.5 16t101.5 44t84 65t59 75v531q-23 39 -59.5 74.5t-83.5 62.5t-101.5 43t-111.5 16q-90 0 -160.5 -35.5t-118 -98t-72 -146.5t-24.5 -182z" />
<glyph unicode="r" horiz-adv-x="622" d="M176 0v989h62v-180q66 88 148.5 143.5t191.5 55.5v-74q-14 2 -24.5 2h-25.5q-39 0 -83 -17.5t-85 -45t-73.5 -62.5t-48.5 -70v-741h-62z" />
<glyph unicode="s" horiz-adv-x="929" d="M90 133l49 45q47 -61 125 -104t189 -43q137 0 214.5 65.5t77.5 163.5q0 76 -47 118t-117.5 67.5t-152.5 44t-152.5 48t-117.5 79t-47 135.5q0 55 22.5 102t65.5 83t105.5 56.5t141.5 20.5q129 0 211 -44t129 -106l-45 -41q-43 61 -118.5 98t-176.5 37q-129 0 -201.5 -59 t-72.5 -147q0 -70 47 -107t118 -60.5t152.5 -42t152.5 -50t118 -85t47 -147.5q0 -57 -21.5 -109.5t-65.5 -91.5t-110.5 -61.5t-156.5 -22.5q-117 0 -203 36t-160 122z" />
<glyph unicode="t" horiz-adv-x="524" d="M25 934v55h163v271h62v-271h201v-55h-201v-760q0 -63 25.5 -103t80.5 -40q37 0 68 15t49 38l37 -47q-29 -29 -64 -45.5t-90 -16.5q-86 0 -127 53.5t-41 145.5v760h-163z" />
<glyph unicode="u" d="M176 295v694h62v-694q0 -78 18 -129t52 -81t81 -42t105 -12q51 0 102 14t97 39t85 57.5t66 69.5v778h61v-989h-61v152q-63 -72 -158.5 -124.5t-200.5 -52.5q-147 0 -228 72t-81 248z" />
<glyph unicode="v" horiz-adv-x="964" d="M23 989h71l389 -917l387 917h72l-424 -989h-72z" />
<glyph unicode="w" horiz-adv-x="1441" d="M45 989h68l286 -893l297 893h49l297 -893l287 893h68l-328 -989h-49l-299 897l-299 -897h-49z" />
<glyph unicode="x" horiz-adv-x="966" d="M45 0l404 508l-381 481h79l336 -438l336 438h80l-381 -481l404 -508h-80l-359 467l-358 -467h-80z" />
<glyph unicode="y" horiz-adv-x="964" d="M23 989h71l389 -917l387 917h72l-524 -1222q-35 -80 -89.5 -124t-127.5 -44q-27 0 -53.5 4t-45.5 10l13 57q16 -8 41.5 -12t44.5 -4q49 0 85 27.5t70 107.5l90 205z" />
<glyph unicode="z" horiz-adv-x="954" d="M123 0v55l629 879h-629v55h700v-55l-633 -879h641v-55h-708z" />
<glyph unicode="{" horiz-adv-x="485" d="M14 469v61q53 0 80 45.5t27 102.5v479q0 51 17.5 94t46 74t65.5 47.5t74 16.5h127v-62h-127q-57 0 -99.5 -48t-42.5 -122v-479q0 -66 -20.5 -111t-71.5 -67q51 -23 71.5 -68t20.5 -110v-480q0 -72 42 -121t100 -49h127v-61h-127q-37 0 -74 16.5t-65.5 47t-46 72.5 t-17.5 95v480q0 57 -26.5 102t-80.5 45z" />
<glyph unicode="|" horiz-adv-x="421" d="M180 -41v1448h62v-1448h-62z" />
<glyph unicode="}" horiz-adv-x="485" d="M35 -328h127q57 0 99 49.5t42 120.5v480q0 66 20.5 110.5t71.5 67.5q-51 23 -71.5 67.5t-20.5 110.5v479q0 74 -42 122t-99 48h-127v62h127q37 0 73.5 -16.5t65.5 -47.5t46.5 -74t17.5 -94v-479q0 -57 26.5 -102.5t79.5 -45.5v-61q-53 0 -79.5 -45t-26.5 -102v-480 q0 -53 -17.5 -95t-46.5 -72.5t-65.5 -47t-73.5 -16.5h-127v61z" />
<glyph unicode="~" horiz-adv-x="1015" d="M57 893q8 94 25.5 179t48.5 149.5t77 102.5t114 38q61 0 100 -31t64.5 -77t44 -100t39 -100t49 -77t75.5 -31q88 0 135.5 105.5t67.5 314.5l61 -6q-10 -94 -26.5 -179t-47 -150.5t-76.5 -104.5t-114 -39q-61 0 -100 30.5t-64.5 76.5t-44 99.5t-39 99.5t-49 76.5 t-75.5 30.5q-88 0 -135.5 -106.5t-67.5 -310.5z" />
<glyph unicode="&#xa1;" horiz-adv-x="425" d="M145 940q0 29 19.5 48.5t48.5 19.5t48.5 -19.5t19.5 -48.5q0 -27 -19.5 -46.5t-48.5 -19.5t-48.5 19.5t-19.5 46.5zM170 -377l23 1036h40l23 -1036h-86z" />
<glyph unicode="&#xa2;" horiz-adv-x="1009" d="M123 496q0 100 28.5 189t82 157.5t130 112.5t173.5 55v147h61v-143q117 -2 191.5 -45t138.5 -121l-45 -37q-59 80 -129 112.5t-156 34.5v-927q86 0 155.5 33.5t129.5 115.5l45 -39q-63 -78 -138 -121t-192 -45v-180h-61v185q-96 10 -173 54t-130.5 113.5t-82 158.5 t-28.5 190zM190 496q0 -90 24 -169t68 -140.5t108.5 -102.5t146.5 -51v921q-82 -10 -146.5 -50t-108.5 -101.5t-68 -140t-24 -166.5z" />
<glyph unicode="&#xa3;" horiz-adv-x="1005" d="M35 547v61h293q-35 39 -74 77t-71.5 83t-55.5 101.5t-23 131.5q0 74 31 143.5t86 123t134 86t175 32.5q57 0 111.5 -15t102 -43t84 -67.5t61.5 -86.5l-53 -37q-14 33 -42 66.5t-68 60t-89 44t-107 17.5q-72 0 -136 -21.5t-113.5 -62.5t-79 -101.5t-29.5 -138.5 q0 -74 22.5 -128t56.5 -98t74 -84t72 -83h312v-61h-273q16 -29 24.5 -60.5t8.5 -70.5q0 -55 -14.5 -100.5t-39 -82t-56 -66.5t-66.5 -56q23 8 51.5 14t61.5 6q53 0 94 -15.5t77.5 -34t74.5 -33.5t85 -15q72 0 131.5 29.5t81.5 58.5l37 -55q-43 -41 -107.5 -68t-146.5 -27 q-72 0 -111.5 15.5t-73.5 34t-73 34t-106 15.5q-53 0 -116 -25t-128 -59l-29 67q160 68 236 163t76 200q0 39 -10.5 70.5t-26.5 60.5h-336z" />
<glyph unicode="&#xa4;" horiz-adv-x="1181" d="M63 1167l43 43l168 -170q59 55 138.5 87t177.5 32t177 -30.5t138 -86.5l166 166l43 -43l-168 -168q104 -129 105 -315q0 -92 -27 -171t-76 -142l166 -166l-43 -43l-164 164q-59 -57 -139 -89t-178 -32t-178 31.5t-140 89.5l-163 -164l-43 43l165 166q-49 63 -75.5 142 t-26.5 171q0 186 104 315zM197 682q0 -82 25.5 -156.5t75.5 -133t124 -93.5t168 -35t167.5 35t124 93.5t76 133t25.5 156.5q0 80 -25.5 155.5t-76 133t-124 92.5t-167.5 35t-168 -35t-124 -92.5t-75.5 -133t-25.5 -155.5z" />
<glyph unicode="&#xa5;" horiz-adv-x="1249" d="M43 264v62h549v266h-549v61h504l-504 713h84l498 -709l497 709h84l-506 -713h506v-61h-549v-266h549v-62h-549v-264h-65v264h-549z" />
<glyph unicode="&#xa6;" horiz-adv-x="421" d="M180 -41v647h62v-647h-62zM180 760v647h62v-647h-62z" />
<glyph unicode="&#xa7;" horiz-adv-x="929" d="M90 -8l49 45q43 -57 119 -102.5t195 -45.5q129 0 210.5 61.5t81.5 168.5q0 76 -47 116.5t-117.5 67.5t-152.5 45.5t-152.5 48t-117.5 78.5t-47 135q0 113 76.5 177.5t189.5 89.5q-59 16 -107.5 36.5t-84 49t-55 67.5t-19.5 94q0 51 20.5 98.5t62.5 84t105 58t147 21.5 q127 0 210 -45t130 -104l-45 -41q-53 72 -132 103.5t-163 31.5q-119 0 -196.5 -57t-77.5 -154q0 -70 47 -106.5t118 -59t152.5 -41t152.5 -50.5t118 -86t47 -150q0 -180 -205 -260q96 -35 150.5 -91.5t54.5 -156.5q0 -135 -97.5 -210t-256.5 -75q-74 0 -129.5 13.5t-97.5 35 t-74.5 50t-61.5 59.5zM172 606q0 -53 29.5 -87t80 -57.5t116 -39.5t134.5 -35q98 43 155.5 99.5t57.5 146.5q0 53 -25.5 90t-66.5 61.5t-91 41t-99 28.5q-84 -23 -140.5 -49.5t-90 -57t-47 -66.5t-13.5 -75z" />
<glyph unicode="&#xa8;" horiz-adv-x="516" d="M-6 1225q0 23 17.5 40t39.5 17q23 0 40.5 -17t17.5 -40t-17.5 -40.5t-40.5 -17.5t-40 17.5t-17 40.5zM408 1225q0 23 17 40t40 17t40 -17t17 -40t-17.5 -40.5t-39.5 -17.5q-23 0 -40 17.5t-17 40.5z" />
<glyph unicode="&#xa9;" horiz-adv-x="1593" d="M90 684q0 147 55.5 275t151.5 224.5t225 152t275 55.5q147 0 275 -55.5t224.5 -152t151.5 -224.5t55 -275q0 -145 -55 -274t-151.5 -225.5t-224.5 -152t-275 -55.5q-145 0 -274.5 55.5t-225.5 152t-151.5 225.5t-55.5 274zM143 684q0 -135 51.5 -254t140.5 -208t208 -140 t254 -51t253.5 51t208 140t140.5 208t51 254t-51 254t-140.5 208t-208 140t-253.5 51t-254 -51t-208 -140t-140.5 -208t-51.5 -254zM371 688q0 94 33.5 174t91 138.5t135.5 92t166 33.5q96 0 168.5 -33.5t126.5 -97.5l-41 -41q-41 53 -112 85t-142 32q-72 0 -138.5 -27.5 t-116.5 -78t-81 -121t-31 -158.5q0 -84 31 -155.5t81 -123t116.5 -80t138.5 -28.5q74 0 143.5 33t110.5 86l41 -41q-55 -66 -127 -99.5t-168 -33.5q-88 0 -166 33.5t-135.5 94t-91 141.5t-33.5 175z" />
<glyph unicode="&#xaa;" horiz-adv-x="761" d="M102 866q0 51 19.5 91t52.5 68t75 41t85 13q139 0 231 -94v139q0 37 -15 66t-42 48t-59.5 28.5t-67.5 9.5q-57 0 -112.5 -23.5t-98.5 -78.5l-37 38q49 57 107.5 86t142.5 29q100 0 169 -49t69 -154v-456h-56v77q-92 -94 -231 -94q-43 0 -85 14.5t-75 42t-52.5 67.5 t-19.5 91zM162 866q0 -74 52 -122t138 -48q63 0 119.5 23.5t93.5 71.5v149q-37 47 -93 70.5t-120 23.5q-86 0 -138 -48t-52 -120z" />
<glyph unicode="&#xab;" horiz-adv-x="745" d="M61 498l328 362h80l-328 -362l328 -369h-80zM276 498l328 362h80l-328 -362l328 -369h-80z" />
<glyph unicode="&#xac;" horiz-adv-x="1011" d="M59 856v62h893v-467h-65v405h-828z" />
<glyph unicode="&#xad;" horiz-adv-x="614" d="M61 465v61h492v-61h-492z" />
<glyph unicode="&#xae;" horiz-adv-x="1011" d="M72 952q0 90 33.5 170t93 138.5t138.5 92t169 33.5t170 -33.5t138 -92t92 -138.5t34 -170t-34 -168.5t-92 -138t-138 -93.5t-170 -34t-169 34t-138.5 93.5t-93 138t-33.5 168.5zM125 952q0 -78 29.5 -147.5t82 -121.5t121 -82t148.5 -30t148.5 30t120.5 82t82 121.5 t30 147.5q0 80 -30 149.5t-82 121t-120.5 81t-148.5 29.5t-148.5 -29.5t-121 -81t-82 -121t-29.5 -149.5zM342 702v498h203q63 0 107 -41t44 -110q0 -41 -15 -70t-36.5 -46.5t-43 -24.5t-32.5 -7l133 -199h-75l-129 197h-97v-197h-59zM401 956h144q33 0 61.5 27t28.5 66 q0 41 -28.5 68.5t-61.5 27.5h-144v-189z" />
<glyph unicode="&#xaf;" horiz-adv-x="743" d="M0 1190v55h743v-55h-743z" />
<glyph unicode="&#xb0;" horiz-adv-x="559" d="M53 1159q0 47 17.5 88t48.5 72t71.5 49t88.5 18q47 0 88 -18t71.5 -49t49 -72t18.5 -88t-18.5 -88t-49 -71.5t-71.5 -48t-88 -17.5t-88 17.5t-72 48t-48.5 71.5t-17.5 88zM115 1159q0 -68 48 -116t116 -48t116.5 48t48.5 116t-49 117t-116 49q-68 0 -116 -49t-48 -117z " />
<glyph unicode="&#xb1;" horiz-adv-x="1011" d="M59 0v61h893v-61h-893zM59 659v62h414v442h66v-442h413v-62h-413v-454h-66v454h-414z" />
<glyph unicode="&#xb2;" horiz-adv-x="778" d="M111 862v49q104 76 194 147.5t155.5 140.5t103.5 134.5t38 128.5q0 49 -18.5 83t-47 55.5t-65.5 30.5t-74 9q-80 0 -140 -30.5t-93 -77.5l-41 37q41 59 114.5 91.5t161.5 32.5q43 0 90.5 -12t85 -39.5t62.5 -70.5t25 -107q0 -72 -38 -141.5t-100.5 -137t-146.5 -135 t-176 -135.5h465v-53h-555z" />
<glyph unicode="&#xb3;" horiz-adv-x="778" d="M102 983l41 35q35 -51 96.5 -84t145.5 -33q102 0 161.5 47t59.5 133q0 47 -19.5 81t-52 55.5t-75.5 31.5t-92 10h-45.5t-28.5 -2v56q10 -2 27.5 -2h46.5q45 0 86 9t72.5 28.5t50 51t18.5 76.5q0 39 -17.5 70t-46 51.5t-66.5 31.5t-81 11q-76 0 -130 -26.5t-101 -79.5 l-39 37q43 51 111.5 86.5t160.5 35.5q53 0 102.5 -14t86 -41.5t58 -67.5t21.5 -92q0 -49 -19.5 -83.5t-47 -58t-59 -35t-56.5 -15.5q27 -2 60.5 -15.5t64.5 -38t51.5 -62.5t20.5 -89q0 -102 -74 -167.5t-209 -65.5q-104 0 -176 40t-107 95z" />
<glyph unicode="&#xb4;" horiz-adv-x="419" d="M0 1139l328 295h92l-359 -295h-61z" />
<glyph unicode="&#xb5;" horiz-adv-x="1110" d="M176 -377v1366h62v-694q0 -145 70.5 -206.5t189.5 -61.5q49 0 99 15t96 39.5t85 58.5t66 71v778h61v-815q0 -63 25.5 -103t81.5 -40q25 0 41 4l6 -55q-10 -2 -21.5 -3.5t-25.5 -1.5q-86 0 -124 49.5t-44 127.5q-61 -72 -153.5 -124.5t-192.5 -52.5q-115 0 -174.5 40 t-85.5 94v-486h-62z" />
<glyph unicode="&#xb6;" horiz-adv-x="919" d="M55 1014q0 74 28 137t76 111.5t111.5 76t137.5 27.5h323v-1571h-61v1510h-201v-1510h-61v867q-74 0 -137.5 27.5t-111.5 75.5t-76 111.5t-28 137.5z" />
<glyph unicode="&#xb7;" horiz-adv-x="425" d="M145 502q0 27 19.5 46t48.5 19t48.5 -19t19.5 -46q0 -29 -19.5 -48.5t-48.5 -19.5t-48.5 19.5t-19.5 48.5z" />
<glyph unicode="&#xb8;" horiz-adv-x="391" d="M0 -326l29 56q37 -33 79 -45.5t82 -12.5q57 0 99.5 27t42.5 74q0 41 -21.5 64.5t-68.5 23.5q-25 0 -48.5 -10.5t-39.5 -28.5l-45 26l63 175h61l-53 -142q16 12 37 18.5t41 6.5q59 0 96 -36t37 -97q0 -70 -57.5 -113t-143.5 -43q-59 0 -110 17.5t-80 39.5z" />
<glyph unicode="&#xb9;" horiz-adv-x="393" d="M41 1499l174 182h55v-819h-61v737l-129 -141z" />
<glyph unicode="&#xba;" horiz-adv-x="829" d="M98 989q0 72 22.5 133.5t64.5 107.5t99.5 71.5t129.5 25.5t130 -25.5t100 -71.5t64.5 -107.5t22.5 -133.5t-22.5 -133t-64.5 -106t-100 -72t-130 -27t-129.5 27t-99.5 72t-64.5 106.5t-22.5 132.5zM160 989q0 -57 17.5 -108.5t49 -90t79 -62t108.5 -23.5t109 23.5t81 62 t50.5 90t17.5 108.5t-17.5 108.5t-50.5 90.5t-81 61.5t-109 22.5t-108.5 -22.5t-79 -61.5t-49 -90t-17.5 -109z" />
<glyph unicode="&#xbb;" horiz-adv-x="745" d="M61 129l328 369l-328 362h80l328 -362l-328 -369h-80zM276 129l328 369l-328 362h80l328 -362l-328 -369h-80z" />
<glyph unicode="&#xbc;" horiz-adv-x="1464" d="M41 1184l174 182h55v-819h-61v737l-129 -141zM170 0l872 1366h76l-874 -1366h-74zM782 231v54l381 534h80v-534h127v-54h-127v-231h-59v231h-402zM846 285h338v475z" />
<glyph unicode="&#xbd;" horiz-adv-x="1546" d="M41 1184l174 182h55v-819h-61v737l-129 -141zM170 0l872 1366h76l-874 -1366h-74zM879 0v49q104 76 194 147.5t155.5 140.5t103.5 134.5t38 128.5q0 49 -18.5 83t-47 55.5t-65.5 30.5t-74 9q-80 0 -140 -30.5t-93 -77.5l-41 37q41 59 114.5 91.5t161.5 32.5 q43 0 90.5 -12t85 -39.5t62.5 -70.5t25 -107q0 -72 -38 -141.5t-100.5 -137t-146.5 -135t-176 -135.5h465v-53h-555z" />
<glyph unicode="&#xbe;" horiz-adv-x="1722" d="M102 668l41 35q35 -51 96.5 -84t145.5 -33q102 0 161.5 47t59.5 133q0 47 -19.5 81t-52 55.5t-75.5 31.5t-92 10h-45.5t-28.5 -2v56q10 -2 27.5 -2h46.5q45 0 86 9t72.5 28.5t50 51t18.5 76.5q0 39 -17.5 70t-46 51.5t-66.5 31.5t-81 11q-76 0 -130 -26.5t-101 -79.5 l-39 37q43 51 111.5 86.5t160.5 35.5q53 0 102.5 -14t86 -41.5t58 -67.5t21.5 -92q0 -49 -19.5 -83.5t-47 -58t-59 -35t-56.5 -15.5q27 -2 60.5 -15.5t64.5 -38t51.5 -62.5t20.5 -89q0 -102 -74 -167.5t-209 -65.5q-104 0 -176 40t-107 95zM428 0l872 1366h76l-874 -1366 h-74zM1040 231v54l381 534h80v-534h127v-54h-127v-231h-59v231h-402zM1104 285h338v475z" />
<glyph unicode="&#xbf;" horiz-adv-x="800" d="M84 -90q0 80 33 137t82 102.5t105 81t105.5 73.5t82 80t32.5 99q0 23 -16 54.5t-51 54.5l39 47q49 -37 69.5 -76t20.5 -80q0 -70 -32 -119t-80 -88.5t-103.5 -75.5t-103.5 -76t-79.5 -91t-31.5 -123q0 -51 20.5 -96t59 -80t96 -55.5t133.5 -20.5q150 0 238 54.5 t153 146.5l47 -43q-68 -98 -174 -158.5t-264 -60.5q-90 0 -161 25.5t-120 68.5t-74.5 100t-25.5 119zM434 940q0 29 19.5 48.5t48.5 19.5t48 -19.5t19 -48.5q0 -27 -19.5 -46.5t-47.5 -19.5q-29 0 -48.5 19.5t-19.5 46.5z" />
<glyph unicode="&#xc0;" horiz-adv-x="1302" d="M43 0l569 1366h78l570 -1366h-76l-152 367h-762l-151 -367h-76zM295 428h713l-357 862zM336 1776h92l328 -295h-62z" />
<glyph unicode="&#xc1;" horiz-adv-x="1302" d="M43 0l569 1366h78l570 -1366h-76l-152 367h-762l-151 -367h-76zM295 428h713l-357 862zM547 1481l328 295h92l-359 -295h-61z" />
<glyph unicode="&#xc2;" horiz-adv-x="1302" d="M43 0l569 1366h78l570 -1366h-76l-152 367h-762l-151 -367h-76zM295 428h713l-357 862zM414 1481l201 295h73l207 -295h-57l-186 245l-181 -245h-57z" />
<glyph unicode="&#xc3;" horiz-adv-x="1302" d="M43 0l569 1366h78l570 -1366h-76l-152 367h-762l-151 -367h-76zM295 428h713l-357 862zM344 1489q0 55 11.5 105.5t35 87t57 59t76.5 22.5q59 0 91 -35.5t55.5 -79.5t48 -80t67.5 -36q51 0 86 51t35 168h53q0 -55 -11 -105.5t-34.5 -87t-57.5 -59t-77 -22.5 q-59 0 -91 35.5t-55.5 79.5t-48 80t-67.5 36q-51 0 -86 -51t-35 -168h-53z" />
<glyph unicode="&#xc4;" horiz-adv-x="1302" d="M43 0l569 1366h78l570 -1366h-76l-152 367h-762l-151 -367h-76zM295 428h713l-357 862zM389 1567q0 23 17.5 40t39.5 17q23 0 40.5 -17t17.5 -40t-17.5 -40.5t-40.5 -17.5t-40 17.5t-17 40.5zM803 1567q0 23 17 40t40 17t40 -17t17 -40t-17.5 -40.5t-39.5 -17.5 q-23 0 -40 17.5t-17 40.5z" />
<glyph unicode="&#xc5;" horiz-adv-x="1302" d="M43 0l569 1366h78l570 -1366h-76l-152 367h-762l-151 -367h-76zM295 428h713l-357 862zM463 1608q0 39 15.5 74t41 60.5t60.5 40.5t73 15q39 0 74 -15t60.5 -40.5t40 -60.5t14.5 -74t-14.5 -74t-40 -60.5t-60.5 -40.5t-74 -15t-73.5 15t-60 40.5t-41 60.5t-15.5 74z M512 1608q0 -59 41 -100t100 -41t99.5 41t40.5 100t-40 100t-100 41q-59 0 -100 -41t-41 -100z" />
<glyph unicode="&#xc6;" horiz-adv-x="1904" d="M43 0l870 1366h859v-61h-771v-572h756v-61h-756v-611h771v-61h-836v367h-586l-231 -367h-76zM385 428h551v862z" />
<glyph unicode="&#xc7;" horiz-adv-x="1366" d="M133 682q0 158 53.5 288t145.5 223t217 144.5t266 51.5q145 0 264 -55.5t211 -159.5l-51 -46q-72 92 -183.5 145.5t-240.5 53.5t-239.5 -47t-193.5 -131t-130 -204t-47 -263t47 -262t130 -204t193.5 -132t239.5 -47t240.5 53t183.5 146l53 -43q-190 -215 -467 -218 l-32 -86q16 12 36.5 18.5t40.5 6.5q59 0 96.5 -36t37.5 -97q0 -70 -57.5 -113t-143.5 -43q-59 0 -110.5 17.5t-80.5 40.5l29 55q37 -33 79 -45t83 -12q57 0 99 26.5t42 73.5q0 41 -21.5 64.5t-68.5 23.5q-25 0 -48.5 -10.5t-39.5 -28.5l-45 27l43 120q-133 8 -248 63.5 t-200 148t-134 217t-49 276.5z" />
<glyph unicode="&#xc8;" horiz-adv-x="1142" d="M180 0v1366h836v-61h-770v-572h755v-61h-755v-611h770v-61h-836zM283 1776h92l328 -295h-62z" />
<glyph unicode="&#xc9;" horiz-adv-x="1142" d="M180 0v1366h836v-61h-770v-572h755v-61h-755v-611h770v-61h-836zM494 1481l328 295h92l-359 -295h-61z" />
<glyph unicode="&#xca;" horiz-adv-x="1142" d="M180 0v1366h836v-61h-770v-572h755v-61h-755v-611h770v-61h-836zM354 1481l201 295h73l207 -295h-57l-186 245l-181 -245h-57z" />
<glyph unicode="&#xcb;" horiz-adv-x="1142" d="M180 0v1366h836v-61h-770v-572h755v-61h-755v-611h770v-61h-836zM330 1567q0 23 17.5 40t39.5 17q23 0 40.5 -17t17.5 -40t-17.5 -40.5t-40.5 -17.5t-40 17.5t-17 40.5zM744 1567q0 23 17 40t40 17t40 -17t17 -40t-17.5 -40.5t-39.5 -17.5q-23 0 -40 17.5t-17 40.5z" />
<glyph unicode="&#xcc;" horiz-adv-x="425" d="M-100 1776h92l328 -295h-62zM180 0v1366h66v-1366h-66z" />
<glyph unicode="&#xcd;" horiz-adv-x="425" d="M109 1481l328 295h92l-359 -295h-61zM180 0v1366h66v-1366h-66z" />
<glyph unicode="&#xce;" horiz-adv-x="425" d="M-23 1481l201 295h73l207 -295h-57l-186 245l-181 -245h-57zM180 0v1366h66v-1366h-66z" />
<glyph unicode="&#xcf;" horiz-adv-x="425" d="M-49 1567q0 23 17.5 40t39.5 17q23 0 40.5 -17t17.5 -40t-17.5 -40.5t-40.5 -17.5t-40 17.5t-17 40.5zM180 0v1366h66v-1366h-66zM365 1567q0 23 17 40t40 17t40 -17t17 -40t-17.5 -40.5t-39.5 -17.5q-23 0 -40 17.5t-17 40.5z" />
<glyph unicode="&#xd0;" horiz-adv-x="1464" d="M25 651v62h219v653h405q160 0 286 -55.5t213 -149.5t134 -218t47 -261q0 -139 -47 -262t-134 -217t-213 -148.5t-286 -54.5h-405v651h-219zM309 61h340q145 0 258 48.5t191 132.5t118.5 197.5t40.5 242.5t-40.5 241.5t-118.5 197.5t-190.5 134.5t-258.5 49.5h-340v-592 h385v-62h-385v-590z" />
<glyph unicode="&#xd1;" horiz-adv-x="1413" d="M180 0v1366h66l921 -1247v1247h66v-1366h-66l-921 1260v-1260h-66zM395 1489q0 55 11.5 105.5t35 87t57 59t76.5 22.5q59 0 91 -35.5t55.5 -79.5t48 -80t67.5 -36q51 0 86 51t35 168h53q0 -55 -11 -105.5t-34.5 -87t-57.5 -59t-77 -22.5q-59 0 -91 35.5t-55.5 79.5 t-48 80t-67.5 36q-51 0 -86 -51t-35 -168h-53z" />
<glyph unicode="&#xd2;" horiz-adv-x="1564" d="M133 682q0 147 45 276t130 224.5t205 151t269 55.5q147 0 268 -55.5t205 -151t130.5 -224.5t46.5 -276t-46.5 -276.5t-130.5 -224.5t-205 -150.5t-268 -55.5q-150 0 -269.5 55.5t-204.5 150.5t-130 224.5t-45 276.5zM205 682q0 -139 40 -257t115.5 -204t182 -135 t239.5 -49q131 0 237.5 49t182.5 135t117 204t41 257q0 141 -41 259t-117 204t-182.5 134t-237.5 48q-133 0 -239.5 -48t-182 -134t-115.5 -204t-40 -259zM467 1776h92l328 -295h-62z" />
<glyph unicode="&#xd3;" horiz-adv-x="1564" d="M133 682q0 147 45 276t130 224.5t205 151t269 55.5q147 0 268 -55.5t205 -151t130.5 -224.5t46.5 -276t-46.5 -276.5t-130.5 -224.5t-205 -150.5t-268 -55.5q-150 0 -269.5 55.5t-204.5 150.5t-130 224.5t-45 276.5zM205 682q0 -139 40 -257t115.5 -204t182 -135 t239.5 -49q131 0 237.5 49t182.5 135t117 204t41 257q0 141 -41 259t-117 204t-182.5 134t-237.5 48q-133 0 -239.5 -48t-182 -134t-115.5 -204t-40 -259zM678 1481l328 295h92l-359 -295h-61z" />
<glyph unicode="&#xd4;" horiz-adv-x="1564" d="M133 682q0 147 45 276t130 224.5t205 151t269 55.5q147 0 268 -55.5t205 -151t130.5 -224.5t46.5 -276t-46.5 -276.5t-130.5 -224.5t-205 -150.5t-268 -55.5q-150 0 -269.5 55.5t-204.5 150.5t-130 224.5t-45 276.5zM205 682q0 -139 40 -257t115.5 -204t182 -135 t239.5 -49q131 0 237.5 49t182.5 135t117 204t41 257q0 141 -41 259t-117 204t-182.5 134t-237.5 48q-133 0 -239.5 -48t-182 -134t-115.5 -204t-40 -259zM545 1481l201 295h73l207 -295h-57l-186 245l-181 -245h-57z" />
<glyph unicode="&#xd5;" horiz-adv-x="1564" d="M133 682q0 147 45 276t130 224.5t205 151t269 55.5q147 0 268 -55.5t205 -151t130.5 -224.5t46.5 -276t-46.5 -276.5t-130.5 -224.5t-205 -150.5t-268 -55.5q-150 0 -269.5 55.5t-204.5 150.5t-130 224.5t-45 276.5zM205 682q0 -139 40 -257t115.5 -204t182 -135 t239.5 -49q131 0 237.5 49t182.5 135t117 204t41 257q0 141 -41 259t-117 204t-182.5 134t-237.5 48q-133 0 -239.5 -48t-182 -134t-115.5 -204t-40 -259zM475 1489q0 55 11.5 105.5t35 87t57 59t76.5 22.5q59 0 91 -35.5t55.5 -79.5t48 -80t67.5 -36q51 0 86 51t35 168h53 q0 -55 -11 -105.5t-34.5 -87t-57.5 -59t-77 -22.5q-59 0 -91 35.5t-55.5 79.5t-48 80t-67.5 36q-51 0 -86 -51t-35 -168h-53z" />
<glyph unicode="&#xd6;" horiz-adv-x="1564" d="M133 682q0 147 45 276t130 224.5t205 151t269 55.5q147 0 268 -55.5t205 -151t130.5 -224.5t46.5 -276t-46.5 -276.5t-130.5 -224.5t-205 -150.5t-268 -55.5q-150 0 -269.5 55.5t-204.5 150.5t-130 224.5t-45 276.5zM205 682q0 -139 40 -257t115.5 -204t182 -135 t239.5 -49q131 0 237.5 49t182.5 135t117 204t41 257q0 141 -41 259t-117 204t-182.5 134t-237.5 48q-133 0 -239.5 -48t-182 -134t-115.5 -204t-40 -259zM514 1567q0 23 17.5 40t39.5 17q23 0 40.5 -17t17.5 -40t-17.5 -40.5t-40.5 -17.5t-40 17.5t-17 40.5zM928 1567 q0 23 17 40t40 17t40 -17t17 -40t-17.5 -40.5t-39.5 -17.5q-23 0 -40 17.5t-17 40.5z" />
<glyph unicode="&#xd7;" horiz-adv-x="1011" d="M145 367l318 317l-318 317l43 43l318 -317l317 317l43 -43l-317 -317l317 -317l-43 -43l-317 317l-318 -317z" />
<glyph unicode="&#xd8;" horiz-adv-x="1564" d="M133 682q0 147 45 276t130 224.5t205 151t269 55.5q94 0 177 -24t155 -65l39 66h74l-62 -102q127 -94 197 -246t70 -336q0 -147 -46.5 -276.5t-130.5 -224.5t-205 -150.5t-268 -55.5q-188 0 -333 88l-37 -63h-74l59 98q-127 96 -195.5 247t-68.5 337zM205 682 q0 -170 58.5 -306t166.5 -222l651 1093q-63 39 -138 59.5t-161 20.5q-133 0 -239.5 -48t-182 -134t-115.5 -204t-40 -259zM481 117q63 -39 139 -59.5t162 -20.5q131 0 237.5 49t182.5 135t117 204t41 257q0 170 -59.5 306t-167.5 222z" />
<glyph unicode="&#xd9;" horiz-adv-x="1376" d="M180 518v848h66v-848q0 -229 112.5 -355t329.5 -126t329.5 126t112.5 355v848h66v-848q0 -256 -129 -399.5t-379 -143.5t-379 145.5t-129 397.5zM373 1776h92l328 -295h-62z" />
<glyph unicode="&#xda;" horiz-adv-x="1376" d="M180 518v848h66v-848q0 -229 112.5 -355t329.5 -126t329.5 126t112.5 355v848h66v-848q0 -256 -129 -399.5t-379 -143.5t-379 145.5t-129 397.5zM584 1481l328 295h92l-359 -295h-61z" />
<glyph unicode="&#xdb;" horiz-adv-x="1376" d="M180 518v848h66v-848q0 -229 112.5 -355t329.5 -126t329.5 126t112.5 355v848h66v-848q0 -256 -129 -399.5t-379 -143.5t-379 145.5t-129 397.5zM455 1481l201 295h73l207 -295h-57l-186 245l-181 -245h-57z" />
<glyph unicode="&#xdc;" horiz-adv-x="1376" d="M180 518v848h66v-848q0 -229 112.5 -355t329.5 -126t329.5 126t112.5 355v848h66v-848q0 -256 -129 -399.5t-379 -143.5t-379 145.5t-129 397.5zM424 1567q0 23 17.5 40t39.5 17q23 0 40.5 -17t17.5 -40t-17.5 -40.5t-40.5 -17.5t-40 17.5t-17 40.5zM838 1567q0 23 17 40 t40 17t40 -17t17 -40t-17.5 -40.5t-39.5 -17.5q-23 0 -40 17.5t-17 40.5z" />
<glyph unicode="&#xdd;" horiz-adv-x="1249" d="M43 1366h84l498 -709l497 709h84l-549 -774v-592h-65v592zM520 1481l328 295h92l-359 -295h-61z" />
<glyph unicode="&#xde;" horiz-adv-x="1136" d="M180 0v1366h66v-264h407q94 0 169 -32t126 -85t78 -123.5t27 -148.5t-28 -148.5t-79 -123t-124.5 -83t-168.5 -30.5h-407v-328h-66zM246 389h405q76 0 136.5 23.5t103.5 66.5t66.5 102.5t23.5 131.5q0 70 -23.5 130t-66.5 104t-103.5 68.5t-136.5 24.5h-405v-651z" />
<glyph unicode="&#xdf;" horiz-adv-x="1142" d="M176 0v1063q0 68 23.5 127t66.5 103t102.5 68.5t131.5 24.5q61 0 115.5 -15t96.5 -45t66.5 -72t24.5 -93q0 -55 -25.5 -93t-62.5 -66.5t-82 -52t-82 -51.5t-62.5 -63.5t-25.5 -86.5q0 -70 47 -107t117.5 -59.5t152.5 -41t153 -49t118 -84t47 -147.5q0 -53 -19.5 -103.5 t-61.5 -91t-109.5 -65.5t-164.5 -25q-74 0 -129 13.5t-97 35t-74.5 50t-61.5 59.5l49 45q47 -59 123 -103t190 -44q74 0 129.5 19.5t92 51t54 73.5t17.5 85q0 76 -47 118t-117.5 67.5t-152.5 44t-152.5 48t-118 79t-47.5 135.5q0 57 26 98t62.5 72.5t81.5 57.5t82 51.5 t62.5 56t25.5 73.5q0 41 -22.5 73t-57 53.5t-77.5 32.5t-84 11q-53 0 -100.5 -18.5t-83 -53t-57 -85t-21.5 -111.5v-1063h-62z" />
<glyph unicode="&#xe0;" horiz-adv-x="1052" d="M127 305q0 80 29.5 141.5t78 103.5t111 63.5t127.5 21.5q104 0 188 -35t154 -111v224q0 59 -22.5 105t-60.5 77t-88 47t-107 16q-98 0 -173 -35.5t-145 -119.5l-47 41q72 86 156 128t209 42q74 0 135 -18.5t107 -55.5t72 -93t26 -132v-715h-62v121q-70 -76 -153.5 -111 t-188.5 -35q-66 0 -128 21.5t-110.5 63.5t-78 103.5t-29.5 141.5zM195 305q0 -57 20.5 -107.5t59 -87t92.5 -58t122 -21.5q98 0 183.5 37.5t142.5 113.5v246q-57 76 -142 114t-184 38q-68 0 -122 -21.5t-92.5 -58.5t-59 -87.5t-20.5 -107.5zM221 1434h92l328 -295h-62z" />
<glyph unicode="&#xe1;" horiz-adv-x="1052" d="M127 305q0 80 29.5 141.5t78 103.5t111 63.5t127.5 21.5q104 0 188 -35t154 -111v224q0 59 -22.5 105t-60.5 77t-88 47t-107 16q-98 0 -173 -35.5t-145 -119.5l-47 41q72 86 156 128t209 42q74 0 135 -18.5t107 -55.5t72 -93t26 -132v-715h-62v121q-70 -76 -153.5 -111 t-188.5 -35q-66 0 -128 21.5t-110.5 63.5t-78 103.5t-29.5 141.5zM195 305q0 -57 20.5 -107.5t59 -87t92.5 -58t122 -21.5q98 0 183.5 37.5t142.5 113.5v246q-57 76 -142 114t-184 38q-68 0 -122 -21.5t-92.5 -58.5t-59 -87.5t-20.5 -107.5zM432 1139l328 295h92l-359 -295 h-61z" />
<glyph unicode="&#xe2;" horiz-adv-x="1052" d="M127 305q0 80 29.5 141.5t78 103.5t111 63.5t127.5 21.5q104 0 188 -35t154 -111v224q0 59 -22.5 105t-60.5 77t-88 47t-107 16q-98 0 -173 -35.5t-145 -119.5l-47 41q72 86 156 128t209 42q74 0 135 -18.5t107 -55.5t72 -93t26 -132v-715h-62v121q-70 -76 -153.5 -111 t-188.5 -35q-66 0 -128 21.5t-110.5 63.5t-78 103.5t-29.5 141.5zM195 305q0 -57 20.5 -107.5t59 -87t92.5 -58t122 -21.5q98 0 183.5 37.5t142.5 113.5v246q-57 76 -142 114t-184 38q-68 0 -122 -21.5t-92.5 -58.5t-59 -87.5t-20.5 -107.5zM299 1139l201 295h73l207 -295 h-57l-186 245l-181 -245h-57z" />
<glyph unicode="&#xe3;" horiz-adv-x="1052" d="M127 305q0 80 29.5 141.5t78 103.5t111 63.5t127.5 21.5q104 0 188 -35t154 -111v224q0 59 -22.5 105t-60.5 77t-88 47t-107 16q-98 0 -173 -35.5t-145 -119.5l-47 41q72 86 156 128t209 42q74 0 135 -18.5t107 -55.5t72 -93t26 -132v-715h-62v121q-70 -76 -153.5 -111 t-188.5 -35q-66 0 -128 21.5t-110.5 63.5t-78 103.5t-29.5 141.5zM195 305q0 -57 20.5 -107.5t59 -87t92.5 -58t122 -21.5q98 0 183.5 37.5t142.5 113.5v246q-57 76 -142 114t-184 38q-68 0 -122 -21.5t-92.5 -58.5t-59 -87.5t-20.5 -107.5zM227 1147q0 55 11.5 105.5t35 87 t57 59t76.5 22.5q59 0 91 -35.5t55.5 -79.5t48 -80t67.5 -36q51 0 86 51t35 168h53q0 -55 -11 -105.5t-34.5 -87t-57.5 -59t-77 -22.5q-59 0 -91 35.5t-55.5 79.5t-48 80t-67.5 36q-51 0 -86 -51t-35 -168h-53z" />
<glyph unicode="&#xe4;" horiz-adv-x="1052" d="M127 305q0 80 29.5 141.5t78 103.5t111 63.5t127.5 21.5q104 0 188 -35t154 -111v224q0 59 -22.5 105t-60.5 77t-88 47t-107 16q-98 0 -173 -35.5t-145 -119.5l-47 41q72 86 156 128t209 42q74 0 135 -18.5t107 -55.5t72 -93t26 -132v-715h-62v121q-70 -76 -153.5 -111 t-188.5 -35q-66 0 -128 21.5t-110.5 63.5t-78 103.5t-29.5 141.5zM195 305q0 -57 20.5 -107.5t59 -87t92.5 -58t122 -21.5q98 0 183.5 37.5t142.5 113.5v246q-57 76 -142 114t-184 38q-68 0 -122 -21.5t-92.5 -58.5t-59 -87.5t-20.5 -107.5zM268 1225q0 23 17.5 40t39.5 17 q23 0 40.5 -17t17.5 -40t-17.5 -40.5t-40.5 -17.5t-40 17.5t-17 40.5zM682 1225q0 23 17 40t40 17t40 -17t17 -40t-17.5 -40.5t-39.5 -17.5q-23 0 -40 17.5t-17 40.5z" />
<glyph unicode="&#xe5;" horiz-adv-x="1052" d="M127 305q0 80 29.5 141.5t78 103.5t111 63.5t127.5 21.5q104 0 188 -35t154 -111v224q0 59 -22.5 105t-60.5 77t-88 47t-107 16q-98 0 -173 -35.5t-145 -119.5l-47 41q72 86 156 128t209 42q74 0 135 -18.5t107 -55.5t72 -93t26 -132v-715h-62v121q-70 -76 -153.5 -111 t-188.5 -35q-66 0 -128 21.5t-110.5 63.5t-78 103.5t-29.5 141.5zM195 305q0 -57 20.5 -107.5t59 -87t92.5 -58t122 -21.5q98 0 183.5 37.5t142.5 113.5v246q-57 76 -142 114t-184 38q-68 0 -122 -21.5t-92.5 -58.5t-59 -87.5t-20.5 -107.5zM344 1323q0 39 15.5 74t41 60.5 t60.5 40.5t73 15q39 0 74 -15t60.5 -40.5t40 -60.5t14.5 -74t-14.5 -74t-40 -60.5t-60.5 -40.5t-74 -15t-73.5 15t-60 40.5t-41 60.5t-15.5 74zM393 1323q0 -59 41 -100t100 -41t99.5 41t40.5 100t-40 100t-100 41q-59 0 -100 -41t-41 -100z" />
<glyph unicode="&#xe6;" horiz-adv-x="1853" d="M127 307q0 80 30.5 140.5t82 102.5t118 63.5t138.5 21.5q115 0 206 -34t166 -107v219q0 121 -84 183t-219 62q-106 0 -188 -35.5t-158 -119.5l-47 41q72 86 172 128t238 42q51 0 108.5 -12.5t107.5 -41t85 -77.5t43 -123q23 53 60.5 99t85.5 81t105.5 54.5t118.5 19.5 q109 0 191 -42t136 -114t81 -166t27 -196v-21h-801q2 -90 30.5 -171t77.5 -141.5t119 -96t158 -35.5q98 0 177 37.5t144 111.5l37 -39q-70 -78 -152.5 -122t-203.5 -44q-139 0 -245.5 75t-160.5 216q-43 -135 -147.5 -213t-245.5 -78q-84 0 -155.5 22.5t-124 64.5t-82 103.5 t-29.5 141.5zM195 305q0 -57 22.5 -107.5t64.5 -87t101 -58t133 -21.5q82 0 147.5 28.5t111.5 77.5t69.5 113.5t23.5 134.5v39q-61 78 -154 117t-198 39q-74 0 -133 -21.5t-101 -58.5t-64.5 -87.5t-22.5 -107.5zM930 530h735q0 72 -20.5 148t-65.5 138.5t-114.5 102 t-168.5 39.5q-88 0 -155.5 -39.5t-113.5 -101t-70.5 -137.5t-26.5 -150z" />
<glyph unicode="&#xe7;" horiz-adv-x="1009" d="M123 496q0 106 32.5 200.5t93 165t146.5 111.5t195 41q121 0 197.5 -44t140.5 -122l-45 -37q-59 82 -131 114.5t-158 32.5q-96 0 -171 -35.5t-126 -98t-79 -147.5t-28 -181t28 -181.5t79 -149t126 -99t171 -35.5q86 0 157.5 33.5t131.5 115.5l45 -39q-59 -76 -132 -118.5 t-184 -47.5l-32 -90q16 12 36.5 18.5t40.5 6.5q59 0 96.5 -36t37.5 -97q0 -70 -57.5 -113t-143.5 -43q-59 0 -110.5 17.5t-80.5 39.5l29 56q37 -33 79 -45.5t83 -12.5q57 0 99 27t42 74q0 41 -21.5 64.5t-68.5 23.5q-25 0 -48.5 -10.5t-39.5 -28.5l-45 27l45 124 q-100 6 -180 50.5t-135.5 114t-85 160.5t-29.5 194z" />
<glyph unicode="&#xe8;" horiz-adv-x="1169" d="M123 496q0 106 35 201.5t97 165t147 110.5t186 41q113 0 198.5 -42t144 -114t87.5 -166t29 -196v-21h-854q2 -90 31.5 -171t83.5 -141.5t130 -96t170 -35.5q205 0 344 149l37 -39q-76 -78 -166 -122t-215 -44q-109 0 -197.5 39t-152 109t-99.5 165t-36 208zM193 530h788 q0 72 -23.5 148t-72.5 138.5t-124 102t-175 39.5q-96 0 -168 -39.5t-121 -101t-75.5 -137.5t-28.5 -150zM272 1434h92l328 -295h-62z" />
<glyph unicode="&#xe9;" horiz-adv-x="1169" d="M123 496q0 106 35 201.5t97 165t147 110.5t186 41q113 0 198.5 -42t144 -114t87.5 -166t29 -196v-21h-854q2 -90 31.5 -171t83.5 -141.5t130 -96t170 -35.5q205 0 344 149l37 -39q-76 -78 -166 -122t-215 -44q-109 0 -197.5 39t-152 109t-99.5 165t-36 208zM193 530h788 q0 72 -23.5 148t-72.5 138.5t-124 102t-175 39.5q-96 0 -168 -39.5t-121 -101t-75.5 -137.5t-28.5 -150zM483 1139l328 295h92l-359 -295h-61z" />
<glyph unicode="&#xea;" horiz-adv-x="1169" d="M123 496q0 106 35 201.5t97 165t147 110.5t186 41q113 0 198.5 -42t144 -114t87.5 -166t29 -196v-21h-854q2 -90 31.5 -171t83.5 -141.5t130 -96t170 -35.5q205 0 344 149l37 -39q-76 -78 -166 -122t-215 -44q-109 0 -197.5 39t-152 109t-99.5 165t-36 208zM193 530h788 q0 72 -23.5 148t-72.5 138.5t-124 102t-175 39.5q-96 0 -168 -39.5t-121 -101t-75.5 -137.5t-28.5 -150zM352 1139l201 295h73l207 -295h-57l-186 245l-181 -245h-57z" />
<glyph unicode="&#xeb;" horiz-adv-x="1169" d="M123 496q0 106 35 201.5t97 165t147 110.5t186 41q113 0 198.5 -42t144 -114t87.5 -166t29 -196v-21h-854q2 -90 31.5 -171t83.5 -141.5t130 -96t170 -35.5q205 0 344 149l37 -39q-76 -78 -166 -122t-215 -44q-109 0 -197.5 39t-152 109t-99.5 165t-36 208zM193 530h788 q0 72 -23.5 148t-72.5 138.5t-124 102t-175 39.5q-96 0 -168 -39.5t-121 -101t-75.5 -137.5t-28.5 -150zM326 1225q0 23 17.5 40t39.5 17q23 0 40.5 -17t17.5 -40t-17.5 -40.5t-40.5 -17.5t-40 17.5t-17 40.5zM740 1225q0 23 17 40t40 17t40 -17t17 -40t-17.5 -40.5 t-39.5 -17.5q-23 0 -40 17.5t-17 40.5z" />
<glyph unicode="&#xec;" horiz-adv-x="413" d="M-106 1434h92l328 -295h-62zM176 0v989h62v-989h-62z" />
<glyph unicode="&#xed;" horiz-adv-x="413" d="M102 1139l328 295h92l-359 -295h-61zM176 0v989h62v-989h-62z" />
<glyph unicode="&#xee;" horiz-adv-x="413" d="M-31 1139l201 295h73l207 -295h-57l-186 245l-181 -245h-57zM176 0v989h62v-989h-62z" />
<glyph unicode="&#xef;" horiz-adv-x="413" d="M-55 1225q0 23 17.5 40t39.5 17q23 0 40.5 -17t17.5 -40t-17.5 -40.5t-40.5 -17.5t-40 17.5t-17 40.5zM176 0v989h62v-989h-62zM359 1225q0 23 17 40t40 17t40 -17t17 -40t-17.5 -40.5t-39.5 -17.5q-23 0 -40 17.5t-17 40.5z" />
<glyph unicode="&#xf0;" horiz-adv-x="1167" d="M123 496q0 109 32.5 204t93 164.5t145.5 109.5t190 40q88 0 167.5 -37t151.5 -137q-72 111 -152.5 196.5t-179.5 159.5l-288 -127l-23 53l258 115q-84 57 -178 117l37 55q53 -33 105.5 -66.5t105.5 -74.5l227 100l23 -53l-199 -88q82 -68 155.5 -148t129 -171t88 -194.5 t32.5 -217.5q0 -109 -32.5 -204t-92 -166t-145.5 -111t-190 -40t-189.5 40t-146 111t-93 166t-32.5 204zM190 496q0 -90 26 -174t76 -148.5t124 -103.5t168 -39t167.5 39t124 103.5t76 148.5t25.5 174t-25.5 173t-76 147.5t-124 103t-167.5 38.5t-168 -38.5t-124 -103 t-76 -147.5t-26 -173z" />
<glyph unicode="&#xf1;" d="M176 0v989h62v-155q27 33 67.5 65.5t87.5 58t99.5 41t103.5 15.5q147 0 228 -74t81 -250v-690h-61v690q0 78 -18.5 129t-52.5 82t-81 44t-104 13q-51 0 -102.5 -15t-97.5 -40.5t-85 -59.5t-65 -71v-772h-62zM233 1147q0 55 11.5 105.5t35 87t57 59t76.5 22.5 q59 0 91 -35.5t55.5 -79.5t48 -80t67.5 -36q51 0 86 51t35 168h53q0 -55 -11 -105.5t-34.5 -87t-57.5 -59t-77 -22.5q-59 0 -91 35.5t-55.5 79.5t-48 80t-67.5 36q-51 0 -86 -51t-35 -168h-53z" />
<glyph unicode="&#xf2;" horiz-adv-x="1167" d="M123 496q0 109 32.5 204t93 164.5t145.5 109.5t190 40q104 0 190 -40t145.5 -109.5t92 -165t32.5 -203.5q0 -109 -32.5 -204t-92 -166t-145.5 -111t-190 -40t-189.5 40t-146 111t-93 166t-32.5 204zM190 496q0 -90 26 -174t76 -148.5t124 -103.5t168 -39t167.5 39 t124 103.5t76 148.5t25.5 174t-25.5 173t-76 147.5t-124 103t-167.5 38.5t-168 -38.5t-124 -103t-76 -147.5t-26 -173zM268 1434h92l328 -295h-62z" />
<glyph unicode="&#xf3;" horiz-adv-x="1167" d="M123 496q0 109 32.5 204t93 164.5t145.5 109.5t190 40q104 0 190 -40t145.5 -109.5t92 -165t32.5 -203.5q0 -109 -32.5 -204t-92 -166t-145.5 -111t-190 -40t-189.5 40t-146 111t-93 166t-32.5 204zM190 496q0 -90 26 -174t76 -148.5t124 -103.5t168 -39t167.5 39 t124 103.5t76 148.5t25.5 174t-25.5 173t-76 147.5t-124 103t-167.5 38.5t-168 -38.5t-124 -103t-76 -147.5t-26 -173zM479 1139l328 295h92l-359 -295h-61z" />
<glyph unicode="&#xf4;" horiz-adv-x="1167" d="M123 496q0 109 32.5 204t93 164.5t145.5 109.5t190 40q104 0 190 -40t145.5 -109.5t92 -165t32.5 -203.5q0 -109 -32.5 -204t-92 -166t-145.5 -111t-190 -40t-189.5 40t-146 111t-93 166t-32.5 204zM190 496q0 -90 26 -174t76 -148.5t124 -103.5t168 -39t167.5 39 t124 103.5t76 148.5t25.5 174t-25.5 173t-76 147.5t-124 103t-167.5 38.5t-168 -38.5t-124 -103t-76 -147.5t-26 -173zM346 1139l201 295h73l207 -295h-57l-186 245l-181 -245h-57z" />
<glyph unicode="&#xf5;" horiz-adv-x="1167" d="M123 496q0 109 32.5 204t93 164.5t145.5 109.5t190 40q104 0 190 -40t145.5 -109.5t92 -165t32.5 -203.5q0 -109 -32.5 -204t-92 -166t-145.5 -111t-190 -40t-189.5 40t-146 111t-93 166t-32.5 204zM190 496q0 -90 26 -174t76 -148.5t124 -103.5t168 -39t167.5 39 t124 103.5t76 148.5t25.5 174t-25.5 173t-76 147.5t-124 103t-167.5 38.5t-168 -38.5t-124 -103t-76 -147.5t-26 -173zM276 1147q0 55 11.5 105.5t35 87t57 59t76.5 22.5q59 0 91 -35.5t55.5 -79.5t48 -80t67.5 -36q51 0 86 51t35 168h53q0 -55 -11 -105.5t-34.5 -87 t-57.5 -59t-77 -22.5q-59 0 -91 35.5t-55.5 79.5t-48 80t-67.5 36q-51 0 -86 -51t-35 -168h-53z" />
<glyph unicode="&#xf6;" horiz-adv-x="1167" d="M123 496q0 109 32.5 204t93 164.5t145.5 109.5t190 40q104 0 190 -40t145.5 -109.5t92 -165t32.5 -203.5q0 -109 -32.5 -204t-92 -166t-145.5 -111t-190 -40t-189.5 40t-146 111t-93 166t-32.5 204zM190 496q0 -90 26 -174t76 -148.5t124 -103.5t168 -39t167.5 39 t124 103.5t76 148.5t25.5 174t-25.5 173t-76 147.5t-124 103t-167.5 38.5t-168 -38.5t-124 -103t-76 -147.5t-26 -173zM320 1225q0 23 17.5 40t39.5 17q23 0 40.5 -17t17.5 -40t-17.5 -40.5t-40.5 -17.5t-40 17.5t-17 40.5zM734 1225q0 23 17 40t40 17t40 -17t17 -40 t-17.5 -40.5t-39.5 -17.5q-23 0 -40 17.5t-17 40.5z" />
<glyph unicode="&#xf7;" horiz-adv-x="1046" d="M59 659v62h928v-62h-928zM457 272q0 29 19.5 48.5t47.5 19.5q29 0 48.5 -19.5t19.5 -48.5t-19.5 -48t-48.5 -19t-48 19.5t-19 47.5zM457 1098q0 29 19.5 47t47.5 18q29 0 48.5 -18t19.5 -47t-19.5 -49.5t-48.5 -20.5t-48 20.5t-19 49.5z" />
<glyph unicode="&#xf8;" horiz-adv-x="1167" d="M123 496q0 109 32.5 204t93 164.5t145.5 109.5t190 40q80 0 148.5 -23.5t123.5 -66.5l49 65h68l-76 -102q72 -72 109.5 -172.5t37.5 -218.5q0 -109 -32.5 -204t-92 -166t-145.5 -111t-190 -40q-86 0 -157 27t-128 74l-57 -76h-70l86 115q-66 72 -100.5 169t-34.5 212z M190 496q0 -92 27 -177.5t80 -150.5l522 706q-47 39 -105.5 61.5t-129.5 22.5q-94 0 -168 -38.5t-124 -103t-76 -147.5t-26 -173zM334 125q47 -45 109.5 -69.5t140.5 -24.5q94 0 167.5 39t124 103.5t76 148.5t25.5 174q0 98 -29.5 186t-87.5 154z" />
<glyph unicode="&#xf9;" d="M176 295v694h62v-694q0 -78 18 -129t52 -81t81 -42t105 -12q51 0 102 14t97 39t85 57.5t66 69.5v778h61v-989h-61v152q-63 -72 -158.5 -124.5t-200.5 -52.5q-147 0 -228 72t-81 248zM225 1434h92l328 -295h-62z" />
<glyph unicode="&#xfa;" d="M176 295v694h62v-694q0 -78 18 -129t52 -81t81 -42t105 -12q51 0 102 14t97 39t85 57.5t66 69.5v778h61v-989h-61v152q-63 -72 -158.5 -124.5t-200.5 -52.5q-147 0 -228 72t-81 248zM436 1139l328 295h92l-359 -295h-61z" />
<glyph unicode="&#xfb;" d="M176 295v694h62v-694q0 -78 18 -129t52 -81t81 -42t105 -12q51 0 102 14t97 39t85 57.5t66 69.5v778h61v-989h-61v152q-63 -72 -158.5 -124.5t-200.5 -52.5q-147 0 -228 72t-81 248zM299 1139l201 295h73l207 -295h-57l-186 245l-181 -245h-57z" />
<glyph unicode="&#xfc;" d="M176 295v694h62v-694q0 -78 18 -129t52 -81t81 -42t105 -12q51 0 102 14t97 39t85 57.5t66 69.5v778h61v-989h-61v152q-63 -72 -158.5 -124.5t-200.5 -52.5q-147 0 -228 72t-81 248zM285 1225q0 23 17.5 40t39.5 17q23 0 40.5 -17t17.5 -40t-17.5 -40.5t-40.5 -17.5 t-40 17.5t-17 40.5zM699 1225q0 23 17 40t40 17t40 -17t17 -40t-17.5 -40.5t-39.5 -17.5q-23 0 -40 17.5t-17 40.5z" />
<glyph unicode="&#xfd;" horiz-adv-x="964" d="M23 989h71l389 -917l387 917h72l-524 -1222q-35 -80 -89.5 -124t-127.5 -44q-27 0 -53.5 4t-45.5 10l13 57q16 -8 41.5 -12t44.5 -4q49 0 85 27.5t70 107.5l90 205zM379 1139l328 295h92l-359 -295h-61z" />
<glyph unicode="&#xfe;" horiz-adv-x="1150" d="M176 -377v1743h62v-543q25 39 61.5 73t82.5 60.5t99.5 42t112.5 15.5q100 0 181 -37t139.5 -104.5t90 -164t31.5 -212.5q0 -117 -31.5 -213.5t-90 -164t-139.5 -105.5t-181 -38q-111 0 -204 53.5t-152 141.5v-547h-62zM238 231q23 -39 59.5 -75.5t83.5 -64.5t101.5 -44 t111.5 -16q90 0 159.5 35.5t118 99t73 147.5t24.5 183q0 98 -24.5 182t-73 146.5t-118 98t-159.5 35.5q-57 0 -111.5 -16t-101.5 -43t-84 -62.5t-59 -74.5v-531z" />
<glyph unicode="&#xff;" horiz-adv-x="964" d="M23 989h71l389 -917l387 917h72l-524 -1222q-35 -80 -89.5 -124t-127.5 -44q-27 0 -53.5 4t-45.5 10l13 57q16 -8 41.5 -12t44.5 -4q49 0 85 27.5t70 107.5l90 205zM219 1225q0 23 17.5 40t39.5 17q23 0 40.5 -17t17.5 -40t-17.5 -40.5t-40.5 -17.5t-40 17.5t-17 40.5z M633 1225q0 23 17 40t40 17t40 -17t17 -40t-17.5 -40.5t-39.5 -17.5q-23 0 -40 17.5t-17 40.5z" />
<glyph unicode="&#x100;" horiz-adv-x="1302" d="M43 0l569 1366h78l570 -1366h-76l-152 367h-762l-151 -367h-76zM279 1532v55h743v-55h-743zM295 428h713l-357 862z" />
<glyph unicode="&#x101;" horiz-adv-x="1052" d="M127 305q0 80 29.5 141.5t78 103.5t111 63.5t127.5 21.5q104 0 188 -35t154 -111v224q0 59 -22.5 105t-60.5 77t-88 47t-107 16q-98 0 -173 -35.5t-145 -119.5l-47 41q72 86 156 128t209 42q74 0 135 -18.5t107 -55.5t72 -93t26 -132v-715h-62v121q-70 -76 -153.5 -111 t-188.5 -35q-66 0 -128 21.5t-110.5 63.5t-78 103.5t-29.5 141.5zM154 1190v55h743v-55h-743zM195 305q0 -57 20.5 -107.5t59 -87t92.5 -58t122 -21.5q98 0 183.5 37.5t142.5 113.5v246q-57 76 -142 114t-184 38q-68 0 -122 -21.5t-92.5 -58.5t-59 -87.5t-20.5 -107.5z" />
<glyph unicode="&#x102;" horiz-adv-x="1302" d="M43 0l569 1366h78l570 -1366h-76l-152 367h-762l-151 -367h-76zM291 1636l43 39q53 -76 135 -120t182 -44t182.5 44t135.5 120l41 -39q-61 -84 -154.5 -132t-204.5 -48t-204 48t-156 132zM295 428h713l-357 862z" />
<glyph unicode="&#x103;" horiz-adv-x="1052" d="M127 305q0 80 29.5 141.5t78 103.5t111 63.5t127.5 21.5q104 0 188 -35t154 -111v224q0 59 -22.5 105t-60.5 77t-88 47t-107 16q-98 0 -173 -35.5t-145 -119.5l-47 41q72 86 156 128t209 42q74 0 135 -18.5t107 -55.5t72 -93t26 -132v-715h-62v121q-70 -76 -153.5 -111 t-188.5 -35q-66 0 -128 21.5t-110.5 63.5t-78 103.5t-29.5 141.5zM166 1294l43 39q53 -76 135 -120t182 -44t182.5 44t135.5 120l41 -39q-61 -84 -154.5 -132t-204.5 -48t-204 48t-156 132zM195 305q0 -57 20.5 -107.5t59 -87t92.5 -58t122 -21.5q98 0 183.5 37.5 t142.5 113.5v246q-57 76 -142 114t-184 38q-68 0 -122 -21.5t-92.5 -58.5t-59 -87.5t-20.5 -107.5z" />
<glyph unicode="&#x104;" horiz-adv-x="1302" d="M43 0l569 1366h78l570 -1366q-74 -35 -121 -86t-47 -123q0 -117 106 -117q47 0 74.5 25t44.5 72l51 -23q-16 -47 -56 -88t-114 -41q-66 0 -116 40t-50 132q0 66 40 125t106 98l-146 353h-762l-151 -367h-76zM295 428h713l-357 862z" />
<glyph unicode="&#x105;" horiz-adv-x="1052" d="M127 305q0 80 29.5 141.5t78 103.5t111 63.5t127.5 21.5q104 0 188 -35t154 -111v224q0 59 -22.5 105t-60.5 77t-88 47t-107 16q-98 0 -173 -35.5t-145 -119.5l-47 41q72 86 156 128t209 42q74 0 135 -18.5t107 -55.5t72 -93t26 -132v-715q-74 -35 -121 -86t-47 -123 q0 -117 106 -117q47 0 75 25t44 72l51 -23q-16 -47 -56 -88t-114 -41q-66 0 -116 40t-50 132q0 72 47 134.5t119 101.5v94q-70 -76 -153.5 -111t-188.5 -35q-66 0 -128 21.5t-110.5 63.5t-78 103.5t-29.5 141.5zM195 305q0 -57 20.5 -107.5t59 -87t92.5 -58t122 -21.5 q98 0 183.5 37.5t142.5 113.5v246q-57 76 -142 114t-184 38q-68 0 -122 -21.5t-92.5 -58.5t-59 -87.5t-20.5 -107.5z" />
<glyph unicode="&#x106;" horiz-adv-x="1366" d="M133 682q0 158 53.5 288t145.5 223t217 144.5t266 51.5q145 0 264 -55.5t211 -159.5l-51 -46q-72 92 -183.5 145.5t-240.5 53.5t-239.5 -47t-193.5 -131t-130 -204t-47 -263t47 -262t130 -204t193.5 -132t239.5 -47t240.5 53t183.5 146l53 -43q-192 -218 -477 -218 q-141 0 -266 51.5t-217 144.5t-145.5 223t-53.5 288zM711 1481l328 295h92l-359 -295h-61z" />
<glyph unicode="&#x107;" horiz-adv-x="1009" d="M123 496q0 106 32.5 200.5t93 165t146.5 111.5t195 41q121 0 197.5 -44t140.5 -122l-45 -37q-59 82 -131 114.5t-158 32.5q-96 0 -171 -35.5t-126 -98t-79 -147.5t-28 -181t28 -181.5t79 -149t126 -99t171 -35.5q86 0 157.5 33.5t131.5 115.5l45 -39q-63 -78 -140 -122 t-198 -44q-109 0 -195 41t-146.5 112t-93 166t-32.5 202zM485 1139l328 295h92l-359 -295h-61z" />
<glyph unicode="&#x108;" horiz-adv-x="1366" d="M133 682q0 158 53.5 288t145.5 223t217 144.5t266 51.5q145 0 264 -55.5t211 -159.5l-51 -46q-72 92 -183.5 145.5t-240.5 53.5t-239.5 -47t-193.5 -131t-130 -204t-47 -263t47 -262t130 -204t193.5 -132t239.5 -47t240.5 53t183.5 146l53 -43q-192 -218 -477 -218 q-141 0 -266 51.5t-217 144.5t-145.5 223t-53.5 288zM575 1481l201 295h73l207 -295h-57l-186 245l-181 -245h-57z" />
<glyph unicode="&#x109;" horiz-adv-x="1009" d="M123 496q0 106 32.5 200.5t93 165t146.5 111.5t195 41q121 0 197.5 -44t140.5 -122l-45 -37q-59 82 -131 114.5t-158 32.5q-96 0 -171 -35.5t-126 -98t-79 -147.5t-28 -181t28 -181.5t79 -149t126 -99t171 -35.5q86 0 157.5 33.5t131.5 115.5l45 -39q-63 -78 -140 -122 t-198 -44q-109 0 -195 41t-146.5 112t-93 166t-32.5 202zM352 1139l201 295h73l207 -295h-57l-186 245l-181 -245h-57z" />
<glyph unicode="&#x10a;" horiz-adv-x="1366" d="M133 682q0 158 53.5 288t145.5 223t217 144.5t266 51.5q145 0 264 -55.5t211 -159.5l-51 -46q-72 92 -183.5 145.5t-240.5 53.5t-239.5 -47t-193.5 -131t-130 -204t-47 -263t47 -262t130 -204t193.5 -132t239.5 -47t240.5 53t183.5 146l53 -43q-192 -218 -477 -218 q-141 0 -266 51.5t-217 144.5t-145.5 223t-53.5 288zM760 1561q0 25 18.5 42t40.5 17q25 0 42.5 -17.5t17.5 -41.5q0 -25 -17.5 -42.5t-42.5 -17.5q-23 0 -41 17.5t-18 42.5z" />
<glyph unicode="&#x10b;" horiz-adv-x="1009" d="M123 496q0 106 32.5 200.5t93 165t146.5 111.5t195 41q121 0 197.5 -44t140.5 -122l-45 -37q-59 82 -131 114.5t-158 32.5q-96 0 -171 -35.5t-126 -98t-79 -147.5t-28 -181t28 -181.5t79 -149t126 -99t171 -35.5q86 0 157.5 33.5t131.5 115.5l45 -39q-63 -78 -140 -122 t-198 -44q-109 0 -195 41t-146.5 112t-93 166t-32.5 202zM537 1219q0 25 18.5 42t40.5 17q25 0 42.5 -17.5t17.5 -41.5q0 -25 -17.5 -42.5t-42.5 -17.5q-23 0 -41 17.5t-18 42.5z" />
<glyph unicode="&#x10c;" horiz-adv-x="1366" d="M133 682q0 158 53.5 288t145.5 223t217 144.5t266 51.5q145 0 264 -55.5t211 -159.5l-51 -46q-72 92 -183.5 145.5t-240.5 53.5t-239.5 -47t-193.5 -131t-130 -204t-47 -263t47 -262t130 -204t193.5 -132t239.5 -47t240.5 53t183.5 146l53 -43q-192 -218 -477 -218 q-141 0 -266 51.5t-217 144.5t-145.5 223t-53.5 288zM575 1776h57l187 -246l180 246h57l-200 -295h-74z" />
<glyph unicode="&#x10d;" horiz-adv-x="1009" d="M123 496q0 106 32.5 200.5t93 165t146.5 111.5t195 41q121 0 197.5 -44t140.5 -122l-45 -37q-59 82 -131 114.5t-158 32.5q-96 0 -171 -35.5t-126 -98t-79 -147.5t-28 -181t28 -181.5t79 -149t126 -99t171 -35.5q86 0 157.5 33.5t131.5 115.5l45 -39q-63 -78 -140 -122 t-198 -44q-109 0 -195 41t-146.5 112t-93 166t-32.5 202zM352 1434h57l187 -246l180 246h57l-200 -295h-74z" />
<glyph unicode="&#x10e;" horiz-adv-x="1400" d="M180 0v1366h406q160 0 285.5 -55.5t212.5 -149.5t134.5 -218t47.5 -261q0 -139 -47.5 -262t-134.5 -217t-213 -148.5t-285 -54.5h-406zM246 61h340q145 0 257.5 48.5t190.5 132.5t119 197.5t41 242.5t-41 241.5t-119 197.5t-190.5 134.5t-257.5 49.5h-340v-1244z M459 1776h57l187 -246l180 246h57l-200 -295h-74z" />
<glyph unicode="&#x10f;" horiz-adv-x="1239" d="M123 494q0 117 31.5 213t90 163.5t139.5 105.5t181 38q111 0 204 -53.5t153 -141.5v547h61v-1366h-61v166q-25 -39 -62 -74t-83 -60.5t-100 -41t-112 -15.5q-100 0 -181 37t-139.5 104.5t-90 164t-31.5 213.5zM190 494q0 -98 25 -182.5t72 -147t117.5 -98t160.5 -35.5 q57 0 111.5 16t101.5 43t84 62.5t60 74.5v531q-23 39 -60 75.5t-84 64.5t-101 44t-112 16q-90 0 -160.5 -35.5t-117.5 -99t-72 -147.5t-25 -182zM1073 1073q49 37 78.5 89.5t29.5 99.5q-2 -2 -6 -2h-10q-29 0 -47.5 19.5t-18.5 47.5q0 27 18.5 46.5t47.5 19.5q33 0 56.5 -28 t23.5 -81q0 -78 -39 -145.5t-88 -101.5z" />
<glyph unicode="&#x110;" horiz-adv-x="1464" d="M25 651v62h219v653h405q160 0 286 -55.5t213 -149.5t134 -218t47 -261q0 -139 -47 -262t-134 -217t-213 -148.5t-286 -54.5h-405v651h-219zM309 61h340q145 0 258 48.5t191 132.5t118.5 197.5t40.5 242.5t-40.5 241.5t-118.5 197.5t-190.5 134.5t-258.5 49.5h-340v-592 h385v-62h-385v-590z" />
<glyph unicode="&#x111;" horiz-adv-x="1159" d="M123 494q0 117 31.5 213t90 163.5t139.5 105.5t181 38q111 0 204 -53.5t153 -141.5v289h-340v55h340v203h61v-203h158v-55h-158v-1108h-61v166q-25 -39 -62 -74t-83 -60.5t-100 -41t-112 -15.5q-100 0 -181 37t-139.5 104.5t-90 164t-31.5 213.5zM190 494 q0 -98 25 -182.5t72 -147t117.5 -98t160.5 -35.5q57 0 111.5 16t101.5 43t84 62.5t60 74.5v531q-23 39 -60 75.5t-84 64.5t-101 44t-112 16q-90 0 -160.5 -35.5t-117.5 -99t-72 -147.5t-25 -182z" />
<glyph unicode="&#x112;" horiz-adv-x="1142" d="M180 0v1366h836v-61h-770v-572h755v-61h-755v-611h770v-61h-836zM221 1532v55h743v-55h-743z" />
<glyph unicode="&#x113;" horiz-adv-x="1169" d="M123 496q0 106 35 201.5t97 165t147 110.5t186 41q113 0 198.5 -42t144 -114t87.5 -166t29 -196v-21h-854q2 -90 31.5 -171t83.5 -141.5t130 -96t170 -35.5q205 0 344 149l37 -39q-76 -78 -166 -122t-215 -44q-109 0 -197.5 39t-152 109t-99.5 165t-36 208zM193 530h788 q0 72 -23.5 148t-72.5 138.5t-124 102t-175 39.5q-96 0 -168 -39.5t-121 -101t-75.5 -137.5t-28.5 -150zM213 1190v55h743v-55h-743z" />
<glyph unicode="&#x114;" horiz-adv-x="1142" d="M180 0v1366h836v-61h-770v-572h755v-61h-755v-611h770v-61h-836zM240 1636l43 39q53 -76 135 -120t182 -44t182.5 44t135.5 120l41 -39q-61 -84 -154.5 -132t-204.5 -48t-204 48t-156 132z" />
<glyph unicode="&#x115;" horiz-adv-x="1169" d="M123 496q0 106 35 201.5t97 165t147 110.5t186 41q113 0 198.5 -42t144 -114t87.5 -166t29 -196v-21h-854q2 -90 31.5 -171t83.5 -141.5t130 -96t170 -35.5q205 0 344 149l37 -39q-76 -78 -166 -122t-215 -44q-109 0 -197.5 39t-152 109t-99.5 165t-36 208zM193 530h788 q0 72 -23.5 148t-72.5 138.5t-124 102t-175 39.5q-96 0 -168 -39.5t-121 -101t-75.5 -137.5t-28.5 -150zM233 1294l43 39q53 -76 135 -120t182 -44t182.5 44t135.5 120l41 -39q-61 -84 -154.5 -132t-204.5 -48t-204 48t-156 132z" />
<glyph unicode="&#x116;" horiz-adv-x="1142" d="M180 0v1366h836v-61h-770v-572h755v-61h-755v-611h770v-61h-836zM553 1561q0 25 18.5 42t40.5 17q25 0 42.5 -17.5t17.5 -41.5q0 -25 -17.5 -42.5t-42.5 -17.5q-23 0 -41 17.5t-18 42.5z" />
<glyph unicode="&#x117;" horiz-adv-x="1169" d="M123 496q0 106 35 201.5t97 165t147 110.5t186 41q113 0 198.5 -42t144 -114t87.5 -166t29 -196v-21h-854q2 -90 31.5 -171t83.5 -141.5t130 -96t170 -35.5q205 0 344 149l37 -39q-76 -78 -166 -122t-215 -44q-109 0 -197.5 39t-152 109t-99.5 165t-36 208zM193 530h788 q0 72 -23.5 148t-72.5 138.5t-124 102t-175 39.5q-96 0 -168 -39.5t-121 -101t-75.5 -137.5t-28.5 -150zM530 1219q0 25 18.5 42t40.5 17q25 0 42.5 -17.5t17.5 -41.5q0 -25 -17.5 -42.5t-42.5 -17.5q-23 0 -41 17.5t-18 42.5z" />
<glyph unicode="&#x118;" horiz-adv-x="1142" d="M180 0v1366h836v-61h-770v-572h755v-61h-755v-611h770v-61q-74 -35 -121 -86t-47 -123q0 -117 106 -117q47 0 75 25t44 72l51 -23q-16 -47 -56 -88t-114 -41q-66 0 -116 40t-50 132q0 59 34 113.5t89 95.5h-731z" />
<glyph unicode="&#x119;" horiz-adv-x="1169" d="M123 496q0 106 35 201.5t97 165t147 110.5t186 41q113 0 198.5 -42t144 -114t87.5 -166t29 -196v-21h-854q2 -90 31.5 -171t83.5 -141.5t130 -96t170 -35.5q205 0 344 149l37 -39q-47 -49 -100 -85t-115 -56q-74 -35 -121 -86t-47 -123q0 -117 107 -117q47 0 74.5 25 t43.5 72l52 -23q-16 -47 -56.5 -88t-113.5 -41q-66 0 -116 40t-50 132q0 51 25.5 99.5t66.5 86.5q-8 0 -15.5 -1t-15.5 -1q-109 0 -197.5 39t-152 109t-99.5 165t-36 208zM193 530h788q0 72 -23.5 148t-72.5 138.5t-124 102t-175 39.5q-96 0 -168 -39.5t-121 -101 t-75.5 -137.5t-28.5 -150z" />
<glyph unicode="&#x11a;" horiz-adv-x="1142" d="M180 0v1366h836v-61h-770v-572h755v-61h-755v-611h770v-61h-836zM360 1776h57l187 -246l180 246h57l-200 -295h-74z" />
<glyph unicode="&#x11b;" horiz-adv-x="1169" d="M123 496q0 106 35 201.5t97 165t147 110.5t186 41q113 0 198.5 -42t144 -114t87.5 -166t29 -196v-21h-854q2 -90 31.5 -171t83.5 -141.5t130 -96t170 -35.5q205 0 344 149l37 -39q-76 -78 -166 -122t-215 -44q-109 0 -197.5 39t-152 109t-99.5 165t-36 208zM193 530h788 q0 72 -23.5 148t-72.5 138.5t-124 102t-175 39.5q-96 0 -168 -39.5t-121 -101t-75.5 -137.5t-28.5 -150zM350 1434h57l187 -246l180 246h57l-200 -295h-74z" />
<glyph unicode="&#x11c;" horiz-adv-x="1449" d="M133 682q0 158 53.5 288t145.5 223t217 144.5t266 51.5q156 0 277.5 -53.5t222.5 -157.5l-43 -45q-80 92 -200 143t-257 51q-129 0 -239.5 -47t-193.5 -131t-130 -204t-47 -263t47 -262t130 -205t193.5 -133t239.5 -47q76 0 141.5 17.5t121 44t98.5 59t73 63.5v375h-563 v61h629v-462q-88 -98 -217 -159t-283 -61q-141 0 -266 51.5t-217 145.5t-145.5 224t-53.5 288zM586 1481l201 295h73l207 -295h-57l-186 245l-181 -245h-57z" />
<glyph unicode="&#x11d;" horiz-adv-x="1159" d="M123 492q0 117 31.5 213t90 164.5t139.5 106.5t181 38q111 0 204 -53.5t153 -141.5v170h61v-995q0 -106 -31.5 -181t-87 -123t-132.5 -69.5t-167 -21.5q-61 0 -112.5 6t-96.5 23.5t-86 46t-84 73.5l45 51q66 -80 142 -112.5t192 -32.5q74 0 138.5 19.5t113.5 60.5 t77 105.5t28 154.5v172q-25 -39 -62 -74t-83 -61.5t-100 -43t-112 -16.5q-100 0 -181 37t-139.5 105.5t-90 165t-31.5 213.5zM190 492q0 -98 25 -182.5t72 -148t117.5 -99t160.5 -35.5q57 0 111.5 16t101.5 44t84 64.5t60 75.5v531q-23 39 -60 75.5t-84 64.5t-101 44 t-112 16q-90 0 -160.5 -36.5t-117.5 -99t-72 -147.5t-25 -183zM342 1139l201 295h73l207 -295h-57l-186 245l-181 -245h-57z" />
<glyph unicode="&#x11e;" horiz-adv-x="1449" d="M133 682q0 158 53.5 288t145.5 223t217 144.5t266 51.5q156 0 277.5 -53.5t222.5 -157.5l-43 -45q-80 92 -200 143t-257 51q-129 0 -239.5 -47t-193.5 -131t-130 -204t-47 -263t47 -262t130 -205t193.5 -133t239.5 -47q76 0 141.5 17.5t121 44t98.5 59t73 63.5v375h-563 v61h629v-462q-88 -98 -217 -159t-283 -61q-141 0 -266 51.5t-217 145.5t-145.5 224t-53.5 288zM463 1636l43 39q53 -76 135 -120t182 -44t182.5 44t135.5 120l41 -39q-61 -84 -154.5 -132t-204.5 -48t-204 48t-156 132z" />
<glyph unicode="&#x11f;" horiz-adv-x="1159" d="M123 492q0 117 31.5 213t90 164.5t139.5 106.5t181 38q111 0 204 -53.5t153 -141.5v170h61v-995q0 -106 -31.5 -181t-87 -123t-132.5 -69.5t-167 -21.5q-61 0 -112.5 6t-96.5 23.5t-86 46t-84 73.5l45 51q66 -80 142 -112.5t192 -32.5q74 0 138.5 19.5t113.5 60.5 t77 105.5t28 154.5v172q-25 -39 -62 -74t-83 -61.5t-100 -43t-112 -16.5q-100 0 -181 37t-139.5 105.5t-90 165t-31.5 213.5zM190 492q0 -98 25 -182.5t72 -148t117.5 -99t160.5 -35.5q57 0 111.5 16t101.5 44t84 64.5t60 75.5v531q-23 39 -60 75.5t-84 64.5t-101 44 t-112 16q-90 0 -160.5 -36.5t-117.5 -99t-72 -147.5t-25 -183zM219 1294l43 39q53 -76 135 -120t182 -44t182.5 44t135.5 120l41 -39q-61 -84 -154.5 -132t-204.5 -48t-204 48t-156 132z" />
<glyph unicode="&#x120;" horiz-adv-x="1449" d="M133 682q0 158 53.5 288t145.5 223t217 144.5t266 51.5q156 0 277.5 -53.5t222.5 -157.5l-43 -45q-80 92 -200 143t-257 51q-129 0 -239.5 -47t-193.5 -131t-130 -204t-47 -263t47 -262t130 -205t193.5 -133t239.5 -47q76 0 141.5 17.5t121 44t98.5 59t73 63.5v375h-563 v61h629v-462q-88 -98 -217 -159t-283 -61q-141 0 -266 51.5t-217 145.5t-145.5 224t-53.5 288zM762 1561q0 25 18.5 42t40.5 17q25 0 42.5 -17.5t17.5 -41.5q0 -25 -17.5 -42.5t-42.5 -17.5q-23 0 -41 17.5t-18 42.5z" />
<glyph unicode="&#x121;" horiz-adv-x="1159" d="M123 492q0 117 31.5 213t90 164.5t139.5 106.5t181 38q111 0 204 -53.5t153 -141.5v170h61v-995q0 -106 -31.5 -181t-87 -123t-132.5 -69.5t-167 -21.5q-61 0 -112.5 6t-96.5 23.5t-86 46t-84 73.5l45 51q66 -80 142 -112.5t192 -32.5q74 0 138.5 19.5t113.5 60.5 t77 105.5t28 154.5v172q-25 -39 -62 -74t-83 -61.5t-100 -43t-112 -16.5q-100 0 -181 37t-139.5 105.5t-90 165t-31.5 213.5zM190 492q0 -98 25 -182.5t72 -148t117.5 -99t160.5 -35.5q57 0 111.5 16t101.5 44t84 64.5t60 75.5v531q-23 39 -60 75.5t-84 64.5t-101 44 t-112 16q-90 0 -160.5 -36.5t-117.5 -99t-72 -147.5t-25 -183zM516 1219q0 25 18.5 42t40.5 17q25 0 42.5 -17.5t17.5 -41.5q0 -25 -17.5 -42.5t-42.5 -17.5q-23 0 -41 17.5t-18 42.5z" />
<glyph unicode="&#x122;" horiz-adv-x="1449" d="M133 682q0 158 53.5 288t145.5 223t217 144.5t266 51.5q156 0 277.5 -53.5t222.5 -157.5l-43 -45q-80 92 -200 143t-257 51q-129 0 -239.5 -47t-193.5 -131t-130 -204t-47 -263t47 -262t130 -205t193.5 -133t239.5 -47q76 0 141.5 17.5t121 44t98.5 59t73 63.5v375h-563 v61h629v-462q-88 -98 -217 -159t-283 -61q-141 0 -266 51.5t-217 145.5t-145.5 224t-53.5 288zM727 -492q49 37 78.5 89.5t29.5 99.5q-2 -2 -6 -2h-10q-29 0 -47.5 19.5t-18.5 47.5q0 27 18.5 46.5t47.5 19.5q33 0 56.5 -28t23.5 -81q0 -78 -39 -145.5t-88 -101.5z" />
<glyph unicode="&#x123;" horiz-adv-x="1159" d="M123 492q0 117 31.5 213t90 164.5t139.5 106.5t181 38q111 0 204 -53.5t153 -141.5v170h61v-995q0 -106 -31.5 -181t-87 -123t-132.5 -69.5t-167 -21.5q-61 0 -112.5 6t-96.5 23.5t-86 46t-84 73.5l45 51q66 -80 142 -112.5t192 -32.5q74 0 138.5 19.5t113.5 60.5 t77 105.5t28 154.5v172q-25 -39 -62 -74t-83 -61.5t-100 -43t-112 -16.5q-100 0 -181 37t-139.5 105.5t-90 165t-31.5 213.5zM190 492q0 -98 25 -182.5t72 -148t117.5 -99t160.5 -35.5q57 0 111.5 16t101.5 44t84 64.5t60 75.5v531q-23 39 -60 75.5t-84 64.5t-101 44 t-112 16q-90 0 -160.5 -36.5t-117.5 -99t-72 -147.5t-25 -183zM494 1249q0 43 11 85t29.5 77t40 61.5t41.5 40.5l50 -38q-49 -37 -79 -89.5t-30 -99.5h2q2 0 3 1t3 1q25 0 46.5 -19.5t21.5 -47.5q0 -25 -19.5 -45.5t-48.5 -20.5q-33 0 -52 26.5t-19 67.5z" />
<glyph unicode="&#x124;" horiz-adv-x="1423" d="M180 0v1366h66v-633h932v633h65v-1366h-65v672h-932v-672h-66zM465 1481l201 295h73l207 -295h-57l-186 245l-181 -245h-57z" />
<glyph unicode="&#x125;" d="M176 0v1366h62v-532q27 33 67.5 65.5t87.5 58t99.5 41t103.5 15.5q147 0 228 -72t81 -248v-694h-61v694q0 78 -18.5 129t-52.5 81t-81 42t-104 12q-51 0 -102.5 -15t-97.5 -40.5t-85 -59.5t-65 -71v-772h-62zM307 1481l201 295h73l207 -295h-57l-186 245l-181 -245h-57z " />
<glyph unicode="&#x126;" horiz-adv-x="1468" d="M25 1026v55h180v285h65v-285h932v285h66v-285h176v-55h-176v-1026h-66v672h-932v-672h-65v1026h-180zM270 733h932v293h-932v-293z" />
<glyph unicode="&#x127;" d="M20 1108v55h156v203h62v-203h340v-55h-340v-274q27 33 67.5 65.5t87.5 58t99.5 41t103.5 15.5q147 0 228 -72t81 -248v-694h-61v694q0 78 -18.5 129t-52.5 81t-81 42t-104 12q-51 0 -102.5 -15t-97.5 -40.5t-85 -59.5t-65 -71v-772h-62v1108h-156z" />
<glyph unicode="&#x128;" horiz-adv-x="425" d="M-94 1489q0 55 11.5 105.5t35 87t57 59t76.5 22.5q59 0 91 -35.5t55.5 -79.5t48 -80t67.5 -36q51 0 86 51t35 168h53q0 -55 -11 -105.5t-34.5 -87t-57.5 -59t-77 -22.5q-59 0 -91 35.5t-55.5 79.5t-48 80t-67.5 36q-51 0 -86 -51t-35 -168h-53zM180 0v1366h66v-1366h-66z " />
<glyph unicode="&#x129;" horiz-adv-x="413" d="M-100 1147q0 55 11.5 105.5t35 87t57 59t76.5 22.5q59 0 91 -35.5t55.5 -79.5t48 -80t67.5 -36q51 0 86 51t35 168h53q0 -55 -11 -105.5t-34.5 -87t-57.5 -59t-77 -22.5q-59 0 -91 35.5t-55.5 79.5t-48 80t-67.5 36q-51 0 -86 -51t-35 -168h-53zM176 0v989h62v-989h-62z " />
<glyph unicode="&#x12a;" horiz-adv-x="425" d="M-156 1532v55h743v-55h-743zM180 0v1366h66v-1366h-66z" />
<glyph unicode="&#x12b;" horiz-adv-x="413" d="M-162 1190v55h743v-55h-743zM176 0v989h62v-989h-62z" />
<glyph unicode="&#x12c;" horiz-adv-x="425" d="M-143 1636l43 39q53 -76 135 -120t182 -44t182.5 44t135.5 120l41 -39q-61 -84 -154.5 -132t-204.5 -48t-204 48t-156 132zM180 0v1366h66v-1366h-66z" />
<glyph unicode="&#x12d;" horiz-adv-x="413" d="M-150 1294l43 39q53 -76 135 -120t182 -44t182.5 44t135.5 120l41 -39q-61 -84 -154.5 -132t-204.5 -48t-204 48t-156 132zM176 0v989h62v-989h-62z" />
<glyph unicode="&#x12e;" horiz-adv-x="425" d="M18 -209q0 70 45.5 131.5t116.5 102.5v1341h66v-1366q-74 -35 -121 -86t-47 -123q0 -117 106 -117q47 0 75 25t44 72l51 -23q-16 -47 -56 -88t-114 -41q-66 0 -116 40t-50 132z" />
<glyph unicode="&#x12f;" horiz-adv-x="413" d="M10 -209q0 72 47 134.5t119 101.5v962h62v-989q-74 -35 -121 -86t-47 -123q0 -117 106 -117q47 0 75 25t44 72l51 -23q-16 -47 -56 -88t-114 -41q-66 0 -116 40t-50 132zM147 1219q0 25 18.5 42t41.5 17q25 0 42 -17.5t17 -41.5q0 -25 -17 -42.5t-42 -17.5 q-23 0 -41.5 17.5t-18.5 42.5z" />
<glyph unicode="&#x130;" horiz-adv-x="425" d="M154 1561q0 25 18.5 42t40.5 17q25 0 42.5 -17.5t17.5 -41.5q0 -25 -17.5 -42.5t-42.5 -17.5q-23 0 -41 17.5t-18 42.5zM180 0v1366h66v-1366h-66z" />
<glyph unicode="&#x131;" horiz-adv-x="413" d="M176 0v989h62v-989h-62z" />
<glyph unicode="&#x132;" horiz-adv-x="1378" d="M180 0v1366h66v-1366h-66zM459 154l55 49q47 -68 116.5 -117t174.5 -49q154 0 241 95t87 247v987h65v-987q0 -102 -31.5 -178t-86 -126t-125 -75t-150.5 -25q-113 0 -197 43t-149 136z" />
<glyph unicode="&#x133;" horiz-adv-x="827" d="M147 1219q0 25 18.5 42t41.5 17q25 0 42 -17.5t17 -41.5q0 -25 -17 -42.5t-42 -17.5q-23 0 -41.5 17.5t-18.5 42.5zM176 0v989h62v-989h-62zM219 -324l39 52q25 -29 64 -51.5t86 -22.5q78 0 130 44t52 146v1145h62v-1145q0 -129 -65.5 -187t-178.5 -58q-59 0 -103.5 19.5 t-85.5 57.5zM561 1219q0 25 18.5 42t41.5 17q25 0 42 -17.5t17 -41.5q0 -25 -17 -42.5t-42 -17.5q-23 0 -41.5 17.5t-18.5 42.5z" />
<glyph unicode="&#x134;" horiz-adv-x="952" d="M33 154l55 49q47 -68 116.5 -117t174.5 -49q154 0 241 95t87 247v987h65v-987q0 -102 -31.5 -178t-86 -126t-125 -75t-150.5 -25q-113 0 -197 43t-149 136zM498 1481l201 295h73l207 -295h-57l-186 245l-181 -245h-57z" />
<glyph unicode="&#x135;" horiz-adv-x="413" d="M-195 -324l39 52q25 -29 64 -51.5t86 -22.5q78 0 130 44t52 146v1145h62v-1145q0 -129 -65.5 -187t-178.5 -58q-59 0 -103.5 19.5t-85.5 57.5zM-29 1139l201 295h73l207 -295h-57l-186 245l-181 -245h-57z" />
<glyph unicode="&#x136;" horiz-adv-x="1169" d="M180 0v1366h66v-788l710 788h88l-593 -653l655 -713h-88l-608 672l-164 -178v-494h-66zM504 -492q49 37 78.5 89.5t29.5 99.5q-2 -2 -6 -2h-10q-29 0 -47.5 19.5t-18.5 47.5q0 27 18.5 46.5t47.5 19.5q33 0 56.5 -28t23.5 -81q0 -78 -39 -145.5t-88 -101.5z" />
<glyph unicode="&#x137;" horiz-adv-x="1015" d="M176 0v1366h62v-979l645 602h88l-482 -446l476 -543h-88l-435 498l-204 -189v-309h-62zM428 -492q49 37 78.5 89.5t29.5 99.5q-2 -2 -6 -2h-10q-29 0 -47.5 19.5t-18.5 47.5q0 27 18.5 46.5t47.5 19.5q33 0 56.5 -28t23.5 -81q0 -78 -39 -145.5t-88 -101.5z" />
<glyph unicode="&#x138;" horiz-adv-x="1015" d="M176 0v989h62v-602l645 602h88l-482 -446l476 -543h-88l-435 498l-204 -189v-309h-62z" />
<glyph unicode="&#x139;" horiz-adv-x="1021" d="M180 0v1366h66v-1305h686v-61h-752zM451 1481l328 295h92l-359 -295h-61z" />
<glyph unicode="&#x13a;" horiz-adv-x="413" d="M102 1481l328 295h92l-359 -295h-61zM176 0v1366h62v-1366h-62z" />
<glyph unicode="&#x13b;" horiz-adv-x="1021" d="M180 0v1366h66v-1305h686v-61h-752zM469 -492q49 37 78.5 89.5t29.5 99.5q-2 -2 -6 -2h-10q-29 0 -47.5 19.5t-18.5 47.5q0 27 18.5 46.5t47.5 19.5q33 0 56.5 -28t23.5 -81q0 -78 -39 -145.5t-88 -101.5z" />
<glyph unicode="&#x13c;" horiz-adv-x="413" d="M127 -492q49 37 78.5 89.5t29.5 99.5q-2 -2 -6 -2h-10q-29 0 -47.5 19.5t-18.5 47.5q0 27 18.5 46.5t47.5 19.5q33 0 56.5 -28t23.5 -81q0 -78 -39 -145.5t-88 -101.5zM176 0v1366h62v-1366h-62z" />
<glyph unicode="&#x13d;" horiz-adv-x="1021" d="M180 0v1366h66v-1305h686v-61h-752zM438 1071q49 37 78.5 89.5t29.5 99.5q-2 -2 -6 -2h-10q-29 0 -47.5 19.5t-18.5 47.5q0 27 18.5 46.5t47.5 19.5q33 0 56.5 -28t23.5 -81q0 -78 -39 -145.5t-88 -101.5z" />
<glyph unicode="&#x13e;" horiz-adv-x="485" d="M176 0v1366h62v-1366h-62zM359 1071q49 37 78.5 89.5t29.5 99.5q-2 -2 -6 -2h-10q-29 0 -47.5 19.5t-18.5 47.5q0 27 18.5 46.5t47.5 19.5q33 0 56.5 -28t23.5 -81q0 -78 -39 -145.5t-88 -101.5z" />
<glyph unicode="&#x13f;" horiz-adv-x="1021" d="M180 0v1366h66v-1305h686v-61h-752zM639 701q0 27 19.5 46t48.5 19t48.5 -19t19.5 -46q0 -29 -19.5 -48.5t-48.5 -19.5t-48.5 19.5t-19.5 48.5z" />
<glyph unicode="&#x140;" horiz-adv-x="491" d="M176 0v1366h62v-1366h-62zM385 502q0 27 19.5 46t48.5 19t48.5 -19t19.5 -46q0 -29 -19.5 -48.5t-48.5 -19.5t-48.5 19.5t-19.5 48.5z" />
<glyph unicode="&#x141;" horiz-adv-x="1071" d="M25 504v69l204 119v674h66v-637l233 137v-69l-233 -138v-598h686v-61h-752v623z" />
<glyph unicode="&#x142;" horiz-adv-x="548" d="M25 508v65l219 125v668h61v-633l219 127v-65l-219 -127v-668h-61v633z" />
<glyph unicode="&#x143;" horiz-adv-x="1413" d="M180 0v1366h66l921 -1247v1247h66v-1366h-66l-921 1260v-1260h-66zM645 1481l328 295h92l-359 -295h-61z" />
<glyph unicode="&#x144;" d="M176 0v989h62v-155q27 33 67.5 65.5t87.5 58t99.5 41t103.5 15.5q147 0 228 -74t81 -250v-690h-61v690q0 78 -18.5 129t-52.5 82t-81 44t-104 13q-51 0 -102.5 -15t-97.5 -40.5t-85 -59.5t-65 -71v-772h-62zM436 1139l328 295h92l-359 -295h-61z" />
<glyph unicode="&#x145;" horiz-adv-x="1413" d="M180 0v1366h66l921 -1247v1247h66v-1366h-66l-921 1260v-1260h-66zM627 -492q49 37 78.5 89.5t29.5 99.5q-2 -2 -6 -2h-10q-29 0 -47.5 19.5t-18.5 47.5q0 27 18.5 46.5t47.5 19.5q33 0 56.5 -28t23.5 -81q0 -78 -39 -145.5t-88 -101.5z" />
<glyph unicode="&#x146;" d="M176 0v989h62v-155q27 33 67.5 65.5t87.5 58t99.5 41t103.5 15.5q147 0 228 -74t81 -250v-690h-61v690q0 78 -18.5 129t-52.5 82t-81 44t-104 13q-51 0 -102.5 -15t-97.5 -40.5t-85 -59.5t-65 -71v-772h-62zM461 -492q49 37 78.5 89.5t29.5 99.5q-2 -2 -6 -2h-10 q-29 0 -47.5 19.5t-18.5 47.5q0 27 18.5 46.5t47.5 19.5q33 0 56.5 -28t23.5 -81q0 -78 -39 -145.5t-88 -101.5z" />
<glyph unicode="&#x147;" horiz-adv-x="1413" d="M180 0v1366h66l921 -1247v1247h66v-1366h-66l-921 1260v-1260h-66zM465 1776h57l187 -246l180 246h57l-200 -295h-74z" />
<glyph unicode="&#x148;" d="M176 0v989h62v-155q27 33 67.5 65.5t87.5 58t99.5 41t103.5 15.5q147 0 228 -74t81 -250v-690h-61v690q0 78 -18.5 129t-52.5 82t-81 44t-104 13q-51 0 -102.5 -15t-97.5 -40.5t-85 -59.5t-65 -71v-772h-62zM299 1434h57l187 -246l180 246h57l-200 -295h-74z" />
<glyph unicode="&#x149;" d="M133 1165q49 37 78.5 89.5t29.5 99.5q-2 -2 -6 -2h-10q-29 0 -47.5 19.5t-18.5 47.5q0 27 18.5 46.5t47.5 19.5q33 0 56.5 -28t23.5 -81q0 -78 -39 -145.5t-88 -101.5zM176 0v989h62v-155q27 33 67.5 65.5t87.5 58t99.5 41t103.5 15.5q147 0 228 -74t81 -250v-690h-61 v690q0 78 -18.5 129t-52.5 82t-81 44t-104 13q-51 0 -102.5 -15t-97.5 -40.5t-85 -59.5t-65 -71v-772h-62z" />
<glyph unicode="&#x14a;" horiz-adv-x="1413" d="M180 0v1366h66l921 -1247v1247h66v-1370q0 -102 -32 -177t-86 -124t-124.5 -72.5t-150.5 -23.5q-113 0 -197 43t-149 135l55 49q47 -68 116.5 -117t174.5 -49q154 0 240.5 92t86.5 244v4l-921 1260v-1260h-66z" />
<glyph unicode="&#x14b;" d="M176 0v989h62v-155q27 33 67.5 65.5t87.5 58t99.5 41t103.5 15.5q147 0 228 -74t81 -250v-846q0 -129 -65.5 -187t-177.5 -58q-59 0 -103.5 19.5t-85.5 57.5l39 52q25 -29 63.5 -51.5t86.5 -22.5q78 0 130 44t52 146v846q0 78 -18.5 129t-52.5 82t-81 44t-104 13 q-51 0 -102.5 -15t-97.5 -40.5t-85 -59.5t-65 -71v-772h-62z" />
<glyph unicode="&#x14c;" horiz-adv-x="1564" d="M133 682q0 147 45 276t130 224.5t205 151t269 55.5q147 0 268 -55.5t205 -151t130.5 -224.5t46.5 -276t-46.5 -276.5t-130.5 -224.5t-205 -150.5t-268 -55.5q-150 0 -269.5 55.5t-204.5 150.5t-130 224.5t-45 276.5zM205 682q0 -139 40 -257t115.5 -204t182 -135 t239.5 -49q131 0 237.5 49t182.5 135t117 204t41 257q0 141 -41 259t-117 204t-182.5 134t-237.5 48q-133 0 -239.5 -48t-182 -134t-115.5 -204t-40 -259zM410 1532v55h743v-55h-743z" />
<glyph unicode="&#x14d;" horiz-adv-x="1167" d="M123 496q0 109 32.5 204t93 164.5t145.5 109.5t190 40q104 0 190 -40t145.5 -109.5t92 -165t32.5 -203.5q0 -109 -32.5 -204t-92 -166t-145.5 -111t-190 -40t-189.5 40t-146 111t-93 166t-32.5 204zM190 496q0 -90 26 -174t76 -148.5t124 -103.5t168 -39t167.5 39 t124 103.5t76 148.5t25.5 174t-25.5 173t-76 147.5t-124 103t-167.5 38.5t-168 -38.5t-124 -103t-76 -147.5t-26 -173zM211 1190v55h743v-55h-743z" />
<glyph unicode="&#x14e;" horiz-adv-x="1564" d="M133 682q0 147 45 276t130 224.5t205 151t269 55.5q147 0 268 -55.5t205 -151t130.5 -224.5t46.5 -276t-46.5 -276.5t-130.5 -224.5t-205 -150.5t-268 -55.5q-150 0 -269.5 55.5t-204.5 150.5t-130 224.5t-45 276.5zM205 682q0 -139 40 -257t115.5 -204t182 -135 t239.5 -49q131 0 237.5 49t182.5 135t117 204t41 257q0 141 -41 259t-117 204t-182.5 134t-237.5 48q-133 0 -239.5 -48t-182 -134t-115.5 -204t-40 -259zM420 1636l43 39q53 -76 135 -120t182 -44t182.5 44t135.5 120l41 -39q-61 -84 -154.5 -132t-204.5 -48t-204 48 t-156 132z" />
<glyph unicode="&#x14f;" horiz-adv-x="1167" d="M123 496q0 109 32.5 204t93 164.5t145.5 109.5t190 40q104 0 190 -40t145.5 -109.5t92 -165t32.5 -203.5q0 -109 -32.5 -204t-92 -166t-145.5 -111t-190 -40t-189.5 40t-146 111t-93 166t-32.5 204zM190 496q0 -90 26 -174t76 -148.5t124 -103.5t168 -39t167.5 39 t124 103.5t76 148.5t25.5 174t-25.5 173t-76 147.5t-124 103t-167.5 38.5t-168 -38.5t-124 -103t-76 -147.5t-26 -173zM227 1294l43 39q53 -76 135 -120t182 -44t182.5 44t135.5 120l41 -39q-61 -84 -154.5 -132t-204.5 -48t-204 48t-156 132z" />
<glyph unicode="&#x150;" horiz-adv-x="1564" d="M133 682q0 147 45 276t130 224.5t205 151t269 55.5q147 0 268 -55.5t205 -151t130.5 -224.5t46.5 -276t-46.5 -276.5t-130.5 -224.5t-205 -150.5t-268 -55.5q-150 0 -269.5 55.5t-204.5 150.5t-130 224.5t-45 276.5zM205 682q0 -139 40 -257t115.5 -204t182 -135 t239.5 -49q131 0 237.5 49t182.5 135t117 204t41 257q0 141 -41 259t-117 204t-182.5 134t-237.5 48q-133 0 -239.5 -48t-182 -134t-115.5 -204t-40 -259zM580 1481l205 295h84l-236 -295h-53zM859 1481l204 295h84l-235 -295h-53z" />
<glyph unicode="&#x151;" horiz-adv-x="1167" d="M123 496q0 109 32.5 204t93 164.5t145.5 109.5t190 40q104 0 190 -40t145.5 -109.5t92 -165t32.5 -203.5q0 -109 -32.5 -204t-92 -166t-145.5 -111t-190 -40t-189.5 40t-146 111t-93 166t-32.5 204zM190 496q0 -90 26 -174t76 -148.5t124 -103.5t168 -39t167.5 39 t124 103.5t76 148.5t25.5 174t-25.5 173t-76 147.5t-124 103t-167.5 38.5t-168 -38.5t-124 -103t-76 -147.5t-26 -173zM381 1139l205 295h84l-236 -295h-53zM660 1139l204 295h84l-235 -295h-53z" />
<glyph unicode="&#x152;" horiz-adv-x="2301" d="M133 682q0 147 45 276t130 224.5t205 149.5t269 54q86 0 167 -21.5t153 -64.5t131 -107.5t100 -148.5v322h836v-61h-770v-572h755v-61h-755v-611h770v-61h-836v322q-41 -86 -100 -151t-131 -108t-153 -65.5t-167 -22.5q-150 0 -269.5 55.5t-204.5 150.5t-130 224.5 t-45 276.5zM205 682q0 -139 40 -258t115.5 -205t182 -134t239.5 -48q186 0 333 101.5t218 307.5v474q-72 207 -218 306t-333 99q-133 0 -239.5 -48t-182 -133t-115.5 -203t-40 -259z" />
<glyph unicode="&#x153;" horiz-adv-x="2023" d="M123 496q0 109 32.5 204t93 164.5t145.5 109.5t190 40q104 0 181 -37t128 -89t79.5 -109.5t39.5 -100.5q12 45 43.5 102.5t84 109.5t127 88t175.5 36q113 0 198.5 -42t144 -114t87.5 -166t29 -196v-21h-854q2 -90 31.5 -171t84 -141.5t130 -96t169.5 -35.5q205 0 344 149 l37 -39q-76 -78 -166 -122t-215 -44q-109 0 -187.5 35t-133 85t-86 108.5t-43.5 107.5q-12 -45 -42 -102t-80 -109.5t-126 -88.5t-180 -36t-189.5 40t-146 111t-93 166t-32.5 204zM190 496q0 -90 26 -175t76 -150t123.5 -103.5t168.5 -38.5q94 0 167.5 38.5t124 103.5 t76 150t25.5 175t-25.5 173t-76 147.5t-124 103t-167.5 38.5t-168 -38.5t-124 -103t-76 -147.5t-26 -173zM1047 530h788q0 72 -23.5 148t-72.5 138.5t-124 102t-175 39.5q-96 0 -168 -39.5t-121 -101t-75.5 -137.5t-28.5 -150z" />
<glyph unicode="&#x154;" horiz-adv-x="1185" d="M180 0v1366h471q82 0 156 -25.5t129 -74.5t87 -121t32 -166t-32 -167t-87 -122t-129 -74.5t-156 -25.5l422 -590h-84l-416 590h-327v-590h-66zM246 651h405q76 0 137.5 24.5t104.5 68.5t66.5 103.5t23.5 131.5q0 70 -23.5 130t-66.5 103t-104.5 68t-137.5 25h-405v-654z M502 1481l328 295h92l-359 -295h-61z" />
<glyph unicode="&#x155;" horiz-adv-x="622" d="M176 0v989h62v-180q66 88 148.5 143.5t191.5 55.5v-74q-14 2 -24.5 2h-25.5q-39 0 -83 -17.5t-85 -45t-73.5 -62.5t-48.5 -70v-741h-62zM272 1139l328 295h92l-359 -295h-61z" />
<glyph unicode="&#x156;" horiz-adv-x="1185" d="M180 0v1366h471q82 0 156 -25.5t129 -74.5t87 -121t32 -166t-32 -167t-87 -122t-129 -74.5t-156 -25.5l422 -590h-84l-416 590h-327v-590h-66zM246 651h405q76 0 137.5 24.5t104.5 68.5t66.5 103.5t23.5 131.5q0 70 -23.5 130t-66.5 103t-104.5 68t-137.5 25h-405v-654z M512 -492q49 37 78.5 89.5t29.5 99.5q-2 -2 -6 -2h-10q-29 0 -47.5 19.5t-18.5 47.5q0 27 18.5 46.5t47.5 19.5q33 0 56.5 -28t23.5 -81q0 -78 -39 -145.5t-88 -101.5z" />
<glyph unicode="&#x157;" horiz-adv-x="622" d="M176 0v989h62v-180q66 88 148.5 143.5t191.5 55.5v-74q-14 2 -24.5 2h-25.5q-39 0 -83 -17.5t-85 -45t-73.5 -62.5t-48.5 -70v-741h-62zM232 -492q49 37 78.5 89.5t29.5 99.5q-2 -2 -6 -2h-10q-29 0 -47.5 19.5t-18.5 47.5q0 27 18.5 46.5t47.5 19.5q33 0 56.5 -28 t23.5 -81q0 -78 -39 -145.5t-88 -101.5z" />
<glyph unicode="&#x158;" horiz-adv-x="1185" d="M180 0v1366h471q82 0 156 -25.5t129 -74.5t87 -121t32 -166t-32 -167t-87 -122t-129 -74.5t-156 -25.5l422 -590h-84l-416 590h-327v-590h-66zM246 651h405q76 0 137.5 24.5t104.5 68.5t66.5 103.5t23.5 131.5q0 70 -23.5 130t-66.5 103t-104.5 68t-137.5 25h-405v-654z M352 1776h57l187 -246l180 246h57l-200 -295h-74z" />
<glyph unicode="&#x159;" horiz-adv-x="622" d="M131 1434h57l187 -246l180 246h57l-200 -295h-74zM176 0v989h62v-180q66 88 148.5 143.5t191.5 55.5v-74q-14 2 -24.5 2h-25.5q-39 0 -83 -17.5t-85 -45t-73.5 -62.5t-48.5 -70v-741h-62z" />
<glyph unicode="&#x15a;" horiz-adv-x="1177" d="M109 193l53 47q31 -39 74 -75t96 -64.5t116.5 -46t137.5 -17.5q119 0 194.5 29.5t120.5 75.5t62.5 100.5t17.5 103.5q0 113 -61.5 175.5t-153.5 101.5t-199.5 64.5t-200 65.5t-153.5 105.5t-61 181.5q0 82 34.5 147.5t94 109.5t137.5 68t162 24q152 0 261 -51.5 t181 -141.5l-51 -47q-72 94 -172.5 136t-218.5 42q-74 0 -139.5 -21.5t-113.5 -59.5t-76 -90t-28 -116q0 -74 36 -121t94.5 -79.5t133 -55t151.5 -46t151.5 -51.5t133 -72t94.5 -108.5t36 -160.5q0 -57 -21.5 -122.5t-74 -121t-143.5 -91.5t-228 -36q-160 0 -282 61.5 t-195 156.5zM477 1481l328 295h92l-359 -295h-61z" />
<glyph unicode="&#x15b;" horiz-adv-x="929" d="M90 133l49 45q47 -61 125 -104t189 -43q137 0 214.5 65.5t77.5 163.5q0 76 -47 118t-117.5 67.5t-152.5 44t-152.5 48t-117.5 79t-47 135.5q0 55 22.5 102t65.5 83t105.5 56.5t141.5 20.5q129 0 211 -44t129 -106l-45 -41q-43 61 -118.5 98t-176.5 37q-129 0 -201.5 -59 t-72.5 -147q0 -70 47 -107t118 -60.5t152.5 -42t152.5 -50t118 -85t47 -147.5q0 -57 -21.5 -109.5t-65.5 -91.5t-110.5 -61.5t-156.5 -22.5q-117 0 -203 36t-160 122zM344 1139l328 295h92l-359 -295h-61z" />
<glyph unicode="&#x15c;" horiz-adv-x="1177" d="M109 193l53 47q31 -39 74 -75t96 -64.5t116.5 -46t137.5 -17.5q119 0 194.5 29.5t120.5 75.5t62.5 100.5t17.5 103.5q0 113 -61.5 175.5t-153.5 101.5t-199.5 64.5t-200 65.5t-153.5 105.5t-61 181.5q0 82 34.5 147.5t94 109.5t137.5 68t162 24q152 0 261 -51.5 t181 -141.5l-51 -47q-72 94 -172.5 136t-218.5 42q-74 0 -139.5 -21.5t-113.5 -59.5t-76 -90t-28 -116q0 -74 36 -121t94.5 -79.5t133 -55t151.5 -46t151.5 -51.5t133 -72t94.5 -108.5t36 -160.5q0 -57 -21.5 -122.5t-74 -121t-143.5 -91.5t-228 -36q-160 0 -282 61.5 t-195 156.5zM332 1481l201 295h73l207 -295h-57l-186 245l-181 -245h-57z" />
<glyph unicode="&#x15d;" horiz-adv-x="929" d="M90 133l49 45q47 -61 125 -104t189 -43q137 0 214.5 65.5t77.5 163.5q0 76 -47 118t-117.5 67.5t-152.5 44t-152.5 48t-117.5 79t-47 135.5q0 55 22.5 102t65.5 83t105.5 56.5t141.5 20.5q129 0 211 -44t129 -106l-45 -41q-43 61 -118.5 98t-176.5 37q-129 0 -201.5 -59 t-72.5 -147q0 -70 47 -107t118 -60.5t152.5 -42t152.5 -50t118 -85t47 -147.5q0 -57 -21.5 -109.5t-65.5 -91.5t-110.5 -61.5t-156.5 -22.5q-117 0 -203 36t-160 122zM213 1139l201 295h73l207 -295h-57l-186 245l-181 -245h-57z" />
<glyph unicode="&#x15e;" horiz-adv-x="1177" d="M109 193l53 47q31 -39 74 -75t96 -64.5t116.5 -46t137.5 -17.5q119 0 194.5 29.5t120.5 75.5t62.5 100.5t17.5 103.5q0 113 -61.5 175.5t-153.5 101.5t-199.5 64.5t-200 65.5t-153.5 105.5t-61 181.5q0 82 34.5 147.5t94 109.5t137.5 68t162 24q152 0 261 -51.5 t181 -141.5l-51 -47q-72 94 -172.5 136t-218.5 42q-74 0 -139.5 -21.5t-113.5 -59.5t-76 -90t-28 -116q0 -74 36 -121t94.5 -79.5t133 -55t151.5 -46t151.5 -51.5t133 -72t94.5 -108.5t36 -160.5q0 -57 -20.5 -120.5t-71 -118t-137.5 -92.5t-218 -40l-35 -94q16 12 37 18.5 t41 6.5q59 0 96 -36t37 -97q0 -70 -57 -113t-143 -43q-59 0 -110.5 17.5t-80.5 39.5l29 56q37 -33 79 -45.5t83 -12.5q57 0 99 27t42 74q0 41 -21.5 64.5t-68.5 23.5q-25 0 -48.5 -10.5t-39.5 -28.5l-45 26l45 129q-145 8 -256 67.5t-180 148.5z" />
<glyph unicode="&#x15f;" horiz-adv-x="929" d="M90 133l49 45q47 -61 125 -104t189 -43q137 0 214.5 65.5t77.5 163.5q0 76 -47 118t-117.5 67.5t-152.5 44t-152.5 48t-117.5 79t-47 135.5q0 55 22.5 102t65.5 83t105.5 56.5t141.5 20.5q129 0 211 -44t129 -106l-45 -41q-43 61 -118.5 98t-176.5 37q-129 0 -201.5 -59 t-72.5 -147q0 -70 47 -107t118 -60.5t152.5 -42t152.5 -50t118 -85t47 -147.5q0 -55 -20.5 -106.5t-61.5 -89t-103.5 -62.5t-146.5 -27l-35 -94q16 12 37 18.5t41 6.5q59 0 96 -36t37 -97q0 -70 -57 -113t-143 -43q-59 0 -110.5 17.5t-80.5 39.5l29 56q37 -33 79 -45.5 t83 -12.5q57 0 99 27t42 74q0 41 -21.5 64.5t-68.5 23.5q-25 0 -48.5 -10.5t-39.5 -28.5l-45 26l45 129q-102 4 -179 41t-145 115z" />
<glyph unicode="&#x160;" horiz-adv-x="1177" d="M109 193l53 47q31 -39 74 -75t96 -64.5t116.5 -46t137.5 -17.5q119 0 194.5 29.5t120.5 75.5t62.5 100.5t17.5 103.5q0 113 -61.5 175.5t-153.5 101.5t-199.5 64.5t-200 65.5t-153.5 105.5t-61 181.5q0 82 34.5 147.5t94 109.5t137.5 68t162 24q152 0 261 -51.5 t181 -141.5l-51 -47q-72 94 -172.5 136t-218.5 42q-74 0 -139.5 -21.5t-113.5 -59.5t-76 -90t-28 -116q0 -74 36 -121t94.5 -79.5t133 -55t151.5 -46t151.5 -51.5t133 -72t94.5 -108.5t36 -160.5q0 -57 -21.5 -122.5t-74 -121t-143.5 -91.5t-228 -36q-160 0 -282 61.5 t-195 156.5zM332 1776h57l187 -246l180 246h57l-200 -295h-74z" />
<glyph unicode="&#x161;" horiz-adv-x="929" d="M90 133l49 45q47 -61 125 -104t189 -43q137 0 214.5 65.5t77.5 163.5q0 76 -47 118t-117.5 67.5t-152.5 44t-152.5 48t-117.5 79t-47 135.5q0 55 22.5 102t65.5 83t105.5 56.5t141.5 20.5q129 0 211 -44t129 -106l-45 -41q-43 61 -118.5 98t-176.5 37q-129 0 -201.5 -59 t-72.5 -147q0 -70 47 -107t118 -60.5t152.5 -42t152.5 -50t118 -85t47 -147.5q0 -57 -21.5 -109.5t-65.5 -91.5t-110.5 -61.5t-156.5 -22.5q-117 0 -203 36t-160 122zM213 1434h57l187 -246l180 246h57l-200 -295h-74z" />
<glyph unicode="&#x162;" horiz-adv-x="1144" d="M78 1305v61h989v-61h-463v-1305h-65v1305h-461zM492 -492q49 37 78.5 89.5t29.5 99.5q-2 -2 -6 -2h-10q-29 0 -47.5 19.5t-18.5 47.5q0 27 18.5 46.5t47.5 19.5q33 0 56.5 -28t23.5 -81q0 -78 -39 -145.5t-88 -101.5z" />
<glyph unicode="&#x163;" horiz-adv-x="524" d="M25 934v55h163v271h62v-271h201v-55h-201v-760q0 -63 25.5 -103t80.5 -40q37 0 68 15t49 38l37 -47q-29 -29 -64 -45.5t-90 -16.5q-86 0 -127 53.5t-41 145.5v760h-163zM182 -492q49 37 78.5 89.5t29.5 99.5q-2 -2 -6 -2h-10q-29 0 -47.5 19.5t-18.5 47.5q0 27 18.5 46.5 t47.5 19.5q33 0 56.5 -28t23.5 -81q0 -78 -39 -145.5t-88 -101.5z" />
<glyph unicode="&#x164;" horiz-adv-x="1144" d="M78 1305v61h989v-61h-463v-1305h-65v1305h-461zM332 1776h57l187 -246l180 246h57l-200 -295h-74z" />
<glyph unicode="&#x165;" horiz-adv-x="524" d="M25 934v55h163v271h62v-271h201v-55h-201v-760q0 -63 25.5 -103t80.5 -40q37 0 68 15t49 38l37 -47q-29 -29 -64 -45.5t-90 -16.5q-86 0 -127 53.5t-41 145.5v760h-163zM361 1165q49 37 78.5 89.5t29.5 99.5q-2 -2 -6 -2h-10q-29 0 -47.5 19.5t-18.5 47.5q0 27 18.5 46.5 t47.5 19.5q33 0 56.5 -28t23.5 -81q0 -78 -39 -145.5t-88 -101.5z" />
<glyph unicode="&#x166;" horiz-adv-x="1144" d="M78 1305v61h989v-61h-463v-592h340v-56h-340v-657h-65v657h-338v56h338v592h-461z" />
<glyph unicode="&#x167;" horiz-adv-x="524" d="M25 496v55h163v383h-163v55h163v271h62v-271h201v-55h-201v-383h145v-55h-145v-322q0 -63 25.5 -103t80.5 -40q37 0 68 15t49 38l37 -47q-29 -29 -64 -45.5t-90 -16.5q-86 0 -127 53.5t-41 145.5v322h-163z" />
<glyph unicode="&#x168;" horiz-adv-x="1376" d="M180 518v848h66v-848q0 -229 112.5 -355t329.5 -126t329.5 126t112.5 355v848h66v-848q0 -256 -129 -399.5t-379 -143.5t-379 145.5t-129 397.5zM385 1489q0 55 11.5 105.5t35 87t57 59t76.5 22.5q59 0 91 -35.5t55.5 -79.5t48 -80t67.5 -36q51 0 86 51t35 168h53 q0 -55 -11 -105.5t-34.5 -87t-57.5 -59t-77 -22.5q-59 0 -91 35.5t-55.5 79.5t-48 80t-67.5 36q-51 0 -86 -51t-35 -168h-53z" />
<glyph unicode="&#x169;" d="M176 295v694h62v-694q0 -78 18 -129t52 -81t81 -42t105 -12q51 0 102 14t97 39t85 57.5t66 69.5v778h61v-989h-61v152q-63 -72 -158.5 -124.5t-200.5 -52.5q-147 0 -228 72t-81 248zM231 1147q0 55 11.5 105.5t35 87t57 59t76.5 22.5q59 0 91 -35.5t55.5 -79.5t48 -80 t67.5 -36q51 0 86 51t35 168h53q0 -55 -11 -105.5t-34.5 -87t-57.5 -59t-77 -22.5q-59 0 -91 35.5t-55.5 79.5t-48 80t-67.5 36q-51 0 -86 -51t-35 -168h-53z" />
<glyph unicode="&#x16a;" horiz-adv-x="1376" d="M180 518v848h66v-848q0 -229 112.5 -355t329.5 -126t329.5 126t112.5 355v848h66v-848q0 -256 -129 -399.5t-379 -143.5t-379 145.5t-129 397.5zM315 1532v55h743v-55h-743z" />
<glyph unicode="&#x16b;" d="M168 1190v55h743v-55h-743zM176 295v694h62v-694q0 -78 18 -129t52 -81t81 -42t105 -12q51 0 102 14t97 39t85 57.5t66 69.5v778h61v-989h-61v152q-63 -72 -158.5 -124.5t-200.5 -52.5q-147 0 -228 72t-81 248z" />
<glyph unicode="&#x16c;" horiz-adv-x="1376" d="M180 518v848h66v-848q0 -229 112.5 -355t329.5 -126t329.5 126t112.5 355v848h66v-848q0 -256 -129 -399.5t-379 -143.5t-379 145.5t-129 397.5zM336 1636l43 39q53 -76 135 -120t182 -44t182.5 44t135.5 120l41 -39q-61 -84 -154.5 -132t-204.5 -48t-204 48t-156 132z " />
<glyph unicode="&#x16d;" d="M176 295v694h62v-694q0 -78 18 -129t52 -81t81 -42t105 -12q51 0 102 14t97 39t85 57.5t66 69.5v778h61v-989h-61v152q-63 -72 -158.5 -124.5t-200.5 -52.5q-147 0 -228 72t-81 248zM184 1294l43 39q53 -76 135 -120t182 -44t182.5 44t135.5 120l41 -39 q-61 -84 -154.5 -132t-204.5 -48t-204 48t-156 132z" />
<glyph unicode="&#x16e;" horiz-adv-x="1376" d="M180 518v848h66v-848q0 -229 112.5 -355t329.5 -126t329.5 126t112.5 355v848h66v-848q0 -256 -129 -399.5t-379 -143.5t-379 145.5t-129 397.5zM498 1665q0 39 15.5 74t41 60.5t60.5 40.5t73 15q39 0 74 -15t60.5 -40.5t40 -60.5t14.5 -74t-14.5 -74t-40 -60.5 t-60.5 -40.5t-74 -15t-73.5 15t-60 40.5t-41 60.5t-15.5 74zM547 1665q0 -59 41 -100t100 -41t99.5 41t40.5 100t-40 100t-100 41q-59 0 -100 -41t-41 -100z" />
<glyph unicode="&#x16f;" d="M176 295v694h62v-694q0 -78 18 -129t52 -81t81 -42t105 -12q51 0 102 14t97 39t85 57.5t66 69.5v778h61v-989h-61v152q-63 -72 -158.5 -124.5t-200.5 -52.5q-147 0 -228 72t-81 248zM350 1323q0 39 15.5 74t41 60.5t60.5 40.5t73 15q39 0 74 -15t60.5 -40.5t40 -60.5 t14.5 -74t-14.5 -74t-40 -60.5t-60.5 -40.5t-74 -15t-73.5 15t-60 40.5t-41 60.5t-15.5 74zM399 1323q0 -59 41 -100t100 -41t99.5 41t40.5 100t-40 100t-100 41q-59 0 -100 -41t-41 -100z" />
<glyph unicode="&#x170;" horiz-adv-x="1376" d="M180 518v848h66v-848q0 -229 112.5 -355t329.5 -126t329.5 126t112.5 355v848h66v-848q0 -256 -129 -399.5t-379 -143.5t-379 145.5t-129 397.5zM485 1481l205 295h84l-236 -295h-53zM764 1481l204 295h84l-235 -295h-53z" />
<glyph unicode="&#x171;" d="M176 295v694h62v-694q0 -78 18 -129t52 -81t81 -42t105 -12q51 0 102 14t97 39t85 57.5t66 69.5v778h61v-989h-61v152q-63 -72 -158.5 -124.5t-200.5 -52.5q-147 0 -228 72t-81 248zM338 1139l205 295h84l-236 -295h-53zM617 1139l204 295h84l-235 -295h-53z" />
<glyph unicode="&#x172;" horiz-adv-x="1376" d="M180 518v848h66v-848q0 -229 112.5 -355t329.5 -126t329.5 126t112.5 355v848h66v-848q0 -205 -83 -338t-247 -180q-72 -35 -118 -86t-46 -123q0 -117 107 -117q47 0 74.5 25t44.5 72l51 -23q-16 -47 -56 -88t-114 -41q-66 0 -116 40t-50 132q0 51 25.5 99.5t68.5 86.5 q-12 -2 -24.5 -2h-24.5q-250 0 -379 145.5t-129 397.5z" />
<glyph unicode="&#x173;" d="M176 295v694h62v-694q0 -78 18 -129t52 -81t81 -42t105 -12q51 0 102 14t97 39t85 57.5t66 69.5v778h61v-989q-74 -35 -121 -86t-47 -123q0 -117 107 -117q47 0 74.5 25t44.5 72l51 -23q-16 -47 -56 -88t-114 -41q-66 0 -116 40t-50 132q0 72 47 134.5t119 101.5v125 q-63 -72 -158.5 -124.5t-200.5 -52.5q-147 0 -228 72t-81 248z" />
<glyph unicode="&#x174;" horiz-adv-x="1744" d="M51 1366h72l356 -1268l359 1268h69l359 -1268l356 1268h72l-389 -1366h-78l-355 1243l-354 -1243h-78zM633 1481l201 295h73l207 -295h-57l-186 245l-181 -245h-57z" />
<glyph unicode="&#x175;" horiz-adv-x="1441" d="M45 989h68l286 -893l297 893h49l297 -893l287 893h68l-328 -989h-49l-299 897l-299 -897h-49zM481 1139l201 295h73l207 -295h-57l-186 245l-181 -245h-57z" />
<glyph unicode="&#x176;" horiz-adv-x="1249" d="M43 1366h84l498 -709l497 709h84l-549 -774v-592h-65v592zM387 1481l201 295h73l207 -295h-57l-186 245l-181 -245h-57z" />
<glyph unicode="&#x177;" horiz-adv-x="964" d="M23 989h71l389 -917l387 917h72l-524 -1222q-35 -80 -89.5 -124t-127.5 -44q-27 0 -53.5 4t-45.5 10l13 57q16 -8 41.5 -12t44.5 -4q49 0 85 27.5t70 107.5l90 205zM244 1139l201 295h73l207 -295h-57l-186 245l-181 -245h-57z" />
<glyph unicode="&#x178;" horiz-adv-x="1249" d="M43 1366h84l498 -709l497 709h84l-549 -774v-592h-65v592zM369 1567q0 23 17.5 40t39.5 17q23 0 40.5 -17t17.5 -40t-17.5 -40.5t-40.5 -17.5t-40 17.5t-17 40.5zM783 1567q0 23 17 40t40 17t40 -17t17 -40t-17.5 -40.5t-39.5 -17.5q-23 0 -40 17.5t-17 40.5z" />
<glyph unicode="&#x179;" horiz-adv-x="1183" d="M109 0v61l874 1244h-874v61h952v-61l-877 -1244h891v-61h-966zM487 1481l328 295h92l-359 -295h-61z" />
<glyph unicode="&#x17a;" horiz-adv-x="954" d="M123 0v55l629 879h-629v55h700v-55l-633 -879h641v-55h-708zM373 1139l328 295h92l-359 -295h-61z" />
<glyph unicode="&#x17b;" horiz-adv-x="1183" d="M109 0v61l874 1244h-874v61h952v-61l-877 -1244h891v-61h-966zM532 1561q0 25 18.5 42t40.5 17q25 0 42.5 -17.5t17.5 -41.5q0 -25 -17.5 -42.5t-42.5 -17.5q-23 0 -41 17.5t-18 42.5z" />
<glyph unicode="&#x17c;" horiz-adv-x="954" d="M123 0v55l629 879h-629v55h700v-55l-633 -879h641v-55h-708zM418 1219q0 25 18.5 42t40.5 17q25 0 42.5 -17.5t17.5 -41.5q0 -25 -17.5 -42.5t-42.5 -17.5q-23 0 -41 17.5t-18 42.5z" />
<glyph unicode="&#x17d;" horiz-adv-x="1183" d="M109 0v61l874 1244h-874v61h952v-61l-877 -1244h891v-61h-966zM350 1776h57l187 -246l180 246h57l-200 -295h-74z" />
<glyph unicode="&#x17e;" horiz-adv-x="954" d="M123 0v55l629 879h-629v55h700v-55l-633 -879h641v-55h-708zM221 1434h57l187 -246l180 246h57l-200 -295h-74z" />
<glyph unicode="&#x17f;" horiz-adv-x="503" d="M41 934v55h164v105q0 139 65.5 215.5t182.5 76.5q47 0 83.5 -11t84.5 -50l-37 -49q-27 25 -58.5 40t-72.5 15q-94 0 -140.5 -62.5t-46.5 -174.5v-1094h-61v934h-164z" />
<glyph unicode="&#x192;" horiz-adv-x="843" d="M82 -330l194 877h-163v61h176l108 486q31 139 114 215.5t200 76.5q47 0 82.5 -13t70.5 -48l-47 -49q-41 49 -106 49q-92 0 -159 -61.5t-89 -169.5l-109 -486h332v-61h-344l-195 -877h-65z" />
<glyph unicode="&#x1a0;" horiz-adv-x="1564" d="M133 682q0 147 45 276t130 224.5t205 151t269 55.5q158 0 283 -61.5t211 -170.5q43 37 68.5 86t25.5 92q-2 -2 -6 -2h-10q-29 0 -47.5 19.5t-18.5 48.5q0 27 18.5 46t47.5 19q33 0 56.5 -27.5t23.5 -80.5q0 -78 -38 -144.5t-87 -101.5q123 -182 123 -430 q0 -147 -46.5 -276.5t-130.5 -224.5t-205 -150.5t-268 -55.5q-150 0 -269.5 55.5t-204.5 150.5t-130 224.5t-45 276.5zM205 682q0 -139 40 -257t115.5 -204t182 -135t239.5 -49q131 0 237.5 49t182.5 135t117 204t41 257q0 141 -41 259t-117 204t-182.5 134t-237.5 48 q-133 0 -239.5 -48t-182 -134t-115.5 -204t-40 -259z" />
<glyph unicode="&#x1a1;" horiz-adv-x="1167" d="M123 496q0 109 32.5 204t93 164.5t145.5 109.5t190 40q92 0 168.5 -32t136.5 -89q39 37 61.5 82t22.5 86q-2 -2 -6 -2h-11q-29 0 -47 19.5t-18 47.5q0 27 18.5 46.5t46.5 19.5q33 0 56.5 -28t23.5 -81q0 -70 -31.5 -131t-74.5 -100q55 -70 84.5 -161t29.5 -195 q0 -109 -32.5 -204t-92 -166t-145.5 -111t-190 -40t-189.5 40t-146 111t-93 166t-32.5 204zM190 496q0 -90 26 -174t76 -148.5t124 -103.5t168 -39t167.5 39t124 103.5t76 148.5t25.5 174t-25.5 173t-76 147.5t-124 103t-167.5 38.5t-168 -38.5t-124 -103t-76 -147.5 t-26 -173z" />
<glyph unicode="&#x1af;" horiz-adv-x="1376" d="M180 518v848h66v-848q0 -229 112.5 -355t329.5 -126t329.5 126t112.5 355v848h66v-125q78 33 130 96.5t52 135.5q-2 -2 -6 -3h-10q-29 0 -47.5 19.5t-18.5 48.5q0 27 18.5 46.5t47.5 19.5q33 0 56.5 -28t23.5 -81q0 -104 -67.5 -189t-178.5 -122v-666q0 -256 -129 -399.5 t-379 -143.5t-379 145.5t-129 397.5z" />
<glyph unicode="&#x1b0;" d="M176 295v694h62v-694q0 -78 18 -129t52 -81t81 -42t105 -12q51 0 102 14t97 39t85 57.5t66 69.5v778h61v-141q63 35 105.5 93t42.5 120q-2 -2 -6 -2h-11q-29 0 -47 19.5t-18 47.5q0 27 18.5 46.5t46.5 19.5q33 0 56.5 -27.5t23.5 -81.5q0 -98 -58.5 -177t-152.5 -122 v-784h-61v152q-63 -72 -158.5 -124.5t-200.5 -52.5q-147 0 -228 72t-81 248z" />
<glyph unicode="&#x1fc;" horiz-adv-x="1904" d="M43 0l870 1366h859v-61h-771v-572h756v-61h-756v-611h771v-61h-836v367h-586l-231 -367h-76zM385 428h551v862zM864 1481l328 295h92l-359 -295h-61z" />
<glyph unicode="&#x1fd;" horiz-adv-x="1853" d="M127 307q0 80 30.5 140.5t82 102.5t118 63.5t138.5 21.5q115 0 206 -34t166 -107v219q0 121 -84 183t-219 62q-106 0 -188 -35.5t-158 -119.5l-47 41q72 86 172 128t238 42q51 0 108.5 -12.5t107.5 -41t85 -77.5t43 -123q23 53 60.5 99t85.5 81t105.5 54.5t118.5 19.5 q109 0 191 -42t136 -114t81 -166t27 -196v-21h-801q2 -90 30.5 -171t77.5 -141.5t119 -96t158 -35.5q98 0 177 37.5t144 111.5l37 -39q-70 -78 -152.5 -122t-203.5 -44q-139 0 -245.5 75t-160.5 216q-43 -135 -147.5 -213t-245.5 -78q-84 0 -155.5 22.5t-124 64.5t-82 103.5 t-29.5 141.5zM195 305q0 -57 22.5 -107.5t64.5 -87t101 -58t133 -21.5q82 0 147.5 28.5t111.5 77.5t69.5 113.5t23.5 134.5v39q-61 78 -154 117t-198 39q-74 0 -133 -21.5t-101 -58.5t-64.5 -87.5t-22.5 -107.5zM741 1139l328 295h92l-359 -295h-61zM930 530h735 q0 72 -20.5 148t-65.5 138.5t-114.5 102t-168.5 39.5q-88 0 -155.5 -39.5t-113.5 -101t-70.5 -137.5t-26.5 -150z" />
<glyph unicode="&#x1fe;" horiz-adv-x="1564" d="M133 682q0 147 45 276t130 224.5t205 151t269 55.5q94 0 177 -24t155 -65l39 66h74l-62 -102q127 -94 197 -246t70 -336q0 -147 -46.5 -276.5t-130.5 -224.5t-205 -150.5t-268 -55.5q-188 0 -333 88l-37 -63h-74l59 98q-127 96 -195.5 247t-68.5 337zM205 682 q0 -170 58.5 -306t166.5 -222l651 1093q-63 39 -138 59.5t-161 20.5q-133 0 -239.5 -48t-182 -134t-115.5 -204t-40 -259zM481 117q63 -39 139 -59.5t162 -20.5q131 0 237.5 49t182.5 135t117 204t41 257q0 170 -59.5 306t-167.5 222zM678 1481l328 295h92l-359 -295h-61z " />
<glyph unicode="&#x1ff;" horiz-adv-x="1167" d="M123 496q0 109 32.5 204t93 164.5t145.5 109.5t190 40q80 0 148.5 -23.5t123.5 -66.5l49 65h68l-76 -102q72 -72 109.5 -172.5t37.5 -218.5q0 -109 -32.5 -204t-92 -166t-145.5 -111t-190 -40q-86 0 -157 27t-128 74l-57 -76h-70l86 115q-66 72 -100.5 169t-34.5 212z M190 496q0 -92 27 -177.5t80 -150.5l522 706q-47 39 -105.5 61.5t-129.5 22.5q-94 0 -168 -38.5t-124 -103t-76 -147.5t-26 -173zM334 125q47 -45 109.5 -69.5t140.5 -24.5q94 0 167.5 39t124 103.5t76 148.5t25.5 174q0 98 -29.5 186t-87.5 154zM479 1139l328 295h92 l-359 -295h-61z" />
<glyph unicode="&#x218;" horiz-adv-x="1177" d="M109 193l53 47q31 -39 74 -75t96 -64.5t116.5 -46t137.5 -17.5q119 0 194.5 29.5t120.5 75.5t62.5 100.5t17.5 103.5q0 113 -61.5 175.5t-153.5 101.5t-199.5 64.5t-200 65.5t-153.5 105.5t-61 181.5q0 82 34.5 147.5t94 109.5t137.5 68t162 24q152 0 261 -51.5 t181 -141.5l-51 -47q-72 94 -172.5 136t-218.5 42q-74 0 -139.5 -21.5t-113.5 -59.5t-76 -90t-28 -116q0 -74 36 -121t94.5 -79.5t133 -55t151.5 -46t151.5 -51.5t133 -72t94.5 -108.5t36 -160.5q0 -57 -21.5 -122.5t-74 -121t-143.5 -91.5t-228 -36q-160 0 -282 61.5 t-195 156.5zM498 -492q49 37 78.5 89.5t29.5 99.5q-2 -2 -6 -2h-10q-29 0 -47.5 19.5t-18.5 47.5q0 27 18.5 46.5t47.5 19.5q33 0 56.5 -28t23.5 -81q0 -78 -39 -145.5t-88 -101.5z" />
<glyph unicode="&#x219;" horiz-adv-x="929" d="M90 133l49 45q47 -61 125 -104t189 -43q137 0 214.5 65.5t77.5 163.5q0 76 -47 118t-117.5 67.5t-152.5 44t-152.5 48t-117.5 79t-47 135.5q0 55 22.5 102t65.5 83t105.5 56.5t141.5 20.5q129 0 211 -44t129 -106l-45 -41q-43 61 -118.5 98t-176.5 37q-129 0 -201.5 -59 t-72.5 -147q0 -70 47 -107t118 -60.5t152.5 -42t152.5 -50t118 -85t47 -147.5q0 -57 -21.5 -109.5t-65.5 -91.5t-110.5 -61.5t-156.5 -22.5q-117 0 -203 36t-160 122zM385 -492q49 37 78.5 89.5t29.5 99.5q-2 -2 -6 -2h-10q-29 0 -47.5 19.5t-18.5 47.5q0 27 18.5 46.5 t47.5 19.5q33 0 56.5 -28t23.5 -81q0 -78 -39 -145.5t-88 -101.5z" />
<glyph unicode="&#x21a;" horiz-adv-x="1144" d="M78 1305v61h989v-61h-463v-1305h-65v1305h-461zM492 -492q49 37 78.5 89.5t29.5 99.5q-2 -2 -6 -2h-10q-29 0 -47.5 19.5t-18.5 47.5q0 27 18.5 46.5t47.5 19.5q33 0 56.5 -28t23.5 -81q0 -78 -39 -145.5t-88 -101.5z" />
<glyph unicode="&#x21b;" horiz-adv-x="524" d="M25 934v55h163v271h62v-271h201v-55h-201v-760q0 -63 25.5 -103t80.5 -40q37 0 68 15t49 38l37 -47q-29 -29 -64 -45.5t-90 -16.5q-86 0 -127 53.5t-41 145.5v760h-163zM182 -492q49 37 78.5 89.5t29.5 99.5q-2 -2 -6 -2h-10q-29 0 -47.5 19.5t-18.5 47.5q0 27 18.5 46.5 t47.5 19.5q33 0 56.5 -28t23.5 -81q0 -78 -39 -145.5t-88 -101.5z" />
<glyph unicode="&#x2c6;" horiz-adv-x="481" d="M0 1139l201 295h73l207 -295h-57l-186 245l-181 -245h-57z" />
<glyph unicode="&#x2da;" horiz-adv-x="378" d="M0 1323q0 39 15.5 74t41 60.5t60.5 40.5t73 15q39 0 74 -15t60.5 -40.5t40 -60.5t14.5 -74t-14.5 -74t-40 -60.5t-60.5 -40.5t-74 -15t-73.5 15t-60 40.5t-41 60.5t-15.5 74zM49 1323q0 -59 41 -100t100 -41t99.5 41t40.5 100t-40 100t-100 41q-59 0 -100 -41t-41 -100z " />
<glyph unicode="&#x2dc;" horiz-adv-x="616" d="M0 1147q0 55 11.5 105.5t35 87t57 59t76.5 22.5q59 0 91 -35.5t55.5 -79.5t48 -80t67.5 -36q51 0 86 51t35 168h53q0 -55 -11 -105.5t-34.5 -87t-57.5 -59t-77 -22.5q-59 0 -91 35.5t-55.5 79.5t-48 80t-67.5 36q-51 0 -86 -51t-35 -168h-53z" />
<glyph unicode="&#x37e;" horiz-adv-x="425" d="M119 -205q49 37 78.5 89.5t29.5 99.5q-2 -2 -6 -2h-10q-29 0 -47.5 19t-18.5 48q0 27 18.5 46.5t47.5 19.5q33 0 56.5 -28t23.5 -81q0 -78 -39 -145.5t-88 -102.5zM145 936q0 29 19.5 48.5t48.5 19.5t48.5 -19.5t19.5 -48.5q0 -27 -19.5 -46.5t-48.5 -19.5t-48.5 19.5 t-19.5 46.5z" />
<glyph unicode="&#x386;" horiz-adv-x="1302" d="M43 0l569 1366h78l570 -1366h-76l-152 367h-762l-151 -367h-76zM295 428h713l-357 862zM358 1178l35 389h107l-97 -389h-45z" />
<glyph unicode="&#x388;" horiz-adv-x="1142" d="M-17 1178l35 389h107l-97 -389h-45zM180 0v1366h836v-61h-770v-572h755v-61h-755v-611h770v-61h-836z" />
<glyph unicode="&#x389;" horiz-adv-x="1423" d="M-17 1178l35 389h107l-97 -389h-45zM180 0v1366h66v-633h932v633h65v-1366h-65v672h-932v-672h-66z" />
<glyph unicode="&#x38a;" horiz-adv-x="425" d="M-17 1178l35 389h107l-97 -389h-45zM180 0v1366h66v-1366h-66z" />
<glyph unicode="&#x38c;" horiz-adv-x="1564" d="M86 1178l35 389h107l-97 -389h-45zM133 682q0 147 45 276t130 224.5t205 151t269 55.5q147 0 268 -55.5t205 -151t130.5 -224.5t46.5 -276t-46.5 -276.5t-130.5 -224.5t-205 -150.5t-268 -55.5q-150 0 -269.5 55.5t-204.5 150.5t-130 224.5t-45 276.5zM205 682 q0 -139 40 -257t115.5 -204t182 -135t239.5 -49q131 0 237.5 49t182.5 135t117 204t41 257q0 141 -41 259t-117 204t-182.5 134t-237.5 48q-133 0 -239.5 -48t-182 -134t-115.5 -204t-40 -259z" />
<glyph unicode="&#x38e;" horiz-adv-x="1320" d="M-17 1178l35 389h107l-97 -389h-45zM115 1366h84l498 -709l497 709h84l-549 -774v-592h-65v592z" />
<glyph unicode="&#x38f;" horiz-adv-x="1564" d="M86 1178l35 389h107l-97 -389h-45zM133 682q0 147 45 276t130 224.5t205 151t269 55.5q150 0 269.5 -55.5t203.5 -151t130.5 -224.5t46.5 -276q0 -225 -91.5 -377.5t-248.5 -243.5h303v-61h-441v61q70 16 141.5 63.5t130 124.5t96.5 184.5t38 248.5t-40 259t-116 203 t-182.5 133t-239.5 48t-239.5 -48t-182 -133t-115.5 -203t-40 -259t38 -248.5t97 -184.5t131 -124t141 -64v-61h-440v61h303q-158 90 -250 243t-92 378z" />
<glyph unicode="&#x390;" horiz-adv-x="442" d="M-81 1225q0 23 17 40t40 17t40 -17t17 -40t-17.5 -40.5t-39.5 -17.5q-23 0 -40 17.5t-17 40.5zM176 174v815h62v-815q0 -63 25.5 -103t80.5 -40q25 0 41 4l6 -55q-10 -2 -21.5 -3.5t-25.5 -1.5q-86 0 -127 53.5t-41 145.5zM181 1178l34 389h107l-96 -389h-45zM414 1225 q0 23 17.5 40t39.5 17q23 0 40.5 -17t17.5 -40t-17.5 -40.5t-40.5 -17.5t-40 17.5t-17 40.5z" />
<glyph unicode="&#x391;" horiz-adv-x="1302" d="M43 0l569 1366h78l570 -1366h-76l-152 367h-762l-151 -367h-76zM295 428h713l-357 862z" />
<glyph unicode="&#x392;" horiz-adv-x="1228" d="M180 0v1366h514q82 0 150.5 -22.5t118 -66.5t77 -109.5t27.5 -149.5q0 -66 -20.5 -119t-54.5 -93t-78 -66.5t-89 -34.5q55 -8 103.5 -40t85.5 -78t58.5 -102.5t21.5 -115.5q0 -176 -105.5 -272.5t-286.5 -96.5h-522zM246 61h456q152 0 236 82t84 224q0 57 -20.5 112.5 t-60.5 98.5t-99.5 68.5t-139.5 25.5h-456v-611zM246 733h448q76 0 132.5 22.5t94 60.5t56 90t18.5 112q0 57 -18.5 109.5t-56 92.5t-94 62.5t-132.5 22.5h-448v-572z" />
<glyph unicode="&#x393;" horiz-adv-x="1091" d="M180 0v1366h836v-61h-770v-1305h-66z" />
<glyph unicode="&#x394;" horiz-adv-x="1302" d="M43 0l569 1366h78l570 -1366h-1217zM141 61h1020l-510 1229z" />
<glyph unicode="&#x395;" horiz-adv-x="1142" d="M180 0v1366h836v-61h-770v-572h755v-61h-755v-611h770v-61h-836z" />
<glyph unicode="&#x396;" horiz-adv-x="1183" d="M109 0v61l874 1244h-874v61h952v-61l-877 -1244h891v-61h-966z" />
<glyph unicode="&#x397;" horiz-adv-x="1423" d="M180 0v1366h66v-633h932v633h65v-1366h-65v672h-932v-672h-66z" />
<glyph unicode="&#x398;" horiz-adv-x="1564" d="M133 682q0 147 45 276t130 224.5t205 151t269 55.5q147 0 268 -55.5t205 -151t130.5 -224.5t46.5 -276t-46.5 -276.5t-130.5 -224.5t-205 -150.5t-268 -55.5q-150 0 -269.5 55.5t-204.5 150.5t-130 224.5t-45 276.5zM205 682q0 -139 40 -257t115.5 -204t182 -135 t239.5 -49q131 0 237.5 49t182.5 135t117 204t41 257q0 141 -41 259t-117 204t-182.5 134t-237.5 48q-133 0 -239.5 -48t-182 -134t-115.5 -204t-40 -259zM342 672v61h881v-61h-881z" />
<glyph unicode="&#x399;" horiz-adv-x="425" d="M180 0v1366h66v-1366h-66z" />
<glyph unicode="&#x39a;" horiz-adv-x="1169" d="M180 0v1366h66v-788l710 788h88l-593 -653l655 -713h-88l-608 672l-164 -178v-494h-66z" />
<glyph unicode="&#x39b;" horiz-adv-x="1302" d="M43 0l569 1366h78l570 -1366h-76l-533 1290l-532 -1290h-76z" />
<glyph unicode="&#x39c;" horiz-adv-x="1576" d="M180 0v1366h105l503 -1223l504 1223h105v-1366h-66v1288l-532 -1288h-21l-532 1288v-1288h-66z" />
<glyph unicode="&#x39d;" horiz-adv-x="1413" d="M180 0v1366h66l921 -1247v1247h66v-1366h-66l-921 1260v-1260h-66z" />
<glyph unicode="&#x39e;" horiz-adv-x="1245" d="M127 0v61h989v-61h-989zM129 1305v61h989v-61h-989zM143 672v61h961v-61h-961z" />
<glyph unicode="&#x39f;" horiz-adv-x="1564" d="M133 682q0 147 45 276t130 224.5t205 151t269 55.5q147 0 268 -55.5t205 -151t130.5 -224.5t46.5 -276t-46.5 -276.5t-130.5 -224.5t-205 -150.5t-268 -55.5q-150 0 -269.5 55.5t-204.5 150.5t-130 224.5t-45 276.5zM205 682q0 -139 40 -257t115.5 -204t182 -135 t239.5 -49q131 0 237.5 49t182.5 135t117 204t41 257q0 141 -41 259t-117 204t-182.5 134t-237.5 48q-133 0 -239.5 -48t-182 -134t-115.5 -204t-40 -259z" />
<glyph unicode="&#x3a0;" horiz-adv-x="1423" d="M180 0v1366h1063v-1366h-65v1305h-932v-1305h-66z" />
<glyph unicode="&#x3a1;" horiz-adv-x="1136" d="M180 0v1366h473q94 0 169 -30.5t126 -84t78 -124t27 -148.5t-28 -148.5t-79 -124t-124.5 -84t-168.5 -30.5h-407v-592h-66zM246 653h405q76 0 136.5 24.5t103.5 67.5t66.5 102.5t23.5 131.5q0 70 -23.5 130t-66.5 103t-103.5 68t-136.5 25h-405v-652z" />
<glyph unicode="&#x3a3;" horiz-adv-x="1161" d="M127 0v61l522 644l-520 600v61h905v-61h-827l520 -598l-524 -646h831v-61h-907z" />
<glyph unicode="&#x3a4;" horiz-adv-x="1144" d="M78 1305v61h989v-61h-463v-1305h-65v1305h-461z" />
<glyph unicode="&#x3a5;" horiz-adv-x="1249" d="M43 1366h84l498 -709l497 709h84l-549 -774v-592h-65v592z" />
<glyph unicode="&#x3a6;" horiz-adv-x="1564" d="M133 682q0 113 43 211t123 172t194.5 118t256.5 50v133h65v-133q141 -6 255 -50t195 -118t124 -172t43 -211t-43 -211t-124 -172t-195 -119t-255 -49v-131h-65v131q-141 4 -256 49t-195 119t-123 172t-43 211zM205 682q0 -102 38 -190.5t108.5 -153t171 -103t227.5 -42.5 v978q-127 -4 -227.5 -42.5t-171 -103t-108.5 -153t-38 -190.5zM815 193q125 4 225.5 42.5t171 103t109.5 153t39 190.5t-39 190.5t-109.5 153t-171 103t-225.5 42.5v-978z" />
<glyph unicode="&#x3a7;" horiz-adv-x="1306" d="M51 0l565 700l-534 666h88l483 -612l484 612h88l-535 -664l565 -702h-86l-516 651l-516 -651h-86z" />
<glyph unicode="&#x3a8;" horiz-adv-x="1507" d="M180 797v569h66v-569q0 -221 120.5 -347t354.5 -135v1051h65v-1051q231 8 353.5 134t122.5 348v569h65v-569q0 -248 -137 -391.5t-404 -151.5v-254h-65v254q-268 10 -404.5 153.5t-136.5 389.5z" />
<glyph unicode="&#x3a9;" horiz-adv-x="1564" d="M133 682q0 147 45 276t130 224.5t205 151t269 55.5q150 0 269.5 -55.5t203.5 -151t130.5 -224.5t46.5 -276q0 -225 -91.5 -377.5t-248.5 -243.5h303v-61h-441v61q70 16 141.5 63.5t130 124.5t96.5 184.5t38 248.5t-40 259t-116 203t-182.5 133t-239.5 48t-239.5 -48 t-182 -133t-115.5 -203t-40 -259t38 -248.5t97 -184.5t131 -124t141 -64v-61h-440v61h303q-158 90 -250 243t-92 378z" />
<glyph unicode="&#x3aa;" horiz-adv-x="425" d="M-49 1602q0 23 17.5 40t39.5 17q23 0 40.5 -17t17.5 -40t-17.5 -40.5t-40.5 -17.5t-40 17.5t-17 40.5zM180 0v1366h66v-1366h-66zM365 1602q0 23 17 40t40 17t40 -17t17 -40t-17.5 -40.5t-39.5 -17.5q-23 0 -40 17.5t-17 40.5z" />
<glyph unicode="&#x3ab;" horiz-adv-x="1249" d="M43 1366h84l498 -709l497 709h84l-549 -774v-592h-65v592zM361 1602q0 23 17.5 40t39.5 17q23 0 40.5 -17t17.5 -40t-17.5 -40.5t-40.5 -17.5t-40 17.5t-17 40.5zM775 1602q0 23 17 40t40 17t40 -17t17 -40t-17.5 -40.5t-39.5 -17.5q-23 0 -40 17.5t-17 40.5z" />
<glyph unicode="&#x3ac;" horiz-adv-x="1187" d="M123 494q0 117 31.5 213t90 163.5t139.5 105.5t181 38q111 0 204 -53.5t153 -141.5v170h61v-815q0 -63 26.5 -103t80.5 -40q25 0 40 4l7 -55q-10 -2 -21.5 -3.5t-25.5 -1.5q-86 0 -126 52.5t-42 138.5q-25 -39 -62 -74t-83 -60.5t-100 -41t-112 -15.5q-100 0 -181 37 t-139.5 104.5t-90 164t-31.5 213.5zM190 494q0 -98 25 -182.5t72 -147t117.5 -98t160.5 -35.5q57 0 111.5 16t101.5 43t84 62.5t60 74.5v531q-23 39 -60 75.5t-84 64.5t-101 44t-112 16q-90 0 -160.5 -35.5t-117.5 -99t-72 -147.5t-25 -182zM553 1178l35 389h107l-97 -389 h-45z" />
<glyph unicode="&#x3ad;" horiz-adv-x="1071" d="M123 260q0 63 30.5 108.5t75.5 75t96.5 43t92.5 17.5q-39 4 -87 20.5t-89 46t-70 74.5t-29 107q0 63 35 112t94.5 82t138 50.5t164.5 17.5q135 0 230.5 -43t163.5 -113l-41 -37q-129 137 -353 137q-78 0 -144 -14t-115.5 -42t-78 -65.5t-28.5 -84.5q0 -57 30.5 -98.5 t83 -69t118 -41t137.5 -13.5h237v-55h-237q-78 0 -148 -10t-123 -36t-85 -66.5t-32 -102.5q0 -53 27 -95t76 -72t115.5 -46t146.5 -16q258 0 397 149l37 -39q-76 -78 -181.5 -122t-252.5 -44q-104 0 -184 21.5t-135.5 60.5t-84 90.5t-28.5 112.5zM495 1178l35 389h107 l-97 -389h-45z" />
<glyph unicode="&#x3ae;" d="M176 0v989h62v-155q27 33 67.5 65.5t87.5 58t99.5 41t103.5 15.5q147 0 228 -74t81 -250v-1067h-61v1067q0 78 -18.5 129t-52.5 82t-81 44t-104 13q-51 0 -102.5 -15t-97.5 -40.5t-85 -59.5t-65 -71v-772h-62zM499 1178l35 389h107l-97 -389h-45z" />
<glyph unicode="&#x3af;" horiz-adv-x="442" d="M176 174v815h62v-815q0 -63 25.5 -103t80.5 -40q25 0 41 4l6 -55q-10 -2 -21.5 -3.5t-25.5 -1.5q-86 0 -127 53.5t-41 145.5zM184 1178l35 389h107l-97 -389h-45z" />
<glyph unicode="&#x3b0;" horiz-adv-x="1124" d="M176 424v565h62v-565q0 -184 77.5 -288.5t225.5 -104.5q94 0 167.5 39t124 103.5t76 148.5t25.5 174q0 141 -41 261t-133 216l49 41q90 -102 141 -232.5t51 -285.5q0 -109 -32.5 -204t-92 -166t-145.5 -111t-190 -40q-180 0 -272.5 120t-92.5 329zM256 1225q0 23 17 40 t40 17t40 -17t17 -40t-17.5 -40.5t-39.5 -17.5q-23 0 -40 17.5t-17 40.5zM518 1178l34 389h107l-96 -389h-45zM751 1225q0 23 17.5 40t39.5 17q23 0 40.5 -17t17.5 -40t-17.5 -40.5t-40.5 -17.5t-40 17.5t-17 40.5z" />
<glyph unicode="&#x3b1;" horiz-adv-x="1187" d="M123 494q0 117 31.5 213t90 163.5t139.5 105.5t181 38q111 0 204 -53.5t153 -141.5v170h61v-815q0 -63 26.5 -103t80.5 -40q25 0 40 4l7 -55q-10 -2 -21.5 -3.5t-25.5 -1.5q-86 0 -126 52.5t-42 138.5q-25 -39 -62 -74t-83 -60.5t-100 -41t-112 -15.5q-100 0 -181 37 t-139.5 104.5t-90 164t-31.5 213.5zM190 494q0 -98 25 -182.5t72 -147t117.5 -98t160.5 -35.5q57 0 111.5 16t101.5 43t84 62.5t60 74.5v531q-23 39 -60 75.5t-84 64.5t-101 44t-112 16q-90 0 -160.5 -35.5t-117.5 -99t-72 -147.5t-25 -182z" />
<glyph unicode="&#x3b2;" horiz-adv-x="1159" d="M176 -377v1321q0 113 36 196t95.5 138t138 81.5t164.5 26.5q76 0 147.5 -23.5t127 -68.5t88.5 -111.5t33 -152.5q0 -84 -29 -141.5t-72 -96t-92 -59t-88 -26.5q43 -4 96 -26t101.5 -62.5t81 -104t32.5 -152.5q0 -90 -31.5 -160.5t-89 -121.5t-137.5 -78t-178 -27 q-123 0 -217 56.5t-145 134.5v-543h-62zM238 227q23 -39 59.5 -74.5t83.5 -62.5t101.5 -43t111.5 -16q182 0 278.5 89t96.5 242q0 84 -32 143.5t-86 98.5t-126 56.5t-150 17.5h-63v55h63q72 0 137.5 17.5t116 53.5t80 92t29.5 134q0 70 -26.5 126t-71.5 95t-104.5 59.5 t-125.5 20.5q-72 0 -139.5 -23.5t-119.5 -70.5t-82.5 -120t-30.5 -173v-717z" />
<glyph unicode="&#x3b3;" horiz-adv-x="964" d="M2 989h82q78 -74 149.5 -178t129 -225t95.5 -247t50 -243q68 90 127 196.5t103 221.5t68.5 235.5t24.5 239.5h62q0 -119 -26.5 -245t-76 -251.5t-120 -248.5t-156.5 -236v-385h-61v326q0 154 -35 303t-96.5 284.5t-143.5 251t-176 201.5z" />
<glyph unicode="&#x3b4;" horiz-adv-x="1167" d="M123 430q0 170 93 292t247 175q-92 33 -154.5 84t-62.5 147q0 55 22.5 102.5t65.5 83.5t105.5 56.5t142.5 20.5q129 0 210.5 -44t129.5 -106l-45 -41q-43 61 -119 98t-176 37q-129 0 -202 -59t-73 -148q0 -55 32 -89.5t84 -60.5t117.5 -45.5t135 -44t135.5 -58t118 -87 t83.5 -129t31.5 -184.5q0 -88 -32.5 -170t-92 -145.5t-145.5 -101.5t-190 -38t-189.5 38t-146 101.5t-93 145.5t-32.5 170zM190 430q0 -70 26 -141.5t76 -129t123.5 -93t168.5 -35.5q94 0 168.5 35.5t126 93t78 129t26.5 141.5q0 111 -39 183.5t-100.5 119.5t-137 77 t-151.5 54q-180 -47 -272.5 -161.5t-92.5 -272.5z" />
<glyph unicode="&#x3b5;" horiz-adv-x="1071" d="M123 260q0 63 30.5 108.5t75.5 75t96.5 43t92.5 17.5q-39 4 -87 20.5t-89 46t-70 74.5t-29 107q0 63 35 112t94.5 82t138 50.5t164.5 17.5q135 0 230.5 -43t163.5 -113l-41 -37q-129 137 -353 137q-78 0 -144 -14t-115.5 -42t-78 -65.5t-28.5 -84.5q0 -57 30.5 -98.5 t83 -69t118 -41t137.5 -13.5h237v-55h-237q-78 0 -148 -10t-123 -36t-85 -66.5t-32 -102.5q0 -53 27 -95t76 -72t115.5 -46t146.5 -16q258 0 397 149l37 -39q-76 -78 -181.5 -122t-252.5 -44q-104 0 -184 21.5t-135.5 60.5t-84 90.5t-28.5 112.5z" />
<glyph unicode="&#x3b6;" horiz-adv-x="1009" d="M123 434q0 135 50 255t142.5 229.5t221.5 207t286 185.5h-667v55h751v-55q-176 -104 -309 -205.5t-224 -208t-137.5 -221.5t-46.5 -242q0 -94 36 -169t101.5 -127t156.5 -79.5t202 -27.5q113 0 167 -32t54 -120q0 -41 -18.5 -90t-52.5 -111h-72q35 59 55.5 106.5 t20.5 94.5q0 57 -38 76.5t-120 19.5q-123 0 -226.5 32t-177 91.5t-114.5 144.5t-41 191z" />
<glyph unicode="&#x3b7;" d="M176 0v989h62v-155q27 33 67.5 65.5t87.5 58t99.5 41t103.5 15.5q147 0 228 -74t81 -250v-1067h-61v1067q0 78 -18.5 129t-52.5 82t-81 44t-104 13q-51 0 -102.5 -15t-97.5 -40.5t-85 -59.5t-65 -71v-772h-62z" />
<glyph unicode="&#x3b8;" horiz-adv-x="1167" d="M123 684q0 150 26.5 279t84 224t143.5 149.5t207 54.5t208 -54.5t143 -149.5t82.5 -224t26.5 -279q0 -147 -26.5 -277.5t-82.5 -225.5t-143 -150.5t-208 -55.5t-207 55.5t-143.5 150.5t-84 225.5t-26.5 277.5zM190 659q2 -125 24 -238.5t68 -200.5t121 -138t181 -51 t180 51t121 138t68.5 201t23.5 238h-787zM190 715h787q-2 121 -23.5 233.5t-68.5 198.5t-121 137t-180 51t-180 -51t-120 -137t-68.5 -198.5t-25.5 -233.5z" />
<glyph unicode="&#x3b9;" horiz-adv-x="442" d="M176 174v815h62v-815q0 -63 25.5 -103t80.5 -40q25 0 41 4l6 -55q-10 -2 -21.5 -3.5t-25.5 -1.5q-86 0 -127 53.5t-41 145.5z" />
<glyph unicode="&#x3ba;" horiz-adv-x="1015" d="M176 0v989h62v-602l645 602h88l-482 -446l476 -543h-88l-435 498l-204 -189v-309h-62z" />
<glyph unicode="&#x3bb;" horiz-adv-x="964" d="M23 0l423 995l-90 205q-35 80 -70.5 107.5t-84.5 27.5q-18 0 -44 -4t-42 -12l-13 57q18 6 45 10.5t54 4.5q74 0 128 -44t89 -124l524 -1223h-72l-387 918l-389 -918h-71z" />
<glyph unicode="&#x3bc;" horiz-adv-x="1110" d="M176 -377v1366h62v-694q0 -145 70.5 -206.5t189.5 -61.5q49 0 99 15t96 39.5t85 58.5t66 71v778h61v-815q0 -63 25.5 -103t81.5 -40q25 0 41 4l6 -55q-10 -2 -21.5 -3.5t-25.5 -1.5q-86 0 -124 49.5t-44 127.5q-61 -72 -153.5 -124.5t-192.5 -52.5q-115 0 -174.5 40 t-85.5 94v-486h-62z" />
<glyph unicode="&#x3bd;" horiz-adv-x="964" d="M23 989h71l391 -923q76 102 140.5 214.5t109.5 230.5t70.5 238.5t25.5 239.5h62q0 -121 -26.5 -248t-77 -254t-122 -250.5t-159.5 -236.5h-62z" />
<glyph unicode="&#x3be;" horiz-adv-x="1009" d="M123 362q0 88 32.5 152t81 106t101.5 63.5t96 25.5q-41 6 -91 26.5t-94 55t-75 88t-31 127.5q0 49 19.5 96t52.5 87t77 71.5t93 50.5h-229v55h727v-55h-381q-61 -14 -114.5 -45t-92.5 -73t-61.5 -90t-22.5 -97q0 -68 31.5 -119t84 -85t119 -50.5t138.5 -16.5h284v-55 h-284q-78 0 -150 -18.5t-126 -56.5t-86 -98.5t-32 -144.5q0 -158 129.5 -244.5t366.5 -86.5q113 0 167 -32t54 -120q0 -41 -18.5 -90t-52.5 -111h-72q35 59 55.5 106.5t20.5 94.5q0 57 -38 76.5t-120 19.5q-268 0 -413.5 100.5t-145.5 286.5z" />
<glyph unicode="&#x3bf;" horiz-adv-x="1167" d="M123 496q0 109 32.5 204t93 164.5t145.5 109.5t190 40q104 0 190 -40t145.5 -109.5t92 -165t32.5 -203.5q0 -109 -32.5 -204t-92 -166t-145.5 -111t-190 -40t-189.5 40t-146 111t-93 166t-32.5 204zM190 496q0 -90 26 -174t76 -148.5t124 -103.5t168 -39t167.5 39 t124 103.5t76 148.5t25.5 174t-25.5 173t-76 147.5t-124 103t-167.5 38.5t-168 -38.5t-124 -103t-76 -147.5t-26 -173z" />
<glyph unicode="&#x3c0;" horiz-adv-x="1105" d="M25 934v55h1056v-55h-163v-934h-62v934h-606v-934h-62v934h-163z" />
<glyph unicode="&#x3c1;" horiz-adv-x="1150" d="M176 -377v873q0 109 31 204t86 164.5t134 109.5t177 40t178 -40t136.5 -109.5t87 -165t30.5 -203.5q0 -117 -31.5 -213.5t-90 -164t-139.5 -105.5t-181 -38q-111 0 -204 53.5t-152 141.5v-547h-62zM238 231q23 -39 59.5 -75.5t83.5 -64.5t101.5 -44t111.5 -16 q90 0 159.5 35.5t118 99t73 147.5t24.5 183q0 90 -23.5 173t-71 147.5t-116 103t-156.5 38.5t-156.5 -38.5t-114.5 -103t-69.5 -147.5t-23.5 -173v-265z" />
<glyph unicode="&#x3c2;" horiz-adv-x="972" d="M123 496q0 106 32.5 200.5t93 165t146.5 111.5t195 41q121 0 197.5 -44t140.5 -122l-45 -37q-59 82 -131 114.5t-158 32.5q-96 0 -171 -35.5t-126 -98t-79 -147.5t-28 -181q0 -117 36 -204t99.5 -145.5t152.5 -87t198 -28.5q113 0 167 -32t54 -120q0 -41 -18.5 -90 t-53.5 -111h-61q35 59 55.5 106.5t20.5 94.5q0 57 -43 76.5t-125 19.5q-256 0 -402.5 136.5t-146.5 384.5z" />
<glyph unicode="&#x3c3;" horiz-adv-x="1167" d="M123 496q0 100 33.5 190t97 157.5t157 106.5t212.5 39h483v-55h-279q45 -35 84 -77t69 -97t47 -124t17 -157q0 -102 -32.5 -194t-92 -161t-145.5 -109t-190 -40t-189.5 40t-146 111t-93 166t-32.5 204zM190 496q0 -90 26 -174t76 -148.5t123.5 -103.5t168.5 -39 q94 0 167.5 37.5t124 101t76 144.5t25.5 165q0 166 -74 284t-184 171h-96q-109 0 -191 -38t-135 -99.5t-80 -140t-27 -160.5z" />
<glyph unicode="&#x3c4;" horiz-adv-x="935" d="M63 934v55h809v-55h-374v-760q0 -63 25.5 -103t80.5 -40q37 0 67.5 15t49.5 38l37 -47q-29 -29 -64 -45.5t-90 -16.5q-86 0 -127 53.5t-41 145.5v760h-373z" />
<glyph unicode="&#x3c5;" horiz-adv-x="1124" d="M176 424v565h62v-565q0 -184 77.5 -288.5t225.5 -104.5q94 0 167.5 39t124 103.5t76 148.5t25.5 174q0 141 -41 261t-133 216l49 41q90 -102 141 -232.5t51 -285.5q0 -109 -32.5 -204t-92 -166t-145.5 -111t-190 -40q-180 0 -272.5 120t-92.5 329z" />
<glyph unicode="&#x3c6;" horiz-adv-x="1433" d="M123 518q0 88 28.5 164t78 138.5t113 110.5t134.5 83l29 -47q-141 -74 -228.5 -182.5t-87.5 -266.5q0 -96 27 -182t86 -152.5t153.5 -107.5t229.5 -45v983h31q152 0 263.5 -40t185 -110.5t109.5 -164.5t36 -203q0 -106 -34 -199.5t-103.5 -163.5t-176 -111.5 t-249.5 -46.5v-352h-62v352q-143 4 -248.5 47.5t-175 115t-104.5 168.5t-35 212zM748 31q135 4 229 44t153.5 104.5t86 146.5t26.5 170q0 90 -27.5 171t-87 144t-153.5 102t-227 45v-927z" />
<glyph unicode="&#x3c7;" horiz-adv-x="966" d="M45 -377l404 703l-381 663h71l344 -606l344 606h72l-381 -663l404 -703h-72l-367 645l-366 -645h-72z" />
<glyph unicode="&#x3c8;" horiz-adv-x="1433" d="M176 424v565h62v-565q0 -178 114.5 -281.5t333.5 -111.5v1335h62v-1335q217 8 332.5 111.5t115.5 281.5v565h61v-565q0 -205 -129 -322.5t-380 -126.5v-352h-62v352q-252 8 -381 127t-129 322z" />
<glyph unicode="&#x3c9;" horiz-adv-x="1576" d="M123 496q0 80 10 156.5t32.5 144t58.5 123t87 94.5l39 -47q-49 -41 -79.5 -93.5t-48 -113t-25 -128t-7.5 -136.5q0 -90 18.5 -174t55.5 -148.5t90.5 -103.5t120.5 -39q70 0 122 39t88 103.5t54.5 148.5t18.5 174v254h61v-254q0 -90 18.5 -174t54.5 -148.5t88 -103.5 t122 -39q68 0 121 39t90 103.5t55 148.5t18 174q0 70 -7 137t-24.5 127.5t-48 113t-79.5 93.5l39 47q51 -39 87 -94.5t58.5 -123t32.5 -144t10 -156.5q0 -109 -24.5 -204t-70.5 -166t-109.5 -111t-143.5 -40q-74 0 -128 31t-93 78t-62.5 103.5t-34.5 105.5 q-10 -49 -33.5 -105.5t-62.5 -103.5t-93 -78t-128 -31q-80 0 -143.5 40t-109.5 111t-70.5 166t-24.5 204z" />
<glyph unicode="&#x3ca;" horiz-adv-x="442" d="M-41 1225q0 23 17.5 40t39.5 17q23 0 40.5 -17t17.5 -40t-17.5 -40.5t-40.5 -17.5t-40 17.5t-17 40.5zM176 174v815h62v-815q0 -63 25.5 -103t80.5 -40q25 0 41 4l6 -55q-10 -2 -21.5 -3.5t-25.5 -1.5q-86 0 -127 53.5t-41 145.5zM373 1225q0 23 17 40t40 17t40 -17 t17 -40t-17.5 -40.5t-39.5 -17.5q-23 0 -40 17.5t-17 40.5z" />
<glyph unicode="&#x3cb;" horiz-adv-x="1124" d="M176 424v565h62v-565q0 -184 77.5 -288.5t225.5 -104.5q94 0 167.5 39t124 103.5t76 148.5t25.5 174q0 141 -41 261t-133 216l49 41q90 -102 141 -232.5t51 -285.5q0 -109 -32.5 -204t-92 -166t-145.5 -111t-190 -40q-180 0 -272.5 120t-92.5 329zM297 1225q0 23 17.5 40 t39.5 17q23 0 40.5 -17t17.5 -40t-17.5 -40.5t-40.5 -17.5t-40 17.5t-17 40.5zM711 1225q0 23 17 40t40 17t40 -17t17 -40t-17.5 -40.5t-39.5 -17.5q-23 0 -40 17.5t-17 40.5z" />
<glyph unicode="&#x3cc;" horiz-adv-x="1167" d="M123 496q0 109 32.5 204t93 164.5t145.5 109.5t190 40q104 0 190 -40t145.5 -109.5t92 -165t32.5 -203.5q0 -109 -32.5 -204t-92 -166t-145.5 -111t-190 -40t-189.5 40t-146 111t-93 166t-32.5 204zM190 496q0 -90 26 -174t76 -148.5t124 -103.5t168 -39t167.5 39 t124 103.5t76 148.5t25.5 174t-25.5 173t-76 147.5t-124 103t-167.5 38.5t-168 -38.5t-124 -103t-76 -147.5t-26 -173zM542 1178l35 389h107l-97 -389h-45z" />
<glyph unicode="&#x3cd;" horiz-adv-x="1124" d="M176 424v565h62v-565q0 -184 77.5 -288.5t225.5 -104.5q94 0 167.5 39t124 103.5t76 148.5t25.5 174q0 141 -41 261t-133 216l49 41q90 -102 141 -232.5t51 -285.5q0 -109 -32.5 -204t-92 -166t-145.5 -111t-190 -40q-180 0 -272.5 120t-92.5 329zM522 1178l35 389h107 l-97 -389h-45z" />
<glyph unicode="&#x3ce;" horiz-adv-x="1576" d="M123 496q0 80 10 156.5t32.5 144t58.5 123t87 94.5l39 -47q-49 -41 -79.5 -93.5t-48 -113t-25 -128t-7.5 -136.5q0 -90 18.5 -174t55.5 -148.5t90.5 -103.5t120.5 -39q70 0 122 39t88 103.5t54.5 148.5t18.5 174v254h61v-254q0 -90 18.5 -174t54.5 -148.5t88 -103.5 t122 -39q68 0 121 39t90 103.5t55 148.5t18 174q0 70 -7 137t-24.5 127.5t-48 113t-79.5 93.5l39 47q51 -39 87 -94.5t58.5 -123t32.5 -144t10 -156.5q0 -109 -24.5 -204t-70.5 -166t-109.5 -111t-143.5 -40q-74 0 -128 31t-93 78t-62.5 103.5t-34.5 105.5 q-10 -49 -33.5 -105.5t-62.5 -103.5t-93 -78t-128 -31q-80 0 -143.5 40t-109.5 111t-70.5 166t-24.5 204zM747 1178l35 389h107l-97 -389h-45z" />
<glyph unicode="&#x401;" horiz-adv-x="1142" d="M180 0v1366h836v-61h-770v-572h755v-61h-755v-611h770v-61h-836zM336 1567q0 23 17.5 40t39.5 17q23 0 40.5 -17t17.5 -40t-17.5 -40.5t-40.5 -17.5t-40 17.5t-17 40.5zM750 1567q0 23 17 40t40 17t40 -17t17 -40t-17.5 -40.5t-39.5 -17.5q-23 0 -40 17.5t-17 40.5z" />
<glyph unicode="&#x402;" horiz-adv-x="1591" d="M78 1305v61h989v-61h-463v-435q78 16 160 28.5t199 12.5q225 0 336.5 -124.5t111.5 -348.5v-10q0 -119 -31.5 -205t-86 -141t-125 -81t-150.5 -26v62q154 0 241 102.5t87 288.5v10q0 207 -98.5 309.5t-284.5 102.5q-92 0 -186.5 -11.5t-172.5 -29.5v-809h-65v1305h-461z " />
<glyph unicode="&#x403;" horiz-adv-x="1091" d="M180 0v1366h836v-61h-770v-1305h-66zM494 1481l328 295h92l-359 -295h-61z" />
<glyph unicode="&#x404;" horiz-adv-x="1366" d="M133 682q0 158 53.5 288t145.5 223t217 144.5t266 51.5q145 0 264 -55.5t211 -159.5l-51 -46q-72 92 -183.5 145.5t-240.5 53.5q-123 0 -230.5 -43t-188.5 -121t-131 -187.5t-58 -242.5h780v-61h-782q2 -141 49 -258t130 -201t193.5 -130t237.5 -46q129 0 240.5 53 t183.5 146l53 -43q-192 -218 -477 -218q-141 0 -266 51.5t-217 144.5t-145.5 223t-53.5 288z" />
<glyph unicode="&#x405;" horiz-adv-x="1177" d="M109 193l53 47q31 -39 74 -75t96 -64.5t116.5 -46t137.5 -17.5q119 0 194.5 29.5t120.5 75.5t62.5 100.5t17.5 103.5q0 113 -61.5 175.5t-153.5 101.5t-199.5 64.5t-200 65.5t-153.5 105.5t-61 181.5q0 82 34.5 147.5t94 109.5t137.5 68t162 24q152 0 261 -51.5 t181 -141.5l-51 -47q-72 94 -172.5 136t-218.5 42q-74 0 -139.5 -21.5t-113.5 -59.5t-76 -90t-28 -116q0 -74 36 -121t94.5 -79.5t133 -55t151.5 -46t151.5 -51.5t133 -72t94.5 -108.5t36 -160.5q0 -57 -21.5 -122.5t-74 -121t-143.5 -91.5t-228 -36q-160 0 -282 61.5 t-195 156.5z" />
<glyph unicode="&#x406;" horiz-adv-x="425" d="M180 0v1366h66v-1366h-66z" />
<glyph unicode="&#x407;" horiz-adv-x="425" d="M-49 1567q0 23 17.5 40t39.5 17q23 0 40.5 -17t17.5 -40t-17.5 -40.5t-40.5 -17.5t-40 17.5t-17 40.5zM180 0v1366h66v-1366h-66zM365 1567q0 23 17 40t40 17t40 -17t17 -40t-17.5 -40.5t-39.5 -17.5q-23 0 -40 17.5t-17 40.5z" />
<glyph unicode="&#x408;" horiz-adv-x="952" d="M33 154l55 49q47 -68 116.5 -117t174.5 -49q154 0 241 95t87 247v987h65v-987q0 -102 -31.5 -178t-86 -126t-125 -75t-150.5 -25q-113 0 -197 43t-149 136z" />
<glyph unicode="&#x409;" horiz-adv-x="2134" d="M78 -25v62q70 0 127 26.5t103 100.5t82 204t65 337l90 661h698v-592h408q94 0 167.5 -30.5t125 -84t79 -124t27.5 -148.5t-26.5 -148.5t-78 -124t-126 -84t-168.5 -30.5h-473v1305h-576l-82 -609q-33 -236 -76 -377t-98 -217.5t-121.5 -101.5t-146.5 -25zM1243 61h406 q76 0 136 25t103 68t66.5 102t23.5 131q0 70 -23.5 130.5t-66.5 103.5t-103.5 67.5t-135.5 24.5h-406v-652z" />
<glyph unicode="&#x40a;" horiz-adv-x="2134" d="M180 0v1366h66v-633h932v633h65v-633h428q88 0 159 -29.5t120 -80t74.5 -117t25.5 -139.5q0 -74 -25.5 -140.5t-73.5 -117t-119 -80t-161 -29.5h-493v672h-932v-672h-66zM1243 61h428q141 0 224 86t83 220q0 133 -83 219t-224 86h-428v-611z" />
<glyph unicode="&#x40b;" horiz-adv-x="1591" d="M78 1305v61h989v-61h-463v-435q78 16 160 28.5t199 12.5q113 0 196.5 -31.5t140 -89t84 -136.5t27.5 -173v-481h-65v483q0 174 -98.5 270.5t-284.5 96.5q-92 0 -186.5 -11.5t-172.5 -29.5v-809h-65v1305h-461z" />
<glyph unicode="&#x40c;" horiz-adv-x="1169" d="M180 0v1366h66v-788l710 788h88l-593 -653l655 -713h-88l-608 672l-164 -178v-494h-66zM489 1481l328 295h92l-359 -295h-61z" />
<glyph unicode="&#x40e;" horiz-adv-x="1249" d="M33 106l53 44q35 -49 81 -81t114 -32q39 0 67.5 11t55 37t53 67t59.5 100l70 129l-543 985h76l506 -917l505 917h76l-633 -1145q-66 -121 -129 -183.5t-163 -62.5q-160 0 -248 131zM266 1636l43 39q53 -76 135 -120t182 -44t182.5 44t135.5 120l41 -39 q-61 -84 -154.5 -132t-204.5 -48t-204 48t-156 132z" />
<glyph unicode="&#x40f;" horiz-adv-x="1423" d="M180 0v1366h66v-1305h932v1305h65v-1366h-498v-258h-65v258h-500z" />
<glyph unicode="&#x410;" horiz-adv-x="1302" d="M43 0l569 1366h78l570 -1366h-76l-152 367h-762l-151 -367h-76zM295 428h713l-357 862z" />
<glyph unicode="&#x411;" horiz-adv-x="1136" d="M180 0v1366h815v-61h-749v-531h407q94 0 168 -30.5t125 -84t79 -124t28 -148.5t-27 -148.5t-78 -124t-125.5 -84t-169.5 -30.5h-473zM246 61h405q76 0 136.5 25t103.5 68t66.5 102t23.5 131q0 70 -23.5 130.5t-66.5 103.5t-103.5 67.5t-136.5 24.5h-405v-652z" />
<glyph unicode="&#x412;" horiz-adv-x="1228" d="M180 0v1366h514q82 0 150.5 -22.5t118 -66.5t77 -109.5t27.5 -149.5q0 -66 -20.5 -119t-54.5 -93t-78 -66.5t-89 -34.5q55 -8 103.5 -40t85.5 -78t58.5 -102.5t21.5 -115.5q0 -176 -105.5 -272.5t-286.5 -96.5h-522zM246 61h456q152 0 236 82t84 224q0 57 -20.5 112.5 t-60.5 98.5t-99.5 68.5t-139.5 25.5h-456v-611zM246 733h448q76 0 132.5 22.5t94 60.5t56 90t18.5 112q0 57 -18.5 109.5t-56 92.5t-94 62.5t-132.5 22.5h-448v-572z" />
<glyph unicode="&#x413;" horiz-adv-x="1091" d="M180 0v1366h836v-61h-770v-1305h-66z" />
<glyph unicode="&#x414;" horiz-adv-x="1454" d="M78 61q70 0 127 22.5t103 92.5t82 196t65 333l90 661h698v-1305h121v-313h-66v252h-1155v-252h-65v313zM266 61h912v1244h-576l-82 -609q-20 -152 -45.5 -260t-57.5 -183t-70 -121t-81 -71z" />
<glyph unicode="&#x415;" horiz-adv-x="1142" d="M180 0v1366h836v-61h-770v-572h755v-61h-755v-611h770v-61h-836z" />
<glyph unicode="&#x416;" horiz-adv-x="1789" d="M63 0l656 713l-594 653h88l649 -721v721h66v-721l649 721h88l-594 -653l655 -713h-88l-608 672l-102 -113v-559h-66v559l-102 113l-608 -672h-89z" />
<glyph unicode="&#x417;" horiz-adv-x="1150" d="M74 205l57 35q55 -86 160.5 -144.5t259.5 -58.5q184 0 288.5 86t104.5 239q0 84 -31.5 143.5t-85 97.5t-124 55.5t-148.5 17.5h-287v61h287q72 0 138.5 16.5t117.5 52.5t82 91t31 133q0 70 -30 125t-80 93t-117.5 57.5t-141.5 19.5q-133 0 -225 -46t-174 -138l-52 41 q72 86 185.5 145t265.5 59q84 0 164 -23.5t141.5 -68.5t98 -111.5t36.5 -152.5q0 -84 -30.5 -141.5t-74.5 -96t-95.5 -59t-89.5 -26.5q43 -4 96 -26t101 -62.5t81 -104t33 -152.5q0 -84 -31 -154.5t-91 -121.5t-147 -81t-198 -30q-174 0 -295 69t-180 161z" />
<glyph unicode="&#x418;" horiz-adv-x="1413" d="M180 0v1366h66v-1247l921 1247h66v-1366h-66v1260l-921 -1260h-66z" />
<glyph unicode="&#x419;" horiz-adv-x="1413" d="M180 0v1366h66v-1247l921 1247h66v-1366h-66v1260l-921 -1260h-66zM346 1636l43 39q53 -76 135 -120t182 -44t182.5 44t135.5 120l41 -39q-61 -84 -154.5 -132t-204.5 -48t-204 48t-156 132z" />
<glyph unicode="&#x41a;" horiz-adv-x="1169" d="M180 0v1366h66v-788l710 788h88l-593 -653l655 -713h-88l-608 672l-164 -178v-494h-66z" />
<glyph unicode="&#x41b;" horiz-adv-x="1423" d="M78 -25v62q70 0 127 26.5t103 100.5t82 204t65 337l90 661h698v-1366h-65v1305h-576l-82 -609q-33 -236 -76 -377t-98 -217.5t-121.5 -101.5t-146.5 -25z" />
<glyph unicode="&#x41c;" horiz-adv-x="1576" d="M180 0v1366h105l503 -1223l504 1223h105v-1366h-66v1288l-532 -1288h-21l-532 1288v-1288h-66z" />
<glyph unicode="&#x41d;" horiz-adv-x="1423" d="M180 0v1366h66v-633h932v633h65v-1366h-65v672h-932v-672h-66z" />
<glyph unicode="&#x41e;" horiz-adv-x="1564" d="M133 682q0 147 45 276t130 224.5t205 151t269 55.5q147 0 268 -55.5t205 -151t130.5 -224.5t46.5 -276t-46.5 -276.5t-130.5 -224.5t-205 -150.5t-268 -55.5q-150 0 -269.5 55.5t-204.5 150.5t-130 224.5t-45 276.5zM205 682q0 -139 40 -257t115.5 -204t182 -135 t239.5 -49q131 0 237.5 49t182.5 135t117 204t41 257q0 141 -41 259t-117 204t-182.5 134t-237.5 48q-133 0 -239.5 -48t-182 -134t-115.5 -204t-40 -259z" />
<glyph unicode="&#x41f;" horiz-adv-x="1423" d="M180 0v1366h1063v-1366h-65v1305h-932v-1305h-66z" />
<glyph unicode="&#x420;" horiz-adv-x="1136" d="M180 0v1366h473q94 0 169 -30.5t126 -84t78 -124t27 -148.5t-28 -148.5t-79 -124t-124.5 -84t-168.5 -30.5h-407v-592h-66zM246 653h405q76 0 136.5 24.5t103.5 67.5t66.5 102.5t23.5 131.5q0 70 -23.5 130t-66.5 103t-103.5 68t-136.5 25h-405v-652z" />
<glyph unicode="&#x421;" horiz-adv-x="1366" d="M133 682q0 158 53.5 288t145.5 223t217 144.5t266 51.5q145 0 264 -55.5t211 -159.5l-51 -46q-72 92 -183.5 145.5t-240.5 53.5t-239.5 -47t-193.5 -131t-130 -204t-47 -263t47 -262t130 -204t193.5 -132t239.5 -47t240.5 53t183.5 146l53 -43q-192 -218 -477 -218 q-141 0 -266 51.5t-217 144.5t-145.5 223t-53.5 288z" />
<glyph unicode="&#x422;" horiz-adv-x="1144" d="M78 1305v61h989v-61h-463v-1305h-65v1305h-461z" />
<glyph unicode="&#x423;" horiz-adv-x="1249" d="M33 106l53 44q35 -49 81 -81t114 -32q39 0 67.5 11t55 37t53 67t59.5 100l70 129l-543 985h76l506 -917l505 917h76l-633 -1145q-66 -121 -129 -183.5t-163 -62.5q-160 0 -248 131z" />
<glyph unicode="&#x424;" horiz-adv-x="1564" d="M133 682q0 113 43 211t123 172t194.5 118t256.5 50v133h65v-133q141 -6 255 -50t195 -118t124 -172t43 -211t-43 -211t-124 -172t-195 -119t-255 -49v-131h-65v131q-141 4 -256 49t-195 119t-123 172t-43 211zM205 682q0 -102 38 -190.5t108.5 -153t171 -103t227.5 -42.5 v978q-127 -4 -227.5 -42.5t-171 -103t-108.5 -153t-38 -190.5zM815 193q125 4 225.5 42.5t171 103t109.5 153t39 190.5t-39 190.5t-109.5 153t-171 103t-225.5 42.5v-978z" />
<glyph unicode="&#x425;" horiz-adv-x="1306" d="M51 0l565 700l-534 666h88l483 -612l484 612h88l-535 -664l565 -702h-86l-516 651l-516 -651h-86z" />
<glyph unicode="&#x426;" horiz-adv-x="1454" d="M180 0v1366h66v-1305h932v1305h65v-1305h121v-313h-66v252h-1118z" />
<glyph unicode="&#x427;" horiz-adv-x="1187" d="M135 1022v344h66v-346q0 -174 98 -270.5t285 -96.5q92 0 186 11.5t172 29.5v672h66v-1366h-66v633q-78 -16 -160 -28.5t-198 -12.5q-113 0 -197 31.5t-140.5 89t-84 136.5t-27.5 173z" />
<glyph unicode="&#x428;" horiz-adv-x="1978" d="M180 0v1366h66v-1305h710v1305h66v-1305h711v1305h65v-1366h-1618z" />
<glyph unicode="&#x429;" horiz-adv-x="2035" d="M207 0v1366h65v-1305h711v1305h66v-1305h710v1305h66v-1305h121v-313h-66v252h-1673z" />
<glyph unicode="&#x42a;" horiz-adv-x="1495" d="M78 1305v61h526v-592h408q94 0 167.5 -30.5t125 -84t79 -124t27.5 -148.5t-26.5 -148.5t-78 -124t-126 -84t-168.5 -30.5h-473v1305h-461zM604 61h406q76 0 136 25t103 68t66.5 102t23.5 131q0 70 -23.5 130.5t-66.5 103.5t-103.5 67.5t-135.5 24.5h-406v-652z" />
<glyph unicode="&#x42b;" horiz-adv-x="1476" d="M180 0v1366h66v-592h407q94 0 168 -30.5t125 -84t79 -124t28 -148.5t-27 -148.5t-78 -124t-125.5 -84t-169.5 -30.5h-473zM246 61h405q76 0 136.5 25t103.5 68t66.5 102t23.5 131q0 70 -23.5 130.5t-66.5 103.5t-103.5 67.5t-136.5 24.5h-405v-652zM1231 0v1366h65v-1366 h-65z" />
<glyph unicode="&#x42c;" horiz-adv-x="1136" d="M180 0v1366h66v-592h407q94 0 168 -30.5t125 -84t79 -124t28 -148.5t-27 -148.5t-78 -124t-125.5 -84t-169.5 -30.5h-473zM246 61h405q76 0 136.5 25t103.5 68t66.5 102t23.5 131q0 70 -23.5 130.5t-66.5 103.5t-103.5 67.5t-136.5 24.5h-405v-652z" />
<glyph unicode="&#x42d;" horiz-adv-x="1366" d="M74 193l53 43q72 -92 183.5 -145.5t240.5 -53.5q127 0 237.5 46t192.5 130t130 200.5t50 258.5h-782v61h780q-8 133 -58 242.5t-132 187.5t-188.5 121t-229.5 43q-129 0 -240.5 -53t-183.5 -146l-51 46q92 104 211 159.5t264 55.5q141 0 266 -51.5t217 -144.5t145.5 -223 t53.5 -288t-53.5 -288t-145.5 -223t-217 -144.5t-266 -51.5q-285 0 -477 218z" />
<glyph unicode="&#x42e;" horiz-adv-x="1959" d="M180 0v1366h66v-633h282q8 139 56.5 259t133.5 208t200.5 138.5t259.5 50.5q147 0 268 -55.5t205 -151t130 -224.5t46 -276t-46 -276.5t-130 -224.5t-205 -150.5t-268 -55.5t-267 54.5t-204 147.5t-130.5 220t-48.5 275h-282v-672h-66zM600 682q0 -139 40 -257 t115.5 -204t182.5 -135t240 -49q131 0 237.5 49t182 135t116.5 204t41 257q0 141 -41 259t-116.5 204t-182 134t-237.5 48q-133 0 -240 -48t-182.5 -134t-115.5 -204t-40 -259z" />
<glyph unicode="&#x42f;" horiz-adv-x="1185" d="M113 0l422 590q-84 0 -157 25.5t-128 74.5t-87 122t-32 167t32 166t87 121t128 74.5t157 25.5h471v-1366h-66v590h-328l-415 -590h-84zM203 979q0 -72 23.5 -131.5t66.5 -103.5t104.5 -68.5t137.5 -24.5h405v654h-405q-76 0 -137.5 -25t-104.5 -68t-66.5 -103t-23.5 -130 z" />
<glyph unicode="&#x430;" horiz-adv-x="1052" d="M127 305q0 80 29.5 141.5t78 103.5t111 63.5t127.5 21.5q104 0 188 -35t154 -111v224q0 59 -22.5 105t-60.5 77t-88 47t-107 16q-98 0 -173 -35.5t-145 -119.5l-47 41q72 86 156 128t209 42q74 0 135 -18.5t107 -55.5t72 -93t26 -132v-715h-62v121q-70 -76 -153.5 -111 t-188.5 -35q-66 0 -128 21.5t-110.5 63.5t-78 103.5t-29.5 141.5zM195 305q0 -57 20.5 -107.5t59 -87t92.5 -58t122 -21.5q98 0 183.5 37.5t142.5 113.5v246q-57 76 -142 114t-184 38q-68 0 -122 -21.5t-92.5 -58.5t-59 -87.5t-20.5 -107.5z" />
<glyph unicode="&#x431;" horiz-adv-x="1181" d="M123 541q0 180 33.5 307t102.5 210t171 129t238 64q86 14 142 27.5t90 28t47.5 29t13.5 30.5h55q0 -43 -29 -71.5t-76 -48t-108.5 -32t-124.5 -22.5q-141 -25 -229.5 -63.5t-140.5 -94t-77.5 -127t-44.5 -162.5q23 45 56.5 93.5t82 87.5t113 63.5t148.5 24.5 q104 0 189 -40t144.5 -109.5t92 -164t32.5 -202.5q0 -111 -32.5 -206t-92 -166t-145.5 -111t-190 -40t-189.5 41t-146 116t-93 178.5t-32.5 230.5zM190 496q0 -90 26 -174t76 -148.5t124 -103.5t168 -39t167.5 39t124 103.5t76 148.5t25.5 174t-25.5 173t-76 147.5t-124 103 t-167.5 38.5t-168 -38.5t-124 -103t-76 -147.5t-26 -173z" />
<glyph unicode="&#x432;" horiz-adv-x="1079" d="M176 0v989h473q115 0 186.5 -65.5t71.5 -188.5q0 -90 -47 -148.5t-106 -76.5q35 -10 66.5 -33.5t55 -56.5t37 -72t13.5 -80q0 -129 -74 -198.5t-199 -69.5h-477zM238 55h405q102 0 158.5 56.5t56.5 154.5q0 41 -13.5 80t-40 69.5t-67.5 49t-94 18.5h-405v-428zM238 539 h401q100 0 151.5 56t51.5 140q0 92 -52.5 145.5t-150.5 53.5h-401v-395z" />
<glyph unicode="&#x433;" horiz-adv-x="845" d="M176 0v989h606v-55h-544v-934h-62z" />
<glyph unicode="&#x434;" horiz-adv-x="1116" d="M37 49q39 4 71.5 25.5t61.5 72t51.5 133t40.5 212.5l68 497h575v-934h123v-307h-61v252h-869v-252h-61v301zM160 55h684v879h-459l-63 -451q-29 -197 -67 -294t-95 -134z" />
<glyph unicode="&#x435;" horiz-adv-x="1169" d="M123 496q0 106 35 201.5t97 165t147 110.5t186 41q113 0 198.5 -42t144 -114t87.5 -166t29 -196v-21h-854q2 -90 31.5 -171t83.5 -141.5t130 -96t170 -35.5q205 0 344 149l37 -39q-76 -78 -166 -122t-215 -44q-109 0 -197.5 39t-152 109t-99.5 165t-36 208zM193 530h788 q0 72 -23.5 148t-72.5 138.5t-124 102t-175 39.5q-96 0 -168 -39.5t-121 -101t-75.5 -137.5t-28.5 -150z" />
<glyph unicode="&#x436;" horiz-adv-x="1392" d="M45 989h88l533 -497v497h61v-497l533 497h88l-482 -446l475 -543h-88l-434 498l-92 -84v-414h-61v414l-93 84l-434 -498h-88l475 543z" />
<glyph unicode="&#x437;" horiz-adv-x="1071" d="M82 141l37 39q139 -150 397 -149q80 0 146.5 16t115.5 46t76 72t27 95q0 61 -32 102t-85 67t-124 36t-146 10h-238v55h238q70 0 136 13.5t118.5 41t83 68.5t30.5 99q0 47 -28.5 84.5t-77.5 65.5t-117 42t-143 14q-223 0 -353 -137l-41 37q68 70 163 113t231 43 q86 0 164.5 -17.5t138 -50.5t94.5 -82t35 -112q0 -61 -29 -106.5t-70 -75t-89 -46t-87 -20.5q41 -4 92.5 -17.5t96.5 -43t75.5 -74.5t30.5 -109q0 -61 -28.5 -112.5t-84 -90.5t-135.5 -60.5t-184 -21.5q-147 0 -252.5 44t-181.5 122z" />
<glyph unicode="&#x438;" d="M176 0v989h62v-891l610 891h57v-989h-61v899l-611 -899h-57z" />
<glyph unicode="&#x439;" d="M176 0v989h62v-891l610 891h57v-989h-61v899l-611 -899h-57zM180 1294l43 39q53 -76 135 -120t182 -44t182.5 44t135.5 120l41 -39q-61 -84 -154.5 -132t-204.5 -48t-204 48t-156 132z" />
<glyph unicode="&#x43a;" horiz-adv-x="1015" d="M176 0v989h62v-602l645 602h88l-482 -446l476 -543h-88l-435 498l-204 -189v-309h-62z" />
<glyph unicode="&#x43b;" d="M37 -25v56q39 0 71.5 23.5t61.5 77.5t51.5 142t40.5 218l68 497h575v-989h-61v934h-459l-63 -451q-20 -143 -46 -240.5t-61 -156.5t-79 -85t-99 -26z" />
<glyph unicode="&#x43c;" horiz-adv-x="1212" d="M176 0v989h86l344 -872l342 872h88v-989h-61v909l-359 -909h-18l-360 909v-909h-62z" />
<glyph unicode="&#x43d;" d="M176 0v989h62v-446h606v446h61v-989h-61v487h-606v-487h-62z" />
<glyph unicode="&#x43e;" horiz-adv-x="1167" d="M123 496q0 109 32.5 204t93 164.5t145.5 109.5t190 40q104 0 190 -40t145.5 -109.5t92 -165t32.5 -203.5q0 -109 -32.5 -204t-92 -166t-145.5 -111t-190 -40t-189.5 40t-146 111t-93 166t-32.5 204zM190 496q0 -90 26 -174t76 -148.5t124 -103.5t168 -39t167.5 39 t124 103.5t76 148.5t25.5 174t-25.5 173t-76 147.5t-124 103t-167.5 38.5t-168 -38.5t-124 -103t-76 -147.5t-26 -173z" />
<glyph unicode="&#x43f;" d="M176 0v989h729v-989h-61v934h-606v-934h-62z" />
<glyph unicode="&#x440;" horiz-adv-x="1150" d="M176 -377v1366h62v-166q25 39 61.5 73t82.5 60.5t99.5 42t112.5 15.5q100 0 181 -37t139.5 -104.5t90 -164t31.5 -212.5q0 -117 -31.5 -213.5t-90 -164t-139.5 -105.5t-181 -38q-111 0 -204 53.5t-152 141.5v-547h-62zM238 231q23 -39 59.5 -75.5t83.5 -64.5t101.5 -44 t111.5 -16q90 0 159.5 35.5t118 99t73 147.5t24.5 183q0 98 -24.5 182t-73 146.5t-118 98t-159.5 35.5q-57 0 -111.5 -16t-101.5 -43t-84 -62.5t-59 -74.5v-531z" />
<glyph unicode="&#x441;" horiz-adv-x="1009" d="M123 496q0 106 32.5 200.5t93 165t146.5 111.5t195 41q121 0 197.5 -44t140.5 -122l-45 -37q-59 82 -131 114.5t-158 32.5q-96 0 -171 -35.5t-126 -98t-79 -147.5t-28 -181t28 -181.5t79 -149t126 -99t171 -35.5q86 0 157.5 33.5t131.5 115.5l45 -39q-63 -78 -140 -122 t-198 -44q-109 0 -195 41t-146.5 112t-93 166t-32.5 202z" />
<glyph unicode="&#x442;" horiz-adv-x="776" d="M63 934v55h650v-55h-295v-934h-62v934h-293z" />
<glyph unicode="&#x443;" horiz-adv-x="964" d="M23 989h71l389 -917l387 917h72l-524 -1222q-35 -80 -89.5 -124t-127.5 -44q-27 0 -53.5 4t-45.5 10l13 57q16 -8 41.5 -12t44.5 -4q49 0 85 27.5t70 107.5l90 205z" />
<glyph unicode="&#x444;" horiz-adv-x="1527" d="M123 494q0 117 24.5 213t68.5 163.5t106.5 105.5t138.5 38q86 0 155.5 -53.5t116.5 -141.5v547h62v-543q39 78 110.5 134.5t161.5 56.5q76 0 138.5 -37t106.5 -104.5t68.5 -164t24.5 -212.5q0 -117 -24.5 -213.5t-68.5 -164t-106.5 -105.5t-138.5 -38q-86 0 -155.5 53.5 t-116.5 141.5v-547h-62v543q-39 -78 -110.5 -134.5t-161.5 -56.5q-76 0 -138.5 37t-106.5 104.5t-68.5 164t-24.5 213.5zM184 494q0 -98 18.5 -182.5t53.5 -147t88 -98t121 -35.5q43 0 84 16t75.5 43t62.5 62.5t46 74.5v531q-18 39 -46 75.5t-62.5 64.5t-75.5 44t-84 16 q-68 0 -121 -35.5t-88 -99t-53.5 -147.5t-18.5 -182zM795 231q18 -39 45.5 -75.5t62.5 -64.5t76 -44t84 -16q68 0 121 35.5t88 99t53 147.5t18 183q0 98 -18 182t-53 146.5t-88.5 98t-120.5 35.5q-43 0 -84 -16t-76 -43t-62.5 -62.5t-45.5 -74.5v-531z" />
<glyph unicode="&#x445;" horiz-adv-x="966" d="M45 0l404 508l-381 481h79l336 -438l336 438h80l-381 -481l404 -508h-80l-359 467l-358 -467h-80z" />
<glyph unicode="&#x446;" horiz-adv-x="1116" d="M176 0v989h62v-934h606v934h61v-934h123v-307h-61v252h-791z" />
<glyph unicode="&#x447;" d="M176 692v297h62v-297q0 -86 18 -142t54 -89t88.5 -45.5t117.5 -12.5q43 0 89 6.5t91 17.5t83 25.5t65 30.5v506h61v-989h-61v432q-31 -16 -72 -31.5t-84 -27t-88 -18.5t-84 -7q-86 0 -149.5 17.5t-105.5 57.5t-63.5 106.5t-21.5 162.5z" />
<glyph unicode="&#x448;" horiz-adv-x="1579" d="M176 0v989h62v-934h520v934h61v-934h522v934h62v-989h-1227z" />
<glyph unicode="&#x449;" horiz-adv-x="1613" d="M176 0v989h62v-934h520v934h61v-934h522v934h62v-934h123v-307h-62v252h-1288z" />
<glyph unicode="&#x44a;" horiz-adv-x="1196" d="M63 934v55h355v-422h399q70 0 124 -22.5t91 -61.5t55.5 -91t18.5 -109t-18.5 -108.5t-55.5 -90.5t-91 -61.5t-124 -22.5h-461v934h-293zM418 55h399q111 0 167 63.5t56 164.5q0 100 -54 164.5t-169 64.5h-399v-457z" />
<glyph unicode="&#x44b;" horiz-adv-x="1341" d="M176 0v989h62v-422h399q70 0 124 -22.5t91 -61.5t55.5 -91t18.5 -109t-18.5 -108.5t-55.5 -90.5t-91 -61.5t-124 -22.5h-461zM238 55h399q111 0 167 63.5t56 164.5q0 100 -54 164.5t-169 64.5h-399v-457zM1104 0v989h61v-989h-61z" />
<glyph unicode="&#x44c;" horiz-adv-x="1015" d="M176 0v989h62v-422h399q70 0 124 -22.5t91 -61.5t55.5 -91t18.5 -109t-18.5 -108.5t-55.5 -90.5t-91 -61.5t-124 -22.5h-461zM238 55h399q111 0 167 63.5t56 164.5q0 100 -54 164.5t-169 64.5h-399v-457z" />
<glyph unicode="&#x44d;" horiz-adv-x="1009" d="M82 141l45 39q59 -82 131 -115.5t158 -33.5q92 0 165.5 33.5t125 94t80 141.5t32.5 175h-571v57h569q-4 90 -33.5 168t-81 135.5t-124 90t-162.5 32.5q-86 0 -158 -32.5t-131 -114.5l-45 37q63 78 140 122t198 44q106 0 193 -41t147.5 -111.5t93.5 -165t33 -200.5 t-33 -201.5t-93.5 -166.5t-147.5 -112t-193 -41q-121 0 -198 44t-140 122z" />
<glyph unicode="&#x44e;" horiz-adv-x="1501" d="M176 0v989h62v-446h219q6 100 42 186t96 149.5t142 99.5t181 36q104 0 190 -40t145.5 -109.5t92 -165t32.5 -203.5q0 -109 -32.5 -204t-92 -166t-145.5 -111t-190 -40t-188.5 40t-145 109t-94 162t-33.5 201h-219v-487h-62zM524 496q0 -90 25.5 -174t76 -148.5 t124.5 -103.5t168 -39t167.5 39t124 103.5t76 148.5t25.5 174t-25.5 173t-76 147.5t-124 103t-167.5 38.5t-168 -38.5t-124.5 -103t-76 -147.5t-25.5 -173z" />
<glyph unicode="&#x44f;" horiz-adv-x="1079" d="M147 0l291 422q-131 2 -207.5 82t-76.5 203q0 61 20.5 112t57 89t91 59.5t121.5 21.5h459v-989h-61v422h-334l-283 -422h-78zM219 707q0 -102 55.5 -166t169.5 -64h398v457h-398q-111 0 -168 -62.5t-57 -164.5z" />
<glyph unicode="&#x451;" horiz-adv-x="1169" d="M123 496q0 106 35 201.5t97 165t147 110.5t186 41q113 0 198.5 -42t144 -114t87.5 -166t29 -196v-21h-854q2 -90 31.5 -171t83.5 -141.5t130 -96t170 -35.5q205 0 344 149l37 -39q-76 -78 -166 -122t-215 -44q-109 0 -197.5 39t-152 109t-99.5 165t-36 208zM193 530h788 q0 72 -23.5 148t-72.5 138.5t-124 102t-175 39.5q-96 0 -168 -39.5t-121 -101t-75.5 -137.5t-28.5 -150zM324 1225q0 23 17.5 40t39.5 17q23 0 40.5 -17t17.5 -40t-17.5 -40.5t-40.5 -17.5t-40 17.5t-17 40.5zM738 1225q0 23 17 40t40 17t40 -17t17 -40t-17.5 -40.5 t-39.5 -17.5q-23 0 -40 17.5t-17 40.5z" />
<glyph unicode="&#x452;" d="M20 1108v55h156v203h62v-203h340v-55h-340v-274q27 33 67.5 65.5t87.5 58t99.5 41t103.5 15.5q147 0 228 -72t81 -248v-850q0 -129 -65.5 -187t-177.5 -58q-59 0 -103.5 19.5t-85.5 57.5l39 52q25 -29 63.5 -51.5t86.5 -22.5q78 0 130 44t52 146v850q0 78 -18.5 129 t-52.5 81t-81 42t-104 12q-51 0 -102.5 -15t-97.5 -40.5t-85 -59.5t-65 -71v-772h-62v1108h-156z" />
<glyph unicode="&#x453;" horiz-adv-x="845" d="M176 0v989h606v-55h-544v-934h-62zM375 1139l328 295h92l-359 -295h-61z" />
<glyph unicode="&#x454;" horiz-adv-x="1009" d="M123 496q0 106 32.5 200.5t93 165t146.5 111.5t195 41q121 0 197.5 -44t140.5 -122l-45 -37q-59 82 -131 114.5t-158 32.5q-90 0 -163 -32.5t-124 -90t-80.5 -135t-36.5 -168.5h572v-57h-572q2 -94 31 -175t81 -141.5t126 -94t166 -33.5q86 0 157.5 33.5t131.5 115.5 l45 -39q-63 -78 -140 -122t-198 -44q-109 0 -195 41t-146.5 112t-93 166t-32.5 202z" />
<glyph unicode="&#x455;" horiz-adv-x="929" d="M90 133l49 45q47 -61 125 -104t189 -43q137 0 214.5 65.5t77.5 163.5q0 76 -47 118t-117.5 67.5t-152.5 44t-152.5 48t-117.5 79t-47 135.5q0 55 22.5 102t65.5 83t105.5 56.5t141.5 20.5q129 0 211 -44t129 -106l-45 -41q-43 61 -118.5 98t-176.5 37q-129 0 -201.5 -59 t-72.5 -147q0 -70 47 -107t118 -60.5t152.5 -42t152.5 -50t118 -85t47 -147.5q0 -57 -21.5 -109.5t-65.5 -91.5t-110.5 -61.5t-156.5 -22.5q-117 0 -203 36t-160 122z" />
<glyph unicode="&#x456;" horiz-adv-x="413" d="M147 1219q0 25 18.5 42t41.5 17q25 0 42 -17.5t17 -41.5q0 -25 -17 -42.5t-42 -17.5q-23 0 -41.5 17.5t-18.5 42.5zM176 0v989h62v-989h-62z" />
<glyph unicode="&#x457;" horiz-adv-x="413" d="M-55 1225q0 23 17.5 40t39.5 17q23 0 40.5 -17t17.5 -40t-17.5 -40.5t-40.5 -17.5t-40 17.5t-17 40.5zM176 0v989h62v-989h-62zM359 1225q0 23 17 40t40 17t40 -17t17 -40t-17.5 -40.5t-39.5 -17.5q-23 0 -40 17.5t-17 40.5z" />
<glyph unicode="&#x458;" horiz-adv-x="413" d="M-195 -324l39 52q25 -29 64 -51.5t86 -22.5q78 0 130 44t52 146v1145h62v-1145q0 -129 -65.5 -187t-178.5 -58q-59 0 -103.5 19.5t-85.5 57.5zM147 1219q0 25 18.5 42t41.5 17q25 0 42 -17.5t17 -41.5q0 -25 -17 -42.5t-42 -17.5q-23 0 -41.5 17.5t-18.5 42.5z" />
<glyph unicode="&#x459;" horiz-adv-x="1683" d="M37 -25v56q39 0 71.5 23.5t61.5 77.5t51.5 142t40.5 218l68 497h575v-422h400q70 0 124 -22.5t90.5 -61.5t55 -91t18.5 -109t-18.5 -108.5t-55 -90.5t-91 -61.5t-123.5 -22.5h-461v934h-459l-63 -451q-20 -143 -46 -240.5t-61 -156.5t-79 -85t-99 -26zM905 55h400 q111 0 167 63.5t56 164.5q0 100 -54.5 164.5t-168.5 64.5h-400v-457z" />
<glyph unicode="&#x45a;" horiz-adv-x="1683" d="M176 0v989h62v-446h606v446h61v-446h414q68 0 119 -21.5t86 -59.5t52 -87t17 -105q0 -55 -17 -104t-52 -86t-86.5 -58.5t-118.5 -21.5h-475v487h-606v-487h-62zM905 55h412q104 0 157.5 60.5t53.5 154.5q0 96 -51.5 156.5t-159.5 60.5h-412v-432z" />
<glyph unicode="&#x45b;" d="M20 1108v55h156v203h62v-203h340v-55h-340v-274q27 33 67.5 65.5t87.5 58t99.5 41t103.5 15.5q147 0 228 -72t81 -248v-694h-61v694q0 78 -18.5 129t-52.5 81t-81 42t-104 12q-51 0 -102.5 -15t-97.5 -40.5t-85 -59.5t-65 -71v-772h-62v1108h-156z" />
<glyph unicode="&#x45c;" horiz-adv-x="1015" d="M176 0v989h62v-602l645 602h88l-482 -446l476 -543h-88l-435 498l-204 -189v-309h-62zM403 1139l328 295h92l-359 -295h-61z" />
<glyph unicode="&#x45e;" horiz-adv-x="964" d="M23 989h71l389 -917l387 917h72l-524 -1222q-35 -80 -89.5 -124t-127.5 -44q-27 0 -53.5 4t-45.5 10l13 57q16 -8 41.5 -12t44.5 -4q49 0 85 27.5t70 107.5l90 205zM123 1294l43 39q53 -76 135 -120t182 -44t182.5 44t135.5 120l41 -39q-61 -84 -154.5 -132t-204.5 -48 t-204 48t-156 132z" />
<glyph unicode="&#x45f;" d="M176 0v989h62v-934h606v934h61v-989h-334v-256h-61v256h-334z" />
<glyph unicode="&#x490;" horiz-adv-x="1091" d="M180 0v1366h770v254h66v-315h-770v-1305h-66z" />
<glyph unicode="&#x491;" horiz-adv-x="845" d="M176 0v989h545v256h61v-311h-544v-934h-62z" />
<glyph unicode="&#x1e02;" horiz-adv-x="1228" d="M180 0v1366h514q82 0 150.5 -22.5t118 -66.5t77 -109.5t27.5 -149.5q0 -66 -20.5 -119t-54.5 -93t-78 -66.5t-89 -34.5q55 -8 103.5 -40t85.5 -78t58.5 -102.5t21.5 -115.5q0 -176 -105.5 -272.5t-286.5 -96.5h-522zM246 61h456q152 0 236 82t84 224q0 57 -20.5 112.5 t-60.5 98.5t-99.5 68.5t-139.5 25.5h-456v-611zM246 733h448q76 0 132.5 22.5t94 60.5t56 90t18.5 112q0 57 -18.5 109.5t-56 92.5t-94 62.5t-132.5 22.5h-448v-572zM555 1561q0 25 18.5 42t40.5 17q25 0 42.5 -17.5t17.5 -41.5q0 -25 -17.5 -42.5t-42.5 -17.5 q-23 0 -41 17.5t-18 42.5z" />
<glyph unicode="&#x1e03;" horiz-adv-x="1159" d="M176 0v1366h62v-547q59 88 152 141.5t204 53.5q100 0 181 -38t139.5 -105.5t90 -164t31.5 -212.5q0 -117 -31.5 -213.5t-90 -164t-139.5 -104.5t-181 -37q-59 0 -112.5 15.5t-99.5 41t-83 60.5t-61 74v-166h-62zM238 227q23 -39 59.5 -74.5t83.5 -62.5t101.5 -43 t111.5 -16q90 0 159.5 35.5t118 98t73 146.5t24.5 183q0 98 -24.5 182t-73 147.5t-118 99t-159.5 35.5q-57 0 -111.5 -16t-101.5 -44t-84 -64.5t-59 -75.5v-531zM535 1561q0 25 18.5 42t40.5 17q25 0 42.5 -17.5t17.5 -41.5q0 -25 -17.5 -42.5t-42.5 -17.5q-23 0 -41 17.5 t-18 42.5z" />
<glyph unicode="&#x1e0a;" horiz-adv-x="1400" d="M180 0v1366h406q160 0 285.5 -55.5t212.5 -149.5t134.5 -218t47.5 -261q0 -139 -47.5 -262t-134.5 -217t-213 -148.5t-285 -54.5h-406zM246 61h340q145 0 257.5 48.5t190.5 132.5t119 197.5t41 242.5t-41 241.5t-119 197.5t-190.5 134.5t-257.5 49.5h-340v-1244z M641 1561q0 25 18.5 42t40.5 17q25 0 42.5 -17.5t17.5 -41.5q0 -25 -17.5 -42.5t-42.5 -17.5q-23 0 -41 17.5t-18 42.5z" />
<glyph unicode="&#x1e0b;" horiz-adv-x="1159" d="M123 494q0 117 31.5 213t90 163.5t139.5 105.5t181 38q111 0 204 -53.5t153 -141.5v547h61v-1366h-61v166q-25 -39 -62 -74t-83 -60.5t-100 -41t-112 -15.5q-100 0 -181 37t-139.5 104.5t-90 164t-31.5 213.5zM190 494q0 -98 25 -182.5t72 -147t117.5 -98t160.5 -35.5 q57 0 111.5 16t101.5 43t84 62.5t60 74.5v531q-23 39 -60 75.5t-84 64.5t-101 44t-112 16q-90 0 -160.5 -35.5t-117.5 -99t-72 -147.5t-25 -182zM508 1561q0 25 18.5 42t40.5 17q25 0 42.5 -17.5t17.5 -41.5q0 -25 -17.5 -42.5t-42.5 -17.5q-23 0 -41 17.5t-18 42.5z" />
<glyph unicode="&#x1e1e;" horiz-adv-x="1091" d="M180 0v1366h836v-61h-770v-572h755v-61h-755v-672h-66zM539 1561q0 25 18.5 42t40.5 17q25 0 42.5 -17.5t17.5 -41.5q0 -25 -17.5 -42.5t-42.5 -17.5q-23 0 -41 17.5t-18 42.5z" />
<glyph unicode="&#x1e1f;" horiz-adv-x="503" d="M41 934v55h164v105q0 139 65.5 215.5t182.5 76.5q47 0 83.5 -11t84.5 -50l-37 -49q-27 25 -58.5 40t-72.5 15q-94 0 -140.5 -62.5t-46.5 -174.5v-105h201v-55h-201v-934h-61v934h-164zM395 1561q0 25 18.5 42t40.5 17q25 0 42.5 -17.5t17.5 -41.5q0 -25 -17.5 -42.5 t-42.5 -17.5q-23 0 -41 17.5t-18 42.5z" />
<glyph unicode="&#x1e22;" horiz-adv-x="1423" d="M180 0v1366h66v-633h932v633h65v-1366h-65v672h-932v-672h-66zM651 1561q0 25 18.5 42t40.5 17q25 0 42.5 -17.5t17.5 -41.5q0 -25 -17.5 -42.5t-42.5 -17.5q-23 0 -41 17.5t-18 42.5z" />
<glyph unicode="&#x1e23;" d="M176 0v1366h62v-532q27 33 67.5 65.5t87.5 58t99.5 41t103.5 15.5q147 0 228 -72t81 -248v-694h-61v694q0 78 -18.5 129t-52.5 81t-81 42t-104 12q-51 0 -102.5 -15t-97.5 -40.5t-85 -59.5t-65 -71v-772h-62zM481 1561q0 25 18.5 42t40.5 17q25 0 42.5 -17.5t17.5 -41.5 q0 -25 -17.5 -42.5t-42.5 -17.5q-23 0 -41 17.5t-18 42.5z" />
<glyph unicode="&#x1e56;" horiz-adv-x="1136" d="M180 0v1366h473q94 0 169 -30.5t126 -84t78 -124t27 -148.5t-28 -148.5t-79 -124t-124.5 -84t-168.5 -30.5h-407v-592h-66zM246 653h405q76 0 136.5 24.5t103.5 67.5t66.5 102.5t23.5 131.5q0 70 -23.5 130t-66.5 103t-103.5 68t-136.5 25h-405v-652zM508 1561 q0 25 18.5 42t40.5 17q25 0 42.5 -17.5t17.5 -41.5q0 -25 -17.5 -42.5t-42.5 -17.5q-23 0 -41 17.5t-18 42.5z" />
<glyph unicode="&#x1e57;" horiz-adv-x="1150" d="M176 -377v1366h62v-166q25 39 61.5 73t82.5 60.5t99.5 42t112.5 15.5q100 0 181 -37t139.5 -104.5t90 -164t31.5 -212.5q0 -117 -31.5 -213.5t-90 -164t-139.5 -105.5t-181 -38q-111 0 -204 53.5t-152 141.5v-547h-62zM238 231q23 -39 59.5 -75.5t83.5 -64.5t101.5 -44 t111.5 -16q90 0 159.5 35.5t118 99t73 147.5t24.5 183q0 98 -24.5 182t-73 146.5t-118 98t-159.5 35.5q-57 0 -111.5 -16t-101.5 -43t-84 -62.5t-59 -74.5v-531zM530 1219q0 25 18.5 42t40.5 17q25 0 42.5 -17.5t17.5 -41.5q0 -25 -17.5 -42.5t-42.5 -17.5q-23 0 -41 17.5 t-18 42.5z" />
<glyph unicode="&#x1e60;" horiz-adv-x="1177" d="M109 193l53 47q31 -39 74 -75t96 -64.5t116.5 -46t137.5 -17.5q119 0 194.5 29.5t120.5 75.5t62.5 100.5t17.5 103.5q0 113 -61.5 175.5t-153.5 101.5t-199.5 64.5t-200 65.5t-153.5 105.5t-61 181.5q0 82 34.5 147.5t94 109.5t137.5 68t162 24q152 0 261 -51.5 t181 -141.5l-51 -47q-72 94 -172.5 136t-218.5 42q-74 0 -139.5 -21.5t-113.5 -59.5t-76 -90t-28 -116q0 -74 36 -121t94.5 -79.5t133 -55t151.5 -46t151.5 -51.5t133 -72t94.5 -108.5t36 -160.5q0 -57 -21.5 -122.5t-74 -121t-143.5 -91.5t-228 -36q-160 0 -282 61.5 t-195 156.5zM528 1561q0 25 18.5 42t40.5 17q25 0 42.5 -17.5t17.5 -41.5q0 -25 -17.5 -42.5t-42.5 -17.5q-23 0 -41 17.5t-18 42.5z" />
<glyph unicode="&#x1e61;" horiz-adv-x="929" d="M90 133l49 45q47 -61 125 -104t189 -43q137 0 214.5 65.5t77.5 163.5q0 76 -47 118t-117.5 67.5t-152.5 44t-152.5 48t-117.5 79t-47 135.5q0 55 22.5 102t65.5 83t105.5 56.5t141.5 20.5q129 0 211 -44t129 -106l-45 -41q-43 61 -118.5 98t-176.5 37q-129 0 -201.5 -59 t-72.5 -147q0 -70 47 -107t118 -60.5t152.5 -42t152.5 -50t118 -85t47 -147.5q0 -57 -21.5 -109.5t-65.5 -91.5t-110.5 -61.5t-156.5 -22.5q-117 0 -203 36t-160 122zM406 1219q0 25 18.5 42t40.5 17q25 0 42.5 -17.5t17.5 -41.5q0 -25 -17.5 -42.5t-42.5 -17.5 q-23 0 -41 17.5t-18 42.5z" />
<glyph unicode="&#x1e6a;" horiz-adv-x="1144" d="M78 1305v61h989v-61h-463v-1305h-65v1305h-461zM512 1561q0 25 18.5 42t40.5 17q25 0 42.5 -17.5t17.5 -41.5q0 -25 -17.5 -42.5t-42.5 -17.5q-23 0 -41 17.5t-18 42.5z" />
<glyph unicode="&#x1e6b;" horiz-adv-x="524" d="M25 934v55h163v271h62v-271h201v-55h-201v-760q0 -63 25.5 -103t80.5 -40q37 0 68 15t49 38l37 -47q-29 -29 -64 -45.5t-90 -16.5q-86 0 -127 53.5t-41 145.5v760h-163zM176 1561q0 25 18.5 42t40.5 17q25 0 42.5 -17.5t17.5 -41.5q0 -25 -17.5 -42.5t-42.5 -17.5 q-23 0 -41 17.5t-18 42.5z" />
<glyph unicode="&#x1e80;" horiz-adv-x="1744" d="M51 1366h72l356 -1268l359 1268h69l359 -1268l356 1268h72l-389 -1366h-78l-355 1243l-354 -1243h-78zM557 1776h92l328 -295h-62z" />
<glyph unicode="&#x1e81;" horiz-adv-x="1441" d="M45 989h68l286 -893l297 893h49l297 -893l287 893h68l-328 -989h-49l-299 897l-299 -897h-49zM406 1434h92l328 -295h-62z" />
<glyph unicode="&#x1e82;" horiz-adv-x="1744" d="M51 1366h72l356 -1268l359 1268h69l359 -1268l356 1268h72l-389 -1366h-78l-355 1243l-354 -1243h-78zM768 1481l328 295h92l-359 -295h-61z" />
<glyph unicode="&#x1e83;" horiz-adv-x="1441" d="M45 989h68l286 -893l297 893h49l297 -893l287 893h68l-328 -989h-49l-299 897l-299 -897h-49zM616 1139l328 295h92l-359 -295h-61z" />
<glyph unicode="&#x1e84;" horiz-adv-x="1744" d="M51 1366h72l356 -1268l359 1268h69l359 -1268l356 1268h72l-389 -1366h-78l-355 1243l-354 -1243h-78zM608 1567q0 23 17.5 40t39.5 17q23 0 40.5 -17t17.5 -40t-17.5 -40.5t-40.5 -17.5t-40 17.5t-17 40.5zM1022 1567q0 23 17 40t40 17t40 -17t17 -40t-17.5 -40.5 t-39.5 -17.5q-23 0 -40 17.5t-17 40.5z" />
<glyph unicode="&#x1e85;" horiz-adv-x="1441" d="M45 989h68l286 -893l297 893h49l297 -893l287 893h68l-328 -989h-49l-299 897l-299 -897h-49zM457 1225q0 23 17.5 40t39.5 17q23 0 40.5 -17t17.5 -40t-17.5 -40.5t-40.5 -17.5t-40 17.5t-17 40.5zM871 1225q0 23 17 40t40 17t40 -17t17 -40t-17.5 -40.5t-39.5 -17.5 q-23 0 -40 17.5t-17 40.5z" />
<glyph unicode="&#x1ea0;" horiz-adv-x="1302" d="M43 0l569 1366h78l570 -1366h-76l-152 367h-762l-151 -367h-76zM295 428h713l-357 862zM592 -292q0 25 18.5 42t40.5 17q25 0 42.5 -17.5t17.5 -41.5q0 -25 -17.5 -42.5t-42.5 -17.5q-23 0 -41 17.5t-18 42.5z" />
<glyph unicode="&#x1ea1;" horiz-adv-x="1052" d="M127 305q0 80 29.5 141.5t78 103.5t111 63.5t127.5 21.5q104 0 188 -35t154 -111v224q0 59 -22.5 105t-60.5 77t-88 47t-107 16q-98 0 -173 -35.5t-145 -119.5l-47 41q72 86 156 128t209 42q74 0 135 -18.5t107 -55.5t72 -93t26 -132v-715h-62v121q-70 -76 -153.5 -111 t-188.5 -35q-66 0 -128 21.5t-110.5 63.5t-78 103.5t-29.5 141.5zM195 305q0 -57 20.5 -107.5t59 -87t92.5 -58t122 -21.5q98 0 183.5 37.5t142.5 113.5v246q-57 76 -142 114t-184 38q-68 0 -122 -21.5t-92.5 -58.5t-59 -87.5t-20.5 -107.5zM469 -292q0 25 18.5 42t40.5 17 q25 0 42.5 -17.5t17.5 -41.5q0 -25 -17.5 -42.5t-42.5 -17.5q-23 0 -41 17.5t-18 42.5z" />
<glyph unicode="&#x1ea2;" horiz-adv-x="1302" d="M43 0l569 1366h78l570 -1366h-76l-152 367h-762l-151 -367h-76zM295 428h713l-357 862zM516 1570q12 41 45 75t92 34q53 0 93 -33t40 -104q0 -35 -11 -60.5t-34 -54.5h-55q29 29 41 57.5t12 57.5q0 45 -22.5 68.5t-63.5 23.5q-70 0 -94 -76z" />
<glyph unicode="&#x1ea3;" horiz-adv-x="1052" d="M127 305q0 80 29.5 141.5t78 103.5t111 63.5t127.5 21.5q104 0 188 -35t154 -111v224q0 59 -22.5 105t-60.5 77t-88 47t-107 16q-98 0 -173 -35.5t-145 -119.5l-47 41q72 86 156 128t209 42q74 0 135 -18.5t107 -55.5t72 -93t26 -132v-715h-62v121q-70 -76 -153.5 -111 t-188.5 -35q-66 0 -128 21.5t-110.5 63.5t-78 103.5t-29.5 141.5zM195 305q0 -57 20.5 -107.5t59 -87t92.5 -58t122 -21.5q98 0 183.5 37.5t142.5 113.5v246q-57 76 -142 114t-184 38q-68 0 -122 -21.5t-92.5 -58.5t-59 -87.5t-20.5 -107.5zM391 1224q12 41 45 75t92 34 q53 0 93 -33t40 -104q0 -35 -11 -60.5t-34 -54.5h-55q29 29 41 57.5t12 57.5q0 45 -22.5 68.5t-63.5 23.5q-70 0 -94 -76z" />
<glyph unicode="&#x1ea4;" horiz-adv-x="1302" d="M43 0l569 1366h78l570 -1366h-76l-152 367h-762l-151 -367h-76zM295 428h713l-357 862zM414 1261l201 221h73l207 -221h-57l-186 184l-181 -184h-57zM831 1346l328 222h92l-359 -222h-61z" />
<glyph unicode="&#x1ea5;" horiz-adv-x="1052" d="M127 305q0 80 29.5 141.5t78 103.5t111 63.5t127.5 21.5q104 0 188 -35t154 -111v224q0 59 -22.5 105t-60.5 77t-88 47t-107 16q-98 0 -173 -35.5t-145 -119.5l-47 41q72 86 156 128t209 42q74 0 135 -18.5t107 -55.5t72 -93t26 -132v-715h-62v121q-70 -76 -153.5 -111 t-188.5 -35q-66 0 -128 21.5t-110.5 63.5t-78 103.5t-29.5 141.5zM195 305q0 -57 20.5 -107.5t59 -87t92.5 -58t122 -21.5q98 0 183.5 37.5t142.5 113.5v246q-57 76 -142 114t-184 38q-68 0 -122 -21.5t-92.5 -58.5t-59 -87.5t-20.5 -107.5zM299 1139l201 295h73l207 -295 h-57l-186 245l-181 -245h-57zM700 1282l328 295h92l-359 -295h-61z" />
<glyph unicode="&#x1ea6;" horiz-adv-x="1302" d="M43 0l569 1366h78l570 -1366h-76l-152 367h-762l-151 -367h-76zM51 1568h92l328 -222h-62zM295 428h713l-357 862zM414 1261l201 221h73l207 -221h-57l-186 184l-181 -184h-57z" />
<glyph unicode="&#x1ea7;" horiz-adv-x="1052" d="M-45 1577h92l328 -295h-62zM127 305q0 80 29.5 141.5t78 103.5t111 63.5t127.5 21.5q104 0 188 -35t154 -111v224q0 59 -22.5 105t-60.5 77t-88 47t-107 16q-98 0 -173 -35.5t-145 -119.5l-47 41q72 86 156 128t209 42q74 0 135 -18.5t107 -55.5t72 -93t26 -132v-715h-62 v121q-70 -76 -153.5 -111t-188.5 -35q-66 0 -128 21.5t-110.5 63.5t-78 103.5t-29.5 141.5zM195 305q0 -57 20.5 -107.5t59 -87t92.5 -58t122 -21.5q98 0 183.5 37.5t142.5 113.5v246q-57 76 -142 114t-184 38q-68 0 -122 -21.5t-92.5 -58.5t-59 -87.5t-20.5 -107.5z M299 1139l201 295h73l207 -295h-57l-186 245l-181 -245h-57z" />
<glyph unicode="&#x1ea8;" horiz-adv-x="1302" d="M43 0l569 1366h78l570 -1366h-76l-152 367h-762l-151 -367h-76zM295 428h713l-357 862zM414 1261l201 221h73l207 -221h-57l-186 184l-181 -184h-57zM764 1507q12 31 45 56t92 25q53 0 93 -24.5t40 -77.5q0 -26 -11 -45.5t-34 -40.5h-55q29 21 41 42.5t12 43.5 q0 34 -22.5 51.5t-63.5 17.5q-70 0 -94 -57z" />
<glyph unicode="&#x1ea9;" horiz-adv-x="1052" d="M127 305q0 80 29.5 141.5t78 103.5t111 63.5t127.5 21.5q104 0 188 -35t154 -111v224q0 59 -22.5 105t-60.5 77t-88 47t-107 16q-98 0 -173 -35.5t-145 -119.5l-47 41q72 86 156 128t209 42q74 0 135 -18.5t107 -55.5t72 -93t26 -132v-715h-62v121q-70 -76 -153.5 -111 t-188.5 -35q-66 0 -128 21.5t-110.5 63.5t-78 103.5t-29.5 141.5zM195 305q0 -57 20.5 -107.5t59 -87t92.5 -58t122 -21.5q98 0 183.5 37.5t142.5 113.5v246q-57 76 -142 114t-184 38q-68 0 -122 -21.5t-92.5 -58.5t-59 -87.5t-20.5 -107.5zM299 1139l201 295h73l207 -295 h-57l-186 245l-181 -245h-57zM561 1509q12 41 45 75t92 34q53 0 93 -33t40 -104q0 -35 -11 -60.5t-34 -54.5h-55q29 29 41 57.5t12 57.5q0 45 -22.5 68.5t-63.5 23.5q-70 0 -94 -76z" />
<glyph unicode="&#x1eaa;" horiz-adv-x="1302" d="M43 0l569 1366h78l570 -1366h-76l-152 367h-762l-151 -367h-76zM295 428h713l-357 862zM342 1066q0 27 11.5 52.5t35 43.5t57 29t76.5 11q59 0 91 -17.5t55.5 -39.5t48 -40t67.5 -18q51 0 86 25.5t35 83.5h53q0 -27 -11 -52.5t-34.5 -43.5t-57.5 -29t-77 -11 q-59 0 -91 17.5t-55.5 39.5t-48 40t-67.5 18q-51 0 -86 -25.5t-35 -83.5h-53zM414 980l201 147h73l207 -147h-57l-186 122l-181 -122h-57z" />
<glyph unicode="&#x1eab;" horiz-adv-x="1052" d="M127 305q0 80 29.5 141.5t78 103.5t111 63.5t127.5 21.5q104 0 188 -35t154 -111v224q0 59 -22.5 105t-60.5 77t-88 47t-107 16q-98 0 -173 -35.5t-145 -119.5l-47 41q72 86 156 128t209 42q74 0 135 -18.5t107 -55.5t72 -93t26 -132v-715h-62v121q-70 -76 -153.5 -111 t-188.5 -35q-66 0 -128 21.5t-110.5 63.5t-78 103.5t-29.5 141.5zM195 305q0 -57 20.5 -107.5t59 -87t92.5 -58t122 -21.5q98 0 183.5 37.5t142.5 113.5v246q-57 76 -142 114t-184 38q-68 0 -122 -21.5t-92.5 -58.5t-59 -87.5t-20.5 -107.5zM217 1409q0 55 11.5 105.5t35 87 t57 59t76.5 22.5q59 0 91 -35.5t55.5 -79.5t48 -80t67.5 -36q51 0 86 51t35 168h53q0 -55 -11 -105.5t-34.5 -87t-57.5 -59t-77 -22.5q-59 0 -91 35.5t-55.5 79.5t-48 80t-67.5 36q-51 0 -86 -51t-35 -168h-53zM299 1073l201 295h73l207 -295h-57l-186 245l-181 -245h-57z " />
<glyph unicode="&#x1eac;" horiz-adv-x="1302" d="M43 0l569 1366h78l570 -1366h-76l-152 367h-762l-151 -367h-76zM295 428h713l-357 862zM412 1481l201 295h73l207 -295h-57l-186 245l-181 -245h-57zM592 -292q0 25 18.5 42t40.5 17q25 0 42.5 -17.5t17.5 -41.5q0 -25 -17.5 -42.5t-42.5 -17.5q-23 0 -41 17.5t-18 42.5z " />
<glyph unicode="&#x1ead;" horiz-adv-x="1052" d="M127 305q0 80 29.5 141.5t78 103.5t111 63.5t127.5 21.5q104 0 188 -35t154 -111v224q0 59 -22.5 105t-60.5 77t-88 47t-107 16q-98 0 -173 -35.5t-145 -119.5l-47 41q72 86 156 128t209 42q74 0 135 -18.5t107 -55.5t72 -93t26 -132v-715h-62v121q-70 -76 -153.5 -111 t-188.5 -35q-66 0 -128 21.5t-110.5 63.5t-78 103.5t-29.5 141.5zM195 305q0 -57 20.5 -107.5t59 -87t92.5 -58t122 -21.5q98 0 183.5 37.5t142.5 113.5v246q-57 76 -142 114t-184 38q-68 0 -122 -21.5t-92.5 -58.5t-59 -87.5t-20.5 -107.5zM285 1139l201 295h73l207 -295 h-57l-186 245l-181 -245h-57zM469 -292q0 25 18.5 42t40.5 17q25 0 42.5 -17.5t17.5 -41.5q0 -25 -17.5 -42.5t-42.5 -17.5q-23 0 -41 17.5t-18 42.5z" />
<glyph unicode="&#x1eae;" horiz-adv-x="1302" d="M43 0l569 1366h78l570 -1366h-76l-152 367h-762l-151 -367h-76zM291 1591l43 39q53 -76 135 -120t182 -44t182.5 44t135.5 120l41 -39q-61 -84 -154.5 -132t-204.5 -48t-204 48t-156 132zM295 428h713l-357 862zM541 1344l328 222h92l-359 -222h-61z" />
<glyph unicode="&#x1eaf;" horiz-adv-x="1052" d="M127 305q0 80 29.5 141.5t78 103.5t111 63.5t127.5 21.5q104 0 188 -35t154 -111v224q0 59 -22.5 105t-60.5 77t-88 47t-107 16q-98 0 -173 -35.5t-145 -119.5l-47 41q72 86 156 128t209 42q74 0 135 -18.5t107 -55.5t72 -93t26 -132v-715h-62v121q-70 -76 -153.5 -111 t-188.5 -35q-66 0 -128 21.5t-110.5 63.5t-78 103.5t-29.5 141.5zM174 1259l43 39q53 -76 135 -120t182 -44t182.5 44t135.5 120l41 -39q-61 -84 -154.5 -132t-204.5 -48t-204 48t-156 132zM195 305q0 -57 20.5 -107.5t59 -87t92.5 -58t122 -21.5q98 0 183.5 37.5 t142.5 113.5v246q-57 76 -142 114t-184 38q-68 0 -122 -21.5t-92.5 -58.5t-59 -87.5t-20.5 -107.5zM430 1254l328 295h92l-359 -295h-61z" />
<glyph unicode="&#x1eb0;" horiz-adv-x="1302" d="M43 0l569 1366h78l570 -1366h-76l-152 367h-762l-151 -367h-76zM291 1587l43 39q53 -76 135 -120t182 -44t182.5 44t135.5 120l41 -39q-61 -84 -154.5 -132t-204.5 -48t-204 48t-156 132zM295 428h713l-357 862zM344 1566h92l328 -222h-62z" />
<glyph unicode="&#x1eb1;" horiz-adv-x="1052" d="M127 305q0 80 29.5 141.5t78 103.5t111 63.5t127.5 21.5q104 0 188 -35t154 -111v224q0 59 -22.5 105t-60.5 77t-88 47t-107 16q-98 0 -173 -35.5t-145 -119.5l-47 41q72 86 156 128t209 42q74 0 135 -18.5t107 -55.5t72 -93t26 -132v-715h-62v121q-70 -76 -153.5 -111 t-188.5 -35q-66 0 -128 21.5t-110.5 63.5t-78 103.5t-29.5 141.5zM174 1269l43 39q53 -76 135 -120t182 -44t182.5 44t135.5 120l41 -39q-61 -84 -154.5 -132t-204.5 -48t-204 48t-156 132zM195 305q0 -57 20.5 -107.5t59 -87t92.5 -58t122 -21.5q98 0 183.5 37.5 t142.5 113.5v246q-57 76 -142 114t-184 38q-68 0 -122 -21.5t-92.5 -58.5t-59 -87.5t-20.5 -107.5zM217 1549h92l328 -295h-62z" />
<glyph unicode="&#x1eb2;" horiz-adv-x="1302" d="M43 0l569 1366h78l570 -1366h-76l-152 367h-762l-151 -367h-76zM291 1591l43 39q53 -76 135 -120t182 -44t182.5 44t135.5 120l41 -39q-61 -84 -154.5 -132t-204.5 -48t-204 48t-156 132zM295 428h713l-357 862zM516 1501q12 31 45 56t92 25q53 0 93 -24.5t40 -77.5 q0 -26 -11 -45.5t-34 -40.5h-55q29 21 41 42.5t12 43.5q0 34 -22.5 51.5t-63.5 17.5q-70 0 -94 -57z" />
<glyph unicode="&#x1eb3;" horiz-adv-x="1052" d="M127 305q0 80 29.5 141.5t78 103.5t111 63.5t127.5 21.5q104 0 188 -35t154 -111v224q0 59 -22.5 105t-60.5 77t-88 47t-107 16q-98 0 -173 -35.5t-145 -119.5l-47 41q72 86 156 128t209 42q74 0 135 -18.5t107 -55.5t72 -93t26 -132v-715h-62v121q-70 -76 -153.5 -111 t-188.5 -35q-66 0 -128 21.5t-110.5 63.5t-78 103.5t-29.5 141.5zM174 1269l43 39q53 -76 135 -120t182 -44t182.5 44t135.5 120l41 -39q-61 -84 -154.5 -132t-204.5 -48t-204 48t-156 132zM195 305q0 -57 20.5 -107.5t59 -87t92.5 -58t122 -21.5q98 0 183.5 37.5 t142.5 113.5v246q-57 76 -142 114t-184 38q-68 0 -122 -21.5t-92.5 -58.5t-59 -87.5t-20.5 -107.5zM395 1388q12 41 45 75t92 34q53 0 93 -33t40 -104q0 -35 -11 -60.5t-34 -54.5h-55q29 29 41 57.5t12 57.5q0 45 -22.5 68.5t-63.5 23.5q-70 0 -94 -76z" />
<glyph unicode="&#x1eb4;" horiz-adv-x="1302" d="M43 0l569 1366h78l570 -1366h-76l-152 367h-762l-151 -367h-76zM293 1289l43 26q53 -50 135 -79t182 -29t182.5 29t135.5 79l41 -26q-61 -55 -154.5 -87t-204.5 -32t-204 32t-156 87zM295 428h713l-357 862zM342 1066q0 27 11.5 52.5t35 43.5t57 29t76.5 11 q59 0 91 -17.5t55.5 -39.5t48 -40t67.5 -18q51 0 86 25.5t35 83.5h53q0 -27 -11 -52.5t-34.5 -43.5t-57.5 -29t-77 -11q-59 0 -91 17.5t-55.5 39.5t-48 40t-67.5 18q-51 0 -86 -25.5t-35 -83.5h-53z" />
<glyph unicode="&#x1eb5;" horiz-adv-x="1052" d="M127 305q0 80 29.5 141.5t78 103.5t111 63.5t127.5 21.5q104 0 188 -35t154 -111v224q0 59 -22.5 105t-60.5 77t-88 47t-107 16q-98 0 -173 -35.5t-145 -119.5l-47 41q72 86 156 128t209 42q74 0 135 -18.5t107 -55.5t72 -93t26 -132v-715h-62v121q-70 -76 -153.5 -111 t-188.5 -35q-66 0 -128 21.5t-110.5 63.5t-78 103.5t-29.5 141.5zM174 1269l43 39q53 -76 135 -120t182 -44t182.5 44t135.5 120l41 -39q-61 -84 -154.5 -132t-204.5 -48t-204 48t-156 132zM195 305q0 -57 20.5 -107.5t59 -87t92.5 -58t122 -21.5q98 0 183.5 37.5 t142.5 113.5v246q-57 76 -142 114t-184 38q-68 0 -122 -21.5t-92.5 -58.5t-59 -87.5t-20.5 -107.5zM217 1356q0 55 11.5 105.5t35 87t57 59t76.5 22.5q59 0 91 -35.5t55.5 -79.5t48 -80t67.5 -36q51 0 86 51t35 168h53q0 -55 -11 -105.5t-34.5 -87t-57.5 -59t-77 -22.5 q-59 0 -91 35.5t-55.5 79.5t-48 80t-67.5 36q-51 0 -86 -51t-35 -168h-53z" />
<glyph unicode="&#x1eb6;" horiz-adv-x="1302" d="M43 0l569 1366h78l570 -1366h-76l-152 367h-762l-151 -367h-76zM291 1636l43 39q53 -76 135 -120t182 -44t182.5 44t135.5 120l41 -39q-61 -84 -154.5 -132t-204.5 -48t-204 48t-156 132zM295 428h713l-357 862zM592 -292q0 25 18.5 42t40.5 17q25 0 42.5 -17.5 t17.5 -41.5q0 -25 -17.5 -42.5t-42.5 -17.5q-23 0 -41 17.5t-18 42.5z" />
<glyph unicode="&#x1eb7;" horiz-adv-x="1052" d="M127 305q0 80 29.5 141.5t78 103.5t111 63.5t127.5 21.5q104 0 188 -35t154 -111v224q0 59 -22.5 105t-60.5 77t-88 47t-107 16q-98 0 -173 -35.5t-145 -119.5l-47 41q72 86 156 128t209 42q74 0 135 -18.5t107 -55.5t72 -93t26 -132v-715h-62v121q-70 -76 -153.5 -111 t-188.5 -35q-66 0 -128 21.5t-110.5 63.5t-78 103.5t-29.5 141.5zM166 1294l43 39q53 -76 135 -120t182 -44t182.5 44t135.5 120l41 -39q-61 -84 -154.5 -132t-204.5 -48t-204 48t-156 132zM195 305q0 -57 20.5 -107.5t59 -87t92.5 -58t122 -21.5q98 0 183.5 37.5 t142.5 113.5v246q-57 76 -142 114t-184 38q-68 0 -122 -21.5t-92.5 -58.5t-59 -87.5t-20.5 -107.5zM469 -292q0 25 18.5 42t40.5 17q25 0 42.5 -17.5t17.5 -41.5q0 -25 -17.5 -42.5t-42.5 -17.5q-23 0 -41 17.5t-18 42.5z" />
<glyph unicode="&#x1eb8;" horiz-adv-x="1142" d="M180 0v1366h836v-61h-770v-572h755v-61h-755v-611h770v-61h-836zM553 -292q0 25 18.5 42t40.5 17q25 0 42.5 -17.5t17.5 -41.5q0 -25 -17.5 -42.5t-42.5 -17.5q-23 0 -41 17.5t-18 42.5z" />
<glyph unicode="&#x1eb9;" horiz-adv-x="1169" d="M123 496q0 106 35 201.5t97 165t147 110.5t186 41q113 0 198.5 -42t144 -114t87.5 -166t29 -196v-21h-854q2 -90 31.5 -171t83.5 -141.5t130 -96t170 -35.5q205 0 344 149l37 -39q-76 -78 -166 -122t-215 -44q-109 0 -197.5 39t-152 109t-99.5 165t-36 208zM193 530h788 q0 72 -23.5 148t-72.5 138.5t-124 102t-175 39.5q-96 0 -168 -39.5t-121 -101t-75.5 -137.5t-28.5 -150zM530 -292q0 25 18.5 42t40.5 17q25 0 42.5 -17.5t17.5 -41.5q0 -25 -17.5 -42.5t-42.5 -17.5q-23 0 -41 17.5t-18 42.5z" />
<glyph unicode="&#x1eba;" horiz-adv-x="1142" d="M180 0v1366h836v-61h-770v-572h755v-61h-755v-611h770v-61h-836zM436 1570q12 41 45 75t92 34q53 0 93 -33t40 -104q0 -35 -11 -60.5t-34 -54.5h-55q29 29 41 57.5t12 57.5q0 45 -22.5 68.5t-63.5 23.5q-70 0 -94 -76z" />
<glyph unicode="&#x1ebb;" horiz-adv-x="1169" d="M123 496q0 106 35 201.5t97 165t147 110.5t186 41q113 0 198.5 -42t144 -114t87.5 -166t29 -196v-21h-854q2 -90 31.5 -171t83.5 -141.5t130 -96t170 -35.5q205 0 344 149l37 -39q-76 -78 -166 -122t-215 -44q-109 0 -197.5 39t-152 109t-99.5 165t-36 208zM193 530h788 q0 72 -23.5 148t-72.5 138.5t-124 102t-175 39.5q-96 0 -168 -39.5t-121 -101t-75.5 -137.5t-28.5 -150zM449 1224q12 41 45 75t92 34q53 0 93 -33t40 -104q0 -35 -11 -60.5t-34 -54.5h-55q29 29 41 57.5t12 57.5q0 45 -22.5 68.5t-63.5 23.5q-70 0 -94 -76z" />
<glyph unicode="&#x1ebc;" horiz-adv-x="1142" d="M180 0v1366h836v-61h-770v-572h755v-61h-755v-611h770v-61h-836zM293 1489q0 55 11.5 105.5t35 87t57 59t76.5 22.5q59 0 91 -35.5t55.5 -79.5t48 -80t67.5 -36q51 0 86 51t35 168h53q0 -55 -11 -105.5t-34.5 -87t-57.5 -59t-77 -22.5q-59 0 -91 35.5t-55.5 79.5t-48 80 t-67.5 36q-51 0 -86 -51t-35 -168h-53z" />
<glyph unicode="&#x1ebd;" horiz-adv-x="1169" d="M123 496q0 106 35 201.5t97 165t147 110.5t186 41q113 0 198.5 -42t144 -114t87.5 -166t29 -196v-21h-854q2 -90 31.5 -171t83.5 -141.5t130 -96t170 -35.5q205 0 344 149l37 -39q-76 -78 -166 -122t-215 -44q-109 0 -197.5 39t-152 109t-99.5 165t-36 208zM193 530h788 q0 72 -23.5 148t-72.5 138.5t-124 102t-175 39.5q-96 0 -168 -39.5t-121 -101t-75.5 -137.5t-28.5 -150zM276 1147q0 55 11.5 105.5t35 87t57 59t76.5 22.5q59 0 91 -35.5t55.5 -79.5t48 -80t67.5 -36q51 0 86 51t35 168h53q0 -55 -11 -105.5t-34.5 -87t-57.5 -59t-77 -22.5 q-59 0 -91 35.5t-55.5 79.5t-48 80t-67.5 36q-51 0 -86 -51t-35 -168h-53z" />
<glyph unicode="&#x1ebe;" horiz-adv-x="1142" d="M180 0v1366h836v-61h-770v-572h755v-61h-755v-611h770v-61h-836zM367 1261l201 221h73l207 -221h-57l-186 184l-181 -184h-57zM784 1346l328 222h92l-359 -222h-61z" />
<glyph unicode="&#x1ebf;" horiz-adv-x="1169" d="M123 496q0 106 35 201.5t97 165t147 110.5t186 41q113 0 198.5 -42t144 -114t87.5 -166t29 -196v-21h-854q2 -90 31.5 -171t83.5 -141.5t130 -96t170 -35.5q205 0 344 149l37 -39q-76 -78 -166 -122t-215 -44q-109 0 -197.5 39t-152 109t-99.5 165t-36 208zM193 530h788 q0 72 -23.5 148t-72.5 138.5t-124 102t-175 39.5q-96 0 -168 -39.5t-121 -101t-75.5 -137.5t-28.5 -150zM348 1139l201 295h73l207 -295h-57l-186 245l-181 -245h-57zM750 1282l328 295h92l-359 -295h-61z" />
<glyph unicode="&#x1ec0;" horiz-adv-x="1142" d="M0 1568h92l328 -222h-62zM180 0v1366h836v-61h-770v-572h755v-61h-755v-611h770v-61h-836zM360 1261l201 221h73l207 -221h-57l-186 184l-181 -184h-57z" />
<glyph unicode="&#x1ec1;" horiz-adv-x="1169" d="M0 1577h92l328 -295h-62zM123 496q0 106 35 201.5t97 165t147 110.5t186 41q113 0 198.5 -42t144 -114t87.5 -166t29 -196v-21h-854q2 -90 31.5 -171t83.5 -141.5t130 -96t170 -35.5q205 0 344 149l37 -39q-76 -78 -166 -122t-215 -44q-109 0 -197.5 39t-152 109 t-99.5 165t-36 208zM193 530h788q0 72 -23.5 148t-72.5 138.5t-124 102t-175 39.5q-96 0 -168 -39.5t-121 -101t-75.5 -137.5t-28.5 -150zM344 1139l201 295h73l207 -295h-57l-186 245l-181 -245h-57z" />
<glyph unicode="&#x1ec2;" horiz-adv-x="1142" d="M180 0v1366h836v-61h-770v-572h755v-61h-755v-611h770v-61h-836zM369 1261l201 221h73l207 -221h-57l-186 184l-181 -184h-57zM719 1507q12 31 45 56t92 25q53 0 93 -24.5t40 -77.5q0 -26 -11 -45.5t-34 -40.5h-55q29 21 41 42.5t12 43.5q0 34 -22.5 51.5t-63.5 17.5 q-70 0 -94 -57z" />
<glyph unicode="&#x1ec3;" horiz-adv-x="1169" d="M123 496q0 106 35 201.5t97 165t147 110.5t186 41q113 0 198.5 -42t144 -114t87.5 -166t29 -196v-21h-854q2 -90 31.5 -171t83.5 -141.5t130 -96t170 -35.5q205 0 344 149l37 -39q-76 -78 -166 -122t-215 -44q-109 0 -197.5 39t-152 109t-99.5 165t-36 208zM193 530h788 q0 72 -23.5 148t-72.5 138.5t-124 102t-175 39.5q-96 0 -168 -39.5t-121 -101t-75.5 -137.5t-28.5 -150zM342 1139l201 295h73l207 -295h-57l-186 245l-181 -245h-57zM604 1509q12 41 45 75t92 34q53 0 93 -33t40 -104q0 -35 -11 -60.5t-34 -54.5h-55q29 29 41 57.5t12 57.5 q0 45 -22.5 68.5t-63.5 23.5q-70 0 -94 -76z" />
<glyph unicode="&#x1ec4;" horiz-adv-x="1142" d="M180 0v1366h836v-61h-770v-572h755v-61h-755v-611h770v-61h-836zM295 1066q0 27 11.5 52.5t35 43.5t57 29t76.5 11q59 0 91 -17.5t55.5 -39.5t48 -40t67.5 -18q51 0 86 25.5t35 83.5h53q0 -27 -11 -52.5t-34.5 -43.5t-57.5 -29t-77 -11q-59 0 -91 17.5t-55.5 39.5t-48 40 t-67.5 18q-51 0 -86 -25.5t-35 -83.5h-53zM367 980l201 147h73l207 -147h-57l-186 122l-181 -122h-57z" />
<glyph unicode="&#x1ec5;" horiz-adv-x="1169" d="M123 496q0 106 35 201.5t97 165t147 110.5t186 41q113 0 198.5 -42t144 -114t87.5 -166t29 -196v-21h-854q2 -90 31.5 -171t83.5 -141.5t130 -96t170 -35.5q205 0 344 149l37 -39q-76 -78 -166 -122t-215 -44q-109 0 -197.5 39t-152 109t-99.5 165t-36 208zM193 530h788 q0 72 -23.5 148t-72.5 138.5t-124 102t-175 39.5q-96 0 -168 -39.5t-121 -101t-75.5 -137.5t-28.5 -150zM256 1409q0 55 11.5 105.5t35 87t57 59t76.5 22.5q59 0 91 -35.5t55.5 -79.5t48 -80t67.5 -36q51 0 86 51t35 168h53q0 -55 -11 -105.5t-34.5 -87t-57.5 -59t-77 -22.5 q-59 0 -91 35.5t-55.5 79.5t-48 80t-67.5 36q-51 0 -86 -51t-35 -168h-53zM338 1073l201 295h73l207 -295h-57l-186 245l-181 -245h-57z" />
<glyph unicode="&#x1ec6;" horiz-adv-x="1142" d="M180 0v1366h836v-61h-770v-572h755v-61h-755v-611h770v-61h-836zM354 1481l201 295h73l207 -295h-57l-186 245l-181 -245h-57zM553 -292q0 25 18.5 42t40.5 17q25 0 42.5 -17.5t17.5 -41.5q0 -25 -17.5 -42.5t-42.5 -17.5q-23 0 -41 17.5t-18 42.5z" />
<glyph unicode="&#x1ec7;" horiz-adv-x="1169" d="M123 496q0 106 35 201.5t97 165t147 110.5t186 41q113 0 198.5 -42t144 -114t87.5 -166t29 -196v-21h-854q2 -90 31.5 -171t83.5 -141.5t130 -96t170 -35.5q205 0 344 149l37 -39q-76 -78 -166 -122t-215 -44q-109 0 -197.5 39t-152 109t-99.5 165t-36 208zM193 530h788 q0 72 -23.5 148t-72.5 138.5t-124 102t-175 39.5q-96 0 -168 -39.5t-121 -101t-75.5 -137.5t-28.5 -150zM350 1139l201 295h73l207 -295h-57l-186 245l-181 -245h-57zM530 -292q0 25 18.5 42t40.5 17q25 0 42.5 -17.5t17.5 -41.5q0 -25 -17.5 -42.5t-42.5 -17.5 q-23 0 -41 17.5t-18 42.5z" />
<glyph unicode="&#x1ec8;" horiz-adv-x="425" d="M78 1570q12 41 45 75t92 34q53 0 93 -33t40 -104q0 -35 -11 -60.5t-34 -54.5h-55q29 29 41 57.5t12 57.5q0 45 -22.5 68.5t-63.5 23.5q-70 0 -94 -76zM180 0v1366h66v-1366h-66z" />
<glyph unicode="&#x1ec9;" horiz-adv-x="413" d="M72 1224q12 41 45 75t92 34q53 0 93 -33t40 -104q0 -35 -11 -60.5t-34 -54.5h-55q29 29 41 57.5t12 57.5q0 45 -22.5 68.5t-63.5 23.5q-70 0 -94 -76zM176 0v989h62v-989h-62z" />
<glyph unicode="&#x1eca;" horiz-adv-x="425" d="M154 -292q0 25 18.5 42t40.5 17q25 0 42.5 -17.5t17.5 -41.5q0 -25 -17.5 -42.5t-42.5 -17.5q-23 0 -41 17.5t-18 42.5zM180 0v1366h66v-1366h-66z" />
<glyph unicode="&#x1ecb;" horiz-adv-x="413" d="M147 1219q0 25 18.5 42t41.5 17q25 0 42 -17.5t17 -41.5q0 -25 -17 -42.5t-42 -17.5q-23 0 -41.5 17.5t-18.5 42.5zM150 -292q0 25 18.5 42t40.5 17q25 0 42.5 -17.5t17.5 -41.5q0 -25 -17.5 -42.5t-42.5 -17.5q-23 0 -41 17.5t-18 42.5zM176 0v989h62v-989h-62z" />
<glyph unicode="&#x1ecc;" horiz-adv-x="1564" d="M133 682q0 147 45 276t130 224.5t205 151t269 55.5q147 0 268 -55.5t205 -151t130.5 -224.5t46.5 -276t-46.5 -276.5t-130.5 -224.5t-205 -150.5t-268 -55.5q-150 0 -269.5 55.5t-204.5 150.5t-130 224.5t-45 276.5zM205 682q0 -139 40 -257t115.5 -204t182 -135 t239.5 -49q131 0 237.5 49t182.5 135t117 204t41 257q0 141 -41 259t-117 204t-182.5 134t-237.5 48q-133 0 -239.5 -48t-182 -134t-115.5 -204t-40 -259zM725 -292q0 25 18.5 42t40.5 17q25 0 42.5 -17.5t17.5 -41.5q0 -25 -17.5 -42.5t-42.5 -17.5q-23 0 -41 17.5 t-18 42.5z" />
<glyph unicode="&#x1ecd;" horiz-adv-x="1167" d="M123 496q0 109 32.5 204t93 164.5t145.5 109.5t190 40q104 0 190 -40t145.5 -109.5t92 -165t32.5 -203.5q0 -109 -32.5 -204t-92 -166t-145.5 -111t-190 -40t-189.5 40t-146 111t-93 166t-32.5 204zM190 496q0 -90 26 -174t76 -148.5t124 -103.5t168 -39t167.5 39 t124 103.5t76 148.5t25.5 174t-25.5 173t-76 147.5t-124 103t-167.5 38.5t-168 -38.5t-124 -103t-76 -147.5t-26 -173zM524 -292q0 25 18.5 42t40.5 17q25 0 42.5 -17.5t17.5 -41.5q0 -25 -17.5 -42.5t-42.5 -17.5q-23 0 -41 17.5t-18 42.5z" />
<glyph unicode="&#x1ece;" horiz-adv-x="1564" d="M133 682q0 147 45 276t130 224.5t205 151t269 55.5q147 0 268 -55.5t205 -151t130.5 -224.5t46.5 -276t-46.5 -276.5t-130.5 -224.5t-205 -150.5t-268 -55.5q-150 0 -269.5 55.5t-204.5 150.5t-130 224.5t-45 276.5zM205 682q0 -139 40 -257t115.5 -204t182 -135 t239.5 -49q131 0 237.5 49t182.5 135t117 204t41 257q0 141 -41 259t-117 204t-182.5 134t-237.5 48q-133 0 -239.5 -48t-182 -134t-115.5 -204t-40 -259zM647 1570q12 41 45 75t92 34q53 0 93 -33t40 -104q0 -35 -11 -60.5t-34 -54.5h-55q29 29 41 57.5t12 57.5 q0 45 -22.5 68.5t-63.5 23.5q-70 0 -94 -76z" />
<glyph unicode="&#x1ecf;" horiz-adv-x="1167" d="M123 496q0 109 32.5 204t93 164.5t145.5 109.5t190 40q104 0 190 -40t145.5 -109.5t92 -165t32.5 -203.5q0 -109 -32.5 -204t-92 -166t-145.5 -111t-190 -40t-189.5 40t-146 111t-93 166t-32.5 204zM190 496q0 -90 26 -174t76 -148.5t124 -103.5t168 -39t167.5 39 t124 103.5t76 148.5t25.5 174t-25.5 173t-76 147.5t-124 103t-167.5 38.5t-168 -38.5t-124 -103t-76 -147.5t-26 -173zM449 1224q12 41 45 75t92 34q53 0 93 -33t40 -104q0 -35 -11 -60.5t-34 -54.5h-55q29 29 41 57.5t12 57.5q0 45 -22.5 68.5t-63.5 23.5q-70 0 -94 -76z " />
<glyph unicode="&#x1ed0;" horiz-adv-x="1564" d="M133 682q0 147 45 276t130 224.5t205 151t269 55.5q147 0 268 -55.5t205 -151t130.5 -224.5t46.5 -276t-46.5 -276.5t-130.5 -224.5t-205 -150.5t-268 -55.5q-150 0 -269.5 55.5t-204.5 150.5t-130 224.5t-45 276.5zM205 682q0 -139 40 -257t115.5 -204t182 -135 t239.5 -49q131 0 237.5 49t182.5 135t117 204t41 257q0 141 -41 259t-117 204t-182.5 134t-237.5 48q-133 0 -239.5 -48t-182 -134t-115.5 -204t-40 -259zM545 1261l201 221h73l207 -221h-57l-186 184l-181 -184h-57zM963 1346l328 222h92l-359 -222h-61z" />
<glyph unicode="&#x1ed1;" horiz-adv-x="1167" d="M123 496q0 109 32.5 204t93 164.5t145.5 109.5t190 40q104 0 190 -40t145.5 -109.5t92 -165t32.5 -203.5q0 -109 -32.5 -204t-92 -166t-145.5 -111t-190 -40t-189.5 40t-146 111t-93 166t-32.5 204zM190 496q0 -90 26 -174t76 -148.5t124 -103.5t168 -39t167.5 39 t124 103.5t76 148.5t25.5 174t-25.5 173t-76 147.5t-124 103t-167.5 38.5t-168 -38.5t-124 -103t-76 -147.5t-26 -173zM348 1139l201 295h73l207 -295h-57l-186 245l-181 -245h-57zM750 1282l328 295h92l-359 -295h-61z" />
<glyph unicode="&#x1ed2;" horiz-adv-x="1564" d="M133 682q0 147 45 276t130 224.5t205 151t269 55.5q147 0 268 -55.5t205 -151t130.5 -224.5t46.5 -276t-46.5 -276.5t-130.5 -224.5t-205 -150.5t-268 -55.5q-150 0 -269.5 55.5t-204.5 150.5t-130 224.5t-45 276.5zM182 1568h92l328 -222h-62zM205 682q0 -139 40 -257 t115.5 -204t182 -135t239.5 -49q131 0 237.5 49t182.5 135t117 204t41 257q0 141 -41 259t-117 204t-182.5 134t-237.5 48q-133 0 -239.5 -48t-182 -134t-115.5 -204t-40 -259zM545 1261l201 221h73l207 -221h-57l-186 184l-181 -184h-57z" />
<glyph unicode="&#x1ed3;" horiz-adv-x="1167" d="M0 1577h92l328 -295h-62zM123 496q0 109 32.5 204t93 164.5t145.5 109.5t190 40q104 0 190 -40t145.5 -109.5t92 -165t32.5 -203.5q0 -109 -32.5 -204t-92 -166t-145.5 -111t-190 -40t-189.5 40t-146 111t-93 166t-32.5 204zM190 496q0 -90 26 -174t76 -148.5t124 -103.5 t168 -39t167.5 39t124 103.5t76 148.5t25.5 174t-25.5 173t-76 147.5t-124 103t-167.5 38.5t-168 -38.5t-124 -103t-76 -147.5t-26 -173zM344 1139l201 295h73l207 -295h-57l-186 245l-181 -245h-57z" />
<glyph unicode="&#x1ed4;" horiz-adv-x="1564" d="M133 682q0 147 45 276t130 224.5t205 151t269 55.5q147 0 268 -55.5t205 -151t130.5 -224.5t46.5 -276t-46.5 -276.5t-130.5 -224.5t-205 -150.5t-268 -55.5q-150 0 -269.5 55.5t-204.5 150.5t-130 224.5t-45 276.5zM205 682q0 -139 40 -257t115.5 -204t182 -135 t239.5 -49q131 0 237.5 49t182.5 135t117 204t41 257q0 141 -41 259t-117 204t-182.5 134t-237.5 48q-133 0 -239.5 -48t-182 -134t-115.5 -204t-40 -259zM545 1261l201 221h73l207 -221h-57l-186 184l-181 -184h-57zM895 1507q12 31 45 56t92 25q53 0 93 -24.5t40 -77.5 q0 -26 -11 -45.5t-34 -40.5h-55q29 21 41 42.5t12 43.5q0 34 -22.5 51.5t-63.5 17.5q-70 0 -94 -57z" />
<glyph unicode="&#x1ed5;" horiz-adv-x="1167" d="M123 496q0 109 32.5 204t93 164.5t145.5 109.5t190 40q104 0 190 -40t145.5 -109.5t92 -165t32.5 -203.5q0 -109 -32.5 -204t-92 -166t-145.5 -111t-190 -40t-189.5 40t-146 111t-93 166t-32.5 204zM190 496q0 -90 26 -174t76 -148.5t124 -103.5t168 -39t167.5 39 t124 103.5t76 148.5t25.5 174t-25.5 173t-76 147.5t-124 103t-167.5 38.5t-168 -38.5t-124 -103t-76 -147.5t-26 -173zM344 1139l201 295h73l207 -295h-57l-186 245l-181 -245h-57zM606 1509q12 41 45 75t92 34q53 0 93 -33t40 -104q0 -35 -11 -60.5t-34 -54.5h-55 q29 29 41 57.5t12 57.5q0 45 -22.5 68.5t-63.5 23.5q-70 0 -94 -76z" />
<glyph unicode="&#x1ed6;" horiz-adv-x="1564" d="M133 682q0 147 45 276t130 224.5t205 151t269 55.5q147 0 268 -55.5t205 -151t130.5 -224.5t46.5 -276t-46.5 -276.5t-130.5 -224.5t-205 -150.5t-268 -55.5q-150 0 -269.5 55.5t-204.5 150.5t-130 224.5t-45 276.5zM205 682q0 -139 40 -257t115.5 -204t182 -135 t239.5 -49q131 0 237.5 49t182.5 135t117 204t41 257q0 141 -41 259t-117 204t-182.5 134t-237.5 48q-133 0 -239.5 -48t-182 -134t-115.5 -204t-40 -259zM471 1066q0 27 11.5 52.5t35 43.5t57 29t76.5 11q59 0 91 -17.5t55.5 -39.5t48 -40t67.5 -18q51 0 86 25.5t35 83.5 h53q0 -27 -11 -52.5t-34.5 -43.5t-57.5 -29t-77 -11q-59 0 -91 17.5t-55.5 39.5t-48 40t-67.5 18q-51 0 -86 -25.5t-35 -83.5h-53zM543 980l201 147h73l207 -147h-57l-186 122l-181 -122h-57z" />
<glyph unicode="&#x1ed7;" horiz-adv-x="1167" d="M123 496q0 109 32.5 204t93 164.5t145.5 109.5t190 40q104 0 190 -40t145.5 -109.5t92 -165t32.5 -203.5q0 -109 -32.5 -204t-92 -166t-145.5 -111t-190 -40t-189.5 40t-146 111t-93 166t-32.5 204zM190 496q0 -90 26 -174t76 -148.5t124 -103.5t168 -39t167.5 39 t124 103.5t76 148.5t25.5 174t-25.5 173t-76 147.5t-124 103t-167.5 38.5t-168 -38.5t-124 -103t-76 -147.5t-26 -173zM256 1409q0 55 11.5 105.5t35 87t57 59t76.5 22.5q59 0 91 -35.5t55.5 -79.5t48 -80t67.5 -36q51 0 86 51t35 168h53q0 -55 -11 -105.5t-34.5 -87 t-57.5 -59t-77 -22.5q-59 0 -91 35.5t-55.5 79.5t-48 80t-67.5 36q-51 0 -86 -51t-35 -168h-53zM338 1073l201 295h73l207 -295h-57l-186 245l-181 -245h-57z" />
<glyph unicode="&#x1ed8;" horiz-adv-x="1564" d="M133 682q0 147 45 276t130 224.5t205 151t269 55.5q147 0 268 -55.5t205 -151t130.5 -224.5t46.5 -276t-46.5 -276.5t-130.5 -224.5t-205 -150.5t-268 -55.5q-150 0 -269.5 55.5t-204.5 150.5t-130 224.5t-45 276.5zM205 682q0 -139 40 -257t115.5 -204t182 -135 t239.5 -49q131 0 237.5 49t182.5 135t117 204t41 257q0 141 -41 259t-117 204t-182.5 134t-237.5 48q-133 0 -239.5 -48t-182 -134t-115.5 -204t-40 -259zM545 1481l201 295h73l207 -295h-57l-186 245l-181 -245h-57zM729 -292q0 25 18.5 42t40.5 17q25 0 42.5 -17.5 t17.5 -41.5q0 -25 -17.5 -42.5t-42.5 -17.5q-23 0 -41 17.5t-18 42.5z" />
<glyph unicode="&#x1ed9;" horiz-adv-x="1167" d="M123 496q0 109 32.5 204t93 164.5t145.5 109.5t190 40q104 0 190 -40t145.5 -109.5t92 -165t32.5 -203.5q0 -109 -32.5 -204t-92 -166t-145.5 -111t-190 -40t-189.5 40t-146 111t-93 166t-32.5 204zM190 496q0 -90 26 -174t76 -148.5t124 -103.5t168 -39t167.5 39 t124 103.5t76 148.5t25.5 174t-25.5 173t-76 147.5t-124 103t-167.5 38.5t-168 -38.5t-124 -103t-76 -147.5t-26 -173zM342 1139l201 295h73l207 -295h-57l-186 245l-181 -245h-57zM524 -292q0 25 18.5 42t40.5 17q25 0 42.5 -17.5t17.5 -41.5q0 -25 -17.5 -42.5 t-42.5 -17.5q-23 0 -41 17.5t-18 42.5z" />
<glyph unicode="&#x1eda;" horiz-adv-x="1564" d="M133 682q0 147 45 276t130 224.5t205 151t269 55.5q158 0 283 -61.5t211 -170.5q43 37 68.5 86t25.5 92q-2 -2 -6 -2h-10q-29 0 -47.5 19.5t-18.5 48.5q0 27 18.5 46t47.5 19q33 0 56.5 -27.5t23.5 -80.5q0 -78 -38 -144.5t-87 -101.5q123 -182 123 -430 q0 -147 -46.5 -276.5t-130.5 -224.5t-205 -150.5t-268 -55.5q-150 0 -269.5 55.5t-204.5 150.5t-130 224.5t-45 276.5zM205 682q0 -139 40 -257t115.5 -204t182 -135t239.5 -49q131 0 237.5 49t182.5 135t117 204t41 257q0 141 -41 259t-117 204t-182.5 134t-237.5 48 q-133 0 -239.5 -48t-182 -134t-115.5 -204t-40 -259zM678 1481l328 295h92l-359 -295h-61z" />
<glyph unicode="&#x1edb;" horiz-adv-x="1167" d="M123 496q0 109 32.5 204t93 164.5t145.5 109.5t190 40q92 0 168.5 -32t136.5 -89q39 37 61.5 82t22.5 86q-2 -2 -6 -2h-11q-29 0 -47 19.5t-18 47.5q0 27 18.5 46.5t46.5 19.5q33 0 56.5 -28t23.5 -81q0 -70 -31.5 -131t-74.5 -100q55 -70 84.5 -161t29.5 -195 q0 -109 -32.5 -204t-92 -166t-145.5 -111t-190 -40t-189.5 40t-146 111t-93 166t-32.5 204zM190 496q0 -90 26 -174t76 -148.5t124 -103.5t168 -39t167.5 39t124 103.5t76 148.5t25.5 174t-25.5 173t-76 147.5t-124 103t-167.5 38.5t-168 -38.5t-124 -103t-76 -147.5 t-26 -173zM479 1139l328 295h92l-359 -295h-61z" />
<glyph unicode="&#x1edc;" horiz-adv-x="1564" d="M133 682q0 147 45 276t130 224.5t205 151t269 55.5q158 0 283 -61.5t211 -170.5q43 37 68.5 86t25.5 92q-2 -2 -6 -2h-10q-29 0 -47.5 19.5t-18.5 48.5q0 27 18.5 46t47.5 19q33 0 56.5 -27.5t23.5 -80.5q0 -78 -38 -144.5t-87 -101.5q123 -182 123 -430 q0 -147 -46.5 -276.5t-130.5 -224.5t-205 -150.5t-268 -55.5q-150 0 -269.5 55.5t-204.5 150.5t-130 224.5t-45 276.5zM205 682q0 -139 40 -257t115.5 -204t182 -135t239.5 -49q131 0 237.5 49t182.5 135t117 204t41 257q0 141 -41 259t-117 204t-182.5 134t-237.5 48 q-133 0 -239.5 -48t-182 -134t-115.5 -204t-40 -259zM467 1776h92l328 -295h-62z" />
<glyph unicode="&#x1edd;" horiz-adv-x="1167" d="M123 496q0 109 32.5 204t93 164.5t145.5 109.5t190 40q92 0 168.5 -32t136.5 -89q39 37 61.5 82t22.5 86q-2 -2 -6 -2h-11q-29 0 -47 19.5t-18 47.5q0 27 18.5 46.5t46.5 19.5q33 0 56.5 -28t23.5 -81q0 -70 -31.5 -131t-74.5 -100q55 -70 84.5 -161t29.5 -195 q0 -109 -32.5 -204t-92 -166t-145.5 -111t-190 -40t-189.5 40t-146 111t-93 166t-32.5 204zM190 496q0 -90 26 -174t76 -148.5t124 -103.5t168 -39t167.5 39t124 103.5t76 148.5t25.5 174t-25.5 173t-76 147.5t-124 103t-167.5 38.5t-168 -38.5t-124 -103t-76 -147.5 t-26 -173zM268 1434h92l328 -295h-62z" />
<glyph unicode="&#x1ede;" horiz-adv-x="1564" d="M133 682q0 147 45 276t130 224.5t205 151t269 55.5q158 0 283 -61.5t211 -170.5q43 37 68.5 86t25.5 92q-2 -2 -6 -2h-10q-29 0 -47.5 19.5t-18.5 48.5q0 27 18.5 46t47.5 19q33 0 56.5 -27.5t23.5 -80.5q0 -78 -38 -144.5t-87 -101.5q123 -182 123 -430 q0 -147 -46.5 -276.5t-130.5 -224.5t-205 -150.5t-268 -55.5q-150 0 -269.5 55.5t-204.5 150.5t-130 224.5t-45 276.5zM205 682q0 -139 40 -257t115.5 -204t182 -135t239.5 -49q131 0 237.5 49t182.5 135t117 204t41 257q0 141 -41 259t-117 204t-182.5 134t-237.5 48 q-133 0 -239.5 -48t-182 -134t-115.5 -204t-40 -259zM647 1570q12 41 45 75t92 34q53 0 93 -33t40 -104q0 -35 -11 -60.5t-34 -54.5h-55q29 29 41 57.5t12 57.5q0 45 -22.5 68.5t-63.5 23.5q-70 0 -94 -76z" />
<glyph unicode="&#x1edf;" horiz-adv-x="1167" d="M123 496q0 109 32.5 204t93 164.5t145.5 109.5t190 40q92 0 168.5 -32t136.5 -89q39 37 61.5 82t22.5 86q-2 -2 -6 -2h-11q-29 0 -47 19.5t-18 47.5q0 27 18.5 46.5t46.5 19.5q33 0 56.5 -28t23.5 -81q0 -70 -31.5 -131t-74.5 -100q55 -70 84.5 -161t29.5 -195 q0 -109 -32.5 -204t-92 -166t-145.5 -111t-190 -40t-189.5 40t-146 111t-93 166t-32.5 204zM190 496q0 -90 26 -174t76 -148.5t124 -103.5t168 -39t167.5 39t124 103.5t76 148.5t25.5 174t-25.5 173t-76 147.5t-124 103t-167.5 38.5t-168 -38.5t-124 -103t-76 -147.5 t-26 -173zM449 1224q12 41 45 75t92 34q53 0 93 -33t40 -104q0 -35 -11 -60.5t-34 -54.5h-55q29 29 41 57.5t12 57.5q0 45 -22.5 68.5t-63.5 23.5q-70 0 -94 -76z" />
<glyph unicode="&#x1ee0;" horiz-adv-x="1564" d="M133 682q0 147 45 276t130 224.5t205 151t269 55.5q158 0 283 -61.5t211 -170.5q43 37 68.5 86t25.5 92q-2 -2 -6 -2h-10q-29 0 -47.5 19.5t-18.5 48.5q0 27 18.5 46t47.5 19q33 0 56.5 -27.5t23.5 -80.5q0 -78 -38 -144.5t-87 -101.5q123 -182 123 -430 q0 -147 -46.5 -276.5t-130.5 -224.5t-205 -150.5t-268 -55.5q-150 0 -269.5 55.5t-204.5 150.5t-130 224.5t-45 276.5zM205 682q0 -139 40 -257t115.5 -204t182 -135t239.5 -49q131 0 237.5 49t182.5 135t117 204t41 257q0 141 -41 259t-117 204t-182.5 134t-237.5 48 q-133 0 -239.5 -48t-182 -134t-115.5 -204t-40 -259zM475 1489q0 55 11.5 105.5t35 87t57 59t76.5 22.5q59 0 91 -35.5t55.5 -79.5t48 -80t67.5 -36q51 0 86 51t35 168h53q0 -55 -11 -105.5t-34.5 -87t-57.5 -59t-77 -22.5q-59 0 -91 35.5t-55.5 79.5t-48 80t-67.5 36 q-51 0 -86 -51t-35 -168h-53z" />
<glyph unicode="&#x1ee1;" horiz-adv-x="1167" d="M123 496q0 109 32.5 204t93 164.5t145.5 109.5t190 40q92 0 168.5 -32t136.5 -89q39 37 61.5 82t22.5 86q-2 -2 -6 -2h-11q-29 0 -47 19.5t-18 47.5q0 27 18.5 46.5t46.5 19.5q33 0 56.5 -28t23.5 -81q0 -70 -31.5 -131t-74.5 -100q55 -70 84.5 -161t29.5 -195 q0 -109 -32.5 -204t-92 -166t-145.5 -111t-190 -40t-189.5 40t-146 111t-93 166t-32.5 204zM190 496q0 -90 26 -174t76 -148.5t124 -103.5t168 -39t167.5 39t124 103.5t76 148.5t25.5 174t-25.5 173t-76 147.5t-124 103t-167.5 38.5t-168 -38.5t-124 -103t-76 -147.5 t-26 -173zM274 1147q0 55 11.5 105.5t35 87t57 59t76.5 22.5q59 0 91 -35.5t55.5 -79.5t48 -80t67.5 -36q51 0 86 51t35 168h53q0 -55 -11 -105.5t-34.5 -87t-57.5 -59t-77 -22.5q-59 0 -91 35.5t-55.5 79.5t-48 80t-67.5 36q-51 0 -86 -51t-35 -168h-53z" />
<glyph unicode="&#x1ee2;" horiz-adv-x="1564" d="M133 682q0 147 45 276t130 224.5t205 151t269 55.5q158 0 283 -61.5t211 -170.5q43 37 68.5 86t25.5 92q-2 -2 -6 -2h-10q-29 0 -47.5 19.5t-18.5 48.5q0 27 18.5 46t47.5 19q33 0 56.5 -27.5t23.5 -80.5q0 -78 -38 -144.5t-87 -101.5q123 -182 123 -430 q0 -147 -46.5 -276.5t-130.5 -224.5t-205 -150.5t-268 -55.5q-150 0 -269.5 55.5t-204.5 150.5t-130 224.5t-45 276.5zM205 682q0 -139 40 -257t115.5 -204t182 -135t239.5 -49q131 0 237.5 49t182.5 135t117 204t41 257q0 141 -41 259t-117 204t-182.5 134t-237.5 48 q-133 0 -239.5 -48t-182 -134t-115.5 -204t-40 -259zM725 -292q0 25 18.5 42t40.5 17q25 0 42.5 -17.5t17.5 -41.5q0 -25 -17.5 -42.5t-42.5 -17.5q-23 0 -41 17.5t-18 42.5z" />
<glyph unicode="&#x1ee3;" horiz-adv-x="1167" d="M123 496q0 109 32.5 204t93 164.5t145.5 109.5t190 40q92 0 168.5 -32t136.5 -89q39 37 61.5 82t22.5 86q-2 -2 -6 -2h-11q-29 0 -47 19.5t-18 47.5q0 27 18.5 46.5t46.5 19.5q33 0 56.5 -28t23.5 -81q0 -70 -31.5 -131t-74.5 -100q55 -70 84.5 -161t29.5 -195 q0 -109 -32.5 -204t-92 -166t-145.5 -111t-190 -40t-189.5 40t-146 111t-93 166t-32.5 204zM190 496q0 -90 26 -174t76 -148.5t124 -103.5t168 -39t167.5 39t124 103.5t76 148.5t25.5 174t-25.5 173t-76 147.5t-124 103t-167.5 38.5t-168 -38.5t-124 -103t-76 -147.5 t-26 -173zM524 -292q0 25 18.5 42t40.5 17q25 0 42.5 -17.5t17.5 -41.5q0 -25 -17.5 -42.5t-42.5 -17.5q-23 0 -41 17.5t-18 42.5z" />
</font>
</defs>
</svg>
