<?xml version="1.0" standalone="no"?>
<!DOCTYPE svg PUBLIC "-//W3C//DTD SVG 1.1//EN" "http://www.w3.org/Graphics/SVG/1.1/DTD/svg11.dtd" >
<svg xmlns="http://www.w3.org/2000/svg" xmlns:xlink="http://www.w3.org/1999/xlink" version="1.1">
<metadata>
Created by FontForge 20150824 at Fri Mar 18 00:56:14 2016
 By Everything Fonts
Copyright (c) 2005-2013 Canada Type. Trump Gothic is a trade mark of Canada Type. All rights reserved.
</metadata>
<defs>
<font id="TrumpGothicPro-Medium" horiz-adv-x="298" >
  <font-face 
    font-family="Trump Gothic Pro Medium"
    font-weight="500"
    font-stretch="normal"
    units-per-em="1000"
    panose-1="2 0 5 8 2 0 0 2 0 4"
    ascent="780"
    descent="-220"
    x-height="567"
    cap-height="766"
    bbox="-95 -228 1032 967"
    underline-thickness="50"
    underline-position="-100"
    unicode-range="U+0020-FB04"
  />
<missing-glyph horiz-adv-x="430" 
d="M380 0h-330v766h330v-766zM110 132l92 265l-92 244v-509zM299 52l-80 278l-87 -278h167zM219 468l76 246h-155zM320 130v510l-76 -244z" />
    <glyph glyph-name="ff" unicode="ff" horiz-adv-x="389" 
d="M139 0h-80v493h-55v74h55v62c0 111 33 145 99 145c16 0 34 -2 47 -6v-66c-8 1 -16 1 -22 1c-38 0 -44 -23 -44 -73v-63h102v62c0 111 33 145 99 145c16 0 34 -2 47 -6v-66c-8 1 -16 1 -22 1c-38 0 -44 -23 -44 -73v-63h65v-74h-65v-493h-80v493h-102v-493z" />
    <glyph glyph-name="fi" unicode="fi" horiz-adv-x="355" 
d="M139 0h-80v493h-55v74h55v62c0 111 33 145 99 145c16 0 34 -2 47 -6v-66c-8 1 -16 1 -22 1c-38 0 -44 -23 -44 -73v-63h65v-74h-65v-493zM321 0h-80v567h80v-567zM281 632c-30 0 -54 24 -54 54s24 54 54 54s54 -24 54 -54s-24 -54 -54 -54z" />
    <glyph glyph-name="f_j" unicode="fj" horiz-adv-x="355" 
d="M139 0h-80v493h-55v74h55v62c0 111 33 145 99 145c16 0 34 -2 47 -6v-66c-8 1 -16 1 -22 1c-38 0 -44 -23 -44 -73v-63h65v-74h-65v-493zM175 -202v65c8 -1 11 -1 17 -1c45 0 49 27 49 77v628h80v-629c0 -98 -23 -145 -104 -145c-16 0 -29 2 -42 5zM281 632
c-30 0 -54 24 -54 54s24 54 54 54s54 -24 54 -54s-24 -54 -54 -54z" />
    <glyph glyph-name="fl" unicode="fl" horiz-adv-x="356" 
d="M139 0h-80v493h-55v74h55v62c0 111 33 145 99 145c16 0 34 -2 47 -6v-66c-8 1 -16 1 -22 1c-38 0 -44 -23 -44 -73v-63h65v-74h-65v-493zM321 0h-80v766h80v-766z" />
    <glyph glyph-name="f_t" unicode="ft" horiz-adv-x="394" 
d="M387 64v-67c-13 -3 -25 -5 -43 -5c-80 0 -103 42 -103 150v351h-102v-493h-80v493h-55v74h55v62c0 111 33 145 99 145c16 0 34 -2 47 -6v-66c-8 1 -16 1 -22 1c-38 0 -44 -23 -44 -73v-63h102v140h80v-140h65v-74h-65v-357c0 -50 6 -73 45 -73c5 0 13 0 21 1z" />
    <glyph glyph-name="ffi" unicode="ffi" horiz-adv-x="537" 
d="M503 0h-80v567h80v-567zM463 632c-30 0 -54 24 -54 54s24 54 54 54s54 -24 54 -54s-24 -54 -54 -54zM139 0h-80v493h-55v74h55v62c0 111 33 145 99 145c16 0 34 -2 47 -6v-66c-8 1 -16 1 -22 1c-38 0 -44 -23 -44 -73v-63h102v62c0 111 33 145 99 145c16 0 34 -2 47 -6
v-66c-8 1 -16 1 -22 1c-38 0 -44 -23 -44 -73v-63h65v-74h-65v-493h-80v493h-102v-493z" />
    <glyph glyph-name="ffl" unicode="ffl" horiz-adv-x="538" 
d="M503 0h-80v766h80v-766zM139 0h-80v493h-55v74h55v62c0 111 33 145 99 145c16 0 34 -2 47 -6v-66c-8 1 -16 1 -22 1c-38 0 -44 -23 -44 -73v-63h102v62c0 111 33 145 99 145c16 0 34 -2 47 -6v-66c-8 1 -16 1 -22 1c-38 0 -44 -23 -44 -73v-63h65v-74h-65v-493h-80v493
h-102v-493z" />
    <glyph glyph-name="copyright" unicode="&#x28;C&#x29;" horiz-adv-x="692" 
d="M344 -8c-223 0 -320 146 -320 388c0 244 98 391 321 391c222 0 322 -147 322 -390c0 -242 -99 -389 -323 -389zM347 62c173 0 248 114 248 318c0 207 -77 322 -251 322c-177 0 -248 -119 -248 -318c0 -212 81 -322 251 -322zM469 319v-32c0 -120 -47 -160 -122 -160
c-76 0 -122 41 -122 160v192c0 119 46 160 122 160c75 0 122 -40 122 -160v-35h-76v43c0 54 -17 76 -46 76c-30 0 -46 -22 -46 -76v-208c0 -54 16 -76 46 -76c29 0 46 22 46 76v40h76z" />
    <glyph glyph-name="uni2117" unicode="&#x28;P&#x29;" horiz-adv-x="692" 
d="M344 -8c-223 0 -320 146 -320 388c0 244 98 391 321 391c222 0 322 -147 322 -390c0 -242 -99 -389 -323 -389zM347 62c173 0 248 114 248 318c0 207 -77 322 -251 322c-177 0 -248 -119 -248 -318c0 -212 81 -322 251 -322zM320 137h-76v492h102c84 0 143 -12 143 -135
v-48c0 -103 -33 -138 -133 -138h-36v-171zM412 446v46c0 48 -15 65 -47 65h-45v-175h45c32 0 47 17 47 64z" />
    <glyph glyph-name="registered" unicode="&#x28;R&#x29;" horiz-adv-x="390" 
d="M194 367c-116 0 -174 75 -174 204c0 124 53 200 175 200c121 0 175 -76 175 -200c0 -129 -59 -204 -176 -204zM196 408c95 0 131 59 131 161c0 103 -37 160 -133 160c-97 0 -131 -59 -131 -158c0 -106 39 -163 133 -163zM274 450h-51l-28 86h-14v-85h-50v238h65
c54 0 78 -11 78 -76c0 -42 -10 -61 -32 -69zM224 610v6c0 20 -8 31 -24 31h-19v-67h19c16 0 24 9 24 30z" />
    <glyph glyph-name="trademark" unicode="&#x28;TM&#x29;" horiz-adv-x="640" 
d="M600 414h-62v249l-80 -249h-34l-74 247v-247h-61v352h83l72 -232l72 232h84v-352zM167 414h-62v291h-88v61h238v-61h-88v-291z" />
    <glyph glyph-name=".notdef" horiz-adv-x="430" 
d="M380 0h-330v766h330v-766zM110 132l92 265l-92 244v-509zM299 52l-80 278l-87 -278h167zM219 468l76 246h-155zM320 130v510l-76 -244z" />
    <glyph glyph-name="apple" unicode="&#xf8ff;" horiz-adv-x="1006" 
d="M604 0h-202l-100 503l201 198l202 -198zM353 0h-172l-131 171l86 163l166 -82zM826 0h-172l51 252l165 82l86 -163z" />
    <glyph glyph-name="space" unicode=" " horiz-adv-x="124" 
 />
    <glyph glyph-name="nbspace" unicode="&#xa0;" horiz-adv-x="124" 
 />
    <glyph glyph-name="A" unicode="A" horiz-adv-x="325" 
d="M321 0h-82l-21 180h-111l-21 -180h-82l103 766h110zM208 257l-46 396l-45 -396h91z" />
    <glyph glyph-name="B" unicode="B" horiz-adv-x="346" 
d="M183 0h-144v766h138c87 0 133 -43 133 -159v-98c0 -52 -17 -98 -73 -116c60 -17 83 -66 83 -123v-110c0 -122 -50 -160 -137 -160zM228 507v104c0 56 -18 75 -56 75h-51v-255h51c38 0 56 20 56 76zM238 155v121c0 56 -28 76 -66 76h-51v-273h61c38 0 56 20 56 76z" />
    <glyph glyph-name="C" unicode="C" horiz-adv-x="338" 
d="M311 256v-109c0 -122 -62 -160 -138 -160c-77 0 -138 39 -138 160v472c0 121 61 160 140 160c74 0 136 -35 136 -157v-123h-82v127c0 54 -26 76 -57 76c-38 0 -55 -32 -55 -105v-457c0 -55 26 -76 57 -76c36 0 55 29 55 98v94h82z" />
    <glyph glyph-name="D" unicode="D" horiz-adv-x="346" 
d="M173 0h-134v766h134c87 0 137 -35 137 -160v-446c0 -125 -50 -160 -137 -160zM228 155v455c0 56 -18 76 -56 76h-51v-607h51c38 0 56 20 56 76z" />
    <glyph glyph-name="E" unicode="E" horiz-adv-x="304" 
d="M278 0h-239v766h239v-80h-157v-260h150v-80h-150v-267h157v-79z" />
    <glyph glyph-name="F" unicode="F" horiz-adv-x="299" 
d="M121 0h-82v766h239v-80h-157v-260h150v-80h-150v-346z" />
    <glyph glyph-name="G" unicode="G" horiz-adv-x="352" 
d="M239 140v165h-68v79h150v-237c0 -122 -62 -160 -143 -160c-82 0 -143 39 -143 160v472c0 121 60 160 143 160c84 0 143 -40 143 -160v-120h-82v127c0 54 -27 76 -61 76c-35 0 -61 -22 -61 -76v-486c0 -55 26 -76 61 -76c34 0 61 21 61 76z" />
    <glyph glyph-name="H" unicode="H" horiz-adv-x="355" 
d="M315 0h-82v349h-112v-349h-82v766h82v-338h112v338h82v-766z" />
    <glyph glyph-name="I" unicode="I" horiz-adv-x="161" 
d="M121 0h-82v766h82v-766z" />
    <glyph glyph-name="J" unicode="J" horiz-adv-x="161" 
d="M-17 -192h-3v77h3c28 0 56 20 56 76v805h82v-804c0 -125 -73 -154 -138 -154z" />
    <glyph glyph-name="K" unicode="K" horiz-adv-x="337" 
d="M345 0h-82l-141 383l122 383h82l-116 -380zM121 0h-82v766h82v-766z" />
    <glyph glyph-name="L" unicode="L" horiz-adv-x="241" 
d="M233 0h-194v766h82v-687h112v-79z" />
    <glyph glyph-name="M" unicode="M" horiz-adv-x="509" 
d="M469 0h-82l3 599l-106 -599h-66l-100 600l3 -600h-82v766h130l85 -542l85 542h130v-766z" />
    <glyph glyph-name="N" unicode="N" horiz-adv-x="392" 
d="M352 0h-98l-135 523l2 -523h-82v766h94l139 -532l-2 532h82v-766z" />
    <glyph glyph-name="O" unicode="O" horiz-adv-x="347" 
d="M35 147v472c0 121 60 160 141 160s135 -40 135 -160v-472c0 -122 -62 -160 -138 -160c-77 0 -138 39 -138 160zM229 140v486c0 54 -27 76 -56 76c-30 0 -56 -22 -56 -76v-486c0 -55 26 -76 56 -76c29 0 56 21 56 76z" />
    <glyph glyph-name="P" unicode="P" horiz-adv-x="331" 
d="M121 0h-82v766h132c87 0 139 -35 139 -160v-125c0 -125 -49 -160 -136 -160h-53v-321zM228 477v133c0 56 -18 76 -56 76h-51v-285h51c38 0 56 20 56 76z" />
    <glyph glyph-name="Q" unicode="Q" horiz-adv-x="347" 
d="M299 -107l-64 -30l-56 124c-103 0 -144 60 -144 160v472c0 121 61 160 141 160c79 0 135 -38 135 -160v-472c0 -76 -20 -118 -65 -142zM229 140v486c0 54 -26 76 -56 76c-29 0 -56 -22 -56 -76v-486c0 -55 27 -76 56 -76c30 0 56 21 56 76z" />
    <glyph glyph-name="R" unicode="R" horiz-adv-x="336" 
d="M330 0h-82l-89 324h-38v-324h-82v766h134c87 0 137 -35 137 -160v-119c0 -83 -18 -130 -74 -149zM228 479v131c0 56 -18 76 -56 76h-51v-283h51c38 0 56 20 56 76z" />
    <glyph glyph-name="S" unicode="S" horiz-adv-x="333" 
d="M304 239v-87c0 -111 -45 -165 -137 -165c-94 0 -139 56 -139 165v104h82v-116c0 -55 27 -76 57 -76c33 0 55 25 55 93v66c0 95 -194 157 -194 305v97c0 123 72 154 141 154c68 0 135 -31 135 -155v-125h-82v127c0 55 -27 76 -57 76c-33 0 -55 -25 -55 -94v-66
c0 -126 194 -160 194 -303z" />
    <glyph glyph-name="T" unicode="T" horiz-adv-x="288" 
d="M185 0h-82v686h-95v80h272v-80h-95v-686z" />
    <glyph glyph-name="U" unicode="U" horiz-adv-x="352" 
d="M232 140v626h82v-619c0 -122 -62 -160 -138 -160c-77 0 -138 39 -138 160v619h82v-626c0 -55 26 -76 56 -76c29 0 56 21 56 76z" />
    <glyph glyph-name="V" unicode="V" horiz-adv-x="314" 
d="M305 766l-93 -766h-110l-94 766h82l67 -653l66 653h82z" />
    <glyph glyph-name="W" unicode="W" horiz-adv-x="534" 
d="M524 766l-84 -766h-107l-66 597l-65 -597h-108l-84 766h82l57 -613l66 613h104l66 -613l57 613h82z" />
    <glyph glyph-name="X" unicode="X" horiz-adv-x="337" 
d="M337 0h-82l-84 298l-94 -298h-82l133 394l-127 372h83l87 -273l81 273h83l-114 -373z" />
    <glyph glyph-name="Y" unicode="Y" horiz-adv-x="326" 
d="M203 0h-81v276l-118 490h83l75 -360l77 360h83l-119 -490v-276z" />
    <glyph glyph-name="Z" unicode="Z" horiz-adv-x="285" 
d="M270 0h-256v79l160 607h-151v80h247v-36l-172 -651h172v-79z" />
    <glyph glyph-name="a" unicode="a" horiz-adv-x="291" 
d="M258 0h-67l-9 46c-12 -23 -31 -54 -80 -54s-76 31 -76 162v14c0 112 22 151 77 151c40 0 60 -20 75 -46v151c0 56 -8 76 -36 76s-36 -20 -36 -76v-38h-80v30c0 104 24 159 117 159s115 -55 115 -167v-408zM178 142v32c0 47 -10 69 -37 69c-30 0 -35 -26 -35 -89v-15
c0 -50 8 -72 34 -72c20 0 38 13 38 75z" />
    <glyph glyph-name="b" unicode="b" horiz-adv-x="296" 
d="M101 0h-67v766h80v-242c13 23 31 51 77 51c59 0 75 -47 75 -153v-277c0 -107 -16 -153 -75 -153c-49 0 -70 32 -81 54zM186 142v283c0 53 -8 75 -34 75c-25 0 -38 -19 -38 -81v-272c0 -61 13 -81 38 -81c26 0 34 22 34 76z" />
    <glyph glyph-name="c" unicode="c" horiz-adv-x="286" 
d="M262 222v-73c0 -118 -35 -157 -116 -157c-82 0 -116 40 -116 160v262c0 120 35 161 116 161c80 0 116 -39 116 -156v-60h-80v75c0 48 -11 66 -37 66c-31 0 -35 -27 -35 -89v-278c0 -47 10 -66 36 -66c31 0 36 25 36 86v69h80z" />
    <glyph glyph-name="d" unicode="d" horiz-adv-x="296" 
d="M262 0h-66l-9 46c-12 -22 -32 -54 -81 -54c-60 0 -76 46 -76 153v277c0 106 16 153 75 153c46 0 65 -28 77 -51v242h80v-766zM182 147v272c0 62 -13 81 -38 81c-26 0 -34 -22 -34 -75v-283c0 -54 8 -76 34 -76c25 0 38 20 38 81z" />
    <glyph glyph-name="e" unicode="e" horiz-adv-x="288" 
d="M262 187v-37c0 -119 -35 -158 -116 -158c-82 0 -116 40 -116 160v262c0 120 35 161 117 161c81 0 115 -40 115 -164v-160h-152v-118c0 -47 10 -66 36 -66c25 0 36 19 36 66v54h80zM182 325v90c0 61 -5 85 -36 85c-32 0 -36 -24 -36 -85v-90h72z" />
    <glyph glyph-name="f" unicode="f" horiz-adv-x="207" 
d="M139 0h-80v493h-55v74h55v62c0 111 33 145 99 145c16 0 34 -2 47 -6v-66c-8 1 -16 1 -22 1c-38 0 -44 -23 -44 -73v-63h65v-74h-65v-493z" />
    <glyph glyph-name="g" unicode="g" horiz-adv-x="293" 
d="M262 7v-63c0 -109 -43 -146 -122 -146c-85 0 -120 43 -120 155v60c0 53 13 82 31 107c-7 13 -14 24 -14 42c0 22 10 42 35 67c-26 23 -42 55 -42 117v79c0 108 34 150 113 150c27 0 45 -5 61 -15h87v-47l-48 1c14 -22 19 -48 19 -84v-81c0 -104 -39 -142 -117 -142
c-10 0 -18 0 -27 2c-9 -8 -14 -16 -14 -25c0 -16 15 -27 48 -27c71 -1 110 -37 110 -150zM182 357v67c0 56 -8 76 -36 76s-36 -20 -36 -76v-67c0 -56 8 -76 36 -76s36 20 36 76zM182 -55v56c0 63 -7 81 -40 81c-32 0 -42 -18 -42 -73v-60c0 -57 13 -76 42 -76
c27 0 40 16 40 72z" />
    <glyph glyph-name="h" unicode="h" 
d="M265 0h-80v425c0 53 -8 75 -34 75c-25 0 -38 -19 -38 -81v-419h-80v766h80v-242c12 21 30 51 77 51c59 0 75 -46 75 -153v-422z" />
    <glyph glyph-name="i" unicode="i" horiz-adv-x="147" 
d="M113 0h-80v567h80v-567zM73 632c-30 0 -54 24 -54 54s24 54 54 54s54 -24 54 -54s-24 -54 -54 -54z" />
    <glyph glyph-name="j" unicode="j" horiz-adv-x="147" 
d="M-33 -202v65c8 -1 11 -1 17 -1c45 0 49 27 49 77v628h80v-629c0 -98 -23 -145 -104 -145c-16 0 -29 2 -42 5zM73 632c-30 0 -54 24 -54 54s24 54 54 54s54 -24 54 -54s-24 -54 -54 -54z" />
    <glyph glyph-name="k" unicode="k" horiz-adv-x="299" 
d="M297 0h-81l-102 290l102 277h82l-98 -274zM113 0h-80v766h80v-766z" />
    <glyph glyph-name="l" unicode="l" horiz-adv-x="149" 
d="M114 0h-80v766h80v-766z" />
    <glyph glyph-name="m" unicode="m" horiz-adv-x="450" 
d="M418 0h-80v425c0 53 -8 75 -34 75c-25 0 -38 -19 -38 -78v-422h-80v425c0 53 -8 75 -34 75c-25 0 -38 -19 -38 -81v-419h-80v567h67l9 -46c11 22 32 54 81 54c39 0 59 -20 69 -64c15 34 37 64 83 64c59 0 75 -47 75 -153v-422z" />
    <glyph glyph-name="n" unicode="n" 
d="M266 0h-80v425c0 53 -8 75 -34 75c-25 0 -38 -19 -38 -81v-419h-80v567h67l9 -46c11 22 32 54 81 54c59 0 75 -46 75 -153v-422z" />
    <glyph glyph-name="o" unicode="o" horiz-adv-x="293" 
d="M262 436v-305c0 -103 -43 -139 -116 -139c-74 0 -116 37 -116 139v305c0 102 42 139 116 139c73 0 116 -36 116 -139zM182 133v301c0 48 -11 66 -37 66c-32 0 -35 -29 -35 -92v-275c0 -47 10 -66 36 -66c25 0 36 19 36 66z" />
    <glyph glyph-name="p" unicode="p" horiz-adv-x="297" 
d="M114 -199h-80v766h67l9 -46c11 22 32 54 81 54c59 0 75 -46 75 -153v-277c0 -108 -16 -153 -76 -153c-45 0 -64 26 -76 46v-237zM186 142v283c0 53 -8 75 -34 75c-25 0 -38 -19 -38 -81v-272c0 -61 13 -81 38 -81c26 0 34 22 34 76z" />
    <glyph glyph-name="q" unicode="q" horiz-adv-x="297" 
d="M263 -199h-80v237c-12 -20 -31 -46 -76 -46c-60 0 -76 45 -76 153v277c0 107 16 153 75 153c49 0 70 -32 81 -54l9 46h67v-766zM183 147v272c0 62 -13 81 -38 81c-26 0 -34 -22 -34 -75v-283c0 -54 8 -76 34 -76c25 0 38 20 38 81z" />
    <glyph glyph-name="r" unicode="r" horiz-adv-x="227" 
d="M114 0h-80v567h67l9 -46c8 19 34 53 75 53c20 0 37 -8 43 -12l-17 -84c-19 9 -37 13 -50 13c-35 0 -47 -30 -47 -112v-379z" />
    <glyph glyph-name="s" unicode="s" horiz-adv-x="284" 
d="M101 187v-46c0 -51 8 -74 40 -74c31 0 42 21 42 59c0 146 -162 112 -162 309c0 104 45 140 123 140c81 0 119 -38 119 -145v-52h-80v46c0 56 -8 76 -40 76s-41 -21 -41 -60c0 -164 161 -109 161 -309c0 -98 -39 -139 -123 -139c-86 0 -119 44 -119 149v46h80z" />
    <glyph glyph-name="t" unicode="t" horiz-adv-x="204" 
d="M197 64v-67c-13 -3 -25 -5 -43 -5c-80 0 -103 42 -103 150v351h-45v74h45v140h80v-140h65v-74h-65v-357c0 -50 6 -73 45 -73c5 0 13 0 21 1z" />
    <glyph glyph-name="u" unicode="u" 
d="M264 0h-67l-9 46c-11 -22 -32 -54 -81 -54c-59 0 -75 46 -75 153v422h80v-425c0 -54 8 -76 34 -76c25 0 38 20 38 81v420h80v-567z" />
    <glyph glyph-name="v" unicode="v" horiz-adv-x="275" 
d="M191 0h-106l-77 567h84l45 -470l46 470h84z" />
    <glyph glyph-name="w" unicode="w" horiz-adv-x="453" 
d="M369 0h-99l-43 414l-43 -414h-99l-77 567h84l45 -440l46 440h88l46 -440l45 440h84z" />
    <glyph glyph-name="x" unicode="x" horiz-adv-x="277" 
d="M274 0h-79l-61 199l-53 -199h-78l89 290l-88 277h79l55 -182l53 182h81l-92 -278z" />
    <glyph glyph-name="y" unicode="y" horiz-adv-x="280" 
d="M159 -200h-84l30 165l-99 602h84l53 -437l48 437h84z" />
    <glyph glyph-name="z" unicode="z" horiz-adv-x="255" 
d="M232 0h-222v68l142 425h-123v74h215v-55l-144 -437h132v-75z" />
    <glyph glyph-name="germandbls" unicode="&#xdf;" horiz-adv-x="312" 
d="M140 -3v71c8 -1 12 -1 17 -1c48 0 49 28 49 77v161c0 55 -7 118 -56 127v68c48 11 56 63 56 114v22c0 39 -13 61 -46 61s-46 -22 -46 -61v-636h-80v634c0 96 42 138 126 138s126 -42 126 -138v-34c0 -86 -37 -121 -76 -132c39 -8 76 -37 76 -121v-205
c0 -89 -23 -150 -105 -150c-15 0 -28 2 -41 5z" />
    <glyph glyph-name="Agrave" unicode="&#xc0;" horiz-adv-x="325" 
d="M321 0h-82l-21 180h-111l-21 -180h-82l103 766h110zM208 257l-46 396l-45 -396h91zM204 838h-63l-79 116h91z" />
    <glyph glyph-name="agrave" unicode="&#xe0;" horiz-adv-x="291" 
d="M258 0h-67l-9 46c-12 -23 -31 -54 -80 -54s-76 31 -76 162v14c0 112 22 151 77 151c40 0 60 -20 75 -46v151c0 56 -8 76 -36 76s-36 -20 -36 -76v-38h-80v30c0 104 24 159 117 159s115 -55 115 -167v-408zM178 142v32c0 47 -10 69 -37 69c-30 0 -35 -26 -35 -89v-15
c0 -50 8 -72 34 -72c20 0 38 13 38 75zM193 639h-63l-79 116h91z" />
    <glyph glyph-name="Aacute" unicode="&#xc1;" horiz-adv-x="325" 
d="M321 0h-82l-21 180h-111l-21 -180h-82l103 766h110zM208 257l-46 396l-45 -396h91zM185 838h-63l50 116h91z" />
    <glyph glyph-name="aacute" unicode="&#xe1;" horiz-adv-x="291" 
d="M258 0h-67l-9 46c-12 -23 -31 -54 -80 -54s-76 31 -76 162v14c0 112 22 151 77 151c40 0 60 -20 75 -46v151c0 56 -8 76 -36 76s-36 -20 -36 -76v-38h-80v30c0 104 24 159 117 159s115 -55 115 -167v-408zM178 142v32c0 47 -10 69 -37 69c-30 0 -35 -26 -35 -89v-15
c0 -50 8 -72 34 -72c20 0 38 13 38 75zM161 639h-63l50 116h91z" />
    <glyph glyph-name="Acircumflex" unicode="&#xc2;" horiz-adv-x="325" 
d="M321 0h-82l-21 180h-111l-21 -180h-82l103 766h110zM208 257l-46 396l-45 -396h91zM270 838h-66l-42 70l-38 -70h-68l66 121h80z" />
    <glyph glyph-name="acircumflex" unicode="&#xe2;" horiz-adv-x="291" 
d="M258 0h-67l-9 46c-12 -23 -31 -54 -80 -54s-76 31 -76 162v14c0 112 22 151 77 151c40 0 60 -20 75 -46v151c0 56 -8 76 -36 76s-36 -20 -36 -76v-38h-80v30c0 104 24 159 117 159s115 -55 115 -167v-408zM178 142v32c0 47 -10 69 -37 69c-30 0 -35 -26 -35 -89v-15
c0 -50 8 -72 34 -72c20 0 38 13 38 75zM249 639h-66l-42 70l-38 -70h-68l66 121h80z" />
    <glyph glyph-name="Atilde" unicode="&#xc3;" horiz-adv-x="325" 
d="M321 0h-82l-21 180h-111l-21 -180h-82l103 766h110zM208 257l-46 396l-45 -396h91zM212 917h62c-4 -46 -28 -79 -68 -79c-29 0 -47 18 -71 18c-12 0 -20 -4 -22 -18h-60c1 32 18 79 66 79c29 0 52 -17 72 -17c13 0 20 7 21 17z" />
    <glyph glyph-name="atilde" unicode="&#xe3;" horiz-adv-x="291" 
d="M258 0h-67l-9 46c-12 -23 -31 -54 -80 -54s-76 31 -76 162v14c0 112 22 151 77 151c40 0 60 -20 75 -46v151c0 56 -8 76 -36 76s-36 -20 -36 -76v-38h-80v30c0 104 24 159 117 159s115 -55 115 -167v-408zM178 142v32c0 47 -10 69 -37 69c-30 0 -35 -26 -35 -89v-15
c0 -50 8 -72 34 -72c20 0 38 13 38 75zM191 718h62c-4 -46 -28 -79 -68 -79c-29 0 -47 18 -71 18c-12 0 -20 -4 -22 -18h-60c1 32 18 79 66 79c29 0 52 -17 72 -17c13 0 20 7 21 17z" />
    <glyph glyph-name="Adieresis" unicode="&#xc4;" horiz-adv-x="325" 
d="M321 0h-82l-21 180h-111l-21 -180h-82l103 766h110zM208 257l-46 396l-45 -396h91zM88 828c-28 0 -51 23 -51 52c0 28 23 51 51 51c29 0 51 -23 51 -51c0 -29 -22 -52 -51 -52zM239 828c-28 0 -51 23 -51 52c0 28 23 51 51 51c29 0 51 -23 51 -51c0 -29 -22 -52 -51 -52z
" />
    <glyph glyph-name="adieresis" unicode="&#xe4;" horiz-adv-x="290" 
d="M258 0h-67l-9 46c-12 -23 -31 -54 -80 -54s-76 31 -76 162v14c0 112 22 151 77 151c40 0 60 -20 75 -46v151c0 56 -8 76 -36 76s-36 -20 -36 -76v-38h-80v30c0 104 24 159 117 159s115 -55 115 -167v-408zM178 142v32c0 47 -10 69 -37 69c-30 0 -35 -26 -35 -89v-15
c0 -50 8 -72 34 -72c20 0 38 13 38 75zM67 629c-28 0 -51 23 -51 52c0 28 23 51 51 51c29 0 51 -23 51 -51c0 -29 -22 -52 -51 -52zM218 629c-28 0 -51 23 -51 52c0 28 23 51 51 51c29 0 51 -23 51 -51c0 -29 -22 -52 -51 -52z" />
    <glyph glyph-name="Aring" unicode="&#xc5;" horiz-adv-x="325" 
d="M321 0h-82l-21 180h-111l-21 -180h-82l103 766h110zM208 257l-46 396l-45 -396h91zM197 887c0 19 -15 33 -34 33s-33 -14 -33 -33s14 -34 33 -34s34 15 34 34zM163 811c-42 0 -75 33 -75 76c0 42 33 75 75 75c43 0 76 -33 76 -75c0 -43 -33 -76 -76 -76z" />
    <glyph glyph-name="aring" unicode="&#xe5;" horiz-adv-x="291" 
d="M258 0h-67l-9 46c-12 -23 -31 -54 -80 -54s-76 31 -76 162v14c0 112 22 151 77 151c40 0 60 -20 75 -46v151c0 56 -8 76 -36 76s-36 -20 -36 -76v-38h-80v30c0 104 24 159 117 159s115 -55 115 -167v-408zM178 142v32c0 47 -10 69 -37 69c-30 0 -35 -26 -35 -89v-15
c0 -50 8 -72 34 -72c20 0 38 13 38 75zM176 693c0 19 -15 33 -34 33s-33 -14 -33 -33s14 -34 33 -34s34 15 34 34zM142 617c-42 0 -75 33 -75 76c0 42 33 75 75 75c43 0 76 -33 76 -75c0 -43 -33 -76 -76 -76z" />
    <glyph glyph-name="Amacron" unicode="&#x100;" horiz-adv-x="325" 
d="M321 0h-82l-21 180h-111l-21 -180h-82l103 766h110zM208 257l-46 396l-45 -396h91zM279 838h-232v66h232v-66z" />
    <glyph glyph-name="amacron" unicode="&#x101;" horiz-adv-x="291" 
d="M258 0h-67l-9 46c-12 -23 -31 -54 -80 -54s-76 31 -76 162v14c0 112 22 151 77 151c40 0 60 -20 75 -46v151c0 56 -8 76 -36 76s-36 -20 -36 -76v-38h-80v30c0 104 24 159 117 159s115 -55 115 -167v-408zM178 142v32c0 47 -10 69 -37 69c-30 0 -35 -26 -35 -89v-15
c0 -50 8 -72 34 -72c20 0 38 13 38 75zM259 639h-232v66h232v-66z" />
    <glyph glyph-name="Abreve" unicode="&#x102;" horiz-adv-x="325" 
d="M321 0h-82l-21 180h-111l-21 -180h-82l103 766h110zM208 257l-46 396l-45 -396h91zM221 936h47c-1 -68 -41 -106 -104 -106s-105 38 -105 106h48c0 -29 17 -50 57 -50c39 0 56 21 57 50z" />
    <glyph glyph-name="abreve" unicode="&#x103;" horiz-adv-x="291" 
d="M258 0h-67l-9 46c-12 -23 -31 -54 -80 -54s-76 31 -76 162v14c0 112 22 151 77 151c40 0 60 -20 75 -46v151c0 56 -8 76 -36 76s-36 -20 -36 -76v-38h-80v30c0 104 24 159 117 159s115 -55 115 -167v-408zM178 142v32c0 47 -10 69 -37 69c-30 0 -35 -26 -35 -89v-15
c0 -50 8 -72 34 -72c20 0 38 13 38 75zM200 737h47c-1 -68 -41 -106 -104 -106s-105 38 -105 106h48c0 -29 17 -50 57 -50c39 0 56 21 57 50z" />
    <glyph glyph-name="Aogonek" unicode="&#x104;" horiz-adv-x="325" 
d="M321 -149l-28 -41c-68 5 -108 50 -108 98c0 31 16 63 55 86l-22 186h-111l-21 -180h-82l103 766h110l104 -766c-48 -19 -67 -53 -67 -84c0 -34 27 -55 67 -65zM208 257l-46 396l-45 -396h91z" />
    <glyph glyph-name="aogonek" unicode="&#x105;" horiz-adv-x="291" 
d="M267 -149l-28 -41c-68 5 -108 50 -108 98c0 34 18 68 63 91l-12 47c-12 -23 -30 -54 -81 -54c-48 0 -75 32 -75 162v14c0 112 22 151 77 151c40 0 60 -20 75 -46v151c0 56 -8 76 -36 76s-36 -20 -36 -76v-38h-80v44c0 94 29 145 117 145c87 0 115 -50 115 -147v-428
c-34 -23 -58 -53 -58 -84c0 -34 27 -55 67 -65zM178 142v32c0 46 -10 69 -37 69c-30 0 -35 -25 -35 -89v-15c0 -50 8 -72 34 -72c20 0 38 13 38 75z" />
    <glyph glyph-name="AE" unicode="&#xc6;" horiz-adv-x="495" 
d="M470 0h-239v180h-111l-45 -180h-81l196 766h280v-80h-157v-260h150v-80h-150v-267h157v-79zM231 259v383l-91 -383h91z" />
    <glyph glyph-name="ae" unicode="&#xe6;" horiz-adv-x="436" 
d="M410 187v-43c0 -114 -38 -152 -116 -152c-52 0 -89 17 -106 66c-20 -39 -40 -66 -87 -66c-49 0 -75 32 -75 165v7c0 115 21 155 77 155c40 0 60 -20 75 -46v157c0 52 -9 70 -36 70c-28 0 -36 -20 -36 -76v-38h-80v44c0 94 29 145 117 145c33 0 58 -8 75 -27
c19 20 45 27 76 27c79 0 116 -38 116 -156v-168h-152v-89c0 -60 1 -95 36 -95c29 0 36 23 36 80v40h80zM330 325v109c0 47 -11 66 -36 66c-31 0 -36 -25 -36 -85v-90h72zM178 142v32c0 46 -10 69 -37 69c-30 0 -35 -25 -35 -89v-15c0 -50 8 -72 34 -72c20 0 38 13 38 75z
" />
    <glyph glyph-name="AEacute" unicode="&#x1fc;" horiz-adv-x="495" 
d="M470 0h-239v180h-111l-45 -180h-81l196 766h280v-80h-157v-260h150v-80h-150v-267h157v-79zM231 259v383l-91 -383h91zM347 838h-63l50 116h91z" />
    <glyph glyph-name="aeacute" unicode="&#x1fd;" horiz-adv-x="436" 
d="M410 187v-43c0 -114 -38 -152 -116 -152c-52 0 -89 17 -106 66c-20 -39 -40 -66 -87 -66c-49 0 -75 32 -75 165v7c0 115 21 155 77 155c40 0 60 -20 75 -46v157c0 52 -9 70 -36 70c-28 0 -36 -20 -36 -76v-38h-80v44c0 94 29 145 117 145c33 0 58 -8 75 -27
c19 20 45 27 76 27c79 0 116 -38 116 -156v-168h-152v-89c0 -60 1 -95 36 -95c29 0 36 23 36 80v40h80zM330 325v109c0 47 -11 66 -36 66c-31 0 -36 -25 -36 -85v-90h72zM178 142v32c0 46 -10 69 -37 69c-30 0 -35 -25 -35 -89v-15c0 -50 8 -72 34 -72c20 0 38 13 38 75z
M238 639h-63l50 116h91z" />
    <glyph glyph-name="uni1E02" unicode="&#x1e02;" horiz-adv-x="346" 
d="M183 0h-144v766h138c87 0 133 -43 133 -159v-98c0 -52 -17 -98 -73 -116c60 -17 83 -66 83 -123v-110c0 -122 -50 -160 -137 -160zM228 507v104c0 56 -18 75 -56 75h-51v-255h51c38 0 56 20 56 76zM238 155v121c0 56 -28 76 -66 76h-51v-273h61c38 0 56 20 56 76z
M163 831c-28 0 -51 22 -51 51s23 51 51 51c29 0 51 -22 51 -51s-22 -51 -51 -51z" />
    <glyph glyph-name="uni1E03" unicode="&#x1e03;" horiz-adv-x="296" 
d="M101 0h-67v766h80v-242c13 23 31 51 77 51c59 0 75 -47 75 -153v-277c0 -107 -16 -153 -75 -153c-49 0 -70 32 -81 54zM186 142v283c0 53 -8 75 -34 75c-25 0 -38 -19 -38 -81v-272c0 -61 13 -81 38 -81c26 0 34 22 34 76zM207 658c-28 0 -51 22 -51 51s23 51 51 51
c29 0 51 -22 51 -51s-22 -51 -51 -51z" />
    <glyph glyph-name="Ccedilla" unicode="&#xc7;" horiz-adv-x="337" 
d="M100 -168l13 48c6 -4 20 -9 33 -9c26 0 39 15 39 31c0 15 -11 31 -40 31c-3 0 -6 0 -10 -1l14 56c-66 8 -115 50 -115 159v472c0 121 61 160 140 160c74 0 136 -35 136 -157v-123h-82v127c0 54 -27 76 -56 76c-30 0 -56 -22 -56 -76v-486c0 -55 26 -76 56 -76
c29 0 56 21 56 76v116h82v-109c0 -105 -45 -147 -105 -157l-9 -36c36 0 60 -29 60 -61c0 -36 -31 -73 -91 -73c-23 0 -48 5 -65 12z" />
    <glyph glyph-name="ccedilla" unicode="&#xe7;" horiz-adv-x="282" 
d="M69 -168l12 48c6 -4 21 -9 34 -9c25 0 39 15 39 31c0 15 -12 31 -41 31c-3 0 -6 0 -10 -1l15 61c-59 8 -92 47 -92 138v305c0 102 42 139 116 139c73 0 116 -36 116 -139v-77h-80v75c0 47 -11 66 -36 66c-26 0 -36 -19 -36 -66v-301c0 -47 10 -66 36 -66
c25 0 36 19 36 66v89h80v-91c0 -87 -31 -126 -83 -136l-10 -41c36 0 60 -29 60 -61c0 -36 -32 -73 -91 -73c-24 0 -49 5 -65 12z" />
    <glyph glyph-name="Cacute" unicode="&#x106;" horiz-adv-x="338" 
d="M311 256v-109c0 -122 -62 -160 -138 -160c-77 0 -138 39 -138 160v472c0 121 61 160 140 160c74 0 136 -35 136 -157v-123h-82v127c0 54 -26 76 -57 76c-38 0 -55 -32 -55 -105v-457c0 -55 26 -76 57 -76c36 0 55 29 55 98v94h82zM192 838h-63l50 116h91z" />
    <glyph glyph-name="cacute" unicode="&#x107;" horiz-adv-x="286" 
d="M262 222v-73c0 -118 -35 -157 -116 -157c-82 0 -116 40 -116 160v262c0 120 35 161 116 161c80 0 116 -39 116 -156v-60h-80v75c0 48 -11 66 -37 66c-31 0 -35 -27 -35 -89v-278c0 -47 10 -66 36 -66c31 0 36 25 36 86v69h80zM160 639h-63l50 116h91z" />
    <glyph glyph-name="Ccircumflex" unicode="&#x108;" horiz-adv-x="338" 
d="M311 256v-109c0 -122 -62 -160 -138 -160c-77 0 -138 39 -138 160v472c0 121 61 160 140 160c74 0 136 -35 136 -157v-123h-82v127c0 54 -26 76 -57 76c-38 0 -55 -32 -55 -105v-457c0 -55 26 -76 57 -76c36 0 55 29 55 98v94h82zM281 838h-66l-42 70l-38 -70h-68l66 121
h80z" />
    <glyph glyph-name="ccircumflex" unicode="&#x109;" horiz-adv-x="286" 
d="M262 222v-73c0 -118 -35 -157 -116 -157c-82 0 -116 40 -116 160v262c0 120 35 161 116 161c80 0 116 -39 116 -156v-60h-80v75c0 48 -11 66 -37 66c-31 0 -35 -27 -35 -89v-278c0 -47 10 -66 36 -66c31 0 36 25 36 86v69h80zM252 639h-66l-42 70l-38 -70h-68l66 121h80z
" />
    <glyph glyph-name="Cdotaccent" unicode="&#x10a;" horiz-adv-x="338" 
d="M311 256v-109c0 -122 -62 -160 -138 -160c-77 0 -138 39 -138 160v472c0 121 61 160 140 160c74 0 136 -35 136 -157v-123h-82v127c0 54 -26 76 -57 76c-38 0 -55 -32 -55 -105v-457c0 -55 26 -76 57 -76c36 0 55 29 55 98v94h82zM173 831c-28 0 -51 22 -51 51
s23 51 51 51c29 0 51 -22 51 -51s-22 -51 -51 -51z" />
    <glyph glyph-name="cdotaccent" unicode="&#x10b;" horiz-adv-x="286" 
d="M262 222v-73c0 -118 -35 -157 -116 -157c-82 0 -116 40 -116 160v262c0 120 35 161 116 161c80 0 116 -39 116 -156v-60h-80v75c0 48 -11 66 -37 66c-31 0 -35 -27 -35 -89v-278c0 -47 10 -66 36 -66c31 0 36 25 36 86v69h80zM145 632c-28 0 -51 22 -51 51s23 51 51 51
c29 0 51 -22 51 -51s-22 -51 -51 -51z" />
    <glyph glyph-name="Ccaron" unicode="&#x10c;" horiz-adv-x="338" 
d="M311 256v-109c0 -122 -62 -160 -138 -160c-77 0 -138 39 -138 160v472c0 121 61 160 140 160c74 0 136 -35 136 -157v-123h-82v127c0 54 -26 76 -57 76c-38 0 -55 -32 -55 -105v-457c0 -55 26 -76 57 -76c36 0 55 29 55 98v94h82zM214 838h-80l-68 121h67l40 -69l40 69
h67z" />
    <glyph glyph-name="ccaron" unicode="&#x10d;" horiz-adv-x="286" 
d="M262 222v-73c0 -118 -35 -157 -116 -157c-82 0 -116 40 -116 160v262c0 120 35 161 116 161c80 0 116 -39 116 -156v-60h-80v75c0 48 -11 66 -37 66c-31 0 -35 -27 -35 -89v-278c0 -47 10 -66 36 -66c31 0 36 25 36 86v69h80zM186 639h-80l-68 121h67l40 -69l40 69h67z
" />
    <glyph glyph-name="Dcaron" unicode="&#x10e;" horiz-adv-x="346" 
d="M173 0h-134v766h134c87 0 137 -35 137 -160v-446c0 -125 -50 -160 -137 -160zM228 155v455c0 56 -18 76 -56 76h-51v-607h51c38 0 56 20 56 76zM205 838h-80l-68 121h67l40 -69l40 69h67z" />
    <glyph glyph-name="dcaron" unicode="&#x10f;" horiz-adv-x="341" 
d="M338 538h-54l35 228h93zM262 0h-66l-9 46c-12 -22 -32 -54 -81 -54c-60 0 -76 46 -76 153v277c0 107 16 153 76 153c46 0 65 -30 76 -51v242h80v-766zM182 147v272c0 62 -13 81 -38 81c-26 0 -34 -22 -34 -75v-283c0 -54 8 -76 34 -76c25 0 38 20 38 81z" />
    <glyph glyph-name="Dcroat" unicode="&#x110;" horiz-adv-x="347" 
d="M174 0h-134v347h-38v78h38v341h134c87 0 137 -35 137 -160v-446c0 -125 -50 -160 -137 -160zM229 153v460c0 56 -18 76 -56 76h-51v-264h57v-78h-57v-270h51c38 0 56 20 56 76z" />
    <glyph glyph-name="dcroat" unicode="&#x111;" horiz-adv-x="296" 
d="M262 0h-66l-9 46c-12 -22 -32 -54 -81 -54c-60 0 -76 46 -76 153v277c0 107 16 153 76 153c46 0 65 -30 76 -51v123h-104v62h104v57h80v-57h35v-62h-35v-647zM182 147v272c0 62 -13 81 -38 81c-26 0 -34 -22 -34 -75v-283c0 -54 8 -76 34 -76c25 0 38 20 38 81z" />
    <glyph glyph-name="uni1E0A" unicode="&#x1e0a;" horiz-adv-x="346" 
d="M173 0h-134v766h134c87 0 137 -35 137 -160v-446c0 -125 -50 -160 -137 -160zM228 155v455c0 56 -18 76 -56 76h-51v-607h51c38 0 56 20 56 76zM164 831c-28 0 -51 22 -51 51s23 51 51 51c29 0 51 -22 51 -51s-22 -51 -51 -51z" />
    <glyph glyph-name="uni1E0B" unicode="&#x1e0b;" horiz-adv-x="296" 
d="M262 0h-66l-9 46c-12 -22 -32 -54 -81 -54c-60 0 -76 46 -76 153v277c0 106 16 153 75 153c46 0 65 -28 77 -51v242h80v-766zM182 147v272c0 62 -13 81 -38 81c-26 0 -34 -22 -34 -75v-283c0 -54 8 -76 34 -76c25 0 38 20 38 81zM84 658c-28 0 -51 22 -51 51s23 51 51 51
c29 0 51 -22 51 -51s-22 -51 -51 -51z" />
    <glyph glyph-name="Eth" unicode="&#xd0;" horiz-adv-x="347" 
d="M174 0h-134v347h-38v78h38v341h134c87 0 137 -35 137 -160v-446c0 -125 -50 -160 -137 -160zM229 153v460c0 56 -18 76 -56 76h-51v-264h57v-78h-57v-270h51c38 0 56 20 56 76z" />
    <glyph glyph-name="eth" unicode="&#xf0;" horiz-adv-x="295" 
d="M31 126v324c0 88 28 126 74 126c39 0 71 -28 80 -53c-2 67 -12 104 -33 128l-39 -38l-25 25l36 36c-19 11 -45 21 -65 26l20 62c42 -8 75 -22 98 -36l38 39l25 -25l-35 -35c44 -43 58 -112 58 -239v-320c0 -112 -35 -154 -116 -154c-74 0 -116 39 -116 134zM183 123v301
c0 58 -16 77 -38 77c-25 0 -34 -25 -34 -67v-311c0 -39 13 -56 36 -56s36 17 36 56z" />
    <glyph glyph-name="Egrave" unicode="&#xc8;" horiz-adv-x="304" 
d="M278 0h-239v766h239v-80h-157v-260h150v-80h-150v-267h157v-79zM205 838h-63l-79 116h91z" />
    <glyph glyph-name="egrave" unicode="&#xe8;" horiz-adv-x="288" 
d="M262 187v-37c0 -119 -35 -158 -116 -158c-82 0 -116 40 -116 160v262c0 120 35 161 117 161c81 0 115 -40 115 -164v-160h-152v-118c0 -47 10 -66 36 -66c25 0 36 19 36 66v54h80zM182 325v90c0 61 -5 85 -36 85c-32 0 -36 -24 -36 -85v-90h72zM191 639h-63l-79 116h91z
" />
    <glyph glyph-name="Eacute" unicode="&#xc9;" horiz-adv-x="304" 
d="M278 0h-239v766h239v-80h-157v-260h150v-80h-150v-267h157v-79zM174 838h-63l50 116h91z" />
    <glyph glyph-name="eacute" unicode="&#xe9;" horiz-adv-x="288" 
d="M262 187v-37c0 -119 -35 -158 -116 -158c-82 0 -116 40 -116 160v262c0 120 35 161 117 161c81 0 115 -40 115 -164v-160h-152v-118c0 -47 10 -66 36 -66c25 0 36 19 36 66v54h80zM182 325v90c0 61 -5 85 -36 85c-32 0 -36 -24 -36 -85v-90h72zM163 639h-63l50 116h91z
" />
    <glyph glyph-name="Ecircumflex" unicode="&#xca;" horiz-adv-x="304" 
d="M278 0h-239v766h239v-80h-157v-260h150v-80h-150v-267h157v-79zM263 838h-66l-42 70l-38 -70h-68l66 121h80z" />
    <glyph glyph-name="ecircumflex" unicode="&#xea;" horiz-adv-x="288" 
d="M262 187v-37c0 -119 -35 -158 -116 -158c-82 0 -116 40 -116 160v262c0 120 35 161 117 161c81 0 115 -40 115 -164v-160h-152v-118c0 -47 10 -66 36 -66c25 0 36 19 36 66v54h80zM182 325v90c0 61 -5 85 -36 85c-32 0 -36 -24 -36 -85v-90h72zM252 639h-66l-42 70
l-38 -70h-68l66 121h80z" />
    <glyph glyph-name="Edieresis" unicode="&#xcb;" horiz-adv-x="304" 
d="M279 0h-239v766h239v-80h-157v-260h150v-80h-150v-267h157v-79zM81 828c-28 0 -51 23 -51 52c0 28 23 51 51 51c29 0 51 -23 51 -51c0 -29 -22 -52 -51 -52zM232 828c-28 0 -51 23 -51 52c0 28 23 51 51 51c29 0 51 -23 51 -51c0 -29 -22 -52 -51 -52z" />
    <glyph glyph-name="edieresis" unicode="&#xeb;" horiz-adv-x="288" 
d="M262 187v-37c0 -119 -35 -158 -116 -158c-82 0 -116 40 -116 160v262c0 120 35 161 117 161c81 0 115 -40 115 -164v-160h-152v-118c0 -47 10 -66 36 -66c25 0 36 19 36 66v54h80zM182 325v90c0 61 -5 85 -36 85c-32 0 -36 -24 -36 -85v-90h72zM70 629
c-28 0 -51 23 -51 52c0 28 23 51 51 51c29 0 51 -23 51 -51c0 -29 -22 -52 -51 -52zM221 629c-28 0 -51 23 -51 52c0 28 23 51 51 51c29 0 51 -23 51 -51c0 -29 -22 -52 -51 -52z" />
    <glyph glyph-name="Emacron" unicode="&#x112;" horiz-adv-x="304" 
d="M278 0h-239v766h239v-80h-157v-260h150v-80h-150v-267h157v-79zM271 838h-232v66h232v-66z" />
    <glyph glyph-name="emacron" unicode="&#x113;" horiz-adv-x="288" 
d="M262 187v-37c0 -119 -35 -158 -116 -158c-82 0 -116 40 -116 160v262c0 120 35 161 117 161c81 0 115 -40 115 -164v-160h-152v-118c0 -47 10 -66 36 -66c25 0 36 19 36 66v54h80zM182 325v90c0 61 -5 85 -36 85c-32 0 -36 -24 -36 -85v-90h72zM261 639h-232v66h232v-66z
" />
    <glyph glyph-name="Ebreve" unicode="&#x114;" horiz-adv-x="304" 
d="M278 0h-239v766h239v-80h-157v-260h150v-80h-150v-267h157v-79zM215 936h47c-1 -68 -41 -106 -104 -106s-105 38 -105 106h48c0 -29 17 -50 57 -50c39 0 56 21 57 50z" />
    <glyph glyph-name="ebreve" unicode="&#x115;" horiz-adv-x="288" 
d="M262 187v-37c0 -119 -35 -158 -116 -158c-82 0 -116 40 -116 160v262c0 120 35 161 117 161c81 0 115 -40 115 -164v-160h-152v-118c0 -47 10 -66 36 -66c25 0 36 19 36 66v54h80zM182 325v90c0 61 -5 85 -36 85c-32 0 -36 -24 -36 -85v-90h72zM202 737h47
c-1 -68 -41 -106 -104 -106s-105 38 -105 106h48c0 -29 17 -50 57 -50c39 0 56 21 57 50z" />
    <glyph glyph-name="Edotaccent" unicode="&#x116;" horiz-adv-x="304" 
d="M278 0h-239v766h239v-80h-157v-260h150v-80h-150v-267h157v-79zM158 831c-28 0 -51 22 -51 51s23 51 51 51c29 0 51 -22 51 -51s-22 -51 -51 -51z" />
    <glyph glyph-name="edotaccent" unicode="&#x117;" horiz-adv-x="288" 
d="M262 187v-37c0 -119 -35 -158 -116 -158c-82 0 -116 40 -116 160v262c0 120 35 161 117 161c81 0 115 -40 115 -164v-160h-152v-118c0 -47 10 -66 36 -66c25 0 36 19 36 66v54h80zM182 325v90c0 61 -5 85 -36 85c-32 0 -36 -24 -36 -85v-90h72zM145 632
c-28 0 -51 22 -51 51s23 51 51 51c29 0 51 -22 51 -51s-22 -51 -51 -51z" />
    <glyph glyph-name="Eogonek" unicode="&#x118;" horiz-adv-x="304" 
d="M258 -149l-28 -41c-69 5 -108 50 -108 98c0 34 18 69 64 92h-147v766h239v-80h-157v-260h150v-80h-150v-267h157v-79h-30c-34 -23 -57 -53 -57 -84c0 -34 27 -55 67 -65z" />
    <glyph glyph-name="eogonek" unicode="&#x119;" horiz-adv-x="288" 
d="M219 -143l-28 -42c-69 6 -108 50 -108 99c0 28 12 56 43 79c-61 6 -96 45 -96 138v305c0 102 42 139 116 139c73 0 116 -36 116 -139v-185h-152v-118c0 -47 10 -66 36 -66c25 0 36 19 36 66v54h80v-56c0 -85 -29 -109 -54 -127c-27 -19 -56 -42 -56 -81
c0 -37 27 -57 67 -66zM182 325v109c0 47 -11 66 -36 66c-26 0 -36 -19 -36 -66v-109h72z" />
    <glyph glyph-name="Ecaron" unicode="&#x11a;" horiz-adv-x="304" 
d="M278 0h-239v766h239v-80h-157v-260h150v-80h-150v-267h157v-79zM200 838h-80l-68 121h67l40 -69l40 69h67z" />
    <glyph glyph-name="ecaron" unicode="&#x11b;" horiz-adv-x="288" 
d="M262 187v-37c0 -119 -35 -158 -116 -158c-82 0 -116 40 -116 160v262c0 120 35 161 117 161c81 0 115 -40 115 -164v-160h-152v-118c0 -47 10 -66 36 -66c25 0 36 19 36 66v54h80zM182 325v90c0 61 -5 85 -36 85c-32 0 -36 -24 -36 -85v-90h72zM186 639h-80l-68 121h67
l40 -69l40 69h67z" />
    <glyph glyph-name="uni1E1E" unicode="&#x1e1e;" horiz-adv-x="299" 
d="M121 0h-82v766h239v-80h-157v-260h150v-80h-150v-346zM161 831c-28 0 -51 22 -51 51s23 51 51 51c29 0 51 -22 51 -51s-22 -51 -51 -51z" />
    <glyph glyph-name="uni1E1F" unicode="&#x1e1f;" horiz-adv-x="207" 
d="M139 0h-80v493h-55v74h55v62c0 111 33 145 99 145c16 0 34 -2 47 -6v-66c-8 1 -16 1 -22 1c-38 0 -44 -23 -44 -73v-63h65v-74h-65v-493zM130 826c-28 0 -51 22 -51 51s23 51 51 51c29 0 51 -22 51 -51s-22 -51 -51 -51z" />
    <glyph glyph-name="Gcircumflex" unicode="&#x11c;" horiz-adv-x="352" 
d="M239 140v165h-68v79h150v-237c0 -122 -62 -160 -143 -160c-82 0 -143 39 -143 160v472c0 121 60 160 143 160c84 0 143 -40 143 -160v-120h-82v127c0 54 -27 76 -61 76c-35 0 -61 -22 -61 -76v-486c0 -55 26 -76 61 -76c34 0 61 21 61 76zM286 838h-66l-42 70l-38 -70
h-68l66 121h80z" />
    <glyph glyph-name="gcircumflex" unicode="&#x11d;" horiz-adv-x="293" 
d="M262 7v-63c0 -109 -43 -146 -122 -146c-85 0 -120 43 -120 155v60c0 53 13 82 31 107c-7 13 -14 24 -14 42c0 22 10 42 35 67c-26 23 -42 55 -42 117v79c0 108 34 150 113 150c27 0 45 -5 61 -15h87v-47l-48 1c14 -22 19 -48 19 -84v-81c0 -104 -39 -142 -117 -142
c-10 0 -18 0 -27 2c-9 -8 -14 -16 -14 -25c0 -16 15 -27 48 -27c71 -1 110 -37 110 -150zM182 357v67c0 56 -8 76 -36 76s-36 -20 -36 -76v-67c0 -56 8 -76 36 -76s36 20 36 76zM182 -55v56c0 63 -7 81 -40 81c-32 0 -42 -18 -42 -73v-60c0 -57 13 -76 42 -76
c27 0 40 16 40 72zM254 639h-66l-42 70l-38 -70h-68l66 121h80z" />
    <glyph glyph-name="Gbreve" unicode="&#x11e;" horiz-adv-x="352" 
d="M239 140v165h-68v79h150v-237c0 -122 -62 -160 -143 -160c-82 0 -143 39 -143 160v472c0 121 60 160 143 160c84 0 143 -40 143 -160v-120h-82v127c0 54 -27 76 -61 76c-35 0 -61 -22 -61 -76v-486c0 -55 26 -76 61 -76c34 0 61 21 61 76zM237 936h47
c-1 -68 -41 -106 -104 -106s-105 38 -105 106h48c0 -29 17 -50 57 -50c39 0 56 21 57 50z" />
    <glyph glyph-name="gbreve" unicode="&#x11f;" horiz-adv-x="293" 
d="M262 7v-63c0 -109 -43 -146 -122 -146c-85 0 -120 43 -120 155v60c0 53 13 82 31 107c-7 13 -14 24 -14 42c0 22 10 42 35 67c-26 23 -42 55 -42 117v79c0 108 34 150 113 150c27 0 45 -5 61 -15h87v-47l-48 1c14 -22 19 -48 19 -84v-81c0 -104 -39 -142 -117 -142
c-10 0 -18 0 -27 2c-9 -8 -14 -16 -14 -25c0 -16 15 -27 48 -27c71 -1 110 -37 110 -150zM182 357v67c0 56 -8 76 -36 76s-36 -20 -36 -76v-67c0 -56 8 -76 36 -76s36 20 36 76zM182 -55v56c0 63 -7 81 -40 81c-32 0 -42 -18 -42 -73v-60c0 -57 13 -76 42 -76
c27 0 40 16 40 72zM205 737h47c-1 -68 -41 -106 -104 -106s-105 38 -105 106h48c0 -29 17 -50 57 -50c39 0 56 21 57 50z" />
    <glyph glyph-name="Gdotaccent" unicode="&#x120;" horiz-adv-x="352" 
d="M239 140v165h-68v79h150v-237c0 -122 -62 -160 -143 -160c-82 0 -143 39 -143 160v472c0 121 60 160 143 160c84 0 143 -40 143 -160v-120h-82v127c0 54 -27 76 -61 76c-35 0 -61 -22 -61 -76v-486c0 -55 26 -76 61 -76c34 0 61 21 61 76zM178 831c-28 0 -51 22 -51 51
s23 51 51 51c29 0 51 -22 51 -51s-22 -51 -51 -51z" />
    <glyph glyph-name="gdotaccent" unicode="&#x121;" horiz-adv-x="293" 
d="M262 7v-63c0 -109 -43 -146 -122 -146c-85 0 -120 43 -120 155v60c0 53 13 82 31 107c-7 13 -14 24 -14 42c0 22 10 42 35 67c-26 23 -42 55 -42 117v79c0 108 34 150 113 150c27 0 45 -5 61 -15h87v-47l-48 1c14 -22 19 -48 19 -84v-81c0 -104 -39 -142 -117 -142
c-10 0 -18 0 -27 2c-9 -8 -14 -16 -14 -25c0 -16 15 -27 48 -27c71 -1 110 -37 110 -150zM182 357v67c0 56 -8 76 -36 76s-36 -20 -36 -76v-67c0 -56 8 -76 36 -76s36 20 36 76zM182 -55v56c0 63 -7 81 -40 81c-32 0 -42 -18 -42 -73v-60c0 -57 13 -76 42 -76
c27 0 40 16 40 72zM151 632c-28 0 -51 22 -51 51s23 51 51 51c29 0 51 -22 51 -51s-22 -51 -51 -51z" />
    <glyph glyph-name="Gcommaaccent" unicode="&#x122;" horiz-adv-x="352" 
d="M239 140v165h-68v79h150v-237c0 -122 -62 -160 -143 -160c-82 0 -143 39 -143 160v472c0 121 60 160 143 160c84 0 143 -40 143 -160v-120h-82v127c0 54 -27 76 -61 76c-35 0 -61 -22 -61 -76v-486c0 -55 26 -76 61 -76c34 0 61 21 61 76zM171 -181h-61l45 131h86z" />
    <glyph glyph-name="gcommaaccent" unicode="&#x123;" horiz-adv-x="293" 
d="M262 7v-63c0 -109 -43 -146 -122 -146c-85 0 -120 43 -120 155v60c0 53 13 82 31 107c-7 13 -14 24 -14 42c0 22 10 42 35 67c-26 23 -42 55 -42 117v79c0 108 34 150 113 150c27 0 45 -5 61 -15h87v-47l-48 1c14 -22 19 -48 19 -84v-81c0 -104 -39 -142 -117 -142
c-10 0 -18 0 -27 2c-9 -8 -14 -16 -14 -25c0 -16 15 -27 48 -27c71 -1 110 -37 110 -150zM182 357v67c0 56 -8 76 -36 76s-36 -20 -36 -76v-67c0 -56 8 -76 36 -76s36 20 36 76zM182 -55v56c0 63 -7 81 -40 81c-32 0 -42 -18 -42 -73v-60c0 -57 13 -76 42 -76
c27 0 40 16 40 72zM170 770h61l-45 -131h-86z" />
    <glyph glyph-name="Hcircumflex" unicode="&#x124;" horiz-adv-x="355" 
d="M315 0h-82v349h-112v-349h-82v766h82v-338h112v338h82v-766zM283 838h-66l-42 70l-38 -70h-68l66 121h80z" />
    <glyph glyph-name="hcircumflex" unicode="&#x125;" 
d="M265 0h-80v425c0 53 -8 75 -34 75c-25 0 -38 -19 -38 -81v-419h-80v766h80v-242c12 21 30 51 77 51c59 0 75 -46 75 -153v-422zM181 821h-66l-42 70l-38 -70h-68l66 121h80z" />
    <glyph glyph-name="Hbar" unicode="&#x126;" horiz-adv-x="356" 
d="M316 0h-82v349h-112v-349h-82v582h-37v67h37v117h82v-117h112v117h82v-117h36v-67h-36v-582zM234 428v154h-112v-154h112z" />
    <glyph glyph-name="hbar" unicode="&#x127;" 
d="M265 0h-80v425c0 53 -8 75 -34 75c-25 0 -38 -19 -38 -81v-419h-80v647h-34v62h34v57h80v-57h105v-62h-105v-123c12 21 30 51 77 51c59 0 75 -46 75 -153v-422z" />
    <glyph glyph-name="uni1E22" unicode="&#x1e22;" horiz-adv-x="355" 
d="M315 0h-82v349h-112v-349h-82v766h82v-338h112v338h82v-766zM176 831c-28 0 -51 22 -51 51s23 51 51 51c29 0 51 -22 51 -51s-22 -51 -51 -51z" />
    <glyph glyph-name="uni1E23" unicode="&#x1e23;" 
d="M265 0h-80v425c0 53 -8 75 -34 75c-25 0 -38 -19 -38 -81v-419h-80v766h80v-242c12 21 30 51 77 51c59 0 75 -46 75 -153v-422zM209 658c-28 0 -51 22 -51 51s23 51 51 51c29 0 51 -22 51 -51s-22 -51 -51 -51z" />
    <glyph glyph-name="Igrave" unicode="&#xcc;" horiz-adv-x="161" 
d="M122 0h-82v766h82v-766zM122 838h-63l-79 116h91z" />
    <glyph glyph-name="igrave" unicode="&#xec;" horiz-adv-x="147" 
d="M117 639h-63l-79 116h91zM113 0h-80v567h80v-567z" />
    <glyph glyph-name="Iacute" unicode="&#xcd;" horiz-adv-x="161" 
d="M121 0h-82v766h82v-766zM102 838h-63l50 116h91z" />
    <glyph glyph-name="iacute" unicode="&#xed;" horiz-adv-x="147" 
d="M94 639h-63l50 116h91zM113 0h-80v567h80v-567z" />
    <glyph glyph-name="Icircumflex" unicode="&#xce;" horiz-adv-x="161" 
d="M122 0h-82v766h82v-766zM187 838h-66l-42 70l-38 -70h-68l66 121h80z" />
    <glyph glyph-name="icircumflex" unicode="&#xee;" horiz-adv-x="147" 
d="M113 0h-80v567h80v-567zM180 639h-66l-42 70l-38 -70h-68l66 121h80z" />
    <glyph glyph-name="Idieresis" unicode="&#xcf;" horiz-adv-x="161" 
d="M122 0h-82v766h82v-766zM5 828c-28 0 -51 23 -51 52c0 28 23 51 51 51c29 0 51 -23 51 -51c0 -29 -22 -52 -51 -52zM156 828c-28 0 -51 23 -51 52c0 28 23 51 51 51c29 0 51 -23 51 -51c0 -29 -22 -52 -51 -52z" />
    <glyph glyph-name="idieresis" unicode="&#xef;" horiz-adv-x="147" 
d="M-2 629c-28 0 -51 23 -51 52c0 28 23 51 51 51c29 0 51 -23 51 -51c0 -29 -22 -52 -51 -52zM149 629c-28 0 -51 23 -51 52c0 28 23 51 51 51c29 0 51 -23 51 -51c0 -29 -22 -52 -51 -52zM113 0h-80v567h80v-567z" />
    <glyph glyph-name="Itilde" unicode="&#x128;" horiz-adv-x="161" 
d="M122 0h-82v766h82v-766zM129 917h62c-4 -46 -28 -79 -68 -79c-29 0 -47 18 -71 18c-12 0 -20 -4 -22 -18h-60c1 32 18 79 66 79c29 0 52 -17 72 -17c13 0 20 7 21 17z" />
    <glyph glyph-name="itilde" unicode="&#x129;" horiz-adv-x="147" 
d="M122 718h62c-4 -46 -28 -79 -68 -79c-29 0 -47 18 -71 18c-12 0 -20 -4 -22 -18h-60c1 32 18 79 66 79c29 0 52 -17 72 -17c13 0 20 7 21 17zM113 0h-80v567h80v-567z" />
    <glyph glyph-name="Imacron" unicode="&#x12a;" horiz-adv-x="161" 
d="M122 0h-82v766h82v-766zM196 838h-232v66h232v-66z" />
    <glyph glyph-name="imacron" unicode="&#x12b;" horiz-adv-x="147" 
d="M189 639h-232v66h232v-66zM113 0h-80v567h80v-567z" />
    <glyph glyph-name="Ibreve" unicode="&#x12c;" horiz-adv-x="161" 
d="M122 0h-82v766h82v-766zM138 936h47c-1 -68 -41 -106 -104 -106s-105 38 -105 106h48c0 -29 17 -50 57 -50c39 0 56 21 57 50z" />
    <glyph glyph-name="ibreve" unicode="&#x12d;" horiz-adv-x="147" 
d="M131 737h47c-1 -68 -41 -106 -104 -106s-105 38 -105 106h48c0 -29 17 -50 57 -50c39 0 56 21 57 50zM113 0h-80v567h80v-567z" />
    <glyph glyph-name="Iogonek" unicode="&#x12e;" horiz-adv-x="161" 
d="M129 -149l-28 -41c-69 5 -108 50 -108 98c0 29 13 59 46 82v776h82v-766c-36 -23 -59 -53 -59 -84c0 -34 27 -55 67 -65z" />
    <glyph glyph-name="iogonek" unicode="&#x12f;" horiz-adv-x="147" 
d="M121 -149l-28 -41c-69 5 -108 50 -108 98c0 30 14 60 48 83v576h80v-567c-37 -24 -59 -53 -59 -84c0 -34 27 -55 67 -65zM73 632c-30 0 -54 24 -54 54s24 54 54 54s54 -24 54 -54s-24 -54 -54 -54z" />
    <glyph glyph-name="Idotaccent" unicode="&#x130;" horiz-adv-x="161" 
d="M122 0h-82v766h82v-766zM80 831c-28 0 -51 22 -51 51s23 51 51 51c29 0 51 -22 51 -51s-22 -51 -51 -51z" />
    <glyph glyph-name="dotlessi" unicode="&#x131;" horiz-adv-x="147" 
d="M113 0h-80v567h80v-567z" />
    <glyph glyph-name="IJ" unicode="&#x132;" horiz-adv-x="322" 
d="M121 0h-82v766h82v-766zM144 -192h-3v77h3c28 0 56 20 56 76v805h82v-804c0 -125 -73 -154 -138 -154z" />
    <glyph glyph-name="ij" unicode="&#x133;" horiz-adv-x="294" 
d="M113 0h-80v567h80v-567zM73 632c-30 0 -54 24 -54 54s24 54 54 54s54 -24 54 -54s-24 -54 -54 -54zM114 -202v65c8 -1 11 -1 17 -1c45 0 49 27 49 77v628h80v-629c0 -98 -23 -145 -104 -145c-16 0 -29 2 -42 5zM220 632c-30 0 -54 24 -54 54s24 54 54 54s54 -24 54 -54
s-24 -54 -54 -54z" />
    <glyph glyph-name="Jcircumflex" unicode="&#x134;" horiz-adv-x="161" 
d="M-16 -192h-3v77h3c28 0 56 20 56 76v805h82v-804c0 -125 -73 -154 -138 -154zM187 838h-66l-42 70l-38 -70h-68l66 121h80z" />
    <glyph glyph-name="jcircumflex" unicode="&#x135;" horiz-adv-x="147" 
d="M-33 -202v65c8 -1 11 -1 17 -1c45 0 49 27 49 77v628h80v-629c0 -98 -23 -145 -104 -145c-16 0 -29 2 -42 5zM180 639h-66l-42 70l-38 -70h-68l66 121h80z" />
    <glyph glyph-name="dotlessj" unicode="&#x237;" horiz-adv-x="147" 
d="M-33 -202v65c8 -1 11 -1 17 -1c45 0 49 27 49 77v628h80v-629c0 -98 -23 -145 -104 -145c-16 0 -29 2 -42 5z" />
    <glyph glyph-name="Kcommaaccent" unicode="&#x136;" horiz-adv-x="337" 
d="M345 0h-82l-141 383l122 383h82l-116 -380zM121 0h-82v766h82v-766zM172 -181h-61l45 131h86z" />
    <glyph glyph-name="kcommaaccent" unicode="&#x137;" horiz-adv-x="299" 
d="M297 0h-81l-102 290l102 277h82l-98 -274zM113 0h-80v766h80v-766zM151 -181h-61l45 131h86z" />
    <glyph glyph-name="kgreenlandic" unicode="&#x138;" horiz-adv-x="299" 
d="M298 0h-81l-102 290l102 277h82l-98 -274zM114 0h-80v567h80v-567z" />
    <glyph glyph-name="Lslash" unicode="&#x141;" horiz-adv-x="267" 
d="M259 0h-194v270l-38 -22l-36 65l74 41v412h82v-367l57 33l35 -65l-92 -52v-236h112v-79z" />
    <glyph glyph-name="lslash" unicode="&#x142;" horiz-adv-x="220" 
d="M149 0h-80v273l-35 -19l-36 64l71 39v409h80v-365l39 22l35 -65l-74 -41v-317z" />
    <glyph glyph-name="Lacute" unicode="&#x139;" horiz-adv-x="241" 
d="M233 0h-194v766h82v-687h112v-79zM108 838h-63l50 116h91z" />
    <glyph glyph-name="lacute" unicode="&#x13a;" horiz-adv-x="149" 
d="M114 0h-80v766h80v-766zM103 833h-63l50 116h91z" />
    <glyph glyph-name="Lcommaaccent" unicode="&#x13b;" horiz-adv-x="241" 
d="M233 0h-194v766h82v-687h112v-79zM122 -181h-61l45 131h86z" />
    <glyph glyph-name="lcommaaccent" unicode="&#x13c;" horiz-adv-x="149" 
d="M112 0h-80v766h80v-766zM63 -181h-61l45 131h86z" />
    <glyph glyph-name="Lcaron" unicode="&#x13d;" horiz-adv-x="290" 
d="M221 538h-54l35 228h93zM233 0h-194v766h82v-687h112v-79z" />
    <glyph glyph-name="lcaron" unicode="&#x13e;" horiz-adv-x="193" 
d="M190 538h-54l35 228h93zM114 0h-80v766h80v-766z" />
    <glyph glyph-name="Ldot" unicode="&#x13f;" horiz-adv-x="287" 
d="M233 0h-194v766h82v-687h112v-79zM221 311c-29 0 -52 23 -52 52s23 53 52 53s53 -24 53 -53s-24 -52 -53 -52z" />
    <glyph glyph-name="ldot" unicode="&#x140;" horiz-adv-x="240" 
d="M114 0h-80v766h80v-766zM192 271c-29 0 -52 23 -52 52s23 53 52 53s53 -24 53 -53s-24 -52 -53 -52z" />
    <glyph glyph-name="uni1E40" unicode="&#x1e40;" horiz-adv-x="509" 
d="M469 0h-82l3 599l-106 -599h-66l-100 600l3 -600h-82v766h130l85 -542l85 542h130v-766zM253 831c-28 0 -51 22 -51 51s23 51 51 51c29 0 51 -22 51 -51s-22 -51 -51 -51z" />
    <glyph glyph-name="uni1E41" unicode="&#x1e41;" horiz-adv-x="450" 
d="M418 0h-80v425c0 53 -8 75 -34 75c-25 0 -38 -19 -38 -78v-422h-80v425c0 53 -8 75 -34 75c-25 0 -38 -19 -38 -81v-419h-80v567h67l9 -46c11 22 32 54 81 54c39 0 59 -20 69 -64c15 34 37 64 83 64c59 0 75 -47 75 -153v-422zM224 632c-28 0 -51 22 -51 51s23 51 51 51
c29 0 51 -22 51 -51s-22 -51 -51 -51z" />
    <glyph glyph-name="Ntilde" unicode="&#xd1;" horiz-adv-x="392" 
d="M352 0h-98l-135 523l2 -523h-82v766h94l139 -532l-2 532h82v-766zM250 917h62c-4 -46 -28 -79 -68 -79c-29 0 -47 18 -71 18c-12 0 -20 -4 -22 -18h-60c1 32 18 79 66 79c29 0 52 -17 72 -17c13 0 20 7 21 17z" />
    <glyph glyph-name="ntilde" unicode="&#xf1;" 
d="M266 0h-80v425c0 53 -8 75 -34 75c-25 0 -38 -19 -38 -81v-419h-80v567h67l9 -46c11 22 32 54 81 54c59 0 75 -46 75 -153v-422zM197 718h62c-4 -46 -28 -79 -68 -79c-29 0 -47 18 -71 18c-12 0 -20 -4 -22 -18h-60c1 32 18 79 66 79c29 0 52 -17 72 -17c13 0 20 7 21 17
z" />
    <glyph glyph-name="Nacute" unicode="&#x143;" horiz-adv-x="392" 
d="M352 0h-98l-135 523l2 -523h-82v766h94l139 -532l-2 532h82v-766zM223 838h-63l50 116h91z" />
    <glyph glyph-name="nacute" unicode="&#x144;" 
d="M266 0h-80v425c0 53 -8 75 -34 75c-25 0 -38 -19 -38 -81v-419h-80v567h67l9 -46c11 22 32 54 81 54c59 0 75 -46 75 -153v-422zM163 639h-63l50 116h91z" />
    <glyph glyph-name="Ncommaaccent" unicode="&#x145;" horiz-adv-x="392" 
d="M352 0h-98l-135 523l2 -523h-82v766h94l139 -532l-2 532h82v-766zM190 -181h-61l45 131h86z" />
    <glyph glyph-name="ncommaaccent" unicode="&#x146;" 
d="M266 0h-80v425c0 53 -8 75 -34 75c-25 0 -38 -19 -38 -81v-419h-80v567h67l9 -46c11 22 32 54 81 54c59 0 75 -46 75 -153v-422zM143 -181h-61l45 131h86z" />
    <glyph glyph-name="Ncaron" unicode="&#x147;" horiz-adv-x="392" 
d="M352 0h-98l-135 523l2 -523h-82v766h94l139 -532l-2 532h82v-766zM240 838h-80l-68 121h67l40 -69l40 69h67z" />
    <glyph glyph-name="ncaron" unicode="&#x148;" 
d="M266 0h-80v425c0 53 -8 75 -34 75c-25 0 -38 -19 -38 -81v-419h-80v567h67l9 -46c11 22 32 54 81 54c59 0 75 -46 75 -153v-422zM188 639h-80l-68 121h67l40 -69l40 69h67z" />
    <glyph glyph-name="Eng" unicode="&#x14a;" horiz-adv-x="392" 
d="M214 -196h-3v77h3c28 0 56 20 56 76v47l-150 519l1 -523h-82v766h94l139 -508l-2 508h82v-808c0 -125 -73 -154 -138 -154z" />
    <glyph glyph-name="eng" unicode="&#x14b;" 
d="M120 -202v60c8 -1 11 -1 17 -1c45 0 49 27 49 77v491c0 53 -8 75 -34 75c-25 0 -38 -19 -38 -81v-419h-80v567h67l9 -46c11 22 32 54 81 54c59 0 75 -46 75 -153v-484c0 -98 -23 -145 -104 -145c-16 0 -29 2 -42 5z" />
    <glyph glyph-name="Ograve" unicode="&#xd2;" horiz-adv-x="347" 
d="M35 147v472c0 121 60 160 141 160s135 -40 135 -160v-472c0 -122 -62 -160 -138 -160c-77 0 -138 39 -138 160zM229 140v486c0 54 -27 76 -56 76c-30 0 -56 -22 -56 -76v-486c0 -55 26 -76 56 -76c29 0 56 21 56 76zM216 838h-63l-79 116h91z" />
    <glyph glyph-name="ograve" unicode="&#xf2;" horiz-adv-x="293" 
d="M262 436v-305c0 -103 -43 -139 -116 -139c-74 0 -116 37 -116 139v305c0 102 42 139 116 139c73 0 116 -36 116 -139zM182 133v301c0 48 -11 66 -37 66c-32 0 -35 -29 -35 -92v-275c0 -47 10 -66 36 -66c25 0 36 19 36 66zM192 639h-63l-79 116h91z" />
    <glyph glyph-name="Oacute" unicode="&#xd3;" horiz-adv-x="347" 
d="M35 147v472c0 121 60 160 141 160s135 -40 135 -160v-472c0 -122 -62 -160 -138 -160c-77 0 -138 39 -138 160zM229 140v486c0 54 -27 76 -56 76c-30 0 -56 -22 -56 -76v-486c0 -55 26 -76 56 -76c29 0 56 21 56 76zM196 838h-63l50 116h91z" />
    <glyph glyph-name="oacute" unicode="&#xf3;" horiz-adv-x="293" 
d="M262 436v-305c0 -103 -43 -139 -116 -139c-74 0 -116 37 -116 139v305c0 102 42 139 116 139c73 0 116 -36 116 -139zM182 133v301c0 48 -11 66 -37 66c-32 0 -35 -29 -35 -92v-275c0 -47 10 -66 36 -66c25 0 36 19 36 66zM163 639h-63l50 116h91z" />
    <glyph glyph-name="Ocircumflex" unicode="&#xd4;" horiz-adv-x="347" 
d="M35 147v472c0 121 60 160 141 160s135 -40 135 -160v-472c0 -122 -62 -160 -138 -160c-77 0 -138 39 -138 160zM229 140v486c0 54 -27 76 -56 76c-30 0 -56 -22 -56 -76v-486c0 -55 26 -76 56 -76c29 0 56 21 56 76zM281 838h-66l-42 70l-38 -70h-68l66 121h80z" />
    <glyph glyph-name="ocircumflex" unicode="&#xf4;" horiz-adv-x="293" 
d="M262 436v-305c0 -103 -43 -139 -116 -139c-74 0 -116 37 -116 139v305c0 102 42 139 116 139c73 0 116 -36 116 -139zM182 133v301c0 48 -11 66 -37 66c-32 0 -35 -29 -35 -92v-275c0 -47 10 -66 36 -66c25 0 36 19 36 66zM253 639h-66l-42 70l-38 -70h-68l66 121h80z
" />
    <glyph glyph-name="Otilde" unicode="&#xd5;" horiz-adv-x="347" 
d="M35 147v472c0 121 60 160 141 160s135 -40 135 -160v-472c0 -122 -62 -160 -138 -160c-77 0 -138 39 -138 160zM229 140v486c0 54 -27 76 -56 76c-30 0 -56 -22 -56 -76v-486c0 -55 26 -76 56 -76c29 0 56 21 56 76zM222 917h62c-4 -46 -28 -79 -68 -79
c-29 0 -47 18 -71 18c-12 0 -20 -4 -22 -18h-60c1 32 18 79 66 79c29 0 52 -17 72 -17c13 0 20 7 21 17z" />
    <glyph glyph-name="otilde" unicode="&#xf5;" horiz-adv-x="292" 
d="M261 436v-305c0 -103 -43 -139 -116 -139c-74 0 -116 37 -116 139v305c0 102 42 139 116 139c73 0 116 -36 116 -139zM181 133v301c0 48 -11 66 -37 66c-32 0 -35 -29 -35 -92v-275c0 -47 10 -66 36 -66c25 0 36 19 36 66zM193 718h62c-4 -46 -28 -79 -68 -79
c-29 0 -47 18 -71 18c-12 0 -20 -4 -22 -18h-60c1 32 18 79 66 79c29 0 52 -17 72 -17c13 0 20 7 21 17z" />
    <glyph glyph-name="Odieresis" unicode="&#xd6;" horiz-adv-x="347" 
d="M35 147v472c0 121 60 160 141 160s135 -40 135 -160v-472c0 -122 -62 -160 -138 -160c-77 0 -138 39 -138 160zM229 140v486c0 54 -27 76 -56 76c-30 0 -56 -22 -56 -76v-486c0 -55 26 -76 56 -76c29 0 56 21 56 76zM98 828c-28 0 -51 23 -51 52c0 28 23 51 51 51
c29 0 51 -23 51 -51c0 -29 -22 -52 -51 -52zM249 828c-28 0 -51 23 -51 52c0 28 23 51 51 51c29 0 51 -23 51 -51c0 -29 -22 -52 -51 -52z" />
    <glyph glyph-name="odieresis" unicode="&#xf6;" horiz-adv-x="292" 
d="M262 436v-305c0 -103 -43 -139 -116 -139c-74 0 -116 37 -116 139v305c0 102 42 139 116 139c73 0 116 -36 116 -139zM182 133v301c0 48 -11 66 -37 66c-32 0 -35 -29 -35 -92v-275c0 -47 10 -66 36 -66c25 0 36 19 36 66zM70 629c-28 0 -51 23 -51 52c0 28 23 51 51 51
c29 0 51 -23 51 -51c0 -29 -22 -52 -51 -52zM221 629c-28 0 -51 23 -51 52c0 28 23 51 51 51c29 0 51 -23 51 -51c0 -29 -22 -52 -51 -52z" />
    <glyph glyph-name="Omacron" unicode="&#x14c;" horiz-adv-x="347" 
d="M35 147v472c0 121 60 160 141 160s135 -40 135 -160v-472c0 -122 -62 -160 -138 -160c-77 0 -138 39 -138 160zM229 140v486c0 54 -27 76 -56 76c-30 0 -56 -22 -56 -76v-486c0 -55 26 -76 56 -76c29 0 56 21 56 76zM290 838h-232v66h232v-66z" />
    <glyph glyph-name="omacron" unicode="&#x14d;" horiz-adv-x="292" 
d="M261 436v-305c0 -103 -43 -139 -116 -139c-74 0 -116 37 -116 139v305c0 102 42 139 116 139c73 0 116 -36 116 -139zM181 133v301c0 48 -11 66 -37 66c-32 0 -35 -29 -35 -92v-275c0 -47 10 -66 36 -66c25 0 36 19 36 66zM261 639h-232v66h232v-66z" />
    <glyph glyph-name="Obreve" unicode="&#x14e;" horiz-adv-x="347" 
d="M35 147v472c0 121 60 160 141 160s135 -40 135 -160v-472c0 -122 -62 -160 -138 -160c-77 0 -138 39 -138 160zM229 140v486c0 54 -27 76 -56 76c-30 0 -56 -22 -56 -76v-486c0 -55 26 -76 56 -76c29 0 56 21 56 76zM231 936h47c-1 -68 -41 -106 -104 -106
s-105 38 -105 106h48c0 -29 17 -50 57 -50c39 0 56 21 57 50z" />
    <glyph glyph-name="obreve" unicode="&#x14f;" horiz-adv-x="293" 
d="M262 436v-305c0 -103 -43 -139 -116 -139c-74 0 -116 37 -116 139v305c0 102 42 139 116 139c73 0 116 -36 116 -139zM182 133v301c0 48 -11 66 -37 66c-32 0 -35 -29 -35 -92v-275c0 -47 10 -66 36 -66c25 0 36 19 36 66zM203 737h47c-1 -68 -41 -106 -104 -106
s-105 38 -105 106h48c0 -29 17 -50 57 -50c39 0 56 21 57 50z" />
    <glyph glyph-name="Ohungarumlaut" unicode="&#x150;" horiz-adv-x="347" 
d="M35 147v472c0 121 60 160 141 160s135 -40 135 -160v-472c0 -122 -62 -160 -138 -160c-77 0 -138 39 -138 160zM229 140v486c0 54 -27 76 -56 76c-30 0 -56 -22 -56 -76v-486c0 -55 26 -76 56 -76c29 0 56 21 56 76zM134 838h-68l44 118h86zM253 838h-68l44 118h86z" />
    <glyph glyph-name="ohungarumlaut" unicode="&#x151;" horiz-adv-x="292" 
d="M262 436v-305c0 -103 -43 -139 -116 -139c-74 0 -116 37 -116 139v305c0 102 42 139 116 139c73 0 116 -36 116 -139zM182 133v301c0 48 -11 66 -37 66c-32 0 -35 -29 -35 -92v-275c0 -47 10 -66 36 -66c25 0 36 19 36 66zM106 639h-68l44 118h86zM225 639h-68l44 118h86
z" />
    <glyph glyph-name="Oslash" unicode="&#xd8;" horiz-adv-x="347" 
d="M35 147v472c0 120 60 160 138 160c18 0 31 -2 43 -4l7 43h37l-9 -56c37 -22 60 -66 60 -143v-472c0 -122 -63 -160 -137 -160c-17 0 -30 2 -43 5l-7 -45h-37l9 58c-37 22 -61 66 -61 142zM117 626v-517l86 583c-9 7 -19 10 -30 10c-30 0 -56 -22 -56 -76zM229 140v509
l-86 -577c9 -6 19 -8 29 -8c30 0 57 20 57 76z" />
    <glyph glyph-name="oslash" unicode="&#xf8;" horiz-adv-x="293" 
d="M111 -53h-31l8 56c-38 17 -58 58 -58 128v305c0 101 42 139 115 139c12 0 21 -1 31 -3l7 44h31l-9 -54c38 -17 57 -57 57 -126v-305c0 -102 -43 -139 -113 -139c-12 0 -23 1 -31 2zM110 101l54 394c-5 3 -11 5 -19 5c-25 0 -35 -20 -35 -66v-333zM182 133v314l-52 -376
c4 -3 10 -4 16 -4c25 0 36 19 36 66z" />
    <glyph glyph-name="Oslashacute" unicode="&#x1fe;" horiz-adv-x="347" 
d="M180 838h-63l50 116h91zM35 147v472c0 120 60 160 138 160c18 0 31 -2 43 -4l7 43h37l-9 -56c37 -22 60 -66 60 -143v-472c0 -122 -63 -160 -137 -160c-17 0 -30 2 -43 5l-7 -45h-37l9 58c-37 22 -61 66 -61 142zM117 626v-517l86 583c-9 7 -19 10 -30 10
c-30 0 -56 -22 -56 -76zM229 140v509l-86 -577c9 -6 19 -8 29 -8c30 0 57 20 57 76z" />
    <glyph glyph-name="oslashacute" unicode="&#x1ff;" horiz-adv-x="293" 
d="M155 639h-63l50 116h91zM111 -53h-31l8 56c-38 17 -58 58 -58 128v305c0 101 42 139 115 139c12 0 21 -1 31 -3l7 44h31l-9 -54c38 -17 57 -57 57 -126v-305c0 -102 -43 -139 -113 -139c-12 0 -23 1 -31 2zM110 101l54 394c-5 3 -11 5 -19 5c-25 0 -35 -20 -35 -66v-333z
M182 133v314l-52 -376c4 -3 10 -4 16 -4c25 0 36 19 36 66z" />
    <glyph glyph-name="OE" unicode="&#x152;" horiz-adv-x="494" 
d="M468 0h-229c-19 -9 -42 -13 -66 -13c-77 0 -138 39 -138 160v472c0 121 61 160 139 160c28 0 49 -5 69 -13h225v-80h-157v-260h150v-80h-150v-267h157v-79zM228 132l1 497c0 52 -28 73 -56 73c-30 0 -56 -22 -56 -76v-486c0 -55 26 -76 55 -76c25 0 56 15 56 68z" />
    <glyph glyph-name="oe" unicode="&#x153;" horiz-adv-x="440" 
d="M414 187v-56c0 -103 -43 -139 -115 -139c-32 0 -58 7 -77 32c-21 -28 -51 -32 -76 -32c-81 0 -116 41 -116 158v266c0 118 35 159 116 159c25 0 55 -4 76 -32c19 25 45 32 78 32c78 0 114 -39 114 -159v-165h-152v-124c0 -43 11 -60 36 -60s36 19 36 66v54h80zM182 127
v313c0 43 -12 60 -37 60c-32 0 -35 -29 -35 -92v-275c0 -46 10 -66 35 -66c24 0 37 17 37 60zM334 325v109c0 47 -11 66 -37 66c-29 0 -35 -25 -35 -79v-96h72z" />
    <glyph glyph-name="uni1E56" unicode="&#x1e56;" horiz-adv-x="331" 
d="M121 0h-82v766h132c87 0 139 -35 139 -160v-125c0 -125 -49 -160 -136 -160h-53v-321zM228 477v133c0 56 -18 76 -56 76h-51v-285h51c38 0 56 20 56 76zM161 831c-28 0 -51 22 -51 51s23 51 51 51c29 0 51 -22 51 -51s-22 -51 -51 -51z" />
    <glyph glyph-name="uni1E57" unicode="&#x1e57;" horiz-adv-x="296" 
d="M114 -199h-80v766h67l9 -46c11 22 32 54 81 54c59 0 75 -46 75 -153v-277c0 -108 -16 -153 -76 -153c-45 0 -64 26 -76 46v-237zM186 142v283c0 53 -8 75 -34 75c-25 0 -38 -19 -38 -81v-272c0 -61 13 -81 38 -81c26 0 34 22 34 76zM146 632c-28 0 -51 22 -51 51
s23 51 51 51c29 0 51 -22 51 -51s-22 -51 -51 -51z" />
    <glyph glyph-name="Thorn" unicode="&#xde;" horiz-adv-x="330" 
d="M121 0h-82v766h82v-163h48c92 0 141 -35 141 -165v-108c0 -130 -47 -165 -136 -165h-53v-165zM228 320v127c0 56 -18 76 -56 76h-51v-279h51c38 0 56 20 56 76z" />
    <glyph glyph-name="thorn" unicode="&#xfe;" horiz-adv-x="296" 
d="M113 -199h-80v965h80v-238c10 17 27 47 76 47c60 0 76 -45 76 -153v-277c0 -108 -16 -153 -76 -153c-45 0 -64 26 -76 46v-237zM185 142v283c0 53 -8 75 -34 75c-25 0 -38 -19 -38 -81v-272c0 -61 13 -81 38 -81c26 0 34 22 34 76z" />
    <glyph glyph-name="Racute" unicode="&#x154;" horiz-adv-x="336" 
d="M330 0h-82l-89 324h-38v-324h-82v766h134c87 0 137 -35 137 -160v-119c0 -83 -18 -130 -74 -149zM228 479v131c0 56 -18 76 -56 76h-51v-283h51c38 0 56 20 56 76zM181 838h-63l50 116h91z" />
    <glyph glyph-name="racute" unicode="&#x155;" horiz-adv-x="227" 
d="M114 0h-80v567h67l9 -46c8 19 34 53 75 53c20 0 37 -8 43 -12l-17 -84c-19 9 -37 13 -50 13c-35 0 -47 -30 -47 -112v-379zM138 639h-63l50 116h91z" />
    <glyph glyph-name="Rcommaaccent" unicode="&#x156;" horiz-adv-x="336" 
d="M330 0h-82l-89 324h-38v-324h-82v766h134c87 0 137 -35 137 -160v-119c0 -83 -18 -130 -74 -149zM228 479v131c0 56 -18 76 -56 76h-51v-283h51c38 0 56 20 56 76zM168 -181h-61l45 131h86z" />
    <glyph glyph-name="rcommaaccent" unicode="&#x157;" horiz-adv-x="227" 
d="M114 0h-80v567h67l9 -46c8 19 34 53 75 53c20 0 37 -8 43 -12l-17 -84c-19 9 -37 13 -50 13c-35 0 -47 -30 -47 -112v-379zM76 -181h-61l45 131h86z" />
    <glyph glyph-name="Rcaron" unicode="&#x158;" horiz-adv-x="336" 
d="M330 0h-82l-89 324h-38v-324h-82v766h134c87 0 137 -35 137 -160v-119c0 -83 -18 -130 -74 -149zM228 479v131c0 56 -18 76 -56 76h-51v-283h51c38 0 56 20 56 76zM202 838h-80l-68 121h67l40 -69l40 69h67z" />
    <glyph glyph-name="rcaron" unicode="&#x159;" horiz-adv-x="226" 
d="M114 0h-80v567h67l9 -46c8 19 34 53 75 53c20 0 37 -8 43 -12l-17 -84c-19 9 -37 13 -50 13c-35 0 -47 -30 -47 -112v-379zM162 639h-80l-68 121h67l40 -69l40 69h67z" />
    <glyph glyph-name="Scaron" unicode="&#x160;" horiz-adv-x="333" 
d="M304 239v-87c0 -111 -45 -165 -137 -165c-94 0 -139 56 -139 165v104h82v-116c0 -55 27 -76 57 -76c33 0 55 25 55 93v66c0 95 -194 157 -194 305v97c0 123 72 154 141 154c68 0 135 -31 135 -155v-125h-82v127c0 55 -27 76 -57 76c-33 0 -55 -25 -55 -94v-66
c0 -126 194 -160 194 -303zM209 838h-80l-68 121h67l40 -69l40 69h67z" />
    <glyph glyph-name="scaron" unicode="&#x161;" horiz-adv-x="284" 
d="M101 187v-46c0 -51 8 -74 40 -74c31 0 42 21 42 59c0 146 -162 112 -162 309c0 104 45 140 123 140c81 0 119 -38 119 -145v-52h-80v46c0 56 -8 76 -40 76s-41 -21 -41 -60c0 -164 161 -109 161 -309c0 -98 -39 -139 -123 -139c-86 0 -119 44 -119 149v46h80zM186 639
h-80l-68 121h67l40 -69l40 69h67z" />
    <glyph glyph-name="Scommaaccent" unicode="&#x218;" horiz-adv-x="333" 
d="M304 239v-87c0 -111 -45 -165 -137 -165c-94 0 -139 56 -139 165v104h82v-116c0 -55 27 -76 57 -76c33 0 55 25 55 93v66c0 95 -194 157 -194 305v97c0 123 72 154 141 154c68 0 135 -31 135 -155v-125h-82v127c0 55 -27 76 -57 76c-33 0 -55 -25 -55 -94v-66
c0 -126 194 -160 194 -303zM167 -181h-61l45 131h86z" />
    <glyph glyph-name="scommaaccent" unicode="&#x219;" horiz-adv-x="284" 
d="M101 187v-46c0 -51 8 -74 40 -74c31 0 42 21 42 59c0 146 -162 112 -162 309c0 104 45 140 123 140c81 0 119 -38 119 -145v-52h-80v46c0 56 -8 76 -40 76s-41 -21 -41 -60c0 -164 161 -109 161 -309c0 -98 -39 -139 -123 -139c-86 0 -119 44 -119 149v46h80zM143 -181
h-61l45 131h86z" />
    <glyph glyph-name="Scedilla" unicode="&#x15e;" horiz-adv-x="332" 
d="M96 -168l12 48c6 -4 21 -9 35 -9c24 0 38 15 38 31c0 15 -12 31 -41 31c-3 0 -6 0 -10 -1l14 56c-79 8 -116 63 -116 164v104h82v-116c0 -56 28 -76 56 -76s56 20 56 76v83c0 95 -194 157 -194 305v97c0 123 72 154 141 154c68 0 135 -31 135 -155v-125h-82v127
c0 56 -28 76 -56 76s-56 -20 -56 -76v-84c0 -126 194 -160 194 -303v-87c0 -97 -33 -150 -104 -162l-8 -36c36 0 60 -29 60 -61c0 -36 -31 -73 -92 -73c-22 0 -48 5 -64 12z" />
    <glyph glyph-name="scedilla" unicode="&#x15f;" horiz-adv-x="284" 
d="M68 -168l13 48c6 -4 20 -9 34 -9c25 0 38 15 38 31c0 15 -11 31 -40 31c-3 0 -6 0 -10 -1l15 61c-71 7 -98 52 -98 148v46h80v-46c0 -51 8 -74 40 -74c31 0 42 21 42 59c0 146 -162 112 -162 309c0 104 45 140 123 140c81 0 119 -38 119 -145v-52h-80v46
c0 56 -8 76 -40 76s-41 -21 -41 -60c0 -164 161 -110 161 -309c0 -84 -29 -125 -88 -136l-10 -41c36 0 60 -29 60 -61c0 -36 -31 -73 -91 -73c-23 0 -48 5 -65 12z" />
    <glyph glyph-name="Sacute" unicode="&#x15a;" horiz-adv-x="333" 
d="M304 239v-87c0 -111 -45 -165 -137 -165c-94 0 -139 56 -139 165v104h82v-116c0 -55 27 -76 57 -76c33 0 55 25 55 93v66c0 95 -194 157 -194 305v97c0 123 72 154 141 154c68 0 135 -31 135 -155v-125h-82v127c0 55 -27 76 -57 76c-33 0 -55 -25 -55 -94v-66
c0 -126 194 -160 194 -303zM185 838h-63l50 116h91z" />
    <glyph glyph-name="sacute" unicode="&#x15b;" horiz-adv-x="284" 
d="M101 187v-46c0 -51 8 -74 40 -74c31 0 42 21 42 59c0 146 -162 112 -162 309c0 104 45 140 123 140c81 0 119 -38 119 -145v-52h-80v46c0 56 -8 76 -40 76s-41 -21 -41 -60c0 -164 161 -109 161 -309c0 -98 -39 -139 -123 -139c-86 0 -119 44 -119 149v46h80zM159 639
h-63l50 116h91z" />
    <glyph glyph-name="Scircumflex" unicode="&#x15c;" horiz-adv-x="333" 
d="M304 239v-87c0 -111 -45 -165 -137 -165c-94 0 -139 56 -139 165v104h82v-116c0 -55 27 -76 57 -76c33 0 55 25 55 93v66c0 95 -194 157 -194 305v97c0 123 72 154 141 154c68 0 135 -31 135 -155v-125h-82v127c0 55 -27 76 -57 76c-33 0 -55 -25 -55 -94v-66
c0 -126 194 -160 194 -303zM275 838h-66l-42 70l-38 -70h-68l66 121h80z" />
    <glyph glyph-name="scircumflex" unicode="&#x15d;" horiz-adv-x="284" 
d="M101 187v-46c0 -51 8 -74 40 -74c31 0 42 21 42 59c0 146 -162 112 -162 309c0 104 45 140 123 140c81 0 119 -38 119 -145v-52h-80v46c0 56 -8 76 -40 76s-41 -21 -41 -60c0 -164 161 -109 161 -309c0 -98 -39 -139 -123 -139c-86 0 -119 44 -119 149v46h80zM252 639
h-66l-42 70l-38 -70h-68l66 121h80z" />
    <glyph glyph-name="uni1E60" unicode="&#x1e60;" horiz-adv-x="333" 
d="M304 239v-87c0 -111 -45 -165 -137 -165c-94 0 -139 56 -139 165v104h82v-116c0 -55 27 -76 57 -76c33 0 55 25 55 93v66c0 95 -194 157 -194 305v97c0 123 72 154 141 154c68 0 135 -31 135 -155v-125h-82v127c0 55 -27 76 -57 76c-33 0 -55 -25 -55 -94v-66
c0 -126 194 -160 194 -303zM167 831c-28 0 -51 22 -51 51s23 51 51 51c29 0 51 -22 51 -51s-22 -51 -51 -51z" />
    <glyph glyph-name="uni1E61" unicode="&#x1e61;" horiz-adv-x="284" 
d="M101 187v-46c0 -51 8 -74 40 -74c31 0 42 21 42 59c0 146 -162 112 -162 309c0 104 45 140 123 140c81 0 119 -38 119 -145v-52h-80v46c0 56 -8 76 -40 76s-41 -21 -41 -60c0 -164 161 -109 161 -309c0 -98 -39 -139 -123 -139c-86 0 -119 44 -119 149v46h80zM145 632
c-28 0 -51 22 -51 51s23 51 51 51c29 0 51 -22 51 -51s-22 -51 -51 -51z" />
    <glyph glyph-name="Tcaron" unicode="&#x164;" horiz-adv-x="288" 
d="M185 0h-82v686h-95v80h272v-80h-95v-686zM184 838h-80l-68 121h67l40 -69l40 69h67z" />
    <glyph glyph-name="tcaron" unicode="&#x165;" horiz-adv-x="205" 
d="M228 621h-54l35 178h93zM197 64v-67c-13 -3 -25 -5 -43 -5c-80 0 -103 42 -103 150v351h-45v74h45v140h80v-140h65v-74h-65v-357c0 -50 6 -73 45 -73c5 0 13 0 21 1z" />
    <glyph glyph-name="Tbar" unicode="&#x166;" horiz-adv-x="301" 
d="M191 0h-82v355h-70v68h70v263h-95v80h272v-80h-95v-263h70v-68h-70v-355z" />
    <glyph glyph-name="tbar" unicode="&#x167;" horiz-adv-x="206" 
d="M198 64v-67c-13 -3 -25 -5 -43 -5c-80 0 -103 42 -103 150v147h-42v68h42v136h-45v74h45v140h80v-140h65v-74h-65v-136h60v-68h-60v-153c0 -50 6 -73 44 -73c6 0 14 0 22 1z" />
    <glyph glyph-name="Tcommaaccent" unicode="&#x162;" horiz-adv-x="288" 
d="M185 0h-82v686h-95v80h272v-80h-95v-686zM136 -181h-61l45 131h86z" />
    <glyph glyph-name="tcommaaccent" unicode="&#x163;" horiz-adv-x="204" 
d="M197 64v-67c-13 -3 -25 -5 -43 -5c-80 0 -103 42 -103 150v351h-45v74h45v140h80v-140h65v-74h-65v-357c0 -50 6 -73 45 -73c5 0 13 0 21 1zM116 -181h-61l45 131h86z" />
    <glyph glyph-name="uni1E6A" unicode="&#x1e6a;" horiz-adv-x="288" 
d="M185 0h-82v686h-95v80h272v-80h-95v-686zM143 831c-28 0 -51 22 -51 51s23 51 51 51c29 0 51 -22 51 -51s-22 -51 -51 -51z" />
    <glyph glyph-name="uni1E6B" unicode="&#x1e6b;" horiz-adv-x="204" 
d="M197 64v-67c-13 -3 -25 -5 -43 -5c-80 0 -103 42 -103 150v351h-45v74h45v140h80v-140h65v-74h-65v-357c0 -50 6 -73 45 -73c5 0 13 0 21 1zM92 762c-28 0 -51 22 -51 51s23 51 51 51c29 0 51 -22 51 -51s-22 -51 -51 -51z" />
    <glyph glyph-name="Ugrave" unicode="&#xd9;" horiz-adv-x="352" 
d="M232 140v626h82v-619c0 -122 -62 -160 -138 -160c-77 0 -138 39 -138 160v619h82v-626c0 -55 26 -76 56 -76c29 0 56 21 56 76zM214 838h-63l-79 116h91z" />
    <glyph glyph-name="ugrave" unicode="&#xf9;" 
d="M264 0h-67l-9 46c-11 -22 -32 -54 -81 -54c-59 0 -75 46 -75 153v422h80v-425c0 -54 8 -76 34 -76c25 0 38 20 38 81v420h80v-567zM189 639h-63l-79 116h91z" />
    <glyph glyph-name="Uacute" unicode="&#xda;" horiz-adv-x="352" 
d="M232 140v626h82v-619c0 -122 -62 -160 -138 -160c-77 0 -138 39 -138 160v619h82v-626c0 -55 26 -76 56 -76c29 0 56 21 56 76zM200 838h-63l50 116h91z" />
    <glyph glyph-name="uacute" unicode="&#xfa;" 
d="M264 0h-67l-9 46c-11 -22 -32 -54 -81 -54c-59 0 -75 46 -75 153v422h80v-425c0 -54 8 -76 34 -76c25 0 38 20 38 81v420h80v-567zM166 639h-63l50 116h91z" />
    <glyph glyph-name="Ucircumflex" unicode="&#xdb;" horiz-adv-x="352" 
d="M232 140v626h82v-619c0 -122 -62 -160 -138 -160c-77 0 -138 39 -138 160v619h82v-626c0 -55 26 -76 56 -76c29 0 56 21 56 76zM277 838h-66l-42 70l-38 -70h-68l66 121h80z" />
    <glyph glyph-name="ucircumflex" unicode="&#xfb;" 
d="M264 0h-67l-9 46c-11 -22 -32 -54 -81 -54c-59 0 -75 46 -75 153v422h80v-425c0 -54 8 -76 34 -76c25 0 38 20 38 81v420h80v-567zM255 639h-66l-42 70l-38 -70h-68l66 121h80z" />
    <glyph glyph-name="Udieresis" unicode="&#xdc;" horiz-adv-x="352" 
d="M232 140v626h82v-619c0 -122 -62 -160 -138 -160c-77 0 -138 39 -138 160v619h82v-626c0 -55 26 -76 56 -76c29 0 56 21 56 76zM99 828c-28 0 -51 23 -51 52c0 28 23 51 51 51c29 0 51 -23 51 -51c0 -29 -22 -52 -51 -52zM250 828c-28 0 -51 23 -51 52c0 28 23 51 51 51
c29 0 51 -23 51 -51c0 -29 -22 -52 -51 -52z" />
    <glyph glyph-name="udieresis" unicode="&#xfc;" 
d="M265 0h-67l-9 46c-11 -22 -32 -54 -81 -54c-59 0 -75 46 -75 153v422h80v-425c0 -54 8 -76 34 -76c25 0 38 20 38 81v420h80v-567zM74 629c-28 0 -51 23 -51 52c0 28 23 51 51 51c29 0 51 -23 51 -51c0 -29 -22 -52 -51 -52zM225 629c-28 0 -51 23 -51 52
c0 28 23 51 51 51c29 0 51 -23 51 -51c0 -29 -22 -52 -51 -52z" />
    <glyph glyph-name="Utilde" unicode="&#x168;" horiz-adv-x="352" 
d="M232 140v626h82v-619c0 -122 -62 -160 -138 -160c-77 0 -138 39 -138 160v619h82v-626c0 -55 26 -76 56 -76c29 0 56 21 56 76zM223 917h62c-4 -46 -28 -79 -68 -79c-29 0 -47 18 -71 18c-12 0 -20 -4 -22 -18h-60c1 32 18 79 66 79c29 0 52 -17 72 -17c13 0 20 7 21 17z
" />
    <glyph glyph-name="utilde" unicode="&#x169;" 
d="M264 0h-67l-9 46c-11 -22 -32 -54 -81 -54c-59 0 -75 46 -75 153v422h80v-425c0 -54 8 -76 34 -76c25 0 38 20 38 81v420h80v-567zM197 718h62c-4 -46 -28 -79 -68 -79c-29 0 -47 18 -71 18c-12 0 -20 -4 -22 -18h-60c1 32 18 79 66 79c29 0 52 -17 72 -17
c13 0 20 7 21 17z" />
    <glyph glyph-name="Umacron" unicode="&#x16a;" horiz-adv-x="352" 
d="M232 140v626h82v-619c0 -122 -62 -160 -138 -160c-77 0 -138 39 -138 160v619h82v-626c0 -55 26 -76 56 -76c29 0 56 21 56 76zM291 838h-232v66h232v-66z" />
    <glyph glyph-name="umacron" unicode="&#x16b;" 
d="M264 0h-67l-9 46c-11 -22 -32 -54 -81 -54c-59 0 -75 46 -75 153v422h80v-425c0 -54 8 -76 34 -76c25 0 38 20 38 81v420h80v-567zM264 639h-232v66h232v-66z" />
    <glyph glyph-name="Ubreve" unicode="&#x16c;" horiz-adv-x="352" 
d="M232 140v626h82v-619c0 -122 -62 -160 -138 -160c-77 0 -138 39 -138 160v619h82v-626c0 -55 26 -76 56 -76c29 0 56 21 56 76zM232 936h47c-1 -68 -41 -106 -104 -106s-105 38 -105 106h48c0 -29 17 -50 57 -50c39 0 56 21 57 50z" />
    <glyph glyph-name="ubreve" unicode="&#x16d;" 
d="M264 0h-67l-9 46c-11 -22 -32 -54 -81 -54c-59 0 -75 46 -75 153v422h80v-425c0 -54 8 -76 34 -76c25 0 38 20 38 81v420h80v-567zM206 737h47c-1 -68 -41 -106 -104 -106s-105 38 -105 106h48c0 -29 17 -50 57 -50c39 0 56 21 57 50z" />
    <glyph glyph-name="Uring" unicode="&#x16e;" horiz-adv-x="352" 
d="M232 140v626h82v-619c0 -122 -62 -160 -138 -160c-77 0 -138 39 -138 160v619h82v-626c0 -55 26 -76 56 -76c29 0 56 21 56 76zM208 892c0 19 -15 33 -34 33s-33 -14 -33 -33s14 -34 33 -34s34 15 34 34zM174 816c-42 0 -75 33 -75 76c0 42 33 75 75 75
c43 0 76 -33 76 -75c0 -43 -33 -76 -76 -76z" />
    <glyph glyph-name="uring" unicode="&#x16f;" 
d="M264 0h-67l-9 46c-11 -22 -32 -54 -81 -54c-59 0 -75 46 -75 153v422h80v-425c0 -54 8 -76 34 -76c25 0 38 20 38 81v420h80v-567zM182 693c0 19 -15 33 -34 33s-33 -14 -33 -33s14 -34 33 -34s34 15 34 34zM148 617c-42 0 -75 33 -75 76c0 42 33 75 75 75
c43 0 76 -33 76 -75c0 -43 -33 -76 -76 -76z" />
    <glyph glyph-name="Uhungarumlaut" unicode="&#x170;" horiz-adv-x="352" 
d="M232 140v626h82v-619c0 -122 -62 -160 -138 -160c-77 0 -138 39 -138 160v619h82v-626c0 -55 26 -76 56 -76c29 0 56 21 56 76zM138 838h-68l44 118h86zM257 838h-68l44 118h86z" />
    <glyph glyph-name="uhungarumlaut" unicode="&#x171;" 
d="M264 0h-67l-9 46c-11 -22 -32 -54 -81 -54c-59 0 -75 46 -75 153v422h80v-425c0 -54 8 -76 34 -76c25 0 38 20 38 81v420h80v-567zM114 639h-68l44 118h86zM233 639h-68l44 118h86z" />
    <glyph glyph-name="Uogonek" unicode="&#x172;" horiz-adv-x="352" 
d="M248 -149l-28 -41c-68 5 -108 50 -108 99c0 28 13 57 44 79c-67 7 -118 48 -118 159v619h82v-626c0 -55 26 -76 56 -76c29 0 56 21 56 76v626h82v-619c0 -102 -40 -129 -78 -153c-24 -15 -55 -38 -55 -77c0 -36 27 -56 67 -66z" />
    <glyph glyph-name="uogonek" unicode="&#x173;" 
d="M274 -149l-28 -41c-69 5 -108 50 -108 99c0 33 18 67 62 90l-11 47c-12 -22 -32 -54 -81 -54c-60 0 -76 46 -76 153v422h80v-425c0 -54 8 -76 34 -76c25 0 38 20 38 81v420h80v-567c-34 -23 -57 -53 -57 -84c0 -34 27 -55 67 -65z" />
    <glyph glyph-name="Wcircumflex" unicode="&#x174;" horiz-adv-x="534" 
d="M524 766l-84 -766h-107l-66 597l-65 -597h-108l-84 766h82l57 -613l66 613h104l66 -613l57 613h82zM375 838h-66l-42 70l-38 -70h-68l66 121h80z" />
    <glyph glyph-name="wcircumflex" unicode="&#x175;" horiz-adv-x="453" 
d="M369 0h-99l-43 414l-43 -414h-99l-77 567h84l45 -440l46 440h88l46 -440l45 440h84zM335 639h-66l-42 70l-38 -70h-68l66 121h80z" />
    <glyph glyph-name="Wdieresis" unicode="&#x1e84;" horiz-adv-x="534" 
d="M524 766l-84 -766h-107l-66 597l-65 -597h-108l-84 766h82l57 -613l66 613h104l66 -613l57 613h82zM192 828c-28 0 -51 23 -51 52c0 28 23 51 51 51c29 0 51 -23 51 -51c0 -29 -22 -52 -51 -52zM343 828c-28 0 -51 23 -51 52c0 28 23 51 51 51c29 0 51 -23 51 -51
c0 -29 -22 -52 -51 -52z" />
    <glyph glyph-name="wdieresis" unicode="&#x1e85;" horiz-adv-x="453" 
d="M369 0h-99l-43 414l-43 -414h-99l-77 567h84l45 -440l46 440h88l46 -440l45 440h84zM152 629c-28 0 -51 23 -51 52c0 28 23 51 51 51c29 0 51 -23 51 -51c0 -29 -22 -52 -51 -52zM303 629c-28 0 -51 23 -51 52c0 28 23 51 51 51c29 0 51 -23 51 -51
c0 -29 -22 -52 -51 -52z" />
    <glyph glyph-name="Wgrave" unicode="&#x1e80;" horiz-adv-x="534" 
d="M524 766l-84 -766h-107l-66 597l-65 -597h-108l-84 766h82l57 -613l66 613h104l66 -613l57 613h82zM309 838h-63l-79 116h91z" />
    <glyph glyph-name="wgrave" unicode="&#x1e81;" horiz-adv-x="453" 
d="M369 0h-99l-43 414l-43 -414h-99l-77 567h84l45 -440l46 440h88l46 -440l45 440h84zM271 639h-63l-79 116h91z" />
    <glyph glyph-name="Wacute" unicode="&#x1e82;" horiz-adv-x="534" 
d="M524 766l-84 -766h-107l-66 597l-65 -597h-108l-84 766h82l57 -613l66 613h104l66 -613l57 613h82zM294 838h-63l50 116h91z" />
    <glyph glyph-name="wacute" unicode="&#x1e83;" horiz-adv-x="453" 
d="M369 0h-99l-43 414l-43 -414h-99l-77 567h84l45 -440l46 440h88l46 -440l45 440h84zM252 639h-63l50 116h91z" />
    <glyph glyph-name="Ygrave" unicode="&#x1ef2;" horiz-adv-x="326" 
d="M203 0h-81v276l-118 490h83l75 -360l77 360h83l-119 -490v-276zM205 838h-63l-79 116h91z" />
    <glyph glyph-name="ygrave" unicode="&#x1ef3;" horiz-adv-x="280" 
d="M159 -200h-84l30 165l-99 602h84l53 -437l48 437h84zM188 639h-63l-79 116h91z" />
    <glyph glyph-name="Yacute" unicode="&#xdd;" horiz-adv-x="326" 
d="M203 0h-81v276l-118 490h83l75 -360l77 360h83l-119 -490v-276zM188 838h-63l50 116h91z" />
    <glyph glyph-name="yacute" unicode="&#xfd;" horiz-adv-x="280" 
d="M159 -200h-84l30 165l-99 602h84l53 -437l48 437h84zM158 639h-63l50 116h91z" />
    <glyph glyph-name="Ydieresis" unicode="&#x178;" horiz-adv-x="326" 
d="M203 0h-81v276l-118 490h83l75 -360l77 360h83l-119 -490v-276zM87 828c-28 0 -51 23 -51 52c0 28 23 51 51 51c29 0 51 -23 51 -51c0 -29 -22 -52 -51 -52zM238 828c-28 0 -51 23 -51 52c0 28 23 51 51 51c29 0 51 -23 51 -51c0 -29 -22 -52 -51 -52z" />
    <glyph glyph-name="ydieresis" unicode="&#xff;" horiz-adv-x="280" 
d="M159 -200h-84l30 165l-99 602h84l53 -437l48 437h84zM62 629c-28 0 -51 23 -51 52c0 28 23 51 51 51c29 0 51 -23 51 -51c0 -29 -22 -52 -51 -52zM213 629c-28 0 -51 23 -51 52c0 28 23 51 51 51c29 0 51 -23 51 -51c0 -29 -22 -52 -51 -52z" />
    <glyph glyph-name="Ycircumflex" unicode="&#x176;" horiz-adv-x="326" 
d="M203 0h-81v276l-118 490h83l75 -360l77 360h83l-119 -490v-276zM270 838h-66l-42 70l-38 -70h-68l66 121h80z" />
    <glyph glyph-name="ycircumflex" unicode="&#x177;" horiz-adv-x="280" 
d="M159 -200h-84l30 165l-99 602h84l53 -437l48 437h84zM244 639h-66l-42 70l-38 -70h-68l66 121h80z" />
    <glyph glyph-name="Zcaron" unicode="&#x17d;" horiz-adv-x="285" 
d="M270 0h-256v79l160 607h-151v80h247v-36l-172 -651h172v-79zM195 838h-80l-68 121h67l40 -69l40 69h67z" />
    <glyph glyph-name="zcaron" unicode="&#x17e;" horiz-adv-x="255" 
d="M232 0h-222v68l142 425h-123v74h215v-55l-144 -437h132v-75zM179 639h-80l-68 121h67l40 -69l40 69h67z" />
    <glyph glyph-name="Zacute" unicode="&#x179;" horiz-adv-x="285" 
d="M270 0h-256v79l160 607h-151v80h247v-36l-172 -651h172v-79zM171 838h-63l50 116h91z" />
    <glyph glyph-name="zacute" unicode="&#x17a;" horiz-adv-x="255" 
d="M232 0h-222v68l142 425h-123v74h215v-55l-144 -437h132v-75zM152 639h-63l50 116h91z" />
    <glyph glyph-name="Zdotaccent" unicode="&#x17b;" horiz-adv-x="285" 
d="M270 0h-256v79l160 607h-151v80h247v-36l-172 -651h172v-79zM153 831c-28 0 -51 22 -51 51s23 51 51 51c29 0 51 -22 51 -51s-22 -51 -51 -51z" />
    <glyph glyph-name="zdotaccent" unicode="&#x17c;" horiz-adv-x="255" 
d="M232 0h-222v68l142 425h-123v74h215v-55l-144 -437h132v-75zM137 632c-28 0 -51 22 -51 51s23 51 51 51c29 0 51 -22 51 -51s-22 -51 -51 -51z" />
    <glyph glyph-name="ampersand" unicode="&#x26;" horiz-adv-x="362" 
d="M347 361h-36v-214c0 -109 -49 -160 -138 -160s-138 51 -138 162v115c0 67 15 114 84 136c-69 18 -84 59 -84 126v95c0 111 53 158 140 158s136 -47 136 -154v-25h-82v27c0 56 -28 76 -56 76s-56 -21 -56 -77v-122c0 -56 58 -66 86 -66h26v60h82v-60h36v-77zM229 140v221
h-26c-28 0 -86 -10 -86 -66v-155c0 -56 28 -76 56 -76s56 20 56 76z" />
    <glyph glyph-name="sterling" unicode="&#xa3;" horiz-adv-x="379" 
d="M351 0h-324v82h50v152h-50v76h50v64h-50v76h50v171c0 133 77 158 141 158c63 0 135 -24 135 -158v-53h-82v58c0 56 -28 76 -56 76s-56 -20 -56 -76v-176h165v-76h-165v-64h165v-76h-165v-152h192v-82z" />
    <glyph glyph-name="yen" unicode="&#xa5;" horiz-adv-x="358" 
d="M330 124h-111v-124h-81v124h-110v76h110v64h-110v76h99l-107 426h83l76 -354l76 354h83l-108 -426h100v-76h-111v-64h111v-76z" />
    <glyph glyph-name="dollar" unicode="$" horiz-adv-x="337" 
d="M186 -64h-33v52c-83 5 -123 61 -123 164v104h82v-116c0 -46 19 -68 41 -74v267c-56 51 -123 109 -123 195v98c0 112 61 146 123 152v52h33v-53c65 -6 120 -38 120 -151v-127h-82v127c0 43 -17 65 -38 73v-283c54 -47 120 -95 120 -177v-87c0 -104 -40 -158 -120 -164v-52
zM153 448v252c-22 -7 -41 -28 -41 -74v-84c0 -38 16 -68 41 -94zM224 140v83c0 27 -16 51 -38 76v-232c21 7 38 29 38 73z" />
    <glyph glyph-name="cent" unicode="&#xa2;" horiz-adv-x="290" 
d="M188 0h-80v104c-55 14 -76 58 -76 154v266c0 97 21 139 76 154v89h80v-89c54 -13 76 -55 76 -151v-60h-80v57c0 61 -5 84 -36 84c-35 0 -36 -36 -36 -102v-247c0 -61 5 -84 36 -84s36 24 36 86v69h80v-73c0 -98 -22 -139 -76 -153v-104z" />
    <glyph glyph-name="Euro" unicode="&#x20ac;" horiz-adv-x="369" 
d="M342 186v-39c0 -122 -62 -160 -138 -160c-77 0 -138 39 -138 160v127h-43v76h43v64h-44v76h44v129c0 121 61 160 140 160c74 0 136 -35 136 -157v-53h-82v57c0 54 -26 76 -57 76c-35 0 -55 -28 -55 -94v-118h151v-76h-151v-64h152v-76h-152v-134c0 -55 26 -76 56 -76
c29 0 56 21 56 76v46h82z" />
    <glyph glyph-name="parenleft" unicode="(" horiz-adv-x="186" 
d="M180 -172h-81c-69 200 -79 368 -79 469s10 269 79 469h81c-49 -125 -79 -294 -79 -469s30 -344 79 -469z" />
    <glyph glyph-name="parenright" unicode=")" horiz-adv-x="186" 
d="M86 -172h-81c49 125 79 294 79 469s-30 344 -79 469h81c69 -200 79 -368 79 -469s-10 -269 -79 -469z" />
    <glyph glyph-name="bracketleft" unicode="[" horiz-adv-x="219" 
d="M206 -170h-161v936h161v-67h-83v-799h83v-70z" />
    <glyph glyph-name="bracketright" unicode="]" horiz-adv-x="219" 
d="M174 -170h-161v70h82v799h-82v67h161v-936z" />
    <glyph glyph-name="braceleft" unicode="{" horiz-adv-x="256" 
d="M242 -100v-70h-69c-59 0 -86 42 -86 107v201c0 71 -13 121 -84 128v61c70 8 84 65 84 130v201c0 67 27 108 86 108h69v-67h-42c-34 0 -35 -37 -35 -87v-182c0 -86 -42 -121 -66 -132c24 -8 66 -47 66 -131v-180c0 -60 1 -87 35 -87h42z" />
    <glyph glyph-name="braceright" unicode="}" horiz-adv-x="256" 
d="M169 138v-201c0 -65 -27 -107 -86 -107h-69v70h42c34 0 35 27 35 87v180c0 84 42 123 66 131c-24 11 -66 46 -66 132v182c0 50 -1 87 -35 87h-42v67h69c59 0 86 -41 86 -108v-201c0 -65 14 -122 84 -130v-61c-71 -7 -84 -57 -84 -128z" />
    <glyph glyph-name="exclam" unicode="!" horiz-adv-x="166" 
d="M110 171h-55l-16 595h89zM83 -8c-29 0 -53 23 -53 52s24 53 53 53s52 -24 52 -53s-23 -52 -52 -52z" />
    <glyph glyph-name="exclamdown" unicode="&#xa1;" horiz-adv-x="157" 
d="M122 -174h-89l18 595h55zM131 547c0 -29 -24 -52 -53 -52s-52 23 -52 52s23 53 52 53s53 -24 53 -53z" />
    <glyph glyph-name="question" unicode="?" horiz-adv-x="313" 
d="M174 170h-62l-10 260c7 -2 13 -2 19 -2c28 0 91 10 91 66v133c0 55 -27 76 -57 76c-34 0 -55 -26 -55 -98v-87h-82v83c0 123 45 178 141 178c91 0 135 -49 135 -174v-74c0 -96 -14 -161 -110 -174zM146 -8c-29 0 -53 23 -53 52s24 53 53 53s52 -24 52 -53
s-23 -52 -52 -52z" />
    <glyph glyph-name="questiondown" unicode="&#xbf;" horiz-adv-x="311" 
d="M294 73v-83c0 -123 -45 -178 -141 -178c-91 0 -135 49 -135 174v74c0 96 14 161 110 174l10 187h62l10 -260c-7 2 -13 2 -19 2c-28 0 -91 -10 -91 -66v-133c0 -55 27 -76 57 -76c34 0 55 26 55 98v87h82zM219 547c0 -29 -24 -53 -53 -53s-52 24 -52 53s23 52 52 52
s53 -23 53 -52z" />
    <glyph glyph-name="dagger" unicode="&#x2020;" horiz-adv-x="312" 
d="M186 -60h-60l-10 557l-100 -5v75l105 -5l-10 204h90l-11 -204l106 5v-75l-100 5z" />
    <glyph glyph-name="daggerdbl" unicode="&#x2021;" horiz-adv-x="321" 
d="M190 -60h-60l-7 336l-103 -4v75l103 -5c-2 23 -3 45 -3 71c0 25 1 55 4 84l-104 -5v75l105 -5l-10 204h90l-11 -204l106 5v-75l-104 5c2 -28 3 -56 3 -82s-1 -49 -3 -73l104 5v-75l-104 4z" />
    <glyph glyph-name="guilsinglleft" unicode="&#x2039;" horiz-adv-x="202" 
d="M171 95h-82l-75 172l75 174h82l-76 -174z" />
    <glyph glyph-name="guilsinglright" unicode="&#x203a;" horiz-adv-x="202" 
d="M112 95h-82l76 172l-76 174h82l75 -174z" />
    <glyph glyph-name="guillemotleft" unicode="&#xab;" horiz-adv-x="339" 
d="M171 95h-82l-75 172l75 174h82l-76 -174zM308 95h-82l-75 172l75 174h82l-76 -174z" />
    <glyph glyph-name="guillemotright" unicode="&#xbb;" horiz-adv-x="339" 
d="M168 95h-82l76 172l-76 174h82l75 -174zM305 95h-82l76 172l-76 174h82l75 -174z" />
    <glyph glyph-name="less" unicode="&#x3c;" horiz-adv-x="422" 
d="M373 82l-57 -48l-279 329l280 330l56 -49l-245 -281z" />
    <glyph glyph-name="greater" unicode="&#x3e;" horiz-adv-x="422" 
d="M105 34l-57 48l245 281l-245 281l56 49l280 -330z" />
    <glyph glyph-name="quotesingle" unicode="'" horiz-adv-x="128" 
d="M89 556h-50l-15 210h80z" />
    <glyph glyph-name="quotedbl" unicode="&#x22;" horiz-adv-x="236" 
d="M197 556h-50l-15 210h80zM89 556h-50l-15 210h80z" />
    <glyph glyph-name="quoteleft" unicode="&#x2018;" horiz-adv-x="178" 
d="M111 545h-93l97 221h52z" />
    <glyph glyph-name="quoteright" unicode="&#x2019;" horiz-adv-x="174" 
d="M72 545h-52l56 221h93z" />
    <glyph glyph-name="quotedblleft" unicode="&#x201c;" horiz-adv-x="318" 
d="M251 545h-93l97 221h52zM111 545h-93l97 221h52z" />
    <glyph glyph-name="quotedblright" unicode="&#x201d;" horiz-adv-x="314" 
d="M72 545h-52l56 221h93zM212 545h-52l56 221h93z" />
    <glyph glyph-name="quotesinglbase" unicode="&#x201a;" horiz-adv-x="209" 
d="M71 -135h-52l55 220h93z" />
    <glyph glyph-name="quotedblbase" unicode="&#x201e;" horiz-adv-x="349" 
d="M71 -135h-52l55 220h93zM211 -135h-52l55 220h93z" />
    <glyph glyph-name="minus" unicode="&#x2212;" horiz-adv-x="422" 
d="M392 326h-362v74h362v-74z" />
    <glyph glyph-name="plus" unicode="+" horiz-adv-x="422" 
d="M249 182h-76v144h-143v74h143v144h76v-144h143v-74h-143v-144z" />
    <glyph glyph-name="multiply" unicode="&#xd7;" horiz-adv-x="422" 
d="M313 209l-101 101l-102 -102l-54 54l102 102l-101 101l52 52l101 -101l102 102l54 -54l-102 -102l101 -101z" />
    <glyph glyph-name="divide" unicode="&#xf7;" horiz-adv-x="422" 
d="M274 142c-29 0 -52 23 -52 52s23 53 52 53s53 -24 53 -53s-24 -52 -53 -52zM274 478c-29 0 -52 23 -52 52s23 53 52 53s53 -24 53 -53s-24 -52 -53 -52zM456 326h-362v74h362v-74z" />
    <glyph glyph-name="equal" unicode="=" horiz-adv-x="422" 
d="M392 405h-362v74h362v-74zM392 245h-362v74h362v-74z" />
    <glyph glyph-name="plusminus" unicode="&#xb1;" horiz-adv-x="422" 
d="M249 194h-76v144h-143v74h143v144h76v-144h143v-74h-143v-144zM392 61h-362v74h362v-74z" />
    <glyph glyph-name="notequal" unicode="&#x2260;" horiz-adv-x="422" 
d="M392 245h-174l-32 -133h-75l32 133h-113v74h132l22 86h-154v74h172l34 133h75l-34 -133h115v-74h-133l-22 -86h155v-74z" />
    <glyph glyph-name="period" unicode="." horiz-adv-x="160" 
d="M80 -8c-29 0 -53 23 -53 52s24 53 53 53s52 -24 52 -53s-23 -52 -52 -52z" />
    <glyph glyph-name="comma" unicode="," horiz-adv-x="195" 
d="M38 -135h-52l81 235h93z" />
    <glyph glyph-name="bullet" unicode="&#x2022;" horiz-adv-x="299" 
d="M152 276c-61 0 -111 45 -111 108c0 58 48 108 109 108c39 0 107 -23 107 -108c0 -68 -53 -108 -105 -108z" />
    <glyph glyph-name="periodcentered" unicode="&#xb7;" horiz-adv-x="166" 
d="M82 231c-29 0 -52 23 -52 52s23 53 52 53s53 -24 53 -53s-24 -52 -53 -52z" />
    <glyph glyph-name="colon" unicode=":" horiz-adv-x="169" 
d="M84 -8c-29 0 -52 23 -52 52s23 53 52 53s53 -24 53 -53s-24 -52 -53 -52zM84 338c-29 0 -52 23 -52 52s23 53 52 53s53 -24 53 -53s-24 -52 -53 -52z" />
    <glyph glyph-name="semicolon" unicode=";" horiz-adv-x="190" 
d="M100 338c-29 0 -52 23 -52 52s23 53 52 53s53 -24 53 -53s-24 -52 -53 -52zM30 -135h-52l81 235h93z" />
    <glyph glyph-name="ellipsis" unicode="&#x2026;" horiz-adv-x="470" 
d="M80 -8c-29 0 -53 23 -53 52s24 53 53 53s52 -24 52 -53s-23 -52 -52 -52zM246 -8c-29 0 -53 23 -53 52s24 53 53 53s52 -24 52 -53s-23 -52 -52 -52zM412 -8c-29 0 -53 23 -53 52s24 53 53 53s52 -24 52 -53s-23 -52 -52 -52z" />
    <glyph glyph-name="onedotenleader" unicode="&#x2024;" horiz-adv-x="160" 
d="M80 -8c-29 0 -53 23 -53 52s24 53 53 53s52 -24 52 -53s-23 -52 -52 -52z" />
    <glyph glyph-name="twodotenleader" unicode="&#x2025;" horiz-adv-x="315" 
d="M80 -8c-29 0 -53 23 -53 52s24 53 53 53s52 -24 52 -53s-23 -52 -52 -52zM246 -8c-29 0 -53 23 -53 52s24 53 53 53s52 -24 52 -53s-23 -52 -52 -52z" />
    <glyph glyph-name="hyphen" unicode="-" horiz-adv-x="223" 
d="M191 254h-159v76h159v-76z" />
    <glyph glyph-name="uni00AD" unicode="&#xad;" horiz-adv-x="223" 
d="M191 254h-159v76h159v-76z" />
    <glyph glyph-name="endash" unicode="&#x2013;" horiz-adv-x="286" 
d="M254 254h-222v76h222v-76z" />
    <glyph glyph-name="emdash" unicode="&#x2014;" horiz-adv-x="418" 
d="M386 254h-354v76h354v-76z" />
    <glyph glyph-name="underscore" unicode="_" horiz-adv-x="317" 
d="M285 -33h-253v66h253v-66z" />
    <glyph glyph-name="numbersign" unicode="#" horiz-adv-x="511" 
d="M294 40h-77l52 202h-94l-52 -202h-77l52 202h-81l19 76h81l29 114h-94l19 76h95l51 202h77l-51 -202h94l51 202h77l-51 -202h81l-19 -76h-82l-29 -114h95l-19 -76h-95zM288 318l29 114h-94l-29 -114h94z" />
    <glyph glyph-name="zero" unicode="0" horiz-adv-x="350" 
d="M37 147v472c0 121 60 160 141 160s135 -40 135 -160v-472c0 -122 -62 -160 -138 -160c-77 0 -138 39 -138 160zM231 140v486c0 54 -27 76 -56 76c-30 0 -56 -22 -56 -76v-486c0 -55 26 -76 56 -76c29 0 56 21 56 76z" />
    <glyph glyph-name="one" unicode="1" horiz-adv-x="243" 
d="M191 0h-81v674l-103 -37v80l115 49h69v-766z" />
    <glyph glyph-name="two" unicode="2" horiz-adv-x="325" 
d="M284 0h-256v79c0 143 193 335 193 463v85c0 56 -28 75 -56 75s-56 -19 -56 -75v-113h-82v111c0 111 58 154 139 154c79 0 137 -42 137 -151v-97c0 -137 -189 -334 -192 -452h173v-79z" />
    <glyph glyph-name="three" unicode="3" horiz-adv-x="341" 
d="M223 140v151c0 50 -40 67 -72 67c-8 0 -21 -1 -32 -2v80c11 -2 22 -2 34 -2c28 0 70 15 70 71v121c0 56 -27 76 -55 76s-57 -19 -57 -75v-109h-82v107c0 109 58 154 140 154c80 0 136 -42 136 -153v-99c0 -67 -17 -105 -79 -128c61 -22 79 -67 79 -134v-122
c0 -111 -56 -156 -137 -156s-139 46 -139 155v103h82v-105c0 -55 28 -76 57 -76c28 0 55 20 55 76z" />
    <glyph glyph-name="four" unicode="4" horiz-adv-x="336" 
d="M264 0h-81v197h-173v80l131 489h123v-489h60v-80h-60v-197zM183 277v404l-90 -404h90z" />
    <glyph glyph-name="five" unicode="5" horiz-adv-x="339" 
d="M230 142v194c0 74 -28 85 -52 85c-31 0 -54 -18 -59 -67h-84v412h251v-80h-169v-245c19 36 50 56 93 56c57 0 102 -37 102 -130v-218c0 -108 -41 -162 -137 -162c-93 0 -140 50 -140 162v55h83v-62c0 -58 28 -78 56 -78s56 22 56 78z" />
    <glyph glyph-name="six" unicode="6" horiz-adv-x="347" 
d="M314 357v-208c0 -108 -41 -162 -137 -162c-93 0 -140 50 -140 162v474c0 109 49 156 139 156c88 0 137 -45 137 -156v-61h-82v64c0 56 -28 76 -56 76s-56 -20 -56 -76v-195c19 36 50 56 93 56c57 0 102 -37 102 -130zM232 142v183c0 74 -28 86 -53 86
c-33 0 -59 -22 -59 -86v-183c0 -58 28 -78 56 -78s56 22 56 78z" />
    <glyph glyph-name="seven" unicode="7" horiz-adv-x="309" 
d="M101 0h-88l200 686h-194v80h289v-36z" />
    <glyph glyph-name="eight" unicode="8" horiz-adv-x="345" 
d="M310 290v-148c0 -111 -59 -155 -138 -155c-80 0 -138 46 -138 155v158c0 66 28 101 65 126c-37 20 -65 59 -65 126v78c0 99 55 149 140 149c79 0 136 -43 136 -149v-78c0 -67 -28 -107 -65 -126c37 -25 65 -69 65 -136zM228 530v96c0 56 -28 76 -56 76s-56 -20 -56 -76
v-96c0 -56 28 -70 56 -70s56 14 56 70zM228 140v174c0 56 -28 70 -56 70s-56 -14 -56 -70v-174c0 -56 28 -76 56 -76s56 20 56 76z" />
    <glyph glyph-name="nine" unicode="9" horiz-adv-x="347" 
d="M228 140v195c-19 -36 -51 -56 -93 -56c-58 0 -102 37 -102 130v208c0 108 41 162 137 162c93 0 139 -50 139 -162v-474c0 -109 -48 -156 -138 -156c-88 0 -137 45 -137 156v61h82v-64c0 -56 28 -76 56 -76s56 20 56 76zM227 441v183c0 58 -28 78 -56 78s-56 -22 -56 -78
v-183c0 -74 28 -86 53 -86c33 0 59 22 59 86z" />
    <glyph glyph-name="onesuperior" unicode="&#xb9;" horiz-adv-x="177" 
d="M143 399h-67v298l-62 -29v62l73 37h56v-368z" />
    <glyph glyph-name="twosuperior" unicode="&#xb2;" horiz-adv-x="243" 
d="M207 399h-176v53c0 82 117 123 117 196v35c0 26 -13 35 -26 35s-26 -9 -26 -35v-43h-65v49c0 52 31 84 91 84c62 0 93 -33 93 -84v-46c0 -84 -108 -128 -108 -187h100v-57z" />
    <glyph glyph-name="threesuperior" unicode="&#xb3;" horiz-adv-x="239" 
d="M211 517v-36c0 -58 -28 -89 -92 -89c-65 0 -92 31 -92 86v27h66v-24c0 -26 13 -35 26 -35c15 0 25 11 25 43v39c0 26 -21 31 -38 31c-5 0 -7 0 -15 -1v54c7 -1 11 -1 14 -1c18 0 39 4 39 30v42c0 26 -12 35 -25 35s-26 -9 -26 -35v-26h-66v28c0 56 27 87 91 87
s93 -31 93 -87v-34c0 -31 -7 -53 -39 -63c32 -11 39 -40 39 -71z" />
    <glyph glyph-name="foursuperior" unicode="&#x2074;" horiz-adv-x="231" 
d="M180 399h-62v84h-102v54l69 230h95v-230h33v-54h-33v-84zM118 537v175l-43 -175h43z" />
    <glyph glyph-name="fraction" unicode="&#x2044;" horiz-adv-x="264" 
d="M62 0h-66l206 766h66z" />
    <glyph glyph-name="percent" unicode="%" horiz-adv-x="665" 
d="M266 0h-71l206 766h71zM239 616v-189c0 -111 -26 -155 -108 -155c-84 0 -109 46 -109 155v189c0 109 25 155 109 155c82 0 108 -44 108 -155zM166 420v182c0 73 -4 97 -36 97c-28 0 -36 -20 -36 -76v-182c0 -73 4 -97 36 -97c28 0 36 20 36 76zM642 336v-190
c0 -111 -26 -155 -108 -155c-84 0 -109 46 -109 155v190c0 109 25 155 109 155c82 0 108 -44 108 -155zM569 140v182c0 72 -4 96 -36 96c-28 0 -36 -20 -36 -76v-182c0 -72 4 -96 36 -96c28 0 36 20 36 76z" />
    <glyph glyph-name="perthousand" unicode="&#x2030;" horiz-adv-x="929" 
d="M266 0h-71l206 766h71zM239 616v-189c0 -111 -26 -155 -108 -155c-84 0 -109 46 -109 155v189c0 109 25 155 109 155c82 0 108 -44 108 -155zM166 420v182c0 73 -4 97 -36 97c-28 0 -36 -20 -36 -76v-182c0 -73 4 -97 36 -97c28 0 36 20 36 76zM642 336v-190
c0 -111 -26 -155 -108 -155c-84 0 -109 46 -109 155v190c0 109 25 155 109 155c82 0 108 -44 108 -155zM569 140v182c0 72 -4 96 -36 96c-28 0 -36 -20 -36 -76v-182c0 -72 4 -96 36 -96c28 0 36 20 36 76zM906 336v-190c0 -111 -25 -155 -107 -155c-84 0 -110 46 -110 155
v190c0 109 26 155 110 155c82 0 107 -44 107 -155zM834 140v182c0 72 -4 96 -36 96c-28 0 -36 -20 -36 -76v-182c0 -71 3 -96 36 -96c28 0 36 19 36 76z" />
    <glyph glyph-name="onequarter" unicode="&#xbc;" horiz-adv-x="484" 
d="M169 0h-66l206 766h66zM144 399h-67v298l-62 -29v62l73 37h56v-368zM433 0h-62v84h-102v54l69 230h95v-230h33v-54h-33v-84zM371 138v175l-43 -175h43z" />
    <glyph glyph-name="onethird" unicode="&#x2153;" horiz-adv-x="513" 
d="M170 0h-66l206 766h66zM144 399h-67v298l-62 -29v62l73 37h56v-368zM489 118v-36c0 -58 -28 -89 -92 -89c-65 0 -92 31 -92 86v27h66v-24c0 -26 13 -35 26 -35c15 0 25 11 25 43v39c0 26 -21 31 -38 31c-5 0 -7 0 -15 -1v54c7 -1 11 -1 14 -1c18 0 39 4 39 30v42
c0 26 -12 35 -25 35s-26 -9 -26 -35v-26h-66v28c0 56 27 87 91 87s93 -31 93 -87v-34c0 -31 -7 -53 -39 -63c32 -11 39 -40 39 -71z" />
    <glyph glyph-name="onehalf" unicode="&#xbd;" horiz-adv-x="510" 
d="M169 0h-66l206 766h66zM144 399h-67v298l-62 -29v62l73 37h56v-368zM480 0h-176v53c0 82 117 123 117 196v35c0 26 -13 35 -26 35s-26 -9 -26 -35v-43h-65v49c0 52 31 84 91 84c62 0 93 -33 93 -84v-46c0 -84 -108 -128 -108 -187h100v-57z" />
    <glyph glyph-name="twothirds" unicode="&#x2154;" horiz-adv-x="550" 
d="M213 0h-66l206 766h66zM196 399h-176v53c0 82 117 123 117 196v35c0 26 -13 35 -26 35s-26 -9 -26 -35v-43h-65v49c0 52 31 84 91 84c62 0 93 -33 93 -84v-46c0 -84 -108 -128 -108 -187h100v-57zM532 118v-36c0 -58 -28 -89 -92 -89c-65 0 -92 31 -92 86v27h66v-24
c0 -26 13 -35 26 -35c15 0 25 11 25 43v39c0 26 -21 31 -38 31c-5 0 -7 0 -15 -1v54c7 -1 11 -1 14 -1c18 0 39 4 39 30v42c0 26 -12 35 -25 35s-26 -9 -26 -35v-26h-66v28c0 56 27 87 91 87s93 -31 93 -87v-34c0 -31 -7 -53 -39 -63c32 -11 39 -40 39 -71z" />
    <glyph glyph-name="threequarters" unicode="&#xbe;" horiz-adv-x="522" 
d="M209 0h-66l206 766h66zM472 0h-62v84h-102v54l69 230h95v-230h33v-54h-33v-84zM410 138v175l-43 -175h43zM205 517v-36c0 -58 -28 -89 -92 -89c-65 0 -92 31 -92 86v27h66v-24c0 -26 13 -35 26 -35c15 0 25 11 25 43v39c0 26 -21 31 -38 31c-5 0 -7 0 -15 -1v54
c7 -1 11 -1 14 -1c18 0 39 4 39 30v42c0 26 -12 35 -25 35s-26 -9 -26 -35v-26h-66v28c0 56 27 87 91 87s93 -31 93 -87v-34c0 -31 -7 -53 -39 -63c32 -11 39 -40 39 -71z" />
    <glyph glyph-name="slash" unicode="/" horiz-adv-x="299" 
d="M90 0h-77l196 766h77z" />
    <glyph glyph-name="backslash" unicode="\" horiz-adv-x="299" 
d="M286 0h-77l-196 766h77z" />
    <glyph glyph-name="bar" unicode="|" horiz-adv-x="170" 
d="M126 -220h-82v1000h82v-1000z" />
    <glyph glyph-name="brokenbar" unicode="&#xa6;" horiz-adv-x="172" 
d="M127 372h-82v408h82v-408zM127 -220h-82v407h82v-407z" />
    <glyph glyph-name="at" unicode="@" horiz-adv-x="688" 
d="M473 -107l14 -72c-53 -32 -95 -49 -162 -49c-192 0 -307 140 -307 385c0 249 118 516 364 516c196 0 280 -170 280 -346c0 -162 -72 -349 -211 -349c-52 0 -87 26 -92 77c-23 -38 -67 -63 -108 -63c-34 0 -57 17 -57 61c0 36 16 116 52 278c21 96 46 133 92 133
c37 0 62 -24 78 -49l8 40h75c-74 -350 -78 -359 -78 -375c0 -21 5 -46 37 -46c82 0 126 167 126 294c0 152 -62 269 -204 269c-196 0 -286 -225 -286 -443s89 -306 230 -306c61 0 102 16 149 45zM322 310l-35 -168c-4 -19 -6 -34 -6 -45c0 -21 8 -31 24 -31
c22 0 42 20 54 76c41 193 42 205 42 213c0 22 -8 31 -27 31c-28 0 -41 -20 -52 -76z" />
    <glyph glyph-name="ordfeminine" unicode="&#xaa;" horiz-adv-x="263" 
d="M240 363h-61l-10 45c-10 -21 -30 -52 -72 -52c-45 0 -78 36 -78 129c0 74 21 119 75 119c35 0 57 -19 71 -45v65c0 31 -1 70 -36 70c-29 0 -33 -26 -34 -53h-75c0 73 24 125 113 125c80 0 107 -43 107 -140v-263zM231 212h-200v71h200v-71zM126 423c19 0 39 14 39 59
c0 34 -12 53 -38 53c-24 0 -36 -17 -36 -54c0 -39 13 -58 35 -58z" />
    <glyph glyph-name="ordmasculine" unicode="&#xba;" horiz-adv-x="261" 
d="M241 627v-132c0 -103 -38 -139 -111 -139c-74 0 -111 37 -111 139v132c0 102 37 139 111 139c73 0 111 -36 111 -139zM232 212h-200v71h200v-71zM166 497v109c0 60 -6 85 -36 85c-31 0 -36 -26 -36 -85v-90c0 -59 4 -85 36 -85c25 0 36 17 36 66z" />
    <glyph glyph-name="florin" unicode="&#x192;" horiz-adv-x="419" 
d="M37 -4l14 70c8 -2 15 -3 22 -3c39 0 49 31 59 79l47 222h-71l16 74h71l38 182c23 107 64 150 137 150c15 0 28 -2 40 -5l-14 -70c-9 2 -16 3 -23 3c-39 0 -50 -31 -60 -79l-38 -181h70l-16 -74h-70l-47 -223c-23 -109 -64 -150 -135 -150c-16 0 -28 2 -40 5z" />
    <glyph glyph-name="currency" unicode="&#xa4;" horiz-adv-x="438" 
d="M404 177l-57 -41l-43 60c-24 -10 -52 -15 -87 -15c-31 0 -59 4 -83 14l-42 -59l-56 41l40 56c-27 31 -40 77 -40 138v27c0 61 13 106 39 137l-39 57l56 41l42 -59c24 10 51 14 83 14c35 0 63 -5 88 -15l43 60l56 -41l-42 -59c25 -31 38 -76 38 -135v-27
c0 -59 -13 -104 -38 -135zM319 364v41c0 67 -35 106 -101 106s-101 -39 -101 -106v-41c0 -67 35 -106 101 -106s101 39 101 106z" />
    <glyph glyph-name="asciicircum" unicode="^" horiz-adv-x="422" 
d="M378 429h-86l-82 237l-83 -237h-84l125 337h86z" />
    <glyph glyph-name="asciitilde" unicode="~" horiz-adv-x="422" 
d="M344 610l56 -39c-33 -61 -78 -84 -114 -84c-48 0 -100 43 -154 43c-25 0 -45 -10 -60 -39l-50 42c27 50 63 78 113 78c59 0 104 -40 153 -40c25 0 42 11 56 39z" />
    <glyph glyph-name="asterisk" unicode="*" horiz-adv-x="287" 
d="M238 543l-56 -31l-38 87l-39 -88l-55 32l61 80l-92 -10v62l89 -10l-60 79l55 32l41 -92l38 91l56 -31l-59 -80l88 10v-61l-89 10z" />
    <glyph glyph-name="degree" unicode="&#xb0;" horiz-adv-x="242" 
d="M167 632c0 25 -21 46 -46 46c-26 0 -46 -21 -46 -46c0 -26 20 -46 46 -46c25 0 46 20 46 46zM121 530c-57 0 -102 45 -102 102s45 101 102 101s101 -44 101 -101s-44 -102 -101 -102z" />
    <glyph glyph-name="section" unicode="&#xa7;" horiz-adv-x="364" 
d="M105 187v-46c0 -51 8 -74 40 -74c31 0 42 21 42 59c0 146 -162 112 -162 309c0 84 29 122 79 134c-4 18 -7 40 -7 66c0 100 44 137 123 137c81 0 119 -38 119 -145v-51h-80v45c0 56 -8 76 -40 76c-33 0 -42 -21 -42 -59c0 -159 162 -110 162 -309
c0 -80 -26 -121 -79 -134c4 -18 7 -38 7 -65c0 -98 -40 -138 -123 -138c-86 0 -119 44 -119 149v46h80zM142 499c-29 -1 -36 -23 -36 -58c0 -109 67 -119 112 -176c31 3 41 24 41 60c0 97 -71 112 -117 174z" />
    <glyph glyph-name="logicalnot" unicode="&#xac;" horiz-adv-x="422" 
d="M387 182h-76v144h-286v74h362v-218z" />
    <glyph glyph-name="Delta" unicode="&#x2206;" horiz-adv-x="351" 
d="M334 0h-317l103 766h110zM241 79l-66 579l-66 -579h132z" />
    <glyph glyph-name="Omega" unicode="&#x2126;" horiz-adv-x="361" 
d="M326 0h-131v90c24 6 41 30 41 74v462c0 53 -25 76 -56 76s-56 -23 -56 -76v-462c0 -44 17 -68 41 -74v-90h-131v80l81 -6c-52 19 -73 65 -73 148v397c0 130 70 160 140 160c72 0 136 -32 136 -160v-397c0 -83 -21 -129 -73 -148l81 6v-80z" />
    <glyph glyph-name="summation" unicode="&#x2211;" horiz-adv-x="302" 
d="M283 -110h-261v79l123 369l-125 348v80h256v-80h-170l125 -348l-123 -369h175v-79z" />
    <glyph glyph-name="product" unicode="&#x220f;" horiz-adv-x="381" 
d="M328 -100h-82v786h-112v-786h-82v866h276v-866z" />
    <glyph glyph-name="mu" unicode="&#xb5;" horiz-adv-x="328" 
d="M127 -199h-80v766h80v-433c0 -48 9 -68 34 -68s38 20 38 81v420h80v-567h-66l-9 46c-9 -18 -29 -49 -56 -49c-7 0 -14 2 -21 5v-201z" />
    <glyph glyph-name="acute" unicode="&#xb4;" horiz-adv-x="124" 
d="M63 639h-63l50 116h91z" />
    <glyph glyph-name="breve" unicode="&#x2d8;" horiz-adv-x="247" 
d="M181 737h47c-1 -68 -41 -106 -104 -106s-105 38 -105 106h48c0 -29 17 -50 57 -50c39 0 56 21 57 50z" />
    <glyph glyph-name="caron" unicode="&#x2c7;" horiz-adv-x="252" 
d="M167 639h-80l-68 121h67l40 -69l40 69h67z" />
    <glyph glyph-name="cedilla" unicode="&#xb8;" horiz-adv-x="206" 
d="M25 -168l12 48c6 -4 21 -9 35 -9c24 0 38 15 38 31c0 15 -12 31 -41 31c-3 0 -6 0 -10 -1l17 68h56l-11 -46c36 0 60 -29 60 -61c0 -36 -31 -73 -92 -73c-22 0 -48 5 -64 12z" />
    <glyph glyph-name="circumflex" unicode="&#x2c6;" horiz-adv-x="252" 
d="M233 639h-66l-42 70l-38 -70h-68l66 121h80z" />
    <glyph glyph-name="commaaccent" unicode="&#xf6c3;" horiz-adv-x="190" 
d="M96 -181h-61l45 131h86z" />
    <glyph glyph-name="dieresis" unicode="&#xa8;" horiz-adv-x="291" 
d="M70 629c-28 0 -51 23 -51 52c0 28 23 51 51 51c29 0 51 -23 51 -51c0 -29 -22 -52 -51 -52zM221 629c-28 0 -51 23 -51 52c0 28 23 51 51 51c29 0 51 -23 51 -51c0 -29 -22 -52 -51 -52z" />
    <glyph glyph-name="dotaccent" unicode="&#x2d9;" horiz-adv-x="140" 
d="M70 632c-28 0 -51 22 -51 51s23 51 51 51c29 0 51 -22 51 -51s-22 -51 -51 -51z" />
    <glyph glyph-name="grave" unicode="`" horiz-adv-x="124" 
d="M137 639h-63l-79 116h91z" />
    <glyph glyph-name="macron" unicode="&#xaf;" horiz-adv-x="270" 
d="M251 639h-232v66h232v-66z" />
    <glyph glyph-name="ogonek" unicode="&#x2db;" horiz-adv-x="264" 
d="M255 -149l-28 -41c-69 5 -108 50 -108 99c0 33 18 68 64 91h62c-34 -23 -57 -53 -57 -84c0 -34 27 -55 67 -65z" />
    <glyph glyph-name="ring" unicode="&#x2da;" horiz-adv-x="189" 
d="M128 693c0 19 -15 33 -34 33s-33 -14 -33 -33s14 -34 33 -34s34 15 34 34zM94 617c-42 0 -75 33 -75 76c0 42 33 75 75 75c43 0 76 -33 76 -75c0 -43 -33 -76 -76 -76z" />
    <glyph glyph-name="tilde" unicode="&#x2dc;" horiz-adv-x="259" 
d="M178 718h62c-4 -46 -28 -79 -68 -79c-29 0 -47 18 -71 18c-12 0 -20 -4 -22 -18h-60c1 32 18 79 66 79c29 0 52 -17 72 -17c13 0 20 7 21 17z" />
    <glyph glyph-name="hungarumlaut" unicode="&#x2dd;" horiz-adv-x="232" 
d="M68 639h-68l44 118h86zM187 639h-68l44 118h86z" />
    <glyph glyph-name="paragraph" unicode="&#xb6;" horiz-adv-x="444" 
d="M392 -87h-72v774h-59v-775h-82v334h-22c-97 0 -136 25 -136 160v200c0 135 39 160 136 160h235v-853z" />
    <glyph glyph-name="Alpha" unicode="&#x391;" horiz-adv-x="325" 
d="M321 0h-82l-21 180h-111l-21 -180h-82l103 766h110zM208 257l-46 396l-45 -396h91z" />
    <glyph glyph-name="Beta" unicode="&#x392;" horiz-adv-x="346" 
d="M183 0h-144v766h138c87 0 133 -43 133 -159v-98c0 -52 -17 -98 -73 -116c60 -17 83 -66 83 -123v-110c0 -122 -50 -160 -137 -160zM228 507v104c0 56 -18 75 -56 75h-51v-255h51c38 0 56 20 56 76zM238 155v121c0 56 -28 76 -66 76h-51v-273h61c38 0 56 20 56 76z" />
    <glyph glyph-name="Gamma" unicode="&#x393;" horiz-adv-x="285" 
d="M121 0h-82v766h239v-80h-157v-686z" />
    <glyph glyph-name="uni0394" unicode="&#x394;" horiz-adv-x="325" 
d="M321 0h-317l103 766h110zM229 79l-67 574l-66 -574h133z" />
    <glyph glyph-name="Epsilon" unicode="&#x395;" horiz-adv-x="304" 
d="M278 0h-239v766h239v-80h-157v-260h150v-80h-150v-267h157v-79z" />
    <glyph glyph-name="Zeta" unicode="&#x396;" horiz-adv-x="285" 
d="M270 0h-256v79l160 607h-151v80h247v-36l-172 -651h172v-79z" />
    <glyph glyph-name="Eta" unicode="&#x397;" horiz-adv-x="355" 
d="M315 0h-82v349h-112v-349h-82v766h82v-338h112v338h82v-766z" />
    <glyph glyph-name="Theta" unicode="&#x398;" horiz-adv-x="347" 
d="M35 147v472c0 121 60 160 141 160s135 -40 135 -160v-472c0 -122 -62 -160 -138 -160c-77 0 -138 39 -138 160zM229 140v486c0 54 -27 76 -56 76c-30 0 -56 -22 -56 -76v-486c0 -55 26 -76 56 -76c29 0 56 21 56 76zM210 346h-73v80h73v-80z" />
    <glyph glyph-name="Iota" unicode="&#x399;" horiz-adv-x="161" 
d="M121 0h-82v766h82v-766z" />
    <glyph glyph-name="Kappa" unicode="&#x39a;" horiz-adv-x="337" 
d="M345 0h-82l-141 383l122 383h82l-116 -380zM121 0h-82v766h82v-766z" />
    <glyph glyph-name="Lambda" unicode="&#x39b;" horiz-adv-x="325" 
d="M321 0h-82l-77 653l-75 -653h-83l103 766h110z" />
    <glyph glyph-name="Mu" unicode="&#x39c;" horiz-adv-x="509" 
d="M469 0h-82l3 599l-106 -599h-66l-100 600l3 -600h-82v766h130l85 -542l85 542h130v-766z" />
    <glyph glyph-name="Nu" unicode="&#x39d;" horiz-adv-x="392" 
d="M352 0h-98l-135 523l2 -523h-82v766h94l139 -532l-2 532h82v-766z" />
    <glyph glyph-name="Xi" unicode="&#x39e;" horiz-adv-x="307" 
d="M286 0h-266v82h266v-82zM286 684h-266v82h266v-82zM263 349h-221v79h221v-79z" />
    <glyph glyph-name="Omicron" unicode="&#x39f;" horiz-adv-x="347" 
d="M35 147v472c0 121 60 160 141 160s135 -40 135 -160v-472c0 -122 -62 -160 -138 -160c-77 0 -138 39 -138 160zM229 140v486c0 54 -27 76 -56 76c-30 0 -56 -22 -56 -76v-486c0 -55 26 -76 56 -76c29 0 56 21 56 76z" />
    <glyph glyph-name="Pi" unicode="&#x3a0;" horiz-adv-x="355" 
d="M315 0h-82v686h-112v-686h-82v766h276v-766z" />
    <glyph glyph-name="Rho" unicode="&#x3a1;" horiz-adv-x="331" 
d="M121 0h-82v766h132c87 0 139 -35 139 -160v-125c0 -125 -49 -160 -136 -160h-53v-321zM228 477v133c0 56 -18 76 -56 76h-51v-285h51c38 0 56 20 56 76z" />
    <glyph glyph-name="Sigma" unicode="&#x3a3;" horiz-adv-x="292" 
d="M278 0h-261v79l113 314l-115 293v80h256v-80h-170l115 -293l-113 -314h175v-79z" />
    <glyph glyph-name="Tau" unicode="&#x3a4;" horiz-adv-x="288" 
d="M185 0h-82v686h-95v80h272v-80h-95v-686z" />
    <glyph glyph-name="Upsilon" unicode="&#x3a5;" horiz-adv-x="326" 
d="M203 0h-81v276l-118 490h83l75 -360l77 360h83l-119 -490v-276z" />
    <glyph glyph-name="Phi" unicode="&#x3a6;" horiz-adv-x="423" 
d="M252 -1h-82v65c-107 8 -147 79 -147 195v247c0 116 40 187 147 195v66h82v-66c106 -9 147 -79 147 -195v-247c0 -116 -41 -186 -147 -195v-65zM170 143v479c-48 -8 -65 -54 -65 -99v-281c0 -45 17 -91 65 -99zM317 242v281c0 45 -18 91 -65 99v-479c47 8 65 54 65 99z
" />
    <glyph glyph-name="Chi" unicode="&#x3a7;" horiz-adv-x="337" 
d="M337 0h-82l-84 298l-94 -298h-82l133 394l-127 372h83l87 -273l81 273h83l-114 -373z" />
    <glyph glyph-name="Psi" unicode="&#x3a8;" horiz-adv-x="434" 
d="M258 -1h-82v170c-107 6 -147 77 -147 193v404h82v-421c0 -45 17 -94 65 -97v518h82v-518c47 3 65 52 65 97v421h82v-404c0 -116 -41 -186 -147 -193v-170z" />
    <glyph glyph-name="uni03A9" unicode="&#x3a9;" horiz-adv-x="350" 
d="M321 0h-131v90c24 6 41 30 41 74v462c0 53 -25 76 -56 76s-56 -23 -56 -76v-462c0 -44 17 -68 41 -74v-90h-131v80l81 -6c-52 19 -73 65 -73 148v397c0 130 70 160 140 160c72 0 136 -32 136 -160v-397c0 -83 -21 -129 -73 -148l81 6v-80z" />
    <glyph glyph-name="alpha" unicode="&#x3b1;" horiz-adv-x="296" 
d="M262 0h-66l-9 46c-12 -22 -32 -54 -81 -54c-60 0 -76 46 -76 153v277c0 107 16 153 76 153c49 0 69 -32 81 -54l9 46h66v-567zM182 147v272c0 62 -13 81 -38 81c-26 0 -34 -22 -34 -75v-283c0 -54 8 -76 34 -76c25 0 38 20 38 81z" />
    <glyph glyph-name="beta" unicode="&#x3b2;" horiz-adv-x="302" 
d="M113 -199h-80v797c0 122 26 174 115 174c87 0 117 -49 117 -159v-33c0 -76 -15 -117 -64 -131c49 -11 74 -51 74 -126v-187c0 -101 -25 -144 -85 -144c-46 0 -65 25 -77 45v-236zM195 142v140c0 69 -7 127 -56 132v65c40 6 46 41 46 102v31c0 51 -1 85 -35 85
c-29 0 -37 -24 -37 -64v-486c0 -60 17 -81 46 -81c27 0 36 18 36 76z" />
    <glyph glyph-name="gamma" unicode="&#x3b3;" horiz-adv-x="268" 
d="M173 -198h-80l3 196l-92 569h84l45 -425l46 425h84l-93 -569z" />
    <glyph glyph-name="delta" unicode="&#x3b4;" horiz-adv-x="284" 
d="M260 322v-170c0 -120 -34 -160 -116 -160s-116 41 -116 163v236c0 63 16 91 48 111c-23 27 -39 62 -39 118c0 115 65 153 139 153c21 0 43 -3 71 -10l-18 -75c-20 6 -37 11 -53 11c-33 0 -58 -21 -58 -74c0 -126 142 -104 142 -303zM180 133v185c0 61 -15 95 -47 125
c-23 -7 -25 -33 -25 -86v-202c0 -62 4 -88 35 -88c26 0 37 18 37 66z" />
    <glyph glyph-name="epsilon" unicode="&#x3b5;" horiz-adv-x="278" 
d="M257 172v-41c0 -103 -43 -139 -115 -139c-74 0 -117 38 -117 133v32c0 67 3 109 72 131c-69 18 -72 64 -72 131v27c0 89 43 129 118 129c71 0 114 -37 114 -139v-17h-80v20c0 42 -11 61 -36 61s-36 -17 -36 -60v-49c0 -56 48 -66 66 -66c12 0 23 0 44 1v-76
c-21 1 -31 1 -45 1c-18 0 -65 -10 -65 -66v-52c0 -47 10 -66 36 -66c25 0 36 19 36 66v39h80z" />
    <glyph glyph-name="zeta" unicode="&#x3b6;" horiz-adv-x="263" 
d="M195 -134l-59 37c25 42 27 54 27 64c0 20 -9 26 -35 37c-71 31 -112 51 -112 144c0 108 55 218 160 345h-147v74h233v-78c-107 -132 -165 -241 -165 -330c0 -67 33 -72 92 -97c19 -8 58 -27 58 -74c0 -39 -26 -84 -52 -122z" />
    <glyph glyph-name="eta" unicode="&#x3b7;" 
d="M266 0h-80v425c0 53 -8 75 -34 75c-25 0 -38 -19 -38 -81v-419h-80v567h67l9 -46c11 22 32 54 81 54c59 0 75 -46 75 -153v-422z" />
    <glyph glyph-name="theta" unicode="&#x3b8;" horiz-adv-x="297" 
d="M32 131v456c0 138 28 184 114 184c75 0 118 -35 118 -139v-456c0 -139 -29 -184 -114 -184c-76 0 -118 36 -118 139zM184 418v212c0 47 -11 66 -36 66c-32 0 -36 -28 -36 -91v-187h72zM184 133v211h-72v-190c0 -61 4 -87 35 -87c26 0 37 18 37 66z" />
    <glyph glyph-name="iota" unicode="&#x3b9;" horiz-adv-x="177" 
d="M178 64v-67c-13 -3 -25 -5 -43 -5c-80 0 -103 42 -103 150v425h80v-431c0 -50 6 -73 44 -73c6 0 14 0 22 1z" />
    <glyph glyph-name="kappa" unicode="&#x3ba;" horiz-adv-x="299" 
d="M298 0h-81l-102 290l102 277h82l-98 -274zM114 0h-80v567h80v-567z" />
    <glyph glyph-name="lambda" unicode="&#x3bb;" horiz-adv-x="364" 
d="M363 67l2 -68c-16 -5 -28 -7 -40 -7c-47 0 -72 34 -90 106l-63 250l-93 -348h-87l146 482l-35 147c-12 51 -22 69 -43 69c-7 0 -22 -2 -30 -5l-10 73c18 4 42 7 59 7c48 0 77 -26 96 -104l133 -532c8 -33 17 -73 43 -73c3 0 7 0 12 3z" />
    <glyph glyph-name="uni03BC" unicode="&#x3bc;" horiz-adv-x="300" 
d="M114 -199h-80v766h80v-433c0 -48 9 -68 34 -68s38 20 38 81v420h80v-567h-66l-9 46c-9 -18 -29 -49 -56 -49c-7 0 -14 2 -21 5v-201z" />
    <glyph glyph-name="nu" unicode="&#x3bd;" horiz-adv-x="275" 
d="M191 0h-106l-77 567h84l45 -470l46 470h84z" />
    <glyph glyph-name="xi" unicode="&#x3be;" horiz-adv-x="261" 
d="M210 -134l-60 36c25 42 28 55 28 65c0 14 -5 21 -35 35c-81 39 -116 44 -116 144v140c0 67 3 109 72 131c-69 18 -72 64 -72 131v95c0 89 44 129 118 129c72 0 114 -37 114 -139v-17h-80v20c0 42 -10 61 -36 61c-24 0 -36 -17 -36 -60v-117c0 -56 48 -66 66 -66
c12 0 23 0 44 1v-76c-21 1 -31 1 -45 1c-18 0 -65 -10 -65 -66v-145c0 -78 33 -76 97 -107c29 -14 61 -33 61 -74c0 -40 -30 -89 -55 -122z" />
    <glyph glyph-name="omicron" unicode="&#x3bf;" horiz-adv-x="293" 
d="M262 436v-305c0 -103 -43 -139 -116 -139c-74 0 -116 37 -116 139v305c0 102 42 139 116 139c73 0 116 -36 116 -139zM182 133v301c0 48 -11 66 -37 66c-32 0 -35 -29 -35 -92v-275c0 -47 10 -66 36 -66c25 0 36 19 36 66z" />
    <glyph glyph-name="pi" unicode="&#x3c0;" horiz-adv-x="300" 
d="M266 0h-80v493h-72v-493h-80v567h232v-567z" />
    <glyph glyph-name="rho" unicode="&#x3c1;" horiz-adv-x="295" 
d="M112 -199h-80v635c0 102 42 139 116 139c73 0 116 -36 116 -139v-291c0 -108 -16 -153 -76 -153c-45 0 -64 26 -76 46v-237zM184 142v292c0 47 -11 66 -36 66c-26 0 -36 -19 -36 -66v-287c0 -61 13 -81 38 -81c26 0 34 22 34 76z" />
    <glyph glyph-name="sigma1" unicode="&#x3c2;" horiz-adv-x="282" 
d="M212 -134l-60 36c25 42 28 55 28 65c0 14 -5 21 -35 35c-81 39 -116 44 -116 144v290c0 102 43 139 117 139c73 0 115 -36 115 -139v-77h-80v75c0 47 -10 66 -36 66c-25 0 -36 -19 -36 -66v-265c0 -78 33 -76 97 -107c29 -14 61 -33 61 -74c0 -40 -30 -89 -55 -122z" />
    <glyph glyph-name="sigma" unicode="&#x3c3;" horiz-adv-x="306" 
d="M262 433v-278c0 -123 -34 -163 -116 -163s-116 41 -116 163v249c0 122 34 163 116 163h151v-74l-55 4c15 -18 20 -40 20 -64zM182 133v267c0 65 -4 92 -36 92c-33 0 -36 -27 -36 -92v-241c0 -64 3 -92 35 -92c26 0 37 18 37 66z" />
    <glyph glyph-name="tau" unicode="&#x3c4;" horiz-adv-x="272" 
d="M238 64v-67c-13 -3 -25 -5 -43 -5c-80 0 -103 42 -103 150v351h-91v74h263v-74h-92v-357c0 -50 6 -73 45 -73c5 0 13 0 21 1z" />
    <glyph glyph-name="upsilon" unicode="&#x3c5;" horiz-adv-x="297" 
d="M184 133v434h80v-436c0 -103 -43 -139 -116 -139c-74 0 -116 37 -116 139v436h80v-434c0 -47 10 -66 36 -66c25 0 36 19 36 66z" />
    <glyph glyph-name="phi" unicode="&#x3c6;" horiz-adv-x="407" 
d="M244 -198h-78v192c-104 10 -137 76 -137 161v263c0 51 11 97 49 128l54 -51c-18 -22 -23 -57 -23 -80v-262c0 -32 9 -75 57 -82v503h59c113 0 156 -66 156 -157v-262c0 -85 -34 -151 -137 -161v-192zM301 153v261c0 36 -10 75 -57 82v-425c48 7 57 50 57 82z" />
    <glyph glyph-name="chi" unicode="&#x3c7;" horiz-adv-x="277" 
d="M275 0h-79l-61 199l-53 -199h-78l89 290l-88 277h79l55 -182l53 182h81l-92 -278z" />
    <glyph glyph-name="psi" unicode="&#x3c8;" horiz-adv-x="415" 
d="M246 -198h-78v192c-104 10 -137 76 -137 161v412h80v-414c0 -32 9 -75 57 -82v496h78v-496c48 7 57 50 57 82v414h80v-412c0 -85 -34 -151 -137 -161v-192z" />
    <glyph glyph-name="omega" unicode="&#x3c9;" horiz-adv-x="442" 
d="M332 133v301c0 47 -10 65 -36 66v75c74 -1 116 -37 116 -139v-305c0 -104 -42 -139 -110 -139c-31 0 -62 7 -82 42c-19 -35 -50 -42 -80 -42c-69 0 -112 37 -112 139v305c0 102 42 138 116 139v-75c-26 -1 -36 -19 -36 -66v-301c0 -47 11 -66 36 -66s36 17 36 60v290h80
v-290c0 -43 12 -60 36 -60c26 0 36 19 36 66z" />
    <glyph glyph-name="Alphatonos" unicode="&#x386;" horiz-adv-x="393" 
d="M387 0h-82l-21 180h-111l-21 -180h-82l103 766h110zM274 257l-46 396l-45 -396h91zM58 649h-63l50 116h91z" />
    <glyph glyph-name="Epsilontonos" unicode="&#x388;" horiz-adv-x="420" 
d="M52 649h-63l50 116h91zM395 0h-239v766h239v-80h-157v-260h150v-80h-150v-267h157v-79z" />
    <glyph glyph-name="Etatonos" unicode="&#x389;" horiz-adv-x="471" 
d="M432 0h-82v349h-112v-349h-82v766h82v-338h112v338h82v-766zM52 649h-63l50 116h91z" />
    <glyph glyph-name="Iotatonos" unicode="&#x38a;" horiz-adv-x="277" 
d="M238 0h-82v766h82v-766zM52 649h-63l50 116h91z" />
    <glyph glyph-name="Iotadieresis" unicode="&#x3aa;" horiz-adv-x="161" 
d="M122 0h-82v766h82v-766zM5 828c-28 0 -51 23 -51 52c0 28 23 51 51 51c29 0 51 -23 51 -51c0 -29 -22 -52 -51 -52zM156 828c-28 0 -51 23 -51 52c0 28 23 51 51 51c29 0 51 -23 51 -51c0 -29 -22 -52 -51 -52z" />
    <glyph glyph-name="Omicrontonos" unicode="&#x38c;" horiz-adv-x="435" 
d="M53 649h-63l50 116h91zM123 147v472c0 121 60 160 141 160s135 -40 135 -160v-472c0 -122 -62 -160 -138 -160c-77 0 -138 39 -138 160zM317 140v486c0 54 -27 76 -56 76c-30 0 -56 -22 -56 -76v-486c0 -55 26 -76 56 -76c29 0 56 21 56 76z" />
    <glyph glyph-name="Upsilontonos" unicode="&#x38e;" horiz-adv-x="490" 
d="M72 649h-63l50 116h91zM366 0h-81v276l-118 490h83l75 -360l77 360h83l-119 -490v-276z" />
    <glyph glyph-name="Upsilondieresis" unicode="&#x3ab;" horiz-adv-x="326" 
d="M203 0h-81v276l-118 490h83l75 -360l77 360h83l-119 -490v-276zM87 828c-28 0 -51 23 -51 52c0 28 23 51 51 51c29 0 51 -23 51 -51c0 -29 -22 -52 -51 -52zM238 828c-28 0 -51 23 -51 52c0 28 23 51 51 51c29 0 51 -23 51 -51c0 -29 -22 -52 -51 -52z" />
    <glyph glyph-name="Omegatonos" unicode="&#x38f;" horiz-adv-x="437" 
d="M54 649h-63l50 116h91zM408 0h-131v90c24 6 41 30 41 74v462c0 53 -25 76 -56 76s-56 -23 -56 -76v-462c0 -44 17 -68 41 -74v-90h-131v80l81 -6c-52 19 -73 65 -73 148v397c0 130 70 160 140 160c72 0 136 -32 136 -160v-397c0 -83 -21 -129 -73 -148l81 6v-80z" />
    <glyph glyph-name="alphatonos" unicode="&#x3ac;" horiz-adv-x="296" 
d="M262 0h-66l-9 46c-12 -22 -32 -54 -81 -54c-60 0 -76 46 -76 153v277c0 107 16 153 76 153c49 0 69 -32 81 -54l9 46h66v-567zM182 147v272c0 62 -13 81 -38 81c-26 0 -34 -22 -34 -75v-283c0 -54 8 -76 34 -76c25 0 38 20 38 81zM159 639h-63l50 116h91z" />
    <glyph glyph-name="epsilontonos" unicode="&#x3ad;" horiz-adv-x="278" 
d="M159 639h-63l50 116h91zM257 172v-41c0 -103 -43 -139 -115 -139c-74 0 -117 38 -117 133v32c0 67 3 109 72 131c-69 18 -72 64 -72 131v27c0 89 43 129 118 129c71 0 114 -37 114 -139v-17h-80v20c0 42 -11 61 -36 61s-36 -17 -36 -60v-49c0 -56 48 -66 66 -66
c12 0 23 0 44 1v-76c-21 1 -31 1 -45 1c-18 0 -65 -10 -65 -66v-52c0 -47 10 -66 36 -66c25 0 36 19 36 66v39h80z" />
    <glyph glyph-name="etatonos" unicode="&#x3ae;" 
d="M266 0h-80v425c0 53 -8 75 -34 75c-25 0 -38 -19 -38 -81v-419h-80v567h67l9 -46c11 22 32 54 81 54c59 0 75 -46 75 -153v-422zM163 639h-63l50 116h91z" />
    <glyph glyph-name="iotatonos" unicode="&#x3af;" horiz-adv-x="177" 
d="M178 64v-67c-13 -3 -25 -5 -43 -5c-80 0 -103 42 -103 150v425h80v-431c0 -50 6 -73 44 -73c6 0 14 0 22 1zM93 639h-63l50 116h91z" />
    <glyph glyph-name="iotadieresis" unicode="&#x3ca;" horiz-adv-x="177" 
d="M179 64v-67c-13 -3 -25 -5 -43 -5c-80 0 -103 42 -103 150v425h80v-431c0 -50 6 -73 44 -73c6 0 14 0 22 1zM-3 629c-28 0 -51 23 -51 52c0 28 23 51 51 51c29 0 51 -23 51 -51c0 -29 -22 -52 -51 -52zM148 629c-28 0 -51 23 -51 52c0 28 23 51 51 51c29 0 51 -23 51 -51
c0 -29 -22 -52 -51 -52z" />
    <glyph glyph-name="iotadieresistonos" unicode="&#x390;" horiz-adv-x="177" 
d="M178 64v-67c-13 -3 -25 -5 -43 -5c-80 0 -103 42 -103 150v425h80v-431c0 -50 6 -73 44 -73c6 0 14 0 22 1zM-44 634c-28 0 -51 23 -51 52c0 28 23 51 51 51c29 0 51 -23 51 -51c0 -29 -22 -52 -51 -52zM192 634c-28 0 -51 23 -51 52c0 28 23 51 51 51
c29 0 52 -23 52 -51c0 -29 -23 -52 -52 -52zM75 620h-63l46 132h86z" />
    <glyph glyph-name="omicrontonos" unicode="&#x3cc;" horiz-adv-x="293" 
d="M163 639h-63l50 116h91zM262 436v-305c0 -103 -43 -139 -116 -139c-74 0 -116 37 -116 139v305c0 102 42 139 116 139c73 0 116 -36 116 -139zM182 133v301c0 48 -11 66 -37 66c-32 0 -35 -29 -35 -92v-275c0 -47 10 -66 36 -66c25 0 36 19 36 66z" />
    <glyph glyph-name="upsilontonos" unicode="&#x3cd;" horiz-adv-x="297" 
d="M167 639h-63l50 116h91zM184 133v434h80v-436c0 -103 -43 -139 -116 -139c-74 0 -116 37 -116 139v436h80v-434c0 -47 10 -66 36 -66c25 0 36 19 36 66z" />
    <glyph glyph-name="upsilondieresis" unicode="&#x3cb;" horiz-adv-x="296" 
d="M184 133v434h80v-436c0 -103 -43 -139 -116 -139c-74 0 -116 37 -116 139v436h80v-434c0 -47 10 -66 36 -66c25 0 36 19 36 66zM72 629c-28 0 -51 23 -51 52c0 28 23 51 51 51c29 0 51 -23 51 -51c0 -29 -22 -52 -51 -52zM223 629c-28 0 -51 23 -51 52c0 28 23 51 51 51
c29 0 51 -23 51 -51c0 -29 -22 -52 -51 -52z" />
    <glyph glyph-name="upsilondieresistonos" unicode="&#x3b0;" horiz-adv-x="296" 
d="M184 133v434h80v-436c0 -103 -43 -139 -116 -139c-74 0 -116 37 -116 139v436h80v-434c0 -47 10 -66 36 -66c25 0 36 19 36 66zM29 634c-28 0 -51 23 -51 52c0 28 23 51 51 51c29 0 51 -23 51 -51c0 -29 -22 -52 -51 -52zM265 634c-28 0 -51 23 -51 52c0 28 23 51 51 51
c29 0 52 -23 52 -51c0 -29 -23 -52 -52 -52zM148 620h-63l46 132h86z" />
    <glyph glyph-name="omegatonos" unicode="&#x3ce;" horiz-adv-x="442" 
d="M332 133v301c0 47 -10 65 -36 66v75c74 -1 116 -37 116 -139v-305c0 -104 -42 -139 -110 -139c-31 0 -62 7 -82 42c-19 -35 -50 -42 -80 -42c-69 0 -112 37 -112 139v305c0 102 42 138 116 139v-75c-26 -1 -36 -19 -36 -66v-301c0 -47 11 -66 36 -66s36 17 36 60v290h80
v-290c0 -43 12 -60 36 -60c26 0 36 19 36 66zM243 639h-63l50 116h91z" />
    <glyph glyph-name="tonos" unicode="&#x384;" horiz-adv-x="124" 
d="M63 639h-63l50 116h91z" />
    <glyph glyph-name="dieresistonos" unicode="&#x385;" horiz-adv-x="377" 
d="M70 634c-28 0 -51 23 -51 52c0 28 23 51 51 51c29 0 51 -23 51 -51c0 -29 -22 -52 -51 -52zM306 634c-28 0 -51 23 -51 52c0 28 23 51 51 51c29 0 52 -23 52 -51c0 -29 -23 -52 -52 -52zM189 620h-63l46 132h86z" />
    <glyph glyph-name="uni2015" unicode="&#x2015;" horiz-adv-x="1064" 
d="M1032 254h-1000v76h1000v-76z" />
    <glyph glyph-name="uni0410" unicode="&#x410;" horiz-adv-x="325" 
d="M321 0h-82l-21 180h-111l-21 -180h-82l103 766h110zM208 257l-46 396l-45 -396h91z" />
    <glyph glyph-name="uni0411" unicode="&#x411;" horiz-adv-x="331" 
d="M171 0h-132v766h239v-80h-157v-242h53c87 0 136 -35 136 -160v-124c0 -125 -52 -160 -139 -160zM228 155v134c0 56 -18 76 -56 76h-51v-286h51c38 0 56 20 56 76z" />
    <glyph glyph-name="uni0412" unicode="&#x412;" horiz-adv-x="346" 
d="M183 0h-144v766h138c87 0 133 -43 133 -159v-98c0 -52 -17 -98 -73 -116c60 -17 83 -66 83 -123v-110c0 -122 -50 -160 -137 -160zM228 507v104c0 56 -18 75 -56 75h-51v-255h51c38 0 56 20 56 76zM238 155v121c0 56 -28 76 -66 76h-51v-273h61c38 0 56 20 56 76z" />
    <glyph glyph-name="uni0413" unicode="&#x413;" horiz-adv-x="285" 
d="M121 0h-82v766h239v-80h-157v-686z" />
    <glyph glyph-name="uni0414" unicode="&#x414;" horiz-adv-x="413" 
d="M405 -106h-76v106h-245v-106h-76v175c51 20 62 56 65 139l19 558h266v-687h47v-185zM276 79v607h-102l-18 -496c-2 -50 -13 -85 -44 -111h164z" />
    <glyph glyph-name="uni0415" unicode="&#x415;" horiz-adv-x="304" 
d="M278 0h-239v766h239v-80h-157v-260h150v-80h-150v-267h157v-79z" />
    <glyph glyph-name="uni0416" unicode="&#x416;" horiz-adv-x="500" 
d="M492 0h-82c-6 128 -52 255 -118 383c63 128 105 255 108 383h82c-1 -127 -41 -253 -102 -380c64 -129 108 -257 112 -386zM291 0h-82v766h82v-766zM89 0h-82c4 129 49 257 113 386c-61 127 -101 253 -103 380h82c3 -128 46 -255 109 -383c-66 -128 -113 -255 -119 -383z
" />
    <glyph glyph-name="uni0417" unicode="&#x417;" horiz-adv-x="331" 
d="M301 262v-119c0 -111 -56 -156 -137 -156s-139 46 -139 155v73h82v-75c0 -55 26 -76 57 -76c34 0 55 25 55 94v130c0 51 -35 66 -78 66c-11 0 -34 -1 -52 -2v81c21 -2 45 -2 62 -2c38 0 68 15 68 70v125c0 56 -27 76 -55 76s-57 -19 -57 -75v-79h-82v77
c0 109 57 154 140 154c79 0 136 -42 136 -153v-102c0 -67 -12 -108 -78 -131c66 -22 78 -64 78 -131z" />
    <glyph glyph-name="uni0418" unicode="&#x418;" horiz-adv-x="392" 
d="M352 0h-82l2 523l-134 -523h-99v766h82l-2 -532l140 532h93v-766z" />
    <glyph glyph-name="uni0419" unicode="&#x419;" horiz-adv-x="392" 
d="M254 912h47c-1 -68 -41 -106 -104 -106s-105 38 -105 106h48c0 -29 17 -50 57 -50c39 0 56 21 57 50zM352 0h-82l2 523l-134 -523h-99v766h82l-2 -532l140 532h93v-766z" />
    <glyph glyph-name="uni041A" unicode="&#x41a;" horiz-adv-x="330" 
d="M323 0h-82c-6 128 -53 255 -119 383c63 128 106 255 109 383h82c-2 -127 -42 -253 -103 -380c64 -129 109 -257 113 -386zM121 0h-82v766h82v-766z" />
    <glyph glyph-name="uni041B" unicode="&#x41b;" horiz-adv-x="381" 
d="M342 0h-82v686h-112v-544c0 -125 -73 -154 -138 -154h-4v77h4c28 0 56 20 56 76v625h276v-766z" />
    <glyph glyph-name="uni041C" unicode="&#x41c;" horiz-adv-x="509" 
d="M469 0h-82l3 599l-106 -599h-66l-100 600l3 -600h-82v766h130l85 -542l85 542h130v-766z" />
    <glyph glyph-name="uni041D" unicode="&#x41d;" horiz-adv-x="355" 
d="M315 0h-82v349h-112v-349h-82v766h82v-338h112v338h82v-766z" />
    <glyph glyph-name="uni041E" unicode="&#x41e;" horiz-adv-x="347" 
d="M35 147v472c0 121 60 160 141 160s135 -40 135 -160v-472c0 -122 -62 -160 -138 -160c-77 0 -138 39 -138 160zM229 140v486c0 54 -27 76 -56 76c-30 0 -56 -22 -56 -76v-486c0 -55 26 -76 56 -76c29 0 56 21 56 76z" />
    <glyph glyph-name="uni041F" unicode="&#x41f;" horiz-adv-x="355" 
d="M315 0h-82v686h-112v-686h-82v766h276v-766z" />
    <glyph glyph-name="uni0420" unicode="&#x420;" horiz-adv-x="331" 
d="M121 0h-82v766h132c87 0 139 -35 139 -160v-125c0 -125 -49 -160 -136 -160h-53v-321zM228 477v133c0 56 -18 76 -56 76h-51v-285h51c38 0 56 20 56 76z" />
    <glyph glyph-name="uni0421" unicode="&#x421;" horiz-adv-x="338" 
d="M311 256v-109c0 -122 -62 -160 -138 -160c-77 0 -138 39 -138 160v472c0 121 61 160 140 160c74 0 136 -35 136 -157v-123h-82v127c0 54 -26 76 -57 76c-38 0 -55 -32 -55 -105v-457c0 -55 26 -76 57 -76c36 0 55 29 55 98v94h82z" />
    <glyph glyph-name="uni0422" unicode="&#x422;" horiz-adv-x="288" 
d="M185 0h-82v686h-95v80h272v-80h-95v-686z" />
    <glyph glyph-name="uni0423" unicode="&#x423;" horiz-adv-x="381" 
d="M108 0h-82l107 281l-141 485h83l102 -369l136 369h83z" />
    <glyph glyph-name="uni0424" unicode="&#x424;" horiz-adv-x="423" 
d="M252 -1h-82v65c-107 8 -147 79 -147 195v247c0 116 40 187 147 195v66h82v-66c106 -9 147 -79 147 -195v-247c0 -116 -41 -186 -147 -195v-65zM170 143v479c-48 -8 -65 -54 -65 -99v-281c0 -45 17 -91 65 -99zM317 242v281c0 45 -18 91 -65 99v-479c47 8 65 54 65 99z
" />
    <glyph glyph-name="uni0425" unicode="&#x425;" horiz-adv-x="337" 
d="M337 0h-82l-84 298l-94 -298h-82l133 394l-127 372h83l87 -273l81 273h83l-114 -373z" />
    <glyph glyph-name="uni0426" unicode="&#x426;" horiz-adv-x="380" 
d="M372 -106h-76v106h-257v766h82v-687h112v687h82v-687h57v-185z" />
    <glyph glyph-name="uni0427" unicode="&#x427;" horiz-adv-x="334" 
d="M295 0h-82v323c-21 -9 -40 -11 -60 -11c-81 0 -129 34 -129 169v285h82v-292c0 -67 22 -81 62 -81c15 0 29 2 45 12v361h82v-766z" />
    <glyph glyph-name="uni0428" unicode="&#x428;" horiz-adv-x="529" 
d="M489 766v-766h-450v766h82v-687h102v687h82v-687h102v687h82z" />
    <glyph glyph-name="uni0429" unicode="&#x429;" horiz-adv-x="554" 
d="M489 766v-687h57v-185h-76v106h-431v766h82v-687h102v687h82v-687h102v687h82z" />
    <glyph glyph-name="uni042A" unicode="&#x42a;" horiz-adv-x="455" 
d="M296 0h-132v686h-157v80h239v-322h53c87 0 136 -35 136 -160v-124c0 -125 -52 -160 -139 -160zM353 155v134c0 56 -18 76 -56 76h-51v-286h51c38 0 56 20 56 76z" />
    <glyph glyph-name="uni042B" unicode="&#x42b;" horiz-adv-x="507" 
d="M228 155v134c0 56 -18 76 -56 76h-51v-286h51c38 0 56 20 56 76zM171 0h-132v766h82v-322h35c95 0 154 -22 154 -160v-124c0 -125 -52 -160 -139 -160zM467 0h-82v766h82v-766z" />
    <glyph glyph-name="uni042C" unicode="&#x42c;" horiz-adv-x="331" 
d="M228 155v134c0 56 -18 76 -56 76h-51v-286h51c38 0 56 20 56 76zM171 0h-132v766h82v-322h35c95 0 154 -22 154 -160v-124c0 -125 -52 -160 -139 -160z" />
    <glyph glyph-name="uni042D" unicode="&#x42d;" horiz-adv-x="336" 
d="M300 616v-466c0 -120 -56 -163 -137 -163c-80 0 -139 41 -139 160v68h82v-75c0 -55 26 -76 58 -76c37 0 54 29 54 100v182h-144v80h144v199c0 55 -25 77 -55 77c-29 0 -57 -21 -57 -76v-78h-82v74c0 118 58 157 137 157c82 0 139 -42 139 -163z" />
    <glyph glyph-name="uni042E" unicode="&#x42e;" horiz-adv-x="523" 
d="M121 0h-82v766h82v-340h90v193c0 121 60 160 141 160c82 0 135 -40 135 -160v-472c0 -122 -61 -160 -137 -160c-77 0 -139 39 -139 160v199h-90v-346zM405 140v486c0 54 -26 76 -56 76c-29 0 -56 -22 -56 -76v-486c0 -55 27 -76 56 -76c30 0 56 21 56 76z" />
    <glyph glyph-name="uni042F" unicode="&#x42f;" horiz-adv-x="336" 
d="M214 401v285h-51c-45 0 -56 -25 -56 -96v-113c0 -57 18 -76 56 -76h51zM296 0h-82v324h-38l-89 -324h-82l94 338c-56 19 -74 66 -74 149v119c0 125 50 160 137 160h134v-766z" />
    <glyph glyph-name="uni0408" unicode="&#x408;" horiz-adv-x="161" 
d="M-17 -192h-2v77h2c28 0 56 20 56 76v805h82v-798c0 -125 -73 -160 -138 -160z" />
    <glyph glyph-name="uni0404" unicode="&#x404;" horiz-adv-x="336" 
d="M311 215v-68c0 -119 -58 -160 -138 -160c-81 0 -138 43 -138 163v466c0 121 57 163 139 163c79 0 137 -39 137 -157v-74h-82v78c0 54 -27 76 -58 76c-36 0 -54 -30 -54 -100v-176h144v-80h-144v-206c0 -54 26 -76 56 -76s56 22 56 76v75h82z" />
    <glyph glyph-name="uni0406" unicode="&#x406;" horiz-adv-x="161" 
d="M121 0h-82v766h82v-766z" />
    <glyph glyph-name="uni0405" unicode="&#x405;" horiz-adv-x="333" 
d="M304 239v-87c0 -111 -45 -165 -137 -165c-94 0 -139 56 -139 165v104h82v-116c0 -55 27 -76 57 -76c33 0 55 25 55 93v66c0 95 -194 157 -194 305v97c0 123 72 154 141 154c68 0 135 -31 135 -155v-125h-82v127c0 55 -27 76 -57 76c-33 0 -55 -25 -55 -94v-66
c0 -126 194 -160 194 -303z" />
    <glyph glyph-name="uni0490" unicode="&#x490;" horiz-adv-x="285" 
d="M121 0h-82v766h163v106h76v-186h-157v-686z" />
    <glyph glyph-name="uni040F" unicode="&#x40f;" horiz-adv-x="355" 
d="M315 0h-99v-106h-76v106h-101v766h82v-687h112v687h82v-766z" />
    <glyph glyph-name="uni0403" unicode="&#x403;" horiz-adv-x="285" 
d="M177 838h-63l50 116h91zM121 0h-82v766h239v-80h-157v-686z" />
    <glyph glyph-name="uni0401" unicode="&#x401;" horiz-adv-x="304" 
d="M279 0h-239v766h239v-80h-157v-260h150v-80h-150v-267h157v-79zM81 828c-28 0 -51 23 -51 52c0 28 23 51 51 51c29 0 51 -23 51 -51c0 -29 -22 -52 -51 -52zM232 828c-28 0 -51 23 -51 52c0 28 23 51 51 51c29 0 51 -23 51 -51c0 -29 -22 -52 -51 -52z" />
    <glyph glyph-name="uni0402" unicode="&#x402;" horiz-adv-x="394" 
d="M234 -8v77c31 0 58 20 58 76v147c0 67 -22 81 -60 81c-17 0 -31 -3 -47 -13v-360h-82v686h-95v80h292v-80h-115v-244c21 9 40 12 63 12c78 0 126 -36 126 -169v-133c0 -122 -61 -160 -140 -160z" />
    <glyph glyph-name="uni040C" unicode="&#x40c;" horiz-adv-x="330" 
d="M198 830h-63l50 116h91zM323 0h-82c-6 128 -53 255 -119 383c63 128 106 255 109 383h82c-2 -127 -42 -253 -103 -380c64 -129 109 -257 113 -386zM121 0h-82v766h82v-766z" />
    <glyph glyph-name="uni040E" unicode="&#x40e;" horiz-adv-x="381" 
d="M250 909h47c-1 -68 -41 -106 -104 -106s-105 38 -105 106h48c0 -29 17 -50 57 -50c39 0 56 21 57 50zM108 0h-82l107 281l-141 485h83l102 -369l136 369h83z" />
    <glyph glyph-name="uni0407" unicode="&#x407;" horiz-adv-x="161" 
d="M122 0h-82v766h82v-766zM5 828c-28 0 -51 23 -51 52c0 28 23 51 51 51c29 0 51 -23 51 -51c0 -29 -22 -52 -51 -52zM156 828c-28 0 -51 23 -51 52c0 28 23 51 51 51c29 0 51 -23 51 -51c0 -29 -22 -52 -51 -52z" />
    <glyph glyph-name="uni0409" unicode="&#x409;" horiz-adv-x="541" 
d="M382 0h-132v686h-102v-544c0 -125 -73 -154 -138 -154h-4v77h4c28 0 56 20 56 76v625h266v-322h53c87 0 136 -35 136 -160v-124c0 -125 -52 -160 -139 -160zM439 155v134c0 56 -18 76 -56 76h-51v-286h51c38 0 56 20 56 76z" />
    <glyph glyph-name="uni040A" unicode="&#x40a;" horiz-adv-x="525" 
d="M365 0h-132v364h-112v-364h-82v766h82v-322h112v322h82v-322h53c87 0 136 -35 136 -160v-124c0 -125 -52 -160 -139 -160zM422 155v133c0 56 -18 76 -56 76h-51v-285h51c38 0 56 20 56 76z" />
    <glyph glyph-name="uni040B" unicode="&#x40b;" horiz-adv-x="397" 
d="M374 0h-82v292c0 67 -22 81 -60 81c-17 0 -31 -3 -47 -13v-360h-82v686h-95v80h292v-80h-115v-244c21 9 40 12 63 12c78 0 126 -36 126 -169v-285z" />
    <glyph glyph-name="uni0430" unicode="&#x430;" horiz-adv-x="291" 
d="M258 0h-67l-9 46c-12 -23 -31 -54 -80 -54s-76 31 -76 162v14c0 112 22 151 77 151c40 0 60 -20 75 -46v151c0 56 -8 76 -36 76s-36 -20 -36 -76v-38h-80v30c0 104 24 159 117 159s115 -55 115 -167v-408zM178 142v32c0 47 -10 69 -37 69c-30 0 -35 -26 -35 -89v-15
c0 -50 8 -72 34 -72c20 0 38 13 38 75z" />
    <glyph glyph-name="uni0431" unicode="&#x431;" horiz-adv-x="295" 
d="M32 126v340c0 142 17 212 74 253c34 24 82 38 147 50l21 -62c-51 -8 -91 -21 -117 -41c-36 -28 -45 -72 -47 -143c8 25 40 53 80 53c45 0 74 -38 74 -126v-295c0 -119 -32 -163 -114 -163c-76 0 -118 38 -118 134zM184 123v311c0 42 -9 67 -34 67c-23 0 -38 -19 -38 -77
v-301c0 -39 13 -56 36 -56s36 17 36 56z" />
    <glyph glyph-name="uni0432" unicode="&#x432;" horiz-adv-x="299" 
d="M175 0h-142v567h130c65 0 106 -29 106 -118v-46c0 -52 -10 -96 -69 -113c62 -15 76 -54 76 -116v-56c0 -89 -44 -118 -101 -118zM192 382v55c0 40 -13 56 -39 56h-40v-172h22c29 0 57 12 57 61zM193 130v53c0 49 -31 61 -54 61h-26v-170h37c26 0 43 15 43 56z" />
    <glyph glyph-name="uni0433" unicode="&#x433;" horiz-adv-x="267" 
d="M113 0h-80v567h227v-74h-147v-493z" />
    <glyph glyph-name="uni0434" unicode="&#x434;" horiz-adv-x="352" 
d="M343 -96h-73v96h-181v-96h-81v163c31 12 50 35 52 81l15 418h231v-492h37v-170zM226 74v419h-71l-13 -333c-2 -38 -10 -65 -34 -86h118z" />
    <glyph glyph-name="uni0435" unicode="&#x435;" horiz-adv-x="288" 
d="M262 187v-37c0 -119 -35 -158 -116 -158c-82 0 -116 40 -116 160v262c0 120 35 161 117 161c81 0 115 -40 115 -164v-160h-152v-118c0 -47 10 -66 36 -66c25 0 36 19 36 66v54h80zM182 325v90c0 61 -5 85 -36 85c-32 0 -36 -24 -36 -85v-90h72z" />
    <glyph glyph-name="uni0436" unicode="&#x436;" horiz-adv-x="438" 
d="M423 0h-81c0 97 -28 193 -82 290c54 92 82 185 82 277h82c0 -91 -25 -183 -78 -274c52 -98 77 -195 77 -293zM259 0h-80v567h80v-567zM96 0h-81c0 98 25 195 77 293c-53 91 -78 183 -78 274h82c0 -92 28 -185 82 -277c-54 -97 -82 -193 -82 -290z" />
    <glyph glyph-name="uni0437" unicode="&#x437;" horiz-adv-x="278" 
d="M253 158v-33c0 -95 -43 -133 -117 -133c-72 0 -115 36 -115 139v41h80v-39c0 -47 11 -66 36 -66c26 0 36 19 36 66v53c0 56 -47 66 -65 66c-14 0 -24 0 -45 -1v76c21 -1 32 -1 44 -1c18 0 66 10 66 66v48c0 43 -11 60 -36 60s-36 -19 -36 -61v-25h-80v22
c0 102 43 139 114 139c75 0 118 -40 118 -129v-26c0 -67 -3 -113 -72 -131c69 -22 72 -64 72 -131z" />
    <glyph glyph-name="uni0438" unicode="&#x438;" horiz-adv-x="325" 
d="M291 0h-80l2 349l-101 -349h-79v567h80l-2 -350l102 350h78v-567z" />
    <glyph glyph-name="uni0439" unicode="&#x439;" horiz-adv-x="325" 
d="M217 727h47c-1 -68 -41 -106 -104 -106s-105 38 -105 106h48c0 -29 17 -50 57 -50c39 0 56 21 57 50zM291 0h-80l2 349l-101 -349h-79v567h80l-2 -350l102 350h78v-567z" />
    <glyph glyph-name="uni043A" unicode="&#x43a;" horiz-adv-x="292" 
d="M277 0h-81c0 97 -28 193 -82 290c54 92 82 185 82 277h82c0 -91 -25 -183 -78 -274c52 -98 77 -195 77 -293zM113 0h-80v567h80v-567z" />
    <glyph glyph-name="uni043B" unicode="&#x43b;" horiz-adv-x="313" 
d="M279 0h-80v493h-72v-351c0 -96 -19 -149 -90 -149c-10 0 -21 1 -29 2v66c2 -1 6 -1 10 -1c24 0 29 28 29 69v438h232v-567z" />
    <glyph glyph-name="uni043C" unicode="&#x43c;" horiz-adv-x="409" 
d="M375 0h-80l3 347l-75 -347h-38l-75 347l3 -347h-80v567h90l81 -356l82 356h89v-567z" />
    <glyph glyph-name="uni043D" unicode="&#x43d;" horiz-adv-x="299" 
d="M265 0h-80v251h-72v-251h-80v567h80v-242h72v242h80v-567z" />
    <glyph glyph-name="uni043E" unicode="&#x43e;" horiz-adv-x="293" 
d="M262 436v-305c0 -103 -43 -139 -116 -139c-74 0 -116 37 -116 139v305c0 102 42 139 116 139c73 0 116 -36 116 -139zM182 133v301c0 48 -11 66 -37 66c-32 0 -35 -29 -35 -92v-275c0 -47 10 -66 36 -66c25 0 36 19 36 66z" />
    <glyph glyph-name="uni043F" unicode="&#x43f;" horiz-adv-x="299" 
d="M265 0h-80v493h-72v-493h-80v567h232v-567z" />
    <glyph glyph-name="uni0440" unicode="&#x440;" horiz-adv-x="296" 
d="M114 -199h-80v766h67l9 -46c11 22 32 54 81 54c59 0 75 -46 75 -153v-277c0 -108 -16 -153 -76 -153c-45 0 -64 26 -76 46v-237zM186 142v283c0 53 -8 75 -34 75c-25 0 -38 -19 -38 -81v-272c0 -61 13 -81 38 -81c26 0 34 22 34 76z" />
    <glyph glyph-name="uni0441" unicode="&#x441;" horiz-adv-x="286" 
d="M262 222v-73c0 -118 -35 -157 -116 -157c-82 0 -116 40 -116 160v262c0 120 35 161 116 161c80 0 116 -39 116 -156v-60h-80v75c0 48 -11 66 -37 66c-31 0 -35 -27 -35 -89v-278c0 -47 10 -66 36 -66c31 0 36 25 36 86v69h80z" />
    <glyph glyph-name="uni0442" unicode="&#x442;" horiz-adv-x="277" 
d="M178 0h-80v493h-91v74h263v-74h-92v-493z" />
    <glyph glyph-name="uni0443" unicode="&#x443;" horiz-adv-x="278" 
d="M156 -200h-84l30 165l-99 602h84l53 -437l48 437h84z" />
    <glyph glyph-name="uni0444" unicode="&#x444;" horiz-adv-x="405" 
d="M241 -198h-78v192c-104 10 -137 76 -137 161v257c0 85 33 151 137 161v193h78v-193c103 -10 137 -76 137 -161v-257c0 -85 -34 -151 -137 -161v-192zM163 71v425c-48 -10 -57 -50 -57 -82v-261c0 -32 9 -73 57 -82zM298 153v261c0 32 -9 72 -57 82v-425c48 9 57 50 57 82
z" />
    <glyph glyph-name="uni0445" unicode="&#x445;" horiz-adv-x="282" 
d="M277 0h-79l-61 199l-53 -199h-78l89 290l-88 277h79l55 -182l53 182h81l-92 -278z" />
    <glyph glyph-name="uni0446" unicode="&#x446;" horiz-adv-x="325" 
d="M316 -96h-73v96h-209v567h80v-493h72v493h80v-493h50v-170z" />
    <glyph glyph-name="uni0447" unicode="&#x447;" horiz-adv-x="288" 
d="M255 567v-567h-80v270c-11 -21 -29 -51 -77 -51c-59 0 -75 46 -75 153v195h80v-198c0 -53 8 -75 34 -75c25 0 38 19 38 81v192h80z" />
    <glyph glyph-name="uni0448" unicode="&#x448;" horiz-adv-x="441" 
d="M407 567v-567h-374v567h80v-493h67v493h80v-493h67v493h80z" />
    <glyph glyph-name="uni0449" unicode="&#x449;" horiz-adv-x="467" 
d="M458 -96h-73v96h-351v567h80v-493h67v493h80v-493h67v493h80v-493h50v-170z" />
    <glyph glyph-name="uni044A" unicode="&#x44a;" horiz-adv-x="388" 
d="M270 0h-131v493h-132v74h212v-230h53c54 0 99 -26 99 -118v-101c0 -93 -47 -118 -101 -118zM291 131v76c0 39 -13 56 -36 56h-36v-188h36c23 0 36 17 36 56z" />
    <glyph glyph-name="uni044B" unicode="&#x44b;" horiz-adv-x="444" 
d="M185 131v76c0 39 -13 56 -36 56h-36v-188h36c23 0 36 17 36 56zM164 0h-131v567h80v-230h54c54 0 98 -26 98 -118v-101c0 -93 -47 -118 -101 -118zM410 0h-80v567h80v-567z" />
    <glyph glyph-name="uni044C" unicode="&#x44c;" horiz-adv-x="283" 
d="M185 131v76c0 39 -13 56 -36 56h-36v-188h36c23 0 36 17 36 56zM164 0h-131v567h80v-230h54c54 0 98 -26 98 -118v-101c0 -93 -47 -118 -101 -118z" />
    <glyph glyph-name="uni044D" unicode="&#x44d;" horiz-adv-x="283" 
d="M252 436v-288c0 -115 -36 -156 -115 -156c-74 0 -117 36 -117 139v41h80v-39c0 -47 11 -66 36 -66c34 0 36 32 36 98v86h-130v74h130v109c0 47 -10 66 -36 66c-25 0 -36 -19 -36 -66v-25h-80v27c0 103 43 139 116 139c74 0 116 -37 116 -139z" />
    <glyph glyph-name="uni044E" unicode="&#x44e;" horiz-adv-x="449" 
d="M114 0h-80v567h80v-242h73v111c0 102 42 139 116 139c73 0 116 -36 116 -139v-305c0 -103 -43 -139 -116 -139c-74 0 -116 37 -116 139v120h-73v-251zM339 133v301c0 47 -11 66 -36 66c-26 0 -36 -19 -36 -66v-301c0 -47 10 -66 36 -66c25 0 36 19 36 66z" />
    <glyph glyph-name="uni044F" unicode="&#x44f;" horiz-adv-x="291" 
d="M257 0h-80v232h-31l-63 -232h-74l67 241c-30 14 -51 46 -51 109v99c0 92 47 118 101 118h131v-567zM177 306v186h-36c-23 0 -36 -17 -36 -56v-74c0 -39 13 -56 36 -56h36z" />
    <glyph glyph-name="uni0458" unicode="&#x458;" horiz-adv-x="147" 
d="M-33 -202v65c8 -1 11 -1 17 -1c45 0 49 27 49 77v628h80v-629c0 -98 -23 -145 -104 -145c-16 0 -29 2 -42 5zM73 632c-30 0 -54 24 -54 54s24 54 54 54s54 -24 54 -54s-24 -54 -54 -54z" />
    <glyph glyph-name="uni0459" unicode="&#x459;" horiz-adv-x="449" 
d="M331 0h-131v493h-72v-351c0 -97 -19 -149 -91 -149c-10 0 -20 1 -29 2v66c3 -1 7 -1 11 -1c29 0 29 46 29 97v410h232v-230h35c62 0 117 -14 117 -118v-101c0 -93 -47 -118 -101 -118zM352 131v63c0 47 -9 69 -36 69h-36v-188h36c23 0 36 17 36 56z" />
    <glyph glyph-name="uni045A" unicode="&#x45a;" horiz-adv-x="435" 
d="M316 0h-131v262h-72v-262h-80v567h80v-231h72v231h80v-230h54c54 0 98 -26 98 -118v-101c0 -93 -47 -118 -101 -118zM337 131v76c0 39 -13 56 -36 56h-36v-188h36c23 0 36 17 36 56z" />
    <glyph glyph-name="uni045B" unicode="&#x45b;" 
d="M265 0h-80v425c0 53 -8 75 -34 75c-25 0 -38 -19 -38 -81v-419h-80v647h-34v62h34v57h80v-57h105v-62h-105v-123c12 21 30 51 77 51c59 0 75 -46 75 -153v-422z" />
    <glyph glyph-name="uni0454" unicode="&#x454;" horiz-adv-x="283" 
d="M262 172v-41c0 -103 -43 -139 -116 -139c-74 0 -116 37 -116 139v305c0 102 42 139 116 139c73 0 116 -36 116 -139v-27h-80v25c0 47 -11 66 -36 66c-26 0 -36 -19 -36 -66v-109h130v-74h-130v-118c0 -47 10 -66 36 -66c25 0 36 19 36 66v39h80z" />
    <glyph glyph-name="uni0456" unicode="&#x456;" horiz-adv-x="147" 
d="M113 0h-80v567h80v-567zM73 632c-30 0 -54 24 -54 54s24 54 54 54s54 -24 54 -54s-24 -54 -54 -54z" />
    <glyph glyph-name="uni0455" unicode="&#x455;" horiz-adv-x="288" 
d="M103 187v-46c0 -51 8 -74 40 -74c31 0 42 21 42 59c0 146 -162 112 -162 309c0 104 45 140 123 140c81 0 119 -38 119 -145v-52h-80v46c0 56 -8 76 -40 76s-41 -21 -41 -60c0 -164 161 -109 161 -309c0 -98 -39 -139 -123 -139c-86 0 -119 44 -119 149v46h80z" />
    <glyph glyph-name="uni0491" unicode="&#x491;" horiz-adv-x="268" 
d="M114 0h-80v567h154v96h73v-170h-147v-493z" />
    <glyph glyph-name="uni045F" unicode="&#x45f;" horiz-adv-x="299" 
d="M186 -96h-73v96h-80v567h80v-493h72v493h80v-567h-79v-96z" />
    <glyph glyph-name="uni0453" unicode="&#x453;" horiz-adv-x="267" 
d="M168 639h-63l50 116h91zM113 0h-80v567h227v-74h-147v-493z" />
    <glyph glyph-name="uni0451" unicode="&#x451;" horiz-adv-x="288" 
d="M262 187v-37c0 -119 -35 -158 -116 -158c-82 0 -116 40 -116 160v262c0 120 35 161 117 161c81 0 115 -40 115 -164v-160h-152v-118c0 -47 10 -66 36 -66c25 0 36 19 36 66v54h80zM182 325v90c0 61 -5 85 -36 85c-32 0 -36 -24 -36 -85v-90h72zM70 629
c-28 0 -51 23 -51 52c0 28 23 51 51 51c29 0 51 -23 51 -51c0 -29 -22 -52 -51 -52zM221 629c-28 0 -51 23 -51 52c0 28 23 51 51 51c29 0 51 -23 51 -51c0 -29 -22 -52 -51 -52z" />
    <glyph glyph-name="uni0452" unicode="&#x452;" 
d="M119 -202v65c8 -1 11 -1 17 -1c45 0 49 27 49 77v486c0 53 -8 75 -34 75c-25 0 -38 -19 -38 -81v-419h-80v647h-34v62h34v57h80v-57h105v-62h-105v-123c12 21 30 51 77 51c59 0 75 -46 75 -153v-484c0 -98 -23 -145 -104 -145c-16 0 -29 2 -42 5z" />
    <glyph glyph-name="uni045C" unicode="&#x45c;" horiz-adv-x="292" 
d="M174 639h-63l50 116h91zM277 0h-81c0 97 -28 193 -82 290c54 92 82 185 82 277h82c0 -91 -25 -183 -78 -274c52 -98 77 -195 77 -293zM113 0h-80v567h80v-567z" />
    <glyph glyph-name="uni045E" unicode="&#x45e;" horiz-adv-x="278" 
d="M196 737h47c-1 -68 -41 -106 -104 -106s-105 38 -105 106h48c0 -29 17 -50 57 -50c39 0 56 21 57 50zM156 -200h-84l30 165l-99 602h84l53 -437l48 437h84z" />
    <glyph glyph-name="uni0457" unicode="&#x457;" horiz-adv-x="147" 
d="M113 0h-80v567h80v-567zM-2 629c-28 0 -51 23 -51 52c0 28 23 51 51 51c29 0 51 -23 51 -51c0 -29 -22 -52 -51 -52zM149 629c-28 0 -51 23 -51 52c0 28 23 51 51 51c29 0 51 -23 51 -51c0 -29 -22 -52 -51 -52z" />
    <glyph glyph-name="uni2116" unicode="&#x2116;" horiz-adv-x="669" 
d="M365 0h-99l-133 523l1 -523h-82v766h94l138 -532l-1 532h82v-766zM643 520v-132c0 -103 -37 -139 -110 -139c-74 0 -112 37 -112 139v132c0 103 38 139 112 139c73 0 110 -35 110 -139zM634 105h-200v71h200v-71zM568 390v128c0 48 -10 66 -36 66c-25 0 -36 -18 -36 -66
v-128c0 -47 11 -66 36 -66c26 0 36 19 36 66z" />
    <glyph glyph-name="angstrom" unicode="&#x212b;" horiz-adv-x="348" 
d="M333 0h-82l-21 180h-111l-21 -180h-82l106 758c-15 14 -24 33 -24 56c0 42 33 75 76 75c42 0 75 -33 75 -75c0 -23 -10 -42 -25 -56zM220 257l-46 401l-46 -401h92zM205 814c0 17 -14 31 -31 31c-18 0 -31 -14 -31 -31c0 -18 13 -31 31 -31c17 0 31 13 31 31z" />
    <glyph glyph-name="G.alt" horiz-adv-x="352" 
d="M239 140v198h-68v79h150v-270c0 -122 -62 -160 -143 -160c-82 0 -143 39 -143 160v472c0 121 60 160 143 160c84 0 143 -40 143 -160v-120h-82v127c0 54 -27 76 -61 76c-35 0 -61 -22 -61 -76v-486c0 -55 26 -76 61 -76c34 0 61 21 61 76z" />
    <glyph glyph-name="J.alt" horiz-adv-x="186" 
d="M10 -12h-4v77h4c28 0 56 20 56 76v625h82v-624c0 -125 -73 -154 -138 -154z" />
    <glyph glyph-name="R.alt" horiz-adv-x="343" 
d="M310 0h-82v248c0 56 -23 76 -61 76h-46v-324h-82v766h138c87 0 133 -43 133 -159v-125c0 -52 -17 -98 -73 -116c58 -14 73 -66 73 -123v-243zM228 479v132c0 56 -18 75 -56 75h-51v-283h51c38 0 56 20 56 76z" />
    <glyph glyph-name="a.alt" horiz-adv-x="291" 
d="M258 0h-67l-9 46c-13 -28 -37 -54 -79 -54c-60 0 -77 54 -77 157v36c0 111 34 148 95 148h57v91c0 56 -8 76 -36 76s-36 -20 -36 -76v-38h-80v40c0 103 31 149 117 149c80 0 115 -40 115 -146v-429zM178 148v122h-35c-27 0 -37 -27 -37 -84v-44c0 -53 8 -75 34 -75
c25 0 38 19 38 81z" />
    <glyph glyph-name="g.alt" horiz-adv-x="297" 
d="M183 -66v103c-13 -21 -34 -45 -77 -45c-59 0 -75 46 -75 153v277c0 107 16 153 75 153c49 0 70 -32 81 -54l9 46h67v-610c0 -123 -34 -165 -115 -165c-78 0 -117 39 -117 142v9h80v-19c0 -38 10 -56 36 -56c25 0 36 18 36 66zM183 147v272c0 62 -13 81 -38 81
c-26 0 -34 -22 -34 -75v-283c0 -54 8 -76 34 -76c25 0 38 20 38 81z" />
    <glyph glyph-name="j.alt" horiz-adv-x="147" 
d="M93 -199h-80c17 56 20 113 20 169v597h80v-601c0 -55 -3 -110 -20 -165zM73 632c-30 0 -54 24 -54 54s24 54 54 54s54 -24 54 -54s-24 -54 -54 -54z" />
    <glyph glyph-name="y.alt" 
d="M184 -66v103c-12 -21 -34 -45 -76 -45c-60 0 -76 46 -76 153v422h80v-425c0 -54 8 -76 34 -76c25 0 38 20 38 81v420h80v-606c0 -125 -31 -169 -114 -169c-79 0 -118 39 -118 142v9h80v-19c0 -38 11 -56 36 -56c26 0 36 18 36 66z" />
    <glyph glyph-name="Gcircumflex.alt" horiz-adv-x="352" 
d="M239 140v198h-68v79h150v-270c0 -122 -62 -160 -143 -160c-82 0 -143 39 -143 160v472c0 121 60 160 143 160c84 0 143 -40 143 -160v-120h-82v127c0 54 -27 76 -61 76c-35 0 -61 -22 -61 -76v-486c0 -55 26 -76 61 -76c34 0 61 21 61 76zM286 838h-66l-42 70l-38 -70
h-68l66 121h80z" />
    <glyph glyph-name="Gbreve.alt" horiz-adv-x="352" 
d="M239 140v198h-68v79h150v-270c0 -122 -62 -160 -143 -160c-82 0 -143 39 -143 160v472c0 121 60 160 143 160c84 0 143 -40 143 -160v-120h-82v127c0 54 -27 76 -61 76c-35 0 -61 -22 -61 -76v-486c0 -55 26 -76 61 -76c34 0 61 21 61 76zM237 936h47
c-1 -68 -41 -106 -104 -106s-105 38 -105 106h48c0 -29 17 -50 57 -50c39 0 56 21 57 50z" />
    <glyph glyph-name="Gdotaccent.alt" horiz-adv-x="352" 
d="M239 140v198h-68v79h150v-270c0 -122 -62 -160 -143 -160c-82 0 -143 39 -143 160v472c0 121 60 160 143 160c84 0 143 -40 143 -160v-120h-82v127c0 54 -27 76 -61 76c-35 0 -61 -22 -61 -76v-486c0 -55 26 -76 61 -76c34 0 61 21 61 76zM178 831c-28 0 -51 22 -51 51
s23 51 51 51c29 0 51 -22 51 -51s-22 -51 -51 -51z" />
    <glyph glyph-name="Gcommaaccent.alt" horiz-adv-x="352" 
d="M239 140v198h-68v79h150v-270c0 -122 -62 -160 -143 -160c-82 0 -143 39 -143 160v472c0 121 60 160 143 160c84 0 143 -40 143 -160v-120h-82v127c0 54 -27 76 -61 76c-35 0 -61 -22 -61 -76v-486c0 -55 26 -76 61 -76c34 0 61 21 61 76zM171 -181h-61l45 131h86z" />
    <glyph glyph-name="IJ.alt" horiz-adv-x="347" 
d="M121 0h-82v766h82v-766zM171 -12h-4v77h4c28 0 56 20 56 76v625h82v-624c0 -125 -73 -154 -138 -154z" />
    <glyph glyph-name="ij.alt" horiz-adv-x="294" 
d="M113 0h-80v567h80v-567zM73 632c-30 0 -54 24 -54 54s24 54 54 54s54 -24 54 -54s-24 -54 -54 -54zM240 -199h-80c17 56 20 113 20 169v597h80v-601c0 -55 -3 -110 -20 -165zM220 632c-30 0 -54 24 -54 54s24 54 54 54s54 -24 54 -54s-24 -54 -54 -54z" />
    <glyph glyph-name="Jcircumflex.alt" horiz-adv-x="186" 
d="M9 -12h-4v77h4c28 0 56 20 56 76v625h82v-624c0 -125 -73 -154 -138 -154zM214 838h-66l-42 70l-38 -70h-68l66 121h80z" />
    <glyph glyph-name="Racute.alt" horiz-adv-x="343" 
d="M310 0h-82v248c0 56 -23 76 -61 76h-46v-324h-82v766h138c87 0 133 -43 133 -159v-125c0 -52 -17 -98 -73 -116c58 -14 73 -66 73 -123v-243zM228 479v132c0 56 -18 75 -56 75h-51v-283h51c38 0 56 20 56 76zM181 838h-63l50 116h91z" />
    <glyph glyph-name="Rcommaaccent.alt" horiz-adv-x="343" 
d="M310 0h-82v248c0 56 -23 76 -61 76h-46v-324h-82v766h138c87 0 133 -43 133 -159v-125c0 -52 -17 -98 -73 -116c58 -14 73 -66 73 -123v-243zM228 479v132c0 56 -18 75 -56 75h-51v-283h51c38 0 56 20 56 76zM162 -181h-61l45 131h86z" />
    <glyph glyph-name="Rcaron.alt" horiz-adv-x="343" 
d="M310 0h-82v248c0 56 -23 76 -61 76h-46v-324h-82v766h138c87 0 133 -43 133 -159v-125c0 -52 -17 -98 -73 -116c58 -14 73 -66 73 -123v-243zM228 479v132c0 56 -18 75 -56 75h-51v-283h51c38 0 56 20 56 76zM202 838h-80l-68 121h67l40 -69l40 69h67z" />
    <glyph glyph-name="jcircumflex.alt" horiz-adv-x="147" 
d="M181 639h-66l-42 70l-38 -70h-68l66 121h80zM93 -199h-80c17 56 20 113 20 169v597h80v-601c0 -55 -3 -110 -20 -165z" />
    <glyph glyph-name="dotlessj.alt" horiz-adv-x="147" 
d="M93 -199h-80c17 56 20 113 20 169v597h80v-601c0 -55 -3 -110 -20 -165z" />
    <glyph glyph-name="agrave.alt" horiz-adv-x="291" 
d="M258 0h-67l-9 46c-13 -28 -37 -54 -79 -54c-60 0 -77 54 -77 157v36c0 111 34 148 95 148h57v91c0 56 -8 76 -36 76s-36 -20 -36 -76v-38h-80v40c0 103 31 149 117 149c80 0 115 -40 115 -146v-429zM178 148v122h-35c-27 0 -37 -27 -37 -84v-44c0 -53 8 -75 34 -75
c25 0 38 19 38 81zM193 639h-63l-79 116h91z" />
    <glyph glyph-name="aacute.alt" horiz-adv-x="291" 
d="M258 0h-67l-9 46c-13 -28 -37 -54 -79 -54c-60 0 -77 54 -77 157v36c0 111 34 148 95 148h57v91c0 56 -8 76 -36 76s-36 -20 -36 -76v-38h-80v40c0 103 31 149 117 149c80 0 115 -40 115 -146v-429zM178 148v122h-35c-27 0 -37 -27 -37 -84v-44c0 -53 8 -75 34 -75
c25 0 38 19 38 81zM161 639h-63l50 116h91z" />
    <glyph glyph-name="adieresis.alt" horiz-adv-x="290" 
d="M258 0h-67l-9 46c-13 -28 -37 -54 -79 -54c-60 0 -77 54 -77 157v36c0 111 34 148 95 148h57v91c0 56 -8 76 -36 76s-36 -20 -36 -76v-38h-80v40c0 103 31 149 117 149c80 0 115 -40 115 -146v-429zM178 148v122h-35c-27 0 -37 -27 -37 -84v-44c0 -53 8 -75 34 -75
c25 0 38 19 38 81zM67 629c-28 0 -51 23 -51 52c0 28 23 51 51 51c29 0 51 -23 51 -51c0 -29 -22 -52 -51 -52zM218 629c-28 0 -51 23 -51 52c0 28 23 51 51 51c29 0 51 -23 51 -51c0 -29 -22 -52 -51 -52z" />
    <glyph glyph-name="acircumflex.alt" horiz-adv-x="291" 
d="M258 0h-67l-9 46c-13 -28 -37 -54 -79 -54c-60 0 -77 54 -77 157v36c0 111 34 148 95 148h57v91c0 56 -8 76 -36 76s-36 -20 -36 -76v-38h-80v40c0 103 31 149 117 149c80 0 115 -40 115 -146v-429zM178 148v122h-35c-27 0 -37 -27 -37 -84v-44c0 -53 8 -75 34 -75
c25 0 38 19 38 81zM249 639h-66l-42 70l-38 -70h-68l66 121h80z" />
    <glyph glyph-name="aring.alt" horiz-adv-x="291" 
d="M176 693c0 19 -15 33 -34 33s-33 -14 -33 -33s14 -34 33 -34s34 15 34 34zM142 617c-42 0 -75 33 -75 76c0 42 33 75 75 75c43 0 76 -33 76 -75c0 -43 -33 -76 -76 -76zM258 0h-67l-9 46c-13 -28 -37 -54 -79 -54c-60 0 -77 54 -77 157v36c0 111 34 148 95 148h57v91
c0 56 -8 76 -36 76s-36 -20 -36 -76v-38h-80v40c0 103 31 149 117 149c80 0 115 -40 115 -146v-429zM178 148v122h-35c-27 0 -37 -27 -37 -84v-44c0 -53 8 -75 34 -75c25 0 38 19 38 81z" />
    <glyph glyph-name="atilde.alt" horiz-adv-x="291" 
d="M258 0h-67l-9 46c-13 -28 -37 -54 -79 -54c-60 0 -77 54 -77 157v36c0 111 34 148 95 148h57v91c0 56 -8 76 -36 76s-36 -20 -36 -76v-38h-80v40c0 103 31 149 117 149c80 0 115 -40 115 -146v-429zM178 148v122h-35c-27 0 -37 -27 -37 -84v-44c0 -53 8 -75 34 -75
c25 0 38 19 38 81zM191 718h62c-4 -46 -28 -79 -68 -79c-29 0 -47 18 -71 18c-12 0 -20 -4 -22 -18h-60c1 32 18 79 66 79c29 0 52 -17 72 -17c13 0 20 7 21 17z" />
    <glyph glyph-name="amacron.alt" horiz-adv-x="291" 
d="M258 0h-67l-9 46c-13 -28 -37 -54 -79 -54c-60 0 -77 54 -77 157v36c0 111 34 148 95 148h57v91c0 56 -8 76 -36 76s-36 -20 -36 -76v-38h-80v40c0 103 31 149 117 149c80 0 115 -40 115 -146v-429zM178 148v122h-35c-27 0 -37 -27 -37 -84v-44c0 -53 8 -75 34 -75
c25 0 38 19 38 81zM259 639h-232v66h232v-66z" />
    <glyph glyph-name="abreve.alt" horiz-adv-x="291" 
d="M258 0h-67l-9 46c-13 -28 -37 -54 -79 -54c-60 0 -77 54 -77 157v36c0 111 34 148 95 148h57v91c0 56 -8 76 -36 76s-36 -20 -36 -76v-38h-80v40c0 103 31 149 117 149c80 0 115 -40 115 -146v-429zM178 148v122h-35c-27 0 -37 -27 -37 -84v-44c0 -53 8 -75 34 -75
c25 0 38 19 38 81zM200 737h47c-1 -68 -41 -106 -104 -106s-105 38 -105 106h48c0 -29 17 -50 57 -50c39 0 56 21 57 50z" />
    <glyph glyph-name="aogonek.alt" horiz-adv-x="291" 
d="M267 -149l-28 -41c-68 5 -108 50 -108 99c0 32 18 66 62 89l-11 48c-12 -26 -36 -54 -79 -54c-60 0 -77 54 -77 157v36c0 111 34 148 95 148h57v91c0 56 -8 76 -36 76s-36 -20 -36 -76v-38h-80v40c0 103 31 149 117 149c80 0 115 -41 115 -146v-429
c-34 -23 -58 -53 -58 -84c0 -34 27 -55 67 -65zM178 148v122h-35c-27 0 -37 -27 -37 -84v-44c0 -53 8 -75 34 -75c25 0 38 19 38 81z" />
    <glyph glyph-name="gcircumflex.alt" horiz-adv-x="296" 
d="M182 -66v103c-13 -21 -34 -45 -77 -45c-59 0 -75 46 -75 153v277c0 107 16 153 75 153c49 0 70 -32 81 -54l9 46h67v-610c0 -123 -34 -165 -115 -165c-78 0 -117 39 -117 142v9h80v-19c0 -38 10 -56 36 -56c25 0 36 18 36 66zM182 147v272c0 62 -13 81 -38 81
c-26 0 -34 -22 -34 -75v-283c0 -54 8 -76 34 -76c25 0 38 20 38 81zM253 639h-66l-42 70l-38 -70h-68l66 121h80z" />
    <glyph glyph-name="gbreve.alt" horiz-adv-x="296" 
d="M205 737h47c-1 -68 -41 -106 -104 -106s-105 38 -105 106h48c0 -29 17 -50 57 -50c39 0 56 21 57 50zM182 -66v103c-13 -21 -34 -45 -77 -45c-59 0 -75 46 -75 153v277c0 107 16 153 75 153c49 0 70 -32 81 -54l9 46h67v-610c0 -123 -34 -165 -115 -165
c-78 0 -117 39 -117 142v9h80v-19c0 -38 10 -56 36 -56c25 0 36 18 36 66zM182 147v272c0 62 -13 81 -38 81c-26 0 -34 -22 -34 -75v-283c0 -54 8 -76 34 -76c25 0 38 20 38 81z" />
    <glyph glyph-name="gdotaccent.alt" horiz-adv-x="296" 
d="M182 -66v103c-13 -21 -34 -45 -77 -45c-59 0 -75 46 -75 153v277c0 107 16 153 75 153c49 0 70 -32 81 -54l9 46h67v-610c0 -123 -34 -165 -115 -165c-78 0 -117 39 -117 142v9h80v-19c0 -38 10 -56 36 -56c25 0 36 18 36 66zM182 147v272c0 62 -13 81 -38 81
c-26 0 -34 -22 -34 -75v-283c0 -54 8 -76 34 -76c25 0 38 20 38 81zM150 632c-28 0 -51 22 -51 51s23 51 51 51c29 0 51 -22 51 -51s-22 -51 -51 -51z" />
    <glyph glyph-name="gcommaaccent.alt" horiz-adv-x="296" 
d="M182 -66v103c-13 -21 -34 -45 -77 -45c-59 0 -75 46 -75 153v277c0 107 16 153 75 153c49 0 70 -32 81 -54l9 46h67v-610c0 -123 -34 -165 -115 -165c-78 0 -117 39 -117 142v9h80v-19c0 -38 10 -56 36 -56c25 0 36 18 36 66zM182 147v272c0 62 -13 81 -38 81
c-26 0 -34 -22 -34 -75v-283c0 -54 8 -76 34 -76c25 0 38 20 38 81zM170 770h61l-45 -131h-86z" />
    <glyph glyph-name="eng.alt" 
d="M246 -199h-80c17 56 20 113 20 169v455c0 53 -8 75 -34 75c-25 0 -38 -19 -38 -81v-419h-80v567h67l9 -46c11 22 32 54 81 54c59 0 75 -46 75 -153v-456c0 -55 -3 -110 -20 -165z" />
    <glyph glyph-name="ygrave.alt" 
d="M189 639h-63l-79 116h91zM184 -66v103c-12 -21 -34 -45 -76 -45c-60 0 -76 46 -76 153v422h80v-425c0 -54 8 -76 34 -76c25 0 38 20 38 81v420h80v-606c0 -125 -31 -169 -114 -169c-79 0 -118 39 -118 142v9h80v-19c0 -38 11 -56 36 -56c26 0 36 18 36 66z" />
    <glyph glyph-name="yacute.alt" 
d="M166 639h-63l50 116h91zM184 -66v103c-12 -21 -34 -45 -76 -45c-60 0 -76 46 -76 153v422h80v-425c0 -54 8 -76 34 -76c25 0 38 20 38 81v420h80v-606c0 -125 -31 -169 -114 -169c-79 0 -118 39 -118 142v9h80v-19c0 -38 11 -56 36 -56c26 0 36 18 36 66z" />
    <glyph glyph-name="ycircumflex.alt" 
d="M184 -66v103c-12 -21 -34 -45 -76 -45c-60 0 -76 46 -76 153v422h80v-425c0 -54 8 -76 34 -76c25 0 38 20 38 81v420h80v-606c0 -125 -31 -169 -114 -169c-79 0 -118 39 -118 142v9h80v-19c0 -38 11 -56 36 -56c26 0 36 18 36 66zM256 639h-66l-42 70l-38 -70h-68l66 121
h80z" />
    <glyph glyph-name="ydieresis.alt" 
d="M184 -66v103c-12 -21 -34 -45 -76 -45c-60 0 -76 46 -76 153v422h80v-425c0 -54 8 -76 34 -76c25 0 38 20 38 81v420h80v-606c0 -125 -31 -169 -114 -169c-79 0 -118 39 -118 142v9h80v-19c0 -38 11 -56 36 -56c26 0 36 18 36 66zM74 629c-28 0 -51 23 -51 52
c0 28 23 51 51 51c29 0 51 -23 51 -51c0 -29 -22 -52 -51 -52zM225 629c-28 0 -51 23 -51 52c0 28 23 51 51 51c29 0 51 -23 51 -51c0 -29 -22 -52 -51 -52z" />
    <glyph glyph-name="Kappa.alt" horiz-adv-x="330" 
d="M323 0h-82c-6 128 -53 255 -119 383c63 128 106 255 109 383h82c-2 -127 -42 -253 -103 -380c64 -129 109 -257 113 -386zM121 0h-82v766h82v-766z" />
    <glyph glyph-name="alpha.alt" horiz-adv-x="294" 
d="M262 0h-67l-9 45c-12 -23 -35 -53 -82 -53c-58 0 -74 47 -74 153v265c0 124 32 165 116 165c83 0 116 -40 116 -168v-407zM182 147v287c0 48 -11 66 -36 66c-32 0 -36 -28 -36 -91v-267c0 -54 8 -76 34 -76c25 0 38 20 38 81z" />
    <glyph glyph-name="gamma.alt" horiz-adv-x="300" 
d="M207 -198h-80l3 196l-69 426c-8 53 -19 71 -38 71c-4 0 -7 -1 -11 -2l-12 71c19 4 35 6 49 6c57 0 75 -38 83 -109l35 -319l46 425h84l-93 -569z" />
    <glyph glyph-name="eta.alt" 
d="M266 -199h-80v624c0 53 -8 75 -34 75c-25 0 -38 -19 -38 -81v-419h-80v567h67l9 -46c11 22 32 54 81 54c59 0 75 -46 75 -153v-621z" />
    <glyph glyph-name="kappa.alt" horiz-adv-x="292" 
d="M278 0h-81c0 97 -28 193 -82 290c54 92 82 185 82 277h82c0 -91 -25 -183 -78 -274c52 -98 77 -195 77 -293zM114 0h-80v567h80v-567z" />
    <glyph glyph-name="alphatonos.alt" horiz-adv-x="294" 
d="M158 639h-63l50 116h91zM262 0h-67l-9 45c-12 -23 -35 -53 -82 -53c-58 0 -74 47 -74 153v265c0 124 33 165 116 165s116 -40 116 -168v-407zM182 147v287c0 48 -11 66 -36 66c-32 0 -36 -28 -36 -91v-267c0 -54 8 -76 34 -76c25 0 38 20 38 81z" />
    <glyph glyph-name="etatonos.alt" 
d="M164 639h-63l51 116h91zM266 -199h-80v624c0 53 -8 75 -34 75c-25 0 -38 -19 -38 -81v-419h-80v567h67l9 -46c11 22 32 54 81 54c59 0 75 -46 75 -153v-621z" />
    <glyph glyph-name="uni042F.alt" horiz-adv-x="343" 
d="M221 403v286h-51c-38 0 -56 -19 -56 -75v-135c0 -56 18 -76 56 -76h51zM303 0h-82v324h-46c-38 0 -61 -20 -61 -76v-248h-82v243c0 57 15 109 73 123c-56 18 -73 64 -73 116v125c0 116 46 159 133 159h138v-766z" />
    <glyph glyph-name="uni0408.alt" horiz-adv-x="186" 
d="M10 -12h-4v77h4c28 0 56 20 56 76v625h82v-624c0 -125 -73 -154 -138 -154z" />
    <glyph glyph-name="uni0430.alt" horiz-adv-x="291" 
d="M258 0h-67l-9 46c-12 -26 -36 -54 -78 -54c-61 0 -78 53 -78 157v36c0 111 34 148 95 148h57v91c0 56 -8 76 -36 76s-36 -20 -36 -76v-38h-80v40c0 102 31 149 116 149c81 0 116 -40 116 -146v-429zM178 148v122h-35c-27 0 -37 -27 -37 -84v-44c0 -53 8 -75 34 -75
c25 0 38 19 38 81z" />
    <glyph glyph-name="uni044F.alt" horiz-adv-x="296" 
d="M263 0h-80v232h-18c-29 0 -58 -12 -58 -61v-171h-80v154c0 62 13 101 69 116c-59 17 -69 61 -69 113v66c0 102 51 118 133 118h103v-567zM183 306v186h-37c-29 0 -39 -19 -39 -68v-57c0 -54 33 -61 63 -61h13z" />
    <glyph glyph-name="uni0458.alt" horiz-adv-x="147" 
d="M93 -199h-80c17 56 20 113 20 169v597h80v-601c0 -55 -3 -110 -20 -165zM73 632c-30 0 -54 24 -54 54s24 54 54 54s54 -24 54 -54s-24 -54 -54 -54z" />
    <glyph glyph-name="uni0452.alt" 
d="M245 -199h-80c17 56 20 113 20 169v455c0 53 -8 75 -34 75c-25 0 -38 -19 -38 -81v-419h-80v647h-34v62h34v57h80v-57h105v-62h-105v-123c12 21 30 51 77 51c59 0 75 -46 75 -153v-456c0 -55 -3 -110 -20 -165z" />
    <glyph glyph-name="dollar.alt" horiz-adv-x="295" 
d="M189 0h-80v102c-60 11 -83 56 -83 146v46h80v-46c0 -51 8 -74 39 -74s43 21 43 60c0 144 -162 112 -162 308c0 85 29 125 83 136v89h80v-90c53 -12 79 -53 79 -140v-52h-80v46c0 56 -8 76 -40 76c-33 0 -42 -20 -42 -61c0 -161 162 -109 162 -308
c0 -79 -26 -121 -79 -134v-104z" />
    <glyph glyph-name="sterling.alt" horiz-adv-x="374" 
d="M347 0h-324v82h50v232h-50v76h50v231c0 133 76 158 140 158c63 0 136 -24 136 -158v-53h-82v58c0 56 -28 76 -56 76s-56 -20 -56 -76v-236h165v-76h-165v-232h192v-82z" />
    <glyph glyph-name="registered.alt" horiz-adv-x="692" 
d="M344 -8c-223 0 -320 146 -320 388c0 244 98 391 321 391c222 0 322 -147 322 -390c0 -242 -99 -389 -323 -389zM347 62c173 0 248 114 248 318c0 207 -77 322 -251 322c-177 0 -248 -119 -248 -318c0 -212 81 -322 251 -322zM487 138h-77l-54 180h-37v-180h-76v492h102
c72 0 134 -6 140 -99c2 -16 3 -34 3 -54c0 -94 -17 -131 -61 -150zM411 455v39c0 47 -15 64 -47 64h-45v-167h45c32 0 47 17 47 64z" />
    <glyph glyph-name="A.uni" horiz-adv-x="344" 
d="M305 0h-71l-6 50c-18 -37 -48 -63 -97 -63c-56 0 -102 34 -102 133v155c0 108 41 140 97 140c45 0 78 -22 97 -53v264c0 54 -26 76 -56 76c-29 0 -56 -22 -56 -76v-126h-82v122c0 122 62 157 136 157c79 0 140 -39 140 -160v-619zM223 148v103c0 61 -30 88 -63 88
c-26 0 -49 -16 -49 -81v-112c0 -71 28 -83 53 -83c34 0 59 24 59 85z" />
    <glyph glyph-name="E.uni" horiz-adv-x="352" 
d="M321 256v-109c0 -121 -59 -160 -143 -160c-83 0 -143 39 -143 160v472c0 121 61 160 143 160c81 0 143 -38 143 -160v-250h-204v-229c0 -55 26 -76 61 -76c34 0 61 21 61 76v116h82zM239 447v179c0 54 -26 76 -62 76c-42 0 -60 -29 -60 -97v-158h122z" />
    <glyph glyph-name="M.uni" horiz-adv-x="548" 
d="M510 0h-82v619c0 66 -24 84 -52 84c-35 0 -60 -26 -60 -80v-623h-82v619c0 65 -24 84 -54 84c-34 0 -58 -25 -58 -86v-617h-83v766h72l5 -50c17 35 48 63 98 63c37 0 76 -15 93 -68c19 40 54 68 103 68c48 0 100 -28 100 -133v-646z" />
    <glyph glyph-name="N.uni" horiz-adv-x="354" 
d="M316 0h-82v619c0 66 -24 84 -54 84c-33 0 -58 -25 -58 -86v-617h-83v766h72l5 -50c17 35 48 63 97 63c51 0 103 -28 103 -133v-646z" />
    <glyph glyph-name="U.uni" horiz-adv-x="354" 
d="M314 0h-71l-6 50c-17 -36 -47 -63 -97 -63c-51 0 -102 28 -102 133v646h82v-620c0 -64 23 -83 53 -83c34 0 59 23 59 85v618h82v-766z" />
    <glyph glyph-name="Agrave.uni" horiz-adv-x="344" 
d="M305 0h-71l-6 50c-18 -37 -48 -63 -97 -63c-56 0 -102 34 -102 133v155c0 108 41 140 97 140c45 0 78 -22 97 -53v264c0 54 -26 76 -56 76c-29 0 -56 -22 -56 -76v-126h-82v122c0 122 62 157 136 157c79 0 140 -39 140 -160v-619zM223 148v103c0 61 -30 88 -63 88
c-26 0 -49 -16 -49 -81v-112c0 -71 28 -83 53 -83c34 0 59 24 59 85zM211 838h-63l-79 116h91z" />
    <glyph glyph-name="Aacute.uni" horiz-adv-x="344" 
d="M305 0h-71l-6 50c-18 -37 -48 -63 -97 -63c-56 0 -102 34 -102 133v155c0 108 41 140 97 140c45 0 78 -22 97 -53v264c0 54 -26 76 -56 76c-29 0 -56 -22 -56 -76v-126h-82v122c0 122 62 157 136 157c79 0 140 -39 140 -160v-619zM223 148v103c0 61 -30 88 -63 88
c-26 0 -49 -16 -49 -81v-112c0 -71 28 -83 53 -83c34 0 59 24 59 85zM195 838h-63l50 116h91z" />
    <glyph glyph-name="Acircumflex.uni" horiz-adv-x="344" 
d="M305 0h-71l-6 50c-18 -37 -48 -63 -97 -63c-56 0 -102 34 -102 133v155c0 108 41 140 97 140c45 0 78 -22 97 -53v264c0 54 -26 76 -56 76c-29 0 -56 -22 -56 -76v-126h-82v122c0 122 62 157 136 157c79 0 140 -39 140 -160v-619zM223 148v103c0 61 -30 88 -63 88
c-26 0 -49 -16 -49 -81v-112c0 -71 28 -83 53 -83c34 0 59 24 59 85zM278 838h-66l-42 70l-38 -70h-68l66 121h80z" />
    <glyph glyph-name="Adieresis.uni" horiz-adv-x="344" 
d="M305 0h-71l-6 50c-18 -37 -48 -63 -97 -63c-56 0 -102 34 -102 133v155c0 108 41 140 97 140c45 0 78 -22 97 -53v264c0 54 -26 76 -56 76c-29 0 -56 -22 -56 -76v-126h-82v122c0 122 62 157 136 157c79 0 140 -39 140 -160v-619zM223 148v103c0 61 -30 88 -63 88
c-26 0 -49 -16 -49 -81v-112c0 -71 28 -83 53 -83c34 0 59 24 59 85zM95 828c-28 0 -51 23 -51 52c0 28 23 51 51 51c29 0 51 -23 51 -51c0 -29 -22 -52 -51 -52zM246 828c-28 0 -51 23 -51 52c0 28 23 51 51 51c29 0 51 -23 51 -51c0 -29 -22 -52 -51 -52z" />
    <glyph glyph-name="Atilde.uni" horiz-adv-x="344" 
d="M305 0h-71l-6 50c-18 -37 -48 -63 -97 -63c-56 0 -102 34 -102 133v155c0 108 41 140 97 140c45 0 78 -22 97 -53v264c0 54 -26 76 -56 76c-29 0 -56 -22 -56 -76v-126h-82v122c0 122 62 157 136 157c79 0 140 -39 140 -160v-619zM223 148v103c0 61 -30 88 -63 88
c-26 0 -49 -16 -49 -81v-112c0 -71 28 -83 53 -83c34 0 59 24 59 85zM219 917h62c-4 -46 -28 -79 -68 -79c-29 0 -47 18 -71 18c-12 0 -20 -4 -22 -18h-60c1 32 18 79 66 79c29 0 52 -17 72 -17c13 0 20 7 21 17z" />
    <glyph glyph-name="Amacron.uni" horiz-adv-x="344" 
d="M305 0h-71l-6 50c-18 -37 -48 -63 -97 -63c-56 0 -102 34 -102 133v155c0 108 41 140 97 140c45 0 78 -22 97 -53v264c0 54 -26 76 -56 76c-29 0 -56 -22 -56 -76v-126h-82v122c0 122 62 157 136 157c79 0 140 -39 140 -160v-619zM223 148v103c0 61 -30 88 -63 88
c-26 0 -49 -16 -49 -81v-112c0 -71 28 -83 53 -83c34 0 59 24 59 85zM287 838h-232v66h232v-66z" />
    <glyph glyph-name="Abreve.uni" horiz-adv-x="344" 
d="M305 0h-71l-6 50c-18 -37 -48 -63 -97 -63c-56 0 -102 34 -102 133v155c0 108 41 140 97 140c45 0 78 -22 97 -53v264c0 54 -26 76 -56 76c-29 0 -56 -22 -56 -76v-126h-82v122c0 122 62 157 136 157c79 0 140 -39 140 -160v-619zM223 148v103c0 61 -30 88 -63 88
c-26 0 -49 -16 -49 -81v-112c0 -71 28 -83 53 -83c34 0 59 24 59 85zM228 936h47c-1 -68 -41 -106 -104 -106s-105 38 -105 106h48c0 -29 17 -50 57 -50c39 0 56 21 57 50z" />
    <glyph glyph-name="Aring.uni" horiz-adv-x="344" 
d="M204 892c0 19 -15 33 -34 33s-33 -14 -33 -33s14 -34 33 -34s34 15 34 34zM170 816c-42 0 -75 33 -75 76c0 42 33 75 75 75c43 0 76 -33 76 -75c0 -43 -33 -76 -76 -76zM305 0h-71l-6 50c-18 -37 -48 -63 -97 -63c-56 0 -102 34 -102 133v155c0 108 41 140 97 140
c45 0 78 -22 97 -53v264c0 54 -26 76 -56 76c-29 0 -56 -22 -56 -76v-126h-82v122c0 122 62 157 136 157c79 0 140 -39 140 -160v-619zM223 148v103c0 61 -30 88 -63 88c-26 0 -49 -16 -49 -81v-112c0 -71 28 -83 53 -83c34 0 59 24 59 85z" />
    <glyph glyph-name="Aogonek.uni" horiz-adv-x="344" 
d="M315 -149l-28 -41c-68 5 -108 50 -108 99c0 31 16 63 55 86l-6 55c-18 -37 -48 -63 -97 -63c-56 0 -102 34 -102 133v155c0 108 41 140 97 140c45 0 78 -22 97 -53v264c0 54 -26 76 -56 76c-29 0 -56 -22 -56 -76v-126h-82v122c0 122 62 157 136 157
c79 0 140 -39 140 -160v-619c-33 -23 -57 -53 -57 -84c0 -34 27 -55 67 -65zM223 148v103c0 61 -30 88 -63 88c-26 0 -49 -16 -49 -81v-112c0 -71 28 -83 53 -83c34 0 59 24 59 85z" />
    <glyph glyph-name="AE.uni" horiz-adv-x="541" 
d="M509 256v-109c0 -121 -58 -160 -142 -160c-61 0 -108 20 -130 76c-25 -51 -58 -76 -105 -76c-57 0 -103 32 -103 136v152c0 108 41 140 97 140c45 0 78 -22 97 -53v264c0 54 -26 76 -56 76c-38 0 -56 -29 -56 -101v-101h-82v122c0 122 62 157 136 157c39 0 74 -10 99 -45
c26 35 62 45 103 45c81 0 142 -38 142 -160v-250h-204v-229c0 -55 27 -76 61 -76c43 0 61 28 61 98v94h82zM427 447v179c0 54 -26 76 -61 76c-34 0 -61 -21 -61 -72v-183h122zM223 146v105c0 61 -30 88 -63 88c-26 0 -49 -16 -49 -81v-94c0 -81 20 -101 53 -101
c32 0 59 22 59 83z" />
    <glyph glyph-name="AEacute.uni" horiz-adv-x="541" 
d="M297 838h-63l50 116h91zM509 256v-109c0 -121 -58 -160 -142 -160c-61 0 -108 20 -130 76c-25 -51 -58 -76 -105 -76c-57 0 -103 32 -103 136v152c0 108 41 140 97 140c45 0 78 -22 97 -53v264c0 54 -26 76 -56 76c-38 0 -56 -29 -56 -101v-101h-82v122
c0 122 62 157 136 157c39 0 74 -10 99 -45c26 35 62 45 103 45c81 0 142 -38 142 -160v-250h-204v-229c0 -55 27 -76 61 -76c43 0 61 28 61 98v94h82zM427 447v179c0 54 -26 76 -61 76c-34 0 -61 -21 -61 -72v-183h122zM223 146v105c0 61 -30 88 -63 88
c-26 0 -49 -16 -49 -81v-94c0 -81 20 -101 53 -101c32 0 59 22 59 83z" />
    <glyph glyph-name="Egrave.uni" horiz-adv-x="352" 
d="M321 256v-109c0 -121 -59 -160 -143 -160c-83 0 -143 39 -143 160v472c0 121 61 160 143 160c81 0 143 -38 143 -160v-250h-204v-229c0 -55 26 -76 61 -76c34 0 61 21 61 76v116h82zM239 447v179c0 54 -26 76 -62 76c-42 0 -60 -29 -60 -97v-158h122zM218 838h-63
l-79 116h91z" />
    <glyph glyph-name="Eacute.uni" horiz-adv-x="352" 
d="M321 256v-109c0 -121 -59 -160 -143 -160c-83 0 -143 39 -143 160v472c0 121 61 160 143 160c81 0 143 -38 143 -160v-250h-204v-229c0 -55 26 -76 61 -76c34 0 61 21 61 76v116h82zM239 447v179c0 54 -26 76 -62 76c-42 0 -60 -29 -60 -97v-158h122zM199 838h-63l50 116
h91z" />
    <glyph glyph-name="Ecircumflex.uni" horiz-adv-x="352" 
d="M321 256v-109c0 -121 -59 -160 -143 -160c-83 0 -143 39 -143 160v472c0 121 61 160 143 160c81 0 143 -38 143 -160v-250h-204v-229c0 -55 26 -76 61 -76c34 0 61 21 61 76v116h82zM239 447v179c0 54 -26 76 -62 76c-42 0 -60 -29 -60 -97v-158h122zM286 838h-66l-42 70
l-38 -70h-68l66 121h80z" />
    <glyph glyph-name="Edieresis.uni" horiz-adv-x="352" 
d="M321 256v-109c0 -121 -59 -160 -143 -160c-83 0 -143 39 -143 160v472c0 121 61 160 143 160c81 0 143 -38 143 -160v-250h-204v-229c0 -55 26 -76 61 -76c34 0 61 21 61 76v116h82zM239 447v179c0 54 -26 76 -62 76c-42 0 -60 -29 -60 -97v-158h122zM103 828
c-28 0 -51 23 -51 52c0 28 23 51 51 51c29 0 51 -23 51 -51c0 -29 -22 -52 -51 -52zM254 828c-28 0 -51 23 -51 52c0 28 23 51 51 51c29 0 51 -23 51 -51c0 -29 -22 -52 -51 -52z" />
    <glyph glyph-name="Emacron.uni" horiz-adv-x="352" 
d="M321 256v-109c0 -121 -59 -160 -143 -160c-83 0 -143 39 -143 160v472c0 121 61 160 143 160c81 0 143 -38 143 -160v-250h-204v-229c0 -55 26 -76 61 -76c34 0 61 21 61 76v116h82zM239 447v179c0 54 -26 76 -62 76c-42 0 -60 -29 -60 -97v-158h122zM295 838h-232v66
h232v-66z" />
    <glyph glyph-name="Ebreve.uni" horiz-adv-x="352" 
d="M321 256v-109c0 -121 -59 -160 -143 -160c-83 0 -143 39 -143 160v472c0 121 61 160 143 160c81 0 143 -38 143 -160v-250h-204v-229c0 -55 26 -76 61 -76c34 0 61 21 61 76v116h82zM239 447v179c0 54 -26 76 -62 76c-42 0 -60 -29 -60 -97v-158h122zM236 936h47
c-1 -68 -41 -106 -104 -106s-105 38 -105 106h48c0 -29 17 -50 57 -50c39 0 56 21 57 50z" />
    <glyph glyph-name="Edotaccent.uni" horiz-adv-x="352" 
d="M321 256v-109c0 -121 -59 -160 -143 -160c-83 0 -143 39 -143 160v472c0 121 61 160 143 160c81 0 143 -38 143 -160v-250h-204v-229c0 -55 26 -76 61 -76c34 0 61 21 61 76v116h82zM239 447v179c0 54 -26 76 -62 76c-42 0 -60 -29 -60 -97v-158h122zM179 831
c-28 0 -51 22 -51 51s23 51 51 51c29 0 51 -22 51 -51s-22 -51 -51 -51z" />
    <glyph glyph-name="Eogonek.uni" horiz-adv-x="352" 
d="M271 -142l-28 -42c-69 6 -108 50 -108 99c0 25 10 51 35 72c-80 3 -135 42 -135 160v472c0 121 61 160 143 160c81 0 143 -38 143 -160v-250h-204v-229c0 -55 26 -76 61 -76c34 0 61 21 61 76v116h82v-109c0 -93 -37 -124 -63 -143c-27 -19 -54 -43 -54 -80
c0 -38 28 -57 67 -66zM239 447v179c0 54 -27 76 -61 76c-35 0 -61 -22 -61 -76v-179h122z" />
    <glyph glyph-name="Ecaron.uni" horiz-adv-x="352" 
d="M321 256v-109c0 -121 -59 -160 -143 -160c-83 0 -143 39 -143 160v472c0 121 61 160 143 160c81 0 143 -38 143 -160v-250h-204v-229c0 -55 26 -76 61 -76c34 0 61 21 61 76v116h82zM239 447v179c0 54 -26 76 -62 76c-42 0 -60 -29 -60 -97v-158h122zM220 838h-80
l-68 121h67l40 -69l40 69h67z" />
    <glyph glyph-name="uni1E40.uni" horiz-adv-x="548" 
d="M510 0h-82v619c0 66 -24 84 -52 84c-35 0 -60 -26 -60 -80v-623h-82v619c0 65 -24 84 -54 84c-34 0 -58 -25 -58 -86v-617h-83v766h72l5 -50c17 35 48 63 98 63c37 0 76 -15 93 -68c19 40 54 68 103 68c48 0 100 -28 100 -133v-646zM275 831c-28 0 -51 22 -51 51
s23 51 51 51c29 0 51 -22 51 -51s-22 -51 -51 -51z" />
    <glyph glyph-name="Ntilde.uni" horiz-adv-x="354" 
d="M316 0h-82v619c0 66 -24 84 -54 84c-33 0 -58 -25 -58 -86v-617h-83v766h72l5 -50c17 35 48 63 97 63c51 0 103 -28 103 -133v-646zM227 917h62c-4 -46 -28 -79 -68 -79c-29 0 -47 18 -71 18c-12 0 -20 -4 -22 -18h-60c1 32 18 79 66 79c29 0 52 -17 72 -17
c13 0 20 7 21 17z" />
    <glyph glyph-name="Nacute.uni" horiz-adv-x="354" 
d="M316 0h-82v619c0 66 -24 84 -54 84c-33 0 -58 -25 -58 -86v-617h-83v766h72l5 -50c17 35 48 63 97 63c51 0 103 -28 103 -133v-646zM195 838h-63l50 116h91z" />
    <glyph glyph-name="Ncaron.uni" horiz-adv-x="354" 
d="M316 0h-82v619c0 66 -24 84 -54 84c-33 0 -58 -25 -58 -86v-617h-83v766h72l5 -50c17 35 48 63 97 63c51 0 103 -28 103 -133v-646zM219 838h-80l-68 121h67l40 -69l40 69h67z" />
    <glyph glyph-name="Ncommaaccent.uni" horiz-adv-x="354" 
d="M316 0h-82v619c0 66 -24 84 -54 84c-33 0 -58 -25 -58 -86v-617h-83v766h72l5 -50c17 35 48 63 97 63c51 0 103 -28 103 -133v-646zM168 -181h-61l45 131h86z" />
    <glyph glyph-name="Eng.uni" horiz-adv-x="354" 
d="M178 -192h-4v77h4c28 0 56 20 56 76v658c0 66 -24 84 -53 84c-34 0 -59 -25 -59 -86v-617h-83v766h72l5 -50c17 35 48 63 98 63s102 -28 102 -133v-684c0 -125 -73 -154 -138 -154z" />
    <glyph glyph-name="OE.uni" horiz-adv-x="546" 
d="M515 256v-109c0 -121 -59 -160 -142 -160c-42 0 -78 10 -103 44c-25 -35 -59 -44 -97 -44c-77 0 -138 39 -138 160v472c0 121 60 160 140 160c40 0 73 -10 97 -44c25 34 60 44 101 44c80 0 142 -38 142 -160v-250h-204v-233c0 -52 27 -72 62 -72c42 0 60 29 60 98v94h82z
M229 136v494c0 51 -28 72 -56 72c-30 0 -56 -22 -56 -76v-486c0 -55 26 -76 56 -76c28 0 56 20 56 72zM433 447v179c0 54 -27 76 -61 76s-61 -21 -61 -72v-183h122z" />
    <glyph glyph-name="Ugrave.uni" horiz-adv-x="354" 
d="M314 0h-71l-6 50c-17 -36 -47 -63 -97 -63c-51 0 -102 28 -102 133v646h82v-620c0 -64 23 -83 53 -83c34 0 59 23 59 85v618h82v-766zM215 838h-63l-79 116h91z" />
    <glyph glyph-name="Uacute.uni" horiz-adv-x="354" 
d="M314 0h-71l-6 50c-17 -36 -47 -63 -97 -63c-51 0 -102 28 -102 133v646h82v-620c0 -64 23 -83 53 -83c34 0 59 23 59 85v618h82v-766zM201 838h-63l50 116h91z" />
    <glyph glyph-name="Ucircumflex.uni" horiz-adv-x="354" 
d="M314 0h-71l-6 50c-17 -36 -47 -63 -97 -63c-51 0 -102 28 -102 133v646h82v-620c0 -64 23 -83 53 -83c34 0 59 23 59 85v618h82v-766zM278 838h-66l-42 70l-38 -70h-68l66 121h80z" />
    <glyph glyph-name="Udieresis.uni" horiz-adv-x="354" 
d="M314 0h-71l-6 50c-17 -36 -47 -63 -97 -63c-51 0 -102 28 -102 133v646h82v-620c0 -64 23 -83 53 -83c34 0 59 23 59 85v618h82v-766zM100 828c-28 0 -51 23 -51 52c0 28 23 51 51 51c29 0 51 -23 51 -51c0 -29 -22 -52 -51 -52zM251 828c-28 0 -51 23 -51 52
c0 28 23 51 51 51c29 0 51 -23 51 -51c0 -29 -22 -52 -51 -52z" />
    <glyph glyph-name="Utilde.uni" horiz-adv-x="354" 
d="M314 0h-71l-6 50c-17 -36 -47 -63 -97 -63c-51 0 -102 28 -102 133v646h82v-620c0 -64 23 -83 53 -83c34 0 59 23 59 85v618h82v-766zM224 917h62c-4 -46 -28 -79 -68 -79c-29 0 -47 18 -71 18c-12 0 -20 -4 -22 -18h-60c1 32 18 79 66 79c29 0 52 -17 72 -17
c13 0 20 7 21 17z" />
    <glyph glyph-name="Umacron.uni" horiz-adv-x="354" 
d="M314 0h-71l-6 50c-17 -36 -47 -63 -97 -63c-51 0 -102 28 -102 133v646h82v-620c0 -64 23 -83 53 -83c34 0 59 23 59 85v618h82v-766zM292 838h-232v66h232v-66z" />
    <glyph glyph-name="Ubreve.uni" horiz-adv-x="354" 
d="M314 0h-71l-6 50c-17 -36 -47 -63 -97 -63c-51 0 -102 28 -102 133v646h82v-620c0 -64 23 -83 53 -83c34 0 59 23 59 85v618h82v-766zM233 936h47c-1 -68 -41 -106 -104 -106s-105 38 -105 106h48c0 -29 17 -50 57 -50c39 0 56 21 57 50z" />
    <glyph glyph-name="Uring.uni" horiz-adv-x="354" 
d="M209 892c0 19 -15 33 -34 33s-33 -14 -33 -33s14 -34 33 -34s34 15 34 34zM175 816c-42 0 -75 33 -75 76c0 42 33 75 75 75c43 0 76 -33 76 -75c0 -43 -33 -76 -76 -76zM314 0h-71l-6 50c-17 -36 -47 -63 -97 -63c-51 0 -102 28 -102 133v646h82v-620
c0 -64 23 -83 53 -83c34 0 59 23 59 85v618h82v-766z" />
    <glyph glyph-name="Uhungarumlaut.uni" horiz-adv-x="354" 
d="M314 0h-71l-6 50c-17 -36 -47 -63 -97 -63c-51 0 -102 28 -102 133v646h82v-620c0 -64 23 -83 53 -83c34 0 59 23 59 85v618h82v-766zM139 838h-68l44 118h86zM258 838h-68l44 118h86z" />
    <glyph glyph-name="Uogonek.uni" horiz-adv-x="354" 
d="M324 -149l-28 -41c-68 5 -108 50 -108 99c0 31 16 63 55 86l-5 55c-18 -35 -52 -63 -103 -63c-56 0 -97 32 -97 140v639h82v-622c0 -65 23 -81 49 -81c33 0 63 27 63 88v615h82v-766c-33 -23 -57 -53 -57 -84c0 -34 27 -55 67 -65z" />
    <glyph glyph-name="a.sc" horiz-adv-x="292" 
d="M287 0h-81l-15 132h-88l-16 -132h-81l80 597h120zM181 209l-35 297l-35 -297h70z" />
    <glyph glyph-name="b.sc" horiz-adv-x="310" 
d="M179 0h-145v597h137c69 0 108 -38 108 -124v-77c0 -40 -15 -73 -56 -90c48 -18 64 -51 64 -96v-85c0 -86 -38 -125 -108 -125zM198 403v58c0 43 -14 59 -43 59h-40v-177h40c29 0 43 16 43 60zM206 136v72c0 43 -22 59 -51 59h-40v-191h48c29 0 43 16 43 60z" />
    <glyph glyph-name="c.sc" horiz-adv-x="304" 
d="M112 457v-331c0 -42 20 -59 44 -59c27 0 44 20 44 70v63h81v-85c0 -99 -62 -125 -121 -125c-61 0 -129 27 -129 125v368c0 97 68 125 129 125c59 0 121 -26 121 -124v-95h-81v82c0 42 -20 60 -44 60c-28 0 -44 -22 -44 -74z" />
    <glyph glyph-name="d.sc" horiz-adv-x="310" 
d="M171 0h-137v597h137c70 0 108 -35 108 -124v-348c0 -89 -38 -125 -108 -125zM198 136v325c0 43 -14 59 -43 59h-40v-444h40c29 0 43 16 43 60z" />
    <glyph glyph-name="e.sc" horiz-adv-x="274" 
d="M250 0h-216v597h216v-77h-135v-180h130v-77h-130v-187h135v-76z" />
    <glyph glyph-name="f.sc" horiz-adv-x="270" 
d="M115 0h-81v597h216v-77h-135v-180h130v-77h-130v-263z" />
    <glyph glyph-name="g.sc" horiz-adv-x="312" 
d="M204 126v103h-52v77h133v-195c0 -90 -57 -121 -126 -121c-73 0 -131 35 -131 123v370c0 87 54 125 131 125c73 0 126 -35 126 -122v-96h-81v81c0 44 -21 60 -47 60s-48 -16 -48 -60v-345c0 -44 22 -59 48 -59s47 15 47 59z" />
    <glyph glyph-name="h.sc" horiz-adv-x="317" 
d="M283 0h-81v263h-87v-263h-81v597h81v-258h87v258h81v-597z" />
    <glyph glyph-name="i.sc" horiz-adv-x="149" 
d="M115 0h-81v597h81v-597z" />
    <glyph glyph-name="j.sc" horiz-adv-x="149" 
d="M-10 -150h-3v77h3c22 0 43 16 43 60v610h81v-625c0 -89 -56 -122 -124 -122z" />
    <glyph glyph-name="k.sc" horiz-adv-x="302" 
d="M307 0h-81l-110 299l95 298h81l-91 -296zM115 0h-81v597h81v-597z" />
    <glyph glyph-name="l.sc" horiz-adv-x="219" 
d="M211 0h-177v597h81v-521h96v-76z" />
    <glyph glyph-name="m.sc" horiz-adv-x="463" 
d="M429 0h-81l2 445l-81 -445h-74l-81 444l1 -444h-81v597h131l67 -415l66 415h131v-597z" />
    <glyph glyph-name="n.sc" horiz-adv-x="359" 
d="M325 0h-106l-106 397l2 -397h-81v597h103l109 -404l-2 404h81v-597z" />
    <glyph glyph-name="o.sc" horiz-adv-x="311" 
d="M281 483v-368c0 -99 -62 -125 -121 -125c-61 0 -129 27 -129 125v368c0 97 68 125 130 125c61 0 120 -28 120 -125zM112 471v-345c0 -42 20 -59 44 -59s44 17 44 59v345c0 42 -20 60 -44 60s-44 -18 -44 -60z" />
    <glyph glyph-name="p.sc" horiz-adv-x="297" 
d="M34 597h134c70 0 111 -36 111 -125v-102c0 -89 -36 -125 -106 -125h-58v-245h-81v597zM198 381v66c0 53 -10 73 -43 73h-40v-198h40c29 0 43 15 43 59z" />
    <glyph glyph-name="q.sc" horiz-adv-x="309" 
d="M258 -83l-65 -28l-45 101c-58 2 -120 31 -120 125v368c0 87 54 125 126 125c76 0 124 -36 124 -125v-368c0 -54 -17 -87 -62 -109zM197 126v345c0 44 -22 60 -44 60s-44 -16 -44 -60v-345c0 -44 22 -59 44 -59s44 15 44 59z" />
    <glyph glyph-name="r.sc" horiz-adv-x="304" 
d="M115 0h-81v597h107c18 0 36 -1 52 -3c50 -7 86 -38 86 -121v-97c0 -60 -14 -95 -57 -114l73 -262h-81l-69 245h-30v-245zM115 520v-197h40c33 0 43 19 43 72v77c0 33 -17 48 -43 48h-40z" />
    <glyph glyph-name="s.sc" horiz-adv-x="299" 
d="M274 191v-77c0 -86 -52 -124 -124 -124c-73 0 -125 39 -125 124v86h81v-74c0 -43 22 -59 44 -59c21 0 43 15 43 58v49c0 66 -168 120 -168 234v74c0 88 55 126 129 126c73 0 120 -37 120 -126v-93h-81v82c0 44 -21 60 -43 60s-44 -16 -44 -59v-49
c0 -90 168 -121 168 -232z" />
    <glyph glyph-name="t.sc" horiz-adv-x="245" 
d="M163 0h-81v520h-74v77h229v-77h-74v-520z" />
    <glyph glyph-name="u.sc" horiz-adv-x="316" 
d="M201 126v471h81v-482c0 -90 -58 -125 -124 -125c-68 0 -125 37 -125 125v482h81v-471c0 -44 21 -59 43 -59s44 15 44 59z" />
    <glyph glyph-name="v.sc" horiz-adv-x="283" 
d="M274 597l-73 -597h-120l-73 597h81l53 -496l51 496h81z" />
    <glyph glyph-name="w.sc" horiz-adv-x="488" 
d="M477 597l-65 -597h-117l-53 483l-52 -483h-115l-66 597h81l44 -460l52 460h114l52 -460l44 460h81z" />
    <glyph glyph-name="x.sc" horiz-adv-x="302" 
d="M300 0h-81l-66 225l-73 -225h-81l107 307l-102 290h81l68 -205l63 205h82l-93 -290z" />
    <glyph glyph-name="y.sc" horiz-adv-x="289" 
d="M185 0h-81v207l-100 390h82l58 -270l60 270h82l-101 -390v-207z" />
    <glyph glyph-name="z.sc" horiz-adv-x="249" 
d="M232 0h-217v76l125 444h-118v77h210v-43l-133 -478h133v-76z" />
    <glyph glyph-name="ff.sc" horiz-adv-x="540" 
d="M115 0h-81v597h216v-77h-135v-180h130v-77h-130v-263zM385 0h-81v597h216v-77h-135v-180h130v-77h-130v-263z" />
    <glyph glyph-name="fi.sc" horiz-adv-x="419" 
d="M115 0h-81v597h216v-77h-135v-180h130v-77h-130v-263zM385 0h-81v597h81v-597z" />
    <glyph glyph-name="f_j.sc" horiz-adv-x="419" 
d="M115 0h-81v597h216v-77h-135v-180h130v-77h-130v-263zM260 -150h-3v77h3c22 0 43 16 43 60v610h81v-625c0 -89 -56 -122 -124 -122z" />
    <glyph glyph-name="fl.sc" horiz-adv-x="489" 
d="M115 0h-81v597h216v-77h-135v-180h130v-77h-130v-263zM481 0h-177v597h81v-521h96v-76z" />
    <glyph glyph-name="f_t.sc" horiz-adv-x="515" 
d="M115 0h-81v597h216v-77h-135v-180h130v-77h-130v-263zM433 0h-81v520h-74v77h229v-77h-74v-520z" />
    <glyph glyph-name="ffi.sc" horiz-adv-x="689" 
d="M115 0h-81v597h216v-77h-135v-180h130v-77h-130v-263zM385 0h-81v597h216v-77h-135v-180h130v-77h-130v-263zM655 0h-81v597h81v-597z" />
    <glyph glyph-name="ffl.sc" horiz-adv-x="759" 
d="M115 0h-81v597h216v-77h-135v-180h130v-77h-130v-263zM385 0h-81v597h216v-77h-135v-180h130v-77h-130v-263zM751 0h-177v597h81v-521h96v-76z" />
    <glyph glyph-name="germandbls.sc" horiz-adv-x="598" 
d="M274 191v-77c0 -86 -52 -124 -124 -124c-73 0 -125 39 -125 124v86h81v-74c0 -43 22 -59 44 -59c21 0 43 15 43 58v49c0 66 -168 120 -168 234v74c0 88 55 126 129 126c73 0 120 -37 120 -126v-93h-81v82c0 44 -21 60 -43 60s-44 -16 -44 -59v-49
c0 -90 168 -121 168 -232zM573 191v-77c0 -86 -52 -124 -124 -124c-73 0 -125 39 -125 124v86h81v-74c0 -43 22 -59 44 -59c21 0 43 15 43 58v49c0 66 -168 120 -168 234v74c0 88 55 126 129 126c73 0 120 -37 120 -126v-93h-81v82c0 44 -21 60 -43 60s-44 -16 -44 -59v-49
c0 -90 168 -121 168 -232z" />
    <glyph glyph-name="agrave.sc" horiz-adv-x="292" 
d="M180 651h-57l-76 103h88zM287 0h-81l-15 132h-88l-16 -132h-81l80 597h120zM181 209l-35 297l-35 -297h70z" />
    <glyph glyph-name="aacute.sc" horiz-adv-x="292" 
d="M164 651h-58l45 103h88zM287 0h-81l-15 132h-88l-16 -132h-81l80 597h120zM181 209l-35 297l-35 -297h70z" />
    <glyph glyph-name="acircumflex.sc" horiz-adv-x="292" 
d="M242 651h-62l-35 61l-31 -61h-64l59 112h71zM287 0h-81l-15 132h-88l-16 -132h-81l80 597h120zM181 209l-35 297l-35 -297h70z" />
    <glyph glyph-name="atilde.sc" horiz-adv-x="292" 
d="M192 727h51c-2 -42 -19 -75 -56 -75c-25 0 -43 15 -66 15c-8 0 -19 -1 -20 -16h-52c2 43 19 75 57 75c25 0 42 -15 65 -15c7 0 20 0 21 16zM287 0h-81l-15 132h-88l-16 -132h-81l80 597h120zM181 209l-35 297l-35 -297h70z" />
    <glyph glyph-name="adieresis.sc" horiz-adv-x="292" 
d="M79 643c-25 0 -48 21 -48 48c0 26 23 47 48 47s47 -21 47 -47c0 -27 -22 -48 -47 -48zM212 643c-25 0 -46 21 -46 48c0 26 21 47 46 47c27 0 48 -21 48 -47c0 -27 -21 -48 -48 -48zM287 0h-81l-15 132h-88l-16 -132h-81l80 597h120zM181 209l-35 297l-35 -297h70z" />
    <glyph glyph-name="aring.sc" horiz-adv-x="292" 
d="M170 704c0 14 -10 24 -24 24s-24 -10 -24 -24s10 -24 24 -24s24 10 24 24zM146 635c-39 0 -69 30 -69 69c0 38 30 68 69 68c38 0 68 -30 68 -68c0 -39 -30 -69 -68 -69zM287 0h-81l-15 132h-88l-16 -132h-81l80 597h120zM181 209l-35 297l-35 -297h70z" />
    <glyph glyph-name="amacron.sc" horiz-adv-x="292" 
d="M250 651h-207v65h207v-65zM287 0h-81l-15 132h-88l-16 -132h-81l80 597h120zM181 209l-35 297l-35 -297h70z" />
    <glyph glyph-name="abreve.sc" horiz-adv-x="292" 
d="M194 741h45c-2 -61 -31 -98 -93 -98s-91 37 -92 98h44c2 -21 11 -41 48 -41s46 20 48 41zM287 0h-81l-15 132h-88l-16 -132h-81l80 597h120zM181 209l-35 297l-35 -297h70z" />
    <glyph glyph-name="aogonek.sc" horiz-adv-x="291" 
d="M297 -123l-28 -41c-61 3 -100 43 -100 87c0 24 11 49 37 68l-18 141h-86l-16 -132h-81l80 597h120l81 -597c-31 -20 -46 -45 -46 -67c0 -24 18 -47 57 -56zM180 209l-35 297l-35 -297h70z" />
    <glyph glyph-name="ae.sc" horiz-adv-x="440" 
d="M416 0h-216v132h-88l-34 -132h-80l155 597h263v-77h-135v-180h130v-77h-130v-187h135v-76zM200 213v276l-69 -276h69z" />
    <glyph glyph-name="aeacute.sc" horiz-adv-x="440" 
d="M295 651h-58l44 103h88zM416 0h-216v132h-88l-34 -132h-80l155 597h263v-77h-135v-180h130v-77h-130v-187h135v-76zM200 213v276l-69 -276h69z" />
    <glyph glyph-name="uni1E03.sc" horiz-adv-x="310" 
d="M150 648c-25 0 -47 20 -47 47c0 26 22 46 47 46c26 0 47 -20 47 -46c0 -27 -21 -47 -47 -47zM179 0h-145v597h137c69 0 108 -38 108 -124v-77c0 -40 -15 -73 -56 -90c48 -18 64 -51 64 -96v-85c0 -86 -38 -125 -108 -125zM198 403v58c0 43 -14 59 -43 59h-40v-177h40
c29 0 43 16 43 60zM206 136v72c0 43 -22 59 -51 59h-40v-191h48c29 0 43 16 43 60z" />
    <glyph glyph-name="ccedilla.sc" horiz-adv-x="301" 
d="M93 -138l11 44c5 -3 16 -7 27 -7c19 0 31 12 31 25c0 12 -9 24 -33 24c-2 0 -5 0 -8 -1l11 44c-58 8 -104 45 -104 124v368c0 87 57 125 128 125c63 0 121 -31 121 -120v-99h-81v82c0 44 -21 60 -43 60s-44 -16 -44 -60v-345c0 -44 22 -59 44 -59s43 15 43 59v74h81v-85
c0 -73 -38 -111 -88 -121l-8 -30c34 0 52 -26 52 -51c0 -30 -24 -62 -80 -62c-25 0 -48 5 -60 11z" />
    <glyph glyph-name="ccircumflex.sc" horiz-adv-x="304" 
d="M252 651h-61l-35 61l-31 -61h-65l59 112h71zM112 457v-331c0 -42 20 -59 44 -59c27 0 44 20 44 70v63h81v-85c0 -99 -61 -125 -125 -125c-56 0 -125 27 -125 125v368c0 97 69 125 126 125c63 0 124 -26 124 -124v-95h-81v82c0 42 -20 60 -44 60c-28 0 -44 -22 -44 -74z
" />
    <glyph glyph-name="cacute.sc" horiz-adv-x="304" 
d="M170 651h-58l45 103h88zM112 457v-331c0 -42 20 -59 44 -59c27 0 44 20 44 70v63h81v-85c0 -99 -61 -125 -125 -125c-56 0 -125 27 -125 125v368c0 97 69 125 126 125c63 0 124 -26 124 -124v-95h-81v82c0 42 -20 60 -44 60c-28 0 -44 -22 -44 -74z" />
    <glyph glyph-name="cdotaccent.sc" horiz-adv-x="304" 
d="M156 648c-25 0 -47 20 -47 47c0 26 22 46 47 46c26 0 47 -20 47 -46c0 -27 -21 -47 -47 -47zM112 457v-331c0 -42 20 -59 44 -59c27 0 44 20 44 70v63h81v-85c0 -99 -62 -125 -121 -125c-61 0 -129 27 -129 125v368c0 97 68 125 129 125c59 0 121 -26 121 -124v-95h-81
v82c0 42 -20 60 -44 60c-28 0 -44 -22 -44 -74z" />
    <glyph glyph-name="ccaron.sc" horiz-adv-x="304" 
d="M192 651h-71l-62 112h62l35 -60l31 60h64zM112 457v-331c0 -42 20 -59 44 -59c27 0 44 20 44 70v63h81v-85c0 -99 -61 -125 -125 -125c-56 0 -125 27 -125 125v368c0 97 69 125 126 125c63 0 124 -26 124 -124v-95h-81v82c0 42 -20 60 -44 60c-28 0 -44 -22 -44 -74z" />
    <glyph glyph-name="dcaron.sc" horiz-adv-x="310" 
d="M185 651h-71l-62 112h62l35 -60l31 60h64zM171 0h-137v597h137c70 0 108 -35 108 -124v-348c0 -89 -38 -125 -108 -125zM198 136v325c0 43 -14 59 -43 59h-40v-444h40c29 0 43 16 43 60z" />
    <glyph glyph-name="dcroat.sc" horiz-adv-x="313" 
d="M174 0h-137v264h-34v75h34v258h137c70 0 108 -35 108 -124v-348c0 -89 -38 -125 -108 -125zM201 136v325c0 44 -14 59 -43 59h-40v-181h42v-75h-42v-187h40c29 0 43 16 43 59z" />
    <glyph glyph-name="uni1E0B.sc" horiz-adv-x="310" 
d="M150 648c-25 0 -48 20 -48 47c0 26 23 46 48 46s47 -20 47 -46c0 -27 -22 -47 -47 -47zM171 0h-137v597h137c70 0 108 -35 108 -124v-348c0 -89 -38 -125 -108 -125zM198 136v325c0 43 -14 59 -43 59h-40v-444h40c29 0 43 16 43 60z" />
    <glyph glyph-name="eth.sc" horiz-adv-x="313" 
d="M174 0h-137v264h-34v75h34v258h137c70 0 108 -35 108 -124v-348c0 -89 -38 -125 -108 -125zM201 136v325c0 44 -14 59 -43 59h-40v-181h42v-75h-42v-187h40c29 0 43 16 43 59z" />
    <glyph glyph-name="egrave.sc" horiz-adv-x="274" 
d="M190 651h-57l-75 103h88zM250 0h-216v597h216v-77h-135v-180h130v-77h-130v-187h135v-76z" />
    <glyph glyph-name="eacute.sc" horiz-adv-x="274" 
d="M157 651h-58l44 103h88zM250 0h-216v597h216v-77h-135v-180h130v-77h-130v-187h135v-76z" />
    <glyph glyph-name="ecircumflex.sc" horiz-adv-x="274" 
d="M236 651h-62l-35 61l-31 -61h-64l59 112h71zM250 0h-216v597h216v-77h-135v-180h130v-77h-130v-187h135v-76z" />
    <glyph glyph-name="edieresis.sc" horiz-adv-x="274" 
d="M74 643c-25 0 -47 21 -47 48c0 26 22 47 47 47c26 0 47 -21 47 -47c0 -27 -21 -48 -47 -48zM208 643c-25 0 -46 21 -46 48c0 26 21 47 46 47c27 0 47 -21 47 -47c0 -27 -20 -48 -47 -48zM250 0h-216v597h216v-77h-135v-180h130v-77h-130v-187h135v-76z" />
    <glyph glyph-name="emacron.sc" horiz-adv-x="274" 
d="M244 651h-207v65h207v-65zM250 0h-216v597h216v-77h-135v-180h130v-77h-130v-187h135v-76z" />
    <glyph glyph-name="ebreve.sc" horiz-adv-x="274" 
d="M192 741h44c-2 -61 -30 -98 -92 -98s-92 37 -92 98h44c1 -21 10 -41 48 -41c37 0 46 20 48 41zM250 0h-216v597h216v-77h-135v-180h130v-77h-130v-187h135v-76z" />
    <glyph glyph-name="edotaccent.sc" horiz-adv-x="274" 
d="M147 648c-25 0 -48 20 -48 47c0 26 23 46 48 46s47 -20 47 -46c0 -27 -22 -47 -47 -47zM250 0h-216v597h216v-77h-135v-180h130v-77h-130v-187h135v-76z" />
    <glyph glyph-name="eogonek.sc" horiz-adv-x="273" 
d="M236 -123l-28 -41c-60 3 -99 43 -99 87c0 28 15 57 50 77h-125v597h216v-77h-135v-180h130v-77h-130v-187h135v-76h-25c-31 -20 -45 -45 -45 -67c0 -24 17 -47 56 -56z" />
    <glyph glyph-name="ecaron.sc" horiz-adv-x="274" 
d="M181 651h-71l-62 112h62l35 -60l31 60h64zM250 0h-216v597h216v-77h-135v-180h130v-77h-130v-187h135v-76z" />
    <glyph glyph-name="uni1E1F.sc" horiz-adv-x="270" 
d="M146 648c-25 0 -47 20 -47 47c0 26 22 46 47 46c26 0 47 -20 47 -46c0 -27 -21 -47 -47 -47zM115 0h-81v597h216v-77h-135v-180h130v-77h-130v-263z" />
    <glyph glyph-name="gcircumflex.sc" horiz-adv-x="312" 
d="M253 651h-61l-35 61l-31 -61h-65l59 112h71zM204 126v103h-52v77h133v-195c0 -90 -57 -121 -126 -121c-73 0 -131 35 -131 123v370c0 87 54 125 131 125c73 0 126 -35 126 -122v-96h-81v81c0 44 -21 60 -47 60s-48 -16 -48 -60v-345c0 -44 22 -59 48 -59s47 15 47 59z
" />
    <glyph glyph-name="gbreve.sc" horiz-adv-x="312" 
d="M205 741h44c-2 -61 -30 -98 -92 -98s-92 37 -92 98h44c1 -21 10 -41 48 -41c37 0 46 20 48 41zM204 126v103h-52v77h133v-195c0 -90 -57 -121 -126 -121c-73 0 -131 35 -131 123v370c0 87 54 125 131 125c73 0 126 -35 126 -122v-96h-81v81c0 44 -21 60 -47 60
s-48 -16 -48 -60v-345c0 -44 22 -59 48 -59s47 15 47 59z" />
    <glyph glyph-name="gdotaccent.sc" horiz-adv-x="312" 
d="M157 648c-25 0 -47 20 -47 47c0 26 22 46 47 46c26 0 47 -20 47 -46c0 -27 -21 -47 -47 -47zM204 126v103h-52v77h133v-195c0 -90 -57 -121 -126 -121c-73 0 -131 35 -131 123v370c0 87 54 125 131 125c73 0 126 -35 126 -122v-96h-81v81c0 44 -21 60 -47 60
s-48 -16 -48 -60v-345c0 -44 22 -59 48 -59s47 15 47 59z" />
    <glyph glyph-name="gcommaaccent.sc" horiz-adv-x="312" 
d="M153 -162h-60l41 123h85zM204 126v103h-52v77h133v-195c0 -90 -57 -121 -126 -121c-73 0 -131 35 -131 123v370c0 87 54 125 131 125c73 0 126 -35 126 -122v-96h-81v81c0 44 -21 60 -47 60s-48 -16 -48 -60v-345c0 -44 22 -59 48 -59s47 15 47 59z" />
    <glyph glyph-name="hcircumflex.sc" horiz-adv-x="317" 
d="M255 651h-61l-35 61l-31 -61h-65l59 112h71zM283 0h-81v263h-87v-263h-81v597h81v-258h87v258h81v-597z" />
    <glyph glyph-name="hbar.sc" horiz-adv-x="320" 
d="M284 0h-81v263h-87v-263h-81v448h-31v65h31v84h81v-84h87v84h81v-84h32v-65h-32v-448zM203 339v109h-87v-109h87z" />
    <glyph glyph-name="uni1E23.sc" horiz-adv-x="317" 
d="M159 648c-25 0 -47 20 -47 47c0 26 22 46 47 46c26 0 47 -20 47 -46c0 -27 -21 -47 -47 -47zM283 0h-81v263h-87v-263h-81v597h81v-258h87v258h81v-597z" />
    <glyph glyph-name="igrave.sc" horiz-adv-x="149" 
d="M112 651h-57l-76 103h88zM116 0h-81v597h81v-597z" />
    <glyph glyph-name="iacute.sc" horiz-adv-x="149" 
d="M94 651h-58l44 103h88zM115 0h-81v597h81v-597z" />
    <glyph glyph-name="icircumflex.sc" horiz-adv-x="150" 
d="M170 651h-62l-35 61l-31 -61h-64l59 112h71zM115 0h-81v597h81v-597z" />
    <glyph glyph-name="idieresis.sc" horiz-adv-x="150" 
d="M9 643c-25 0 -48 21 -48 48c0 26 23 47 48 47s47 -21 47 -47c0 -27 -22 -48 -47 -48zM142 643c-25 0 -46 21 -46 48c0 26 21 47 46 47c27 0 48 -21 48 -47c0 -27 -21 -48 -48 -48zM116 0h-81v597h81v-597z" />
    <glyph glyph-name="itilde.sc" horiz-adv-x="150" 
d="M121 727h51c-2 -42 -19 -75 -56 -75c-25 0 -43 14 -66 15c-8 0 -19 -3 -20 -16h-52c2 43 19 75 57 75c25 0 42 -15 65 -15c10 0 20 4 21 16zM116 0h-81v597h81v-597z" />
    <glyph glyph-name="imacron.sc" horiz-adv-x="150" 
d="M144 0h-81v597h81v-597zM207 654h-207v65h207v-65z" />
    <glyph glyph-name="ibreve.sc" horiz-adv-x="150" 
d="M123 741h45c-2 -61 -31 -98 -93 -98s-91 37 -92 98h44c2 -21 11 -41 48 -41s46 20 48 41zM116 0h-81v597h81v-597z" />
    <glyph glyph-name="iogonek.sc" horiz-adv-x="149" 
d="M126 -123l-27 -41c-61 3 -100 43 -100 87c0 23 10 47 34 67v607h81v-597c-29 -20 -44 -45 -44 -67c0 -24 18 -47 56 -56z" />
    <glyph glyph-name="dotlessi.sc" horiz-adv-x="149" 
d="M115 0h-81v597h81v-597z" />
    <glyph glyph-name="idotaccent.sc" horiz-adv-x="150" 
d="M76 648c-25 0 -48 20 -48 47c0 26 23 46 48 46s47 -20 47 -46c0 -27 -22 -47 -47 -47zM116 0h-81v597h81v-597z" />
    <glyph glyph-name="ij.sc" 
d="M115 0h-81v597h81v-597zM139 -150h-3v77h3c22 0 43 16 43 60v610h81v-625c0 -89 -56 -122 -124 -122z" />
    <glyph glyph-name="jcircumflex.sc" horiz-adv-x="150" 
d="M170 651h-62l-35 61l-31 -61h-64l59 112h71zM-10 -150h-3v77h3c22 0 44 16 44 60v610h81v-625c0 -89 -57 -122 -125 -122z" />
    <glyph glyph-name="dotlessj.sc" horiz-adv-x="149" 
d="M-10 -150h-2v77h2c22 0 43 16 43 60v610h81v-622c0 -89 -56 -125 -124 -125z" />
    <glyph glyph-name="kcommaaccent.sc" horiz-adv-x="302" 
d="M155 -162h-60l42 123h85zM307 0h-81l-110 299l95 298h81l-91 -296zM115 0h-81v597h81v-597z" />
    <glyph glyph-name="kgreenlandic.sc" horiz-adv-x="303" 
d="M307 0h-81l-110 299l95 298h81l-91 -296zM115 0h-81v597h81v-597z" />
    <glyph glyph-name="lslash.sc" horiz-adv-x="246" 
d="M236 0h-176v194l-31 -19l-36 64l67 37v321h81v-276l45 26l34 -64l-79 -45v-162h95v-76z" />
    <glyph glyph-name="lacute.sc" horiz-adv-x="219" 
d="M100 651h-58l44 103h88zM211 0h-177v597h81v-521h96v-76z" />
    <glyph glyph-name="ldot.sc" horiz-adv-x="263" 
d="M206 234c-27 0 -50 21 -50 49s23 50 50 50c28 0 50 -22 50 -50s-22 -49 -50 -49zM211 0h-177v597h81v-521h96v-76z" />
    <glyph glyph-name="lcommaaccent.sc" horiz-adv-x="219" 
d="M113 -162h-60l41 123h85zM211 0h-177v597h81v-521h96v-76z" />
    <glyph glyph-name="lcaron.sc" horiz-adv-x="263" 
d="M210 420h-59l27 177h90zM211 0h-177v597h81v-521h96v-76z" />
    <glyph glyph-name="uni1E41.sc" horiz-adv-x="463" 
d="M232 648c-25 0 -47 20 -47 47c0 26 22 46 47 46c26 0 47 -20 47 -46c0 -27 -21 -47 -47 -47zM429 0h-81c1 148 2 296 2 445l-81 -445h-74l-81 444l1 -444h-81v597h131l67 -415l66 415h131v-597z" />
    <glyph glyph-name="ntilde.sc" horiz-adv-x="359" 
d="M236 727h52c-2 -42 -19 -75 -57 -75c-25 0 -45 15 -65 15c-9 0 -20 -3 -21 -16h-51c1 43 19 75 57 75c25 0 43 -15 64 -15c11 0 20 4 21 16zM325 0h-106l-106 397l2 -397h-81v597h103l109 -404l-2 404h81v-597z" />
    <glyph glyph-name="nacute.sc" horiz-adv-x="359" 
d="M212 651h-58l44 103h88zM325 0h-106l-106 397l2 -397h-81v597h103l109 -404l-2 404h81v-597z" />
    <glyph glyph-name="ncommaaccent.sc" horiz-adv-x="359" 
d="M176 -162h-60l42 123h85zM325 0h-106l-106 397l2 -397h-81v597h103l109 -404l-2 404h81v-597z" />
    <glyph glyph-name="ncaron.sc" horiz-adv-x="359" 
d="M224 651h-71l-62 112h62l36 -60l30 60h64zM325 0h-106l-106 397l2 -397h-81v597h103l109 -404l-2 404h81v-597z" />
    <glyph glyph-name="eng.sc" horiz-adv-x="359" 
d="M200 -156h-1v77h1c22 0 44 16 44 59v27l-130 390l1 -397h-81v597h103l109 -365l-2 365h81v-628c0 -89 -57 -125 -125 -125z" />
    <glyph glyph-name="ograve.sc" horiz-adv-x="311" 
d="M194 651h-57l-75 103h88zM281 483v-368c0 -99 -62 -125 -121 -125c-61 0 -129 27 -129 125v368c0 97 68 125 130 125c61 0 120 -28 120 -125zM112 471v-345c0 -42 20 -59 44 -59s44 17 44 59v345c0 42 -20 60 -44 60s-44 -18 -44 -60z" />
    <glyph glyph-name="oacute.sc" horiz-adv-x="311" 
d="M179 651h-58l45 103h88zM281 483v-368c0 -99 -62 -125 -121 -125c-61 0 -129 27 -129 125v368c0 97 68 125 130 125c61 0 120 -28 120 -125zM112 471v-345c0 -42 20 -59 44 -59s44 17 44 59v345c0 42 -20 60 -44 60s-44 -18 -44 -60z" />
    <glyph glyph-name="ocircumflex.sc" horiz-adv-x="311" 
d="M252 651h-61l-35 61l-31 -61h-65l59 112h71zM281 483v-368c0 -99 -62 -125 -121 -125c-61 0 -129 27 -129 125v368c0 97 68 125 130 125c61 0 120 -28 120 -125zM112 471v-345c0 -42 20 -59 44 -59s44 17 44 59v345c0 42 -20 60 -44 60s-44 -18 -44 -60z" />
    <glyph glyph-name="otilde.sc" horiz-adv-x="311" 
d="M202 727h52c-2 -42 -19 -75 -57 -75c-25 0 -45 15 -65 15c-9 0 -20 -3 -21 -16h-51c1 43 19 75 57 75c25 0 43 -15 64 -15c11 0 20 4 21 16zM281 483v-368c0 -99 -62 -125 -121 -125c-61 0 -129 27 -129 125v368c0 97 68 125 130 125c61 0 120 -28 120 -125zM112 471
v-345c0 -42 20 -59 44 -59s44 17 44 59v345c0 42 -20 60 -44 60s-44 -18 -44 -60z" />
    <glyph glyph-name="odieresis.sc" horiz-adv-x="311" 
d="M90 643c-25 0 -48 21 -48 48c0 26 23 47 48 47s47 -21 47 -47c0 -27 -22 -48 -47 -48zM224 643c-26 0 -47 21 -47 48c0 26 20 47 47 47c26 0 47 -21 47 -47c0 -27 -22 -48 -47 -48zM281 483v-368c0 -99 -62 -125 -121 -125c-61 0 -129 27 -129 125v368
c0 97 68 125 130 125c61 0 120 -28 120 -125zM112 471v-345c0 -42 20 -59 44 -59s44 17 44 59v345c0 42 -20 60 -44 60s-44 -18 -44 -60z" />
    <glyph glyph-name="omacron.sc" horiz-adv-x="311" 
d="M260 651h-207v65h207v-65zM281 483v-368c0 -99 -62 -125 -121 -125c-61 0 -129 27 -129 125v368c0 97 68 125 130 125c61 0 120 -28 120 -125zM112 471v-345c0 -42 20 -59 44 -59s44 17 44 59v345c0 42 -20 60 -44 60s-44 -18 -44 -60z" />
    <glyph glyph-name="obreve.sc" horiz-adv-x="311" 
d="M204 741h45c-2 -61 -31 -98 -93 -98s-91 37 -92 98h44c2 -21 11 -41 48 -41s46 20 48 41zM281 483v-368c0 -99 -62 -125 -121 -125c-61 0 -129 27 -129 125v368c0 97 68 125 130 125c61 0 120 -28 120 -125zM112 471v-345c0 -42 20 -59 44 -59s44 17 44 59v345
c0 42 -20 60 -44 60s-44 -18 -44 -60z" />
    <glyph glyph-name="ohungarumlaut.sc" horiz-adv-x="311" 
d="M127 651h-66l34 107h80zM234 651h-65l34 107h80zM281 483v-368c0 -99 -62 -125 -121 -125c-61 0 -129 27 -129 125v368c0 97 68 125 130 125c61 0 120 -28 120 -125zM112 471v-345c0 -42 20 -59 44 -59s44 17 44 59v345c0 42 -20 60 -44 60s-44 -18 -44 -60z" />
    <glyph glyph-name="oslash.sc" horiz-adv-x="310" 
d="M280 483v-368c0 -99 -61 -125 -124 -125c-12 0 -23 1 -34 3l-5 -34h-29l7 43c-36 15 -65 49 -65 113v368c0 97 69 125 126 125c11 0 22 -1 33 -3l5 33h29l-6 -42c36 -15 63 -49 63 -113zM111 471v-325c0 -14 1 -38 1 -51l64 430c-6 4 -13 6 -21 6c-24 0 -44 -18 -44 -60z
M199 499l-64 -428c6 -3 13 -4 19 -4c25 0 45 17 45 59v373z" />
    <glyph glyph-name="oslashacute.sc" horiz-adv-x="311" 
d="M162 651h-58l45 103h88zM280 483v-368c0 -99 -61 -125 -125 -125c-11 0 -22 1 -33 3l-5 -34h-29l7 43c-36 15 -65 49 -65 113v368c0 97 69 125 126 125c11 0 22 -1 33 -3l5 33h29l-6 -42c36 -15 63 -49 63 -113zM111 471v-325c0 -14 1 -38 1 -51l64 430c-6 4 -13 6 -21 6
c-24 0 -44 -18 -44 -60zM199 499l-64 -428c6 -3 13 -4 20 -4c24 0 44 17 44 59v373z" />
    <glyph glyph-name="oe.sc" horiz-adv-x="437" 
d="M413 0h-203c-17 -7 -36 -10 -56 -10c-68 0 -126 37 -126 125v368c0 87 57 125 127 125c26 0 44 -5 60 -11h198v-77h-136v-180h130v-77h-130v-187h136v-76zM196 120v350c0 44 -21 61 -43 61s-44 -16 -44 -60v-345c0 -44 22 -59 44 -59c20 0 43 13 43 53z" />
    <glyph glyph-name="uni1E57.sc" horiz-adv-x="297" 
d="M146 648c-25 0 -47 20 -47 47c0 26 22 46 47 46c26 0 47 -20 47 -46c0 -27 -21 -47 -47 -47zM34 597h134c70 0 111 -36 111 -125v-102c0 -89 -36 -125 -106 -125h-58v-245h-81v597zM198 381v66c0 54 -9 73 -43 73h-40v-198h40c29 0 43 15 43 59z" />
    <glyph glyph-name="thorn.sc" horiz-adv-x="296" 
d="M115 0h-81v597h81v-127h50c78 0 114 -35 114 -133v-75c0 -97 -33 -133 -106 -133h-58v-129zM198 264v70c0 43 -14 59 -43 59h-40v-188h40c29 0 43 16 43 59z" />
    <glyph glyph-name="racute.sc" horiz-adv-x="304" 
d="M165 651h-58l44 103h88zM115 0h-81v597h107c18 0 36 -1 52 -3c50 -7 86 -38 86 -121v-97c0 -60 -14 -95 -57 -114l73 -262h-81l-69 245h-30v-245zM115 520v-197h40c33 0 43 19 43 72v77c0 33 -17 48 -43 48h-40z" />
    <glyph glyph-name="rcommaaccent.sc" horiz-adv-x="304" 
d="M155 -162h-60l41 123h85zM115 0h-81v597h107c18 0 36 -1 52 -3c50 -7 86 -38 86 -121v-97c0 -60 -14 -95 -57 -114l73 -262h-81l-69 245h-30v-245zM115 520v-197h40c33 0 43 19 43 72v77c0 33 -17 48 -43 48h-40z" />
    <glyph glyph-name="rcaron.sc" horiz-adv-x="304" 
d="M185 651h-71l-62 112h62l36 -60l30 60h64zM115 0h-81v597h107c18 0 36 -1 52 -3c50 -7 86 -38 86 -121v-97c0 -60 -14 -95 -57 -114l73 -262h-81l-69 245h-30v-245zM115 520v-197h40c33 0 43 19 43 72v77c0 33 -17 48 -43 48h-40z" />
    <glyph glyph-name="scedilla.sc" horiz-adv-x="299" 
d="M89 -138l12 44c5 -3 16 -7 27 -7c20 0 30 12 30 25c0 12 -7 24 -32 24c-2 0 -4 0 -7 -1l11 44c-62 7 -105 46 -105 123v86h81v-74c0 -43 22 -59 44 -59s43 16 43 59v48c0 66 -168 120 -168 234v74c0 88 55 126 129 126c73 0 120 -37 120 -126v-93h-81v82
c0 44 -21 60 -43 60s-44 -16 -44 -60v-48c0 -90 168 -121 168 -232v-77c0 -72 -36 -110 -88 -121l-8 -29c34 0 52 -26 52 -51c0 -30 -24 -62 -81 -62c-23 0 -47 5 -60 11z" />
    <glyph glyph-name="scommaaccent.sc" horiz-adv-x="299" 
d="M153 -162h-60l41 123h85zM274 191v-77c0 -86 -52 -124 -124 -124c-73 0 -125 39 -125 124v86h81v-74c0 -43 22 -59 44 -59c21 0 43 15 43 58v49c0 66 -168 120 -168 234v74c0 88 55 126 129 126c73 0 120 -37 120 -126v-93h-81v82c0 44 -21 60 -43 60s-44 -16 -44 -59
v-49c0 -90 168 -121 168 -232z" />
    <glyph glyph-name="scaron.sc" horiz-adv-x="299" 
d="M187 651h-71l-62 112h62l36 -60l30 60h64zM274 191v-77c0 -86 -52 -124 -124 -124c-73 0 -125 39 -125 124v86h81v-74c0 -43 22 -59 44 -59c21 0 43 15 43 58v49c0 66 -168 120 -168 234v74c0 88 55 126 129 126c73 0 120 -37 120 -126v-93h-81v82c0 44 -21 60 -43 60
s-44 -16 -44 -59v-49c0 -90 168 -121 168 -232z" />
    <glyph glyph-name="sacute.sc" horiz-adv-x="299" 
d="M165 651h-58l45 103h88zM274 191v-77c0 -86 -52 -124 -124 -124c-73 0 -125 39 -125 124v86h81v-74c0 -43 22 -59 44 -59c21 0 43 15 43 58v49c0 66 -168 120 -168 234v74c0 88 55 126 129 126c73 0 120 -37 120 -126v-93h-81v82c0 44 -21 60 -43 60s-44 -16 -44 -59v-49
c0 -90 168 -121 168 -232z" />
    <glyph glyph-name="scircumflex.sc" horiz-adv-x="299" 
d="M246 651h-61l-35 61l-31 -61h-65l59 112h71zM274 191v-77c0 -86 -52 -124 -124 -124c-73 0 -125 39 -125 124v86h81v-74c0 -43 22 -59 44 -59c21 0 43 15 43 58v49c0 66 -168 120 -168 234v74c0 88 55 126 129 126c73 0 120 -37 120 -126v-93h-81v82c0 44 -21 60 -43 60
s-44 -16 -44 -59v-49c0 -90 168 -121 168 -232z" />
    <glyph glyph-name="uni1E61.sc" horiz-adv-x="299" 
d="M150 648c-25 0 -47 20 -47 47c0 26 22 46 47 46c26 0 47 -20 47 -46c0 -27 -21 -47 -47 -47zM274 191v-77c0 -86 -52 -124 -124 -124c-73 0 -125 39 -125 124v86h81v-74c0 -43 22 -59 44 -59c21 0 43 15 43 58v49c0 66 -168 120 -168 234v74c0 88 55 126 129 126
c73 0 120 -37 120 -126v-93h-81v82c0 44 -21 60 -43 60s-44 -16 -44 -59v-49c0 -90 168 -121 168 -232z" />
    <glyph glyph-name="tcaron.sc" horiz-adv-x="245" 
d="M158 651h-71l-62 112h62l36 -60l30 60h64zM163 0h-81v520h-74v77h229v-77h-74v-520z" />
    <glyph glyph-name="tcommaaccent.sc" horiz-adv-x="245" 
d="M119 -162h-60l42 123h85zM163 0h-81v520h-74v77h229v-77h-74v-520z" />
    <glyph glyph-name="tbar.sc" horiz-adv-x="257" 
d="M169 0h-81v272h-54v63h54v185h-74v77h229v-77h-74v-185h55v-63h-55v-272z" />
    <glyph glyph-name="uni1E6B.sc" horiz-adv-x="245" 
d="M123 648c-25 0 -47 20 -47 47c0 26 22 46 47 46c26 0 47 -20 47 -46c0 -27 -21 -47 -47 -47zM163 0h-81v520h-74v77h229v-77h-74v-520z" />
    <glyph glyph-name="ugrave.sc" horiz-adv-x="316" 
d="M193 651h-57l-76 103h88zM201 126v471h81v-482c0 -90 -58 -125 -124 -125c-68 0 -125 37 -125 125v482h81v-471c0 -44 21 -59 43 -59s44 15 44 59z" />
    <glyph glyph-name="uacute.sc" horiz-adv-x="316" 
d="M182 651h-58l44 103h88zM201 126v471h81v-482c0 -90 -58 -125 -124 -125c-68 0 -125 37 -125 125v482h81v-471c0 -44 21 -59 43 -59s44 15 44 59z" />
    <glyph glyph-name="ucircumflex.sc" horiz-adv-x="316" 
d="M245 651h-62l-35 61l-31 -61h-64l59 112h71zM201 126v471h81v-482c0 -90 -58 -125 -124 -125c-68 0 -125 37 -125 125v482h81v-471c0 -44 21 -59 43 -59s44 15 44 59z" />
    <glyph glyph-name="udieresis.sc" horiz-adv-x="316" 
d="M90 643c-25 0 -47 21 -47 48c0 26 22 47 47 47c26 0 47 -21 47 -47c0 -27 -21 -48 -47 -48zM225 643c-26 0 -47 21 -47 48c0 26 20 47 47 47c26 0 46 -21 46 -47c0 -27 -21 -48 -46 -48zM201 126v471h81v-482c0 -90 -58 -125 -124 -125c-68 0 -125 37 -125 125v482h81
v-471c0 -44 21 -59 43 -59s44 15 44 59z" />
    <glyph glyph-name="utilde.sc" horiz-adv-x="316" 
d="M202 727h52c-2 -42 -19 -75 -57 -75c-25 0 -45 15 -65 15c-9 0 -20 -3 -21 -16h-51c1 43 19 75 57 75c25 0 43 -15 64 -15c11 0 20 4 21 16zM201 126v471h81v-482c0 -90 -58 -125 -124 -125c-68 0 -125 37 -125 125v482h81v-471c0 -44 21 -59 43 -59s44 15 44 59z" />
    <glyph glyph-name="umacron.sc" horiz-adv-x="316" 
d="M261 651h-207v65h207v-65zM201 126v471h81v-482c0 -90 -58 -125 -124 -125c-68 0 -125 37 -125 125v482h81v-471c0 -44 21 -59 43 -59s44 15 44 59z" />
    <glyph glyph-name="ubreve.sc" horiz-adv-x="316" 
d="M205 741h44c-2 -61 -30 -98 -92 -98s-92 37 -92 98h44c1 -21 10 -41 48 -41c37 0 46 20 48 41zM201 126v471h81v-482c0 -90 -58 -125 -124 -125c-68 0 -125 37 -125 125v482h81v-471c0 -44 21 -59 43 -59s44 15 44 59z" />
    <glyph glyph-name="uhungarumlaut.sc" horiz-adv-x="316" 
d="M128 651h-66l34 107h80zM235 651h-65l34 107h80zM201 126v471h81v-482c0 -90 -58 -125 -124 -125c-68 0 -125 37 -125 125v482h81v-471c0 -44 21 -59 43 -59s44 15 44 59z" />
    <glyph glyph-name="uring.sc" horiz-adv-x="316" 
d="M181 704c0 14 -10 24 -24 24s-24 -10 -24 -24s10 -24 24 -24s24 10 24 24zM157 635c-39 0 -69 30 -69 69c0 38 30 68 69 68c38 0 68 -30 68 -68c0 -39 -30 -69 -68 -69zM201 126v471h81v-482c0 -90 -58 -125 -124 -125c-68 0 -125 37 -125 125v482h81v-471
c0 -44 21 -59 43 -59s44 15 44 59z" />
    <glyph glyph-name="uogonek.sc" horiz-adv-x="315" 
d="M226 -123l-28 -41c-59 3 -99 43 -99 87c0 24 12 50 37 68c-57 8 -103 46 -103 124v482h81v-471c0 -44 21 -59 43 -59s44 15 44 59v471h81v-482c0 -75 -38 -98 -65 -116c-17 -11 -47 -31 -47 -65c0 -26 17 -48 56 -57z" />
    <glyph glyph-name="wcircumflex.sc" horiz-adv-x="488" 
d="M338 651h-61l-35 61l-31 -61h-65l59 112h71zM477 597l-65 -597h-117l-53 483l-52 -483h-115l-66 597h81l44 -460l52 460h114l52 -460l44 460h81z" />
    <glyph glyph-name="wdieresis.sc" horiz-adv-x="488" 
d="M477 597l-65 -597h-117l-53 483l-52 -483h-115l-66 597h81l44 -460l52 460h114l52 -460l44 460h81zM175 644c-25 0 -47 21 -47 48c0 26 22 47 47 47c26 0 47 -21 47 -47c0 -27 -21 -48 -47 -48zM309 644c-25 0 -46 21 -46 48c0 26 21 47 46 47c27 0 47 -21 47 -47
c0 -27 -20 -48 -47 -48z" />
    <glyph glyph-name="wgrave.sc" horiz-adv-x="488" 
d="M277 651h-57l-75 103h88zM477 597l-65 -597h-117l-53 483l-52 -483h-115l-66 597h81l44 -460l52 460h114l52 -460l44 460h81z" />
    </font>
</defs>
</svg>
