<?xml version="1.0" standalone="no"?>
<!DOCTYPE svg PUBLIC "-//W3C//DTD SVG 1.1//EN" "http://www.w3.org/Graphics/SVG/1.1/DTD/svg11.dtd" >
<svg xmlns="http://www.w3.org/2000/svg">
<metadata></metadata>
<defs>
<font id="westpac_helpalight" horiz-adv-x="1310" >
<font-face units-per-em="2048" ascent="1677" descent="-371" />
<missing-glyph horiz-adv-x="671" />
<glyph unicode="&#xfb01;" horiz-adv-x="1136" d="M102 0v43h183v969h-183v43h183v100q0 154 69 246q80 100 230 100q266 1 293 -282h-48q-10 106 -69.5 171.5t-175.5 65.5q-129 0 -195 -86q-57 -80 -57 -221v-94h549v-1012h163v-43h-374v43h164v969h-502v-969h196v-43h-426z" />
<glyph unicode="&#xfb02;" horiz-adv-x="1163" d="M102 0v43h183v969h-183v43h183v90q0 59 6 105t26.5 96.5t55.5 82t95 52t144 20.5q70 0 160 -12t117 -14v-1432h162v-43h-375v43h166v1382q-154 31 -230 31q-92 0 -151.5 -25.5t-86 -76.5t-34.5 -99.5t-8 -119.5v-80h233v-43h-233v-969h196v-43h-426z" />
<glyph horiz-adv-x="0" />
<glyph horiz-adv-x="0" />
<glyph horiz-adv-x="682" />
<glyph unicode="&#xd;" horiz-adv-x="681" />
<glyph unicode=" "  horiz-adv-x="671" />
<glyph unicode="&#x09;" horiz-adv-x="671" />
<glyph unicode="&#xa0;" horiz-adv-x="671" />
<glyph unicode="!" horiz-adv-x="520" d="M317 0v115h91v-115h-91zM326 1475h73l-18 -1190h-37z" />
<glyph unicode="&#x22;" horiz-adv-x="583" d="M111 1475h79l-22 -469h-37zM393 1475h80l-22 -469h-37z" />
<glyph unicode="#" horiz-adv-x="1249" d="M113 496v43h260l53 393h-256v45h264l68 498h47l-70 -498h357l67 498h47l-67 -498h254v-45h-260l-54 -393h254v-43h-258l-67 -496h-47l67 496h-358l-66 -496h-47l66 496h-254zM420 539h358l51 393h-354z" />
<glyph unicode="$" horiz-adv-x="1069" d="M113 0v481h47q0 -70 17.5 -141.5t54 -142t105.5 -118.5t159 -59v728l-121 47q-129 49 -193.5 129t-64.5 206q0 162 106.5 263.5t272.5 107.5v176h45v-176q121 -6 212 -75.5t132 -192.5h2v242h45v-474h-45q4 188 -93.5 317.5t-252.5 137.5v-676l159 -63q256 -100 256 -350 q0 -176 -117.5 -285t-297.5 -109v-196h-45v198q-137 12 -223.5 93.5t-112.5 193.5h-4v-262h-43zM166 1128q0 -113 54 -177t165 -109l111 -45v659q-145 -8 -237.5 -99t-92.5 -229zM541 18q156 0 261 97.5t105 251.5q0 117 -52 187.5t-175 121.5l-139 53v-711z" />
<glyph unicode="%" horiz-adv-x="1574" d="M195 1110q0 391 237.5 391t237.5 -391q0 -399 -237.5 -399t-237.5 399zM244 1110q0 -354 188.5 -354t188.5 354q0 348 -188.5 348t-188.5 -348zM389 -27l748 1528h51l-748 -1528h-51zM905 373q0 391 237.5 391t237.5 -391q0 -400 -237.5 -400t-237.5 400zM954 373 q0 -354 188.5 -354.5t188.5 354.5q0 348 -188.5 348t-188.5 -348z" />
<glyph unicode="&#x26;" horiz-adv-x="1556" d="M133 379q0 231 191 358q78 51 155 94l-117 136q-106 121 -106 250q0 125 91 204.5t222 79.5t216 -83t85 -212q0 -195 -184 -311q-31 -20 -133 -74l444 -516q139 238 127 551h287v-47h-233q-4 -311 -146 -545l189 -213h223v-51h-248l-192 223q-174 -250 -465 -250 q-184 0 -295 113t-111 293zM184 379q0 -158 101.5 -258.5t259.5 -100.5q258 0 426 242l-461 535q-70 -37 -152 -90q-174 -117 -174 -328zM307 1219q0 -119 99 -228l118 -137q4 2 55.5 29.5t82.5 48.5q158 96 157 280q0 104 -70.5 174t-175.5 70q-111 0 -188.5 -65.5 t-77.5 -171.5z" />
<glyph unicode="'" horiz-adv-x="303" d="M111 1475h84l-23 -478h-41z" />
<glyph unicode="(" horiz-adv-x="522" d="M72 589.5q0 235.5 56 460t232 484.5h50q-285 -428 -285 -944q0 -520 285 -946h-50q-176 260 -232 485t-56 460.5z" />
<glyph unicode=")" horiz-adv-x="522" d="M113 -356q285 426 284 946q0 516 -284 944h49q174 -260 231.5 -485.5t57.5 -459t-57.5 -459.5t-231.5 -486h-49z" />
<glyph unicode="*" horiz-adv-x="888" d="M113 1235l18 59l289 -102l2 2l-10 307h59l-6 -307l2 -2l291 106l18 -57l-299 -88v-4l193 -242l-49 -37l-172 252h-5l-172 -254l-49 37l189 244v4z" />
<glyph unicode="+" d="M131 502v49h496v475h55v-475h496v-49h-496v-475h-55v475h-496z" />
<glyph unicode="," horiz-adv-x="573" d="M215 -270l88 270h-41v115h96v-109l-100 -276h-43z" />
<glyph unicode="-" horiz-adv-x="798" d="M113 537v53h573v-53h-573z" />
<glyph unicode="." horiz-adv-x="520" d="M215 0v115h90v-115h-90z" />
<glyph unicode="/" horiz-adv-x="753" d="M51 -143l606 1671h45l-604 -1671h-47z" />
<glyph unicode="0" horiz-adv-x="1075" d="M133 739q0 762 404 762q406 0 405 -762q0 -76 -2 -138t-12 -145t-26.5 -146.5t-47.5 -129t-73 -108.5t-104 -71t-140 -28q-90 0 -160 34t-113 98.5t-70.5 135t-40 167t-16.5 168t-4 163.5zM182 739q0 -86 4 -153.5t14.5 -157.5t35 -156.5t62.5 -128t98.5 -93.5t140 -32 t141 33t98.5 93.5t61.5 127t36 155.5t15.5 158.5t4 153.5q0 717 -356 717q-354 0 -355 -717z" />
<glyph unicode="1" horiz-adv-x="1062" d="M215 1120v68q186 143 336 293h47v-1438h209v-43h-479v43h223v1374h-4q-174 -178 -332 -297z" />
<glyph unicode="2" horiz-adv-x="1091" d="M113 0v53l598 746q143 180 143 342q0 147 -84 231t-227 84q-164 0 -248 -117.5t-84 -283.5h-49q0 193 98 319.5t283 126.5q172 0 266 -95t94 -267q0 -178 -153 -369l-580 -719v-4h721v229h47v-276h-825z" />
<glyph unicode="3" horiz-adv-x="1064" d="M156 412h49q-8 -168 77 -281t271 -113q147 0 238.5 104.5t91.5 254.5q0 129 -58.5 221t-175.5 117q-80 18 -160 10v53q98 -6 191 21q186 59 186 305q0 152 -83 252t-230 100q-150 0 -242 -109.5t-92 -259.5h-49q0 170 106.5 292t272.5 122q172 0 269 -108.5t97 -282.5 q0 -141 -65.5 -238.5t-198.5 -117.5v-2q135 -20 208 -124t73 -247q0 -178 -104.5 -293t-280.5 -115q-186 0 -293.5 119t-97.5 320z" />
<glyph unicode="4" horiz-adv-x="1183" d="M113 465v72l663 944h62v-971h213v-45h-213v-422h192v-43h-483v43h244v422h-678zM156 510h635v913h-7l-628 -907v-6z" />
<glyph unicode="5" horiz-adv-x="1116" d="M174 389h49q0 -156 84 -263.5t244 -107.5q168 0 265 129t97 310q0 188 -81.5 313t-258.5 125q-121 0 -206.5 -71.5t-110.5 -202.5l-61 6l32 848h686v-45h-639l-30 -697h2q92 209 332 209q199 0 292 -135t93 -346q0 -205 -106.5 -346.5t-305.5 -141.5q-180 0 -278.5 116 t-98.5 300z" />
<glyph unicode="6" horiz-adv-x="1110" d="M154 639q0 80 5 154.5t18 181t45 193.5t79 166t124 123t175 44q152 0 239 -100.5t93 -261.5h-49q-10 141 -79 229t-204 88q-186 0 -284.5 -190.5t-114.5 -573.5h4q88 250 362 250q195 0 292 -141.5t97 -345.5q0 -207 -103 -344.5t-302 -137.5q-195 0 -299 152 q-47 68 -69.5 159t-25.5 157.5t-3 197.5zM207 459q0 -182 82 -303q96 -137 264 -138q176 0 265 128t89 313q0 180 -87 308t-255 128q-178 0 -268 -124t-90 -312z" />
<glyph unicode="7" horiz-adv-x="1077" d="M143 1178v297h842v-60l-532 -1372h151v-43h-340v43h135l537 1378v6h-746v-249h-47z" />
<glyph unicode="8" horiz-adv-x="1097" d="M154 377q0 324 270 395v2q-123 33 -188.5 126t-65.5 220q0 170 102.5 275.5t276.5 105.5t276.5 -105.5t102.5 -275.5q0 -127 -66.5 -220t-187.5 -126v-2q270 -74 270 -395q0 -178 -108.5 -291t-286.5 -113q-180 0 -287.5 113t-107.5 291zM203 387q0 -156 94 -262.5 t252 -106.5q156 0 251 106.5t95 262.5q0 164 -92 263.5t-254 99.5t-254 -99.5t-92 -263.5zM219 1126.5q0 -147.5 91.5 -238.5t238.5 -91q145 0 237.5 91t92.5 238.5t-92.5 238.5t-238 91t-237.5 -91t-92 -238.5z" />
<glyph unicode="9" horiz-adv-x="1116" d="M154 1034q0 201 101 334t298 133q244 0 350 -256q59 -145 60 -489q0 -438 -142 -637q-102 -145 -295 -146q-141 0 -227 97.5t-98 255.5h49q14 -137 82.5 -222.5t197.5 -85.5q195 0 288 189.5t97 587.5h-4q-39 -127 -132 -195t-228 -68q-199 0 -298 143.5t-99 358.5z M203 1026q0 -180 87 -313t253 -133q239 0 323 221q33 76 33 196q0 123 -39 232q-86 227 -307 227q-176 0 -263 -124t-87 -306z" />
<glyph unicode=":" horiz-adv-x="520" d="M215 0v115h90v-115h-90zM215 889v115h90v-115h-90z" />
<glyph unicode=";" horiz-adv-x="573" d="M215 -270l88 270h-41v115h96v-109l-100 -276h-43zM262 889v115h90v-115h-90z" />
<glyph unicode="&#x3c;" d="M131 502v53l1047 479v-57l-988 -447v-2l988 -448v-55z" />
<glyph unicode="=" d="M131 334v53h1047v-53h-1047zM131 672v51h1047v-51h-1047z" />
<glyph unicode="&#x3e;" d="M131 25v55l985 448v2l-985 447v57l1047 -479v-53z" />
<glyph unicode="?" horiz-adv-x="1046" d="M215 1120q0 178 96.5 279.5t270.5 101.5q162 0 257 -91t95 -255q0 -193 -119 -311l-164 -168q-100 -100 -100 -303v-84h-45v104q0 197 112 316l158 163q111 111 111 285q0 141 -83 220t-224 79q-147 0 -231.5 -87t-84.5 -249h-49zM483 0v115h90v-115h-90z" />
<glyph unicode="@" horiz-adv-x="2015" d="M256 709q0 350 231.5 571t571.5 221q307 0 513 -167t206 -466q0 -141 -63.5 -286.5t-198.5 -241.5q-88 -63 -197 -64q-72 0 -116 39t-40 105h-2q-104 -143 -284 -144q-143 0 -219 87.5t-76 232.5q0 137 64.5 274.5t185 230.5t262.5 93q98 0 172.5 -50t99.5 -138h4 q16 43 68 149h47q-96 -190 -252 -633q-76 -203 90 -203q84 0 172 62q115 82 176.5 214t61.5 279q0 274 -195 428t-481 154q-319 0 -536.5 -209t-217.5 -540q0 -338 201 -527.5t543 -189.5q209 0 373.5 88t271.5 246h51q-117 -184 -296 -281.5t-400 -97.5 q-356 0 -573.5 195.5t-217.5 568.5zM633 590q0 -121 65.5 -196t182.5 -75q121 0 200.5 76t137.5 228l124 321q-14 100 -83.5 152.5t-169.5 52.5q-131 0 -239 -90t-163 -217t-55 -252z" />
<glyph unicode="A" horiz-adv-x="1507" d="M92 0v43h117l508 1438h76l507 -1438h115v-43h-368v43h202l-182 524h-625l-184 -524h201v-43h-367zM457 610h596l-297 840h-4z" />
<glyph unicode="B" horiz-adv-x="1255" d="M92 0v43h195v1389h-191v43h598q156 0 248 -60q133 -84 133 -305q0 -131 -69.5 -223t-198.5 -115v-2q154 -14 229.5 -111.5t75.5 -255.5q0 -176 -100 -282q-111 -121 -320 -121h-600zM334 43h340q201 0 303 111q84 86 84 254q0 335 -363 335h-2h-362v-700zM334 786h295 q397 0 397 328q0 186 -111 262q-82 55 -241 56h-340v-646z" />
<glyph unicode="C" horiz-adv-x="1370" d="M133 748q0 113 17.5 216t60.5 202.5t107.5 173t166 117.5t226.5 44q328 0 432 -309h2v283h47v-506h-45q-16 215 -126 351t-312 136q-139 0 -245 -61.5t-165 -166t-88 -225t-29 -255.5q0 -133 28 -256t86 -232.5t163.5 -175.5t247.5 -66q182 0 305 123t135 330h49 q-12 -221 -139 -359.5t-355 -138.5q-154 0 -268.5 69t-177.5 183.5t-93 246t-30 276.5z" />
<glyph unicode="D" horiz-adv-x="1466" d="M92 0v43h195v1389h-191v43h566q225 0 374 -89q297 -170 297 -638q0 -227 -85 -406.5t-271 -269.5q-150 -72 -332 -72h-553zM334 43h254q223 0 364 70q332 164 332 637q0 434 -278 598q-141 84 -357 84h-315v-1389z" />
<glyph unicode="E" horiz-adv-x="1259" d="M92 0v43h195v1389h-191v43h981v-439h-47v394h-696v-658h418v266h47v-585h-47v278h-418v-686h704v410h47v-455h-993z" />
<glyph unicode="F" horiz-adv-x="1153" d="M92 0v43h195v1389h-191v43h944v-439h-47v394h-659v-680h407v258h47v-559h-47v258h-407v-664h254v-43h-496z" />
<glyph unicode="G" horiz-adv-x="1513" d="M133 731q0 150 34 282t103.5 244.5t193.5 178t290 65.5q328 0 436 -266h4v240h47v-506h-47q-4 131 -20 186q-45 145 -155 223t-269 78q-119 0 -215.5 -41t-161 -108.5t-107.5 -161.5t-62.5 -197.5t-19.5 -216.5q0 -186 58.5 -345t188.5 -263.5t310 -104.5q154 0 267.5 77 t156.5 220q25 74 25 179v170h-254v45h465v-45h-164v-664h-43l-4 256h-2q-113 -283 -455 -283q-195 0 -334 108.5t-202.5 276.5t-63.5 373z" />
<glyph unicode="H" horiz-adv-x="1486" d="M92 0v43h195v1389h-195v43h436v-43h-194v-660h817v660h-193v43h437v-43h-197v-1389h197v-43h-437v43h193v688h-817v-688h194v-43h-436z" />
<glyph unicode="I" horiz-adv-x="710" d="M123 0v43h209v1389h-209v43h465v-43h-209v-1389h209v-43h-465z" />
<glyph unicode="J" horiz-adv-x="1089" d="M133 356v101h49v-101q0 -172 75 -255t202 -83q129 0 204.5 83t75.5 255v1076h-227v43h455v-43h-181v-1076q0 -195 -88 -289t-239 -94q-150 0 -238 95t-88 288z" />
<glyph unicode="K" horiz-adv-x="1280" d="M92 0v43h195v1389h-195v43h428v-43h-186v-644l657 644h-162v43h326v-43h-100l-668 -650l694 -739h86v-43h-319v43h164l-678 727v-727h186v-43h-428z" />
<glyph unicode="L" horiz-adv-x="1165" d="M92 0v43h195v1389h-195v43h494v-43h-252v-1387h672v408h47v-453h-961z" />
<glyph unicode="M" horiz-adv-x="1806" d="M92 0v43h211v1389h-211v43h303l504 -1409h4l514 1409h297v-43h-209v-1389h209v-43h-452v43h196v1389h-6l-526 -1436h-47l-523 1436h-6v-1389h195v-43h-453z" />
<glyph unicode="N" horiz-adv-x="1492" d="M92 0v43h195v1389h-195v43h279l800 -1428h7v1385h-211v43h434v-43h-176v-1432h-80l-807 1432h-4v-1389h211v-43h-453z" />
<glyph unicode="O" horiz-adv-x="1447" d="M133 731q0 152 33 285t100.5 244.5t185 176t271.5 64.5q125 0 226.5 -43t168 -115.5t112.5 -173t65.5 -209t19.5 -229.5q0 -117 -20.5 -225.5t-66.5 -205.5t-113.5 -170t-168 -115t-223.5 -42t-223.5 42t-167 115t-112.5 170t-66.5 205.5t-20.5 225.5zM182 731 q0 -137 31 -260t92.5 -227.5t169 -165t248.5 -60.5t248.5 60.5t170 164t93.5 227.5t31 261q0 135 -31 260t-92.5 231.5t-170 170t-249.5 63.5t-249.5 -63.5t-169 -170t-91.5 -230.5t-31 -261z" />
<glyph unicode="P" horiz-adv-x="1171" d="M92 0v43h195v1389h-195v43h518q215 0 320 -82q129 -106 129 -322q0 -203 -117 -313q-111 -102 -315 -103h-293v-612h235v-43h-477zM334 696h284q190 0 291 100.5t101 272.5q0 186 -109 283q-92 80 -299 80h-268v-736z" />
<glyph unicode="Q" horiz-adv-x="1476" d="M133 731q0 152 33 285t100.5 244.5t185 176t271.5 64.5q125 0 226.5 -43t168 -115.5t112.5 -173t65.5 -209t19.5 -229.5q0 -227 -81 -415.5t-245 -272.5l2 -4q102 18 191 18q90 0 192 -14v-59q-109 23 -221 23q-28 0 -55 -1q-68 -2 -183.5 -17.5t-191.5 -15.5 q-123 0 -223.5 42t-167 115t-112.5 170t-66.5 205.5t-20.5 225.5zM182 731q0 -137 31 -260t92.5 -227.5t169 -165t248.5 -60.5q178 0 301 97q121 94 181.5 259t60.5 357q0 135 -31 260t-92.5 231.5t-170 170t-249.5 63.5t-249.5 -63.5t-169 -170t-91.5 -230.5t-31 -261z" />
<glyph unicode="R" horiz-adv-x="1372" d="M92 0v43h195v1389h-195v43h555q215 0 318 -80q129 -96 129 -314q0 -141 -77 -240.5t-224 -117.5v-2q150 -20 200 -207l131 -467h146v-47h-185l-133 473q-35 127 -104.5 179.5t-206.5 52.5h-307v-662h219v-43h-461zM334 750h344q72 0 127 14q113 29 176 113t63 204 q0 184 -104 271q-96 80 -295 80h-311v-682z" />
<glyph unicode="S" horiz-adv-x="1212" d="M184 0v481h47q0 -74 19.5 -148.5t60.5 -148t119 -120t180 -46.5q156 0 262.5 97.5t106.5 251.5q0 217 -238 313q-84 35 -188 74t-107 39q-258 100 -258 337q0 166 113 268.5t287 102.5q129 0 227 -69.5t141 -198.5h2v242h46v-474h-46v14q0 187 -100 312 q-104 129 -270 129q-154 0 -252 -93t-98 -235q0 -201 221 -290q23 -8 127 -47t184 -72q131 -55 194.5 -139t63.5 -213q0 -176 -117.5 -285t-298.5 -109q-154 0 -252 83t-129 206h-4v-262h-43z" />
<glyph unicode="T" horiz-adv-x="1290" d="M123 1040v435h1044v-435h-47v390h-452v-1387h256v-43h-557v43h254v1387h-451v-390h-47z" />
<glyph unicode="U" horiz-adv-x="1482" d="M92 1432v43h440v-43h-215v-955q0 -201 100.5 -330t319.5 -129q430 0 430 496v918h-209v43h433v-43h-177v-916q0 -543 -477 -543q-221 0 -345 127t-124 371v961h-176z" />
<glyph unicode="V" horiz-adv-x="1458" d="M72 1432v43h415v-43h-233l471 -1391h4l463 1391h-221v43h415v-43h-145l-477 -1438h-74l-487 1438h-131z" />
<glyph unicode="W" horiz-adv-x="1927" d="M82 1432v43h412v-43h-228l297 -1371h6l355 1420h73l357 -1422h4l303 1373h-227v43h411v-43h-137l-317 -1438h-68l-358 1440h-9l-356 -1440h-70l-313 1438h-135z" />
<glyph unicode="X" horiz-adv-x="1538" d="M82 0v43h133l518 727l-473 662h-139v43h409v-43h-206l444 -631l446 631h-202v43h403v-43h-139l-479 -670l514 -719h145v-43h-432v43h223l-485 688l-486 -688h224v-43h-418z" />
<glyph unicode="Y" horiz-adv-x="1308" d="M66 1432v43h393v-43h-213l405 -758h6l400 758h-205v43h391v-43h-135l-430 -818v-571h252v-43h-555v43h256v571l-445 818h-120z" />
<glyph unicode="Z" horiz-adv-x="1251" d="M133 0v61l920 1364v5h-850v-390h-47v435h944v-60l-920 -1366v-4h891v412h47v-457h-985z" />
<glyph unicode="[" horiz-adv-x="466" d="M113 -356v1890h200v-41h-157v-1808h157v-41h-200z" />
<glyph unicode="\" horiz-adv-x="753" d="M51 1528h43l608 -1671h-47z" />
<glyph unicode="]" horiz-adv-x="466" d="M154 -315h157v1808h-157v41h200v-1890h-200v41z" />
<glyph unicode="^" d="M207 750l420 751h53l422 -751h-58l-389 700h-4l-389 -700h-55z" />
<glyph unicode="_" horiz-adv-x="983" d="M-6 -180h995v-49h-995v49z" />
<glyph unicode="`" horiz-adv-x="387" d="M61 1481h82l183 -285h-47z" />
<glyph unicode="a" horiz-adv-x="1136" d="M133 281q0 258 246 325q90 23 207 23q139 0 254 -29v127q0 309 -293 309q-291 0 -324 -282h-49q16 168 114.5 247.5t256.5 79.5q154 0 248 -80.5t94 -250.5v-527l2 -180h155v-43h-198l-2 221h-4q-43 -125 -142.5 -186.5t-230.5 -61.5q-154 0 -244 79t-90 229zM182 283 q0 -127 79 -196t212 -69q127 0 217 68t125 190q2 4 5 17.5t4 17.5t4 16.5t4.5 19.5t2.5 22.5t2 30t2 37t1 49v59.5q-125 37 -254 37q-111 0 -195 -23q-209 -55 -209 -276z" />
<glyph unicode="b" horiz-adv-x="1226" d="M92 0v43h180l2 180v1209h-182v43h230v-625h6q39 113 134 172t218 59q209 0 321.5 -160.5t112.5 -396.5q0 -145 -44 -266t-145.5 -203t-246.5 -82q-127 0 -218 65.5t-132 184.5h-6l-3 -223h-227zM322 528q0 -70 8 -139q18 -166 107 -268.5t245 -102.5q100 0 177 45.5 t120 120t64.5 162.5t21.5 182q0 129 -36 240t-127 189.5t-222 78.5q-147 0 -239.5 -88t-108.5 -239q-10 -74 -10 -181z" />
<glyph unicode="c" horiz-adv-x="1046" d="M113 518q0 231 104.5 397t319.5 166q250 0 325 -223h6v197h45v-393h-47q-8 104 -38.5 183t-106.5 135t-189 56q-102 0 -176.5 -46t-115.5 -124t-59.5 -166t-18.5 -188q0 -92 20.5 -177t62.5 -158t114.5 -116t166.5 -43q281 0 334 299h49q-27 -168 -127 -256t-256 -88 q-143 0 -240.5 84t-135 202t-37.5 259z" />
<glyph unicode="d" horiz-adv-x="1226" d="M113 524q0 236 111.5 396.5t320.5 160.5q123 0 218 -59t136 -172h4v582h-172v43h219v-1252l2 -180h183v-43h-230l-2 223h-4q-43 -119 -134 -184.5t-218 -65.5q-145 0 -246.5 82t-144.5 203t-43 266zM162 528q0 -131 34.5 -240.5t125 -189.5t221.5 -80q156 0 245 102.5 t109 268.5q6 51 6 139q0 106 -10 181q-16 152 -108.5 239.5t-239.5 87.5q-131 0 -221.5 -78.5t-126 -189.5t-35.5 -240z" />
<glyph unicode="e" horiz-adv-x="1071" d="M113 535q0 150 41 268.5t141 198t250 79.5q147 0 245 -83q97 -82 134 -202q30 -96 30 -210q0 -28 -2 -56h-790q0 -96 20.5 -183t62.5 -162.5t118.5 -121t181.5 -45.5q143 0 234 75t118 218h49q-29 -168 -133 -253t-268 -85q-113 0 -199 47.5t-135 128t-73.5 178 t-24.5 208.5zM162 575h741v16q0 184 -86 312q-90 133 -278 133q-176 0 -273.5 -129t-103.5 -332z" />
<glyph unicode="f" horiz-adv-x="753" d="M113 0v43h182v969h-182v43h182v90q0 207 94 297q70 59 168 59q63 0 125 -26v-50q-61 31 -125 31q-88 0 -137 -49q-78 -78 -78 -272v-80h233v-43h-233v-969h197v-43h-426z" />
<glyph unicode="g" horiz-adv-x="1175" d="M113 -111q0 80 64.5 142.5t203.5 87.5v2q-88 8 -138 48t-50 89q0 104 155 176q-176 94 -176 299q0 168 117 258t289 90q180 0 292 -94q90 113 199 113q16 0 45 -4v-68q-35 8 -63 8q-90 0 -156 -71q88 -92 88 -232q0 -168 -117.5 -259t-287.5 -91q-106 0 -187 33 q-145 -61 -145 -146q0 -126 268 -126q27 0 57 1q63 2 121 2q205 0 297 -58t92 -179q0 -129 -135 -205t-381 -76q-215 0 -333.5 67.5t-118.5 192.5zM162 -111q0 -102 106.5 -158.5t296.5 -56.5q221 0 344 63.5t123 172.5q0 96 -81 144t-259 48q-530 0 -530 -213zM221 733 q0 -139 97.5 -223t259 -84t259 84t97.5 223t-97.5 223t-259 84t-259 -84t-97.5 -223z" />
<glyph unicode="h" horiz-adv-x="1222" d="M92 0v43h170v1389h-170v43h217v-613h6q100 219 328 219q119 0 195 -47q133 -82 133 -297v-694h170v-43h-389v43h168v678q0 199 -109 270q-70 45 -176 45q-117 0 -205 -82q-121 -117 -121 -305v-606h172v-43h-389z" />
<glyph unicode="i" horiz-adv-x="604" d="M133 1012v43h215v-1012h164v-43h-375v43h164v969h-168zM270 1303v108h84v-108h-84z" />
<glyph unicode="j" horiz-adv-x="569" d="M113 -305q66 -18 96 -19q70 0 108 39q37 37 37 125v1172h-170v43h217v-1219q0 -100 -45 -151q-49 -55 -149 -56q-41 0 -94 17v49zM319 1303v108h82v-108h-82z" />
<glyph unicode="k" horiz-adv-x="1116" d="M92 0v43h174v1389h-174v43h221v-1000h4l529 537h-150v43h324v-43h-111l-350 -355l375 -614h110v-43h-327v43h160l-351 582l-213 -217v-365h172v-43h-393z" />
<glyph unicode="l" horiz-adv-x="581" d="M102 1432v43h213v-1432h164v-43h-375v43h164v1389h-166z" />
<glyph unicode="m" horiz-adv-x="1796" d="M92 0v43h170v817l-2 152h-168v43h213l4 -195h6q84 221 314 221q244 0 289 -221h6q82 221 307 221q139 0 221 -77q96 -88 96 -287v-674h166v-43h-375v43h162v668q0 100 -22 163q-29 76 -91.5 119t-148.5 43q-227 0 -289 -209q-18 -70 -18 -120v-664h162v-43h-373v43h164 v680q0 313 -258 313q-223 0 -295 -225q-18 -59 -19 -106v-662h166v-43h-387z" />
<glyph unicode="n" horiz-adv-x="1226" d="M92 1012v43h213l4 -195h6q104 221 330 221q137 0 227 -80q98 -86 99 -270v-688h174v-43h-393v43h172v678q0 162 -82 242q-71 73 -209 73h-4q-104 0 -184 -67.5t-113 -171.5q-18 -63 -19 -129l-4 -625h176v-43h-391v43h168v817l-2 152h-168z" />
<glyph unicode="o" horiz-adv-x="1095" d="M113 532q0 147 43 267.5t144 201t247 80.5q147 0 248.5 -80.5t144.5 -200.5t43 -268q0 -113 -23.5 -209t-72.5 -176.5t-136 -127t-204 -46.5q-115 0 -202 46.5t-136 127t-72.5 177t-23.5 208.5zM162 530q0 -100 19.5 -187t62.5 -163t121 -119t182 -43q106 0 184 43 t121 119t62.5 163t19.5 187q0 211 -95.5 358.5t-291.5 147.5q-102 0 -179 -43t-120 -116.5t-64.5 -160.5t-21.5 -186z" />
<glyph unicode="p" horiz-adv-x="1216" d="M92 -299h170l4 1151l-4 160h-170v43h215l6 -205h4q39 113 135.5 172t217.5 59q209 0 321.5 -160.5t112.5 -396.5q0 -227 -110.5 -389t-325.5 -162q-127 0 -217.5 65.5t-133.5 184.5h-4l-4 -522h180v-43h-397v43zM313 528q0 -86 6 -139q20 -166 109.5 -268.5t245.5 -102.5 q98 0 175 45.5t120 120t64.5 162.5t21.5 182q0 129 -36 240t-127 189.5t-222 78.5q-145 0 -237.5 -88t-110.5 -239q-8 -80 -9 -181z" />
<glyph unicode="q" horiz-adv-x="1216" d="M113 524q0 236 111.5 396.5t320.5 160.5q123 0 218 -59t136 -172h4l4 205h217v-43h-172l-2 -160l2 -1151h172v-43h-397v43h178l-2 522h-4q-43 -119 -134 -184.5t-218 -65.5q-145 0 -246.5 82t-144.5 203t-43 266zM162 528q0 -131 34.5 -240.5t125 -189.5t221.5 -80 q156 0 245 102.5t109 268.5q6 51 6 139q0 106 -10 181q-16 152 -108.5 239.5t-239.5 87.5q-131 0 -221.5 -78.5t-126 -189.5t-35.5 -240z" />
<glyph unicode="r" horiz-adv-x="811" d="M133 0v43h174v834l-4 135h-170v43h213l4 -174h6q31 92 111 146t174 54q55 0 98 -14v-53q-49 20 -102 20q-96 0 -166 -58t-98 -149q-18 -55 -19 -125v-659h203v-43h-424z" />
<glyph unicode="s" horiz-adv-x="1032" d="M154 0v371h47q2 -160 84 -256.5t227 -96.5q135 0 226 66t91 188q0 197 -208 224l-197 24q-117 14 -185.5 81t-68.5 179q0 141 96.5 221t241.5 80q221 0 299 -174h6v148h47v-344h-47q-4 150 -82 237.5t-225 87.5q-125 0 -206 -65.5t-81 -188.5q0 -90 54.5 -147t148.5 -70 l207 -28q121 -16 185.5 -84t64.5 -177q0 -150 -102.5 -226.5t-260.5 -76.5q-223 0 -311 187h-4v-160h-47z" />
<glyph unicode="t" horiz-adv-x="729" d="M51 1012v43h182v229l48 19v-248h313v-43h-313v-819q0 -174 143 -175q74 0 109.5 49.5t35.5 125.5v63h47v-63q0 -96 -46 -158t-146 -62q-190 0 -191 220v819h-182z" />
<glyph unicode="u" horiz-adv-x="1236" d="M92 1012v43h221v-721q0 -162 80 -242q72 -74 213 -74q106 0 185 68t112 174q20 70 21 129l2 623h-174v43h221v-860l2 -152h170v-43h-215l-4 195h-6q-106 -221 -330 -222q-137 0 -228 80q-96 86 -96 273v686h-174z" />
<glyph unicode="v" horiz-adv-x="1196" d="M72 1012v43h336v-43h-168l350 -971h4l356 971h-164v43h338v-43h-127l-372 -1018h-64l-366 1018h-123z" />
<glyph unicode="w" horiz-adv-x="1789" d="M92 1012v43h340v-43h-172l285 -977h6l315 1028h60l317 -1028h4l283 977h-174v43h342v-43h-123l-299 -1018h-64l-313 1022h-4l-313 -1022h-66l-301 1018h-123z" />
<glyph unicode="x" horiz-adv-x="1228" d="M92 0v43h113l389 506l-354 463h-121v43h321v-43h-147l325 -426l330 426h-147v43h307v-43h-109l-358 -461l387 -508h109v-43h-334v43h170l-357 471l-360 -471h156v-43h-320z" />
<glyph unicode="y" horiz-adv-x="1208" d="M86 1012v43h332v-43h-174l360 -910h2l350 910h-161v43h331v-43h-122l-504 -1315h125v-43h-312v43h136l133 342l-387 973h-109z" />
<glyph unicode="z" horiz-adv-x="1013" d="M154 0v63l667 941v6h-610v-209h-47v254h706v-66l-673 -940v-4h637v217h47v-262h-727z" />
<glyph unicode="{" horiz-adv-x="612" d="M72 561v53q72 8 116.5 74t44.5 176v522q0 147 125 148h101v-41h-92q-88 0 -88 -109v-534q0 -203 -156 -260v-4q156 -57 156 -260v-533q0 -109 88 -108h92v-41h-101q-125 0 -125 147v520q0 111 -44.5 176.5t-116.5 73.5z" />
<glyph unicode="|" horiz-adv-x="477" d="M215 -371v2048h47v-2048h-47z" />
<glyph unicode="}" horiz-adv-x="612" d="M154 -315h90q90 0 90 108v533q0 203 155 260v4q-156 57 -155 260v534q0 109 -90 109h-90v41h100q125 0 125 -148v-522q0 -111 45 -176.5t117 -73.5v-53q-72 -8 -117 -73.5t-45 -176.5v-520q0 -147 -125 -147h-100v41z" />
<glyph unicode="~" d="M205 547q74 168 223 168q53 0 97 -15.5t153 -68.5q139 -70 201 -70q110 1 194 148l33 -35q-86 -160 -229 -160q-76 0 -203 66q-152 74 -197 82q-20 4 -45 4q-127 0 -194 -154z" />
<glyph unicode="&#xa1;" horiz-adv-x="520" d="M113 940v115h90v-115h-90zM121 -342l18 1130h37l19 -1130h-74z" />
<glyph unicode="&#xa2;" horiz-adv-x="1026" d="M113 518q0 219 95 382t292 179v178h45v-176q244 -6 317 -223h6v197h45v-393h-47q-12 160 -88 265t-233 109v-1018q262 10 315 299h49q-27 -164 -121 -250.5t-243 -93.5v-196h-45v198q-197 12 -292 170t-95 373zM162 512q0 -193 84 -337t254 -157v1016q-92 -8 -161 -56 t-105.5 -124t-54 -161t-17.5 -181z" />
<glyph unicode="&#xa3;" horiz-adv-x="1138" d="M133 0v43h166l53 772h-190v45h194l19 264q12 170 98 273.5t260 103.5q143 0 226.5 -89t87.5 -236h-50q-6 129 -73.5 204.5t-194.5 75.5q-285 0 -309 -354l-14 -242h270v-45h-275l-51 -770h594v240h47v-285h-858z" />
<glyph unicode="&#xa4;" d="M129 244l178 178q-94 137 -94 309q0 174 94 307l-178 181l39 38l174 -176q131 147 313 148q180 0 312 -148l176 176l39 -38l-181 -181q96 -135 97 -307q0 -170 -97 -309l181 -178l-39 -39l-176 174q-129 -145 -312 -146q-184 0 -313 146l-174 -174zM262 731.5 q0 -188.5 116 -320.5t277.5 -132t277.5 132t116 320.5t-116 320.5t-277.5 132t-277.5 -132t-116 -320.5z" />
<glyph unicode="&#xa5;" horiz-adv-x="1216" d="M113 1432v43h393v-43h-213l315 -748h6l304 748h-205v43h391v-43h-135l-305 -752h274v-47h-293l-8 -27v-145h301v-49h-301v-369h211v-43h-469v43h211v369h-303v49h303v145l-12 27h-291v47h272l-326 752h-120z" />
<glyph unicode="&#xa6;" horiz-adv-x="477" d="M215 -371v846h47v-846h-47zM215 874v803h47v-803h-47z" />
<glyph unicode="&#xa7;" horiz-adv-x="1103" d="M195 670q0 100 59 168.5t160 103.5q-207 96 -207 266q0 123 92 208t238 85q164 0 254 -95t94 -257h-47q-4 139 -81 223t-220 84q-121 0 -202 -68.5t-81 -179.5q0 -55 23.5 -98t77 -78t93 -54.5t119.5 -49.5q84 -33 128 -53.5t102.5 -57.5t85 -84t26.5 -108 q0 -197 -219 -273q209 -100 209 -268q0 -150 -96 -228.5t-252 -78.5q-164 0 -254 95t-94 255h49q6 -150 86 -227.5t221 -77.5q123 0 207 68.5t84 189.5q0 33 -9.5 61.5t-21.5 50t-38.5 44t-44 35t-58.5 32t-58.5 26.5t-65.5 26.5t-65 25.5q-141 55 -217.5 118.5t-76.5 170.5 zM242 668q0 -35 12 -65t41 -55.5t53.5 -44t70.5 -40t71.5 -32.5t81 -31.5t71.5 -26.5q217 80 217 254q0 35 -12 64.5t-41 55t-53.5 44t-70.5 40t-71.5 32.5t-81 32t-71.5 27q-217 -80 -217 -254z" />
<glyph unicode="&#xa8;" horiz-adv-x="569" d="M61 1268v125h89v-125h-89zM418 1268v125h90v-125h-90z" />
<glyph unicode="&#xa9;" horiz-adv-x="1955" d="M215 739q0 315 223.5 538.5t538.5 223.5t539.5 -223t224.5 -538.5t-224.5 -541t-539.5 -225.5t-538.5 224.5t-223.5 541.5zM262 739q0 -297 210 -506.5t505 -209.5t506 209.5t211 506.5q0 295 -211 505t-506 210t-505 -209t-210 -506zM573 735q0 119 38 219.5t130.5 171 t227.5 70.5q215 0 301 -186h2v159h47v-303h-47q-61 285 -303 285q-174 0 -259 -122t-85 -294q0 -80 19.5 -154.5t59 -140t110.5 -105.5t163 -42q129 -2 202.5 72.5t94.5 201.5h51q-23 -143 -107.5 -231t-240.5 -88q-106 0 -187 44t-126.5 116.5t-68 155.5t-22.5 171z" />
<glyph unicode="&#xaa;" horiz-adv-x="755" d="M72 1018q0 113 82 165t202 52q82 0 187 -23v45q0 201 -189 201q-193 0 -200 -158h-50q2 98 72 149.5t170 51.5q113 0 174 -53q70 -57 70 -221v-238l2 -104h92v-43h-137l-2 121h-2q-70 -137 -240 -138q-98 0 -164.5 47.5t-66.5 145.5zM121 1018q0 -76 53 -113t135 -37 t143.5 48.5t82.5 130.5q8 33 8 116q-102 29 -187 29q-94 0 -164.5 -41t-70.5 -133z" />
<glyph unicode="&#xab;" horiz-adv-x="808" d="M113 561l170 455h45l-164 -455l166 -457h-43zM375 561l172 455h45l-164 -455l166 -457h-45z" />
<glyph unicode="&#xac;" d="M131 711v55h1047v-528h-52v473h-995z" />
<glyph unicode="&#xad;" horiz-adv-x="798" d="M113 537v53h573v-53h-573z" />
<glyph unicode="&#xae;" horiz-adv-x="1044" d="M113 1090q0 170 119.5 290.5t289.5 120.5t290 -120.5t120 -290.5q0 -168 -120 -289t-290 -121t-289.5 121t-119.5 289zM160 1090q0 -154 105.5 -261.5t257 -107.5t258 107.5t106.5 261.5q0 156 -106.5 263t-258 107t-257 -107t-105.5 -263zM338 854v35h63v405h-63v35h211 q59 0 94 -34.5t35 -94.5q0 -39 -22.5 -71.5t-61.5 -43.5v-2q35 -8 55 -71l37 -121h49v-37h-88l-37 131q-10 47 -31.5 64.5t-60.5 17.5h-72v-178h66v-35h-174zM446 1110h89q43 0 69.5 22.5t26.5 65.5q0 96 -101 96h-84v-184z" />
<glyph unicode="&#xaf;" horiz-adv-x="600" d="M61 1305v57h478v-57h-478z" />
<glyph unicode="&#xb0;" horiz-adv-x="753" d="M92 1233q0 121 86 208t207 87q125 0 211 -86t86 -209q0 -125 -85 -210t-210 -85t-210 84t-85 211zM139 1233q0 -109 72 -179.5t176.5 -70.5t176 71.5t71.5 178.5q0 104 -73 178t-177 74q-100 0 -173 -75t-73 -177z" />
<glyph unicode="&#xb1;" d="M131 27v49h1047v-49h-1047zM131 569v52h496v405h55v-405h496v-52h-496v-379h-55v379h-496z" />
<glyph unicode="&#xb2;" horiz-adv-x="768" d="M113 772v57l387 426q94 106 94 207q0 82 -54.5 126t-140.5 44q-98 0 -153.5 -58t-61.5 -161h-51q10 123 78 193.5t184 70.5q113 0 180.5 -55t67.5 -162q0 -117 -98 -227l-377 -414v-4h442v156h45v-199h-542z" />
<glyph unicode="&#xb3;" horiz-adv-x="751" d="M113 1022h49q6 -219 219 -219q94 0 152.5 54t58.5 151q0 145 -137 182q-63 14 -121 12v58q57 -2 125 12q127 33 127 180q0 84 -59.5 132t-145.5 48q-88 0 -150.5 -55t-62.5 -145h-49q0 111 73.5 178t184.5 67q113 0 184.5 -59t71.5 -166q0 -80 -40 -143.5t-140 -75.5v-6 q90 -8 138 -65.5t48 -153.5q0 -119 -70.5 -184.5t-193.5 -65.5t-190.5 69.5t-71.5 194.5z" />
<glyph unicode="&#xb4;" horiz-adv-x="387" d="M61 1196l183 285h82l-217 -285h-48z" />
<glyph unicode="&#xb5;" horiz-adv-x="1247" d="M102 1012v43h222v-701q0 -143 74.5 -239.5t217.5 -96.5q106 0 185.5 68t111.5 174q20 70 21 129l2 623h-174v43h221v-860l2 -152h170v-43h-215l-4 195h-6q-106 -221 -330 -222q-195 0 -278 170h-3l5 -485h-56l8 782v572h-174z" />
<glyph unicode="&#xb6;" horiz-adv-x="1155" d="M154 1077q0 174 108.5 286t290.5 112h448v-1676h-47v1626h-290v-1626h-50v879q-199 0 -329.5 110.5t-130.5 288.5z" />
<glyph unicode="&#xb7;" horiz-adv-x="520" d="M215 623v120h90v-120h-90z" />
<glyph unicode="&#xb8;" horiz-adv-x="477" d="M61 -356l21 41q74 -43 145 -43q51 0 85 27.5t36 74.5q2 61 -66.5 85t-125.5 -7l-21 26l105 158h59l-100 -133l2 -2q84 23 149.5 -15t63.5 -112q-2 -72 -53.5 -112t-129.5 -40q-88 0 -170 52z" />
<glyph unicode="&#xb9;" horiz-adv-x="663" d="M133 1434v65q113 76 213 170h47v-856h137v-41h-331v41h147v793h-2q-74 -78 -211 -172z" />
<glyph unicode="&#xba;" horiz-adv-x="735" d="M72 1163q0 147 76.5 242.5t218.5 95.5q143 0 220 -95t77 -243q0 -150 -75 -244t-222.5 -94t-221 94.5t-73.5 243.5zM121 1163q0 -127 62.5 -211t183 -84t184 84t63.5 211q0 125 -64.5 209t-183 84t-182 -84t-63.5 -209z" />
<glyph unicode="&#xbb;" horiz-adv-x="808" d="M215 104l166 457l-164 455h45l170 -455l-174 -457h-43zM477 104l168 457l-166 455h45l172 -455l-174 -457h-45z" />
<glyph unicode="&#xbc;" horiz-adv-x="1622" d="M141 1251v66q113 76 213 170h47v-856h138v-41h-332v41h147v792h-2q-74 -78 -211 -172zM365 0l878 1475h53l-878 -1475h-53zM881 281v49l405 567h53v-573h140v-43h-140v-240h140v-41h-344v41h157v240h-411zM934 324h358v503h-6l-352 -499v-4z" />
<glyph unicode="&#xbd;" horiz-adv-x="1615" d="M109 1251v66q113 76 213 170h47v-856h137v-41h-332v41h148v792h-3q-74 -78 -210 -172zM332 0l878 1475h54l-879 -1475h-53zM963 0v57l387 426q94 106 94 207q0 82 -54.5 126t-140.5 44q-98 0 -153.5 -58.5t-61.5 -160.5h-51q10 123 77.5 193.5t184.5 70.5 q113 0 180.5 -55t67.5 -162q0 -117 -98 -227l-377 -414v-4h442v156h45v-199h-542z" />
<glyph unicode="&#xbe;" horiz-adv-x="1632" d="M117 848h49q6 -219 219 -219q94 0 152.5 54t58.5 151q0 145 -137 182q-63 14 -121 12v57q57 -2 125 13q127 33 127 180q0 84 -59.5 132t-145.5 48q-88 0 -150.5 -55t-62.5 -146h-49q0 111 73.5 178.5t184.5 67.5q113 0 184.5 -59.5t71.5 -165.5q0 -80 -40 -143.5 t-140 -75.5v-6q90 -8 138 -65.5t48 -153.5q0 -119 -70.5 -184.5t-193.5 -65.5t-190.5 69.5t-71.5 194.5zM389 0l879 1475h53l-879 -1475h-53zM915 281v49l406 567h53v-573h139v-43h-139v-240h139v-41h-344v41h158v240h-412zM969 324h358v503h-6l-352 -499v-4z" />
<glyph unicode="&#xbf;" horiz-adv-x="1046" d="M113 -25q0 188 118 308l164 161q100 98 101 299v45h45v-65q0 -199 -113 -311l-156 -158q-110 -111 -110 -281q0 -141 82 -220t223 -79q147 0 231 87t84 249h49q0 -178 -96 -279.5t-270 -101.5q-162 0 -257 92.5t-95 253.5zM471 940v115h92v-115h-92z" />
<glyph unicode="&#xc0;" horiz-adv-x="1507" d="M92 0v43h117l508 1438h76l507 -1438h115v-43h-368v43h202l-182 524h-625l-184 -524h201v-43h-367zM457 610h596l-297 840h-4zM559 1901h82l182 -285h-47z" />
<glyph unicode="&#xc1;" horiz-adv-x="1507" d="M92 0v43h117l508 1438h76l507 -1438h115v-43h-368v43h202l-182 524h-625l-184 -524h201v-43h-367zM457 610h596l-297 840h-4zM682 1616l182 285h82l-217 -285h-47z" />
<glyph unicode="&#xc2;" horiz-adv-x="1507" d="M92 0v43h117l508 1438h76l507 -1438h115v-43h-368v43h202l-182 524h-625l-184 -524h201v-43h-367zM457 610h596l-297 840h-4zM522 1624l193 262h76l192 -262h-59l-170 217h-4l-170 -217h-58z" />
<glyph unicode="&#xc3;" horiz-adv-x="1507" d="M92 0v43h117l508 1438h76l507 -1438h115v-43h-368v43h202l-182 524h-625l-184 -524h201v-43h-367zM457 610h596l-297 840h-4zM485 1657q2 70 35 122t98.5 52t146.5 -59.5t116 -59.5q78 0 92 119h49q-2 -70 -36 -122t-99 -52q-55 0 -136 60.5t-126 60.5q-82 0 -90 -121 h-50z" />
<glyph unicode="&#xc4;" horiz-adv-x="1507" d="M92 0v43h117l508 1438h76l507 -1438h115v-43h-368v43h202l-182 524h-625l-184 -524h201v-43h-367zM457 610h596l-297 840h-4zM530 1688v124h88v-124h-88zM887 1688v124h90v-124h-90z" />
<glyph unicode="&#xc5;" horiz-adv-x="1507" d="M92 0v43h117l508 1438h76l507 -1438h115v-43h-368v43h202l-182 524h-625l-184 -524h201v-43h-367zM457 610h596l-297 840h-4zM578 1769q0 76 50 127.5t126 51.5q74 0 125 -51.5t51 -127.5q0 -74 -51.5 -125t-124.5 -51q-76 0 -126 51t-50 125zM629 1769q0 -53 35.5 -91 t89.5 -38q51 0 88 38t37 91q0 55 -36 93.5t-89.5 38.5t-89 -38.5t-35.5 -93.5z" />
<glyph unicode="&#xc6;" horiz-adv-x="1908" d="M51 0v43h94l717 1432h864v-439h-47v394h-733l96 -658h359v266h47v-585h-47v278h-352l100 -686h539v410h47v-455h-875v43h238l-76 524h-561l-260 -524h192v-43h-342zM481 610h537l-119 824h-8z" />
<glyph unicode="&#xc7;" horiz-adv-x="1370" d="M133 748q0 113 17.5 216t60.5 202.5t107.5 173t166 117.5t226.5 44q328 0 432 -309h2v283h47v-506h-45q-16 215 -126 351t-312 136q-139 0 -245 -61.5t-165 -166t-88 -225t-29 -255.5q0 -133 28 -256t86 -232.5t163.5 -175.5t247.5 -66q182 0 305 123t135 330h49 q-12 -217 -135 -354t-340 -144l-76 -100l4 -2q84 23 148.5 -15t62.5 -112q-2 -72 -53 -112t-129 -40q-88 0 -170 52l20 41q74 -43 146 -43q51 0 85 27.5t36 74.5q2 61 -67 85t-126 -7l-20 26l84 127q-143 8 -251 79t-167.5 184.5t-87 240.5t-27.5 269z" />
<glyph unicode="&#xc8;" horiz-adv-x="1259" d="M92 0v43h195v1389h-191v43h981v-439h-47v394h-696v-658h418v266h47v-585h-47v278h-418v-686h704v410h47v-455h-993zM457 1901h82l182 -285h-47z" />
<glyph unicode="&#xc9;" horiz-adv-x="1259" d="M92 0v43h195v1389h-191v43h981v-439h-47v394h-696v-658h418v266h47v-585h-47v278h-418v-686h704v410h47v-455h-993zM539 1616l182 285h82l-217 -285h-47z" />
<glyph unicode="&#xca;" horiz-adv-x="1259" d="M92 0v43h195v1389h-191v43h981v-439h-47v394h-696v-658h418v266h47v-585h-47v278h-418v-686h704v410h47v-455h-993zM399 1624l193 262h76l192 -262h-59l-170 217h-4l-170 -217h-58z" />
<glyph unicode="&#xcb;" horiz-adv-x="1259" d="M92 0v43h195v1389h-191v43h981v-439h-47v394h-696v-658h418v266h47v-585h-47v278h-418v-686h704v410h47v-455h-993zM406 1688v124h88v-124h-88zM762 1688v124h90v-124h-90z" />
<glyph unicode="&#xcc;" horiz-adv-x="710" d="M123 0v43h209v1389h-209v43h465v-43h-209v-1389h209v-43h-465zM203 1901h82l182 -285h-47z" />
<glyph unicode="&#xcd;" horiz-adv-x="710" d="M123 0v43h209v1389h-209v43h465v-43h-209v-1389h209v-43h-465zM244 1616l182 285h82l-217 -285h-47z" />
<glyph unicode="&#xce;" horiz-adv-x="710" d="M123 0v43h209v1389h-209v43h465v-43h-209v-1389h209v-43h-465zM125 1624l192 262h76l193 -262h-60l-170 217h-4l-170 -217h-57z" />
<glyph unicode="&#xcf;" horiz-adv-x="710" d="M123 0v43h209v1389h-209v43h465v-43h-209v-1389h209v-43h-465zM131 1688v124h88v-124h-88zM487 1688v124h91v-124h-91z" />
<glyph unicode="&#xd0;" horiz-adv-x="1445" d="M92 780v47h225v605h-190v43h565q225 0 375 -89q297 -170 297 -638q0 -227 -85 -406.5t-271 -269.5q-150 -72 -332 -72h-553v43h194v737h-225zM365 43h253q223 0 365 70q332 164 332 637q0 434 -279 598q-141 84 -356 84h-315v-605h413v-47h-413v-737z" />
<glyph unicode="&#xd1;" horiz-adv-x="1492" d="M92 0v43h195v1389h-195v43h279l800 -1428h7v1385h-211v43h434v-43h-176v-1432h-80l-807 1432h-4v-1389h211v-43h-453zM477 1657q2 70 35 122t98.5 52t146 -59.5t115.5 -59.5q78 0 93 119h49q-2 -70 -36 -122t-99 -52q-55 0 -136 60.5t-127 60.5q-82 0 -90 -121h-49z" />
<glyph unicode="&#xd2;" horiz-adv-x="1447" d="M133 731q0 152 33 285t100.5 244.5t185 176t271.5 64.5q125 0 226.5 -43t168 -115.5t112.5 -173t65.5 -209t19.5 -229.5q0 -117 -20.5 -225.5t-66.5 -205.5t-113.5 -170t-168 -115t-223.5 -42t-223.5 42t-167 115t-112.5 170t-66.5 205.5t-20.5 225.5zM182 731 q0 -137 31 -260t92.5 -227.5t169 -165t248.5 -60.5t248.5 60.5t170 164t93.5 227.5t31 261q0 135 -31 260t-92.5 231.5t-170 170t-249.5 63.5t-249.5 -63.5t-169 -170t-91.5 -230.5t-31 -261zM551 1901h82l182 -285h-47z" />
<glyph unicode="&#xd3;" horiz-adv-x="1447" d="M133 731q0 152 33 285t100.5 244.5t185 176t271.5 64.5q125 0 226.5 -43t168 -115.5t112.5 -173t65.5 -209t19.5 -229.5q0 -117 -20.5 -225.5t-66.5 -205.5t-113.5 -170t-168 -115t-223.5 -42t-223.5 42t-167 115t-112.5 170t-66.5 205.5t-20.5 225.5zM182 731 q0 -137 31 -260t92.5 -227.5t169 -165t248.5 -60.5t248.5 60.5t170 164t93.5 227.5t31 261q0 135 -31 260t-92.5 231.5t-170 170t-249.5 63.5t-249.5 -63.5t-169 -170t-91.5 -230.5t-31 -261zM633 1616l182 285h82l-217 -285h-47z" />
<glyph unicode="&#xd4;" horiz-adv-x="1447" d="M133 731q0 152 33 285t100.5 244.5t185 176t271.5 64.5q125 0 226.5 -43t168 -115.5t112.5 -173t65.5 -209t19.5 -229.5q0 -117 -20.5 -225.5t-66.5 -205.5t-113.5 -170t-168 -115t-223.5 -42t-223.5 42t-167 115t-112.5 170t-66.5 205.5t-20.5 225.5zM182 731 q0 -137 31 -260t92.5 -227.5t169 -165t248.5 -60.5t248.5 60.5t170 164t93.5 227.5t31 261q0 135 -31 260t-92.5 231.5t-170 170t-249.5 63.5t-249.5 -63.5t-169 -170t-91.5 -230.5t-31 -261zM494 1624l192 262h76l192 -262h-59l-170 217h-4l-170 -217h-57z" />
<glyph unicode="&#xd5;" horiz-adv-x="1447" d="M133 731q0 152 33 285t100.5 244.5t185 176t271.5 64.5q125 0 226.5 -43t168 -115.5t112.5 -173t65.5 -209t19.5 -229.5q0 -117 -20.5 -225.5t-66.5 -205.5t-113.5 -170t-168 -115t-223.5 -42t-223.5 42t-167 115t-112.5 170t-66.5 205.5t-20.5 225.5zM182 731 q0 -137 31 -260t92.5 -227.5t169 -165t248.5 -60.5t248.5 60.5t170 164t93.5 227.5t31 261q0 135 -31 260t-92.5 231.5t-170 170t-249.5 63.5t-249.5 -63.5t-169 -170t-91.5 -230.5t-31 -261zM455 1657q2 70 34.5 122t98 52t146.5 -59.5t116 -59.5q78 0 92 119h49 q-2 -70 -35.5 -122t-99.5 -52q-55 0 -136 60.5t-126 60.5q-82 0 -90 -121h-49z" />
<glyph unicode="&#xd6;" horiz-adv-x="1447" d="M133 731q0 152 33 285t100.5 244.5t185 176t271.5 64.5q125 0 226.5 -43t168 -115.5t112.5 -173t65.5 -209t19.5 -229.5q0 -117 -20.5 -225.5t-66.5 -205.5t-113.5 -170t-168 -115t-223.5 -42t-223.5 42t-167 115t-112.5 170t-66.5 205.5t-20.5 225.5zM182 731 q0 -137 31 -260t92.5 -227.5t169 -165t248.5 -60.5t248.5 60.5t170 164t93.5 227.5t31 261q0 135 -31 260t-92.5 231.5t-170 170t-249.5 63.5t-249.5 -63.5t-169 -170t-91.5 -230.5t-31 -261zM500 1688v124h88v-124h-88zM856 1688v124h90v-124h-90z" />
<glyph unicode="&#xd7;" d="M227 135l391 391l-391 392l37 36l391 -391l392 391l36 -36l-391 -392l391 -391l-36 -37l-392 391l-391 -391z" />
<glyph unicode="&#xd8;" horiz-adv-x="1490" d="M133 -12l164 211q-145 207 -145 532q0 152 32.5 285t100 244.5t185.5 176t271 64.5q262 0 418 -186l162 209l37 -31l-168 -217q143 -209 143 -545q0 -117 -20.5 -225.5t-66.5 -205.5t-113.5 -170t-168 -115t-223.5 -42q-262 0 -415 187l-158 -203zM201 731 q0 -299 127 -493l798 1034q-147 184 -385 184q-141 0 -249.5 -63.5t-169 -170t-91 -230.5t-30.5 -261zM354 199q143 -180 387 -181q141 0 249 60.5t170.5 164t93 227.5t30.5 261q0 301 -129 500z" />
<glyph unicode="&#xd9;" horiz-adv-x="1482" d="M92 1432v43h440v-43h-215v-955q0 -201 100.5 -330t319.5 -129q430 0 430 496v918h-209v43h433v-43h-177v-916q0 -543 -477 -543q-221 0 -345 127t-124 371v961h-176zM588 1901h82l182 -285h-47z" />
<glyph unicode="&#xda;" horiz-adv-x="1482" d="M92 1432v43h440v-43h-215v-955q0 -201 100.5 -330t319.5 -129q430 0 430 496v918h-209v43h433v-43h-177v-916q0 -543 -477 -543q-221 0 -345 127t-124 371v961h-176zM670 1616l182 285h82l-217 -285h-47z" />
<glyph unicode="&#xdb;" horiz-adv-x="1482" d="M92 1432v43h440v-43h-215v-955q0 -201 100.5 -330t319.5 -129q430 0 430 496v918h-209v43h433v-43h-177v-916q0 -543 -477 -543q-221 0 -345 127t-124 371v961h-176zM530 1624l193 262h76l192 -262h-59l-170 217h-4l-170 -217h-58z" />
<glyph unicode="&#xdc;" horiz-adv-x="1482" d="M92 1432v43h440v-43h-215v-955q0 -201 100.5 -330t319.5 -129q430 0 430 496v918h-209v43h433v-43h-177v-916q0 -543 -477 -543q-221 0 -345 127t-124 371v961h-176zM518 1688v124h88v-124h-88zM874 1688v124h91v-124h-91z" />
<glyph unicode="&#xdd;" horiz-adv-x="1308" d="M66 1432v43h393v-43h-213l405 -758h6l400 758h-205v43h391v-43h-135l-430 -818v-571h252v-43h-555v43h256v571l-445 818h-120zM563 1616l182 285h82l-217 -285h-47z" />
<glyph unicode="&#xde;" horiz-adv-x="1171" d="M92 0v43h195v1389h-195v43h477v-43h-235v-252h276q215 0 320 -82q129 -102 129 -320q0 -203 -117 -313q-109 -104 -315 -105h-293v-317h235v-43h-477zM334 403h284q193 0 291 99q100 102 101 274q0 186 -109 283q-92 80 -299 80h-268v-736z" />
<glyph unicode="&#xdf;" horiz-adv-x="1165" d="M133 0v43h150v1030q0 213 108 328q98 100 252 100q106 0 184 -45q158 -90 158 -313q0 -127 -62.5 -219.5t-183.5 -120.5v-2q145 -27 219 -137.5t74 -260t-57 -247.5q-55 -96 -137 -126t-201 -30h-31v43h31q111 0 178.5 26.5t118.5 112.5q49 84 49 215q0 293 -235 365 q-61 18 -125 16v51q66 -4 114 13q199 61 199 303q0 145 -78 228t-215 83q-139 0 -217 -86q-96 -106 -96 -309v-1018h153v-43h-350z" />
<glyph unicode="&#xe0;" horiz-adv-x="1136" d="M133 281q0 258 246 325q90 23 207 23q139 0 254 -29v127q0 309 -293 309q-291 0 -324 -282h-49q16 168 114.5 247.5t256.5 79.5q154 0 248 -80.5t94 -250.5v-527l2 -180h155v-43h-198l-2 221h-4q-43 -125 -142.5 -186.5t-230.5 -61.5q-154 0 -244 79t-90 229zM182 283 q0 -127 79 -196t212 -69q127 0 217 68t125 190q2 4 5 17.5t4 17.5t4 16.5t4.5 19.5t2.5 22.5t2 30t2 37t1 49v59.5q-125 37 -254 37q-111 0 -195 -23q-209 -55 -209 -276zM395 1481h82l182 -285h-47z" />
<glyph unicode="&#xe1;" horiz-adv-x="1136" d="M133 281q0 258 246 325q90 23 207 23q139 0 254 -29v127q0 309 -293 309q-291 0 -324 -282h-49q16 168 114.5 247.5t256.5 79.5q154 0 248 -80.5t94 -250.5v-527l2 -180h155v-43h-198l-2 221h-4q-43 -125 -142.5 -186.5t-230.5 -61.5q-154 0 -244 79t-90 229zM182 283 q0 -127 79 -196t212 -69q127 0 217 68t125 190q2 4 5 17.5t4 17.5t4 16.5t4.5 19.5t2.5 22.5t2 30t2 37t1 49v59.5q-125 37 -254 37q-111 0 -195 -23q-209 -55 -209 -276zM457 1196l182 285h82l-217 -285h-47z" />
<glyph unicode="&#xe2;" horiz-adv-x="1136" d="M133 281q0 258 246 325q90 23 207 23q139 0 254 -29v127q0 309 -293 309q-291 0 -324 -282h-49q16 168 114.5 247.5t256.5 79.5q154 0 248 -80.5t94 -250.5v-527l2 -180h155v-43h-198l-2 221h-4q-43 -125 -142.5 -186.5t-230.5 -61.5q-154 0 -244 79t-90 229zM182 283 q0 -127 79 -196t212 -69q127 0 217 68t125 190q2 4 5 17.5t4 17.5t4 16.5t4.5 19.5t2.5 22.5t2 30t2 37t1 49v59.5q-125 37 -254 37q-111 0 -195 -23q-209 -55 -209 -276zM317 1204l193 262h76l192 -262h-59l-170 217h-4l-170 -217h-58z" />
<glyph unicode="&#xe3;" horiz-adv-x="1136" d="M133 281q0 258 246 325q90 23 207 23q139 0 254 -29v127q0 309 -293 309q-291 0 -324 -282h-49q16 168 114.5 247.5t256.5 79.5q154 0 248 -80.5t94 -250.5v-527l2 -180h155v-43h-198l-2 221h-4q-43 -125 -142.5 -186.5t-230.5 -61.5q-154 0 -244 79t-90 229zM182 283 q0 -127 79 -196t212 -69q127 0 217 68t125 190q2 4 5 17.5t4 17.5t4 16.5t4.5 19.5t2.5 22.5t2 30t2 37t1 49v59.5q-125 37 -254 37q-111 0 -195 -23q-209 -55 -209 -276zM279 1237q2 70 34.5 122t98 52t146.5 -59.5t116 -59.5q78 0 92 119h49q-2 -70 -36 -122t-99 -52 q-55 0 -136 60.5t-126 60.5q-82 0 -90 -121h-49z" />
<glyph unicode="&#xe4;" horiz-adv-x="1136" d="M133 281q0 258 246 325q90 23 207 23q139 0 254 -29v127q0 309 -293 309q-291 0 -324 -282h-49q16 168 114.5 247.5t256.5 79.5q154 0 248 -80.5t94 -250.5v-527l2 -180h155v-43h-198l-2 221h-4q-43 -125 -142.5 -186.5t-230.5 -61.5q-154 0 -244 79t-90 229zM182 283 q0 -127 79 -196t212 -69q127 0 217 68t125 190q2 4 5 17.5t4 17.5t4 16.5t4.5 19.5t2.5 22.5t2 30t2 37t1 49v59.5q-125 37 -254 37q-111 0 -195 -23q-209 -55 -209 -276zM324 1268v125h88v-125h-88zM680 1268v125h90v-125h-90z" />
<glyph unicode="&#xe5;" horiz-adv-x="1136" d="M133 281q0 258 246 325q90 23 207 23q139 0 254 -29v127q0 309 -293 309q-291 0 -324 -282h-49q16 168 114.5 247.5t256.5 79.5q154 0 248 -80.5t94 -250.5v-527l2 -180h155v-43h-198l-2 221h-4q-43 -125 -142.5 -186.5t-230.5 -61.5q-154 0 -244 79t-90 229zM182 283 q0 -127 79 -196t212 -69q127 0 217 68t125 190q2 4 5 17.5t4 17.5t4 16.5t4.5 19.5t2.5 22.5t2 30t2 37t1 49v59.5q-125 37 -254 37q-111 0 -195 -23q-209 -55 -209 -276zM371 1350q0 76 50 127t126 51q74 0 125 -51.5t51 -126.5q0 -74 -51 -125t-125 -51q-76 0 -126 51 t-50 125zM422 1350q0 -53 36 -91t89 -38q51 0 88 37.5t37 91.5q0 55 -36 93t-89 38t-89 -38t-36 -93z" />
<glyph unicode="&#xe6;" horiz-adv-x="1548" d="M111 283q0 170 143 247q82 45 235 45h246l4 146q6 207 -100 276q-61 39 -158 39q-245 0 -274 -272h-53q16 162 104 239.5t229 77.5q262 0 293 -237h6q72 238 316 237q121 0 196 -63q139 -115 140 -369q0 -59 -8 -119h-642q-2 -86 6.5 -161.5t35 -161.5t93 -137.5 t164.5 -51.5q127 0 204 91.5t87 224.5h52q-10 -152 -104.5 -256.5t-240.5 -104.5q-143 0 -227 90.5t-102 239.5h-6q-35 -150 -120 -240t-220 -90q-139 0 -219 86t-80 224zM160 281q0 -115 67.5 -189t178.5 -74q88 0 153.5 46.5t100 125t53 161.5t22.5 179h-246 q-80 0 -121.5 -6t-93.5 -35q-114 -61 -114 -208zM788 575h594q6 35 7 74q0 223 -119 330q-61 57 -170 57q-86 0 -150.5 -42t-97.5 -112.5t-48.5 -146.5t-15.5 -160z" />
<glyph unicode="&#xe7;" horiz-adv-x="1046" d="M113 518q0 231 104.5 397t319.5 166q250 0 325 -223h6v197h45v-393h-47q-8 104 -38.5 183t-106.5 135t-189 56q-102 0 -176.5 -46t-115.5 -124t-59.5 -166t-18.5 -188q0 -92 20.5 -177t62.5 -158t114.5 -116t166.5 -43q281 0 334 299h49q-27 -158 -117 -244.5t-233 -97.5 l-76 -102l4 -2q84 23 148.5 -15t62.5 -112q-2 -72 -53 -112t-129 -40q-88 0 -170 52l21 41q74 -43 145 -43q51 0 85 27.5t36 74.5q2 61 -66.5 85t-126.5 -7l-20 26l84 127q-135 6 -227.5 90.5t-128 200t-35.5 252.5z" />
<glyph unicode="&#xe8;" horiz-adv-x="1071" d="M113 535q0 150 41 268.5t141 198t250 79.5q147 0 244.5 -83t134.5 -202.5t28 -265.5h-790q0 -96 20.5 -183t62.5 -162.5t118.5 -121t181.5 -45.5q143 0 234 75t118 218h49q-29 -168 -133 -253t-268 -85q-113 0 -199 47.5t-135 128t-73.5 178t-24.5 208.5zM162 575h741 q4 195 -86 328t-278 133q-176 0 -273.5 -129t-103.5 -332zM362 1481h82l183 -285h-47z" />
<glyph unicode="&#xe9;" horiz-adv-x="1071" d="M113 535q0 150 41 268.5t141 198t250 79.5q147 0 244.5 -83t134.5 -202.5t28 -265.5h-790q0 -96 20.5 -183t62.5 -162.5t118.5 -121t181.5 -45.5q143 0 234 75t118 218h49q-29 -168 -133 -253t-268 -85q-113 0 -199 47.5t-135 128t-73.5 178t-24.5 208.5zM162 575h741 q4 195 -86 328t-278 133q-176 0 -273.5 -129t-103.5 -332zM444 1196l183 285h82l-217 -285h-48z" />
<glyph unicode="&#xea;" horiz-adv-x="1071" d="M113 535q0 150 41 268.5t141 198t250 79.5q147 0 244.5 -83t134.5 -202.5t28 -265.5h-790q0 -96 20.5 -183t62.5 -162.5t118.5 -121t181.5 -45.5q143 0 234 75t118 218h49q-29 -168 -133 -253t-268 -85q-113 0 -199 47.5t-135 128t-73.5 178t-24.5 208.5zM162 575h741 q4 195 -86 328t-278 133q-176 0 -273.5 -129t-103.5 -332zM305 1204l193 262h75l193 -262h-59l-170 217h-5l-170 -217h-57z" />
<glyph unicode="&#xeb;" horiz-adv-x="1071" d="M113 535q0 150 41 268.5t141 198t250 79.5q147 0 244.5 -83t134.5 -202.5t28 -265.5h-790q0 -96 20.5 -183t62.5 -162.5t118.5 -121t181.5 -45.5q143 0 234 75t118 218h49q-29 -168 -133 -253t-268 -85q-113 0 -199 47.5t-135 128t-73.5 178t-24.5 208.5zM162 575h741 q4 195 -86 328t-278 133q-176 0 -273.5 -129t-103.5 -332zM311 1268v125h88v-125h-88zM668 1268v125h90v-125h-90z" />
<glyph unicode="&#xec;" horiz-adv-x="604" d="M88 1481h82l182 -285h-47zM133 1012v43h215v-1012h164v-43h-375v43h164v969h-168z" />
<glyph unicode="&#xed;" horiz-adv-x="604" d="M133 1012v43h215v-1012h164v-43h-375v43h164v969h-168zM150 1196l182 285h82l-217 -285h-47z" />
<glyph unicode="&#xee;" horiz-adv-x="604" d="M31 1204l192 262h76l193 -262h-60l-170 217h-4l-170 -217h-57zM133 1012v43h215v-1012h164v-43h-375v43h164v969h-168z" />
<glyph unicode="&#xef;" horiz-adv-x="604" d="M37 1268v125h88v-125h-88zM133 1012v43h215v-1012h164v-43h-375v43h164v969h-168zM393 1268v125h90v-125h-90z" />
<glyph unicode="&#xf0;" horiz-adv-x="1116" d="M113 514.5q0 233.5 108.5 390t323.5 156.5q262 0 370 -246h5q-37 281 -191 447q-55 59 -113 94l-247 -158l-29 37l235 147q-109 59 -251 86l10 39q164 -29 282 -98l181 113l28 -33l-168 -107q61 -43 107 -90q154 -164 194 -415q63 -367 -28 -625q-98 -279 -381 -279 q-213 0 -324.5 154t-111.5 387.5zM162 516q0 -207 98 -352.5t293 -145.5q242 0 332 258q43 121 41 262.5t-45 245.5q-96 229 -340 230q-100 0 -176 -42t-119 -115t-63.5 -159t-20.5 -182z" />
<glyph unicode="&#xf1;" horiz-adv-x="1226" d="M92 1012v43h213l4 -195h6q104 221 330 221q137 0 227 -80q98 -86 99 -270v-688h174v-43h-393v43h172v678q0 162 -82 242q-72 74 -213 73q-104 0 -184 -67.5t-113 -171.5q-18 -63 -19 -129l-4 -625h176v-43h-391v43h168v817l-2 152h-168zM324 1237q2 70 34.5 122t98 52 t146.5 -59.5t116 -59.5q78 0 92 119h49q-2 -70 -35.5 -122t-99.5 -52q-55 0 -136 60.5t-126 60.5q-82 0 -90 -121h-49z" />
<glyph unicode="&#xf2;" horiz-adv-x="1095" d="M113 532q0 147 43 267.5t144 201t247 80.5q147 0 248.5 -80.5t144.5 -200.5t43 -268q0 -113 -23.5 -209t-72.5 -176.5t-136 -127t-204 -46.5q-115 0 -202 46.5t-136 127t-72.5 177t-23.5 208.5zM162 530q0 -100 19.5 -187t62.5 -163t121 -119t182 -43q106 0 184 43 t121 119t62.5 163t19.5 187q0 211 -95.5 358.5t-291.5 147.5q-102 0 -179 -43t-120 -116.5t-64.5 -160.5t-21.5 -186zM395 1481h82l182 -285h-47z" />
<glyph unicode="&#xf3;" horiz-adv-x="1095" d="M113 532q0 147 43 267.5t144 201t247 80.5q147 0 248.5 -80.5t144.5 -200.5t43 -268q0 -113 -23.5 -209t-72.5 -176.5t-136 -127t-204 -46.5q-115 0 -202 46.5t-136 127t-72.5 177t-23.5 208.5zM162 530q0 -100 19.5 -187t62.5 -163t121 -119t182 -43q106 0 184 43 t121 119t62.5 163t19.5 187q0 211 -95.5 358.5t-291.5 147.5q-102 0 -179 -43t-120 -116.5t-64.5 -160.5t-21.5 -186zM436 1196l182 285h82l-217 -285h-47z" />
<glyph unicode="&#xf4;" horiz-adv-x="1095" d="M113 532q0 147 43 267.5t144 201t247 80.5q147 0 248.5 -80.5t144.5 -200.5t43 -268q0 -113 -23.5 -209t-72.5 -176.5t-136 -127t-204 -46.5q-115 0 -202 46.5t-136 127t-72.5 177t-23.5 208.5zM162 530q0 -100 19.5 -187t62.5 -163t121 -119t182 -43q106 0 184 43 t121 119t62.5 163t19.5 187q0 211 -95.5 358.5t-291.5 147.5q-102 0 -179 -43t-120 -116.5t-64.5 -160.5t-21.5 -186zM317 1204l193 262h76l192 -262h-59l-170 217h-4l-170 -217h-58z" />
<glyph unicode="&#xf5;" horiz-adv-x="1095" d="M113 532q0 147 43 267.5t144 201t247 80.5q147 0 248.5 -80.5t144.5 -200.5t43 -268q0 -113 -23.5 -209t-72.5 -176.5t-136 -127t-204 -46.5q-115 0 -202 46.5t-136 127t-72.5 177t-23.5 208.5zM162 530q0 -100 19.5 -187t62.5 -163t121 -119t182 -43q106 0 184 43 t121 119t62.5 163t19.5 187q0 211 -95.5 358.5t-291.5 147.5q-102 0 -179 -43t-120 -116.5t-64.5 -160.5t-21.5 -186zM279 1237q2 70 34.5 122t98 52t146.5 -59.5t116 -59.5q78 0 92 119h49q-2 -70 -36 -122t-99 -52q-55 0 -136 60.5t-126 60.5q-82 0 -90 -121h-49z" />
<glyph unicode="&#xf6;" horiz-adv-x="1095" d="M113 532q0 147 43 267.5t144 201t247 80.5q147 0 248.5 -80.5t144.5 -200.5t43 -268q0 -113 -23.5 -209t-72.5 -176.5t-136 -127t-204 -46.5q-115 0 -202 46.5t-136 127t-72.5 177t-23.5 208.5zM162 530q0 -100 19.5 -187t62.5 -163t121 -119t182 -43q106 0 184 43 t121 119t62.5 163t19.5 187q0 211 -95.5 358.5t-291.5 147.5q-102 0 -179 -43t-120 -116.5t-64.5 -160.5t-21.5 -186zM324 1268v125h88v-125h-88zM680 1268v125h90v-125h-90z" />
<glyph unicode="&#xf7;" d="M131 500v53h1047v-53h-1047zM563 88q0 35 26.5 60.5t61.5 25.5t60.5 -25.5t25.5 -60.5t-25.5 -61.5t-60.5 -26.5t-61.5 26.5t-26.5 61.5zM563 969q0 35 26.5 60.5t61.5 25.5t60.5 -25.5t25.5 -60.5t-25.5 -61.5t-60.5 -26.5t-61.5 26.5t-26.5 61.5z" />
<glyph unicode="&#xf8;" horiz-adv-x="1110" d="M113 -14l116 149q-104 147 -104 397q0 229 110.5 389t325.5 160q188 0 301 -129l101 131l34 -26l-106 -139q106 -147 106 -386q0 -113 -23.5 -209t-72.5 -176.5t-136 -127t-204 -46.5q-190 0 -303 129l-111 -143zM176 530q0 -223 84 -354l571 739q-100 121 -270 121 q-102 0 -179 -43t-120 -116.5t-64.5 -161t-21.5 -185.5zM287 139q98 -121 274 -121q106 0 184 43t121 119t62.5 163t19.5 187q0 213 -88 349z" />
<glyph unicode="&#xf9;" horiz-adv-x="1236" d="M92 1012v43h221v-721q0 -162 80 -242q72 -74 213 -74q106 0 185 68t112 174q20 70 21 129l2 623h-174v43h221v-860l2 -152h170v-43h-215l-4 195h-6q-106 -221 -330 -222q-137 0 -228 80q-96 86 -96 273v686h-174zM414 1481h82l182 -285h-47z" />
<glyph unicode="&#xfa;" horiz-adv-x="1236" d="M92 1012v43h221v-721q0 -162 80 -242q72 -74 213 -74q106 0 185 68t112 174q20 70 21 129l2 623h-174v43h221v-860l2 -152h170v-43h-215l-4 195h-6q-106 -221 -330 -222q-137 0 -228 80q-96 86 -96 273v686h-174zM506 1196l182 285h82l-217 -285h-47z" />
<glyph unicode="&#xfb;" horiz-adv-x="1236" d="M92 1012v43h221v-721q0 -162 80 -242q72 -74 213 -74q106 0 185 68t112 174q20 70 21 129l2 623h-174v43h221v-860l2 -152h170v-43h-215l-4 195h-6q-106 -221 -330 -222q-137 0 -228 80q-96 86 -96 273v686h-174zM367 1204l192 262h76l192 -262h-59l-170 217h-4 l-170 -217h-57z" />
<glyph unicode="&#xfc;" horiz-adv-x="1236" d="M92 1012v43h221v-721q0 -162 80 -242q72 -74 213 -74q106 0 185 68t112 174q20 70 21 129l2 623h-174v43h221v-860l2 -152h170v-43h-215l-4 195h-6q-106 -221 -330 -222q-137 0 -228 80q-96 86 -96 273v686h-174zM375 1268v125h88v-125h-88zM731 1268v125h90v-125h-90z " />
<glyph unicode="&#xfd;" horiz-adv-x="1208" d="M86 1012v43h332v-43h-174l360 -910h2l350 910h-161v43h331v-43h-122l-504 -1315h125v-43h-312v43h136l133 342l-387 973h-109zM512 1196l182 285h82l-217 -285h-47z" />
<glyph unicode="&#xfe;" horiz-adv-x="1216" d="M92 -299h170l4 1731h-174v43h221v-625h4q39 113 135.5 172t217.5 59q209 0 321.5 -160.5t112.5 -396.5q0 -227 -110.5 -389t-325.5 -162q-127 0 -217.5 65.5t-133.5 184.5h-4l-4 -522h180v-43h-397v43zM313 528q0 -86 6 -139q20 -166 109.5 -268.5t245.5 -102.5 q98 0 175 45.5t120 120t64.5 162.5t21.5 182q0 129 -36 240t-127 189.5t-222 78.5q-145 0 -237.5 -88t-110.5 -239q-8 -80 -9 -181z" />
<glyph unicode="&#xff;" horiz-adv-x="1208" d="M86 1012v43h332v-43h-174l360 -910h2l350 910h-161v43h331v-43h-122l-504 -1315h125v-43h-312v43h136l133 342l-387 973h-109zM401 1268v125h88v-125h-88zM758 1268v125h90v-125h-90z" />
<glyph unicode="&#x152;" horiz-adv-x="1943" d="M131 731q0 156 34 290t104.5 243.5t191.5 173t280 63.5q63 0 165 -13t149 -13h706v-439h-47v394h-645v-658h367v266h47v-585h-47v278h-367v-686h653v410h47v-455h-720q-49 0 -143.5 -13.5t-164.5 -13.5q-160 0 -280.5 60.5t-190 167t-104.5 239.5t-35 291zM178 729 q0 -137 30 -258t93.5 -226.5t176 -168t263.5 -62.5q63 0 155.5 15.5t125.5 17.5v1383q-16 2 -117.5 16t-163.5 14q-121 0 -217 -41t-159.5 -110.5t-106.5 -164.5t-61.5 -197.5t-18.5 -217.5z" />
<glyph unicode="&#x153;" horiz-adv-x="1662" d="M113 528.5q0 94.5 21.5 186.5t66.5 177t129 137t192 52q133 0 224.5 -84t125.5 -233h5q74 317 340 317q121 0 198 -63q137 -117 137 -369q0 -51 -6 -119h-643q-10 -512 299 -512q127 0 206 92.5t91 223.5h49q-10 -152 -106.5 -256.5t-241.5 -104.5q-135 0 -218 81 t-108 218h-6q-35 -143 -125 -221t-221 -78q-109 0 -191.5 53.5t-127.5 138.5t-67.5 177t-22.5 186.5zM162 528.5q0 -122.5 34.5 -234.5t119.5 -194t206 -82q90 0 156.5 42t102.5 117t52.5 162t16.5 189.5t-16.5 188.5t-52.5 160.5t-102.5 116.5t-156.5 42q-123 0 -208 -83 t-118.5 -192.5t-33.5 -232zM903 575h596q4 45 4 74q0 227 -117 330q-63 57 -172 57q-111 0 -184.5 -75.5t-100 -174t-26.5 -211.5z" />
<glyph unicode="&#x178;" horiz-adv-x="1308" d="M66 1432v43h393v-43h-213l405 -758h6l400 758h-205v43h391v-43h-135l-430 -818v-571h252v-43h-555v43h256v571l-445 818h-120zM451 1688v124h88v-124h-88zM807 1688v124h90v-124h-90z" />
<glyph unicode="&#x2c6;" horiz-adv-x="583" d="M61 1204l193 262h76l192 -262h-59l-170 217h-4l-170 -217h-58z" />
<glyph unicode="&#x2dc;" horiz-adv-x="659" d="M61 1237q2 70 35 122t98.5 52t146.5 -59.5t116 -59.5q78 0 92 119h49q-2 -70 -36 -122t-99 -52q-55 0 -136 60.5t-126 60.5q-82 0 -90 -121h-50z" />
<glyph unicode="&#x2000;" horiz-adv-x="974" />
<glyph unicode="&#x2001;" horiz-adv-x="1948" />
<glyph unicode="&#x2002;" horiz-adv-x="974" />
<glyph unicode="&#x2003;" horiz-adv-x="1948" />
<glyph unicode="&#x2004;" horiz-adv-x="649" />
<glyph unicode="&#x2005;" horiz-adv-x="487" />
<glyph unicode="&#x2006;" horiz-adv-x="324" />
<glyph unicode="&#x2007;" horiz-adv-x="324" />
<glyph unicode="&#x2008;" horiz-adv-x="243" />
<glyph unicode="&#x2009;" horiz-adv-x="389" />
<glyph unicode="&#x200a;" horiz-adv-x="108" />
<glyph unicode="&#x2010;" horiz-adv-x="798" d="M113 537v53h573v-53h-573z" />
<glyph unicode="&#x2011;" horiz-adv-x="798" d="M113 537v53h573v-53h-573z" />
<glyph unicode="&#x2012;" horiz-adv-x="798" d="M113 537v53h573v-53h-573z" />
<glyph unicode="&#x2013;" horiz-adv-x="1236" d="M113 539v47h1011v-47h-1011z" />
<glyph unicode="&#x2014;" horiz-adv-x="2271" d="M113 543v41h2046v-41h-2046z" />
<glyph unicode="&#x2018;" horiz-adv-x="368" d="M113 1087v109l98 279h45l-90 -271h43v-117h-96z" />
<glyph unicode="&#x2019;" horiz-adv-x="368" d="M113 1087l88 273h-41v115h96v-109l-100 -279h-43z" />
<glyph unicode="&#x201a;" horiz-adv-x="354" d="M113 -260l84 260h-41v109h86v-111l-86 -258h-43z" />
<glyph unicode="&#x201c;" horiz-adv-x="657" d="M113 1087v109l98 279h45l-90 -271h43v-117h-96zM401 1087v109l99 279h45l-90 -271h43v-117h-97z" />
<glyph unicode="&#x201d;" horiz-adv-x="657" d="M113 1087l88 273h-41v115h96v-109l-100 -279h-43zM401 1087l91 273h-43v115h96v-109l-99 -279h-45z" />
<glyph unicode="&#x201e;" horiz-adv-x="657" d="M113 -270l88 270h-41v115h96v-109l-100 -276h-43zM401 -270l91 270h-43v115h96v-109l-99 -276h-45z" />
<glyph unicode="&#x2022;" horiz-adv-x="970" d="M186 741q0 125 86 211t209 86q125 0 211 -86t86 -211q0 -123 -86 -210t-211 -87q-123 0 -209 87t-86 210z" />
<glyph unicode="&#x2026;" horiz-adv-x="1873" d="M215 0v115h90v-115h-90zM891 0v115h92v-115h-92zM1569 0v115h90v-115h-90z" />
<glyph unicode="&#x202f;" horiz-adv-x="389" />
<glyph unicode="&#x2039;" horiz-adv-x="540" d="M113 561l170 455h45l-162 -455l164 -457h-43z" />
<glyph unicode="&#x203a;" horiz-adv-x="540" d="M211 104l164 457l-162 455h45l170 -455l-174 -457h-43z" />
<glyph unicode="&#x205f;" horiz-adv-x="487" />
<glyph unicode="&#x20ac;" horiz-adv-x="1540" d="M92 588v49h236q-4 37 -4 111q0 49 2 73h-234v47h238q12 127 49 235.5t102.5 201t173 144.5t246.5 52q328 0 432 -309h2v283h47v-506h-45q-16 215 -125.5 351t-312.5 136q-240 0 -368 -168t-152 -420h467v-47h-471q-2 -25 -2 -73q0 -37 4 -111h469v-49h-463 q14 -115 50 -212t95.5 -180t154.5 -130.5t214 -47.5q182 0 305 123t135 330h49q-12 -221 -139 -359.5t-354 -138.5q-133 0 -236.5 50.5t-168 139.5t-102.5 194.5t-54 230.5h-240z" />
<glyph unicode="&#x2122;" horiz-adv-x="1376" d="M113 1284v191h448v-191h-39v152h-166v-527h97v-39h-238v39h98v527h-161v-152h-39zM604 870v39h82v527h-82v39h156l174 -543h4l172 543h154v-39h-80v-527h80v-39h-193v39h72v525h-2l-180 -570h-48l-184 570h-2v-525h72v-39h-195z" />
</font>
</defs>
</svg>
