<?xml version="1.0" standalone="no"?>
<!DOCTYPE svg PUBLIC "-//W3C//DTD SVG 1.1//EN" "http://www.w3.org/Graphics/SVG/1.1/DTD/svg11.dtd" >
<svg xmlns="http://www.w3.org/2000/svg">
<metadata></metadata>
<defs>
<font id="westpac_helparegular" horiz-adv-x="1331" >
<font-face units-per-em="2048" ascent="1677" descent="-371" />
<missing-glyph horiz-adv-x="563" />
<glyph unicode="&#xfb01;" horiz-adv-x="1175" d="M92 0v84h172v893h-162v86h162v92q0 193 107 277q90 72 229 71q137 0 222 -73.5t91 -210.5h-110q-8 92 -61.5 145t-145.5 53q-106 0 -162.5 -66.5t-56.5 -174.5v-113h553v-979h164v-84h-426v84h149v893h-440v-893h168v-84h-453z" />
<glyph unicode="&#xfb02;" horiz-adv-x="1196" d="M92 0v84h172v893h-162v86h162v72q0 195 96 282q88 86 279 86q63 0 168.5 -14t120.5 -14v-1391h166v-84h-426v84h147v1307q-92 27 -174 26q-264 0 -264 -256v-98h213v-86h-213v-893h170v-84h-455z" />
<glyph horiz-adv-x="0" />
<glyph horiz-adv-x="0" />
<glyph horiz-adv-x="682" />
<glyph unicode="&#xd;" horiz-adv-x="681" />
<glyph unicode=" "  horiz-adv-x="563" />
<glyph unicode="&#x09;" horiz-adv-x="563" />
<glyph unicode="&#xa0;" horiz-adv-x="563" />
<glyph unicode="!" horiz-adv-x="563" d="M307 0v152h154v-152h-154zM311 1475h148l-33 -1158h-84z" />
<glyph unicode="&#x22;" horiz-adv-x="647" d="M100 1487h129l-18 -529h-94zM418 1487h129l-17 -529h-94z" />
<glyph unicode="#" horiz-adv-x="1196" d="M102 477v101h222l43 327h-207v99h219l65 471h101l-66 -471h303l66 471h98l-65 -471h213v-99h-226l-43 -327h209v-101h-223l-63 -477h-101l64 477h-303l-64 -477h-98l63 477h-207zM422 578h301l45 327h-301z" />
<glyph unicode="$" horiz-adv-x="1089" d="M102 0v508h103q8 -172 76.5 -297t222.5 -150v648l-117 47q-137 55 -210 135t-73 213q0 184 105.5 287.5t294.5 113.5v172h80v-182q178 -33 268 -197h6v177h98v-500h-104q-12 375 -268 432v-602l102 -39q143 -55 222 -139t79 -236q0 -188 -109.5 -302t-293.5 -118v-194 h-80v194q-231 39 -299 234h-4v-205h-99zM223 1124q0 -178 201 -258l80 -32v579q-123 -2 -202 -85t-79 -204zM584 63q127 8 204.5 97.5t77.5 230.5q0 109 -61 168.5t-174 102.5l-47 18v-617z" />
<glyph unicode="%" horiz-adv-x="1626" d="M184 1114q0 100 19.5 181t82 144.5t160.5 63.5q78 0 132.5 -36.5t80 -99t37 -126t11.5 -137.5q0 -72 -11.5 -134.5t-39 -122t-81 -94t-129 -34.5t-131 36t-82 97t-38 124.5t-11.5 137.5zM283 1112q0 -313 163.5 -313t163.5 313t-163.5 313t-163.5 -313zM389 -29l750 1532 h100l-750 -1532h-100zM918 369q0 72 12 135t39.5 122.5t82 94.5t130.5 35q78 0 132 -37t79.5 -99.5t37 -125t11.5 -136.5q0 -72 -11.5 -135t-39 -122.5t-81 -94.5t-128.5 -35q-78 0 -132.5 36t-82 97.5t-38.5 126t-11 138.5zM1018 364.5q0 -313.5 164 -313.5t164 313.5 t-164 313.5t-164 -313.5z" />
<glyph unicode="&#x26;" horiz-adv-x="1540" d="M123 397q0 150 86 252.5t237 179.5l-92 111q-117 141 -116 262q0 137 97 219t238 82q143 0 238.5 -80t95.5 -221q0 -229 -303 -391l397 -453q123 193 107 506h319v-96h-206q-18 -297 -150 -487l162 -187h205v-94h-279l-155 186q-188 -215 -457 -215q-197 0 -310.5 116 t-113.5 310zM244 395q0 -143 87 -238.5t226 -95.5q221 0 381 203l-430 498q-129 -76 -196.5 -159t-67.5 -208zM362 1204.5q0 -98.5 109 -231.5l76 -94q248 150 248 323q0 100 -58.5 157.5t-161.5 57.5q-96 0 -154.5 -57t-58.5 -155.5z" />
<glyph unicode="'" horiz-adv-x="329" d="M100 1487h129l-18 -529h-94z" />
<glyph unicode="(" horiz-adv-x="563" d="M61 594q0 184 64.5 429t234.5 505h101q-285 -445 -285 -934q0 -487 285 -936h-101q-170 260 -234.5 506t-64.5 430z" />
<glyph unicode=")" horiz-adv-x="563" d="M102 -342q285 449 285 936q0 489 -285 934h101q168 -262 233.5 -507t65.5 -427t-65.5 -428t-233.5 -508h-101z" />
<glyph unicode="*" horiz-adv-x="870" d="M102 1192l37 121l258 -123l4 2l-26 311h121l-25 -311l4 -2l256 123l37 -119l-270 -74l-2 -6l190 -223l-100 -76l-148 258h-4l-151 -258l-99 74l191 225l-2 6z" />
<glyph unicode="+" d="M143 473v113h465v477h113v-477h467v-113h-467v-473h-113v473h-465z" />
<glyph unicode="," horiz-adv-x="593" d="M205 -262l90 262h-70v152h164v-142l-100 -272h-84z" />
<glyph unicode="-" horiz-adv-x="794" d="M102 508v115h590v-115h-590z" />
<glyph unicode="." horiz-adv-x="563" d="M205 0v152h153v-152h-153z" />
<glyph unicode="/" horiz-adv-x="800" d="M41 -143l608 1671h111l-606 -1671h-113z" />
<glyph unicode="0" horiz-adv-x="1120" d="M123 723q0 111 9 210t39 207.5t76 185.5t127 127t185 50q106 0 187 -50t127.5 -127t75 -185.5t38.5 -207.5t10 -210q0 -104 -8 -196.5t-36.5 -199t-73.5 -181t-128 -125t-191.5 -50.5t-190.5 50.5t-127 125t-74 181t-37 198.5t-8 197zM246 737q0 -676 313 -676 q63 0 113.5 28t82 68t55.5 103.5t35 118.5t18 131t8 121t1 106q0 106 -9 200.5t-37.5 213.5t-97.5 190.5t-169 71.5q-82 0 -142.5 -51t-92 -123t-50 -173t-23.5 -175t-5 -154z" />
<glyph unicode="1" horiz-adv-x="1093" d="M205 1057v131q152 115 305 293h123v-1397h215v-84h-553v84h227v1274h-6q-88 -135 -311 -301z" />
<glyph unicode="2" horiz-adv-x="1099" d="M102 0v145l467 543q231 266 232 442q0 117 -69.5 195t-186.5 78q-135 0 -211 -95.5t-88 -244.5h-119q4 78 36 170t87 149q115 121 295 121q170 0 270 -96q109 -104 109 -279q0 -100 -54.5 -203.5t-169.5 -240.5l-493 -578v-10h639v238h110v-334h-854z" />
<glyph unicode="3" horiz-adv-x="1077" d="M143 410h117q0 -141 78 -240.5t209 -99.5q133 0 213 96t80 229q0 154 -97.5 227.5t-261.5 77.5v99q162 4 254 76.5t90 226.5q-2 129 -77.5 217t-200.5 88q-123 0 -193.5 -90t-83.5 -234h-118q4 209 137 328q102 92 254 92q180 0 290.5 -111.5t110.5 -293.5 q0 -135 -78 -232.5t-209 -115.5v-7q139 -18 218 -114.5t79 -241.5q0 -188 -110.5 -302t-301 -114t-295 124.5t-104.5 314.5z" />
<glyph unicode="4" horiz-adv-x="1187" d="M102 422v143l609 916h149v-967h205v-92h-205v-338h205v-84h-543v84h228v338h-648zM199 514h551v846h-9l-542 -840v-6z" />
<glyph unicode="5" horiz-adv-x="1132" d="M164 387h112q8 -152 89 -234.5t204 -82.5q156 0 233 119.5t77 283.5q0 156 -75 263.5t-222 107.5q-217 0 -291 -240l-113 12l29 859h727v-97h-617l-26 -598h4q90 164 286.5 164t302 -129t105.5 -332q0 -227 -107.5 -369.5t-324.5 -142.5q-182 0 -287.5 116t-105.5 300z " />
<glyph unicode="6" horiz-adv-x="1138" d="M143 612q0 139 6.5 234.5t44 241t109.5 247.5q115 168 318 168q170 0 266 -105.5t98 -279.5h-113q-4 127 -68.5 209t-178.5 82q-100 0 -176 -68.5t-112 -154.5t-52 -187q-29 -162 -29 -305h2q96 229 344 230q190 0 291.5 -140.5t101.5 -320.5q0 -215 -113.5 -353.5 t-320.5 -138.5q-211 0 -315 170q-103 164 -103 471zM270 446q0 -154 80 -265t227.5 -111t227.5 112.5t80 266t-79 263t-228 109.5q-147 0 -227.5 -114t-80.5 -261z" />
<glyph unicode="7" horiz-adv-x="1089" d="M133 1116v359h875v-111l-490 -1280h148v-84h-416v84h145l500 1288v8h-649v-264h-113z" />
<glyph unicode="8" horiz-adv-x="1134" d="M143 383q0 141 75 245.5t212 133.5v4q-133 33 -198.5 129t-65.5 238q0 168 113.5 269t287.5 101q172 0 286 -101.5t114 -268.5q0 -141 -65.5 -237.5t-199.5 -129.5v-4q137 -29 213 -133.5t76 -245.5q0 -186 -114.5 -299t-309 -113t-309.5 113t-115 299zM260 391 q0 -145 78 -235t229 -90q150 0 227.5 90t77.5 235q0 143 -81 234.5t-224 91.5q-145 0 -226 -91t-81 -235zM287 1112q0 -131 75.5 -213t204.5 -82t204 82t75 213t-76 215t-203 84t-203.5 -85t-76.5 -214z" />
<glyph unicode="9" horiz-adv-x="1142" d="M143 1008q0 217 107.5 356t312.5 139q199 0 309 -149q121 -160 127 -477q0 -141 -3 -220t-25.5 -203t-67.5 -223q-115 -260 -358 -260q-176 0 -273 103q-98 98 -104 274h113q10 -125 74.5 -203.5t174.5 -78.5q117 0 193 83.5t115 206.5q51 174 49 432h-2 q-96 -236 -338 -235q-203 0 -309 149q-94 133 -95 306zM254 1032q0 -154 79 -265.5t226 -111.5q154 0 231.5 112.5t77.5 264.5q0 150 -83 261.5t-228 111.5t-224 -111.5t-79 -261.5z" />
<glyph unicode=":" horiz-adv-x="563" d="M205 0v152h153v-152h-153zM205 879v151h153v-151h-153z" />
<glyph unicode=";" horiz-adv-x="593" d="M205 -262l90 262h-70v152h164v-142l-100 -272h-84zM229 879v151h156v-151h-156z" />
<glyph unicode="&#x3c;" d="M143 473v113l1045 487v-112l-916 -429v-4l916 -430v-112z" />
<glyph unicode="=" d="M143 276v117h1045v-117h-1045zM143 666v116h1045v-116h-1045z" />
<glyph unicode="&#x3e;" d="M143 -14v112l916 430v4l-916 429v112l1045 -487v-113z" />
<glyph unicode="?" horiz-adv-x="1093" d="M201 1110q4 178 109.5 285.5t289.5 107.5q178 0 283.5 -98t105.5 -268q0 -188 -133 -328l-133 -137q-68 -70 -90.5 -123t-22.5 -125v-107h-118v134q0 143 98 241l168 176q108 115 108 265q0 123 -70.5 199.5t-197.5 76.5q-135 0 -203 -86q-66 -82 -71 -213h-123zM469 0 v152h156v-152h-156z" />
<glyph unicode="@" horiz-adv-x="1988" d="M246 719q0 326 233.5 555t558.5 229q295 0 509 -176t214 -461q0 -129 -55 -256q-63 -145 -172 -237t-246 -92q-141 0 -155 139h-7q-121 -137 -278 -137q-131 0 -205 91t-74 230q0 217 138.5 398.5t345.5 181.5q176 0 225 -166h6q18 43 59 129h113q-74 -154 -151 -399 q-68 -225 -68 -285q0 -82 80 -82q72 0 149 68q82 72 134.5 191.5t52.5 225.5q0 240 -183.5 390.5t-431.5 150.5q-283 0 -482.5 -206t-199.5 -492q0 -313 186.5 -488.5t504.5 -175.5q164 0 316.5 71.5t256.5 198.5h119q-104 -172 -295 -271t-397 -99q-373 0 -587 200.5 t-214 573.5zM682 610q0 -98 49 -163.5t146 -65.5q90 0 175 94t134 236q18 51 24.5 111.5t-1 121t-47.5 101t-107 40.5q-160 0 -266.5 -154.5t-106.5 -320.5z" />
<glyph unicode="A" horiz-adv-x="1599" d="M82 0v84h123l516 1397h153l519 -1397h125v-84h-457v84h207l-160 448h-621l-157 -448h209v-84h-457zM522 616h553l-274 766h-6z" />
<glyph unicode="B" horiz-adv-x="1310" d="M82 0v84h205v1307h-205v84h698q180 0 277 -105q86 -96 86 -246q0 -145 -71 -247.5t-204 -112.5v-4h5q137 0 221 -100q84 -102 84 -250q0 -170 -111 -287q-121 -123 -322 -123h-663zM399 88h306q186 0 276 102q76 88 76 220q0 137 -83 219t-222 82h-353v-623zM399 799h297 q195 0 269 112q55 84 55 189q0 129 -68 205q-71 81 -199 81h-3h-351v-587z" />
<glyph unicode="C" horiz-adv-x="1456" d="M123 737q0 211 68.5 380t218 277.5t360.5 108.5q139 0 245.5 -60.5t160.5 -182.5h6v215h96v-514h-96q-6 90 -29 163q-43 133 -148.5 208t-246.5 75q-279 0 -418 -246q-94 -166 -94 -428q0 -172 49 -316.5t169 -245.5t294 -101q356 0 411 419h123q-14 -186 -114 -323 q-139 -195 -420 -195q-162 0 -286 61.5t-198.5 170t-112.5 243.5t-38 291z" />
<glyph unicode="D" horiz-adv-x="1470" d="M82 0v84h205v1307h-205v84h586q307 0 483 -179q197 -203 197 -561t-205 -561q-180 -174 -477 -174h-584zM399 88h248q270 0 418 162q164 178 164 485q0 311 -160 486q-155 165 -427 165h-3h-240v-1298z" />
<glyph unicode="E" horiz-adv-x="1335" d="M82 0v84h205v1307h-205v84h1079v-435h-100v346h-662v-587h361v239h100v-579h-100v252h-361v-623h672v369h100v-457h-1089z" />
<glyph unicode="F" horiz-adv-x="1230" d="M82 0v84h205v1307h-205v84h1046v-449h-98v360h-631v-618h349v242h98v-572h-98v242h-349v-596h252v-84h-569z" />
<glyph unicode="G" horiz-adv-x="1579" d="M123 739q0 158 40 293t118.5 241.5t205.5 168t291 61.5q305 0 414 -243h6v215h96v-514h-96q-12 205 -124.5 325.5t-303.5 120.5q-176 0 -297 -94t-174 -241.5t-53 -336.5q0 -369 203 -555q122 -110 304 -110h3q203 0 325 133q111 119 111 358v76h-238v86h523v-86h-172 v-637h-103l-4 233h-6q-14 -41 -43 -79q-63 -90 -170 -136.5t-219 -46.5q-209 0 -357.5 111t-214 280.5t-65.5 376.5z" />
<glyph unicode="H" horiz-adv-x="1564" d="M82 0v84h205v1307h-205v84h522v-84h-205v-590h766v590h-204v84h522v-84h-205v-1307h205v-84h-522v84h204v623h-766v-623h205v-84h-522z" />
<glyph unicode="I" horiz-adv-x="747" d="M113 0v84h204v1307h-204v84h522v-84h-205v-1307h205v-84h-522z" />
<glyph unicode="J" horiz-adv-x="1095" d="M123 449h119q-1 -20 -1 -39q0 -338 236 -338q117 0 176 80q57 80 58 217v1022h-205v84h477v-84h-160v-1026q0 -190 -86 -291q-88 -102 -258 -103q-289 0 -344 287q-12 66 -12 191z" />
<glyph unicode="K" horiz-adv-x="1368" d="M82 0v84h205v1307h-205v84h524v-84h-207v-600l602 593v7h-174v84h422v-84h-96l-618 -607l622 -700h109v-84h-420v84h164v4l-611 690v-694h207v-84h-524z" />
<glyph unicode="L" horiz-adv-x="1210" d="M82 0v84h205v1307h-205v84h573v-84h-256v-1303h613v383h96v-471h-1026z" />
<glyph unicode="M" horiz-adv-x="1888" d="M82 0v84h205v1307h-205v84h407l449 -1307h8l451 1307h409v-84h-204v-1307h204v-84h-501v84h182l4 1307h-8l-490 -1391h-102l-488 1391h-8l4 -1307h183v-84h-500z" />
<glyph unicode="N" horiz-adv-x="1579" d="M82 0v84h205v1307h-205v84h397l725 -1350h6l-4 1266h-207v84h498v-84h-176v-1391h-170l-750 1391h-6l4 -1307h207v-84h-524z" />
<glyph unicode="O" horiz-adv-x="1527" d="M123 737q0 156 40 292t116.5 243.5t202.5 169t286 61.5q209 0 356.5 -109.5t214 -279.5t66.5 -381q0 -154 -39 -290t-115.5 -242.5t-201.5 -168t-283 -61.5q-213 0 -361.5 108.5t-215 277.5t-66.5 380zM246 737q0 -133 27.5 -247.5t85 -213t162 -154.5t245.5 -56 q137 0 240.5 56t161 153.5t85 212t27.5 245.5q0 133 -27.5 249t-85 215t-160 156.5t-241.5 57.5t-242.5 -57.5t-163 -154.5t-87 -213t-27.5 -249z" />
<glyph unicode="P" horiz-adv-x="1243" d="M82 0v84h205v1307h-205v84h620q170 0 279 -78q160 -119 160 -334q0 -207 -115 -315q-111 -111 -332 -111h-295v-553h244v-84h-561zM399 721h287q172 0 254 98q76 92 76 244q0 170 -107 254q-87 69 -239 69h-4h-267v-665z" />
<glyph unicode="Q" horiz-adv-x="1595" d="M123 737q0 156 40 292t116.5 243.5t202.5 169t286 61.5q209 0 356.5 -109.5t214 -279.5t66.5 -381q0 -205 -70.5 -378t-216.5 -271v-4q146 27 326 27q29 0 59 -1v-118q-139 12 -354 12q-76 0 -197 -14.5t-186 -14.5q-213 0 -361.5 108.5t-215 277.5t-66.5 380zM246 737 q0 -135 27.5 -250.5t85 -214t162 -156t245.5 -57.5q137 0 240.5 56.5t161 155t85 214t27.5 248.5t-27.5 249t-85 215t-160 156.5t-241.5 57.5t-242.5 -57.5t-163 -154.5t-87 -213t-27.5 -249z" />
<glyph unicode="R" horiz-adv-x="1392" d="M82 0v84h205v1307h-205v84h635q176 0 274 -76q133 -98 133 -328q0 -131 -76.5 -234.5t-203.5 -117.5v-4q78 -16 122 -72.5t70 -150.5l119 -408h145v-84h-245l-109 412q-33 137 -100 204q-63 63 -172 64h-275v-596h209v-84h-526zM399 768h287q141 0 227 81t86 220 q0 166 -88 244q-81 73 -247 73h-5h-260v-618z" />
<glyph unicode="S" horiz-adv-x="1234" d="M174 0v504h96q29 -444 348 -445q152 0 235 90.5t83 243.5q0 51 -11.5 86t-46 76t-109.5 79t-194 77q-78 27 -123.5 44t-106 51t-92.5 70.5t-55.5 95t-23.5 130.5q0 184 110.5 292.5t293.5 108.5q244 0 350 -203h4v175h98v-498h-98q-4 90 -22.5 163.5t-56.5 139.5 q-39 66 -105 102q-63 34 -146 33h-10q-133 -4 -214 -86t-81 -213q0 -125 83 -188.5t245 -114.5q84 -27 131 -44t113.5 -52t102.5 -75t62.5 -104.5t26.5 -144.5q0 -188 -109.5 -305t-296.5 -117q-305 0 -381 228h-4v-199h-96z" />
<glyph unicode="T" horiz-adv-x="1351" d="M113 1018v457h1126v-457h-96v366h-410v-1300h244v-84h-600v84h244v1300h-410v-366h-98z" />
<glyph unicode="U" horiz-adv-x="1476" d="M82 1391v84h481v-84h-221v-869q0 -195 80 -313q100 -147 313 -147q1 0 1 -1q212 0 313 148q80 115 79 313v869h-223v84h490v-84h-152v-867q0 -248 -108 -389q-130 -162 -400 -162q-272 0 -397 162q-109 141 -109 389v867h-147z" />
<glyph unicode="V" horiz-adv-x="1505" d="M61 1391v84h471v-84h-219l439 -1274h4l438 1274h-221v84h471v-84h-127l-496 -1397h-137l-496 1397h-127z" />
<glyph unicode="W" horiz-adv-x="2025" d="M72 1391v84h469v-84h-230l275 -1272h6l338 1362h164l338 -1362h6l274 1272h-217v84h459v-84h-127l-314 -1397h-155l-344 1374h-4l-344 -1374h-156l-313 1397h-125z" />
<glyph unicode="X" horiz-adv-x="1515" d="M72 0v84h133l485 694l-434 613h-145v84h473v-84h-191l375 -535l373 535h-195v84h461v-84h-147l-431 -621l478 -686h137v-84h-498v84h223l-419 608l-420 -608h225v-84h-483z" />
<glyph unicode="Y" horiz-adv-x="1370" d="M55 1391v84h465v-84h-219l381 -662h4l377 662h-195v84h447v-84h-127l-447 -775v-532h242v-84h-596v84h242v532l-449 775h-125z" />
<glyph unicode="Z" horiz-adv-x="1271" d="M123 0v127l901 1251v6h-778v-346h-99v437h983v-129l-901 -1252v-4h822v365h98v-455h-1026z" />
<glyph unicode="[" horiz-adv-x="514" d="M102 -342v1870h269v-84h-156v-1700h156v-86h-269z" />
<glyph unicode="\" horiz-adv-x="800" d="M41 1528h111l608 -1671h-113z" />
<glyph unicode="]" horiz-adv-x="514" d="M143 -256h154v1700h-154v84h269v-1870h-269v86z" />
<glyph unicode="^" d="M188 707l435 796h88l432 -796h-119l-354 653h-8l-355 -653h-119z" />
<glyph unicode="_" horiz-adv-x="1024" d="M-6 -154h1036v-102h-1036v102z" />
<glyph unicode="`" horiz-adv-x="468" d="M61 1495h166l181 -278h-111z" />
<glyph unicode="a" horiz-adv-x="1126" d="M123 285q0 350 465 350q82 0 203 -14v106q0 152 -82 223q-61 53 -172 54q-113 0 -183.5 -65t-79.5 -183h-110q2 66 22 125q78 211 351 211q145 0 237 -60q129 -84 129 -291v-657h141v-84h-235l-4 205h-6q-51 -123 -131 -178.5t-215 -55.5q-152 0 -241 83t-89 231z M236 289q0 -104 62 -167t177 -63q111 0 185.5 65.5t102.5 158t28 202.5v45q-109 21 -209 21q-346 0 -346 -262z" />
<glyph unicode="b" horiz-adv-x="1212" d="M82 0v84h143v1307h-143v84h256v-590h4q109 207 344 207q113 0 197 -48.5t132 -130.5t71.5 -178t23.5 -203q0 -152 -38 -271.5t-137 -204.5t-251 -85q-235 0 -344 207h-4l-4 -178h-250zM324 551q0 -88 15 -169t50 -156.5t103.5 -121t162.5 -45.5q174 0 259 141.5t85 331.5 q0 86 -18 166t-57 150t-109 113t-160 43q-145 0 -241 -123q-90 -117 -90 -330z" />
<glyph unicode="c" horiz-adv-x="1067" d="M102 532q0 156 44 278t148.5 202t260.5 80q102 0 184 -51.5t113 -143.5h6v166h84v-393h-84q-18 160 -88 247t-215 87q-90 0 -159.5 -43t-107.5 -115t-56.5 -152t-18.5 -164q0 -117 31.5 -219t113.5 -177t201 -75q238 0 287 271h98q-14 -168 -120.5 -263.5t-264.5 -95.5 q-231 0 -344 158.5t-113 402.5z" />
<glyph unicode="d" horiz-adv-x="1212" d="M102 532q0 106 24 202.5t72 178.5t132 130.5t196 48.5q236 0 342 -207h6v506h-176v84h289v-1391h143v-84h-249l-4 178h-5q-109 -207 -344 -207q-221 0 -323.5 162t-102.5 399zM213 532q0 -190 84 -331.5t258 -141.5q94 0 162.5 45.5t104.5 121t51.5 156.5t15.5 169 q0 209 -90 330q-96 123 -244 123q-90 0 -159.5 -43t-107.5 -114t-56.5 -150t-18.5 -165z" />
<glyph unicode="e" horiz-adv-x="1091" d="M102 535q0 240 112 398.5t341 158.5q207 0 324 -152q106 -139 106 -369q0 -35 -2 -59h-770q2 -190 88 -321.5t260 -131.5q238 0 299 263h117q-70 -350 -416 -351q-233 0 -346 159t-113 405zM215 596h655q1 14 1 28q0 76 -19 142q-33 109 -110.5 172t-194.5 63 q-174 0 -264 -157q-61 -106 -68 -248z" />
<glyph unicode="f" horiz-adv-x="737" d="M102 0v84h162v893h-162v86h162v123q0 145 76 235q76 82 219 82q61 0 117 -12v-86q-57 10 -101 10q-104 0 -149 -51q-49 -59 -49 -168v-133h217v-86h-217v-893h188v-84h-463z" />
<glyph unicode="g" horiz-adv-x="1144" d="M102 -119q0 80 59.5 141.5t180.5 88.5v6q-186 29 -186 143q0 104 161 182q-157 99 -157 289q0 168 112.5 264.5t300.5 96.5q160 0 273 -86q99 110 194 110h2q27 0 52 -6v-123q-37 10 -70 10q-80 0 -127 -49q72 -96 72 -211q0 -113 -52.5 -194.5t-135.5 -117.5t-185 -45 q-22 -2 -45 -2q-79 0 -156 25q-55 -20 -88 -50.5t-33 -63.5q0 -82 156 -105q57 -8 185 -11t194 -13q113 -18 185 -82q71 -62 71 -164v-6q-2 -129 -132 -204t-374 -75q-221 0 -339 65.5t-118 186.5zM215 -98q0 -86 88 -132t252 -46q393 0 393 182q0 170 -326 170h-8 q-188 -2 -293.5 -46t-105.5 -128zM276 745q0 -131 77 -203.5t214 -72.5q133 0 210 71.5t77 192.5q0 123 -80 195.5t-217 72.5q-127 0 -204 -69.5t-77 -186.5z" />
<glyph unicode="h" horiz-adv-x="1214" d="M82 0v84h162v1307h-162v84h274v-578h4q88 195 312 195q322 0 321 -377v-631h150v-84h-438v84h174v635q0 125 -56.5 205t-185.5 80q-117 0 -191 -95q-76 -96 -90 -264v-561h162v-84h-436z" />
<glyph unicode="i" horiz-adv-x="655" d="M123 0v84h176v893h-176v86h289v-979h161v-84h-450zM279 1266v149h141v-149h-141z" />
<glyph unicode="j" horiz-adv-x="581" d="M102 -268q33 -12 74 -13q74 0 104.5 38t30.5 114v1106h-176v86h289v-1217q0 -104 -47 -155q-55 -61 -176 -62q-55 0 -99 15v88zM283 1266v149h141v-149h-141z" />
<glyph unicode="k" horiz-adv-x="1116" d="M82 0v84h162v1307h-162v84h274v-953l441 453v2h-131v86h370v-86h-116l-299 -307l333 -586h101v-84h-350v84h118l-278 502l-189 -191v-311h166v-84h-440z" />
<glyph unicode="l" horiz-adv-x="634" d="M92 0v84h174v1307h-174v84h287v-1391h164v-84h-451z" />
<glyph unicode="m" horiz-adv-x="1789" d="M82 0v84h162v893h-162v86h270l2 -172h4q82 201 295 201q223 0 283 -215h4q84 215 307 215q158 0 237 -98.5t79 -256.5v-653h155v-84h-442v84h174v641q0 131 -59.5 205t-176.5 74q-113 0 -182 -96.5t-71 -213.5v-610h149v-84h-438v84h172v631q0 164 -72 235 q-53 53 -131 54q-109 0 -180 -68q-94 -86 -105 -264v-588h164v-84h-438z" />
<glyph unicode="n" horiz-adv-x="1214" d="M82 0v84h162v893h-162v86h270l2 -166h4q88 195 314 195q322 0 321 -377v-631h150v-84h-438v84h174v635q0 125 -56.5 205t-185.5 80q-117 0 -191 -95q-76 -96 -90 -264v-561h162v-84h-436z" />
<glyph unicode="o" horiz-adv-x="1118" d="M102 535q0 233 118 395t339 162t339 -162t118 -395q0 -236 -116 -400t-341 -164t-341 164t-116 400zM215 535q0 -121 29.5 -222.5t110.5 -177.5t204 -76q92 0 162 43t107.5 114t56 150.5t18.5 168.5q0 115 -32.5 217t-113.5 177t-198 75t-197.5 -75t-113.5 -177.5 t-33 -216.5z" />
<glyph unicode="p" horiz-adv-x="1230" d="M82 -256h162v1233h-162v86h270l2 -199h4q61 119 140.5 173.5t206.5 54.5q113 0 196.5 -48.5t131.5 -130.5t71.5 -178t23.5 -203q0 -152 -37.5 -271.5t-137 -204.5t-251.5 -85q-238 0 -342 205h-4v-432h168v-86h-442v86zM344 514q0 -180 64 -297q37 -72 108.5 -115 t157.5 -43q174 0 259 141.5t85 331.5q0 86 -18.5 166t-57.5 150t-108.5 113t-159.5 43q-92 0 -160 -45.5t-102.5 -121t-51 -155.5t-16.5 -168z" />
<glyph unicode="q" horiz-adv-x="1230" d="M102 532q0 106 24 202.5t72 178.5t132 130.5t196 48.5q127 0 206 -54.5t140 -173.5h5l2 199h270v-86h-162v-1233h162v-86h-442v86h167v432h-4q-104 -205 -342 -205q-152 0 -251 85t-137 205t-38 271zM213 532q0 -190 85 -331.5t259 -141.5q86 0 157.5 43t108.5 115 q63 117 64 297q0 88 -16.5 168t-51.5 155.5t-102.5 121t-159.5 45.5q-90 0 -159.5 -43t-108.5 -113t-57.5 -150t-18.5 -166z" />
<glyph unicode="r" horiz-adv-x="806" d="M123 0v84h162v893h-162v86h270l2 -186h4q29 98 106 156.5t175 58.5q31 0 65 -11v-102q-27 8 -59 8q-104 0 -178 -63q-96 -84 -111 -283v-557h201v-84h-475z" />
<glyph unicode="s" horiz-adv-x="1028" d="M143 0v371h84q8 -141 79 -226.5t208 -85.5q115 0 187.5 59.5t72.5 170.5q0 92 -48 133t-146 55l-185 31q-243 43 -243 252q0 147 98 239.5t246 92.5q199 0 282 -152h4v123h86v-367h-86q0 162 -63 228q-78 80 -207 80q-109 0 -179.5 -61.5t-70.5 -168.5q0 -55 36 -103 t128 -63l160 -26q145 -27 222 -85.5t77 -197.5q0 -166 -99.5 -247t-269.5 -81q-213 0 -285 166h-4v-137h-84z" />
<glyph unicode="t" horiz-adv-x="765" d="M41 977v86h188v227l113 41v-268h285v-86h-285v-791q0 -129 104 -129q63 0 95 47q26 41 26 171v10h97q0 -94 -9.5 -146.5t-40.5 -95.5q-51 -72 -163 -72q-109 0 -165.5 59.5t-56.5 166.5v780h-188z" />
<glyph unicode="u" horiz-adv-x="1224" d="M82 977v86h262v-717q0 -127 57.5 -207t186.5 -80q117 0 190 95q76 94 90 262v561h-163v86h276v-979h162v-84h-275v166h-6q-88 -195 -309 -195q-322 0 -322 377v629h-149z" />
<glyph unicode="v" horiz-adv-x="1103" d="M61 977v86h355v-86h-152l287 -864h4l287 864h-152v86h352v-86h-90l-334 -981h-139l-327 981h-91z" />
<glyph unicode="w" horiz-adv-x="1740" d="M82 977v86h371v-86h-166l248 -862h6l254 954h151l252 -954h4l254 862h-153v86h356v-86h-94l-287 -981h-152l-254 962h-4l-258 -962h-149l-285 981h-94z" />
<glyph unicode="x" horiz-adv-x="1163" d="M82 0v84h90l342 463l-315 430h-103v86h375v-86h-149l262 -361l264 361h-137v86h354v-86h-98l-318 -428l340 -465h92v-84h-362v84h145l-286 393l-285 -393h151v-84h-362z" />
<glyph unicode="y" horiz-adv-x="1142" d="M76 977v86h368l2 -86h-157l297 -805h6l285 805h-150l-2 86h346v-86h-82l-450 -1233h151v-86h-420v86h154l113 285l-359 948h-102z" />
<glyph unicode="z" horiz-adv-x="1013" d="M143 0v111l625 858v4h-522v-207h-96v297h733v-107l-625 -862v-6h537v240h96v-328h-748z" />
<glyph unicode="{" horiz-adv-x="651" d="M61 551v86q150 8 150 285v364q0 106 45 168q57 74 145 74h107v-84h-84q-49 0 -74.5 -38t-25.5 -95v-414q0 -102 -39 -186t-111 -115v-4q72 -31 111 -116t39 -187v-412q0 -57 25.5 -95t74.5 -38h84v-86h-107q-88 0 -145 76q-45 61 -45 168v364q0 277 -150 285z" />
<glyph unicode="|" horiz-adv-x="522" d="M205 -371v2048h112v-2048h-112z" />
<glyph unicode="}" horiz-adv-x="651" d="M143 -256h84q49 0 74 38t25 95v412q0 102 40 187t111 116v4q-72 31 -111.5 116t-39.5 185v414q0 57 -25 95t-74 38h-84v84h105q90 0 147 -74q43 -57 43 -168v-364q0 -277 152 -285v-86q-152 -8 -152 -285v-364q0 -111 -43 -168q-57 -76 -147 -76h-105v86z" />
<glyph unicode="~" d="M195 510q88 176 256 176q94 0 241 -76q121 -63 193 -63q61 0 107 43t71 104l74 -78q-86 -176 -258 -176q-98 0 -242 74q-129 66 -193 66q-61 0 -106 -42t-70 -106z" />
<glyph unicode="&#xa1;" horiz-adv-x="571" d="M102 -342l37 1110h84l41 -1110h-162zM104 911v152h156v-152h-156z" />
<glyph unicode="&#xa2;" horiz-adv-x="1046" d="M102 532q0 227 99.5 383t304.5 175v172h80v-172q92 -8 163.5 -58.5t102.5 -134.5h6v166h84v-393h-84q-18 152 -80.5 237.5t-191.5 93.5v-942q213 16 260 271h98q-14 -160 -112.5 -254t-245.5 -103v-196h-80v196q-205 18 -304.5 174t-99.5 385zM213 530q0 -172 72.5 -308 t220.5 -159v936q-102 -14 -171 -92t-95.5 -173t-26.5 -204z" />
<glyph unicode="&#xa3;" horiz-adv-x="1163" d="M123 0v84h158l53 702h-172v86h180l20 238q31 393 367 393q158 0 251 -86t101 -256h-110q-14 254 -246 254q-233 0 -256 -323l-16 -220h252v-86h-261l-49 -702h537v233h108v-317h-917z" />
<glyph unicode="&#xa4;" d="M145 250l172 172q-94 150 -94 309q0 162 94 311l-172 172l80 80l168 -170q131 106 273 107q145 0 272 -107l168 170l80 -80l-172 -172q94 -145 94 -311q0 -164 -94 -309l172 -172l-80 -80l-168 170q-122 -107 -272 -107q-145 0 -273 107l-168 -170zM336 731 q0 -168 89 -284.5t241 -116.5q154 0 242.5 116.5t88.5 284.5q0 170 -89 287t-242 117q-152 0 -241 -117t-89 -287z" />
<glyph unicode="&#xa5;" horiz-adv-x="1243" d="M102 1391v84h383v-84h-170l295 -629h23l295 629h-156v84h369v-84h-101l-303 -629h248v-86h-283l-28 -64v-129h311v-86h-311v-313h190v-84h-485v84h190v313h-313v86h313v127l-26 66h-287v86h248l-301 629h-101z" />
<glyph unicode="&#xa6;" horiz-adv-x="522" d="M205 -371v893h112v-893h-112zM205 825v852h112v-852h-112z" />
<glyph unicode="&#xa7;" horiz-adv-x="1124" d="M184 662q0 94 53.5 169.5t141.5 100.5v4q-178 102 -178 268q0 133 102.5 215t235.5 82q369 0 385 -368h-111q-25 268 -266 268q-98 0 -167 -53.5t-69 -149.5q0 -82 67.5 -136t252.5 -126q166 -68 237.5 -133.5t71.5 -171.5q0 -92 -48 -164t-132 -107v-4q166 -96 166 -270 q0 -152 -106.5 -230.5t-264.5 -78.5q-174 0 -269.5 92t-95.5 266h111q10 -260 252 -260q109 0 183.5 55.5t74.5 157.5q0 82 -67.5 136.5t-251.5 125.5q-164 66 -236 134.5t-72 177.5zM293 676q0 -82 61.5 -131.5t188.5 -100.5l123 -49q82 33 122.5 93.5t40.5 121.5 q0 82 -60 130t-189 102l-123 49q-82 -33 -123 -93.5t-41 -121.5z" />
<glyph unicode="&#xa8;" horiz-adv-x="610" d="M61 1264v163h134v-163h-134zM416 1264v163h133v-163h-133z" />
<glyph unicode="&#xa9;" horiz-adv-x="1939" d="M205 737.5q0 317.5 224 541.5t540 224q317 0 541.5 -225t224.5 -540.5t-224.5 -541t-541.5 -225.5q-315 0 -539.5 224.5t-224.5 542zM311 737.5q0 -278.5 192.5 -474t465.5 -195.5q274 0 466.5 195.5t192.5 474t-192.5 474t-466.5 195.5q-272 0 -465 -195.5t-193 -474z M592 735.5q0 196.5 101.5 329.5t289.5 133q162 0 238 -117h4v105h82v-326h-80q-12 117 -73.5 188.5t-168.5 71.5q-162 0 -237 -141q-51 -90 -52 -246q0 -158 72 -271.5t217 -113.5q201 0 232 250h96q-10 -143 -94 -235.5t-234 -92.5q-193 0 -293 134.5t-100 331z" />
<glyph unicode="&#xaa;" horiz-adv-x="731" d="M61 1016q0 219 295 219q70 0 136 -12v49q0 166 -158 166q-70 0 -115 -39t-49 -111h-88q4 109 72.5 162t177.5 53q250 0 250 -229v-367h88v-63h-164v123h-4q-72 -141 -230 -142q-86 0 -148.5 49.5t-62.5 141.5zM147 1018q0 -59 42 -92t104 -33q86 0 142.5 68.5t56.5 160.5 v37q-53 16 -132 17q-90 0 -151.5 -38t-61.5 -120z" />
<glyph unicode="&#xab;" horiz-adv-x="909" d="M102 565l174 449h113l-172 -449l172 -450h-113zM418 565l174 449h113l-173 -449l173 -450h-113z" />
<glyph unicode="&#xac;" d="M143 668v116h1045v-561h-113v445h-932z" />
<glyph unicode="&#xad;" horiz-adv-x="794" d="M102 508v115h590v-115h-590z" />
<glyph unicode="&#xae;" horiz-adv-x="1019" d="M102 1094q0 168 120 288.5t288 120.5t288 -119.5t120 -289.5q0 -168 -119 -288t-289 -120q-168 0 -288 120t-120 288zM178 1093.5q0 -141.5 97.5 -239.5t234.5 -98q139 0 236.5 98t97.5 239.5t-97.5 240t-236.5 98.5q-137 0 -234.5 -98.5t-97.5 -240zM319 854v53h62v379 h-62v55h213q53 0 95 -30q47 -37 47 -109q0 -86 -64 -115q25 -18 37 -63l33 -117h49v-53h-104l-35 139q-10 39 -29 58q-14 14 -41 14h-71v-158h63v-53h-193zM449 1120h73q37 0 59.5 21.5t22.5 58.5q0 47 -22 66q-25 20 -70 20h-63v-166z" />
<glyph unicode="&#xaf;" horiz-adv-x="630" d="M61 1315v108h508v-108h-508z" />
<glyph unicode="&#xb0;" horiz-adv-x="731" d="M82 1233q0 121 86 208t207 87q123 0 209 -87t86 -208q0 -123 -86 -209t-209 -86q-121 0 -207 86t-86 209zM178 1233q0 -82 57.5 -140.5t139.5 -58.5t140 58.5t58 140.5t-58 139.5t-140 57.5t-139.5 -57.5t-57.5 -139.5z" />
<glyph unicode="&#xb1;" d="M143 0v113h1045v-113h-1045zM143 569v115h465v379h113v-379h467v-115h-467v-379h-113v379h-465z" />
<glyph unicode="&#xb2;" horiz-adv-x="786" d="M102 772v107l332 348q127 135 127 227q0 61 -46 104.5t-107 43.5q-76 0 -125 -46q-51 -47 -64 -161h-96q4 129 74.5 205.5t208.5 76.5q111 0 176 -51q78 -63 77 -170q0 -117 -108 -231l-354 -371v-4h399v137h88v-215h-582z" />
<glyph unicode="&#xb3;" horiz-adv-x="757" d="M102 1032h99q2 -88 48 -142t136 -54q72 0 123 50t51 122q0 96 -66.5 139t-168.5 41v80q223 -8 225 170q2 72 -46 116.5t-122 44.5q-80 0 -124 -54t-48 -138h-100q8 123 79.5 196.5t188.5 73.5t193.5 -64.5t76.5 -174.5q0 -84 -50 -141.5t-136 -69.5v-4q195 -39 194 -215 q0 -119 -76.5 -184.5t-197.5 -65.5q-127 0 -202 69.5t-77 204.5z" />
<glyph unicode="&#xb4;" horiz-adv-x="468" d="M61 1217l179 278h168l-236 -278h-111z" />
<glyph unicode="&#xb5;" horiz-adv-x="1234" d="M92 977v86h262v-717q0 -127 57.5 -207t186.5 -80q117 0 190 95q76 94 91 262v561h-164v86h276v-979h162v-84h-274v166h-7q-86 -190 -309 -195q-131 -2 -213 101l4 -414h-112v1319h-150z" />
<glyph unicode="&#xb6;" horiz-adv-x="1140" d="M143 1112q0 168 108.5 265.5t285.5 97.5h460v-1676h-108v1577h-242v-1577h-110v957q-166 6 -280 101t-114 255z" />
<glyph unicode="&#xb7;" horiz-adv-x="563" d="M205 598v152h153v-152h-153z" />
<glyph unicode="&#xb8;" horiz-adv-x="520" d="M61 -358l35 71q86 -45 156 -45q37 0 65.5 22.5t28.5 59.5q0 39 -32.5 57.5t-75.5 18.5q-35 0 -62 -12l-33 41l103 151h90l-78 -102v-2q86 4 143.5 -35t57.5 -117q0 -74 -62.5 -117t-140.5 -43q-104 0 -195 52z" />
<glyph unicode="&#xb9;" horiz-adv-x="677" d="M123 1401v96q135 88 207 172h96v-819h129v-78h-362v78h143v711h-2q-78 -88 -211 -160z" />
<glyph unicode="&#xba;" horiz-adv-x="729" d="M61 1165.5q0 155.5 76 246.5t227.5 91t227.5 -91t76 -246.5t-75 -247t-228.5 -91.5t-228.5 91.5t-75 247zM150 1165.5q0 -112.5 54.5 -194.5t160.5 -82q104 0 159.5 83t55.5 193q0 113 -54.5 194t-161 81t-160.5 -81t-54 -193.5z" />
<glyph unicode="&#xbb;" horiz-adv-x="909" d="M205 115l170 450l-170 449h112l175 -449l-175 -450h-112zM520 115l172 450l-172 449h113l174 -449l-174 -450h-113z" />
<glyph unicode="&#xbc;" horiz-adv-x="1638" d="M131 1219v96q135 88 207 172h96v-819h129v-78h-362v78h143v710h-2q-78 -88 -211 -159zM352 0l877 1475h102l-880 -1475h-99zM879 250v104l381 543h104v-567h141v-80h-141v-172h141v-78h-372v78h143v172h-397zM956 330h320v463z" />
<glyph unicode="&#xbd;" horiz-adv-x="1638" d="M98 1219v96q135 88 207 172h96v-819h129v-78h-362v78h143v710h-2q-78 -88 -211 -159zM319 0l877 1475h102l-880 -1475h-99zM956 0v106l332 349q127 135 127 227q0 61 -46 104t-107 43q-76 0 -125 -45q-51 -47 -64 -161h-96q4 129 74.5 205.5t208.5 76.5q111 0 176 -51 q78 -63 77 -170q0 -117 -108 -231l-354 -371v-4h399v137h88v-215h-582z" />
<glyph unicode="&#xbe;" horiz-adv-x="1638" d="M106 858h99q2 -88 48 -142t136 -54q72 0 123 50t51 122q0 96 -66.5 139t-168.5 41v80q223 -8 225 170q2 72 -46 116.5t-122 44.5q-80 0 -124 -54t-48 -138h-100q8 123 79.5 196.5t188.5 73.5t193.5 -64.5t76.5 -174.5q0 -84 -50 -141.5t-136 -69.5v-4q195 -39 194 -215 q0 -119 -76.5 -184.5t-197.5 -65.5q-127 0 -202 69.5t-77 204.5zM369 0l876 1475h103l-881 -1475h-98zM903 250v104l381 543h105v-567h141v-80h-141v-172h141v-78h-373v78h143v172h-397zM981 330h319v463z" />
<glyph unicode="&#xbf;" horiz-adv-x="1093" d="M102 -2q0 186 134 326l133 135q68 70 90 122t22 124v63h117v-88q0 -145 -96 -242l-168 -174q-109 -115 -109 -262q0 -123 71 -199.5t198 -76.5q135 0 202 86q66 82 72 213h123q-4 -178 -109.5 -286t-289.5 -108q-178 0 -284 98.5t-106 268.5zM467 911v152h156v-152h-156z " />
<glyph unicode="&#xc0;" horiz-adv-x="1599" d="M82 0v84h123l516 1397h153l519 -1397h125v-84h-457v84h207l-160 448h-621l-157 -448h209v-84h-457zM522 616h553l-274 766h-6zM545 1907h166l180 -279h-111z" />
<glyph unicode="&#xc1;" horiz-adv-x="1599" d="M82 0v84h123l516 1397h153l519 -1397h125v-84h-457v84h207l-160 448h-621l-157 -448h209v-84h-457zM522 616h553l-274 766h-6zM709 1628l178 279h168l-236 -279h-110z" />
<glyph unicode="&#xc2;" horiz-adv-x="1599" d="M82 0v84h123l516 1397h153l519 -1397h125v-84h-457v84h207l-160 448h-621l-157 -448h209v-84h-457zM522 616h553l-274 766h-6zM528 1636l211 279h123l211 -279h-125l-145 199h-4l-146 -199h-125z" />
<glyph unicode="&#xc3;" horiz-adv-x="1599" d="M82 0v84h123l516 1397h153l519 -1397h125v-84h-457v84h207l-160 448h-621l-157 -448h209v-84h-457zM506 1669q18 207 160 207q59 0 145 -48t123 -48q35 0 51 19.5t29 64.5h78q-20 -199 -158 -199q-59 0 -145.5 48t-122.5 48q-70 0 -86 -92h-74zM522 616h553l-274 766h-6z " />
<glyph unicode="&#xc4;" horiz-adv-x="1599" d="M82 0v84h123l516 1397h153l519 -1397h125v-84h-457v84h207l-160 448h-621l-157 -448h209v-84h-457zM522 616h553l-274 766h-6zM555 1675v164h133v-164h-133zM909 1675v164h133v-164h-133z" />
<glyph unicode="&#xc5;" horiz-adv-x="1599" d="M82 0v84h123l516 1397h153l519 -1397h125v-84h-457v84h207l-160 448h-621l-157 -448h209v-84h-457zM522 616h553l-274 766h-6zM614 1794q0 78 53.5 132t131.5 54t132 -54t54 -132t-54 -132t-132 -54q-76 0 -130.5 54t-54.5 132zM709 1794q0 -41 25.5 -70.5t64.5 -29.5 t65.5 29.5t26.5 70.5q0 43 -26.5 72.5t-65.5 29.5t-64.5 -29.5t-25.5 -72.5z" />
<glyph unicode="&#xc6;" horiz-adv-x="2031" d="M41 0v84h96l717 1391h1004v-435h-101v346h-710l83 -587h326v239h100v-579h-100v252h-311l90 -623h532v369h101v-457h-973v84h229l-61 448h-586l-223 -448h227v-84h-440zM518 616h531l-113 775h-21z" />
<glyph unicode="&#xc7;" horiz-adv-x="1456" d="M123 737q0 211 68.5 380t218 277.5t360.5 108.5q139 0 245.5 -60.5t160.5 -182.5h6v215h96v-514h-96q-6 90 -29 163q-43 133 -148.5 208t-246.5 75q-279 0 -418 -246q-94 -166 -94 -428q0 -172 49 -316.5t169 -245.5t294 -101q356 0 411 419h123q-14 -186 -114 -323 q-133 -184 -392 -195l-51 -67v-2q86 4 143.5 -35t57.5 -117q0 -74 -62.5 -117t-140.5 -43q-104 0 -194 52l34 71q86 -45 156 -45q37 0 65.5 22.5t28.5 59.5q0 39 -32.5 57.5t-75.5 18.5q-35 0 -62 -12l-32 41l79 120q-287 20 -432 234.5t-145 527.5z" />
<glyph unicode="&#xc8;" horiz-adv-x="1335" d="M82 0v84h205v1307h-205v84h1079v-435h-100v346h-662v-587h361v239h100v-579h-100v252h-361v-623h672v369h100v-457h-1089zM473 1907h166l180 -279h-110z" />
<glyph unicode="&#xc9;" horiz-adv-x="1335" d="M82 0v84h205v1307h-205v84h1079v-435h-100v346h-662v-587h361v239h100v-579h-100v252h-361v-623h672v369h100v-457h-1089zM535 1628l178 279h168l-236 -279h-110z" />
<glyph unicode="&#xca;" horiz-adv-x="1335" d="M82 0v84h205v1307h-205v84h1079v-435h-100v346h-662v-587h361v239h100v-579h-100v252h-361v-623h672v369h100v-457h-1089zM395 1636l211 279h123l211 -279h-125l-145 199h-4l-146 -199h-125z" />
<glyph unicode="&#xcb;" horiz-adv-x="1335" d="M82 0v84h205v1307h-205v84h1079v-435h-100v346h-662v-587h361v239h100v-579h-100v252h-361v-623h672v369h100v-457h-1089zM424 1675v164h133v-164h-133zM778 1675v164h133v-164h-133z" />
<glyph unicode="&#xcc;" horiz-adv-x="747" d="M113 0v84h204v1307h-204v84h522v-84h-205v-1307h205v-84h-522zM160 1907h166l180 -279h-111z" />
<glyph unicode="&#xcd;" horiz-adv-x="747" d="M113 0v84h204v1307h-204v84h522v-84h-205v-1307h205v-84h-522zM242 1628l178 279h168l-236 -279h-110z" />
<glyph unicode="&#xce;" horiz-adv-x="747" d="M102 1636l211 279h123l211 -279h-125l-145 199h-4l-146 -199h-125zM113 0v84h204v1307h-204v84h522v-84h-205v-1307h205v-84h-522z" />
<glyph unicode="&#xcf;" horiz-adv-x="747" d="M113 0v84h204v1307h-204v84h522v-84h-205v-1307h205v-84h-522zM129 1675v164h133v-164h-133zM483 1675v164h133v-164h-133z" />
<glyph unicode="&#xd0;" horiz-adv-x="1419" d="M82 0v84h205v678h-205v84h205v545h-205v84h586q307 0 483 -179q197 -203 197 -561t-205 -561q-180 -174 -477 -174h-584zM399 88h248q270 0 418 162q164 178 164 485q0 311 -160 486q-156 166 -430 165h-240v-540h385v-84h-385v-674z" />
<glyph unicode="&#xd1;" horiz-adv-x="1579" d="M82 0v84h205v1307h-205v84h397l725 -1350h6l-4 1266h-207v84h498v-84h-176v-1391h-170l-750 1391h-6l4 -1307h207v-84h-524zM496 1669q18 207 159 207q59 0 145.5 -48t123.5 -48q35 0 51 19.5t29 64.5h77q-20 -199 -157 -199q-59 0 -145.5 48t-123.5 48q-70 0 -86 -92 h-73z" />
<glyph unicode="&#xd2;" horiz-adv-x="1527" d="M123 737q0 156 40 292t116.5 243.5t202.5 169t286 61.5q209 0 356.5 -109.5t214 -279.5t66.5 -381q0 -154 -39 -290t-115.5 -242.5t-201.5 -168t-283 -61.5q-213 0 -361.5 108.5t-215 277.5t-66.5 380zM246 737q0 -133 27.5 -247.5t85 -213t162 -154.5t245.5 -56 q137 0 240.5 56t161 153.5t85 212t27.5 245.5q0 133 -27.5 249t-85 215t-160 156.5t-241.5 57.5t-242.5 -57.5t-163 -154.5t-87 -213t-27.5 -249zM549 1907h166l180 -279h-111z" />
<glyph unicode="&#xd3;" horiz-adv-x="1527" d="M123 737q0 156 40 292t116.5 243.5t202.5 169t286 61.5q209 0 356.5 -109.5t214 -279.5t66.5 -381q0 -154 -39 -290t-115.5 -242.5t-201.5 -168t-283 -61.5q-213 0 -361.5 108.5t-215 277.5t-66.5 380zM246 737q0 -133 27.5 -247.5t85 -213t162 -154.5t245.5 -56 q137 0 240.5 56t161 153.5t85 212t27.5 245.5q0 133 -27.5 249t-85 215t-160 156.5t-241.5 57.5t-242.5 -57.5t-163 -154.5t-87 -213t-27.5 -249zM631 1628l178 279h168l-236 -279h-110z" />
<glyph unicode="&#xd4;" horiz-adv-x="1527" d="M123 737q0 156 40 292t116.5 243.5t202.5 169t286 61.5q209 0 356.5 -109.5t214 -279.5t66.5 -381q0 -154 -39 -290t-115.5 -242.5t-201.5 -168t-283 -61.5q-213 0 -361.5 108.5t-215 277.5t-66.5 380zM246 737q0 -133 27.5 -247.5t85 -213t162 -154.5t245.5 -56 q137 0 240.5 56t161 153.5t85 212t27.5 245.5q0 133 -27.5 249t-85 215t-160 156.5t-241.5 57.5t-242.5 -57.5t-163 -154.5t-87 -213t-27.5 -249zM492 1636l210 279h123l211 -279h-125l-145 199h-4l-146 -199h-124z" />
<glyph unicode="&#xd5;" horiz-adv-x="1527" d="M123 737q0 156 40 292t116.5 243.5t202.5 169t286 61.5q209 0 356.5 -109.5t214 -279.5t66.5 -381q0 -154 -39 -290t-115.5 -242.5t-201.5 -168t-283 -61.5q-213 0 -361.5 108.5t-215 277.5t-66.5 380zM246 737q0 -133 27.5 -247.5t85 -213t162 -154.5t245.5 -56 q137 0 240.5 56t161 153.5t85 212t27.5 245.5q0 133 -27.5 249t-85 215t-160 156.5t-241.5 57.5t-242.5 -57.5t-163 -154.5t-87 -213t-27.5 -249zM471 1669q18 207 160 207q59 0 145 -48t123 -48q35 0 51.5 19.5t28.5 64.5h78q-20 -199 -158 -199q-59 0 -145 48t-123 48 q-70 0 -86 -92h-74z" />
<glyph unicode="&#xd6;" horiz-adv-x="1527" d="M123 737q0 156 40 292t116.5 243.5t202.5 169t286 61.5q209 0 356.5 -109.5t214 -279.5t66.5 -381q0 -154 -39 -290t-115.5 -242.5t-201.5 -168t-283 -61.5q-213 0 -361.5 108.5t-215 277.5t-66.5 380zM246 737q0 -133 27.5 -247.5t85 -213t162 -154.5t245.5 -56 q137 0 240.5 56t161 153.5t85 212t27.5 245.5q0 133 -27.5 249t-85 215t-160 156.5t-241.5 57.5t-242.5 -57.5t-163 -154.5t-87 -213t-27.5 -249zM520 1675v164h133v-164h-133zM874 1675v164h134v-164h-134z" />
<glyph unicode="&#xd7;" d="M207 154l377 376l-377 379l80 80l377 -379l378 379l80 -80l-379 -379l377 -376l-80 -80l-376 377l-377 -377z" />
<glyph unicode="&#xd8;" horiz-adv-x="1527" d="M123 737q0 156 40 292t116.5 243.5t202.5 169t286 61.5q254 0 418 -160l145 185l70 -53l-156 -199q160 -209 160 -543q0 -154 -39 -290t-115.5 -242.5t-201.5 -168t-283 -61.5q-260 0 -426 160l-143 -182l-70 53l154 195q-158 209 -158 540zM246 737q0 -274 106 -450 l768 975q-133 150 -354 149q-139 0 -242.5 -57.5t-163 -154.5t-87 -213t-27.5 -249zM406 213q133 -147 360 -147q137 0 240.5 56t161 153.5t85 212t27.5 245.5q0 274 -106 453z" />
<glyph unicode="&#xd9;" horiz-adv-x="1476" d="M82 1391v84h481v-84h-221v-869q0 -195 80 -313q100 -147 313 -147.5t314 147.5q80 115 79 313v869h-223v84h490v-84h-152v-867q0 -248 -108 -389q-130 -162 -400 -162q-272 0 -397 162q-109 141 -109 389v867h-147zM494 1907h165l181 -279h-111z" />
<glyph unicode="&#xda;" horiz-adv-x="1476" d="M82 1391v84h481v-84h-221v-869q0 -195 80 -313q100 -147 313 -147.5t314 147.5q80 115 79 313v869h-223v84h490v-84h-152v-867q0 -248 -108 -389q-130 -162 -400 -162q-272 0 -397 162q-109 141 -109 389v867h-147zM647 1628l178 279h168l-235 -279h-111z" />
<glyph unicode="&#xdb;" horiz-adv-x="1476" d="M82 1391v84h481v-84h-221v-869q0 -195 80 -313q100 -147 313 -147.5t314 147.5q80 115 79 313v869h-223v84h490v-84h-152v-867q0 -248 -108 -389q-130 -162 -400 -162q-272 0 -397 162q-109 141 -109 389v867h-147zM467 1636l211 279h123l211 -279h-125l-146 199h-4 l-145 -199h-125z" />
<glyph unicode="&#xdc;" horiz-adv-x="1476" d="M82 1391v84h481v-84h-221v-869q0 -195 80 -313q100 -147 313 -147.5t314 147.5q80 115 79 313v869h-223v84h490v-84h-152v-867q0 -248 -108 -389q-130 -162 -400 -162q-272 0 -397 162q-109 141 -109 389v867h-147zM494 1675v164h133v-164h-133zM848 1675v164h133v-164 h-133z" />
<glyph unicode="&#xdd;" horiz-adv-x="1370" d="M55 1391v84h465v-84h-219l381 -662h4l377 662h-195v84h447v-84h-127l-447 -775v-532h242v-84h-596v84h242v532l-449 775h-125zM594 1628l178 279h168l-235 -279h-111z" />
<glyph unicode="&#xde;" horiz-adv-x="1243" d="M82 0v84h205v1307h-205v84h522v-84h-205v-183h303q170 0 279 -78q160 -119 160 -333q0 -207 -115 -316q-111 -111 -332 -110h-295v-287h244v-84h-561zM399 455h287q172 0 254 98q76 92 76 244q0 172 -107 254q-84 70 -243 69h-267v-665z" />
<glyph unicode="&#xdf;" horiz-adv-x="1165" d="M123 0v84h129v1006q0 199 110 311q102 102 279 102q170 0 262 -95t92 -267q0 -291 -270 -334v-4q317 -47 317 -412q0 -180 -100 -287q-45 -49 -101.5 -72.5t-97.5 -26.5t-141 -5v84q68 2 100.5 6t83 25.5t78.5 60.5q68 90 68 238q0 168 -81 247.5t-251 94.5v96v2 q137 4 210 79t73 210q0 121 -61.5 197.5t-178.5 76.5q-143 0 -210.5 -93t-67.5 -251v-989h108v-84h-350z" />
<glyph unicode="&#xe0;" horiz-adv-x="1126" d="M123 285q0 350 465 350q82 0 203 -14v106q0 152 -82 223q-61 53 -172 54q-113 0 -183.5 -65t-79.5 -183h-110q2 66 22 125q78 211 351 211q145 0 237 -60q129 -84 129 -291v-657h141v-84h-235l-4 205h-6q-51 -123 -131 -178.5t-215 -55.5q-152 0 -241 83t-89 231z M236 289q0 -104 62 -167t177 -63q111 0 185.5 65.5t102.5 158t28 202.5v45q-109 21 -209 21q-346 0 -346 -262zM369 1495h166l180 -278h-111z" />
<glyph unicode="&#xe1;" horiz-adv-x="1126" d="M123 285q0 350 465 350q82 0 203 -14v106q0 152 -82 223q-61 53 -172 54q-113 0 -183.5 -65t-79.5 -183h-110q2 66 22 125q78 211 351 211q145 0 237 -60q129 -84 129 -291v-657h141v-84h-235l-4 205h-6q-51 -123 -131 -178.5t-215 -55.5q-152 0 -241 83t-89 231z M236 289q0 -104 62 -167t177 -63q111 0 185.5 65.5t102.5 158t28 202.5v45q-109 21 -209 21q-346 0 -346 -262zM410 1217l178 278h168l-236 -278h-110z" />
<glyph unicode="&#xe2;" horiz-adv-x="1126" d="M123 285q0 350 465 350q82 0 203 -14v106q0 152 -82 223q-61 53 -172 54q-113 0 -183.5 -65t-79.5 -183h-110q2 66 22 125q78 211 351 211q145 0 237 -60q129 -84 129 -291v-657h141v-84h-235l-4 205h-6q-51 -123 -131 -178.5t-215 -55.5q-152 0 -241 83t-89 231z M236 289q0 -104 62 -167t177 -63q111 0 185.5 65.5t102.5 158t28 202.5v45q-109 21 -209 21q-346 0 -346 -262zM291 1225l211 278h123l211 -278h-125l-146 198h-4l-145 -198h-125z" />
<glyph unicode="&#xe3;" horiz-adv-x="1126" d="M123 285q0 350 465 350q82 0 203 -14v106q0 152 -82 223q-61 53 -172 54q-113 0 -183.5 -65t-79.5 -183h-110q2 66 22 125q78 211 351 211q145 0 237 -60q129 -84 129 -291v-657h141v-84h-235l-4 205h-6q-51 -123 -131 -178.5t-215 -55.5q-152 0 -241 83t-89 231z M236 289q0 -104 62 -167t177 -63q111 0 185.5 65.5t102.5 158t28 202.5v45q-109 21 -209 21q-346 0 -346 -262zM270 1257q18 207 160 207q59 0 145 -48t123 -48q35 0 51.5 19.5t28.5 64.5h78q-20 -199 -158 -199q-59 0 -145 48.5t-123 48.5q-70 0 -86 -93h-74z" />
<glyph unicode="&#xe4;" horiz-adv-x="1126" d="M123 285q0 350 465 350q82 0 203 -14v106q0 152 -82 223q-61 53 -172 54q-113 0 -183.5 -65t-79.5 -183h-110q2 66 22 125q78 211 351 211q145 0 237 -60q129 -84 129 -291v-657h141v-84h-235l-4 205h-6q-51 -123 -131 -178.5t-215 -55.5q-152 0 -241 83t-89 231z M236 289q0 -104 62 -167t177 -63q111 0 185.5 65.5t102.5 158t28 202.5v45q-109 21 -209 21q-346 0 -346 -262zM319 1264v163h134v-163h-134zM674 1264v163h133v-163h-133z" />
<glyph unicode="&#xe5;" horiz-adv-x="1126" d="M123 285q0 350 465 350q82 0 203 -14v106q0 152 -82 223q-61 53 -172 54q-113 0 -183.5 -65t-79.5 -183h-110q2 66 22 125q78 211 351 211q145 0 237 -60q129 -84 129 -291v-657h141v-84h-235l-4 205h-6q-51 -123 -131 -178.5t-215 -55.5q-152 0 -241 83t-89 231z M236 289q0 -104 62 -167t177 -63q111 0 185.5 65.5t102.5 158t28 202.5v45q-109 21 -209 21q-346 0 -346 -262zM377 1382.5q0 77.5 53 132t131 54.5t132.5 -54.5t54.5 -132t-54.5 -132t-132.5 -54.5q-76 0 -130 54.5t-54 132zM471 1382q0 -41 25.5 -70.5t64.5 -29.5 t65.5 29.5t26.5 70.5q0 43 -26.5 73t-65.5 30t-64.5 -30t-25.5 -73z" />
<glyph unicode="&#xe6;" horiz-adv-x="1576" d="M100 289q0 150 105 233q90 76 274 76h248v43q0 61 -2 98t-13.5 94.5t-33 90t-65.5 57.5t-105 25q-104 0 -177 -64.5t-81 -185.5h-111q10 168 108.5 252t264.5 84q121 0 191.5 -47.5t99.5 -155.5h6q94 203 301 203q170 0 262 -115q119 -145 101 -465h-644 q0 -74 12.5 -146.5t41 -144t87 -116t138.5 -44.5q203 0 250 267h115q-23 -170 -115 -263.5t-242 -93.5q-131 0 -221 72t-123 211h-4q-84 -283 -342 -283q-147 0 -236.5 85t-89.5 233zM213 287q0 -106 64.5 -166t171.5 -60q76 0 133 46.5t85.5 120t42 143t15.5 141.5h-242 q-123 0 -196.5 -57t-73.5 -168zM829 598h533q10 197 -64 309q-67 99 -188 99q-135 0 -211 -134q-63 -117 -70 -274z" />
<glyph unicode="&#xe7;" horiz-adv-x="1067" d="M102 532q0 156 44 278t148.5 202t260.5 80q102 0 184 -51.5t113 -143.5h6v166h84v-393h-84q-18 160 -88 247t-215 87q-90 0 -159.5 -43t-107.5 -115t-56.5 -152t-18.5 -164q0 -117 31.5 -219t113.5 -177t201 -75q238 0 287 271h98q-14 -160 -110.5 -253t-243.5 -104 l-51 -69v-2q86 4 143 -35t57 -117q0 -74 -62.5 -117t-139.5 -43q-104 0 -195 52l35 71q86 -45 155 -45q37 0 66 22.5t29 59.5q0 39 -33 57.5t-76 18.5q-35 0 -61 -12l-33 41l80 120q-203 18 -302.5 173t-99.5 384z" />
<glyph unicode="&#xe8;" horiz-adv-x="1091" d="M102 535q0 240 112 398.5t341 158.5q207 0 324 -152q106 -139 106 -369q0 -35 -2 -59h-770q2 -190 88 -321.5t260 -131.5q238 0 299 263h117q-70 -350 -416 -351q-233 0 -346 159t-113 405zM215 596h655q4 92 -18 170q-33 109 -110.5 172t-194.5 63q-174 0 -264 -157 q-61 -106 -68 -248zM342 1495h166l180 -278h-110z" />
<glyph unicode="&#xe9;" horiz-adv-x="1091" d="M102 535q0 240 112 398.5t341 158.5q207 0 324 -152q106 -139 106 -369q0 -35 -2 -59h-770q2 -190 88 -321.5t260 -131.5q238 0 299 263h117q-70 -350 -416 -351q-233 0 -346 159t-113 405zM215 596h655q4 92 -18 170q-33 109 -110.5 172t-194.5 63q-174 0 -264 -157 q-61 -106 -68 -248zM403 1217l179 278h168l-236 -278h-111z" />
<glyph unicode="&#xea;" horiz-adv-x="1091" d="M102 535q0 240 112 398.5t341 158.5q207 0 324 -152q106 -139 106 -369q0 -35 -2 -59h-770q2 -190 88 -321.5t260 -131.5q238 0 299 263h117q-70 -350 -416 -351q-233 0 -346 159t-113 405zM215 596h655q4 92 -18 170q-33 109 -110.5 172t-194.5 63q-174 0 -264 -157 q-61 -106 -68 -248zM274 1225l211 278h123l211 -278h-125l-145 198h-4l-146 -198h-125z" />
<glyph unicode="&#xeb;" horiz-adv-x="1091" d="M102 535q0 240 112 398.5t341 158.5q207 0 324 -152q106 -139 106 -369q0 -35 -2 -59h-770q2 -190 88 -321.5t260 -131.5q238 0 299 263h117q-70 -350 -416 -351q-233 0 -346 159t-113 405zM215 596h655q4 92 -18 170q-33 109 -110.5 172t-194.5 63q-174 0 -264 -157 q-61 -106 -68 -248zM301 1264v163h133v-163h-133zM655 1264v163h133v-163h-133z" />
<glyph unicode="&#xec;" horiz-adv-x="655" d="M72 1495h166l180 -278h-111zM123 0v84h176v893h-176v86h289v-979h161v-84h-450z" />
<glyph unicode="&#xed;" horiz-adv-x="655" d="M123 0v84h176v893h-176v86h289v-979h161v-84h-450zM195 1217l178 278h168l-236 -278h-110z" />
<glyph unicode="&#xee;" horiz-adv-x="655" d="M14 1225l211 278h123l211 -278h-125l-145 198h-4l-146 -198h-125zM123 0v84h176v893h-176v86h289v-979h161v-84h-450z" />
<glyph unicode="&#xef;" horiz-adv-x="655" d="M43 1264v163h133v-163h-133zM123 0v84h176v893h-176v86h289v-979h161v-84h-450zM397 1264v163h133v-163h-133z" />
<glyph unicode="&#xf0;" horiz-adv-x="1136" d="M102 530q0 211 122 355.5t329 144.5q172 0 278 -137l5 2q-82 248 -299 391l-234 -145l-47 61l205 129q-119 61 -254 92l24 78q172 -33 322 -112l244 153l47 -61l-217 -138q387 -266 387 -819q0 -244 -109.5 -398.5t-343.5 -154.5q-231 0 -345 157t-114 402zM215 532 q0 -473 344 -473q96 0 167 39t107.5 108.5t53 148.5t16.5 173q0 104 -35 195q-35 98 -119.5 158.5t-187.5 60.5q-135 0 -229 -90q-117 -115 -117 -320z" />
<glyph unicode="&#xf1;" horiz-adv-x="1214" d="M82 0v84h162v893h-162v86h270l2 -166h4q88 195 314 195q322 0 321 -377v-631h150v-84h-438v84h174v635q0 125 -56.5 205t-185.5 80q-117 0 -191 -95q-76 -96 -90 -264v-561h162v-84h-436zM313 1257q18 207 160 207q59 0 145 -48t123 -48q35 0 51.5 19.5t28.5 64.5h78 q-20 -199 -158 -199q-59 0 -145 48.5t-123 48.5q-70 0 -86 -93h-74z" />
<glyph unicode="&#xf2;" horiz-adv-x="1118" d="M102 535q0 233 118 395t339 162t339 -162t118 -395q0 -236 -116 -400t-341 -164t-341 164t-116 400zM215 535q0 -121 29.5 -222.5t110.5 -177.5t204 -76q92 0 162 43t107.5 114t56 150.5t18.5 168.5q0 115 -32.5 217t-113.5 177t-198 75t-197.5 -75t-113.5 -177.5 t-33 -216.5zM354 1495h166l180 -278h-110z" />
<glyph unicode="&#xf3;" horiz-adv-x="1118" d="M102 535q0 233 118 395t339 162t339 -162t118 -395q0 -236 -116 -400t-341 -164t-341 164t-116 400zM215 535q0 -121 29.5 -222.5t110.5 -177.5t204 -76q92 0 162 43t107.5 114t56 150.5t18.5 168.5q0 115 -32.5 217t-113.5 177t-198 75t-197.5 -75t-113.5 -177.5 t-33 -216.5zM416 1217l178 278h168l-236 -278h-110z" />
<glyph unicode="&#xf4;" horiz-adv-x="1118" d="M102 535q0 233 118 395t339 162t339 -162t118 -395q0 -236 -116 -400t-341 -164t-341 164t-116 400zM215 535q0 -121 29.5 -222.5t110.5 -177.5t204 -76q92 0 162 43t107.5 114t56 150.5t18.5 168.5q0 115 -32.5 217t-113.5 177t-198 75t-197.5 -75t-113.5 -177.5 t-33 -216.5zM287 1225l211 278h123l210 -278h-124l-146 198h-4l-145 -198h-125z" />
<glyph unicode="&#xf5;" horiz-adv-x="1118" d="M102 535q0 233 118 395t339 162t339 -162t118 -395q0 -236 -116 -400t-341 -164t-341 164t-116 400zM215 535q0 -121 29.5 -222.5t110.5 -177.5t204 -76q92 0 162 43t107.5 114t56 150.5t18.5 168.5q0 115 -32.5 217t-113.5 177t-198 75t-197.5 -75t-113.5 -177.5 t-33 -216.5zM266 1257q18 207 160 207q59 0 145 -48t123 -48q35 0 51.5 19.5t28.5 64.5h78q-20 -199 -158 -199q-59 0 -145 48.5t-123 48.5q-70 0 -86 -93h-74z" />
<glyph unicode="&#xf6;" horiz-adv-x="1118" d="M102 535q0 233 118 395t339 162t339 -162t118 -395q0 -236 -116 -400t-341 -164t-341 164t-116 400zM215 535q0 -121 29.5 -222.5t110.5 -177.5t204 -76q92 0 162 43t107.5 114t56 150.5t18.5 168.5q0 115 -32.5 217t-113.5 177t-198 75t-197.5 -75t-113.5 -177.5 t-33 -216.5zM315 1264v163h134v-163h-134zM670 1264v163h133v-163h-133z" />
<glyph unicode="&#xf7;" d="M143 471v119h1045v-119h-1045zM561 104q0 43 31 74t74 31t73.5 -31t30.5 -74t-30.5 -73.5t-73.5 -30.5t-74 30.5t-31 73.5zM561 958q0 43 31 74t74 31t73.5 -31t30.5 -74t-30.5 -73.5t-73.5 -30.5t-74 30.5t-31 73.5z" />
<glyph unicode="&#xf8;" horiz-adv-x="1146" d="M102 -2l119 149q-106 152 -106 388q0 233 118.5 395t339.5 162q184 0 299 -119l111 139l61 -49l-120 -152q106 -152 106 -376q0 -236 -115.5 -400t-341.5 -164q-184 0 -301 117l-110 -139zM229 535q0 -178 62 -299l516 655q-89 113 -234 113q-117 0 -197.5 -75 t-113.5 -177.5t-33 -216.5zM334 168q90 -111 239 -111q92 0 162 43t108 115t55 152t17 168q0 158 -63 284z" />
<glyph unicode="&#xf9;" horiz-adv-x="1224" d="M82 977v86h262v-717q0 -127 57.5 -207t186.5 -80q117 0 190 95q76 94 90 262v561h-163v86h276v-979h162v-84h-275v166h-6q-88 -195 -309 -195q-322 0 -322 377v629h-149zM367 1495h165l181 -278h-111z" />
<glyph unicode="&#xfa;" horiz-adv-x="1224" d="M82 977v86h262v-717q0 -127 57.5 -207t186.5 -80q117 0 190 95q76 94 90 262v561h-163v86h276v-979h162v-84h-275v166h-6q-88 -195 -309 -195q-322 0 -322 377v629h-149zM479 1217l178 278h168l-235 -278h-111z" />
<glyph unicode="&#xfb;" horiz-adv-x="1224" d="M82 977v86h262v-717q0 -127 57.5 -207t186.5 -80q117 0 190 95q76 94 90 262v561h-163v86h276v-979h162v-84h-275v166h-6q-88 -195 -309 -195q-322 0 -322 377v629h-149zM299 1225l211 278h123l211 -278h-125l-146 198h-4l-145 -198h-125z" />
<glyph unicode="&#xfc;" horiz-adv-x="1224" d="M82 977v86h262v-717q0 -127 57.5 -207t186.5 -80q117 0 190 95q76 94 90 262v561h-163v86h276v-979h162v-84h-275v166h-6q-88 -195 -309 -195q-322 0 -322 377v629h-149zM332 1264v163h133v-163h-133zM686 1264v163h133v-163h-133z" />
<glyph unicode="&#xfd;" horiz-adv-x="1142" d="M76 977v86h368l2 -86h-157l297 -805h6l285 805h-150l-2 86h346v-86h-82l-450 -1233h151v-86h-420v86h154l113 285l-359 948h-102zM479 1217l178 278h168l-235 -278h-111z" />
<glyph unicode="&#xfe;" horiz-adv-x="1230" d="M82 -256h162v1647h-162v84h274v-611h4q61 119 139.5 173.5t205.5 54.5q113 0 196.5 -48.5t131.5 -130.5t71.5 -178t23.5 -203q0 -152 -37.5 -271.5t-137 -204.5t-251.5 -85q-238 0 -342 205h-4v-432h168v-86h-442v86zM344 514q0 -180 64 -297q37 -72 108.5 -115 t157.5 -43q174 0 259 141.5t85 331.5q0 86 -18.5 166t-57.5 150t-108.5 113t-159.5 43q-92 0 -160 -45.5t-102.5 -121t-51 -155.5t-16.5 -168z" />
<glyph unicode="&#xff;" horiz-adv-x="1142" d="M76 977v86h368l2 -86h-157l297 -805h6l285 805h-150l-2 86h346v-86h-82l-450 -1233h151v-86h-420v86h154l113 285l-359 948h-102zM358 1264v163h134v-163h-134zM713 1264v163h133v-163h-133z" />
<glyph unicode="&#x152;" horiz-adv-x="2002" d="M123 743q0 344 169 552t501 208q68 0 170 -14t141 -14h725v-435h-100v346h-592v-587h290v239h101v-579h-101v252h-290v-623h602v369h100v-457h-739q-39 0 -152.5 -14.5t-179.5 -14.5q-160 0 -286 62.5t-202.5 171t-116.5 245t-40 293.5zM246 743q0 -135 27.5 -251.5 t86 -216t163 -157t245.5 -57.5q131 0 256 29v1296q-98 29 -219 29q-150 0 -261.5 -52t-175 -145.5t-93 -211.5t-29.5 -263z" />
<glyph unicode="&#x153;" horiz-adv-x="1701" d="M102 537q0 141 43 263t144.5 207t247.5 85q270 0 346 -283h6q74 283 346 283q170 0 262 -115q118 -146 100 -465h-657q0 -80 12.5 -151.5t42 -143.5t91 -114t149.5 -42q201 0 248 267h114q-23 -170 -114.5 -263.5t-241.5 -93.5q-131 0 -228.5 70t-129.5 211h-6 q-90 -281 -363 -281q-205 0 -308.5 164t-103.5 402zM215 524q0 -78 14.5 -152.5t46 -147t94 -118t146.5 -45.5q88 0 151.5 45.5t96.5 120t47 152.5t14 164q0 461 -295 461q-117 0 -191.5 -80t-99 -180.5t-24.5 -219.5zM942 598h545q10 197 -64 309q-68 100 -188 101 q-98 0 -164 -56q-117 -100 -129 -354z" />
<glyph unicode="&#x178;" horiz-adv-x="1370" d="M55 1391v84h465v-84h-219l381 -662h4l377 662h-195v84h447v-84h-127l-447 -775v-532h242v-84h-596v84h242v532l-449 775h-125zM446 1675v164h134v-164h-134zM801 1675v164h133v-164h-133z" />
<glyph unicode="&#x2c6;" horiz-adv-x="667" d="M61 1225l211 278h123l211 -278h-125l-145 198h-4l-146 -198h-125z" />
<glyph unicode="&#x2dc;" horiz-adv-x="708" d="M61 1257q18 207 160 207q59 0 145 -48t123 -48q35 0 51.5 19.5t28.5 64.5h78q-20 -199 -158 -199q-59 0 -145 48.5t-123 48.5q-70 0 -86 -93h-74z" />
<glyph unicode="&#x2000;" horiz-adv-x="990" />
<glyph unicode="&#x2001;" horiz-adv-x="1980" />
<glyph unicode="&#x2002;" horiz-adv-x="990" />
<glyph unicode="&#x2003;" horiz-adv-x="1980" />
<glyph unicode="&#x2004;" horiz-adv-x="660" />
<glyph unicode="&#x2005;" horiz-adv-x="495" />
<glyph unicode="&#x2006;" horiz-adv-x="330" />
<glyph unicode="&#x2007;" horiz-adv-x="330" />
<glyph unicode="&#x2008;" horiz-adv-x="247" />
<glyph unicode="&#x2009;" horiz-adv-x="396" />
<glyph unicode="&#x200a;" horiz-adv-x="110" />
<glyph unicode="&#x2010;" horiz-adv-x="794" d="M102 508v115h590v-115h-590z" />
<glyph unicode="&#x2011;" horiz-adv-x="794" d="M102 508v115h590v-115h-590z" />
<glyph unicode="&#x2012;" horiz-adv-x="794" d="M102 508v115h590v-115h-590z" />
<glyph unicode="&#x2013;" horiz-adv-x="1230" d="M102 512v106h1026v-106h-1026z" />
<glyph unicode="&#x2014;" horiz-adv-x="2265" d="M102 516v98h2061v-98h-2061z" />
<glyph unicode="&#x2018;" horiz-adv-x="389" d="M102 1063v141l101 271h84l-90 -263h69v-149h-164z" />
<glyph unicode="&#x2019;" horiz-adv-x="389" d="M102 1063l91 260h-70v152h164v-142l-101 -270h-84z" />
<glyph unicode="&#x201a;" horiz-adv-x="389" d="M102 -262l91 262h-70v152h164v-142l-101 -272h-84z" />
<glyph unicode="&#x201c;" horiz-adv-x="729" d="M102 1063v141l101 271h84l-90 -263h69v-149h-164zM440 1063v141l103 271h84l-92 -263h71v-149h-166z" />
<glyph unicode="&#x201d;" horiz-adv-x="729" d="M102 1063l91 260h-70v152h164v-142l-101 -270h-84zM440 1063l92 260h-71v152h166v-142l-101 -270h-86z" />
<glyph unicode="&#x201e;" horiz-adv-x="729" d="M102 -262l91 262h-70v152h164v-142l-101 -272h-84zM440 -262l92 262h-71v152h166v-142l-101 -272h-86z" />
<glyph unicode="&#x2022;" horiz-adv-x="1062" d="M176 739.5q0 145.5 103.5 249t249 103.5t249 -103.5t103.5 -249t-103.5 -249t-249 -103.5t-249 103.5t-103.5 249z" />
<glyph unicode="&#x2026;" horiz-adv-x="1939" d="M205 0v152h153v-152h-153zM891 0v152h156v-152h-156zM1579 0v152h156v-152h-156z" />
<glyph unicode="&#x202f;" horiz-adv-x="396" />
<glyph unicode="&#x2039;" horiz-adv-x="593" d="M102 565l174 449h117l-170 -449l170 -450h-117z" />
<glyph unicode="&#x203a;" horiz-adv-x="593" d="M201 115l170 450l-170 449h116l175 -449l-175 -450h-116z" />
<glyph unicode="&#x205f;" horiz-adv-x="495" />
<glyph unicode="&#x20ac;" horiz-adv-x="1609" d="M82 549v96h217q-4 61 -4 92q0 51 2 78h-215v96h225q43 262 206 427t429 165q301 0 406 -243h8v215h96v-514h-96q-4 80 -29 163q-43 133 -148.5 207t-246.5 74q-279 0 -418 -246q-59 -106 -82 -248h502v-96h-512q-2 -27 -2 -82q0 -31 4 -88h510v-96h-498q39 -211 162 -344 t334 -133q356 0 411 417h123q-14 -193 -110 -323q-139 -195 -420 -195q-264 0 -423 161t-204 417h-227z" />
<glyph unicode="&#x2122;" horiz-adv-x="1345" d="M102 1278v203h435v-203h-58v145h-121v-510h84v-53h-243v53h86v510h-125v-145h-58zM588 860v53h78v512h-78v56h172l158 -516l155 516h170v-56h-76v-512h76v-53h-211v53h66l-2 437l-148 -490h-63l-150 492v-439h66v-53h-213z" />
<glyph unicode="&#x25fc;" horiz-adv-x="1064" d="M0 0v1065h1065v-1065h-1065z" />
</font>
</defs>
</svg>
