<?xml version="1.0" encoding="UTF-8"?>
<svg xmlns="http://www.w3.org/2000/svg" xmlns:xlink="http://www.w3.org/1999/xlink" version="1.2" >
<font id="Cadillac Sans Light">
<font-face  font-family="Cadillac Sans" units-per-em="1000" ascent="750" descent="-250" font-style="normal" font-weight="300" font-stretch="normal" cap-height="700" x-height="536" underline-position="-75" underline-thickness="50" />
<missing-glyph  horiz-adv-x="597" d="M90 -100 L90 800 L507 800 L507 -100 L90 -100 Z M140 -56 L458 -56 L458 756 L140 756 L140 -56 Z " />
<glyph glyph-name=".null" d="" />
<glyph glyph-name="nonmarkingreturn" unicode="&#xd;" horiz-adv-x="196" d="" />
<glyph glyph-name="space" unicode="&#x20;" horiz-adv-x="208" d="" />
<glyph glyph-name="A" unicode="A" horiz-adv-x="599" d="M566 0 L515 0 L443 216 L152 216 L80 0 L33 0 L33 43 L256 700 L342 700 L566 43 L566 0 Z M299 646 L296 646 L170 268 L426 268 L299 646 Z " />
<glyph glyph-name="B" unicode="B" horiz-adv-x="581" d="M414 365 Q446 354 479 329.5 Q512 305 530 273 L530 118 Q518 97 500.5 76 Q483 55 458.5 38 Q434 21 401.5 10.5 Q369 0 328 0 L82 0 L82 700 L322 700 Q356 700 385 690.5 Q414 681 438.5 665.5 Q463 650 482 628.5 Q501 607 514 583 L514 453 Q498 425 470.5 402 Q443 379 414 365 Z M319 387 Q356 387 394.5 409 Q433 431 456 466 L456 563 Q435 602 396 625 Q357 648 309 648 L144 648 L144 387 L319 387 Z M471 256 Q461 273 445 288 Q429 303 410 313.5 Q391 324 369 330 Q347 336 325 336 L144 336 L144 52 L315 52 Q379 52 415 77 Q451 102 471 138 L471 256 Z " />
<glyph glyph-name="C" unicode="C" horiz-adv-x="606" d="M313 713 Q366 713 406.5 699 Q447 685 476.5 663.5 Q506 642 525.5 615.5 Q545 589 556 565 L556 527 L505 527 Q496 554 479 578.5 Q462 603 438 621.5 Q414 640 383 651 Q352 662 313 662 Q277 662 247.5 652.5 Q218 643 194.5 627 Q171 611 155 590 Q139 569 130 547 L130 154 Q139 131 155 110.5 Q171 90 194.5 74 Q218 58 247.5 48.5 Q277 39 313 39 Q352 39 383 49.5 Q414 60 438 78.5 Q462 97 479 121.5 Q496 146 505 174 L556 174 L556 136 Q545 112 525.5 85.5 Q506 59 476.5 37 Q447 15 406.5 1 Q366 -13 313 -13 Q260 -13 219 1 Q178 15 148 37.5 Q118 60 98.5 86.5 Q79 113 68 139 L68 562 Q79 587 98.5 614 Q118 641 148 663 Q178 685 219 699 Q260 713 313 713 Z " />
<glyph glyph-name="D" unicode="D" horiz-adv-x="623" d="M318 700 Q369 700 408 688 Q447 676 476 656.5 Q505 637 524.5 612 Q544 587 555 562 L555 138 Q544 112 524.5 87.5 Q505 63 476 43.5 Q447 24 408 12 Q369 0 318 0 L82 0 L82 700 L318 700 Z M144 52 L310 52 Q382 52 428.5 81 Q475 110 493 155 L493 545 Q475 590 428.5 619 Q382 648 310 648 L144 648 L144 52 Z " />
<glyph glyph-name="E" unicode="E" horiz-adv-x="542" d="M144 648 L144 387 L459 387 L459 336 L144 336 L144 52 L491 52 L491 0 L82 0 L82 700 L482 700 L482 648 L144 648 Z " />
<glyph glyph-name="F" unicode="F" horiz-adv-x="515" d="M144 648 L144 387 L454 387 L454 335 L144 335 L144 0 L82 0 L82 700 L472 700 L472 648 L144 648 Z " />
<glyph glyph-name="G" unicode="G" horiz-adv-x="634" d="M313 662 Q277 662 247.5 652.5 Q218 643 194.5 627 Q171 611 155 590 Q139 569 130 547 L130 154 Q139 132 155.5 111 Q172 90 195 74 Q218 58 248 48.5 Q278 39 314 39 Q350 39 379.5 48.5 Q409 58 432 74 Q455 90 471.5 110.5 Q488 131 497 153 L497 306 L332 306 L332 357 L556 357 L556 0 L501 0 L501 74 Q473 39 426.5 13 Q380 -13 307 -13 Q256 -13 216.5 1 Q177 15 147.5 37.5 Q118 60 98.5 86.5 Q79 113 68 139 L68 562 Q79 587 98.5 614 Q118 641 148 663 Q178 685 219 699 Q260 713 313 713 Q366 713 406.5 699 Q447 685 476.5 663.5 Q506 642 525.5 615.5 Q545 589 556 565 L556 527 L505 527 Q496 554 479 578.5 Q462 603 438 621.5 Q414 640 383 651 Q352 662 313 662 Z " />
<glyph glyph-name="H" unicode="H" horiz-adv-x="641" d="M497 0 L497 335 L144 335 L144 0 L82 0 L82 700 L144 700 L144 387 L497 387 L497 700 L559 700 L559 0 L497 0 Z " />
<glyph glyph-name="I" unicode="I" horiz-adv-x="226" d="M82 0 L82 700 L144 700 L144 0 L82 0 Z " />
<glyph glyph-name="J" unicode="J" horiz-adv-x="386" d="M309 139 Q296 110 275.5 84.5 Q255 59 225 40 Q195 21 155.5 10 Q116 -1 67 -1 Q51 -1 38 -0.5 Q25 0 20 0 L20 51 L64 51 Q131 51 179 79 Q227 107 247 156 L247 700 L309 700 L309 139 Z " />
<glyph glyph-name="K" unicode="K" horiz-adv-x="579" d="M546 0 L504 0 L246 374 L144 267 L144 0 L82 0 L82 700 L144 700 L144 344 L481 700 L517 700 L517 657 L287 416 L546 43 L546 0 Z " />
<glyph glyph-name="L" unicode="L" horiz-adv-x="452" d="M428 52 L428 0 L82 0 L82 700 L144 700 L144 52 L428 52 Z " />
<glyph glyph-name="M" unicode="M" horiz-adv-x="790" d="M649 0 L649 634 L646 634 L422 185 L367 185 L144 634 L141 634 L141 0 L82 0 L82 700 L175 700 L394 260 L397 260 L616 700 L708 700 L708 0 L649 0 Z " />
<glyph glyph-name="N" unicode="N" horiz-adv-x="657" d="M490 0 L144 624 L141 624 L141 0 L82 0 L82 700 L167 700 L513 76 L516 76 L516 700 L575 700 L575 0 L490 0 Z " />
<glyph glyph-name="O" unicode="O" horiz-adv-x="626" d="M313 713 Q366 713 407 699 Q448 685 478 663 Q508 641 528 614 Q548 587 558 562 L558 139 Q548 113 528 86.5 Q508 60 478 37.5 Q448 15 407 1 Q366 -13 313 -13 Q260 -13 219 1 Q178 15 148 37.5 Q118 60 98.5 86.5 Q79 113 68 139 L68 562 Q78 587 98 614 Q118 641 148 663 Q178 685 219 699 Q260 713 313 713 Z M313 662 Q277 662 247.5 652.5 Q218 643 194.5 627 Q171 611 155 590 Q139 569 130 547 L130 154 Q139 132 155 111 Q171 90 194.5 74 Q218 58 247.5 48.5 Q277 39 313 39 Q349 39 378.5 48.5 Q408 58 431.5 74 Q455 90 471 111 Q487 132 496 154 L496 547 Q487 569 471 590 Q455 611 431.5 627 Q408 643 378.5 652.5 Q349 662 313 662 Z " />
<glyph glyph-name="P" unicode="P" horiz-adv-x="561" d="M316 700 Q377 700 429.5 669 Q482 638 511 583 L511 400 Q484 350 434.5 316.5 Q385 283 316 283 L144 283 L144 0 L82 0 L82 700 L316 700 Z M144 335 L303 335 Q350 335 389 357 Q428 379 451 421 L451 562 Q425 608 386 628 Q347 648 303 648 L144 648 L144 335 Z " />
<glyph glyph-name="Q" unicode="Q" horiz-adv-x="626" d="M559 -145 L496 -145 Q468 -145 439.5 -134 Q411 -123 386 -104.5 Q361 -86 341.5 -62.5 Q322 -39 312 -13 Q259 -13 218.5 1 Q178 15 148 37.5 Q118 60 98.5 86.5 Q79 113 68 139 L68 562 Q79 587 98.5 614 Q118 641 148 663 Q178 685 219 699 Q260 713 313 713 Q366 713 407 699 Q448 685 478 663 Q508 641 527.5 614 Q547 587 558 562 L558 139 Q549 117 533 94 Q517 71 494.5 51 Q472 31 442 15 Q412 -1 373 -8 Q383 -29 399.5 -46 Q416 -63 434 -74 Q452 -85 470 -91 Q488 -97 502 -97 L559 -97 L559 -145 Z M130 154 Q139 132 155 111 Q171 90 194.5 74 Q218 58 247.5 48.5 Q277 39 313 39 Q349 39 378.5 48.5 Q408 58 431.5 74 Q455 90 471 111 Q487 132 496 154 L496 547 Q487 569 471 590 Q455 611 431.5 627 Q408 643 378.5 652.5 Q349 662 313 662 Q277 662 247.5 652.5 Q218 643 194.5 627 Q171 611 155 590 Q139 569 130 547 L130 154 Z " />
<glyph glyph-name="R" unicode="R" horiz-adv-x="583" d="M530 0 L487 0 L280 309 L144 309 L144 0 L82 0 L82 700 L325 700 Q386 700 438 668.5 Q490 637 520 583 L520 427 Q494 381 450.5 348.5 Q407 316 347 310 L530 43 L530 0 Z M312 360 Q362 360 399.5 382 Q437 404 460 445 L460 562 Q437 606 397 627 Q357 648 312 648 L144 648 L144 360 L312 360 Z " />
<glyph glyph-name="S" unicode="S" horiz-adv-x="572" d="M285 713 Q331 713 367 702.5 Q403 692 430.5 675.5 Q458 659 477 638.5 Q496 618 507 599 L507 560 L455 560 Q436 604 393.5 632.5 Q351 661 284 661 Q225 661 185 637 Q145 613 125 580 L125 476 Q132 464 141.5 453.5 Q151 443 166 433.5 Q181 424 202.5 415.5 Q224 407 256 399 L330 380 Q379 367 411.5 352.5 Q444 338 464.5 323 Q485 308 497 292 Q509 276 518 260 L518 118 Q508 99 490 76.5 Q472 54 443.5 34 Q415 14 375.5 0.5 Q336 -13 283 -13 Q229 -13 188.5 0.5 Q148 14 118.5 34 Q89 54 70.5 77 Q52 100 43 118 L43 157 L95 157 Q103 136 119 114.5 Q135 93 159 76.5 Q183 60 214 49.5 Q245 39 283 39 Q319 39 348 48.5 Q377 58 398.5 72 Q420 86 435 103.5 Q450 121 458 136 L458 237 Q452 250 442.5 262 Q433 274 417.5 285.5 Q402 297 378 307 Q354 317 320 326 L245 345 Q203 355 173.5 366.5 Q144 378 124 391.5 Q104 405 90 420.5 Q76 436 64 454 L64 599 Q76 618 95 638.5 Q114 659 141 675.5 Q168 692 203.5 702.5 Q239 713 285 713 Z " />
<glyph glyph-name="T" unicode="T" horiz-adv-x="525" d="M293 648 L293 0 L231 0 L231 648 L25 648 L25 700 L500 700 L500 648 L293 648 Z " />
<glyph glyph-name="U" unicode="U" horiz-adv-x="644" d="M567 139 Q556 113 536.5 86.5 Q517 60 487 37.5 Q457 15 416 1 Q375 -13 322 -13 Q269 -13 228 1 Q187 15 157.5 37.5 Q128 60 108.5 86.5 Q89 113 78 139 L78 700 L140 700 L140 155 Q149 133 165 112 Q181 91 204 75 Q227 59 256.5 49.5 Q286 40 322 40 Q358 40 387.5 49.5 Q417 59 440.5 75 Q464 91 480 112 Q496 133 505 155 L505 700 L567 700 L567 139 Z " />
<glyph glyph-name="V" unicode="V" horiz-adv-x="601" d="M344 0 L257 0 L33 657 L33 700 L84 700 L300 56 L303 56 L519 700 L569 700 L569 657 L344 0 Z " />
<glyph glyph-name="W" unicode="W" horiz-adv-x="883" d="M703 0 L613 0 L441 616 L438 616 L267 0 L180 0 L38 657 L38 700 L92 700 L226 59 L229 59 L406 700 L477 700 L654 59 L657 59 L792 700 L845 700 L845 657 L703 0 Z " />
<glyph glyph-name="X" unicode="X" horiz-adv-x="575" d="M332 357 L527 43 L527 0 L481 0 L288 318 L285 318 L91 0 L48 0 L48 43 L243 356 L55 657 L55 700 L101 700 L288 394 L291 394 L478 700 L521 700 L521 657 L332 357 Z " />
<glyph glyph-name="Y" unicode="Y" horiz-adv-x="546" d="M303 310 L303 0 L241 0 L241 315 L38 657 L38 700 L81 700 L273 371 L275 371 L466 700 L508 700 L508 657 L303 310 Z " />
<glyph glyph-name="Z" unicode="Z" horiz-adv-x="566" d="M125 52 L515 52 L515 0 L50 0 L50 44 L441 648 L59 648 L59 700 L515 700 L515 656 L125 52 Z " />
<glyph glyph-name="Agrave" unicode="&#xc0;" horiz-adv-x="599" d="M566 0 L515 0 L443 216 L152 216 L80 0 L33 0 L33 43 L256 700 L342 700 L566 43 L566 0 Z M299 646 L296 646 L170 268 L426 268 L299 646 Z M320 754 L279 754 L198 872 L198 902 L249 902 L320 770 L320 754 Z " />
<glyph glyph-name="Aacute" unicode="&#xc1;" horiz-adv-x="599" d="M566 0 L515 0 L443 216 L152 216 L80 0 L33 0 L33 43 L256 700 L342 700 L566 43 L566 0 Z M299 646 L296 646 L170 268 L426 268 L299 646 Z M314 754 L273 754 L273 770 L343 902 L395 902 L395 872 L314 754 Z " />
<glyph glyph-name="Acircumflex" unicode="&#xc2;" horiz-adv-x="599" d="M566 0 L515 0 L443 216 L152 216 L80 0 L33 0 L33 43 L256 700 L342 700 L566 43 L566 0 Z M299 646 L296 646 L170 268 L426 268 L299 646 Z M433 754 L394 754 L299 869 L205 754 L166 754 L166 770 L261 902 L338 902 L433 770 L433 754 Z " />
<glyph glyph-name="Atilde" unicode="&#xc3;" horiz-adv-x="599" d="M566 0 L515 0 L443 216 L152 216 L80 0 L33 0 L33 43 L256 700 L342 700 L566 43 L566 0 Z M299 646 L296 646 L170 268 L426 268 L299 646 Z M231 857 Q254 857 272 848.5 Q290 840 305 829.5 Q320 819 334 810.5 Q348 802 365 802 Q382 802 394 811 Q406 820 410 833 L410 851 L450 851 L450 816 Q442 793 422 776.5 Q402 760 368 760 Q345 760 327.5 768.5 Q310 777 295 787.5 Q280 798 265.5 807 Q251 816 235 816 Q216 816 204 805.5 Q192 795 189 785 L189 766 L149 766 L149 801 Q171 857 231 857 Z " />
<glyph glyph-name="Adieresis" unicode="&#xc4;" horiz-adv-x="599" d="M566 0 L515 0 L443 216 L152 216 L80 0 L33 0 L33 43 L256 700 L342 700 L566 43 L566 0 Z M299 646 L296 646 L170 268 L426 268 L299 646 Z M204 855 Q220 855 229 850.5 Q238 846 241 841 L241 792 Q238 788 229 783 Q220 778 204 778 Q189 778 179.5 783 Q170 788 167 792 L167 841 Q170 846 179.5 850.5 Q189 855 204 855 Z M395 855 Q410 855 419.5 850.5 Q429 846 432 841 L432 792 Q429 788 419.5 783 Q410 778 395 778 Q380 778 370.5 783 Q361 788 358 792 L358 841 Q361 846 370.5 850.5 Q380 855 395 855 Z " />
<glyph glyph-name="Amacron" unicode="&#x100;" horiz-adv-x="599" d="M566 0 L515 0 L443 216 L152 216 L80 0 L33 0 L33 43 L256 700 L342 700 L566 43 L566 0 Z M299 646 L296 646 L170 268 L426 268 L299 646 Z M152 781 L152 826 L448 826 L448 781 L152 781 Z " />
<glyph glyph-name="Abreve" unicode="&#x102;" horiz-adv-x="599" d="M566 0 L515 0 L443 216 L152 216 L80 0 L33 0 L33 43 L256 700 L342 700 L566 43 L566 0 Z M299 646 L296 646 L170 268 L426 268 L299 646 Z M429 816 Q424 805 414 793 Q404 781 388.5 770.5 Q373 760 351 753.5 Q329 747 299 747 Q269 747 247.5 753.5 Q226 760 210 770.5 Q194 781 184.5 793 Q175 805 169 816 L169 865 L216 865 L216 830 Q218 825 223.5 817.5 Q229 810 239 803 Q249 796 263.5 791 Q278 786 299 786 Q320 786 334.5 791 Q349 796 359 803 Q369 810 374.5 817.5 Q380 825 382 830 L382 865 L429 865 L429 816 Z " />
<glyph glyph-name="Aring" unicode="&#xc5;" horiz-adv-x="599" d="M566 0 L515 0 L443 216 L152 216 L80 0 L33 0 L33 43 L254 695 Q235 702 222 713 Q209 724 202 736 L202 820 Q213 839 238.5 854 Q264 869 300 869 Q335 869 361 854 Q387 839 397 820 L397 736 Q390 723 376.5 712 Q363 701 344 694 L566 43 L566 0 Z M240 748 Q246 740 260.5 731 Q275 722 300 722 Q325 722 339 731 Q353 740 359 748 L359 808 Q353 817 339 825.5 Q325 834 300 834 Q275 834 260.5 825.5 Q246 817 240 808 L240 748 Z M299 646 L296 646 L170 268 L426 268 L299 646 Z " />
<glyph glyph-name="Aogonek" unicode="&#x104;" horiz-adv-x="599" d="M516 -168 Q533 -168 545.5 -165.5 Q558 -163 572 -156 L572 -196 Q558 -203 544 -206.5 Q530 -210 507 -210 Q476 -210 451.5 -197.5 Q427 -185 418 -165 L418 -100 Q425 -83 448 -54.5 Q471 -26 513 6 L443 216 L152 216 L80 0 L33 0 L33 43 L256 700 L342 700 L566 43 L566 0 Q514 -41 491 -68.5 Q468 -96 464 -107 L464 -145 Q468 -153 482 -160.5 Q496 -168 516 -168 Z M299 646 L296 646 L170 268 L426 268 L299 646 Z " />
<glyph glyph-name="AE" unicode="&#xc6;" horiz-adv-x="844" d="M793 0 L384 0 L384 236 L184 236 L72 0 L27 0 L27 43 L343 700 L784 700 L784 648 L447 648 L447 387 L761 387 L761 336 L447 336 L447 52 L793 52 L793 0 Z M384 649 L381 649 L209 288 L384 288 L384 649 Z " />
<glyph glyph-name="Cacute" unicode="&#x106;" horiz-adv-x="606" d="M313 713 Q366 713 406.5 699 Q447 685 476.5 663.5 Q506 642 525.5 615.5 Q545 589 556 565 L556 527 L505 527 Q496 554 479 578.5 Q462 603 438 621.5 Q414 640 383 651 Q352 662 313 662 Q277 662 247.5 652.5 Q218 643 194.5 627 Q171 611 155 590 Q139 569 130 547 L130 154 Q139 131 155 110.5 Q171 90 194.5 74 Q218 58 247.5 48.5 Q277 39 313 39 Q352 39 383 49.5 Q414 60 438 78.5 Q462 97 479 121.5 Q496 146 505 174 L556 174 L556 136 Q545 112 525.5 85.5 Q506 59 476.5 37 Q447 15 406.5 1 Q366 -13 313 -13 Q260 -13 219 1 Q178 15 148 37.5 Q118 60 98.5 86.5 Q79 113 68 139 L68 562 Q79 587 98.5 614 Q118 641 148 663 Q178 685 219 699 Q260 713 313 713 Z M327 754 L286 754 L286 770 L356 902 L408 902 L408 872 L327 754 Z " />
<glyph glyph-name="Ccircumflex" unicode="&#x108;" horiz-adv-x="606" d="M313 713 Q366 713 406.5 699 Q447 685 476.5 663.5 Q506 642 525.5 615.5 Q545 589 556 565 L556 527 L505 527 Q496 554 479 578.5 Q462 603 438 621.5 Q414 640 383 651 Q352 662 313 662 Q277 662 247.5 652.5 Q218 643 194.5 627 Q171 611 155 590 Q139 569 130 547 L130 154 Q139 131 155 110.5 Q171 90 194.5 74 Q218 58 247.5 48.5 Q277 39 313 39 Q352 39 383 49.5 Q414 60 438 78.5 Q462 97 479 121.5 Q496 146 505 174 L556 174 L556 136 Q545 112 525.5 85.5 Q506 59 476.5 37 Q447 15 406.5 1 Q366 -13 313 -13 Q260 -13 219 1 Q178 15 148 37.5 Q118 60 98.5 86.5 Q79 113 68 139 L68 562 Q79 587 98.5 614 Q118 641 148 663 Q178 685 219 699 Q260 713 313 713 Z M447 754 L408 754 L313 869 L219 754 L180 754 L180 770 L275 902 L352 902 L447 770 L447 754 Z " />
<glyph glyph-name="Ccaron" unicode="&#x10c;" horiz-adv-x="606" d="M313 713 Q366 713 406.5 699 Q447 685 476.5 663.5 Q506 642 525.5 615.5 Q545 589 556 565 L556 527 L505 527 Q496 554 479 578.5 Q462 603 438 621.5 Q414 640 383 651 Q352 662 313 662 Q277 662 247.5 652.5 Q218 643 194.5 627 Q171 611 155 590 Q139 569 130 547 L130 154 Q139 131 155 110.5 Q171 90 194.5 74 Q218 58 247.5 48.5 Q277 39 313 39 Q352 39 383 49.5 Q414 60 438 78.5 Q462 97 479 121.5 Q496 146 505 174 L556 174 L556 136 Q545 112 525.5 85.5 Q506 59 476.5 37 Q447 15 406.5 1 Q366 -13 313 -13 Q260 -13 219 1 Q178 15 148 37.5 Q118 60 98.5 86.5 Q79 113 68 139 L68 562 Q79 587 98.5 614 Q118 641 148 663 Q178 685 219 699 Q260 713 313 713 Z M352 754 L275 754 L180 886 L180 902 L219 902 L313 786 L408 902 L447 902 L447 886 L352 754 Z " />
<glyph glyph-name="Cdotaccent" unicode="&#x10a;" horiz-adv-x="606" d="M313 713 Q366 713 406.5 699 Q447 685 476.5 663.5 Q506 642 525.5 615.5 Q545 589 556 565 L556 527 L505 527 Q496 554 479 578.5 Q462 603 438 621.5 Q414 640 383 651 Q352 662 313 662 Q277 662 247.5 652.5 Q218 643 194.5 627 Q171 611 155 590 Q139 569 130 547 L130 154 Q139 131 155 110.5 Q171 90 194.5 74 Q218 58 247.5 48.5 Q277 39 313 39 Q352 39 383 49.5 Q414 60 438 78.5 Q462 97 479 121.5 Q496 146 505 174 L556 174 L556 136 Q545 112 525.5 85.5 Q506 59 476.5 37 Q447 15 406.5 1 Q366 -13 313 -13 Q260 -13 219 1 Q178 15 148 37.5 Q118 60 98.5 86.5 Q79 113 68 139 L68 562 Q79 587 98.5 614 Q118 641 148 663 Q178 685 219 699 Q260 713 313 713 Z M313 863 Q329 863 338.5 857.5 Q348 852 351 846 L351 803 Q348 797 338.5 792 Q329 787 313 787 Q299 787 289 792 Q279 797 276 803 L276 846 Q279 852 289 857.5 Q299 863 313 863 Z " />
<glyph glyph-name="Ccedilla" unicode="&#xc7;" horiz-adv-x="606" d="M313 662 Q277 662 247.5 652.5 Q218 643 194.5 627 Q171 611 155 590 Q139 569 130 547 L130 154 Q139 131 155 110.5 Q171 90 194.5 74 Q218 58 247.5 48.5 Q277 39 313 39 Q352 39 383 49.5 Q414 60 438 78.5 Q462 97 479 121.5 Q496 146 505 174 L556 174 L556 136 Q545 112 526 86 Q507 60 478.5 38 Q450 16 410.5 2 Q371 -12 319 -13 L302 -58 L320 -58 Q353 -58 373 -72 Q393 -86 401 -102 L401 -170 Q392 -188 369.5 -202.5 Q347 -217 312 -217 Q283 -217 259 -210 Q235 -203 219 -192 L231 -159 Q247 -168 266 -174.5 Q285 -181 309 -181 Q330 -181 342.5 -173 Q355 -165 359 -156 L359 -115 Q355 -106 342.5 -98 Q330 -90 309 -90 L251 -90 L278 -11 Q233 -6 198.5 9 Q164 24 138.5 45 Q113 66 95.5 91 Q78 116 68 139 L68 562 Q79 587 98.5 613.5 Q118 640 148 662.5 Q178 685 219 699 Q260 713 313 713 Q366 713 406.5 699 Q447 685 476.5 663.5 Q506 642 525.5 615.5 Q545 589 556 565 L556 527 L505 527 Q496 554 479 578.5 Q462 603 438 621.5 Q414 640 383 651 Q352 662 313 662 Z " />
<glyph glyph-name="Dcaron" unicode="&#x10e;" horiz-adv-x="623" d="M318 700 Q369 700 408 688 Q447 676 476 656.5 Q505 637 524.5 612 Q544 587 555 562 L555 138 Q544 112 524.5 87.5 Q505 63 476 43.5 Q447 24 408 12 Q369 0 318 0 L82 0 L82 700 L318 700 Z M144 52 L310 52 Q382 52 428.5 81 Q475 110 493 155 L493 545 Q475 590 428.5 619 Q382 648 310 648 L144 648 L144 52 Z M350 754 L273 754 L178 886 L178 902 L217 902 L311 786 L406 902 L445 902 L445 886 L350 754 Z " />
<glyph glyph-name="Dcroat" unicode="&#x110;" horiz-adv-x="651" d="M345 700 Q396 700 435 688 Q474 676 503 656.5 Q532 637 551 612 Q570 587 581 562 L581 138 Q570 112 551 87.5 Q532 63 503 43.5 Q474 24 435 12 Q396 0 345 0 L109 0 L109 331 L45 331 L45 382 L109 382 L109 700 L345 700 Z M519 545 Q502 590 455.5 619 Q409 648 337 648 L171 648 L171 382 L365 382 L365 331 L171 331 L171 52 L337 52 Q409 52 455.5 81 Q502 110 519 155 L519 545 Z " />
<glyph glyph-name="Egrave" unicode="&#xc8;" horiz-adv-x="542" d="M144 648 L144 387 L459 387 L459 336 L144 336 L144 52 L491 52 L491 0 L82 0 L82 700 L482 700 L482 648 L144 648 Z M308 754 L267 754 L186 872 L186 902 L237 902 L308 770 L308 754 Z " />
<glyph glyph-name="Eacute" unicode="&#xc9;" horiz-adv-x="542" d="M144 648 L144 387 L459 387 L459 336 L144 336 L144 52 L491 52 L491 0 L82 0 L82 700 L482 700 L482 648 L144 648 Z M301 754 L260 754 L260 770 L330 902 L382 902 L382 872 L301 754 Z " />
<glyph glyph-name="Ecircumflex" unicode="&#xca;" horiz-adv-x="542" d="M144 648 L144 387 L459 387 L459 336 L144 336 L144 52 L491 52 L491 0 L82 0 L82 700 L482 700 L482 648 L144 648 Z M420 754 L381 754 L286 869 L192 754 L153 754 L153 770 L248 902 L325 902 L420 770 L420 754 Z " />
<glyph glyph-name="Ecaron" unicode="&#x11a;" horiz-adv-x="542" d="M144 648 L144 387 L459 387 L459 336 L144 336 L144 52 L491 52 L491 0 L82 0 L82 700 L482 700 L482 648 L144 648 Z M325 754 L248 754 L153 886 L153 902 L192 902 L286 786 L381 902 L420 902 L420 886 L325 754 Z " />
<glyph glyph-name="Edieresis" unicode="&#xcb;" horiz-adv-x="542" d="M144 648 L144 387 L459 387 L459 336 L144 336 L144 52 L491 52 L491 0 L82 0 L82 700 L482 700 L482 648 L144 648 Z M191 855 Q207 855 216 850.5 Q225 846 228 841 L228 792 Q225 788 216 783 Q207 778 191 778 Q176 778 166.5 783 Q157 788 154 792 L154 841 Q157 846 166.5 850.5 Q176 855 191 855 Z M382 855 Q397 855 406.5 850.5 Q416 846 419 841 L419 792 Q416 788 406.5 783 Q397 778 382 778 Q367 778 357.5 783 Q348 788 345 792 L345 841 Q348 846 357.5 850.5 Q367 855 382 855 Z " />
<glyph glyph-name="Emacron" unicode="&#x112;" horiz-adv-x="542" d="M144 648 L144 387 L459 387 L459 336 L144 336 L144 52 L491 52 L491 0 L82 0 L82 700 L482 700 L482 648 L144 648 Z M139 781 L139 826 L435 826 L435 781 L139 781 Z " />
<glyph glyph-name="Ebreve" unicode="&#x114;" horiz-adv-x="542" d="M144 648 L144 387 L459 387 L459 336 L144 336 L144 52 L491 52 L491 0 L82 0 L82 700 L482 700 L482 648 L144 648 Z M416 816 Q411 805 401 793 Q391 781 375.5 770.5 Q360 760 338 753.5 Q316 747 286 747 Q256 747 234.5 753.5 Q213 760 197 770.5 Q181 781 171.5 793 Q162 805 156 816 L156 865 L203 865 L203 830 Q205 825 210.5 817.5 Q216 810 226 803 Q236 796 250.5 791 Q265 786 286 786 Q307 786 321.5 791 Q336 796 346 803 Q356 810 361.5 817.5 Q367 825 369 830 L369 865 L416 865 L416 816 Z " />
<glyph glyph-name="Edotaccent" unicode="&#x116;" horiz-adv-x="542" d="M144 648 L144 387 L459 387 L459 336 L144 336 L144 52 L491 52 L491 0 L82 0 L82 700 L482 700 L482 648 L144 648 Z M286 863 Q302 863 311.5 857.5 Q321 852 324 846 L324 803 Q321 797 311.5 792 Q302 787 286 787 Q272 787 262 792 Q252 797 249 803 L249 846 Q252 852 262 857.5 Q272 863 286 863 Z " />
<glyph glyph-name="Eogonek" unicode="&#x118;" horiz-adv-x="542" d="M491 0 Q433 -42 410 -69.5 Q387 -97 383 -107 L383 -145 Q387 -153 401 -160.5 Q415 -168 435 -168 Q452 -168 464.5 -165.5 Q477 -163 491 -156 L491 -196 Q477 -203 463 -206.5 Q449 -210 426 -210 Q394 -210 369.5 -197.5 Q345 -185 336 -165 L336 -100 Q344 -83 365.5 -57.5 Q387 -32 430 0 L82 0 L82 700 L482 700 L482 648 L144 648 L144 387 L459 387 L459 336 L144 336 L144 52 L491 52 L491 0 Z " />
<glyph glyph-name="Gcircumflex" unicode="&#x11c;" horiz-adv-x="634" d="M313 662 Q277 662 247.5 652.5 Q218 643 194.5 627 Q171 611 155 590 Q139 569 130 547 L130 154 Q139 132 155.5 111 Q172 90 195 74 Q218 58 248 48.5 Q278 39 314 39 Q350 39 379.5 48.5 Q409 58 432 74 Q455 90 471.5 110.5 Q488 131 497 153 L497 306 L332 306 L332 357 L556 357 L556 0 L501 0 L501 74 Q473 39 426.5 13 Q380 -13 307 -13 Q256 -13 216.5 1 Q177 15 147.5 37.5 Q118 60 98.5 86.5 Q79 113 68 139 L68 562 Q79 587 98.5 614 Q118 641 148 663 Q178 685 219 699 Q260 713 313 713 Q366 713 406.5 699 Q447 685 476.5 663.5 Q506 642 525.5 615.5 Q545 589 556 565 L556 527 L505 527 Q496 554 479 578.5 Q462 603 438 621.5 Q414 640 383 651 Q352 662 313 662 Z M451 754 L412 754 L317 869 L223 754 L184 754 L184 770 L279 902 L356 902 L451 770 L451 754 Z " />
<glyph glyph-name="Gbreve" unicode="&#x11e;" horiz-adv-x="634" d="M313 662 Q277 662 247.5 652.5 Q218 643 194.5 627 Q171 611 155 590 Q139 569 130 547 L130 154 Q139 132 155.5 111 Q172 90 195 74 Q218 58 248 48.5 Q278 39 314 39 Q350 39 379.5 48.5 Q409 58 432 74 Q455 90 471.5 110.5 Q488 131 497 153 L497 306 L332 306 L332 357 L556 357 L556 0 L501 0 L501 74 Q473 39 426.5 13 Q380 -13 307 -13 Q256 -13 216.5 1 Q177 15 147.5 37.5 Q118 60 98.5 86.5 Q79 113 68 139 L68 562 Q79 587 98.5 614 Q118 641 148 663 Q178 685 219 699 Q260 713 313 713 Q366 713 406.5 699 Q447 685 476.5 663.5 Q506 642 525.5 615.5 Q545 589 556 565 L556 527 L505 527 Q496 554 479 578.5 Q462 603 438 621.5 Q414 640 383 651 Q352 662 313 662 Z M447 816 Q442 805 432 793 Q422 781 406.5 770.5 Q391 760 369 753.5 Q347 747 317 747 Q287 747 265.5 753.5 Q244 760 228 770.5 Q212 781 202.5 793 Q193 805 187 816 L187 865 L234 865 L234 830 Q236 825 241.5 817.5 Q247 810 257 803 Q267 796 281.5 791 Q296 786 317 786 Q338 786 352.5 791 Q367 796 377 803 Q387 810 392.5 817.5 Q398 825 400 830 L400 865 L447 865 L447 816 Z " />
<glyph glyph-name="Gdotaccent" unicode="&#x120;" horiz-adv-x="634" d="M313 662 Q277 662 247.5 652.5 Q218 643 194.5 627 Q171 611 155 590 Q139 569 130 547 L130 154 Q139 132 155.5 111 Q172 90 195 74 Q218 58 248 48.5 Q278 39 314 39 Q350 39 379.5 48.5 Q409 58 432 74 Q455 90 471.5 110.5 Q488 131 497 153 L497 306 L332 306 L332 357 L556 357 L556 0 L501 0 L501 74 Q473 39 426.5 13 Q380 -13 307 -13 Q256 -13 216.5 1 Q177 15 147.5 37.5 Q118 60 98.5 86.5 Q79 113 68 139 L68 562 Q79 587 98.5 614 Q118 641 148 663 Q178 685 219 699 Q260 713 313 713 Q366 713 406.5 699 Q447 685 476.5 663.5 Q506 642 525.5 615.5 Q545 589 556 565 L556 527 L505 527 Q496 554 479 578.5 Q462 603 438 621.5 Q414 640 383 651 Q352 662 313 662 Z M317 863 Q333 863 342.5 857.5 Q352 852 355 846 L355 803 Q352 797 342.5 792 Q333 787 317 787 Q303 787 293 792 Q283 797 280 803 L280 846 Q283 852 293 857.5 Q303 863 317 863 Z " />
<glyph glyph-name="Gcommaaccent" unicode="&#x122;" horiz-adv-x="634" d="M313 662 Q277 662 247.5 652.5 Q218 643 194.5 627 Q171 611 155 590 Q139 569 130 547 L130 154 Q139 132 155.5 111 Q172 90 195 74 Q218 58 248 48.5 Q278 39 314 39 Q350 39 379.5 48.5 Q409 58 432 74 Q455 90 471.5 110.5 Q488 131 497 153 L497 306 L332 306 L332 357 L556 357 L556 0 L501 0 L501 74 Q473 39 426.5 13 Q380 -13 307 -13 Q256 -13 216.5 1 Q177 15 147.5 37.5 Q118 60 98.5 86.5 Q79 113 68 139 L68 562 Q79 587 98.5 614 Q118 641 148 663 Q178 685 219 699 Q260 713 313 713 Q366 713 406.5 699 Q447 685 476.5 663.5 Q506 642 525.5 615.5 Q545 589 556 565 L556 527 L505 527 Q496 554 479 578.5 Q462 603 438 621.5 Q414 640 383 651 Q352 662 313 662 Z M317 -67 Q331 -67 340 -71 Q349 -75 351 -79 L351 -165 Q349 -173 338 -183.5 Q327 -194 307 -194 L287 -194 L287 -169 L302 -169 Q313 -169 317 -161 L317 -130 Q304 -130 295 -126.5 Q286 -123 284 -119 L284 -79 Q286 -75 295 -71 Q304 -67 317 -67 Z " />
<glyph glyph-name="Hcircumflex" unicode="&#x124;" horiz-adv-x="641" d="M497 0 L497 335 L144 335 L144 0 L82 0 L82 700 L144 700 L144 387 L497 387 L497 700 L559 700 L559 0 L497 0 Z M454 754 L415 754 L320 869 L226 754 L187 754 L187 770 L282 902 L359 902 L454 770 L454 754 Z " />
<glyph glyph-name="Hbar" unicode="&#x126;" horiz-adv-x="641" d="M559 564 L559 0 L497 0 L497 335 L144 335 L144 0 L82 0 L82 564 L33 564 L33 607 L82 607 L82 700 L144 700 L144 607 L497 607 L497 700 L559 700 L559 607 L616 607 L616 564 L559 564 Z M144 564 L144 387 L497 387 L497 564 L144 564 Z " />
<glyph glyph-name="Igrave" unicode="&#xcc;" horiz-adv-x="226" d="M82 0 L82 700 L144 700 L144 0 L82 0 Z M134 754 L93 754 L12 872 L12 902 L63 902 L134 770 L134 754 Z " />
<glyph glyph-name="Iacute" unicode="&#xcd;" horiz-adv-x="226" d="M82 0 L82 700 L144 700 L144 0 L82 0 Z M128 754 L87 754 L87 770 L157 902 L209 902 L209 872 L128 754 Z " />
<glyph glyph-name="Icircumflex" unicode="&#xce;" horiz-adv-x="226" d="M82 0 L82 700 L144 700 L144 0 L82 0 Z M247 754 L208 754 L113 869 L19 754 L-20 754 L-20 770 L75 902 L152 902 L247 770 L247 754 Z " />
<glyph glyph-name="Itilde" unicode="&#x128;" horiz-adv-x="226" d="M82 0 L82 700 L144 700 L144 0 L82 0 Z M45 857 Q68 857 86 848.5 Q104 840 119 829.5 Q134 819 148 810.5 Q162 802 179 802 Q196 802 208 811 Q220 820 224 833 L224 851 L264 851 L264 816 Q256 793 236 776.5 Q216 760 182 760 Q159 760 141.5 768.5 Q124 777 109 787.5 Q94 798 79.5 807 Q65 816 49 816 Q30 816 18 805.5 Q6 795 3 785 L3 766 L-37 766 L-37 801 Q-15 857 45 857 Z " />
<glyph glyph-name="Idieresis" unicode="&#xcf;" horiz-adv-x="226" d="M82 0 L82 700 L144 700 L144 0 L82 0 Z M17 855 Q33 855 42 850.5 Q51 846 54 841 L54 792 Q51 788 42 783 Q33 778 17 778 Q2 778 -7.5 783 Q-17 788 -20 792 L-20 841 Q-17 846 -7.5 850.5 Q2 855 17 855 Z M208 855 Q223 855 232.5 850.5 Q242 846 245 841 L245 792 Q242 788 232.5 783 Q223 778 208 778 Q193 778 183.5 783 Q174 788 171 792 L171 841 Q174 846 183.5 850.5 Q193 855 208 855 Z " />
<glyph glyph-name="Imacron" unicode="&#x12a;" horiz-adv-x="226" d="M82 0 L82 700 L144 700 L144 0 L82 0 Z M-35 781 L-35 826 L261 826 L261 781 L-35 781 Z " />
<glyph glyph-name="Ibreve" unicode="&#x12c;" horiz-adv-x="226" d="M82 0 L82 700 L144 700 L144 0 L82 0 Z M243 816 Q238 805 228 793 Q218 781 202.5 770.5 Q187 760 165 753.5 Q143 747 113 747 Q83 747 61.5 753.5 Q40 760 24 770.5 Q8 781 -1.5 793 Q-11 805 -17 816 L-17 865 L30 865 L30 830 Q32 825 37.5 817.5 Q43 810 53 803 Q63 796 77.5 791 Q92 786 113 786 Q134 786 148.5 791 Q163 796 173 803 Q183 810 188.5 817.5 Q194 825 196 830 L196 865 L243 865 L243 816 Z " />
<glyph glyph-name="Iogonek" unicode="&#x12e;" horiz-adv-x="226" d="M144 0 Q91 -38 65.5 -68 Q40 -98 36 -107 L36 -145 Q40 -153 54 -160.5 Q68 -168 87 -168 Q104 -168 117 -165.5 Q130 -163 144 -156 L144 -196 Q130 -203 116 -206.5 Q102 -210 79 -210 Q47 -210 22.5 -197.5 Q-2 -185 -11 -165 L-11 -100 Q-3 -83 19 -56.5 Q41 -30 82 0 L82 700 L144 700 L144 0 Z " />
<glyph glyph-name="IJ" unicode="&#x132;" horiz-adv-x="613" d="M82 0 L82 700 L144 700 L144 0 L82 0 Z M535 139 Q522 110 501.5 84.5 Q481 59 451 40 Q421 21 381.5 10 Q342 -1 293 -1 Q277 -1 264 -0.5 Q251 0 246 0 L246 51 L290 51 Q357 51 405 79 Q453 107 473 156 L473 700 L535 700 L535 139 Z " />
<glyph glyph-name="Jcircumflex" unicode="&#x134;" horiz-adv-x="386" d="M309 139 Q296 110 275.5 84.5 Q255 59 225 40 Q195 21 155.5 10 Q116 -1 67 -1 Q51 -1 38 -0.5 Q25 0 20 0 L20 51 L64 51 Q131 51 179 79 Q227 107 247 156 L247 700 L309 700 L309 139 Z M411 754 L372 754 L277 869 L183 754 L144 754 L144 770 L239 902 L316 902 L411 770 L411 754 Z " />
<glyph glyph-name="Kcommaaccent" unicode="&#x136;" horiz-adv-x="579" d="M546 0 L504 0 L246 374 L144 267 L144 0 L82 0 L82 700 L144 700 L144 344 L481 700 L517 700 L517 657 L287 416 L546 43 L546 0 Z M290 -67 Q304 -67 313 -71 Q322 -75 324 -79 L324 -165 Q322 -173 311 -183.5 Q300 -194 280 -194 L260 -194 L260 -169 L275 -169 Q286 -169 290 -161 L290 -130 Q277 -130 268 -126.5 Q259 -123 257 -119 L257 -79 Q259 -75 268 -71 Q277 -67 290 -67 Z " />
<glyph glyph-name="Lacute" unicode="&#x139;" horiz-adv-x="452" d="M428 52 L428 0 L82 0 L82 700 L144 700 L144 52 L428 52 Z M131 754 L90 754 L90 770 L160 902 L212 902 L212 872 L131 754 Z " />
<glyph glyph-name="Lcaron" unicode="&#x13d;" horiz-adv-x="452" d="M428 52 L428 0 L82 0 L82 700 L144 700 L144 52 L428 52 Z M299 539 L261 539 L261 554 L279 700 L329 700 L329 666 L299 539 Z " />
<glyph glyph-name="Lcommaaccent" unicode="&#x13b;" horiz-adv-x="452" d="M428 52 L428 0 L82 0 L82 700 L144 700 L144 52 L428 52 Z M226 -67 Q240 -67 249 -71 Q258 -75 260 -79 L260 -165 Q258 -173 247 -183.5 Q236 -194 216 -194 L196 -194 L196 -169 L211 -169 Q222 -169 226 -161 L226 -130 Q213 -130 204 -126.5 Q195 -123 193 -119 L193 -79 Q195 -75 204 -71 Q213 -67 226 -67 Z " />
<glyph glyph-name="Lslash" unicode="&#x141;" horiz-adv-x="483" d="M459 0 L113 0 L113 239 L28 195 L28 247 L113 291 L113 700 L175 700 L175 324 L378 430 L378 377 L175 271 L175 52 L459 52 L459 0 Z " />
<glyph glyph-name="Ldot" unicode="&#x13f;" horiz-adv-x="452" d="M428 52 L428 0 L82 0 L82 700 L144 700 L144 52 L428 52 Z M380 411 L380 366 Q377 360 367 354.5 Q357 349 343 349 Q329 349 319 354.5 Q309 360 305 366 L305 411 Q308 418 318.5 423 Q329 428 343 428 Q357 428 367.5 423 Q378 418 380 411 Z " />
<glyph glyph-name="Nacute" unicode="&#x143;" horiz-adv-x="657" d="M490 0 L144 624 L141 624 L141 0 L82 0 L82 700 L167 700 L513 76 L516 76 L516 700 L575 700 L575 0 L490 0 Z M344 754 L303 754 L303 770 L373 902 L425 902 L425 872 L344 754 Z " />
<glyph glyph-name="Ncaron" unicode="&#x147;" horiz-adv-x="657" d="M490 0 L144 624 L141 624 L141 0 L82 0 L82 700 L167 700 L513 76 L516 76 L516 700 L575 700 L575 0 L490 0 Z M368 754 L291 754 L196 886 L196 902 L235 902 L329 786 L424 902 L463 902 L463 886 L368 754 Z " />
<glyph glyph-name="Ntilde" unicode="&#xd1;" horiz-adv-x="657" d="M490 0 L144 624 L141 624 L141 0 L82 0 L82 700 L167 700 L513 76 L516 76 L516 700 L575 700 L575 0 L490 0 Z M261 857 Q284 857 302 848.5 Q320 840 335 829.5 Q350 819 364 810.5 Q378 802 395 802 Q412 802 424 811 Q436 820 440 833 L440 851 L480 851 L480 816 Q472 793 452 776.5 Q432 760 398 760 Q375 760 357.5 768.5 Q340 777 325 787.5 Q310 798 295.5 807 Q281 816 265 816 Q246 816 234 805.5 Q222 795 219 785 L219 766 L179 766 L179 801 Q201 857 261 857 Z " />
<glyph glyph-name="Ncommaaccent" unicode="&#x145;" horiz-adv-x="657" d="M490 0 L144 624 L141 624 L141 0 L82 0 L82 700 L167 700 L513 76 L516 76 L516 700 L575 700 L575 0 L490 0 Z M328 -67 Q342 -67 351 -71 Q360 -75 362 -79 L362 -165 Q360 -173 349 -183.5 Q338 -194 318 -194 L298 -194 L298 -169 L313 -169 Q324 -169 328 -161 L328 -130 Q315 -130 306 -126.5 Q297 -123 295 -119 L295 -79 Q297 -75 306 -71 Q315 -67 328 -67 Z " />
<glyph glyph-name="Ograve" unicode="&#xd2;" horiz-adv-x="626" d="M313 713 Q366 713 407 699 Q448 685 478 663 Q508 641 528 614 Q548 587 558 562 L558 139 Q548 113 528 86.5 Q508 60 478 37.5 Q448 15 407 1 Q366 -13 313 -13 Q260 -13 219 1 Q178 15 148 37.5 Q118 60 98.5 86.5 Q79 113 68 139 L68 562 Q78 587 98 614 Q118 641 148 663 Q178 685 219 699 Q260 713 313 713 Z M313 662 Q277 662 247.5 652.5 Q218 643 194.5 627 Q171 611 155 590 Q139 569 130 547 L130 154 Q139 132 155 111 Q171 90 194.5 74 Q218 58 247.5 48.5 Q277 39 313 39 Q349 39 378.5 48.5 Q408 58 431.5 74 Q455 90 471 111 Q487 132 496 154 L496 547 Q487 569 471 590 Q455 611 431.5 627 Q408 643 378.5 652.5 Q349 662 313 662 Z M334 754 L293 754 L212 872 L212 902 L263 902 L334 770 L334 754 Z " />
<glyph glyph-name="Oacute" unicode="&#xd3;" horiz-adv-x="626" d="M313 713 Q366 713 407 699 Q448 685 478 663 Q508 641 528 614 Q548 587 558 562 L558 139 Q548 113 528 86.5 Q508 60 478 37.5 Q448 15 407 1 Q366 -13 313 -13 Q260 -13 219 1 Q178 15 148 37.5 Q118 60 98.5 86.5 Q79 113 68 139 L68 562 Q78 587 98 614 Q118 641 148 663 Q178 685 219 699 Q260 713 313 713 Z M313 662 Q277 662 247.5 652.5 Q218 643 194.5 627 Q171 611 155 590 Q139 569 130 547 L130 154 Q139 132 155 111 Q171 90 194.5 74 Q218 58 247.5 48.5 Q277 39 313 39 Q349 39 378.5 48.5 Q408 58 431.5 74 Q455 90 471 111 Q487 132 496 154 L496 547 Q487 569 471 590 Q455 611 431.5 627 Q408 643 378.5 652.5 Q349 662 313 662 Z M327 754 L286 754 L286 770 L356 902 L408 902 L408 872 L327 754 Z " />
<glyph glyph-name="Ocircumflex" unicode="&#xd4;" horiz-adv-x="626" d="M313 713 Q366 713 407 699 Q448 685 478 663 Q508 641 528 614 Q548 587 558 562 L558 139 Q548 113 528 86.5 Q508 60 478 37.5 Q448 15 407 1 Q366 -13 313 -13 Q260 -13 219 1 Q178 15 148 37.5 Q118 60 98.5 86.5 Q79 113 68 139 L68 562 Q78 587 98 614 Q118 641 148 663 Q178 685 219 699 Q260 713 313 713 Z M313 662 Q277 662 247.5 652.5 Q218 643 194.5 627 Q171 611 155 590 Q139 569 130 547 L130 154 Q139 132 155 111 Q171 90 194.5 74 Q218 58 247.5 48.5 Q277 39 313 39 Q349 39 378.5 48.5 Q408 58 431.5 74 Q455 90 471 111 Q487 132 496 154 L496 547 Q487 569 471 590 Q455 611 431.5 627 Q408 643 378.5 652.5 Q349 662 313 662 Z M447 754 L408 754 L313 869 L219 754 L180 754 L180 770 L275 902 L352 902 L447 770 L447 754 Z " />
<glyph glyph-name="Otilde" unicode="&#xd5;" horiz-adv-x="626" d="M313 713 Q366 713 407 699 Q448 685 478 663 Q508 641 528 614 Q548 587 558 562 L558 139 Q548 113 528 86.5 Q508 60 478 37.5 Q448 15 407 1 Q366 -13 313 -13 Q260 -13 219 1 Q178 15 148 37.5 Q118 60 98.5 86.5 Q79 113 68 139 L68 562 Q78 587 98 614 Q118 641 148 663 Q178 685 219 699 Q260 713 313 713 Z M313 662 Q277 662 247.5 652.5 Q218 643 194.5 627 Q171 611 155 590 Q139 569 130 547 L130 154 Q139 132 155 111 Q171 90 194.5 74 Q218 58 247.5 48.5 Q277 39 313 39 Q349 39 378.5 48.5 Q408 58 431.5 74 Q455 90 471 111 Q487 132 496 154 L496 547 Q487 569 471 590 Q455 611 431.5 627 Q408 643 378.5 652.5 Q349 662 313 662 Z M245 857 Q268 857 286 848.5 Q304 840 319 829.5 Q334 819 348 810.5 Q362 802 379 802 Q396 802 408 811 Q420 820 424 833 L424 851 L464 851 L464 816 Q456 793 436 776.5 Q416 760 382 760 Q359 760 341.5 768.5 Q324 777 309 787.5 Q294 798 279.5 807 Q265 816 249 816 Q230 816 218 805.5 Q206 795 203 785 L203 766 L163 766 L163 801 Q185 857 245 857 Z " />
<glyph glyph-name="Odieresis" unicode="&#xd6;" horiz-adv-x="626" d="M313 713 Q366 713 407 699 Q448 685 478 663 Q508 641 528 614 Q548 587 558 562 L558 139 Q548 113 528 86.5 Q508 60 478 37.5 Q448 15 407 1 Q366 -13 313 -13 Q260 -13 219 1 Q178 15 148 37.5 Q118 60 98.5 86.5 Q79 113 68 139 L68 562 Q78 587 98 614 Q118 641 148 663 Q178 685 219 699 Q260 713 313 713 Z M313 662 Q277 662 247.5 652.5 Q218 643 194.5 627 Q171 611 155 590 Q139 569 130 547 L130 154 Q139 132 155 111 Q171 90 194.5 74 Q218 58 247.5 48.5 Q277 39 313 39 Q349 39 378.5 48.5 Q408 58 431.5 74 Q455 90 471 111 Q487 132 496 154 L496 547 Q487 569 471 590 Q455 611 431.5 627 Q408 643 378.5 652.5 Q349 662 313 662 Z M217 855 Q233 855 242 850.5 Q251 846 254 841 L254 792 Q251 788 242 783 Q233 778 217 778 Q202 778 192.5 783 Q183 788 180 792 L180 841 Q183 846 192.5 850.5 Q202 855 217 855 Z M408 855 Q423 855 432.5 850.5 Q442 846 445 841 L445 792 Q442 788 432.5 783 Q423 778 408 778 Q393 778 383.5 783 Q374 788 371 792 L371 841 Q374 846 383.5 850.5 Q393 855 408 855 Z " />
<glyph glyph-name="Omacron" unicode="&#x14c;" horiz-adv-x="626" d="M313 713 Q366 713 407 699 Q448 685 478 663 Q508 641 528 614 Q548 587 558 562 L558 139 Q548 113 528 86.5 Q508 60 478 37.5 Q448 15 407 1 Q366 -13 313 -13 Q260 -13 219 1 Q178 15 148 37.5 Q118 60 98.5 86.5 Q79 113 68 139 L68 562 Q78 587 98 614 Q118 641 148 663 Q178 685 219 699 Q260 713 313 713 Z M313 662 Q277 662 247.5 652.5 Q218 643 194.5 627 Q171 611 155 590 Q139 569 130 547 L130 154 Q139 132 155 111 Q171 90 194.5 74 Q218 58 247.5 48.5 Q277 39 313 39 Q349 39 378.5 48.5 Q408 58 431.5 74 Q455 90 471 111 Q487 132 496 154 L496 547 Q487 569 471 590 Q455 611 431.5 627 Q408 643 378.5 652.5 Q349 662 313 662 Z M165 781 L165 826 L461 826 L461 781 L165 781 Z " />
<glyph glyph-name="Obreve" unicode="&#x14e;" horiz-adv-x="626" d="M313 713 Q366 713 407 699 Q448 685 478 663 Q508 641 528 614 Q548 587 558 562 L558 139 Q548 113 528 86.5 Q508 60 478 37.5 Q448 15 407 1 Q366 -13 313 -13 Q260 -13 219 1 Q178 15 148 37.5 Q118 60 98.5 86.5 Q79 113 68 139 L68 562 Q78 587 98 614 Q118 641 148 663 Q178 685 219 699 Q260 713 313 713 Z M313 662 Q277 662 247.5 652.5 Q218 643 194.5 627 Q171 611 155 590 Q139 569 130 547 L130 154 Q139 132 155 111 Q171 90 194.5 74 Q218 58 247.5 48.5 Q277 39 313 39 Q349 39 378.5 48.5 Q408 58 431.5 74 Q455 90 471 111 Q487 132 496 154 L496 547 Q487 569 471 590 Q455 611 431.5 627 Q408 643 378.5 652.5 Q349 662 313 662 Z M443 816 Q438 805 428 793 Q418 781 402.5 770.5 Q387 760 365 753.5 Q343 747 313 747 Q283 747 261.5 753.5 Q240 760 224 770.5 Q208 781 198.5 793 Q189 805 183 816 L183 865 L230 865 L230 830 Q232 825 237.5 817.5 Q243 810 253 803 Q263 796 277.5 791 Q292 786 313 786 Q334 786 348.5 791 Q363 796 373 803 Q383 810 388.5 817.5 Q394 825 396 830 L396 865 L443 865 L443 816 Z " />
<glyph glyph-name="Ohungarumlaut" unicode="&#x150;" horiz-adv-x="626" d="M313 713 Q366 713 407 699 Q448 685 478 663 Q508 641 528 614 Q548 587 558 562 L558 139 Q548 113 528 86.5 Q508 60 478 37.5 Q448 15 407 1 Q366 -13 313 -13 Q260 -13 219 1 Q178 15 148 37.5 Q118 60 98.5 86.5 Q79 113 68 139 L68 562 Q78 587 98 614 Q118 641 148 663 Q178 685 219 699 Q260 713 313 713 Z M313 662 Q277 662 247.5 652.5 Q218 643 194.5 627 Q171 611 155 590 Q139 569 130 547 L130 154 Q139 132 155 111 Q171 90 194.5 74 Q218 58 247.5 48.5 Q277 39 313 39 Q349 39 378.5 48.5 Q408 58 431.5 74 Q455 90 471 111 Q487 132 496 154 L496 547 Q487 569 471 590 Q455 611 431.5 627 Q408 643 378.5 652.5 Q349 662 313 662 Z M249 754 L211 754 L211 770 L263 902 L309 902 L309 874 L249 754 Z M417 754 L380 754 L380 770 L432 902 L478 902 L478 874 L417 754 Z " />
<glyph glyph-name="Oslash" unicode="&#xd8;" horiz-adv-x="626" d="M523 619 Q535 605 543.5 590.5 Q552 576 558 562 L558 139 Q547 113 527.5 86.5 Q508 60 478 37.5 Q448 15 407 1 Q366 -13 313 -13 Q253 -13 209.5 4.5 Q166 22 135 48 L103 0 L68 0 L68 30 L103 81 Q91 95 82.5 110 Q74 125 68 139 L68 562 Q79 587 98.5 614 Q118 641 148 663 Q178 685 219 699 Q260 713 313 713 Q373 713 416.5 695.5 Q460 678 491 652 L523 700 L558 700 L558 670 L523 619 Z M130 154 Q132 149 134.5 144.5 Q137 140 139 135 L458 604 Q433 630 397 646 Q361 662 313 662 Q277 662 247.5 652.5 Q218 643 194.5 627 Q171 611 155 590 Q139 569 130 547 L130 154 Z M496 547 Q494 552 491.5 556.5 Q489 561 487 566 L168 96 Q193 71 229 55 Q265 39 313 39 Q349 39 378.5 48.5 Q408 58 431.5 74 Q455 90 471 111 Q487 132 496 154 L496 547 Z " />
<glyph glyph-name="OE" unicode="&#x152;" horiz-adv-x="955" d="M904 0 L495 0 L495 53 Q464 25 419.5 6 Q375 -13 312 -13 Q259 -13 218 1 Q177 15 147 37.5 Q117 60 97.5 86.5 Q78 113 67 139 L67 562 Q78 587 97.5 614 Q117 641 147 663 Q177 685 218 699 Q259 713 312 713 Q375 713 419.5 694 Q464 675 495 647 L495 700 L895 700 L895 648 L557 648 L557 387 L871 387 L871 336 L557 336 L557 52 L904 52 L904 0 Z M312 39 Q348 39 377.5 48.5 Q407 58 430.5 74 Q454 90 470 111 Q486 132 495 154 L495 547 Q486 569 470 590 Q454 611 430.5 627 Q407 643 377.5 652.5 Q348 662 312 662 Q276 662 246.5 652.5 Q217 643 193.5 627 Q170 611 154 590 Q138 569 129 547 L129 154 Q138 132 154 111 Q170 90 193.5 74 Q217 58 246.5 48.5 Q276 39 312 39 Z " />
<glyph glyph-name="Racute" unicode="&#x154;" horiz-adv-x="583" d="M530 0 L487 0 L280 309 L144 309 L144 0 L82 0 L82 700 L325 700 Q386 700 438 668.5 Q490 637 520 583 L520 427 Q494 381 450.5 348.5 Q407 316 347 310 L530 43 L530 0 Z M312 360 Q362 360 399.5 382 Q437 404 460 445 L460 562 Q437 606 397 627 Q357 648 312 648 L144 648 L144 360 L312 360 Z M305 754 L264 754 L264 770 L334 902 L386 902 L386 872 L305 754 Z " />
<glyph glyph-name="Rcaron" unicode="&#x158;" horiz-adv-x="583" d="M530 0 L487 0 L280 309 L144 309 L144 0 L82 0 L82 700 L325 700 Q386 700 438 668.5 Q490 637 520 583 L520 427 Q494 381 450.5 348.5 Q407 316 347 310 L530 43 L530 0 Z M312 360 Q362 360 399.5 382 Q437 404 460 445 L460 562 Q437 606 397 627 Q357 648 312 648 L144 648 L144 360 L312 360 Z M330 754 L253 754 L158 886 L158 902 L197 902 L291 786 L386 902 L425 902 L425 886 L330 754 Z " />
<glyph glyph-name="Rcommaaccent" unicode="&#x156;" horiz-adv-x="583" d="M530 0 L487 0 L280 309 L144 309 L144 0 L82 0 L82 700 L325 700 Q386 700 438 668.5 Q490 637 520 583 L520 427 Q494 381 450.5 348.5 Q407 316 347 310 L530 43 L530 0 Z M312 360 Q362 360 399.5 382 Q437 404 460 445 L460 562 Q437 606 397 627 Q357 648 312 648 L144 648 L144 360 L312 360 Z M291 -67 Q305 -67 314 -71 Q323 -75 325 -79 L325 -165 Q323 -173 312 -183.5 Q301 -194 281 -194 L261 -194 L261 -169 L276 -169 Q287 -169 291 -161 L291 -130 Q278 -130 269 -126.5 Q260 -123 258 -119 L258 -79 Q260 -75 269 -71 Q278 -67 291 -67 Z " />
<glyph glyph-name="Sacute" unicode="&#x15a;" horiz-adv-x="572" d="M285 713 Q331 713 367 702.5 Q403 692 430.5 675.5 Q458 659 477 638.5 Q496 618 507 599 L507 560 L455 560 Q436 604 393.5 632.5 Q351 661 284 661 Q225 661 185 637 Q145 613 125 580 L125 476 Q132 464 141.5 453.5 Q151 443 166 433.5 Q181 424 202.5 415.5 Q224 407 256 399 L330 380 Q379 367 411.5 352.5 Q444 338 464.5 323 Q485 308 497 292 Q509 276 518 260 L518 118 Q508 99 490 76.5 Q472 54 443.5 34 Q415 14 375.5 0.5 Q336 -13 283 -13 Q229 -13 188.5 0.5 Q148 14 118.5 34 Q89 54 70.5 77 Q52 100 43 118 L43 157 L95 157 Q103 136 119 114.5 Q135 93 159 76.5 Q183 60 214 49.5 Q245 39 283 39 Q319 39 348 48.5 Q377 58 398.5 72 Q420 86 435 103.5 Q450 121 458 136 L458 237 Q452 250 442.5 262 Q433 274 417.5 285.5 Q402 297 378 307 Q354 317 320 326 L245 345 Q203 355 173.5 366.5 Q144 378 124 391.5 Q104 405 90 420.5 Q76 436 64 454 L64 599 Q76 618 95 638.5 Q114 659 141 675.5 Q168 692 203.5 702.5 Q239 713 285 713 Z M308 754 L267 754 L267 770 L337 902 L389 902 L389 872 L308 754 Z " />
<glyph glyph-name="Scircumflex" unicode="&#x15c;" horiz-adv-x="572" d="M285 713 Q331 713 367 702.5 Q403 692 430.5 675.5 Q458 659 477 638.5 Q496 618 507 599 L507 560 L455 560 Q436 604 393.5 632.5 Q351 661 284 661 Q225 661 185 637 Q145 613 125 580 L125 476 Q132 464 141.5 453.5 Q151 443 166 433.5 Q181 424 202.5 415.5 Q224 407 256 399 L330 380 Q379 367 411.5 352.5 Q444 338 464.5 323 Q485 308 497 292 Q509 276 518 260 L518 118 Q508 99 490 76.5 Q472 54 443.5 34 Q415 14 375.5 0.5 Q336 -13 283 -13 Q229 -13 188.5 0.5 Q148 14 118.5 34 Q89 54 70.5 77 Q52 100 43 118 L43 157 L95 157 Q103 136 119 114.5 Q135 93 159 76.5 Q183 60 214 49.5 Q245 39 283 39 Q319 39 348 48.5 Q377 58 398.5 72 Q420 86 435 103.5 Q450 121 458 136 L458 237 Q452 250 442.5 262 Q433 274 417.5 285.5 Q402 297 378 307 Q354 317 320 326 L245 345 Q203 355 173.5 366.5 Q144 378 124 391.5 Q104 405 90 420.5 Q76 436 64 454 L64 599 Q76 618 95 638.5 Q114 659 141 675.5 Q168 692 203.5 702.5 Q239 713 285 713 Z M427 754 L388 754 L293 869 L199 754 L160 754 L160 770 L255 902 L332 902 L427 770 L427 754 Z " />
<glyph glyph-name="Scaron" unicode="&#x160;" horiz-adv-x="572" d="M285 713 Q331 713 367 702.5 Q403 692 430.5 675.5 Q458 659 477 638.5 Q496 618 507 599 L507 560 L455 560 Q436 604 393.5 632.5 Q351 661 284 661 Q225 661 185 637 Q145 613 125 580 L125 476 Q132 464 141.5 453.5 Q151 443 166 433.5 Q181 424 202.5 415.5 Q224 407 256 399 L330 380 Q379 367 411.5 352.5 Q444 338 464.5 323 Q485 308 497 292 Q509 276 518 260 L518 118 Q508 99 490 76.5 Q472 54 443.5 34 Q415 14 375.5 0.5 Q336 -13 283 -13 Q229 -13 188.5 0.5 Q148 14 118.5 34 Q89 54 70.5 77 Q52 100 43 118 L43 157 L95 157 Q103 136 119 114.5 Q135 93 159 76.5 Q183 60 214 49.5 Q245 39 283 39 Q319 39 348 48.5 Q377 58 398.5 72 Q420 86 435 103.5 Q450 121 458 136 L458 237 Q452 250 442.5 262 Q433 274 417.5 285.5 Q402 297 378 307 Q354 317 320 326 L245 345 Q203 355 173.5 366.5 Q144 378 124 391.5 Q104 405 90 420.5 Q76 436 64 454 L64 599 Q76 618 95 638.5 Q114 659 141 675.5 Q168 692 203.5 702.5 Q239 713 285 713 Z M332 754 L255 754 L160 886 L160 902 L199 902 L293 786 L388 902 L427 902 L427 886 L332 754 Z " />
<glyph glyph-name="Scedilla" unicode="&#x15e;" horiz-adv-x="572" d="M330 380 Q379 367 411.5 352.5 Q444 338 464.5 323 Q485 308 497 292 Q509 276 518 260 L518 118 Q508 100 491 78 Q474 56 447.5 36.5 Q421 17 384 3 Q347 -11 298 -13 L281 -58 L299 -58 Q332 -58 352 -72 Q372 -86 380 -102 L380 -170 Q371 -188 348.5 -202.5 Q326 -217 291 -217 Q262 -217 238.5 -210 Q215 -203 198 -192 L211 -159 Q227 -168 246 -174.5 Q265 -181 288 -181 Q310 -181 322 -173 Q334 -165 339 -156 L339 -115 Q334 -106 321.5 -98 Q309 -90 288 -90 L230 -90 L257 -12 Q210 -9 174 5.5 Q138 20 111.5 39 Q85 58 68.5 79.5 Q52 101 43 118 L43 157 L95 157 Q103 136 119 114.5 Q135 93 159 76.5 Q183 60 214 49.5 Q245 39 283 39 Q319 39 348 48.5 Q377 58 398.5 72 Q420 86 435 103.5 Q450 121 458 136 L458 238 Q452 251 442.5 263 Q433 275 417.5 286.5 Q402 298 378 307.5 Q354 317 320 326 L245 345 Q203 356 173.5 367.5 Q144 379 124 392 Q104 405 90 420.5 Q76 436 64 454 L64 599 Q76 618 95 638.5 Q114 659 141 675.5 Q168 692 203.5 702.5 Q239 713 285 713 Q331 713 367 702.5 Q403 692 430.5 675.5 Q458 659 477 638.5 Q496 618 507 599 L507 560 L455 560 Q436 604 393.5 632.5 Q351 661 284 661 Q225 661 185 637 Q145 613 125 580 L125 476 Q132 464 141.5 453.5 Q151 443 166 433.5 Q181 424 202.5 415.5 Q224 407 256 399 L330 380 Z " />
<glyph glyph-name="Scommaaccent" unicode="&#x218;" horiz-adv-x="572" d="M285 713 Q331 713 367 702.5 Q403 692 430.5 675.5 Q458 659 477 638.5 Q496 618 507 599 L507 560 L455 560 Q436 604 393.5 632.5 Q351 661 284 661 Q225 661 185 637 Q145 613 125 580 L125 476 Q132 464 141.5 453.5 Q151 443 166 433.5 Q181 424 202.5 415.5 Q224 407 256 399 L330 380 Q379 367 411.5 352.5 Q444 338 464.5 323 Q485 308 497 292 Q509 276 518 260 L518 118 Q508 99 490 76.5 Q472 54 443.5 34 Q415 14 375.5 0.5 Q336 -13 283 -13 Q229 -13 188.5 0.5 Q148 14 118.5 34 Q89 54 70.5 77 Q52 100 43 118 L43 157 L95 157 Q103 136 119 114.5 Q135 93 159 76.5 Q183 60 214 49.5 Q245 39 283 39 Q319 39 348 48.5 Q377 58 398.5 72 Q420 86 435 103.5 Q450 121 458 136 L458 237 Q452 250 442.5 262 Q433 274 417.5 285.5 Q402 297 378 307 Q354 317 320 326 L245 345 Q203 355 173.5 366.5 Q144 378 124 391.5 Q104 405 90 420.5 Q76 436 64 454 L64 599 Q76 618 95 638.5 Q114 659 141 675.5 Q168 692 203.5 702.5 Q239 713 285 713 Z M284 -67 Q298 -67 307 -71 Q316 -75 318 -79 L318 -165 Q316 -173 305 -183.5 Q294 -194 274 -194 L254 -194 L254 -169 L269 -169 Q280 -169 284 -161 L284 -130 Q271 -130 262 -126.5 Q253 -123 251 -119 L251 -79 Q253 -75 262 -71 Q271 -67 284 -67 Z " />
<glyph glyph-name="Tcaron" unicode="&#x164;" horiz-adv-x="525" d="M293 648 L293 0 L231 0 L231 648 L25 648 L25 700 L500 700 L500 648 L293 648 Z M301 754 L224 754 L129 886 L129 902 L168 902 L262 786 L357 902 L396 902 L396 886 L301 754 Z " />
<glyph glyph-name="uni021A" unicode="&#x21a;" horiz-adv-x="525" d="M293 648 L293 0 L231 0 L231 648 L25 648 L25 700 L500 700 L500 648 L293 648 Z M262 -67 Q276 -67 285 -71 Q294 -75 296 -79 L296 -165 Q294 -173 283 -183.5 Q272 -194 252 -194 L232 -194 L232 -169 L247 -169 Q258 -169 262 -161 L262 -130 Q249 -130 240 -126.5 Q231 -123 229 -119 L229 -79 Q231 -75 240 -71 Q249 -67 262 -67 Z " />
<glyph glyph-name="Tbar" unicode="&#x166;" horiz-adv-x="525" d="M293 403 L443 403 L443 360 L293 360 L293 0 L231 0 L231 360 L82 360 L82 403 L231 403 L231 648 L25 648 L25 700 L500 700 L500 648 L293 648 L293 403 Z " />
<glyph glyph-name="Ugrave" unicode="&#xd9;" horiz-adv-x="644" d="M567 139 Q556 113 536.5 86.5 Q517 60 487 37.5 Q457 15 416 1 Q375 -13 322 -13 Q269 -13 228 1 Q187 15 157.5 37.5 Q128 60 108.5 86.5 Q89 113 78 139 L78 700 L140 700 L140 155 Q149 133 165 112 Q181 91 204 75 Q227 59 256.5 49.5 Q286 40 322 40 Q358 40 387.5 49.5 Q417 59 440.5 75 Q464 91 480 112 Q496 133 505 155 L505 700 L567 700 L567 139 Z M343 754 L302 754 L221 872 L221 902 L272 902 L343 770 L343 754 Z " />
<glyph glyph-name="Uacute" unicode="&#xda;" horiz-adv-x="644" d="M567 139 Q556 113 536.5 86.5 Q517 60 487 37.5 Q457 15 416 1 Q375 -13 322 -13 Q269 -13 228 1 Q187 15 157.5 37.5 Q128 60 108.5 86.5 Q89 113 78 139 L78 700 L140 700 L140 155 Q149 133 165 112 Q181 91 204 75 Q227 59 256.5 49.5 Q286 40 322 40 Q358 40 387.5 49.5 Q417 59 440.5 75 Q464 91 480 112 Q496 133 505 155 L505 700 L567 700 L567 139 Z M336 754 L295 754 L295 770 L365 902 L417 902 L417 872 L336 754 Z " />
<glyph glyph-name="Ucircumflex" unicode="&#xdb;" horiz-adv-x="644" d="M567 139 Q556 113 536.5 86.5 Q517 60 487 37.5 Q457 15 416 1 Q375 -13 322 -13 Q269 -13 228 1 Q187 15 157.5 37.5 Q128 60 108.5 86.5 Q89 113 78 139 L78 700 L140 700 L140 155 Q149 133 165 112 Q181 91 204 75 Q227 59 256.5 49.5 Q286 40 322 40 Q358 40 387.5 49.5 Q417 59 440.5 75 Q464 91 480 112 Q496 133 505 155 L505 700 L567 700 L567 139 Z M456 754 L417 754 L322 869 L228 754 L189 754 L189 770 L284 902 L361 902 L456 770 L456 754 Z " />
<glyph glyph-name="Utilde" unicode="&#x168;" horiz-adv-x="644" d="M567 139 Q556 113 536.5 86.5 Q517 60 487 37.5 Q457 15 416 1 Q375 -13 322 -13 Q269 -13 228 1 Q187 15 157.5 37.5 Q128 60 108.5 86.5 Q89 113 78 139 L78 700 L140 700 L140 155 Q149 133 165 112 Q181 91 204 75 Q227 59 256.5 49.5 Q286 40 322 40 Q358 40 387.5 49.5 Q417 59 440.5 75 Q464 91 480 112 Q496 133 505 155 L505 700 L567 700 L567 139 Z M254 857 Q277 857 295 848.5 Q313 840 328 829.5 Q343 819 357 810.5 Q371 802 388 802 Q405 802 417 811 Q429 820 433 833 L433 851 L473 851 L473 816 Q465 793 445 776.5 Q425 760 391 760 Q368 760 350.5 768.5 Q333 777 318 787.5 Q303 798 288.5 807 Q274 816 258 816 Q239 816 227 805.5 Q215 795 212 785 L212 766 L172 766 L172 801 Q194 857 254 857 Z " />
<glyph glyph-name="Udieresis" unicode="&#xdc;" horiz-adv-x="644" d="M567 139 Q556 113 536.5 86.5 Q517 60 487 37.5 Q457 15 416 1 Q375 -13 322 -13 Q269 -13 228 1 Q187 15 157.5 37.5 Q128 60 108.5 86.5 Q89 113 78 139 L78 700 L140 700 L140 155 Q149 133 165 112 Q181 91 204 75 Q227 59 256.5 49.5 Q286 40 322 40 Q358 40 387.5 49.5 Q417 59 440.5 75 Q464 91 480 112 Q496 133 505 155 L505 700 L567 700 L567 139 Z M226 855 Q242 855 251 850.5 Q260 846 263 841 L263 792 Q260 788 251 783 Q242 778 226 778 Q211 778 201.5 783 Q192 788 189 792 L189 841 Q192 846 201.5 850.5 Q211 855 226 855 Z M417 855 Q432 855 441.5 850.5 Q451 846 454 841 L454 792 Q451 788 441.5 783 Q432 778 417 778 Q402 778 392.5 783 Q383 788 380 792 L380 841 Q383 846 392.5 850.5 Q402 855 417 855 Z " />
<glyph glyph-name="Umacron" unicode="&#x16a;" horiz-adv-x="644" d="M567 139 Q556 113 536.5 86.5 Q517 60 487 37.5 Q457 15 416 1 Q375 -13 322 -13 Q269 -13 228 1 Q187 15 157.5 37.5 Q128 60 108.5 86.5 Q89 113 78 139 L78 700 L140 700 L140 155 Q149 133 165 112 Q181 91 204 75 Q227 59 256.5 49.5 Q286 40 322 40 Q358 40 387.5 49.5 Q417 59 440.5 75 Q464 91 480 112 Q496 133 505 155 L505 700 L567 700 L567 139 Z M174 781 L174 826 L470 826 L470 781 L174 781 Z " />
<glyph glyph-name="Ubreve" unicode="&#x16c;" horiz-adv-x="644" d="M567 139 Q556 113 536.5 86.5 Q517 60 487 37.5 Q457 15 416 1 Q375 -13 322 -13 Q269 -13 228 1 Q187 15 157.5 37.5 Q128 60 108.5 86.5 Q89 113 78 139 L78 700 L140 700 L140 155 Q149 133 165 112 Q181 91 204 75 Q227 59 256.5 49.5 Q286 40 322 40 Q358 40 387.5 49.5 Q417 59 440.5 75 Q464 91 480 112 Q496 133 505 155 L505 700 L567 700 L567 139 Z M452 816 Q447 805 437 793 Q427 781 411.5 770.5 Q396 760 374 753.5 Q352 747 322 747 Q292 747 270.5 753.5 Q249 760 233 770.5 Q217 781 207.5 793 Q198 805 192 816 L192 865 L239 865 L239 830 Q241 825 246.5 817.5 Q252 810 262 803 Q272 796 286.5 791 Q301 786 322 786 Q343 786 357.5 791 Q372 796 382 803 Q392 810 397.5 817.5 Q403 825 405 830 L405 865 L452 865 L452 816 Z " />
<glyph glyph-name="Uring" unicode="&#x16e;" horiz-adv-x="644" d="M567 139 Q556 113 536.5 86.5 Q517 60 487 37.5 Q457 15 416 1 Q375 -13 322 -13 Q269 -13 228 1 Q187 15 157.5 37.5 Q128 60 108.5 86.5 Q89 113 78 139 L78 700 L140 700 L140 155 Q149 133 165 112 Q181 91 204 75 Q227 59 256.5 49.5 Q286 40 322 40 Q358 40 387.5 49.5 Q417 59 440.5 75 Q464 91 480 112 Q496 133 505 155 L505 700 L567 700 L567 139 Z M322 869 Q358 869 384 854 Q410 839 420 820 L420 736 Q410 717 384 702 Q358 687 322 687 Q287 687 261 702 Q235 717 225 736 L225 820 Q235 839 261 854 Q287 869 322 869 Z M322 834 Q298 834 283 825.5 Q268 817 263 808 L263 748 Q267 740 283 731 Q299 722 322 722 Q346 722 362 731 Q378 740 382 748 L382 808 Q377 817 361.5 825.5 Q346 834 322 834 Z " />
<glyph glyph-name="Uhungarumlaut" unicode="&#x170;" horiz-adv-x="644" d="M567 139 Q556 113 536.5 86.5 Q517 60 487 37.5 Q457 15 416 1 Q375 -13 322 -13 Q269 -13 228 1 Q187 15 157.5 37.5 Q128 60 108.5 86.5 Q89 113 78 139 L78 700 L140 700 L140 155 Q149 133 165 112 Q181 91 204 75 Q227 59 256.5 49.5 Q286 40 322 40 Q358 40 387.5 49.5 Q417 59 440.5 75 Q464 91 480 112 Q496 133 505 155 L505 700 L567 700 L567 139 Z M258 754 L220 754 L220 770 L272 902 L318 902 L318 874 L258 754 Z M426 754 L389 754 L389 770 L441 902 L487 902 L487 874 L426 754 Z " />
<glyph glyph-name="Uogonek" unicode="&#x172;" horiz-adv-x="644" d="M567 139 Q556 113 536 87 Q516 61 484 35 Q458 14 436 -9 Q414 -32 397.5 -52.5 Q381 -73 371 -87.5 Q361 -102 359 -107 L359 -145 Q363 -153 377 -160.5 Q391 -168 411 -168 Q428 -168 440.5 -165.5 Q453 -163 467 -156 L467 -196 Q453 -203 439 -206.5 Q425 -210 402 -210 Q370 -210 345.5 -197.5 Q321 -185 312 -165 L312 -100 Q319 -86 338 -60.5 Q357 -35 388 -6 Q373 -9 356.5 -11 Q340 -13 322 -13 Q269 -13 228 1 Q187 15 157.5 37.5 Q128 60 108.5 86.5 Q89 113 78 139 L78 700 L140 700 L140 155 Q149 133 165 112 Q181 91 204 75 Q227 59 256.5 49.5 Q286 40 322 40 Q358 40 387.5 49.5 Q417 59 440.5 75 Q464 91 480 112 Q496 133 505 155 L505 700 L567 700 L567 139 Z " />
<glyph glyph-name="Wgrave" unicode="&#x1e80;" horiz-adv-x="883" d="M703 0 L613 0 L441 616 L438 616 L267 0 L180 0 L38 657 L38 700 L92 700 L226 59 L229 59 L406 700 L477 700 L654 59 L657 59 L792 700 L845 700 L845 657 L703 0 Z M462 754 L421 754 L340 872 L340 902 L391 902 L462 770 L462 754 Z " />
<glyph glyph-name="Wacute" unicode="&#x1e82;" horiz-adv-x="883" d="M703 0 L613 0 L441 616 L438 616 L267 0 L180 0 L38 657 L38 700 L92 700 L226 59 L229 59 L406 700 L477 700 L654 59 L657 59 L792 700 L845 700 L845 657 L703 0 Z M456 754 L415 754 L415 770 L485 902 L537 902 L537 872 L456 754 Z " />
<glyph glyph-name="Wcircumflex" unicode="&#x174;" horiz-adv-x="883" d="M703 0 L613 0 L441 616 L438 616 L267 0 L180 0 L38 657 L38 700 L92 700 L226 59 L229 59 L406 700 L477 700 L654 59 L657 59 L792 700 L845 700 L845 657 L703 0 Z M575 754 L536 754 L441 869 L347 754 L308 754 L308 770 L403 902 L480 902 L575 770 L575 754 Z " />
<glyph glyph-name="Wdieresis" unicode="&#x1e84;" horiz-adv-x="883" d="M703 0 L613 0 L441 616 L438 616 L267 0 L180 0 L38 657 L38 700 L92 700 L226 59 L229 59 L406 700 L477 700 L654 59 L657 59 L792 700 L845 700 L845 657 L703 0 Z M345 855 Q361 855 370 850.5 Q379 846 382 841 L382 792 Q379 788 370 783 Q361 778 345 778 Q330 778 320.5 783 Q311 788 308 792 L308 841 Q311 846 320.5 850.5 Q330 855 345 855 Z M536 855 Q551 855 560.5 850.5 Q570 846 573 841 L573 792 Q570 788 560.5 783 Q551 778 536 778 Q521 778 511.5 783 Q502 788 499 792 L499 841 Q502 846 511.5 850.5 Q521 855 536 855 Z " />
<glyph glyph-name="Ygrave" unicode="&#x1ef2;" horiz-adv-x="546" d="M303 310 L303 0 L241 0 L241 315 L38 657 L38 700 L81 700 L273 371 L275 371 L466 700 L508 700 L508 657 L303 310 Z M293 754 L252 754 L171 872 L171 902 L222 902 L293 770 L293 754 Z " />
<glyph glyph-name="Yacute" unicode="&#xdd;" horiz-adv-x="546" d="M303 310 L303 0 L241 0 L241 315 L38 657 L38 700 L81 700 L273 371 L275 371 L466 700 L508 700 L508 657 L303 310 Z M287 754 L246 754 L246 770 L316 902 L368 902 L368 872 L287 754 Z " />
<glyph glyph-name="Ycircumflex" unicode="&#x176;" horiz-adv-x="546" d="M303 310 L303 0 L241 0 L241 315 L38 657 L38 700 L81 700 L273 371 L275 371 L466 700 L508 700 L508 657 L303 310 Z M406 754 L367 754 L272 869 L178 754 L139 754 L139 770 L234 902 L311 902 L406 770 L406 754 Z " />
<glyph glyph-name="Ydieresis" unicode="&#x178;" horiz-adv-x="546" d="M303 310 L303 0 L241 0 L241 315 L38 657 L38 700 L81 700 L273 371 L275 371 L466 700 L508 700 L508 657 L303 310 Z M177 855 Q193 855 202 850.5 Q211 846 214 841 L214 792 Q211 788 202 783 Q193 778 177 778 Q162 778 152.5 783 Q143 788 140 792 L140 841 Q143 846 152.5 850.5 Q162 855 177 855 Z M368 855 Q383 855 392.5 850.5 Q402 846 405 841 L405 792 Q402 788 392.5 783 Q383 778 368 778 Q353 778 343.5 783 Q334 788 331 792 L331 841 Q334 846 343.5 850.5 Q353 855 368 855 Z " />
<glyph glyph-name="Zacute" unicode="&#x179;" horiz-adv-x="566" d="M125 52 L515 52 L515 0 L50 0 L50 44 L441 648 L59 648 L59 700 L515 700 L515 656 L125 52 Z M297 754 L256 754 L256 770 L326 902 L378 902 L378 872 L297 754 Z " />
<glyph glyph-name="Zcaron" unicode="&#x17d;" horiz-adv-x="566" d="M125 52 L515 52 L515 0 L50 0 L50 44 L441 648 L59 648 L59 700 L515 700 L515 656 L125 52 Z M321 754 L244 754 L149 886 L149 902 L188 902 L282 786 L377 902 L416 902 L416 886 L321 754 Z " />
<glyph glyph-name="Zdotaccent" unicode="&#x17b;" horiz-adv-x="566" d="M125 52 L515 52 L515 0 L50 0 L50 44 L441 648 L59 648 L59 700 L515 700 L515 656 L125 52 Z M282 863 Q298 863 307.5 857.5 Q317 852 320 846 L320 803 Q317 797 307.5 792 Q298 787 282 787 Q268 787 258 792 Q248 797 245 803 L245 846 Q248 852 258 857.5 Q268 863 282 863 Z " />
<glyph glyph-name="Eng" unicode="&#x14a;" horiz-adv-x="657" d="M575 -22 Q563 -51 541.5 -77.5 Q520 -104 489.5 -125 Q459 -146 419 -158.5 Q379 -171 330 -171 Q317 -171 305.5 -170.5 Q294 -170 287 -169 L287 -118 Q292 -119 307 -119.5 Q322 -120 329 -120 Q389 -120 434.5 -94 Q480 -68 503 -26 L144 624 L141 624 L141 0 L82 0 L82 700 L167 700 L513 76 L516 76 L516 700 L575 700 L575 -22 Z " />
<glyph glyph-name="Eth" unicode="&#xd0;" horiz-adv-x="651" d="M345 700 Q396 700 435 688 Q474 676 503 656.5 Q532 637 551 612 Q570 587 581 562 L581 138 Q570 112 551 87.5 Q532 63 503 43.5 Q474 24 435 12 Q396 0 345 0 L109 0 L109 331 L45 331 L45 382 L109 382 L109 700 L345 700 Z M519 545 Q502 590 455.5 619 Q409 648 337 648 L171 648 L171 382 L365 382 L365 331 L171 331 L171 52 L337 52 Q409 52 455.5 81 Q502 110 519 155 L519 545 Z " />
<glyph glyph-name="Thorn" unicode="&#xde;" horiz-adv-x="561" d="M316 578 Q377 578 429.5 547 Q482 516 511 461 L511 283 Q484 233 434.5 199.5 Q385 166 316 166 L144 166 L144 0 L82 0 L82 700 L144 700 L144 578 L316 578 Z M451 441 Q425 488 384 507 Q343 526 303 526 L144 526 L144 218 L303 218 Q350 218 389 240 Q428 262 451 304 L451 441 Z " />
<glyph glyph-name="a" unicode="a" horiz-adv-x="535" d="M256 549 Q302 549 337.5 536.5 Q373 524 399 505 Q425 486 441.5 463 Q458 440 467 419 L467 0 L411 0 L411 58 Q387 30 343.5 8.5 Q300 -13 236 -13 Q194 -13 163 -3.5 Q132 6 110 19.5 Q88 33 75 47.5 Q62 62 55 71 L55 230 Q60 238 72.5 252.5 Q85 267 106.5 281 Q128 295 159.5 305 Q191 315 235 315 L410 315 L410 405 Q402 423 388.5 440.5 Q375 458 356 471 Q337 484 312 492 Q287 500 256 500 Q226 500 202.5 492.5 Q179 485 161 473.5 Q143 462 131 448.5 Q119 435 113 422 L65 422 L65 455 Q72 465 86 481 Q100 497 123 512 Q146 527 179 538 Q212 549 256 549 Z M244 35 Q308 35 350.5 59.5 Q393 84 410 116 L410 268 L244 268 Q214 268 192 262 Q170 256 154.5 247 Q139 238 128.5 228.5 Q118 219 112 212 L112 93 Q117 87 127 77 Q137 67 153 57.5 Q169 48 191.5 41.5 Q214 35 244 35 Z " />
<glyph glyph-name="b" unicode="b" horiz-adv-x="541" d="M293 548 Q337 548 369 536.5 Q401 525 423.5 508.5 Q446 492 460 474 Q474 456 481 443 L481 93 Q474 80 460 62 Q446 44 423.5 27.5 Q401 11 369 -0.5 Q337 -12 293 -12 Q234 -12 194 6 Q154 24 129 50 L129 0 L73 0 L73 700 L130 700 L130 487 Q155 512 195 530 Q235 548 293 548 Z M423 428 Q417 438 406 450.5 Q395 463 378 473.5 Q361 484 337.5 491.5 Q314 499 283 499 Q228 499 189.5 479.5 Q151 460 130 433 L130 103 Q151 76 189.5 56.5 Q228 37 283 37 Q314 37 337.5 44.5 Q361 52 378 62.5 Q395 73 406 85.5 Q417 98 423 108 L423 428 Z " />
<glyph glyph-name="c" unicode="c" horiz-adv-x="521" d="M270 549 Q316 549 351.5 537 Q387 525 412.5 506 Q438 487 454.5 465 Q471 443 479 423 L479 391 L431 391 Q412 438 373.5 469 Q335 500 270 500 Q209 500 171 471 Q133 442 117 405 L117 131 Q133 94 171 65 Q209 36 270 36 Q335 36 373.5 67 Q412 98 431 146 L479 146 L479 113 Q471 93 454.5 71 Q438 49 412.5 30 Q387 11 351.5 -1 Q316 -13 270 -13 Q224 -13 189 -0.5 Q154 12 128 31 Q102 50 85.5 73 Q69 96 60 117 L60 419 Q69 440 85.5 463 Q102 486 128 505 Q154 524 189 536.5 Q224 549 270 549 Z " />
<glyph glyph-name="d" unicode="d" horiz-adv-x="541" d="M468 0 L412 0 L412 51 Q387 25 346.5 6.5 Q306 -12 247 -12 Q203 -12 171.5 -0.5 Q140 11 117.5 27.5 Q95 44 81 62 Q67 80 60 93 L60 443 Q67 456 81 474 Q95 492 117.5 508.5 Q140 525 171.5 536.5 Q203 548 247 548 Q304 548 345 530 Q386 512 411 486 L411 700 L468 700 L468 0 Z M258 37 Q314 37 352.5 57 Q391 77 411 104 L411 432 Q391 459 351.5 479 Q312 499 258 499 Q227 499 203.5 491.5 Q180 484 163 473.5 Q146 463 135 450.5 Q124 438 118 428 L118 108 Q124 98 135 85.5 Q146 73 163 62.5 Q180 52 203.5 44.5 Q227 37 258 37 Z " />
<glyph glyph-name="e" unicode="e" horiz-adv-x="534" d="M270 549 Q316 549 351.5 536.5 Q387 524 412.5 505.5 Q438 487 454.5 464.5 Q471 442 479 423 L479 268 L117 268 L117 132 Q125 113 138.5 96 Q152 79 171 65.5 Q190 52 215 44 Q240 36 270 36 Q334 36 373 67 Q412 98 431 146 L479 146 L479 113 Q471 93 454.5 71 Q438 49 412.5 30.5 Q387 12 351.5 -0.5 Q316 -13 270 -13 Q224 -13 189 -0.5 Q154 12 128 31 Q102 50 85.5 73 Q69 96 60 117 L60 419 Q69 440 85.5 463 Q102 486 128 505 Q154 524 189 536.5 Q224 549 270 549 Z M270 500 Q240 500 215 492 Q190 484 171 470.5 Q152 457 138.5 440 Q125 423 117 404 L117 315 L424 315 L424 404 Q416 423 403 440 Q390 457 370.5 470.5 Q351 484 326 492 Q301 500 270 500 Z " />
<glyph glyph-name="f" unicode="f" horiz-adv-x="335" d="M260 717 Q284 717 303.5 714 Q323 711 330 709 L330 665 Q322 666 308 667 Q294 668 278 668 Q245 668 223 661 Q201 654 187 644.5 Q173 635 166 624 Q159 613 155 605 L155 536 L310 536 L310 490 L155 490 L155 0 L98 0 L98 490 L23 490 L23 536 L98 536 L98 626 Q104 639 114.5 654.5 Q125 670 143.5 684 Q162 698 190 707.5 Q218 717 260 717 Z " />
<glyph glyph-name="g" unicode="g" horiz-adv-x="541" d="M468 -57 Q459 -78 442 -100 Q425 -122 399 -139 Q373 -156 337.5 -167 Q302 -178 256 -178 Q210 -178 175 -167 Q140 -156 115 -140 Q90 -124 74 -106 Q58 -88 51 -75 L51 -41 L99 -41 Q116 -74 155 -101.5 Q194 -129 256 -129 Q319 -129 356.5 -105 Q394 -81 411 -43 L411 79 Q385 54 345 36 Q305 18 248 18 Q204 18 172 29.5 Q140 41 117.5 57.5 Q95 74 81 92 Q67 110 60 123 L60 443 Q67 456 81 474 Q95 492 117.5 508.5 Q140 525 172 536.5 Q204 548 248 548 Q305 548 345.5 530 Q386 512 412 487 L412 536 L468 536 L468 -57 Z M258 68 Q315 68 353 88 Q391 108 411 135 L411 432 Q391 459 352 479 Q313 499 258 499 Q227 499 203.5 491.5 Q180 484 163 473.5 Q146 463 134.5 450.5 Q123 438 117 428 L117 139 Q123 128 134.5 116 Q146 104 163 93 Q180 82 203.5 75 Q227 68 258 68 Z " />
<glyph glyph-name="h" unicode="h" horiz-adv-x="550" d="M293 548 Q337 548 369 536.5 Q401 525 423.5 508.5 Q446 492 460 474 Q474 456 481 443 L481 0 L424 0 L424 428 Q418 438 406.5 450.5 Q395 463 378 473.5 Q361 484 337.5 491.5 Q314 499 283 499 Q227 499 188.5 479.5 Q150 460 130 433 L130 0 L73 0 L73 700 L130 700 L130 488 Q156 513 196.5 530.5 Q237 548 293 548 Z " />
<glyph glyph-name="i" unicode="i" horiz-adv-x="211" d="M77 0 L77 536 L134 536 L134 0 L77 0 Z M105 715 Q121 715 130.5 709.5 Q140 704 143 698 L143 656 Q140 650 130.5 644.5 Q121 639 105 639 Q91 639 81 644.5 Q71 650 68 656 L68 698 Q71 704 81 709.5 Q91 715 105 715 Z " />
<glyph glyph-name="j" unicode="j" horiz-adv-x="203" d="M130 -49 Q121 -70 104.5 -93 Q88 -116 62.5 -135 Q37 -154 1.5 -166.5 Q-34 -179 -79 -179 L-79 -130 Q-49 -130 -24.5 -122 Q0 -114 19 -100.5 Q38 -87 51 -69.5 Q64 -52 72 -33 L72 536 L130 536 L130 -49 Z M101 715 Q117 715 126.5 709.5 Q136 704 139 698 L139 656 Q136 650 126.5 644.5 Q117 639 101 639 Q87 639 77 644.5 Q67 650 64 656 L64 698 Q67 704 77 709.5 Q87 715 101 715 Z " />
<glyph glyph-name="k" unicode="k" horiz-adv-x="499" d="M479 0 L440 0 L228 278 L130 182 L130 0 L73 0 L73 700 L130 700 L130 251 L415 536 L450 536 L450 496 L268 317 L479 39 L479 0 Z " />
<glyph glyph-name="l" unicode="l" horiz-adv-x="203" d="M73 0 L73 700 L130 700 L130 0 L73 0 Z " />
<glyph glyph-name="m" unicode="m" horiz-adv-x="796" d="M567 548 Q606 548 634 537.5 Q662 527 680.5 512 Q699 497 710.5 480.5 Q722 464 728 452 L728 0 L670 0 L670 437 Q665 447 656 458 Q647 469 633.5 478 Q620 487 600.5 493 Q581 499 555 499 Q510 499 478.5 480.5 Q447 462 429 436 L429 0 L371 0 L371 437 Q366 447 357 458 Q348 469 334.5 478 Q321 487 302 493 Q283 499 257 499 Q211 499 179 480.5 Q147 462 130 436 L130 0 L73 0 L73 536 L128 536 L128 491 Q149 514 183 531 Q217 548 267 548 Q297 548 321 541.5 Q345 535 363 525 Q381 515 393.5 502.5 Q406 490 414 478 Q435 504 472.5 526 Q510 548 567 548 Z " />
<glyph glyph-name="n" unicode="n" horiz-adv-x="549" d="M293 548 Q337 548 369 536.5 Q401 525 423.5 508.5 Q446 492 460 474 Q474 456 481 443 L481 0 L423 0 L423 428 Q417 438 406 450.5 Q395 463 377.5 473.5 Q360 484 336.5 491.5 Q313 499 283 499 Q228 499 189.5 479.5 Q151 460 130 434 L130 0 L73 0 L73 536 L128 536 L128 486 Q154 512 195 530 Q236 548 293 548 Z " />
<glyph glyph-name="o" unicode="o" horiz-adv-x="541" d="M271 549 Q317 549 352 536.5 Q387 524 413 505 Q439 486 455.5 463 Q472 440 481 419 L481 117 Q472 96 455.5 73 Q439 50 413 31 Q387 12 352 -0.5 Q317 -13 271 -13 Q225 -13 189.5 -0.5 Q154 12 128 31 Q102 50 85.5 73 Q69 96 60 117 L60 419 Q69 440 85.5 463 Q102 486 128 505 Q154 524 189.5 536.5 Q225 549 271 549 Z M270 500 Q209 500 170.5 471 Q132 442 117 405 L117 131 Q132 94 170.5 65 Q209 36 270 36 Q301 36 326 44 Q351 52 370.5 65 Q390 78 403 95.5 Q416 113 424 131 L424 405 Q416 423 403 440.5 Q390 458 370.5 471 Q351 484 326 492 Q301 500 270 500 Z " />
<glyph glyph-name="p" unicode="p" horiz-adv-x="541" d="M293 548 Q337 548 369 536.5 Q401 525 423.5 508.5 Q446 492 460 474 Q474 456 481 443 L481 93 Q474 80 460 62 Q446 44 423.5 27.5 Q401 11 369 -0.5 Q337 -12 293 -12 Q235 -12 195 6 Q155 24 130 49 L130 -166 L73 -166 L73 536 L129 536 L129 486 Q154 512 194 530 Q234 548 293 548 Z M423 428 Q417 438 406 450.5 Q395 463 378 473.5 Q361 484 337.5 491.5 Q314 499 283 499 Q228 499 189.5 479.5 Q151 460 130 433 L130 103 Q151 76 189.5 56.5 Q228 37 283 37 Q314 37 337.5 44.5 Q361 52 378 62.5 Q395 73 406 85.5 Q417 98 423 108 L423 428 Z " />
<glyph glyph-name="q" unicode="q" horiz-adv-x="541" d="M468 -166 L411 -166 L411 50 Q386 24 346 6 Q306 -12 247 -12 Q203 -12 171.5 -0.5 Q140 11 117.5 27.5 Q95 44 81 62 Q67 80 60 93 L60 443 Q67 456 81 474 Q95 492 117.5 508.5 Q140 525 171.5 536.5 Q203 548 247 548 Q306 548 346.5 529.5 Q387 511 412 485 L412 536 L468 536 L468 -166 Z M258 37 Q314 37 352.5 57 Q391 77 411 104 L411 432 Q391 459 352.5 479 Q314 499 258 499 Q227 499 203.5 491.5 Q180 484 163 473.5 Q146 463 135 450.5 Q124 438 118 428 L118 108 Q124 98 135 85.5 Q146 73 163 62.5 Q180 52 203.5 44.5 Q227 37 258 37 Z " />
<glyph glyph-name="r" unicode="r" horiz-adv-x="341" d="M296 537 Q299 537 304 537 Q309 537 317 536 L317 481 Q308 482 302 482 Q296 482 294 482 Q235 482 193.5 462 Q152 442 130 414 L130 0 L72 0 L72 536 L128 536 L128 467 Q151 495 193 516 Q235 537 296 537 Z " />
<glyph glyph-name="s" unicode="s" horiz-adv-x="475" d="M237 549 Q275 549 305 540.5 Q335 532 357.5 519.5 Q380 507 395.5 492.5 Q411 478 419 467 L419 434 L371 434 Q357 460 322.5 480 Q288 500 237 500 Q190 500 159 483.5 Q128 467 111 448 L111 363 Q122 347 145.5 332.5 Q169 318 214 307 L278 291 Q342 276 378.5 253 Q415 230 429 207 L429 81 Q421 69 406 53 Q391 37 368 22.5 Q345 8 312.5 -2.5 Q280 -13 237 -13 Q195 -13 162.5 -2.5 Q130 8 107 23 Q84 38 69 54 Q54 70 46 81 L46 114 L94 114 Q110 83 146 59.5 Q182 36 237 36 Q264 36 286 42 Q308 48 325 57.5 Q342 67 354 78 Q366 89 374 100 L374 185 Q350 224 266 243 L200 259 Q135 274 101.5 298 Q68 322 56 341 L56 467 Q64 477 78.5 491.5 Q93 506 115.5 518.5 Q138 531 168 540 Q198 549 237 549 Z " />
<glyph glyph-name="t" unicode="t" horiz-adv-x="346" d="M278 40 Q294 40 308 41 Q322 42 330 44 L330 -1 Q322 -3 303.5 -5.5 Q285 -8 260 -8 Q218 -8 190 1.5 Q162 11 143.5 24.5 Q125 38 114.5 53.5 Q104 69 98 82 L98 490 L23 490 L23 536 L98 536 L98 651 L155 651 L155 536 L310 536 L310 490 L155 490 L155 103 Q159 95 166.5 84 Q174 73 188 63.5 Q202 54 223.5 47 Q245 40 278 40 Z " />
<glyph glyph-name="u" unicode="u" horiz-adv-x="540" d="M468 0 L413 0 L413 48 Q388 24 348.5 6 Q309 -12 252 -12 Q209 -12 177.5 -1 Q146 10 124 25.5 Q102 41 88.5 58 Q75 75 68 87 L68 536 L125 536 L125 104 Q131 95 142 83.5 Q153 72 169.5 61.5 Q186 51 208.5 44 Q231 37 262 37 Q319 37 354.5 56.5 Q390 76 410 100 L410 536 L468 536 L468 0 Z " />
<glyph glyph-name="v" unicode="v" horiz-adv-x="502" d="M289 0 L213 0 L38 496 L38 536 L86 536 L251 57 L254 57 L419 536 L465 536 L465 496 L289 0 Z " />
<glyph glyph-name="w" unicode="w" horiz-adv-x="765" d="M595 0 L521 0 L386 462 L383 462 L246 0 L172 0 L42 496 L42 536 L90 536 L211 59 L214 59 L353 536 L418 536 L556 59 L559 59 L679 536 L725 536 L725 496 L595 0 Z " />
<glyph glyph-name="x" unicode="x" horiz-adv-x="469" d="M274 274 L427 40 L427 0 L386 0 L236 238 L233 238 L81 0 L42 0 L42 40 L195 274 L50 496 L50 536 L91 536 L233 310 L236 310 L379 536 L419 536 L419 496 L274 274 Z " />
<glyph glyph-name="y" unicode="y" horiz-adv-x="497" d="M258 67 L417 536 L462 536 L462 497 L256 -98 Q230 -137 186 -154.5 Q142 -172 94 -172 Q76 -172 62.5 -171 Q49 -170 44 -168 L44 -122 Q54 -124 63 -124 Q72 -124 81 -124 Q131 -124 160.5 -109 Q190 -94 207 -71 L228 -8 L44 495 L44 536 L91 536 L255 67 L258 67 Z " />
<glyph glyph-name="z" unicode="z" horiz-adv-x="463" d="M100 46 L431 46 L431 0 L33 0 L33 43 L361 490 L42 490 L42 536 L431 536 L431 495 L100 46 Z " />
<glyph glyph-name="agrave" unicode="&#xe0;" horiz-adv-x="535" d="M256 549 Q302 549 337.5 536.5 Q373 524 399 505 Q425 486 441.5 463 Q458 440 467 419 L467 0 L411 0 L411 58 Q387 30 343.5 8.5 Q300 -13 236 -13 Q194 -13 163 -3.5 Q132 6 110 19.5 Q88 33 75 47.5 Q62 62 55 71 L55 230 Q60 238 72.5 252.5 Q85 267 106.5 281 Q128 295 159.5 305 Q191 315 235 315 L410 315 L410 405 Q402 423 388.5 440.5 Q375 458 356 471 Q337 484 312 492 Q287 500 256 500 Q226 500 202.5 492.5 Q179 485 161 473.5 Q143 462 131 448.5 Q119 435 113 422 L65 422 L65 455 Q72 465 86 481 Q100 497 123 512 Q146 527 179 538 Q212 549 256 549 Z M244 35 Q308 35 350.5 59.5 Q393 84 410 116 L410 268 L244 268 Q214 268 192 262 Q170 256 154.5 247 Q139 238 128.5 228.5 Q118 219 112 212 L112 93 Q117 87 127 77 Q137 67 153 57.5 Q169 48 191.5 41.5 Q214 35 244 35 Z M290 607 L248 607 L167 731 L167 762 L219 762 L290 622 L290 607 Z " />
<glyph glyph-name="aacute" unicode="&#xe1;" horiz-adv-x="535" d="M256 549 Q302 549 337.5 536.5 Q373 524 399 505 Q425 486 441.5 463 Q458 440 467 419 L467 0 L411 0 L411 58 Q387 30 343.5 8.5 Q300 -13 236 -13 Q194 -13 163 -3.5 Q132 6 110 19.5 Q88 33 75 47.5 Q62 62 55 71 L55 230 Q60 238 72.5 252.5 Q85 267 106.5 281 Q128 295 159.5 305 Q191 315 235 315 L410 315 L410 405 Q402 423 388.5 440.5 Q375 458 356 471 Q337 484 312 492 Q287 500 256 500 Q226 500 202.5 492.5 Q179 485 161 473.5 Q143 462 131 448.5 Q119 435 113 422 L65 422 L65 455 Q72 465 86 481 Q100 497 123 512 Q146 527 179 538 Q212 549 256 549 Z M244 35 Q308 35 350.5 59.5 Q393 84 410 116 L410 268 L244 268 Q214 268 192 262 Q170 256 154.5 247 Q139 238 128.5 228.5 Q118 219 112 212 L112 93 Q117 87 127 77 Q137 67 153 57.5 Q169 48 191.5 41.5 Q214 35 244 35 Z M290 607 L248 607 L248 622 L319 762 L371 762 L371 731 L290 607 Z " />
<glyph glyph-name="acircumflex" unicode="&#xe2;" horiz-adv-x="535" d="M256 549 Q302 549 337.5 536.5 Q373 524 399 505 Q425 486 441.5 463 Q458 440 467 419 L467 0 L411 0 L411 58 Q387 30 343.5 8.5 Q300 -13 236 -13 Q194 -13 163 -3.5 Q132 6 110 19.5 Q88 33 75 47.5 Q62 62 55 71 L55 230 Q60 238 72.5 252.5 Q85 267 106.5 281 Q128 295 159.5 305 Q191 315 235 315 L410 315 L410 405 Q402 423 388.5 440.5 Q375 458 356 471 Q337 484 312 492 Q287 500 256 500 Q226 500 202.5 492.5 Q179 485 161 473.5 Q143 462 131 448.5 Q119 435 113 422 L65 422 L65 455 Q72 465 86 481 Q100 497 123 512 Q146 527 179 538 Q212 549 256 549 Z M244 35 Q308 35 350.5 59.5 Q393 84 410 116 L410 268 L244 268 Q214 268 192 262 Q170 256 154.5 247 Q139 238 128.5 228.5 Q118 219 112 212 L112 93 Q117 87 127 77 Q137 67 153 57.5 Q169 48 191.5 41.5 Q214 35 244 35 Z M401 606 L362 606 L267 729 L173 606 L134 606 L134 622 L229 761 L306 761 L401 622 L401 606 Z " />
<glyph glyph-name="atilde" unicode="&#xe3;" horiz-adv-x="535" d="M256 549 Q302 549 337.5 536.5 Q373 524 399 505 Q425 486 441.5 463 Q458 440 467 419 L467 0 L411 0 L411 58 Q387 30 343.5 8.5 Q300 -13 236 -13 Q194 -13 163 -3.5 Q132 6 110 19.5 Q88 33 75 47.5 Q62 62 55 71 L55 230 Q60 238 72.5 252.5 Q85 267 106.5 281 Q128 295 159.5 305 Q191 315 235 315 L410 315 L410 405 Q402 423 388.5 440.5 Q375 458 356 471 Q337 484 312 492 Q287 500 256 500 Q226 500 202.5 492.5 Q179 485 161 473.5 Q143 462 131 448.5 Q119 435 113 422 L65 422 L65 455 Q72 465 86 481 Q100 497 123 512 Q146 527 179 538 Q212 549 256 549 Z M244 35 Q308 35 350.5 59.5 Q393 84 410 116 L410 268 L244 268 Q214 268 192 262 Q170 256 154.5 247 Q139 238 128.5 228.5 Q118 219 112 212 L112 93 Q117 87 127 77 Q137 67 153 57.5 Q169 48 191.5 41.5 Q214 35 244 35 Z M199 725 Q222 725 240 716.5 Q258 708 273 697.5 Q288 687 302 678.5 Q316 670 333 670 Q350 670 361.5 679 Q373 688 378 701 L378 719 L418 719 L418 685 Q411 662 390 645 Q369 628 336 628 Q313 628 295.5 636.5 Q278 645 263 655.5 Q248 666 233.5 674.5 Q219 683 203 683 Q186 683 173 673 Q160 663 157 654 L157 634 L117 634 L117 669 Q139 725 199 725 Z " />
<glyph glyph-name="adieresis" unicode="&#xe4;" horiz-adv-x="535" d="M256 549 Q302 549 337.5 536.5 Q373 524 399 505 Q425 486 441.5 463 Q458 440 467 419 L467 0 L411 0 L411 58 Q387 30 343.5 8.5 Q300 -13 236 -13 Q194 -13 163 -3.5 Q132 6 110 19.5 Q88 33 75 47.5 Q62 62 55 71 L55 230 Q60 238 72.5 252.5 Q85 267 106.5 281 Q128 295 159.5 305 Q191 315 235 315 L410 315 L410 405 Q402 423 388.5 440.5 Q375 458 356 471 Q337 484 312 492 Q287 500 256 500 Q226 500 202.5 492.5 Q179 485 161 473.5 Q143 462 131 448.5 Q119 435 113 422 L65 422 L65 455 Q72 465 86 481 Q100 497 123 512 Q146 527 179 538 Q212 549 256 549 Z M244 35 Q308 35 350.5 59.5 Q393 84 410 116 L410 268 L244 268 Q214 268 192 262 Q170 256 154.5 247 Q139 238 128.5 228.5 Q118 219 112 212 L112 93 Q117 87 127 77 Q137 67 153 57.5 Q169 48 191.5 41.5 Q214 35 244 35 Z M172 714 Q188 714 197 709 Q206 704 209 700 L209 650 Q206 646 197 641 Q188 636 172 636 Q157 636 147.5 641 Q138 646 135 650 L135 700 Q138 704 147.5 709 Q157 714 172 714 Z M363 714 Q378 714 387.5 709 Q397 704 400 700 L400 650 Q397 646 387.5 641 Q378 636 363 636 Q348 636 338.5 641 Q329 646 326 650 L326 700 Q329 704 338.5 709 Q348 714 363 714 Z " />
<glyph glyph-name="amacron" unicode="&#x101;" horiz-adv-x="535" d="M256 549 Q302 549 337.5 536.5 Q373 524 399 505 Q425 486 441.5 463 Q458 440 467 419 L467 0 L411 0 L411 58 Q387 30 343.5 8.5 Q300 -13 236 -13 Q194 -13 163 -3.5 Q132 6 110 19.5 Q88 33 75 47.5 Q62 62 55 71 L55 230 Q60 238 72.5 252.5 Q85 267 106.5 281 Q128 295 159.5 305 Q191 315 235 315 L410 315 L410 405 Q402 423 388.5 440.5 Q375 458 356 471 Q337 484 312 492 Q287 500 256 500 Q226 500 202.5 492.5 Q179 485 161 473.5 Q143 462 131 448.5 Q119 435 113 422 L65 422 L65 455 Q72 465 86 481 Q100 497 123 512 Q146 527 179 538 Q212 549 256 549 Z M244 35 Q308 35 350.5 59.5 Q393 84 410 116 L410 268 L244 268 Q214 268 192 262 Q170 256 154.5 247 Q139 238 128.5 228.5 Q118 219 112 212 L112 93 Q117 87 127 77 Q137 67 153 57.5 Q169 48 191.5 41.5 Q214 35 244 35 Z M120 662 L120 707 L416 707 L416 662 L120 662 Z " />
<glyph glyph-name="abreve" unicode="&#x103;" horiz-adv-x="535" d="M256 549 Q302 549 337.5 536.5 Q373 524 399 505 Q425 486 441.5 463 Q458 440 467 419 L467 0 L411 0 L411 58 Q387 30 343.5 8.5 Q300 -13 236 -13 Q194 -13 163 -3.5 Q132 6 110 19.5 Q88 33 75 47.5 Q62 62 55 71 L55 230 Q60 238 72.5 252.5 Q85 267 106.5 281 Q128 295 159.5 305 Q191 315 235 315 L410 315 L410 405 Q402 423 388.5 440.5 Q375 458 356 471 Q337 484 312 492 Q287 500 256 500 Q226 500 202.5 492.5 Q179 485 161 473.5 Q143 462 131 448.5 Q119 435 113 422 L65 422 L65 455 Q72 465 86 481 Q100 497 123 512 Q146 527 179 538 Q212 549 256 549 Z M244 35 Q308 35 350.5 59.5 Q393 84 410 116 L410 268 L244 268 Q214 268 192 262 Q170 256 154.5 247 Q139 238 128.5 228.5 Q118 219 112 212 L112 93 Q117 87 127 77 Q137 67 153 57.5 Q169 48 191.5 41.5 Q214 35 244 35 Z M397 679 Q392 668 382 656 Q372 644 356.5 633.5 Q341 623 319 616.5 Q297 610 267 610 Q237 610 215.5 616.5 Q194 623 178 633.5 Q162 644 152.5 656 Q143 668 137 679 L137 728 L184 728 L184 693 Q186 688 191.5 680.5 Q197 673 207 666 Q217 659 231.5 654 Q246 649 267 649 Q288 649 302.5 654 Q317 659 327 666 Q337 673 342.5 680.5 Q348 688 350 693 L350 728 L397 728 L397 679 Z " />
<glyph glyph-name="aring" unicode="&#xe5;" horiz-adv-x="535" d="M256 549 Q302 549 337.5 536.5 Q373 524 399 505 Q425 486 441.5 463 Q458 440 467 419 L467 0 L411 0 L411 58 Q387 30 343.5 8.5 Q300 -13 236 -13 Q194 -13 163 -3.5 Q132 6 110 19.5 Q88 33 75 47.5 Q62 62 55 71 L55 230 Q60 238 72.5 252.5 Q85 267 106.5 281 Q128 295 159.5 305 Q191 315 235 315 L410 315 L410 405 Q402 423 388.5 440.5 Q375 458 356 471 Q337 484 312 492 Q287 500 256 500 Q226 500 202.5 492.5 Q179 485 161 473.5 Q143 462 131 448.5 Q119 435 113 422 L65 422 L65 455 Q72 465 86 481 Q100 497 123 512 Q146 527 179 538 Q212 549 256 549 Z M244 35 Q308 35 350.5 59.5 Q393 84 410 116 L410 268 L244 268 Q214 268 192 262 Q170 256 154.5 247 Q139 238 128.5 228.5 Q118 219 112 212 L112 93 Q117 87 127 77 Q137 67 153 57.5 Q169 48 191.5 41.5 Q214 35 244 35 Z M267 781 Q303 781 329 766.5 Q355 752 365 732 L365 649 Q355 630 329 615 Q303 600 267 600 Q232 600 206 615 Q180 630 170 649 L170 732 Q180 752 206 766.5 Q232 781 267 781 Z M267 747 Q242 747 228 738 Q214 729 208 721 L208 661 Q214 652 228 643 Q242 634 267 634 Q292 634 306.5 643 Q321 652 327 661 L327 721 Q321 729 306.5 738 Q292 747 267 747 Z " />
<glyph glyph-name="aogonek" unicode="&#x105;" horiz-adv-x="535" d="M424 -168 Q441 -168 453.5 -165.5 Q466 -163 480 -156 L480 -196 Q466 -203 452 -206.5 Q438 -210 415 -210 Q383 -210 358.5 -197.5 Q334 -185 325 -165 L325 -100 Q333 -83 352.5 -57.5 Q372 -32 413 0 L411 0 L411 58 Q387 30 343.5 8.5 Q300 -13 236 -13 Q194 -13 163 -3.5 Q132 6 110 19.5 Q88 33 75 47.5 Q62 62 55 71 L55 230 Q60 238 72.5 252.5 Q85 267 106.5 281 Q128 295 159.5 305 Q191 315 235 315 L410 315 L410 405 Q402 423 388.5 440.5 Q375 458 356 471 Q337 484 312 492 Q287 500 256 500 Q226 500 202.5 492.5 Q179 485 161 473.5 Q143 462 131 448.5 Q119 435 113 422 L65 422 L65 455 Q72 465 86 481 Q100 497 123 512 Q146 527 179 538 Q212 549 256 549 Q302 549 337.5 536.5 Q373 524 399 505 Q425 486 441.5 463 Q458 440 467 419 L467 0 Q440 -21 422.5 -39 Q405 -57 394.5 -70.5 Q384 -84 379 -93.5 Q374 -103 372 -107 L372 -145 Q376 -153 390 -160.5 Q404 -168 424 -168 Z M244 35 Q308 35 350.5 59.5 Q393 84 410 116 L410 268 L244 268 Q214 268 192 262 Q170 256 154.5 247 Q139 238 128.5 228.5 Q118 219 112 212 L112 93 Q117 87 127 77 Q137 67 153 57.5 Q169 48 191.5 41.5 Q214 35 244 35 Z " />
<glyph glyph-name="ae" unicode="&#xe6;" horiz-adv-x="884" d="M467 132 Q475 113 488.5 96 Q502 79 521 65.5 Q540 52 565 44 Q590 36 620 36 Q684 36 723 67 Q762 98 781 146 L829 146 L829 113 Q821 93 804.5 71 Q788 49 762.5 30.5 Q737 12 701.5 -0.5 Q666 -13 620 -13 Q552 -13 506.5 13.5 Q461 40 436 74 Q409 38 359.5 12.5 Q310 -13 239 -13 Q196 -13 164 -3.5 Q132 6 110 19.5 Q88 33 74.5 47.5 Q61 62 55 71 L55 230 Q60 238 72.5 252.5 Q85 267 106.5 281 Q128 295 159.5 305 Q191 315 235 315 L410 315 L410 405 Q402 423 388.5 440.5 Q375 458 356 471 Q337 484 312 492 Q287 500 256 500 Q225 500 201.5 492.5 Q178 485 160.5 473 Q143 461 131.5 447.5 Q120 434 113 422 L65 422 L65 455 Q72 465 86 481 Q100 497 123 512 Q146 527 179 538 Q212 549 256 549 Q325 549 369 523 Q413 497 438 464 Q464 497 508 523 Q552 549 620 549 Q666 549 701.5 536.5 Q737 524 762.5 505.5 Q788 487 804.5 464.5 Q821 442 829 423 L829 268 L467 268 L467 132 Z M774 315 L774 404 Q766 423 753 440 Q740 457 720.5 470.5 Q701 484 676 492 Q651 500 620 500 Q590 500 565 492 Q540 484 521 470.5 Q502 457 488.5 440 Q475 423 467 404 L467 315 L774 315 Z M244 268 Q214 268 192 262 Q170 256 154.5 247 Q139 238 128.5 228.5 Q118 219 112 212 L112 93 Q117 87 127 77 Q137 67 153 57.5 Q169 48 191.5 41.5 Q214 35 244 35 Q276 35 303 42 Q330 49 351 61 Q372 73 386.5 88 Q401 103 410 119 L410 268 L244 268 Z " />
<glyph glyph-name="cacute" unicode="&#x107;" horiz-adv-x="521" d="M270 549 Q316 549 351.5 537 Q387 525 412.5 506 Q438 487 454.5 465 Q471 443 479 423 L479 391 L431 391 Q412 438 373.5 469 Q335 500 270 500 Q209 500 171 471 Q133 442 117 405 L117 131 Q133 94 171 65 Q209 36 270 36 Q335 36 373.5 67 Q412 98 431 146 L479 146 L479 113 Q471 93 454.5 71 Q438 49 412.5 30 Q387 11 351.5 -1 Q316 -13 270 -13 Q224 -13 189 -0.5 Q154 12 128 31 Q102 50 85.5 73 Q69 96 60 117 L60 419 Q69 440 85.5 463 Q102 486 128 505 Q154 524 189 536.5 Q224 549 270 549 Z M293 607 L251 607 L251 622 L322 762 L374 762 L374 731 L293 607 Z " />
<glyph glyph-name="ccircumflex" unicode="&#x109;" horiz-adv-x="521" d="M270 549 Q316 549 351.5 537 Q387 525 412.5 506 Q438 487 454.5 465 Q471 443 479 423 L479 391 L431 391 Q412 438 373.5 469 Q335 500 270 500 Q209 500 171 471 Q133 442 117 405 L117 131 Q133 94 171 65 Q209 36 270 36 Q335 36 373.5 67 Q412 98 431 146 L479 146 L479 113 Q471 93 454.5 71 Q438 49 412.5 30 Q387 11 351.5 -1 Q316 -13 270 -13 Q224 -13 189 -0.5 Q154 12 128 31 Q102 50 85.5 73 Q69 96 60 117 L60 419 Q69 440 85.5 463 Q102 486 128 505 Q154 524 189 536.5 Q224 549 270 549 Z M404 606 L365 606 L270 729 L176 606 L137 606 L137 622 L232 761 L309 761 L404 622 L404 606 Z " />
<glyph glyph-name="ccaron" unicode="&#x10d;" horiz-adv-x="521" d="M270 549 Q316 549 351.5 537 Q387 525 412.5 506 Q438 487 454.5 465 Q471 443 479 423 L479 391 L431 391 Q412 438 373.5 469 Q335 500 270 500 Q209 500 171 471 Q133 442 117 405 L117 131 Q133 94 171 65 Q209 36 270 36 Q335 36 373.5 67 Q412 98 431 146 L479 146 L479 113 Q471 93 454.5 71 Q438 49 412.5 30 Q387 11 351.5 -1 Q316 -13 270 -13 Q224 -13 189 -0.5 Q154 12 128 31 Q102 50 85.5 73 Q69 96 60 117 L60 419 Q69 440 85.5 463 Q102 486 128 505 Q154 524 189 536.5 Q224 549 270 549 Z M309 606 L232 606 L137 745 L137 761 L176 761 L270 639 L365 761 L404 761 L404 745 L309 606 Z " />
<glyph glyph-name="cdotaccent" unicode="&#x10b;" horiz-adv-x="521" d="M270 549 Q316 549 351.5 537 Q387 525 412.5 506 Q438 487 454.5 465 Q471 443 479 423 L479 391 L431 391 Q412 438 373.5 469 Q335 500 270 500 Q209 500 171 471 Q133 442 117 405 L117 131 Q133 94 171 65 Q209 36 270 36 Q335 36 373.5 67 Q412 98 431 146 L479 146 L479 113 Q471 93 454.5 71 Q438 49 412.5 30 Q387 11 351.5 -1 Q316 -13 270 -13 Q224 -13 189 -0.5 Q154 12 128 31 Q102 50 85.5 73 Q69 96 60 117 L60 419 Q69 440 85.5 463 Q102 486 128 505 Q154 524 189 536.5 Q224 549 270 549 Z M270 715 Q286 715 295.5 709.5 Q305 704 308 698 L308 656 Q305 650 295.5 644.5 Q286 639 270 639 Q256 639 246 644.5 Q236 650 233 656 L233 698 Q236 704 246 709.5 Q256 715 270 715 Z " />
<glyph glyph-name="ccedilla" unicode="&#xe7;" horiz-adv-x="521" d="M270 500 Q209 500 171 471 Q133 442 117 405 L117 131 Q133 94 171 65 Q209 36 270 36 Q335 36 373.5 67 Q412 98 431 146 L479 146 L479 113 Q471 93 454.5 71.5 Q438 50 413 31.5 Q388 13 353.5 0.5 Q319 -12 274 -13 L257 -58 L275 -58 Q307 -58 327.5 -72 Q348 -86 356 -102 L356 -170 Q347 -188 324.5 -202.5 Q302 -217 267 -217 Q238 -217 214 -210 Q190 -203 174 -192 L186 -159 Q202 -168 221 -174.5 Q240 -181 264 -181 Q285 -181 297.5 -173 Q310 -165 314 -156 L314 -115 Q310 -106 297.5 -98 Q285 -90 264 -90 L206 -90 L233 -11 Q196 -6 167.5 7.5 Q139 21 117.5 39 Q96 57 82 77.5 Q68 98 60 117 L60 419 Q69 440 85.5 463 Q102 486 128 505 Q154 524 189 536.5 Q224 549 270 549 Q316 549 351.5 537 Q387 525 412.5 506 Q438 487 454.5 465 Q471 443 479 423 L479 391 L431 391 Q412 438 373.5 469 Q335 500 270 500 Z " />
<glyph glyph-name="dcaron" unicode="&#x10f;" horiz-adv-x="669" d="M468 0 L412 0 L412 51 Q387 25 346.5 6.5 Q306 -12 247 -12 Q203 -12 171.5 -0.5 Q140 11 117.5 27.5 Q95 44 81 62 Q67 80 60 93 L60 443 Q67 456 81 474 Q95 492 117.5 508.5 Q140 525 171.5 536.5 Q203 548 247 548 Q304 548 345 530 Q386 512 411 486 L411 700 L468 700 L468 0 Z M258 37 Q314 37 352.5 57 Q391 77 411 104 L411 432 Q391 459 351.5 479 Q312 499 258 499 Q227 499 203.5 491.5 Q180 484 163 473.5 Q146 463 135 450.5 Q124 438 118 428 L118 108 Q124 98 135 85.5 Q146 73 163 62.5 Q180 52 203.5 44.5 Q227 37 258 37 Z M608 539 L570 539 L570 554 L588 700 L638 700 L638 666 L608 539 Z " />
<glyph glyph-name="egrave" unicode="&#xe8;" horiz-adv-x="534" d="M270 549 Q316 549 351.5 536.5 Q387 524 412.5 505.5 Q438 487 454.5 464.5 Q471 442 479 423 L479 268 L117 268 L117 132 Q125 113 138.5 96 Q152 79 171 65.5 Q190 52 215 44 Q240 36 270 36 Q334 36 373 67 Q412 98 431 146 L479 146 L479 113 Q471 93 454.5 71 Q438 49 412.5 30.5 Q387 12 351.5 -0.5 Q316 -13 270 -13 Q224 -13 189 -0.5 Q154 12 128 31 Q102 50 85.5 73 Q69 96 60 117 L60 419 Q69 440 85.5 463 Q102 486 128 505 Q154 524 189 536.5 Q224 549 270 549 Z M270 500 Q240 500 215 492 Q190 484 171 470.5 Q152 457 138.5 440 Q125 423 117 404 L117 315 L424 315 L424 404 Q416 423 403 440 Q390 457 370.5 470.5 Q351 484 326 492 Q301 500 270 500 Z M299 607 L257 607 L176 731 L176 762 L228 762 L299 622 L299 607 Z " />
<glyph glyph-name="eacute" unicode="&#xe9;" horiz-adv-x="534" d="M270 549 Q316 549 351.5 536.5 Q387 524 412.5 505.5 Q438 487 454.5 464.5 Q471 442 479 423 L479 268 L117 268 L117 132 Q125 113 138.5 96 Q152 79 171 65.5 Q190 52 215 44 Q240 36 270 36 Q334 36 373 67 Q412 98 431 146 L479 146 L479 113 Q471 93 454.5 71 Q438 49 412.5 30.5 Q387 12 351.5 -0.5 Q316 -13 270 -13 Q224 -13 189 -0.5 Q154 12 128 31 Q102 50 85.5 73 Q69 96 60 117 L60 419 Q69 440 85.5 463 Q102 486 128 505 Q154 524 189 536.5 Q224 549 270 549 Z M270 500 Q240 500 215 492 Q190 484 171 470.5 Q152 457 138.5 440 Q125 423 117 404 L117 315 L424 315 L424 404 Q416 423 403 440 Q390 457 370.5 470.5 Q351 484 326 492 Q301 500 270 500 Z M299 607 L257 607 L257 622 L328 762 L380 762 L380 731 L299 607 Z " />
<glyph glyph-name="ecircumflex" unicode="&#xea;" horiz-adv-x="534" d="M270 549 Q316 549 351.5 536.5 Q387 524 412.5 505.5 Q438 487 454.5 464.5 Q471 442 479 423 L479 268 L117 268 L117 132 Q125 113 138.5 96 Q152 79 171 65.5 Q190 52 215 44 Q240 36 270 36 Q334 36 373 67 Q412 98 431 146 L479 146 L479 113 Q471 93 454.5 71 Q438 49 412.5 30.5 Q387 12 351.5 -0.5 Q316 -13 270 -13 Q224 -13 189 -0.5 Q154 12 128 31 Q102 50 85.5 73 Q69 96 60 117 L60 419 Q69 440 85.5 463 Q102 486 128 505 Q154 524 189 536.5 Q224 549 270 549 Z M270 500 Q240 500 215 492 Q190 484 171 470.5 Q152 457 138.5 440 Q125 423 117 404 L117 315 L424 315 L424 404 Q416 423 403 440 Q390 457 370.5 470.5 Q351 484 326 492 Q301 500 270 500 Z M410 606 L371 606 L276 729 L182 606 L143 606 L143 622 L238 761 L315 761 L410 622 L410 606 Z " />
<glyph glyph-name="ecaron" unicode="&#x11b;" horiz-adv-x="534" d="M270 549 Q316 549 351.5 536.5 Q387 524 412.5 505.5 Q438 487 454.5 464.5 Q471 442 479 423 L479 268 L117 268 L117 132 Q125 113 138.5 96 Q152 79 171 65.5 Q190 52 215 44 Q240 36 270 36 Q334 36 373 67 Q412 98 431 146 L479 146 L479 113 Q471 93 454.5 71 Q438 49 412.5 30.5 Q387 12 351.5 -0.5 Q316 -13 270 -13 Q224 -13 189 -0.5 Q154 12 128 31 Q102 50 85.5 73 Q69 96 60 117 L60 419 Q69 440 85.5 463 Q102 486 128 505 Q154 524 189 536.5 Q224 549 270 549 Z M270 500 Q240 500 215 492 Q190 484 171 470.5 Q152 457 138.5 440 Q125 423 117 404 L117 315 L424 315 L424 404 Q416 423 403 440 Q390 457 370.5 470.5 Q351 484 326 492 Q301 500 270 500 Z M315 606 L238 606 L143 745 L143 761 L182 761 L276 639 L371 761 L410 761 L410 745 L315 606 Z " />
<glyph glyph-name="edieresis" unicode="&#xeb;" horiz-adv-x="534" d="M270 549 Q316 549 351.5 536.5 Q387 524 412.5 505.5 Q438 487 454.5 464.5 Q471 442 479 423 L479 268 L117 268 L117 132 Q125 113 138.5 96 Q152 79 171 65.5 Q190 52 215 44 Q240 36 270 36 Q334 36 373 67 Q412 98 431 146 L479 146 L479 113 Q471 93 454.5 71 Q438 49 412.5 30.5 Q387 12 351.5 -0.5 Q316 -13 270 -13 Q224 -13 189 -0.5 Q154 12 128 31 Q102 50 85.5 73 Q69 96 60 117 L60 419 Q69 440 85.5 463 Q102 486 128 505 Q154 524 189 536.5 Q224 549 270 549 Z M270 500 Q240 500 215 492 Q190 484 171 470.5 Q152 457 138.5 440 Q125 423 117 404 L117 315 L424 315 L424 404 Q416 423 403 440 Q390 457 370.5 470.5 Q351 484 326 492 Q301 500 270 500 Z M181 714 Q197 714 206 709 Q215 704 218 700 L218 650 Q215 646 206 641 Q197 636 181 636 Q166 636 156.5 641 Q147 646 144 650 L144 700 Q147 704 156.5 709 Q166 714 181 714 Z M372 714 Q387 714 396.5 709 Q406 704 409 700 L409 650 Q406 646 396.5 641 Q387 636 372 636 Q357 636 347.5 641 Q338 646 335 650 L335 700 Q338 704 347.5 709 Q357 714 372 714 Z " />
<glyph glyph-name="emacron" unicode="&#x113;" horiz-adv-x="534" d="M270 549 Q316 549 351.5 536.5 Q387 524 412.5 505.5 Q438 487 454.5 464.5 Q471 442 479 423 L479 268 L117 268 L117 132 Q125 113 138.5 96 Q152 79 171 65.5 Q190 52 215 44 Q240 36 270 36 Q334 36 373 67 Q412 98 431 146 L479 146 L479 113 Q471 93 454.5 71 Q438 49 412.5 30.5 Q387 12 351.5 -0.5 Q316 -13 270 -13 Q224 -13 189 -0.5 Q154 12 128 31 Q102 50 85.5 73 Q69 96 60 117 L60 419 Q69 440 85.5 463 Q102 486 128 505 Q154 524 189 536.5 Q224 549 270 549 Z M270 500 Q240 500 215 492 Q190 484 171 470.5 Q152 457 138.5 440 Q125 423 117 404 L117 315 L424 315 L424 404 Q416 423 403 440 Q390 457 370.5 470.5 Q351 484 326 492 Q301 500 270 500 Z M129 662 L129 707 L425 707 L425 662 L129 662 Z " />
<glyph glyph-name="ebreve" unicode="&#x115;" horiz-adv-x="534" d="M270 549 Q316 549 351.5 536.5 Q387 524 412.5 505.5 Q438 487 454.5 464.5 Q471 442 479 423 L479 268 L117 268 L117 132 Q125 113 138.5 96 Q152 79 171 65.5 Q190 52 215 44 Q240 36 270 36 Q334 36 373 67 Q412 98 431 146 L479 146 L479 113 Q471 93 454.5 71 Q438 49 412.5 30.5 Q387 12 351.5 -0.5 Q316 -13 270 -13 Q224 -13 189 -0.5 Q154 12 128 31 Q102 50 85.5 73 Q69 96 60 117 L60 419 Q69 440 85.5 463 Q102 486 128 505 Q154 524 189 536.5 Q224 549 270 549 Z M270 500 Q240 500 215 492 Q190 484 171 470.5 Q152 457 138.5 440 Q125 423 117 404 L117 315 L424 315 L424 404 Q416 423 403 440 Q390 457 370.5 470.5 Q351 484 326 492 Q301 500 270 500 Z M406 679 Q401 668 391 656 Q381 644 365.5 633.5 Q350 623 328 616.5 Q306 610 276 610 Q246 610 224.5 616.5 Q203 623 187 633.5 Q171 644 161.5 656 Q152 668 146 679 L146 728 L193 728 L193 693 Q195 688 200.5 680.5 Q206 673 216 666 Q226 659 240.5 654 Q255 649 276 649 Q297 649 311.5 654 Q326 659 336 666 Q346 673 351.5 680.5 Q357 688 359 693 L359 728 L406 728 L406 679 Z " />
<glyph glyph-name="edotaccent" unicode="&#x117;" horiz-adv-x="534" d="M270 549 Q316 549 351.5 536.5 Q387 524 412.5 505.5 Q438 487 454.5 464.5 Q471 442 479 423 L479 268 L117 268 L117 132 Q125 113 138.5 96 Q152 79 171 65.5 Q190 52 215 44 Q240 36 270 36 Q334 36 373 67 Q412 98 431 146 L479 146 L479 113 Q471 93 454.5 71 Q438 49 412.5 30.5 Q387 12 351.5 -0.5 Q316 -13 270 -13 Q224 -13 189 -0.5 Q154 12 128 31 Q102 50 85.5 73 Q69 96 60 117 L60 419 Q69 440 85.5 463 Q102 486 128 505 Q154 524 189 536.5 Q224 549 270 549 Z M270 500 Q240 500 215 492 Q190 484 171 470.5 Q152 457 138.5 440 Q125 423 117 404 L117 315 L424 315 L424 404 Q416 423 403 440 Q390 457 370.5 470.5 Q351 484 326 492 Q301 500 270 500 Z M276 715 Q292 715 301.5 709.5 Q311 704 314 698 L314 656 Q311 650 301.5 644.5 Q292 639 276 639 Q262 639 252 644.5 Q242 650 239 656 L239 698 Q242 704 252 709.5 Q262 715 276 715 Z " />
<glyph glyph-name="eogonek" unicode="&#x119;" horiz-adv-x="534" d="M270 549 Q316 549 351.5 536.5 Q387 524 412.5 505.5 Q438 487 454.5 464.5 Q471 442 479 423 L479 268 L117 268 L117 132 Q125 113 138.5 96 Q152 79 171 65.5 Q190 52 215 44 Q240 36 270 36 Q334 36 373 67 Q412 98 431 146 L479 146 L479 113 Q471 95 453.5 67.5 Q436 40 416.5 9.5 Q397 -21 379.5 -52 Q362 -83 355 -107 L355 -145 Q360 -153 374 -160.5 Q388 -168 407 -168 Q424 -168 437 -165.5 Q450 -163 464 -156 L464 -196 Q450 -203 436 -206.5 Q422 -210 399 -210 Q367 -210 342.5 -197.5 Q318 -185 309 -165 L309 -100 Q314 -84 330 -55.5 Q346 -27 370 7 Q349 -2 324 -7.5 Q299 -13 270 -13 Q224 -13 189 -0.5 Q154 12 128 31 Q102 50 85.5 73 Q69 96 60 117 L60 419 Q69 440 85.5 463 Q102 486 128 505 Q154 524 189 536.5 Q224 549 270 549 Z M270 500 Q240 500 215 492 Q190 484 171 470.5 Q152 457 138.5 440 Q125 423 117 404 L117 315 L424 315 L424 404 Q416 423 403 440 Q390 457 370.5 470.5 Q351 484 326 492 Q301 500 270 500 Z " />
<glyph glyph-name="gcircumflex" unicode="&#x11d;" horiz-adv-x="541" d="M468 -57 Q459 -78 442 -100 Q425 -122 399 -139 Q373 -156 337.5 -167 Q302 -178 256 -178 Q210 -178 175 -167 Q140 -156 115 -140 Q90 -124 74 -106 Q58 -88 51 -75 L51 -41 L99 -41 Q116 -74 155 -101.5 Q194 -129 256 -129 Q319 -129 356.5 -105 Q394 -81 411 -43 L411 79 Q385 54 345 36 Q305 18 248 18 Q204 18 172 29.5 Q140 41 117.5 57.5 Q95 74 81 92 Q67 110 60 123 L60 443 Q67 456 81 474 Q95 492 117.5 508.5 Q140 525 172 536.5 Q204 548 248 548 Q305 548 345.5 530 Q386 512 412 487 L412 536 L468 536 L468 -57 Z M258 68 Q315 68 353 88 Q391 108 411 135 L411 432 Q391 459 352 479 Q313 499 258 499 Q227 499 203.5 491.5 Q180 484 163 473.5 Q146 463 134.5 450.5 Q123 438 117 428 L117 139 Q123 128 134.5 116 Q146 104 163 93 Q180 82 203.5 75 Q227 68 258 68 Z M404 606 L365 606 L270 729 L176 606 L137 606 L137 622 L232 761 L309 761 L404 622 L404 606 Z " />
<glyph glyph-name="gbreve" unicode="&#x11f;" horiz-adv-x="541" d="M468 -57 Q459 -78 442 -100 Q425 -122 399 -139 Q373 -156 337.5 -167 Q302 -178 256 -178 Q210 -178 175 -167 Q140 -156 115 -140 Q90 -124 74 -106 Q58 -88 51 -75 L51 -41 L99 -41 Q116 -74 155 -101.5 Q194 -129 256 -129 Q319 -129 356.5 -105 Q394 -81 411 -43 L411 79 Q385 54 345 36 Q305 18 248 18 Q204 18 172 29.5 Q140 41 117.5 57.5 Q95 74 81 92 Q67 110 60 123 L60 443 Q67 456 81 474 Q95 492 117.5 508.5 Q140 525 172 536.5 Q204 548 248 548 Q305 548 345.5 530 Q386 512 412 487 L412 536 L468 536 L468 -57 Z M258 68 Q315 68 353 88 Q391 108 411 135 L411 432 Q391 459 352 479 Q313 499 258 499 Q227 499 203.5 491.5 Q180 484 163 473.5 Q146 463 134.5 450.5 Q123 438 117 428 L117 139 Q123 128 134.5 116 Q146 104 163 93 Q180 82 203.5 75 Q227 68 258 68 Z M400 679 Q395 668 385 656 Q375 644 359.5 633.5 Q344 623 322 616.5 Q300 610 270 610 Q240 610 218.5 616.5 Q197 623 181 633.5 Q165 644 155.5 656 Q146 668 140 679 L140 728 L187 728 L187 693 Q189 688 194.5 680.5 Q200 673 210 666 Q220 659 234.5 654 Q249 649 270 649 Q291 649 305.5 654 Q320 659 330 666 Q340 673 345.5 680.5 Q351 688 353 693 L353 728 L400 728 L400 679 Z " />
<glyph glyph-name="gdotaccent" unicode="&#x121;" horiz-adv-x="541" d="M468 -57 Q459 -78 442 -100 Q425 -122 399 -139 Q373 -156 337.5 -167 Q302 -178 256 -178 Q210 -178 175 -167 Q140 -156 115 -140 Q90 -124 74 -106 Q58 -88 51 -75 L51 -41 L99 -41 Q116 -74 155 -101.5 Q194 -129 256 -129 Q319 -129 356.5 -105 Q394 -81 411 -43 L411 79 Q385 54 345 36 Q305 18 248 18 Q204 18 172 29.5 Q140 41 117.5 57.5 Q95 74 81 92 Q67 110 60 123 L60 443 Q67 456 81 474 Q95 492 117.5 508.5 Q140 525 172 536.5 Q204 548 248 548 Q305 548 345.5 530 Q386 512 412 487 L412 536 L468 536 L468 -57 Z M258 68 Q315 68 353 88 Q391 108 411 135 L411 432 Q391 459 352 479 Q313 499 258 499 Q227 499 203.5 491.5 Q180 484 163 473.5 Q146 463 134.5 450.5 Q123 438 117 428 L117 139 Q123 128 134.5 116 Q146 104 163 93 Q180 82 203.5 75 Q227 68 258 68 Z M270 715 Q286 715 295.5 709.5 Q305 704 308 698 L308 656 Q305 650 295.5 644.5 Q286 639 270 639 Q256 639 246 644.5 Q236 650 233 656 L233 698 Q236 704 246 709.5 Q256 715 270 715 Z " />
<glyph glyph-name="gcommaaccent" unicode="&#x123;" horiz-adv-x="541" d="M468 -57 Q459 -78 442 -100 Q425 -122 399 -139 Q373 -156 337.5 -167 Q302 -178 256 -178 Q210 -178 175 -167 Q140 -156 115 -140 Q90 -124 74 -106 Q58 -88 51 -75 L51 -41 L99 -41 Q116 -74 155 -101.5 Q194 -129 256 -129 Q319 -129 356.5 -105 Q394 -81 411 -43 L411 79 Q385 54 345 36 Q305 18 248 18 Q204 18 172 29.5 Q140 41 117.5 57.5 Q95 74 81 92 Q67 110 60 123 L60 443 Q67 456 81 474 Q95 492 117.5 508.5 Q140 525 172 536.5 Q204 548 248 548 Q305 548 345.5 530 Q386 512 412 487 L412 536 L468 536 L468 -57 Z M258 68 Q315 68 353 88 Q391 108 411 135 L411 432 Q391 459 352 479 Q313 499 258 499 Q227 499 203.5 491.5 Q180 484 163 473.5 Q146 463 134.5 450.5 Q123 438 117 428 L117 139 Q123 128 134.5 116 Q146 104 163 93 Q180 82 203.5 75 Q227 68 258 68 Z M270 675 Q284 675 294.5 670 Q305 665 307 659 L307 625 Q305 620 294.5 614.5 Q284 609 270 609 Q257 609 246.5 614.5 Q236 620 234 625 L234 713 Q236 722 250 732.5 Q264 743 283 743 L302 743 L302 716 L288 716 Q282 716 277 714 Q272 712 270 708 L270 675 Z " />
<glyph glyph-name="hcircumflex" unicode="&#x125;" horiz-adv-x="550" d="M293 548 Q337 548 369 536.5 Q401 525 423.5 508.5 Q446 492 460 474 Q474 456 481 443 L481 0 L424 0 L424 428 Q418 438 406.5 450.5 Q395 463 378 473.5 Q361 484 337.5 491.5 Q314 499 283 499 Q227 499 188.5 479.5 Q150 460 130 433 L130 0 L73 0 L73 700 L130 700 L130 488 Q156 513 196.5 530.5 Q237 548 293 548 Z M414 745 L375 745 L280 860 L186 745 L147 745 L147 761 L242 893 L319 893 L414 761 L414 745 Z " />
<glyph glyph-name="hbar" unicode="&#x127;" horiz-adv-x="564" d="M347 646 L347 608 L145 608 L145 482 Q170 506 210.5 524 Q251 542 308 542 Q352 542 384 530.5 Q416 519 438.5 503 Q461 487 475 468.5 Q489 450 496 437 L496 0 L438 0 L438 422 Q432 432 421 444.5 Q410 457 393 467.5 Q376 478 352.5 485.5 Q329 493 298 493 Q242 493 203.5 473 Q165 453 145 427 L145 0 L88 0 L88 608 L36 608 L36 646 L88 646 L88 700 L145 700 L145 646 L347 646 Z " />
<glyph glyph-name="igrave" unicode="&#xec;" horiz-adv-x="211" d="M77 0 L77 536 L134 536 L134 0 L77 0 Z M128 607 L86 607 L5 731 L5 762 L57 762 L128 622 L128 607 Z " />
<glyph glyph-name="iacute" unicode="&#xed;" horiz-adv-x="211" d="M77 0 L77 536 L134 536 L134 0 L77 0 Z M128 607 L86 607 L86 622 L157 762 L209 762 L209 731 L128 607 Z " />
<glyph glyph-name="icircumflex" unicode="&#xee;" horiz-adv-x="211" d="M77 0 L77 536 L134 536 L134 0 L77 0 Z M239 606 L200 606 L105 729 L11 606 L-28 606 L-28 622 L67 761 L144 761 L239 622 L239 606 Z " />
<glyph glyph-name="itilde" unicode="&#x129;" horiz-adv-x="211" d="M77 0 L77 536 L134 536 L134 0 L77 0 Z M37 725 Q60 725 78 716.5 Q96 708 111 697.5 Q126 687 140 678.5 Q154 670 171 670 Q188 670 199.5 679 Q211 688 216 701 L216 719 L256 719 L256 685 Q249 662 228 645 Q207 628 174 628 Q151 628 133.5 636.5 Q116 645 101 655.5 Q86 666 71.5 674.5 Q57 683 41 683 Q24 683 11 673 Q-2 663 -5 654 L-5 634 L-45 634 L-45 669 Q-23 725 37 725 Z " />
<glyph glyph-name="idieresis" unicode="&#xef;" horiz-adv-x="211" d="M77 0 L77 536 L134 536 L134 0 L77 0 Z M9 714 Q25 714 34 709 Q43 704 46 700 L46 650 Q43 646 34 641 Q25 636 9 636 Q-6 636 -15.5 641 Q-25 646 -28 650 L-28 700 Q-25 704 -15.5 709 Q-6 714 9 714 Z M200 714 Q215 714 224.5 709 Q234 704 237 700 L237 650 Q234 646 224.5 641 Q215 636 200 636 Q185 636 175.5 641 Q166 646 163 650 L163 700 Q166 704 175.5 709 Q185 714 200 714 Z " />
<glyph glyph-name="imacron" unicode="&#x12b;" horiz-adv-x="211" d="M77 0 L77 536 L134 536 L134 0 L77 0 Z M-42 662 L-42 707 L254 707 L254 662 L-42 662 Z " />
<glyph glyph-name="ibreve" unicode="&#x12d;" horiz-adv-x="211" d="M77 0 L77 536 L134 536 L134 0 L77 0 Z M235 679 Q230 668 220 656 Q210 644 194.5 633.5 Q179 623 157 616.5 Q135 610 105 610 Q75 610 53.5 616.5 Q32 623 16 633.5 Q0 644 -9.5 656 Q-19 668 -25 679 L-25 728 L22 728 L22 693 Q24 688 29.5 680.5 Q35 673 45 666 Q55 659 69.5 654 Q84 649 105 649 Q126 649 140.5 654 Q155 659 165 666 Q175 673 180.5 680.5 Q186 688 188 693 L188 728 L235 728 L235 679 Z " />
<glyph glyph-name="iogonek" unicode="&#x12f;" horiz-adv-x="211" d="M105 715 Q121 715 130.5 709.5 Q140 704 143 698 L143 657 Q140 652 130.5 646.5 Q121 641 105 641 Q91 641 81 646.5 Q71 652 68 657 L68 698 Q71 704 81 709.5 Q91 715 105 715 Z M32 -145 Q37 -153 51 -160.5 Q65 -168 84 -168 Q101 -168 114 -165.5 Q127 -163 141 -156 L141 -196 Q127 -203 113 -206.5 Q99 -210 76 -210 Q44 -210 19.5 -197.5 Q-5 -185 -14 -165 L-14 -100 Q-6 -83 14.5 -57 Q35 -31 77 1 L77 536 L134 536 L134 0 Q80 -42 58.5 -69.5 Q37 -97 32 -107 L32 -145 Z " />
<glyph glyph-name="dotlessi" unicode="&#x131;" horiz-adv-x="211" d="M77 0 L77 536 L134 536 L134 0 L77 0 Z " />
<glyph glyph-name="ij" unicode="&#x133;" horiz-adv-x="414" d="M77 0 L77 536 L134 536 L134 0 L77 0 Z M105 715 Q121 715 130.5 709.5 Q140 704 143 698 L143 656 Q140 650 130.5 644.5 Q121 639 105 639 Q91 639 81 644.5 Q71 650 68 656 L68 698 Q71 704 81 709.5 Q91 715 105 715 Z M341 -49 Q332 -70 315.5 -93 Q299 -116 273.5 -135 Q248 -154 212.5 -166.5 Q177 -179 132 -179 L132 -130 Q162 -130 186.5 -122 Q211 -114 230 -100.5 Q249 -87 262 -69.5 Q275 -52 283 -33 L283 536 L341 536 L341 -49 Z M312 715 Q328 715 337.5 709.5 Q347 704 350 698 L350 656 Q347 650 337.5 644.5 Q328 639 312 639 Q298 639 288 644.5 Q278 650 275 656 L275 698 Q278 704 288 709.5 Q298 715 312 715 Z " />
<glyph glyph-name="dotlessj" unicode="&#x237;" horiz-adv-x="203" d="M130 -49 Q121 -70 104.5 -93 Q88 -116 62.5 -135 Q37 -154 1.5 -166.5 Q-34 -179 -79 -179 L-79 -130 Q-49 -130 -24.5 -122 Q0 -114 19 -100.5 Q38 -87 51 -69.5 Q64 -52 72 -33 L72 536 L130 536 L130 -49 Z " />
<glyph glyph-name="jcircumflex" unicode="&#x135;" horiz-adv-x="203" d="M130 -49 Q121 -70 104.5 -93 Q88 -116 62.5 -135 Q37 -154 1.5 -166.5 Q-34 -179 -79 -179 L-79 -130 Q-49 -130 -24.5 -122 Q0 -114 19 -100.5 Q38 -87 51 -69.5 Q64 -52 72 -33 L72 536 L130 536 L130 -49 Z M235 606 L196 606 L101 729 L7 606 L-32 606 L-32 622 L63 761 L140 761 L235 622 L235 606 Z " />
<glyph glyph-name="kcommaaccent" unicode="&#x137;" horiz-adv-x="499" d="M479 0 L440 0 L228 278 L130 182 L130 0 L73 0 L73 700 L130 700 L130 251 L415 536 L450 536 L450 496 L268 317 L479 39 L479 0 Z M249 -67 Q263 -67 272 -71 Q281 -75 283 -79 L283 -165 Q281 -173 270 -183.5 Q259 -194 239 -194 L219 -194 L219 -169 L234 -169 Q245 -169 249 -161 L249 -130 Q236 -130 227 -126.5 Q218 -123 216 -119 L216 -79 Q218 -75 227 -71 Q236 -67 249 -67 Z " />
<glyph glyph-name="lacute" unicode="&#x13a;" horiz-adv-x="203" d="M73 0 L73 700 L130 700 L130 0 L73 0 Z M115 752 L74 752 L74 768 L144 900 L196 900 L196 870 L115 752 Z " />
<glyph glyph-name="lcaron" unicode="&#x13e;" horiz-adv-x="331" d="M73 0 L73 700 L130 700 L130 0 L73 0 Z M271 539 L233 539 L233 554 L251 700 L301 700 L301 666 L271 539 Z " />
<glyph glyph-name="lcommaaccent" unicode="&#x13c;" horiz-adv-x="203" d="M73 0 L73 700 L130 700 L130 0 L73 0 Z M101 -67 Q115 -67 124 -71 Q133 -75 135 -79 L135 -165 Q133 -173 122 -183.5 Q111 -194 91 -194 L71 -194 L71 -169 L86 -169 Q97 -169 101 -161 L101 -130 Q88 -130 79 -126.5 Q70 -123 68 -119 L68 -79 Q70 -75 79 -71 Q88 -67 101 -67 Z " />
<glyph glyph-name="lslash" unicode="&#x142;" horiz-adv-x="336" d="M197 376 L197 0 L139 0 L139 342 L31 280 L31 332 L139 394 L139 700 L197 700 L197 428 L305 490 L305 438 L197 376 Z " />
<glyph glyph-name="ldot" unicode="&#x140;" horiz-adv-x="357" d="M73 0 L73 700 L130 700 L130 0 L73 0 Z M280 402 Q296 402 305.5 396.5 Q315 391 318 385 L318 343 Q315 337 305.5 331.5 Q296 326 280 326 Q266 326 256 331.5 Q246 337 243 343 L243 385 Q246 391 256 396.5 Q266 402 280 402 Z " />
<glyph glyph-name="nacute" unicode="&#x144;" horiz-adv-x="549" d="M293 548 Q337 548 369 536.5 Q401 525 423.5 508.5 Q446 492 460 474 Q474 456 481 443 L481 0 L423 0 L423 428 Q417 438 406 450.5 Q395 463 377.5 473.5 Q360 484 336.5 491.5 Q313 499 283 499 Q228 499 189.5 479.5 Q151 460 130 434 L130 0 L73 0 L73 536 L128 536 L128 486 Q154 512 195 530 Q236 548 293 548 Z M297 607 L255 607 L255 622 L326 762 L378 762 L378 731 L297 607 Z " />
<glyph glyph-name="ncaron" unicode="&#x148;" horiz-adv-x="549" d="M293 548 Q337 548 369 536.5 Q401 525 423.5 508.5 Q446 492 460 474 Q474 456 481 443 L481 0 L423 0 L423 428 Q417 438 406 450.5 Q395 463 377.5 473.5 Q360 484 336.5 491.5 Q313 499 283 499 Q228 499 189.5 479.5 Q151 460 130 434 L130 0 L73 0 L73 536 L128 536 L128 486 Q154 512 195 530 Q236 548 293 548 Z M313 606 L236 606 L141 745 L141 761 L180 761 L274 639 L369 761 L408 761 L408 745 L313 606 Z " />
<glyph glyph-name="ntilde" unicode="&#xf1;" horiz-adv-x="549" d="M293 548 Q337 548 369 536.5 Q401 525 423.5 508.5 Q446 492 460 474 Q474 456 481 443 L481 0 L423 0 L423 428 Q417 438 406 450.5 Q395 463 377.5 473.5 Q360 484 336.5 491.5 Q313 499 283 499 Q228 499 189.5 479.5 Q151 460 130 434 L130 0 L73 0 L73 536 L128 536 L128 486 Q154 512 195 530 Q236 548 293 548 Z M206 725 Q229 725 247 716.5 Q265 708 280 697.5 Q295 687 309 678.5 Q323 670 340 670 Q357 670 368.5 679 Q380 688 385 701 L385 719 L425 719 L425 685 Q418 662 397 645 Q376 628 343 628 Q320 628 302.5 636.5 Q285 645 270 655.5 Q255 666 240.5 674.5 Q226 683 210 683 Q193 683 180 673 Q167 663 164 654 L164 634 L124 634 L124 669 Q146 725 206 725 Z " />
<glyph glyph-name="ncommaaccent" unicode="&#x146;" horiz-adv-x="549" d="M293 548 Q337 548 369 536.5 Q401 525 423.5 508.5 Q446 492 460 474 Q474 456 481 443 L481 0 L423 0 L423 428 Q417 438 406 450.5 Q395 463 377.5 473.5 Q360 484 336.5 491.5 Q313 499 283 499 Q228 499 189.5 479.5 Q151 460 130 434 L130 0 L73 0 L73 536 L128 536 L128 486 Q154 512 195 530 Q236 548 293 548 Z M274 -67 Q288 -67 297 -71 Q306 -75 308 -79 L308 -165 Q306 -173 295 -183.5 Q284 -194 264 -194 L244 -194 L244 -169 L259 -169 Q270 -169 274 -161 L274 -130 Q261 -130 252 -126.5 Q243 -123 241 -119 L241 -79 Q243 -75 252 -71 Q261 -67 274 -67 Z " />
<glyph glyph-name="napostrophe" unicode="&#x149;" horiz-adv-x="549" d="M293 548 Q337 548 369 536.5 Q401 525 423.5 508.5 Q446 492 460 474 Q474 456 481 443 L481 0 L423 0 L423 428 Q417 438 406 450.5 Q395 463 377.5 473.5 Q360 484 336.5 491.5 Q313 499 283 499 Q228 499 189.5 479.5 Q151 460 130 434 L130 0 L73 0 L73 536 L128 536 L128 486 Q154 512 195 530 Q236 548 293 548 Z M52 721 Q66 721 75 717 Q84 713 86 709 L86 623 Q84 615 73 604.5 Q62 594 42 594 L22 594 L22 619 L37 619 Q48 619 52 627 L52 658 Q39 658 30 661.5 Q21 665 19 669 L19 709 Q21 713 30 717 Q39 721 52 721 Z " />
<glyph glyph-name="ograve" unicode="&#xf2;" horiz-adv-x="541" d="M271 549 Q317 549 352 536.5 Q387 524 413 505 Q439 486 455.5 463 Q472 440 481 419 L481 117 Q472 96 455.5 73 Q439 50 413 31 Q387 12 352 -0.5 Q317 -13 271 -13 Q225 -13 189.5 -0.5 Q154 12 128 31 Q102 50 85.5 73 Q69 96 60 117 L60 419 Q69 440 85.5 463 Q102 486 128 505 Q154 524 189.5 536.5 Q225 549 271 549 Z M270 500 Q209 500 170.5 471 Q132 442 117 405 L117 131 Q132 94 170.5 65 Q209 36 270 36 Q301 36 326 44 Q351 52 370.5 65 Q390 78 403 95.5 Q416 113 424 131 L424 405 Q416 423 403 440.5 Q390 458 370.5 471 Q351 484 326 492 Q301 500 270 500 Z M293 607 L251 607 L170 731 L170 762 L222 762 L293 622 L293 607 Z " />
<glyph glyph-name="oacute" unicode="&#xf3;" horiz-adv-x="541" d="M271 549 Q317 549 352 536.5 Q387 524 413 505 Q439 486 455.5 463 Q472 440 481 419 L481 117 Q472 96 455.5 73 Q439 50 413 31 Q387 12 352 -0.5 Q317 -13 271 -13 Q225 -13 189.5 -0.5 Q154 12 128 31 Q102 50 85.5 73 Q69 96 60 117 L60 419 Q69 440 85.5 463 Q102 486 128 505 Q154 524 189.5 536.5 Q225 549 271 549 Z M270 500 Q209 500 170.5 471 Q132 442 117 405 L117 131 Q132 94 170.5 65 Q209 36 270 36 Q301 36 326 44 Q351 52 370.5 65 Q390 78 403 95.5 Q416 113 424 131 L424 405 Q416 423 403 440.5 Q390 458 370.5 471 Q351 484 326 492 Q301 500 270 500 Z M292 607 L250 607 L250 622 L321 762 L373 762 L373 731 L292 607 Z " />
<glyph glyph-name="ocircumflex" unicode="&#xf4;" horiz-adv-x="541" d="M271 549 Q317 549 352 536.5 Q387 524 413 505 Q439 486 455.5 463 Q472 440 481 419 L481 117 Q472 96 455.5 73 Q439 50 413 31 Q387 12 352 -0.5 Q317 -13 271 -13 Q225 -13 189.5 -0.5 Q154 12 128 31 Q102 50 85.5 73 Q69 96 60 117 L60 419 Q69 440 85.5 463 Q102 486 128 505 Q154 524 189.5 536.5 Q225 549 271 549 Z M270 500 Q209 500 170.5 471 Q132 442 117 405 L117 131 Q132 94 170.5 65 Q209 36 270 36 Q301 36 326 44 Q351 52 370.5 65 Q390 78 403 95.5 Q416 113 424 131 L424 405 Q416 423 403 440.5 Q390 458 370.5 471 Q351 484 326 492 Q301 500 270 500 Z M404 606 L365 606 L270 729 L176 606 L137 606 L137 622 L232 761 L309 761 L404 622 L404 606 Z " />
<glyph glyph-name="otilde" unicode="&#xf5;" horiz-adv-x="541" d="M271 549 Q317 549 352 536.5 Q387 524 413 505 Q439 486 455.5 463 Q472 440 481 419 L481 117 Q472 96 455.5 73 Q439 50 413 31 Q387 12 352 -0.5 Q317 -13 271 -13 Q225 -13 189.5 -0.5 Q154 12 128 31 Q102 50 85.5 73 Q69 96 60 117 L60 419 Q69 440 85.5 463 Q102 486 128 505 Q154 524 189.5 536.5 Q225 549 271 549 Z M270 500 Q209 500 170.5 471 Q132 442 117 405 L117 131 Q132 94 170.5 65 Q209 36 270 36 Q301 36 326 44 Q351 52 370.5 65 Q390 78 403 95.5 Q416 113 424 131 L424 405 Q416 423 403 440.5 Q390 458 370.5 471 Q351 484 326 492 Q301 500 270 500 Z M202 725 Q225 725 243 716.5 Q261 708 276 697.5 Q291 687 305 678.5 Q319 670 336 670 Q353 670 364.5 679 Q376 688 381 701 L381 719 L421 719 L421 685 Q414 662 393 645 Q372 628 339 628 Q316 628 298.5 636.5 Q281 645 266 655.5 Q251 666 236.5 674.5 Q222 683 206 683 Q189 683 176 673 Q163 663 160 654 L160 634 L120 634 L120 669 Q142 725 202 725 Z " />
<glyph glyph-name="odieresis" unicode="&#xf6;" horiz-adv-x="541" d="M271 549 Q317 549 352 536.5 Q387 524 413 505 Q439 486 455.5 463 Q472 440 481 419 L481 117 Q472 96 455.5 73 Q439 50 413 31 Q387 12 352 -0.5 Q317 -13 271 -13 Q225 -13 189.5 -0.5 Q154 12 128 31 Q102 50 85.5 73 Q69 96 60 117 L60 419 Q69 440 85.5 463 Q102 486 128 505 Q154 524 189.5 536.5 Q225 549 271 549 Z M270 500 Q209 500 170.5 471 Q132 442 117 405 L117 131 Q132 94 170.5 65 Q209 36 270 36 Q301 36 326 44 Q351 52 370.5 65 Q390 78 403 95.5 Q416 113 424 131 L424 405 Q416 423 403 440.5 Q390 458 370.5 471 Q351 484 326 492 Q301 500 270 500 Z M174 714 Q190 714 199 709 Q208 704 211 700 L211 650 Q208 646 199 641 Q190 636 174 636 Q159 636 149.5 641 Q140 646 137 650 L137 700 Q140 704 149.5 709 Q159 714 174 714 Z M365 714 Q380 714 389.5 709 Q399 704 402 700 L402 650 Q399 646 389.5 641 Q380 636 365 636 Q350 636 340.5 641 Q331 646 328 650 L328 700 Q331 704 340.5 709 Q350 714 365 714 Z " />
<glyph glyph-name="omacron" unicode="&#x14d;" horiz-adv-x="541" d="M271 549 Q317 549 352 536.5 Q387 524 413 505 Q439 486 455.5 463 Q472 440 481 419 L481 117 Q472 96 455.5 73 Q439 50 413 31 Q387 12 352 -0.5 Q317 -13 271 -13 Q225 -13 189.5 -0.5 Q154 12 128 31 Q102 50 85.5 73 Q69 96 60 117 L60 419 Q69 440 85.5 463 Q102 486 128 505 Q154 524 189.5 536.5 Q225 549 271 549 Z M270 500 Q209 500 170.5 471 Q132 442 117 405 L117 131 Q132 94 170.5 65 Q209 36 270 36 Q301 36 326 44 Q351 52 370.5 65 Q390 78 403 95.5 Q416 113 424 131 L424 405 Q416 423 403 440.5 Q390 458 370.5 471 Q351 484 326 492 Q301 500 270 500 Z M122 662 L122 707 L418 707 L418 662 L122 662 Z " />
<glyph glyph-name="obreve" unicode="&#x14f;" horiz-adv-x="541" d="M271 549 Q317 549 352 536.5 Q387 524 413 505 Q439 486 455.5 463 Q472 440 481 419 L481 117 Q472 96 455.5 73 Q439 50 413 31 Q387 12 352 -0.5 Q317 -13 271 -13 Q225 -13 189.5 -0.5 Q154 12 128 31 Q102 50 85.5 73 Q69 96 60 117 L60 419 Q69 440 85.5 463 Q102 486 128 505 Q154 524 189.5 536.5 Q225 549 271 549 Z M270 500 Q209 500 170.5 471 Q132 442 117 405 L117 131 Q132 94 170.5 65 Q209 36 270 36 Q301 36 326 44 Q351 52 370.5 65 Q390 78 403 95.5 Q416 113 424 131 L424 405 Q416 423 403 440.5 Q390 458 370.5 471 Q351 484 326 492 Q301 500 270 500 Z M400 679 Q395 668 385 656 Q375 644 359.5 633.5 Q344 623 322 616.5 Q300 610 270 610 Q240 610 218.5 616.5 Q197 623 181 633.5 Q165 644 155.5 656 Q146 668 140 679 L140 728 L187 728 L187 693 Q189 688 194.5 680.5 Q200 673 210 666 Q220 659 234.5 654 Q249 649 270 649 Q291 649 305.5 654 Q320 659 330 666 Q340 673 345.5 680.5 Q351 688 353 693 L353 728 L400 728 L400 679 Z " />
<glyph glyph-name="ohungarumlaut" unicode="&#x151;" horiz-adv-x="541" d="M271 549 Q317 549 352 536.5 Q387 524 413 505 Q439 486 455.5 463 Q472 440 481 419 L481 117 Q472 96 455.5 73 Q439 50 413 31 Q387 12 352 -0.5 Q317 -13 271 -13 Q225 -13 189.5 -0.5 Q154 12 128 31 Q102 50 85.5 73 Q69 96 60 117 L60 419 Q69 440 85.5 463 Q102 486 128 505 Q154 524 189.5 536.5 Q225 549 271 549 Z M270 500 Q209 500 170.5 471 Q132 442 117 405 L117 131 Q132 94 170.5 65 Q209 36 270 36 Q301 36 326 44 Q351 52 370.5 65 Q390 78 403 95.5 Q416 113 424 131 L424 405 Q416 423 403 440.5 Q390 458 370.5 471 Q351 484 326 492 Q301 500 270 500 Z M200 604 L162 604 L162 620 L214 759 L260 759 L260 731 L200 604 Z M368 604 L331 604 L331 620 L383 759 L429 759 L429 731 L368 604 Z " />
<glyph glyph-name="oslash" unicode="&#xf8;" horiz-adv-x="541" d="M451 470 Q462 457 469 444 Q476 431 481 419 L481 117 Q472 96 455.5 73 Q439 50 413 31 Q387 12 352 -0.5 Q317 -13 271 -13 Q221 -13 183.5 1 Q146 15 120 37 L92 0 L60 0 L60 28 L90 67 Q69 92 60 117 L60 419 Q69 440 85.5 463 Q102 486 128 505 Q154 524 189.5 536.5 Q225 549 271 549 Q321 549 358 535 Q395 521 421 499 L449 536 L481 536 L481 509 L451 470 Z M117 131 Q120 121 126 114 L388 457 Q368 476 338 488 Q308 500 270 500 Q209 500 170.5 471 Q132 442 117 405 L117 131 Z M424 405 Q421 414 415 423 L153 79 Q173 60 202.5 48 Q232 36 270 36 Q301 36 326 44 Q351 52 370.5 65 Q390 78 403 95.5 Q416 113 424 131 L424 405 Z " />
<glyph glyph-name="oe" unicode="&#x153;" horiz-adv-x="898" d="M481 132 Q489 113 502.5 96 Q516 79 535 65.5 Q554 52 579 44 Q604 36 635 36 Q698 36 737 67 Q776 98 795 146 L843 146 L843 113 Q835 93 818.5 71 Q802 49 776.5 30.5 Q751 12 716 -0.5 Q681 -13 635 -13 Q568 -13 523.5 12 Q479 37 453 69 Q427 37 382.5 12 Q338 -13 271 -13 Q225 -13 189.5 -0.5 Q154 12 128 31 Q102 50 85.5 73 Q69 96 60 117 L60 419 Q69 440 85.5 463 Q102 486 128 505 Q154 524 189.5 536.5 Q225 549 271 549 Q338 549 382.5 524 Q427 499 453 467 Q479 499 523.5 524 Q568 549 635 549 Q681 549 716 536.5 Q751 524 776.5 505.5 Q802 487 818.5 464.5 Q835 442 843 423 L843 268 L481 268 L481 132 Z M270 36 Q301 36 326 44 Q351 52 370.5 65 Q390 78 403 95.5 Q416 113 424 131 L424 405 Q416 423 403 440.5 Q390 458 370.5 471 Q351 484 326 492 Q301 500 270 500 Q209 500 170.5 471 Q132 442 117 405 L117 131 Q132 94 170.5 65 Q209 36 270 36 Z M635 500 Q604 500 579 492 Q554 484 535 470.5 Q516 457 502.5 440 Q489 423 481 404 L481 315 L788 315 L788 404 Q780 423 767 440 Q754 457 734.5 470.5 Q715 484 690 492 Q665 500 635 500 Z " />
<glyph glyph-name="racute" unicode="&#x155;" horiz-adv-x="341" d="M296 537 Q299 537 304 537 Q309 537 317 536 L317 481 Q308 482 302 482 Q296 482 294 482 Q235 482 193.5 462 Q152 442 130 414 L130 0 L72 0 L72 536 L128 536 L128 467 Q151 495 193 516 Q235 537 296 537 Z M220 607 L178 607 L178 622 L249 762 L301 762 L301 731 L220 607 Z " />
<glyph glyph-name="rcaron" unicode="&#x159;" horiz-adv-x="341" d="M296 537 Q299 537 304 537 Q309 537 317 536 L317 481 Q308 482 302 482 Q296 482 294 482 Q235 482 193.5 462 Q152 442 130 414 L130 0 L72 0 L72 536 L128 536 L128 467 Q151 495 193 516 Q235 537 296 537 Z M236 606 L159 606 L64 745 L64 761 L103 761 L197 639 L292 761 L331 761 L331 745 L236 606 Z " />
<glyph glyph-name="rcommaaccent" unicode="&#x157;" horiz-adv-x="341" d="M296 537 Q299 537 304 537 Q309 537 317 536 L317 481 Q308 482 302 482 Q296 482 294 482 Q235 482 193.5 462 Q152 442 130 414 L130 0 L72 0 L72 536 L128 536 L128 467 Q151 495 193 516 Q235 537 296 537 Z M100 -67 Q114 -67 123 -71 Q132 -75 134 -79 L134 -165 Q132 -173 121 -183.5 Q110 -194 90 -194 L70 -194 L70 -169 L85 -169 Q96 -169 100 -161 L100 -130 Q87 -130 78 -126.5 Q69 -123 67 -119 L67 -79 Q69 -75 78 -71 Q87 -67 100 -67 Z " />
<glyph glyph-name="sacute" unicode="&#x15b;" horiz-adv-x="475" d="M237 549 Q275 549 305 540.5 Q335 532 357.5 519.5 Q380 507 395.5 492.5 Q411 478 419 467 L419 434 L371 434 Q357 460 322.5 480 Q288 500 237 500 Q190 500 159 483.5 Q128 467 111 448 L111 363 Q122 347 145.5 332.5 Q169 318 214 307 L278 291 Q342 276 378.5 253 Q415 230 429 207 L429 81 Q421 69 406 53 Q391 37 368 22.5 Q345 8 312.5 -2.5 Q280 -13 237 -13 Q195 -13 162.5 -2.5 Q130 8 107 23 Q84 38 69 54 Q54 70 46 81 L46 114 L94 114 Q110 83 146 59.5 Q182 36 237 36 Q264 36 286 42 Q308 48 325 57.5 Q342 67 354 78 Q366 89 374 100 L374 185 Q350 224 266 243 L200 259 Q135 274 101.5 298 Q68 322 56 341 L56 467 Q64 477 78.5 491.5 Q93 506 115.5 518.5 Q138 531 168 540 Q198 549 237 549 Z M266 607 L224 607 L224 622 L295 762 L347 762 L347 731 L266 607 Z " />
<glyph glyph-name="scircumflex" unicode="&#x15d;" horiz-adv-x="475" d="M237 549 Q275 549 305 540.5 Q335 532 357.5 519.5 Q380 507 395.5 492.5 Q411 478 419 467 L419 434 L371 434 Q357 460 322.5 480 Q288 500 237 500 Q190 500 159 483.5 Q128 467 111 448 L111 363 Q122 347 145.5 332.5 Q169 318 214 307 L278 291 Q342 276 378.5 253 Q415 230 429 207 L429 81 Q421 69 406 53 Q391 37 368 22.5 Q345 8 312.5 -2.5 Q280 -13 237 -13 Q195 -13 162.5 -2.5 Q130 8 107 23 Q84 38 69 54 Q54 70 46 81 L46 114 L94 114 Q110 83 146 59.5 Q182 36 237 36 Q264 36 286 42 Q308 48 325 57.5 Q342 67 354 78 Q366 89 374 100 L374 185 Q350 224 266 243 L200 259 Q135 274 101.5 298 Q68 322 56 341 L56 467 Q64 477 78.5 491.5 Q93 506 115.5 518.5 Q138 531 168 540 Q198 549 237 549 Z M377 606 L338 606 L243 729 L149 606 L110 606 L110 622 L205 761 L282 761 L377 622 L377 606 Z " />
<glyph glyph-name="scaron" unicode="&#x161;" horiz-adv-x="475" d="M237 549 Q275 549 305 540.5 Q335 532 357.5 519.5 Q380 507 395.5 492.5 Q411 478 419 467 L419 434 L371 434 Q357 460 322.5 480 Q288 500 237 500 Q190 500 159 483.5 Q128 467 111 448 L111 363 Q122 347 145.5 332.5 Q169 318 214 307 L278 291 Q342 276 378.5 253 Q415 230 429 207 L429 81 Q421 69 406 53 Q391 37 368 22.5 Q345 8 312.5 -2.5 Q280 -13 237 -13 Q195 -13 162.5 -2.5 Q130 8 107 23 Q84 38 69 54 Q54 70 46 81 L46 114 L94 114 Q110 83 146 59.5 Q182 36 237 36 Q264 36 286 42 Q308 48 325 57.5 Q342 67 354 78 Q366 89 374 100 L374 185 Q350 224 266 243 L200 259 Q135 274 101.5 298 Q68 322 56 341 L56 467 Q64 477 78.5 491.5 Q93 506 115.5 518.5 Q138 531 168 540 Q198 549 237 549 Z M282 606 L205 606 L110 745 L110 761 L149 761 L243 639 L338 761 L377 761 L377 745 L282 606 Z " />
<glyph glyph-name="scedilla" unicode="&#x15f;" horiz-adv-x="475" d="M278 291 Q342 276 378.5 253 Q415 230 429 207 L429 81 Q421 70 407.5 55 Q394 40 373 26 Q352 12 323.5 1.5 Q295 -9 257 -12 L240 -58 L258 -58 Q291 -58 311 -72 Q331 -86 339 -102 L339 -170 Q330 -188 307.5 -202.5 Q285 -217 250 -217 Q221 -217 197.5 -210 Q174 -203 157 -192 L170 -159 Q186 -168 205 -174.5 Q224 -181 247 -181 Q269 -181 281 -173 Q293 -165 298 -156 L298 -115 Q293 -106 280.5 -98 Q268 -90 247 -90 L189 -90 L216 -12 Q179 -9 150.5 1.5 Q122 12 101.5 26.5 Q81 41 67 55.5 Q53 70 46 81 L46 114 L94 114 Q110 83 146 59.5 Q182 36 237 36 Q264 36 286 42 Q308 48 325 57.5 Q342 67 354 78 Q366 89 374 100 L374 185 Q350 224 266 243 L200 259 Q135 274 101.5 298 Q68 322 56 341 L56 467 Q64 477 78.5 491.5 Q93 506 115.5 518.5 Q138 531 168 540 Q198 549 237 549 Q275 549 305 540.5 Q335 532 357.5 519.5 Q380 507 395.5 492.5 Q411 478 419 467 L419 434 L371 434 Q357 460 322.5 480 Q288 500 237 500 Q190 500 159 483.5 Q128 467 111 448 L111 363 Q122 347 145.5 332.5 Q169 318 214 307 L278 291 Z " />
<glyph glyph-name="scommaaccent" unicode="&#x219;" horiz-adv-x="475" d="M237 549 Q275 549 305 540.5 Q335 532 357.5 519.5 Q380 507 395.5 492.5 Q411 478 419 467 L419 434 L371 434 Q357 460 322.5 480 Q288 500 237 500 Q190 500 159 483.5 Q128 467 111 448 L111 363 Q122 347 145.5 332.5 Q169 318 214 307 L278 291 Q342 276 378.5 253 Q415 230 429 207 L429 81 Q421 69 406 53 Q391 37 368 22.5 Q345 8 312.5 -2.5 Q280 -13 237 -13 Q195 -13 162.5 -2.5 Q130 8 107 23 Q84 38 69 54 Q54 70 46 81 L46 114 L94 114 Q110 83 146 59.5 Q182 36 237 36 Q264 36 286 42 Q308 48 325 57.5 Q342 67 354 78 Q366 89 374 100 L374 185 Q350 224 266 243 L200 259 Q135 274 101.5 298 Q68 322 56 341 L56 467 Q64 477 78.5 491.5 Q93 506 115.5 518.5 Q138 531 168 540 Q198 549 237 549 Z M243 -67 Q257 -67 266 -71 Q275 -75 277 -79 L277 -165 Q275 -173 264 -183.5 Q253 -194 233 -194 L213 -194 L213 -169 L228 -169 Q239 -169 243 -161 L243 -130 Q230 -130 221 -126.5 Q212 -123 210 -119 L210 -79 Q212 -75 221 -71 Q230 -67 243 -67 Z " />
<glyph glyph-name="germandbls" unicode="&#xdf;" horiz-adv-x="549" d="M274 713 Q315 713 348 703 Q381 693 406 677.5 Q431 662 448 643 Q465 624 475 607 L475 444 Q460 421 434.5 401.5 Q409 382 380 371 Q426 354 454 324 Q482 294 494 262 L494 117 Q465 52 411.5 26 Q358 0 272 0 L272 50 Q298 50 322 52 Q346 54 367.5 62.5 Q389 71 406.5 87.5 Q424 104 437 134 L437 249 Q426 275 409 293 Q392 311 371.5 322.5 Q351 334 328.5 339.5 Q306 345 284 345 L284 392 Q329 392 365 411 Q401 430 420 459 L420 586 Q401 619 364 642 Q327 665 274 665 Q246 665 223 658 Q200 651 182 640 Q164 629 151 615 Q138 601 130 586 L130 0 L73 0 L73 602 Q84 621 101.5 641 Q119 661 144 677 Q169 693 201 703 Q233 713 274 713 Z " />
<glyph glyph-name="tcaron" unicode="&#x165;" horiz-adv-x="366" d="M252 620 L252 636 L270 781 L320 781 L320 747 L290 620 L252 620 Z M278 40 Q294 40 308 41 Q322 42 330 44 L330 -1 Q322 -3 303.5 -5.5 Q285 -8 260 -8 Q218 -8 190 1.5 Q162 11 143.5 24.5 Q125 38 114.5 53.5 Q104 69 98 82 L98 490 L23 490 L23 536 L98 536 L98 651 L155 651 L155 536 L310 536 L310 490 L155 490 L155 103 Q159 95 166.5 84 Q174 73 188 63.5 Q202 54 223.5 47 Q245 40 278 40 Z " />
<glyph glyph-name="uni021B" unicode="&#x21b;" horiz-adv-x="346" d="M278 40 Q294 40 308 41 Q322 42 330 44 L330 -1 Q322 -3 303.5 -5.5 Q285 -8 260 -8 Q218 -8 190 1.5 Q162 11 143.5 24.5 Q125 38 114.5 53.5 Q104 69 98 82 L98 490 L23 490 L23 536 L98 536 L98 651 L155 651 L155 536 L310 536 L310 490 L155 490 L155 103 Q159 95 166.5 84 Q174 73 188 63.5 Q202 54 223.5 47 Q245 40 278 40 Z M216 -67 Q230 -67 239 -71 Q248 -75 250 -79 L250 -165 Q248 -173 237 -183.5 Q226 -194 206 -194 L186 -194 L186 -169 L201 -169 Q212 -169 216 -161 L216 -130 Q203 -130 194 -126.5 Q185 -123 183 -119 L183 -79 Q185 -75 194 -71 Q203 -67 216 -67 Z " />
<glyph glyph-name="tbar" unicode="&#x167;" horiz-adv-x="346" d="M278 40 Q294 40 308 41 Q322 42 330 44 L330 -1 Q322 -3 303.5 -5.5 Q285 -8 260 -8 Q218 -8 190 1.5 Q162 11 143.5 24.5 Q125 38 114.5 53.5 Q104 69 98 82 L98 267 L23 267 L23 313 L98 313 L98 490 L23 490 L23 536 L98 536 L98 651 L155 651 L155 536 L310 536 L310 490 L155 490 L155 313 L310 313 L310 267 L155 267 L155 103 Q159 95 166.5 84 Q174 73 188 63.5 Q202 54 223.5 47 Q245 40 278 40 Z " />
<glyph glyph-name="ugrave" unicode="&#xf9;" horiz-adv-x="540" d="M468 0 L413 0 L413 48 Q388 24 348.5 6 Q309 -12 252 -12 Q209 -12 177.5 -1 Q146 10 124 25.5 Q102 41 88.5 58 Q75 75 68 87 L68 536 L125 536 L125 104 Q131 95 142 83.5 Q153 72 169.5 61.5 Q186 51 208.5 44 Q231 37 262 37 Q319 37 354.5 56.5 Q390 76 410 100 L410 536 L468 536 L468 0 Z M293 607 L251 607 L170 731 L170 762 L222 762 L293 622 L293 607 Z " />
<glyph glyph-name="uacute" unicode="&#xfa;" horiz-adv-x="540" d="M468 0 L413 0 L413 48 Q388 24 348.5 6 Q309 -12 252 -12 Q209 -12 177.5 -1 Q146 10 124 25.5 Q102 41 88.5 58 Q75 75 68 87 L68 536 L125 536 L125 104 Q131 95 142 83.5 Q153 72 169.5 61.5 Q186 51 208.5 44 Q231 37 262 37 Q319 37 354.5 56.5 Q390 76 410 100 L410 536 L468 536 L468 0 Z M292 607 L250 607 L250 622 L321 762 L373 762 L373 731 L292 607 Z " />
<glyph glyph-name="ucircumflex" unicode="&#xfb;" horiz-adv-x="540" d="M468 0 L413 0 L413 48 Q388 24 348.5 6 Q309 -12 252 -12 Q209 -12 177.5 -1 Q146 10 124 25.5 Q102 41 88.5 58 Q75 75 68 87 L68 536 L125 536 L125 104 Q131 95 142 83.5 Q153 72 169.5 61.5 Q186 51 208.5 44 Q231 37 262 37 Q319 37 354.5 56.5 Q390 76 410 100 L410 536 L468 536 L468 0 Z M404 606 L365 606 L270 729 L176 606 L137 606 L137 622 L232 761 L309 761 L404 622 L404 606 Z " />
<glyph glyph-name="utilde" unicode="&#x169;" horiz-adv-x="540" d="M468 0 L413 0 L413 48 Q388 24 348.5 6 Q309 -12 252 -12 Q209 -12 177.5 -1 Q146 10 124 25.5 Q102 41 88.5 58 Q75 75 68 87 L68 536 L125 536 L125 104 Q131 95 142 83.5 Q153 72 169.5 61.5 Q186 51 208.5 44 Q231 37 262 37 Q319 37 354.5 56.5 Q390 76 410 100 L410 536 L468 536 L468 0 Z M202 725 Q225 725 243 716.5 Q261 708 276 697.5 Q291 687 305 678.5 Q319 670 336 670 Q353 670 364.5 679 Q376 688 381 701 L381 719 L421 719 L421 685 Q414 662 393 645 Q372 628 339 628 Q316 628 298.5 636.5 Q281 645 266 655.5 Q251 666 236.5 674.5 Q222 683 206 683 Q189 683 176 673 Q163 663 160 654 L160 634 L120 634 L120 669 Q142 725 202 725 Z " />
<glyph glyph-name="udieresis" unicode="&#xfc;" horiz-adv-x="540" d="M468 0 L413 0 L413 48 Q388 24 348.5 6 Q309 -12 252 -12 Q209 -12 177.5 -1 Q146 10 124 25.5 Q102 41 88.5 58 Q75 75 68 87 L68 536 L125 536 L125 104 Q131 95 142 83.5 Q153 72 169.5 61.5 Q186 51 208.5 44 Q231 37 262 37 Q319 37 354.5 56.5 Q390 76 410 100 L410 536 L468 536 L468 0 Z M174 714 Q190 714 199 709 Q208 704 211 700 L211 650 Q208 646 199 641 Q190 636 174 636 Q159 636 149.5 641 Q140 646 137 650 L137 700 Q140 704 149.5 709 Q159 714 174 714 Z M365 714 Q380 714 389.5 709 Q399 704 402 700 L402 650 Q399 646 389.5 641 Q380 636 365 636 Q350 636 340.5 641 Q331 646 328 650 L328 700 Q331 704 340.5 709 Q350 714 365 714 Z " />
<glyph glyph-name="umacron" unicode="&#x16b;" horiz-adv-x="540" d="M468 0 L413 0 L413 48 Q388 24 348.5 6 Q309 -12 252 -12 Q209 -12 177.5 -1 Q146 10 124 25.5 Q102 41 88.5 58 Q75 75 68 87 L68 536 L125 536 L125 104 Q131 95 142 83.5 Q153 72 169.5 61.5 Q186 51 208.5 44 Q231 37 262 37 Q319 37 354.5 56.5 Q390 76 410 100 L410 536 L468 536 L468 0 Z M122 662 L122 707 L418 707 L418 662 L122 662 Z " />
<glyph glyph-name="ubreve" unicode="&#x16d;" horiz-adv-x="540" d="M468 0 L413 0 L413 48 Q388 24 348.5 6 Q309 -12 252 -12 Q209 -12 177.5 -1 Q146 10 124 25.5 Q102 41 88.5 58 Q75 75 68 87 L68 536 L125 536 L125 104 Q131 95 142 83.5 Q153 72 169.5 61.5 Q186 51 208.5 44 Q231 37 262 37 Q319 37 354.5 56.5 Q390 76 410 100 L410 536 L468 536 L468 0 Z M400 679 Q395 668 385 656 Q375 644 359.5 633.5 Q344 623 322 616.5 Q300 610 270 610 Q240 610 218.5 616.5 Q197 623 181 633.5 Q165 644 155.5 656 Q146 668 140 679 L140 728 L187 728 L187 693 Q189 688 194.5 680.5 Q200 673 210 666 Q220 659 234.5 654 Q249 649 270 649 Q291 649 305.5 654 Q320 659 330 666 Q340 673 345.5 680.5 Q351 688 353 693 L353 728 L400 728 L400 679 Z " />
<glyph glyph-name="uring" unicode="&#x16f;" horiz-adv-x="540" d="M468 0 L413 0 L413 48 Q388 24 348.5 6 Q309 -12 252 -12 Q209 -12 177.5 -1 Q146 10 124 25.5 Q102 41 88.5 58 Q75 75 68 87 L68 536 L125 536 L125 104 Q131 95 142 83.5 Q153 72 169.5 61.5 Q186 51 208.5 44 Q231 37 262 37 Q319 37 354.5 56.5 Q390 76 410 100 L410 536 L468 536 L468 0 Z M269 781 Q305 781 331 766.5 Q357 752 367 732 L367 649 Q357 630 331 615 Q305 600 269 600 Q234 600 208 615 Q182 630 172 649 L172 732 Q182 752 208 766.5 Q234 781 269 781 Z M269 747 Q244 747 230 738 Q216 729 210 721 L210 661 Q216 652 230 643 Q244 634 269 634 Q294 634 308.5 643 Q323 652 329 661 L329 721 Q323 729 308.5 738 Q294 747 269 747 Z " />
<glyph glyph-name="uhungarumlaut" unicode="&#x171;" horiz-adv-x="540" d="M468 0 L413 0 L413 48 Q388 24 348.5 6 Q309 -12 252 -12 Q209 -12 177.5 -1 Q146 10 124 25.5 Q102 41 88.5 58 Q75 75 68 87 L68 536 L125 536 L125 104 Q131 95 142 83.5 Q153 72 169.5 61.5 Q186 51 208.5 44 Q231 37 262 37 Q319 37 354.5 56.5 Q390 76 410 100 L410 536 L468 536 L468 0 Z M200 604 L162 604 L162 620 L214 759 L260 759 L260 731 L200 604 Z M368 604 L331 604 L331 620 L383 759 L429 759 L429 731 L368 604 Z " />
<glyph glyph-name="uogonek" unicode="&#x173;" horiz-adv-x="540" d="M468 0 Q415 -40 389.5 -68.5 Q364 -97 359 -107 L359 -145 Q364 -153 378 -160.5 Q392 -168 411 -168 Q428 -168 441 -165.5 Q454 -163 468 -156 L468 -196 Q454 -203 440 -206.5 Q426 -210 403 -210 Q371 -210 346.5 -197.5 Q322 -185 313 -165 L313 -100 Q321 -83 344.5 -55.5 Q368 -28 413 4 L413 48 Q388 24 348.5 6 Q309 -12 252 -12 Q209 -12 177.5 -1 Q146 10 124 25.5 Q102 41 88.5 58 Q75 75 68 87 L68 536 L125 536 L125 104 Q131 95 142 83.5 Q153 72 169.5 61.5 Q186 51 208.5 44 Q231 37 262 37 Q319 37 354.5 56.5 Q390 76 410 100 L410 536 L468 536 L468 0 Z " />
<glyph glyph-name="wgrave" unicode="&#x1e81;" horiz-adv-x="765" d="M595 0 L521 0 L386 462 L383 462 L246 0 L172 0 L42 496 L42 536 L90 536 L211 59 L214 59 L353 536 L418 536 L556 59 L559 59 L679 536 L725 536 L725 496 L595 0 Z M405 607 L363 607 L282 731 L282 762 L334 762 L405 622 L405 607 Z " />
<glyph glyph-name="wacute" unicode="&#x1e83;" horiz-adv-x="765" d="M595 0 L521 0 L386 462 L383 462 L246 0 L172 0 L42 496 L42 536 L90 536 L211 59 L214 59 L353 536 L418 536 L556 59 L559 59 L679 536 L725 536 L725 496 L595 0 Z M405 607 L363 607 L363 622 L434 762 L486 762 L486 731 L405 607 Z " />
<glyph glyph-name="wcircumflex" unicode="&#x175;" horiz-adv-x="765" d="M595 0 L521 0 L386 462 L383 462 L246 0 L172 0 L42 496 L42 536 L90 536 L211 59 L214 59 L353 536 L418 536 L556 59 L559 59 L679 536 L725 536 L725 496 L595 0 Z M516 606 L477 606 L382 729 L288 606 L249 606 L249 622 L344 761 L421 761 L516 622 L516 606 Z " />
<glyph glyph-name="wdieresis" unicode="&#x1e85;" horiz-adv-x="765" d="M595 0 L521 0 L386 462 L383 462 L246 0 L172 0 L42 496 L42 536 L90 536 L211 59 L214 59 L353 536 L418 536 L556 59 L559 59 L679 536 L725 536 L725 496 L595 0 Z M286 714 Q302 714 311 709 Q320 704 323 700 L323 650 Q320 646 311 641 Q302 636 286 636 Q271 636 261.5 641 Q252 646 249 650 L249 700 Q252 704 261.5 709 Q271 714 286 714 Z M477 714 Q492 714 501.5 709 Q511 704 514 700 L514 650 Q511 646 501.5 641 Q492 636 477 636 Q462 636 452.5 641 Q443 646 440 650 L440 700 Q443 704 452.5 709 Q462 714 477 714 Z " />
<glyph glyph-name="ygrave" unicode="&#x1ef3;" horiz-adv-x="497" d="M258 67 L417 536 L462 536 L462 497 L256 -98 Q230 -137 186 -154.5 Q142 -172 94 -172 Q76 -172 62.5 -171 Q49 -170 44 -168 L44 -122 Q54 -124 63 -124 Q72 -124 81 -124 Q131 -124 160.5 -109 Q190 -94 207 -71 L228 -8 L44 495 L44 536 L91 536 L255 67 L258 67 Z M271 607 L229 607 L148 731 L148 762 L200 762 L271 622 L271 607 Z " />
<glyph glyph-name="yacute" unicode="&#xfd;" horiz-adv-x="497" d="M258 67 L417 536 L462 536 L462 497 L256 -98 Q230 -137 186 -154.5 Q142 -172 94 -172 Q76 -172 62.5 -171 Q49 -170 44 -168 L44 -122 Q54 -124 63 -124 Q72 -124 81 -124 Q131 -124 160.5 -109 Q190 -94 207 -71 L228 -8 L44 495 L44 536 L91 536 L255 67 L258 67 Z M271 607 L229 607 L229 622 L300 762 L352 762 L352 731 L271 607 Z " />
<glyph glyph-name="ycircumflex" unicode="&#x177;" horiz-adv-x="497" d="M258 67 L417 536 L462 536 L462 497 L256 -98 Q230 -137 186 -154.5 Q142 -172 94 -172 Q76 -172 62.5 -171 Q49 -170 44 -168 L44 -122 Q54 -124 63 -124 Q72 -124 81 -124 Q131 -124 160.5 -109 Q190 -94 207 -71 L228 -8 L44 495 L44 536 L91 536 L255 67 L258 67 Z M382 606 L343 606 L248 729 L154 606 L115 606 L115 622 L210 761 L287 761 L382 622 L382 606 Z " />
<glyph glyph-name="ydieresis" unicode="&#xff;" horiz-adv-x="497" d="M258 67 L417 536 L462 536 L462 497 L256 -98 Q230 -137 186 -154.5 Q142 -172 94 -172 Q76 -172 62.5 -171 Q49 -170 44 -168 L44 -122 Q54 -124 63 -124 Q72 -124 81 -124 Q131 -124 160.5 -109 Q190 -94 207 -71 L228 -8 L44 495 L44 536 L91 536 L255 67 L258 67 Z M153 714 Q169 714 178 709 Q187 704 190 700 L190 650 Q187 646 178 641 Q169 636 153 636 Q138 636 128.5 641 Q119 646 116 650 L116 700 Q119 704 128.5 709 Q138 714 153 714 Z M344 714 Q359 714 368.5 709 Q378 704 381 700 L381 650 Q378 646 368.5 641 Q359 636 344 636 Q329 636 319.5 641 Q310 646 307 650 L307 700 Q310 704 319.5 709 Q329 714 344 714 Z " />
<glyph glyph-name="zacute" unicode="&#x17a;" horiz-adv-x="463" d="M100 46 L431 46 L431 0 L33 0 L33 43 L361 490 L42 490 L42 536 L431 536 L431 495 L100 46 Z M252 607 L210 607 L210 622 L281 762 L333 762 L333 731 L252 607 Z " />
<glyph glyph-name="zcaron" unicode="&#x17e;" horiz-adv-x="463" d="M100 46 L431 46 L431 0 L33 0 L33 43 L361 490 L42 490 L42 536 L431 536 L431 495 L100 46 Z M268 606 L191 606 L96 745 L96 761 L135 761 L229 639 L324 761 L363 761 L363 745 L268 606 Z " />
<glyph glyph-name="zdotaccent" unicode="&#x17c;" horiz-adv-x="463" d="M100 46 L431 46 L431 0 L33 0 L33 43 L361 490 L42 490 L42 536 L431 536 L431 495 L100 46 Z M229 715 Q245 715 254.5 709.5 Q264 704 267 698 L267 656 Q264 650 254.5 644.5 Q245 639 229 639 Q215 639 205 644.5 Q195 650 192 656 L192 698 Q195 704 205 709.5 Q215 715 229 715 Z " />
<glyph glyph-name="eng" unicode="&#x14b;" horiz-adv-x="550" d="M294 548 Q337 548 369 536.5 Q401 525 423.5 508.5 Q446 492 460 474 Q474 456 481 443 L481 -43 Q472 -64 455.5 -87 Q439 -110 413 -129 Q387 -148 352 -160.5 Q317 -173 271 -173 L271 -124 Q301 -124 326 -116 Q351 -108 370 -94.5 Q389 -81 402.5 -63.5 Q416 -46 424 -27 L424 428 Q418 438 406.5 450.5 Q395 463 378 473.5 Q361 484 337.5 491.5 Q314 499 283 499 Q228 499 189.5 479 Q151 459 130 433 L130 0 L73 0 L73 536 L128 536 L128 485 Q153 511 193.5 529.5 Q234 548 294 548 Z " />
<glyph glyph-name="eth" unicode="&#xf0;" horiz-adv-x="541" d="M407 606 Q433 582 452.5 557.5 Q472 533 482 508 L482 117 Q473 96 456.5 73 Q440 50 414 31 Q388 12 353 -0.5 Q318 -13 272 -13 Q226 -13 190.5 -0.5 Q155 12 129 31 Q103 50 86.5 73 Q70 96 61 117 L61 362 Q69 384 85 406.5 Q101 429 126.5 448 Q152 467 186 479 Q220 491 264 491 Q323 491 361 471 Q399 451 425 425 L425 493 Q414 518 394.5 541.5 Q375 565 349 587 L184 533 L184 575 L310 616 Q273 641 231.5 661 Q190 681 149 695 L185 730 Q233 714 281 689.5 Q329 665 370 635 L482 672 L482 630 L407 606 Z M425 357 Q416 373 402 388 Q388 403 369 415 Q350 427 326 434.5 Q302 442 272 442 Q211 442 172 413.5 Q133 385 118 348 L118 131 Q133 94 171.5 65 Q210 36 271 36 Q302 36 327 44 Q352 52 371.5 65 Q391 78 404 95.5 Q417 113 425 131 L425 357 Z " />
<glyph glyph-name="thorn" unicode="&#xfe;" horiz-adv-x="540" d="M293 548 Q337 548 369 536.5 Q401 525 423.5 508.5 Q446 492 460 474 Q474 456 481 443 L481 93 Q474 80 460 62 Q446 44 423.5 27.5 Q401 11 369 -0.5 Q337 -12 293 -12 Q235 -12 195 6 Q155 24 130 49 L130 -166 L73 -166 L73 700 L130 700 L130 487 Q155 512 195 530 Q235 548 293 548 Z M423 428 Q417 438 406 450.5 Q395 463 378 473.5 Q361 484 337.5 491.5 Q314 499 283 499 Q228 499 189.5 479.5 Q151 460 130 433 L130 103 Q151 76 189.5 56.5 Q228 37 283 37 Q314 37 337.5 44.5 Q361 52 378 62.5 Q395 73 406 85.5 Q417 98 423 108 L423 428 Z " />
<glyph glyph-name="longs" unicode="&#x17f;" horiz-adv-x="321" d="M234 713 Q258 713 277.5 710.5 Q297 708 304 706 L304 661 Q296 663 282 664 Q268 665 252 665 Q219 665 197.5 658 Q176 651 162 641.5 Q148 632 141 621 Q134 610 130 602 L130 0 L72 0 L72 623 Q78 636 88.5 651.5 Q99 667 117.5 680.5 Q136 694 164 703.5 Q192 713 234 713 Z " />
<glyph glyph-name="fi" unicode="&#xfb01;" horiz-adv-x="546" d="M260 717 Q284 717 303.5 714 Q323 711 330 709 L330 665 Q322 666 308 667 Q294 668 278 668 Q245 668 223 661 Q201 654 187 644.5 Q173 635 166 624 Q159 613 155 605 L155 536 L310 536 L310 490 L155 490 L155 0 L98 0 L98 490 L23 490 L23 536 L98 536 L98 626 Q104 639 114.5 654.5 Q125 670 143.5 684 Q162 698 190 707.5 Q218 717 260 717 Z M412 0 L412 536 L469 536 L469 0 L412 0 Z M440 715 Q456 715 465.5 709.5 Q475 704 478 698 L478 656 Q475 650 465.5 644.5 Q456 639 440 639 Q426 639 416 644.5 Q406 650 403 656 L403 698 Q406 704 416 709.5 Q426 715 440 715 Z " />
<glyph glyph-name="fl" unicode="&#xfb02;" horiz-adv-x="538" d="M260 717 Q284 717 303.5 714 Q323 711 330 709 L330 665 Q322 666 308 667 Q294 668 278 668 Q245 668 223 661 Q201 654 187 644.5 Q173 635 166 624 Q159 613 155 605 L155 536 L310 536 L310 490 L155 490 L155 0 L98 0 L98 490 L23 490 L23 536 L98 536 L98 626 Q104 639 114.5 654.5 Q125 670 143.5 684 Q162 698 190 707.5 Q218 717 260 717 Z M408 0 L408 700 L465 700 L465 0 L408 0 Z " />
<glyph glyph-name="ampersand" unicode="&#x26;" horiz-adv-x="657" d="M642 0 L611 0 L519 89 Q502 69 481 50.5 Q460 32 433.5 18 Q407 4 374 -4.5 Q341 -13 302 -13 Q253 -13 214 -1.5 Q175 10 146 28 Q117 46 97.5 69.5 Q78 93 68 117 L68 269 Q89 312 126 342 Q163 372 214 386 L191 409 Q169 431 151.5 451 Q134 471 123 488 L123 623 Q130 633 145.5 648.5 Q161 664 185.5 678 Q210 692 243 702 Q276 712 317 712 Q358 712 391 702 Q424 692 448 678 Q472 664 488 649 Q504 634 512 623 L512 588 L463 588 Q457 600 444.5 613.5 Q432 627 414 638.5 Q396 650 371.5 657 Q347 664 317 664 Q291 664 269.5 658.5 Q248 653 231 644.5 Q214 636 201.5 626 Q189 616 181 608 L181 506 Q188 491 203 473.5 Q218 456 233 442 L492 189 L492 363 L545 363 L545 138 L642 43 L642 0 Z M302 36 Q363 36 407 61.5 Q451 87 480 128 L253 349 Q209 340 174.5 315.5 Q140 291 126 256 L126 133 Q146 87 192.5 61.5 Q239 36 302 36 Z " />
<glyph glyph-name="grave" unicode="&#x60;" horiz-adv-x="415" d="M269 607 L227 607 L146 731 L146 762 L198 762 L269 622 L269 607 Z " />
<glyph glyph-name="acute" unicode="&#xb4;" horiz-adv-x="415" d="M188 607 L146 607 L146 622 L217 762 L269 762 L269 731 L188 607 Z " />
<glyph glyph-name="circumflex" unicode="&#x2c6;" horiz-adv-x="415" d="M341 606 L302 606 L207 729 L113 606 L74 606 L74 622 L169 761 L246 761 L341 622 L341 606 Z " />
<glyph glyph-name="caron" unicode="&#x2c7;" horiz-adv-x="415" d="M246 606 L169 606 L74 745 L74 761 L113 761 L207 639 L302 761 L341 761 L341 745 L246 606 Z " />
<glyph glyph-name="tilde" unicode="&#x2dc;" horiz-adv-x="415" d="M139 725 Q162 725 180 716.5 Q198 708 213 697.5 Q228 687 242 678.5 Q256 670 273 670 Q290 670 301.5 679 Q313 688 318 701 L318 719 L358 719 L358 685 Q351 662 330 645 Q309 628 276 628 Q253 628 235.5 636.5 Q218 645 203 655.5 Q188 666 173.5 674.5 Q159 683 143 683 Q126 683 113 673 Q100 663 97 654 L97 634 L57 634 L57 669 Q79 725 139 725 Z " />
<glyph glyph-name="dieresis" unicode="&#xa8;" horiz-adv-x="415" d="M113 714 Q129 714 138 709 Q147 704 150 700 L150 650 Q147 646 138 641 Q129 636 113 636 Q98 636 88.5 641 Q79 646 76 650 L76 700 Q79 704 88.5 709 Q98 714 113 714 Z M304 714 Q319 714 328.5 709 Q338 704 341 700 L341 650 Q338 646 328.5 641 Q319 636 304 636 Q289 636 279.5 641 Q270 646 267 650 L267 700 Q270 704 279.5 709 Q289 714 304 714 Z " />
<glyph glyph-name="breve" unicode="&#x2d8;" horiz-adv-x="415" d="M337 679 Q332 668 322 656 Q312 644 296.5 633.5 Q281 623 259 616.5 Q237 610 207 610 Q177 610 155.5 616.5 Q134 623 118 633.5 Q102 644 92.5 656 Q83 668 77 679 L77 728 L124 728 L124 693 Q126 688 131.5 680.5 Q137 673 147 666 Q157 659 171.5 654 Q186 649 207 649 Q228 649 242.5 654 Q257 659 267 666 Q277 673 282.5 680.5 Q288 688 290 693 L290 728 L337 728 L337 679 Z " />
<glyph glyph-name="ring" unicode="&#x2da;" horiz-adv-x="415" d="M207 781 Q243 781 269 766.5 Q295 752 305 732 L305 649 Q295 630 269 615 Q243 600 207 600 Q172 600 146 615 Q120 630 110 649 L110 732 Q120 752 146 766.5 Q172 781 207 781 Z M207 747 Q182 747 168 738 Q154 729 148 721 L148 661 Q154 652 168 643 Q182 634 207 634 Q232 634 246.5 643 Q261 652 267 661 L267 721 Q261 729 246.5 738 Q232 747 207 747 Z " />
<glyph glyph-name="hungarumlaut" unicode="&#x2dd;" horiz-adv-x="415" d="M113 604 L75 604 L75 620 L127 759 L173 759 L173 731 L113 604 Z M281 604 L244 604 L244 620 L296 759 L342 759 L342 731 L281 604 Z " />
<glyph glyph-name="dotaccent" unicode="&#x2d9;" horiz-adv-x="415" d="M207 715 Q223 715 232.5 709.5 Q242 704 245 698 L245 656 Q242 650 232.5 644.5 Q223 639 207 639 Q193 639 183 644.5 Q173 650 170 656 L170 698 Q173 704 183 709.5 Q193 715 207 715 Z " />
<glyph glyph-name="cedilla" unicode="&#xb8;" horiz-adv-x="415" d="M222 -58 Q255 -58 275 -72 Q295 -86 303 -102 L303 -170 Q294 -188 271.5 -202.5 Q249 -217 214 -217 Q185 -217 161 -210 Q137 -203 121 -192 L133 -159 Q149 -168 168 -174.5 Q187 -181 211 -181 Q233 -181 245 -173 Q257 -165 261 -156 L261 -115 Q257 -106 244.5 -98 Q232 -90 211 -90 L153 -90 L186 6 L228 6 L204 -58 L222 -58 Z " />
<glyph glyph-name="ogonek" unicode="&#x2db;" horiz-adv-x="415" d="M294 0 Q241 -43 222 -70.5 Q203 -98 199 -107 L199 -145 Q203 -153 217.5 -160.5 Q232 -168 251 -168 Q268 -168 281 -165.5 Q294 -163 308 -156 L308 -196 Q294 -203 280 -206.5 Q266 -210 243 -210 Q211 -210 186.5 -197.5 Q162 -185 153 -165 L153 -100 Q162 -81 186 -51 Q210 -21 261 15 L294 0 Z " />
<glyph glyph-name="comma" unicode="&#x2c;" horiz-adv-x="164" d="M82 72 Q96 72 106.5 66.5 Q117 61 119 55 L119 -66 Q117 -74 103.5 -87 Q90 -100 69 -100 L50 -100 L50 -71 L65 -71 Q75 -71 82 -60 L82 -11 Q68 -11 57.5 -5 Q47 1 44 6 L44 55 Q47 61 57.5 66.5 Q68 72 82 72 Z " />
<glyph glyph-name="semicolon" unicode="&#x3b;" horiz-adv-x="182" d="M91 72 Q105 72 115.5 66.5 Q126 61 128 55 L128 -66 Q126 -74 112.5 -87 Q99 -100 78 -100 L59 -100 L59 -71 L74 -71 Q84 -71 91 -60 L91 -11 Q77 -11 66.5 -5 Q56 1 53 6 L53 55 Q56 61 66.5 66.5 Q77 72 91 72 Z M91 487 Q106 487 116 481.5 Q126 476 128 470 L128 425 Q126 420 116 414 Q106 408 91 408 Q76 408 66 414 Q56 420 53 425 L53 470 Q56 476 66 481.5 Q76 487 91 487 Z " />
<glyph glyph-name="colon" unicode="&#x3a;" horiz-adv-x="182" d="M91 72 Q106 72 116 66.5 Q126 61 128 55 L128 10 Q126 5 116 -1 Q106 -7 91 -7 Q76 -7 66 -1 Q56 5 53 10 L53 55 Q56 61 66 66.5 Q76 72 91 72 Z M91 487 Q106 487 116 481.5 Q126 476 128 470 L128 425 Q126 420 116 414 Q106 408 91 408 Q76 408 66 414 Q56 420 53 425 L53 470 Q56 476 66 481.5 Q76 487 91 487 Z " />
<glyph glyph-name="period" unicode="&#x2e;" horiz-adv-x="164" d="M82 72 Q97 72 107 66.5 Q117 61 119 55 L119 10 Q117 5 107 -1 Q97 -7 82 -7 Q67 -7 57 -1 Q47 5 44 10 L44 55 Q47 61 57 66.5 Q67 72 82 72 Z " />
<glyph glyph-name="ellipsis" unicode="&#x2026;" horiz-adv-x="488" d="M82 69 Q97 69 107 63.5 Q117 58 119 52 L119 10 Q117 5 107 -1 Q97 -7 82 -7 Q67 -7 57 -1 Q47 5 44 10 L44 52 Q47 58 57 63.5 Q67 69 82 69 Z M244 69 Q259 69 269 63.5 Q279 58 282 52 L282 10 Q279 5 269 -1 Q259 -7 244 -7 Q229 -7 219 -1 Q209 5 207 10 L207 52 Q209 58 219 63.5 Q229 69 244 69 Z M406 69 Q421 69 431 63.5 Q441 58 443 52 L443 10 Q441 5 431 -1 Q421 -7 406 -7 Q391 -7 381 -1 Q371 5 368 10 L368 52 Q371 58 381 63.5 Q391 69 406 69 Z " />
<glyph glyph-name="hyphen" unicode="&#x2d;" horiz-adv-x="362" d="M46 315 L46 364 L315 364 L315 315 L46 315 Z " />
<glyph glyph-name="exclam" unicode="&#x21;" horiz-adv-x="258" d="M154 143 L104 143 L96 606 L96 700 L162 700 L162 606 L154 143 Z M129 70 Q144 70 154 64.5 Q164 59 166 53 L166 10 Q164 5 154 -1 Q144 -7 129 -7 Q114 -7 104 -1 Q94 5 91 10 L91 53 Q94 59 104 64.5 Q114 70 129 70 Z " />
<glyph glyph-name="exclamdown" unicode="&#xa1;" horiz-adv-x="258" d="M104 398 L154 398 L162 -65 L162 -159 L96 -159 L96 -65 L104 398 Z M129 471 Q114 471 104 476.5 Q94 482 92 488 L92 531 Q94 536 104 542 Q114 548 129 548 Q144 548 154 542 Q164 536 167 531 L167 488 Q164 482 154 476.5 Q144 471 129 471 Z " />
<glyph glyph-name="question" unicode="&#x3f;" horiz-adv-x="522" d="M259 713 Q306 713 342.5 702.5 Q379 692 406 675.5 Q433 659 451.5 639.5 Q470 620 481 603 L481 435 Q470 413 445.5 392.5 Q421 372 400 356 L242 239 L242 151 L182 151 L182 266 L349 388 Q369 402 390.5 420.5 Q412 439 421 456 L421 585 Q410 599 394.5 613 Q379 627 359 638 Q339 649 314 655.5 Q289 662 259 662 Q227 662 199.5 654 Q172 646 151 633 Q130 620 114.5 603 Q99 586 91 569 L40 569 L40 607 Q52 624 70.5 642.5 Q89 661 115.5 677 Q142 693 177.5 703 Q213 713 259 713 Z M212 72 Q227 72 237 66.5 Q247 61 249 55 L249 10 Q247 5 237 -1 Q227 -7 212 -7 Q197 -7 187 -1 Q177 5 174 10 L174 55 Q177 61 187 66.5 Q197 72 212 72 Z " />
<glyph glyph-name="questiondown" unicode="&#xbf;" horiz-adv-x="522" d="M263 -171 Q216 -171 179.5 -160.5 Q143 -150 116 -133.5 Q89 -117 70.5 -97.5 Q52 -78 41 -61 L41 107 Q52 129 76.5 149.5 Q101 170 122 186 L280 303 L280 391 L340 391 L340 276 L173 154 Q153 140 131.5 121.5 Q110 103 101 86 L101 -43 Q112 -57 127.5 -71 Q143 -85 163 -96 Q183 -107 208 -113.5 Q233 -120 263 -120 Q295 -120 322.5 -112 Q350 -104 371 -91 Q392 -78 407.5 -61 Q423 -44 431 -27 L482 -27 L482 -65 Q470 -82 451.5 -100.5 Q433 -119 406.5 -135 Q380 -151 344.5 -161 Q309 -171 263 -171 Z M310 470 Q295 470 285 475.5 Q275 481 273 487 L273 532 Q275 537 285 543 Q295 549 310 549 Q325 549 335 543 Q345 537 348 532 L348 487 Q345 481 335 475.5 Q325 470 310 470 Z " />
<glyph glyph-name="quoteleft" unicode="&#x2018;" horiz-adv-x="167" d="M84 537 Q70 537 59.5 542.5 Q49 548 47 554 L47 675 Q49 683 62.5 696 Q76 709 97 709 L116 709 L116 680 L101 680 Q91 680 84 669 L84 620 Q98 620 108.5 614 Q119 608 122 603 L122 554 Q119 548 108.5 542.5 Q98 537 84 537 Z " />
<glyph glyph-name="quoteright" unicode="&#x2019;" horiz-adv-x="167" d="M84 714 Q98 714 108.5 708.5 Q119 703 121 697 L121 576 Q119 568 105.5 555 Q92 542 71 542 L52 542 L52 571 L67 571 Q77 571 84 582 L84 631 Q70 631 59.5 637 Q49 643 46 648 L46 697 Q49 703 59.5 708.5 Q70 714 84 714 Z " />
<glyph glyph-name="quotedblleft" unicode="&#x201c;" horiz-adv-x="324" d="M84 538 Q70 538 59.5 543.5 Q49 549 47 555 L47 676 Q49 684 62.5 697 Q76 710 97 710 L116 710 L116 681 L101 681 Q91 681 84 670 L84 621 Q98 621 108.5 615 Q119 609 122 604 L122 555 Q119 549 108.5 543.5 Q98 538 84 538 Z M241 538 Q227 538 216.5 543.5 Q206 549 204 555 L204 676 Q206 684 219.5 697 Q233 710 254 710 L273 710 L273 681 L258 681 Q248 681 241 670 L241 621 Q255 621 265.5 615 Q276 609 279 604 L279 555 Q276 549 265.5 543.5 Q255 538 241 538 Z " />
<glyph glyph-name="quotedblright" unicode="&#x201d;" horiz-adv-x="324" d="M84 713 Q98 713 108.5 707.5 Q119 702 121 696 L121 575 Q119 567 105.5 554 Q92 541 71 541 L52 541 L52 570 L67 570 Q77 570 84 581 L84 630 Q70 630 59.5 636 Q49 642 46 647 L46 696 Q49 702 59.5 707.5 Q70 713 84 713 Z M241 713 Q255 713 265.5 707.5 Q276 702 278 696 L278 575 Q276 567 262.5 554 Q249 541 228 541 L209 541 L209 570 L224 570 Q234 570 241 581 L241 630 Q227 630 216.5 636 Q206 642 203 647 L203 696 Q206 702 216.5 707.5 Q227 713 241 713 Z " />
<glyph glyph-name="quotesinglbase" unicode="&#x201a;" horiz-adv-x="167" d="M84 72 Q98 72 108.5 66.5 Q119 61 121 55 L121 -66 Q119 -74 105.5 -87 Q92 -100 71 -100 L52 -100 L52 -71 L67 -71 Q77 -71 84 -60 L84 -11 Q70 -11 59.5 -5 Q49 1 46 6 L46 55 Q49 61 59.5 66.5 Q70 72 84 72 Z " />
<glyph glyph-name="quotedblbase" unicode="&#x201e;" horiz-adv-x="326" d="M84 72 Q98 72 108.5 66.5 Q119 61 121 55 L121 -66 Q119 -74 105.5 -87 Q92 -100 71 -100 L52 -100 L52 -71 L67 -71 Q77 -71 84 -60 L84 -11 Q70 -11 59.5 -5 Q49 1 46 6 L46 55 Q49 61 59.5 66.5 Q70 72 84 72 Z M242 72 Q256 72 266.5 66.5 Q277 61 279 55 L279 -66 Q277 -74 263.5 -87 Q250 -100 229 -100 L210 -100 L210 -71 L225 -71 Q235 -71 242 -60 L242 -11 Q228 -11 217.5 -5 Q207 1 204 6 L204 55 Q207 61 217.5 66.5 Q228 72 242 72 Z " />
<glyph glyph-name="guilsinglleft" unicode="&#x2039;" horiz-adv-x="328" d="M97 299 L274 94 L274 61 L232 61 L46 279 L46 318 L232 536 L274 536 L274 503 L97 299 Z " />
<glyph glyph-name="guilsinglright" unicode="&#x203a;" horiz-adv-x="328" d="M282 279 L96 61 L55 61 L55 94 L231 299 L55 503 L55 536 L96 536 L282 318 L282 279 Z " />
<glyph glyph-name="guillemotleft" unicode="&#xab;" horiz-adv-x="575" d="M97 298 L274 94 L274 61 L232 61 L46 279 L46 319 L232 536 L274 536 L274 503 L97 298 Z M344 298 L521 94 L521 61 L479 61 L293 279 L293 319 L479 536 L521 536 L521 503 L344 298 Z " />
<glyph glyph-name="guillemotright" unicode="&#xbb;" horiz-adv-x="575" d="M282 279 L97 61 L55 61 L55 94 L231 298 L55 503 L55 536 L97 536 L282 319 L282 279 Z M529 279 L344 61 L301 61 L301 94 L478 298 L301 503 L301 536 L344 536 L529 319 L529 279 Z " />
<glyph glyph-name="slash" unicode="&#x2f;" horiz-adv-x="379" d="M104 -110 L55 -110 L55 -77 L275 731 L324 731 L324 698 L104 -110 Z " />
<glyph glyph-name="bar" unicode="&#x7c;" horiz-adv-x="326" d="M133 -130 L133 790 L193 790 L193 -130 L133 -130 Z " />
<glyph glyph-name="endash" unicode="&#x2013;" horiz-adv-x="562" d="M46 315 L46 364 L515 364 L515 315 L46 315 Z " />
<glyph glyph-name="emdash" unicode="&#x2014;" horiz-adv-x="862" d="M46 315 L46 364 L815 364 L815 315 L46 315 Z " />
<glyph glyph-name="bullet" unicode="&#x2022;" horiz-adv-x="316" d="M157 448 Q188 448 210.5 436 Q233 424 244 407 L244 314 Q233 296 210.5 283.5 Q188 271 157 271 Q127 271 105 284 Q83 297 72 314 L72 407 Q83 424 105 436 Q127 448 157 448 Z " />
<glyph glyph-name="parenleft" unicode="&#x28;" horiz-adv-x="370" d="M322 653 Q285 653 255 642 Q225 631 202 613 Q179 595 163.5 572.5 Q148 550 140 526 L140 8 Q148 -16 163.5 -39 Q179 -62 201.5 -80.5 Q224 -99 254 -110 Q284 -121 322 -121 L328 -121 L328 -168 L322 -168 Q269 -168 228 -154 Q187 -140 157 -117.5 Q127 -95 107 -67.5 Q87 -40 76 -13 L76 545 Q87 572 107 599.5 Q127 627 157 649.5 Q187 672 228 686 Q269 700 322 700 L328 700 L328 653 L322 653 Z " />
<glyph glyph-name="parenright" unicode="&#x29;" horiz-adv-x="370" d="M48 700 Q101 700 142 686 Q183 672 213 649.5 Q243 627 263 599.5 Q283 572 294 545 L294 -13 Q283 -40 263 -67.5 Q243 -95 213 -117.5 Q183 -140 142 -154 Q101 -168 48 -168 L42 -168 L42 -121 L48 -121 Q85 -121 115.5 -110 Q146 -99 168.5 -80.5 Q191 -62 206.5 -39 Q222 -16 231 8 L231 526 Q222 550 206.5 572.5 Q191 595 168 613 Q145 631 115 642 Q85 653 48 653 L42 653 L42 700 L48 700 Z " />
<glyph glyph-name="bracketleft" unicode="&#x5b;" horiz-adv-x="366" d="M152 653 L152 -121 L311 -121 L311 -168 L90 -168 L90 700 L311 700 L311 653 L152 653 Z " />
<glyph glyph-name="bracketright" unicode="&#x5d;" horiz-adv-x="366" d="M55 -168 L55 -121 L214 -121 L214 653 L55 653 L55 700 L276 700 L276 -168 L55 -168 Z " />
<glyph glyph-name="braceleft" unicode="&#x7b;" horiz-adv-x="389" d="M168 328 Q159 304 144 288.5 Q129 273 111 264 Q129 255 144 239.5 Q159 224 168 200 L168 -2 Q177 -26 193 -48.5 Q209 -71 232 -88.5 Q255 -106 284.5 -116 Q314 -126 351 -126 L351 -173 Q298 -173 257 -159 Q216 -145 186 -122.5 Q156 -100 136 -72.5 Q116 -45 105 -18 L105 187 Q100 206 90 216.5 Q80 227 67 232 Q54 237 41 238.5 Q28 240 17 240 L17 287 Q28 287 41 288.5 Q54 290 67 295 Q80 300 90 311 Q100 322 105 340 L105 545 Q116 572 136 599.5 Q156 627 186 649.5 Q216 672 257 686 Q298 700 351 700 L351 653 Q314 653 284.5 643 Q255 633 232 615.5 Q209 598 193 575.5 Q177 553 168 529 L168 328 Z " />
<glyph glyph-name="braceright" unicode="&#x7d;" horiz-adv-x="389" d="M283 340 Q288 322 298.5 311 Q309 300 321.5 295 Q334 290 347 288.5 Q360 287 371 287 L371 240 Q360 240 347 238.5 Q334 237 321.5 232 Q309 227 298.5 216.5 Q288 206 283 187 L283 -18 Q272 -45 252 -72.5 Q232 -100 202 -122.5 Q172 -145 131.5 -159 Q91 -173 38 -173 L38 -126 Q74 -126 104 -116 Q134 -106 157 -88.5 Q180 -71 195.5 -48.5 Q211 -26 220 -2 L220 200 Q229 224 244 239.5 Q259 255 278 264 Q259 273 244 288.5 Q229 304 220 328 L220 529 Q211 553 195.5 575.5 Q180 598 157 615.5 Q134 633 104 643 Q74 653 38 653 L38 700 Q91 700 131.5 686 Q172 672 202 649.5 Q232 627 252 599.5 Q272 572 283 545 L283 340 Z " />
<glyph glyph-name="asterisk" unicode="&#x2a;" horiz-adv-x="497" d="M448 604 Q450 599 450.5 591.5 Q451 584 449 577 L269 533 L389 392 Q387 385 381.5 379.5 Q376 374 370 369 Q365 365 359 362 Q353 359 345 360 L249 514 L153 360 Q146 359 139.5 362 Q133 365 128 369 Q122 374 116.5 379.5 Q111 385 109 392 L229 533 L48 577 Q46 584 47 591.5 Q48 599 50 604 Q52 611 56 617.5 Q60 624 65 628 L235 559 L222 741 Q227 745 234.5 746.5 Q242 748 249 748 Q256 748 263.5 746.5 Q271 745 276 741 L263 559 L432 628 Q438 624 442 617.5 Q446 611 448 604 Z " />
<glyph glyph-name="dagger" unicode="&#x2020;" horiz-adv-x="623" d="M578 404 L496 404 L340 411 L334 -168 L287 -168 L281 411 L127 404 L45 404 L45 459 L127 459 L281 452 L279 606 L279 700 L342 700 L342 606 L340 452 L496 459 L578 459 L578 404 Z " />
<glyph glyph-name="daggerdbl" unicode="&#x2021;" horiz-adv-x="643" d="M338 182 L496 189 L578 189 L578 134 L496 134 L337 141 L334 -168 L287 -168 L284 141 L127 134 L45 134 L45 189 L127 189 L283 182 L281 441 L127 434 L45 434 L45 489 L127 489 L280 482 L279 606 L279 700 L342 700 L342 606 L341 482 L496 489 L578 489 L578 434 L496 434 L340 441 L338 182 Z " />
<glyph glyph-name="section" unicode="&#xa7;" horiz-adv-x="509" d="M254 667 Q227 667 205 661 Q183 655 166 645.5 Q149 636 137 624.5 Q125 613 118 603 L118 530 Q131 509 158 496 Q185 483 227 472 L293 455 Q358 440 395 417 Q432 394 446 372 L446 246 Q435 230 412 208.5 Q389 187 349 173 Q388 158 411.5 140 Q435 122 446 105 L446 -5 Q438 -17 423 -33 Q408 -49 385 -63.5 Q362 -78 329.5 -88.5 Q297 -99 254 -99 Q212 -99 179 -88.5 Q146 -78 122.5 -63 Q99 -48 84.5 -32 Q70 -16 63 -5 L63 26 L112 26 Q116 14 128 0 Q140 -14 158 -26 Q176 -38 200 -45.5 Q224 -53 254 -53 Q281 -53 303 -47 Q325 -41 342 -31 Q359 -21 371 -10 Q383 1 391 12 L391 84 Q377 105 350.5 118.5 Q324 132 282 142 L215 159 Q151 174 114 197 Q77 220 63 243 L63 368 Q74 385 97.5 406 Q121 427 160 442 Q121 456 97 474.5 Q73 493 63 510 L63 619 Q71 631 86 647 Q101 663 124 677.5 Q147 692 179.5 702.5 Q212 713 254 713 Q297 713 329.5 702.5 Q362 692 386 677 Q410 662 424.5 646 Q439 630 446 619 L446 588 L396 588 Q391 601 379.5 615 Q368 629 350 640.5 Q332 652 308 659.5 Q284 667 254 667 Z M391 351 Q378 372 351 385 Q324 398 282 409 L254 416 Q227 416 205 410 Q183 404 166 394.5 Q149 385 137 373.5 Q125 362 118 352 L118 264 Q130 243 157.5 229.5 Q185 216 227 205 L256 198 Q310 199 343.5 220.5 Q377 242 391 263 L391 351 Z " />
<glyph glyph-name="paragraph" unicode="&#xb6;" horiz-adv-x="659" d="M320 -100 L320 261 L250 261 Q182 261 132 294.5 Q82 328 55 378 L55 583 Q84 638 136.5 669 Q189 700 250 700 L369 700 L369 -100 L320 -100 Z M519 -100 L519 700 L569 700 L569 -100 L519 -100 Z " />
<glyph glyph-name="asciicircum" unicode="&#x5e;" horiz-adv-x="518" d="M463 342 L425 342 L266 647 L252 647 L93 342 L55 342 L55 377 L224 700 L293 700 L463 378 L463 342 Z " />
<glyph glyph-name="asciitilde" unicode="&#x7e;" horiz-adv-x="581" d="M170 417 Q206 417 240 409 Q274 401 307 391.5 Q340 382 372.5 374 Q405 366 438 366 Q463 366 483.5 373 Q504 380 519 388 Q537 398 550 410 L550 351 Q537 341 520 334 Q506 327 485.5 322 Q465 317 439 317 Q400 317 366 325 Q332 333 299.5 342.5 Q267 352 235 360 Q203 368 168 368 Q139 368 114 360 Q89 352 71 342 Q50 331 32 317 L32 371 Q48 383 69 394 Q87 402 112.5 409.5 Q138 417 170 417 Z " />
<glyph glyph-name="brokenbar" unicode="&#xa6;" horiz-adv-x="330" d="M133 405 L133 790 L193 790 L193 405 L133 405 Z M133 -129 L133 273 L193 273 L193 -129 L133 -129 Z " />
<glyph glyph-name="backslash" unicode="&#x5c;" horiz-adv-x="379" d="M324 -110 L275 -110 L55 698 L55 731 L104 731 L324 -77 L324 -110 Z " />
<glyph glyph-name="underscore" unicode="&#x5f;" horiz-adv-x="490" d="M-5 -119 L-5 -76 L495 -76 L495 -119 L-5 -119 Z " />
<glyph glyph-name="quotesingle" unicode="&#x27;" horiz-adv-x="145" d="M90 517 L54 517 L46 636 L46 700 L99 700 L99 636 L90 517 Z " />
<glyph glyph-name="quotedbl" unicode="&#x22;" horiz-adv-x="298" d="M90 517 L54 517 L46 636 L46 700 L99 700 L99 636 L90 517 Z M243 517 L207 517 L199 636 L199 700 L252 700 L252 636 L243 517 Z " />
<glyph glyph-name="at" unicode="&#x40;" horiz-adv-x="951" d="M476 713 Q566 713 636 685.5 Q706 658 756.5 618 Q807 578 838 534 Q869 490 882 456 L882 111 Q862 73 827.5 55 Q793 37 751 37 Q708 37 676 55 Q644 73 627 101 Q602 73 560 51.5 Q518 30 456 30 Q414 30 382.5 41 Q351 52 328.5 68 Q306 84 292 101.5 Q278 119 271 132 L271 420 Q278 433 291.5 451 Q305 469 327 485 Q349 501 380.5 512 Q412 523 454 523 Q511 523 551.5 504.5 Q592 486 617 460 L617 511 L671 511 L671 126 Q695 77 754 77 Q784 77 802.5 89.5 Q821 102 836 125 L836 447 Q825 474 798 512.5 Q771 551 726.5 586 Q682 621 619.5 646 Q557 671 475 671 Q415 671 360 655.5 Q305 640 258.5 611 Q212 582 175.5 540 Q139 498 116 446 L116 107 Q139 56 175.5 14 Q212 -28 258.5 -57.5 Q305 -87 360 -103 Q415 -119 475 -119 Q529 -119 579 -105.5 Q629 -92 673 -66 L702 -97 Q652 -127 595 -143.5 Q538 -160 475 -160 Q406 -160 343.5 -142 Q281 -124 228.5 -91 Q176 -58 135 -10.5 Q94 37 70 96 L70 457 Q95 516 136 563.5 Q177 611 230 644 Q283 677 345.5 695 Q408 713 476 713 Z M464 75 Q520 75 558.5 95 Q597 115 617 142 L617 411 Q597 438 558.5 458 Q520 478 464 478 Q434 478 410.5 470.5 Q387 463 369.5 452.5 Q352 442 341 429.5 Q330 417 324 407 L324 146 Q330 136 341.5 123.5 Q353 111 370 100.5 Q387 90 410.5 82.5 Q434 75 464 75 Z " />
<glyph glyph-name="copyright" unicode="&#xa9;" horiz-adv-x="819" d="M409 713 Q484 713 550.5 684.5 Q617 656 666.5 607 Q716 558 745 491.5 Q774 425 774 350 Q774 275 745 208.5 Q716 142 666.5 93 Q617 44 550.5 15.5 Q484 -13 409 -13 Q334 -13 267.5 15.5 Q201 44 151.5 93 Q102 142 73.5 208.5 Q45 275 45 350 Q45 425 73.5 491.5 Q102 558 151.5 607 Q201 656 267.5 684.5 Q334 713 409 713 Z M409 679 Q341 679 281.5 653 Q222 627 178 582.5 Q134 538 108.5 478 Q83 418 83 350 Q83 282 108.5 222 Q134 162 178 117.5 Q222 73 281.5 47 Q341 21 409 21 Q477 21 536.5 47 Q596 73 640.5 117.5 Q685 162 710.5 222 Q736 282 736 350 Q736 418 710.5 478 Q685 538 640.5 582.5 Q596 627 536.5 653 Q477 679 409 679 Z M409 576 Q450 576 481.5 566 Q513 556 535.5 541.5 Q558 527 572.5 511.5 Q587 496 594 485 L594 455 L550 455 Q545 467 533.5 481 Q522 495 504.5 507 Q487 519 463.5 526.5 Q440 534 410 534 Q383 534 361 527.5 Q339 521 322.5 511.5 Q306 502 294 490.5 Q282 479 275 469 L275 228 Q282 218 294 206.5 Q306 195 322.5 185.5 Q339 176 361 169.5 Q383 163 410 163 Q440 163 463.5 170.5 Q487 178 504.5 189.5 Q522 201 533.5 215 Q545 229 550 242 L594 242 L594 212 Q587 201 572.5 185 Q558 169 535.5 155 Q513 141 481.5 131 Q450 121 409 121 Q368 121 336.5 131 Q305 141 282.5 156 Q260 171 245.5 187 Q231 203 224 215 L224 482 Q231 494 245.5 510 Q260 526 282.5 541 Q305 556 336.5 566 Q368 576 409 576 Z " />
<glyph glyph-name="registered" unicode="&#xae;" horiz-adv-x="518" d="M259 824 Q308 824 351.5 805 Q395 786 427.5 753.5 Q460 721 479 677.5 Q498 634 498 585 Q498 536 479 492.5 Q460 449 427.5 416.5 Q395 384 351.5 365 Q308 346 259 346 Q210 346 166.5 365 Q123 384 90.5 416.5 Q58 449 39 492.5 Q20 536 20 585 Q20 634 39 677.5 Q58 721 90.5 753.5 Q123 786 166.5 805 Q210 824 259 824 Z M259 374 Q303 374 341 390.5 Q379 407 407 436 Q435 465 451 503 Q467 541 467 585 Q467 628 451 666.5 Q435 705 407 734 Q379 763 341 779.5 Q303 796 259 796 Q215 796 177.5 779.5 Q140 763 111.5 734 Q83 705 67 666.5 Q51 628 51 585 Q51 541 67 503 Q83 465 111.5 436 Q140 407 177.5 390.5 Q215 374 259 374 Z M282 732 Q306 732 329.5 718 Q353 704 365 680 L365 608 Q354 587 335.5 574 Q317 561 296 557 L358 470 L358 448 L333 448 L262 556 L204 556 L204 448 L171 448 L171 732 L282 732 Z M332 671 Q322 691 307 697 Q292 703 275 703 L204 703 L204 585 L275 585 Q292 585 307 591 Q322 597 332 617 L332 671 Z " />
<glyph glyph-name="trademark" unicode="&#x2122;" horiz-adv-x="783" d="M191 666 L191 310 L149 310 L149 666 L28 666 L28 700 L312 700 L312 666 L191 666 Z M679 310 L679 645 L677 645 L555 310 L522 310 L400 645 L398 645 L398 310 L358 310 L358 700 L422 700 L539 379 L541 379 L657 700 L720 700 L720 310 L679 310 Z " />
<glyph glyph-name="uni2117" unicode="&#x2117;" horiz-adv-x="819" d="M409 713 Q484 713 550.5 684.5 Q617 656 666.5 607 Q716 558 745 491.5 Q774 425 774 350 Q774 275 745 208.5 Q716 142 666.5 93 Q617 44 550.5 15.5 Q484 -13 409 -13 Q334 -13 267.5 15.5 Q201 44 151.5 93 Q102 142 73.5 208.5 Q45 275 45 350 Q45 425 73.5 491.5 Q102 558 151.5 607 Q201 656 267.5 684.5 Q334 713 409 713 Z M409 679 Q341 679 281.5 653 Q222 627 178 582.5 Q134 538 108.5 478 Q83 418 83 350 Q83 282 108.5 222 Q134 162 178 117.5 Q222 73 281.5 47 Q341 21 409 21 Q477 21 536.5 47 Q596 73 640.5 117.5 Q685 162 710.5 222 Q736 282 736 350 Q736 418 710.5 478 Q685 538 640.5 582.5 Q596 627 536.5 653 Q477 679 409 679 Z M457 575 Q499 575 535.5 551 Q572 527 593 485 L593 366 Q572 324 535.5 300 Q499 276 457 276 L322 276 L322 106 L274 106 L274 575 L457 575 Z M322 317 L446 317 Q475 317 501.5 331 Q528 345 545 380 L545 471 Q528 506 501.5 520 Q475 534 446 534 L322 534 L322 317 Z " />
<glyph glyph-name="currency" unicode="&#xa4;" horiz-adv-x="590" d="M472 485 Q484 471 492.5 457.5 Q501 444 506 431 L506 247 Q501 234 492.5 220.5 Q484 207 472 193 L517 148 L517 117 L477 117 L435 158 Q409 140 374.5 128 Q340 116 295 116 Q250 116 216 127.5 Q182 139 156 158 L114 117 L73 117 L73 148 L118 193 Q106 207 97.5 220.5 Q89 234 84 247 L84 431 Q89 444 97.5 457.5 Q106 471 117 485 L73 529 L73 561 L114 561 L155 520 Q181 538 215.5 549.5 Q250 561 295 561 Q340 561 374.5 549.5 Q409 538 435 519 L477 561 L517 561 L517 529 L472 485 Z M295 165 Q326 165 351 173 Q376 181 395.5 194.5 Q415 208 428 225 Q441 242 449 261 L449 416 Q441 435 428 452 Q415 469 395.5 482.5 Q376 496 351 504 Q326 512 295 512 Q265 512 240 504 Q215 496 195.5 482.5 Q176 469 162.5 452 Q149 435 142 416 L142 261 Q149 242 162.5 225 Q176 208 195.5 194.5 Q215 181 240 173 Q265 165 295 165 Z " />
<glyph glyph-name="Euro" unicode="&#x20ac;" horiz-adv-x="592" d="M320 663 Q289 663 263 655 Q237 647 216 634 Q195 621 180 603.5 Q165 586 158 568 L158 444 L421 444 L421 404 L158 404 L158 314 L421 314 L421 274 L158 274 L158 132 Q165 114 180 96.5 Q195 79 216 66 Q237 53 263 45 Q289 37 320 37 Q386 37 429.5 69 Q473 101 487 149 L538 149 L538 112 Q530 93 512 71 Q494 49 466.5 30.5 Q439 12 402.5 -0.5 Q366 -13 320 -13 Q274 -13 237 -0.5 Q200 12 172.5 30.5 Q145 49 126.5 72 Q108 95 99 116 L99 274 L33 274 L33 314 L99 314 L99 404 L33 404 L33 444 L99 444 L99 584 Q108 605 126.5 628 Q145 651 172.5 669.5 Q200 688 237 700.5 Q274 713 320 713 Q366 713 402.5 700.5 Q439 688 466.5 669.5 Q494 651 512 629 Q530 607 538 588 L538 551 L487 551 Q473 599 429.5 631 Q386 663 320 663 Z " />
<glyph glyph-name="dollar" unicode="&#x24;" horiz-adv-x="579" d="M332 380 Q380 367 411.5 352.5 Q443 338 463.5 323 Q484 308 496 292 Q508 276 517 260 L517 118 Q508 101 492 80 Q476 59 451.5 40 Q427 21 393.5 6.5 Q360 -8 315 -12 L315 -96 L264 -96 L264 -12 Q216 -9 180 5 Q144 19 118 38.5 Q92 58 75 79.5 Q58 101 49 118 L49 157 L101 157 Q109 136 125 114.5 Q141 93 164 76.5 Q187 60 217.5 49.5 Q248 39 286 39 Q321 39 349.5 48.5 Q378 58 399 72 Q420 86 434 103.5 Q448 121 456 136 L456 238 Q450 251 441 263 Q432 275 416.5 286.5 Q401 298 378 307.5 Q355 317 322 326 L249 345 Q207 356 178 367.5 Q149 379 129 392 Q109 405 95.5 420.5 Q82 436 70 454 L70 599 Q81 617 98 636 Q115 655 139 671 Q163 687 194 698 Q225 709 264 712 L264 796 L315 796 L315 712 Q354 709 384.5 697.5 Q415 686 438.5 670 Q462 654 478.5 635.5 Q495 617 505 599 L505 560 L454 560 Q436 604 394 632.5 Q352 661 287 661 Q230 661 190.5 637 Q151 613 131 580 L131 476 Q137 464 146.5 453.5 Q156 443 170.5 433.5 Q185 424 206.5 415.5 Q228 407 259 399 L332 380 Z " />
<glyph glyph-name="cent" unicode="&#xa2;" horiz-adv-x="521" d="M270 500 Q209 500 171 471 Q133 442 117 405 L117 131 Q133 94 171 65 Q209 36 270 36 Q335 36 373.5 67 Q412 98 431 146 L479 146 L479 113 Q471 95 457 74.5 Q443 54 421 36.5 Q399 19 369 6 Q339 -7 300 -11 L300 -96 L247 -96 L247 -12 Q207 -9 176 4 Q145 17 122 35.5 Q99 54 83.5 75.5 Q68 97 60 117 L60 419 Q68 439 83.5 460.5 Q99 482 122 500.5 Q145 519 176 532 Q207 545 247 548 L247 632 L300 632 L300 547 Q339 543 369 530 Q399 517 421 499.5 Q443 482 457 461.5 Q471 441 479 423 L479 391 L431 391 Q412 438 373.5 469 Q335 500 270 500 Z " />
<glyph glyph-name="sterling" unicode="&#xa3;" horiz-adv-x="606" d="M333 663 Q302 663 276 655 Q250 647 229 634 Q208 621 193 603.5 Q178 586 170 568 L170 372 L439 372 L439 327 L170 327 L170 104 Q162 91 152 76.5 Q142 62 128 49 L550 49 L550 0 L48 0 L48 45 Q54 46 62.5 50.5 Q71 55 80 62.5 Q89 70 97.5 81 Q106 92 111 107 L111 327 L46 327 L46 372 L111 372 L111 584 Q120 605 138.5 628 Q157 651 185 669.5 Q213 688 250 700.5 Q287 713 333 713 Q379 713 415.5 700.5 Q452 688 479.5 669.5 Q507 651 524.5 629 Q542 607 550 588 L550 551 L499 551 Q485 599 442 631 Q399 663 333 663 Z " />
<glyph glyph-name="florin" unicode="&#x192;" horiz-adv-x="439" d="M354 664 Q322 664 300.5 657 Q279 650 265.5 640 Q252 630 244.5 619 Q237 608 234 600 L234 514 L398 514 L398 470 L234 470 L234 -93 Q228 -106 217.5 -121.5 Q207 -137 189 -150.5 Q171 -164 143 -173.5 Q115 -183 74 -183 Q49 -183 29.5 -180.5 Q10 -178 2 -175 L2 -135 L56 -135 Q89 -135 110.5 -128 Q132 -121 145.5 -111 Q159 -101 166 -90 Q173 -79 176 -71 L176 470 L93 470 L93 514 L176 514 L176 622 Q182 635 192.5 650.5 Q203 666 221 679.5 Q239 693 267 702.5 Q295 712 336 712 Q361 712 381 709.5 Q401 707 409 704 L409 664 L354 664 Z " />
<glyph glyph-name="yen" unicode="&#xa5;" horiz-adv-x="557" d="M309 230 L519 230 L519 189 L309 189 L309 0 L247 0 L247 189 L38 189 L38 230 L247 230 L247 315 L243 322 L38 322 L38 362 L219 362 L44 657 L44 700 L87 700 L278 371 L281 371 L471 700 L514 700 L514 657 L340 362 L519 362 L519 322 L316 322 L309 310 L309 230 Z " />
<glyph glyph-name="uni20A8" unicode="&#x20a8;" horiz-adv-x="522" d="M357 659 Q380 642 399 620 Q418 598 429 571 L429 520 L508 520 L508 479 L429 479 L429 428 Q417 399 396 375.5 Q375 352 349.5 335 Q324 318 297 308.5 Q270 299 247 299 L147 299 L430 33 L430 0 L379 0 L68 299 L68 343 L232 343 Q247 343 267.5 349.5 Q288 356 307.5 368 Q327 380 344 398.5 Q361 417 370 441 L370 479 L68 479 L68 520 L370 520 L370 554 Q361 578 344 596.5 Q327 615 307.5 627 Q288 639 267.5 645.5 Q247 652 232 652 L68 652 L68 700 L508 700 L508 659 L357 659 Z " />
<glyph glyph-name="uni20BA" unicode="&#x20ba;" horiz-adv-x="560" d="M502 125 Q494 105 476 83.5 Q458 62 430.5 43 Q403 24 366.5 12 Q330 0 284 0 L106 0 L106 252 L37 219 L37 264 L106 297 L106 397 L37 364 L37 409 L106 442 L106 700 L164 700 L164 470 L381 575 L381 530 L164 425 L164 325 L381 430 L381 385 L164 280 L164 50 L284 50 Q351 50 393.5 81.5 Q436 113 451 162 L502 162 L502 125 Z " />
<glyph glyph-name="uni20BD" unicode="&#x20bd;" horiz-adv-x="564" d="M319 700 Q380 700 431.5 669 Q483 638 513 583 L513 418 Q486 368 436.5 336.5 Q387 305 319 305 L147 305 L147 219 L436 219 L436 179 L147 179 L147 0 L85 0 L85 179 L20 179 L20 219 L85 219 L85 305 L20 305 L20 349 L85 349 L85 700 L319 700 Z M454 563 Q428 611 386.5 630.5 Q345 650 306 650 L147 650 L147 349 L306 349 Q353 349 392 371 Q431 393 454 435 L454 563 Z " />
<glyph glyph-name="ordfeminine" unicode="&#xaa;" horiz-adv-x="385" d="M189 708 Q219 708 243 700 Q267 692 284 680 Q301 668 312.5 653 Q324 638 329 623 L329 363 L287 363 L287 394 Q270 378 242.5 367 Q215 356 178 356 Q149 356 128 362.5 Q107 369 92 377.5 Q77 386 68.5 394.5 Q60 403 56 408 L56 504 Q60 509 68.5 518.5 Q77 528 91.5 537 Q106 546 126.5 552.5 Q147 559 176 559 L286 559 L286 613 Q276 637 252 654.5 Q228 672 189 672 Q153 672 131 656.5 Q109 641 97 621 L62 621 L62 646 Q66 652 75 662.5 Q84 673 99 683 Q114 693 136.5 700.5 Q159 708 189 708 Z M182 391 Q222 391 248 404 Q274 417 286 436 L286 525 L182 525 Q143 525 124.5 512 Q106 499 98 490 L98 426 Q101 422 107.5 416 Q114 410 123.5 404.5 Q133 399 147.5 395 Q162 391 182 391 Z " />
<glyph glyph-name="ordmasculine" unicode="&#xba;" horiz-adv-x="393" d="M196 708 Q226 708 250 700 Q274 692 291.5 680 Q309 668 320 653 Q331 638 337 623 L337 439 Q331 425 320 410.5 Q309 396 291.5 384 Q274 372 250 364 Q226 356 196 356 Q166 356 142.5 364 Q119 372 101.5 384 Q84 396 73 410.5 Q62 425 56 439 L56 623 Q62 638 73 653 Q84 668 101.5 680 Q119 692 142.5 700 Q166 708 196 708 Z M196 671 Q158 671 133.5 654 Q109 637 99 614 L99 448 Q109 426 133.5 409.5 Q158 393 196 393 Q234 393 259 409.5 Q284 426 293 448 L293 614 Q284 637 259 654 Q234 671 196 671 Z " />
<glyph glyph-name="numbersign" unicode="&#x23;" horiz-adv-x="586" d="M427 253 L512 253 L512 209 L420 209 L386 0 L342 0 L342 33 L370 209 L171 209 L137 0 L93 0 L93 33 L121 209 L37 209 L37 253 L129 253 L159 439 L73 439 L73 483 L166 483 L201 700 L244 700 L244 667 L214 483 L415 483 L450 700 L493 700 L493 667 L463 483 L550 483 L550 439 L456 439 L427 253 Z M208 439 L178 253 L378 253 L408 439 L208 439 Z " />
<glyph glyph-name="uni2116" unicode="&#x2116;" horiz-adv-x="945" d="M754 706 Q790 706 817 696.5 Q844 687 863.5 672.5 Q883 658 895.5 641.5 Q908 625 915 611 L915 435 Q908 421 895.5 404.5 Q883 388 864 374 Q845 360 818 350 Q791 340 754 340 Q717 340 690 350 Q663 360 644 374 Q625 388 612.5 404.5 Q600 421 593 435 L593 611 Q600 625 612 641.5 Q624 658 643.5 672.5 Q663 687 690 696.5 Q717 706 754 706 Z M417 0 L144 610 L141 610 L141 0 L82 0 L82 700 L162 700 L435 90 L437 90 L437 700 L496 700 L496 0 L417 0 Z M755 666 Q731 666 712 660 Q693 654 679.5 644 Q666 634 657 622.5 Q648 611 642 599 L642 447 Q648 436 657 424 Q666 412 679.5 402.5 Q693 393 712 387 Q731 381 755 381 Q779 381 797 387 Q815 393 828.5 402.5 Q842 412 851.5 424 Q861 436 867 447 L867 599 Q861 611 851.5 622.5 Q842 634 828.5 644 Q815 654 797 660 Q779 666 755 666 Z M593 237 L593 279 L915 279 L915 237 L593 237 Z " />
<glyph glyph-name="zero" unicode="0" horiz-adv-x="579" d="M289 713 Q335 713 372 700.5 Q409 688 437 669.5 Q465 651 483 628 Q501 605 510 584 L510 117 Q502 96 483.5 73 Q465 50 437 31 Q409 12 372 -0.5 Q335 -13 289 -13 Q243 -13 206 -0.5 Q169 12 141.5 31 Q114 50 95.5 72.5 Q77 95 68 117 L68 584 Q77 605 95.5 628 Q114 651 141.5 669.5 Q169 688 206 700.5 Q243 713 289 713 Z M289 663 Q259 663 232.5 655 Q206 647 185 634 Q164 621 149 603.5 Q134 586 127 568 L127 133 Q134 114 149 97 Q164 80 185 66.5 Q206 53 232.5 45 Q259 37 289 37 Q320 37 346 45 Q372 53 393 66.5 Q414 80 428.5 97 Q443 114 451 133 L451 568 Q444 586 429 603.5 Q414 621 393 634 Q372 647 346 655 Q320 663 289 663 Z " />
<glyph glyph-name="one" unicode="1" horiz-adv-x="430" d="M374 45 L374 0 L71 0 L71 45 L196 45 L196 631 L70 572 L70 621 L221 700 L255 700 L255 45 L374 45 Z " />
<glyph glyph-name="two" unicode="2" horiz-adv-x="557" d="M274 713 Q320 713 356.5 700.5 Q393 688 421 669 Q449 650 467.5 627.5 Q486 605 495 584 L495 446 Q479 410 445 380 Q411 350 351 312 L254 251 Q190 210 158.5 181 Q127 152 114 123 L114 51 L504 51 L504 0 L55 0 L55 140 Q66 159 77 175 Q88 191 106 208 Q124 225 151 245 Q178 265 222 293 L318 354 Q366 385 396 410.5 Q426 436 436 462 L436 568 Q428 586 413.5 603 Q399 620 378 633.5 Q357 647 331 655 Q305 663 274 663 Q242 663 214.5 654.5 Q187 646 165.5 631 Q144 616 128.5 595 Q113 574 107 550 L56 550 L56 588 Q65 607 83 629 Q101 651 128 669.5 Q155 688 191.5 700.5 Q228 713 274 713 Z " />
<glyph glyph-name="three" unicode="3" horiz-adv-x="563" d="M268 713 Q314 713 349.5 701 Q385 689 411 671.5 Q437 654 453.5 634.5 Q470 615 478 600 L478 462 Q467 442 437.5 414.5 Q408 387 359 371 Q413 356 447 323 Q481 290 495 259 L495 117 Q486 96 467.5 73.5 Q449 51 421 31.5 Q393 12 356.5 -0.5 Q320 -13 274 -13 Q228 -13 191 -0.5 Q154 12 126.5 30.5 Q99 49 80.5 71 Q62 93 54 112 L54 150 L105 150 Q112 127 127 106.5 Q142 86 164 70.5 Q186 55 213.5 46 Q241 37 274 37 Q305 37 331 45 Q357 53 378 66.5 Q399 80 413.5 97.5 Q428 115 436 133 L436 248 Q428 267 413.5 284.5 Q399 302 378 315.5 Q357 329 331 337 Q305 345 274 345 L206 345 L206 392 L265 392 Q296 392 321 400 Q346 408 365.5 420 Q385 432 398.5 446 Q412 460 419 472 L419 584 Q412 597 399 611 Q386 625 367 636.5 Q348 648 323.5 655.5 Q299 663 268 663 Q235 663 208 654 Q181 645 161.5 631.5 Q142 618 129 600.5 Q116 583 110 567 L59 567 L59 605 Q66 618 82.5 637 Q99 656 125 672.5 Q151 689 186.5 701 Q222 713 268 713 Z " />
<glyph glyph-name="four" unicode="4" horiz-adv-x="560" d="M538 236 L538 186 L438 186 L438 0 L380 0 L380 186 L30 186 L30 234 L351 700 L438 700 L438 236 L538 236 Z M93 236 L380 236 L380 647 L377 647 L93 236 Z " />
<glyph glyph-name="five" unicode="5" horiz-adv-x="564" d="M137 648 L137 399 Q158 422 197 440 Q236 458 292 458 Q334 458 368.5 446.5 Q403 435 429.5 417 Q456 399 473.5 377.5 Q491 356 500 335 L500 112 Q492 93 474 71 Q456 49 429 30.5 Q402 12 365 -0.5 Q328 -13 282 -13 Q236 -13 199.5 -1 Q163 11 135.5 30 Q108 49 90 70.5 Q72 92 63 112 L63 150 L114 150 Q120 128 135 107.5 Q150 87 171.5 71.5 Q193 56 221 46.5 Q249 37 282 37 Q313 37 339 45 Q365 53 386 66.5 Q407 80 421.5 97.5 Q436 115 444 133 L444 313 Q436 331 421.5 348.5 Q407 366 386 379 Q365 392 339 400 Q313 408 282 408 Q251 408 227 400.5 Q203 393 185 382.5 Q167 372 155 360.5 Q143 349 137 341 L82 341 L82 700 L491 700 L491 648 L137 648 Z " />
<glyph glyph-name="six" unicode="6" horiz-adv-x="572" d="M290 663 Q259 663 233 655 Q207 647 186 633.5 Q165 620 150 603 Q135 586 128 568 L128 363 Q155 394 197.5 414.5 Q240 435 299 435 Q342 435 376.5 423.5 Q411 412 437 394.5 Q463 377 481 355 Q499 333 508 312 L508 112 Q500 93 482 71 Q464 49 436.5 30.5 Q409 12 372.5 -0.5 Q336 -13 290 -13 Q244 -13 207 -0.5 Q170 12 142.5 31 Q115 50 96.5 73 Q78 96 69 117 L69 584 Q78 605 96.5 628 Q115 651 142.5 669.5 Q170 688 207 700.5 Q244 713 290 713 Q336 713 372.5 701 Q409 689 436 670 Q463 651 481 629.5 Q499 608 508 588 L508 550 L457 550 Q444 598 399.5 630.5 Q355 663 290 663 Z M289 386 Q235 386 192.5 362 Q150 338 128 303 L128 133 Q135 115 150 97.5 Q165 80 186 66.5 Q207 53 233 45 Q259 37 290 37 Q320 37 346.5 45 Q373 53 394 66.5 Q415 80 430 97.5 Q445 115 452 133 L452 292 Q437 330 392.5 358 Q348 386 289 386 Z " />
<glyph glyph-name="seven" unicode="7" horiz-adv-x="479" d="M153 0 L109 0 L109 43 L389 648 L15 648 L15 700 L449 700 L449 652 L153 0 Z " />
<glyph glyph-name="eight" unicode="8" horiz-adv-x="578" d="M373 374 Q410 362 434.5 348.5 Q459 335 475.5 321.5 Q492 308 503 294 Q514 280 522 265 L522 118 Q513 100 495 77.5 Q477 55 449 35 Q421 15 381 1 Q341 -13 289 -13 Q238 -13 199 0.5 Q160 14 132 34 Q104 54 85.5 77 Q67 100 57 118 L57 265 Q65 280 76 294 Q87 308 104 321.5 Q121 335 146 347 Q171 359 207 371 Q178 381 157 392.5 Q136 404 121.5 416.5 Q107 429 97.5 441.5 Q88 454 82 465 L82 604 Q93 622 110.5 641.5 Q128 661 153.5 676.5 Q179 692 212.5 702.5 Q246 713 289 713 Q331 713 365 702.5 Q399 692 424.5 676.5 Q450 661 468 641.5 Q486 622 497 604 L497 464 Q483 439 456 416 Q429 393 373 374 Z M137 481 Q147 461 174 440.5 Q201 420 257 405 L295 395 Q360 411 394 433.5 Q428 456 442 481 L442 584 Q426 614 385.5 638.5 Q345 663 289 663 Q233 663 193.5 638.5 Q154 614 137 584 L137 481 Z M463 248 Q456 261 445.5 273.5 Q435 286 418.5 298 Q402 310 377.5 320.5 Q353 331 319 340 L286 349 Q245 340 215.5 328 Q186 316 166 303 Q146 290 134 276 Q122 262 115 248 L115 134 Q122 119 137 102 Q152 85 174 71 Q196 57 225 47.5 Q254 38 289 38 Q325 38 354 47 Q383 56 404.5 70.5 Q426 85 441 101.5 Q456 118 463 134 L463 248 Z " />
<glyph glyph-name="nine" unicode="9" horiz-adv-x="572" d="M282 713 Q328 713 365 700.5 Q402 688 429.5 669 Q457 650 475.5 627 Q494 604 503 583 L503 116 Q494 95 475.5 72 Q457 49 429 30.5 Q401 12 364.5 -0.5 Q328 -13 282 -13 Q236 -13 199.5 -1 Q163 11 136 30 Q109 49 91 70.5 Q73 92 64 112 L64 150 L115 150 Q128 102 172 69.5 Q216 37 282 37 Q313 37 339 45 Q365 53 386 66.5 Q407 80 421.5 97 Q436 114 444 132 L444 333 Q417 302 375 281 Q333 260 273 260 Q230 260 195.5 271.5 Q161 283 134.5 301 Q108 319 90.5 340.5 Q73 362 64 383 L64 588 Q72 607 90 629 Q108 651 135.5 669.5 Q163 688 199.5 700.5 Q236 713 282 713 Z M283 310 Q340 310 380.5 334 Q421 358 444 393 L444 567 Q436 585 421.5 602.5 Q407 620 386 633.5 Q365 647 339 655 Q313 663 282 663 Q252 663 225.5 655 Q199 647 178 633.5 Q157 620 142 602.5 Q127 585 120 567 L120 404 Q135 367 178 338.5 Q221 310 283 310 Z " />
<glyph glyph-name="uni00A0" unicode="&#xa0;" horiz-adv-x="208" d="" />
<glyph glyph-name="fraction" unicode="&#x2044;" horiz-adv-x="156" d="M-155 0 L-187 0 L-187 29 L311 700 L342 700 L342 671 L-155 0 Z " />
<glyph glyph-name="onequarter" unicode="&#xbc;" horiz-adv-x="839" d="M188 0 L156 0 L156 29 L654 700 L685 700 L685 671 L188 0 Z M249 315 L249 280 L49 280 L49 315 L127 315 L127 658 L48 648 L48 679 L140 700 L174 700 L174 315 L249 315 Z M805 145 L805 108 L738 108 L738 0 L692 0 L692 108 L456 108 L456 144 L672 420 L738 420 L738 145 L805 145 Z M506 145 L692 145 L692 379 L690 379 L506 145 Z " />
<glyph glyph-name="onehalf" unicode="&#xbd;" horiz-adv-x="904" d="M250 315 L250 280 L50 280 L50 315 L128 315 L128 658 L49 648 L49 679 L141 700 L175 700 L175 315 L250 315 Z M188 0 L156 0 L156 29 L654 700 L685 700 L685 671 L188 0 Z M701 428 Q732 428 757.5 420.5 Q783 413 802.5 402 Q822 391 835 376.5 Q848 362 854 349 L854 274 Q843 249 818.5 228 Q794 207 754 182 L686 139 Q644 113 624.5 95 Q605 77 597 59 L597 41 L860 41 L860 0 L552 0 L552 69 Q559 82 566.5 93 Q574 104 585.5 115.5 Q597 127 615.5 141 Q634 155 663 173 L729 215 Q761 236 779.5 251.5 Q798 267 806 286 L806 338 Q796 356 770 372.5 Q744 389 701 389 Q677 389 658.5 383 Q640 377 626 368 Q612 359 603.5 348 Q595 337 591 327 L551 327 L551 356 Q557 367 569.5 379.5 Q582 392 601 403 Q620 414 645 421 Q670 428 701 428 Z " />
<glyph glyph-name="threequarters" unicode="&#xbe;" horiz-adv-x="902" d="M241 0 L209 0 L209 29 L707 700 L738 700 L738 671 L241 0 Z M858 145 L858 108 L791 108 L791 0 L745 0 L745 108 L509 108 L509 144 L725 420 L791 420 L791 145 L858 145 Z M559 145 L745 145 L745 379 L743 379 L559 145 Z M197 708 Q228 708 252.5 700.5 Q277 693 294.5 682.5 Q312 672 323.5 660.5 Q335 649 340 640 L340 555 Q334 544 315.5 528 Q297 512 265 502 Q301 493 322 473.5 Q343 454 351 437 L351 350 Q345 338 332.5 324.5 Q320 311 300.5 299.5 Q281 288 255.5 280.5 Q230 273 198 273 Q166 273 140.5 280.5 Q115 288 95.5 299 Q76 310 63.5 322.5 Q51 335 45 346 L45 378 L83 378 Q92 352 122.5 332 Q153 312 198 312 Q238 312 266 328 Q294 344 304 364 L304 429 Q294 449 266.5 465 Q239 481 199 481 L153 481 L153 519 L194 519 Q233 519 258.5 533.5 Q284 548 293 562 L293 627 Q284 640 260 654.5 Q236 669 197 669 Q173 669 155.5 663.5 Q138 658 125.5 649.5 Q113 641 104.5 630.5 Q96 620 91 611 L55 611 L55 643 Q60 651 71 662 Q82 673 99.5 683.5 Q117 694 141 701 Q165 708 197 708 Z " />
<glyph glyph-name="fiveeighths" unicode="&#x215d;" horiz-adv-x="976" d="M848 220 Q878 208 897.5 190 Q917 172 925 155 L925 70 Q919 58 906 44 Q893 30 874 19 Q855 8 829.5 0.5 Q804 -7 772 -7 Q740 -7 714.5 0.5 Q689 8 670 19 Q651 30 638.5 44 Q626 58 620 70 L620 155 Q628 172 647 190 Q666 208 696 220 Q669 231 653 246 Q637 261 629 271 L629 363 Q634 371 645 382 Q656 393 673.5 403.5 Q691 414 715.5 421 Q740 428 772 428 Q804 428 828.5 421 Q853 414 870.5 403.5 Q888 393 899 382 Q910 371 915 363 L915 271 Q908 261 892 246 Q876 231 848 220 Z M675 280 Q685 266 708.5 252 Q732 238 772 238 Q812 238 836 252 Q860 266 870 280 L870 348 Q860 361 836 375.5 Q812 390 772 390 Q732 390 708.5 375.5 Q685 361 675 348 L675 280 Z M877 151 Q867 171 839.5 186.5 Q812 202 772 202 Q732 202 704.5 186.5 Q677 171 667 151 L667 82 Q677 62 704.5 46 Q732 30 772 30 Q812 30 839.5 46 Q867 62 877 82 L877 151 Z M105 659 L105 522 Q122 536 147 545.5 Q172 555 210 555 Q238 555 261 548 Q284 541 301.5 530.5 Q319 520 331 507.5 Q343 495 349 483 L349 346 Q343 335 330.5 322 Q318 309 299 298 Q280 287 254.5 280 Q229 273 198 273 Q165 273 139.5 280 Q114 287 95.5 298 Q77 309 64.5 322 Q52 335 46 346 L46 378 L83 378 Q94 350 124 331 Q154 312 198 312 Q238 312 266 328 Q294 344 304 364 L304 467 Q294 487 267 503 Q240 519 199 519 Q179 519 163.5 514.5 Q148 510 136.5 503.5 Q125 497 117 489.5 Q109 482 105 477 L60 477 L60 700 L343 700 L343 659 L105 659 Z M255 0 L223 0 L223 29 L721 700 L752 700 L752 671 L255 0 Z " />
<glyph glyph-name="oneeighth" unicode="&#x215b;" horiz-adv-x="920" d="M198 0 L166 0 L166 29 L664 700 L695 700 L695 671 L198 0 Z M251 315 L251 280 L51 280 L51 315 L129 315 L129 658 L50 648 L50 679 L142 700 L176 700 L176 315 L251 315 Z M792 220 Q822 208 841.5 190 Q861 172 869 155 L869 70 Q863 58 850 44 Q837 30 818 19 Q799 8 773.5 0.5 Q748 -7 716 -7 Q684 -7 658.5 0.5 Q633 8 614 19 Q595 30 582.5 44 Q570 58 564 70 L564 155 Q572 172 591 190 Q610 208 640 220 Q613 231 597 246 Q581 261 573 271 L573 363 Q578 371 589 382 Q600 393 617.5 403.5 Q635 414 659.5 421 Q684 428 716 428 Q748 428 772.5 421 Q797 414 814.5 403.5 Q832 393 843 382 Q854 371 859 363 L859 271 Q852 261 836 246 Q820 231 792 220 Z M619 280 Q629 266 652.5 252 Q676 238 716 238 Q756 238 780 252 Q804 266 814 280 L814 348 Q804 361 780 375.5 Q756 390 716 390 Q676 390 652.5 375.5 Q629 361 619 348 L619 280 Z M821 151 Q811 171 783.5 186.5 Q756 202 716 202 Q676 202 648.5 186.5 Q621 171 611 151 L611 82 Q621 62 648.5 46 Q676 30 716 30 Q756 30 783.5 46 Q811 62 821 82 L821 151 Z " />
<glyph glyph-name="seveneighths" unicode="&#x215e;" horiz-adv-x="907" d="M790 220 Q820 208 839.5 190 Q859 172 867 155 L867 70 Q861 58 848 44 Q835 30 816 19 Q797 8 771.5 0.5 Q746 -7 714 -7 Q682 -7 656.5 0.5 Q631 8 612 19 Q593 30 580.5 44 Q568 58 562 70 L562 155 Q570 172 589 190 Q608 208 638 220 Q611 231 595 246 Q579 261 571 271 L571 363 Q576 371 587 382 Q598 393 615.5 403.5 Q633 414 657.5 421 Q682 428 714 428 Q746 428 770.5 421 Q795 414 812.5 403.5 Q830 393 841 382 Q852 371 857 363 L857 271 Q850 261 834 246 Q818 231 790 220 Z M617 280 Q627 266 650.5 252 Q674 238 714 238 Q754 238 778 252 Q802 266 812 280 L812 348 Q802 361 778 375.5 Q754 390 714 390 Q674 390 650.5 375.5 Q627 361 617 348 L617 280 Z M819 151 Q809 171 781.5 186.5 Q754 202 714 202 Q674 202 646.5 186.5 Q619 171 609 151 L609 82 Q619 62 646.5 46 Q674 30 714 30 Q754 30 781.5 46 Q809 62 819 82 L819 151 Z M146 280 L110 280 L110 311 L287 657 L287 659 L39 659 L39 700 L337 700 L337 664 L146 280 Z M178 0 L146 0 L146 29 L644 700 L675 700 L675 671 L178 0 Z " />
<glyph glyph-name="threeeighths" unicode="&#x215c;" horiz-adv-x="960" d="M841 220 Q871 208 890.5 190 Q910 172 918 155 L918 70 Q912 58 899 44 Q886 30 867 19 Q848 8 822.5 0.5 Q797 -7 765 -7 Q733 -7 707.5 0.5 Q682 8 663 19 Q644 30 631.5 44 Q619 58 613 70 L613 155 Q621 172 640 190 Q659 208 689 220 Q662 231 646 246 Q630 261 622 271 L622 363 Q627 371 638 382 Q649 393 666.5 403.5 Q684 414 708.5 421 Q733 428 765 428 Q797 428 821.5 421 Q846 414 863.5 403.5 Q881 393 892 382 Q903 371 908 363 L908 271 Q901 261 885 246 Q869 231 841 220 Z M668 280 Q678 266 701.5 252 Q725 238 765 238 Q805 238 829 252 Q853 266 863 280 L863 348 Q853 361 829 375.5 Q805 390 765 390 Q725 390 701.5 375.5 Q678 361 668 348 L668 280 Z M870 151 Q860 171 832.5 186.5 Q805 202 765 202 Q725 202 697.5 186.5 Q670 171 660 151 L660 82 Q670 62 697.5 46 Q725 30 765 30 Q805 30 832.5 46 Q860 62 870 82 L870 151 Z M198 708 Q229 708 253.5 700.5 Q278 693 295.5 682.5 Q313 672 324.5 660.5 Q336 649 341 640 L341 555 Q335 544 316.5 528 Q298 512 266 502 Q302 493 323 473.5 Q344 454 352 437 L352 350 Q346 338 333.5 324.5 Q321 311 301.5 299.5 Q282 288 256.5 280.5 Q231 273 199 273 Q167 273 141.5 280.5 Q116 288 96.5 299 Q77 310 64.5 322.5 Q52 335 46 346 L46 378 L84 378 Q93 352 123.5 332 Q154 312 199 312 Q239 312 267 328 Q295 344 305 364 L305 429 Q295 449 267.5 465 Q240 481 200 481 L154 481 L154 519 L195 519 Q234 519 259.5 533.5 Q285 548 294 562 L294 627 Q285 640 261 654.5 Q237 669 198 669 Q174 669 156.5 663.5 Q139 658 126.5 649.5 Q114 641 105.5 630.5 Q97 620 92 611 L56 611 L56 643 Q61 651 72 662 Q83 673 100.5 683.5 Q118 694 142 701 Q166 708 198 708 Z M248 0 L216 0 L216 29 L714 700 L745 700 L745 671 L248 0 Z " />
<glyph glyph-name="twothirds" unicode="&#x2154;" horiz-adv-x="1009" d="M814 428 Q845 428 869.5 420.5 Q894 413 911.5 402.5 Q929 392 940.5 380.5 Q952 369 957 360 L957 275 Q951 264 932.5 248 Q914 232 882 222 Q918 213 939 193.5 Q960 174 968 157 L968 70 Q962 58 949.5 44.5 Q937 31 917.5 19.5 Q898 8 872.5 0.5 Q847 -7 815 -7 Q783 -7 757.5 0.5 Q732 8 712.5 19 Q693 30 680.5 42.5 Q668 55 662 66 L662 98 L700 98 Q709 72 739.5 52 Q770 32 815 32 Q855 32 883 48 Q911 64 921 84 L921 149 Q911 169 883.5 185 Q856 201 816 201 L770 201 L770 239 L811 239 Q850 239 875.5 253.5 Q901 268 910 282 L910 347 Q901 360 877 374.5 Q853 389 814 389 Q790 389 772.5 383.5 Q755 378 742.5 369.5 Q730 361 721.5 350.5 Q713 340 708 331 L672 331 L672 363 Q677 371 688 382 Q699 393 716.5 403.5 Q734 414 758 421 Q782 428 814 428 Z M199 708 Q230 708 255.5 700.5 Q281 693 300.5 682 Q320 671 333 656.5 Q346 642 352 629 L352 554 Q341 529 316.5 508 Q292 487 252 462 L184 419 Q142 393 122.5 375 Q103 357 95 339 L95 321 L358 321 L358 280 L50 280 L50 349 Q57 362 64.5 373 Q72 384 83.5 395.5 Q95 407 113.5 421 Q132 435 161 453 L227 495 Q259 516 277.5 531.5 Q296 547 304 566 L304 618 Q294 636 268 652.5 Q242 669 199 669 Q175 669 156.5 663 Q138 657 124 648 Q110 639 101.5 628 Q93 617 89 607 L49 607 L49 636 Q55 647 67.5 659.5 Q80 672 99 683 Q118 694 143 701 Q168 708 199 708 Z M287 0 L255 0 L255 29 L753 700 L784 700 L784 671 L287 0 Z " />
<glyph glyph-name="uniE000" unicode="&#xe000;" horiz-adv-x="998" d="M259 0 L227 0 L227 29 L725 700 L756 700 L756 671 L259 0 Z M210 670 Q170 670 142.5 654 Q115 638 105 618 L105 502 Q124 519 152 530.5 Q180 542 218 542 Q247 542 270.5 535.5 Q294 529 312 518.5 Q330 508 342 495.5 Q354 483 360 471 L360 346 Q354 335 342 322.5 Q330 310 311 299 Q292 288 267 280.5 Q242 273 210 273 Q178 273 153 280.5 Q128 288 108.5 299 Q89 310 76.5 324 Q64 338 58 350 L58 631 Q64 643 76.5 656.5 Q89 670 108.5 681.5 Q128 693 153 700.5 Q178 708 210 708 Q242 708 267 701 Q292 694 311 683 Q330 672 342 659 Q354 646 360 635 L360 607 L321 607 Q310 633 281.5 651.5 Q253 670 210 670 Z M210 506 Q174 506 147.5 493 Q121 480 105 462 L105 362 Q115 342 142.5 325.5 Q170 309 210 309 Q250 309 278 325.5 Q306 342 315 362 L315 454 Q306 474 278 490 Q250 506 210 506 Z M853 220 Q883 208 902.5 190 Q922 172 930 155 L930 70 Q924 58 911 44 Q898 30 879 19 Q860 8 834.5 0.5 Q809 -7 777 -7 Q745 -7 719.5 0.5 Q694 8 675 19 Q656 30 643.5 44 Q631 58 625 70 L625 155 Q633 172 652 190 Q671 208 701 220 Q674 231 658 246 Q642 261 634 271 L634 363 Q639 371 650 382 Q661 393 678.5 403.5 Q696 414 720.5 421 Q745 428 777 428 Q809 428 833.5 421 Q858 414 875.5 403.5 Q893 393 904 382 Q915 371 920 363 L920 271 Q913 261 897 246 Q881 231 853 220 Z M680 280 Q690 266 713.5 252 Q737 238 777 238 Q817 238 841 252 Q865 266 875 280 L875 348 Q865 361 841 375.5 Q817 390 777 390 Q737 390 713.5 375.5 Q690 361 680 348 L680 280 Z M882 151 Q872 171 844.5 186.5 Q817 202 777 202 Q737 202 709.5 186.5 Q682 171 672 151 L672 82 Q682 62 709.5 46 Q737 30 777 30 Q817 30 844.5 46 Q872 62 882 82 L882 151 Z " />
<glyph glyph-name="uniE001" unicode="&#xe001;" horiz-adv-x="1252" d="M247 315 L247 280 L47 280 L47 315 L125 315 L125 658 L46 648 L46 679 L138 700 L172 700 L172 315 L247 315 Z M1056 390 Q1016 390 988.5 374 Q961 358 951 338 L951 222 Q970 239 998 250.5 Q1026 262 1064 262 Q1093 262 1116.5 255.5 Q1140 249 1158 238.5 Q1176 228 1188 215.5 Q1200 203 1206 191 L1206 66 Q1200 55 1188 42.5 Q1176 30 1157 19 Q1138 8 1113 0.5 Q1088 -7 1056 -7 Q1024 -7 999 0.5 Q974 8 954.5 19 Q935 30 922.5 44 Q910 58 904 70 L904 351 Q910 363 922.5 376.5 Q935 390 954.5 401.5 Q974 413 999 420.5 Q1024 428 1056 428 Q1088 428 1113 421 Q1138 414 1157 403 Q1176 392 1188 379 Q1200 366 1206 355 L1206 327 L1167 327 Q1156 353 1127.5 371.5 Q1099 390 1056 390 Z M1056 226 Q1020 226 993.5 213 Q967 200 951 182 L951 82 Q961 62 988.5 45.5 Q1016 29 1056 29 Q1096 29 1124 45.5 Q1152 62 1161 82 L1161 174 Q1152 194 1124 210 Q1096 226 1056 226 Z M195 0 L163 0 L163 29 L661 700 L692 700 L692 671 L195 0 Z M812 35 L812 0 L612 0 L612 35 L690 35 L690 378 L611 368 L611 399 L703 420 L737 420 L737 35 L812 35 Z " />
<glyph glyph-name="percent" unicode="&#x25;" horiz-adv-x="874" d="M201 708 Q233 708 258.5 700.5 Q284 693 303 681 Q322 669 334.5 654.5 Q347 640 353 626 L353 432 Q347 418 334.5 403.5 Q322 389 303 377.5 Q284 366 258.5 358.5 Q233 351 201 351 Q169 351 143.5 358.5 Q118 366 99 377.5 Q80 389 67 403.5 Q54 418 48 432 L48 626 Q54 640 67 654.5 Q80 669 99 681 Q118 693 143.5 700.5 Q169 708 201 708 Z M204 0 L173 0 L173 29 L670 700 L702 700 L702 671 L204 0 Z M201 671 Q161 671 133.5 654.5 Q106 638 96 617 L96 441 Q106 421 133.5 405 Q161 389 201 389 Q241 389 268 405 Q295 421 305 441 L305 617 Q295 638 268 654.5 Q241 671 201 671 Z M673 350 Q705 350 730.5 342.5 Q756 335 775 323 Q794 311 807 296.5 Q820 282 826 268 L826 74 Q820 60 807 45.5 Q794 31 775 19.5 Q756 8 730.5 0.5 Q705 -7 673 -7 Q641 -7 615.5 0.5 Q590 8 571 19.5 Q552 31 539.5 45.5 Q527 60 521 74 L521 268 Q527 282 539.5 296.5 Q552 311 571 323 Q590 335 615.5 342.5 Q641 350 673 350 Z M673 312 Q634 312 606.5 296 Q579 280 568 259 L568 83 Q579 63 606.5 46.5 Q634 30 673 30 Q713 30 740 46.5 Q767 63 777 83 L777 259 Q767 280 740 296 Q713 312 673 312 Z " />
<glyph glyph-name="perthousand" unicode="&#x2030;" horiz-adv-x="1249" d="M201 708 Q233 708 258.5 700.5 Q284 693 303 681 Q322 669 334.5 654.5 Q347 640 353 626 L353 432 Q347 418 334.5 403.5 Q322 389 303 377.5 Q284 366 258.5 358.5 Q233 351 201 351 Q169 351 143.5 358.5 Q118 366 99 377.5 Q80 389 67 403.5 Q54 418 48 432 L48 626 Q54 640 67 654.5 Q80 669 99 681 Q118 693 143.5 700.5 Q169 708 201 708 Z M204 0 L173 0 L173 29 L670 700 L702 700 L702 671 L204 0 Z M201 671 Q161 671 133.5 654.5 Q106 638 96 617 L96 441 Q106 421 133.5 405 Q161 389 201 389 Q241 389 268 405 Q295 421 305 441 L305 617 Q295 638 268 654.5 Q241 671 201 671 Z M673 350 Q705 350 730.5 342.5 Q756 335 775 323 Q794 311 807 296.5 Q820 282 826 268 L826 74 Q820 60 807 45.5 Q794 31 775 19.5 Q756 8 730.5 0.5 Q705 -7 673 -7 Q641 -7 615.5 0.5 Q590 8 571 19.5 Q552 31 539.5 45.5 Q527 60 521 74 L521 268 Q527 282 539.5 296.5 Q552 311 571 323 Q590 335 615.5 342.5 Q641 350 673 350 Z M1048 350 Q1080 350 1105.5 342.5 Q1131 335 1150 323 Q1169 311 1181.5 296.5 Q1194 282 1200 268 L1200 74 Q1194 60 1181.5 45.5 Q1169 31 1150 19.5 Q1131 8 1105.5 0.5 Q1080 -7 1048 -7 Q1016 -7 990.5 0.5 Q965 8 946 19.5 Q927 31 914.5 45.5 Q902 60 896 74 L896 268 Q902 282 914.5 296.5 Q927 311 946 323 Q965 335 990.5 342.5 Q1016 350 1048 350 Z M673 312 Q634 312 606.5 296 Q579 280 568 259 L568 83 Q579 63 606.5 46.5 Q634 30 673 30 Q713 30 740 46.5 Q767 63 777 83 L777 259 Q767 280 740 296 Q713 312 673 312 Z M1048 312 Q1008 312 980.5 296 Q953 280 943 259 L943 83 Q953 63 980.5 46.5 Q1008 30 1048 30 Q1088 30 1115 46.5 Q1142 63 1152 83 L1152 259 Q1142 280 1115 296 Q1088 312 1048 312 Z " />
<glyph glyph-name="plus" unicode="&#x2b;" horiz-adv-x="582" d="M315 315 L315 94 L266 94 L266 315 L46 315 L46 364 L266 364 L266 583 L315 583 L315 364 L535 364 L535 315 L315 315 Z " />
<glyph glyph-name="minus" unicode="&#x2212;" horiz-adv-x="582" d="M46 315 L46 364 L535 364 L535 315 L46 315 Z " />
<glyph glyph-name="plusminus" unicode="&#xb1;" horiz-adv-x="582" d="M535 357 L315 357 L315 158 L266 158 L266 357 L46 357 L46 406 L266 406 L266 605 L315 605 L315 406 L535 406 L535 357 Z M535 81 L535 32 L46 32 L46 81 L535 81 Z " />
<glyph glyph-name="multiply" unicode="&#xd7;" horiz-adv-x="582" d="M325 339 L514 149 L514 117 L477 117 L290 303 L104 117 L66 117 L66 149 L255 339 L66 528 L66 561 L104 561 L290 374 L477 561 L514 561 L514 528 L325 339 Z " />
<glyph glyph-name="divide" unicode="&#xf7;" horiz-adv-x="582" d="M46 315 L46 364 L535 364 L535 315 L46 315 Z M291 212 Q306 212 316 206.5 Q326 201 328 195 L328 150 Q326 145 316 139 Q306 133 291 133 Q276 133 266 139 Q256 145 253 150 L253 195 Q256 201 266 206.5 Q276 212 291 212 Z M291 548 Q306 548 316 542.5 Q326 537 328 531 L328 486 Q326 481 316 475 Q306 469 291 469 Q276 469 266 475 Q256 481 253 486 L253 531 Q256 537 266 542.5 Q276 548 291 548 Z " />
<glyph glyph-name="equal" unicode="&#x3d;" horiz-adv-x="582" d="M46 213 L46 262 L535 262 L535 213 L46 213 Z M46 417 L46 466 L535 466 L535 417 L46 417 Z " />
<glyph glyph-name="notequal" unicode="&#x2260;" horiz-adv-x="582" d="M284 262 L535 262 L535 213 L264 213 L215 94 L166 94 L215 213 L46 213 L46 262 L235 262 L298 416 L46 416 L46 465 L318 465 L366 583 L415 583 L367 465 L535 465 L535 416 L347 416 L284 262 Z " />
<glyph glyph-name="approxequal" unicode="&#x2248;" horiz-adv-x="582" d="M170 290 Q206 290 240 282 Q274 274 307 264.5 Q340 255 372.5 247 Q405 239 438 239 Q463 239 483.5 246 Q504 253 519 261 Q537 271 550 283 L550 224 Q537 214 520 207 Q506 200 485.5 195 Q465 190 439 190 Q400 190 366 198 Q332 206 299.5 215.5 Q267 225 235 233 Q203 241 168 241 Q139 241 114 233 Q89 225 71 215 Q50 204 32 190 L32 244 Q48 256 69 267 Q87 275 112.5 282.5 Q138 290 170 290 Z M170 494 Q206 494 240 486 Q274 478 307 468.5 Q340 459 372.5 451 Q405 443 438 443 Q463 443 483.5 450 Q504 457 519 465 Q537 475 550 487 L550 428 Q537 418 520 411 Q506 404 485.5 399 Q465 394 439 394 Q400 394 366 402 Q332 410 299.5 419.5 Q267 429 235 437 Q203 445 168 445 Q139 445 114 437 Q89 429 71 419 Q50 408 32 394 L32 448 Q48 460 69 471 Q87 479 112.5 486.5 Q138 494 170 494 Z " />
<glyph glyph-name="less" unicode="&#x3c;" horiz-adv-x="582" d="M107 300 L548 102 L548 66 L507 66 L33 282 L33 320 L507 536 L548 536 L548 500 L107 300 Z " />
<glyph glyph-name="greater" unicode="&#x3e;" horiz-adv-x="582" d="M548 282 L75 66 L33 66 L33 102 L474 300 L33 500 L33 536 L75 536 L548 320 L548 282 Z " />
<glyph glyph-name="lessequal" unicode="&#x2264;" horiz-adv-x="582" d="M135 351 L535 189 L535 152 L494 152 L46 331 L46 363 L494 549 L535 549 L535 512 L135 351 Z M46 32 L46 81 L535 81 L535 32 L46 32 Z " />
<glyph glyph-name="greaterequal" unicode="&#x2265;" horiz-adv-x="582" d="M535 331 L88 152 L46 152 L46 189 L447 351 L46 512 L46 549 L88 549 L535 363 L535 331 Z M46 32 L46 81 L535 81 L535 32 L46 32 Z " />
<glyph glyph-name="logicalnot" unicode="&#xac;" horiz-adv-x="582" d="M486 94 L486 315 L46 315 L46 364 L535 364 L535 94 L486 94 Z " />
<glyph glyph-name="Delta" unicode="&#x2206;" horiz-adv-x="599" d="M566 0 L33 0 L33 43 L256 700 L342 700 L566 43 L566 0 Z M299 646 L296 646 L97 52 L497 52 L299 646 Z " />
<glyph glyph-name="Omega" unicode="&#x2126;" horiz-adv-x="627" d="M415 52 L558 52 L558 0 L355 0 L355 76 Q409 85 444.5 117.5 Q480 150 496 190 L496 546 Q477 594 429.5 627.5 Q382 661 314 661 Q246 661 198.5 628 Q151 595 131 546 L131 190 Q147 151 183 118.5 Q219 86 273 76 L273 0 L69 0 L69 52 L211 52 Q159 70 122.5 106 Q86 142 69 184 L69 562 Q95 623 156.5 668 Q218 713 314 713 Q410 713 470.5 668 Q531 623 558 562 L558 184 Q541 142 504.5 106.5 Q468 71 415 52 Z " />
<glyph glyph-name="mu" unicode="&#xb5;" horiz-adv-x="540" d="M468 0 L413 0 L413 48 Q389 24 350 6 Q311 -12 253 -12 Q210 -12 178.5 -1.5 Q147 9 125 24 L125 -166 L68 -166 L68 536 L125 536 L125 103 Q131 95 142 83.5 Q153 72 169.5 61.5 Q186 51 208.5 44 Q231 37 262 37 Q316 37 353.5 56 Q391 75 410 100 L410 536 L468 536 L468 0 Z " />
<glyph glyph-name="pi" unicode="&#x3c0;" horiz-adv-x="709" d="M492 492 L492 103 Q496 95 503.5 84 Q511 73 525 63.5 Q539 54 560.5 47 Q582 40 615 40 Q631 40 645 41 Q659 42 667 44 L667 -1 Q660 -3 641 -5.5 Q622 -8 597 -8 Q555 -8 527 1.5 Q499 11 480.5 24.5 Q462 38 451.5 53.5 Q441 69 435 82 L435 492 L192 492 L192 0 L134 0 L134 492 L42 492 L42 536 L666 536 L666 492 L492 492 Z " />
<glyph glyph-name="degree" unicode="&#xb0;" horiz-adv-x="369" d="M185 807 Q217 807 242 799 Q267 791 285 779 Q303 767 314.5 753.5 Q326 740 332 730 L332 602 Q326 591 314.5 578 Q303 565 285 553.5 Q267 542 242 534 Q217 526 185 526 Q153 526 128 534 Q103 542 85 553.5 Q67 565 55 578 Q43 591 38 602 L38 730 Q43 740 55 753.5 Q67 767 85 779 Q103 791 128 799 Q153 807 185 807 Z M184 766 Q142 766 117.5 749.5 Q93 733 82 716 L82 617 Q93 599 117.5 582.5 Q142 566 184 566 Q226 566 251 582.5 Q276 599 287 617 L287 716 Q276 733 251 749.5 Q226 766 184 766 Z " />
<glyph glyph-name="infinity" unicode="&#x221e;" horiz-adv-x="788" d="M555 521 Q587 521 612.5 513.5 Q638 506 657 494 Q676 482 689 467.5 Q702 453 708 439 L708 263 Q702 249 689 234.5 Q676 220 657 208 Q638 196 612.5 188.5 Q587 181 555 181 Q523 181 499.5 188.5 Q476 196 458 208 Q440 220 427.5 234.5 Q415 249 405 263 L393 292 L382 263 Q372 249 359.5 234.5 Q347 220 329 208 Q311 196 287.5 188.5 Q264 181 232 181 Q200 181 175 188.5 Q150 196 130.5 208 Q111 220 98.5 234.5 Q86 249 80 263 L80 439 Q86 453 98.5 467.5 Q111 482 130.5 494 Q150 506 175 513.5 Q200 521 232 521 Q264 521 287.5 513.5 Q311 506 329 494 Q347 482 359.5 467.5 Q372 453 382 439 L394 410 L405 439 Q415 453 427.5 467.5 Q440 482 458 494 Q476 506 499.5 513.5 Q523 521 555 521 Z M339 428 Q325 450 299 466 Q273 482 233 482 Q193 482 165.5 466 Q138 450 128 428 L128 274 Q138 253 165.5 236.5 Q193 220 233 220 Q273 220 299 236.5 Q325 253 339 274 L370 351 L339 428 Z M659 429 Q649 450 622 466 Q595 482 556 482 Q516 482 489 466 Q462 450 448 429 L417 351 L448 274 Q462 253 489 236.5 Q516 220 556 220 Q595 220 622 236.5 Q649 253 659 274 L659 429 Z " />
<glyph glyph-name="partialdiff" unicode="&#x2202;" horiz-adv-x="541" d="M185 730 Q233 714 280.5 690 Q328 666 368.5 636.5 Q409 607 439 574 Q469 541 482 508 L482 117 Q473 96 456.5 73 Q440 50 414 31 Q388 12 353 -0.5 Q318 -13 272 -13 Q226 -13 190.5 -0.5 Q155 12 129 31 Q103 50 86.5 73 Q70 96 61 117 L61 362 Q69 384 85 406.5 Q101 429 126.5 448 Q152 467 186 479 Q220 491 264 491 Q323 491 361 471 Q399 451 425 425 L425 493 Q412 525 383 555 Q354 585 316 611.5 Q278 638 234.5 659.5 Q191 681 149 695 L185 730 Z M272 442 Q211 442 172 413.5 Q133 385 118 348 L118 131 Q133 94 171.5 65 Q210 36 271 36 Q302 36 327 44 Q352 52 371.5 65 Q391 78 404 95.5 Q417 113 425 131 L425 357 Q416 373 402 388 Q388 403 369 415 Q350 427 326 434.5 Q302 442 272 442 Z " />
<glyph glyph-name="integral" unicode="&#x222b;" horiz-adv-x="447" d="M355 712 Q379 712 399 709.5 Q419 707 427 704 L427 664 L372 664 Q340 664 318.5 657 Q297 650 283.5 640 Q270 630 262.5 619 Q255 608 252 600 L252 -93 Q246 -106 235.5 -121.5 Q225 -137 207 -150.5 Q189 -164 161 -173.5 Q133 -183 92 -183 Q68 -183 48 -180.5 Q28 -178 20 -175 L20 -135 L75 -135 Q107 -135 128.5 -128 Q150 -121 163.5 -111 Q177 -101 184.5 -90 Q192 -79 195 -71 L195 622 Q201 635 211.5 650.5 Q222 666 240 679.5 Q258 693 286 702.5 Q314 712 355 712 Z " />
<glyph glyph-name="radical" unicode="&#x221a;" horiz-adv-x="582" d="M553 667 L322 0 L252 0 L80 490 L20 490 L20 536 L125 536 L287 73 L289 73 L503 700 L553 700 L553 667 Z " />
<glyph glyph-name="summation" unicode="&#x2211;" horiz-adv-x="557" d="M341 323 L341 279 L126 -51 L506 -51 L506 -100 L50 -100 L50 -57 L283 301 L50 657 L50 700 L506 700 L506 651 L126 651 L341 323 Z " />
<glyph glyph-name="product" unicode="&#x220f;" horiz-adv-x="651" d="M500 -100 L500 651 L152 651 L152 -100 L90 -100 L90 700 L562 700 L562 -100 L500 -100 Z " />
<glyph glyph-name="lozenge" unicode="&#x25ca;" horiz-adv-x="571" d="M321 0 L258 0 L54 350 L258 700 L321 700 L526 350 L321 0 Z M290 58 L461 350 L290 642 L119 350 L290 58 Z " />
<glyph glyph-name="arrowleft" unicode="&#x2190;" horiz-adv-x="760" d="M0 370 L329 700 L365 700 L365 659 L79 375 L760 375 L760 324 L80 324 L365 41 L365 0 L329 0 L0 329 L0 370 Z " />
<glyph glyph-name="arrowright" unicode="&#x2192;" horiz-adv-x="760" d="M760 329 L431 0 L395 0 L395 41 L680 324 L0 324 L0 375 L681 375 L395 659 L395 700 L431 700 L760 370 L760 329 Z " />
<glyph glyph-name="arrowup" unicode="&#x2191;" horiz-adv-x="760" d="M730 398 L690 398 L409 681 L409 0 L353 0 L353 681 L70 398 L30 398 L30 430 L360 760 L401 760 L730 430 L730 398 Z " />
<glyph glyph-name="arrowdown" unicode="&#x2193;" horiz-adv-x="760" d="M730 270 L401 -60 L360 -60 L30 270 L30 302 L70 302 L353 19 L353 700 L409 700 L409 19 L690 302 L730 302 L730 270 Z " />
<glyph glyph-name="uni0410" unicode="&#x410;" horiz-adv-x="599" d="M566 0 L515 0 L443 216 L152 216 L80 0 L33 0 L33 43 L256 700 L342 700 L566 43 L566 0 Z M299 646 L296 646 L170 268 L426 268 L299 646 Z " />
<glyph glyph-name="uni0411" unicode="&#x411;" horiz-adv-x="573" d="M329 415 Q359 415 388.5 406.5 Q418 398 444.5 383 Q471 368 492 348 Q513 328 527 304 L527 118 Q516 98 498 77 Q480 56 455.5 39 Q431 22 398.5 11 Q366 0 326 0 L82 0 L82 700 L514 700 L514 648 L144 648 L144 415 L329 415 Z M468 283 Q458 300 442 315 Q426 330 407 341 Q388 352 366 358 Q344 364 322 364 L144 364 L144 52 L312 52 Q376 52 412 77 Q448 102 468 139 L468 283 Z " />
<glyph glyph-name="uni0412" unicode="&#x412;" horiz-adv-x="581" d="M414 365 Q446 354 479 329.5 Q512 305 530 273 L530 118 Q518 97 500.5 76 Q483 55 458.5 38 Q434 21 401.5 10.5 Q369 0 328 0 L82 0 L82 700 L322 700 Q356 700 385 690.5 Q414 681 438.5 665.5 Q463 650 482 628.5 Q501 607 514 583 L514 453 Q498 425 470.5 402 Q443 379 414 365 Z M319 387 Q356 387 394.5 409 Q433 431 456 466 L456 563 Q435 602 396 625 Q357 648 309 648 L144 648 L144 387 L319 387 Z M471 256 Q461 273 445 288 Q429 303 410 313.5 Q391 324 369 330 Q347 336 325 336 L144 336 L144 52 L315 52 Q379 52 415 77 Q451 102 471 138 L471 256 Z " />
<glyph glyph-name="uni0413" unicode="&#x413;" horiz-adv-x="487" d="M144 648 L144 0 L82 0 L82 700 L462 700 L462 648 L144 648 Z " />
<glyph glyph-name="uni0414" unicode="&#x414;" horiz-adv-x="672" d="M639 -138 L583 -138 L583 0 L84 0 L84 -138 L28 -138 L28 52 Q45 57 62 66 Q79 75 93.5 86 Q108 97 118.5 109 Q129 121 133 132 L197 700 L557 700 L557 52 L639 52 L639 -138 Z M495 648 L248 648 L191 118 Q174 77 121 52 L495 52 L495 648 Z " />
<glyph glyph-name="uni0415" unicode="&#x415;" horiz-adv-x="542" d="M144 648 L144 387 L459 387 L459 336 L144 336 L144 52 L491 52 L491 0 L82 0 L82 700 L482 700 L482 648 L144 648 Z " />
<glyph glyph-name="uni0416" unicode="&#x416;" horiz-adv-x="840" d="M618 370 L806 43 L806 0 L761 0 L567 341 L450 341 L450 0 L390 0 L390 341 L272 341 L79 0 L33 0 L33 43 L221 371 L43 657 L43 700 L84 700 L272 393 L390 393 L390 700 L450 700 L450 393 L567 393 L756 700 L797 700 L797 657 L618 370 Z " />
<glyph glyph-name="uni0417" unicode="&#x417;" horiz-adv-x="596" d="M528 471 Q516 445 485.5 413 Q455 381 405 361 Q455 341 485.5 309 Q516 277 528 251 L528 118 Q518 100 500.5 77 Q483 54 454.5 34 Q426 14 386.5 0.5 Q347 -13 294 -13 Q241 -13 201 1 Q161 15 132.5 35 Q104 55 86 77.5 Q68 100 59 118 L59 156 L110 156 Q117 136 132.5 115 Q148 94 171 77 Q194 60 225 49.5 Q256 39 294 39 Q330 39 358.5 48.5 Q387 58 409 72 Q431 86 445.5 103.5 Q460 121 468 136 L468 238 Q460 254 445.5 271 Q431 288 409.5 303 Q388 318 358.5 327 Q329 336 293 335 L224 335 L224 387 L293 387 Q329 385 358.5 394.5 Q388 404 409.5 418.5 Q431 433 445.5 450.5 Q460 468 468 483 L468 565 Q460 580 445.5 597 Q431 614 409 628.5 Q387 643 358.5 652.5 Q330 662 294 662 Q256 662 225 651.5 Q194 641 171 624 Q148 607 132.5 585.5 Q117 564 110 544 L59 544 L59 583 Q68 600 86 622.5 Q104 645 132.5 665 Q161 685 201 699 Q241 713 294 713 Q347 713 386.5 699.5 Q426 686 454.5 666 Q483 646 501 623.5 Q519 601 528 583 L528 471 Z " />
</font>
</svg>
