<?xml version="1.0" encoding="UTF-8"?>
<svg xmlns="http://www.w3.org/2000/svg" xmlns:xlink="http://www.w3.org/1999/xlink" version="1.2" >
<font id="Cadillac Sans Thin">
<font-face  font-family="Cadillac Sans" units-per-em="1000" ascent="750" descent="-250" font-style="normal" font-weight="100" font-stretch="normal" cap-height="700" x-height="534" underline-position="-75" underline-thickness="50" />
<missing-glyph  horiz-adv-x="595" d="M100 -100 L100 800 L495 800 L495 -100 L100 -100 Z M130 -73 L465 -73 L465 773 L130 773 L130 -73 Z " />
<glyph glyph-name=".null" d="" />
<glyph glyph-name="nonmarkingreturn" unicode="&#xd;" horiz-adv-x="196" d="" />
<glyph glyph-name="space" unicode="&#x20;" horiz-adv-x="210" d="" />
<glyph glyph-name="A" unicode="A" horiz-adv-x="589" d="M554 0 L532 0 L450 233 L138 233 L56 0 L35 0 L35 28 L272 700 L316 700 L554 28 L554 0 Z M295 671 L292 671 L148 262 L439 262 L295 671 Z " />
<glyph glyph-name="B" unicode="B" horiz-adv-x="574" d="M393 362 Q411 356 429 346 Q447 336 464 323.5 Q481 311 495.5 295.5 Q510 280 519 264 L519 118 Q507 97 490 76 Q473 55 449 38 Q425 21 393 10.5 Q361 0 319 0 L90 0 L90 700 L313 700 Q376 700 426 667 Q476 634 503 583 L503 455 Q486 425 455.5 400.5 Q425 376 393 362 Z M319 374 Q339 374 361 380.5 Q383 387 403.5 399 Q424 411 442 428 Q460 445 473 465 L473 573 Q450 617 405 644 Q360 671 307 671 L120 671 L120 374 L319 374 Z M489 254 Q478 273 459.5 290 Q441 307 419.5 319 Q398 331 373.5 338 Q349 345 325 345 L120 345 L120 29 L313 29 Q349 29 376.5 36.5 Q404 44 425 57.5 Q446 71 462 89 Q478 107 489 128 L489 254 Z " />
<glyph glyph-name="C" unicode="C" horiz-adv-x="607" d="M313 713 Q364 713 403.5 699 Q443 685 472.5 663 Q502 641 521 614 Q540 587 551 562 L551 538 L528 538 Q517 568 498 595 Q479 622 452 641.5 Q425 661 390 672.5 Q355 684 313 684 Q272 684 238 673 Q204 662 178 643.5 Q152 625 133.5 601 Q115 577 105 552 L105 149 Q115 123 133.5 99.5 Q152 76 178 57.5 Q204 39 238 28 Q272 17 313 17 Q355 17 390 28.5 Q425 40 452 59.5 Q479 79 498 106 Q517 133 528 163 L551 163 L551 139 Q540 113 521 86.5 Q502 60 472.5 38 Q443 16 403.5 2 Q364 -12 313 -12 Q262 -12 222.5 2 Q183 16 153.5 38 Q124 60 105 86.5 Q86 113 75 139 L75 562 Q86 587 105 614 Q124 641 153.5 663 Q183 685 222.5 699 Q262 713 313 713 Z " />
<glyph glyph-name="D" unicode="D" horiz-adv-x="621" d="M308 700 Q359 700 398.5 688 Q438 676 467.5 656.5 Q497 637 516 612 Q535 587 546 562 L546 138 Q535 112 516 87.5 Q497 63 467.5 43.5 Q438 24 398.5 12 Q359 0 308 0 L90 0 L90 700 L308 700 Z M120 29 L308 29 Q390 29 443 63 Q496 97 516 148 L516 552 Q496 603 443 637 Q390 671 308 671 L120 671 L120 29 Z " />
<glyph glyph-name="E" unicode="E" horiz-adv-x="545" d="M120 671 L120 377 L455 377 L455 348 L120 348 L120 29 L490 29 L490 0 L90 0 L90 700 L480 700 L480 671 L120 671 Z " />
<glyph glyph-name="F" unicode="F" horiz-adv-x="515" d="M120 671 L120 378 L450 378 L450 349 L120 349 L120 0 L90 0 L90 700 L470 700 L470 671 L120 671 Z " />
<glyph glyph-name="G" unicode="G" horiz-adv-x="634" d="M313 684 Q272 684 238 673 Q204 662 178 643.5 Q152 625 133.5 601 Q115 577 105 552 L105 149 Q115 123 133.5 99.5 Q152 76 178 57.5 Q204 39 238 28 Q272 17 313 17 Q354 17 387.5 28 Q421 39 447.5 57.5 Q474 76 492.5 99.5 Q511 123 521 149 L521 318 L336 318 L336 347 L551 347 L551 0 L521 0 L521 89 Q507 69 487 51 Q467 33 441.5 19 Q416 5 384 -3.5 Q352 -12 313 -12 Q262 -12 222.5 2 Q183 16 153.5 38 Q124 60 105 86.5 Q86 113 75 139 L75 562 Q86 587 105 614 Q124 641 153.5 663 Q183 685 222.5 699 Q262 713 313 713 Q364 713 403.5 699 Q443 685 472.5 663 Q502 641 521 614 Q540 587 551 562 L551 538 L528 538 Q517 568 498 595 Q479 622 452 641.5 Q425 661 390 672.5 Q355 684 313 684 Z " />
<glyph glyph-name="H" unicode="H" horiz-adv-x="636" d="M516 0 L516 346 L120 346 L120 0 L90 0 L90 700 L120 700 L120 375 L516 375 L516 700 L546 700 L546 0 L516 0 Z " />
<glyph glyph-name="I" unicode="I" horiz-adv-x="210" d="M90 0 L90 700 L120 700 L120 0 L90 0 Z " />
<glyph glyph-name="J" unicode="J" horiz-adv-x="386" d="M301 139 Q289 110 268 85 Q247 60 217.5 40.5 Q188 21 149.5 10 Q111 -1 63 -1 Q46 -1 34 -0.5 Q22 0 20 0 L20 29 L63 29 Q138 29 193 61 Q248 93 271 149 L271 700 L301 700 L301 139 Z " />
<glyph glyph-name="K" unicode="K" horiz-adv-x="567" d="M532 0 L515 0 L234 396 L120 279 L120 0 L90 0 L90 700 L120 700 L120 319 L487 700 L502 700 L502 672 L255 417 L532 28 L532 0 Z " />
<glyph glyph-name="L" unicode="L" horiz-adv-x="450" d="M425 29 L425 0 L90 0 L90 700 L120 700 L120 29 L425 29 Z " />
<glyph glyph-name="M" unicode="M" horiz-adv-x="785" d="M665 0 L665 671 L662 671 L412 200 L371 200 L123 671 L120 671 L120 0 L90 0 L90 700 L142 700 L390 229 L393 229 L643 700 L695 700 L695 0 L665 0 Z " />
<glyph glyph-name="N" unicode="N" horiz-adv-x="653" d="M512 0 L123 671 L120 671 L120 0 L90 0 L90 700 L141 700 L530 29 L533 29 L533 700 L563 700 L563 0 L512 0 Z " />
<glyph glyph-name="O" unicode="O" horiz-adv-x="626" d="M313 713 Q364 713 403.5 699 Q443 685 472.5 663 Q502 641 521 614 Q540 587 551 562 L551 139 Q540 113 521 86.5 Q502 60 472.5 38 Q443 16 403.5 2 Q364 -12 313 -12 Q262 -12 222.5 2 Q183 16 153.5 38 Q124 60 105 86.5 Q86 113 75 139 L75 562 Q86 587 105 614 Q124 641 153.5 663 Q183 685 222.5 699 Q262 713 313 713 Z M313 684 Q272 684 238 673 Q204 662 178 643.5 Q152 625 133.5 601 Q115 577 105 552 L105 149 Q115 123 133.5 99.5 Q152 76 178 57.5 Q204 39 238 28 Q272 17 313 17 Q354 17 387.5 28 Q421 39 447.5 57.5 Q474 76 492.5 99.5 Q511 123 521 149 L521 552 Q511 577 492.5 601 Q474 625 447.5 643.5 Q421 662 387.5 673 Q354 684 313 684 Z " />
<glyph glyph-name="P" unicode="P" horiz-adv-x="551" d="M306 700 Q366 700 416.5 668.5 Q467 637 496 583 L496 407 Q469 356 420 323 Q371 290 306 290 L120 290 L120 0 L90 0 L90 700 L306 700 Z M120 319 L301 319 Q352 319 396 344 Q440 369 466 417 L466 573 Q451 600 431.5 618.5 Q412 637 390 649 Q368 661 345 666 Q322 671 300 671 L120 671 L120 319 Z " />
<glyph glyph-name="Q" unicode="Q" horiz-adv-x="626" d="M551 139 Q541 116 524 91.5 Q507 67 482 46 Q457 25 423.5 9.5 Q390 -6 347 -10 Q358 -36 377 -55.5 Q396 -75 417.5 -89 Q439 -103 460 -110 Q481 -117 497 -117 L551 -117 L551 -144 L489 -144 Q464 -144 437 -133 Q410 -122 385.5 -103.5 Q361 -85 342 -61 Q323 -37 313 -12 Q262 -12 222.5 2 Q183 16 153.5 38 Q124 60 105 86.5 Q86 113 75 139 L75 562 Q86 587 105 614 Q124 641 153.5 663 Q183 685 222.5 699 Q262 713 313 713 Q364 713 403.5 699 Q443 685 472.5 663 Q502 641 521.5 614 Q541 587 551 562 L551 139 Z M313 17 Q354 17 387.5 28 Q421 39 447.5 57.5 Q474 76 492.5 99.5 Q511 123 521 149 L521 552 Q511 577 492.5 601 Q474 625 447.5 643.5 Q421 662 387.5 673 Q354 684 313 684 Q272 684 238 673 Q204 662 178 643.5 Q152 625 133.5 601 Q115 577 105 552 L105 149 Q115 123 133.5 99.5 Q152 76 178 57.5 Q204 39 238 28 Q272 17 313 17 Z " />
<glyph glyph-name="R" unicode="R" horiz-adv-x="575" d="M515 0 L498 0 L275 320 L120 320 L120 0 L90 0 L90 700 L316 700 Q376 700 426.5 668.5 Q477 637 506 583 L506 437 Q480 388 431 354 Q382 320 316 320 L311 320 L515 28 L515 0 Z M310 349 Q365 349 407.5 374.5 Q450 400 476 446 L476 573 Q450 622 405.5 646.5 Q361 671 310 671 L120 671 L120 349 L310 349 Z " />
<glyph glyph-name="S" unicode="S" horiz-adv-x="560" d="M280 712 Q324 712 358.5 702 Q393 692 419 675.5 Q445 659 463.5 639 Q482 619 494 599 L494 574 L471 574 Q448 623 399 653 Q350 683 280 683 Q213 683 167 656 Q121 629 96 589 L96 478 Q112 447 146.5 426 Q181 405 249 387 L329 366 Q376 354 406.5 340 Q437 326 456.5 311 Q476 296 487 280.5 Q498 265 506 249 L506 118 Q496 99 478 76 Q460 53 432.5 33.5 Q405 14 366.5 1 Q328 -12 277 -12 Q226 -12 186 1.5 Q146 15 117.5 34.5 Q89 54 70 77 Q51 100 42 118 L42 143 L65 143 Q74 121 92.5 98.5 Q111 76 138 58 Q165 40 200 28.5 Q235 17 277 17 Q318 17 351 28 Q384 39 409 55.5 Q434 72 450.5 91.5 Q467 111 476 128 L476 239 Q470 254 460 267.5 Q450 281 432.5 293.5 Q415 306 388.5 317.5 Q362 329 323 339 L241 360 Q200 370 171.5 382 Q143 394 123 407.5 Q103 421 89.5 436 Q76 451 66 468 L66 599 Q79 620 97.5 640 Q116 660 142 676 Q168 692 202 702 Q236 712 280 712 Z " />
<glyph glyph-name="T" unicode="T" horiz-adv-x="520" d="M275 671 L275 0 L245 0 L245 671 L25 671 L25 700 L495 700 L495 671 L275 671 Z " />
<glyph glyph-name="U" unicode="U" horiz-adv-x="646" d="M561 139 Q550 113 531 86.5 Q512 60 482.5 38 Q453 16 413.5 2 Q374 -12 323 -12 Q272 -12 232.5 2 Q193 16 163.5 38 Q134 60 115 86.5 Q96 113 85 139 L85 700 L115 700 L115 149 Q125 123 143.5 99.5 Q162 76 188 57.5 Q214 39 248 28 Q282 17 323 17 Q364 17 397.5 28 Q431 39 457.5 57.5 Q484 76 502.5 99.5 Q521 123 531 149 L531 700 L561 700 L561 139 Z " />
<glyph glyph-name="V" unicode="V" horiz-adv-x="589" d="M317 0 L273 0 L35 672 L35 700 L57 700 L294 29 L297 29 L533 700 L554 700 L554 672 L317 0 Z " />
<glyph glyph-name="W" unicode="W" horiz-adv-x="868" d="M678 0 L632 0 L435 671 L432 671 L236 0 L190 0 L40 672 L40 700 L64 700 L212 30 L215 30 L411 700 L457 700 L653 30 L656 30 L804 700 L828 700 L828 672 L678 0 Z " />
<glyph glyph-name="X" unicode="X" horiz-adv-x="568" d="M309 356 L515 28 L515 0 L498 0 L286 339 L283 339 L69 0 L52 0 L52 28 L259 355 L59 672 L59 700 L76 700 L283 372 L286 372 L494 700 L510 700 L510 672 L309 356 Z " />
<glyph glyph-name="Y" unicode="Y" horiz-adv-x="534" d="M282 321 L282 0 L252 0 L252 322 L41 672 L41 700 L58 700 L266 352 L268 352 L476 700 L493 700 L493 672 L282 321 Z " />
<glyph glyph-name="Z" unicode="Z" horiz-adv-x="568" d="M93 29 L513 29 L513 0 L55 0 L55 24 L476 671 L65 671 L65 700 L513 700 L513 676 L93 29 Z " />
<glyph glyph-name="Agrave" unicode="&#xc0;" horiz-adv-x="589" d="M554 0 L532 0 L450 233 L138 233 L56 0 L35 0 L35 28 L272 700 L316 700 L554 28 L554 0 Z M295 671 L292 671 L148 262 L439 262 L295 671 Z M301 755 L282 755 L201 879 L201 899 L224 899 L301 771 L301 755 Z " />
<glyph glyph-name="Aacute" unicode="&#xc1;" horiz-adv-x="589" d="M554 0 L532 0 L450 233 L138 233 L56 0 L35 0 L35 28 L272 700 L316 700 L554 28 L554 0 Z M295 671 L292 671 L148 262 L439 262 L295 671 Z M301 755 L282 755 L282 771 L359 899 L382 899 L382 879 L301 755 Z " />
<glyph glyph-name="Acircumflex" unicode="&#xc2;" horiz-adv-x="589" d="M554 0 L532 0 L450 233 L138 233 L56 0 L35 0 L35 28 L272 700 L316 700 L554 28 L554 0 Z M295 671 L292 671 L148 262 L439 262 L295 671 Z M415 755 L398 755 L295 879 L192 755 L175 755 L175 771 L275 899 L315 899 L415 771 L415 755 Z " />
<glyph glyph-name="Atilde" unicode="&#xc3;" horiz-adv-x="589" d="M554 0 L532 0 L450 233 L138 233 L56 0 L35 0 L35 28 L272 700 L316 700 L554 28 L554 0 Z M295 671 L292 671 L148 262 L439 262 L295 671 Z M228 847 Q250 847 267 838 Q284 829 299.5 818.5 Q315 808 330.5 799 Q346 790 363 790 Q382 790 395 800 Q408 810 413 823 L413 841 L437 841 L437 814 Q429 794 411.5 779.5 Q394 765 363 765 Q341 765 323.5 774 Q306 783 291 793.5 Q276 804 260 813 Q244 822 228 822 Q208 822 195 811.5 Q182 801 177 790 L177 771 L153 771 L153 798 Q175 847 228 847 Z " />
<glyph glyph-name="Adieresis" unicode="&#xc4;" horiz-adv-x="589" d="M554 0 L532 0 L450 233 L138 233 L56 0 L35 0 L35 28 L272 700 L316 700 L554 28 L554 0 Z M295 671 L292 671 L148 262 L439 262 L295 671 Z M205 840 Q214 840 221 837 Q228 834 230 831 L230 795 Q228 792 221 789 Q214 786 205 786 Q196 786 189 789 Q182 792 180 795 L180 831 Q182 834 189 837 Q196 840 205 840 Z M384 840 Q393 840 400 837 Q407 834 409 831 L409 795 Q407 792 400 789 Q393 786 384 786 Q375 786 368 789 Q361 792 359 795 L359 831 Q361 834 368 837 Q375 840 384 840 Z " />
<glyph glyph-name="Amacron" unicode="&#x100;" horiz-adv-x="589" d="M554 0 L532 0 L450 233 L138 233 L56 0 L35 0 L35 28 L272 700 L316 700 L554 28 L554 0 Z M295 671 L292 671 L148 262 L439 262 L295 671 Z M155 788 L155 814 L435 814 L435 788 L155 788 Z " />
<glyph glyph-name="Abreve" unicode="&#x102;" horiz-adv-x="589" d="M554 0 L532 0 L450 233 L138 233 L56 0 L35 0 L35 28 L272 700 L316 700 L554 28 L554 0 Z M295 671 L292 671 L148 262 L439 262 L295 671 Z M411 814 Q407 806 399 795 Q391 784 377 774 Q363 764 343 757.5 Q323 751 295 751 Q267 751 247 757.5 Q227 764 213 774 Q199 784 191 795 Q183 806 179 814 L179 856 L206 856 L206 823 Q208 818 213.5 810 Q219 802 229.5 794.5 Q240 787 256 781.5 Q272 776 295 776 Q317 776 333.5 781.5 Q350 787 360.5 794.5 Q371 802 376.5 810 Q382 818 384 823 L384 856 L411 856 L411 814 Z " />
<glyph glyph-name="Aring" unicode="&#xc5;" horiz-adv-x="589" d="M554 0 L532 0 L450 233 L138 233 L56 0 L35 0 L35 28 L270 695 Q247 700 230.5 711.5 Q214 723 207 736 L207 815 Q215 831 238.5 845 Q262 859 295 859 Q328 859 351.5 845 Q375 831 383 815 L383 736 Q376 723 359 711 Q342 699 318 694 L554 28 L554 0 Z M233 744 Q240 735 255 726 Q270 717 295 717 Q320 717 335 726 Q350 735 357 744 L357 807 Q350 816 335 825 Q320 834 295 834 Q270 834 255 825 Q240 816 233 807 L233 744 Z M295 671 L292 671 L148 262 L439 262 L295 671 Z " />
<glyph glyph-name="Aogonek" unicode="&#x104;" horiz-adv-x="589" d="M505 -180 Q525 -180 538 -177 Q551 -174 565 -166 L565 -192 Q551 -199 538.5 -202 Q526 -205 505 -205 Q476 -205 454.5 -192.5 Q433 -180 425 -163 L425 -102 Q434 -84 456.5 -56 Q479 -28 529 9 L450 233 L138 233 L56 0 L35 0 L35 28 L272 700 L316 700 L554 28 L554 0 Q499 -42 477 -71 Q455 -100 451 -109 L451 -153 Q455 -162 470 -171 Q485 -180 505 -180 Z M295 671 L292 671 L148 262 L439 262 L295 671 Z " />
<glyph glyph-name="AE" unicode="&#xc6;" horiz-adv-x="835" d="M780 0 L380 0 L380 257 L172 257 L45 0 L25 0 L25 28 L359 700 L770 700 L770 671 L410 671 L410 377 L745 377 L745 348 L410 348 L410 29 L780 29 L780 0 Z M380 671 L377 671 L187 286 L380 286 L380 671 Z " />
<glyph glyph-name="Cacute" unicode="&#x106;" horiz-adv-x="607" d="M313 713 Q364 713 403.5 699 Q443 685 472.5 663 Q502 641 521 614 Q540 587 551 562 L551 538 L528 538 Q517 568 498 595 Q479 622 452 641.5 Q425 661 390 672.5 Q355 684 313 684 Q272 684 238 673 Q204 662 178 643.5 Q152 625 133.5 601 Q115 577 105 552 L105 149 Q115 123 133.5 99.5 Q152 76 178 57.5 Q204 39 238 28 Q272 17 313 17 Q355 17 390 28.5 Q425 40 452 59.5 Q479 79 498 106 Q517 133 528 163 L551 163 L551 139 Q540 113 521 86.5 Q502 60 472.5 38 Q443 16 403.5 2 Q364 -12 313 -12 Q262 -12 222.5 2 Q183 16 153.5 38 Q124 60 105 86.5 Q86 113 75 139 L75 562 Q86 587 105 614 Q124 641 153.5 663 Q183 685 222.5 699 Q262 713 313 713 Z M318 755 L299 755 L299 771 L376 899 L399 899 L399 879 L318 755 Z " />
<glyph glyph-name="Ccircumflex" unicode="&#x108;" horiz-adv-x="607" d="M313 713 Q364 713 403.5 699 Q443 685 472.5 663 Q502 641 521 614 Q540 587 551 562 L551 538 L528 538 Q517 568 498 595 Q479 622 452 641.5 Q425 661 390 672.5 Q355 684 313 684 Q272 684 238 673 Q204 662 178 643.5 Q152 625 133.5 601 Q115 577 105 552 L105 149 Q115 123 133.5 99.5 Q152 76 178 57.5 Q204 39 238 28 Q272 17 313 17 Q355 17 390 28.5 Q425 40 452 59.5 Q479 79 498 106 Q517 133 528 163 L551 163 L551 139 Q540 113 521 86.5 Q502 60 472.5 38 Q443 16 403.5 2 Q364 -12 313 -12 Q262 -12 222.5 2 Q183 16 153.5 38 Q124 60 105 86.5 Q86 113 75 139 L75 562 Q86 587 105 614 Q124 641 153.5 663 Q183 685 222.5 699 Q262 713 313 713 Z M432 755 L415 755 L312 879 L209 755 L192 755 L192 771 L292 899 L332 899 L432 771 L432 755 Z " />
<glyph glyph-name="Ccaron" unicode="&#x10c;" horiz-adv-x="607" d="M313 713 Q364 713 403.5 699 Q443 685 472.5 663 Q502 641 521 614 Q540 587 551 562 L551 538 L528 538 Q517 568 498 595 Q479 622 452 641.5 Q425 661 390 672.5 Q355 684 313 684 Q272 684 238 673 Q204 662 178 643.5 Q152 625 133.5 601 Q115 577 105 552 L105 149 Q115 123 133.5 99.5 Q152 76 178 57.5 Q204 39 238 28 Q272 17 313 17 Q355 17 390 28.5 Q425 40 452 59.5 Q479 79 498 106 Q517 133 528 163 L551 163 L551 139 Q540 113 521 86.5 Q502 60 472.5 38 Q443 16 403.5 2 Q364 -12 313 -12 Q262 -12 222.5 2 Q183 16 153.5 38 Q124 60 105 86.5 Q86 113 75 139 L75 562 Q86 587 105 614 Q124 641 153.5 663 Q183 685 222.5 699 Q262 713 313 713 Z M332 755 L292 755 L192 883 L192 899 L209 899 L312 774 L415 899 L432 899 L432 883 L332 755 Z " />
<glyph glyph-name="Cdotaccent" unicode="&#x10a;" horiz-adv-x="607" d="M313 713 Q364 713 403.5 699 Q443 685 472.5 663 Q502 641 521 614 Q540 587 551 562 L551 538 L528 538 Q517 568 498 595 Q479 622 452 641.5 Q425 661 390 672.5 Q355 684 313 684 Q272 684 238 673 Q204 662 178 643.5 Q152 625 133.5 601 Q115 577 105 552 L105 149 Q115 123 133.5 99.5 Q152 76 178 57.5 Q204 39 238 28 Q272 17 313 17 Q355 17 390 28.5 Q425 40 452 59.5 Q479 79 498 106 Q517 133 528 163 L551 163 L551 139 Q540 113 521 86.5 Q502 60 472.5 38 Q443 16 403.5 2 Q364 -12 313 -12 Q262 -12 222.5 2 Q183 16 153.5 38 Q124 60 105 86.5 Q86 113 75 139 L75 562 Q86 587 105 614 Q124 641 153.5 663 Q183 685 222.5 699 Q262 713 313 713 Z M312 849 Q321 849 327.5 846 Q334 843 336 840 L336 806 Q334 803 327.5 800 Q321 797 312 797 Q303 797 296.5 800 Q290 803 288 806 L288 840 Q290 843 296.5 846 Q303 849 312 849 Z " />
<glyph glyph-name="Ccedilla" unicode="&#xc7;" horiz-adv-x="607" d="M313 684 Q272 684 238 673 Q204 662 178 643.5 Q152 625 133.5 601 Q115 577 105 552 L105 149 Q115 123 133.5 99.5 Q152 76 178 57.5 Q204 39 238 28 Q272 17 313 17 Q355 17 390 28.5 Q425 40 452 59.5 Q479 79 498 106 Q517 133 528 163 L551 163 L551 139 Q540 113 521 86.5 Q502 60 472.5 38 Q443 16 403.5 2 Q364 -12 312 -12 L294 -63 L318 -63 Q349 -63 368.5 -77 Q388 -91 396 -106 L396 -171 Q388 -186 368.5 -200 Q349 -214 318 -214 Q290 -214 268.5 -206 Q247 -198 230 -187 L238 -165 Q254 -176 273 -183.5 Q292 -191 318 -191 Q340 -191 353 -182 Q366 -173 371 -164 L371 -113 Q366 -104 353 -94.5 Q340 -85 318 -85 L262 -85 L287 -11 Q242 -7 207 8 Q172 23 146 44 Q120 65 102.5 90 Q85 115 75 139 L75 562 Q86 587 105 614 Q124 641 153.5 663 Q183 685 222.5 699 Q262 713 313 713 Q364 713 403.5 699 Q443 685 472.5 663 Q502 641 521 614 Q540 587 551 562 L551 538 L528 538 Q517 568 498 595 Q479 622 452 641.5 Q425 661 390 672.5 Q355 684 313 684 Z " />
<glyph glyph-name="Dcaron" unicode="&#x10e;" horiz-adv-x="621" d="M308 700 Q359 700 398.5 688 Q438 676 467.5 656.5 Q497 637 516 612 Q535 587 546 562 L546 138 Q535 112 516 87.5 Q497 63 467.5 43.5 Q438 24 398.5 12 Q359 0 308 0 L90 0 L90 700 L308 700 Z M120 29 L308 29 Q390 29 443 63 Q496 97 516 148 L516 552 Q496 603 443 637 Q390 671 308 671 L120 671 L120 29 Z M331 755 L291 755 L191 883 L191 899 L208 899 L311 774 L414 899 L431 899 L431 883 L331 755 Z " />
<glyph glyph-name="Dcroat" unicode="&#x110;" horiz-adv-x="651" d="M338 700 Q389 700 428.5 688 Q468 676 497.5 656.5 Q527 637 546 612 Q565 587 576 562 L576 138 Q565 112 546 87.5 Q527 63 497.5 43.5 Q468 24 428.5 12 Q389 0 338 0 L120 0 L120 342 L50 342 L50 371 L120 371 L120 700 L338 700 Z M546 552 Q526 603 473 637 Q420 671 338 671 L150 671 L150 371 L370 371 L370 342 L150 342 L150 29 L338 29 Q420 29 473 63 Q526 97 546 148 L546 552 Z " />
<glyph glyph-name="Egrave" unicode="&#xc8;" horiz-adv-x="545" d="M120 671 L120 377 L455 377 L455 348 L120 348 L120 29 L490 29 L490 0 L90 0 L90 700 L480 700 L480 671 L120 671 Z M279 755 L260 755 L179 879 L179 899 L202 899 L279 771 L279 755 Z " />
<glyph glyph-name="Eacute" unicode="&#xc9;" horiz-adv-x="545" d="M120 671 L120 377 L455 377 L455 348 L120 348 L120 29 L490 29 L490 0 L90 0 L90 700 L480 700 L480 671 L120 671 Z M279 755 L260 755 L260 771 L337 899 L360 899 L360 879 L279 755 Z " />
<glyph glyph-name="Ecircumflex" unicode="&#xca;" horiz-adv-x="545" d="M120 671 L120 377 L455 377 L455 348 L120 348 L120 29 L490 29 L490 0 L90 0 L90 700 L480 700 L480 671 L120 671 Z M393 755 L376 755 L273 879 L170 755 L153 755 L153 771 L253 899 L293 899 L393 771 L393 755 Z " />
<glyph glyph-name="Ecaron" unicode="&#x11a;" horiz-adv-x="545" d="M120 671 L120 377 L455 377 L455 348 L120 348 L120 29 L490 29 L490 0 L90 0 L90 700 L480 700 L480 671 L120 671 Z M293 755 L253 755 L153 883 L153 899 L170 899 L273 774 L376 899 L393 899 L393 883 L293 755 Z " />
<glyph glyph-name="Edieresis" unicode="&#xcb;" horiz-adv-x="545" d="M120 671 L120 377 L455 377 L455 348 L120 348 L120 29 L490 29 L490 0 L90 0 L90 700 L480 700 L480 671 L120 671 Z M183 840 Q192 840 199 837 Q206 834 208 831 L208 795 Q206 792 199 789 Q192 786 183 786 Q174 786 167 789 Q160 792 158 795 L158 831 Q160 834 167 837 Q174 840 183 840 Z M362 840 Q371 840 378 837 Q385 834 387 831 L387 795 Q385 792 378 789 Q371 786 362 786 Q353 786 346 789 Q339 792 337 795 L337 831 Q339 834 346 837 Q353 840 362 840 Z " />
<glyph glyph-name="Emacron" unicode="&#x112;" horiz-adv-x="545" d="M120 671 L120 377 L455 377 L455 348 L120 348 L120 29 L490 29 L490 0 L90 0 L90 700 L480 700 L480 671 L120 671 Z M133 788 L133 814 L413 814 L413 788 L133 788 Z " />
<glyph glyph-name="Ebreve" unicode="&#x114;" horiz-adv-x="545" d="M120 671 L120 377 L455 377 L455 348 L120 348 L120 29 L490 29 L490 0 L90 0 L90 700 L480 700 L480 671 L120 671 Z M389 814 Q385 806 377 795 Q369 784 355 774 Q341 764 321 757.5 Q301 751 273 751 Q245 751 225 757.5 Q205 764 191 774 Q177 784 169 795 Q161 806 157 814 L157 856 L184 856 L184 823 Q186 818 191.5 810 Q197 802 207.5 794.5 Q218 787 234 781.5 Q250 776 273 776 Q295 776 311.5 781.5 Q328 787 338.5 794.5 Q349 802 354.5 810 Q360 818 362 823 L362 856 L389 856 L389 814 Z " />
<glyph glyph-name="Edotaccent" unicode="&#x116;" horiz-adv-x="545" d="M120 671 L120 377 L455 377 L455 348 L120 348 L120 29 L490 29 L490 0 L90 0 L90 700 L480 700 L480 671 L120 671 Z M273 849 Q282 849 288.5 846 Q295 843 297 840 L297 806 Q295 803 288.5 800 Q282 797 273 797 Q264 797 257.5 800 Q251 803 249 806 L249 840 Q251 843 257.5 846 Q264 849 273 849 Z " />
<glyph glyph-name="Eogonek" unicode="&#x118;" horiz-adv-x="545" d="M490 0 Q433 -40 406.5 -69 Q380 -98 376 -109 L376 -153 Q380 -162 395 -171 Q410 -180 430 -180 Q450 -180 463 -177 Q476 -174 490 -166 L490 -192 Q476 -199 463.5 -202 Q451 -205 430 -205 Q401 -205 379.5 -192.5 Q358 -180 350 -163 L350 -102 Q357 -85 381 -58.5 Q405 -32 450 0 L90 0 L90 700 L480 700 L480 671 L120 671 L120 377 L455 377 L455 348 L120 348 L120 29 L490 29 L490 0 Z " />
<glyph glyph-name="Gcircumflex" unicode="&#x11c;" horiz-adv-x="634" d="M313 684 Q272 684 238 673 Q204 662 178 643.5 Q152 625 133.5 601 Q115 577 105 552 L105 149 Q115 123 133.5 99.5 Q152 76 178 57.5 Q204 39 238 28 Q272 17 313 17 Q354 17 387.5 28 Q421 39 447.5 57.5 Q474 76 492.5 99.5 Q511 123 521 149 L521 318 L336 318 L336 347 L551 347 L551 0 L521 0 L521 89 Q507 69 487 51 Q467 33 441.5 19 Q416 5 384 -3.5 Q352 -12 313 -12 Q262 -12 222.5 2 Q183 16 153.5 38 Q124 60 105 86.5 Q86 113 75 139 L75 562 Q86 587 105 614 Q124 641 153.5 663 Q183 685 222.5 699 Q262 713 313 713 Q364 713 403.5 699 Q443 685 472.5 663 Q502 641 521 614 Q540 587 551 562 L551 538 L528 538 Q517 568 498 595 Q479 622 452 641.5 Q425 661 390 672.5 Q355 684 313 684 Z M437 755 L420 755 L317 879 L214 755 L197 755 L197 771 L297 899 L337 899 L437 771 L437 755 Z " />
<glyph glyph-name="Gbreve" unicode="&#x11e;" horiz-adv-x="634" d="M313 684 Q272 684 238 673 Q204 662 178 643.5 Q152 625 133.5 601 Q115 577 105 552 L105 149 Q115 123 133.5 99.5 Q152 76 178 57.5 Q204 39 238 28 Q272 17 313 17 Q354 17 387.5 28 Q421 39 447.5 57.5 Q474 76 492.5 99.5 Q511 123 521 149 L521 318 L336 318 L336 347 L551 347 L551 0 L521 0 L521 89 Q507 69 487 51 Q467 33 441.5 19 Q416 5 384 -3.5 Q352 -12 313 -12 Q262 -12 222.5 2 Q183 16 153.5 38 Q124 60 105 86.5 Q86 113 75 139 L75 562 Q86 587 105 614 Q124 641 153.5 663 Q183 685 222.5 699 Q262 713 313 713 Q364 713 403.5 699 Q443 685 472.5 663 Q502 641 521 614 Q540 587 551 562 L551 538 L528 538 Q517 568 498 595 Q479 622 452 641.5 Q425 661 390 672.5 Q355 684 313 684 Z M433 814 Q429 806 421 795 Q413 784 399 774 Q385 764 365 757.5 Q345 751 317 751 Q289 751 269 757.5 Q249 764 235 774 Q221 784 213 795 Q205 806 201 814 L201 856 L228 856 L228 823 Q230 818 235.5 810 Q241 802 251.5 794.5 Q262 787 278 781.5 Q294 776 317 776 Q339 776 355.5 781.5 Q372 787 382.5 794.5 Q393 802 398.5 810 Q404 818 406 823 L406 856 L433 856 L433 814 Z " />
<glyph glyph-name="Gdotaccent" unicode="&#x120;" horiz-adv-x="634" d="M313 684 Q272 684 238 673 Q204 662 178 643.5 Q152 625 133.5 601 Q115 577 105 552 L105 149 Q115 123 133.5 99.5 Q152 76 178 57.5 Q204 39 238 28 Q272 17 313 17 Q354 17 387.5 28 Q421 39 447.5 57.5 Q474 76 492.5 99.5 Q511 123 521 149 L521 318 L336 318 L336 347 L551 347 L551 0 L521 0 L521 89 Q507 69 487 51 Q467 33 441.5 19 Q416 5 384 -3.5 Q352 -12 313 -12 Q262 -12 222.5 2 Q183 16 153.5 38 Q124 60 105 86.5 Q86 113 75 139 L75 562 Q86 587 105 614 Q124 641 153.5 663 Q183 685 222.5 699 Q262 713 313 713 Q364 713 403.5 699 Q443 685 472.5 663 Q502 641 521 614 Q540 587 551 562 L551 538 L528 538 Q517 568 498 595 Q479 622 452 641.5 Q425 661 390 672.5 Q355 684 313 684 Z M317 849 Q326 849 332.5 846 Q339 843 341 840 L341 806 Q339 803 332.5 800 Q326 797 317 797 Q308 797 301.5 800 Q295 803 293 806 L293 840 Q295 843 301.5 846 Q308 849 317 849 Z " />
<glyph glyph-name="Gcommaaccent" unicode="&#x122;" horiz-adv-x="634" d="M313 684 Q272 684 238 673 Q204 662 178 643.5 Q152 625 133.5 601 Q115 577 105 552 L105 149 Q115 123 133.5 99.5 Q152 76 178 57.5 Q204 39 238 28 Q272 17 313 17 Q354 17 387.5 28 Q421 39 447.5 57.5 Q474 76 492.5 99.5 Q511 123 521 149 L521 318 L336 318 L336 347 L551 347 L551 0 L521 0 L521 89 Q507 69 487 51 Q467 33 441.5 19 Q416 5 384 -3.5 Q352 -12 313 -12 Q262 -12 222.5 2 Q183 16 153.5 38 Q124 60 105 86.5 Q86 113 75 139 L75 562 Q86 587 105 614 Q124 641 153.5 663 Q183 685 222.5 699 Q262 713 313 713 Q364 713 403.5 699 Q443 685 472.5 663 Q502 641 521 614 Q540 587 551 562 L551 538 L528 538 Q517 568 498 595 Q479 622 452 641.5 Q425 661 390 672.5 Q355 684 313 684 Z M317 -73 Q324 -73 329.5 -76 Q335 -79 337 -81 L337 -160 Q335 -165 328.5 -172.5 Q322 -180 310 -180 L300 -180 L300 -163 L308 -163 Q313 -163 317 -157 L317 -123 Q310 -123 304.5 -120 Q299 -117 297 -115 L297 -81 Q299 -79 304.5 -76 Q310 -73 317 -73 Z " />
<glyph glyph-name="Hcircumflex" unicode="&#x124;" horiz-adv-x="636" d="M516 0 L516 346 L120 346 L120 0 L90 0 L90 700 L120 700 L120 375 L516 375 L516 700 L546 700 L546 0 L516 0 Z M438 755 L421 755 L318 879 L215 755 L198 755 L198 771 L298 899 L338 899 L438 771 L438 755 Z " />
<glyph glyph-name="Hbar" unicode="&#x126;" horiz-adv-x="636" d="M546 573 L546 0 L516 0 L516 346 L120 346 L120 0 L90 0 L90 573 L35 573 L35 600 L90 600 L90 700 L120 700 L120 600 L516 600 L516 700 L546 700 L546 600 L611 600 L611 573 L546 573 Z M120 573 L120 375 L516 375 L516 573 L120 573 Z " />
<glyph glyph-name="Igrave" unicode="&#xcc;" horiz-adv-x="210" d="M90 0 L90 700 L120 700 L120 0 L90 0 Z M111 755 L92 755 L11 879 L11 899 L34 899 L111 771 L111 755 Z " />
<glyph glyph-name="Iacute" unicode="&#xcd;" horiz-adv-x="210" d="M90 0 L90 700 L120 700 L120 0 L90 0 Z M111 755 L92 755 L92 771 L169 899 L192 899 L192 879 L111 755 Z " />
<glyph glyph-name="Icircumflex" unicode="&#xce;" horiz-adv-x="210" d="M90 0 L90 700 L120 700 L120 0 L90 0 Z M225 755 L208 755 L105 879 L2 755 L-15 755 L-15 771 L85 899 L125 899 L225 771 L225 755 Z " />
<glyph glyph-name="Itilde" unicode="&#x128;" horiz-adv-x="210" d="M90 0 L90 700 L120 700 L120 0 L90 0 Z M38 847 Q60 847 77 838 Q94 829 109.5 818.5 Q125 808 140.5 799 Q156 790 173 790 Q192 790 205 800 Q218 810 223 823 L223 841 L247 841 L247 814 Q239 794 221.5 779.5 Q204 765 173 765 Q151 765 133.5 774 Q116 783 101 793.5 Q86 804 70 813 Q54 822 38 822 Q18 822 5 811.5 Q-8 801 -13 790 L-13 771 L-37 771 L-37 798 Q-15 847 38 847 Z " />
<glyph glyph-name="Idieresis" unicode="&#xcf;" horiz-adv-x="210" d="M90 0 L90 700 L120 700 L120 0 L90 0 Z M15 840 Q24 840 31 837 Q38 834 40 831 L40 795 Q38 792 31 789 Q24 786 15 786 Q6 786 -1 789 Q-8 792 -10 795 L-10 831 Q-8 834 -1 837 Q6 840 15 840 Z M194 840 Q203 840 210 837 Q217 834 219 831 L219 795 Q217 792 210 789 Q203 786 194 786 Q185 786 178 789 Q171 792 169 795 L169 831 Q171 834 178 837 Q185 840 194 840 Z " />
<glyph glyph-name="Imacron" unicode="&#x12a;" horiz-adv-x="210" d="M90 0 L90 700 L120 700 L120 0 L90 0 Z M-35 788 L-35 814 L245 814 L245 788 L-35 788 Z " />
<glyph glyph-name="Ibreve" unicode="&#x12c;" horiz-adv-x="210" d="M90 0 L90 700 L120 700 L120 0 L90 0 Z M221 814 Q217 806 209 795 Q201 784 187 774 Q173 764 153 757.5 Q133 751 105 751 Q77 751 57 757.5 Q37 764 23 774 Q9 784 1 795 Q-7 806 -11 814 L-11 856 L16 856 L16 823 Q18 818 23.5 810 Q29 802 39.5 794.5 Q50 787 66 781.5 Q82 776 105 776 Q127 776 143.5 781.5 Q160 787 170.5 794.5 Q181 802 186.5 810 Q192 818 194 823 L194 856 L221 856 L221 814 Z " />
<glyph glyph-name="Iogonek" unicode="&#x12e;" horiz-adv-x="210" d="M120 0 Q64 -38 37 -69 Q10 -100 6 -109 L6 -153 Q10 -162 25 -171 Q40 -180 60 -180 Q80 -180 93 -177 Q106 -174 120 -166 L120 -192 Q106 -199 93.5 -202 Q81 -205 60 -205 Q31 -205 9.5 -192.5 Q-12 -180 -20 -163 L-20 -102 Q-12 -84 14.5 -55 Q41 -26 90 7 L90 700 L120 700 L120 0 Z " />
<glyph glyph-name="IJ" unicode="&#x132;" horiz-adv-x="596" d="M90 0 L90 700 L120 700 L120 0 L90 0 Z M511 139 Q499 110 478 85 Q457 60 427.5 40.5 Q398 21 359.5 10 Q321 -1 273 -1 Q256 -1 244 -0.5 Q232 0 230 0 L230 29 L273 29 Q348 29 403 61 Q458 93 481 149 L481 700 L511 700 L511 139 Z " />
<glyph glyph-name="Jcircumflex" unicode="&#x134;" horiz-adv-x="386" d="M301 139 Q289 110 268 85 Q247 60 217.5 40.5 Q188 21 149.5 10 Q111 -1 63 -1 Q46 -1 34 -0.5 Q22 0 20 0 L20 29 L63 29 Q138 29 193 61 Q248 93 271 149 L271 700 L301 700 L301 139 Z M405 755 L388 755 L285 879 L182 755 L165 755 L165 771 L265 899 L305 899 L405 771 L405 755 Z " />
<glyph glyph-name="Kcommaaccent" unicode="&#x136;" horiz-adv-x="567" d="M532 0 L515 0 L234 396 L120 279 L120 0 L90 0 L90 700 L120 700 L120 319 L487 700 L502 700 L502 672 L255 417 L532 28 L532 0 Z M284 -73 Q291 -73 296.5 -76 Q302 -79 304 -81 L304 -160 Q302 -165 295.5 -172.5 Q289 -180 277 -180 L267 -180 L267 -163 L275 -163 Q280 -163 284 -157 L284 -123 Q277 -123 271.5 -120 Q266 -117 264 -115 L264 -81 Q266 -79 271.5 -76 Q277 -73 284 -73 Z " />
<glyph glyph-name="Lacute" unicode="&#x139;" horiz-adv-x="450" d="M425 29 L425 0 L90 0 L90 700 L120 700 L120 29 L425 29 Z M112 755 L93 755 L93 771 L170 899 L193 899 L193 879 L112 755 Z " />
<glyph glyph-name="Lcaron" unicode="&#x13d;" horiz-adv-x="450" d="M425 29 L425 0 L90 0 L90 700 L120 700 L120 29 L425 29 Z M273 555 L253 555 L253 571 L270 700 L297 700 L297 680 L273 555 Z " />
<glyph glyph-name="Lcommaaccent" unicode="&#x13b;" horiz-adv-x="450" d="M425 29 L425 0 L90 0 L90 700 L120 700 L120 29 L425 29 Z M225 -73 Q232 -73 237.5 -76 Q243 -79 245 -81 L245 -160 Q243 -165 236.5 -172.5 Q230 -180 218 -180 L208 -180 L208 -163 L216 -163 Q221 -163 225 -157 L225 -123 Q218 -123 212.5 -120 Q207 -117 205 -115 L205 -81 Q207 -79 212.5 -76 Q218 -73 225 -73 Z " />
<glyph glyph-name="Lslash" unicode="&#x141;" horiz-adv-x="480" d="M455 0 L120 0 L120 256 L30 209 L30 240 L120 287 L120 700 L150 700 L150 303 L375 420 L375 389 L150 272 L150 29 L455 29 L455 0 Z " />
<glyph glyph-name="Ldot" unicode="&#x13f;" horiz-adv-x="450" d="M425 29 L425 0 L90 0 L90 700 L120 700 L120 29 L425 29 Z M355 407 L355 373 Q353 370 346 367 Q339 364 331 364 Q323 364 316 367 Q309 370 307 373 L307 407 Q309 410 316 413 Q323 416 331 416 Q339 416 346 413 Q353 410 355 407 Z " />
<glyph glyph-name="Nacute" unicode="&#x143;" horiz-adv-x="653" d="M512 0 L123 671 L120 671 L120 0 L90 0 L90 700 L141 700 L530 29 L533 29 L533 700 L563 700 L563 0 L512 0 Z M333 755 L314 755 L314 771 L391 899 L414 899 L414 879 L333 755 Z " />
<glyph glyph-name="Ncaron" unicode="&#x147;" horiz-adv-x="653" d="M512 0 L123 671 L120 671 L120 0 L90 0 L90 700 L141 700 L530 29 L533 29 L533 700 L563 700 L563 0 L512 0 Z M347 755 L307 755 L207 883 L207 899 L224 899 L327 774 L430 899 L447 899 L447 883 L347 755 Z " />
<glyph glyph-name="Ntilde" unicode="&#xd1;" horiz-adv-x="653" d="M512 0 L123 671 L120 671 L120 0 L90 0 L90 700 L141 700 L530 29 L533 29 L533 700 L563 700 L563 0 L512 0 Z M260 847 Q282 847 299 838 Q316 829 331.5 818.5 Q347 808 362.5 799 Q378 790 395 790 Q414 790 427 800 Q440 810 445 823 L445 841 L469 841 L469 814 Q461 794 443.5 779.5 Q426 765 395 765 Q373 765 355.5 774 Q338 783 323 793.5 Q308 804 292 813 Q276 822 260 822 Q240 822 227 811.5 Q214 801 209 790 L209 771 L185 771 L185 798 Q207 847 260 847 Z " />
<glyph glyph-name="Ncommaaccent" unicode="&#x145;" horiz-adv-x="653" d="M512 0 L123 671 L120 671 L120 0 L90 0 L90 700 L141 700 L530 29 L533 29 L533 700 L563 700 L563 0 L512 0 Z M327 -73 Q334 -73 339.5 -76 Q345 -79 347 -81 L347 -160 Q345 -165 338.5 -172.5 Q332 -180 320 -180 L310 -180 L310 -163 L318 -163 Q323 -163 327 -157 L327 -123 Q320 -123 314.5 -120 Q309 -117 307 -115 L307 -81 Q309 -79 314.5 -76 Q320 -73 327 -73 Z " />
<glyph glyph-name="Ograve" unicode="&#xd2;" horiz-adv-x="626" d="M313 713 Q364 713 403.5 699 Q443 685 472.5 663 Q502 641 521 614 Q540 587 551 562 L551 139 Q540 113 521 86.5 Q502 60 472.5 38 Q443 16 403.5 2 Q364 -12 313 -12 Q262 -12 222.5 2 Q183 16 153.5 38 Q124 60 105 86.5 Q86 113 75 139 L75 562 Q86 587 105 614 Q124 641 153.5 663 Q183 685 222.5 699 Q262 713 313 713 Z M313 684 Q272 684 238 673 Q204 662 178 643.5 Q152 625 133.5 601 Q115 577 105 552 L105 149 Q115 123 133.5 99.5 Q152 76 178 57.5 Q204 39 238 28 Q272 17 313 17 Q354 17 387.5 28 Q421 39 447.5 57.5 Q474 76 492.5 99.5 Q511 123 521 149 L521 552 Q511 577 492.5 601 Q474 625 447.5 643.5 Q421 662 387.5 673 Q354 684 313 684 Z M319 755 L300 755 L219 879 L219 899 L242 899 L319 771 L319 755 Z " />
<glyph glyph-name="Oacute" unicode="&#xd3;" horiz-adv-x="626" d="M313 713 Q364 713 403.5 699 Q443 685 472.5 663 Q502 641 521 614 Q540 587 551 562 L551 139 Q540 113 521 86.5 Q502 60 472.5 38 Q443 16 403.5 2 Q364 -12 313 -12 Q262 -12 222.5 2 Q183 16 153.5 38 Q124 60 105 86.5 Q86 113 75 139 L75 562 Q86 587 105 614 Q124 641 153.5 663 Q183 685 222.5 699 Q262 713 313 713 Z M313 684 Q272 684 238 673 Q204 662 178 643.5 Q152 625 133.5 601 Q115 577 105 552 L105 149 Q115 123 133.5 99.5 Q152 76 178 57.5 Q204 39 238 28 Q272 17 313 17 Q354 17 387.5 28 Q421 39 447.5 57.5 Q474 76 492.5 99.5 Q511 123 521 149 L521 552 Q511 577 492.5 601 Q474 625 447.5 643.5 Q421 662 387.5 673 Q354 684 313 684 Z M319 755 L300 755 L300 771 L377 899 L400 899 L400 879 L319 755 Z " />
<glyph glyph-name="Ocircumflex" unicode="&#xd4;" horiz-adv-x="626" d="M313 713 Q364 713 403.5 699 Q443 685 472.5 663 Q502 641 521 614 Q540 587 551 562 L551 139 Q540 113 521 86.5 Q502 60 472.5 38 Q443 16 403.5 2 Q364 -12 313 -12 Q262 -12 222.5 2 Q183 16 153.5 38 Q124 60 105 86.5 Q86 113 75 139 L75 562 Q86 587 105 614 Q124 641 153.5 663 Q183 685 222.5 699 Q262 713 313 713 Z M313 684 Q272 684 238 673 Q204 662 178 643.5 Q152 625 133.5 601 Q115 577 105 552 L105 149 Q115 123 133.5 99.5 Q152 76 178 57.5 Q204 39 238 28 Q272 17 313 17 Q354 17 387.5 28 Q421 39 447.5 57.5 Q474 76 492.5 99.5 Q511 123 521 149 L521 552 Q511 577 492.5 601 Q474 625 447.5 643.5 Q421 662 387.5 673 Q354 684 313 684 Z M433 755 L416 755 L313 879 L210 755 L193 755 L193 771 L293 899 L333 899 L433 771 L433 755 Z " />
<glyph glyph-name="Otilde" unicode="&#xd5;" horiz-adv-x="626" d="M313 713 Q364 713 403.5 699 Q443 685 472.5 663 Q502 641 521 614 Q540 587 551 562 L551 139 Q540 113 521 86.5 Q502 60 472.5 38 Q443 16 403.5 2 Q364 -12 313 -12 Q262 -12 222.5 2 Q183 16 153.5 38 Q124 60 105 86.5 Q86 113 75 139 L75 562 Q86 587 105 614 Q124 641 153.5 663 Q183 685 222.5 699 Q262 713 313 713 Z M313 684 Q272 684 238 673 Q204 662 178 643.5 Q152 625 133.5 601 Q115 577 105 552 L105 149 Q115 123 133.5 99.5 Q152 76 178 57.5 Q204 39 238 28 Q272 17 313 17 Q354 17 387.5 28 Q421 39 447.5 57.5 Q474 76 492.5 99.5 Q511 123 521 149 L521 552 Q511 577 492.5 601 Q474 625 447.5 643.5 Q421 662 387.5 673 Q354 684 313 684 Z M246 847 Q268 847 285 838 Q302 829 317.5 818.5 Q333 808 348.5 799 Q364 790 381 790 Q400 790 413 800 Q426 810 431 823 L431 841 L455 841 L455 814 Q447 794 429.5 779.5 Q412 765 381 765 Q359 765 341.5 774 Q324 783 309 793.5 Q294 804 278 813 Q262 822 246 822 Q226 822 213 811.5 Q200 801 195 790 L195 771 L171 771 L171 798 Q193 847 246 847 Z " />
<glyph glyph-name="Odieresis" unicode="&#xd6;" horiz-adv-x="626" d="M313 713 Q364 713 403.5 699 Q443 685 472.5 663 Q502 641 521 614 Q540 587 551 562 L551 139 Q540 113 521 86.5 Q502 60 472.5 38 Q443 16 403.5 2 Q364 -12 313 -12 Q262 -12 222.5 2 Q183 16 153.5 38 Q124 60 105 86.5 Q86 113 75 139 L75 562 Q86 587 105 614 Q124 641 153.5 663 Q183 685 222.5 699 Q262 713 313 713 Z M313 684 Q272 684 238 673 Q204 662 178 643.5 Q152 625 133.5 601 Q115 577 105 552 L105 149 Q115 123 133.5 99.5 Q152 76 178 57.5 Q204 39 238 28 Q272 17 313 17 Q354 17 387.5 28 Q421 39 447.5 57.5 Q474 76 492.5 99.5 Q511 123 521 149 L521 552 Q511 577 492.5 601 Q474 625 447.5 643.5 Q421 662 387.5 673 Q354 684 313 684 Z M223 840 Q232 840 239 837 Q246 834 248 831 L248 795 Q246 792 239 789 Q232 786 223 786 Q214 786 207 789 Q200 792 198 795 L198 831 Q200 834 207 837 Q214 840 223 840 Z M402 840 Q411 840 418 837 Q425 834 427 831 L427 795 Q425 792 418 789 Q411 786 402 786 Q393 786 386 789 Q379 792 377 795 L377 831 Q379 834 386 837 Q393 840 402 840 Z " />
<glyph glyph-name="Omacron" unicode="&#x14c;" horiz-adv-x="626" d="M313 713 Q364 713 403.5 699 Q443 685 472.5 663 Q502 641 521 614 Q540 587 551 562 L551 139 Q540 113 521 86.5 Q502 60 472.5 38 Q443 16 403.5 2 Q364 -12 313 -12 Q262 -12 222.5 2 Q183 16 153.5 38 Q124 60 105 86.5 Q86 113 75 139 L75 562 Q86 587 105 614 Q124 641 153.5 663 Q183 685 222.5 699 Q262 713 313 713 Z M313 684 Q272 684 238 673 Q204 662 178 643.5 Q152 625 133.5 601 Q115 577 105 552 L105 149 Q115 123 133.5 99.5 Q152 76 178 57.5 Q204 39 238 28 Q272 17 313 17 Q354 17 387.5 28 Q421 39 447.5 57.5 Q474 76 492.5 99.5 Q511 123 521 149 L521 552 Q511 577 492.5 601 Q474 625 447.5 643.5 Q421 662 387.5 673 Q354 684 313 684 Z M173 788 L173 814 L453 814 L453 788 L173 788 Z " />
<glyph glyph-name="Obreve" unicode="&#x14e;" horiz-adv-x="626" d="M313 713 Q364 713 403.5 699 Q443 685 472.5 663 Q502 641 521 614 Q540 587 551 562 L551 139 Q540 113 521 86.5 Q502 60 472.5 38 Q443 16 403.5 2 Q364 -12 313 -12 Q262 -12 222.5 2 Q183 16 153.5 38 Q124 60 105 86.5 Q86 113 75 139 L75 562 Q86 587 105 614 Q124 641 153.5 663 Q183 685 222.5 699 Q262 713 313 713 Z M313 684 Q272 684 238 673 Q204 662 178 643.5 Q152 625 133.5 601 Q115 577 105 552 L105 149 Q115 123 133.5 99.5 Q152 76 178 57.5 Q204 39 238 28 Q272 17 313 17 Q354 17 387.5 28 Q421 39 447.5 57.5 Q474 76 492.5 99.5 Q511 123 521 149 L521 552 Q511 577 492.5 601 Q474 625 447.5 643.5 Q421 662 387.5 673 Q354 684 313 684 Z M429 814 Q425 806 417 795 Q409 784 395 774 Q381 764 361 757.5 Q341 751 313 751 Q285 751 265 757.5 Q245 764 231 774 Q217 784 209 795 Q201 806 197 814 L197 856 L224 856 L224 823 Q226 818 231.5 810 Q237 802 247.5 794.5 Q258 787 274 781.5 Q290 776 313 776 Q335 776 351.5 781.5 Q368 787 378.5 794.5 Q389 802 394.5 810 Q400 818 402 823 L402 856 L429 856 L429 814 Z " />
<glyph glyph-name="Ohungarumlaut" unicode="&#x150;" horiz-adv-x="626" d="M313 713 Q364 713 403.5 699 Q443 685 472.5 663 Q502 641 521 614 Q540 587 551 562 L551 139 Q540 113 521 86.5 Q502 60 472.5 38 Q443 16 403.5 2 Q364 -12 313 -12 Q262 -12 222.5 2 Q183 16 153.5 38 Q124 60 105 86.5 Q86 113 75 139 L75 562 Q86 587 105 614 Q124 641 153.5 663 Q183 685 222.5 699 Q262 713 313 713 Z M313 684 Q272 684 238 673 Q204 662 178 643.5 Q152 625 133.5 601 Q115 577 105 552 L105 149 Q115 123 133.5 99.5 Q152 76 178 57.5 Q204 39 238 28 Q272 17 313 17 Q354 17 387.5 28 Q421 39 447.5 57.5 Q474 76 492.5 99.5 Q511 123 521 149 L521 552 Q511 577 492.5 601 Q474 625 447.5 643.5 Q421 662 387.5 673 Q354 684 313 684 Z M244 755 L225 755 L225 771 L282 899 L305 899 L305 879 L244 755 Z M404 755 L385 755 L385 771 L442 899 L465 899 L465 879 L404 755 Z " />
<glyph glyph-name="Oslash" unicode="&#xd8;" horiz-adv-x="626" d="M513 625 Q526 609 535 593 Q544 577 551 562 L551 139 Q540 113 521 86.5 Q502 60 472.5 38 Q443 16 403.5 2 Q364 -12 313 -12 Q252 -12 207.5 7 Q163 26 133 55 L96 0 L75 0 L75 18 L114 76 Q100 92 91 107.5 Q82 123 75 139 L75 562 Q86 587 105 614 Q124 641 153.5 663 Q183 685 222.5 699 Q262 713 313 713 Q375 713 419 693.5 Q463 674 493 645 L530 700 L551 700 L551 682 L513 625 Z M105 149 Q114 124 131 103 L476 620 Q448 648 407.5 666 Q367 684 313 684 Q272 684 238 673 Q204 662 178 643.5 Q152 625 133.5 601 Q115 577 105 552 L105 149 Z M521 552 Q513 574 495 598 L150 81 Q178 53 218.5 35 Q259 17 313 17 Q354 17 387.5 28 Q421 39 447.5 57.5 Q474 76 492.5 99.5 Q511 123 521 149 L521 552 Z " />
<glyph glyph-name="OE" unicode="&#x152;" horiz-adv-x="975" d="M920 0 L520 0 L520 89 Q506 69 486 51 Q466 33 440.5 19 Q415 5 383 -3.5 Q351 -12 312 -12 Q261 -12 221.5 2 Q182 16 152.5 38 Q123 60 104 86.5 Q85 113 74 139 L74 562 Q85 587 104 614 Q123 641 152.5 663 Q182 685 221.5 699 Q261 713 312 713 Q351 713 383 704.5 Q415 696 440.5 682 Q466 668 486 650 Q506 632 520 612 L520 700 L910 700 L910 671 L550 671 L550 377 L885 377 L885 348 L550 348 L550 29 L920 29 L920 0 Z M312 17 Q353 17 386.5 28 Q420 39 446.5 57.5 Q473 76 491.5 99.5 Q510 123 520 149 L520 552 Q510 577 491.5 601 Q473 625 446.5 643.5 Q420 662 386.5 673 Q353 684 312 684 Q271 684 237 673 Q203 662 177 643.5 Q151 625 132.5 601 Q114 577 104 552 L104 149 Q114 123 132.5 99.5 Q151 76 177 57.5 Q203 39 237 28 Q271 17 312 17 Z " />
<glyph glyph-name="Racute" unicode="&#x154;" horiz-adv-x="575" d="M515 0 L498 0 L275 320 L120 320 L120 0 L90 0 L90 700 L316 700 Q376 700 426.5 668.5 Q477 637 506 583 L506 437 Q480 388 431 354 Q382 320 316 320 L311 320 L515 28 L515 0 Z M310 349 Q365 349 407.5 374.5 Q450 400 476 446 L476 573 Q450 622 405.5 646.5 Q361 671 310 671 L120 671 L120 349 L310 349 Z M293 755 L274 755 L274 771 L351 899 L374 899 L374 879 L293 755 Z " />
<glyph glyph-name="Rcaron" unicode="&#x158;" horiz-adv-x="575" d="M515 0 L498 0 L275 320 L120 320 L120 0 L90 0 L90 700 L316 700 Q376 700 426.5 668.5 Q477 637 506 583 L506 437 Q480 388 431 354 Q382 320 316 320 L311 320 L515 28 L515 0 Z M310 349 Q365 349 407.5 374.5 Q450 400 476 446 L476 573 Q450 622 405.5 646.5 Q361 671 310 671 L120 671 L120 349 L310 349 Z M307 755 L267 755 L167 883 L167 899 L184 899 L287 774 L390 899 L407 899 L407 883 L307 755 Z " />
<glyph glyph-name="Rcommaaccent" unicode="&#x156;" horiz-adv-x="575" d="M515 0 L498 0 L275 320 L120 320 L120 0 L90 0 L90 700 L316 700 Q376 700 426.5 668.5 Q477 637 506 583 L506 437 Q480 388 431 354 Q382 320 316 320 L311 320 L515 28 L515 0 Z M310 349 Q365 349 407.5 374.5 Q450 400 476 446 L476 573 Q450 622 405.5 646.5 Q361 671 310 671 L120 671 L120 349 L310 349 Z M287 -73 Q294 -73 299.5 -76 Q305 -79 307 -81 L307 -160 Q305 -165 298.5 -172.5 Q292 -180 280 -180 L270 -180 L270 -163 L278 -163 Q283 -163 287 -157 L287 -123 Q280 -123 274.5 -120 Q269 -117 267 -115 L267 -81 Q269 -79 274.5 -76 Q280 -73 287 -73 Z " />
<glyph glyph-name="Sacute" unicode="&#x15a;" horiz-adv-x="560" d="M280 712 Q324 712 358.5 702 Q393 692 419 675.5 Q445 659 463.5 639 Q482 619 494 599 L494 574 L471 574 Q448 623 399 653 Q350 683 280 683 Q213 683 167 656 Q121 629 96 589 L96 478 Q112 447 146.5 426 Q181 405 249 387 L329 366 Q376 354 406.5 340 Q437 326 456.5 311 Q476 296 487 280.5 Q498 265 506 249 L506 118 Q496 99 478 76 Q460 53 432.5 33.5 Q405 14 366.5 1 Q328 -12 277 -12 Q226 -12 186 1.5 Q146 15 117.5 34.5 Q89 54 70 77 Q51 100 42 118 L42 143 L65 143 Q74 121 92.5 98.5 Q111 76 138 58 Q165 40 200 28.5 Q235 17 277 17 Q318 17 351 28 Q384 39 409 55.5 Q434 72 450.5 91.5 Q467 111 476 128 L476 239 Q470 254 460 267.5 Q450 281 432.5 293.5 Q415 306 388.5 317.5 Q362 329 323 339 L241 360 Q200 370 171.5 382 Q143 394 123 407.5 Q103 421 89.5 436 Q76 451 66 468 L66 599 Q79 620 97.5 640 Q116 660 142 676 Q168 692 202 702 Q236 712 280 712 Z M295 755 L276 755 L276 771 L353 899 L376 899 L376 879 L295 755 Z " />
<glyph glyph-name="Scircumflex" unicode="&#x15c;" horiz-adv-x="560" d="M280 712 Q324 712 358.5 702 Q393 692 419 675.5 Q445 659 463.5 639 Q482 619 494 599 L494 574 L471 574 Q448 623 399 653 Q350 683 280 683 Q213 683 167 656 Q121 629 96 589 L96 478 Q112 447 146.5 426 Q181 405 249 387 L329 366 Q376 354 406.5 340 Q437 326 456.5 311 Q476 296 487 280.5 Q498 265 506 249 L506 118 Q496 99 478 76 Q460 53 432.5 33.5 Q405 14 366.5 1 Q328 -12 277 -12 Q226 -12 186 1.5 Q146 15 117.5 34.5 Q89 54 70 77 Q51 100 42 118 L42 143 L65 143 Q74 121 92.5 98.5 Q111 76 138 58 Q165 40 200 28.5 Q235 17 277 17 Q318 17 351 28 Q384 39 409 55.5 Q434 72 450.5 91.5 Q467 111 476 128 L476 239 Q470 254 460 267.5 Q450 281 432.5 293.5 Q415 306 388.5 317.5 Q362 329 323 339 L241 360 Q200 370 171.5 382 Q143 394 123 407.5 Q103 421 89.5 436 Q76 451 66 468 L66 599 Q79 620 97.5 640 Q116 660 142 676 Q168 692 202 702 Q236 712 280 712 Z M409 755 L392 755 L289 879 L186 755 L169 755 L169 771 L269 899 L309 899 L409 771 L409 755 Z " />
<glyph glyph-name="Scaron" unicode="&#x160;" horiz-adv-x="560" d="M280 712 Q324 712 358.5 702 Q393 692 419 675.5 Q445 659 463.5 639 Q482 619 494 599 L494 574 L471 574 Q448 623 399 653 Q350 683 280 683 Q213 683 167 656 Q121 629 96 589 L96 478 Q112 447 146.5 426 Q181 405 249 387 L329 366 Q376 354 406.5 340 Q437 326 456.5 311 Q476 296 487 280.5 Q498 265 506 249 L506 118 Q496 99 478 76 Q460 53 432.5 33.5 Q405 14 366.5 1 Q328 -12 277 -12 Q226 -12 186 1.5 Q146 15 117.5 34.5 Q89 54 70 77 Q51 100 42 118 L42 143 L65 143 Q74 121 92.5 98.5 Q111 76 138 58 Q165 40 200 28.5 Q235 17 277 17 Q318 17 351 28 Q384 39 409 55.5 Q434 72 450.5 91.5 Q467 111 476 128 L476 239 Q470 254 460 267.5 Q450 281 432.5 293.5 Q415 306 388.5 317.5 Q362 329 323 339 L241 360 Q200 370 171.5 382 Q143 394 123 407.5 Q103 421 89.5 436 Q76 451 66 468 L66 599 Q79 620 97.5 640 Q116 660 142 676 Q168 692 202 702 Q236 712 280 712 Z M309 755 L269 755 L169 883 L169 899 L186 899 L289 774 L392 899 L409 899 L409 883 L309 755 Z " />
<glyph glyph-name="Scedilla" unicode="&#x15e;" horiz-adv-x="560" d="M329 366 Q376 354 406.5 340 Q437 326 456.5 311 Q476 296 487 280.5 Q498 265 506 249 L506 118 Q496 99 479 77 Q462 55 435.5 35.5 Q409 16 372.5 2.5 Q336 -11 288 -12 L269 -63 L293 -63 Q324 -63 343.5 -77 Q363 -91 371 -106 L371 -171 Q363 -186 343.5 -200 Q324 -214 293 -214 Q265 -214 243.5 -206 Q222 -198 205 -187 L213 -165 Q229 -176 248 -183.5 Q267 -191 293 -191 Q315 -191 328 -182 Q341 -173 346 -164 L346 -113 Q341 -104 328 -94.5 Q315 -85 293 -85 L237 -85 L262 -12 Q214 -10 177 4 Q140 18 113 37.5 Q86 57 68.5 78.5 Q51 100 42 118 L42 143 L65 143 Q74 121 92.5 98.5 Q111 76 138 58 Q165 40 200 28.5 Q235 17 277 17 Q318 17 351 28 Q384 39 409 55.5 Q434 72 450.5 91.5 Q467 111 476 128 L476 239 Q470 254 460 267.5 Q450 281 432.5 293.5 Q415 306 388.5 317.5 Q362 329 323 339 L241 360 Q200 370 171.5 382 Q143 394 123 407.5 Q103 421 89.5 436 Q76 451 66 468 L66 599 Q79 620 97.5 640 Q116 660 142 676 Q168 692 202 702 Q236 712 280 712 Q323 712 358 702 Q393 692 419 675.5 Q445 659 463.5 639 Q482 619 494 599 L494 574 L471 574 Q448 623 398.5 653 Q349 683 280 683 Q216 683 168.5 656 Q121 629 96 589 L96 478 Q112 447 146.5 426 Q181 405 249 387 L329 366 Z " />
<glyph glyph-name="Scommaaccent" unicode="&#x218;" horiz-adv-x="560" d="M280 712 Q324 712 358.5 702 Q393 692 419 675.5 Q445 659 463.5 639 Q482 619 494 599 L494 574 L471 574 Q448 623 399 653 Q350 683 280 683 Q213 683 167 656 Q121 629 96 589 L96 478 Q112 447 146.5 426 Q181 405 249 387 L329 366 Q376 354 406.5 340 Q437 326 456.5 311 Q476 296 487 280.5 Q498 265 506 249 L506 118 Q496 99 478 76 Q460 53 432.5 33.5 Q405 14 366.5 1 Q328 -12 277 -12 Q226 -12 186 1.5 Q146 15 117.5 34.5 Q89 54 70 77 Q51 100 42 118 L42 143 L65 143 Q74 121 92.5 98.5 Q111 76 138 58 Q165 40 200 28.5 Q235 17 277 17 Q318 17 351 28 Q384 39 409 55.5 Q434 72 450.5 91.5 Q467 111 476 128 L476 239 Q470 254 460 267.5 Q450 281 432.5 293.5 Q415 306 388.5 317.5 Q362 329 323 339 L241 360 Q200 370 171.5 382 Q143 394 123 407.5 Q103 421 89.5 436 Q76 451 66 468 L66 599 Q79 620 97.5 640 Q116 660 142 676 Q168 692 202 702 Q236 712 280 712 Z M280 -73 Q287 -73 292.5 -76 Q298 -79 300 -81 L300 -160 Q298 -165 291.5 -172.5 Q285 -180 273 -180 L263 -180 L263 -163 L271 -163 Q276 -163 280 -157 L280 -123 Q273 -123 267.5 -120 Q262 -117 260 -115 L260 -81 Q262 -79 267.5 -76 Q273 -73 280 -73 Z " />
<glyph glyph-name="Tcaron" unicode="&#x164;" horiz-adv-x="520" d="M275 671 L275 0 L245 0 L245 671 L25 671 L25 700 L495 700 L495 671 L275 671 Z M280 755 L240 755 L140 883 L140 899 L157 899 L260 774 L363 899 L380 899 L380 883 L280 755 Z " />
<glyph glyph-name="uni021A" unicode="&#x21a;" horiz-adv-x="520" d="M275 671 L275 0 L245 0 L245 671 L25 671 L25 700 L495 700 L495 671 L275 671 Z M260 -73 Q267 -73 272.5 -76 Q278 -79 280 -81 L280 -160 Q278 -165 271.5 -172.5 Q265 -180 253 -180 L243 -180 L243 -163 L251 -163 Q256 -163 260 -157 L260 -123 Q253 -123 247.5 -120 Q242 -117 240 -115 L240 -81 Q242 -79 247.5 -76 Q253 -73 260 -73 Z " />
<glyph glyph-name="Tbar" unicode="&#x166;" horiz-adv-x="520" d="M275 400 L435 400 L435 373 L275 373 L275 0 L245 0 L245 373 L85 373 L85 400 L245 400 L245 671 L25 671 L25 700 L495 700 L495 671 L275 671 L275 400 Z " />
<glyph glyph-name="Ugrave" unicode="&#xd9;" horiz-adv-x="646" d="M561 139 Q550 113 531 86.5 Q512 60 482.5 38 Q453 16 413.5 2 Q374 -12 323 -12 Q272 -12 232.5 2 Q193 16 163.5 38 Q134 60 115 86.5 Q96 113 85 139 L85 700 L115 700 L115 149 Q125 123 143.5 99.5 Q162 76 188 57.5 Q214 39 248 28 Q282 17 323 17 Q364 17 397.5 28 Q431 39 457.5 57.5 Q484 76 502.5 99.5 Q521 123 531 149 L531 700 L561 700 L561 139 Z M329 755 L310 755 L229 879 L229 899 L252 899 L329 771 L329 755 Z " />
<glyph glyph-name="Uacute" unicode="&#xda;" horiz-adv-x="646" d="M561 139 Q550 113 531 86.5 Q512 60 482.5 38 Q453 16 413.5 2 Q374 -12 323 -12 Q272 -12 232.5 2 Q193 16 163.5 38 Q134 60 115 86.5 Q96 113 85 139 L85 700 L115 700 L115 149 Q125 123 143.5 99.5 Q162 76 188 57.5 Q214 39 248 28 Q282 17 323 17 Q364 17 397.5 28 Q431 39 457.5 57.5 Q484 76 502.5 99.5 Q521 123 531 149 L531 700 L561 700 L561 139 Z M329 755 L310 755 L310 771 L387 899 L410 899 L410 879 L329 755 Z " />
<glyph glyph-name="Ucircumflex" unicode="&#xdb;" horiz-adv-x="646" d="M561 139 Q550 113 531 86.5 Q512 60 482.5 38 Q453 16 413.5 2 Q374 -12 323 -12 Q272 -12 232.5 2 Q193 16 163.5 38 Q134 60 115 86.5 Q96 113 85 139 L85 700 L115 700 L115 149 Q125 123 143.5 99.5 Q162 76 188 57.5 Q214 39 248 28 Q282 17 323 17 Q364 17 397.5 28 Q431 39 457.5 57.5 Q484 76 502.5 99.5 Q521 123 531 149 L531 700 L561 700 L561 139 Z M443 755 L426 755 L323 879 L220 755 L203 755 L203 771 L303 899 L343 899 L443 771 L443 755 Z " />
<glyph glyph-name="Utilde" unicode="&#x168;" horiz-adv-x="646" d="M561 139 Q550 113 531 86.5 Q512 60 482.5 38 Q453 16 413.5 2 Q374 -12 323 -12 Q272 -12 232.5 2 Q193 16 163.5 38 Q134 60 115 86.5 Q96 113 85 139 L85 700 L115 700 L115 149 Q125 123 143.5 99.5 Q162 76 188 57.5 Q214 39 248 28 Q282 17 323 17 Q364 17 397.5 28 Q431 39 457.5 57.5 Q484 76 502.5 99.5 Q521 123 531 149 L531 700 L561 700 L561 139 Z M256 847 Q278 847 295 838 Q312 829 327.5 818.5 Q343 808 358.5 799 Q374 790 391 790 Q410 790 423 800 Q436 810 441 823 L441 841 L465 841 L465 814 Q457 794 439.5 779.5 Q422 765 391 765 Q369 765 351.5 774 Q334 783 319 793.5 Q304 804 288 813 Q272 822 256 822 Q236 822 223 811.5 Q210 801 205 790 L205 771 L181 771 L181 798 Q203 847 256 847 Z " />
<glyph glyph-name="Udieresis" unicode="&#xdc;" horiz-adv-x="646" d="M561 139 Q550 113 531 86.5 Q512 60 482.5 38 Q453 16 413.5 2 Q374 -12 323 -12 Q272 -12 232.5 2 Q193 16 163.5 38 Q134 60 115 86.5 Q96 113 85 139 L85 700 L115 700 L115 149 Q125 123 143.5 99.5 Q162 76 188 57.5 Q214 39 248 28 Q282 17 323 17 Q364 17 397.5 28 Q431 39 457.5 57.5 Q484 76 502.5 99.5 Q521 123 531 149 L531 700 L561 700 L561 139 Z M233 840 Q242 840 249 837 Q256 834 258 831 L258 795 Q256 792 249 789 Q242 786 233 786 Q224 786 217 789 Q210 792 208 795 L208 831 Q210 834 217 837 Q224 840 233 840 Z M412 840 Q421 840 428 837 Q435 834 437 831 L437 795 Q435 792 428 789 Q421 786 412 786 Q403 786 396 789 Q389 792 387 795 L387 831 Q389 834 396 837 Q403 840 412 840 Z " />
<glyph glyph-name="Umacron" unicode="&#x16a;" horiz-adv-x="646" d="M561 139 Q550 113 531 86.5 Q512 60 482.5 38 Q453 16 413.5 2 Q374 -12 323 -12 Q272 -12 232.5 2 Q193 16 163.5 38 Q134 60 115 86.5 Q96 113 85 139 L85 700 L115 700 L115 149 Q125 123 143.5 99.5 Q162 76 188 57.5 Q214 39 248 28 Q282 17 323 17 Q364 17 397.5 28 Q431 39 457.5 57.5 Q484 76 502.5 99.5 Q521 123 531 149 L531 700 L561 700 L561 139 Z M183 788 L183 814 L463 814 L463 788 L183 788 Z " />
<glyph glyph-name="Ubreve" unicode="&#x16c;" horiz-adv-x="646" d="M561 139 Q550 113 531 86.5 Q512 60 482.5 38 Q453 16 413.5 2 Q374 -12 323 -12 Q272 -12 232.5 2 Q193 16 163.5 38 Q134 60 115 86.5 Q96 113 85 139 L85 700 L115 700 L115 149 Q125 123 143.5 99.5 Q162 76 188 57.5 Q214 39 248 28 Q282 17 323 17 Q364 17 397.5 28 Q431 39 457.5 57.5 Q484 76 502.5 99.5 Q521 123 531 149 L531 700 L561 700 L561 139 Z M439 814 Q435 806 427 795 Q419 784 405 774 Q391 764 371 757.5 Q351 751 323 751 Q295 751 275 757.5 Q255 764 241 774 Q227 784 219 795 Q211 806 207 814 L207 856 L234 856 L234 823 Q236 818 241.5 810 Q247 802 257.5 794.5 Q268 787 284 781.5 Q300 776 323 776 Q345 776 361.5 781.5 Q378 787 388.5 794.5 Q399 802 404.5 810 Q410 818 412 823 L412 856 L439 856 L439 814 Z " />
<glyph glyph-name="Uring" unicode="&#x16e;" horiz-adv-x="646" d="M561 139 Q550 113 531 86.5 Q512 60 482.5 38 Q453 16 413.5 2 Q374 -12 323 -12 Q272 -12 232.5 2 Q193 16 163.5 38 Q134 60 115 86.5 Q96 113 85 139 L85 700 L115 700 L115 149 Q125 123 143.5 99.5 Q162 76 188 57.5 Q214 39 248 28 Q282 17 323 17 Q364 17 397.5 28 Q431 39 457.5 57.5 Q484 76 502.5 99.5 Q521 123 531 149 L531 700 L561 700 L561 139 Z M323 859 Q356 859 379.5 845 Q403 831 411 815 L411 736 Q403 720 379.5 706 Q356 692 323 692 Q290 692 266.5 706 Q243 720 235 736 L235 815 Q243 831 266.5 845 Q290 859 323 859 Z M323 834 Q298 834 283 825 Q268 816 261 807 L261 744 Q268 735 283 726 Q298 717 323 717 Q348 717 363 726 Q378 735 385 744 L385 807 Q378 816 363 825 Q348 834 323 834 Z " />
<glyph glyph-name="Uhungarumlaut" unicode="&#x170;" horiz-adv-x="646" d="M561 139 Q550 113 531 86.5 Q512 60 482.5 38 Q453 16 413.5 2 Q374 -12 323 -12 Q272 -12 232.5 2 Q193 16 163.5 38 Q134 60 115 86.5 Q96 113 85 139 L85 700 L115 700 L115 149 Q125 123 143.5 99.5 Q162 76 188 57.5 Q214 39 248 28 Q282 17 323 17 Q364 17 397.5 28 Q431 39 457.5 57.5 Q484 76 502.5 99.5 Q521 123 531 149 L531 700 L561 700 L561 139 Z M254 755 L235 755 L235 771 L292 899 L315 899 L315 879 L254 755 Z M414 755 L395 755 L395 771 L452 899 L475 899 L475 879 L414 755 Z " />
<glyph glyph-name="Uogonek" unicode="&#x172;" horiz-adv-x="646" d="M561 139 Q550 112 528.5 85.5 Q507 59 475 33 Q448 11 425 -12 Q402 -35 385 -55 Q368 -75 357.5 -90 Q347 -105 345 -109 L345 -153 Q349 -162 364 -171 Q379 -180 399 -180 Q419 -180 432 -177 Q445 -174 459 -166 L459 -192 Q445 -199 432.5 -202 Q420 -205 399 -205 Q370 -205 348.5 -192.5 Q327 -180 319 -163 L319 -102 Q326 -88 346.5 -60.5 Q367 -33 399 -3 Q364 -12 323 -12 Q272 -12 232.5 2 Q193 16 163.5 38 Q134 60 115 86.5 Q96 113 85 139 L85 700 L115 700 L115 149 Q125 123 143.5 99.5 Q162 76 188 57.5 Q214 39 248 28 Q282 17 323 17 Q364 17 398 28 Q432 39 458 57.5 Q484 76 502.5 99.5 Q521 123 531 149 L531 700 L561 700 L561 139 Z " />
<glyph glyph-name="Wgrave" unicode="&#x1e80;" horiz-adv-x="868" d="M678 0 L632 0 L435 671 L432 671 L236 0 L190 0 L40 672 L40 700 L64 700 L212 30 L215 30 L411 700 L457 700 L653 30 L656 30 L804 700 L828 700 L828 672 L678 0 Z M440 755 L421 755 L340 879 L340 899 L363 899 L440 771 L440 755 Z " />
<glyph glyph-name="Wacute" unicode="&#x1e82;" horiz-adv-x="868" d="M678 0 L632 0 L435 671 L432 671 L236 0 L190 0 L40 672 L40 700 L64 700 L212 30 L215 30 L411 700 L457 700 L653 30 L656 30 L804 700 L828 700 L828 672 L678 0 Z M440 755 L421 755 L421 771 L498 899 L521 899 L521 879 L440 755 Z " />
<glyph glyph-name="Wcircumflex" unicode="&#x174;" horiz-adv-x="868" d="M678 0 L632 0 L435 671 L432 671 L236 0 L190 0 L40 672 L40 700 L64 700 L212 30 L215 30 L411 700 L457 700 L653 30 L656 30 L804 700 L828 700 L828 672 L678 0 Z M554 755 L537 755 L434 879 L331 755 L314 755 L314 771 L414 899 L454 899 L554 771 L554 755 Z " />
<glyph glyph-name="Wdieresis" unicode="&#x1e84;" horiz-adv-x="868" d="M678 0 L632 0 L435 671 L432 671 L236 0 L190 0 L40 672 L40 700 L64 700 L212 30 L215 30 L411 700 L457 700 L653 30 L656 30 L804 700 L828 700 L828 672 L678 0 Z M344 840 Q353 840 360 837 Q367 834 369 831 L369 795 Q367 792 360 789 Q353 786 344 786 Q335 786 328 789 Q321 792 319 795 L319 831 Q321 834 328 837 Q335 840 344 840 Z M523 840 Q532 840 539 837 Q546 834 548 831 L548 795 Q546 792 539 789 Q532 786 523 786 Q514 786 507 789 Q500 792 498 795 L498 831 Q500 834 507 837 Q514 840 523 840 Z " />
<glyph glyph-name="Ygrave" unicode="&#x1ef2;" horiz-adv-x="534" d="M282 321 L282 0 L252 0 L252 322 L41 672 L41 700 L58 700 L266 352 L268 352 L476 700 L493 700 L493 672 L282 321 Z M273 755 L254 755 L173 879 L173 899 L196 899 L273 771 L273 755 Z " />
<glyph glyph-name="Yacute" unicode="&#xdd;" horiz-adv-x="534" d="M282 321 L282 0 L252 0 L252 322 L41 672 L41 700 L58 700 L266 352 L268 352 L476 700 L493 700 L493 672 L282 321 Z M273 755 L254 755 L254 771 L331 899 L354 899 L354 879 L273 755 Z " />
<glyph glyph-name="Ycircumflex" unicode="&#x176;" horiz-adv-x="534" d="M282 321 L282 0 L252 0 L252 322 L41 672 L41 700 L58 700 L266 352 L268 352 L476 700 L493 700 L493 672 L282 321 Z M387 755 L370 755 L267 879 L164 755 L147 755 L147 771 L247 899 L287 899 L387 771 L387 755 Z " />
<glyph glyph-name="Ydieresis" unicode="&#x178;" horiz-adv-x="534" d="M282 321 L282 0 L252 0 L252 322 L41 672 L41 700 L58 700 L266 352 L268 352 L476 700 L493 700 L493 672 L282 321 Z M177 840 Q186 840 193 837 Q200 834 202 831 L202 795 Q200 792 193 789 Q186 786 177 786 Q168 786 161 789 Q154 792 152 795 L152 831 Q154 834 161 837 Q168 840 177 840 Z M356 840 Q365 840 372 837 Q379 834 381 831 L381 795 Q379 792 372 789 Q365 786 356 786 Q347 786 340 789 Q333 792 331 795 L331 831 Q333 834 340 837 Q347 840 356 840 Z " />
<glyph glyph-name="Zacute" unicode="&#x179;" horiz-adv-x="568" d="M93 29 L513 29 L513 0 L55 0 L55 24 L476 671 L65 671 L65 700 L513 700 L513 676 L93 29 Z M290 755 L271 755 L271 771 L348 899 L371 899 L371 879 L290 755 Z " />
<glyph glyph-name="Zcaron" unicode="&#x17d;" horiz-adv-x="568" d="M93 29 L513 29 L513 0 L55 0 L55 24 L476 671 L65 671 L65 700 L513 700 L513 676 L93 29 Z M304 755 L264 755 L164 883 L164 899 L181 899 L284 774 L387 899 L404 899 L404 883 L304 755 Z " />
<glyph glyph-name="Zdotaccent" unicode="&#x17b;" horiz-adv-x="568" d="M93 29 L513 29 L513 0 L55 0 L55 24 L476 671 L65 671 L65 700 L513 700 L513 676 L93 29 Z M284 849 Q293 849 299.5 846 Q306 843 308 840 L308 806 Q306 803 299.5 800 Q293 797 284 797 Q275 797 268.5 800 Q262 803 260 806 L260 840 Q262 843 268.5 846 Q275 849 284 849 Z " />
<glyph glyph-name="Eng" unicode="&#x14a;" horiz-adv-x="653" d="M563 -19 Q551 -48 530 -75 Q509 -102 479.5 -123 Q450 -144 411.5 -156.5 Q373 -169 325 -169 Q312 -169 300.5 -168.5 Q289 -168 282 -167 L282 -138 Q285 -138 290.5 -138.5 Q296 -139 303 -139.5 Q310 -140 316 -140 Q322 -140 325 -140 Q395 -140 447.5 -107.5 Q500 -75 526 -24 L123 671 L120 671 L120 0 L90 0 L90 700 L141 700 L530 29 L533 29 L533 700 L563 700 L563 -19 Z " />
<glyph glyph-name="Eth" unicode="&#xd0;" horiz-adv-x="651" d="M338 700 Q389 700 428.5 688 Q468 676 497.5 656.5 Q527 637 546 612 Q565 587 576 562 L576 138 Q565 112 546 87.5 Q527 63 497.5 43.5 Q468 24 428.5 12 Q389 0 338 0 L120 0 L120 342 L50 342 L50 371 L120 371 L120 700 L338 700 Z M546 552 Q526 603 473 637 Q420 671 338 671 L150 671 L150 371 L370 371 L370 342 L150 342 L150 29 L338 29 Q420 29 473 63 Q526 97 546 148 L546 552 Z " />
<glyph glyph-name="Thorn" unicode="&#xde;" horiz-adv-x="551" d="M306 575 Q366 575 416.5 543.5 Q467 512 496 458 L496 292 Q469 241 420 208 Q371 175 306 175 L120 175 L120 0 L90 0 L90 700 L120 700 L120 575 L306 575 Z M466 448 Q451 475 431.5 493.5 Q412 512 390 524 Q368 536 345 541 Q322 546 300 546 L120 546 L120 204 L301 204 Q352 204 396 229 Q440 254 466 302 L466 448 Z " />
<glyph glyph-name="a" unicode="a" horiz-adv-x="528" d="M251 546 Q294 546 328 534 Q362 522 387 503 Q412 484 428 462 Q444 440 453 418 L453 0 L425 0 L425 69 Q403 37 353 12.5 Q303 -12 237 -12 Q197 -12 167.5 -3 Q138 6 116.5 19.5 Q95 33 81 47 Q67 61 60 72 L60 225 Q64 232 77 246 Q90 260 111 274 Q132 288 164 298 Q196 308 237 308 L425 308 L425 408 Q416 430 401 449.5 Q386 469 364 484.5 Q342 500 314 509 Q286 518 251 518 Q218 518 191.5 509.5 Q165 501 145 488.5 Q125 476 111.5 461.5 Q98 447 92 435 L69 435 L69 455 Q77 466 91.5 481.5 Q106 497 128.5 511.5 Q151 526 181 536 Q211 546 251 546 Z M237 16 Q305 16 355 43.5 Q405 71 425 110 L425 282 L237 282 Q203 282 177.5 274.5 Q152 267 134.5 256.5 Q117 246 106 235 Q95 224 88 216 L88 82 Q94 75 105 64 Q116 53 133.5 42.5 Q151 32 176.5 24 Q202 16 237 16 Z " />
<glyph glyph-name="b" unicode="b" horiz-adv-x="534" d="M282 546 Q325 546 357 535 Q389 524 411.5 508 Q434 492 448 475.5 Q462 459 469 447 L469 87 Q462 75 447.5 58 Q433 41 411.5 25.5 Q390 10 357.5 -1 Q325 -12 282 -12 Q223 -12 177.5 7.5 Q132 27 108 55 L108 0 L80 0 L80 700 L108 700 L108 479 Q132 505 175.5 525.5 Q219 546 282 546 Z M441 437 Q434 449 421.5 463 Q409 477 389.5 489 Q370 501 343.5 509.5 Q317 518 282 518 Q219 518 175 495 Q131 472 108 441 L108 93 Q131 61 176.5 38.5 Q222 16 282 16 Q317 16 343 24 Q369 32 388.5 44.5 Q408 57 421 71 Q434 85 441 97 L441 437 Z " />
<glyph glyph-name="c" unicode="c" horiz-adv-x="514" d="M267 546 Q310 546 344 534 Q378 522 403 503.5 Q428 485 444 462 Q460 439 469 418 L469 398 L446 398 Q437 422 421.5 443.5 Q406 465 384 481.5 Q362 498 332.5 508 Q303 518 267 518 Q232 518 203.5 509 Q175 500 153.5 484.5 Q132 469 117 449 Q102 429 93 408 L93 126 Q102 105 117 85 Q132 65 153.5 49.5 Q175 34 203.5 25 Q232 16 267 16 Q303 16 332.5 25.5 Q362 35 384 51.5 Q406 68 421.5 90 Q437 112 446 136 L469 136 L469 116 Q460 95 444 72 Q428 49 403 30.5 Q378 12 344 0 Q310 -12 267 -12 Q223 -12 189.5 0 Q156 12 131 30.5 Q106 49 90 72 Q74 95 65 116 L65 418 Q74 439 90 462 Q106 485 131 503.5 Q156 522 189.5 534 Q223 546 267 546 Z " />
<glyph glyph-name="d" unicode="d" horiz-adv-x="534" d="M454 0 L426 0 L426 55 Q401 28 358 8 Q315 -12 252 -12 Q208 -12 176.5 -1 Q145 10 122.5 26 Q100 42 86 58.5 Q72 75 65 87 L65 447 Q72 459 86 475.5 Q100 492 122.5 508 Q145 524 176.5 535 Q208 546 252 546 Q314 546 358 525.5 Q402 505 426 479 L426 700 L454 700 L454 0 Z M252 16 Q313 16 358 39 Q403 62 426 93 L426 441 Q403 472 357.5 495 Q312 518 252 518 Q217 518 190.5 509.5 Q164 501 144.5 489 Q125 477 112.5 463 Q100 449 93 437 L93 97 Q100 85 112.5 71 Q125 57 144.5 45 Q164 33 190.5 24.5 Q217 16 252 16 Z " />
<glyph glyph-name="e" unicode="e" horiz-adv-x="529" d="M267 546 Q310 546 344 534 Q378 522 403 503.5 Q428 485 444 462 Q460 439 469 418 L469 282 L93 282 L93 126 Q102 105 117 85 Q132 65 153.5 49.5 Q175 34 203.5 25 Q232 16 267 16 Q303 16 332 25.5 Q361 35 383 51.5 Q405 68 421 89.5 Q437 111 446 136 L469 136 L469 116 Q462 97 445 73 Q428 49 403 30.5 Q378 12 344 0 Q310 -12 267 -12 Q223 -12 189.5 0 Q156 12 131 30.5 Q106 49 90 72 Q74 95 65 116 L65 418 Q74 439 90 462 Q106 485 131 503.5 Q156 522 189.5 534 Q223 546 267 546 Z M267 518 Q232 518 203.5 509 Q175 500 153.5 484.5 Q132 469 117 449 Q102 429 93 408 L93 308 L441 308 L441 408 Q432 429 417 449 Q402 469 380 484.5 Q358 500 330 509 Q302 518 267 518 Z " />
<glyph glyph-name="f" unicode="f" horiz-adv-x="331" d="M262 713 Q284 713 302 711 Q320 709 326 707 L326 681 Q317 683 301 684 Q285 685 268 685 Q232 685 207.5 677 Q183 669 168 657.5 Q153 646 145 633.5 Q137 621 133 612 L133 534 L306 534 L306 508 L133 508 L133 0 L105 0 L105 508 L23 508 L23 534 L105 534 L105 624 Q111 636 121 651 Q131 666 148.5 680 Q166 694 193.5 703.5 Q221 713 262 713 Z " />
<glyph glyph-name="g" unicode="g" horiz-adv-x="534" d="M454 -59 Q446 -79 429 -101 Q412 -123 387 -139.5 Q362 -156 327.5 -166.5 Q293 -177 250 -177 Q206 -177 173 -166 Q140 -155 116 -139.5 Q92 -124 77 -107 Q62 -90 55 -77 L55 -56 L77 -56 Q84 -71 99 -87.5 Q114 -104 136 -117.5 Q158 -131 186.5 -140 Q215 -149 250 -149 Q319 -149 363 -121.5 Q407 -94 426 -49 L426 83 Q402 56 357.5 36 Q313 16 252 16 Q208 16 176.5 27 Q145 38 122.5 54 Q100 70 86 86.5 Q72 103 65 115 L65 447 Q72 459 86 475.5 Q100 492 122.5 508 Q145 524 177 535 Q209 546 252 546 Q311 546 356 526.5 Q401 507 426 479 L426 534 L454 534 L454 -59 Z M252 44 Q314 44 358.5 67 Q403 90 426 121 L426 441 Q401 474 356.5 496 Q312 518 252 518 Q217 518 190 509.5 Q163 501 144.5 489 Q126 477 113 463 Q100 449 93 437 L93 125 Q100 113 112.5 99 Q125 85 144.5 72.5 Q164 60 191 52 Q218 44 252 44 Z " />
<glyph glyph-name="h" unicode="h" horiz-adv-x="544" d="M282 546 Q325 546 357 535 Q389 524 411.5 508 Q434 492 448 475.5 Q462 459 469 447 L469 0 L441 0 L441 437 Q434 449 421.5 463 Q409 477 389.5 489 Q370 501 343.5 509.5 Q317 518 282 518 Q220 518 175.5 495 Q131 472 108 441 L108 0 L80 0 L80 700 L108 700 L108 479 Q132 505 176 525.5 Q220 546 282 546 Z " />
<glyph glyph-name="i" unicode="i" horiz-adv-x="196" d="M84 0 L84 534 L112 534 L112 0 L84 0 Z M98 705 Q107 705 113.5 702 Q120 699 122 696 L122 662 Q120 659 113.5 656 Q107 653 98 653 Q89 653 82.5 656 Q76 659 74 662 L74 696 Q76 699 82.5 702 Q89 705 98 705 Z " />
<glyph glyph-name="j" unicode="j" horiz-adv-x="188" d="M108 -50 Q99 -71 83 -94 Q67 -117 42.5 -135.5 Q18 -154 -15 -166 Q-48 -178 -91 -178 L-91 -150 Q-57 -150 -29 -141 Q-1 -132 20 -116.5 Q41 -101 56 -81 Q71 -61 80 -40 L80 534 L108 534 L108 -50 Z M94 705 Q103 705 109.5 702 Q116 699 118 696 L118 662 Q116 659 109.5 656 Q103 653 94 653 Q85 653 78.5 656 Q72 659 70 662 L70 696 Q72 699 78.5 702 Q85 705 94 705 Z " />
<glyph glyph-name="k" unicode="k" horiz-adv-x="485" d="M465 0 L450 0 L217 296 L108 190 L108 0 L80 0 L80 700 L108 700 L108 227 L420 534 L435 534 L435 508 L238 316 L465 26 L465 0 Z " />
<glyph glyph-name="l" unicode="l" horiz-adv-x="188" d="M80 0 L80 700 L108 700 L108 0 L80 0 Z " />
<glyph glyph-name="m" unicode="m" horiz-adv-x="785" d="M553 546 Q591 546 618.5 536 Q646 526 664.5 512 Q683 498 694 482.5 Q705 467 710 457 L710 0 L682 0 L682 447 Q676 459 666 471.5 Q656 484 640.5 494.5 Q625 505 603.5 511.5 Q582 518 553 518 Q503 518 466 496.5 Q429 475 409 444 L409 0 L381 0 L381 447 Q375 459 365 471.5 Q355 484 339.5 494.5 Q324 505 302.5 511.5 Q281 518 252 518 Q202 518 164.5 496 Q127 474 108 444 L108 0 L80 0 L80 534 L108 534 L108 484 Q127 508 163.5 527 Q200 546 252 546 Q284 546 308 539 Q332 532 349.5 521 Q367 510 379 497.5 Q391 485 399 473 Q408 486 422 499 Q436 512 454.5 522.5 Q473 533 497.5 539.5 Q522 546 553 546 Z " />
<glyph glyph-name="n" unicode="n" horiz-adv-x="544" d="M282 546 Q325 546 357 535 Q389 524 411.5 508 Q434 492 448 475.5 Q462 459 469 447 L469 0 L441 0 L441 437 Q434 449 421.5 462.5 Q409 476 389.5 488.5 Q370 501 343.5 509.5 Q317 518 282 518 Q221 518 176 495 Q131 472 108 441 L108 0 L80 0 L80 534 L108 534 L108 479 Q132 506 177 526 Q222 546 282 546 Z " />
<glyph glyph-name="o" unicode="o" horiz-adv-x="534" d="M267 546 Q310 546 344 534 Q378 522 403 503.5 Q428 485 444 462 Q460 439 469 418 L469 116 Q460 95 444 72 Q428 49 403 30.5 Q378 12 344 0 Q310 -12 267 -12 Q223 -12 189.5 0 Q156 12 131 30.5 Q106 49 90 72 Q74 95 65 116 L65 418 Q74 439 90 462 Q106 485 131 503.5 Q156 522 189.5 534 Q223 546 267 546 Z M267 518 Q232 518 203.5 509 Q175 500 153.5 484.5 Q132 469 117 449 Q102 429 93 408 L93 126 Q102 105 117 85 Q132 65 153.5 49.5 Q175 34 203.5 25 Q232 16 267 16 Q302 16 330 25 Q358 34 380 49.5 Q402 65 417 85 Q432 105 441 126 L441 408 Q432 429 417 449 Q402 469 380 484.5 Q358 500 330 509 Q302 518 267 518 Z " />
<glyph glyph-name="p" unicode="p" horiz-adv-x="534" d="M282 546 Q325 546 357 535 Q389 524 411.5 508 Q434 492 448 475.5 Q462 459 469 447 L469 87 Q462 75 448 58.5 Q434 42 411.5 26 Q389 10 357 -1 Q325 -12 282 -12 Q219 -12 175.5 8.5 Q132 29 108 55 L108 -166 L80 -166 L80 534 L108 534 L108 479 Q132 505 175.5 525.5 Q219 546 282 546 Z M441 437 Q434 449 421.5 463 Q409 477 389.5 489 Q370 501 343.5 509.5 Q317 518 282 518 Q219 518 175 495 Q131 472 108 441 L108 93 Q131 62 175 39 Q219 16 282 16 Q317 16 343.5 24.5 Q370 33 389.5 45 Q409 57 421.5 71 Q434 85 441 97 L441 437 Z " />
<glyph glyph-name="q" unicode="q" horiz-adv-x="534" d="M454 -166 L426 -166 L426 55 Q400 26 355 7 Q310 -12 252 -12 Q209 -12 177 -1 Q145 10 122.5 26 Q100 42 86 58.5 Q72 75 65 87 L65 447 Q72 459 86 475.5 Q100 492 122.5 508 Q145 524 177.5 535 Q210 546 252 546 Q311 546 356 526.5 Q401 507 426 479 L426 534 L454 534 L454 -166 Z M252 16 Q310 16 355.5 37.5 Q401 59 426 93 L426 441 Q402 474 356.5 496 Q311 518 252 518 Q219 518 192 510 Q165 502 145.5 489.5 Q126 477 113 463 Q100 449 93 437 L93 97 Q100 85 112.5 71.5 Q125 58 144 45.5 Q163 33 190 24.5 Q217 16 252 16 Z " />
<glyph glyph-name="r" unicode="r" horiz-adv-x="329" d="M282 535 Q285 535 290.5 535 Q296 535 304 534 L304 505 Q294 506 289 506 Q284 506 282 506 Q219 506 175 483 Q131 460 108 429 L108 0 L80 0 L80 534 L108 534 L108 467 Q132 493 175.5 514 Q219 535 282 535 Z " />
<glyph glyph-name="s" unicode="s" horiz-adv-x="464" d="M232 546 Q267 546 295 538 Q323 530 344.5 518 Q366 506 381 492.5 Q396 479 404 468 L404 448 L381 448 Q374 461 360 473.5 Q346 486 326.5 496 Q307 506 283 512 Q259 518 232 518 Q184 518 146.5 500 Q109 482 88 458 L88 361 Q99 345 123.5 328 Q148 311 200 298 L272 280 Q329 266 364.5 244 Q400 222 414 198 L414 79 Q406 67 391.5 51.5 Q377 36 355 21.5 Q333 7 302.5 -2.5 Q272 -12 232 -12 Q192 -12 161.5 -2 Q131 8 109 22 Q87 36 72.5 51.5 Q58 67 50 79 L50 99 L73 99 Q80 85 93.5 70.5 Q107 56 127 44 Q147 32 173 24 Q199 16 232 16 Q263 16 288 23 Q313 30 332 41 Q351 52 364.5 64.5 Q378 77 386 89 L386 188 Q372 211 342.5 226.5 Q313 242 265 254 L192 272 Q163 279 140.5 289 Q118 299 102 310 Q86 321 75.5 332 Q65 343 60 351 L60 468 Q68 479 83 492.5 Q98 506 119 518 Q140 530 168.5 538 Q197 546 232 546 Z " />
<glyph glyph-name="t" unicode="t" horiz-adv-x="341" d="M268 21 Q285 21 301 22 Q317 23 326 25 L326 -1 Q320 -3 302 -5 Q284 -7 262 -7 Q221 -7 193.5 2.5 Q166 12 148.5 26 Q131 40 121 55 Q111 70 105 82 L105 508 L23 508 L23 534 L105 534 L105 650 L133 650 L133 534 L306 534 L306 508 L133 508 L133 94 Q137 85 145 72.5 Q153 60 168 48.5 Q183 37 207.5 29 Q232 21 268 21 Z " />
<glyph glyph-name="u" unicode="u" horiz-adv-x="534" d="M454 0 L426 0 L426 50 Q403 27 361.5 7.5 Q320 -12 257 -12 Q214 -12 183 -1.5 Q152 9 130.5 23 Q109 37 95.5 52.5 Q82 68 75 79 L75 534 L103 534 L103 89 Q110 80 122 67.5 Q134 55 152.5 43.5 Q171 32 196.5 24 Q222 16 257 16 Q323 16 363 38 Q403 60 426 87 L426 534 L454 534 L454 0 Z " />
<glyph glyph-name="v" unicode="v" horiz-adv-x="490" d="M266 0 L224 0 L40 508 L40 534 L61 534 L244 27 L247 27 L430 534 L450 534 L450 508 L266 0 Z " />
<glyph glyph-name="w" unicode="w" horiz-adv-x="754" d="M575 0 L533 0 L379 509 L376 509 L221 0 L179 0 L45 508 L45 534 L67 534 L199 27 L202 27 L356 534 L400 534 L553 27 L556 27 L688 534 L709 534 L709 508 L575 0 Z " />
<glyph glyph-name="x" unicode="x" horiz-adv-x="452" d="M245 272 L407 26 L407 0 L393 0 L227 252 L225 252 L59 0 L45 0 L45 26 L207 272 L53 508 L53 534 L68 534 L225 293 L227 293 L384 534 L399 534 L399 508 L245 272 Z " />
<glyph glyph-name="y" unicode="y" horiz-adv-x="488" d="M452 509 L239 -98 Q213 -137 171 -154.5 Q129 -172 84 -172 Q70 -172 60.5 -171 Q51 -170 47 -169 L47 -142 Q58 -144 67 -144 Q76 -144 83 -144 Q133 -144 163.5 -127.5 Q194 -111 213 -85 L238 -13 L50 506 L50 534 L70 534 L251 29 L254 29 L431 534 L452 534 L452 509 Z " />
<glyph glyph-name="z" unicode="z" horiz-adv-x="456" d="M69 26 L421 26 L421 0 L35 0 L35 24 L386 508 L45 508 L45 534 L421 534 L421 510 L69 26 Z " />
<glyph glyph-name="agrave" unicode="&#xe0;" horiz-adv-x="528" d="M251 546 Q294 546 328 534 Q362 522 387 503 Q412 484 428 462 Q444 440 453 418 L453 0 L425 0 L425 69 Q403 37 353 12.5 Q303 -12 237 -12 Q197 -12 167.5 -3 Q138 6 116.5 19.5 Q95 33 81 47 Q67 61 60 72 L60 225 Q64 232 77 246 Q90 260 111 274 Q132 288 164 298 Q196 308 237 308 L425 308 L425 408 Q416 430 401 449.5 Q386 469 364 484.5 Q342 500 314 509 Q286 518 251 518 Q218 518 191.5 509.5 Q165 501 145 488.5 Q125 476 111.5 461.5 Q98 447 92 435 L69 435 L69 455 Q77 466 91.5 481.5 Q106 497 128.5 511.5 Q151 526 181 536 Q211 546 251 546 Z M237 16 Q305 16 355 43.5 Q405 71 425 110 L425 282 L237 282 Q203 282 177.5 274.5 Q152 267 134.5 256.5 Q117 246 106 235 Q95 224 88 216 L88 82 Q94 75 105 64 Q116 53 133.5 42.5 Q151 32 176.5 24 Q202 16 237 16 Z M273 605 L254 605 L173 739 L173 759 L196 759 L273 621 L273 605 Z " />
<glyph glyph-name="aacute" unicode="&#xe1;" horiz-adv-x="528" d="M251 546 Q294 546 328 534 Q362 522 387 503 Q412 484 428 462 Q444 440 453 418 L453 0 L425 0 L425 69 Q403 37 353 12.5 Q303 -12 237 -12 Q197 -12 167.5 -3 Q138 6 116.5 19.5 Q95 33 81 47 Q67 61 60 72 L60 225 Q64 232 77 246 Q90 260 111 274 Q132 288 164 298 Q196 308 237 308 L425 308 L425 408 Q416 430 401 449.5 Q386 469 364 484.5 Q342 500 314 509 Q286 518 251 518 Q218 518 191.5 509.5 Q165 501 145 488.5 Q125 476 111.5 461.5 Q98 447 92 435 L69 435 L69 455 Q77 466 91.5 481.5 Q106 497 128.5 511.5 Q151 526 181 536 Q211 546 251 546 Z M237 16 Q305 16 355 43.5 Q405 71 425 110 L425 282 L237 282 Q203 282 177.5 274.5 Q152 267 134.5 256.5 Q117 246 106 235 Q95 224 88 216 L88 82 Q94 75 105 64 Q116 53 133.5 42.5 Q151 32 176.5 24 Q202 16 237 16 Z M280 605 L261 605 L261 621 L338 759 L361 759 L361 739 L280 605 Z " />
<glyph glyph-name="acircumflex" unicode="&#xe2;" horiz-adv-x="528" d="M251 546 Q294 546 328 534 Q362 522 387 503 Q412 484 428 462 Q444 440 453 418 L453 0 L425 0 L425 69 Q403 37 353 12.5 Q303 -12 237 -12 Q197 -12 167.5 -3 Q138 6 116.5 19.5 Q95 33 81 47 Q67 61 60 72 L60 225 Q64 232 77 246 Q90 260 111 274 Q132 288 164 298 Q196 308 237 308 L425 308 L425 408 Q416 430 401 449.5 Q386 469 364 484.5 Q342 500 314 509 Q286 518 251 518 Q218 518 191.5 509.5 Q165 501 145 488.5 Q125 476 111.5 461.5 Q98 447 92 435 L69 435 L69 455 Q77 466 91.5 481.5 Q106 497 128.5 511.5 Q151 526 181 536 Q211 546 251 546 Z M237 16 Q305 16 355 43.5 Q405 71 425 110 L425 282 L237 282 Q203 282 177.5 274.5 Q152 267 134.5 256.5 Q117 246 106 235 Q95 224 88 216 L88 82 Q94 75 105 64 Q116 53 133.5 42.5 Q151 32 176.5 24 Q202 16 237 16 Z M384 605 L367 605 L264 740 L161 605 L144 605 L144 621 L244 759 L284 759 L384 621 L384 605 Z " />
<glyph glyph-name="atilde" unicode="&#xe3;" horiz-adv-x="528" d="M251 546 Q294 546 328 534 Q362 522 387 503 Q412 484 428 462 Q444 440 453 418 L453 0 L425 0 L425 69 Q403 37 353 12.5 Q303 -12 237 -12 Q197 -12 167.5 -3 Q138 6 116.5 19.5 Q95 33 81 47 Q67 61 60 72 L60 225 Q64 232 77 246 Q90 260 111 274 Q132 288 164 298 Q196 308 237 308 L425 308 L425 408 Q416 430 401 449.5 Q386 469 364 484.5 Q342 500 314 509 Q286 518 251 518 Q218 518 191.5 509.5 Q165 501 145 488.5 Q125 476 111.5 461.5 Q98 447 92 435 L69 435 L69 455 Q77 466 91.5 481.5 Q106 497 128.5 511.5 Q151 526 181 536 Q211 546 251 546 Z M237 16 Q305 16 355 43.5 Q405 71 425 110 L425 282 L237 282 Q203 282 177.5 274.5 Q152 267 134.5 256.5 Q117 246 106 235 Q95 224 88 216 L88 82 Q94 75 105 64 Q116 53 133.5 42.5 Q151 32 176.5 24 Q202 16 237 16 Z M197 718 Q217 718 234.5 709.5 Q252 701 268 690 Q284 679 299.5 670 Q315 661 332 661 Q351 661 364 671 Q377 681 382 694 L382 712 L406 712 L406 685 Q398 665 380.5 650.5 Q363 636 332 636 Q310 636 292.5 645 Q275 654 260 664.5 Q245 675 229.5 684 Q214 693 197 693 Q178 693 164 682 Q150 671 146 661 L146 642 L122 642 L122 669 Q144 718 197 718 Z " />
<glyph glyph-name="adieresis" unicode="&#xe4;" horiz-adv-x="528" d="M251 546 Q294 546 328 534 Q362 522 387 503 Q412 484 428 462 Q444 440 453 418 L453 0 L425 0 L425 69 Q403 37 353 12.5 Q303 -12 237 -12 Q197 -12 167.5 -3 Q138 6 116.5 19.5 Q95 33 81 47 Q67 61 60 72 L60 225 Q64 232 77 246 Q90 260 111 274 Q132 288 164 298 Q196 308 237 308 L425 308 L425 408 Q416 430 401 449.5 Q386 469 364 484.5 Q342 500 314 509 Q286 518 251 518 Q218 518 191.5 509.5 Q165 501 145 488.5 Q125 476 111.5 461.5 Q98 447 92 435 L69 435 L69 455 Q77 466 91.5 481.5 Q106 497 128.5 511.5 Q151 526 181 536 Q211 546 251 546 Z M237 16 Q305 16 355 43.5 Q405 71 425 110 L425 282 L237 282 Q203 282 177.5 274.5 Q152 267 134.5 256.5 Q117 246 106 235 Q95 224 88 216 L88 82 Q94 75 105 64 Q116 53 133.5 42.5 Q151 32 176.5 24 Q202 16 237 16 Z M174 702 Q183 702 190 699 Q197 696 199 693 L199 657 Q197 654 190 651 Q183 648 174 648 Q165 648 158 651 Q151 654 149 657 L149 693 Q151 696 158 699 Q165 702 174 702 Z M353 702 Q362 702 369 699 Q376 696 378 693 L378 657 Q376 654 369 651 Q362 648 353 648 Q344 648 337 651 Q330 654 328 657 L328 693 Q330 696 337 699 Q344 702 353 702 Z " />
<glyph glyph-name="amacron" unicode="&#x101;" horiz-adv-x="528" d="M251 546 Q294 546 328 534 Q362 522 387 503 Q412 484 428 462 Q444 440 453 418 L453 0 L425 0 L425 69 Q403 37 353 12.5 Q303 -12 237 -12 Q197 -12 167.5 -3 Q138 6 116.5 19.5 Q95 33 81 47 Q67 61 60 72 L60 225 Q64 232 77 246 Q90 260 111 274 Q132 288 164 298 Q196 308 237 308 L425 308 L425 408 Q416 430 401 449.5 Q386 469 364 484.5 Q342 500 314 509 Q286 518 251 518 Q218 518 191.5 509.5 Q165 501 145 488.5 Q125 476 111.5 461.5 Q98 447 92 435 L69 435 L69 455 Q77 466 91.5 481.5 Q106 497 128.5 511.5 Q151 526 181 536 Q211 546 251 546 Z M237 16 Q305 16 355 43.5 Q405 71 425 110 L425 282 L237 282 Q203 282 177.5 274.5 Q152 267 134.5 256.5 Q117 246 106 235 Q95 224 88 216 L88 82 Q94 75 105 64 Q116 53 133.5 42.5 Q151 32 176.5 24 Q202 16 237 16 Z M124 674 L124 700 L404 700 L404 674 L124 674 Z " />
<glyph glyph-name="abreve" unicode="&#x103;" horiz-adv-x="528" d="M251 546 Q294 546 328 534 Q362 522 387 503 Q412 484 428 462 Q444 440 453 418 L453 0 L425 0 L425 69 Q403 37 353 12.5 Q303 -12 237 -12 Q197 -12 167.5 -3 Q138 6 116.5 19.5 Q95 33 81 47 Q67 61 60 72 L60 225 Q64 232 77 246 Q90 260 111 274 Q132 288 164 298 Q196 308 237 308 L425 308 L425 408 Q416 430 401 449.5 Q386 469 364 484.5 Q342 500 314 509 Q286 518 251 518 Q218 518 191.5 509.5 Q165 501 145 488.5 Q125 476 111.5 461.5 Q98 447 92 435 L69 435 L69 455 Q77 466 91.5 481.5 Q106 497 128.5 511.5 Q151 526 181 536 Q211 546 251 546 Z M237 16 Q305 16 355 43.5 Q405 71 425 110 L425 282 L237 282 Q203 282 177.5 274.5 Q152 267 134.5 256.5 Q117 246 106 235 Q95 224 88 216 L88 82 Q94 75 105 64 Q116 53 133.5 42.5 Q151 32 176.5 24 Q202 16 237 16 Z M380 679 Q376 671 368 660 Q360 649 346 639 Q332 629 312 622.5 Q292 616 264 616 Q236 616 216 622.5 Q196 629 182 639 Q168 649 160 660 Q152 671 148 679 L148 722 L175 722 L175 688 Q177 683 182.5 675 Q188 667 198.5 659.5 Q209 652 225 646.5 Q241 641 264 641 Q286 641 302.5 646.5 Q319 652 329.5 659.5 Q340 667 345.5 675 Q351 683 353 688 L353 722 L380 722 L380 679 Z " />
<glyph glyph-name="aring" unicode="&#xe5;" horiz-adv-x="528" d="M251 546 Q294 546 328 534 Q362 522 387 503 Q412 484 428 462 Q444 440 453 418 L453 0 L425 0 L425 69 Q403 37 353 12.5 Q303 -12 237 -12 Q197 -12 167.5 -3 Q138 6 116.5 19.5 Q95 33 81 47 Q67 61 60 72 L60 225 Q64 232 77 246 Q90 260 111 274 Q132 288 164 298 Q196 308 237 308 L425 308 L425 408 Q416 430 401 449.5 Q386 469 364 484.5 Q342 500 314 509 Q286 518 251 518 Q218 518 191.5 509.5 Q165 501 145 488.5 Q125 476 111.5 461.5 Q98 447 92 435 L69 435 L69 455 Q77 466 91.5 481.5 Q106 497 128.5 511.5 Q151 526 181 536 Q211 546 251 546 Z M237 16 Q305 16 355 43.5 Q405 71 425 110 L425 282 L237 282 Q203 282 177.5 274.5 Q152 267 134.5 256.5 Q117 246 106 235 Q95 224 88 216 L88 82 Q94 75 105 64 Q116 53 133.5 42.5 Q151 32 176.5 24 Q202 16 237 16 Z M264 769 Q297 769 320.5 755 Q344 741 352 725 L352 646 Q344 630 320.5 616 Q297 602 264 602 Q231 602 207.5 616 Q184 630 176 646 L176 725 Q184 741 207.5 755 Q231 769 264 769 Z M264 744 Q239 744 224 735 Q209 726 202 717 L202 654 Q209 645 224 636 Q239 627 264 627 Q289 627 304 636 Q319 645 326 654 L326 717 Q319 726 304 735 Q289 744 264 744 Z " />
<glyph glyph-name="aogonek" unicode="&#x105;" horiz-adv-x="528" d="M404 -180 Q424 -180 437 -177 Q450 -174 464 -166 L464 -192 Q450 -199 437.5 -202 Q425 -205 404 -205 Q375 -205 353.5 -192.5 Q332 -180 324 -163 L324 -102 Q332 -84 354.5 -56.5 Q377 -29 425 7 L425 69 Q401 36 352.5 12 Q304 -12 237 -12 Q197 -12 167.5 -3 Q138 6 116.5 19.5 Q95 33 81 47 Q67 61 60 72 L60 225 Q65 232 77.5 246 Q90 260 111 274 Q132 288 163 298 Q194 308 237 308 L425 308 L425 408 Q417 429 401.5 449 Q386 469 364 484.5 Q342 500 314 509 Q286 518 251 518 Q218 518 191.5 509.5 Q165 501 145 488.5 Q125 476 111.5 461.5 Q98 447 92 435 L69 435 L69 455 Q76 465 91 481 Q106 497 128.5 511.5 Q151 526 181 536 Q211 546 251 546 Q294 546 328 534 Q362 522 387 503.5 Q412 485 429 461 Q446 437 453 418 L453 0 Q399 -42 376 -70.5 Q353 -99 350 -109 L350 -153 Q354 -162 369 -171 Q384 -180 404 -180 Z M237 16 Q306 16 355.5 44 Q405 72 425 110 L425 282 L237 282 Q203 282 177.5 274.5 Q152 267 134.5 256.5 Q117 246 106 235 Q95 224 88 216 L88 82 Q94 75 105 64 Q116 53 133 42.5 Q150 32 176 24 Q202 16 237 16 Z " />
<glyph glyph-name="ae" unicode="&#xe6;" horiz-adv-x="889" d="M453 126 Q462 105 477 85 Q492 65 513.5 49.5 Q535 34 563.5 25 Q592 16 627 16 Q663 16 691.5 25.5 Q720 35 742.5 51.5 Q765 68 781 89.5 Q797 111 806 136 L829 136 L829 116 Q820 95 804 72 Q788 49 763 30.5 Q738 12 704 0 Q670 -12 627 -12 Q591 -12 561 -3.5 Q531 5 508 19 Q485 33 468 51 Q451 69 439 88 Q429 71 411.5 53 Q394 35 368.5 20.5 Q343 6 310 -3 Q277 -12 237 -12 Q198 -12 168 -3 Q138 6 116.5 19.5 Q95 33 81 47 Q67 61 60 72 L60 225 Q65 232 77.5 246 Q90 260 111 274 Q132 288 163 298 Q194 308 237 308 L425 308 L425 408 Q417 429 401.5 449 Q386 469 364 484.5 Q342 500 314 509 Q286 518 251 518 Q216 518 190 509.5 Q164 501 144.5 488 Q125 475 112 460.5 Q99 446 92 435 L69 435 L69 455 Q77 466 91.5 481.5 Q106 497 128.5 511.5 Q151 526 181 536 Q211 546 251 546 Q288 546 317.5 537.5 Q347 529 370 515 Q393 501 410.5 483 Q428 465 439 446 Q450 465 467.5 483 Q485 501 508 515 Q531 529 560.5 537.5 Q590 546 627 546 Q670 546 704 534 Q738 522 763 503.5 Q788 485 804 462 Q820 439 829 418 L829 282 L453 282 L453 126 Z M801 308 L801 408 Q792 429 777 449 Q762 469 740 484.5 Q718 500 690 509 Q662 518 627 518 Q592 518 563.5 509 Q535 500 513.5 484.5 Q492 469 476.5 449 Q461 429 453 408 L453 308 L801 308 Z M237 282 Q203 282 178 274.5 Q153 267 135 256.5 Q117 246 106 235 Q95 224 88 216 L88 82 Q94 75 104.5 64 Q115 53 133 42.5 Q151 32 176.5 24 Q202 16 237 16 Q274 16 304.5 24.5 Q335 33 359 47 Q383 61 399.5 79 Q416 97 425 116 L425 282 L237 282 Z " />
<glyph glyph-name="cacute" unicode="&#x107;" horiz-adv-x="514" d="M267 546 Q310 546 344 534 Q378 522 403 503.5 Q428 485 444 462 Q460 439 469 418 L469 398 L446 398 Q437 422 421.5 443.5 Q406 465 384 481.5 Q362 498 332.5 508 Q303 518 267 518 Q232 518 203.5 509 Q175 500 153.5 484.5 Q132 469 117 449 Q102 429 93 408 L93 126 Q102 105 117 85 Q132 65 153.5 49.5 Q175 34 203.5 25 Q232 16 267 16 Q303 16 332.5 25.5 Q362 35 384 51.5 Q406 68 421.5 90 Q437 112 446 136 L469 136 L469 116 Q460 95 444 72 Q428 49 403 30.5 Q378 12 344 0 Q310 -12 267 -12 Q223 -12 189.5 0 Q156 12 131 30.5 Q106 49 90 72 Q74 95 65 116 L65 418 Q74 439 90 462 Q106 485 131 503.5 Q156 522 189.5 534 Q223 546 267 546 Z M281 605 L262 605 L262 621 L339 759 L362 759 L362 739 L281 605 Z " />
<glyph glyph-name="ccircumflex" unicode="&#x109;" horiz-adv-x="514" d="M267 546 Q310 546 344 534 Q378 522 403 503.5 Q428 485 444 462 Q460 439 469 418 L469 398 L446 398 Q437 422 421.5 443.5 Q406 465 384 481.5 Q362 498 332.5 508 Q303 518 267 518 Q232 518 203.5 509 Q175 500 153.5 484.5 Q132 469 117 449 Q102 429 93 408 L93 126 Q102 105 117 85 Q132 65 153.5 49.5 Q175 34 203.5 25 Q232 16 267 16 Q303 16 332.5 25.5 Q362 35 384 51.5 Q406 68 421.5 90 Q437 112 446 136 L469 136 L469 116 Q460 95 444 72 Q428 49 403 30.5 Q378 12 344 0 Q310 -12 267 -12 Q223 -12 189.5 0 Q156 12 131 30.5 Q106 49 90 72 Q74 95 65 116 L65 418 Q74 439 90 462 Q106 485 131 503.5 Q156 522 189.5 534 Q223 546 267 546 Z M385 605 L368 605 L265 740 L162 605 L145 605 L145 621 L245 759 L285 759 L385 621 L385 605 Z " />
<glyph glyph-name="ccaron" unicode="&#x10d;" horiz-adv-x="514" d="M267 546 Q310 546 344 534 Q378 522 403 503.5 Q428 485 444 462 Q460 439 469 418 L469 398 L446 398 Q437 422 421.5 443.5 Q406 465 384 481.5 Q362 498 332.5 508 Q303 518 267 518 Q232 518 203.5 509 Q175 500 153.5 484.5 Q132 469 117 449 Q102 429 93 408 L93 126 Q102 105 117 85 Q132 65 153.5 49.5 Q175 34 203.5 25 Q232 16 267 16 Q303 16 332.5 25.5 Q362 35 384 51.5 Q406 68 421.5 90 Q437 112 446 136 L469 136 L469 116 Q460 95 444 72 Q428 49 403 30.5 Q378 12 344 0 Q310 -12 267 -12 Q223 -12 189.5 0 Q156 12 131 30.5 Q106 49 90 72 Q74 95 65 116 L65 418 Q74 439 90 462 Q106 485 131 503.5 Q156 522 189.5 534 Q223 546 267 546 Z M285 605 L245 605 L145 743 L145 759 L162 759 L265 625 L368 759 L385 759 L385 743 L285 605 Z " />
<glyph glyph-name="cdotaccent" unicode="&#x10b;" horiz-adv-x="514" d="M267 546 Q310 546 344 534 Q378 522 403 503.5 Q428 485 444 462 Q460 439 469 418 L469 398 L446 398 Q437 422 421.5 443.5 Q406 465 384 481.5 Q362 498 332.5 508 Q303 518 267 518 Q232 518 203.5 509 Q175 500 153.5 484.5 Q132 469 117 449 Q102 429 93 408 L93 126 Q102 105 117 85 Q132 65 153.5 49.5 Q175 34 203.5 25 Q232 16 267 16 Q303 16 332.5 25.5 Q362 35 384 51.5 Q406 68 421.5 90 Q437 112 446 136 L469 136 L469 116 Q460 95 444 72 Q428 49 403 30.5 Q378 12 344 0 Q310 -12 267 -12 Q223 -12 189.5 0 Q156 12 131 30.5 Q106 49 90 72 Q74 95 65 116 L65 418 Q74 439 90 462 Q106 485 131 503.5 Q156 522 189.5 534 Q223 546 267 546 Z M265 705 Q274 705 280.5 702 Q287 699 289 696 L289 662 Q287 659 280.5 656 Q274 653 265 653 Q256 653 249.5 656 Q243 659 241 662 L241 696 Q243 699 249.5 702 Q256 705 265 705 Z " />
<glyph glyph-name="ccedilla" unicode="&#xe7;" horiz-adv-x="514" d="M267 518 Q232 518 203.5 509 Q175 500 153.5 484.5 Q132 469 116.5 449 Q101 429 93 408 L93 126 Q102 105 117 85 Q132 65 153.5 49.5 Q175 34 203.5 25 Q232 16 267 16 Q303 16 332 25.5 Q361 35 383.5 51.5 Q406 68 421.5 90 Q437 112 446 136 L469 136 L469 116 Q460 93 443.5 71 Q427 49 402.5 30.5 Q378 12 344 0 Q310 -12 267 -12 L264 -12 L246 -63 L270 -63 Q301 -63 320.5 -77 Q340 -91 348 -106 L348 -171 Q340 -186 320.5 -200 Q301 -214 270 -214 Q242 -214 220.5 -206 Q199 -198 182 -187 L190 -165 Q206 -176 225 -183.5 Q244 -191 270 -191 Q292 -191 305 -182 Q318 -173 323 -164 L323 -113 Q318 -104 305 -94.5 Q292 -85 270 -85 L214 -85 L239 -11 Q202 -7 173.5 6 Q145 19 123.5 37 Q102 55 87.5 75.5 Q73 96 65 116 L65 418 Q73 438 89.5 461 Q106 484 131 503 Q156 522 189.5 534 Q223 546 267 546 Q310 546 344 534 Q378 522 403 503.5 Q428 485 444 462 Q460 439 469 418 L469 398 L446 398 Q437 422 421.5 443.5 Q406 465 384 481.5 Q362 498 332.5 508 Q303 518 267 518 Z " />
<glyph glyph-name="dcaron" unicode="&#x10f;" horiz-adv-x="650" d="M454 0 L426 0 L426 55 Q401 28 358 8 Q315 -12 252 -12 Q208 -12 176.5 -1 Q145 10 122.5 26 Q100 42 86 58.5 Q72 75 65 87 L65 447 Q72 459 86 475.5 Q100 492 122.5 508 Q145 524 176.5 535 Q208 546 252 546 Q314 546 358 525.5 Q402 505 426 479 L426 700 L454 700 L454 0 Z M252 16 Q313 16 358 39 Q403 62 426 93 L426 441 Q403 472 357.5 495 Q312 518 252 518 Q217 518 190.5 509.5 Q164 501 144.5 489 Q125 477 112.5 463 Q100 449 93 437 L93 97 Q100 85 112.5 71 Q125 57 144.5 45 Q164 33 190.5 24.5 Q217 16 252 16 Z M592 555 L572 555 L572 571 L589 700 L616 700 L616 680 L592 555 Z " />
<glyph glyph-name="egrave" unicode="&#xe8;" horiz-adv-x="529" d="M267 546 Q310 546 344 534 Q378 522 403 503.5 Q428 485 444 462 Q460 439 469 418 L469 282 L93 282 L93 126 Q102 105 117 85 Q132 65 153.5 49.5 Q175 34 203.5 25 Q232 16 267 16 Q303 16 332 25.5 Q361 35 383 51.5 Q405 68 421 89.5 Q437 111 446 136 L469 136 L469 116 Q462 97 445 73 Q428 49 403 30.5 Q378 12 344 0 Q310 -12 267 -12 Q223 -12 189.5 0 Q156 12 131 30.5 Q106 49 90 72 Q74 95 65 116 L65 418 Q74 439 90 462 Q106 485 131 503.5 Q156 522 189.5 534 Q223 546 267 546 Z M267 518 Q232 518 203.5 509 Q175 500 153.5 484.5 Q132 469 117 449 Q102 429 93 408 L93 308 L441 308 L441 408 Q432 429 417 449 Q402 469 380 484.5 Q358 500 330 509 Q302 518 267 518 Z M283 605 L264 605 L183 739 L183 759 L206 759 L283 621 L283 605 Z " />
<glyph glyph-name="eacute" unicode="&#xe9;" horiz-adv-x="529" d="M267 546 Q310 546 344 534 Q378 522 403 503.5 Q428 485 444 462 Q460 439 469 418 L469 282 L93 282 L93 126 Q102 105 117 85 Q132 65 153.5 49.5 Q175 34 203.5 25 Q232 16 267 16 Q303 16 332 25.5 Q361 35 383 51.5 Q405 68 421 89.5 Q437 111 446 136 L469 136 L469 116 Q462 97 445 73 Q428 49 403 30.5 Q378 12 344 0 Q310 -12 267 -12 Q223 -12 189.5 0 Q156 12 131 30.5 Q106 49 90 72 Q74 95 65 116 L65 418 Q74 439 90 462 Q106 485 131 503.5 Q156 522 189.5 534 Q223 546 267 546 Z M267 518 Q232 518 203.5 509 Q175 500 153.5 484.5 Q132 469 117 449 Q102 429 93 408 L93 308 L441 308 L441 408 Q432 429 417 449 Q402 469 380 484.5 Q358 500 330 509 Q302 518 267 518 Z M290 605 L271 605 L271 621 L348 759 L371 759 L371 739 L290 605 Z " />
<glyph glyph-name="ecircumflex" unicode="&#xea;" horiz-adv-x="529" d="M267 546 Q310 546 344 534 Q378 522 403 503.5 Q428 485 444 462 Q460 439 469 418 L469 282 L93 282 L93 126 Q102 105 117 85 Q132 65 153.5 49.5 Q175 34 203.5 25 Q232 16 267 16 Q303 16 332 25.5 Q361 35 383 51.5 Q405 68 421 89.5 Q437 111 446 136 L469 136 L469 116 Q462 97 445 73 Q428 49 403 30.5 Q378 12 344 0 Q310 -12 267 -12 Q223 -12 189.5 0 Q156 12 131 30.5 Q106 49 90 72 Q74 95 65 116 L65 418 Q74 439 90 462 Q106 485 131 503.5 Q156 522 189.5 534 Q223 546 267 546 Z M267 518 Q232 518 203.5 509 Q175 500 153.5 484.5 Q132 469 117 449 Q102 429 93 408 L93 308 L441 308 L441 408 Q432 429 417 449 Q402 469 380 484.5 Q358 500 330 509 Q302 518 267 518 Z M394 605 L377 605 L274 740 L171 605 L154 605 L154 621 L254 759 L294 759 L394 621 L394 605 Z " />
<glyph glyph-name="ecaron" unicode="&#x11b;" horiz-adv-x="529" d="M267 546 Q310 546 344 534 Q378 522 403 503.5 Q428 485 444 462 Q460 439 469 418 L469 282 L93 282 L93 126 Q102 105 117 85 Q132 65 153.5 49.5 Q175 34 203.5 25 Q232 16 267 16 Q303 16 332 25.5 Q361 35 383 51.5 Q405 68 421 89.5 Q437 111 446 136 L469 136 L469 116 Q462 97 445 73 Q428 49 403 30.5 Q378 12 344 0 Q310 -12 267 -12 Q223 -12 189.5 0 Q156 12 131 30.5 Q106 49 90 72 Q74 95 65 116 L65 418 Q74 439 90 462 Q106 485 131 503.5 Q156 522 189.5 534 Q223 546 267 546 Z M267 518 Q232 518 203.5 509 Q175 500 153.5 484.5 Q132 469 117 449 Q102 429 93 408 L93 308 L441 308 L441 408 Q432 429 417 449 Q402 469 380 484.5 Q358 500 330 509 Q302 518 267 518 Z M294 605 L254 605 L154 743 L154 759 L171 759 L274 625 L377 759 L394 759 L394 743 L294 605 Z " />
<glyph glyph-name="edieresis" unicode="&#xeb;" horiz-adv-x="529" d="M267 546 Q310 546 344 534 Q378 522 403 503.5 Q428 485 444 462 Q460 439 469 418 L469 282 L93 282 L93 126 Q102 105 117 85 Q132 65 153.5 49.5 Q175 34 203.5 25 Q232 16 267 16 Q303 16 332 25.5 Q361 35 383 51.5 Q405 68 421 89.5 Q437 111 446 136 L469 136 L469 116 Q462 97 445 73 Q428 49 403 30.5 Q378 12 344 0 Q310 -12 267 -12 Q223 -12 189.5 0 Q156 12 131 30.5 Q106 49 90 72 Q74 95 65 116 L65 418 Q74 439 90 462 Q106 485 131 503.5 Q156 522 189.5 534 Q223 546 267 546 Z M267 518 Q232 518 203.5 509 Q175 500 153.5 484.5 Q132 469 117 449 Q102 429 93 408 L93 308 L441 308 L441 408 Q432 429 417 449 Q402 469 380 484.5 Q358 500 330 509 Q302 518 267 518 Z M184 702 Q193 702 200 699 Q207 696 209 693 L209 657 Q207 654 200 651 Q193 648 184 648 Q175 648 168 651 Q161 654 159 657 L159 693 Q161 696 168 699 Q175 702 184 702 Z M363 702 Q372 702 379 699 Q386 696 388 693 L388 657 Q386 654 379 651 Q372 648 363 648 Q354 648 347 651 Q340 654 338 657 L338 693 Q340 696 347 699 Q354 702 363 702 Z " />
<glyph glyph-name="emacron" unicode="&#x113;" horiz-adv-x="529" d="M267 546 Q310 546 344 534 Q378 522 403 503.5 Q428 485 444 462 Q460 439 469 418 L469 282 L93 282 L93 126 Q102 105 117 85 Q132 65 153.5 49.5 Q175 34 203.5 25 Q232 16 267 16 Q303 16 332 25.5 Q361 35 383 51.5 Q405 68 421 89.5 Q437 111 446 136 L469 136 L469 116 Q462 97 445 73 Q428 49 403 30.5 Q378 12 344 0 Q310 -12 267 -12 Q223 -12 189.5 0 Q156 12 131 30.5 Q106 49 90 72 Q74 95 65 116 L65 418 Q74 439 90 462 Q106 485 131 503.5 Q156 522 189.5 534 Q223 546 267 546 Z M267 518 Q232 518 203.5 509 Q175 500 153.5 484.5 Q132 469 117 449 Q102 429 93 408 L93 308 L441 308 L441 408 Q432 429 417 449 Q402 469 380 484.5 Q358 500 330 509 Q302 518 267 518 Z M134 674 L134 700 L414 700 L414 674 L134 674 Z " />
<glyph glyph-name="ebreve" unicode="&#x115;" horiz-adv-x="529" d="M267 546 Q310 546 344 534 Q378 522 403 503.5 Q428 485 444 462 Q460 439 469 418 L469 282 L93 282 L93 126 Q102 105 117 85 Q132 65 153.5 49.5 Q175 34 203.5 25 Q232 16 267 16 Q303 16 332 25.5 Q361 35 383 51.5 Q405 68 421 89.5 Q437 111 446 136 L469 136 L469 116 Q462 97 445 73 Q428 49 403 30.5 Q378 12 344 0 Q310 -12 267 -12 Q223 -12 189.5 0 Q156 12 131 30.5 Q106 49 90 72 Q74 95 65 116 L65 418 Q74 439 90 462 Q106 485 131 503.5 Q156 522 189.5 534 Q223 546 267 546 Z M267 518 Q232 518 203.5 509 Q175 500 153.5 484.5 Q132 469 117 449 Q102 429 93 408 L93 308 L441 308 L441 408 Q432 429 417 449 Q402 469 380 484.5 Q358 500 330 509 Q302 518 267 518 Z M390 679 Q386 671 378 660 Q370 649 356 639 Q342 629 322 622.5 Q302 616 274 616 Q246 616 226 622.5 Q206 629 192 639 Q178 649 170 660 Q162 671 158 679 L158 722 L185 722 L185 688 Q187 683 192.5 675 Q198 667 208.5 659.5 Q219 652 235 646.5 Q251 641 274 641 Q296 641 312.5 646.5 Q329 652 339.5 659.5 Q350 667 355.5 675 Q361 683 363 688 L363 722 L390 722 L390 679 Z " />
<glyph glyph-name="edotaccent" unicode="&#x117;" horiz-adv-x="529" d="M267 546 Q310 546 344 534 Q378 522 403 503.5 Q428 485 444 462 Q460 439 469 418 L469 282 L93 282 L93 126 Q102 105 117 85 Q132 65 153.5 49.5 Q175 34 203.5 25 Q232 16 267 16 Q303 16 332 25.5 Q361 35 383 51.5 Q405 68 421 89.5 Q437 111 446 136 L469 136 L469 116 Q462 97 445 73 Q428 49 403 30.5 Q378 12 344 0 Q310 -12 267 -12 Q223 -12 189.5 0 Q156 12 131 30.5 Q106 49 90 72 Q74 95 65 116 L65 418 Q74 439 90 462 Q106 485 131 503.5 Q156 522 189.5 534 Q223 546 267 546 Z M267 518 Q232 518 203.5 509 Q175 500 153.5 484.5 Q132 469 117 449 Q102 429 93 408 L93 308 L441 308 L441 408 Q432 429 417 449 Q402 469 380 484.5 Q358 500 330 509 Q302 518 267 518 Z M274 705 Q283 705 289.5 702 Q296 699 298 696 L298 662 Q296 659 289.5 656 Q283 653 274 653 Q265 653 258.5 656 Q252 659 250 662 L250 696 Q252 699 258.5 702 Q265 705 274 705 Z " />
<glyph glyph-name="eogonek" unicode="&#x119;" horiz-adv-x="529" d="M267 546 Q310 546 344 534 Q378 522 403 503.5 Q428 485 444.5 461.5 Q461 438 469 418 L469 282 L93 282 L93 126 Q101 106 116.5 85.5 Q132 65 153.5 49.5 Q175 34 203.5 25 Q232 16 267 16 Q303 16 331.5 25.5 Q360 35 382.5 51.5 Q405 68 421 89.5 Q437 111 446 136 L469 136 L469 116 Q461 98 443 71 Q425 44 405 13.5 Q385 -17 366 -49 Q347 -81 338 -109 L338 -153 Q342 -162 357 -171 Q372 -180 392 -180 Q412 -180 425 -177 Q438 -174 452 -166 L452 -192 Q438 -199 425.5 -202 Q413 -205 392 -205 Q363 -205 341.5 -192.5 Q320 -180 312 -163 L312 -102 Q317 -86 334 -55 Q351 -24 374 12 Q352 1 325.5 -5.5 Q299 -12 267 -12 Q223 -12 189.5 0 Q156 12 131 30.5 Q106 49 89 73 Q72 97 65 116 L65 418 Q73 438 89.5 461 Q106 484 131 503 Q156 522 189.5 534 Q223 546 267 546 Z M267 518 Q232 518 203.5 509 Q175 500 153.5 484.5 Q132 469 116.5 449 Q101 429 93 408 L93 308 L441 308 L441 408 Q433 429 417.5 449 Q402 469 380 484.5 Q358 500 330 509 Q302 518 267 518 Z " />
<glyph glyph-name="gcircumflex" unicode="&#x11d;" horiz-adv-x="534" d="M454 -59 Q446 -79 429 -101 Q412 -123 387 -139.5 Q362 -156 327.5 -166.5 Q293 -177 250 -177 Q206 -177 173 -166 Q140 -155 116 -139.5 Q92 -124 77 -107 Q62 -90 55 -77 L55 -56 L77 -56 Q84 -71 99 -87.5 Q114 -104 136 -117.5 Q158 -131 186.5 -140 Q215 -149 250 -149 Q319 -149 363 -121.5 Q407 -94 426 -49 L426 83 Q402 56 357.5 36 Q313 16 252 16 Q208 16 176.5 27 Q145 38 122.5 54 Q100 70 86 86.5 Q72 103 65 115 L65 447 Q72 459 86 475.5 Q100 492 122.5 508 Q145 524 177 535 Q209 546 252 546 Q311 546 356 526.5 Q401 507 426 479 L426 534 L454 534 L454 -59 Z M252 44 Q314 44 358.5 67 Q403 90 426 121 L426 441 Q401 474 356.5 496 Q312 518 252 518 Q217 518 190 509.5 Q163 501 144.5 489 Q126 477 113 463 Q100 449 93 437 L93 125 Q100 113 112.5 99 Q125 85 144.5 72.5 Q164 60 191 52 Q218 44 252 44 Z M387 605 L370 605 L267 740 L164 605 L147 605 L147 621 L247 759 L287 759 L387 621 L387 605 Z " />
<glyph glyph-name="gbreve" unicode="&#x11f;" horiz-adv-x="534" d="M454 -59 Q446 -79 429 -101 Q412 -123 387 -139.5 Q362 -156 327.5 -166.5 Q293 -177 250 -177 Q206 -177 173 -166 Q140 -155 116 -139.5 Q92 -124 77 -107 Q62 -90 55 -77 L55 -56 L77 -56 Q84 -71 99 -87.5 Q114 -104 136 -117.5 Q158 -131 186.5 -140 Q215 -149 250 -149 Q319 -149 363 -121.5 Q407 -94 426 -49 L426 83 Q402 56 357.5 36 Q313 16 252 16 Q208 16 176.5 27 Q145 38 122.5 54 Q100 70 86 86.5 Q72 103 65 115 L65 447 Q72 459 86 475.5 Q100 492 122.5 508 Q145 524 177 535 Q209 546 252 546 Q311 546 356 526.5 Q401 507 426 479 L426 534 L454 534 L454 -59 Z M252 44 Q314 44 358.5 67 Q403 90 426 121 L426 441 Q401 474 356.5 496 Q312 518 252 518 Q217 518 190 509.5 Q163 501 144.5 489 Q126 477 113 463 Q100 449 93 437 L93 125 Q100 113 112.5 99 Q125 85 144.5 72.5 Q164 60 191 52 Q218 44 252 44 Z M383 679 Q379 671 371 660 Q363 649 349 639 Q335 629 315 622.5 Q295 616 267 616 Q239 616 219 622.5 Q199 629 185 639 Q171 649 163 660 Q155 671 151 679 L151 722 L178 722 L178 688 Q180 683 185.5 675 Q191 667 201.5 659.5 Q212 652 228 646.5 Q244 641 267 641 Q289 641 305.5 646.5 Q322 652 332.5 659.5 Q343 667 348.5 675 Q354 683 356 688 L356 722 L383 722 L383 679 Z " />
<glyph glyph-name="gdotaccent" unicode="&#x121;" horiz-adv-x="534" d="M454 -59 Q446 -79 429 -101 Q412 -123 387 -139.5 Q362 -156 327.5 -166.5 Q293 -177 250 -177 Q206 -177 173 -166 Q140 -155 116 -139.5 Q92 -124 77 -107 Q62 -90 55 -77 L55 -56 L77 -56 Q84 -71 99 -87.5 Q114 -104 136 -117.5 Q158 -131 186.5 -140 Q215 -149 250 -149 Q319 -149 363 -121.5 Q407 -94 426 -49 L426 83 Q402 56 357.5 36 Q313 16 252 16 Q208 16 176.5 27 Q145 38 122.5 54 Q100 70 86 86.5 Q72 103 65 115 L65 447 Q72 459 86 475.5 Q100 492 122.5 508 Q145 524 177 535 Q209 546 252 546 Q311 546 356 526.5 Q401 507 426 479 L426 534 L454 534 L454 -59 Z M252 44 Q314 44 358.5 67 Q403 90 426 121 L426 441 Q401 474 356.5 496 Q312 518 252 518 Q217 518 190 509.5 Q163 501 144.5 489 Q126 477 113 463 Q100 449 93 437 L93 125 Q100 113 112.5 99 Q125 85 144.5 72.5 Q164 60 191 52 Q218 44 252 44 Z M267 705 Q276 705 282.5 702 Q289 699 291 696 L291 662 Q289 659 282.5 656 Q276 653 267 653 Q258 653 251.5 656 Q245 659 243 662 L243 696 Q245 699 251.5 702 Q258 705 267 705 Z " />
<glyph glyph-name="gcommaaccent" unicode="&#x123;" horiz-adv-x="534" d="M454 -59 Q446 -79 429 -101 Q412 -123 387 -139.5 Q362 -156 327.5 -166.5 Q293 -177 250 -177 Q206 -177 173 -166 Q140 -155 116 -139.5 Q92 -124 77 -107 Q62 -90 55 -77 L55 -56 L77 -56 Q84 -71 99 -87.5 Q114 -104 136 -117.5 Q158 -131 186.5 -140 Q215 -149 250 -149 Q319 -149 363 -121.5 Q407 -94 426 -49 L426 83 Q402 56 357.5 36 Q313 16 252 16 Q208 16 176.5 27 Q145 38 122.5 54 Q100 70 86 86.5 Q72 103 65 115 L65 447 Q72 459 86 475.5 Q100 492 122.5 508 Q145 524 177 535 Q209 546 252 546 Q311 546 356 526.5 Q401 507 426 479 L426 534 L454 534 L454 -59 Z M252 44 Q314 44 358.5 67 Q403 90 426 121 L426 441 Q401 474 356.5 496 Q312 518 252 518 Q217 518 190 509.5 Q163 501 144.5 489 Q126 477 113 463 Q100 449 93 437 L93 125 Q100 113 112.5 99 Q125 85 144.5 72.5 Q164 60 191 52 Q218 44 252 44 Z M267 661 Q275 661 281.5 658.5 Q288 656 290 653 L290 623 Q288 621 281.5 618 Q275 615 267 615 Q260 615 253 618 Q246 621 244 623 L244 700 Q246 705 254 713 Q262 721 275 721 L287 721 L287 703 L277 703 Q271 703 267 697 L267 661 Z " />
<glyph glyph-name="hcircumflex" unicode="&#x125;" horiz-adv-x="544" d="M282 546 Q325 546 357 535 Q389 524 411.5 508 Q434 492 448 475.5 Q462 459 469 447 L469 0 L441 0 L441 437 Q434 449 421.5 463 Q409 477 389.5 489 Q370 501 343.5 509.5 Q317 518 282 518 Q220 518 175.5 495 Q131 472 108 441 L108 0 L80 0 L80 700 L108 700 L108 479 Q132 505 176 525.5 Q220 546 282 546 Z M396 744 L379 744 L276 868 L173 744 L156 744 L156 760 L256 888 L296 888 L396 760 L396 744 Z " />
<glyph glyph-name="hbar" unicode="&#x127;" horiz-adv-x="559" d="M341 644 L341 620 L123 620 L123 479 Q147 505 190.5 525.5 Q234 546 297 546 Q340 546 372 535 Q404 524 426.5 508 Q449 492 463 475.5 Q477 459 484 447 L484 0 L456 0 L456 437 Q449 449 436.5 463 Q424 477 404.5 489 Q385 501 358.5 509.5 Q332 518 297 518 Q234 518 190 495 Q146 472 123 441 L123 0 L95 0 L95 620 L40 620 L40 644 L95 644 L95 700 L123 700 L123 644 L341 644 Z " />
<glyph glyph-name="igrave" unicode="&#xec;" horiz-adv-x="196" d="M84 0 L84 534 L112 534 L112 0 L84 0 Z M107 605 L88 605 L7 739 L7 759 L30 759 L107 621 L107 605 Z " />
<glyph glyph-name="iacute" unicode="&#xed;" horiz-adv-x="196" d="M84 0 L84 534 L112 534 L112 0 L84 0 Z M114 605 L95 605 L95 621 L172 759 L195 759 L195 739 L114 605 Z " />
<glyph glyph-name="icircumflex" unicode="&#xee;" horiz-adv-x="196" d="M84 0 L84 534 L112 534 L112 0 L84 0 Z M218 605 L201 605 L98 740 L-5 605 L-22 605 L-22 621 L78 759 L118 759 L218 621 L218 605 Z " />
<glyph glyph-name="itilde" unicode="&#x129;" horiz-adv-x="196" d="M84 0 L84 534 L112 534 L112 0 L84 0 Z M31 718 Q51 718 68.5 709.5 Q86 701 102 690 Q118 679 133.5 670 Q149 661 166 661 Q185 661 198 671 Q211 681 216 694 L216 712 L240 712 L240 685 Q232 665 214.5 650.5 Q197 636 166 636 Q144 636 126.5 645 Q109 654 94 664.5 Q79 675 63.5 684 Q48 693 31 693 Q12 693 -2 682 Q-16 671 -20 661 L-20 642 L-44 642 L-44 669 Q-22 718 31 718 Z " />
<glyph glyph-name="idieresis" unicode="&#xef;" horiz-adv-x="196" d="M84 0 L84 534 L112 534 L112 0 L84 0 Z M8 702 Q17 702 24 699 Q31 696 33 693 L33 657 Q31 654 24 651 Q17 648 8 648 Q-1 648 -8 651 Q-15 654 -17 657 L-17 693 Q-15 696 -8 699 Q-1 702 8 702 Z M187 702 Q196 702 203 699 Q210 696 212 693 L212 657 Q210 654 203 651 Q196 648 187 648 Q178 648 171 651 Q164 654 162 657 L162 693 Q164 696 171 699 Q178 702 187 702 Z " />
<glyph glyph-name="imacron" unicode="&#x12b;" horiz-adv-x="196" d="M84 0 L84 534 L112 534 L112 0 L84 0 Z M-42 674 L-42 700 L238 700 L238 674 L-42 674 Z " />
<glyph glyph-name="ibreve" unicode="&#x12d;" horiz-adv-x="196" d="M84 0 L84 534 L112 534 L112 0 L84 0 Z M214 679 Q210 671 202 660 Q194 649 180 639 Q166 629 146 622.5 Q126 616 98 616 Q70 616 50 622.5 Q30 629 16 639 Q2 649 -6 660 Q-14 671 -18 679 L-18 722 L9 722 L9 688 Q11 683 16.5 675 Q22 667 32.5 659.5 Q43 652 59 646.5 Q75 641 98 641 Q120 641 136.5 646.5 Q153 652 163.5 659.5 Q174 667 179.5 675 Q185 683 187 688 L187 722 L214 722 L214 679 Z " />
<glyph glyph-name="iogonek" unicode="&#x12f;" horiz-adv-x="196" d="M98 653 Q89 653 82.5 656 Q76 659 74 662 L74 696 Q76 699 82.5 702 Q89 705 98 705 Q107 705 113.5 702 Q120 699 122 696 L122 662 Q120 659 113.5 656 Q107 653 98 653 Z M63 -180 Q83 -180 96 -177 Q109 -174 123 -166 L123 -192 Q109 -199 96.5 -202 Q84 -205 63 -205 Q34 -205 12.5 -192.5 Q-9 -180 -17 -163 L-17 -102 Q-8 -84 13.5 -56.5 Q35 -29 84 7 L84 534 L112 534 L112 0 Q57 -42 35 -71 Q13 -100 9 -109 L9 -153 Q13 -162 28 -171 Q43 -180 63 -180 Z " />
<glyph glyph-name="dotlessi" unicode="&#x131;" horiz-adv-x="196" d="M84 0 L84 534 L112 534 L112 0 L84 0 Z " />
<glyph glyph-name="ij" unicode="&#x133;" horiz-adv-x="384" d="M84 0 L84 534 L112 534 L112 0 L84 0 Z M98 705 Q107 705 113.5 702 Q120 699 122 696 L122 662 Q120 659 113.5 656 Q107 653 98 653 Q89 653 82.5 656 Q76 659 74 662 L74 696 Q76 699 82.5 702 Q89 705 98 705 Z M304 -50 Q295 -71 279 -94 Q263 -117 238.5 -135.5 Q214 -154 181 -166 Q148 -178 105 -178 L105 -150 Q139 -150 167 -141 Q195 -132 216 -116.5 Q237 -101 252 -81 Q267 -61 276 -40 L276 534 L304 534 L304 -50 Z M290 705 Q299 705 305.5 702 Q312 699 314 696 L314 662 Q312 659 305.5 656 Q299 653 290 653 Q281 653 274.5 656 Q268 659 266 662 L266 696 Q268 699 274.5 702 Q281 705 290 705 Z " />
<glyph glyph-name="dotlessj" unicode="&#x237;" horiz-adv-x="188" d="M108 -50 Q99 -71 83 -94 Q67 -117 42.5 -135.5 Q18 -154 -15 -166 Q-48 -178 -91 -178 L-91 -150 Q-57 -150 -29 -141 Q-1 -132 20 -116.5 Q41 -101 56 -81 Q71 -61 80 -40 L80 534 L108 534 L108 -50 Z " />
<glyph glyph-name="jcircumflex" unicode="&#x135;" horiz-adv-x="188" d="M108 -50 Q99 -71 83 -94 Q67 -117 42.5 -135.5 Q18 -154 -15 -166 Q-48 -178 -91 -178 L-91 -150 Q-57 -150 -29 -141 Q-1 -132 20 -116.5 Q41 -101 56 -81 Q71 -61 80 -40 L80 534 L108 534 L108 -50 Z M214 605 L197 605 L94 740 L-9 605 L-26 605 L-26 621 L74 759 L114 759 L214 621 L214 605 Z " />
<glyph glyph-name="kcommaaccent" unicode="&#x137;" horiz-adv-x="485" d="M465 0 L450 0 L217 296 L108 190 L108 0 L80 0 L80 700 L108 700 L108 227 L420 534 L435 534 L435 508 L238 316 L465 26 L465 0 Z M243 -73 Q250 -73 255.5 -76 Q261 -79 263 -81 L263 -160 Q261 -165 254.5 -172.5 Q248 -180 236 -180 L226 -180 L226 -163 L234 -163 Q239 -163 243 -157 L243 -123 Q236 -123 230.5 -120 Q225 -117 223 -115 L223 -81 Q225 -79 230.5 -76 Q236 -73 243 -73 Z " />
<glyph glyph-name="lacute" unicode="&#x13a;" horiz-adv-x="188" d="M80 0 L80 700 L108 700 L108 0 L80 0 Z M100 751 L81 751 L81 767 L158 895 L181 895 L181 875 L100 751 Z " />
<glyph glyph-name="lcaron" unicode="&#x13e;" horiz-adv-x="306" d="M80 0 L80 700 L108 700 L108 0 L80 0 Z M247 555 L227 555 L227 571 L244 700 L271 700 L271 680 L247 555 Z " />
<glyph glyph-name="lcommaaccent" unicode="&#x13c;" horiz-adv-x="188" d="M80 0 L80 700 L108 700 L108 0 L80 0 Z M94 -73 Q101 -73 106.5 -76 Q112 -79 114 -81 L114 -160 Q112 -165 105.5 -172.5 Q99 -180 87 -180 L77 -180 L77 -163 L85 -163 Q90 -163 94 -157 L94 -123 Q87 -123 81.5 -120 Q76 -117 74 -115 L74 -81 Q76 -79 81.5 -76 Q87 -73 94 -73 Z " />
<glyph glyph-name="lslash" unicode="&#x142;" horiz-adv-x="332" d="M180 383 L180 0 L152 0 L152 366 L32 297 L32 328 L152 397 L152 700 L180 700 L180 414 L300 483 L300 452 L180 383 Z " />
<glyph glyph-name="ldot" unicode="&#x140;" horiz-adv-x="329" d="M80 0 L80 700 L108 700 L108 0 L80 0 Z M260 392 Q269 392 275.5 389 Q282 386 284 383 L284 349 Q282 346 275.5 343 Q269 340 260 340 Q251 340 244.5 343 Q238 346 236 349 L236 383 Q238 386 244.5 389 Q251 392 260 392 Z " />
<glyph glyph-name="nacute" unicode="&#x144;" horiz-adv-x="544" d="M282 546 Q325 546 357 535 Q389 524 411.5 508 Q434 492 448 475.5 Q462 459 469 447 L469 0 L441 0 L441 437 Q434 449 421.5 462.5 Q409 476 389.5 488.5 Q370 501 343.5 509.5 Q317 518 282 518 Q221 518 176 495 Q131 472 108 441 L108 0 L80 0 L80 534 L108 534 L108 479 Q132 506 177 526 Q222 546 282 546 Z M288 605 L269 605 L269 621 L346 759 L369 759 L369 739 L288 605 Z " />
<glyph glyph-name="ncaron" unicode="&#x148;" horiz-adv-x="544" d="M282 546 Q325 546 357 535 Q389 524 411.5 508 Q434 492 448 475.5 Q462 459 469 447 L469 0 L441 0 L441 437 Q434 449 421.5 462.5 Q409 476 389.5 488.5 Q370 501 343.5 509.5 Q317 518 282 518 Q221 518 176 495 Q131 472 108 441 L108 0 L80 0 L80 534 L108 534 L108 479 Q132 506 177 526 Q222 546 282 546 Z M292 605 L252 605 L152 743 L152 759 L169 759 L272 625 L375 759 L392 759 L392 743 L292 605 Z " />
<glyph glyph-name="ntilde" unicode="&#xf1;" horiz-adv-x="544" d="M282 546 Q325 546 357 535 Q389 524 411.5 508 Q434 492 448 475.5 Q462 459 469 447 L469 0 L441 0 L441 437 Q434 449 421.5 462.5 Q409 476 389.5 488.5 Q370 501 343.5 509.5 Q317 518 282 518 Q221 518 176 495 Q131 472 108 441 L108 0 L80 0 L80 534 L108 534 L108 479 Q132 506 177 526 Q222 546 282 546 Z M205 718 Q225 718 242.5 709.5 Q260 701 276 690 Q292 679 307.5 670 Q323 661 340 661 Q359 661 372 671 Q385 681 390 694 L390 712 L414 712 L414 685 Q406 665 388.5 650.5 Q371 636 340 636 Q318 636 300.5 645 Q283 654 268 664.5 Q253 675 237.5 684 Q222 693 205 693 Q186 693 172 682 Q158 671 154 661 L154 642 L130 642 L130 669 Q152 718 205 718 Z " />
<glyph glyph-name="ncommaaccent" unicode="&#x146;" horiz-adv-x="544" d="M282 546 Q325 546 357 535 Q389 524 411.5 508 Q434 492 448 475.5 Q462 459 469 447 L469 0 L441 0 L441 437 Q434 449 421.5 462.5 Q409 476 389.5 488.5 Q370 501 343.5 509.5 Q317 518 282 518 Q221 518 176 495 Q131 472 108 441 L108 0 L80 0 L80 534 L108 534 L108 479 Q132 506 177 526 Q222 546 282 546 Z M272 -73 Q279 -73 284.5 -76 Q290 -79 292 -81 L292 -160 Q290 -165 283.5 -172.5 Q277 -180 265 -180 L255 -180 L255 -163 L263 -163 Q268 -163 272 -157 L272 -123 Q265 -123 259.5 -120 Q254 -117 252 -115 L252 -81 Q254 -79 259.5 -76 Q265 -73 272 -73 Z " />
<glyph glyph-name="napostrophe" unicode="&#x149;" horiz-adv-x="544" d="M282 546 Q325 546 357 535 Q389 524 411.5 508 Q434 492 448 475.5 Q462 459 469 447 L469 0 L441 0 L441 437 Q434 449 421.5 462.5 Q409 476 389.5 488.5 Q370 501 343.5 509.5 Q317 518 282 518 Q221 518 176 495 Q131 472 108 441 L108 0 L80 0 L80 534 L108 534 L108 479 Q132 506 177 526 Q222 546 282 546 Z M40 708 Q47 708 52.5 705 Q58 702 60 700 L60 621 Q58 616 51.5 608.5 Q45 601 33 601 L23 601 L23 618 L31 618 Q36 618 40 624 L40 658 Q33 658 27.5 661 Q22 664 20 666 L20 700 Q22 702 27.5 705 Q33 708 40 708 Z " />
<glyph glyph-name="ograve" unicode="&#xf2;" horiz-adv-x="534" d="M267 546 Q310 546 344 534 Q378 522 403 503.5 Q428 485 444 462 Q460 439 469 418 L469 116 Q460 95 444 72 Q428 49 403 30.5 Q378 12 344 0 Q310 -12 267 -12 Q223 -12 189.5 0 Q156 12 131 30.5 Q106 49 90 72 Q74 95 65 116 L65 418 Q74 439 90 462 Q106 485 131 503.5 Q156 522 189.5 534 Q223 546 267 546 Z M267 518 Q232 518 203.5 509 Q175 500 153.5 484.5 Q132 469 117 449 Q102 429 93 408 L93 126 Q102 105 117 85 Q132 65 153.5 49.5 Q175 34 203.5 25 Q232 16 267 16 Q302 16 330 25 Q358 34 380 49.5 Q402 65 417 85 Q432 105 441 126 L441 408 Q432 429 417 449 Q402 469 380 484.5 Q358 500 330 509 Q302 518 267 518 Z M276 605 L257 605 L176 739 L176 759 L199 759 L276 621 L276 605 Z " />
<glyph glyph-name="oacute" unicode="&#xf3;" horiz-adv-x="534" d="M267 546 Q310 546 344 534 Q378 522 403 503.5 Q428 485 444 462 Q460 439 469 418 L469 116 Q460 95 444 72 Q428 49 403 30.5 Q378 12 344 0 Q310 -12 267 -12 Q223 -12 189.5 0 Q156 12 131 30.5 Q106 49 90 72 Q74 95 65 116 L65 418 Q74 439 90 462 Q106 485 131 503.5 Q156 522 189.5 534 Q223 546 267 546 Z M267 518 Q232 518 203.5 509 Q175 500 153.5 484.5 Q132 469 117 449 Q102 429 93 408 L93 126 Q102 105 117 85 Q132 65 153.5 49.5 Q175 34 203.5 25 Q232 16 267 16 Q302 16 330 25 Q358 34 380 49.5 Q402 65 417 85 Q432 105 441 126 L441 408 Q432 429 417 449 Q402 469 380 484.5 Q358 500 330 509 Q302 518 267 518 Z M283 605 L264 605 L264 621 L341 759 L364 759 L364 739 L283 605 Z " />
<glyph glyph-name="ocircumflex" unicode="&#xf4;" horiz-adv-x="534" d="M267 546 Q310 546 344 534 Q378 522 403 503.5 Q428 485 444 462 Q460 439 469 418 L469 116 Q460 95 444 72 Q428 49 403 30.5 Q378 12 344 0 Q310 -12 267 -12 Q223 -12 189.5 0 Q156 12 131 30.5 Q106 49 90 72 Q74 95 65 116 L65 418 Q74 439 90 462 Q106 485 131 503.5 Q156 522 189.5 534 Q223 546 267 546 Z M267 518 Q232 518 203.5 509 Q175 500 153.5 484.5 Q132 469 117 449 Q102 429 93 408 L93 126 Q102 105 117 85 Q132 65 153.5 49.5 Q175 34 203.5 25 Q232 16 267 16 Q302 16 330 25 Q358 34 380 49.5 Q402 65 417 85 Q432 105 441 126 L441 408 Q432 429 417 449 Q402 469 380 484.5 Q358 500 330 509 Q302 518 267 518 Z M387 605 L370 605 L267 740 L164 605 L147 605 L147 621 L247 759 L287 759 L387 621 L387 605 Z " />
<glyph glyph-name="otilde" unicode="&#xf5;" horiz-adv-x="534" d="M267 546 Q310 546 344 534 Q378 522 403 503.5 Q428 485 444 462 Q460 439 469 418 L469 116 Q460 95 444 72 Q428 49 403 30.5 Q378 12 344 0 Q310 -12 267 -12 Q223 -12 189.5 0 Q156 12 131 30.5 Q106 49 90 72 Q74 95 65 116 L65 418 Q74 439 90 462 Q106 485 131 503.5 Q156 522 189.5 534 Q223 546 267 546 Z M267 518 Q232 518 203.5 509 Q175 500 153.5 484.5 Q132 469 117 449 Q102 429 93 408 L93 126 Q102 105 117 85 Q132 65 153.5 49.5 Q175 34 203.5 25 Q232 16 267 16 Q302 16 330 25 Q358 34 380 49.5 Q402 65 417 85 Q432 105 441 126 L441 408 Q432 429 417 449 Q402 469 380 484.5 Q358 500 330 509 Q302 518 267 518 Z M200 718 Q220 718 237.5 709.5 Q255 701 271 690 Q287 679 302.5 670 Q318 661 335 661 Q354 661 367 671 Q380 681 385 694 L385 712 L409 712 L409 685 Q401 665 383.5 650.5 Q366 636 335 636 Q313 636 295.5 645 Q278 654 263 664.5 Q248 675 232.5 684 Q217 693 200 693 Q181 693 167 682 Q153 671 149 661 L149 642 L125 642 L125 669 Q147 718 200 718 Z " />
<glyph glyph-name="odieresis" unicode="&#xf6;" horiz-adv-x="534" d="M267 546 Q310 546 344 534 Q378 522 403 503.5 Q428 485 444 462 Q460 439 469 418 L469 116 Q460 95 444 72 Q428 49 403 30.5 Q378 12 344 0 Q310 -12 267 -12 Q223 -12 189.5 0 Q156 12 131 30.5 Q106 49 90 72 Q74 95 65 116 L65 418 Q74 439 90 462 Q106 485 131 503.5 Q156 522 189.5 534 Q223 546 267 546 Z M267 518 Q232 518 203.5 509 Q175 500 153.5 484.5 Q132 469 117 449 Q102 429 93 408 L93 126 Q102 105 117 85 Q132 65 153.5 49.5 Q175 34 203.5 25 Q232 16 267 16 Q302 16 330 25 Q358 34 380 49.5 Q402 65 417 85 Q432 105 441 126 L441 408 Q432 429 417 449 Q402 469 380 484.5 Q358 500 330 509 Q302 518 267 518 Z M177 702 Q186 702 193 699 Q200 696 202 693 L202 657 Q200 654 193 651 Q186 648 177 648 Q168 648 161 651 Q154 654 152 657 L152 693 Q154 696 161 699 Q168 702 177 702 Z M356 702 Q365 702 372 699 Q379 696 381 693 L381 657 Q379 654 372 651 Q365 648 356 648 Q347 648 340 651 Q333 654 331 657 L331 693 Q333 696 340 699 Q347 702 356 702 Z " />
<glyph glyph-name="omacron" unicode="&#x14d;" horiz-adv-x="534" d="M267 546 Q310 546 344 534 Q378 522 403 503.5 Q428 485 444 462 Q460 439 469 418 L469 116 Q460 95 444 72 Q428 49 403 30.5 Q378 12 344 0 Q310 -12 267 -12 Q223 -12 189.5 0 Q156 12 131 30.5 Q106 49 90 72 Q74 95 65 116 L65 418 Q74 439 90 462 Q106 485 131 503.5 Q156 522 189.5 534 Q223 546 267 546 Z M267 518 Q232 518 203.5 509 Q175 500 153.5 484.5 Q132 469 117 449 Q102 429 93 408 L93 126 Q102 105 117 85 Q132 65 153.5 49.5 Q175 34 203.5 25 Q232 16 267 16 Q302 16 330 25 Q358 34 380 49.5 Q402 65 417 85 Q432 105 441 126 L441 408 Q432 429 417 449 Q402 469 380 484.5 Q358 500 330 509 Q302 518 267 518 Z M127 674 L127 700 L407 700 L407 674 L127 674 Z " />
<glyph glyph-name="obreve" unicode="&#x14f;" horiz-adv-x="534" d="M267 546 Q310 546 344 534 Q378 522 403 503.5 Q428 485 444 462 Q460 439 469 418 L469 116 Q460 95 444 72 Q428 49 403 30.5 Q378 12 344 0 Q310 -12 267 -12 Q223 -12 189.5 0 Q156 12 131 30.5 Q106 49 90 72 Q74 95 65 116 L65 418 Q74 439 90 462 Q106 485 131 503.5 Q156 522 189.5 534 Q223 546 267 546 Z M267 518 Q232 518 203.5 509 Q175 500 153.5 484.5 Q132 469 117 449 Q102 429 93 408 L93 126 Q102 105 117 85 Q132 65 153.5 49.5 Q175 34 203.5 25 Q232 16 267 16 Q302 16 330 25 Q358 34 380 49.5 Q402 65 417 85 Q432 105 441 126 L441 408 Q432 429 417 449 Q402 469 380 484.5 Q358 500 330 509 Q302 518 267 518 Z M383 679 Q379 671 371 660 Q363 649 349 639 Q335 629 315 622.5 Q295 616 267 616 Q239 616 219 622.5 Q199 629 185 639 Q171 649 163 660 Q155 671 151 679 L151 722 L178 722 L178 688 Q180 683 185.5 675 Q191 667 201.5 659.5 Q212 652 228 646.5 Q244 641 267 641 Q289 641 305.5 646.5 Q322 652 332.5 659.5 Q343 667 348.5 675 Q354 683 356 688 L356 722 L383 722 L383 679 Z " />
<glyph glyph-name="ohungarumlaut" unicode="&#x151;" horiz-adv-x="534" d="M267 546 Q310 546 344 534 Q378 522 403 503.5 Q428 485 444 462 Q460 439 469 418 L469 116 Q460 95 444 72 Q428 49 403 30.5 Q378 12 344 0 Q310 -12 267 -12 Q223 -12 189.5 0 Q156 12 131 30.5 Q106 49 90 72 Q74 95 65 116 L65 418 Q74 439 90 462 Q106 485 131 503.5 Q156 522 189.5 534 Q223 546 267 546 Z M267 518 Q232 518 203.5 509 Q175 500 153.5 484.5 Q132 469 117 449 Q102 429 93 408 L93 126 Q102 105 117 85 Q132 65 153.5 49.5 Q175 34 203.5 25 Q232 16 267 16 Q302 16 330 25 Q358 34 380 49.5 Q402 65 417 85 Q432 105 441 126 L441 408 Q432 429 417 449 Q402 469 380 484.5 Q358 500 330 509 Q302 518 267 518 Z M190 605 L171 605 L171 621 L228 759 L251 759 L251 739 L190 605 Z M350 605 L331 605 L331 621 L388 759 L411 759 L411 739 L350 605 Z " />
<glyph glyph-name="oslash" unicode="&#xf8;" horiz-adv-x="534" d="M436 472 Q447 458 455.5 444.5 Q464 431 469 418 L469 116 Q460 95 444 72 Q428 49 403 30.5 Q378 12 344 0 Q310 -12 267 -12 Q216 -12 179.5 4 Q143 20 117 43 L85 0 L65 0 L65 18 L98 62 Q87 76 78.5 89.5 Q70 103 65 116 L65 418 Q74 439 90 462 Q106 485 131 503.5 Q156 522 189.5 534 Q223 546 267 546 Q318 546 354.5 530 Q391 514 417 491 L449 534 L469 534 L469 516 L436 472 Z M93 126 Q98 115 103 105.5 Q108 96 116 86 L400 468 Q377 490 344 504 Q311 518 267 518 Q232 518 203.5 509 Q175 500 153.5 484.5 Q132 469 117 449 Q102 429 93 408 L93 126 Z M441 408 Q436 419 431 428.5 Q426 438 418 448 L134 66 Q157 44 190 30 Q223 16 267 16 Q302 16 330 25 Q358 34 380 49.5 Q402 65 417 85 Q432 105 441 126 L441 408 Z " />
<glyph glyph-name="oe" unicode="&#x153;" horiz-adv-x="905" d="M469 126 Q477 105 492.5 85 Q508 65 529.5 49.5 Q551 34 579.5 25 Q608 16 643 16 Q679 16 707.5 25.5 Q736 35 758.5 51.5 Q781 68 797 89.5 Q813 111 822 136 L845 136 L845 116 Q837 96 820.5 72.5 Q804 49 779 30.5 Q754 12 720 0 Q686 -12 643 -12 Q606 -12 576.5 -3.5 Q547 5 523.5 19 Q500 33 483 51 Q466 69 455 88 Q444 69 427 51 Q410 33 386.5 19 Q363 5 333.5 -3.5 Q304 -12 267 -12 Q223 -12 189.5 0 Q156 12 131 30.5 Q106 49 88.5 74 Q71 99 65 116 L65 418 Q74 439 90 462 Q106 485 131 503.5 Q156 522 189.5 534 Q223 546 267 546 Q304 546 333.5 537.5 Q363 529 386.5 515 Q410 501 427 483 Q444 465 455 446 Q466 465 483 483 Q500 501 523.5 515 Q547 529 576.5 537.5 Q606 546 643 546 Q686 546 720 534 Q754 522 779 503.5 Q804 485 820 462 Q836 439 845 418 L845 282 L469 282 L469 126 Z M267 16 Q302 16 330 25 Q358 34 380 49.5 Q402 65 417.5 85 Q433 105 441 126 L441 408 Q432 429 417 449 Q402 469 380 484.5 Q358 500 330 509 Q302 518 267 518 Q232 518 203.5 509 Q175 500 153.5 484.5 Q132 469 117 449 Q102 429 93 408 L93 126 Q101 105 116.5 85 Q132 65 154 49.5 Q176 34 204 25 Q232 16 267 16 Z M643 518 Q608 518 579.5 509 Q551 500 529.5 484.5 Q508 469 493 449 Q478 429 469 408 L469 308 L817 308 L817 408 Q808 429 793 449 Q778 469 756 484.5 Q734 500 706 509 Q678 518 643 518 Z " />
<glyph glyph-name="racute" unicode="&#x155;" horiz-adv-x="329" d="M282 535 Q285 535 290.5 535 Q296 535 304 534 L304 505 Q294 506 289 506 Q284 506 282 506 Q219 506 175 483 Q131 460 108 429 L108 0 L80 0 L80 534 L108 534 L108 467 Q132 493 175.5 514 Q219 535 282 535 Z M211 605 L192 605 L192 621 L269 759 L292 759 L292 739 L211 605 Z " />
<glyph glyph-name="rcaron" unicode="&#x159;" horiz-adv-x="329" d="M282 535 Q285 535 290.5 535 Q296 535 304 534 L304 505 Q294 506 289 506 Q284 506 282 506 Q219 506 175 483 Q131 460 108 429 L108 0 L80 0 L80 534 L108 534 L108 467 Q132 493 175.5 514 Q219 535 282 535 Z M215 605 L175 605 L75 743 L75 759 L92 759 L195 625 L298 759 L315 759 L315 743 L215 605 Z " />
<glyph glyph-name="rcommaaccent" unicode="&#x157;" horiz-adv-x="329" d="M282 535 Q285 535 290.5 535 Q296 535 304 534 L304 505 Q294 506 289 506 Q284 506 282 506 Q219 506 175 483 Q131 460 108 429 L108 0 L80 0 L80 534 L108 534 L108 467 Q132 493 175.5 514 Q219 535 282 535 Z M94 -73 Q101 -73 106.5 -76 Q112 -79 114 -81 L114 -160 Q112 -165 105.5 -172.5 Q99 -180 87 -180 L77 -180 L77 -163 L85 -163 Q90 -163 94 -157 L94 -123 Q87 -123 81.5 -120 Q76 -117 74 -115 L74 -81 Q76 -79 81.5 -76 Q87 -73 94 -73 Z " />
<glyph glyph-name="sacute" unicode="&#x15b;" horiz-adv-x="464" d="M232 546 Q267 546 295 538 Q323 530 344.5 518 Q366 506 381 492.5 Q396 479 404 468 L404 448 L381 448 Q374 461 360 473.5 Q346 486 326.5 496 Q307 506 283 512 Q259 518 232 518 Q184 518 146.5 500 Q109 482 88 458 L88 361 Q99 345 123.5 328 Q148 311 200 298 L272 280 Q329 266 364.5 244 Q400 222 414 198 L414 79 Q406 67 391.5 51.5 Q377 36 355 21.5 Q333 7 302.5 -2.5 Q272 -12 232 -12 Q192 -12 161.5 -2 Q131 8 109 22 Q87 36 72.5 51.5 Q58 67 50 79 L50 99 L73 99 Q80 85 93.5 70.5 Q107 56 127 44 Q147 32 173 24 Q199 16 232 16 Q263 16 288 23 Q313 30 332 41 Q351 52 364.5 64.5 Q378 77 386 89 L386 188 Q372 211 342.5 226.5 Q313 242 265 254 L192 272 Q163 279 140.5 289 Q118 299 102 310 Q86 321 75.5 332 Q65 343 60 351 L60 468 Q68 479 83 492.5 Q98 506 119 518 Q140 530 168.5 538 Q197 546 232 546 Z M253 605 L234 605 L234 621 L311 759 L334 759 L334 739 L253 605 Z " />
<glyph glyph-name="scircumflex" unicode="&#x15d;" horiz-adv-x="464" d="M232 546 Q267 546 295 538 Q323 530 344.5 518 Q366 506 381 492.5 Q396 479 404 468 L404 448 L381 448 Q374 461 360 473.5 Q346 486 326.5 496 Q307 506 283 512 Q259 518 232 518 Q184 518 146.5 500 Q109 482 88 458 L88 361 Q99 345 123.5 328 Q148 311 200 298 L272 280 Q329 266 364.5 244 Q400 222 414 198 L414 79 Q406 67 391.5 51.5 Q377 36 355 21.5 Q333 7 302.5 -2.5 Q272 -12 232 -12 Q192 -12 161.5 -2 Q131 8 109 22 Q87 36 72.5 51.5 Q58 67 50 79 L50 99 L73 99 Q80 85 93.5 70.5 Q107 56 127 44 Q147 32 173 24 Q199 16 232 16 Q263 16 288 23 Q313 30 332 41 Q351 52 364.5 64.5 Q378 77 386 89 L386 188 Q372 211 342.5 226.5 Q313 242 265 254 L192 272 Q163 279 140.5 289 Q118 299 102 310 Q86 321 75.5 332 Q65 343 60 351 L60 468 Q68 479 83 492.5 Q98 506 119 518 Q140 530 168.5 538 Q197 546 232 546 Z M357 605 L340 605 L237 740 L134 605 L117 605 L117 621 L217 759 L257 759 L357 621 L357 605 Z " />
<glyph glyph-name="scaron" unicode="&#x161;" horiz-adv-x="464" d="M232 546 Q267 546 295 538 Q323 530 344.5 518 Q366 506 381 492.5 Q396 479 404 468 L404 448 L381 448 Q374 461 360 473.5 Q346 486 326.5 496 Q307 506 283 512 Q259 518 232 518 Q184 518 146.5 500 Q109 482 88 458 L88 361 Q99 345 123.5 328 Q148 311 200 298 L272 280 Q329 266 364.5 244 Q400 222 414 198 L414 79 Q406 67 391.5 51.5 Q377 36 355 21.5 Q333 7 302.5 -2.5 Q272 -12 232 -12 Q192 -12 161.5 -2 Q131 8 109 22 Q87 36 72.5 51.5 Q58 67 50 79 L50 99 L73 99 Q80 85 93.5 70.5 Q107 56 127 44 Q147 32 173 24 Q199 16 232 16 Q263 16 288 23 Q313 30 332 41 Q351 52 364.5 64.5 Q378 77 386 89 L386 188 Q372 211 342.5 226.5 Q313 242 265 254 L192 272 Q163 279 140.5 289 Q118 299 102 310 Q86 321 75.5 332 Q65 343 60 351 L60 468 Q68 479 83 492.5 Q98 506 119 518 Q140 530 168.5 538 Q197 546 232 546 Z M257 605 L217 605 L117 743 L117 759 L134 759 L237 625 L340 759 L357 759 L357 743 L257 605 Z " />
<glyph glyph-name="scedilla" unicode="&#x15f;" horiz-adv-x="464" d="M272 280 Q329 266 364.5 243.5 Q400 221 414 198 L414 79 Q406 68 392.5 53 Q379 38 359 24 Q339 10 311 0 Q283 -10 247 -12 L228 -63 L252 -63 Q283 -63 302.5 -77 Q322 -91 330 -106 L330 -171 Q322 -186 302.5 -200 Q283 -214 252 -214 Q224 -214 202.5 -206 Q181 -198 164 -187 L172 -165 Q188 -176 207 -183.5 Q226 -191 252 -191 Q274 -191 287 -182 Q300 -173 305 -164 L305 -113 Q300 -104 287 -94.5 Q274 -85 252 -85 L196 -85 L221 -12 Q184 -11 155.5 -0.5 Q127 10 106 24 Q85 38 71 53 Q57 68 50 79 L50 99 L73 99 Q80 85 93.5 70.5 Q107 56 127 44 Q147 32 173 24 Q199 16 232 16 Q263 16 288 23 Q313 30 332 41 Q351 52 364.5 64.5 Q378 77 386 89 L386 188 Q372 211 342.5 226.5 Q313 242 265 254 L192 272 Q163 279 140.5 289 Q118 299 102 310 Q86 321 75.5 332 Q65 343 60 351 L60 468 Q68 479 83 492.5 Q98 506 119 518 Q140 530 168.5 538 Q197 546 232 546 Q267 546 295 538 Q323 530 344.5 518 Q366 506 381 492.5 Q396 479 404 468 L404 448 L381 448 Q374 461 360 473.5 Q346 486 326.5 496 Q307 506 283 512 Q259 518 232 518 Q181 518 145.5 499.5 Q110 481 88 458 L88 361 Q99 345 123.5 328 Q148 311 200 298 L272 280 Z " />
<glyph glyph-name="scommaaccent" unicode="&#x219;" horiz-adv-x="464" d="M232 546 Q267 546 295 538 Q323 530 344.5 518 Q366 506 381 492.5 Q396 479 404 468 L404 448 L381 448 Q374 461 360 473.5 Q346 486 326.5 496 Q307 506 283 512 Q259 518 232 518 Q184 518 146.5 500 Q109 482 88 458 L88 361 Q99 345 123.5 328 Q148 311 200 298 L272 280 Q329 266 364.5 244 Q400 222 414 198 L414 79 Q406 67 391.5 51.5 Q377 36 355 21.5 Q333 7 302.5 -2.5 Q272 -12 232 -12 Q192 -12 161.5 -2 Q131 8 109 22 Q87 36 72.5 51.5 Q58 67 50 79 L50 99 L73 99 Q80 85 93.5 70.5 Q107 56 127 44 Q147 32 173 24 Q199 16 232 16 Q263 16 288 23 Q313 30 332 41 Q351 52 364.5 64.5 Q378 77 386 89 L386 188 Q372 211 342.5 226.5 Q313 242 265 254 L192 272 Q163 279 140.5 289 Q118 299 102 310 Q86 321 75.5 332 Q65 343 60 351 L60 468 Q68 479 83 492.5 Q98 506 119 518 Q140 530 168.5 538 Q197 546 232 546 Z M239 -73 Q246 -73 251.5 -76 Q257 -79 259 -81 L259 -160 Q257 -165 250.5 -172.5 Q244 -180 232 -180 L222 -180 L222 -163 L230 -163 Q235 -163 239 -157 L239 -123 Q232 -123 226.5 -120 Q221 -117 219 -115 L219 -81 Q221 -79 226.5 -76 Q232 -73 239 -73 Z " />
<glyph glyph-name="germandbls" unicode="&#xdf;" horiz-adv-x="544" d="M272 713 Q310 713 341 703.5 Q372 694 396 678.5 Q420 663 437 644 Q454 625 464 607 L464 449 Q447 424 420 403.5 Q393 383 360 372 Q410 356 440 324 Q470 292 484 258 L484 116 Q469 82 449 60 Q429 38 402.5 24.5 Q376 11 343.5 5.5 Q311 0 272 0 L272 29 Q300 29 327 31.5 Q354 34 378 43.5 Q402 53 422 72.5 Q442 92 456 126 L456 248 Q444 278 424.5 298.5 Q405 319 382 332.5 Q359 346 334 352 Q309 358 284 358 L284 385 Q335 385 374.5 406 Q414 427 436 460 L436 595 Q415 633 373.5 659 Q332 685 272 685 Q240 685 214 677.5 Q188 670 167.5 657 Q147 644 132 628 Q117 612 108 595 L108 0 L80 0 L80 607 Q91 626 108.5 645 Q126 664 149.5 679 Q173 694 203.5 703.5 Q234 713 272 713 Z " />
<glyph glyph-name="tcaron" unicode="&#x165;" horiz-adv-x="341" d="M244 627 L244 643 L261 772 L288 772 L288 752 L264 627 L244 627 Z M268 21 Q285 21 301 22 Q317 23 326 25 L326 -1 Q320 -3 302 -5 Q284 -7 262 -7 Q221 -7 193.5 2.5 Q166 12 148.5 26 Q131 40 121 55 Q111 70 105 82 L105 508 L23 508 L23 534 L105 534 L105 650 L133 650 L133 534 L306 534 L306 508 L133 508 L133 94 Q137 85 145 72.5 Q153 60 168 48.5 Q183 37 207.5 29 Q232 21 268 21 Z " />
<glyph glyph-name="uni021B" unicode="&#x21b;" horiz-adv-x="341" d="M268 21 Q285 21 301 22 Q317 23 326 25 L326 -1 Q320 -3 302 -5 Q284 -7 262 -7 Q221 -7 193.5 2.5 Q166 12 148.5 26 Q131 40 121 55 Q111 70 105 82 L105 508 L23 508 L23 534 L105 534 L105 650 L133 650 L133 534 L306 534 L306 508 L133 508 L133 94 Q137 85 145 72.5 Q153 60 168 48.5 Q183 37 207.5 29 Q232 21 268 21 Z M216 -73 Q223 -73 228.5 -76 Q234 -79 236 -81 L236 -160 Q234 -165 227.5 -172.5 Q221 -180 209 -180 L199 -180 L199 -163 L207 -163 Q212 -163 216 -157 L216 -123 Q209 -123 203.5 -120 Q198 -117 196 -115 L196 -81 Q198 -79 203.5 -76 Q209 -73 216 -73 Z " />
<glyph glyph-name="tbar" unicode="&#x167;" horiz-adv-x="341" d="M268 21 Q285 21 301 22 Q317 23 326 25 L326 -1 Q320 -3 302 -5 Q284 -7 262 -7 Q221 -7 193.5 2.5 Q166 12 148.5 26 Q131 40 121 55 Q111 70 105 82 L105 280 L23 280 L23 306 L105 306 L105 508 L23 508 L23 534 L105 534 L105 650 L133 650 L133 534 L306 534 L306 508 L133 508 L133 306 L306 306 L306 280 L133 280 L133 94 Q137 85 145 72.5 Q153 60 168 48.5 Q183 37 207.5 29 Q232 21 268 21 Z " />
<glyph glyph-name="ugrave" unicode="&#xf9;" horiz-adv-x="534" d="M454 0 L426 0 L426 50 Q403 27 361.5 7.5 Q320 -12 257 -12 Q214 -12 183 -1.5 Q152 9 130.5 23 Q109 37 95.5 52.5 Q82 68 75 79 L75 534 L103 534 L103 89 Q110 80 122 67.5 Q134 55 152.5 43.5 Q171 32 196.5 24 Q222 16 257 16 Q323 16 363 38 Q403 60 426 87 L426 534 L454 534 L454 0 Z M276 605 L257 605 L176 739 L176 759 L199 759 L276 621 L276 605 Z " />
<glyph glyph-name="uacute" unicode="&#xfa;" horiz-adv-x="534" d="M454 0 L426 0 L426 50 Q403 27 361.5 7.5 Q320 -12 257 -12 Q214 -12 183 -1.5 Q152 9 130.5 23 Q109 37 95.5 52.5 Q82 68 75 79 L75 534 L103 534 L103 89 Q110 80 122 67.5 Q134 55 152.5 43.5 Q171 32 196.5 24 Q222 16 257 16 Q323 16 363 38 Q403 60 426 87 L426 534 L454 534 L454 0 Z M283 605 L264 605 L264 621 L341 759 L364 759 L364 739 L283 605 Z " />
<glyph glyph-name="ucircumflex" unicode="&#xfb;" horiz-adv-x="534" d="M454 0 L426 0 L426 50 Q403 27 361.5 7.5 Q320 -12 257 -12 Q214 -12 183 -1.5 Q152 9 130.5 23 Q109 37 95.5 52.5 Q82 68 75 79 L75 534 L103 534 L103 89 Q110 80 122 67.5 Q134 55 152.5 43.5 Q171 32 196.5 24 Q222 16 257 16 Q323 16 363 38 Q403 60 426 87 L426 534 L454 534 L454 0 Z M387 605 L370 605 L267 740 L164 605 L147 605 L147 621 L247 759 L287 759 L387 621 L387 605 Z " />
<glyph glyph-name="utilde" unicode="&#x169;" horiz-adv-x="534" d="M454 0 L426 0 L426 50 Q403 27 361.5 7.5 Q320 -12 257 -12 Q214 -12 183 -1.5 Q152 9 130.5 23 Q109 37 95.5 52.5 Q82 68 75 79 L75 534 L103 534 L103 89 Q110 80 122 67.5 Q134 55 152.5 43.5 Q171 32 196.5 24 Q222 16 257 16 Q323 16 363 38 Q403 60 426 87 L426 534 L454 534 L454 0 Z M200 718 Q220 718 237.5 709.5 Q255 701 271 690 Q287 679 302.5 670 Q318 661 335 661 Q354 661 367 671 Q380 681 385 694 L385 712 L409 712 L409 685 Q401 665 383.5 650.5 Q366 636 335 636 Q313 636 295.5 645 Q278 654 263 664.5 Q248 675 232.5 684 Q217 693 200 693 Q181 693 167 682 Q153 671 149 661 L149 642 L125 642 L125 669 Q147 718 200 718 Z " />
<glyph glyph-name="udieresis" unicode="&#xfc;" horiz-adv-x="534" d="M454 0 L426 0 L426 50 Q403 27 361.5 7.5 Q320 -12 257 -12 Q214 -12 183 -1.5 Q152 9 130.5 23 Q109 37 95.5 52.5 Q82 68 75 79 L75 534 L103 534 L103 89 Q110 80 122 67.5 Q134 55 152.5 43.5 Q171 32 196.5 24 Q222 16 257 16 Q323 16 363 38 Q403 60 426 87 L426 534 L454 534 L454 0 Z M177 702 Q186 702 193 699 Q200 696 202 693 L202 657 Q200 654 193 651 Q186 648 177 648 Q168 648 161 651 Q154 654 152 657 L152 693 Q154 696 161 699 Q168 702 177 702 Z M356 702 Q365 702 372 699 Q379 696 381 693 L381 657 Q379 654 372 651 Q365 648 356 648 Q347 648 340 651 Q333 654 331 657 L331 693 Q333 696 340 699 Q347 702 356 702 Z " />
<glyph glyph-name="umacron" unicode="&#x16b;" horiz-adv-x="534" d="M454 0 L426 0 L426 50 Q403 27 361.5 7.5 Q320 -12 257 -12 Q214 -12 183 -1.5 Q152 9 130.5 23 Q109 37 95.5 52.5 Q82 68 75 79 L75 534 L103 534 L103 89 Q110 80 122 67.5 Q134 55 152.5 43.5 Q171 32 196.5 24 Q222 16 257 16 Q323 16 363 38 Q403 60 426 87 L426 534 L454 534 L454 0 Z M127 674 L127 700 L407 700 L407 674 L127 674 Z " />
<glyph glyph-name="ubreve" unicode="&#x16d;" horiz-adv-x="534" d="M454 0 L426 0 L426 50 Q403 27 361.5 7.5 Q320 -12 257 -12 Q214 -12 183 -1.5 Q152 9 130.5 23 Q109 37 95.5 52.5 Q82 68 75 79 L75 534 L103 534 L103 89 Q110 80 122 67.5 Q134 55 152.5 43.5 Q171 32 196.5 24 Q222 16 257 16 Q323 16 363 38 Q403 60 426 87 L426 534 L454 534 L454 0 Z M383 679 Q379 671 371 660 Q363 649 349 639 Q335 629 315 622.5 Q295 616 267 616 Q239 616 219 622.5 Q199 629 185 639 Q171 649 163 660 Q155 671 151 679 L151 722 L178 722 L178 688 Q180 683 185.5 675 Q191 667 201.5 659.5 Q212 652 228 646.5 Q244 641 267 641 Q289 641 305.5 646.5 Q322 652 332.5 659.5 Q343 667 348.5 675 Q354 683 356 688 L356 722 L383 722 L383 679 Z " />
<glyph glyph-name="uring" unicode="&#x16f;" horiz-adv-x="534" d="M454 0 L426 0 L426 50 Q403 27 361.5 7.5 Q320 -12 257 -12 Q214 -12 183 -1.5 Q152 9 130.5 23 Q109 37 95.5 52.5 Q82 68 75 79 L75 534 L103 534 L103 89 Q110 80 122 67.5 Q134 55 152.5 43.5 Q171 32 196.5 24 Q222 16 257 16 Q323 16 363 38 Q403 60 426 87 L426 534 L454 534 L454 0 Z M267 769 Q300 769 323.5 755 Q347 741 355 725 L355 646 Q347 630 323.5 616 Q300 602 267 602 Q234 602 210.5 616 Q187 630 179 646 L179 725 Q187 741 210.5 755 Q234 769 267 769 Z M267 744 Q242 744 227 735 Q212 726 205 717 L205 654 Q212 645 227 636 Q242 627 267 627 Q292 627 307 636 Q322 645 329 654 L329 717 Q322 726 307 735 Q292 744 267 744 Z " />
<glyph glyph-name="uhungarumlaut" unicode="&#x171;" horiz-adv-x="534" d="M454 0 L426 0 L426 50 Q403 27 361.5 7.5 Q320 -12 257 -12 Q214 -12 183 -1.5 Q152 9 130.5 23 Q109 37 95.5 52.5 Q82 68 75 79 L75 534 L103 534 L103 89 Q110 80 122 67.5 Q134 55 152.5 43.5 Q171 32 196.5 24 Q222 16 257 16 Q323 16 363 38 Q403 60 426 87 L426 534 L454 534 L454 0 Z M190 605 L171 605 L171 621 L228 759 L251 759 L251 739 L190 605 Z M350 605 L331 605 L331 621 L388 759 L411 759 L411 739 L350 605 Z " />
<glyph glyph-name="uogonek" unicode="&#x173;" horiz-adv-x="534" d="M454 0 Q399 -42 371.5 -71 Q344 -100 340 -109 L340 -153 Q344 -162 359 -171 Q374 -180 394 -180 Q414 -180 427 -177 Q440 -174 454 -166 L454 -192 Q440 -199 427.5 -202 Q415 -205 394 -205 Q365 -205 343.5 -192.5 Q322 -180 314 -163 L314 -102 Q323 -84 350 -56.5 Q377 -29 426 7 L426 50 Q403 27 361.5 7.5 Q320 -12 257 -12 Q214 -12 183 -1.5 Q152 9 130.5 23 Q109 37 95.5 52.5 Q82 68 75 79 L75 534 L103 534 L103 89 Q110 80 122 67.5 Q134 55 152.5 43.5 Q171 32 196.5 24 Q222 16 257 16 Q323 16 363 38 Q403 60 426 87 L426 534 L454 534 L454 0 Z " />
<glyph glyph-name="wgrave" unicode="&#x1e81;" horiz-adv-x="754" d="M575 0 L533 0 L379 509 L376 509 L221 0 L179 0 L45 508 L45 534 L67 534 L199 27 L202 27 L356 534 L400 534 L553 27 L556 27 L688 534 L709 534 L709 508 L575 0 Z M386 605 L367 605 L286 739 L286 759 L309 759 L386 621 L386 605 Z " />
<glyph glyph-name="wacute" unicode="&#x1e83;" horiz-adv-x="754" d="M575 0 L533 0 L379 509 L376 509 L221 0 L179 0 L45 508 L45 534 L67 534 L199 27 L202 27 L356 534 L400 534 L553 27 L556 27 L688 534 L709 534 L709 508 L575 0 Z M393 605 L374 605 L374 621 L451 759 L474 759 L474 739 L393 605 Z " />
<glyph glyph-name="wcircumflex" unicode="&#x175;" horiz-adv-x="754" d="M575 0 L533 0 L379 509 L376 509 L221 0 L179 0 L45 508 L45 534 L67 534 L199 27 L202 27 L356 534 L400 534 L553 27 L556 27 L688 534 L709 534 L709 508 L575 0 Z M497 605 L480 605 L377 740 L274 605 L257 605 L257 621 L357 759 L397 759 L497 621 L497 605 Z " />
<glyph glyph-name="wdieresis" unicode="&#x1e85;" horiz-adv-x="754" d="M575 0 L533 0 L379 509 L376 509 L221 0 L179 0 L45 508 L45 534 L67 534 L199 27 L202 27 L356 534 L400 534 L553 27 L556 27 L688 534 L709 534 L709 508 L575 0 Z M287 702 Q296 702 303 699 Q310 696 312 693 L312 657 Q310 654 303 651 Q296 648 287 648 Q278 648 271 651 Q264 654 262 657 L262 693 Q264 696 271 699 Q278 702 287 702 Z M466 702 Q475 702 482 699 Q489 696 491 693 L491 657 Q489 654 482 651 Q475 648 466 648 Q457 648 450 651 Q443 654 441 657 L441 693 Q443 696 450 699 Q457 702 466 702 Z " />
<glyph glyph-name="ygrave" unicode="&#x1ef3;" horiz-adv-x="488" d="M452 509 L239 -98 Q213 -137 171 -154.5 Q129 -172 84 -172 Q70 -172 60.5 -171 Q51 -170 47 -169 L47 -142 Q58 -144 67 -144 Q76 -144 83 -144 Q133 -144 163.5 -127.5 Q194 -111 213 -85 L238 -13 L50 506 L50 534 L70 534 L251 29 L254 29 L431 534 L452 534 L452 509 Z M253 605 L234 605 L153 739 L153 759 L176 759 L253 621 L253 605 Z " />
<glyph glyph-name="yacute" unicode="&#xfd;" horiz-adv-x="488" d="M452 509 L239 -98 Q213 -137 171 -154.5 Q129 -172 84 -172 Q70 -172 60.5 -171 Q51 -170 47 -169 L47 -142 Q58 -144 67 -144 Q76 -144 83 -144 Q133 -144 163.5 -127.5 Q194 -111 213 -85 L238 -13 L50 506 L50 534 L70 534 L251 29 L254 29 L431 534 L452 534 L452 509 Z M260 605 L241 605 L241 621 L318 759 L341 759 L341 739 L260 605 Z " />
<glyph glyph-name="ycircumflex" unicode="&#x177;" horiz-adv-x="488" d="M452 509 L239 -98 Q213 -137 171 -154.5 Q129 -172 84 -172 Q70 -172 60.5 -171 Q51 -170 47 -169 L47 -142 Q58 -144 67 -144 Q76 -144 83 -144 Q133 -144 163.5 -127.5 Q194 -111 213 -85 L238 -13 L50 506 L50 534 L70 534 L251 29 L254 29 L431 534 L452 534 L452 509 Z M364 605 L347 605 L244 740 L141 605 L124 605 L124 621 L224 759 L264 759 L364 621 L364 605 Z " />
<glyph glyph-name="ydieresis" unicode="&#xff;" horiz-adv-x="488" d="M452 509 L239 -98 Q213 -137 171 -154.5 Q129 -172 84 -172 Q70 -172 60.5 -171 Q51 -170 47 -169 L47 -142 Q58 -144 67 -144 Q76 -144 83 -144 Q133 -144 163.5 -127.5 Q194 -111 213 -85 L238 -13 L50 506 L50 534 L70 534 L251 29 L254 29 L431 534 L452 534 L452 509 Z M154 702 Q163 702 170 699 Q177 696 179 693 L179 657 Q177 654 170 651 Q163 648 154 648 Q145 648 138 651 Q131 654 129 657 L129 693 Q131 696 138 699 Q145 702 154 702 Z M333 702 Q342 702 349 699 Q356 696 358 693 L358 657 Q356 654 349 651 Q342 648 333 648 Q324 648 317 651 Q310 654 308 657 L308 693 Q310 696 317 699 Q324 702 333 702 Z " />
<glyph glyph-name="zacute" unicode="&#x17a;" horiz-adv-x="456" d="M69 26 L421 26 L421 0 L35 0 L35 24 L386 508 L45 508 L45 534 L421 534 L421 510 L69 26 Z M243 605 L224 605 L224 621 L301 759 L324 759 L324 739 L243 605 Z " />
<glyph glyph-name="zcaron" unicode="&#x17e;" horiz-adv-x="456" d="M69 26 L421 26 L421 0 L35 0 L35 24 L386 508 L45 508 L45 534 L421 534 L421 510 L69 26 Z M247 605 L207 605 L107 743 L107 759 L124 759 L227 625 L330 759 L347 759 L347 743 L247 605 Z " />
<glyph glyph-name="zdotaccent" unicode="&#x17c;" horiz-adv-x="456" d="M69 26 L421 26 L421 0 L35 0 L35 24 L386 508 L45 508 L45 534 L421 534 L421 510 L69 26 Z M227 705 Q236 705 242.5 702 Q249 699 251 696 L251 662 Q249 659 242.5 656 Q236 653 227 653 Q218 653 211.5 656 Q205 659 203 662 L203 696 Q205 699 211.5 702 Q218 705 227 705 Z " />
<glyph glyph-name="eng" unicode="&#x14b;" horiz-adv-x="544" d="M282 546 Q325 546 357 535 Q389 524 411.5 508 Q434 492 448 475.5 Q462 459 469 447 L469 -43 Q460 -64 444 -87 Q428 -110 403 -128.5 Q378 -147 344 -159 Q310 -171 267 -171 L267 -143 Q302 -143 330 -134 Q358 -125 380 -109.5 Q402 -94 417 -74 Q432 -54 441 -33 L441 437 Q434 449 421.5 463 Q409 477 389.5 489 Q370 501 343.5 509.5 Q317 518 282 518 Q219 518 175 495 Q131 472 108 441 L108 0 L80 0 L80 534 L108 534 L108 479 Q132 505 175.5 525.5 Q219 546 282 546 Z " />
<glyph glyph-name="eth" unicode="&#xf0;" horiz-adv-x="534" d="M380 614 Q412 587 435.5 558 Q459 529 470 502 L470 116 Q461 95 445 72 Q429 49 404 30.5 Q379 12 345 0 Q311 -12 268 -12 Q224 -12 190.5 0 Q157 12 132 30.5 Q107 49 91 72 Q75 95 66 116 L66 368 Q75 389 91 412 Q107 435 132 453.5 Q157 472 190.5 484 Q224 496 268 496 Q328 496 372.5 471.5 Q417 447 442 413 L442 492 Q431 521 406.5 549.5 Q382 578 349 605 L185 551 L185 577 L325 623 Q287 650 243.5 672.5 Q200 695 155 710 L177 729 Q225 712 271 687 Q317 662 356 633 L470 670 L470 644 L380 614 Z M442 358 Q433 379 417.5 399 Q402 419 380.5 434 Q359 449 331 458.5 Q303 468 268 468 Q233 468 204.5 459 Q176 450 154.5 434.5 Q133 419 118 399 Q103 379 94 358 L94 126 Q103 105 118 85 Q133 65 154.5 49.5 Q176 34 204.5 25 Q233 16 268 16 Q303 16 331 25 Q359 34 381 49.5 Q403 65 418 85 Q433 105 442 126 L442 358 Z " />
<glyph glyph-name="thorn" unicode="&#xfe;" horiz-adv-x="534" d="M282 546 Q325 546 357 535 Q389 524 411.5 508 Q434 492 448 475.5 Q462 459 469 447 L469 87 Q462 75 448 58.5 Q434 42 411.5 26 Q389 10 357 -1 Q325 -12 282 -12 Q219 -12 175.5 8.5 Q132 29 108 55 L108 -166 L80 -166 L80 700 L108 700 L108 479 Q132 505 175.5 525.5 Q219 546 282 546 Z M441 437 Q434 449 421.5 463 Q409 477 389.5 489 Q370 501 343.5 509.5 Q317 518 282 518 Q219 518 175 495 Q131 472 108 441 L108 93 Q131 62 175 39 Q219 16 282 16 Q317 16 343.5 24.5 Q370 33 389.5 45 Q409 57 421.5 71 Q434 85 441 97 L441 437 Z " />
<glyph glyph-name="longs" unicode="&#x17f;" horiz-adv-x="316" d="M237 713 Q259 713 277 711 Q295 709 301 707 L301 681 Q292 683 276 684 Q260 685 243 685 Q207 685 182.5 677 Q158 669 143 657.5 Q128 646 120 633.5 Q112 621 108 612 L108 0 L80 0 L80 624 Q86 636 96 651 Q106 666 123.5 680 Q141 694 168.5 703.5 Q196 713 237 713 Z " />
<glyph glyph-name="fi" unicode="&#xfb01;" horiz-adv-x="527" d="M262 713 Q284 713 302 711 Q320 709 326 707 L326 681 Q317 683 301 684 Q285 685 268 685 Q232 685 207.5 677 Q183 669 168 657.5 Q153 646 145 633.5 Q137 621 133 612 L133 534 L306 534 L306 508 L133 508 L133 0 L105 0 L105 508 L23 508 L23 534 L105 534 L105 624 Q111 636 121 651 Q131 666 148.5 680 Q166 694 193.5 703.5 Q221 713 262 713 Z M415 0 L415 534 L443 534 L443 0 L415 0 Z M429 705 Q438 705 444.5 702 Q451 699 453 696 L453 662 Q451 659 444.5 656 Q438 653 429 653 Q420 653 413.5 656 Q407 659 405 662 L405 696 Q407 699 413.5 702 Q420 705 429 705 Z " />
<glyph glyph-name="fl" unicode="&#xfb02;" horiz-adv-x="519" d="M262 713 Q284 713 302 711 Q320 709 326 707 L326 681 Q317 683 301 684 Q285 685 268 685 Q232 685 207.5 677 Q183 669 168 657.5 Q153 646 145 633.5 Q137 621 133 612 L133 534 L306 534 L306 508 L133 508 L133 0 L105 0 L105 508 L23 508 L23 534 L105 534 L105 624 Q111 636 121 651 Q131 666 148.5 680 Q166 694 193.5 703.5 Q221 713 262 713 Z M411 0 L411 700 L439 700 L439 0 L411 0 Z " />
<glyph glyph-name="ampersand" unicode="&#x26;" horiz-adv-x="648" d="M633 0 L621 0 L517 102 Q502 81 480.5 60.5 Q459 40 432 24 Q405 8 371 -2 Q337 -12 297 -12 Q252 -12 215 -1 Q178 10 150.5 28 Q123 46 104 69 Q85 92 75 116 L75 267 Q98 317 138 345.5 Q178 374 227 386 L201 411 Q175 437 158.5 456.5 Q142 476 131 493 L131 631 Q137 640 152 654 Q167 668 190.5 680.5 Q214 693 244.5 702.5 Q275 712 313 712 Q351 712 381.5 703 Q412 694 435 681.5 Q458 669 473 655 Q488 641 495 632 L495 609 L474 609 Q466 622 452.5 635 Q439 648 418.5 659 Q398 670 372 677 Q346 684 313 684 Q283 684 259 677.5 Q235 671 215.5 661.5 Q196 652 182 641 Q168 630 159 621 L159 505 Q167 490 181.5 472 Q196 454 211 439 L501 155 L501 356 L529 356 L529 128 L633 26 L633 0 Z M297 15 Q366 15 415.5 45.5 Q465 76 495 124 L249 364 Q198 353 159 325.5 Q120 298 103 257 L103 126 Q126 73 176.5 44 Q227 15 297 15 Z " />
<glyph glyph-name="grave" unicode="&#x60;" horiz-adv-x="400" d="M250 605 L231 605 L150 739 L150 759 L173 759 L250 621 L250 605 Z " />
<glyph glyph-name="acute" unicode="&#xb4;" horiz-adv-x="400" d="M169 605 L150 605 L150 621 L227 759 L250 759 L250 739 L169 605 Z " />
<glyph glyph-name="circumflex" unicode="&#x2c6;" horiz-adv-x="400" d="M320 605 L303 605 L200 740 L97 605 L80 605 L80 621 L180 759 L220 759 L320 621 L320 605 Z " />
<glyph glyph-name="caron" unicode="&#x2c7;" horiz-adv-x="400" d="M220 605 L180 605 L80 743 L80 759 L97 759 L200 625 L303 759 L320 759 L320 743 L220 605 Z " />
<glyph glyph-name="tilde" unicode="&#x2dc;" horiz-adv-x="400" d="M133 718 Q153 718 170.5 709.5 Q188 701 204 690 Q220 679 235.5 670 Q251 661 268 661 Q287 661 300 671 Q313 681 318 694 L318 712 L342 712 L342 685 Q334 665 316.5 650.5 Q299 636 268 636 Q246 636 228.5 645 Q211 654 196 664.5 Q181 675 165.5 684 Q150 693 133 693 Q114 693 100 682 Q86 671 82 661 L82 642 L58 642 L58 669 Q80 718 133 718 Z " />
<glyph glyph-name="dieresis" unicode="&#xa8;" horiz-adv-x="400" d="M112 702 Q121 702 128 699 Q135 696 137 693 L137 657 Q135 654 128 651 Q121 648 112 648 Q103 648 96 651 Q89 654 87 657 L87 693 Q89 696 96 699 Q103 702 112 702 Z M291 702 Q300 702 307 699 Q314 696 316 693 L316 657 Q314 654 307 651 Q300 648 291 648 Q282 648 275 651 Q268 654 266 657 L266 693 Q268 696 275 699 Q282 702 291 702 Z " />
<glyph glyph-name="breve" unicode="&#x2d8;" horiz-adv-x="400" d="M316 679 Q312 671 304 660 Q296 649 282 639 Q268 629 248 622.5 Q228 616 200 616 Q172 616 152 622.5 Q132 629 118 639 Q104 649 96 660 Q88 671 84 679 L84 722 L111 722 L111 688 Q113 683 118.5 675 Q124 667 134.5 659.5 Q145 652 161 646.5 Q177 641 200 641 Q222 641 238.5 646.5 Q255 652 265.5 659.5 Q276 667 281.5 675 Q287 683 289 688 L289 722 L316 722 L316 679 Z " />
<glyph glyph-name="ring" unicode="&#x2da;" horiz-adv-x="400" d="M200 769 Q233 769 256.5 755 Q280 741 288 725 L288 646 Q280 630 256.5 616 Q233 602 200 602 Q167 602 143.5 616 Q120 630 112 646 L112 725 Q120 741 143.5 755 Q167 769 200 769 Z M200 744 Q175 744 160 735 Q145 726 138 717 L138 654 Q145 645 160 636 Q175 627 200 627 Q225 627 240 636 Q255 645 262 654 L262 717 Q255 726 240 735 Q225 744 200 744 Z " />
<glyph glyph-name="hungarumlaut" unicode="&#x2dd;" horiz-adv-x="400" d="M99 605 L80 605 L80 621 L137 759 L160 759 L160 739 L99 605 Z M259 605 L240 605 L240 621 L297 759 L320 759 L320 739 L259 605 Z " />
<glyph glyph-name="dotaccent" unicode="&#x2d9;" horiz-adv-x="400" d="M200 705 Q209 705 215.5 702 Q222 699 224 696 L224 662 Q222 659 215.5 656 Q209 653 200 653 Q191 653 184.5 656 Q178 659 176 662 L176 696 Q178 699 184.5 702 Q191 705 200 705 Z " />
<glyph glyph-name="cedilla" unicode="&#xb8;" horiz-adv-x="400" d="M213 -63 Q244 -63 263.5 -77 Q283 -91 291 -106 L291 -171 Q283 -186 263.5 -200 Q244 -214 213 -214 Q185 -214 163.5 -206 Q142 -198 125 -187 L133 -165 Q149 -176 168 -183.5 Q187 -191 213 -191 Q235 -191 248 -182 Q261 -173 266 -164 L266 -113 Q261 -104 248 -94.5 Q235 -85 213 -85 L157 -85 L188 6 L214 6 L189 -63 L213 -63 Z " />
<glyph glyph-name="ogonek" unicode="&#x2db;" horiz-adv-x="400" d="M282 0 Q227 -42 205 -71 Q183 -100 179 -109 L179 -153 Q183 -162 198 -171 Q213 -180 233 -180 Q253 -180 266 -177 Q279 -174 293 -166 L293 -192 Q279 -199 266.5 -202 Q254 -205 233 -205 Q204 -205 182.5 -192.5 Q161 -180 153 -163 L153 -102 Q162 -83 185 -54.5 Q208 -26 261 12 L282 0 Z " />
<glyph glyph-name="comma" unicode="&#x2c;" horiz-adv-x="144" d="M72 47 Q80 47 87 44 Q94 41 96 38 L96 -70 Q94 -75 86 -83.5 Q78 -92 64 -92 L51 -92 L51 -73 L62 -73 Q68 -73 72 -67 L72 -9 Q64 -9 57 -6 Q50 -3 48 0 L48 38 Q50 41 57 44 Q64 47 72 47 Z " />
<glyph glyph-name="semicolon" unicode="&#x3b;" horiz-adv-x="164" d="M82 47 Q90 47 97 44 Q104 41 106 38 L106 -70 Q104 -75 96 -83.5 Q88 -92 74 -92 L61 -92 L61 -73 L72 -73 Q78 -73 82 -67 L82 -9 Q74 -9 67 -6 Q60 -3 58 0 L58 38 Q60 41 67 44 Q74 47 82 47 Z M82 479 Q91 479 97.5 476 Q104 473 106 470 L106 436 Q104 433 97.5 430 Q91 427 82 427 Q73 427 66.5 430 Q60 433 58 436 L58 470 Q60 473 66.5 476 Q73 479 82 479 Z " />
<glyph glyph-name="colon" unicode="&#x3a;" horiz-adv-x="164" d="M82 47 Q91 47 97.5 44 Q104 41 106 38 L106 4 Q104 1 97.5 -2 Q91 -5 82 -5 Q73 -5 66.5 -2 Q60 1 58 4 L58 38 Q60 41 66.5 44 Q73 47 82 47 Z M82 479 Q91 479 97.5 476 Q104 473 106 470 L106 436 Q104 433 97.5 430 Q91 427 82 427 Q73 427 66.5 430 Q60 433 58 436 L58 470 Q60 473 66.5 476 Q73 479 82 479 Z " />
<glyph glyph-name="period" unicode="&#x2e;" horiz-adv-x="144" d="M72 47 Q81 47 87.5 44 Q94 41 96 38 L96 4 Q94 1 87.5 -2 Q81 -5 72 -5 Q63 -5 56.5 -2 Q50 1 48 4 L48 38 Q50 41 56.5 44 Q63 47 72 47 Z " />
<glyph glyph-name="ellipsis" unicode="&#x2026;" horiz-adv-x="432" d="M72 44 Q81 44 87.5 41 Q94 38 96 35 L96 4 Q94 1 87.5 -2 Q81 -5 72 -5 Q63 -5 56.5 -2 Q50 1 48 4 L48 35 Q50 38 56.5 41 Q63 44 72 44 Z M216 44 Q225 44 231.5 41 Q238 38 240 35 L240 4 Q238 1 231.5 -2 Q225 -5 216 -5 Q207 -5 200.5 -2 Q194 1 192 4 L192 35 Q194 38 200.5 41 Q207 44 216 44 Z M360 44 Q369 44 375.5 41 Q382 38 384 35 L384 4 Q382 1 375.5 -2 Q369 -5 360 -5 Q351 -5 344.5 -2 Q338 1 336 4 L336 35 Q338 38 344.5 41 Q351 44 360 44 Z " />
<glyph glyph-name="hyphen" unicode="&#x2d;" horiz-adv-x="360" d="M50 327 L50 354 L310 354 L310 327 L50 327 Z " />
<glyph glyph-name="exclam" unicode="&#x21;" horiz-adv-x="248" d="M136 126 L112 126 L108 622 L108 700 L140 700 L140 622 L136 126 Z M124 47 Q133 47 139.5 44 Q146 41 148 38 L148 4 Q146 1 139.5 -2 Q133 -5 124 -5 Q115 -5 108.5 -2 Q102 1 100 4 L100 38 Q102 41 108.5 44 Q115 47 124 47 Z " />
<glyph glyph-name="exclamdown" unicode="&#xa1;" horiz-adv-x="248" d="M112 414 L136 414 L140 -82 L140 -160 L108 -160 L108 -82 L112 414 Z M124 493 Q115 493 108.5 496 Q102 499 100 502 L100 536 Q102 539 108.5 542 Q115 545 124 545 Q133 545 139.5 542 Q146 539 148 536 L148 502 Q146 499 139.5 496 Q133 493 124 493 Z " />
<glyph glyph-name="question" unicode="&#x3f;" horiz-adv-x="516" d="M258 713 Q302 713 336.5 703 Q371 693 397 677.5 Q423 662 441 643 Q459 624 471 607 L471 441 Q460 418 435 397.5 Q410 377 389 361 L223 237 L223 136 L193 136 L193 253 L369 383 Q387 397 409 415.5 Q431 434 441 451 L441 597 Q429 613 411.5 628.5 Q394 644 371 656.5 Q348 669 319.5 676.5 Q291 684 258 684 Q222 684 191 675 Q160 666 136 652 Q112 638 95 619.5 Q78 601 68 583 L45 583 L45 607 Q57 624 75.5 643 Q94 662 120 677.5 Q146 693 180 703 Q214 713 258 713 Z M208 47 Q217 47 223.5 44 Q230 41 232 38 L232 4 Q230 1 223.5 -2 Q217 -5 208 -5 Q199 -5 192.5 -2 Q186 1 184 4 L184 38 Q186 41 192.5 44 Q199 47 208 47 Z " />
<glyph glyph-name="questiondown" unicode="&#xbf;" horiz-adv-x="516" d="M258 -172 Q214 -172 179.5 -162 Q145 -152 119 -136.5 Q93 -121 75 -102 Q57 -83 45 -66 L45 100 Q56 123 81 143.5 Q106 164 127 180 L293 304 L293 405 L323 405 L323 288 L147 158 Q129 144 107 125.5 Q85 107 75 90 L75 -56 Q87 -72 104.5 -87.5 Q122 -103 145 -115.5 Q168 -128 196.5 -135.5 Q225 -143 258 -143 Q294 -143 325 -134 Q356 -125 380 -111 Q404 -97 421 -78.5 Q438 -60 448 -42 L471 -42 L471 -66 Q459 -83 440.5 -102 Q422 -121 396 -136.5 Q370 -152 336 -162 Q302 -172 258 -172 Z M308 494 Q299 494 292.5 497 Q286 500 284 503 L284 537 Q286 540 292.5 543 Q299 546 308 546 Q317 546 323.5 543 Q330 540 332 537 L332 503 Q330 500 323.5 497 Q317 494 308 494 Z " />
<glyph glyph-name="quoteleft" unicode="&#x2018;" horiz-adv-x="148" d="M74 570 Q66 570 59 573 Q52 576 50 579 L50 687 Q52 692 60 700.5 Q68 709 82 709 L95 709 L95 690 L84 690 Q78 690 74 684 L74 626 Q82 626 89 623 Q96 620 98 617 L98 579 Q96 576 89 573 Q82 570 74 570 Z " />
<glyph glyph-name="quoteright" unicode="&#x2019;" horiz-adv-x="148" d="M74 714 Q82 714 89 711 Q96 708 98 705 L98 597 Q96 592 88 583.5 Q80 575 66 575 L53 575 L53 594 L64 594 Q70 594 74 600 L74 658 Q66 658 59 661 Q52 664 50 667 L50 705 Q52 708 59 711 Q66 714 74 714 Z " />
<glyph glyph-name="quotedblleft" unicode="&#x201c;" horiz-adv-x="288" d="M74 570 Q66 570 59 573 Q52 576 50 579 L50 687 Q52 692 60 700.5 Q68 709 82 709 L95 709 L95 690 L84 690 Q78 690 74 684 L74 626 Q82 626 89 623 Q96 620 98 617 L98 579 Q96 576 89 573 Q82 570 74 570 Z M214 570 Q206 570 199 573 Q192 576 190 579 L190 687 Q192 692 200 700.5 Q208 709 222 709 L235 709 L235 690 L224 690 Q218 690 214 684 L214 626 Q222 626 229 623 Q236 620 238 617 L238 579 Q236 576 229 573 Q222 570 214 570 Z " />
<glyph glyph-name="quotedblright" unicode="&#x201d;" horiz-adv-x="288" d="M74 713 Q82 713 89 710 Q96 707 98 704 L98 596 Q96 591 88 582.5 Q80 574 66 574 L53 574 L53 593 L64 593 Q70 593 74 599 L74 657 Q66 657 59 660 Q52 663 50 666 L50 704 Q52 707 59 710 Q66 713 74 713 Z M214 713 Q222 713 229 710 Q236 707 238 704 L238 596 Q236 591 228 582.5 Q220 574 206 574 L193 574 L193 593 L204 593 Q210 593 214 599 L214 657 Q206 657 199 660 Q192 663 190 666 L190 704 Q192 707 199 710 Q206 713 214 713 Z " />
<glyph glyph-name="quotesinglbase" unicode="&#x201a;" horiz-adv-x="148" d="M74 47 Q82 47 89 44 Q96 41 98 38 L98 -70 Q96 -75 88 -83.5 Q80 -92 66 -92 L53 -92 L53 -73 L64 -73 Q70 -73 74 -67 L74 -9 Q66 -9 59 -6 Q52 -3 50 0 L50 38 Q52 41 59 44 Q66 47 74 47 Z " />
<glyph glyph-name="quotedblbase" unicode="&#x201e;" horiz-adv-x="290" d="M74 47 Q82 47 89 44 Q96 41 98 38 L98 -70 Q96 -75 88 -83.5 Q80 -92 66 -92 L53 -92 L53 -73 L64 -73 Q70 -73 74 -67 L74 -9 Q66 -9 59 -6 Q52 -3 50 0 L50 38 Q52 41 59 44 Q66 47 74 47 Z M216 47 Q224 47 231 44 Q238 41 240 38 L240 -70 Q238 -75 230 -83.5 Q222 -92 208 -92 L195 -92 L195 -73 L206 -73 Q212 -73 216 -67 L216 -9 Q208 -9 201 -6 Q194 -3 192 0 L192 38 Q194 41 201 44 Q208 47 216 47 Z " />
<glyph glyph-name="guilsinglleft" unicode="&#x2039;" horiz-adv-x="320" d="M78 302 L260 89 L260 71 L240 71 L50 295 L50 310 L240 534 L260 534 L260 516 L78 302 Z " />
<glyph glyph-name="guilsinglright" unicode="&#x203a;" horiz-adv-x="320" d="M270 295 L80 71 L60 71 L60 89 L242 302 L60 516 L60 534 L80 534 L270 310 L270 295 Z " />
<glyph glyph-name="guillemotleft" unicode="&#xab;" horiz-adv-x="559" d="M78 302 L260 89 L260 71 L240 71 L50 295 L50 310 L240 534 L260 534 L260 516 L78 302 Z M317 302 L499 89 L499 71 L479 71 L289 295 L289 310 L479 534 L499 534 L499 516 L317 302 Z " />
<glyph glyph-name="guillemotright" unicode="&#xbb;" horiz-adv-x="559" d="M270 295 L80 71 L60 71 L60 89 L242 302 L60 516 L60 534 L80 534 L270 310 L270 295 Z M509 295 L319 71 L299 71 L299 89 L481 302 L299 516 L299 534 L319 534 L509 310 L509 295 Z " />
<glyph glyph-name="slash" unicode="&#x2f;" horiz-adv-x="369" d="M84 -110 L60 -110 L60 -92 L285 731 L309 731 L309 713 L84 -110 Z " />
<glyph glyph-name="bar" unicode="&#x7c;" horiz-adv-x="328" d="M150 -130 L150 790 L178 790 L178 -130 L150 -130 Z " />
<glyph glyph-name="endash" unicode="&#x2013;" horiz-adv-x="560" d="M50 327 L50 354 L510 354 L510 327 L50 327 Z " />
<glyph glyph-name="emdash" unicode="&#x2014;" horiz-adv-x="860" d="M50 327 L50 354 L810 354 L810 327 L50 327 Z " />
<glyph glyph-name="bullet" unicode="&#x2022;" horiz-adv-x="305" d="M152 439 Q178 439 196.5 429 Q215 419 225 405 L225 326 Q215 311 196.5 300.5 Q178 290 152 290 Q126 290 107.5 301 Q89 312 80 326 L80 405 Q89 419 107.5 429 Q126 439 152 439 Z " />
<glyph glyph-name="parenleft" unicode="&#x28;" horiz-adv-x="373" d="M323 673 Q283 673 249 661.5 Q215 650 189 631 Q163 612 144 588 Q125 564 115 539 L115 -7 Q125 -33 143.5 -57 Q162 -81 188.5 -99.5 Q215 -118 248.5 -129.5 Q282 -141 323 -141 L328 -141 L328 -168 L323 -168 Q272 -168 232.5 -154 Q193 -140 163.5 -118 Q134 -96 115 -69.5 Q96 -43 85 -17 L85 549 Q96 574 115 601 Q134 628 163.5 650 Q193 672 232.5 686 Q272 700 323 700 L328 700 L328 673 L323 673 Z " />
<glyph glyph-name="parenright" unicode="&#x29;" horiz-adv-x="373" d="M50 700 Q101 700 140.5 686 Q180 672 209.5 650 Q239 628 258 601 Q277 574 288 549 L288 -17 Q277 -43 258 -69.5 Q239 -96 209.5 -118 Q180 -140 140.5 -154 Q101 -168 50 -168 L45 -168 L45 -141 L50 -141 Q90 -141 124 -129.5 Q158 -118 184.5 -99.5 Q211 -81 229.5 -57 Q248 -33 258 -7 L258 539 Q248 564 229 588 Q210 612 184 631 Q158 650 124 661.5 Q90 673 50 673 L45 673 L45 700 L50 700 Z " />
<glyph glyph-name="bracketleft" unicode="&#x5b;" horiz-adv-x="365" d="M130 673 L130 -141 L305 -141 L305 -168 L100 -168 L100 700 L305 700 L305 673 L130 673 Z " />
<glyph glyph-name="bracketright" unicode="&#x5d;" horiz-adv-x="365" d="M60 -168 L60 -141 L235 -141 L235 673 L60 673 L60 700 L265 700 L265 -168 L60 -168 Z " />
<glyph glyph-name="braceleft" unicode="&#x7b;" horiz-adv-x="391" d="M143 322 Q134 299 119.5 285.5 Q105 272 88 264 Q105 257 119.5 243.5 Q134 230 143 207 L143 -10 Q153 -36 172 -60.5 Q191 -85 217.5 -103.5 Q244 -122 277.5 -133 Q311 -144 351 -144 L351 -171 Q300 -171 260.5 -157 Q221 -143 191.5 -121 Q162 -99 143 -72.5 Q124 -46 113 -20 L113 197 Q107 216 95 227 Q83 238 69 243.5 Q55 249 40.5 250 Q26 251 15 251 L15 278 Q26 278 40.5 279 Q55 280 69 285.5 Q83 291 95 301.5 Q107 312 113 332 L113 549 Q124 574 143 601 Q162 628 191.5 650 Q221 672 260.5 686 Q300 700 351 700 L351 673 Q311 673 277.5 662 Q244 651 217.5 632.5 Q191 614 172 589.5 Q153 565 143 539 L143 322 Z " />
<glyph glyph-name="braceright" unicode="&#x7d;" horiz-adv-x="391" d="M278 332 Q284 312 296 301.5 Q308 291 322 285.5 Q336 280 350.5 279 Q365 278 376 278 L376 251 Q365 251 350.5 250 Q336 249 322 243.5 Q308 238 296 227 Q284 216 278 197 L278 -20 Q267 -46 248 -72.5 Q229 -99 199.5 -121 Q170 -143 130.5 -157 Q91 -171 40 -171 L40 -144 Q80 -144 113.5 -133 Q147 -122 173.5 -103.5 Q200 -85 218.5 -60.5 Q237 -36 248 -10 L248 207 Q257 230 271.5 243.5 Q286 257 303 265 Q286 272 271.5 285.5 Q257 299 248 322 L248 539 Q237 565 218.5 589.5 Q200 614 173.5 632.5 Q147 651 113.5 662 Q80 673 40 673 L40 700 Q91 700 130.5 686 Q170 672 199.5 650 Q229 628 248 601 Q267 574 278 549 L278 332 Z " />
<glyph glyph-name="asterisk" unicode="&#x2a;" horiz-adv-x="499" d="M447 604 Q448 601 448.5 596.5 Q449 592 447 588 L260 536 L381 385 Q380 380 376.5 376.5 Q373 373 370 371 Q368 369 364 366.5 Q360 364 355 366 L250 525 L145 366 Q140 364 136 366.5 Q132 369 130 371 Q127 373 123.5 376.5 Q120 380 119 385 L240 536 L52 588 Q50 592 50.5 596.5 Q51 601 52 604 Q54 608 56 612 Q58 616 62 618 L242 550 L234 741 Q237 744 241.5 745 Q246 746 250 746 Q254 746 258.5 745 Q263 744 266 741 L258 551 L437 618 Q441 616 443 612 Q445 608 447 604 Z " />
<glyph glyph-name="dagger" unicode="&#x2020;" horiz-adv-x="616" d="M566 423 L488 423 L322 428 L318 -168 L296 -168 L292 428 L128 423 L50 423 L50 453 L128 453 L292 448 L291 622 L291 700 L323 700 L323 622 L322 448 L488 453 L566 453 L566 423 Z " />
<glyph glyph-name="daggerdbl" unicode="&#x2021;" horiz-adv-x="636" d="M320 178 L488 183 L566 183 L566 153 L488 153 L320 158 L318 -168 L296 -168 L294 158 L128 153 L50 153 L50 183 L128 183 L294 178 L292 458 L128 453 L50 453 L50 483 L128 483 L292 478 L291 622 L291 700 L323 700 L323 622 L322 478 L488 483 L566 483 L566 453 L488 453 L322 458 L320 178 Z " />
<glyph glyph-name="section" unicode="&#xa7;" horiz-adv-x="504" d="M252 685 Q221 685 196 678 Q171 671 152 660 Q133 649 119.5 636.5 Q106 624 98 612 L98 531 Q113 508 142.5 492.5 Q172 477 220 465 L291 447 Q348 433 384 410.5 Q420 388 434 365 L434 246 Q428 237 418 225.5 Q408 214 393 203 Q378 192 358.5 182.5 Q339 173 314 167 Q362 153 392 132.5 Q422 112 434 91 L434 -10 Q426 -22 411.5 -37.5 Q397 -53 375 -67 Q353 -81 322.5 -91 Q292 -101 252 -101 Q212 -101 181 -91 Q150 -81 127.5 -66.5 Q105 -52 91 -36.5 Q77 -21 70 -10 L70 13 L92 13 Q98 0 111 -15 Q124 -30 144 -43 Q164 -56 191.5 -64.5 Q219 -73 252 -73 Q283 -73 308 -66 Q333 -59 352 -48 Q371 -37 384.5 -24.5 Q398 -12 406 0 L406 81 Q391 104 361.5 119.5 Q332 135 284 147 L213 165 Q156 179 120 201.5 Q84 224 70 247 L70 366 Q76 375 86 386.5 Q96 398 111 409 Q126 420 145.5 429.5 Q165 439 190 445 Q142 459 112 479.5 Q82 500 70 521 L70 622 Q78 634 92.5 649.5 Q107 665 129 679 Q151 693 181.5 703 Q212 713 252 713 Q292 713 322.5 703 Q353 693 375.5 678.5 Q398 664 412.5 648.5 Q427 633 434 622 L434 599 L412 599 Q406 612 393 627 Q380 642 359.5 655 Q339 668 312 676.5 Q285 685 252 685 Z M406 355 Q392 378 362 393.5 Q332 409 284 421 L252 429 Q221 429 196 422 Q171 415 152 404 Q133 393 119.5 380.5 Q106 368 98 356 L98 257 Q112 234 142 218.5 Q172 203 220 191 L252 183 Q283 183 308 190 Q333 197 352 208 Q371 219 384.5 231.5 Q398 244 406 256 L406 355 Z " />
<glyph glyph-name="paragraph" unicode="&#xb6;" horiz-adv-x="655" d="M328 -100 L328 270 L250 270 Q185 270 136 303 Q87 336 60 387 L60 583 Q89 637 139.5 668.5 Q190 700 250 700 L357 700 L357 -100 L328 -100 Z M526 -100 L526 700 L555 700 L555 -100 L526 -100 Z " />
<glyph glyph-name="asciicircum" unicode="&#x5e;" horiz-adv-x="522" d="M462 342 L443 342 L267 677 L255 677 L80 342 L60 342 L60 360 L238 700 L284 700 L462 361 L462 342 Z " />
<glyph glyph-name="asciitilde" unicode="&#x7e;" horiz-adv-x="580" d="M169 406 Q205 406 239 398 Q273 390 306 380.5 Q339 371 371.5 363 Q404 355 437 355 Q462 355 482.5 362 Q503 369 518 377 Q536 387 549 399 L549 363 Q536 353 519 346 Q505 339 484.5 334 Q464 329 438 329 Q399 329 365 337 Q331 345 298.5 354.5 Q266 364 234 372 Q202 380 167 380 Q138 380 113 372 Q88 364 70 354 Q49 343 31 329 L31 360 Q47 372 68 383 Q86 391 111.5 398.5 Q137 406 169 406 Z " />
<glyph glyph-name="brokenbar" unicode="&#xa6;" horiz-adv-x="333" d="M150 410 L150 790 L178 790 L178 410 L150 410 Z M150 -130 L150 270 L178 270 L178 -130 L150 -130 Z " />
<glyph glyph-name="backslash" unicode="&#x5c;" horiz-adv-x="369" d="M309 -110 L285 -110 L60 713 L60 731 L84 731 L309 -92 L309 -110 Z " />
<glyph glyph-name="underscore" unicode="&#x5f;" horiz-adv-x="480" d="M-5 -110 L-5 -83 L485 -83 L485 -110 L-5 -110 Z " />
<glyph glyph-name="quotesingle" unicode="&#x27;" horiz-adv-x="128" d="M73 542 L55 542 L50 654 L50 700 L78 700 L78 654 L73 542 Z " />
<glyph glyph-name="quotedbl" unicode="&#x22;" horiz-adv-x="264" d="M73 542 L55 542 L50 654 L50 700 L78 700 L78 654 L73 542 Z M209 542 L191 542 L186 654 L186 700 L214 700 L214 654 L209 542 Z " />
<glyph glyph-name="at" unicode="&#x40;" horiz-adv-x="960" d="M480 712 Q570 712 639 684 Q708 656 757.5 616.5 Q807 577 837 533 Q867 489 880 457 L880 114 Q860 75 828 57.5 Q796 40 761 40 Q721 40 691.5 58 Q662 76 648 103 Q625 74 580.5 51 Q536 28 468 28 Q424 28 392.5 39 Q361 50 338.5 66 Q316 82 302 98.5 Q288 115 281 127 L281 427 Q288 439 302 455.5 Q316 472 338.5 488 Q361 504 392.5 515 Q424 526 468 526 Q531 526 574.5 505.5 Q618 485 642 459 L642 514 L670 514 L670 123 Q684 95 706 81 Q728 67 761 67 Q794 67 814.5 81 Q835 95 852 123 L852 450 Q841 478 813 518 Q785 558 739.5 595 Q694 632 629 658.5 Q564 685 480 685 Q417 685 360 668.5 Q303 652 255 621.5 Q207 591 169.5 547.5 Q132 504 108 450 L108 103 Q132 49 169.5 5.5 Q207 -38 255 -69 Q303 -100 360 -116.5 Q417 -133 480 -133 Q536 -133 587 -118.5 Q638 -104 683 -78 L705 -97 Q655 -127 598.5 -143.5 Q542 -160 480 -160 Q412 -160 350 -142 Q288 -124 236.5 -90.5 Q185 -57 144.5 -10 Q104 37 80 95 L80 457 Q105 516 145.5 563 Q186 610 237.5 643 Q289 676 350.5 694 Q412 712 480 712 Z M468 56 Q531 56 575 79 Q619 102 642 133 L642 421 Q619 452 575 475 Q531 498 468 498 Q433 498 406.5 489.5 Q380 481 360.5 469 Q341 457 328.5 443 Q316 429 309 417 L309 137 Q316 125 328.5 111 Q341 97 360.5 85 Q380 73 406.5 64.5 Q433 56 468 56 Z " />
<glyph glyph-name="copyright" unicode="&#xa9;" horiz-adv-x="826" d="M413 713 Q488 713 554 684.5 Q620 656 669.5 606.5 Q719 557 747.5 491 Q776 425 776 350 Q776 275 747.5 209 Q719 143 669.5 93.5 Q620 44 554 15.5 Q488 -13 413 -13 Q338 -13 272 15.5 Q206 44 156.5 93.5 Q107 143 78.5 209 Q50 275 50 350 Q50 425 78.5 491 Q107 557 156.5 606.5 Q206 656 272 684.5 Q338 713 413 713 Z M413 687 Q344 687 283 660.5 Q222 634 176.5 588 Q131 542 104.5 480.5 Q78 419 78 350 Q78 281 104.5 219.5 Q131 158 176.5 112 Q222 66 283 39.5 Q344 13 413 13 Q482 13 543 39.5 Q604 66 649.5 112 Q695 158 721.5 219.5 Q748 281 748 350 Q748 419 721.5 480.5 Q695 542 649.5 588 Q604 634 543 660.5 Q482 687 413 687 Z M413 575 Q453 575 483.5 565 Q514 555 536.5 541 Q559 527 573 511.5 Q587 496 595 484 L595 463 L572 463 Q566 476 553 491 Q540 506 520 519 Q500 532 473 540.5 Q446 549 413 549 Q382 549 357 541.5 Q332 534 313 523 Q294 512 280.5 499 Q267 486 259 474 L259 222 Q267 210 280.5 197 Q294 184 313 173 Q332 162 357 154.5 Q382 147 413 147 Q446 147 473 155.5 Q500 164 520 177 Q540 190 553 205 Q566 220 572 233 L595 233 L595 212 Q587 200 573 184.5 Q559 169 536.5 155 Q514 141 483.5 131 Q453 121 413 121 Q373 121 342.5 131 Q312 141 290 155 Q268 169 253.5 184.5 Q239 200 231 212 L231 484 Q239 496 253.5 511.5 Q268 527 290 541 Q312 555 342.5 565 Q373 575 413 575 Z " />
<glyph glyph-name="registered" unicode="&#xae;" horiz-adv-x="518" d="M259 824 Q308 824 351.5 805 Q395 786 427.5 753.5 Q460 721 479 677.5 Q498 634 498 585 Q498 536 479 492.5 Q460 449 427.5 416.5 Q395 384 351.5 365 Q308 346 259 346 Q210 346 166.5 365 Q123 384 90.5 416.5 Q58 449 39 492.5 Q20 536 20 585 Q20 634 39 677.5 Q58 721 90.5 753.5 Q123 786 166.5 805 Q210 824 259 824 Z M259 369 Q304 369 342.5 386 Q381 403 410 432.5 Q439 462 455.5 501 Q472 540 472 585 Q472 630 455.5 669 Q439 708 410 737.5 Q381 767 342.5 784 Q304 801 259 801 Q214 801 175.5 784 Q137 767 108 737.5 Q79 708 62.5 669 Q46 630 46 585 Q46 540 62.5 501 Q79 462 108 432.5 Q137 403 175.5 386 Q214 369 259 369 Z M281 734 Q305 734 328 720 Q351 706 363 682 L363 612 Q352 589 331 575.5 Q310 562 287 560 L355 462 L355 446 L340 446 L262 560 L197 560 L197 446 L175 446 L175 734 L281 734 Z M341 676 Q330 699 312.5 706 Q295 713 277 713 L197 713 L197 582 L277 582 Q295 582 312.5 588.5 Q330 595 341 618 L341 676 Z " />
<glyph glyph-name="trademark" unicode="&#x2122;" horiz-adv-x="776" d="M183 680 L183 310 L159 310 L159 680 L30 680 L30 700 L312 700 L312 680 L183 680 Z M682 310 L682 676 L680 676 L547 310 L521 310 L388 676 L386 676 L386 310 L362 310 L362 700 L405 700 L534 346 L536 346 L663 700 L706 700 L706 310 L682 310 Z " />
<glyph glyph-name="uni2117" unicode="&#x2117;" horiz-adv-x="826" d="M413 713 Q488 713 554 684.5 Q620 656 669.5 606.5 Q719 557 747.5 491 Q776 425 776 350 Q776 275 747.5 209 Q719 143 669.5 93.5 Q620 44 554 15.5 Q488 -13 413 -13 Q338 -13 272 15.5 Q206 44 156.5 93.5 Q107 143 78.5 209 Q50 275 50 350 Q50 425 78.5 491 Q107 557 156.5 606.5 Q206 656 272 684.5 Q338 713 413 713 Z M413 687 Q344 687 283 660.5 Q222 634 176.5 588 Q131 542 104.5 480.5 Q78 419 78 350 Q78 281 104.5 219.5 Q131 158 176.5 112 Q222 66 283 39.5 Q344 13 413 13 Q482 13 543 39.5 Q604 66 649.5 112 Q695 158 721.5 219.5 Q748 281 748 350 Q748 419 721.5 480.5 Q695 542 649.5 588 Q604 634 543 660.5 Q482 687 413 687 Z M459 578 Q501 578 537 554 Q573 530 595 487 L595 372 Q573 329 537 305 Q501 281 459 281 L311 281 L311 99 L281 99 L281 578 L459 578 Z M311 310 L451 310 Q484 310 514.5 326 Q545 342 565 382 L565 477 Q545 517 514.5 533 Q484 549 451 549 L311 549 L311 310 Z " />
<glyph glyph-name="currency" unicode="&#xa4;" horiz-adv-x="590" d="M459 485 Q473 471 482 455.5 Q491 440 497 426 L497 254 Q491 240 482 224.5 Q473 209 459 195 L510 144 L510 126 L488 126 L439 175 Q413 154 378 140 Q343 126 295 126 Q247 126 212 140 Q177 154 152 175 L103 126 L80 126 L80 144 L131 195 Q117 209 108 224.5 Q99 240 93 254 L93 426 Q99 440 108 455.5 Q117 471 131 485 L80 536 L80 554 L103 554 L152 505 Q177 526 212 540 Q247 554 295 554 Q343 554 378 540 Q413 526 439 505 L488 554 L510 554 L510 536 L459 485 Z M469 416 Q460 437 445 457 Q430 477 408 492.5 Q386 508 358 517 Q330 526 295 526 Q260 526 231.5 517 Q203 508 181.5 492.5 Q160 477 145 457 Q130 437 121 416 L121 264 Q130 243 145 223 Q160 203 181.5 187.5 Q203 172 231.5 163 Q260 154 295 154 Q330 154 358 163 Q386 172 408 187.5 Q430 203 445 223 Q460 243 469 264 L469 416 Z " />
<glyph glyph-name="Euro" unicode="&#x20ac;" horiz-adv-x="590" d="M318 684 Q283 684 253 675 Q223 666 199.5 650.5 Q176 635 159.5 615 Q143 595 134 574 L134 434 L412 434 L412 410 L134 410 L134 310 L412 310 L412 286 L134 286 L134 126 Q143 105 159.5 85 Q176 65 199.5 49.5 Q223 34 253 25 Q283 16 318 16 Q354 16 385 25.5 Q416 35 440.5 52 Q465 69 482 91 Q499 113 508 139 L530 139 L530 116 Q521 95 503.5 72 Q486 49 459 30.5 Q432 12 396.5 0 Q361 -12 318 -12 Q274 -12 239 0 Q204 12 177 30.5 Q150 49 132.5 72 Q115 95 106 116 L106 286 L35 286 L35 310 L106 310 L106 410 L35 410 L35 434 L106 434 L106 584 Q114 604 132 627.5 Q150 651 177 669.5 Q204 688 239 700 Q274 712 318 712 Q361 712 396.5 700 Q432 688 459 669.5 Q486 651 503.5 628.5 Q521 606 530 584 L530 561 L508 561 Q499 586 482 608.5 Q465 631 440.5 648 Q416 665 385 674.5 Q354 684 318 684 Z " />
<glyph glyph-name="dollar" unicode="&#x24;" horiz-adv-x="574" d="M333 366 Q379 354 409 340 Q439 326 458.5 311 Q478 296 489 280.5 Q500 265 507 249 L507 118 Q498 99 481.5 78 Q465 57 440.5 38 Q416 19 381.5 5.5 Q347 -8 301 -11 L301 -97 L273 -97 L273 -12 Q227 -11 188.5 3 Q150 17 122.5 36.5 Q95 56 77.5 78 Q60 100 51 118 L51 143 L74 143 Q82 123 101 99.5 Q120 76 146 58 Q172 40 206 28.5 Q240 17 282 17 Q322 17 355 28 Q388 39 412 55.5 Q436 72 452.5 91.5 Q469 111 477 128 L477 239 Q471 254 461 267.5 Q451 281 434.5 293.5 Q418 306 392 317.5 Q366 329 327 339 L247 360 Q207 370 179 382 Q151 394 131 407.5 Q111 421 98 436 Q85 451 75 468 L75 599 Q87 619 104.5 638.5 Q122 658 146 674 Q170 690 201.5 700 Q233 710 273 712 L273 797 L301 797 L301 712 Q340 710 371 699 Q402 688 426 672 Q450 656 467 637 Q484 618 495 599 L495 574 L472 574 Q449 623 401.5 653 Q354 683 285 683 Q219 683 174.5 656 Q130 629 105 589 L105 478 Q121 447 154 426 Q187 405 254 387 L333 366 Z " />
<glyph glyph-name="cent" unicode="&#xa2;" horiz-adv-x="514" d="M267 518 Q232 518 203.5 509 Q175 500 153.5 484.5 Q132 469 117 449 Q102 429 93 408 L93 126 Q102 105 117 85 Q132 65 153.5 49.5 Q175 34 203.5 25 Q232 16 267 16 Q303 16 332.5 25.5 Q362 35 384 51.5 Q406 68 421.5 90 Q437 112 446 136 L469 136 L469 116 Q461 96 446 74.5 Q431 53 408.5 35 Q386 17 355.5 4.5 Q325 -8 286 -11 L286 -97 L256 -97 L256 -12 Q215 -10 183 2.5 Q151 15 127.5 33.5 Q104 52 88.5 73.5 Q73 95 65 116 L65 418 Q73 439 88.5 460.5 Q104 482 127.5 500.5 Q151 519 183 531.5 Q215 544 256 546 L256 631 L286 631 L286 545 Q325 542 355.5 529.5 Q386 517 408.5 499 Q431 481 446 459.5 Q461 438 469 418 L469 398 L446 398 Q437 422 421.5 443.5 Q406 465 384 481.5 Q362 498 332.5 508 Q303 518 267 518 Z " />
<glyph glyph-name="sterling" unicode="&#xa3;" horiz-adv-x="605" d="M333 684 Q298 684 268 675 Q238 666 214.5 650.5 Q191 635 174.5 615 Q158 595 149 574 L149 366 L430 366 L430 340 L149 340 L149 82 Q143 69 130.5 53.5 Q118 38 103 26 L545 26 L545 0 L50 0 L50 26 Q63 30 85.5 46.5 Q108 63 121 96 L121 340 L50 340 L50 366 L121 366 L121 584 Q130 605 147.5 628 Q165 651 192 669.5 Q219 688 254 700 Q289 712 333 712 Q376 712 411.5 700 Q447 688 474 669.5 Q501 651 518.5 628 Q536 605 545 584 L545 561 L523 561 Q514 586 497 608.5 Q480 631 455.5 648 Q431 665 400 674.5 Q369 684 333 684 Z " />
<glyph glyph-name="florin" unicode="&#x192;" horiz-adv-x="444" d="M356 684 Q320 684 295.5 676 Q271 668 256 656.5 Q241 645 233 632.5 Q225 620 221 611 L221 514 L404 514 L404 490 L221 490 L221 -95 Q215 -107 205 -122 Q195 -137 177.5 -151 Q160 -165 132.5 -174.5 Q105 -184 64 -184 Q42 -184 24.5 -181.5 Q7 -179 0 -177 L0 -156 L58 -156 Q94 -156 118.5 -148 Q143 -140 158 -128.5 Q173 -117 181 -104.5 Q189 -92 193 -83 L193 490 L103 490 L103 514 L193 514 L193 623 Q199 635 209 650 Q219 665 236.5 679 Q254 693 281.5 702.5 Q309 712 350 712 Q372 712 389.5 709.5 Q407 707 414 705 L414 684 L356 684 Z " />
<glyph glyph-name="yen" unicode="&#xa5;" horiz-adv-x="544" d="M287 215 L504 215 L504 191 L287 191 L287 0 L257 0 L257 191 L40 191 L40 215 L257 215 L257 321 L40 321 L40 345 L243 345 L46 672 L46 700 L63 700 L271 352 L273 352 L481 700 L498 700 L498 672 L301 345 L504 345 L504 321 L287 321 L287 215 Z " />
<glyph glyph-name="uni20A8" unicode="&#x20a8;" horiz-adv-x="525" d="M332 676 Q363 659 389.5 631.5 Q416 604 429 569 L429 518 L512 518 L512 494 L429 494 L429 441 Q418 412 397.5 388 Q377 364 352 347 Q327 330 301.5 320.5 Q276 311 255 311 L116 311 L431 18 L431 0 L408 0 L75 311 L75 339 L247 339 Q263 339 285.5 346 Q308 353 330.5 367.5 Q353 382 372 403 Q391 424 401 451 L401 494 L75 494 L75 518 L401 518 L401 559 Q391 586 372 607 Q353 628 330.5 642.5 Q308 657 285.5 664 Q263 671 247 671 L75 671 L75 700 L512 700 L512 676 L332 676 Z " />
<glyph glyph-name="uni20BA" unicode="&#x20ba;" horiz-adv-x="550" d="M490 128 Q481 107 463.5 84 Q446 61 419 42.5 Q392 24 356.5 12 Q321 0 278 0 L111 0 L111 270 L40 236 L40 262 L111 296 L111 402 L40 368 L40 394 L111 428 L111 700 L139 700 L139 442 L369 552 L369 526 L139 416 L139 310 L369 420 L369 394 L139 284 L139 28 L278 28 Q351 28 399.5 62.5 Q448 97 468 151 L490 151 L490 128 Z " />
<glyph glyph-name="uni20BD" unicode="&#x20bd;" horiz-adv-x="551" d="M306 700 Q366 700 415.5 668.5 Q465 637 494 583 L494 427 Q467 376 419 345.5 Q371 315 306 315 L120 315 L120 215 L424 215 L424 191 L120 191 L120 0 L90 0 L90 191 L20 191 L20 215 L90 215 L90 315 L20 315 L20 339 L90 339 L90 700 L306 700 Z M466 573 Q451 600 431.5 619 Q412 638 390 649.5 Q368 661 345 666.5 Q322 672 300 672 L120 672 L120 339 L301 339 Q352 339 396 364 Q440 389 466 437 L466 573 Z " />
<glyph glyph-name="ordfeminine" unicode="&#xaa;" horiz-adv-x="383" d="M188 707 Q217 707 240 699.5 Q263 692 279.5 680 Q296 668 307 653.5 Q318 639 323 625 L323 365 L296 365 L296 401 Q279 383 249.5 370.5 Q220 358 180 358 Q152 358 131 364.5 Q110 371 95.5 379.5 Q81 388 72.5 396.5 Q64 405 60 410 L60 505 Q64 510 72 519 Q80 528 94 536.5 Q108 545 128.5 551.5 Q149 558 177 558 L296 558 L296 618 Q285 645 257 663.5 Q229 682 188 682 Q150 682 125 666.5 Q100 651 88 628 L66 628 L66 648 Q70 654 78.5 663.5 Q87 673 101.5 683 Q116 693 137.5 700 Q159 707 188 707 Z M180 382 Q221 382 251.5 398 Q282 414 296 436 L296 534 L180 534 Q159 534 143 529.5 Q127 525 116.5 519 Q106 513 98.5 506.5 Q91 500 87 495 L87 420 Q91 416 97.5 409.5 Q104 403 115.5 397 Q127 391 142.5 386.5 Q158 382 180 382 Z " />
<glyph glyph-name="ordmasculine" unicode="&#xba;" horiz-adv-x="391" d="M195 707 Q224 707 247 699.5 Q270 692 286.5 680 Q303 668 314.5 653.5 Q326 639 331 625 L331 439 Q325 425 314 411 Q303 397 286.5 385 Q270 373 247 365.5 Q224 358 195 358 Q166 358 143.5 365.5 Q121 373 104.5 385 Q88 397 77 411 Q66 425 60 439 L60 625 Q65 639 76.5 653.5 Q88 668 104.5 680 Q121 692 143.5 699.5 Q166 707 195 707 Z M195 682 Q153 682 125.5 663 Q98 644 88 618 L88 446 Q98 421 125.5 402 Q153 383 195 383 Q238 383 265.5 402 Q293 421 303 446 L303 618 Q293 644 265.5 663 Q238 682 195 682 Z " />
<glyph glyph-name="numbersign" unicode="&#x23;" horiz-adv-x="592" d="M419 239 L514 239 L514 215 L415 215 L380 0 L356 0 L356 18 L388 215 L162 215 L127 0 L103 0 L103 18 L135 215 L40 215 L40 239 L139 239 L173 449 L77 449 L77 473 L176 473 L213 700 L237 700 L237 682 L203 473 L429 473 L466 700 L490 700 L490 682 L456 473 L552 473 L552 449 L452 449 L419 239 Z M200 449 L166 239 L392 239 L426 449 L200 449 Z " />
<glyph glyph-name="uni2116" unicode="&#x2116;" horiz-adv-x="920" d="M737 706 Q772 706 797.5 696.5 Q823 687 841 673.5 Q859 660 871.5 643.5 Q884 627 890 614 L890 433 Q884 420 872 404 Q860 388 842 374 Q824 360 798.5 350.5 Q773 341 738 341 Q703 341 677 350.5 Q651 360 633 374 Q615 388 603 404 Q591 420 585 433 L585 614 Q591 627 603 643.5 Q615 660 632.5 673.5 Q650 687 676 696.5 Q702 706 737 706 Z M425 0 L122 671 L120 671 L120 0 L90 0 L90 700 L142 700 L445 29 L447 29 L447 700 L477 700 L477 0 L425 0 Z M738 681 Q711 681 690 674 Q669 667 654 656 Q639 645 629 632 Q619 619 612 605 L612 442 Q618 429 628.5 416 Q639 403 654 392 Q669 381 690 374 Q711 367 738 367 Q765 367 785.5 374 Q806 381 821 392 Q836 403 846.5 416 Q857 429 863 442 L863 605 Q857 618 846.5 631.5 Q836 645 821 656 Q806 667 785.5 674 Q765 681 738 681 Z M585 247 L585 274 L890 274 L890 247 L585 247 Z " />
<glyph glyph-name="zero" unicode="0" horiz-adv-x="574" d="M287 712 Q330 712 365.5 700 Q401 688 427.5 669.5 Q454 651 472 628.5 Q490 606 499 584 L499 116 Q490 95 472.5 72 Q455 49 428 30.5 Q401 12 365.5 0 Q330 -12 287 -12 Q243 -12 208 0 Q173 12 146 30.5 Q119 49 101.5 72 Q84 95 75 116 L75 584 Q84 606 102 628.5 Q120 651 146.5 669.5 Q173 688 208 700 Q243 712 287 712 Z M287 684 Q252 684 222 675 Q192 666 168.5 650.5 Q145 635 128.5 615.5 Q112 596 103 574 L103 126 Q112 104 128.5 84.5 Q145 65 168.5 49.5 Q192 34 222 25 Q252 16 287 16 Q322 16 352 25 Q382 34 405.5 49.5 Q429 65 445.5 84.5 Q462 104 471 126 L471 574 Q462 596 445.5 615.5 Q429 635 405.5 650.5 Q382 666 352 675 Q322 684 287 684 Z " />
<glyph glyph-name="one" unicode="1" horiz-adv-x="416" d="M355 26 L355 0 L71 0 L71 26 L202 26 L202 663 L70 599 L70 626 L217 700 L230 700 L230 26 L355 26 Z " />
<glyph glyph-name="two" unicode="2" horiz-adv-x="552" d="M272 712 Q315 712 350.5 700 Q386 688 413 669 Q440 650 457.5 627.5 Q475 605 484 584 L484 449 Q469 416 434.5 387 Q400 358 357 331 L242 258 Q203 234 177 214.5 Q151 195 133.5 178.5 Q116 162 105.5 147 Q95 132 88 116 L88 26 L495 26 L495 0 L60 0 L60 128 Q70 146 80.5 161.5 Q91 177 108.5 193.5 Q126 210 154 231 Q182 252 227 281 L338 352 Q383 381 414 407.5 Q445 434 456 460 L456 574 Q447 595 430.5 615 Q414 635 390.5 650 Q367 665 337 674.5 Q307 684 272 684 Q236 684 204.5 673.5 Q173 663 148.5 646 Q124 629 107 606.5 Q90 584 82 560 L60 560 L60 584 Q69 605 86.5 627.5 Q104 650 131 669 Q158 688 193 700 Q228 712 272 712 Z " />
<glyph glyph-name="three" unicode="3" horiz-adv-x="559" d="M262 712 Q305 712 339.5 700.5 Q374 689 399 672 Q424 655 440 636.5 Q456 618 464 604 L464 469 Q458 458 447.5 445 Q437 432 421.5 418.5 Q406 405 385 393 Q364 381 338 373 Q368 365 391.5 352 Q415 339 433.5 322.5 Q452 306 464.5 288 Q477 270 484 254 L484 116 Q475 95 457.5 72.5 Q440 50 413 31 Q386 12 350.5 0 Q315 -12 272 -12 Q228 -12 193 0 Q158 12 131 31 Q104 50 86.5 72.5 Q69 95 60 116 L60 140 L82 140 Q91 115 108 92.5 Q125 70 149.5 53 Q174 36 205 26 Q236 16 272 16 Q307 16 337 25.5 Q367 35 390.5 50 Q414 65 430.5 85 Q447 105 456 126 L456 248 Q447 269 430.5 289 Q414 309 390.5 324.5 Q367 340 337 349.5 Q307 359 272 359 L207 359 L207 384 L262 384 Q297 384 325.5 393 Q354 402 375.5 415.5 Q397 429 412.5 445 Q428 461 436 475 L436 594 Q428 608 412.5 624 Q397 640 375.5 653.5 Q354 667 325.5 675.5 Q297 684 262 684 Q226 684 196.5 674.5 Q167 665 144.5 650 Q122 635 106 616.5 Q90 598 82 580 L60 580 L60 604 Q67 618 83.5 636.5 Q100 655 125 672 Q150 689 184 700.5 Q218 712 262 712 Z " />
<glyph glyph-name="four" unicode="4" horiz-adv-x="549" d="M526 226 L526 200 L418 200 L418 0 L390 0 L390 200 L32 200 L32 226 L372 700 L418 700 L418 226 L526 226 Z M66 226 L390 226 L390 674 L387 674 L66 226 Z " />
<glyph glyph-name="five" unicode="5" horiz-adv-x="564" d="M118 672 L118 393 Q141 417 180.5 437.5 Q220 458 282 458 Q325 458 360.5 446 Q396 434 423 415 Q450 396 467.5 373.5 Q485 351 494 330 L494 116 Q485 95 467.5 72.5 Q450 50 423 31 Q396 12 360.5 0 Q325 -12 282 -12 Q238 -12 203 0 Q168 12 141 31 Q114 50 96.5 72.5 Q79 95 70 116 L70 140 L92 140 Q101 115 118 92.5 Q135 70 159.5 53 Q184 36 215 26 Q246 16 282 16 Q317 16 347 25.5 Q377 35 400.5 50 Q424 65 440.5 85 Q457 105 466 126 L466 320 Q457 341 440.5 361 Q424 381 400.5 396 Q377 411 347 420.5 Q317 430 282 430 Q247 430 220 422 Q193 414 173 402 Q153 390 139.5 377 Q126 364 118 355 L90 355 L90 700 L484 700 L484 672 L118 672 Z " />
<glyph glyph-name="six" unicode="6" horiz-adv-x="569" d="M287 684 Q252 684 222 674.5 Q192 665 168.5 650 Q145 635 128.5 615 Q112 595 103 574 L103 343 Q129 379 174.5 406 Q220 433 287 433 Q330 433 365.5 421 Q401 409 428 390 Q455 371 472.5 348.5 Q490 326 499 305 L499 116 Q490 95 472.5 72.5 Q455 50 428 31 Q401 12 365.5 0 Q330 -12 287 -12 Q243 -12 208 0 Q173 12 146 31 Q119 50 101.5 72.5 Q84 95 75 116 L75 584 Q84 605 101.5 627.5 Q119 650 146 669 Q173 688 208 700 Q243 712 287 712 Q330 712 365.5 700 Q401 688 428 669 Q455 650 472.5 627.5 Q490 605 499 584 L499 560 L477 560 Q469 585 452 607.5 Q435 630 410.5 647 Q386 664 354.5 674 Q323 684 287 684 Z M287 405 Q252 405 222.5 395.5 Q193 386 169.5 371 Q146 356 129 336 Q112 316 103 295 L103 126 Q112 105 128.5 85 Q145 65 168.5 50 Q192 35 222 25.5 Q252 16 287 16 Q322 16 352 25.5 Q382 35 405.5 50 Q429 65 445.5 85 Q462 105 471 126 L471 295 Q462 316 445.5 336 Q429 356 405.5 371 Q382 386 352 395.5 Q322 405 287 405 Z " />
<glyph glyph-name="seven" unicode="7" horiz-adv-x="470" d="M131 0 L113 0 L113 28 L409 672 L15 672 L15 700 L439 700 L439 673 L131 0 Z " />
<glyph glyph-name="eight" unicode="8" horiz-adv-x="576" d="M342 371 Q387 358 416.5 344 Q446 330 464.5 315 Q483 300 494.5 284.5 Q506 269 516 253 L516 118 Q506 100 488 77 Q470 54 442 34.5 Q414 15 376 1.5 Q338 -12 288 -12 Q238 -12 200 1.5 Q162 15 134 34.5 Q106 54 88 77 Q70 100 60 118 L60 253 Q70 270 81 285.5 Q92 301 111 316 Q130 331 160 344.5 Q190 358 237 372 Q201 382 175.5 394 Q150 406 132.5 419.5 Q115 433 103.5 447.5 Q92 462 84 476 L84 599 Q95 619 112.5 639 Q130 659 155 675.5 Q180 692 213 702 Q246 712 288 712 Q329 712 362 702 Q395 692 420 675.5 Q445 659 463 639 Q481 619 492 599 L492 475 Q483 459 471 444.5 Q459 430 442 417.5 Q425 405 400.5 393 Q376 381 342 371 Z M112 484 Q126 458 158 435 Q190 412 252 395 L295 383 Q337 395 366 407 Q395 419 414 431.5 Q433 444 444.5 457 Q456 470 464 484 L464 590 Q442 628 398.5 656 Q355 684 288 684 Q221 684 177.5 656 Q134 628 112 590 L112 484 Z M488 245 Q480 260 469 274 Q458 288 440 301 Q422 314 395 325.5 Q368 337 329 348 L284 360 Q235 348 202 334.5 Q169 321 147 307 Q125 293 111.5 277.5 Q98 262 88 244 L88 128 Q97 111 114 91 Q131 71 156 54.5 Q181 38 214 27 Q247 16 288 16 Q329 16 362 27 Q395 38 420 54.5 Q445 71 462 91 Q479 111 488 128 L488 245 Z " />
<glyph glyph-name="nine" unicode="9" horiz-adv-x="569" d="M282 712 Q325 712 360.5 700 Q396 688 423 669 Q450 650 467.5 627.5 Q485 605 494 584 L494 116 Q485 95 467.5 72.5 Q450 50 423 31 Q396 12 360.5 0 Q325 -12 282 -12 Q238 -12 203 0 Q168 12 141 31 Q114 50 96.5 72.5 Q79 95 70 116 L70 140 L92 140 Q100 115 117 92.5 Q134 70 158.5 53 Q183 36 214.5 26 Q246 16 282 16 Q317 16 347 25.5 Q377 35 400.5 50 Q424 65 440.5 85 Q457 105 466 126 L466 355 Q441 317 393.5 291 Q346 265 282 265 Q238 265 203 277 Q168 289 141 308 Q114 327 96.5 349.5 Q79 372 70 393 L70 584 Q79 605 96.5 627.5 Q114 650 141 669 Q168 688 203 700 Q238 712 282 712 Z M282 293 Q316 293 346 302 Q376 311 399.5 326.5 Q423 342 440 362 Q457 382 466 403 L466 574 Q457 595 440.5 615 Q424 635 400.5 650 Q377 665 347 674.5 Q317 684 282 684 Q247 684 217 674.5 Q187 665 163.5 650 Q140 635 123.5 615 Q107 595 98 574 L98 403 Q107 382 123.5 362 Q140 342 163 327 Q186 312 216.5 302.5 Q247 293 282 293 Z " />
<glyph glyph-name="uni00A0" unicode="&#xa0;" horiz-adv-x="210" d="" />
<glyph glyph-name="fraction" unicode="&#x2044;" horiz-adv-x="145" d="M-170 0 L-190 0 L-190 18 L315 700 L335 700 L335 682 L-170 0 Z " />
<glyph glyph-name="onequarter" unicode="&#xbc;" horiz-adv-x="810" d="M168 0 L148 0 L148 18 L653 700 L673 700 L673 682 L168 0 Z M237 303 L237 280 L51 280 L51 303 L132 303 L132 673 L50 661 L50 681 L143 700 L160 700 L160 303 L237 303 Z M784 139 L784 115 L713 115 L713 0 L685 0 L685 115 L444 115 L444 139 L673 420 L713 420 L713 139 L784 139 Z M476 139 L685 139 L685 394 L683 394 L476 139 Z " />
<glyph glyph-name="onehalf" unicode="&#xbd;" horiz-adv-x="879" d="M238 303 L238 280 L52 280 L52 303 L133 303 L133 673 L51 661 L51 681 L144 700 L161 700 L161 303 L238 303 Z M168 0 L148 0 L148 18 L653 700 L673 700 L673 682 L168 0 Z M686 428 Q716 428 740.5 421 Q765 414 784 402.5 Q803 391 815.5 377 Q828 363 834 349 L834 274 Q824 251 798.5 229.5 Q773 208 744 189 L665 138 Q641 122 624.5 110 Q608 98 597 88 Q586 78 579.5 68.5 Q573 59 569 49 L569 26 L840 26 L840 0 L541 0 L541 57 Q548 69 554.5 79.5 Q561 90 572.5 101.5 Q584 113 603 127.5 Q622 142 653 162 L729 211 Q760 231 779 247 Q798 263 806 282 L806 343 Q795 365 765 384 Q735 403 686 403 Q660 403 639 396.5 Q618 390 602.5 379.5 Q587 369 577 357 Q567 345 563 334 L540 334 L540 354 Q546 365 558.5 378 Q571 391 589.5 402 Q608 413 632 420.5 Q656 428 686 428 Z " />
<glyph glyph-name="threequarters" unicode="&#xbe;" horiz-adv-x="880" d="M227 0 L207 0 L207 18 L712 700 L732 700 L732 682 L227 0 Z M843 139 L843 115 L772 115 L772 0 L744 0 L744 115 L503 115 L503 139 L732 420 L772 420 L772 139 L843 139 Z M535 139 L744 139 L744 394 L742 394 L535 139 Z M194 708 Q224 708 247 701 Q270 694 286.5 683.5 Q303 673 314 662 Q325 651 330 642 L330 559 Q323 547 304.5 530 Q286 513 251 503 Q290 494 312 473.5 Q334 453 343 434 L343 350 Q337 338 324.5 324 Q312 310 293.5 299 Q275 288 250.5 280.5 Q226 273 196 273 Q166 273 141 280 Q116 287 97 298.5 Q78 310 65.5 323 Q53 336 47 348 L47 370 L69 370 Q80 342 114 320 Q148 298 196 298 Q241 298 272.5 316.5 Q304 335 315 358 L315 429 Q304 452 272.5 470.5 Q241 489 196 489 L154 489 L154 514 L190 514 Q235 514 263 531 Q291 548 302 564 L302 634 Q291 649 265 666 Q239 683 194 683 Q168 683 149 677 Q130 671 116 662 Q102 653 92.5 642 Q83 631 77 621 L57 621 L57 643 Q62 651 73 662.5 Q84 674 100.5 684 Q117 694 140.5 701 Q164 708 194 708 Z " />
<glyph glyph-name="fiveeighths" unicode="&#x215d;" horiz-adv-x="961" d="M820 221 Q855 210 876.5 190.5 Q898 171 907 152 L907 70 Q901 57 888.5 43.5 Q876 30 857.5 18.5 Q839 7 814.5 0 Q790 -7 760 -7 Q730 -7 705.5 0 Q681 7 662.5 18.5 Q644 30 631.5 43.5 Q619 57 613 70 L613 152 Q622 171 643.5 190.5 Q665 210 700 221 Q668 232 649 248.5 Q630 265 622 277 L622 363 Q627 371 638 382.5 Q649 394 666 404 Q683 414 706.5 421 Q730 428 760 428 Q790 428 813.5 421 Q837 414 854 404 Q871 394 882 382.5 Q893 371 898 363 L898 277 Q890 265 871 248.5 Q852 232 820 221 Z M650 282 Q661 266 688 249.5 Q715 233 760 233 Q805 233 832 249.5 Q859 266 870 282 L870 354 Q859 369 832 386 Q805 403 760 403 Q715 403 688 386 Q661 369 650 354 L650 282 Z M878 149 Q867 172 836 190.5 Q805 209 760 209 Q715 209 683.5 190.5 Q652 172 641 149 L641 78 Q652 55 683.5 36 Q715 17 760 17 Q805 17 836 36 Q867 55 878 78 L878 149 Z M93 674 L93 517 Q110 532 136.5 543.5 Q163 555 203 555 Q232 555 255.5 548 Q279 541 297 530 Q315 519 327 505.5 Q339 492 345 480 L345 348 Q339 336 326.5 323 Q314 310 295.5 298.5 Q277 287 252.5 280 Q228 273 198 273 Q167 273 142.5 280 Q118 287 99.5 298.5 Q81 310 68.5 323 Q56 336 50 348 L50 370 L72 370 Q85 339 119 318.5 Q153 298 198 298 Q243 298 275 316.5 Q307 335 318 358 L318 470 Q307 493 275.5 512 Q244 531 199 531 Q154 531 128.5 515 Q103 499 93 487 L66 487 L66 700 L339 700 L339 674 L93 674 Z M240 0 L220 0 L220 18 L725 700 L745 700 L745 682 L240 0 Z " />
<glyph glyph-name="oneeighth" unicode="&#x215b;" horiz-adv-x="885" d="M170 0 L150 0 L150 18 L655 700 L675 700 L675 682 L170 0 Z M237 303 L237 280 L51 280 L51 303 L132 303 L132 673 L50 661 L50 681 L143 700 L160 700 L160 303 L237 303 Z M751 221 Q786 210 807.5 190.5 Q829 171 838 152 L838 70 Q832 57 819.5 43.5 Q807 30 788.5 18.5 Q770 7 745.5 0 Q721 -7 691 -7 Q661 -7 636.5 0 Q612 7 593.5 18.5 Q575 30 562.5 43.5 Q550 57 544 70 L544 152 Q553 171 574.5 190.5 Q596 210 631 221 Q599 232 580 248.5 Q561 265 553 277 L553 363 Q558 371 569 382.5 Q580 394 597 404 Q614 414 637.5 421 Q661 428 691 428 Q721 428 744.5 421 Q768 414 785 404 Q802 394 813 382.5 Q824 371 829 363 L829 277 Q821 265 802 248.5 Q783 232 751 221 Z M581 282 Q592 266 619 249.5 Q646 233 691 233 Q736 233 763 249.5 Q790 266 801 282 L801 354 Q790 369 763 386 Q736 403 691 403 Q646 403 619 386 Q592 369 581 354 L581 282 Z M809 149 Q798 172 767 190.5 Q736 209 691 209 Q646 209 614.5 190.5 Q583 172 572 149 L572 78 Q583 55 614.5 36 Q646 17 691 17 Q736 17 767 36 Q798 55 809 78 L809 149 Z " />
<glyph glyph-name="seveneighths" unicode="&#x215e;" horiz-adv-x="898" d="M771 221 Q806 210 827.5 190.5 Q849 171 858 152 L858 70 Q852 57 839.5 43.5 Q827 30 808.5 18.5 Q790 7 765.5 0 Q741 -7 711 -7 Q681 -7 656.5 0 Q632 7 613.5 18.5 Q595 30 582.5 43.5 Q570 57 564 70 L564 152 Q573 171 594.5 190.5 Q616 210 651 221 Q619 232 600 248.5 Q581 265 573 277 L573 363 Q578 371 589 382.5 Q600 394 617 404 Q634 414 657.5 421 Q681 428 711 428 Q741 428 764.5 421 Q788 414 805 404 Q822 394 833 382.5 Q844 371 849 363 L849 277 Q841 265 822 248.5 Q803 232 771 221 Z M601 282 Q612 266 639 249.5 Q666 233 711 233 Q756 233 783 249.5 Q810 266 821 282 L821 354 Q810 369 783 386 Q756 403 711 403 Q666 403 639 386 Q612 369 601 354 L601 282 Z M829 149 Q818 172 787 190.5 Q756 209 711 209 Q666 209 634.5 190.5 Q603 172 592 149 L592 78 Q603 55 634.5 36 Q666 17 711 17 Q756 17 787 36 Q818 55 829 78 L829 149 Z M137 280 L117 280 L117 302 L303 672 L303 674 L43 674 L43 700 L334 700 L334 677 L137 280 Z M165 0 L145 0 L145 18 L650 700 L670 700 L670 682 L165 0 Z " />
<glyph glyph-name="threeeighths" unicode="&#x215c;" horiz-adv-x="935" d="M813 221 Q848 210 869.5 190.5 Q891 171 900 152 L900 70 Q894 57 881.5 43.5 Q869 30 850.5 18.5 Q832 7 807.5 0 Q783 -7 753 -7 Q723 -7 698.5 0 Q674 7 655.5 18.5 Q637 30 624.5 43.5 Q612 57 606 70 L606 152 Q615 171 636.5 190.5 Q658 210 693 221 Q661 232 642 248.5 Q623 265 615 277 L615 363 Q620 371 631 382.5 Q642 394 659 404 Q676 414 699.5 421 Q723 428 753 428 Q783 428 806.5 421 Q830 414 847 404 Q864 394 875 382.5 Q886 371 891 363 L891 277 Q883 265 864 248.5 Q845 232 813 221 Z M643 282 Q654 266 681 249.5 Q708 233 753 233 Q798 233 825 249.5 Q852 266 863 282 L863 354 Q852 369 825 386 Q798 403 753 403 Q708 403 681 386 Q654 369 643 354 L643 282 Z M871 149 Q860 172 829 190.5 Q798 209 753 209 Q708 209 676.5 190.5 Q645 172 634 149 L634 78 Q645 55 676.5 36 Q708 17 753 17 Q798 17 829 36 Q860 55 871 78 L871 149 Z M197 708 Q227 708 250 701 Q273 694 289.5 683.5 Q306 673 317 662 Q328 651 333 642 L333 559 Q326 547 307.5 530 Q289 513 254 503 Q293 494 315 473.5 Q337 453 346 434 L346 350 Q340 338 327.5 324 Q315 310 296.5 299 Q278 288 253.5 280.5 Q229 273 199 273 Q169 273 144 280 Q119 287 100 298.5 Q81 310 68.5 323 Q56 336 50 348 L50 370 L72 370 Q83 342 117 320 Q151 298 199 298 Q244 298 275.5 316.5 Q307 335 318 358 L318 429 Q307 452 275.5 470.5 Q244 489 199 489 L157 489 L157 514 L193 514 Q238 514 266 531 Q294 548 305 564 L305 634 Q294 649 268 666 Q242 683 197 683 Q171 683 152 677 Q133 671 119 662 Q105 653 95.5 642 Q86 631 80 621 L60 621 L60 643 Q65 651 76 662.5 Q87 674 103.5 684 Q120 694 143.5 701 Q167 708 197 708 Z M233 0 L213 0 L213 18 L718 700 L738 700 L738 682 L233 0 Z " />
<glyph glyph-name="twothirds" unicode="&#x2154;" horiz-adv-x="999" d="M812 428 Q842 428 865 421 Q888 414 904.5 403.5 Q921 393 932 382 Q943 371 948 362 L948 279 Q941 267 922.5 250 Q904 233 869 223 Q908 214 930 193.5 Q952 173 961 154 L961 70 Q955 58 942.5 44 Q930 30 911.5 19 Q893 8 868.5 0.5 Q844 -7 814 -7 Q784 -7 759 0 Q734 7 715 18.5 Q696 30 683.5 43 Q671 56 665 68 L665 90 L687 90 Q698 62 732 40 Q766 18 814 18 Q859 18 890.5 36.5 Q922 55 933 78 L933 149 Q922 172 890.5 190.5 Q859 209 814 209 L772 209 L772 234 L808 234 Q853 234 881 251 Q909 268 920 284 L920 354 Q909 369 883 386 Q857 403 812 403 Q786 403 767 397 Q748 391 734 382 Q720 373 710.5 362 Q701 351 695 341 L675 341 L675 363 Q680 371 691 382.5 Q702 394 718.5 404 Q735 414 758.5 421 Q782 428 812 428 Z M197 708 Q227 708 251.5 701 Q276 694 295 682.5 Q314 671 326.5 657 Q339 643 345 629 L345 554 Q335 531 309.5 509.5 Q284 488 255 469 L176 418 Q152 402 135.5 390 Q119 378 108 368 Q97 358 90.5 348.5 Q84 339 80 329 L80 306 L351 306 L351 280 L52 280 L52 337 Q59 349 65.5 359.5 Q72 370 83.5 381.5 Q95 393 114 407.5 Q133 422 164 442 L240 491 Q271 511 290 527 Q309 543 317 562 L317 623 Q306 645 276 664 Q246 683 197 683 Q171 683 150 676.5 Q129 670 113.5 659.5 Q98 649 88 637 Q78 625 74 614 L51 614 L51 634 Q57 645 69.5 658 Q82 671 100.5 682 Q119 693 143 700.5 Q167 708 197 708 Z M272 0 L252 0 L252 18 L757 700 L777 700 L777 682 L272 0 Z " />
<glyph glyph-name="uniE000" unicode="&#xe000;" horiz-adv-x="985" d="M244 0 L224 0 L224 18 L729 700 L749 700 L749 682 L244 0 Z M209 683 Q164 683 132.5 664.5 Q101 646 90 623 L90 493 Q109 513 139 527 Q169 541 212 541 Q241 541 265 534 Q289 527 307 516 Q325 505 337 491.5 Q349 478 355 466 L355 348 Q349 336 337 323 Q325 310 306.5 298.5 Q288 287 263.5 280 Q239 273 209 273 Q179 273 154.5 280 Q130 287 111.5 298.5 Q93 310 80.5 323.5 Q68 337 62 350 L62 631 Q68 643 80.5 657 Q93 671 111.5 682 Q130 693 154.5 700.5 Q179 708 209 708 Q239 708 263.5 701 Q288 694 306.5 682.5 Q325 671 337 658 Q349 645 355 633 L355 614 L332 614 Q321 642 289 662.5 Q257 683 209 683 Z M209 517 Q165 517 134.5 499.5 Q104 482 90 459 L90 358 Q101 335 132.5 316 Q164 297 209 297 Q254 297 285 316 Q316 335 327 358 L327 456 Q316 479 285 498 Q254 517 209 517 Z M825 221 Q860 210 881.5 190.5 Q903 171 912 152 L912 70 Q906 57 893.5 43.5 Q881 30 862.5 18.5 Q844 7 819.5 0 Q795 -7 765 -7 Q735 -7 710.5 0 Q686 7 667.5 18.5 Q649 30 636.5 43.5 Q624 57 618 70 L618 152 Q627 171 648.5 190.5 Q670 210 705 221 Q673 232 654 248.5 Q635 265 627 277 L627 363 Q632 371 643 382.5 Q654 394 671 404 Q688 414 711.5 421 Q735 428 765 428 Q795 428 818.5 421 Q842 414 859 404 Q876 394 887 382.5 Q898 371 903 363 L903 277 Q895 265 876 248.5 Q857 232 825 221 Z M655 282 Q666 266 693 249.5 Q720 233 765 233 Q810 233 837 249.5 Q864 266 875 282 L875 354 Q864 369 837 386 Q810 403 765 403 Q720 403 693 386 Q666 369 655 354 L655 282 Z M883 149 Q872 172 841 190.5 Q810 209 765 209 Q720 209 688.5 190.5 Q657 172 646 149 L646 78 Q657 55 688.5 36 Q720 17 765 17 Q810 17 841 36 Q872 55 883 78 L883 149 Z " />
<glyph glyph-name="uniE001" unicode="&#xe001;" horiz-adv-x="1260" d="M237 303 L237 280 L51 280 L51 303 L132 303 L132 673 L50 661 L50 681 L143 700 L160 700 L160 303 L237 303 Z M1064 403 Q1019 403 987.5 384.5 Q956 366 945 343 L945 213 Q964 233 994 247 Q1024 261 1067 261 Q1096 261 1120 254 Q1144 247 1162 236 Q1180 225 1192 211.5 Q1204 198 1210 186 L1210 68 Q1204 56 1192 43 Q1180 30 1161.5 18.5 Q1143 7 1118.5 0 Q1094 -7 1064 -7 Q1034 -7 1009.5 0 Q985 7 966.5 18.5 Q948 30 935.5 43.5 Q923 57 917 70 L917 351 Q923 363 935.5 377 Q948 391 966.5 402 Q985 413 1009.5 420.5 Q1034 428 1064 428 Q1094 428 1118.5 421 Q1143 414 1161.5 402.5 Q1180 391 1192 378 Q1204 365 1210 353 L1210 334 L1187 334 Q1176 362 1144 382.5 Q1112 403 1064 403 Z M1064 237 Q1020 237 989.5 219.5 Q959 202 945 179 L945 78 Q956 55 987.5 36 Q1019 17 1064 17 Q1109 17 1140 36 Q1171 55 1182 78 L1182 176 Q1171 199 1140 218 Q1109 237 1064 237 Z M184 0 L164 0 L164 18 L669 700 L689 700 L689 682 L184 0 Z M807 23 L807 0 L621 0 L621 23 L702 23 L702 393 L620 381 L620 401 L713 420 L730 420 L730 23 L807 23 Z " />
<glyph glyph-name="percent" unicode="&#x25;" horiz-adv-x="863" d="M197 708 Q227 708 251.5 700.5 Q276 693 294.5 681.5 Q313 670 325.5 656 Q338 642 344 629 L344 431 Q338 418 325.5 404 Q313 390 294.5 379 Q276 368 251.5 360.5 Q227 353 197 353 Q167 353 142.5 360.5 Q118 368 99.5 379 Q81 390 68.5 404 Q56 418 50 431 L50 629 Q56 642 68.5 656 Q81 670 99.5 681.5 Q118 693 142.5 700.5 Q167 708 197 708 Z M189 0 L169 0 L169 18 L674 700 L694 700 L694 682 L189 0 Z M197 683 Q152 683 120.5 664.5 Q89 646 78 622 L78 438 Q89 415 120.5 396.5 Q152 378 197 378 Q242 378 273 396.5 Q304 415 315 438 L315 622 Q304 646 273 664.5 Q242 683 197 683 Z M666 348 Q696 348 720.5 340.5 Q745 333 763.5 321.5 Q782 310 794.5 296 Q807 282 813 269 L813 71 Q807 58 794.5 44 Q782 30 763.5 19 Q745 8 720.5 0.5 Q696 -7 666 -7 Q636 -7 611.5 0.5 Q587 8 568.5 19 Q550 30 537.5 44 Q525 58 519 71 L519 269 Q525 282 537.5 296 Q550 310 568.5 321.5 Q587 333 611.5 340.5 Q636 348 666 348 Z M666 323 Q621 323 589.5 304.5 Q558 286 547 262 L547 78 Q558 55 589.5 36.5 Q621 18 666 18 Q711 18 742 36.5 Q773 55 784 78 L784 262 Q773 286 742 304.5 Q711 323 666 323 Z " />
<glyph glyph-name="perthousand" unicode="&#x2030;" horiz-adv-x="1233" d="M197 708 Q227 708 251.5 700.5 Q276 693 294.5 681.5 Q313 670 325.5 656 Q338 642 344 629 L344 431 Q338 418 325.5 404 Q313 390 294.5 379 Q276 368 251.5 360.5 Q227 353 197 353 Q167 353 142.5 360.5 Q118 368 99.5 379 Q81 390 68.5 404 Q56 418 50 431 L50 629 Q56 642 68.5 656 Q81 670 99.5 681.5 Q118 693 142.5 700.5 Q167 708 197 708 Z M189 0 L169 0 L169 18 L674 700 L694 700 L694 682 L189 0 Z M197 683 Q152 683 120.5 664.5 Q89 646 78 622 L78 438 Q89 415 120.5 396.5 Q152 378 197 378 Q242 378 273 396.5 Q304 415 315 438 L315 622 Q304 646 273 664.5 Q242 683 197 683 Z M666 348 Q696 348 720.5 340.5 Q745 333 763.5 321.5 Q782 310 794.5 296 Q807 282 813 269 L813 71 Q807 58 794.5 44 Q782 30 763.5 19 Q745 8 720.5 0.5 Q696 -7 666 -7 Q636 -7 611.5 0.5 Q587 8 568.5 19 Q550 30 537.5 44 Q525 58 519 71 L519 269 Q525 282 537.5 296 Q550 310 568.5 321.5 Q587 333 611.5 340.5 Q636 348 666 348 Z M1036 348 Q1066 348 1090.5 340.5 Q1115 333 1133.5 321.5 Q1152 310 1164.5 296 Q1177 282 1183 269 L1183 71 Q1177 58 1164.5 44 Q1152 30 1133.5 19 Q1115 8 1090.5 0.5 Q1066 -7 1036 -7 Q1006 -7 981.5 0.5 Q957 8 938.5 19 Q920 30 907.5 44 Q895 58 889 71 L889 269 Q895 282 907.5 296 Q920 310 938.5 321.5 Q957 333 981.5 340.5 Q1006 348 1036 348 Z M666 323 Q621 323 589.5 304.5 Q558 286 547 262 L547 78 Q558 55 589.5 36.5 Q621 18 666 18 Q711 18 742 36.5 Q773 55 784 78 L784 262 Q773 286 742 304.5 Q711 323 666 323 Z M1036 323 Q991 323 959.5 304.5 Q928 286 917 262 L917 78 Q928 55 959.5 36.5 Q991 18 1036 18 Q1081 18 1112 36.5 Q1143 55 1154 78 L1154 262 Q1143 286 1112 304.5 Q1081 323 1036 323 Z " />
<glyph glyph-name="plus" unicode="&#x2b;" horiz-adv-x="580" d="M303 327 L303 100 L276 100 L276 327 L50 327 L50 354 L276 354 L276 580 L303 580 L303 354 L530 354 L530 327 L303 327 Z " />
<glyph glyph-name="minus" unicode="&#x2212;" horiz-adv-x="580" d="M50 327 L50 354 L530 354 L530 327 L50 327 Z " />
<glyph glyph-name="plusminus" unicode="&#xb1;" horiz-adv-x="580" d="M530 357 L303 357 L303 150 L276 150 L276 357 L50 357 L50 384 L276 384 L276 590 L303 590 L303 384 L530 384 L530 357 Z M530 64 L530 37 L50 37 L50 64 L530 64 Z " />
<glyph glyph-name="multiply" unicode="&#xd7;" horiz-adv-x="580" d="M308 340 L504 144 L504 126 L484 126 L289 321 L94 126 L74 126 L74 144 L270 340 L74 536 L74 554 L94 554 L289 359 L484 554 L504 554 L504 536 L308 340 Z " />
<glyph glyph-name="divide" unicode="&#xf7;" horiz-adv-x="580" d="M50 327 L50 354 L530 354 L530 327 L50 327 Z M290 210 Q299 210 305.5 207 Q312 204 314 201 L314 167 Q312 164 305.5 161 Q299 158 290 158 Q281 158 274.5 161 Q268 164 266 167 L266 201 Q268 204 274.5 207 Q281 210 290 210 Z M290 526 Q299 526 305.5 523 Q312 520 314 517 L314 483 Q312 480 305.5 477 Q299 474 290 474 Q281 474 274.5 477 Q268 480 266 483 L266 517 Q268 520 274.5 523 Q281 526 290 526 Z " />
<glyph glyph-name="equal" unicode="&#x3d;" horiz-adv-x="580" d="M50 227 L50 254 L530 254 L530 227 L50 227 Z M50 427 L50 454 L530 454 L530 427 L50 427 Z " />
<glyph glyph-name="notequal" unicode="&#x2260;" horiz-adv-x="580" d="M267 254 L530 254 L530 227 L256 227 L203 100 L176 100 L229 227 L50 227 L50 254 L240 254 L312 427 L50 427 L50 454 L324 454 L376 580 L403 580 L351 454 L530 454 L530 427 L339 427 L267 254 Z " />
<glyph glyph-name="approxequal" unicode="&#x2248;" horiz-adv-x="580" d="M169 283 Q205 283 239 275 Q273 267 306 257.5 Q339 248 371.5 240 Q404 232 437 232 Q462 232 482.5 239 Q503 246 518 254 Q536 264 549 276 L549 240 Q536 230 519 223 Q505 216 484.5 211 Q464 206 438 206 Q399 206 365 214 Q331 222 298.5 231.5 Q266 241 234 249 Q202 257 167 257 Q138 257 113 249 Q88 241 70 231 Q49 220 31 206 L31 237 Q47 249 68 260 Q86 268 111.5 275.5 Q137 283 169 283 Z M169 483 Q205 483 239 475 Q273 467 306 457.5 Q339 448 371.5 440 Q404 432 437 432 Q462 432 482.5 439 Q503 446 518 454 Q536 464 549 476 L549 440 Q536 430 519 423 Q505 416 484.5 411 Q464 406 438 406 Q399 406 365 414 Q331 422 298.5 431.5 Q266 441 234 449 Q202 457 167 457 Q138 457 113 449 Q88 441 70 431 Q49 420 31 406 L31 437 Q47 449 68 460 Q86 468 111.5 475.5 Q137 483 169 483 Z " />
<glyph glyph-name="less" unicode="&#x3c;" horiz-adv-x="580" d="M79 302 L545 93 L545 71 L525 71 L35 294 L35 311 L525 534 L545 534 L545 512 L79 302 Z " />
<glyph glyph-name="greater" unicode="&#x3e;" horiz-adv-x="580" d="M545 294 L55 71 L35 71 L35 93 L501 302 L35 512 L35 534 L55 534 L545 311 L545 294 Z " />
<glyph glyph-name="lessequal" unicode="&#x2264;" horiz-adv-x="580" d="M101 338 L530 163 L530 141 L510 141 L50 329 L50 346 L510 534 L530 534 L530 512 L101 338 Z M50 37 L50 64 L530 64 L530 37 L50 37 Z " />
<glyph glyph-name="greaterequal" unicode="&#x2265;" horiz-adv-x="580" d="M530 329 L70 141 L50 141 L50 163 L479 338 L50 512 L50 534 L70 534 L530 346 L530 329 Z M50 37 L50 64 L530 64 L530 37 L50 37 Z " />
<glyph glyph-name="logicalnot" unicode="&#xac;" horiz-adv-x="580" d="M503 100 L503 327 L50 327 L50 354 L530 354 L530 100 L503 100 Z " />
<glyph glyph-name="Delta" unicode="&#x2206;" horiz-adv-x="589" d="M554 0 L35 0 L35 28 L272 700 L316 700 L554 28 L554 0 Z M295 671 L292 671 L66 29 L522 29 L295 671 Z " />
<glyph glyph-name="Omega" unicode="&#x2126;" horiz-adv-x="626" d="M399 29 L551 29 L551 0 L357 0 L357 46 Q419 56 460.5 94 Q502 132 521 178 L521 552 Q499 608 444.5 646 Q390 684 313 684 Q236 684 181.5 646 Q127 608 105 552 L105 178 Q124 132 165 94.5 Q206 57 270 46 L270 0 L75 0 L75 29 L225 29 Q170 47 131.5 84.5 Q93 122 75 167 L75 562 Q101 624 160.5 668.5 Q220 713 313 713 Q406 713 465.5 668.5 Q525 624 551 562 L551 167 Q533 122 493.5 84.5 Q454 47 399 29 Z " />
<glyph glyph-name="mu" unicode="&#xb5;" horiz-adv-x="534" d="M454 0 L426 0 L426 50 Q403 27 361.5 7.5 Q320 -12 257 -12 Q198 -12 161 6.5 Q124 25 103 45 L103 -166 L75 -166 L75 534 L103 534 L103 89 Q110 80 122 67.5 Q134 55 152.5 43.5 Q171 32 196.5 24 Q222 16 257 16 Q323 16 363 38 Q403 60 426 87 L426 534 L454 534 L454 0 Z " />
<glyph glyph-name="pi" unicode="&#x3c0;" horiz-adv-x="713" d="M475 510 L475 94 Q479 85 487 72.5 Q495 60 510 48.5 Q525 37 549.5 29 Q574 21 610 21 Q627 21 643 22 Q659 23 668 25 L668 -1 Q662 -3 644 -5 Q626 -7 604 -7 Q563 -7 535.5 2.5 Q508 12 490.5 26 Q473 40 463 55 Q453 70 447 82 L447 510 L172 510 L172 0 L144 0 L144 510 L45 510 L45 534 L668 534 L668 510 L475 510 Z " />
<glyph glyph-name="degree" unicode="&#xb0;" horiz-adv-x="362" d="M181 807 Q211 807 235 799 Q259 791 276.5 780 Q294 769 305.5 756.5 Q317 744 322 734 L322 607 Q317 597 305.5 584.5 Q294 572 276.5 560.5 Q259 549 235 541.5 Q211 534 181 534 Q151 534 127 541.5 Q103 549 85.5 560.5 Q68 572 56.5 584.5 Q45 597 40 607 L40 734 Q45 744 56.5 756.5 Q68 769 85.5 780 Q103 791 127 799 Q151 807 181 807 Z M181 781 Q157 781 138.5 775.5 Q120 770 105.5 762 Q91 754 81 744 Q71 734 65 724 L65 617 Q77 597 105.5 578.5 Q134 560 181 560 Q228 560 256.5 578.5 Q285 597 297 617 L297 724 Q285 744 256.5 762.5 Q228 781 181 781 Z " />
<glyph glyph-name="infinity" unicode="&#x221e;" horiz-adv-x="790" d="M563 518 Q593 518 617.5 510.5 Q642 503 660.5 491.5 Q679 480 691.5 466 Q704 452 710 439 L710 257 Q704 244 691.5 230 Q679 216 660.5 204.5 Q642 193 617.5 185.5 Q593 178 563 178 Q533 178 510 185.5 Q487 193 469.5 204.5 Q452 216 439.5 230 Q427 244 417 257 L395 313 L372 257 Q362 244 349.5 230 Q337 216 320 204.5 Q303 193 280 185.5 Q257 178 227 178 Q197 178 172.5 185.5 Q148 193 129.5 204.5 Q111 216 98.5 230 Q86 244 80 257 L80 439 Q86 452 98.5 466 Q111 480 129.5 491.5 Q148 503 172.5 510.5 Q197 518 227 518 Q257 518 280 510.5 Q303 503 320 491.5 Q337 480 349.5 466 Q362 452 372 439 L395 383 L417 439 Q427 452 439.5 466 Q452 480 469.5 491.5 Q487 503 510 510.5 Q533 518 563 518 Z M347 432 Q328 456 300 474.5 Q272 493 227 493 Q182 493 150.5 474.5 Q119 456 108 432 L108 264 Q119 240 150.5 221.5 Q182 203 227 203 Q272 203 300 221.5 Q328 240 347 264 L381 348 L347 432 Z M681 432 Q670 456 639 474.5 Q608 493 563 493 Q518 493 489.5 474.5 Q461 456 442 432 L408 348 L442 264 Q461 240 489.5 221.5 Q518 203 563 203 Q608 203 639 221.5 Q670 240 681 264 L681 432 Z " />
<glyph glyph-name="partialdiff" unicode="&#x2202;" horiz-adv-x="534" d="M177 729 Q226 712 273.5 686 Q321 660 361 629.5 Q401 599 429.5 566 Q458 533 470 502 L470 116 Q461 95 445 72 Q429 49 404 30.5 Q379 12 345 0 Q311 -12 268 -12 Q224 -12 190.5 0 Q157 12 132 30.5 Q107 49 91 72 Q75 95 66 116 L66 368 Q75 389 91 412 Q107 435 132 453.5 Q157 472 190.5 484 Q224 496 268 496 Q328 496 372.5 471.5 Q417 447 442 413 L442 492 Q429 524 400 556.5 Q371 589 332 617.5 Q293 646 247 670 Q201 694 155 710 L177 729 Z M268 468 Q233 468 204.5 459 Q176 450 154.5 434.5 Q133 419 118 399 Q103 379 94 358 L94 126 Q103 105 118 85 Q133 65 154.5 49.5 Q176 34 204.5 25 Q233 16 268 16 Q303 16 331 25 Q359 34 381 49.5 Q403 65 418 85 Q433 105 442 126 L442 358 Q433 379 417.5 399 Q402 419 380.5 434 Q359 449 331 458.5 Q303 468 268 468 Z " />
<glyph glyph-name="integral" unicode="&#x222b;" horiz-adv-x="454" d="M370 712 Q392 712 409.5 709.5 Q427 707 434 705 L434 684 L376 684 Q340 684 315.5 676 Q291 668 276 656.5 Q261 645 253 632.5 Q245 620 241 611 L241 -95 Q235 -107 225 -122 Q215 -137 197.5 -151 Q180 -165 152.5 -174.5 Q125 -184 84 -184 Q62 -184 44.5 -181.5 Q27 -179 20 -177 L20 -156 L78 -156 Q114 -156 138.5 -148 Q163 -140 178 -128.5 Q193 -117 201 -104.5 Q209 -92 213 -83 L213 623 Q219 635 229 650 Q239 665 256.5 679 Q274 693 301.5 702.5 Q329 712 370 712 Z " />
<glyph glyph-name="radical" unicode="&#x221a;" horiz-adv-x="578" d="M548 682 L303 0 L268 0 L82 509 L20 509 L20 534 L103 534 L285 36 L288 36 L524 700 L548 700 L548 682 Z " />
<glyph glyph-name="summation" unicode="&#x2211;" horiz-adv-x="558" d="M330 314 L330 289 L90 -73 L503 -73 L503 -100 L55 -100 L55 -76 L304 301 L55 676 L55 700 L503 700 L503 673 L91 673 L330 314 Z " />
<glyph glyph-name="product" unicode="&#x220f;" horiz-adv-x="656" d="M526 -100 L526 673 L130 673 L130 -100 L100 -100 L100 700 L556 700 L556 -100 L526 -100 Z " />
<glyph glyph-name="lozenge" unicode="&#x25ca;" horiz-adv-x="561" d="M301 0 L270 0 L60 350 L270 700 L301 700 L511 350 L301 0 Z M285 25 L478 350 L285 675 L93 350 L285 25 Z " />
<glyph glyph-name="arrowleft" unicode="&#x2190;" horiz-adv-x="760" d="M0 364 L335 700 L350 700 L350 674 L40 364 L760 364 L760 335 L41 335 L350 26 L350 0 L335 0 L0 335 L0 364 Z " />
<glyph glyph-name="arrowright" unicode="&#x2192;" horiz-adv-x="760" d="M760 335 L425 0 L410 0 L410 26 L719 335 L0 335 L0 364 L720 364 L410 674 L410 700 L425 700 L760 364 L760 335 Z " />
<glyph glyph-name="arrowup" unicode="&#x2191;" horiz-adv-x="760" d="M730 410 L705 410 L396 720 L396 0 L366 0 L366 720 L55 410 L30 410 L30 424 L366 760 L396 760 L730 424 L730 410 Z " />
<glyph glyph-name="arrowdown" unicode="&#x2193;" horiz-adv-x="760" d="M730 276 L396 -60 L366 -60 L30 276 L30 290 L55 290 L366 -20 L366 700 L396 700 L396 -20 L705 290 L730 290 L730 276 Z " />
</font>
</svg>
