<?xml version="1.0" encoding="UTF-8"?>
<svg xmlns="http://www.w3.org/2000/svg" xmlns:xlink="http://www.w3.org/1999/xlink" version="1.2" >
<font id="Cadillac Sans Light Italic">
<font-face  font-family="Cadillac Sans" units-per-em="1000" ascent="750" descent="-250" font-style="italic" font-weight="300" font-stretch="normal" slope="-12" cap-height="700" x-height="536" underline-position="-75" underline-thickness="50" />
<missing-glyph  horiz-adv-x="597" d="M428 -100 L11 -100 L204 800 L620 800 L428 -100 Z M243 757 L69 -57 L388 -57 L562 757 L243 757 Z " />
<glyph glyph-name=".null" d="" />
<glyph glyph-name="nonmarkingreturn" unicode="&#xd;" horiz-adv-x="196" d="" />
<glyph glyph-name="space" unicode="&#x20;" horiz-adv-x="208" d="" />
<glyph glyph-name="A" unicode="A" horiz-adv-x="598" d="M516 42 L507 0 L462 0 L436 217 L143 217 L24 0 L-25 0 L-16 42 L349 700 L433 700 L516 42 Z M429 267 L382 648 L379 648 L171 267 L429 267 Z " />
<glyph glyph-name="B" unicode="B" horiz-adv-x="581" d="M435 361 Q466 350 492.5 326.5 Q519 303 530 273 L497 118 Q465 66 409.5 33 Q354 0 284 0 L25 0 L175 700 L401 700 Q469 700 516.5 666.5 Q564 633 581 583 L553 453 Q535 423 502.5 399 Q470 375 435 361 Z M521 567 Q509 606 474 628 Q439 650 386 650 L225 650 L168 386 L345 386 Q385 386 428.5 408.5 Q472 431 500 469 L521 567 Z M331 337 L157 337 L96 50 L261 50 Q329 50 371.5 73.5 Q414 97 445 140 L471 259 Q458 294 420 315.5 Q382 337 331 337 Z " />
<glyph glyph-name="C" unicode="C" horiz-adv-x="606" d="M620 565 L612 527 L566 527 Q560 585 515 624 Q470 663 395 663 Q324 663 271.5 629 Q219 595 188 545 L104 151 Q113 103 155.5 70.5 Q198 38 267 38 Q341 38 395 74.5 Q449 111 483 173 L536 173 L527 136 Q493 74 428 30.5 Q363 -13 266 -13 Q199 -13 151 9.5 Q103 32 76 67 Q49 102 41 139 L132 562 Q166 623 233 668 Q300 713 396 713 Q462 713 510 690.5 Q558 668 585 634 Q612 600 620 565 Z " />
<glyph glyph-name="D" unicode="D" horiz-adv-x="623" d="M618 562 L527 138 Q492 78 424 39 Q356 0 261 0 L25 0 L175 700 L400 700 Q496 700 550.5 659.5 Q605 619 618 562 Z M225 650 L96 50 L259 50 Q330 50 384.5 80.5 Q439 111 470 158 L555 548 Q545 595 503 622.5 Q461 650 390 650 L225 650 Z " />
<glyph glyph-name="E" unicode="E" horiz-adv-x="542" d="M564 650 L225 650 L168 387 L483 387 L473 336 L157 336 L96 50 L444 50 L433 0 L25 0 L175 700 L575 700 L564 650 Z " />
<glyph glyph-name="F" unicode="F" horiz-adv-x="515" d="M554 650 L225 650 L168 386 L479 386 L468 336 L156 336 L85 0 L25 0 L175 700 L565 700 L554 650 Z " />
<glyph glyph-name="G" unicode="G" horiz-adv-x="629" d="M188 545 L104 152 Q113 104 155.5 71 Q198 38 267 38 Q337 38 390 71 Q443 104 474 154 L507 306 L341 306 L351 357 L575 357 L498 0 L445 0 L461 75 Q429 37 378 12 Q327 -13 260 -13 Q196 -13 149.5 9.5 Q103 32 76 67 Q49 102 41 139 L132 562 Q166 622 233 667.5 Q300 713 396 713 Q462 713 510 690.5 Q558 668 585 634 Q612 600 620 565 L612 527 L565 527 Q557 586 513.5 624.5 Q470 663 395 663 Q326 663 272 629 Q218 595 188 545 Z " />
<glyph glyph-name="H" unicode="H" horiz-adv-x="641" d="M500 0 L440 0 L512 335 L157 335 L85 0 L25 0 L175 700 L235 700 L168 386 L523 386 L591 700 L651 700 L500 0 Z " />
<glyph glyph-name="I" unicode="I" horiz-adv-x="225" d="M85 0 L25 0 L175 700 L235 700 L85 0 Z " />
<glyph glyph-name="J" unicode="J" horiz-adv-x="386" d="M280 139 Q243 74 175 36.5 Q107 -1 14 -1 Q-10 -1 -22 -0.5 Q-34 0 -38 0 L-27 50 L15 50 Q82 50 138 79.5 Q194 109 226 158 L341 700 L401 700 L280 139 Z " />
<glyph glyph-name="K" unicode="K" horiz-adv-x="579" d="M487 0 L451 0 L271 377 L142 268 L85 0 L25 0 L175 700 L235 700 L160 349 L566 700 L609 700 L600 658 L317 417 L496 42 L487 0 Z " />
<glyph glyph-name="L" unicode="L" horiz-adv-x="452" d="M96 50 L381 50 L370 0 L25 0 L175 700 L235 700 L96 50 Z " />
<glyph glyph-name="M" unicode="M" horiz-adv-x="790" d="M592 0 L729 636 L726 636 L404 186 L349 186 L222 636 L219 636 L82 0 L25 0 L175 700 L261 700 L388 257 L391 257 L704 700 L800 700 L649 0 L592 0 Z " />
<glyph glyph-name="N" unicode="N" horiz-adv-x="657" d="M516 0 L438 0 L220 627 L217 627 L82 0 L25 0 L175 700 L253 700 L472 73 L475 73 L609 700 L667 700 L516 0 Z " />
<glyph glyph-name="O" unicode="O" horiz-adv-x="626" d="M621 562 L530 138 Q490 74 425.5 30.5 Q361 -13 265 -13 Q198 -13 150.5 10 Q103 33 76 67.5 Q49 102 41 139 L132 563 Q172 626 236 669.5 Q300 713 396 713 Q462 713 510 690 Q558 667 585.5 632.5 Q613 598 621 562 Z M188 545 L104 152 Q112 104 155 71 Q198 38 266 38 Q335 38 388 71.5 Q441 105 474 156 L558 549 Q550 596 506.5 629.5 Q463 663 395 663 Q326 663 273 629.5 Q220 596 188 545 Z " />
<glyph glyph-name="P" unicode="P" horiz-adv-x="560" d="M578 583 L539 401 Q501 344 444.5 313.5 Q388 283 319 283 L146 283 L85 0 L25 0 L175 700 L388 700 Q462 700 510 669 Q558 638 578 583 Z M515 566 Q501 609 465 629.5 Q429 650 380 650 L224 650 L156 334 L315 334 Q365 334 409.5 356.5 Q454 379 485 424 L515 566 Z " />
<glyph glyph-name="Q" unicode="Q" horiz-adv-x="626" d="M312 -10 Q324 -49 358 -74 Q392 -99 423 -99 L479 -99 L470 -145 L407 -145 Q371 -145 337.5 -126.5 Q304 -108 281 -77.5 Q258 -47 253 -13 Q190 -11 145 12.5 Q100 36 74.5 69.5 Q49 103 41 139 L132 563 Q172 626 236 669.5 Q300 713 396 713 Q462 713 510 690 Q558 667 585.5 632.5 Q613 598 621 562 L530 138 Q496 83 442.5 42 Q389 1 312 -10 Z M474 156 L558 549 Q550 596 506.5 629.5 Q463 663 395 663 Q326 663 273 629.5 Q220 596 188 545 L104 152 Q112 104 155 71 Q198 38 266 38 Q335 38 388 71.5 Q441 105 474 156 Z " />
<glyph glyph-name="R" unicode="R" horiz-adv-x="583" d="M586 583 L553 428 Q518 373 466.5 343 Q415 313 354 310 L480 42 L471 0 L434 0 L291 309 L151 309 L85 0 L25 0 L175 700 L397 700 Q469 700 518.5 669 Q568 638 586 583 Z M524 565 Q512 607 475.5 628.5 Q439 650 390 650 L225 650 L162 359 L326 359 Q380 359 425 381.5 Q470 404 500 447 L524 565 Z " />
<glyph glyph-name="S" unicode="S" horiz-adv-x="572" d="M577 599 L569 561 L522 561 Q510 607 469.5 634.5 Q429 662 365 662 Q310 662 263.5 638 Q217 614 189 578 L167 472 Q175 447 199 432 Q223 417 284 397 L361 373 Q439 348 470.5 321 Q502 294 514 255 L485 118 Q449 65 389 26 Q329 -13 236 -13 Q170 -13 122 8.5 Q74 30 46.5 60 Q19 90 10 118 L19 156 L66 156 Q79 105 123 71.5 Q167 38 240 38 Q306 38 355 68 Q404 98 431 139 L452 239 Q446 265 420.5 285 Q395 305 333 325 L253 350 Q183 372 152 394.5 Q121 417 104 456 L135 599 Q171 647 230 680 Q289 713 372 713 Q455 713 507 678.5 Q559 644 577 599 Z " />
<glyph glyph-name="T" unicode="T" horiz-adv-x="524" d="M581 650 L374 650 L234 0 L174 0 L314 650 L107 650 L118 700 L592 700 L581 650 Z " />
<glyph glyph-name="U" unicode="U" horiz-adv-x="644" d="M538 139 Q503 77 435 32 Q367 -13 270 -13 Q173 -13 118.5 32.5 Q64 78 50 139 L171 700 L231 700 L113 153 Q123 104 163.5 71.5 Q204 39 273 39 Q341 39 396.5 72.5 Q452 106 483 156 L599 700 L659 700 L538 139 Z " />
<glyph glyph-name="V" unicode="V" horiz-adv-x="601" d="M651 658 L284 0 L200 0 L117 658 L126 700 L170 700 L249 55 L252 55 L608 700 L660 700 L651 658 Z " />
<glyph glyph-name="W" unicode="W" horiz-adv-x="882" d="M927 658 L643 0 L556 0 L516 620 L513 620 L207 0 L122 0 L122 658 L131 700 L180 700 L177 57 L180 57 L495 700 L565 700 L605 57 L608 57 L882 700 L936 700 L927 658 Z " />
<glyph glyph-name="X" unicode="X" horiz-adv-x="575" d="M345 355 L477 42 L468 0 L429 0 L301 317 L298 317 L37 0 L-10 0 L-1 42 L266 361 L139 658 L148 700 L186 700 L312 398 L315 398 L567 700 L613 700 L604 658 L345 355 Z " />
<glyph glyph-name="Y" unicode="Y" horiz-adv-x="545" d="M311 311 L244 0 L183 0 L252 315 L121 658 L130 700 L167 700 L290 371 L292 371 L554 700 L600 700 L591 658 L311 311 Z " />
<glyph glyph-name="Z" unicode="Z" horiz-adv-x="566" d="M599 658 L80 50 L468 50 L457 0 L-8 0 L2 42 L521 650 L141 650 L152 700 L608 700 L599 658 Z " />
<glyph glyph-name="Agrave" unicode="&#xc0;" horiz-adv-x="598" d="M516 42 L507 0 L462 0 L436 217 L143 217 L24 0 L-25 0 L-16 42 L349 700 L433 700 L516 42 Z M429 267 L382 648 L379 648 L171 267 L429 267 Z M413 770 L410 754 L373 754 L318 872 L324 902 L370 902 L413 770 Z " />
<glyph glyph-name="Aacute" unicode="&#xc1;" horiz-adv-x="598" d="M516 42 L507 0 L462 0 L436 217 L143 217 L24 0 L-25 0 L-16 42 L349 700 L433 700 L516 42 Z M429 267 L382 648 L379 648 L171 267 L429 267 Z M420 754 L377 754 L380 770 L480 902 L533 902 L526 872 L420 754 Z " />
<glyph glyph-name="Acircumflex" unicode="&#xc2;" horiz-adv-x="598" d="M516 42 L507 0 L462 0 L436 217 L143 217 L24 0 L-25 0 L-16 42 L349 700 L433 700 L516 42 Z M429 267 L382 648 L379 648 L171 267 L429 267 Z M502 754 L432 870 L312 754 L271 754 L275 770 L398 902 L473 902 L539 770 L536 754 L502 754 Z " />
<glyph glyph-name="Atilde" unicode="&#xc3;" horiz-adv-x="598" d="M516 42 L507 0 L462 0 L436 217 L143 217 L24 0 L-25 0 L-16 42 L349 700 L433 700 L516 42 Z M429 267 L382 648 L379 648 L171 267 L429 267 Z M427 826 Q442 814 454 807.5 Q466 801 479 801 Q496 801 509.5 809.5 Q523 818 532 832 L535 851 L574 851 L566 816 Q537 761 476 761 Q455 761 439.5 769 Q424 777 405 792 Q388 805 377.5 810.5 Q367 816 354 816 Q335 816 320.5 807 Q306 798 298 786 L294 766 L256 766 L263 801 Q279 828 303 842.5 Q327 857 357 857 Q378 857 393 849 Q408 841 427 826 Z " />
<glyph glyph-name="Adieresis" unicode="&#xc4;" horiz-adv-x="598" d="M516 42 L507 0 L462 0 L436 217 L143 217 L24 0 L-25 0 L-16 42 L349 700 L433 700 L516 42 Z M429 267 L382 648 L379 648 L171 267 L429 267 Z M363 841 L353 792 Q348 787 337.5 783 Q327 779 314 779 Q301 779 292.5 783 Q284 787 281 792 L291 841 Q296 846 306.5 850 Q317 854 330 854 Q343 854 351.5 850 Q360 846 363 841 Z M553 841 L543 792 Q538 787 527.5 783 Q517 779 504 779 Q491 779 482.5 783 Q474 787 471 792 L481 841 Q486 846 496.5 850 Q507 854 520 854 Q533 854 541.5 850 Q550 846 553 841 Z " />
<glyph glyph-name="Amacron" unicode="&#x100;" horiz-adv-x="598" d="M516 42 L507 0 L462 0 L436 217 L143 217 L24 0 L-25 0 L-16 42 L349 700 L433 700 L516 42 Z M429 267 L382 648 L379 648 L171 267 L429 267 Z M557 781 L262 781 L271 825 L566 825 L557 781 Z " />
<glyph glyph-name="Abreve" unicode="&#x102;" horiz-adv-x="598" d="M516 42 L507 0 L462 0 L436 217 L143 217 L24 0 L-25 0 L-16 42 L349 700 L433 700 L516 42 Z M429 267 L382 648 L379 648 L171 267 L429 267 Z M546 816 Q531 789 497.5 768 Q464 747 411 747 Q359 747 328 768.5 Q297 790 288 816 L298 865 L343 865 L336 829 Q338 815 356.5 800 Q375 785 411 785 Q449 785 471.5 799.5 Q494 814 502 829 L510 865 L556 865 L546 816 Z " />
<glyph glyph-name="Aring" unicode="&#xc5;" horiz-adv-x="598" d="M516 42 L507 0 L462 0 L436 217 L143 217 L24 0 L-25 0 L-16 42 L347 696 Q330 703 318.5 713.5 Q307 724 302 736 L319 820 Q333 840 360.5 854 Q388 868 421 868 Q455 868 479.5 854 Q504 840 512 820 L495 736 Q486 723 469.5 711.5 Q453 700 434 694 L516 42 Z M340 748 Q345 737 358.5 729.5 Q372 722 395 722 Q418 722 434.5 729.5 Q451 737 460 748 L473 808 Q469 819 455.5 826.5 Q442 834 419 834 Q379 834 353 808 L340 748 Z M429 267 L382 648 L379 648 L171 267 L429 267 Z " />
<glyph glyph-name="Aogonek" unicode="&#x104;" horiz-adv-x="598" d="M382 -108 L374 -146 Q376 -155 390.5 -162 Q405 -169 423 -169 Q440 -169 452.5 -166.5 Q465 -164 481 -157 L473 -196 Q445 -210 410 -210 Q379 -210 355 -196.5 Q331 -183 326 -163 L340 -98 Q353 -76 384 -46.5 Q415 -17 461 11 L436 217 L143 217 L24 0 L-25 0 L-16 42 L349 700 L433 700 L516 42 L507 0 L508 0 Q454 -35 424 -63 Q394 -91 382 -108 Z M429 267 L382 648 L379 648 L171 267 L429 267 Z " />
<glyph glyph-name="AE" unicode="&#xc6;" horiz-adv-x="844" d="M734 0 L326 0 L377 238 L178 238 L14 0 L-31 0 L-22 42 L434 700 L876 700 L865 650 L526 650 L469 387 L785 387 L774 336 L459 336 L398 50 L746 50 L734 0 Z M466 650 L463 650 L213 288 L388 288 L466 650 Z " />
<glyph glyph-name="Cacute" unicode="&#x106;" horiz-adv-x="606" d="M620 565 L612 527 L566 527 Q560 585 515 624 Q470 663 395 663 Q324 663 271.5 629 Q219 595 188 545 L104 151 Q113 103 155.5 70.5 Q198 38 267 38 Q341 38 395 74.5 Q449 111 483 173 L536 173 L527 136 Q493 74 428 30.5 Q363 -13 266 -13 Q199 -13 151 9.5 Q103 32 76 67 Q49 102 41 139 L132 562 Q166 623 233 668 Q300 713 396 713 Q462 713 510 690.5 Q558 668 585 634 Q612 600 620 565 Z M434 754 L391 754 L394 770 L494 902 L547 902 L540 872 L434 754 Z " />
<glyph glyph-name="Ccircumflex" unicode="&#x108;" horiz-adv-x="606" d="M620 565 L612 527 L566 527 Q560 585 515 624 Q470 663 395 663 Q324 663 271.5 629 Q219 595 188 545 L104 151 Q113 103 155.5 70.5 Q198 38 267 38 Q341 38 395 74.5 Q449 111 483 173 L536 173 L527 136 Q493 74 428 30.5 Q363 -13 266 -13 Q199 -13 151 9.5 Q103 32 76 67 Q49 102 41 139 L132 562 Q166 623 233 668 Q300 713 396 713 Q462 713 510 690.5 Q558 668 585 634 Q612 600 620 565 Z M516 754 L446 870 L326 754 L285 754 L289 770 L412 902 L487 902 L553 770 L550 754 L516 754 Z " />
<glyph glyph-name="Ccaron" unicode="&#x10c;" horiz-adv-x="606" d="M620 565 L612 527 L566 527 Q560 585 515 624 Q470 663 395 663 Q324 663 271.5 629 Q219 595 188 545 L104 151 Q113 103 155.5 70.5 Q198 38 267 38 Q341 38 395 74.5 Q449 111 483 173 L536 173 L527 136 Q493 74 428 30.5 Q363 -13 266 -13 Q199 -13 151 9.5 Q103 32 76 67 Q49 102 41 139 L132 562 Q166 623 233 668 Q300 713 396 713 Q462 713 510 690.5 Q558 668 585 634 Q612 600 620 565 Z M455 754 L380 754 L313 886 L317 902 L351 902 L420 785 L541 902 L582 902 L578 886 L455 754 Z " />
<glyph glyph-name="Cdotaccent" unicode="&#x10a;" horiz-adv-x="606" d="M620 565 L612 527 L566 527 Q560 585 515 624 Q470 663 395 663 Q324 663 271.5 629 Q219 595 188 545 L104 151 Q113 103 155.5 70.5 Q198 38 267 38 Q341 38 395 74.5 Q449 111 483 173 L536 173 L527 136 Q493 74 428 30.5 Q363 -13 266 -13 Q199 -13 151 9.5 Q103 32 76 67 Q49 102 41 139 L132 562 Q166 623 233 668 Q300 713 396 713 Q462 713 510 690.5 Q558 668 585 634 Q612 600 620 565 Z M474 845 L464 803 Q460 797 448.5 792 Q437 787 424 787 Q410 787 401.5 792 Q393 797 391 803 L400 845 Q405 852 416 857 Q427 862 441 862 Q455 862 463 857 Q471 852 474 845 Z " />
<glyph glyph-name="Ccedilla" unicode="&#xc7;" horiz-adv-x="606" d="M620 565 L612 527 L566 527 Q560 586 515 624.5 Q470 663 395 663 Q324 663 271.5 629 Q219 595 188 545 L104 151 Q113 103 155.5 70.5 Q198 38 266 38 Q340 38 394.5 75 Q449 112 483 173 L536 173 L527 136 Q493 75 428.5 31.5 Q364 -12 268 -13 L241 -58 L257 -58 Q285 -58 305 -71.5 Q325 -85 331 -102 L316 -170 Q301 -192 276.5 -204.5 Q252 -217 219 -217 Q166 -217 130 -192 L149 -160 Q181 -182 221 -182 Q241 -182 256 -174 Q271 -166 279 -155 L287 -113 Q284 -104 272.5 -97 Q261 -90 242 -90 L184 -90 L229 -11 Q148 -1 100 42.5 Q52 86 41 139 L132 562 Q166 623 233 668 Q300 713 396 713 Q462 713 510 690.5 Q558 668 585 634 Q612 600 620 565 Z " />
<glyph glyph-name="Dcaron" unicode="&#x10e;" horiz-adv-x="623" d="M618 562 L527 138 Q492 78 424 39 Q356 0 261 0 L25 0 L175 700 L400 700 Q496 700 550.5 659.5 Q605 619 618 562 Z M225 650 L96 50 L259 50 Q330 50 384.5 80.5 Q439 111 470 158 L555 548 Q545 595 503 622.5 Q461 650 390 650 L225 650 Z M454 754 L379 754 L312 886 L316 902 L350 902 L419 785 L540 902 L581 902 L577 886 L454 754 Z " />
<glyph glyph-name="Dcroat" unicode="&#x110;" horiz-adv-x="650" d="M645 562 L554 138 Q519 78 451 39 Q383 0 288 0 L51 0 L123 331 L59 331 L70 381 L133 381 L202 700 L427 700 Q523 700 577.5 659.5 Q632 619 645 562 Z M582 548 Q572 595 530 622.5 Q488 650 416 650 L251 650 L194 381 L389 381 L378 331 L183 331 L123 50 L286 50 Q357 50 411.5 80.5 Q466 111 497 158 L582 548 Z " />
<glyph glyph-name="Egrave" unicode="&#xc8;" horiz-adv-x="542" d="M564 650 L225 650 L168 387 L483 387 L473 336 L157 336 L96 50 L444 50 L433 0 L25 0 L175 700 L575 700 L564 650 Z M391 770 L388 754 L351 754 L296 872 L302 902 L348 902 L391 770 Z " />
<glyph glyph-name="Eacute" unicode="&#xc9;" horiz-adv-x="542" d="M564 650 L225 650 L168 387 L483 387 L473 336 L157 336 L96 50 L444 50 L433 0 L25 0 L175 700 L575 700 L564 650 Z M398 754 L355 754 L358 770 L458 902 L511 902 L504 872 L398 754 Z " />
<glyph glyph-name="Ecircumflex" unicode="&#xca;" horiz-adv-x="542" d="M564 650 L225 650 L168 387 L483 387 L473 336 L157 336 L96 50 L444 50 L433 0 L25 0 L175 700 L575 700 L564 650 Z M480 754 L410 870 L290 754 L249 754 L253 770 L376 902 L451 902 L517 770 L514 754 L480 754 Z " />
<glyph glyph-name="Ecaron" unicode="&#x11a;" horiz-adv-x="542" d="M564 650 L225 650 L168 387 L483 387 L473 336 L157 336 L96 50 L444 50 L433 0 L25 0 L175 700 L575 700 L564 650 Z M419 754 L344 754 L277 886 L281 902 L315 902 L384 785 L505 902 L546 902 L542 886 L419 754 Z " />
<glyph glyph-name="Edieresis" unicode="&#xcb;" horiz-adv-x="542" d="M564 650 L225 650 L168 387 L483 387 L473 336 L157 336 L96 50 L444 50 L433 0 L25 0 L175 700 L575 700 L564 650 Z M341 841 L331 792 Q326 787 315.5 783 Q305 779 292 779 Q279 779 270.5 783 Q262 787 259 792 L269 841 Q274 846 284.5 850 Q295 854 308 854 Q321 854 329.5 850 Q338 846 341 841 Z M531 841 L521 792 Q516 787 505.5 783 Q495 779 482 779 Q469 779 460.5 783 Q452 787 449 792 L459 841 Q464 846 474.5 850 Q485 854 498 854 Q511 854 519.5 850 Q528 846 531 841 Z " />
<glyph glyph-name="Emacron" unicode="&#x112;" horiz-adv-x="542" d="M564 650 L225 650 L168 387 L483 387 L473 336 L157 336 L96 50 L444 50 L433 0 L25 0 L175 700 L575 700 L564 650 Z M535 781 L240 781 L249 825 L544 825 L535 781 Z " />
<glyph glyph-name="Ebreve" unicode="&#x114;" horiz-adv-x="542" d="M564 650 L225 650 L168 387 L483 387 L473 336 L157 336 L96 50 L444 50 L433 0 L25 0 L175 700 L575 700 L564 650 Z M524 816 Q509 789 475.5 768 Q442 747 389 747 Q337 747 306 768.5 Q275 790 266 816 L276 865 L321 865 L314 829 Q316 815 334.5 800 Q353 785 389 785 Q427 785 449.5 799.5 Q472 814 480 829 L488 865 L534 865 L524 816 Z " />
<glyph glyph-name="Edotaccent" unicode="&#x116;" horiz-adv-x="542" d="M564 650 L225 650 L168 387 L483 387 L473 336 L157 336 L96 50 L444 50 L433 0 L25 0 L175 700 L575 700 L564 650 Z M438 845 L428 803 Q424 797 412.5 792 Q401 787 388 787 Q374 787 365.5 792 Q357 797 355 803 L364 845 Q369 852 380 857 Q391 862 405 862 Q419 862 427 857 Q435 852 438 845 Z " />
<glyph glyph-name="Eogonek" unicode="&#x118;" horiz-adv-x="542" d="M225 650 L168 387 L483 387 L473 336 L157 336 L96 50 L444 50 L433 0 Q378 -33 344 -63 Q310 -93 301 -108 L293 -146 Q295 -155 309 -162 Q323 -169 342 -169 Q359 -169 371.5 -166.5 Q384 -164 400 -157 L392 -196 Q362 -210 329 -210 Q298 -210 273.5 -196.5 Q249 -183 244 -163 L259 -98 Q271 -78 301.5 -51.5 Q332 -25 375 0 L25 0 L175 700 L575 700 L564 650 L225 650 Z " />
<glyph glyph-name="Gcircumflex" unicode="&#x11c;" horiz-adv-x="629" d="M188 545 L104 152 Q113 104 155.5 71 Q198 38 267 38 Q337 38 390 71 Q443 104 474 154 L507 306 L341 306 L351 357 L575 357 L498 0 L445 0 L461 75 Q429 37 378 12 Q327 -13 260 -13 Q196 -13 149.5 9.5 Q103 32 76 67 Q49 102 41 139 L132 562 Q166 622 233 667.5 Q300 713 396 713 Q462 713 510 690.5 Q558 668 585 634 Q612 600 620 565 L612 527 L565 527 Q557 586 513.5 624.5 Q470 663 395 663 Q326 663 272 629 Q218 595 188 545 Z M515 754 L445 870 L325 754 L284 754 L288 770 L411 902 L486 902 L552 770 L549 754 L515 754 Z " />
<glyph glyph-name="Gbreve" unicode="&#x11e;" horiz-adv-x="629" d="M188 545 L104 152 Q113 104 155.5 71 Q198 38 267 38 Q337 38 390 71 Q443 104 474 154 L507 306 L341 306 L351 357 L575 357 L498 0 L445 0 L461 75 Q429 37 378 12 Q327 -13 260 -13 Q196 -13 149.5 9.5 Q103 32 76 67 Q49 102 41 139 L132 562 Q166 622 233 667.5 Q300 713 396 713 Q462 713 510 690.5 Q558 668 585 634 Q612 600 620 565 L612 527 L565 527 Q557 586 513.5 624.5 Q470 663 395 663 Q326 663 272 629 Q218 595 188 545 Z M559 816 Q544 789 510.5 768 Q477 747 424 747 Q372 747 341 768.5 Q310 790 301 816 L311 865 L356 865 L349 829 Q351 815 369.5 800 Q388 785 424 785 Q462 785 484.5 799.5 Q507 814 515 829 L523 865 L569 865 L559 816 Z " />
<glyph glyph-name="Gdotaccent" unicode="&#x120;" horiz-adv-x="629" d="M188 545 L104 152 Q113 104 155.5 71 Q198 38 267 38 Q337 38 390 71 Q443 104 474 154 L507 306 L341 306 L351 357 L575 357 L498 0 L445 0 L461 75 Q429 37 378 12 Q327 -13 260 -13 Q196 -13 149.5 9.5 Q103 32 76 67 Q49 102 41 139 L132 562 Q166 622 233 667.5 Q300 713 396 713 Q462 713 510 690.5 Q558 668 585 634 Q612 600 620 565 L612 527 L565 527 Q557 586 513.5 624.5 Q470 663 395 663 Q326 663 272 629 Q218 595 188 545 Z M473 845 L463 803 Q459 797 447.5 792 Q436 787 423 787 Q409 787 400.5 792 Q392 797 390 803 L399 845 Q404 852 415 857 Q426 862 440 862 Q454 862 462 857 Q470 852 473 845 Z " />
<glyph glyph-name="Gcommaaccent" unicode="&#x122;" horiz-adv-x="629" d="M188 545 L104 152 Q113 104 155.5 71 Q198 38 267 38 Q337 38 390 71 Q443 104 474 154 L507 306 L341 306 L351 357 L575 357 L498 0 L445 0 L461 75 Q429 37 378 12 Q327 -13 260 -13 Q196 -13 149.5 9.5 Q103 32 76 67 Q49 102 41 139 L132 562 Q166 622 233 667.5 Q300 713 396 713 Q462 713 510 690.5 Q558 668 585 634 Q612 600 620 565 L612 527 L565 527 Q557 586 513.5 624.5 Q470 663 395 663 Q326 663 272 629 Q218 595 188 545 Z M194 -169 L207 -169 Q218 -169 226 -161 L232 -130 Q221 -130 212 -126.5 Q203 -123 201 -119 L210 -79 Q219 -68 245 -68 Q269 -68 275 -79 L258 -164 Q253 -176 240 -184.5 Q227 -193 209 -193 L189 -193 L194 -169 Z " />
<glyph glyph-name="Hcircumflex" unicode="&#x124;" horiz-adv-x="641" d="M500 0 L440 0 L512 335 L157 335 L85 0 L25 0 L175 700 L235 700 L168 386 L523 386 L591 700 L651 700 L500 0 Z M523 754 L453 870 L333 754 L292 754 L296 770 L419 902 L494 902 L560 770 L557 754 L523 754 Z " />
<glyph glyph-name="Hbar" unicode="&#x126;" horiz-adv-x="641" d="M631 564 L509 0 L449 0 L521 335 L166 335 L94 0 L34 0 L155 564 L99 564 L108 607 L164 607 L184 700 L244 700 L224 607 L580 607 L600 700 L660 700 L640 607 L692 607 L682 564 L631 564 Z M215 564 L177 386 L532 386 L571 564 L215 564 Z " />
<glyph glyph-name="Igrave" unicode="&#xcc;" horiz-adv-x="225" d="M85 0 L25 0 L175 700 L235 700 L85 0 Z M227 770 L224 754 L187 754 L132 872 L138 902 L184 902 L227 770 Z " />
<glyph glyph-name="Iacute" unicode="&#xcd;" horiz-adv-x="225" d="M85 0 L25 0 L175 700 L235 700 L85 0 Z M234 754 L191 754 L194 770 L294 902 L347 902 L340 872 L234 754 Z " />
<glyph glyph-name="Icircumflex" unicode="&#xce;" horiz-adv-x="225" d="M85 0 L25 0 L175 700 L235 700 L85 0 Z M316 754 L246 870 L126 754 L85 754 L89 770 L212 902 L287 902 L353 770 L350 754 L316 754 Z " />
<glyph glyph-name="Itilde" unicode="&#x128;" horiz-adv-x="225" d="M85 0 L25 0 L175 700 L235 700 L85 0 Z M241 826 Q256 814 268 807.5 Q280 801 293 801 Q310 801 323.5 809.5 Q337 818 346 832 L349 851 L388 851 L380 816 Q351 761 290 761 Q269 761 253.5 769 Q238 777 219 792 Q202 805 191.5 810.5 Q181 816 168 816 Q149 816 134.5 807 Q120 798 112 786 L108 766 L70 766 L77 801 Q93 828 117 842.5 Q141 857 171 857 Q192 857 207 849 Q222 841 241 826 Z " />
<glyph glyph-name="Idieresis" unicode="&#xcf;" horiz-adv-x="225" d="M85 0 L25 0 L175 700 L235 700 L85 0 Z M176 841 L166 792 Q161 787 150.5 783 Q140 779 127 779 Q114 779 105.5 783 Q97 787 94 792 L104 841 Q109 846 119.5 850 Q130 854 143 854 Q156 854 164.5 850 Q173 846 176 841 Z M366 841 L356 792 Q351 787 340.5 783 Q330 779 317 779 Q304 779 295.5 783 Q287 787 284 792 L294 841 Q299 846 309.5 850 Q320 854 333 854 Q346 854 354.5 850 Q363 846 366 841 Z " />
<glyph glyph-name="Imacron" unicode="&#x12a;" horiz-adv-x="225" d="M85 0 L25 0 L175 700 L235 700 L85 0 Z M370 781 L75 781 L84 825 L379 825 L370 781 Z " />
<glyph glyph-name="Ibreve" unicode="&#x12c;" horiz-adv-x="225" d="M85 0 L25 0 L175 700 L235 700 L85 0 Z M360 816 Q345 789 311.5 768 Q278 747 225 747 Q173 747 142 768.5 Q111 790 102 816 L112 865 L157 865 L150 829 Q152 815 170.5 800 Q189 785 225 785 Q263 785 285.5 799.5 Q308 814 316 829 L324 865 L370 865 L360 816 Z " />
<glyph glyph-name="Iogonek" unicode="&#x12e;" horiz-adv-x="225" d="M-41 -108 L-49 -146 Q-47 -155 -32.5 -162 Q-18 -169 0 -169 Q17 -169 29.5 -166.5 Q42 -164 58 -157 L50 -196 Q20 -210 -13 -210 Q-44 -210 -68 -196.5 Q-92 -183 -97 -163 L-83 -98 Q-71 -78 -43.5 -52 Q-16 -26 26 0 L25 0 L175 700 L235 700 L85 0 Q31 -35 1 -63 Q-29 -91 -41 -108 Z " />
<glyph glyph-name="IJ" unicode="&#x132;" horiz-adv-x="612" d="M85 0 L25 0 L175 700 L235 700 L85 0 Z M505 139 Q468 74 400 36.5 Q332 -1 239 -1 Q215 -1 203 -0.5 Q191 0 187 0 L198 50 L240 50 Q307 50 363 79.5 Q419 109 451 158 L566 700 L626 700 L505 139 Z " />
<glyph glyph-name="Jcircumflex" unicode="&#x134;" horiz-adv-x="386" d="M280 139 Q243 74 175 36.5 Q107 -1 14 -1 Q-10 -1 -22 -0.5 Q-34 0 -38 0 L-27 50 L15 50 Q82 50 138 79.5 Q194 109 226 158 L341 700 L401 700 L280 139 Z M481 754 L411 870 L291 754 L250 754 L254 770 L377 902 L452 902 L518 770 L515 754 L481 754 Z " />
<glyph glyph-name="Kcommaaccent" unicode="&#x136;" horiz-adv-x="579" d="M487 0 L451 0 L271 377 L142 268 L85 0 L25 0 L175 700 L235 700 L160 349 L566 700 L609 700 L600 658 L317 417 L496 42 L487 0 Z M195 -169 L208 -169 Q219 -169 227 -161 L233 -130 Q222 -130 213 -126.5 Q204 -123 202 -119 L211 -79 Q220 -68 246 -68 Q270 -68 276 -79 L259 -164 Q254 -176 241 -184.5 Q228 -193 210 -193 L190 -193 L195 -169 Z " />
<glyph glyph-name="Lacute" unicode="&#x139;" horiz-adv-x="452" d="M96 50 L381 50 L370 0 L25 0 L175 700 L235 700 L96 50 Z M237 754 L194 754 L197 770 L297 902 L350 902 L343 872 L237 754 Z " />
<glyph glyph-name="Lcaron" unicode="&#x13d;" horiz-adv-x="452" d="M96 50 L381 50 L370 0 L25 0 L175 700 L235 700 L96 50 Z M414 667 L356 540 L319 540 L323 555 L371 700 L420 700 L414 667 Z " />
<glyph glyph-name="Lcommaaccent" unicode="&#x13b;" horiz-adv-x="452" d="M96 50 L381 50 L370 0 L25 0 L175 700 L235 700 L96 50 Z M103 -169 L116 -169 Q127 -169 135 -161 L141 -130 Q130 -130 121 -126.5 Q112 -123 110 -119 L119 -79 Q128 -68 154 -68 Q178 -68 184 -79 L167 -164 Q162 -176 149 -184.5 Q136 -193 118 -193 L98 -193 L103 -169 Z " />
<glyph glyph-name="Lslash" unicode="&#x141;" horiz-adv-x="483" d="M401 0 L56 0 L107 237 L12 193 L24 247 L118 291 L206 700 L266 700 L185 323 L412 429 L400 375 L174 269 L127 50 L412 50 L401 0 Z " />
<glyph glyph-name="Ldot" unicode="&#x13f;" horiz-adv-x="452" d="M96 50 L381 50 L370 0 L25 0 L175 700 L235 700 L96 50 Z M428 410 L418 366 Q406 350 380 350 Q366 350 356.5 355 Q347 360 345 366 L355 410 Q359 417 369 422 Q379 427 393 427 Q406 427 416 422 Q426 417 428 410 Z " />
<glyph glyph-name="Nacute" unicode="&#x143;" horiz-adv-x="657" d="M516 0 L438 0 L220 627 L217 627 L82 0 L25 0 L175 700 L253 700 L472 73 L475 73 L609 700 L667 700 L516 0 Z M450 754 L407 754 L410 770 L510 902 L563 902 L556 872 L450 754 Z " />
<glyph glyph-name="Ncaron" unicode="&#x147;" horiz-adv-x="657" d="M516 0 L438 0 L220 627 L217 627 L82 0 L25 0 L175 700 L253 700 L472 73 L475 73 L609 700 L667 700 L516 0 Z M471 754 L396 754 L329 886 L333 902 L367 902 L436 785 L557 902 L598 902 L594 886 L471 754 Z " />
<glyph glyph-name="Ntilde" unicode="&#xd1;" horiz-adv-x="657" d="M516 0 L438 0 L220 627 L217 627 L82 0 L25 0 L175 700 L253 700 L472 73 L475 73 L609 700 L667 700 L516 0 Z M457 826 Q472 814 484 807.5 Q496 801 509 801 Q526 801 539.5 809.5 Q553 818 562 832 L565 851 L604 851 L596 816 Q567 761 506 761 Q485 761 469.5 769 Q454 777 435 792 Q418 805 407.5 810.5 Q397 816 384 816 Q365 816 350.5 807 Q336 798 328 786 L324 766 L286 766 L293 801 Q309 828 333 842.5 Q357 857 387 857 Q408 857 423 849 Q438 841 457 826 Z " />
<glyph glyph-name="Ncommaaccent" unicode="&#x145;" horiz-adv-x="657" d="M516 0 L438 0 L220 627 L217 627 L82 0 L25 0 L175 700 L253 700 L472 73 L475 73 L609 700 L667 700 L516 0 Z M206 -169 L219 -169 Q230 -169 238 -161 L244 -130 Q233 -130 224 -126.5 Q215 -123 213 -119 L222 -79 Q231 -68 257 -68 Q281 -68 287 -79 L270 -164 Q265 -176 252 -184.5 Q239 -193 221 -193 L201 -193 L206 -169 Z " />
<glyph glyph-name="Ograve" unicode="&#xd2;" horiz-adv-x="626" d="M621 562 L530 138 Q490 74 425.5 30.5 Q361 -13 265 -13 Q198 -13 150.5 10 Q103 33 76 67.5 Q49 102 41 139 L132 563 Q172 626 236 669.5 Q300 713 396 713 Q462 713 510 690 Q558 667 585.5 632.5 Q613 598 621 562 Z M188 545 L104 152 Q112 104 155 71 Q198 38 266 38 Q335 38 388 71.5 Q441 105 474 156 L558 549 Q550 596 506.5 629.5 Q463 663 395 663 Q326 663 273 629.5 Q220 596 188 545 Z M427 770 L424 754 L387 754 L332 872 L338 902 L384 902 L427 770 Z " />
<glyph glyph-name="Oacute" unicode="&#xd3;" horiz-adv-x="626" d="M621 562 L530 138 Q490 74 425.5 30.5 Q361 -13 265 -13 Q198 -13 150.5 10 Q103 33 76 67.5 Q49 102 41 139 L132 563 Q172 626 236 669.5 Q300 713 396 713 Q462 713 510 690 Q558 667 585.5 632.5 Q613 598 621 562 Z M188 545 L104 152 Q112 104 155 71 Q198 38 266 38 Q335 38 388 71.5 Q441 105 474 156 L558 549 Q550 596 506.5 629.5 Q463 663 395 663 Q326 663 273 629.5 Q220 596 188 545 Z M434 754 L391 754 L394 770 L494 902 L547 902 L540 872 L434 754 Z " />
<glyph glyph-name="Ocircumflex" unicode="&#xd4;" horiz-adv-x="626" d="M621 562 L530 138 Q490 74 425.5 30.5 Q361 -13 265 -13 Q198 -13 150.5 10 Q103 33 76 67.5 Q49 102 41 139 L132 563 Q172 626 236 669.5 Q300 713 396 713 Q462 713 510 690 Q558 667 585.5 632.5 Q613 598 621 562 Z M188 545 L104 152 Q112 104 155 71 Q198 38 266 38 Q335 38 388 71.5 Q441 105 474 156 L558 549 Q550 596 506.5 629.5 Q463 663 395 663 Q326 663 273 629.5 Q220 596 188 545 Z M516 754 L446 870 L326 754 L285 754 L289 770 L412 902 L487 902 L553 770 L550 754 L516 754 Z " />
<glyph glyph-name="Otilde" unicode="&#xd5;" horiz-adv-x="626" d="M621 562 L530 138 Q490 74 425.5 30.5 Q361 -13 265 -13 Q198 -13 150.5 10 Q103 33 76 67.5 Q49 102 41 139 L132 563 Q172 626 236 669.5 Q300 713 396 713 Q462 713 510 690 Q558 667 585.5 632.5 Q613 598 621 562 Z M188 545 L104 152 Q112 104 155 71 Q198 38 266 38 Q335 38 388 71.5 Q441 105 474 156 L558 549 Q550 596 506.5 629.5 Q463 663 395 663 Q326 663 273 629.5 Q220 596 188 545 Z M441 826 Q456 814 468 807.5 Q480 801 493 801 Q510 801 523.5 809.5 Q537 818 546 832 L549 851 L588 851 L580 816 Q551 761 490 761 Q469 761 453.5 769 Q438 777 419 792 Q402 805 391.5 810.5 Q381 816 368 816 Q349 816 334.5 807 Q320 798 312 786 L308 766 L270 766 L277 801 Q293 828 317 842.5 Q341 857 371 857 Q392 857 407 849 Q422 841 441 826 Z " />
<glyph glyph-name="Odieresis" unicode="&#xd6;" horiz-adv-x="626" d="M621 562 L530 138 Q490 74 425.5 30.5 Q361 -13 265 -13 Q198 -13 150.5 10 Q103 33 76 67.5 Q49 102 41 139 L132 563 Q172 626 236 669.5 Q300 713 396 713 Q462 713 510 690 Q558 667 585.5 632.5 Q613 598 621 562 Z M188 545 L104 152 Q112 104 155 71 Q198 38 266 38 Q335 38 388 71.5 Q441 105 474 156 L558 549 Q550 596 506.5 629.5 Q463 663 395 663 Q326 663 273 629.5 Q220 596 188 545 Z M376 841 L366 792 Q361 787 350.5 783 Q340 779 327 779 Q314 779 305.5 783 Q297 787 294 792 L304 841 Q309 846 319.5 850 Q330 854 343 854 Q356 854 364.5 850 Q373 846 376 841 Z M566 841 L556 792 Q551 787 540.5 783 Q530 779 517 779 Q504 779 495.5 783 Q487 787 484 792 L494 841 Q499 846 509.5 850 Q520 854 533 854 Q546 854 554.5 850 Q563 846 566 841 Z " />
<glyph glyph-name="Omacron" unicode="&#x14c;" horiz-adv-x="626" d="M621 562 L530 138 Q490 74 425.5 30.5 Q361 -13 265 -13 Q198 -13 150.5 10 Q103 33 76 67.5 Q49 102 41 139 L132 563 Q172 626 236 669.5 Q300 713 396 713 Q462 713 510 690 Q558 667 585.5 632.5 Q613 598 621 562 Z M188 545 L104 152 Q112 104 155 71 Q198 38 266 38 Q335 38 388 71.5 Q441 105 474 156 L558 549 Q550 596 506.5 629.5 Q463 663 395 663 Q326 663 273 629.5 Q220 596 188 545 Z M571 781 L276 781 L285 825 L580 825 L571 781 Z " />
<glyph glyph-name="Obreve" unicode="&#x14e;" horiz-adv-x="626" d="M621 562 L530 138 Q490 74 425.5 30.5 Q361 -13 265 -13 Q198 -13 150.5 10 Q103 33 76 67.5 Q49 102 41 139 L132 563 Q172 626 236 669.5 Q300 713 396 713 Q462 713 510 690 Q558 667 585.5 632.5 Q613 598 621 562 Z M188 545 L104 152 Q112 104 155 71 Q198 38 266 38 Q335 38 388 71.5 Q441 105 474 156 L558 549 Q550 596 506.5 629.5 Q463 663 395 663 Q326 663 273 629.5 Q220 596 188 545 Z M560 816 Q545 789 511.5 768 Q478 747 425 747 Q373 747 342 768.5 Q311 790 302 816 L312 865 L357 865 L350 829 Q352 815 370.5 800 Q389 785 425 785 Q463 785 485.5 799.5 Q508 814 516 829 L524 865 L570 865 L560 816 Z " />
<glyph glyph-name="Ohungarumlaut" unicode="&#x150;" horiz-adv-x="626" d="M621 562 L530 138 Q490 74 425.5 30.5 Q361 -13 265 -13 Q198 -13 150.5 10 Q103 33 76 67.5 Q49 102 41 139 L132 563 Q172 626 236 669.5 Q300 713 396 713 Q462 713 510 690 Q558 667 585.5 632.5 Q613 598 621 562 Z M188 545 L104 152 Q112 104 155 71 Q198 38 266 38 Q335 38 388 71.5 Q441 105 474 156 L558 549 Q550 596 506.5 629.5 Q463 663 395 663 Q326 663 273 629.5 Q220 596 188 545 Z M439 874 L352 754 L316 754 L319 770 L400 902 L445 902 L439 874 Z M607 874 L521 754 L484 754 L487 770 L568 902 L613 902 L607 874 Z " />
<glyph glyph-name="Oslash" unicode="&#xd8;" horiz-adv-x="626" d="M644 671 L597 618 Q615 590 621 562 L530 138 Q490 74 425.5 30.5 Q361 -13 265 -13 Q157 -13 92 50 L48 0 L11 0 L18 29 L65 82 Q48 110 41 139 L132 563 Q172 626 236 669.5 Q300 713 396 713 Q505 713 569 651 L612 700 L650 700 L644 671 Z M109 132 L530 608 Q509 633 474.5 648 Q440 663 395 663 Q326 663 273 629.5 Q220 596 188 545 L104 152 Q105 147 109 132 Z M553 568 L131 93 Q152 68 186.5 53 Q221 38 266 38 Q335 38 388 71.5 Q441 105 474 156 L558 549 Q557 556 553 568 Z " />
<glyph glyph-name="OE" unicode="&#x152;" horiz-adv-x="958" d="M640 650 L583 387 L899 387 L888 336 L573 336 L512 50 L860 50 L849 0 L440 0 L453 59 Q414 27 366 7 Q318 -13 263 -13 Q197 -13 150 10 Q103 33 76 67.5 Q49 102 41 139 L132 563 Q172 626 236 669.5 Q300 713 396 713 Q460 713 505 691.5 Q550 670 577 635 L591 700 L990 700 L980 650 L640 650 Z M470 138 L562 565 Q546 606 501.5 634.5 Q457 663 395 663 Q326 663 273 629.5 Q220 596 188 545 L104 152 Q112 104 155 71 Q198 38 266 38 Q329 38 382.5 66.5 Q436 95 470 138 Z " />
<glyph glyph-name="Racute" unicode="&#x154;" horiz-adv-x="583" d="M586 583 L553 428 Q518 373 466.5 343 Q415 313 354 310 L480 42 L471 0 L434 0 L291 309 L151 309 L85 0 L25 0 L175 700 L397 700 Q469 700 518.5 669 Q568 638 586 583 Z M524 565 Q512 607 475.5 628.5 Q439 650 390 650 L225 650 L162 359 L326 359 Q380 359 425 381.5 Q470 404 500 447 L524 565 Z M412 754 L369 754 L372 770 L472 902 L525 902 L518 872 L412 754 Z " />
<glyph glyph-name="Rcaron" unicode="&#x158;" horiz-adv-x="583" d="M586 583 L553 428 Q518 373 466.5 343 Q415 313 354 310 L480 42 L471 0 L434 0 L291 309 L151 309 L85 0 L25 0 L175 700 L397 700 Q469 700 518.5 669 Q568 638 586 583 Z M524 565 Q512 607 475.5 628.5 Q439 650 390 650 L225 650 L162 359 L326 359 Q380 359 425 381.5 Q470 404 500 447 L524 565 Z M433 754 L358 754 L291 886 L295 902 L329 902 L398 785 L519 902 L560 902 L556 886 L433 754 Z " />
<glyph glyph-name="Rcommaaccent" unicode="&#x156;" horiz-adv-x="583" d="M586 583 L553 428 Q518 373 466.5 343 Q415 313 354 310 L480 42 L471 0 L434 0 L291 309 L151 309 L85 0 L25 0 L175 700 L397 700 Q469 700 518.5 669 Q568 638 586 583 Z M524 565 Q512 607 475.5 628.5 Q439 650 390 650 L225 650 L162 359 L326 359 Q380 359 425 381.5 Q470 404 500 447 L524 565 Z M168 -169 L181 -169 Q192 -169 200 -161 L206 -130 Q195 -130 186 -126.5 Q177 -123 175 -119 L184 -79 Q193 -68 219 -68 Q243 -68 249 -79 L232 -164 Q227 -176 214 -184.5 Q201 -193 183 -193 L163 -193 L168 -169 Z " />
<glyph glyph-name="Sacute" unicode="&#x15a;" horiz-adv-x="572" d="M577 599 L569 561 L522 561 Q510 607 469.5 634.5 Q429 662 365 662 Q310 662 263.5 638 Q217 614 189 578 L167 472 Q175 447 199 432 Q223 417 284 397 L361 373 Q439 348 470.5 321 Q502 294 514 255 L485 118 Q449 65 389 26 Q329 -13 236 -13 Q170 -13 122 8.5 Q74 30 46.5 60 Q19 90 10 118 L19 156 L66 156 Q79 105 123 71.5 Q167 38 240 38 Q306 38 355 68 Q404 98 431 139 L452 239 Q446 265 420.5 285 Q395 305 333 325 L253 350 Q183 372 152 394.5 Q121 417 104 456 L135 599 Q171 647 230 680 Q289 713 372 713 Q455 713 507 678.5 Q559 644 577 599 Z M414 754 L371 754 L374 770 L474 902 L527 902 L520 872 L414 754 Z " />
<glyph glyph-name="Scircumflex" unicode="&#x15c;" horiz-adv-x="572" d="M577 599 L569 561 L522 561 Q510 607 469.5 634.5 Q429 662 365 662 Q310 662 263.5 638 Q217 614 189 578 L167 472 Q175 447 199 432 Q223 417 284 397 L361 373 Q439 348 470.5 321 Q502 294 514 255 L485 118 Q449 65 389 26 Q329 -13 236 -13 Q170 -13 122 8.5 Q74 30 46.5 60 Q19 90 10 118 L19 156 L66 156 Q79 105 123 71.5 Q167 38 240 38 Q306 38 355 68 Q404 98 431 139 L452 239 Q446 265 420.5 285 Q395 305 333 325 L253 350 Q183 372 152 394.5 Q121 417 104 456 L135 599 Q171 647 230 680 Q289 713 372 713 Q455 713 507 678.5 Q559 644 577 599 Z M496 754 L426 870 L306 754 L265 754 L269 770 L392 902 L467 902 L533 770 L530 754 L496 754 Z " />
<glyph glyph-name="Scaron" unicode="&#x160;" horiz-adv-x="572" d="M577 599 L569 561 L522 561 Q510 607 469.5 634.5 Q429 662 365 662 Q310 662 263.5 638 Q217 614 189 578 L167 472 Q175 447 199 432 Q223 417 284 397 L361 373 Q439 348 470.5 321 Q502 294 514 255 L485 118 Q449 65 389 26 Q329 -13 236 -13 Q170 -13 122 8.5 Q74 30 46.5 60 Q19 90 10 118 L19 156 L66 156 Q79 105 123 71.5 Q167 38 240 38 Q306 38 355 68 Q404 98 431 139 L452 239 Q446 265 420.5 285 Q395 305 333 325 L253 350 Q183 372 152 394.5 Q121 417 104 456 L135 599 Q171 647 230 680 Q289 713 372 713 Q455 713 507 678.5 Q559 644 577 599 Z M435 754 L360 754 L293 886 L297 902 L331 902 L400 785 L521 902 L562 902 L558 886 L435 754 Z " />
<glyph glyph-name="Scedilla" unicode="&#x15e;" horiz-adv-x="572" d="M577 599 L569 561 L522 561 Q510 607 469.5 634.5 Q429 662 365 662 Q310 662 263.5 638 Q217 614 189 578 L167 472 Q175 447 199 432 Q223 417 284 397 L361 373 Q439 348 470.5 321 Q502 294 514 255 L485 118 Q451 66 392 27.5 Q333 -11 243 -13 L216 -58 L231 -58 Q259 -58 279 -71.5 Q299 -85 305 -102 L290 -170 Q276 -191 251.5 -204 Q227 -217 194 -217 Q139 -217 105 -192 L124 -160 Q156 -182 196 -182 Q216 -182 231 -174 Q246 -166 253 -155 L262 -113 Q259 -104 247.5 -97 Q236 -90 216 -90 L159 -90 L203 -11 Q147 -6 106.5 15.5 Q66 37 42.5 64.5 Q19 92 10 118 L19 156 L66 156 Q79 105 123 71.5 Q167 38 240 38 Q306 38 355 68 Q404 98 431 139 L452 239 Q446 265 420.5 285 Q395 305 333 325 L253 350 Q183 372 152 394.5 Q121 417 104 456 L135 599 Q171 647 230 680 Q289 713 372 713 Q455 713 507 678.5 Q559 644 577 599 Z " />
<glyph glyph-name="Scommaaccent" unicode="&#x218;" horiz-adv-x="572" d="M577 599 L569 561 L522 561 Q510 607 469.5 634.5 Q429 662 365 662 Q310 662 263.5 638 Q217 614 189 578 L167 472 Q175 447 199 432 Q223 417 284 397 L361 373 Q439 348 470.5 321 Q502 294 514 255 L485 118 Q449 65 389 26 Q329 -13 236 -13 Q170 -13 122 8.5 Q74 30 46.5 60 Q19 90 10 118 L19 156 L66 156 Q79 105 123 71.5 Q167 38 240 38 Q306 38 355 68 Q404 98 431 139 L452 239 Q446 265 420.5 285 Q395 305 333 325 L253 350 Q183 372 152 394.5 Q121 417 104 456 L135 599 Q171 647 230 680 Q289 713 372 713 Q455 713 507 678.5 Q559 644 577 599 Z M166 -169 L179 -169 Q190 -169 198 -161 L204 -130 Q193 -130 184 -126.5 Q175 -123 173 -119 L182 -79 Q191 -68 217 -68 Q241 -68 247 -79 L230 -164 Q225 -176 212 -184.5 Q199 -193 181 -193 L161 -193 L166 -169 Z " />
<glyph glyph-name="Tcaron" unicode="&#x164;" horiz-adv-x="524" d="M581 650 L374 650 L234 0 L174 0 L314 650 L107 650 L118 700 L592 700 L581 650 Z M404 754 L329 754 L262 886 L266 902 L300 902 L369 785 L490 902 L531 902 L527 886 L404 754 Z " />
<glyph glyph-name="uni021A" unicode="&#x21a;" horiz-adv-x="524" d="M581 650 L374 650 L234 0 L174 0 L314 650 L107 650 L118 700 L592 700 L581 650 Z M139 -169 L152 -169 Q163 -169 171 -161 L177 -130 Q166 -130 157 -126.5 Q148 -123 146 -119 L155 -79 Q164 -68 190 -68 Q214 -68 220 -79 L203 -164 Q198 -176 185 -184.5 Q172 -193 154 -193 L134 -193 L139 -169 Z " />
<glyph glyph-name="Tbar" unicode="&#x166;" horiz-adv-x="524" d="M383 650 L330 403 L481 403 L472 361 L321 361 L243 0 L183 0 L261 361 L112 361 L121 403 L270 403 L323 650 L116 650 L127 700 L601 700 L590 650 L383 650 Z " />
<glyph glyph-name="Ugrave" unicode="&#xd9;" horiz-adv-x="644" d="M538 139 Q503 77 435 32 Q367 -13 270 -13 Q173 -13 118.5 32.5 Q64 78 50 139 L171 700 L231 700 L113 153 Q123 104 163.5 71.5 Q204 39 273 39 Q341 39 396.5 72.5 Q452 106 483 156 L599 700 L659 700 L538 139 Z M436 770 L433 754 L396 754 L341 872 L347 902 L393 902 L436 770 Z " />
<glyph glyph-name="Uacute" unicode="&#xda;" horiz-adv-x="644" d="M538 139 Q503 77 435 32 Q367 -13 270 -13 Q173 -13 118.5 32.5 Q64 78 50 139 L171 700 L231 700 L113 153 Q123 104 163.5 71.5 Q204 39 273 39 Q341 39 396.5 72.5 Q452 106 483 156 L599 700 L659 700 L538 139 Z M443 754 L400 754 L403 770 L503 902 L556 902 L549 872 L443 754 Z " />
<glyph glyph-name="Ucircumflex" unicode="&#xdb;" horiz-adv-x="644" d="M538 139 Q503 77 435 32 Q367 -13 270 -13 Q173 -13 118.5 32.5 Q64 78 50 139 L171 700 L231 700 L113 153 Q123 104 163.5 71.5 Q204 39 273 39 Q341 39 396.5 72.5 Q452 106 483 156 L599 700 L659 700 L538 139 Z M525 754 L455 870 L335 754 L294 754 L298 770 L421 902 L496 902 L562 770 L559 754 L525 754 Z " />
<glyph glyph-name="Utilde" unicode="&#x168;" horiz-adv-x="644" d="M538 139 Q503 77 435 32 Q367 -13 270 -13 Q173 -13 118.5 32.5 Q64 78 50 139 L171 700 L231 700 L113 153 Q123 104 163.5 71.5 Q204 39 273 39 Q341 39 396.5 72.5 Q452 106 483 156 L599 700 L659 700 L538 139 Z M450 826 Q465 814 477 807.5 Q489 801 502 801 Q519 801 532.5 809.5 Q546 818 555 832 L558 851 L597 851 L589 816 Q560 761 499 761 Q478 761 462.5 769 Q447 777 428 792 Q411 805 400.5 810.5 Q390 816 377 816 Q358 816 343.5 807 Q329 798 321 786 L317 766 L279 766 L286 801 Q302 828 326 842.5 Q350 857 380 857 Q401 857 416 849 Q431 841 450 826 Z " />
<glyph glyph-name="Udieresis" unicode="&#xdc;" horiz-adv-x="644" d="M538 139 Q503 77 435 32 Q367 -13 270 -13 Q173 -13 118.5 32.5 Q64 78 50 139 L171 700 L231 700 L113 153 Q123 104 163.5 71.5 Q204 39 273 39 Q341 39 396.5 72.5 Q452 106 483 156 L599 700 L659 700 L538 139 Z M386 841 L376 792 Q371 787 360.5 783 Q350 779 337 779 Q324 779 315.5 783 Q307 787 304 792 L314 841 Q319 846 329.5 850 Q340 854 353 854 Q366 854 374.5 850 Q383 846 386 841 Z M576 841 L566 792 Q561 787 550.5 783 Q540 779 527 779 Q514 779 505.5 783 Q497 787 494 792 L504 841 Q509 846 519.5 850 Q530 854 543 854 Q556 854 564.5 850 Q573 846 576 841 Z " />
<glyph glyph-name="Umacron" unicode="&#x16a;" horiz-adv-x="644" d="M538 139 Q503 77 435 32 Q367 -13 270 -13 Q173 -13 118.5 32.5 Q64 78 50 139 L171 700 L231 700 L113 153 Q123 104 163.5 71.5 Q204 39 273 39 Q341 39 396.5 72.5 Q452 106 483 156 L599 700 L659 700 L538 139 Z M580 781 L285 781 L294 825 L589 825 L580 781 Z " />
<glyph glyph-name="Ubreve" unicode="&#x16c;" horiz-adv-x="644" d="M538 139 Q503 77 435 32 Q367 -13 270 -13 Q173 -13 118.5 32.5 Q64 78 50 139 L171 700 L231 700 L113 153 Q123 104 163.5 71.5 Q204 39 273 39 Q341 39 396.5 72.5 Q452 106 483 156 L599 700 L659 700 L538 139 Z M569 816 Q554 789 520.5 768 Q487 747 434 747 Q382 747 351 768.5 Q320 790 311 816 L321 865 L366 865 L359 829 Q361 815 379.5 800 Q398 785 434 785 Q472 785 494.5 799.5 Q517 814 525 829 L533 865 L579 865 L569 816 Z " />
<glyph glyph-name="Uring" unicode="&#x16e;" horiz-adv-x="644" d="M538 139 Q503 77 435 32 Q367 -13 270 -13 Q173 -13 118.5 32.5 Q64 78 50 139 L171 700 L231 700 L113 153 Q123 104 163.5 71.5 Q204 39 273 39 Q341 39 396.5 72.5 Q452 106 483 156 L599 700 L659 700 L538 139 Z M537 820 L520 736 Q505 715 478.5 701.5 Q452 688 418 688 Q384 688 359 702 Q334 716 327 736 L344 820 Q358 840 385.5 854 Q413 868 446 868 Q480 868 504.5 854 Q529 840 537 820 Z M378 808 L365 748 Q370 737 383.5 729.5 Q397 722 420 722 Q443 722 459.5 729.5 Q476 737 485 748 L498 808 Q494 819 480.5 826.5 Q467 834 444 834 Q404 834 378 808 Z " />
<glyph glyph-name="Uhungarumlaut" unicode="&#x170;" horiz-adv-x="644" d="M538 139 Q503 77 435 32 Q367 -13 270 -13 Q173 -13 118.5 32.5 Q64 78 50 139 L171 700 L231 700 L113 153 Q123 104 163.5 71.5 Q204 39 273 39 Q341 39 396.5 72.5 Q452 106 483 156 L599 700 L659 700 L538 139 Z M449 874 L362 754 L326 754 L329 770 L410 902 L455 902 L449 874 Z M617 874 L531 754 L494 754 L497 770 L578 902 L623 902 L617 874 Z " />
<glyph glyph-name="Uogonek" unicode="&#x172;" horiz-adv-x="644" d="M659 700 L538 139 Q502 76 432 29 Q378 -9 334 -49.5 Q290 -90 277 -108 L269 -146 Q271 -155 285 -162 Q299 -169 318 -169 Q335 -169 347.5 -166.5 Q360 -164 376 -157 L368 -196 Q338 -210 305 -210 Q274 -210 249.5 -196.5 Q225 -183 220 -163 L235 -98 Q261 -55 333 -6 Q305 -13 270 -13 Q173 -13 118.5 32.5 Q64 78 50 139 L171 700 L231 700 L113 153 Q123 104 163.5 71.5 Q204 39 273 39 Q341 39 396.5 72.5 Q452 106 483 156 L599 700 L659 700 Z " />
<glyph glyph-name="Wgrave" unicode="&#x1e80;" horiz-adv-x="882" d="M927 658 L643 0 L556 0 L516 620 L513 620 L207 0 L122 0 L122 658 L131 700 L180 700 L177 57 L180 57 L495 700 L565 700 L605 57 L608 57 L882 700 L936 700 L927 658 Z M555 770 L552 754 L515 754 L460 872 L466 902 L512 902 L555 770 Z " />
<glyph glyph-name="Wacute" unicode="&#x1e82;" horiz-adv-x="882" d="M927 658 L643 0 L556 0 L516 620 L513 620 L207 0 L122 0 L122 658 L131 700 L180 700 L177 57 L180 57 L495 700 L565 700 L605 57 L608 57 L882 700 L936 700 L927 658 Z M562 754 L519 754 L522 770 L622 902 L675 902 L668 872 L562 754 Z " />
<glyph glyph-name="Wcircumflex" unicode="&#x174;" horiz-adv-x="882" d="M927 658 L643 0 L556 0 L516 620 L513 620 L207 0 L122 0 L122 658 L131 700 L180 700 L177 57 L180 57 L495 700 L565 700 L605 57 L608 57 L882 700 L936 700 L927 658 Z M644 754 L574 870 L454 754 L413 754 L417 770 L540 902 L615 902 L681 770 L678 754 L644 754 Z " />
<glyph glyph-name="Wdieresis" unicode="&#x1e84;" horiz-adv-x="882" d="M927 658 L643 0 L556 0 L516 620 L513 620 L207 0 L122 0 L122 658 L131 700 L180 700 L177 57 L180 57 L495 700 L565 700 L605 57 L608 57 L882 700 L936 700 L927 658 Z M504 841 L494 792 Q489 787 478.5 783 Q468 779 455 779 Q442 779 433.5 783 Q425 787 422 792 L432 841 Q437 846 447.5 850 Q458 854 471 854 Q484 854 492.5 850 Q501 846 504 841 Z M694 841 L684 792 Q679 787 668.5 783 Q658 779 645 779 Q632 779 623.5 783 Q615 787 612 792 L622 841 Q627 846 637.5 850 Q648 854 661 854 Q674 854 682.5 850 Q691 846 694 841 Z " />
<glyph glyph-name="Ygrave" unicode="&#x1ef2;" horiz-adv-x="545" d="M311 311 L244 0 L183 0 L252 315 L121 658 L130 700 L167 700 L290 371 L292 371 L554 700 L600 700 L591 658 L311 311 Z M387 770 L384 754 L347 754 L292 872 L298 902 L344 902 L387 770 Z " />
<glyph glyph-name="Yacute" unicode="&#xdd;" horiz-adv-x="545" d="M311 311 L244 0 L183 0 L252 315 L121 658 L130 700 L167 700 L290 371 L292 371 L554 700 L600 700 L591 658 L311 311 Z M393 754 L350 754 L353 770 L453 902 L506 902 L499 872 L393 754 Z " />
<glyph glyph-name="Ycircumflex" unicode="&#x176;" horiz-adv-x="545" d="M311 311 L244 0 L183 0 L252 315 L121 658 L130 700 L167 700 L290 371 L292 371 L554 700 L600 700 L591 658 L311 311 Z M475 754 L405 870 L285 754 L244 754 L248 770 L371 902 L446 902 L512 770 L509 754 L475 754 Z " />
<glyph glyph-name="Ydieresis" unicode="&#x178;" horiz-adv-x="545" d="M311 311 L244 0 L183 0 L252 315 L121 658 L130 700 L167 700 L290 371 L292 371 L554 700 L600 700 L591 658 L311 311 Z M336 841 L326 792 Q321 787 310.5 783 Q300 779 287 779 Q274 779 265.5 783 Q257 787 254 792 L264 841 Q269 846 279.5 850 Q290 854 303 854 Q316 854 324.5 850 Q333 846 336 841 Z M526 841 L516 792 Q511 787 500.5 783 Q490 779 477 779 Q464 779 455.5 783 Q447 787 444 792 L454 841 Q459 846 469.5 850 Q480 854 493 854 Q506 854 514.5 850 Q523 846 526 841 Z " />
<glyph glyph-name="Zacute" unicode="&#x179;" horiz-adv-x="566" d="M599 658 L80 50 L468 50 L457 0 L-8 0 L2 42 L521 650 L141 650 L152 700 L608 700 L599 658 Z M404 754 L361 754 L364 770 L464 902 L517 902 L510 872 L404 754 Z " />
<glyph glyph-name="Zcaron" unicode="&#x17d;" horiz-adv-x="566" d="M599 658 L80 50 L468 50 L457 0 L-8 0 L2 42 L521 650 L141 650 L152 700 L608 700 L599 658 Z M425 754 L350 754 L283 886 L287 902 L321 902 L390 785 L511 902 L552 902 L548 886 L425 754 Z " />
<glyph glyph-name="Zdotaccent" unicode="&#x17b;" horiz-adv-x="566" d="M599 658 L80 50 L468 50 L457 0 L-8 0 L2 42 L521 650 L141 650 L152 700 L608 700 L599 658 Z M444 845 L434 803 Q430 797 418.5 792 Q407 787 394 787 Q380 787 371.5 792 Q363 797 361 803 L370 845 Q375 852 386 857 Q397 862 411 862 Q425 862 433 857 Q441 852 444 845 Z " />
<glyph glyph-name="Eng" unicode="&#x14a;" horiz-adv-x="657" d="M511 -23 Q473 -90 403 -130.5 Q333 -171 239 -171 Q209 -171 193 -169 L203 -120 Q219 -122 245 -122 Q304 -122 355.5 -94 Q407 -66 444 -20 L220 627 L217 627 L82 0 L25 0 L175 700 L253 700 L472 73 L475 73 L609 700 L667 700 L511 -23 Z " />
<glyph glyph-name="Eth" unicode="&#xd0;" horiz-adv-x="650" d="M645 562 L554 138 Q519 78 451 39 Q383 0 288 0 L51 0 L123 331 L59 331 L70 381 L133 381 L202 700 L427 700 Q523 700 577.5 659.5 Q632 619 645 562 Z M582 548 Q572 595 530 622.5 Q488 650 416 650 L251 650 L194 381 L389 381 L378 331 L183 331 L123 50 L286 50 Q357 50 411.5 80.5 Q466 111 497 158 L582 548 Z " />
<glyph glyph-name="Thorn" unicode="&#xde;" horiz-adv-x="560" d="M552 461 L513 279 Q476 223 418.5 192.5 Q361 162 293 162 L119 162 L85 0 L25 0 L175 700 L235 700 L209 579 L362 579 Q436 579 484 548 Q532 517 552 461 Z M489 445 Q475 487 439 507.5 Q403 528 354 528 L198 528 L130 213 L289 213 Q339 213 383 235.5 Q427 258 459 302 L489 445 Z " />
<glyph glyph-name="a" unicode="a" horiz-adv-x="535" d="M499 419 L408 0 L354 0 L367 60 Q336 28 291 7.5 Q246 -13 189 -13 Q116 -13 73.5 13.5 Q31 40 13 71 L47 230 Q67 259 116 286.5 Q165 314 237 314 L421 314 L440 407 Q434 447 398 474 Q362 501 304 501 Q249 501 209 477.5 Q169 454 148 423 L98 423 L105 455 Q132 489 182 519 Q232 549 308 549 Q365 549 406 529 Q447 509 470 479 Q493 449 499 419 Z M411 269 L252 269 Q154 269 97 209 L73 90 Q85 70 116 52 Q147 34 200 34 Q256 34 302.5 58.5 Q349 83 378 118 L411 269 Z " />
<glyph glyph-name="b" unicode="b" horiz-adv-x="540" d="M518 443 L442 92 Q367 -12 241 -12 Q185 -12 145.5 7.5 Q106 27 82 57 L69 0 L15 0 L166 700 L221 700 L175 486 Q244 548 343 548 Q396 548 433.5 530.5 Q471 513 491 489 Q511 465 518 443 Z M459 430 Q449 456 416 478 Q383 500 329 500 Q276 500 234 480 Q192 460 163 429 L93 105 Q112 75 149 55.5 Q186 36 236 36 Q292 36 330.5 58 Q369 80 390 109 L459 430 Z " />
<glyph glyph-name="c" unicode="c" horiz-adv-x="520" d="M512 423 L505 391 L463 391 Q455 440 418 470.5 Q381 501 319 501 Q261 501 215 472.5 Q169 444 144 403 L85 128 Q94 88 129 61.5 Q164 35 222 35 Q283 35 329 65 Q375 95 404 145 L452 145 L445 113 Q417 62 360 24.5 Q303 -13 220 -13 Q163 -13 121.5 6.5 Q80 26 56.5 56 Q33 86 27 117 L93 419 Q123 472 181 510.5 Q239 549 323 549 Q379 549 419.5 529.5 Q460 510 483 481 Q506 452 512 423 Z " />
<glyph glyph-name="d" unicode="d" horiz-adv-x="540" d="M560 700 L409 0 L355 0 L367 53 Q298 -12 198 -12 Q145 -12 107.5 5.5 Q70 23 49.5 47 Q29 71 22 92 L98 443 Q126 483 176 515.5 Q226 548 302 548 Q357 548 396 530 Q435 512 457 483 L504 700 L560 700 Z M211 36 Q264 36 306 56.5 Q348 77 377 108 L447 435 Q429 464 393 482 Q357 500 306 500 Q252 500 212.5 477.5 Q173 455 149 427 L81 106 Q92 79 123.5 57.5 Q155 36 211 36 Z " />
<glyph glyph-name="e" unicode="e" horiz-adv-x="534" d="M512 423 L479 269 L116 269 L86 128 Q94 88 129 61.5 Q164 35 222 35 Q282 35 327 64.5 Q372 94 401 145 L452 145 L445 113 Q416 62 359 24.5 Q302 -13 218 -13 Q161 -13 120 7 Q79 27 56 56.5 Q33 86 27 117 L93 419 Q122 471 180.5 510 Q239 549 322 549 Q378 549 419 529.5 Q460 510 483 481 Q506 452 512 423 Z M144 403 L126 314 L435 314 L455 407 Q449 447 413 474 Q377 501 318 501 Q260 501 215 473 Q170 445 144 403 Z " />
<glyph glyph-name="f" unicode="f" horiz-adv-x="335" d="M425 709 L415 666 Q395 670 362 670 Q307 670 274.5 650.5 Q242 631 227 607 L212 536 L368 536 L358 491 L202 491 L96 0 L40 0 L146 491 L70 491 L81 536 L156 536 L175 626 Q194 661 237.5 689 Q281 717 352 717 Q376 717 396.5 714.5 Q417 712 425 709 Z " />
<glyph glyph-name="g" unicode="g" horiz-adv-x="540" d="M525 536 L397 -57 Q367 -109 310 -143.5 Q253 -178 169 -178 Q113 -178 72.5 -161 Q32 -144 9.5 -120.5 Q-13 -97 -22 -75 L-15 -42 L26 -42 Q40 -81 78 -105.5 Q116 -130 175 -130 Q233 -130 275.5 -106 Q318 -82 345 -41 L372 82 Q300 18 203 18 Q150 18 112.5 35.5 Q75 53 55 77 Q35 101 28 123 L98 443 Q126 483 176 515.5 Q226 548 302 548 Q358 548 396.5 529.5 Q435 511 459 482 L471 536 L525 536 Z M384 140 L447 435 Q430 463 394 481.5 Q358 500 306 500 Q252 500 212.5 477.5 Q173 455 149 427 L87 136 Q98 109 129 87.5 Q160 66 215 66 Q268 66 312 87 Q356 108 384 140 Z " />
<glyph glyph-name="h" unicode="h" horiz-adv-x="549" d="M519 443 L423 0 L367 0 L459 430 Q448 457 416 478.5 Q384 500 328 500 Q276 500 233.5 479.5 Q191 459 163 428 L71 0 L15 0 L166 700 L221 700 L175 486 Q246 548 342 548 Q419 548 462.5 514 Q506 480 519 443 Z " />
<glyph glyph-name="i" unicode="i" horiz-adv-x="210" d="M75 0 L19 0 L135 536 L191 536 L75 0 Z M234 698 L225 656 Q220 650 209.5 645 Q199 640 185 640 Q171 640 162 645 Q153 650 151 656 L161 698 Q165 705 176.5 710 Q188 715 201 715 Q215 715 223 710 Q231 705 234 698 Z " />
<glyph glyph-name="j" unicode="j" horiz-adv-x="202" d="M61 -49 Q31 -104 -30 -141.5 Q-91 -179 -175 -179 L-166 -132 Q-110 -132 -63.5 -102.5 Q-17 -73 9 -30 L131 536 L187 536 L61 -49 Z M230 698 L221 656 Q216 650 205.5 645 Q195 640 181 640 Q167 640 158 645 Q149 650 147 656 L157 698 Q161 705 172.5 710 Q184 715 197 715 Q211 715 219 710 Q227 705 230 698 Z " />
<glyph glyph-name="k" unicode="k" horiz-adv-x="498" d="M420 0 L386 0 L233 282 L110 182 L71 0 L15 0 L166 700 L221 700 L125 255 L468 536 L507 536 L498 497 L277 317 L429 38 L420 0 Z " />
<glyph glyph-name="l" unicode="l" horiz-adv-x="202" d="M71 0 L15 0 L166 700 L222 700 L71 0 Z " />
<glyph glyph-name="m" unicode="m" horiz-adv-x="796" d="M766 452 L669 0 L613 0 L708 437 Q701 463 675.5 481.5 Q650 500 604 500 Q560 500 524 481.5 Q488 463 463 434 L370 0 L314 0 L409 437 Q401 463 376 481.5 Q351 500 306 500 Q262 500 225 481 Q188 462 163 433 L71 0 L15 0 L131 536 L184 536 L173 486 Q231 548 319 548 Q373 548 406.5 527 Q440 506 457 477 Q485 508 526 528 Q567 548 619 548 Q686 548 721 517.5 Q756 487 766 452 Z " />
<glyph glyph-name="n" unicode="n" horiz-adv-x="549" d="M518 443 L422 0 L366 0 L459 430 Q448 456 416.5 478 Q385 500 331 500 Q277 500 233 480 Q189 460 163 429 L71 0 L15 0 L131 536 L184 536 L173 485 Q205 513 248 530.5 Q291 548 344 548 Q420 548 462.5 514.5 Q505 481 518 443 Z " />
<glyph glyph-name="o" unicode="o" horiz-adv-x="541" d="M514 419 L448 117 Q417 64 359.5 25.5 Q302 -13 218 -13 Q161 -13 120 6.5 Q79 26 56 56 Q33 86 27 117 L93 419 Q124 472 181.5 510.5 Q239 549 322 549 Q379 549 420 529.5 Q461 510 484 480 Q507 450 514 419 Z M144 401 L85 128 Q93 88 128 61.5 Q163 35 222 35 Q280 35 325.5 63.5 Q371 92 396 135 L455 408 Q447 448 412 474.5 Q377 501 319 501 Q261 501 215.5 472 Q170 443 144 401 Z " />
<glyph glyph-name="p" unicode="p" horiz-adv-x="540" d="M518 443 L442 92 Q367 -12 241 -12 Q186 -12 146 7 Q106 26 83 56 L35 -166 L-20 -166 L131 536 L185 536 L174 485 Q244 548 343 548 Q396 548 433.5 530.5 Q471 513 491 489 Q511 465 518 443 Z M459 430 Q449 456 416 478 Q383 500 329 500 Q277 500 234 480 Q191 460 163 429 L94 105 Q112 75 149 55.5 Q186 36 236 36 Q292 36 330.5 58 Q369 80 390 109 L459 430 Z " />
<glyph glyph-name="q" unicode="q" horiz-adv-x="540" d="M525 536 L374 -166 L318 -166 L364 51 Q295 -12 198 -12 Q145 -12 107.5 5.5 Q70 23 49.5 47 Q29 71 22 92 L98 443 Q126 483 176 515.5 Q226 548 302 548 Q358 548 397 529.5 Q436 511 459 481 L471 536 L525 536 Z M377 108 L447 436 Q429 464 393 482 Q357 500 306 500 Q252 500 212.5 477.5 Q173 455 149 427 L81 106 Q92 79 123.5 57.5 Q155 36 211 36 Q263 36 305.5 56.5 Q348 77 377 108 Z " />
<glyph glyph-name="r" unicode="r" horiz-adv-x="341" d="M374 536 L363 483 L341 484 Q284 484 237 464.5 Q190 445 160 415 L71 0 L15 0 L131 536 L184 536 L169 467 Q243 537 346 537 Q363 537 374 536 Z " />
<glyph glyph-name="s" unicode="s" horiz-adv-x="474" d="M461 467 L454 435 L412 435 Q401 462 366.5 481.5 Q332 501 284 501 Q240 501 205 486 Q170 471 147 447 L129 363 Q138 347 159 334 Q180 321 221 308 L282 289 Q394 256 415 204 L388 81 Q361 44 311.5 15.5 Q262 -13 189 -13 Q113 -13 68 17 Q23 47 6 81 L13 113 L55 113 Q69 78 105 56.5 Q141 35 194 35 Q243 35 279.5 54 Q316 73 339 101 L358 187 Q350 206 327 219 Q304 232 261 245 L198 264 Q99 293 73 346 L99 467 Q122 497 171.5 523 Q221 549 290 549 Q357 549 400.5 523 Q444 497 461 467 Z " />
<glyph glyph-name="t" unicode="t" horiz-adv-x="346" d="M202 491 L118 99 Q126 76 151 57.5 Q176 39 230 39 Q245 39 281 43 L273 0 Q265 -3 247.5 -5.5 Q230 -8 212 -8 Q141 -8 106 19 Q71 46 58 82 L146 491 L70 491 L81 536 L156 536 L181 651 L236 651 L212 536 L368 536 L358 491 L202 491 Z " />
<glyph glyph-name="u" unicode="u" horiz-adv-x="540" d="M525 536 L409 0 L356 0 L366 48 Q302 -12 203 -12 Q129 -12 86 20.5 Q43 53 30 87 L126 536 L182 536 L89 103 Q99 78 131 57 Q163 36 216 36 Q314 36 376 102 L469 536 L525 536 Z " />
<glyph glyph-name="v" unicode="v" horiz-adv-x="502" d="M513 497 L230 0 L156 0 L87 497 L96 536 L138 536 L201 55 L204 55 L474 536 L522 536 L513 497 Z " />
<glyph glyph-name="w" unicode="w" horiz-adv-x="764" d="M773 497 L535 0 L464 0 L427 465 L424 465 L187 0 L115 0 L91 497 L100 536 L143 536 L161 57 L164 57 L407 536 L472 536 L507 57 L510 57 L734 536 L782 536 L773 497 Z " />
<glyph glyph-name="x" unicode="x" horiz-adv-x="468" d="M271 272 L376 39 L368 0 L333 0 L232 237 L229 237 L26 0 L-16 0 L-7 39 L199 276 L100 497 L108 536 L143 536 L239 311 L242 311 L433 536 L475 536 L467 497 L271 272 Z " />
<glyph glyph-name="y" unicode="y" horiz-adv-x="497" d="M471 536 L520 536 L511 498 L177 -98 Q141 -140 98 -156 Q55 -172 1 -172 Q-36 -172 -50 -168 L-40 -123 Q-26 -125 -1 -125 Q44 -125 74.5 -111.5 Q105 -98 130 -73 L168 -3 L93 495 L102 536 L144 536 L209 67 L212 67 L471 536 Z " />
<glyph glyph-name="z" unicode="z" horiz-adv-x="463" d="M479 496 L55 45 L382 45 L372 0 L-25 0 L-16 42 L405 491 L90 491 L100 536 L488 536 L479 496 Z " />
<glyph glyph-name="agrave" unicode="&#xe0;" horiz-adv-x="535" d="M499 419 L408 0 L354 0 L367 60 Q336 28 291 7.5 Q246 -13 189 -13 Q116 -13 73.5 13.5 Q31 40 13 71 L47 230 Q67 259 116 286.5 Q165 314 237 314 L421 314 L440 407 Q434 447 398 474 Q362 501 304 501 Q249 501 209 477.5 Q169 454 148 423 L98 423 L105 455 Q132 489 182 519 Q232 549 308 549 Q365 549 406 529 Q447 509 470 479 Q493 449 499 419 Z M411 269 L252 269 Q154 269 97 209 L73 90 Q85 70 116 52 Q147 34 200 34 Q256 34 302.5 58.5 Q349 83 378 118 L411 269 Z M361 607 L323 607 L270 732 L276 762 L323 762 L364 622 L361 607 Z " />
<glyph glyph-name="aacute" unicode="&#xe1;" horiz-adv-x="535" d="M499 419 L408 0 L354 0 L367 60 Q336 28 291 7.5 Q246 -13 189 -13 Q116 -13 73.5 13.5 Q31 40 13 71 L47 230 Q67 259 116 286.5 Q165 314 237 314 L421 314 L440 407 Q434 447 398 474 Q362 501 304 501 Q249 501 209 477.5 Q169 454 148 423 L98 423 L105 455 Q132 489 182 519 Q232 549 308 549 Q365 549 406 529 Q447 509 470 479 Q493 449 499 419 Z M411 269 L252 269 Q154 269 97 209 L73 90 Q85 70 116 52 Q147 34 200 34 Q256 34 302.5 58.5 Q349 83 378 118 L411 269 Z M472 732 L364 607 L320 607 L323 622 L425 762 L479 762 L472 732 Z " />
<glyph glyph-name="acircumflex" unicode="&#xe2;" horiz-adv-x="535" d="M499 419 L408 0 L354 0 L367 60 Q336 28 291 7.5 Q246 -13 189 -13 Q116 -13 73.5 13.5 Q31 40 13 71 L47 230 Q67 259 116 286.5 Q165 314 237 314 L421 314 L440 407 Q434 447 398 474 Q362 501 304 501 Q249 501 209 477.5 Q169 454 148 423 L98 423 L105 455 Q132 489 182 519 Q232 549 308 549 Q365 549 406 529 Q447 509 470 479 Q493 449 499 419 Z M411 269 L252 269 Q154 269 97 209 L73 90 Q85 70 116 52 Q147 34 200 34 Q256 34 302.5 58.5 Q349 83 378 118 L411 269 Z M475 622 L471 606 L438 606 L370 729 L248 606 L207 606 L211 622 L336 761 L411 761 L475 622 Z " />
<glyph glyph-name="atilde" unicode="&#xe3;" horiz-adv-x="535" d="M499 419 L408 0 L354 0 L367 60 Q336 28 291 7.5 Q246 -13 189 -13 Q116 -13 73.5 13.5 Q31 40 13 71 L47 230 Q67 259 116 286.5 Q165 314 237 314 L421 314 L440 407 Q434 447 398 474 Q362 501 304 501 Q249 501 209 477.5 Q169 454 148 423 L98 423 L105 455 Q132 489 182 519 Q232 549 308 549 Q365 549 406 529 Q447 509 470 479 Q493 449 499 419 Z M411 269 L252 269 Q154 269 97 209 L73 90 Q85 70 116 52 Q147 34 200 34 Q256 34 302.5 58.5 Q349 83 378 118 L411 269 Z M366 694 Q385 681 396.5 675.5 Q408 670 421 670 Q452 670 471 701 L475 719 L513 719 L506 685 Q475 629 420 629 Q399 629 382.5 637 Q366 645 345 659 Q328 672 315.5 678 Q303 684 289 684 Q270 684 258.5 675.5 Q247 667 238 654 L234 635 L196 635 L203 669 Q233 725 291 725 Q312 725 329 717 Q346 709 366 694 Z " />
<glyph glyph-name="adieresis" unicode="&#xe4;" horiz-adv-x="535" d="M499 419 L408 0 L354 0 L367 60 Q336 28 291 7.5 Q246 -13 189 -13 Q116 -13 73.5 13.5 Q31 40 13 71 L47 230 Q67 259 116 286.5 Q165 314 237 314 L421 314 L440 407 Q434 447 398 474 Q362 501 304 501 Q249 501 209 477.5 Q169 454 148 423 L98 423 L105 455 Q132 489 182 519 Q232 549 308 549 Q365 549 406 529 Q447 509 470 479 Q493 449 499 419 Z M411 269 L252 269 Q154 269 97 209 L73 90 Q85 70 116 52 Q147 34 200 34 Q256 34 302.5 58.5 Q349 83 378 118 L411 269 Z M301 699 L290 651 Q285 646 274.5 641.5 Q264 637 251 637 Q238 637 229.5 641.5 Q221 646 218 651 L228 699 Q233 704 244 708.5 Q255 713 268 713 Q290 713 301 699 Z M491 699 L480 651 Q475 646 464.5 641.5 Q454 637 441 637 Q428 637 419.5 641.5 Q411 646 408 651 L418 699 Q423 704 433.5 708.5 Q444 713 457 713 Q480 713 491 699 Z " />
<glyph glyph-name="amacron" unicode="&#x101;" horiz-adv-x="535" d="M499 419 L408 0 L354 0 L367 60 Q336 28 291 7.5 Q246 -13 189 -13 Q116 -13 73.5 13.5 Q31 40 13 71 L47 230 Q67 259 116 286.5 Q165 314 237 314 L421 314 L440 407 Q434 447 398 474 Q362 501 304 501 Q249 501 209 477.5 Q169 454 148 423 L98 423 L105 455 Q132 489 182 519 Q232 549 308 549 Q365 549 406 529 Q447 509 470 479 Q493 449 499 419 Z M411 269 L252 269 Q154 269 97 209 L73 90 Q85 70 116 52 Q147 34 200 34 Q256 34 302.5 58.5 Q349 83 378 118 L411 269 Z M499 662 L204 662 L213 706 L509 706 L499 662 Z " />
<glyph glyph-name="abreve" unicode="&#x103;" horiz-adv-x="535" d="M499 419 L408 0 L354 0 L367 60 Q336 28 291 7.5 Q246 -13 189 -13 Q116 -13 73.5 13.5 Q31 40 13 71 L47 230 Q67 259 116 286.5 Q165 314 237 314 L421 314 L440 407 Q434 447 398 474 Q362 501 304 501 Q249 501 209 477.5 Q169 454 148 423 L98 423 L105 455 Q132 489 182 519 Q232 549 308 549 Q365 549 406 529 Q447 509 470 479 Q493 449 499 419 Z M411 269 L252 269 Q154 269 97 209 L73 90 Q85 70 116 52 Q147 34 200 34 Q256 34 302.5 58.5 Q349 83 378 118 L411 269 Z M484 679 Q466 651 433 630.5 Q400 610 347 610 Q295 610 265 631.5 Q235 653 226 679 L236 728 L282 728 L274 692 Q276 678 294 663 Q312 648 349 648 Q386 648 409 662.5 Q432 677 441 692 L449 728 L494 728 L484 679 Z " />
<glyph glyph-name="aring" unicode="&#xe5;" horiz-adv-x="535" d="M499 419 L408 0 L354 0 L367 60 Q336 28 291 7.5 Q246 -13 189 -13 Q116 -13 73.5 13.5 Q31 40 13 71 L47 230 Q67 259 116 286.5 Q165 314 237 314 L421 314 L440 407 Q434 447 398 474 Q362 501 304 501 Q249 501 209 477.5 Q169 454 148 423 L98 423 L105 455 Q132 489 182 519 Q232 549 308 549 Q365 549 406 529 Q447 509 470 479 Q493 449 499 419 Z M411 269 L252 269 Q154 269 97 209 L73 90 Q85 70 116 52 Q147 34 200 34 Q256 34 302.5 58.5 Q349 83 378 118 L411 269 Z M463 732 L445 649 Q431 628 404 614 Q377 600 344 600 Q310 600 285 614.5 Q260 629 252 649 L270 732 Q284 753 311 767 Q338 781 372 781 Q405 781 430 766.5 Q455 752 463 732 Z M304 721 L291 660 Q296 650 310 642 Q324 634 346 634 Q385 634 411 660 L424 721 Q419 731 405 739 Q391 747 369 747 Q330 747 304 721 Z " />
<glyph glyph-name="aogonek" unicode="&#x105;" horiz-adv-x="535" d="M283 -108 L275 -146 Q277 -155 291 -162 Q305 -169 324 -169 Q341 -169 353.5 -166.5 Q366 -164 382 -157 L373 -196 Q345 -210 311 -210 Q280 -210 255.5 -196.5 Q231 -183 226 -163 L240 -98 Q253 -77 282 -50.5 Q311 -24 354 3 L367 60 Q336 28 291 7.5 Q246 -13 189 -13 Q116 -13 73.5 13.5 Q31 40 13 71 L47 230 Q67 259 116 286.5 Q165 314 237 314 L421 314 L440 407 Q434 447 398 474 Q362 501 304 501 Q249 501 209 477.5 Q169 454 148 423 L98 423 L105 455 Q132 489 182 519 Q232 549 308 549 Q365 549 406 529 Q447 509 470 479 Q493 449 499 419 L408 0 Q353 -35 323 -63.5 Q293 -92 283 -108 Z M378 118 L411 269 L252 269 Q154 269 97 209 L73 90 Q85 70 116 52 Q147 34 200 34 Q256 34 302.5 58.5 Q349 83 378 118 Z " />
<glyph glyph-name="ae" unicode="&#xe6;" horiz-adv-x="884" d="M467 269 L436 128 Q444 88 479 61.5 Q514 35 572 35 Q632 35 677.5 64.5 Q723 94 752 145 L803 145 L796 113 Q767 62 710 24.5 Q653 -13 569 -13 Q506 -13 462.5 11 Q419 35 396 72 Q360 35 308.5 11 Q257 -13 192 -13 Q117 -13 74 13.5 Q31 40 13 71 L47 230 Q67 259 116 286.5 Q165 314 237 314 L421 314 L442 411 Q431 449 395.5 475 Q360 501 304 501 Q249 501 209 477.5 Q169 454 148 423 L98 423 L105 455 Q132 489 182 519 Q232 549 308 549 Q370 549 412.5 526 Q455 503 479 467 Q514 503 562.5 526 Q611 549 673 549 Q729 549 770 529.5 Q811 510 833.5 481 Q856 452 862 423 L829 269 L467 269 Z M494 403 L476 314 L786 314 L806 407 Q800 447 764 474 Q728 501 669 501 Q611 501 566 473 Q521 445 494 403 Z M378 120 L411 269 L252 269 Q154 269 97 209 L73 90 Q85 70 116 52 Q147 34 200 34 Q255 34 301 59 Q347 84 378 120 Z " />
<glyph glyph-name="cacute" unicode="&#x107;" horiz-adv-x="520" d="M512 423 L505 391 L463 391 Q455 440 418 470.5 Q381 501 319 501 Q261 501 215 472.5 Q169 444 144 403 L85 128 Q94 88 129 61.5 Q164 35 222 35 Q283 35 329 65 Q375 95 404 145 L452 145 L445 113 Q417 62 360 24.5 Q303 -13 220 -13 Q163 -13 121.5 6.5 Q80 26 56.5 56 Q33 86 27 117 L93 419 Q123 472 181 510.5 Q239 549 323 549 Q379 549 419.5 529.5 Q460 510 483 481 Q506 452 512 423 Z M475 732 L367 607 L323 607 L326 622 L428 762 L482 762 L475 732 Z " />
<glyph glyph-name="ccircumflex" unicode="&#x109;" horiz-adv-x="520" d="M512 423 L505 391 L463 391 Q455 440 418 470.5 Q381 501 319 501 Q261 501 215 472.5 Q169 444 144 403 L85 128 Q94 88 129 61.5 Q164 35 222 35 Q283 35 329 65 Q375 95 404 145 L452 145 L445 113 Q417 62 360 24.5 Q303 -13 220 -13 Q163 -13 121.5 6.5 Q80 26 56.5 56 Q33 86 27 117 L93 419 Q123 472 181 510.5 Q239 549 323 549 Q379 549 419.5 529.5 Q460 510 483 481 Q506 452 512 423 Z M478 622 L474 606 L441 606 L373 729 L251 606 L210 606 L214 622 L339 761 L414 761 L478 622 Z " />
<glyph glyph-name="ccaron" unicode="&#x10d;" horiz-adv-x="520" d="M512 423 L505 391 L463 391 Q455 440 418 470.5 Q381 501 319 501 Q261 501 215 472.5 Q169 444 144 403 L85 128 Q94 88 129 61.5 Q164 35 222 35 Q283 35 329 65 Q375 95 404 145 L452 145 L445 113 Q417 62 360 24.5 Q303 -13 220 -13 Q163 -13 121.5 6.5 Q80 26 56.5 56 Q33 86 27 117 L93 419 Q123 472 181 510.5 Q239 549 323 549 Q379 549 419.5 529.5 Q460 510 483 481 Q506 452 512 423 Z M504 745 L380 606 L305 606 L240 745 L244 761 L278 761 L346 638 L468 761 L508 761 L504 745 Z " />
<glyph glyph-name="cdotaccent" unicode="&#x10b;" horiz-adv-x="520" d="M512 423 L505 391 L463 391 Q455 440 418 470.5 Q381 501 319 501 Q261 501 215 472.5 Q169 444 144 403 L85 128 Q94 88 129 61.5 Q164 35 222 35 Q283 35 329 65 Q375 95 404 145 L452 145 L445 113 Q417 62 360 24.5 Q303 -13 220 -13 Q163 -13 121.5 6.5 Q80 26 56.5 56 Q33 86 27 117 L93 419 Q123 472 181 510.5 Q239 549 323 549 Q379 549 419.5 529.5 Q460 510 483 481 Q506 452 512 423 Z M399 698 L390 656 Q385 650 374.5 645 Q364 640 350 640 Q336 640 327 645 Q318 650 316 656 L326 698 Q330 705 341.5 710 Q353 715 366 715 Q380 715 388 710 Q396 705 399 698 Z " />
<glyph glyph-name="ccedilla" unicode="&#xe7;" horiz-adv-x="520" d="M512 423 L505 391 L463 391 Q455 440 418 470.5 Q381 501 319 501 Q261 501 215 472.5 Q169 444 144 403 L85 128 Q94 88 129 61.5 Q164 35 222 35 Q283 35 329 65 Q375 95 404 145 L452 145 L445 113 Q416 63 360.5 25.5 Q305 -12 224 -13 L197 -58 L213 -58 Q242 -58 261.5 -71.5 Q281 -85 286 -102 L272 -170 Q257 -192 232.5 -204.5 Q208 -217 175 -217 Q148 -217 124.5 -210 Q101 -203 86 -192 L105 -160 Q137 -182 177 -182 Q197 -182 212 -174 Q227 -166 235 -155 L243 -113 Q240 -104 228.5 -97 Q217 -90 198 -90 L140 -90 L185 -11 Q117 -2 76.5 35.5 Q36 73 27 117 L93 419 Q123 472 181 510.5 Q239 549 323 549 Q379 549 419.5 529.5 Q460 510 483 481 Q506 452 512 423 Z " />
<glyph glyph-name="dcaron" unicode="&#x10f;" horiz-adv-x="668" d="M560 700 L409 0 L355 0 L367 53 Q298 -12 198 -12 Q145 -12 107.5 5.5 Q70 23 49.5 47 Q29 71 22 92 L98 443 Q126 483 176 515.5 Q226 548 302 548 Q357 548 396 530 Q435 512 457 483 L504 700 L560 700 Z M211 36 Q264 36 306 56.5 Q348 77 377 108 L447 435 Q429 464 393 482 Q357 500 306 500 Q252 500 212.5 477.5 Q173 455 149 427 L81 106 Q92 79 123.5 57.5 Q155 36 211 36 Z M724 667 L666 540 L629 540 L633 555 L681 700 L730 700 L724 667 Z " />
<glyph glyph-name="egrave" unicode="&#xe8;" horiz-adv-x="534" d="M512 423 L479 269 L116 269 L86 128 Q94 88 129 61.5 Q164 35 222 35 Q282 35 327 64.5 Q372 94 401 145 L452 145 L445 113 Q416 62 359 24.5 Q302 -13 218 -13 Q161 -13 120 7 Q79 27 56 56.5 Q33 86 27 117 L93 419 Q122 471 180.5 510 Q239 549 322 549 Q378 549 419 529.5 Q460 510 483 481 Q506 452 512 423 Z M144 403 L126 314 L435 314 L455 407 Q449 447 413 474 Q377 501 318 501 Q260 501 215 473 Q170 445 144 403 Z M370 607 L332 607 L279 732 L285 762 L332 762 L373 622 L370 607 Z " />
<glyph glyph-name="eacute" unicode="&#xe9;" horiz-adv-x="534" d="M512 423 L479 269 L116 269 L86 128 Q94 88 129 61.5 Q164 35 222 35 Q282 35 327 64.5 Q372 94 401 145 L452 145 L445 113 Q416 62 359 24.5 Q302 -13 218 -13 Q161 -13 120 7 Q79 27 56 56.5 Q33 86 27 117 L93 419 Q122 471 180.5 510 Q239 549 322 549 Q378 549 419 529.5 Q460 510 483 481 Q506 452 512 423 Z M144 403 L126 314 L435 314 L455 407 Q449 447 413 474 Q377 501 318 501 Q260 501 215 473 Q170 445 144 403 Z M482 732 L374 607 L330 607 L333 622 L435 762 L489 762 L482 732 Z " />
<glyph glyph-name="ecircumflex" unicode="&#xea;" horiz-adv-x="534" d="M512 423 L479 269 L116 269 L86 128 Q94 88 129 61.5 Q164 35 222 35 Q282 35 327 64.5 Q372 94 401 145 L452 145 L445 113 Q416 62 359 24.5 Q302 -13 218 -13 Q161 -13 120 7 Q79 27 56 56.5 Q33 86 27 117 L93 419 Q122 471 180.5 510 Q239 549 322 549 Q378 549 419 529.5 Q460 510 483 481 Q506 452 512 423 Z M144 403 L126 314 L435 314 L455 407 Q449 447 413 474 Q377 501 318 501 Q260 501 215 473 Q170 445 144 403 Z M485 622 L481 606 L448 606 L380 729 L258 606 L217 606 L221 622 L346 761 L421 761 L485 622 Z " />
<glyph glyph-name="ecaron" unicode="&#x11b;" horiz-adv-x="534" d="M512 423 L479 269 L116 269 L86 128 Q94 88 129 61.5 Q164 35 222 35 Q282 35 327 64.5 Q372 94 401 145 L452 145 L445 113 Q416 62 359 24.5 Q302 -13 218 -13 Q161 -13 120 7 Q79 27 56 56.5 Q33 86 27 117 L93 419 Q122 471 180.5 510 Q239 549 322 549 Q378 549 419 529.5 Q460 510 483 481 Q506 452 512 423 Z M144 403 L126 314 L435 314 L455 407 Q449 447 413 474 Q377 501 318 501 Q260 501 215 473 Q170 445 144 403 Z M511 745 L387 606 L312 606 L247 745 L251 761 L285 761 L353 638 L475 761 L515 761 L511 745 Z " />
<glyph glyph-name="edieresis" unicode="&#xeb;" horiz-adv-x="534" d="M512 423 L479 269 L116 269 L86 128 Q94 88 129 61.5 Q164 35 222 35 Q282 35 327 64.5 Q372 94 401 145 L452 145 L445 113 Q416 62 359 24.5 Q302 -13 218 -13 Q161 -13 120 7 Q79 27 56 56.5 Q33 86 27 117 L93 419 Q122 471 180.5 510 Q239 549 322 549 Q378 549 419 529.5 Q460 510 483 481 Q506 452 512 423 Z M144 403 L126 314 L435 314 L455 407 Q449 447 413 474 Q377 501 318 501 Q260 501 215 473 Q170 445 144 403 Z M310 699 L299 651 Q294 646 283.5 641.5 Q273 637 260 637 Q247 637 238.5 641.5 Q230 646 227 651 L237 699 Q242 704 253 708.5 Q264 713 277 713 Q299 713 310 699 Z M500 699 L489 651 Q484 646 473.5 641.5 Q463 637 450 637 Q437 637 428.5 641.5 Q420 646 417 651 L427 699 Q432 704 442.5 708.5 Q453 713 466 713 Q489 713 500 699 Z " />
<glyph glyph-name="emacron" unicode="&#x113;" horiz-adv-x="534" d="M512 423 L479 269 L116 269 L86 128 Q94 88 129 61.5 Q164 35 222 35 Q282 35 327 64.5 Q372 94 401 145 L452 145 L445 113 Q416 62 359 24.5 Q302 -13 218 -13 Q161 -13 120 7 Q79 27 56 56.5 Q33 86 27 117 L93 419 Q122 471 180.5 510 Q239 549 322 549 Q378 549 419 529.5 Q460 510 483 481 Q506 452 512 423 Z M144 403 L126 314 L435 314 L455 407 Q449 447 413 474 Q377 501 318 501 Q260 501 215 473 Q170 445 144 403 Z M508 662 L213 662 L222 706 L518 706 L508 662 Z " />
<glyph glyph-name="ebreve" unicode="&#x115;" horiz-adv-x="534" d="M512 423 L479 269 L116 269 L86 128 Q94 88 129 61.5 Q164 35 222 35 Q282 35 327 64.5 Q372 94 401 145 L452 145 L445 113 Q416 62 359 24.5 Q302 -13 218 -13 Q161 -13 120 7 Q79 27 56 56.5 Q33 86 27 117 L93 419 Q122 471 180.5 510 Q239 549 322 549 Q378 549 419 529.5 Q460 510 483 481 Q506 452 512 423 Z M144 403 L126 314 L435 314 L455 407 Q449 447 413 474 Q377 501 318 501 Q260 501 215 473 Q170 445 144 403 Z M494 679 Q476 651 443 630.5 Q410 610 357 610 Q305 610 275 631.5 Q245 653 236 679 L246 728 L292 728 L284 692 Q286 678 304 663 Q322 648 359 648 Q396 648 419 662.5 Q442 677 451 692 L459 728 L504 728 L494 679 Z " />
<glyph glyph-name="edotaccent" unicode="&#x117;" horiz-adv-x="534" d="M512 423 L479 269 L116 269 L86 128 Q94 88 129 61.5 Q164 35 222 35 Q282 35 327 64.5 Q372 94 401 145 L452 145 L445 113 Q416 62 359 24.5 Q302 -13 218 -13 Q161 -13 120 7 Q79 27 56 56.5 Q33 86 27 117 L93 419 Q122 471 180.5 510 Q239 549 322 549 Q378 549 419 529.5 Q460 510 483 481 Q506 452 512 423 Z M144 403 L126 314 L435 314 L455 407 Q449 447 413 474 Q377 501 318 501 Q260 501 215 473 Q170 445 144 403 Z M406 698 L397 656 Q392 650 381.5 645 Q371 640 357 640 Q343 640 334 645 Q325 650 323 656 L333 698 Q337 705 348.5 710 Q360 715 373 715 Q387 715 395 710 Q403 705 406 698 Z " />
<glyph glyph-name="eogonek" unicode="&#x119;" horiz-adv-x="534" d="M116 269 L86 128 Q94 88 129 61.5 Q164 35 222 35 Q282 35 327 64.5 Q372 94 401 145 L452 145 L445 113 Q427 79 382 39 Q331 -7 299.5 -48 Q268 -89 260 -108 L252 -146 Q254 -155 268 -162 Q282 -169 301 -169 Q318 -169 330.5 -166.5 Q343 -164 359 -157 L351 -196 Q321 -210 288 -210 Q257 -210 232.5 -196.5 Q208 -183 203 -163 L217 -98 Q226 -81 246 -55.5 Q266 -30 294 -3 Q256 -13 218 -13 Q161 -13 120 7 Q79 27 56 56.5 Q33 86 27 117 L93 419 Q122 471 180.5 510 Q239 549 322 549 Q378 549 419 529.5 Q460 510 483 481 Q506 452 512 423 L479 269 L116 269 Z M126 314 L435 314 L455 407 Q449 447 413 474 Q377 501 318 501 Q260 501 215 473 Q170 445 144 403 L126 314 Z " />
<glyph glyph-name="gcircumflex" unicode="&#x11d;" horiz-adv-x="540" d="M525 536 L397 -57 Q367 -109 310 -143.5 Q253 -178 169 -178 Q113 -178 72.5 -161 Q32 -144 9.5 -120.5 Q-13 -97 -22 -75 L-15 -42 L26 -42 Q40 -81 78 -105.5 Q116 -130 175 -130 Q233 -130 275.5 -106 Q318 -82 345 -41 L372 82 Q300 18 203 18 Q150 18 112.5 35.5 Q75 53 55 77 Q35 101 28 123 L98 443 Q126 483 176 515.5 Q226 548 302 548 Q358 548 396.5 529.5 Q435 511 459 482 L471 536 L525 536 Z M384 140 L447 435 Q430 463 394 481.5 Q358 500 306 500 Q252 500 212.5 477.5 Q173 455 149 427 L87 136 Q98 109 129 87.5 Q160 66 215 66 Q268 66 312 87 Q356 108 384 140 Z M478 622 L474 606 L441 606 L373 729 L251 606 L210 606 L214 622 L339 761 L414 761 L478 622 Z " />
<glyph glyph-name="gbreve" unicode="&#x11f;" horiz-adv-x="540" d="M525 536 L397 -57 Q367 -109 310 -143.5 Q253 -178 169 -178 Q113 -178 72.5 -161 Q32 -144 9.5 -120.5 Q-13 -97 -22 -75 L-15 -42 L26 -42 Q40 -81 78 -105.5 Q116 -130 175 -130 Q233 -130 275.5 -106 Q318 -82 345 -41 L372 82 Q300 18 203 18 Q150 18 112.5 35.5 Q75 53 55 77 Q35 101 28 123 L98 443 Q126 483 176 515.5 Q226 548 302 548 Q358 548 396.5 529.5 Q435 511 459 482 L471 536 L525 536 Z M384 140 L447 435 Q430 463 394 481.5 Q358 500 306 500 Q252 500 212.5 477.5 Q173 455 149 427 L87 136 Q98 109 129 87.5 Q160 66 215 66 Q268 66 312 87 Q356 108 384 140 Z M487 679 Q469 651 436 630.5 Q403 610 350 610 Q298 610 268 631.5 Q238 653 229 679 L239 728 L285 728 L277 692 Q279 678 297 663 Q315 648 352 648 Q389 648 412 662.5 Q435 677 444 692 L452 728 L497 728 L487 679 Z " />
<glyph glyph-name="gdotaccent" unicode="&#x121;" horiz-adv-x="540" d="M525 536 L397 -57 Q367 -109 310 -143.5 Q253 -178 169 -178 Q113 -178 72.5 -161 Q32 -144 9.5 -120.5 Q-13 -97 -22 -75 L-15 -42 L26 -42 Q40 -81 78 -105.5 Q116 -130 175 -130 Q233 -130 275.5 -106 Q318 -82 345 -41 L372 82 Q300 18 203 18 Q150 18 112.5 35.5 Q75 53 55 77 Q35 101 28 123 L98 443 Q126 483 176 515.5 Q226 548 302 548 Q358 548 396.5 529.5 Q435 511 459 482 L471 536 L525 536 Z M384 140 L447 435 Q430 463 394 481.5 Q358 500 306 500 Q252 500 212.5 477.5 Q173 455 149 427 L87 136 Q98 109 129 87.5 Q160 66 215 66 Q268 66 312 87 Q356 108 384 140 Z M399 698 L390 656 Q385 650 374.5 645 Q364 640 350 640 Q336 640 327 645 Q318 650 316 656 L326 698 Q330 705 341.5 710 Q353 715 366 715 Q380 715 388 710 Q396 705 399 698 Z " />
<glyph glyph-name="gcommaaccent" unicode="&#x123;" horiz-adv-x="540" d="M525 536 L397 -57 Q367 -109 310 -143.5 Q253 -178 169 -178 Q113 -178 72.5 -161 Q32 -144 9.5 -120.5 Q-13 -97 -22 -75 L-15 -42 L26 -42 Q40 -81 78 -105.5 Q116 -130 175 -130 Q233 -130 275.5 -106 Q318 -82 345 -41 L372 82 Q300 18 203 18 Q150 18 112.5 35.5 Q75 53 55 77 Q35 101 28 123 L98 443 Q126 483 176 515.5 Q226 548 302 548 Q358 548 396.5 529.5 Q435 511 459 482 L471 536 L525 536 Z M384 140 L447 435 Q430 463 394 481.5 Q358 500 306 500 Q252 500 212.5 477.5 Q173 455 149 427 L87 136 Q98 109 129 87.5 Q160 66 215 66 Q268 66 312 87 Q356 108 384 140 Z M305 708 L298 674 Q325 674 332 659 L325 625 Q321 618 311 613.5 Q301 609 287 609 Q274 609 265 613.5 Q256 618 253 625 L271 712 Q276 722 290 732 Q304 742 323 742 L344 742 L339 715 L327 715 Q321 715 314.5 713 Q308 711 305 708 Z " />
<glyph glyph-name="hcircumflex" unicode="&#x125;" horiz-adv-x="549" d="M519 443 L423 0 L367 0 L459 430 Q448 457 416 478.5 Q384 500 328 500 Q276 500 233.5 479.5 Q191 459 163 428 L71 0 L15 0 L166 700 L221 700 L175 486 Q246 548 342 548 Q419 548 462.5 514 Q506 480 519 443 Z M481 745 L411 861 L291 745 L250 745 L254 761 L377 893 L452 893 L518 761 L515 745 L481 745 Z " />
<glyph glyph-name="hbar" unicode="&#x127;" horiz-adv-x="564" d="M532 438 L438 0 L382 0 L473 425 Q462 452 429.5 473.5 Q397 495 341 495 Q290 495 247.5 474.5 Q205 454 177 423 L86 0 L30 0 L161 609 L109 609 L117 646 L169 646 L181 700 L236 700 L225 646 L428 646 L420 609 L217 609 L189 481 Q259 542 356 542 Q409 542 446.5 524.5 Q484 507 504.5 483.5 Q525 460 532 438 Z " />
<glyph glyph-name="igrave" unicode="&#xec;" horiz-adv-x="210" d="M75 0 L19 0 L135 536 L191 536 L75 0 Z M199 607 L161 607 L108 732 L114 762 L161 762 L202 622 L199 607 Z " />
<glyph glyph-name="iacute" unicode="&#xed;" horiz-adv-x="210" d="M75 0 L19 0 L135 536 L191 536 L75 0 Z M310 732 L202 607 L158 607 L161 622 L263 762 L317 762 L310 732 Z " />
<glyph glyph-name="icircumflex" unicode="&#xee;" horiz-adv-x="210" d="M75 0 L19 0 L135 536 L191 536 L75 0 Z M313 622 L309 606 L276 606 L208 729 L86 606 L45 606 L49 622 L174 761 L249 761 L313 622 Z " />
<glyph glyph-name="itilde" unicode="&#x129;" horiz-adv-x="210" d="M75 0 L19 0 L135 536 L191 536 L75 0 Z M204 694 Q223 681 234.5 675.5 Q246 670 259 670 Q290 670 309 701 L313 719 L351 719 L344 685 Q313 629 258 629 Q237 629 220.5 637 Q204 645 183 659 Q166 672 153.5 678 Q141 684 127 684 Q108 684 96.5 675.5 Q85 667 76 654 L72 635 L34 635 L41 669 Q71 725 129 725 Q150 725 167 717 Q184 709 204 694 Z " />
<glyph glyph-name="idieresis" unicode="&#xef;" horiz-adv-x="210" d="M75 0 L19 0 L135 536 L191 536 L75 0 Z M138 699 L127 651 Q122 646 111.5 641.5 Q101 637 88 637 Q75 637 66.5 641.5 Q58 646 55 651 L65 699 Q70 704 81 708.5 Q92 713 105 713 Q127 713 138 699 Z M328 699 L317 651 Q312 646 301.5 641.5 Q291 637 278 637 Q265 637 256.5 641.5 Q248 646 245 651 L255 699 Q260 704 270.5 708.5 Q281 713 294 713 Q317 713 328 699 Z " />
<glyph glyph-name="imacron" unicode="&#x12b;" horiz-adv-x="210" d="M75 0 L19 0 L135 536 L191 536 L75 0 Z M337 662 L42 662 L51 706 L347 706 L337 662 Z " />
<glyph glyph-name="ibreve" unicode="&#x12d;" horiz-adv-x="210" d="M75 0 L19 0 L135 536 L191 536 L75 0 Z M322 679 Q304 651 271 630.5 Q238 610 185 610 Q133 610 103 631.5 Q73 653 64 679 L74 728 L120 728 L112 692 Q114 678 132 663 Q150 648 187 648 Q224 648 247 662.5 Q270 677 279 692 L287 728 L332 728 L322 679 Z " />
<glyph glyph-name="iogonek" unicode="&#x12f;" horiz-adv-x="210" d="M234 698 L225 656 Q220 650 209.5 645 Q199 640 185 640 Q171 640 162 645 Q153 650 151 656 L161 698 Q165 705 176.5 710 Q188 715 201 715 Q215 715 223 710 Q231 705 234 698 Z M135 536 L191 536 L75 0 Q20 -35 -10 -63.5 Q-40 -92 -50 -108 L-59 -146 Q-57 -155 -42.5 -162 Q-28 -169 -10 -169 Q8 -169 20.5 -166.5 Q33 -164 48 -157 L40 -196 Q12 -210 -22 -210 Q-53 -210 -77.5 -196.5 Q-102 -183 -107 -163 L-93 -98 Q-80 -77 -52 -51 Q-24 -25 19 2 L135 536 Z " />
<glyph glyph-name="dotlessi" unicode="&#x131;" horiz-adv-x="210" d="M75 0 L19 0 L135 536 L191 536 L75 0 Z " />
<glyph glyph-name="ij" unicode="&#x133;" horiz-adv-x="412" d="M75 0 L19 0 L135 536 L191 536 L75 0 Z M234 698 L225 656 Q220 650 209.5 645 Q199 640 185 640 Q171 640 162 645 Q153 650 151 656 L161 698 Q165 705 176.5 710 Q188 715 201 715 Q215 715 223 710 Q231 705 234 698 Z M271 -49 Q241 -104 180 -141.5 Q119 -179 35 -179 L44 -132 Q100 -132 146.5 -102.5 Q193 -73 219 -30 L341 536 L397 536 L271 -49 Z M440 698 L431 656 Q426 650 415.5 645 Q405 640 391 640 Q377 640 368 645 Q359 650 357 656 L367 698 Q371 705 382.5 710 Q394 715 407 715 Q421 715 429 710 Q437 705 440 698 Z " />
<glyph glyph-name="jcircumflex" unicode="&#x135;" horiz-adv-x="202" d="M61 -49 Q31 -104 -30 -141.5 Q-91 -179 -175 -179 L-166 -132 Q-110 -132 -63.5 -102.5 Q-17 -73 9 -30 L131 536 L187 536 L61 -49 Z M309 622 L305 606 L272 606 L204 729 L82 606 L41 606 L45 622 L170 761 L245 761 L309 622 Z " />
<glyph glyph-name="kcommaaccent" unicode="&#x137;" horiz-adv-x="498" d="M420 0 L386 0 L233 282 L110 182 L71 0 L15 0 L166 700 L221 700 L125 255 L468 536 L507 536 L498 497 L277 317 L429 38 L420 0 Z M126 -169 L139 -169 Q150 -169 158 -161 L164 -130 Q153 -130 144 -126.5 Q135 -123 133 -119 L142 -79 Q151 -68 177 -68 Q201 -68 207 -79 L190 -164 Q185 -176 172 -184.5 Q159 -193 141 -193 L121 -193 L126 -169 Z " />
<glyph glyph-name="lacute" unicode="&#x13a;" horiz-adv-x="202" d="M71 0 L15 0 L166 700 L222 700 L71 0 Z M221 752 L178 752 L181 768 L281 900 L334 900 L327 870 L221 752 Z " />
<glyph glyph-name="lcaron" unicode="&#x13e;" horiz-adv-x="330" d="M71 0 L15 0 L166 700 L222 700 L71 0 Z M385 667 L327 540 L290 540 L294 555 L342 700 L391 700 L385 667 Z " />
<glyph glyph-name="lcommaaccent" unicode="&#x13c;" horiz-adv-x="202" d="M71 0 L15 0 L166 700 L222 700 L71 0 Z M-22 -169 L-9 -169 Q2 -169 10 -161 L16 -130 Q5 -130 -4 -126.5 Q-13 -123 -15 -119 L-6 -79 Q3 -68 29 -68 Q53 -68 59 -79 L42 -164 Q37 -176 24 -184.5 Q11 -193 -7 -193 L-27 -193 L-22 -169 Z " />
<glyph glyph-name="lslash" unicode="&#x142;" horiz-adv-x="336" d="M218 375 L138 0 L82 0 L156 343 L34 281 L45 332 L167 395 L233 700 L288 700 L229 427 L352 490 L342 439 L218 375 Z " />
<glyph glyph-name="ldot" unicode="&#x140;" horiz-adv-x="355" d="M71 0 L15 0 L166 700 L222 700 L71 0 Z M343 385 L334 343 Q329 337 318.5 332 Q308 327 294 327 Q280 327 271 332 Q262 337 260 343 L270 385 Q274 392 285.5 397 Q297 402 310 402 Q324 402 332 397 Q340 392 343 385 Z " />
<glyph glyph-name="nacute" unicode="&#x144;" horiz-adv-x="549" d="M518 443 L422 0 L366 0 L459 430 Q448 456 416.5 478 Q385 500 331 500 Q277 500 233 480 Q189 460 163 429 L71 0 L15 0 L131 536 L184 536 L173 485 Q205 513 248 530.5 Q291 548 344 548 Q420 548 462.5 514.5 Q505 481 518 443 Z M479 732 L371 607 L327 607 L330 622 L432 762 L486 762 L479 732 Z " />
<glyph glyph-name="ncaron" unicode="&#x148;" horiz-adv-x="549" d="M518 443 L422 0 L366 0 L459 430 Q448 456 416.5 478 Q385 500 331 500 Q277 500 233 480 Q189 460 163 429 L71 0 L15 0 L131 536 L184 536 L173 485 Q205 513 248 530.5 Q291 548 344 548 Q420 548 462.5 514.5 Q505 481 518 443 Z M508 745 L384 606 L309 606 L244 745 L248 761 L282 761 L350 638 L472 761 L512 761 L508 745 Z " />
<glyph glyph-name="ntilde" unicode="&#xf1;" horiz-adv-x="549" d="M518 443 L422 0 L366 0 L459 430 Q448 456 416.5 478 Q385 500 331 500 Q277 500 233 480 Q189 460 163 429 L71 0 L15 0 L131 536 L184 536 L173 485 Q205 513 248 530.5 Q291 548 344 548 Q420 548 462.5 514.5 Q505 481 518 443 Z M373 694 Q392 681 403.5 675.5 Q415 670 428 670 Q459 670 478 701 L482 719 L520 719 L513 685 Q482 629 427 629 Q406 629 389.5 637 Q373 645 352 659 Q335 672 322.5 678 Q310 684 296 684 Q277 684 265.5 675.5 Q254 667 245 654 L241 635 L203 635 L210 669 Q240 725 298 725 Q319 725 336 717 Q353 709 373 694 Z " />
<glyph glyph-name="ncommaaccent" unicode="&#x146;" horiz-adv-x="549" d="M518 443 L422 0 L366 0 L459 430 Q448 456 416.5 478 Q385 500 331 500 Q277 500 233 480 Q189 460 163 429 L71 0 L15 0 L131 536 L184 536 L173 485 Q205 513 248 530.5 Q291 548 344 548 Q420 548 462.5 514.5 Q505 481 518 443 Z M151 -169 L164 -169 Q175 -169 183 -161 L189 -130 Q178 -130 169 -126.5 Q160 -123 158 -119 L167 -79 Q176 -68 202 -68 Q226 -68 232 -79 L215 -164 Q210 -176 197 -184.5 Q184 -193 166 -193 L146 -193 L151 -169 Z " />
<glyph glyph-name="napostrophe" unicode="&#x149;" horiz-adv-x="549" d="M518 443 L422 0 L366 0 L459 430 Q448 456 416.5 478 Q385 500 331 500 Q277 500 233 480 Q189 460 163 429 L71 0 L15 0 L131 536 L184 536 L173 485 Q205 513 248 530.5 Q291 548 344 548 Q420 548 462.5 514.5 Q505 481 518 443 Z M41 619 L54 619 Q65 619 73 627 L79 658 Q68 658 59 661.5 Q50 665 48 669 L57 709 Q66 720 92 720 Q116 720 122 709 L105 624 Q100 612 87 603.5 Q74 595 56 595 L36 595 L41 619 Z " />
<glyph glyph-name="ograve" unicode="&#xf2;" horiz-adv-x="541" d="M514 419 L448 117 Q417 64 359.5 25.5 Q302 -13 218 -13 Q161 -13 120 6.5 Q79 26 56 56 Q33 86 27 117 L93 419 Q124 472 181.5 510.5 Q239 549 322 549 Q379 549 420 529.5 Q461 510 484 480 Q507 450 514 419 Z M144 401 L85 128 Q93 88 128 61.5 Q163 35 222 35 Q280 35 325.5 63.5 Q371 92 396 135 L455 408 Q447 448 412 474.5 Q377 501 319 501 Q261 501 215.5 472 Q170 443 144 401 Z M364 607 L326 607 L273 732 L279 762 L326 762 L367 622 L364 607 Z " />
<glyph glyph-name="oacute" unicode="&#xf3;" horiz-adv-x="541" d="M514 419 L448 117 Q417 64 359.5 25.5 Q302 -13 218 -13 Q161 -13 120 6.5 Q79 26 56 56 Q33 86 27 117 L93 419 Q124 472 181.5 510.5 Q239 549 322 549 Q379 549 420 529.5 Q461 510 484 480 Q507 450 514 419 Z M144 401 L85 128 Q93 88 128 61.5 Q163 35 222 35 Q280 35 325.5 63.5 Q371 92 396 135 L455 408 Q447 448 412 474.5 Q377 501 319 501 Q261 501 215.5 472 Q170 443 144 401 Z M475 732 L367 607 L323 607 L326 622 L428 762 L482 762 L475 732 Z " />
<glyph glyph-name="ocircumflex" unicode="&#xf4;" horiz-adv-x="541" d="M514 419 L448 117 Q417 64 359.5 25.5 Q302 -13 218 -13 Q161 -13 120 6.5 Q79 26 56 56 Q33 86 27 117 L93 419 Q124 472 181.5 510.5 Q239 549 322 549 Q379 549 420 529.5 Q461 510 484 480 Q507 450 514 419 Z M144 401 L85 128 Q93 88 128 61.5 Q163 35 222 35 Q280 35 325.5 63.5 Q371 92 396 135 L455 408 Q447 448 412 474.5 Q377 501 319 501 Q261 501 215.5 472 Q170 443 144 401 Z M478 622 L474 606 L441 606 L373 729 L251 606 L210 606 L214 622 L339 761 L414 761 L478 622 Z " />
<glyph glyph-name="otilde" unicode="&#xf5;" horiz-adv-x="541" d="M514 419 L448 117 Q417 64 359.5 25.5 Q302 -13 218 -13 Q161 -13 120 6.5 Q79 26 56 56 Q33 86 27 117 L93 419 Q124 472 181.5 510.5 Q239 549 322 549 Q379 549 420 529.5 Q461 510 484 480 Q507 450 514 419 Z M144 401 L85 128 Q93 88 128 61.5 Q163 35 222 35 Q280 35 325.5 63.5 Q371 92 396 135 L455 408 Q447 448 412 474.5 Q377 501 319 501 Q261 501 215.5 472 Q170 443 144 401 Z M369 694 Q388 681 399.5 675.5 Q411 670 424 670 Q455 670 474 701 L478 719 L516 719 L509 685 Q478 629 423 629 Q402 629 385.5 637 Q369 645 348 659 Q331 672 318.5 678 Q306 684 292 684 Q273 684 261.5 675.5 Q250 667 241 654 L237 635 L199 635 L206 669 Q236 725 294 725 Q315 725 332 717 Q349 709 369 694 Z " />
<glyph glyph-name="odieresis" unicode="&#xf6;" horiz-adv-x="541" d="M514 419 L448 117 Q417 64 359.5 25.5 Q302 -13 218 -13 Q161 -13 120 6.5 Q79 26 56 56 Q33 86 27 117 L93 419 Q124 472 181.5 510.5 Q239 549 322 549 Q379 549 420 529.5 Q461 510 484 480 Q507 450 514 419 Z M144 401 L85 128 Q93 88 128 61.5 Q163 35 222 35 Q280 35 325.5 63.5 Q371 92 396 135 L455 408 Q447 448 412 474.5 Q377 501 319 501 Q261 501 215.5 472 Q170 443 144 401 Z M303 699 L292 651 Q287 646 276.5 641.5 Q266 637 253 637 Q240 637 231.5 641.5 Q223 646 220 651 L230 699 Q235 704 246 708.5 Q257 713 270 713 Q292 713 303 699 Z M493 699 L482 651 Q477 646 466.5 641.5 Q456 637 443 637 Q430 637 421.5 641.5 Q413 646 410 651 L420 699 Q425 704 435.5 708.5 Q446 713 459 713 Q482 713 493 699 Z " />
<glyph glyph-name="omacron" unicode="&#x14d;" horiz-adv-x="541" d="M514 419 L448 117 Q417 64 359.5 25.5 Q302 -13 218 -13 Q161 -13 120 6.5 Q79 26 56 56 Q33 86 27 117 L93 419 Q124 472 181.5 510.5 Q239 549 322 549 Q379 549 420 529.5 Q461 510 484 480 Q507 450 514 419 Z M144 401 L85 128 Q93 88 128 61.5 Q163 35 222 35 Q280 35 325.5 63.5 Q371 92 396 135 L455 408 Q447 448 412 474.5 Q377 501 319 501 Q261 501 215.5 472 Q170 443 144 401 Z M502 662 L207 662 L216 706 L512 706 L502 662 Z " />
<glyph glyph-name="obreve" unicode="&#x14f;" horiz-adv-x="541" d="M514 419 L448 117 Q417 64 359.5 25.5 Q302 -13 218 -13 Q161 -13 120 6.5 Q79 26 56 56 Q33 86 27 117 L93 419 Q124 472 181.5 510.5 Q239 549 322 549 Q379 549 420 529.5 Q461 510 484 480 Q507 450 514 419 Z M144 401 L85 128 Q93 88 128 61.5 Q163 35 222 35 Q280 35 325.5 63.5 Q371 92 396 135 L455 408 Q447 448 412 474.5 Q377 501 319 501 Q261 501 215.5 472 Q170 443 144 401 Z M487 679 Q469 651 436 630.5 Q403 610 350 610 Q298 610 268 631.5 Q238 653 229 679 L239 728 L285 728 L277 692 Q279 678 297 663 Q315 648 352 648 Q389 648 412 662.5 Q435 677 444 692 L452 728 L497 728 L487 679 Z " />
<glyph glyph-name="ohungarumlaut" unicode="&#x151;" horiz-adv-x="541" d="M514 419 L448 117 Q417 64 359.5 25.5 Q302 -13 218 -13 Q161 -13 120 6.5 Q79 26 56 56 Q33 86 27 117 L93 419 Q124 472 181.5 510.5 Q239 549 322 549 Q379 549 420 529.5 Q461 510 484 480 Q507 450 514 419 Z M144 401 L85 128 Q93 88 128 61.5 Q163 35 222 35 Q280 35 325.5 63.5 Q371 92 396 135 L455 408 Q447 448 412 474.5 Q377 501 319 501 Q261 501 215.5 472 Q170 443 144 401 Z M361 732 L272 604 L232 604 L236 620 L319 759 L367 759 L361 732 Z M530 732 L441 604 L401 604 L405 620 L488 759 L536 759 L530 732 Z " />
<glyph glyph-name="oslash" unicode="&#xf8;" horiz-adv-x="541" d="M532 509 L493 468 Q507 448 514 419 L448 117 Q417 64 359.5 25.5 Q302 -13 218 -13 Q129 -13 73 38 L37 0 L2 0 L8 27 L48 67 Q32 92 27 117 L93 419 Q124 472 181.5 510.5 Q239 549 322 549 Q412 549 467 498 L504 536 L539 536 L532 509 Z M90 111 L429 459 Q412 479 384 490 Q356 501 319 501 Q261 501 215.5 472 Q170 443 144 401 L85 128 L90 111 Z M450 425 L111 77 Q150 35 222 35 Q280 35 325.5 63.5 Q371 92 396 135 L455 408 Q454 412 450 425 Z " />
<glyph glyph-name="oe" unicode="&#x153;" horiz-adv-x="899" d="M481 269 L451 128 Q459 88 494 61.5 Q529 35 587 35 Q647 35 692.5 64.5 Q738 94 766 145 L817 145 L810 113 Q781 62 724 24.5 Q667 -13 584 -13 Q522 -13 478.5 10 Q435 33 412 69 Q378 32 329.5 9.5 Q281 -13 218 -13 Q161 -13 120 6.5 Q79 26 56 56 Q33 86 27 117 L93 419 Q124 472 181.5 510.5 Q239 549 322 549 Q384 549 427.5 526 Q471 503 494 467 Q528 503 576.5 526 Q625 549 687 549 Q743 549 784 529.5 Q825 510 848 481 Q871 452 877 423 L844 269 L481 269 Z M511 406 L494 328 L491 314 L800 314 L820 407 Q814 447 778 474 Q742 501 684 501 Q627 501 582 474 Q537 447 511 406 Z M396 133 L434 307 L455 408 Q447 448 412 474.5 Q377 501 319 501 Q261 501 215.5 472 Q170 443 144 401 L85 128 Q93 88 128 61.5 Q163 35 222 35 Q279 35 325 63 Q371 91 396 133 Z " />
<glyph glyph-name="racute" unicode="&#x155;" horiz-adv-x="341" d="M374 536 L363 483 L341 484 Q284 484 237 464.5 Q190 445 160 415 L71 0 L15 0 L131 536 L184 536 L169 467 Q243 537 346 537 Q363 537 374 536 Z M402 732 L294 607 L250 607 L253 622 L355 762 L409 762 L402 732 Z " />
<glyph glyph-name="rcaron" unicode="&#x159;" horiz-adv-x="341" d="M374 536 L363 483 L341 484 Q284 484 237 464.5 Q190 445 160 415 L71 0 L15 0 L131 536 L184 536 L169 467 Q243 537 346 537 Q363 537 374 536 Z M431 745 L307 606 L232 606 L167 745 L171 761 L205 761 L273 638 L395 761 L435 761 L431 745 Z " />
<glyph glyph-name="rcommaaccent" unicode="&#x157;" horiz-adv-x="341" d="M374 536 L363 483 L341 484 Q284 484 237 464.5 Q190 445 160 415 L71 0 L15 0 L131 536 L184 536 L169 467 Q243 537 346 537 Q363 537 374 536 Z M-23 -169 L-10 -169 Q1 -169 9 -161 L15 -130 Q4 -130 -5 -126.5 Q-14 -123 -16 -119 L-7 -79 Q2 -68 28 -68 Q52 -68 58 -79 L41 -164 Q36 -176 23 -184.5 Q10 -193 -8 -193 L-28 -193 L-23 -169 Z " />
<glyph glyph-name="sacute" unicode="&#x15b;" horiz-adv-x="474" d="M461 467 L454 435 L412 435 Q401 462 366.5 481.5 Q332 501 284 501 Q240 501 205 486 Q170 471 147 447 L129 363 Q138 347 159 334 Q180 321 221 308 L282 289 Q394 256 415 204 L388 81 Q361 44 311.5 15.5 Q262 -13 189 -13 Q113 -13 68 17 Q23 47 6 81 L13 113 L55 113 Q69 78 105 56.5 Q141 35 194 35 Q243 35 279.5 54 Q316 73 339 101 L358 187 Q350 206 327 219 Q304 232 261 245 L198 264 Q99 293 73 346 L99 467 Q122 497 171.5 523 Q221 549 290 549 Q357 549 400.5 523 Q444 497 461 467 Z M448 732 L340 607 L296 607 L299 622 L401 762 L455 762 L448 732 Z " />
<glyph glyph-name="scircumflex" unicode="&#x15d;" horiz-adv-x="474" d="M461 467 L454 435 L412 435 Q401 462 366.5 481.5 Q332 501 284 501 Q240 501 205 486 Q170 471 147 447 L129 363 Q138 347 159 334 Q180 321 221 308 L282 289 Q394 256 415 204 L388 81 Q361 44 311.5 15.5 Q262 -13 189 -13 Q113 -13 68 17 Q23 47 6 81 L13 113 L55 113 Q69 78 105 56.5 Q141 35 194 35 Q243 35 279.5 54 Q316 73 339 101 L358 187 Q350 206 327 219 Q304 232 261 245 L198 264 Q99 293 73 346 L99 467 Q122 497 171.5 523 Q221 549 290 549 Q357 549 400.5 523 Q444 497 461 467 Z M451 622 L447 606 L414 606 L346 729 L224 606 L183 606 L187 622 L312 761 L387 761 L451 622 Z " />
<glyph glyph-name="scaron" unicode="&#x161;" horiz-adv-x="474" d="M461 467 L454 435 L412 435 Q401 462 366.5 481.5 Q332 501 284 501 Q240 501 205 486 Q170 471 147 447 L129 363 Q138 347 159 334 Q180 321 221 308 L282 289 Q394 256 415 204 L388 81 Q361 44 311.5 15.5 Q262 -13 189 -13 Q113 -13 68 17 Q23 47 6 81 L13 113 L55 113 Q69 78 105 56.5 Q141 35 194 35 Q243 35 279.5 54 Q316 73 339 101 L358 187 Q350 206 327 219 Q304 232 261 245 L198 264 Q99 293 73 346 L99 467 Q122 497 171.5 523 Q221 549 290 549 Q357 549 400.5 523 Q444 497 461 467 Z M477 745 L353 606 L278 606 L213 745 L217 761 L251 761 L319 638 L441 761 L481 761 L477 745 Z " />
<glyph glyph-name="scedilla" unicode="&#x15f;" horiz-adv-x="474" d="M147 447 L129 363 Q138 347 159 334 Q180 321 221 308 L282 289 Q394 256 415 204 L388 81 Q362 46 316.5 18.5 Q271 -9 203 -12 L176 -58 L191 -58 Q219 -58 239 -71.5 Q259 -85 265 -102 L250 -170 Q236 -191 211 -204 Q186 -217 154 -217 Q99 -217 65 -192 L83 -160 Q115 -182 156 -182 Q175 -182 190 -174 Q205 -166 213 -155 L222 -113 Q219 -104 207.5 -97 Q196 -90 176 -90 L118 -90 L163 -12 Q99 -6 59.5 22.5 Q20 51 6 81 L13 113 L55 113 Q69 78 104.5 56.5 Q140 35 194 35 Q243 35 279.5 54 Q316 73 339 101 L358 187 Q350 206 327 219 Q304 232 261 245 L198 264 Q99 293 73 346 L99 467 Q122 497 171.5 523 Q221 549 290 549 Q357 549 400.5 523 Q444 497 461 467 L454 435 L412 435 Q401 462 366.5 481.5 Q332 501 284 501 Q240 501 205 486 Q170 471 147 447 Z " />
<glyph glyph-name="scommaaccent" unicode="&#x219;" horiz-adv-x="474" d="M461 467 L454 435 L412 435 Q401 462 366.5 481.5 Q332 501 284 501 Q240 501 205 486 Q170 471 147 447 L129 363 Q138 347 159 334 Q180 321 221 308 L282 289 Q394 256 415 204 L388 81 Q361 44 311.5 15.5 Q262 -13 189 -13 Q113 -13 68 17 Q23 47 6 81 L13 113 L55 113 Q69 78 105 56.5 Q141 35 194 35 Q243 35 279.5 54 Q316 73 339 101 L358 187 Q350 206 327 219 Q304 232 261 245 L198 264 Q99 293 73 346 L99 467 Q122 497 171.5 523 Q221 549 290 549 Q357 549 400.5 523 Q444 497 461 467 Z M126 -169 L139 -169 Q150 -169 158 -161 L164 -130 Q153 -130 144 -126.5 Q135 -123 133 -119 L142 -79 Q151 -68 177 -68 Q201 -68 207 -79 L190 -164 Q185 -176 172 -184.5 Q159 -193 141 -193 L121 -193 L126 -169 Z " />
<glyph glyph-name="germandbls" unicode="&#xdf;" horiz-adv-x="548" d="M547 607 L512 444 Q493 418 461 398 Q429 378 393 367 Q435 351 460 323.5 Q485 296 493 262 L461 117 Q423 52 364 26 Q305 0 214 0 L226 48 Q288 48 331 64.5 Q374 81 410 135 L435 251 Q427 295 387.5 320 Q348 345 301 346 L311 392 Q355 392 394.5 411 Q434 430 462 461 L490 588 Q477 623 443.5 644.5 Q410 666 359 666 Q307 666 265 643 Q223 620 197 586 L71 0 L15 0 L145 602 Q174 647 231 680 Q288 713 362 713 Q436 713 483 680.5 Q530 648 547 607 Z " />
<glyph glyph-name="tcaron" unicode="&#x165;" horiz-adv-x="364" d="M211 491 L127 99 Q135 76 160 57.5 Q185 39 239 39 Q254 39 290 43 L282 0 Q274 -3 256.5 -5.5 Q239 -8 221 -8 Q150 -8 115 19 Q80 46 67 82 L155 491 L79 491 L90 536 L165 536 L190 651 L245 651 L221 536 L377 536 L367 491 L211 491 Z M432 748 L374 621 L337 621 L341 636 L389 781 L438 781 L432 748 Z " />
<glyph glyph-name="uni021B" unicode="&#x21b;" horiz-adv-x="346" d="M202 491 L118 99 Q126 76 151 57.5 Q176 39 230 39 Q245 39 281 43 L273 0 Q265 -3 247.5 -5.5 Q230 -8 212 -8 Q141 -8 106 19 Q71 46 58 82 L146 491 L70 491 L81 536 L156 536 L181 651 L236 651 L212 536 L368 536 L358 491 L202 491 Z M100 -169 L113 -169 Q124 -169 132 -161 L138 -130 Q127 -130 118 -126.5 Q109 -123 107 -119 L116 -79 Q125 -68 151 -68 Q175 -68 181 -79 L164 -164 Q159 -176 146 -184.5 Q133 -193 115 -193 L95 -193 L100 -169 Z " />
<glyph glyph-name="tbar" unicode="&#x167;" horiz-adv-x="346" d="M211 491 L173 313 L329 313 L320 268 L163 268 L127 99 Q135 76 160 57.5 Q185 39 239 39 Q254 39 290 43 L282 0 Q274 -3 256.5 -5.5 Q239 -8 221 -8 Q150 -8 115 19 Q80 46 67 82 L107 268 L32 268 L42 313 L117 313 L155 491 L79 491 L90 536 L165 536 L190 651 L245 651 L220 536 L377 536 L367 491 L211 491 Z " />
<glyph glyph-name="ugrave" unicode="&#xf9;" horiz-adv-x="540" d="M525 536 L409 0 L356 0 L366 48 Q302 -12 203 -12 Q129 -12 86 20.5 Q43 53 30 87 L126 536 L182 536 L89 103 Q99 78 131 57 Q163 36 216 36 Q314 36 376 102 L469 536 L525 536 Z M364 607 L326 607 L273 732 L279 762 L326 762 L367 622 L364 607 Z " />
<glyph glyph-name="uacute" unicode="&#xfa;" horiz-adv-x="540" d="M525 536 L409 0 L356 0 L366 48 Q302 -12 203 -12 Q129 -12 86 20.5 Q43 53 30 87 L126 536 L182 536 L89 103 Q99 78 131 57 Q163 36 216 36 Q314 36 376 102 L469 536 L525 536 Z M475 732 L367 607 L323 607 L326 622 L428 762 L482 762 L475 732 Z " />
<glyph glyph-name="ucircumflex" unicode="&#xfb;" horiz-adv-x="540" d="M525 536 L409 0 L356 0 L366 48 Q302 -12 203 -12 Q129 -12 86 20.5 Q43 53 30 87 L126 536 L182 536 L89 103 Q99 78 131 57 Q163 36 216 36 Q314 36 376 102 L469 536 L525 536 Z M478 622 L474 606 L441 606 L373 729 L251 606 L210 606 L214 622 L339 761 L414 761 L478 622 Z " />
<glyph glyph-name="utilde" unicode="&#x169;" horiz-adv-x="540" d="M525 536 L409 0 L356 0 L366 48 Q302 -12 203 -12 Q129 -12 86 20.5 Q43 53 30 87 L126 536 L182 536 L89 103 Q99 78 131 57 Q163 36 216 36 Q314 36 376 102 L469 536 L525 536 Z M369 694 Q388 681 399.5 675.5 Q411 670 424 670 Q455 670 474 701 L478 719 L516 719 L509 685 Q478 629 423 629 Q402 629 385.5 637 Q369 645 348 659 Q331 672 318.5 678 Q306 684 292 684 Q273 684 261.5 675.5 Q250 667 241 654 L237 635 L199 635 L206 669 Q236 725 294 725 Q315 725 332 717 Q349 709 369 694 Z " />
<glyph glyph-name="udieresis" unicode="&#xfc;" horiz-adv-x="540" d="M525 536 L409 0 L356 0 L366 48 Q302 -12 203 -12 Q129 -12 86 20.5 Q43 53 30 87 L126 536 L182 536 L89 103 Q99 78 131 57 Q163 36 216 36 Q314 36 376 102 L469 536 L525 536 Z M303 699 L292 651 Q287 646 276.5 641.5 Q266 637 253 637 Q240 637 231.5 641.5 Q223 646 220 651 L230 699 Q235 704 246 708.5 Q257 713 270 713 Q292 713 303 699 Z M493 699 L482 651 Q477 646 466.5 641.5 Q456 637 443 637 Q430 637 421.5 641.5 Q413 646 410 651 L420 699 Q425 704 435.5 708.5 Q446 713 459 713 Q482 713 493 699 Z " />
<glyph glyph-name="umacron" unicode="&#x16b;" horiz-adv-x="540" d="M525 536 L409 0 L356 0 L366 48 Q302 -12 203 -12 Q129 -12 86 20.5 Q43 53 30 87 L126 536 L182 536 L89 103 Q99 78 131 57 Q163 36 216 36 Q314 36 376 102 L469 536 L525 536 Z M502 662 L207 662 L216 706 L512 706 L502 662 Z " />
<glyph glyph-name="ubreve" unicode="&#x16d;" horiz-adv-x="540" d="M525 536 L409 0 L356 0 L366 48 Q302 -12 203 -12 Q129 -12 86 20.5 Q43 53 30 87 L126 536 L182 536 L89 103 Q99 78 131 57 Q163 36 216 36 Q314 36 376 102 L469 536 L525 536 Z M487 679 Q469 651 436 630.5 Q403 610 350 610 Q298 610 268 631.5 Q238 653 229 679 L239 728 L285 728 L277 692 Q279 678 297 663 Q315 648 352 648 Q389 648 412 662.5 Q435 677 444 692 L452 728 L497 728 L487 679 Z " />
<glyph glyph-name="uring" unicode="&#x16f;" horiz-adv-x="540" d="M525 536 L409 0 L356 0 L366 48 Q302 -12 203 -12 Q129 -12 86 20.5 Q43 53 30 87 L126 536 L182 536 L89 103 Q99 78 131 57 Q163 36 216 36 Q314 36 376 102 L469 536 L525 536 Z M466 732 L448 649 Q434 628 407 614 Q380 600 347 600 Q313 600 288 614.5 Q263 629 255 649 L273 732 Q287 753 314 767 Q341 781 375 781 Q408 781 433 766.5 Q458 752 466 732 Z M307 721 L294 660 Q299 650 313 642 Q327 634 349 634 Q388 634 414 660 L427 721 Q422 731 408 739 Q394 747 372 747 Q333 747 307 721 Z " />
<glyph glyph-name="uhungarumlaut" unicode="&#x171;" horiz-adv-x="540" d="M525 536 L409 0 L356 0 L366 48 Q302 -12 203 -12 Q129 -12 86 20.5 Q43 53 30 87 L126 536 L182 536 L89 103 Q99 78 131 57 Q163 36 216 36 Q314 36 376 102 L469 536 L525 536 Z M361 732 L272 604 L232 604 L236 620 L319 759 L367 759 L361 732 Z M530 732 L441 604 L401 604 L405 620 L488 759 L536 759 L530 732 Z " />
<glyph glyph-name="uogonek" unicode="&#x173;" horiz-adv-x="540" d="M283 -108 L275 -146 Q277 -155 291.5 -162 Q306 -169 324 -169 Q355 -169 382 -157 L374 -196 Q346 -210 311 -210 Q280 -210 256 -196.5 Q232 -183 227 -163 L241 -98 Q254 -77 283 -50 Q312 -23 356 4 L366 48 Q302 -12 203 -12 Q129 -12 86 20.5 Q43 53 30 87 L126 536 L182 536 L89 103 Q99 78 131 57 Q163 36 216 36 Q314 36 376 102 L469 536 L525 536 L409 0 Q355 -35 325 -63 Q295 -91 283 -108 Z " />
<glyph glyph-name="wgrave" unicode="&#x1e81;" horiz-adv-x="764" d="M773 497 L535 0 L464 0 L427 465 L424 465 L187 0 L115 0 L91 497 L100 536 L143 536 L161 57 L164 57 L407 536 L472 536 L507 57 L510 57 L734 536 L782 536 L773 497 Z M476 607 L438 607 L385 732 L391 762 L438 762 L479 622 L476 607 Z " />
<glyph glyph-name="wacute" unicode="&#x1e83;" horiz-adv-x="764" d="M773 497 L535 0 L464 0 L427 465 L424 465 L187 0 L115 0 L91 497 L100 536 L143 536 L161 57 L164 57 L407 536 L472 536 L507 57 L510 57 L734 536 L782 536 L773 497 Z M587 732 L479 607 L435 607 L438 622 L540 762 L594 762 L587 732 Z " />
<glyph glyph-name="wcircumflex" unicode="&#x175;" horiz-adv-x="764" d="M773 497 L535 0 L464 0 L427 465 L424 465 L187 0 L115 0 L91 497 L100 536 L143 536 L161 57 L164 57 L407 536 L472 536 L507 57 L510 57 L734 536 L782 536 L773 497 Z M590 622 L586 606 L553 606 L485 729 L363 606 L322 606 L326 622 L451 761 L526 761 L590 622 Z " />
<glyph glyph-name="wdieresis" unicode="&#x1e85;" horiz-adv-x="764" d="M773 497 L535 0 L464 0 L427 465 L424 465 L187 0 L115 0 L91 497 L100 536 L143 536 L161 57 L164 57 L407 536 L472 536 L507 57 L510 57 L734 536 L782 536 L773 497 Z M415 699 L404 651 Q399 646 388.5 641.5 Q378 637 365 637 Q352 637 343.5 641.5 Q335 646 332 651 L342 699 Q347 704 358 708.5 Q369 713 382 713 Q404 713 415 699 Z M605 699 L594 651 Q589 646 578.5 641.5 Q568 637 555 637 Q542 637 533.5 641.5 Q525 646 522 651 L532 699 Q537 704 547.5 708.5 Q558 713 571 713 Q594 713 605 699 Z " />
<glyph glyph-name="ygrave" unicode="&#x1ef3;" horiz-adv-x="497" d="M471 536 L520 536 L511 498 L177 -98 Q141 -140 98 -156 Q55 -172 1 -172 Q-36 -172 -50 -168 L-40 -123 Q-26 -125 -1 -125 Q44 -125 74.5 -111.5 Q105 -98 130 -73 L168 -3 L93 495 L102 536 L144 536 L209 67 L212 67 L471 536 Z M342 607 L304 607 L251 732 L257 762 L304 762 L345 622 L342 607 Z " />
<glyph glyph-name="yacute" unicode="&#xfd;" horiz-adv-x="497" d="M471 536 L520 536 L511 498 L177 -98 Q141 -140 98 -156 Q55 -172 1 -172 Q-36 -172 -50 -168 L-40 -123 Q-26 -125 -1 -125 Q44 -125 74.5 -111.5 Q105 -98 130 -73 L168 -3 L93 495 L102 536 L144 536 L209 67 L212 67 L471 536 Z M453 732 L345 607 L301 607 L304 622 L406 762 L460 762 L453 732 Z " />
<glyph glyph-name="ycircumflex" unicode="&#x177;" horiz-adv-x="497" d="M471 536 L520 536 L511 498 L177 -98 Q141 -140 98 -156 Q55 -172 1 -172 Q-36 -172 -50 -168 L-40 -123 Q-26 -125 -1 -125 Q44 -125 74.5 -111.5 Q105 -98 130 -73 L168 -3 L93 495 L102 536 L144 536 L209 67 L212 67 L471 536 Z M456 622 L452 606 L419 606 L351 729 L229 606 L188 606 L192 622 L317 761 L392 761 L456 622 Z " />
<glyph glyph-name="ydieresis" unicode="&#xff;" horiz-adv-x="497" d="M471 536 L520 536 L511 498 L177 -98 Q141 -140 98 -156 Q55 -172 1 -172 Q-36 -172 -50 -168 L-40 -123 Q-26 -125 -1 -125 Q44 -125 74.5 -111.5 Q105 -98 130 -73 L168 -3 L93 495 L102 536 L144 536 L209 67 L212 67 L471 536 Z M282 699 L271 651 Q266 646 255.5 641.5 Q245 637 232 637 Q219 637 210.5 641.5 Q202 646 199 651 L209 699 Q214 704 225 708.5 Q236 713 249 713 Q271 713 282 699 Z M472 699 L461 651 Q456 646 445.5 641.5 Q435 637 422 637 Q409 637 400.5 641.5 Q392 646 389 651 L399 699 Q404 704 414.5 708.5 Q425 713 438 713 Q461 713 472 699 Z " />
<glyph glyph-name="zacute" unicode="&#x17a;" horiz-adv-x="463" d="M479 496 L55 45 L382 45 L372 0 L-25 0 L-16 42 L405 491 L90 491 L100 536 L488 536 L479 496 Z M435 732 L327 607 L283 607 L286 622 L388 762 L442 762 L435 732 Z " />
<glyph glyph-name="zcaron" unicode="&#x17e;" horiz-adv-x="463" d="M479 496 L55 45 L382 45 L372 0 L-25 0 L-16 42 L405 491 L90 491 L100 536 L488 536 L479 496 Z M464 745 L340 606 L265 606 L200 745 L204 761 L238 761 L306 638 L428 761 L468 761 L464 745 Z " />
<glyph glyph-name="zdotaccent" unicode="&#x17c;" horiz-adv-x="463" d="M479 496 L55 45 L382 45 L372 0 L-25 0 L-16 42 L405 491 L90 491 L100 536 L488 536 L479 496 Z M359 698 L350 656 Q345 650 334.5 645 Q324 640 310 640 Q296 640 287 645 Q278 650 276 656 L286 698 Q290 705 301.5 710 Q313 715 326 715 Q340 715 348 710 Q356 705 359 698 Z " />
<glyph glyph-name="eng" unicode="&#x14b;" horiz-adv-x="549" d="M518 443 L411 -49 Q382 -104 321 -141.5 Q260 -179 175 -179 L185 -132 Q241 -132 287 -102.5 Q333 -73 359 -30 L459 430 Q448 456 416.5 478 Q385 500 331 500 Q277 500 233 480 Q189 460 163 429 L71 0 L15 0 L131 536 L184 536 L173 485 Q205 513 248 530.5 Q291 548 344 548 Q420 548 462.5 514.5 Q505 481 518 443 Z " />
<glyph glyph-name="eth" unicode="&#xf0;" horiz-adv-x="540" d="M560 631 L476 606 Q523 554 533 508 L449 117 Q417 63 360 25 Q303 -13 221 -13 Q164 -13 123 6.5 Q82 26 58.5 56 Q35 86 28 117 L81 363 Q110 414 168 453 Q226 492 303 492 Q354 492 395 471.5 Q436 451 459 420 L475 496 Q467 541 420 589 L241 534 L249 575 L388 617 Q324 669 241 696 L283 730 Q374 699 447 635 L568 672 L560 631 Z M447 364 Q430 397 392.5 420 Q355 443 305 443 Q248 443 203.5 415.5 Q159 388 134 346 L87 129 Q96 89 132.5 62 Q169 35 226 35 Q282 35 326 63 Q370 91 397 133 L447 364 Z " />
<glyph glyph-name="thorn" unicode="&#xfe;" horiz-adv-x="540" d="M518 443 L442 92 Q367 -12 241 -12 Q186 -12 146 7 Q106 26 83 56 L35 -166 L-20 -166 L166 700 L221 700 L175 486 Q244 548 343 548 Q396 548 433.5 530.5 Q471 513 491 489 Q511 465 518 443 Z M459 430 Q449 456 416 478 Q383 500 329 500 Q276 500 234 480 Q192 460 163 429 L93 105 Q112 75 149 55.5 Q186 36 236 36 Q292 36 330.5 58 Q369 80 390 109 L459 430 Z " />
<glyph glyph-name="longs" unicode="&#x17f;" horiz-adv-x="320" d="M400 709 L390 666 Q368 670 336 670 Q282 670 249 650.5 Q216 631 201 607 L70 0 L15 0 L150 626 Q168 661 211.5 689 Q255 717 326 717 Q373 717 400 709 Z " />
<glyph glyph-name="fi" unicode="&#xfb01;" horiz-adv-x="545" d="M425 709 L415 666 Q395 670 362 670 Q307 670 274.5 650.5 Q242 631 227 607 L212 536 L368 536 L358 491 L202 491 L96 0 L40 0 L146 491 L70 491 L81 536 L156 536 L175 626 Q194 661 237.5 689 Q281 717 352 717 Q376 717 396.5 714.5 Q417 712 425 709 Z M410 0 L354 0 L470 536 L526 536 L410 0 Z M569 698 L560 656 Q555 650 544.5 645 Q534 640 520 640 Q506 640 497 645 Q488 650 486 656 L496 698 Q500 705 511.5 710 Q523 715 536 715 Q550 715 558 710 Q566 705 569 698 Z " />
<glyph glyph-name="fl" unicode="&#xfb02;" horiz-adv-x="537" d="M425 709 L415 666 Q395 670 362 670 Q307 670 274.5 650.5 Q242 631 227 607 L212 536 L368 536 L358 491 L202 491 L96 0 L40 0 L146 491 L70 491 L81 536 L156 536 L175 626 Q194 661 237.5 689 Q281 717 352 717 Q376 717 396.5 714.5 Q417 712 425 709 Z M406 0 L350 0 L501 700 L557 700 L406 0 Z " />
<glyph glyph-name="ampersand" unicode="&#x26;" horiz-adv-x="657" d="M593 42 L583 0 L558 0 L484 91 Q384 -13 248 -13 Q158 -13 104 25.5 Q50 64 36 117 L69 269 Q98 312 143 342 Q188 372 242 385 L225 406 Q203 432 190.5 452 Q178 472 172 492 L200 623 Q225 655 278.5 683.5 Q332 712 406 712 Q478 712 523.5 683.5 Q569 655 587 624 L579 589 L538 589 Q526 619 491.5 642 Q457 665 400 665 Q351 665 313.5 647.5 Q276 630 252 606 L230 507 Q235 480 272 434 L474 187 L512 363 L564 363 L515 137 L593 42 Z M452 129 L272 349 Q225 339 184 313 Q143 287 121 253 L95 130 Q106 85 150.5 59.5 Q195 34 256 34 Q314 34 363.5 59.5 Q413 85 452 129 Z " />
<glyph glyph-name="grave" unicode="&#x60;" horiz-adv-x="414" d="M340 607 L302 607 L249 732 L255 762 L302 762 L343 622 L340 607 Z " />
<glyph glyph-name="acute" unicode="&#xb4;" horiz-adv-x="414" d="M370 732 L262 607 L218 607 L221 622 L323 762 L377 762 L370 732 Z " />
<glyph glyph-name="circumflex" unicode="&#x2c6;" horiz-adv-x="414" d="M415 622 L411 606 L378 606 L310 729 L188 606 L147 606 L151 622 L276 761 L351 761 L415 622 Z " />
<glyph glyph-name="caron" unicode="&#x2c7;" horiz-adv-x="414" d="M441 745 L317 606 L242 606 L177 745 L181 761 L215 761 L283 638 L405 761 L445 761 L441 745 Z " />
<glyph glyph-name="tilde" unicode="&#x2dc;" horiz-adv-x="414" d="M306 694 Q325 681 336.5 675.5 Q348 670 361 670 Q392 670 411 701 L415 719 L453 719 L446 685 Q415 629 360 629 Q339 629 322.5 637 Q306 645 285 659 Q268 672 255.5 678 Q243 684 229 684 Q210 684 198.5 675.5 Q187 667 178 654 L174 635 L136 635 L143 669 Q173 725 231 725 Q252 725 269 717 Q286 709 306 694 Z " />
<glyph glyph-name="dieresis" unicode="&#xa8;" horiz-adv-x="414" d="M242 699 L231 651 Q226 646 215.5 641.5 Q205 637 192 637 Q179 637 170.5 641.5 Q162 646 159 651 L169 699 Q174 704 185 708.5 Q196 713 209 713 Q231 713 242 699 Z M432 699 L421 651 Q416 646 405.5 641.5 Q395 637 382 637 Q369 637 360.5 641.5 Q352 646 349 651 L359 699 Q364 704 374.5 708.5 Q385 713 398 713 Q421 713 432 699 Z " />
<glyph glyph-name="breve" unicode="&#x2d8;" horiz-adv-x="414" d="M424 679 Q406 651 373 630.5 Q340 610 287 610 Q235 610 205 631.5 Q175 653 166 679 L176 728 L222 728 L214 692 Q216 678 234 663 Q252 648 289 648 Q326 648 349 662.5 Q372 677 381 692 L389 728 L434 728 L424 679 Z " />
<glyph glyph-name="ring" unicode="&#x2da;" horiz-adv-x="414" d="M403 732 L385 649 Q371 628 344 614 Q317 600 284 600 Q250 600 225 614.5 Q200 629 192 649 L210 732 Q224 753 251 767 Q278 781 312 781 Q345 781 370 766.5 Q395 752 403 732 Z M244 721 L231 660 Q236 650 250 642 Q264 634 286 634 Q325 634 351 660 L364 721 Q359 731 345 739 Q331 747 309 747 Q270 747 244 721 Z " />
<glyph glyph-name="hungarumlaut" unicode="&#x2dd;" horiz-adv-x="414" d="M274 732 L185 604 L145 604 L149 620 L232 759 L280 759 L274 732 Z M443 732 L354 604 L314 604 L318 620 L401 759 L449 759 L443 732 Z " />
<glyph glyph-name="dotaccent" unicode="&#x2d9;" horiz-adv-x="414" d="M336 698 L327 656 Q322 650 311.5 645 Q301 640 287 640 Q273 640 264 645 Q255 650 253 656 L263 698 Q267 705 278.5 710 Q290 715 303 715 Q317 715 325 710 Q333 705 336 698 Z " />
<glyph glyph-name="cedilla" unicode="&#xb8;" horiz-adv-x="414" d="M134 -58 L150 -58 Q178 -58 197.5 -71.5 Q217 -85 223 -102 L208 -170 Q194 -191 169.5 -204 Q145 -217 112 -217 Q57 -217 23 -192 L42 -160 Q74 -182 114 -182 Q134 -182 149 -174 Q164 -166 171 -155 L180 -113 Q177 -104 165.5 -97 Q154 -90 134 -90 L77 -90 L131 6 L171 6 L134 -58 Z " />
<glyph glyph-name="ogonek" unicode="&#x2db;" horiz-adv-x="414" d="M242 0 Q187 -35 157 -63.5 Q127 -92 117 -108 L109 -146 Q111 -155 125 -162 Q139 -169 158 -169 Q175 -169 187.5 -166.5 Q200 -164 216 -157 L207 -196 Q179 -210 145 -210 Q114 -210 89.5 -196.5 Q65 -183 60 -163 L74 -98 Q90 -74 123.5 -44 Q157 -14 209 15 L242 0 Z " />
<glyph glyph-name="comma" unicode="&#x2c;" horiz-adv-x="162" d="M72 54 L46 -66 Q39 -81 24.5 -90.5 Q10 -100 -11 -100 L-30 -100 L-23 -71 L-10 -71 Q2 -71 10 -60 L22 -11 Q9 -11 -0.5 -5.5 Q-10 0 -11 6 L-1 54 Q13 70 37 70 Q61 70 72 54 Z " />
<glyph glyph-name="semicolon" unicode="&#x3b;" horiz-adv-x="181" d="M81 54 L55 -66 Q48 -81 33.5 -90.5 Q19 -100 -2 -100 L-21 -100 L-14 -71 L-1 -71 Q11 -71 19 -60 L31 -11 Q18 -11 8.5 -5.5 Q-1 0 -2 6 L8 54 Q22 70 46 70 Q70 70 81 54 Z M171 470 L161 426 Q148 409 123 409 Q110 409 100.5 414.5 Q91 420 88 426 L98 470 Q102 476 112.5 481 Q123 486 136 486 Q150 486 159 481 Q168 476 171 470 Z " />
<glyph glyph-name="colon" unicode="&#x3a;" horiz-adv-x="181" d="M81 54 L71 10 Q58 -7 33 -7 Q20 -7 10.5 -1.5 Q1 4 -2 10 L8 54 Q12 60 22.5 65 Q33 70 46 70 Q60 70 69 65 Q78 60 81 54 Z M171 470 L161 426 Q148 409 123 409 Q110 409 100.5 414.5 Q91 420 88 426 L98 470 Q102 476 112.5 481 Q123 486 136 486 Q150 486 159 481 Q168 476 171 470 Z " />
<glyph glyph-name="period" unicode="&#x2e;" horiz-adv-x="162" d="M72 54 L62 10 Q49 -7 24 -7 Q11 -7 1.5 -1.5 Q-8 4 -11 10 L-1 54 Q3 60 13.5 65 Q24 70 37 70 Q51 70 60 65 Q69 60 72 54 Z " />
<glyph glyph-name="ellipsis" unicode="&#x2026;" horiz-adv-x="484" d="M71 51 L62 10 Q58 4 47 -1.5 Q36 -7 22 -7 Q9 -7 0 -1.5 Q-9 4 -11 10 L-2 51 Q2 57 13.5 62 Q25 67 38 67 Q52 67 61 62 Q70 57 71 51 Z M232 51 L224 10 Q220 4 208.5 -1.5 Q197 -7 183 -7 Q170 -7 161 -1.5 Q152 4 150 10 L159 51 Q163 57 174.5 62 Q186 67 199 67 Q213 67 222 62 Q231 57 232 51 Z M393 51 L384 10 Q380 4 369 -1.5 Q358 -7 344 -7 Q330 -7 321.5 -1.5 Q313 4 311 10 L320 51 Q324 57 335.5 62 Q347 67 360 67 Q374 67 382.5 62 Q391 57 393 51 Z " />
<glyph glyph-name="hyphen" unicode="&#x2d;" horiz-adv-x="362" d="M325 315 L57 315 L67 363 L336 363 L325 315 Z " />
<glyph glyph-name="exclam" unicode="&#x21;" horiz-adv-x="257" d="M233 607 L126 142 L78 142 L170 607 L190 700 L253 700 L233 607 Z M120 54 L110 10 Q97 -7 72 -7 Q58 -7 48.5 -1.5 Q39 4 37 10 L47 54 Q51 61 61.5 65.5 Q72 70 85 70 Q98 70 107.5 65 Q117 60 120 54 Z " />
<glyph glyph-name="exclamdown" unicode="&#xa1;" horiz-adv-x="257" d="M137 487 L147 531 Q160 548 185 548 Q199 548 208.5 542.5 Q218 537 220 531 L210 487 Q206 480 195.5 475.5 Q185 471 172 471 Q159 471 149.5 476 Q140 481 137 487 Z M24 -66 L131 400 L179 400 L87 -66 L67 -159 L4 -159 L24 -66 Z " />
<glyph glyph-name="question" unicode="&#x3f;" horiz-adv-x="521" d="M553 603 L516 436 Q493 403 418 357 L235 239 L215 150 L157 150 L182 265 L377 391 Q441 429 463 458 L491 587 Q474 619 435.5 641 Q397 663 342 663 Q281 663 233 635.5 Q185 608 155 570 L105 570 L113 607 Q210 713 349 713 Q432 713 482 680 Q532 647 553 603 Z M203 54 L194 10 Q181 -7 155 -7 Q142 -7 132.5 -1.5 Q123 4 120 10 L130 54 Q134 60 144.5 65 Q155 70 168 70 Q182 70 191 65 Q200 60 203 54 Z " />
<glyph glyph-name="questiondown" unicode="&#xbf;" horiz-adv-x="521" d="M318 488 L328 532 Q341 549 366 549 Q380 549 389.5 543.5 Q399 538 401 532 L391 488 Q387 481 376.5 476.5 Q366 472 353 472 Q340 472 330.5 477 Q321 482 318 488 Z M-32 -61 L5 107 Q29 140 103 185 L287 303 L306 392 L364 392 L340 277 L144 151 Q81 112 58 84 L31 -45 Q48 -76 86.5 -98.5 Q125 -121 180 -121 Q241 -121 288.5 -93.5 Q336 -66 367 -28 L416 -28 L409 -65 Q312 -171 172 -171 Q89 -171 39.5 -138 Q-10 -105 -32 -61 Z " />
<glyph glyph-name="quoteleft" unicode="&#x2018;" horiz-adv-x="166" d="M100 556 L127 676 Q143 709 184 709 L202 709 L196 680 L183 680 Q170 680 163 670 L151 620 Q164 620 173 615 Q182 610 184 604 L174 555 Q160 539 136 539 Q113 539 100 556 Z " />
<glyph glyph-name="quoteright" unicode="&#x2019;" horiz-adv-x="166" d="M219 698 L193 578 Q186 563 171.5 553.5 Q157 544 136 544 L117 544 L124 573 L137 573 Q149 573 157 584 L169 633 Q156 633 146.5 638.5 Q137 644 136 650 L146 698 Q160 714 184 714 Q208 714 219 698 Z " />
<glyph glyph-name="quotedblleft" unicode="&#x201c;" horiz-adv-x="322" d="M104 556 L130 676 Q148 710 187 710 L206 710 L200 681 L186 681 Q174 681 166 670 L155 621 Q167 621 176.5 615.5 Q186 610 188 604 L177 556 Q163 540 139 540 Q115 540 104 556 Z M260 556 L286 676 Q304 710 343 710 L362 710 L356 681 L342 681 Q330 681 322 670 L311 621 Q323 621 332.5 615.5 Q342 610 344 604 L333 556 Q319 540 295 540 Q271 540 260 556 Z " />
<glyph glyph-name="quotedblright" unicode="&#x201d;" horiz-adv-x="322" d="M219 697 L193 577 Q186 562 171.5 552.5 Q157 543 136 543 L117 543 L124 572 L137 572 Q149 572 157 583 L169 632 Q156 632 146.5 637.5 Q137 643 136 649 L146 697 Q160 713 184 713 Q208 713 219 697 Z M375 697 L349 577 Q342 562 327.5 552.5 Q313 543 292 543 L273 543 L280 572 L293 572 Q305 572 313 583 L325 632 Q312 632 302.5 637.5 Q293 643 292 649 L302 697 Q316 713 340 713 Q364 713 375 697 Z " />
<glyph glyph-name="quotesinglbase" unicode="&#x201a;" horiz-adv-x="166" d="M83 54 L57 -66 Q50 -81 35.5 -90.5 Q21 -100 0 -100 L-19 -100 L-12 -71 L1 -71 Q13 -71 21 -60 L33 -11 Q20 -11 10.5 -5.5 Q1 0 0 6 L10 54 Q24 70 48 70 Q72 70 83 54 Z " />
<glyph glyph-name="quotedblbase" unicode="&#x201e;" horiz-adv-x="324" d="M77 54 L51 -66 Q44 -81 29.5 -90.5 Q15 -100 -6 -100 L-25 -100 L-18 -71 L-5 -71 Q7 -71 15 -60 L27 -11 Q14 -11 4.5 -5.5 Q-5 0 -6 6 L4 54 Q18 70 42 70 Q66 70 77 54 Z M234 54 L208 -66 Q201 -81 186.5 -90.5 Q172 -100 151 -100 L132 -100 L139 -71 L152 -71 Q164 -71 172 -60 L184 -11 Q171 -11 161.5 -5.5 Q152 0 151 6 L161 54 Q175 70 199 70 Q223 70 234 54 Z " />
<glyph glyph-name="guilsinglleft" unicode="&#x2039;" horiz-adv-x="328" d="M323 504 L100 296 L236 94 L229 62 L198 62 L49 281 L57 319 L290 536 L331 536 L323 504 Z " />
<glyph glyph-name="guilsinglright" unicode="&#x203a;" horiz-adv-x="328" d="M19 94 L241 302 L106 504 L113 536 L144 536 L293 317 L285 279 L52 62 L11 62 L19 94 Z " />
<glyph glyph-name="guillemotleft" unicode="&#xab;" horiz-adv-x="574" d="M323 504 L100 296 L236 94 L229 62 L198 62 L49 281 L57 319 L290 536 L331 536 L323 504 Z M569 504 L346 296 L481 94 L475 62 L444 62 L295 281 L303 319 L536 536 L577 536 L569 504 Z " />
<glyph glyph-name="guillemotright" unicode="&#xbb;" horiz-adv-x="574" d="M19 94 L241 302 L106 504 L113 536 L144 536 L293 317 L285 279 L52 62 L11 62 L19 94 Z M265 94 L487 302 L352 504 L359 536 L389 536 L539 317 L531 279 L298 62 L257 62 L265 94 Z " />
<glyph glyph-name="slash" unicode="&#x2f;" horiz-adv-x="379" d="M416 699 L21 -110 L-26 -110 L-19 -78 L376 731 L423 731 L416 699 Z " />
<glyph glyph-name="bar" unicode="&#x7c;" horiz-adv-x="326" d="M213 -130 L155 -130 L155 790 L213 790 L213 -130 Z " />
<glyph glyph-name="endash" unicode="&#x2013;" horiz-adv-x="562" d="M525 315 L57 315 L67 363 L536 363 L525 315 Z " />
<glyph glyph-name="emdash" unicode="&#x2014;" horiz-adv-x="862" d="M825 315 L57 315 L67 363 L836 363 L825 315 Z " />
<glyph glyph-name="bullet" unicode="&#x2022;" horiz-adv-x="316" d="M272 407 L253 314 Q221 272 163 272 Q134 272 112.5 284.5 Q91 297 83 315 L102 407 Q116 425 139 436.5 Q162 448 191 448 Q220 448 241.5 436.5 Q263 425 272 407 Z " />
<glyph glyph-name="parenleft" unicode="&#x28;" horiz-adv-x="370" d="M411 655 L405 655 Q339 655 282 616 Q225 577 193 524 L81 4 Q89 -50 128 -86.5 Q167 -123 238 -123 L245 -123 L235 -168 L229 -168 Q135 -168 83.5 -121.5 Q32 -75 17 -13 L136 545 Q157 584 196 619.5 Q235 655 289.5 677.5 Q344 700 407 700 L421 700 L411 655 Z " />
<glyph glyph-name="parenright" unicode="&#x29;" horiz-adv-x="370" d="M-42 -123 L-35 -123 Q31 -123 88 -84 Q145 -45 177 8 L289 528 Q281 582 242 618.5 Q203 655 132 655 L125 655 L135 700 L141 700 Q234 700 286 653.5 Q338 607 353 545 L234 -13 Q213 -52 174 -87.5 Q135 -123 80.5 -145.5 Q26 -168 -37 -168 L-51 -168 L-42 -123 Z " />
<glyph glyph-name="bracketleft" unicode="&#x5b;" horiz-adv-x="366" d="M394 655 L233 655 L66 -123 L227 -123 L217 -168 L-3 -168 L183 700 L403 700 L394 655 Z " />
<glyph glyph-name="bracketright" unicode="&#x5d;" horiz-adv-x="366" d="M182 -168 L-38 -168 L-29 -123 L131 -123 L299 655 L138 655 L148 700 L368 700 L182 -168 Z " />
<glyph glyph-name="braceleft" unicode="&#x7b;" horiz-adv-x="389" d="M44 -18 L88 188 Q87 220 64.5 230.5 Q42 241 12 241 L22 287 Q53 287 79 297 Q105 307 121 340 L165 545 Q200 608 272.5 654 Q345 700 444 700 L434 655 Q367 655 311 617.5 Q255 580 222 526 L179 324 Q155 281 106 261 Q144 239 151 197 L108 -7 Q115 -59 156.5 -93 Q198 -127 267 -127 L257 -173 Q162 -173 110 -126.5 Q58 -80 44 -18 Z " />
<glyph glyph-name="braceright" unicode="&#x7d;" horiz-adv-x="389" d="M343 545 L299 340 Q300 307 322 297 Q344 287 375 287 L365 241 Q292 241 266 188 L222 -18 Q187 -81 114.5 -127 Q42 -173 -57 -173 L-47 -127 Q20 -127 75.5 -90.5 Q131 -54 165 1 L208 203 Q230 245 281 266 Q243 287 236 330 L279 534 Q272 586 230.5 620.5 Q189 655 120 655 L130 700 Q225 700 277 653.5 Q329 607 343 545 Z " />
<glyph glyph-name="asterisk" unicode="&#x2a;" horiz-adv-x="497" d="M505 587 Q505 583 503 577 L324 532 L443 392 Q439 381 425 369 Q411 359 399 360 L303 514 L207 360 L205 360 Q191 360 182 369 Q166 383 164 392 L283 532 L103 577 Q101 583 101 587 Q101 592 104 604 Q110 621 119 628 L289 559 L277 741 Q287 748 303 748 Q319 748 330 741 L317 560 L487 628 Q496 621 502 604 Q505 592 505 587 Z " />
<glyph glyph-name="dagger" unicode="&#x2020;" horiz-adv-x="623" d="M602 405 L519 405 L363 412 L357 -168 L311 -168 L305 412 L151 405 L69 405 L69 459 L151 459 L305 452 L303 607 L303 700 L365 700 L365 607 L363 452 L519 459 L602 459 L602 405 Z " />
<glyph glyph-name="daggerdbl" unicode="&#x2021;" horiz-adv-x="643" d="M348 182 L507 189 L589 189 L589 135 L507 135 L348 142 L344 -168 L299 -168 L296 142 L138 135 L57 135 L57 189 L138 189 L295 182 L293 442 L138 435 L57 435 L57 489 L138 489 L292 482 L291 607 L291 700 L353 700 L353 607 L351 482 L507 489 L589 489 L589 435 L507 435 L351 442 L348 182 Z " />
<glyph glyph-name="section" unicode="&#xa7;" horiz-adv-x="509" d="M521 619 L514 589 L471 589 Q461 619 427.5 643.5 Q394 668 339 668 Q289 668 250 648.5 Q211 629 188 602 L173 528 Q181 509 204.5 496 Q228 483 270 472 L334 455 Q389 441 421 419 Q453 397 467 371 L441 246 Q425 224 395.5 204 Q366 184 325 172 Q395 144 410 103 L387 -4 Q361 -38 309 -68 Q257 -98 182 -98 Q130 -98 92 -82 Q54 -66 33 -44 Q12 -22 5 -4 L12 26 L54 26 Q64 -4 98 -28.5 Q132 -53 186 -53 Q237 -53 276 -33.5 Q315 -14 338 13 L353 87 Q345 106 321.5 119 Q298 132 256 143 L192 160 Q90 185 59 244 L85 369 Q100 390 130 410.5 Q160 431 201 443 Q132 471 115 512 L139 619 Q165 653 217 683 Q269 713 344 713 Q396 713 434 697 Q472 681 493 659 Q514 637 521 619 Z M314 410 L279 419 Q229 415 193 396 Q157 377 136 353 L116 264 Q124 244 147.5 230 Q171 216 212 205 L247 196 Q297 200 333 218.5 Q369 237 390 262 L409 351 Q402 371 378.5 385 Q355 399 314 410 Z " />
<glyph glyph-name="paragraph" unicode="&#xb6;" horiz-adv-x="659" d="M289 -100 L241 -100 L319 261 L249 261 Q184 261 140 294 Q96 327 79 379 L123 583 Q163 637 222.5 668.5 Q282 700 343 700 L461 700 L289 -100 Z M489 -100 L441 -100 L612 700 L660 700 L489 -100 Z " />
<glyph glyph-name="asciicircum" unicode="&#x5e;" horiz-adv-x="518" d="M487 377 L487 342 L449 342 L289 649 L275 649 L115 342 L79 342 L79 376 L249 700 L316 700 L487 377 Z " />
<glyph glyph-name="asciitilde" unicode="&#x7e;" horiz-adv-x="581" d="M322 391 Q361 379 390.5 372.5 Q420 366 449 366 Q478 366 503 376 Q528 386 544.5 397.5 Q561 409 561 410 L561 352 Q561 351 545.5 342 Q530 333 505.5 325.5 Q481 318 450 318 Q415 318 383.5 324.5 Q352 331 307 344 Q269 356 239.5 362.5 Q210 369 179 369 Q144 369 114 357.5 Q84 346 63.5 332.5 Q43 319 43 318 L43 371 Q43 372 62 384.5 Q81 397 112 407 Q143 417 181 417 Q214 417 246 410.5 Q278 404 322 391 Z " />
<glyph glyph-name="brokenbar" unicode="&#xa6;" horiz-adv-x="326" d="M213 405 L155 405 L155 790 L213 790 L213 405 Z M213 -129 L155 -129 L155 273 L213 273 L213 -129 Z " />
<glyph glyph-name="backslash" unicode="&#x5c;" horiz-adv-x="379" d="M249 -78 L242 -110 L195 -110 L147 699 L155 731 L202 731 L249 -78 Z " />
<glyph glyph-name="underscore" unicode="&#x5f;" horiz-adv-x="489" d="M411 -119 L-88 -119 L-78 -76 L421 -76 L411 -119 Z " />
<glyph glyph-name="quotesingle" unicode="&#x27;" horiz-adv-x="144" d="M176 637 L143 518 L108 518 L125 637 L139 700 L190 700 L176 637 Z " />
<glyph glyph-name="quotedbl" unicode="&#x22;" horiz-adv-x="296" d="M176 637 L143 518 L108 518 L125 637 L139 700 L190 700 L176 637 Z M328 637 L295 518 L260 518 L277 637 L291 700 L342 700 L328 637 Z " />
<glyph glyph-name="at" unicode="&#x40;" horiz-adv-x="951" d="M922 456 L849 111 Q822 73 786 55 Q750 37 711 37 Q670 37 640.5 53.5 Q611 70 596 98 Q564 68 517 49 Q470 30 412 30 Q361 30 324.5 47 Q288 64 268.5 87.5 Q249 111 242 132 L304 421 Q332 460 382 491.5 Q432 523 506 523 Q560 523 599 504.5 Q638 486 660 457 L671 511 L723 511 L640 126 Q648 101 666 89 Q684 77 714 77 Q743 77 764 88.5 Q785 100 807 125 L876 447 Q867 492 832.5 543.5 Q798 595 730 633.5 Q662 672 562 672 Q443 672 334 610 Q225 548 155 446 L81 107 Q105 3 188.5 -58.5 Q272 -120 392 -120 Q446 -120 500.5 -105 Q555 -90 603 -63 L623 -99 Q519 -160 390 -160 Q299 -160 224.5 -129 Q150 -98 100.5 -40 Q51 18 33 96 L110 457 Q185 577 306.5 645 Q428 713 565 713 Q676 713 753 670.5 Q830 628 871 568.5 Q912 509 922 456 Z M593 145 L650 411 Q634 441 598 460 Q562 479 510 479 Q456 479 416 457 Q376 435 353 408 L298 145 Q308 118 337.5 96 Q367 74 422 74 Q476 74 520.5 94 Q565 114 593 145 Z " />
<glyph glyph-name="copyright" unicode="&#xa9;" horiz-adv-x="819" d="M788 350 Q788 251 739 167.5 Q690 84 606.5 35.5 Q523 -13 424 -13 Q326 -13 242.5 35.5 Q159 84 110 167.5 Q61 251 61 350 Q61 449 110 532.5 Q159 616 242.5 664.5 Q326 713 424 713 Q523 713 606.5 664.5 Q690 616 739 532.5 Q788 449 788 350 Z M98 350 Q98 261 141.5 185 Q185 109 260 64.5 Q335 20 424 20 Q513 20 588 64.5 Q663 109 707 185 Q751 261 751 350 Q751 439 707 515 Q663 591 588 635.5 Q513 680 424 680 Q335 680 260 635.5 Q185 591 141.5 515 Q98 439 98 350 Z M609 485 L609 456 L566 456 Q554 485 516.5 510 Q479 535 425 535 Q375 535 341 515 Q307 495 289 469 L289 228 Q307 202 341 182 Q375 162 425 162 Q479 162 516.5 187 Q554 212 566 241 L609 241 L609 212 Q588 179 542 150 Q496 121 424 121 Q352 121 305.5 151 Q259 181 239 215 L239 482 Q259 516 305.5 546 Q352 576 424 576 Q496 576 542 547 Q588 518 609 485 Z " />
<glyph glyph-name="registered" unicode="&#xae;" horiz-adv-x="518" d="M566 585 Q566 521 533.5 466 Q501 411 445.5 378.5 Q390 346 326 346 Q262 346 207 378.5 Q152 411 119.5 466 Q87 521 87 585 Q87 649 119.5 704 Q152 759 207 791.5 Q262 824 326 824 Q390 824 445.5 791.5 Q501 759 533.5 704 Q566 649 566 585 Z M535 585 Q535 642 507 690.5 Q479 739 431 767.5 Q383 796 326 796 Q269 796 221.5 767.5 Q174 739 146 690.5 Q118 642 118 585 Q118 528 146 479.5 Q174 431 221.5 402.5 Q269 374 326 374 Q383 374 431 402.5 Q479 431 507 479.5 Q535 528 535 585 Z M432 680 L432 608 Q422 588 403.5 574.5 Q385 561 363 557 L425 470 L425 448 L401 448 L329 556 L270 556 L270 448 L239 448 L239 732 L349 732 Q374 732 397 718 Q420 704 432 680 Z M400 671 Q384 704 343 704 L270 704 L270 585 L343 585 Q385 585 400 617 L400 671 Z " />
<glyph glyph-name="trademark" unicode="&#x2122;" horiz-adv-x="783" d="M277 667 L200 310 L159 310 L236 667 L114 667 L121 700 L405 700 L398 667 L277 667 Z M688 310 L761 647 L759 647 L564 310 L531 310 L481 647 L479 647 L407 310 L367 310 L451 700 L514 700 L563 377 L565 377 L750 700 L811 700 L728 310 L688 310 Z " />
<glyph glyph-name="uni2117" unicode="&#x2117;" horiz-adv-x="819" d="M774 350 Q774 251 725 168 Q676 85 592 36 Q508 -13 409 -13 Q311 -13 227.5 35.5 Q144 84 95 167.5 Q46 251 46 350 Q46 449 95 532.5 Q144 616 227.5 664.5 Q311 713 409 713 Q508 713 592 664 Q676 615 725 532 Q774 449 774 350 Z M83 350 Q83 261 126.5 185 Q170 109 245 64.5 Q320 20 409 20 Q498 20 573 64.5 Q648 109 692 185 Q736 261 736 350 Q736 439 692 515 Q648 591 573 635.5 Q498 680 409 680 Q320 680 245 635.5 Q170 591 126.5 515 Q83 439 83 350 Z M593 485 L593 367 Q572 324 535.5 300 Q499 276 457 276 L322 276 L322 106 L274 106 L274 575 L457 575 Q499 575 535.5 551 Q572 527 593 485 Z M322 535 L322 317 L446 317 Q514 317 547 380 L547 471 Q514 535 446 535 L322 535 Z " />
<glyph glyph-name="currency" unicode="&#xa4;" horiz-adv-x="590" d="M530 530 L485 485 Q509 457 519 430 L519 247 Q507 218 485 193 L530 148 L530 117 L491 117 L449 159 Q389 117 309 117 Q226 117 169 159 L127 117 L87 117 L87 148 L132 193 Q110 218 98 247 L98 430 Q110 460 132 485 L87 530 L87 560 L127 560 L169 518 Q226 560 309 560 Q392 560 449 518 L491 560 L530 560 L530 530 Z M463 261 L463 416 Q447 457 407 485 Q367 513 309 513 Q251 513 211 485 Q171 457 154 416 L154 261 Q170 220 210.5 192.5 Q251 165 309 165 Q367 165 407 192.5 Q447 220 463 261 Z " />
<glyph glyph-name="Euro" unicode="&#x20ac;" horiz-adv-x="592" d="M606 588 L598 551 L554 551 Q548 601 507 633 Q466 665 403 665 Q345 665 295.5 636 Q246 607 221 568 L194 444 L458 444 L450 405 L186 405 L166 314 L430 314 L422 274 L158 274 L127 132 Q136 92 175 64 Q214 36 272 36 Q335 36 385 68 Q435 100 461 149 L512 149 L504 111 Q473 62 412.5 24.5 Q352 -13 269 -13 Q212 -13 168.5 7 Q125 27 99.5 56.5 Q74 86 66 116 L100 274 L35 274 L43 314 L109 314 L128 405 L63 405 L71 444 L137 444 L167 584 Q199 636 261.5 674.5 Q324 713 408 713 Q465 713 507.5 693 Q550 673 574.5 644.5 Q599 616 606 588 Z " />
<glyph glyph-name="dollar" unicode="&#x24;" horiz-adv-x="578" d="M576 599 L568 561 L520 561 Q509 607 470.5 634.5 Q432 662 370 662 Q314 662 269 638.5 Q224 615 196 579 L174 475 Q182 448 206 431 Q230 414 287 397 L356 378 Q413 361 445 342.5 Q477 324 491 304.5 Q505 285 515 259 L484 118 Q399 -4 253 -12 L236 -96 L186 -96 L204 -12 Q124 -5 79 34 Q34 73 17 118 L25 156 L73 156 Q82 109 125 73.5 Q168 38 238 38 Q303 38 353 68 Q403 98 430 138 L452 240 Q445 269 420 290 Q395 311 335 327 L265 346 Q192 366 160.5 391 Q129 416 111 455 L142 599 Q172 642 228 675.5 Q284 709 360 712 L377 796 L427 796 L409 711 Q476 703 517.5 671 Q559 639 576 599 Z " />
<glyph glyph-name="cent" unicode="&#xa2;" horiz-adv-x="520" d="M512 423 L505 391 L463 391 Q455 440 418 470.5 Q381 501 319 501 Q261 501 215 472.5 Q169 444 144 403 L85 128 Q94 88 129 61.5 Q164 35 222 35 Q283 35 329 65 Q375 95 404 145 L452 145 L445 113 Q419 66 367 29.5 Q315 -7 239 -12 L221 -96 L170 -96 L188 -11 Q119 -3 77.5 35 Q36 73 27 117 L93 419 Q122 469 176 507 Q230 545 308 548 L326 632 L377 632 L359 546 Q425 538 464 501.5 Q503 465 512 423 Z " />
<glyph glyph-name="sterling" unicode="&#xa3;" horiz-adv-x="606" d="M619 588 L611 551 L567 551 Q558 600 518 632.5 Q478 665 415 665 Q357 665 308 636.5 Q259 608 233 568 L191 372 L461 372 L451 328 L182 328 L133 103 Q118 74 79 47 L503 47 L492 0 L-10 0 L0 44 Q16 48 39 64.5 Q62 81 77 106 L125 328 L59 328 L69 372 L134 372 L180 584 Q210 635 273.5 674 Q337 713 421 713 Q478 713 520.5 693 Q563 673 587.5 644.5 Q612 616 619 588 Z " />
<glyph glyph-name="florin" unicode="&#x192;" horiz-adv-x="439" d="M305 601 L286 514 L451 514 L442 471 L277 471 L156 -93 Q131 -130 90 -156.5 Q49 -183 -23 -183 Q-46 -183 -65.5 -180.5 Q-85 -178 -93 -175 L-85 -136 L-30 -136 Q64 -136 104 -72 L221 471 L137 471 L146 514 L231 514 L254 622 Q312 712 433 712 Q456 712 475.5 709.5 Q495 707 503 704 L494 665 L439 665 Q382 665 351 645.5 Q320 626 305 601 Z " />
<glyph glyph-name="yen" unicode="&#xa5;" horiz-adv-x="556" d="M299 229 L510 229 L502 189 L290 189 L250 0 L189 0 L230 189 L21 189 L29 229 L239 229 L258 315 L255 322 L49 322 L57 361 L240 361 L127 658 L136 700 L173 700 L296 370 L298 370 L559 700 L605 700 L596 658 L357 361 L538 361 L529 322 L325 322 L316 311 L299 229 Z " />
<glyph glyph-name="uni20A8" unicode="&#x20a8;" horiz-adv-x="522" d="M593 660 L432 660 Q456 643 472.5 620 Q489 597 493 571 L482 520 L562 520 L554 480 L474 480 L463 429 Q430 367 370 333.5 Q310 300 247 300 L148 300 L380 32 L372 0 L330 0 L75 300 L85 343 L233 343 Q283 343 333 369.5 Q383 396 410 443 L417 480 L114 480 L123 520 L426 520 L434 557 Q429 587 409 609 Q389 631 363.5 642 Q338 653 316 653 L152 653 L161 700 L601 700 L593 660 Z " />
<glyph glyph-name="uni20BA" unicode="&#x20ba;" horiz-adv-x="559" d="M479 162 L471 125 Q439 76 376 38 Q313 0 230 0 L48 0 L102 253 L27 220 L36 264 L112 297 L133 397 L57 364 L67 408 L143 441 L199 700 L255 700 L206 469 L446 573 L437 530 L196 425 L175 325 L415 430 L406 386 L165 281 L115 48 L227 48 Q291 48 346 80.5 Q401 113 431 162 L479 162 Z " />
<glyph glyph-name="uni20BD" unicode="&#x20bd;" horiz-adv-x="563" d="M579 583 L544 419 Q467 306 333 306 L153 306 L135 219 L425 219 L417 179 L126 179 L87 0 L27 0 L66 179 L1 179 L10 219 L74 219 L93 306 L28 306 L37 348 L102 348 L178 700 L403 700 Q464 700 512 668 Q560 636 579 583 Z M518 565 Q504 609 467 630 Q430 651 385 651 L228 651 L162 348 L312 348 Q369 348 414 370.5 Q459 393 490 436 L518 565 Z " />
<glyph glyph-name="ordfeminine" unicode="&#xaa;" horiz-adv-x="385" d="M404 623 L349 363 L310 363 L318 396 Q268 356 204 356 Q154 356 125 374 Q96 392 87 409 L107 505 Q122 525 152.5 542 Q183 559 233 559 L350 559 L362 616 Q357 640 334.5 656 Q312 672 275 672 Q213 672 173 621 L136 621 L141 646 Q160 669 192.5 688.5 Q225 708 277 708 Q333 708 365.5 682 Q398 656 404 623 Z M210 391 Q247 391 276 404 Q305 417 323 438 L342 526 L240 526 Q184 526 145 490 L131 425 Q140 413 158.5 402 Q177 391 210 391 Z " />
<glyph glyph-name="ordmasculine" unicode="&#xba;" horiz-adv-x="393" d="M412 623 L373 439 Q352 405 314.5 380.5 Q277 356 222 356 Q167 356 134 381.5 Q101 407 93 439 L132 623 Q153 658 190.5 683 Q228 708 283 708 Q339 708 371.5 682.5 Q404 657 412 623 Z M173 614 L138 448 Q142 424 164 408 Q186 392 222 392 Q258 392 286.5 408 Q315 424 333 448 L368 614 Q363 639 341 655.5 Q319 672 282 672 Q246 672 217.5 655.5 Q189 639 173 614 Z " />
<glyph glyph-name="numbersign" unicode="&#x23;" horiz-adv-x="587" d="M493 440 L422 252 L509 252 L499 209 L406 209 L327 0 L285 0 L293 32 L359 209 L157 209 L78 0 L36 0 L44 32 L110 209 L24 209 L34 252 L126 252 L197 440 L111 440 L119 483 L213 483 L294 700 L337 700 L330 668 L260 483 L462 483 L543 700 L586 700 L579 668 L509 483 L596 483 L587 440 L493 440 Z M446 440 L244 440 L173 252 L375 252 L446 440 Z " />
<glyph glyph-name="uni2116" unicode="&#x2116;" horiz-adv-x="943" d="M987 611 L948 435 Q922 398 877 369 Q832 340 768 340 Q703 340 671.5 368.5 Q640 397 628 435 L667 611 Q693 649 737 677.5 Q781 706 847 706 Q912 706 944 677.5 Q976 649 987 611 Z M437 0 L359 0 L217 614 L214 614 L82 0 L25 0 L175 700 L253 700 L396 86 L398 86 L530 700 L588 700 L437 0 Z M710 600 L678 447 Q686 419 709.5 399.5 Q733 380 778 380 Q854 380 905 447 L937 600 Q930 628 906.5 647.5 Q883 667 839 667 Q762 667 710 600 Z M907 237 L586 237 L595 279 L915 279 L907 237 Z " />
<glyph glyph-name="zero" unicode="0" horiz-adv-x="578" d="M577 584 L477 117 Q445 65 383 26 Q321 -13 237 -13 Q180 -13 137 6.5 Q94 26 69 56 Q44 86 36 117 L136 584 Q168 636 231 674.5 Q294 713 377 713 Q434 713 476.5 693.5 Q519 674 544 644.5 Q569 615 577 584 Z M190 568 L96 132 Q105 92 143.5 64 Q182 36 241 36 Q300 36 348 64 Q396 92 424 134 L518 570 Q509 610 470 637.5 Q431 665 372 665 Q314 665 265 636.5 Q216 608 190 568 Z " />
<glyph glyph-name="one" unicode="1" horiz-adv-x="429" d="M205 44 L325 44 L315 0 L13 0 L23 44 L148 44 L274 628 L134 570 L145 622 L313 700 L346 700 L205 44 Z " />
<glyph glyph-name="two" unicode="2" horiz-adv-x="556" d="M562 584 L532 446 Q511 411 473 382 Q435 353 363 313 L253 253 Q180 213 139.5 181.5 Q99 150 80 120 L65 49 L456 49 L446 0 L-2 0 L28 140 Q58 182 95 212.5 Q132 243 225 295 L333 355 Q392 388 428 414 Q464 440 480 465 L503 571 Q494 610 455.5 637.5 Q417 665 359 665 Q299 665 247 632 Q195 599 167 551 L117 551 L125 588 Q158 637 219.5 675 Q281 713 363 713 Q420 713 462.5 693 Q505 673 530 643.5 Q555 614 562 584 Z " />
<glyph glyph-name="three" unicode="3" horiz-adv-x="563" d="M548 600 L519 463 Q502 436 466 410.5 Q430 385 380 370 Q427 356 456 324.5 Q485 293 492 259 L461 117 Q431 64 368.5 25.5 Q306 -13 222 -13 Q166 -13 123 6.5 Q80 26 54 55 Q28 84 20 112 L28 150 L75 150 Q83 102 123.5 69 Q164 36 226 36 Q285 36 333 64 Q381 92 409 134 L434 250 Q426 290 387 318 Q348 346 287 346 L223 346 L232 392 L285 392 Q343 392 390.5 417.5 Q438 443 465 475 L490 588 Q478 618 442.5 641.5 Q407 665 351 665 Q290 665 243.5 635.5 Q197 606 174 568 L123 568 L131 605 Q158 644 216.5 678.5 Q275 713 355 713 Q411 713 452.5 694.5 Q494 676 517.5 649.5 Q541 623 548 600 Z " />
<glyph glyph-name="four" unicode="4" horiz-adv-x="559" d="M429 235 L530 235 L520 187 L419 187 L378 0 L323 0 L363 187 L12 187 L23 234 L442 700 L529 700 L429 235 Z M460 649 L88 235 L374 235 L463 649 L460 649 Z " />
<glyph glyph-name="five" unicode="5" horiz-adv-x="564" d="M217 650 L164 402 Q194 426 235 442 Q276 458 326 458 Q379 458 419.5 439 Q460 420 483.5 392 Q507 364 514 335 L466 112 Q436 63 374.5 25 Q313 -13 231 -13 Q174 -13 131 6.5 Q88 26 62.5 54.5 Q37 83 29 112 L37 150 L84 150 Q90 102 130.5 69 Q171 36 235 36 Q293 36 341.5 65 Q390 94 418 135 L456 316 Q447 356 409.5 383 Q372 410 313 410 Q259 410 218.5 389 Q178 368 151 342 L98 342 L175 700 L583 700 L573 650 L217 650 Z " />
<glyph glyph-name="six" unicode="6" horiz-adv-x="572" d="M576 588 L568 551 L523 551 Q515 601 475 633 Q435 665 372 665 Q314 665 265 636 Q216 607 190 566 L148 369 Q223 435 327 435 Q380 435 420.5 416.5 Q461 398 484.5 370 Q508 342 516 312 L473 112 Q443 63 381.5 25 Q320 -13 237 -13 Q180 -13 137 7 Q94 27 69 56.5 Q44 86 36 117 L137 584 Q169 636 232 674.5 Q295 713 378 713 Q435 713 477 693.5 Q519 674 543.5 645.5 Q568 617 576 588 Z M134 308 L97 132 Q106 92 144 64 Q182 36 241 36 Q299 36 348 64.5 Q397 93 424 134 L459 294 Q449 333 411 360 Q373 387 314 387 Q261 387 213.5 365 Q166 343 134 308 Z " />
<glyph glyph-name="seven" unicode="7" horiz-adv-x="479" d="M531 654 L93 0 L47 0 L56 42 L467 650 L97 650 L108 700 L541 700 L531 654 Z " />
<glyph glyph-name="eight" unicode="8" horiz-adv-x="578" d="M391 372 Q456 350 481.5 325 Q507 300 521 263 L489 118 Q456 67 392.5 27 Q329 -13 236 -13 Q145 -13 93.5 27.5 Q42 68 24 118 L56 264 Q81 299 119.5 325 Q158 351 230 373 Q182 391 158.5 414.5 Q135 438 125 466 L153 603 Q188 649 244 681 Q300 713 377 713 Q454 713 503 679.5 Q552 646 568 603 L539 465 Q518 435 484 413 Q450 391 391 372 Z M512 587 Q498 621 462.5 642.5 Q427 664 372 664 Q318 664 274.5 640.5 Q231 617 203 582 L180 479 Q198 430 287 404 L321 394 Q446 424 489 484 L512 587 Z M336 342 L305 350 Q162 319 108 246 L83 132 Q95 96 136 66 Q177 36 242 36 Q308 36 359 66.5 Q410 97 437 136 L462 252 Q452 281 424.5 303 Q397 325 336 342 Z " />
<glyph glyph-name="nine" unicode="9" horiz-adv-x="572" d="M571 583 L471 116 Q439 65 376 26 Q313 -13 230 -13 Q173 -13 131 6.5 Q89 26 64.5 54.5 Q40 83 31 112 L39 149 L84 149 Q92 99 132 67 Q172 35 235 35 Q294 35 342.5 64 Q391 93 418 134 L459 326 Q379 259 279 259 Q226 259 185.5 277.5 Q145 296 121 324.5 Q97 353 89 383 L134 588 Q165 637 226.5 675 Q288 713 370 713 Q427 713 470.5 693 Q514 673 539 643 Q564 613 571 583 Z M472 388 L511 568 Q501 608 463 636 Q425 664 367 664 Q309 664 259.5 635 Q210 606 183 566 L147 401 Q156 362 194.5 335 Q233 308 292 308 Q345 308 392.5 330 Q440 352 472 388 Z " />
<glyph glyph-name="uni00A0" unicode="&#xa0;" horiz-adv-x="208" d="" />
<glyph glyph-name="fraction" unicode="&#x2044;" horiz-adv-x="155" d="M429 671 L-207 0 L-245 0 L-238 29 L397 700 L435 700 L429 671 Z " />
<glyph glyph-name="onequarter" unicode="&#xbc;" horiz-adv-x="837" d="M774 671 L138 0 L100 0 L107 29 L742 700 L780 700 L774 671 Z M186 314 L260 314 L253 280 L54 280 L61 314 L139 314 L213 659 L131 649 L138 679 L235 700 L268 700 L186 314 Z M713 144 L780 144 L772 108 L706 108 L683 0 L638 0 L661 108 L424 108 L432 144 L705 420 L772 420 L713 144 Z M716 380 L485 144 L668 144 L718 380 L716 380 Z " />
<glyph glyph-name="onehalf" unicode="&#xbd;" horiz-adv-x="902" d="M185 314 L259 314 L252 280 L53 280 L60 314 L138 314 L212 659 L130 649 L137 679 L234 700 L267 700 L185 314 Z M772 671 L136 0 L98 0 L105 29 L740 700 L778 700 L772 671 Z M870 349 L855 274 Q840 250 812 229 Q784 208 736 182 L658 139 Q610 112 586.5 94.5 Q563 77 551 58 L548 40 L811 40 L802 0 L495 0 L509 69 Q528 98 554 120 Q580 142 643 176 L719 218 Q760 241 780.5 255.5 Q801 270 812 287 L823 340 Q815 361 791 375.5 Q767 390 727 390 Q686 390 653.5 371 Q621 352 600 327 L564 327 L570 356 Q590 383 631.5 405.5 Q673 428 729 428 Q788 428 824 404 Q860 380 870 349 Z " />
<glyph glyph-name="threequarters" unicode="&#xbe;" horiz-adv-x="901" d="M827 671 L191 0 L153 0 L160 29 L795 700 L833 700 L827 671 Z M766 144 L833 144 L825 108 L759 108 L736 0 L691 0 L714 108 L477 108 L485 144 L758 420 L825 420 L766 144 Z M769 380 L538 144 L721 144 L771 380 L769 380 Z M421 640 L403 555 Q393 541 370.5 525 Q348 509 317 500 Q347 492 365 474.5 Q383 457 389 437 L371 350 Q350 318 308 295.5 Q266 273 208 273 Q169 273 137.5 284.5 Q106 296 87 313 Q68 330 64 346 L71 378 L102 378 Q110 350 139 330.5 Q168 311 211 311 Q248 311 280 327 Q312 343 328 365 L341 431 Q335 452 310 466.5 Q285 481 246 481 L201 481 L209 519 L250 519 Q285 519 314.5 533 Q344 547 360 564 L373 629 Q365 645 343 657.5 Q321 670 286 670 Q212 670 167 611 L131 611 L138 643 Q157 667 194.5 687.5 Q232 708 289 708 Q344 708 377.5 686 Q411 664 421 640 Z " />
<glyph glyph-name="fiveeighths" unicode="&#x215d;" horiz-adv-x="975" d="M937 363 L917 272 Q908 257 888 242 Q868 227 840 218 Q866 206 882 189 Q898 172 902 155 L884 70 Q863 37 822.5 15 Q782 -7 723 -7 Q664 -7 626 17 Q588 41 580 70 L598 155 Q629 203 688 223 Q666 233 651.5 246.5 Q637 260 632 272 L652 363 Q669 387 707.5 407.5 Q746 428 803 428 Q858 428 892 406.5 Q926 385 937 363 Z M890 348 Q881 364 859 377.5 Q837 391 801 391 Q765 391 736 377.5 Q707 364 694 348 L679 280 Q687 264 710.5 250.5 Q734 237 770 237 Q807 237 833 249.5 Q859 262 875 280 L890 348 Z M854 151 Q849 173 824 188 Q799 203 760 203 Q722 203 690 188 Q658 173 643 151 L629 82 Q635 60 660.5 44.5 Q686 29 724 29 Q762 29 793.5 44.5 Q825 60 840 82 L854 151 Z M429 660 L190 660 L160 521 Q201 555 266 555 Q317 555 351.5 533 Q386 511 397 483 L367 346 Q346 317 306.5 295 Q267 273 211 273 Q152 273 113.5 296 Q75 319 64 346 L72 378 L101 378 Q115 348 143 329.5 Q171 311 212 311 Q250 311 281.5 326 Q313 341 328 363 L350 467 Q343 489 318.5 504.5 Q294 520 256 520 Q224 520 195.5 506.5 Q167 493 151 478 L107 478 L155 700 L438 700 L429 660 Z M841 671 L205 0 L167 0 L174 29 L809 700 L847 700 L841 671 Z " />
<glyph glyph-name="oneeighth" unicode="&#x215b;" horiz-adv-x="918" d="M782 671 L146 0 L108 0 L115 29 L750 700 L788 700 L782 671 Z M187 314 L261 314 L254 280 L55 280 L62 314 L140 314 L214 659 L132 649 L139 679 L236 700 L269 700 L187 314 Z M879 363 L859 272 Q850 257 830 242 Q810 227 782 218 Q808 206 824 189 Q840 172 844 155 L826 70 Q805 37 764.5 15 Q724 -7 665 -7 Q606 -7 568 17 Q530 41 522 70 L540 155 Q571 203 630 223 Q608 233 593.5 246.5 Q579 260 574 272 L594 363 Q611 387 649.5 407.5 Q688 428 745 428 Q800 428 834 406.5 Q868 385 879 363 Z M832 348 Q823 364 801 377.5 Q779 391 743 391 Q707 391 678 377.5 Q649 364 636 348 L621 280 Q629 264 652.5 250.5 Q676 237 712 237 Q749 237 775 249.5 Q801 262 817 280 L832 348 Z M796 151 Q791 173 766 188 Q741 203 702 203 Q664 203 632 188 Q600 173 585 151 L571 82 Q577 60 602.5 44.5 Q628 29 666 29 Q704 29 735.5 44.5 Q767 60 782 82 L796 151 Z " />
<glyph glyph-name="seveneighths" unicode="&#x215e;" horiz-adv-x="907" d="M879 363 L859 272 Q850 257 830 242 Q810 227 782 218 Q808 206 824 189 Q840 172 844 155 L826 70 Q805 37 764.5 15 Q724 -7 665 -7 Q606 -7 568 17 Q530 41 522 70 L540 155 Q571 203 630 223 Q608 233 593.5 246.5 Q579 260 574 272 L594 363 Q611 387 649.5 407.5 Q688 428 745 428 Q800 428 834 406.5 Q868 385 879 363 Z M832 348 Q823 364 801 377.5 Q779 391 743 391 Q707 391 678 377.5 Q649 364 636 348 L621 280 Q629 264 652.5 250.5 Q676 237 712 237 Q749 237 775 249.5 Q801 262 817 280 L832 348 Z M796 151 Q791 173 766 188 Q741 203 702 203 Q664 203 632 188 Q600 173 585 151 L571 82 Q577 60 602.5 44.5 Q628 29 666 29 Q704 29 735.5 44.5 Q767 60 782 82 L796 151 Z M424 665 L153 280 L115 280 L121 310 L368 658 L368 660 L125 660 L134 700 L431 700 L424 665 Z M764 671 L128 0 L90 0 L97 29 L732 700 L770 700 L764 671 Z " />
<glyph glyph-name="threeeighths" unicode="&#x215c;" horiz-adv-x="958" d="M930 363 L910 272 Q901 257 881 242 Q861 227 833 218 Q859 206 875 189 Q891 172 895 155 L877 70 Q856 37 815.5 15 Q775 -7 716 -7 Q657 -7 619 17 Q581 41 573 70 L591 155 Q622 203 681 223 Q659 233 644.5 246.5 Q630 260 625 272 L645 363 Q662 387 700.5 407.5 Q739 428 796 428 Q851 428 885 406.5 Q919 385 930 363 Z M883 348 Q874 364 852 377.5 Q830 391 794 391 Q758 391 729 377.5 Q700 364 687 348 L672 280 Q680 264 703.5 250.5 Q727 237 763 237 Q800 237 826 249.5 Q852 262 868 280 L883 348 Z M847 151 Q842 173 817 188 Q792 203 753 203 Q715 203 683 188 Q651 173 636 151 L622 82 Q628 60 653.5 44.5 Q679 29 717 29 Q755 29 786.5 44.5 Q818 60 833 82 L847 151 Z M422 640 L404 555 Q394 541 371.5 525 Q349 509 318 500 Q348 492 366 474.5 Q384 457 390 437 L372 350 Q351 318 309 295.5 Q267 273 209 273 Q170 273 138.5 284.5 Q107 296 88 313 Q69 330 65 346 L72 378 L103 378 Q111 350 140 330.5 Q169 311 212 311 Q249 311 281 327 Q313 343 329 365 L342 431 Q336 452 311 466.5 Q286 481 247 481 L202 481 L210 519 L251 519 Q286 519 315.5 533 Q345 547 361 564 L374 629 Q366 645 344 657.5 Q322 670 287 670 Q213 670 168 611 L132 611 L139 643 Q158 667 195.5 687.5 Q233 708 290 708 Q345 708 378.5 686 Q412 664 422 640 Z M834 671 L198 0 L160 0 L167 29 L802 700 L840 700 L834 671 Z " />
<glyph glyph-name="uniE000" unicode="&#xe000;" horiz-adv-x="997" d="M845 671 L209 0 L171 0 L178 29 L813 700 L851 700 L845 671 Z M182 618 L158 505 Q207 542 272 542 Q326 542 361.5 520 Q397 498 406 470 L378 346 Q358 316 318 294.5 Q278 273 219 273 Q161 273 124 297 Q87 321 78 350 L138 631 Q158 661 200.5 684.5 Q243 708 302 708 Q360 708 395 685.5 Q430 663 440 635 L435 607 L402 607 Q396 634 367.5 652.5 Q339 671 298 671 Q263 671 230 655 Q197 639 182 618 Z M148 460 L127 362 Q133 340 158 324.5 Q183 309 221 309 Q259 309 290.5 324.5 Q322 340 338 363 L358 456 Q352 477 326.5 492 Q301 507 263 507 Q229 507 199 494 Q169 481 148 460 Z M942 363 L922 272 Q913 257 893 242 Q873 227 845 218 Q871 206 887 189 Q903 172 907 155 L889 70 Q868 37 827.5 15 Q787 -7 728 -7 Q669 -7 631 17 Q593 41 585 70 L603 155 Q634 203 693 223 Q671 233 656.5 246.5 Q642 260 637 272 L657 363 Q674 387 712.5 407.5 Q751 428 808 428 Q863 428 897 406.5 Q931 385 942 363 Z M895 348 Q886 364 864 377.5 Q842 391 806 391 Q770 391 741 377.5 Q712 364 699 348 L684 280 Q692 264 715.5 250.5 Q739 237 775 237 Q812 237 838 249.5 Q864 262 880 280 L895 348 Z M859 151 Q854 173 829 188 Q804 203 765 203 Q727 203 695 188 Q663 173 648 151 L634 82 Q640 60 665.5 44.5 Q691 29 729 29 Q767 29 798.5 44.5 Q830 60 845 82 L859 151 Z " />
<glyph glyph-name="uniE001" unicode="&#xe001;" horiz-adv-x="1253" d="M184 314 L258 314 L251 280 L52 280 L59 314 L137 314 L211 659 L129 649 L136 679 L233 700 L266 700 L184 314 Z M969 338 L945 225 Q994 262 1059 262 Q1113 262 1148.5 240 Q1184 218 1193 190 L1165 66 Q1145 36 1105 14.5 Q1065 -7 1006 -7 Q948 -7 911 17 Q874 41 865 70 L925 351 Q945 381 987.5 404.5 Q1030 428 1089 428 Q1147 428 1182 405.5 Q1217 383 1227 355 L1222 327 L1189 327 Q1183 354 1154.5 372.5 Q1126 391 1085 391 Q1050 391 1017 375 Q984 359 969 338 Z M935 180 L914 82 Q920 60 945 44.5 Q970 29 1008 29 Q1046 29 1077.5 44.5 Q1109 60 1125 83 L1145 176 Q1139 197 1113.5 212 Q1088 227 1050 227 Q1016 227 986 214 Q956 201 935 180 Z M781 671 L145 0 L107 0 L114 29 L749 700 L787 700 L781 671 Z M690 34 L764 34 L757 0 L558 0 L565 34 L643 34 L717 379 L635 369 L642 399 L739 420 L772 420 L690 34 Z " />
<glyph glyph-name="percent" unicode="&#x25;" horiz-adv-x="874" d="M429 626 L388 432 Q367 399 325 375 Q283 351 225 351 Q167 351 130 375.5 Q93 400 83 432 L125 626 Q146 659 188.5 683.5 Q231 708 288 708 Q347 708 383 683 Q419 658 429 626 Z M788 671 L148 0 L115 0 L121 29 L760 700 L794 700 L788 671 Z M170 617 L132 441 Q140 419 165 403.5 Q190 388 227 388 Q265 388 296.5 403.5 Q328 419 343 441 L381 617 Q373 640 349 655.5 Q325 671 287 671 Q249 671 217 655.5 Q185 640 170 617 Z M825 268 L783 74 Q762 41 720.5 17 Q679 -7 621 -7 Q562 -7 525.5 17.5 Q489 42 479 74 L521 268 Q543 301 584.5 325.5 Q626 350 684 350 Q743 350 779 325 Q815 300 825 268 Z M566 259 L528 83 Q535 60 559.5 45 Q584 30 622 30 Q660 30 691.5 45 Q723 60 739 83 L777 259 Q768 282 744 297.5 Q720 313 682 313 Q644 313 612 297 Q580 281 566 259 Z " />
<glyph glyph-name="perthousand" unicode="&#x2030;" horiz-adv-x="1248" d="M429 626 L388 432 Q367 399 325 375 Q283 351 225 351 Q167 351 130 375.5 Q93 400 83 432 L125 626 Q146 659 188.5 683.5 Q231 708 288 708 Q347 708 383 683 Q419 658 429 626 Z M788 671 L148 0 L115 0 L121 29 L760 700 L794 700 L788 671 Z M170 617 L132 441 Q140 419 165 403.5 Q190 388 227 388 Q265 388 296.5 403.5 Q328 419 343 441 L381 617 Q373 640 349 655.5 Q325 671 287 671 Q249 671 217 655.5 Q185 640 170 617 Z M825 268 L783 74 Q762 41 720.5 17 Q679 -7 621 -7 Q562 -7 525.5 17.5 Q489 42 479 74 L521 268 Q543 301 584.5 325.5 Q626 350 684 350 Q743 350 779 325 Q815 300 825 268 Z M1199 268 L1157 74 Q1136 41 1094.5 17 Q1053 -7 995 -7 Q937 -7 900 17.5 Q863 42 853 74 L895 268 Q916 301 958.5 325.5 Q1001 350 1058 350 Q1117 350 1153 325 Q1189 300 1199 268 Z M566 259 L528 83 Q535 60 559.5 45 Q584 30 622 30 Q660 30 691.5 45 Q723 60 739 83 L777 259 Q768 282 744 297.5 Q720 313 682 313 Q644 313 612 297 Q580 281 566 259 Z M940 259 L902 83 Q909 60 934 45 Q959 30 997 30 Q1035 30 1066.5 45.5 Q1098 61 1113 83 L1151 259 Q1143 282 1118.5 297.5 Q1094 313 1057 313 Q1019 313 986.5 297 Q954 281 940 259 Z " />
<glyph glyph-name="plus" unicode="&#x2b;" horiz-adv-x="582" d="M315 315 L315 94 L266 94 L266 315 L46 315 L46 363 L266 363 L266 583 L315 583 L315 363 L535 363 L535 315 L315 315 Z " />
<glyph glyph-name="minus" unicode="&#x2212;" horiz-adv-x="582" d="M545 315 L56 315 L56 363 L545 363 L545 315 Z " />
<glyph glyph-name="plusminus" unicode="&#xb1;" horiz-adv-x="582" d="M535 357 L315 357 L315 157 L266 157 L266 357 L46 357 L46 405 L266 405 L266 604 L315 604 L315 405 L535 405 L535 357 Z M535 80 L535 32 L46 32 L46 80 L535 80 Z " />
<glyph glyph-name="multiply" unicode="&#xd7;" horiz-adv-x="582" d="M336 339 L525 149 L525 117 L489 117 L302 305 L115 117 L79 117 L79 149 L268 339 L79 528 L79 560 L115 560 L302 373 L489 560 L525 560 L525 528 L336 339 Z " />
<glyph glyph-name="divide" unicode="&#xf7;" horiz-adv-x="582" d="M338 530 L338 486 Q334 480 324.5 474.5 Q315 469 301 469 Q287 469 277.5 474.5 Q268 480 264 486 L264 530 Q268 536 277.5 541 Q287 546 301 546 Q315 546 325 541 Q335 536 338 530 Z M545 315 L57 315 L57 363 L545 363 L545 315 Z M338 196 L338 151 Q335 145 325 140 Q315 135 301 135 Q287 135 277.5 140 Q268 145 264 151 L264 196 Q268 202 277.5 207 Q287 212 301 212 Q315 212 325 207 Q335 202 338 196 Z " />
<glyph glyph-name="equal" unicode="&#x3d;" horiz-adv-x="582" d="M56 213 L56 261 L545 261 L545 213 L56 213 Z M56 417 L56 465 L545 465 L545 417 L56 417 Z " />
<glyph glyph-name="notequal" unicode="&#x2260;" horiz-adv-x="582" d="M294 261 L546 261 L546 214 L274 214 L225 94 L177 94 L226 214 L57 214 L57 261 L245 261 L309 417 L57 417 L57 465 L328 465 L377 583 L425 583 L377 465 L546 465 L546 417 L357 417 L294 261 Z " />
<glyph glyph-name="approxequal" unicode="&#x2248;" horiz-adv-x="582" d="M326 264 Q365 252 394.5 245.5 Q424 239 453 239 Q482 239 507 249 Q532 259 548.5 270.5 Q565 282 565 283 L565 225 Q565 224 549.5 215 Q534 206 509.5 198.5 Q485 191 454 191 Q419 191 387.5 197.5 Q356 204 311 217 Q273 229 243.5 235.5 Q214 242 183 242 Q148 242 118 230.5 Q88 219 67.5 205.5 Q47 192 47 191 L47 244 Q47 245 66 257.5 Q85 270 116 280 Q147 290 185 290 Q218 290 250 283.5 Q282 277 326 264 Z M326 468 Q365 456 394.5 449.5 Q424 443 453 443 Q482 443 507 453 Q532 463 548.5 474.5 Q565 486 565 487 L565 429 Q565 428 549.5 419 Q534 410 509.5 402.5 Q485 395 454 395 Q419 395 387.5 401.5 Q356 408 311 421 Q273 433 243.5 439.5 Q214 446 183 446 Q148 446 118 434.5 Q88 423 67.5 409.5 Q47 396 47 395 L47 448 Q47 449 66 461.5 Q85 474 116 484 Q147 494 185 494 Q218 494 250 487.5 Q282 481 326 468 Z " />
<glyph glyph-name="less" unicode="&#x3c;" horiz-adv-x="582" d="M95 300 L538 102 L538 66 L498 66 L23 282 L23 320 L498 536 L538 536 L538 500 L95 300 Z " />
<glyph glyph-name="greater" unicode="&#x3e;" horiz-adv-x="582" d="M562 282 L87 66 L47 66 L47 102 L490 300 L47 500 L47 536 L87 536 L562 320 L562 282 Z " />
<glyph glyph-name="lessequal" unicode="&#x2264;" horiz-adv-x="582" d="M129 348 L535 187 L535 152 L495 152 L47 331 L47 362 L495 548 L535 548 L535 512 L129 348 Z M47 32 L47 80 L535 80 L535 32 L47 32 Z " />
<glyph glyph-name="greaterequal" unicode="&#x2265;" horiz-adv-x="582" d="M544 331 L96 152 L55 152 L55 187 L462 348 L55 512 L55 548 L96 548 L544 362 L544 331 Z M55 32 L55 80 L544 80 L544 32 L55 32 Z " />
<glyph glyph-name="logicalnot" unicode="&#xac;" horiz-adv-x="582" d="M527 94 L479 94 L479 315 L38 315 L38 363 L527 363 L527 94 Z " />
<glyph glyph-name="uni00AD" unicode="&#xad;" horiz-adv-x="362" d="M325 315 L57 315 L67 363 L336 363 L325 315 Z " />
<glyph glyph-name="Delta" unicode="&#x2206;" horiz-adv-x="598" d="M516 42 L507 0 L-25 0 L-16 42 L349 700 L433 700 L516 42 Z M455 50 L383 647 L380 647 L51 50 L455 50 Z " />
<glyph glyph-name="Omega" unicode="&#x2126;" horiz-adv-x="628" d="M372 50 L511 50 L500 0 L297 0 L314 74 Q370 83 413.5 117 Q457 151 482 192 L559 550 Q550 597 508 629.5 Q466 662 398 662 Q331 662 275.5 628 Q220 594 189 546 L112 188 Q120 149 149 116.5 Q178 84 232 74 L215 0 L12 0 L23 50 L171 50 Q122 69 91.5 105.5 Q61 142 51 183 L133 562 Q171 623 238.5 668 Q306 713 402 713 Q498 713 552.5 667 Q607 621 622 562 L540 183 Q516 139 472.5 104 Q429 69 372 50 Z " />
<glyph glyph-name="mu" unicode="&#xb5;" horiz-adv-x="544" d="M529 536 L413 0 L360 0 L371 52 Q305 -12 209 -12 Q164 -12 131.5 3 Q99 18 80 42 L35 -166 L-20 -166 L131 536 L187 536 L92 102 Q107 76 139 56 Q171 36 222 36 Q312 36 380 102 L473 536 L529 536 Z " />
<glyph glyph-name="pi" unicode="&#x3c0;" horiz-adv-x="608" d="M627 491 L551 491 L445 0 L389 0 L495 491 L209 491 L103 0 L47 0 L153 491 L77 491 L87 536 L638 536 L627 491 Z " />
<glyph glyph-name="degree" unicode="&#xb0;" horiz-adv-x="369" d="M431 730 L403 603 Q382 573 343 549.5 Q304 526 247 526 Q191 526 155.5 550.5 Q120 575 109 603 L137 730 Q157 759 197 783 Q237 807 294 807 Q350 807 385.5 782 Q421 757 431 730 Z M177 717 L155 617 Q164 596 187 581 Q210 566 248 566 Q316 566 363 617 L384 717 Q375 737 352 752 Q329 767 291 767 Q252 767 222.5 752 Q193 737 177 717 Z " />
<glyph glyph-name="infinity" unicode="&#x221e;" horiz-adv-x="788" d="M723 439 L723 262 Q709 230 669 205.5 Q629 181 571 181 Q515 181 481.5 203.5 Q448 226 421 262 L409 293 L397 263 Q370 226 337 203.5 Q304 181 248 181 Q190 181 150 206 Q110 231 95 263 L95 439 Q110 471 150 496 Q190 521 248 521 Q304 521 337 498.5 Q370 476 397 439 L409 409 L421 439 Q448 476 481.5 498.5 Q515 521 571 521 Q630 521 669.5 496 Q709 471 723 439 Z M386 351 L355 428 Q339 452 312 467 Q285 482 248 482 Q210 482 181.5 466.5 Q153 451 142 428 L142 273 Q153 250 181.5 234.5 Q210 219 248 219 Q285 219 312 234 Q339 249 355 273 L386 351 Z M676 429 Q666 451 638 466.5 Q610 482 571 482 Q534 482 506.5 467 Q479 452 463 429 L432 351 L463 273 Q479 250 506.5 234.5 Q534 219 571 219 Q609 219 637.5 234.5 Q666 250 676 273 L676 429 Z " />
<glyph glyph-name="partialdiff" unicode="&#x2202;" horiz-adv-x="540" d="M482 508 L482 117 Q460 65 407 26 Q354 -13 272 -13 Q189 -13 136 26 Q83 65 61 117 L61 363 Q81 414 133 453 Q185 492 264 492 Q362 492 426 424 L426 493 Q401 553 321.5 608.5 Q242 664 150 696 L184 730 Q284 697 370.5 634.5 Q457 572 482 508 Z M117 348 L117 131 Q133 90 173 62.5 Q213 35 271 35 Q329 35 369.5 62.5 Q410 90 426 131 L426 357 Q406 394 367 418.5 Q328 443 272 443 Q214 443 173.5 416 Q133 389 117 348 Z " />
<glyph glyph-name="integral" unicode="&#x222b;" horiz-adv-x="447" d="M427 704 L427 665 L372 665 Q278 665 252 601 L252 -93 Q235 -130 199 -156.5 Q163 -183 91 -183 Q68 -183 48.5 -180.5 Q29 -178 20 -175 L20 -136 L75 -136 Q169 -136 196 -72 L196 622 Q214 659 249 685.5 Q284 712 356 712 Q379 712 399 709.5 Q419 707 427 704 Z " />
<glyph glyph-name="radical" unicode="&#x221a;" horiz-adv-x="582" d="M593 668 L361 0 L293 0 L121 491 L60 491 L60 536 L164 536 L327 68 L330 68 L544 700 L593 700 L593 668 Z " />
<glyph glyph-name="summation" unicode="&#x2211;" horiz-adv-x="557" d="M370 323 L370 280 L153 -52 L536 -52 L536 -100 L80 -100 L80 -58 L314 301 L80 658 L80 700 L536 700 L536 652 L154 652 L370 323 Z " />
<glyph glyph-name="product" unicode="&#x220f;" horiz-adv-x="651" d="M517 -100 L517 652 L166 652 L166 -100 L106 -100 L106 700 L577 700 L577 -100 L517 -100 Z " />
<glyph glyph-name="lozenge" unicode="&#x25ca;" horiz-adv-x="570" d="M538 350 L333 0 L272 0 L68 350 L272 700 L333 700 L538 350 Z M130 350 L302 56 L475 350 L302 644 L130 350 Z " />
<glyph glyph-name="arrowleft" unicode="&#x2190;" horiz-adv-x="760" d="M21 369 L351 700 L386 700 L386 660 L98 375 L781 375 L781 324 L99 324 L386 40 L386 0 L351 0 L21 330 L21 369 Z " />
<glyph glyph-name="arrowright" unicode="&#x2192;" horiz-adv-x="760" d="M774 330 L444 0 L409 0 L409 40 L696 324 L14 324 L14 375 L697 375 L409 660 L409 700 L444 700 L774 369 L774 330 Z " />
<glyph glyph-name="arrowup" unicode="&#x2191;" horiz-adv-x="760" d="M757 399 L718 399 L435 683 L435 0 L380 0 L380 683 L96 399 L57 399 L57 429 L387 760 L428 760 L757 429 L757 399 Z " />
<glyph glyph-name="arrowdown" unicode="&#x2193;" horiz-adv-x="760" d="M723 271 L394 -60 L354 -60 L23 271 L23 301 L62 301 L347 17 L347 700 L402 700 L402 17 L684 301 L723 301 L723 271 Z " />
<glyph glyph-name="uni0410" unicode="&#x410;" horiz-adv-x="598" d="M516 42 L507 0 L462 0 L436 217 L143 217 L24 0 L-25 0 L-16 42 L349 700 L433 700 L516 42 Z M429 267 L382 648 L379 648 L171 267 L429 267 Z " />
<glyph glyph-name="uni0411" unicode="&#x411;" horiz-adv-x="573" d="M224 650 L174 415 L349 415 Q414 415 465.5 383 Q517 351 534 304 L494 118 Q459 65 403 32.5 Q347 0 272 0 L25 0 L175 700 L606 700 L596 650 L224 650 Z M163 365 L96 50 L264 50 Q324 50 365.5 73.5 Q407 97 442 140 L473 286 Q460 321 422 343 Q384 365 334 365 L163 365 Z " />
<glyph glyph-name="uni0412" unicode="&#x412;" horiz-adv-x="581" d="M435 361 Q466 350 492.5 326.5 Q519 303 530 273 L497 118 Q465 66 409.5 33 Q354 0 284 0 L25 0 L175 700 L401 700 Q469 700 516.5 666.5 Q564 633 581 583 L553 453 Q535 423 502.5 399 Q470 375 435 361 Z M521 567 Q509 606 474 628 Q439 650 386 650 L225 650 L168 386 L345 386 Q385 386 428.5 408.5 Q472 431 500 469 L521 567 Z M331 337 L157 337 L96 50 L261 50 Q329 50 371.5 73.5 Q414 97 445 140 L471 259 Q458 294 420 315.5 Q382 337 331 337 Z " />
<glyph glyph-name="uni0413" unicode="&#x413;" horiz-adv-x="486" d="M543 650 L225 650 L85 0 L25 0 L175 700 L554 700 L543 650 Z " />
<glyph glyph-name="uni0414" unicode="&#x414;" horiz-adv-x="671" d="M509 50 L591 50 L550 -138 L496 -138 L526 0 L25 0 L-5 -138 L-59 -138 L-18 50 Q18 60 54 84 Q90 108 104 131 L290 700 L648 700 L509 50 Z M449 50 L578 650 L329 650 L157 117 Q144 97 121.5 79.5 Q99 62 72 50 L449 50 Z " />
<glyph glyph-name="uni0415" unicode="&#x415;" horiz-adv-x="542" d="M564 650 L225 650 L168 387 L483 387 L473 336 L157 336 L96 50 L444 50 L433 0 L25 0 L175 700 L575 700 L564 650 Z " />
<glyph glyph-name="uni0416" unicode="&#x416;" horiz-adv-x="839" d="M638 369 L756 42 L747 0 L707 0 L586 342 L464 342 L390 0 L332 0 L406 342 L292 342 L23 0 L-25 0 L-15 42 L244 371 L126 658 L135 700 L171 700 L295 392 L417 392 L483 700 L541 700 L475 392 L589 392 L845 700 L889 700 L880 658 L638 369 Z " />
<glyph glyph-name="uni0417" unicode="&#x417;" horiz-adv-x="596" d="M596 583 L572 471 Q513 387 422 358 Q465 340 489.5 311 Q514 282 524 251 L496 118 Q459 64 398 25.5 Q337 -13 242 -13 Q177 -13 131 8.5 Q85 30 60.5 59.5 Q36 89 27 118 L35 155 L84 155 Q93 107 134 72.5 Q175 38 246 38 Q311 38 362 68 Q413 98 441 137 L463 240 Q453 278 412.5 308 Q372 338 302 336 L239 336 L240 344 L249 386 L320 386 Q387 384 438.5 415 Q490 446 516 486 L533 567 Q523 604 483.5 633.5 Q444 663 378 663 Q308 663 254 628 Q200 593 170 545 L119 545 L127 583 Q163 633 225.5 673 Q288 713 382 713 Q475 713 526.5 672.5 Q578 632 596 583 Z " />
<glyph glyph-name="uni0418" unicode="&#x418;" horiz-adv-x="657" d="M516 0 L459 0 L592 622 L589 622 L101 0 L25 0 L175 700 L232 700 L99 78 L102 78 L590 700 L667 700 L516 0 Z " />
<glyph glyph-name="uni0419" unicode="&#x419;" horiz-adv-x="657" d="M516 0 L459 0 L592 622 L589 622 L101 0 L25 0 L175 700 L232 700 L99 78 L102 78 L590 700 L667 700 L516 0 Z M576 816 Q561 789 527.5 768 Q494 747 441 747 Q389 747 358 768.5 Q327 790 318 816 L328 865 L373 865 L366 829 Q368 815 386.5 800 Q405 785 441 785 Q479 785 501.5 799.5 Q524 814 532 829 L540 865 L586 865 L576 816 Z " />
<glyph glyph-name="uni041A" unicode="&#x41a;" horiz-adv-x="559" d="M325 369 L476 42 L467 0 L430 0 L274 342 L157 342 L83 0 L23 0 L174 700 L234 700 L168 392 L276 392 L564 700 L608 700 L599 658 L325 369 Z " />
<glyph glyph-name="uni041B" unicode="&#x41b;" horiz-adv-x="634" d="M494 0 L434 0 L574 650 L326 650 L140 77 Q85 -3 -38 -3 L-27 48 Q12 48 43.5 65.5 Q75 83 91 107 L285 700 L644 700 L494 0 Z " />
<glyph glyph-name="uni041C" unicode="&#x41c;" horiz-adv-x="751" d="M611 0 L553 0 L688 625 L685 625 L388 201 L334 201 L220 625 L217 625 L82 0 L25 0 L175 700 L258 700 L373 272 L376 272 L674 700 L761 700 L611 0 Z " />
<glyph glyph-name="uni041D" unicode="&#x41d;" horiz-adv-x="641" d="M500 0 L440 0 L512 335 L157 335 L85 0 L25 0 L175 700 L235 700 L168 386 L523 386 L591 700 L651 700 L500 0 Z " />
<glyph glyph-name="uni041E" unicode="&#x41e;" horiz-adv-x="626" d="M621 562 L530 138 Q490 74 425.5 30.5 Q361 -13 265 -13 Q198 -13 150.5 10 Q103 33 76 67.5 Q49 102 41 139 L132 563 Q172 626 236 669.5 Q300 713 396 713 Q462 713 510 690 Q558 667 585.5 632.5 Q613 598 621 562 Z M188 545 L104 152 Q112 104 155 71 Q198 38 266 38 Q335 38 388 71.5 Q441 105 474 156 L558 549 Q550 596 506.5 629.5 Q463 663 395 663 Q326 663 273 629.5 Q220 596 188 545 Z " />
<glyph glyph-name="uni041F" unicode="&#x41f;" horiz-adv-x="635" d="M495 0 L435 0 L575 650 L225 650 L85 0 L25 0 L175 700 L646 700 L495 0 Z " />
<glyph glyph-name="uni0420" unicode="&#x420;" horiz-adv-x="560" d="M578 583 L539 401 Q501 344 444.5 313.5 Q388 283 319 283 L146 283 L85 0 L25 0 L175 700 L388 700 Q462 700 510 669 Q558 638 578 583 Z M515 566 Q501 609 465 629.5 Q429 650 380 650 L224 650 L156 334 L315 334 Q365 334 409.5 356.5 Q454 379 485 424 L515 566 Z " />
<glyph glyph-name="uni0421" unicode="&#x421;" horiz-adv-x="606" d="M620 565 L612 527 L566 527 Q560 585 515 624 Q470 663 395 663 Q324 663 271.5 629 Q219 595 188 545 L104 151 Q113 103 155.5 70.5 Q198 38 267 38 Q341 38 395 74.5 Q449 111 483 173 L536 173 L527 136 Q493 74 428 30.5 Q363 -13 266 -13 Q199 -13 151 9.5 Q103 32 76 67 Q49 102 41 139 L132 562 Q166 623 233 668 Q300 713 396 713 Q462 713 510 690.5 Q558 668 585 634 Q612 600 620 565 Z " />
<glyph glyph-name="uni0422" unicode="&#x422;" horiz-adv-x="524" d="M581 650 L374 650 L234 0 L174 0 L314 650 L107 650 L118 700 L592 700 L581 650 Z " />
<glyph glyph-name="uni0423" unicode="&#x423;" horiz-adv-x="549" d="M603 700 L594 658 L228 61 Q199 24 160 10 Q121 -4 71 -4 Q62 -4 29 -1 L39 47 Q42 47 51.5 46 Q61 45 76 45 Q138 45 183 88 L233 171 L122 658 L131 700 L172 700 L275 235 L555 700 L603 700 Z " />
<glyph glyph-name="uni0424" unicode="&#x424;" horiz-adv-x="709" d="M693 513 L624 187 Q583 128 514 92.5 Q445 57 376 57 L337 57 L316 -40 L261 -40 L282 57 L255 57 Q187 57 129 94.5 Q71 132 52 187 L121 513 Q162 570 231 606.5 Q300 643 368 643 L407 643 L428 740 L483 740 L462 643 L490 643 Q535 643 577.5 625.5 Q620 608 651 578 Q682 548 693 513 Z M396 594 L371 594 Q321 594 264.5 566.5 Q208 539 175 498 L112 202 Q127 160 171.5 133 Q216 106 267 106 L292 106 L396 594 Z M633 498 Q620 540 575 567 Q530 594 478 594 L452 594 L348 106 L373 106 Q424 106 480.5 133 Q537 160 570 202 L633 498 Z " />
<glyph glyph-name="uni0425" unicode="&#x425;" horiz-adv-x="575" d="M345 355 L477 42 L468 0 L429 0 L301 317 L298 317 L37 0 L-10 0 L-1 42 L266 361 L139 658 L148 700 L186 700 L312 398 L315 398 L567 700 L613 700 L604 658 L345 355 Z " />
<glyph glyph-name="uni0426" unicode="&#x426;" horiz-adv-x="665" d="M503 50 L585 50 L545 -138 L490 -138 L520 0 L25 0 L175 700 L235 700 L96 50 L443 50 L583 700 L643 700 L503 50 Z " />
<glyph glyph-name="uni0427" unicode="&#x427;" horiz-adv-x="618" d="M628 700 L477 0 L417 0 L485 314 Q448 288 399 271.5 Q350 255 294 255 Q236 255 193.5 271 Q151 287 126.5 309.5 Q102 332 92 353 L166 700 L226 700 L156 374 Q168 348 204.5 326 Q241 304 304 304 Q363 304 415 325 Q467 346 498 376 L568 700 L628 700 Z " />
<glyph glyph-name="uni0428" unicode="&#x428;" horiz-adv-x="901" d="M760 0 L25 0 L175 700 L235 700 L96 50 L374 50 L513 700 L573 700 L434 50 L712 50 L851 700 L911 700 L760 0 Z " />
<glyph glyph-name="uni0429" unicode="&#x429;" horiz-adv-x="934" d="M772 50 L854 50 L813 -138 L759 -138 L789 0 L25 0 L175 700 L235 700 L96 50 L374 50 L513 700 L573 700 L434 50 L712 50 L851 700 L911 700 L772 50 Z " />
<glyph glyph-name="uni042A" unicode="&#x42a;" horiz-adv-x="670" d="M627 305 L587 118 Q552 67 495.5 33.5 Q439 0 364 0 L117 0 L257 650 L107 650 L118 700 L328 700 L267 417 L446 417 Q505 417 557.5 384 Q610 351 627 305 Z M567 288 Q553 322 515.5 344 Q478 366 432 366 L256 366 L189 50 L352 50 Q458 50 535 141 L567 288 Z " />
<glyph glyph-name="uni042B" unicode="&#x42b;" horiz-adv-x="769" d="M174 417 L335 417 Q394 417 446.5 384 Q499 351 516 305 L476 118 Q441 67 384.5 33.5 Q328 0 253 0 L25 0 L175 700 L235 700 L174 417 Z M629 0 L569 0 L720 700 L780 700 L629 0 Z M163 366 L96 50 L241 50 Q347 50 424 141 L456 288 Q442 322 404.5 344 Q367 366 321 366 L163 366 Z " />
<glyph glyph-name="uni042C" unicode="&#x42c;" horiz-adv-x="577" d="M174 417 L353 417 Q412 417 464.5 384 Q517 351 534 305 L494 118 Q459 67 402.5 33.5 Q346 0 271 0 L25 0 L175 700 L235 700 L174 417 Z M163 366 L96 50 L259 50 Q365 50 442 141 L474 288 Q460 322 422.5 344 Q385 366 339 366 L163 366 Z " />
<glyph glyph-name="uni042D" unicode="&#x42d;" horiz-adv-x="616" d="M610 562 L519 139 Q485 78 418.5 32.5 Q352 -13 256 -13 Q190 -13 142 9.5 Q94 32 67 66 Q40 100 31 136 L39 173 L85 173 Q92 115 137 76.5 Q182 38 256 38 Q327 38 379.5 71.5 Q432 105 463 155 L502 336 L237 336 L247 387 L513 387 L547 549 Q538 597 496 630 Q454 663 385 663 Q311 663 256.5 626 Q202 589 169 527 L115 527 L124 565 Q158 626 223 669.5 Q288 713 385 713 Q452 713 500 690.5 Q548 668 575 633.5 Q602 599 610 562 Z " />
<glyph glyph-name="uni042E" unicode="&#x42e;" horiz-adv-x="856" d="M851 562 L759 139 Q720 75 656 31 Q592 -13 499 -13 Q405 -13 354 32.5 Q303 78 289 139 L332 336 L157 336 L85 0 L25 0 L175 700 L235 700 L168 387 L343 387 L381 562 Q420 626 483 669.5 Q546 713 640 713 Q732 713 784 667.5 Q836 622 851 562 Z M787 549 Q779 597 739.5 630 Q700 663 635 663 Q572 663 519.5 629 Q467 595 436 545 L352 152 Q361 104 400.5 71 Q440 38 504 38 Q568 38 620 71.5 Q672 105 703 156 L787 549 Z " />
<glyph glyph-name="uni042F" unicode="&#x42f;" horiz-adv-x="583" d="M593 700 L443 0 L383 0 L449 308 L308 308 L49 0 L2 0 L11 42 L240 310 Q187 318 149.5 349.5 Q112 381 96 425 L131 583 Q171 638 226.5 669 Q282 700 346 700 L593 700 Z M460 358 L523 650 L355 650 Q306 650 261 626.5 Q216 603 183 560 L158 441 Q172 401 206.5 379.5 Q241 358 292 358 L460 358 Z " />
<glyph glyph-name="uni0490" unicode="&#x490;" horiz-adv-x="468" d="M525 650 L225 650 L85 0 L25 0 L175 700 L482 700 L508 824 L562 824 L525 650 Z " />
<glyph glyph-name="uni0406" unicode="&#x406;" horiz-adv-x="225" d="M85 0 L25 0 L175 700 L235 700 L85 0 Z " />
<glyph glyph-name="uni0402" unicode="&#x402;" horiz-adv-x="693" d="M663 343 L610 97 Q579 58 517.5 28.5 Q456 -1 372 -1 L354 -1 L365 48 Q432 48 482 71 Q532 94 556 120 L599 323 Q587 348 549.5 369.5 Q512 391 448 391 Q390 391 338.5 369.5 Q287 348 256 318 L187 0 L127 0 L267 650 L107 650 L118 700 L543 700 L533 650 L327 650 L270 384 Q307 409 355.5 425 Q404 441 460 441 Q543 441 594 410 Q645 379 663 343 Z " />
<glyph glyph-name="uni0452" unicode="&#x452;" horiz-adv-x="564" d="M532 438 L427 -49 Q397 -104 336 -141.5 Q275 -179 191 -179 L200 -132 Q256 -132 302.5 -102.5 Q349 -73 375 -30 L473 425 Q463 451 431 473 Q399 495 345 495 Q291 495 248 474.5 Q205 454 177 423 L86 0 L30 0 L161 609 L109 609 L117 646 L169 646 L181 700 L236 700 L225 646 L428 646 L420 609 L217 609 L189 481 Q259 542 358 542 Q434 542 476.5 508.5 Q519 475 532 438 Z " />
<glyph glyph-name="uni0403" unicode="&#x403;" horiz-adv-x="486" d="M543 650 L225 650 L85 0 L25 0 L175 700 L554 700 L543 650 Z M364 754 L321 754 L324 770 L424 902 L477 902 L470 872 L364 754 Z " />
<glyph glyph-name="uni0453" unicode="&#x453;" horiz-adv-x="421" d="M443 491 L176 491 L71 0 L15 0 L131 536 L454 536 L443 491 Z M416 732 L308 607 L264 607 L267 622 L369 762 L423 762 L416 732 Z " />
<glyph glyph-name="uni0456" unicode="&#x456;" horiz-adv-x="210" d="M75 0 L19 0 L135 536 L191 536 L75 0 Z " />
<glyph glyph-name="uni0491" unicode="&#x491;" horiz-adv-x="421" d="M439 491 L176 491 L71 0 L15 0 L131 536 L399 536 L418 630 L469 630 L439 491 Z " />
<glyph glyph-name="uni0408" unicode="&#x408;" horiz-adv-x="386" d="M280 139 Q243 74 175 36.5 Q107 -1 14 -1 Q-10 -1 -22 -0.5 Q-34 0 -38 0 L-27 50 L15 50 Q82 50 138 79.5 Q194 109 226 158 L341 700 L401 700 L280 139 Z " />
<glyph glyph-name="uni0404" unicode="&#x404;" horiz-adv-x="616" d="M620 565 L612 527 L566 527 Q560 586 515 624.5 Q470 663 395 663 Q324 663 271.5 629 Q219 595 188 545 L154 387 L418 387 L408 336 L143 336 L104 151 Q113 103 155.5 70.5 Q198 38 266 38 Q340 38 394.5 75 Q449 112 483 173 L536 173 L527 136 Q493 74 428 30.5 Q363 -13 266 -13 Q199 -13 151 9.5 Q103 32 76 67 Q49 102 41 139 L132 562 Q166 623 233 668 Q300 713 396 713 Q462 713 510 690.5 Q558 668 585 634 Q612 600 620 565 Z " />
<glyph glyph-name="uni0454" unicode="&#x454;" horiz-adv-x="520" d="M512 423 L505 391 L462 391 Q454 440 417.5 470.5 Q381 501 319 501 Q261 501 215 472.5 Q169 444 144 403 L122 298 L346 298 L337 252 L112 252 L85 128 Q94 88 129 61.5 Q164 35 222 35 Q282 35 328 65 Q374 95 404 145 L452 145 L445 113 Q417 63 359.5 25 Q302 -13 220 -13 Q163 -13 121.5 6.5 Q80 26 56.5 56 Q33 86 27 117 L93 419 Q123 472 181 510.5 Q239 549 323 549 Q379 549 419.5 529.5 Q460 510 483 481 Q506 452 512 423 Z " />
<glyph glyph-name="uni0407" unicode="&#x407;" horiz-adv-x="225" d="M189 830 L180 788 Q164 775 142 775 Q129 775 120 779 Q111 783 108 788 L117 830 Q122 835 132.5 839 Q143 843 156 843 Q179 843 189 830 Z M350 830 L341 788 Q336 783 326 779 Q316 775 303 775 Q290 775 281.5 779 Q273 783 270 788 L279 830 Q292 843 317 843 Q330 843 338.5 839 Q347 835 350 830 Z M85 0 L25 0 L175 700 L235 700 L85 0 Z " />
<glyph glyph-name="uni0457" unicode="&#x457;" horiz-adv-x="235" d="M173 698 L164 656 Q147 642 126 642 Q113 642 104 646.5 Q95 651 92 656 L102 698 Q107 703 117 707.5 Q127 712 140 712 Q153 712 161.5 707.5 Q170 703 173 698 Z M318 698 L309 656 Q292 642 271 642 Q258 642 249 646.5 Q240 651 237 656 L247 698 Q252 703 262 707.5 Q272 712 285 712 Q298 712 306.5 707.5 Q315 703 318 698 Z M87 0 L31 0 L147 536 L203 536 L87 0 Z " />
<glyph glyph-name="uni0409" unicode="&#x409;" horiz-adv-x="986" d="M944 305 L904 118 Q869 67 812.5 33.5 Q756 0 681 0 L434 0 L574 650 L326 650 L140 77 Q87 -3 -37 -3 L-27 48 Q12 48 44 65.5 Q76 83 91 107 L286 700 L645 700 L584 417 L763 417 Q822 417 874.5 384 Q927 351 944 305 Z M884 288 Q870 322 832.5 344 Q795 366 749 366 L573 366 L506 50 L669 50 Q775 50 852 141 L884 288 Z " />
<glyph glyph-name="uni0459" unicode="&#x459;" horiz-adv-x="822" d="M776 234 L745 90 Q714 47 669.5 23.5 Q625 0 575 0 L351 0 L458 491 L253 491 L118 72 Q66 -4 -44 -4 L-34 43 Q1 43 29.5 59 Q58 75 71 96 L215 536 L523 536 L477 324 L629 324 Q684 324 722 298 Q760 272 776 234 Z M719 217 Q710 242 682 260 Q654 278 615 278 L467 278 L418 45 L567 45 Q603 45 637.5 64 Q672 83 697 112 L719 217 Z " />
<glyph glyph-name="uni040A" unicode="&#x40a;" horiz-adv-x="972" d="M930 305 L889 118 Q854 67 797.5 33.5 Q741 0 666 0 L420 0 L499 367 L222 367 L143 0 L83 0 L233 700 L293 700 L232 417 L509 417 L570 700 L630 700 L569 417 L748 417 Q807 417 859.5 384 Q912 351 930 305 Z M869 288 Q856 321 818.5 343.5 Q781 366 735 366 L559 366 L491 50 L654 50 Q760 50 837 141 L869 288 Z " />
<glyph glyph-name="uni045A" unicode="&#x45a;" horiz-adv-x="824" d="M780 234 L749 90 Q718 47 673 23.5 Q628 0 579 0 L355 0 L415 278 L131 278 L71 0 L15 0 L131 536 L187 536 L140 324 L425 324 L471 536 L527 536 L480 324 L633 324 Q688 324 726 298 Q764 272 780 234 Z M723 217 Q714 242 686 260 Q658 278 619 278 L471 278 L421 45 L571 45 Q607 45 641.5 64 Q676 83 701 112 L723 217 Z " />
<glyph glyph-name="uni0458" unicode="&#x458;" horiz-adv-x="202" d="M230 698 L221 656 Q216 650 205.5 645 Q195 640 181 640 Q167 640 158 645 Q149 650 147 656 L157 698 Q161 705 172.5 710 Q184 715 197 715 Q211 715 219 710 Q227 705 230 698 Z M61 -49 Q31 -104 -30 -141.5 Q-91 -179 -175 -179 L-166 -132 Q-110 -132 -63.5 -102.5 Q-17 -73 9 -30 L131 536 L187 536 L61 -49 Z " />
<glyph glyph-name="uni0405" unicode="&#x405;" horiz-adv-x="572" d="M577 599 L569 561 L522 561 Q510 607 469.5 634.5 Q429 662 365 662 Q310 662 263.5 638 Q217 614 189 578 L167 472 Q175 447 199 432 Q223 417 284 397 L361 373 Q439 348 470.5 321 Q502 294 514 255 L485 118 Q449 65 389 26 Q329 -13 236 -13 Q170 -13 122 8.5 Q74 30 46.5 60 Q19 90 10 118 L19 156 L66 156 Q79 105 123 71.5 Q167 38 240 38 Q306 38 355 68 Q404 98 431 139 L452 239 Q446 265 420.5 285 Q395 305 333 325 L253 350 Q183 372 152 394.5 Q121 417 104 456 L135 599 Q171 647 230 680 Q289 713 372 713 Q455 713 507 678.5 Q559 644 577 599 Z " />
<glyph glyph-name="uni040B" unicode="&#x40b;" horiz-adv-x="666" d="M533 650 L327 650 L277 414 L445 414 Q503 414 554 381 Q605 348 623 302 L557 0 L500 0 L562 286 Q548 320 511.5 341.5 Q475 363 429 363 L266 363 L187 0 L127 0 L267 650 L107 650 L118 700 L543 700 L533 650 Z " />
<glyph glyph-name="uni045B" unicode="&#x45b;" horiz-adv-x="564" d="M532 438 L438 0 L382 0 L473 425 Q462 452 429.5 473.5 Q397 495 341 495 Q290 495 247.5 474.5 Q205 454 177 423 L86 0 L30 0 L161 609 L109 609 L117 646 L169 646 L181 700 L236 700 L225 646 L428 646 L420 609 L217 609 L189 481 Q259 542 356 542 Q409 542 446.5 524.5 Q484 507 504.5 483.5 Q525 460 532 438 Z " />
<glyph glyph-name="uni040C" unicode="&#x40c;" horiz-adv-x="559" d="M325 369 L476 42 L467 0 L430 0 L274 342 L157 342 L83 0 L23 0 L174 700 L234 700 L168 392 L276 392 L564 700 L608 700 L599 658 L325 369 Z M401 754 L358 754 L361 770 L461 902 L514 902 L507 872 L401 754 Z " />
<glyph glyph-name="uni045C" unicode="&#x45c;" horiz-adv-x="479" d="M277 281 L409 39 L400 0 L368 0 L227 257 L126 257 L71 0 L15 0 L131 536 L187 536 L136 303 L231 303 L468 536 L507 536 L499 497 L277 281 Z M445 732 L337 607 L293 607 L296 622 L398 762 L452 762 L445 732 Z " />
<glyph glyph-name="uni0455" unicode="&#x455;" horiz-adv-x="474" d="M461 467 L454 435 L412 435 Q401 462 366.5 481.5 Q332 501 284 501 Q240 501 205 486 Q170 471 147 447 L129 363 Q138 347 159 334 Q180 321 221 308 L282 289 Q394 256 415 204 L388 81 Q361 44 311.5 15.5 Q262 -13 189 -13 Q113 -13 68 17 Q23 47 6 81 L13 113 L55 113 Q69 78 105 56.5 Q141 35 194 35 Q243 35 279.5 54 Q316 73 339 101 L358 187 Q350 206 327 219 Q304 232 261 245 L198 264 Q99 293 73 346 L99 467 Q122 497 171.5 523 Q221 549 290 549 Q357 549 400.5 523 Q444 497 461 467 Z " />
<glyph glyph-name="uni040E" unicode="&#x40e;" horiz-adv-x="548" d="M517 816 Q502 789 468.5 768 Q435 747 382 747 Q330 747 299 768.5 Q268 790 259 816 L269 865 L314 865 L307 829 Q309 815 327.5 800 Q346 785 382 785 Q420 785 442.5 799.5 Q465 814 473 829 L481 865 L527 865 L517 816 Z M603 700 L594 658 L228 61 Q199 24 160 10 Q121 -4 71 -4 Q62 -4 29 -1 L39 47 Q42 47 51.5 46 Q61 45 76 45 Q138 45 183 88 L233 171 L122 658 L131 700 L172 700 L275 235 L555 700 L603 700 Z " />
<glyph glyph-name="uni045E" unicode="&#x45e;" horiz-adv-x="497" d="M471 536 L520 536 L511 498 L177 -98 Q141 -140 98 -156 Q55 -172 1 -172 Q-36 -172 -50 -168 L-40 -123 Q-26 -125 -1 -125 Q44 -125 74.5 -111.5 Q105 -98 130 -73 L168 -3 L93 495 L102 536 L144 536 L209 67 L212 67 L471 536 Z M465 679 Q447 651 414 630.5 Q381 610 328 610 Q276 610 246 631.5 Q216 653 207 679 L217 728 L263 728 L255 692 Q257 678 275 663 Q293 648 330 648 Q367 648 390 662.5 Q413 677 422 692 L430 728 L475 728 L465 679 Z " />
<glyph glyph-name="uni040F" unicode="&#x40f;" horiz-adv-x="636" d="M496 0 L287 0 L259 -134 L205 -134 L233 0 L25 0 L175 700 L235 700 L96 50 L447 50 L587 700 L647 700 L496 0 Z " />
<glyph glyph-name="uni045F" unicode="&#x45f;" horiz-adv-x="555" d="M424 0 L246 0 L220 -124 L170 -124 L195 0 L15 0 L131 536 L187 536 L81 45 L378 45 L484 536 L540 536 L424 0 Z " />
<glyph glyph-name="uni0401" unicode="&#x401;" horiz-adv-x="542" d="M564 650 L225 650 L168 387 L483 387 L473 336 L157 336 L96 50 L444 50 L433 0 L25 0 L175 700 L575 700 L564 650 Z M341 841 L331 792 Q326 787 315.5 783 Q305 779 292 779 Q279 779 270.5 783 Q262 787 259 792 L269 841 Q274 846 284.5 850 Q295 854 308 854 Q321 854 329.5 850 Q338 846 341 841 Z M531 841 L521 792 Q516 787 505.5 783 Q495 779 482 779 Q469 779 460.5 783 Q452 787 449 792 L459 841 Q464 846 474.5 850 Q485 854 498 854 Q511 854 519.5 850 Q528 846 531 841 Z " />
<glyph glyph-name="uni0451" unicode="&#x451;" horiz-adv-x="534" d="M512 423 L479 269 L116 269 L86 128 Q94 88 129 61.5 Q164 35 222 35 Q282 35 327 64.5 Q372 94 401 145 L452 145 L445 113 Q416 62 359 24.5 Q302 -13 218 -13 Q161 -13 120 7 Q79 27 56 56.5 Q33 86 27 117 L93 419 Q122 471 180.5 510 Q239 549 322 549 Q378 549 419 529.5 Q460 510 483 481 Q506 452 512 423 Z M144 403 L126 314 L435 314 L455 407 Q449 447 413 474 Q377 501 318 501 Q260 501 215 473 Q170 445 144 403 Z M310 699 L299 651 Q294 646 283.5 641.5 Q273 637 260 637 Q247 637 238.5 641.5 Q230 646 227 651 L237 699 Q242 704 253 708.5 Q264 713 277 713 Q299 713 310 699 Z M500 699 L489 651 Q484 646 473.5 641.5 Q463 637 450 637 Q437 637 428.5 641.5 Q420 646 417 651 L427 699 Q432 704 442.5 708.5 Q453 713 466 713 Q489 713 500 699 Z " />
<glyph glyph-name="uni044F" unicode="&#x44f;" horiz-adv-x="519" d="M504 536 L388 0 L332 0 L380 221 L253 221 L46 0 L2 0 L10 37 L189 224 Q148 230 117.5 253.5 Q87 277 71 311 L101 446 Q128 485 172.5 510.5 Q217 536 265 536 L504 536 Z M390 265 L438 491 L278 491 Q241 491 206 471.5 Q171 452 149 424 L129 327 Q140 301 168 283 Q196 265 236 265 L390 265 Z " />
<glyph glyph-name="uni0430" unicode="&#x430;" horiz-adv-x="535" d="M499 419 L408 0 L354 0 L367 60 Q336 28 291 7.5 Q246 -13 189 -13 Q116 -13 73.5 13.5 Q31 40 13 71 L47 230 Q67 259 116 286.5 Q165 314 237 314 L421 314 L440 407 Q434 447 398 474 Q362 501 304 501 Q249 501 209 477.5 Q169 454 148 423 L98 423 L105 455 Q132 489 182 519 Q232 549 308 549 Q365 549 406 529 Q447 509 470 479 Q493 449 499 419 Z M411 269 L252 269 Q154 269 97 209 L73 90 Q85 70 116 52 Q147 34 200 34 Q256 34 302.5 58.5 Q349 83 378 118 L411 269 Z " />
<glyph glyph-name="uni0431" unicode="&#x431;" horiz-adv-x="539" d="M172 531 L152 437 Q225 496 321 496 Q374 496 413.5 476 Q453 456 475 426.5 Q497 397 503 367 L448 117 Q416 63 359 25 Q302 -13 219 -13 Q136 -13 88.5 26.5 Q41 66 30 117 L124 551 Q178 631 360 663 Q441 678 472.5 688 Q504 698 522 713 L561 713 L551 667 Q534 650 494.5 639.5 Q455 629 369 616 Q299 605 248.5 583 Q198 561 172 531 Z M139 376 L86 128 Q96 88 130 61.5 Q164 35 221 35 Q279 35 323.5 63 Q368 91 397 133 L445 354 Q438 394 402 421 Q366 448 307 448 Q258 448 213 427.5 Q168 407 139 376 Z " />
<glyph glyph-name="uni0432" unicode="&#x432;" horiz-adv-x="521" d="M491 446 L468 340 Q435 293 374 274 Q431 251 448 207 L423 91 Q396 50 352.5 25 Q309 0 251 0 L15 0 L131 536 L350 536 Q402 536 439.5 509.5 Q477 483 491 446 Z M436 430 Q425 458 398.5 474.5 Q372 491 336 491 L176 491 L134 295 L299 295 Q334 295 366 312.5 Q398 330 420 356 L436 430 Z M294 250 L125 250 L81 45 L234 45 Q284 45 316 62 Q348 79 376 113 L393 193 Q385 218 357.5 234 Q330 250 294 250 Z " />
<glyph glyph-name="uni0433" unicode="&#x433;" horiz-adv-x="421" d="M443 491 L176 491 L71 0 L15 0 L131 536 L454 536 L443 491 Z " />
<glyph glyph-name="uni0434" unicode="&#x434;" horiz-adv-x="571" d="M417 45 L491 45 L455 -124 L404 -124 L430 0 L7 0 L-18 -124 L-69 -124 L-33 45 Q0 54 33 75.5 Q66 97 78 117 L214 536 L522 536 L417 45 Z M51 45 L361 45 L456 491 L252 491 L128 104 Q117 87 96.5 71 Q76 55 51 45 Z " />
<glyph glyph-name="uni0435" unicode="&#x435;" horiz-adv-x="534" d="M512 423 L479 269 L116 269 L86 128 Q94 88 129 61.5 Q164 35 222 35 Q282 35 327 64.5 Q372 94 401 145 L452 145 L445 113 Q416 62 359 24.5 Q302 -13 218 -13 Q161 -13 120 7 Q79 27 56 56.5 Q33 86 27 117 L93 419 Q122 471 180.5 510 Q239 549 322 549 Q378 549 419 529.5 Q460 510 483 481 Q506 452 512 423 Z M144 403 L126 314 L435 314 L455 407 Q449 447 413 474 Q377 501 318 501 Q260 501 215 473 Q170 445 144 403 Z " />
<glyph glyph-name="uni0436" unicode="&#x436;" horiz-adv-x="689" d="M515 281 L607 39 L598 0 L563 0 L466 257 L368 257 L312 0 L258 0 L314 257 L226 257 L18 0 L-25 0 L-16 39 L179 283 L92 497 L100 536 L133 536 L227 303 L324 303 L374 536 L428 536 L378 303 L468 303 L663 536 L705 536 L696 497 L515 281 Z " />
<glyph glyph-name="uni0437" unicode="&#x437;" horiz-adv-x="506" d="M484 446 L464 352 Q447 329 419.5 309 Q392 289 354 277 Q411 256 432 204 L408 90 Q332 -13 198 -13 Q120 -13 76 20 Q32 53 17 90 L24 123 L67 123 Q78 86 112 60.5 Q146 35 204 35 Q257 35 295.5 57 Q334 79 358 110 L377 195 Q368 221 337 238 Q306 255 251 255 L205 255 L214 300 L261 300 Q315 300 352.5 319 Q390 338 414 367 L427 432 Q418 459 385.5 480 Q353 501 300 501 Q243 501 201 475.5 Q159 450 134 413 L86 413 L93 446 Q124 486 174.5 517.5 Q225 549 303 549 Q383 549 426 517 Q469 485 484 446 Z " />
<glyph glyph-name="uni0438" unicode="&#x438;" horiz-adv-x="569" d="M438 0 L384 0 L485 466 L482 466 L84 0 L15 0 L131 536 L184 536 L83 70 L86 70 L483 536 L554 536 L438 0 Z " />
<glyph glyph-name="uni0439" unicode="&#x439;" horiz-adv-x="569" d="M438 0 L384 0 L485 466 L482 466 L84 0 L15 0 L131 536 L184 536 L83 70 L86 70 L483 536 L554 536 L438 0 Z M501 679 Q483 651 450 630.5 Q417 610 364 610 Q312 610 282 631.5 Q252 653 243 679 L253 728 L299 728 L291 692 Q293 678 311 663 Q329 648 366 648 Q403 648 426 662.5 Q449 677 458 692 L466 728 L511 728 L501 679 Z " />
<glyph glyph-name="uni043A" unicode="&#x43a;" horiz-adv-x="479" d="M277 281 L409 39 L400 0 L368 0 L227 257 L126 257 L71 0 L15 0 L131 536 L187 536 L136 303 L231 303 L468 536 L507 536 L499 497 L277 281 Z " />
<glyph glyph-name="uni043B" unicode="&#x43b;" horiz-adv-x="538" d="M407 0 L351 0 L457 491 L252 491 L117 70 Q67 -4 -44 -4 L-34 43 Q1 43 29.5 59 Q58 75 71 96 L215 536 L523 536 L407 0 Z " />
<glyph glyph-name="uni043C" unicode="&#x43c;" horiz-adv-x="648" d="M517 0 L463 0 L565 470 L562 470 L319 149 L278 149 L173 470 L170 470 L68 0 L15 0 L131 536 L204 536 L308 215 L311 215 L553 536 L633 536 L517 0 Z " />
<glyph glyph-name="uni043D" unicode="&#x43d;" horiz-adv-x="565" d="M434 0 L378 0 L433 253 L126 253 L71 0 L15 0 L131 536 L187 536 L135 299 L442 299 L494 536 L550 536 L434 0 Z " />
<glyph glyph-name="uni043E" unicode="&#x43e;" horiz-adv-x="541" d="M514 419 L448 117 Q417 64 359.5 25.5 Q302 -13 218 -13 Q161 -13 120 6.5 Q79 26 56 56 Q33 86 27 117 L93 419 Q124 472 181.5 510.5 Q239 549 322 549 Q379 549 420 529.5 Q461 510 484 480 Q507 450 514 419 Z M144 401 L85 128 Q93 88 128 61.5 Q163 35 222 35 Q280 35 325.5 63.5 Q371 92 396 135 L455 408 Q447 448 412 474.5 Q377 501 319 501 Q261 501 215.5 472 Q170 443 144 401 Z " />
<glyph glyph-name="uni043F" unicode="&#x43f;" horiz-adv-x="546" d="M415 0 L359 0 L465 491 L176 491 L71 0 L15 0 L131 536 L531 536 L415 0 Z " />
<glyph glyph-name="uni0440" unicode="&#x440;" horiz-adv-x="540" d="M518 443 L442 92 Q367 -12 241 -12 Q186 -12 146 7 Q106 26 83 56 L35 -166 L-20 -166 L131 536 L185 536 L174 485 Q244 548 343 548 Q396 548 433.5 530.5 Q471 513 491 489 Q511 465 518 443 Z M459 430 Q449 456 416 478 Q383 500 329 500 Q277 500 234 480 Q191 460 163 429 L94 105 Q112 75 149 55.5 Q186 36 236 36 Q292 36 330.5 58 Q369 80 390 109 L459 430 Z " />
<glyph glyph-name="uni0441" unicode="&#x441;" horiz-adv-x="520" d="M512 423 L505 391 L463 391 Q455 440 418 470.5 Q381 501 319 501 Q261 501 215 472.5 Q169 444 144 403 L85 128 Q94 88 129 61.5 Q164 35 222 35 Q283 35 329 65 Q375 95 404 145 L452 145 L445 113 Q417 62 360 24.5 Q303 -13 220 -13 Q163 -13 121.5 6.5 Q80 26 56.5 56 Q33 86 27 117 L93 419 Q123 472 181 510.5 Q239 549 323 549 Q379 549 419.5 529.5 Q460 510 483 481 Q506 452 512 423 Z " />
<glyph glyph-name="uni0442" unicode="&#x442;" horiz-adv-x="466" d="M253 491 L73 491 L83 536 L499 536 L488 491 L309 491 L203 0 L147 0 L253 491 Z " />
<glyph glyph-name="uni0443" unicode="&#x443;" horiz-adv-x="497" d="M471 536 L520 536 L511 498 L177 -98 Q141 -140 98 -156 Q55 -172 1 -172 Q-36 -172 -50 -168 L-40 -123 Q-26 -125 -1 -125 Q44 -125 74.5 -111.5 Q105 -98 130 -73 L168 -3 L93 495 L102 536 L144 536 L209 67 L212 67 L471 536 Z " />
<glyph glyph-name="uni0444" unicode="&#x444;" horiz-adv-x="718" d="M698 455 L619 81 Q593 45 549 16.5 Q505 -12 438 -12 Q375 -12 334 21 L293 -166 L239 -166 L279 20 Q230 -12 168 -12 Q101 -12 66.5 17 Q32 46 20 81 L100 455 Q168 548 280 548 Q347 548 385 514 L425 700 L479 700 L440 516 Q491 548 551 548 Q618 548 652 519 Q686 490 698 455 Z M289 66 L376 471 Q343 500 285 500 Q238 500 205 481 Q172 462 153 439 L77 93 Q87 70 112 52.5 Q137 35 185 35 Q241 35 289 66 Z M641 443 Q631 466 606 483 Q581 500 534 500 Q476 500 430 470 L343 64 Q378 35 436 35 Q515 35 566 97 L641 443 Z " />
<glyph glyph-name="uni0445" unicode="&#x445;" horiz-adv-x="468" d="M271 272 L376 39 L368 0 L333 0 L232 237 L229 237 L26 0 L-16 0 L-7 39 L199 276 L100 497 L108 536 L143 536 L239 311 L242 311 L433 536 L475 536 L467 497 L271 272 Z " />
<glyph glyph-name="uni0446" unicode="&#x446;" horiz-adv-x="579" d="M425 45 L499 45 L463 -124 L413 -124 L438 0 L15 0 L131 536 L187 536 L81 45 L369 45 L475 536 L531 536 L425 45 Z " />
<glyph glyph-name="uni0447" unicode="&#x447;" horiz-adv-x="518" d="M502 536 L386 0 L331 0 L381 231 Q318 197 239 197 Q167 197 124.5 220 Q82 243 65 272 L123 536 L178 536 L126 295 Q138 275 166.5 259 Q195 243 250 243 Q332 243 392 286 L447 536 L502 536 Z " />
<glyph glyph-name="uni0448" unicode="&#x448;" horiz-adv-x="762" d="M631 0 L15 0 L131 536 L187 536 L81 45 L305 45 L411 536 L467 536 L361 45 L585 45 L691 536 L747 536 L631 0 Z " />
<glyph glyph-name="uni0449" unicode="&#x449;" horiz-adv-x="795" d="M641 45 L715 45 L679 -124 L628 -124 L654 0 L15 0 L131 536 L187 536 L81 45 L305 45 L411 536 L467 536 L361 45 L585 45 L691 536 L747 536 L641 45 Z " />
<glyph glyph-name="uni044A" unicode="&#x44a;" horiz-adv-x="572" d="M523 234 L491 90 Q460 47 415.5 23.5 Q371 0 321 0 L98 0 L204 491 L73 491 L83 536 L269 536 L223 324 L375 324 Q430 324 468.5 298.5 Q507 273 523 234 Z M466 217 Q456 242 428 260 Q400 278 362 278 L214 278 L164 45 L313 45 Q349 45 383.5 64 Q418 83 443 112 L466 217 Z " />
<glyph glyph-name="uni044B" unicode="&#x44b;" horiz-adv-x="663" d="M140 324 L283 324 Q338 324 376 298 Q414 272 430 234 L399 90 Q368 47 323 23.5 Q278 0 229 0 L15 0 L131 536 L187 536 L140 324 Z M532 0 L477 0 L593 536 L648 536 L532 0 Z M131 278 L81 45 L221 45 Q257 45 291.5 63.5 Q326 82 350 112 L373 217 Q364 242 336 260 Q308 278 269 278 L131 278 Z " />
<glyph glyph-name="uni044C" unicode="&#x44c;" horiz-adv-x="489" d="M140 324 L293 324 Q348 324 386 298 Q424 272 440 234 L409 90 Q378 47 333 23.5 Q288 0 239 0 L15 0 L131 536 L187 536 L140 324 Z M131 278 L81 45 L231 45 Q267 45 301.5 64 Q336 83 360 112 L383 217 Q374 242 346 260 Q318 278 279 278 L131 278 Z " />
<glyph glyph-name="uni044D" unicode="&#x44d;" horiz-adv-x="520" d="M493 419 L427 117 Q397 64 339 25.5 Q281 -13 197 -13 Q141 -13 100.5 6.5 Q60 26 37 55 Q14 84 8 113 L15 145 L58 145 Q68 96 104 65.5 Q140 35 201 35 Q259 35 305 63.5 Q351 92 376 133 L402 252 L177 252 L186 298 L411 298 L435 408 Q427 448 392 474.5 Q357 501 298 501 Q238 501 192 471 Q146 441 116 391 L68 391 L75 423 Q103 473 160.5 511 Q218 549 301 549 Q358 549 399.5 529.5 Q441 510 464 480 Q487 450 493 419 Z " />
<glyph glyph-name="uni044E" unicode="&#x44e;" horiz-adv-x="753" d="M726 419 L660 117 Q630 64 572.5 25.5 Q515 -13 431 -13 Q374 -13 333 6.5 Q292 26 269 56 Q246 86 240 117 L270 254 L125 254 L71 0 L15 0 L131 536 L187 536 L135 299 L279 299 L306 419 Q337 472 394.5 510.5 Q452 549 535 549 Q592 549 633 529.5 Q674 510 697 480 Q720 450 726 419 Z M668 408 Q660 448 625 474.5 Q590 501 531 501 Q473 501 427.5 472 Q382 443 357 401 L298 128 Q306 88 341 61.5 Q376 35 434 35 Q493 35 538.5 63.5 Q584 92 609 135 L668 408 Z " />
<glyph glyph-name="Idot" unicode="&#x130;" horiz-adv-x="225" d="M85 0 L25 0 L175 700 L235 700 L85 0 Z M274 845 L264 803 Q260 797 248.5 792 Q237 787 224 787 Q210 787 201.5 792 Q193 797 191 803 L200 845 Q205 852 216 857 Q227 862 241 862 Q255 862 263 857 Q271 852 274 845 Z " />
<glyph glyph-name="uni0162" unicode="&#x162;" horiz-adv-x="524" d="M592 700 L581 650 L374 650 L234 0 L224 0 L190 -58 L206 -58 Q234 -58 254 -71.5 Q274 -85 280 -102 L265 -170 Q233 -217 168 -217 Q115 -217 79 -192 L98 -160 Q130 -182 170 -182 Q190 -182 205 -174 Q220 -166 228 -155 L236 -113 Q233 -104 221.5 -97 Q210 -90 191 -90 L133 -90 L184 0 L174 0 L314 650 L107 650 L118 700 L592 700 Z " />
<glyph glyph-name="dslash" unicode="&#x111;" horiz-adv-x="570" d="M607 609 L540 609 L409 0 L355 0 L367 53 Q298 -12 198 -12 Q145 -12 107.5 5.5 Q70 23 49.5 47 Q29 71 22 92 L97 438 Q126 478 175.5 510 Q225 542 301 542 Q356 542 394.5 524 Q433 506 456 478 L485 609 L296 609 L304 646 L493 646 L504 700 L560 700 L548 646 L615 646 L607 609 Z M211 36 Q264 36 306 56.5 Q348 77 377 108 L446 430 Q428 458 392 476.5 Q356 495 306 495 Q251 495 212 472.5 Q173 450 149 421 L81 106 Q92 79 123.5 57.5 Q155 36 211 36 Z " />
<glyph glyph-name="uni0237" unicode="&#x237;" horiz-adv-x="202" d="M61 -49 Q31 -104 -30 -141.5 Q-91 -179 -175 -179 L-166 -132 Q-110 -132 -63.5 -102.5 Q-17 -73 9 -30 L131 536 L187 536 L61 -49 Z " />
<glyph glyph-name="uni0163" unicode="&#x163;" horiz-adv-x="346" d="M202 491 L118 99 Q126 76 151 57.5 Q176 39 230 39 Q245 39 281 43 L273 0 Q265 -3 247.5 -5.5 Q230 -8 212 -8 Q190 -8 180 -6 L150 -58 L165 -58 Q193 -58 213 -71.5 Q233 -85 239 -102 L224 -170 Q210 -191 185.5 -204 Q161 -217 128 -217 Q73 -217 39 -192 L57 -160 Q89 -182 130 -182 Q150 -182 165 -174 Q180 -166 187 -155 L196 -113 Q193 -104 181.5 -97 Q170 -90 150 -90 L93 -90 L144 1 Q80 22 58 82 L146 491 L70 491 L81 536 L156 536 L181 651 L236 651 L212 536 L368 536 L358 491 L202 491 Z " />
<glyph glyph-name="f_f" unicode="&#xfb00;" horiz-adv-x="631" d="M523 607 L508 536 L664 536 L653 491 L498 491 L392 0 L336 0 L442 491 L397 491 L202 491 L96 0 L40 0 L146 491 L70 491 L81 536 L156 536 L175 626 Q194 661 237.5 689 Q281 717 352 717 Q376 717 396.5 714.5 Q417 712 425 709 L415 666 Q395 670 362 670 Q307 670 274.5 650.5 Q242 631 227 607 L212 536 L376 536 L452 536 L471 626 Q490 661 533.5 689 Q577 717 647 717 Q672 717 692.5 714.5 Q713 712 721 709 L711 666 Q691 670 658 670 Q603 670 570.5 650.5 Q538 631 523 607 Z " />
<glyph glyph-name="uni04D8" unicode="&#x4d8;" horiz-adv-x="616" d="M611 562 L520 139 Q486 78 419 32.5 Q352 -13 256 -13 Q190 -13 142 9.5 Q94 32 67 66.5 Q40 101 32 136 L79 355 L507 355 L548 549 Q539 597 496.5 630 Q454 663 386 663 Q312 663 257.5 626 Q203 589 169 527 L116 527 L125 565 Q159 626 224 669.5 Q289 713 386 713 Q453 713 501 690.5 Q549 668 576 633.5 Q603 599 611 562 Z M496 305 L125 305 L92 151 Q105 101 148 69.5 Q191 38 257 38 Q328 38 380.5 71.5 Q433 105 464 155 L496 305 Z " />
<glyph glyph-name="uni04D9" unicode="&#x4d9;" horiz-adv-x="534" d="M22 113 L55 267 L418 267 L448 407 Q440 448 405 474.5 Q370 501 312 501 Q252 501 206.5 471.5 Q161 442 132 391 L82 391 L89 423 Q118 474 175 511.5 Q232 549 315 549 Q372 549 413 529 Q454 509 477 479.5 Q500 450 507 419 L441 117 Q411 65 353 26 Q295 -13 212 -13 Q156 -13 115 6.5 Q74 26 51 55 Q28 84 22 113 Z M390 133 L408 222 L98 222 L79 128 Q85 89 121 62 Q157 35 215 35 Q274 35 319 63 Q364 91 390 133 Z " />
<glyph glyph-name="Alpha" unicode="&#x391;" horiz-adv-x="598" d="M516 42 L507 0 L462 0 L436 217 L143 217 L24 0 L-25 0 L-16 42 L349 700 L433 700 L516 42 Z M429 267 L382 648 L379 648 L171 267 L429 267 Z " />
<glyph glyph-name="Beta" unicode="&#x392;" horiz-adv-x="581" d="M435 361 Q466 350 492.5 326.5 Q519 303 530 273 L497 118 Q465 66 409.5 33 Q354 0 284 0 L25 0 L175 700 L401 700 Q469 700 516.5 666.5 Q564 633 581 583 L553 453 Q535 423 502.5 399 Q470 375 435 361 Z M521 567 Q509 606 474 628 Q439 650 386 650 L225 650 L168 386 L345 386 Q385 386 428.5 408.5 Q472 431 500 469 L521 567 Z M331 337 L157 337 L96 50 L261 50 Q329 50 371.5 73.5 Q414 97 445 140 L471 259 Q458 294 420 315.5 Q382 337 331 337 Z " />
<glyph glyph-name="Gamma" unicode="&#x393;" horiz-adv-x="455" d="M512 650 L225 650 L85 0 L25 0 L175 700 L523 700 L512 650 Z " />
<glyph glyph-name="Epsilon" unicode="&#x395;" horiz-adv-x="542" d="M564 650 L225 650 L168 387 L483 387 L473 336 L157 336 L96 50 L444 50 L433 0 L25 0 L175 700 L575 700 L564 650 Z " />
<glyph glyph-name="Zeta" unicode="&#x396;" horiz-adv-x="566" d="M599 658 L80 50 L468 50 L457 0 L-8 0 L2 42 L521 650 L141 650 L152 700 L608 700 L599 658 Z " />
<glyph glyph-name="Eta" unicode="&#x397;" horiz-adv-x="641" d="M500 0 L440 0 L512 335 L157 335 L85 0 L25 0 L175 700 L235 700 L168 386 L523 386 L591 700 L651 700 L500 0 Z " />
<glyph glyph-name="Theta" unicode="&#x398;" horiz-adv-x="626" d="M621 562 L530 138 Q490 74 425.5 30.5 Q361 -13 265 -13 Q198 -13 150.5 10 Q103 33 76 67.5 Q49 102 41 139 L132 563 Q172 626 236 669.5 Q300 713 396 713 Q462 713 510 690 Q558 667 585.5 632.5 Q613 598 621 562 Z M188 545 L104 152 Q112 104 155 71 Q198 38 266 38 Q335 38 388 71.5 Q441 105 474 156 L558 549 Q550 596 506.5 629.5 Q463 663 395 663 Q326 663 273 629.5 Q220 596 188 545 Z M455 383 L446 338 L210 338 L219 383 L455 383 Z " />
<glyph glyph-name="Iota" unicode="&#x399;" horiz-adv-x="225" d="M85 0 L25 0 L175 700 L235 700 L85 0 Z " />
<glyph glyph-name="Kappa" unicode="&#x39a;" horiz-adv-x="579" d="M487 0 L451 0 L271 377 L142 268 L85 0 L25 0 L175 700 L235 700 L160 349 L566 700 L609 700 L600 658 L317 417 L496 42 L487 0 Z " />
<glyph glyph-name="Lambda" unicode="&#x39b;" horiz-adv-x="597" d="M349 700 L433 700 L516 42 L507 0 L457 0 L380 640 L377 640 L25 0 L-25 0 L-16 42 L349 700 Z " />
<glyph glyph-name="Mu" unicode="&#x39c;" horiz-adv-x="790" d="M592 0 L729 636 L726 636 L404 186 L349 186 L222 636 L219 636 L82 0 L25 0 L175 700 L261 700 L388 257 L391 257 L704 700 L800 700 L649 0 L592 0 Z " />
<glyph glyph-name="Nu" unicode="&#x39d;" horiz-adv-x="657" d="M516 0 L438 0 L220 627 L217 627 L82 0 L25 0 L175 700 L253 700 L472 73 L475 73 L609 700 L667 700 L516 0 Z " />
<glyph glyph-name="Xi" unicode="&#x39e;" horiz-adv-x="568" d="M589 650 L396 650 L339 386 L497 386 L487 335 L328 335 L267 50 L465 50 L454 0 L-3 0 L9 50 L208 50 L269 335 L110 335 L120 386 L279 386 L336 650 L142 650 L153 700 L599 700 L589 650 Z " />
<glyph glyph-name="Omicron" unicode="&#x39f;" horiz-adv-x="626" d="M621 562 L530 138 Q490 74 425.5 30.5 Q361 -13 265 -13 Q198 -13 150.5 10 Q103 33 76 67.5 Q49 102 41 139 L132 563 Q172 626 236 669.5 Q300 713 396 713 Q462 713 510 690 Q558 667 585.5 632.5 Q613 598 621 562 Z M188 545 L104 152 Q112 104 155 71 Q198 38 266 38 Q335 38 388 71.5 Q441 105 474 156 L558 549 Q550 596 506.5 629.5 Q463 663 395 663 Q326 663 273 629.5 Q220 596 188 545 Z " />
<glyph glyph-name="Pi" unicode="&#x3a0;" horiz-adv-x="635" d="M495 0 L435 0 L575 650 L225 650 L85 0 L25 0 L175 700 L646 700 L495 0 Z " />
<glyph glyph-name="Rho" unicode="&#x3a1;" horiz-adv-x="560" d="M578 583 L539 401 Q501 344 444.5 313.5 Q388 283 319 283 L146 283 L85 0 L25 0 L175 700 L388 700 Q462 700 510 669 Q558 638 578 583 Z M515 566 Q501 609 465 629.5 Q429 650 380 650 L224 650 L156 334 L315 334 Q365 334 409.5 356.5 Q454 379 485 424 L515 566 Z " />
<glyph glyph-name="Sigma" unicode="&#x3a3;" horiz-adv-x="566" d="M588 650 L208 650 L357 355 L81 50 L468 50 L457 0 L-8 0 L2 43 L291 361 L143 652 L153 700 L598 700 L588 650 Z " />
<glyph glyph-name="Tau" unicode="&#x3a4;" horiz-adv-x="524" d="M581 650 L374 650 L234 0 L174 0 L314 650 L107 650 L118 700 L592 700 L581 650 Z " />
<glyph glyph-name="Upsilon" unicode="&#x3a5;" horiz-adv-x="545" d="M311 311 L244 0 L183 0 L252 315 L121 658 L130 700 L167 700 L290 371 L292 371 L554 700 L600 700 L591 658 L311 311 Z " />
<glyph glyph-name="Phi" unicode="&#x3a6;" horiz-adv-x="730" d="M713 513 L644 187 Q603 128 533 90 Q463 52 394 52 L345 52 L330 -20 L274 -20 L290 52 L254 52 Q210 52 168 70.5 Q126 89 95 120 Q64 151 52 187 L121 513 Q163 572 234.5 613.5 Q306 655 373 655 L419 655 L433 720 L489 720 L475 655 L512 655 Q556 655 598 634.5 Q640 614 670.5 581 Q701 548 713 513 Z M409 605 L376 605 Q327 605 268.5 573 Q210 541 175 498 L112 202 Q127 159 171.5 130 Q216 101 265 101 L300 101 L409 605 Z M653 498 Q639 542 594 573.5 Q549 605 499 605 L464 605 L356 101 L392 101 Q442 101 500 130 Q558 159 590 202 L653 498 Z " />
<glyph glyph-name="Chi" unicode="&#x3a7;" horiz-adv-x="575" d="M345 355 L477 42 L468 0 L429 0 L301 317 L298 317 L37 0 L-10 0 L-1 42 L266 361 L139 658 L148 700 L186 700 L312 398 L315 398 L567 700 L613 700 L604 658 L345 355 Z " />
<glyph glyph-name="Psi" unicode="&#x3a8;" horiz-adv-x="707" d="M730 700 L640 277 Q601 222 538 183.5 Q475 145 384 145 L355 145 L323 0 L267 0 L298 145 L285 145 Q196 145 143.5 185.5 Q91 226 72 277 L162 700 L220 700 L132 294 Q144 256 184.5 225.5 Q225 195 293 195 L309 195 L418 700 L474 700 L365 195 L387 195 Q455 195 505.5 225 Q556 255 585 294 L672 700 L730 700 Z " />
<glyph glyph-name="Alphatonos" unicode="&#x386;" horiz-adv-x="598" d="M516 42 L507 0 L462 0 L436 217 L143 217 L24 0 L-25 0 L-16 42 L349 700 L433 700 L516 42 Z M429 267 L382 648 L379 648 L171 267 L429 267 Z M212 700 L206 669 L97 543 L53 543 L57 559 L160 700 L212 700 Z " />
<glyph glyph-name="Epsilontonos" unicode="&#x388;" horiz-adv-x="542" d="M564 650 L225 650 L168 387 L483 387 L473 336 L157 336 L96 50 L444 50 L433 0 L25 0 L175 700 L575 700 L564 650 Z M95 700 L89 669 L-20 543 L-64 543 L-60 559 L43 700 L95 700 Z " />
<glyph glyph-name="Etatonos" unicode="&#x389;" horiz-adv-x="641" d="M500 0 L440 0 L512 335 L157 335 L85 0 L25 0 L175 700 L235 700 L168 386 L523 386 L591 700 L651 700 L500 0 Z M95 700 L89 669 L-20 543 L-64 543 L-60 559 L43 700 L95 700 Z " />
<glyph glyph-name="Iotatonos" unicode="&#x38a;" horiz-adv-x="225" d="M85 0 L25 0 L175 700 L235 700 L85 0 Z M95 700 L89 669 L-20 543 L-64 543 L-60 559 L43 700 L95 700 Z " />
<glyph glyph-name="Omicrontonos" unicode="&#x38c;" horiz-adv-x="626" d="M621 562 L530 138 Q490 74 425.5 30.5 Q361 -13 265 -13 Q198 -13 150.5 10 Q103 33 76 67.5 Q49 102 41 139 L132 563 Q172 626 236 669.5 Q300 713 396 713 Q462 713 510 690 Q558 667 585.5 632.5 Q613 598 621 562 Z M188 545 L104 152 Q112 104 155 71 Q198 38 266 38 Q335 38 388 71.5 Q441 105 474 156 L558 549 Q550 596 506.5 629.5 Q463 663 395 663 Q326 663 273 629.5 Q220 596 188 545 Z M115 700 L109 669 L0 543 L-44 543 L-40 559 L63 700 L115 700 Z " />
<glyph glyph-name="Upsilontonos" unicode="&#x38e;" horiz-adv-x="545" d="M311 311 L244 0 L183 0 L252 315 L121 658 L130 700 L167 700 L290 371 L292 371 L554 700 L600 700 L591 658 L311 311 Z M85 700 L79 669 L-30 543 L-74 543 L-70 559 L33 700 L85 700 Z " />
<glyph glyph-name="Omegatonos" unicode="&#x38f;" horiz-adv-x="628" d="M372 50 L511 50 L500 0 L297 0 L314 74 Q370 83 413.5 117 Q457 151 482 192 L559 550 Q550 597 508 629.5 Q466 662 398 662 Q331 662 275.5 628 Q220 594 189 546 L112 188 Q120 149 149 116.5 Q178 84 232 74 L215 0 L12 0 L23 50 L171 50 Q122 69 91.5 105.5 Q61 142 51 183 L133 562 Q171 623 238.5 668 Q306 713 402 713 Q498 713 552.5 667 Q607 621 622 562 L540 183 Q516 139 472.5 104 Q429 69 372 50 Z M115 700 L109 669 L0 543 L-44 543 L-40 559 L63 700 L115 700 Z " />
<glyph glyph-name="Iotadieresis" unicode="&#x3aa;" horiz-adv-x="225" d="M85 0 L25 0 L175 700 L235 700 L85 0 Z M176 841 L166 792 Q161 787 150.5 783 Q140 779 127 779 Q114 779 105.5 783 Q97 787 94 792 L104 841 Q109 846 119.5 850 Q130 854 143 854 Q156 854 164.5 850 Q173 846 176 841 Z M366 841 L356 792 Q351 787 340.5 783 Q330 779 317 779 Q304 779 295.5 783 Q287 787 284 792 L294 841 Q299 846 309.5 850 Q320 854 333 854 Q346 854 354.5 850 Q363 846 366 841 Z " />
<glyph glyph-name="Upsilondieresis" unicode="&#x3ab;" horiz-adv-x="545" d="M311 311 L244 0 L183 0 L252 315 L121 658 L130 700 L167 700 L290 371 L292 371 L554 700 L600 700 L591 658 L311 311 Z M336 841 L326 792 Q321 787 310.5 783 Q300 779 287 779 Q274 779 265.5 783 Q257 787 254 792 L264 841 Q269 846 279.5 850 Q290 854 303 854 Q316 854 324.5 850 Q333 846 336 841 Z M526 841 L516 792 Q511 787 500.5 783 Q490 779 477 779 Q464 779 455.5 783 Q447 787 444 792 L454 841 Q459 846 469.5 850 Q480 854 493 854 Q506 854 514.5 850 Q523 846 526 841 Z " />
<glyph glyph-name="alpha" unicode="&#x3b1;" horiz-adv-x="540" d="M525 536 L409 0 L354 0 L366 52 Q296 -12 198 -12 Q145 -12 107.5 5.5 Q70 23 49.5 47 Q29 71 22 92 L98 443 Q126 483 176 515.5 Q226 548 302 548 Q358 548 396.5 529.5 Q435 511 458 482 L470 536 L525 536 Z M211 36 Q264 36 306.5 56 Q349 76 377 108 L446 436 Q428 464 392.5 482 Q357 500 306 500 Q252 500 212.5 477.5 Q173 455 149 427 L81 106 Q92 79 123.5 57.5 Q155 36 211 36 Z " />
<glyph glyph-name="beta" unicode="&#x3b2;" horiz-adv-x="548" d="M393 384 Q438 368 463 339 Q488 310 496 277 L461 117 Q430 63 374.5 25.5 Q319 -12 239 -12 Q185 -12 145 7 Q105 26 83 56 L35 -166 L-20 -166 L145 602 Q178 649 233.5 681 Q289 713 361 713 Q429 713 475 683.5 Q521 654 539 613 L506 459 Q488 434 457.5 414.5 Q427 395 393 384 Z M481 595 Q468 627 436 646 Q404 665 357 665 Q308 665 265.5 642 Q223 619 197 584 L95 112 Q110 81 147.5 59 Q185 37 236 37 Q293 37 337.5 65 Q382 93 410 136 L438 268 Q429 313 390 337 Q351 361 302 361 L267 361 L278 405 L305 405 Q348 405 387.5 424.5 Q427 444 455 475 L481 595 Z " />
<glyph glyph-name="gamma" unicode="&#x3b3;" horiz-adv-x="501" d="M512 497 L221 3 L185 -166 L129 -166 L165 0 L164 0 L87 497 L95 536 L137 536 L206 77 L209 77 L472 536 L521 536 L512 497 Z " />
<glyph glyph-name="delta" unicode="&#x3b4;" horiz-adv-x="540" d="M229 618 L214 548 Q224 528 245 512.5 Q266 497 309 490 L352 482 Q416 471 454 434.5 Q492 398 500 356 L448 117 Q417 63 358.5 25 Q300 -13 217 -13 Q134 -13 86 26.5 Q38 66 27 117 L78 353 Q99 391 139.5 423 Q180 455 238 468 Q182 488 159 537 L181 640 Q205 668 253.5 690.5 Q302 713 367 713 Q429 713 469 690.5 Q509 668 531 640 L526 612 L483 612 Q464 638 433 652.5 Q402 667 363 667 Q323 667 288 653.5 Q253 640 229 618 Z M308 441 Q249 441 202.5 412 Q156 383 131 342 L85 129 Q93 89 127.5 62.5 Q162 36 220 36 Q279 36 325.5 64.5 Q372 93 397 135 L443 348 Q436 387 401 414 Q366 441 308 441 Z " />
</font>
</svg>
