<?xml version="1.0" encoding="UTF-8"?>
<svg xmlns="http://www.w3.org/2000/svg" xmlns:xlink="http://www.w3.org/1999/xlink" version="1.2" >
<font id="Cadillac Sans Book">
<font-face  font-family="Cadillac Sans" units-per-em="1000" ascent="750" descent="-250" font-style="normal" font-weight="400" font-stretch="normal" cap-height="700" x-height="538" underline-position="-75" underline-thickness="50" />
<missing-glyph  horiz-adv-x="599" d="M78 -100 L78 800 L521 800 L521 -100 L78 -100 Z M150 -37 L449 -37 L449 737 L150 737 L150 -37 Z " />
<glyph glyph-name=".null" d="" />
<glyph glyph-name="nonmarkingreturn" unicode="&#xd;" horiz-adv-x="196" d="" />
<glyph glyph-name="space" unicode="&#x20;" horiz-adv-x="206" d="" />
<glyph glyph-name="A" unicode="A" horiz-adv-x="609" d="M580 0 L496 0 L434 197 L168 197 L106 0 L30 0 L30 60 L238 700 L371 700 L580 60 L580 0 Z M303 617 L300 617 L192 274 L410 274 L303 617 Z " />
<glyph glyph-name="B" unicode="B" horiz-adv-x="590" d="M439 369 Q466 358 495.5 335 Q525 312 542 283 L542 119 Q530 98 512 77 Q494 56 469 38.5 Q444 21 411.5 10.5 Q379 0 338 0 L73 0 L73 700 L332 700 Q367 700 397 690.5 Q427 681 452 664.5 Q477 648 495.5 626.5 Q514 605 527 582 L527 450 Q513 427 489 404.5 Q465 382 439 369 Z M320 401 Q353 401 384.5 419.5 Q416 438 436 468 L436 552 Q419 584 386 603 Q353 622 311 622 L171 622 L171 401 L320 401 Z M451 259 Q434 288 399.5 307 Q365 326 326 326 L171 326 L171 78 L317 78 Q372 78 403 98 Q434 118 451 149 L451 259 Z " />
<glyph glyph-name="C" unicode="C" horiz-adv-x="605" d="M313 714 Q368 714 410 700 Q452 686 482 664 Q512 642 531.5 616.5 Q551 591 562 568 L562 514 L479 514 Q471 538 457.5 560.5 Q444 583 423.5 599.5 Q403 616 375.5 626 Q348 636 313 636 Q252 636 213.5 607.5 Q175 579 159 541 L159 159 Q175 121 213.5 92.5 Q252 64 313 64 Q348 64 375.5 74 Q403 84 423.5 100.5 Q444 117 457.5 139.5 Q471 162 479 186 L562 186 L562 132 Q551 109 531.5 83.5 Q512 58 482 36 Q452 14 410 0 Q368 -14 313 -14 Q257 -14 215 0.5 Q173 15 142.5 37.5 Q112 60 92 86.5 Q72 113 61 138 L61 562 Q72 587 92 613.5 Q112 640 142.5 662.5 Q173 685 215 699.5 Q257 714 313 714 Z " />
<glyph glyph-name="D" unicode="D" horiz-adv-x="625" d="M329 700 Q379 700 418 688 Q457 676 486 656.5 Q515 637 534.5 612 Q554 587 565 562 L565 138 Q554 113 534.5 88 Q515 63 486 43.5 Q457 24 418 12 Q379 0 329 0 L73 0 L73 700 L329 700 Z M171 78 L312 78 Q373 78 412.5 102 Q452 126 467 164 L467 536 Q452 574 412.5 598 Q373 622 312 622 L171 622 L171 78 Z " />
<glyph glyph-name="E" unicode="E" horiz-adv-x="539" d="M171 622 L171 399 L463 399 L463 322 L171 322 L171 78 L493 78 L493 0 L73 0 L73 700 L484 700 L484 622 L171 622 Z " />
<glyph glyph-name="F" unicode="F" horiz-adv-x="514" d="M171 622 L171 397 L459 397 L459 319 L171 319 L171 0 L73 0 L73 700 L474 700 L474 622 L171 622 Z " />
<glyph glyph-name="G" unicode="G" horiz-adv-x="633" d="M313 636 Q252 636 213.5 607.5 Q175 579 159 541 L159 160 Q174 122 213.5 93.5 Q253 65 315 65 Q377 65 415 93 Q453 121 470 157 L470 292 L328 292 L328 369 L562 369 L562 0 L479 0 L479 60 Q452 30 409.5 8 Q367 -14 300 -14 Q249 -14 209.5 0.5 Q170 15 140.5 37.5 Q111 60 91.5 87 Q72 114 61 139 L61 562 Q72 587 92 613.5 Q112 640 142.5 662.5 Q173 685 215 699.5 Q257 714 313 714 Q368 714 410 700 Q452 686 482 664 Q512 642 531.5 616.5 Q551 591 562 568 L562 514 L479 514 Q471 538 457.5 560.5 Q444 583 423.5 599.5 Q403 616 375.5 626 Q348 636 313 636 Z " />
<glyph glyph-name="H" unicode="H" horiz-adv-x="647" d="M475 0 L475 322 L171 322 L171 0 L73 0 L73 700 L171 700 L171 400 L475 400 L475 700 L573 700 L573 0 L475 0 Z " />
<glyph glyph-name="I" unicode="I" horiz-adv-x="244" d="M73 0 L73 700 L171 700 L171 0 L73 0 Z " />
<glyph glyph-name="J" unicode="J" horiz-adv-x="387" d="M318 139 Q304 110 283 84 Q262 58 232 39 Q202 20 162 9 Q122 -2 71 -2 Q56 -2 43 -1.5 Q30 -1 20 0 L20 76 L65 76 Q122 76 162.5 99 Q203 122 220 163 L220 700 L318 700 L318 139 Z " />
<glyph glyph-name="K" unicode="K" horiz-adv-x="593" d="M562 0 L492 0 L260 349 L171 254 L171 0 L73 0 L73 700 L171 700 L171 373 L474 700 L534 700 L534 640 L323 415 L562 60 L562 0 Z " />
<glyph glyph-name="L" unicode="L" horiz-adv-x="454" d="M431 78 L431 0 L73 0 L73 700 L171 700 L171 78 L431 78 Z " />
<glyph glyph-name="M" unicode="M" horiz-adv-x="796" d="M631 0 L631 592 L628 592 L434 169 L362 169 L168 592 L165 592 L165 0 L73 0 L73 700 L213 700 L399 295 L402 295 L585 700 L723 700 L723 0 L631 0 Z " />
<glyph glyph-name="N" unicode="N" horiz-adv-x="661" d="M464 0 L168 570 L165 570 L165 0 L73 0 L73 700 L197 700 L493 130 L496 130 L496 700 L588 700 L588 0 L464 0 Z " />
<glyph glyph-name="O" unicode="O" horiz-adv-x="626" d="M313 714 Q368 714 410.5 699.5 Q453 685 483.5 662.5 Q514 640 534 613.5 Q554 587 565 562 L565 139 Q554 114 534 87 Q514 60 483.5 37.5 Q453 15 410.5 0.5 Q368 -14 313 -14 Q257 -14 215 0.5 Q173 15 142.5 37.5 Q112 60 92 87 Q72 114 61 139 L61 562 Q72 587 92 613.5 Q112 640 142.5 662.5 Q173 685 215 699.5 Q257 714 313 714 Z M313 636 Q252 636 213 607.5 Q174 579 159 541 L159 160 Q174 122 213 93.5 Q252 65 313 65 Q375 65 413.5 93.5 Q452 122 467 160 L467 541 Q452 579 413.5 607.5 Q375 636 313 636 Z " />
<glyph glyph-name="P" unicode="P" horiz-adv-x="572" d="M328 700 Q391 700 444 669.5 Q497 639 529 582 L529 393 Q502 344 451 309.5 Q400 275 328 275 L171 275 L171 0 L73 0 L73 700 L328 700 Z M171 353 L306 353 Q347 353 380.5 371.5 Q414 390 433 425 L433 550 Q412 590 376.5 606 Q341 622 306 622 L171 622 L171 353 Z " />
<glyph glyph-name="Q" unicode="Q" horiz-adv-x="626" d="M568 -147 L504 -147 Q474 -147 444 -136 Q414 -125 388 -106.5 Q362 -88 342 -64 Q322 -40 311 -14 Q256 -14 214 0.5 Q172 15 141.5 37.5 Q111 60 91.5 87 Q72 114 61 139 L61 562 Q72 587 92 613.5 Q112 640 142.5 662.5 Q173 685 215 699.5 Q257 714 313 714 Q368 714 410.5 699.5 Q453 685 483.5 662.5 Q514 640 534 613.5 Q554 587 565 562 L565 139 Q556 119 542.5 98.5 Q529 78 508.5 58.5 Q488 39 461.5 23 Q435 7 401 -2 Q410 -20 423.5 -33.5 Q437 -47 452 -56 Q467 -65 481.5 -70 Q496 -75 508 -75 L568 -75 L568 -147 Z M159 160 Q174 122 213 93.5 Q252 65 313 65 Q375 65 413.5 93.5 Q452 122 467 160 L467 541 Q452 579 413.5 607.5 Q375 636 313 636 Q252 636 213 607.5 Q174 579 159 541 L159 160 Z " />
<glyph glyph-name="R" unicode="R" horiz-adv-x="593" d="M547 0 L474 0 L284 296 L171 296 L171 0 L73 0 L73 700 L335 700 Q398 700 451 669 Q504 638 535 582 L535 416 Q512 374 474.5 343.5 Q437 313 386 302 L547 60 L547 0 Z M314 372 Q358 372 390 390.5 Q422 409 442 444 L442 550 Q422 586 388 604 Q354 622 314 622 L171 622 L171 372 L314 372 Z " />
<glyph glyph-name="S" unicode="S" horiz-adv-x="586" d="M291 714 Q339 714 377 703 Q415 692 443.5 674.5 Q472 657 491.5 636.5 Q511 616 521 598 L521 544 L437 544 Q423 582 387.5 609 Q352 636 289 636 Q240 636 205.5 616 Q171 596 157 570 L157 474 Q162 465 169 457 Q176 449 187.5 442 Q199 435 217.5 427.5 Q236 420 265 413 L332 395 Q383 381 417 366.5 Q451 352 473.5 336.5 Q496 321 509 304.5 Q522 288 532 272 L532 119 Q522 101 503.5 77.5 Q485 54 456 34 Q427 14 386 0 Q345 -14 290 -14 Q233 -14 191 0 Q149 14 119.5 34 Q90 54 71.5 77 Q53 100 44 118 L44 172 L129 172 Q135 151 148.5 132 Q162 113 182.5 98 Q203 83 230 74 Q257 65 290 65 Q321 65 345 72.5 Q369 80 387.5 91.5 Q406 103 418 117.5 Q430 132 437 146 L437 235 Q426 258 400 277.5 Q374 297 316 311 L250 327 Q205 338 175.5 349.5 Q146 361 125 374 Q104 387 89.5 402.5 Q75 418 62 438 L62 598 Q72 616 91.5 636.5 Q111 657 139 674 Q167 691 205 702.5 Q243 714 291 714 Z " />
<glyph glyph-name="T" unicode="T" horiz-adv-x="530" d="M314 622 L314 0 L216 0 L216 622 L25 622 L25 700 L505 700 L505 622 L314 622 Z " />
<glyph glyph-name="U" unicode="U" horiz-adv-x="642" d="M573 139 Q562 114 542 87 Q522 60 491.5 37.5 Q461 15 418.5 0.5 Q376 -14 321 -14 Q266 -14 223.5 0.5 Q181 15 150.5 37.5 Q120 60 100 87 Q80 114 69 139 L69 700 L167 700 L167 161 Q182 124 221 95 Q260 66 321 66 Q352 66 377 74 Q402 82 421.5 95 Q441 108 454 125.5 Q467 143 475 161 L475 700 L573 700 L573 139 Z " />
<glyph glyph-name="V" unicode="V" horiz-adv-x="615" d="M374 0 L239 0 L31 640 L31 700 L114 700 L307 87 L310 87 L504 700 L585 700 L585 640 L374 0 Z " />
<glyph glyph-name="W" unicode="W" horiz-adv-x="899" d="M731 0 L591 0 L448 554 L445 554 L302 0 L168 0 L36 640 L36 700 L123 700 L242 91 L245 91 L400 700 L499 700 L655 91 L658 91 L778 700 L863 700 L863 640 L731 0 Z " />
<glyph glyph-name="X" unicode="X" horiz-adv-x="584" d="M358 359 L540 60 L540 0 L461 0 L291 294 L288 294 L116 0 L43 0 L43 60 L225 358 L51 640 L51 700 L129 700 L294 419 L297 419 L460 700 L533 700 L533 640 L358 359 Z " />
<glyph glyph-name="Y" unicode="Y" horiz-adv-x="559" d="M327 298 L327 0 L228 0 L228 307 L34 640 L34 700 L107 700 L280 393 L283 393 L454 700 L525 700 L525 640 L327 298 Z " />
<glyph glyph-name="Z" unicode="Z" horiz-adv-x="563" d="M160 78 L517 78 L517 0 L44 0 L44 66 L402 622 L52 622 L52 700 L517 700 L517 634 L160 78 Z " />
<glyph glyph-name="Agrave" unicode="&#xc0;" horiz-adv-x="609" d="M580 0 L496 0 L434 197 L168 197 L106 0 L30 0 L30 60 L238 700 L371 700 L580 60 L580 0 Z M303 617 L300 617 L192 274 L410 274 L303 617 Z M343 753 L276 753 L196 863 L196 906 L278 906 L343 769 L343 753 Z " />
<glyph glyph-name="Aacute" unicode="&#xc1;" horiz-adv-x="609" d="M580 0 L496 0 L434 197 L168 197 L106 0 L30 0 L30 60 L238 700 L371 700 L580 60 L580 0 Z M303 617 L300 617 L192 274 L410 274 L303 617 Z M329 753 L262 753 L262 769 L326 906 L410 906 L410 863 L329 753 Z " />
<glyph glyph-name="Acircumflex" unicode="&#xc2;" horiz-adv-x="609" d="M580 0 L496 0 L434 197 L168 197 L106 0 L30 0 L30 60 L238 700 L371 700 L580 60 L580 0 Z M303 617 L300 617 L192 274 L410 274 L303 617 Z M453 753 L390 753 L305 859 L220 753 L157 753 L157 769 L246 906 L365 906 L453 769 L453 753 Z " />
<glyph glyph-name="Atilde" unicode="&#xc3;" horiz-adv-x="609" d="M580 0 L496 0 L434 197 L168 197 L106 0 L30 0 L30 60 L238 700 L371 700 L580 60 L580 0 Z M303 617 L300 617 L192 274 L410 274 L303 617 Z M235 869 Q259 869 277 860.5 Q295 852 309.5 842.5 Q324 833 337.5 824.5 Q351 816 367 816 Q383 816 393.5 824 Q404 832 408 844 L408 863 L465 863 L465 819 Q457 793 434.5 774 Q412 755 374 755 Q349 755 331.5 763.5 Q314 772 299.5 782 Q285 792 272 800.5 Q259 809 243 809 Q224 809 215 799 Q206 789 202 780 L202 760 L145 760 L145 804 Q154 833 177 851 Q200 869 235 869 Z " />
<glyph glyph-name="Adieresis" unicode="&#xc4;" horiz-adv-x="609" d="M580 0 L496 0 L434 197 L168 197 L106 0 L30 0 L30 60 L238 700 L371 700 L580 60 L580 0 Z M303 617 L300 617 L192 274 L410 274 L303 617 Z M203 873 Q225 873 237 865.5 Q249 858 253 853 L253 789 Q249 784 237 776.5 Q225 769 203 769 Q181 769 169 776.5 Q157 784 152 789 L152 853 Q157 858 169 865.5 Q181 873 203 873 Z M406 873 Q429 873 440.5 865.5 Q452 858 457 853 L457 789 Q452 784 440.5 776.5 Q429 769 406 769 Q385 769 372.5 776.5 Q360 784 356 789 L356 853 Q360 858 372.5 865.5 Q385 873 406 873 Z " />
<glyph glyph-name="Amacron" unicode="&#x100;" horiz-adv-x="609" d="M580 0 L496 0 L434 197 L168 197 L106 0 L30 0 L30 60 L238 700 L371 700 L580 60 L580 0 Z M303 617 L300 617 L192 274 L410 274 L303 617 Z M147 772 L147 839 L462 839 L462 772 L147 772 Z " />
<glyph glyph-name="Abreve" unicode="&#x102;" horiz-adv-x="609" d="M580 0 L496 0 L434 197 L168 197 L106 0 L30 0 L30 60 L238 700 L371 700 L580 60 L580 0 Z M303 617 L300 617 L192 274 L410 274 L303 617 Z M450 819 Q443 805 431.5 791.5 Q420 778 402.5 767 Q385 756 360.5 749 Q336 742 305 742 Q273 742 249 749 Q225 756 207 767 Q189 778 177.5 791.5 Q166 805 159 819 L159 875 L228 875 L228 838 Q230 833 235 826.5 Q240 820 249.5 813.5 Q259 807 272.5 802.5 Q286 798 305 798 Q323 798 336.5 802.5 Q350 807 359.5 813.5 Q369 820 374 826.5 Q379 833 381 838 L381 875 L450 875 L450 819 Z " />
<glyph glyph-name="Aring" unicode="&#xc5;" horiz-adv-x="609" d="M580 0 L496 0 L434 197 L168 197 L106 0 L30 0 L30 60 L237 698 Q210 713 197 737 L197 826 Q209 848 237.5 864 Q266 880 305 880 Q344 880 372.5 864 Q401 848 412 826 L412 737 Q399 713 372 698 L580 60 L580 0 Z M247 753 Q252 745 266 736.5 Q280 728 305 728 Q330 728 343.5 736.5 Q357 745 362 753 L362 810 Q357 818 343.5 826.5 Q330 835 305 835 Q280 835 266 826.5 Q252 818 247 810 L247 753 Z M303 617 L300 617 L192 274 L410 274 L303 617 Z " />
<glyph glyph-name="Aogonek" unicode="&#x104;" horiz-adv-x="609" d="M528 -155 Q542 -155 554.5 -153 Q567 -151 581 -145 L581 -201 Q568 -208 552 -212 Q536 -216 510 -216 Q476 -216 448 -203.5 Q420 -191 409 -168 L409 -98 Q417 -81 437 -54.5 Q457 -28 495 2 L434 197 L168 197 L106 0 L30 0 L30 60 L238 700 L371 700 L580 60 L580 0 Q526 -41 504.5 -68 Q483 -95 478 -105 L478 -136 Q483 -144 496.5 -149.5 Q510 -155 528 -155 Z M303 617 L300 617 L192 274 L410 274 L303 617 Z " />
<glyph glyph-name="AE" unicode="&#xc6;" horiz-adv-x="854" d="M808 0 L389 0 L389 213 L199 213 L102 0 L29 0 L29 60 L325 700 L800 700 L800 622 L488 622 L488 399 L779 399 L779 322 L488 322 L488 78 L808 78 L808 0 Z M389 624 L385 624 L234 290 L389 290 L389 624 Z " />
<glyph glyph-name="Cacute" unicode="&#x106;" horiz-adv-x="605" d="M313 714 Q368 714 410 700 Q452 686 482 664 Q512 642 531.5 616.5 Q551 591 562 568 L562 514 L479 514 Q471 538 457.5 560.5 Q444 583 423.5 599.5 Q403 616 375.5 626 Q348 636 313 636 Q252 636 213.5 607.5 Q175 579 159 541 L159 159 Q175 121 213.5 92.5 Q252 64 313 64 Q348 64 375.5 74 Q403 84 423.5 100.5 Q444 117 457.5 139.5 Q471 162 479 186 L562 186 L562 132 Q551 109 531.5 83.5 Q512 58 482 36 Q452 14 410 0 Q368 -14 313 -14 Q257 -14 215 0.5 Q173 15 142.5 37.5 Q112 60 92 86.5 Q72 113 61 138 L61 562 Q72 587 92 613.5 Q112 640 142.5 662.5 Q173 685 215 699.5 Q257 714 313 714 Z M339 753 L272 753 L272 769 L336 906 L420 906 L420 863 L339 753 Z " />
<glyph glyph-name="Ccircumflex" unicode="&#x108;" horiz-adv-x="605" d="M313 714 Q368 714 410 700 Q452 686 482 664 Q512 642 531.5 616.5 Q551 591 562 568 L562 514 L479 514 Q471 538 457.5 560.5 Q444 583 423.5 599.5 Q403 616 375.5 626 Q348 636 313 636 Q252 636 213.5 607.5 Q175 579 159 541 L159 159 Q175 121 213.5 92.5 Q252 64 313 64 Q348 64 375.5 74 Q403 84 423.5 100.5 Q444 117 457.5 139.5 Q471 162 479 186 L562 186 L562 132 Q551 109 531.5 83.5 Q512 58 482 36 Q452 14 410 0 Q368 -14 313 -14 Q257 -14 215 0.5 Q173 15 142.5 37.5 Q112 60 92 86.5 Q72 113 61 138 L61 562 Q72 587 92 613.5 Q112 640 142.5 662.5 Q173 685 215 699.5 Q257 714 313 714 Z M463 753 L400 753 L315 859 L230 753 L167 753 L167 769 L256 906 L375 906 L463 769 L463 753 Z " />
<glyph glyph-name="Ccaron" unicode="&#x10c;" horiz-adv-x="605" d="M313 714 Q368 714 410 700 Q452 686 482 664 Q512 642 531.5 616.5 Q551 591 562 568 L562 514 L479 514 Q471 538 457.5 560.5 Q444 583 423.5 599.5 Q403 616 375.5 626 Q348 636 313 636 Q252 636 213.5 607.5 Q175 579 159 541 L159 159 Q175 121 213.5 92.5 Q252 64 313 64 Q348 64 375.5 74 Q403 84 423.5 100.5 Q444 117 457.5 139.5 Q471 162 479 186 L562 186 L562 132 Q551 109 531.5 83.5 Q512 58 482 36 Q452 14 410 0 Q368 -14 313 -14 Q257 -14 215 0.5 Q173 15 142.5 37.5 Q112 60 92 86.5 Q72 113 61 138 L61 562 Q72 587 92 613.5 Q112 640 142.5 662.5 Q173 685 215 699.5 Q257 714 313 714 Z M375 753 L256 753 L167 890 L167 906 L230 906 L315 800 L400 906 L463 906 L463 890 L375 753 Z " />
<glyph glyph-name="Cdotaccent" unicode="&#x10a;" horiz-adv-x="605" d="M313 714 Q368 714 410 700 Q452 686 482 664 Q512 642 531.5 616.5 Q551 591 562 568 L562 514 L479 514 Q471 538 457.5 560.5 Q444 583 423.5 599.5 Q403 616 375.5 626 Q348 636 313 636 Q252 636 213.5 607.5 Q175 579 159 541 L159 159 Q175 121 213.5 92.5 Q252 64 313 64 Q348 64 375.5 74 Q403 84 423.5 100.5 Q444 117 457.5 139.5 Q471 162 479 186 L562 186 L562 132 Q551 109 531.5 83.5 Q512 58 482 36 Q452 14 410 0 Q368 -14 313 -14 Q257 -14 215 0.5 Q173 15 142.5 37.5 Q112 60 92 86.5 Q72 113 61 138 L61 562 Q72 587 92 613.5 Q112 640 142.5 662.5 Q173 685 215 699.5 Q257 714 313 714 Z M315 878 Q338 878 350.5 869.5 Q363 861 368 852 L368 800 Q363 791 350.5 783 Q338 775 315 775 Q293 775 279.5 783 Q266 791 262 800 L262 852 Q266 861 279.5 869.5 Q293 878 315 878 Z " />
<glyph glyph-name="Ccedilla" unicode="&#xc7;" horiz-adv-x="605" d="M313 636 Q252 636 213.5 607.5 Q175 579 159 541 L159 159 Q175 121 213.5 92.5 Q252 64 313 64 Q348 64 375.5 74 Q403 84 423.5 100.5 Q444 117 457.5 139.5 Q471 162 479 186 L562 186 L562 132 Q551 110 532.5 85 Q514 60 485.5 38.5 Q457 17 418 2.5 Q379 -12 327 -14 L312 -52 L322 -52 Q357 -52 378 -66.5 Q399 -81 407 -98 L407 -169 Q396 -191 369.5 -206 Q343 -221 305 -221 Q274 -221 248 -214.5 Q222 -208 207 -198 L224 -152 Q240 -160 258.5 -165.5 Q277 -171 299 -171 Q320 -171 331 -163.5 Q342 -156 346 -147 L346 -117 Q342 -109 330.5 -102.5 Q319 -96 299 -96 L239 -96 L268 -11 Q224 -5 189.5 10.5 Q155 26 130 47 Q105 68 88 92 Q71 116 61 138 L61 562 Q72 587 92 613.5 Q112 640 142.5 662.5 Q173 685 215 699.5 Q257 714 313 714 Q368 714 410 700 Q452 686 482 664 Q512 642 531.5 616.5 Q551 591 562 568 L562 514 L479 514 Q471 538 457.5 560.5 Q444 583 423.5 599.5 Q403 616 375.5 626 Q348 636 313 636 Z " />
<glyph glyph-name="Dcaron" unicode="&#x10e;" horiz-adv-x="625" d="M329 700 Q379 700 418 688 Q457 676 486 656.5 Q515 637 534.5 612 Q554 587 565 562 L565 138 Q554 113 534.5 88 Q515 63 486 43.5 Q457 24 418 12 Q379 0 329 0 L73 0 L73 700 L329 700 Z M171 78 L312 78 Q373 78 412.5 102 Q452 126 467 164 L467 536 Q452 574 412.5 598 Q373 622 312 622 L171 622 L171 78 Z M373 753 L254 753 L165 890 L165 906 L228 906 L313 800 L398 906 L461 906 L461 890 L373 753 Z " />
<glyph glyph-name="Dcroat" unicode="&#x110;" horiz-adv-x="652" d="M352 700 Q402 700 441 688 Q480 676 509 656.5 Q538 637 557 612 Q576 587 587 562 L587 138 Q576 113 557 88 Q538 63 509 43.5 Q480 24 441 12 Q402 0 352 0 L96 0 L96 318 L40 318 L40 394 L96 394 L96 700 L352 700 Z M489 536 Q475 574 435.5 598 Q396 622 335 622 L194 622 L194 394 L359 394 L359 318 L194 318 L194 78 L335 78 Q396 78 435.5 102 Q475 126 489 164 L489 536 Z " />
<glyph glyph-name="Egrave" unicode="&#xc8;" horiz-adv-x="539" d="M171 622 L171 399 L463 399 L463 322 L171 322 L171 78 L493 78 L493 0 L73 0 L73 700 L484 700 L484 622 L171 622 Z M308 753 L241 753 L161 863 L161 906 L243 906 L308 769 L308 753 Z " />
<glyph glyph-name="Eacute" unicode="&#xc9;" horiz-adv-x="539" d="M171 622 L171 399 L463 399 L463 322 L171 322 L171 78 L493 78 L493 0 L73 0 L73 700 L484 700 L484 622 L171 622 Z M294 753 L227 753 L227 769 L291 906 L375 906 L375 863 L294 753 Z " />
<glyph glyph-name="Ecircumflex" unicode="&#xca;" horiz-adv-x="539" d="M171 622 L171 399 L463 399 L463 322 L171 322 L171 78 L493 78 L493 0 L73 0 L73 700 L484 700 L484 622 L171 622 Z M418 753 L355 753 L270 859 L185 753 L122 753 L122 769 L211 906 L330 906 L418 769 L418 753 Z " />
<glyph glyph-name="Ecaron" unicode="&#x11a;" horiz-adv-x="539" d="M171 622 L171 399 L463 399 L463 322 L171 322 L171 78 L493 78 L493 0 L73 0 L73 700 L484 700 L484 622 L171 622 Z M330 753 L211 753 L122 890 L122 906 L185 906 L270 800 L355 906 L418 906 L418 890 L330 753 Z " />
<glyph glyph-name="Edieresis" unicode="&#xcb;" horiz-adv-x="539" d="M171 622 L171 399 L463 399 L463 322 L171 322 L171 78 L493 78 L493 0 L73 0 L73 700 L484 700 L484 622 L171 622 Z M168 873 Q190 873 202 865.5 Q214 858 218 853 L218 789 Q214 784 202 776.5 Q190 769 168 769 Q146 769 134 776.5 Q122 784 117 789 L117 853 Q122 858 134 865.5 Q146 873 168 873 Z M371 873 Q394 873 405.5 865.5 Q417 858 422 853 L422 789 Q417 784 405.5 776.5 Q394 769 371 769 Q350 769 337.5 776.5 Q325 784 321 789 L321 853 Q325 858 337.5 865.5 Q350 873 371 873 Z " />
<glyph glyph-name="Emacron" unicode="&#x112;" horiz-adv-x="539" d="M171 622 L171 399 L463 399 L463 322 L171 322 L171 78 L493 78 L493 0 L73 0 L73 700 L484 700 L484 622 L171 622 Z M113 772 L113 839 L428 839 L428 772 L113 772 Z " />
<glyph glyph-name="Ebreve" unicode="&#x114;" horiz-adv-x="539" d="M171 622 L171 399 L463 399 L463 322 L171 322 L171 78 L493 78 L493 0 L73 0 L73 700 L484 700 L484 622 L171 622 Z M415 819 Q408 805 396.5 791.5 Q385 778 367.5 767 Q350 756 325.5 749 Q301 742 270 742 Q238 742 214 749 Q190 756 172 767 Q154 778 142.5 791.5 Q131 805 124 819 L124 875 L193 875 L193 838 Q195 833 200 826.5 Q205 820 214.5 813.5 Q224 807 237.5 802.5 Q251 798 270 798 Q288 798 301.5 802.5 Q315 807 324.5 813.5 Q334 820 339 826.5 Q344 833 346 838 L346 875 L415 875 L415 819 Z " />
<glyph glyph-name="Edotaccent" unicode="&#x116;" horiz-adv-x="539" d="M171 622 L171 399 L463 399 L463 322 L171 322 L171 78 L493 78 L493 0 L73 0 L73 700 L484 700 L484 622 L171 622 Z M270 878 Q293 878 305.5 869.5 Q318 861 323 852 L323 800 Q318 791 305.5 783 Q293 775 270 775 Q248 775 234.5 783 Q221 791 217 800 L217 852 Q221 861 234.5 869.5 Q248 878 270 878 Z " />
<glyph glyph-name="Eogonek" unicode="&#x118;" horiz-adv-x="539" d="M493 0 Q436 -42 415 -68 Q394 -94 390 -105 L390 -136 Q395 -144 408.5 -149.5 Q422 -155 440 -155 Q454 -155 466.5 -153 Q479 -151 493 -145 L493 -201 Q479 -208 463 -212 Q447 -216 422 -216 Q388 -216 360 -203.5 Q332 -191 321 -168 L321 -98 Q329 -81 348.5 -55 Q368 -29 406 0 L73 0 L73 700 L484 700 L484 622 L171 622 L171 399 L463 399 L463 322 L171 322 L171 78 L493 78 L493 0 Z " />
<glyph glyph-name="Gcircumflex" unicode="&#x11c;" horiz-adv-x="633" d="M313 636 Q252 636 213.5 607.5 Q175 579 159 541 L159 160 Q174 122 213.5 93.5 Q253 65 315 65 Q377 65 415 93 Q453 121 470 157 L470 292 L328 292 L328 369 L562 369 L562 0 L479 0 L479 60 Q452 30 409.5 8 Q367 -14 300 -14 Q249 -14 209.5 0.5 Q170 15 140.5 37.5 Q111 60 91.5 87 Q72 114 61 139 L61 562 Q72 587 92 613.5 Q112 640 142.5 662.5 Q173 685 215 699.5 Q257 714 313 714 Q368 714 410 700 Q452 686 482 664 Q512 642 531.5 616.5 Q551 591 562 568 L562 514 L479 514 Q471 538 457.5 560.5 Q444 583 423.5 599.5 Q403 616 375.5 626 Q348 636 313 636 Z M465 753 L402 753 L317 859 L232 753 L169 753 L169 769 L258 906 L377 906 L465 769 L465 753 Z " />
<glyph glyph-name="Gbreve" unicode="&#x11e;" horiz-adv-x="633" d="M313 636 Q252 636 213.5 607.5 Q175 579 159 541 L159 160 Q174 122 213.5 93.5 Q253 65 315 65 Q377 65 415 93 Q453 121 470 157 L470 292 L328 292 L328 369 L562 369 L562 0 L479 0 L479 60 Q452 30 409.5 8 Q367 -14 300 -14 Q249 -14 209.5 0.5 Q170 15 140.5 37.5 Q111 60 91.5 87 Q72 114 61 139 L61 562 Q72 587 92 613.5 Q112 640 142.5 662.5 Q173 685 215 699.5 Q257 714 313 714 Q368 714 410 700 Q452 686 482 664 Q512 642 531.5 616.5 Q551 591 562 568 L562 514 L479 514 Q471 538 457.5 560.5 Q444 583 423.5 599.5 Q403 616 375.5 626 Q348 636 313 636 Z M462 819 Q455 805 443.5 791.5 Q432 778 414.5 767 Q397 756 372.5 749 Q348 742 317 742 Q285 742 261 749 Q237 756 219 767 Q201 778 189.5 791.5 Q178 805 171 819 L171 875 L240 875 L240 838 Q242 833 247 826.5 Q252 820 261.5 813.5 Q271 807 284.5 802.5 Q298 798 317 798 Q335 798 348.5 802.5 Q362 807 371.5 813.5 Q381 820 386 826.5 Q391 833 393 838 L393 875 L462 875 L462 819 Z " />
<glyph glyph-name="Gdotaccent" unicode="&#x120;" horiz-adv-x="633" d="M313 636 Q252 636 213.5 607.5 Q175 579 159 541 L159 160 Q174 122 213.5 93.5 Q253 65 315 65 Q377 65 415 93 Q453 121 470 157 L470 292 L328 292 L328 369 L562 369 L562 0 L479 0 L479 60 Q452 30 409.5 8 Q367 -14 300 -14 Q249 -14 209.5 0.5 Q170 15 140.5 37.5 Q111 60 91.5 87 Q72 114 61 139 L61 562 Q72 587 92 613.5 Q112 640 142.5 662.5 Q173 685 215 699.5 Q257 714 313 714 Q368 714 410 700 Q452 686 482 664 Q512 642 531.5 616.5 Q551 591 562 568 L562 514 L479 514 Q471 538 457.5 560.5 Q444 583 423.5 599.5 Q403 616 375.5 626 Q348 636 313 636 Z M317 878 Q340 878 352.5 869.5 Q365 861 370 852 L370 800 Q365 791 352.5 783 Q340 775 317 775 Q295 775 281.5 783 Q268 791 264 800 L264 852 Q268 861 281.5 869.5 Q295 878 317 878 Z " />
<glyph glyph-name="Gcommaaccent" unicode="&#x122;" horiz-adv-x="633" d="M313 636 Q252 636 213.5 607.5 Q175 579 159 541 L159 160 Q174 122 213.5 93.5 Q253 65 315 65 Q377 65 415 93 Q453 121 470 157 L470 292 L328 292 L328 369 L562 369 L562 0 L479 0 L479 60 Q452 30 409.5 8 Q367 -14 300 -14 Q249 -14 209.5 0.5 Q170 15 140.5 37.5 Q111 60 91.5 87 Q72 114 61 139 L61 562 Q72 587 92 613.5 Q112 640 142.5 662.5 Q173 685 215 699.5 Q257 714 313 714 Q368 714 410 700 Q452 686 482 664 Q512 642 531.5 616.5 Q551 591 562 568 L562 514 L479 514 Q471 538 457.5 560.5 Q444 583 423.5 599.5 Q403 616 375.5 626 Q348 636 313 636 Z M317 -61 Q337 -61 349.5 -66 Q362 -71 366 -76 L366 -170 Q362 -181 347 -195 Q332 -209 303 -209 L272 -209 L272 -176 L295 -176 Q303 -176 309.5 -173.5 Q316 -171 319 -166 L319 -138 L317 -138 Q297 -138 284 -133.5 Q271 -129 268 -124 L268 -76 Q271 -71 284 -66 Q297 -61 317 -61 Z " />
<glyph glyph-name="Hcircumflex" unicode="&#x124;" horiz-adv-x="647" d="M475 0 L475 322 L171 322 L171 0 L73 0 L73 700 L171 700 L171 400 L475 400 L475 700 L573 700 L573 0 L475 0 Z M471 753 L408 753 L323 859 L238 753 L175 753 L175 769 L264 906 L383 906 L471 769 L471 753 Z " />
<glyph glyph-name="Hbar" unicode="&#x126;" horiz-adv-x="647" d="M573 554 L573 0 L475 0 L475 322 L171 322 L171 0 L73 0 L73 554 L30 554 L30 616 L73 616 L73 700 L171 700 L171 616 L475 616 L475 700 L573 700 L573 616 L622 616 L622 554 L573 554 Z M171 554 L171 400 L475 400 L475 554 L171 554 Z " />
<glyph glyph-name="Igrave" unicode="&#xcc;" horiz-adv-x="244" d="M73 0 L73 700 L171 700 L171 0 L73 0 Z M161 753 L94 753 L14 863 L14 906 L96 906 L161 769 L161 753 Z " />
<glyph glyph-name="Iacute" unicode="&#xcd;" horiz-adv-x="244" d="M73 0 L73 700 L171 700 L171 0 L73 0 Z M147 753 L80 753 L80 769 L144 906 L228 906 L228 863 L147 753 Z " />
<glyph glyph-name="Icircumflex" unicode="&#xce;" horiz-adv-x="244" d="M73 0 L73 700 L171 700 L171 0 L73 0 Z M271 753 L208 753 L123 859 L38 753 L-25 753 L-25 769 L64 906 L183 906 L271 769 L271 753 Z " />
<glyph glyph-name="Itilde" unicode="&#x128;" horiz-adv-x="244" d="M73 0 L73 700 L171 700 L171 0 L73 0 Z M53 869 Q77 869 95 860.5 Q113 852 127.5 842.5 Q142 833 155.5 824.5 Q169 816 185 816 Q201 816 211.5 824 Q222 832 226 844 L226 863 L283 863 L283 819 Q275 793 252.5 774 Q230 755 192 755 Q167 755 149.5 763.5 Q132 772 117.5 782 Q103 792 90 800.5 Q77 809 61 809 Q42 809 33 799 Q24 789 20 780 L20 760 L-37 760 L-37 804 Q-28 833 -5 851 Q18 869 53 869 Z " />
<glyph glyph-name="Idieresis" unicode="&#xcf;" horiz-adv-x="244" d="M73 0 L73 700 L171 700 L171 0 L73 0 Z M21 873 Q43 873 55 865.5 Q67 858 71 853 L71 789 Q67 784 55 776.5 Q43 769 21 769 Q-1 769 -13 776.5 Q-25 784 -30 789 L-30 853 Q-25 858 -13 865.5 Q-1 873 21 873 Z M224 873 Q247 873 258.5 865.5 Q270 858 275 853 L275 789 Q270 784 258.5 776.5 Q247 769 224 769 Q203 769 190.5 776.5 Q178 784 174 789 L174 853 Q178 858 190.5 865.5 Q203 873 224 873 Z " />
<glyph glyph-name="Imacron" unicode="&#x12a;" horiz-adv-x="244" d="M73 0 L73 700 L171 700 L171 0 L73 0 Z M-35 772 L-35 839 L280 839 L280 772 L-35 772 Z " />
<glyph glyph-name="Ibreve" unicode="&#x12c;" horiz-adv-x="244" d="M73 0 L73 700 L171 700 L171 0 L73 0 Z M268 819 Q261 805 249.5 791.5 Q238 778 220.5 767 Q203 756 178.5 749 Q154 742 123 742 Q91 742 67 749 Q43 756 25 767 Q7 778 -4.5 791.5 Q-16 805 -23 819 L-23 875 L46 875 L46 838 Q48 833 53 826.5 Q58 820 67.5 813.5 Q77 807 90.5 802.5 Q104 798 123 798 Q141 798 154.5 802.5 Q168 807 177.5 813.5 Q187 820 192 826.5 Q197 833 199 838 L199 875 L268 875 L268 819 Z " />
<glyph glyph-name="Iogonek" unicode="&#x12e;" horiz-adv-x="244" d="M171 0 Q121 -37 97.5 -66 Q74 -95 69 -105 L69 -136 Q74 -144 87.5 -149.5 Q101 -155 118 -155 Q132 -155 144.5 -153 Q157 -151 171 -145 L171 -201 Q158 -208 142 -212 Q126 -216 101 -216 Q66 -216 38 -203.5 Q10 -191 -1 -168 L-1 -98 Q7 -81 27 -55 Q47 -29 85 0 L73 0 L73 700 L171 700 L171 0 Z " />
<glyph glyph-name="IJ" unicode="&#x132;" horiz-adv-x="631" d="M73 0 L73 700 L171 700 L171 0 L73 0 Z M562 139 Q548 110 527 84 Q506 58 476 39 Q446 20 406 9 Q366 -2 315 -2 Q300 -2 287 -1.5 Q274 -1 264 0 L264 76 L309 76 Q366 76 406.5 99 Q447 122 464 163 L464 700 L562 700 L562 139 Z " />
<glyph glyph-name="Jcircumflex" unicode="&#x134;" horiz-adv-x="387" d="M318 139 Q304 110 283 84 Q262 58 232 39 Q202 20 162 9 Q122 -2 71 -2 Q56 -2 43 -1.5 Q30 -1 20 0 L20 76 L65 76 Q122 76 162.5 99 Q203 122 220 163 L220 700 L318 700 L318 139 Z M417 753 L354 753 L269 859 L184 753 L121 753 L121 769 L210 906 L329 906 L417 769 L417 753 Z " />
<glyph glyph-name="Kcommaaccent" unicode="&#x136;" horiz-adv-x="593" d="M562 0 L492 0 L260 349 L171 254 L171 0 L73 0 L73 700 L171 700 L171 373 L474 700 L534 700 L534 640 L323 415 L562 60 L562 0 Z M297 -61 Q317 -61 329.5 -66 Q342 -71 346 -76 L346 -170 Q342 -181 327 -195 Q312 -209 283 -209 L252 -209 L252 -176 L275 -176 Q283 -176 289.5 -173.5 Q296 -171 299 -166 L299 -138 L297 -138 Q277 -138 264 -133.5 Q251 -129 248 -124 L248 -76 Q251 -71 264 -66 Q277 -61 297 -61 Z " />
<glyph glyph-name="Lacute" unicode="&#x139;" horiz-adv-x="454" d="M431 78 L431 0 L73 0 L73 700 L171 700 L171 78 L431 78 Z M154 753 L87 753 L87 769 L151 906 L235 906 L235 863 L154 753 Z " />
<glyph glyph-name="Lcaron" unicode="&#x13d;" horiz-adv-x="454" d="M431 78 L431 0 L73 0 L73 700 L171 700 L171 78 L431 78 Z M329 521 L270 521 L270 536 L289 700 L365 700 L365 651 L329 521 Z " />
<glyph glyph-name="Lcommaaccent" unicode="&#x13b;" horiz-adv-x="454" d="M431 78 L431 0 L73 0 L73 700 L171 700 L171 78 L431 78 Z M228 -61 Q248 -61 260.5 -66 Q273 -71 277 -76 L277 -170 Q273 -181 258 -195 Q243 -209 214 -209 L183 -209 L183 -176 L206 -176 Q214 -176 220.5 -173.5 Q227 -171 230 -166 L230 -138 L228 -138 Q208 -138 195 -133.5 Q182 -129 179 -124 L179 -76 Q182 -71 195 -66 Q208 -61 228 -61 Z " />
<glyph glyph-name="Lslash" unicode="&#x141;" horiz-adv-x="487" d="M464 0 L106 0 L106 221 L26 180 L26 256 L106 297 L106 700 L204 700 L204 348 L381 440 L381 364 L204 272 L204 78 L464 78 L464 0 Z " />
<glyph glyph-name="Ldot" unicode="&#x13f;" horiz-adv-x="454" d="M431 78 L431 0 L73 0 L73 700 L171 700 L171 78 L431 78 Z M408 415 L408 358 Q405 349 390.5 341 Q376 333 355 333 Q336 333 322 340.5 Q308 348 303 358 L303 415 Q308 425 322 433 Q336 441 355 441 Q376 441 390.5 433 Q405 425 408 415 Z " />
<glyph glyph-name="Nacute" unicode="&#x143;" horiz-adv-x="661" d="M464 0 L168 570 L165 570 L165 0 L73 0 L73 700 L197 700 L493 130 L496 130 L496 700 L588 700 L588 0 L464 0 Z M356 753 L289 753 L289 769 L353 906 L437 906 L437 863 L356 753 Z " />
<glyph glyph-name="Ncaron" unicode="&#x147;" horiz-adv-x="661" d="M464 0 L168 570 L165 570 L165 0 L73 0 L73 700 L197 700 L493 130 L496 130 L496 700 L588 700 L588 0 L464 0 Z M392 753 L273 753 L184 890 L184 906 L247 906 L332 800 L417 906 L480 906 L480 890 L392 753 Z " />
<glyph glyph-name="Ntilde" unicode="&#xd1;" horiz-adv-x="661" d="M464 0 L168 570 L165 570 L165 0 L73 0 L73 700 L197 700 L493 130 L496 130 L496 700 L588 700 L588 0 L464 0 Z M262 869 Q286 869 304 860.5 Q322 852 336.5 842.5 Q351 833 364.5 824.5 Q378 816 394 816 Q410 816 420.5 824 Q431 832 435 844 L435 863 L492 863 L492 819 Q484 793 461.5 774 Q439 755 401 755 Q376 755 358.5 763.5 Q341 772 326.5 782 Q312 792 299 800.5 Q286 809 270 809 Q251 809 242 799 Q233 789 229 780 L229 760 L172 760 L172 804 Q181 833 204 851 Q227 869 262 869 Z " />
<glyph glyph-name="Ncommaaccent" unicode="&#x145;" horiz-adv-x="661" d="M464 0 L168 570 L165 570 L165 0 L73 0 L73 700 L197 700 L493 130 L496 130 L496 700 L588 700 L588 0 L464 0 Z M331 -61 Q351 -61 363.5 -66 Q376 -71 380 -76 L380 -170 Q376 -181 361 -195 Q346 -209 317 -209 L286 -209 L286 -176 L309 -176 Q317 -176 323.5 -173.5 Q330 -171 333 -166 L333 -138 L331 -138 Q311 -138 298 -133.5 Q285 -129 282 -124 L282 -76 Q285 -71 298 -66 Q311 -61 331 -61 Z " />
<glyph glyph-name="Ograve" unicode="&#xd2;" horiz-adv-x="626" d="M313 714 Q368 714 410.5 699.5 Q453 685 483.5 662.5 Q514 640 534 613.5 Q554 587 565 562 L565 139 Q554 114 534 87 Q514 60 483.5 37.5 Q453 15 410.5 0.5 Q368 -14 313 -14 Q257 -14 215 0.5 Q173 15 142.5 37.5 Q112 60 92 87 Q72 114 61 139 L61 562 Q72 587 92 613.5 Q112 640 142.5 662.5 Q173 685 215 699.5 Q257 714 313 714 Z M313 636 Q252 636 213 607.5 Q174 579 159 541 L159 160 Q174 122 213 93.5 Q252 65 313 65 Q375 65 413.5 93.5 Q452 122 467 160 L467 541 Q452 579 413.5 607.5 Q375 636 313 636 Z M351 753 L284 753 L204 863 L204 906 L286 906 L351 769 L351 753 Z " />
<glyph glyph-name="Oacute" unicode="&#xd3;" horiz-adv-x="626" d="M313 714 Q368 714 410.5 699.5 Q453 685 483.5 662.5 Q514 640 534 613.5 Q554 587 565 562 L565 139 Q554 114 534 87 Q514 60 483.5 37.5 Q453 15 410.5 0.5 Q368 -14 313 -14 Q257 -14 215 0.5 Q173 15 142.5 37.5 Q112 60 92 87 Q72 114 61 139 L61 562 Q72 587 92 613.5 Q112 640 142.5 662.5 Q173 685 215 699.5 Q257 714 313 714 Z M313 636 Q252 636 213 607.5 Q174 579 159 541 L159 160 Q174 122 213 93.5 Q252 65 313 65 Q375 65 413.5 93.5 Q452 122 467 160 L467 541 Q452 579 413.5 607.5 Q375 636 313 636 Z M337 753 L270 753 L270 769 L334 906 L418 906 L418 863 L337 753 Z " />
<glyph glyph-name="Ocircumflex" unicode="&#xd4;" horiz-adv-x="626" d="M313 714 Q368 714 410.5 699.5 Q453 685 483.5 662.5 Q514 640 534 613.5 Q554 587 565 562 L565 139 Q554 114 534 87 Q514 60 483.5 37.5 Q453 15 410.5 0.5 Q368 -14 313 -14 Q257 -14 215 0.5 Q173 15 142.5 37.5 Q112 60 92 87 Q72 114 61 139 L61 562 Q72 587 92 613.5 Q112 640 142.5 662.5 Q173 685 215 699.5 Q257 714 313 714 Z M313 636 Q252 636 213 607.5 Q174 579 159 541 L159 160 Q174 122 213 93.5 Q252 65 313 65 Q375 65 413.5 93.5 Q452 122 467 160 L467 541 Q452 579 413.5 607.5 Q375 636 313 636 Z M461 753 L398 753 L313 859 L228 753 L165 753 L165 769 L254 906 L373 906 L461 769 L461 753 Z " />
<glyph glyph-name="Otilde" unicode="&#xd5;" horiz-adv-x="626" d="M313 714 Q368 714 410.5 699.5 Q453 685 483.5 662.5 Q514 640 534 613.5 Q554 587 565 562 L565 139 Q554 114 534 87 Q514 60 483.5 37.5 Q453 15 410.5 0.5 Q368 -14 313 -14 Q257 -14 215 0.5 Q173 15 142.5 37.5 Q112 60 92 87 Q72 114 61 139 L61 562 Q72 587 92 613.5 Q112 640 142.5 662.5 Q173 685 215 699.5 Q257 714 313 714 Z M313 636 Q252 636 213 607.5 Q174 579 159 541 L159 160 Q174 122 213 93.5 Q252 65 313 65 Q375 65 413.5 93.5 Q452 122 467 160 L467 541 Q452 579 413.5 607.5 Q375 636 313 636 Z M243 869 Q267 869 285 860.5 Q303 852 317.5 842.5 Q332 833 345.5 824.5 Q359 816 375 816 Q391 816 401.5 824 Q412 832 416 844 L416 863 L473 863 L473 819 Q465 793 442.5 774 Q420 755 382 755 Q357 755 339.5 763.5 Q322 772 307.5 782 Q293 792 280 800.5 Q267 809 251 809 Q232 809 223 799 Q214 789 210 780 L210 760 L153 760 L153 804 Q162 833 185 851 Q208 869 243 869 Z " />
<glyph glyph-name="Odieresis" unicode="&#xd6;" horiz-adv-x="626" d="M313 714 Q368 714 410.5 699.5 Q453 685 483.5 662.5 Q514 640 534 613.5 Q554 587 565 562 L565 139 Q554 114 534 87 Q514 60 483.5 37.5 Q453 15 410.5 0.5 Q368 -14 313 -14 Q257 -14 215 0.5 Q173 15 142.5 37.5 Q112 60 92 87 Q72 114 61 139 L61 562 Q72 587 92 613.5 Q112 640 142.5 662.5 Q173 685 215 699.5 Q257 714 313 714 Z M313 636 Q252 636 213 607.5 Q174 579 159 541 L159 160 Q174 122 213 93.5 Q252 65 313 65 Q375 65 413.5 93.5 Q452 122 467 160 L467 541 Q452 579 413.5 607.5 Q375 636 313 636 Z M211 873 Q233 873 245 865.5 Q257 858 261 853 L261 789 Q257 784 245 776.5 Q233 769 211 769 Q189 769 177 776.5 Q165 784 160 789 L160 853 Q165 858 177 865.5 Q189 873 211 873 Z M414 873 Q437 873 448.5 865.5 Q460 858 465 853 L465 789 Q460 784 448.5 776.5 Q437 769 414 769 Q393 769 380.5 776.5 Q368 784 364 789 L364 853 Q368 858 380.5 865.5 Q393 873 414 873 Z " />
<glyph glyph-name="Omacron" unicode="&#x14c;" horiz-adv-x="626" d="M313 714 Q368 714 410.5 699.5 Q453 685 483.5 662.5 Q514 640 534 613.5 Q554 587 565 562 L565 139 Q554 114 534 87 Q514 60 483.5 37.5 Q453 15 410.5 0.5 Q368 -14 313 -14 Q257 -14 215 0.5 Q173 15 142.5 37.5 Q112 60 92 87 Q72 114 61 139 L61 562 Q72 587 92 613.5 Q112 640 142.5 662.5 Q173 685 215 699.5 Q257 714 313 714 Z M313 636 Q252 636 213 607.5 Q174 579 159 541 L159 160 Q174 122 213 93.5 Q252 65 313 65 Q375 65 413.5 93.5 Q452 122 467 160 L467 541 Q452 579 413.5 607.5 Q375 636 313 636 Z M155 772 L155 839 L470 839 L470 772 L155 772 Z " />
<glyph glyph-name="Obreve" unicode="&#x14e;" horiz-adv-x="626" d="M313 714 Q368 714 410.5 699.5 Q453 685 483.5 662.5 Q514 640 534 613.5 Q554 587 565 562 L565 139 Q554 114 534 87 Q514 60 483.5 37.5 Q453 15 410.5 0.5 Q368 -14 313 -14 Q257 -14 215 0.5 Q173 15 142.5 37.5 Q112 60 92 87 Q72 114 61 139 L61 562 Q72 587 92 613.5 Q112 640 142.5 662.5 Q173 685 215 699.5 Q257 714 313 714 Z M313 636 Q252 636 213 607.5 Q174 579 159 541 L159 160 Q174 122 213 93.5 Q252 65 313 65 Q375 65 413.5 93.5 Q452 122 467 160 L467 541 Q452 579 413.5 607.5 Q375 636 313 636 Z M458 819 Q451 805 439.5 791.5 Q428 778 410.5 767 Q393 756 368.5 749 Q344 742 313 742 Q281 742 257 749 Q233 756 215 767 Q197 778 185.5 791.5 Q174 805 167 819 L167 875 L236 875 L236 838 Q238 833 243 826.5 Q248 820 257.5 813.5 Q267 807 280.5 802.5 Q294 798 313 798 Q331 798 344.5 802.5 Q358 807 367.5 813.5 Q377 820 382 826.5 Q387 833 389 838 L389 875 L458 875 L458 819 Z " />
<glyph glyph-name="Ohungarumlaut" unicode="&#x150;" horiz-adv-x="626" d="M313 714 Q368 714 410.5 699.5 Q453 685 483.5 662.5 Q514 640 534 613.5 Q554 587 565 562 L565 139 Q554 114 534 87 Q514 60 483.5 37.5 Q453 15 410.5 0.5 Q368 -14 313 -14 Q257 -14 215 0.5 Q173 15 142.5 37.5 Q112 60 92 87 Q72 114 61 139 L61 562 Q72 587 92 613.5 Q112 640 142.5 662.5 Q173 685 215 699.5 Q257 714 313 714 Z M313 636 Q252 636 213 607.5 Q174 579 159 541 L159 160 Q174 122 213 93.5 Q252 65 313 65 Q375 65 413.5 93.5 Q452 122 467 160 L467 541 Q452 579 413.5 607.5 Q375 636 313 636 Z M254 753 L195 753 L195 768 L242 905 L314 905 L314 868 L254 753 Z M433 753 L374 753 L374 768 L420 905 L493 905 L493 868 L433 753 Z " />
<glyph glyph-name="Oslash" unicode="&#xd8;" horiz-adv-x="626" d="M535 613 Q545 600 552.5 587 Q560 574 565 562 L565 139 Q554 114 534 87 Q514 60 483.5 37.5 Q453 15 410.5 0.5 Q368 -14 313 -14 Q256 -14 213 1.5 Q170 17 139 40 L112 0 L61 0 L61 43 L91 87 Q71 115 61 139 L61 562 Q72 587 92 613.5 Q112 640 142.5 662.5 Q173 685 215 699.5 Q257 714 313 714 Q370 714 413 698.5 Q456 683 487 660 L514 700 L565 700 L565 657 L535 613 Z M437 588 Q416 609 385.5 622.5 Q355 636 313 636 Q252 636 213 607.5 Q174 579 159 541 L159 185 L437 588 Z M190 113 Q211 92 241.5 78.5 Q272 65 313 65 Q375 65 413.5 93.5 Q452 122 467 160 L467 515 L190 113 Z " />
<glyph glyph-name="OE" unicode="&#x152;" horiz-adv-x="932" d="M886 0 L466 0 L466 27 Q437 9 399 -2.5 Q361 -14 312 -14 Q256 -14 214 0.5 Q172 15 141.5 37.5 Q111 60 91 87 Q71 114 60 139 L60 562 Q71 587 91 613.5 Q111 640 141.5 662.5 Q172 685 214 699.5 Q256 714 312 714 Q361 714 399 702.5 Q437 691 466 673 L466 700 L877 700 L877 622 L564 622 L564 399 L856 399 L856 322 L564 322 L564 78 L886 78 L886 0 Z M312 65 Q343 65 368 73 Q393 81 412 94 Q431 107 444.5 124 Q458 141 466 160 L466 541 Q451 579 412.5 607.5 Q374 636 312 636 Q251 636 212.5 607.5 Q174 579 158 541 L158 160 Q173 122 212 93.5 Q251 65 312 65 Z " />
<glyph glyph-name="Racute" unicode="&#x154;" horiz-adv-x="593" d="M547 0 L474 0 L284 296 L171 296 L171 0 L73 0 L73 700 L335 700 Q398 700 451 669 Q504 638 535 582 L535 416 Q512 374 474.5 343.5 Q437 313 386 302 L547 60 L547 0 Z M314 372 Q358 372 390 390.5 Q422 409 442 444 L442 550 Q422 586 388 604 Q354 622 314 622 L171 622 L171 372 L314 372 Z M320 753 L253 753 L253 769 L317 906 L401 906 L401 863 L320 753 Z " />
<glyph glyph-name="Rcaron" unicode="&#x158;" horiz-adv-x="593" d="M547 0 L474 0 L284 296 L171 296 L171 0 L73 0 L73 700 L335 700 Q398 700 451 669 Q504 638 535 582 L535 416 Q512 374 474.5 343.5 Q437 313 386 302 L547 60 L547 0 Z M314 372 Q358 372 390 390.5 Q422 409 442 444 L442 550 Q422 586 388 604 Q354 622 314 622 L171 622 L171 372 L314 372 Z M356 753 L237 753 L148 890 L148 906 L211 906 L296 800 L381 906 L444 906 L444 890 L356 753 Z " />
<glyph glyph-name="Rcommaaccent" unicode="&#x156;" horiz-adv-x="593" d="M547 0 L474 0 L284 296 L171 296 L171 0 L73 0 L73 700 L335 700 Q398 700 451 669 Q504 638 535 582 L535 416 Q512 374 474.5 343.5 Q437 313 386 302 L547 60 L547 0 Z M314 372 Q358 372 390 390.5 Q422 409 442 444 L442 550 Q422 586 388 604 Q354 622 314 622 L171 622 L171 372 L314 372 Z M296 -61 Q316 -61 328.5 -66 Q341 -71 345 -76 L345 -170 Q341 -181 326 -195 Q311 -209 282 -209 L251 -209 L251 -176 L274 -176 Q282 -176 288.5 -173.5 Q295 -171 298 -166 L298 -138 L296 -138 Q276 -138 263 -133.5 Q250 -129 247 -124 L247 -76 Q250 -71 263 -66 Q276 -61 296 -61 Z " />
<glyph glyph-name="Sacute" unicode="&#x15a;" horiz-adv-x="586" d="M291 714 Q339 714 377 703 Q415 692 443.5 674.5 Q472 657 491.5 636.5 Q511 616 521 598 L521 544 L437 544 Q423 582 387.5 609 Q352 636 289 636 Q240 636 205.5 616 Q171 596 157 570 L157 474 Q162 465 169 457 Q176 449 187.5 442 Q199 435 217.5 427.5 Q236 420 265 413 L332 395 Q383 381 417 366.5 Q451 352 473.5 336.5 Q496 321 509 304.5 Q522 288 532 272 L532 119 Q522 101 503.5 77.5 Q485 54 456 34 Q427 14 386 0 Q345 -14 290 -14 Q233 -14 191 0 Q149 14 119.5 34 Q90 54 71.5 77 Q53 100 44 118 L44 172 L129 172 Q135 151 148.5 132 Q162 113 182.5 98 Q203 83 230 74 Q257 65 290 65 Q321 65 345 72.5 Q369 80 387.5 91.5 Q406 103 418 117.5 Q430 132 437 146 L437 235 Q426 258 400 277.5 Q374 297 316 311 L250 327 Q205 338 175.5 349.5 Q146 361 125 374 Q104 387 89.5 402.5 Q75 418 62 438 L62 598 Q72 616 91.5 636.5 Q111 657 139 674 Q167 691 205 702.5 Q243 714 291 714 Z M323 753 L256 753 L256 769 L320 906 L404 906 L404 863 L323 753 Z " />
<glyph glyph-name="Scircumflex" unicode="&#x15c;" horiz-adv-x="586" d="M291 714 Q339 714 377 703 Q415 692 443.5 674.5 Q472 657 491.5 636.5 Q511 616 521 598 L521 544 L437 544 Q423 582 387.5 609 Q352 636 289 636 Q240 636 205.5 616 Q171 596 157 570 L157 474 Q162 465 169 457 Q176 449 187.5 442 Q199 435 217.5 427.5 Q236 420 265 413 L332 395 Q383 381 417 366.5 Q451 352 473.5 336.5 Q496 321 509 304.5 Q522 288 532 272 L532 119 Q522 101 503.5 77.5 Q485 54 456 34 Q427 14 386 0 Q345 -14 290 -14 Q233 -14 191 0 Q149 14 119.5 34 Q90 54 71.5 77 Q53 100 44 118 L44 172 L129 172 Q135 151 148.5 132 Q162 113 182.5 98 Q203 83 230 74 Q257 65 290 65 Q321 65 345 72.5 Q369 80 387.5 91.5 Q406 103 418 117.5 Q430 132 437 146 L437 235 Q426 258 400 277.5 Q374 297 316 311 L250 327 Q205 338 175.5 349.5 Q146 361 125 374 Q104 387 89.5 402.5 Q75 418 62 438 L62 598 Q72 616 91.5 636.5 Q111 657 139 674 Q167 691 205 702.5 Q243 714 291 714 Z M447 753 L384 753 L299 859 L214 753 L151 753 L151 769 L240 906 L359 906 L447 769 L447 753 Z " />
<glyph glyph-name="Scaron" unicode="&#x160;" horiz-adv-x="586" d="M291 714 Q339 714 377 703 Q415 692 443.5 674.5 Q472 657 491.5 636.5 Q511 616 521 598 L521 544 L437 544 Q423 582 387.5 609 Q352 636 289 636 Q240 636 205.5 616 Q171 596 157 570 L157 474 Q162 465 169 457 Q176 449 187.5 442 Q199 435 217.5 427.5 Q236 420 265 413 L332 395 Q383 381 417 366.5 Q451 352 473.5 336.5 Q496 321 509 304.5 Q522 288 532 272 L532 119 Q522 101 503.5 77.5 Q485 54 456 34 Q427 14 386 0 Q345 -14 290 -14 Q233 -14 191 0 Q149 14 119.5 34 Q90 54 71.5 77 Q53 100 44 118 L44 172 L129 172 Q135 151 148.5 132 Q162 113 182.5 98 Q203 83 230 74 Q257 65 290 65 Q321 65 345 72.5 Q369 80 387.5 91.5 Q406 103 418 117.5 Q430 132 437 146 L437 235 Q426 258 400 277.5 Q374 297 316 311 L250 327 Q205 338 175.5 349.5 Q146 361 125 374 Q104 387 89.5 402.5 Q75 418 62 438 L62 598 Q72 616 91.5 636.5 Q111 657 139 674 Q167 691 205 702.5 Q243 714 291 714 Z M359 753 L240 753 L151 890 L151 906 L214 906 L299 800 L384 906 L447 906 L447 890 L359 753 Z " />
<glyph glyph-name="Scedilla" unicode="&#x15e;" horiz-adv-x="586" d="M332 395 Q383 381 417 366.5 Q451 352 473.5 336.5 Q496 321 509 304.5 Q522 288 532 272 L532 119 Q522 101 505 79.5 Q488 58 461.5 38 Q435 18 397.5 4 Q360 -10 311 -13 L295 -52 L306 -52 Q341 -52 361.5 -66.5 Q382 -81 390 -98 L390 -169 Q380 -191 353.5 -206 Q327 -221 289 -221 Q258 -221 232 -214.5 Q206 -208 191 -198 L208 -152 Q224 -160 242.5 -165.5 Q261 -171 283 -171 Q304 -171 315 -163.5 Q326 -156 330 -147 L330 -117 Q326 -109 314.5 -102.5 Q303 -96 283 -96 L223 -96 L252 -12 Q205 -8 170 7 Q135 22 110 41 Q85 60 69 80.5 Q53 101 44 118 L44 172 L129 172 Q135 151 148.5 132 Q162 113 182.5 98 Q203 83 230 74 Q257 65 290 65 Q321 65 345 72.5 Q369 80 387.5 91.5 Q406 103 418 117.5 Q430 132 437 146 L437 236 Q426 259 400 278.5 Q374 298 316 312 L250 328 Q205 339 175.5 350.5 Q146 362 125 375 Q104 388 89.5 403.5 Q75 419 62 439 L62 598 Q72 616 91.5 636.5 Q111 657 139 674 Q167 691 205 702.5 Q243 714 291 714 Q339 714 377 703 Q415 692 443.5 674.5 Q472 657 491.5 636.5 Q511 616 521 598 L521 544 L437 544 Q423 582 387.5 609 Q352 636 289 636 Q240 636 205.5 616 Q171 596 157 570 L157 474 Q162 465 169 457 Q176 449 187.5 442 Q199 435 217.5 427.5 Q236 420 265 413 L332 395 Z " />
<glyph glyph-name="Scommaaccent" unicode="&#x218;" horiz-adv-x="586" d="M291 714 Q339 714 377 703 Q415 692 443.5 674.5 Q472 657 491.5 636.5 Q511 616 521 598 L521 544 L437 544 Q423 582 387.5 609 Q352 636 289 636 Q240 636 205.5 616 Q171 596 157 570 L157 474 Q162 465 169 457 Q176 449 187.5 442 Q199 435 217.5 427.5 Q236 420 265 413 L332 395 Q383 381 417 366.5 Q451 352 473.5 336.5 Q496 321 509 304.5 Q522 288 532 272 L532 119 Q522 101 503.5 77.5 Q485 54 456 34 Q427 14 386 0 Q345 -14 290 -14 Q233 -14 191 0 Q149 14 119.5 34 Q90 54 71.5 77 Q53 100 44 118 L44 172 L129 172 Q135 151 148.5 132 Q162 113 182.5 98 Q203 83 230 74 Q257 65 290 65 Q321 65 345 72.5 Q369 80 387.5 91.5 Q406 103 418 117.5 Q430 132 437 146 L437 235 Q426 258 400 277.5 Q374 297 316 311 L250 327 Q205 338 175.5 349.5 Q146 361 125 374 Q104 387 89.5 402.5 Q75 418 62 438 L62 598 Q72 616 91.5 636.5 Q111 657 139 674 Q167 691 205 702.5 Q243 714 291 714 Z M290 -61 Q310 -61 322.5 -66 Q335 -71 339 -76 L339 -170 Q335 -181 320 -195 Q305 -209 276 -209 L245 -209 L245 -176 L268 -176 Q276 -176 282.5 -173.5 Q289 -171 292 -166 L292 -138 L290 -138 Q270 -138 257 -133.5 Q244 -129 241 -124 L241 -76 Q244 -71 257 -66 Q270 -61 290 -61 Z " />
<glyph glyph-name="Tcaron" unicode="&#x164;" horiz-adv-x="530" d="M314 622 L314 0 L216 0 L216 622 L25 622 L25 700 L505 700 L505 622 L314 622 Z M325 753 L206 753 L117 890 L117 906 L180 906 L265 800 L350 906 L413 906 L413 890 L325 753 Z " />
<glyph glyph-name="uni021A" unicode="&#x21a;" horiz-adv-x="530" d="M314 622 L314 0 L216 0 L216 622 L25 622 L25 700 L505 700 L505 622 L314 622 Z M265 -61 Q285 -61 297.5 -66 Q310 -71 314 -76 L314 -170 Q310 -181 295 -195 Q280 -209 251 -209 L220 -209 L220 -176 L243 -176 Q251 -176 257.5 -173.5 Q264 -171 267 -166 L267 -138 L265 -138 Q245 -138 232 -133.5 Q219 -129 216 -124 L216 -76 Q219 -71 232 -66 Q245 -61 265 -61 Z " />
<glyph glyph-name="Tbar" unicode="&#x166;" horiz-adv-x="530" d="M314 407 L452 407 L452 345 L314 345 L314 0 L216 0 L216 345 L79 345 L79 407 L216 407 L216 622 L25 622 L25 700 L505 700 L505 622 L314 622 L314 407 Z " />
<glyph glyph-name="Ugrave" unicode="&#xd9;" horiz-adv-x="642" d="M573 139 Q562 114 542 87 Q522 60 491.5 37.5 Q461 15 418.5 0.5 Q376 -14 321 -14 Q266 -14 223.5 0.5 Q181 15 150.5 37.5 Q120 60 100 87 Q80 114 69 139 L69 700 L167 700 L167 161 Q182 124 221 95 Q260 66 321 66 Q352 66 377 74 Q402 82 421.5 95 Q441 108 454 125.5 Q467 143 475 161 L475 700 L573 700 L573 139 Z M359 753 L292 753 L212 863 L212 906 L294 906 L359 769 L359 753 Z " />
<glyph glyph-name="Uacute" unicode="&#xda;" horiz-adv-x="642" d="M573 139 Q562 114 542 87 Q522 60 491.5 37.5 Q461 15 418.5 0.5 Q376 -14 321 -14 Q266 -14 223.5 0.5 Q181 15 150.5 37.5 Q120 60 100 87 Q80 114 69 139 L69 700 L167 700 L167 161 Q182 124 221 95 Q260 66 321 66 Q352 66 377 74 Q402 82 421.5 95 Q441 108 454 125.5 Q467 143 475 161 L475 700 L573 700 L573 139 Z M345 753 L278 753 L278 769 L342 906 L426 906 L426 863 L345 753 Z " />
<glyph glyph-name="Ucircumflex" unicode="&#xdb;" horiz-adv-x="642" d="M573 139 Q562 114 542 87 Q522 60 491.5 37.5 Q461 15 418.5 0.5 Q376 -14 321 -14 Q266 -14 223.5 0.5 Q181 15 150.5 37.5 Q120 60 100 87 Q80 114 69 139 L69 700 L167 700 L167 161 Q182 124 221 95 Q260 66 321 66 Q352 66 377 74 Q402 82 421.5 95 Q441 108 454 125.5 Q467 143 475 161 L475 700 L573 700 L573 139 Z M469 753 L406 753 L321 859 L236 753 L173 753 L173 769 L262 906 L381 906 L469 769 L469 753 Z " />
<glyph glyph-name="Utilde" unicode="&#x168;" horiz-adv-x="642" d="M573 139 Q562 114 542 87 Q522 60 491.5 37.5 Q461 15 418.5 0.5 Q376 -14 321 -14 Q266 -14 223.5 0.5 Q181 15 150.5 37.5 Q120 60 100 87 Q80 114 69 139 L69 700 L167 700 L167 161 Q182 124 221 95 Q260 66 321 66 Q352 66 377 74 Q402 82 421.5 95 Q441 108 454 125.5 Q467 143 475 161 L475 700 L573 700 L573 139 Z M251 869 Q275 869 293 860.5 Q311 852 325.5 842.5 Q340 833 353.5 824.5 Q367 816 383 816 Q399 816 409.5 824 Q420 832 424 844 L424 863 L481 863 L481 819 Q473 793 450.5 774 Q428 755 390 755 Q365 755 347.5 763.5 Q330 772 315.5 782 Q301 792 288 800.5 Q275 809 259 809 Q240 809 231 799 Q222 789 218 780 L218 760 L161 760 L161 804 Q170 833 193 851 Q216 869 251 869 Z " />
<glyph glyph-name="Udieresis" unicode="&#xdc;" horiz-adv-x="642" d="M573 139 Q562 114 542 87 Q522 60 491.5 37.5 Q461 15 418.5 0.5 Q376 -14 321 -14 Q266 -14 223.5 0.5 Q181 15 150.5 37.5 Q120 60 100 87 Q80 114 69 139 L69 700 L167 700 L167 161 Q182 124 221 95 Q260 66 321 66 Q352 66 377 74 Q402 82 421.5 95 Q441 108 454 125.5 Q467 143 475 161 L475 700 L573 700 L573 139 Z M219 873 Q241 873 253 865.5 Q265 858 269 853 L269 789 Q265 784 253 776.5 Q241 769 219 769 Q197 769 185 776.5 Q173 784 168 789 L168 853 Q173 858 185 865.5 Q197 873 219 873 Z M422 873 Q445 873 456.5 865.5 Q468 858 473 853 L473 789 Q468 784 456.5 776.5 Q445 769 422 769 Q401 769 388.5 776.5 Q376 784 372 789 L372 853 Q376 858 388.5 865.5 Q401 873 422 873 Z " />
<glyph glyph-name="Umacron" unicode="&#x16a;" horiz-adv-x="642" d="M573 139 Q562 114 542 87 Q522 60 491.5 37.5 Q461 15 418.5 0.5 Q376 -14 321 -14 Q266 -14 223.5 0.5 Q181 15 150.5 37.5 Q120 60 100 87 Q80 114 69 139 L69 700 L167 700 L167 161 Q182 124 221 95 Q260 66 321 66 Q352 66 377 74 Q402 82 421.5 95 Q441 108 454 125.5 Q467 143 475 161 L475 700 L573 700 L573 139 Z M163 772 L163 839 L478 839 L478 772 L163 772 Z " />
<glyph glyph-name="Ubreve" unicode="&#x16c;" horiz-adv-x="642" d="M573 139 Q562 114 542 87 Q522 60 491.5 37.5 Q461 15 418.5 0.5 Q376 -14 321 -14 Q266 -14 223.5 0.5 Q181 15 150.5 37.5 Q120 60 100 87 Q80 114 69 139 L69 700 L167 700 L167 161 Q182 124 221 95 Q260 66 321 66 Q352 66 377 74 Q402 82 421.5 95 Q441 108 454 125.5 Q467 143 475 161 L475 700 L573 700 L573 139 Z M466 819 Q459 805 447.5 791.5 Q436 778 418.5 767 Q401 756 376.5 749 Q352 742 321 742 Q289 742 265 749 Q241 756 223 767 Q205 778 193.5 791.5 Q182 805 175 819 L175 875 L244 875 L244 838 Q246 833 251 826.5 Q256 820 265.5 813.5 Q275 807 288.5 802.5 Q302 798 321 798 Q339 798 352.5 802.5 Q366 807 375.5 813.5 Q385 820 390 826.5 Q395 833 397 838 L397 875 L466 875 L466 819 Z " />
<glyph glyph-name="Uring" unicode="&#x16e;" horiz-adv-x="642" d="M573 139 Q562 114 542 87 Q522 60 491.5 37.5 Q461 15 418.5 0.5 Q376 -14 321 -14 Q266 -14 223.5 0.5 Q181 15 150.5 37.5 Q120 60 100 87 Q80 114 69 139 L69 700 L167 700 L167 161 Q182 124 221 95 Q260 66 321 66 Q352 66 377 74 Q402 82 421.5 95 Q441 108 454 125.5 Q467 143 475 161 L475 700 L573 700 L573 139 Z M321 880 Q360 880 388.5 864 Q417 848 428 826 L428 737 Q417 714 388.5 698 Q360 682 321 682 Q282 682 253.5 698 Q225 714 213 737 L213 826 Q225 848 253.5 864 Q282 880 321 880 Z M321 835 Q296 835 282.5 826.5 Q269 818 263 810 L263 753 Q269 745 282.5 736.5 Q296 728 321 728 Q346 728 359.5 736.5 Q373 745 378 753 L378 810 Q373 818 359.5 826.5 Q346 835 321 835 Z " />
<glyph glyph-name="Uhungarumlaut" unicode="&#x170;" horiz-adv-x="642" d="M573 139 Q562 114 542 87 Q522 60 491.5 37.5 Q461 15 418.5 0.5 Q376 -14 321 -14 Q266 -14 223.5 0.5 Q181 15 150.5 37.5 Q120 60 100 87 Q80 114 69 139 L69 700 L167 700 L167 161 Q182 124 221 95 Q260 66 321 66 Q352 66 377 74 Q402 82 421.5 95 Q441 108 454 125.5 Q467 143 475 161 L475 700 L573 700 L573 139 Z M262 753 L203 753 L203 768 L250 905 L322 905 L322 868 L262 753 Z M441 753 L382 753 L382 768 L428 905 L501 905 L501 868 L441 753 Z " />
<glyph glyph-name="Uogonek" unicode="&#x172;" horiz-adv-x="642" d="M573 139 Q562 114 543.5 89.5 Q525 65 494 38 Q470 17 449 -6 Q428 -29 412 -49.5 Q396 -70 386 -85 Q376 -100 374 -105 L374 -136 Q379 -144 392.5 -149.5 Q406 -155 424 -155 Q438 -155 450.5 -153 Q463 -151 477 -145 L477 -201 Q463 -208 447 -212 Q431 -216 406 -216 Q372 -216 344 -203.5 Q316 -191 305 -168 L305 -98 Q312 -83 329 -59 Q346 -35 376 -9 Q363 -11 349.5 -12.5 Q336 -14 321 -14 Q266 -14 223.5 0.5 Q181 15 150.5 37.5 Q120 60 100 87 Q80 114 69 139 L69 700 L167 700 L167 161 Q182 124 221 95 Q260 66 321 66 Q352 66 377 74 Q402 82 421.5 95 Q441 108 454 125.5 Q467 143 475 161 L475 700 L573 700 L573 139 Z " />
<glyph glyph-name="Wgrave" unicode="&#x1e80;" horiz-adv-x="899" d="M731 0 L591 0 L448 554 L445 554 L302 0 L168 0 L36 640 L36 700 L123 700 L242 91 L245 91 L400 700 L499 700 L655 91 L658 91 L778 700 L863 700 L863 640 L731 0 Z M488 753 L421 753 L341 863 L341 906 L423 906 L488 769 L488 753 Z " />
<glyph glyph-name="Wacute" unicode="&#x1e82;" horiz-adv-x="899" d="M731 0 L591 0 L448 554 L445 554 L302 0 L168 0 L36 640 L36 700 L123 700 L242 91 L245 91 L400 700 L499 700 L655 91 L658 91 L778 700 L863 700 L863 640 L731 0 Z M474 753 L407 753 L407 769 L471 906 L555 906 L555 863 L474 753 Z " />
<glyph glyph-name="Wcircumflex" unicode="&#x174;" horiz-adv-x="899" d="M731 0 L591 0 L448 554 L445 554 L302 0 L168 0 L36 640 L36 700 L123 700 L242 91 L245 91 L400 700 L499 700 L655 91 L658 91 L778 700 L863 700 L863 640 L731 0 Z M598 753 L535 753 L450 859 L365 753 L302 753 L302 769 L391 906 L510 906 L598 769 L598 753 Z " />
<glyph glyph-name="Wdieresis" unicode="&#x1e84;" horiz-adv-x="899" d="M731 0 L591 0 L448 554 L445 554 L302 0 L168 0 L36 640 L36 700 L123 700 L242 91 L245 91 L400 700 L499 700 L655 91 L658 91 L778 700 L863 700 L863 640 L731 0 Z M348 873 Q370 873 382 865.5 Q394 858 398 853 L398 789 Q394 784 382 776.5 Q370 769 348 769 Q326 769 314 776.5 Q302 784 297 789 L297 853 Q302 858 314 865.5 Q326 873 348 873 Z M551 873 Q574 873 585.5 865.5 Q597 858 602 853 L602 789 Q597 784 585.5 776.5 Q574 769 551 769 Q530 769 517.5 776.5 Q505 784 501 789 L501 853 Q505 858 517.5 865.5 Q530 873 551 873 Z " />
<glyph glyph-name="Ygrave" unicode="&#x1ef2;" horiz-adv-x="559" d="M327 298 L327 0 L228 0 L228 307 L34 640 L34 700 L107 700 L280 393 L283 393 L454 700 L525 700 L525 640 L327 298 Z M317 753 L250 753 L170 863 L170 906 L252 906 L317 769 L317 753 Z " />
<glyph glyph-name="Yacute" unicode="&#xdd;" horiz-adv-x="559" d="M327 298 L327 0 L228 0 L228 307 L34 640 L34 700 L107 700 L280 393 L283 393 L454 700 L525 700 L525 640 L327 298 Z M303 753 L236 753 L236 769 L300 906 L384 906 L384 863 L303 753 Z " />
<glyph glyph-name="Ycircumflex" unicode="&#x176;" horiz-adv-x="559" d="M327 298 L327 0 L228 0 L228 307 L34 640 L34 700 L107 700 L280 393 L283 393 L454 700 L525 700 L525 640 L327 298 Z M427 753 L364 753 L279 859 L194 753 L131 753 L131 769 L220 906 L339 906 L427 769 L427 753 Z " />
<glyph glyph-name="Ydieresis" unicode="&#x178;" horiz-adv-x="559" d="M327 298 L327 0 L228 0 L228 307 L34 640 L34 700 L107 700 L280 393 L283 393 L454 700 L525 700 L525 640 L327 298 Z M177 873 Q199 873 211 865.5 Q223 858 227 853 L227 789 Q223 784 211 776.5 Q199 769 177 769 Q155 769 143 776.5 Q131 784 126 789 L126 853 Q131 858 143 865.5 Q155 873 177 873 Z M380 873 Q403 873 414.5 865.5 Q426 858 431 853 L431 789 Q426 784 414.5 776.5 Q403 769 380 769 Q359 769 346.5 776.5 Q334 784 330 789 L330 853 Q334 858 346.5 865.5 Q359 873 380 873 Z " />
<glyph glyph-name="Zacute" unicode="&#x179;" horiz-adv-x="563" d="M160 78 L517 78 L517 0 L44 0 L44 66 L402 622 L52 622 L52 700 L517 700 L517 634 L160 78 Z M305 753 L238 753 L238 769 L302 906 L386 906 L386 863 L305 753 Z " />
<glyph glyph-name="Zcaron" unicode="&#x17d;" horiz-adv-x="563" d="M160 78 L517 78 L517 0 L44 0 L44 66 L402 622 L52 622 L52 700 L517 700 L517 634 L160 78 Z M341 753 L222 753 L133 890 L133 906 L196 906 L281 800 L366 906 L429 906 L429 890 L341 753 Z " />
<glyph glyph-name="Zdotaccent" unicode="&#x17b;" horiz-adv-x="563" d="M160 78 L517 78 L517 0 L44 0 L44 66 L402 622 L52 622 L52 700 L517 700 L517 634 L160 78 Z M281 878 Q304 878 316.5 869.5 Q329 861 334 852 L334 800 Q329 791 316.5 783 Q304 775 281 775 Q259 775 245.5 783 Q232 791 228 800 L228 852 Q232 861 245.5 869.5 Q259 878 281 878 Z " />
<glyph glyph-name="Eng" unicode="&#x14a;" horiz-adv-x="661" d="M588 -25 Q576 -54 554 -80.5 Q532 -107 500.5 -127.5 Q469 -148 428 -160.5 Q387 -173 336 -173 Q322 -173 311 -172.5 Q300 -172 293 -171 L293 -96 Q298 -97 312 -97.5 Q326 -98 334 -98 Q383 -98 420.5 -78.5 Q458 -59 478 -27 L168 570 L165 570 L165 0 L73 0 L73 700 L197 700 L493 130 L496 130 L496 700 L588 700 L588 -25 Z " />
<glyph glyph-name="Eth" unicode="&#xd0;" horiz-adv-x="652" d="M352 700 Q402 700 441 688 Q480 676 509 656.5 Q538 637 557 612 Q576 587 587 562 L587 138 Q576 113 557 88 Q538 63 509 43.5 Q480 24 441 12 Q402 0 352 0 L96 0 L96 318 L40 318 L40 394 L96 394 L96 700 L352 700 Z M489 536 Q475 574 435.5 598 Q396 622 335 622 L194 622 L194 394 L359 394 L359 318 L194 318 L194 78 L335 78 Q396 78 435.5 102 Q475 126 489 164 L489 536 Z " />
<glyph glyph-name="Thorn" unicode="&#xde;" horiz-adv-x="572" d="M328 582 Q391 582 444 551.5 Q497 521 529 464 L529 273 Q502 224 451 190 Q400 156 328 156 L171 156 L171 0 L73 0 L73 700 L171 700 L171 582 L328 582 Z M433 432 Q412 472 376.5 488 Q341 504 306 504 L171 504 L171 233 L306 233 Q347 233 380.5 251.5 Q414 270 433 306 L433 432 Z " />
<glyph glyph-name="a" unicode="a" horiz-adv-x="543" d="M262 552 Q311 552 348 539.5 Q385 527 412 507.5 Q439 488 456.5 464.5 Q474 441 483 420 L483 0 L395 0 L395 47 Q371 22 331 4 Q291 -14 234 -14 Q189 -14 156.5 -4 Q124 6 102 19.5 Q80 33 67.5 47.5 Q55 62 49 70 L49 236 Q54 245 66.5 260 Q79 275 101 288.5 Q123 302 155.5 312 Q188 322 233 322 L392 322 L392 401 Q379 432 346.5 455.5 Q314 479 262 479 Q235 479 214.5 472.5 Q194 466 179 456 Q164 446 153.5 433 Q143 420 136 407 L60 407 L60 454 Q66 463 80 479.5 Q94 496 118 512 Q142 528 177.5 540 Q213 552 262 552 Z M252 56 Q306 56 341 75 Q376 94 392 120 L392 253 L252 253 Q228 253 209 248.5 Q190 244 176.5 237 Q163 230 154 222 Q145 214 139 207 L139 106 Q144 100 153 91.5 Q162 83 175.5 75 Q189 67 208 61.5 Q227 56 252 56 Z " />
<glyph glyph-name="b" unicode="b" horiz-adv-x="548" d="M306 550 Q350 550 382.5 538.5 Q415 527 437.5 509.5 Q460 492 474 473 Q488 454 495 439 L495 99 Q488 84 474 65 Q460 46 437.5 29 Q415 12 382.5 0 Q350 -12 306 -12 Q252 -12 214.5 4.5 Q177 21 152 44 L152 0 L64 0 L64 700 L155 700 L155 497 Q180 520 216.5 535 Q253 550 306 550 Z M403 418 Q398 427 388.5 437 Q379 447 364.5 456 Q350 465 330 471 Q310 477 284 477 Q238 477 205.5 461.5 Q173 446 155 424 L155 115 Q173 93 205.5 77 Q238 61 284 61 Q310 61 330 67 Q350 73 364.5 82 Q379 91 388.5 101.5 Q398 112 403 121 L403 418 Z " />
<glyph glyph-name="c" unicode="c" horiz-adv-x="528" d="M274 552 Q322 552 359 539.5 Q396 527 422.5 508.5 Q449 490 465.5 468.5 Q482 447 490 429 L490 382 L414 382 Q394 428 361.5 453.5 Q329 479 274 479 Q223 479 190.5 455 Q158 431 144 401 L144 137 Q158 107 190.5 83 Q223 59 274 59 Q329 59 361.5 85 Q394 111 414 156 L490 156 L490 109 Q482 91 465.5 70 Q449 49 422.5 30 Q396 11 359 -1.5 Q322 -14 274 -14 Q226 -14 188.5 -1 Q151 12 124 31.5 Q97 51 80 74.5 Q63 98 54 119 L54 420 Q63 441 80 464.5 Q97 488 124 507.5 Q151 527 188.5 539.5 Q226 552 274 552 Z " />
<glyph glyph-name="d" unicode="d" horiz-adv-x="548" d="M484 0 L396 0 L396 44 Q371 21 333.5 4.5 Q296 -12 242 -12 Q198 -12 166 0 Q134 12 111.5 29 Q89 46 75 65 Q61 84 54 99 L54 439 Q61 454 75 473 Q89 492 111.5 509.5 Q134 527 166 538.5 Q198 550 242 550 Q295 550 331.5 535 Q368 520 393 497 L393 700 L484 700 L484 0 Z M264 61 Q311 61 343.5 77 Q376 93 393 115 L393 425 Q376 446 343.5 461.5 Q311 477 264 477 Q238 477 218 471 Q198 465 183.5 456 Q169 447 159.5 437 Q150 427 145 418 L145 121 Q150 112 159.5 101.5 Q169 91 183.5 82 Q198 73 218 67 Q238 61 264 61 Z " />
<glyph glyph-name="e" unicode="e" horiz-adv-x="540" d="M274 552 Q322 552 359 539.5 Q396 527 422.5 508 Q449 489 465.5 468 Q482 447 490 429 L490 253 L144 253 L144 138 Q158 107 190.5 83 Q223 59 274 59 Q329 59 361.5 84.5 Q394 110 414 156 L490 156 L490 109 Q482 92 465.5 70.5 Q449 49 422.5 30 Q396 11 359 -1.5 Q322 -14 274 -14 Q226 -14 188.5 -1 Q151 12 124 31.5 Q97 51 80 74.5 Q63 98 54 119 L54 420 Q63 441 80 464.5 Q97 488 124 507.5 Q151 527 188.5 539.5 Q226 552 274 552 Z M274 479 Q223 479 190.5 455 Q158 431 144 400 L144 322 L405 322 L405 400 Q392 431 359 455 Q326 479 274 479 Z " />
<glyph glyph-name="f" unicode="f" horiz-adv-x="340" d="M257 721 Q285 721 306 717.5 Q327 714 335 712 L335 647 Q328 648 315.5 649 Q303 650 288 650 Q259 650 240 644.5 Q221 639 209 630.5 Q197 622 190.5 613 Q184 604 181 598 L181 538 L315 538 L315 469 L181 469 L181 0 L90 0 L90 469 L22 469 L22 538 L90 538 L90 629 Q96 643 107 659 Q118 675 137.5 689 Q157 703 186 712 Q215 721 257 721 Z " />
<glyph glyph-name="g" unicode="g" horiz-adv-x="548" d="M484 -55 Q475 -76 457 -98.5 Q439 -121 412 -139 Q385 -157 348 -168.5 Q311 -180 263 -180 Q215 -180 178 -168 Q141 -156 114.5 -139.5 Q88 -123 71 -104.5 Q54 -86 47 -73 L47 -25 L123 -25 Q143 -60 177 -83.5 Q211 -107 263 -107 Q316 -107 347.5 -87 Q379 -67 393 -36 L393 74 Q367 51 329.5 36 Q292 21 243 21 Q199 21 167 33 Q135 45 112 62 Q89 79 75 98.5 Q61 118 54 133 L54 439 Q61 454 75 473 Q89 492 112 509.5 Q135 527 167 538.5 Q199 550 243 550 Q294 550 332 534 Q370 518 396 495 L396 538 L484 538 L484 -55 Z M264 94 Q312 94 344 110 Q376 126 393 149 L393 424 Q375 446 342 461.5 Q309 477 264 477 Q238 477 218 471 Q198 465 183.5 456 Q169 447 159 437 Q149 427 144 418 L144 154 Q149 145 159 134.5 Q169 124 183.5 115 Q198 106 218 100 Q238 94 264 94 Z " />
<glyph glyph-name="h" unicode="h" horiz-adv-x="556" d="M306 550 Q350 550 382.5 538.5 Q415 527 437.5 509.5 Q460 492 474 473 Q488 454 495 439 L495 0 L404 0 L404 418 Q399 427 389 437 Q379 447 364.5 456 Q350 465 330 471 Q310 477 285 477 Q237 477 204.5 461.5 Q172 446 155 424 L155 0 L64 0 L64 700 L155 700 L155 498 Q181 521 218.5 535.5 Q256 550 306 550 Z " />
<glyph glyph-name="i" unicode="i" horiz-adv-x="228" d="M68 0 L68 538 L160 538 L160 0 L68 0 Z M114 727 Q137 727 149.5 718.5 Q162 710 167 701 L167 649 Q162 640 149.5 632 Q137 624 114 624 Q92 624 78.5 632 Q65 640 61 649 L61 701 Q65 710 78.5 718.5 Q92 727 114 727 Z " />
<glyph glyph-name="j" unicode="j" horiz-adv-x="219" d="M155 -47 Q146 -68 128.5 -91.5 Q111 -115 84 -134.5 Q57 -154 19.5 -167 Q-18 -180 -66 -180 L-66 -108 Q-14 -108 18 -83 Q50 -58 63 -25 L63 538 L155 538 L155 -47 Z M110 727 Q133 727 145.5 718.5 Q158 710 163 701 L163 649 Q158 640 145.5 632 Q133 624 110 624 Q88 624 74.5 632 Q61 640 57 649 L57 701 Q61 710 74.5 718.5 Q88 727 110 727 Z " />
<glyph glyph-name="k" unicode="k" horiz-adv-x="514" d="M495 0 L428 0 L241 258 L155 173 L155 0 L64 0 L64 700 L155 700 L155 278 L409 538 L467 538 L467 483 L301 318 L495 54 L495 0 Z " />
<glyph glyph-name="l" unicode="l" horiz-adv-x="220" d="M64 0 L64 700 L156 700 L156 0 L64 0 Z " />
<glyph glyph-name="m" unicode="m" horiz-adv-x="809" d="M582 550 Q622 550 651 539 Q680 528 699.5 512 Q719 496 730.5 478 Q742 460 748 446 L748 0 L657 0 L657 425 Q650 443 624.5 460 Q599 477 558 477 Q520 477 493 462 Q466 447 451 427 L451 0 L361 0 L361 425 Q356 434 348.5 443 Q341 452 329 459.5 Q317 467 300.5 472 Q284 477 262 477 Q224 477 197 462.5 Q170 448 155 428 L155 0 L64 0 L64 538 L150 538 L150 497 Q173 520 206 535 Q239 550 285 550 Q340 550 376 529.5 Q412 509 431 482 Q454 509 491.5 529.5 Q529 550 582 550 Z " />
<glyph glyph-name="n" unicode="n" horiz-adv-x="555" d="M305 550 Q349 550 381.5 538.5 Q414 527 436.5 509.5 Q459 492 473 473 Q487 454 494 439 L494 0 L403 0 L403 418 Q398 427 388 437 Q378 447 363.5 456 Q349 465 329 471 Q309 477 284 477 Q238 477 205.5 462 Q173 447 155 425 L155 0 L64 0 L64 538 L150 538 L150 495 Q177 518 215.5 534 Q254 550 305 550 Z " />
<glyph glyph-name="o" unicode="o" horiz-adv-x="549" d="M275 552 Q323 552 360.5 539.5 Q398 527 425 507.5 Q452 488 469 464.5 Q486 441 495 420 L495 119 Q486 98 469 74.5 Q452 51 425 31.5 Q398 12 360.5 -1 Q323 -14 275 -14 Q227 -14 189.5 -1 Q152 12 125 31.5 Q98 51 80.5 74.5 Q63 98 54 119 L54 420 Q63 441 80.5 464.5 Q98 488 125 507.5 Q152 527 189.5 539.5 Q227 552 275 552 Z M274 479 Q223 479 190 455 Q157 431 144 401 L144 137 Q157 107 190 83 Q223 59 274 59 Q326 59 359 83 Q392 107 405 137 L405 401 Q392 431 359 455 Q326 479 274 479 Z " />
<glyph glyph-name="p" unicode="p" horiz-adv-x="548" d="M306 550 Q350 550 382.5 538.5 Q415 527 437.5 509.5 Q460 492 474 473 Q488 454 495 439 L495 99 Q488 84 474 65 Q460 46 437.5 29 Q415 12 382.5 0 Q350 -12 306 -12 Q253 -12 216.5 3 Q180 18 155 41 L155 -166 L64 -166 L64 538 L152 538 L152 494 Q177 518 214.5 534 Q252 550 306 550 Z M403 418 Q398 427 388.5 437 Q379 447 364.5 456 Q350 465 330 471 Q310 477 284 477 Q238 477 205.5 461.5 Q173 446 155 424 L155 115 Q173 93 205.5 77 Q238 61 284 61 Q310 61 330 67 Q350 73 364.5 82 Q379 91 388.5 101.5 Q398 112 403 121 L403 418 Z " />
<glyph glyph-name="q" unicode="q" horiz-adv-x="548" d="M484 -166 L393 -166 L393 41 Q368 18 331.5 3 Q295 -12 242 -12 Q198 -12 166 0 Q134 12 111.5 29 Q89 46 75 65 Q61 84 54 99 L54 439 Q61 454 75 473 Q89 492 111.5 509.5 Q134 527 166 538.5 Q198 550 242 550 Q296 550 333.5 534 Q371 518 396 494 L396 538 L484 538 L484 -166 Z M264 61 Q311 61 343.5 77 Q376 93 393 115 L393 425 Q376 446 343.5 461.5 Q311 477 264 477 Q238 477 218 471 Q198 465 183.5 456 Q169 447 159.5 437 Q150 427 145 418 L145 121 Q150 112 159.5 101.5 Q169 91 183.5 82 Q198 73 218 67 Q238 61 264 61 Z " />
<glyph glyph-name="r" unicode="r" horiz-adv-x="355" d="M311 539 Q314 539 319 539 Q324 539 332 538 L332 455 Q323 456 317 456 Q311 456 308 456 Q251 456 213 438.5 Q175 421 155 398 L155 0 L63 0 L63 538 L150 538 L150 468 Q172 497 211 518 Q250 539 311 539 Z " />
<glyph glyph-name="s" unicode="s" horiz-adv-x="487" d="M243 552 Q284 552 316.5 543 Q349 534 373 520.5 Q397 507 412.5 492 Q428 477 436 466 L436 419 L360 419 Q347 445 318.5 462.5 Q290 480 243 480 Q201 480 174.5 465.5 Q148 451 137 438 L137 365 Q157 333 229 317 L284 304 Q356 287 394.5 263.5 Q433 240 446 217 L446 84 Q438 72 422.5 55.5 Q407 39 382.5 23.5 Q358 8 323.5 -3 Q289 -14 243 -14 Q198 -14 163.5 -3 Q129 8 104.5 23.5 Q80 39 64.5 56 Q49 73 41 84 L41 132 L117 132 Q155 58 243 58 Q290 58 319 76 Q348 94 360 113 L360 181 Q349 199 326 211 Q303 223 267 231 L210 244 Q173 252 146 262.5 Q119 273 100.5 284.5 Q82 296 70 307.5 Q58 319 51 330 L51 466 Q58 476 73 490.5 Q88 505 111.5 518.5 Q135 532 167.5 542 Q200 552 243 552 Z " />
<glyph glyph-name="t" unicode="t" horiz-adv-x="352" d="M288 62 Q303 62 315.5 63 Q328 64 335 65 L335 -1 Q325 -4 305.5 -7 Q286 -10 257 -10 Q215 -10 186 -1 Q157 8 137.5 22 Q118 36 107 52 Q96 68 90 82 L90 469 L22 469 L22 538 L90 538 L90 653 L181 653 L181 538 L315 538 L315 469 L181 469 L181 113 Q184 107 191 98 Q198 89 210 81 Q222 73 241 67.5 Q260 62 288 62 Z " />
<glyph glyph-name="u" unicode="u" horiz-adv-x="547" d="M483 0 L398 0 L398 43 Q373 20 336 4 Q299 -12 246 -12 Q202 -12 170.5 0 Q139 12 116.5 29 Q94 46 80.5 64.5 Q67 83 60 97 L60 538 L151 538 L151 120 Q156 112 165 102 Q174 92 188 83 Q202 74 221.5 67.5 Q241 61 267 61 Q315 61 345 77 Q375 93 392 113 L392 538 L483 538 L483 0 Z " />
<glyph glyph-name="v" unicode="v" horiz-adv-x="516" d="M315 0 L201 0 L36 483 L36 538 L114 538 L260 90 L263 90 L407 538 L481 538 L481 483 L315 0 Z " />
<glyph glyph-name="w" unicode="w" horiz-adv-x="777" d="M617 0 L507 0 L393 410 L390 410 L275 0 L165 0 L38 483 L38 538 L116 538 L224 96 L227 96 L349 538 L439 538 L559 96 L562 96 L669 538 L743 538 L743 483 L617 0 Z " />
<glyph glyph-name="x" unicode="x" horiz-adv-x="487" d="M306 276 L449 55 L449 0 L378 0 L246 222 L243 222 L105 0 L38 0 L38 55 L181 276 L47 483 L47 538 L117 538 L243 329 L246 329 L373 538 L441 538 L441 483 L306 276 Z " />
<glyph glyph-name="y" unicode="y" horiz-adv-x="507" d="M263 110 L401 538 L474 538 L474 484 L276 -97 Q249 -135 204 -154 Q159 -173 105 -173 Q82 -173 65 -170.5 Q48 -168 40 -166 L40 -100 Q49 -101 58.5 -101.5 Q68 -102 79 -102 Q129 -102 157.5 -88.5 Q186 -75 201 -56 L216 -4 L37 482 L37 538 L115 538 L260 110 L263 110 Z " />
<glyph glyph-name="z" unicode="z" horiz-adv-x="472" d="M134 69 L441 69 L441 0 L31 0 L31 64 L333 469 L39 469 L39 538 L441 538 L441 478 L134 69 Z " />
<glyph glyph-name="agrave" unicode="&#xe0;" horiz-adv-x="543" d="M262 552 Q311 552 348 539.5 Q385 527 412 507.5 Q439 488 456.5 464.5 Q474 441 483 420 L483 0 L395 0 L395 47 Q371 22 331 4 Q291 -14 234 -14 Q189 -14 156.5 -4 Q124 6 102 19.5 Q80 33 67.5 47.5 Q55 62 49 70 L49 236 Q54 245 66.5 260 Q79 275 101 288.5 Q123 302 155.5 312 Q188 322 233 322 L392 322 L392 401 Q379 432 346.5 455.5 Q314 479 262 479 Q235 479 214.5 472.5 Q194 466 179 456 Q164 446 153.5 433 Q143 420 136 407 L60 407 L60 454 Q66 463 80 479.5 Q94 496 118 512 Q142 528 177.5 540 Q213 552 262 552 Z M252 56 Q306 56 341 75 Q376 94 392 120 L392 253 L252 253 Q228 253 209 248.5 Q190 244 176.5 237 Q163 230 154 222 Q145 214 139 207 L139 106 Q144 100 153 91.5 Q162 83 175.5 75 Q189 67 208 61.5 Q227 56 252 56 Z M310 609 L242 609 L161 722 L161 765 L245 765 L310 624 L310 609 Z " />
<glyph glyph-name="aacute" unicode="&#xe1;" horiz-adv-x="543" d="M262 552 Q311 552 348 539.5 Q385 527 412 507.5 Q439 488 456.5 464.5 Q474 441 483 420 L483 0 L395 0 L395 47 Q371 22 331 4 Q291 -14 234 -14 Q189 -14 156.5 -4 Q124 6 102 19.5 Q80 33 67.5 47.5 Q55 62 49 70 L49 236 Q54 245 66.5 260 Q79 275 101 288.5 Q123 302 155.5 312 Q188 322 233 322 L392 322 L392 401 Q379 432 346.5 455.5 Q314 479 262 479 Q235 479 214.5 472.5 Q194 466 179 456 Q164 446 153.5 433 Q143 420 136 407 L60 407 L60 454 Q66 463 80 479.5 Q94 496 118 512 Q142 528 177.5 540 Q213 552 262 552 Z M252 56 Q306 56 341 75 Q376 94 392 120 L392 253 L252 253 Q228 253 209 248.5 Q190 244 176.5 237 Q163 230 154 222 Q145 214 139 207 L139 106 Q144 100 153 91.5 Q162 83 175.5 75 Q189 67 208 61.5 Q227 56 252 56 Z M302 609 L233 609 L233 624 L297 765 L382 765 L382 722 L302 609 Z " />
<glyph glyph-name="acircumflex" unicode="&#xe2;" horiz-adv-x="543" d="M262 552 Q311 552 348 539.5 Q385 527 412 507.5 Q439 488 456.5 464.5 Q474 441 483 420 L483 0 L395 0 L395 47 Q371 22 331 4 Q291 -14 234 -14 Q189 -14 156.5 -4 Q124 6 102 19.5 Q80 33 67.5 47.5 Q55 62 49 70 L49 236 Q54 245 66.5 260 Q79 275 101 288.5 Q123 302 155.5 312 Q188 322 233 322 L392 322 L392 401 Q379 432 346.5 455.5 Q314 479 262 479 Q235 479 214.5 472.5 Q194 466 179 456 Q164 446 153.5 433 Q143 420 136 407 L60 407 L60 454 Q66 463 80 479.5 Q94 496 118 512 Q142 528 177.5 540 Q213 552 262 552 Z M252 56 Q306 56 341 75 Q376 94 392 120 L392 253 L252 253 Q228 253 209 248.5 Q190 244 176.5 237 Q163 230 154 222 Q145 214 139 207 L139 106 Q144 100 153 91.5 Q162 83 175.5 75 Q189 67 208 61.5 Q227 56 252 56 Z M420 607 L357 607 L272 716 L187 607 L124 607 L124 623 L213 763 L332 763 L420 623 L420 607 Z " />
<glyph glyph-name="atilde" unicode="&#xe3;" horiz-adv-x="543" d="M262 552 Q311 552 348 539.5 Q385 527 412 507.5 Q439 488 456.5 464.5 Q474 441 483 420 L483 0 L395 0 L395 47 Q371 22 331 4 Q291 -14 234 -14 Q189 -14 156.5 -4 Q124 6 102 19.5 Q80 33 67.5 47.5 Q55 62 49 70 L49 236 Q54 245 66.5 260 Q79 275 101 288.5 Q123 302 155.5 312 Q188 322 233 322 L392 322 L392 401 Q379 432 346.5 455.5 Q314 479 262 479 Q235 479 214.5 472.5 Q194 466 179 456 Q164 446 153.5 433 Q143 420 136 407 L60 407 L60 454 Q66 463 80 479.5 Q94 496 118 512 Q142 528 177.5 540 Q213 552 262 552 Z M252 56 Q306 56 341 75 Q376 94 392 120 L392 253 L252 253 Q228 253 209 248.5 Q190 244 176.5 237 Q163 230 154 222 Q145 214 139 207 L139 106 Q144 100 153 91.5 Q162 83 175.5 75 Q189 67 208 61.5 Q227 56 252 56 Z M202 733 Q226 733 244 724.5 Q262 716 276.5 706.5 Q291 697 304.5 688.5 Q318 680 334 680 Q350 680 360.5 688.5 Q371 697 375 709 L375 728 L432 728 L432 684 Q424 658 402 638.5 Q380 619 342 619 Q317 619 299.5 627.5 Q282 636 267 646 Q252 656 239 664.5 Q226 673 210 673 Q191 673 182 663 Q173 653 169 645 L169 625 L112 625 L112 669 Q121 698 144 715.5 Q167 733 202 733 Z " />
<glyph glyph-name="adieresis" unicode="&#xe4;" horiz-adv-x="543" d="M262 552 Q311 552 348 539.5 Q385 527 412 507.5 Q439 488 456.5 464.5 Q474 441 483 420 L483 0 L395 0 L395 47 Q371 22 331 4 Q291 -14 234 -14 Q189 -14 156.5 -4 Q124 6 102 19.5 Q80 33 67.5 47.5 Q55 62 49 70 L49 236 Q54 245 66.5 260 Q79 275 101 288.5 Q123 302 155.5 312 Q188 322 233 322 L392 322 L392 401 Q379 432 346.5 455.5 Q314 479 262 479 Q235 479 214.5 472.5 Q194 466 179 456 Q164 446 153.5 433 Q143 420 136 407 L60 407 L60 454 Q66 463 80 479.5 Q94 496 118 512 Q142 528 177.5 540 Q213 552 262 552 Z M252 56 Q306 56 341 75 Q376 94 392 120 L392 253 L252 253 Q228 253 209 248.5 Q190 244 176.5 237 Q163 230 154 222 Q145 214 139 207 L139 106 Q144 100 153 91.5 Q162 83 175.5 75 Q189 67 208 61.5 Q227 56 252 56 Z M170 727 Q192 727 204 719.5 Q216 712 220 707 L220 643 Q216 638 204 630.5 Q192 623 170 623 Q148 623 136 630.5 Q124 638 119 643 L119 707 Q124 712 136 719.5 Q148 727 170 727 Z M373 727 Q396 727 407.5 719.5 Q419 712 424 707 L424 643 Q419 638 407.5 630.5 Q396 623 373 623 Q352 623 339.5 630.5 Q327 638 323 643 L323 707 Q327 712 339.5 719.5 Q352 727 373 727 Z " />
<glyph glyph-name="amacron" unicode="&#x101;" horiz-adv-x="543" d="M262 552 Q311 552 348 539.5 Q385 527 412 507.5 Q439 488 456.5 464.5 Q474 441 483 420 L483 0 L395 0 L395 47 Q371 22 331 4 Q291 -14 234 -14 Q189 -14 156.5 -4 Q124 6 102 19.5 Q80 33 67.5 47.5 Q55 62 49 70 L49 236 Q54 245 66.5 260 Q79 275 101 288.5 Q123 302 155.5 312 Q188 322 233 322 L392 322 L392 401 Q379 432 346.5 455.5 Q314 479 262 479 Q235 479 214.5 472.5 Q194 466 179 456 Q164 446 153.5 433 Q143 420 136 407 L60 407 L60 454 Q66 463 80 479.5 Q94 496 118 512 Q142 528 177.5 540 Q213 552 262 552 Z M252 56 Q306 56 341 75 Q376 94 392 120 L392 253 L252 253 Q228 253 209 248.5 Q190 244 176.5 237 Q163 230 154 222 Q145 214 139 207 L139 106 Q144 100 153 91.5 Q162 83 175.5 75 Q189 67 208 61.5 Q227 56 252 56 Z M114 648 L114 714 L429 714 L429 648 L114 648 Z " />
<glyph glyph-name="abreve" unicode="&#x103;" horiz-adv-x="543" d="M262 552 Q311 552 348 539.5 Q385 527 412 507.5 Q439 488 456.5 464.5 Q474 441 483 420 L483 0 L395 0 L395 47 Q371 22 331 4 Q291 -14 234 -14 Q189 -14 156.5 -4 Q124 6 102 19.5 Q80 33 67.5 47.5 Q55 62 49 70 L49 236 Q54 245 66.5 260 Q79 275 101 288.5 Q123 302 155.5 312 Q188 322 233 322 L392 322 L392 401 Q379 432 346.5 455.5 Q314 479 262 479 Q235 479 214.5 472.5 Q194 466 179 456 Q164 446 153.5 433 Q143 420 136 407 L60 407 L60 454 Q66 463 80 479.5 Q94 496 118 512 Q142 528 177.5 540 Q213 552 262 552 Z M252 56 Q306 56 341 75 Q376 94 392 120 L392 253 L252 253 Q228 253 209 248.5 Q190 244 176.5 237 Q163 230 154 222 Q145 214 139 207 L139 106 Q144 100 153 91.5 Q162 83 175.5 75 Q189 67 208 61.5 Q227 56 252 56 Z M417 679 Q403 651 369 627 Q335 603 272 603 Q209 603 174.5 627 Q140 651 126 679 L126 735 L195 735 L195 698 Q197 693 202 686.5 Q207 680 216.5 673.5 Q226 667 239.5 662.5 Q253 658 272 658 Q290 658 303.5 662.5 Q317 667 326.5 673.5 Q336 680 341 686.5 Q346 693 348 698 L348 735 L417 735 L417 679 Z " />
<glyph glyph-name="aring" unicode="&#xe5;" horiz-adv-x="543" d="M262 552 Q311 552 348 539.5 Q385 527 412 507.5 Q439 488 456.5 464.5 Q474 441 483 420 L483 0 L395 0 L395 47 Q371 22 331 4 Q291 -14 234 -14 Q189 -14 156.5 -4 Q124 6 102 19.5 Q80 33 67.5 47.5 Q55 62 49 70 L49 236 Q54 245 66.5 260 Q79 275 101 288.5 Q123 302 155.5 312 Q188 322 233 322 L392 322 L392 401 Q379 432 346.5 455.5 Q314 479 262 479 Q235 479 214.5 472.5 Q194 466 179 456 Q164 446 153.5 433 Q143 420 136 407 L60 407 L60 454 Q66 463 80 479.5 Q94 496 118 512 Q142 528 177.5 540 Q213 552 262 552 Z M252 56 Q306 56 341 75 Q376 94 392 120 L392 253 L252 253 Q228 253 209 248.5 Q190 244 176.5 237 Q163 230 154 222 Q145 214 139 207 L139 106 Q144 100 153 91.5 Q162 83 175.5 75 Q189 67 208 61.5 Q227 56 252 56 Z M271 795 Q310 795 338.5 779.5 Q367 764 378 741 L378 652 Q367 629 338.5 613.5 Q310 598 271 598 Q232 598 203.5 613.5 Q175 629 163 652 L163 741 Q175 764 203.5 779.5 Q232 795 271 795 Z M271 750 Q246 750 232.5 741.5 Q219 733 213 725 L213 668 Q219 660 232.5 651.5 Q246 643 271 643 Q296 643 309.5 651.5 Q323 660 328 668 L328 725 Q323 733 309.5 741.5 Q296 750 271 750 Z " />
<glyph glyph-name="aogonek" unicode="&#x105;" horiz-adv-x="543" d="M446 -155 Q460 -155 472 -153 Q484 -151 498 -145 L498 -201 Q485 -208 469 -212 Q453 -216 428 -216 Q394 -216 366 -203.5 Q338 -191 327 -168 L327 -98 Q335 -81 354 -55 Q373 -29 411 0 L395 0 L395 47 Q371 22 331 4 Q291 -14 234 -14 Q189 -14 156.5 -4 Q124 6 102 19.5 Q80 33 67.5 47.5 Q55 62 49 70 L49 236 Q54 245 66.5 260 Q79 275 101 288.5 Q123 302 155.5 312 Q188 322 233 322 L392 322 L392 401 Q379 432 346.5 455.5 Q314 479 262 479 Q235 479 214.5 472.5 Q194 466 179 456 Q164 446 153.5 433 Q143 420 136 407 L60 407 L60 454 Q66 463 80 479.5 Q94 496 118 512 Q142 528 177.5 540 Q213 552 262 552 Q311 552 348 539.5 Q385 527 412 507.5 Q439 488 456.5 464.5 Q474 441 483 420 L483 0 Q457 -22 441 -39.5 Q425 -57 416 -70 Q407 -83 402.5 -91.5 Q398 -100 396 -105 L396 -136 Q401 -144 414.5 -149.5 Q428 -155 446 -155 Z M252 56 Q306 56 341 75 Q376 94 392 120 L392 253 L252 253 Q228 253 209 248.5 Q190 244 176.5 237 Q163 230 154 222 Q145 214 139 207 L139 106 Q144 100 153 91.5 Q162 83 175.5 75 Q189 67 208 61.5 Q227 56 252 56 Z " />
<glyph glyph-name="ae" unicode="&#xe6;" horiz-adv-x="878" d="M483 138 Q497 107 529.5 83 Q562 59 613 59 Q668 59 700.5 84.5 Q733 110 753 156 L829 156 L829 109 Q821 92 804.5 70.5 Q788 49 761.5 30 Q735 11 698 -1.5 Q661 -14 613 -14 Q548 -14 503.5 8 Q459 30 431 60 Q365 -14 241 -14 Q193 -14 159.5 -4 Q126 6 103 19.5 Q80 33 67.5 47.5 Q55 62 49 70 L49 236 Q54 245 66.5 260 Q79 275 101 288.5 Q123 302 155.5 312 Q188 322 233 322 L392 322 L392 401 Q379 432 346.5 455.5 Q314 479 262 479 Q235 479 214.5 472.5 Q194 466 179 455.5 Q164 445 153.5 432.5 Q143 420 136 407 L60 407 L60 454 Q66 463 80 479.5 Q94 496 118 512 Q142 528 177.5 540 Q213 552 262 552 Q324 552 367 532 Q410 512 438 485 Q465 512 508 532 Q551 552 613 552 Q661 552 698 539.5 Q735 527 761.5 508 Q788 489 804.5 468 Q821 447 829 429 L829 253 L483 253 L483 138 Z M744 322 L744 400 Q731 431 698 455 Q665 479 613 479 Q562 479 529.5 455 Q497 431 483 400 L483 322 L744 322 Z M252 253 Q228 253 209 248.5 Q190 244 176.5 237 Q163 230 154 222 Q145 214 139 207 L139 106 Q144 100 153 91.5 Q162 83 175.5 75 Q189 67 208 61.5 Q227 56 252 56 Q306 56 341 76 Q376 96 392 122 L392 253 L252 253 Z " />
<glyph glyph-name="cacute" unicode="&#x107;" horiz-adv-x="528" d="M274 552 Q322 552 359 539.5 Q396 527 422.5 508.5 Q449 490 465.5 468.5 Q482 447 490 429 L490 382 L414 382 Q394 428 361.5 453.5 Q329 479 274 479 Q223 479 190.5 455 Q158 431 144 401 L144 137 Q158 107 190.5 83 Q223 59 274 59 Q329 59 361.5 85 Q394 111 414 156 L490 156 L490 109 Q482 91 465.5 70 Q449 49 422.5 30 Q396 11 359 -1.5 Q322 -14 274 -14 Q226 -14 188.5 -1 Q151 12 124 31.5 Q97 51 80 74.5 Q63 98 54 119 L54 420 Q63 441 80 464.5 Q97 488 124 507.5 Q151 527 188.5 539.5 Q226 552 274 552 Z M307 609 L238 609 L238 624 L302 765 L387 765 L387 722 L307 609 Z " />
<glyph glyph-name="ccircumflex" unicode="&#x109;" horiz-adv-x="528" d="M274 552 Q322 552 359 539.5 Q396 527 422.5 508.5 Q449 490 465.5 468.5 Q482 447 490 429 L490 382 L414 382 Q394 428 361.5 453.5 Q329 479 274 479 Q223 479 190.5 455 Q158 431 144 401 L144 137 Q158 107 190.5 83 Q223 59 274 59 Q329 59 361.5 85 Q394 111 414 156 L490 156 L490 109 Q482 91 465.5 70 Q449 49 422.5 30 Q396 11 359 -1.5 Q322 -14 274 -14 Q226 -14 188.5 -1 Q151 12 124 31.5 Q97 51 80 74.5 Q63 98 54 119 L54 420 Q63 441 80 464.5 Q97 488 124 507.5 Q151 527 188.5 539.5 Q226 552 274 552 Z M425 607 L362 607 L277 716 L192 607 L129 607 L129 623 L218 763 L337 763 L425 623 L425 607 Z " />
<glyph glyph-name="ccaron" unicode="&#x10d;" horiz-adv-x="528" d="M274 552 Q322 552 359 539.5 Q396 527 422.5 508.5 Q449 490 465.5 468.5 Q482 447 490 429 L490 382 L414 382 Q394 428 361.5 453.5 Q329 479 274 479 Q223 479 190.5 455 Q158 431 144 401 L144 137 Q158 107 190.5 83 Q223 59 274 59 Q329 59 361.5 85 Q394 111 414 156 L490 156 L490 109 Q482 91 465.5 70 Q449 49 422.5 30 Q396 11 359 -1.5 Q322 -14 274 -14 Q226 -14 188.5 -1 Q151 12 124 31.5 Q97 51 80 74.5 Q63 98 54 119 L54 420 Q63 441 80 464.5 Q97 488 124 507.5 Q151 527 188.5 539.5 Q226 552 274 552 Z M337 607 L218 607 L129 747 L129 763 L192 763 L277 654 L362 763 L425 763 L425 747 L337 607 Z " />
<glyph glyph-name="cdotaccent" unicode="&#x10b;" horiz-adv-x="528" d="M274 552 Q322 552 359 539.5 Q396 527 422.5 508.5 Q449 490 465.5 468.5 Q482 447 490 429 L490 382 L414 382 Q394 428 361.5 453.5 Q329 479 274 479 Q223 479 190.5 455 Q158 431 144 401 L144 137 Q158 107 190.5 83 Q223 59 274 59 Q329 59 361.5 85 Q394 111 414 156 L490 156 L490 109 Q482 91 465.5 70 Q449 49 422.5 30 Q396 11 359 -1.5 Q322 -14 274 -14 Q226 -14 188.5 -1 Q151 12 124 31.5 Q97 51 80 74.5 Q63 98 54 119 L54 420 Q63 441 80 464.5 Q97 488 124 507.5 Q151 527 188.5 539.5 Q226 552 274 552 Z M277 727 Q300 727 312.5 718.5 Q325 710 330 701 L330 649 Q325 640 312.5 632 Q300 624 277 624 Q255 624 241.5 632 Q228 640 224 649 L224 701 Q228 710 241.5 718.5 Q255 727 277 727 Z " />
<glyph glyph-name="ccedilla" unicode="&#xe7;" horiz-adv-x="528" d="M274 479 Q223 479 190.5 455 Q158 431 144 401 L144 137 Q158 107 190.5 83 Q223 59 274 59 Q329 59 361.5 85 Q394 111 414 156 L490 156 L490 109 Q482 92 466.5 71 Q451 50 426 31.5 Q401 13 366 0 Q331 -13 285 -14 L270 -52 L281 -52 Q316 -52 336.5 -66.5 Q357 -81 365 -98 L365 -169 Q354 -191 328 -206 Q302 -221 263 -221 Q232 -221 206 -214.5 Q180 -208 165 -198 L182 -152 Q198 -160 216.5 -165.5 Q235 -171 258 -171 Q278 -171 289 -163.5 Q300 -156 304 -147 L304 -117 Q300 -109 289 -102.5 Q278 -96 258 -96 L197 -96 L227 -10 Q190 -4 161 9.5 Q132 23 111 41 Q90 59 75.5 79.5 Q61 100 54 119 L54 420 Q63 441 80 464.5 Q97 488 124 507.5 Q151 527 188.5 539.5 Q226 552 274 552 Q322 552 359 539.5 Q396 527 422.5 508.5 Q449 490 465.5 468.5 Q482 447 490 429 L490 382 L414 382 Q394 428 361.5 453.5 Q329 479 274 479 Z " />
<glyph glyph-name="dcaron" unicode="&#x10f;" horiz-adv-x="690" d="M484 0 L396 0 L396 44 Q371 21 333.5 4.5 Q296 -12 242 -12 Q198 -12 166 0 Q134 12 111.5 29 Q89 46 75 65 Q61 84 54 99 L54 439 Q61 454 75 473 Q89 492 111.5 509.5 Q134 527 166 538.5 Q198 550 242 550 Q295 550 331.5 535 Q368 520 393 497 L393 700 L484 700 L484 0 Z M264 61 Q311 61 343.5 77 Q376 93 393 115 L393 425 Q376 446 343.5 461.5 Q311 477 264 477 Q238 477 218 471 Q198 465 183.5 456 Q169 447 159.5 437 Q150 427 145 418 L145 121 Q150 112 159.5 101.5 Q169 91 183.5 82 Q198 73 218 67 Q238 61 264 61 Z M627 521 L568 521 L568 536 L587 700 L663 700 L663 651 L627 521 Z " />
<glyph glyph-name="egrave" unicode="&#xe8;" horiz-adv-x="540" d="M274 552 Q322 552 359 539.5 Q396 527 422.5 508 Q449 489 465.5 468 Q482 447 490 429 L490 253 L144 253 L144 138 Q158 107 190.5 83 Q223 59 274 59 Q329 59 361.5 84.5 Q394 110 414 156 L490 156 L490 109 Q482 92 465.5 70.5 Q449 49 422.5 30 Q396 11 359 -1.5 Q322 -14 274 -14 Q226 -14 188.5 -1 Q151 12 124 31.5 Q97 51 80 74.5 Q63 98 54 119 L54 420 Q63 441 80 464.5 Q97 488 124 507.5 Q151 527 188.5 539.5 Q226 552 274 552 Z M274 479 Q223 479 190.5 455 Q158 431 144 400 L144 322 L405 322 L405 400 Q392 431 359 455 Q326 479 274 479 Z M318 609 L250 609 L169 722 L169 765 L253 765 L318 624 L318 609 Z " />
<glyph glyph-name="eacute" unicode="&#xe9;" horiz-adv-x="540" d="M274 552 Q322 552 359 539.5 Q396 527 422.5 508 Q449 489 465.5 468 Q482 447 490 429 L490 253 L144 253 L144 138 Q158 107 190.5 83 Q223 59 274 59 Q329 59 361.5 84.5 Q394 110 414 156 L490 156 L490 109 Q482 92 465.5 70.5 Q449 49 422.5 30 Q396 11 359 -1.5 Q322 -14 274 -14 Q226 -14 188.5 -1 Q151 12 124 31.5 Q97 51 80 74.5 Q63 98 54 119 L54 420 Q63 441 80 464.5 Q97 488 124 507.5 Q151 527 188.5 539.5 Q226 552 274 552 Z M274 479 Q223 479 190.5 455 Q158 431 144 400 L144 322 L405 322 L405 400 Q392 431 359 455 Q326 479 274 479 Z M310 609 L241 609 L241 624 L305 765 L390 765 L390 722 L310 609 Z " />
<glyph glyph-name="ecircumflex" unicode="&#xea;" horiz-adv-x="540" d="M274 552 Q322 552 359 539.5 Q396 527 422.5 508 Q449 489 465.5 468 Q482 447 490 429 L490 253 L144 253 L144 138 Q158 107 190.5 83 Q223 59 274 59 Q329 59 361.5 84.5 Q394 110 414 156 L490 156 L490 109 Q482 92 465.5 70.5 Q449 49 422.5 30 Q396 11 359 -1.5 Q322 -14 274 -14 Q226 -14 188.5 -1 Q151 12 124 31.5 Q97 51 80 74.5 Q63 98 54 119 L54 420 Q63 441 80 464.5 Q97 488 124 507.5 Q151 527 188.5 539.5 Q226 552 274 552 Z M274 479 Q223 479 190.5 455 Q158 431 144 400 L144 322 L405 322 L405 400 Q392 431 359 455 Q326 479 274 479 Z M428 607 L365 607 L280 716 L195 607 L132 607 L132 623 L221 763 L340 763 L428 623 L428 607 Z " />
<glyph glyph-name="ecaron" unicode="&#x11b;" horiz-adv-x="540" d="M274 552 Q322 552 359 539.5 Q396 527 422.5 508 Q449 489 465.5 468 Q482 447 490 429 L490 253 L144 253 L144 138 Q158 107 190.5 83 Q223 59 274 59 Q329 59 361.5 84.5 Q394 110 414 156 L490 156 L490 109 Q482 92 465.5 70.5 Q449 49 422.5 30 Q396 11 359 -1.5 Q322 -14 274 -14 Q226 -14 188.5 -1 Q151 12 124 31.5 Q97 51 80 74.5 Q63 98 54 119 L54 420 Q63 441 80 464.5 Q97 488 124 507.5 Q151 527 188.5 539.5 Q226 552 274 552 Z M274 479 Q223 479 190.5 455 Q158 431 144 400 L144 322 L405 322 L405 400 Q392 431 359 455 Q326 479 274 479 Z M340 607 L221 607 L132 747 L132 763 L195 763 L280 654 L365 763 L428 763 L428 747 L340 607 Z " />
<glyph glyph-name="edieresis" unicode="&#xeb;" horiz-adv-x="540" d="M274 552 Q322 552 359 539.5 Q396 527 422.5 508 Q449 489 465.5 468 Q482 447 490 429 L490 253 L144 253 L144 138 Q158 107 190.5 83 Q223 59 274 59 Q329 59 361.5 84.5 Q394 110 414 156 L490 156 L490 109 Q482 92 465.5 70.5 Q449 49 422.5 30 Q396 11 359 -1.5 Q322 -14 274 -14 Q226 -14 188.5 -1 Q151 12 124 31.5 Q97 51 80 74.5 Q63 98 54 119 L54 420 Q63 441 80 464.5 Q97 488 124 507.5 Q151 527 188.5 539.5 Q226 552 274 552 Z M274 479 Q223 479 190.5 455 Q158 431 144 400 L144 322 L405 322 L405 400 Q392 431 359 455 Q326 479 274 479 Z M178 727 Q200 727 212 719.5 Q224 712 228 707 L228 643 Q224 638 212 630.5 Q200 623 178 623 Q156 623 144 630.5 Q132 638 127 643 L127 707 Q132 712 144 719.5 Q156 727 178 727 Z M381 727 Q404 727 415.5 719.5 Q427 712 432 707 L432 643 Q427 638 415.5 630.5 Q404 623 381 623 Q360 623 347.5 630.5 Q335 638 331 643 L331 707 Q335 712 347.5 719.5 Q360 727 381 727 Z " />
<glyph glyph-name="emacron" unicode="&#x113;" horiz-adv-x="540" d="M274 552 Q322 552 359 539.5 Q396 527 422.5 508 Q449 489 465.5 468 Q482 447 490 429 L490 253 L144 253 L144 138 Q158 107 190.5 83 Q223 59 274 59 Q329 59 361.5 84.5 Q394 110 414 156 L490 156 L490 109 Q482 92 465.5 70.5 Q449 49 422.5 30 Q396 11 359 -1.5 Q322 -14 274 -14 Q226 -14 188.5 -1 Q151 12 124 31.5 Q97 51 80 74.5 Q63 98 54 119 L54 420 Q63 441 80 464.5 Q97 488 124 507.5 Q151 527 188.5 539.5 Q226 552 274 552 Z M274 479 Q223 479 190.5 455 Q158 431 144 400 L144 322 L405 322 L405 400 Q392 431 359 455 Q326 479 274 479 Z M122 648 L122 714 L437 714 L437 648 L122 648 Z " />
<glyph glyph-name="ebreve" unicode="&#x115;" horiz-adv-x="540" d="M274 552 Q322 552 359 539.5 Q396 527 422.5 508 Q449 489 465.5 468 Q482 447 490 429 L490 253 L144 253 L144 138 Q158 107 190.5 83 Q223 59 274 59 Q329 59 361.5 84.5 Q394 110 414 156 L490 156 L490 109 Q482 92 465.5 70.5 Q449 49 422.5 30 Q396 11 359 -1.5 Q322 -14 274 -14 Q226 -14 188.5 -1 Q151 12 124 31.5 Q97 51 80 74.5 Q63 98 54 119 L54 420 Q63 441 80 464.5 Q97 488 124 507.5 Q151 527 188.5 539.5 Q226 552 274 552 Z M274 479 Q223 479 190.5 455 Q158 431 144 400 L144 322 L405 322 L405 400 Q392 431 359 455 Q326 479 274 479 Z M425 679 Q411 651 377 627 Q343 603 280 603 Q217 603 182.5 627 Q148 651 134 679 L134 735 L203 735 L203 698 Q205 693 210 686.5 Q215 680 224.5 673.5 Q234 667 247.5 662.5 Q261 658 280 658 Q298 658 311.5 662.5 Q325 667 334.5 673.5 Q344 680 349 686.5 Q354 693 356 698 L356 735 L425 735 L425 679 Z " />
<glyph glyph-name="edotaccent" unicode="&#x117;" horiz-adv-x="540" d="M274 552 Q322 552 359 539.5 Q396 527 422.5 508 Q449 489 465.5 468 Q482 447 490 429 L490 253 L144 253 L144 138 Q158 107 190.5 83 Q223 59 274 59 Q329 59 361.5 84.5 Q394 110 414 156 L490 156 L490 109 Q482 92 465.5 70.5 Q449 49 422.5 30 Q396 11 359 -1.5 Q322 -14 274 -14 Q226 -14 188.5 -1 Q151 12 124 31.5 Q97 51 80 74.5 Q63 98 54 119 L54 420 Q63 441 80 464.5 Q97 488 124 507.5 Q151 527 188.5 539.5 Q226 552 274 552 Z M274 479 Q223 479 190.5 455 Q158 431 144 400 L144 322 L405 322 L405 400 Q392 431 359 455 Q326 479 274 479 Z M280 727 Q303 727 315.5 718.5 Q328 710 333 701 L333 649 Q328 640 315.5 632 Q303 624 280 624 Q258 624 244.5 632 Q231 640 227 649 L227 701 Q231 710 244.5 718.5 Q258 727 280 727 Z " />
<glyph glyph-name="eogonek" unicode="&#x119;" horiz-adv-x="540" d="M274 552 Q322 552 359 539.5 Q396 527 422.5 508 Q449 489 465.5 468 Q482 447 490 429 L490 253 L144 253 L144 138 Q158 107 190.5 83 Q223 59 274 59 Q329 59 361.5 84.5 Q394 110 414 156 L490 156 L490 109 Q482 92 465 64 Q448 36 429.5 4.5 Q411 -27 395.5 -56.5 Q380 -86 375 -105 L375 -136 Q380 -144 393.5 -149.5 Q407 -155 425 -155 Q439 -155 451.5 -153 Q464 -151 478 -145 L478 -201 Q464 -208 448 -212 Q432 -216 407 -216 Q373 -216 345 -203.5 Q317 -191 306 -168 L306 -98 Q311 -83 326 -57 Q341 -31 365 1 Q345 -6 322.5 -10 Q300 -14 274 -14 Q226 -14 188.5 -1 Q151 12 124 31.5 Q97 51 80 74.5 Q63 98 54 119 L54 420 Q63 441 80 464.5 Q97 488 124 507.5 Q151 527 188.5 539.5 Q226 552 274 552 Z M274 479 Q223 479 190.5 455 Q158 431 144 400 L144 322 L405 322 L405 400 Q392 431 359 455 Q326 479 274 479 Z " />
<glyph glyph-name="gcircumflex" unicode="&#x11d;" horiz-adv-x="548" d="M484 -55 Q475 -76 457 -98.5 Q439 -121 412 -139 Q385 -157 348 -168.5 Q311 -180 263 -180 Q215 -180 178 -168 Q141 -156 114.5 -139.5 Q88 -123 71 -104.5 Q54 -86 47 -73 L47 -25 L123 -25 Q143 -60 177 -83.5 Q211 -107 263 -107 Q316 -107 347.5 -87 Q379 -67 393 -36 L393 74 Q367 51 329.5 36 Q292 21 243 21 Q199 21 167 33 Q135 45 112 62 Q89 79 75 98.5 Q61 118 54 133 L54 439 Q61 454 75 473 Q89 492 112 509.5 Q135 527 167 538.5 Q199 550 243 550 Q294 550 332 534 Q370 518 396 495 L396 538 L484 538 L484 -55 Z M264 94 Q312 94 344 110 Q376 126 393 149 L393 424 Q375 446 342 461.5 Q309 477 264 477 Q238 477 218 471 Q198 465 183.5 456 Q169 447 159 437 Q149 427 144 418 L144 154 Q149 145 159 134.5 Q169 124 183.5 115 Q198 106 218 100 Q238 94 264 94 Z M422 607 L359 607 L274 716 L189 607 L126 607 L126 623 L215 763 L334 763 L422 623 L422 607 Z " />
<glyph glyph-name="gbreve" unicode="&#x11f;" horiz-adv-x="548" d="M484 -55 Q475 -76 457 -98.5 Q439 -121 412 -139 Q385 -157 348 -168.5 Q311 -180 263 -180 Q215 -180 178 -168 Q141 -156 114.5 -139.5 Q88 -123 71 -104.5 Q54 -86 47 -73 L47 -25 L123 -25 Q143 -60 177 -83.5 Q211 -107 263 -107 Q316 -107 347.5 -87 Q379 -67 393 -36 L393 74 Q367 51 329.5 36 Q292 21 243 21 Q199 21 167 33 Q135 45 112 62 Q89 79 75 98.5 Q61 118 54 133 L54 439 Q61 454 75 473 Q89 492 112 509.5 Q135 527 167 538.5 Q199 550 243 550 Q294 550 332 534 Q370 518 396 495 L396 538 L484 538 L484 -55 Z M264 94 Q312 94 344 110 Q376 126 393 149 L393 424 Q375 446 342 461.5 Q309 477 264 477 Q238 477 218 471 Q198 465 183.5 456 Q169 447 159 437 Q149 427 144 418 L144 154 Q149 145 159 134.5 Q169 124 183.5 115 Q198 106 218 100 Q238 94 264 94 Z M419 679 Q405 651 371 627 Q337 603 274 603 Q211 603 176.5 627 Q142 651 128 679 L128 735 L197 735 L197 698 Q199 693 204 686.5 Q209 680 218.5 673.5 Q228 667 241.5 662.5 Q255 658 274 658 Q292 658 305.5 662.5 Q319 667 328.5 673.5 Q338 680 343 686.5 Q348 693 350 698 L350 735 L419 735 L419 679 Z " />
<glyph glyph-name="gdotaccent" unicode="&#x121;" horiz-adv-x="548" d="M484 -55 Q475 -76 457 -98.5 Q439 -121 412 -139 Q385 -157 348 -168.5 Q311 -180 263 -180 Q215 -180 178 -168 Q141 -156 114.5 -139.5 Q88 -123 71 -104.5 Q54 -86 47 -73 L47 -25 L123 -25 Q143 -60 177 -83.5 Q211 -107 263 -107 Q316 -107 347.5 -87 Q379 -67 393 -36 L393 74 Q367 51 329.5 36 Q292 21 243 21 Q199 21 167 33 Q135 45 112 62 Q89 79 75 98.5 Q61 118 54 133 L54 439 Q61 454 75 473 Q89 492 112 509.5 Q135 527 167 538.5 Q199 550 243 550 Q294 550 332 534 Q370 518 396 495 L396 538 L484 538 L484 -55 Z M264 94 Q312 94 344 110 Q376 126 393 149 L393 424 Q375 446 342 461.5 Q309 477 264 477 Q238 477 218 471 Q198 465 183.5 456 Q169 447 159 437 Q149 427 144 418 L144 154 Q149 145 159 134.5 Q169 124 183.5 115 Q198 106 218 100 Q238 94 264 94 Z M274 727 Q297 727 309.5 718.5 Q322 710 327 701 L327 649 Q322 640 309.5 632 Q297 624 274 624 Q252 624 238.5 632 Q225 640 221 649 L221 701 Q225 710 238.5 718.5 Q252 727 274 727 Z " />
<glyph glyph-name="gcommaaccent" unicode="&#x123;" horiz-adv-x="548" d="M484 -55 Q475 -76 457 -98.5 Q439 -121 412 -139 Q385 -157 348 -168.5 Q311 -180 263 -180 Q215 -180 178 -168 Q141 -156 114.5 -139.5 Q88 -123 71 -104.5 Q54 -86 47 -73 L47 -25 L123 -25 Q143 -60 177 -83.5 Q211 -107 263 -107 Q316 -107 347.5 -87 Q379 -67 393 -36 L393 74 Q367 51 329.5 36 Q292 21 243 21 Q199 21 167 33 Q135 45 112 62 Q89 79 75 98.5 Q61 118 54 133 L54 439 Q61 454 75 473 Q89 492 112 509.5 Q135 527 167 538.5 Q199 550 243 550 Q294 550 332 534 Q370 518 396 495 L396 538 L484 538 L484 -55 Z M264 94 Q312 94 344 110 Q376 126 393 149 L393 424 Q375 446 342 461.5 Q309 477 264 477 Q238 477 218 471 Q198 465 183.5 456 Q169 447 159 437 Q149 427 144 418 L144 154 Q149 145 159 134.5 Q169 124 183.5 115 Q198 106 218 100 Q238 94 264 94 Z M274 691 Q295 691 308.5 682.5 Q322 674 326 666 L326 627 Q322 619 308.5 610.5 Q295 602 274 602 Q253 602 239 610.5 Q225 619 222 627 L222 728 Q225 739 243.5 753.5 Q262 768 292 768 L318 768 L318 730 L301 730 Q278 730 272 721 L272 691 L274 691 Z " />
<glyph glyph-name="hcircumflex" unicode="&#x125;" horiz-adv-x="556" d="M306 550 Q350 550 382.5 538.5 Q415 527 437.5 509.5 Q460 492 474 473 Q488 454 495 439 L495 0 L404 0 L404 418 Q399 427 389 437 Q379 447 364.5 456 Q350 465 330 471 Q310 477 285 477 Q237 477 204.5 461.5 Q172 446 155 424 L155 0 L64 0 L64 700 L155 700 L155 498 Q181 521 218.5 535.5 Q256 550 306 550 Z M433 746 L370 746 L285 852 L200 746 L137 746 L137 762 L226 899 L345 899 L433 762 L433 746 Z " />
<glyph glyph-name="hbar" unicode="&#x127;" horiz-adv-x="570" d="M354 648 L354 595 L170 595 L170 485 Q196 508 233 523 Q270 538 321 538 Q365 538 397 526.5 Q429 515 451.5 497.5 Q474 480 488 461 Q502 442 509 427 L509 0 L418 0 L418 405 Q413 414 403.5 424.5 Q394 435 379.5 444 Q365 453 345 459 Q325 465 299 465 Q252 465 219.5 449 Q187 433 170 411 L170 0 L79 0 L79 595 L31 595 L31 648 L79 648 L79 700 L170 700 L170 648 L354 648 Z " />
<glyph glyph-name="igrave" unicode="&#xec;" horiz-adv-x="228" d="M68 0 L68 538 L160 538 L160 0 L68 0 Z M152 609 L84 609 L3 722 L3 765 L87 765 L152 624 L152 609 Z " />
<glyph glyph-name="iacute" unicode="&#xed;" horiz-adv-x="228" d="M68 0 L68 538 L160 538 L160 0 L68 0 Z M144 609 L75 609 L75 624 L139 765 L224 765 L224 722 L144 609 Z " />
<glyph glyph-name="icircumflex" unicode="&#xee;" horiz-adv-x="228" d="M68 0 L68 538 L160 538 L160 0 L68 0 Z M262 607 L199 607 L114 716 L29 607 L-34 607 L-34 623 L55 763 L174 763 L262 623 L262 607 Z " />
<glyph glyph-name="itilde" unicode="&#x129;" horiz-adv-x="228" d="M68 0 L68 538 L160 538 L160 0 L68 0 Z M44 733 Q68 733 86 724.5 Q104 716 118.5 706.5 Q133 697 146.5 688.5 Q160 680 176 680 Q192 680 202.5 688.5 Q213 697 217 709 L217 728 L274 728 L274 684 Q266 658 244 638.5 Q222 619 184 619 Q159 619 141.5 627.5 Q124 636 109 646 Q94 656 81 664.5 Q68 673 52 673 Q33 673 24 663 Q15 653 11 645 L11 625 L-46 625 L-46 669 Q-37 698 -14 715.5 Q9 733 44 733 Z " />
<glyph glyph-name="idieresis" unicode="&#xef;" horiz-adv-x="228" d="M68 0 L68 538 L160 538 L160 0 L68 0 Z M12 727 Q34 727 46 719.5 Q58 712 62 707 L62 643 Q58 638 46 630.5 Q34 623 12 623 Q-10 623 -22 630.5 Q-34 638 -39 643 L-39 707 Q-34 712 -22 719.5 Q-10 727 12 727 Z M215 727 Q238 727 249.5 719.5 Q261 712 266 707 L266 643 Q261 638 249.5 630.5 Q238 623 215 623 Q194 623 181.5 630.5 Q169 638 165 643 L165 707 Q169 712 181.5 719.5 Q194 727 215 727 Z " />
<glyph glyph-name="imacron" unicode="&#x12b;" horiz-adv-x="228" d="M68 0 L68 538 L160 538 L160 0 L68 0 Z M-44 648 L-44 714 L271 714 L271 648 L-44 648 Z " />
<glyph glyph-name="ibreve" unicode="&#x12d;" horiz-adv-x="228" d="M68 0 L68 538 L160 538 L160 0 L68 0 Z M259 679 Q245 651 211 627 Q177 603 114 603 Q51 603 16.5 627 Q-18 651 -32 679 L-32 735 L37 735 L37 698 Q39 693 44 686.5 Q49 680 58.5 673.5 Q68 667 81.5 662.5 Q95 658 114 658 Q132 658 145.5 662.5 Q159 667 168.5 673.5 Q178 680 183 686.5 Q188 693 190 698 L190 735 L259 735 L259 679 Z " />
<glyph glyph-name="iogonek" unicode="&#x12f;" horiz-adv-x="228" d="M114 727 Q137 727 149.5 718.5 Q162 710 167 701 L167 652 Q162 643 149.5 635 Q137 627 114 627 Q92 627 78.5 635 Q65 643 61 652 L61 701 Q65 710 78.5 718.5 Q92 727 114 727 Z M58 -136 Q63 -144 77 -149.5 Q91 -155 108 -155 Q122 -155 134.5 -153 Q147 -151 161 -145 L161 -201 Q148 -208 132 -212 Q116 -216 90 -216 Q56 -216 28 -203.5 Q0 -191 -11 -168 L-11 -98 Q-3 -81 17.5 -55 Q38 -29 77 0 L68 0 L68 538 L160 538 L160 0 Q106 -42 84.5 -68 Q63 -94 58 -105 L58 -136 Z " />
<glyph glyph-name="dotlessi" unicode="&#x131;" horiz-adv-x="228" d="M68 0 L68 538 L160 538 L160 0 L68 0 Z " />
<glyph glyph-name="ij" unicode="&#x133;" horiz-adv-x="447" d="M68 0 L68 538 L160 538 L160 0 L68 0 Z M114 727 Q137 727 149.5 718.5 Q162 710 167 701 L167 649 Q162 640 149.5 632 Q137 624 114 624 Q92 624 78.5 632 Q65 640 61 649 L61 701 Q65 710 78.5 718.5 Q92 727 114 727 Z M383 -47 Q374 -68 356.5 -91.5 Q339 -115 312 -134.5 Q285 -154 247.5 -167 Q210 -180 162 -180 L162 -108 Q214 -108 246 -83 Q278 -58 291 -25 L291 538 L383 538 L383 -47 Z M338 727 Q361 727 373.5 718.5 Q386 710 391 701 L391 649 Q386 640 373.5 632 Q361 624 338 624 Q316 624 302.5 632 Q289 640 285 649 L285 701 Q289 710 302.5 718.5 Q316 727 338 727 Z " />
<glyph glyph-name="dotlessj" unicode="&#x237;" horiz-adv-x="219" d="M155 -47 Q146 -68 128.5 -91.5 Q111 -115 84 -134.5 Q57 -154 19.5 -167 Q-18 -180 -66 -180 L-66 -108 Q-14 -108 18 -83 Q50 -58 63 -25 L63 538 L155 538 L155 -47 Z " />
<glyph glyph-name="jcircumflex" unicode="&#x135;" horiz-adv-x="219" d="M155 -47 Q146 -68 128.5 -91.5 Q111 -115 84 -134.5 Q57 -154 19.5 -167 Q-18 -180 -66 -180 L-66 -108 Q-14 -108 18 -83 Q50 -58 63 -25 L63 538 L155 538 L155 -47 Z M258 607 L195 607 L110 716 L25 607 L-38 607 L-38 623 L51 763 L170 763 L258 623 L258 607 Z " />
<glyph glyph-name="kcommaaccent" unicode="&#x137;" horiz-adv-x="514" d="M495 0 L428 0 L241 258 L155 173 L155 0 L64 0 L64 700 L155 700 L155 278 L409 538 L467 538 L467 483 L301 318 L495 54 L495 0 Z M257 -61 Q277 -61 289.5 -66 Q302 -71 306 -76 L306 -170 Q302 -181 287 -195 Q272 -209 243 -209 L212 -209 L212 -176 L235 -176 Q243 -176 249.5 -173.5 Q256 -171 259 -166 L259 -138 L257 -138 Q237 -138 224 -133.5 Q211 -129 208 -124 L208 -76 Q211 -71 224 -66 Q237 -61 257 -61 Z " />
<glyph glyph-name="lacute" unicode="&#x13a;" horiz-adv-x="220" d="M64 0 L64 700 L156 700 L156 0 L64 0 Z M133 753 L66 753 L66 769 L130 906 L214 906 L214 863 L133 753 Z " />
<glyph glyph-name="lcaron" unicode="&#x13e;" horiz-adv-x="360" d="M64 0 L64 700 L156 700 L156 0 L64 0 Z M297 521 L238 521 L238 536 L257 700 L333 700 L333 651 L297 521 Z " />
<glyph glyph-name="lcommaaccent" unicode="&#x13c;" horiz-adv-x="220" d="M64 0 L64 700 L156 700 L156 0 L64 0 Z M109 -61 Q129 -61 141.5 -66 Q154 -71 158 -76 L158 -170 Q154 -181 139 -195 Q124 -209 95 -209 L64 -209 L64 -176 L87 -176 Q95 -176 101.5 -173.5 Q108 -171 111 -166 L111 -138 L109 -138 Q89 -138 76 -133.5 Q63 -129 60 -124 L60 -76 Q63 -71 76 -66 Q89 -61 109 -61 Z " />
<glyph glyph-name="lslash" unicode="&#x142;" horiz-adv-x="341" d="M215 367 L215 0 L125 0 L125 315 L30 260 L30 337 L125 392 L125 700 L215 700 L215 444 L311 499 L311 422 L215 367 Z " />
<glyph glyph-name="ldot" unicode="&#x140;" horiz-adv-x="388" d="M64 0 L64 700 L156 700 L156 0 L64 0 Z M303 415 Q326 415 338.5 406.5 Q351 398 356 389 L356 337 Q351 328 338.5 320 Q326 312 303 312 Q281 312 267.5 320 Q254 328 250 337 L250 389 Q254 398 267.5 406.5 Q281 415 303 415 Z " />
<glyph glyph-name="nacute" unicode="&#x144;" horiz-adv-x="555" d="M305 550 Q349 550 381.5 538.5 Q414 527 436.5 509.5 Q459 492 473 473 Q487 454 494 439 L494 0 L403 0 L403 418 Q398 427 388 437 Q378 447 363.5 456 Q349 465 329 471 Q309 477 284 477 Q238 477 205.5 462 Q173 447 155 425 L155 0 L64 0 L64 538 L150 538 L150 495 Q177 518 215.5 534 Q254 550 305 550 Z M307 609 L238 609 L238 624 L302 765 L387 765 L387 722 L307 609 Z " />
<glyph glyph-name="ncaron" unicode="&#x148;" horiz-adv-x="555" d="M305 550 Q349 550 381.5 538.5 Q414 527 436.5 509.5 Q459 492 473 473 Q487 454 494 439 L494 0 L403 0 L403 418 Q398 427 388 437 Q378 447 363.5 456 Q349 465 329 471 Q309 477 284 477 Q238 477 205.5 462 Q173 447 155 425 L155 0 L64 0 L64 538 L150 538 L150 495 Q177 518 215.5 534 Q254 550 305 550 Z M337 607 L218 607 L129 747 L129 763 L192 763 L277 654 L362 763 L425 763 L425 747 L337 607 Z " />
<glyph glyph-name="ntilde" unicode="&#xf1;" horiz-adv-x="555" d="M305 550 Q349 550 381.5 538.5 Q414 527 436.5 509.5 Q459 492 473 473 Q487 454 494 439 L494 0 L403 0 L403 418 Q398 427 388 437 Q378 447 363.5 456 Q349 465 329 471 Q309 477 284 477 Q238 477 205.5 462 Q173 447 155 425 L155 0 L64 0 L64 538 L150 538 L150 495 Q177 518 215.5 534 Q254 550 305 550 Z M207 733 Q231 733 249 724.5 Q267 716 281.5 706.5 Q296 697 309.5 688.5 Q323 680 339 680 Q355 680 365.5 688.5 Q376 697 380 709 L380 728 L437 728 L437 684 Q429 658 407 638.5 Q385 619 347 619 Q322 619 304.5 627.5 Q287 636 272 646 Q257 656 244 664.5 Q231 673 215 673 Q196 673 187 663 Q178 653 174 645 L174 625 L117 625 L117 669 Q126 698 149 715.5 Q172 733 207 733 Z " />
<glyph glyph-name="ncommaaccent" unicode="&#x146;" horiz-adv-x="555" d="M305 550 Q349 550 381.5 538.5 Q414 527 436.5 509.5 Q459 492 473 473 Q487 454 494 439 L494 0 L403 0 L403 418 Q398 427 388 437 Q378 447 363.5 456 Q349 465 329 471 Q309 477 284 477 Q238 477 205.5 462 Q173 447 155 425 L155 0 L64 0 L64 538 L150 538 L150 495 Q177 518 215.5 534 Q254 550 305 550 Z M277 -61 Q297 -61 309.5 -66 Q322 -71 326 -76 L326 -170 Q322 -181 307 -195 Q292 -209 263 -209 L232 -209 L232 -176 L255 -176 Q263 -176 269.5 -173.5 Q276 -171 279 -166 L279 -138 L277 -138 Q257 -138 244 -133.5 Q231 -129 228 -124 L228 -76 Q231 -71 244 -66 Q257 -61 277 -61 Z " />
<glyph glyph-name="napostrophe" unicode="&#x149;" horiz-adv-x="555" d="M305 550 Q349 550 381.5 538.5 Q414 527 436.5 509.5 Q459 492 473 473 Q487 454 494 439 L494 0 L403 0 L403 418 Q398 427 388 437 Q378 447 363.5 456 Q349 465 329 471 Q309 477 284 477 Q238 477 205.5 462 Q173 447 155 425 L155 0 L64 0 L64 538 L150 538 L150 495 Q177 518 215.5 534 Q254 550 305 550 Z M67 736 Q87 736 99.5 731 Q112 726 116 721 L116 627 Q112 616 97 602 Q82 588 53 588 L22 588 L22 621 L45 621 Q53 621 59.5 623.5 Q66 626 69 631 L69 659 L67 659 Q47 659 34 663.5 Q21 668 18 673 L18 721 Q21 726 34 731 Q47 736 67 736 Z " />
<glyph glyph-name="ograve" unicode="&#xf2;" horiz-adv-x="549" d="M275 552 Q323 552 360.5 539.5 Q398 527 425 507.5 Q452 488 469 464.5 Q486 441 495 420 L495 119 Q486 98 469 74.5 Q452 51 425 31.5 Q398 12 360.5 -1 Q323 -14 275 -14 Q227 -14 189.5 -1 Q152 12 125 31.5 Q98 51 80.5 74.5 Q63 98 54 119 L54 420 Q63 441 80.5 464.5 Q98 488 125 507.5 Q152 527 189.5 539.5 Q227 552 275 552 Z M274 479 Q223 479 190 455 Q157 431 144 401 L144 137 Q157 107 190 83 Q223 59 274 59 Q326 59 359 83 Q392 107 405 137 L405 401 Q392 431 359 455 Q326 479 274 479 Z M312 609 L244 609 L163 722 L163 765 L247 765 L312 624 L312 609 Z " />
<glyph glyph-name="oacute" unicode="&#xf3;" horiz-adv-x="549" d="M275 552 Q323 552 360.5 539.5 Q398 527 425 507.5 Q452 488 469 464.5 Q486 441 495 420 L495 119 Q486 98 469 74.5 Q452 51 425 31.5 Q398 12 360.5 -1 Q323 -14 275 -14 Q227 -14 189.5 -1 Q152 12 125 31.5 Q98 51 80.5 74.5 Q63 98 54 119 L54 420 Q63 441 80.5 464.5 Q98 488 125 507.5 Q152 527 189.5 539.5 Q227 552 275 552 Z M274 479 Q223 479 190 455 Q157 431 144 401 L144 137 Q157 107 190 83 Q223 59 274 59 Q326 59 359 83 Q392 107 405 137 L405 401 Q392 431 359 455 Q326 479 274 479 Z M304 609 L235 609 L235 624 L299 765 L384 765 L384 722 L304 609 Z " />
<glyph glyph-name="ocircumflex" unicode="&#xf4;" horiz-adv-x="549" d="M275 552 Q323 552 360.5 539.5 Q398 527 425 507.5 Q452 488 469 464.5 Q486 441 495 420 L495 119 Q486 98 469 74.5 Q452 51 425 31.5 Q398 12 360.5 -1 Q323 -14 275 -14 Q227 -14 189.5 -1 Q152 12 125 31.5 Q98 51 80.5 74.5 Q63 98 54 119 L54 420 Q63 441 80.5 464.5 Q98 488 125 507.5 Q152 527 189.5 539.5 Q227 552 275 552 Z M274 479 Q223 479 190 455 Q157 431 144 401 L144 137 Q157 107 190 83 Q223 59 274 59 Q326 59 359 83 Q392 107 405 137 L405 401 Q392 431 359 455 Q326 479 274 479 Z M422 607 L359 607 L274 716 L189 607 L126 607 L126 623 L215 763 L334 763 L422 623 L422 607 Z " />
<glyph glyph-name="otilde" unicode="&#xf5;" horiz-adv-x="549" d="M275 552 Q323 552 360.5 539.5 Q398 527 425 507.5 Q452 488 469 464.5 Q486 441 495 420 L495 119 Q486 98 469 74.5 Q452 51 425 31.5 Q398 12 360.5 -1 Q323 -14 275 -14 Q227 -14 189.5 -1 Q152 12 125 31.5 Q98 51 80.5 74.5 Q63 98 54 119 L54 420 Q63 441 80.5 464.5 Q98 488 125 507.5 Q152 527 189.5 539.5 Q227 552 275 552 Z M274 479 Q223 479 190 455 Q157 431 144 401 L144 137 Q157 107 190 83 Q223 59 274 59 Q326 59 359 83 Q392 107 405 137 L405 401 Q392 431 359 455 Q326 479 274 479 Z M204 733 Q228 733 246 724.5 Q264 716 278.5 706.5 Q293 697 306.5 688.5 Q320 680 336 680 Q352 680 362.5 688.5 Q373 697 377 709 L377 728 L434 728 L434 684 Q426 658 404 638.5 Q382 619 344 619 Q319 619 301.5 627.5 Q284 636 269 646 Q254 656 241 664.5 Q228 673 212 673 Q193 673 184 663 Q175 653 171 645 L171 625 L114 625 L114 669 Q123 698 146 715.5 Q169 733 204 733 Z " />
<glyph glyph-name="odieresis" unicode="&#xf6;" horiz-adv-x="549" d="M275 552 Q323 552 360.5 539.5 Q398 527 425 507.5 Q452 488 469 464.5 Q486 441 495 420 L495 119 Q486 98 469 74.5 Q452 51 425 31.5 Q398 12 360.5 -1 Q323 -14 275 -14 Q227 -14 189.5 -1 Q152 12 125 31.5 Q98 51 80.5 74.5 Q63 98 54 119 L54 420 Q63 441 80.5 464.5 Q98 488 125 507.5 Q152 527 189.5 539.5 Q227 552 275 552 Z M274 479 Q223 479 190 455 Q157 431 144 401 L144 137 Q157 107 190 83 Q223 59 274 59 Q326 59 359 83 Q392 107 405 137 L405 401 Q392 431 359 455 Q326 479 274 479 Z M172 727 Q194 727 206 719.5 Q218 712 222 707 L222 643 Q218 638 206 630.5 Q194 623 172 623 Q150 623 138 630.5 Q126 638 121 643 L121 707 Q126 712 138 719.5 Q150 727 172 727 Z M375 727 Q398 727 409.5 719.5 Q421 712 426 707 L426 643 Q421 638 409.5 630.5 Q398 623 375 623 Q354 623 341.5 630.5 Q329 638 325 643 L325 707 Q329 712 341.5 719.5 Q354 727 375 727 Z " />
<glyph glyph-name="omacron" unicode="&#x14d;" horiz-adv-x="549" d="M275 552 Q323 552 360.5 539.5 Q398 527 425 507.5 Q452 488 469 464.5 Q486 441 495 420 L495 119 Q486 98 469 74.5 Q452 51 425 31.5 Q398 12 360.5 -1 Q323 -14 275 -14 Q227 -14 189.5 -1 Q152 12 125 31.5 Q98 51 80.5 74.5 Q63 98 54 119 L54 420 Q63 441 80.5 464.5 Q98 488 125 507.5 Q152 527 189.5 539.5 Q227 552 275 552 Z M274 479 Q223 479 190 455 Q157 431 144 401 L144 137 Q157 107 190 83 Q223 59 274 59 Q326 59 359 83 Q392 107 405 137 L405 401 Q392 431 359 455 Q326 479 274 479 Z M116 648 L116 714 L431 714 L431 648 L116 648 Z " />
<glyph glyph-name="obreve" unicode="&#x14f;" horiz-adv-x="549" d="M275 552 Q323 552 360.5 539.5 Q398 527 425 507.5 Q452 488 469 464.5 Q486 441 495 420 L495 119 Q486 98 469 74.5 Q452 51 425 31.5 Q398 12 360.5 -1 Q323 -14 275 -14 Q227 -14 189.5 -1 Q152 12 125 31.5 Q98 51 80.5 74.5 Q63 98 54 119 L54 420 Q63 441 80.5 464.5 Q98 488 125 507.5 Q152 527 189.5 539.5 Q227 552 275 552 Z M274 479 Q223 479 190 455 Q157 431 144 401 L144 137 Q157 107 190 83 Q223 59 274 59 Q326 59 359 83 Q392 107 405 137 L405 401 Q392 431 359 455 Q326 479 274 479 Z M419 679 Q405 651 371 627 Q337 603 274 603 Q211 603 176.5 627 Q142 651 128 679 L128 735 L197 735 L197 698 Q199 693 204 686.5 Q209 680 218.5 673.5 Q228 667 241.5 662.5 Q255 658 274 658 Q292 658 305.5 662.5 Q319 667 328.5 673.5 Q338 680 343 686.5 Q348 693 350 698 L350 735 L419 735 L419 679 Z " />
<glyph glyph-name="ohungarumlaut" unicode="&#x151;" horiz-adv-x="549" d="M275 552 Q323 552 360.5 539.5 Q398 527 425 507.5 Q452 488 469 464.5 Q486 441 495 420 L495 119 Q486 98 469 74.5 Q452 51 425 31.5 Q398 12 360.5 -1 Q323 -14 275 -14 Q227 -14 189.5 -1 Q152 12 125 31.5 Q98 51 80.5 74.5 Q63 98 54 119 L54 420 Q63 441 80.5 464.5 Q98 488 125 507.5 Q152 527 189.5 539.5 Q227 552 275 552 Z M274 479 Q223 479 190 455 Q157 431 144 401 L144 137 Q157 107 190 83 Q223 59 274 59 Q326 59 359 83 Q392 107 405 137 L405 401 Q392 431 359 455 Q326 479 274 479 Z M210 602 L151 602 L151 618 L198 759 L270 759 L270 722 L210 602 Z M389 602 L330 602 L330 618 L376 759 L449 759 L449 722 L389 602 Z " />
<glyph glyph-name="oslash" unicode="&#xf8;" horiz-adv-x="548" d="M468 466 Q485 444 495 420 L495 119 Q486 98 469 74.5 Q452 51 425 31.5 Q398 12 360.5 -1 Q323 -14 275 -14 Q226 -14 188.5 -1 Q151 12 124 32 L99 0 L54 0 L54 38 L81 73 Q64 94 54 119 L54 420 Q63 441 80.5 464.5 Q98 488 125 507.5 Q152 527 189.5 539.5 Q227 552 275 552 Q324 552 361 539.5 Q398 527 425 507 L450 538 L495 538 L495 500 L468 466 Z M375 443 Q357 459 331.5 469 Q306 479 274 479 Q223 479 190 455.5 Q157 432 144 401 L144 152 L375 443 Z M174 95 Q191 79 216.5 69 Q242 59 274 59 Q326 59 359 82.5 Q392 106 405 137 L405 386 L174 95 Z " />
<glyph glyph-name="oe" unicode="&#x153;" horiz-adv-x="890" d="M495 138 Q509 107 541.5 83 Q574 59 625 59 Q680 59 713 84.5 Q746 110 765 156 L841 156 L841 109 Q833 92 816.5 70.5 Q800 49 774 30 Q748 11 711 -1.5 Q674 -14 625 -14 Q564 -14 521 5.5 Q478 25 450 53 Q422 25 379 5.5 Q336 -14 275 -14 Q227 -14 189.5 -1 Q152 12 125 31.5 Q98 51 80.5 74.5 Q63 98 54 119 L54 420 Q63 441 80.5 464.5 Q98 488 125 507.5 Q152 527 189.5 539.5 Q227 552 275 552 Q336 552 379 532.5 Q422 513 450 486 Q478 513 521 532.5 Q564 552 625 552 Q674 552 711 539.5 Q748 527 774 508 Q800 489 816.5 468 Q833 447 841 429 L841 253 L495 253 L495 138 Z M274 59 Q326 59 359 83 Q392 107 405 137 L405 401 Q392 431 359 455 Q326 479 274 479 Q223 479 190 455 Q157 431 144 401 L144 137 Q157 107 190 83 Q223 59 274 59 Z M625 479 Q574 479 541.5 455 Q509 431 495 400 L495 322 L756 322 L756 400 Q743 431 710 455 Q677 479 625 479 Z " />
<glyph glyph-name="racute" unicode="&#x155;" horiz-adv-x="355" d="M311 539 Q314 539 319 539 Q324 539 332 538 L332 455 Q323 456 317 456 Q311 456 308 456 Q251 456 213 438.5 Q175 421 155 398 L155 0 L63 0 L63 538 L150 538 L150 468 Q172 497 211 518 Q250 539 311 539 Z M230 609 L161 609 L161 624 L225 765 L310 765 L310 722 L230 609 Z " />
<glyph glyph-name="rcaron" unicode="&#x159;" horiz-adv-x="355" d="M311 539 Q314 539 319 539 Q324 539 332 538 L332 455 Q323 456 317 456 Q311 456 308 456 Q251 456 213 438.5 Q175 421 155 398 L155 0 L63 0 L63 538 L150 538 L150 468 Q172 497 211 518 Q250 539 311 539 Z M260 607 L141 607 L52 747 L52 763 L115 763 L200 654 L285 763 L348 763 L348 747 L260 607 Z " />
<glyph glyph-name="rcommaaccent" unicode="&#x157;" horiz-adv-x="355" d="M311 539 Q314 539 319 539 Q324 539 332 538 L332 455 Q323 456 317 456 Q311 456 308 456 Q251 456 213 438.5 Q175 421 155 398 L155 0 L63 0 L63 538 L150 538 L150 468 Q172 497 211 518 Q250 539 311 539 Z M108 -61 Q128 -61 140.5 -66 Q153 -71 157 -76 L157 -170 Q153 -181 138 -195 Q123 -209 94 -209 L63 -209 L63 -176 L86 -176 Q94 -176 100.5 -173.5 Q107 -171 110 -166 L110 -138 L108 -138 Q88 -138 75 -133.5 Q62 -129 59 -124 L59 -76 Q62 -71 75 -66 Q88 -61 108 -61 Z " />
<glyph glyph-name="sacute" unicode="&#x15b;" horiz-adv-x="487" d="M243 552 Q284 552 316.5 543 Q349 534 373 520.5 Q397 507 412.5 492 Q428 477 436 466 L436 419 L360 419 Q347 445 318.5 462.5 Q290 480 243 480 Q201 480 174.5 465.5 Q148 451 137 438 L137 365 Q157 333 229 317 L284 304 Q356 287 394.5 263.5 Q433 240 446 217 L446 84 Q438 72 422.5 55.5 Q407 39 382.5 23.5 Q358 8 323.5 -3 Q289 -14 243 -14 Q198 -14 163.5 -3 Q129 8 104.5 23.5 Q80 39 64.5 56 Q49 73 41 84 L41 132 L117 132 Q155 58 243 58 Q290 58 319 76 Q348 94 360 113 L360 181 Q349 199 326 211 Q303 223 267 231 L210 244 Q173 252 146 262.5 Q119 273 100.5 284.5 Q82 296 70 307.5 Q58 319 51 330 L51 466 Q58 476 73 490.5 Q88 505 111.5 518.5 Q135 532 167.5 542 Q200 552 243 552 Z M281 609 L212 609 L212 624 L276 765 L361 765 L361 722 L281 609 Z " />
<glyph glyph-name="scircumflex" unicode="&#x15d;" horiz-adv-x="487" d="M243 552 Q284 552 316.5 543 Q349 534 373 520.5 Q397 507 412.5 492 Q428 477 436 466 L436 419 L360 419 Q347 445 318.5 462.5 Q290 480 243 480 Q201 480 174.5 465.5 Q148 451 137 438 L137 365 Q157 333 229 317 L284 304 Q356 287 394.5 263.5 Q433 240 446 217 L446 84 Q438 72 422.5 55.5 Q407 39 382.5 23.5 Q358 8 323.5 -3 Q289 -14 243 -14 Q198 -14 163.5 -3 Q129 8 104.5 23.5 Q80 39 64.5 56 Q49 73 41 84 L41 132 L117 132 Q155 58 243 58 Q290 58 319 76 Q348 94 360 113 L360 181 Q349 199 326 211 Q303 223 267 231 L210 244 Q173 252 146 262.5 Q119 273 100.5 284.5 Q82 296 70 307.5 Q58 319 51 330 L51 466 Q58 476 73 490.5 Q88 505 111.5 518.5 Q135 532 167.5 542 Q200 552 243 552 Z M399 607 L336 607 L251 716 L166 607 L103 607 L103 623 L192 763 L311 763 L399 623 L399 607 Z " />
<glyph glyph-name="scaron" unicode="&#x161;" horiz-adv-x="487" d="M243 552 Q284 552 316.5 543 Q349 534 373 520.5 Q397 507 412.5 492 Q428 477 436 466 L436 419 L360 419 Q347 445 318.5 462.5 Q290 480 243 480 Q201 480 174.5 465.5 Q148 451 137 438 L137 365 Q157 333 229 317 L284 304 Q356 287 394.5 263.5 Q433 240 446 217 L446 84 Q438 72 422.5 55.5 Q407 39 382.5 23.5 Q358 8 323.5 -3 Q289 -14 243 -14 Q198 -14 163.5 -3 Q129 8 104.5 23.5 Q80 39 64.5 56 Q49 73 41 84 L41 132 L117 132 Q155 58 243 58 Q290 58 319 76 Q348 94 360 113 L360 181 Q349 199 326 211 Q303 223 267 231 L210 244 Q173 252 146 262.5 Q119 273 100.5 284.5 Q82 296 70 307.5 Q58 319 51 330 L51 466 Q58 476 73 490.5 Q88 505 111.5 518.5 Q135 532 167.5 542 Q200 552 243 552 Z M311 607 L192 607 L103 747 L103 763 L166 763 L251 654 L336 763 L399 763 L399 747 L311 607 Z " />
<glyph glyph-name="scedilla" unicode="&#x15f;" horiz-adv-x="487" d="M284 304 Q356 287 394.5 263.5 Q433 240 446 217 L446 84 Q439 73 425 58 Q411 43 389.5 28 Q368 13 338.5 1.5 Q309 -10 270 -13 L254 -52 L265 -52 Q300 -52 320.5 -66.5 Q341 -81 349 -98 L349 -169 Q339 -191 312.5 -206 Q286 -221 248 -221 Q217 -221 191 -214.5 Q165 -208 150 -198 L167 -152 Q183 -160 201.5 -165.5 Q220 -171 242 -171 Q263 -171 274 -163.5 Q285 -156 289 -147 L289 -117 Q285 -109 273.5 -102.5 Q262 -96 242 -96 L182 -96 L211 -12 Q173 -8 144.5 3.5 Q116 15 95.5 29.5 Q75 44 61.5 59 Q48 74 41 84 L41 132 L117 132 Q155 58 243 58 Q290 58 319 76 Q348 94 360 113 L360 181 Q349 199 326 211 Q303 223 267 231 L210 244 Q173 252 146 262.5 Q119 273 100.5 284.5 Q82 296 70 307.5 Q58 319 51 330 L51 466 Q58 476 73 490.5 Q88 505 111.5 518.5 Q135 532 167.5 542 Q200 552 243 552 Q284 552 316.5 543 Q349 534 373 520.5 Q397 507 412.5 492 Q428 477 436 466 L436 419 L360 419 Q347 445 318.5 462.5 Q290 480 243 480 Q201 480 174.5 465.5 Q148 451 137 438 L137 365 Q157 333 229 317 L284 304 Z " />
<glyph glyph-name="scommaaccent" unicode="&#x219;" horiz-adv-x="487" d="M243 552 Q284 552 316.5 543 Q349 534 373 520.5 Q397 507 412.5 492 Q428 477 436 466 L436 419 L360 419 Q347 445 318.5 462.5 Q290 480 243 480 Q201 480 174.5 465.5 Q148 451 137 438 L137 365 Q157 333 229 317 L284 304 Q356 287 394.5 263.5 Q433 240 446 217 L446 84 Q438 72 422.5 55.5 Q407 39 382.5 23.5 Q358 8 323.5 -3 Q289 -14 243 -14 Q198 -14 163.5 -3 Q129 8 104.5 23.5 Q80 39 64.5 56 Q49 73 41 84 L41 132 L117 132 Q155 58 243 58 Q290 58 319 76 Q348 94 360 113 L360 181 Q349 199 326 211 Q303 223 267 231 L210 244 Q173 252 146 262.5 Q119 273 100.5 284.5 Q82 296 70 307.5 Q58 319 51 330 L51 466 Q58 476 73 490.5 Q88 505 111.5 518.5 Q135 532 167.5 542 Q200 552 243 552 Z M249 -61 Q269 -61 281.5 -66 Q294 -71 298 -76 L298 -170 Q294 -181 279 -195 Q264 -209 235 -209 L204 -209 L204 -176 L227 -176 Q235 -176 241.5 -173.5 Q248 -171 251 -166 L251 -138 L249 -138 Q229 -138 216 -133.5 Q203 -129 200 -124 L200 -76 Q203 -71 216 -66 Q229 -61 249 -61 Z " />
<glyph glyph-name="germandbls" unicode="&#xdf;" horiz-adv-x="554" d="M277 714 Q322 714 357 703 Q392 692 418 676 Q444 660 461 641 Q478 622 487 606 L487 438 Q473 418 450.5 399 Q428 380 402 370 Q445 352 470 324 Q495 296 506 267 L506 119 Q478 56 423 28 Q368 0 273 0 L273 73 Q296 73 317 74.5 Q338 76 356 83 Q374 90 389 104 Q404 118 415 143 L415 251 Q397 294 360 312 Q323 330 285 330 L285 401 Q323 401 354.5 416.5 Q386 432 402 458 L402 576 Q386 604 354 623 Q322 642 277 642 Q229 642 199 621.5 Q169 601 155 576 L155 0 L64 0 L64 596 Q74 616 92.5 637 Q111 658 137 675 Q163 692 198 703 Q233 714 277 714 Z " />
<glyph glyph-name="tcaron" unicode="&#x165;" horiz-adv-x="393" d="M320 612 L261 612 L261 627 L280 791 L356 791 L356 742 L320 612 Z M288 62 Q303 62 315.5 63 Q328 64 335 65 L335 -1 Q325 -4 305.5 -7 Q286 -10 257 -10 Q215 -10 186 -1 Q157 8 137.5 22 Q118 36 107 52 Q96 68 90 82 L90 469 L22 469 L22 538 L90 538 L90 653 L181 653 L181 538 L315 538 L315 469 L181 469 L181 113 Q184 107 191 98 Q198 89 210 81 Q222 73 241 67.5 Q260 62 288 62 Z " />
<glyph glyph-name="uni021B" unicode="&#x21b;" horiz-adv-x="352" d="M288 62 Q303 62 315.5 63 Q328 64 335 65 L335 -1 Q325 -4 305.5 -7 Q286 -10 257 -10 Q215 -10 186 -1 Q157 8 137.5 22 Q118 36 107 52 Q96 68 90 82 L90 469 L22 469 L22 538 L90 538 L90 653 L181 653 L181 538 L315 538 L315 469 L181 469 L181 113 Q184 107 191 98 Q198 89 210 81 Q222 73 241 67.5 Q260 62 288 62 Z M216 -61 Q236 -61 248.5 -66 Q261 -71 265 -76 L265 -170 Q261 -181 246 -195 Q231 -209 202 -209 L171 -209 L171 -176 L194 -176 Q202 -176 208.5 -173.5 Q215 -171 218 -166 L218 -138 L216 -138 Q196 -138 183 -133.5 Q170 -129 167 -124 L167 -76 Q170 -71 183 -66 Q196 -61 216 -61 Z " />
<glyph glyph-name="tbar" unicode="&#x167;" horiz-adv-x="352" d="M288 62 Q303 62 315.5 63 Q328 64 335 65 L335 -1 Q326 -3 306 -6.5 Q286 -10 257 -10 Q215 -10 186 -1 Q157 8 137.5 22 Q118 36 107 52 Q96 68 90 82 L90 252 L22 252 L22 321 L90 321 L90 469 L22 469 L22 538 L90 538 L90 653 L181 653 L181 538 L315 538 L315 469 L181 469 L181 321 L315 321 L315 252 L181 252 L181 113 Q184 107 191 98 Q198 89 210 81 Q222 73 241 67.5 Q260 62 288 62 Z " />
<glyph glyph-name="ugrave" unicode="&#xf9;" horiz-adv-x="547" d="M483 0 L398 0 L398 43 Q373 20 336 4 Q299 -12 246 -12 Q202 -12 170.5 0 Q139 12 116.5 29 Q94 46 80.5 64.5 Q67 83 60 97 L60 538 L151 538 L151 120 Q156 112 165 102 Q174 92 188 83 Q202 74 221.5 67.5 Q241 61 267 61 Q315 61 345 77 Q375 93 392 113 L392 538 L483 538 L483 0 Z M312 609 L244 609 L163 722 L163 765 L247 765 L312 624 L312 609 Z " />
<glyph glyph-name="uacute" unicode="&#xfa;" horiz-adv-x="547" d="M483 0 L398 0 L398 43 Q373 20 336 4 Q299 -12 246 -12 Q202 -12 170.5 0 Q139 12 116.5 29 Q94 46 80.5 64.5 Q67 83 60 97 L60 538 L151 538 L151 120 Q156 112 165 102 Q174 92 188 83 Q202 74 221.5 67.5 Q241 61 267 61 Q315 61 345 77 Q375 93 392 113 L392 538 L483 538 L483 0 Z M304 609 L235 609 L235 624 L299 765 L384 765 L384 722 L304 609 Z " />
<glyph glyph-name="ucircumflex" unicode="&#xfb;" horiz-adv-x="547" d="M483 0 L398 0 L398 43 Q373 20 336 4 Q299 -12 246 -12 Q202 -12 170.5 0 Q139 12 116.5 29 Q94 46 80.5 64.5 Q67 83 60 97 L60 538 L151 538 L151 120 Q156 112 165 102 Q174 92 188 83 Q202 74 221.5 67.5 Q241 61 267 61 Q315 61 345 77 Q375 93 392 113 L392 538 L483 538 L483 0 Z M422 607 L359 607 L274 716 L189 607 L126 607 L126 623 L215 763 L334 763 L422 623 L422 607 Z " />
<glyph glyph-name="utilde" unicode="&#x169;" horiz-adv-x="547" d="M483 0 L398 0 L398 43 Q373 20 336 4 Q299 -12 246 -12 Q202 -12 170.5 0 Q139 12 116.5 29 Q94 46 80.5 64.5 Q67 83 60 97 L60 538 L151 538 L151 120 Q156 112 165 102 Q174 92 188 83 Q202 74 221.5 67.5 Q241 61 267 61 Q315 61 345 77 Q375 93 392 113 L392 538 L483 538 L483 0 Z M204 733 Q228 733 246 724.5 Q264 716 278.5 706.5 Q293 697 306.5 688.5 Q320 680 336 680 Q352 680 362.5 688.5 Q373 697 377 709 L377 728 L434 728 L434 684 Q426 658 404 638.5 Q382 619 344 619 Q319 619 301.5 627.5 Q284 636 269 646 Q254 656 241 664.5 Q228 673 212 673 Q193 673 184 663 Q175 653 171 645 L171 625 L114 625 L114 669 Q123 698 146 715.5 Q169 733 204 733 Z " />
<glyph glyph-name="udieresis" unicode="&#xfc;" horiz-adv-x="547" d="M483 0 L398 0 L398 43 Q373 20 336 4 Q299 -12 246 -12 Q202 -12 170.5 0 Q139 12 116.5 29 Q94 46 80.5 64.5 Q67 83 60 97 L60 538 L151 538 L151 120 Q156 112 165 102 Q174 92 188 83 Q202 74 221.5 67.5 Q241 61 267 61 Q315 61 345 77 Q375 93 392 113 L392 538 L483 538 L483 0 Z M172 727 Q194 727 206 719.5 Q218 712 222 707 L222 643 Q218 638 206 630.5 Q194 623 172 623 Q150 623 138 630.5 Q126 638 121 643 L121 707 Q126 712 138 719.5 Q150 727 172 727 Z M375 727 Q398 727 409.5 719.5 Q421 712 426 707 L426 643 Q421 638 409.5 630.5 Q398 623 375 623 Q354 623 341.5 630.5 Q329 638 325 643 L325 707 Q329 712 341.5 719.5 Q354 727 375 727 Z " />
<glyph glyph-name="umacron" unicode="&#x16b;" horiz-adv-x="547" d="M483 0 L398 0 L398 43 Q373 20 336 4 Q299 -12 246 -12 Q202 -12 170.5 0 Q139 12 116.5 29 Q94 46 80.5 64.5 Q67 83 60 97 L60 538 L151 538 L151 120 Q156 112 165 102 Q174 92 188 83 Q202 74 221.5 67.5 Q241 61 267 61 Q315 61 345 77 Q375 93 392 113 L392 538 L483 538 L483 0 Z M116 648 L116 714 L431 714 L431 648 L116 648 Z " />
<glyph glyph-name="ubreve" unicode="&#x16d;" horiz-adv-x="547" d="M483 0 L398 0 L398 43 Q373 20 336 4 Q299 -12 246 -12 Q202 -12 170.5 0 Q139 12 116.5 29 Q94 46 80.5 64.5 Q67 83 60 97 L60 538 L151 538 L151 120 Q156 112 165 102 Q174 92 188 83 Q202 74 221.5 67.5 Q241 61 267 61 Q315 61 345 77 Q375 93 392 113 L392 538 L483 538 L483 0 Z M419 679 Q405 651 371 627 Q337 603 274 603 Q211 603 176.5 627 Q142 651 128 679 L128 735 L197 735 L197 698 Q199 693 204 686.5 Q209 680 218.5 673.5 Q228 667 241.5 662.5 Q255 658 274 658 Q292 658 305.5 662.5 Q319 667 328.5 673.5 Q338 680 343 686.5 Q348 693 350 698 L350 735 L419 735 L419 679 Z " />
<glyph glyph-name="uring" unicode="&#x16f;" horiz-adv-x="547" d="M483 0 L398 0 L398 43 Q373 20 336 4 Q299 -12 246 -12 Q202 -12 170.5 0 Q139 12 116.5 29 Q94 46 80.5 64.5 Q67 83 60 97 L60 538 L151 538 L151 120 Q156 112 165 102 Q174 92 188 83 Q202 74 221.5 67.5 Q241 61 267 61 Q315 61 345 77 Q375 93 392 113 L392 538 L483 538 L483 0 Z M273 795 Q312 795 340.5 779.5 Q369 764 380 741 L380 652 Q369 629 340.5 613.5 Q312 598 273 598 Q234 598 205.5 613.5 Q177 629 165 652 L165 741 Q177 764 205.5 779.5 Q234 795 273 795 Z M273 750 Q248 750 234.5 741.5 Q221 733 215 725 L215 668 Q221 660 234.5 651.5 Q248 643 273 643 Q298 643 311.5 651.5 Q325 660 330 668 L330 725 Q325 733 311.5 741.5 Q298 750 273 750 Z " />
<glyph glyph-name="uhungarumlaut" unicode="&#x171;" horiz-adv-x="547" d="M483 0 L398 0 L398 43 Q373 20 336 4 Q299 -12 246 -12 Q202 -12 170.5 0 Q139 12 116.5 29 Q94 46 80.5 64.5 Q67 83 60 97 L60 538 L151 538 L151 120 Q156 112 165 102 Q174 92 188 83 Q202 74 221.5 67.5 Q241 61 267 61 Q315 61 345 77 Q375 93 392 113 L392 538 L483 538 L483 0 Z M210 602 L151 602 L151 618 L198 759 L270 759 L270 722 L210 602 Z M389 602 L330 602 L330 618 L376 759 L449 759 L449 722 L389 602 Z " />
<glyph glyph-name="uogonek" unicode="&#x173;" horiz-adv-x="547" d="M483 0 Q433 -38 409.5 -66 Q386 -94 381 -105 L381 -136 Q386 -144 399.5 -149.5 Q413 -155 430 -155 Q444 -155 456.5 -153 Q469 -151 483 -145 L483 -201 Q470 -208 454 -212 Q438 -216 413 -216 Q378 -216 350 -203.5 Q322 -191 311 -168 L311 -98 Q319 -81 339.5 -54.5 Q360 -28 398 1 L398 43 Q373 20 336 4 Q299 -12 246 -12 Q202 -12 170.5 0 Q139 12 116.5 29 Q94 46 80.5 64.5 Q67 83 60 97 L60 538 L151 538 L151 120 Q156 112 165 102 Q174 92 188 83 Q202 74 221.5 67.5 Q241 61 267 61 Q315 61 345 77 Q375 93 392 113 L392 538 L483 538 L483 0 Z " />
<glyph glyph-name="wgrave" unicode="&#x1e81;" horiz-adv-x="777" d="M617 0 L507 0 L393 410 L390 410 L275 0 L165 0 L38 483 L38 538 L116 538 L224 96 L227 96 L349 538 L439 538 L559 96 L562 96 L669 538 L743 538 L743 483 L617 0 Z M426 609 L358 609 L277 722 L277 765 L361 765 L426 624 L426 609 Z " />
<glyph glyph-name="wacute" unicode="&#x1e83;" horiz-adv-x="777" d="M617 0 L507 0 L393 410 L390 410 L275 0 L165 0 L38 483 L38 538 L116 538 L224 96 L227 96 L349 538 L439 538 L559 96 L562 96 L669 538 L743 538 L743 483 L617 0 Z M418 609 L349 609 L349 624 L413 765 L498 765 L498 722 L418 609 Z " />
<glyph glyph-name="wcircumflex" unicode="&#x175;" horiz-adv-x="777" d="M617 0 L507 0 L393 410 L390 410 L275 0 L165 0 L38 483 L38 538 L116 538 L224 96 L227 96 L349 538 L439 538 L559 96 L562 96 L669 538 L743 538 L743 483 L617 0 Z M537 607 L474 607 L389 716 L304 607 L241 607 L241 623 L330 763 L449 763 L537 623 L537 607 Z " />
<glyph glyph-name="wdieresis" unicode="&#x1e85;" horiz-adv-x="777" d="M617 0 L507 0 L393 410 L390 410 L275 0 L165 0 L38 483 L38 538 L116 538 L224 96 L227 96 L349 538 L439 538 L559 96 L562 96 L669 538 L743 538 L743 483 L617 0 Z M286 727 Q308 727 320 719.5 Q332 712 336 707 L336 643 Q332 638 320 630.5 Q308 623 286 623 Q264 623 252 630.5 Q240 638 235 643 L235 707 Q240 712 252 719.5 Q264 727 286 727 Z M489 727 Q512 727 523.5 719.5 Q535 712 540 707 L540 643 Q535 638 523.5 630.5 Q512 623 489 623 Q468 623 455.5 630.5 Q443 638 439 643 L439 707 Q443 712 455.5 719.5 Q468 727 489 727 Z " />
<glyph glyph-name="ygrave" unicode="&#x1ef3;" horiz-adv-x="507" d="M263 110 L401 538 L474 538 L474 484 L276 -97 Q249 -135 204 -154 Q159 -173 105 -173 Q82 -173 65 -170.5 Q48 -168 40 -166 L40 -100 Q49 -101 58.5 -101.5 Q68 -102 79 -102 Q129 -102 157.5 -88.5 Q186 -75 201 -56 L216 -4 L37 482 L37 538 L115 538 L260 110 L263 110 Z M291 609 L223 609 L142 722 L142 765 L226 765 L291 624 L291 609 Z " />
<glyph glyph-name="yacute" unicode="&#xfd;" horiz-adv-x="507" d="M263 110 L401 538 L474 538 L474 484 L276 -97 Q249 -135 204 -154 Q159 -173 105 -173 Q82 -173 65 -170.5 Q48 -168 40 -166 L40 -100 Q49 -101 58.5 -101.5 Q68 -102 79 -102 Q129 -102 157.5 -88.5 Q186 -75 201 -56 L216 -4 L37 482 L37 538 L115 538 L260 110 L263 110 Z M283 609 L214 609 L214 624 L278 765 L363 765 L363 722 L283 609 Z " />
<glyph glyph-name="ycircumflex" unicode="&#x177;" horiz-adv-x="507" d="M263 110 L401 538 L474 538 L474 484 L276 -97 Q249 -135 204 -154 Q159 -173 105 -173 Q82 -173 65 -170.5 Q48 -168 40 -166 L40 -100 Q49 -101 58.5 -101.5 Q68 -102 79 -102 Q129 -102 157.5 -88.5 Q186 -75 201 -56 L216 -4 L37 482 L37 538 L115 538 L260 110 L263 110 Z M402 607 L339 607 L254 716 L169 607 L106 607 L106 623 L195 763 L314 763 L402 623 L402 607 Z " />
<glyph glyph-name="ydieresis" unicode="&#xff;" horiz-adv-x="507" d="M263 110 L401 538 L474 538 L474 484 L276 -97 Q249 -135 204 -154 Q159 -173 105 -173 Q82 -173 65 -170.5 Q48 -168 40 -166 L40 -100 Q49 -101 58.5 -101.5 Q68 -102 79 -102 Q129 -102 157.5 -88.5 Q186 -75 201 -56 L216 -4 L37 482 L37 538 L115 538 L260 110 L263 110 Z M152 727 Q174 727 186 719.5 Q198 712 202 707 L202 643 Q198 638 186 630.5 Q174 623 152 623 Q130 623 118 630.5 Q106 638 101 643 L101 707 Q106 712 118 719.5 Q130 727 152 727 Z M355 727 Q378 727 389.5 719.5 Q401 712 406 707 L406 643 Q401 638 389.5 630.5 Q378 623 355 623 Q334 623 321.5 630.5 Q309 638 305 643 L305 707 Q309 712 321.5 719.5 Q334 727 355 727 Z " />
<glyph glyph-name="zacute" unicode="&#x17a;" horiz-adv-x="472" d="M134 69 L441 69 L441 0 L31 0 L31 64 L333 469 L39 469 L39 538 L441 538 L441 478 L134 69 Z M263 609 L194 609 L194 624 L258 765 L343 765 L343 722 L263 609 Z " />
<glyph glyph-name="zcaron" unicode="&#x17e;" horiz-adv-x="472" d="M134 69 L441 69 L441 0 L31 0 L31 64 L333 469 L39 469 L39 538 L441 538 L441 478 L134 69 Z M293 607 L174 607 L85 747 L85 763 L148 763 L233 654 L318 763 L381 763 L381 747 L293 607 Z " />
<glyph glyph-name="zdotaccent" unicode="&#x17c;" horiz-adv-x="472" d="M134 69 L441 69 L441 0 L31 0 L31 64 L333 469 L39 469 L39 538 L441 538 L441 478 L134 69 Z M233 727 Q256 727 268.5 718.5 Q281 710 286 701 L286 649 Q281 640 268.5 632 Q256 624 233 624 Q211 624 197.5 632 Q184 640 180 649 L180 701 Q184 710 197.5 718.5 Q211 727 233 727 Z " />
<glyph glyph-name="eng" unicode="&#x14b;" horiz-adv-x="556" d="M307 550 Q351 550 383 538.5 Q415 527 437.5 509.5 Q460 492 474 473 Q488 454 495 439 L495 -42 Q486 -63 469 -86.5 Q452 -110 425 -129.5 Q398 -149 360.5 -162 Q323 -175 275 -175 L275 -102 Q326 -102 358.5 -77.5 Q391 -53 404 -20 L404 418 Q399 427 389.5 437 Q380 447 365.5 456 Q351 465 331 471 Q311 477 285 477 Q238 477 205.5 461 Q173 445 156 423 L156 0 L64 0 L64 538 L150 538 L150 492 Q176 517 214.5 533.5 Q253 550 307 550 Z " />
<glyph glyph-name="eth" unicode="&#xf0;" horiz-adv-x="548" d="M438 596 Q458 577 473 556.5 Q488 536 496 515 L496 119 Q487 98 470 74.5 Q453 51 426 31.5 Q399 12 361.5 -1 Q324 -14 276 -14 Q228 -14 190.5 -1 Q153 12 126 31.5 Q99 51 81.5 74.5 Q64 98 55 119 L55 356 Q62 378 78.5 401 Q95 424 120.5 443 Q146 462 181 474 Q216 486 260 486 Q314 486 347.5 471.5 Q381 457 406 438 L406 495 Q397 515 382.5 532.5 Q368 550 349 567 L182 513 L182 572 L293 608 Q257 630 218 647.5 Q179 665 143 677 L194 732 Q243 717 293 693 Q343 669 386 638 L496 674 L496 615 L438 596 Z M406 356 Q389 376 357 394 Q325 412 277 412 Q226 412 192 389.5 Q158 367 145 336 L145 137 Q158 107 191 83 Q224 59 275 59 Q327 59 360 83 Q393 107 406 137 L406 356 Z " />
<glyph glyph-name="thorn" unicode="&#xfe;" horiz-adv-x="547" d="M306 550 Q350 550 382.5 538.5 Q415 527 437.5 509.5 Q460 492 474 473 Q488 454 495 439 L495 99 Q488 84 474 65 Q460 46 437.5 29 Q415 12 382.5 0 Q350 -12 306 -12 Q253 -12 216.5 3 Q180 18 155 41 L155 -166 L64 -166 L64 700 L155 700 L155 497 Q180 520 216.5 535 Q253 550 306 550 Z M403 418 Q398 427 388.5 437 Q379 447 364.5 456 Q350 465 330 471 Q310 477 284 477 Q238 477 205.5 461.5 Q173 446 155 424 L155 115 Q173 93 205.5 77 Q238 61 284 61 Q310 61 330 67 Q350 73 364.5 82 Q379 91 388.5 101.5 Q398 112 403 121 L403 418 Z " />
<glyph glyph-name="longs" unicode="&#x17f;" horiz-adv-x="326" d="M231 714 Q258 714 279 710.5 Q300 707 308 705 L308 639 Q302 641 289.5 642 Q277 643 262 643 Q234 643 215 637.5 Q196 632 184 623.5 Q172 615 165 606 Q158 597 155 591 L155 0 L63 0 L63 622 Q69 636 80 652 Q91 668 110.5 682 Q130 696 159.5 705 Q189 714 231 714 Z " />
<glyph glyph-name="fi" unicode="&#xfb01;" horiz-adv-x="568" d="M257 721 Q285 721 306 717.5 Q327 714 335 712 L335 647 Q328 648 315.5 649 Q303 650 288 650 Q259 650 240 644.5 Q221 639 209 630.5 Q197 622 190.5 613 Q184 604 181 598 L181 538 L315 538 L315 469 L181 469 L181 0 L90 0 L90 469 L22 469 L22 538 L90 538 L90 629 Q96 643 107 659 Q118 675 137.5 689 Q157 703 186 712 Q215 721 257 721 Z M408 0 L408 538 L500 538 L500 0 L408 0 Z M454 727 Q477 727 489.5 718.5 Q502 710 507 701 L507 649 Q502 640 489.5 632 Q477 624 454 624 Q432 624 418.5 632 Q405 640 401 649 L401 701 Q405 710 418.5 718.5 Q432 727 454 727 Z " />
<glyph glyph-name="fl" unicode="&#xfb02;" horiz-adv-x="560" d="M257 721 Q285 721 306 717.5 Q327 714 335 712 L335 647 Q328 648 315.5 649 Q303 650 288 650 Q259 650 240 644.5 Q221 639 209 630.5 Q197 622 190.5 613 Q184 604 181 598 L181 538 L315 538 L315 469 L181 469 L181 0 L90 0 L90 469 L22 469 L22 538 L90 538 L90 629 Q96 643 107 659 Q118 675 137.5 689 Q157 703 186 712 Q215 721 257 721 Z M404 0 L404 700 L496 700 L496 0 L404 0 Z " />
<glyph glyph-name="ampersand" unicode="&#x26;" horiz-adv-x="667" d="M652 0 L600 0 L521 76 Q486 39 434.5 12.5 Q383 -14 307 -14 Q254 -14 213 -2 Q172 10 141.5 29 Q111 48 91 71.5 Q71 95 61 119 L61 271 Q79 309 115 340 Q151 371 202 387 L181 407 Q162 425 143.5 445 Q125 465 114 482 L114 613 Q121 625 138 642.5 Q155 660 180.5 675.5 Q206 691 241.5 702 Q277 713 322 713 Q367 713 402 702 Q437 691 462.5 675.5 Q488 660 505 643 Q522 626 530 613 L530 564 L450 564 Q445 576 435 589.5 Q425 603 409 614.5 Q393 626 371.5 633.5 Q350 641 322 641 Q299 641 280.5 636 Q262 631 247.5 624 Q233 617 222.5 608.5 Q212 600 205 593 L205 508 Q212 493 227.5 476 Q243 459 257 445 L482 227 L482 372 L563 372 L563 148 L652 62 L652 0 Z M308 59 Q361 59 399.5 79 Q438 99 464 132 L258 333 Q222 324 192.5 303 Q163 282 152 254 L152 141 Q169 103 211 81 Q253 59 308 59 Z " />
<glyph glyph-name="grave" unicode="&#x60;" horiz-adv-x="432" d="M291 609 L223 609 L142 722 L142 765 L226 765 L291 624 L291 609 Z " />
<glyph glyph-name="acute" unicode="&#xb4;" horiz-adv-x="432" d="M210 609 L141 609 L141 624 L205 765 L290 765 L290 722 L210 609 Z " />
<glyph glyph-name="circumflex" unicode="&#x2c6;" horiz-adv-x="432" d="M364 607 L301 607 L216 716 L131 607 L68 607 L68 623 L157 763 L276 763 L364 623 L364 607 Z " />
<glyph glyph-name="caron" unicode="&#x2c7;" horiz-adv-x="432" d="M276 607 L157 607 L68 747 L68 763 L131 763 L216 654 L301 763 L364 763 L364 747 L276 607 Z " />
<glyph glyph-name="tilde" unicode="&#x2dc;" horiz-adv-x="432" d="M146 733 Q170 733 188 724.5 Q206 716 220.5 706.5 Q235 697 248.5 688.5 Q262 680 278 680 Q294 680 304.5 688.5 Q315 697 319 709 L319 728 L376 728 L376 684 Q368 658 346 638.5 Q324 619 286 619 Q261 619 243.5 627.5 Q226 636 211 646 Q196 656 183 664.5 Q170 673 154 673 Q135 673 126 663 Q117 653 113 645 L113 625 L56 625 L56 669 Q65 698 88 715.5 Q111 733 146 733 Z " />
<glyph glyph-name="dieresis" unicode="&#xa8;" horiz-adv-x="432" d="M115 727 Q137 727 149 719.5 Q161 712 165 707 L165 643 Q161 638 149 630.5 Q137 623 115 623 Q93 623 81 630.5 Q69 638 64 643 L64 707 Q69 712 81 719.5 Q93 727 115 727 Z M318 727 Q341 727 352.5 719.5 Q364 712 369 707 L369 643 Q364 638 352.5 630.5 Q341 623 318 623 Q297 623 284.5 630.5 Q272 638 268 643 L268 707 Q272 712 284.5 719.5 Q297 727 318 727 Z " />
<glyph glyph-name="breve" unicode="&#x2d8;" horiz-adv-x="432" d="M361 679 Q347 651 313 627 Q279 603 216 603 Q153 603 118.5 627 Q84 651 70 679 L70 735 L139 735 L139 698 Q141 693 146 686.5 Q151 680 160.5 673.5 Q170 667 183.5 662.5 Q197 658 216 658 Q234 658 247.5 662.5 Q261 667 270.5 673.5 Q280 680 285 686.5 Q290 693 292 698 L292 735 L361 735 L361 679 Z " />
<glyph glyph-name="ring" unicode="&#x2da;" horiz-adv-x="432" d="M216 795 Q255 795 283.5 779.5 Q312 764 323 741 L323 652 Q312 629 283.5 613.5 Q255 598 216 598 Q177 598 148.5 613.5 Q120 629 108 652 L108 741 Q120 764 148.5 779.5 Q177 795 216 795 Z M216 750 Q191 750 177.5 741.5 Q164 733 158 725 L158 668 Q164 660 177.5 651.5 Q191 643 216 643 Q241 643 254.5 651.5 Q268 660 273 668 L273 725 Q268 733 254.5 741.5 Q241 750 216 750 Z " />
<glyph glyph-name="hungarumlaut" unicode="&#x2dd;" horiz-adv-x="432" d="M128 602 L69 602 L69 618 L116 759 L188 759 L188 722 L128 602 Z M307 602 L248 602 L248 618 L294 759 L367 759 L367 722 L307 602 Z " />
<glyph glyph-name="dotaccent" unicode="&#x2d9;" horiz-adv-x="432" d="M216 727 Q239 727 251.5 718.5 Q264 710 269 701 L269 649 Q264 640 251.5 632 Q239 624 216 624 Q194 624 180.5 632 Q167 640 163 649 L163 701 Q167 710 180.5 718.5 Q194 727 216 727 Z " />
<glyph glyph-name="cedilla" unicode="&#xb8;" horiz-adv-x="432" d="M232 -52 Q267 -52 288 -66.5 Q309 -81 317 -98 L317 -169 Q306 -191 279.5 -206 Q253 -221 215 -221 Q184 -221 158 -214.5 Q132 -208 117 -198 L134 -152 Q150 -160 168.5 -165.5 Q187 -171 209 -171 Q230 -171 241 -163.5 Q252 -156 256 -147 L256 -117 Q252 -109 240.5 -102.5 Q229 -96 209 -96 L149 -96 L184 5 L244 5 L222 -52 L232 -52 Z " />
<glyph glyph-name="ogonek" unicode="&#x2db;" horiz-adv-x="432" d="M308 0 Q282 -22 266.5 -39.5 Q251 -57 241.5 -70 Q232 -83 227.5 -91.5 Q223 -100 221 -105 L221 -136 Q226 -144 240 -149.5 Q254 -155 271 -155 Q285 -155 297.5 -153 Q310 -151 324 -145 L324 -201 Q311 -208 295 -212 Q279 -216 253 -216 Q219 -216 191 -203.5 Q163 -191 152 -168 L152 -98 Q161 -78 186 -47 Q211 -16 261 18 L308 0 Z " />
<glyph glyph-name="comma" unicode="&#x2c;" horiz-adv-x="186" d="M92 100 Q114 100 128 91.5 Q142 83 145 74 L145 -61 Q143 -67 137.5 -75 Q132 -83 123 -91 Q114 -99 102 -104.5 Q90 -110 75 -110 L48 -110 L48 -68 L69 -68 Q75 -68 82 -63.5 Q89 -59 92 -53 L92 -13 Q72 -13 58.5 -4 Q45 5 40 13 L40 74 Q45 83 58.5 91.5 Q72 100 92 100 Z " />
<glyph glyph-name="semicolon" unicode="&#x3b;" horiz-adv-x="203" d="M100 100 Q122 100 136 91.5 Q150 83 153 74 L153 -61 Q151 -67 145.5 -75 Q140 -83 131 -91 Q122 -99 110 -104.5 Q98 -110 83 -110 L56 -110 L56 -68 L77 -68 Q83 -68 90 -63.5 Q97 -59 100 -53 L100 -13 Q80 -13 66.5 -4 Q53 5 48 13 L48 74 Q53 83 66.5 91.5 Q80 100 100 100 Z M100 497 Q123 497 136.5 488.5 Q150 480 153 471 L153 414 Q150 406 136.5 397 Q123 388 100 388 Q79 388 66 397 Q53 406 48 414 L48 471 Q53 480 66 488.5 Q79 497 100 497 Z " />
<glyph glyph-name="colon" unicode="&#x3a;" horiz-adv-x="203" d="M100 100 Q123 100 136.5 91.5 Q150 83 153 74 L153 17 Q150 9 136.5 0 Q123 -9 100 -9 Q79 -9 66 0 Q53 9 48 17 L48 74 Q53 83 66 91.5 Q79 100 100 100 Z M100 497 Q123 497 136.5 488.5 Q150 480 153 471 L153 414 Q150 406 136.5 397 Q123 388 100 388 Q79 388 66 397 Q53 406 48 414 L48 471 Q53 480 66 488.5 Q79 497 100 497 Z " />
<glyph glyph-name="period" unicode="&#x2e;" horiz-adv-x="186" d="M92 100 Q115 100 128.5 91.5 Q142 83 145 74 L145 17 Q142 9 128.5 0 Q115 -9 92 -9 Q71 -9 58 0 Q45 9 40 17 L40 74 Q45 83 58 91.5 Q71 100 92 100 Z " />
<glyph glyph-name="ellipsis" unicode="&#x2026;" horiz-adv-x="550" d="M92 97 Q115 97 128.5 88.5 Q142 80 145 71 L145 17 Q142 9 128.5 0 Q115 -9 92 -9 Q71 -9 58 0 Q45 9 40 17 L40 71 Q45 80 58 88.5 Q71 97 92 97 Z M275 97 Q298 97 311.5 88.5 Q325 80 328 71 L328 17 Q325 9 311.5 0 Q298 -9 275 -9 Q253 -9 240 0 Q227 9 223 17 L223 71 Q227 80 240 88.5 Q253 97 275 97 Z M457 97 Q480 97 493.5 88.5 Q507 80 510 71 L510 17 Q507 9 493.5 0 Q480 -9 457 -9 Q435 -9 422 0 Q409 9 405 17 L405 71 Q409 80 422 88.5 Q435 97 457 97 Z " />
<glyph glyph-name="hyphen" unicode="&#x2d;" horiz-adv-x="364" d="M42 301 L42 374 L321 374 L321 301 L42 301 Z " />
<glyph glyph-name="exclam" unicode="&#x21;" horiz-adv-x="268" d="M174 161 L95 161 L83 588 L83 700 L186 700 L186 588 L174 161 Z M134 96 Q156 96 169.5 88 Q183 80 187 71 L187 17 Q183 9 169.5 0 Q156 -9 134 -9 Q112 -9 99 0 Q86 9 81 17 L81 71 Q86 80 99 88 Q112 96 134 96 Z " />
<glyph glyph-name="exclamdown" unicode="&#xa1;" horiz-adv-x="268" d="M94 382 L173 382 L185 -45 L185 -157 L82 -157 L82 -45 L94 382 Z M134 447 Q112 447 98.5 455 Q85 463 81 472 L81 526 Q85 534 98.5 543 Q112 552 134 552 Q156 552 169 543 Q182 534 187 526 L187 472 Q182 463 169 455 Q156 447 134 447 Z " />
<glyph glyph-name="question" unicode="&#x3f;" horiz-adv-x="528" d="M261 714 Q311 714 349.5 702.5 Q388 691 416 673.5 Q444 656 463 635.5 Q482 615 493 598 L493 429 Q482 407 457.5 386.5 Q433 366 413 351 L263 242 L263 168 L169 168 L169 281 L327 394 Q349 409 369.5 427 Q390 445 399 462 L399 571 Q381 596 346.5 616 Q312 636 261 636 Q204 636 167 611 Q130 586 117 553 L34 553 L34 607 Q45 623 64 642 Q83 661 110.5 677 Q138 693 175.5 703.5 Q213 714 261 714 Z M216 100 Q239 100 252 91.5 Q265 83 269 74 L269 17 Q265 9 252 0 Q239 -9 216 -9 Q194 -9 181 0 Q168 9 164 17 L164 74 Q168 83 181 91.5 Q194 100 216 100 Z " />
<glyph glyph-name="questiondown" unicode="&#xbf;" horiz-adv-x="528" d="M267 -170 Q217 -170 178.5 -158.5 Q140 -147 112 -129.5 Q84 -112 65 -91.5 Q46 -71 35 -54 L35 115 Q46 137 70.5 157.5 Q95 178 115 193 L265 302 L265 376 L359 376 L359 263 L201 150 Q179 135 158.5 117 Q138 99 129 82 L129 -27 Q147 -52 181.5 -72 Q216 -92 267 -92 Q324 -92 361 -67 Q398 -42 411 -9 L494 -9 L494 -63 Q483 -79 464 -98 Q445 -117 417.5 -133 Q390 -149 352.5 -159.5 Q315 -170 267 -170 Z M312 444 Q289 444 276 452.5 Q263 461 259 470 L259 527 Q263 535 276 544 Q289 553 312 553 Q334 553 347 544 Q360 535 364 527 L364 470 Q360 461 347 452.5 Q334 444 312 444 Z " />
<glyph glyph-name="quoteleft" unicode="&#x2018;" horiz-adv-x="189" d="M96 500 Q74 500 60 508.5 Q46 517 43 526 L43 661 Q45 667 50.5 675 Q56 683 65 691 Q74 699 86 704.5 Q98 710 113 710 L140 710 L140 668 L119 668 Q113 668 106 663.5 Q99 659 96 653 L96 613 Q116 613 129.5 604 Q143 595 148 587 L148 526 Q143 517 129.5 508.5 Q116 500 96 500 Z " />
<glyph glyph-name="quoteright" unicode="&#x2019;" horiz-adv-x="189" d="M93 714 Q115 714 129 705.5 Q143 697 146 688 L146 553 Q144 547 138.5 539 Q133 531 124 523 Q115 515 103 509.5 Q91 504 76 504 L49 504 L49 546 L70 546 Q76 546 83 550.5 Q90 555 93 561 L93 601 Q73 601 59.5 610 Q46 619 41 627 L41 688 Q46 697 59.5 705.5 Q73 714 93 714 Z " />
<glyph glyph-name="quotedblleft" unicode="&#x201c;" horiz-adv-x="365" d="M96 501 Q74 501 60 509.5 Q46 518 43 527 L43 662 Q45 668 50.5 676 Q56 684 65 692 Q74 700 86 705.5 Q98 711 113 711 L140 711 L140 669 L119 669 Q113 669 106 664.5 Q99 660 96 654 L96 614 Q116 614 129.5 605 Q143 596 148 588 L148 527 Q143 518 129.5 509.5 Q116 501 96 501 Z M272 501 Q250 501 236 509.5 Q222 518 219 527 L219 662 Q221 668 226.5 676 Q232 684 241 692 Q250 700 262 705.5 Q274 711 289 711 L316 711 L316 669 L295 669 Q289 669 282 664.5 Q275 660 272 654 L272 614 Q292 614 305.5 605 Q319 596 324 588 L324 527 Q319 518 305.5 509.5 Q292 501 272 501 Z " />
<glyph glyph-name="quotedblright" unicode="&#x201d;" horiz-adv-x="365" d="M93 714 Q115 714 129 705.5 Q143 697 146 688 L146 553 Q144 547 138.5 539 Q133 531 124 523 Q115 515 103 509.5 Q91 504 76 504 L49 504 L49 546 L70 546 Q76 546 83 550.5 Q90 555 93 561 L93 601 Q73 601 59.5 610 Q46 619 41 627 L41 688 Q46 697 59.5 705.5 Q73 714 93 714 Z M269 714 Q291 714 305 705.5 Q319 697 322 688 L322 553 Q320 547 314.5 539 Q309 531 300 523 Q291 515 279 509.5 Q267 504 252 504 L225 504 L225 546 L246 546 Q252 546 259 550.5 Q266 555 269 561 L269 601 Q249 601 235.5 610 Q222 619 217 627 L217 688 Q222 697 235.5 705.5 Q249 714 269 714 Z " />
<glyph glyph-name="quotesinglbase" unicode="&#x201a;" horiz-adv-x="189" d="M93 100 Q115 100 129 91.5 Q143 83 146 74 L146 -61 Q144 -67 138.5 -75 Q133 -83 124 -91 Q115 -99 103 -104.5 Q91 -110 76 -110 L49 -110 L49 -68 L70 -68 Q76 -68 83 -63.5 Q90 -59 93 -53 L93 -13 Q73 -13 59.5 -4 Q46 5 41 13 L41 74 Q46 83 59.5 91.5 Q73 100 93 100 Z " />
<glyph glyph-name="quotedblbase" unicode="&#x201e;" horiz-adv-x="366" d="M93 100 Q115 100 129 91.5 Q143 83 146 74 L146 -61 Q144 -67 138.5 -75 Q133 -83 124 -91 Q115 -99 103 -104.5 Q91 -110 76 -110 L49 -110 L49 -68 L70 -68 Q76 -68 83 -63.5 Q90 -59 93 -53 L93 -13 Q73 -13 59.5 -4 Q46 5 41 13 L41 74 Q46 83 59.5 91.5 Q73 100 93 100 Z M270 100 Q292 100 306 91.5 Q320 83 323 74 L323 -61 Q321 -67 315.5 -75 Q310 -83 301 -91 Q292 -99 280 -104.5 Q268 -110 253 -110 L226 -110 L226 -68 L247 -68 Q253 -68 260 -63.5 Q267 -59 270 -53 L270 -13 Q250 -13 236.5 -4 Q223 5 218 13 L218 74 Q223 83 236.5 91.5 Q250 100 270 100 Z " />
<glyph glyph-name="guilsinglleft" unicode="&#x2039;" horiz-adv-x="338" d="M119 295 L289 100 L289 51 L223 51 L42 261 L42 328 L223 538 L289 538 L289 489 L119 295 Z " />
<glyph glyph-name="guilsinglright" unicode="&#x203a;" horiz-adv-x="338" d="M296 261 L114 51 L49 51 L49 100 L219 295 L49 489 L49 538 L114 538 L296 328 L296 261 Z " />
<glyph glyph-name="guillemotleft" unicode="&#xab;" horiz-adv-x="593" d="M119 294 L289 100 L289 51 L223 51 L42 261 L42 329 L223 538 L289 538 L289 489 L119 294 Z M374 294 L545 100 L545 51 L479 51 L298 261 L298 329 L479 538 L545 538 L545 489 L374 294 Z " />
<glyph glyph-name="guillemotright" unicode="&#xbb;" horiz-adv-x="593" d="M296 261 L115 51 L49 51 L49 100 L219 294 L49 489 L49 538 L115 538 L296 329 L296 261 Z M552 261 L371 51 L304 51 L304 100 L475 294 L304 489 L304 538 L371 538 L552 329 L552 261 Z " />
<glyph glyph-name="slash" unicode="&#x2f;" horiz-adv-x="391" d="M126 -110 L49 -110 L49 -60 L265 731 L342 731 L342 681 L126 -110 Z " />
<glyph glyph-name="bar" unicode="&#x7c;" horiz-adv-x="324" d="M113 -130 L113 790 L210 790 L210 -130 L113 -130 Z " />
<glyph glyph-name="endash" unicode="&#x2013;" horiz-adv-x="564" d="M42 301 L42 374 L521 374 L521 301 L42 301 Z " />
<glyph glyph-name="emdash" unicode="&#x2014;" horiz-adv-x="864" d="M42 301 L42 374 L821 374 L821 301 L42 301 Z " />
<glyph glyph-name="bullet" unicode="&#x2022;" horiz-adv-x="329" d="M163 458 Q199 458 225.5 444 Q252 430 266 410 L266 300 Q252 279 225.5 264.5 Q199 250 163 250 Q128 250 102 265 Q76 280 63 300 L63 410 Q76 429 102 443.5 Q128 458 163 458 Z " />
<glyph glyph-name="parenleft" unicode="&#x28;" horiz-adv-x="367" d="M321 631 Q287 631 261.5 620.5 Q236 610 217 593 Q198 576 186 554.5 Q174 533 167 511 L167 24 Q174 2 186 -20 Q198 -42 216.5 -59.5 Q235 -77 260.5 -88 Q286 -99 321 -99 L329 -99 L329 -168 L321 -168 Q266 -168 223.5 -153.5 Q181 -139 149.5 -116 Q118 -93 97.5 -64.5 Q77 -36 66 -9 L66 541 Q77 568 97.5 596.5 Q118 625 149.5 648 Q181 671 223.5 685.5 Q266 700 321 700 L329 700 L329 631 L321 631 Z " />
<glyph glyph-name="parenright" unicode="&#x29;" horiz-adv-x="367" d="M46 700 Q101 700 143.5 685.5 Q186 671 217 648 Q248 625 268.5 596.5 Q289 568 300 541 L300 -9 Q289 -36 268.5 -64.5 Q248 -93 217 -116 Q186 -139 143.5 -153.5 Q101 -168 46 -168 L38 -168 L38 -99 L46 -99 Q80 -99 106 -88 Q132 -77 150.5 -59.5 Q169 -42 181 -20 Q193 2 200 24 L200 511 Q193 533 181 554.5 Q169 576 150 593 Q131 610 105.5 620.5 Q80 631 46 631 L38 631 L38 700 L46 700 Z " />
<glyph glyph-name="bracketleft" unicode="&#x5b;" horiz-adv-x="367" d="M176 631 L176 -99 L318 -99 L318 -168 L78 -168 L78 700 L318 700 L318 631 L176 631 Z " />
<glyph glyph-name="bracketright" unicode="&#x5d;" horiz-adv-x="367" d="M49 -168 L49 -99 L191 -99 L191 631 L49 631 L49 700 L289 700 L289 -168 L49 -168 Z " />
<glyph glyph-name="braceleft" unicode="&#x7b;" horiz-adv-x="386" d="M197 334 Q188 309 172 291.5 Q156 274 136 263 Q156 251 172 233.5 Q188 216 197 191 L197 8 Q204 -15 216.5 -35.5 Q229 -56 248 -71.5 Q267 -87 292.5 -96.5 Q318 -106 351 -106 L351 -175 Q295 -175 252.5 -160.5 Q210 -146 179 -123 Q148 -100 127.5 -72 Q107 -44 96 -16 L96 176 Q92 194 83.5 204 Q75 214 64.5 219.5 Q54 225 42 226.5 Q30 228 20 228 L20 297 Q30 297 42 298.5 Q54 300 64.5 305.5 Q75 311 83.5 321.5 Q92 332 96 350 L96 541 Q107 568 127.5 596.5 Q148 625 179 648 Q210 671 252.5 685.5 Q295 700 351 700 L351 631 Q318 631 292.5 621.5 Q267 612 248 596.5 Q229 581 216.5 560 Q204 539 197 517 L197 334 Z " />
<glyph glyph-name="braceright" unicode="&#x7d;" horiz-adv-x="386" d="M289 350 Q293 332 301.5 321.5 Q310 311 321 305.5 Q332 300 343.5 298.5 Q355 297 365 297 L365 228 Q355 228 343.5 226.5 Q332 225 321 219.5 Q310 214 301.5 204 Q293 194 289 176 L289 -16 Q278 -44 257.5 -72 Q237 -100 206 -123 Q175 -146 132.5 -160.5 Q90 -175 35 -175 L35 -106 Q68 -106 93.5 -96.5 Q119 -87 138 -71.5 Q157 -56 169.5 -35.5 Q182 -15 189 8 L189 191 Q198 216 214 233.5 Q230 251 250 263 Q230 274 214 291.5 Q198 309 189 334 L189 517 Q182 539 169.5 560 Q157 581 138 596.5 Q119 612 93.5 621.5 Q68 631 35 631 L35 700 Q90 700 132.5 685.5 Q175 671 206 648 Q237 625 257.5 596.5 Q278 568 289 541 L289 350 Z " />
<glyph glyph-name="asterisk" unicode="&#x2a;" horiz-adv-x="495" d="M449 605 Q451 596 452.5 585.5 Q454 575 451 564 L282 528 L398 400 Q394 390 386.5 382 Q379 374 371 367 Q363 361 353.5 357 Q344 353 333 353 L248 501 L163 353 Q152 353 142.5 357 Q133 361 125 367 Q117 374 109 382 Q101 390 98 400 L214 528 L44 564 Q41 575 42.5 585.5 Q44 596 47 605 Q50 615 55.5 624.5 Q61 634 69 640 L226 571 L208 740 Q216 746 226.5 748 Q237 750 247 750 Q258 750 268.5 748 Q279 746 287 740 L269 570 L426 640 Q434 634 439.5 624.5 Q445 615 449 605 Z " />
<glyph glyph-name="dagger" unicode="&#x2020;" horiz-adv-x="631" d="M592 382 L505 382 L361 391 L352 -168 L277 -168 L268 391 L125 382 L39 382 L39 466 L125 466 L267 457 L265 588 L265 700 L364 700 L364 588 L362 457 L505 466 L592 466 L592 382 Z " />
<glyph glyph-name="daggerdbl" unicode="&#x2021;" horiz-adv-x="651" d="M358 187 L505 196 L592 196 L592 112 L505 112 L357 121 L352 -168 L277 -168 L272 121 L125 112 L39 112 L39 196 L125 196 L271 187 L268 421 L125 412 L39 412 L39 496 L125 496 L267 487 L265 588 L265 700 L364 700 L364 588 L362 487 L505 496 L592 496 L592 412 L505 412 L361 421 L358 187 Z " />
<glyph glyph-name="section" unicode="&#xa7;" horiz-adv-x="515" d="M256 647 Q210 647 181.5 629 Q153 611 140 593 L140 529 Q151 511 175 500 Q199 489 234 480 L296 465 Q368 449 407 424.5 Q446 400 459 379 L459 247 Q450 233 431 214.5 Q412 196 381 181 Q413 167 432 150.5 Q451 134 459 120 L459 1 Q451 -11 435.5 -27.5 Q420 -44 395.5 -59.5 Q371 -75 336.5 -86 Q302 -97 256 -97 Q211 -97 176 -86 Q141 -75 116.5 -59.5 Q92 -44 76.5 -27 Q61 -10 55 1 L55 41 L135 41 Q138 29 148 16.5 Q158 4 173.5 -6.5 Q189 -17 210 -23.5 Q231 -30 257 -30 Q303 -30 332 -11.5 Q361 7 373 25 L373 88 Q362 106 338.5 117.5 Q315 129 280 137 L217 153 Q145 168 106.5 192.5 Q68 217 55 238 L55 370 Q64 384 83 402.5 Q102 421 133 437 Q101 451 82 467 Q63 483 55 497 L55 616 Q62 628 77.5 644.5 Q93 661 117.5 676.5 Q142 692 176.5 703 Q211 714 257 714 Q303 714 338 703 Q373 692 397.5 676.5 Q422 661 437.5 644.5 Q453 628 459 616 L459 576 L378 576 Q375 588 365.5 600.5 Q356 613 340.5 623.5 Q325 634 303.5 640.5 Q282 647 256 647 Z M373 346 Q363 364 339.5 376 Q316 388 280 396 L254 402 Q209 401 180.5 383 Q152 365 140 347 L140 271 Q151 253 174.5 241.5 Q198 230 234 221 L256 216 Q303 216 332.5 234 Q362 252 373 270 L373 346 Z " />
<glyph glyph-name="paragraph" unicode="&#xb6;" horiz-adv-x="664" d="M310 -100 L310 251 L250 251 Q178 251 127 285 Q76 319 49 368 L49 582 Q80 639 133.5 669.5 Q187 700 250 700 L382 700 L382 -100 L310 -100 Z M512 -100 L512 700 L584 700 L584 -100 L512 -100 Z " />
<glyph glyph-name="asciicircum" unicode="&#x5e;" horiz-adv-x="513" d="M464 342 L405 342 L264 613 L249 613 L108 342 L49 342 L49 395 L209 700 L303 700 L464 396 L464 342 Z " />
<glyph glyph-name="asciitilde" unicode="&#x7e;" horiz-adv-x="583" d="M171 430 Q207 430 241 422 Q275 414 308 404.5 Q341 395 373.5 387 Q406 379 439 379 Q464 379 484.5 386 Q505 393 520 401 Q538 411 551 423 L551 338 Q538 328 521 321 Q507 314 486.5 309 Q466 304 440 304 Q401 304 367 312 Q333 320 300.5 329.5 Q268 339 236 347 Q204 355 169 355 Q140 355 115 347 Q90 339 72 329 Q51 318 33 304 L33 384 Q49 396 70 407 Q88 415 113.5 422.5 Q139 430 171 430 Z " />
<glyph glyph-name="brokenbar" unicode="&#xa6;" horiz-adv-x="327" d="M113 399 L113 790 L210 790 L210 399 L113 399 Z M113 -128 L113 276 L210 276 L210 -128 L113 -128 Z " />
<glyph glyph-name="backslash" unicode="&#x5c;" horiz-adv-x="391" d="M342 -110 L265 -110 L49 681 L49 731 L126 731 L342 -60 L342 -110 Z " />
<glyph glyph-name="underscore" unicode="&#x5f;" horiz-adv-x="500" d="M-5 -129 L-5 -67 L505 -67 L505 -129 L-5 -129 Z " />
<glyph glyph-name="quotesingle" unicode="&#x27;" horiz-adv-x="163" d="M110 488 L53 488 L41 615 L41 700 L122 700 L122 615 L110 488 Z " />
<glyph glyph-name="quotedbl" unicode="&#x22;" horiz-adv-x="336" d="M110 488 L53 488 L41 615 L41 700 L122 700 L122 615 L110 488 Z M283 488 L226 488 L214 615 L214 700 L295 700 L295 615 L283 488 Z " />
<glyph glyph-name="at" unicode="&#x40;" horiz-adv-x="941" d="M472 714 Q562 714 633 687 Q704 660 755.5 620 Q807 580 839.5 535.5 Q872 491 885 455 L885 108 Q863 70 825.5 51.5 Q788 33 740 33 Q693 33 658.5 52 Q624 71 604 100 Q579 72 539 52 Q499 32 442 32 Q401 32 370 43 Q339 54 316.5 70.5 Q294 87 280 105.5 Q266 124 259 138 L259 413 Q266 427 280 445.5 Q294 464 316 480.5 Q338 497 368.5 508.5 Q399 520 439 520 Q491 520 528 502.5 Q565 485 590 460 L590 507 L672 507 L672 130 Q692 89 745 89 Q772 89 788.5 99 Q805 109 818 128 L818 443 Q807 469 781 505.5 Q755 542 712 575 Q669 608 609 631.5 Q549 655 470 655 Q412 655 359.5 640.5 Q307 626 262.5 598.5 Q218 571 183 531.5 Q148 492 126 441 L126 112 Q148 63 183 23.5 Q218 -16 262.5 -44 Q307 -72 359.5 -87.5 Q412 -103 470 -103 Q523 -103 571.5 -90 Q620 -77 663 -52 L698 -98 Q648 -128 590.5 -144.5 Q533 -161 470 -161 Q401 -161 337 -143 Q273 -125 219 -92 Q165 -59 123.5 -11 Q82 37 58 97 L58 456 Q83 516 125.5 564 Q168 612 222.5 645 Q277 678 340.5 696 Q404 714 472 714 Z M460 97 Q507 97 540 113.5 Q573 130 590 153 L590 399 Q573 422 540 438.5 Q507 455 460 455 Q434 455 414.5 449 Q395 443 380 434 Q365 425 355.5 415 Q346 405 342 396 L342 156 Q347 147 356.5 137 Q366 127 380.5 118 Q395 109 414.5 103 Q434 97 460 97 Z " />
<glyph glyph-name="copyright" unicode="&#xa9;" horiz-adv-x="811" d="M405 714 Q480 714 547 685.5 Q614 657 663.5 607.5 Q713 558 742 492 Q771 426 771 350 Q771 274 742 208 Q713 142 663.5 92.5 Q614 43 547 14.5 Q480 -14 405 -14 Q330 -14 263.5 14.5 Q197 43 147.5 92.5 Q98 142 69 208 Q40 274 40 350 Q40 426 69 492 Q98 558 147.5 607.5 Q197 657 263.5 685.5 Q330 714 405 714 Z M405 670 Q339 670 281.5 644.5 Q224 619 181 575.5 Q138 532 113.5 474 Q89 416 89 350 Q89 284 113.5 225.5 Q138 167 181 123.5 Q224 80 281.5 55 Q339 30 405 30 Q471 30 529 55 Q587 80 630 123.5 Q673 167 697.5 225.5 Q722 284 722 350 Q722 416 697.5 474 Q673 532 630 575.5 Q587 619 529 644.5 Q471 670 405 670 Z M405 578 Q448 578 480 567.5 Q512 557 535 543 Q558 529 572 513 Q586 497 592 487 L592 446 L525 446 Q517 470 487 493 Q457 516 406 516 Q360 516 332 498 Q304 480 293 463 L293 235 Q299 226 308.5 216.5 Q318 207 332 199 Q346 191 364.5 186 Q383 181 406 181 Q431 181 451.5 187.5 Q472 194 487 204.5 Q502 215 511.5 227.5 Q521 240 525 252 L592 252 L592 211 Q586 200 572 184.5 Q558 169 535 155 Q512 141 480 130.5 Q448 120 405 120 Q362 120 329.5 130.5 Q297 141 274 156.5 Q251 172 236.5 189 Q222 206 215 218 L215 480 Q222 492 236.5 509 Q251 526 274 541 Q297 556 329.5 567 Q362 578 405 578 Z " />
<glyph glyph-name="registered" unicode="&#xae;" horiz-adv-x="518" d="M259 824 Q308 824 351.5 805 Q395 786 428 753.5 Q461 721 480 677.5 Q499 634 499 585 Q499 536 480 492.5 Q461 449 428 416.5 Q395 384 351.5 365 Q308 346 259 346 Q210 346 166.5 365 Q123 384 90 416.5 Q57 449 38 492.5 Q19 536 19 585 Q19 634 38 677.5 Q57 721 90 753.5 Q123 786 166.5 805 Q210 824 259 824 Z M259 380 Q302 380 339 396 Q376 412 403.5 440 Q431 468 446.5 505.5 Q462 543 462 585 Q462 627 446.5 664.5 Q431 702 403.5 730 Q376 758 339 774 Q302 790 259 790 Q217 790 180 774 Q143 758 115.5 730 Q88 702 72.5 664.5 Q57 627 57 585 Q57 543 72.5 505.5 Q88 468 115.5 440 Q143 412 180 396 Q217 380 259 380 Z M283 730 Q308 730 331.5 716 Q355 702 367 677 L367 603 Q358 584 342 571.5 Q326 559 307 554 L362 480 L362 450 L325 450 L262 551 L211 551 L211 450 L167 450 L167 730 L283 730 Z M322 665 Q314 682 300.5 687.5 Q287 693 273 693 L211 693 L211 588 L273 588 Q287 588 300.5 593 Q314 598 322 615 L322 665 Z " />
<glyph glyph-name="trademark" unicode="&#x2122;" horiz-adv-x="792" d="M201 650 L201 310 L138 310 L138 650 L26 650 L26 700 L312 700 L312 650 L201 650 Z M676 310 L676 611 L674 611 L565 310 L524 310 L414 611 L412 611 L412 310 L353 310 L353 700 L441 700 L545 417 L547 417 L650 700 L735 700 L735 310 L676 310 Z " />
<glyph glyph-name="uni2117" unicode="&#x2117;" horiz-adv-x="811" d="M405 714 Q480 714 547 685.5 Q614 657 663.5 607.5 Q713 558 742 492 Q771 426 771 350 Q771 274 742 208 Q713 142 663.5 92.5 Q614 43 547 14.5 Q480 -14 405 -14 Q330 -14 263.5 14.5 Q197 43 147.5 92.5 Q98 142 69 208 Q40 274 40 350 Q40 426 69 492 Q98 558 147.5 607.5 Q197 657 263.5 685.5 Q330 714 405 714 Z M405 670 Q339 670 281.5 644.5 Q224 619 181 575.5 Q138 532 113.5 474 Q89 416 89 350 Q89 284 113.5 225.5 Q138 167 181 123.5 Q224 80 281.5 55 Q339 30 405 30 Q471 30 529 55 Q587 80 630 123.5 Q673 167 697.5 225.5 Q722 284 722 350 Q722 416 697.5 474 Q673 532 630 575.5 Q587 619 529 644.5 Q471 670 405 670 Z M454 571 Q497 571 534 547.5 Q571 524 591 482 L591 360 Q571 318 534 294 Q497 270 454 270 L335 270 L335 114 L266 114 L266 571 L454 571 Z M335 325 L440 325 Q464 325 486.5 337 Q509 349 523 378 L523 464 Q509 493 486.5 504.5 Q464 516 440 516 L335 516 L335 325 Z " />
<glyph glyph-name="currency" unicode="&#xa4;" horiz-adv-x="590" d="M486 484 Q497 472 504 459.5 Q511 447 516 436 L516 238 Q506 214 487 190 L524 153 L524 107 L464 107 L430 141 Q404 125 370.5 115.5 Q337 106 295 106 Q253 106 220 115.5 Q187 125 161 140 L127 107 L65 107 L65 153 L103 190 Q84 214 74 238 L74 436 Q84 460 103 484 L65 522 L65 568 L127 568 L161 534 Q187 549 220 558.5 Q253 568 295 568 Q337 568 370 558.5 Q403 549 429 533 L464 568 L524 568 L524 522 L486 484 Z M295 178 Q347 178 380 202 Q413 226 426 257 L426 417 Q413 448 380 472 Q347 496 295 496 Q244 496 211 472 Q178 448 165 417 L165 257 Q178 226 211 202 Q244 178 295 178 Z " />
<glyph glyph-name="Euro" unicode="&#x20ac;" horiz-adv-x="594" d="M322 640 Q270 640 234 616 Q198 592 184 561 L184 456 L431 456 L431 398 L184 398 L184 319 L431 319 L431 260 L184 260 L184 139 Q198 108 234 84 Q270 60 322 60 Q379 60 416.5 88 Q454 116 463 161 L547 161 L547 107 Q539 90 521 69.5 Q503 49 475 30 Q447 11 409 -1.5 Q371 -14 322 -14 Q274 -14 235 -1.5 Q196 11 167 30.5 Q138 50 119 73 Q100 96 91 117 L91 260 L31 260 L31 319 L91 319 L91 398 L31 398 L31 456 L91 456 L91 583 Q100 604 119 627 Q138 650 167 669.5 Q196 689 235 701.5 Q274 714 322 714 Q371 714 409 701.5 Q447 689 475 670 Q503 651 521 630 Q539 609 547 593 L547 539 L463 539 Q454 584 416.5 612 Q379 640 322 640 Z " />
<glyph glyph-name="dollar" unicode="&#x24;" horiz-adv-x="584" d="M330 395 Q381 381 414.5 366.5 Q448 352 470 336.5 Q492 321 505 304.5 Q518 288 527 272 L527 119 Q518 102 503 81.5 Q488 61 464 42 Q440 23 407 8 Q374 -7 330 -12 L330 -94 L254 -94 L254 -12 Q207 -8 172.5 7 Q138 22 113 41 Q88 60 72 80.5 Q56 101 47 118 L47 172 L132 172 Q138 151 151.5 132 Q165 113 185 98 Q205 83 231.5 74 Q258 65 290 65 Q320 65 343.5 72.5 Q367 80 384.5 91.5 Q402 103 414 117.5 Q426 132 433 146 L433 236 Q422 259 397 278.5 Q372 298 316 312 L251 328 Q207 339 177.5 350.5 Q148 362 127.5 375 Q107 388 92.5 403.5 Q78 419 65 439 L65 598 Q74 614 90.5 632 Q107 650 130.5 666.5 Q154 683 184.5 695 Q215 707 254 712 L254 794 L330 794 L330 712 Q368 707 398.5 695 Q429 683 452.5 667 Q476 651 492 632.5 Q508 614 517 598 L517 544 L433 544 Q420 582 385 609 Q350 636 289 636 Q241 636 208 616 Q175 596 161 570 L161 474 Q166 465 172.5 457 Q179 449 190 442 Q201 435 219 427.5 Q237 420 265 413 L330 395 Z " />
<glyph glyph-name="cent" unicode="&#xa2;" horiz-adv-x="528" d="M274 479 Q223 479 190.5 455 Q158 431 144 401 L144 137 Q158 107 190.5 83 Q223 59 274 59 Q329 59 361.5 85 Q394 111 414 156 L490 156 L490 109 Q483 93 469 74.5 Q455 56 433.5 38.5 Q412 21 382.5 7.5 Q353 -6 315 -11 L315 -94 L237 -94 L237 -12 Q198 -7 167 7 Q136 21 113.5 39.5 Q91 58 76.5 79 Q62 100 54 119 L54 420 Q62 439 76.5 460 Q91 481 113.5 499.5 Q136 518 167 531.5 Q198 545 237 550 L237 633 L315 633 L315 549 Q353 544 382.5 530.5 Q412 517 433.5 500 Q455 483 469 464 Q483 445 490 429 L490 382 L414 382 Q394 428 361.5 453.5 Q329 479 274 479 Z " />
<glyph glyph-name="sterling" unicode="&#xa3;" horiz-adv-x="607" d="M332 640 Q280 640 244 616 Q208 592 194 561 L194 379 L449 379 L449 312 L194 312 L194 129 Q187 116 178 102 Q169 88 156 75 L556 75 L556 0 L45 0 L45 66 Q56 68 73.5 80.5 Q91 93 101 119 L101 312 L41 312 L41 379 L101 379 L101 583 Q110 604 129 627 Q148 650 177 669.5 Q206 689 245 701.5 Q284 714 332 714 Q380 714 418.5 701.5 Q457 689 485 670 Q513 651 530.5 630 Q548 609 556 593 L556 539 L473 539 Q464 584 426.5 612 Q389 640 332 640 Z " />
<glyph glyph-name="florin" unicode="&#x192;" horiz-adv-x="433" d="M352 642 Q324 642 305.5 636 Q287 630 275.5 622 Q264 614 257.5 604.5 Q251 595 248 588 L248 515 L392 515 L392 447 L248 447 L248 -90 Q242 -104 231 -120.5 Q220 -137 201 -150.5 Q182 -164 153.5 -173 Q125 -182 84 -182 Q57 -182 35 -179 Q13 -176 4 -173 L4 -111 L54 -111 Q82 -111 100.5 -105.5 Q119 -100 130.5 -91.5 Q142 -83 148.5 -74 Q155 -65 158 -58 L158 447 L81 447 L81 515 L158 515 L158 620 Q164 634 175 650.5 Q186 667 205 681 Q224 695 252 704 Q280 713 321 713 Q349 713 371 709.5 Q393 706 403 703 L403 642 L352 642 Z " />
<glyph glyph-name="yen" unicode="&#xa5;" horiz-adv-x="571" d="M334 246 L537 246 L537 187 L334 187 L334 0 L235 0 L235 187 L35 187 L35 246 L235 246 L235 307 L226 323 L35 323 L35 382 L191 382 L41 640 L41 700 L114 700 L287 393 L290 393 L461 700 L532 700 L532 640 L383 382 L537 382 L537 323 L348 323 L334 298 L334 246 Z " />
<glyph glyph-name="uni20A8" unicode="&#x20a8;" horiz-adv-x="519" d="M378 641 Q410 612 428 573 L428 522 L504 522 L504 462 L428 462 L428 413 Q416 384 394.5 360.5 Q373 337 346.5 320 Q320 303 292 294 Q264 285 238 285 L183 285 L429 50 L429 0 L346 0 L61 285 L61 348 L214 348 Q229 348 246.5 353 Q264 358 281 368.5 Q298 379 312.5 394.5 Q327 410 335 430 L335 462 L61 462 L61 522 L335 522 L335 549 Q327 569 312.5 584 Q298 599 281 609.5 Q264 620 246.5 625.5 Q229 631 214 631 L61 631 L61 700 L504 700 L504 641 L378 641 Z " />
<glyph glyph-name="uni20BA" unicode="&#x20ba;" horiz-adv-x="570" d="M516 121 Q508 104 490 83 Q472 62 444 43.5 Q416 25 377.5 12.5 Q339 0 291 0 L100 0 L100 233 L33 201 L33 267 L100 299 L100 391 L33 359 L33 426 L100 458 L100 700 L193 700 L193 503 L395 601 L395 534 L193 436 L193 344 L395 442 L395 375 L193 278 L193 74 L291 74 Q351 74 387 102 Q423 130 433 175 L516 175 L516 121 Z " />
<glyph glyph-name="uni20BD" unicode="&#x20bd;" horiz-adv-x="579" d="M334 700 Q397 700 449.5 669.5 Q502 639 534 582 L534 408 Q507 359 456.5 326.5 Q406 294 334 294 L177 294 L177 224 L450 224 L450 165 L177 165 L177 0 L79 0 L79 165 L20 165 L20 224 L79 224 L79 294 L20 294 L20 359 L79 359 L79 700 L334 700 Z M440 552 Q418 591 382.5 607.5 Q347 624 312 624 L177 624 L177 359 L312 359 Q353 359 386.5 378 Q420 397 440 432 L440 552 Z " />
<glyph glyph-name="ordfeminine" unicode="&#xaa;" horiz-adv-x="387" d="M191 709 Q222 709 246.5 701 Q271 693 289 680 Q307 667 318.5 651.5 Q330 636 336 621 L336 361 L277 361 L277 387 Q260 373 234.5 363 Q209 353 176 353 Q146 353 124.5 359 Q103 365 88 373.5 Q73 382 64 391 Q55 400 51 406 L51 503 Q55 509 64 518.5 Q73 528 88 537.5 Q103 547 124.5 553.5 Q146 560 175 560 L276 560 L276 608 Q267 629 246 644.5 Q225 660 191 660 Q159 660 138.5 646 Q118 632 107 612 L58 612 L58 644 Q62 651 71.5 662 Q81 673 97 683.5 Q113 694 136 701.5 Q159 709 191 709 Z M184 401 Q219 401 242.5 411 Q266 421 276 438 L276 515 L184 515 Q150 515 133.5 504 Q117 493 110 484 L110 432 Q115 424 132 412.5 Q149 401 184 401 Z " />
<glyph glyph-name="ordmasculine" unicode="&#xba;" horiz-adv-x="395" d="M197 709 Q229 709 253.5 701 Q278 693 296 680 Q314 667 325.5 651.5 Q337 636 343 621 L343 440 Q337 425 325.5 409.5 Q314 394 296 381.5 Q278 369 253.5 361 Q229 353 197 353 Q166 353 141.5 361 Q117 369 99 381.5 Q81 394 69 409.5 Q57 425 51 440 L51 621 Q57 636 69 651.5 Q81 667 99 680 Q117 693 141.5 701 Q166 709 197 709 Z M197 659 Q164 659 142 644.5 Q120 630 112 609 L112 451 Q120 431 142 417 Q164 403 197 403 Q230 403 252 417 Q274 431 283 451 L283 609 Q274 630 252 644.5 Q230 659 197 659 Z " />
<glyph glyph-name="numbersign" unicode="&#x23;" horiz-adv-x="580" d="M435 268 L510 268 L510 202 L425 202 L392 0 L327 0 L327 50 L352 202 L181 202 L148 0 L83 0 L83 50 L107 202 L33 202 L33 268 L118 268 L143 428 L69 428 L69 495 L154 495 L187 700 L253 700 L253 650 L228 495 L399 495 L432 700 L497 700 L497 650 L472 495 L547 495 L547 428 L461 428 L435 268 Z M217 428 L191 268 L362 268 L388 428 L217 428 Z " />
<glyph glyph-name="uni2116" unicode="&#x2116;" horiz-adv-x="972" d="M772 707 Q811 707 839.5 697 Q868 687 888.5 672 Q909 657 922 640 Q935 623 942 608 L942 437 Q935 423 922 406 Q909 389 888.5 374 Q868 359 839.5 349 Q811 339 772 339 Q733 339 704.5 349 Q676 359 656 374 Q636 389 623 406 Q610 423 603 437 L603 608 Q610 623 623 640 Q636 657 656 672 Q676 687 704.5 697 Q733 707 772 707 Z M407 0 L168 542 L165 542 L165 0 L73 0 L73 700 L184 700 L423 158 L426 158 L426 700 L518 700 L518 0 L407 0 Z M773 650 Q731 650 708 631.5 Q685 613 675 593 L675 453 Q685 433 708 414.5 Q731 396 773 396 Q815 396 837.5 414.5 Q860 433 871 453 L871 593 Q866 603 858 613 Q850 623 838 631.5 Q826 640 810 645 Q794 650 773 650 Z M603 225 L603 285 L942 285 L942 225 L603 225 Z " />
<glyph glyph-name="zero" unicode="0" horiz-adv-x="584" d="M292 714 Q341 714 379.5 701.5 Q418 689 447 669.5 Q476 650 495 627 Q514 604 523 583 L523 118 Q514 97 495 73.5 Q476 50 447 30.5 Q418 11 379.5 -1.5 Q341 -14 292 -14 Q244 -14 205 -1.5 Q166 11 137 30.5 Q108 50 89 73.5 Q70 97 61 118 L61 583 Q70 604 89 627 Q108 650 137 669.5 Q166 689 205 701.5 Q244 714 292 714 Z M291 640 Q240 640 203.5 616 Q167 592 154 561 L154 140 Q167 109 203.5 85 Q240 61 291 61 Q344 61 380 85 Q416 109 429 140 L429 561 Q416 592 380 616 Q344 640 291 640 Z " />
<glyph glyph-name="one" unicode="1" horiz-adv-x="445" d="M396 67 L396 0 L70 0 L70 67 L189 67 L189 595 L69 542 L69 616 L225 700 L282 700 L282 67 L396 67 Z " />
<glyph glyph-name="two" unicode="2" horiz-adv-x="562" d="M276 714 Q325 714 363.5 701.5 Q402 689 431 669.5 Q460 650 479 627 Q498 604 507 583 L507 442 Q499 423 487.5 406.5 Q476 390 457.5 373 Q439 356 412 336 Q385 316 345 291 L268 242 Q219 211 187 183.5 Q155 156 144 130 L144 78 L514 78 L514 0 L50 0 L50 154 Q61 174 73 190.5 Q85 207 103 224.5 Q121 242 148 261.5 Q175 281 216 307 L295 356 Q345 388 375 413.5 Q405 439 414 465 L414 561 Q400 591 364.5 615.5 Q329 640 276 640 Q224 640 184.5 614.5 Q145 589 135 539 L51 539 L51 593 Q60 610 78 631 Q96 652 124 670.5 Q152 689 190 701.5 Q228 714 276 714 Z " />
<glyph glyph-name="three" unicode="3" horiz-adv-x="568" d="M274 714 Q323 714 360 701.5 Q397 689 424 671 Q451 653 468.5 632.5 Q486 612 494 596 L494 455 Q483 436 455 410.5 Q427 385 382 369 Q431 353 463 323 Q495 293 507 265 L507 118 Q498 98 479 74.5 Q460 51 431 31.5 Q402 12 363.5 -1 Q325 -14 276 -14 Q228 -14 189 -1.5 Q150 11 121 30 Q92 49 73.5 70 Q55 91 47 108 L47 162 L131 162 Q142 120 180.5 90.5 Q219 61 276 61 Q329 61 364.5 85 Q400 109 414 140 L414 248 Q401 280 365 305 Q329 330 276 330 L204 330 L204 402 L269 402 Q295 402 316.5 408.5 Q338 415 354.5 425 Q371 435 383 446.5 Q395 458 401 469 L401 574 Q395 584 384 596 Q373 608 357.5 617.5 Q342 627 321 633.5 Q300 640 274 640 Q244 640 220.5 631.5 Q197 623 181 610 Q165 597 155 581.5 Q145 566 142 552 L57 552 L57 606 Q64 619 81 637.5 Q98 656 125 673 Q152 690 189 702 Q226 714 274 714 Z " />
<glyph glyph-name="four" unicode="4" horiz-adv-x="572" d="M552 246 L552 171 L460 171 L460 0 L370 0 L370 171 L28 171 L28 244 L328 700 L460 700 L460 246 L552 246 Z M123 246 L370 246 L370 617 L367 617 L123 246 Z " />
<glyph glyph-name="five" unicode="5" horiz-adv-x="563" d="M158 622 L158 405 Q182 427 217.5 442.5 Q253 458 303 458 Q345 458 378.5 447 Q412 436 438 419 Q464 402 481 381.5 Q498 361 507 341 L507 108 Q499 91 481 69.5 Q463 48 435 29.5 Q407 11 369 -1.5 Q331 -14 283 -14 Q235 -14 196 -1.5 Q157 11 128.5 29.5 Q100 48 81.5 69 Q63 90 54 108 L54 162 L139 162 Q143 143 154.5 125 Q166 107 185 92.5 Q204 78 228.5 69.5 Q253 61 283 61 Q334 61 370 85 Q406 109 420 140 L420 304 Q406 336 370 360 Q334 384 282 384 Q255 384 234.5 377.5 Q214 371 198.5 362 Q183 353 173 343 Q163 333 158 326 L72 326 L72 700 L499 700 L499 622 L158 622 Z " />
<glyph glyph-name="six" unicode="6" horiz-adv-x="575" d="M293 640 Q241 640 205 615.5 Q169 591 155 561 L155 381 Q182 406 220.5 422 Q259 438 313 438 Q354 438 388 427.5 Q422 417 448 400 Q474 383 491.5 362 Q509 341 518 321 L518 108 Q510 91 492 70 Q474 49 446 30 Q418 11 379.5 -1.5 Q341 -14 293 -14 Q245 -14 206 -1 Q167 12 138 31.5 Q109 51 90 74 Q71 97 62 118 L62 583 Q71 604 90.5 627 Q110 650 138.5 669.5 Q167 689 206 701.5 Q245 714 293 714 Q341 714 379 701.5 Q417 689 445 670.5 Q473 652 491 631 Q509 610 518 593 L518 539 L434 539 Q425 585 387.5 612.5 Q350 640 293 640 Z M291 364 Q246 364 212 347.5 Q178 331 155 305 L155 140 Q169 109 205 85 Q241 61 293 61 Q344 61 381 85 Q418 109 430 140 L430 289 Q418 319 381 341.5 Q344 364 291 364 Z " />
<glyph glyph-name="seven" unicode="7" horiz-adv-x="489" d="M179 0 L104 0 L104 60 L367 622 L15 622 L15 700 L461 700 L461 629 L179 0 Z " />
<glyph glyph-name="eight" unicode="8" horiz-adv-x="581" d="M403 377 Q433 366 453 354 Q473 342 487 329.5 Q501 317 510.5 304 Q520 291 528 278 L528 118 Q520 101 503 78.5 Q486 56 457 35.5 Q428 15 387 0.5 Q346 -14 291 -14 Q238 -14 198 -0.5 Q158 13 129 33.5 Q100 54 81.5 77 Q63 100 53 118 L53 278 Q67 304 95 327 Q123 350 176 369 Q131 389 110 412 Q89 435 79 452 L79 609 Q89 625 107.5 643.5 Q126 662 152 677.5 Q178 693 212.5 703.5 Q247 714 291 714 Q334 714 368.5 703.5 Q403 693 429.5 677.5 Q456 662 474 643.5 Q492 625 503 609 L503 452 Q492 435 469.5 414.5 Q447 394 403 377 Z M165 477 Q169 470 175.5 462.5 Q182 455 193.5 447 Q205 439 221.5 431.5 Q238 424 263 417 L297 408 Q340 417 373.5 437 Q407 457 416 477 L416 577 Q402 599 370.5 619 Q339 639 291 639 Q243 639 211 619 Q179 599 165 577 L165 477 Z M436 252 Q425 274 395 295 Q365 316 308 330 L286 336 Q254 330 229.5 319.5 Q205 309 187.5 297 Q170 285 159.5 273 Q149 261 145 252 L145 140 Q151 128 163.5 114.5 Q176 101 194.5 89 Q213 77 237.5 69.5 Q262 62 291 62 Q320 62 344 69.5 Q368 77 386.5 88.5 Q405 100 417.5 113.5 Q430 127 436 140 L436 252 Z " />
<glyph glyph-name="nine" unicode="9" horiz-adv-x="575" d="M282 714 Q330 714 369 701 Q408 688 437 668.5 Q466 649 485 626 Q504 603 513 582 L513 117 Q504 96 485 73 Q466 50 437 30.5 Q408 11 369 -1.5 Q330 -14 282 -14 Q234 -14 196 -1.5 Q158 11 130 29.5 Q102 48 84.5 69 Q67 90 58 107 L58 161 L141 161 Q150 115 187.5 87.5 Q225 60 282 60 Q334 60 370 84.5 Q406 109 420 139 L420 313 Q393 287 354.5 271 Q316 255 263 255 Q221 255 187.5 265.5 Q154 276 128 293 Q102 310 84.5 331 Q67 352 58 373 L58 592 Q66 609 84 630 Q102 651 129.5 670 Q157 689 195.5 701.5 Q234 714 282 714 Z M284 329 Q329 329 363 346 Q397 363 420 389 L420 560 Q406 591 370 615 Q334 639 282 639 Q231 639 194.5 615 Q158 591 145 560 L145 405 Q158 375 194.5 352 Q231 329 284 329 Z " />
<glyph glyph-name="uni00A0" unicode="&#xa0;" horiz-adv-x="206" d="" />
<glyph glyph-name="fraction" unicode="&#x2044;" horiz-adv-x="168" d="M-138 0 L-183 0 L-183 42 L306 700 L351 700 L351 658 L-138 0 Z " />
<glyph glyph-name="onequarter" unicode="&#xbc;" horiz-adv-x="871" d="M211 0 L166 0 L166 42 L655 700 L700 700 L700 658 L211 0 Z M262 328 L262 280 L47 280 L47 328 L122 328 L122 642 L46 634 L46 677 L137 700 L191 700 L191 328 L262 328 Z M829 151 L829 99 L767 99 L767 0 L701 0 L701 99 L470 99 L470 150 L672 420 L767 420 L767 151 L829 151 Z M541 151 L701 151 L701 361 L698 361 L541 151 Z " />
<glyph glyph-name="onehalf" unicode="&#xbd;" horiz-adv-x="932" d="M263 328 L263 280 L48 280 L48 328 L123 328 L123 642 L47 634 L47 677 L138 700 L192 700 L192 328 L263 328 Z M211 0 L166 0 L166 42 L655 700 L700 700 L700 658 L211 0 Z M717 429 Q750 429 776.5 421.5 Q803 414 823 402 Q843 390 856 375.5 Q869 361 875 348 L875 273 Q869 260 861 249 Q853 238 840 226.5 Q827 215 809 202.5 Q791 190 765 174 L709 140 Q642 99 628 70 L628 57 L881 57 L881 0 L563 0 L563 83 Q570 96 578 107.5 Q586 119 598 131 Q610 143 628 156 Q646 169 673 186 L729 220 Q763 241 780.5 256.5 Q798 272 806 290 L806 332 Q798 347 775.5 360 Q753 373 717 373 Q675 373 652 354.5 Q629 336 621 318 L563 318 L563 358 Q569 368 581.5 380.5 Q594 393 613 404 Q632 415 658 422 Q684 429 717 429 Z " />
<glyph glyph-name="threequarters" unicode="&#xbe;" horiz-adv-x="928" d="M257 0 L212 0 L212 42 L701 700 L746 700 L746 658 L257 0 Z M874 151 L874 99 L812 99 L812 0 L746 0 L746 99 L515 99 L515 150 L717 420 L812 420 L812 151 L874 151 Z M586 151 L746 151 L746 361 L743 361 L586 151 Z M201 709 Q234 709 259.5 701.5 Q285 694 303.5 682.5 Q322 671 333.5 658.5 Q345 646 351 637 L351 550 Q346 539 328 524.5 Q310 510 281 500 Q313 491 332.5 474 Q352 457 360 440 L360 351 Q354 339 340.5 325 Q327 311 307 299.5 Q287 288 260 280 Q233 272 199 272 Q166 272 139 279.5 Q112 287 92.5 298 Q73 309 60.5 321.5 Q48 334 43 343 L43 388 L98 388 Q106 364 132 346 Q158 328 199 328 Q233 328 258 341 Q283 354 291 370 L291 429 Q283 446 259.5 458.5 Q236 471 201 471 L152 471 L152 525 L198 525 Q231 525 252.5 537 Q274 549 282 560 L282 618 Q275 629 254.5 641 Q234 653 201 653 Q179 653 163 648 Q147 643 136 635 Q125 627 117.5 617.5 Q110 608 106 599 L52 599 L52 644 Q57 651 68.5 662 Q80 673 98.5 683.5 Q117 694 142.5 701.5 Q168 709 201 709 Z " />
<glyph glyph-name="fiveeighths" unicode="&#x215d;" horiz-adv-x="994" d="M878 219 Q904 207 920.5 190 Q937 173 945 159 L945 71 Q939 59 926 45 Q913 31 893 19 Q873 7 846.5 -0.5 Q820 -8 786 -8 Q753 -8 726 -0.5 Q699 7 679.5 19 Q660 31 647 45 Q634 59 628 71 L628 159 Q635 173 651.5 190 Q668 207 694 219 Q671 230 657.5 243 Q644 256 638 265 L638 364 Q643 371 654.5 382 Q666 393 684 403.5 Q702 414 727.5 421.5 Q753 429 787 429 Q820 429 845.5 421.5 Q871 414 889 403.5 Q907 393 918.5 382 Q930 371 935 364 L935 265 Q929 257 915 243.5 Q901 230 878 219 Z M703 277 Q712 266 732.5 254.5 Q753 243 787 243 Q821 243 841.5 254.5 Q862 266 870 277 L870 341 Q862 352 841.5 364 Q821 376 787 376 Q753 376 732.5 364 Q712 352 703 341 L703 277 Z M876 153 Q868 170 844.5 182.5 Q821 195 787 195 Q753 195 729 182.5 Q705 170 697 153 L697 87 Q705 71 729 57.5 Q753 44 787 44 Q821 44 844.5 57.5 Q868 71 876 87 L876 153 Z M118 643 L118 527 Q135 539 158.5 547 Q182 555 217 555 Q271 555 306 532.5 Q341 510 353 486 L353 343 Q347 333 334.5 321 Q322 309 302.5 298 Q283 287 256.5 279.5 Q230 272 197 272 Q163 272 136.5 279.5 Q110 287 91 298 Q72 309 59.5 321 Q47 333 41 343 L41 388 L96 388 Q104 363 130 345.5 Q156 328 197 328 Q231 328 255.5 341 Q280 354 289 370 L289 463 Q280 479 257.5 492 Q235 505 200 505 Q183 505 169.5 500.5 Q156 496 145.5 490 Q135 484 128 477.5 Q121 471 118 467 L54 467 L54 700 L348 700 L348 643 L118 643 Z M272 0 L227 0 L227 42 L716 700 L761 700 L761 658 L272 0 Z " />
<glyph glyph-name="oneeighth" unicode="&#x215b;" horiz-adv-x="960" d="M229 0 L184 0 L184 42 L673 700 L718 700 L718 658 L229 0 Z M266 328 L266 280 L51 280 L51 328 L126 328 L126 642 L50 634 L50 677 L141 700 L195 700 L195 328 L266 328 Z M836 219 Q862 207 878.5 190 Q895 173 903 159 L903 71 Q897 59 884 45 Q871 31 851 19 Q831 7 804.5 -0.5 Q778 -8 744 -8 Q711 -8 684 -0.5 Q657 7 637.5 19 Q618 31 605 45 Q592 59 586 71 L586 159 Q593 173 609.5 190 Q626 207 652 219 Q629 230 615.5 243 Q602 256 596 265 L596 364 Q601 371 612.5 382 Q624 393 642 403.5 Q660 414 685.5 421.5 Q711 429 745 429 Q778 429 803.5 421.5 Q829 414 847 403.5 Q865 393 876.5 382 Q888 371 893 364 L893 265 Q887 257 873 243.5 Q859 230 836 219 Z M661 277 Q670 266 690.5 254.5 Q711 243 745 243 Q779 243 799.5 254.5 Q820 266 828 277 L828 341 Q820 352 799.5 364 Q779 376 745 376 Q711 376 690.5 364 Q670 352 661 341 L661 277 Z M834 153 Q826 170 802.5 182.5 Q779 195 745 195 Q711 195 687 182.5 Q663 170 655 153 L655 87 Q663 71 687 57.5 Q711 44 745 44 Q779 44 802.5 57.5 Q826 71 834 87 L834 153 Z " />
<glyph glyph-name="seveneighths" unicode="&#x215e;" horiz-adv-x="917" d="M809 219 Q835 207 851.5 190 Q868 173 876 159 L876 71 Q870 59 857 45 Q844 31 824 19 Q804 7 777.5 -0.5 Q751 -8 717 -8 Q684 -8 657 -0.5 Q630 7 610.5 19 Q591 31 578 45 Q565 59 559 71 L559 159 Q566 173 582.5 190 Q599 207 625 219 Q602 230 588.5 243 Q575 256 569 265 L569 364 Q574 371 585.5 382 Q597 393 615 403.5 Q633 414 658.5 421.5 Q684 429 718 429 Q751 429 776.5 421.5 Q802 414 820 403.5 Q838 393 849.5 382 Q861 371 866 364 L866 265 Q860 257 846 243.5 Q832 230 809 219 Z M634 277 Q643 266 663.5 254.5 Q684 243 718 243 Q752 243 772.5 254.5 Q793 266 801 277 L801 341 Q793 352 772.5 364 Q752 376 718 376 Q684 376 663.5 364 Q643 352 634 341 L634 277 Z M807 153 Q799 170 775.5 182.5 Q752 195 718 195 Q684 195 660 182.5 Q636 170 628 153 L628 87 Q636 71 660 57.5 Q684 44 718 44 Q752 44 775.5 57.5 Q799 71 807 87 L807 153 Z M155 280 L102 280 L102 321 L269 640 L269 643 L35 643 L35 700 L339 700 L339 650 L155 280 Z M193 0 L148 0 L148 42 L637 700 L682 700 L682 658 L193 0 Z " />
<glyph glyph-name="threeeighths" unicode="&#x215c;" horiz-adv-x="988" d="M871 219 Q897 207 913.5 190 Q930 173 938 159 L938 71 Q932 59 919 45 Q906 31 886 19 Q866 7 839.5 -0.5 Q813 -8 779 -8 Q746 -8 719 -0.5 Q692 7 672.5 19 Q653 31 640 45 Q627 59 621 71 L621 159 Q628 173 644.5 190 Q661 207 687 219 Q664 230 650.5 243 Q637 256 631 265 L631 364 Q636 371 647.5 382 Q659 393 677 403.5 Q695 414 720.5 421.5 Q746 429 780 429 Q813 429 838.5 421.5 Q864 414 882 403.5 Q900 393 911.5 382 Q923 371 928 364 L928 265 Q922 257 908 243.5 Q894 230 871 219 Z M696 277 Q705 266 725.5 254.5 Q746 243 780 243 Q814 243 834.5 254.5 Q855 266 863 277 L863 341 Q855 352 834.5 364 Q814 376 780 376 Q746 376 725.5 364 Q705 352 696 341 L696 277 Z M869 153 Q861 170 837.5 182.5 Q814 195 780 195 Q746 195 722 182.5 Q698 170 690 153 L690 87 Q698 71 722 57.5 Q746 44 780 44 Q814 44 837.5 57.5 Q861 71 869 87 L869 153 Z M200 709 Q233 709 258.5 701.5 Q284 694 302.5 682.5 Q321 671 332.5 658.5 Q344 646 350 637 L350 550 Q345 539 327 524.5 Q309 510 280 500 Q312 491 331.5 474 Q351 457 359 440 L359 351 Q353 339 339.5 325 Q326 311 306 299.5 Q286 288 259 280 Q232 272 198 272 Q165 272 138 279.5 Q111 287 91.5 298 Q72 309 59.5 321.5 Q47 334 42 343 L42 388 L97 388 Q105 364 131 346 Q157 328 198 328 Q232 328 257 341 Q282 354 290 370 L290 429 Q282 446 258.5 458.5 Q235 471 200 471 L151 471 L151 525 L197 525 Q230 525 251.5 537 Q273 549 281 560 L281 618 Q274 629 253.5 641 Q233 653 200 653 Q178 653 162 648 Q146 643 135 635 Q124 627 116.5 617.5 Q109 608 105 599 L51 599 L51 644 Q56 651 67.5 662 Q79 673 97.5 683.5 Q116 694 141.5 701.5 Q167 709 200 709 Z M266 0 L221 0 L221 42 L710 700 L755 700 L755 658 L266 0 Z " />
<glyph glyph-name="twothirds" unicode="&#x2154;" horiz-adv-x="1021" d="M817 429 Q850 429 875.5 421.5 Q901 414 919.5 402.5 Q938 391 949.5 378.5 Q961 366 967 357 L967 270 Q962 259 944 244.5 Q926 230 897 220 Q929 211 948.5 194 Q968 177 976 160 L976 71 Q970 59 956.5 45 Q943 31 923 19.5 Q903 8 876 0 Q849 -8 815 -8 Q782 -8 755 -0.5 Q728 7 708.5 18 Q689 29 676.5 41.5 Q664 54 659 63 L659 108 L714 108 Q722 84 748 66 Q774 48 815 48 Q849 48 874 61 Q899 74 907 90 L907 149 Q899 166 875.5 178.5 Q852 191 817 191 L768 191 L768 245 L814 245 Q847 245 868.5 257 Q890 269 898 280 L898 338 Q891 349 870.5 361 Q850 373 817 373 Q795 373 779 368 Q763 363 752 355 Q741 347 733.5 337.5 Q726 328 722 319 L668 319 L668 364 Q673 371 684.5 382 Q696 393 714.5 403.5 Q733 414 758.5 421.5 Q784 429 817 429 Z M201 709 Q234 709 260.5 701.5 Q287 694 307 682 Q327 670 340 655.5 Q353 641 359 628 L359 553 Q353 540 345 529 Q337 518 324 506.5 Q311 495 293 482.5 Q275 470 249 454 L193 420 Q126 379 112 350 L112 337 L365 337 L365 280 L47 280 L47 363 Q54 376 62 387.5 Q70 399 82 411 Q94 423 112 436 Q130 449 157 466 L213 500 Q247 521 264.5 536.5 Q282 552 290 570 L290 612 Q282 627 259.5 640 Q237 653 201 653 Q159 653 136 634.5 Q113 616 105 598 L47 598 L47 638 Q53 648 65.5 660.5 Q78 673 97 684 Q116 695 142 702 Q168 709 201 709 Z M304 0 L259 0 L259 42 L748 700 L793 700 L793 658 L304 0 Z " />
<glyph glyph-name="uniE000" unicode="&#xe000;" horiz-adv-x="1013" d="M276 0 L231 0 L231 42 L720 700 L765 700 L765 658 L276 0 Z M211 655 Q177 655 153.5 642 Q130 629 122 612 L122 512 Q141 526 166 535 Q191 544 224 544 Q281 544 317 522 Q353 500 365 476 L365 343 Q359 334 347 321.5 Q335 309 316 298 Q297 287 270.5 279.5 Q244 272 211 272 Q178 272 151 279.5 Q124 287 104.5 299 Q85 311 71.5 325 Q58 339 52 351 L52 630 Q58 642 71.5 656 Q85 670 104.5 681.5 Q124 693 151 701 Q178 709 211 709 Q244 709 270.5 701.5 Q297 694 316 683 Q335 672 347.5 659.5 Q360 647 365 637 L365 598 L307 598 Q298 624 272.5 639.5 Q247 655 211 655 Z M211 494 Q182 494 160 485 Q138 476 122 462 L122 366 Q130 350 153.5 336.5 Q177 323 211 323 Q245 323 268.5 336.5 Q292 350 300 366 L300 452 Q292 469 268.5 481.5 Q245 494 211 494 Z M883 219 Q909 207 925.5 190 Q942 173 950 159 L950 71 Q944 59 931 45 Q918 31 898 19 Q878 7 851.5 -0.5 Q825 -8 791 -8 Q758 -8 731 -0.5 Q704 7 684.5 19 Q665 31 652 45 Q639 59 633 71 L633 159 Q640 173 656.5 190 Q673 207 699 219 Q676 230 662.5 243 Q649 256 643 265 L643 364 Q648 371 659.5 382 Q671 393 689 403.5 Q707 414 732.5 421.5 Q758 429 792 429 Q825 429 850.5 421.5 Q876 414 894 403.5 Q912 393 923.5 382 Q935 371 940 364 L940 265 Q934 257 920 243.5 Q906 230 883 219 Z M708 277 Q717 266 737.5 254.5 Q758 243 792 243 Q826 243 846.5 254.5 Q867 266 875 277 L875 341 Q867 352 846.5 364 Q826 376 792 376 Q758 376 737.5 364 Q717 352 708 341 L708 277 Z M881 153 Q873 170 849.5 182.5 Q826 195 792 195 Q758 195 734 182.5 Q710 170 702 153 L702 87 Q710 71 734 57.5 Q758 44 792 44 Q826 44 849.5 57.5 Q873 71 881 87 L881 153 Z " />
<glyph glyph-name="uniE001" unicode="&#xe001;" horiz-adv-x="1243" d="M257 328 L257 280 L42 280 L42 328 L117 328 L117 642 L41 634 L41 677 L132 700 L186 700 L186 328 L257 328 Z M1048 375 Q1014 375 990.5 362 Q967 349 959 332 L959 232 Q978 246 1003 255 Q1028 264 1061 264 Q1118 264 1154 242 Q1190 220 1202 196 L1202 63 Q1196 54 1184 41.5 Q1172 29 1153 18 Q1134 7 1107.5 -0.5 Q1081 -8 1048 -8 Q1015 -8 988 -0.5 Q961 7 941.5 19 Q922 31 908.5 45 Q895 59 889 71 L889 350 Q895 362 908.5 376 Q922 390 941.5 401.5 Q961 413 988 421 Q1015 429 1048 429 Q1081 429 1107.5 421.5 Q1134 414 1153 403 Q1172 392 1184.5 379.5 Q1197 367 1202 357 L1202 318 L1144 318 Q1135 344 1109.5 359.5 Q1084 375 1048 375 Z M1048 214 Q1019 214 997 205 Q975 196 959 182 L959 86 Q967 70 990.5 56.5 Q1014 43 1048 43 Q1082 43 1105.5 56.5 Q1129 70 1137 86 L1137 172 Q1129 189 1105.5 201.5 Q1082 214 1048 214 Z M208 0 L163 0 L163 42 L652 700 L697 700 L697 658 L208 0 Z M816 48 L816 0 L601 0 L601 48 L676 48 L676 362 L600 354 L600 397 L691 420 L745 420 L745 48 L816 48 Z " />
<glyph glyph-name="percent" unicode="&#x25;" horiz-adv-x="887" d="M205 709 Q239 709 265.5 701 Q292 693 311.5 680.5 Q331 668 344 653 Q357 638 363 623 L363 434 Q357 419 344 404 Q331 389 311.5 376.5 Q292 364 265.5 356.5 Q239 349 205 349 Q172 349 145 356.5 Q118 364 98.5 376.5 Q79 389 65.5 404 Q52 419 46 434 L46 623 Q52 638 65.5 653 Q79 668 98.5 680.5 Q118 693 145 701 Q172 709 205 709 Z M222 0 L177 0 L177 42 L666 700 L711 700 L711 658 L222 0 Z M205 657 Q172 657 148 643 Q124 629 116 611 L116 445 Q124 428 148 414.5 Q172 401 205 401 Q239 401 262 414.5 Q285 428 294 445 L294 611 Q285 629 262 643 Q239 657 205 657 Z M681 352 Q715 352 741.5 344 Q768 336 788 324 Q808 312 821 296.5 Q834 281 840 266 L840 77 Q834 62 821 47 Q808 32 788 20 Q768 8 741.5 0 Q715 -8 681 -8 Q648 -8 621 0 Q594 8 574.5 20 Q555 32 542 47 Q529 62 523 77 L523 266 Q529 281 542 296.5 Q555 312 574.5 324 Q594 336 621 344 Q648 352 681 352 Z M681 300 Q648 300 624.5 286.5 Q601 273 592 255 L592 89 Q601 72 624.5 58 Q648 44 681 44 Q715 44 738 58 Q761 72 770 89 L770 255 Q761 273 738 286.5 Q715 300 681 300 Z " />
<glyph glyph-name="perthousand" unicode="&#x2030;" horiz-adv-x="1267" d="M205 709 Q239 709 265.5 701 Q292 693 311.5 680.5 Q331 668 344 653 Q357 638 363 623 L363 434 Q357 419 344 404 Q331 389 311.5 376.5 Q292 364 265.5 356.5 Q239 349 205 349 Q172 349 145 356.5 Q118 364 98.5 376.5 Q79 389 65.5 404 Q52 419 46 434 L46 623 Q52 638 65.5 653 Q79 668 98.5 680.5 Q118 693 145 701 Q172 709 205 709 Z M222 0 L177 0 L177 42 L666 700 L711 700 L711 658 L222 0 Z M205 657 Q172 657 148 643 Q124 629 116 611 L116 445 Q124 428 148 414.5 Q172 401 205 401 Q239 401 262 414.5 Q285 428 294 445 L294 611 Q285 629 262 643 Q239 657 205 657 Z M681 352 Q715 352 741.5 344 Q768 336 788 324 Q808 312 821 296.5 Q834 281 840 266 L840 77 Q834 62 821 47 Q808 32 788 20 Q768 8 741.5 0 Q715 -8 681 -8 Q648 -8 621 0 Q594 8 574.5 20 Q555 32 542 47 Q529 62 523 77 L523 266 Q529 281 542 296.5 Q555 312 574.5 324 Q594 336 621 344 Q648 352 681 352 Z M1062 352 Q1095 352 1121.5 344 Q1148 336 1168 324 Q1188 312 1201 296.5 Q1214 281 1220 266 L1220 77 Q1214 62 1201 47 Q1188 32 1168 20 Q1148 8 1121.5 0 Q1095 -8 1062 -8 Q1029 -8 1002 0 Q975 8 955.5 20 Q936 32 922.5 47 Q909 62 903 77 L903 266 Q909 281 922.5 296.5 Q936 312 955.5 324 Q975 336 1002 344 Q1029 352 1062 352 Z M681 300 Q648 300 624.5 286.5 Q601 273 592 255 L592 89 Q601 72 624.5 58 Q648 44 681 44 Q715 44 738 58 Q761 72 770 89 L770 255 Q761 273 738 286.5 Q715 300 681 300 Z M1062 300 Q1028 300 1004.5 286.5 Q981 273 973 255 L973 89 Q981 72 1004.5 58 Q1028 44 1062 44 Q1096 44 1119 58 Q1142 72 1150 89 L1150 255 Q1142 273 1119 286.5 Q1096 300 1062 300 Z " />
<glyph glyph-name="plus" unicode="&#x2b;" horiz-adv-x="584" d="M329 301 L329 87 L254 87 L254 301 L42 301 L42 374 L254 374 L254 587 L329 587 L329 374 L541 374 L541 301 L329 301 Z " />
<glyph glyph-name="minus" unicode="&#x2212;" horiz-adv-x="584" d="M42 301 L42 374 L541 374 L541 301 L42 301 Z " />
<glyph glyph-name="plusminus" unicode="&#xb1;" horiz-adv-x="584" d="M541 357 L329 357 L329 167 L254 167 L254 357 L42 357 L42 432 L254 432 L254 621 L329 621 L329 432 L541 432 L541 357 Z M541 101 L541 26 L42 26 L42 101 L541 101 Z " />
<glyph glyph-name="multiply" unicode="&#xd7;" horiz-adv-x="584" d="M344 337 L524 155 L524 107 L469 107 L291 284 L114 107 L57 107 L57 155 L238 337 L57 518 L57 568 L114 568 L291 390 L469 568 L524 568 L524 518 L344 337 Z " />
<glyph glyph-name="divide" unicode="&#xf7;" horiz-adv-x="584" d="M42 301 L42 374 L541 374 L541 301 L42 301 Z M291 214 Q314 214 327.5 205.5 Q341 197 344 188 L344 131 Q341 123 327.5 114 Q314 105 291 105 Q270 105 257 114 Q244 123 239 131 L239 188 Q244 197 257 205.5 Q270 214 291 214 Z M291 572 Q314 572 327.5 563.5 Q341 555 344 546 L344 489 Q341 481 327.5 472 Q314 463 291 463 Q270 463 257 472 Q244 481 239 489 L239 546 Q244 555 257 563.5 Q270 572 291 572 Z " />
<glyph glyph-name="equal" unicode="&#x3d;" horiz-adv-x="584" d="M42 197 L42 270 L541 270 L541 197 L42 197 Z M42 405 L42 478 L541 478 L541 405 L42 405 Z " />
<glyph glyph-name="notequal" unicode="&#x2260;" horiz-adv-x="584" d="M303 271 L541 271 L541 197 L273 197 L229 87 L154 87 L198 197 L42 197 L42 271 L228 271 L281 404 L42 404 L42 478 L310 478 L354 587 L429 587 L385 478 L541 478 L541 404 L356 404 L303 271 Z " />
<glyph glyph-name="approxequal" unicode="&#x2248;" horiz-adv-x="584" d="M171 299 Q207 299 241 291 Q275 283 308 273.5 Q341 264 373.5 256 Q406 248 439 248 Q464 248 484.5 255 Q505 262 520 270 Q538 280 551 292 L551 207 Q538 197 521 190 Q507 183 486.5 178 Q466 173 440 173 Q401 173 367 181 Q333 189 300.5 198.5 Q268 208 236 216 Q204 224 169 224 Q140 224 115 216 Q90 208 72 198 Q51 187 33 173 L33 253 Q49 265 70 276 Q88 284 113.5 291.5 Q139 299 171 299 Z M171 507 Q207 507 241 499 Q275 491 308 481.5 Q341 472 373.5 464 Q406 456 439 456 Q464 456 484.5 463 Q505 470 520 478 Q538 488 551 500 L551 415 Q538 405 521 398 Q507 391 486.5 386 Q466 381 440 381 Q401 381 367 389 Q333 397 300.5 406.5 Q268 416 236 424 Q204 432 169 432 Q140 432 115 424 Q90 416 72 406 Q51 395 33 381 L33 461 Q49 473 70 484 Q88 492 113.5 499.5 Q139 507 171 507 Z " />
<glyph glyph-name="less" unicode="&#x3c;" horiz-adv-x="584" d="M139 298 L552 112 L552 60 L486 60 L31 268 L31 330 L486 538 L552 538 L552 486 L139 298 Z " />
<glyph glyph-name="greater" unicode="&#x3e;" horiz-adv-x="584" d="M552 268 L97 60 L31 60 L31 112 L444 298 L31 486 L31 538 L97 538 L552 330 L552 268 Z " />
<glyph glyph-name="lessequal" unicode="&#x2264;" horiz-adv-x="584" d="M173 365 L541 218 L541 165 L476 165 L42 333 L42 382 L476 565 L541 565 L541 513 L173 365 Z M42 26 L42 101 L541 101 L541 26 L42 26 Z " />
<glyph glyph-name="greaterequal" unicode="&#x2265;" horiz-adv-x="584" d="M541 333 L108 165 L42 165 L42 218 L412 365 L42 513 L42 565 L108 565 L541 382 L541 333 Z M42 26 L42 101 L541 101 L541 26 L42 26 Z " />
<glyph glyph-name="logicalnot" unicode="&#xac;" horiz-adv-x="584" d="M466 87 L466 301 L42 301 L42 374 L541 374 L541 87 L466 87 Z " />
<glyph glyph-name="Delta" unicode="&#x2206;" horiz-adv-x="609" d="M580 0 L30 0 L30 60 L238 700 L371 700 L580 60 L580 0 Z M303 617 L300 617 L131 78 L472 78 L303 617 Z " />
<glyph glyph-name="Omega" unicode="&#x2126;" horiz-adv-x="630" d="M433 78 L567 78 L567 0 L353 0 L353 110 Q396 117 426 144 Q456 171 469 203 L469 540 Q453 580 412.5 607.5 Q372 635 315 635 Q258 635 217.5 607.5 Q177 580 161 540 L161 203 Q173 171 202.5 144.5 Q232 118 277 110 L277 0 L63 0 L63 78 L196 78 Q146 97 112.5 130.5 Q79 164 63 203 L63 562 Q90 623 152.5 668.5 Q215 714 315 714 Q415 714 477.5 668.5 Q540 623 567 562 L567 203 Q551 164 516.5 130.5 Q482 97 433 78 Z " />
<glyph glyph-name="mu" unicode="&#xb5;" horiz-adv-x="547" d="M483 0 L398 0 L398 44 Q374 21 337.5 4.5 Q301 -12 249 -12 Q219 -12 195 -6.5 Q171 -1 151 8 L151 -166 L60 -166 L60 538 L151 538 L151 118 Q156 111 165 101 Q174 91 188 82 Q202 73 221.5 66.5 Q241 60 267 60 Q315 60 345 76.5 Q375 93 392 113 L392 538 L483 538 L483 0 Z " />
<glyph glyph-name="pi" unicode="&#x3c0;" horiz-adv-x="704" d="M512 471 L512 113 Q515 107 522 98 Q529 89 541 81 Q553 73 572 67.5 Q591 62 620 62 Q634 62 647 63 Q660 64 666 65 L666 -1 Q658 -3 637.5 -6.5 Q617 -10 588 -10 Q546 -10 517 -1 Q488 8 468.5 22 Q449 36 438 52 Q427 68 421 82 L421 471 L214 471 L214 0 L124 0 L124 471 L38 471 L38 538 L664 538 L664 471 L512 471 Z " />
<glyph glyph-name="degree" unicode="&#xb0;" horiz-adv-x="378" d="M189 807 Q223 807 249 798.5 Q275 790 294 777.5 Q313 765 325 751 Q337 737 343 726 L343 597 Q337 586 325 572 Q313 558 294 545.5 Q275 533 249 524.5 Q223 516 189 516 Q155 516 129 524.5 Q103 533 84 545.5 Q65 558 53 572 Q41 586 35 597 L35 726 Q41 737 53 751 Q65 765 84 777.5 Q103 790 129 798.5 Q155 807 189 807 Z M188 750 Q153 750 131 736 Q109 722 100 707 L100 616 Q109 601 131 587 Q153 573 188 573 Q223 573 245 587 Q267 601 277 616 L277 707 Q267 722 245 736 Q223 750 188 750 Z " />
<glyph glyph-name="infinity" unicode="&#x221e;" horiz-adv-x="785" d="M546 525 Q579 525 606 517 Q633 509 652.5 497 Q672 485 685.5 470 Q699 455 705 440 L705 269 Q699 254 685.5 239 Q672 224 652.5 212 Q633 200 606 192 Q579 184 546 184 Q513 184 488.5 191.5 Q464 199 446 211 Q428 223 415 238 Q402 253 392 268 Q382 253 369 238 Q356 223 338 211 Q320 199 295.5 191.5 Q271 184 238 184 Q205 184 178.5 192 Q152 200 132.5 212.5 Q113 225 99.5 240 Q86 255 80 270 L80 439 Q86 454 99.5 469 Q113 484 132.5 496.5 Q152 509 178.5 517 Q205 525 238 525 Q271 525 295.5 517.5 Q320 510 338 498 Q356 486 369 471 Q382 456 392 441 Q402 456 415 471 Q428 486 446 498 Q464 510 488.5 517.5 Q513 525 546 525 Z M239 240 Q273 240 297 253.5 Q321 267 330 285 L357 355 L330 424 Q321 442 297 455.5 Q273 469 239 469 Q205 469 182 455.5 Q159 442 150 424 L150 285 Q159 267 182 253.5 Q205 240 239 240 Z M634 425 Q626 442 603.5 455.5 Q581 469 547 469 Q513 469 488.5 455.5 Q464 442 454 425 L426 355 L454 284 Q464 267 488.5 253.5 Q513 240 547 240 Q581 240 603.5 253.5 Q626 267 634 284 L634 425 Z " />
<glyph glyph-name="partialdiff" unicode="&#x2202;" horiz-adv-x="548" d="M194 732 Q240 718 288 695.5 Q336 673 377.5 644.5 Q419 616 450.5 583 Q482 550 496 515 L496 119 Q487 98 470 74.5 Q453 51 426 31.5 Q399 12 361.5 -1 Q324 -14 276 -14 Q228 -14 190.5 -1 Q153 12 126 31.5 Q99 51 81.5 74.5 Q64 98 55 119 L55 356 Q62 378 78.5 401 Q95 424 120.5 443 Q146 462 181 474 Q216 486 260 486 Q314 486 347.5 471.5 Q381 457 406 438 L406 495 Q392 526 363 553.5 Q334 581 297.5 604.5 Q261 628 220.5 646.5 Q180 665 143 677 L194 732 Z M277 412 Q226 412 192 389.5 Q158 367 145 336 L145 137 Q158 107 191 83 Q224 59 275 59 Q327 59 360 83 Q393 107 406 137 L406 356 Q389 376 357 394 Q325 412 277 412 Z " />
<glyph glyph-name="integral" unicode="&#x222b;" horiz-adv-x="439" d="M337 713 Q365 713 387 709.5 Q409 706 419 703 L419 642 L368 642 Q340 642 321.5 636 Q303 630 291.5 622 Q280 614 274 604.5 Q268 595 265 588 L265 -90 Q259 -104 248 -120.5 Q237 -137 217.5 -150.5 Q198 -164 169.5 -173 Q141 -182 101 -182 Q74 -182 52 -179 Q30 -176 20 -173 L20 -111 L71 -111 Q99 -111 117.5 -105.5 Q136 -100 147.5 -91.5 Q159 -83 165 -74 Q171 -65 174 -58 L174 620 Q180 634 191 650.5 Q202 667 221 681 Q240 695 268 704 Q296 713 337 713 Z " />
<glyph glyph-name="radical" unicode="&#x221a;" horiz-adv-x="586" d="M559 650 L345 0 L235 0 L79 468 L21 468 L21 538 L150 538 L290 111 L293 111 L479 700 L559 700 L559 650 Z " />
<glyph glyph-name="summation" unicode="&#x2211;" horiz-adv-x="555" d="M353 333 L353 269 L165 -25 L510 -25 L510 -100 L44 -100 L44 -36 L259 301 L44 636 L44 700 L510 700 L510 625 L165 625 L353 333 Z " />
<glyph glyph-name="product" unicode="&#x220f;" horiz-adv-x="645" d="M470 -100 L470 625 L176 625 L176 -100 L78 -100 L78 700 L568 700 L568 -100 L470 -100 Z " />
<glyph glyph-name="lozenge" unicode="&#x25ca;" horiz-adv-x="581" d="M344 0 L245 0 L48 350 L245 700 L344 700 L542 350 L344 0 Z M295 96 L442 350 L295 604 L148 350 L295 96 Z " />
<glyph glyph-name="arrowleft" unicode="&#x2190;" horiz-adv-x="760" d="M0 376 L323 700 L383 700 L383 643 L123 388 L760 388 L760 311 L124 311 L383 57 L383 0 L323 0 L0 323 L0 376 Z " />
<glyph glyph-name="arrowright" unicode="&#x2192;" horiz-adv-x="760" d="M760 323 L437 0 L377 0 L377 57 L636 311 L0 311 L0 388 L637 388 L377 643 L377 700 L437 700 L760 376 L760 323 Z " />
<glyph glyph-name="arrowup" unicode="&#x2191;" horiz-adv-x="760" d="M730 384 L673 384 L424 636 L424 0 L338 0 L338 636 L87 384 L30 384 L30 436 L354 760 L407 760 L730 436 L730 384 Z " />
<glyph glyph-name="arrowdown" unicode="&#x2193;" horiz-adv-x="760" d="M730 264 L407 -60 L354 -60 L30 264 L30 316 L87 316 L338 64 L338 700 L424 700 L424 64 L673 316 L730 316 L730 264 Z " />
<glyph glyph-name="uni0410" unicode="&#x410;" horiz-adv-x="609" d="M580 0 L496 0 L434 197 L168 197 L106 0 L30 0 L30 60 L238 700 L371 700 L580 60 L580 0 Z M303 617 L300 617 L192 274 L410 274 L303 617 Z " />
<glyph glyph-name="uni0411" unicode="&#x411;" horiz-adv-x="581" d="M338 424 Q368 424 398 415.5 Q428 407 454.5 392 Q481 377 503 356.5 Q525 336 539 311 L539 119 Q528 98 510 77 Q492 56 466.5 38.5 Q441 21 408.5 10.5 Q376 0 336 0 L73 0 L73 700 L526 700 L526 622 L171 622 L171 424 L338 424 Z M448 278 Q431 307 396.5 326.5 Q362 346 323 346 L171 346 L171 78 L315 78 Q369 78 400 99 Q431 120 448 151 L448 278 Z " />
<glyph glyph-name="uni0412" unicode="&#x412;" horiz-adv-x="590" d="M439 369 Q466 358 495.5 335 Q525 312 542 283 L542 119 Q530 98 512 77 Q494 56 469 38.5 Q444 21 411.5 10.5 Q379 0 338 0 L73 0 L73 700 L332 700 Q367 700 397 690.5 Q427 681 452 664.5 Q477 648 495.5 626.5 Q514 605 527 582 L527 450 Q513 427 489 404.5 Q465 382 439 369 Z M320 401 Q353 401 384.5 419.5 Q416 438 436 468 L436 552 Q419 584 386 603 Q353 622 311 622 L171 622 L171 401 L320 401 Z M451 259 Q434 288 399.5 307 Q365 326 326 326 L171 326 L171 78 L317 78 Q372 78 403 98 Q434 118 451 149 L451 259 Z " />
<glyph glyph-name="uni0413" unicode="&#x413;" horiz-adv-x="497" d="M171 622 L171 0 L73 0 L73 700 L472 700 L472 622 L171 622 Z " />
<glyph glyph-name="uni0414" unicode="&#x414;" horiz-adv-x="689" d="M658 -135 L573 -135 L573 0 L111 0 L111 -135 L26 -135 L26 78 Q42 82 58.5 90 Q75 98 89 108.5 Q103 119 113 131 Q123 143 128 154 L191 700 L577 700 L577 78 L658 78 L658 -135 Z M479 622 L272 622 L218 136 Q201 101 158 78 L479 78 L479 622 Z " />
<glyph glyph-name="uni0415" unicode="&#x415;" horiz-adv-x="539" d="M171 622 L171 399 L463 399 L463 322 L171 322 L171 78 L493 78 L493 0 L73 0 L73 700 L484 700 L484 622 L171 622 Z " />
<glyph glyph-name="uni0416" unicode="&#x416;" horiz-adv-x="858" d="M654 370 L825 60 L825 0 L748 0 L574 327 L476 327 L476 0 L382 0 L382 327 L283 327 L109 0 L31 0 L31 60 L203 371 L40 640 L40 700 L111 700 L284 404 L382 404 L382 700 L476 700 L476 404 L574 404 L746 700 L818 700 L818 640 L654 370 Z " />
<glyph glyph-name="uni0417" unicode="&#x417;" horiz-adv-x="597" d="M537 463 Q525 440 498.5 410 Q472 380 427 359 Q449 349 467 336 Q485 323 498.5 309 Q512 295 521.5 281 Q531 267 537 256 L537 118 Q527 100 509 77 Q491 54 461.5 34 Q432 14 391 0 Q350 -14 295 -14 Q239 -14 198 0 Q157 14 127.5 34.5 Q98 55 79.5 78 Q61 101 52 118 L52 172 L136 172 Q142 152 155 132.5 Q168 113 188 98 Q208 83 235 73.5 Q262 64 295 64 Q325 64 349.5 71.5 Q374 79 392 91 Q410 103 422.5 117.5 Q435 132 442 145 L442 239 Q436 252 423.5 266.5 Q411 281 392.5 293.5 Q374 306 349.5 314 Q325 322 294 321 L216 321 L216 398 L294 398 Q325 397 349.5 404.5 Q374 412 392.5 424 Q411 436 423.5 450.5 Q436 465 442 478 L442 555 Q435 568 422.5 582.5 Q410 597 392 609 Q374 621 349.5 628.5 Q325 636 295 636 Q262 636 235 626.5 Q208 617 188 602 Q168 587 155 567.5 Q142 548 136 528 L52 528 L52 582 Q61 599 79.5 622 Q98 645 127.5 665.5 Q157 686 198 700 Q239 714 295 714 Q350 714 391 700 Q432 686 461.5 666 Q491 646 509 623 Q527 600 537 582 L537 463 Z " />
<glyph glyph-name="uni0418" unicode="&#x418;" horiz-adv-x="661" d="M496 0 L496 559 L493 559 L178 0 L73 0 L73 700 L165 700 L165 141 L168 141 L483 700 L588 700 L588 0 L496 0 Z " />
<glyph glyph-name="uni0419" unicode="&#x419;" horiz-adv-x="661" d="M496 0 L496 559 L493 559 L178 0 L73 0 L73 700 L165 700 L165 141 L168 141 L483 700 L588 700 L588 0 L496 0 Z M476 819 Q469 805 457.5 791.5 Q446 778 428.5 767 Q411 756 386.5 749 Q362 742 331 742 Q299 742 275 749 Q251 756 233 767 Q215 778 203.5 791.5 Q192 805 185 819 L185 875 L254 875 L254 838 Q256 833 261 826.5 Q266 820 275.5 813.5 Q285 807 298.5 802.5 Q312 798 331 798 Q349 798 362.5 802.5 Q376 807 385.5 813.5 Q395 820 400 826.5 Q405 833 407 838 L407 875 L476 875 L476 819 Z " />
<glyph glyph-name="uni041A" unicode="&#x41a;" horiz-adv-x="573" d="M341 369 L542 60 L542 0 L465 0 L261 327 L168 327 L168 0 L70 0 L70 700 L168 700 L168 404 L260 404 L462 700 L533 700 L533 640 L341 369 Z " />
<glyph glyph-name="uni041B" unicode="&#x41b;" horiz-adv-x="644" d="M473 0 L473 622 L267 622 L206 80 Q182 39 138.5 17.5 Q95 -4 20 -4 L20 75 Q58 75 84 90.5 Q110 106 119 126 L184 700 L571 700 L571 0 L473 0 Z " />
<glyph glyph-name="uni041C" unicode="&#x41c;" horiz-adv-x="758" d="M593 0 L593 568 L590 568 L415 182 L343 182 L168 568 L165 568 L165 0 L73 0 L73 700 L200 700 L380 307 L383 307 L560 700 L686 700 L686 0 L593 0 Z " />
<glyph glyph-name="uni041D" unicode="&#x41d;" horiz-adv-x="647" d="M475 0 L475 322 L171 322 L171 0 L73 0 L73 700 L171 700 L171 400 L475 400 L475 700 L573 700 L573 0 L475 0 Z " />
<glyph glyph-name="uni041E" unicode="&#x41e;" horiz-adv-x="626" d="M313 714 Q368 714 410.5 699.5 Q453 685 483.5 662.5 Q514 640 534 613.5 Q554 587 565 562 L565 139 Q554 114 534 87 Q514 60 483.5 37.5 Q453 15 410.5 0.5 Q368 -14 313 -14 Q257 -14 215 0.5 Q173 15 142.5 37.5 Q112 60 92 87 Q72 114 61 139 L61 562 Q72 587 92 613.5 Q112 640 142.5 662.5 Q173 685 215 699.5 Q257 714 313 714 Z M313 636 Q252 636 213 607.5 Q174 579 159 541 L159 160 Q174 122 213 93.5 Q252 65 313 65 Q375 65 413.5 93.5 Q452 122 467 160 L467 541 Q452 579 413.5 607.5 Q375 636 313 636 Z " />
<glyph glyph-name="uni041F" unicode="&#x41f;" horiz-adv-x="636" d="M466 0 L466 622 L171 622 L171 0 L73 0 L73 700 L564 700 L564 0 L466 0 Z " />
<glyph glyph-name="uni0420" unicode="&#x420;" horiz-adv-x="572" d="M328 700 Q391 700 444 669.5 Q497 639 529 582 L529 393 Q502 344 451 309.5 Q400 275 328 275 L171 275 L171 0 L73 0 L73 700 L328 700 Z M171 353 L306 353 Q347 353 380.5 371.5 Q414 390 433 425 L433 550 Q412 590 376.5 606 Q341 622 306 622 L171 622 L171 353 Z " />
<glyph glyph-name="uni0421" unicode="&#x421;" horiz-adv-x="605" d="M313 714 Q368 714 410 700 Q452 686 482 664 Q512 642 531.5 616.5 Q551 591 562 568 L562 514 L479 514 Q471 538 457.5 560.5 Q444 583 423.5 599.5 Q403 616 375.5 626 Q348 636 313 636 Q252 636 213.5 607.5 Q175 579 159 541 L159 159 Q175 121 213.5 92.5 Q252 64 313 64 Q348 64 375.5 74 Q403 84 423.5 100.5 Q444 117 457.5 139.5 Q471 162 479 186 L562 186 L562 132 Q551 109 531.5 83.5 Q512 58 482 36 Q452 14 410 0 Q368 -14 313 -14 Q257 -14 215 0.5 Q173 15 142.5 37.5 Q112 60 92 86.5 Q72 113 61 138 L61 562 Q72 587 92 613.5 Q112 640 142.5 662.5 Q173 685 215 699.5 Q257 714 313 714 Z " />
<glyph glyph-name="uni0422" unicode="&#x422;" horiz-adv-x="530" d="M314 622 L314 0 L216 0 L216 622 L25 622 L25 700 L505 700 L505 622 L314 622 Z " />
<glyph glyph-name="uni0423" unicode="&#x423;" horiz-adv-x="560" d="M525 640 L296 64 Q266 25 226 10 Q186 -5 133 -5 Q117 -5 105 -4 Q93 -3 85 -1 L85 72 Q88 72 99.5 71 Q111 70 122 70 Q154 70 179 78.5 Q204 87 219 107 L244 173 L36 640 L36 700 L112 700 L292 282 L450 700 L525 700 L525 640 Z " />
<glyph glyph-name="uni0424" unicode="&#x424;" horiz-adv-x="737" d="M446 645 Q481 645 516 634.5 Q551 624 582 606 Q613 588 637.5 563.5 Q662 539 677 510 L677 190 Q662 161 637.5 136.5 Q613 112 582 94 Q551 76 516 65.5 Q481 55 446 55 L413 55 L413 -40 L325 -40 L325 55 L292 55 Q257 55 222 65.5 Q187 76 156.5 94 Q126 112 101 136.5 Q76 161 61 190 L61 510 Q76 539 101 563.5 Q126 588 156.5 606 Q187 624 222 634.5 Q257 645 292 645 L325 645 L325 740 L413 740 L413 645 L446 645 Z M325 569 L302 569 Q281 569 258.5 563 Q236 557 215.5 546.5 Q195 536 178.5 521.5 Q162 507 152 489 L152 211 Q162 193 178.5 178 Q195 163 215.5 152.5 Q236 142 258.5 136.5 Q281 131 302 131 L325 131 L325 569 Z M586 489 Q576 507 559.5 521.5 Q543 536 522.5 546.5 Q502 557 479.5 563 Q457 569 436 569 L413 569 L413 131 L436 131 Q457 131 479.5 136.5 Q502 142 522.5 152.5 Q543 163 559.5 178 Q576 193 586 211 L586 489 Z " />
<glyph glyph-name="uni0425" unicode="&#x425;" horiz-adv-x="584" d="M358 359 L540 60 L540 0 L461 0 L291 294 L288 294 L116 0 L43 0 L43 60 L225 358 L51 640 L51 700 L129 700 L294 419 L297 419 L460 700 L533 700 L533 640 L358 359 Z " />
<glyph glyph-name="uni0426" unicode="&#x426;" horiz-adv-x="675" d="M645 78 L645 -135 L560 -135 L560 0 L73 0 L73 700 L171 700 L171 78 L466 78 L466 700 L564 700 L564 78 L645 78 Z " />
<glyph glyph-name="uni0427" unicode="&#x427;" horiz-adv-x="624" d="M550 0 L452 0 L452 295 Q423 273 381.5 259 Q340 245 286 245 Q239 245 202.5 255 Q166 265 138.5 280.5 Q111 296 93 314 Q75 332 65 347 L65 700 L163 700 L163 379 Q169 370 180 359.5 Q191 349 208.5 340 Q226 331 250 325 Q274 319 304 319 Q354 319 392.5 335.5 Q431 352 452 373 L452 700 L550 700 L550 0 Z " />
<glyph glyph-name="uni0428" unicode="&#x428;" horiz-adv-x="910" d="M73 0 L73 700 L171 700 L171 78 L406 78 L406 700 L504 700 L504 78 L739 78 L739 700 L837 700 L837 0 L73 0 Z " />
<glyph glyph-name="uni0429" unicode="&#x429;" horiz-adv-x="948" d="M919 78 L919 -135 L834 -135 L834 0 L73 0 L73 700 L171 700 L171 78 L406 78 L406 700 L504 700 L504 78 L739 78 L739 700 L837 700 L837 78 L919 78 Z " />
<glyph glyph-name="uni042A" unicode="&#x42a;" horiz-adv-x="676" d="M429 427 Q460 427 490 418.5 Q520 410 546.5 395 Q573 380 594.5 359.5 Q616 339 630 315 L630 119 Q619 98 601 77 Q583 56 557.5 38.5 Q532 21 500 10.5 Q468 0 428 0 L165 0 L165 624 L25 624 L25 700 L263 700 L263 427 L429 427 Z M263 78 L407 78 Q461 78 491.5 99 Q522 120 539 151 L539 282 Q522 311 487.5 330.5 Q453 350 414 350 L263 350 L263 78 Z " />
<glyph glyph-name="uni042B" unicode="&#x42b;" horiz-adv-x="797" d="M321 427 Q352 427 382.5 418.5 Q413 410 439.5 395 Q466 380 487.5 359.5 Q509 339 523 315 L523 119 Q512 98 493.5 77 Q475 56 450 38.5 Q425 21 392.5 10.5 Q360 0 320 0 L73 0 L73 700 L171 700 L171 427 L321 427 Z M626 0 L626 700 L724 700 L724 0 L626 0 Z M171 78 L299 78 Q353 78 384 99 Q415 120 433 151 L433 282 Q416 311 380.5 330.5 Q345 350 307 350 L171 350 L171 78 Z " />
</font>
</svg>
