<?xml version="1.0" standalone="no"?>
<!DOCTYPE svg PUBLIC "-//W3C//DTD SVG 1.1//EN" "http://www.w3.org/Graphics/SVG/1.1/DTD/svg11.dtd" >
<svg xmlns="http://www.w3.org/2000/svg" xmlns:xlink="http://www.w3.org/1999/xlink" version="1.1">
<metadata>
Created by FontForge 20160407 at Fri Oct 28 14:59:52 2016
 By Jimmy Warting
Copyright (C) 2001, 2008 Hoefler &#38; Frere-Jones. http://www.typography.com
</metadata>
<defs>
<font id="GothamXNarrow-Medium" horiz-adv-x="300" >
  <font-face 
    font-family="Gotham XNarrow Medium"
    font-weight="350"
    font-stretch="condensed"
    units-per-em="1000"
    panose-1="0 0 0 0 0 0 0 0 0 0"
    ascent="800"
    descent="-200"
    x-height="532"
    cap-height="700"
    bbox="-168 -234 926 959"
    underline-thickness="50"
    underline-position="-100"
    stemh="96"
    stemv="104"
    unicode-range="U+0020-FB04"
  />
<missing-glyph horiz-adv-x="500" 
d="M0 -200v1000h500v-1000h-500zM71 750l179 -390l179 390h-358zM50 -76l172 376l-172 376v-752zM450 676l-172 -376l172 -376v752zM250 240l-179 -390h358z" />
    <glyph glyph-name="f_f" unicode="ff" horiz-adv-x="551" 
d="M346 0v444h-47v86h47v43c0 50 12 86 37 110c22 22 57 34 100 34c26 0 44 -3 60 -7v-88c-12 3 -23 5 -36 5c-37 0 -57 -21 -57 -65v-32h92v-86h-91v-444h-105zM71 0v444h-49v86h49v43c0 50 12 86 35 110c24 22 58 34 102 34c24 0 43 -3 59 -7v-88c-12 3 -23 5 -36 5
c-36 0 -57 -21 -57 -65v-32h91v-86h-90v-444h-104z" />
    <glyph glyph-name="fi" unicode="fi" horiz-adv-x="492" 
d="M71 0v444h-49v86h49v43c0 50 12 86 35 110c24 22 58 34 102 34c24 0 43 -3 59 -7v-88c-12 3 -23 5 -36 5c-36 0 -57 -21 -57 -65v-32h92v-86h-91v-444h-104zM333 0v532h104v-532h-104zM330 605v107h109v-107h-109z" />
    <glyph glyph-name="fl" unicode="fl" horiz-adv-x="492" 
d="M71 0v444h-49v86h49v43c0 50 12 86 35 110c24 22 58 34 102 34c24 0 43 -3 59 -7v-88c-12 3 -23 5 -36 5c-36 0 -57 -21 -57 -65v-32h92v-86h-91v-444h-104zM333 0v714h104v-714h-104z" />
    <glyph glyph-name="f_f_i" unicode="ffi" horiz-adv-x="766" 
d="M346 0v444h-47v86h47v43c0 50 12 86 37 110c22 22 57 34 100 34c26 0 44 -3 60 -7v-88c-12 3 -23 5 -36 5c-37 0 -57 -21 -57 -65v-32h92v-86h-91v-444h-105zM71 0v444h-49v86h49v43c0 50 12 86 35 110c24 22 58 34 102 34c24 0 43 -3 59 -7v-88c-12 3 -23 5 -36 5
c-36 0 -57 -21 -57 -65v-32h91v-86h-90v-444h-104zM607 0v532h104v-532h-104zM604 605v107h109v-107h-109z" />
    <glyph glyph-name="f_f_l" unicode="ffl" horiz-adv-x="766" 
d="M346 0v444h-47v86h47v43c0 50 12 86 37 110c22 22 57 34 100 34c26 0 44 -3 60 -7v-88c-12 3 -23 5 -36 5c-37 0 -57 -21 -57 -65v-32h92v-86h-91v-444h-105zM71 0v444h-49v86h49v43c0 50 12 86 35 110c24 22 58 34 102 34c24 0 43 -3 59 -7v-88c-12 3 -23 5 -36 5
c-36 0 -57 -21 -57 -65v-32h91v-86h-90v-444h-104zM607 0v714h104v-714h-104z" />
    <glyph glyph-name=".notdef" horiz-adv-x="500" 
d="M0 -200v1000h500v-1000h-500zM71 750l179 -390l179 390h-358zM50 -76l172 376l-172 376v-752zM450 676l-172 -376l172 -376v752zM250 240l-179 -390h358z" />
    <glyph glyph-name="A" unicode="A" horiz-adv-x="543" 
d="M17 0l200 703h109l201 -703h-111l-44 161h-205l-43 -161h-107zM193 257h153l-76 281z" />
    <glyph glyph-name="B" unicode="B" horiz-adv-x="509" 
d="M60 0v700h178c73 0 135 -19 174 -59c31 -30 47 -69 47 -118v-4c0 -90 -52 -135 -106 -159c72 -25 126 -71 126 -164v-5c0 -123 -96 -191 -239 -191h-180zM352 503v1c0 63 -42 98 -112 98h-74v-202h68c73 0 118 37 118 103zM372 202c0 65 -47 105 -127 105h-79v-209h81
c75 0 125 37 125 103v1z" />
    <glyph glyph-name="C" unicode="C" horiz-adv-x="481" 
d="M291 -8c-150 0 -251 123 -251 351v14c0 227 112 351 258 351c69 0 119 -26 159 -64l-61 -86c-28 27 -60 47 -99 47c-82 0 -147 -90 -147 -252v-5c0 -170 68 -253 145 -253c42 0 74 20 106 52l58 -83c-48 -46 -103 -72 -168 -72z" />
    <glyph glyph-name="D" unicode="D" horiz-adv-x="547" 
d="M60 0v700h161c177 0 288 -128 288 -342v-15c0 -214 -111 -343 -288 -343h-161zM219 602h-51v-504h51c107 0 179 81 179 246v11c0 166 -73 247 -179 247z" />
    <glyph glyph-name="E" unicode="E" horiz-adv-x="453" 
d="M60 0v700h353v-100h-246v-198h219v-99h-219v-203h250v-100h-357z" />
    <glyph glyph-name="F" unicode="F" horiz-adv-x="435" 
d="M60 0v700h347v-100h-239v-204h211v-101h-211v-295h-108z" />
    <glyph glyph-name="G" unicode="G" horiz-adv-x="541" 
d="M311 -8c-156 0 -271 122 -271 351v14c0 216 115 351 275 351c65 0 119 -19 170 -62l-60 -89c-23 25 -58 49 -109 49c-95 0 -166 -93 -166 -249v-12c0 -172 74 -254 168 -254c29 0 55 8 72 20v181h-111v95h212v-337c-49 -32 -108 -58 -180 -58z" />
    <glyph glyph-name="H" unicode="H" horiz-adv-x="544" 
d="M60 0v700h108v-297h208v297h108v-700h-108v302h-208v-302h-108z" />
    <glyph glyph-name="I" unicode="I" horiz-adv-x="236" 
d="M65 0v700h107v-700h-107z" />
    <glyph glyph-name="J" unicode="J" horiz-adv-x="379" 
d="M149 -8c-57 0 -110 27 -141 71l64 75c20 -27 42 -43 74 -43c43 0 72 30 72 97v508h107v-513c0 -66 -17 -115 -50 -147c-31 -31 -74 -48 -126 -48z" />
    <glyph glyph-name="K" unicode="K" horiz-adv-x="514" 
d="M60 0v700h108v-335l202 335h125l-190 -300l200 -400h-124l-152 298l-61 -97v-201h-108z" />
    <glyph glyph-name="L" unicode="L" horiz-adv-x="413" 
d="M60 0v700h108v-600h224v-100h-332z" />
    <glyph glyph-name="M" unicode="M" horiz-adv-x="623" 
d="M60 0v700h111l141 -311l141 311h111v-700h-105v487l-146 -317h-3l-146 316v-486h-104z" />
    <glyph glyph-name="N" unicode="N" horiz-adv-x="558" 
d="M60 0v700h101l233 -446v446h105v-700h-94l-240 462v-462h-105z" />
    <glyph glyph-name="O" unicode="O" horiz-adv-x="574" 
d="M287 -10c-147 0 -247 130 -247 350v20c0 220 101 350 247 350c147 0 247 -130 247 -350v-19c0 -220 -101 -351 -247 -351zM287 89c78 0 137 87 137 254v13c0 167 -59 255 -137 255s-137 -87 -137 -254v-13c0 -167 59 -255 137 -255z" />
    <glyph glyph-name="P" unicode="P" horiz-adv-x="484" 
d="M60 0v700h165c143 0 236 -82 236 -232v-2c0 -153 -99 -233 -235 -237h-58v-229h-108zM168 327h53c85 0 131 54 131 137v1c0 87 -45 136 -130 136h-54v-274z" />
    <glyph glyph-name="Q" unicode="Q" horiz-adv-x="577" 
d="M551 47l-62 -66l-62 62c-39 -34 -87 -53 -139 -53c-148 0 -248 130 -248 350v20c0 220 101 350 247 350c147 0 247 -130 247 -350v-19c0 -93 -19 -171 -53 -230zM292 88c24 0 47 7 66 23l-84 80l60 66l70 -70c13 38 20 89 20 154v17c0 167 -59 253 -137 253
s-137 -85 -137 -252v-17c0 -174 59 -254 142 -254z" />
    <glyph glyph-name="Q.alt" horiz-adv-x="574" 
d="M437 -91l-76 93c-23 -7 -48 -12 -74 -12c-147 0 -247 130 -247 350v20c0 220 101 350 247 350c147 0 247 -130 247 -350v-19c0 -122 -32 -217 -84 -277l120 -154v-1h-133zM287 89c78 0 137 87 137 254v13c0 167 -59 255 -137 255s-137 -87 -137 -254v-13
c0 -167 59 -255 137 -255z" />
    <glyph glyph-name="R" unicode="R" horiz-adv-x="513" 
d="M60 0v700h186c72 0 132 -21 172 -61c36 -36 57 -90 57 -158v-5c0 -103 -51 -166 -120 -197l136 -279h-121l-121 252c-5 -1 -9 -1 -13 -1h-68v-251h-108zM168 348h63c94 0 136 51 136 127c0 84 -48 126 -131 126h-68v-253z" />
    <glyph glyph-name="S" unicode="S" horiz-adv-x="446" 
d="M215 -8c-69 0 -141 24 -207 90l65 84c35 -34 82 -74 141 -74c58 0 95 40 95 90v1c0 38 -18 68 -107 121c-115 67 -166 122 -166 213v2c0 110 82 189 202 189c58 0 126 -21 181 -77l-66 -83c-31 31 -72 60 -120 60c-52 0 -88 -34 -88 -79v-1c0 -42 19 -70 121 -132
c110 -66 152 -121 152 -208v-2c0 -113 -88 -194 -203 -194z" />
    <glyph glyph-name="T" unicode="T" horiz-adv-x="437" 
d="M164 0v599h-140v101h389v-101h-141v-599h-108z" />
    <glyph glyph-name="U" unicode="U" horiz-adv-x="539" 
d="M269 -10c-128 0 -215 82 -215 244v466h108v-471c0 -93 42 -139 108 -139s108 45 108 138v472h107v-465c0 -163 -87 -245 -216 -245z" />
    <glyph glyph-name="V" unicode="V" horiz-adv-x="516" 
d="M206 -4l-189 704h114l129 -518l129 518h110l-189 -704h-104z" />
    <glyph glyph-name="W" unicode="W" horiz-adv-x="787" 
d="M179 -4l-159 704h113l102 -497l111 498h96l111 -498l102 497h111l-159 -704h-104l-110 485l-111 -485h-103z" />
    <glyph glyph-name="X" unicode="X" horiz-adv-x="508" 
d="M362 700h117l-163 -340l171 -360h-119l-115 264l-116 -264h-116l170 358l-162 342h119l106 -248z" />
    <glyph glyph-name="Y" unicode="Y" horiz-adv-x="498" 
d="M195 0v281l-187 419h117l125 -295l125 295h115l-187 -418v-282h-108z" />
    <glyph glyph-name="Z" unicode="Z" horiz-adv-x="471" 
d="M40 0v82l265 520h-256v98h384v-81l-266 -521h266v-98h-393z" />
    <glyph glyph-name="a" unicode="a" horiz-adv-x="428" 
d="M160 -9c-75 0 -134 61 -134 160v10c0 113 62 170 156 170c38 0 68 -9 98 -21v33c0 67 -38 100 -96 100c-42 0 -81 -19 -100 -32l-33 86c43 23 91 41 148 41s103 -17 134 -48c32 -32 49 -81 49 -143v-347h-103v64c-26 -46 -65 -73 -119 -73zM194 73c48 -1 86 40 86 92v73
c-20 9 -47 16 -74 16c-50 0 -79 -34 -79 -90v-4c0 -55 27 -85 67 -87z" />
    <glyph glyph-name="a.alt" horiz-adv-x="478" 
d="M196 -10c-85 0 -161 79 -161 262v27c0 183 75 262 161 262c65 0 101 -44 127 -88v79h104v-532h-104v81c-25 -46 -62 -91 -127 -91zM229 86c53 0 95 64 95 171v18c0 106 -42 171 -95 171c-52 0 -89 -62 -89 -172v-16c0 -110 37 -172 89 -172z" />
    <glyph glyph-name="b" unicode="b" horiz-adv-x="478" 
d="M282 -10c-65 0 -102 44 -127 88v-78h-104v714h104v-264c25 46 62 91 127 91c85 0 161 -78 161 -262v-26c0 -183 -75 -263 -161 -263zM249 86c52 0 89 62 89 172v16c0 110 -37 172 -89 172c-53 0 -95 -64 -95 -171v-18c0 -107 42 -171 95 -171z" />
    <glyph glyph-name="c" unicode="c" horiz-adv-x="380" 
d="M230 -10c-117 0 -197 97 -197 264v20c0 167 87 267 204 267c49 0 87 -18 125 -49l-49 -86c-18 18 -41 38 -74 38c-58 0 -101 -65 -101 -176v-7c0 -113 41 -175 102 -174c32 0 53 17 73 40l49 -79c-31 -34 -75 -58 -132 -58z" />
    <glyph glyph-name="d" unicode="d" horiz-adv-x="478" 
d="M196 -10c-85 0 -161 79 -161 262v27c0 183 75 262 161 262c65 0 101 -44 127 -88v261h104v-714h-104v81c-25 -46 -62 -91 -127 -91zM229 86c53 0 95 64 95 171v18c0 106 -42 171 -95 171c-52 0 -89 -62 -89 -172v-16c0 -110 37 -172 89 -172z" />
    <glyph glyph-name="e" unicode="e" horiz-adv-x="434" 
d="M242 -10c-117 0 -210 97 -210 267v14c0 167 83 270 190 270c117 0 183 -106 183 -272c0 -4 0 -26 -1 -47h-269c8 -92 55 -140 115 -140c39 0 70 22 97 49l47 -78c-45 -40 -93 -63 -152 -63zM134 299h171c-3 91 -32 152 -83 152c-48 0 -83 -54 -88 -152z" />
    <glyph glyph-name="f" unicode="f" horiz-adv-x="275" 
d="M71 0v444h-49v86h49v43c0 50 12 86 35 110c24 22 58 34 102 34c24 0 43 -3 59 -7v-88c-12 3 -23 5 -36 5c-36 0 -57 -21 -57 -65v-32h92v-86h-91v-444h-104z" />
    <glyph glyph-name="g" unicode="g" horiz-adv-x="478" 
d="M214 -142c-59 0 -109 11 -162 35l29 86c32 -19 84 -32 125 -32c75 0 117 35 117 114v64c-27 -47 -64 -90 -129 -90c-86 0 -159 77 -159 250v5c0 174 74 251 159 251c65 0 102 -43 129 -87v78h104v-471c0 -68 -17 -116 -51 -150c-37 -37 -91 -53 -162 -53zM229 129
c52 0 95 58 95 158v2c0 100 -43 158 -95 158c-51 0 -89 -57 -89 -158v-2c0 -102 38 -158 89 -158z" />
    <glyph glyph-name="h" unicode="h" horiz-adv-x="457" 
d="M51 0v714h104v-255c25 44 60 82 122 82c84 0 134 -62 134 -165v-376h-104v348c0 66 -27 100 -73 100s-79 -38 -79 -101v-347h-104z" />
    <glyph glyph-name="i" unicode="i" horiz-adv-x="215" 
d="M53 605v107h108v-107h-108zM55 0v532h104v-532h-104z" />
    <glyph glyph-name="j" unicode="j" horiz-adv-x="217" 
d="M56 605v107h108v-107h-108zM31 -143c-20 0 -31 2 -46 5v83c6 -1 13 -2 20 -2c35 0 53 20 53 62v527h104v-538c0 -90 -45 -137 -131 -137z" />
    <glyph glyph-name="k" unicode="k" horiz-adv-x="426" 
d="M51 0v714h104v-414l138 232h118l-136 -216l139 -316h-117l-96 226l-46 -72v-154h-104z" />
    <glyph glyph-name="l" unicode="l" horiz-adv-x="215" 
d="M55 0v714h104v-714h-104z" />
    <glyph glyph-name="m" unicode="m" horiz-adv-x="703" 
d="M51 0v532h104v-73c26 47 62 82 120 82c53 0 92 -28 115 -76c28 40 66 76 128 76c78 0 136 -56 136 -165v-376h-104v347c0 67 -25 101 -70 101c-44 0 -75 -37 -75 -102v-346h-105v347c0 67 -25 101 -69 101s-76 -39 -76 -102v-346h-104z" />
    <glyph glyph-name="n" unicode="n" horiz-adv-x="457" 
d="M51 0v532h104v-73c25 44 60 82 122 82c84 0 134 -62 134 -165v-376h-104v348c0 66 -27 100 -73 100s-79 -38 -79 -101v-347h-104z" />
    <glyph glyph-name="o" unicode="o" horiz-adv-x="468" 
d="M234 -10c-117 0 -201 103 -201 266v17c0 163 85 268 201 268s201 -104 201 -267v-17c0 -163 -85 -267 -201 -267zM234 82c59 0 97 71 97 178v10c0 107 -39 178 -97 178c-59 0 -97 -70 -97 -178v-10c0 -107 39 -178 97 -178z" />
    <glyph glyph-name="p" unicode="p" horiz-adv-x="478" 
d="M51 -140v672h104v-82c25 46 62 91 127 91c85 0 161 -78 161 -262v-26c0 -183 -75 -263 -161 -263c-65 0 -102 44 -127 88v-218h-104zM249 86c52 0 89 62 89 172v16c0 110 -37 172 -89 172c-53 0 -95 -64 -95 -171v-18c0 -107 42 -171 95 -171z" />
    <glyph glyph-name="q" unicode="q" horiz-adv-x="478" 
d="M323 -140v221c-25 -46 -62 -91 -127 -91c-85 0 -161 79 -161 262v27c0 183 75 262 161 262c65 0 101 -44 127 -88v79h104v-672h-104zM229 86c53 0 95 64 95 171v18c0 106 -42 171 -95 171c-52 0 -89 -62 -89 -172v-16c0 -110 37 -172 89 -172z" />
    <glyph glyph-name="r" unicode="r" horiz-adv-x="301" 
d="M51 0v532h104v-86c22 56 62 96 127 92v-117h-3c-75 0 -124 -49 -124 -149v-272h-104z" />
    <glyph glyph-name="s" unicode="s" horiz-adv-x="359" 
d="M173 -9c-51 0 -112 18 -167 68l51 79c38 -35 77 -57 116 -57c42 0 64 26 64 58v1c0 33 -25 54 -88 90c-81 47 -121 87 -121 159v2c0 90 67 148 160 148c50 0 103 -19 147 -54l-48 -80c-27 24 -61 44 -100 44c-38 0 -60 -23 -60 -51v-2c0 -31 25 -51 88 -88
c87 -52 122 -94 122 -162v-1c0 -96 -72 -154 -164 -154z" />
    <glyph glyph-name="t" unicode="t" horiz-adv-x="296" 
d="M190 -7c-68 0 -121 26 -121 116v335h-47v88h47v141h105v-141h93v-88h-93v-309c0 -35 17 -49 47 -49c15 0 31 4 45 11v-85c-20 -11 -47 -19 -76 -19z" />
    <glyph glyph-name="u" unicode="u" horiz-adv-x="457" 
d="M181 -10c-84 0 -134 63 -134 165v377h104v-348c0 -67 27 -100 73 -100s78 37 78 100v348h104v-532h-104v73c-25 -45 -60 -83 -121 -83z" />
    <glyph glyph-name="v" unicode="v" horiz-adv-x="436" 
d="M169 -3l-150 535h107l93 -383l94 383h105l-150 -535h-99z" />
    <glyph glyph-name="w" unicode="w" horiz-adv-x="639" 
d="M143 -3l-121 535h106l71 -353l77 353h88l77 -353l72 353h104l-122 -535h-98l-78 346l-78 -346h-98z" />
    <glyph glyph-name="x" unicode="x" horiz-adv-x="427" 
d="M134 532l79 -179l81 179h107l-128 -258l134 -274h-111l-84 191l-84 -191h-109l133 273l-128 259h110z" />
    <glyph glyph-name="y" unicode="y" horiz-adv-x="436" 
d="M221 154l90 378h106l-146 -532c-30 -107 -69 -144 -138 -144c-25 0 -58 8 -86 24l23 83c14 -9 33 -16 50 -16c24 0 41 12 52 52l-153 533h107z" />
    <glyph glyph-name="z" unicode="z" horiz-adv-x="380" 
d="M28 0v72l205 372h-197v88h317v-73l-205 -372h204v-87h-324z" />
    <glyph glyph-name="Aacute" unicode="&#xc1;" horiz-adv-x="543" 
d="M17 0l200 703h109l201 -703h-111l-44 161h-205l-43 -161h-107zM193 257h153l-76 281zM227 747l91 130l94 -44l-106 -86h-79z" />
    <glyph glyph-name="aacute" unicode="&#xe1;" horiz-adv-x="428" 
d="M160 -9c-75 0 -134 61 -134 160v10c0 113 62 170 156 170c38 0 68 -9 98 -21v33c0 67 -38 100 -96 100c-42 0 -81 -19 -100 -32l-33 86c43 23 91 41 148 41s103 -17 134 -48c32 -32 49 -81 49 -143v-347h-103v64c-26 -46 -65 -73 -119 -73zM194 73c48 -1 86 40 86 92v73
c-20 9 -47 16 -74 16c-50 0 -79 -34 -79 -90v-4c0 -55 27 -85 67 -87zM170 582l88 149l89 -45l-104 -104h-73z" />
    <glyph glyph-name="aacute.alt" horiz-adv-x="478" 
d="M203 582l88 149l89 -45l-104 -104h-73zM196 -10c-85 0 -161 79 -161 262v27c0 183 75 262 161 262c65 0 101 -44 127 -88v79h104v-532h-104v81c-25 -46 -62 -91 -127 -91zM229 86c53 0 95 64 95 171v18c0 106 -42 171 -95 171c-52 0 -89 -62 -89 -172v-16
c0 -110 37 -172 89 -172z" />
    <glyph glyph-name="Abreve" unicode="&#x102;" horiz-adv-x="543" 
d="M17 0l200 703h109l201 -703h-111l-44 161h-205l-43 -161h-107zM193 257h153l-76 281zM271 745c-73 0 -128 38 -132 113h70c7 -29 26 -43 62 -43c35 0 55 14 62 43h71c-6 -75 -60 -113 -133 -113z" />
    <glyph glyph-name="abreve" unicode="&#x103;" horiz-adv-x="428" 
d="M160 -9c-75 0 -134 61 -134 160v10c0 113 62 170 156 170c38 0 68 -9 98 -21v33c0 67 -38 100 -96 100c-42 0 -81 -19 -100 -32l-33 86c43 23 91 41 148 41s103 -17 134 -48c32 -32 49 -81 49 -143v-347h-103v64c-26 -46 -65 -73 -119 -73zM194 73c48 -1 86 40 86 92v73
c-20 9 -47 16 -74 16c-50 0 -79 -34 -79 -90v-4c0 -55 27 -85 67 -87zM214 579c-71 0 -125 41 -132 123h69c7 -32 26 -53 63 -53s56 21 63 53h69c-7 -82 -61 -123 -132 -123z" />
    <glyph glyph-name="abreve.alt" horiz-adv-x="478" 
d="M196 -10c-85 0 -161 79 -161 262v27c0 183 75 262 161 262c65 0 101 -44 127 -88v79h104v-532h-104v81c-25 -46 -62 -91 -127 -91zM229 86c53 0 95 64 95 171v18c0 106 -42 171 -95 171c-52 0 -89 -62 -89 -172v-16c0 -110 37 -172 89 -172zM246 579
c-71 0 -125 41 -132 123h69c7 -32 26 -53 63 -53s56 21 63 53h69c-7 -82 -61 -123 -132 -123z" />
    <glyph glyph-name="Acircumflex" unicode="&#xc2;" horiz-adv-x="543" 
d="M17 0l200 703h109l201 -703h-111l-44 161h-205l-43 -161h-107zM193 257h153l-76 281zM134 746l91 121h92l91 -121h-82l-56 53l-56 -53h-80z" />
    <glyph glyph-name="acircumflex" unicode="&#xe2;" horiz-adv-x="428" 
d="M160 -9c-75 0 -134 61 -134 160v10c0 113 62 170 156 170c38 0 68 -9 98 -21v33c0 67 -38 100 -96 100c-42 0 -81 -19 -100 -32l-33 86c43 23 91 41 148 41s103 -17 134 -48c32 -32 49 -81 49 -143v-347h-103v64c-26 -46 -65 -73 -119 -73zM194 73c48 -1 86 40 86 92v73
c-20 9 -47 16 -74 16c-50 0 -79 -34 -79 -90v-4c0 -55 27 -85 67 -87zM82 583l89 138h86l89 -138h-76l-57 66l-57 -66h-74z" />
    <glyph glyph-name="acircumflex.alt" horiz-adv-x="478" 
d="M114 583l89 138h86l89 -138h-76l-57 66l-57 -66h-74zM196 -10c-85 0 -161 79 -161 262v27c0 183 75 262 161 262c65 0 101 -44 127 -88v79h104v-532h-104v81c-25 -46 -62 -91 -127 -91zM229 86c53 0 95 64 95 171v18c0 106 -42 171 -95 171c-52 0 -89 -62 -89 -172v-16
c0 -110 37 -172 89 -172z" />
    <glyph glyph-name="Adieresis" unicode="&#xc4;" horiz-adv-x="543" 
d="M17 0l200 703h109l201 -703h-111l-44 161h-205l-43 -161h-107zM193 257h153l-76 281zM300 750v101h103v-101h-103zM139 750v101h103v-101h-103z" />
    <glyph glyph-name="adieresis" unicode="&#xe4;" horiz-adv-x="428" 
d="M160 -9c-75 0 -134 61 -134 160v10c0 113 62 170 156 170c38 0 68 -9 98 -21v33c0 67 -38 100 -96 100c-42 0 -81 -19 -100 -32l-33 86c43 23 91 41 148 41s103 -17 134 -48c32 -32 49 -81 49 -143v-347h-103v64c-26 -46 -65 -73 -119 -73zM194 73c48 -1 86 40 86 92v73
c-20 9 -47 16 -74 16c-50 0 -79 -34 -79 -90v-4c0 -55 27 -85 67 -87zM240 586v102h100v-102h-100zM88 586v102h100v-102h-100z" />
    <glyph glyph-name="adieresis.alt" horiz-adv-x="478" 
d="M272 586v102h100v-102h-100zM120 586v102h100v-102h-100zM196 -10c-85 0 -161 79 -161 262v27c0 183 75 262 161 262c65 0 101 -44 127 -88v79h104v-532h-104v81c-25 -46 -62 -91 -127 -91zM229 86c53 0 95 64 95 171v18c0 106 -42 171 -95 171c-52 0 -89 -62 -89 -172
v-16c0 -110 37 -172 89 -172z" />
    <glyph glyph-name="AE" unicode="&#xc6;" horiz-adv-x="725" 
d="M5 0l262 700h418v-100h-238v-198h211v-99h-211v-203h242v-100h-349v161h-169l-59 -161h-107zM206 257h134v340h-14z" />
    <glyph glyph-name="ae" unicode="&#xe6;" horiz-adv-x="678" 
d="M170 -9c-85 0 -144 64 -144 166v4c0 113 62 170 155 170c38 0 68 -9 97 -21v33c0 66 -36 100 -94 100c-40 0 -77 -18 -100 -33l-33 89c43 22 91 39 146 39c70 0 116 -27 141 -74c31 48 75 77 129 77c114 0 182 -107 182 -272c0 -3 0 -26 -1 -47h-269
c7 -92 53 -140 114 -140c40 0 72 19 98 49l46 -78c-47 -42 -93 -63 -152 -63c-70 0 -127 35 -162 101c-32 -56 -84 -100 -153 -100zM378 299h171c-3 92 -33 152 -84 152c-48 0 -82 -53 -87 -152zM198 73c39 0 74 33 97 82c-6 26 -10 56 -12 82c-22 10 -47 17 -76 17
c-51 0 -80 -34 -80 -90v-4c0 -53 28 -87 71 -87z" />
    <glyph glyph-name="AEacute" unicode="&#x1fc;" horiz-adv-x="725" 
d="M374 744l91 130l94 -44l-106 -86h-79zM5 0l262 700h418v-100h-238v-198h211v-99h-211v-203h242v-100h-349v161h-169l-59 -161h-107zM206 257h134v340h-14z" />
    <glyph glyph-name="aeacute" unicode="&#x1fd;" horiz-adv-x="678" 
d="M294 582l88 149l89 -45l-104 -104h-73zM170 -9c-85 0 -144 64 -144 166v4c0 113 62 170 155 170c38 0 68 -9 97 -21v33c0 66 -36 100 -94 100c-40 0 -77 -18 -100 -33l-33 89c43 22 91 39 146 39c70 0 116 -27 141 -74c31 48 75 77 129 77c114 0 182 -107 182 -272
c0 -3 0 -26 -1 -47h-269c7 -92 53 -140 114 -140c40 0 72 19 98 49l46 -78c-47 -42 -93 -63 -152 -63c-70 0 -127 35 -162 101c-32 -56 -84 -100 -153 -100zM378 299h171c-3 92 -33 152 -84 152c-48 0 -82 -53 -87 -152zM198 73c39 0 74 33 97 82c-6 26 -10 56 -12 82
c-22 10 -47 17 -76 17c-51 0 -80 -34 -80 -90v-4c0 -53 28 -87 71 -87z" />
    <glyph glyph-name="Agrave" unicode="&#xc0;" horiz-adv-x="543" 
d="M17 0l200 703h109l201 -703h-111l-44 161h-205l-43 -161h-107zM193 257h153l-76 281zM317 747h-80l-105 86l94 44z" />
    <glyph glyph-name="agrave" unicode="&#xe0;" horiz-adv-x="428" 
d="M160 -9c-75 0 -134 61 -134 160v10c0 113 62 170 156 170c38 0 68 -9 98 -21v33c0 67 -38 100 -96 100c-42 0 -81 -19 -100 -32l-33 86c43 23 91 41 148 41s103 -17 134 -48c32 -32 49 -81 49 -143v-347h-103v64c-26 -46 -65 -73 -119 -73zM194 73c48 -1 86 40 86 92v73
c-20 9 -47 16 -74 16c-50 0 -79 -34 -79 -90v-4c0 -55 27 -85 67 -87zM182 582l-104 104l90 45l87 -149h-73z" />
    <glyph glyph-name="agrave.alt" horiz-adv-x="478" 
d="M196 -10c-85 0 -161 79 -161 262v27c0 183 75 262 161 262c65 0 101 -44 127 -88v79h104v-532h-104v81c-25 -46 -62 -91 -127 -91zM229 86c53 0 95 64 95 171v18c0 106 -42 171 -95 171c-52 0 -89 -62 -89 -172v-16c0 -110 37 -172 89 -172zM215 582l-104 104l90 45
l87 -149h-73z" />
    <glyph glyph-name="Amacron" unicode="&#x100;" horiz-adv-x="543" 
d="M17 0l200 703h109l201 -703h-111l-44 161h-205l-43 -161h-107zM193 257h153l-76 281zM133 755v76h276v-76h-276z" />
    <glyph glyph-name="amacron" unicode="&#x101;" horiz-adv-x="428" 
d="M160 -9c-75 0 -134 61 -134 160v10c0 113 62 170 156 170c38 0 68 -9 98 -21v33c0 67 -38 100 -96 100c-42 0 -81 -19 -100 -32l-33 86c43 23 91 41 148 41s103 -17 134 -48c32 -32 49 -81 49 -143v-347h-103v64c-26 -46 -65 -73 -119 -73zM194 73c48 -1 86 40 86 92v73
c-20 9 -47 16 -74 16c-50 0 -79 -34 -79 -90v-4c0 -55 27 -85 67 -87zM85 590v73h258v-73h-258z" />
    <glyph glyph-name="amacron.alt" horiz-adv-x="478" 
d="M196 -10c-85 0 -161 79 -161 262v27c0 183 75 262 161 262c65 0 101 -44 127 -88v79h104v-532h-104v81c-25 -46 -62 -91 -127 -91zM229 86c53 0 95 64 95 171v18c0 106 -42 171 -95 171c-52 0 -89 -62 -89 -172v-16c0 -110 37 -172 89 -172zM117 590v73h258v-73h-258z
" />
    <glyph glyph-name="Aogonek" unicode="&#x104;" horiz-adv-x="543" 
d="M530 -89v-58c-13 -2 -24 -3 -34 -3c-66 0 -101 28 -101 71c0 30 14 54 38 79h-17l-44 161h-205l-43 -161h-107l200 703h109l201 -703h-22c-19 -23 -27 -41 -27 -57c0 -24 18 -33 52 -32zM193 257h153l-76 281z" />
    <glyph glyph-name="aogonek" unicode="&#x105;" horiz-adv-x="428" 
d="M386 -89v-58c-13 -2 -24 -3 -34 -3c-66 0 -101 28 -101 71c0 30 14 54 38 79h-10v64c-26 -46 -65 -73 -119 -73c-75 0 -134 61 -134 160v10c0 113 62 170 156 170c38 0 68 -9 98 -21v33c0 67 -38 100 -96 100c-42 0 -81 -19 -100 -32l-33 86c43 23 91 41 148 41
s103 -17 134 -48c32 -32 49 -81 49 -143v-347h-21c-19 -23 -27 -41 -27 -57c0 -24 18 -33 52 -32zM194 73c48 -1 86 40 86 92v73c-20 9 -47 16 -74 16c-50 0 -79 -34 -79 -90v-4c0 -55 27 -85 67 -87z" />
    <glyph glyph-name="aogonek.alt" horiz-adv-x="478" 
d="M433 -89v-58c-13 -2 -24 -3 -34 -3c-66 0 -101 28 -101 71c0 30 14 54 38 79h-13v81c-25 -46 -62 -91 -127 -91c-85 0 -161 79 -161 262v27c0 183 75 262 161 262c65 0 101 -44 127 -88v79h104v-532h-19c-19 -23 -27 -41 -27 -57c0 -24 18 -33 52 -32zM229 86
c53 0 95 64 95 171v18c0 106 -42 171 -95 171c-52 0 -89 -62 -89 -172v-16c0 -110 37 -172 89 -172z" />
    <glyph glyph-name="Aring" unicode="&#xc5;" horiz-adv-x="543" 
d="M17 0l189 669c-20 16 -32 39 -32 67c0 53 45 91 98 91s97 -38 97 -91c0 -28 -13 -51 -33 -67l191 -669h-111l-44 161h-205l-43 -161h-107zM193 257h153l-76 281zM272 689c29 0 50 20 50 47s-21 48 -50 48s-50 -21 -50 -48s21 -47 50 -47z" />
    <glyph glyph-name="aring" unicode="&#xe5;" horiz-adv-x="428" 
d="M160 -9c-75 0 -134 61 -134 160v10c0 113 62 170 156 170c38 0 68 -9 98 -21v33c0 67 -38 100 -96 100c-42 0 -81 -19 -100 -32l-33 86c43 23 91 41 148 41s103 -17 134 -48c32 -32 49 -81 49 -143v-347h-103v64c-26 -46 -65 -73 -119 -73zM194 73c48 -1 86 40 86 92v73
c-20 9 -47 16 -74 16c-50 0 -79 -34 -79 -90v-4c0 -55 27 -85 67 -87zM214 579c-53 0 -95 41 -95 95c0 53 42 95 95 95s95 -41 95 -95s-42 -95 -95 -95zM214 620c29 0 50 23 50 54c0 30 -21 54 -50 54c-28 0 -50 -24 -50 -54c0 -31 22 -54 50 -54z" />
    <glyph glyph-name="aring.alt" horiz-adv-x="478" 
d="M246 579c-53 0 -95 41 -95 95c0 53 42 95 95 95s95 -41 95 -95s-42 -95 -95 -95zM246 620c29 0 50 23 50 54c0 30 -21 54 -50 54c-28 0 -50 -24 -50 -54c0 -31 22 -54 50 -54zM196 -10c-85 0 -161 79 -161 262v27c0 183 75 262 161 262c65 0 101 -44 127 -88v79h104v-532
h-104v81c-25 -46 -62 -91 -127 -91zM229 86c53 0 95 64 95 171v18c0 106 -42 171 -95 171c-52 0 -89 -62 -89 -172v-16c0 -110 37 -172 89 -172z" />
    <glyph glyph-name="aring.alt2" horiz-adv-x="428" 
d="M160 -9c-75 0 -134 61 -134 160v10c0 113 62 170 156 170c38 0 68 -9 98 -21v33c0 67 -38 100 -96 100c-42 0 -81 -19 -100 -32l-33 86c27 14 57 27 89 34c-14 17 -22 38 -22 62c0 53 42 95 95 95s95 -41 95 -95c0 -28 -11 -52 -29 -69c21 -8 39 -19 54 -34
c32 -32 49 -81 49 -143v-347h-103v64c-26 -46 -65 -73 -119 -73zM194 73c48 -1 86 40 86 92v73c-20 9 -47 16 -74 16c-50 0 -79 -34 -79 -90v-4c0 -55 27 -85 67 -87zM213 539c29 0 51 23 51 54c0 30 -22 54 -51 54c-28 0 -50 -24 -50 -54c0 -31 22 -54 50 -54z" />
    <glyph glyph-name="Aringacute" unicode="&#x1fa;" horiz-adv-x="543" 
d="M17 0l189 669c-20 16 -32 39 -32 67c0 53 45 91 98 91s97 -38 97 -91c0 -28 -13 -51 -33 -67l191 -669h-111l-44 161h-205l-43 -161h-107zM193 257h153l-76 281zM229 848l90 111l93 -44l-101 -67h-82zM272 689c29 0 50 20 50 47s-21 48 -50 48s-50 -21 -50 -48
s21 -47 50 -47z" />
    <glyph glyph-name="aringacute" unicode="&#x1fb;" horiz-adv-x="428" 
d="M172 795l86 119l88 -42l-97 -77h-77zM160 -9c-75 0 -134 61 -134 160v10c0 113 62 170 156 170c38 0 68 -9 98 -21v33c0 67 -38 100 -96 100c-42 0 -81 -19 -100 -32l-33 86c43 23 91 41 148 41s103 -17 134 -48c32 -32 49 -81 49 -143v-347h-103v64
c-26 -46 -65 -73 -119 -73zM194 73c48 -1 86 40 86 92v73c-20 9 -47 16 -74 16c-50 0 -79 -34 -79 -90v-4c0 -55 27 -85 67 -87zM214 579c-53 0 -95 41 -95 95c0 53 42 95 95 95s95 -41 95 -95s-42 -95 -95 -95zM214 620c29 0 50 23 50 54c0 30 -21 54 -50 54
c-28 0 -50 -24 -50 -54c0 -31 22 -54 50 -54z" />
    <glyph glyph-name="aringacute.alt" horiz-adv-x="478" 
d="M205 795l86 119l87 -42l-97 -77h-76zM246 579c-53 0 -95 41 -95 95c0 53 42 95 95 95s95 -41 95 -95s-42 -95 -95 -95zM246 620c29 0 50 23 50 54c0 30 -21 54 -50 54c-28 0 -50 -24 -50 -54c0 -31 22 -54 50 -54zM196 -10c-85 0 -161 79 -161 262v27
c0 183 75 262 161 262c65 0 101 -44 127 -88v79h104v-532h-104v81c-25 -46 -62 -91 -127 -91zM229 86c53 0 95 64 95 171v18c0 106 -42 171 -95 171c-52 0 -89 -62 -89 -172v-16c0 -110 37 -172 89 -172z" />
    <glyph glyph-name="aringacute.alt2" horiz-adv-x="428" 
d="M172 713l86 119l88 -41l-97 -78h-77zM160 -9c-75 0 -134 61 -134 160v10c0 113 62 170 156 170c38 0 68 -9 98 -21v33c0 67 -38 100 -96 100c-42 0 -81 -19 -100 -32l-33 86c27 14 57 27 89 34c-14 17 -22 38 -22 62c0 53 42 95 95 95s95 -41 95 -95
c0 -28 -11 -52 -29 -69c21 -8 39 -19 54 -34c32 -32 49 -81 49 -143v-347h-103v64c-26 -46 -65 -73 -119 -73zM194 73c48 -1 86 40 86 92v73c-20 9 -47 16 -74 16c-50 0 -79 -34 -79 -90v-4c0 -55 27 -85 67 -87zM213 539c29 0 51 23 51 54c0 30 -22 54 -51 54
c-28 0 -50 -24 -50 -54c0 -31 22 -54 50 -54z" />
    <glyph glyph-name="Atilde" unicode="&#xc3;" horiz-adv-x="543" 
d="M17 0l200 703h109l201 -703h-111l-44 161h-205l-43 -161h-107zM193 257h153l-76 281zM340 747c-25 0 -48 11 -71 21c-19 9 -35 16 -47 16c-18 0 -26 -12 -37 -41l-61 17c16 70 40 105 84 105c25 0 49 -10 72 -21c19 -9 34 -16 46 -16c18 0 26 12 37 41l61 -16
c-16 -71 -40 -106 -84 -106z" />
    <glyph glyph-name="atilde" unicode="&#xe3;" horiz-adv-x="428" 
d="M160 -9c-75 0 -134 61 -134 160v10c0 113 62 170 156 170c38 0 68 -9 98 -21v33c0 67 -38 100 -96 100c-42 0 -81 -19 -100 -32l-33 86c43 23 91 41 148 41s103 -17 134 -48c32 -32 49 -81 49 -143v-347h-103v64c-26 -46 -65 -73 -119 -73zM194 73c48 -1 86 40 86 92v73
c-20 9 -47 16 -74 16c-50 0 -79 -34 -79 -90v-4c0 -55 27 -85 67 -87zM281 582c-24 0 -46 11 -68 22c-19 10 -34 18 -46 18c-19 0 -27 -13 -37 -45l-59 16c17 74 38 107 82 107c24 0 46 -11 68 -22c19 -10 34 -18 46 -18c19 0 27 13 37 44l59 -16c-16 -73 -38 -106 -82 -106
z" />
    <glyph glyph-name="atilde.alt" horiz-adv-x="478" 
d="M196 -10c-85 0 -161 79 -161 262v27c0 183 75 262 161 262c65 0 101 -44 127 -88v79h104v-532h-104v81c-25 -46 -62 -91 -127 -91zM229 86c53 0 95 64 95 171v18c0 106 -42 171 -95 171c-52 0 -89 -62 -89 -172v-16c0 -110 37 -172 89 -172zM313 582c-24 0 -46 11 -68 22
c-19 10 -34 18 -46 18c-19 0 -27 -13 -37 -45l-59 16c17 74 38 107 82 107c24 0 46 -11 68 -22c19 -10 34 -18 46 -18c19 0 27 13 37 44l59 -16c-16 -73 -38 -106 -82 -106z" />
    <glyph glyph-name="Cacute" unicode="&#x106;" horiz-adv-x="481" 
d="M291 -8c-150 0 -251 123 -251 351v14c0 227 112 351 258 351c69 0 119 -26 159 -64l-61 -86c-28 27 -60 47 -99 47c-82 0 -147 -90 -147 -252v-5c0 -170 68 -253 145 -253c42 0 74 20 106 52l58 -83c-48 -46 -103 -72 -168 -72zM233 747l91 130l94 -44l-106 -86h-79z" />
    <glyph glyph-name="cacute" unicode="&#x107;" horiz-adv-x="380" 
d="M179 582l88 149l89 -45l-104 -104h-73zM230 -10c-117 0 -197 97 -197 264v20c0 167 87 267 204 267c49 0 87 -18 125 -49l-49 -86c-18 18 -41 38 -74 38c-58 0 -101 -65 -101 -176v-7c0 -113 41 -175 102 -174c32 0 53 17 73 40l49 -79c-31 -34 -75 -58 -132 -58z" />
    <glyph glyph-name="Ccaron" unicode="&#x10c;" horiz-adv-x="481" 
d="M291 -8c-150 0 -251 123 -251 351v14c0 227 112 351 258 351c69 0 119 -26 159 -64l-61 -86c-28 27 -60 47 -99 47c-82 0 -147 -90 -147 -252v-5c0 -170 68 -253 145 -253c42 0 74 20 106 52l58 -83c-48 -46 -103 -72 -168 -72zM414 869l-91 -121h-92l-91 121h82l56 -53
l56 53h80z" />
    <glyph glyph-name="ccaron" unicode="&#x10d;" horiz-adv-x="380" 
d="M355 721l-89 -138h-86l-89 138h76l57 -66l57 66h74zM230 -10c-117 0 -197 97 -197 264v20c0 167 87 267 204 267c49 0 87 -18 125 -49l-49 -86c-18 18 -41 38 -74 38c-58 0 -101 -65 -101 -176v-7c0 -113 41 -175 102 -174c32 0 53 17 73 40l49 -79
c-31 -34 -75 -58 -132 -58z" />
    <glyph glyph-name="Ccedilla" unicode="&#xc7;" horiz-adv-x="481" 
d="M259 -136l-92 36l65 99c-117 29 -192 147 -192 344v14c0 227 112 351 258 351c69 0 119 -26 159 -64l-61 -86c-28 27 -60 47 -99 47c-82 0 -147 -90 -147 -252v-5c0 -170 68 -253 145 -253c42 0 74 20 106 52l58 -83c-44 -42 -94 -67 -152 -71z" />
    <glyph glyph-name="ccedilla" unicode="&#xe7;" horiz-adv-x="380" 
d="M202 -136l-92 36l64 98c-86 26 -141 117 -141 256v20c0 167 87 267 204 267c49 0 87 -18 125 -49l-49 -86c-18 18 -41 38 -74 38c-58 0 -101 -65 -101 -176v-7c0 -113 41 -175 102 -174c32 0 53 17 73 40l49 -79c-28 -30 -65 -52 -113 -57z" />
    <glyph glyph-name="Cdotaccent" unicode="&#x10a;" horiz-adv-x="481" 
d="M225 750v101h104v-101h-104zM291 -8c-150 0 -251 123 -251 351v14c0 227 112 351 258 351c69 0 119 -26 159 -64l-61 -86c-28 27 -60 47 -99 47c-82 0 -147 -90 -147 -252v-5c0 -170 68 -253 145 -253c42 0 74 20 106 52l58 -83c-48 -46 -103 -72 -168 -72z" />
    <glyph glyph-name="cdotaccent" unicode="&#x10b;" horiz-adv-x="380" 
d="M230 -10c-117 0 -197 97 -197 264v20c0 167 87 267 204 267c49 0 87 -18 125 -49l-49 -86c-18 18 -41 38 -74 38c-58 0 -101 -65 -101 -176v-7c0 -113 41 -175 102 -174c32 0 53 17 73 40l49 -79c-31 -34 -75 -58 -132 -58zM172 586v103h102v-103h-102z" />
    <glyph glyph-name="Dcaron" unicode="&#x10e;" horiz-adv-x="547" 
d="M60 0v700h161c177 0 288 -128 288 -342v-15c0 -214 -111 -343 -288 -343h-161zM219 602h-51v-504h51c107 0 179 81 179 246v11c0 166 -73 247 -179 247zM400 866l-91 -121h-92l-91 121h82l56 -53l56 53h80z" />
    <glyph glyph-name="dcaron" unicode="&#x10f;" horiz-adv-x="478" 
d="M462 569l10 164h76v-3l-42 -161h-44zM196 -10c-85 0 -161 79 -161 262v27c0 183 75 262 161 262c65 0 101 -44 127 -88v261h104v-714h-104v81c-25 -46 -62 -91 -127 -91zM229 86c53 0 95 64 95 171v18c0 106 -42 171 -95 171c-52 0 -89 -62 -89 -172v-16
c0 -110 37 -172 89 -172z" />
    <glyph glyph-name="Dcroat" unicode="&#x110;" horiz-adv-x="563" 
d="M75 0v304h-54v96h54v300h162c174 0 287 -128 287 -342v-15c0 -214 -113 -343 -287 -343h-162zM287 304h-104v-206h53c106 0 177 81 177 246v11c0 166 -72 247 -178 247h-52v-202h104v-96z" />
    <glyph glyph-name="dcroat" unicode="&#x111;" horiz-adv-x="478" 
d="M210 591v72h113v51h104v-51h48v-73h-48v-590h-104v81c-25 -46 -62 -91 -126 -91c-86 0 -162 80 -162 262v27c0 181 76 262 162 262c64 0 100 -44 126 -88v138h-113zM230 86c52 0 94 63 94 171v18c0 106 -42 171 -94 171c-53 0 -90 -64 -90 -172v-16
c0 -109 38 -172 90 -172z" />
    <glyph glyph-name="Eacute" unicode="&#xc9;" horiz-adv-x="453" 
d="M193 744l91 130l94 -44l-106 -86h-79zM60 0v700h353v-100h-246v-198h219v-99h-219v-203h250v-100h-357z" />
    <glyph glyph-name="eacute" unicode="&#xe9;" horiz-adv-x="434" 
d="M178 582l88 149l89 -45l-104 -104h-73zM242 -10c-117 0 -210 97 -210 267v14c0 167 83 270 190 270c117 0 183 -106 183 -272c0 -4 0 -26 -1 -47h-269c8 -92 55 -140 115 -140c39 0 70 22 97 49l47 -78c-45 -40 -93 -63 -152 -63zM134 299h171c-3 91 -32 152 -83 152
c-48 0 -83 -54 -88 -152z" />
    <glyph glyph-name="Ebreve" unicode="&#x114;" horiz-adv-x="453" 
d="M239 742c-73 0 -128 38 -132 113h70c7 -29 26 -43 62 -43c35 0 55 14 62 43h71c-6 -75 -60 -113 -133 -113zM60 0v700h353v-100h-246v-198h219v-99h-219v-203h250v-100h-357z" />
    <glyph glyph-name="ebreve" unicode="&#x115;" horiz-adv-x="434" 
d="M242 -10c-117 0 -210 97 -210 267v14c0 167 83 270 190 270c117 0 183 -106 183 -272c0 -4 0 -26 -1 -47h-269c8 -92 55 -140 115 -140c39 0 70 22 97 49l47 -78c-45 -40 -93 -63 -152 -63zM134 299h171c-3 91 -32 152 -83 152c-48 0 -83 -54 -88 -152zM222 579
c-71 0 -125 41 -132 123h69c7 -32 26 -53 63 -53s56 21 63 53h69c-7 -82 -61 -123 -132 -123z" />
    <glyph glyph-name="Ecaron" unicode="&#x11a;" horiz-adv-x="453" 
d="M376 866l-91 -121h-92l-91 121h82l56 -53l56 53h80zM60 0v700h353v-100h-246v-198h219v-99h-219v-203h250v-100h-357z" />
    <glyph glyph-name="ecaron" unicode="&#x11b;" horiz-adv-x="434" 
d="M354 721l-89 -138h-86l-89 138h76l57 -66l57 66h74zM242 -10c-117 0 -210 97 -210 267v14c0 167 83 270 190 270c117 0 183 -106 183 -272c0 -4 0 -26 -1 -47h-269c8 -92 55 -140 115 -140c39 0 70 22 97 49l47 -78c-45 -40 -93 -63 -152 -63zM134 299h171
c-3 91 -32 152 -83 152c-48 0 -83 -54 -88 -152z" />
    <glyph glyph-name="Ecircumflex" unicode="&#xca;" horiz-adv-x="453" 
d="M60 0v700h353v-100h-246v-198h219v-99h-219v-203h250v-100h-357zM102 745l91 121h92l91 -121h-82l-56 53l-56 -53h-80z" />
    <glyph glyph-name="ecircumflex" unicode="&#xea;" horiz-adv-x="434" 
d="M90 582l89 138h86l89 -138h-76l-57 66l-57 -66h-74zM242 -10c-117 0 -210 97 -210 267v14c0 167 83 270 190 270c117 0 183 -106 183 -272c0 -4 0 -26 -1 -47h-269c8 -92 55 -140 115 -140c39 0 70 22 97 49l47 -78c-45 -40 -93 -63 -152 -63zM134 299h171
c-3 91 -32 152 -83 152c-48 0 -83 -54 -88 -152z" />
    <glyph glyph-name="Edieresis" unicode="&#xcb;" horiz-adv-x="453" 
d="M268 747v101h103v-101h-103zM107 747v101h103v-101h-103zM60 0v700h353v-100h-246v-198h219v-99h-219v-203h250v-100h-357z" />
    <glyph glyph-name="edieresis" unicode="&#xeb;" horiz-adv-x="434" 
d="M248 586v102h100v-102h-100zM96 586v102h100v-102h-100zM242 -10c-117 0 -210 97 -210 267v14c0 167 83 270 190 270c117 0 183 -106 183 -272c0 -4 0 -26 -1 -47h-269c8 -92 55 -140 115 -140c39 0 70 22 97 49l47 -78c-45 -40 -93 -63 -152 -63zM134 299h171
c-3 91 -32 152 -83 152c-48 0 -83 -54 -88 -152z" />
    <glyph glyph-name="Edotaccent" unicode="&#x116;" horiz-adv-x="453" 
d="M187 747v101h104v-101h-104zM60 0v700h353v-100h-246v-198h219v-99h-219v-203h250v-100h-357z" />
    <glyph glyph-name="edotaccent" unicode="&#x117;" horiz-adv-x="434" 
d="M242 -10c-117 0 -210 97 -210 267v14c0 167 83 270 190 270c117 0 183 -106 183 -272c0 -4 0 -26 -1 -47h-269c8 -92 55 -140 115 -140c39 0 70 22 97 49l47 -78c-45 -40 -93 -63 -152 -63zM134 299h171c-3 91 -32 152 -83 152c-48 0 -83 -54 -88 -152zM171 586v103h102
v-103h-102z" />
    <glyph glyph-name="Egrave" unicode="&#xc8;" horiz-adv-x="453" 
d="M284 744h-80l-105 86l94 44zM60 0v700h353v-100h-246v-198h219v-99h-219v-203h250v-100h-357z" />
    <glyph glyph-name="egrave" unicode="&#xe8;" horiz-adv-x="434" 
d="M242 -10c-117 0 -210 97 -210 267v14c0 167 83 270 190 270c117 0 183 -106 183 -272c0 -4 0 -26 -1 -47h-269c8 -92 55 -140 115 -140c39 0 70 22 97 49l47 -78c-45 -40 -93 -63 -152 -63zM134 299h171c-3 91 -32 152 -83 152c-48 0 -83 -54 -88 -152zM190 582l-104 104
l90 45l87 -149h-73z" />
    <glyph glyph-name="Emacron" unicode="&#x112;" horiz-adv-x="453" 
d="M101 752v76h276v-76h-276zM60 0v700h353v-100h-246v-198h219v-99h-219v-203h250v-100h-357z" />
    <glyph glyph-name="emacron" unicode="&#x113;" horiz-adv-x="434" 
d="M242 -10c-117 0 -210 97 -210 267v14c0 167 83 270 190 270c117 0 183 -106 183 -272c0 -4 0 -26 -1 -47h-269c8 -92 55 -140 115 -140c39 0 70 22 97 49l47 -78c-45 -40 -93 -63 -152 -63zM134 299h171c-3 91 -32 152 -83 152c-48 0 -83 -54 -88 -152zM93 590v73h258
v-73h-258z" />
    <glyph glyph-name="Eogonek" unicode="&#x118;" horiz-adv-x="453" 
d="M60 0v700h353v-100h-246v-198h219v-99h-219v-203h250v-100h-26c-19 -23 -27 -41 -27 -57c0 -24 18 -33 52 -32v-58c-13 -2 -24 -3 -34 -3c-66 0 -101 28 -101 71c0 30 14 54 38 79h-259z" />
    <glyph glyph-name="eogonek" unicode="&#x119;" horiz-adv-x="434" 
d="M347 131l47 -78l-29 -27c-22 -22 -48 -57 -48 -82s17 -34 51 -33v-58c-13 -2 -24 -3 -33 -3c-67 0 -101 28 -101 70c0 26 12 47 33 72c-7 -2 -17 -2 -25 -2c-117 0 -210 97 -210 267v14c0 167 83 270 190 270c117 0 183 -106 183 -272c0 -3 -1 -43 -1 -47h-269
c8 -92 55 -140 115 -140c39 0 70 22 97 49zM134 299h171c-3 91 -32 152 -83 152c-48 0 -83 -54 -88 -152z" />
    <glyph glyph-name="Eth" unicode="&#xd0;" horiz-adv-x="563" 
d="M75 0v304h-54v96h54v300h162c174 0 287 -128 287 -342v-15c0 -214 -113 -343 -287 -343h-162zM287 304h-104v-206h53c106 0 177 81 177 246v11c0 166 -72 247 -178 247h-52v-202h104v-96z" />
    <glyph glyph-name="eth" unicode="&#xf0;" horiz-adv-x="467" 
d="M383 654l-63 -24c68 -95 113 -208 113 -336v-16c0 -185 -83 -288 -203 -288c-112 0 -197 105 -197 268v19c0 158 81 255 168 255c38 0 65 -14 93 -41c-16 35 -37 70 -64 105l-86 -32l-25 62l67 25c-19 21 -40 42 -61 63h126c9 -9 17 -19 26 -29l81 31zM233 82
c59 0 96 70 96 178v10c0 110 -40 178 -98 178c-57 0 -94 -71 -94 -178v-10c0 -106 38 -178 96 -178z" />
    <glyph glyph-name="Gbreve" unicode="&#x11e;" horiz-adv-x="541" 
d="M296 745c-73 0 -128 38 -132 113h70c7 -29 26 -43 62 -43c35 0 55 14 62 43h71c-6 -75 -60 -113 -133 -113zM311 -8c-156 0 -271 122 -271 351v14c0 216 115 351 275 351c65 0 119 -19 170 -62l-60 -89c-23 25 -58 49 -109 49c-95 0 -166 -93 -166 -249v-12
c0 -172 74 -254 168 -254c29 0 55 8 72 20v181h-111v95h212v-337c-49 -32 -108 -58 -180 -58z" />
    <glyph glyph-name="gbreve" unicode="&#x11f;" horiz-adv-x="478" 
d="M214 -142c-59 0 -109 11 -162 35l29 86c32 -19 84 -32 125 -32c75 0 117 35 117 114v64c-27 -47 -64 -90 -129 -90c-86 0 -159 77 -159 250v5c0 174 74 251 159 251c65 0 102 -43 129 -87v78h104v-471c0 -68 -17 -116 -51 -150c-37 -37 -91 -53 -162 -53zM229 129
c52 0 95 58 95 158v2c0 100 -43 158 -95 158c-51 0 -89 -57 -89 -158v-2c0 -102 38 -158 89 -158zM246 579c-71 0 -125 41 -132 123h69c7 -32 26 -53 63 -53s56 21 63 53h69c-7 -82 -61 -123 -132 -123z" />
    <glyph glyph-name="Gcommaaccent" unicode="&#x122;" horiz-adv-x="541" 
d="M243 -234l-7 36c41 6 56 23 54 57h-45v88h100v-78c0 -68 -35 -96 -102 -103zM311 -8c-156 0 -271 122 -271 351v14c0 216 115 351 275 351c65 0 119 -19 170 -62l-60 -89c-23 25 -58 49 -109 49c-95 0 -166 -93 -166 -249v-12c0 -172 74 -254 168 -254c29 0 55 8 72 20
v181h-111v95h212v-337c-49 -32 -108 -58 -180 -58z" />
    <glyph glyph-name="gcommaaccent" unicode="&#x123;" horiz-adv-x="478" 
d="M295 769l7 -36c-41 -6 -56 -23 -54 -57h45v-88h-100v78c0 68 35 96 102 103zM214 -142c-59 0 -109 11 -162 35l29 86c32 -19 84 -32 125 -32c75 0 117 35 117 114v64c-27 -47 -64 -90 -129 -90c-86 0 -159 77 -159 250v5c0 174 74 251 159 251c65 0 102 -43 129 -87v78
h104v-471c0 -68 -17 -116 -51 -150c-37 -37 -91 -53 -162 -53zM229 129c52 0 95 58 95 158v2c0 100 -43 158 -95 158c-51 0 -89 -57 -89 -158v-2c0 -102 38 -158 89 -158z" />
    <glyph glyph-name="Gdotaccent" unicode="&#x120;" horiz-adv-x="541" 
d="M244 750v101h104v-101h-104zM311 -8c-156 0 -271 122 -271 351v14c0 216 115 351 275 351c65 0 119 -19 170 -62l-60 -89c-23 25 -58 49 -109 49c-95 0 -166 -93 -166 -249v-12c0 -172 74 -254 168 -254c29 0 55 8 72 20v181h-111v95h212v-337c-49 -32 -108 -58 -180 -58
z" />
    <glyph glyph-name="gdotaccent" unicode="&#x121;" horiz-adv-x="478" 
d="M214 -142c-59 0 -109 11 -162 35l29 86c32 -19 84 -32 125 -32c75 0 117 35 117 114v64c-27 -47 -64 -90 -129 -90c-86 0 -159 77 -159 250v5c0 174 74 251 159 251c65 0 102 -43 129 -87v78h104v-471c0 -68 -17 -116 -51 -150c-37 -37 -91 -53 -162 -53zM229 129
c52 0 95 58 95 158v2c0 100 -43 158 -95 158c-51 0 -89 -57 -89 -158v-2c0 -102 38 -158 89 -158zM195 586v103h102v-103h-102z" />
    <glyph glyph-name="Hbar" unicode="&#x126;" horiz-adv-x="559" 
d="M15 522v86h52v92h108v-94h210v94h107v-92h53v-86h-53v-522h-107v301h-210v-301h-108v522h-52zM175 402h210v122h-210v-122z" />
    <glyph glyph-name="hbar" unicode="&#x127;" horiz-adv-x="457" 
d="M268 591h-113v-132c25 44 60 82 121 82c85 0 135 -65 135 -166v-375h-104v350c0 63 -27 98 -73 98s-79 -38 -79 -101v-347h-104v590h-48v73h48v51h104v-51h113v-72z" />
    <glyph glyph-name="Iacute" unicode="&#xcd;" horiz-adv-x="236" 
d="M65 0v700h107v-700h-107zM75 744l91 130l94 -44l-106 -86h-79z" />
    <glyph glyph-name="iacute" unicode="&#xed;" horiz-adv-x="215" 
d="M66 582l88 149l89 -45l-104 -104h-73zM55 0v532h104v-532h-104z" />
    <glyph glyph-name="Ibreve" unicode="&#x12c;" horiz-adv-x="236" 
d="M65 0v700h107v-700h-107zM119 742c-73 0 -128 38 -132 113h70c7 -29 26 -43 62 -43c35 0 55 14 62 43h71c-6 -75 -60 -113 -133 -113z" />
    <glyph glyph-name="ibreve" unicode="&#x12d;" horiz-adv-x="215" 
d="M55 0v532h104v-532h-104zM108 579c-71 0 -125 41 -132 123h69c7 -32 26 -53 63 -53s56 21 63 53h69c-7 -82 -61 -123 -132 -123z" />
    <glyph glyph-name="Icircumflex" unicode="&#xce;" horiz-adv-x="236" 
d="M65 0v700h107v-700h-107zM-18 745l91 121h92l91 -121h-82l-56 53l-56 -53h-80z" />
    <glyph glyph-name="icircumflex" unicode="&#xee;" horiz-adv-x="215" 
d="M-24 583l89 138h86l89 -138h-76l-57 66l-57 -66h-74zM55 0v532h104v-532h-104z" />
    <glyph glyph-name="Idieresis" unicode="&#xcf;" horiz-adv-x="236" 
d="M65 0v700h107v-700h-107zM148 747v101h103v-101h-103zM-13 747v101h103v-101h-103z" />
    <glyph glyph-name="idieresis" unicode="&#xef;" horiz-adv-x="215" 
d="M134 586v102h100v-102h-100zM-18 586v102h100v-102h-100zM55 0v532h104v-532h-104z" />
    <glyph glyph-name="Idotaccent" unicode="&#x130;" horiz-adv-x="236" 
d="M65 0v700h107v-700h-107zM67 747v101h104v-101h-104z" />
    <glyph glyph-name="dotlessi" unicode="&#x131;" horiz-adv-x="215" 
d="M55 0v532h104v-532h-104z" />
    <glyph glyph-name="Igrave" unicode="&#xcc;" horiz-adv-x="236" 
d="M65 0v700h107v-700h-107zM163 744h-80l-105 86l94 44z" />
    <glyph glyph-name="igrave" unicode="&#xec;" horiz-adv-x="215" 
d="M55 0v532h104v-532h-104zM76 582l-104 104l90 45l87 -149h-73z" />
    <glyph glyph-name="Imacron" unicode="&#x12a;" horiz-adv-x="236" 
d="M65 0v700h107v-700h-107zM-19 752v76h276v-76h-276z" />
    <glyph glyph-name="imacron" unicode="&#x12b;" horiz-adv-x="215" 
d="M55 0v532h104v-532h-104zM-21 590v73h258v-73h-258z" />
    <glyph glyph-name="Iogonek" unicode="&#x12e;" horiz-adv-x="236" 
d="M65 0v700h107v-700h-16c-19 -23 -27 -41 -27 -57c0 -24 18 -33 52 -32v-58c-13 -2 -24 -3 -34 -3c-66 0 -101 28 -101 71c0 30 14 54 38 79h-19z" />
    <glyph glyph-name="iogonek" unicode="&#x12f;" horiz-adv-x="215" 
d="M55 0v532h104v-532h-14c-19 -23 -27 -41 -27 -57c0 -24 18 -33 52 -32v-58c-13 -2 -24 -3 -34 -3c-66 0 -101 28 -101 71c0 30 14 54 38 79h-18zM53 605v107h108v-107h-108z" />
    <glyph glyph-name="Kcommaaccent" unicode="&#x136;" horiz-adv-x="514" 
d="M207 -231l-7 36c41 6 56 23 54 57h-45v88h100v-78c0 -68 -35 -96 -102 -103zM60 0v700h108v-335l202 335h125l-190 -300l200 -400h-124l-152 298l-61 -97v-201h-108z" />
    <glyph glyph-name="kcommaaccent" unicode="&#x137;" horiz-adv-x="426" 
d="M169 -233l-7 36c41 6 56 23 54 57h-45v88h100v-78c0 -68 -35 -96 -102 -103zM51 0v714h104v-414l138 232h118l-136 -216l139 -316h-117l-96 226l-46 -72v-154h-104z" />
    <glyph glyph-name="Lacute" unicode="&#x139;" horiz-adv-x="413" 
d="M86 744l91 130l94 -44l-106 -86h-79zM60 0v700h108v-600h224v-100h-332z" />
    <glyph glyph-name="lacute" unicode="&#x13a;" horiz-adv-x="215" 
d="M70 749l91 130l94 -44l-106 -86h-79zM55 0v714h104v-714h-104z" />
    <glyph glyph-name="Lcaron" unicode="&#x13d;" horiz-adv-x="413" 
d="M213 537l10 164h76v-3l-42 -161h-44zM60 0v700h108v-600h224v-100h-332z" />
    <glyph glyph-name="lcaron" unicode="&#x13e;" horiz-adv-x="215" 
d="M196 569l10 164h76v-3l-42 -161h-44zM55 0v714h104v-714h-104z" />
    <glyph glyph-name="Lcommaaccent" unicode="&#x13b;" horiz-adv-x="413" 
d="M173 -233l-7 36c41 6 56 23 54 57h-45v88h100v-78c0 -68 -35 -96 -102 -103zM60 0v700h108v-600h224v-100h-332z" />
    <glyph glyph-name="lcommaaccent" unicode="&#x13c;" horiz-adv-x="215" 
d="M56 -233l-7 36c41 6 56 23 54 57h-45v88h100v-78c0 -68 -35 -96 -102 -103zM55 0v714h104v-714h-104z" />
    <glyph glyph-name="Ldot" unicode="&#x13f;" horiz-adv-x="413" 
d="M275 315v104h98v-104h-98zM60 0v700h108v-600h224v-100h-332z" />
    <glyph glyph-name="ldot" unicode="&#x140;" horiz-adv-x="292" 
d="M210 312v103h86v-103h-86zM55 0v714h104v-714h-104z" />
    <glyph glyph-name="Lslash" unicode="&#x141;" horiz-adv-x="437" 
d="M289 378l-107 -56v-222h225v-100h-332v265l-54 -28v104l54 28v331h107v-275l107 58v-105z" />
    <glyph glyph-name="lslash" unicode="&#x142;" horiz-adv-x="253" 
d="M237 378l-59 -34v-344h-103v284l-59 -34v102l59 34v328h103v-269l59 34v-101z" />
    <glyph glyph-name="Nacute" unicode="&#x143;" horiz-adv-x="558" 
d="M235 743l91 130l94 -44l-106 -86h-79zM60 0v700h101l233 -446v446h105v-700h-94l-240 462v-462h-105z" />
    <glyph glyph-name="nacute" unicode="&#x144;" horiz-adv-x="457" 
d="M187 582l88 149l89 -45l-104 -104h-73zM51 0v532h104v-73c25 44 60 82 122 82c84 0 134 -62 134 -165v-376h-104v348c0 66 -27 100 -73 100s-79 -38 -79 -101v-347h-104z" />
    <glyph glyph-name="Ncaron" unicode="&#x147;" horiz-adv-x="558" 
d="M415 865l-91 -121h-92l-91 121h82l56 -53l56 53h80zM60 0v700h101l233 -446v446h105v-700h-94l-240 462v-462h-105z" />
    <glyph glyph-name="ncaron" unicode="&#x148;" horiz-adv-x="457" 
d="M363 721l-89 -138h-86l-89 138h76l57 -66l57 66h74zM51 0v532h104v-73c25 44 60 82 122 82c84 0 134 -62 134 -165v-376h-104v348c0 66 -27 100 -73 100s-79 -38 -79 -101v-347h-104z" />
    <glyph glyph-name="Ncommaaccent" unicode="&#x145;" horiz-adv-x="558" 
d="M226 -231l-7 36c41 6 56 23 54 57h-45v88h100v-78c0 -68 -35 -96 -102 -103zM60 0v700h101l233 -446v446h105v-700h-94l-240 462v-462h-105z" />
    <glyph glyph-name="ncommaaccent" unicode="&#x146;" horiz-adv-x="457" 
d="M179 -233l-7 36c41 6 56 23 54 57h-45v88h100v-78c0 -68 -35 -96 -102 -103zM51 0v532h104v-73c25 44 60 82 122 82c84 0 134 -62 134 -165v-376h-104v348c0 66 -27 100 -73 100s-79 -38 -79 -101v-347h-104z" />
    <glyph glyph-name="Ntilde" unicode="&#xd1;" horiz-adv-x="558" 
d="M347 743c-25 0 -48 11 -71 21c-19 9 -35 16 -47 16c-18 0 -26 -12 -37 -41l-61 17c16 70 40 105 84 105c25 0 49 -10 72 -21c19 -9 34 -16 46 -16c18 0 26 12 37 41l61 -16c-16 -71 -40 -106 -84 -106zM60 0v700h101l233 -446v446h105v-700h-94l-240 462v-462h-105z" />
    <glyph glyph-name="ntilde" unicode="&#xf1;" horiz-adv-x="457" 
d="M51 0v532h104v-73c25 44 60 82 122 82c84 0 134 -62 134 -165v-376h-104v348c0 66 -27 100 -73 100s-79 -38 -79 -101v-347h-104zM299 582c-24 0 -46 11 -68 22c-19 10 -34 18 -46 18c-19 0 -27 -13 -37 -45l-59 16c17 74 38 107 82 107c24 0 46 -11 68 -22
c19 -10 34 -18 46 -18c19 0 27 13 37 44l59 -16c-16 -73 -38 -106 -82 -106z" />
    <glyph glyph-name="Oacute" unicode="&#xd3;" horiz-adv-x="574" 
d="M242 747l91 130l94 -44l-106 -86h-79zM287 -10c-147 0 -247 130 -247 350v20c0 220 101 350 247 350c147 0 247 -130 247 -350v-19c0 -220 -101 -351 -247 -351zM287 89c78 0 137 87 137 254v13c0 167 -59 255 -137 255s-137 -87 -137 -254v-13c0 -167 59 -255 137 -255z
" />
    <glyph glyph-name="oacute" unicode="&#xf3;" horiz-adv-x="468" 
d="M191 582l88 149l89 -45l-104 -104h-73zM234 -10c-117 0 -201 103 -201 266v17c0 163 85 268 201 268s201 -104 201 -267v-17c0 -163 -85 -267 -201 -267zM234 82c59 0 97 71 97 178v10c0 107 -39 178 -97 178c-59 0 -97 -70 -97 -178v-10c0 -107 39 -178 97 -178z" />
    <glyph glyph-name="Obreve" unicode="&#x14e;" horiz-adv-x="574" 
d="M286 745c-73 0 -128 38 -132 113h70c7 -29 26 -43 62 -43c35 0 55 14 62 43h71c-6 -75 -60 -113 -133 -113zM287 -10c-147 0 -247 130 -247 350v20c0 220 101 350 247 350c147 0 247 -130 247 -350v-19c0 -220 -101 -351 -247 -351zM287 89c78 0 137 87 137 254v13
c0 167 -59 255 -137 255s-137 -87 -137 -254v-13c0 -167 59 -255 137 -255z" />
    <glyph glyph-name="obreve" unicode="&#x14f;" horiz-adv-x="468" 
d="M234 -10c-117 0 -201 103 -201 266v17c0 163 85 268 201 268s201 -104 201 -267v-17c0 -163 -85 -267 -201 -267zM234 82c59 0 97 71 97 178v10c0 107 -39 178 -97 178c-59 0 -97 -70 -97 -178v-10c0 -107 39 -178 97 -178zM235 579c-71 0 -125 41 -132 123h69
c7 -32 26 -53 63 -53s56 21 63 53h69c-7 -82 -61 -123 -132 -123z" />
    <glyph glyph-name="Ocircumflex" unicode="&#xd4;" horiz-adv-x="574" 
d="M287 -10c-147 0 -247 130 -247 350v20c0 220 101 350 247 350c147 0 247 -130 247 -350v-19c0 -220 -101 -351 -247 -351zM287 89c78 0 137 87 137 254v13c0 167 -59 255 -137 255s-137 -87 -137 -254v-13c0 -167 59 -255 137 -255zM149 748l91 121h92l91 -121h-82
l-56 53l-56 -53h-80z" />
    <glyph glyph-name="ocircumflex" unicode="&#xf4;" horiz-adv-x="468" 
d="M103 582l89 138h86l89 -138h-76l-57 66l-57 -66h-74zM234 -10c-117 0 -201 103 -201 266v17c0 163 85 268 201 268s201 -104 201 -267v-17c0 -163 -85 -267 -201 -267zM234 82c59 0 97 71 97 178v10c0 107 -39 178 -97 178c-59 0 -97 -70 -97 -178v-10
c0 -107 39 -178 97 -178z" />
    <glyph glyph-name="Odieresis" unicode="&#xd6;" horiz-adv-x="574" 
d="M315 750v101h103v-101h-103zM154 750v101h103v-101h-103zM287 -10c-147 0 -247 130 -247 350v20c0 220 101 350 247 350c147 0 247 -130 247 -350v-19c0 -220 -101 -351 -247 -351zM287 89c78 0 137 87 137 254v13c0 167 -59 255 -137 255s-137 -87 -137 -254v-13
c0 -167 59 -255 137 -255z" />
    <glyph glyph-name="odieresis" unicode="&#xf6;" horiz-adv-x="468" 
d="M261 586v102h100v-102h-100zM109 586v102h100v-102h-100zM234 -10c-117 0 -201 103 -201 266v17c0 163 85 268 201 268s201 -104 201 -267v-17c0 -163 -85 -267 -201 -267zM234 82c59 0 97 71 97 178v10c0 107 -39 178 -97 178c-59 0 -97 -70 -97 -178v-10
c0 -107 39 -178 97 -178z" />
    <glyph glyph-name="OE" unicode="&#x152;" horiz-adv-x="754" 
d="M326 0c-174 0 -286 128 -286 342v15c0 214 112 343 286 343h388v-100h-238v-198h211v-99h-211v-203h242v-100h-392zM327 98h41v504h-40c-107 0 -178 -81 -178 -246v-11c0 -166 72 -247 177 -247z" />
    <glyph glyph-name="oe" unicode="&#x153;" horiz-adv-x="736" 
d="M232 -10c-112 0 -199 102 -199 266v17c0 164 88 268 200 268c64 0 116 -36 148 -96c31 62 82 96 142 96c115 0 183 -107 183 -272c0 -3 0 -26 -1 -47h-269c8 -92 54 -140 115 -140c39 0 71 19 97 49l47 -78c-47 -42 -93 -63 -152 -63c-69 0 -127 35 -162 98
c-32 -62 -85 -98 -149 -98zM435 299h171c-3 92 -33 152 -84 152c-48 0 -82 -53 -87 -152zM233 82c59 0 96 71 96 178v10c0 107 -38 178 -96 178c-59 0 -96 -70 -96 -178v-10c0 -107 39 -178 96 -178z" />
    <glyph glyph-name="Ograve" unicode="&#xd2;" horiz-adv-x="574" 
d="M332 747h-80l-105 86l94 44zM287 -10c-147 0 -247 130 -247 350v20c0 220 101 350 247 350c147 0 247 -130 247 -350v-19c0 -220 -101 -351 -247 -351zM287 89c78 0 137 87 137 254v13c0 167 -59 255 -137 255s-137 -87 -137 -254v-13c0 -167 59 -255 137 -255z" />
    <glyph glyph-name="ograve" unicode="&#xf2;" horiz-adv-x="468" 
d="M234 -10c-117 0 -201 103 -201 266v17c0 163 85 268 201 268s201 -104 201 -267v-17c0 -163 -85 -267 -201 -267zM234 82c59 0 97 71 97 178v10c0 107 -39 178 -97 178c-59 0 -97 -70 -97 -178v-10c0 -107 39 -178 97 -178zM203 582l-104 104l90 45l87 -149h-73z" />
    <glyph glyph-name="Ohungarumlaut" unicode="&#x150;" horiz-adv-x="574" 
d="M287 -10c-147 0 -247 130 -247 350v20c0 220 101 350 247 350c147 0 247 -130 247 -350v-19c0 -220 -101 -351 -247 -351zM287 89c78 0 137 87 137 254v13c0 167 -59 255 -137 255s-137 -87 -137 -254v-13c0 -167 59 -255 137 -255zM174 747l91 130l87 -44l-103 -86h-75z
M306 747l92 130l87 -44l-103 -86h-76z" />
    <glyph glyph-name="ohungarumlaut" unicode="&#x151;" horiz-adv-x="468" 
d="M253 582l87 149l84 -44l-101 -105h-70zM125 582l87 149l84 -44l-101 -105h-70zM234 -10c-117 0 -201 103 -201 266v17c0 163 85 268 201 268s201 -104 201 -267v-17c0 -163 -85 -267 -201 -267zM234 82c59 0 97 71 97 178v10c0 107 -39 178 -97 178
c-59 0 -97 -70 -97 -178v-10c0 -107 39 -178 97 -178z" />
    <glyph glyph-name="Omacron" unicode="&#x14c;" horiz-adv-x="574" 
d="M148 755v76h276v-76h-276zM287 -10c-147 0 -247 130 -247 350v20c0 220 101 350 247 350c147 0 247 -130 247 -350v-19c0 -220 -101 -351 -247 -351zM287 89c78 0 137 87 137 254v13c0 167 -59 255 -137 255s-137 -87 -137 -254v-13c0 -167 59 -255 137 -255z" />
    <glyph glyph-name="omacron" unicode="&#x14d;" horiz-adv-x="468" 
d="M106 590v73h258v-73h-258zM234 -10c-117 0 -201 103 -201 266v17c0 163 85 268 201 268s201 -104 201 -267v-17c0 -163 -85 -267 -201 -267zM234 82c59 0 97 71 97 178v10c0 107 -39 178 -97 178c-59 0 -97 -70 -97 -178v-10c0 -107 39 -178 97 -178z" />
    <glyph glyph-name="Oslash" unicode="&#xd8;" horiz-adv-x="574" 
d="M452 706h83l-60 -104c37 -59 59 -141 59 -242v-19c0 -219 -102 -351 -248 -351c-52 0 -99 17 -137 49l-27 -45h-83l60 103c-38 60 -59 142 -59 243v19c0 219 102 351 247 351c52 0 99 -17 137 -49zM148 343c0 -53 5 -98 16 -135l209 359c-23 30 -53 46 -87 46
c-80 0 -138 -86 -138 -255v-15zM287 87c81 0 139 86 139 255v15c0 53 -6 98 -16 135l-210 -360c23 -30 53 -45 87 -45z" />
    <glyph glyph-name="oslash" unicode="&#xf8;" horiz-adv-x="468" 
d="M366 537h78l-54 -86c28 -45 45 -105 45 -177v-17c0 -164 -87 -267 -201 -267c-42 0 -79 13 -110 38l-23 -35h-78l55 86c-29 44 -45 105 -45 177v17c0 164 87 268 201 268c41 0 79 -14 110 -38zM132 260c0 -31 3 -59 9 -83l154 242c-17 20 -38 31 -61 31
c-62 0 -102 -71 -102 -180v-10zM234 80c62 0 101 72 101 180v10c0 30 -3 58 -9 81l-154 -240c17 -20 38 -31 62 -31z" />
    <glyph glyph-name="Oslashacute" unicode="&#x1fe;" horiz-adv-x="574" 
d="M452 706h83l-60 -104c37 -59 59 -141 59 -242v-19c0 -219 -102 -351 -248 -351c-52 0 -99 17 -137 49l-27 -45h-83l60 103c-38 60 -59 142 -59 243v19c0 219 102 351 247 351c52 0 99 -17 137 -49zM148 343c0 -53 5 -98 16 -135l209 359c-23 30 -53 46 -87 46
c-80 0 -138 -86 -138 -255v-15zM287 87c81 0 139 86 139 255v15c0 53 -6 98 -16 135l-210 -360c23 -30 53 -45 87 -45zM243 747l91 130l94 -44l-106 -86h-79z" />
    <glyph glyph-name="oslashacute" unicode="&#x1ff;" horiz-adv-x="468" 
d="M366 537h78l-54 -86c28 -45 45 -105 45 -177v-17c0 -164 -87 -267 -201 -267c-42 0 -79 13 -110 38l-23 -35h-78l55 86c-29 44 -45 105 -45 177v17c0 164 87 268 201 268c41 0 79 -14 110 -38zM132 260c0 -31 3 -59 9 -83l154 242c-17 20 -38 31 -61 31
c-62 0 -102 -71 -102 -180v-10zM234 80c62 0 101 72 101 180v10c0 30 -3 58 -9 81l-154 -240c17 -20 38 -31 62 -31zM190 582l88 149l89 -45l-104 -104h-73z" />
    <glyph glyph-name="Otilde" unicode="&#xd5;" horiz-adv-x="574" 
d="M356 747c-25 0 -48 11 -71 21c-19 9 -35 16 -47 16c-18 0 -26 -12 -37 -41l-61 17c16 70 40 105 84 105c25 0 49 -10 72 -21c19 -9 34 -16 46 -16c18 0 26 12 37 41l61 -16c-16 -71 -40 -106 -84 -106zM287 -10c-147 0 -247 130 -247 350v20c0 220 101 350 247 350
c147 0 247 -130 247 -350v-19c0 -220 -101 -351 -247 -351zM287 89c78 0 137 87 137 254v13c0 167 -59 255 -137 255s-137 -87 -137 -254v-13c0 -167 59 -255 137 -255z" />
    <glyph glyph-name="otilde" unicode="&#xf5;" horiz-adv-x="468" 
d="M234 -10c-117 0 -201 103 -201 266v17c0 163 85 268 201 268s201 -104 201 -267v-17c0 -163 -85 -267 -201 -267zM234 82c59 0 97 71 97 178v10c0 107 -39 178 -97 178c-59 0 -97 -70 -97 -178v-10c0 -107 39 -178 97 -178zM302 582c-24 0 -46 11 -68 22
c-19 10 -34 18 -46 18c-19 0 -27 -13 -37 -45l-59 16c17 74 38 107 82 107c24 0 46 -11 68 -22c19 -10 34 -18 46 -18c19 0 27 13 37 44l59 -16c-16 -73 -38 -106 -82 -106z" />
    <glyph glyph-name="Racute" unicode="&#x154;" horiz-adv-x="513" 
d="M60 0v700h186c72 0 132 -21 172 -61c36 -36 57 -90 57 -158v-5c0 -103 -51 -166 -120 -197l136 -279h-121l-121 252c-5 -1 -9 -1 -13 -1h-68v-251h-108zM168 348h63c94 0 136 51 136 127c0 84 -48 126 -131 126h-68v-253zM203 744l91 130l94 -44l-106 -86h-79z" />
    <glyph glyph-name="racute" unicode="&#x155;" horiz-adv-x="301" 
d="M119 582l88 149l89 -45l-104 -104h-73zM51 0v532h104v-86c22 56 62 96 127 92v-117h-3c-75 0 -124 -49 -124 -149v-272h-104z" />
    <glyph glyph-name="Rcaron" unicode="&#x158;" horiz-adv-x="513" 
d="M60 0v700h186c72 0 132 -21 172 -61c36 -36 57 -90 57 -158v-5c0 -103 -51 -166 -120 -197l136 -279h-121l-121 252c-5 -1 -9 -1 -13 -1h-68v-251h-108zM168 348h63c94 0 136 51 136 127c0 84 -48 126 -131 126h-68v-253zM385 866l-91 -121h-92l-91 121h82l56 -53l56 53
h80z" />
    <glyph glyph-name="rcaron" unicode="&#x159;" horiz-adv-x="301" 
d="M293 721l-89 -138h-86l-89 138h76l57 -66l57 66h74zM51 0v532h104v-86c22 56 62 96 127 92v-117h-3c-75 0 -124 -49 -124 -149v-272h-104z" />
    <glyph glyph-name="Rcommaaccent" unicode="&#x156;" horiz-adv-x="513" 
d="M60 0v700h186c72 0 132 -21 172 -61c36 -36 57 -90 57 -158v-5c0 -103 -51 -166 -120 -197l136 -279h-121l-121 252c-5 -1 -9 -1 -13 -1h-68v-251h-108zM168 348h63c94 0 136 51 136 127c0 84 -48 126 -131 126h-68v-253zM197 -231l-7 36c41 6 56 23 54 57h-45v88h100
v-78c0 -68 -35 -96 -102 -103z" />
    <glyph glyph-name="rcommaaccent" unicode="&#x157;" horiz-adv-x="301" 
d="M57 -233l-7 36c41 6 56 23 54 57h-45v88h100v-78c0 -68 -35 -96 -102 -103zM51 0v532h104v-86c22 56 62 96 127 92v-117h-3c-75 0 -124 -49 -124 -149v-272h-104z" />
    <glyph glyph-name="Sacute" unicode="&#x15a;" horiz-adv-x="446" 
d="M215 -8c-69 0 -141 24 -207 90l65 84c35 -34 82 -74 141 -74c58 0 95 40 95 90v1c0 38 -18 68 -107 121c-115 67 -166 122 -166 213v2c0 110 82 189 202 189c58 0 126 -21 181 -77l-66 -83c-31 31 -72 60 -120 60c-52 0 -88 -34 -88 -79v-1c0 -42 19 -70 121 -132
c110 -66 152 -121 152 -208v-2c0 -113 -88 -194 -203 -194zM183 747l91 130l94 -44l-106 -86h-79z" />
    <glyph glyph-name="sacute" unicode="&#x15b;" horiz-adv-x="359" 
d="M141 582l88 149l89 -45l-104 -104h-73zM173 -9c-51 0 -112 18 -167 68l51 79c38 -35 77 -57 116 -57c42 0 64 26 64 58v1c0 33 -25 54 -88 90c-81 47 -121 87 -121 159v2c0 90 67 148 160 148c50 0 103 -19 147 -54l-48 -80c-27 24 -61 44 -100 44c-38 0 -60 -23 -60 -51
v-2c0 -31 25 -51 88 -88c87 -52 122 -94 122 -162v-1c0 -96 -72 -154 -164 -154z" />
    <glyph glyph-name="Scaron" unicode="&#x160;" horiz-adv-x="446" 
d="M215 -8c-69 0 -141 24 -207 90l65 84c35 -34 82 -74 141 -74c58 0 95 40 95 90v1c0 38 -18 68 -107 121c-115 67 -166 122 -166 213v2c0 110 82 189 202 189c58 0 126 -21 181 -77l-66 -83c-31 31 -72 60 -120 60c-52 0 -88 -34 -88 -79v-1c0 -42 19 -70 121 -132
c110 -66 152 -121 152 -208v-2c0 -113 -88 -194 -203 -194zM366 869l-91 -121h-92l-91 121h82l56 -53l56 53h80z" />
    <glyph glyph-name="scaron" unicode="&#x161;" horiz-adv-x="359" 
d="M315 721l-89 -138h-86l-89 138h76l57 -66l57 66h74zM173 -9c-51 0 -112 18 -167 68l51 79c38 -35 77 -57 116 -57c42 0 64 26 64 58v1c0 33 -25 54 -88 90c-81 47 -121 87 -121 159v2c0 90 67 148 160 148c50 0 103 -19 147 -54l-48 -80c-27 24 -61 44 -100 44
c-38 0 -60 -23 -60 -51v-2c0 -31 25 -51 88 -88c87 -52 122 -94 122 -162v-1c0 -96 -72 -154 -164 -154z" />
    <glyph glyph-name="Scedilla" unicode="&#x15e;" horiz-adv-x="446" 
d="M215 -136l-92 36l61 94c-59 6 -120 31 -176 88l65 84c35 -34 82 -74 141 -74c58 0 95 40 95 90v1c0 38 -18 68 -107 121c-115 67 -166 122 -166 213v2c0 110 82 189 202 189c58 0 126 -21 181 -77l-66 -83c-31 31 -72 60 -120 60c-52 0 -88 -34 -88 -79v-1
c0 -42 19 -70 121 -132c110 -66 152 -121 152 -208v-2c0 -96 -64 -169 -154 -188z" />
    <glyph glyph-name="scedilla" unicode="&#x15f;" horiz-adv-x="359" 
d="M167 -136l-92 36l62 94c-43 7 -89 26 -131 65l51 79c38 -35 77 -57 116 -57c42 0 64 26 64 58v1c0 33 -25 54 -88 90c-81 47 -121 87 -121 159v2c0 90 67 148 160 148c50 0 103 -19 147 -54l-48 -80c-27 24 -61 44 -100 44c-38 0 -60 -23 -60 -51v-2c0 -31 25 -51 88 -88
c87 -52 122 -94 122 -162v-1c0 -81 -51 -134 -121 -149z" />
    <glyph glyph-name="Scommaaccent" unicode="&#x218;" horiz-adv-x="446" 
d="M169 -233l-7 36c41 6 56 23 54 57h-45v88h100v-78c0 -68 -35 -96 -102 -103zM215 -8c-69 0 -141 24 -207 90l65 84c35 -34 82 -74 141 -74c58 0 95 40 95 90v1c0 38 -18 68 -107 121c-115 67 -166 122 -166 213v2c0 110 82 189 202 189c58 0 126 -21 181 -77l-66 -83
c-31 31 -72 60 -120 60c-52 0 -88 -34 -88 -79v-1c0 -42 19 -70 121 -132c110 -66 152 -121 152 -208v-2c0 -113 -88 -194 -203 -194z" />
    <glyph glyph-name="scommaaccent" unicode="&#x219;" horiz-adv-x="359" 
d="M126 -233l-7 36c41 6 56 23 54 57h-45v88h100v-78c0 -68 -35 -96 -102 -103zM173 -9c-51 0 -112 18 -167 68l51 79c38 -35 77 -57 116 -57c42 0 64 26 64 58v1c0 33 -25 54 -88 90c-81 47 -121 87 -121 159v2c0 90 67 148 160 148c50 0 103 -19 147 -54l-48 -80
c-27 24 -61 44 -100 44c-38 0 -60 -23 -60 -51v-2c0 -31 25 -51 88 -88c87 -52 122 -94 122 -162v-1c0 -96 -72 -154 -164 -154z" />
    <glyph glyph-name="Tcaron" unicode="&#x164;" horiz-adv-x="437" 
d="M356 866l-91 -121h-92l-91 121h82l56 -53l56 53h80zM164 0v599h-140v101h389v-101h-141v-599h-108z" />
    <glyph glyph-name="tcaron" unicode="&#x165;" horiz-adv-x="296" 
d="M220 569l10 164h76v-3l-42 -161h-44zM190 -7c-68 0 -121 26 -121 116v335h-47v88h47v141h105v-141h93v-88h-93v-309c0 -35 17 -49 47 -49c15 0 31 4 45 11v-85c-20 -11 -47 -19 -76 -19z" />
    <glyph glyph-name="Tcommaaccent" unicode="&#x162;" horiz-adv-x="437" 
d="M167 -233l-7 36c41 6 56 23 54 57h-45v88h100v-78c0 -68 -35 -96 -102 -103zM164 0v599h-140v101h389v-101h-141v-599h-108z" />
    <glyph glyph-name="tcommaaccent" unicode="&#x163;" horiz-adv-x="296" 
d="M112 -233l-7 36c41 6 56 23 54 57h-45v88h100v-78c0 -68 -35 -96 -102 -103zM190 -7c-68 0 -121 26 -121 116v335h-47v88h47v141h105v-141h93v-88h-93v-309c0 -35 17 -49 47 -49c15 0 31 4 45 11v-85c-20 -11 -47 -19 -76 -19z" />
    <glyph glyph-name="Thorn" unicode="&#xde;" horiz-adv-x="486" 
d="M60 0v700h108v-106h57c143 0 236 -82 236 -231v-2c0 -154 -99 -238 -235 -238h-58v-123h-108zM168 221h53c85 0 131 54 131 137v1c0 88 -45 136 -130 136h-54v-274z" />
    <glyph glyph-name="thorn" unicode="&#xfe;" horiz-adv-x="478" 
d="M51 -140v854h104v-264c25 46 62 91 126 91c85 0 162 -80 162 -262v-26c0 -181 -76 -263 -162 -263c-64 0 -101 44 -126 88v-218h-104zM248 86c52 0 90 64 90 172v16c0 108 -38 172 -90 172s-94 -64 -94 -171v-18c0 -107 42 -171 94 -171z" />
    <glyph glyph-name="Uacute" unicode="&#xda;" horiz-adv-x="539" 
d="M225 743l91 130l94 -44l-106 -86h-79zM269 -10c-128 0 -215 82 -215 244v466h108v-471c0 -93 42 -139 108 -139s108 45 108 138v472h107v-465c0 -163 -87 -245 -216 -245z" />
    <glyph glyph-name="uacute" unicode="&#xfa;" horiz-adv-x="457" 
d="M184 582l88 149l89 -45l-104 -104h-73zM181 -10c-84 0 -134 63 -134 165v377h104v-348c0 -67 27 -100 73 -100s78 37 78 100v348h104v-532h-104v73c-25 -45 -60 -83 -121 -83z" />
    <glyph glyph-name="Ubreve" unicode="&#x16c;" horiz-adv-x="539" 
d="M268 737c-73 0 -128 38 -132 113h70c7 -29 26 -43 62 -43c35 0 55 14 62 43h71c-6 -75 -60 -113 -133 -113zM269 -10c-128 0 -215 82 -215 244v466h108v-471c0 -93 42 -139 108 -139s108 45 108 138v472h107v-465c0 -163 -87 -245 -216 -245z" />
    <glyph glyph-name="ubreve" unicode="&#x16d;" horiz-adv-x="457" 
d="M181 -10c-84 0 -134 63 -134 165v377h104v-348c0 -67 27 -100 73 -100s78 37 78 100v348h104v-532h-104v73c-25 -45 -60 -83 -121 -83zM228 579c-71 0 -125 41 -132 123h69c7 -32 26 -53 63 -53s56 21 63 53h69c-7 -82 -61 -123 -132 -123z" />
    <glyph glyph-name="Ucircumflex" unicode="&#xdb;" horiz-adv-x="539" 
d="M269 -10c-128 0 -215 82 -215 244v466h108v-471c0 -93 42 -139 108 -139s108 45 108 138v472h107v-465c0 -163 -87 -245 -216 -245zM131 744l91 121h92l91 -121h-82l-56 53l-56 -53h-80z" />
    <glyph glyph-name="ucircumflex" unicode="&#xfb;" horiz-adv-x="457" 
d="M96 583l89 138h86l89 -138h-76l-57 66l-57 -66h-74zM181 -10c-84 0 -134 63 -134 165v377h104v-348c0 -67 27 -100 73 -100s78 37 78 100v348h104v-532h-104v73c-25 -45 -60 -83 -121 -83z" />
    <glyph glyph-name="Udieresis" unicode="&#xdc;" horiz-adv-x="539" 
d="M297 746v101h103v-101h-103zM136 746v101h103v-101h-103zM269 -10c-128 0 -215 82 -215 244v466h108v-471c0 -93 42 -139 108 -139s108 45 108 138v472h107v-465c0 -163 -87 -245 -216 -245z" />
    <glyph glyph-name="udieresis" unicode="&#xfc;" horiz-adv-x="457" 
d="M254 586v102h100v-102h-100zM102 586v102h100v-102h-100zM181 -10c-84 0 -134 63 -134 165v377h104v-348c0 -67 27 -100 73 -100s78 37 78 100v348h104v-532h-104v73c-25 -45 -60 -83 -121 -83z" />
    <glyph glyph-name="Ugrave" unicode="&#xd9;" horiz-adv-x="539" 
d="M315 743h-80l-105 86l94 44zM269 -10c-128 0 -215 82 -215 244v466h108v-471c0 -93 42 -139 108 -139s108 45 108 138v472h107v-465c0 -163 -87 -245 -216 -245z" />
    <glyph glyph-name="ugrave" unicode="&#xf9;" horiz-adv-x="457" 
d="M181 -10c-84 0 -134 63 -134 165v377h104v-348c0 -67 27 -100 73 -100s78 37 78 100v348h104v-532h-104v73c-25 -45 -60 -83 -121 -83zM196 582l-104 104l90 45l87 -149h-73z" />
    <glyph glyph-name="Uhungarumlaut" unicode="&#x170;" horiz-adv-x="539" 
d="M269 -10c-128 0 -215 82 -215 244v466h108v-471c0 -93 42 -139 108 -139s108 45 108 138v472h107v-465c0 -163 -87 -245 -216 -245zM157 743l91 130l87 -44l-103 -86h-75zM289 743l92 130l87 -44l-103 -86h-76z" />
    <glyph glyph-name="uhungarumlaut" unicode="&#x171;" horiz-adv-x="457" 
d="M181 -10c-84 0 -134 63 -134 165v377h104v-348c0 -67 27 -100 73 -100s78 37 78 100v348h104v-532h-104v73c-25 -45 -60 -83 -121 -83zM246 582l87 149l84 -44l-101 -105h-70zM118 582l87 149l84 -44l-101 -105h-70z" />
    <glyph glyph-name="Umacron" unicode="&#x16a;" horiz-adv-x="539" 
d="M130 751v76h276v-76h-276zM269 -10c-128 0 -215 82 -215 244v466h108v-471c0 -93 42 -139 108 -139s108 45 108 138v472h107v-465c0 -163 -87 -245 -216 -245z" />
    <glyph glyph-name="umacron" unicode="&#x16b;" horiz-adv-x="457" 
d="M181 -10c-84 0 -134 63 -134 165v377h104v-348c0 -67 27 -100 73 -100s78 37 78 100v348h104v-532h-104v73c-25 -45 -60 -83 -121 -83zM99 590v73h258v-73h-258z" />
    <glyph glyph-name="Uogonek" unicode="&#x172;" horiz-adv-x="539" 
d="M332 -89v-58c-13 -2 -24 -3 -34 -3c-66 0 -101 28 -101 71c0 27 12 49 32 72c-106 16 -175 96 -175 241v466h108v-471c0 -93 42 -139 108 -139s108 45 108 138v472h107v-465c0 -149 -73 -231 -184 -243c-15 -20 -21 -34 -21 -49c0 -24 18 -33 52 -32z" />
    <glyph glyph-name="uogonek" unicode="&#x173;" horiz-adv-x="457" 
d="M181 -10c-84 0 -134 63 -134 165v377h104v-348c0 -67 27 -100 73 -100s78 37 78 100v348h104v-532h-18c-19 -23 -27 -41 -27 -57c0 -24 18 -33 52 -32v-58c-13 -2 -24 -3 -34 -3c-66 0 -101 28 -101 71c0 30 14 54 38 79h-14v73c-25 -45 -60 -83 -121 -83z" />
    <glyph glyph-name="Uring" unicode="&#x16e;" horiz-adv-x="539" 
d="M269 -10c-128 0 -215 82 -215 244v466h108v-471c0 -93 42 -139 108 -139s108 45 108 138v472h107v-465c0 -163 -87 -245 -216 -245zM268 726c-53 0 -97 38 -97 90s44 90 97 90c54 0 97 -38 97 -90s-44 -90 -97 -90zM268 768c29 0 50 21 50 48s-21 48 -50 48
s-50 -21 -50 -48s21 -48 50 -48z" />
    <glyph glyph-name="uring" unicode="&#x16f;" horiz-adv-x="457" 
d="M228 570c-53 0 -95 41 -95 95c0 53 42 95 95 95s95 -41 95 -95s-42 -95 -95 -95zM228 611c29 0 50 23 50 54c0 30 -21 54 -50 54c-28 0 -50 -24 -50 -54c0 -31 22 -54 50 -54zM181 -10c-84 0 -134 63 -134 165v377h104v-348c0 -67 27 -100 73 -100s78 37 78 100v348h104
v-532h-104v73c-25 -45 -60 -83 -121 -83z" />
    <glyph glyph-name="Wacute" unicode="&#x1e82;" horiz-adv-x="787" 
d="M348 744l91 130l94 -44l-106 -86h-79zM179 -4l-159 704h113l102 -497l111 498h96l111 -498l102 497h111l-159 -704h-104l-110 485l-111 -485h-103z" />
    <glyph glyph-name="wacute" unicode="&#x1e83;" horiz-adv-x="639" 
d="M276 582l88 149l89 -45l-104 -104h-73zM143 -3l-121 535h106l71 -353l77 353h88l77 -353l72 353h104l-122 -535h-98l-78 346l-78 -346h-98z" />
    <glyph glyph-name="Wcircumflex" unicode="&#x174;" horiz-adv-x="787" 
d="M179 -4l-159 704h113l102 -497l111 498h96l111 -498l102 497h111l-159 -704h-104l-110 485l-111 -485h-103zM255 745l91 121h92l91 -121h-82l-56 53l-56 -53h-80z" />
    <glyph glyph-name="wcircumflex" unicode="&#x175;" horiz-adv-x="639" 
d="M186 583l89 138h86l89 -138h-76l-57 66l-57 -66h-74zM143 -3l-121 535h106l71 -353l77 353h88l77 -353l72 353h104l-122 -535h-98l-78 346l-78 -346h-98z" />
    <glyph glyph-name="Wdieresis" unicode="&#x1e84;" horiz-adv-x="787" 
d="M421 747v101h103v-101h-103zM260 747v101h103v-101h-103zM179 -4l-159 704h113l102 -497l111 498h96l111 -498l102 497h111l-159 -704h-104l-110 485l-111 -485h-103z" />
    <glyph glyph-name="wdieresis" unicode="&#x1e85;" horiz-adv-x="639" 
d="M344 586v102h100v-102h-100zM192 586v102h100v-102h-100zM143 -3l-121 535h106l71 -353l77 353h88l77 -353l72 353h104l-122 -535h-98l-78 346l-78 -346h-98z" />
    <glyph glyph-name="Wgrave" unicode="&#x1e80;" horiz-adv-x="787" 
d="M436 744h-80l-105 86l94 44zM179 -4l-159 704h113l102 -497l111 498h96l111 -498l102 497h111l-159 -704h-104l-110 485l-111 -485h-103z" />
    <glyph glyph-name="wgrave" unicode="&#x1e81;" horiz-adv-x="639" 
d="M143 -3l-121 535h106l71 -353l77 353h88l77 -353l72 353h104l-122 -535h-98l-78 346l-78 -346h-98zM287 582l-104 104l90 45l87 -149h-73z" />
    <glyph glyph-name="Yacute" unicode="&#xdd;" horiz-adv-x="498" 
d="M195 0v281l-187 419h117l125 -295l125 295h115l-187 -418v-282h-108zM204 743l91 130l94 -44l-106 -86h-79z" />
    <glyph glyph-name="yacute" unicode="&#xfd;" horiz-adv-x="436" 
d="M221 154l90 378h106l-146 -532c-30 -107 -69 -144 -138 -144c-25 0 -58 8 -86 24l23 83c14 -9 33 -16 50 -16c24 0 41 12 52 52l-153 533h107zM176 582l88 149l89 -45l-104 -104h-73z" />
    <glyph glyph-name="Ycircumflex" unicode="&#x176;" horiz-adv-x="498" 
d="M195 0v281l-187 419h117l125 -295l125 295h115l-187 -418v-282h-108zM112 744l91 121h92l91 -121h-82l-56 53l-56 -53h-80z" />
    <glyph glyph-name="ycircumflex" unicode="&#x177;" horiz-adv-x="436" 
d="M221 154l90 378h106l-146 -532c-30 -107 -69 -144 -138 -144c-25 0 -58 8 -86 24l23 83c14 -9 33 -16 50 -16c24 0 41 12 52 52l-153 533h107zM87 583l89 138h86l89 -138h-76l-57 66l-57 -66h-74z" />
    <glyph glyph-name="Ydieresis" unicode="&#x178;" horiz-adv-x="498" 
d="M195 0v281l-187 419h117l125 -295l125 295h115l-187 -418v-282h-108zM278 746v101h103v-101h-103zM117 746v101h103v-101h-103z" />
    <glyph glyph-name="ydieresis" unicode="&#xff;" horiz-adv-x="436" 
d="M221 154l90 378h106l-146 -532c-30 -107 -69 -144 -138 -144c-25 0 -58 8 -86 24l23 83c14 -9 33 -16 50 -16c24 0 41 12 52 52l-153 533h107zM245 586v102h100v-102h-100zM93 586v102h100v-102h-100z" />
    <glyph glyph-name="Ygrave" unicode="&#x1ef2;" horiz-adv-x="498" 
d="M195 0v281l-187 419h117l125 -295l125 295h115l-187 -418v-282h-108zM294 743h-80l-105 86l94 44z" />
    <glyph glyph-name="ygrave" unicode="&#x1ef3;" horiz-adv-x="436" 
d="M221 154l90 378h106l-146 -532c-30 -107 -69 -144 -138 -144c-25 0 -58 8 -86 24l23 83c14 -9 33 -16 50 -16c24 0 41 12 52 52l-153 533h107zM187 582l-104 104l90 45l87 -149h-73z" />
    <glyph glyph-name="Zacute" unicode="&#x179;" horiz-adv-x="471" 
d="M40 0v82l265 520h-256v98h384v-81l-266 -521h266v-98h-393zM196 744l91 130l94 -44l-106 -86h-79z" />
    <glyph glyph-name="zacute" unicode="&#x17a;" horiz-adv-x="380" 
d="M153 582l88 149l89 -45l-104 -104h-73zM28 0v72l205 372h-197v88h317v-73l-205 -372h204v-87h-324z" />
    <glyph glyph-name="Zcaron" unicode="&#x17d;" horiz-adv-x="471" 
d="M378 866l-91 -121h-92l-91 121h82l56 -53l56 53h80zM40 0v82l265 520h-256v98h384v-81l-266 -521h266v-98h-393z" />
    <glyph glyph-name="zcaron" unicode="&#x17e;" horiz-adv-x="380" 
d="M326 721l-89 -138h-86l-89 138h76l57 -66l57 66h74zM28 0v72l205 372h-197v88h317v-73l-205 -372h204v-87h-324z" />
    <glyph glyph-name="Zdotaccent" unicode="&#x17b;" horiz-adv-x="471" 
d="M189 747v101h104v-101h-104zM40 0v82l265 520h-256v98h384v-81l-266 -521h266v-98h-393z" />
    <glyph glyph-name="zdotaccent" unicode="&#x17c;" horiz-adv-x="380" 
d="M28 0v72l205 372h-197v88h317v-73l-205 -372h204v-87h-324zM143 586v103h102v-103h-102z" />
    <glyph glyph-name="schwa" unicode="&#x259;" horiz-adv-x="434" 
d="M192 541c117 0 210 -97 210 -267v-14c0 -167 -83 -270 -190 -270c-117 0 -183 106 -183 272c0 4 0 26 1 47h269c-8 92 -55 140 -115 140c-39 0 -70 -22 -97 -49l-47 78c45 40 93 63 152 63zM300 232h-171c3 -91 32 -152 83 -152c48 0 83 54 88 152z" />
    <glyph glyph-name="germandbls" unicode="&#xdf;" horiz-adv-x="466" 
d="M222 -2v86c72 5 110 47 110 115v1c0 67 -40 109 -110 123v74c56 28 85 78 85 135v2c0 58 -29 93 -72 93c-50 0 -80 -44 -80 -118v-509h-104v505c0 130 70 213 186 213c108 0 172 -75 172 -171v-6c0 -85 -41 -136 -95 -168c69 -27 121 -80 121 -172v-5
c0 -122 -78 -197 -213 -198z" />
    <glyph glyph-name="zero" unicode="0" horiz-adv-x="518" 
d="M259 -10c-137 0 -220 122 -220 349v21c0 227 84 350 221 350c135 0 219 -122 219 -349v-21c0 -227 -84 -350 -220 -350zM260 89c64 0 110 76 110 253v15c0 177 -48 254 -111 254c-64 0 -110 -76 -110 -253v-15c0 -177 46 -254 111 -254z" />
    <glyph glyph-name="one" unicode="1" horiz-adv-x="297" 
d="M122 0v589l-92 -32l-10 101l132 46h77v-704h-107z" />
    <glyph glyph-name="two" unicode="2" horiz-adv-x="447" 
d="M37 0v87l183 256c59 82 81 124 81 174c0 55 -39 90 -89 90c-43 0 -78 -25 -115 -73l-65 73c48 66 118 103 191 103c107 0 187 -69 187 -184v-2c0 -78 -28 -131 -105 -234l-137 -188h240v-102h-371z" />
    <glyph glyph-name="three" unicode="3" horiz-adv-x="437" 
d="M190 -10c-72 0 -130 26 -173 67l54 83c25 -23 60 -51 114 -51c62 0 109 45 109 117v3c0 76 -60 116 -157 116h-12l-7 70l148 204h-222v101h350v-89l-157 -207c87 -18 164 -77 164 -192v-4c0 -133 -91 -218 -211 -218z" />
    <glyph glyph-name="three.alt" horiz-adv-x="435" 
d="M190 -10c-68 0 -126 23 -174 66l53 83c27 -24 67 -50 116 -50c64 0 111 45 111 112v1c0 66 -45 110 -147 110h-26v94h26c92 0 138 46 138 111c0 59 -43 94 -95 94s-87 -30 -111 -51l-55 76c48 45 110 74 178 74c107 0 189 -67 189 -176v-1c0 -87 -50 -141 -111 -167
c70 -24 121 -80 121 -169v-2c0 -120 -88 -205 -213 -205z" />
    <glyph glyph-name="four" unicode="4" horiz-adv-x="493" 
d="M292 0v145h-260l-9 80l270 479h100v-466h74v-93h-74v-145h-101zM132 238h160v288z" />
    <glyph glyph-name="five" unicode="5" horiz-adv-x="446" 
d="M196 -10c-63 0 -124 24 -170 66l54 84c34 -29 68 -49 114 -49c65 0 110 51 110 130v1c0 79 -50 121 -112 121c-32 0 -57 -9 -80 -20l-60 40l18 337h314v-101h-226l-10 -169c21 6 41 12 72 12c99 0 192 -64 192 -215v-3c0 -144 -94 -234 -216 -234z" />
    <glyph glyph-name="six" unicode="6" horiz-adv-x="483" 
d="M247 -10c-53 0 -98 18 -130 51c-47 49 -78 124 -78 276v11c0 261 94 382 238 382c52 0 97 -16 141 -48l-47 -89c-20 17 -55 37 -95 37c-77 0 -124 -78 -129 -218c31 33 72 54 123 54c91 0 178 -68 178 -216v-3c0 -141 -90 -237 -201 -237zM247 86c59 0 96 56 96 136v1
c0 83 -39 131 -96 131s-97 -48 -97 -130v-1c0 -82 35 -137 97 -137z" />
    <glyph glyph-name="seven" unicode="7" horiz-adv-x="436" 
d="M72 0l218 596h-253v104h364v-81l-216 -619h-113z" />
    <glyph glyph-name="eight" unicode="8" horiz-adv-x="472" 
d="M236 -10c-118 0 -205 77 -205 197v5c0 89 44 141 102 170c-50 30 -86 84 -86 158v5c0 110 81 185 189 185s188 -75 188 -185v-5c0 -74 -35 -128 -85 -158c58 -29 102 -81 102 -170v-5c0 -120 -87 -197 -205 -197zM236 79c58 0 100 46 100 117v2c0 71 -44 118 -100 118
s-100 -47 -100 -118v-2c0 -71 42 -117 100 -117zM236 405c49 0 87 46 87 111v1c0 66 -39 105 -87 105s-87 -39 -87 -105v-1c0 -65 38 -111 87 -111z" />
    <glyph glyph-name="nine" unicode="9" horiz-adv-x="482" 
d="M206 90c77 0 124 78 128 210c-30 -34 -72 -54 -121 -54c-92 0 -178 70 -178 220v3c0 144 89 241 201 241c53 0 97 -18 130 -51c47 -49 77 -124 77 -276v-11c0 -261 -94 -382 -238 -382c-52 0 -100 16 -151 55l47 89c31 -24 65 -44 105 -44zM236 338c57 0 97 49 97 134v1
c0 85 -36 141 -97 141c-60 0 -96 -56 -96 -140v-1c0 -86 39 -135 96 -135z" />
    <glyph glyph-name="period" unicode="." horiz-adv-x="224" 
d="M51 0v128h122v-128h-122z" />
    <glyph glyph-name="comma" unicode="," horiz-adv-x="224" 
d="M36 -145l-12 46c63 14 83 53 78 99h-51v128h122v-107c0 -100 -46 -152 -137 -166z" />
    <glyph glyph-name="colon" unicode=":" horiz-adv-x="234" 
d="M56 403v128h122v-128h-122zM56 0v128h122v-128h-122z" />
    <glyph glyph-name="semicolon" unicode=";" horiz-adv-x="234" 
d="M56 403v128h122v-128h-122zM41 -145l-12 46c63 14 83 53 78 99h-51v128h122v-107c0 -100 -46 -152 -137 -166z" />
    <glyph glyph-name="ellipsis" unicode="&#x2026;" horiz-adv-x="704" 
d="M528 0v127h121v-127h-121zM292 0v127h121v-127h-121zM55 0v127h121v-127h-121z" />
    <glyph glyph-name="periodcentered" unicode="&#xb7;" horiz-adv-x="233" 
d="M55 242v128h122v-128h-122z" />
    <glyph glyph-name="bullet" unicode="&#x2022;" horiz-adv-x="394" 
d="M197 214c-66 0 -116 51 -116 134v11c0 83 50 134 116 134c65 0 117 -51 117 -134v-11c0 -83 -51 -134 -117 -134z" />
    <glyph glyph-name="ampersand" unicode="&#x26;" horiz-adv-x="525" 
d="M432 -12l-60 82c-43 -49 -92 -79 -162 -79c-105 0 -185 77 -185 189v3c0 86 44 154 124 207c-42 63 -61 108 -61 158v5c0 84 62 157 160 157c93 0 152 -67 152 -152v-5c0 -83 -47 -139 -121 -187l93 -138c15 34 26 69 39 119l84 -24c-16 -70 -37 -127 -63 -176l79 -107z
M230 432c52 33 76 73 76 118v2c0 41 -24 72 -59 72c-39 0 -63 -32 -63 -72v-2c0 -34 12 -67 46 -118zM221 82c39 0 71 22 99 56l-121 180c-47 -35 -68 -84 -68 -129v-3c0 -60 36 -104 90 -104z" />
    <glyph glyph-name="exclam" unicode="!" horiz-adv-x="246" 
d="M95 212l-35 453v35h126v-35l-35 -453h-56zM62 0v128h122v-128h-122z" />
    <glyph glyph-name="exclamdown" unicode="&#xa1;" horiz-adv-x="246" 
d="M62 572v128h122v-128h-122zM60 0v35l35 453h56l35 -453v-35h-126z" />
    <glyph glyph-name="question" unicode="?" horiz-adv-x="397" 
d="M139 212l-13 171l4 5c86 15 134 58 134 125v2c0 56 -39 93 -94 93c-47 0 -83 -30 -105 -52l-57 77c47 44 100 73 169 73c118 0 193 -78 193 -187v-1c0 -111 -68 -167 -150 -193l-11 -113h-70zM114 0v128h122v-128h-122z" />
    <glyph glyph-name="questiondown" unicode="&#xbf;" horiz-adv-x="397" 
d="M162 572v128h121v-128h-121zM221 -6c-118 0 -194 78 -194 187v1c0 111 68 168 150 193l11 113h71l13 -171l-5 -5c-85 -15 -134 -58 -134 -125v-2c0 -56 40 -93 94 -93c48 0 84 31 105 52l57 -77c-47 -44 -100 -73 -168 -73z" />
    <glyph glyph-name="quotedblleft" unicode="&#x201c;" horiz-adv-x="421" 
d="M243 430v108c0 99 46 152 137 165l11 -45c-62 -14 -82 -53 -78 -99h51v-129h-121zM48 430v108c0 99 47 152 138 165l11 -45c-62 -14 -82 -53 -78 -99h52v-129h-123z" />
    <glyph glyph-name="quotedblright" unicode="&#x201d;" horiz-adv-x="421" 
d="M235 428l-12 45c63 14 83 54 79 99h-52v128h122v-107c0 -99 -46 -152 -137 -165zM41 428l-12 45c63 14 83 54 78 99h-51v128h122v-107c0 -99 -46 -152 -137 -165z" />
    <glyph glyph-name="quoteleft" unicode="&#x2018;" horiz-adv-x="227" 
d="M48 430v108c0 99 47 152 138 165l11 -45c-62 -14 -82 -53 -78 -99h52v-129h-123z" />
    <glyph glyph-name="quoteright" unicode="&#x2019;" horiz-adv-x="227" 
d="M41 428l-12 45c63 14 83 54 78 99h-51v128h122v-107c0 -99 -46 -152 -137 -165z" />
    <glyph glyph-name="quotedblbase" unicode="&#x201e;" horiz-adv-x="436" 
d="M238 -145l-11 46c66 14 88 53 83 99h-51v128h122v-107c0 -100 -46 -151 -143 -166zM40 -145l-11 46c66 14 87 53 83 99h-51v128h122v-107c0 -100 -47 -151 -143 -166z" />
    <glyph glyph-name="quotesinglbase" unicode="&#x201a;" horiz-adv-x="238" 
d="M40 -145l-11 46c66 14 87 53 83 99h-51v128h122v-107c0 -100 -47 -151 -143 -166z" />
    <glyph glyph-name="guillemotleft" unicode="&#xab;" horiz-adv-x="488" 
d="M379 43l-150 217v8l150 217l73 -39l-109 -181l110 -181zM182 43l-149 217v8l149 217l74 -39l-110 -181l111 -181z" />
    <glyph glyph-name="guillemotright" unicode="&#xbb;" horiz-adv-x="488" 
d="M305 43l-73 40l109 180l-110 181l74 41l150 -217v-8zM109 43l-73 40l109 180l-111 181l75 41l150 -217v-8z" />
    <glyph glyph-name="guilsinglleft" unicode="&#x2039;" horiz-adv-x="291" 
d="M182 43l-149 217v8l149 217l74 -39l-110 -181l111 -181z" />
    <glyph glyph-name="guilsinglright" unicode="&#x203a;" horiz-adv-x="291" 
d="M109 43l-73 40l109 180l-111 181l75 41l150 -217v-8z" />
    <glyph glyph-name="hyphen" unicode="-" horiz-adv-x="349" 
d="M45 254v104h259v-104h-259z" />
    <glyph glyph-name="endash" unicode="&#x2013;" horiz-adv-x="471" 
d="M45 255v102h381v-102h-381z" />
    <glyph glyph-name="emdash" unicode="&#x2014;" horiz-adv-x="737" 
d="M45 255v102h647v-102h-647z" />
    <glyph glyph-name="underscore" unicode="_" horiz-adv-x="506" 
d="M-2 -156v83h510v-83h-510z" />
    <glyph glyph-name="slash" unicode="/" horiz-adv-x="376" 
d="M-14 -109l304 888h89l-303 -888h-90z" />
    <glyph glyph-name="backslash" unicode="\" horiz-adv-x="376" 
d="M301 -109l-304 888h90l303 -888h-89z" />
    <glyph glyph-name="bar" unicode="|" horiz-adv-x="273" 
d="M95 -109v888h84v-888h-84z" />
    <glyph glyph-name="parenleft" unicode="(" horiz-adv-x="338" 
d="M278 -135c-153 73 -230 224 -230 423c0 200 77 351 230 424l36 -66c-114 -70 -163 -195 -163 -358c0 -162 49 -287 163 -357z" />
    <glyph glyph-name="parenright" unicode=")" horiz-adv-x="338" 
d="M60 -135l-36 66c114 70 163 195 163 357c0 163 -49 288 -163 358l36 66c153 -73 230 -224 230 -424c0 -199 -77 -350 -230 -423z" />
    <glyph glyph-name="bracketleft" unicode="[" horiz-adv-x="341" 
d="M75 -130v830h225v-78h-129v-674h129v-78h-225z" />
    <glyph glyph-name="bracketright" unicode="]" horiz-adv-x="341" 
d="M41 -130v78h130v674h-130v78h225v-830h-225z" />
    <glyph glyph-name="braceleft" unicode="{" horiz-adv-x="366" 
d="M321 -140c-141 14 -191 78 -191 163c0 45 20 87 20 132c0 57 -30 91 -96 91h-21v83h21c66 0 96 35 96 91c0 45 -20 87 -20 132c0 86 50 149 191 163l14 -72c-77 -9 -110 -40 -110 -98c0 -49 22 -84 22 -133c0 -64 -41 -111 -110 -124c69 -14 110 -61 110 -125
c0 -48 -22 -83 -22 -133c0 -58 33 -89 110 -98z" />
    <glyph glyph-name="braceright" unicode="}" horiz-adv-x="366" 
d="M45 -140l-13 72c77 9 109 40 109 98c0 50 -22 85 -22 133c0 64 41 111 110 125c-69 13 -110 60 -110 124c0 49 22 84 22 133c0 58 -32 89 -109 98l13 72c141 -14 191 -77 191 -163c0 -45 -20 -87 -20 -132c0 -56 31 -91 97 -91h20v-83h-20c-66 0 -97 -34 -97 -91
c0 -45 20 -87 20 -132c0 -85 -50 -149 -191 -163z" />
    <glyph glyph-name="at" unicode="@" horiz-adv-x="761" 
d="M371 -145c-189 0 -334 145 -333 381c0 249 149 474 369 474c185 0 315 -157 315 -339c0 -168 -70 -302 -174 -302c-67 0 -102 36 -112 82c-30 -46 -69 -81 -124 -81c-66 0 -119 53 -119 148c0 153 83 289 179 289c54 0 84 -35 99 -75l11 63l87 -14l-45 -255
c-5 -19 -7 -39 -7 -57c0 -36 18 -57 50 -57c64 0 116 119 116 260c0 160 -109 301 -278 301c-197 0 -328 -214 -328 -438c-1 -211 123 -344 297 -344c71 0 126 17 183 51l19 -31c-62 -37 -123 -56 -205 -56zM342 145c18 0 36 9 51 24c33 33 58 115 58 174
c0 54 -27 82 -61 82c-19 0 -37 -8 -51 -23c-35 -35 -56 -121 -56 -176c0 -57 25 -81 59 -81z" />
    <glyph glyph-name="copyright" unicode="&#xa9;" horiz-adv-x="634" 
d="M317 -11c-164 0 -282 148 -282 350v22c0 202 119 350 282 350c165 0 283 -148 283 -350v-22c0 -201 -119 -350 -283 -350zM317 23c148 0 247 136 247 316v23c0 180 -99 315 -247 315c-147 0 -247 -135 -247 -316v-23c0 -180 99 -315 247 -315zM326 154
c-83 0 -139 69 -139 193v10c0 126 62 194 141 194c39 0 65 -13 90 -35l-34 -52c-14 13 -30 25 -55 25c-42 0 -77 -42 -77 -132v-9c0 -91 35 -132 79 -132c21 0 37 9 55 28l33 -49c-28 -31 -61 -41 -93 -41z" />
    <glyph glyph-name="published" unicode="&#x2117;" horiz-adv-x="634" 
d="M317 -11c-164 0 -282 148 -282 350v22c0 202 119 350 282 350c165 0 283 -148 283 -350v-22c0 -201 -119 -350 -283 -350zM317 23c148 0 247 136 247 316v23c0 180 -99 315 -247 315c-147 0 -247 -135 -247 -316v-23c0 -180 99 -315 247 -315zM224 165v383h93
c77 0 130 -44 130 -127v-2c0 -85 -56 -128 -129 -131h-31v-123h-63zM287 346h30c40 0 67 26 67 72v1c0 48 -26 71 -67 71h-30v-144z" />
    <glyph glyph-name="registered.alt" horiz-adv-x="634" 
d="M317 -11c-164 0 -282 148 -282 350v22c0 202 119 350 282 350c165 0 283 -148 283 -350v-22c0 -201 -119 -350 -283 -350zM317 23c148 0 247 136 247 316v23c0 180 -99 315 -247 315c-147 0 -247 -135 -247 -316v-23c0 -180 99 -315 247 -315zM210 166v383h104
c40 0 74 -11 96 -34c20 -20 31 -49 31 -86v-4c0 -54 -26 -89 -63 -106l73 -153h-70l-65 137c-2 -1 -5 -1 -6 -1h-37v-136h-63zM273 358h39c39 0 66 24 66 67v1c0 46 -28 65 -68 65h-37v-133z" />
    <glyph glyph-name="registered" unicode="&#xae;" horiz-adv-x="338" 
d="M168 357c-83 0 -143 73 -143 173v11c0 100 61 173 143 173c84 0 145 -73 145 -173v-10c0 -100 -61 -174 -145 -174zM168 377c74 0 123 66 123 154v10c0 87 -49 153 -123 153c-72 0 -121 -67 -121 -153v-11c0 -87 48 -153 121 -153zM113 445v188h56c40 0 66 -21 66 -60v-1
c0 -28 -14 -45 -32 -54l36 -73h-39l-32 64h-19v-64h-36zM149 540h18c19 0 31 11 31 31s-12 30 -31 30h-18v-61z" />
    <glyph glyph-name="servicemark" unicode="&#x2120;" horiz-adv-x="532" 
d="M256 388v312h61l58 -129l59 129h60v-312h-54v214l-63 -141h-4l-62 141v-214h-55zM115 384c-35 0 -67 12 -97 37l27 45c18 -15 43 -33 70 -33c23 0 38 13 38 34c0 18 -10 29 -47 51c-51 31 -77 53 -77 99c0 52 39 86 94 86c32 0 61 -11 86 -31l-27 -45
c-15 12 -35 26 -59 26s-38 -14 -38 -32s11 -27 48 -50c52 -33 76 -57 76 -101c0 -52 -41 -86 -94 -86z" />
    <glyph glyph-name="trademark" unicode="&#x2122;" horiz-adv-x="517" 
d="M242 388v312h61l58 -129l59 129h60v-312h-55v214l-63 -141h-3l-63 141v-214h-54zM79 388v259h-62v53h179v-53h-62v-259h-55z" />
    <glyph glyph-name="asterisk" unicode="*" horiz-adv-x="342" 
d="M137 397l15 117l-85 -68l-35 59l100 44l-100 44l35 60l85 -68l-15 116h68l-14 -116l84 68l35 -60l-100 -44l100 -44l-35 -59l-84 68l14 -117h-68z" />
    <glyph glyph-name="dagger" unicode="&#x2020;" 
d="M115 238l10 276l-93 -9v69l92 -10l-12 136h76l-13 -136l93 10v-69l-93 9l10 -276h-70z" />
    <glyph glyph-name="daggerdbl" unicode="&#x2021;" horiz-adv-x="319" 
d="M121 0l13 135l-92 -9v69l93 -10l-12 165l12 164l-93 -9v69l92 -10l-13 136h77l-13 -136l92 10v-69l-93 9l12 -164l-12 -165l93 10v-69l-92 9l12 -135h-76z" />
    <glyph glyph-name="dollar" unicode="$" horiz-adv-x="455" 
d="M419 627l-64 -78c-26 26 -54 47 -89 55v-205c112 -64 154 -124 154 -211v-2c0 -98 -63 -169 -154 -186v-103h-73v100c-61 6 -127 33 -176 91l64 79c30 -35 68 -63 112 -72v218c-106 62 -149 116 -149 204v1c0 94 60 164 149 181v68h73v-65c55 -6 110 -30 153 -75z
M315 184c0 31 -12 57 -49 85v-169c32 15 49 46 49 83v1zM149 525c0 -33 11 -55 44 -80v152c-29 -13 -44 -40 -44 -72z" />
    <glyph glyph-name="sterling" unicode="&#xa3;" horiz-adv-x="452" 
d="M39 0v68l60 23v197h-59v94h59v113c0 74 15 128 54 166c30 30 75 48 122 48c68 0 121 -30 154 -73l-68 -74c-17 22 -41 43 -77 43c-16 0 -36 -4 -50 -18c-20 -19 -26 -52 -26 -94v-111h156v-94h-156v-192h216v-96h-385z" />
    <glyph glyph-name="Euro" unicode="&#x20ac;" horiz-adv-x="499" 
d="M475 641l-62 -78c-18 22 -43 45 -85 45c-54 0 -99 -46 -118 -134h154v-78h-164c-1 -13 -1 -25 -1 -38v-15c0 -12 0 -23 1 -34h164v-78h-155c19 -97 66 -139 118 -139c41 0 70 25 88 49l60 -76c-41 -47 -90 -75 -152 -75c-115 0 -198 87 -224 241h-71v78h63
c-1 10 -1 21 -1 32v16c0 13 0 26 1 39h-63v78h72c28 148 112 236 226 236c65 0 105 -25 149 -69z" />
    <glyph glyph-name="yen" unicode="&#xa5;" horiz-adv-x="494" 
d="M68 260v80h102l-158 360h116l120 -301l121 301h113l-159 -360h103v-80h-127v-73h127v-80h-127v-107h-104v107h-127v80h127v73h-127z" />
    <glyph glyph-name="cent" unicode="&#xa2;" horiz-adv-x="400" 
d="M290 705l-6 -82c35 -7 63 -24 89 -46l-50 -85c-11 11 -26 25 -47 33l-25 -350c29 1 50 14 75 39l49 -79c-34 -33 -74 -56 -130 -58l-6 -83h-73l6 94c-81 30 -136 121 -136 256v16c0 153 72 250 174 266l6 79h74zM141 349c0 -72 15 -120 41 -147l23 318
c-39 -21 -64 -76 -64 -166v-5z" />
    <glyph glyph-name="baht" unicode="&#xe3f;" horiz-adv-x="481" 
d="M247 785h72l-12 -97c79 -22 132 -77 132 -165v-4c0 -92 -54 -137 -111 -160c70 -26 123 -71 123 -163v-5c0 -119 -90 -187 -222 -191l-13 -120h-72l14 120h-104v700h165c6 0 12 0 18 -1zM347 203c0 55 -31 91 -86 102l-24 -210c68 5 110 42 110 105v3zM157 397h48l22 208
h-2h-68v-208zM336 505c0 38 -16 67 -43 83l-20 -182c40 15 63 48 63 98v1zM157 95h14l25 214h-39v-214z" />
    <glyph glyph-name="colonmonetary" unicode="&#x20a1;" horiz-adv-x="441" 
d="M349 779h46l-12 -98c16 -8 31 -17 46 -29l-51 -85c-4 2 -7 5 -10 8l-56 -479c24 5 43 18 66 36l48 -78c-35 -29 -70 -50 -123 -55l-13 -117h-46l14 116c-22 2 -42 6 -62 14l-15 -130h-45l18 153c-71 51 -117 153 -117 307v16c0 202 82 314 195 339l10 82h45l-9 -76h4
c21 0 40 -2 58 -7zM206 123c20 -17 42 -26 67 -29l58 503c-13 6 -28 9 -46 9c-8 0 -15 -1 -22 -2zM141 341c0 -77 12 -134 32 -173l49 420c-49 -32 -81 -107 -81 -232v-15z" />
    <glyph glyph-name="florin" unicode="&#x192;" horiz-adv-x="402" 
d="M74 -5c-22 0 -38 2 -53 6v91c11 -2 22 -4 34 -4c32 0 51 18 57 62l24 215h-59v86h70l12 110c12 94 60 144 146 144c34 0 58 -4 76 -10v-93c-16 5 -34 9 -53 9c-37 0 -60 -22 -66 -71l-10 -89h101v-86h-111l-27 -229c-12 -101 -59 -141 -141 -141z" />
    <glyph glyph-name="naira" unicode="&#x20a6;" horiz-adv-x="632" 
d="M612 208h-85v-208h-106l-94 209h-119v-209h-103v208h-85v81h85v126h-85v81h85v204h113l91 -205h115v205h103v-204h85v-81h-85v-126h85v-81zM207 482v-194h86l-84 194h-2zM423 233h2v183h-82z" />
    <glyph glyph-name="peso" unicode="&#x20b1;" horiz-adv-x="558" 
d="M97 0v420h-84v80h84v200h149c131 0 220 -72 233 -200h84v-80h-85c-17 -126 -110 -195 -232 -198h-42v-222h-107zM204 603v-105h167c-12 70 -59 105 -127 105h-40zM244 318c67 0 114 38 126 104h-166v-104h40z" />
    <glyph glyph-name="R_p" horiz-adv-x="879" 
d="M51 0v700h153c131 0 216 -77 216 -220v-4c0 -103 -45 -165 -107 -196l123 -280h-113l-107 253c-2 -1 -9 -1 -12 -1h-52v-252h-101zM492 -141v673h98v-79c22 43 56 89 116 89c78 0 146 -79 146 -261v-30c0 -181 -68 -260 -146 -260c-60 0 -93 43 -116 84v-216h-98zM671 82
c48 0 79 61 79 170v28c0 108 -32 171 -79 171c-46 0 -82 -63 -82 -170v-30c0 -106 36 -169 82 -169zM152 343h51c68 0 116 47 116 132v2c0 90 -50 129 -119 129h-48v-263z" />
    <glyph glyph-name="rupee" unicode="&#x20a8;" horiz-adv-x="795" 
d="M618 -9c-51 0 -109 18 -161 67l51 75c37 -36 72 -55 108 -55c40 0 63 25 63 60v1c0 29 -16 50 -82 92c-76 49 -117 89 -117 161v2c0 88 63 145 152 145c44 0 95 -12 142 -51l-48 -78c-25 20 -57 42 -93 42s-59 -23 -59 -54v-1c0 -29 17 -48 84 -92
c82 -54 116 -94 116 -160v-2c0 -93 -65 -152 -156 -152zM51 0v700h153c131 0 216 -77 216 -220v-4c0 -103 -45 -165 -107 -196l123 -280h-113l-107 253c-2 -1 -9 -1 -12 -1h-52v-252h-101zM152 343h51c68 0 116 47 116 132v2c0 90 -50 129 -119 129h-48v-263z" />
    <glyph glyph-name="won" unicode="&#x20a9;" horiz-adv-x="828" 
d="M767 700l-39 -207h86v-81h-102l-23 -120h125v-83h-140l-40 -211h-118l-42 211h-121l-41 -211h-118l-40 211h-139v82h123l-23 121h-100v81h85l-39 207h112l34 -207h111l41 208h113l40 -208h112l33 207h110zM413 513l-45 -223h91l-43 223h-3zM256 178h3l45 235h-86z
M572 178h3l37 235h-85z" />
    <glyph glyph-name="sheqel" unicode="&#x20aa;" horiz-adv-x="506" 
d="M185 139l-22 191h59l17 -147c7 -59 29 -85 76 -85h66v430h78v-528h-147c-74 0 -117 44 -127 139zM275 344c0 59 -22 86 -67 86h-82v-430h-79v528h175c68 0 110 -46 110 -133v-194h-57v143z" />
    <glyph glyph-name="numbersign" unicode="#" horiz-adv-x="497" 
d="M447 259v-94h-86l-19 -165h-79l19 165h-110l-19 -165h-80l19 165h-68v94h79l21 185h-75v94h86l19 162h80l-19 -162h110l18 162h81l-19 -162h67v-94h-78l-22 -185h75zM203 446l-22 -188h112l22 188h-112z" />
    <glyph glyph-name="paragraph" unicode="&#xb6;" horiz-adv-x="425" 
d="M257 0v238h-7c-125 5 -225 80 -225 230v2c0 154 101 230 239 230h101v-700h-108z" />
    <glyph glyph-name="section" unicode="&#xa7;" horiz-adv-x="481" 
d="M350 225c31 -27 46 -58 46 -95v-2c0 -83 -66 -137 -164 -137c-56 0 -111 17 -155 51l46 75c22 -16 63 -38 107 -38c41 0 65 21 65 49c0 31 -23 49 -106 82c-103 41 -156 76 -156 146v2c0 53 35 98 98 117c-31 27 -46 58 -46 95v2c0 83 66 137 164 137
c56 0 111 -17 155 -51l-46 -75c-22 16 -63 38 -107 38c-41 0 -65 -21 -65 -49c0 -31 23 -49 106 -82c103 -41 156 -75 156 -145v-2c0 -53 -35 -98 -98 -118zM284 272c35 0 67 25 67 58v2c0 32 -29 52 -85 77c-33 14 -50 19 -69 19c-35 0 -67 -25 -67 -58v-2
c0 -32 29 -52 85 -77c33 -14 50 -19 69 -19z" />
    <glyph glyph-name="ordfeminine" unicode="&#xaa;" horiz-adv-x="301" 
d="M120 403c-41 0 -75 33 -75 88v6c0 63 35 93 88 93c19 0 36 -5 52 -11v15c0 35 -20 54 -52 54c-21 0 -42 -9 -55 -18l-21 50c23 13 52 23 86 23c32 0 56 -8 75 -26c18 -18 27 -46 27 -81v-188h-60v33c-16 -24 -36 -38 -65 -38zM42 299v47h212v-47h-212zM140 451
c25 0 46 20 46 48v38c-11 4 -25 9 -40 9c-26 0 -42 -17 -42 -46v-5c0 -29 15 -44 36 -44z" />
    <glyph glyph-name="ordmasculine" unicode="&#xba;" horiz-adv-x="301" 
d="M150 402c-65 0 -111 58 -111 146v10c0 89 47 147 112 147s111 -58 111 -146v-10c0 -89 -47 -147 -112 -147zM43 299v47h215v-47h-215zM151 455c32 0 50 40 50 94v8c0 54 -18 93 -51 93c-32 0 -50 -38 -50 -92v-9c0 -54 19 -94 51 -94z" />
    <glyph glyph-name="degree" unicode="&#xb0;" horiz-adv-x="341" 
d="M170 377c-72 0 -129 63 -129 161v7c0 98 57 161 129 161c73 0 130 -63 130 -161v-7c0 -98 -57 -161 -130 -161zM170 441c37 0 63 37 63 99v3c0 63 -26 99 -63 99c-36 0 -62 -36 -62 -99v-3c0 -62 26 -99 62 -99z" />
    <glyph glyph-name="percent" unicode="%" horiz-adv-x="658" 
d="M163 347c-77 0 -129 70 -129 173v12c0 104 53 175 130 175c76 0 129 -71 129 -174v-12c0 -104 -53 -174 -130 -174zM163 635c-33 0 -53 -38 -53 -104v-8c0 -68 22 -105 54 -105c33 0 53 37 53 105v7c0 68 -22 105 -54 105zM303 366l185 334h75l-207 -366l-185 -334h-75z
M494 -7c-76 0 -129 71 -129 174v12c0 104 53 174 130 174s130 -70 130 -173v-12c0 -104 -53 -175 -131 -175zM495 65c33 0 53 38 53 104v8c0 68 -21 105 -54 105c-32 0 -53 -38 -53 -105v-7c0 -68 22 -105 54 -105z" />
    <glyph glyph-name="perthousand" unicode="&#x2030;" horiz-adv-x="959" 
d="M164 418c33 0 53 37 53 105v7c0 68 -22 105 -54 105c-33 0 -53 -38 -53 -104v-8c0 -68 22 -105 54 -105zM163 347c-77 0 -129 70 -129 173v12c0 104 53 175 130 175c76 0 129 -71 129 -174v-12c0 -104 -53 -174 -130 -174zM563 700l-207 -366l-185 -334h-75l207 366
l185 334h75zM495 65c33 0 53 38 53 104v8c0 68 -21 105 -54 105c-32 0 -53 -38 -53 -105v-7c0 -68 22 -105 54 -105zM494 -7c-76 0 -129 71 -129 174v12c0 104 53 174 130 174s130 -70 130 -173v-12c0 -104 -53 -175 -131 -175zM797 65c33 0 53 38 53 104v8
c0 68 -22 105 -54 105c-33 0 -54 -38 -54 -105v-7c0 -68 23 -105 55 -105zM796 -7c-76 0 -129 71 -129 174v12c0 104 53 174 130 174c76 0 129 -70 129 -173v-12c0 -104 -53 -175 -130 -175z" />
    <glyph glyph-name="quotedbl" unicode="&#x22;" horiz-adv-x="375" 
d="M224 403l8 297h113v-8l-75 -289h-46zM50 403l9 297h113v-8l-75 -289h-47z" />
    <glyph glyph-name="quotesingle" unicode="'" horiz-adv-x="200" 
d="M50 403l9 297h114v-8l-76 -289h-47z" />
    <glyph glyph-name="plus" unicode="+" horiz-adv-x="465" 
d="M183 155v148h-143v98h143v148h99v-148h142v-98h-142v-148h-99z" />
    <glyph glyph-name="minus" unicode="&#x2212;" horiz-adv-x="465" 
d="M424 300h-383v104h383v-104z" />
    <glyph glyph-name="divide" unicode="&#xf7;" horiz-adv-x="465" 
d="M177 470v111h110v-111h-110zM424 305h-383v95h383v-95zM177 123v111h110v-111h-110z" />
    <glyph glyph-name="equal" unicode="=" horiz-adv-x="465" 
d="M45 402v103h375v-103h-375zM45 200v102h375v-102h-375z" />
    <glyph glyph-name="multiply" unicode="&#xd7;" horiz-adv-x="465" 
d="M347 159l-115 125l-116 -125l-71 63l124 130l-124 129l72 64l115 -125l116 125l72 -63l-124 -130l124 -129z" />
    <glyph glyph-name="less" unicode="&#x3c;" horiz-adv-x="465" 
d="M407 110l-362 194v96l362 194v-114l-254 -127l254 -127v-116z" />
    <glyph glyph-name="greater" unicode="&#x3e;" horiz-adv-x="465" 
d="M58 110v114l254 127l-254 128v115l362 -194v-96z" />
    <glyph glyph-name="plusminus" unicode="&#xb1;" horiz-adv-x="465" 
d="M422 331h-141v-145h-97v145h-141v97l141 -1v146h97v-146l141 1v-97zM421 19h-378v93h378v-93z" />
    <glyph glyph-name="onehalf" unicode="&#xbd;" horiz-adv-x="620" 
d="M355 0v55l106 125c31 37 47 57 47 83c0 27 -21 44 -46 44c-29 0 -49 -18 -73 -41l-36 47c35 37 68 57 115 57c64 0 109 -38 109 -100c0 -38 -14 -66 -54 -113l-83 -95h138v-62h-223zM79 0l186 363l165 337h60l-185 -363l-166 -337h-60zM174 337h-69v294l-64 -29l-8 63
l90 38h51v-366z" />
    <glyph glyph-name="onehalf.alt" horiz-adv-x="675" 
d="M265 337h-221v57h81v239l-75 -31l-7 62l99 40h51v-310h72v-57zM417 0v55l106 125c31 37 47 57 47 83c0 27 -21 44 -46 44c-29 0 -49 -18 -73 -41l-36 47c35 37 68 57 115 57c64 0 109 -38 109 -100c0 -38 -14 -66 -54 -113l-83 -95h138v-62h-223zM145 0l186 363l165 337
h60l-185 -363l-166 -337h-60z" />
    <glyph glyph-name="onethird" unicode="&#x2153;" horiz-adv-x="620" 
d="M465 -7c-47 0 -83 19 -109 42l32 51c18 -15 43 -32 76 -32c32 0 55 20 55 54s-29 52 -82 53h-16l-5 44l85 97h-128v62h210v-51l-92 -102c55 -9 96 -39 96 -102c0 -70 -50 -116 -122 -116zM174 337h-69v294l-64 -29l-8 63l90 38h51v-366zM74 0l186 363l165 337h60
l-185 -363l-166 -337h-60z" />
    <glyph glyph-name="onethird.alt" horiz-adv-x="675" 
d="M265 337h-221v57h81v239l-75 -31l-7 62l99 40h51v-310h72v-57zM520 -7c-47 0 -83 19 -109 42l32 51c18 -15 43 -32 76 -32c32 0 55 20 55 54s-29 52 -82 53h-16l-5 44l85 97h-128v62h210v-51l-92 -102c55 -9 96 -39 96 -102c0 -70 -50 -116 -122 -116zM138 0l186 363
l165 337h60l-185 -363l-166 -337h-60z" />
    <glyph glyph-name="twothirds" unicode="&#x2154;" horiz-adv-x="675" 
d="M525 -7c-47 0 -83 19 -109 42l32 51c18 -15 43 -32 76 -32c32 0 55 20 55 54s-29 52 -82 53h-16l-5 44l85 97h-128v62h210v-51l-92 -102c55 -9 96 -39 96 -102c0 -70 -50 -116 -122 -116zM34 337v55l106 124c31 38 47 57 47 83c0 28 -21 45 -46 45c-29 0 -49 -18 -73 -41
l-36 46c35 38 68 58 115 58c64 0 109 -39 109 -100c0 -39 -14 -67 -54 -113l-83 -95h138v-62h-223zM133 0l186 363l165 337h60l-185 -363l-166 -337h-60z" />
    <glyph glyph-name="onequarter" unicode="&#xbc;" horiz-adv-x="620" 
d="M174 337h-69v294l-64 -29l-8 63l90 38h51v-366zM94 0l186 363l165 337h60l-185 -363l-166 -337h-60zM549 72v-73h-61v73h-147l-3 59l131 236h80v-239h38v-56h-38zM490 128v161h-4l-90 -161h94z" />
    <glyph glyph-name="onequarter.alt" horiz-adv-x="675" 
d="M268 337h-221v57h81v239l-75 -31l-7 62l99 40h51v-310h72v-57zM153 0l186 363l165 337h60l-185 -363l-166 -337h-60zM607 72v-73h-61v73h-147l-3 59l131 236h80v-239h38v-56h-38zM548 128v161h-4l-90 -161h94z" />
    <glyph glyph-name="threequarters" unicode="&#xbe;" horiz-adv-x="675" 
d="M609 72v-73h-61v73h-147l-3 59l131 236h80v-239h38v-56h-38zM550 128v161h-4l-90 -161h94zM149 0l186 363l165 337h60l-185 -363l-166 -337h-60zM140 330c-47 0 -83 19 -109 42l32 51c18 -16 43 -32 76 -32c32 0 55 20 55 54s-29 52 -82 53h-16l-5 44l85 97h-128v61h210
v-50l-92 -102c55 -9 96 -39 96 -102c0 -71 -50 -116 -122 -116z" />
    <glyph glyph-name="onefifth" unicode="&#x2155;" horiz-adv-x="620" 
d="M459 -7c-38 0 -73 13 -108 42l32 52c23 -19 46 -33 74 -33c39 0 57 26 57 62c0 37 -22 54 -56 54c-20 0 -36 -5 -51 -12l-40 21l14 185h184v-62h-129l-7 -80c13 4 27 7 44 7c61 0 109 -36 109 -111c0 -77 -50 -125 -123 -125zM174 337h-69v294l-64 -29l-8 63l90 38h51
v-366zM74 0l186 363l165 337h60l-185 -363l-166 -337h-60z" />
    <glyph glyph-name="onefifth.alt" horiz-adv-x="675" 
d="M265 337h-221v57h81v239l-75 -31l-7 62l99 40h51v-310h72v-57zM521 -7c-38 0 -73 13 -108 42l32 52c23 -19 46 -33 74 -33c39 0 57 26 57 62c0 37 -22 54 -56 54c-20 0 -36 -5 -51 -12l-40 21l14 185h184v-62h-129l-7 -80c13 4 27 7 44 7c61 0 109 -36 109 -111
c0 -77 -50 -125 -123 -125zM143 0l186 363l165 337h60l-185 -363l-166 -337h-60z" />
    <glyph glyph-name="twofifths" unicode="&#x2156;" horiz-adv-x="675" 
d="M524 -7c-38 0 -73 13 -108 42l32 52c23 -19 46 -33 74 -33c39 0 57 26 57 62c0 37 -22 54 -56 54c-20 0 -36 -5 -51 -12l-40 21l14 185h184v-62h-129l-7 -80c13 4 27 7 44 7c61 0 109 -36 109 -111c0 -77 -50 -125 -123 -125zM140 0l186 363l165 337h60l-185 -363
l-166 -337h-60zM34 337v55l106 124c31 38 47 57 47 83c0 28 -21 45 -46 45c-29 0 -49 -18 -73 -41l-36 46c35 38 68 58 115 58c64 0 109 -39 109 -100c0 -39 -14 -67 -54 -113l-83 -95h138v-62h-223z" />
    <glyph glyph-name="threefifths" unicode="&#x2157;" horiz-adv-x="675" 
d="M524 -7c-38 0 -73 13 -108 42l32 52c23 -19 46 -33 74 -33c39 0 57 26 57 62c0 37 -22 54 -56 54c-20 0 -36 -5 -51 -12l-40 21l14 185h184v-62h-129l-7 -80c13 4 27 7 44 7c61 0 109 -36 109 -111c0 -77 -50 -125 -123 -125zM129 0l186 363l165 337h60l-185 -363
l-166 -337h-60zM138 330c-47 0 -83 19 -109 42l32 51c18 -16 43 -32 76 -32c32 0 55 20 55 54s-29 52 -82 53h-16l-5 44l85 97h-128v61h210v-50l-92 -102c55 -9 96 -39 96 -102c0 -71 -50 -116 -122 -116z" />
    <glyph glyph-name="fourfifths" unicode="&#x2158;" horiz-adv-x="675" 
d="M232 409v-73h-61v73h-147l-3 58l131 236h80v-239h38v-55h-38zM173 464v162h-4l-90 -162h94zM524 -7c-38 0 -73 13 -108 42l32 52c23 -19 46 -33 74 -33c39 0 57 26 57 62c0 37 -22 54 -56 54c-20 0 -36 -5 -51 -12l-40 21l14 185h184v-62h-129l-7 -80c13 4 27 7 44 7
c61 0 109 -36 109 -111c0 -77 -50 -125 -123 -125zM136 0l186 363l165 337h60l-185 -363l-166 -337h-60z" />
    <glyph glyph-name="onesixth" unicode="&#x2159;" horiz-adv-x="620" 
d="M465 -7c-30 0 -56 11 -75 29c-26 26 -42 66 -42 141v9c0 136 55 198 134 198c35 0 63 -11 87 -27l-28 -54c-11 8 -34 21 -59 21c-39 0 -67 -30 -70 -100c16 17 39 27 68 27c51 0 99 -33 99 -116c0 -79 -50 -128 -114 -128zM81 0l186 363l165 337h60l-185 -363l-166 -337
h-60zM174 337h-69v294l-64 -29l-8 63l90 38h51v-366zM465 52c32 0 52 25 52 67c0 41 -21 62 -51 62c-29 0 -52 -21 -52 -62c0 -42 21 -67 51 -67z" />
    <glyph glyph-name="onesixth.alt" horiz-adv-x="675" 
d="M532 -7c-30 0 -56 11 -75 29c-26 26 -42 66 -42 141v9c0 136 55 198 134 198c35 0 63 -11 87 -27l-28 -54c-11 8 -34 21 -59 21c-39 0 -67 -30 -70 -100c16 17 39 27 68 27c51 0 99 -33 99 -116c0 -79 -50 -128 -114 -128zM146 0l186 363l165 337h60l-185 -363l-166 -337
h-60zM265 337h-221v57h81v239l-75 -31l-7 62l99 40h51v-310h72v-57zM532 52c32 0 52 25 52 67c0 41 -21 62 -51 62c-29 0 -52 -21 -52 -62c0 -42 21 -67 51 -67z" />
    <glyph glyph-name="fivesixths" unicode="&#x215a;" horiz-adv-x="675" 
d="M527 -7c-30 0 -56 11 -75 29c-26 26 -42 66 -42 141v9c0 136 55 198 134 198c35 0 63 -11 87 -27l-28 -54c-11 8 -34 21 -59 21c-39 0 -67 -30 -70 -100c16 17 39 27 68 27c51 0 99 -33 99 -116c0 -79 -50 -128 -114 -128zM139 330c-38 0 -73 12 -108 41l32 53
c23 -19 46 -33 74 -33c39 0 57 26 57 61c0 37 -22 55 -56 55c-20 0 -36 -6 -51 -12l-40 20l14 185h184v-62h-129l-7 -79c13 3 27 7 44 7c61 0 109 -37 109 -111c0 -77 -50 -125 -123 -125zM131 0l186 363l165 337h60l-185 -363l-166 -337h-60zM527 52c32 0 52 25 52 67
c0 41 -21 62 -51 62c-29 0 -52 -21 -52 -62c0 -42 21 -67 51 -67z" />
    <glyph glyph-name="oneeighth" unicode="&#x215b;" horiz-adv-x="620" 
d="M465 -7c-70 0 -119 42 -119 107c0 43 24 74 54 90c-26 16 -45 43 -45 81c0 60 47 99 110 99s111 -39 111 -99c0 -38 -19 -65 -46 -81c31 -16 54 -47 54 -90c0 -65 -49 -107 -119 -107zM465 318c-28 0 -48 -20 -48 -51s20 -52 48 -52c29 0 48 21 48 52s-19 51 -48 51z
M465 161c-31 0 -54 -22 -54 -58c0 -35 22 -57 54 -57c33 0 55 22 55 57c0 36 -24 58 -55 58zM174 337h-69v294l-64 -29l-8 63l90 38h51v-366zM76 0l186 363l165 337h60l-185 -363l-166 -337h-60z" />
    <glyph glyph-name="oneeighth.alt" horiz-adv-x="675" 
d="M263 337h-221v57h81v239l-75 -31l-7 62l99 40h51v-310h72v-57zM532 -7c-70 0 -119 42 -119 107c0 43 24 74 54 90c-26 16 -45 43 -45 81c0 60 47 99 110 99s111 -39 111 -99c0 -38 -19 -65 -46 -81c31 -16 54 -47 54 -90c0 -65 -49 -107 -119 -107zM532 318
c-28 0 -48 -20 -48 -51s20 -52 48 -52c29 0 48 21 48 52s-19 51 -48 51zM532 161c-31 0 -54 -22 -54 -58c0 -35 22 -57 54 -57c33 0 55 22 55 57c0 36 -24 58 -55 58zM144 0l186 363l165 337h60l-185 -363l-166 -337h-60z" />
    <glyph glyph-name="threeeighths" unicode="&#x215c;" horiz-adv-x="675" 
d="M530 -7c-70 0 -119 42 -119 107c0 43 24 74 54 90c-26 16 -45 43 -45 81c0 60 47 99 110 99s111 -39 111 -99c0 -38 -19 -65 -46 -81c31 -16 54 -47 54 -90c0 -65 -49 -107 -119 -107zM530 318c-28 0 -48 -20 -48 -51s20 -52 48 -52c29 0 48 21 48 52s-19 51 -48 51z
M530 161c-31 0 -54 -22 -54 -58c0 -35 22 -57 54 -57c33 0 55 22 55 57c0 36 -24 58 -55 58zM131 0l186 363l165 337h60l-185 -363l-166 -337h-60zM139 330c-47 0 -83 19 -109 42l32 51c18 -16 43 -32 76 -32c32 0 55 20 55 54s-29 52 -82 53h-16l-5 44l85 97h-128v61h210
v-50l-92 -102c55 -9 96 -39 96 -102c0 -71 -50 -116 -122 -116z" />
    <glyph glyph-name="fiveeighths" unicode="&#x215d;" horiz-adv-x="675" 
d="M530 -7c-70 0 -119 42 -119 107c0 43 24 74 54 90c-26 16 -45 43 -45 81c0 60 47 99 110 99s111 -39 111 -99c0 -38 -19 -65 -46 -81c31 -16 54 -47 54 -90c0 -65 -49 -107 -119 -107zM530 318c-28 0 -48 -20 -48 -51s20 -52 48 -52c29 0 48 21 48 52s-19 51 -48 51z
M530 161c-31 0 -54 -22 -54 -58c0 -35 22 -57 54 -57c33 0 55 22 55 57c0 36 -24 58 -55 58zM131 0l186 363l165 337h60l-185 -363l-166 -337h-60zM139 330c-38 0 -73 12 -108 41l32 53c23 -19 46 -33 74 -33c39 0 57 26 57 61c0 37 -22 55 -56 55c-20 0 -36 -6 -51 -12
l-40 20l14 185h184v-62h-129l-7 -79c13 3 27 7 44 7c61 0 109 -37 109 -111c0 -77 -50 -125 -123 -125z" />
    <glyph glyph-name="seveneighths" unicode="&#x215e;" horiz-adv-x="675" 
d="M514 -7c-70 0 -119 42 -119 107c0 43 24 74 54 90c-26 16 -45 43 -45 81c0 60 47 99 110 99s111 -39 111 -99c0 -38 -19 -65 -46 -81c31 -16 54 -47 54 -90c0 -65 -49 -107 -119 -107zM514 318c-28 0 -48 -20 -48 -51s20 -52 48 -52c29 0 48 21 48 52s-19 51 -48 51z
M514 161c-31 0 -54 -22 -54 -58c0 -35 22 -57 54 -57c33 0 55 22 55 57c0 36 -24 58 -55 58zM141 336h-72l125 300h-146v64h219v-50zM98 0l186 363l165 337h60l-185 -363l-166 -337h-60z" />
    <glyph glyph-name="zero.sup" unicode="&#x2070;" 
d="M149 440c-75 0 -119 63 -119 183v10c0 121 44 184 120 184c75 0 120 -62 120 -183v-10c0 -120 -46 -184 -121 -184zM149 755c-33 0 -52 -35 -52 -122v-8c0 -88 20 -123 53 -123c32 0 52 35 52 123v8c0 87 -20 122 -53 122z" />
    <glyph glyph-name="one.sup" unicode="&#xb9;" horiz-adv-x="244" 
d="M172 447h-69v294l-64 -29l-8 63l90 39h51v-367z" />
    <glyph glyph-name="one.sup_alt" 
d="M270 447h-221v58h81v238l-75 -31l-7 62l99 41h51v-310h72v-58z" />
    <glyph glyph-name="two.sup" unicode="&#xb2;" 
d="M38 447v55l106 125c31 37 47 57 47 83c0 27 -21 44 -46 44c-29 0 -49 -18 -73 -41l-36 47c35 37 68 57 115 57c64 0 109 -38 109 -100c0 -38 -14 -66 -54 -113l-83 -95h138v-62h-223z" />
    <glyph glyph-name="three.sup" unicode="&#xb3;" 
d="M139 440c-47 0 -83 19 -109 42l32 51c18 -15 43 -32 76 -32c32 0 55 20 55 54s-29 52 -82 53h-16l-5 44l85 97h-128v62h210v-51l-92 -102c55 -9 96 -39 96 -102c0 -70 -50 -116 -122 -116z" />
    <glyph glyph-name="four.sup" unicode="&#x2074;" 
d="M239 519v-73h-61v73h-147l-3 59l131 236h80v-239h38v-56h-38zM180 575v161h-4l-90 -161h94z" />
    <glyph glyph-name="five.sup" unicode="&#x2075;" 
d="M139 440c-38 0 -73 13 -108 42l32 52c23 -19 46 -33 74 -33c39 0 57 26 57 62c0 37 -22 54 -56 54c-20 0 -36 -5 -51 -12l-40 21l14 185h184v-62h-129l-7 -80c13 4 27 7 44 7c61 0 109 -36 109 -111c0 -77 -50 -125 -123 -125z" />
    <glyph glyph-name="six.sup" unicode="&#x2076;" 
d="M151 440c-30 0 -56 11 -75 29c-26 26 -42 66 -42 141v9c0 136 55 198 134 198c35 0 63 -11 87 -27l-28 -54c-11 8 -34 21 -59 21c-39 0 -67 -30 -70 -100c16 17 39 27 68 27c51 0 99 -33 99 -116c0 -79 -50 -128 -114 -128zM151 499c32 0 52 25 52 67c0 41 -21 62 -51 62
c-29 0 -52 -21 -52 -62c0 -42 21 -67 51 -67z" />
    <glyph glyph-name="seven.sup" unicode="&#x2077;" 
d="M134 446h-72l125 301h-146v64h219v-50z" />
    <glyph glyph-name="eight.sup" unicode="&#x2078;" 
d="M150 440c-70 0 -119 42 -119 107c0 43 24 74 54 90c-26 16 -45 43 -45 81c0 60 47 99 110 99s111 -39 111 -99c0 -38 -19 -65 -46 -81c31 -16 54 -47 54 -90c0 -65 -49 -107 -119 -107zM150 765c-28 0 -48 -20 -48 -51s20 -52 48 -52c29 0 48 21 48 52s-19 51 -48 51z
M150 608c-31 0 -54 -22 -54 -58c0 -35 22 -57 54 -57c33 0 55 22 55 57c0 36 -24 58 -55 58z" />
    <glyph glyph-name="nine.sup" unicode="&#x2079;" 
d="M149 817c29 0 56 -10 75 -29c26 -25 42 -65 42 -140v-9c0 -136 -54 -199 -134 -199c-34 0 -65 12 -90 30l25 55c16 -12 41 -24 66 -24c39 0 66 30 68 95c-15 -17 -38 -26 -66 -26c-51 0 -100 33 -100 118c0 80 50 129 114 129zM149 626c28 0 51 20 51 65
c0 43 -20 67 -51 67c-32 0 -51 -24 -51 -68c0 -43 21 -64 51 -64z" />
    <glyph glyph-name="zero.inf" unicode="&#x2080;" 
d="M149 -139c-75 0 -119 63 -119 183v10c0 121 44 184 120 184c75 0 120 -62 120 -183v-10c0 -120 -46 -184 -121 -184zM149 176c-33 0 -52 -35 -52 -122v-8c0 -88 20 -123 53 -123c32 0 52 35 52 123v8c0 87 -20 122 -53 122z" />
    <glyph glyph-name="one.inf" unicode="&#x2081;" horiz-adv-x="244" 
d="M172 -132h-69v294l-64 -29l-8 63l90 39h51v-367z" />
    <glyph glyph-name="one.inf_alt" 
d="M270 -132h-221v58h81v238l-75 -31l-7 62l99 41h51v-310h72v-58z" />
    <glyph glyph-name="two.inf" unicode="&#x2082;" 
d="M38 -132v55l106 125c31 37 47 57 47 83c0 27 -21 44 -46 44c-29 0 -49 -18 -73 -41l-36 47c35 37 68 57 115 57c64 0 109 -38 109 -100c0 -38 -14 -66 -54 -113l-83 -95h138v-62h-223z" />
    <glyph glyph-name="three.inf" unicode="&#x2083;" 
d="M139 -139c-47 0 -83 19 -109 42l32 51c18 -15 43 -32 76 -32c32 0 55 20 55 54s-29 52 -82 53h-16l-5 44l85 97h-128v62h210v-51l-92 -102c55 -9 96 -39 96 -102c0 -70 -50 -116 -122 -116z" />
    <glyph glyph-name="four.inf" unicode="&#x2084;" 
d="M239 -60v-73h-61v73h-147l-3 59l131 236h80v-239h38v-56h-38zM180 -4v161h-4l-90 -161h94z" />
    <glyph glyph-name="five.inf" unicode="&#x2085;" 
d="M139 -139c-38 0 -73 13 -108 42l32 52c23 -19 46 -33 74 -33c39 0 57 26 57 62c0 37 -22 54 -56 54c-20 0 -36 -5 -51 -12l-40 21l14 185h184v-62h-129l-7 -80c13 4 27 7 44 7c61 0 109 -36 109 -111c0 -77 -50 -125 -123 -125z" />
    <glyph glyph-name="six.inf" unicode="&#x2086;" 
d="M151 -139c-30 0 -56 11 -75 29c-26 26 -42 66 -42 141v9c0 136 55 198 134 198c35 0 63 -11 87 -27l-28 -54c-11 8 -34 21 -59 21c-39 0 -67 -30 -70 -100c16 17 39 27 68 27c51 0 99 -33 99 -116c0 -79 -50 -128 -114 -128zM151 -80c32 0 52 25 52 67
c0 41 -21 62 -51 62c-29 0 -52 -21 -52 -62c0 -42 21 -67 51 -67z" />
    <glyph glyph-name="seven.inf" unicode="&#x2087;" 
d="M134 -133h-72l125 301h-146v64h219v-50z" />
    <glyph glyph-name="eight.inf" unicode="&#x2088;" 
d="M150 -139c-70 0 -119 42 -119 107c0 43 24 74 54 90c-26 16 -45 43 -45 81c0 60 47 99 110 99s111 -39 111 -99c0 -38 -19 -65 -46 -81c31 -16 54 -47 54 -90c0 -65 -49 -107 -119 -107zM150 186c-28 0 -48 -20 -48 -51s20 -52 48 -52c29 0 48 21 48 52s-19 51 -48 51z
M150 29c-31 0 -54 -22 -54 -58c0 -35 22 -57 54 -57c33 0 55 22 55 57c0 36 -24 58 -55 58z" />
    <glyph glyph-name="nine.inf" unicode="&#x2089;" 
d="M149 238c29 0 56 -10 75 -29c26 -25 42 -65 42 -140v-9c0 -136 -54 -199 -134 -199c-34 0 -65 12 -90 30l25 55c16 -12 41 -24 66 -24c39 0 66 30 68 95c-15 -17 -38 -26 -66 -26c-51 0 -100 33 -100 118c0 80 50 129 114 129zM149 47c28 0 51 20 51 65
c0 43 -20 67 -51 67c-32 0 -51 -24 -51 -68c0 -43 21 -64 51 -64z" />
    <glyph glyph-name="zero.tab" horiz-adv-x="450" 
d="M225 -10c-124 0 -194 112 -194 347v24c0 236 70 349 194 349c123 0 194 -112 194 -347v-24c0 -236 -71 -349 -194 -349zM225 614c-57 0 -91 -65 -91 -252v-23c0 -187 34 -253 91 -253s90 65 90 252v23c0 187 -34 253 -90 253z" />
    <glyph glyph-name="one.tab" horiz-adv-x="450" 
d="M423 0h-371v90h144v498l-133 -60l-10 101l172 75h76v-614h122v-90z" />
    <glyph glyph-name="two.tab" horiz-adv-x="450" 
d="M409 0h-372v87l182 258c59 85 80 130 80 175c0 59 -40 88 -83 88c-52 0 -89 -37 -120 -76l-66 68c54 74 119 110 196 110c107 0 182 -70 182 -179v-3c0 -74 -30 -125 -93 -219l-146 -207h240v-102z" />
    <glyph glyph-name="three.tab" horiz-adv-x="450" 
d="M198 -10c-72 0 -131 27 -176 71l54 82c25 -23 61 -54 119 -54c62 0 107 44 107 116v3c0 74 -53 116 -155 116h-15l-9 69l152 206h-226v101h352v-90l-161 -207c88 -16 169 -76 169 -192v-4c0 -133 -91 -217 -211 -217z" />
    <glyph glyph-name="three.tab_alt" horiz-adv-x="450" 
d="M203 -10c-67 0 -129 22 -181 70l53 82c32 -30 75 -54 123 -54c64 0 107 43 107 112c0 67 -53 114 -149 114h-25v89h26c86 0 142 50 142 117c0 59 -42 94 -98 92c-50 -1 -88 -29 -114 -55l-55 74c50 50 113 79 183 79c107 0 189 -66 189 -177c0 -88 -52 -141 -112 -167
c69 -25 120 -80 120 -172c0 -120 -86 -204 -209 -204z" />
    <glyph glyph-name="four.tab" horiz-adv-x="450" 
d="M270 0v144h-239l-9 90l221 470h124v-470h64v-90h-64v-144h-97zM271 233v318h-5l-154 -318h159z" />
    <glyph glyph-name="five.tab" horiz-adv-x="450" 
d="M199 -10c-61 0 -124 23 -168 66l50 84c34 -30 71 -52 116 -52c67 0 109 53 109 134c0 79 -44 119 -105 119c-38 0 -65 -13 -86 -27l-59 39l20 347h307v-98h-223l-11 -183c19 9 46 17 79 17c96 0 183 -59 183 -208v-3c0 -144 -92 -235 -212 -235z" />
    <glyph glyph-name="six.tab" horiz-adv-x="450" 
d="M233 -10c-52 0 -95 17 -124 47c-49 49 -75 127 -75 280v16c0 265 87 377 228 377c49 0 91 -12 138 -43l-45 -90c-23 18 -54 36 -94 36c-77 0 -123 -79 -127 -218c27 32 68 56 121 56c91 0 169 -65 169 -213v-10c0 -143 -79 -238 -191 -238zM231 83c61 0 93 57 93 140v3
c0 87 -35 135 -93 135c-57 0 -93 -51 -93 -135v-3c0 -83 32 -140 93 -140z" />
    <glyph glyph-name="seven.tab" horiz-adv-x="450" 
d="M296 597h-253v103h366v-81l-216 -619h-112z" />
    <glyph glyph-name="eight.tab" horiz-adv-x="450" 
d="M225 -10c-114 0 -193 79 -193 198v6c0 83 40 139 96 168c-49 29 -82 79 -82 156v4c0 111 74 188 179 188s179 -77 179 -188v-4c0 -77 -33 -127 -81 -156c55 -29 95 -85 95 -168v-6c0 -119 -79 -198 -193 -198zM225 78c56 0 91 45 91 118v3c0 74 -39 119 -91 119
s-91 -45 -91 -119v-3c0 -73 35 -118 91 -118zM225 402c48 0 81 45 81 111v3c0 68 -33 107 -81 107s-81 -39 -81 -107v-3c0 -66 33 -111 81 -111z" />
    <glyph glyph-name="nine.tab" horiz-adv-x="450" 
d="M189 -10c-49 0 -98 15 -148 47l45 89c34 -24 65 -38 104 -38c76 0 122 78 126 210c-27 -32 -67 -56 -119 -56c-92 0 -170 65 -170 216v11c0 145 80 241 191 241c55 0 96 -18 125 -48c48 -47 74 -126 74 -279v-16c0 -265 -87 -377 -228 -377zM220 331c57 0 94 53 94 140v3
c0 86 -33 143 -94 143c-60 0 -93 -58 -93 -144v-3c0 -89 35 -139 93 -139z" />
    <glyph glyph-name="period.tab" horiz-adv-x="225" 
d="M53 0v136h119v-136h-119z" />
    <glyph glyph-name="comma.tab" horiz-adv-x="225" 
d="M39 -143l-12 45c59 13 80 52 75 98h-49v136h119v-115c0 -100 -44 -150 -133 -164z" />
    <glyph glyph-name="colon.tab" horiz-adv-x="225" 
d="M53 396v135h118v-135h-118zM53 0v135h118v-135h-118z" />
    <glyph glyph-name="semicolon.tab" horiz-adv-x="225" 
d="M53 396v135h118v-135h-118zM39 -143l-12 45c59 13 80 52 75 98h-49v135h118v-114c0 -100 -43 -150 -132 -164z" />
    <glyph glyph-name="twodotleader.tab" horiz-adv-x="450" 
d="M280 0v131h114v-131h-114zM56 0v131h114v-131h-114z" />
    <glyph glyph-name="periodcentered.tab" horiz-adv-x="225" 
d="M53 238v136h119v-136h-119z" />
    <glyph glyph-name="slash.tab" horiz-adv-x="450" 
d="M438 780l-347 -890h-91l348 890h90z" />
    <glyph glyph-name="bar.tab" horiz-adv-x="225" 
d="M70 -110v890h84v-890h-84z" />
    <glyph glyph-name="underscore.tab" horiz-adv-x="450" 
d="M-1 -156v83h452v-83h-452z" />
    <glyph glyph-name="dollar.tab" horiz-adv-x="450" 
d="M302 778l-7 -80c41 -9 82 -28 119 -62l-57 -82c-22 19 -46 36 -74 46l-16 -205c105 -65 150 -116 150 -206v-1c0 -108 -77 -185 -184 -191l-11 -110h-72l10 115c-49 10 -98 34 -141 77l57 82c27 -26 59 -49 94 -61l18 214c-102 61 -144 115 -144 203v1
c0 105 72 179 179 185l7 75h72zM312 184c0 35 -13 61 -57 91l-15 -182c48 8 72 45 72 90v1zM148 525c0 -37 14 -59 54 -88l14 169c-43 -7 -68 -38 -68 -80v-1z" />
    <glyph glyph-name="sterling.tab" horiz-adv-x="450" 
d="M98 382v113c0 74 17 128 57 168c29 28 72 46 123 46c67 0 115 -29 152 -69l-63 -77c-22 23 -48 44 -83 44c-17 0 -36 -5 -50 -19c-20 -20 -27 -51 -27 -93v-113h156v-93h-156v-193h214v-96h-382v68l59 23v198h-58v93h58z" />
    <glyph glyph-name="Euro.tab" horiz-adv-x="450" 
d="M22 397v75h65c26 155 107 237 214 237c48 0 91 -16 133 -54l-51 -82c-19 18 -44 37 -78 37c-52 0 -92 -43 -110 -138h139v-75h-148c-1 -12 -1 -25 -1 -38v-17v-34h149v-76h-142c17 -98 61 -142 111 -142c34 0 56 17 79 40l52 -79c-42 -40 -85 -60 -136 -60
c-107 0 -188 82 -212 241h-64v76h57v33v17v39h-57z" />
    <glyph glyph-name="yen.tab" horiz-adv-x="450" 
d="M59 183h115v77h-115v78h95l-145 362h112l105 -300l106 300h109l-146 -362h96v-78h-115v-77h115v-77h-115v-106h-102v106h-115v77z" />
    <glyph glyph-name="cent.tab" horiz-adv-x="450" 
d="M316 705l-6 -84c40 -8 73 -27 104 -56l-50 -78c-18 18 -39 32 -63 39l-26 -351c39 3 67 24 90 49l49 -76c-38 -38 -87 -64 -145 -68l-7 -86h-74l8 94c-90 27 -150 115 -150 253v17c0 155 78 253 189 266l7 81h74zM148 345c0 -76 22 -127 57 -152l24 332
c-49 -18 -81 -73 -81 -169v-11z" />
    <glyph glyph-name="numbersign.tab" horiz-adv-x="450" 
d="M20 258h70l17 187h-64v92h73l15 163h75l-16 -163h101l15 163h75l-15 -163h64v-92h-73l-17 -187h66v-92h-74l-15 -166h-75l15 166h-100l-15 -166h-75l15 166h-62v92zM181 446l-17 -189h103l17 189h-103z" />
    <glyph glyph-name="paragraph.tab" horiz-adv-x="450" 
d="M274 0v238h-16c-127 5 -226 81 -226 231v1c0 153 101 230 241 230h110v-700h-109z" />
    <glyph glyph-name="section.tab" horiz-adv-x="450" 
d="M216 -8c-53 0 -102 19 -145 52l45 74c20 -17 59 -39 99 -39c36 0 57 20 57 49c0 32 -30 52 -99 83c-98 43 -144 76 -144 145v2c0 53 34 100 99 118c-31 28 -48 57 -48 96v1c0 81 63 135 154 135c53 0 102 -19 146 -52l-45 -74c-21 17 -60 39 -99 39
c-36 0 -57 -20 -57 -49c0 -32 29 -52 99 -83c98 -43 144 -76 144 -145v-2c0 -53 -35 -100 -99 -118c31 -28 47 -57 47 -96v-1c0 -81 -62 -135 -154 -135zM185 427c-35 0 -65 -25 -65 -58v-2c0 -33 29 -52 84 -76c31 -14 45 -18 62 -18c34 0 65 25 65 58v2
c0 33 -29 52 -84 76c-31 14 -45 18 -62 18z" />
    <glyph glyph-name="degree.tab" horiz-adv-x="450" 
d="M224 307c-90 0 -160 82 -160 196v8c0 114 71 196 162 196c90 0 160 -82 160 -196v-8c0 -114 -71 -196 -162 -196zM225 377c53 0 88 50 88 126v8c0 76 -35 126 -88 126s-87 -50 -87 -126v-8c0 -76 34 -126 87 -126z" />
    <glyph glyph-name="percent.tab" horiz-adv-x="450" 
d="M122 706c68 0 105 -64 105 -172v-19c0 -104 -37 -172 -105 -172c-67 0 -105 64 -105 171v20c0 107 38 172 105 172zM328 357c67 0 105 -64 105 -171v-20c0 -107 -38 -172 -105 -172s-105 64 -105 172v19c0 104 38 172 105 172zM349 700h58l-165 -359l-141 -341h-58
l165 359zM327 295c-27 0 -40 -34 -40 -108v-23c0 -73 13 -108 40 -108s41 35 41 108v23c0 74 -14 108 -41 108zM123 644c-27 0 -41 -35 -41 -108v-23c0 -74 14 -108 41 -108s40 34 40 108v23c0 73 -13 108 -40 108z" />
    <glyph glyph-name="quotedbl.tab" horiz-adv-x="450" 
d="M262 403l21 297h115l-1 -8l-88 -289h-47zM76 403l21 297h115v-8l-89 -289h-47z" />
    <glyph glyph-name="quotesingle.tab" horiz-adv-x="225" 
d="M58 403l22 297h114v-8l-88 -289h-48z" />
    <glyph glyph-name="plus.tab" horiz-adv-x="450" 
d="M412 305h-140v-146h-94v146h-140v94h140v146h94v-146h140v-94z" />
    <glyph glyph-name="minus.tab" horiz-adv-x="450" 
d="M411 301h-372v102h372v-102z" />
    <glyph glyph-name="divide.tab" horiz-adv-x="450" 
d="M171 470v110h108v-110h-108zM411 305h-372v95h372v-95zM171 124v110h108v-110h-108z" />
    <glyph glyph-name="equal.tab" horiz-adv-x="450" 
d="M404 403h-358v99h358v-99zM404 202h-358v99h358v-99z" />
    <glyph glyph-name="multiply.tab" horiz-adv-x="450" 
d="M338 162l-114 122l-113 -122l-70 62l121 128l-121 127l70 63l115 -122l114 122l69 -62l-121 -128l121 -127z" />
    <glyph glyph-name="less.tab" horiz-adv-x="450" 
d="M394 111l-348 194v94l348 194v-112l-242 -128l242 -128v-114z" />
    <glyph glyph-name="greater.tab" horiz-adv-x="450" 
d="M405 305l-349 -194v113l242 127l-242 128v114l349 -194v-94z" />
    <glyph glyph-name="plusminus.tab" horiz-adv-x="450" 
d="M412 334h-140v-142h-94v142h-140v94h140v144h94v-144h140v-94zM411 18h-372v92h372v-92z" />
    <glyph glyph-name="space" unicode=" " horiz-adv-x="189" 
 />
    <glyph glyph-name="uni00A0" unicode="&#xa0;" horiz-adv-x="189" 
 />
    <glyph glyph-name="emspace" unicode="&#x2003;" horiz-adv-x="1000" 
 />
    <glyph glyph-name="enspace" unicode="&#x2002;" horiz-adv-x="500" 
 />
    <glyph glyph-name="threeperemspace" unicode="&#x2004;" horiz-adv-x="333" 
 />
    <glyph glyph-name="fourperemspace" unicode="&#x2005;" horiz-adv-x="250" 
 />
    <glyph glyph-name="thinspace" unicode="&#x2009;" horiz-adv-x="127" 
 />
    <glyph glyph-name="hairspace" unicode="&#x200a;" horiz-adv-x="70" 
 />
    <glyph glyph-name="space.tab" horiz-adv-x="225" 
 />
    <glyph glyph-name="figurespace" unicode="&#x2007;" horiz-adv-x="450" 
 />
    <glyph glyph-name="NUL" horiz-adv-x="0" 
 />
    <glyph glyph-name="asciicircum" unicode="^" horiz-adv-x="461" 
d="M89 505l101 190h81l101 -190h-76l-66 125l-67 -125h-74z" />
    <glyph glyph-name="asciitilde" unicode="~" horiz-adv-x="400" 
d="M264 248c-28 0 -50 11 -70 23c-18 12 -33 20 -48 20c-21 0 -30 -15 -41 -48l-58 17c14 74 47 108 90 108c28 0 49 -11 69 -23c19 -11 34 -20 49 -20c20 0 34 15 44 49l55 -17c-15 -75 -48 -109 -90 -109z" />
    <glyph glyph-name="hfjslug" horiz-adv-x="694" 
d="M644 -200h-208l-8 14h-163l-8 -14h-207v303c18 0 32 14 32 32c0 17 -14 32 -32 32v554h100l30 79h334l29 -79h101v-921zM400 563v-172h15v78h38v14h-38v66h43v14h-58zM184 563v-172h15v79h47v-79h15v172h-15v-79h-47v79h-15zM460 394c5 -2 14 -4 21 -4c20 0 31 11 31 36
v137h-16v-137c0 -16 -5 -22 -16 -22c-6 0 -15 3 -20 5v-15zM371 465l-13 3c-2 -9 -5 -21 -8 -30h-1l-16 31c13 12 23 26 23 42s-9 31 -27 31c-17 0 -28 -15 -28 -31c0 -15 6 -24 14 -39c-15 -12 -23 -28 -23 -47c0 -22 12 -37 29 -37c13 0 23 9 29 24h1l12 -24l12 6l-17 32
c5 12 9 25 13 39zM523 323v-46h8v12l8 8l15 -20h10l-20 26l18 20h-10l-20 -24h-1v24h-8zM488 292l10 -15h9l-12 17c5 2 10 6 10 14c0 9 -7 15 -17 15h-20v-46h8v15h12zM426 276c14 0 24 11 24 24c0 12 -10 24 -24 24s-24 -12 -24 -24c0 -13 10 -24 24 -24zM370 301l-13 22
h-9l18 -29v-17h8v17l18 29h-9zM193 323v-46h34v7h-26v13h23v7h-23v12h26v7h-34zM132 323v-46h8v32l25 -32h7v46h-8v-32l-25 32h-7zM241 323l14 -47h8l11 34h1l11 -34h8l14 47h-8l-10 -35h-1l-11 35h-7l-11 -35h-1l-10 35h-8zM327 479c-7 13 -12 22 -12 32s6 19 14 19
s13 -9 13 -19c0 -12 -5 -21 -15 -32zM342 423c-5 -13 -12 -21 -20 -21c-9 0 -16 10 -16 25c0 13 7 26 16 35zM487 299h-11v17h11c6 0 10 -3 10 -8s-4 -9 -10 -9zM426 283c-10 0 -16 8 -16 17c0 8 6 17 16 17s16 -9 16 -17c0 -9 -6 -17 -16 -17z" />
    <glyph glyph-name="i.dot" horiz-adv-x="215" 
d="M53 605v107h108v-107h-108zM55 0v532h104v-532h-104z" />
    <glyph glyph-name="fraction" unicode="&#x2044;" horiz-adv-x="75" 
d="M-168 0l186 363l165 337h60l-185 -363l-166 -337h-60z" />
    <glyph glyph-name="zero.num" 
d="M149 330c-75 0 -119 63 -119 183v10c0 120 44 184 120 184c75 0 120 -63 120 -183v-10c0 -121 -46 -184 -121 -184zM149 645c-33 0 -52 -35 -52 -123v-7c0 -88 20 -123 53 -123c32 0 52 35 52 122v8c0 88 -20 123 -53 123z" />
    <glyph glyph-name="one.num" horiz-adv-x="244" 
d="M172 337h-69v294l-64 -29l-8 63l90 38h51v-366z" />
    <glyph glyph-name="one.num_alt" 
d="M270 337h-221v57h81v239l-75 -31l-7 62l99 40h51v-310h72v-57z" />
    <glyph glyph-name="two.num" 
d="M38 337v55l106 124c31 38 47 57 47 83c0 28 -21 45 -46 45c-29 0 -49 -18 -73 -41l-36 46c35 38 68 58 115 58c64 0 109 -39 109 -100c0 -39 -14 -67 -54 -113l-83 -95h138v-62h-223z" />
    <glyph glyph-name="three.num" 
d="M139 330c-47 0 -83 19 -109 42l32 51c18 -16 43 -32 76 -32c32 0 55 20 55 54s-29 52 -82 53h-16l-5 44l85 97h-128v61h210v-50l-92 -102c55 -9 96 -39 96 -102c0 -71 -50 -116 -122 -116z" />
    <glyph glyph-name="four.num" 
d="M239 409v-73h-61v73h-147l-3 58l131 236h80v-239h38v-55h-38zM180 464v162h-4l-90 -162h94z" />
    <glyph glyph-name="five.num" 
d="M139 330c-38 0 -73 12 -108 41l32 53c23 -19 46 -33 74 -33c39 0 57 26 57 61c0 37 -22 55 -56 55c-20 0 -36 -6 -51 -12l-40 20l14 185h184v-62h-129l-7 -79c13 3 27 7 44 7c61 0 109 -37 109 -111c0 -77 -50 -125 -123 -125z" />
    <glyph glyph-name="six.num" 
d="M151 330c-30 0 -56 11 -75 29c-26 25 -42 65 -42 140v9c0 136 55 199 134 199c35 0 63 -12 87 -28l-28 -54c-11 9 -34 21 -59 21c-39 0 -67 -30 -70 -99c16 17 39 26 68 26c51 0 99 -33 99 -116c0 -79 -50 -127 -114 -127zM151 389c32 0 52 24 52 66c0 41 -21 62 -51 62
c-29 0 -52 -20 -52 -62c0 -41 21 -66 51 -66z" />
    <glyph glyph-name="seven.num" 
d="M134 336h-72l125 300h-146v64h219v-50z" />
    <glyph glyph-name="eight.num" 
d="M150 330c-70 0 -119 42 -119 106c0 44 23 74 54 91c-27 15 -46 43 -46 81c0 59 48 99 111 99s111 -40 111 -99c0 -38 -19 -66 -46 -81c31 -17 54 -47 54 -91c0 -64 -49 -106 -119 -106zM150 654c-28 0 -48 -20 -48 -50c0 -32 20 -52 48 -52c29 0 48 20 48 52
c0 30 -19 50 -48 50zM150 498c-31 0 -55 -23 -55 -58c0 -36 22 -58 55 -58s55 22 55 58c0 35 -24 58 -55 58z" />
    <glyph glyph-name="nine.num" 
d="M149 707c29 0 56 -11 75 -29c26 -25 42 -66 42 -141v-9c0 -136 -54 -198 -134 -198c-34 0 -65 12 -90 30l25 54c16 -11 41 -24 66 -24c39 0 66 30 68 96c-15 -17 -38 -27 -66 -27c-51 0 -100 34 -100 118c0 81 50 130 114 130zM149 515c28 0 51 21 51 65
c0 43 -20 68 -51 68c-32 0 -51 -25 -51 -68c0 -44 21 -65 51 -65z" />
    <glyph glyph-name="zero.den" 
d="M149 -7c-75 0 -119 63 -119 183v10c0 121 44 184 120 184c75 0 120 -62 120 -183v-10c0 -120 -46 -184 -121 -184zM149 308c-33 0 -52 -35 -52 -122v-8c0 -88 20 -123 53 -123c32 0 52 35 52 123v8c0 87 -20 122 -53 122z" />
    <glyph glyph-name="one.den" horiz-adv-x="244" 
d="M172 0h-69v294l-64 -29l-8 63l90 39h51v-367z" />
    <glyph glyph-name="one.den_alt" 
d="M270 0h-221v58h81v238l-75 -31l-7 62l99 41h51v-310h72v-58z" />
    <glyph glyph-name="two.den" 
d="M38 0v55l106 125c31 37 47 57 47 83c0 27 -21 44 -46 44c-29 0 -49 -18 -73 -41l-36 47c35 37 68 57 115 57c64 0 109 -38 109 -100c0 -38 -14 -66 -54 -113l-83 -95h138v-62h-223z" />
    <glyph glyph-name="three.den" 
d="M139 -7c-47 0 -83 19 -109 42l32 51c18 -15 43 -32 76 -32c32 0 55 20 55 54s-29 52 -82 53h-16l-5 44l85 97h-128v62h210v-51l-92 -102c55 -9 96 -39 96 -102c0 -70 -50 -116 -122 -116z" />
    <glyph glyph-name="four.den" 
d="M239 72v-73h-61v73h-147l-3 59l131 236h80v-239h38v-56h-38zM180 128v161h-4l-90 -161h94z" />
    <glyph glyph-name="five.den" 
d="M139 -7c-38 0 -73 13 -108 42l32 52c23 -19 46 -33 74 -33c39 0 57 26 57 62c0 37 -22 54 -56 54c-20 0 -36 -5 -51 -12l-40 21l14 185h184v-62h-129l-7 -80c13 4 27 7 44 7c61 0 109 -36 109 -111c0 -77 -50 -125 -123 -125z" />
    <glyph glyph-name="six.den" 
d="M151 -7c-30 0 -56 11 -75 29c-26 26 -42 66 -42 141v9c0 136 55 198 134 198c35 0 63 -11 87 -27l-28 -54c-11 8 -34 21 -59 21c-39 0 -67 -30 -70 -100c16 17 39 27 68 27c51 0 99 -33 99 -116c0 -79 -50 -128 -114 -128zM151 52c32 0 52 25 52 67c0 41 -21 62 -51 62
c-29 0 -52 -21 -52 -62c0 -42 21 -67 51 -67z" />
    <glyph glyph-name="seven.den" 
d="M134 -1h-72l125 301h-146v64h219v-50z" />
    <glyph glyph-name="eight.den" 
d="M150 -7c-70 0 -119 42 -119 107c0 43 24 74 54 90c-26 16 -45 43 -45 81c0 60 47 99 110 99s111 -39 111 -99c0 -38 -19 -65 -46 -81c31 -16 54 -47 54 -90c0 -65 -49 -107 -119 -107zM150 318c-28 0 -48 -20 -48 -51s20 -52 48 -52c29 0 48 21 48 52s-19 51 -48 51z
M150 161c-31 0 -54 -22 -54 -58c0 -35 22 -57 54 -57c33 0 55 22 55 57c0 36 -24 58 -55 58z" />
    <glyph glyph-name="nine.den" 
d="M149 370c29 0 56 -10 75 -29c26 -25 42 -65 42 -140v-9c0 -136 -54 -199 -134 -199c-34 0 -65 12 -90 30l25 55c16 -12 41 -24 66 -24c39 0 66 30 68 95c-15 -17 -38 -26 -66 -26c-51 0 -100 33 -100 118c0 80 50 129 114 129zM149 179c28 0 51 20 51 65
c0 43 -20 67 -51 67c-32 0 -51 -24 -51 -68c0 -43 21 -64 51 -64z" />
    <glyph glyph-name="acute" unicode="&#xb4;" horiz-adv-x="500" 
d="M165 582l88 149l89 -45l-104 -104h-73z" />
    <glyph glyph-name="hungarumlaut" unicode="&#x2dd;" horiz-adv-x="500" 
d="M228 582l87 149l84 -44l-101 -105h-70zM100 582l87 149l84 -44l-101 -105h-70z" />
    <glyph glyph-name="caron.alt" horiz-adv-x="500" 
d="M190 569l10 164h76v-3l-42 -161h-44z" />
    <glyph glyph-name="grave" unicode="`" horiz-adv-x="500" 
d="M256 582l-104 104l90 45l87 -149h-73z" />
    <glyph glyph-name="circumflex" unicode="&#x2c6;" horiz-adv-x="500" 
d="M118 583l89 138h86l89 -138h-76l-57 66l-57 -66h-74z" />
    <glyph glyph-name="caron" unicode="&#x2c7;" horiz-adv-x="500" 
d="M382 721l-89 -138h-86l-89 138h76l57 -66l57 66h74z" />
    <glyph glyph-name="breve" unicode="&#x2d8;" horiz-adv-x="500" 
d="M250 579c-71 0 -125 41 -132 123h69c7 -32 26 -53 63 -53s56 21 63 53h69c-7 -82 -61 -123 -132 -123z" />
    <glyph glyph-name="tilde" unicode="&#x2dc;" horiz-adv-x="500" 
d="M314 582c-24 0 -46 11 -68 22c-19 10 -34 18 -46 18c-19 0 -27 -13 -37 -45l-59 16c17 74 38 107 82 107c24 0 46 -11 68 -22c19 -10 34 -18 46 -18c19 0 27 13 37 44l59 -16c-16 -73 -38 -106 -82 -106z" />
    <glyph glyph-name="macron" unicode="&#xaf;" horiz-adv-x="500" 
d="M121 590v73h258v-73h-258z" />
    <glyph glyph-name="dieresis" unicode="&#xa8;" horiz-adv-x="500" 
d="M276 586v102h100v-102h-100zM124 586v102h100v-102h-100z" />
    <glyph glyph-name="dotaccent" unicode="&#x2d9;" horiz-adv-x="500" 
d="M199 586v103h102v-103h-102z" />
    <glyph glyph-name="ring" unicode="&#x2da;" horiz-adv-x="500" 
d="M250 579c-53 0 -95 41 -95 95c0 53 42 95 95 95s95 -41 95 -95s-42 -95 -95 -95zM250 620c29 0 50 23 50 54c0 30 -21 54 -50 54c-28 0 -50 -24 -50 -54c0 -31 22 -54 50 -54z" />
    <glyph glyph-name="acute.cap" horiz-adv-x="500" 
d="M163 744l91 130l94 -44l-106 -86h-79z" />
    <glyph glyph-name="hungarumlaut.cap" horiz-adv-x="500" 
d="M93 744l91 130l87 -44l-103 -86h-75zM225 744l92 130l87 -44l-103 -86h-76z" />
    <glyph glyph-name="grave.cap" horiz-adv-x="500" 
d="M332 744h-80l-105 86l94 44z" />
    <glyph glyph-name="circumflex.cap" horiz-adv-x="500" 
d="M113 745l91 121h92l91 -121h-82l-56 53l-56 -53h-80z" />
    <glyph glyph-name="caron.cap" horiz-adv-x="500" 
d="M387 866l-91 -121h-92l-91 121h82l56 -53l56 53h80z" />
    <glyph glyph-name="breve.cap" horiz-adv-x="500" 
d="M250 742c-73 0 -128 38 -132 113h70c7 -29 26 -43 62 -43c35 0 55 14 62 43h71c-6 -75 -60 -113 -133 -113z" />
    <glyph glyph-name="tilde.cap" horiz-adv-x="500" 
d="M316 744c-25 0 -48 11 -71 21c-19 9 -35 16 -47 16c-18 0 -26 -12 -37 -41l-61 17c16 70 40 105 84 105c25 0 49 -10 72 -21c19 -9 34 -16 46 -16c18 0 26 12 37 41l61 -16c-16 -71 -40 -106 -84 -106z" />
    <glyph glyph-name="macron.cap" horiz-adv-x="500" 
d="M112 752v76h276v-76h-276z" />
    <glyph glyph-name="dieresis.cap" horiz-adv-x="500" 
d="M279 747v101h103v-101h-103zM118 747v101h103v-101h-103z" />
    <glyph glyph-name="dotaccent.cap" horiz-adv-x="500" 
d="M198 747v101h104v-101h-104z" />
    <glyph glyph-name="ring.cap" horiz-adv-x="500" 
d="M250 741c-53 0 -97 38 -97 90s44 90 97 90c54 0 97 -38 97 -90s-44 -90 -97 -90zM250 783c29 0 50 21 50 48s-21 48 -50 48s-50 -21 -50 -48s21 -48 50 -48z" />
    <glyph glyph-name="commaaccent" unicode="&#x326;" horiz-adv-x="500" 
d="M200 -233l-7 36c41 6 56 23 54 57h-45v88h100v-78c0 -68 -35 -96 -102 -103z" />
    <glyph glyph-name="cedilla" unicode="&#xb8;" horiz-adv-x="500" 
d="M243 -136l-92 36l77 117h72z" />
    <glyph glyph-name="ogonek" unicode="&#x2db;" horiz-adv-x="500" 
d="M320 -89v-58c-13 -2 -24 -3 -34 -3c-66 0 -101 28 -101 71c0 33 18 59 47 88l70 -1c-24 -28 -34 -47 -34 -65c0 -24 18 -33 52 -32z" />
    </font>
</defs>
</svg>
