<?xml version="1.0" standalone="no"?>
<!DOCTYPE svg PUBLIC "-//W3C//DTD SVG 1.1//EN" "http://www.w3.org/Graphics/SVG/1.1/DTD/svg11.dtd" >
<svg xmlns="http://www.w3.org/2000/svg" xmlns:xlink="http://www.w3.org/1999/xlink" version="1.1">
<metadata>
Created by FontForge 20160407 at Fri Oct 28 14:59:18 2016
 By Jimmy Warting
Copyright (C) 2001, 2008 Hoefler &#38; Frere-Jones. http://www.typography.com
</metadata>
<defs>
<font id="GothamXNarrow-Light" horiz-adv-x="300" >
  <font-face 
    font-family="Gotham XNarrow Light"
    font-weight="300"
    font-stretch="condensed"
    units-per-em="1000"
    panose-1="0 0 0 0 0 0 0 0 0 0"
    ascent="800"
    descent="-200"
    x-height="521"
    cap-height="700"
    bbox="-157 -200 873 939"
    underline-thickness="50"
    underline-position="-100"
    stemh="42"
    stemv="44"
    unicode-range="U+0020-FB04"
  />
<missing-glyph horiz-adv-x="500" 
d="M0 -200v1000h500v-1000h-500zM71 750l179 -390l179 390h-358zM50 -76l172 376l-172 376v-752zM450 676l-172 -376l172 -376v752zM250 240l-179 -390h358z" />
    <glyph glyph-name="f_f" unicode="ff" horiz-adv-x="517" 
d="M88 0v480h-60v41h60v57c0 49 13 85 35 108c20 20 47 30 82 30c14 0 31 -3 44 -6v-43c-14 4 -32 7 -44 7c-48 0 -73 -31 -73 -97v-56h113v-41h-113v-480h-44zM347 0v480h-60v41h60v57c0 49 12 85 35 108c19 20 47 30 81 30c15 0 32 -3 44 -6v-43c-14 4 -31 7 -43 7
c-49 0 -73 -31 -73 -97v-56h112v-41h-112v-480h-44z" />
    <glyph glyph-name="fi" unicode="fi" horiz-adv-x="444" 
d="M88 0v480h-60v41h60v57c0 49 13 85 35 108c20 20 47 30 82 30c14 0 31 -3 44 -6v-43c-14 4 -32 7 -44 7c-48 0 -73 -31 -73 -97v-56h113v-41h-113v-480h-44zM329 0v521h44v-521h-44zM326 639v69h50v-69h-50z" />
    <glyph glyph-name="fl" unicode="fl" horiz-adv-x="444" 
d="M88 0v480h-60v41h60v57c0 49 13 85 35 108c20 20 47 30 82 30c14 0 31 -3 44 -6v-43c-14 4 -32 7 -44 7c-48 0 -73 -31 -73 -97v-56h113v-41h-113v-480h-44zM329 0v714h44v-714h-44z" />
    <glyph glyph-name="f_f_i" unicode="ffi" horiz-adv-x="702" 
d="M88 0v480h-60v41h60v57c0 49 13 85 35 108c20 20 47 30 82 30c14 0 31 -3 44 -6v-43c-14 4 -32 7 -44 7c-48 0 -73 -31 -73 -97v-56h113v-41h-113v-480h-44zM347 0v480h-60v41h60v57c0 49 12 85 35 108c19 20 47 30 81 30c15 0 32 -3 44 -6v-43c-14 4 -31 7 -43 7
c-49 0 -73 -31 -73 -97v-56h112v-41h-112v-480h-44zM588 0v521h44v-521h-44zM584 639v69h51v-69h-51z" />
    <glyph glyph-name="f_f_l" unicode="ffl" horiz-adv-x="702" 
d="M88 0v480h-60v41h60v57c0 49 13 85 35 108c20 20 47 30 82 30c14 0 31 -3 44 -6v-43c-14 4 -32 7 -44 7c-48 0 -73 -31 -73 -97v-56h113v-41h-113v-480h-44zM347 0v480h-60v41h60v57c0 49 12 85 35 108c19 20 47 30 81 30c15 0 32 -3 44 -6v-43c-14 4 -31 7 -43 7
c-49 0 -73 -31 -73 -97v-56h112v-41h-112v-480h-44zM588 0v714h44v-714h-44z" />
    <glyph glyph-name=".notdef" horiz-adv-x="500" 
d="M0 -200v1000h500v-1000h-500zM71 750l179 -390l179 390h-358zM50 -76l172 376l-172 376v-752zM450 676l-172 -376l172 -376v752zM250 240l-179 -390h358z" />
    <glyph glyph-name="A" unicode="A" horiz-adv-x="543" 
d="M34 0l213 704h49l213 -704h-49l-58 196h-263l-58 -196h-47zM152 239h237l-118 400z" />
    <glyph glyph-name="B" unicode="B" horiz-adv-x="495" 
d="M73 0v700h159c66 0 119 -20 155 -56c29 -29 46 -70 46 -118v-2c0 -100 -60 -147 -124 -168c83 -20 144 -73 144 -169v-2c0 -116 -90 -185 -228 -185h-152zM386 521v2c0 82 -59 134 -155 134h-111v-282h101c103 0 165 54 165 146zM406 187c0 93 -65 145 -181 145h-105
v-289h107c110 0 179 51 179 142v2z" />
    <glyph glyph-name="C" unicode="C" horiz-adv-x="472" 
d="M293 -7c-136 0 -243 124 -243 352v9c0 225 112 353 249 353c59 0 104 -23 139 -54l-26 -37c-31 28 -70 47 -115 47c-111 0 -200 -121 -200 -309v-7c0 -191 87 -310 199 -310c45 0 86 21 119 51l26 -35c-37 -34 -87 -60 -148 -60z" />
    <glyph glyph-name="D" unicode="D" horiz-adv-x="534" 
d="M73 0v700h135c162 0 276 -129 276 -343v-13c0 -214 -114 -344 -276 -344h-135zM204 657h-84v-614h85c138 0 232 113 232 300v13c0 187 -95 301 -233 301z" />
    <glyph glyph-name="E" unicode="E" horiz-adv-x="446" 
d="M73 0v700h329v-43h-282v-282h255v-43h-255v-289h286v-43h-333z" />
    <glyph glyph-name="F" unicode="F" horiz-adv-x="429" 
d="M73 0v700h321v-43h-274v-293h247v-43h-247v-321h-47z" />
    <glyph glyph-name="G" unicode="G" horiz-adv-x="530" 
d="M310 -7c-159 0 -260 132 -260 351v11c0 216 110 352 259 352c61 0 105 -15 151 -51l-27 -40c-33 30 -74 47 -124 47c-117 0 -212 -116 -212 -309v-7c0 -196 88 -311 216 -311c42 0 79 13 108 32v249h-149v43h194v-315c-37 -28 -94 -52 -156 -52z" />
    <glyph glyph-name="H" unicode="H" horiz-adv-x="536" 
d="M73 0v700h47v-326h297v326h47v-700h-47v331h-297v-331h-47z" />
    <glyph glyph-name="I" unicode="I" horiz-adv-x="206" 
d="M80 0v700h47v-700h-47z" />
    <glyph glyph-name="J" unicode="J" horiz-adv-x="345" 
d="M138 -7c-49 0 -94 24 -121 69l34 28c29 -41 56 -54 91 -54c53 0 91 40 91 120v544h46v-545c0 -55 -15 -97 -41 -123c-27 -27 -59 -39 -100 -39z" />
    <glyph glyph-name="K" unicode="K" horiz-adv-x="491" 
d="M73 0v700h47v-422l284 422h55l-214 -311l232 -389h-55l-206 346l-96 -139v-207h-47z" />
    <glyph glyph-name="L" unicode="L" horiz-adv-x="401" 
d="M73 0v700h47v-657h258v-43h-305z" />
    <glyph glyph-name="M" unicode="M" horiz-adv-x="615" 
d="M73 0v700h51l183 -403l184 403h51v-700h-46v607l-187 -408h-4l-187 408v-607h-45z" />
    <glyph glyph-name="N" unicode="N" horiz-adv-x="550" 
d="M73 0v700h47l312 -597v597h45v-700h-41l-318 611v-611h-45z" />
    <glyph glyph-name="O" unicode="O" horiz-adv-x="561" 
d="M281 -9c-135 0 -231 135 -231 353v12c0 218 96 353 231 353s231 -135 231 -353v-12c0 -218 -96 -353 -231 -353zM281 35c104 0 183 120 183 309v12c0 189 -79 309 -183 309s-183 -120 -183 -309v-12c0 -189 79 -309 183 -309z" />
    <glyph glyph-name="P" unicode="P" horiz-adv-x="470" 
d="M73 0v700h145c135 0 222 -83 222 -217v-2c0 -138 -92 -222 -229 -222h-91v-259h-47zM120 301h95c111 0 178 68 178 179v2c0 113 -70 175 -177 175h-96v-356z" />
    <glyph glyph-name="Q" unicode="Q" horiz-adv-x="561" 
d="M521 11l-33 -31l-68 73c-38 -40 -86 -62 -139 -62c-135 0 -231 135 -231 353v12c0 218 96 353 231 353s231 -135 231 -353v-12c0 -108 -24 -196 -65 -257zM281 35c42 0 79 17 108 50l-92 95l33 31l85 -91c31 53 49 129 49 224v12c0 189 -79 309 -183 309
s-183 -120 -183 -309v-12c0 -189 79 -309 183 -309z" />
    <glyph glyph-name="Q.alt" horiz-adv-x="561" 
d="M473 -98l-99 114c-28 -16 -59 -25 -93 -25c-135 0 -231 135 -231 353v12c0 218 96 353 231 353s231 -135 231 -353v-12c0 -139 -39 -244 -102 -302l121 -139v-1h-58zM281 35c104 0 183 120 183 309v12c0 189 -79 309 -183 309s-183 -120 -183 -309v-12
c0 -189 79 -309 183 -309z" />
    <glyph glyph-name="R" unicode="R" horiz-adv-x="502" 
d="M73 0v700h159c70 0 127 -22 164 -59c34 -35 54 -85 54 -145v-2c0 -108 -62 -174 -150 -198l168 -296h-55l-161 286c-12 -1 -24 -1 -36 -1h-96v-285h-47zM120 328h87c142 0 197 69 197 165v2c0 106 -68 162 -174 162h-110v-329z" />
    <glyph glyph-name="S" unicode="S" horiz-adv-x="440" 
d="M213 -10c-67 0 -128 23 -188 81l31 38c47 -46 98 -75 157 -75c81 0 137 59 137 132v2c0 56 -23 100 -135 165c-136 79 -163 132 -163 206v2c0 93 74 169 180 169c55 0 112 -20 163 -66l-29 -38c-43 40 -89 60 -136 60c-80 0 -130 -56 -130 -122v-2
c0 -62 28 -100 140 -166c137 -80 157 -137 157 -208v-2c0 -98 -78 -176 -184 -176z" />
    <glyph glyph-name="T" unicode="T" horiz-adv-x="419" 
d="M186 0v657h-159v43h366v-43h-160v-657h-47z" />
    <glyph glyph-name="U" unicode="U" horiz-adv-x="532" 
d="M266 -10c-119 0 -198 85 -198 229v481h46v-480c0 -120 58 -187 153 -187c93 0 152 64 152 185v482h47v-479c0 -146 -80 -231 -200 -231z" />
    <glyph glyph-name="V" unicode="V" horiz-adv-x="517" 
d="M236 -5l-202 705h49l176 -630l177 630h48l-203 -705h-45z" />
    <glyph glyph-name="W" unicode="W" horiz-adv-x="783" 
d="M205 -5l-168 705h49l141 -615l145 616h41l145 -616l140 615h48l-168 -705h-41l-145 610l-146 -610h-41z" />
    <glyph glyph-name="X" unicode="X" horiz-adv-x="485" 
d="M389 700h51l-170 -335l184 -365h-52l-161 324l-159 -324h-51l183 363l-171 337h52l146 -296z" />
    <glyph glyph-name="Y" unicode="Y" horiz-adv-x="479" 
d="M216 0v293l-200 407h52l172 -357l172 357h51l-200 -406v-294h-47z" />
    <glyph glyph-name="Z" unicode="Z" horiz-adv-x="459" 
d="M43 0v29l316 628h-303v43h362v-28l-316 -629h316v-43h-375z" />
    <glyph glyph-name="a" unicode="a" horiz-adv-x="411" 
d="M177 -10c-78 0 -142 65 -142 162v6c0 99 62 167 162 167c46 0 81 -9 112 -20v53c0 82 -43 127 -118 127c-42 0 -84 -15 -111 -33l-16 38c38 21 83 37 131 37c47 0 86 -14 115 -43c26 -25 43 -68 43 -122v-362h-44v79c-25 -52 -68 -89 -132 -89zM182 30
c74 0 127 66 127 142v91c-32 13 -67 22 -110 22c-78 0 -119 -52 -119 -125v-6c0 -72 40 -124 102 -124z" />
    <glyph glyph-name="a.alt" horiz-adv-x="458" 
d="M207 -9c-85 0 -165 88 -165 262v14c0 173 80 263 165 263c72 0 116 -51 143 -113v104h44v-521h-44v105c-27 -62 -72 -114 -143 -114zM212 31c73 0 141 83 141 221v18c0 138 -68 220 -141 220c-69 0 -125 -75 -125 -223v-12c0 -147 57 -224 125 -224z" />
    <glyph glyph-name="b" unicode="b" horiz-adv-x="458" 
d="M252 -9c-72 0 -116 51 -143 113v-104h-44v714h44v-298c27 62 72 114 143 114c85 0 165 -88 165 -262v-14c0 -173 -80 -263 -165 -263zM247 31c69 0 125 75 125 223v12c0 147 -57 224 -125 224c-73 0 -141 -83 -141 -221v-18c0 -138 68 -220 141 -220z" />
    <glyph glyph-name="c" unicode="c" horiz-adv-x="365" 
d="M226 -9c-105 0 -186 89 -186 262v10c0 174 88 267 189 267c46 0 82 -20 109 -45l-24 -35c-21 19 -50 39 -88 39c-72 0 -141 -82 -141 -227v-9c0 -152 74 -222 142 -221c35 1 62 17 86 40l26 -31c-22 -24 -60 -50 -113 -50z" />
    <glyph glyph-name="d" unicode="d" horiz-adv-x="458" 
d="M207 -9c-85 0 -165 88 -165 262v14c0 173 80 263 165 263c72 0 116 -51 143 -113v297h44v-714h-44v105c-27 -62 -72 -114 -143 -114zM212 31c73 0 141 83 141 221v18c0 138 -68 220 -141 220c-69 0 -125 -75 -125 -223v-12c0 -147 57 -224 125 -224z" />
    <glyph glyph-name="e" unicode="e" horiz-adv-x="416" 
d="M234 -9c-107 0 -194 92 -194 262v7c0 171 78 270 172 270c100 0 165 -99 165 -260v-28h-293c4 -137 73 -210 154 -210c42 0 76 16 107 44l23 -34c-39 -33 -80 -51 -134 -51zM84 281h249c-2 115 -47 208 -121 208c-68 0 -122 -77 -128 -208z" />
    <glyph glyph-name="f" unicode="f" horiz-adv-x="257" 
d="M88 0v480h-60v41h60v57c0 49 13 85 35 108c20 20 47 30 82 30c14 0 31 -3 44 -6v-43c-14 4 -32 7 -44 7c-48 0 -73 -31 -73 -97v-56h113v-41h-113v-480h-44z" />
    <glyph glyph-name="g" unicode="g" horiz-adv-x="458" 
d="M213 -141c-50 0 -101 13 -153 40l17 39c40 -23 92 -38 138 -38c84 0 135 44 135 133v110c-28 -61 -73 -112 -143 -112c-86 0 -165 86 -165 246v7c0 158 79 246 166 246c69 0 115 -51 142 -111v102h44v-487c0 -56 -16 -98 -45 -127c-32 -32 -78 -48 -136 -48zM213 71
c69 0 139 77 139 206v7c0 129 -70 206 -139 206s-126 -72 -126 -207v-5c0 -134 57 -207 126 -207z" />
    <glyph glyph-name="h" unicode="h" horiz-adv-x="442" 
d="M65 0v714h44v-276c22 49 63 92 132 92c84 0 142 -59 142 -174v-356h-44v340c0 103 -39 151 -108 151s-122 -62 -122 -153v-338h-44z" />
    <glyph glyph-name="i" unicode="i" horiz-adv-x="186" 
d="M68 639v69h50v-69h-50zM71 0v521h44v-521h-44z" />
    <glyph glyph-name="j" unicode="j" horiz-adv-x="191" 
d="M73 639v69h50v-69h-50zM16 -142c-11 0 -22 3 -30 6v40c7 -3 18 -5 25 -5c51 0 65 36 65 88v534h44v-544c0 -64 -27 -119 -104 -119z" />
    <glyph glyph-name="k" unicode="k" horiz-adv-x="395" 
d="M65 0v714h44v-495l201 302h50l-148 -216l158 -305h-51l-135 264l-75 -108v-156h-44z" />
    <glyph glyph-name="l" unicode="l" horiz-adv-x="186" 
d="M71 0v714h44v-714h-44z" />
    <glyph glyph-name="m" unicode="m" horiz-adv-x="693" 
d="M65 0v521h44v-83c22 50 61 92 125 92c53 0 100 -30 122 -92c24 46 64 92 138 92c83 0 139 -59 139 -174v-356h-44v340c0 103 -37 151 -102 151c-64 0 -116 -57 -116 -154v-337h-44v340c0 103 -37 151 -102 151s-116 -62 -116 -153v-338h-44z" />
    <glyph glyph-name="n" unicode="n" horiz-adv-x="442" 
d="M65 0v521h44v-83c22 49 63 92 132 92c84 0 142 -59 142 -174v-356h-44v340c0 103 -39 151 -108 151s-122 -62 -122 -153v-338h-44z" />
    <glyph glyph-name="o" unicode="o" horiz-adv-x="443" 
d="M221 -9c-105 0 -181 109 -181 266v7c0 156 77 266 182 266s181 -109 181 -266v-7c0 -156 -77 -266 -182 -266zM222 32c75 0 136 92 136 225v7c0 133 -63 225 -137 225c-75 0 -136 -92 -136 -225v-7c0 -134 62 -225 137 -225z" />
    <glyph glyph-name="p" unicode="p" horiz-adv-x="458" 
d="M65 -139v660h44v-105c27 62 72 114 143 114c85 0 165 -88 165 -262v-14c0 -173 -80 -263 -165 -263c-72 0 -116 51 -143 113v-243h-44zM247 31c69 0 125 75 125 223v12c0 147 -57 224 -125 224c-73 0 -141 -83 -141 -221v-18c0 -138 68 -220 141 -220z" />
    <glyph glyph-name="q" unicode="q" horiz-adv-x="458" 
d="M350 -139v244c-27 -62 -72 -114 -143 -114c-85 0 -165 88 -165 262v14c0 173 80 263 165 263c72 0 116 -51 143 -113v104h44v-660h-44zM212 31c73 0 141 83 141 221v18c0 138 -68 220 -141 220c-69 0 -125 -75 -125 -223v-12c0 -147 57 -224 125 -224z" />
    <glyph glyph-name="r" unicode="r" horiz-adv-x="282" 
d="M65 0v521h44v-97c25 60 79 107 153 103v-47h-3c-81 0 -150 -56 -150 -169v-311h-44z" />
    <glyph glyph-name="s" unicode="s" horiz-adv-x="342" 
d="M163 -7c-53 0 -104 22 -153 70l29 34c42 -44 83 -63 126 -63c56 0 99 38 99 94v2c0 42 -21 74 -102 119c-88 49 -124 88 -124 152v1c0 75 59 126 138 126c58 0 104 -26 135 -55l-28 -34c-33 30 -67 48 -109 48c-54 0 -92 -35 -92 -81v-1c0 -43 24 -71 101 -115
c97 -56 125 -96 125 -159v-1c0 -82 -65 -137 -145 -137z" />
    <glyph glyph-name="t" unicode="t" horiz-adv-x="276" 
d="M191 -5c-63 0 -107 30 -107 105v380h-57v41h57v152h44v-152h112v-41h-112v-374c0 -54 27 -70 68 -70c15 0 31 3 45 9v-41c-15 -6 -33 -9 -50 -9z" />
    <glyph glyph-name="u" unicode="u" horiz-adv-x="442" 
d="M201 -9c-84 0 -142 59 -142 174v356h44v-340c0 -103 39 -151 108 -151s122 62 122 153v338h44v-521h-44v83c-22 -49 -63 -92 -132 -92z" />
    <glyph glyph-name="v" unicode="v" horiz-adv-x="416" 
d="M189 -3l-158 524h47l130 -455l132 455h45l-158 -524h-38z" />
    <glyph glyph-name="w" unicode="w" horiz-adv-x="628" 
d="M169 -3l-132 524h47l104 -453l108 453h39l106 -453l106 453h44l-131 -524h-40l-106 440l-106 -440h-39z" />
    <glyph glyph-name="x" unicode="x" horiz-adv-x="405" 
d="M89 521l112 -217l114 217h47l-135 -252l144 -269h-48l-122 233l-121 -233h-47l142 268l-134 253h48z" />
    <glyph glyph-name="y" unicode="y" horiz-adv-x="416" 
d="M214 64l124 457h47l-149 -521c-31 -109 -70 -142 -127 -142c-18 0 -45 5 -68 20l15 41c13 -10 34 -18 53 -18c36 0 58 21 84 95l-163 525h47z" />
    <glyph glyph-name="z" unicode="z" horiz-adv-x="367" 
d="M35 0v26l243 456h-232v39h285v-26l-242 -456h239v-39h-293z" />
    <glyph glyph-name="Aacute" unicode="&#xc1;" horiz-adv-x="543" 
d="M34 0l213 704h49l213 -704h-49l-58 196h-263l-58 -196h-47zM152 239h237l-118 400zM252 755l73 109l51 -24l-88 -85h-36z" />
    <glyph glyph-name="aacute" unicode="&#xe1;" horiz-adv-x="411" 
d="M177 -10c-78 0 -142 65 -142 162v6c0 99 62 167 162 167c46 0 81 -9 112 -20v53c0 82 -43 127 -118 127c-42 0 -84 -15 -111 -33l-16 38c38 21 83 37 131 37c47 0 86 -14 115 -43c26 -25 43 -68 43 -122v-362h-44v79c-25 -52 -68 -89 -132 -89zM182 30
c74 0 127 66 127 142v91c-32 13 -67 22 -110 22c-78 0 -119 -52 -119 -125v-6c0 -72 40 -124 102 -124zM187 582l71 127l51 -27l-90 -100h-32z" />
    <glyph glyph-name="aacute.alt" horiz-adv-x="458" 
d="M214 582l71 127l51 -27l-90 -100h-32zM207 -9c-85 0 -165 88 -165 262v14c0 173 80 263 165 263c72 0 116 -51 143 -113v104h44v-521h-44v105c-27 -62 -72 -114 -143 -114zM212 31c73 0 141 83 141 221v18c0 138 -68 220 -141 220c-69 0 -125 -75 -125 -223v-12
c0 -147 57 -224 125 -224z" />
    <glyph glyph-name="Abreve" unicode="&#x102;" horiz-adv-x="543" 
d="M34 0l213 704h49l213 -704h-49l-58 196h-263l-58 -196h-47zM152 239h237l-118 400zM271 756c-58 0 -101 30 -108 86h40c9 -28 31 -43 68 -43s59 15 68 43h40c-7 -56 -50 -86 -108 -86z" />
    <glyph glyph-name="abreve" unicode="&#x103;" horiz-adv-x="411" 
d="M177 -10c-78 0 -142 65 -142 162v6c0 99 62 167 162 167c46 0 81 -9 112 -20v53c0 82 -43 127 -118 127c-42 0 -84 -15 -111 -33l-16 38c38 21 83 37 131 37c47 0 86 -14 115 -43c26 -25 43 -68 43 -122v-362h-44v79c-25 -52 -68 -89 -132 -89zM182 30
c74 0 127 66 127 142v91c-32 13 -67 22 -110 22c-78 0 -119 -52 -119 -125v-6c0 -72 40 -124 102 -124zM205 583c-57 0 -99 33 -105 99h37c9 -37 30 -57 68 -57s59 20 68 57h37c-6 -66 -48 -99 -105 -99z" />
    <glyph glyph-name="abreve.alt" horiz-adv-x="458" 
d="M207 -9c-85 0 -165 88 -165 262v14c0 173 80 263 165 263c72 0 116 -51 143 -113v104h44v-521h-44v105c-27 -62 -72 -114 -143 -114zM212 31c73 0 141 83 141 221v18c0 138 -68 220 -141 220c-69 0 -125 -75 -125 -223v-12c0 -147 57 -224 125 -224zM234 583
c-57 0 -99 33 -105 99h37c9 -37 30 -57 68 -57s59 20 68 57h37c-6 -66 -48 -99 -105 -99z" />
    <glyph glyph-name="Acircumflex" unicode="&#xc2;" horiz-adv-x="543" 
d="M34 0l213 704h49l213 -704h-49l-58 196h-263l-58 -196h-47zM152 239h237l-118 400zM167 755l83 101h42l83 -101h-46l-59 59l-59 -59h-44z" />
    <glyph glyph-name="acircumflex" unicode="&#xe2;" horiz-adv-x="411" 
d="M177 -10c-78 0 -142 65 -142 162v6c0 99 62 167 162 167c46 0 81 -9 112 -20v53c0 82 -43 127 -118 127c-42 0 -84 -15 -111 -33l-16 38c38 21 83 37 131 37c47 0 86 -14 115 -43c26 -25 43 -68 43 -122v-362h-44v79c-25 -52 -68 -89 -132 -89zM182 30
c74 0 127 66 127 142v91c-32 13 -67 22 -110 22c-78 0 -119 -52 -119 -125v-6c0 -72 40 -124 102 -124zM111 585l76 122h36l76 -122h-39l-56 73l-56 -73h-37z" />
    <glyph glyph-name="acircumflex.alt" horiz-adv-x="458" 
d="M140 585l76 122h36l76 -122h-39l-56 73l-56 -73h-37zM207 -9c-85 0 -165 88 -165 262v14c0 173 80 263 165 263c72 0 116 -51 143 -113v104h44v-521h-44v105c-27 -62 -72 -114 -143 -114zM212 31c73 0 141 83 141 221v18c0 138 -68 220 -141 220
c-69 0 -125 -75 -125 -223v-12c0 -147 57 -224 125 -224z" />
    <glyph glyph-name="Adieresis" unicode="&#xc4;" horiz-adv-x="543" 
d="M34 0l213 704h49l213 -704h-49l-58 196h-263l-58 -196h-47zM152 239h237l-118 400zM306 761v68h58v-68h-58zM177 761v68h59v-68h-59z" />
    <glyph glyph-name="adieresis" unicode="&#xe4;" horiz-adv-x="411" 
d="M177 -10c-78 0 -142 65 -142 162v6c0 99 62 167 162 167c46 0 81 -9 112 -20v53c0 82 -43 127 -118 127c-42 0 -84 -15 -111 -33l-16 38c38 21 83 37 131 37c47 0 86 -14 115 -43c26 -25 43 -68 43 -122v-362h-44v79c-25 -52 -68 -89 -132 -89zM182 30
c74 0 127 66 127 142v91c-32 13 -67 22 -110 22c-78 0 -119 -52 -119 -125v-6c0 -72 40 -124 102 -124zM238 589v70h52v-70h-52zM120 589v70h52v-70h-52z" />
    <glyph glyph-name="adieresis.alt" horiz-adv-x="458" 
d="M267 589v70h52v-70h-52zM149 589v70h52v-70h-52zM207 -9c-85 0 -165 88 -165 262v14c0 173 80 263 165 263c72 0 116 -51 143 -113v104h44v-521h-44v105c-27 -62 -72 -114 -143 -114zM212 31c73 0 141 83 141 221v18c0 138 -68 220 -141 220c-69 0 -125 -75 -125 -223
v-12c0 -147 57 -224 125 -224z" />
    <glyph glyph-name="AE" unicode="&#xc6;" horiz-adv-x="697" 
d="M9 0l276 700h368v-43h-277v-283h250v-42h-250v-289h280v-43h-327v196h-195l-77 -196h-48zM151 238h178v420h-16z" />
    <glyph glyph-name="ae" unicode="&#xe6;" horiz-adv-x="677" 
d="M176 -10c-78 0 -141 65 -141 162v6c0 99 61 167 161 167c45 0 78 -9 109 -20v53c0 82 -41 127 -118 127c-40 0 -74 -10 -108 -29l-15 40c40 19 81 31 125 31c77 0 128 -34 146 -100c30 65 80 103 138 103c97 0 165 -100 165 -260v-28h-293c4 -138 72 -210 151 -210
c45 0 79 16 110 44l23 -34c-45 -34 -79 -51 -135 -51c-71 0 -130 41 -163 118c-29 -62 -79 -119 -155 -119zM345 281h249c-2 116 -48 208 -122 208c-68 0 -121 -76 -127 -208zM181 30c65 0 111 61 134 124c-9 37 -12 84 -12 111c-34 11 -67 20 -107 20
c-76 0 -116 -52 -116 -125v-6c0 -72 39 -124 101 -124z" />
    <glyph glyph-name="AEacute" unicode="&#x1fc;" horiz-adv-x="697" 
d="M385 749l73 109l51 -24l-88 -85h-36zM9 0l276 700h368v-43h-277v-283h250v-42h-250v-289h280v-43h-327v196h-195l-77 -196h-48zM151 238h178v420h-16z" />
    <glyph glyph-name="aeacute" unicode="&#x1fd;" horiz-adv-x="677" 
d="M317 582l71 127l51 -27l-90 -100h-32zM176 -10c-78 0 -141 65 -141 162v6c0 99 61 167 161 167c45 0 78 -9 109 -20v53c0 82 -41 127 -118 127c-40 0 -74 -10 -108 -29l-15 40c40 19 81 31 125 31c77 0 128 -34 146 -100c30 65 80 103 138 103c97 0 165 -100 165 -260
v-28h-293c4 -138 72 -210 151 -210c45 0 79 16 110 44l23 -34c-45 -34 -79 -51 -135 -51c-71 0 -130 41 -163 118c-29 -62 -79 -119 -155 -119zM345 281h249c-2 116 -48 208 -122 208c-68 0 -121 -76 -127 -208zM181 30c65 0 111 61 134 124c-9 37 -12 84 -12 111
c-34 11 -67 20 -107 20c-76 0 -116 -52 -116 -125v-6c0 -72 39 -124 101 -124z" />
    <glyph glyph-name="Agrave" unicode="&#xc0;" horiz-adv-x="543" 
d="M34 0l213 704h49l213 -704h-49l-58 196h-263l-58 -196h-47zM152 239h237l-118 400zM291 755h-36l-88 85l51 24z" />
    <glyph glyph-name="agrave" unicode="&#xe0;" horiz-adv-x="411" 
d="M177 -10c-78 0 -142 65 -142 162v6c0 99 62 167 162 167c46 0 81 -9 112 -20v53c0 82 -43 127 -118 127c-42 0 -84 -15 -111 -33l-16 38c38 21 83 37 131 37c47 0 86 -14 115 -43c26 -25 43 -68 43 -122v-362h-44v79c-25 -52 -68 -89 -132 -89zM182 30
c74 0 127 66 127 142v91c-32 13 -67 22 -110 22c-78 0 -119 -52 -119 -125v-6c0 -72 40 -124 102 -124zM192 582l-90 100l51 27l71 -127h-32z" />
    <glyph glyph-name="agrave.alt" horiz-adv-x="458" 
d="M207 -9c-85 0 -165 88 -165 262v14c0 173 80 263 165 263c72 0 116 -51 143 -113v104h44v-521h-44v105c-27 -62 -72 -114 -143 -114zM212 31c73 0 141 83 141 221v18c0 138 -68 220 -141 220c-69 0 -125 -75 -125 -223v-12c0 -147 57 -224 125 -224zM220 582l-90 100
l51 27l71 -127h-32z" />
    <glyph glyph-name="Amacron" unicode="&#x100;" horiz-adv-x="543" 
d="M34 0l213 704h49l213 -704h-49l-58 196h-263l-58 -196h-47zM152 239h237l-118 400zM154 772v43h234v-43h-234z" />
    <glyph glyph-name="amacron" unicode="&#x101;" horiz-adv-x="411" 
d="M177 -10c-78 0 -142 65 -142 162v6c0 99 62 167 162 167c46 0 81 -9 112 -20v53c0 82 -43 127 -118 127c-42 0 -84 -15 -111 -33l-16 38c38 21 83 37 131 37c47 0 86 -14 115 -43c26 -25 43 -68 43 -122v-362h-44v79c-25 -52 -68 -89 -132 -89zM182 30
c74 0 127 66 127 142v91c-32 13 -67 22 -110 22c-78 0 -119 -52 -119 -125v-6c0 -72 40 -124 102 -124zM98 598v41h214v-41h-214z" />
    <glyph glyph-name="amacron.alt" horiz-adv-x="458" 
d="M207 -9c-85 0 -165 88 -165 262v14c0 173 80 263 165 263c72 0 116 -51 143 -113v104h44v-521h-44v105c-27 -62 -72 -114 -143 -114zM212 31c73 0 141 83 141 221v18c0 138 -68 220 -141 220c-69 0 -125 -75 -125 -223v-12c0 -147 57 -224 125 -224zM127 598v41h214v-41
h-214z" />
    <glyph glyph-name="Aogonek" unicode="&#x104;" horiz-adv-x="543" 
d="M513 -99v-33c-8 -1 -10 -1 -14 -1c-56 1 -80 24 -80 57c0 26 15 49 42 76h-1l-58 196h-263l-58 -196h-47l213 704h49l213 -704h-12c-25 -29 -36 -47 -36 -66c0 -22 15 -31 52 -33zM152 239h237l-118 400z" />
    <glyph glyph-name="aogonek" unicode="&#x105;" horiz-adv-x="411" 
d="M361 -99v-33c-8 -1 -10 -1 -14 -1c-56 1 -80 24 -80 57c0 26 15 49 42 76v79c-25 -52 -68 -89 -132 -89c-78 0 -142 65 -142 162v6c0 99 62 167 162 167c46 0 81 -9 112 -20v53c0 82 -43 127 -118 127c-42 0 -84 -15 -111 -33l-16 38c38 21 83 37 131 37
c47 0 86 -14 115 -43c26 -25 43 -68 43 -122v-362h-8c-25 -29 -36 -47 -36 -66c0 -22 15 -31 52 -33zM182 30c74 0 127 66 127 142v91c-32 13 -67 22 -110 22c-78 0 -119 -52 -119 -125v-6c0 -72 40 -124 102 -124z" />
    <glyph glyph-name="aogonek.alt" horiz-adv-x="458" 
d="M403 -99v-33c-8 -1 -10 -1 -14 -1c-56 1 -80 24 -80 57c0 26 15 49 42 76h-1v105c-27 -62 -72 -114 -143 -114c-85 0 -165 88 -165 262v14c0 173 80 263 165 263c72 0 116 -51 143 -113v104h44v-521h-7c-25 -29 -36 -47 -36 -66c0 -22 15 -31 52 -33zM212 31
c73 0 141 83 141 221v18c0 138 -68 220 -141 220c-69 0 -125 -75 -125 -223v-12c0 -147 57 -224 125 -224z" />
    <glyph glyph-name="Aring" unicode="&#xc5;" horiz-adv-x="543" 
d="M34 0l202 666c-32 12 -54 40 -54 75c0 47 41 82 90 82c48 0 87 -35 87 -82c0 -34 -22 -62 -52 -74l202 -667h-49l-58 196h-263l-58 -196h-47zM152 238h237l-118 401zM271 689c31 0 55 22 55 52s-24 53 -55 53c-32 0 -55 -23 -55 -53s23 -52 55 -52z" />
    <glyph glyph-name="aring" unicode="&#xe5;" horiz-adv-x="411" 
d="M177 -10c-78 0 -142 65 -142 162v6c0 99 62 167 162 167c46 0 81 -9 112 -20v53c0 82 -43 127 -118 127c-42 0 -84 -15 -111 -33l-16 38c38 21 83 37 131 37c47 0 86 -14 115 -43c26 -25 43 -68 43 -122v-362h-44v79c-25 -52 -68 -89 -132 -89zM182 30
c74 0 127 66 127 142v91c-32 13 -67 22 -110 22c-78 0 -119 -52 -119 -125v-6c0 -72 40 -124 102 -124zM204 582c-48 0 -85 38 -85 85s38 85 87 85c48 0 85 -38 85 -85s-38 -85 -87 -85zM205 609c32 0 56 25 56 58c0 32 -24 58 -56 58s-56 -26 -56 -58c0 -33 24 -58 56 -58z
" />
    <glyph glyph-name="aring.alt" horiz-adv-x="458" 
d="M233 582c-48 0 -85 38 -85 85s38 85 87 85c48 0 85 -38 85 -85s-38 -85 -87 -85zM234 609c32 0 56 25 56 58c0 32 -24 58 -56 58s-56 -26 -56 -58c0 -33 24 -58 56 -58zM207 -9c-85 0 -165 88 -165 262v14c0 173 80 263 165 263c72 0 116 -51 143 -113v104h44v-521h-44
v105c-27 -62 -72 -114 -143 -114zM212 31c73 0 141 83 141 221v18c0 138 -68 220 -141 220c-69 0 -125 -75 -125 -223v-12c0 -147 57 -224 125 -224z" />
    <glyph glyph-name="aring.alt2" horiz-adv-x="411" 
d="M177 -10c-78 0 -142 65 -142 162v6c0 99 62 167 162 167c46 0 81 -9 112 -20v53c0 82 -43 127 -118 127c-42 0 -84 -15 -111 -33l-16 38c24 13 52 25 82 32c-18 16 -28 38 -28 63c0 47 38 85 87 85c48 0 85 -38 85 -85c0 -28 -13 -52 -34 -67c21 -7 38 -18 54 -34
c26 -25 43 -68 43 -122v-362h-44v79c-25 -52 -68 -89 -132 -89zM182 30c74 0 127 66 127 142v91c-32 13 -67 22 -110 22c-78 0 -119 -52 -119 -125v-6c0 -72 40 -124 102 -124zM204 527c32 0 56 25 56 58c0 32 -24 58 -56 58s-56 -26 -56 -58c0 -33 24 -58 56 -58z" />
    <glyph glyph-name="Aringacute" unicode="&#x1fa;" horiz-adv-x="543" 
d="M34 0l202 666c-32 12 -54 40 -54 75c0 47 41 82 90 82c48 0 87 -35 87 -82c0 -34 -22 -62 -52 -74l202 -667h-49l-58 196h-263l-58 -196h-47zM152 238h237l-118 401zM271 689c31 0 55 22 55 52s-24 53 -55 53c-32 0 -55 -23 -55 -53s23 -52 55 -52zM251 847l74 92l49 -23
l-85 -69h-38z" />
    <glyph glyph-name="aringacute" unicode="&#x1fb;" horiz-adv-x="411" 
d="M185 782l73 105l48 -25l-86 -80h-35zM177 -10c-78 0 -142 65 -142 162v6c0 99 62 167 162 167c46 0 81 -9 112 -20v53c0 82 -43 127 -118 127c-42 0 -84 -15 -111 -33l-16 38c38 21 83 37 131 37c47 0 86 -14 115 -43c26 -25 43 -68 43 -122v-362h-44v79
c-25 -52 -68 -89 -132 -89zM182 30c74 0 127 66 127 142v91c-32 13 -67 22 -110 22c-78 0 -119 -52 -119 -125v-6c0 -72 40 -124 102 -124zM204 582c-48 0 -85 38 -85 85s38 85 87 85c48 0 85 -38 85 -85s-38 -85 -87 -85zM205 609c32 0 56 25 56 58c0 32 -24 58 -56 58
s-56 -26 -56 -58c0 -33 24 -58 56 -58z" />
    <glyph glyph-name="aringacute.alt" horiz-adv-x="458" 
d="M213 782l74 105l47 -25l-86 -80h-35zM233 582c-48 0 -85 38 -85 85s38 85 87 85c48 0 85 -38 85 -85s-38 -85 -87 -85zM234 609c32 0 56 25 56 58c0 32 -24 58 -56 58s-56 -26 -56 -58c0 -33 24 -58 56 -58zM207 -9c-85 0 -165 88 -165 262v14c0 173 80 263 165 263
c72 0 116 -51 143 -113v104h44v-521h-44v105c-27 -62 -72 -114 -143 -114zM212 31c73 0 141 83 141 221v18c0 138 -68 220 -141 220c-69 0 -125 -75 -125 -223v-12c0 -147 57 -224 125 -224z" />
    <glyph glyph-name="aringacute.alt2" horiz-adv-x="411" 
d="M185 693l73 105l48 -25l-86 -80h-35zM177 -10c-78 0 -142 65 -142 162v6c0 99 62 167 162 167c46 0 81 -9 112 -20v53c0 82 -43 127 -118 127c-42 0 -84 -15 -111 -33l-16 38c24 13 52 25 82 32c-18 16 -28 38 -28 63c0 47 38 85 87 85c48 0 85 -38 85 -85
c0 -28 -13 -52 -34 -67c21 -7 38 -18 54 -34c26 -25 43 -68 43 -122v-362h-44v79c-25 -52 -68 -89 -132 -89zM182 30c74 0 127 66 127 142v91c-32 13 -67 22 -110 22c-78 0 -119 -52 -119 -125v-6c0 -72 40 -124 102 -124zM204 527c32 0 56 25 56 58c0 32 -24 58 -56 58
s-56 -26 -56 -58c0 -33 24 -58 56 -58z" />
    <glyph glyph-name="Atilde" unicode="&#xc3;" horiz-adv-x="543" 
d="M34 0l213 704h49l213 -704h-49l-58 196h-263l-58 -196h-47zM152 239h237l-118 400zM326 756c-22 0 -37 9 -59 21c-19 11 -32 18 -43 18c-17 0 -26 -13 -36 -39l-34 8c15 47 36 73 66 73c21 0 37 -8 58 -21c20 -11 33 -17 43 -17c17 0 26 12 37 38l33 -8
c-15 -47 -35 -73 -65 -73z" />
    <glyph glyph-name="atilde" unicode="&#xe3;" horiz-adv-x="411" 
d="M177 -10c-78 0 -142 65 -142 162v6c0 99 62 167 162 167c46 0 81 -9 112 -20v53c0 82 -43 127 -118 127c-42 0 -84 -15 -111 -33l-16 38c38 21 83 37 131 37c47 0 86 -14 115 -43c26 -25 43 -68 43 -122v-362h-44v79c-25 -52 -68 -89 -132 -89zM182 30
c74 0 127 66 127 142v91c-32 13 -67 22 -110 22c-78 0 -119 -52 -119 -125v-6c0 -72 40 -124 102 -124zM257 583c-21 0 -35 9 -55 24c-19 16 -31 23 -42 23c-15 0 -24 -15 -34 -47l-32 8c15 56 34 81 63 81c21 0 35 -9 55 -25c19 -15 31 -22 42 -22c15 0 24 15 34 46l32 -8
c-15 -56 -34 -80 -63 -80z" />
    <glyph glyph-name="atilde.alt" horiz-adv-x="458" 
d="M207 -9c-85 0 -165 88 -165 262v14c0 173 80 263 165 263c72 0 116 -51 143 -113v104h44v-521h-44v105c-27 -62 -72 -114 -143 -114zM212 31c73 0 141 83 141 221v18c0 138 -68 220 -141 220c-69 0 -125 -75 -125 -223v-12c0 -147 57 -224 125 -224zM286 583
c-21 0 -35 9 -55 24c-19 16 -31 23 -42 23c-15 0 -24 -15 -34 -47l-32 8c15 56 34 81 63 81c21 0 35 -9 55 -25c19 -15 31 -22 42 -22c15 0 24 15 34 46l32 -8c-15 -56 -34 -80 -63 -80z" />
    <glyph glyph-name="Cacute" unicode="&#x106;" horiz-adv-x="472" 
d="M293 -7c-136 0 -243 124 -243 352v9c0 225 112 353 249 353c59 0 104 -23 139 -54l-26 -37c-31 28 -70 47 -115 47c-111 0 -200 -121 -200 -309v-7c0 -191 87 -310 199 -310c45 0 86 21 119 51l26 -35c-37 -34 -87 -60 -148 -60zM260 755l73 109l51 -24l-88 -85h-36z" />
    <glyph glyph-name="cacute" unicode="&#x107;" horiz-adv-x="365" 
d="M197 582l71 127l51 -27l-90 -100h-32zM226 -9c-105 0 -186 89 -186 262v10c0 174 88 267 189 267c46 0 82 -20 109 -45l-24 -35c-21 19 -50 39 -88 39c-72 0 -141 -82 -141 -227v-9c0 -152 74 -222 142 -221c35 1 62 17 86 40l26 -31c-22 -24 -60 -50 -113 -50z" />
    <glyph glyph-name="Ccaron" unicode="&#x10c;" horiz-adv-x="472" 
d="M293 -7c-136 0 -243 124 -243 352v9c0 225 112 353 249 353c59 0 104 -23 139 -54l-26 -37c-31 28 -70 47 -115 47c-111 0 -200 -121 -200 -309v-7c0 -191 87 -310 199 -310c45 0 86 21 119 51l26 -35c-37 -34 -87 -60 -148 -60zM383 859l-83 -101h-42l-83 101h46l59 -60
l59 60h44z" />
    <glyph glyph-name="ccaron" unicode="&#x10d;" horiz-adv-x="365" 
d="M311 707l-76 -122h-36l-76 122h39l56 -73l56 73h37zM226 -9c-105 0 -186 89 -186 262v10c0 174 88 267 189 267c46 0 82 -20 109 -45l-24 -35c-21 19 -50 39 -88 39c-72 0 -141 -82 -141 -227v-9c0 -152 74 -222 142 -221c35 1 62 17 86 40l26 -31
c-22 -24 -60 -50 -113 -50z" />
    <glyph glyph-name="Ccedilla" unicode="&#xc7;" horiz-adv-x="472" 
d="M245 -121l-49 21l59 96c-117 21 -205 142 -205 349v9c0 225 112 353 249 353c59 0 104 -23 139 -54l-26 -37c-31 28 -70 47 -115 47c-111 0 -200 -121 -200 -309v-7c0 -191 87 -310 199 -310c45 0 86 21 119 51l26 -35c-37 -34 -87 -60 -148 -60h-1z" />
    <glyph glyph-name="ccedilla" unicode="&#xe7;" horiz-adv-x="365" 
d="M181 -121l-49 21l58 95c-87 18 -150 105 -150 258v10c0 174 88 267 189 267c46 0 82 -20 109 -45l-24 -35c-21 19 -50 39 -88 39c-72 0 -141 -82 -141 -227v-9c0 -152 74 -222 142 -221c35 1 62 17 86 40l26 -31c-22 -24 -60 -49 -112 -50z" />
    <glyph glyph-name="Cdotaccent" unicode="&#x10a;" horiz-adv-x="472" 
d="M249 761v68h60v-68h-60zM293 -7c-136 0 -243 124 -243 352v9c0 225 112 353 249 353c59 0 104 -23 139 -54l-26 -37c-31 28 -70 47 -115 47c-111 0 -200 -121 -200 -309v-7c0 -191 87 -310 199 -310c45 0 86 21 119 51l26 -35c-37 -34 -87 -60 -148 -60z" />
    <glyph glyph-name="cdotaccent" unicode="&#x10b;" horiz-adv-x="365" 
d="M226 -9c-105 0 -186 89 -186 262v10c0 174 88 267 189 267c46 0 82 -20 109 -45l-24 -35c-21 19 -50 39 -88 39c-72 0 -141 -82 -141 -227v-9c0 -152 74 -222 142 -221c35 1 62 17 86 40l26 -31c-22 -24 -60 -50 -113 -50zM189 589v71h56v-71h-56z" />
    <glyph glyph-name="Dcaron" unicode="&#x10e;" horiz-adv-x="534" 
d="M73 0v700h135c162 0 276 -129 276 -343v-13c0 -214 -114 -344 -276 -344h-135zM204 657h-84v-614h85c138 0 232 113 232 300v13c0 187 -95 301 -233 301zM360 853l-83 -101h-42l-83 101h46l59 -60l59 60h44z" />
    <glyph glyph-name="dcaron" unicode="&#x10f;" horiz-adv-x="458" 
d="M438 566l10 149h44v-3l-32 -146h-22zM207 -9c-85 0 -165 88 -165 262v14c0 173 80 263 165 263c72 0 116 -51 143 -113v297h44v-714h-44v105c-27 -62 -72 -114 -143 -114zM212 31c73 0 141 83 141 221v18c0 138 -68 220 -141 220c-69 0 -125 -75 -125 -223v-12
c0 -147 57 -224 125 -224z" />
    <glyph glyph-name="Dcroat" unicode="&#x110;" horiz-adv-x="548" 
d="M87 0v331h-62v42h62v327h136c161 0 276 -129 276 -343v-13c0 -214 -115 -344 -276 -344h-136zM272 331h-138v-288h89c137 0 228 113 228 300v13c0 187 -93 301 -229 301h-88v-284h138v-42z" />
    <glyph glyph-name="dcroat" unicode="&#x111;" horiz-adv-x="458" 
d="M221 605v38h129v71h44v-71h54v-38h-54v-605h-44v105c-28 -62 -72 -114 -139 -114c-87 0 -169 94 -169 262v14c0 167 82 263 169 263c67 0 112 -52 139 -113v188h-129zM216 31c68 0 136 82 136 220v18c0 139 -68 221 -136 221c-71 0 -129 -81 -129 -223v-13
c0 -141 59 -223 129 -223z" />
    <glyph glyph-name="Eacute" unicode="&#xc9;" horiz-adv-x="446" 
d="M220 749l73 109l51 -24l-88 -85h-36zM73 0v700h329v-43h-282v-282h255v-43h-255v-289h286v-43h-333z" />
    <glyph glyph-name="eacute" unicode="&#xe9;" horiz-adv-x="416" 
d="M234 -9c-107 0 -194 92 -194 262v7c0 171 78 270 172 270c100 0 165 -99 165 -260v-28h-293c4 -137 73 -210 154 -210c42 0 76 16 107 44l23 -34c-39 -33 -80 -51 -134 -51zM84 281h249c-2 115 -47 208 -121 208c-68 0 -122 -77 -128 -208zM193 582l71 127l51 -27
l-90 -100h-32z" />
    <glyph glyph-name="Ebreve" unicode="&#x114;" horiz-adv-x="446" 
d="M240 750c-58 0 -101 30 -108 86h40c9 -28 31 -43 68 -43s59 15 68 43h40c-7 -56 -50 -86 -108 -86zM73 0v700h329v-43h-282v-282h255v-43h-255v-289h286v-43h-333z" />
    <glyph glyph-name="ebreve" unicode="&#x115;" horiz-adv-x="416" 
d="M234 -9c-107 0 -194 92 -194 262v7c0 171 78 270 172 270c100 0 165 -99 165 -260v-28h-293c4 -137 73 -210 154 -210c42 0 76 16 107 44l23 -34c-39 -33 -80 -51 -134 -51zM84 281h249c-2 115 -47 208 -121 208c-68 0 -122 -77 -128 -208zM212 583c-57 0 -99 33 -105 99
h37c9 -37 30 -57 68 -57s59 20 68 57h37c-6 -66 -48 -99 -105 -99z" />
    <glyph glyph-name="Ecaron" unicode="&#x11a;" horiz-adv-x="446" 
d="M344 853l-83 -101h-42l-83 101h46l59 -60l59 60h44zM73 0v700h329v-43h-282v-282h255v-43h-255v-289h286v-43h-333z" />
    <glyph glyph-name="ecaron" unicode="&#x11b;" horiz-adv-x="416" 
d="M234 -9c-107 0 -194 92 -194 262v7c0 171 78 270 172 270c100 0 165 -99 165 -260v-28h-293c4 -137 73 -210 154 -210c42 0 76 16 107 44l23 -34c-39 -33 -80 -51 -134 -51zM84 281h249c-2 115 -47 208 -121 208c-68 0 -122 -77 -128 -208zM306 707l-76 -122h-36l-76 122
h39l56 -73l56 73h37z" />
    <glyph glyph-name="Ecircumflex" unicode="&#xca;" horiz-adv-x="446" 
d="M73 0v700h329v-43h-282v-282h255v-43h-255v-289h286v-43h-333zM136 752l83 101h42l83 -101h-46l-59 59l-59 -59h-44z" />
    <glyph glyph-name="ecircumflex" unicode="&#xea;" horiz-adv-x="416" 
d="M234 -9c-107 0 -194 92 -194 262v7c0 171 78 270 172 270c100 0 165 -99 165 -260v-28h-293c4 -137 73 -210 154 -210c42 0 76 16 107 44l23 -34c-39 -33 -80 -51 -134 -51zM84 281h249c-2 115 -47 208 -121 208c-68 0 -122 -77 -128 -208zM118 585l76 122h36l76 -122
h-39l-56 73l-56 -73h-37z" />
    <glyph glyph-name="Edieresis" unicode="&#xcb;" horiz-adv-x="446" 
d="M275 755v68h58v-68h-58zM146 755v68h59v-68h-59zM73 0v700h329v-43h-282v-282h255v-43h-255v-289h286v-43h-333z" />
    <glyph glyph-name="edieresis" unicode="&#xeb;" horiz-adv-x="416" 
d="M234 -9c-107 0 -194 92 -194 262v7c0 171 78 270 172 270c100 0 165 -99 165 -260v-28h-293c4 -137 73 -210 154 -210c42 0 76 16 107 44l23 -34c-39 -33 -80 -51 -134 -51zM84 281h249c-2 115 -47 208 -121 208c-68 0 -122 -77 -128 -208zM245 589v70h52v-70h-52z
M127 589v70h52v-70h-52z" />
    <glyph glyph-name="Edotaccent" unicode="&#x116;" horiz-adv-x="446" 
d="M210 755v68h60v-68h-60zM73 0v700h329v-43h-282v-282h255v-43h-255v-289h286v-43h-333z" />
    <glyph glyph-name="edotaccent" unicode="&#x117;" horiz-adv-x="416" 
d="M234 -9c-107 0 -194 92 -194 262v7c0 171 78 270 172 270c100 0 165 -99 165 -260v-28h-293c4 -137 73 -210 154 -210c42 0 76 16 107 44l23 -34c-39 -33 -80 -51 -134 -51zM84 281h249c-2 115 -47 208 -121 208c-68 0 -122 -77 -128 -208zM184 589v71h56v-71h-56z" />
    <glyph glyph-name="Egrave" unicode="&#xc8;" horiz-adv-x="446" 
d="M259 749h-36l-88 85l51 24zM73 0v700h329v-43h-282v-282h255v-43h-255v-289h286v-43h-333z" />
    <glyph glyph-name="egrave" unicode="&#xe8;" horiz-adv-x="416" 
d="M234 -9c-107 0 -194 92 -194 262v7c0 171 78 270 172 270c100 0 165 -99 165 -260v-28h-293c4 -137 73 -210 154 -210c42 0 76 16 107 44l23 -34c-39 -33 -80 -51 -134 -51zM84 281h249c-2 115 -47 208 -121 208c-68 0 -122 -77 -128 -208zM199 582l-90 100l51 27
l71 -127h-32z" />
    <glyph glyph-name="Emacron" unicode="&#x112;" horiz-adv-x="446" 
d="M123 766v43h234v-43h-234zM73 0v700h329v-43h-282v-282h255v-43h-255v-289h286v-43h-333z" />
    <glyph glyph-name="emacron" unicode="&#x113;" horiz-adv-x="416" 
d="M234 -9c-107 0 -194 92 -194 262v7c0 171 78 270 172 270c100 0 165 -99 165 -260v-28h-293c4 -137 73 -210 154 -210c42 0 76 16 107 44l23 -34c-39 -33 -80 -51 -134 -51zM84 281h249c-2 115 -47 208 -121 208c-68 0 -122 -77 -128 -208zM105 598v41h214v-41h-214z" />
    <glyph glyph-name="Eogonek" unicode="&#x118;" horiz-adv-x="446" 
d="M73 0v700h329v-43h-282v-282h255v-43h-255v-289h286v-43h-18c-25 -29 -36 -47 -36 -66c0 -22 15 -31 52 -33v-33c-8 -1 -10 -1 -14 -1c-56 1 -80 24 -80 57c0 26 15 49 42 76h-279z" />
    <glyph glyph-name="eogonek" unicode="&#x119;" horiz-adv-x="416" 
d="M345 76l23 -34l-30 -29c-3 -3 -49 -47 -49 -79c0 -22 15 -31 52 -33v-33c-8 -1 -10 -1 -14 -1c-56 1 -80 24 -80 57c0 25 14 47 41 74c-18 -5 -35 -7 -54 -7c-107 0 -194 92 -194 262v7c0 171 78 270 172 270c100 0 165 -99 165 -260v-28h-293c4 -137 73 -210 154 -210
c42 0 76 16 107 44zM84 281h249c-2 115 -47 208 -121 208c-68 0 -122 -77 -128 -208z" />
    <glyph glyph-name="Eth" unicode="&#xd0;" horiz-adv-x="548" 
d="M87 0v331h-62v42h62v327h136c161 0 276 -129 276 -343v-13c0 -214 -115 -344 -276 -344h-136zM272 331h-138v-288h89c137 0 228 113 228 300v13c0 187 -93 301 -229 301h-88v-284h138v-42z" />
    <glyph glyph-name="eth" unicode="&#xf0;" horiz-adv-x="442" 
d="M339 684l-73 -42c83 -109 135 -228 135 -359v-11c0 -182 -82 -281 -182 -281c-96 0 -179 105 -179 266v7c0 162 84 262 172 262c48 0 85 -25 116 -63c-19 50 -52 104 -96 159l-83 -48l-20 32l78 45c-18 21 -39 42 -60 63h59c13 -14 25 -28 37 -42l76 44zM221 32
c74 0 135 88 135 225v7c0 141 -65 222 -140 222c-73 0 -131 -90 -131 -223v-7c0 -132 61 -224 136 -224z" />
    <glyph glyph-name="Gbreve" unicode="&#x11e;" horiz-adv-x="530" 
d="M289 756c-58 0 -101 30 -108 86h40c9 -28 31 -43 68 -43s59 15 68 43h40c-7 -56 -50 -86 -108 -86zM310 -7c-159 0 -260 132 -260 351v11c0 216 110 352 259 352c61 0 105 -15 151 -51l-27 -40c-33 30 -74 47 -124 47c-117 0 -212 -116 -212 -309v-7
c0 -196 88 -311 216 -311c42 0 79 13 108 32v249h-149v43h194v-315c-37 -28 -94 -52 -156 -52z" />
    <glyph glyph-name="gbreve" unicode="&#x11f;" horiz-adv-x="458" 
d="M213 -141c-50 0 -101 13 -153 40l17 39c40 -23 92 -38 138 -38c84 0 135 44 135 133v110c-28 -61 -73 -112 -143 -112c-86 0 -165 86 -165 246v7c0 158 79 246 166 246c69 0 115 -51 142 -111v102h44v-487c0 -56 -16 -98 -45 -127c-32 -32 -78 -48 -136 -48zM213 71
c69 0 139 77 139 206v7c0 129 -70 206 -139 206s-126 -72 -126 -207v-5c0 -134 57 -207 126 -207zM234 583c-57 0 -99 33 -105 99h37c9 -37 30 -57 68 -57s59 20 68 57h37c-6 -66 -48 -99 -105 -99z" />
    <glyph glyph-name="Gcommaaccent" unicode="&#x122;" horiz-adv-x="530" 
d="M258 -200l-10 20c28 11 38 26 36 53h-24v62h56v-56c0 -42 -17 -64 -58 -79zM310 -7c-159 0 -260 132 -260 351v11c0 216 110 352 259 352c61 0 105 -15 151 -51l-27 -40c-33 30 -74 47 -124 47c-117 0 -212 -116 -212 -309v-7c0 -196 88 -311 216 -311c42 0 79 13 108 32
v249h-149v43h194v-315c-37 -28 -94 -52 -156 -52z" />
    <glyph glyph-name="gcommaaccent" unicode="&#x123;" horiz-adv-x="458" 
d="M262 733l10 -20c-28 -11 -38 -26 -36 -53h24v-62h-56v56c0 42 17 64 58 79zM213 -141c-50 0 -101 13 -153 40l17 39c40 -23 92 -38 138 -38c84 0 135 44 135 133v110c-28 -61 -73 -112 -143 -112c-86 0 -165 86 -165 246v7c0 158 79 246 166 246c69 0 115 -51 142 -111
v102h44v-487c0 -56 -16 -98 -45 -127c-32 -32 -78 -48 -136 -48zM213 71c69 0 139 77 139 206v7c0 129 -70 206 -139 206s-126 -72 -126 -207v-5c0 -134 57 -207 126 -207z" />
    <glyph glyph-name="Gdotaccent" unicode="&#x120;" horiz-adv-x="530" 
d="M259 761v68h60v-68h-60zM310 -7c-159 0 -260 132 -260 351v11c0 216 110 352 259 352c61 0 105 -15 151 -51l-27 -40c-33 30 -74 47 -124 47c-117 0 -212 -116 -212 -309v-7c0 -196 88 -311 216 -311c42 0 79 13 108 32v249h-149v43h194v-315c-37 -28 -94 -52 -156 -52z
" />
    <glyph glyph-name="gdotaccent" unicode="&#x121;" horiz-adv-x="458" 
d="M213 -141c-50 0 -101 13 -153 40l17 39c40 -23 92 -38 138 -38c84 0 135 44 135 133v110c-28 -61 -73 -112 -143 -112c-86 0 -165 86 -165 246v7c0 158 79 246 166 246c69 0 115 -51 142 -111v102h44v-487c0 -56 -16 -98 -45 -127c-32 -32 -78 -48 -136 -48zM213 71
c69 0 139 77 139 206v7c0 129 -70 206 -139 206s-126 -72 -126 -207v-5c0 -134 57 -207 126 -207zM206 589v71h56v-71h-56z" />
    <glyph glyph-name="Hbar" unicode="&#x126;" horiz-adv-x="565" 
d="M25 539v40h62v121h47v-121h297v121h47v-121h62v-40h-62v-539h-47v329h-297v-329h-47v539h-62zM134 372h297v168h-297v-168z" />
    <glyph glyph-name="hbar" unicode="&#x127;" horiz-adv-x="442" 
d="M238 605h-129v-167c22 49 62 92 130 92c87 0 144 -68 144 -179v-351h-44v346c0 92 -39 145 -108 145s-122 -62 -122 -153v-338h-44v605h-55v38h55v71h44v-71h129v-38z" />
    <glyph glyph-name="Iacute" unicode="&#xcd;" horiz-adv-x="206" 
d="M80 0v700h47v-700h-47zM85 749l73 109l51 -24l-88 -85h-36z" />
    <glyph glyph-name="iacute" unicode="&#xed;" horiz-adv-x="186" 
d="M75 582l71 127l51 -27l-90 -100h-32zM71 0v521h44v-521h-44z" />
    <glyph glyph-name="Ibreve" unicode="&#x12c;" horiz-adv-x="206" 
d="M80 0v700h47v-700h-47zM104 750c-58 0 -101 30 -108 86h40c9 -28 31 -43 68 -43s59 15 68 43h40c-7 -56 -50 -86 -108 -86z" />
    <glyph glyph-name="ibreve" unicode="&#x12d;" horiz-adv-x="186" 
d="M71 0v521h44v-521h-44zM93 583c-57 0 -99 33 -105 99h37c9 -37 30 -57 68 -57s59 20 68 57h37c-6 -66 -48 -99 -105 -99z" />
    <glyph glyph-name="Icircumflex" unicode="&#xce;" horiz-adv-x="206" 
d="M80 0v700h47v-700h-47zM0 752l83 101h42l83 -101h-46l-59 59l-59 -59h-44z" />
    <glyph glyph-name="icircumflex" unicode="&#xee;" horiz-adv-x="186" 
d="M-1 585l76 122h36l76 -122h-39l-56 73l-56 -73h-37zM71 0v521h44v-521h-44z" />
    <glyph glyph-name="Idieresis" unicode="&#xcf;" horiz-adv-x="206" 
d="M80 0v700h47v-700h-47zM139 755v68h58v-68h-58zM10 755v68h59v-68h-59z" />
    <glyph glyph-name="idieresis" unicode="&#xef;" horiz-adv-x="186" 
d="M126 589v70h52v-70h-52zM8 589v70h52v-70h-52zM71 0v521h44v-521h-44z" />
    <glyph glyph-name="Idotaccent" unicode="&#x130;" horiz-adv-x="206" 
d="M80 0v700h47v-700h-47zM74 755v68h60v-68h-60z" />
    <glyph glyph-name="dotlessi" unicode="&#x131;" horiz-adv-x="186" 
d="M71 0v521h44v-521h-44z" />
    <glyph glyph-name="Igrave" unicode="&#xcc;" horiz-adv-x="206" 
d="M80 0v700h47v-700h-47zM122 749h-36l-88 85l51 24z" />
    <glyph glyph-name="igrave" unicode="&#xec;" horiz-adv-x="186" 
d="M71 0v521h44v-521h-44zM80 582l-90 100l51 27l71 -127h-32z" />
    <glyph glyph-name="Imacron" unicode="&#x12a;" horiz-adv-x="206" 
d="M80 0v700h47v-700h-47zM-13 766v43h234v-43h-234z" />
    <glyph glyph-name="imacron" unicode="&#x12b;" horiz-adv-x="186" 
d="M71 0v521h44v-521h-44zM-14 598v41h214v-41h-214z" />
    <glyph glyph-name="Iogonek" unicode="&#x12e;" horiz-adv-x="206" 
d="M80 0v700h47v-700h-7c-25 -29 -36 -47 -36 -66c0 -22 15 -31 52 -33v-33c-8 -1 -10 -1 -14 -1c-56 1 -80 24 -80 57c0 26 15 49 42 76h-4z" />
    <glyph glyph-name="iogonek" unicode="&#x12f;" horiz-adv-x="186" 
d="M71 0v521h44v-521h-5c-25 -29 -36 -47 -36 -66c0 -22 15 -31 52 -33v-33c-8 -1 -10 -1 -14 -1c-56 1 -80 24 -80 57c0 26 15 49 42 76h-3zM68 639v69h50v-69h-50z" />
    <glyph glyph-name="Kcommaaccent" unicode="&#x136;" horiz-adv-x="491" 
d="M220 -192l-10 20c28 11 38 26 36 53h-24v62h56v-56c0 -42 -17 -64 -58 -79zM73 0v700h47v-422l284 422h55l-214 -311l232 -389h-55l-206 346l-96 -139v-207h-47z" />
    <glyph glyph-name="kcommaaccent" unicode="&#x137;" horiz-adv-x="395" 
d="M175 -194l-10 20c28 11 38 26 36 53h-24v62h56v-56c0 -42 -17 -64 -58 -79zM65 0v714h44v-495l201 302h50l-148 -216l158 -305h-51l-135 264l-75 -108v-156h-44z" />
    <glyph glyph-name="Lacute" unicode="&#x139;" horiz-adv-x="401" 
d="M87 749l73 109l51 -24l-88 -85h-36zM73 0v700h47v-657h258v-43h-305z" />
    <glyph glyph-name="lacute" unicode="&#x13a;" horiz-adv-x="186" 
d="M76 755l73 109l51 -24l-88 -85h-36zM71 0v714h44v-714h-44z" />
    <glyph glyph-name="Lcaron" unicode="&#x13d;" horiz-adv-x="401" 
d="M181 551l10 149h44v-3l-32 -146h-22zM73 0v700h47v-657h258v-43h-305z" />
    <glyph glyph-name="lcaron" unicode="&#x13e;" horiz-adv-x="186" 
d="M160 566l10 149h44v-3l-32 -146h-22zM71 0v714h44v-714h-44z" />
    <glyph glyph-name="Lcommaaccent" unicode="&#x13b;" horiz-adv-x="401" 
d="M191 -197l-10 20c28 11 38 26 36 53h-24v62h56v-56c0 -42 -17 -64 -58 -79zM73 0v700h47v-657h258v-43h-305z" />
    <glyph glyph-name="lcommaaccent" unicode="&#x13c;" horiz-adv-x="186" 
d="M62 -197l-10 20c28 11 38 26 36 53h-24v62h56v-56c0 -42 -17 -64 -58 -79zM71 0v714h44v-714h-44z" />
    <glyph glyph-name="Ldot" unicode="&#x13f;" horiz-adv-x="401" 
d="M271 325v72h58v-72h-58zM73 0v700h47v-657h258v-43h-305z" />
    <glyph glyph-name="ldot" unicode="&#x140;" horiz-adv-x="237" 
d="M185 321v77h54v-77h-54zM71 0v714h44v-714h-44z" />
    <glyph glyph-name="Lslash" unicode="&#x141;" horiz-adv-x="416" 
d="M257 392l-123 -71v-278h258v-43h-305v294l-62 -37v50l62 37v356h47v-329l123 72v-51z" />
    <glyph glyph-name="lslash" unicode="&#x142;" horiz-adv-x="210" 
d="M191 393l-64 -41v-352h-44v324l-64 -40v50l64 39v341h44v-313l64 42v-50z" />
    <glyph glyph-name="Nacute" unicode="&#x143;" horiz-adv-x="550" 
d="M256 744l73 109l51 -24l-88 -85h-36zM73 0v700h47l312 -597v597h45v-700h-41l-318 611v-611h-45z" />
    <glyph glyph-name="nacute" unicode="&#x144;" horiz-adv-x="442" 
d="M204 582l71 127l51 -27l-90 -100h-32zM65 0v521h44v-83c22 49 63 92 132 92c84 0 142 -59 142 -174v-356h-44v340c0 103 -39 151 -108 151s-122 -62 -122 -153v-338h-44z" />
    <glyph glyph-name="Ncaron" unicode="&#x147;" horiz-adv-x="550" 
d="M378 848l-83 -101h-42l-83 101h46l59 -60l59 60h44zM73 0v700h47l312 -597v597h45v-700h-41l-318 611v-611h-45z" />
    <glyph glyph-name="ncaron" unicode="&#x148;" horiz-adv-x="442" 
d="M317 707l-76 -122h-36l-76 122h39l56 -73l56 73h37zM65 0v521h44v-83c22 49 63 92 132 92c84 0 142 -59 142 -174v-356h-44v340c0 103 -39 151 -108 151s-122 -62 -122 -153v-338h-44z" />
    <glyph glyph-name="Ncommaaccent" unicode="&#x145;" horiz-adv-x="550" 
d="M243 -192l-10 20c28 11 38 26 36 53h-24v62h56v-56c0 -42 -17 -64 -58 -79zM73 0v700h47l312 -597v597h45v-700h-41l-318 611v-611h-45z" />
    <glyph glyph-name="ncommaaccent" unicode="&#x146;" horiz-adv-x="442" 
d="M192 -194l-10 20c28 11 38 26 36 53h-24v62h56v-56c0 -42 -17 -64 -58 -79zM65 0v521h44v-83c22 49 63 92 132 92c84 0 142 -59 142 -174v-356h-44v340c0 103 -39 151 -108 151s-122 -62 -122 -153v-338h-44z" />
    <glyph glyph-name="Ntilde" unicode="&#xd1;" horiz-adv-x="550" 
d="M330 745c-22 0 -37 9 -59 21c-19 11 -32 18 -43 18c-17 0 -26 -13 -36 -39l-34 8c15 47 36 73 66 73c21 0 37 -8 58 -21c20 -11 33 -17 43 -17c17 0 26 12 37 38l33 -8c-15 -47 -35 -73 -65 -73zM73 0v700h47l312 -597v597h45v-700h-41l-318 611v-611h-45z" />
    <glyph glyph-name="ntilde" unicode="&#xf1;" horiz-adv-x="442" 
d="M65 0v521h44v-83c22 49 63 92 132 92c84 0 142 -59 142 -174v-356h-44v340c0 103 -39 151 -108 151s-122 -62 -122 -153v-338h-44zM276 583c-21 0 -35 9 -55 24c-19 16 -31 23 -42 23c-15 0 -24 -15 -34 -47l-32 8c15 56 34 81 63 81c21 0 35 -9 55 -25
c19 -15 31 -22 42 -22c15 0 24 15 34 46l32 -8c-15 -56 -34 -80 -63 -80z" />
    <glyph glyph-name="Oacute" unicode="&#xd3;" horiz-adv-x="561" 
d="M261 755l73 109l51 -24l-88 -85h-36zM281 -9c-135 0 -231 135 -231 353v12c0 218 96 353 231 353s231 -135 231 -353v-12c0 -218 -96 -353 -231 -353zM281 35c104 0 183 120 183 309v12c0 189 -79 309 -183 309s-183 -120 -183 -309v-12c0 -189 79 -309 183 -309z" />
    <glyph glyph-name="oacute" unicode="&#xf3;" horiz-adv-x="443" 
d="M202 582l71 127l51 -27l-90 -100h-32zM221 -9c-105 0 -181 109 -181 266v7c0 156 77 266 182 266s181 -109 181 -266v-7c0 -156 -77 -266 -182 -266zM222 32c75 0 136 92 136 225v7c0 133 -63 225 -137 225c-75 0 -136 -92 -136 -225v-7c0 -134 62 -225 137 -225z" />
    <glyph glyph-name="Obreve" unicode="&#x14e;" horiz-adv-x="561" 
d="M280 756c-58 0 -101 30 -108 86h40c9 -28 31 -43 68 -43s59 15 68 43h40c-7 -56 -50 -86 -108 -86zM281 -9c-135 0 -231 135 -231 353v12c0 218 96 353 231 353s231 -135 231 -353v-12c0 -218 -96 -353 -231 -353zM281 35c104 0 183 120 183 309v12
c0 189 -79 309 -183 309s-183 -120 -183 -309v-12c0 -189 79 -309 183 -309z" />
    <glyph glyph-name="obreve" unicode="&#x14f;" horiz-adv-x="443" 
d="M221 -9c-105 0 -181 109 -181 266v7c0 156 77 266 182 266s181 -109 181 -266v-7c0 -156 -77 -266 -182 -266zM222 32c75 0 136 92 136 225v7c0 133 -63 225 -137 225c-75 0 -136 -92 -136 -225v-7c0 -134 62 -225 137 -225zM222 583c-57 0 -99 33 -105 99h37
c9 -37 30 -57 68 -57s59 20 68 57h37c-6 -66 -48 -99 -105 -99z" />
    <glyph glyph-name="Ocircumflex" unicode="&#xd4;" horiz-adv-x="561" 
d="M281 -9c-135 0 -231 135 -231 353v12c0 218 96 353 231 353s231 -135 231 -353v-12c0 -218 -96 -353 -231 -353zM281 35c104 0 183 120 183 309v12c0 189 -79 309 -183 309s-183 -120 -183 -309v-12c0 -189 79 -309 183 -309zM176 758l83 101h42l83 -101h-46l-59 59
l-59 -59h-44z" />
    <glyph glyph-name="ocircumflex" unicode="&#xf4;" horiz-adv-x="443" 
d="M128 585l76 122h36l76 -122h-39l-56 73l-56 -73h-37zM221 -9c-105 0 -181 109 -181 266v7c0 156 77 266 182 266s181 -109 181 -266v-7c0 -156 -77 -266 -182 -266zM222 32c75 0 136 92 136 225v7c0 133 -63 225 -137 225c-75 0 -136 -92 -136 -225v-7
c0 -134 62 -225 137 -225z" />
    <glyph glyph-name="Odieresis" unicode="&#xd6;" horiz-adv-x="561" 
d="M316 761v68h58v-68h-58zM187 761v68h59v-68h-59zM281 -9c-135 0 -231 135 -231 353v12c0 218 96 353 231 353s231 -135 231 -353v-12c0 -218 -96 -353 -231 -353zM281 35c104 0 183 120 183 309v12c0 189 -79 309 -183 309s-183 -120 -183 -309v-12
c0 -189 79 -309 183 -309z" />
    <glyph glyph-name="odieresis" unicode="&#xf6;" horiz-adv-x="443" 
d="M255 589v70h52v-70h-52zM137 589v70h52v-70h-52zM221 -9c-105 0 -181 109 -181 266v7c0 156 77 266 182 266s181 -109 181 -266v-7c0 -156 -77 -266 -182 -266zM222 32c75 0 136 92 136 225v7c0 133 -63 225 -137 225c-75 0 -136 -92 -136 -225v-7
c0 -134 62 -225 137 -225z" />
    <glyph glyph-name="OE" unicode="&#x152;" horiz-adv-x="767" 
d="M325 0c-161 0 -275 129 -275 343v13c0 214 114 344 275 344h398v-43h-277v-283h250v-42h-250v-289h280v-43h-401zM326 43h73v614h-74c-137 0 -228 -113 -228 -300v-13c0 -187 93 -301 229 -301z" />
    <glyph glyph-name="oe" unicode="&#x153;" horiz-adv-x="732" 
d="M221 -9c-100 0 -181 107 -181 266v7c0 158 82 266 182 266c70 0 128 -52 156 -136c27 88 85 136 150 136c97 0 165 -100 165 -260v-28h-293c4 -138 72 -210 151 -210c45 0 79 16 110 44l23 -34c-45 -34 -79 -51 -135 -51c-78 0 -143 52 -170 139
c-29 -86 -88 -139 -158 -139zM400 281h249c-2 116 -48 208 -122 208c-68 0 -121 -76 -127 -208zM222 32c77 0 136 92 136 225v7c0 133 -61 225 -137 225c-77 0 -136 -92 -136 -225v-7c0 -134 60 -225 137 -225z" />
    <glyph glyph-name="Ograve" unicode="&#xd2;" horiz-adv-x="561" 
d="M300 755h-36l-88 85l51 24zM281 -9c-135 0 -231 135 -231 353v12c0 218 96 353 231 353s231 -135 231 -353v-12c0 -218 -96 -353 -231 -353zM281 35c104 0 183 120 183 309v12c0 189 -79 309 -183 309s-183 -120 -183 -309v-12c0 -189 79 -309 183 -309z" />
    <glyph glyph-name="ograve" unicode="&#xf2;" horiz-adv-x="443" 
d="M221 -9c-105 0 -181 109 -181 266v7c0 156 77 266 182 266s181 -109 181 -266v-7c0 -156 -77 -266 -182 -266zM222 32c75 0 136 92 136 225v7c0 133 -63 225 -137 225c-75 0 -136 -92 -136 -225v-7c0 -134 62 -225 137 -225zM208 582l-90 100l51 27l71 -127h-32z" />
    <glyph glyph-name="Ohungarumlaut" unicode="&#x150;" horiz-adv-x="561" 
d="M281 -9c-135 0 -231 135 -231 353v12c0 218 96 353 231 353s231 -135 231 -353v-12c0 -218 -96 -353 -231 -353zM281 35c104 0 183 120 183 309v12c0 189 -79 309 -183 309s-183 -120 -183 -309v-12c0 -189 79 -309 183 -309zM202 755l73 109l49 -24l-86 -85h-36z
M309 755l73 109l50 -24l-87 -85h-36z" />
    <glyph glyph-name="ohungarumlaut" unicode="&#x151;" horiz-adv-x="443" 
d="M250 582l71 127l47 -25l-85 -102h-33zM144 582l71 127l47 -25l-85 -102h-33zM221 -9c-105 0 -181 109 -181 266v7c0 156 77 266 182 266s181 -109 181 -266v-7c0 -156 -77 -266 -182 -266zM222 32c75 0 136 92 136 225v7c0 133 -63 225 -137 225
c-75 0 -136 -92 -136 -225v-7c0 -134 62 -225 137 -225z" />
    <glyph glyph-name="Omacron" unicode="&#x14c;" horiz-adv-x="561" 
d="M163 772v43h234v-43h-234zM281 -9c-135 0 -231 135 -231 353v12c0 218 96 353 231 353s231 -135 231 -353v-12c0 -218 -96 -353 -231 -353zM281 35c104 0 183 120 183 309v12c0 189 -79 309 -183 309s-183 -120 -183 -309v-12c0 -189 79 -309 183 -309z" />
    <glyph glyph-name="omacron" unicode="&#x14d;" horiz-adv-x="443" 
d="M115 598v41h214v-41h-214zM221 -9c-105 0 -181 109 -181 266v7c0 156 77 266 182 266s181 -109 181 -266v-7c0 -156 -77 -266 -182 -266zM222 32c75 0 136 92 136 225v7c0 133 -63 225 -137 225c-75 0 -136 -92 -136 -225v-7c0 -134 62 -225 137 -225z" />
    <glyph glyph-name="Oslash" unicode="&#xd8;" horiz-adv-x="561" 
d="M467 707h49l-62 -104c36 -60 58 -145 58 -247v-11c0 -217 -96 -354 -232 -354c-57 0 -106 24 -144 67l-41 -65h-49l61 104c-37 60 -57 145 -57 247v11c0 217 95 354 231 354c57 0 107 -24 145 -68zM96 346c0 -82 14 -152 38 -204l270 456c-32 45 -75 70 -124 70
c-105 0 -184 -119 -184 -312v-10zM281 32c106 0 185 119 185 312v10c0 82 -15 151 -39 204l-269 -458c32 -44 74 -68 123 -68z" />
    <glyph glyph-name="oslash" unicode="&#xf8;" horiz-adv-x="443" 
d="M360 526h45l-49 -78c29 -46 47 -110 47 -184v-7c0 -158 -82 -266 -182 -266c-41 0 -79 18 -109 50l-29 -46h-45l49 78c-29 46 -47 109 -47 184v7c0 158 82 266 182 266c41 0 78 -18 108 -50zM222 31c77 0 137 92 137 226v6c0 59 -11 107 -28 144l-199 -328
c24 -32 56 -48 90 -48zM84 258c0 -59 10 -108 28 -144l199 327c-25 32 -57 49 -90 49c-77 0 -137 -93 -137 -226v-6z" />
    <glyph glyph-name="Oslashacute" unicode="&#x1fe;" horiz-adv-x="561" 
d="M467 707h49l-62 -104c36 -60 58 -145 58 -247v-11c0 -217 -96 -354 -232 -354c-57 0 -106 24 -144 67l-41 -65h-49l61 104c-37 60 -57 145 -57 247v11c0 217 95 354 231 354c57 0 107 -24 145 -68zM96 346c0 -82 14 -152 38 -204l270 456c-32 45 -75 70 -124 70
c-105 0 -184 -119 -184 -312v-10zM281 32c106 0 185 119 185 312v10c0 82 -15 151 -39 204l-269 -458c32 -44 74 -68 123 -68zM263 755l73 109l51 -24l-88 -85h-36z" />
    <glyph glyph-name="oslashacute" unicode="&#x1ff;" horiz-adv-x="443" 
d="M360 526h45l-49 -78c29 -46 47 -110 47 -184v-7c0 -158 -82 -266 -182 -266c-41 0 -79 18 -109 50l-29 -46h-45l49 78c-29 46 -47 109 -47 184v7c0 158 82 266 182 266c41 0 78 -18 108 -50zM222 31c77 0 137 92 137 226v6c0 59 -11 107 -28 144l-199 -328
c24 -32 56 -48 90 -48zM84 258c0 -59 10 -108 28 -144l199 327c-25 32 -57 49 -90 49c-77 0 -137 -93 -137 -226v-6zM202 582l71 127l51 -27l-90 -100h-32z" />
    <glyph glyph-name="Otilde" unicode="&#xd5;" horiz-adv-x="561" 
d="M336 756c-22 0 -37 9 -59 21c-19 11 -32 18 -43 18c-17 0 -26 -13 -36 -39l-34 8c15 47 36 73 66 73c21 0 37 -8 58 -21c20 -11 33 -17 43 -17c17 0 26 12 37 38l33 -8c-15 -47 -35 -73 -65 -73zM281 -9c-135 0 -231 135 -231 353v12c0 218 96 353 231 353
s231 -135 231 -353v-12c0 -218 -96 -353 -231 -353zM281 35c104 0 183 120 183 309v12c0 189 -79 309 -183 309s-183 -120 -183 -309v-12c0 -189 79 -309 183 -309z" />
    <glyph glyph-name="otilde" unicode="&#xf5;" horiz-adv-x="443" 
d="M221 -9c-105 0 -181 109 -181 266v7c0 156 77 266 182 266s181 -109 181 -266v-7c0 -156 -77 -266 -182 -266zM222 32c75 0 136 92 136 225v7c0 133 -63 225 -137 225c-75 0 -136 -92 -136 -225v-7c0 -134 62 -225 137 -225zM274 583c-21 0 -35 9 -55 24
c-19 16 -31 23 -42 23c-15 0 -24 -15 -34 -47l-32 8c15 56 34 81 63 81c21 0 35 -9 55 -25c19 -15 31 -22 42 -22c15 0 24 15 34 46l32 -8c-15 -56 -34 -80 -63 -80z" />
    <glyph glyph-name="Racute" unicode="&#x154;" horiz-adv-x="502" 
d="M73 0v700h159c70 0 127 -22 164 -59c34 -35 54 -85 54 -145v-2c0 -108 -62 -174 -150 -198l168 -296h-55l-161 286c-12 -1 -24 -1 -36 -1h-96v-285h-47zM120 328h87c142 0 197 69 197 165v2c0 106 -68 162 -174 162h-110v-329zM217 749l73 109l51 -24l-88 -85h-36z" />
    <glyph glyph-name="racute" unicode="&#x155;" horiz-adv-x="282" 
d="M133 582l71 127l51 -27l-90 -100h-32zM65 0v521h44v-97c25 60 79 107 153 103v-47h-3c-81 0 -150 -56 -150 -169v-311h-44z" />
    <glyph glyph-name="Rcaron" unicode="&#x158;" horiz-adv-x="502" 
d="M341 853l-83 -101h-42l-83 101h46l59 -60l59 60h44zM73 0v700h159c70 0 127 -22 164 -59c34 -35 54 -85 54 -145v-2c0 -108 -62 -174 -150 -198l168 -296h-55l-161 286c-12 -1 -24 -1 -36 -1h-96v-285h-47zM120 328h87c142 0 197 69 197 165v2c0 106 -68 162 -174 162
h-110v-329z" />
    <glyph glyph-name="rcaron" unicode="&#x159;" horiz-adv-x="282" 
d="M245 707l-76 -122h-36l-76 122h39l56 -73l56 73h37zM65 0v521h44v-97c25 60 79 107 153 103v-47h-3c-81 0 -150 -56 -150 -169v-311h-44z" />
    <glyph glyph-name="Rcommaaccent" unicode="&#x156;" horiz-adv-x="502" 
d="M211 -192l-10 20c28 11 38 26 36 53h-24v62h56v-56c0 -42 -17 -64 -58 -79zM73 0v700h159c70 0 127 -22 164 -59c34 -35 54 -85 54 -145v-2c0 -108 -62 -174 -150 -198l168 -296h-55l-161 286c-12 -1 -24 -1 -36 -1h-96v-285h-47zM120 328h87c142 0 197 69 197 165v2
c0 106 -68 162 -174 162h-110v-329z" />
    <glyph glyph-name="rcommaaccent" unicode="&#x157;" horiz-adv-x="282" 
d="M60 -197l-10 20c28 11 38 26 36 53h-24v62h56v-56c0 -42 -17 -64 -58 -79zM65 0v521h44v-97c25 60 79 107 153 103v-47h-3c-81 0 -150 -56 -150 -169v-311h-44z" />
    <glyph glyph-name="Sacute" unicode="&#x15a;" horiz-adv-x="440" 
d="M213 -10c-67 0 -128 23 -188 81l31 38c47 -46 98 -75 157 -75c81 0 137 59 137 132v2c0 56 -23 100 -135 165c-136 79 -163 132 -163 206v2c0 93 74 169 180 169c55 0 112 -20 163 -66l-29 -38c-43 40 -89 60 -136 60c-80 0 -130 -56 -130 -122v-2
c0 -62 28 -100 140 -166c137 -80 157 -137 157 -208v-2c0 -98 -78 -176 -184 -176zM208 755l73 109l51 -24l-88 -85h-36z" />
    <glyph glyph-name="sacute" unicode="&#x15b;" horiz-adv-x="342" 
d="M155 582l71 127l51 -27l-90 -100h-32zM163 -7c-53 0 -104 22 -153 70l29 34c42 -44 83 -63 126 -63c56 0 99 38 99 94v2c0 42 -21 74 -102 119c-88 49 -124 88 -124 152v1c0 75 59 126 138 126c58 0 104 -26 135 -55l-28 -34c-33 30 -67 48 -109 48
c-54 0 -92 -35 -92 -81v-1c0 -43 24 -71 101 -115c97 -56 125 -96 125 -159v-1c0 -82 -65 -137 -145 -137z" />
    <glyph glyph-name="Scaron" unicode="&#x160;" horiz-adv-x="440" 
d="M213 -10c-67 0 -128 23 -188 81l31 38c47 -46 98 -75 157 -75c81 0 137 59 137 132v2c0 56 -23 100 -135 165c-136 79 -163 132 -163 206v2c0 93 74 169 180 169c55 0 112 -20 163 -66l-29 -38c-43 40 -89 60 -136 60c-80 0 -130 -56 -130 -122v-2
c0 -62 28 -100 140 -166c137 -80 157 -137 157 -208v-2c0 -98 -78 -176 -184 -176zM332 859l-83 -101h-42l-83 101h46l59 -60l59 60h44z" />
    <glyph glyph-name="scaron" unicode="&#x161;" horiz-adv-x="342" 
d="M267 707l-76 -122h-36l-76 122h39l56 -73l56 73h37zM163 -7c-53 0 -104 22 -153 70l29 34c42 -44 83 -63 126 -63c56 0 99 38 99 94v2c0 42 -21 74 -102 119c-88 49 -124 88 -124 152v1c0 75 59 126 138 126c58 0 104 -26 135 -55l-28 -34c-33 30 -67 48 -109 48
c-54 0 -92 -35 -92 -81v-1c0 -43 24 -71 101 -115c97 -56 125 -96 125 -159v-1c0 -82 -65 -137 -145 -137z" />
    <glyph glyph-name="Scedilla" unicode="&#x15e;" horiz-adv-x="440" 
d="M198 -121l-49 21l55 90c-63 2 -122 25 -179 81l31 38c47 -46 98 -75 157 -75c81 0 137 59 137 132v2c0 56 -23 100 -135 165c-136 79 -163 132 -163 206v2c0 93 74 169 180 169c55 0 112 -20 163 -66l-29 -38c-43 40 -89 60 -136 60c-80 0 -130 -56 -130 -122v-2
c0 -62 28 -100 140 -166c137 -80 157 -137 157 -208v-2c0 -88 -63 -160 -152 -173z" />
    <glyph glyph-name="scedilla" unicode="&#x15f;" horiz-adv-x="342" 
d="M142 -121l-49 21l57 94c-48 3 -95 25 -140 69l29 34c42 -44 83 -63 126 -63c56 0 99 38 99 94v2c0 42 -21 74 -102 119c-88 49 -124 88 -124 152v1c0 75 59 126 138 126c58 0 104 -26 135 -55l-28 -34c-33 30 -67 48 -109 48c-54 0 -92 -35 -92 -81v-1
c0 -43 24 -71 101 -115c97 -56 125 -96 125 -159v-1c0 -73 -51 -124 -118 -135z" />
    <glyph glyph-name="Scommaaccent" unicode="&#x218;" horiz-adv-x="440" 
d="M186 -197l-10 20c28 11 38 26 36 53h-24v62h56v-56c0 -42 -17 -64 -58 -79zM213 -10c-67 0 -128 23 -188 81l31 38c47 -46 98 -75 157 -75c81 0 137 59 137 132v2c0 56 -23 100 -135 165c-136 79 -163 132 -163 206v2c0 93 74 169 180 169c55 0 112 -20 163 -66l-29 -38
c-43 40 -89 60 -136 60c-80 0 -130 -56 -130 -122v-2c0 -62 28 -100 140 -166c137 -80 157 -137 157 -208v-2c0 -98 -78 -176 -184 -176z" />
    <glyph glyph-name="scommaaccent" unicode="&#x219;" horiz-adv-x="342" 
d="M138 -197l-10 20c28 11 38 26 36 53h-24v62h56v-56c0 -42 -17 -64 -58 -79zM163 -7c-53 0 -104 22 -153 70l29 34c42 -44 83 -63 126 -63c56 0 99 38 99 94v2c0 42 -21 74 -102 119c-88 49 -124 88 -124 152v1c0 75 59 126 138 126c58 0 104 -26 135 -55l-28 -34
c-33 30 -67 48 -109 48c-54 0 -92 -35 -92 -81v-1c0 -43 24 -71 101 -115c97 -56 125 -96 125 -159v-1c0 -82 -65 -137 -145 -137z" />
    <glyph glyph-name="Tcaron" unicode="&#x164;" horiz-adv-x="419" 
d="M314 853l-83 -101h-42l-83 101h46l59 -60l59 60h44zM186 0v657h-159v43h366v-43h-160v-657h-47z" />
    <glyph glyph-name="tcaron" unicode="&#x165;" horiz-adv-x="276" 
d="M197 566l10 149h44v-3l-32 -146h-22zM191 -5c-63 0 -107 30 -107 105v380h-57v41h57v152h44v-152h112v-41h-112v-374c0 -54 27 -70 68 -70c15 0 31 3 45 9v-41c-15 -6 -33 -9 -50 -9z" />
    <glyph glyph-name="Tcommaaccent" unicode="&#x162;" horiz-adv-x="419" 
d="M179 -197l-10 20c28 11 38 26 36 53h-24v62h56v-56c0 -42 -17 -64 -58 -79zM186 0v657h-159v43h366v-43h-160v-657h-47z" />
    <glyph glyph-name="tcommaaccent" unicode="&#x163;" horiz-adv-x="276" 
d="M129 -197l-10 20c28 11 38 26 36 53h-24v62h56v-56c0 -42 -17 -64 -58 -79zM191 -5c-63 0 -107 30 -107 105v380h-57v41h57v152h44v-152h112v-41h-112v-374c0 -54 27 -70 68 -70c15 0 31 3 45 9v-41c-15 -6 -33 -9 -50 -9z" />
    <glyph glyph-name="Thorn" unicode="&#xde;" horiz-adv-x="472" 
d="M73 0v700h48v-124h97c135 0 222 -83 222 -216v-2c0 -138 -92 -223 -229 -223h-91v-135h-47zM120 177h95c111 0 178 68 178 179v2c0 113 -70 175 -177 175h-96v-356z" />
    <glyph glyph-name="thorn" unicode="&#xfe;" horiz-adv-x="458" 
d="M65 -139v853h44v-298c27 62 72 114 139 114c86 0 169 -94 169 -262v-14c0 -167 -83 -263 -169 -263c-68 0 -112 51 -139 113v-243h-44zM243 31c70 0 129 81 129 223v12c0 141 -60 224 -129 224s-137 -83 -137 -221v-18c0 -138 68 -220 137 -220z" />
    <glyph glyph-name="Uacute" unicode="&#xda;" horiz-adv-x="532" 
d="M247 744l73 109l51 -24l-88 -85h-36zM266 -10c-119 0 -198 85 -198 229v481h46v-480c0 -120 58 -187 153 -187c93 0 152 64 152 185v482h47v-479c0 -146 -80 -231 -200 -231z" />
    <glyph glyph-name="uacute" unicode="&#xfa;" horiz-adv-x="442" 
d="M199 579l71 127l51 -27l-90 -100h-32zM201 -9c-84 0 -142 59 -142 174v356h44v-340c0 -103 39 -151 108 -151s122 62 122 153v338h44v-521h-44v83c-22 -49 -63 -92 -132 -92z" />
    <glyph glyph-name="Ubreve" unicode="&#x16c;" horiz-adv-x="532" 
d="M266 745c-58 0 -101 30 -108 86h40c9 -28 31 -43 68 -43s59 15 68 43h40c-7 -56 -50 -86 -108 -86zM266 -10c-119 0 -198 85 -198 229v481h46v-480c0 -120 58 -187 153 -187c93 0 152 64 152 185v482h47v-479c0 -146 -80 -231 -200 -231z" />
    <glyph glyph-name="ubreve" unicode="&#x16d;" horiz-adv-x="442" 
d="M201 -9c-84 0 -142 59 -142 174v356h44v-340c0 -103 39 -151 108 -151s122 62 122 153v338h44v-521h-44v83c-22 -49 -63 -92 -132 -92zM218 580c-57 0 -99 33 -105 99h37c9 -37 30 -57 68 -57s59 20 68 57h37c-6 -66 -48 -99 -105 -99z" />
    <glyph glyph-name="Ucircumflex" unicode="&#xdb;" horiz-adv-x="532" 
d="M266 -10c-119 0 -198 85 -198 229v481h46v-480c0 -120 58 -187 153 -187c93 0 152 64 152 185v482h47v-479c0 -146 -80 -231 -200 -231zM162 747l83 101h42l83 -101h-46l-59 59l-59 -59h-44z" />
    <glyph glyph-name="ucircumflex" unicode="&#xfb;" horiz-adv-x="442" 
d="M124 582l76 122h36l76 -122h-39l-56 73l-56 -73h-37zM201 -9c-84 0 -142 59 -142 174v356h44v-340c0 -103 39 -151 108 -151s122 62 122 153v338h44v-521h-44v83c-22 -49 -63 -92 -132 -92z" />
    <glyph glyph-name="Udieresis" unicode="&#xdc;" horiz-adv-x="532" 
d="M301 750v68h58v-68h-58zM172 750v68h59v-68h-59zM266 -10c-119 0 -198 85 -198 229v481h46v-480c0 -120 58 -187 153 -187c93 0 152 64 152 185v482h47v-479c0 -146 -80 -231 -200 -231z" />
    <glyph glyph-name="udieresis" unicode="&#xfc;" horiz-adv-x="442" 
d="M251 586v70h52v-70h-52zM133 586v70h52v-70h-52zM201 -9c-84 0 -142 59 -142 174v356h44v-340c0 -103 39 -151 108 -151s122 62 122 153v338h44v-521h-44v83c-22 -49 -63 -92 -132 -92z" />
    <glyph glyph-name="Ugrave" unicode="&#xd9;" horiz-adv-x="532" 
d="M286 744h-36l-88 85l51 24zM266 -10c-119 0 -198 85 -198 229v481h46v-480c0 -120 58 -187 153 -187c93 0 152 64 152 185v482h47v-479c0 -146 -80 -231 -200 -231z" />
    <glyph glyph-name="ugrave" unicode="&#xf9;" horiz-adv-x="442" 
d="M201 -9c-84 0 -142 59 -142 174v356h44v-340c0 -103 39 -151 108 -151s122 62 122 153v338h44v-521h-44v83c-22 -49 -63 -92 -132 -92zM205 579l-90 100l51 27l71 -127h-32z" />
    <glyph glyph-name="Uhungarumlaut" unicode="&#x170;" horiz-adv-x="532" 
d="M266 -10c-119 0 -198 85 -198 229v481h46v-480c0 -120 58 -187 153 -187c93 0 152 64 152 185v482h47v-479c0 -146 -80 -231 -200 -231zM187 744l73 109l49 -24l-86 -85h-36zM294 744l73 109l50 -24l-87 -85h-36z" />
    <glyph glyph-name="uhungarumlaut" unicode="&#x171;" horiz-adv-x="442" 
d="M201 -9c-84 0 -142 59 -142 174v356h44v-340c0 -103 39 -151 108 -151s122 62 122 153v338h44v-521h-44v83c-22 -49 -63 -92 -132 -92zM246 579l71 127l47 -25l-85 -102h-33zM140 579l71 127l47 -25l-85 -102h-33z" />
    <glyph glyph-name="Umacron" unicode="&#x16a;" horiz-adv-x="532" 
d="M149 761v43h234v-43h-234zM266 -10c-119 0 -198 85 -198 229v481h46v-480c0 -120 58 -187 153 -187c93 0 152 64 152 185v482h47v-479c0 -146 -80 -231 -200 -231z" />
    <glyph glyph-name="umacron" unicode="&#x16b;" horiz-adv-x="442" 
d="M201 -9c-84 0 -142 59 -142 174v356h44v-340c0 -103 39 -151 108 -151s122 62 122 153v338h44v-521h-44v83c-22 -49 -63 -92 -132 -92zM111 595v41h214v-41h-214z" />
    <glyph glyph-name="Uogonek" unicode="&#x172;" horiz-adv-x="532" 
d="M308 -99v-33c-8 -1 -10 -1 -14 -1c-56 1 -80 24 -80 57c0 23 11 43 33 67c-108 8 -179 91 -179 228v481h46v-480c0 -120 58 -187 153 -187c93 0 152 64 152 185v482h47v-479c0 -139 -72 -222 -182 -230c-19 -24 -28 -40 -28 -57c0 -22 15 -31 52 -33z" />
    <glyph glyph-name="uogonek" unicode="&#x173;" horiz-adv-x="442" 
d="M201 -9c-84 0 -142 59 -142 174v356h44v-340c0 -103 39 -151 108 -151s122 62 122 153v338h44v-521h-6c-25 -29 -36 -47 -36 -66c0 -22 15 -31 52 -33v-33c-8 -1 -10 -1 -14 -1c-56 1 -80 24 -80 57c0 26 15 49 42 76h-2v83c-22 -49 -63 -92 -132 -92z" />
    <glyph glyph-name="Uring" unicode="&#x16e;" horiz-adv-x="532" 
d="M266 -10c-119 0 -198 85 -198 229v481h46v-480c0 -120 58 -187 153 -187c93 0 152 64 152 185v482h47v-479c0 -146 -80 -231 -200 -231zM265 734c-49 0 -87 35 -87 81s40 81 89 81s87 -35 87 -81s-40 -81 -89 -81zM266 762c32 0 55 23 55 53s-23 53 -55 53
s-55 -23 -55 -53s23 -53 55 -53z" />
    <glyph glyph-name="uring" unicode="&#x16f;" horiz-adv-x="442" 
d="M217 569c-48 0 -85 38 -85 85s38 85 87 85c48 0 85 -38 85 -85s-38 -85 -87 -85zM218 596c32 0 56 25 56 58c0 32 -24 58 -56 58s-56 -26 -56 -58c0 -33 24 -58 56 -58zM201 -9c-84 0 -142 59 -142 174v356h44v-340c0 -103 39 -151 108 -151s122 62 122 153v338h44v-521
h-44v83c-22 -49 -63 -92 -132 -92z" />
    <glyph glyph-name="Wacute" unicode="&#x1e82;" horiz-adv-x="783" 
d="M372 749l73 109l51 -24l-88 -85h-36zM205 -5l-168 705h49l141 -615l145 616h41l145 -616l140 615h48l-168 -705h-41l-145 610l-146 -610h-41z" />
    <glyph glyph-name="wacute" unicode="&#x1e83;" horiz-adv-x="628" 
d="M295 582l71 127l51 -27l-90 -100h-32zM169 -3l-132 524h47l104 -453l108 453h39l106 -453l106 453h44l-131 -524h-40l-106 440l-106 -440h-39z" />
    <glyph glyph-name="Wcircumflex" unicode="&#x174;" horiz-adv-x="783" 
d="M205 -5l-168 705h49l141 -615l145 616h41l145 -616l140 615h48l-168 -705h-41l-145 610l-146 -610h-41zM287 752l83 101h42l83 -101h-46l-59 59l-59 -59h-44z" />
    <glyph glyph-name="wcircumflex" unicode="&#x175;" horiz-adv-x="628" 
d="M219 582l76 122h36l76 -122h-39l-56 73l-56 -73h-37zM169 -3l-132 524h47l104 -453l108 453h39l106 -453l106 453h44l-131 -524h-40l-106 440l-106 -440h-39z" />
    <glyph glyph-name="Wdieresis" unicode="&#x1e84;" horiz-adv-x="783" 
d="M426 755v68h58v-68h-58zM297 755v68h59v-68h-59zM205 -5l-168 705h49l141 -615l145 616h41l145 -616l140 615h48l-168 -705h-41l-145 610l-146 -610h-41z" />
    <glyph glyph-name="wdieresis" unicode="&#x1e85;" horiz-adv-x="628" 
d="M346 589v70h52v-70h-52zM228 589v70h52v-70h-52zM169 -3l-132 524h47l104 -453l108 453h39l106 -453l106 453h44l-131 -524h-40l-106 440l-106 -440h-39z" />
    <glyph glyph-name="Wgrave" unicode="&#x1e80;" horiz-adv-x="783" 
d="M409 749h-36l-88 85l51 24zM205 -5l-168 705h49l141 -615l145 616h41l145 -616l140 615h48l-168 -705h-41l-145 610l-146 -610h-41z" />
    <glyph glyph-name="wgrave" unicode="&#x1e81;" horiz-adv-x="628" 
d="M169 -3l-132 524h47l104 -453l108 453h39l106 -453l106 453h44l-131 -524h-40l-106 440l-106 -440h-39zM300 582l-90 100l51 27l71 -127h-32z" />
    <glyph glyph-name="Yacute" unicode="&#xdd;" horiz-adv-x="479" 
d="M216 0v293l-200 407h52l172 -357l172 357h51l-200 -406v-294h-47zM220 744l73 109l51 -24l-88 -85h-36z" />
    <glyph glyph-name="yacute" unicode="&#xfd;" horiz-adv-x="416" 
d="M214 64l124 457h47l-149 -521c-31 -109 -70 -142 -127 -142c-18 0 -45 5 -68 20l15 41c13 -10 34 -18 53 -18c36 0 58 21 84 95l-163 525h47zM191 579l71 127l51 -27l-90 -100h-32z" />
    <glyph glyph-name="Ycircumflex" unicode="&#x176;" horiz-adv-x="479" 
d="M216 0v293l-200 407h52l172 -357l172 357h51l-200 -406v-294h-47zM136 747l83 101h42l83 -101h-46l-59 59l-59 -59h-44z" />
    <glyph glyph-name="ycircumflex" unicode="&#x177;" horiz-adv-x="416" 
d="M214 64l124 457h47l-149 -521c-31 -109 -70 -142 -127 -142c-18 0 -45 5 -68 20l15 41c13 -10 34 -18 53 -18c36 0 58 21 84 95l-163 525h47zM115 582l76 122h36l76 -122h-39l-56 73l-56 -73h-37z" />
    <glyph glyph-name="Ydieresis" unicode="&#x178;" horiz-adv-x="479" 
d="M216 0v293l-200 407h52l172 -357l172 357h51l-200 -406v-294h-47zM276 750v68h58v-68h-58zM147 750v68h59v-68h-59z" />
    <glyph glyph-name="ydieresis" unicode="&#xff;" horiz-adv-x="416" 
d="M214 64l124 457h47l-149 -521c-31 -109 -70 -142 -127 -142c-18 0 -45 5 -68 20l15 41c13 -10 34 -18 53 -18c36 0 58 21 84 95l-163 525h47zM242 586v70h52v-70h-52zM124 586v70h52v-70h-52z" />
    <glyph glyph-name="Ygrave" unicode="&#x1ef2;" horiz-adv-x="479" 
d="M216 0v293l-200 407h52l172 -357l172 357h51l-200 -406v-294h-47zM259 744h-36l-88 85l51 24z" />
    <glyph glyph-name="ygrave" unicode="&#x1ef3;" horiz-adv-x="416" 
d="M214 64l124 457h47l-149 -521c-31 -109 -70 -142 -127 -142c-18 0 -45 5 -68 20l15 41c13 -10 34 -18 53 -18c36 0 58 21 84 95l-163 525h47zM195 579l-90 100l51 27l71 -127h-32z" />
    <glyph glyph-name="Zacute" unicode="&#x179;" horiz-adv-x="459" 
d="M43 0v29l316 628h-303v43h362v-28l-316 -629h316v-43h-375zM216 749l73 109l51 -24l-88 -85h-36z" />
    <glyph glyph-name="zacute" unicode="&#x17a;" horiz-adv-x="367" 
d="M169 582l71 127l51 -27l-90 -100h-32zM35 0v26l243 456h-232v39h285v-26l-242 -456h239v-39h-293z" />
    <glyph glyph-name="Zcaron" unicode="&#x17d;" horiz-adv-x="459" 
d="M340 853l-83 -101h-42l-83 101h46l59 -60l59 60h44zM43 0v29l316 628h-303v43h362v-28l-316 -629h316v-43h-375z" />
    <glyph glyph-name="zcaron" unicode="&#x17e;" horiz-adv-x="367" 
d="M281 707l-76 -122h-36l-76 122h39l56 -73l56 73h37zM35 0v26l243 456h-232v39h285v-26l-242 -456h239v-39h-293z" />
    <glyph glyph-name="Zdotaccent" unicode="&#x17b;" horiz-adv-x="459" 
d="M206 755v68h60v-68h-60zM43 0v29l316 628h-303v43h362v-28l-316 -629h316v-43h-375z" />
    <glyph glyph-name="zdotaccent" unicode="&#x17c;" horiz-adv-x="367" 
d="M35 0v26l243 456h-232v39h285v-26l-242 -456h239v-39h-293zM159 589v71h56v-71h-56z" />
    <glyph glyph-name="schwa" unicode="&#x259;" horiz-adv-x="416" 
d="M182 529c107 0 194 -92 194 -262v-7c0 -171 -78 -270 -172 -270c-100 0 -165 99 -165 260v28h293c-4 137 -73 210 -154 210c-42 0 -76 -16 -107 -44l-23 34c39 33 80 51 134 51zM332 239h-249c2 -115 47 -208 121 -208c68 0 122 77 128 208z" />
    <glyph glyph-name="germandbls" unicode="&#xdf;" horiz-adv-x="438" 
d="M193 -2v38c106 5 161 61 161 148v3c0 89 -57 142 -161 158v35c92 31 133 99 133 172v3c0 77 -45 121 -104 121c-68 0 -113 -60 -113 -155v-521h-44v518c0 123 62 200 159 200c85 0 147 -64 147 -160v-4c0 -93 -55 -157 -124 -185c87 -24 152 -79 152 -179v-5
c0 -112 -76 -185 -206 -187z" />
    <glyph glyph-name="zero" unicode="0" horiz-adv-x="490" 
d="M245 -9c-122 0 -197 127 -197 352v12c0 225 76 354 198 354c121 0 196 -127 196 -352v-12c0 -225 -75 -354 -197 -354zM246 33c89 0 149 118 149 310v12c0 192 -61 312 -150 312s-149 -118 -149 -310v-12c0 -192 60 -312 150 -312z" />
    <glyph glyph-name="one" unicode="1" horiz-adv-x="251" 
d="M125 0v648l-95 -44l-5 47l107 51h39v-702h-46z" />
    <glyph glyph-name="two" unicode="2" horiz-adv-x="420" 
d="M33 0v32l202 302c57 85 85 137 85 203c0 78 -50 127 -123 127c-47 0 -90 -23 -127 -77l-33 27c36 58 94 95 165 95c99 0 167 -69 167 -168v-3c0 -78 -32 -133 -95 -228l-177 -265h278v-45h-342z" />
    <glyph glyph-name="three" unicode="3" horiz-adv-x="411" 
d="M177 -9c-67 0 -116 26 -152 60l28 36c32 -30 67 -53 125 -53c79 0 142 63 142 164v4c0 105 -83 150 -185 150h-2l-5 30l174 272h-259v46h319v-32l-177 -277c97 -13 182 -67 182 -187v-5c0 -126 -86 -208 -190 -208z" />
    <glyph glyph-name="three.alt" horiz-adv-x="408" 
d="M170 -9c-66 0 -117 27 -150 62l28 35c30 -30 70 -54 122 -54c82 0 148 61 148 156v2c0 95 -64 148 -184 148h-13v41h13c106 0 176 63 176 154v2c0 80 -53 129 -124 129c-55 0 -92 -24 -125 -58l-27 31c36 40 90 70 152 70c104 0 171 -74 171 -167v-3
c0 -93 -57 -149 -127 -175c81 -23 136 -80 136 -173v-2c0 -113 -83 -198 -196 -198z" />
    <glyph glyph-name="four" unicode="4" horiz-adv-x="455" 
d="M305 0v165h-270l-6 35l279 505h40v-500h76v-40h-76v-165h-43zM79 205h226v408z" />
    <glyph glyph-name="five" unicode="5" horiz-adv-x="425" 
d="M185 -9c-60 0 -110 25 -146 57l26 36c31 -28 71 -50 122 -50c82 0 146 72 146 179v3c0 112 -62 162 -138 162c-43 0 -71 -11 -100 -25l-33 23l16 324h275v-45h-234l-13 -254c27 12 54 21 93 21c100 0 182 -69 182 -203v-3c0 -132 -86 -225 -196 -225z" />
    <glyph glyph-name="six" unicode="6" horiz-adv-x="455" 
d="M234 -9c-43 0 -82 15 -111 44c-45 45 -74 121 -74 274v17c0 252 86 383 213 383c47 0 81 -14 118 -41l-22 -39c-24 18 -55 36 -98 36c-101 0 -163 -125 -167 -329c27 59 84 97 146 97c93 0 173 -73 173 -211v-2c0 -136 -79 -229 -178 -229zM236 33c79 0 129 84 129 186v2
c0 110 -57 170 -129 170c-71 0 -132 -60 -132 -166v-3c0 -106 46 -189 132 -189z" />
    <glyph glyph-name="seven" unicode="7" horiz-adv-x="406" 
d="M99 0l216 655h-270v45h319v-38l-217 -662h-48z" />
    <glyph glyph-name="eight" unicode="8" horiz-adv-x="434" 
d="M217 -9c-105 0 -181 78 -181 190v5c0 82 46 148 114 175c-56 28 -97 84 -97 165v5c0 111 77 178 164 178c86 0 164 -67 164 -178v-5c0 -81 -41 -137 -97 -165c67 -27 114 -93 114 -175v-5c0 -112 -76 -190 -181 -190zM217 33c83 0 134 66 134 149v2
c0 90 -59 156 -134 156s-134 -66 -134 -156v-2c0 -83 51 -149 134 -149zM217 380c67 0 118 67 118 147v3c0 81 -50 137 -118 137s-118 -56 -118 -137v-3c0 -80 51 -147 118 -147z" />
    <glyph glyph-name="nine" unicode="9" horiz-adv-x="455" 
d="M195 35c101 0 162 126 166 320c-27 -59 -83 -96 -145 -96c-93 0 -173 74 -173 215v2c0 139 79 233 178 233c43 0 82 -15 111 -44c45 -45 74 -121 74 -274v-17c0 -252 -86 -383 -213 -383c-47 0 -86 16 -128 46l22 39c34 -24 65 -41 108 -41zM219 301c71 0 132 61 132 170
v3c0 109 -46 193 -132 193c-79 0 -129 -85 -129 -190v-2c0 -113 57 -174 129 -174z" />
    <glyph glyph-name="period" unicode="." horiz-adv-x="178" 
d="M57 0v83h64v-83h-64z" />
    <glyph glyph-name="comma" unicode="," horiz-adv-x="178" 
d="M44 -104l-12 25c40 18 55 41 52 79h-27v83h64v-72c0 -62 -21 -90 -77 -115z" />
    <glyph glyph-name="colon" unicode=":" horiz-adv-x="188" 
d="M62 437v83h64v-83h-64zM62 0v83h64v-83h-64z" />
    <glyph glyph-name="semicolon" unicode=";" horiz-adv-x="188" 
d="M62 437v83h64v-83h-64zM49 -104l-12 25c40 18 55 41 52 79h-27v83h64v-72c0 -62 -21 -90 -77 -115z" />
    <glyph glyph-name="ellipsis" unicode="&#x2026;" horiz-adv-x="544" 
d="M423 0v84h64v-84h-64zM240 0v84h64v-84h-64zM57 0v84h64v-84h-64z" />
    <glyph glyph-name="periodcentered" unicode="&#xb7;" horiz-adv-x="179" 
d="M57 255v85h65v-85h-65z" />
    <glyph glyph-name="bullet" unicode="&#x2022;" horiz-adv-x="367" 
d="M184 238c-55 0 -96 42 -96 111v9c0 69 42 110 96 110c53 0 96 -41 96 -110v-9c0 -69 -42 -111 -96 -111z" />
    <glyph glyph-name="ampersand" unicode="&#x26;" horiz-adv-x="510" 
d="M453 -9l-78 110c-45 -65 -99 -109 -175 -109c-99 0 -165 81 -165 178v5c0 83 47 159 136 218c-50 74 -72 119 -72 172v4c0 74 56 140 138 140c80 0 129 -66 129 -134v-5c0 -78 -50 -133 -132 -188l138 -202c22 49 38 101 53 163l40 -12c-18 -74 -38 -134 -65 -190
l90 -125zM211 414c75 45 110 96 110 156v2c0 53 -34 97 -85 97c-55 0 -92 -45 -92 -99v-2c0 -44 15 -81 67 -154zM201 34c62 0 108 40 148 102l-156 226c-79 -49 -111 -118 -111 -184v-5c0 -78 49 -139 119 -139z" />
    <glyph glyph-name="exclam" unicode="!" horiz-adv-x="213" 
d="M94 183l-15 447v70h55v-70l-15 -447h-25zM75 0v83h63v-83h-63z" />
    <glyph glyph-name="exclamdown" unicode="&#xa1;" horiz-adv-x="213" 
d="M75 617v83h63v-83h-63zM79 0v70l15 447h25l15 -447v-70h-55z" />
    <glyph glyph-name="question" unicode="?" horiz-adv-x="384" 
d="M150 183l-9 169l5 6c95 20 155 72 155 166v3c0 81 -54 136 -130 136c-51 0 -92 -26 -125 -57l-26 35c40 37 89 65 154 65c103 0 174 -77 174 -176v-4c0 -111 -72 -172 -160 -200l-9 -143h-29zM136 0v83h62v-83h-62z" />
    <glyph glyph-name="questiondown" unicode="&#xbf;" horiz-adv-x="384" 
d="M186 617v83h62v-83h-62zM210 -6c-103 0 -174 77 -174 176v4c0 111 72 172 160 200l9 143h29l9 -169l-5 -6c-95 -20 -155 -72 -155 -166v-3c0 -81 54 -136 130 -136c51 0 92 26 125 57l26 -35c-40 -37 -89 -65 -154 -65z" />
    <glyph glyph-name="quotedblleft" unicode="&#x201c;" horiz-adv-x="326" 
d="M202 513v74c0 62 20 90 77 115l12 -25c-40 -18 -56 -41 -53 -79h27v-85h-63zM54 513v74c0 62 21 90 77 115l12 -25c-40 -18 -55 -41 -52 -79h27v-85h-64z" />
    <glyph glyph-name="quotedblright" unicode="&#x201d;" horiz-adv-x="326" 
d="M194 513l-12 25c41 18 56 41 53 79h-27v83h63v-72c0 -62 -20 -91 -77 -115zM47 513l-12 25c40 18 55 41 52 79h-27v83h64v-72c0 -62 -21 -91 -77 -115z" />
    <glyph glyph-name="quoteleft" unicode="&#x2018;" horiz-adv-x="178" 
d="M54 513v74c0 62 21 90 77 115l12 -25c-40 -18 -55 -41 -52 -79h27v-85h-64z" />
    <glyph glyph-name="quoteright" unicode="&#x2019;" horiz-adv-x="178" 
d="M47 513l-12 25c40 18 55 41 52 79h-27v83h64v-72c0 -62 -21 -91 -77 -115z" />
    <glyph glyph-name="quotedblbase" unicode="&#x201e;" horiz-adv-x="326" 
d="M191 -104l-12 25c40 18 56 41 53 79h-27v83h63v-72c0 -62 -20 -90 -77 -115zM44 -104l-12 25c40 18 55 41 52 79h-27v83h64v-72c0 -62 -21 -90 -77 -115z" />
    <glyph glyph-name="quotesinglbase" unicode="&#x201a;" horiz-adv-x="178" 
d="M44 -104l-12 25c40 18 55 41 52 79h-27v83h64v-72c0 -62 -21 -90 -77 -115z" />
    <glyph glyph-name="guillemotleft" unicode="&#xab;" horiz-adv-x="401" 
d="M324 43l-135 208v8l135 208l32 -18l-116 -193l116 -195zM173 43l-134 208v8l134 208l33 -18l-117 -193l117 -195z" />
    <glyph glyph-name="guillemotright" unicode="&#xbb;" horiz-adv-x="401" 
d="M227 43l-32 18l117 193l-117 195l32 18l135 -208v-8zM77 43l-33 18l117 193l-117 195l33 18l134 -208v-8z" />
    <glyph glyph-name="guilsinglleft" unicode="&#x2039;" horiz-adv-x="250" 
d="M173 43l-134 208v8l134 208l33 -18l-117 -193l117 -195z" />
    <glyph glyph-name="guilsinglright" unicode="&#x203a;" horiz-adv-x="250" 
d="M77 43l-33 18l117 193l-117 195l33 18l134 -208v-8z" />
    <glyph glyph-name="hyphen" unicode="-" horiz-adv-x="317" 
d="M51 274v45h216v-45h-216z" />
    <glyph glyph-name="endash" unicode="&#x2013;" horiz-adv-x="444" 
d="M51 274v44h342v-44h-342z" />
    <glyph glyph-name="emdash" unicode="&#x2014;" horiz-adv-x="690" 
d="M51 274v44h589v-44h-589z" />
    <glyph glyph-name="underscore" unicode="_" horiz-adv-x="504" 
d="M-2 -159v38h508v-38h-508z" />
    <glyph glyph-name="slash" unicode="/" horiz-adv-x="344" 
d="M-9 -109l307 888h42l-307 -888h-42z" />
    <glyph glyph-name="backslash" unicode="\" horiz-adv-x="344" 
d="M311 -109l-307 888h42l307 -888h-42z" />
    <glyph glyph-name="bar" unicode="|" horiz-adv-x="241" 
d="M101 -109v888h39v-888h-39z" />
    <glyph glyph-name="parenleft" unicode="(" horiz-adv-x="303" 
d="M259 -134c-125 82 -211 225 -211 423c0 199 86 342 211 424l17 -28c-109 -82 -182 -207 -182 -396c0 -188 73 -313 182 -395z" />
    <glyph glyph-name="parenright" unicode=")" horiz-adv-x="303" 
d="M44 -134l-17 28c109 82 182 207 182 395c0 189 -73 314 -182 396l17 28c125 -82 211 -225 211 -424c0 -198 -86 -341 -211 -423z" />
    <glyph glyph-name="bracketleft" unicode="[" horiz-adv-x="315" 
d="M85 -130v830h186v-35h-143v-760h143v-35h-186z" />
    <glyph glyph-name="bracketright" unicode="]" horiz-adv-x="315" 
d="M44 -130v35h143v760h-143v35h186v-830h-186z" />
    <glyph glyph-name="braceleft" unicode="{" horiz-adv-x="341" 
d="M303 -138c-130 16 -166 77 -166 149c0 54 26 102 26 155c0 54 -28 107 -115 107h-15v32h15c87 0 115 53 115 107c0 53 -26 101 -26 155c0 72 36 133 166 149l5 -32c-98 -15 -126 -52 -126 -121c0 -52 26 -94 26 -146c0 -63 -29 -113 -98 -128c69 -15 98 -65 98 -128
c0 -52 -26 -94 -26 -146c0 -69 28 -106 126 -121z" />
    <glyph glyph-name="braceright" unicode="}" horiz-adv-x="341" 
d="M38 -138l-5 32c98 15 126 52 126 121c0 52 -26 94 -26 146c0 63 29 113 98 128c-69 15 -98 65 -98 128c0 52 26 94 26 146c0 69 -28 106 -126 121l5 32c130 -16 166 -77 166 -149c0 -54 -26 -102 -26 -155c0 -54 28 -107 115 -107h15v-32h-15c-87 0 -115 -53 -115 -107
c0 -53 26 -101 26 -155c0 -72 -36 -133 -166 -149z" />
    <glyph glyph-name="at" unicode="@" horiz-adv-x="755" 
d="M369 -143c-186 0 -328 144 -328 377c0 252 145 475 362 475c188 0 311 -155 311 -344c0 -165 -74 -292 -163 -292c-59 0 -93 42 -94 103c-33 -57 -75 -105 -139 -105c-65 0 -116 57 -116 151c0 148 84 283 185 283c61 0 94 -43 107 -95l15 79l43 -7l-46 -241
c-5 -26 -7 -51 -7 -69c0 -38 18 -66 56 -66c72 0 129 127 129 258c0 167 -107 317 -281 317c-207 0 -333 -223 -333 -444c0 -219 126 -352 299 -352c77 0 128 18 186 53l14 -23c-61 -37 -117 -58 -200 -58zM328 113c26 0 53 14 75 36c38 38 75 113 75 195
c0 69 -37 119 -87 119c-27 0 -53 -13 -74 -34c-44 -45 -70 -131 -70 -202c0 -78 32 -114 81 -114z" />
    <glyph glyph-name="copyright" unicode="&#xa9;" horiz-adv-x="630" 
d="M315 -11c-166 0 -281 158 -281 349v24c0 191 116 349 281 349c166 0 281 -157 281 -349v-23c0 -191 -116 -350 -281 -350zM315 15c153 0 254 148 254 324v23c0 176 -101 323 -254 323s-253 -147 -253 -323v-24c0 -176 100 -323 253 -323zM323 157c-74 0 -133 69 -133 191
v8c0 121 60 191 134 191c34 0 58 -12 83 -33l-21 -30c-15 14 -36 26 -62 26c-53 0 -95 -55 -95 -152v-11c0 -98 43 -153 96 -153c26 0 44 10 63 28l21 -28c-26 -25 -52 -37 -86 -37z" />
    <glyph glyph-name="published" unicode="&#x2117;" horiz-adv-x="630" 
d="M315 -11c-166 0 -281 158 -281 349v24c0 191 116 349 281 349c166 0 281 -157 281 -349v-23c0 -191 -116 -350 -281 -350zM315 15c153 0 254 148 254 324v23c0 176 -101 323 -254 323s-253 -147 -253 -323v-24c0 -176 100 -323 253 -323zM230 168v378h85
c71 0 122 -43 122 -119v-2c0 -80 -55 -123 -125 -124h-45v-133h-37zM267 338h47c53 0 85 30 85 85v2c0 56 -34 85 -85 85h-47v-172z" />
    <glyph glyph-name="registered.alt" horiz-adv-x="630" 
d="M315 -11c-166 0 -281 158 -281 349v24c0 191 116 349 281 349c166 0 281 -157 281 -349v-23c0 -191 -116 -350 -281 -350zM315 15c153 0 254 148 254 324v23c0 176 -101 323 -254 323s-253 -147 -253 -323v-24c0 -176 100 -323 253 -323zM218 169v378h96
c38 0 70 -12 90 -33c19 -18 30 -45 30 -79v-2c0 -55 -30 -91 -74 -106l88 -158h-45l-81 149c-6 -1 -9 -1 -13 -1h-54v-148h-37zM255 352h58c48 0 82 26 82 79v2c0 51 -33 77 -82 77h-58v-158z" />
    <glyph glyph-name="registered" unicode="&#xae;" horiz-adv-x="348" 
d="M174 357c-83 0 -143 76 -143 172v12c0 97 61 174 143 174c83 0 144 -77 144 -173v-12c0 -96 -61 -173 -144 -173zM174 375c74 0 124 69 124 155v12c0 85 -49 154 -124 154c-74 0 -124 -70 -124 -155v-12c0 -85 50 -154 124 -154zM124 446v186h51c37 0 61 -22 61 -57
c0 -29 -14 -45 -35 -53l41 -76h-27l-37 70h-30v-70h-24zM148 537h26c23 0 38 13 38 37c0 23 -15 35 -38 35h-26v-72z" />
    <glyph glyph-name="servicemark" unicode="&#x2120;" horiz-adv-x="518" 
d="M255 387v313h39l73 -164l73 164h38v-313h-32v254l-77 -176h-4l-78 176v-254h-32zM116 383c-34 0 -62 13 -89 37l19 26c23 -20 43 -33 71 -33s50 18 50 46c0 25 -9 42 -55 72c-52 35 -74 57 -74 96c0 45 35 77 84 77c34 0 58 -13 81 -30l-18 -27c-19 16 -40 27 -65 27
c-28 0 -48 -18 -48 -46c0 -23 12 -37 57 -67c51 -35 72 -61 72 -100c0 -47 -38 -78 -85 -78z" />
    <glyph glyph-name="trademark" unicode="&#x2122;" horiz-adv-x="494" 
d="M232 387v313h39l73 -164l73 164h38v-313h-32v254l-77 -176h-5l-78 176v-254h-31zM80 387v282h-68v31h168v-31h-68v-282h-32z" />
    <glyph glyph-name="asterisk" unicode="*" horiz-adv-x="331" 
d="M147 423l8 120l-91 -66l-20 33l102 52l-102 53l20 33l91 -66l-8 120h38l-9 -120l91 66l20 -33l-102 -53l102 -52l-20 -33l-91 66l9 -120h-38z" />
    <glyph glyph-name="dagger" unicode="&#x2020;" horiz-adv-x="294" 
d="M126 238l7 289l-99 -9v43l98 -9l-9 148h49l-10 -148l98 9v-43l-98 9l7 -289h-43z" />
    <glyph glyph-name="daggerdbl" unicode="&#x2021;" horiz-adv-x="316" 
d="M133 0l11 148l-99 -9v43l99 -9l-8 177l8 177l-99 -9v43l99 -9l-10 148h49l-10 -148l98 9v-43l-98 9l8 -177l-8 -177l98 9v-43l-98 9l9 -148h-49z" />
    <glyph glyph-name="dollar" unicode="$" horiz-adv-x="442" 
d="M385 639l-27 -35c-38 34 -76 54 -118 57v-281c118 -51 157 -112 157 -200v-2c0 -96 -61 -169 -156 -180v-97h-39v95c-62 3 -126 26 -173 79l29 35c44 -49 91 -70 145 -73v304c-102 44 -155 93 -155 189v1c0 90 61 160 154 171v62h39v-62c55 -3 101 -25 144 -63zM352 180
c0 67 -28 114 -112 150v-292c74 10 112 70 112 141v1zM93 531c0 -70 34 -106 110 -139v268c-70 -8 -110 -60 -110 -127v-2z" />
    <glyph glyph-name="sterling" unicode="&#xa3;" horiz-adv-x="435" 
d="M45 0v22l63 19v278h-65v41h65v137c0 73 7 127 50 170c23 23 61 41 108 41c73 0 118 -42 136 -70l-34 -28c-24 33 -59 56 -104 56c-21 0 -50 -5 -72 -27c-31 -30 -38 -77 -38 -142v-137h187v-41h-187v-277h251v-42h-360z" />
    <glyph glyph-name="Euro" unicode="&#x20ac;" horiz-adv-x="485" 
d="M451 638l-30 -30c-30 34 -63 55 -111 55c-86 0 -144 -88 -164 -207h204v-39h-208c-2 -21 -3 -42 -3 -63v-9c0 -19 0 -38 2 -55h209v-40h-204c20 -132 83 -213 165 -213c48 0 83 24 111 61l31 -29c-38 -47 -81 -76 -143 -76c-114 0 -191 104 -212 257h-70v40h65
c-1 16 -1 34 -1 52v13c0 21 1 41 3 62h-67v39h72c22 141 95 251 211 251c62 0 101 -26 140 -69z" />
    <glyph glyph-name="yen" unicode="&#xa5;" horiz-adv-x="462" 
d="M71 273v38h128l-185 389h54l164 -361l165 361h51l-185 -389h128v-38h-137v-99h137v-39h-137v-135h-45v135h-138v39h138v99h-138z" />
    <glyph glyph-name="cent" unicode="&#xa2;" horiz-adv-x="392" 
d="M263 704l-7 -85c41 -6 74 -26 101 -51l-26 -32c-20 16 -44 34 -78 40l-30 -451h9c45 0 76 20 102 46l25 -32c-32 -33 -75 -56 -131 -56h-7l-7 -88h-40l7 94c-81 24 -137 114 -137 258v7c0 165 72 258 173 266l6 84h40zM90 347c0 -121 38 -190 95 -213l30 443
c-73 -9 -125 -79 -125 -221v-9z" />
    <glyph glyph-name="baht" unicode="&#xe3f;" horiz-adv-x="463" 
d="M258 779h39l-12 -92c72 -24 118 -82 118 -161v-2c0 -102 -61 -149 -131 -169c85 -19 145 -73 145 -170v-1c0 -112 -84 -181 -213 -184l-16 -119h-40l16 119h-93v700h135c14 0 28 -1 41 -3zM371 185c0 81 -46 132 -131 145l-34 -288c102 4 165 53 165 142v1zM117 373h74
c6 0 13 0 19 1l33 280c-12 2 -25 4 -38 4h-88v-285zM117 42h55l34 291h-11h-78v-291zM357 522c0 59 -30 102 -80 123l-31 -266c71 16 111 66 111 142v1z" />
    <glyph glyph-name="colonmonetary" unicode="&#x20a1;" horiz-adv-x="443" 
d="M350 779h39l-13 -98c16 -10 32 -21 49 -35l-27 -34c-11 9 -21 17 -31 24l-77 -598c47 1 81 24 107 48l26 -32c-39 -34 -78 -56 -136 -58l-15 -114h-39l15 117c-24 4 -46 12 -67 25l-18 -142h-39l22 170c-57 57 -94 155 -94 291v14c0 191 75 309 179 339l10 83h39l-10 -76
c5 1 11 1 17 1c20 0 37 -3 52 -7zM186 77c21 -19 46 -31 72 -36l79 611c-15 6 -32 10 -51 10c-9 0 -17 -1 -25 -2zM97 343c0 -102 23 -182 60 -234l70 540c-77 -33 -130 -135 -130 -292v-14z" />
    <glyph glyph-name="florin" unicode="&#x192;" horiz-adv-x="387" 
d="M63 -5c-17 0 -32 3 -43 6v42c11 -3 26 -6 42 -6c36 0 58 24 65 78l35 272h-75v39h80l20 157c11 81 50 122 116 122c25 0 45 -4 62 -11v-44c-18 7 -38 12 -60 12c-40 0 -64 -27 -72 -86l-19 -150h118v-39h-123l-36 -275c-11 -80 -46 -117 -110 -117z" />
    <glyph glyph-name="naira" unicode="&#x20a6;" horiz-adv-x="599" 
d="M571 241h-80v-241h-66l-99 241h-174v-241h-44v241h-80v37h80v148h-80v37h80v237h71l98 -237h170v237h44v-237h80v-37h-80v-148h80v-37zM152 426v-148h157l-62 148h-95zM292 426l62 -148h93v148h-155zM152 651v-190h80zM369 243l78 -185v185h-78z" />
    <glyph glyph-name="peso" unicode="&#x20b1;" horiz-adv-x="510" 
d="M95 0v460h-79v37h79v203h116c129 0 215 -78 221 -203h80v-37h-81c-7 -128 -97 -209 -228 -209h-61v-251h-47zM207 293c107 0 172 65 178 168h-243v-168h65zM142 658v-162h243c-5 104 -75 162 -177 162h-66z" />
    <glyph glyph-name="R_p" horiz-adv-x="843" 
d="M60 0v700h126c124 0 205 -79 205 -207v-2c0 -103 -53 -174 -133 -201l149 -290h-53l-142 280c-4 -1 -16 -1 -24 -1h-83v-279h-45zM481 -141v665h43v-100c26 57 67 108 129 108c80 0 156 -96 156 -264v-15c0 -166 -76 -261 -156 -261c-62 0 -104 48 -129 104v-237h-43z
M648 30c65 0 117 81 117 224v13c0 142 -53 227 -117 227c-62 0 -126 -85 -126 -224v-19c0 -138 64 -221 126 -221zM105 318h85c94 0 156 64 156 172v2c0 109 -64 167 -163 167h-78v-341z" />
    <glyph glyph-name="rupee" unicode="&#x20a8;" horiz-adv-x="768" 
d="M598 -7c-48 0 -104 17 -150 61l28 37c35 -35 80 -57 124 -57c57 0 91 40 91 91v2c0 46 -30 75 -100 119c-86 54 -122 91 -122 154v2c0 70 53 126 134 126c45 0 89 -14 130 -45l-27 -38c-32 28 -71 42 -105 42c-55 0 -88 -36 -88 -82v-2c0 -45 31 -73 99 -116
c88 -56 123 -96 123 -159v-2c0 -79 -55 -133 -137 -133zM60 0v700h126c124 0 205 -79 205 -207v-2c0 -103 -53 -174 -133 -201l149 -290h-53l-142 280c-4 -1 -16 -1 -24 -1h-83v-279h-45zM105 318h85c94 0 156 64 156 172v2c0 109 -64 167 -163 167h-78v-341z" />
    <glyph glyph-name="won" unicode="&#x20a9;" horiz-adv-x="787" 
d="M718 700l-43 -236h93v-37h-100l-28 -150h128v-37h-135l-44 -243h-56l-52 243h-175l-52 -243h-56l-45 243h-134v37h128l-28 150h-100v37h93l-43 236h49l39 -236h159l49 237h60l49 -237h157l41 236h46zM346 427l-32 -150h158l-31 150h-95zM163 427l25 -150h89l30 150h-144z
M482 427l31 -150h88l25 150h-144zM393 650l-39 -186h80l-38 186h-3zM226 47h4l39 193h-75zM560 47h3l32 193h-75z" />
    <glyph glyph-name="sheqel" unicode="&#x20aa;" horiz-adv-x="475" 
d="M178 139l-24 210h41l24 -199c9 -74 29 -110 90 -110h68v470h43v-510h-116c-79 0 -115 43 -126 139zM269 358c0 81 -26 112 -86 112h-85v-470h-43v510h133c80 0 122 -43 122 -150v-189h-41v187z" />
    <glyph glyph-name="numbersign" unicode="#" horiz-adv-x="497" 
d="M439 229v-43h-97l-20 -186h-39l20 186h-145l-20 -186h-40l20 186h-87v43h92l27 244h-92v42h96l21 185h39l-20 -185h145l20 185h40l-21 -185h87v-42h-91l-27 -244h92zM189 473l-26 -244h145l26 244h-145z" />
    <glyph glyph-name="paragraph" unicode="&#xb6;" horiz-adv-x="379" 
d="M263 0v265h-2c-140 0 -229 84 -229 218v2c0 132 87 215 221 215h57v-700h-47z" />
    <glyph glyph-name="section" unicode="&#xa7;" horiz-adv-x="455" 
d="M290 218c48 -33 72 -63 72 -108v-2c0 -67 -58 -116 -142 -116c-53 0 -100 17 -141 49l24 35c32 -24 71 -42 121 -42c59 0 91 32 91 74v2c0 43 -35 69 -129 109c-115 49 -149 84 -149 140v2c0 53 39 105 128 121c-48 33 -72 63 -72 108v2c0 67 58 116 142 116
c53 0 100 -17 141 -49l-24 -35c-32 24 -71 42 -121 42c-59 0 -91 -32 -91 -74v-2c0 -43 35 -69 129 -109c115 -49 149 -84 149 -140v-2c0 -53 -39 -105 -128 -121zM259 247c61 0 114 37 114 88v4c0 37 -24 65 -110 99c-31 12 -51 15 -67 15c-61 0 -114 -37 -114 -88v-4
c0 -37 24 -65 110 -99c31 -12 51 -15 67 -15z" />
    <glyph glyph-name="ordfeminine" unicode="&#xaa;" horiz-adv-x="299" 
d="M132 406c-43 0 -81 34 -81 89v5c0 56 36 92 92 92c22 0 40 -4 57 -10v22c0 41 -23 64 -61 64c-23 0 -45 -7 -62 -16l-12 31c25 12 48 19 77 19c31 0 56 -10 72 -29c14 -15 21 -39 21 -67v-195h-35v37c-16 -26 -39 -42 -68 -42zM136 438c35 0 64 32 64 73v40
c-16 6 -33 10 -56 10c-37 0 -58 -26 -58 -60v-4c0 -35 20 -59 50 -59zM50 312v32h195v-32h-195z" />
    <glyph glyph-name="ordmasculine" unicode="&#xba;" horiz-adv-x="299" 
d="M149 406c-63 0 -104 62 -104 145v7c0 84 42 146 105 146s105 -62 105 -145v-7c0 -84 -43 -146 -106 -146zM48 312v32h204v-32h-204zM150 440c44 0 67 52 67 111v7c0 59 -24 111 -68 111s-67 -52 -67 -110v-7c0 -60 24 -112 68 -112z" />
    <glyph glyph-name="degree" unicode="&#xb0;" horiz-adv-x="319" 
d="M159 406c-63 0 -117 59 -117 147v6c0 89 54 148 117 148c64 0 118 -59 118 -148v-6c0 -88 -54 -147 -118 -147zM159 444c45 0 77 45 77 109v6c0 64 -32 110 -77 110s-76 -46 -76 -110v-6c0 -64 31 -109 76 -109z" />
    <glyph glyph-name="percent" unicode="%" horiz-adv-x="613" 
d="M157 365c-68 0 -120 67 -120 167v6c0 101 53 168 121 168s121 -67 121 -167v-6c0 -101 -53 -168 -122 -168zM157 666c-45 0 -78 -52 -78 -127v-6c0 -78 35 -128 79 -128c45 0 78 51 78 127v6c0 77 -34 128 -79 128zM290 358l187 342h43l-198 -359l-185 -341h-43zM455 -6
c-68 0 -120 67 -120 167v6c0 101 53 168 121 168s121 -67 121 -167v-6c0 -101 -53 -168 -122 -168zM456 34c45 0 78 51 78 127v6c0 77 -34 128 -79 128s-78 -52 -78 -127v-6c0 -78 35 -128 79 -128z" />
    <glyph glyph-name="perthousand" unicode="&#x2030;" horiz-adv-x="909" 
d="M158 405c45 0 78 51 78 127v6c0 77 -34 128 -79 128s-78 -52 -78 -127v-6c0 -78 35 -128 79 -128zM157 365c-68 0 -120 67 -120 167v6c0 101 53 168 121 168s121 -67 121 -167v-6c0 -101 -53 -168 -122 -168zM520 700l-198 -359l-185 -341h-43l196 358l187 342h43z
M456 34c45 0 78 51 78 127v6c0 77 -34 128 -79 128s-78 -52 -78 -127v-6c0 -78 35 -128 79 -128zM455 -6c-68 0 -120 67 -120 167v6c0 101 53 168 121 168s121 -67 121 -167v-6c0 -101 -53 -168 -122 -168zM752 34c46 0 78 51 78 127v6c0 77 -34 128 -79 128
s-78 -52 -78 -127v-6c0 -78 35 -128 79 -128zM751 -6c-67 0 -120 67 -120 167v6c0 101 53 168 121 168s121 -67 121 -167v-6c0 -101 -53 -168 -122 -168z" />
    <glyph glyph-name="quotedbl" unicode="&#x22;" horiz-adv-x="294" 
d="M184 454l12 246h55v-8l-45 -238h-22zM52 454l13 246h55v-8l-45 -238h-23z" />
    <glyph glyph-name="quotesingle" unicode="'" horiz-adv-x="156" 
d="M52 454l13 246h55v-8l-45 -238h-23z" />
    <glyph glyph-name="plus" unicode="+" horiz-adv-x="438" 
d="M197 174v157h-154v42h154v157h44v-157h154v-42h-154v-157h-44z" />
    <glyph glyph-name="minus" unicode="&#x2212;" horiz-adv-x="438" 
d="M395 329h-352v46h352v-46z" />
    <glyph glyph-name="divide" unicode="&#xf7;" horiz-adv-x="438" 
d="M187 464v77h64v-77h-64zM395 329h-352v46h352v-46zM187 163v77h64v-77h-64z" />
    <glyph glyph-name="equal" unicode="=" horiz-adv-x="438" 
d="M51 414v45h336v-45h-336zM51 245v45h336v-45h-336z" />
    <glyph glyph-name="multiply" unicode="&#xd7;" horiz-adv-x="438" 
d="M341 191l-122 131l-123 -131l-31 29l126 132l-126 131l32 30l122 -131l123 131l31 -29l-126 -132l126 -131z" />
    <glyph glyph-name="less" unicode="&#x3c;" horiz-adv-x="438" 
d="M372 149l-324 183v40l324 183v-52l-274 -151l274 -151v-52z" />
    <glyph glyph-name="greater" unicode="&#x3e;" horiz-adv-x="438" 
d="M66 149v52l274 151l-274 151v52l324 -183v-40z" />
    <glyph glyph-name="plusminus" unicode="&#xb1;" horiz-adv-x="438" 
d="M392 341h-151v-152h-44v152h-151v43h151v152h44v-152h151v-43zM392 63h-346v43h346v-43z" />
    <glyph glyph-name="onehalf" unicode="&#xbd;" horiz-adv-x="620" 
d="M357 0v26l126 149c33 40 49 65 49 97c0 38 -29 59 -63 59c-43 0 -68 -30 -85 -48l-24 24c31 36 62 59 111 59c57 0 99 -38 99 -93c0 -47 -22 -74 -58 -117l-103 -121h165v-35h-217zM86 0l181 357l170 344h38l-180 -358l-171 -343h-38zM158 340h-36v321l-75 -36l-4 36
l83 41h32v-362z" />
    <glyph glyph-name="onehalf.alt" horiz-adv-x="675" 
d="M256 340h-213v33h92v290l-87 -39l-3 37l94 43h33v-331h84v-33zM423 0v26l126 149c33 40 49 65 49 97c0 38 -29 59 -63 59c-43 0 -68 -30 -85 -48l-24 24c31 36 62 59 111 59c57 0 99 -38 99 -93c0 -47 -22 -74 -58 -117l-103 -121h165v-35h-217zM156 0l181 357l170 344
h38l-180 -358l-171 -343h-38z" />
    <glyph glyph-name="onethird" unicode="&#x2153;" horiz-adv-x="620" 
d="M465 -6c-48 0 -83 23 -106 46l22 26c20 -19 46 -39 87 -39c39 0 74 26 74 74c0 47 -37 73 -105 74h-10l-3 23l105 128h-156v35h203v-28l-106 -128c63 -10 109 -40 109 -105c0 -64 -53 -106 -114 -106zM158 340h-36v321l-75 -36l-4 36l83 41h32v-362zM80 0l181 357
l170 344h38l-180 -358l-171 -343h-38z" />
    <glyph glyph-name="onethird.alt" horiz-adv-x="675" 
d="M257 340h-213v33h92v290l-87 -39l-3 37l94 43h33v-331h84v-33zM524 -6c-48 0 -83 23 -106 46l22 26c20 -19 46 -39 87 -39c39 0 74 26 74 74c0 47 -37 73 -105 74h-10l-3 23l105 128h-156v35h203v-28l-106 -128c63 -10 109 -40 109 -105c0 -64 -53 -106 -114 -106zM150 0
l181 357l170 344h38l-180 -358l-171 -343h-38z" />
    <glyph glyph-name="twothirds" unicode="&#x2154;" horiz-adv-x="675" 
d="M524 -6c-48 0 -83 23 -106 46l22 26c20 -19 46 -39 87 -39c39 0 74 26 74 74c0 47 -37 73 -105 74h-10l-3 23l105 128h-156v35h203v-28l-106 -128c63 -10 109 -40 109 -105c0 -64 -53 -106 -114 -106zM37 340v26l126 149c33 40 49 65 49 97c0 38 -29 59 -63 59
c-43 0 -68 -30 -85 -48l-24 24c31 36 62 59 111 59c57 0 99 -38 99 -93c0 -47 -22 -74 -58 -117l-103 -121h165v-35h-217zM146 0l181 357l170 344h38l-180 -358l-171 -343h-38z" />
    <glyph glyph-name="onequarter" unicode="&#xbc;" horiz-adv-x="620" 
d="M158 340h-36v321l-75 -36l-4 36l83 41h32v-362zM108 0l181 357l170 344h38l-180 -358l-171 -343h-38zM539 78v-79h-34v79h-154l-4 27l150 258h42v-254h42v-31h-42zM505 109v201h-3l-116 -201h119z" />
    <glyph glyph-name="onequarter.alt" horiz-adv-x="675" 
d="M260 340h-213v33h92v290l-87 -39l-3 37l94 43h33v-331h84v-33zM164 0l181 357l170 344h38l-180 -358l-171 -343h-38zM600 78v-79h-34v79h-154l-4 27l150 258h42v-254h42v-31h-42zM566 109v201h-3l-116 -201h119z" />
    <glyph glyph-name="threequarters" unicode="&#xbe;" horiz-adv-x="675" 
d="M597 78v-79h-34v79h-154l-4 27l150 258h42v-254h42v-31h-42zM563 109v201h-3l-116 -201h119zM164 0l181 357l170 344h38l-180 -358l-171 -343h-38zM142 334c-48 0 -83 23 -106 46l22 26c20 -19 46 -39 87 -39c39 0 74 26 74 74c0 47 -37 73 -105 74h-10l-3 23l105 128
h-156v35h203v-28l-106 -128c63 -10 109 -40 109 -105c0 -64 -53 -106 -114 -106z" />
    <glyph glyph-name="onefifth" unicode="&#x2155;" horiz-adv-x="620" 
d="M462 -6c-33 0 -74 14 -102 42l21 28c22 -21 50 -37 82 -37c51 0 76 38 76 84c0 53 -34 76 -77 76c-24 0 -44 -7 -62 -17l-25 13l12 177h173v-36h-141l-9 -116c15 6 35 12 58 12c61 0 108 -40 108 -108s-45 -118 -114 -118zM158 340h-36v321l-75 -36l-4 36l83 41h32v-362z
M83 0l181 357l170 344h38l-180 -358l-171 -343h-38z" />
    <glyph glyph-name="onefifth.alt" horiz-adv-x="675" 
d="M257 340h-213v33h92v290l-87 -39l-3 37l94 43h33v-331h84v-33zM527 -6c-33 0 -74 14 -102 42l21 28c22 -21 50 -37 82 -37c51 0 76 38 76 84c0 53 -34 76 -77 76c-24 0 -44 -7 -62 -17l-25 13l12 177h173v-36h-141l-9 -116c15 6 35 12 58 12c61 0 108 -40 108 -108
s-45 -118 -114 -118zM155 0l181 357l170 344h38l-180 -358l-171 -343h-38z" />
    <glyph glyph-name="twofifths" unicode="&#x2156;" horiz-adv-x="675" 
d="M530 -6c-33 0 -74 14 -102 42l21 28c22 -21 50 -37 82 -37c51 0 76 38 76 84c0 53 -34 76 -77 76c-24 0 -44 -7 -62 -17l-25 13l12 177h173v-36h-141l-9 -116c15 6 35 12 58 12c61 0 108 -40 108 -108s-45 -118 -114 -118zM152 0l181 357l170 344h38l-180 -358l-171 -343
h-38zM37 340v26l126 149c33 40 49 65 49 97c0 38 -29 59 -63 59c-43 0 -68 -30 -85 -48l-24 24c31 36 62 59 111 59c57 0 99 -38 99 -93c0 -47 -22 -74 -58 -117l-103 -121h165v-35h-217z" />
    <glyph glyph-name="threefifths" unicode="&#x2157;" horiz-adv-x="675" 
d="M530 -6c-33 0 -74 14 -102 42l21 28c22 -21 50 -37 82 -37c51 0 76 38 76 84c0 53 -34 76 -77 76c-24 0 -44 -7 -62 -17l-25 13l12 177h173v-36h-141l-9 -116c15 6 35 12 58 12c61 0 108 -40 108 -108s-45 -118 -114 -118zM142 0l181 357l170 344h38l-180 -358l-171 -343
h-38zM132 334c-48 0 -83 23 -106 46l22 26c20 -19 46 -39 87 -39c39 0 74 26 74 74c0 47 -37 73 -105 74h-10l-3 23l105 128h-156v35h203v-28l-106 -128c63 -10 109 -40 109 -105c0 -64 -53 -106 -114 -106z" />
    <glyph glyph-name="fourfifths" unicode="&#x2158;" horiz-adv-x="675" 
d="M222 418v-79h-34v79h-154l-4 27l150 258h42v-254h42v-31h-42zM188 449v201h-3l-116 -201h119zM530 -6c-33 0 -74 14 -102 42l21 28c22 -21 50 -37 82 -37c51 0 76 38 76 84c0 53 -34 76 -77 76c-24 0 -44 -7 -62 -17l-25 13l12 177h173v-36h-141l-9 -116
c15 6 35 12 58 12c61 0 108 -40 108 -108s-45 -118 -114 -118zM148 0l181 357l170 344h38l-180 -358l-171 -343h-38z" />
    <glyph glyph-name="onesixth" unicode="&#x2159;" horiz-adv-x="620" 
d="M465 -6c-28 0 -53 10 -69 26c-25 24 -40 63 -40 137v10c0 135 54 199 126 199c32 0 58 -12 77 -27l-19 -30c-15 12 -33 23 -58 23c-51 0 -88 -48 -91 -147c17 29 47 44 80 44c55 0 101 -38 101 -114c0 -71 -46 -121 -107 -121zM89 0l181 357l170 344h38l-180 -358
l-171 -343h-38zM465 27c45 0 71 35 71 88c0 54 -29 81 -70 81c-37 0 -71 -28 -71 -81c0 -52 26 -88 70 -88zM158 340h-36v321l-75 -36l-4 36l83 41h32v-362z" />
    <glyph glyph-name="onesixth.alt" horiz-adv-x="675" 
d="M536 -6c-28 0 -53 10 -69 26c-25 24 -40 63 -40 137v10c0 135 54 199 126 199c32 0 58 -12 77 -27l-19 -30c-15 12 -33 23 -58 23c-51 0 -88 -48 -91 -147c17 29 47 44 80 44c55 0 101 -38 101 -114c0 -71 -46 -121 -107 -121zM159 0l181 357l170 344h38l-180 -358
l-171 -343h-38zM257 340h-213v33h92v290l-87 -39l-3 37l94 43h33v-331h84v-33zM536 27c45 0 71 35 71 88c0 54 -29 81 -70 81c-37 0 -71 -28 -71 -81c0 -52 26 -88 70 -88z" />
    <glyph glyph-name="fivesixths" unicode="&#x215a;" horiz-adv-x="675" 
d="M533 -6c-28 0 -53 10 -69 26c-25 24 -40 63 -40 137v10c0 135 54 199 126 199c32 0 58 -12 77 -27l-19 -30c-15 12 -33 23 -58 23c-51 0 -88 -48 -91 -147c17 29 47 44 80 44c55 0 101 -38 101 -114c0 -71 -46 -121 -107 -121zM139 334c-33 0 -74 14 -102 42l21 28
c22 -21 50 -37 82 -37c51 0 76 38 76 84c0 53 -34 76 -77 76c-24 0 -44 -7 -62 -17l-25 13l12 177h173v-36h-141l-9 -116c15 6 35 12 58 12c61 0 108 -40 108 -108s-45 -118 -114 -118zM144 0l181 357l170 344h38l-180 -358l-171 -343h-38zM533 27c45 0 71 35 71 88
c0 54 -29 81 -70 81c-37 0 -71 -28 -71 -81c0 -52 26 -88 70 -88z" />
    <glyph glyph-name="oneeighth" unicode="&#x215b;" horiz-adv-x="620" 
d="M465 -6c-65 0 -109 40 -109 102c0 41 24 74 60 90c-29 15 -51 45 -51 84c0 60 47 96 101 96c53 0 100 -36 100 -96c0 -39 -22 -69 -52 -84c37 -15 61 -49 61 -89c0 -63 -45 -103 -110 -103zM465 333c-38 0 -64 -26 -64 -63c0 -38 26 -68 64 -68c39 0 65 30 65 68
c0 37 -26 63 -65 63zM465 169c-43 0 -74 -31 -74 -73c0 -40 29 -69 74 -69c46 0 75 29 75 69c0 42 -31 73 -75 73zM158 340h-36v321l-75 -36l-4 36l83 41h32v-362zM89 0l181 357l170 344h38l-180 -358l-171 -343h-38z" />
    <glyph glyph-name="oneeighth.alt" horiz-adv-x="675" 
d="M257 340h-213v33h92v290l-87 -39l-3 37l94 43h33v-331h84v-33zM536 -6c-65 0 -109 40 -109 102c0 41 24 74 60 90c-29 15 -51 45 -51 84c0 60 47 96 101 96c53 0 100 -36 100 -96c0 -39 -22 -69 -52 -84c37 -15 61 -49 61 -89c0 -63 -45 -103 -110 -103zM536 333
c-38 0 -64 -26 -64 -63c0 -38 26 -68 64 -68c39 0 65 30 65 68c0 37 -26 63 -65 63zM536 169c-43 0 -74 -31 -74 -73c0 -40 29 -69 74 -69c46 0 75 29 75 69c0 42 -31 73 -75 73zM159 0l181 357l170 344h38l-180 -358l-171 -343h-38z" />
    <glyph glyph-name="threeeighths" unicode="&#x215c;" horiz-adv-x="675" 
d="M533 -6c-65 0 -109 40 -109 102c0 41 24 74 60 90c-29 15 -51 45 -51 84c0 60 47 96 101 96c53 0 100 -36 100 -96c0 -39 -22 -69 -52 -84c37 -15 61 -49 61 -89c0 -63 -45 -103 -110 -103zM533 333c-38 0 -64 -26 -64 -63c0 -38 26 -68 64 -68c39 0 65 30 65 68
c0 37 -26 63 -65 63zM533 169c-43 0 -74 -31 -74 -73c0 -40 29 -69 74 -69c46 0 75 29 75 69c0 42 -31 73 -75 73zM144 0l181 357l170 344h38l-180 -358l-171 -343h-38zM136 334c-48 0 -83 23 -106 46l22 26c20 -19 46 -39 87 -39c39 0 74 26 74 74c0 47 -37 73 -105 74h-10
l-3 23l105 128h-156v35h203v-28l-106 -128c63 -10 109 -40 109 -105c0 -64 -53 -106 -114 -106z" />
    <glyph glyph-name="fiveeighths" unicode="&#x215d;" horiz-adv-x="675" 
d="M533 -6c-65 0 -109 40 -109 102c0 41 24 74 60 90c-29 15 -51 45 -51 84c0 60 47 96 101 96c53 0 100 -36 100 -96c0 -39 -22 -69 -52 -84c37 -15 61 -49 61 -89c0 -63 -45 -103 -110 -103zM533 333c-38 0 -64 -26 -64 -63c0 -38 26 -68 64 -68c39 0 65 30 65 68
c0 37 -26 63 -65 63zM533 169c-43 0 -74 -31 -74 -73c0 -40 29 -69 74 -69c46 0 75 29 75 69c0 42 -31 73 -75 73zM144 0l181 357l170 344h38l-180 -358l-171 -343h-38zM139 334c-33 0 -74 14 -102 42l21 28c22 -21 50 -37 82 -37c51 0 76 38 76 84c0 53 -34 76 -77 76
c-24 0 -44 -7 -62 -17l-25 13l12 177h173v-36h-141l-9 -116c15 6 35 12 58 12c61 0 108 -40 108 -108s-45 -118 -114 -118z" />
    <glyph glyph-name="seveneighths" unicode="&#x215e;" horiz-adv-x="675" 
d="M521 -6c-65 0 -109 40 -109 102c0 41 24 74 60 90c-29 15 -51 45 -51 84c0 60 47 96 101 96c53 0 100 -36 100 -96c0 -39 -22 -69 -52 -84c37 -15 61 -49 61 -89c0 -63 -45 -103 -110 -103zM521 333c-38 0 -64 -26 -64 -63c0 -38 26 -68 64 -68c39 0 65 30 65 68
c0 37 -26 63 -65 63zM521 169c-43 0 -74 -31 -74 -73c0 -40 29 -69 74 -69c46 0 75 29 75 69c0 42 -31 73 -75 73zM120 339h-40l140 325h-170v36h209v-29zM110 0l181 357l170 344h38l-180 -358l-171 -343h-38z" />
    <glyph glyph-name="zero.sup" unicode="&#x2070;" 
d="M152 446c-69 0 -110 63 -110 183v5c0 120 41 184 110 184s110 -62 110 -183v-5c0 -119 -42 -184 -110 -184zM152 784c-47 0 -73 -53 -73 -149v-5c0 -96 28 -150 73 -150s73 53 73 149v5c0 96 -27 150 -73 150z" />
    <glyph glyph-name="one.sup" unicode="&#xb9;" horiz-adv-x="244" 
d="M156 452h-36v321l-75 -36l-4 36l83 41h32v-362z" />
    <glyph glyph-name="one.sup_alt" 
d="M267 452h-213v33h92v290l-87 -39l-3 37l94 43h33v-331h84v-33z" />
    <glyph glyph-name="two.sup" unicode="&#xb2;" 
d="M41 452v26l126 149c33 40 49 65 49 97c0 38 -29 59 -63 59c-43 0 -68 -30 -85 -48l-24 24c31 36 62 59 111 59c57 0 99 -38 99 -93c0 -47 -22 -74 -58 -117l-103 -121h165v-35h-217z" />
    <glyph glyph-name="three.sup" unicode="&#xb3;" 
d="M140 446c-48 0 -83 23 -106 46l22 26c20 -19 46 -39 87 -39c39 0 74 26 74 74c0 47 -37 73 -105 74h-10l-3 23l105 128h-156v35h203v-28l-106 -128c63 -10 109 -40 109 -105c0 -64 -53 -106 -114 -106z" />
    <glyph glyph-name="four.sup" unicode="&#x2074;" 
d="M229 530v-79h-34v79h-154l-4 27l150 258h42v-254h42v-31h-42zM195 561v201h-3l-116 -201h119z" />
    <glyph glyph-name="five.sup" unicode="&#x2075;" 
d="M143 446c-33 0 -74 14 -102 42l21 28c22 -21 50 -37 82 -37c51 0 76 38 76 84c0 53 -34 76 -77 76c-24 0 -44 -7 -62 -17l-25 13l12 177h173v-36h-141l-9 -116c15 6 35 12 58 12c61 0 108 -40 108 -108s-45 -118 -114 -118z" />
    <glyph glyph-name="six.sup" unicode="&#x2076;" 
d="M152 446c-28 0 -53 10 -69 26c-25 24 -40 63 -40 137v10c0 135 54 199 126 199c32 0 58 -12 77 -27l-19 -30c-15 12 -33 23 -58 23c-51 0 -88 -48 -91 -147c17 29 47 44 80 44c55 0 101 -38 101 -114c0 -71 -46 -121 -107 -121zM152 479c45 0 71 35 71 88
c0 54 -29 81 -70 81c-37 0 -71 -28 -71 -81c0 -52 26 -88 70 -88z" />
    <glyph glyph-name="seven.sup" unicode="&#x2077;" 
d="M118 451h-40l140 325h-170v36h209v-29z" />
    <glyph glyph-name="eight.sup" unicode="&#x2078;" 
d="M152 446c-65 0 -109 40 -109 102c0 41 24 74 60 90c-29 15 -51 45 -51 84c0 60 47 96 101 96c53 0 100 -36 100 -96c0 -39 -22 -69 -52 -84c37 -15 61 -49 61 -89c0 -63 -45 -103 -110 -103zM152 785c-38 0 -64 -26 -64 -63c0 -38 26 -68 64 -68c39 0 65 30 65 68
c0 37 -26 63 -65 63zM152 621c-43 0 -74 -31 -74 -73c0 -40 29 -69 74 -69c46 0 75 29 75 69c0 42 -31 73 -75 73z" />
    <glyph glyph-name="nine.sup" unicode="&#x2079;" 
d="M154 818c25 0 51 -9 68 -26c24 -23 40 -63 40 -137v-10c0 -135 -54 -199 -126 -199c-32 0 -59 12 -82 29l19 30c19 -14 38 -25 63 -25c51 0 88 48 91 143c-17 -29 -47 -44 -80 -44c-55 0 -101 39 -101 116c0 72 46 123 108 123zM152 612c37 0 71 28 71 85
c0 53 -26 88 -70 88c-45 0 -71 -35 -71 -90s29 -83 70 -83z" />
    <glyph glyph-name="zero.inf" unicode="&#x2080;" 
d="M152 -138c-69 0 -110 63 -110 183v5c0 120 41 184 110 184s110 -62 110 -183v-5c0 -119 -42 -184 -110 -184zM152 200c-47 0 -73 -53 -73 -149v-5c0 -96 28 -150 73 -150s73 53 73 149v5c0 96 -27 150 -73 150z" />
    <glyph glyph-name="one.inf" unicode="&#x2081;" horiz-adv-x="244" 
d="M156 -132h-36v321l-75 -36l-4 36l83 41h32v-362z" />
    <glyph glyph-name="one.inf_alt" 
d="M267 -132h-213v33h92v290l-87 -39l-3 37l94 43h33v-331h84v-33z" />
    <glyph glyph-name="two.inf" unicode="&#x2082;" 
d="M41 -132v26l126 149c33 40 49 65 49 97c0 38 -29 59 -63 59c-43 0 -68 -30 -85 -48l-24 24c31 36 62 59 111 59c57 0 99 -38 99 -93c0 -47 -22 -74 -58 -117l-103 -121h165v-35h-217z" />
    <glyph glyph-name="three.inf" unicode="&#x2083;" 
d="M140 -138c-48 0 -83 23 -106 46l22 26c20 -19 46 -39 87 -39c39 0 74 26 74 74c0 47 -37 73 -105 74h-10l-3 23l105 128h-156v35h203v-28l-106 -128c63 -10 109 -40 109 -105c0 -64 -53 -106 -114 -106z" />
    <glyph glyph-name="four.inf" unicode="&#x2084;" 
d="M229 -54v-79h-34v79h-154l-4 27l150 258h42v-254h42v-31h-42zM195 -23v201h-3l-116 -201h119z" />
    <glyph glyph-name="five.inf" unicode="&#x2085;" 
d="M143 -138c-33 0 -74 14 -102 42l21 28c22 -21 50 -37 82 -37c51 0 76 38 76 84c0 53 -34 76 -77 76c-24 0 -44 -7 -62 -17l-25 13l12 177h173v-36h-141l-9 -116c15 6 35 12 58 12c61 0 108 -40 108 -108s-45 -118 -114 -118z" />
    <glyph glyph-name="six.inf" unicode="&#x2086;" 
d="M152 -138c-28 0 -53 10 -69 26c-25 24 -40 63 -40 137v10c0 135 54 199 126 199c32 0 58 -12 77 -27l-19 -30c-15 12 -33 23 -58 23c-51 0 -88 -48 -91 -147c17 29 47 44 80 44c55 0 101 -38 101 -114c0 -71 -46 -121 -107 -121zM152 -105c45 0 71 35 71 88
c0 54 -29 81 -70 81c-37 0 -71 -28 -71 -81c0 -52 26 -88 70 -88z" />
    <glyph glyph-name="seven.inf" unicode="&#x2087;" 
d="M118 -133h-40l140 325h-170v36h209v-29z" />
    <glyph glyph-name="eight.inf" unicode="&#x2088;" 
d="M152 -138c-65 0 -109 40 -109 102c0 41 24 74 60 90c-29 15 -51 45 -51 84c0 60 47 96 101 96c53 0 100 -36 100 -96c0 -39 -22 -69 -52 -84c37 -15 61 -49 61 -89c0 -63 -45 -103 -110 -103zM152 201c-38 0 -64 -26 -64 -63c0 -38 26 -68 64 -68c39 0 65 30 65 68
c0 37 -26 63 -65 63zM152 37c-43 0 -74 -31 -74 -73c0 -40 29 -69 74 -69c46 0 75 29 75 69c0 42 -31 73 -75 73z" />
    <glyph glyph-name="nine.inf" unicode="&#x2089;" 
d="M154 234c25 0 51 -9 68 -26c24 -23 40 -63 40 -137v-10c0 -135 -54 -199 -126 -199c-32 0 -59 12 -82 29l19 30c19 -14 38 -25 63 -25c51 0 88 48 91 143c-17 -29 -47 -44 -80 -44c-55 0 -101 39 -101 116c0 72 46 123 108 123zM152 28c37 0 71 28 71 85
c0 53 -26 88 -70 88c-45 0 -71 -35 -71 -90s29 -83 70 -83z" />
    <glyph glyph-name="zero.tab" horiz-adv-x="450" 
d="M225 -9c-110 0 -179 112 -179 352v12c0 240 68 354 179 354s179 -112 179 -352v-12c0 -240 -69 -354 -179 -354zM225 667c-83 0 -132 -106 -132 -310v-12c0 -204 50 -312 132 -312c81 0 132 106 132 310v12c0 204 -49 312 -132 312z" />
    <glyph glyph-name="one.tab" horiz-adv-x="450" 
d="M415 0h-350v43h160v604l-149 -77l-5 48l161 84h39v-659h144v-43z" />
    <glyph glyph-name="two.tab" horiz-adv-x="450" 
d="M396 0h-354v33l205 297c62 90 94 144 94 207c-1 79 -51 127 -116 127c-58 0 -97 -29 -140 -86l-32 28c45 64 97 103 174 103c95 0 163 -70 163 -168v-3c0 -78 -39 -132 -104 -228l-183 -265h293v-45z" />
    <glyph glyph-name="three.tab" horiz-adv-x="450" 
d="M204 -9c-68 0 -123 28 -166 74l30 35c31 -30 70 -66 140 -66c80 0 140 60 140 160v5c0 98 -70 149 -188 149h-10l-7 31l189 275h-276v46h334v-36l-191 -277c102 -8 197 -62 197 -187v-5c0 -125 -86 -204 -192 -204z" />
    <glyph glyph-name="three.tab_alt" horiz-adv-x="450" 
d="M206 -9c-62 0 -119 23 -168 76l29 34c46 -49 91 -67 139 -67c83 0 140 58 140 154c0 98 -72 151 -181 151h-22v42h24c97 0 174 61 174 159c0 77 -52 126 -124 126c-51 0 -96 -23 -138 -71l-29 29c47 54 103 85 170 85c103 0 168 -72 168 -169s-63 -151 -130 -178
c79 -23 136 -81 136 -175c0 -114 -77 -196 -188 -196z" />
    <glyph glyph-name="four.tab" horiz-adv-x="450" 
d="M304 0v164h-265l-5 38l261 503h52v-500h73v-41h-73v-164h-43zM304 205v422h-3l-221 -422h224z" />
    <glyph glyph-name="five.tab" horiz-adv-x="450" 
d="M205 -9c-66 0 -118 28 -159 68l27 35c38 -37 80 -61 133 -61c90 0 144 73 144 178v3c0 109 -61 161 -139 161c-45 0 -80 -16 -108 -36l-33 22l18 339h282v-45h-241l-14 -265c24 16 58 29 101 29c100 0 182 -69 182 -202v-3c0 -132 -80 -223 -193 -223z" />
    <glyph glyph-name="six.tab" horiz-adv-x="450" 
d="M235 -9c-43 0 -80 15 -109 44c-45 45 -72 121 -72 274v17c0 252 82 383 209 383c47 0 81 -13 121 -46l-24 -38c-28 24 -56 40 -99 40c-101 0 -158 -120 -163 -323c27 59 80 97 142 97c93 0 169 -73 169 -213v-4c0 -138 -75 -231 -174 -231zM237 33c79 0 125 84 125 188v4
c0 112 -53 172 -125 172c-71 0 -128 -66 -128 -174v-3c0 -105 42 -187 128 -187z" />
    <glyph glyph-name="seven.tab" horiz-adv-x="450" 
d="M349 655h-294v45h343v-38l-239 -662h-49z" />
    <glyph glyph-name="eight.tab" horiz-adv-x="450" 
d="M225 -9c-106 0 -178 78 -178 189v6c0 81 43 148 112 175c-57 28 -97 85 -97 166v5c0 111 75 177 163 177s163 -66 163 -177v-5c0 -81 -40 -138 -97 -166c69 -27 112 -94 112 -175v-6c0 -111 -72 -189 -178 -189zM225 32c84 0 132 66 132 149v3c0 90 -56 156 -132 156
c-75 0 -132 -66 -132 -156v-3c0 -83 48 -149 132 -149zM225 380c69 0 117 66 117 145v4c0 81 -46 139 -117 139s-117 -58 -117 -139v-4c0 -79 48 -145 117 -145z" />
    <glyph glyph-name="nine.tab" horiz-adv-x="450" 
d="M191 -9c-47 0 -82 14 -131 51l24 38c37 -30 66 -45 109 -45c100 0 158 120 162 316c-27 -59 -80 -96 -141 -96c-93 0 -169 74 -169 216v4c0 140 75 234 174 234c43 0 80 -15 109 -44c45 -45 72 -121 72 -274v-17c0 -252 -82 -383 -209 -383zM217 297c71 0 128 67 128 177
v3c0 107 -42 190 -128 190c-79 0 -125 -85 -125 -191v-4c0 -114 53 -175 125 -175z" />
    <glyph glyph-name="period.tab" horiz-adv-x="225" 
d="M74 0v92h77v-92h-77z" />
    <glyph glyph-name="comma.tab" horiz-adv-x="225" 
d="M68 -104l-12 25c40 18 55 41 52 79h-34v92h77v-81c0 -62 -27 -90 -83 -115z" />
    <glyph glyph-name="colon.tab" horiz-adv-x="225" 
d="M74 427v92h77v-92h-77zM74 0v92h77v-92h-77z" />
    <glyph glyph-name="semicolon.tab" horiz-adv-x="225" 
d="M74 427v92h77v-92h-77zM68 -104l-12 25c40 18 55 41 52 79h-34v92h77v-81c0 -62 -27 -90 -83 -115z" />
    <glyph glyph-name="twodotleader.tab" horiz-adv-x="450" 
d="M300 0v87h72v-87h-72zM78 0v87h72v-87h-72z" />
    <glyph glyph-name="periodcentered.tab" horiz-adv-x="225" 
d="M74 252v92h77v-92h-77z" />
    <glyph glyph-name="slash.tab" horiz-adv-x="450" 
d="M423 779l-368 -888h-42l367 888h43z" />
    <glyph glyph-name="bar.tab" horiz-adv-x="225" 
d="M93 -109v888h38v-888h-38z" />
    <glyph glyph-name="underscore.tab" horiz-adv-x="450" 
d="M1 -159v38h448v-38h-448z" />
    <glyph glyph-name="dollar.tab" horiz-adv-x="450" 
d="M279 781l-6 -81c42 -7 81 -26 118 -54l-24 -38c-33 25 -64 43 -99 51l-23 -283c114 -51 161 -107 161 -199v-2c0 -101 -75 -179 -187 -179h-3l-9 -111h-38l9 115c-53 8 -104 31 -147 66l26 37c37 -32 80 -54 125 -62l24 301c-100 43 -155 93 -155 189v1
c0 98 74 172 180 172h3l7 77h38zM360 175c0 72 -32 115 -118 153l-23 -290h1c93 0 140 62 140 136v1zM96 533c0 -71 36 -110 113 -142l22 272h-1c-82 0 -134 -55 -134 -129v-1z" />
    <glyph glyph-name="sterling.tab" horiz-adv-x="450" 
d="M113 360v137c0 73 10 127 52 169c24 24 61 42 112 42c74 0 115 -41 141 -70l-31 -31c-32 35 -67 59 -114 59c-23 0 -51 -5 -74 -28c-31 -31 -40 -76 -40 -138v-140h194v-41h-194v-277h256v-42h-364v22l62 19v278h-65v41h65z" />
    <glyph glyph-name="Euro.tab" horiz-adv-x="450" 
d="M26 417v37h68c23 159 102 253 204 253c52 0 83 -20 116 -53l-28 -32c-23 24 -53 42 -90 42c-80 0 -135 -76 -155 -210h187v-37h-192c-2 -20 -2 -41 -2 -60v-14c0 -17 1 -37 2 -54h192v-38h-188c19 -133 77 -215 155 -215c41 0 67 19 92 46l29 -31
c-32 -34 -70 -58 -122 -58c-105 0 -179 94 -201 258h-67v38h63c-2 17 -2 35 -2 53v16c0 19 0 40 2 59h-63z" />
    <glyph glyph-name="yen.tab" horiz-adv-x="450" 
d="M72 170h131v103h-131v38h122l-173 389h52l153 -360l153 360h50l-174 -389h123v-38h-131v-103h131v-38h-131v-132h-44v132h-131v38z" />
    <glyph glyph-name="cent.tab" horiz-adv-x="450" 
d="M289 704l-7 -85c48 -8 89 -33 119 -67l-27 -31c-22 23 -54 49 -96 56l-32 -452h5c57 0 90 24 123 60l27 -29c-39 -46 -92 -73 -151 -73h-5l-8 -88h-39l7 93c-91 22 -149 114 -149 259v5c0 164 75 263 187 269l7 83h39zM101 348c0 -124 44 -197 109 -217l31 447
c-84 -7 -140 -84 -140 -226v-4z" />
    <glyph glyph-name="numbersign.tab" horiz-adv-x="450" 
d="M25 228h83l20 245h-78v42h81l16 185h38l-15 -185h137l16 185h38l-16 -185h80v-42h-83l-21 -245h79v-41h-82l-16 -187h-38l16 187h-138l-15 -187h-38l15 187h-79v41zM167 473l-22 -245h138l20 245h-136z" />
    <glyph glyph-name="paragraph.tab" horiz-adv-x="450" 
d="M319 0v265h-32c-151 0 -240 85 -240 217v1c0 134 92 217 241 217h78v-700h-47z" />
    <glyph glyph-name="section.tab" horiz-adv-x="450" 
d="M217 -8c-48 0 -95 17 -136 49l24 34c32 -24 71 -42 116 -42c56 0 88 32 88 75v2c0 43 -31 69 -121 109c-115 51 -149 84 -149 140v2c0 53 39 105 128 121c-48 33 -72 63 -72 108v2c0 67 58 116 138 116c48 0 95 -17 136 -49l-24 -34c-32 24 -71 42 -116 42
c-56 0 -88 -32 -88 -75v-2c0 -43 31 -69 121 -109c115 -51 149 -84 149 -140v-2c0 -53 -39 -105 -128 -121c48 -33 72 -63 72 -108v-2c0 -67 -58 -116 -138 -116zM192 453c-58 0 -109 -37 -109 -88v-4c0 -37 24 -65 110 -99c31 -12 48 -15 65 -15c56 0 109 37 109 88v4
c0 37 -24 65 -110 99c-31 12 -48 15 -65 15z" />
    <glyph glyph-name="degree.tab" horiz-adv-x="450" 
d="M225 321c-84 0 -153 76 -153 190v6c0 114 70 191 153 191c84 0 153 -77 153 -191v-6c0 -114 -70 -190 -153 -190zM225 359c67 0 112 62 112 152v6c0 90 -46 153 -112 153c-67 0 -112 -63 -112 -153v-6c0 -90 46 -152 112 -152z" />
    <glyph glyph-name="percent.tab" horiz-adv-x="450" 
d="M123 706c61 0 99 -65 99 -157v-4c0 -93 -38 -159 -99 -159s-100 65 -100 157v4c0 93 39 159 100 159zM327 314c61 0 100 -65 100 -157v-4c0 -92 -39 -159 -100 -159c-60 0 -99 65 -99 158v4c0 93 39 158 99 158zM123 671c-42 0 -61 -54 -61 -122v-6
c0 -68 19 -122 61 -122c41 0 61 54 61 122v6c0 68 -20 122 -61 122zM327 279c-41 0 -61 -54 -61 -122v-6c0 -67 20 -122 61 -122c42 0 61 55 61 122v6c0 68 -19 122 -61 122zM365 700h37l-163 -357l-154 -343h-37l163 356z" />
    <glyph glyph-name="quotedbl.tab" horiz-adv-x="450" 
d="M265 453l35 247h57l-1 -8l-68 -239h-23zM107 453l35 247h56l-1 -8l-68 -239h-22z" />
    <glyph glyph-name="quotesingle.tab" horiz-adv-x="225" 
d="M76 453l36 247h55v-8l-68 -239h-23z" />
    <glyph glyph-name="plus.tab" horiz-adv-x="450" 
d="M400 331h-153v-159h-44v159h-153v42h153v159h44v-159h153v-42z" />
    <glyph glyph-name="minus.tab" horiz-adv-x="450" 
d="M400 329h-350v46h350v-46z" />
    <glyph glyph-name="divide.tab" horiz-adv-x="450" 
d="M193 466v78h64v-78h-64zM400 329h-350v46h350v-46zM193 161v77h64v-77h-64z" />
    <glyph glyph-name="equal.tab" horiz-adv-x="450" 
d="M391 415h-332v44h332v-44zM391 245h-332v44h332v-44z" />
    <glyph glyph-name="multiply.tab" horiz-adv-x="450" 
d="M350 189l-125 133l-125 -133l-32 28l129 135l-129 134l32 29l125 -133l125 133l32 -28l-129 -135l129 -134z" />
    <glyph glyph-name="less.tab" horiz-adv-x="450" 
d="M376 149l-320 183v40l320 183v-50l-272 -153l272 -153v-50z" />
    <glyph glyph-name="greater.tab" horiz-adv-x="450" 
d="M394 332l-320 -183v50l272 153l-272 153v50l320 -183v-40z" />
    <glyph glyph-name="plusminus.tab" horiz-adv-x="450" 
d="M400 342h-153v-154h-44v154h-153v43h153v154h44v-154h153v-43zM400 60h-350v44h350v-44z" />
    <glyph glyph-name="space" unicode=" " horiz-adv-x="200" 
 />
    <glyph glyph-name="uni00A0" unicode="&#xa0;" horiz-adv-x="200" 
 />
    <glyph glyph-name="emspace" unicode="&#x2003;" horiz-adv-x="1000" 
 />
    <glyph glyph-name="enspace" unicode="&#x2002;" horiz-adv-x="500" 
 />
    <glyph glyph-name="threeperemspace" unicode="&#x2004;" horiz-adv-x="333" 
 />
    <glyph glyph-name="fourperemspace" unicode="&#x2005;" horiz-adv-x="250" 
 />
    <glyph glyph-name="thinspace" unicode="&#x2009;" horiz-adv-x="112" 
 />
    <glyph glyph-name="hairspace" unicode="&#x200a;" horiz-adv-x="59" 
 />
    <glyph glyph-name="space.tab" horiz-adv-x="225" 
 />
    <glyph glyph-name="figurespace" unicode="&#x2007;" horiz-adv-x="450" 
 />
    <glyph glyph-name="NUL" horiz-adv-x="0" 
 />
    <glyph glyph-name="asciicircum" unicode="^" horiz-adv-x="370" 
d="M65 519l101 173h38l101 -173h-45l-76 126l-76 -126h-43z" />
    <glyph glyph-name="asciitilde" unicode="~" horiz-adv-x="352" 
d="M227 250c-20 0 -35 9 -55 24s-33 23 -44 23c-17 0 -26 -15 -36 -47l-31 8c14 57 34 81 64 81c20 0 35 -9 55 -23c20 -16 33 -23 44 -23c17 0 26 15 36 47l32 -8c-15 -57 -35 -82 -65 -82z" />
    <glyph glyph-name="hfjslug" horiz-adv-x="694" 
d="M644 -200h-208l-8 14h-163l-8 -14h-207v303c18 0 32 14 32 32c0 17 -14 32 -32 32v554h100l30 79h334l29 -79h101v-921zM400 563v-172h15v78h38v14h-38v66h43v14h-58zM184 563v-172h15v79h47v-79h15v172h-15v-79h-47v79h-15zM460 394c5 -2 14 -4 21 -4c20 0 31 11 31 36
v137h-16v-137c0 -16 -5 -22 -16 -22c-6 0 -15 3 -20 5v-15zM371 465l-13 3c-2 -9 -5 -21 -8 -30h-1l-16 31c13 12 23 26 23 42c0 17 -9 31 -27 31c-17 0 -28 -14 -28 -31c0 -15 6 -24 14 -39c-15 -12 -23 -28 -23 -47c0 -22 12 -37 29 -37c13 0 23 9 29 24h1l12 -24l12 6
l-17 32c5 12 9 25 13 39zM523 323v-46h8v12l8 8l15 -20h10l-20 26l18 20h-10l-20 -24h-1v24h-8zM488 292l10 -15h9l-12 17c5 2 10 6 10 14c0 9 -7 15 -17 15h-20v-46h8v15h12zM426 276c14 0 24 11 24 24c0 12 -10 24 -24 24s-24 -12 -24 -24c0 -13 10 -24 24 -24zM370 301
l-13 22h-9l18 -29v-17h8v17l18 29h-9zM193 323v-46h34v7h-26v13h23v7h-23v12h26v7h-34zM132 323v-46h8v32l25 -32h7v46h-8v-32l-25 32h-7zM241 323l14 -47h8l11 34h1l11 -34h8l14 47h-8l-10 -35h-1l-11 35h-7l-11 -35h-1l-10 35h-8zM327 479c-7 13 -12 22 -12 32
c0 11 6 19 14 19s13 -8 13 -19c0 -12 -5 -21 -15 -32zM342 423c-5 -13 -12 -21 -20 -21c-9 0 -16 10 -16 25c0 13 7 26 16 35zM487 299h-11v17h11c6 0 10 -3 10 -8s-4 -9 -10 -9zM426 283c-10 0 -16 8 -16 17c0 8 6 17 16 17s16 -9 16 -17c0 -9 -6 -17 -16 -17z" />
    <glyph glyph-name="i.dot" horiz-adv-x="186" 
d="M68 639v69h50v-69h-50zM71 0v521h44v-521h-44z" />
    <glyph glyph-name="fraction" unicode="&#x2044;" horiz-adv-x="75" 
d="M-157 0l181 357l170 344h38l-180 -358l-171 -343h-38z" />
    <glyph glyph-name="zero.num" 
d="M150 334c-69 0 -110 63 -110 183v5c0 120 41 184 110 184s110 -62 110 -183v-5c0 -119 -42 -184 -110 -184zM150 672c-47 0 -73 -53 -73 -149v-5c0 -96 28 -150 73 -150s73 53 73 149v5c0 96 -27 150 -73 150z" />
    <glyph glyph-name="one.num" horiz-adv-x="244" 
d="M154 340h-36v321l-75 -36l-4 36l83 41h32v-362z" />
    <glyph glyph-name="one.num_alt" 
d="M265 340h-213v33h92v290l-87 -39l-3 37l94 43h33v-331h84v-33z" />
    <glyph glyph-name="two.num" 
d="M39 340v26l126 149c33 40 49 65 49 97c0 38 -29 59 -63 59c-43 0 -68 -30 -85 -48l-24 24c31 36 62 59 111 59c57 0 99 -38 99 -93c0 -47 -22 -74 -58 -117l-103 -121h165v-35h-217z" />
    <glyph glyph-name="three.num" 
d="M138 334c-48 0 -83 23 -106 46l22 26c20 -19 46 -39 87 -39c39 0 74 26 74 74c0 47 -37 73 -105 74h-10l-3 23l105 128h-156v35h203v-28l-106 -128c63 -10 109 -40 109 -105c0 -64 -53 -106 -114 -106z" />
    <glyph glyph-name="four.num" 
d="M227 418v-79h-34v79h-154l-4 27l150 258h42v-254h42v-31h-42zM193 449v201h-3l-116 -201h119z" />
    <glyph glyph-name="five.num" 
d="M141 334c-33 0 -74 14 -102 42l21 28c22 -21 50 -37 82 -37c51 0 76 38 76 84c0 53 -34 76 -77 76c-24 0 -44 -7 -62 -17l-25 13l12 177h173v-36h-141l-9 -116c15 6 35 12 58 12c61 0 108 -40 108 -108s-45 -118 -114 -118z" />
    <glyph glyph-name="six.num" 
d="M150 334c-28 0 -53 10 -69 26c-25 24 -40 63 -40 137v10c0 135 54 199 126 199c32 0 58 -12 77 -27l-19 -30c-15 12 -33 23 -58 23c-51 0 -88 -48 -91 -147c17 29 47 44 80 44c55 0 101 -38 101 -114c0 -71 -46 -121 -107 -121zM150 367c45 0 71 35 71 88
c0 54 -29 81 -70 81c-37 0 -71 -28 -71 -81c0 -52 26 -88 70 -88z" />
    <glyph glyph-name="seven.num" 
d="M116 339h-40l140 325h-170v36h209v-29z" />
    <glyph glyph-name="eight.num" 
d="M150 334c-65 0 -110 40 -110 103c0 40 24 74 61 89c-30 15 -52 45 -52 84c0 60 47 96 101 96s101 -36 101 -96c0 -39 -22 -69 -52 -84c37 -15 61 -49 61 -89c0 -63 -45 -103 -110 -103zM150 673c-39 0 -65 -26 -65 -63c0 -38 26 -68 65 -68s65 30 65 68
c0 37 -26 63 -65 63zM150 509c-44 0 -75 -31 -75 -73c0 -40 29 -69 75 -69s75 29 75 69c0 42 -31 73 -75 73z" />
    <glyph glyph-name="nine.num" 
d="M152 706c25 0 51 -9 68 -26c24 -23 40 -63 40 -137v-10c0 -135 -54 -199 -126 -199c-32 0 -59 12 -82 29l19 30c19 -14 38 -25 63 -25c51 0 88 48 91 143c-17 -29 -47 -44 -80 -44c-55 0 -101 39 -101 116c0 72 46 123 108 123zM150 500c37 0 71 28 71 85
c0 53 -26 88 -70 88c-45 0 -71 -35 -71 -90s29 -83 70 -83z" />
    <glyph glyph-name="zero.den" 
d="M150 -6c-69 0 -110 63 -110 183v5c0 120 41 184 110 184s110 -62 110 -183v-5c0 -119 -42 -184 -110 -184zM150 332c-47 0 -73 -53 -73 -149v-5c0 -96 28 -150 73 -150s73 53 73 149v5c0 96 -27 150 -73 150z" />
    <glyph glyph-name="one.den" horiz-adv-x="244" 
d="M154 0h-36v321l-75 -36l-4 36l83 41h32v-362z" />
    <glyph glyph-name="one.den_alt" 
d="M265 0h-213v33h92v290l-87 -39l-3 37l94 43h33v-331h84v-33z" />
    <glyph glyph-name="two.den" 
d="M39 0v26l126 149c33 40 49 65 49 97c0 38 -29 59 -63 59c-43 0 -68 -30 -85 -48l-24 24c31 36 62 59 111 59c57 0 99 -38 99 -93c0 -47 -22 -74 -58 -117l-103 -121h165v-35h-217z" />
    <glyph glyph-name="three.den" 
d="M138 -6c-48 0 -83 23 -106 46l22 26c20 -19 46 -39 87 -39c39 0 74 26 74 74c0 47 -37 73 -105 74h-10l-3 23l105 128h-156v35h203v-28l-106 -128c63 -10 109 -40 109 -105c0 -64 -53 -106 -114 -106z" />
    <glyph glyph-name="four.den" 
d="M227 78v-79h-34v79h-154l-4 27l150 258h42v-254h42v-31h-42zM193 109v201h-3l-116 -201h119z" />
    <glyph glyph-name="five.den" 
d="M141 -6c-33 0 -74 14 -102 42l21 28c22 -21 50 -37 82 -37c51 0 76 38 76 84c0 53 -34 76 -77 76c-24 0 -44 -7 -62 -17l-25 13l12 177h173v-36h-141l-9 -116c15 6 35 12 58 12c61 0 108 -40 108 -108s-45 -118 -114 -118z" />
    <glyph glyph-name="six.den" 
d="M150 -6c-28 0 -53 10 -69 26c-25 24 -40 63 -40 137v10c0 135 54 199 126 199c32 0 58 -12 77 -27l-19 -30c-15 12 -33 23 -58 23c-51 0 -88 -48 -91 -147c17 29 47 44 80 44c55 0 101 -38 101 -114c0 -71 -46 -121 -107 -121zM150 27c45 0 71 35 71 88
c0 54 -29 81 -70 81c-37 0 -71 -28 -71 -81c0 -52 26 -88 70 -88z" />
    <glyph glyph-name="seven.den" 
d="M116 -1h-40l140 325h-170v36h209v-29z" />
    <glyph glyph-name="eight.den" 
d="M150 -6c-65 0 -109 40 -109 102c0 41 24 74 60 90c-29 15 -51 45 -51 84c0 60 47 96 101 96c53 0 100 -36 100 -96c0 -39 -22 -69 -52 -84c37 -15 61 -49 61 -89c0 -63 -45 -103 -110 -103zM150 333c-38 0 -64 -26 -64 -63c0 -38 26 -68 64 -68c39 0 65 30 65 68
c0 37 -26 63 -65 63zM150 169c-43 0 -74 -31 -74 -73c0 -40 29 -69 74 -69c46 0 75 29 75 69c0 42 -31 73 -75 73z" />
    <glyph glyph-name="nine.den" 
d="M152 366c25 0 51 -9 68 -26c24 -23 40 -63 40 -137v-10c0 -135 -54 -199 -126 -199c-32 0 -59 12 -82 29l19 30c19 -14 38 -25 63 -25c51 0 88 48 91 143c-17 -29 -47 -44 -80 -44c-55 0 -101 39 -101 116c0 72 46 123 108 123zM150 160c37 0 71 28 71 85
c0 53 -26 88 -70 88c-45 0 -71 -35 -71 -90s29 -83 70 -83z" />
    <glyph glyph-name="acute" unicode="&#xb4;" horiz-adv-x="500" 
d="M193 582l71 127l51 -27l-90 -100h-32z" />
    <glyph glyph-name="hungarumlaut" unicode="&#x2dd;" horiz-adv-x="500" 
d="M241 582l71 127l47 -25l-85 -102h-33zM135 582l71 127l47 -25l-85 -102h-33z" />
    <glyph glyph-name="caron.alt" horiz-adv-x="500" 
d="M203 566l10 149h44v-3l-32 -146h-22z" />
    <glyph glyph-name="grave" unicode="`" horiz-adv-x="500" 
d="M275 582l-90 100l51 27l71 -127h-32z" />
    <glyph glyph-name="circumflex" unicode="&#x2c6;" horiz-adv-x="500" 
d="M156 585l76 122h36l76 -122h-39l-56 73l-56 -73h-37z" />
    <glyph glyph-name="caron" unicode="&#x2c7;" horiz-adv-x="500" 
d="M344 707l-76 -122h-36l-76 122h39l56 -73l56 73h37z" />
    <glyph glyph-name="breve" unicode="&#x2d8;" horiz-adv-x="500" 
d="M250 583c-57 0 -99 33 -105 99h37c9 -37 30 -57 68 -57s59 20 68 57h37c-6 -66 -48 -99 -105 -99z" />
    <glyph glyph-name="tilde" unicode="&#x2dc;" horiz-adv-x="500" 
d="M300 583c-21 0 -35 9 -55 24c-19 16 -31 23 -42 23c-15 0 -24 -15 -34 -47l-32 8c15 56 34 81 63 81c21 0 35 -9 55 -25c19 -15 31 -22 42 -22c15 0 24 15 34 46l32 -8c-15 -56 -34 -80 -63 -80z" />
    <glyph glyph-name="macron" unicode="&#xaf;" horiz-adv-x="500" 
d="M143 598v41h214v-41h-214z" />
    <glyph glyph-name="dieresis" unicode="&#xa8;" horiz-adv-x="500" 
d="M283 589v70h52v-70h-52zM165 589v70h52v-70h-52z" />
    <glyph glyph-name="dotaccent" unicode="&#x2d9;" horiz-adv-x="500" 
d="M222 589v71h56v-71h-56z" />
    <glyph glyph-name="ring" unicode="&#x2da;" horiz-adv-x="500" 
d="M249 582c-48 0 -85 38 -85 85s38 85 87 85c48 0 85 -38 85 -85s-38 -85 -87 -85zM250 609c32 0 56 25 56 58c0 32 -24 58 -56 58s-56 -26 -56 -58c0 -33 24 -58 56 -58z" />
    <glyph glyph-name="acute.cap" horiz-adv-x="500" 
d="M190 749l73 109l51 -24l-88 -85h-36z" />
    <glyph glyph-name="hungarumlaut.cap" horiz-adv-x="500" 
d="M131 749l73 109l49 -24l-86 -85h-36zM238 749l73 109l50 -24l-87 -85h-36z" />
    <glyph glyph-name="grave.cap" horiz-adv-x="500" 
d="M310 749h-36l-88 85l51 24z" />
    <glyph glyph-name="circumflex.cap" horiz-adv-x="500" 
d="M146 752l83 101h42l83 -101h-46l-59 59l-59 -59h-44z" />
    <glyph glyph-name="caron.cap" horiz-adv-x="500" 
d="M354 853l-83 -101h-42l-83 101h46l59 -60l59 60h44z" />
    <glyph glyph-name="breve.cap" horiz-adv-x="500" 
d="M250 750c-58 0 -101 30 -108 86h40c9 -28 31 -43 68 -43s59 15 68 43h40c-7 -56 -50 -86 -108 -86z" />
    <glyph glyph-name="tilde.cap" horiz-adv-x="500" 
d="M303 750c-22 0 -37 9 -59 21c-19 11 -32 18 -43 18c-17 0 -26 -13 -36 -39l-34 8c15 47 36 73 66 73c21 0 37 -8 58 -21c20 -11 33 -17 43 -17c17 0 26 12 37 38l33 -8c-15 -47 -35 -73 -65 -73z" />
    <glyph glyph-name="macron.cap" horiz-adv-x="500" 
d="M133 766v43h234v-43h-234z" />
    <glyph glyph-name="dieresis.cap" horiz-adv-x="500" 
d="M285 755v68h58v-68h-58zM156 755v68h59v-68h-59z" />
    <glyph glyph-name="dotaccent.cap" horiz-adv-x="500" 
d="M220 755v68h60v-68h-60z" />
    <glyph glyph-name="ring.cap" horiz-adv-x="500" 
d="M249 749c-49 0 -87 35 -87 81s40 81 89 81s87 -35 87 -81s-40 -81 -89 -81zM250 777c32 0 55 23 55 53s-23 53 -55 53s-55 -23 -55 -53s23 -53 55 -53z" />
    <glyph glyph-name="commaaccent" unicode="&#x326;" horiz-adv-x="500" 
d="M222 -197l-10 20c28 11 38 26 36 53h-24v62h56v-56c0 -42 -17 -64 -58 -79z" />
    <glyph glyph-name="cedilla" unicode="&#xb8;" horiz-adv-x="500" 
d="M229 -121l-49 21l68 110h35z" />
    <glyph glyph-name="ogonek" unicode="&#x2db;" horiz-adv-x="500" 
d="M298 -99v-33c-8 -1 -10 -1 -14 -1c-56 1 -80 24 -80 57c0 28 18 53 51 84l30 -5c-27 -31 -39 -50 -39 -69c0 -22 15 -31 52 -33z" />
    </font>
</defs>
</svg>
