<?xml version="1.0" standalone="no"?>
<!DOCTYPE svg PUBLIC "-//W3C//DTD SVG 1.1//EN" "http://www.w3.org/Graphics/SVG/1.1/DTD/svg11.dtd" >
<svg xmlns="http://www.w3.org/2000/svg" xmlns:xlink="http://www.w3.org/1999/xlink" version="1.1">
<metadata>
Created by FontForge 20150824 at Wed Feb  3 13:36:52 2016
 By Everything Fonts
Copyright (c) 2014 by Bigelow &#38; Holmes Inc. All rights reserved. 
</metadata>
<defs>
<font id="LucidaCalligNormBAS" horiz-adv-x="1480" >
  <font-face 
    font-family="Lucida Callig 400Norm BAS"
    font-weight="400"
    font-style="italic"
    font-stretch="normal"
    units-per-em="2048"
    panose-1="2 0 0 0 0 0 0 0 0 0"
    ascent="1638"
    descent="-410"
    x-height="1110"
    cap-height="1480"
    bbox="-478 -814 2738 1925"
    underline-thickness="100"
    underline-position="-200"
    slope="-11"
    unicode-range="U+000D-201D"
  />
<missing-glyph horiz-adv-x="1536" 
d="M256 0v1280h1024v-1280h-1024zM320 64h896v1152h-896v-1152z" />
    <glyph glyph-name=".notdef" horiz-adv-x="1536" 
d="M256 0v1280h1024v-1280h-1024zM320 64h896v1152h-896v-1152z" />
    <glyph glyph-name="NULL" horiz-adv-x="0" 
 />
    <glyph glyph-name="NULL" horiz-adv-x="0" 
 />
    <glyph glyph-name="nonmarkingreturn" unicode="&#xd;" horiz-adv-x="1536" 
 />
    <glyph glyph-name="space" unicode=" " horiz-adv-x="599" 
 />
    <glyph glyph-name="quotedbl" unicode="&#x22;" horiz-adv-x="814" 
d="M419 1086l30 493l202 25l-166 -494zM764 1086l31 493l202 25l-166 -494z" />
    <glyph glyph-name="numbersign" unicode="#" horiz-adv-x="1280" 
d="M209 0l185 413h-287l63 99h268l161 358h-311l63 98h292l186 414l114 24l-197 -438h288l186 414l114 24l-197 -438h311l-62 -98h-294l-160 -358h336l-63 -99h-317l-175 -388l-114 -25l186 413h-288l-175 -388zM541 512h288l161 358h-288z" />
    <glyph glyph-name="dollar" unicode="$" horiz-adv-x="1044" 
d="M543 -222l-67 -25l45 225q-46 -3 -72 -3q-65 0 -149 14q-40 7 -72 16t-88 29l129 131q84 -43 126.5 -55t147.5 -24l71 360l-82 76q-73 66 -105.5 121t-32.5 111q0 59 31.5 120.5t87.5 113.5q88 81 196 106q11 3 36 7l41 207l66 24l-44 -224q40 2 60 2q66 0 144 -15
q31 -7 54 -14t63 -23l-129 -131q-51 34 -95.5 49t-118.5 21l-75 -376l64 -55q70 -61 103 -117.5t33 -114.5q0 -60 -31.5 -123t-87.5 -113q-82 -75 -207 -109zM724 999q-51 -3 -79.5 -11t-49.5 -26q-43 -37 -43 -112q0 -41 13 -72t43 -60l36 -36l14 -15zM605 88q75 11 105 36
q43 35 43 114q0 29 -5 48.5t-18 41.5q-21 36 -46 58l-17 14z" />
    <glyph glyph-name="percent" unicode="%" horiz-adv-x="1673" 
d="M227 -25l1349 1404l150 27l-1345 -1400zM533 642q-107 0 -165.5 60t-58.5 169q0 106 47 205.5t134 179.5q70 63 144 94.5t155 31.5q108 0 167.5 -59.5t59.5 -167.5q0 -109 -46.5 -208t-135.5 -179q-74 -66 -146 -96t-155 -30zM603 714q126 0 197 104q37 54 58.5 137
t21.5 173q0 103 -45 144q-19 18 -49.5 28t-65.5 10q-125 0 -195 -105q-37 -54 -58.5 -136.5t-21.5 -171.5q0 -54 11 -89t34 -57q19 -17 49.5 -27t63.5 -10zM1156 0q-94 0 -152 48q-72 59 -72 182q0 105 47 204.5t135 179.5q70 64 143.5 95t155.5 31q108 0 167.5 -59.5
t59.5 -167.5q0 -109 -47 -208t-135 -178q-74 -67 -146 -97t-156 -30zM1227 72q126 0 197 104q36 54 57.5 137t21.5 173q0 103 -44 144q-20 18 -50.5 28t-65.5 10q-125 0 -195 -104q-37 -54 -58 -137t-21 -172q0 -104 44 -145q19 -18 49.5 -28t64.5 -10z" />
    <glyph glyph-name="ampersand" unicode="&#x26;" horiz-adv-x="1616" 
d="M962 136q-103 -83 -214 -128t-209 -45q-66 0 -130 20t-116 58q-76 54 -116.5 136.5t-40.5 181.5t42.5 182.5t131.5 160.5q57 49 126 88t171 81l-6 17q-26 72 -37 124t-11 101q0 70 30 136.5t87 125.5q66 67 150.5 105t168.5 38q59 0 110.5 -19t86.5 -54q65 -63 65 -165
q0 -78 -38 -146q-30 -53 -89 -103.5t-152 -101.5q-49 -27 -83 -42t-81 -29q53 -142 137 -308q45 -89 74.5 -139t73.5 -109q45 48 75 92t58 103q21 48 31.5 83t16.5 86h-206l95 148h265q92 0 149 7q42 5 74.5 17t80.5 41l-78 -123q-47 -36 -96 -60q-38 -18 -63.5 -24
t-63.5 -6h-33q-18 -58 -35 -97t-44 -86q-40 -69 -82.5 -120.5t-108.5 -110.5l28 -35q57 -71 94 -99q58 -44 113 -44q44 0 102 24q20 9 40 20.5t66 42.5q11 7 32 21l-15 -74q-103 -85 -172 -115t-158 -30q-101 0 -170 47q-44 31 -126 126zM789 917q38 15 65 28
q108 50 174 150q29 42 44 87t15 85q0 30 -10.5 58.5t-28.5 48.5q-43 45 -132 45q-81 0 -125 -44q-28 -28 -40.5 -70t-12.5 -107q0 -122 51 -281zM929 187q-49 72 -83 131t-81 154q-79 160 -142 342q-40 -18 -60 -29q-83 -46 -140 -128q-79 -112 -79 -261q0 -165 99 -252
q39 -34 90 -52t107 -18q45 0 83 9.5t84 32.5q35 18 122 71z" />
    <glyph glyph-name="quotesingle" unicode="'" horiz-adv-x="522" 
d="M434 1036l15 543l256 25l-200 -543z" />
    <glyph glyph-name="parenleft" unicode="(" horiz-adv-x="725" 
d="M544 -296q-77 101 -121.5 168t-76.5 129q-53 103 -77.5 209t-24.5 233q0 205 61 371q47 131 146.5 271t225.5 254q74 67 149 116.5t214 123.5l-13 -68q-89 -56 -151 -101q-154 -111 -266 -272q-96 -138 -148 -299t-52 -321q0 -234 106 -427q31 -58 70.5 -109t110.5 -127z
" />
    <glyph glyph-name="parenright" unicode=")" horiz-adv-x="725" 
d="M438 1579q76 -101 120.5 -168t76.5 -129q53 -103 77.5 -209t24.5 -233q0 -205 -60 -371q-48 -131 -147 -271t-226 -254q-74 -67 -149 -116.5t-214 -123.5l14 68q88 56 151 101q153 111 265 272q96 138 148 299t52 321q0 234 -106 427q-31 58 -70.5 109t-110.5 127z" />
    <glyph glyph-name="asterisk" unicode="*" horiz-adv-x="1067" 
d="M619 691l85 366l-262 -255h-97l332 284l-330 -25l33 86l322 -24l-228 271h86l163 -241l51 327l118 37l-80 -352l244 229h101l-335 -271l338 24l-36 -86l-310 25l226 -284h-84l-166 255l-53 -329z" />
    <glyph glyph-name="plus" unicode="+" 
d="M672 0l106 537h-536l46 111h512l107 536l116 25l-111 -561h561l-47 -111h-536l-102 -512z" />
    <glyph glyph-name="comma" unicode="," horiz-adv-x="757" 
d="M228 153l199 143q39 -23 61 -40.5t38 -39.5q48 -63 48 -155q0 -78 -34.5 -148.5t-99.5 -122.5q-85 -70 -217 -98q-31 -6 -89 -13l56 62q61 12 93.5 30t55.5 54q18 27 28 61.5t10 67.5q0 68 -52 121q-25 27 -97 78z" />
    <glyph glyph-name="hyphen" unicode="-" horiz-adv-x="1184" 
d="M242 537l46 111h889l-47 -111h-888z" />
    <glyph glyph-name="period" unicode="." horiz-adv-x="753" 
d="M233 179l196 142l152 -195l-201 -151z" />
    <glyph glyph-name="slash" unicode="/" horiz-adv-x="1129" 
d="M-31 -716l1301 2616l132 25l-1301 -2616z" />
    <glyph glyph-name="zero" unicode="0" horiz-adv-x="1282" 
d="M550 -25q-70 0 -130 19t-103 54q-110 92 -110 280q0 161 72 313.5t206 275.5q108 98 221 145.5t237 47.5q91 0 159.5 -27t113.5 -80q37 -45 56.5 -106t19.5 -134q0 -106 -30.5 -209.5t-88.5 -195.5q-70 -112 -179 -205t-224 -139q-96 -39 -220 -39zM658 86q193 0 302 160
q57 83 89.5 210t32.5 265q0 81 -16.5 135t-51.5 86q-30 27 -76.5 42.5t-100.5 15.5q-94 0 -170 -41t-129 -119q-56 -83 -89 -210t-33 -263q0 -83 16.5 -137t52.5 -86q28 -27 75 -42.5t98 -15.5z" />
    <glyph glyph-name="one" unicode="1" horiz-adv-x="888" 
d="M918 62l-135 -62h-743l128 62h205l189 951l-326 -46l120 81l423 62l-209 -1048h348z" />
    <glyph glyph-name="two" unicode="2" horiz-adv-x="1164" 
d="M346 843l69 162q64 33 102 49t83 28q103 28 210 28q86 0 148.5 -19.5t105.5 -59.5q71 -66 71 -170q0 -153 -147 -277q-95 -79 -442 -282l-242 -142h755l-63 -160h-873l54 160q87 47 148 83q84 50 186 119t174 125t111.5 95t67.5 81q61 94 61 172q0 28 -11.5 56.5
t-30.5 49.5q-26 28 -65.5 43.5t-86.5 15.5q-86 0 -194 -45q-40 -16 -82.5 -41t-108.5 -71z" />
    <glyph glyph-name="three" unicode="3" horiz-adv-x="1097" 
d="M356 888l64 156q58 25 92 36t74 19q64 11 143 11q183 0 265 -63q38 -29 59.5 -74t21.5 -95q0 -88 -49 -153q-52 -68 -129.5 -118.5t-229.5 -113.5q69 -22 111.5 -43.5t81.5 -54.5q56 -49 86.5 -112.5t30.5 -133.5q0 -90 -44 -167t-136 -146q-97 -74 -215.5 -115.5
t-229.5 -41.5q-64 0 -125 12t-177 47l129 131q63 -32 101 -46.5t80 -22.5q57 -11 130 -11q72 0 124 16.5t93 52.5q43 37 67 89.5t24 109.5q0 62 -28.5 122t-76.5 99q-50 40 -133 62.5t-181 22.5l-53 -1h-21l70 158h28q63 0 147 -7q88 29 136.5 52.5t87.5 57.5
q50 42 73.5 90.5t23.5 106.5q0 78 -42 121q-25 27 -69.5 42.5t-92.5 15.5q-69 0 -155 -30q-59 -21 -156 -81z" />
    <glyph glyph-name="four" unicode="4" horiz-adv-x="1335" 
d="M810 52l-753 32l84 145l950 857l116 24l-182 -919l325 -13l-87 -146l-267 14l-56 -280h348l-135 -62h-743l128 62h215zM839 199l138 695l-742 -669z" />
    <glyph glyph-name="five" unicode="5" horiz-adv-x="1109" 
d="M62 -262l129 131q67 -35 115 -50q96 -30 198 -30q88 0 148.5 26.5t104.5 84.5q71 95 71 245q0 76 -21 129.5t-66 89.5q-50 40 -124.5 60t-175.5 20q-42 0 -73.5 -3t-86.5 -13l131 658h777l-68 -173h-653l-87 -308q68 12 127 12q105 0 204 -25.5t160 -67.5
q72 -49 111 -127.5t39 -172.5q0 -215 -197 -376q-95 -77 -219 -123t-238 -46q-62 0 -146 14q-40 7 -71.5 16t-88.5 29z" />
    <glyph glyph-name="six" unicode="6" horiz-adv-x="1249" 
d="M1377 1353l-138 -142q-39 28 -62 40t-59 23q-76 22 -155 22q-123 0 -216 -56q-77 -46 -134 -133.5t-98 -220.5q-30 -98 -57 -249q51 75 87 115t83 74q123 87 285 87q81 0 140 -24t102 -74q68 -78 68 -205q0 -139 -65 -265q-72 -142 -205 -249q-78 -63 -156 -92t-169 -29
q-92 0 -160 28.5t-118 88.5q-112 133 -112 364q0 181 65 355q52 139 136 250.5t195 188.5q108 75 237 115.5t259 40.5q77 0 142 -15q44 -10 105 -38zM448 527q-3 -45 -3 -60q0 -192 61.5 -286.5t187.5 -94.5q93 0 157 39.5t102 118.5q27 56 43.5 140t16.5 162q0 131 -68 199
q-58 58 -141 58q-59 0 -111 -24t-106 -76q-32 -30 -60.5 -66t-78.5 -110z" />
    <glyph glyph-name="seven" unicode="7" horiz-adv-x="1064" 
d="M97 -321q14 75 31.5 126.5t49.5 108.5q31 55 85 126t116 139q45 49 235 249l254 268l91 96l108 121h-824l71 173h941l-45 -112l-50 -53q-159 -169 -248 -273q-107 -126 -207 -256.5t-172 -238.5q-101 -154 -143.5 -249t-57.5 -200z" />
    <glyph glyph-name="eight" unicode="8" horiz-adv-x="1240" 
d="M601 734l-19 13q-74 53 -107 119q-33 65 -33 130q0 74 43.5 147t126.5 138q159 126 348 126q75 0 139.5 -21t108.5 -60q76 -66 76 -168q0 -93 -59 -181q-22 -31 -46 -54.5t-66 -52.5q-56 -40 -138 -86l-51 -29q92 -61 152 -120q53 -53 75.5 -98.5t22.5 -99.5
q0 -71 -35 -139.5t-107 -138.5q-46 -45 -99.5 -82t-104.5 -58q-106 -45 -244 -45q-85 0 -150 22t-119 68q-104 89 -104 223q0 68 27 122q44 89 129.5 165.5t233.5 159.5zM863 791q130 81 185 145q70 80 70 165q0 45 -15.5 82t-44.5 61q-61 52 -192 52q-65 0 -111.5 -14.5
t-78.5 -45.5q-61 -57 -61 -158q0 -74 37 -124t145 -120zM651 692q-56 -29 -95.5 -63.5t-73.5 -83.5q-72 -103 -72 -226q0 -111 61 -165q36 -33 96 -50.5t135 -17.5q143 0 218 70q33 30 48.5 71.5t15.5 98.5q0 80 -39 134q-26 36 -84.5 85t-126.5 93z" />
    <glyph glyph-name="nine" unicode="9" horiz-adv-x="1249" 
d="M89 -267l137 142q39 -28 62.5 -40.5t58.5 -22.5q76 -22 156 -22q122 0 216 56q76 46 133.5 133.5t97.5 220.5q30 98 58 248q-52 -75 -88 -114.5t-83 -73.5q-122 -87 -285 -87q-81 0 -140 24t-102 74q-67 78 -67 204q0 140 64 266q72 142 205 249q78 63 156 92t169 29
q92 0 160 -29t118 -88q112 -133 112 -364q0 -181 -65 -355q-52 -139 -136 -250.5t-195 -188.5q-108 -75 -237 -116t-259 -41q-77 0 -142 16q-44 10 -104 38zM1017 559q3 45 3 59q0 193 -61.5 287t-187.5 94q-93 0 -157 -39t-102 -118q-27 -57 -43.5 -140.5t-16.5 -162.5
q0 -130 68 -198q58 -58 141 -58q59 0 111 24t107 75q32 31 60 67t78 110z" />
    <glyph glyph-name="colon" unicode=":" horiz-adv-x="753" 
d="M233 179l196 142l152 -195l-201 -151zM390 968l197 142l151 -195l-201 -150z" />
    <glyph glyph-name="semicolon" unicode=";" horiz-adv-x="757" 
d="M392 968l196 142l152 -195l-201 -150zM228 153l199 143q39 -23 61 -40.5t38 -39.5q48 -63 48 -155q0 -78 -35 -148.5t-99 -122.5q-86 -70 -217 -98q-31 -6 -89 -13l56 62q61 12 93.5 30t55.5 54q18 27 28 61.5t10 67.5q0 68 -52 121q-25 27 -97 78z" />
    <glyph glyph-name="less" unicode="&#x3c;" 
d="M266 592l1302 592l-58 -103l-1042 -473l886 -491l-61 -94z" />
    <glyph glyph-name="equal" unicode="=" 
d="M280 722l46 111h1185l-47 -111h-1184zM206 352l47 111h1184l-47 -111h-1184z" />
    <glyph glyph-name="greater" unicode="&#x3e;" 
d="M1450 592l-1302 -592l58 103l1042 473l-886 491l61 94z" />
    <glyph glyph-name="question" unicode="?" horiz-adv-x="1012" 
d="M380 388q9 77 39 133q62 118 257 286l41 35q47 40 87 93.5t63 104.5q32 76 32 166q0 61 -15 100t-48 64q-48 37 -125 37q-98 0 -208 -42q-44 -17 -88 -42t-113 -73l68 162q66 35 105.5 51t89.5 29q104 26 214 26q88 0 150.5 -19.5t106.5 -60.5q73 -67 73 -186
q0 -46 -11 -85.5t-36 -80.5q-52 -88 -191 -206l-75 -64q-154 -130 -189 -212q-27 -61 -27 -158zM287 121l158 126l121 -165l-157 -107z" />
    <glyph glyph-name="at" unicode="@" horiz-adv-x="1820" 
d="M1212 -315l-12 -62q-99 -25 -162.5 -33.5t-142.5 -8.5q-175 0 -321 56q-113 43 -192 133.5t-120 222.5q-36 118 -36 269q0 164 44 337q83 326 295 563q156 175 344 265.5t394 90.5q114 0 214.5 -31.5t167.5 -86.5q39 -33 67 -74t50 -97q46 -116 46 -259q0 -121 -22 -255
t-60 -254q-41 -128 -96.5 -215t-128.5 -138q-44 -31 -86 -45t-91 -14q-90 0 -136.5 54.5t-46.5 158.5q0 36 5 81.5t22 158.5q-45 -97 -82 -170q-37 -72 -84 -133.5t-90 -92.5q-77 -57 -172 -57q-63 0 -115 43q-36 30 -56 85.5t-20 126.5q0 133 55.5 280.5t148.5 259.5
q92 112 196 164.5t233 52.5q77 0 229 -18l-118 -596q-28 -141 -28 -214q0 -39 10.5 -67t30.5 -41q22 -14 57 -14q71 0 135 55.5t117 164.5q56 112 91.5 287.5t35.5 337.5q0 113 -34.5 211.5t-96.5 162.5q-63 65 -154.5 95.5t-220.5 30.5q-171 0 -310 -57q-148 -61 -287 -195
q-223 -213 -323 -521q-67 -209 -67 -414q0 -233 101 -389q52 -80 125.5 -134t161.5 -77q104 -27 231 -27q91 0 153 9t151 34zM1288 969q-43 11 -72.5 15t-66.5 4q-69 0 -119 -19q-43 -17 -73.5 -43.5t-61.5 -76.5q-70 -110 -118 -315q-33 -145 -33 -241q0 -70 24 -103
q30 -42 80 -42q38 0 73 20t78 67q37 39 69 89t98 170l44 80z" />
    <glyph glyph-name="A" unicode="A" horiz-adv-x="2065" 
d="M1549 456h-545l-17 -30q-70 -121 -138 -210q-67 -90 -165 -155q-144 -98 -316 -98q-108 0 -199 40q-33 15 -62.5 35t-75.5 58l176 92q44 -51 77 -73q62 -41 147 -41q69 0 132.5 26t127.5 81q39 33 81 80.5t75 95.5q80 116 172 274l443 764q-133 11 -215 11
q-124 0 -194 -31q-74 -33 -133.5 -112.5t-81.5 -172.5q-11 -47 -11 -105l-196 -97q7 75 19 122q33 131 119 233q87 102 210 160q54 25 125 40t176 25q38 3 201 12l205 37l13 -333l91 -1098h267l-188 -86h-548l175 86h81zM1047 530h495l-64 751z" />
    <glyph glyph-name="B" unicode="B" horiz-adv-x="1640" 
d="M210 0l147 148q64 0 84 2q45 3 75 14.5t53 34.5q36 35 65 114t56 210l174 879q-84 0 -158 -19.5t-130 -56.5q-80 -53 -125.5 -139t-45.5 -184v-22l-194 -94q10 119 47.5 210t108.5 166q61 65 149 112.5t189 71.5q67 15 172.5 24t218.5 9q130 0 248 -12q55 -6 107 -22.5
t86 -38.5q53 -33 83.5 -90.5t30.5 -119.5q0 -71 -36 -142.5t-100 -127.5q-48 -43 -119.5 -79.5t-149.5 -59.5q-20 -6 -55 -15l54 -18q76 -25 135 -54q44 -22 72.5 -43t54.5 -51q70 -84 70 -179q0 -79 -45.5 -157t-127.5 -138q-61 -46 -144.5 -81t-167.5 -51
q-135 -26 -286 -26q-102 0 -260 8zM954 796h52q109 0 182 28.5t136 95.5q53 57 82.5 126t29.5 138q0 48 -20.5 92t-56.5 73q-41 32 -109.5 51t-147.5 19h-24zM565 122q194 -30 277.5 -39t164.5 -9q95 0 157.5 21.5t114.5 71.5q44 44 63 95.5t19 127.5q0 141 -80 224
q-53 56 -136 87.5t-176 31.5h-28l-22 -112q-39 -196 -131 -315q-63 -80 -143 -136q-28 -20 -80 -48z" />
    <glyph glyph-name="C" unicode="C" horiz-adv-x="1412" 
d="M1622 1450l-140 -164q-55 40 -91 59.5t-76 32.5q-86 29 -206 29q-99 0 -169 -19q-127 -32 -224.5 -127t-160.5 -246q-41 -100 -65 -234.5t-24 -269.5q0 -108 22 -192q26 -103 114 -168q53 -40 124 -58.5t167 -18.5q145 0 275 37q78 22 196 75l-19 -95q-135 -54 -225 -80
q-168 -48 -350 -48q-152 0 -256.5 38.5t-167.5 118.5q-49 62 -75.5 153t-26.5 198q0 182 69.5 366t195.5 334q146 173 329 259.5t403 86.5q117 0 232 -22q43 -9 71.5 -17.5t77.5 -27.5z" />
    <glyph glyph-name="D" unicode="D" horiz-adv-x="1922" 
d="M212 0l147 148q34 0 65 2q71 5 110.5 24.5t72.5 67.5q22 33 36.5 76.5t32.5 134.5l189 949q-85 0 -159 -19.5t-130 -56.5q-80 -52 -125.5 -138t-45.5 -184v-23l-194 -94q5 52 11 87q16 82 48.5 149.5t87.5 128.5q62 68 142 116.5t171 71.5q108 27 242.5 40t312.5 13
q162 0 306 -24q87 -14 167 -48.5t133 -81.5q143 -126 143 -381q0 -249 -119 -458q-96 -168 -266 -300q-128 -100 -255 -147t-316 -67q-125 -12 -260 -12q-64 0 -118 3l-193 12q-174 11 -236 11zM573 126q174 -31 277 -43t208 -12q148 0 255 39t187 122q65 66 119.5 167
t87.5 212q46 159 46 318q0 112 -33 206t-93 151q-65 63 -176.5 98t-247.5 35h-125l-153 -767q-25 -129 -48 -189q-25 -67 -69.5 -130t-100.5 -112q-48 -42 -134 -95z" />
    <glyph glyph-name="E" unicode="E" horiz-adv-x="1506" 
d="M210 0l147 148q64 0 84 2q45 3 75 14.5t53 34.5q36 35 65.5 114t55.5 210l174 879q-84 0 -158 -19.5t-130 -56.5q-80 -53 -125.5 -139t-45.5 -184v-22l-194 -94q11 140 63 243q60 119 170.5 200.5t260.5 116.5q67 15 168.5 24t207.5 9h598l-103 -140q-29 18 -45 24.5
t-44 11.5q-92 18 -222 18h-192l-109 -549h446l-104 -116q-224 30 -309 30h-51l-25 -127q-40 -203 -127 -321q-33 -45 -78.5 -84t-129.5 -95l480 -18l108 -3q116 0 203 45q40 20 99 67l-16 -81q-105 -106 -180 -142.5t-187 -36.5q-71 0 -212 8q-297 18 -385 18z" />
    <glyph glyph-name="F" unicode="F" horiz-adv-x="1403" 
d="M-156 -315l141 120q35 -40 62 -60.5t67 -35.5q59 -22 143 -22q148 0 219 63q59 53 89 168q21 82 42 189l112 565h-173l73 87h117l128 643q-84 0 -158 -19.5t-130 -56.5q-80 -53 -126 -139t-46 -184l1 -22l-194 -94q11 140 63 243q60 119 170.5 200.5t260.5 116.5
q67 15 168.5 24t207.5 9h598l-103 -140q-29 18 -45 24.5t-44 11.5q-92 18 -222 18h-192l-127 -635h447l-105 -116q-224 29 -309 29h-50l-88 -444q-60 -301 -270 -488q-185 -164 -419 -164q-104 0 -190 33q-36 14 -60 29.5t-58 46.5z" />
    <glyph glyph-name="G" unicode="G" horiz-adv-x="1519" 
d="M366 -310l141 119q35 -40 62.5 -60t67.5 -35q58 -22 143 -22q75 0 125.5 15t91.5 49q51 42 82 103.5t50 157.5l6 32q-88 -23 -188.5 -36.5t-186.5 -13.5q-144 0 -249 40t-166 118q-47 59 -74 148.5t-27 182.5q0 172 70 353.5t194 329.5q292 346 733 346q116 0 232 -22
q42 -9 70.5 -17.5t77.5 -27.5l-140 -164q-55 40 -90.5 59.5t-76.5 32.5q-86 29 -206 29q-98 0 -169 -19q-256 -65 -384 -373q-42 -102 -65.5 -228t-23.5 -252q0 -131 32 -213t103 -134q106 -77 281 -77q72 0 168 12q46 5 104 21l95 479h-177q-60 0 -105 -8.5t-88 -27.5
q-69 -31 -127 -77l14 69q97 95 178.5 134.5t181.5 39.5h358l-79 -309l-42 -212q-60 -301 -270 -487q-185 -164 -418 -164q-105 0 -191 33q-36 14 -60 29.5t-58 46.5z" />
    <glyph glyph-name="H" unicode="H" horiz-adv-x="2043" 
d="M1665 734h-617l-24 -119q-31 -152 -97.5 -273t-172.5 -215q-185 -164 -418 -164q-105 0 -191 33q-36 14 -60 29.5t-58 46.5l141 120q35 -40 62.5 -60.5t67.5 -35.5q58 -22 143 -22q148 0 218 63q59 53 89 168q21 82 42 189l48 240h-174l68 80h122l117 588q-54 5 -82 5
q-72 0 -131 -27q-67 -30 -125.5 -91.5t-89.5 -132.5q-31 -72 -31 -155v-15l-194 -95q6 76 20 132q46 173 189 291q47 39 105 71t113 49q68 22 173 34t224 12h54l-132 -666h616l35 173q37 188 98 319q31 69 83.5 137t118.5 125q103 89 222 136.5t241 47.5q51 0 95 -5t85 -16
l-137 -143q-65 30 -109.5 41.5t-90.5 11.5q-63 0 -122.5 -24.5t-96.5 -65.5q-50 -54 -84 -167q-42 -141 -74 -298l-198 -1000h269l-187 -86h-548l175 86h81z" />
    <glyph glyph-name="I" unicode="I" horiz-adv-x="842" 
d="M-65 0l150 148q80 0 109 3q76 7 130 76q15 20 26 43.5t24 64.5q24 78 44 181l163 816h-271l145 148h651l-152 -148h-164l-140 -708q-18 -90 -57 -178.5t-88 -150.5q-37 -48 -80 -84.5t-111 -77.5l389 -10l-144 -148z" />
    <glyph glyph-name="J" unicode="J" horiz-adv-x="949" 
d="M-268 -211l141 119q35 -40 62 -60t67 -36q59 -22 143 -22q148 0 219 63q59 53 89 169q21 82 42 188l223 1122h-271l145 148h651l-152 -148h-163l-199 -1001q-60 -301 -270 -487q-185 -165 -419 -165q-104 0 -190 34q-36 14 -60 29t-58 47z" />
    <glyph glyph-name="K" unicode="K" horiz-adv-x="1956" 
d="M27 72l141 120q35 -40 62.5 -60.5t67.5 -35.5q58 -22 142 -22q148 0 219 63q59 53 89 168q21 82 42 189l181 908q-54 5 -82 5q-72 0 -131 -27q-67 -30 -125.5 -91.5t-89.5 -132.5q-31 -72 -31 -155v-15l-194 -95q6 76 20 132q46 173 189 291q47 39 105 71t113 49
q68 22 173 34t224 12h54l-142 -716q157 145 225 210l299 284q80 76 158 135.5t134 86.5q41 21 74 29t72 8t70.5 -8.5t65.5 -28.5l-138 -147q-27 22 -43 29t-41 7q-39 0 -86 -17q-39 -13 -71.5 -31t-81.5 -55q-141 -104 -312 -281q-44 -47 -69.5 -77.5t-66.5 -87.5
q37 -63 56 -95l137 -239q55 -97 128.5 -191.5t129.5 -140.5q36 -30 65 -42.5t62 -12.5t67.5 15.5t116.5 68.5l-15 -76q-61 -51 -134 -93q-53 -30 -85.5 -40.5t-71.5 -10.5q-68 0 -134.5 43t-150.5 142q-72 85 -147 209t-216 392l-27 -134q-31 -152 -97.5 -273t-172.5 -215
q-185 -164 -418 -164q-105 0 -191 33q-36 14 -60 29.5t-58 46.5z" />
    <glyph glyph-name="L" unicode="L" horiz-adv-x="1271" 
d="M376 132l479 -18l109 -3q115 0 202 45q41 20 100 67l-16 -81q-105 -106 -180 -142.5t-188 -36.5q-70 0 -211 8q-297 18 -385 18l-286 11l147 148q64 0 84 2q45 3 75 14.5t53 34.5q36 35 65 114t56 210l94 473q25 126 80.5 222t145.5 168q163 132 372 132q63 0 115.5 -11
t117.5 -37l-138 -161q-24 29 -41.5 43.5t-40.5 26.5q-57 27 -129 27q-95 0 -148 -49q-29 -28 -57 -95.5t-45 -152.5l-95 -477q-41 -203 -127 -321q-34 -45 -79 -84t-129 -95z" />
    <glyph glyph-name="M" unicode="M" horiz-adv-x="2306" 
d="M27 72l141 120q35 -40 62.5 -60.5t67.5 -35.5q60 -22 134 -22q136 0 216 76q30 28 55 70.5t41 89.5q26 82 46 184l181 908q-53 5 -82 5q-72 0 -131 -27q-66 -30 -125 -91.5t-90 -132.5q-31 -72 -31 -155v-15l-194 -95q5 70 17.5 120.5t35.5 101.5q50 110 148.5 194
t225.5 126q68 23 156 35t179 12h85q50 -138 87.5 -265.5t88.5 -334.5q39 -157 56 -239t38 -220l656 1059l214 25l-76 -321l-218 -1098h269l-187 -86h-492l175 86h37l233 1170l-684 -1096l-103 -16l1 46q0 65 -15 183t-37 235q-22 113 -82 339q-29 108 -58 197l-106 -529
q-27 -139 -70 -252q-58 -155 -179 -258q-79 -67 -179 -104.5t-203 -37.5q-99 0 -185 34q-37 14 -60.5 29t-58.5 46z" />
    <glyph glyph-name="N" unicode="N" horiz-adv-x="2106" 
d="M27 72l141 120q35 -40 62.5 -60.5t67.5 -35.5q59 -22 134 -22q135 0 215 76q30 28 55.5 70.5t40.5 89.5q27 82 47 184l181 908q-54 5 -82 5q-72 0 -131 -27q-67 -30 -125.5 -91.5t-89.5 -132.5q-31 -72 -31 -155v-15l-194 -95q5 70 17 120.5t35 101.5q51 110 149 194
t226 126q68 23 156 35t179 12h54l25 -63q42 -112 79.5 -193.5t89.5 -175.5l73 -131l76 -139l85 -147l78 -150l65 -124q4 -7 19 -38l132 668q36 179 84 319q61 174 185 284q86 75 202 118.5t231 43.5q51 0 95 -5t85 -16l-137 -143q-65 30 -109.5 41.5t-90.5 11.5
q-63 0 -122.5 -24.5t-97.5 -65.5q-49 -54 -83 -167q-43 -141 -74 -298l-157 -790l-47 -296l-134 -43q-15 46 -37.5 94.5t-67.5 130.5l-95 177q-17 31 -99 179l-103 184l-69 131l-60 110l-63 116q-9 17 -28 49l-102 -513q-27 -139 -70 -252q-58 -154 -179 -258
q-79 -67 -179.5 -104.5t-202.5 -37.5q-99 0 -186 34q-36 14 -60 29t-58 46z" />
    <glyph glyph-name="O" unicode="O" horiz-adv-x="1601" 
d="M685 -37q-81 0 -143 17t-116 53q-50 34 -88 80t-60 97q-45 110 -45 244q0 236 100.5 457.5t278.5 376.5q262 230 592 230q129 0 211 -39q67 -32 120.5 -87.5t81.5 -121.5q45 -109 45 -241q0 -220 -89 -432q-99 -238 -290 -404q-133 -116 -281.5 -173t-316.5 -57zM819 74
q119 0 213 42q114 51 195 145t135 239q38 99 57.5 220t19.5 248q0 120 -30 219q-28 96 -111 155q-90 65 -226 65q-119 0 -224.5 -49.5t-182.5 -140.5q-56 -67 -102 -165t-70 -205q-38 -161 -38 -330q0 -123 30 -224q29 -94 112 -155q43 -31 100.5 -47.5t121.5 -16.5z" />
    <glyph glyph-name="P" unicode="P" horiz-adv-x="1542" 
d="M921 636l-2 -12q-14 -83 -54.5 -175.5t-89.5 -153.5q-37 -47 -80.5 -84t-110.5 -78l389 -10l-144 -148l-624 25l150 148q80 0 108 3q77 7 131 76q15 20 26 43.5t23 64.5q25 78 45 181l179 898q-53 0 -103 -11q-57 -13 -114.5 -39t-98.5 -56q-60 -45 -97 -113
q-50 -91 -50 -192v-22l-194 -94q5 52 11 87q54 280 327 419q73 38 142.5 57.5t165.5 29.5q116 13 260 13t272 -15q54 -6 106.5 -23t86.5 -40q54 -36 84 -96t30 -132q0 -169 -130 -316q-57 -64 -135.5 -117t-156.5 -79q-82 -27 -220 -35q-75 -4 -132 -4zM934 698
q101 0 165 10q154 24 244 100q34 29 59 67t45 91q32 88 32 176q0 65 -17.5 118t-49.5 85q-52 51 -175 72q-82 14 -157 14z" />
    <glyph glyph-name="Q" unicode="Q" horiz-adv-x="1509" 
d="M145 78l118 115l160 -64q113 11 173.5 20t118.5 22q132 31 228.5 78.5t167.5 117.5q107 105 166 267q58 161 58 341q0 115 -31 212q-31 96 -111 155q-87 64 -211 64q-77 0 -151 -27.5t-130 -78.5q-54 -49 -99 -128t-71 -170q-34 -123 -34 -247q0 -149 56 -217
q22 -27 56 -42t72 -15q56 0 112 20t117 61l-17 -85q-43 -32 -70 -48t-64 -31q-97 -40 -178 -40q-53 0 -107 23t-91 61q-41 43 -65 113.5t-24 149.5q0 134 59 279t160 258q116 131 273 203.5t326 72.5q96 0 171 -28.5t136 -87.5q66 -64 101.5 -156.5t35.5 -201.5
q0 -234 -122 -449q-95 -169 -243.5 -285t-347.5 -178q-97 -30 -265 -64l573 -241q121 -51 195 -71.5t134 -20.5q68 0 131.5 21t147.5 72l-15 -71q-48 -42 -84 -65.5t-85 -45.5q-48 -22 -87 -31.5t-81 -9.5q-54 0 -109.5 14.5t-161.5 57.5z" />
    <glyph glyph-name="R" unicode="R" horiz-adv-x="1795" 
d="M205 0l150 148q80 0 109 3q77 7 130 76q16 20 26.5 43.5t23.5 64.5q24 78 45 181l178 898q-53 0 -102 -11q-57 -13 -114.5 -39t-98.5 -56q-61 -45 -98 -113q-49 -91 -49 -192v-22l-194 -94q4 52 11 87q53 280 326 419q74 38 142.5 57.5t164.5 29.5q116 13 253 13
q145 0 263 -15q55 -7 111 -25.5t97 -43.5q123 -76 123 -216q0 -139 -113 -262q-80 -88 -204 -157q-27 -15 -72 -38l240 -403q68 -114 111 -166q21 -26 39 -37.5t39 -11.5q19 0 38 9t52 33q49 36 102 85l-19 -95q-48 -48 -109 -96t-93 -63.5t-71 -15.5q-33 0 -67.5 16.5
t-65.5 47.5q-29 29 -77 99.5t-85 137.5l-225 415h-189l-13 -67q-39 -194 -144 -329q-38 -48 -80.5 -84t-111.5 -78l390 -10l-144 -148zM945 753h265q32 16 48 25q86 51 148 140q80 117 80 241q0 56 -19 105.5t-53 80.5q-42 40 -121.5 63t-173.5 23h-39z" />
    <glyph glyph-name="S" unicode="S" horiz-adv-x="1207" 
d="M129 45l153 152q58 -41 94 -61t80 -34q88 -28 207 -28q77 0 132.5 13.5t94.5 41.5q85 61 85 185q0 50 -12.5 90.5t-38.5 75.5q-19 26 -46 51.5t-127 113.5l-95 85q-102 90 -126.5 113.5t-44.5 48.5q-62 80 -62 185q0 90 43.5 170t126.5 143q83 62 189.5 94.5t229.5 32.5
q91 0 170 -16q36 -8 62 -17t70 -30l-137 -161q-35 33 -58 49.5t-54 30.5q-76 34 -172 34q-65 0 -121 -14.5t-92 -40.5q-40 -29 -62.5 -74.5t-22.5 -98.5q0 -40 11 -73t36 -69q21 -30 55.5 -64.5t120.5 -110.5l95 -85q98 -86 125 -112t48 -51q62 -77 62 -194q0 -102 -44 -183
t-135 -149q-87 -66 -183.5 -95.5t-220.5 -29.5q-90 0 -182 14q-58 10 -110.5 24t-143.5 44z" />
    <glyph glyph-name="T" unicode="T" horiz-adv-x="1501" 
d="M385 0l150 148q80 0 109 3q77 7 130 76q16 20 26.5 43.5t23.5 64.5q24 78 45 181l162 816h-253q-282 0 -353 -154q-17 -39 -29 -116q-8 -56 -8 -94v-29l-194 -97q12 80 28.5 136t44.5 112q58 111 159 198t228 134q75 28 167 43t187 15h535q215 0 304 89q35 35 58 87.5
t23 95.5q0 9 -1 30q-2 22 -2 28l183 90q-7 -53 -16 -86q-19 -62 -59.5 -128t-95.5 -122q-113 -114 -271 -173t-353 -59h-72l-141 -708q-18 -90 -57 -178.5t-87 -150.5q-37 -48 -80.5 -84.5t-111.5 -77.5l390 -10l-144 -148z" />
    <glyph glyph-name="U" unicode="U" horiz-adv-x="1975" 
d="M1524 310q-67 -101 -112 -155.5t-97 -95.5q-121 -96 -276 -96q-80 0 -150 25.5t-118 71.5q-56 56 -86 146.5t-30 208.5q0 257 189 934l15 53q-54 5 -82 5q-72 0 -131 -27q-66 -30 -125 -91.5t-90 -132.5q-31 -72 -31 -155v-15l-194 -95q6 76 21 132q46 173 188 291
q48 39 105.5 71t112.5 49q68 22 173.5 34t223.5 12h54l-28 -111q-75 -290 -98 -385.5t-42 -186.5q-26 -128 -37 -218.5t-11 -185.5q0 -93 14.5 -150.5t47.5 -95.5q31 -35 76.5 -54t96.5 -19q67 0 121 26.5t119 91.5q44 44 87.5 100.5t74.5 110.5q23 38 62 119l190 958
l227 25l-76 -321l-218 -1098h269l-187 -86h-309z" />
    <glyph glyph-name="V" unicode="V" horiz-adv-x="1611" 
d="M911 0l-105 -25l6 265q0 374 -35 645q-20 156 -50 267t-81 217q-74 154 -153 218q-36 30 -72.5 42t-90.5 12q-59 0 -110 -19.5t-105 -63.5q-48 -39 -86 -85.5t-90 -128.5l26 136q37 57 67.5 91t78.5 72q73 57 146.5 83t160.5 26q97 0 179 -38q68 -31 115.5 -78.5
t95.5 -130.5q59 -103 100 -236.5t70 -317.5q20 -125 31.5 -272t11.5 -271l2 -97l688 1083h-266l187 86h420l-175 -86h-81z" />
    <glyph glyph-name="W" unicode="W" horiz-adv-x="2202" 
d="M1627 0l-102 -25q8 138 8 195q0 322 -91 892l-16 100l-568 -1162l-103 -25q13 163 17.5 265.5t4.5 225.5q0 193 -13 396q-10 141 -32 272.5t-49 205.5q-55 150 -164 242q-72 60 -175 60q-105 0 -210 -78q-50 -38 -90 -85.5t-97 -137.5l14 119q28 42 44 62q68 87 166 149
q129 81 257 81q138 0 243 -82q84 -64 148 -186q47 -89 78 -195.5t48 -243.5q10 -77 17.5 -232.5t7.5 -293.5l2 -124l513 1041l105 27q0 -70 16 -186l15 -111q18 -130 21 -153l20 -126q2 -11 17 -144l18 -149l15 -180q2 -28 7 -81l545 1061h-267l188 86h420l-175 -86h-81z
" />
    <glyph glyph-name="X" unicode="X" horiz-adv-x="1526" 
d="M823 713l-134 407q-51 154 -78 203q-16 30 -34 41.5t-47 11.5q-50 0 -101 -40q-20 -15 -42.5 -39.5t-59.5 -71.5l-40 -51l24 128q37 54 67.5 88t68.5 64q45 35 82 49t85 14q46 0 80.5 -14t63.5 -45q21 -23 42 -58t35 -70q25 -63 59 -164l90 -262l247 299q78 94 115 134
q60 66 139 118q51 33 93.5 47.5t88.5 14.5q37 0 65 -9t57 -31l-169 -169q-17 11 -28 14.5t-31 3.5q-33 0 -59.5 -10t-62.5 -36q-59 -42 -135 -117.5t-156 -169.5l-141 -165l159 -469q30 -90 49.5 -137t36.5 -68q18 -23 41.5 -36t46.5 -13q42 0 102 48q48 40 107 116
l-22 -112q-31 -44 -57 -70.5t-66 -57.5q-50 -38 -86 -52t-84 -14q-37 0 -71 11.5t-57 30.5q-33 30 -77 125q-31 69 -51 128l-128 383l-328 -397q-83 -100 -134 -153t-94 -83q-64 -45 -131 -45q-60 0 -113 30q-39 23 -98 90l196 111q24 -23 41.5 -31.5t38.5 -8.5q67 0 159 79
q37 31 119.5 118.5t150.5 166.5z" />
    <glyph glyph-name="Y" unicode="Y" horiz-adv-x="1680" 
d="M1249 488q-139 -205 -211 -287t-152 -126q-37 -20 -78 -20q-30 0 -56.5 15t-43.5 41q-21 31 -36 93.5t-21 144.5l-57 706l-15 139q-6 62 -14.5 97.5t-21.5 52.5q-23 32 -67 32q-30 0 -57.5 -14t-63.5 -47q-48 -44 -119 -131l23 118q42 59 75.5 95t76.5 67
q39 29 75.5 41.5t81.5 12.5q114 0 167 -89q18 -32 33.5 -91.5t23.5 -127.5q12 -114 19 -217l42 -549q9 -111 26 -154t53 -43q22 0 36 8q43 25 88.5 75t144.5 181q54 71 87 127l212 842l232 19l-92 -315l-195 -785q-54 -216 -128 -373q-34 -70 -86.5 -138.5t-116.5 -123.5
q-100 -87 -219.5 -135.5t-233.5 -48.5q-82 0 -186 27q-32 8 -55.5 17t-64.5 28l137 143q114 -60 182 -81.5t138 -21.5q60 0 119 24.5t97 65.5q52 56 83 166q24 81 54 203z" />
    <glyph glyph-name="Z" unicode="Z" horiz-adv-x="1370" 
d="M84 -25l27 136l1124 1180q-129 -26 -215 -26q-84 0 -213 29l-110 24l-59 13q-91 20 -138 20q-44 0 -83.5 -13.5t-103.5 -50.5l17 82q58 52 147 95q49 23 85 32t82 9q38 0 62.5 -3.5t100.5 -20.5l113 -24q118 -26 253 -26q84 0 144 11t124 38l-27 -135l-1071 -1143
q140 14 213 14q87 0 201 -26l141 -32q48 -11 112 -20t96 -9q42 0 73.5 13.5t79.5 50.5q44 34 64.5 54t45.5 54l-23 -114q-45 -60 -77.5 -94.5t-71.5 -62.5q-94 -67 -198 -67q-75 0 -213 30l-133 29q-128 28 -211 28q-59 0 -129 -9q-41 -5 -69.5 -12.5t-85.5 -27.5
q-24 -9 -74 -26z" />
    <glyph glyph-name="bracketleft" unicode="[" horiz-adv-x="740" 
d="M256 -296l351 1764l101 111h414l-108 -111h-296l-329 -1653h383l-109 -111h-407z" />
    <glyph glyph-name="backslash" unicode="\" horiz-adv-x="1129" 
d="M876 -691l-116 -25l-265 2616l116 25z" />
    <glyph glyph-name="bracketright" unicode="]" horiz-adv-x="740" 
d="M739 1579l-351 -1764l-101 -111h-414l108 111h296l329 1653h-382l108 111h407z" />
    <glyph glyph-name="asciicircum" unicode="^" horiz-adv-x="1357" 
d="M973 1480l368 -879l-98 -69l-325 777l-504 -655l-172 -122z" />
    <glyph glyph-name="underscore" unicode="_" horiz-adv-x="1123" 
d="M110 -130l26 130h851l-26 -130h-851z" />
    <glyph glyph-name="grave" unicode="`" horiz-adv-x="1208" 
d="M1117 1362l-125 -79q-21 42 -35 65t-40 57q-34 45 -61.5 74.5t-71.5 69.5l119 92q67 -68 115 -130.5t99 -148.5z" />
    <glyph glyph-name="a" unicode="a" horiz-adv-x="1357" 
d="M983 543q-19 -32 -29 -48q-80 -128 -114 -179t-68 -92q-146 -178 -277 -232q-41 -17 -97 -17q-95 0 -149 61q-29 34 -47 89t-18 114q0 137 61 288t171 283q69 83 145 143.5t153 92.5q125 52 287 52q54 0 147 -4t153 -8l-72 -296l-97 -494q-23 -115 -23 -150q0 -29 16 -46
t44 -17q27 0 59.5 16.5t80.5 54.5q76 60 157 149l-18 -93q-56 -60 -97 -96t-87 -66q-113 -73 -210 -73q-64 0 -103 36q-40 37 -40 115q0 50 23 170zM1063 943q-54 24 -101 36q-84 20 -148 20q-56 0 -114.5 -29.5t-99.5 -84.5q-35 -46 -74.5 -134t-66.5 -180
q-56 -185 -56 -320q0 -64 22 -96t57 -32q25 0 46.5 7.5t52.5 25.5q41 25 73 55.5t81 92.5q99 124 211 292q27 39 38 58.5t34 61.5z" />
    <glyph glyph-name="b" unicode="b" horiz-adv-x="1270" 
d="M185 0l71 296l167 839q36 180 98 319q31 72 82 140t114 123q99 87 220.5 135t242.5 48q51 0 95 -5t85 -16l-137 -143q-66 30 -110 41.5t-90 11.5q-64 0 -121.5 -24t-97.5 -66q-27 -29 -51 -73.5t-39 -93.5q-40 -130 -74 -298l-137 -691l29 47q71 115 109 172t73 100
q146 178 276 231q42 17 98 17q94 0 148 -61q30 -33 48 -88t18 -114q0 -138 -61.5 -288.5t-170.5 -282.5q-70 -84 -146 -144t-153 -92q-124 -52 -287 -52q-53 0 -146 3.5t-153 8.5zM423 143q54 -24 100 -36q85 -21 149 -21q56 0 114.5 30t99.5 85q35 45 74.5 133.5
t66.5 179.5q55 186 55 321q0 64 -22 95.5t-56 31.5q-25 0 -47 -7t-52 -25q-42 -25 -73.5 -55.5t-81.5 -93.5q-100 -126 -210 -291q-27 -40 -38.5 -59t-33.5 -62z" />
    <glyph glyph-name="c" unicode="c" horiz-adv-x="1112" 
d="M1082 296l-16 -77q-49 -46 -93 -76.5t-111 -67.5q-99 -54 -176.5 -77t-159.5 -23q-150 0 -231 79q-49 46 -75 115t-26 153q0 133 52.5 270.5t147.5 252.5q111 134 245.5 200t305.5 66q72 0 130 -13q27 -6 48.5 -14.5t57.5 -26.5l-138 -143q-65 47 -108 63q-61 23 -129 23
q-163 0 -252 -123q-31 -44 -59.5 -118.5t-45.5 -156.5q-25 -126 -25 -235q0 -149 66 -223q25 -27 61 -42.5t67 -15.5q110 0 246 68q44 22 88 51t130 91z" />
    <glyph glyph-name="d" unicode="d" horiz-adv-x="1357" 
d="M984 543l-30 -48q-80 -128 -114 -179t-68 -92q-146 -178 -277 -232q-41 -17 -97 -17q-95 0 -149 61q-29 34 -47 89t-18 114q0 137 61.5 288t170.5 283q141 169 298 236q124 52 280 52q36 0 99 -3l8 40q36 180 98 319q31 72 82 140t114 123q99 87 220.5 135t242.5 48
q51 0 95 -5t85 -16l-137 -143q-65 30 -109.5 41.5t-90.5 11.5q-63 0 -121 -24t-98 -66q-27 -29 -51 -73.5t-39 -93.5q-40 -130 -74 -298l-186 -938q-23 -115 -23 -150q0 -29 16 -46t44 -17q27 0 59.5 16.5t80.5 54.5q76 60 157 149l-18 -93q-56 -60 -97 -96t-87 -66
q-113 -73 -210 -73q-64 0 -103 36q-40 37 -40 115q0 50 23 170zM1063 943q-54 24 -100 36q-85 20 -149 20q-56 0 -114.5 -29.5t-99.5 -84.5q-35 -46 -74.5 -134t-66.5 -180q-55 -185 -55 -320q0 -64 22 -96t56 -32q25 0 46.5 7.5t52.5 25.5q41 25 73 55.5t81 92.5
q99 124 211 292q27 39 38.5 58.5t33.5 61.5z" />
    <glyph glyph-name="e" unicode="e" horiz-adv-x="1112" 
d="M1082 296l-15 -77q-50 -46 -93.5 -76.5t-111.5 -67.5q-98 -54 -175.5 -77t-159.5 -23q-140 0 -222 79q-49 46 -75 115t-26 153q0 162 76.5 327t205.5 281q97 87 206.5 133.5t218.5 46.5q82 0 129 -39q28 -22 40.5 -54.5t12.5 -79.5q0 -114 -63.5 -213.5t-184.5 -172.5
q-96 -58 -210 -91t-220 -33v-48q0 -82 16 -140t50 -95q24 -28 60 -43t77 -15q111 0 247 68q43 22 87.5 51t129.5 91zM421 489q97 0 201 40q98 38 162.5 91t92.5 118q25 58 25 128q0 69 -28 101t-89 32q-89 0 -161 -48q-123 -83 -175 -299q-16 -64 -28 -163z" />
    <glyph glyph-name="f" unicode="f" horiz-adv-x="837" 
d="M-478 -793l138 142q65 -29 109 -40.5t91 -11.5q63 0 121.5 24t97.5 66q51 55 90 166q50 146 76 299l196 1160h-224l70 74h167l8 49q29 171 98 319q70 152 196 263q99 87 220.5 135t242.5 48q51 0 95 -5t86 -16l-138 -143q-65 30 -109 41.5t-91 11.5q-63 0 -121.5 -24
t-97.5 -66q-51 -55 -90 -167q-51 -145 -77 -298l-25 -148h378l-81 -89q-35 4 -127 9.5t-128 5.5h-54l-180 -1061q-28 -171 -97 -320q-71 -152 -196 -262q-99 -87 -220.5 -135t-243.5 -48q-50 0 -94 5t-86 16z" />
    <glyph glyph-name="g" unicode="g" horiz-adv-x="1283" 
d="M332 16q-41 22 -59.5 38t-33.5 40q-18 32 -29.5 78.5t-11.5 90.5q0 128 60 273.5t167 273.5q69 83 145.5 143.5t152.5 92.5q125 52 287 52q54 0 147 -4t153 -8l-71 -296l-46 -232q-17 -81 -39 -272q-23 -191 -55 -344q-33 -159 -107 -306.5t-169 -243.5
q-114 -116 -275 -173q-94 -33 -195 -33q-93 0 -173 29.5t-135 83.5q-48 49 -75 114.5t-27 135.5q0 96 48 184.5t140 163.5q75 60 201 119zM1072 943q-54 24 -100 36q-85 20 -149 20q-56 0 -114.5 -29.5t-99.5 -84.5q-35 -46 -74.5 -134t-66.5 -180q-51 -170 -51 -295
q0 -65 22.5 -96.5t56.5 -31.5q25 0 47 7.5t53 25.5q41 25 75.5 56.5t82.5 88.5q105 124 202 269q33 50 71 121zM993 543l-30 -48q-101 -162 -141 -213q-42 -55 -96.5 -109t-105.5 -90q-61 -44 -105 -62t-104 -24q-63 -29 -96.5 -49.5t-63.5 -48.5q-59 -55 -91 -127.5
t-32 -152.5q0 -67 23 -125.5t65 -101.5q46 -46 113 -70.5t148 -24.5q180 0 268 127q25 36 51 101.5t46 141.5q45 167 66 308z" />
    <glyph glyph-name="h" unicode="h" horiz-adv-x="1369" 
d="M504 543q84 134 143 218q82 117 147.5 187t129.5 109q86 53 172 53q70 0 112 -44q24 -24 37.5 -60.5t13.5 -76.5q0 -60 -17 -145l-97 -488q-23 -116 -23 -150q0 -29 16.5 -46t44.5 -17q27 0 59 16.5t81 54.5q76 60 157 149l-19 -93q-55 -60 -96 -96t-87 -66
q-113 -73 -210 -73q-64 0 -104 36q-40 37 -40 114q0 51 24 171l97 490q12 57 12 96q0 38 -16 59.5t-44 21.5q-29 0 -58 -14t-68 -45q-54 -44 -116.5 -119t-142.5 -192q-47 -67 -74 -111.5t-71 -124.5l-71 -357l-213 -12l74 308l167 839q36 180 98 319q31 72 82 140t114 123
q99 87 220.5 135t242.5 48q51 0 95 -5t85 -16l-137 -143q-66 30 -110 41.5t-90 11.5q-64 0 -121.5 -24t-97.5 -66q-27 -29 -51 -73.5t-39 -93.5q-40 -130 -74 -298z" />
    <glyph glyph-name="i" unicode="i" horiz-adv-x="765" 
d="M106 783l19 92q56 61 96.5 97t86.5 65q113 73 210 73q64 0 104 -36t40 -114q0 -50 -24 -170l-98 -494q-23 -115 -23 -148q0 -30 16 -47.5t45 -17.5q26 0 58.5 16.5t80.5 54.5q76 59 157 149l-18 -93q-56 -60 -97 -96t-86 -66q-113 -73 -210 -73q-64 0 -104 36
q-40 37 -40 115q0 50 23 168l99 496q23 115 23 148q0 30 -16.5 47t-44.5 17q-27 0 -59 -16t-81 -54q-75 -59 -157 -149zM507 1283l67 136l282 184l-86 -184z" />
    <glyph glyph-name="j" unicode="j" horiz-adv-x="671" 
d="M703 1110l-76 -320l-167 -839q-36 -180 -98 -320q-31 -71 -82 -139t-114 -123q-99 -87 -220.5 -135t-242.5 -48q-51 0 -95 5t-85 16l137 142q66 -29 110 -40.5t90 -11.5q64 0 122 24t97 66q27 29 51 73t39 93q40 130 74 299l221 1113l-274 -86l36 79zM488 1283l67 136
l286 184l-89 -184z" />
    <glyph glyph-name="k" unicode="k" horiz-adv-x="1295" 
d="M183 -12l74 308l166 839q36 179 98 319q32 72 82.5 140t113.5 123q99 87 220.5 135t242.5 48q51 0 95 -5t86 -16l-138 -143q-65 30 -109 41.5t-91 11.5q-63 0 -121 -24t-98 -66q-27 -29 -51 -73.5t-39 -93.5q-40 -130 -74 -298l-116 -585q29 63 51.5 102t56.5 84
q65 86 144 151t155 97q37 15 68.5 21t69.5 6q97 0 141 -55q17 -22 27 -53.5t10 -65.5q0 -81 -53.5 -157t-156.5 -142q-126 -81 -321 -132q46 -65 91 -119q71 -86 135 -152t107 -97q30 -21 50.5 -29.5t43.5 -8.5q43 0 104.5 41.5t186.5 153.5l-17 -85q-108 -105 -173 -150
q-61 -43 -115 -63.5t-106 -20.5q-74 0 -150 57q-42 31 -101 91.5t-110 126.5q-27 34 -140 182l-33 43l-94 -475zM503 543h38q111 0 214.5 31.5t180.5 88.5q61 46 93.5 99t32.5 108q0 25 -6 47t-16 34q-20 24 -68 24q-79 0 -153 -48q-41 -26 -85.5 -69.5t-79.5 -90.5
q-57 -77 -124 -182z" />
    <glyph glyph-name="l" unicode="l" horiz-adv-x="666" 
d="M791 308l-18 -92l-59 -59q-91 -88 -172 -134q-87 -48 -174 -48q-73 0 -111 42q-17 19 -24.5 45.5t-7.5 65.5q0 63 21 169l167 838q35 180 97 319q32 72 82.5 140t113.5 123q99 87 220.5 135t243.5 48q50 0 94 -5t86 -16l-138 -143q-65 30 -109 41.5t-91 11.5
q-63 0 -121 -24t-98 -66q-27 -29 -51 -73.5t-39 -93.5q-40 -130 -74 -298l-186 -938q-23 -115 -23 -148q0 -30 16 -47.5t44 -17.5q31 0 74 23.5t89 65.5l96 89q15 14 52 47z" />
    <glyph glyph-name="m" unicode="m" horiz-adv-x="2146" 
d="M268 -12l74 308l98 494q23 114 23 148q0 30 -16 47t-45 17q-26 0 -58.5 -16t-80.5 -54q-75 -59 -157 -149l18 92q56 61 97 97t87 65q112 73 210 73q64 0 103 -36q40 -36 40 -114q0 -51 -23 -170l-49 -247q84 134 143 218q82 117 147.5 187t129.5 109q86 53 172 53
q70 0 112 -44q24 -24 37.5 -60.5t13.5 -76.5q0 -60 -17 -145l-48 -241q85 134 144 218q82 117 147.5 187t129.5 109q86 53 172 53q70 0 112 -44q24 -24 37.5 -60.5t13.5 -76.5q0 -60 -17 -145l-97 -488q-23 -116 -23 -150q0 -29 16.5 -46t44.5 -17q26 0 58.5 16.5t81.5 54.5
q76 60 157 149l-19 -93q-56 -60 -96.5 -96t-86.5 -66q-113 -73 -210 -73q-64 0 -104 36q-40 37 -40 114q0 51 24 171l97 490q11 57 11 96q0 38 -15.5 59.5t-43.5 21.5q-29 0 -58 -14t-68 -45q-54 -44 -116.5 -119t-142.5 -192q-47 -67 -74.5 -111.5t-70.5 -124.5l-73 -357
h-196l156 786q12 57 12 96q0 38 -16 59.5t-44 21.5q-29 0 -58 -14t-68 -45q-54 -44 -116.5 -119t-142.5 -192q-47 -67 -74 -111.5t-71 -124.5l-73 -357z" />
    <glyph glyph-name="n" unicode="n" horiz-adv-x="1456" 
d="M268 -12l74 308l98 494q23 114 23 148q0 30 -16 47t-45 17q-26 0 -58.5 -16t-80.5 -54q-75 -59 -157 -149l18 92q56 61 97 97t87 65q112 73 210 73q64 0 103 -36q40 -36 40 -114q0 -51 -23 -170l-49 -247q84 134 143 218q82 117 147.5 187t129.5 109q86 53 172 53
q70 0 112 -44q24 -24 37.5 -60.5t13.5 -76.5q0 -60 -17 -145l-97 -488q-23 -116 -23 -150q0 -29 16.5 -46t44.5 -17q27 0 59 16.5t81 54.5q76 60 157 149l-19 -93q-55 -60 -96 -96t-87 -66q-113 -73 -210 -73q-64 0 -104 36q-40 37 -40 114q0 51 24 171l97 490q12 57 12 96
q0 38 -16 59.5t-44 21.5q-29 0 -58 -14t-68 -45q-54 -44 -116.5 -119t-142.5 -192q-47 -67 -74 -111.5t-71 -124.5l-71 -357z" />
    <glyph glyph-name="o" unicode="o" horiz-adv-x="1208" 
d="M512 -25q-137 0 -216 72q-51 46 -78.5 117.5t-27.5 156.5q0 161 70.5 319t194.5 275q101 96 214.5 145.5t240.5 49.5q139 0 217 -71q51 -46 78.5 -117.5t27.5 -155.5q0 -163 -70.5 -320.5t-195.5 -274.5q-104 -98 -215.5 -147t-239.5 -49zM624 86q104 0 172 42
q62 39 103 105.5t71 176.5q21 75 32.5 158.5t11.5 158.5q0 143 -68 216q-52 56 -150 56q-186 0 -277 -155q-47 -79 -78 -216t-31 -266q0 -75 16.5 -128.5t50.5 -90.5q53 -57 147 -57z" />
    <glyph glyph-name="p" unicode="p" horiz-adv-x="1356" 
d="M-466 -793l137 142q65 -29 109.5 -40.5t90.5 -11.5q63 0 121 24t98 66q27 29 51 73t39 93q40 130 74 299l221 1113l-274 -86l36 79l464 152l-112 -567l29 47q71 115 109 172t73 100q146 178 276 231q42 17 98 17q94 0 148 -61q30 -33 48 -88t18 -114q0 -138 -61.5 -288.5
t-170.5 -282.5q-123 -147 -261 -218t-304 -71q-54 0 -110 13l-10 -49q-36 -180 -98 -320q-31 -71 -82 -139t-114 -123q-99 -87 -220.5 -135t-242.5 -48q-51 0 -95 5t-85 16zM509 143q54 -24 100 -36q85 -21 149 -21q56 0 114 30t100 85q34 45 74 133.5t67 179.5
q55 186 55 321q0 64 -22 95.5t-56 31.5q-25 0 -47 -7t-52 -25q-42 -25 -73.5 -55.5t-81.5 -93.5q-100 -126 -210 -291q-27 -40 -38.5 -59t-33.5 -62z" />
    <glyph glyph-name="q" unicode="q" horiz-adv-x="1276" 
d="M984 543l-30 -48q-80 -128 -114 -179t-68 -92q-146 -178 -276 -232q-42 -17 -98 -17q-94 0 -148 61q-30 34 -48 89t-18 114q0 137 61.5 288t170.5 283q70 83 146 143.5t153 92.5q124 52 287 52q53 0 146 -4t153 -8l-71 -296l-290 -1459l274 86l-36 -79l-477 -152l76 320z
M1063 943q-54 24 -100 36q-85 20 -149 20q-56 0 -114.5 -29.5t-99.5 -84.5q-35 -46 -74.5 -134t-66.5 -180q-55 -185 -55 -320q0 -64 22 -96t56 -32q25 0 47 7.5t52 25.5q41 25 73 55.5t82 92.5q98 124 210 292q27 39 38.5 58.5t33.5 61.5z" />
    <glyph glyph-name="r" unicode="r" horiz-adv-x="1060" 
d="M269 -12l73 308l99 494q23 114 23 148q0 30 -16.5 47t-44.5 17q-27 0 -59 -16t-81 -54q-75 -59 -157 -149l19 92q56 61 97 97t86 65q113 73 210 73q64 0 104 -36t40 -114q0 -50 -24 -170l-49 -247q91 156 142.5 233t103.5 139q88 103 169 149t174 46q40 0 69 -7t59 -24
l-133 -180q-35 23 -57 31t-51 8q-24 0 -44 -5.5t-47 -20.5q-39 -20 -71.5 -49.5t-75.5 -82.5q-84 -104 -187 -265q-39 -62 -88 -158l-71 -357z" />
    <glyph glyph-name="s" unicode="s" horiz-adv-x="901" 
d="M58 34l129 131q70 -37 121 -52q91 -27 171 -27q52 0 87 10.5t59 31.5q40 34 40 111q0 31 -9.5 56t-25 47t-35 41t-40.5 37l-114 102q-39 35 -64.5 65.5t-39.5 58t-19.5 54t-5.5 53.5q0 60 31 122t88 113q66 60 150 91.5t178 31.5q67 0 146 -16q16 -4 29.5 -7t24.5 -7
t27 -9.5t36 -13.5l-128 -131q-18 12 -31.5 20t-25.5 13.5t-23.5 10t-26.5 8.5q-71 21 -128 21q-40 0 -73.5 -7t-58 -24.5t-38 -45.5t-13.5 -70q0 -31 10.5 -58t27.5 -50.5t37.5 -43.5t41.5 -38l107 -93q39 -34 64 -64t39.5 -59t20 -58t5.5 -60q0 -131 -119 -232
q-72 -63 -154 -92.5t-179 -29.5q-37 0 -76.5 3.5t-82.5 10.5q-20 4 -38 7.5t-34 8.5t-38 12t-50 17z" />
    <glyph glyph-name="t" unicode="t" horiz-adv-x="865" 
d="M455 1012h-229l69 74h174l57 283l207 50l-66 -333h377l-82 -88q-50 5 -120 9.5t-109 4.5h-81l-136 -685q-21 -105 -21 -148q0 -39 18.5 -59.5t51.5 -20.5q63 0 152 52q56 33 143 108l-18 -92q-33 -32 -65 -56.5t-78 -53.5q-71 -43 -126 -62.5t-104 -19.5q-76 0 -123 52
t-47 136q0 27 6.5 80t15.5 98z" />
    <glyph glyph-name="u" unicode="u" horiz-adv-x="1456" 
d="M1402 1098l-73 -308l-98 -494q-23 -115 -23 -148q0 -30 16 -47.5t44 -17.5q27 0 59.5 16.5t80.5 54.5q75 59 157 149l-19 -93q-55 -60 -96 -96t-87 -66q-113 -73 -210 -73q-64 0 -104 36q-40 37 -40 114q0 51 24 171l49 247q-84 -134 -143 -218q-82 -117 -147.5 -187
t-129.5 -110q-86 -53 -172 -53q-70 0 -113 44q-23 25 -36.5 61.5t-13.5 76.5q0 60 16 145l98 488q23 115 23 150q0 29 -16.5 45.5t-44.5 16.5q-27 0 -59 -16t-81 -54q-76 -60 -157 -149l19 92q55 60 96 96.5t87 65.5q113 73 210 73q64 0 104 -36t40 -114q0 -50 -24 -170
l-98 -491q-11 -56 -11 -96q0 -38 16 -59t44 -21q29 0 58 13.5t68 45.5q53 44 115.5 118.5t143.5 191.5q47 68 74 112.5t71 124.5l71 357z" />
    <glyph glyph-name="v" unicode="v" horiz-adv-x="1394" 
d="M621 -25q6 118 6 197q0 219 -36 423q-23 133 -51.5 211t-68.5 116q-23 21 -49 30.5t-60 9.5q-37 0 -69 -15.5t-69 -51.5q-54 -52 -129 -173l29 149q47 63 82 102t72 67q92 70 184 70q46 0 84 -15.5t74 -48.5q59 -55 98.5 -151.5t61.5 -240.5q28 -176 28 -419v-55l82 99
q55 67 162 219q85 121 122 185.5t63 137.5q18 50 18 106q0 49 -20 94q-14 29 -46 65l214 24q27 -40 38 -70t11 -64q0 -50 -23.5 -105.5t-73.5 -126.5q-24 -34 -105.5 -133t-163.5 -194l-358 -417z" />
    <glyph glyph-name="w" unicode="w" horiz-adv-x="1870" 
d="M585 -25q6 111 6 208q0 140 -8 280q-8 128 -18 200.5t-28 131.5q-16 49 -33.5 79.5t-44.5 53.5q-21 18 -42.5 26t-48.5 8q-40 0 -76.5 -19t-78.5 -62q-52 -53 -117 -157l26 136q46 64 80.5 103t74.5 71q96 76 190 76q38 0 67.5 -10t58.5 -33q60 -47 103 -142
q27 -58 41.5 -120.5t23.5 -158.5q11 -122 11 -317l-1 -128q65 93 101 151t80 142q67 129 118.5 256.5t70.5 213.5q9 41 17 112l109 27q63 -205 88 -402t25 -486q69 91 113.5 156.5t89.5 145.5q81 143 118 248.5t37 191.5q0 34 -10 62.5t-35 66.5l224 12q18 -57 18 -92
q0 -50 -21 -102t-78 -143q-52 -82 -142.5 -214.5t-153.5 -217.5l-54 -73l-62 -82q-26 -35 -75 -109l-43 -65l-110 -25q4 91 4 162q0 161 -14 349q-7 98 -14 151t-21 126l-37 -77q-87 -180 -134.5 -268t-113.5 -187q-72 -109 -173 -231z" />
    <glyph glyph-name="x" unicode="x" horiz-adv-x="1446" 
d="M123 0l88 183q22 -13 39.5 -18t44.5 -5q78 0 153 53q41 28 107 93t121 130l61 74l-137 319q-34 81 -48 104q-10 16 -20 22.5t-25 6.5q-37 0 -79 -39t-110 -136l18 92q69 97 116 147q43 47 77 65.5t75 18.5q39 0 70 -22q17 -12 32 -34t34 -62l36 -76l115 -260l64 82
q67 86 153 174t143 129q97 69 189 69q29 0 51 -7.5t45 -25.5l-102 -182q-26 18 -43.5 24t-44.5 6q-38 0 -74 -13.5t-78 -43.5q-47 -33 -112.5 -96.5t-116.5 -125.5l-47 -56l149 -352q19 -44 28 -61t19 -30q21 -24 55 -24q43 0 89 32t111 108l-18 -90q-39 -48 -70 -78.5
t-72 -62.5q-43 -32 -72.5 -44.5t-66.5 -12.5q-52 0 -88 28q-42 34 -86 137l-131 309l-84 -106q-68 -86 -144.5 -168t-127.5 -122q-50 -40 -93.5 -59t-86.5 -19q-41 0 -106 25z" />
    <glyph glyph-name="y" unicode="y" horiz-adv-x="1369" 
d="M169 -784l138 139q47 -28 87 -40q64 -18 124 -18q62 0 117 23t92 65q43 47 78 134t71 237l203 835q-29 -54 -43 -81q-69 -131 -87 -163.5t-44 -75.5q-62 -104 -105.5 -158.5t-89.5 -87.5q-36 -25 -85 -25q-69 0 -104 70q-17 34 -36.5 121t-31.5 179l-48 389
q-13 104 -27 151q-8 31 -20 41.5t-37 10.5q-21 0 -40.5 -10.5t-44.5 -34.5q-41 -41 -104 -129l19 94q54 74 83.5 110t56.5 60q65 58 137 58q59 0 93 -39q20 -23 35.5 -70t23.5 -110l19 -156l43 -334q18 -147 40 -210q16 -43 43 -43q20 0 38 16q17 17 46.5 59.5t56.5 88.5
l117 202l109 200q6 9 32 52l77 320l202 12l-89 -312l-211 -859q-54 -216 -132 -360q-32 -60 -80.5 -121t-112.5 -110q-194 -150 -426 -150q-53 0 -102 8q-37 5 -81 22z" />
    <glyph glyph-name="z" unicode="z" horiz-adv-x="1209" 
d="M106 -25l52 163l864 790q-47 -3 -67 -3q-54 0 -167 9l-127 10q-103 9 -114 9q-72 0 -153 -41q-53 -26 -118 -80l17 87q100 87 155 120q100 59 205 59q29 0 107 -6l95 -7l85 -7q65 -5 82 -5q47 0 91 8.5t101 28.5l-52 -166l-837 -765q75 6 124 6q69 0 148 -10l72 -8
q57 -7 113 -7q81 0 167 26q82 24 143 66q26 17 67 55l-20 -97q-73 -76 -173 -143q-72 -48 -116 -63.5t-109 -15.5q-46 0 -138 10l-72 7q-66 7 -142 7q-78 0 -159 -9q-41 -5 -62.5 -10t-61.5 -18z" />
    <glyph glyph-name="braceleft" unicode="{" horiz-adv-x="813" 
d="M747 -185l-108 -111q-81 0 -153 12q-65 12 -111 55q-62 58 -62 155q0 74 28 214l20 101l26 124q12 60 12 102q0 35 -15 60.5t-42 38.5q-44 21 -164 21l-61 -1l103 111h147q55 43 77 76q15 21 23.5 47.5t23.5 90.5l23 99l20 98q21 109 81.5 205t144.5 155q95 67 214 94
q43 10 124 17l-116 -111q-83 -4 -108 -9q-56 -11 -83 -70q-11 -23 -29 -88.5t-30 -126.5l-21 -104q-27 -135 -84 -220q-34 -50 -77 -85t-128 -83q33 -4 49 -10q36 -13 69 -51q23 -27 33 -55t10 -65q0 -30 -10 -102t-23 -140l-24 -121q-29 -144 -29 -185q0 -68 47 -103
q28 -20 72 -27.5t131 -7.5z" />
    <glyph glyph-name="bar" unicode="|" horiz-adv-x="740" 
d="M256 -296l368 1851l116 24l-368 -1850z" />
    <glyph glyph-name="braceright" unicode="}" horiz-adv-x="813" 
d="M322 1468l108 111q81 0 153 -12q65 -11 111 -55q62 -57 62 -154q0 -74 -28 -215l-20 -101l-26 -123q-12 -61 -12 -103q0 -35 15 -60.5t42 -38.5q44 -21 164 -21l61 1l-103 -111h-147q-55 -43 -77 -75q-15 -22 -23.5 -48.5t-23.5 -90.5l-23 -98l-20 -99
q-22 -110 -82 -205.5t-144 -154.5q-96 -67 -214 -94q-43 -10 -124 -17l116 111q83 4 108 9q56 11 83 70q11 23 29 89t30 126l21 104q26 135 84 220q34 50 77 85t128 83q-33 4 -49 10q-36 13 -69 51q-23 27 -33 55t-10 65q0 30 10 102t23 140l24 121q29 144 29 185
q0 68 -47 103q-28 20 -72 27.5t-131 7.5z" />
    <glyph glyph-name="asciitilde" unicode="~" horiz-adv-x="1357" 
d="M223 439l19 92q40 67 67.5 104t60.5 66q44 40 84.5 55.5t100.5 15.5q58 0 102 -15t127 -65l79 -47l82 -49q64 -39 85 -46q30 -10 72 -10q51 0 96 21q29 13 57 39t64 74l50 66l-18 -91q-41 -68 -68.5 -104.5t-60.5 -66.5q-43 -40 -84 -55.5t-100 -15.5t-103 15.5
t-127 64.5l-78 47l-83 49q-64 39 -84 46q-31 10 -73 10q-50 0 -96 -20q-29 -13 -56.5 -39t-64.5 -75z" />
    <glyph glyph-name="quotedblleft" unicode="&#x201c;" horiz-adv-x="1062" 
d="M725 1130l-199 -143q-40 23 -61.5 40.5t-37.5 39.5q-48 63 -48 155q0 78 34.5 148.5t99.5 123.5q85 69 216 97q32 6 90 13l-56 -62q-61 -12 -93.5 -30t-55.5 -54q-18 -27 -28 -61.5t-10 -67.5q0 -68 52 -121q25 -27 97 -78zM1151 1130l-199 -143q-39 23 -61 40.5
t-38 39.5q-48 63 -48 155q0 78 35 148.5t99 123.5q86 69 217 97q31 6 89 13l-56 -62q-61 -12 -93.5 -30t-55.5 -54q-18 -27 -28 -61.5t-10 -67.5q0 -68 52 -121q25 -27 97 -78z" />
    <glyph glyph-name="quotedblright" unicode="&#x201d;" horiz-adv-x="1062" 
d="M853 1460l198 144q40 -23 61.5 -40.5t37.5 -39.5q48 -63 48 -155q0 -78 -34.5 -148.5t-99.5 -123.5q-85 -69 -216 -97q-32 -6 -90 -13l56 62q61 12 93.5 30t55.5 54q18 26 28 61t10 68q0 68 -51 121q-26 27 -97 77zM426 1460l199 144q39 -23 61 -40.5t38 -39.5
q48 -63 48 -155q0 -78 -35 -148.5t-99 -123.5q-86 -69 -217 -97q-31 -6 -89 -13l56 62q61 12 93.5 30t55.5 54q18 26 28 61t10 68q0 68 -52 121q-25 27 -97 77z" />
    <glyph glyph-name="quoteleft" unicode="&#x2018;" horiz-adv-x="636" 
d="M725 1130l-199 -143q-40 23 -61.5 40.5t-37.5 39.5q-48 63 -48 155q0 78 34.5 148.5t99.5 123.5q85 69 216 97q32 6 90 13l-56 -62q-61 -12 -93.5 -30t-55.5 -54q-18 -27 -28 -61.5t-10 -67.5q0 -68 52 -121q25 -27 97 -78z" />
    <glyph glyph-name="quoteright" unicode="&#x2019;" horiz-adv-x="636" 
d="M427 1460l198 144q40 -23 61.5 -40.5t37.5 -39.5q48 -63 48 -155q0 -78 -34.5 -148.5t-99.5 -123.5q-85 -69 -216 -97q-32 -6 -90 -13l56 62q61 12 93.5 30t55.5 54q18 26 28 61t10 68q0 68 -51 121q-26 27 -97 77z" />
    <glyph glyph-name="exclam" unicode="!" horiz-adv-x="639" 
d="M213 127l155 120l118 -161l-155 -111zM366 386l90 795l60 299l204 37l-67 -336l-223 -776z" />
  </font>
</defs>
</svg>
