<?xml version="1.0" standalone="no"?>
<!DOCTYPE svg PUBLIC "-//W3C//DTD SVG 1.1//EN" "http://www.w3.org/Graphics/SVG/1.1/DTD/svg11.dtd" >
<svg xmlns="http://www.w3.org/2000/svg">
<metadata></metadata>
<defs>
<font id="proxima_novathin_italic" horiz-adv-x="1081" >
<font-face units-per-em="2048" ascent="1618" descent="-430" />
<missing-glyph horiz-adv-x="532" />
<glyph unicode="&#xfb00;" horiz-adv-x="1007" d="M94 0l207 934h-164l13 55h163l23 105q31 139 100.5 215.5t186.5 76.5q55 0 94 -15t80 -54l-41 -41q-25 27 -57.5 41t-82.5 14q-94 0 -144 -62.5t-75 -174.5l-22 -105h200l-12 -55h-201l-206 -934h-62zM598 0l207 934h-164l13 55h163l23 105q31 139 100.5 215.5 t186.5 76.5q55 0 94 -15t80 -54l-41 -41q-25 27 -57.5 41t-82.5 14q-94 0 -144 -62.5t-75 -174.5l-22 -105h200l-12 -55h-201l-206 -934h-62z" />
<glyph unicode="&#xfb01;" horiz-adv-x="917" d="M94 0l207 934h-164l13 55h163l23 105q31 139 100.5 215.5t186.5 76.5q41 0 71.5 -8t65.5 -30l-31 -48q-25 18 -54.5 24.5t-58.5 6.5q-94 0 -144 -62.5t-75 -174.5l-22 -105h200l-12 -55h-201l-206 -934h-62zM570 0l219 989h61l-219 -989h-61zM807 1212q0 29 22.5 47.5 t45.5 18.5t39 -15.5t16 -37.5q0 -29 -22.5 -47.5t-45.5 -18.5t-39 15.5t-16 37.5z" />
<glyph unicode="&#xfb02;" horiz-adv-x="917" d="M94 0l207 934h-164l13 55h163l23 105q31 139 100.5 215.5t186.5 76.5q41 0 71.5 -8t65.5 -30l-31 -48q-25 18 -54.5 24.5t-58.5 6.5q-94 0 -144 -62.5t-75 -174.5l-22 -105h200l-12 -55h-201l-206 -934h-62zM570 0l301 1366h61l-301 -1366h-61z" />
<glyph unicode="&#xfb03;" horiz-adv-x="1421" d="M94 0l207 934h-164l13 55h163l23 105q31 139 100.5 215.5t186.5 76.5q55 0 94 -15t80 -54l-41 -41q-25 27 -57.5 41t-82.5 14q-94 0 -144 -62.5t-75 -174.5l-22 -105h200l-12 -55h-201l-206 -934h-62zM598 0l207 934h-164l13 55h163l23 105q31 139 100.5 215.5 t186.5 76.5q41 0 71.5 -8t65.5 -30l-31 -48q-25 18 -54.5 24.5t-58.5 6.5q-94 0 -144 -62.5t-75 -174.5l-22 -105h200l-12 -55h-201l-206 -934h-62zM1074 0l219 989h61l-219 -989h-61zM1311 1212q0 29 22.5 47.5t45.5 18.5t39 -15.5t16 -37.5q0 -29 -22.5 -47.5t-45.5 -18.5 t-39 15.5t-16 37.5z" />
<glyph unicode="&#xfb04;" horiz-adv-x="1421" d="M94 0l207 934h-164l13 55h163l23 105q31 139 100.5 215.5t186.5 76.5q55 0 94 -15t80 -54l-41 -41q-25 27 -57.5 41t-82.5 14q-94 0 -144 -62.5t-75 -174.5l-22 -105h200l-12 -55h-201l-206 -934h-62zM598 0l207 934h-164l13 55h163l23 105q31 139 100.5 215.5 t186.5 76.5q41 0 71.5 -8t65.5 -30l-31 -48q-25 18 -54.5 24.5t-58.5 6.5q-94 0 -144 -62.5t-75 -174.5l-22 -105h200l-12 -55h-201l-206 -934h-62zM1074 0l301 1366h61l-301 -1366h-61z" />
<glyph horiz-adv-x="0" />
<glyph horiz-adv-x="0" />
<glyph unicode="&#xd;" horiz-adv-x="0" />
<glyph unicode=" "  horiz-adv-x="532" />
<glyph unicode="&#x09;" horiz-adv-x="532" />
<glyph unicode="&#xa0;" horiz-adv-x="532" />
<glyph unicode="!" horiz-adv-x="425" d="M45 43q0 31 21.5 51.5t52.5 20.5q27 0 44 -17.5t17 -44.5q0 -31 -21.5 -51t-52.5 -20q-27 0 -44 17t-17 44zM154 330l206 1036h86l-251 -1036h-41z" />
<glyph unicode="&#x22;" horiz-adv-x="593" d="M244 907q16 109 28 197q6 37 11.5 73.5t9.5 66.5t8 50.5t4 24.5q4 31 19.5 49t44.5 18q20 0 33.5 -13t13.5 -36q0 -8 -3 -19t-5 -15l-121 -396h-43zM481 907q16 109 29 197q6 37 11 73.5t9.5 66.5t8.5 50.5t4 24.5q4 31 19.5 49t43.5 18q20 0 33.5 -13t13.5 -36 q0 -8 -3 -19t-5 -15l-121 -396h-43z" />
<glyph unicode="#" horiz-adv-x="1161" d="M29 391l30 60h238l260 464h-240l29 60h244l215 391h67l-215 -391h254l215 391h68l-217 -391h235l-26 -60h-240l-262 -464h246l-31 -60h-246l-217 -391h-67l219 391h-256l-217 -391h-68l217 391h-235zM365 451h251l263 464h-254z" />
<glyph unicode="$" horiz-adv-x="1177" d="M63 211l60 43q57 -84 142 -138.5t196 -70.5l143 641q-66 27 -127 57.5t-108 70.5t-77 91t-30 123q0 76 36 141.5t95.5 114.5t139 77t169.5 28q14 0 27.5 -1.5t28.5 -1.5l43 187h65l-43 -195q113 -20 198 -73.5t130 -126.5l-59 -43q-47 76 -121 120.5t-162 61.5l-129 -584 q63 -29 125.5 -60.5t111 -73.5t78 -95t29.5 -127q0 -72 -28.5 -143.5t-87 -129t-145.5 -93.5t-204 -36q-12 0 -24.5 1t-22.5 1l-41 -182h-65l40 191q-133 20 -234 81.5t-149 143.5zM336 1028q0 -51 23.5 -90t62.5 -69.5t91 -57.5t108 -51l124 565q-10 0 -21 1t-22 1 q-78 0 -144 -25.5t-115.5 -66.5t-78 -95.5t-28.5 -111.5zM524 37h41q102 0 175 31.5t120 81t68.5 110t21.5 117.5q0 55 -23.5 97t-63.5 76t-92 60.5t-107 51.5z" />
<glyph unicode="%" horiz-adv-x="1452" d="M150 0l1173 1366h76l-1176 -1366h-73zM188 989q0 88 30 162t79 126t112.5 80.5t131.5 28.5q61 0 113.5 -19t90 -55t60 -86t22.5 -110q0 -90 -29.5 -162.5t-78.5 -125t-112.5 -81t-131.5 -28.5q-61 0 -113.5 19.5t-90.5 55t-60.5 86t-22.5 109.5zM256 995 q0 -96 62.5 -158.5t158.5 -62.5q55 0 106.5 25.5t90.5 70.5t62.5 106.5t23.5 133.5q0 96 -62.5 158.5t-158.5 62.5q-55 0 -106.5 -25.5t-90.5 -70.5t-62.5 -106.5t-23.5 -133.5zM702 246q0 88 30 161.5t79 126t112.5 81t131.5 28.5q61 0 113.5 -19.5t90 -55.5t60 -86 t22.5 -109q0 -90 -29.5 -163t-78.5 -125t-112.5 -81t-131.5 -29q-61 0 -113.5 19.5t-90 55.5t-60.5 86t-23 110zM770 252q0 -96 62.5 -158.5t158.5 -62.5q55 0 106.5 25.5t90.5 70.5t62.5 106.5t23.5 133.5q0 96 -62.5 158.5t-158.5 62.5q-55 0 -106.5 -25.5t-90.5 -71 t-62.5 -106.5t-23.5 -133z" />
<glyph unicode="&#x26;" horiz-adv-x="1304" d="M53 301q0 100 35 173t92.5 128t131 95t151.5 75q-29 66 -43 128.5t-14 125.5q0 74 28.5 139.5t76.5 114.5t109.5 77.5t129.5 28.5q113 0 185.5 -55t72.5 -162q0 -90 -39 -153.5t-103.5 -111.5t-145.5 -85t-165 -74q27 -59 60.5 -118.5t70.5 -118.5q43 -72 81 -131.5 t79 -116.5q45 47 83 96.5t68.5 94.5t54 83.5t38.5 65.5l59 -31q-49 -82 -113.5 -179t-146.5 -185q35 -47 75 -97.5t89 -107.5h-99q-55 63 -118 154q-84 -78 -183.5 -128.5t-216.5 -50.5q-80 0 -149.5 21.5t-121.5 63.5t-82 102.5t-30 138.5zM127 311q0 -70 25.5 -121 t68.5 -84.5t98.5 -51t116.5 -17.5q98 0 190.5 50t170.5 124q-53 72 -97.5 140.5t-70.5 111.5q-43 72 -78 133t-64 121q-72 -31 -137 -68t-114.5 -85t-79 -109.5t-29.5 -143.5zM477 1026q0 -51 14.5 -108.5t38.5 -116.5q78 33 151 65.5t129 73.5t90 95.5t34 127.5 q0 80 -55.5 121t-128.5 41q-45 0 -93.5 -19.5t-88.5 -57.5t-65.5 -93t-25.5 -129z" />
<glyph unicode="'" horiz-adv-x="360" d="M244 907q16 109 28 197q6 37 11.5 73.5t9.5 66.5t8 50.5t4 24.5q4 31 19.5 49t44.5 18q20 0 33.5 -13t13.5 -36q0 -8 -3 -19t-5 -15l-121 -396h-43z" />
<glyph unicode="(" horiz-adv-x="421" d="M53 158q0 319 125 631.5t375 613.5l29 -27q-109 -150 -194 -299t-145.5 -305t-92 -319.5t-31.5 -337.5q0 -117 21.5 -248t52.5 -254l-39 -21q-45 123 -73 262.5t-28 303.5z" />
<glyph unicode=")" horiz-adv-x="421" d="M-162 -381q106 150 192.5 299.5t147 305t92 318.5t31.5 339q0 117 -21.5 248t-52.5 253l39 21q45 -123 73 -262.5t28 -302.5q0 -319 -125 -631.5t-375 -614.5z" />
<glyph unicode="*" horiz-adv-x="675" d="M195 1030l241 86l-190 131l41 49l174 -151l41 241h63l-67 -245l233 108l19 -55l-240 -86l188 -131l-41 -49l-174 151l-41 -241h-63l67 245l-233 -108z" />
<glyph unicode="+" horiz-adv-x="1011" d="M94 659l15 62h413l96 442h66l-96 -442h413l-14 -62h-414l-100 -454h-65l100 454h-414z" />
<glyph unicode="," horiz-adv-x="425" d="M-37 -188q57 31 97 78t51 94h-13q-23 0 -38 17t-15 40q0 31 21.5 52.5t50.5 21.5t47 -19.5t18 -58.5t-15 -79t-42 -75t-59.5 -64.5t-65.5 -47.5z" />
<glyph unicode="-" horiz-adv-x="614" d="M53 465l13 61h491l-12 -61h-492z" />
<glyph unicode="." horiz-adv-x="425" d="M45 43q0 31 21.5 51.5t52.5 20.5q27 0 44 -17.5t17 -44.5q0 -31 -21.5 -51t-52.5 -20q-27 0 -44 17t-17 44z" />
<glyph unicode="/" horiz-adv-x="548" d="M-121 -41l805 1448h68l-807 -1448h-66z" />
<glyph unicode="0" horiz-adv-x="1239" d="M147 492q0 96 18.5 199.5t53.5 202.5t87 189.5t121 157t153 106t182 39.5q104 0 181 -37.5t127 -105t74.5 -163t24.5 -208.5q0 -145 -39.5 -302.5t-116.5 -290t-192 -218.5t-262 -86q-104 0 -182 38t-129 106.5t-76 163t-25 209.5zM217 485q0 -94 18.5 -176t60.5 -142.5 t107.5 -95t159.5 -34.5q125 0 224.5 80t169 203.5t106.5 272t37 286.5q0 94 -18.5 176t-59.5 141t-106.5 94t-159.5 35q-84 0 -156 -37t-131 -99.5t-106.5 -146.5t-80 -177t-49 -191.5t-16.5 -188.5z" />
<glyph unicode="1" horiz-adv-x="567" d="M190 1083l326 283h62l-302 -1366h-65l281 1272l-267 -236z" />
<glyph unicode="2" horiz-adv-x="1181" d="M10 0l19 78q197 129 378 256t320 250t222 242.5t83 236.5q0 125 -94 193.5t-242 68.5q-119 0 -207 -38t-151 -103l-45 43q66 72 173 115.5t230 43.5q78 0 152 -18t130 -58t91 -100.5t35 -146.5q0 -129 -86 -256t-225.5 -253t-315.5 -249t-358 -244h766l-13 -61h-862z" />
<glyph unicode="3" horiz-adv-x="1087" d="M10 260l64 27q41 -115 147.5 -182.5t247.5 -67.5q90 0 164 27.5t125 76.5t78.5 117t27.5 148q0 61 -26.5 111t-72.5 85t-110.5 54.5t-138.5 19.5h-63.5t-38.5 -2l16 65q6 0 27.5 -1t48 -1h54.5h50q72 0 140.5 19.5t122 59.5t86 98.5t32.5 138.5q0 55 -24.5 105t-70.5 87 t-110.5 58.5t-144.5 21.5q-88 0 -179 -34t-177 -120l-43 48q76 78 182 122.5t217 44.5q86 0 162 -21.5t132 -64.5t88 -105t32 -142q0 -86 -34 -151.5t-87 -111t-118.5 -71t-131.5 -27.5q49 -10 93 -34.5t78 -61.5t54.5 -85t20.5 -105q0 -86 -32 -164t-92.5 -137.5 t-145.5 -94.5t-191 -35q-80 0 -154.5 21.5t-136 59.5t-105.5 90.5t-63 113.5z" />
<glyph unicode="4" horiz-adv-x="1073" d="M55 399l17 72l817 895h90l-201 -905h207l-12 -62h-207l-88 -399h-66l88 399h-645zM139 461h574l184 831z" />
<glyph unicode="5" horiz-adv-x="1175" d="M100 256l62 33q53 -135 150.5 -193.5t238.5 -58.5q82 0 156.5 31.5t132 88t91.5 132.5t34 166q0 78 -27 138t-75 101t-112.5 62.5t-138.5 21.5q-86 0 -161.5 -28.5t-151.5 -81.5l-45 37l145 661h746l-12 -61h-680l-125 -562q43 35 122.5 66t176.5 31q80 0 152.5 -24.5 t129 -72t90 -120t33.5 -166.5q0 -96 -35.5 -183.5t-101.5 -154t-155.5 -105.5t-198.5 -39q-170 0 -275.5 70t-165.5 211z" />
<glyph unicode="6" horiz-adv-x="1181" d="M139 457q0 84 14.5 185t46 204.5t81 201t118 172t158.5 120.5t203 46q137 0 232 -58t141 -163l-60 -37q-35 92 -115.5 144.5t-201.5 52.5t-210 -60.5t-153.5 -156.5t-105.5 -214t-66 -232q-6 -29 -6 -33q27 31 72 66.5t101 66.5t120.5 50t132.5 19q88 0 162 -23.5 t127 -68.5t81.5 -108.5t28.5 -145.5q0 -100 -36.5 -192t-102 -163t-157 -113t-197.5 -42q-201 0 -304.5 125t-103.5 357zM201 424q0 -84 21.5 -154.5t65.5 -123t109.5 -81t155.5 -28.5q92 0 169 37t132 98t87 140t32 163q0 137 -92.5 216t-247.5 79q-123 0 -231.5 -61.5 t-196.5 -163.5q-2 -16 -3 -57.5t-1 -63.5z" />
<glyph unicode="7" horiz-adv-x="1001" d="M139 0l885 1305h-772l12 61h854l-10 -45l-891 -1321h-78z" />
<glyph unicode="8" horiz-adv-x="1148" d="M90 309q0 84 34 152.5t93 120t140 84t175 49.5q-47 16 -93 42.5t-85 63.5t-62.5 85t-23.5 108q0 94 40 164.5t103.5 116.5t141.5 68.5t156 22.5q82 0 156.5 -22.5t132 -64.5t90 -102t32.5 -134q0 -80 -31.5 -142.5t-87 -108.5t-132 -74.5t-164.5 -41.5q41 -16 90 -42.5 t91 -67.5t70.5 -96.5t28.5 -127.5q0 -82 -35 -152.5t-96 -122.5t-144.5 -82t-177.5 -30q-96 0 -178 22.5t-140 64.5t-91 104.5t-33 142.5zM158 319q0 -70 30.5 -123t83 -87.5t118.5 -53t140 -18.5q72 0 141.5 21.5t125 63.5t89.5 103.5t34 139.5q0 63 -31 115t-77 92 t-99.5 66t-98.5 38q-98 -6 -181 -35t-144.5 -76t-96 -109.5t-34.5 -136.5zM336 1016q0 -55 28.5 -101.5t71.5 -83t94.5 -61.5t96.5 -35q90 8 167.5 32t134 64.5t89.5 99t33 132.5q0 55 -27 102t-74 83t-109.5 55.5t-133.5 19.5q-72 0 -139.5 -20.5t-119 -59.5t-82 -96 t-30.5 -131z" />
<glyph unicode="9" horiz-adv-x="1181" d="M127 199l59 37q35 -92 116 -144.5t202 -52.5t210 60.5t153.5 156.5t105.5 214t65 232q6 27 6 33q-29 -31 -72.5 -66.5t-100 -66.5t-121 -50.5t-132.5 -19.5q-90 0 -162.5 24t-126 68t-82 108.5t-28.5 146.5q0 100 37 192t102.5 163t155.5 113t199 42q201 0 304 -125 t103 -357q0 -84 -14 -185t-46 -204.5t-81 -201t-117.5 -172t-159 -121t-202.5 -46.5q-137 0 -232.5 58.5t-140.5 163.5zM287 889q0 -137 92 -216t248 -79q123 0 231.5 61.5t196.5 163.5q2 16 3 57.5t1 63.5q0 84 -21.5 154.5t-65.5 123t-110.5 81t-154.5 28.5 q-92 0 -169 -37t-132.5 -98.5t-87 -140t-31.5 -162.5z" />
<glyph unicode=":" horiz-adv-x="425" d="M45 43q0 31 21.5 51.5t52.5 20.5q27 0 44 -17.5t17 -44.5q0 -31 -21.5 -51t-52.5 -20q-27 0 -44 17t-17 44zM242 932q0 31 21.5 51.5t51.5 20.5q27 0 44.5 -17.5t17.5 -44.5q0 -31 -21.5 -51.5t-52.5 -20.5q-27 0 -44 17.5t-17 44.5z" />
<glyph unicode=";" horiz-adv-x="425" d="M-37 -188q57 31 97 78t51 94h-13q-23 0 -38 17t-15 40q0 31 21.5 52.5t50.5 21.5t47 -19.5t18 -58.5t-15 -79t-42 -75t-59.5 -64.5t-65.5 -47.5zM242 932q0 31 21.5 51.5t51.5 20.5q27 0 44.5 -17.5t17.5 -44.5q0 -31 -21.5 -51.5t-52.5 -20.5q-27 0 -44 17.5t-17 44.5z " />
<glyph unicode="&#x3c;" horiz-adv-x="1011" d="M94 664l10 43l1000 481l-19 -78l-903 -430l713 -426l-14 -70z" />
<glyph unicode="=" horiz-adv-x="1011" d="M47 451l14 61h893l-14 -61h-893zM137 856l15 62h892l-14 -62h-893z" />
<glyph unicode="&#x3e;" horiz-adv-x="1011" d="M-12 184l18 78l905 426l-714 430l14 70l786 -481l-10 -43z" />
<glyph unicode="?" horiz-adv-x="956" d="M201 1206q92 94 190 137t217 43q90 0 163 -22.5t124 -61t78.5 -94t27.5 -118.5q0 -92 -41.5 -155t-105 -110t-138.5 -81.5t-138.5 -70.5t-105.5 -79t-42 -102q0 -23 9.5 -49.5t35.5 -51.5l-49 -47q-59 68 -59 148q0 74 42 123t103 87.5t135 72.5t135.5 76t103.5 98.5 t42 140.5q0 104 -84 169.5t-236 65.5q-111 0 -203 -42t-167 -120zM287 43q0 31 21.5 51.5t51.5 20.5q27 0 44.5 -17.5t17.5 -44.5q0 -31 -21.5 -51t-52.5 -20q-27 0 -44 17t-17 44z" />
<glyph unicode="@" horiz-adv-x="1603" d="M113 500q0 168 67.5 314.5t179 256t259 173t307.5 63.5q143 0 262 -52.5t204 -142.5t132 -212t47 -263q0 -113 -24.5 -199t-67.5 -144t-99.5 -89t-117.5 -31q-82 0 -129.5 54.5t-47.5 125.5v13q-27 -37 -64.5 -72t-82.5 -61.5t-96 -43t-107 -16.5q-139 0 -225 87t-86 237 q0 111 43 207t113.5 166.5t159.5 111.5t182 41q106 0 172.5 -53t95.5 -125l29 141h61l-127 -602q-2 -10 -2 -18.5v-18.5q0 -55 33 -87t78 -32q31 0 72.5 18.5t81.5 64.5t67.5 126t27.5 201q0 129 -43 239.5t-121.5 192.5t-187 128t-239.5 46q-152 0 -287 -62.5t-237.5 -165 t-162 -237.5t-59.5 -278q0 -125 44 -231.5t124 -185.5t189.5 -124t238.5 -45q115 0 208 32t177 85l33 -47q-96 -61 -203.5 -95t-222.5 -34q-139 0 -258 49t-206 136t-136 205t-49 253zM492 498q0 -117 63 -193t180 -76q63 0 118.5 20.5t101.5 53.5t84 73t65 81l70 321 q-10 31 -30 63.5t-50.5 61.5t-73.5 47.5t-98 18.5q-90 0 -168 -40t-136.5 -106.5t-92 -151.5t-33.5 -173z" />
<glyph unicode="A" horiz-adv-x="1302" d="M-68 0l871 1366h78l268 -1366h-72l-71 367h-762l-232 -367h-80zM283 428h712l-166 862z" />
<glyph unicode="B" horiz-adv-x="1228" d="M70 0l301 1366h485q63 0 121.5 -20.5t104.5 -59.5t74 -95t28 -128q0 -76 -25.5 -140.5t-70 -113.5t-102.5 -80t-122 -39q41 -10 78 -37.5t64.5 -66.5t43 -85t15.5 -95q0 -80 -28.5 -153t-86 -129t-143.5 -90t-201 -34h-536zM147 61h471q92 0 162 30t118 78t71.5 109.5 t23.5 127.5q0 113 -72.5 189.5t-205.5 76.5h-432zM297 733h471q94 0 159.5 30t106.5 77t58.5 105.5t17.5 117.5q0 51 -20.5 95t-56.5 77t-85 51.5t-104 18.5h-420z" />
<glyph unicode="C" horiz-adv-x="1366" d="M152 561q0 188 64.5 341t168.5 261.5t238.5 167t273.5 58.5q160 0 296 -63.5t220 -201.5l-61 -39q-80 133 -202 187.5t-259 54.5q-123 0 -242 -52t-213 -151.5t-152.5 -242t-58.5 -320.5q0 -119 37 -216t105.5 -165.5t166 -105.5t218.5 -37q104 0 203.5 36t201.5 120 l41 -48q-100 -86 -214.5 -128t-235.5 -42q-133 0 -243 42t-187.5 119t-121.5 184.5t-44 240.5z" />
<glyph unicode="D" horiz-adv-x="1400" d="M70 0l301 1366h395q115 0 214 -44t173 -122t116 -183.5t42 -230.5q0 -143 -53.5 -284.5t-159 -253t-262 -180t-363.5 -68.5h-403zM147 61h324h12q174 0 314.5 58.5t239 158t151.5 231.5t53 277q0 113 -37 207t-102.5 164t-154.5 109t-193 39h-330z" />
<glyph unicode="E" horiz-adv-x="1142" d="M70 0l301 1366h835l-12 -61h-770l-127 -572h756l-15 -61h-755l-136 -611h771l-13 -61h-835z" />
<glyph unicode="F" horiz-adv-x="1091" d="M70 0l301 1366h835l-12 -61h-770l-127 -572h756l-15 -61h-755l-148 -672h-65z" />
<glyph unicode="G" horiz-adv-x="1449" d="M152 561q0 180 61 333t164.5 262.5t238 171t281.5 61.5q174 0 305 -68t211 -197l-55 -34q-72 123 -196 180t-271 57q-129 0 -249 -56.5t-212 -157.5t-148.5 -242.5t-56.5 -309.5q0 -123 38 -220t106.5 -164.5t166 -103.5t216.5 -36q145 0 252.5 55t181.5 125l84 377h-563 l12 61h629l-105 -475q-111 -98 -233.5 -151.5t-261.5 -53.5t-250 45.5t-188 123t-117.5 185t-40.5 232.5z" />
<glyph unicode="H" horiz-adv-x="1423" d="M70 0l301 1366h65l-139 -633h932l139 633h66l-301 -1366h-66l147 672h-931l-148 -672h-65z" />
<glyph unicode="I" horiz-adv-x="425" d="M70 0l301 1366h65l-301 -1366h-65z" />
<glyph unicode="J" horiz-adv-x="952" d="M-33 164l56 41q41 -80 113.5 -124t176.5 -44q152 0 242 95t125 247l217 987h66l-218 -987q-47 -205 -159.5 -304.5t-272.5 -99.5q-117 0 -208 48.5t-138 140.5z" />
<glyph unicode="K" horiz-adv-x="1169" d="M70 0l301 1366h65l-172 -778l877 778h94l-737 -653l497 -713h-80l-462 678l-209 -184l-109 -494h-65z" />
<glyph unicode="L" horiz-adv-x="1058" d="M70 0l301 1366h65l-289 -1305h687l-13 -61h-751z" />
<glyph unicode="M" horiz-adv-x="1576" d="M70 0l301 1366h100l234 -1223l774 1223h108l-301 -1366h-65l284 1288l-817 -1288h-20l-248 1288l-285 -1288h-65z" />
<glyph unicode="N" horiz-adv-x="1413" d="M70 0l301 1366h65l643 -1255l279 1255h65l-301 -1366h-65l-641 1268l-281 -1268h-65z" />
<glyph unicode="O" horiz-adv-x="1564" d="M152 561q0 174 59 325.5t160.5 263.5t237.5 175.5t288 63.5q123 0 231.5 -38t189.5 -112t128 -183.5t47 -252.5q0 -176 -59.5 -326.5t-161 -262.5t-237 -175.5t-287.5 -63.5q-123 0 -231.5 38t-189.5 112t-128 183.5t-47 252.5zM225 561q0 -129 42 -227t115 -165 t168.5 -99.5t201.5 -32.5q131 0 251.5 56.5t213 157.5t147.5 241.5t55 310.5q0 129 -43 227t-114.5 165t-168 99.5t-202.5 32.5q-133 0 -253 -56.5t-212 -157.5t-146.5 -242.5t-54.5 -309.5z" />
<glyph unicode="P" horiz-adv-x="1136" d="M70 0l301 1366h448q74 0 136.5 -26.5t107.5 -72.5t70.5 -106.5t25.5 -126.5q0 -80 -27.5 -158.5t-88 -142t-152.5 -102.5t-221 -39h-404l-131 -592h-65zM279 653h405q102 0 178 32t126 84t74.5 122t24.5 143q0 53 -21.5 102.5t-58 86.5t-87 59.5t-109.5 22.5h-387z" />
<glyph unicode="Q" horiz-adv-x="1564" d="M152 561q0 174 59 325.5t160.5 263.5t237.5 175.5t288 63.5q123 0 231.5 -38t189.5 -112t128 -183.5t47 -252.5q0 -217 -87 -393.5t-232 -286.5l100 -127l-53 -43l-103 131q-84 -53 -177 -81t-193 -28q-123 0 -231.5 38t-189.5 112t-128 183.5t-47 252.5zM225 561 q0 -129 42 -227t115 -165t168.5 -99.5t201.5 -32.5q176 0 327 98l-194 250l53 43l197 -254q127 102 205.5 263t78.5 366q0 129 -43 227t-114.5 165t-168 99.5t-202.5 32.5q-133 0 -253 -56.5t-212 -157.5t-146.5 -242.5t-54.5 -309.5z" />
<glyph unicode="R" horiz-adv-x="1185" d="M70 0l301 1366h434q66 0 129 -21.5t114.5 -64.5t82 -104.5t30.5 -141.5q0 -96 -33.5 -177t-98 -140.5t-156 -93t-203.5 -33.5l293 -590h-76l-287 590h-336l-129 -590h-65zM279 651h399h6q98 0 174 32t127 84t76.5 121.5t25.5 145.5q0 59 -24.5 109.5t-64.5 86.5t-90 55.5 t-103 19.5h-381z" />
<glyph unicode="S" horiz-adv-x="1177" d="M63 211l60 43q72 -102 183.5 -159.5t258.5 -57.5q102 0 175 31.5t120 81t68.5 109.5t21.5 118q0 84 -51 138t-127 95t-166 76t-165.5 80t-127 106.5t-51.5 155.5q0 76 36 141.5t95.5 114.5t139 77t169.5 28q154 0 274 -58.5t175 -152.5l-59 -43q-61 98 -166 145t-224 47 q-78 0 -144 -25.5t-115.5 -66.5t-78 -95.5t-28.5 -111.5q0 -76 51 -127t127 -91t166 -76t166 -83t127 -112.5t51 -161.5q0 -72 -28.5 -143.5t-87 -129t-145.5 -93.5t-204 -36q-84 0 -162 18.5t-142.5 50.5t-113.5 75t-78 92z" />
<glyph unicode="T" horiz-adv-x="1144" d="M256 1305l12 61h989l-12 -61h-463l-288 -1305h-66l289 1305h-461z" />
<glyph unicode="U" horiz-adv-x="1376" d="M174 410q0 57 10 108l187 848h65l-186 -848q-4 -12 -8 -39.5t-4 -60.5q0 -172 108.5 -276.5t306.5 -104.5q106 0 186.5 32.5t136.5 94t95 150.5t64 204l186 848h65l-186 -848q-29 -127 -71 -227.5t-106.5 -171t-154.5 -107.5t-215 -37q-109 0 -197.5 30t-151 86 t-96.5 137t-34 182z" />
<glyph unicode="V" horiz-adv-x="1302" d="M233 1366h72l248 -1290l817 1290h80l-870 -1366h-78z" />
<glyph unicode="W" horiz-adv-x="1744" d="M242 1366h69l76 -1268l639 1268h70l78 -1268l636 1268h74l-690 -1366h-78l-80 1243l-628 -1243h-78z" />
<glyph unicode="X" horiz-adv-x="1306" d="M-59 0l714 707l-383 659h78l352 -618l615 618h98l-676 -670l406 -696h-76l-377 657l-655 -657h-96z" />
<glyph unicode="Y" horiz-adv-x="1249" d="M233 1366h76l342 -709l654 709h92l-719 -774l-131 -592h-66l131 592z" />
<glyph unicode="Z" horiz-adv-x="1183" d="M-2 0l12 61l1143 1244h-866l12 61h952l-12 -61l-1145 -1244h883l-12 -61h-967z" />
<glyph unicode="[" horiz-adv-x="434" d="M-127 -389l393 1778h330l-14 -62h-269l-366 -1655h268l-14 -61h-328z" />
<glyph unicode="\" horiz-adv-x="548" d="M201 1407h63l164 -1448h-63z" />
<glyph unicode="]" horiz-adv-x="434" d="M-162 -389l15 61h266l366 1655h-268l14 62h330l-395 -1778h-328z" />
<glyph unicode="^" horiz-adv-x="868" d="M78 682l520 684h53l217 -684h-65l-187 629l-464 -629h-74z" />
<glyph unicode="_" horiz-adv-x="1155" d="M-147 -143l14 61h1165l-14 -61h-1165z" />
<glyph unicode="`" horiz-adv-x="419" d="M207 1434h92l262 -295h-61z" />
<glyph unicode="a" horiz-adv-x="1159" d="M104 381q0 129 38 243.5t106.5 200.5t164 137.5t210.5 51.5q129 0 223 -57.5t145 -145.5l39 178h62l-220 -989h-61l35 158q-59 -80 -150.5 -131.5t-201.5 -51.5q-86 0 -157 28t-123 80t-81 127t-29 171zM174 389q0 -166 88 -262t236 -96q57 0 111.5 17.5t102.5 47 t87 67.5t67 81l113 514q-39 82 -131 141t-225 59q-102 0 -185.5 -49t-141.5 -129t-90 -182t-32 -209z" />
<glyph unicode="b" horiz-adv-x="1159" d="M66 0l301 1366h61l-117 -535q59 80 150.5 131.5t202.5 51.5q86 0 156.5 -28t122.5 -80t81 -128t29 -170q0 -129 -38 -243.5t-106.5 -200.5t-163.5 -137.5t-210 -51.5q-129 0 -223.5 57.5t-145.5 145.5l-39 -178h-61zM178 231q39 -82 131.5 -141t225.5 -59q102 0 185 49 t141.5 129t90 182.5t31.5 208.5q0 166 -88 262t-236 96q-57 0 -111 -17t-102.5 -47t-88.5 -68t-66 -81z" />
<glyph unicode="c" horiz-adv-x="1009" d="M104 410q0 123 42 232.5t115 192.5t171 131t213 48q238 0 342 -176l-49 -35q-47 82 -124 118.5t-163 36.5q-113 0 -202 -47t-150 -124.5t-94 -177t-33 -206.5q0 -92 27.5 -162.5t77 -116.5t116 -69.5t144.5 -23.5q90 0 162.5 37.5t123.5 97.5l39 -43q-68 -70 -146 -109 t-184 -39q-90 0 -168.5 28t-136 83t-90.5 136t-33 188z" />
<glyph unicode="d" horiz-adv-x="1159" d="M104 381q0 129 38 243.5t106.5 200.5t164 137.5t210.5 51.5q129 0 223 -57.5t145 -145.5l123 555h62l-304 -1366h-61l35 158q-59 -80 -150.5 -131.5t-201.5 -51.5q-86 0 -157 28t-123 80t-81 127t-29 171zM174 389q0 -166 88 -262t236 -96q57 0 111.5 17.5t102.5 47 t87 67.5t67 81l113 514q-39 82 -131 141t-225 59q-102 0 -185.5 -49t-141.5 -129t-90 -182t-32 -209z" />
<glyph unicode="e" horiz-adv-x="1169" d="M104 410q0 125 43 234.5t117 191.5t172.5 130t210.5 48q100 0 177 -34t129.5 -91.5t79 -135t26.5 -163.5q0 -29 -5 -62.5t-10 -52.5h-866q-2 -10 -3 -29.5t-1 -35.5q0 -80 24.5 -150t74 -120t122 -79.5t168.5 -29.5q78 0 161 28.5t153 87.5l30 -45q-66 -53 -156 -90 t-188 -37q-111 0 -195.5 33t-143 90.5t-89.5 137t-31 174.5zM184 530h809q2 10 3 26.5t1 27.5q0 166 -94 270t-266 104q-82 0 -156.5 -34.5t-136 -93t-103.5 -136.5t-57 -164z" />
<glyph unicode="f" horiz-adv-x="503" d="M94 0l207 934h-164l13 55h163l23 105q31 139 100.5 215.5t186.5 76.5q55 0 94 -15t80 -54l-41 -41q-25 27 -57.5 41t-82.5 14q-94 0 -144 -62.5t-75 -174.5l-22 -105h200l-12 -55h-201l-206 -934h-62z" />
<glyph unicode="g" horiz-adv-x="1159" d="M23 -236l53 48q53 -84 141 -121t217 -37q63 0 121.5 18.5t108 59.5t87 105.5t58.5 156.5l35 164q-61 -80 -154.5 -131.5t-210.5 -51.5q-80 0 -148.5 26t-119.5 78t-80 130t-29 182q0 121 36 233.5t103.5 198.5t163 138.5t213.5 52.5q55 0 109.5 -15.5t104 -43t89.5 -64.5 t68 -80l41 178h62l-222 -995q-25 -106 -65.5 -181t-96 -123t-125 -69.5t-149.5 -21.5q-135 0 -237.5 33.5t-173.5 131.5zM170 393q0 -172 87.5 -267t234.5 -95q51 0 104 16t101 43t90 62.5t73 74.5l119 531q-25 45 -62.5 82t-87 63.5t-104.5 40.5t-113 14q-104 0 -186 -50 t-138.5 -131t-87 -182t-30.5 -202z" />
<glyph unicode="h" d="M66 0l301 1366h61l-117 -532q35 33 77 65.5t89 58t97.5 41t101.5 15.5q61 0 112.5 -14.5t89 -43t59 -73.5t21.5 -107q0 -12 -4 -40.5t-8 -45.5l-151 -690h-62l154 694q4 14 8 38t4 38q0 100 -66.5 144t-168.5 44q-51 0 -101.5 -16t-98.5 -43t-90 -61.5t-77 -71.5 l-170 -766h-61z" />
<glyph unicode="i" horiz-adv-x="413" d="M66 0l219 989h61l-219 -989h-61zM303 1212q0 29 22.5 47.5t45.5 18.5t39 -15.5t16 -37.5q0 -29 -22.5 -47.5t-45.5 -18.5t-39 15.5t-16 37.5z" />
<glyph unicode="j" horiz-adv-x="413" d="M-367 -313l43 45q23 -33 65 -55.5t89 -22.5q76 0 127 44t74 146l254 1145h61l-254 -1145q-29 -129 -90.5 -187t-165.5 -58q-61 0 -115.5 21.5t-87.5 66.5zM303 1212q0 29 22.5 47.5t45.5 18.5t39 -15.5t16 -37.5q0 -29 -22.5 -47.5t-45.5 -18.5t-39 15.5t-16 37.5z" />
<glyph unicode="k" horiz-adv-x="1015" d="M66 0l301 1366h61l-215 -973l772 596h94l-581 -446l356 -543h-76l-329 504l-254 -195l-68 -309h-61z" />
<glyph unicode="l" horiz-adv-x="413" d="M66 0l301 1366h61l-301 -1366h-61z" />
<glyph unicode="m" horiz-adv-x="1576" d="M66 0l219 989h61l-35 -155q20 25 53 55.5t74 58t90.5 47t102.5 19.5q59 0 104 -19.5t76 -48t46 -63.5t15 -68v-4q31 37 69 74t81 65.5t92 46t100 17.5q47 0 91.5 -15.5t77 -45t52 -74.5t19.5 -103q0 -16 -4 -38.5t-8 -47.5l-152 -690h-61l157 713q2 6 5.5 23.5t3.5 33.5 q0 92 -57.5 140t-135.5 48q-41 0 -85 -15t-87 -42t-82 -61.5t-69 -71.5l-170 -768h-62l158 713q4 25 6 37t2 34q0 74 -49 124t-146 50q-41 0 -83.5 -15t-84.5 -42t-81 -61.5t-72 -71.5l-170 -768h-61z" />
<glyph unicode="n" d="M66 0l219 989h61l-35 -155q35 33 77 65.5t89 58t97.5 41t101.5 15.5q61 0 112.5 -14.5t89 -43t59 -73.5t21.5 -107q0 -16 -4 -41.5t-8 -44.5l-151 -690h-62l154 692q4 16 8 37t4 41q0 100 -66.5 144t-168.5 44q-51 0 -101.5 -16t-98.5 -42t-90 -60.5t-77 -71.5l-170 -768 h-61z" />
<glyph unicode="o" horiz-adv-x="1167" d="M104 406q0 119 41 228t113 193t169 135.5t212 51.5q94 0 172 -30t133 -86t85 -136t30 -178q0 -119 -41 -228.5t-112.5 -194.5t-169 -135.5t-212.5 -50.5q-94 0 -172 30t-133 86t-85 136t-30 179zM174 406q0 -170 92 -272.5t258 -102.5q100 0 185.5 47t148 124t97 177 t34.5 205q0 170 -92 272t-258 102q-100 0 -185 -47t-147.5 -123.5t-97.5 -177t-35 -204.5z" />
<glyph unicode="p" horiz-adv-x="1150" d="M-18 -377l303 1366h61l-35 -158q59 80 150.5 131.5t202.5 51.5q86 0 156.5 -28t122.5 -80t81 -128t29 -170q0 -129 -38 -243.5t-106.5 -200.5t-163.5 -137.5t-210 -51.5q-129 0 -223.5 57.5t-145.5 145.5l-123 -555h-61zM178 231q39 -82 131.5 -141t225.5 -59 q102 0 185 49t141.5 129t90 182.5t31.5 208.5q0 166 -88 262t-236 96q-57 0 -111 -17t-102.5 -47t-88.5 -68t-66 -81z" />
<glyph unicode="q" horiz-adv-x="1150" d="M104 381q0 129 38 243.5t106.5 200.5t164 137.5t210.5 51.5q129 0 223 -57.5t145 -145.5l39 178h62l-304 -1366h-61l119 535q-59 -80 -150.5 -131.5t-201.5 -51.5q-86 0 -157 28t-123 80t-81 127t-29 171zM174 389q0 -166 88 -262t236 -96q57 0 111.5 17.5t102.5 47 t87 67.5t67 81l113 514q-39 82 -131 141t-225 59q-102 0 -185.5 -49t-141.5 -129t-90 -182t-32 -209z" />
<glyph unicode="r" horiz-adv-x="622" d="M66 0l219 989h61l-39 -168q39 47 79 82t84 58.5t98.5 35t121.5 11.5l-16 -72q-20 4 -64 4q-49 0 -95 -17.5t-88 -45t-77 -63.5t-59 -73l-164 -741h-61z" />
<glyph unicode="s" horiz-adv-x="929" d="M27 147l55 41q37 -63 118 -110t197 -47q70 0 125.5 19.5t94 52t59 75.5t20.5 88q0 59 -40 99.5t-99 70t-129 56t-129 59.5t-99 76t-40 106q0 57 23.5 108.5t67.5 90.5t108.5 60.5t146.5 21.5q129 0 219 -50.5t125 -111.5l-51 -39q-16 31 -46 57.5t-70 46t-88 30.5t-97 11 q-125 0 -200 -59t-75 -145q0 -55 40 -93t99.5 -67t129 -54.5t129 -59.5t99.5 -80t40 -115q0 -59 -23.5 -114.5t-68.5 -98.5t-112 -70t-153 -27q-264 0 -376 172z" />
<glyph unicode="t" horiz-adv-x="524" d="M109 125q0 6 1 20.5t5 28.5l170 760h-164l12 55h164l59 271h62l-60 -271h201l-12 -55h-201l-170 -760q-2 -10 -3 -20.5t-1 -24.5q0 -98 102 -98q33 0 63 13t50 30l25 -49q-29 -23 -62 -36.5t-74 -13.5q-80 0 -123.5 36t-43.5 114z" />
<glyph unicode="u" d="M121 213q0 16 4 42t8 44l152 690h61l-153 -692q-4 -16 -8.5 -36.5t-4.5 -41.5q0 -100 66.5 -144t169.5 -44q51 0 101 16t98.5 42t90.5 60.5t76 71.5l170 768h62l-219 -989h-62l35 156q-35 -35 -77 -67t-89 -57.5t-97 -41t-102 -15.5q-61 0 -112 14.5t-89 43t-59.5 74 t-21.5 106.5z" />
<glyph unicode="v" horiz-adv-x="964" d="M131 989h68l184 -917l592 917h76l-643 -989h-72z" />
<glyph unicode="w" horiz-adv-x="1441" d="M154 989h63l88 -893l496 893h49l98 -893l486 893h71l-547 -989h-49l-100 897l-498 -897h-49z" />
<glyph unicode="x" horiz-adv-x="966" d="M-66 0l515 508l-273 481h74l237 -438l435 438h86l-490 -481l293 -508h-74l-256 467l-461 -467h-86z" />
<glyph unicode="y" horiz-adv-x="964" d="M-92 -381l26 64q16 -8 41 -13.5t54 -5.5q41 0 78.5 25.5t87.5 99.5l135 205l-199 995h68l184 -917l592 917h76l-797 -1222q-53 -80 -112.5 -124t-133.5 -44q-55 0 -100 20z" />
<glyph unicode="z" horiz-adv-x="954" d="M12 0l11 55l817 879h-621l12 55h701l-12 -55l-822 -879h633l-10 -55h-709z" />
<glyph unicode="{" horiz-adv-x="485" d="M-33 -209q0 29 6 51l107 480q2 10 3 17t1 17q0 47 -20.5 80t-57.5 33l14 61q61 0 94 45.5t46 102.5l106 479q27 115 93.5 173.5t160.5 58.5h127l-14 -62h-127q-70 0 -116 -46t-62 -124l-109 -485q-14 -66 -45 -111t-86 -67q33 -16 46 -45t13 -64q0 -16 -2 -33.5t-6 -36.5 l-104 -473q-2 -10 -3 -21t-1 -24q0 -53 33.5 -89t87.5 -36h114l-14 -61h-102q-35 0 -67 12t-58.5 36t-42 56.5t-15.5 75.5z" />
<glyph unicode="|" horiz-adv-x="421" d="M221 -41v1448h62v-1448h-62z" />
<glyph unicode="}" horiz-adv-x="485" d="M-164 -389l14 61h127q70 0 116 46t63 124l108 486q14 66 45 110.5t86 67.5q-33 16 -46 45t-13 63q0 16 2 34t6 36l105 473q2 10 3 21.5t1 23.5q0 53 -34 89t-87 36h-115l14 62h103q33 0 65.5 -12.5t59 -36t42 -56.5t15.5 -76q0 -12 -2 -27.5t-4 -23.5l-107 -479 q-2 -10 -3 -17.5t-1 -17.5q0 -47 20.5 -80t57.5 -33l-14 -61q-61 0 -94 -45t-45 -102l-107 -480q-27 -115 -93.5 -173t-160.5 -58h-127z" />
<glyph unicode="~" horiz-adv-x="1015" d="M143 893q23 94 54.5 179t74.5 149.5t96.5 102.5t120.5 38q68 0 103 -31t52.5 -77t25.5 -100t20 -100t37 -77t78 -31q180 0 282 420l62 -6q-23 -94 -54.5 -179t-74.5 -150.5t-97.5 -104.5t-121.5 -39q-68 0 -102.5 30.5t-52 76.5t-26 99.5t-20.5 99.5t-37.5 76.5 t-77.5 30.5q-88 0 -159.5 -106.5t-122.5 -310.5z" />
<glyph unicode="&#xa1;" horiz-adv-x="425" d="M-25 -377l252 1036h41l-207 -1036h-86zM242 936q0 31 21 51.5t52 20.5q27 0 44.5 -17.5t17.5 -44.5q0 -31 -21.5 -51.5t-52.5 -20.5q-27 0 -44 17.5t-17 44.5z" />
<glyph unicode="&#xa2;" horiz-adv-x="1009" d="M104 410q0 123 42 232.5t115 192.5t171 131t213 48h4l33 143h61l-32 -147q96 -10 163.5 -54.5t112.5 -117.5l-49 -35q-41 70 -104.5 106.5t-135.5 44.5l-204 -921q10 -2 21 -2h22q90 0 162.5 37.5t123.5 97.5l39 -43q-68 -70 -145.5 -109t-184.5 -39h-26t-25 2l-41 -182 h-61l43 193q-139 29 -228.5 136t-89.5 286zM172 403q0 -154 72.5 -243.5t189.5 -118.5l203 917q-109 -4 -196 -51t-146 -124.5t-91 -176.5t-32 -203z" />
<glyph unicode="&#xa3;" horiz-adv-x="1005" d="M-4 53q82 31 154.5 79t127 104.5t86 120t31.5 124.5q0 16 -2 32.5t-6 33.5h-342l12 61h305q-20 39 -47.5 76t-52 76t-41 85t-16.5 103q0 82 35.5 161t98 140.5t147.5 99t184 37.5q61 0 120.5 -16t110.5 -46t87 -70t50 -87l-61 -30q-10 39 -39 73.5t-69 60t-91 40 t-108 14.5q-78 0 -148.5 -25.5t-126 -73.5t-88.5 -118t-33 -158q0 -59 16.5 -104t40 -84t50.5 -76t45 -78h305l-12 -61h-270q4 -16 6 -32.5t2 -35.5q0 -57 -23.5 -111.5t-60.5 -101.5t-82 -86t-86 -65q25 8 46 12t54 4q53 0 97 -15.5t86 -34t84 -33.5t90 -15 q66 0 116.5 26.5t87.5 61.5l25 -55q-53 -41 -108.5 -68t-120.5 -27q-72 0 -117 15.5t-85 34t-87 34t-121 15.5q-53 0 -114.5 -23.5t-127.5 -60.5z" />
<glyph unicode="&#xa4;" horiz-adv-x="1181" d="M16 217l213 172q-61 96 -61 223q0 123 47 226.5t125 177.5l-119 153l49 39l119 -151q63 45 138 70.5t157 25.5q106 0 188 -34t138 -93l215 176l41 -51l-217 -176q63 -102 63 -225t-46 -226.5t-124 -177.5l115 -145l-49 -39l-113 145q-66 -47 -140.5 -73.5t-158.5 -26.5 q-98 0 -182 32.5t-144 96.5l-213 -170zM238 621q0 -76 25.5 -140.5t72.5 -111.5t113.5 -74t150.5 -27q98 0 179 40t139.5 106.5t91 150.5t32.5 174q0 70 -22.5 133.5t-66.5 112.5t-112.5 78t-160.5 29q-98 0 -180 -41t-140.5 -106.5t-90 -150.5t-31.5 -173z" />
<glyph unicode="&#xa5;" horiz-adv-x="1249" d="M-10 264l14 62h557l60 266h-558l13 61h514l-348 713h75l342 -709l654 709h92l-662 -713h496l-12 -61h-541l-59 -266h540l-14 -62h-541l-57 -264h-66l58 264h-557z" />
<glyph unicode="&#xa6;" horiz-adv-x="421" d="M221 -41v647h62v-647h-62zM221 760v647h62v-647h-62z" />
<glyph unicode="&#xa7;" horiz-adv-x="929" d="M-23 -4l58 41q45 -70 134 -109t202 -39q63 0 116.5 18.5t92 51.5t60.5 77t22 95q0 59 -39 97t-98.5 67t-128 54.5t-128 58t-98.5 80t-39 118.5q0 98 83 177t245 96q-96 35 -156.5 88t-60.5 143q0 47 20.5 96t62.5 89t105.5 65.5t147.5 25.5q127 0 222 -41.5t148 -113.5 l-53 -35q-27 37 -63.5 63.5t-78.5 42t-86 22.5t-85 7q-59 0 -110.5 -16.5t-88.5 -44t-58.5 -66.5t-21.5 -82q0 -61 40 -99t99.5 -66.5t129 -53t129 -57.5t99.5 -82t40 -125q0 -88 -62.5 -167t-208.5 -118q94 -49 126 -100t32 -117q0 -55 -22.5 -109.5t-67.5 -97.5 t-110.5 -69.5t-151.5 -26.5q-141 0 -238.5 42t-159.5 120zM193 614q0 -47 21.5 -78.5t62 -58t98 -49t129.5 -47.5q154 43 213 112.5t59 137.5q0 43 -18.5 75.5t-51 57t-74.5 44t-91 38.5q-182 -23 -265 -89.5t-83 -142.5z" />
<glyph unicode="&#xa8;" horiz-adv-x="516" d="M154 1219q0 27 18 45t45 18q23 0 37 -14t14 -37q0 -27 -18.5 -45.5t-44.5 -18.5q-23 0 -37 14.5t-14 37.5zM567 1219q0 27 18.5 45t45.5 18q23 0 37 -14t14 -37q0 -27 -18.5 -45.5t-45.5 -18.5q-23 0 -37 14.5t-14 37.5z" />
<glyph unicode="&#xa9;" horiz-adv-x="1593" d="M131 684q0 147 55.5 275t150.5 224.5t224 152t275 55.5q147 0 276 -55.5t225.5 -152t151.5 -224.5t55 -275q0 -145 -55 -274t-151.5 -225.5t-225.5 -152t-276 -55.5q-145 0 -274.5 55.5t-224.5 152t-150.5 225.5t-55.5 274zM184 684q0 -135 51.5 -254t140.5 -208 t206.5 -140t253.5 -51q135 0 253.5 51t207.5 140t141.5 208t52.5 254t-52.5 254t-141.5 208t-207.5 140t-253.5 51t-253 -51t-207 -140t-140.5 -208t-51.5 -254zM401 629q0 106 42 197.5t110 158t155 104t179 37.5q217 0 313 -163l-49 -35q-37 72 -105.5 107.5t-158.5 35.5 q-78 0 -154 -32.5t-136 -92t-98 -140.5t-38 -177q0 -68 24.5 -128.5t68.5 -104.5t105.5 -70.5t135.5 -26.5q66 0 131 27.5t106 68.5l31 -47q-55 -47 -120.5 -75.5t-147.5 -28.5q-94 0 -167 30.5t-123 83t-77 122t-27 149.5z" />
<glyph unicode="&#xaa;" horiz-adv-x="835" d="M195 930q0 76 25.5 147.5t72.5 127t110.5 89t141.5 33.5q86 0 149.5 -33.5t98.5 -89.5l22 107h57l-143 -643h-57l24 108q-49 -59 -107.5 -92t-133.5 -33q-51 0 -98.5 17.5t-83 51.5t-57 86t-21.5 124zM256 930q0 -113 58.5 -171.5t150.5 -58.5q82 0 141.5 39t102.5 90 l73 330q-29 53 -93 86t-144 33q-61 0 -113.5 -28.5t-91.5 -76t-61.5 -111t-22.5 -132.5z" />
<glyph unicode="&#xab;" horiz-adv-x="745" d="M59 498l410 362h88l-418 -373l238 -358h-72zM274 498l410 362h88l-418 -373l238 -358h-72z" />
<glyph unicode="&#xac;" horiz-adv-x="1011" d="M137 856l15 62h892l-104 -467h-66l91 405h-828z" />
<glyph unicode="&#xad;" horiz-adv-x="614" d="M53 465l13 61h491l-12 -61h-492z" />
<glyph unicode="&#xae;" horiz-adv-x="1011" d="M172 952q0 90 34 170t93 138.5t138 92t169 33.5t170 -33.5t138.5 -92t92 -138.5t33.5 -170t-33.5 -168.5t-93 -138t-139.5 -93.5t-170 -34t-169 34t-137 93.5t-92 138t-34 168.5zM225 952q0 -78 30 -147.5t81 -121.5t119.5 -82t148.5 -30t149.5 30t122 82t82 121.5 t29.5 147.5q0 80 -29.5 149.5t-82 121t-122 81t-149.5 29.5t-148.5 -29.5t-119.5 -81t-81 -121t-30 -149.5zM387 702l109 498h186q51 0 95 -32.5t44 -98.5q0 -39 -15 -69.5t-39 -52t-53.5 -34t-56.5 -12.5l91 -199h-72l-86 197h-101l-43 -197h-59zM502 956h143q45 0 79 30 t34 75q0 41 -25.5 62.5t-58.5 21.5h-131z" />
<glyph unicode="&#xaf;" horiz-adv-x="743" d="M154 1190l12 55h741l-12 -55h-741z" />
<glyph unicode="&#xb0;" horiz-adv-x="559" d="M199 1159q0 47 17 88t48 72t72 49t88 18t88 -18t71.5 -49t49 -72t18.5 -88t-18.5 -88t-49 -71.5t-71.5 -48t-88 -17.5t-88 17.5t-72 48t-48 71.5t-17 88zM260 1159q0 -68 47 -116t115 -48t118 48t50 116t-49 117t-117 49t-116 -49t-48 -117z" />
<glyph unicode="&#xb1;" horiz-adv-x="1011" d="M-51 0l12 61h893l-12 -61h-893zM94 659l15 62h413l96 442h66l-96 -442h413l-14 -62h-414l-100 -454h-65l100 454h-414z" />
<glyph unicode="&#xb2;" horiz-adv-x="778" d="M190 862l12 57q121 74 232.5 145.5t196.5 140.5t135.5 138.5t50.5 141.5q0 41 -17.5 70.5t-47.5 48t-65.5 27.5t-72.5 9q-143 0 -231 -98l-35 39q49 53 114.5 82.5t151.5 29.5q41 0 88 -10t86 -34.5t64.5 -64.5t25.5 -99q0 -80 -51 -154t-133 -143.5t-187.5 -137 t-212.5 -135.5h461l-10 -53h-555z" />
<glyph unicode="&#xb3;" horiz-adv-x="778" d="M221 995l47 31q78 -125 248 -125q102 0 160.5 60.5t58.5 146.5q0 66 -61.5 108.5t-159.5 42.5h-30.5t-25.5 -2l13 56q25 -2 56.5 -3.5t59.5 -1.5q98 0 161 46.5t63 130.5q0 37 -17.5 65.5t-47.5 48t-67.5 30.5t-80.5 11q-68 0 -121.5 -24.5t-106.5 -71.5l-33 41 q45 41 114 74.5t147 33.5q51 0 99 -12t87 -36.5t62.5 -62.5t23.5 -89t-18.5 -90t-50 -65.5t-73.5 -42t-87 -19.5q29 -6 56.5 -20.5t50 -37t36.5 -52t14 -66.5q0 -47 -19.5 -92.5t-55 -80t-88 -57t-119.5 -22.5q-104 0 -179 37.5t-116 109.5z" />
<glyph unicode="&#xb4;" horiz-adv-x="419" d="M137 1139l393 295h97l-424 -295h-66z" />
<glyph unicode="&#xb5;" horiz-adv-x="1110" d="M-20 -377l309 1366h61l-155 -692q-16 -72 -6 -123t38.5 -84t71.5 -48t94 -15q49 0 102.5 15t105.5 39.5t98 58.5t81 71l172 778h62l-180 -815q-14 -63 2 -103t71 -40q27 0 43 4l-6 -55q-10 -2 -22.5 -3.5t-26.5 -1.5q-86 0 -112.5 49.5t-14.5 127.5 q-78 -72 -182.5 -124.5t-204.5 -52.5q-92 0 -147.5 36t-81.5 98l-111 -486h-61z" />
<glyph unicode="&#xb6;" horiz-adv-x="919" d="M162 981q0 72 29.5 141.5t83 123.5t126 87t158.5 33h363l-349 -1571h-61l336 1510h-201l-336 -1510h-61l192 867q-57 0 -108 23.5t-89 66.5t-60.5 101t-22.5 128z" />
<glyph unicode="&#xb7;" horiz-adv-x="425" d="M145 496q0 31 21.5 51t52.5 20q27 0 44.5 -17.5t17.5 -43.5q0 -31 -21.5 -51.5t-52.5 -20.5q-27 0 -44.5 17.5t-17.5 44.5z" />
<glyph unicode="&#xb8;" horiz-adv-x="391" d="M-182 -309l41 51q33 -37 78 -53.5t90 -16.5q76 0 110.5 34t34.5 81q0 35 -23.5 54.5t-64.5 19.5q-23 0 -44.5 -9.5t-37.5 -29.5l-39 26l103 175h61l-84 -142q31 25 72 25q53 0 84.5 -30t31.5 -85q0 -76 -56.5 -125t-154.5 -49q-66 0 -116.5 20.5t-85.5 53.5z" />
<glyph unicode="&#xb9;" horiz-adv-x="393" d="M260 1499l215 182h55l-180 -819h-62l160 729l-156 -135z" />
<glyph unicode="&#xba;" horiz-adv-x="829" d="M199 938q0 78 27.5 148.5t75.5 124t113.5 85t143.5 31.5q129 0 208 -79t79 -208q0 -78 -27.5 -148.5t-76 -123.5t-114 -85t-143.5 -32q-129 0 -207.5 79t-78.5 208zM260 938q0 -102 61.5 -167.5t163.5 -65.5q68 0 123.5 27.5t95 73.5t61 106.5t21.5 127.5q0 102 -62 167 t-165 65q-68 0 -122 -26.5t-94 -73t-61.5 -106.5t-21.5 -128z" />
<glyph unicode="&#xbb;" horiz-adv-x="745" d="M-23 129l418 373l-237 358h71l246 -368l-409 -363h-89zM193 129l417 373l-237 358h71l246 -368l-409 -363h-88z" />
<glyph unicode="&#xbc;" horiz-adv-x="1464" d="M59 0l1174 1366h75l-1175 -1366h-74zM191 1184l215 182h55l-180 -819h-62l160 729l-156 -135zM723 231l10 54l500 534h80l-119 -534h127l-10 -54h-127l-52 -231h-59l51 231h-401zM799 285h336l104 467z" />
<glyph unicode="&#xbd;" horiz-adv-x="1546" d="M59 0l1174 1366h75l-1175 -1366h-74zM191 1184l215 182h55l-180 -819h-62l160 729l-156 -135zM768 0l12 57q121 74 232.5 145.5t196.5 140.5t135.5 138.5t50.5 141.5q0 41 -17.5 70.5t-47.5 48t-65.5 27.5t-72.5 9q-143 0 -231 -98l-35 39q49 53 114.5 82.5t151.5 29.5 q41 0 88 -10t86 -34.5t64.5 -64.5t25.5 -99q0 -80 -51 -154t-133 -143.5t-187.5 -137t-212.5 -135.5h461l-10 -53h-555z" />
<glyph unicode="&#xbe;" horiz-adv-x="1722" d="M152 680l47 31q78 -125 248 -125q102 0 160.5 60.5t58.5 146.5q0 66 -61.5 108.5t-159.5 42.5h-30.5t-25.5 -2l13 56q25 -2 56.5 -3.5t59.5 -1.5q98 0 161 46.5t63 130.5q0 37 -17.5 65.5t-47.5 48t-67.5 30.5t-80.5 11q-68 0 -121.5 -24.5t-106.5 -71.5l-33 41 q45 41 114 74.5t147 33.5q51 0 99 -12t87 -36.5t62.5 -62.5t23.5 -89t-18.5 -90t-50 -65.5t-73.5 -42t-87 -19.5q29 -6 56.5 -20.5t50 -37t36.5 -52t14 -66.5q0 -47 -19.5 -92.5t-55 -80t-88 -57t-119.5 -22.5q-104 0 -179 37.5t-116 109.5zM317 0l1174 1366h75l-1175 -1366 h-74zM981 231l10 54l500 534h80l-119 -534h127l-10 -54h-127l-52 -231h-59l51 231h-401zM1057 285h336l104 467z" />
<glyph unicode="&#xbf;" horiz-adv-x="800" d="M-49 -100q0 92 42 154.5t105.5 109.5t138 82t138 70.5t105.5 77.5t42 104q0 23 -9 49t-36 51l49 47q59 -68 60 -147q0 -74 -42 -123t-103.5 -88t-135.5 -73t-135 -76t-103 -98t-42 -140q0 -104 84 -170t235 -66q111 0 203 42t168 120l37 -43q-92 -94 -190.5 -137 t-217.5 -43q-90 0 -162.5 22.5t-124 61.5t-79 93t-27.5 120zM530 936q0 31 21.5 51.5t52.5 20.5q27 0 44.5 -17.5t17.5 -44.5q0 -31 -21.5 -51.5t-52.5 -20.5q-27 0 -44.5 17.5t-17.5 44.5z" />
<glyph unicode="&#xc0;" horiz-adv-x="1302" d="M-68 0l871 1366h78l268 -1366h-72l-71 367h-762l-232 -367h-80zM283 428h712l-166 862zM617 1776h92l262 -295h-61z" />
<glyph unicode="&#xc1;" horiz-adv-x="1302" d="M-68 0l871 1366h78l268 -1366h-72l-71 367h-762l-232 -367h-80zM283 428h712l-166 862zM758 1481l393 295h97l-424 -295h-66z" />
<glyph unicode="&#xc2;" horiz-adv-x="1302" d="M-68 0l871 1366h78l268 -1366h-72l-71 367h-762l-232 -367h-80zM283 428h712l-166 862zM630 1481l267 295h73l142 -295h-54l-133 245l-233 -245h-62z" />
<glyph unicode="&#xc3;" horiz-adv-x="1302" d="M-68 0l871 1366h78l268 -1366h-72l-71 367h-762l-232 -367h-80zM283 428h712l-166 862zM563 1489q12 55 32 105.5t47.5 87t64.5 59t80 22.5q59 0 85.5 -35.5t44 -79.5t39 -80t68.5 -36q51 0 90 51t68 168h55q-12 -55 -31.5 -105.5t-48 -87t-65.5 -59t-80 -22.5 q-59 0 -86 35.5t-44.5 79.5t-39 80t-68.5 36q-51 0 -90 -51t-65 -168h-56z" />
<glyph unicode="&#xc4;" horiz-adv-x="1302" d="M-68 0l871 1366h78l268 -1366h-72l-71 367h-762l-232 -367h-80zM283 428h712l-166 862zM623 1561q0 27 18 45t45 18q23 0 37 -14t14 -37q0 -27 -18.5 -45.5t-44.5 -18.5q-23 0 -37 14.5t-14 37.5zM1036 1561q0 27 18.5 45t45.5 18q23 0 37 -14t14 -37q0 -27 -18.5 -45.5 t-45.5 -18.5q-23 0 -37 14.5t-14 37.5z" />
<glyph unicode="&#xc5;" horiz-adv-x="1302" d="M-68 0l871 1366h78l268 -1366h-72l-71 367h-762l-232 -367h-80zM283 428h712l-166 862zM704 1590q0 43 16.5 80.5t45 66.5t66.5 45t81 16q76 0 124 -48t48 -124q0 -43 -16.5 -80.5t-45 -66.5t-66.5 -45t-81 -16q-76 0 -124 48t-48 124zM753 1594q0 -55 34 -91t89 -36 q66 0 113 45t47 110q0 57 -34 92t-89 35q-66 0 -113 -45t-47 -110z" />
<glyph unicode="&#xc6;" horiz-adv-x="1904" d="M-68 0l1172 1366h858l-12 -61h-770l-127 -572h755l-14 -61h-756l-135 -611h770l-12 -61h-836l80 367h-579l-312 -367h-82zM375 428h545l188 854z" />
<glyph unicode="&#xc7;" horiz-adv-x="1366" d="M152 561q0 188 64.5 341t168.5 261.5t238.5 167t273.5 58.5q160 0 296 -63.5t220 -201.5l-61 -39q-80 133 -202 187.5t-259 54.5q-123 0 -242 -52t-213 -151.5t-152.5 -242t-58.5 -320.5q0 -119 37 -216t105.5 -165.5t166 -105.5t218.5 -37q104 0 203.5 36t201.5 120 l41 -48q-100 -86 -215 -128t-235 -42h-18.5t-18.5 2l-56 -96q31 25 72 25q53 0 85 -30t32 -85q0 -76 -56.5 -125t-154.5 -49q-66 0 -117 20.5t-86 53.5l41 51q33 -37 78 -53.5t90 -16.5q76 0 110.5 34t34.5 81q0 35 -23.5 54.5t-64.5 19.5q-23 0 -44 -9.5t-38 -29.5l-39 26 l78 134q-113 14 -205 61t-158.5 122t-102 175t-35.5 221z" />
<glyph unicode="&#xc8;" horiz-adv-x="1142" d="M70 0l301 1366h835l-12 -61h-770l-127 -572h756l-15 -61h-755l-136 -611h771l-13 -61h-835zM565 1776h92l262 -295h-61z" />
<glyph unicode="&#xc9;" horiz-adv-x="1142" d="M70 0l301 1366h835l-12 -61h-770l-127 -572h756l-15 -61h-755l-136 -611h771l-13 -61h-835zM704 1481l393 295h97l-424 -295h-66z" />
<glyph unicode="&#xca;" horiz-adv-x="1142" d="M70 0l301 1366h835l-12 -61h-770l-127 -572h756l-15 -61h-755l-136 -611h771l-13 -61h-835zM571 1481l267 295h73l142 -295h-54l-133 245l-233 -245h-62z" />
<glyph unicode="&#xcb;" horiz-adv-x="1142" d="M70 0l301 1366h835l-12 -61h-770l-127 -572h756l-15 -61h-755l-136 -611h771l-13 -61h-835zM568 1561q0 27 18 45t45 18q23 0 37 -14t14 -37q0 -27 -18.5 -45.5t-44.5 -18.5q-23 0 -37 14.5t-14 37.5zM981 1561q0 27 18.5 45t45.5 18q23 0 37 -14t14 -37 q0 -27 -18.5 -45.5t-45.5 -18.5q-23 0 -37 14.5t-14 37.5z" />
<glyph unicode="&#xcc;" horiz-adv-x="425" d="M70 0l301 1366h65l-301 -1366h-65zM182 1776h92l262 -295h-61z" />
<glyph unicode="&#xcd;" horiz-adv-x="425" d="M70 0l301 1366h65l-301 -1366h-65zM323 1481l393 295h97l-424 -295h-66z" />
<glyph unicode="&#xce;" horiz-adv-x="425" d="M70 0l301 1366h65l-301 -1366h-65zM192 1481l267 295h73l142 -295h-54l-133 245l-233 -245h-62z" />
<glyph unicode="&#xcf;" horiz-adv-x="425" d="M70 0l301 1366h65l-301 -1366h-65zM185 1561q0 27 18 45t45 18q23 0 37 -14t14 -37q0 -27 -18.5 -45.5t-44.5 -18.5q-23 0 -37 14.5t-14 37.5zM598 1561q0 27 18.5 45t45.5 18q23 0 37 -14t14 -37q0 -27 -18.5 -45.5t-45.5 -18.5q-23 0 -37 14.5t-14 37.5z" />
<glyph unicode="&#xd0;" horiz-adv-x="1464" d="M57 653l15 62h219l143 651h395q115 0 214.5 -44t173 -122t115.5 -183.5t42 -230.5q0 -143 -53 -284.5t-158.5 -253t-262.5 -180t-363 -68.5h-404l143 653h-219zM211 61h336q174 0 314 58.5t238.5 158t152 231.5t53.5 277q0 113 -37 207t-102.5 164t-154.5 109t-194 39 h-330l-131 -590h383l-14 -62h-383z" />
<glyph unicode="&#xd1;" horiz-adv-x="1413" d="M70 0l301 1366h65l643 -1255l279 1255h65l-301 -1366h-65l-641 1268l-281 -1268h-65zM614 1489q12 55 32 105.5t47.5 87t64.5 59t80 22.5q59 0 85.5 -35.5t44 -79.5t39 -80t68.5 -36q51 0 90 51t68 168h55q-12 -55 -31.5 -105.5t-48 -87t-65.5 -59t-80 -22.5 q-59 0 -86 35.5t-44.5 79.5t-39 80t-68.5 36q-51 0 -90 -51t-65 -168h-56z" />
<glyph unicode="&#xd2;" horiz-adv-x="1564" d="M152 561q0 174 59 325.5t160.5 263.5t237.5 175.5t288 63.5q123 0 231.5 -38t189.5 -112t128 -183.5t47 -252.5q0 -176 -59.5 -326.5t-161 -262.5t-237 -175.5t-287.5 -63.5q-123 0 -231.5 38t-189.5 112t-128 183.5t-47 252.5zM225 561q0 -129 42 -227t115 -165 t168.5 -99.5t201.5 -32.5q131 0 251.5 56.5t213 157.5t147.5 241.5t55 310.5q0 129 -43 227t-114.5 165t-168 99.5t-202.5 32.5q-133 0 -253 -56.5t-212 -157.5t-146.5 -242.5t-54.5 -309.5zM750 1776h92l262 -295h-61z" />
<glyph unicode="&#xd3;" horiz-adv-x="1564" d="M152 561q0 174 59 325.5t160.5 263.5t237.5 175.5t288 63.5q123 0 231.5 -38t189.5 -112t128 -183.5t47 -252.5q0 -176 -59.5 -326.5t-161 -262.5t-237 -175.5t-287.5 -63.5q-123 0 -231.5 38t-189.5 112t-128 183.5t-47 252.5zM225 561q0 -129 42 -227t115 -165 t168.5 -99.5t201.5 -32.5q131 0 251.5 56.5t213 157.5t147.5 241.5t55 310.5q0 129 -43 227t-114.5 165t-168 99.5t-202.5 32.5q-133 0 -253 -56.5t-212 -157.5t-146.5 -242.5t-54.5 -309.5zM887 1481l393 295h97l-424 -295h-66z" />
<glyph unicode="&#xd4;" horiz-adv-x="1564" d="M152 561q0 174 59 325.5t160.5 263.5t237.5 175.5t288 63.5q123 0 231.5 -38t189.5 -112t128 -183.5t47 -252.5q0 -176 -59.5 -326.5t-161 -262.5t-237 -175.5t-287.5 -63.5q-123 0 -231.5 38t-189.5 112t-128 183.5t-47 252.5zM225 561q0 -129 42 -227t115 -165 t168.5 -99.5t201.5 -32.5q131 0 251.5 56.5t213 157.5t147.5 241.5t55 310.5q0 129 -43 227t-114.5 165t-168 99.5t-202.5 32.5q-133 0 -253 -56.5t-212 -157.5t-146.5 -242.5t-54.5 -309.5zM759 1481l267 295h73l142 -295h-54l-133 245l-233 -245h-62z" />
<glyph unicode="&#xd5;" horiz-adv-x="1564" d="M152 561q0 174 59 325.5t160.5 263.5t237.5 175.5t288 63.5q123 0 231.5 -38t189.5 -112t128 -183.5t47 -252.5q0 -176 -59.5 -326.5t-161 -262.5t-237 -175.5t-287.5 -63.5q-123 0 -231.5 38t-189.5 112t-128 183.5t-47 252.5zM225 561q0 -129 42 -227t115 -165 t168.5 -99.5t201.5 -32.5q131 0 251.5 56.5t213 157.5t147.5 241.5t55 310.5q0 129 -43 227t-114.5 165t-168 99.5t-202.5 32.5q-133 0 -253 -56.5t-212 -157.5t-146.5 -242.5t-54.5 -309.5zM694 1489q12 55 32 105.5t47.5 87t64.5 59t80 22.5q59 0 85.5 -35.5t44 -79.5 t39 -80t68.5 -36q51 0 90 51t68 168h55q-12 -55 -31.5 -105.5t-48 -87t-65.5 -59t-80 -22.5q-59 0 -86 35.5t-44.5 79.5t-39 80t-68.5 36q-51 0 -90 -51t-65 -168h-56z" />
<glyph unicode="&#xd6;" horiz-adv-x="1564" d="M152 561q0 174 59 325.5t160.5 263.5t237.5 175.5t288 63.5q123 0 231.5 -38t189.5 -112t128 -183.5t47 -252.5q0 -176 -59.5 -326.5t-161 -262.5t-237 -175.5t-287.5 -63.5q-123 0 -231.5 38t-189.5 112t-128 183.5t-47 252.5zM225 561q0 -129 42 -227t115 -165 t168.5 -99.5t201.5 -32.5q131 0 251.5 56.5t213 157.5t147.5 241.5t55 310.5q0 129 -43 227t-114.5 165t-168 99.5t-202.5 32.5q-133 0 -253 -56.5t-212 -157.5t-146.5 -242.5t-54.5 -309.5zM756 1561q0 27 18 45t45 18q23 0 37 -14t14 -37q0 -27 -18.5 -45.5t-44.5 -18.5 q-23 0 -37 14.5t-14 37.5zM1169 1561q0 27 18.5 45t45.5 18q23 0 37 -14t14 -37q0 -27 -18.5 -45.5t-45.5 -18.5q-23 0 -37 14.5t-14 37.5z" />
<glyph unicode="&#xd7;" horiz-adv-x="1011" d="M113 369l391 319l-246 316l49 38l244 -315l391 320l37 -48l-389 -319l244 -315l-48 -39l-245 315l-389 -319z" />
<glyph unicode="&#xd8;" horiz-adv-x="1564" d="M152 561q0 174 59 325.5t160.5 263.5t237.5 175.5t288 63.5q217 0 373 -113l73 90h74l-102 -125q82 -74 130 -183.5t48 -254.5q0 -176 -59.5 -326.5t-161 -262.5t-237 -175.5t-287.5 -63.5q-106 0 -201.5 29t-173.5 84l-72 -88h-74l101 123q-82 74 -129 183.5t-47 254.5z M225 561q0 -127 39 -223t109 -162l854 1047q-70 53 -156 78.5t-180 25.5q-133 0 -253 -56.5t-212 -157.5t-146.5 -242.5t-54.5 -309.5zM416 141q70 -53 155 -78.5t181 -25.5q131 0 251.5 56.5t213 157.5t147.5 241.5t55 310.5q0 127 -40 222t-109 161z" />
<glyph unicode="&#xd9;" horiz-adv-x="1376" d="M174 410q0 57 10 108l187 848h65l-186 -848q-4 -12 -8 -39.5t-4 -60.5q0 -172 108.5 -276.5t306.5 -104.5q106 0 186.5 32.5t136.5 94t95 150.5t64 204l186 848h65l-186 -848q-29 -127 -71 -227.5t-106.5 -171t-154.5 -107.5t-215 -37q-109 0 -197.5 30t-151 86 t-96.5 137t-34 182zM656 1776h92l262 -295h-61z" />
<glyph unicode="&#xda;" horiz-adv-x="1376" d="M174 410q0 57 10 108l187 848h65l-186 -848q-4 -12 -8 -39.5t-4 -60.5q0 -172 108.5 -276.5t306.5 -104.5q106 0 186.5 32.5t136.5 94t95 150.5t64 204l186 848h65l-186 -848q-29 -127 -71 -227.5t-106.5 -171t-154.5 -107.5t-215 -37q-109 0 -197.5 30t-151 86 t-96.5 137t-34 182zM799 1481l393 295h97l-424 -295h-66z" />
<glyph unicode="&#xdb;" horiz-adv-x="1376" d="M174 410q0 57 10 108l187 848h65l-186 -848q-4 -12 -8 -39.5t-4 -60.5q0 -172 108.5 -276.5t306.5 -104.5q106 0 186.5 32.5t136.5 94t95 150.5t64 204l186 848h65l-186 -848q-29 -127 -71 -227.5t-106.5 -171t-154.5 -107.5t-215 -37q-109 0 -197.5 30t-151 86 t-96.5 137t-34 182zM665 1481l267 295h73l142 -295h-54l-133 245l-233 -245h-62z" />
<glyph unicode="&#xdc;" horiz-adv-x="1376" d="M174 410q0 57 10 108l187 848h65l-186 -848q-4 -12 -8 -39.5t-4 -60.5q0 -172 108.5 -276.5t306.5 -104.5q106 0 186.5 32.5t136.5 94t95 150.5t64 204l186 848h65l-186 -848q-29 -127 -71 -227.5t-106.5 -171t-154.5 -107.5t-215 -37q-109 0 -197.5 30t-151 86 t-96.5 137t-34 182zM662 1561q0 27 18 45t45 18q23 0 37 -14t14 -37q0 -27 -18.5 -45.5t-44.5 -18.5q-23 0 -37 14.5t-14 37.5zM1075 1561q0 27 18.5 45t45.5 18q23 0 37 -14t14 -37q0 -27 -18.5 -45.5t-45.5 -18.5q-23 0 -37 14.5t-14 37.5z" />
<glyph unicode="&#xdd;" horiz-adv-x="1249" d="M233 1366h76l342 -709l654 709h92l-719 -774l-131 -592h-66l131 592zM731 1481l393 295h97l-424 -295h-66z" />
<glyph unicode="&#xde;" horiz-adv-x="1136" d="M70 0l301 1366h65l-57 -264h381q70 0 132 -25.5t108.5 -70.5t73 -105.5t26.5 -130.5q0 -78 -28 -156.5t-87 -142t-152.5 -103.5t-222.5 -40h-403l-72 -328h-65zM221 389h400q104 0 181 33t127 86t74.5 121.5t24.5 140.5q0 55 -22.5 104.5t-60.5 86t-88 58t-105 21.5h-387 z" />
<glyph unicode="&#xdf;" horiz-adv-x="1142" d="M66 0l235 1063q14 70 47 129t79 102t106.5 67.5t132.5 24.5q55 0 107 -15t93 -43t66.5 -67.5t25.5 -89.5q0 -66 -32.5 -107.5t-80.5 -71t-105.5 -52t-105.5 -49.5t-81 -63.5t-33 -94.5q0 -57 40 -93t99.5 -62.5t128 -50t128 -55.5t99.5 -77.5t40 -115.5 q0 -53 -20.5 -107.5t-64.5 -97.5t-110.5 -71t-159.5 -28q-70 0 -126 10.5t-103 33t-88 57.5t-80 84l55 39q53 -72 135 -120t209 -48q72 0 126.5 21.5t91 55t55 76.5t18.5 86q0 59 -40 96t-99 65t-128 51.5t-128 55t-99 74.5t-40 113q0 68 32.5 114t81 77.5t105.5 56 t105 50.5t81 58.5t33 81.5q0 41 -22.5 72t-56.5 52.5t-73.5 32.5t-76.5 11q-106 0 -191.5 -71.5t-114.5 -196.5l-235 -1063h-61z" />
<glyph unicode="&#xe0;" horiz-adv-x="1159" d="M104 381q0 129 38 243.5t106.5 200.5t164 137.5t210.5 51.5q129 0 223 -57.5t145 -145.5l39 178h62l-220 -989h-61l35 158q-59 -80 -150.5 -131.5t-201.5 -51.5q-86 0 -157 28t-123 80t-81 127t-29 171zM174 389q0 -166 88 -262t236 -96q57 0 111.5 17.5t102.5 47 t87 67.5t67 81l113 514q-39 82 -131 141t-225 59q-102 0 -185.5 -49t-141.5 -129t-90 -182t-32 -209zM455 1434h92l262 -295h-61z" />
<glyph unicode="&#xe1;" horiz-adv-x="1159" d="M104 381q0 129 38 243.5t106.5 200.5t164 137.5t210.5 51.5q129 0 223 -57.5t145 -145.5l39 178h62l-220 -989h-61l35 158q-59 -80 -150.5 -131.5t-201.5 -51.5q-86 0 -157 28t-123 80t-81 127t-29 171zM174 389q0 -166 88 -262t236 -96q57 0 111.5 17.5t102.5 47 t87 67.5t67 81l113 514q-39 82 -131 141t-225 59q-102 0 -185.5 -49t-141.5 -129t-90 -182t-32 -209zM592 1139l393 295h97l-424 -295h-66z" />
<glyph unicode="&#xe2;" horiz-adv-x="1159" d="M104 381q0 129 38 243.5t106.5 200.5t164 137.5t210.5 51.5q129 0 223 -57.5t145 -145.5l39 178h62l-220 -989h-61l35 158q-59 -80 -150.5 -131.5t-201.5 -51.5q-86 0 -157 28t-123 80t-81 127t-29 171zM174 389q0 -166 88 -262t236 -96q57 0 111.5 17.5t102.5 47 t87 67.5t67 81l113 514q-39 82 -131 141t-225 59q-102 0 -185.5 -49t-141.5 -129t-90 -182t-32 -209zM463 1139l267 295h73l142 -295h-54l-133 245l-233 -245h-62z" />
<glyph unicode="&#xe3;" horiz-adv-x="1159" d="M104 381q0 129 38 243.5t106.5 200.5t164 137.5t210.5 51.5q129 0 223 -57.5t145 -145.5l39 178h62l-220 -989h-61l35 158q-59 -80 -150.5 -131.5t-201.5 -51.5q-86 0 -157 28t-123 80t-81 127t-29 171zM174 389q0 -166 88 -262t236 -96q57 0 111.5 17.5t102.5 47 t87 67.5t67 81l113 514q-39 82 -131 141t-225 59q-102 0 -185.5 -49t-141.5 -129t-90 -182t-32 -209zM399 1147q12 55 32 105.5t47.5 87t64.5 59t80 22.5q59 0 85.5 -35.5t44 -79.5t39 -80t68.5 -36q51 0 90 51t68 168h55q-12 -55 -31.5 -105.5t-48 -87t-65.5 -59t-80 -22.5 q-59 0 -86 35.5t-44.5 79.5t-39 80t-68.5 36q-51 0 -90 -51t-65 -168h-56z" />
<glyph unicode="&#xe4;" horiz-adv-x="1159" d="M104 381q0 129 38 243.5t106.5 200.5t164 137.5t210.5 51.5q129 0 223 -57.5t145 -145.5l39 178h62l-220 -989h-61l35 158q-59 -80 -150.5 -131.5t-201.5 -51.5q-86 0 -157 28t-123 80t-81 127t-29 171zM174 389q0 -166 88 -262t236 -96q57 0 111.5 17.5t102.5 47 t87 67.5t67 81l113 514q-39 82 -131 141t-225 59q-102 0 -185.5 -49t-141.5 -129t-90 -182t-32 -209zM459 1219q0 27 18 45t45 18q23 0 37 -14t14 -37q0 -27 -18.5 -45.5t-44.5 -18.5q-23 0 -37 14.5t-14 37.5zM872 1219q0 27 18.5 45t45.5 18q23 0 37 -14t14 -37 q0 -27 -18.5 -45.5t-45.5 -18.5q-23 0 -37 14.5t-14 37.5z" />
<glyph unicode="&#xe5;" horiz-adv-x="1159" d="M104 381q0 129 38 243.5t106.5 200.5t164 137.5t210.5 51.5q129 0 223 -57.5t145 -145.5l39 178h62l-220 -989h-61l35 158q-59 -80 -150.5 -131.5t-201.5 -51.5q-86 0 -157 28t-123 80t-81 127t-29 171zM174 389q0 -166 88 -262t236 -96q57 0 111.5 17.5t102.5 47 t87 67.5t67 81l113 514q-39 82 -131 141t-225 59q-102 0 -185.5 -49t-141.5 -129t-90 -182t-32 -209zM549 1293q0 43 16.5 80.5t45 66.5t66.5 45t81 16q76 0 124 -48t48 -124q0 -43 -16.5 -80.5t-45 -66.5t-66.5 -45t-81 -16q-76 0 -124 48t-48 124zM598 1297q0 -55 34 -91 t89 -36q66 0 113 45t47 110q0 57 -34 92t-89 35q-66 0 -113 -45t-47 -110z" />
<glyph unicode="&#xe6;" horiz-adv-x="1961" d="M104 381q0 129 38 243.5t106.5 200.5t164 137.5t210.5 51.5q129 0 223 -57.5t145 -145.5l39 178h62l-45 -207q29 41 69.5 83t93 75t113.5 53.5t129 20.5q100 0 175 -34t125 -91.5t74.5 -135t24.5 -163.5q0 -29 -5 -62.5t-9 -52.5h-854q-2 -10 -3 -29.5t-1 -35.5 q0 -80 24.5 -150t73.5 -120t122 -79.5t169 -29.5q162 0 301 116l31 -45q-66 -53 -150 -90t-182 -37q-180 0 -290.5 92.5t-135.5 243.5l-70 -311h-61l35 158q-59 -80 -150.5 -131.5t-201.5 -51.5q-86 0 -157 28t-123 80t-81 127t-29 171zM174 389q0 -166 88 -262t236 -96 q57 0 111.5 17.5t102.5 47t87 67.5t67 81l113 514q-39 82 -131 141t-225 59q-102 0 -185.5 -49t-141.5 -129t-90 -182t-32 -209zM989 530h797q2 10 3 26.5t1 27.5q0 166 -88 270t-260 104q-82 0 -157 -34.5t-136.5 -93t-103 -136.5t-56.5 -164z" />
<glyph unicode="&#xe7;" horiz-adv-x="1009" d="M104 410q0 123 42 232.5t115 192.5t171 131t213 48q238 0 342 -176l-49 -35q-47 82 -124 118.5t-163 36.5q-113 0 -202 -47t-150 -124.5t-94 -177t-33 -206.5q0 -92 27.5 -162.5t77 -116.5t116 -69.5t144.5 -23.5q90 0 162.5 37.5t123.5 97.5l39 -43q-68 -70 -145.5 -109 t-184.5 -39h-17t-17 2l-56 -96q31 25 72 25q53 0 85 -30t32 -85q0 -76 -56.5 -125t-154.5 -49q-66 0 -117 20.5t-86 53.5l41 51q33 -37 78 -53.5t90 -16.5q76 0 110.5 34t34.5 81q0 35 -23.5 54.5t-64.5 19.5q-23 0 -44 -9.5t-38 -29.5l-39 26l78 136q-74 12 -135 45.5 t-105 87t-70 127t-26 166.5z" />
<glyph unicode="&#xe8;" horiz-adv-x="1169" d="M104 410q0 125 43 234.5t117 191.5t172.5 130t210.5 48q100 0 177 -34t129.5 -91.5t79 -135t26.5 -163.5q0 -29 -5 -62.5t-10 -52.5h-866q-2 -10 -3 -29.5t-1 -35.5q0 -80 24.5 -150t74 -120t122 -79.5t168.5 -29.5q78 0 161 28.5t153 87.5l30 -45q-66 -53 -156 -90 t-188 -37q-111 0 -195.5 33t-143 90.5t-89.5 137t-31 174.5zM184 530h809q2 10 3 26.5t1 27.5q0 166 -94 270t-266 104q-82 0 -156.5 -34.5t-136 -93t-103.5 -136.5t-57 -164zM477 1434h92l262 -295h-61z" />
<glyph unicode="&#xe9;" horiz-adv-x="1169" d="M104 410q0 125 43 234.5t117 191.5t172.5 130t210.5 48q100 0 177 -34t129.5 -91.5t79 -135t26.5 -163.5q0 -29 -5 -62.5t-10 -52.5h-866q-2 -10 -3 -29.5t-1 -35.5q0 -80 24.5 -150t74 -120t122 -79.5t168.5 -29.5q78 0 161 28.5t153 87.5l30 -45q-66 -53 -156 -90 t-188 -37q-111 0 -195.5 33t-143 90.5t-89.5 137t-31 174.5zM184 530h809q2 10 3 26.5t1 27.5q0 166 -94 270t-266 104q-82 0 -156.5 -34.5t-136 -93t-103.5 -136.5t-57 -164zM616 1139l393 295h97l-424 -295h-66z" />
<glyph unicode="&#xea;" horiz-adv-x="1169" d="M104 410q0 125 43 234.5t117 191.5t172.5 130t210.5 48q100 0 177 -34t129.5 -91.5t79 -135t26.5 -163.5q0 -29 -5 -62.5t-10 -52.5h-866q-2 -10 -3 -29.5t-1 -35.5q0 -80 24.5 -150t74 -120t122 -79.5t168.5 -29.5q78 0 161 28.5t153 87.5l30 -45q-66 -53 -156 -90 t-188 -37q-111 0 -195.5 33t-143 90.5t-89.5 137t-31 174.5zM184 530h809q2 10 3 26.5t1 27.5q0 166 -94 270t-266 104q-82 0 -156.5 -34.5t-136 -93t-103.5 -136.5t-57 -164zM485 1139l267 295h73l142 -295h-54l-133 245l-233 -245h-62z" />
<glyph unicode="&#xeb;" horiz-adv-x="1169" d="M104 410q0 125 43 234.5t117 191.5t172.5 130t210.5 48q100 0 177 -34t129.5 -91.5t79 -135t26.5 -163.5q0 -29 -5 -62.5t-10 -52.5h-866q-2 -10 -3 -29.5t-1 -35.5q0 -80 24.5 -150t74 -120t122 -79.5t168.5 -29.5q78 0 161 28.5t153 87.5l30 -45q-66 -53 -156 -90 t-188 -37q-111 0 -195.5 33t-143 90.5t-89.5 137t-31 174.5zM184 530h809q2 10 3 26.5t1 27.5q0 166 -94 270t-266 104q-82 0 -156.5 -34.5t-136 -93t-103.5 -136.5t-57 -164zM480 1219q0 27 18 45t45 18q23 0 37 -14t14 -37q0 -27 -18.5 -45.5t-44.5 -18.5q-23 0 -37 14.5 t-14 37.5zM893 1219q0 27 18.5 45t45.5 18q23 0 37 -14t14 -37q0 -27 -18.5 -45.5t-45.5 -18.5q-23 0 -37 14.5t-14 37.5z" />
<glyph unicode="&#xec;" horiz-adv-x="413" d="M66 0l219 989h61l-219 -989h-61zM103 1434h92l262 -295h-61z" />
<glyph unicode="&#xed;" horiz-adv-x="413" d="M66 0l219 989h61l-219 -989h-61zM239 1139l393 295h97l-424 -295h-66z" />
<glyph unicode="&#xee;" horiz-adv-x="413" d="M66 0l219 989h61l-219 -989h-61zM110 1139l267 295h73l142 -295h-54l-133 245l-233 -245h-62z" />
<glyph unicode="&#xef;" horiz-adv-x="413" d="M66 0l219 989h61l-219 -989h-61zM105 1219q0 27 18 45t45 18q23 0 37 -14t14 -37q0 -27 -18.5 -45.5t-44.5 -18.5q-23 0 -37 14.5t-14 37.5zM518 1219q0 27 18.5 45t45.5 18q23 0 37 -14t14 -37q0 -27 -18.5 -45.5t-45.5 -18.5q-23 0 -37 14.5t-14 37.5z" />
<glyph unicode="&#xf0;" horiz-adv-x="1167" d="M106 391q0 129 42 243t114 199t167 133t202 48q43 0 92 -10.5t96 -35t88 -65.5t70 -102q-92 221 -252 387l-315 -94l-15 51l287 86q-35 33 -73 64.5t-79 62.5l48 51q94 -72 180 -156l246 74l14 -51l-219 -66q117 -131 187.5 -283.5t70.5 -312.5q0 -133 -40 -249.5 t-110.5 -202.5t-167 -136.5t-209.5 -50.5q-94 0 -171.5 32t-134 88.5t-87.5 132t-31 163.5zM176 408q0 -80 23.5 -150t68.5 -120t111.5 -78.5t150.5 -28.5q92 0 175 45t145.5 121.5t99.5 179t37 217.5q0 63 -20.5 127.5t-63.5 117t-110.5 86t-161.5 33.5q-90 0 -173 -42 t-145.5 -116.5t-99.5 -175t-37 -216.5z" />
<glyph unicode="&#xf1;" d="M66 0l219 989h61l-35 -155q35 33 77 65.5t89 58t97.5 41t101.5 15.5q61 0 112.5 -14.5t89 -43t59 -73.5t21.5 -107q0 -16 -4 -41.5t-8 -44.5l-151 -690h-62l154 692q4 16 8 37t4 41q0 100 -66.5 144t-168.5 44q-51 0 -101.5 -16t-98.5 -42t-90 -60.5t-77 -71.5l-170 -768 h-61zM381 1147q12 55 32 105.5t47.5 87t64.5 59t80 22.5q59 0 85.5 -35.5t44 -79.5t39 -80t68.5 -36q51 0 90 51t68 168h55q-12 -55 -31.5 -105.5t-48 -87t-65.5 -59t-80 -22.5q-59 0 -86 35.5t-44.5 79.5t-39 80t-68.5 36q-51 0 -90 -51t-65 -168h-56z" />
<glyph unicode="&#xf2;" horiz-adv-x="1167" d="M104 406q0 119 41 228t113 193t169 135.5t212 51.5q94 0 172 -30t133 -86t85 -136t30 -178q0 -119 -41 -228.5t-112.5 -194.5t-169 -135.5t-212.5 -50.5q-94 0 -172 30t-133 86t-85 136t-30 179zM174 406q0 -170 92 -272.5t258 -102.5q100 0 185.5 47t148 124t97 177 t34.5 205q0 170 -92 272t-258 102q-100 0 -185 -47t-147.5 -123.5t-97.5 -177t-35 -204.5zM479 1434h92l262 -295h-61z" />
<glyph unicode="&#xf3;" horiz-adv-x="1167" d="M104 406q0 119 41 228t113 193t169 135.5t212 51.5q94 0 172 -30t133 -86t85 -136t30 -178q0 -119 -41 -228.5t-112.5 -194.5t-169 -135.5t-212.5 -50.5q-94 0 -172 30t-133 86t-85 136t-30 179zM174 406q0 -170 92 -272.5t258 -102.5q100 0 185.5 47t148 124t97 177 t34.5 205q0 170 -92 272t-258 102q-100 0 -185 -47t-147.5 -123.5t-97.5 -177t-35 -204.5zM616 1139l393 295h97l-424 -295h-66z" />
<glyph unicode="&#xf4;" horiz-adv-x="1167" d="M104 406q0 119 41 228t113 193t169 135.5t212 51.5q94 0 172 -30t133 -86t85 -136t30 -178q0 -119 -41 -228.5t-112.5 -194.5t-169 -135.5t-212.5 -50.5q-94 0 -172 30t-133 86t-85 136t-30 179zM174 406q0 -170 92 -272.5t258 -102.5q100 0 185.5 47t148 124t97 177 t34.5 205q0 170 -92 272t-258 102q-100 0 -185 -47t-147.5 -123.5t-97.5 -177t-35 -204.5zM487 1139l267 295h73l142 -295h-54l-133 245l-233 -245h-62z" />
<glyph unicode="&#xf5;" horiz-adv-x="1167" d="M104 406q0 119 41 228t113 193t169 135.5t212 51.5q94 0 172 -30t133 -86t85 -136t30 -178q0 -119 -41 -228.5t-112.5 -194.5t-169 -135.5t-212.5 -50.5q-94 0 -172 30t-133 86t-85 136t-30 179zM174 406q0 -170 92 -272.5t258 -102.5q100 0 185.5 47t148 124t97 177 t34.5 205q0 170 -92 272t-258 102q-100 0 -185 -47t-147.5 -123.5t-97.5 -177t-35 -204.5zM422 1147q12 55 32 105.5t47.5 87t64.5 59t80 22.5q59 0 85.5 -35.5t44 -79.5t39 -80t68.5 -36q51 0 90 51t68 168h55q-12 -55 -31.5 -105.5t-48 -87t-65.5 -59t-80 -22.5 q-59 0 -86 35.5t-44.5 79.5t-39 80t-68.5 36q-51 0 -90 -51t-65 -168h-56z" />
<glyph unicode="&#xf6;" horiz-adv-x="1167" d="M104 406q0 119 41 228t113 193t169 135.5t212 51.5q94 0 172 -30t133 -86t85 -136t30 -178q0 -119 -41 -228.5t-112.5 -194.5t-169 -135.5t-212.5 -50.5q-94 0 -172 30t-133 86t-85 136t-30 179zM174 406q0 -170 92 -272.5t258 -102.5q100 0 185.5 47t148 124t97 177 t34.5 205q0 170 -92 272t-258 102q-100 0 -185 -47t-147.5 -123.5t-97.5 -177t-35 -204.5zM484 1219q0 27 18 45t45 18q23 0 37 -14t14 -37q0 -27 -18.5 -45.5t-44.5 -18.5q-23 0 -37 14.5t-14 37.5zM897 1219q0 27 18.5 45t45.5 18q23 0 37 -14t14 -37q0 -27 -18.5 -45.5 t-45.5 -18.5q-23 0 -37 14.5t-14 37.5z" />
<glyph unicode="&#xf7;" horiz-adv-x="1046" d="M94 659l15 62h927l-14 -62h-928zM406 268q0 31 21.5 51.5t51.5 20.5q27 0 44.5 -17.5t17.5 -43.5q0 -31 -21.5 -51.5t-52.5 -20.5q-27 0 -44 17.5t-17 43.5zM588 1092q0 31 21.5 51t52.5 20q27 0 44 -17.5t17 -43.5q0 -31 -21.5 -51.5t-52.5 -20.5q-27 0 -44 17.5 t-17 44.5z" />
<glyph unicode="&#xf8;" horiz-adv-x="1167" d="M59 0l127 131q-82 106 -82 275q0 119 41 228t113 193t169 135.5t212 51.5q92 0 166 -28t127 -79l80 82h71l-114 -121q43 -53 66.5 -125.5t23.5 -158.5q0 -119 -41 -228.5t-112.5 -194.5t-169 -135.5t-212.5 -50.5q-190 0 -305 115l-86 -90h-74zM174 406q0 -135 57 -228 l658 684q-92 96 -250 96q-100 0 -185 -47t-147.5 -123.5t-97.5 -177t-35 -204.5zM262 135q94 -104 262 -104q100 0 185.5 47t148 124t97 177t34.5 205q0 141 -67 237z" />
<glyph unicode="&#xf9;" d="M121 213q0 16 4 42t8 44l152 690h61l-153 -692q-4 -16 -8.5 -36.5t-4.5 -41.5q0 -100 66.5 -144t169.5 -44q51 0 101 16t98.5 42t90.5 60.5t76 71.5l170 768h62l-219 -989h-62l35 156q-35 -35 -77 -67t-89 -57.5t-97 -41t-102 -15.5q-61 0 -112 14.5t-89 43t-59.5 74 t-21.5 106.5zM432 1434h92l262 -295h-61z" />
<glyph unicode="&#xfa;" d="M121 213q0 16 4 42t8 44l152 690h61l-153 -692q-4 -16 -8.5 -36.5t-4.5 -41.5q0 -100 66.5 -144t169.5 -44q51 0 101 16t98.5 42t90.5 60.5t76 71.5l170 768h62l-219 -989h-62l35 156q-35 -35 -77 -67t-89 -57.5t-97 -41t-102 -15.5q-61 0 -112 14.5t-89 43t-59.5 74 t-21.5 106.5zM571 1139l393 295h97l-424 -295h-66z" />
<glyph unicode="&#xfb;" d="M121 213q0 16 4 42t8 44l152 690h61l-153 -692q-4 -16 -8.5 -36.5t-4.5 -41.5q0 -100 66.5 -144t169.5 -44q51 0 101 16t98.5 42t90.5 60.5t76 71.5l170 768h62l-219 -989h-62l35 156q-35 -35 -77 -67t-89 -57.5t-97 -41t-102 -15.5q-61 0 -112 14.5t-89 43t-59.5 74 t-21.5 106.5zM440 1139l267 295h73l142 -295h-54l-133 245l-233 -245h-62z" />
<glyph unicode="&#xfc;" d="M121 213q0 16 4 42t8 44l152 690h61l-153 -692q-4 -16 -8.5 -36.5t-4.5 -41.5q0 -100 66.5 -144t169.5 -44q51 0 101 16t98.5 42t90.5 60.5t76 71.5l170 768h62l-219 -989h-62l35 156q-35 -35 -77 -67t-89 -57.5t-97 -41t-102 -15.5q-61 0 -112 14.5t-89 43t-59.5 74 t-21.5 106.5zM435 1219q0 27 18 45t45 18q23 0 37 -14t14 -37q0 -27 -18.5 -45.5t-44.5 -18.5q-23 0 -37 14.5t-14 37.5zM848 1219q0 27 18.5 45t45.5 18q23 0 37 -14t14 -37q0 -27 -18.5 -45.5t-45.5 -18.5q-23 0 -37 14.5t-14 37.5z" />
<glyph unicode="&#xfd;" horiz-adv-x="964" d="M-92 -381l26 64q16 -8 41 -13.5t54 -5.5q41 0 78.5 25.5t87.5 99.5l135 205l-199 995h68l184 -917l592 917h76l-797 -1222q-53 -80 -112.5 -124t-133.5 -44q-55 0 -100 20zM508 1139l393 295h97l-424 -295h-66z" />
<glyph unicode="&#xfe;" horiz-adv-x="1150" d="M-18 -377l385 1743h61l-117 -535q59 80 150.5 131.5t202.5 51.5q86 0 156.5 -28t122.5 -80t81 -128t29 -170q0 -129 -38 -243.5t-106.5 -200.5t-163.5 -137.5t-210 -51.5q-129 0 -223.5 57.5t-145.5 145.5l-123 -555h-61zM178 231q39 -82 131.5 -141t225.5 -59 q102 0 185 49t141.5 129t90 182.5t31.5 208.5q0 166 -88 262t-236 96q-57 0 -111 -17t-102.5 -47t-88.5 -68t-66 -81z" />
<glyph unicode="&#xff;" horiz-adv-x="964" d="M-92 -381l26 64q16 -8 41 -13.5t54 -5.5q41 0 78.5 25.5t87.5 99.5l135 205l-199 995h68l184 -917l592 917h76l-797 -1222q-53 -80 -112.5 -124t-133.5 -44q-55 0 -100 20zM373 1219q0 27 18 45t45 18q23 0 37 -14t14 -37q0 -27 -18.5 -45.5t-44.5 -18.5q-23 0 -37 14.5 t-14 37.5zM786 1219q0 27 18.5 45t45.5 18q23 0 37 -14t14 -37q0 -27 -18.5 -45.5t-45.5 -18.5q-23 0 -37 14.5t-14 37.5z" />
<glyph unicode="&#x100;" horiz-adv-x="1302" d="M-68 0l871 1366h78l268 -1366h-72l-71 367h-762l-232 -367h-80zM283 428h712l-166 862zM508 1532l12 55h741l-12 -55h-741z" />
<glyph unicode="&#x101;" horiz-adv-x="1159" d="M104 381q0 129 38 243.5t106.5 200.5t164 137.5t210.5 51.5q129 0 223 -57.5t145 -145.5l39 178h62l-220 -989h-61l35 158q-59 -80 -150.5 -131.5t-201.5 -51.5q-86 0 -157 28t-123 80t-81 127t-29 171zM174 389q0 -166 88 -262t236 -96q57 0 111.5 17.5t102.5 47 t87 67.5t67 81l113 514q-39 82 -131 141t-225 59q-102 0 -185.5 -49t-141.5 -129t-90 -182t-32 -209zM347 1190l12 55h741l-12 -55h-741z" />
<glyph unicode="&#x102;" horiz-adv-x="1302" d="M-68 0l871 1366h78l268 -1366h-72l-71 367h-762l-232 -367h-80zM283 428h712l-166 862zM528 1636l47 39q39 -76 110.5 -120t172.5 -44q100 0 191 44t161 120l37 -39q-80 -84 -183.5 -132t-213.5 -48q-111 0 -194 48t-128 132z" />
<glyph unicode="&#x103;" horiz-adv-x="1159" d="M104 381q0 129 38 243.5t106.5 200.5t164 137.5t210.5 51.5q129 0 223 -57.5t145 -145.5l39 178h62l-220 -989h-61l35 158q-59 -80 -150.5 -131.5t-201.5 -51.5q-86 0 -157 28t-123 80t-81 127t-29 171zM174 389q0 -166 88 -262t236 -96q57 0 111.5 17.5t102.5 47 t87 67.5t67 81l113 514q-39 82 -131 141t-225 59q-102 0 -185.5 -49t-141.5 -129t-90 -182t-32 -209zM364 1294l47 39q39 -76 110.5 -120t172.5 -44q100 0 191 44t161 120l37 -39q-80 -84 -183.5 -132t-213.5 -48q-111 0 -194 48t-128 132z" />
<glyph unicode="&#x104;" horiz-adv-x="1302" d="M-68 0l871 1366h78l268 -1366q-98 -41 -159.5 -97.5t-61.5 -133.5q0 -47 27.5 -71t74.5 -24q80 0 127 95l43 -27q-27 -47 -68.5 -85t-111.5 -38q-66 0 -107 36t-41 103q0 90 56.5 152.5t144.5 107.5l-67 349h-762l-232 -367h-80zM283 428h712l-166 862z" />
<glyph unicode="&#x105;" horiz-adv-x="1159" d="M104 381q0 129 38 243.5t106.5 200.5t164 137.5t210.5 51.5q129 0 223 -57.5t145 -145.5l39 178h62l-220 -989q-98 -41 -159.5 -97.5t-61.5 -133.5q0 -47 28 -71t75 -24q80 0 127 95l43 -27q-27 -47 -69 -85t-112 -38q-66 0 -106.5 36t-40.5 103q0 94 61.5 159t159.5 112 l29 129q-59 -80 -150.5 -131.5t-201.5 -51.5q-86 0 -157 28t-123 80t-81 127t-29 171zM174 389q0 -166 88 -262t236 -96q57 0 111.5 17.5t102.5 47t87 67.5t67 81l113 514q-39 82 -131 141t-225 59q-102 0 -185.5 -49t-141.5 -129t-90 -182t-32 -209z" />
<glyph unicode="&#x106;" horiz-adv-x="1366" d="M152 561q0 188 64.5 341t168.5 261.5t238.5 167t273.5 58.5q160 0 296 -63.5t220 -201.5l-61 -39q-80 133 -202 187.5t-259 54.5q-123 0 -242 -52t-213 -151.5t-152.5 -242t-58.5 -320.5q0 -119 37 -216t105.5 -165.5t166 -105.5t218.5 -37q104 0 203.5 36t201.5 120 l41 -48q-100 -86 -214.5 -128t-235.5 -42q-133 0 -243 42t-187.5 119t-121.5 184.5t-44 240.5zM893 1491l393 295h97l-424 -295h-66z" />
<glyph unicode="&#x107;" horiz-adv-x="1009" d="M104 410q0 123 42 232.5t115 192.5t171 131t213 48q238 0 342 -176l-49 -35q-47 82 -124 118.5t-163 36.5q-113 0 -202 -47t-150 -124.5t-94 -177t-33 -206.5q0 -92 27.5 -162.5t77 -116.5t116 -69.5t144.5 -23.5q90 0 162.5 37.5t123.5 97.5l39 -43q-68 -70 -146 -109 t-184 -39q-90 0 -168.5 28t-136 83t-90.5 136t-33 188zM626 1139l393 295h97l-424 -295h-66z" />
<glyph unicode="&#x108;" horiz-adv-x="1366" d="M152 561q0 188 64.5 341t168.5 261.5t238.5 167t273.5 58.5q160 0 296 -63.5t220 -201.5l-61 -39q-80 133 -202 187.5t-259 54.5q-123 0 -242 -52t-213 -151.5t-152.5 -242t-58.5 -320.5q0 -119 37 -216t105.5 -165.5t166 -105.5t218.5 -37q104 0 203.5 36t201.5 120 l41 -48q-100 -86 -214.5 -128t-235.5 -42q-133 0 -243 42t-187.5 119t-121.5 184.5t-44 240.5zM759 1481l267 295h73l142 -295h-54l-133 245l-233 -245h-62z" />
<glyph unicode="&#x109;" horiz-adv-x="1009" d="M104 410q0 123 42 232.5t115 192.5t171 131t213 48q238 0 342 -176l-49 -35q-47 82 -124 118.5t-163 36.5q-113 0 -202 -47t-150 -124.5t-94 -177t-33 -206.5q0 -92 27.5 -162.5t77 -116.5t116 -69.5t144.5 -23.5q90 0 162.5 37.5t123.5 97.5l39 -43q-68 -70 -146 -109 t-184 -39q-90 0 -168.5 28t-136 83t-90.5 136t-33 188zM495 1139l267 295h73l142 -295h-54l-133 245l-233 -245h-62z" />
<glyph unicode="&#x10a;" horiz-adv-x="1366" d="M152 561q0 188 64.5 341t168.5 261.5t238.5 167t273.5 58.5q160 0 296 -63.5t220 -201.5l-61 -39q-80 133 -202 187.5t-259 54.5q-123 0 -242 -52t-213 -151.5t-152.5 -242t-58.5 -320.5q0 -119 37 -216t105.5 -165.5t166 -105.5t218.5 -37q104 0 203.5 36t201.5 120 l41 -48q-100 -86 -214.5 -128t-235.5 -42q-133 0 -243 42t-187.5 119t-121.5 184.5t-44 240.5zM957 1554q0 27 18.5 46.5t46.5 19.5q23 0 38.5 -15t15.5 -38q0 -29 -19.5 -47.5t-46.5 -18.5q-23 0 -38 15.5t-15 37.5z" />
<glyph unicode="&#x10b;" horiz-adv-x="1009" d="M104 410q0 123 42 232.5t115 192.5t171 131t213 48q238 0 342 -176l-49 -35q-47 82 -124 118.5t-163 36.5q-113 0 -202 -47t-150 -124.5t-94 -177t-33 -206.5q0 -92 27.5 -162.5t77 -116.5t116 -69.5t144.5 -23.5q90 0 162.5 37.5t123.5 97.5l39 -43q-68 -70 -146 -109 t-184 -39q-90 0 -168.5 28t-136 83t-90.5 136t-33 188zM697 1212q0 27 18.5 46.5t46.5 19.5q23 0 38.5 -15t15.5 -38q0 -29 -19.5 -47.5t-46.5 -18.5q-23 0 -38 15.5t-15 37.5z" />
<glyph unicode="&#x10c;" horiz-adv-x="1366" d="M152 561q0 188 64.5 341t168.5 261.5t238.5 167t273.5 58.5q160 0 296 -63.5t220 -201.5l-61 -39q-80 133 -202 187.5t-259 54.5q-123 0 -242 -52t-213 -151.5t-152.5 -242t-58.5 -320.5q0 -119 37 -216t105.5 -165.5t166 -105.5t218.5 -37q104 0 203.5 36t201.5 120 l41 -48q-100 -86 -214.5 -128t-235.5 -42q-133 0 -243 42t-187.5 119t-121.5 184.5t-44 240.5zM828 1776h53l131 -246l236 246h61l-266 -295h-74z" />
<glyph unicode="&#x10d;" horiz-adv-x="1009" d="M104 410q0 123 42 232.5t115 192.5t171 131t213 48q238 0 342 -176l-49 -35q-47 82 -124 118.5t-163 36.5q-113 0 -202 -47t-150 -124.5t-94 -177t-33 -206.5q0 -92 27.5 -162.5t77 -116.5t116 -69.5t144.5 -23.5q90 0 162.5 37.5t123.5 97.5l39 -43q-68 -70 -146 -109 t-184 -39q-90 0 -168.5 28t-136 83t-90.5 136t-33 188zM559 1434h53l131 -246l236 246h61l-266 -295h-74z" />
<glyph unicode="&#x10e;" horiz-adv-x="1400" d="M70 0l301 1366h395q115 0 214 -44t173 -122t116 -183.5t42 -230.5q0 -143 -53.5 -284.5t-159 -253t-262 -180t-363.5 -68.5h-403zM147 61h324h12q174 0 314.5 58.5t239 158t151.5 231.5t53 277q0 113 -37 207t-102.5 164t-154.5 109t-193 39h-330zM758 1776h53l131 -246 l236 246h61l-266 -295h-74z" />
<glyph unicode="&#x10f;" horiz-adv-x="1239" d="M104 381q0 129 38 243.5t106.5 200.5t164 137.5t210.5 51.5q129 0 223 -57.5t145 -145.5l123 555h62l-304 -1366h-61l35 158q-59 -80 -150.5 -131.5t-201.5 -51.5q-86 0 -157 28t-123 80t-81 127t-29 171zM174 389q0 -166 88 -262t236 -96q57 0 111.5 17.5t102.5 47 t87 67.5t67 81l113 514q-39 82 -131 141t-225 59q-102 0 -185.5 -49t-141.5 -129t-90 -182t-32 -209zM1196 1090q57 31 97 78t50 94h-12q-23 0 -38 17.5t-15 39.5q0 31 21.5 52.5t49.5 21.5q29 0 47.5 -19.5t18.5 -58.5t-15.5 -79t-42 -74.5t-59.5 -64.5t-66 -48z" />
<glyph unicode="&#x110;" horiz-adv-x="1464" d="M57 653l15 62h219l143 651h395q115 0 214.5 -44t173 -122t115.5 -183.5t42 -230.5q0 -143 -53 -284.5t-158.5 -253t-262.5 -180t-363 -68.5h-404l143 653h-219zM211 61h336q174 0 314 58.5t238.5 158t152 231.5t53.5 277q0 113 -37 207t-102.5 164t-154.5 109t-194 39 h-330l-131 -590h383l-14 -62h-383z" />
<glyph unicode="&#x111;" horiz-adv-x="1165" d="M104 381q0 129 38 243.5t106.5 200.5t164 137.5t210.5 51.5q129 0 223 -57.5t145 -145.5l66 297h-379l10 55h381l45 203h62l-46 -203h113l-8 -55h-117l-246 -1108h-61l35 158q-59 -80 -150.5 -131.5t-201.5 -51.5q-86 0 -157 28t-123 80t-81 127t-29 171zM174 389 q0 -166 88 -262t236 -96q57 0 111.5 17.5t102.5 47t87 67.5t67 81l113 514q-39 82 -131 141t-225 59q-102 0 -185.5 -49t-141.5 -129t-90 -182t-32 -209z" />
<glyph unicode="&#x112;" horiz-adv-x="1142" d="M70 0l301 1366h835l-12 -61h-770l-127 -572h756l-15 -61h-755l-136 -611h771l-13 -61h-835zM451 1532l12 55h741l-12 -55h-741z" />
<glyph unicode="&#x113;" horiz-adv-x="1169" d="M104 410q0 125 43 234.5t117 191.5t172.5 130t210.5 48q100 0 177 -34t129.5 -91.5t79 -135t26.5 -163.5q0 -29 -5 -62.5t-10 -52.5h-866q-2 -10 -3 -29.5t-1 -35.5q0 -80 24.5 -150t74 -120t122 -79.5t168.5 -29.5q78 0 161 28.5t153 87.5l30 -45q-66 -53 -156 -90 t-188 -37q-111 0 -195.5 33t-143 90.5t-89.5 137t-31 174.5zM184 530h809q2 10 3 26.5t1 27.5q0 166 -94 270t-266 104q-82 0 -156.5 -34.5t-136 -93t-103.5 -136.5t-57 -164zM367 1190l12 55h741l-12 -55h-741z" />
<glyph unicode="&#x114;" horiz-adv-x="1142" d="M70 0l301 1366h835l-12 -61h-770l-127 -572h756l-15 -61h-755l-136 -611h771l-13 -61h-835zM473 1636l47 39q39 -76 110.5 -120t172.5 -44q100 0 191 44t161 120l37 -39q-80 -84 -183.5 -132t-213.5 -48q-111 0 -194 48t-128 132z" />
<glyph unicode="&#x115;" horiz-adv-x="1169" d="M104 410q0 125 43 234.5t117 191.5t172.5 130t210.5 48q100 0 177 -34t129.5 -91.5t79 -135t26.5 -163.5q0 -29 -5 -62.5t-10 -52.5h-866q-2 -10 -3 -29.5t-1 -35.5q0 -80 24.5 -150t74 -120t122 -79.5t168.5 -29.5q78 0 161 28.5t153 87.5l30 -45q-66 -53 -156 -90 t-188 -37q-111 0 -195.5 33t-143 90.5t-89.5 137t-31 174.5zM184 530h809q2 10 3 26.5t1 27.5q0 166 -94 270t-266 104q-82 0 -156.5 -34.5t-136 -93t-103.5 -136.5t-57 -164zM385 1294l47 39q39 -76 110.5 -120t172.5 -44q100 0 191 44t161 120l37 -39q-80 -84 -183.5 -132 t-213.5 -48q-111 0 -194 48t-128 132z" />
<glyph unicode="&#x116;" horiz-adv-x="1142" d="M70 0l301 1366h835l-12 -61h-770l-127 -572h756l-15 -61h-755l-136 -611h771l-13 -61h-835zM770 1554q0 27 18.5 46.5t46.5 19.5q23 0 38.5 -15t15.5 -38q0 -29 -19.5 -47.5t-46.5 -18.5q-23 0 -38 15.5t-15 37.5z" />
<glyph unicode="&#x117;" horiz-adv-x="1169" d="M104 410q0 125 43 234.5t117 191.5t172.5 130t210.5 48q100 0 177 -34t129.5 -91.5t79 -135t26.5 -163.5q0 -29 -5 -62.5t-10 -52.5h-866q-2 -10 -3 -29.5t-1 -35.5q0 -80 24.5 -150t74 -120t122 -79.5t168.5 -29.5q78 0 161 28.5t153 87.5l30 -45q-66 -53 -156 -90 t-188 -37q-111 0 -195.5 33t-143 90.5t-89.5 137t-31 174.5zM184 530h809q2 10 3 26.5t1 27.5q0 166 -94 270t-266 104q-82 0 -156.5 -34.5t-136 -93t-103.5 -136.5t-57 -164zM684 1212q0 27 18.5 46.5t46.5 19.5q23 0 38.5 -15t15.5 -38q0 -29 -19.5 -47.5t-46.5 -18.5 q-23 0 -38 15.5t-15 37.5z" />
<glyph unicode="&#x118;" horiz-adv-x="1142" d="M70 0l301 1366h835l-12 -61h-770l-127 -572h756l-15 -61h-755l-136 -611h771l-13 -61q-98 -41 -159.5 -97.5t-61.5 -133.5q0 -47 27.5 -71t74.5 -24q80 0 127 95l43 -27q-27 -47 -68.5 -85t-111.5 -38q-66 0 -106.5 36t-40.5 103q0 80 46 139.5t122 102.5h-727z" />
<glyph unicode="&#x119;" horiz-adv-x="1169" d="M104 410q0 125 43 234.5t117 191.5t172.5 130t210.5 48q100 0 177 -34t129.5 -91.5t79 -135t26.5 -163.5q0 -29 -5 -62.5t-10 -52.5h-866q-2 -10 -3 -29.5t-1 -35.5q0 -80 24.5 -150t74 -120t122 -79.5t168.5 -29.5q78 0 161 28.5t153 87.5l30 -45q-41 -33 -89 -59.5 t-103 -42.5q-98 -41 -159.5 -97.5t-61.5 -133.5q0 -47 27.5 -71t74.5 -24q80 0 127 95l43 -27q-27 -47 -69 -85t-111 -38q-66 0 -107 36t-41 103q0 70 35 123t94 94h-4q-111 0 -195.5 33t-143 90.5t-89.5 137t-31 174.5zM184 530h809q2 10 3 26.5t1 27.5q0 166 -94 270 t-266 104q-82 0 -156.5 -34.5t-136 -93t-103.5 -136.5t-57 -164z" />
<glyph unicode="&#x11a;" horiz-adv-x="1142" d="M70 0l301 1366h835l-12 -61h-770l-127 -572h756l-15 -61h-755l-136 -611h771l-13 -61h-835zM639 1776h53l131 -246l236 246h61l-266 -295h-74z" />
<glyph unicode="&#x11b;" horiz-adv-x="1169" d="M104 410q0 125 43 234.5t117 191.5t172.5 130t210.5 48q100 0 177 -34t129.5 -91.5t79 -135t26.5 -163.5q0 -29 -5 -62.5t-10 -52.5h-866q-2 -10 -3 -29.5t-1 -35.5q0 -80 24.5 -150t74 -120t122 -79.5t168.5 -29.5q78 0 161 28.5t153 87.5l30 -45q-66 -53 -156 -90 t-188 -37q-111 0 -195.5 33t-143 90.5t-89.5 137t-31 174.5zM184 530h809q2 10 3 26.5t1 27.5q0 166 -94 270t-266 104q-82 0 -156.5 -34.5t-136 -93t-103.5 -136.5t-57 -164zM553 1434h53l131 -246l236 246h61l-266 -295h-74z" />
<glyph unicode="&#x11c;" horiz-adv-x="1449" d="M152 561q0 180 61 333t164.5 262.5t238 171t281.5 61.5q174 0 305 -68t211 -197l-55 -34q-72 123 -196 180t-271 57q-129 0 -249 -56.5t-212 -157.5t-148.5 -242.5t-56.5 -309.5q0 -123 38 -220t106.5 -164.5t166 -103.5t216.5 -36q145 0 252.5 55t181.5 125l84 377h-563 l12 61h629l-105 -475q-111 -98 -233.5 -151.5t-261.5 -53.5t-250 45.5t-188 123t-117.5 185t-40.5 232.5zM759 1481l267 295h73l142 -295h-54l-133 245l-233 -245h-62z" />
<glyph unicode="&#x11d;" horiz-adv-x="1159" d="M23 -236l53 48q53 -84 141 -121t217 -37q63 0 121.5 18.5t108 59.5t87 105.5t58.5 156.5l35 164q-61 -80 -154.5 -131.5t-210.5 -51.5q-80 0 -148.5 26t-119.5 78t-80 130t-29 182q0 121 36 233.5t103.5 198.5t163 138.5t213.5 52.5q55 0 109.5 -15.5t104 -43t89.5 -64.5 t68 -80l41 178h62l-222 -995q-25 -106 -65.5 -181t-96 -123t-125 -69.5t-149.5 -21.5q-135 0 -237.5 33.5t-173.5 131.5zM170 393q0 -172 87.5 -267t234.5 -95q51 0 104 16t101 43t90 62.5t73 74.5l119 531q-25 45 -62.5 82t-87 63.5t-104.5 40.5t-113 14q-104 0 -186 -50 t-138.5 -131t-87 -182t-30.5 -202zM452 1131l267 295h73l142 -295h-54l-133 245l-233 -245h-62z" />
<glyph unicode="&#x11e;" horiz-adv-x="1449" d="M152 561q0 180 61 333t164.5 262.5t238 171t281.5 61.5q174 0 305 -68t211 -197l-55 -34q-72 123 -196 180t-271 57q-129 0 -249 -56.5t-212 -157.5t-148.5 -242.5t-56.5 -309.5q0 -123 38 -220t106.5 -164.5t166 -103.5t216.5 -36q145 0 252.5 55t181.5 125l84 377h-563 l12 61h629l-105 -475q-111 -98 -233.5 -151.5t-261.5 -53.5t-250 45.5t-188 123t-117.5 185t-40.5 232.5zM661 1636l47 39q39 -76 110.5 -120t172.5 -44q100 0 191 44t161 120l37 -39q-80 -84 -183.5 -132t-213.5 -48q-111 0 -194 48t-128 132z" />
<glyph unicode="&#x11f;" horiz-adv-x="1159" d="M23 -236l53 48q53 -84 141 -121t217 -37q63 0 121.5 18.5t108 59.5t87 105.5t58.5 156.5l35 164q-61 -80 -154.5 -131.5t-210.5 -51.5q-80 0 -148.5 26t-119.5 78t-80 130t-29 182q0 121 36 233.5t103.5 198.5t163 138.5t213.5 52.5q55 0 109.5 -15.5t104 -43t89.5 -64.5 t68 -80l41 178h62l-222 -995q-25 -106 -65.5 -181t-96 -123t-125 -69.5t-149.5 -21.5q-135 0 -237.5 33.5t-173.5 131.5zM170 393q0 -172 87.5 -267t234.5 -95q51 0 104 16t101 43t90 62.5t73 74.5l119 531q-25 45 -62.5 82t-87 63.5t-104.5 40.5t-113 14q-104 0 -186 -50 t-138.5 -131t-87 -182t-30.5 -202zM356 1294l47 39q39 -76 110.5 -120t172.5 -44q100 0 191 44t161 120l37 -39q-80 -84 -183.5 -132t-213.5 -48q-111 0 -194 48t-128 132z" />
<glyph unicode="&#x120;" horiz-adv-x="1449" d="M152 561q0 180 61 333t164.5 262.5t238 171t281.5 61.5q174 0 305 -68t211 -197l-55 -34q-72 123 -196 180t-271 57q-129 0 -249 -56.5t-212 -157.5t-148.5 -242.5t-56.5 -309.5q0 -123 38 -220t106.5 -164.5t166 -103.5t216.5 -36q145 0 252.5 55t181.5 125l84 377h-563 l12 61h629l-105 -475q-111 -98 -233.5 -151.5t-261.5 -53.5t-250 45.5t-188 123t-117.5 185t-40.5 232.5zM957 1554q0 27 18.5 46.5t46.5 19.5q23 0 38.5 -15t15.5 -38q0 -29 -19.5 -47.5t-46.5 -18.5q-23 0 -38 15.5t-15 37.5z" />
<glyph unicode="&#x121;" horiz-adv-x="1159" d="M23 -236l53 48q53 -84 141 -121t217 -37q63 0 121.5 18.5t108 59.5t87 105.5t58.5 156.5l35 164q-61 -80 -154.5 -131.5t-210.5 -51.5q-80 0 -148.5 26t-119.5 78t-80 130t-29 182q0 121 36 233.5t103.5 198.5t163 138.5t213.5 52.5q55 0 109.5 -15.5t104 -43t89.5 -64.5 t68 -80l41 178h62l-222 -995q-25 -106 -65.5 -181t-96 -123t-125 -69.5t-149.5 -21.5q-135 0 -237.5 33.5t-173.5 131.5zM170 393q0 -172 87.5 -267t234.5 -95q51 0 104 16t101 43t90 62.5t73 74.5l119 531q-25 45 -62.5 82t-87 63.5t-104.5 40.5t-113 14q-104 0 -186 -50 t-138.5 -131t-87 -182t-30.5 -202zM656 1212q0 27 18.5 46.5t46.5 19.5q23 0 38.5 -15t15.5 -38q0 -29 -19.5 -47.5t-46.5 -18.5q-23 0 -38 15.5t-15 37.5z" />
<glyph unicode="&#x122;" horiz-adv-x="1449" d="M152 561q0 180 61 333t164.5 262.5t238 171t281.5 61.5q174 0 305 -68t211 -197l-55 -34q-72 123 -196 180t-271 57q-129 0 -249 -56.5t-212 -157.5t-148.5 -242.5t-56.5 -309.5q0 -123 38 -220t106.5 -164.5t166 -103.5t216.5 -36q145 0 252.5 55t181.5 125l84 377h-563 l12 61h629l-105 -475q-111 -98 -233.5 -151.5t-261.5 -53.5t-250 45.5t-188 123t-117.5 185t-40.5 232.5zM467 -475q57 31 97 78t50 94h-12q-23 0 -38 17.5t-15 39.5q0 31 21.5 52.5t49.5 21.5q29 0 47.5 -19.5t18.5 -58.5t-15.5 -79t-42 -74.5t-59.5 -64.5t-66 -48z" />
<glyph unicode="&#x123;" horiz-adv-x="1159" d="M23 -236l53 48q53 -84 141 -121t217 -37q63 0 121.5 18.5t108 59.5t87 105.5t58.5 156.5l35 164q-61 -80 -154.5 -131.5t-210.5 -51.5q-80 0 -148.5 26t-119.5 78t-80 130t-29 182q0 121 36 233.5t103.5 198.5t163 138.5t213.5 52.5q55 0 109.5 -15.5t104 -43t89.5 -64.5 t68 -80l41 178h62l-222 -995q-25 -106 -65.5 -181t-96 -123t-125 -69.5t-149.5 -21.5q-135 0 -237.5 33.5t-173.5 131.5zM170 393q0 -172 87.5 -267t234.5 -95q51 0 104 16t101 43t90 62.5t73 74.5l119 531q-25 45 -62.5 82t-87 63.5t-104.5 40.5t-113 14q-104 0 -186 -50 t-138.5 -131t-87 -182t-30.5 -202zM657 1235q0 39 15.5 79t42 74.5t58.5 64.5t67 48l37 -41q-57 -31 -97.5 -78t-50.5 -94h12q23 0 38.5 -17.5t15.5 -39.5q0 -31 -21.5 -52.5t-50.5 -21.5t-47.5 19.5t-18.5 58.5z" />
<glyph unicode="&#x124;" horiz-adv-x="1423" d="M70 0l301 1366h65l-139 -633h932l139 633h66l-301 -1366h-66l147 672h-931l-148 -672h-65zM686 1481l267 295h73l142 -295h-54l-133 245l-233 -245h-62z" />
<glyph unicode="&#x125;" d="M66 0l301 1366h61l-117 -532q35 33 77 65.5t89 58t97.5 41t101.5 15.5q61 0 112.5 -14.5t89 -43t59 -73.5t21.5 -107q0 -12 -4 -40.5t-8 -45.5l-151 -690h-62l154 694q4 14 8 38t4 38q0 100 -66.5 144t-168.5 44q-51 0 -101.5 -16t-98.5 -43t-90 -61.5t-77 -71.5 l-170 -766h-61zM524 1481l267 295h73l142 -295h-54l-133 245l-233 -245h-62z" />
<glyph unicode="&#x126;" horiz-adv-x="1468" d="M94 0l225 1026h-178l13 55h178l63 285h66l-64 -285h932l64 285h65l-63 -285h174l-13 -55h-174l-225 -1026h-65l147 672h-932l-147 -672h-66zM322 733h931l64 293h-932z" />
<glyph unicode="&#x127;" horiz-adv-x="1085" d="M70 0l243 1108h-155l12 55h156l45 203h61l-45 -203h340l-12 -55h-340l-60 -274q35 33 77 65.5t89 58t97.5 41t101.5 15.5q61 0 112.5 -14.5t89.5 -43t59.5 -73.5t21.5 -107q0 -12 -4.5 -40.5t-8.5 -45.5l-151 -690h-62l154 694q4 14 8 38t4 38q0 100 -66.5 144t-168.5 44 q-51 0 -101.5 -16t-98.5 -43t-90 -61.5t-77 -71.5l-170 -766h-61z" />
<glyph unicode="&#x128;" horiz-adv-x="425" d="M70 0l301 1366h65l-301 -1366h-65zM127 1489q12 55 32 105.5t47.5 87t64.5 59t80 22.5q59 0 85.5 -35.5t44 -79.5t39 -80t68.5 -36q51 0 90 51t68 168h55q-12 -55 -31.5 -105.5t-48 -87t-65.5 -59t-80 -22.5q-59 0 -86 35.5t-44.5 79.5t-39 80t-68.5 36q-51 0 -90 -51 t-65 -168h-56z" />
<glyph unicode="&#x129;" horiz-adv-x="413" d="M45 1147q12 55 32 105.5t47.5 87t64.5 59t80 22.5q59 0 85.5 -35.5t44 -79.5t39 -80t68.5 -36q51 0 90 51t68 168h55q-12 -55 -31.5 -105.5t-48 -87t-65.5 -59t-80 -22.5q-59 0 -86 35.5t-44.5 79.5t-39 80t-68.5 36q-51 0 -90 -51t-65 -168h-56zM66 0l219 989h61 l-219 -989h-61z" />
<glyph unicode="&#x12a;" horiz-adv-x="425" d="M70 0l301 1366h65l-301 -1366h-65zM72 1532l12 55h741l-12 -55h-741z" />
<glyph unicode="&#x12b;" horiz-adv-x="413" d="M-8 1190l12 55h741l-12 -55h-741zM66 0l219 989h61l-219 -989h-61z" />
<glyph unicode="&#x12c;" horiz-adv-x="425" d="M70 0l301 1366h65l-301 -1366h-65zM92 1636l47 39q39 -76 110.5 -120t172.5 -44q100 0 191 44t161 120l37 -39q-80 -84 -183.5 -132t-213.5 -48q-111 0 -194 48t-128 132z" />
<glyph unicode="&#x12d;" horiz-adv-x="413" d="M12 1294l47 39q39 -76 110.5 -120t172.5 -44q100 0 191 44t161 120l37 -39q-80 -84 -183.5 -132t-213.5 -48q-111 0 -194 48t-128 132zM66 0l219 989h61l-219 -989h-61z" />
<glyph unicode="&#x12e;" horiz-adv-x="425" d="M-141 -242q0 92 61.5 158t155.5 111l295 1339h65l-301 -1366q-98 -41 -159.5 -97.5t-61.5 -133.5q0 -47 27.5 -71t74.5 -24q80 0 127 95l43 -27q-27 -47 -68.5 -85t-111.5 -38q-66 0 -106.5 36t-40.5 103z" />
<glyph unicode="&#x12f;" horiz-adv-x="413" d="M-150 -242q0 94 62.5 159t159.5 112l213 960h61l-219 -989q-98 -41 -159.5 -97.5t-61.5 -133.5q0 -47 27.5 -71t74.5 -24q80 0 127 95l43 -27q-27 -47 -68.5 -85t-111.5 -38q-66 0 -107 36t-41 103zM303 1212q0 29 22.5 47.5t45.5 18.5t39 -15.5t16 -37.5 q0 -29 -22.5 -47.5t-45.5 -18.5t-39 15.5t-16 37.5z" />
<glyph unicode="&#x130;" horiz-adv-x="425" d="M70 0l301 1366h65l-301 -1366h-65zM387 1554q0 27 18.5 46.5t46.5 19.5q23 0 38.5 -15t15.5 -38q0 -29 -19.5 -47.5t-46.5 -18.5q-23 0 -38 15.5t-15 37.5z" />
<glyph unicode="&#x131;" horiz-adv-x="413" d="M66 0l219 989h61l-219 -989h-61z" />
<glyph unicode="&#x132;" horiz-adv-x="1378" d="M70 0l301 1366h65l-301 -1366h-65zM393 164l56 41q41 -80 113.5 -124t176.5 -44q152 0 242 95t125 247l217 987h66l-218 -987q-47 -205 -159.5 -304.5t-272.5 -99.5q-117 0 -208 48.5t-138 140.5z" />
<glyph unicode="&#x133;" horiz-adv-x="827" d="M47 -313l43 45q23 -33 65 -55.5t89 -22.5q76 0 127 44t74 146l254 1145h61l-254 -1145q-29 -129 -90.5 -187t-165.5 -58q-61 0 -115.5 21.5t-87.5 66.5zM66 0l219 989h61l-219 -989h-61zM303 1212q0 29 22.5 47.5t45.5 18.5t39 -15.5t16 -37.5q0 -29 -22.5 -47.5 t-45.5 -18.5t-39 15.5t-16 37.5zM717 1212q0 29 22.5 47.5t45.5 18.5t39 -15.5t16 -37.5q0 -29 -22.5 -47.5t-45.5 -18.5t-39 15.5t-16 37.5z" />
<glyph unicode="&#x134;" horiz-adv-x="952" d="M-33 164l56 41q41 -80 113.5 -124t176.5 -44q152 0 242 95t125 247l217 987h66l-218 -987q-47 -205 -159.5 -304.5t-272.5 -99.5q-117 0 -208 48.5t-138 140.5zM719 1481l267 295h73l142 -295h-54l-133 245l-233 -245h-62z" />
<glyph unicode="&#x135;" horiz-adv-x="413" d="M-367 -313l43 45q23 -33 65 -55.5t89 -22.5q76 0 127 44t74 146l254 1145h61l-254 -1145q-29 -129 -90.5 -187t-165.5 -58q-61 0 -115.5 21.5t-87.5 66.5zM112 1139l267 295h73l142 -295h-54l-133 245l-233 -245h-62z" />
<glyph unicode="&#x136;" horiz-adv-x="1169" d="M70 0l301 1366h65l-172 -778l877 778h94l-737 -653l497 -713h-80l-462 678l-209 -184l-109 -494h-65zM293 -475q57 31 97 78t50 94h-12q-23 0 -38 17.5t-15 39.5q0 31 21.5 52.5t49.5 21.5q29 0 47.5 -19.5t18.5 -58.5t-15.5 -79t-42 -74.5t-59.5 -64.5t-66 -48z" />
<glyph unicode="&#x137;" horiz-adv-x="1015" d="M66 0l301 1366h61l-215 -973l772 596h94l-581 -446l356 -543h-76l-329 504l-254 -195l-68 -309h-61zM228 -475q57 31 97 78t50 94h-12q-23 0 -38 17.5t-15 39.5q0 31 21.5 52.5t49.5 21.5q29 0 47.5 -19.5t18.5 -58.5t-15.5 -79t-42 -74.5t-59.5 -64.5t-66 -48z" />
<glyph unicode="&#x138;" horiz-adv-x="1015" d="M66 0l219 989h61l-133 -596l772 596h94l-581 -446l356 -543h-76l-329 504l-254 -195l-68 -309h-61z" />
<glyph unicode="&#x139;" horiz-adv-x="1058" d="M70 0l301 1366h65l-289 -1305h687l-13 -61h-751zM665 1481l393 295h97l-424 -295h-66z" />
<glyph unicode="&#x13a;" horiz-adv-x="413" d="M66 0l301 1366h61l-301 -1366h-61zM315 1481l393 295h97l-424 -295h-66z" />
<glyph unicode="&#x13b;" horiz-adv-x="1058" d="M70 0l301 1366h65l-289 -1305h687l-13 -61h-751zM226 -475q57 31 97 78t50 94h-12q-23 0 -38 17.5t-15 39.5q0 31 21.5 52.5t49.5 21.5q29 0 47.5 -19.5t18.5 -58.5t-15.5 -79t-42 -74.5t-59.5 -64.5t-66 -48z" />
<glyph unicode="&#x13c;" horiz-adv-x="413" d="M-106 -475q57 31 97 78t50 94h-12q-23 0 -38 17.5t-15 39.5q0 31 21.5 52.5t49.5 21.5q29 0 47.5 -19.5t18.5 -58.5t-15.5 -79t-42 -74.5t-59.5 -64.5t-66 -48zM66 0l301 1366h61l-301 -1366h-61z" />
<glyph unicode="&#x13d;" horiz-adv-x="1058" d="M70 0l301 1366h65l-289 -1305h687l-13 -61h-751zM560 1088q57 31 97 78t50 94h-12q-23 0 -38 17.5t-15 39.5q0 31 21.5 52.5t49.5 21.5q29 0 47.5 -19.5t18.5 -58.5t-15.5 -79t-42 -74.5t-59.5 -64.5t-66 -48z" />
<glyph unicode="&#x13e;" horiz-adv-x="485" d="M66 0l301 1366h61l-301 -1366h-61zM482 1088q57 31 97 78t50 94h-12q-23 0 -38 17.5t-15 39.5q0 31 21.5 52.5t49.5 21.5q29 0 47.5 -19.5t18.5 -58.5t-15.5 -79t-42 -74.5t-59.5 -64.5t-66 -48z" />
<glyph unicode="&#x13f;" horiz-adv-x="1058" d="M70 0l301 1366h65l-289 -1305h687l-13 -61h-751zM684 695q0 31 21.5 51t52.5 20q27 0 44.5 -17.5t17.5 -43.5q0 -31 -21.5 -51.5t-52.5 -20.5q-27 0 -44.5 17.5t-17.5 44.5z" />
<glyph unicode="&#x140;" horiz-adv-x="491" d="M66 0l301 1366h61l-301 -1366h-61zM385 496q0 31 21.5 51t52.5 20q27 0 44.5 -17.5t17.5 -43.5q0 -31 -21.5 -51.5t-52.5 -20.5q-27 0 -44.5 17.5t-17.5 44.5z" />
<glyph unicode="&#x141;" horiz-adv-x="1140" d="M57 504l17 69l229 119l150 674h65l-141 -637l264 137l-14 -69l-265 -138l-133 -598h686l-12 -61h-751l137 623z" />
<glyph unicode="&#x142;" horiz-adv-x="548" d="M25 508l16 65l246 125l147 668h62l-140 -633l248 127l-14 -65l-248 -127l-147 -668h-62l139 633z" />
<glyph unicode="&#x143;" horiz-adv-x="1413" d="M70 0l301 1366h65l643 -1255l279 1255h65l-301 -1366h-65l-641 1268l-281 -1268h-65zM813 1481l393 295h97l-424 -295h-66z" />
<glyph unicode="&#x144;" d="M66 0l219 989h61l-35 -155q35 33 77 65.5t89 58t97.5 41t101.5 15.5q61 0 112.5 -14.5t89 -43t59 -73.5t21.5 -107q0 -16 -4 -41.5t-8 -44.5l-151 -690h-62l154 692q4 16 8 37t4 41q0 100 -66.5 144t-168.5 44q-51 0 -101.5 -16t-98.5 -42t-90 -60.5t-77 -71.5l-170 -768 h-61zM577 1139l393 295h97l-424 -295h-66z" />
<glyph unicode="&#x145;" horiz-adv-x="1413" d="M70 0l301 1366h65l643 -1255l279 1255h65l-301 -1366h-65l-641 1268l-281 -1268h-65zM387 -475q57 31 97 78t50 94h-12q-23 0 -38 17.5t-15 39.5q0 31 21.5 52.5t49.5 21.5q29 0 47.5 -19.5t18.5 -58.5t-15.5 -79t-42 -74.5t-59.5 -64.5t-66 -48z" />
<glyph unicode="&#x146;" d="M66 0l219 989h61l-35 -155q35 33 77 65.5t89 58t97.5 41t101.5 15.5q61 0 112.5 -14.5t89 -43t59 -73.5t21.5 -107q0 -16 -4 -41.5t-8 -44.5l-151 -690h-62l154 692q4 16 8 37t4 41q0 100 -66.5 144t-168.5 44q-51 0 -101.5 -16t-98.5 -42t-90 -60.5t-77 -71.5l-170 -768 h-61zM230 -475q57 31 97 78t50 94h-12q-23 0 -38 17.5t-15 39.5q0 31 21.5 52.5t49.5 21.5q29 0 47.5 -19.5t18.5 -58.5t-15.5 -79t-42 -74.5t-59.5 -64.5t-66 -48z" />
<glyph unicode="&#x147;" horiz-adv-x="1413" d="M70 0l301 1366h65l643 -1255l279 1255h65l-301 -1366h-65l-641 1268l-281 -1268h-65zM750 1776h53l131 -246l236 246h61l-266 -295h-74z" />
<glyph unicode="&#x148;" d="M66 0l219 989h61l-35 -155q35 33 77 65.5t89 58t97.5 41t101.5 15.5q61 0 112.5 -14.5t89 -43t59 -73.5t21.5 -107q0 -16 -4 -41.5t-8 -44.5l-151 -690h-62l154 692q4 16 8 37t4 41q0 100 -66.5 144t-168.5 44q-51 0 -101.5 -16t-98.5 -42t-90 -60.5t-77 -71.5l-170 -768 h-61zM510 1434h53l131 -246l236 246h61l-266 -295h-74z" />
<glyph unicode="&#x149;" d="M66 0l219 989h61l-35 -155q35 33 77 65.5t89 58t97.5 41t101.5 15.5q61 0 112.5 -14.5t89 -43t59 -73.5t21.5 -107q0 -16 -4 -41.5t-8 -44.5l-151 -690h-62l154 692q4 16 8 37t4 41q0 100 -66.5 144t-168.5 44q-51 0 -101.5 -16t-98.5 -42t-90 -60.5t-77 -71.5l-170 -768 h-61zM277 1182q57 31 97 78t50 94h-12q-23 0 -38 17.5t-15 39.5q0 31 21.5 52.5t49.5 21.5q29 0 47.5 -19.5t18.5 -58.5t-15.5 -79t-42 -74.5t-59.5 -64.5t-66 -48z" />
<glyph unicode="&#x14a;" horiz-adv-x="1413" d="M70 0l301 1366h65l643 -1255l279 1255h65l-303 -1374q-51 -205 -162.5 -299t-267.5 -94q-127 0 -214 50t-132 138l55 41q37 -78 110 -123t181 -45q143 0 233.5 86t131.5 246l2 8l-641 1268l-281 -1268h-65z" />
<glyph unicode="&#x14b;" d="M66 0l219 989h61l-35 -155q35 33 77 65.5t89 58t97.5 41t101.5 15.5q57 0 109.5 -13.5t90 -43t60 -74.5t22.5 -109q0 -20 -4 -40.5t-8 -43.5l-186 -846q-29 -123 -89.5 -184t-166.5 -61q-59 0 -113.5 20.5t-89.5 67.5l47 47q23 -33 63 -56.5t87 -23.5q78 0 128 44t72 146 l189 848q4 23 8 42.5t4 37.5q0 51 -19.5 86t-51 57.5t-74.5 32.5t-90 10q-51 0 -101.5 -16t-98.5 -42t-90 -60.5t-77 -71.5l-170 -768h-61z" />
<glyph unicode="&#x14c;" horiz-adv-x="1564" d="M152 561q0 174 59 325.5t160.5 263.5t237.5 175.5t288 63.5q123 0 231.5 -38t189.5 -112t128 -183.5t47 -252.5q0 -176 -59.5 -326.5t-161 -262.5t-237 -175.5t-287.5 -63.5q-123 0 -231.5 38t-189.5 112t-128 183.5t-47 252.5zM225 561q0 -129 42 -227t115 -165 t168.5 -99.5t201.5 -32.5q131 0 251.5 56.5t213 157.5t147.5 241.5t55 310.5q0 129 -43 227t-114.5 165t-168 99.5t-202.5 32.5q-133 0 -253 -56.5t-212 -157.5t-146.5 -242.5t-54.5 -309.5zM641 1532l12 55h741l-12 -55h-741z" />
<glyph unicode="&#x14d;" horiz-adv-x="1167" d="M104 406q0 119 41 228t113 193t169 135.5t212 51.5q94 0 172 -30t133 -86t85 -136t30 -178q0 -119 -41 -228.5t-112.5 -194.5t-169 -135.5t-212.5 -50.5q-94 0 -172 30t-133 86t-85 136t-30 179zM174 406q0 -170 92 -272.5t258 -102.5q100 0 185.5 47t148 124t97 177 t34.5 205q0 170 -92 272t-258 102q-100 0 -185 -47t-147.5 -123.5t-97.5 -177t-35 -204.5zM369 1190l12 55h741l-12 -55h-741z" />
<glyph unicode="&#x14e;" horiz-adv-x="1564" d="M152 561q0 174 59 325.5t160.5 263.5t237.5 175.5t288 63.5q123 0 231.5 -38t189.5 -112t128 -183.5t47 -252.5q0 -176 -59.5 -326.5t-161 -262.5t-237 -175.5t-287.5 -63.5q-123 0 -231.5 38t-189.5 112t-128 183.5t-47 252.5zM225 561q0 -129 42 -227t115 -165 t168.5 -99.5t201.5 -32.5q131 0 251.5 56.5t213 157.5t147.5 241.5t55 310.5q0 129 -43 227t-114.5 165t-168 99.5t-202.5 32.5q-133 0 -253 -56.5t-212 -157.5t-146.5 -242.5t-54.5 -309.5zM659 1636l47 39q39 -76 110.5 -120t172.5 -44q100 0 191 44t161 120l37 -39 q-80 -84 -183.5 -132t-213.5 -48q-111 0 -194 48t-128 132z" />
<glyph unicode="&#x14f;" horiz-adv-x="1167" d="M104 406q0 119 41 228t113 193t169 135.5t212 51.5q94 0 172 -30t133 -86t85 -136t30 -178q0 -119 -41 -228.5t-112.5 -194.5t-169 -135.5t-212.5 -50.5q-94 0 -172 30t-133 86t-85 136t-30 179zM174 406q0 -170 92 -272.5t258 -102.5q100 0 185.5 47t148 124t97 177 t34.5 205q0 170 -92 272t-258 102q-100 0 -185 -47t-147.5 -123.5t-97.5 -177t-35 -204.5zM389 1294l47 39q39 -76 110.5 -120t172.5 -44q100 0 191 44t161 120l37 -39q-80 -84 -183.5 -132t-213.5 -48q-111 0 -194 48t-128 132z" />
<glyph unicode="&#x150;" horiz-adv-x="1564" d="M152 561q0 174 59 325.5t160.5 263.5t237.5 175.5t288 63.5q123 0 231.5 -38t189.5 -112t128 -183.5t47 -252.5q0 -176 -59.5 -326.5t-161 -262.5t-237 -175.5t-287.5 -63.5q-123 0 -231.5 38t-189.5 112t-128 183.5t-47 252.5zM225 561q0 -129 42 -227t115 -165 t168.5 -99.5t201.5 -32.5q131 0 251.5 56.5t213 157.5t147.5 241.5t55 310.5q0 129 -43 227t-114.5 165t-168 99.5t-202.5 32.5q-133 0 -253 -56.5t-212 -157.5t-146.5 -242.5t-54.5 -309.5zM792 1481l271 295h88l-301 -295h-58zM1071 1481l270 295h88l-301 -295h-57z" />
<glyph unicode="&#x151;" horiz-adv-x="1167" d="M104 406q0 119 41 228t113 193t169 135.5t212 51.5q94 0 172 -30t133 -86t85 -136t30 -178q0 -119 -41 -228.5t-112.5 -194.5t-169 -135.5t-212.5 -50.5q-94 0 -172 30t-133 86t-85 136t-30 179zM174 406q0 -170 92 -272.5t258 -102.5q100 0 185.5 47t148 124t97 177 t34.5 205q0 170 -92 272t-258 102q-100 0 -185 -47t-147.5 -123.5t-97.5 -177t-35 -204.5zM518 1139l271 295h88l-301 -295h-58zM797 1139l270 295h88l-301 -295h-57z" />
<glyph unicode="&#x152;" horiz-adv-x="2301" d="M152 561q0 182 61 334t166.5 261.5t245 169.5t293.5 60q86 0 166.5 -19t151.5 -64.5t124 -120t84 -183.5l80 367h835l-12 -61h-770l-127 -572h756l-15 -61h-755l-136 -611h771l-13 -61h-835l55 256q-90 -129 -227.5 -205t-323.5 -76q-131 0 -237.5 43t-181.5 121 t-115.5 185.5t-40.5 236.5zM225 561q0 -121 38 -218t105.5 -164.5t162 -104.5t208.5 -37q84 0 166 23.5t156 67.5t136.5 107.5t109.5 145.5l108 493q-27 217 -163 334t-349 117q-135 0 -258 -57.5t-216 -158.5t-148.5 -241.5t-55.5 -306.5z" />
<glyph unicode="&#x153;" horiz-adv-x="2023" d="M104 406q0 119 40 228t111 193t168 135.5t212 51.5q104 0 180 -37t124 -89t71.5 -109.5t23.5 -100.5q23 45 62 102.5t97 109.5t136 88t178 36q92 0 167 -31t129.5 -86t83 -133t28.5 -174q0 -29 -4 -59.5t-10 -55.5h-859q-2 -8 -3 -27.5t-1 -37.5q0 -80 24.5 -148.5 t73 -120t120 -81t167.5 -29.5q84 0 165 31.5t145 84.5l30 -45q-68 -57 -157.5 -92t-182.5 -35q-109 0 -189.5 35t-135 85t-83 108.5t-30.5 107.5q-23 -45 -58.5 -102t-91 -109.5t-133 -88.5t-182.5 -36q-92 0 -169 30t-131 85t-85 135t-31 181zM174 406q0 -168 89 -271.5 t257 -103.5q98 0 182 45t145.5 121.5t97.5 176t36 210.5q0 100 -28.5 170.5t-77 115.5t-111 66.5t-129.5 21.5q-96 0 -180 -45t-146.5 -121.5t-98.5 -177t-36 -208.5zM1049 530h800q2 10 3 22.5t1 31.5q0 80 -23.5 148.5t-68.5 118.5t-111.5 78.5t-152.5 28.5 q-92 0 -170 -39.5t-136 -103t-96 -139.5t-46 -146z" />
<glyph unicode="&#x154;" horiz-adv-x="1185" d="M70 0l301 1366h434q66 0 129 -21.5t114.5 -64.5t82 -104.5t30.5 -141.5q0 -96 -33.5 -177t-98 -140.5t-156 -93t-203.5 -33.5l293 -590h-76l-287 590h-336l-129 -590h-65zM279 651h399h6q98 0 174 32t127 84t76.5 121.5t25.5 145.5q0 59 -24.5 109.5t-64.5 86.5t-90 55.5 t-103 19.5h-381zM721 1481l393 295h97l-424 -295h-66z" />
<glyph unicode="&#x155;" horiz-adv-x="622" d="M66 0l219 989h61l-39 -168q39 47 79 82t84 58.5t98.5 35t121.5 11.5l-16 -72q-20 4 -64 4q-49 0 -95 -17.5t-88 -45t-77 -63.5t-59 -73l-164 -741h-61zM401 1139l393 295h97l-424 -295h-66z" />
<glyph unicode="&#x156;" horiz-adv-x="1185" d="M70 0l301 1366h434q66 0 129 -21.5t114.5 -64.5t82 -104.5t30.5 -141.5q0 -96 -33.5 -177t-98 -140.5t-156 -93t-203.5 -33.5l293 -590h-76l-287 590h-336l-129 -590h-65zM279 651h399h6q98 0 174 32t127 84t76.5 121.5t25.5 145.5q0 59 -24.5 109.5t-64.5 86.5t-90 55.5 t-103 19.5h-381zM301 -475q57 31 97 78t50 94h-12q-23 0 -38 17.5t-15 39.5q0 31 21.5 52.5t49.5 21.5q29 0 47.5 -19.5t18.5 -58.5t-15.5 -79t-42 -74.5t-59.5 -64.5t-66 -48z" />
<glyph unicode="&#x157;" horiz-adv-x="622" d="M54 -475q57 31 97 78t50 94h-12q-23 0 -38 17.5t-15 39.5q0 31 21.5 52.5t49.5 21.5q29 0 47.5 -19.5t18.5 -58.5t-15.5 -79t-42 -74.5t-59.5 -64.5t-66 -48zM66 0l219 989h61l-39 -168q39 47 79 82t84 58.5t98.5 35t121.5 11.5l-16 -72q-20 4 -64 4q-49 0 -95 -17.5 t-88 -45t-77 -63.5t-59 -73l-164 -741h-61z" />
<glyph unicode="&#x158;" horiz-adv-x="1185" d="M70 0l301 1366h434q66 0 129 -21.5t114.5 -64.5t82 -104.5t30.5 -141.5q0 -96 -33.5 -177t-98 -140.5t-156 -93t-203.5 -33.5l293 -590h-76l-287 590h-336l-129 -590h-65zM279 651h399h6q98 0 174 32t127 84t76.5 121.5t25.5 145.5q0 59 -24.5 109.5t-64.5 86.5t-90 55.5 t-103 19.5h-381zM658 1776h53l131 -246l236 246h61l-266 -295h-74z" />
<glyph unicode="&#x159;" horiz-adv-x="622" d="M66 0l219 989h61l-39 -168q39 47 79 82t84 58.5t98.5 35t121.5 11.5l-16 -72q-20 4 -64 4q-49 0 -95 -17.5t-88 -45t-77 -63.5t-59 -73l-164 -741h-61zM338 1434h53l131 -246l236 246h61l-266 -295h-74z" />
<glyph unicode="&#x15a;" horiz-adv-x="1177" d="M63 211l60 43q72 -102 183.5 -159.5t258.5 -57.5q102 0 175 31.5t120 81t68.5 109.5t21.5 118q0 84 -51 138t-127 95t-166 76t-165.5 80t-127 106.5t-51.5 155.5q0 76 36 141.5t95.5 114.5t139 77t169.5 28q154 0 274 -58.5t175 -152.5l-59 -43q-61 98 -166 145t-224 47 q-78 0 -144 -25.5t-115.5 -66.5t-78 -95.5t-28.5 -111.5q0 -76 51 -127t127 -91t166 -76t166 -83t127 -112.5t51 -161.5q0 -72 -28.5 -143.5t-87 -129t-145.5 -93.5t-204 -36q-84 0 -162 18.5t-142.5 50.5t-113.5 75t-78 92zM704 1481l393 295h97l-424 -295h-66z" />
<glyph unicode="&#x15b;" horiz-adv-x="929" d="M27 147l55 41q37 -63 118 -110t197 -47q70 0 125.5 19.5t94 52t59 75.5t20.5 88q0 59 -40 99.5t-99 70t-129 56t-129 59.5t-99 76t-40 106q0 57 23.5 108.5t67.5 90.5t108.5 60.5t146.5 21.5q129 0 219 -50.5t125 -111.5l-51 -39q-16 31 -46 57.5t-70 46t-88 30.5t-97 11 q-125 0 -200 -59t-75 -145q0 -55 40 -93t99.5 -67t129 -54.5t129 -59.5t99.5 -80t40 -115q0 -59 -23.5 -114.5t-68.5 -98.5t-112 -70t-153 -27q-264 0 -376 172zM481 1139l393 295h97l-424 -295h-66z" />
<glyph unicode="&#x15c;" horiz-adv-x="1177" d="M63 211l60 43q72 -102 183.5 -159.5t258.5 -57.5q102 0 175 31.5t120 81t68.5 109.5t21.5 118q0 84 -51 138t-127 95t-166 76t-165.5 80t-127 106.5t-51.5 155.5q0 76 36 141.5t95.5 114.5t139 77t169.5 28q154 0 274 -58.5t175 -152.5l-59 -43q-61 98 -166 145t-224 47 q-78 0 -144 -25.5t-115.5 -66.5t-78 -95.5t-28.5 -111.5q0 -76 51 -127t127 -91t166 -76t166 -83t127 -112.5t51 -161.5q0 -72 -28.5 -143.5t-87 -129t-145.5 -93.5t-204 -36q-84 0 -162 18.5t-142.5 50.5t-113.5 75t-78 92zM571 1481l267 295h73l142 -295h-54l-133 245 l-233 -245h-62z" />
<glyph unicode="&#x15d;" horiz-adv-x="929" d="M27 147l55 41q37 -63 118 -110t197 -47q70 0 125.5 19.5t94 52t59 75.5t20.5 88q0 59 -40 99.5t-99 70t-129 56t-129 59.5t-99 76t-40 106q0 57 23.5 108.5t67.5 90.5t108.5 60.5t146.5 21.5q129 0 219 -50.5t125 -111.5l-51 -39q-16 31 -46 57.5t-70 46t-88 30.5t-97 11 q-125 0 -200 -59t-75 -145q0 -55 40 -93t99.5 -67t129 -54.5t129 -59.5t99.5 -80t40 -115q0 -59 -23.5 -114.5t-68.5 -98.5t-112 -70t-153 -27q-264 0 -376 172zM354 1139l267 295h73l142 -295h-54l-133 245l-233 -245h-62z" />
<glyph unicode="&#x15e;" horiz-adv-x="1177" d="M63 211l60 43q72 -102 183.5 -159.5t258.5 -57.5q102 0 175 31.5t120 81t68.5 109.5t21.5 118q0 84 -51 138t-127 95t-166 76t-165.5 80t-127 106.5t-51.5 155.5q0 76 36 141.5t95.5 114.5t139 77t169.5 28q154 0 274 -58.5t175 -152.5l-59 -43q-61 98 -166 145t-224 47 q-78 0 -144 -25.5t-115.5 -66.5t-78 -95.5t-28.5 -111.5q0 -76 51 -127t127 -91t166 -76t166 -83t127 -112.5t51 -161.5q0 -72 -28.5 -143.5t-87 -129t-145.5 -93.5t-204 -36q-16 0 -33.5 1t-33.5 4l-58 -99q31 25 72 25q53 0 85 -30t32 -85q0 -76 -56.5 -125t-154.5 -49 q-66 0 -117 20.5t-86 53.5l41 51q33 -37 78 -53.5t90 -16.5q76 0 110.5 34t34.5 81q0 35 -23.5 54.5t-64.5 19.5q-23 0 -44 -9.5t-38 -29.5l-39 26l80 140q-129 23 -226 83t-145 140z" />
<glyph unicode="&#x15f;" horiz-adv-x="929" d="M27 147l55 41q37 -63 118 -110t197 -47q70 0 125.5 19.5t94 52t59 75.5t20.5 88q0 59 -40 99.5t-99 70t-129 56t-129 59.5t-99 76t-40 106q0 57 23.5 108.5t67.5 90.5t108.5 60.5t146.5 21.5q129 0 219 -50.5t125 -111.5l-51 -39q-16 31 -46 57.5t-70 46t-88 30.5t-97 11 q-125 0 -200 -59t-75 -145q0 -55 40 -93t99.5 -67t129 -54.5t129 -59.5t99.5 -80t40 -115q0 -59 -23.5 -114.5t-68.5 -98.5t-112 -70t-153 -27h-23t-22 2l-55 -96q31 25 72 25q53 0 85 -30t32 -85q0 -76 -56.5 -125t-154.5 -49q-66 0 -117 20.5t-86 53.5l41 51 q33 -37 78 -53.5t90 -16.5q76 0 110.5 34t34.5 81q0 35 -23.5 54.5t-64.5 19.5q-23 0 -44 -9.5t-38 -29.5l-39 26l78 136q-182 25 -274 163z" />
<glyph unicode="&#x160;" horiz-adv-x="1177" d="M63 211l60 43q72 -102 183.5 -159.5t258.5 -57.5q102 0 175 31.5t120 81t68.5 109.5t21.5 118q0 84 -51 138t-127 95t-166 76t-165.5 80t-127 106.5t-51.5 155.5q0 76 36 141.5t95.5 114.5t139 77t169.5 28q154 0 274 -58.5t175 -152.5l-59 -43q-61 98 -166 145t-224 47 q-78 0 -144 -25.5t-115.5 -66.5t-78 -95.5t-28.5 -111.5q0 -76 51 -127t127 -91t166 -76t166 -83t127 -112.5t51 -161.5q0 -72 -28.5 -143.5t-87 -129t-145.5 -93.5t-204 -36q-84 0 -162 18.5t-142.5 50.5t-113.5 75t-78 92zM637 1776h53l131 -246l236 246h61l-266 -295h-74 z" />
<glyph unicode="&#x161;" horiz-adv-x="929" d="M27 147l55 41q37 -63 118 -110t197 -47q70 0 125.5 19.5t94 52t59 75.5t20.5 88q0 59 -40 99.5t-99 70t-129 56t-129 59.5t-99 76t-40 106q0 57 23.5 108.5t67.5 90.5t108.5 60.5t146.5 21.5q129 0 219 -50.5t125 -111.5l-51 -39q-16 31 -46 57.5t-70 46t-88 30.5t-97 11 q-125 0 -200 -59t-75 -145q0 -55 40 -93t99.5 -67t129 -54.5t129 -59.5t99.5 -80t40 -115q0 -59 -23.5 -114.5t-68.5 -98.5t-112 -70t-153 -27q-264 0 -376 172zM418 1434h53l131 -246l236 246h61l-266 -295h-74z" />
<glyph unicode="&#x162;" horiz-adv-x="1144" d="M256 -475q57 31 97 78t50 94h-12q-23 0 -38 17.5t-15 39.5q0 31 21.5 52.5t49.5 21.5q29 0 47.5 -19.5t18.5 -58.5t-15.5 -79t-42 -74.5t-59.5 -64.5t-66 -48zM256 1305l12 61h989l-12 -61h-463l-288 -1305h-66l289 1305h-461z" />
<glyph unicode="&#x163;" horiz-adv-x="524" d="M-77 -475q57 31 97 78t50 94h-12q-23 0 -38 17.5t-15 39.5q0 31 21.5 52.5t49.5 21.5q29 0 47.5 -19.5t18.5 -58.5t-15.5 -79t-42 -74.5t-59.5 -64.5t-66 -48zM109 125q0 6 1 20.5t5 28.5l170 760h-164l12 55h164l59 271h62l-60 -271h201l-12 -55h-201l-170 -760 q-2 -10 -3 -20.5t-1 -24.5q0 -98 102 -98q33 0 63 13t50 30l25 -49q-29 -23 -62 -36.5t-74 -13.5q-80 0 -123.5 36t-43.5 114z" />
<glyph unicode="&#x164;" horiz-adv-x="1144" d="M256 1305l12 61h989l-12 -61h-463l-288 -1305h-66l289 1305h-461zM596 1776h53l131 -246l236 246h61l-266 -295h-74z" />
<glyph unicode="&#x165;" horiz-adv-x="524" d="M109 125q0 6 1 20.5t5 28.5l170 760h-164l12 55h164l59 271h62l-60 -271h201l-12 -55h-201l-170 -760q-2 -10 -3 -20.5t-1 -24.5q0 -98 102 -98q33 0 63 13t50 30l25 -49q-29 -23 -62 -36.5t-74 -13.5q-80 0 -123.5 36t-43.5 114zM504 1182q57 31 97 78t50 94h-12 q-23 0 -38 17.5t-15 39.5q0 31 21.5 52.5t49.5 21.5q29 0 47.5 -19.5t18.5 -58.5t-15.5 -79t-42 -74.5t-59.5 -64.5t-66 -48z" />
<glyph unicode="&#x166;" horiz-adv-x="1144" d="M236 657l12 56h338l131 592h-461l12 61h989l-12 -61h-463l-131 -592h338l-12 -56h-338l-145 -657h-66l145 657h-337z" />
<glyph unicode="&#x167;" horiz-adv-x="524" d="M23 496l12 55h164l86 383h-164l12 55h164l59 271h62l-60 -271h201l-12 -55h-201l-86 -383h146l-13 -55h-145l-72 -322q-2 -10 -3 -20.5t-1 -24.5q0 -98 102 -98q33 0 63 13t50 30l25 -49q-29 -23 -62 -36.5t-74 -13.5q-80 0 -123.5 36t-43.5 114q0 6 1 20.5t5 28.5 l71 322h-163z" />
<glyph unicode="&#x168;" horiz-adv-x="1376" d="M174 410q0 57 10 108l187 848h65l-186 -848q-4 -12 -8 -39.5t-4 -60.5q0 -172 108.5 -276.5t306.5 -104.5q106 0 186.5 32.5t136.5 94t95 150.5t64 204l186 848h65l-186 -848q-29 -127 -71 -227.5t-106.5 -171t-154.5 -107.5t-215 -37q-109 0 -197.5 30t-151 86 t-96.5 137t-34 182zM602 1489q12 55 32 105.5t47.5 87t64.5 59t80 22.5q59 0 85.5 -35.5t44 -79.5t39 -80t68.5 -36q51 0 90 51t68 168h55q-12 -55 -31.5 -105.5t-48 -87t-65.5 -59t-80 -22.5q-59 0 -86 35.5t-44.5 79.5t-39 80t-68.5 36q-51 0 -90 -51t-65 -168h-56z" />
<glyph unicode="&#x169;" d="M121 213q0 16 4 42t8 44l152 690h61l-153 -692q-4 -16 -8.5 -36.5t-4.5 -41.5q0 -100 66.5 -144t169.5 -44q51 0 101 16t98.5 42t90.5 60.5t76 71.5l170 768h62l-219 -989h-62l35 156q-35 -35 -77 -67t-89 -57.5t-97 -41t-102 -15.5q-61 0 -112 14.5t-89 43t-59.5 74 t-21.5 106.5zM374 1147q12 55 32 105.5t47.5 87t64.5 59t80 22.5q59 0 85.5 -35.5t44 -79.5t39 -80t68.5 -36q51 0 90 51t68 168h55q-12 -55 -31.5 -105.5t-48 -87t-65.5 -59t-80 -22.5q-59 0 -86 35.5t-44.5 79.5t-39 80t-68.5 36q-51 0 -90 -51t-65 -168h-56z" />
<glyph unicode="&#x16a;" horiz-adv-x="1376" d="M174 410q0 57 10 108l187 848h65l-186 -848q-4 -12 -8 -39.5t-4 -60.5q0 -172 108.5 -276.5t306.5 -104.5q106 0 186.5 32.5t136.5 94t95 150.5t64 204l186 848h65l-186 -848q-29 -127 -71 -227.5t-106.5 -171t-154.5 -107.5t-215 -37q-109 0 -197.5 30t-151 86 t-96.5 137t-34 182zM545 1532l12 55h741l-12 -55h-741z" />
<glyph unicode="&#x16b;" d="M121 213q0 16 4 42t8 44l152 690h61l-153 -692q-4 -16 -8.5 -36.5t-4.5 -41.5q0 -100 66.5 -144t169.5 -44q51 0 101 16t98.5 42t90.5 60.5t76 71.5l170 768h62l-219 -989h-62l35 156q-35 -35 -77 -67t-89 -57.5t-97 -41t-102 -15.5q-61 0 -112 14.5t-89 43t-59.5 74 t-21.5 106.5zM322 1190l12 55h741l-12 -55h-741z" />
<glyph unicode="&#x16c;" horiz-adv-x="1376" d="M174 410q0 57 10 108l187 848h65l-186 -848q-4 -12 -8 -39.5t-4 -60.5q0 -172 108.5 -276.5t306.5 -104.5q106 0 186.5 32.5t136.5 94t95 150.5t64 204l186 848h65l-186 -848q-29 -127 -71 -227.5t-106.5 -171t-154.5 -107.5t-215 -37q-109 0 -197.5 30t-151 86 t-96.5 137t-34 182zM567 1636l47 39q39 -76 110.5 -120t172.5 -44q100 0 191 44t161 120l37 -39q-80 -84 -183.5 -132t-213.5 -48q-111 0 -194 48t-128 132z" />
<glyph unicode="&#x16d;" d="M121 213q0 16 4 42t8 44l152 690h61l-153 -692q-4 -16 -8.5 -36.5t-4.5 -41.5q0 -100 66.5 -144t169.5 -44q51 0 101 16t98.5 42t90.5 60.5t76 71.5l170 768h62l-219 -989h-62l35 156q-35 -35 -77 -67t-89 -57.5t-97 -41t-102 -15.5q-61 0 -112 14.5t-89 43t-59.5 74 t-21.5 106.5zM340 1294l47 39q39 -76 110.5 -120t172.5 -44q100 0 191 44t161 120l37 -39q-80 -84 -183.5 -132t-213.5 -48q-111 0 -194 48t-128 132z" />
<glyph unicode="&#x16e;" horiz-adv-x="1376" d="M174 410q0 57 10 108l187 848h65l-186 -848q-4 -12 -8 -39.5t-4 -60.5q0 -172 108.5 -276.5t306.5 -104.5q106 0 186.5 32.5t136.5 94t95 150.5t64 204l186 848h65l-186 -848q-29 -127 -71 -227.5t-106.5 -171t-154.5 -107.5t-215 -37q-109 0 -197.5 30t-151 86 t-96.5 137t-34 182zM741 1590q0 43 16.5 80.5t45 66.5t66.5 45t81 16q76 0 124 -48t48 -124q0 -43 -16.5 -80.5t-45 -66.5t-66.5 -45t-81 -16q-76 0 -124 48t-48 124zM790 1594q0 -55 34 -91t89 -36q66 0 113 45t47 110q0 57 -34 92t-89 35q-66 0 -113 -45t-47 -110z" />
<glyph unicode="&#x16f;" d="M121 213q0 16 4 42t8 44l152 690h61l-153 -692q-4 -16 -8.5 -36.5t-4.5 -41.5q0 -100 66.5 -144t169.5 -44q51 0 101 16t98.5 42t90.5 60.5t76 71.5l170 768h62l-219 -989h-62l35 156q-35 -35 -77 -67t-89 -57.5t-97 -41t-102 -15.5q-61 0 -112 14.5t-89 43t-59.5 74 t-21.5 106.5zM528 1305q0 43 16.5 80.5t45 66.5t66.5 45t81 16q76 0 124 -48t48 -124q0 -43 -16.5 -80.5t-45 -66.5t-66.5 -45t-81 -16q-76 0 -124 48t-48 124zM577 1309q0 -55 34 -91t89 -36q66 0 113 45t47 110q0 57 -34 92t-89 35q-66 0 -113 -45t-47 -110z" />
<glyph unicode="&#x170;" horiz-adv-x="1376" d="M174 410q0 57 10 108l187 848h65l-186 -848q-4 -12 -8 -39.5t-4 -60.5q0 -172 108.5 -276.5t306.5 -104.5q106 0 186.5 32.5t136.5 94t95 150.5t64 204l186 848h65l-186 -848q-29 -127 -71 -227.5t-106.5 -171t-154.5 -107.5t-215 -37q-109 0 -197.5 30t-151 86 t-96.5 137t-34 182zM698 1481l271 295h88l-301 -295h-58zM977 1481l270 295h88l-301 -295h-57z" />
<glyph unicode="&#x171;" d="M121 213q0 16 4 42t8 44l152 690h61l-153 -692q-4 -16 -8.5 -36.5t-4.5 -41.5q0 -100 66.5 -144t169.5 -44q51 0 101 16t98.5 42t90.5 60.5t76 71.5l170 768h62l-219 -989h-62l35 156q-35 -35 -77 -67t-89 -57.5t-97 -41t-102 -15.5q-61 0 -112 14.5t-89 43t-59.5 74 t-21.5 106.5zM475 1139l271 295h88l-301 -295h-58zM754 1139l270 295h88l-301 -295h-57z" />
<glyph unicode="&#x172;" horiz-adv-x="1376" d="M174 410q0 57 10 108l187 848h65l-186 -848q-4 -12 -8 -39.5t-4 -60.5q0 -172 108.5 -276.5t306.5 -104.5q106 0 186.5 32.5t136.5 94t95 150.5t64 204l186 848h65l-186 -848q-47 -205 -130 -338t-236 -180q-98 -41 -160 -97.5t-62 -133.5q0 -47 28 -71t75 -24 q80 0 127 95l43 -27q-27 -47 -69 -85t-111 -38q-66 0 -107 36t-41 103q0 70 35 123t94 94h-33q-109 0 -197.5 30t-151 86t-96.5 137t-34 182z" />
<glyph unicode="&#x173;" d="M121 213q0 16 4 42t8 44l152 690h61l-153 -692q-4 -16 -8.5 -36.5t-4.5 -41.5q0 -100 66.5 -144t169.5 -44q51 0 101 16t98.5 42t90.5 60.5t76 71.5l170 768h62l-219 -989q-98 -41 -160 -97.5t-62 -133.5q0 -47 28 -71t75 -24q80 0 127 95l43 -27q-27 -47 -69 -85 t-111 -38q-66 0 -107 36t-41 103q0 94 61.5 159t159.5 112l29 127q-35 -35 -77 -67t-89 -57.5t-97 -41t-102 -15.5q-61 0 -112 14.5t-89 43t-59.5 74t-21.5 106.5z" />
<glyph unicode="&#x174;" horiz-adv-x="1744" d="M242 1366h69l76 -1268l639 1268h70l78 -1268l636 1268h74l-690 -1366h-78l-80 1243l-628 -1243h-78zM846 1481l267 295h73l142 -295h-54l-133 245l-233 -245h-62z" />
<glyph unicode="&#x175;" horiz-adv-x="1441" d="M154 989h63l88 -893l496 893h49l98 -893l486 893h71l-547 -989h-49l-100 897l-498 -897h-49zM622 1139l267 295h73l142 -295h-54l-133 245l-233 -245h-62z" />
<glyph unicode="&#x176;" horiz-adv-x="1249" d="M233 1366h76l342 -709l654 709h92l-719 -774l-131 -592h-66l131 592zM600 1481l267 295h73l142 -295h-54l-133 245l-233 -245h-62z" />
<glyph unicode="&#x177;" horiz-adv-x="964" d="M-92 -381l26 64q16 -8 41 -13.5t54 -5.5q41 0 78.5 25.5t87.5 99.5l135 205l-199 995h68l184 -917l592 917h76l-797 -1222q-53 -80 -112.5 -124t-133.5 -44q-55 0 -100 20zM381 1139l267 295h73l142 -295h-54l-133 245l-233 -245h-62z" />
<glyph unicode="&#x178;" horiz-adv-x="1249" d="M233 1366h76l342 -709l654 709h92l-719 -774l-131 -592h-66l131 592zM598 1561q0 27 18 45t45 18q23 0 37 -14t14 -37q0 -27 -18.5 -45.5t-44.5 -18.5q-23 0 -37 14.5t-14 37.5zM1011 1561q0 27 18.5 45t45.5 18q23 0 37 -14t14 -37q0 -27 -18.5 -45.5t-45.5 -18.5 q-23 0 -37 14.5t-14 37.5z" />
<glyph unicode="&#x179;" horiz-adv-x="1183" d="M-2 0l12 61l1143 1244h-866l12 61h952l-12 -61l-1145 -1244h883l-12 -61h-967zM694 1481l393 295h97l-424 -295h-66z" />
<glyph unicode="&#x17a;" horiz-adv-x="954" d="M12 0l11 55l817 879h-621l12 55h701l-12 -55l-822 -879h633l-10 -55h-709zM504 1139l393 295h97l-424 -295h-66z" />
<glyph unicode="&#x17b;" horiz-adv-x="1183" d="M-2 0l12 61l1143 1244h-866l12 61h952l-12 -61l-1145 -1244h883l-12 -61h-967zM764 1554q0 27 18.5 46.5t46.5 19.5q23 0 38.5 -15t15.5 -38q0 -29 -19.5 -47.5t-46.5 -18.5q-23 0 -38 15.5t-15 37.5z" />
<glyph unicode="&#x17c;" horiz-adv-x="954" d="M12 0l11 55l817 879h-621l12 55h701l-12 -55l-822 -879h633l-10 -55h-709zM574 1212q0 27 18.5 46.5t46.5 19.5q23 0 38.5 -15t15.5 -38q0 -29 -19.5 -47.5t-46.5 -18.5q-23 0 -38 15.5t-15 37.5z" />
<glyph unicode="&#x17d;" horiz-adv-x="1183" d="M-2 0l12 61l1143 1244h-866l12 61h952l-12 -61l-1145 -1244h883l-12 -61h-967zM633 1776h53l131 -246l236 246h61l-266 -295h-74z" />
<glyph unicode="&#x17e;" horiz-adv-x="954" d="M12 0l11 55l817 879h-621l12 55h701l-12 -55l-822 -879h633l-10 -55h-709zM434 1434h53l131 -246l236 246h61l-266 -295h-74z" />
<glyph unicode="&#x17f;" horiz-adv-x="503" d="M94 0l207 934h-164l13 55h163l23 105q31 139 100.5 215.5t186.5 76.5q55 0 94 -15t80 -54l-41 -41q-25 27 -57.5 41t-82.5 14q-94 0 -144 -62.5t-75 -174.5l-241 -1094h-62z" />
<glyph unicode="&#x192;" horiz-adv-x="843" d="M-29 -330l195 877h-164v61h176l109 486q31 139 100.5 215.5t185.5 76.5q53 0 95.5 -14t83.5 -57l-45 -45q-25 31 -60 43t-69 12q-90 0 -146.5 -61.5t-79.5 -169.5l-108 -486h331v-61h-344l-194 -877h-66z" />
<glyph unicode="&#x1a0;" horiz-adv-x="1564" d="M152 561q0 174 59 325.5t160.5 263.5t237.5 175.5t288 63.5q150 0 276.5 -55.5t208.5 -166.5q53 31 91 77t49 91h-13q-23 0 -38 17.5t-15 40.5q0 31 21.5 52t50.5 21t47 -19.5t18 -57.5q0 -39 -15 -79t-42 -75t-59.5 -64.5t-65.5 -48.5q39 -66 60.5 -144.5t21.5 -174.5 q0 -176 -59.5 -326.5t-161 -262.5t-237 -175.5t-287.5 -63.5q-123 0 -231.5 38t-189.5 112t-128 183.5t-47 252.5zM225 561q0 -129 42 -227t115 -165t168.5 -99.5t201.5 -32.5q131 0 251.5 56.5t213 157.5t147.5 241.5t55 310.5q0 129 -43 227t-114.5 165t-168 99.5 t-202.5 32.5q-133 0 -253 -56.5t-212 -157.5t-146.5 -242.5t-54.5 -309.5z" />
<glyph unicode="&#x1a1;" horiz-adv-x="1167" d="M104 406q0 119 41 228t113 193t169 135.5t212 51.5q184 0 299 -111q47 31 80 74t43 84h-12q-23 0 -38.5 17.5t-15.5 39.5q0 31 21.5 52.5t50.5 21.5t47.5 -19.5t18.5 -58.5q0 -37 -13.5 -72.5t-36 -69.5t-51 -61.5t-59.5 -48.5q86 -111 86 -278q0 -119 -41 -228.5 t-112.5 -194.5t-169 -135.5t-212.5 -50.5q-94 0 -172 30t-133 86t-85 136t-30 179zM174 406q0 -170 92 -272.5t258 -102.5q100 0 185.5 47t148 124t97 177t34.5 205q0 170 -92 272t-258 102q-100 0 -185 -47t-147.5 -123.5t-97.5 -177t-35 -204.5z" />
<glyph unicode="&#x1af;" horiz-adv-x="1376" d="M174 410q0 37 3 64.5t7 43.5l187 848h65l-186 -848q-4 -12 -8 -39.5t-4 -60.5q0 -172 108.5 -276.5t306.5 -104.5q106 0 186.5 32.5t136.5 94t95 150.5t64 204l186 848h65l-24 -109q102 47 156.5 102.5t66.5 113.5h-12q-23 0 -38 17t-15 40q0 31 21.5 52.5t49.5 21.5 q29 0 47.5 -19.5t18.5 -58.5q0 -51 -23.5 -100.5t-64.5 -92.5t-97.5 -77.5t-121.5 -59.5l-150 -678q-29 -127 -71 -227.5t-106.5 -171t-154.5 -107.5t-215 -37q-109 0 -197.5 30t-151 86t-96.5 137t-34 182z" />
<glyph unicode="&#x1b0;" d="M121 213q0 16 4 42t8 44l152 690h61l-153 -692q-4 -16 -8.5 -36.5t-4.5 -41.5q0 -100 66.5 -144t169.5 -44q51 0 101 16t98.5 42t90.5 60.5t76 71.5l170 768h62l-31 -139q96 47 147.5 100.5t63.5 108.5h-12q-23 0 -38.5 17.5t-15.5 39.5q0 31 21.5 52.5t50.5 21.5 t47.5 -19.5t18.5 -58.5q0 -51 -22.5 -99t-62.5 -90t-94.5 -77t-117.5 -60l-174 -786h-62l35 156q-35 -35 -77 -67t-89 -57.5t-97 -41t-102 -15.5q-61 0 -112 14.5t-89 43t-59.5 74t-21.5 106.5z" />
<glyph unicode="&#x1fc;" horiz-adv-x="1904" d="M-68 0l1172 1366h858l-12 -61h-770l-127 -572h755l-14 -61h-756l-135 -611h770l-12 -61h-836l80 367h-579l-312 -367h-82zM375 428h545l188 854zM1073 1481l393 295h97l-424 -295h-66z" />
<glyph unicode="&#x1fd;" horiz-adv-x="1961" d="M104 381q0 129 38 243.5t106.5 200.5t164 137.5t210.5 51.5q129 0 223 -57.5t145 -145.5l39 178h62l-45 -207q29 41 69.5 83t93 75t113.5 53.5t129 20.5q100 0 175 -34t125 -91.5t74.5 -135t24.5 -163.5q0 -29 -5 -62.5t-9 -52.5h-854q-2 -10 -3 -29.5t-1 -35.5 q0 -80 24.5 -150t73.5 -120t122 -79.5t169 -29.5q162 0 301 116l31 -45q-66 -53 -150 -90t-182 -37q-180 0 -290.5 92.5t-135.5 243.5l-70 -311h-61l35 158q-59 -80 -150.5 -131.5t-201.5 -51.5q-86 0 -157 28t-123 80t-81 127t-29 171zM174 389q0 -166 88 -262t236 -96 q57 0 111.5 17.5t102.5 47t87 67.5t67 81l113 514q-39 82 -131 141t-225 59q-102 0 -185.5 -49t-141.5 -129t-90 -182t-32 -209zM983 1139l393 295h97l-424 -295h-66zM989 530h797q2 10 3 26.5t1 27.5q0 166 -88 270t-260 104q-82 0 -157 -34.5t-136.5 -93t-103 -136.5 t-56.5 -164z" />
<glyph unicode="&#x1fe;" horiz-adv-x="1564" d="M152 561q0 174 59 325.5t160.5 263.5t237.5 175.5t288 63.5q217 0 373 -113l73 90h74l-102 -125q82 -74 130 -183.5t48 -254.5q0 -176 -59.5 -326.5t-161 -262.5t-237 -175.5t-287.5 -63.5q-106 0 -201.5 29t-173.5 84l-72 -88h-74l101 123q-82 74 -129 183.5t-47 254.5z M225 561q0 -127 39 -223t109 -162l854 1047q-70 53 -156 78.5t-180 25.5q-133 0 -253 -56.5t-212 -157.5t-146.5 -242.5t-54.5 -309.5zM416 141q70 -53 155 -78.5t181 -25.5q131 0 251.5 56.5t213 157.5t147.5 241.5t55 310.5q0 127 -40 222t-109 161zM889 1481l393 295h97 l-424 -295h-66z" />
<glyph unicode="&#x1ff;" horiz-adv-x="1167" d="M59 0l127 131q-82 106 -82 275q0 119 41 228t113 193t169 135.5t212 51.5q92 0 166 -28t127 -79l80 82h71l-114 -121q43 -53 66.5 -125.5t23.5 -158.5q0 -119 -41 -228.5t-112.5 -194.5t-169 -135.5t-212.5 -50.5q-190 0 -305 115l-86 -90h-74zM174 406q0 -135 57 -228 l658 684q-92 96 -250 96q-100 0 -185 -47t-147.5 -123.5t-97.5 -177t-35 -204.5zM262 135q94 -104 262 -104q100 0 185.5 47t148 124t97 177t34.5 205q0 141 -67 237zM616 1139l393 295h97l-424 -295h-66z" />
<glyph unicode="&#x218;" horiz-adv-x="1177" d="M63 211l60 43q72 -102 183.5 -159.5t258.5 -57.5q102 0 175 31.5t120 81t68.5 109.5t21.5 118q0 84 -51 138t-127 95t-166 76t-165.5 80t-127 106.5t-51.5 155.5q0 76 36 141.5t95.5 114.5t139 77t169.5 28q154 0 274 -58.5t175 -152.5l-59 -43q-61 98 -166 145t-224 47 q-78 0 -144 -25.5t-115.5 -66.5t-78 -95.5t-28.5 -111.5q0 -76 51 -127t127 -91t166 -76t166 -83t127 -112.5t51 -161.5q0 -72 -28.5 -143.5t-87 -129t-145.5 -93.5t-204 -36q-84 0 -162 18.5t-142.5 50.5t-113.5 75t-78 92zM279 -475q57 31 97 78t50 94h-12q-23 0 -38 17.5 t-15 39.5q0 31 21.5 52.5t49.5 21.5q29 0 47.5 -19.5t18.5 -58.5t-15.5 -79t-42 -74.5t-59.5 -64.5t-66 -48z" />
<glyph unicode="&#x219;" horiz-adv-x="929" d="M27 147l55 41q37 -63 118 -110t197 -47q70 0 125.5 19.5t94 52t59 75.5t20.5 88q0 59 -40 99.5t-99 70t-129 56t-129 59.5t-99 76t-40 106q0 57 23.5 108.5t67.5 90.5t108.5 60.5t146.5 21.5q129 0 219 -50.5t125 -111.5l-51 -39q-16 31 -46 57.5t-70 46t-88 30.5t-97 11 q-125 0 -200 -59t-75 -145q0 -55 40 -93t99.5 -67t129 -54.5t129 -59.5t99.5 -80t40 -115q0 -59 -23.5 -114.5t-68.5 -98.5t-112 -70t-153 -27q-264 0 -376 172zM136 -475q57 31 97 78t50 94h-12q-23 0 -38 17.5t-15 39.5q0 31 21.5 52.5t49.5 21.5q29 0 47.5 -19.5 t18.5 -58.5t-15.5 -79t-42 -74.5t-59.5 -64.5t-66 -48z" />
<glyph unicode="&#x21a;" horiz-adv-x="1144" d="M256 -475q57 31 97 78t50 94h-12q-23 0 -38 17.5t-15 39.5q0 31 21.5 52.5t49.5 21.5q29 0 47.5 -19.5t18.5 -58.5t-15.5 -79t-42 -74.5t-59.5 -64.5t-66 -48zM256 1305l12 61h989l-12 -61h-463l-288 -1305h-66l289 1305h-461z" />
<glyph unicode="&#x21b;" horiz-adv-x="524" d="M-96 -475q57 31 97 78t50 94h-12q-23 0 -38 17.5t-15 39.5q0 31 21.5 52.5t49.5 21.5q29 0 47.5 -19.5t18.5 -58.5t-15.5 -79t-42 -74.5t-59.5 -64.5t-66 -48zM109 125q0 6 1 20.5t5 28.5l170 760h-164l12 55h164l59 271h62l-60 -271h201l-12 -55h-201l-170 -760 q-2 -10 -3 -20.5t-1 -24.5q0 -98 102 -98q33 0 63 13t50 30l25 -49q-29 -23 -62 -36.5t-74 -13.5q-80 0 -123.5 36t-43.5 114z" />
<glyph unicode="&#x2c6;" horiz-adv-x="481" d="M141 1139l267 295h73l142 -295h-54l-133 245l-233 -245h-62z" />
<glyph unicode="&#x2da;" horiz-adv-x="378" d="M178 1305q0 43 16.5 80.5t45 66.5t66.5 45t81 16q76 0 124 -48t48 -124q0 -43 -16.5 -80.5t-45 -66.5t-66.5 -45t-81 -16q-76 0 -124 48t-48 124zM227 1309q0 -55 34 -91t89 -36q66 0 113 45t47 110q0 57 -34 92t-89 35q-66 0 -113 -45t-47 -110z" />
<glyph unicode="&#x2dc;" horiz-adv-x="616" d="M143 1147q12 55 32 105.5t47.5 87t64.5 59t80 22.5q59 0 85.5 -35.5t44 -79.5t39 -80t68.5 -36q51 0 90 51t68 168h55q-12 -55 -31.5 -105.5t-48 -87t-65.5 -59t-80 -22.5q-59 0 -86 35.5t-44.5 79.5t-39 80t-68.5 36q-51 0 -90 -51t-65 -168h-56z" />
<glyph unicode="&#x37e;" horiz-adv-x="425" d="M-37 -188q57 31 97 78t51 94h-13q-23 0 -38 17t-15 40q0 31 21.5 52.5t50.5 21.5t47 -19.5t18 -58.5t-15 -79t-42 -75t-59.5 -64.5t-65.5 -47.5zM242 932q0 31 21.5 51.5t51.5 20.5q27 0 44.5 -17.5t17.5 -44.5q0 -31 -21.5 -51.5t-52.5 -20.5q-27 0 -44 17.5t-17 44.5z " />
<glyph unicode="&#x386;" horiz-adv-x="1302" d="M-68 0l871 1366h78l268 -1366h-72l-71 367h-762l-232 -367h-80zM283 428h712l-166 862zM391 1178l123 389h106l-184 -389h-45z" />
<glyph unicode="&#x388;" horiz-adv-x="1142" d="M70 0l301 1366h835l-12 -61h-770l-127 -572h756l-15 -61h-755l-136 -611h771l-13 -61h-835zM139 1178l123 389h106l-184 -389h-45z" />
<glyph unicode="&#x389;" horiz-adv-x="1423" d="M70 0l301 1366h65l-139 -633h932l139 633h66l-301 -1366h-66l147 672h-931l-148 -672h-65zM139 1178l123 389h106l-184 -389h-45z" />
<glyph unicode="&#x38a;" horiz-adv-x="425" d="M70 0l301 1366h65l-301 -1366h-65zM139 1178l123 389h106l-184 -389h-45z" />
<glyph unicode="&#x38c;" horiz-adv-x="1564" d="M152 561q0 174 59 325.5t160.5 263.5t237.5 175.5t288 63.5q123 0 231.5 -38t189.5 -112t128 -183.5t47 -252.5q0 -176 -59.5 -326.5t-161 -262.5t-237 -175.5t-287.5 -63.5q-123 0 -231.5 38t-189.5 112t-128 183.5t-47 252.5zM225 561q0 -129 42 -227t115 -165 t168.5 -99.5t201.5 -32.5q131 0 251.5 56.5t213 157.5t147.5 241.5t55 310.5q0 129 -43 227t-114.5 165t-168 99.5t-202.5 32.5q-133 0 -253 -56.5t-212 -157.5t-146.5 -242.5t-54.5 -309.5zM242 1178l123 389h106l-184 -389h-45z" />
<glyph unicode="&#x38e;" horiz-adv-x="1320" d="M139 1178l123 389h106l-184 -389h-45zM305 1366h76l342 -709l654 709h92l-719 -774l-131 -592h-66l131 592z" />
<glyph unicode="&#x38f;" horiz-adv-x="1564" d="M61 0l13 61h336q-111 78 -183.5 201t-72.5 297q0 164 56 314.5t155.5 265t235.5 182.5t298 68q133 0 241.5 -42t185.5 -120t119 -189.5t42 -251.5q0 -141 -39 -254.5t-103.5 -203.5t-150.5 -157t-178 -110h280l-12 -61h-440l12 61q113 23 214 86.5t178 161t122 222 t45 268.5q0 123 -38 220t-106.5 164.5t-163.5 104.5t-208 37q-145 0 -269 -60.5t-214 -165t-140.5 -243.5t-50.5 -297q0 -96 24.5 -175t64.5 -140.5t92.5 -106.5t107.5 -76l-12 -61h-441zM242 1178l123 389h106l-184 -389h-45z" />
<glyph unicode="&#x390;" horiz-adv-x="442" d="M86 1219q0 27 18.5 45t45.5 18q23 0 37 -14t14 -37q0 -27 -18.5 -45.5t-44.5 -18.5q-23 0 -37.5 14.5t-14.5 37.5zM104 174l181 815h61l-180 -815q-14 -63 2 -103t72 -40q27 0 43 4l-7 -55q-10 -2 -22.5 -3.5t-26.5 -1.5q-86 0 -114.5 53.5t-8.5 145.5zM336 1178l123 389 h107l-185 -389h-45zM580 1219q0 27 18.5 45t45.5 18q23 0 37 -14t14 -37q0 -27 -18.5 -45.5t-45.5 -18.5q-23 0 -37 14.5t-14 37.5z" />
<glyph unicode="&#x391;" horiz-adv-x="1302" d="M-68 0l871 1366h78l268 -1366h-72l-71 367h-762l-232 -367h-80zM283 428h712l-166 862z" />
<glyph unicode="&#x392;" horiz-adv-x="1228" d="M70 0l301 1366h485q63 0 121.5 -20.5t104.5 -59.5t74 -95t28 -128q0 -76 -25.5 -140.5t-70 -113.5t-102.5 -80t-122 -39q41 -10 78 -37.5t64.5 -66.5t43 -85t15.5 -95q0 -80 -28.5 -153t-86 -129t-143.5 -90t-201 -34h-536zM147 61h471q92 0 162 30t118 78t71.5 109.5 t23.5 127.5q0 113 -72.5 189.5t-205.5 76.5h-432zM297 733h471q94 0 159.5 30t106.5 77t58.5 105.5t17.5 117.5q0 51 -20.5 95t-56.5 77t-85 51.5t-104 18.5h-420z" />
<glyph unicode="&#x393;" horiz-adv-x="1091" d="M70 0l301 1366h835l-12 -61h-770l-289 -1305h-65z" />
<glyph unicode="&#x394;" horiz-adv-x="1302" d="M-68 0l871 1366h78l268 -1366h-1217zM49 61h1016l-236 1229z" />
<glyph unicode="&#x395;" horiz-adv-x="1142" d="M70 0l301 1366h835l-12 -61h-770l-127 -572h756l-15 -61h-755l-136 -611h771l-13 -61h-835z" />
<glyph unicode="&#x396;" horiz-adv-x="1183" d="M-2 0l12 61l1143 1244h-866l12 61h952l-12 -61l-1145 -1244h883l-12 -61h-967z" />
<glyph unicode="&#x397;" horiz-adv-x="1423" d="M70 0l301 1366h65l-139 -633h932l139 633h66l-301 -1366h-66l147 672h-931l-148 -672h-65z" />
<glyph unicode="&#x398;" horiz-adv-x="1564" d="M152 561q0 174 59 325.5t160.5 263.5t237.5 175.5t288 63.5q123 0 231.5 -38t189.5 -112t128 -183.5t47 -252.5q0 -176 -59.5 -326.5t-161 -262.5t-237 -175.5t-287.5 -63.5q-123 0 -231.5 38t-189.5 112t-128 183.5t-47 252.5zM225 561q0 -129 42 -227t115 -165 t168.5 -99.5t201.5 -32.5q131 0 251.5 56.5t213 157.5t147.5 241.5t55 310.5q0 129 -43 227t-114.5 165t-168 99.5t-202.5 32.5q-133 0 -253 -56.5t-212 -157.5t-146.5 -242.5t-54.5 -309.5zM371 672l12 61h881l-13 -61h-880z" />
<glyph unicode="&#x399;" horiz-adv-x="425" d="M70 0l301 1366h65l-301 -1366h-65z" />
<glyph unicode="&#x39a;" horiz-adv-x="1169" d="M70 0l301 1366h65l-172 -778l877 778h94l-737 -653l497 -713h-80l-462 678l-209 -184l-109 -494h-65z" />
<glyph unicode="&#x39b;" horiz-adv-x="1302" d="M-68 0l871 1366h78l268 -1366h-72l-248 1290l-817 -1290h-80z" />
<glyph unicode="&#x39c;" horiz-adv-x="1576" d="M70 0l301 1366h100l234 -1223l774 1223h108l-301 -1366h-65l284 1288l-817 -1288h-20l-248 1288l-285 -1288h-65z" />
<glyph unicode="&#x39d;" horiz-adv-x="1413" d="M70 0l301 1366h65l643 -1255l279 1255h65l-301 -1366h-65l-641 1268l-281 -1268h-65z" />
<glyph unicode="&#x39e;" horiz-adv-x="1243" d="M16 0l13 61h989l-12 -61h-990zM178 672l12 61h963l-12 -61h-963zM305 1305l12 61h990l-13 -61h-989z" />
<glyph unicode="&#x39f;" horiz-adv-x="1564" d="M152 561q0 174 59 325.5t160.5 263.5t237.5 175.5t288 63.5q123 0 231.5 -38t189.5 -112t128 -183.5t47 -252.5q0 -176 -59.5 -326.5t-161 -262.5t-237 -175.5t-287.5 -63.5q-123 0 -231.5 38t-189.5 112t-128 183.5t-47 252.5zM225 561q0 -129 42 -227t115 -165 t168.5 -99.5t201.5 -32.5q131 0 251.5 56.5t213 157.5t147.5 241.5t55 310.5q0 129 -43 227t-114.5 165t-168 99.5t-202.5 32.5q-133 0 -253 -56.5t-212 -157.5t-146.5 -242.5t-54.5 -309.5z" />
<glyph unicode="&#x3a0;" horiz-adv-x="1423" d="M70 0l301 1366h1063l-301 -1366h-66l287 1305h-932l-287 -1305h-65z" />
<glyph unicode="&#x3a1;" horiz-adv-x="1136" d="M70 0l301 1366h448q74 0 136.5 -26.5t107.5 -72.5t70.5 -106.5t25.5 -126.5q0 -80 -27.5 -158.5t-88 -142t-152.5 -102.5t-221 -39h-404l-131 -592h-65zM279 653h405q102 0 178 32t126 84t74.5 122t24.5 143q0 53 -21.5 102.5t-58 86.5t-87 59.5t-109.5 22.5h-387z" />
<glyph unicode="&#x3a3;" horiz-adv-x="1071" d="M16 0l13 61l665 644l-387 600l12 61h836l-12 -61h-766l393 -611l-655 -633h751l-12 -61h-838z" />
<glyph unicode="&#x3a4;" horiz-adv-x="1144" d="M256 1305l12 61h989l-12 -61h-463l-288 -1305h-66l289 1305h-461z" />
<glyph unicode="&#x3a5;" horiz-adv-x="1249" d="M233 1366h76l342 -709l654 709h92l-719 -774l-131 -592h-66l131 592z" />
<glyph unicode="&#x3a6;" horiz-adv-x="1564" d="M164 592q0 127 57.5 241.5t158.5 201.5t239.5 139.5t300.5 56.5l30 135h66l-31 -135q123 -6 216 -43t157.5 -98.5t97.5 -142.5t33 -175q0 -127 -57.5 -242.5t-159 -202.5t-239.5 -140.5t-300 -55.5l-28 -131h-66l29 131q-123 6 -217.5 43t-158 98.5t-96 142.5t-32.5 177z M236 592q0 -84 29.5 -155.5t87 -124t140 -84t189.5 -35.5l223 978q-147 -4 -270 -51t-212 -124.5t-138 -181t-49 -222.5zM748 193q143 6 266 52t213 123.5t140 181t50 222.5q0 84 -29.5 154.5t-87 123t-140.5 84t-189 35.5z" />
<glyph unicode="&#x3a7;" horiz-adv-x="1306" d="M-59 0l714 707l-383 659h78l352 -618l615 618h98l-676 -670l406 -696h-76l-377 657l-655 -657h-96z" />
<glyph unicode="&#x3a8;" horiz-adv-x="1507" d="M233 649q0 35 5.5 79t15.5 83l127 555h65l-131 -569q-6 -25 -11 -68t-5 -80q0 -70 21.5 -129t68.5 -103t119 -71t174 -31l240 1051h65l-239 -1051q236 10 385 135t198 347l131 569h66l-135 -590q-27 -117 -84.5 -212t-141.5 -163.5t-193.5 -106.5t-240.5 -40l-57 -254 h-66l58 254q-225 10 -330 113.5t-105 281.5z" />
<glyph unicode="&#x3a9;" horiz-adv-x="1564" d="M61 0l13 61h336q-111 78 -183.5 201t-72.5 297q0 164 56 314.5t155.5 265t235.5 182.5t298 68q133 0 241.5 -42t185.5 -120t119 -189.5t42 -251.5q0 -141 -39 -254.5t-103.5 -203.5t-150.5 -157t-178 -110h280l-12 -61h-440l12 61q113 23 214 86.5t178 161t122 222 t45 268.5q0 123 -38 220t-106.5 164.5t-163.5 104.5t-208 37q-145 0 -269 -60.5t-214 -165t-140.5 -243.5t-50.5 -297q0 -96 24.5 -175t64.5 -140.5t92.5 -106.5t107.5 -76l-12 -61h-441z" />
<glyph unicode="&#x3aa;" horiz-adv-x="425" d="M70 0l301 1366h65l-301 -1366h-65zM193 1596q0 27 18 45t45 18q23 0 37 -14t14 -37q0 -27 -18.5 -45.5t-44.5 -18.5q-23 0 -37 14.5t-14 37.5zM606 1596q0 27 18.5 45t45.5 18q23 0 37 -14t14 -37q0 -27 -18.5 -45.5t-45.5 -18.5q-23 0 -37 14.5t-14 37.5z" />
<glyph unicode="&#x3ab;" horiz-adv-x="1249" d="M233 1366h76l342 -709l654 709h92l-719 -774l-131 -592h-66l131 592zM605 1596q0 27 18 45t45 18q23 0 37 -14t14 -37q0 -27 -18.5 -45.5t-44.5 -18.5q-23 0 -37 14.5t-14 37.5zM1018 1596q0 27 18.5 45t45.5 18q23 0 37 -14t14 -37q0 -27 -18.5 -45.5t-45.5 -18.5 q-23 0 -37 14.5t-14 37.5z" />
<glyph unicode="&#x3ac;" horiz-adv-x="1187" d="M104 381q0 129 38 243.5t106.5 200.5t164 137.5t210.5 51.5q129 0 223 -57.5t145 -145.5l39 178h62l-181 -815q-14 -63 3.5 -103t70.5 -40q27 0 43 4l-6 -55q-10 -2 -22.5 -3.5t-26.5 -1.5q-86 0 -114 52.5t-11 138.5q-61 -86 -152.5 -138.5t-201.5 -52.5q-86 0 -157 28 t-123 80t-81 127t-29 171zM174 389q0 -166 88.5 -262t235.5 -96q57 0 111.5 17.5t102.5 47t87 68.5t67 80l113 514q-39 82 -131 141t-225 59q-102 0 -185.5 -49t-141.5 -129t-90 -182t-32 -209zM688 1178l123 389h106l-184 -389h-45z" />
<glyph unicode="&#x3ad;" horiz-adv-x="1071" d="M66 227q0 72 37.5 124t93 86t117 50.5t108.5 20.5q-35 4 -74 17.5t-72.5 39t-55 63.5t-21.5 91q0 70 41 125t107.5 93t150.5 57.5t168 19.5q143 0 238 -43t149 -113l-45 -33q-49 72 -140.5 102.5t-201.5 30.5q-78 0 -151 -17t-128 -48t-89 -75t-34 -99q0 -47 26.5 -83 t71 -59.5t102.5 -35t124 -11.5h237l-12 -55h-238q-86 0 -165.5 -12t-140 -42t-97.5 -77t-37 -117q0 -92 88 -144t244 -52q117 0 220.5 40t189.5 113l34 -43q-94 -78 -206.5 -122t-237.5 -44q-207 0 -304 70t-97 182zM684 1178l123 389h106l-184 -389h-45z" />
<glyph unicode="&#x3ae;" d="M66 0l219 989h61l-35 -155q35 33 77 65.5t89 58t97.5 41t101.5 15.5q61 0 112.5 -14.5t89 -43t59 -73.5t21.5 -107q0 -16 -4 -41.5t-8 -44.5l-237 -1067h-62l240 1069q4 16 8 37t4 41q0 100 -66.5 144t-168.5 44q-51 0 -101.5 -16t-98.5 -42t-90 -60.5t-77 -71.5 l-170 -768h-61zM663 1178l123 389h106l-184 -389h-45z" />
<glyph unicode="&#x3af;" horiz-adv-x="442" d="M104 174l181 815h61l-180 -815q-14 -63 2 -103t72 -40q27 0 43 4l-7 -55q-10 -2 -22.5 -3.5t-26.5 -1.5q-86 0 -114.5 53.5t-8.5 145.5zM334 1178l123 389h106l-184 -389h-45z" />
<glyph unicode="&#x3b0;" horiz-adv-x="1124" d="M145.5 242q-6.5 82 16.5 182l129 565h61l-129 -565q-41 -184 15.5 -288.5t218.5 -104.5q109 0 201 49t158.5 134t104 196.5t37.5 236.5q0 90 -20 179t-66 153l56 35q47 -72 71.5 -168t24.5 -201q0 -135 -43 -257t-119 -214t-180 -145.5t-225 -53.5q-96 0 -164 33 t-104.5 92.5t-43 141.5zM456 1219q0 27 18.5 45t45.5 18q23 0 37 -14t14 -37q0 -27 -18.5 -45.5t-44.5 -18.5q-23 0 -37.5 14.5t-14.5 37.5zM706 1178l123 389h107l-185 -389h-45zM950 1219q0 27 18.5 45t45.5 18q23 0 37 -14t14 -37q0 -27 -18.5 -45.5t-45.5 -18.5 q-23 0 -37 14.5t-14 37.5z" />
<glyph unicode="&#x3b1;" horiz-adv-x="1187" d="M104 381q0 129 38 243.5t106.5 200.5t164 137.5t210.5 51.5q129 0 223 -57.5t145 -145.5l39 178h62l-181 -815q-14 -63 3.5 -103t70.5 -40q27 0 43 4l-6 -55q-10 -2 -22.5 -3.5t-26.5 -1.5q-86 0 -114 52.5t-11 138.5q-61 -86 -152.5 -138.5t-201.5 -52.5q-86 0 -157 28 t-123 80t-81 127t-29 171zM174 389q0 -166 88.5 -262t235.5 -96q57 0 111.5 17.5t102.5 47t87 68.5t67 80l113 514q-39 82 -131 141t-225 59q-102 0 -185.5 -49t-141.5 -129t-90 -182t-32 -209z" />
<glyph unicode="&#x3b2;" horiz-adv-x="1159" d="M-20 -377l301 1321q27 117 79 201t120.5 138t148.5 78.5t159 24.5q76 0 140.5 -19t110.5 -56t73 -93.5t27 -130.5q0 -96 -39 -164.5t-95.5 -114.5t-119 -69.5t-111.5 -31.5q37 -4 79 -21.5t79 -51.5t61.5 -86t24.5 -122q0 -98 -41 -180t-110.5 -142.5t-163 -94.5 t-199.5 -34q-137 0 -221 56.5t-119 132.5l-123 -541h-61zM178 225q14 -39 44 -74.5t71 -62.5t95 -42t118 -15q102 0 184 29.5t140.5 83t89 126t30.5 156.5q0 66 -26.5 114t-71.5 78.5t-105.5 45t-128.5 14.5h-63l12 55h64q82 0 160.5 21.5t140 65.5t99.5 110.5t38 156.5 q0 115 -78 179.5t-203 64.5q-68 0 -137 -23.5t-130.5 -70.5t-108.5 -120t-70 -173z" />
<glyph unicode="&#x3b3;" horiz-adv-x="964" d="M117 989h82q61 -74 109 -178t78 -225t39 -247t-5 -243q88 90 171 196.5t153.5 221.5t123 235.5t78.5 239.5h62q-29 -119 -84.5 -245t-133 -251.5t-175 -248.5t-209.5 -236l-89 -385h-61l74 326q35 154 33.5 303t-32 284.5t-86 251t-128.5 201.5z" />
<glyph unicode="&#x3b4;" horiz-adv-x="1167" d="M100 367q0 92 34 175t93.5 150.5t141.5 118.5t178 84q-70 35 -116 82t-46 125q0 55 28.5 106.5t80 92t123 65.5t157.5 25q137 0 211 -44t109 -106l-52 -31q-31 59 -99.5 92t-168.5 33q-74 0 -133 -19.5t-102 -51t-66.5 -74.5t-23.5 -88q0 -61 44 -100t111.5 -72 t144 -64.5t144.5 -79t112 -118t44 -176.5q0 -94 -37 -186.5t-105.5 -166t-166 -119t-220.5 -45.5q-106 0 -185 34t-131 89.5t-78 125t-26 143.5zM170 367q0 -61 20.5 -121t63.5 -108t109.5 -77.5t156.5 -29.5q100 0 186.5 40t147.5 104.5t96 147.5t35 169t-33.5 144t-87 99 t-118 70t-128.5 55q-219 -57 -333.5 -189t-114.5 -304z" />
<glyph unicode="&#x3b5;" horiz-adv-x="1071" d="M66 227q0 72 37.5 124t93 86t117 50.5t108.5 20.5q-35 4 -74 17.5t-72.5 39t-55 63.5t-21.5 91q0 70 41 125t107.5 93t150.5 57.5t168 19.5q143 0 238 -43t149 -113l-45 -33q-49 72 -140.5 102.5t-201.5 30.5q-78 0 -151 -17t-128 -48t-89 -75t-34 -99q0 -47 26.5 -83 t71 -59.5t102.5 -35t124 -11.5h237l-12 -55h-238q-86 0 -165.5 -12t-140 -42t-97.5 -77t-37 -117q0 -92 88 -144t244 -52q117 0 220.5 40t189.5 113l34 -43q-94 -78 -206.5 -122t-237.5 -44q-207 0 -304 70t-97 182z" />
<glyph unicode="&#x3b6;" horiz-adv-x="1009" d="M98 348q0 141 65.5 271.5t185.5 250t288 229t373 212.5h-668l14 55h752l-14 -55q-231 -121 -404.5 -235.5t-289 -230.5t-174 -237t-58.5 -252q0 -154 110.5 -239.5t303.5 -85.5q98 0 145 -23.5t47 -89.5q0 -53 -30.5 -107.5t-92.5 -132.5h-82q66 72 101 123.5t35 100.5 q0 43 -34 58t-106 15q-215 0 -341 99.5t-126 273.5z" />
<glyph unicode="&#x3b7;" d="M66 0l219 989h61l-35 -155q35 33 77 65.5t89 58t97.5 41t101.5 15.5q61 0 112.5 -14.5t89 -43t59 -73.5t21.5 -107q0 -16 -4 -41.5t-8 -44.5l-237 -1067h-62l240 1069q4 16 8 37t4 41q0 100 -66.5 144t-168.5 44q-51 0 -101.5 -16t-98.5 -42t-90 -60.5t-77 -71.5 l-170 -768h-61z" />
<glyph unicode="&#x3b8;" horiz-adv-x="1167" d="M131 492q0 96 18.5 200.5t53.5 203.5t86 189.5t118.5 158t150.5 107.5t179 40q102 0 176 -38t122 -107.5t70.5 -165t22.5 -208.5q0 -145 -39.5 -302.5t-116.5 -290t-189 -218.5t-257 -86q-102 0 -177 38t-123 106.5t-71.5 163t-23.5 209.5zM199 485q0 -94 17 -177 t57 -144.5t102.5 -97t154.5 -35.5q98 0 181.5 54t148 142t110.5 202t68 230h-825q-8 -45 -11 -89t-3 -85zM223 715h826q12 82 12 164q0 94 -17.5 177t-56.5 145.5t-101.5 98t-154.5 35.5q-98 0 -180 -53t-147.5 -141t-110.5 -199t-70 -227z" />
<glyph unicode="&#x3b9;" horiz-adv-x="442" d="M104 174l181 815h61l-180 -815q-14 -63 2 -103t72 -40q27 0 43 4l-7 -55q-10 -2 -22.5 -3.5t-26.5 -1.5q-86 0 -114.5 53.5t-8.5 145.5z" />
<glyph unicode="&#x3ba;" horiz-adv-x="1015" d="M66 0l219 989h61l-133 -596l772 596h94l-581 -446l356 -543h-76l-329 504l-254 -195l-68 -309h-61z" />
<glyph unicode="&#x3bb;" horiz-adv-x="964" d="M-88 0l649 995l-43 205q-16 80 -46 107.5t-79 27.5q-18 0 -44.5 -4t-45.5 -12l2 57q20 6 47 10.5t54 4.5q74 0 118.5 -44t61.5 -124l245 -1223h-67l-184 918l-592 -918h-76z" />
<glyph unicode="&#x3bc;" horiz-adv-x="1110" d="M-20 -377l309 1366h61l-155 -692q-16 -72 -6 -123t38.5 -84t71.5 -48t94 -15q49 0 102.5 15t105.5 39.5t98 58.5t81 71l172 778h62l-180 -815q-14 -63 2 -103t71 -40q27 0 43 4l-6 -55q-10 -2 -22.5 -3.5t-26.5 -1.5q-86 0 -112.5 49.5t-14.5 127.5 q-78 -72 -182.5 -124.5t-204.5 -52.5q-92 0 -147.5 36t-81.5 98l-111 -486h-61z" />
<glyph unicode="&#x3bd;" horiz-adv-x="964" d="M137 989h72l180 -923q100 102 189.5 214.5t162 230.5t126 238.5t79.5 239.5h62q-29 -121 -84.5 -248t-135 -254t-179 -250.5t-212.5 -236.5h-61z" />
<glyph unicode="&#x3be;" horiz-adv-x="1009" d="M84 303q0 100 40 174t100.5 123t130 75.5t130.5 33.5q-35 6 -74.5 22.5t-74.5 47t-58.5 75.5t-23.5 109q0 55 26.5 108t71.5 100.5t101.5 83t117.5 56.5h-229l14 55h727l-14 -55h-381q-72 -16 -138.5 -51t-116.5 -83.5t-80.5 -104.5t-30.5 -111q0 -57 25.5 -99.5 t69.5 -70t101 -42t123 -14.5h285l-15 -55h-270q-96 0 -184 -22.5t-156 -68.5t-107.5 -117t-39.5 -169q0 -129 109.5 -200.5t318.5 -71.5q98 0 145 -23.5t47 -89.5q0 -53 -30.5 -107.5t-92.5 -132.5h-71q59 72 92 123.5t33 100.5q0 43 -32 58t-91 15q-246 0 -372 84t-126 244 z" />
<glyph unicode="&#x3bf;" horiz-adv-x="1167" d="M104 406q0 119 41 228t113 193t169 135.5t212 51.5q94 0 172 -30t133 -86t85 -136t30 -178q0 -119 -41 -228.5t-112.5 -194.5t-169 -135.5t-212.5 -50.5q-94 0 -172 30t-133 86t-85 136t-30 179zM174 406q0 -170 92 -272.5t258 -102.5q100 0 185.5 47t148 124t97 177 t34.5 205q0 170 -92 272t-258 102q-100 0 -185 -47t-147.5 -123.5t-97.5 -177t-35 -204.5z" />
<glyph unicode="&#x3c0;" horiz-adv-x="1105" d="M78 0l213 934h-164l12 55h1057l-12 -55h-164l-213 -934h-62l213 934h-606l-213 -934h-61z" />
<glyph unicode="&#x3c1;" horiz-adv-x="1150" d="M-20 -377l196 873q25 113 73 208t114.5 164.5t150.5 107.5t182 38q92 0 159 -32t111 -87t65.5 -129t21.5 -158q0 -129 -38 -243.5t-106.5 -200.5t-163.5 -137.5t-210 -51.5q-129 0 -223.5 57.5t-145.5 145.5l-125 -555h-61zM178 231q39 -82 131.5 -141t225.5 -59 q102 0 185 49t141.5 129t90 182.5t31.5 208.5q0 70 -16.5 134.5t-51 114.5t-89 79.5t-130.5 29.5q-90 0 -163.5 -35.5t-132 -98t-99.5 -147.5t-63 -181z" />
<glyph unicode="&#x3c2;" horiz-adv-x="972" d="M104 410q0 123 42 232.5t115 192.5t171 131t213 48q238 0 342 -176l-49 -35q-47 82 -124 118.5t-163 36.5q-113 0 -202 -47t-150 -124.5t-94 -177t-33 -206.5q0 -186 108.5 -279t290.5 -93q98 0 145.5 -23.5t47.5 -89.5q0 -53 -31 -107.5t-92 -132.5h-72 q59 66 97.5 120.5t38.5 101.5q0 45 -39 60t-111 15q-215 0 -333 111t-118 324z" />
<glyph unicode="&#x3c3;" horiz-adv-x="1167" d="M109 406q0 113 43 218t124.5 187t197.5 130t263 48h484l-13 -55h-288q55 -51 98 -135t43 -215q0 -119 -41 -228.5t-112.5 -194.5t-170 -135.5t-213.5 -50.5q-94 0 -171 30t-131 86t-83.5 136t-29.5 179zM176 406q0 -170 91 -272.5t257 -102.5q100 0 186.5 47t149 124 t97 177.5t34.5 204.5q0 127 -46 218t-124 132h-96q-133 0 -234.5 -47t-172 -122t-106.5 -170t-36 -189z" />
<glyph unicode="&#x3c4;" horiz-adv-x="935" d="M166 934l12 55h809l-12 -55h-375l-170 -760q-16 -78 15.5 -110.5t82.5 -32.5q33 0 63 13t50 30l25 -49q-29 -23 -62 -36.5t-74 -13.5t-75.5 11.5t-57 35t-32 61.5t3.5 91l170 760h-373z" />
<glyph unicode="&#x3c5;" horiz-adv-x="1124" d="M145.5 242q-6.5 82 16.5 182l129 565h61l-129 -565q-41 -184 15.5 -288.5t218.5 -104.5q109 0 201 49t158.5 134t104 196.5t37.5 236.5q0 90 -20 179t-66 153l56 35q47 -72 71.5 -168t24.5 -201q0 -135 -43 -257t-119 -214t-180 -145.5t-225 -53.5q-96 0 -164 33 t-104.5 92.5t-43 141.5z" />
<glyph unicode="&#x3c6;" horiz-adv-x="1433" d="M113 426q0 106 37.5 197.5t103 165t154 131t188.5 94.5l22 -53q-98 -41 -179 -93.5t-138 -119t-89 -146.5t-32 -176q0 -80 20.5 -147.5t67.5 -118.5t124 -85t190 -42l223 981h31q129 0 222 -32t153.5 -90t89 -138.5t28.5 -178.5q0 -113 -45 -220t-130 -192t-209 -136.5 t-281 -51.5h-33l-80 -352h-62l80 357q-123 10 -210 45.5t-141 93t-79.5 135.5t-25.5 172zM643 31h21q156 0 268 51t185 130t108 175t35 188q0 80 -19.5 148t-67 119t-125 81.5t-194.5 34.5z" />
<glyph unicode="&#x3c7;" horiz-adv-x="966" d="M-152 -377l564 703l-230 663h66l205 -606l483 606h78l-533 -663l244 -703h-66l-219 645l-514 -645h-78z" />
<glyph unicode="&#x3c8;" horiz-adv-x="1433" d="M150 313q0 31 4 65t16 87l121 524h61l-123 -536q-10 -41 -14 -77t-4 -63q0 -55 20.5 -103t64.5 -85t114.5 -61.5t171.5 -30.5l305 1333h61l-305 -1335h14q98 0 184.5 27.5t155 77.5t116.5 123t69 165l129 565h61l-133 -581q-23 -98 -75 -178t-127.5 -136.5t-172 -87.5 t-207.5 -31h-26l-80 -352h-62l80 357q-221 14 -320 101t-99 232z" />
<glyph unicode="&#x3c9;" horiz-adv-x="1576" d="M102 346q0 70 17.5 161t56.5 183t101.5 178t152.5 146l31 -51q-68 -47 -121 -116t-90 -149t-57.5 -169t-20.5 -177q0 -66 10.5 -123t36 -102t69.5 -70.5t111 -25.5q68 0 125.5 37.5t102.5 101t77.5 147.5t55.5 179l57 254h62l-58 -254q-20 -90 -20 -174t24.5 -148.5 t76.5 -103.5t136 -39q78 0 146.5 53t121 143t83 208t30.5 247q0 78 -17.5 157t-64.5 132l47 43q53 -59 77 -145.5t24 -184.5q0 -150 -37 -279t-98.5 -224t-142.5 -150.5t-169 -55.5q-92 0 -148 31t-88 78t-42 103.5t-10 105.5q-20 -55 -53 -112.5t-78.5 -102.5t-100.5 -74 t-119 -29q-78 0 -134 29t-92 78t-53.5 116.5t-17.5 147.5z" />
<glyph unicode="&#x3ca;" horiz-adv-x="442" d="M104 174l181 815h61l-180 -815q-14 -63 2 -103t72 -40q27 0 43 4l-7 -55q-10 -2 -22.5 -3.5t-26.5 -1.5q-86 0 -114.5 53.5t-8.5 145.5zM105 1219q0 27 18 45t45 18q23 0 37 -14t14 -37q0 -27 -18.5 -45.5t-44.5 -18.5q-23 0 -37 14.5t-14 37.5zM518 1219q0 27 18.5 45 t45.5 18q23 0 37 -14t14 -37q0 -27 -18.5 -45.5t-45.5 -18.5q-23 0 -37 14.5t-14 37.5z" />
<glyph unicode="&#x3cb;" horiz-adv-x="1124" d="M145.5 242q-6.5 82 16.5 182l129 565h61l-129 -565q-41 -184 15.5 -288.5t218.5 -104.5q109 0 201 49t158.5 134t104 196.5t37.5 236.5q0 90 -20 179t-66 153l56 35q47 -72 71.5 -168t24.5 -201q0 -135 -43 -257t-119 -214t-180 -145.5t-225 -53.5q-96 0 -164 33 t-104.5 92.5t-43 141.5zM480 1219q0 27 18 45t45 18q23 0 37 -14t14 -37q0 -27 -18.5 -45.5t-44.5 -18.5q-23 0 -37 14.5t-14 37.5zM893 1219q0 27 18.5 45t45.5 18q23 0 37 -14t14 -37q0 -27 -18.5 -45.5t-45.5 -18.5q-23 0 -37 14.5t-14 37.5z" />
<glyph unicode="&#x3cc;" horiz-adv-x="1167" d="M104 406q0 119 41 228t113 193t169 135.5t212 51.5q94 0 172 -30t133 -86t85 -136t30 -178q0 -119 -41 -228.5t-112.5 -194.5t-169 -135.5t-212.5 -50.5q-94 0 -172 30t-133 86t-85 136t-30 179zM174 406q0 -170 92 -272.5t258 -102.5q100 0 185.5 47t148 124t97 177 t34.5 205q0 170 -92 272t-258 102q-100 0 -185 -47t-147.5 -123.5t-97.5 -177t-35 -204.5zM706 1178l123 389h106l-184 -389h-45z" />
<glyph unicode="&#x3cd;" horiz-adv-x="1124" d="M145.5 242q-6.5 82 16.5 182l129 565h61l-129 -565q-41 -184 15.5 -288.5t218.5 -104.5q109 0 201 49t158.5 134t104 196.5t37.5 236.5q0 90 -20 179t-66 153l56 35q47 -72 71.5 -168t24.5 -201q0 -135 -43 -257t-119 -214t-180 -145.5t-225 -53.5q-96 0 -164 33 t-104.5 92.5t-43 141.5zM704 1178l123 389h106l-184 -389h-45z" />
<glyph unicode="&#x3ce;" horiz-adv-x="1576" d="M102 346q0 70 17.5 161t56.5 183t101.5 178t152.5 146l31 -51q-68 -47 -121 -116t-90 -149t-57.5 -169t-20.5 -177q0 -66 10.5 -123t36 -102t69.5 -70.5t111 -25.5q68 0 125.5 37.5t102.5 101t77.5 147.5t55.5 179l57 254h62l-58 -254q-20 -90 -20 -174t24.5 -148.5 t76.5 -103.5t136 -39q78 0 146.5 53t121 143t83 208t30.5 247q0 78 -17.5 157t-64.5 132l47 43q53 -59 77 -145.5t24 -184.5q0 -150 -37 -279t-98.5 -224t-142.5 -150.5t-169 -55.5q-92 0 -148 31t-88 78t-42 103.5t-10 105.5q-20 -55 -53 -112.5t-78.5 -102.5t-100.5 -74 t-119 -29q-78 0 -134 29t-92 78t-53.5 116.5t-17.5 147.5zM913 1178l123 389h106l-184 -389h-45z" />
<glyph unicode="&#x401;" horiz-adv-x="1142" d="M70 0l301 1366h835l-12 -61h-770l-127 -572h756l-15 -61h-755l-136 -611h771l-13 -61h-835zM568 1561q0 27 18 45t45 18q23 0 37 -14t14 -37q0 -27 -18.5 -45.5t-44.5 -18.5q-23 0 -37 14.5t-14 37.5zM981 1561q0 27 18.5 45t45.5 18q23 0 37 -14t14 -37 q0 -27 -18.5 -45.5t-45.5 -18.5q-23 0 -37 14.5t-14 37.5z" />
<glyph unicode="&#x402;" horiz-adv-x="1591" d="M254 1305l12 61h989l-12 -61h-463l-96 -435q82 16 166 28.5t201 12.5q225 0 309 -124.5t37 -348.5l-4 -10q-27 -119 -77 -205t-115.5 -141t-142.5 -81t-157 -26l12 62q154 0 263.5 102.5t150.5 288.5l4 10q45 207 -30.5 309.5t-262.5 102.5q-92 0 -188 -11.5t-180 -29.5 l-176 -809h-66l287 1305h-461z" />
<glyph unicode="&#x403;" horiz-adv-x="1091" d="M70 0l301 1366h835l-12 -61h-770l-289 -1305h-65zM721 1481l393 295h97l-424 -295h-66z" />
<glyph unicode="&#x404;" horiz-adv-x="1366" d="M152 561q0 188 64.5 341t168.5 261.5t238.5 167t273.5 58.5q160 0 296 -63.5t220 -201.5l-61 -39q-80 133 -202 187.5t-259 54.5q-106 0 -212 -40t-194 -116.5t-153.5 -187.5t-91.5 -250h813l-15 -61h-807q-6 -55 -6 -111q0 -119 37 -216t105.5 -165.5t166 -105.5 t218.5 -37q104 0 203.5 36t201.5 120l41 -48q-100 -86 -214.5 -128t-235.5 -42q-133 0 -243 42t-187.5 119t-121.5 184.5t-44 240.5z" />
<glyph unicode="&#x405;" horiz-adv-x="1177" d="M63 211l60 43q72 -102 183.5 -159.5t258.5 -57.5q102 0 175 31.5t120 81t68.5 109.5t21.5 118q0 84 -51 138t-127 95t-166 76t-165.5 80t-127 106.5t-51.5 155.5q0 76 36 141.5t95.5 114.5t139 77t169.5 28q154 0 274 -58.5t175 -152.5l-59 -43q-61 98 -166 145t-224 47 q-78 0 -144 -25.5t-115.5 -66.5t-78 -95.5t-28.5 -111.5q0 -76 51 -127t127 -91t166 -76t166 -83t127 -112.5t51 -161.5q0 -72 -28.5 -143.5t-87 -129t-145.5 -93.5t-204 -36q-84 0 -162 18.5t-142.5 50.5t-113.5 75t-78 92z" />
<glyph unicode="&#x406;" horiz-adv-x="425" d="M70 0l301 1366h65l-301 -1366h-65z" />
<glyph unicode="&#x407;" horiz-adv-x="425" d="M70 0l301 1366h65l-301 -1366h-65zM185 1561q0 27 18 45t45 18q23 0 37 -14t14 -37q0 -27 -18.5 -45.5t-44.5 -18.5q-23 0 -37 14.5t-14 37.5zM598 1561q0 27 18.5 45t45.5 18q23 0 37 -14t14 -37q0 -27 -18.5 -45.5t-45.5 -18.5q-23 0 -37 14.5t-14 37.5z" />
<glyph unicode="&#x408;" horiz-adv-x="952" d="M-33 164l56 41q41 -80 113.5 -124t176.5 -44q152 0 242 95t125 247l217 987h66l-218 -987q-47 -205 -159.5 -304.5t-272.5 -99.5q-117 0 -208 48.5t-138 140.5z" />
<glyph unicode="&#x409;" horiz-adv-x="2134" d="M-37 -25l12 62q70 0 132.5 26.5t125 100.5t127 204t138.5 337l235 661h699l-129 -592h407q94 0 160.5 -30.5t106.5 -84t51.5 -124t-5.5 -148.5q-16 -78 -58 -148.5t-104.5 -124t-144.5 -84t-176 -30.5h-473l287 1305h-576l-217 -609q-84 -236 -158.5 -377t-146.5 -217.5 t-143.5 -101.5t-149.5 -25zM1145 61h405q76 0 142.5 25t119 68t88 102t52.5 131q14 70 5 130.5t-43 103.5t-89.5 67.5t-130.5 24.5h-406z" />
<glyph unicode="&#x40a;" horiz-adv-x="2134" d="M70 0l299 1366h65l-139 -633h932l139 633h66l-140 -633h428q88 0 152.5 -29.5t102.5 -80t49.5 -117t-5.5 -139.5q-16 -74 -56 -140.5t-99.5 -117t-136 -80t-166.5 -29.5h-494l147 672h-931l-148 -672h-65zM1145 61h428q70 0 131 22.5t110.5 63.5t84 97.5t49.5 122.5 q29 133 -35 219t-205 86h-428z" />
<glyph unicode="&#x40b;" horiz-adv-x="1591" d="M254 1305l12 61h989l-12 -61h-463l-96 -435q82 16 166 28.5t201 12.5q113 0 189.5 -31.5t120.5 -89t54 -136.5t-10 -173l-105 -481h-65l104 483q39 174 -37.5 270.5t-263.5 96.5q-92 0 -188 -11.5t-180 -29.5l-176 -809h-66l287 1305h-461z" />
<glyph unicode="&#x40c;" horiz-adv-x="1169" d="M70 0l301 1366h65l-172 -778l877 778h94l-737 -653l497 -713h-80l-462 678l-209 -184l-109 -494h-65zM704 1481l393 295h97l-424 -295h-66z" />
<glyph unicode="&#x40e;" horiz-adv-x="1249" d="M-53 106l61 44q23 -49 62 -81t106 -32q39 0 69.5 11t61.5 37t66 67t82 100l102 131l-326 983h70l303 -920l709 920h82l-885 -1145q-92 -121 -169 -183.5t-177 -62.5q-160 0 -217 131zM496 1636l47 39q39 -76 110.5 -120t172.5 -44q100 0 191 44t161 120l37 -39 q-80 -84 -183.5 -132t-213.5 -48q-111 0 -194 48t-128 132z" />
<glyph unicode="&#x40f;" horiz-adv-x="1423" d="M70 0l299 1366h65l-287 -1305h932l287 1305h66l-299 -1366h-500l-55 -258h-66l55 258h-497z" />
<glyph unicode="&#x410;" horiz-adv-x="1302" d="M-68 0l871 1366h78l268 -1366h-72l-71 367h-762l-232 -367h-80zM283 428h712l-166 862z" />
<glyph unicode="&#x411;" horiz-adv-x="1136" d="M70 0l299 1366h815l-13 -61h-749l-117 -531h383q74 0 136.5 -26.5t107.5 -72.5t70.5 -106.5t25.5 -126.5q0 -80 -27.5 -158.5t-87 -142t-151.5 -102.5t-219 -39h-473zM147 61h406q102 0 178 32t126 84t74.5 122t24.5 143q0 53 -21.5 102.5t-58 86.5t-87 59.5t-109.5 22.5 h-389z" />
<glyph unicode="&#x412;" horiz-adv-x="1228" d="M70 0l301 1366h485q63 0 121.5 -20.5t104.5 -59.5t74 -95t28 -128q0 -76 -25.5 -140.5t-70 -113.5t-102.5 -80t-122 -39q41 -10 78 -37.5t64.5 -66.5t43 -85t15.5 -95q0 -80 -28.5 -153t-86 -129t-143.5 -90t-201 -34h-536zM147 61h471q92 0 162 30t118 78t71.5 109.5 t23.5 127.5q0 113 -72.5 189.5t-205.5 76.5h-432zM297 733h471q94 0 159.5 30t106.5 77t58.5 105.5t17.5 117.5q0 51 -20.5 95t-56.5 77t-85 51.5t-104 18.5h-420z" />
<glyph unicode="&#x413;" horiz-adv-x="1091" d="M70 0l301 1366h835l-12 -61h-770l-289 -1305h-65z" />
<glyph unicode="&#x414;" horiz-adv-x="1454" d="M-88 -252l68 313q70 4 132 28t123.5 91.5t125 192.5t137.5 332l235 661h699l-287 -1305h121l-68 -313h-65l55 252h-1155l-56 -252h-65zM168 61h911l275 1244h-576l-217 -609q-53 -152 -103 -260t-98.5 -183t-95.5 -121t-96 -71z" />
<glyph unicode="&#x415;" horiz-adv-x="1142" d="M70 0l301 1366h835l-12 -61h-770l-127 -572h756l-15 -61h-755l-136 -611h771l-13 -61h-835z" />
<glyph unicode="&#x416;" horiz-adv-x="1789" d="M-47 0l811 713l-451 653h82l496 -729l160 729h65l-155 -713l798 713h94l-737 -653l500 -713h-82l-463 676l-131 -115l-123 -561h-65l120 557l-73 111l-752 -668h-94z" />
<glyph unicode="&#x417;" horiz-adv-x="1150" d="M10 260l64 27q41 -115 152.5 -182.5t267.5 -67.5q98 0 176 27.5t133 76.5t83.5 117t28.5 148q0 123 -102 196.5t-276 73.5h-232l14 61h312q72 0 144.5 19.5t132 59.5t97 98.5t37.5 138.5q0 55 -25.5 105t-74.5 87t-118.5 58.5t-157.5 21.5q-104 0 -199.5 -34t-181.5 -120 l-43 48q76 78 187.5 122.5t236.5 44.5q94 0 175 -21.5t139 -64.5t92 -105t34 -142q0 -86 -38 -151.5t-97.5 -111t-130 -70t-135.5 -26.5q55 -6 104 -30.5t88 -62.5t61.5 -88t22.5 -107q0 -86 -33 -164t-96.5 -137.5t-153 -94.5t-204.5 -35q-88 0 -168 21.5t-143.5 59.5 t-108.5 90.5t-64 113.5z" />
<glyph unicode="&#x418;" horiz-adv-x="1413" d="M70 0l301 1366h67l-278 -1255l1198 1255h65l-301 -1366h-67l280 1268l-1200 -1268h-65z" />
<glyph unicode="&#x419;" horiz-adv-x="1413" d="M70 0l301 1366h67l-278 -1255l1198 1255h65l-301 -1366h-67l280 1268l-1200 -1268h-65zM582 1636l47 39q39 -76 110.5 -120t172.5 -44q100 0 191 44t161 120l37 -39q-80 -84 -183.5 -132t-213.5 -48q-111 0 -194 48t-128 132z" />
<glyph unicode="&#x41a;" horiz-adv-x="1169" d="M70 0l301 1366h65l-172 -778l877 778h94l-737 -653l497 -713h-80l-462 678l-209 -184l-109 -494h-65z" />
<glyph unicode="&#x41b;" horiz-adv-x="1423" d="M-39 -25l12 62q70 0 133.5 26.5t126 100.5t127 204t138.5 337l235 661h699l-299 -1366h-66l287 1305h-576l-217 -609q-84 -236 -158.5 -377t-146.5 -217.5t-143.5 -101.5t-151.5 -25z" />
<glyph unicode="&#x41c;" horiz-adv-x="1576" d="M70 0l301 1366h100l234 -1223l774 1223h108l-301 -1366h-65l284 1288l-817 -1288h-20l-248 1288l-285 -1288h-65z" />
<glyph unicode="&#x41d;" horiz-adv-x="1423" d="M70 0l301 1366h65l-139 -633h932l139 633h66l-301 -1366h-66l147 672h-931l-148 -672h-65z" />
<glyph unicode="&#x41e;" horiz-adv-x="1564" d="M152 561q0 174 59 325.5t160.5 263.5t237.5 175.5t288 63.5q123 0 231.5 -38t189.5 -112t128 -183.5t47 -252.5q0 -176 -59.5 -326.5t-161 -262.5t-237 -175.5t-287.5 -63.5q-123 0 -231.5 38t-189.5 112t-128 183.5t-47 252.5zM225 561q0 -129 42 -227t115 -165 t168.5 -99.5t201.5 -32.5q131 0 251.5 56.5t213 157.5t147.5 241.5t55 310.5q0 129 -43 227t-114.5 165t-168 99.5t-202.5 32.5q-133 0 -253 -56.5t-212 -157.5t-146.5 -242.5t-54.5 -309.5z" />
<glyph unicode="&#x41f;" horiz-adv-x="1423" d="M70 0l301 1366h1063l-301 -1366h-66l287 1305h-932l-287 -1305h-65z" />
<glyph unicode="&#x420;" horiz-adv-x="1136" d="M70 0l301 1366h448q74 0 136.5 -26.5t107.5 -72.5t70.5 -106.5t25.5 -126.5q0 -80 -27.5 -158.5t-88 -142t-152.5 -102.5t-221 -39h-404l-131 -592h-65zM279 653h405q102 0 178 32t126 84t74.5 122t24.5 143q0 53 -21.5 102.5t-58 86.5t-87 59.5t-109.5 22.5h-387z" />
<glyph unicode="&#x421;" horiz-adv-x="1366" d="M152 561q0 188 64.5 341t168.5 261.5t238.5 167t273.5 58.5q160 0 296 -63.5t220 -201.5l-61 -39q-80 133 -202 187.5t-259 54.5q-123 0 -242 -52t-213 -151.5t-152.5 -242t-58.5 -320.5q0 -119 37 -216t105.5 -165.5t166 -105.5t218.5 -37q104 0 203.5 36t201.5 120 l41 -48q-100 -86 -214.5 -128t-235.5 -42q-133 0 -243 42t-187.5 119t-121.5 184.5t-44 240.5z" />
<glyph unicode="&#x422;" horiz-adv-x="1144" d="M256 1305l12 61h989l-12 -61h-463l-288 -1305h-66l289 1305h-461z" />
<glyph unicode="&#x423;" horiz-adv-x="1249" d="M-53 106l61 44q23 -49 62 -81t106 -32q39 0 69.5 11t61.5 37t66 67t82 100l102 131l-326 983h70l303 -920l709 920h82l-885 -1145q-92 -121 -169 -183.5t-177 -62.5q-160 0 -217 131z" />
<glyph unicode="&#x424;" horiz-adv-x="1564" d="M164 592q0 127 57.5 241.5t158.5 201.5t239.5 139.5t300.5 56.5l30 135h66l-31 -135q123 -6 216 -43t157.5 -98.5t97.5 -142.5t33 -175q0 -127 -57.5 -242.5t-159 -202.5t-239.5 -140.5t-300 -55.5l-28 -131h-66l29 131q-123 6 -217.5 43t-158 98.5t-96 142.5t-32.5 177z M236 592q0 -84 29.5 -155.5t87 -124t140 -84t189.5 -35.5l223 978q-147 -4 -270 -51t-212 -124.5t-138 -181t-49 -222.5zM748 193q143 6 266 52t213 123.5t140 181t50 222.5q0 84 -29.5 154.5t-87 123t-140.5 84t-189 35.5z" />
<glyph unicode="&#x425;" horiz-adv-x="1306" d="M-59 0l714 707l-383 659h78l352 -618l615 618h98l-676 -670l406 -696h-76l-377 657l-655 -657h-96z" />
<glyph unicode="&#x426;" horiz-adv-x="1454" d="M70 0l299 1366h65l-287 -1305h932l287 1305h66l-287 -1305h121l-68 -313h-65l55 252h-1118z" />
<glyph unicode="&#x427;" horiz-adv-x="1187" d="M237.5 849q-10.5 79 10.5 173l76 344h65l-76 -346q-39 -174 39 -270.5t264 -96.5q92 0 187.5 11.5t179.5 29.5l147 672h66l-299 -1366h-66l138 633q-82 -16 -166 -28.5t-201 -12.5q-113 0 -189.5 31.5t-120.5 89t-54.5 136.5z" />
<glyph unicode="&#x428;" horiz-adv-x="1978" d="M70 0l299 1366h65l-287 -1305h711l287 1305h65l-286 -1305h710l287 1305h66l-299 -1366h-1618z" />
<glyph unicode="&#x429;" horiz-adv-x="2009" d="M70 0l299 1366h65l-287 -1305h711l287 1305h65l-286 -1305h710l287 1305h66l-287 -1305h121l-68 -313h-65l55 252h-1673z" />
<glyph unicode="&#x42a;" horiz-adv-x="1495" d="M254 1305l12 61h527l-129 -592h383q74 0 136 -26.5t107 -72.5t70.5 -106.5t25.5 -126.5q0 -80 -27.5 -158.5t-87 -142t-151.5 -102.5t-219 -39h-473l287 1305h-461zM506 61h405q102 0 178 32t126.5 84t75 122t24.5 143q0 53 -21.5 102.5t-58.5 86.5t-88 59.5t-113 22.5 h-385z" />
<glyph unicode="&#x42b;" horiz-adv-x="1476" d="M70 0l299 1366h65l-129 -592h383q74 0 136.5 -26.5t107.5 -72.5t70.5 -106.5t25.5 -126.5q0 -80 -27.5 -158.5t-87 -142t-151.5 -102.5t-219 -39h-473zM147 61h406q102 0 178 32t126 84t74.5 122t24.5 143q0 53 -21.5 102.5t-58 86.5t-88 59.5t-112.5 22.5h-385zM1120 0 l299 1366h66l-299 -1366h-66z" />
<glyph unicode="&#x42c;" horiz-adv-x="1136" d="M70 0l299 1366h65l-129 -592h383q74 0 136.5 -26.5t107.5 -72.5t70.5 -106.5t25.5 -126.5q0 -80 -27.5 -158.5t-87 -142t-151.5 -102.5t-219 -39h-473zM147 61h406q102 0 178 32t126 84t74.5 122t24.5 143q0 53 -21.5 102.5t-58 86.5t-88 59.5t-112.5 22.5h-385z" />
<glyph unicode="&#x42d;" horiz-adv-x="1366" d="M33 240l61 39q80 -133 202 -187.5t259 -54.5q111 0 219.5 43t198.5 125t153.5 199.5t83.5 267.5h-784l12 61h781q2 16 2 33.5v36.5q0 119 -37 216t-105.5 165.5t-166 105.5t-218.5 37q-104 0 -203.5 -36t-201.5 -120l-41 48q100 86 214.5 128t235.5 42q131 0 242 -42 t188.5 -119t121.5 -185.5t44 -239.5q0 -188 -64.5 -341t-169 -261.5t-238.5 -167t-273 -58.5q-160 0 -296 63.5t-220 201.5z" />
<glyph unicode="&#x42e;" horiz-adv-x="1959" d="M70 0l299 1366h65l-139 -633h285q37 139 112.5 259t179 208t230.5 138.5t270 50.5q147 0 256 -55.5t172.5 -151t80.5 -224.5t-15 -276q-33 -147 -108 -276.5t-180 -224.5t-237.5 -150.5t-279.5 -55.5t-256 54.5t-172.5 147.5t-80.5 220t13 275h-282l-148 -672h-65z M622.5 425q14.5 -118 70 -204t151.5 -135t229 -49q131 0 249 49t212 135t161.5 204t98.5 257q31 141 15.5 259t-72 204t-152.5 134t-227 48q-133 0 -251 -48t-211 -134t-159.5 -204t-97.5 -259q-31 -139 -16.5 -257z" />
<glyph unicode="&#x42f;" horiz-adv-x="1185" d="M0 0l555 590q-53 4 -110.5 26.5t-104.5 63.5t-77 101.5t-30 140.5q0 96 34 177t98.5 140t154.5 93t205 34h471l-303 -1366h-66l131 590h-321l-549 -590h-88zM307 922q0 -59 23.5 -109.5t64.5 -86.5t95.5 -55.5t115.5 -19.5h365l143 654h-403q-98 0 -174 -32t-127.5 -84 t-77 -122t-25.5 -145z" />
<glyph unicode="&#x430;" horiz-adv-x="1159" d="M104 381q0 129 38 243.5t106.5 200.5t164 137.5t210.5 51.5q129 0 223 -57.5t145 -145.5l39 178h62l-220 -989h-61l35 158q-59 -80 -150.5 -131.5t-201.5 -51.5q-86 0 -157 28t-123 80t-81 127t-29 171zM174 389q0 -166 88 -262t236 -96q57 0 111.5 17.5t102.5 47 t87 67.5t67 81l113 514q-39 82 -131 141t-225 59q-102 0 -185.5 -49t-141.5 -129t-90 -182t-32 -209z" />
<glyph unicode="&#x431;" horiz-adv-x="1181" d="M104 406q0 43 6.5 86t15.5 80.5t17.5 67.5t14.5 48q45 139 108.5 238.5t148.5 166t188.5 104.5t227.5 54q88 14 147.5 27.5t96.5 28t53.5 29t20.5 30.5h55q-10 -43 -44 -71.5t-86 -48t-115.5 -32t-131.5 -22.5q-145 -25 -243.5 -63.5t-166 -94t-112.5 -127t-82 -162.5 q31 55 72 103.5t95 85.5t118.5 58.5t140.5 21.5q90 0 166 -30t130 -86t84 -136t30 -178q0 -119 -41 -228.5t-112.5 -194.5t-169 -135.5t-212.5 -50.5q-94 0 -172 30t-133 86t-85 136t-30 179zM174 406q0 -170 92 -272.5t258 -102.5q100 0 185.5 47t148 124t97 177t34.5 205 q0 170 -92 272t-258 102q-100 0 -185 -47t-147.5 -123.5t-97.5 -177t-35 -204.5z" />
<glyph unicode="&#x432;" horiz-adv-x="1079" d="M66 0l217 989h391q53 0 103 -12t89 -39t62.5 -69t23.5 -101q0 -90 -57 -166t-168 -98q61 -23 102 -82.5t41 -126.5q0 -131 -91 -213t-253 -82h-460zM137 55h404q57 0 105 18.5t83 50.5t55.5 76t20.5 95q0 78 -53.5 133t-153.5 55h-367zM244 539h407q57 0 102.5 19.5 t74 52t44 72.5t15.5 83q0 86 -65.5 127t-157.5 41h-332z" />
<glyph unicode="&#x433;" horiz-adv-x="845" d="M66 0l217 989h606l-12 -55h-545l-205 -934h-61z" />
<glyph unicode="&#x434;" horiz-adv-x="1116" d="M-129 -252l66 301q39 4 76.5 25.5t76.5 72t81 133t87 212.5l178 497h576l-205 -934h121l-68 -307h-61l57 252h-868l-58 -252h-59zM61 55h684l193 879h-459l-164 -451q-72 -195 -131 -293t-123 -135z" />
<glyph unicode="&#x435;" horiz-adv-x="1169" d="M104 410q0 125 43 234.5t117 191.5t172.5 130t210.5 48q100 0 177 -34t129.5 -91.5t79 -135t26.5 -163.5q0 -29 -5 -62.5t-10 -52.5h-866q-2 -10 -3 -29.5t-1 -35.5q0 -80 24.5 -150t74 -120t122 -79.5t168.5 -29.5q78 0 161 28.5t153 87.5l30 -45q-66 -53 -156 -90 t-188 -37q-111 0 -195.5 33t-143 90.5t-89.5 137t-31 174.5zM184 530h809q2 10 3 26.5t1 27.5q0 166 -94 270t-266 104q-82 0 -156.5 -34.5t-136 -93t-103.5 -136.5t-57 -164z" />
<glyph unicode="&#x436;" horiz-adv-x="1392" d="M-59 0l594 543l-383 446h81l429 -504l110 504h62l-109 -491l635 491h94l-580 -446l357 -543h-82l-328 502l-114 -86l-91 -416h-61l90 416l-70 80l-540 -496h-94z" />
<glyph unicode="&#x437;" horiz-adv-x="1071" d="M39 152l45 32q59 -78 156.5 -115.5t226.5 -37.5q76 0 144.5 17.5t120.5 48t82 74.5t30 99q0 51 -29 90t-77 65t-109.5 38t-124.5 12h-238l13 55h237q86 0 162 14.5t133 44t90 76t33 107.5q0 92 -81 139t-218 47q-129 0 -228.5 -33.5t-185.5 -99.5l-35 43q94 72 204 109 t245 37q180 0 274.5 -64.5t94.5 -177.5q0 -72 -35 -123t-85 -84t-108.5 -49t-105.5 -18q35 -4 76.5 -18.5t77.5 -42t60.5 -68.5t24.5 -99q0 -72 -37.5 -126t-99 -92t-141.5 -57.5t-164 -19.5q-158 0 -263.5 45.5t-164.5 131.5z" />
<glyph unicode="&#x438;" d="M66 0l217 989h61l-197 -891l807 891h58l-217 -989h-62l197 899l-807 -899h-57z" />
<glyph unicode="&#x439;" d="M66 0l217 989h61l-197 -891l807 891h58l-217 -989h-62l197 899l-807 -899h-57zM342 1294l47 39q39 -76 110.5 -120t172.5 -44q100 0 191 44t161 120l37 -39q-80 -84 -183.5 -132t-213.5 -48q-111 0 -194 48t-128 132z" />
<glyph unicode="&#x43a;" horiz-adv-x="1015" d="M66 0l219 989h61l-133 -596l772 596h94l-581 -446l356 -543h-76l-329 504l-254 -195l-68 -309h-61z" />
<glyph unicode="&#x43b;" d="M-78 -25l12 56q37 0 76 23.5t79 77.5t82 142t87 218l178 497h576l-217 -989h-62l205 934h-459l-164 -451q-51 -143 -98 -240.5t-94 -156.5t-96.5 -85t-104.5 -26z" />
<glyph unicode="&#x43c;" horiz-adv-x="1212" d="M66 0l217 989h84l151 -872l535 872h90l-217 -989h-62l199 909l-557 -909h-19l-161 909l-199 -909h-61z" />
<glyph unicode="&#x43d;" d="M66 0l225 989h61l-102 -446h606l102 446h62l-225 -989h-62l111 487h-606l-111 -487h-61z" />
<glyph unicode="&#x43e;" horiz-adv-x="1167" d="M104 406q0 119 41 228t113 193t169 135.5t212 51.5q94 0 172 -30t133 -86t85 -136t30 -178q0 -119 -41 -228.5t-112.5 -194.5t-169 -135.5t-212.5 -50.5q-94 0 -172 30t-133 86t-85 136t-30 179zM174 406q0 -170 92 -272.5t258 -102.5q100 0 185.5 47t148 124t97 177 t34.5 205q0 170 -92 272t-258 102q-100 0 -185 -47t-147.5 -123.5t-97.5 -177t-35 -204.5z" />
<glyph unicode="&#x43f;" d="M66 0l225 989h729l-225 -989h-62l213 934h-606l-213 -934h-61z" />
<glyph unicode="&#x440;" horiz-adv-x="1150" d="M-18 -377l303 1366h61l-35 -158q59 80 150.5 131.5t202.5 51.5q86 0 156.5 -28t122.5 -80t81 -128t29 -170q0 -129 -38 -243.5t-106.5 -200.5t-163.5 -137.5t-210 -51.5q-129 0 -223.5 57.5t-145.5 145.5l-123 -555h-61zM178 231q39 -82 131.5 -141t225.5 -59 q102 0 185 49t141.5 129t90 182.5t31.5 208.5q0 166 -88 262t-236 96q-57 0 -111 -17t-102.5 -47t-88.5 -68t-66 -81z" />
<glyph unicode="&#x441;" horiz-adv-x="1009" d="M104 410q0 123 42 232.5t115 192.5t171 131t213 48q238 0 342 -176l-49 -35q-47 82 -124 118.5t-163 36.5q-113 0 -202 -47t-150 -124.5t-94 -177t-33 -206.5q0 -92 27.5 -162.5t77 -116.5t116 -69.5t144.5 -23.5q90 0 162.5 37.5t123.5 97.5l39 -43q-68 -70 -146 -109 t-184 -39q-90 0 -168.5 28t-136 83t-90.5 136t-33 188z" />
<glyph unicode="&#x442;" horiz-adv-x="776" d="M158 934l12 55h649l-12 -55h-295l-205 -934h-61l205 934h-293z" />
<glyph unicode="&#x443;" horiz-adv-x="964" d="M-92 -381l26 64q16 -8 41 -13.5t54 -5.5q41 0 78.5 25.5t87.5 99.5l135 205l-199 995h68l184 -917l592 917h76l-797 -1222q-53 -80 -112.5 -124t-133.5 -44q-55 0 -100 20z" />
<glyph unicode="&#x444;" horiz-adv-x="1527" d="M98 346q0 119 33 239t91.5 215t138.5 154.5t174 59.5q98 0 168.5 -53.5t97.5 -141.5l121 547h61l-117 -532q55 78 125 129t160 51q68 0 119 -28t85 -77t51 -116.5t17 -149.5q0 -121 -32.5 -239.5t-91 -214t-138.5 -155t-174 -59.5q-98 0 -168.5 53.5t-97.5 141.5 l-121 -547h-61l116 533q-55 -78 -124.5 -129.5t-159.5 -51.5q-68 0 -119 28t-85 77t-51.5 116.5t-17.5 149.5zM160 346q0 -160 61.5 -237.5t163.5 -77.5q43 0 84 16t77 43t67.5 62.5t58.5 74.5l116 531q-10 39 -32.5 75.5t-55 64.5t-74.5 44t-89 16q-82 0 -151 -55 t-119 -142t-78.5 -196.5t-28.5 -218.5zM733 231q8 -39 31.5 -75.5t56.5 -64.5t75 -44t89 -16q82 0 151.5 55t120 142t78 197t27.5 218q0 160 -61.5 237.5t-163.5 77.5q-43 0 -84 -16t-77 -43t-67.5 -62.5t-58.5 -74.5z" />
<glyph unicode="&#x445;" horiz-adv-x="966" d="M-66 0l515 508l-273 481h74l237 -438l435 438h86l-490 -481l293 -508h-74l-256 467l-461 -467h-86z" />
<glyph unicode="&#x446;" horiz-adv-x="1116" d="M66 0l217 989h61l-207 -934h606l207 934h62l-207 -934h123l-68 -307h-61l57 252h-790z" />
<glyph unicode="&#x447;" d="M202 529.5q-7 66.5 15 162.5l66 297h61l-65 -297q-18 -86 -12.5 -142t34.5 -89t78 -45.5t115 -12.5q43 0 91 6.5t94 17.5t88 25.5t71 30.5l112 506h62l-217 -989h-62l94 432q-35 -16 -78.5 -31.5t-90 -27t-92.5 -18.5t-85 -7q-86 0 -145.5 17.5t-93 57.5t-40.5 106.5z " />
<glyph unicode="&#x448;" horiz-adv-x="1579" d="M66 0l217 989h61l-207 -934h520l207 934h62l-207 -934h522l207 934h61l-217 -989h-1226z" />
<glyph unicode="&#x449;" horiz-adv-x="1613" d="M66 0l217 989h61l-207 -934h520l207 934h62l-207 -934h522l207 934h61l-206 -934h122l-67 -307h-62l58 252h-1288z" />
<glyph unicode="&#x44a;" horiz-adv-x="1196" d="M158 934l12 55h354l-94 -422h399q70 0 119 -22.5t77 -61.5t36 -91t-4 -109t-42 -108.5t-75 -90.5t-104.5 -61.5t-128.5 -22.5h-461l205 934h-293zM317 55h400q111 0 181.5 63.5t92.5 164.5q23 100 -18 164.5t-156 64.5h-399z" />
<glyph unicode="&#x44b;" horiz-adv-x="1341" d="M66 0l217 989h61l-94 -422h364q125 0 195 -65.5t70 -173.5q0 -66 -24 -125.5t-67 -104.5t-105 -71.5t-138 -26.5h-479zM137 55h420q59 0 106.5 21.5t81 58.5t51 86t17.5 107q0 86 -53 135t-158 49h-364zM993 0l217 989h62l-217 -989h-62z" />
<glyph unicode="&#x44c;" horiz-adv-x="1015" d="M66 0l217 989h61l-94 -422h364q125 0 195 -65.5t70 -173.5q0 -66 -24 -125.5t-67 -104.5t-105 -71.5t-138 -26.5h-479zM137 55h420q59 0 106.5 21.5t81 58.5t51 86t17.5 107q0 86 -53 135t-158 49h-364z" />
<glyph unicode="&#x44d;" horiz-adv-x="1009" d="M104 152l50 34q47 -82 123.5 -118.5t162.5 -36.5q98 0 178 35.5t139.5 96t98.5 141.5t53 171h-571l12 57h568q0 12 1 25.5t1 28.5q0 92 -28 162.5t-77 116.5t-115.5 69.5t-144.5 23.5q-90 0 -163 -37.5t-124 -97.5l-39 43q68 70 146 109t184 39q90 0 169 -28t136.5 -83 t90 -136t32.5 -187q0 -123 -42 -232.5t-114.5 -192.5t-172 -131.5t-212.5 -48.5q-238 0 -342 177z" />
<glyph unicode="&#x44e;" horiz-adv-x="1501" d="M66 0l217 989h61l-98 -446h207q20 96 67 182t116 150.5t153.5 101.5t183.5 37q94 0 172 -30t133 -86t85 -136t30 -178q0 -119 -41 -228.5t-113 -194.5t-169 -135.5t-212 -50.5q-94 0 -172 30t-133 86t-85 136t-30 179q0 20 1 40.5t3 40.5h-209l-106 -487h-61zM508 406 q0 -170 92 -272.5t258 -102.5q100 0 185 47t147.5 124t97.5 177t35 205q0 170 -92 272t-258 102q-100 0 -185.5 -47t-147.5 -123.5t-97 -177t-35 -204.5z" />
<glyph unicode="&#x44f;" horiz-adv-x="1079" d="M37 0l385 424q-98 8 -162.5 68.5t-64.5 169.5q0 66 23.5 125t66.5 104t104.5 71.5t138.5 26.5h482l-217 -989h-62l92 422h-331l-375 -422h-80zM260 662q0 -86 50 -135.5t128 -49.5h398l100 457h-420q-59 0 -106.5 -21.5t-81 -58.5t-51 -86t-17.5 -106z" />
<glyph unicode="&#x451;" horiz-adv-x="1169" d="M104 410q0 125 43 234.5t117 191.5t172.5 130t210.5 48q100 0 177 -34t129.5 -91.5t79 -135t26.5 -163.5q0 -29 -5 -62.5t-10 -52.5h-866q-2 -10 -3 -29.5t-1 -35.5q0 -80 24.5 -150t74 -120t122 -79.5t168.5 -29.5q78 0 161 28.5t153 87.5l30 -45q-66 -53 -156 -90 t-188 -37q-111 0 -195.5 33t-143 90.5t-89.5 137t-31 174.5zM184 530h809q2 10 3 26.5t1 27.5q0 166 -94 270t-266 104q-82 0 -156.5 -34.5t-136 -93t-103.5 -136.5t-57 -164zM480 1219q0 27 18 45t45 18q23 0 37 -14t14 -37q0 -27 -18.5 -45.5t-44.5 -18.5q-23 0 -37 14.5 t-14 37.5zM893 1219q0 27 18.5 45t45.5 18q23 0 37 -14t14 -37q0 -27 -18.5 -45.5t-45.5 -18.5q-23 0 -37 14.5t-14 37.5z" />
<glyph unicode="&#x452;" d="M66 0l241 1108h-155l12 55h155l46 203h61l-45 -203h340l-12 -55h-340l-60 -274q35 33 82 65.5t100.5 58t108.5 41t107 15.5q147 0 212.5 -73t26.5 -247l-186 -850q-29 -129 -108 -187t-191 -58q-59 0 -98 19.5t-72 57.5l49 52q18 -29 52 -51.5t81 -22.5q78 0 140.5 44 t84.5 146l187 850q16 78 9 129t-33.5 81t-72 42t-102.5 12q-51 0 -105.5 -15t-106.5 -40.5t-98 -59.5t-81 -71l-168 -772h-61z" />
<glyph unicode="&#x453;" horiz-adv-x="845" d="M66 0l217 989h606l-12 -55h-545l-205 -934h-61zM528 1139l393 295h97l-424 -295h-66z" />
<glyph unicode="&#x454;" horiz-adv-x="1009" d="M104 410q0 123 42 232.5t115 192.5t171 131t213 48q238 0 342 -176l-49 -35q-47 82 -124 118.5t-163 36.5q-96 0 -174 -33.5t-137 -92t-98 -136.5t-58 -164h572l-13 -57h-567q-4 -18 -4 -36.5v-35.5q0 -92 27.5 -162.5t77 -116.5t116 -69.5t144.5 -23.5q90 0 162.5 37.5 t123.5 97.5l39 -43q-68 -70 -146 -109t-184 -39q-90 0 -168.5 28t-136 83t-90.5 136t-33 188z" />
<glyph unicode="&#x455;" horiz-adv-x="929" d="M27 147l55 41q37 -63 118 -110t197 -47q70 0 125.5 19.5t94 52t59 75.5t20.5 88q0 59 -40 99.5t-99 70t-129 56t-129 59.5t-99 76t-40 106q0 57 23.5 108.5t67.5 90.5t108.5 60.5t146.5 21.5q129 0 219 -50.5t125 -111.5l-51 -39q-16 31 -46 57.5t-70 46t-88 30.5t-97 11 q-125 0 -200 -59t-75 -145q0 -55 40 -93t99.5 -67t129 -54.5t129 -59.5t99.5 -80t40 -115q0 -59 -23.5 -114.5t-68.5 -98.5t-112 -70t-153 -27q-264 0 -376 172z" />
<glyph unicode="&#x456;" horiz-adv-x="413" d="M66 0l219 989h61l-219 -989h-61zM303 1212q0 29 22.5 47.5t45.5 18.5t39 -15.5t16 -37.5q0 -29 -22.5 -47.5t-45.5 -18.5t-39 15.5t-16 37.5z" />
<glyph unicode="&#x457;" horiz-adv-x="413" d="M66 0l219 989h61l-219 -989h-61zM105 1219q0 27 18 45t45 18q23 0 37 -14t14 -37q0 -27 -18.5 -45.5t-44.5 -18.5q-23 0 -37 14.5t-14 37.5zM518 1219q0 27 18.5 45t45.5 18q23 0 37 -14t14 -37q0 -27 -18.5 -45.5t-45.5 -18.5q-23 0 -37 14.5t-14 37.5z" />
<glyph unicode="&#x458;" horiz-adv-x="413" d="M-367 -313l43 45q23 -33 65 -55.5t89 -22.5q76 0 127 44t74 146l254 1145h61l-254 -1145q-29 -129 -90.5 -187t-165.5 -58q-61 0 -115.5 21.5t-87.5 66.5zM303 1212q0 29 22.5 47.5t45.5 18.5t39 -15.5t16 -37.5q0 -29 -22.5 -47.5t-45.5 -18.5t-39 15.5t-16 37.5z" />
<glyph unicode="&#x459;" horiz-adv-x="1683" d="M-80 -25l12 56q39 0 78 23.5t79 77.5t82 142t87 218l178 497h576l-94 -422h364q125 0 194.5 -65.5t69.5 -173.5q0 -66 -23.5 -125.5t-66.5 -104.5t-105.5 -71.5t-138.5 -26.5h-479l205 934h-459l-164 -451q-51 -143 -98 -240.5t-94 -156.5t-97.5 -85t-105.5 -26zM805 55 h420q59 0 106 21.5t81 58.5t51.5 86t17.5 107q0 86 -53.5 135t-157.5 49h-365z" />
<glyph unicode="&#x45a;" horiz-adv-x="1683" d="M66 0l217 989h61l-98 -446h606l98 446h62l-99 -446h379q121 0 187.5 -62.5t66.5 -167.5q0 -63 -22.5 -119.5t-64.5 -99.5t-100.5 -68.5t-131.5 -25.5h-494l107 487h-607l-106 -487h-61zM805 55h434q55 0 100 20.5t77 55.5t48.5 82t16.5 100q0 82 -50.5 128t-148.5 46 h-381z" />
<glyph unicode="&#x45b;" horiz-adv-x="1085" d="M70 0l243 1108h-155l12 55h156l45 203h61l-45 -203h340l-12 -55h-340l-60 -274q35 33 77 65.5t89 58t97.5 41t101.5 15.5q61 0 112.5 -14.5t89.5 -43t59.5 -73.5t21.5 -107q0 -12 -4.5 -40.5t-8.5 -45.5l-151 -690h-62l154 694q4 14 8 38t4 38q0 100 -66.5 144t-168.5 44 q-51 0 -101.5 -16t-98.5 -43t-90 -61.5t-77 -71.5l-170 -766h-61z" />
<glyph unicode="&#x45c;" horiz-adv-x="1015" d="M66 0l219 989h61l-133 -596l772 596h94l-581 -446l356 -543h-76l-329 504l-254 -195l-68 -309h-61zM561 1139l393 295h97l-424 -295h-66z" />
<glyph unicode="&#x45e;" horiz-adv-x="964" d="M-92 -381l26 64q16 -8 41 -13.5t54 -5.5q41 0 78.5 25.5t87.5 99.5l135 205l-199 995h68l184 -917l592 917h76l-797 -1222q-53 -80 -112.5 -124t-133.5 -44q-55 0 -100 20zM278 1294l47 39q39 -76 110.5 -120t172.5 -44q100 0 191 44t161 120l37 -39q-80 -84 -183.5 -132 t-213.5 -48q-111 0 -194 48t-128 132z" />
<glyph unicode="&#x45f;" d="M66 0l217 989h61l-207 -934h606l207 934h62l-217 -989h-336l-56 -256h-61l55 256h-331z" />
<glyph unicode="&#x490;" horiz-adv-x="1091" d="M70 0l299 1366h770l55 254h66l-68 -315h-770l-287 -1305h-65z" />
<glyph unicode="&#x491;" horiz-adv-x="845" d="M66 0l217 989h544l56 256h61l-67 -311h-545l-205 -934h-61z" />
<glyph unicode="&#x1e02;" horiz-adv-x="1228" d="M70 0l301 1366h485q63 0 121.5 -20.5t104.5 -59.5t74 -95t28 -128q0 -76 -25.5 -140.5t-70 -113.5t-102.5 -80t-122 -39q41 -10 78 -37.5t64.5 -66.5t43 -85t15.5 -95q0 -80 -28.5 -153t-86 -129t-143.5 -90t-201 -34h-536zM147 61h471q92 0 162 30t118 78t71.5 109.5 t23.5 127.5q0 113 -72.5 189.5t-205.5 76.5h-432zM297 733h471q94 0 159.5 30t106.5 77t58.5 105.5t17.5 117.5q0 51 -20.5 95t-56.5 77t-85 51.5t-104 18.5h-420zM793 1554q0 27 18.5 46.5t46.5 19.5q23 0 38.5 -15t15.5 -38q0 -29 -19.5 -47.5t-46.5 -18.5q-23 0 -38 15.5 t-15 37.5z" />
<glyph unicode="&#x1e03;" horiz-adv-x="1159" d="M66 0l301 1366h61l-117 -535q59 80 150.5 131.5t202.5 51.5q86 0 156.5 -28t122.5 -80t81 -128t29 -170q0 -129 -38 -243.5t-106.5 -200.5t-163.5 -137.5t-210 -51.5q-129 0 -223.5 57.5t-145.5 145.5l-39 -178h-61zM178 231q39 -82 131.5 -141t225.5 -59q102 0 185 49 t141.5 129t90 182.5t31.5 208.5q0 166 -88 262t-236 96q-57 0 -111 -17t-102.5 -47t-88.5 -68t-66 -81zM776 1554q0 27 18.5 46.5t46.5 19.5q23 0 38.5 -15t15.5 -38q0 -29 -19.5 -47.5t-46.5 -18.5q-23 0 -38 15.5t-15 37.5z" />
<glyph unicode="&#x1e0a;" horiz-adv-x="1400" d="M70 0l301 1366h395q115 0 214 -44t173 -122t116 -183.5t42 -230.5q0 -143 -53.5 -284.5t-159 -253t-262 -180t-363.5 -68.5h-403zM147 61h324h12q174 0 314.5 58.5t239 158t151.5 231.5t53 277q0 113 -37 207t-102.5 164t-154.5 109t-193 39h-330zM891 1554 q0 27 18.5 46.5t46.5 19.5q23 0 38.5 -15t15.5 -38q0 -29 -19.5 -47.5t-46.5 -18.5q-23 0 -38 15.5t-15 37.5z" />
<glyph unicode="&#x1e0b;" horiz-adv-x="1159" d="M104 381q0 129 38 243.5t106.5 200.5t164 137.5t210.5 51.5q129 0 223 -57.5t145 -145.5l123 555h62l-304 -1366h-61l35 158q-59 -80 -150.5 -131.5t-201.5 -51.5q-86 0 -157 28t-123 80t-81 127t-29 171zM174 389q0 -166 88 -262t236 -96q57 0 111.5 17.5t102.5 47 t87 67.5t67 81l113 514q-39 82 -131 141t-225 59q-102 0 -185.5 -49t-141.5 -129t-90 -182t-32 -209zM740 1554q0 27 18.5 46.5t46.5 19.5q23 0 38.5 -15t15.5 -38q0 -29 -19.5 -47.5t-46.5 -18.5q-23 0 -38 15.5t-15 37.5z" />
<glyph unicode="&#x1e1e;" horiz-adv-x="1091" d="M70 0l301 1366h835l-12 -61h-770l-127 -572h756l-15 -61h-755l-148 -672h-65zM770 1554q0 27 18.5 46.5t46.5 19.5q23 0 38.5 -15t15.5 -38q0 -29 -19.5 -47.5t-46.5 -18.5q-23 0 -38 15.5t-15 37.5z" />
<glyph unicode="&#x1e1f;" horiz-adv-x="503" d="M94 0l207 934h-164l13 55h163l23 105q31 139 100.5 215.5t186.5 76.5q55 0 94 -15t80 -54l-41 -41q-25 27 -57.5 41t-82.5 14q-94 0 -144 -62.5t-75 -174.5l-22 -105h200l-12 -55h-201l-206 -934h-62zM602 1554q0 27 18.5 46.5t46.5 19.5q23 0 38.5 -15t15.5 -38 q0 -29 -19.5 -47.5t-46.5 -18.5q-23 0 -38 15.5t-15 37.5z" />
<glyph unicode="&#x1e22;" horiz-adv-x="1423" d="M70 0l301 1366h65l-139 -633h932l139 633h66l-301 -1366h-66l147 672h-931l-148 -672h-65zM885 1554q0 27 18.5 46.5t46.5 19.5q23 0 38.5 -15t15.5 -38q0 -29 -19.5 -47.5t-46.5 -18.5q-23 0 -38 15.5t-15 37.5z" />
<glyph unicode="&#x1e23;" d="M66 0l301 1366h61l-117 -532q35 33 77 65.5t89 58t97.5 41t101.5 15.5q61 0 112.5 -14.5t89 -43t59 -73.5t21.5 -107q0 -12 -4 -40.5t-8 -45.5l-151 -690h-62l154 694q4 14 8 38t4 38q0 100 -66.5 144t-168.5 44q-51 0 -101.5 -16t-98.5 -43t-90 -61.5t-77 -71.5 l-170 -766h-61zM721 1554q0 27 18.5 46.5t46.5 19.5q23 0 38.5 -15t15.5 -38q0 -29 -19.5 -47.5t-46.5 -18.5q-23 0 -38 15.5t-15 37.5z" />
<glyph unicode="&#x1e56;" horiz-adv-x="1136" d="M70 0l301 1366h448q74 0 136.5 -26.5t107.5 -72.5t70.5 -106.5t25.5 -126.5q0 -80 -27.5 -158.5t-88 -142t-152.5 -102.5t-221 -39h-404l-131 -592h-65zM279 653h405q102 0 178 32t126 84t74.5 122t24.5 143q0 53 -21.5 102.5t-58 86.5t-87 59.5t-109.5 22.5h-387z M774 1554q0 27 18.5 46.5t46.5 19.5q23 0 38.5 -15t15.5 -38q0 -29 -19.5 -47.5t-46.5 -18.5q-23 0 -38 15.5t-15 37.5z" />
<glyph unicode="&#x1e57;" horiz-adv-x="1150" d="M-18 -377l303 1366h61l-35 -158q59 80 150.5 131.5t202.5 51.5q86 0 156.5 -28t122.5 -80t81 -128t29 -170q0 -129 -38 -243.5t-106.5 -200.5t-163.5 -137.5t-210 -51.5q-129 0 -223.5 57.5t-145.5 145.5l-123 -555h-61zM178 231q39 -82 131.5 -141t225.5 -59 q102 0 185 49t141.5 129t90 182.5t31.5 208.5q0 166 -88 262t-236 96q-57 0 -111 -17t-102.5 -47t-88.5 -68t-66 -81zM701 1212q0 27 18.5 46.5t46.5 19.5q23 0 38.5 -15t15.5 -38q0 -29 -19.5 -47.5t-46.5 -18.5q-23 0 -38 15.5t-15 37.5z" />
<glyph unicode="&#x1e60;" horiz-adv-x="1177" d="M63 211l60 43q72 -102 183.5 -159.5t258.5 -57.5q102 0 175 31.5t120 81t68.5 109.5t21.5 118q0 84 -51 138t-127 95t-166 76t-165.5 80t-127 106.5t-51.5 155.5q0 76 36 141.5t95.5 114.5t139 77t169.5 28q154 0 274 -58.5t175 -152.5l-59 -43q-61 98 -166 145t-224 47 q-78 0 -144 -25.5t-115.5 -66.5t-78 -95.5t-28.5 -111.5q0 -76 51 -127t127 -91t166 -76t166 -83t127 -112.5t51 -161.5q0 -72 -28.5 -143.5t-87 -129t-145.5 -93.5t-204 -36q-84 0 -162 18.5t-142.5 50.5t-113.5 75t-78 92zM768 1554q0 27 18.5 46.5t46.5 19.5 q23 0 38.5 -15t15.5 -38q0 -29 -19.5 -47.5t-46.5 -18.5q-23 0 -38 15.5t-15 37.5z" />
<glyph unicode="&#x1e61;" horiz-adv-x="929" d="M27 147l55 41q37 -63 118 -110t197 -47q70 0 125.5 19.5t94 52t59 75.5t20.5 88q0 59 -40 99.5t-99 70t-129 56t-129 59.5t-99 76t-40 106q0 57 23.5 108.5t67.5 90.5t108.5 60.5t146.5 21.5q129 0 219 -50.5t125 -111.5l-51 -39q-16 31 -46 57.5t-70 46t-88 30.5t-97 11 q-125 0 -200 -59t-75 -145q0 -55 40 -93t99.5 -67t129 -54.5t129 -59.5t99.5 -80t40 -115q0 -59 -23.5 -114.5t-68.5 -98.5t-112 -70t-153 -27q-264 0 -376 172zM551 1212q0 27 18.5 46.5t46.5 19.5q23 0 38.5 -15t15.5 -38q0 -29 -19.5 -47.5t-46.5 -18.5q-23 0 -38 15.5 t-15 37.5z" />
<glyph unicode="&#x1e6a;" horiz-adv-x="1144" d="M256 1305l12 61h989l-12 -61h-463l-288 -1305h-66l289 1305h-461zM746 1554q0 27 18.5 46.5t46.5 19.5q23 0 38.5 -15t15.5 -38q0 -29 -19.5 -47.5t-46.5 -18.5q-23 0 -38 15.5t-15 37.5z" />
<glyph unicode="&#x1e6b;" horiz-adv-x="524" d="M109 125q0 6 1 20.5t5 28.5l170 760h-164l12 55h164l59 271h62l-60 -271h201l-12 -55h-201l-170 -760q-2 -10 -3 -20.5t-1 -24.5q0 -98 102 -98q33 0 63 13t50 30l25 -49q-29 -23 -62 -36.5t-74 -13.5q-80 0 -123.5 36t-43.5 114zM393 1554q0 27 18.5 46.5t46.5 19.5 q23 0 38.5 -15t15.5 -38q0 -29 -19.5 -47.5t-46.5 -18.5q-23 0 -38 15.5t-15 37.5z" />
<glyph unicode="&#x1e80;" horiz-adv-x="1744" d="M242 1366h69l76 -1268l639 1268h70l78 -1268l636 1268h74l-690 -1366h-78l-80 1243l-628 -1243h-78zM836 1776h92l262 -295h-61z" />
<glyph unicode="&#x1e81;" horiz-adv-x="1441" d="M154 989h63l88 -893l496 893h49l98 -893l486 893h71l-547 -989h-49l-100 897l-498 -897h-49zM608 1434h92l262 -295h-61z" />
<glyph unicode="&#x1e82;" horiz-adv-x="1744" d="M242 1366h69l76 -1268l639 1268h70l78 -1268l636 1268h74l-690 -1366h-78l-80 1243l-628 -1243h-78zM973 1481l393 295h97l-424 -295h-66z" />
<glyph unicode="&#x1e83;" horiz-adv-x="1441" d="M154 989h63l88 -893l496 893h49l98 -893l486 893h71l-547 -989h-49l-100 897l-498 -897h-49zM749 1139l393 295h97l-424 -295h-66z" />
<glyph unicode="&#x1e84;" horiz-adv-x="1744" d="M242 1366h69l76 -1268l639 1268h70l78 -1268l636 1268h74l-690 -1366h-78l-80 1243l-628 -1243h-78zM840 1561q0 27 18 45t45 18q23 0 37 -14t14 -37q0 -27 -18.5 -45.5t-44.5 -18.5q-23 0 -37 14.5t-14 37.5zM1253 1561q0 27 18.5 45t45.5 18q23 0 37 -14t14 -37 q0 -27 -18.5 -45.5t-45.5 -18.5q-23 0 -37 14.5t-14 37.5z" />
<glyph unicode="&#x1e85;" horiz-adv-x="1441" d="M154 989h63l88 -893l496 893h49l98 -893l486 893h71l-547 -989h-49l-100 897l-498 -897h-49zM613 1219q0 27 18 45t45 18q23 0 37 -14t14 -37q0 -27 -18.5 -45.5t-44.5 -18.5q-23 0 -37 14.5t-14 37.5zM1026 1219q0 27 18.5 45t45.5 18q23 0 37 -14t14 -37 q0 -27 -18.5 -45.5t-45.5 -18.5q-23 0 -37 14.5t-14 37.5z" />
<glyph unicode="&#x1ea0;" horiz-adv-x="1302" d="M-68 0l871 1366h78l268 -1366h-72l-71 367h-762l-232 -367h-80zM283 428h712l-166 862zM418 -299q0 27 18.5 46.5t46.5 19.5q23 0 38.5 -15t15.5 -38q0 -29 -19.5 -47.5t-46.5 -18.5q-23 0 -38 15.5t-15 37.5z" />
<glyph unicode="&#x1ea1;" horiz-adv-x="1159" d="M104 381q0 129 38 243.5t106.5 200.5t164 137.5t210.5 51.5q129 0 223 -57.5t145 -145.5l39 178h62l-220 -989h-61l35 158q-59 -80 -150.5 -131.5t-201.5 -51.5q-86 0 -157 28t-123 80t-81 127t-29 171zM174 389q0 -166 88 -262t236 -96q57 0 111.5 17.5t102.5 47 t87 67.5t67 81l113 514q-39 82 -131 141t-225 59q-102 0 -185.5 -49t-141.5 -129t-90 -182t-32 -209zM330 -299q0 27 18.5 46.5t46.5 19.5q23 0 38.5 -15t15.5 -38q0 -29 -19.5 -47.5t-46.5 -18.5q-23 0 -38 15.5t-15 37.5z" />
<glyph unicode="&#x1ea2;" horiz-adv-x="1302" d="M-68 0l871 1366h78l268 -1366h-72l-71 367h-762l-232 -367h-80zM283 428h712l-166 862zM754 1587q23 41 59.5 66.5t79.5 25.5q51 0 88 -31t37 -86q0 -78 -68 -135h-61q41 35 60.5 64.5t19.5 70.5q0 35 -23.5 53.5t-52.5 18.5t-53.5 -15.5t-44.5 -54.5z" />
<glyph unicode="&#x1ea3;" horiz-adv-x="1159" d="M104 381q0 129 38 243.5t106.5 200.5t164 137.5t210.5 51.5q129 0 223 -57.5t145 -145.5l39 178h62l-220 -989h-61l35 158q-59 -80 -150.5 -131.5t-201.5 -51.5q-86 0 -157 28t-123 80t-81 127t-29 171zM174 389q0 -166 88 -262t236 -96q57 0 111.5 17.5t102.5 47 t87 67.5t67 81l113 514q-39 82 -131 141t-225 59q-102 0 -185.5 -49t-141.5 -129t-90 -182t-32 -209zM588 1241q23 41 59.5 66.5t79.5 25.5q51 0 88 -31t37 -86q0 -78 -68 -135h-61q41 35 60.5 64.5t19.5 70.5q0 35 -23.5 53.5t-52.5 18.5t-53.5 -15.5t-44.5 -54.5z" />
<glyph unicode="&#x1ea4;" horiz-adv-x="1302" d="M-68 0l871 1366h78l268 -1366h-72l-71 367h-762l-232 -367h-80zM283 428h712l-166 862zM594 1261l267 221h73l142 -221h-54l-133 184l-233 -184h-62zM1018 1346l393 222h97l-424 -222h-66z" />
<glyph unicode="&#x1ea5;" horiz-adv-x="1159" d="M104 381q0 129 38 243.5t106.5 200.5t164 137.5t210.5 51.5q129 0 223 -57.5t145 -145.5l39 178h62l-220 -989h-61l35 158q-59 -80 -150.5 -131.5t-201.5 -51.5q-86 0 -157 28t-123 80t-81 127t-29 171zM174 389q0 -166 88 -262t236 -96q57 0 111.5 17.5t102.5 47 t87 67.5t67 81l113 514q-39 82 -131 141t-225 59q-102 0 -185.5 -49t-141.5 -129t-90 -182t-32 -209zM463 1139l267 295h73l142 -295h-54l-133 245l-233 -245h-62zM891 1282l393 295h97l-424 -295h-66z" />
<glyph unicode="&#x1ea6;" horiz-adv-x="1302" d="M-68 0l871 1366h78l268 -1366h-72l-71 367h-762l-232 -367h-80zM283 428h712l-166 862zM350 1568h92l262 -222h-61zM594 1261l267 221h73l142 -221h-54l-133 184l-233 -184h-62z" />
<glyph unicode="&#x1ea7;" horiz-adv-x="1159" d="M104 381q0 129 38 243.5t106.5 200.5t164 137.5t210.5 51.5q129 0 223 -57.5t145 -145.5l39 178h62l-220 -989h-61l35 158q-59 -80 -150.5 -131.5t-201.5 -51.5q-86 0 -157 28t-123 80t-81 127t-29 171zM174 389q0 -166 88 -262t236 -96q57 0 111.5 17.5t102.5 47 t87 67.5t67 81l113 514q-39 82 -131 141t-225 59q-102 0 -185.5 -49t-141.5 -129t-90 -182t-32 -209zM219 1577h92l262 -295h-61zM463 1139l267 295h73l142 -295h-54l-133 245l-233 -245h-62z" />
<glyph unicode="&#x1ea8;" horiz-adv-x="1302" d="M-68 0l871 1366h78l268 -1366h-72l-71 367h-762l-232 -367h-80zM283 428h712l-166 862zM596 1261l267 221h73l142 -221h-54l-133 184l-233 -184h-62zM887 1538q23 30 59.5 49t79.5 19q51 0 88 -23t37 -64q0 -59 -68 -101h-61q41 26 60.5 48t19.5 53q0 26 -23.5 40 t-52.5 14t-53.5 -11.5t-44.5 -41.5z" />
<glyph unicode="&#x1ea9;" horiz-adv-x="1159" d="M104 381q0 129 38 243.5t106.5 200.5t164 137.5t210.5 51.5q129 0 223 -57.5t145 -145.5l39 178h62l-220 -989h-61l35 158q-59 -80 -150.5 -131.5t-201.5 -51.5q-86 0 -157 28t-123 80t-81 127t-29 171zM174 389q0 -166 88 -262t236 -96q57 0 111.5 17.5t102.5 47 t87 67.5t67 81l113 514q-39 82 -131 141t-225 59q-102 0 -185.5 -49t-141.5 -129t-90 -182t-32 -209zM463 1139l267 295h73l142 -295h-54l-133 245l-233 -245h-62zM742 1526q23 41 59.5 66.5t79.5 25.5q51 0 88 -31t37 -86q0 -78 -68 -135h-61q41 35 60.5 64.5t19.5 70.5 q0 35 -23.5 53.5t-52.5 18.5t-53.5 -15.5t-44.5 -54.5z" />
<glyph unicode="&#x1eaa;" horiz-adv-x="1302" d="M-68 0l871 1366h78l268 -1366h-72l-71 367h-762l-232 -367h-80zM283 428h712l-166 862zM563 1066q12 27 32 52.5t47.5 43.5t64.5 29t80 11q59 0 85.5 -17.5t44 -39.5t39 -40t68.5 -18q51 0 90 25.5t68 83.5h55q-12 -27 -31.5 -52.5t-48 -43.5t-65.5 -29t-80 -11 q-59 0 -86 17.5t-44.5 39.5t-39 40t-68.5 18q-51 0 -90 -25.5t-65 -83.5h-56zM585 978l267 148h73l142 -148h-54l-133 123l-233 -123h-62z" />
<glyph unicode="&#x1eab;" horiz-adv-x="1159" d="M104 381q0 129 38 243.5t106.5 200.5t164 137.5t210.5 51.5q129 0 223 -57.5t145 -145.5l39 178h62l-220 -989h-61l35 158q-59 -80 -150.5 -131.5t-201.5 -51.5q-86 0 -157 28t-123 80t-81 127t-29 171zM174 389q0 -166 88 -262t236 -96q57 0 111.5 17.5t102.5 47 t87 67.5t67 81l113 514q-39 82 -131 141t-225 59q-102 0 -185.5 -49t-141.5 -129t-90 -182t-32 -209zM446 1073l267 295h73l142 -295h-54l-133 245l-233 -245h-62zM456 1409q12 55 32 105.5t47.5 87t64.5 59t80 22.5q59 0 85.5 -35.5t44 -79.5t39 -80t68.5 -36q51 0 90 51 t68 168h55q-12 -55 -31.5 -105.5t-48 -87t-65.5 -59t-80 -22.5q-59 0 -86 35.5t-44.5 79.5t-39 80t-68.5 36q-51 0 -90 -51t-65 -168h-56z" />
<glyph unicode="&#x1eac;" horiz-adv-x="1302" d="M-68 0l871 1366h78l268 -1366h-72l-71 367h-762l-232 -367h-80zM283 428h712l-166 862zM418 -299q0 27 18.5 46.5t46.5 19.5q23 0 38.5 -15t15.5 -38q0 -29 -19.5 -47.5t-46.5 -18.5q-23 0 -38 15.5t-15 37.5zM628 1481l267 295h73l142 -295h-54l-133 245l-233 -245h-62z " />
<glyph unicode="&#x1ead;" horiz-adv-x="1159" d="M104 381q0 129 38 243.5t106.5 200.5t164 137.5t210.5 51.5q129 0 223 -57.5t145 -145.5l39 178h62l-220 -989h-61l35 158q-59 -80 -150.5 -131.5t-201.5 -51.5q-86 0 -157 28t-123 80t-81 127t-29 171zM174 389q0 -166 88 -262t236 -96q57 0 111.5 17.5t102.5 47 t87 67.5t67 81l113 514q-39 82 -131 141t-225 59q-102 0 -185.5 -49t-141.5 -129t-90 -182t-32 -209zM330 -299q0 27 18.5 46.5t46.5 19.5q23 0 38.5 -15t15.5 -38q0 -29 -19.5 -47.5t-46.5 -18.5q-23 0 -38 15.5t-15 37.5zM463 1139l267 295h73l142 -295h-54l-133 245 l-233 -245h-62z" />
<glyph unicode="&#x1eae;" horiz-adv-x="1302" d="M-68 0l871 1366h78l268 -1366h-72l-71 367h-762l-232 -367h-80zM283 428h712l-166 862zM516 1585l47 39q39 -76 110.5 -120t172.5 -44q100 0 191 44t161 120l37 -39q-80 -84 -183.5 -132t-213.5 -48q-111 0 -194 48t-128 132zM725 1344l393 222h97l-424 -222h-66z" />
<glyph unicode="&#x1eaf;" horiz-adv-x="1159" d="M104 381q0 129 38 243.5t106.5 200.5t164 137.5t210.5 51.5q129 0 223 -57.5t145 -145.5l39 178h62l-220 -989h-61l35 158q-59 -80 -150.5 -131.5t-201.5 -51.5q-86 0 -157 28t-123 80t-81 127t-29 171zM174 389q0 -166 88 -262t236 -96q57 0 111.5 17.5t102.5 47 t87 67.5t67 81l113 514q-39 82 -131 141t-225 59q-102 0 -185.5 -49t-141.5 -129t-90 -182t-32 -209zM352 1249l47 39q39 -76 110.5 -120t172.5 -44q100 0 191 44t161 120l37 -39q-80 -84 -183.5 -132t-213.5 -48q-111 0 -194 48t-128 132zM559 1254l393 295h97l-424 -295 h-66z" />
<glyph unicode="&#x1eb0;" horiz-adv-x="1302" d="M-68 0l871 1366h78l268 -1366h-72l-71 367h-762l-232 -367h-80zM283 428h712l-166 862zM518 1585l47 39q39 -76 110.5 -120t172.5 -44q100 0 191 44t161 120l37 -39q-80 -84 -183.5 -132t-213.5 -48q-111 0 -194 48t-128 132zM637 1574h92l262 -222h-61z" />
<glyph unicode="&#x1eb1;" horiz-adv-x="1159" d="M104 381q0 129 38 243.5t106.5 200.5t164 137.5t210.5 51.5q129 0 223 -57.5t145 -145.5l39 178h62l-220 -989h-61l35 158q-59 -80 -150.5 -131.5t-201.5 -51.5q-86 0 -157 28t-123 80t-81 127t-29 171zM174 389q0 -166 88 -262t236 -96q57 0 111.5 17.5t102.5 47 t87 67.5t67 81l113 514q-39 82 -131 141t-225 59q-102 0 -185.5 -49t-141.5 -129t-90 -182t-32 -209zM354 1259l47 39q39 -76 110.5 -120t172.5 -44q100 0 191 44t161 120l37 -39q-80 -84 -183.5 -132t-213.5 -48q-111 0 -194 48t-128 132zM516 1549h92l262 -295h-61z" />
<glyph unicode="&#x1eb2;" horiz-adv-x="1302" d="M-68 0l871 1366h78l268 -1366h-72l-71 367h-762l-232 -367h-80zM283 428h712l-166 862zM518 1585l47 39q39 -76 110.5 -120t172.5 -44q100 0 191 44t161 120l37 -39q-80 -84 -183.5 -132t-213.5 -48q-111 0 -194 48t-128 132zM766 1514q23 30 59.5 49t79.5 19 q51 0 88 -23t37 -64q0 -59 -68 -101h-61q41 26 60.5 48t19.5 53q0 26 -23.5 40t-52.5 14t-53.5 -11.5t-44.5 -41.5z" />
<glyph unicode="&#x1eb3;" horiz-adv-x="1159" d="M104 381q0 129 38 243.5t106.5 200.5t164 137.5t210.5 51.5q129 0 223 -57.5t145 -145.5l39 178h62l-220 -989h-61l35 158q-59 -80 -150.5 -131.5t-201.5 -51.5q-86 0 -157 28t-123 80t-81 127t-29 171zM174 389q0 -166 88 -262t236 -96q57 0 111.5 17.5t102.5 47 t87 67.5t67 81l113 514q-39 82 -131 141t-225 59q-102 0 -185.5 -49t-141.5 -129t-90 -182t-32 -209zM356 1259l47 39q39 -76 110.5 -120t172.5 -44q100 0 191 44t161 120l37 -39q-80 -84 -183.5 -132t-213.5 -48q-111 0 -194 48t-128 132zM625 1405q23 41 59.5 66.5 t79.5 25.5q51 0 88 -31t37 -86q0 -78 -68 -135h-61q41 35 60.5 64.5t19.5 70.5q0 35 -23.5 53.5t-52.5 18.5t-53.5 -15.5t-44.5 -54.5z" />
<glyph unicode="&#x1eb4;" horiz-adv-x="1302" d="M-68 0l871 1366h78l268 -1366h-72l-71 367h-762l-232 -367h-80zM283 428h712l-166 862zM508 1297l47 26q39 -50 110.5 -79t172.5 -29q100 0 191 29t161 79l37 -26q-80 -55 -183.5 -87t-213.5 -32q-111 0 -194 32t-128 87zM565 1072q12 27 32 52.5t47.5 43.5t64.5 29 t80 11q59 0 85.5 -17.5t44 -39.5t39 -40t68.5 -18q51 0 90 25.5t68 83.5h55q-12 -27 -31.5 -52.5t-48 -43.5t-65.5 -29t-80 -11q-59 0 -86 17.5t-44.5 39.5t-39 40t-68.5 18q-51 0 -90 -25.5t-65 -83.5h-56z" />
<glyph unicode="&#x1eb5;" horiz-adv-x="1159" d="M104 381q0 129 38 243.5t106.5 200.5t164 137.5t210.5 51.5q129 0 223 -57.5t145 -145.5l39 178h62l-220 -989h-61l35 158q-59 -80 -150.5 -131.5t-201.5 -51.5q-86 0 -157 28t-123 80t-81 127t-29 171zM174 389q0 -166 88 -262t236 -96q57 0 111.5 17.5t102.5 47 t87 67.5t67 81l113 514q-39 82 -131 141t-225 59q-102 0 -185.5 -49t-141.5 -129t-90 -182t-32 -209zM362 1280l47 39q39 -76 110.5 -120t172.5 -44q100 0 191 44t161 120l37 -39q-80 -84 -183.5 -132t-213.5 -48q-111 0 -194 48t-128 132zM456 1409q12 55 32 105.5t47.5 87 t64.5 59t80 22.5q59 0 85.5 -35.5t44 -79.5t39 -80t68.5 -36q51 0 90 51t68 168h55q-12 -55 -31.5 -105.5t-48 -87t-65.5 -59t-80 -22.5q-59 0 -86 35.5t-44.5 79.5t-39 80t-68.5 36q-51 0 -90 -51t-65 -168h-56z" />
<glyph unicode="&#x1eb6;" horiz-adv-x="1302" d="M-68 0l871 1366h78l268 -1366h-72l-71 367h-762l-232 -367h-80zM283 428h712l-166 862zM418 -299q0 27 18.5 46.5t46.5 19.5q23 0 38.5 -15t15.5 -38q0 -29 -19.5 -47.5t-46.5 -18.5q-23 0 -38 15.5t-15 37.5zM528 1636l47 39q39 -76 110.5 -120t172.5 -44q100 0 191 44 t161 120l37 -39q-80 -84 -183.5 -132t-213.5 -48q-111 0 -194 48t-128 132z" />
<glyph unicode="&#x1eb7;" horiz-adv-x="1159" d="M104 381q0 129 38 243.5t106.5 200.5t164 137.5t210.5 51.5q129 0 223 -57.5t145 -145.5l39 178h62l-220 -989h-61l35 158q-59 -80 -150.5 -131.5t-201.5 -51.5q-86 0 -157 28t-123 80t-81 127t-29 171zM174 389q0 -166 88 -262t236 -96q57 0 111.5 17.5t102.5 47 t87 67.5t67 81l113 514q-39 82 -131 141t-225 59q-102 0 -185.5 -49t-141.5 -129t-90 -182t-32 -209zM330 -299q0 27 18.5 46.5t46.5 19.5q23 0 38.5 -15t15.5 -38q0 -29 -19.5 -47.5t-46.5 -18.5q-23 0 -38 15.5t-15 37.5zM364 1294l47 39q39 -76 110.5 -120t172.5 -44 q100 0 191 44t161 120l37 -39q-80 -84 -183.5 -132t-213.5 -48q-111 0 -194 48t-128 132z" />
<glyph unicode="&#x1eb8;" horiz-adv-x="1142" d="M70 0l301 1366h835l-12 -61h-770l-127 -572h756l-15 -61h-755l-136 -611h771l-13 -61h-835zM361 -299q0 27 18.5 46.5t46.5 19.5q23 0 38.5 -15t15.5 -38q0 -29 -19.5 -47.5t-46.5 -18.5q-23 0 -38 15.5t-15 37.5z" />
<glyph unicode="&#x1eb9;" horiz-adv-x="1169" d="M104 410q0 125 43 234.5t117 191.5t172.5 130t210.5 48q100 0 177 -34t129.5 -91.5t79 -135t26.5 -163.5q0 -29 -5 -62.5t-10 -52.5h-866q-2 -10 -3 -29.5t-1 -35.5q0 -80 24.5 -150t74 -120t122 -79.5t168.5 -29.5q78 0 161 28.5t153 87.5l30 -45q-66 -53 -156 -90 t-188 -37q-111 0 -195.5 33t-143 90.5t-89.5 137t-31 174.5zM184 530h809q2 10 3 26.5t1 27.5q0 166 -94 270t-266 104q-82 0 -156.5 -34.5t-136 -93t-103.5 -136.5t-57 -164zM350 -299q0 27 18.5 46.5t46.5 19.5q23 0 38.5 -15t15.5 -38q0 -29 -19.5 -47.5t-46.5 -18.5 q-23 0 -38 15.5t-15 37.5z" />
<glyph unicode="&#x1eba;" horiz-adv-x="1142" d="M70 0l301 1366h835l-12 -61h-770l-127 -572h756l-15 -61h-755l-136 -611h771l-13 -61h-835zM699 1587q23 41 59.5 66.5t79.5 25.5q51 0 88 -31t37 -86q0 -78 -68 -135h-61q41 35 60.5 64.5t19.5 70.5q0 35 -23.5 53.5t-52.5 18.5t-53.5 -15.5t-44.5 -54.5z" />
<glyph unicode="&#x1ebb;" horiz-adv-x="1169" d="M104 410q0 125 43 234.5t117 191.5t172.5 130t210.5 48q100 0 177 -34t129.5 -91.5t79 -135t26.5 -163.5q0 -29 -5 -62.5t-10 -52.5h-866q-2 -10 -3 -29.5t-1 -35.5q0 -80 24.5 -150t74 -120t122 -79.5t168.5 -29.5q78 0 161 28.5t153 87.5l30 -45q-66 -53 -156 -90 t-188 -37q-111 0 -195.5 33t-143 90.5t-89.5 137t-31 174.5zM184 530h809q2 10 3 26.5t1 27.5q0 166 -94 270t-266 104q-82 0 -156.5 -34.5t-136 -93t-103.5 -136.5t-57 -164zM608 1241q23 41 59.5 66.5t79.5 25.5q51 0 88 -31t37 -86q0 -78 -68 -135h-61q41 35 60.5 64.5 t19.5 70.5q0 35 -23.5 53.5t-52.5 18.5t-53.5 -15.5t-44.5 -54.5z" />
<glyph unicode="&#x1ebc;" horiz-adv-x="1142" d="M70 0l301 1366h835l-12 -61h-770l-127 -572h756l-15 -61h-755l-136 -611h771l-13 -61h-835zM508 1489q12 55 32 105.5t47.5 87t64.5 59t80 22.5q59 0 85.5 -35.5t44 -79.5t39 -80t68.5 -36q51 0 90 51t68 168h55q-12 -55 -31.5 -105.5t-48 -87t-65.5 -59t-80 -22.5 q-59 0 -86 35.5t-44.5 79.5t-39 80t-68.5 36q-51 0 -90 -51t-65 -168h-56z" />
<glyph unicode="&#x1ebd;" horiz-adv-x="1169" d="M104 410q0 125 43 234.5t117 191.5t172.5 130t210.5 48q100 0 177 -34t129.5 -91.5t79 -135t26.5 -163.5q0 -29 -5 -62.5t-10 -52.5h-866q-2 -10 -3 -29.5t-1 -35.5q0 -80 24.5 -150t74 -120t122 -79.5t168.5 -29.5q78 0 161 28.5t153 87.5l30 -45q-66 -53 -156 -90 t-188 -37q-111 0 -195.5 33t-143 90.5t-89.5 137t-31 174.5zM184 530h809q2 10 3 26.5t1 27.5q0 166 -94 270t-266 104q-82 0 -156.5 -34.5t-136 -93t-103.5 -136.5t-57 -164zM419 1147q12 55 32 105.5t47.5 87t64.5 59t80 22.5q59 0 85.5 -35.5t44 -79.5t39 -80t68.5 -36 q51 0 90 51t68 168h55q-12 -55 -31.5 -105.5t-48 -87t-65.5 -59t-80 -22.5q-59 0 -86 35.5t-44.5 79.5t-39 80t-68.5 36q-51 0 -90 -51t-65 -168h-56z" />
<glyph unicode="&#x1ebe;" horiz-adv-x="1142" d="M70 0l301 1366h835l-12 -61h-770l-127 -572h756l-15 -61h-755l-136 -611h771l-13 -61h-835zM538 1261l267 221h73l142 -221h-54l-133 184l-233 -184h-62zM962 1346l393 222h97l-424 -222h-66z" />
<glyph unicode="&#x1ebf;" horiz-adv-x="1169" d="M104 410q0 125 43 234.5t117 191.5t172.5 130t210.5 48q100 0 177 -34t129.5 -91.5t79 -135t26.5 -163.5q0 -29 -5 -62.5t-10 -52.5h-866q-2 -10 -3 -29.5t-1 -35.5q0 -80 24.5 -150t74 -120t122 -79.5t168.5 -29.5q78 0 161 28.5t153 87.5l30 -45q-66 -53 -156 -90 t-188 -37q-111 0 -195.5 33t-143 90.5t-89.5 137t-31 174.5zM184 530h809q2 10 3 26.5t1 27.5q0 166 -94 270t-266 104q-82 0 -156.5 -34.5t-136 -93t-103.5 -136.5t-57 -164zM483 1139l267 295h73l142 -295h-54l-133 245l-233 -245h-62zM911 1282l393 295h97l-424 -295h-66 z" />
<glyph unicode="&#x1ec0;" horiz-adv-x="1142" d="M70 0l301 1366h835l-12 -61h-770l-127 -572h756l-15 -61h-755l-136 -611h771l-13 -61h-835zM295 1568h92l262 -222h-61zM538 1261l267 221h73l142 -221h-54l-133 184l-233 -184h-62z" />
<glyph unicode="&#x1ec1;" horiz-adv-x="1169" d="M104 410q0 125 43 234.5t117 191.5t172.5 130t210.5 48q100 0 177 -34t129.5 -91.5t79 -135t26.5 -163.5q0 -29 -5 -62.5t-10 -52.5h-866q-2 -10 -3 -29.5t-1 -35.5q0 -80 24.5 -150t74 -120t122 -79.5t168.5 -29.5q78 0 161 28.5t153 87.5l30 -45q-66 -53 -156 -90 t-188 -37q-111 0 -195.5 33t-143 90.5t-89.5 137t-31 174.5zM184 530h809q2 10 3 26.5t1 27.5q0 166 -94 270t-266 104q-82 0 -156.5 -34.5t-136 -93t-103.5 -136.5t-57 -164zM240 1577h92l262 -295h-61zM483 1139l267 295h73l142 -295h-54l-133 245l-233 -245h-62z" />
<glyph unicode="&#x1ec2;" horiz-adv-x="1142" d="M70 0l301 1366h835l-12 -61h-770l-127 -572h756l-15 -61h-755l-136 -611h771l-13 -61h-835zM542 1261l267 221h73l142 -221h-54l-133 184l-233 -184h-62zM834 1538q23 30 59.5 49t79.5 19q51 0 88 -23t37 -64q0 -59 -68 -101h-61q41 26 60.5 48t19.5 53q0 26 -23.5 40 t-52.5 14t-53.5 -11.5t-44.5 -41.5z" />
<glyph unicode="&#x1ec3;" horiz-adv-x="1169" d="M104 410q0 125 43 234.5t117 191.5t172.5 130t210.5 48q100 0 177 -34t129.5 -91.5t79 -135t26.5 -163.5q0 -29 -5 -62.5t-10 -52.5h-866q-2 -10 -3 -29.5t-1 -35.5q0 -80 24.5 -150t74 -120t122 -79.5t168.5 -29.5q78 0 161 28.5t153 87.5l30 -45q-66 -53 -156 -90 t-188 -37q-111 0 -195.5 33t-143 90.5t-89.5 137t-31 174.5zM184 530h809q2 10 3 26.5t1 27.5q0 166 -94 270t-266 104q-82 0 -156.5 -34.5t-136 -93t-103.5 -136.5t-57 -164zM485 1139l267 295h73l142 -295h-54l-133 245l-233 -245h-62zM764 1526q23 41 59.5 66.5 t79.5 25.5q51 0 88 -31t37 -86q0 -78 -68 -135h-61q41 35 60.5 64.5t19.5 70.5q0 35 -23.5 53.5t-52.5 18.5t-53.5 -15.5t-44.5 -54.5z" />
<glyph unicode="&#x1ec4;" horiz-adv-x="1142" d="M70 0l301 1366h835l-12 -61h-770l-127 -572h756l-15 -61h-755l-136 -611h771l-13 -61h-835zM508 1066q12 27 32 52.5t47.5 43.5t64.5 29t80 11q59 0 85.5 -17.5t44 -39.5t39 -40t68.5 -18q51 0 90 25.5t68 83.5h55q-12 -27 -31.5 -52.5t-48 -43.5t-65.5 -29t-80 -11 q-59 0 -86 17.5t-44.5 39.5t-39 40t-68.5 18q-51 0 -90 -25.5t-65 -83.5h-56zM549 980l267 147h73l142 -147h-54l-133 122l-233 -122h-62z" />
<glyph unicode="&#x1ec5;" horiz-adv-x="1169" d="M104 410q0 125 43 234.5t117 191.5t172.5 130t210.5 48q100 0 177 -34t129.5 -91.5t79 -135t26.5 -163.5q0 -29 -5 -62.5t-10 -52.5h-866q-2 -10 -3 -29.5t-1 -35.5q0 -80 24.5 -150t74 -120t122 -79.5t168.5 -29.5q78 0 161 28.5t153 87.5l30 -45q-66 -53 -156 -90 t-188 -37q-111 0 -195.5 33t-143 90.5t-89.5 137t-31 174.5zM184 530h809q2 10 3 26.5t1 27.5q0 166 -94 270t-266 104q-82 0 -156.5 -34.5t-136 -93t-103.5 -136.5t-57 -164zM469 1073l267 295h73l142 -295h-54l-133 245l-233 -245h-62zM479 1409q12 55 32 105.5t47.5 87 t64.5 59t80 22.5q59 0 85.5 -35.5t44 -79.5t39 -80t68.5 -36q51 0 90 51t68 168h55q-12 -55 -31.5 -105.5t-48 -87t-65.5 -59t-80 -22.5q-59 0 -86 35.5t-44.5 79.5t-39 80t-68.5 36q-51 0 -90 -51t-65 -168h-56z" />
<glyph unicode="&#x1ec6;" horiz-adv-x="1142" d="M70 0l301 1366h835l-12 -61h-770l-127 -572h756l-15 -61h-755l-136 -611h771l-13 -61h-835zM361 -299q0 27 18.5 46.5t46.5 19.5q23 0 38.5 -15t15.5 -38q0 -29 -19.5 -47.5t-46.5 -18.5q-23 0 -38 15.5t-15 37.5zM571 1481l267 295h73l142 -295h-54l-133 245l-233 -245 h-62z" />
<glyph unicode="&#x1ec7;" horiz-adv-x="1169" d="M104 410q0 125 43 234.5t117 191.5t172.5 130t210.5 48q100 0 177 -34t129.5 -91.5t79 -135t26.5 -163.5q0 -29 -5 -62.5t-10 -52.5h-866q-2 -10 -3 -29.5t-1 -35.5q0 -80 24.5 -150t74 -120t122 -79.5t168.5 -29.5q78 0 161 28.5t153 87.5l30 -45q-66 -53 -156 -90 t-188 -37q-111 0 -195.5 33t-143 90.5t-89.5 137t-31 174.5zM184 530h809q2 10 3 26.5t1 27.5q0 166 -94 270t-266 104q-82 0 -156.5 -34.5t-136 -93t-103.5 -136.5t-57 -164zM350 -299q0 27 18.5 46.5t46.5 19.5q23 0 38.5 -15t15.5 -38q0 -29 -19.5 -47.5t-46.5 -18.5 q-23 0 -38 15.5t-15 37.5zM483 1139l267 295h73l142 -295h-54l-133 245l-233 -245h-62z" />
<glyph unicode="&#x1ec8;" horiz-adv-x="425" d="M70 0l301 1366h65l-301 -1366h-65zM318 1587q23 41 59.5 66.5t79.5 25.5q51 0 88 -31t37 -86q0 -78 -68 -135h-61q41 35 60.5 64.5t19.5 70.5q0 35 -23.5 53.5t-52.5 18.5t-53.5 -15.5t-44.5 -54.5z" />
<glyph unicode="&#x1ec9;" horiz-adv-x="413" d="M66 0l219 989h61l-219 -989h-61zM234 1241q23 41 59.5 66.5t79.5 25.5q51 0 88 -31t37 -86q0 -78 -68 -135h-61q41 35 60.5 64.5t19.5 70.5q0 35 -23.5 53.5t-52.5 18.5t-53.5 -15.5t-44.5 -54.5z" />
<glyph unicode="&#x1eca;" horiz-adv-x="425" d="M-18 -299q0 27 18.5 46.5t46.5 19.5q23 0 38.5 -15t15.5 -38q0 -29 -19.5 -47.5t-46.5 -18.5q-23 0 -38 15.5t-15 37.5zM70 0l301 1366h65l-301 -1366h-65z" />
<glyph unicode="&#x1ecb;" horiz-adv-x="413" d="M-24 -299q0 27 18.5 46.5t46.5 19.5q23 0 38.5 -15t15.5 -38q0 -29 -19.5 -47.5t-46.5 -18.5q-23 0 -38 15.5t-15 37.5zM66 0l219 989h61l-219 -989h-61zM303 1212q0 29 22.5 47.5t45.5 18.5t39 -15.5t16 -37.5q0 -29 -22.5 -47.5t-45.5 -18.5t-39 15.5t-16 37.5z" />
<glyph unicode="&#x1ecc;" horiz-adv-x="1564" d="M152 561q0 174 59 325.5t160.5 263.5t237.5 175.5t288 63.5q123 0 231.5 -38t189.5 -112t128 -183.5t47 -252.5q0 -176 -59.5 -326.5t-161 -262.5t-237 -175.5t-287.5 -63.5q-123 0 -231.5 38t-189.5 112t-128 183.5t-47 252.5zM225 561q0 -129 42 -227t115 -165 t168.5 -99.5t201.5 -32.5q131 0 251.5 56.5t213 157.5t147.5 241.5t55 310.5q0 129 -43 227t-114.5 165t-168 99.5t-202.5 32.5q-133 0 -253 -56.5t-212 -157.5t-146.5 -242.5t-54.5 -309.5zM549 -299q0 27 18.5 46.5t46.5 19.5q23 0 38.5 -15t15.5 -38q0 -29 -19.5 -47.5 t-46.5 -18.5q-23 0 -38 15.5t-15 37.5z" />
<glyph unicode="&#x1ecd;" horiz-adv-x="1167" d="M104 406q0 119 41 228t113 193t169 135.5t212 51.5q94 0 172 -30t133 -86t85 -136t30 -178q0 -119 -41 -228.5t-112.5 -194.5t-169 -135.5t-212.5 -50.5q-94 0 -172 30t-133 86t-85 136t-30 179zM174 406q0 -170 92 -272.5t258 -102.5q100 0 185.5 47t148 124t97 177 t34.5 205q0 170 -92 272t-258 102q-100 0 -185 -47t-147.5 -123.5t-97.5 -177t-35 -204.5zM353 -299q0 27 18.5 46.5t46.5 19.5q23 0 38.5 -15t15.5 -38q0 -29 -19.5 -47.5t-46.5 -18.5q-23 0 -38 15.5t-15 37.5z" />
<glyph unicode="&#x1ece;" horiz-adv-x="1564" d="M152 561q0 174 59 325.5t160.5 263.5t237.5 175.5t288 63.5q123 0 231.5 -38t189.5 -112t128 -183.5t47 -252.5q0 -176 -59.5 -326.5t-161 -262.5t-237 -175.5t-287.5 -63.5q-123 0 -231.5 38t-189.5 112t-128 183.5t-47 252.5zM225 561q0 -129 42 -227t115 -165 t168.5 -99.5t201.5 -32.5q131 0 251.5 56.5t213 157.5t147.5 241.5t55 310.5q0 129 -43 227t-114.5 165t-168 99.5t-202.5 32.5q-133 0 -253 -56.5t-212 -157.5t-146.5 -242.5t-54.5 -309.5zM887 1587q23 41 59.5 66.5t79.5 25.5q51 0 88 -31t37 -86q0 -78 -68 -135h-61 q41 35 60.5 64.5t19.5 70.5q0 35 -23.5 53.5t-52.5 18.5t-53.5 -15.5t-44.5 -54.5z" />
<glyph unicode="&#x1ecf;" horiz-adv-x="1167" d="M104 406q0 119 41 228t113 193t169 135.5t212 51.5q94 0 172 -30t133 -86t85 -136t30 -178q0 -119 -41 -228.5t-112.5 -194.5t-169 -135.5t-212.5 -50.5q-94 0 -172 30t-133 86t-85 136t-30 179zM174 406q0 -170 92 -272.5t258 -102.5q100 0 185.5 47t148 124t97 177 t34.5 205q0 170 -92 272t-258 102q-100 0 -185 -47t-147.5 -123.5t-97.5 -177t-35 -204.5zM610 1241q23 41 59.5 66.5t79.5 25.5q51 0 88 -31t37 -86q0 -78 -68 -135h-61q41 35 60.5 64.5t19.5 70.5q0 35 -23.5 53.5t-52.5 18.5t-53.5 -15.5t-44.5 -54.5z" />
<glyph unicode="&#x1ed0;" horiz-adv-x="1564" d="M152 561q0 174 59 325.5t160.5 263.5t237.5 175.5t288 63.5q123 0 231.5 -38t189.5 -112t128 -183.5t47 -252.5q0 -176 -59.5 -326.5t-161 -262.5t-237 -175.5t-287.5 -63.5q-123 0 -231.5 38t-189.5 112t-128 183.5t-47 252.5zM225 561q0 -129 42 -227t115 -165 t168.5 -99.5t201.5 -32.5q131 0 251.5 56.5t213 157.5t147.5 241.5t55 310.5q0 129 -43 227t-114.5 165t-168 99.5t-202.5 32.5q-133 0 -253 -56.5t-212 -157.5t-146.5 -242.5t-54.5 -309.5zM727 1261l267 221h73l142 -221h-54l-133 184l-233 -184h-62zM1151 1346l393 222 h97l-424 -222h-66z" />
<glyph unicode="&#x1ed1;" horiz-adv-x="1167" d="M104 406q0 119 41 228t113 193t169 135.5t212 51.5q94 0 172 -30t133 -86t85 -136t30 -178q0 -119 -41 -228.5t-112.5 -194.5t-169 -135.5t-212.5 -50.5q-94 0 -172 30t-133 86t-85 136t-30 179zM174 406q0 -170 92 -272.5t258 -102.5q100 0 185.5 47t148 124t97 177 t34.5 205q0 170 -92 272t-258 102q-100 0 -185 -47t-147.5 -123.5t-97.5 -177t-35 -204.5zM487 1139l267 295h73l142 -295h-54l-133 245l-233 -245h-62zM915 1282l393 295h97l-424 -295h-66z" />
<glyph unicode="&#x1ed2;" horiz-adv-x="1564" d="M152 561q0 174 59 325.5t160.5 263.5t237.5 175.5t288 63.5q123 0 231.5 -38t189.5 -112t128 -183.5t47 -252.5q0 -176 -59.5 -326.5t-161 -262.5t-237 -175.5t-287.5 -63.5q-123 0 -231.5 38t-189.5 112t-128 183.5t-47 252.5zM225 561q0 -129 42 -227t115 -165 t168.5 -99.5t201.5 -32.5q131 0 251.5 56.5t213 157.5t147.5 241.5t55 310.5q0 129 -43 227t-114.5 165t-168 99.5t-202.5 32.5q-133 0 -253 -56.5t-212 -157.5t-146.5 -242.5t-54.5 -309.5zM481 1568h92l262 -222h-61zM725 1261l267 221h73l142 -221h-54l-133 184 l-233 -184h-62z" />
<glyph unicode="&#x1ed3;" horiz-adv-x="1167" d="M104 406q0 119 41 228t113 193t169 135.5t212 51.5q94 0 172 -30t133 -86t85 -136t30 -178q0 -119 -41 -228.5t-112.5 -194.5t-169 -135.5t-212.5 -50.5q-94 0 -172 30t-133 86t-85 136t-30 179zM174 406q0 -170 92 -272.5t258 -102.5q100 0 185.5 47t148 124t97 177 t34.5 205q0 170 -92 272t-258 102q-100 0 -185 -47t-147.5 -123.5t-97.5 -177t-35 -204.5zM242 1577h92l262 -295h-61zM485 1139l267 295h73l142 -295h-54l-133 245l-233 -245h-62z" />
<glyph unicode="&#x1ed4;" horiz-adv-x="1564" d="M152 561q0 174 59 325.5t160.5 263.5t237.5 175.5t288 63.5q123 0 231.5 -38t189.5 -112t128 -183.5t47 -252.5q0 -176 -59.5 -326.5t-161 -262.5t-237 -175.5t-287.5 -63.5q-123 0 -231.5 38t-189.5 112t-128 183.5t-47 252.5zM225 561q0 -129 42 -227t115 -165 t168.5 -99.5t201.5 -32.5q131 0 251.5 56.5t213 157.5t147.5 241.5t55 310.5q0 129 -43 227t-114.5 165t-168 99.5t-202.5 32.5q-133 0 -253 -56.5t-212 -157.5t-146.5 -242.5t-54.5 -309.5zM731 1261l267 221h73l142 -221h-54l-133 184l-233 -184h-62zM1022 1538 q23 30 59.5 49t79.5 19q51 0 88 -23t37 -64q0 -59 -68 -101h-61q41 26 60.5 48t19.5 53q0 26 -23.5 40t-52.5 14t-53.5 -11.5t-44.5 -41.5z" />
<glyph unicode="&#x1ed5;" horiz-adv-x="1167" d="M104 406q0 119 41 228t113 193t169 135.5t212 51.5q94 0 172 -30t133 -86t85 -136t30 -178q0 -119 -41 -228.5t-112.5 -194.5t-169 -135.5t-212.5 -50.5q-94 0 -172 30t-133 86t-85 136t-30 179zM174 406q0 -170 92 -272.5t258 -102.5q100 0 185.5 47t148 124t97 177 t34.5 205q0 170 -92 272t-258 102q-100 0 -185 -47t-147.5 -123.5t-97.5 -177t-35 -204.5zM487 1139l267 295h73l142 -295h-54l-133 245l-233 -245h-62zM766 1526q23 41 59.5 66.5t79.5 25.5q51 0 88 -31t37 -86q0 -78 -68 -135h-61q41 35 60.5 64.5t19.5 70.5 q0 35 -23.5 53.5t-52.5 18.5t-53.5 -15.5t-44.5 -54.5z" />
<glyph unicode="&#x1ed6;" horiz-adv-x="1564" d="M152 561q0 174 59 325.5t160.5 263.5t237.5 175.5t288 63.5q123 0 231.5 -38t189.5 -112t128 -183.5t47 -252.5q0 -176 -59.5 -326.5t-161 -262.5t-237 -175.5t-287.5 -63.5q-123 0 -231.5 38t-189.5 112t-128 183.5t-47 252.5zM225 561q0 -129 42 -227t115 -165 t168.5 -99.5t201.5 -32.5q131 0 251.5 56.5t213 157.5t147.5 241.5t55 310.5q0 129 -43 227t-114.5 165t-168 99.5t-202.5 32.5q-133 0 -253 -56.5t-212 -157.5t-146.5 -242.5t-54.5 -309.5zM696 1066q12 27 32 52.5t47.5 43.5t64.5 29t80 11q59 0 85.5 -17.5t44 -39.5 t39 -40t68.5 -18q51 0 90 25.5t68 83.5h55q-12 -27 -31.5 -52.5t-48 -43.5t-65.5 -29t-80 -11q-59 0 -86 17.5t-44.5 39.5t-39 40t-68.5 18q-51 0 -90 -25.5t-65 -83.5h-56zM721 980l267 147h73l142 -147h-54l-133 122l-233 -122h-62z" />
<glyph unicode="&#x1ed7;" horiz-adv-x="1167" d="M104 406q0 119 41 228t113 193t169 135.5t212 51.5q94 0 172 -30t133 -86t85 -136t30 -178q0 -119 -41 -228.5t-112.5 -194.5t-169 -135.5t-212.5 -50.5q-94 0 -172 30t-133 86t-85 136t-30 179zM174 406q0 -170 92 -272.5t258 -102.5q100 0 185.5 47t148 124t97 177 t34.5 205q0 170 -92 272t-258 102q-100 0 -185 -47t-147.5 -123.5t-97.5 -177t-35 -204.5zM469 1073l267 295h73l142 -295h-54l-133 245l-233 -245h-62zM481 1409q12 55 32 105.5t47.5 87t64.5 59t80 22.5q59 0 85.5 -35.5t44 -79.5t39 -80t68.5 -36q51 0 90 51t68 168h55 q-12 -55 -31.5 -105.5t-48 -87t-65.5 -59t-80 -22.5q-59 0 -86 35.5t-44.5 79.5t-39 80t-68.5 36q-51 0 -90 -51t-65 -168h-56z" />
<glyph unicode="&#x1ed8;" horiz-adv-x="1564" d="M152 561q0 174 59 325.5t160.5 263.5t237.5 175.5t288 63.5q123 0 231.5 -38t189.5 -112t128 -183.5t47 -252.5q0 -176 -59.5 -326.5t-161 -262.5t-237 -175.5t-287.5 -63.5q-123 0 -231.5 38t-189.5 112t-128 183.5t-47 252.5zM225 561q0 -129 42 -227t115 -165 t168.5 -99.5t201.5 -32.5q131 0 251.5 56.5t213 157.5t147.5 241.5t55 310.5q0 129 -43 227t-114.5 165t-168 99.5t-202.5 32.5q-133 0 -253 -56.5t-212 -157.5t-146.5 -242.5t-54.5 -309.5zM549 -299q0 27 18.5 46.5t46.5 19.5q23 0 38.5 -15t15.5 -38q0 -29 -19.5 -47.5 t-46.5 -18.5q-23 0 -38 15.5t-15 37.5zM759 1481l267 295h73l142 -295h-54l-133 245l-233 -245h-62z" />
</font>
</defs>
</svg>
