<?xml version="1.0" standalone="no"?>
<!DOCTYPE svg PUBLIC "-//W3C//DTD SVG 1.1//EN" "http://www.w3.org/Graphics/SVG/1.1/DTD/svg11.dtd" >
<svg xmlns="http://www.w3.org/2000/svg" xmlns:xlink="http://www.w3.org/1999/xlink" version="1.1">
<metadata>
Created by FontForge 20150824 at Mon Mar 28 04:26:05 2016
 By Everything Fonts
Copyright (c) 2014 Monotype Imaging Inc. All rights reserved.
</metadata>
<defs>
<font id="SouthwestSansRegular" horiz-adv-x="309" >
  <font-face 
    font-family="SouthwestSansRegular"
    font-weight="400"
    font-stretch="normal"
    units-per-em="1000"
    panose-1="2 11 5 3 2 2 3 2 2 4"
    ascent="744"
    descent="-256"
    x-height="481"
    cap-height="677"
    bbox="-173 -280 1012 917"
    underline-thickness="50"
    underline-position="-183"
    unicode-range="U+000D-1F6AB"
  />
<missing-glyph horiz-adv-x="500" 
d="M12 0v665h475v-665h-475zM250 375l161 243h-323zM221 333l-161 242v-484zM278 333l162 -243v485zM250 290l-162 -242h323z" />
    <glyph glyph-name="fi" unicode="fi" horiz-adv-x="523" 
d="M251 644q-37 0 -59.5 -24t-22.5 -71v-68h103v-67h-102v-414h-80v414h-73v67h73v66q0 87 44 128.5t116 41.5q43 0 73 -12l-9 -72q-35 11 -63 11zM406 566q-24 0 -40 15.5t-16 39.5q0 23 16.5 39t39.5 16t39.5 -16t16.5 -39q0 -24 -16.5 -39.5t-39.5 -15.5zM366 0v481h80
v-481h-80z" />
    <glyph glyph-name="fl" unicode="fl" horiz-adv-x="523" 
d="M251 644q-37 0 -59.5 -24t-22.5 -71v-68h103v-67h-102v-414h-80v414h-73v67h73v66q0 87 44 128.5t116 41.5q43 0 73 -12l-9 -72q-35 11 -63 11zM366 0v705h80v-705h-80z" />
    <glyph glyph-name="f_f" unicode="ff" horiz-adv-x="543" 
d="M505 644q-37 0 -59.5 -24t-22.5 -71v-68h103v-67h-102v-414h-80v414h-174v-414h-80v414h-73v67h73v66q0 87 44 128.5t116 41.5q43 0 73 -12l-9 -72q-35 11 -63 11q-37 0 -59.5 -24t-22.5 -71v-68h175v66q0 87 44 128.5t116 41.5q43 0 73 -12l-9 -72q-35 11 -63 11z" />
    <glyph glyph-name="f_f_i" unicode="ffi" horiz-adv-x="777" 
d="M344 481v66q0 87 44 128.5t116 41.5q43 0 73 -12l-9 -72q-35 11 -63 11q-37 0 -59.5 -24t-22.5 -71v-68h103v-67h-102v-414h-80v414h-174v-414h-80v414h-73v67h73v66q0 87 44 128.5t116 41.5q43 0 73 -12l-9 -72q-35 11 -63 11q-37 0 -59.5 -24t-22.5 -71v-68h175z
M660 676q23 0 39.5 -16t16.5 -39q0 -24 -16.5 -39.5t-39.5 -15.5q-24 0 -40 15.5t-16 39.5q0 23 16.5 39t39.5 16zM620 481h80v-481h-80v481z" />
    <glyph glyph-name="f_f_l" unicode="ffl" horiz-adv-x="777" 
d="M344 481v66q0 87 44 128.5t116 41.5q43 0 73 -12l-9 -72q-35 11 -63 11q-37 0 -59.5 -24t-22.5 -71v-68h103v-67h-102v-414h-80v414h-174v-414h-80v414h-73v67h73v66q0 87 44 128.5t116 41.5q43 0 73 -12l-9 -72q-35 11 -63 11q-37 0 -59.5 -24t-22.5 -71v-68h175z
M700 705v-705h-80v705h80z" />
    <glyph glyph-name=".notdef" horiz-adv-x="500" 
d="M12 0v665h475v-665h-475zM250 375l161 243h-323zM221 333l-161 242v-484zM278 333l162 -243v485zM250 290l-162 -242h323z" />
    <glyph glyph-name=".null" horiz-adv-x="0" 
 />
    <glyph glyph-name="nonmarkingreturn" horiz-adv-x="333" 
 />
    <glyph glyph-name="NULL" horiz-adv-x="600" 
 />
    <glyph glyph-name="CR" unicode="&#xd;" horiz-adv-x="600" 
 />
    <glyph glyph-name="space" unicode=" " horiz-adv-x="236" 
 />
    <glyph glyph-name="exclam" unicode="!" horiz-adv-x="267" 
d="M89 677h89v-196l-9 -313h-71l-9 313v196zM134 -8q-26 0 -42.5 17t-16.5 42q0 24 17 41t42 17q23 0 40.5 -17.5t17.5 -40.5q0 -25 -17 -42t-41 -17z" />
    <glyph glyph-name="quotedbl" unicode="&#x22;" horiz-adv-x="348" 
d="M144 705l-25 -230h-47l-25 230h97zM301 705l-25 -230h-47l-25 230h97z" />
    <glyph glyph-name="numbersign" unicode="#" horiz-adv-x="523" 
d="M158 422h-96v70h109l32 185h67l-32 -185h101l32 185h67l-32 -185h54v-70h-67l-27 -156h94v-70h-107l-35 -196h-67l35 196h-101l-35 -196h-67l35 196h-56v70h69zM299 266l28 156h-101l-28 -156h101z" />
    <glyph glyph-name="dollar" unicode="$" horiz-adv-x="522" 
d="M466 193q0 -65 -41.5 -113t-115.5 -65v-123h-78v116q-93 2 -169 34l20 75q78 -35 155 -35q68 0 105.5 29.5t37.5 76.5q0 38 -31.5 66t-121.5 56q-89 28 -124.5 72.5t-35.5 107.5q0 70 43 115t121 59v121h78v-116q81 -3 145 -32l-19 -74q-68 31 -138 31q-145 0 -145 -103
q0 -39 29 -64.5t108 -50.5q100 -32 138.5 -75.5t38.5 -107.5z" />
    <glyph glyph-name="percent" unicode="%" horiz-adv-x="681" 
d="M179 689q65 0 110 -45t45 -112t-45 -112t-110 -45t-110 45t-45 112t45 112t110 45zM544 677h78l-484 -677h-79zM178 628q-38 0 -64 -27t-26 -69t26 -68.5t64 -26.5t64 26.5t26 68.5t-26 69t-64 27zM502 302q65 0 110 -45t45 -112t-45 -112t-110 -45t-110 45t-45 112
t45 112t110 45zM502 240q-38 0 -64 -26.5t-26 -68.5t26 -69t64 -27t64 27t26 69t-26 68.5t-64 26.5z" />
    <glyph glyph-name="ampersand" unicode="&#x26;" horiz-adv-x="669" 
d="M597 -20l-108 92q-87 -84 -218 -84q-109 0 -169.5 48.5t-60.5 126.5q0 59 31.5 101.5t94.5 81.5q-49 45 -72 86.5t-23 91.5q0 75 52 120t135 45q81 0 129 -44.5t48 -113.5q0 -51 -32 -97t-113 -94l186 -160q41 78 39 190h81q0 -142 -61 -240l108 -93zM258 618
q-48 0 -78 -25.5t-30 -68.5q0 -39 20.5 -68.5t67.5 -70.5q68 40 94 72.5t26 70.5q0 42 -28 66t-72 24zM271 59q99 0 162 61l-212 181q-50 -31 -72.5 -61.5t-22.5 -71.5q0 -49 38 -79t107 -30z" />
    <glyph glyph-name="quotesingle" unicode="'" horiz-adv-x="191" 
d="M144 705l-25 -230h-47l-25 230h97z" />
    <glyph glyph-name="parenleft" unicode="(" horiz-adv-x="252" 
d="M175 705h77q-63 -113 -96 -219.5t-33 -241.5t33 -241.5t96 -219.5h-77q-57 80 -96 199t-39 262t39 261.5t96 199.5z" />
    <glyph glyph-name="parenright" unicode=")" horiz-adv-x="252" 
d="M0 705h77q57 -81 96 -199.5t39 -261.5t-39 -262t-96 -199h-77q64 114 97 220.5t33 240.5t-33 240.5t-97 220.5z" />
    <glyph glyph-name="asterisk" unicode="*" horiz-adv-x="392" 
d="M243 505l88 -119l-50 -36l-85 121l-85 -121l-49 36l88 119l-141 44l18 57l140 -47l-1 148h61l-2 -148l140 47l19 -57z" />
    <glyph glyph-name="plus" unicode="+" horiz-adv-x="522" 
d="M222 142v166h-162v73h162v166h78v-166h161v-73h-161v-166h-78z" />
    <glyph glyph-name="comma" unicode="," horiz-adv-x="226" 
d="M99 -6q-45 11 -45 57q0 24 16.5 41t41.5 17q27 0 44 -20t17 -58q0 -80 -48 -161h-48q22 80 22 124z" />
    <glyph glyph-name="hyphen" unicode="-" horiz-adv-x="380" 
d="M314 220h-248v67h248v-67z" />
    <glyph glyph-name="period" unicode="." horiz-adv-x="226" 
d="M114 -8q-26 0 -42.5 17t-16.5 42q0 24 17 41t42 17q23 0 40.5 -17.5t17.5 -40.5q0 -25 -17 -42t-41 -17z" />
    <glyph glyph-name="slash" unicode="/" 
d="M307 755h80l-321 -855h-80z" />
    <glyph glyph-name="zero" unicode="0" horiz-adv-x="522" 
d="M496 338q0 -176 -67 -263t-168 -87t-168 87t-67 263t67 263.5t168 87.5t168 -87.5t67 -263.5zM410 338q0 143 -42 209t-107 66t-107 -66.5t-42 -209.5q0 -141 42 -207t107 -66t107 66t42 208z" />
    <glyph glyph-name="one" unicode="1" horiz-adv-x="522" 
d="M452 74v-74l-354 -1v74h144v522l-144 -32l-12 72l237 52v-613h129z" />
    <glyph glyph-name="two" unicode="2" horiz-adv-x="522" 
d="M58 49l183 224q74 89 101 139t27 91q0 52 -35.5 80.5t-98.5 28.5q-84 0 -159 -39l-19 75q77 41 183 41q104 0 159 -48.5t55 -132.5q0 -55 -28.5 -112t-103.5 -149l-128 -156q-6 -7 -17 -18l1 -1q10 2 19 2h278v-74h-402z" />
    <glyph glyph-name="three" unicode="3" horiz-adv-x="522" 
d="M320 349q63 -9 103 -52.5t40 -111.5q0 -88 -61 -142.5t-169 -54.5q-105 0 -189 43l20 75q76 -42 162 -42q75 0 113.5 33.5t38.5 92.5q0 118 -176 118h-64v72h52q81 0 127 34.5t46 95.5q0 44 -35.5 73.5t-99.5 29.5q-86 0 -159 -39l-19 74q77 41 184 41q105 0 159.5 -48.5
t54.5 -123.5q0 -60 -34.5 -106t-93.5 -62z" />
    <glyph glyph-name="four" unicode="4" horiz-adv-x="522" 
d="M331 0v190h-296l-16 40l327 461h67v-430h84v-71h-84v-190h-82zM124 261h207v292z" />
    <glyph glyph-name="five" unicode="5" horiz-adv-x="522" 
d="M171 400h52q120 0 183 -51t63 -149t-61 -155t-171 -57q-104 0 -188 43l20 75q76 -42 163 -42q75 0 114 35.5t39 98.5q0 65 -43 97t-138 31h-116v351h351v-74h-268v-203z" />
    <glyph glyph-name="six" unicode="6" horiz-adv-x="522" 
d="M294 411q86 0 143 -56.5t57 -152.5t-59 -155t-149 -59q-110 0 -174.5 82.5t-64.5 239.5q0 100 24.5 175.5t66.5 118.5t92 64t108 21q80 0 132 -34l-20 -73q-51 32 -111 32q-36 0 -69 -13t-64 -41.5t-50.5 -81.5t-23.5 -126q66 59 162 59zM285 62q56 0 91.5 38t35.5 101
t-36.5 100.5t-93.5 37.5q-92 0 -150 -61q4 -107 44 -161.5t109 -54.5z" />
    <glyph glyph-name="seven" unicode="7" horiz-adv-x="522" 
d="M123 0l213 506q23 55 46 99q-34 -2 -50 -2h-291v74h429l12 -21l-271 -656h-88z" />
    <glyph glyph-name="eight" unicode="8" horiz-adv-x="522" 
d="M345 351q140 -58 140 -181q0 -83 -58.5 -132.5t-165.5 -49.5t-165.5 49.5t-58.5 132.5q0 124 140 181q-122 54 -122 172q0 75 54 120.5t152 45.5t152 -45.5t54 -120.5q0 -118 -122 -172zM137 516q0 -94 125 -134q69 22 96.5 55.5t27.5 78.5q0 47 -33 74t-92 27
q-58 0 -91 -27t-33 -74zM261 60q69 0 105 30t36 83q0 48 -30.5 83t-110.5 60q-79 -25 -109.5 -60t-30.5 -83q0 -52 35.5 -82.5t104.5 -30.5z" />
    <glyph glyph-name="nine" unicode="9" horiz-adv-x="522" 
d="M228 266q-86 0 -143 56.5t-57 152.5t59 155t149 59q110 0 174.5 -82.5t64.5 -239.5q0 -100 -24.5 -175.5t-66.5 -118.5t-92 -64t-108 -21q-80 0 -132 34l20 73q51 -32 111 -32q36 0 69 13t64 41.5t50.5 81.5t23.5 126q-66 -59 -162 -59zM237 615q-56 0 -91.5 -38
t-35.5 -101t36.5 -100.5t93.5 -37.5q92 0 150 61q-4 107 -44 161.5t-109 54.5z" />
    <glyph glyph-name="colon" unicode=":" horiz-adv-x="227" 
d="M114 376q-26 0 -42.5 17t-16.5 42q0 24 17 41t42 17q23 0 40.5 -17.5t17.5 -40.5q0 -25 -17 -42t-41 -17zM114 -8q-26 0 -42.5 17t-16.5 42q0 24 17 41t42 17q23 0 40.5 -17.5t17.5 -40.5q0 -25 -17 -42t-41 -17z" />
    <glyph glyph-name="semicolon" unicode=";" horiz-adv-x="227" 
d="M114 374q-26 0 -42.5 17t-16.5 42q0 24 17 41t42 17q23 0 40.5 -17.5t17.5 -40.5q0 -25 -17 -42t-41 -17zM99 -6q-45 11 -45 57q0 24 16.5 41t41.5 17q27 0 44 -20t17 -58q0 -80 -48 -161h-48q22 80 22 124z" />
    <glyph glyph-name="less" unicode="&#x3c;" horiz-adv-x="522" 
d="M457 459l-259 -104q-21 -8 -39 -10q11 -3 39 -11l259 -104v-79l-396 157v73l396 157v-79z" />
    <glyph glyph-name="equal" unicode="=" horiz-adv-x="522" 
d="M457 395h-392v73h392v-73zM457 221h-392v73h392v-73z" />
    <glyph glyph-name="greater" unicode="&#x3e;" horiz-adv-x="522" 
d="M65 230l259 104q25 8 39 11q-18 2 -39 10l-259 104v79l396 -157v-73l-396 -157v79z" />
    <glyph glyph-name="question" unicode="?" horiz-adv-x="403" 
d="M361 534q0 -52 -24 -92.5t-75 -87.5q-41 -39 -53.5 -69t-12.5 -68q0 -7 3 -49h-74q-7 37 -7 61q0 52 18.5 91t61.5 80q33 31 46 45.5t24 37t11 48.5q0 42 -29 62.5t-73 20.5q-76 0 -149 -38l-19 73q78 40 174 40q82 0 130 -40.5t48 -114.5zM172 -8q-26 0 -42.5 17
t-16.5 42q0 24 17 41t42 17q23 0 40.5 -17.5t17.5 -40.5q0 -25 -17 -42t-41 -17z" />
    <glyph glyph-name="at" unicode="@" horiz-adv-x="926" 
d="M474 689q193 0 304.5 -118t111.5 -314q0 -134 -48.5 -201t-125.5 -67q-56 0 -116 34q-72 -35 -130 -35q-97 0 -156.5 67t-60.5 180q0 112 59.5 181t158.5 69q63 0 109 -35q4 15 11 23h50v-391q41 -24 76 -24q45 0 71.5 48.5t26.5 150.5q0 167 -90.5 265t-250.5 98
q-162 0 -261 -103.5t-99 -281.5q0 -177 99 -280t261 -103q97 0 168 38v-75q-67 -32 -168 -32q-196 0 -317 123t-121 329q0 208 120.5 331t317.5 123zM566 87v292q-34 36 -92 36q-66 0 -105 -48.5t-39 -131.5q0 -82 38.5 -129.5t103.5 -47.5q57 0 94 29z" />
    <glyph glyph-name="A" unicode="A" horiz-adv-x="596" 
d="M512 0l-74 191h-279l-74 -191h-88l263 682h77l263 -682h-88zM413 265l-104 270q-9 26 -10 39h-1q-2 -20 -10 -39l-104 -270h229z" />
    <glyph glyph-name="B" unicode="B" horiz-adv-x="572" 
d="M395 352q136 -28 136 -164q0 -83 -59.5 -135.5t-168.5 -52.5h-212v656q87 28 180 28q112 0 170.5 -45.5t58.5 -128.5q0 -53 -25.5 -95t-79.5 -63zM175 381h98q142 0 142 121q0 109 -144 109q-60 0 -96 -13v-217zM175 73h119q152 0 152 119q0 58 -38 87t-106 29h-127v-235
z" />
    <glyph glyph-name="C" unicode="C" horiz-adv-x="590" 
d="M565 648l-24 -77q-65 39 -156 39q-120 0 -190.5 -73t-70.5 -199q0 -124 68.5 -197.5t187.5 -73.5q88 0 154 37l26 -75q-77 -41 -180 -41q-158 0 -251 95t-93 254q0 161 95 256.5t254 95.5q104 0 180 -41z" />
    <glyph glyph-name="D" unicode="D" horiz-adv-x="692" 
d="M656 342q0 -158 -92 -250t-254 -92h-219v656q96 27 204 29q176 0 268.5 -90t92.5 -253zM569 341q0 127 -68 197.5t-200 70.5q-68 0 -125 -15v-519h134q123 0 191 71.5t68 194.5z" />
    <glyph glyph-name="E" unicode="E" horiz-adv-x="513" 
d="M457 603h-283v-222h249v-74h-249v-233h283v-74h-366v677h366v-74z" />
    <glyph glyph-name="F" unicode="F" horiz-adv-x="506" 
d="M176 381h247v-74h-247v-307h-85v677h366v-74h-281v-222z" />
    <glyph glyph-name="G" unicode="G" horiz-adv-x="658" 
d="M601 348v-297q-95 -63 -221 -63q-158 0 -251 95t-93 254q0 161 96 256.5t259 95.5q109 0 191 -48l-25 -77q-71 46 -166 46q-124 0 -195.5 -73t-71.5 -199q0 -124 68.5 -198.5t187.5 -74.5q75 0 139 33v176h-154v74h236z" />
    <glyph glyph-name="H" unicode="H" horiz-adv-x="722" 
d="M546 382v295h85v-677h-85v307h-370v-307h-85v677h85v-295h370z" />
    <glyph glyph-name="I" unicode="I" horiz-adv-x="267" 
d="M91 0v677h85v-677h-85z" />
    <glyph glyph-name="J" unicode="J" horiz-adv-x="315" 
d="M224 677v-517q0 -86 -41.5 -129t-114.5 -43q-40 0 -78 12l10 76q30 -10 59 -10q80 0 80 102v509h85z" />
    <glyph glyph-name="K" unicode="K" horiz-adv-x="565" 
d="M91 677h85v-315l274 315h106l-289 -327l302 -350h-107l-286 332v-332h-85v677z" />
    <glyph glyph-name="L" unicode="L" horiz-adv-x="453" 
d="M176 75h284v-75h-369v677h85v-602z" />
    <glyph glyph-name="M" unicode="M" horiz-adv-x="889" 
d="M726 0l-20 516q0 20 1 30q-5 -16 -17 -45l-224 -504h-44l-222 504q-16 38 -18 50q2 -22 1 -35l-19 -516h-83l28 679h102l216 -499q14 -30 18 -47q2 13 18 47l217 499h100l28 -679h-82z" />
    <glyph glyph-name="N" unicode="N" horiz-adv-x="714" 
d="M558 -1l-367 493q-13 19 -17 31q1 -10 1 -37v-486h-84v678h65l367 -493q13 -19 17 -31q-1 10 -1 37v486h84v-678h-65z" />
    <glyph glyph-name="O" unicode="O" horiz-adv-x="730" 
d="M694 338q0 -157 -91.5 -253.5t-237.5 -96.5t-237.5 96.5t-91.5 253.5q0 158 91.5 254.5t237.5 96.5q147 0 238 -96t91 -255zM607 338q0 125 -67 199t-175 74q-107 0 -174.5 -74.5t-67.5 -198.5t67.5 -198t174.5 -74q108 0 175 74t67 198z" />
    <glyph glyph-name="P" unicode="P" horiz-adv-x="540" 
d="M504 482q0 -95 -63.5 -154t-180.5 -59h-85v-269h-84v656q87 28 177 28q117 0 176.5 -51.5t59.5 -150.5zM418 482q0 129 -147 129q-60 0 -96 -13v-255h79q84 0 124 37t40 102z" />
    <glyph glyph-name="Q" unicode="Q" horiz-adv-x="730" 
d="M694 338q0 -128 -61.5 -217.5t-167.5 -119.5q84 -84 177 -148l-50 -55q-122 89 -221 190h-6q-146 0 -237.5 96.5t-91.5 253.5q0 158 91.5 254.5t237.5 96.5q147 0 238 -96t91 -255zM123 338q0 -124 67.5 -198t174.5 -74q108 0 175 74t67 198q0 125 -67 199t-175 74
q-107 0 -174.5 -74.5t-67.5 -198.5z" />
    <glyph glyph-name="R" unicode="R" horiz-adv-x="571" 
d="M91 0v656q87 28 177 28q117 0 176.5 -51.5t59.5 -149.5q0 -71 -36 -122t-101 -73l186 -288h-97l-174 271h-107v-271h-84zM175 343h79q84 0 124 37t40 103q0 128 -147 128q-60 0 -96 -13v-255z" />
    <glyph glyph-name="S" unicode="S" horiz-adv-x="502" 
d="M467 186q0 -89 -62 -143.5t-174 -54.5q-104 0 -192 44l21 75q88 -44 170 -44q74 0 113 31t39 87q0 42 -34.5 71t-125.5 58q-92 29 -129.5 74.5t-37.5 114.5q0 87 62.5 138.5t171.5 51.5q89 0 160 -33l-20 -74q-67 32 -138 32q-74 0 -112 -31t-38 -83q0 -46 30 -72
t113 -52q102 -32 142.5 -77.5t40.5 -112.5z" />
    <glyph glyph-name="T" unicode="T" horiz-adv-x="544" 
d="M230 0v602h-225v75h534v-75h-225v-602h-84z" />
    <glyph glyph-name="U" unicode="U" horiz-adv-x="683" 
d="M602 677v-423q0 -130 -68.5 -198t-191.5 -68q-124 0 -192.5 68t-68.5 198v423h85v-415q0 -99 46 -147.5t130 -48.5q83 0 129 48.5t46 147.5v415h85z" />
    <glyph glyph-name="V" unicode="V" horiz-adv-x="584" 
d="M83 677l201 -536q6 -16 8 -37q2 18 9 37l201 536h88l-260 -681h-77l-260 681h90z" />
    <glyph glyph-name="W" unicode="W" horiz-adv-x="899" 
d="M610 -4l-147 503q-10 33 -13 54q-3 -21 -13 -54l-147 -503h-89l-190 681h86l144 -531q6 -18 9 -38q1 18 8 38l151 531h82l151 -531q6 -22 8 -43q1 17 9 43l144 531h86l-190 -681h-89z" />
    <glyph glyph-name="X" unicode="X" horiz-adv-x="569" 
d="M460 0l-182 275l-7.5 -12.5t-6.5 -10.5l-170 -252h-95l233 343l-224 334h94l181 -269q6 12 16 27l160 242h95l-226 -337l228 -340h-96z" />
    <glyph glyph-name="Y" unicode="Y" horiz-adv-x="532" 
d="M82 677l168 -321q9 -18 16 -39q5 15 17 39l168 321h87l-230 -431v-246h-84v246l-230 431h88z" />
    <glyph glyph-name="Z" unicode="Z" horiz-adv-x="548" 
d="M37 603v74h481l11 -48l-390 -555h381v-74h-490l-13 48l390 555h-370z" />
    <glyph glyph-name="bracketleft" unicode="[" horiz-adv-x="264" 
d="M257 -217h-180v922h180v-67h-100v-788h100v-67z" />
    <glyph glyph-name="backslash" unicode="\" 
d="M243 -100l-321 855h80l321 -855h-80z" />
    <glyph glyph-name="bracketright" unicode="]" horiz-adv-x="264" 
d="M187 705v-922h-180v67h100v788h-100v67h180z" />
    <glyph glyph-name="asciicircum" unicode="^" horiz-adv-x="522" 
d="M393 167l-120 242q-8 19 -10 35q-4 -19 -11 -35l-120 -242h-81l175 355h73l175 -355h-81z" />
    <glyph glyph-name="underscore" unicode="_" horiz-adv-x="482" 
d="M423 -67h-364v67h364v-67z" />
    <glyph glyph-name="grave" unicode="`" horiz-adv-x="319" 
d="M253 570l-34 -37l-151 135l36 42z" />
    <glyph glyph-name="a" unicode="a" horiz-adv-x="473" 
d="M219 493q89 0 135 -44.5t46 -143.5v-278q-99 -39 -184 -39q-82 0 -129 35t-47 103q0 82 73 121.5t207 50.5v7q0 116 -106 116q-67 0 -127 -26l-15 71q71 27 147 27zM221 55q53 0 99 22v156q-110 -8 -155 -33.5t-45 -69.5q0 -75 101 -75z" />
    <glyph glyph-name="b" unicode="b" horiz-adv-x="548" 
d="M157 705v-242q54 30 117 30q107 0 171 -69t64 -181q0 -119 -69.5 -187t-196.5 -68q-79 0 -166 28v689h80zM266 420q-63 0 -109 -34v-309q45 -16 91 -16q88 0 134 47.5t46 132.5q0 82 -43.5 130.5t-118.5 48.5z" />
    <glyph glyph-name="c" unicode="c" horiz-adv-x="460" 
d="M431 458l-20 -75q-56 36 -122 36q-78 0 -122.5 -48.5t-44.5 -132.5q0 -81 42 -128.5t117 -47.5q61 0 123 33l20 -70q-62 -37 -144 -37q-115 0 -178 69t-63 182q0 115 67.5 184.5t180.5 69.5q84 0 144 -35z" />
    <glyph glyph-name="d" unicode="d" horiz-adv-x="548" 
d="M471 705v-690q-89 -27 -165 -27q-127 0 -197 67.5t-70 184.5q1 114 67.5 183.5t178.5 69.5q57 0 106 -26v238h80zM285 420q-74 0 -119.5 -48.5t-45.5 -131.5q0 -85 45.5 -132t133.5 -47q44 0 92 15v312q-41 32 -106 32z" />
    <glyph glyph-name="e" unicode="e" horiz-adv-x="517" 
d="M482 270q0 -26 -3 -52h-359q5 -75 48 -117t119 -42q70 0 148 33l24 -66q-82 -38 -176 -38q-114 0 -179 68t-65 185q0 113 65 182.5t169 69.5q94 0 151.5 -58.5t57.5 -164.5zM122 281h280q1 72 -35 108.5t-96 36.5q-62 0 -101.5 -38.5t-47.5 -106.5z" />
    <glyph glyph-name="f" unicode="f" horiz-adv-x="289" 
d="M251 644q-37 0 -59.5 -24t-22.5 -71v-68h103v-67h-102v-414h-80v414h-73v67h73v66q0 87 44 128.5t116 41.5q43 0 73 -12l-9 -72q-35 11 -63 11z" />
    <glyph glyph-name="g" unicode="g" horiz-adv-x="548" 
d="M282 493q66 0 124 -33q3 13 11 21h54v-497q0 -110 -56.5 -162.5t-172.5 -52.5q-81 0 -156 28l15 74q77 -29 141 -29q149 0 149 135v39q-50 -28 -111 -28q-116 0 -178.5 68.5t-62.5 182.5q1 117 68 185.5t175 68.5zM286 420q-76 0 -121 -48.5t-45 -133.5q0 -89 45 -133
t117 -44q66 0 109 32v295q-42 32 -105 32z" />
    <glyph glyph-name="h" unicode="h" horiz-adv-x="551" 
d="M300 493q178 0 178 -193v-300h-80v281q0 78 -26.5 108t-85.5 30q-70 0 -129 -36v-383h-80v705h80v-247q63 35 143 35z" />
    <glyph glyph-name="i" unicode="i" horiz-adv-x="234" 
d="M117 566q-24 0 -40 15.5t-16 39.5q0 23 16.5 39t39.5 16t39.5 -16t16.5 -39q0 -24 -16.5 -39.5t-39.5 -15.5zM77 0v481h80v-481h-80z" />
    <glyph glyph-name="j" unicode="j" horiz-adv-x="234" 
d="M117 676q23 0 39.5 -16t16.5 -39q0 -24 -16.5 -39.5t-39.5 -15.5q-24 0 -40 15.5t-16 39.5q0 23 16.5 39t39.5 16zM157 481v-538q0 -85 -44 -127.5t-114 -42.5q-46 0 -76 13l10 72q29 -11 62 -11q37 0 59.5 24t22.5 71v539h80z" />
    <glyph glyph-name="k" unicode="k" horiz-adv-x="465" 
d="M77 705h80v-436l202 212h102l-219 -230l226 -251h-103l-208 231v-231h-80v705z" />
    <glyph glyph-name="l" unicode="l" horiz-adv-x="234" 
d="M77 0v705h80v-705h-80z" />
    <glyph glyph-name="m" unicode="m" horiz-adv-x="836" 
d="M601 493q84 0 123 -48t39 -145v-300h-80v281q0 77 -23 107.5t-77 30.5q-35 0 -71 -19t-52 -50v-350h-80v288q0 73 -24 102t-80 29q-62 0 -119 -36v-383h-80v481h55q9 -11 12 -25q72 37 148 37q105 0 146 -73q63 73 163 73z" />
    <glyph glyph-name="n" unicode="n" horiz-adv-x="551" 
d="M300 493q178 0 178 -193v-300h-80v281q0 78 -26.5 108t-85.5 30q-70 0 -129 -36v-383h-80v481h55q9 -11 12 -25q72 37 156 37z" />
    <glyph glyph-name="o" unicode="o" horiz-adv-x="555" 
d="M516 241q0 -113 -65.5 -183t-172.5 -70q-108 0 -173.5 70t-65.5 183q0 112 65.5 182t173.5 70q107 0 172.5 -70t65.5 -182zM434 241q0 82 -44 130.5t-113 48.5q-68 0 -112.5 -48.5t-44.5 -130.5q0 -83 44.5 -131.5t112.5 -48.5q69 0 113 48.5t44 131.5z" />
    <glyph glyph-name="p" unicode="p" horiz-adv-x="548" 
d="M273 493q108 0 172 -69t64 -181q0 -115 -66.5 -185t-177.5 -70q-59 0 -108 26v-231h-80v698h55q7 -11 11 -21q61 33 130 33zM264 420q-62 0 -107 -33v-294q43 -32 107 -32q75 0 119.5 48t44.5 132q0 82 -44 130.5t-120 48.5z" />
    <glyph glyph-name="q" unicode="q" horiz-adv-x="548" 
d="M281 493q67 0 125 -33q5 14 11 21h54v-698h-80v231q-49 -26 -108 -26q-110 0 -177 68t-67 185q1 113 66.5 182.5t175.5 69.5zM285 420q-75 0 -120 -48.5t-45 -130.5q0 -84 44.5 -132t119.5 -48q64 0 107 32v295q-44 32 -106 32z" />
    <glyph glyph-name="r" unicode="r" horiz-adv-x="348" 
d="M270 489q37 0 64 -7l-10 -76q-28 7 -56 7q-68 0 -111 -36v-377h-80v481h53q8 -8 14 -30q55 38 126 38z" />
    <glyph glyph-name="s" unicode="s" horiz-adv-x="403" 
d="M366 132q0 -66 -46 -105t-133 -39q-83 0 -145 29l12 71q66 -29 130 -29q103 0 103 70q0 31 -24.5 48t-90.5 39q-72 24 -99.5 58.5t-27.5 84.5q0 62 47.5 98t129.5 36q71 0 124 -24l-16 -67q-52 21 -106 21q-51 0 -75.5 -18t-24.5 -47t24 -47t83 -38q72 -25 103.5 -56.5
t31.5 -84.5z" />
    <glyph glyph-name="t" unicode="t" horiz-adv-x="299" 
d="M276 70l13 -65q-36 -17 -79 -17q-62 0 -93 35.5t-31 99.5v291h-73v67h73v121h80v-121h106v-67h-106v-269q0 -44 14.5 -64t48.5 -20q13 0 47 9z" />
    <glyph glyph-name="u" unicode="u" horiz-adv-x="551" 
d="M474 481v-463q-93 -30 -174 -30q-120 0 -173.5 50.5t-53.5 151.5v291h80v-268q0 -84 33.5 -118t113.5 -34q49 0 94 16v404h80z" />
    <glyph glyph-name="v" unicode="v" horiz-adv-x="459" 
d="M89 481l129 -353q6 -19 11 -42q6 31 11 42l132 353h87l-190 -481h-83l-186 481h89z" />
    <glyph glyph-name="w" unicode="w" horiz-adv-x="715" 
d="M476 0l-111 341q-4 13 -8 35q-3 -19 -8 -35l-111 -341h-85l-143 481h84l96 -348q7 -28 9 -48q6 32 11 47l112 349h70l112 -348q8 -25 10 -45q2 17 9 44l98 349h83l-144 -481h-84z" />
    <glyph glyph-name="x" unicode="x" horiz-adv-x="446" 
d="M4 0l171 243l-171 238h90l128 -178l124 178h89l-168 -241l173 -240h-90l-130 181l-125 -181h-91z" />
    <glyph glyph-name="y" unicode="y" horiz-adv-x="459" 
d="M89 481l129 -353q5 -11 11 -42q6 31 11 42l132 353h87l-279 -698h-84l90 216l-186 482h89z" />
    <glyph glyph-name="z" unicode="z" horiz-adv-x="420" 
d="M388 438l-257 -372h255v-66h-358l-9 34l263 380h-242v67h343z" />
    <glyph glyph-name="braceleft" unicode="{" horiz-adv-x="278" 
d="M275 638h-15q-46 0 -65.5 -18.5t-19.5 -64.5v-193q0 -87 -73 -108q73 -22 73 -109v-212q0 -46 19.5 -64.5t65.5 -18.5h15v-67h-30q-76 0 -113.5 33t-37.5 103v230q0 71 -75 71h-15v67h15q75 0 75 71v211q0 70 37.5 103t113.5 33h30v-67z" />
    <glyph glyph-name="bar" unicode="|" horiz-adv-x="307" 
d="M196 -267h-85v1022h85v-1022z" />
    <glyph glyph-name="braceright" unicode="}" horiz-adv-x="278" 
d="M4 705h29q76 0 113.5 -33t37.5 -103v-211q0 -71 75 -71h16v-67h-16q-75 0 -75 -71v-230q0 -70 -37.5 -103t-113.5 -33h-29v67h15q46 0 65.5 18.5t19.5 64.5v212q0 87 73 109q-73 21 -73 108v193q0 46 -19.5 64.5t-65.5 18.5h-15v67z" />
    <glyph glyph-name="asciitilde" unicode="~" horiz-adv-x="522" 
d="M434 419l57 -35q-49 -106 -140 -106q-37 0 -70.5 19t-60.5 37.5t-49 18.5q-51 0 -84 -69l-57 35q49 105 141 105q37 0 70 -19t60.5 -37.5t49.5 -18.5q50 0 83 70z" />
    <glyph glyph-name="uni00A0" unicode="&#xa0;" horiz-adv-x="236" 
 />
    <glyph glyph-name="exclamdown" unicode="&#xa1;" horiz-adv-x="267" 
d="M133 493q25 0 42 -16.5t17 -42.5q0 -24 -17 -41t-42 -17q-23 0 -40.5 17.5t-17.5 40.5q0 25 17 42t41 17zM89 -192v196l9 313h71l9 -313v-196h-89z" />
    <glyph glyph-name="cent" unicode="&#xa2;" horiz-adv-x="522" 
d="M430 201l21 -68q-45 -28 -112 -38v-95h-78v97q-88 14 -138 79t-50 160q0 99 51 163.5t137 80.5v97h78v-93q66 -6 114 -35l-20 -74q-51 36 -115 36q-75 0 -118.5 -47.5t-43.5 -126.5q0 -77 41.5 -123.5t113.5 -46.5q58 0 119 34z" />
    <glyph glyph-name="sterling" unicode="&#xa3;" horiz-adv-x="522" 
d="M60 74h15q39 0 63 23.5t24 65.5q0 13 -1 20l-17 131h-81v62h72l-11 87q-3 19 -3 38q0 92 60.5 140t153.5 48q85 0 142 -34l-20 -73q-56 32 -118 32q-58 0 -96 -28.5t-38 -90.5q0 -7 2 -25l12 -94h147v-62h-139l14 -114q2 -20 2 -29q0 -67 -51 -100q16 3 38 3h249v-74
h-419v74z" />
    <glyph glyph-name="currency" unicode="&#xa4;" horiz-adv-x="522" 
d="M484 158l-39 -40q-34 33 -67 67q-53 -40 -117 -40q-68 0 -117 40l-67 -67l-39 40q46 44 68 64q-40 55 -40 116q0 66 40 116q-8 7 -22 20.5t-25 24t-21 20.5l39 40l67 -67q53 40 117 40q67 0 116 -40q22 23 68 67l39 -40q-8 -7 -22 -20.5t-25 -24t-21 -20.5
q39 -52 39 -116q0 -63 -39 -116q46 -44 68 -64zM399 339q0 59 -41.5 98.5t-96.5 39.5q-59 0 -99.5 -41t-40.5 -97q0 -57 41 -98.5t98 -41.5t98 41.5t41 98.5z" />
    <glyph glyph-name="yen" unicode="&#xa5;" horiz-adv-x="521" 
d="M220 230v28l-32 67h-130v62h100l-141 290h89l140 -308q11 -22 16 -40q4 13 17 40l141 308h86l-141 -290h98v-62h-128l-32 -67v-28h160v-62h-160v-168h-83v168h-162v62h162z" />
    <glyph glyph-name="brokenbar" unicode="&#xa6;" horiz-adv-x="307" 
d="M196 316h-85v439h85v-439zM111 172h85v-439h-85v439z" />
    <glyph glyph-name="section" unicode="&#xa7;" horiz-adv-x="499" 
d="M399 85q66 -44 66 -130q0 -81 -63.5 -132t-176.5 -51q-112 0 -191 50l25 72q77 -48 167 -48q74 0 113.5 28t39.5 76q0 43 -32.5 67.5t-125.5 52.5q-163 50 -163 182q0 81 61 126q-65 43 -65 134q0 81 63 129t174 48q89 0 158 -32l-20 -73q-68 31 -138 31
q-75 0 -113.5 -27.5t-38.5 -72.5t28.5 -67t112.5 -49q99 -30 140 -76t41 -108q0 -82 -62 -130zM141 257q0 -42 31.5 -70t111.5 -52q27 -8 44 -15q49 31 49 89q0 39 -36 69t-124 57l-25 8q-51 -26 -51 -86z" />
    <glyph glyph-name="dieresis" unicode="&#xa8;" horiz-adv-x="319" 
d="M81 576q-18 0 -31.5 13t-13.5 32t13.5 32.5t31.5 13.5t32 -13.5t14 -32.5q0 -18 -14 -31.5t-32 -13.5zM236 576q-18 0 -31.5 13t-13.5 32t13.5 32.5t31.5 13.5t32 -13.5t14 -32.5q0 -18 -14 -31.5t-32 -13.5z" />
    <glyph glyph-name="copyright" unicode="&#xa9;" horiz-adv-x="713" 
d="M357 19q-140 0 -230.5 89.5t-90.5 230.5q0 139 90.5 228.5t230.5 89.5t230.5 -89.5t90.5 -228.5q0 -141 -90.5 -230.5t-230.5 -89.5zM356 63q121 0 198 77.5t77 198.5t-76.5 197.5t-198.5 76.5q-120 0 -197 -76.5t-77 -197.5t77 -198.5t197 -77.5zM470 524l-17 -55
q-38 23 -92 23q-63 0 -102.5 -41t-39.5 -113q0 -70 37.5 -111.5t101.5 -41.5q50 0 90 21l19 -53q-47 -25 -109 -25q-92 0 -147 57t-55 153q0 97 56.5 154t148.5 57q63 0 109 -25z" />
    <glyph glyph-name="ordfeminine" unicode="&#xaa;" horiz-adv-x="273" 
d="M130 684q58 0 86 -27t28 -86v-161q-62 -23 -113 -23q-52 0 -81.5 21.5t-29.5 62.5q0 90 164 100v4q0 56 -58 56q-40 0 -77 -15l-9 53q45 15 90 15zM131 435q28 0 53 11v79q-103 -5 -103 -53q0 -37 50 -37z" />
    <glyph glyph-name="guillemotleft" unicode="&#xab;" horiz-adv-x="408" 
d="M119 249l91 -96l-45 -45l-135 141l135 141l45 -45zM283 249l91 -96l-45 -45l-135 141l135 141l45 -45z" />
    <glyph glyph-name="logicalnot" unicode="&#xac;" horiz-adv-x="522" 
d="M384 308h-319v73h397v-239h-78v166z" />
    <glyph glyph-name="uni00AD" unicode="&#xad;" horiz-adv-x="380" 
d="M314 219h-248v69h248v-69z" />
    <glyph glyph-name="registered" unicode="&#xae;" horiz-adv-x="429" 
d="M215 689q78 0 131 -54t53 -135t-53 -135t-131 -54q-77 0 -131 54t-54 135t54 135t131 54zM215 655q-62 0 -104 -43t-42 -112t42 -112t104 -43q63 0 104.5 43t41.5 112t-41.5 112t-104.5 43zM211 611q81 0 81 -67q0 -43 -37 -61l52 -84h-48l-47 75h-25v-75h-42v201
q30 11 66 11zM215 574q-18 0 -27 -3v-59h20q41 0 41 32q0 30 -34 30z" />
    <glyph glyph-name="macron" unicode="&#xaf;" horiz-adv-x="319" 
d="M258 597h-197v51h197v-51z" />
    <glyph glyph-name="degree" unicode="&#xb0;" horiz-adv-x="332" 
d="M167 414q-59 0 -98.5 38.5t-39.5 99.5q0 60 39.5 98.5t98.5 38.5q58 0 97.5 -39t39.5 -98q0 -61 -39 -99.5t-98 -38.5zM167 471q33 0 54.5 23t21.5 58q0 34 -21.5 57t-54.5 23t-55 -23t-22 -57q0 -35 21.5 -58t55.5 -23z" />
    <glyph glyph-name="plusminus" unicode="&#xb1;" horiz-adv-x="522" 
d="M222 162v156h-156v73h156v156h78v-156h156v-73h-156v-156h-78zM65 0v73h392v-73h-392z" />
    <glyph glyph-name="twosuperior" unicode="&#xb2;" 
d="M31 340l129 145q50 55 50 90q0 25 -19 39t-54 14q-51 0 -94 -21l-14 53q47 24 111 24t98 -28.5t34 -77.5q0 -54 -62 -122l-78 -84q-6 -7 -14 -13l1 -1q4 1 13 1h148v-54h-238z" />
    <glyph glyph-name="threesuperior" unicode="&#xb3;" 
d="M199 496q37 -5 59.5 -29.5t22.5 -59.5q0 -49 -37 -79t-103 -30q-64 0 -115 24l14 53q47 -22 97 -22q41 0 62 15.5t21 41.5q0 58 -82 58h-55v51h47q36 0 58.5 16t22.5 45q0 21 -19 35t-56 14q-50 0 -94 -21l-13 52q47 24 112 24q64 0 97.5 -27.5t33.5 -71.5
q0 -31 -19.5 -55.5t-53.5 -33.5z" />
    <glyph glyph-name="acute" unicode="&#xb4;" horiz-adv-x="319" 
d="M247 668l-151 -135l-34 37l148 140z" />
    <glyph glyph-name="micro" unicode="&#xb5;" horiz-adv-x="555" 
d="M478 0h-54q-10 10 -13 25q-65 -37 -130 -37q-88 0 -124 43v-248h-80v698h80v-278q0 -77 33 -109.5t94 -32.5q69 0 114 37v383h80v-481z" />
    <glyph glyph-name="paragraph" unicode="&#xb6;" horiz-adv-x="609" 
d="M209 -217v525q-83 0 -141 58t-58 141q0 82 58.5 140t140.5 58h387v-69h-73v-853h-80v853h-154v-853h-80z" />
    <glyph glyph-name="periodcentered" unicode="&#xb7;" horiz-adv-x="226" 
d="M114 190q-26 0 -42.5 17t-16.5 42q0 24 17 41t42 17q23 0 40.5 -17.5t17.5 -40.5q0 -25 -17 -42t-41 -17z" />
    <glyph glyph-name="cedilla" unicode="&#xb8;" horiz-adv-x="319" 
d="M254 -118q0 -37 -27.5 -60.5t-75.5 -23.5q-45 0 -78 15l11 51q37 -14 65 -14q49 0 49 34q0 37 -75 37v93l52 -1v-55q79 -13 79 -76z" />
    <glyph glyph-name="onesuperior" unicode="&#xb9;" 
d="M53 651l151 32v-378h-60v313l-82 -18z" />
    <glyph glyph-name="ordmasculine" unicode="&#xba;" horiz-adv-x="330" 
d="M308 536q0 -66 -39.5 -107.5t-104.5 -41.5q-64 0 -103.5 41.5t-39.5 107.5t39.5 107t103.5 41q65 0 104.5 -41t39.5 -107zM247 536q0 43 -23 68t-59 25t-59 -25t-23 -68q0 -44 23 -68.5t59 -24.5t59 24.5t23 68.5z" />
    <glyph glyph-name="guillemotright" unicode="&#xbb;" horiz-adv-x="408" 
d="M214 249l-135 -141l-45 45l91 96l-91 96l45 45zM378 249l-135 -141l-45 45l91 96l-91 96l45 45z" />
    <glyph glyph-name="onequarter" unicode="&#xbc;" horiz-adv-x="738" 
d="M53 651l151 32v-378h-60v313l-82 -18zM603 677l-398 -677h-69l399 677h68zM616 0v99h-172l-12 31l191 248h51v-228h50v-51h-50v-99h-58zM505 149h112v145z" />
    <glyph glyph-name="onehalf" unicode="&#xbd;" horiz-adv-x="738" 
d="M53 651l151 32v-378h-60v313l-82 -18zM603 677l-398 -677h-69l399 677h68zM460 35l129 145q50 55 50 90q0 25 -19 39t-54 14q-50 0 -94 -21l-14 53q46 24 111 24q64 0 98 -28.5t34 -77.5q0 -54 -62 -122l-78 -84q-6 -7 -14 -13l1 -1q4 1 13 1h148v-54h-238z" />
    <glyph glyph-name="threequarters" unicode="&#xbe;" horiz-adv-x="738" 
d="M199 496q37 -5 59.5 -29.5t22.5 -59.5q0 -49 -37 -79t-103 -30q-64 0 -115 24l14 53q47 -22 97 -22q41 0 62 15.5t21 41.5q0 58 -82 58h-55v51h47q36 0 58.5 16t22.5 45q0 21 -19 35t-56 14q-50 0 -94 -21l-13 52q47 24 112 24q64 0 97.5 -27.5t33.5 -71.5
q0 -31 -19.5 -55.5t-53.5 -33.5zM627 677l-398 -677h-69l399 677h68zM616 0v99h-172l-12 31l191 248h51v-228h50v-51h-50v-99h-58zM505 149h112v145z" />
    <glyph glyph-name="questiondown" unicode="&#xbf;" horiz-adv-x="408" 
d="M236 491q26 0 42.5 -16.5t16.5 -42.5q0 -24 -17 -41t-42 -17q-23 0 -40.5 17.5t-17.5 40.5q0 25 17 42t41 17zM47 -51q0 52 24 92.5t75 87.5q41 39 53.5 69t12.5 68q0 7 -3 49h74q7 -37 7 -61q0 -52 -18.5 -91t-61.5 -80q-33 -31 -46 -45.5t-24 -37t-11 -48.5
q0 -42 29 -62.5t73 -20.5q76 0 149 38l19 -73q-78 -40 -174 -40q-82 0 -130 40.5t-48 114.5z" />
    <glyph glyph-name="Agrave" unicode="&#xc0;" horiz-adv-x="596" 
d="M343 772l-26 -43l-172 108l28 47zM512 0l-74 191h-279l-74 -191h-88l263 682h77l263 -682h-88zM413 265l-104 270q-9 26 -10 39h-1q-2 -20 -10 -39l-104 -270h229z" />
    <glyph glyph-name="Aacute" unicode="&#xc1;" horiz-adv-x="596" 
d="M451 837l-172 -108l-26 43l170 112zM512 0l-74 191h-279l-74 -191h-88l263 682h77l263 -682h-88zM413 265l-104 270q-9 26 -10 39h-1q-2 -20 -10 -39l-104 -270h229z" />
    <glyph glyph-name="Acircumflex" unicode="&#xc2;" horiz-adv-x="596" 
d="M165 729l-29 46l163 109l163 -109l-30 -46l-133 89zM512 0l-74 191h-279l-74 -191h-88l263 682h77l263 -682h-88zM413 265l-104 270q-9 26 -10 39h-1q-2 -20 -10 -39l-104 -270h229z" />
    <glyph glyph-name="Atilde" unicode="&#xc3;" horiz-adv-x="596" 
d="M413 866l36 -28q-41 -73 -95 -73q-35 0 -64.5 26t-46.5 26q-28 0 -59 -50l-36 28q41 74 95 74q27 0 46.5 -13t34 -26t30.5 -13t29 11t30 38zM512 0l-74 191h-279l-74 -191h-88l263 682h77l263 -682h-88zM413 265l-104 270q-9 26 -10 39h-1q-2 -20 -10 -39l-104 -270h229z
" />
    <glyph glyph-name="Adieresis" unicode="&#xc4;" horiz-adv-x="596" 
d="M220 772q-18 0 -31.5 13.5t-13.5 32.5t13.5 32t31.5 13t32 -13.5t14 -31.5q0 -19 -14 -32.5t-32 -13.5zM375 772q-18 0 -31.5 13.5t-13.5 32.5t13.5 32t31.5 13t32 -13.5t14 -31.5q0 -19 -14 -32.5t-32 -13.5zM512 0l-74 191h-279l-74 -191h-88l263 682h77l263 -682h-88z
M413 265l-104 270q-9 26 -10 39h-1q-2 -20 -10 -39l-104 -270h229z" />
    <glyph glyph-name="Aring" unicode="&#xc5;" horiz-adv-x="596" 
d="M-3 0l260 674q-19 9 -30.5 29t-11.5 44q0 36 24.5 61t61.5 25q36 0 61 -25t25 -61q0 -53 -46 -76l259 -671h-88l-74 191h-279l-74 -191h-88zM301 793q-21 0 -33.5 -13t-12.5 -33q0 -21 12.5 -34t33.5 -13q19 0 32 13.5t13 33.5t-13 33t-32 13zM413 265l-104 270
q-9 26 -10 39h-1q-2 -20 -10 -39l-104 -270h229z" />
    <glyph glyph-name="AE" unicode="&#xc6;" horiz-adv-x="803" 
d="M747 603h-282v-222h248v-74h-248v-233h282v-74h-366v181h-220l-110 -181h-101l415 677h382v-74zM381 254v266q0 13 2 35q-1 -1 -8 -14.5t-11 -20.5l-161 -266h178z" />
    <glyph glyph-name="Ccedilla" unicode="&#xc7;" horiz-adv-x="590" 
d="M367 -12v-30q79 -13 79 -76q0 -37 -27.5 -60.5t-75.5 -23.5q-45 0 -78 15l11 51q37 -14 65 -14q49 0 49 34q0 37 -75 37v72q-130 19 -204.5 111t-74.5 233q0 161 95 256.5t254 95.5q104 0 180 -41l-24 -77q-65 39 -156 39q-120 0 -190.5 -73t-70.5 -199
q0 -124 68.5 -197.5t187.5 -73.5q88 0 154 37l26 -75q-77 -41 -180 -41h-13z" />
    <glyph glyph-name="Egrave" unicode="&#xc8;" horiz-adv-x="513" 
d="M317 772l-26 -43l-172 108l28 47zM457 603h-283v-222h249v-74h-249v-233h283v-74h-366v677h366v-74z" />
    <glyph glyph-name="Eacute" unicode="&#xc9;" horiz-adv-x="513" 
d="M425 837l-172 -108l-26 43l170 112zM457 603h-283v-222h249v-74h-249v-233h283v-74h-366v677h366v-74z" />
    <glyph glyph-name="Ecircumflex" unicode="&#xca;" horiz-adv-x="513" 
d="M139 729l-29 46l163 109l163 -109l-30 -46l-133 89zM457 603h-283v-222h249v-74h-249v-233h283v-74h-366v677h366v-74z" />
    <glyph glyph-name="Edieresis" unicode="&#xcb;" horiz-adv-x="513" 
d="M194 772q-18 0 -31.5 13.5t-13.5 32.5t13.5 32t31.5 13t32 -13.5t14 -31.5q0 -19 -14 -32.5t-32 -13.5zM349 772q-18 0 -31.5 13.5t-13.5 32.5t13.5 32t31.5 13t32 -13.5t14 -31.5q0 -19 -14 -32.5t-32 -13.5zM457 603h-283v-222h249v-74h-249v-233h283v-74h-366v677h366
v-74z" />
    <glyph glyph-name="Igrave" unicode="&#xcc;" horiz-adv-x="267" 
d="M178 772l-26 -43l-172 108l28 47zM91 0v677h85v-677h-85z" />
    <glyph glyph-name="Iacute" unicode="&#xcd;" horiz-adv-x="267" 
d="M286 837l-172 -108l-26 43l170 112zM91 0v677h85v-677h-85z" />
    <glyph glyph-name="Icircumflex" unicode="&#xce;" horiz-adv-x="267" 
d="M0 729l-29 46l163 109l163 -109l-30 -46l-133 89zM91 0v677h85v-677h-85z" />
    <glyph glyph-name="Idieresis" unicode="&#xcf;" horiz-adv-x="267" 
d="M55 772q-18 0 -31.5 13.5t-13.5 32.5t13.5 32t31.5 13t32 -13.5t14 -31.5q0 -19 -14 -32.5t-32 -13.5zM210 772q-18 0 -31.5 13.5t-13.5 32.5t13.5 32t31.5 13t32 -13.5t14 -31.5q0 -19 -14 -32.5t-32 -13.5zM91 0v677h85v-677h-85z" />
    <glyph glyph-name="Eth" unicode="&#xd0;" horiz-adv-x="699" 
d="M302 685q176 0 268.5 -90t92.5 -253q0 -158 -91.5 -250t-254.5 -92h-219v309h-92v70h92v277q96 27 204 29zM183 75h134q123 0 191 71.5t68 194.5q0 127 -68 197.5t-200 70.5q-68 0 -125 -15v-215h157v-70h-157v-234z" />
    <glyph glyph-name="Ntilde" unicode="&#xd1;" horiz-adv-x="714" 
d="M473 866l36 -28q-41 -73 -95 -73q-34 0 -64 26t-47 26q-28 0 -59 -50l-36 28q41 74 95 74q27 0 46.5 -13t34 -26t30.5 -13t29 11t30 38zM558 -1l-367 493q-13 19 -17 31q1 -10 1 -37v-486h-84v678h65l367 -493q13 -19 17 -31q-1 10 -1 37v486h84v-678h-65z" />
    <glyph glyph-name="Ograve" unicode="&#xd2;" horiz-adv-x="730" 
d="M410 772l-26 -43l-172 108l28 47zM694 338q0 -157 -91.5 -253.5t-237.5 -96.5t-237.5 96.5t-91.5 253.5q0 158 91.5 254.5t237.5 96.5q147 0 238 -96t91 -255zM607 338q0 125 -67 199t-175 74q-107 0 -174.5 -74.5t-67.5 -198.5t67.5 -198t174.5 -74q108 0 175 74t67 198
z" />
    <glyph glyph-name="Oacute" unicode="&#xd3;" horiz-adv-x="730" 
d="M518 837l-172 -108l-26 43l170 112zM694 338q0 -157 -91.5 -253.5t-237.5 -96.5t-237.5 96.5t-91.5 253.5q0 158 91.5 254.5t237.5 96.5q147 0 238 -96t91 -255zM607 338q0 125 -67 199t-175 74q-107 0 -174.5 -74.5t-67.5 -198.5t67.5 -198t174.5 -74q108 0 175 74
t67 198z" />
    <glyph glyph-name="Ocircumflex" unicode="&#xd4;" horiz-adv-x="730" 
d="M232 729l-29 46l163 109l163 -109l-30 -46l-133 89zM694 338q0 -157 -91.5 -253.5t-237.5 -96.5t-237.5 96.5t-91.5 253.5q0 158 91.5 254.5t237.5 96.5q147 0 238 -96t91 -255zM607 338q0 125 -67 199t-175 74q-107 0 -174.5 -74.5t-67.5 -198.5t67.5 -198t174.5 -74
q108 0 175 74t67 198z" />
    <glyph glyph-name="Otilde" unicode="&#xd5;" horiz-adv-x="730" 
d="M480 866l36 -28q-41 -73 -95 -73q-27 0 -46.5 13t-34 26t-30.5 13q-28 0 -59 -50l-36 28q41 74 95 74q34 0 64 -26t47 -26q16 0 29 11t30 38zM694 338q0 -157 -91.5 -253.5t-237.5 -96.5t-237.5 96.5t-91.5 253.5q0 158 91.5 254.5t237.5 96.5q147 0 238 -96t91 -255z
M607 338q0 125 -67 199t-175 74q-107 0 -174.5 -74.5t-67.5 -198.5t67.5 -198t174.5 -74q108 0 175 74t67 198z" />
    <glyph glyph-name="Odieresis" unicode="&#xd6;" horiz-adv-x="730" 
d="M287 772q-18 0 -31.5 13.5t-13.5 32.5t13.5 32t31.5 13t32 -13.5t14 -31.5q0 -19 -14 -32.5t-32 -13.5zM442 772q-18 0 -31.5 13.5t-13.5 32.5t13.5 32t31.5 13t32 -13.5t14 -31.5q0 -19 -14 -32.5t-32 -13.5zM694 338q0 -157 -91.5 -253.5t-237.5 -96.5t-237.5 96.5
t-91.5 253.5q0 158 91.5 254.5t237.5 96.5q147 0 238 -96t91 -255zM607 338q0 125 -67 199t-175 74q-107 0 -174.5 -74.5t-67.5 -198.5t67.5 -198t174.5 -74q108 0 175 74t67 198z" />
    <glyph glyph-name="multiply" unicode="&#xd7;" horiz-adv-x="522" 
d="M465 189l-49 -50l-155 156l-155 -156l-49 50l155 156l-155 156l49 49l155 -156l155 156l49 -49l-155 -156z" />
    <glyph glyph-name="Oslash" unicode="&#xd8;" horiz-adv-x="730" 
d="M685 660l-70 -81q79 -95 79 -241q0 -157 -91.5 -253.5t-237.5 -96.5q-118 0 -202 65l-69 -80l-45 40l70 81q-83 96 -83 244q0 158 91.5 254.5t237.5 96.5q122 0 207 -68l68 79zM123 338q0 -107 52 -179l343 399q-64 53 -153 53q-107 0 -174.5 -74.5t-67.5 -198.5zM365 66
q108 0 175 74t67 198q0 103 -48 175l-343 -398q63 -49 149 -49z" />
    <glyph glyph-name="Ugrave" unicode="&#xd9;" horiz-adv-x="683" 
d="M387 772l-26 -43l-172 108l28 47zM602 677v-423q0 -130 -68.5 -198t-191.5 -68q-124 0 -192.5 68t-68.5 198v423h85v-415q0 -99 46 -147.5t130 -48.5q83 0 129 48.5t46 147.5v415h85z" />
    <glyph glyph-name="Uacute" unicode="&#xda;" horiz-adv-x="683" 
d="M495 837l-172 -108l-26 43l170 112zM602 677v-423q0 -130 -68.5 -198t-191.5 -68q-124 0 -192.5 68t-68.5 198v423h85v-415q0 -99 46 -147.5t130 -48.5q83 0 129 48.5t46 147.5v415h85z" />
    <glyph glyph-name="Ucircumflex" unicode="&#xdb;" horiz-adv-x="683" 
d="M209 729l-29 46l163 109l163 -109l-30 -46l-133 89zM602 677v-423q0 -130 -68.5 -198t-191.5 -68q-124 0 -192.5 68t-68.5 198v423h85v-415q0 -99 46 -147.5t130 -48.5q83 0 129 48.5t46 147.5v415h85z" />
    <glyph glyph-name="Udieresis" unicode="&#xdc;" horiz-adv-x="683" 
d="M264 772q-18 0 -31.5 13.5t-13.5 32.5t13.5 32t31.5 13t32 -13.5t14 -31.5q0 -19 -14 -32.5t-32 -13.5zM419 772q-18 0 -31.5 13.5t-13.5 32.5t13.5 32t31.5 13t32 -13.5t14 -31.5q0 -19 -14 -32.5t-32 -13.5zM602 677v-423q0 -130 -68.5 -198t-191.5 -68
q-124 0 -192.5 68t-68.5 198v423h85v-415q0 -99 46 -147.5t130 -48.5q83 0 129 48.5t46 147.5v415h85z" />
    <glyph glyph-name="Yacute" unicode="&#xdd;" horiz-adv-x="532" 
d="M419 837l-172 -108l-26 43l170 112zM82 677l168 -321q9 -18 16 -39q5 15 17 39l168 321h87l-230 -431v-246h-84v246l-230 431h88z" />
    <glyph glyph-name="Thorn" unicode="&#xde;" horiz-adv-x="540" 
d="M268 550q117 0 176.5 -52t59.5 -150q0 -95 -63.5 -154t-180.5 -59h-85v-135h-84v677h84v-136q51 9 93 9zM175 209h79q164 0 164 139q0 129 -147 129q-57 0 -96 -14v-254z" />
    <glyph glyph-name="germandbls" unicode="&#xdf;" horiz-adv-x="544" 
d="M77 0l1 513q0 96 52 150t136 54q81 0 123 -44t42 -109q0 -38 -14.5 -72t-32.5 -55.5t-32.5 -46t-14.5 -44.5q0 -26 18.5 -40.5t67.5 -37.5q54 -25 77 -57t23 -80q0 -67 -42.5 -105t-128.5 -38q-76 0 -135 27l11 72q60 -28 119 -28q98 0 98 70q0 29 -19.5 47t-62.5 36
q-61 24 -84 52t-23 70q0 37 24 73t48 73t24 75q0 39 -23 63.5t-63 24.5q-50 0 -79.5 -33.5t-29.5 -100.5v-509h-80z" />
    <glyph glyph-name="agrave" unicode="&#xe0;" horiz-adv-x="473" 
d="M282 570l-34 -37l-151 135l36 42zM219 493q89 0 135 -44.5t46 -143.5v-278q-99 -39 -184 -39q-82 0 -129 35t-47 103q0 82 73 121.5t207 50.5v7q0 116 -106 116q-67 0 -127 -26l-15 71q71 27 147 27zM221 55q53 0 99 22v156q-110 -8 -155 -33.5t-45 -69.5q0 -75 101 -75z
" />
    <glyph glyph-name="aacute" unicode="&#xe1;" horiz-adv-x="473" 
d="M361 668l-151 -135l-34 37l148 140zM219 493q89 0 135 -44.5t46 -143.5v-278q-99 -39 -184 -39q-82 0 -129 35t-47 103q0 82 73 121.5t207 50.5v7q0 116 -106 116q-67 0 -127 -26l-15 71q71 27 147 27zM221 55q53 0 99 22v156q-110 -8 -155 -33.5t-45 -69.5
q0 -75 101 -75z" />
    <glyph glyph-name="acircumflex" unicode="&#xe2;" horiz-adv-x="473" 
d="M123 533l-37 37l144 140l144 -140l-37 -37l-107 108zM219 493q89 0 135 -44.5t46 -143.5v-278q-99 -39 -184 -39q-82 0 -129 35t-47 103q0 82 73 121.5t207 50.5v7q0 116 -106 116q-67 0 -127 -26l-15 71q71 27 147 27zM221 55q53 0 99 22v156q-110 -8 -155 -33.5
t-45 -69.5q0 -75 101 -75z" />
    <glyph glyph-name="atilde" unicode="&#xe3;" horiz-adv-x="473" 
d="M344 670l36 -28q-41 -74 -95 -74q-27 0 -46.5 13t-34 26.5t-30.5 13.5q-28 0 -59 -50l-36 28q41 74 95 74q34 0 64 -26.5t47 -26.5q28 0 59 50zM219 493q89 0 135 -44.5t46 -143.5v-278q-99 -39 -184 -39q-82 0 -129 35t-47 103q0 82 73 121.5t207 50.5v7q0 116 -106 116
q-67 0 -127 -26l-15 71q71 27 147 27zM221 55q53 0 99 22v156q-110 -8 -155 -33.5t-45 -69.5q0 -75 101 -75z" />
    <glyph glyph-name="adieresis" unicode="&#xe4;" horiz-adv-x="473" 
d="M151 576q-18 0 -31.5 13t-13.5 32t13.5 32.5t31.5 13.5t32 -13.5t14 -32.5q0 -18 -14 -31.5t-32 -13.5zM306 576q-18 0 -31.5 13t-13.5 32t13.5 32.5t31.5 13.5t32 -13.5t14 -32.5q0 -18 -14 -31.5t-32 -13.5zM219 493q89 0 135 -44.5t46 -143.5v-278q-99 -39 -184 -39
q-82 0 -129 35t-47 103q0 82 73 121.5t207 50.5v7q0 116 -106 116q-67 0 -127 -26l-15 71q71 27 147 27zM221 55q53 0 99 22v156q-110 -8 -155 -33.5t-45 -69.5q0 -75 101 -75z" />
    <glyph glyph-name="aring" unicode="&#xe5;" horiz-adv-x="473" 
d="M230 535q-37 0 -61.5 25t-24.5 61t25 61t61 25t61 -25.5t25 -60.5q0 -36 -25 -61t-61 -25zM230 574q19 0 32 13.5t13 33.5t-13 33t-32 13q-21 0 -33.5 -13t-12.5 -33q0 -21 12.5 -34t33.5 -13zM219 493q89 0 135 -44.5t46 -143.5v-278q-99 -39 -184 -39q-82 0 -129 35
t-47 103q0 82 73 121.5t207 50.5v7q0 116 -106 116q-67 0 -127 -26l-15 71q71 27 147 27zM221 55q53 0 99 22v156q-110 -8 -155 -33.5t-45 -69.5q0 -75 101 -75z" />
    <glyph glyph-name="ae" unicode="&#xe6;" horiz-adv-x="779" 
d="M399 218v-87q48 -72 155 -72q66 0 142 33l24 -66q-81 -38 -170 -38q-122 0 -182 65q-67 -65 -167 -65q-70 0 -115.5 35.5t-45.5 102.5q0 76 67.5 118.5t212.5 52.5v8q0 116 -106 116q-68 0 -127 -27l-15 71q72 28 147 28q121 0 154 -89q58 89 173 89q88 0 143 -59
t55 -164q0 -29 -4 -52h-341zM542 426q-63 0 -101 -41.5t-41 -103.5h263q1 72 -32.5 108.5t-88.5 36.5zM216 55q31 0 59.5 13t44.5 34v131q-108 -6 -154 -32t-46 -71q0 -75 96 -75z" />
    <glyph glyph-name="ccedilla" unicode="&#xe7;" horiz-adv-x="460" 
d="M404 95l20 -70q-62 -37 -143 -37v-30q79 -13 79 -76q0 -37 -27.5 -60.5t-75.5 -23.5q-45 0 -78 15l11 51q37 -14 65 -14q49 0 49 34q0 37 -75 37v71q-92 15 -141 81.5t-49 165.5q0 115 67.5 184.5t180.5 69.5q84 0 144 -35l-20 -75q-56 36 -122 36q-78 0 -122.5 -48.5
t-44.5 -132.5q0 -81 42 -128.5t117 -47.5q61 0 123 33z" />
    <glyph glyph-name="egrave" unicode="&#xe8;" horiz-adv-x="517" 
d="M326 570l-34 -37l-151 135l36 42zM482 270q0 -26 -3 -52h-359q5 -75 48 -117t119 -42q70 0 148 33l24 -66q-82 -38 -176 -38q-114 0 -179 68t-65 185q0 113 65 182.5t169 69.5q94 0 151.5 -58.5t57.5 -164.5zM122 281h280q1 72 -35 108.5t-96 36.5q-62 0 -101.5 -38.5
t-47.5 -106.5z" />
    <glyph glyph-name="eacute" unicode="&#xe9;" horiz-adv-x="517" 
d="M405 668l-151 -135l-34 37l148 140zM482 270q0 -26 -3 -52h-359q5 -75 48 -117t119 -42q70 0 148 33l24 -66q-82 -38 -176 -38q-114 0 -179 68t-65 185q0 113 65 182.5t169 69.5q94 0 151.5 -58.5t57.5 -164.5zM122 281h280q1 72 -35 108.5t-96 36.5q-62 0 -101.5 -38.5
t-47.5 -106.5z" />
    <glyph glyph-name="ecircumflex" unicode="&#xea;" horiz-adv-x="517" 
d="M167 533l-37 37l144 140l144 -140l-37 -37l-107 108zM482 270q0 -26 -3 -52h-359q5 -75 48 -117t119 -42q70 0 148 33l24 -66q-82 -38 -176 -38q-114 0 -179 68t-65 185q0 113 65 182.5t169 69.5q94 0 151.5 -58.5t57.5 -164.5zM122 281h280q1 72 -35 108.5t-96 36.5
q-62 0 -101.5 -38.5t-47.5 -106.5z" />
    <glyph glyph-name="edieresis" unicode="&#xeb;" horiz-adv-x="517" 
d="M195 576q-18 0 -31.5 13t-13.5 32t13.5 32.5t31.5 13.5t32 -13.5t14 -32.5q0 -18 -14 -31.5t-32 -13.5zM350 576q-18 0 -31.5 13t-13.5 32t13.5 32.5t31.5 13.5t32 -13.5t14 -32.5q0 -18 -14 -31.5t-32 -13.5zM482 270q0 -26 -3 -52h-359q5 -75 48 -117t119 -42
q70 0 148 33l24 -66q-82 -38 -176 -38q-114 0 -179 68t-65 185q0 113 65 182.5t169 69.5q94 0 151.5 -58.5t57.5 -164.5zM122 281h280q1 72 -35 108.5t-96 36.5q-62 0 -101.5 -38.5t-47.5 -106.5z" />
    <glyph glyph-name="igrave" unicode="&#xec;" horiz-adv-x="234" 
d="M170 570l-34 -37l-151 135l36 42zM77 0v481h80v-481h-80z" />
    <glyph glyph-name="iacute" unicode="&#xed;" horiz-adv-x="234" 
d="M249 668l-151 -135l-34 37l148 140zM77 0v481h80v-481h-80z" />
    <glyph glyph-name="icircumflex" unicode="&#xee;" horiz-adv-x="234" 
d="M11 533l-37 37l144 140l144 -140l-37 -37l-107 108zM77 0v481h80v-481h-80z" />
    <glyph glyph-name="idieresis" unicode="&#xef;" horiz-adv-x="234" 
d="M39 576q-18 0 -31.5 13t-13.5 32t13.5 32.5t31.5 13.5t32 -13.5t14 -32.5q0 -18 -14 -31.5t-32 -13.5zM194 576q-18 0 -31.5 13t-13.5 32t13.5 32.5t31.5 13.5t32 -13.5t14 -32.5q0 -18 -14 -31.5t-32 -13.5zM77 0v481h80v-481h-80z" />
    <glyph glyph-name="eth" unicode="&#xf0;" horiz-adv-x="548" 
d="M461 680l-113 -59q154 -139 154 -356q0 -135 -61 -206t-173 -71q-105 0 -167 69t-62 182q0 112 67 179t174 67q60 0 103 -30q-33 72 -103 130l-143 -75l-27 49l120 63q-32 20 -88 46l29 60q74 -29 130 -69l134 70zM267 62q83 0 118.5 52.5t35.5 151.5q0 57 -10 104
q-50 47 -126 47t-120.5 -49t-44.5 -130q0 -82 40 -129t107 -47z" />
    <glyph glyph-name="ntilde" unicode="&#xf1;" horiz-adv-x="551" 
d="M391 670l36 -28q-41 -74 -95 -74q-35 0 -64.5 26.5t-46.5 26.5q-28 0 -59 -50l-36 28q41 74 95 74q27 0 46.5 -13.5t34 -26.5t30.5 -13q28 0 59 50zM300 493q178 0 178 -193v-300h-80v281q0 78 -26.5 108t-85.5 30q-70 0 -129 -36v-383h-80v481h55q9 -11 12 -25
q72 37 156 37z" />
    <glyph glyph-name="ograve" unicode="&#xf2;" horiz-adv-x="555" 
d="M331 570l-34 -37l-151 135l36 42zM516 241q0 -113 -65.5 -183t-172.5 -70q-108 0 -173.5 70t-65.5 183q0 112 65.5 182t173.5 70q107 0 172.5 -70t65.5 -182zM434 241q0 82 -44 130.5t-113 48.5q-68 0 -112.5 -48.5t-44.5 -130.5q0 -83 44.5 -131.5t112.5 -48.5
q69 0 113 48.5t44 131.5z" />
    <glyph glyph-name="oacute" unicode="&#xf3;" horiz-adv-x="555" 
d="M410 668l-151 -135l-34 37l148 140zM516 241q0 -113 -65.5 -183t-172.5 -70q-108 0 -173.5 70t-65.5 183q0 112 65.5 182t173.5 70q107 0 172.5 -70t65.5 -182zM434 241q0 82 -44 130.5t-113 48.5q-68 0 -112.5 -48.5t-44.5 -130.5q0 -83 44.5 -131.5t112.5 -48.5
q69 0 113 48.5t44 131.5z" />
    <glyph glyph-name="ocircumflex" unicode="&#xf4;" horiz-adv-x="555" 
d="M172 533l-37 37l144 140l144 -140l-37 -37l-107 108zM516 241q0 -113 -65.5 -183t-172.5 -70q-108 0 -173.5 70t-65.5 183q0 112 65.5 182t173.5 70q107 0 172.5 -70t65.5 -182zM434 241q0 82 -44 130.5t-113 48.5q-68 0 -112.5 -48.5t-44.5 -130.5q0 -83 44.5 -131.5
t112.5 -48.5q69 0 113 48.5t44 131.5z" />
    <glyph glyph-name="otilde" unicode="&#xf5;" horiz-adv-x="555" 
d="M393 670l36 -28q-41 -74 -95 -74q-34 0 -64 26.5t-47 26.5q-28 0 -59 -50l-36 28q41 74 95 74q27 0 46.5 -13.5t34 -26.5t30.5 -13q28 0 59 50zM516 241q0 -113 -65.5 -183t-172.5 -70q-108 0 -173.5 70t-65.5 183q0 112 65.5 182t173.5 70q107 0 172.5 -70t65.5 -182z
M434 241q0 82 -44 130.5t-113 48.5q-68 0 -112.5 -48.5t-44.5 -130.5q0 -83 44.5 -131.5t112.5 -48.5q69 0 113 48.5t44 131.5z" />
    <glyph glyph-name="odieresis" unicode="&#xf6;" horiz-adv-x="555" 
d="M200 576q-18 0 -31.5 13t-13.5 32t13.5 32.5t31.5 13.5t32 -13.5t14 -32.5q0 -18 -14 -31.5t-32 -13.5zM355 576q-18 0 -31.5 13t-13.5 32t13.5 32.5t31.5 13.5t32 -13.5t14 -32.5q0 -18 -14 -31.5t-32 -13.5zM516 241q0 -113 -65.5 -183t-172.5 -70q-108 0 -173.5 70
t-65.5 183q0 112 65.5 182t173.5 70q107 0 172.5 -70t65.5 -182zM434 241q0 82 -44 130.5t-113 48.5q-68 0 -112.5 -48.5t-44.5 -130.5q0 -83 44.5 -131.5t112.5 -48.5q69 0 113 48.5t44 131.5z" />
    <glyph glyph-name="divide" unicode="&#xf7;" horiz-adv-x="522" 
d="M262 464q-25 0 -40.5 16t-15.5 40q0 23 16 39t40 16q22 0 38 -16t16 -39q0 -24 -15.5 -40t-38.5 -16zM457 308h-392v73h392v-73zM262 115q-25 0 -40.5 16t-15.5 40q0 23 16 39t40 16q22 0 38 -16t16 -39q0 -24 -15.5 -40t-38.5 -16z" />
    <glyph glyph-name="oslash" unicode="&#xf8;" horiz-adv-x="555" 
d="M533 475l-67 -71q50 -67 50 -163q0 -113 -65.5 -183t-172.5 -70q-91 0 -154 52l-63 -67l-38 35l65 69q-49 70 -49 164q0 112 65.5 182t173.5 70q90 0 153 -52l64 68zM120 241q0 -60 25 -104l232 247q-41 36 -100 36q-68 0 -112.5 -48.5t-44.5 -130.5zM434 241
q0 58 -24 103l-233 -247q41 -36 100 -36q69 0 113 48.5t44 131.5z" />
    <glyph glyph-name="ugrave" unicode="&#xf9;" horiz-adv-x="551" 
d="M327 570l-34 -37l-151 135l36 42zM474 481v-463q-93 -30 -174 -30q-120 0 -173.5 50.5t-53.5 151.5v291h80v-268q0 -84 33.5 -118t113.5 -34q49 0 94 16v404h80z" />
    <glyph glyph-name="uacute" unicode="&#xfa;" horiz-adv-x="551" 
d="M406 668l-151 -135l-34 37l148 140zM474 481v-463q-93 -30 -174 -30q-120 0 -173.5 50.5t-53.5 151.5v291h80v-268q0 -84 33.5 -118t113.5 -34q49 0 94 16v404h80z" />
    <glyph glyph-name="ucircumflex" unicode="&#xfb;" horiz-adv-x="551" 
d="M168 533l-37 37l144 140l144 -140l-37 -37l-107 108zM474 481v-463q-93 -30 -174 -30q-120 0 -173.5 50.5t-53.5 151.5v291h80v-268q0 -84 33.5 -118t113.5 -34q49 0 94 16v404h80z" />
    <glyph glyph-name="udieresis" unicode="&#xfc;" horiz-adv-x="551" 
d="M196 576q-18 0 -31.5 13t-13.5 32t13.5 32.5t31.5 13.5t32 -13.5t14 -32.5q0 -18 -14 -31.5t-32 -13.5zM351 576q-18 0 -31.5 13t-13.5 32t13.5 32.5t31.5 13.5t32 -13.5t14 -32.5q0 -18 -14 -31.5t-32 -13.5zM474 481v-463q-93 -30 -174 -30q-120 0 -173.5 50.5
t-53.5 151.5v291h80v-268q0 -84 33.5 -118t113.5 -34q49 0 94 16v404h80z" />
    <glyph glyph-name="yacute" unicode="&#xfd;" horiz-adv-x="459" 
d="M361 668l-151 -135l-34 37l148 140zM89 481l129 -353q5 -11 11 -42q6 31 11 42l132 353h87l-279 -698h-84l90 216l-186 482h89z" />
    <glyph glyph-name="thorn" unicode="&#xfe;" horiz-adv-x="548" 
d="M157 705v-242q54 30 117 30q107 0 171 -69t64 -181q0 -115 -66.5 -185t-177.5 -70q-59 0 -108 26v-231h-80v922h80zM266 420q-63 0 -109 -34v-293q43 -32 107 -32q75 0 119.5 48t44.5 132q0 82 -44 130.5t-118 48.5z" />
    <glyph glyph-name="ydieresis" unicode="&#xff;" horiz-adv-x="459" 
d="M151 576q-18 0 -31.5 13t-13.5 32t13.5 32.5t31.5 13.5t32 -13.5t14 -32.5q0 -18 -14 -31.5t-32 -13.5zM306 576q-18 0 -31.5 13t-13.5 32t13.5 32.5t31.5 13.5t32 -13.5t14 -32.5q0 -18 -14 -31.5t-32 -13.5zM89 481l129 -353q5 -11 11 -42q6 31 11 42l132 353h87
l-279 -698h-84l90 216l-186 482h89z" />
    <glyph glyph-name="Amacron" unicode="&#x100;" horiz-adv-x="596" 
d="M397 793h-197v51h197v-51zM512 0l-74 191h-279l-74 -191h-88l263 682h77l263 -682h-88zM413 265l-104 270q-9 26 -10 39h-1q-2 -20 -10 -39l-104 -270h229z" />
    <glyph glyph-name="amacron" unicode="&#x101;" horiz-adv-x="473" 
d="M328 597h-197v51h197v-51zM219 493q89 0 135 -44.5t46 -143.5v-278q-99 -39 -184 -39q-82 0 -129 35t-47 103q0 82 73 121.5t207 50.5v7q0 116 -106 116q-67 0 -127 -26l-15 71q71 27 147 27zM221 55q53 0 99 22v156q-110 -8 -155 -33.5t-45 -69.5q0 -75 101 -75z" />
    <glyph glyph-name="Abreve" unicode="&#x102;" horiz-adv-x="596" 
d="M378 858h51q-2 -55 -36.5 -89.5t-93.5 -34.5q-60 0 -94.5 34.5t-36.5 89.5h51q0 -36 22 -57t58 -21q35 0 57 21t22 57zM512 0l-74 191h-279l-74 -191h-88l263 682h77l263 -682h-88zM413 265l-104 270q-9 26 -10 39h-1q-2 -20 -10 -39l-104 -270h229z" />
    <glyph glyph-name="abreve" unicode="&#x103;" horiz-adv-x="473" 
d="M309 676h51q-2 -62 -36 -98t-94 -36t-94.5 36t-36.5 98h51q0 -42 22 -65t58 -23t57.5 23t21.5 65zM219 493q89 0 135 -44.5t46 -143.5v-278q-99 -39 -184 -39q-82 0 -129 35t-47 103q0 82 73 121.5t207 50.5v7q0 116 -106 116q-67 0 -127 -26l-15 71q71 27 147 27z
M221 55q53 0 99 22v156q-110 -8 -155 -33.5t-45 -69.5q0 -75 101 -75z" />
    <glyph glyph-name="Aogonek" unicode="&#x104;" horiz-adv-x="596" 
d="M596 -142l10 -47q-20 -9 -52 -9q-43 0 -67.5 22t-24.5 61q0 35 21.5 66t55.5 49h-27l-74 191h-279l-74 -191h-88l263 682h77l263 -682q-34 -20 -57 -48.5t-23 -57.5q0 -41 44 -41q10 0 32 5zM413 265l-104 270q-9 26 -10 39h-1q-2 -20 -10 -39l-104 -270h229z" />
    <glyph glyph-name="aogonek" unicode="&#x105;" horiz-adv-x="473" 
d="M398 -142l10 -47q-20 -9 -52 -9q-43 0 -67.5 22t-24.5 61q0 59 64 116q-56 -13 -103 -13q-88 0 -136.5 35t-48.5 103q0 82 73 121.5t207 50.5v7q0 116 -106 116q-67 0 -127 -26l-15 71q71 27 147 27q89 0 135 -44.5t46 -143.5v-284q-78 -82 -78 -127q0 -41 44 -41
q10 0 32 5zM224 55q51 0 96 17v161q-110 -8 -155 -33.5t-45 -71.5q0 -73 104 -73z" />
    <glyph glyph-name="Cacute" unicode="&#x106;" horiz-adv-x="590" 
d="M507 837l-172 -108l-26 43l170 112zM565 648l-24 -77q-65 39 -156 39q-120 0 -190.5 -73t-70.5 -199q0 -124 68.5 -197.5t187.5 -73.5q88 0 154 37l26 -75q-77 -41 -180 -41q-158 0 -251 95t-93 254q0 161 95 256.5t254 95.5q104 0 180 -41z" />
    <glyph glyph-name="cacute" unicode="&#x107;" horiz-adv-x="460" 
d="M409 668l-151 -135l-34 37l148 140zM431 458l-20 -75q-56 36 -122 36q-78 0 -122.5 -48.5t-44.5 -132.5q0 -81 42 -128.5t117 -47.5q61 0 123 33l20 -70q-62 -37 -144 -37q-115 0 -178 69t-63 182q0 115 67.5 184.5t180.5 69.5q84 0 144 -35z" />
    <glyph glyph-name="Ccircumflex" unicode="&#x108;" horiz-adv-x="590" 
d="M221 729l-29 46l163 109l163 -109l-30 -46l-133 89zM565 648l-24 -77q-65 39 -156 39q-120 0 -190.5 -73t-70.5 -199q0 -124 68.5 -197.5t187.5 -73.5q88 0 154 37l26 -75q-77 -41 -180 -41q-158 0 -251 95t-93 254q0 161 95 256.5t254 95.5q104 0 180 -41z" />
    <glyph glyph-name="ccircumflex" unicode="&#x109;" horiz-adv-x="460" 
d="M171 533l-37 37l144 140l144 -140l-37 -37l-107 108zM431 458l-20 -75q-56 36 -122 36q-78 0 -122.5 -48.5t-44.5 -132.5q0 -81 42 -128.5t117 -47.5q61 0 123 33l20 -70q-62 -37 -144 -37q-115 0 -178 69t-63 182q0 115 67.5 184.5t180.5 69.5q84 0 144 -35z" />
    <glyph glyph-name="Cdotaccent" unicode="&#x10a;" horiz-adv-x="590" 
d="M355 766q-21 0 -36.5 15t-15.5 36q0 22 15.5 37t36.5 15t36 -15t15 -37t-15 -36.5t-36 -14.5zM565 648l-24 -77q-65 39 -156 39q-120 0 -190.5 -73t-70.5 -199q0 -124 68.5 -197.5t187.5 -73.5q88 0 154 37l26 -75q-77 -41 -180 -41q-158 0 -251 95t-93 254
q0 161 95 256.5t254 95.5q104 0 180 -41z" />
    <glyph glyph-name="cdotaccent" unicode="&#x10b;" horiz-adv-x="460" 
d="M278 570q-21 0 -36.5 15t-15.5 36t15.5 36t36.5 15t36 -15t15 -36q0 -22 -15 -36.5t-36 -14.5zM431 458l-20 -75q-56 36 -122 36q-78 0 -122.5 -48.5t-44.5 -132.5q0 -81 42 -128.5t117 -47.5q61 0 123 33l20 -70q-62 -37 -144 -37q-115 0 -178 69t-63 182
q0 115 67.5 184.5t180.5 69.5q84 0 144 -35z" />
    <glyph glyph-name="Ccaron" unicode="&#x10c;" horiz-adv-x="590" 
d="M221 884l134 -89l133 89l30 -46l-163 -109l-163 109zM565 648l-24 -77q-65 39 -156 39q-120 0 -190.5 -73t-70.5 -199q0 -124 68.5 -197.5t187.5 -73.5q88 0 154 37l26 -75q-77 -41 -180 -41q-158 0 -251 95t-93 254q0 161 95 256.5t254 95.5q104 0 180 -41z" />
    <glyph glyph-name="ccaron" unicode="&#x10d;" horiz-adv-x="460" 
d="M171 710l107 -108l107 108l37 -38l-144 -139l-144 139zM431 458l-20 -75q-56 36 -122 36q-78 0 -122.5 -48.5t-44.5 -132.5q0 -81 42 -128.5t117 -47.5q61 0 123 33l20 -70q-62 -37 -144 -37q-115 0 -178 69t-63 182q0 115 67.5 184.5t180.5 69.5q84 0 144 -35z" />
    <glyph glyph-name="Dcaron" unicode="&#x10e;" horiz-adv-x="692" 
d="M213 884l134 -89l133 89l30 -46l-163 -109l-163 109zM656 342q0 -158 -92 -250t-254 -92h-219v656q96 27 204 29q176 0 268.5 -90t92.5 -253zM569 341q0 127 -68 197.5t-200 70.5q-68 0 -125 -15v-519h134q123 0 191 71.5t68 194.5z" />
    <glyph glyph-name="dcaron" unicode="&#x10f;" horiz-adv-x="580" 
d="M471 705v-690q-89 -27 -165 -27q-127 0 -197 67.5t-70 184.5q1 114 67.5 183.5t178.5 69.5q57 0 106 -26v238h80zM520 705h80q0 -90 -30 -203h-52q3 62 3 115q0 47 -1 88zM285 420q-74 0 -119.5 -48.5t-45.5 -131.5q0 -85 45.5 -132t133.5 -47q44 0 92 15v312
q-41 32 -106 32z" />
    <glyph glyph-name="Dcroat" unicode="&#x110;" horiz-adv-x="699" 
d="M302 685q176 0 268.5 -90t92.5 -253q0 -158 -91.5 -250t-254.5 -92h-219v309h-92v70h92v277q96 27 204 29zM183 75h134q123 0 191 71.5t68 194.5q0 127 -68 197.5t-200 70.5q-68 0 -125 -15v-215h157v-70h-157v-234z" />
    <glyph glyph-name="dcroat" unicode="&#x111;" horiz-adv-x="548" 
d="M471 560v-545q-89 -27 -165 -27q-127 0 -197 67.5t-70 184.5q1 114 67.5 183.5t178.5 69.5q57 0 106 -26v93h-143v58h143v87h80v-87h73v-58h-73zM391 76v312q-41 32 -106 32q-74 0 -119.5 -48.5t-45.5 -131.5q0 -85 45.5 -132t133.5 -47q44 0 92 15z" />
    <glyph glyph-name="Emacron" unicode="&#x112;" horiz-adv-x="513" 
d="M371 793h-197v51h197v-51zM457 603h-283v-222h249v-74h-249v-233h283v-74h-366v677h366v-74z" />
    <glyph glyph-name="emacron" unicode="&#x113;" horiz-adv-x="517" 
d="M372 597h-197v51h197v-51zM482 270q0 -26 -3 -52h-359q5 -75 48 -117t119 -42q70 0 148 33l24 -66q-82 -38 -176 -38q-114 0 -179 68t-65 185q0 113 65 182.5t169 69.5q94 0 151.5 -58.5t57.5 -164.5zM122 281h280q1 72 -35 108.5t-96 36.5q-62 0 -101.5 -38.5
t-47.5 -106.5z" />
    <glyph glyph-name="Ebreve" unicode="&#x114;" horiz-adv-x="513" 
d="M352 858h51q-2 -55 -36.5 -89.5t-93.5 -34.5q-60 0 -94.5 34.5t-36.5 89.5h51q0 -36 22 -57t58 -21q35 0 57 21t22 57zM457 603h-283v-222h249v-74h-249v-233h283v-74h-366v677h366v-74z" />
    <glyph glyph-name="ebreve" unicode="&#x115;" horiz-adv-x="517" 
d="M353 676h51q-2 -62 -36 -98t-94 -36t-94.5 36t-36.5 98h51q0 -42 22 -65t58 -23t57.5 23t21.5 65zM482 270q0 -26 -3 -52h-359q5 -75 48 -117t119 -42q70 0 148 33l24 -66q-82 -38 -176 -38q-114 0 -179 68t-65 185q0 113 65 182.5t169 69.5q94 0 151.5 -58.5
t57.5 -164.5zM122 281h280q1 72 -35 108.5t-96 36.5q-62 0 -101.5 -38.5t-47.5 -106.5z" />
    <glyph glyph-name="Edotaccent" unicode="&#x116;" horiz-adv-x="513" 
d="M273 766q-21 0 -36.5 15t-15.5 36q0 22 15.5 37t36.5 15t36 -15t15 -37t-15 -36.5t-36 -14.5zM457 603h-283v-222h249v-74h-249v-233h283v-74h-366v677h366v-74z" />
    <glyph glyph-name="edotaccent" unicode="&#x117;" horiz-adv-x="517" 
d="M274 570q-21 0 -36.5 15t-15.5 36t15.5 36t36.5 15t36 -15t15 -36q0 -22 -15 -36.5t-36 -14.5zM482 270q0 -26 -3 -52h-359q5 -75 48 -117t119 -42q70 0 148 33l24 -66q-82 -38 -176 -38q-114 0 -179 68t-65 185q0 113 65 182.5t169 69.5q94 0 151.5 -58.5t57.5 -164.5z
M122 281h280q1 72 -35 108.5t-96 36.5q-62 0 -101.5 -38.5t-47.5 -106.5z" />
    <glyph glyph-name="Eogonek" unicode="&#x118;" horiz-adv-x="513" 
d="M453 -142l10 -47q-20 -9 -52 -9q-43 0 -67.5 22t-24.5 61q0 34 20.5 65t51.5 50h-300v677h366v-74h-283v-222h249v-74h-249v-233h283v-74q-34 -20 -57 -48.5t-23 -57.5q0 -41 44 -41q9 0 32 5z" />
    <glyph glyph-name="eogonek" unicode="&#x119;" horiz-adv-x="517" 
d="M482 270q0 -26 -3 -52h-359q5 -75 48 -117t119 -42q70 0 148 33l24 -66q-80 -70 -80 -118q0 -41 44 -41q9 0 32 5l10 -47q-20 -9 -52 -9q-43 0 -67.5 22t-24.5 61q0 50 45 97q-45 -8 -83 -8q-114 0 -179 68t-65 185q0 113 65 182.5t169 69.5q94 0 151.5 -58.5
t57.5 -164.5zM122 281h280q1 72 -35 108.5t-96 36.5q-62 0 -101.5 -38.5t-47.5 -106.5z" />
    <glyph glyph-name="Ecaron" unicode="&#x11a;" horiz-adv-x="513" 
d="M139 884l134 -89l133 89l30 -46l-163 -109l-163 109zM457 603h-283v-222h249v-74h-249v-233h283v-74h-366v677h366v-74z" />
    <glyph glyph-name="ecaron" unicode="&#x11b;" horiz-adv-x="517" 
d="M167 710l107 -108l107 108l37 -38l-144 -139l-144 139zM482 270q0 -26 -3 -52h-359q5 -75 48 -117t119 -42q70 0 148 33l24 -66q-82 -38 -176 -38q-114 0 -179 68t-65 185q0 113 65 182.5t169 69.5q94 0 151.5 -58.5t57.5 -164.5zM122 281h280q1 72 -35 108.5t-96 36.5
q-62 0 -101.5 -38.5t-47.5 -106.5z" />
    <glyph glyph-name="Gcircumflex" unicode="&#x11c;" horiz-adv-x="658" 
d="M227 729l-29 46l163 109l163 -109l-30 -46l-133 89zM601 348v-297q-95 -63 -221 -63q-158 0 -251 95t-93 254q0 161 96 256.5t259 95.5q109 0 191 -48l-25 -77q-71 46 -166 46q-124 0 -195.5 -73t-71.5 -199q0 -124 68.5 -198.5t187.5 -74.5q75 0 139 33v176h-154v74h236
z" />
    <glyph glyph-name="gcircumflex" unicode="&#x11d;" horiz-adv-x="548" 
d="M170 533l-37 37l144 140l144 -140l-37 -37l-107 108zM282 493q66 0 124 -33q3 13 11 21h54v-497q0 -110 -56.5 -162.5t-172.5 -52.5q-81 0 -156 28l15 74q77 -29 141 -29q149 0 149 135v39q-50 -28 -111 -28q-116 0 -178.5 68.5t-62.5 182.5q1 117 68 185.5t175 68.5z
M286 420q-76 0 -121 -48.5t-45 -133.5q0 -89 45 -133t117 -44q66 0 109 32v295q-42 32 -105 32z" />
    <glyph glyph-name="Gbreve" unicode="&#x11e;" horiz-adv-x="658" 
d="M440 858h51q-2 -55 -36.5 -89.5t-93.5 -34.5q-60 0 -94.5 34.5t-36.5 89.5h51q0 -36 22 -57t58 -21q35 0 57 21t22 57zM601 348v-297q-95 -63 -221 -63q-158 0 -251 95t-93 254q0 161 96 256.5t259 95.5q109 0 191 -48l-25 -77q-71 46 -166 46q-124 0 -195.5 -73
t-71.5 -199q0 -124 68.5 -198.5t187.5 -74.5q75 0 139 33v176h-154v74h236z" />
    <glyph glyph-name="gbreve" unicode="&#x11f;" horiz-adv-x="548" 
d="M170 533l-37 37l144 140l144 -140l-37 -37l-107 108zM282 493q66 0 124 -33q3 13 11 21h54v-497q0 -110 -56.5 -162.5t-172.5 -52.5q-81 0 -156 28l15 74q77 -29 141 -29q149 0 149 135v39q-50 -28 -111 -28q-116 0 -178.5 68.5t-62.5 182.5q1 117 68 185.5t175 68.5z
M286 420q-76 0 -121 -48.5t-45 -133.5q0 -89 45 -133t117 -44q66 0 109 32v295q-42 32 -105 32z" />
    <glyph glyph-name="Gdotaccent" unicode="&#x120;" horiz-adv-x="658" 
d="M361 766q-21 0 -36.5 15t-15.5 36q0 22 15.5 37t36.5 15t36 -15t15 -37t-15 -36.5t-36 -14.5zM601 348v-297q-95 -63 -221 -63q-158 0 -251 95t-93 254q0 161 96 256.5t259 95.5q109 0 191 -48l-25 -77q-71 46 -166 46q-124 0 -195.5 -73t-71.5 -199q0 -124 68.5 -198.5
t187.5 -74.5q75 0 139 33v176h-154v74h236z" />
    <glyph glyph-name="gdotaccent" unicode="&#x121;" horiz-adv-x="548" 
d="M277 570q-21 0 -36.5 15t-15.5 36t15.5 36t36.5 15t36 -15t15 -36q0 -22 -15 -36.5t-36 -14.5zM282 493q66 0 124 -33q3 13 11 21h54v-497q0 -110 -56.5 -162.5t-172.5 -52.5q-81 0 -156 28l15 74q77 -29 141 -29q149 0 149 135v39q-50 -28 -111 -28q-116 0 -178.5 68.5
t-62.5 182.5q1 117 68 185.5t175 68.5zM286 420q-76 0 -121 -48.5t-45 -133.5q0 -89 45 -133t117 -44q66 0 109 32v295q-42 32 -105 32z" />
    <glyph glyph-name="Gcommaaccent" unicode="&#x122;" horiz-adv-x="658" 
d="M601 348v-297q-95 -63 -221 -63q-158 0 -251 95t-93 254q0 161 96 256.5t259 95.5q109 0 191 -48l-25 -77q-71 46 -166 46q-124 0 -195.5 -73t-71.5 -199q0 -124 68.5 -198.5t187.5 -74.5q75 0 139 33v176h-154v74h236zM350 -191q-40 10 -40 51q0 21 14.5 36t36.5 15
q24 0 39 -17.5t15 -50.5q0 -60 -38 -123h-42q15 68 15 89z" />
    <glyph glyph-name="gcommaaccent" unicode="&#x123;" horiz-adv-x="548" 
d="M288 673q40 -11 40 -52q0 -21 -14.5 -36t-36.5 -15q-24 0 -39 17.5t-15 50.5q0 61 38 124h42q-15 -70 -15 -89zM282 493q66 0 124 -33q3 13 11 21h54v-497q0 -110 -56.5 -162.5t-172.5 -52.5q-81 0 -156 28l15 74q77 -29 141 -29q149 0 149 135v39q-50 -28 -111 -28
q-116 0 -178.5 68.5t-62.5 182.5q1 117 68 185.5t175 68.5zM286 420q-76 0 -121 -48.5t-45 -133.5q0 -89 45 -133t117 -44q66 0 109 32v295q-42 32 -105 32z" />
    <glyph glyph-name="Hcircumflex" unicode="&#x124;" horiz-adv-x="722" 
d="M228 729l-29 46l163 109l163 -109l-30 -46l-133 89zM546 382v295h85v-677h-85v307h-370v-307h-85v677h85v-295h370z" />
    <glyph glyph-name="hcircumflex" unicode="&#x125;" horiz-adv-x="551" 
d="M181 740l-37 37l144 140l144 -140l-37 -37l-107 108zM300 493q178 0 178 -193v-300h-80v281q0 78 -26.5 108t-85.5 30q-70 0 -129 -36v-383h-80v705h80v-247q63 35 143 35z" />
    <glyph glyph-name="Hbar" unicode="&#x126;" horiz-adv-x="737" 
d="M553 564v113h85v-113h93v-69h-93v-495h-85v307h-370v-307h-85v495h-92v69h92v113h85v-113h370zM553 382v113h-370v-113h370z" />
    <glyph glyph-name="hbar" unicode="&#x127;" horiz-adv-x="551" 
d="M300 493q178 0 178 -193v-300h-80v281q0 78 -26.5 108t-85.5 30q-70 0 -129 -36v-383h-80v560h-73v58h73v87h80v-87h143v-58h-143v-102q63 35 143 35z" />
    <glyph glyph-name="Itilde" unicode="&#x128;" horiz-adv-x="267" 
d="M248 866l36 -28q-41 -73 -95 -73q-27 0 -46.5 13t-34 26t-30.5 13q-28 0 -59 -50l-36 28q41 74 95 74q34 0 64 -26t47 -26q16 0 29 11t30 38zM91 0v677h85v-677h-85z" />
    <glyph glyph-name="itilde" unicode="&#x129;" horiz-adv-x="234" 
d="M232 670l36 -28q-41 -74 -95 -74q-27 0 -46.5 13t-34 26.5t-30.5 13.5q-28 0 -59 -50l-36 28q41 74 95 74q34 0 64 -26.5t47 -26.5q28 0 59 50zM77 0v481h80v-481h-80z" />
    <glyph glyph-name="Imacron" unicode="&#x12a;" horiz-adv-x="267" 
d="M232 793h-197v51h197v-51zM91 0v677h85v-677h-85z" />
    <glyph glyph-name="imacron" unicode="&#x12b;" horiz-adv-x="234" 
d="M216 597h-197v51h197v-51zM77 0v481h80v-481h-80z" />
    <glyph glyph-name="Ibreve" unicode="&#x12c;" horiz-adv-x="267" 
d="M213 858h51q-2 -55 -36.5 -89.5t-93.5 -34.5q-60 0 -94.5 34.5t-36.5 89.5h51q0 -36 22 -57t58 -21q35 0 57 21t22 57zM91 0v677h85v-677h-85z" />
    <glyph glyph-name="ibreve" unicode="&#x12d;" horiz-adv-x="234" 
d="M197 676h51q-2 -62 -36 -98t-94 -36t-94.5 36t-36.5 98h51q0 -42 22 -65t58 -23t57.5 23t21.5 65zM77 0v481h80v-481h-80z" />
    <glyph glyph-name="Iogonek" unicode="&#x12e;" horiz-adv-x="267" 
d="M188 -142l10 -47q-20 -9 -52 -9q-43 0 -67.5 22t-24.5 61q0 61 58 115h-21v677h85v-677q-64 -56 -64 -106q0 -41 44 -41q10 0 32 5z" />
    <glyph glyph-name="iogonek" unicode="&#x12f;" horiz-adv-x="234" 
d="M117 566q-24 0 -40 15.5t-16 39.5q0 23 16.5 39t39.5 16t39.5 -16t16.5 -39q0 -24 -16.5 -39.5t-39.5 -15.5zM169 -142l10 -47q-20 -9 -52 -9q-43 0 -67.5 22t-24.5 61q0 67 63 115h-21v481h80v-481q-64 -56 -64 -106q0 -41 44 -41q9 0 32 5z" />
    <glyph glyph-name="Idotaccent" unicode="&#x130;" horiz-adv-x="267" 
d="M134 766q-21 0 -36.5 15t-15.5 36q0 22 15.5 37t36.5 15t36 -15t15 -37t-15 -36.5t-36 -14.5zM91 0v677h85v-677h-85z" />
    <glyph glyph-name="dotlessi" unicode="&#x131;" horiz-adv-x="234" 
d="M77 0v481h80v-481h-80z" />
    <glyph glyph-name="IJ" unicode="&#x132;" horiz-adv-x="582" 
d="M91 0v677h85v-677h-85zM491 677v-517q0 -86 -41.5 -129t-114.5 -43q-40 0 -78 12l10 76q30 -10 59 -10q80 0 80 102v509h85z" />
    <glyph glyph-name="ij" unicode="&#x133;" horiz-adv-x="468" 
d="M117 566q-24 0 -40 15.5t-16 39.5q0 23 16.5 39t39.5 16t39.5 -16t16.5 -39q0 -24 -16.5 -39.5t-39.5 -15.5zM351 676q23 0 39.5 -16t16.5 -39q0 -24 -16.5 -39.5t-39.5 -15.5q-24 0 -40 15.5t-16 39.5q0 23 16.5 39t39.5 16zM77 0v481h80v-481h-80zM391 481v-538
q0 -85 -44 -127.5t-114 -42.5q-46 0 -76 13l10 72q29 -11 62 -11q37 0 59.5 24t22.5 71v539h80z" />
    <glyph glyph-name="Jcircumflex" unicode="&#x134;" horiz-adv-x="315" 
d="M49 729l-29 46l163 109l163 -109l-30 -46l-133 89zM224 677v-517q0 -86 -41.5 -129t-114.5 -43q-40 0 -78 12l10 76q30 -10 59 -10q80 0 80 102v509h85z" />
    <glyph glyph-name="jcircumflex" unicode="&#x135;" horiz-adv-x="234" 
d="M11 533l-37 37l144 140l144 -140l-37 -37l-107 108zM157 481v-538q0 -85 -44 -127.5t-114 -42.5q-46 0 -76 13l10 72q29 -11 62 -11q37 0 59.5 24t22.5 71v539h80z" />
    <glyph glyph-name="Kcommaaccent" unicode="&#x136;" horiz-adv-x="565" 
d="M91 677h85v-315l274 315h106l-289 -327l302 -350h-107l-286 332v-332h-85v677zM306 -191q-40 10 -40 51q0 21 14.5 36t36.5 15q24 0 39 -17.5t15 -50.5q0 -60 -38 -123h-42q15 68 15 89z" />
    <glyph glyph-name="kcommaaccent" unicode="&#x137;" horiz-adv-x="465" 
d="M77 705h80v-436l202 212h102l-219 -230l226 -251h-103l-208 231v-231h-80v705zM251 -191q-40 10 -40 51q0 21 14.5 36t36.5 15q24 0 39 -17.5t15 -50.5q0 -60 -38 -123h-42q15 68 15 89z" />
    <glyph glyph-name="kgreenlandic" unicode="&#x138;" horiz-adv-x="465" 
d="M77 481h80v-212l202 212h102l-219 -230l226 -251h-103l-208 231v-231h-80v481z" />
    <glyph glyph-name="Lacute" unicode="&#x139;" horiz-adv-x="453" 
d="M286 837l-172 -108l-26 43l170 112zM176 75h284v-75h-369v677h85v-602z" />
    <glyph glyph-name="lacute" unicode="&#x13a;" horiz-adv-x="234" 
d="M249 875l-151 -135l-34 37l148 140zM77 0v705h80v-705h-80z" />
    <glyph glyph-name="Lcommaaccent" unicode="&#x13b;" horiz-adv-x="453" 
d="M176 75h284v-75h-369v677h85v-602zM263 -191q-40 10 -40 51q0 21 14.5 36t36.5 15q24 0 39 -17.5t15 -50.5q0 -60 -38 -123h-42q15 68 15 89z" />
    <glyph glyph-name="lcommaaccent" unicode="&#x13c;" horiz-adv-x="234" 
d="M77 0v705h80v-705h-80zM104 -191q-40 10 -40 51q0 21 14.5 36t36.5 15q24 0 39 -17.5t15 -50.5q0 -60 -38 -123h-42q15 68 15 89z" />
    <glyph glyph-name="Lcaron" unicode="&#x13d;" horiz-adv-x="453" 
d="M176 75h284v-75h-369v677h85v-602zM294 677h80q0 -90 -30 -203h-52q3 62 3 115q0 47 -1 88z" />
    <glyph glyph-name="lcaron" unicode="&#x13e;" horiz-adv-x="265" 
d="M77 0v705h80v-705h-80zM206 705h80q0 -90 -30 -203h-52q3 62 3 115q0 47 -1 88z" />
    <glyph glyph-name="Ldot" unicode="&#x13f;" horiz-adv-x="453" 
d="M176 75h284v-75h-369v677h85v-602zM332 293q-21 0 -36.5 15t-15.5 36t15.5 36t36.5 15t36 -15t15 -36q0 -22 -15 -36.5t-36 -14.5z" />
    <glyph glyph-name="ldot" unicode="&#x140;" horiz-adv-x="265" 
d="M77 0v705h80v-705h-80zM251 296q-21 0 -36.5 15t-15.5 36t15.5 36t36.5 15t36 -15t15 -36q0 -22 -15 -36.5t-36 -14.5z" />
    <glyph glyph-name="Lslash" unicode="&#x141;" horiz-adv-x="467" 
d="M474 0h-369v278l-73 -57v73l73 57v326h85v-260l114 88v-73l-114 -88v-269h284v-75z" />
    <glyph glyph-name="lslash" unicode="&#x142;" horiz-adv-x="233" 
d="M77 0v278l-74 -57v71l74 57v356h80v-294l74 57v-70l-74 -57v-341h-80z" />
    <glyph glyph-name="Nacute" unicode="&#x143;" horiz-adv-x="714" 
d="M511 837l-172 -108l-26 43l170 112zM558 -1l-367 493q-13 19 -17 31q1 -10 1 -37v-486h-84v678h65l367 -493q13 -19 17 -31q-1 10 -1 37v486h84v-678h-65z" />
    <glyph glyph-name="nacute" unicode="&#x144;" horiz-adv-x="551" 
d="M408 668l-151 -135l-34 37l148 140zM300 493q178 0 178 -193v-300h-80v281q0 78 -26.5 108t-85.5 30q-70 0 -129 -36v-383h-80v481h55q9 -11 12 -25q72 37 156 37z" />
    <glyph glyph-name="Ncommaaccent" unicode="&#x145;" horiz-adv-x="714" 
d="M558 -1l-367 493q-13 19 -17 31q1 -10 1 -37v-486h-84v678h65l367 -493q13 -19 17 -31q-1 10 -1 37v486h84v-678h-65zM345 -191q-40 10 -40 51q0 21 14.5 36t36.5 15q24 0 39 -17.5t15 -50.5q0 -60 -38 -123h-42q15 68 15 89z" />
    <glyph glyph-name="ncommaaccent" unicode="&#x146;" horiz-adv-x="551" 
d="M300 493q178 0 178 -193v-300h-80v281q0 78 -26.5 108t-85.5 30q-70 0 -129 -36v-383h-80v481h55q9 -11 12 -25q72 37 156 37zM271 -191q-40 10 -40 51q0 21 14.5 36t36.5 15q24 0 39 -17.5t15 -50.5q0 -60 -38 -123h-42q15 68 15 89z" />
    <glyph glyph-name="Ncaron" unicode="&#x147;" horiz-adv-x="714" 
d="M225 884l134 -89l133 89l30 -46l-163 -109l-163 109zM558 -1l-367 493q-13 19 -17 31q1 -10 1 -37v-486h-84v678h65l367 -493q13 -19 17 -31q-1 10 -1 37v486h84v-678h-65z" />
    <glyph glyph-name="ncaron" unicode="&#x148;" horiz-adv-x="551" 
d="M170 710l107 -108l107 108l37 -38l-144 -139l-144 139zM300 493q178 0 178 -193v-300h-80v281q0 78 -26.5 108t-85.5 30q-70 0 -129 -36v-383h-80v481h55q9 -11 12 -25q72 37 156 37z" />
    <glyph glyph-name="napostrophe" unicode="&#x149;" horiz-adv-x="616" 
d="M56 598q-45 11 -45 57q0 25 16.5 41.5t41.5 16.5q27 0 44 -20t17 -57q0 -82 -48 -161h-48q22 80 22 123zM365 493q178 0 178 -193v-300h-80v281q0 78 -26.5 108t-85.5 30q-70 0 -129 -36v-383h-80v481h55q9 -11 12 -25q72 37 156 37z" />
    <glyph glyph-name="Eng" unicode="&#x14a;" horiz-adv-x="714" 
d="M156 678l367 -493q13 -19 17 -31q-1 12 -1 37v486h84v-734q0 -85 -44 -127.5t-113 -42.5q-48 0 -76 13l9 72q29 -11 63 -11q37 0 59 23.5t22 71.5v76l-352 474q-13 19 -17 31q1 -10 1 -37v-486h-84v678h65z" />
    <glyph glyph-name="eng" unicode="&#x14b;" horiz-adv-x="551" 
d="M300 493q178 0 178 -193v-357q0 -85 -44 -127.5t-113 -42.5q-48 0 -76 13l9 72q29 -11 63 -11q37 0 59 23.5t22 71.5v339q0 78 -26.5 108t-85.5 30q-70 0 -129 -36v-383h-80v481h55q9 -11 12 -25q72 37 156 37z" />
    <glyph glyph-name="Omacron" unicode="&#x14c;" horiz-adv-x="730" 
d="M464 793h-197v51h197v-51zM694 338q0 -157 -91.5 -253.5t-237.5 -96.5t-237.5 96.5t-91.5 253.5q0 158 91.5 254.5t237.5 96.5q147 0 238 -96t91 -255zM607 338q0 125 -67 199t-175 74q-107 0 -174.5 -74.5t-67.5 -198.5t67.5 -198t174.5 -74q108 0 175 74t67 198z" />
    <glyph glyph-name="omacron" unicode="&#x14d;" horiz-adv-x="555" 
d="M377 597h-197v51h197v-51zM516 241q0 -113 -65.5 -183t-172.5 -70q-108 0 -173.5 70t-65.5 183q0 112 65.5 182t173.5 70q107 0 172.5 -70t65.5 -182zM434 241q0 82 -44 130.5t-113 48.5q-68 0 -112.5 -48.5t-44.5 -130.5q0 -83 44.5 -131.5t112.5 -48.5q69 0 113 48.5
t44 131.5z" />
    <glyph glyph-name="Obreve" unicode="&#x14e;" horiz-adv-x="730" 
d="M445 858h51q-2 -55 -36.5 -89.5t-93.5 -34.5q-60 0 -94.5 34.5t-36.5 89.5h51q0 -36 22 -57t58 -21q35 0 57 21t22 57zM694 338q0 -157 -91.5 -253.5t-237.5 -96.5t-237.5 96.5t-91.5 253.5q0 158 91.5 254.5t237.5 96.5q147 0 238 -96t91 -255zM607 338q0 125 -67 199
t-175 74q-107 0 -174.5 -74.5t-67.5 -198.5t67.5 -198t174.5 -74q108 0 175 74t67 198z" />
    <glyph glyph-name="obreve" unicode="&#x14f;" horiz-adv-x="555" 
d="M358 676h51q-2 -62 -36 -98t-94 -36t-94.5 36t-36.5 98h51q0 -42 22 -65t58 -23t57.5 23t21.5 65zM516 241q0 -113 -65.5 -183t-172.5 -70q-108 0 -173.5 70t-65.5 183q0 112 65.5 182t173.5 70q107 0 172.5 -70t65.5 -182zM434 241q0 82 -44 130.5t-113 48.5
q-68 0 -112.5 -48.5t-44.5 -130.5q0 -83 44.5 -131.5t112.5 -48.5q69 0 113 48.5t44 131.5z" />
    <glyph glyph-name="Ohungarumlaut" unicode="&#x150;" horiz-adv-x="730" 
d="M428 855l-121 -127l-37 33l119 131zM568 855l-121 -127l-37 33l119 131zM694 338q0 -157 -91.5 -253.5t-237.5 -96.5t-237.5 96.5t-91.5 253.5q0 158 91.5 254.5t237.5 96.5q147 0 238 -96t91 -255zM607 338q0 125 -67 199t-175 74q-107 0 -174.5 -74.5t-67.5 -198.5
t67.5 -198t174.5 -74q108 0 175 74t67 198z" />
    <glyph glyph-name="ohungarumlaut" unicode="&#x151;" horiz-adv-x="555" 
d="M317 684l-88 -152l-44 23l84 155zM438 684l-88 -152l-44 23l84 155zM516 241q0 -113 -65.5 -183t-172.5 -70q-108 0 -173.5 70t-65.5 183q0 112 65.5 182t173.5 70q107 0 172.5 -70t65.5 -182zM434 241q0 82 -44 130.5t-113 48.5q-68 0 -112.5 -48.5t-44.5 -130.5
q0 -83 44.5 -131.5t112.5 -48.5q69 0 113 48.5t44 131.5z" />
    <glyph glyph-name="OE" unicode="&#x152;" horiz-adv-x="1029" 
d="M607 0v107q-84 -119 -245 -119q-144 0 -235 96.5t-91 253.5q0 158 91 254.5t235 96.5q161 0 245 -119v107h366v-74h-283v-222h249v-74h-249v-233h283v-74h-366zM365 66q108 0 175 74t67 198q0 125 -67 199t-175 74q-107 0 -174.5 -74.5t-67.5 -198.5t67.5 -198t174.5 -74
z" />
    <glyph glyph-name="oe" unicode="&#x153;" horiz-adv-x="877" 
d="M842 270q0 -26 -3 -52h-342q8 -159 164 -159q61 0 132 33l27 -66q-79 -38 -163 -38q-145 0 -202 105q-59 -105 -187 -105q-104 0 -166.5 69t-62.5 184t62.5 183.5t166.5 68.5q63 0 112 -29t77 -80q58 109 187 109q91 0 144.5 -58.5t53.5 -164.5zM499 281h263
q1 73 -32 109t-92 36q-58 0 -94.5 -38.5t-44.5 -106.5zM269 61q65 0 106 48.5t41 131.5t-41 131t-106 48q-66 0 -107.5 -47.5t-41.5 -131.5q0 -85 41.5 -132.5t107.5 -47.5z" />
    <glyph glyph-name="Racute" unicode="&#x154;" horiz-adv-x="571" 
d="M436 837l-172 -108l-26 43l170 112zM91 0v656q87 28 177 28q117 0 176.5 -51.5t59.5 -149.5q0 -71 -36 -122t-101 -73l186 -288h-97l-174 271h-107v-271h-84zM175 343h79q84 0 124 37t40 103q0 128 -147 128q-60 0 -96 -13v-255z" />
    <glyph glyph-name="racute" unicode="&#x155;" horiz-adv-x="348" 
d="M328 668l-151 -135l-34 37l148 140zM270 489q37 0 64 -7l-10 -76q-28 7 -56 7q-68 0 -111 -36v-377h-80v481h53q8 -8 14 -30q55 38 126 38z" />
    <glyph glyph-name="Rcommaaccent" unicode="&#x156;" horiz-adv-x="571" 
d="M91 0v656q87 28 177 28q117 0 176.5 -51.5t59.5 -149.5q0 -71 -36 -122t-101 -73l186 -288h-97l-174 271h-107v-271h-84zM175 343h79q84 0 124 37t40 103q0 128 -147 128q-60 0 -96 -13v-255zM302 -191q-40 10 -40 51q0 21 14.5 36t36.5 15q24 0 39 -17.5t15 -50.5
q0 -60 -38 -123h-42q15 68 15 89z" />
    <glyph glyph-name="rcommaaccent" unicode="&#x157;" horiz-adv-x="348" 
d="M270 489q37 0 64 -7l-10 -76q-28 7 -56 7q-68 0 -111 -36v-377h-80v481h53q8 -8 14 -30q55 38 126 38zM104 -191q-40 10 -40 51q0 21 14.5 36t36.5 15q24 0 39 -17.5t15 -50.5q0 -60 -38 -123h-42q15 68 15 89z" />
    <glyph glyph-name="Rcaron" unicode="&#x158;" horiz-adv-x="571" 
d="M150 884l134 -89l133 89l30 -46l-163 -109l-163 109zM91 0v656q87 28 177 28q117 0 176.5 -51.5t59.5 -149.5q0 -71 -36 -122t-101 -73l186 -288h-97l-174 271h-107v-271h-84zM175 343h79q84 0 124 37t40 103q0 128 -147 128q-60 0 -96 -13v-255z" />
    <glyph glyph-name="rcaron" unicode="&#x159;" horiz-adv-x="348" 
d="M90 710l107 -108l107 108l37 -38l-144 -139l-144 139zM270 489q37 0 64 -7l-10 -76q-28 7 -56 7q-68 0 -111 -36v-377h-80v481h53q8 -8 14 -30q55 38 126 38z" />
    <glyph glyph-name="Sacute" unicode="&#x15a;" horiz-adv-x="502" 
d="M414 837l-172 -108l-26 43l170 112zM467 186q0 -89 -62 -143.5t-174 -54.5q-104 0 -192 44l21 75q88 -44 170 -44q74 0 113 31t39 87q0 42 -34.5 71t-125.5 58q-92 29 -129.5 74.5t-37.5 114.5q0 87 62.5 138.5t171.5 51.5q89 0 160 -33l-20 -74q-67 32 -138 32
q-74 0 -112 -31t-38 -83q0 -46 30 -72t113 -52q102 -32 142.5 -77.5t40.5 -112.5z" />
    <glyph glyph-name="sacute" unicode="&#x15b;" horiz-adv-x="403" 
d="M338 668l-151 -135l-34 37l148 140zM366 132q0 -66 -46 -105t-133 -39q-83 0 -145 29l12 71q66 -29 130 -29q103 0 103 70q0 31 -24.5 48t-90.5 39q-72 24 -99.5 58.5t-27.5 84.5q0 62 47.5 98t129.5 36q71 0 124 -24l-16 -67q-52 21 -106 21q-51 0 -75.5 -18t-24.5 -47
t24 -47t83 -38q72 -25 103.5 -56.5t31.5 -84.5z" />
    <glyph glyph-name="Scircumflex" unicode="&#x15c;" horiz-adv-x="502" 
d="M128 729l-29 46l163 109l163 -109l-30 -46l-133 89zM467 186q0 -89 -62 -143.5t-174 -54.5q-104 0 -192 44l21 75q88 -44 170 -44q74 0 113 31t39 87q0 42 -34.5 71t-125.5 58q-92 29 -129.5 74.5t-37.5 114.5q0 87 62.5 138.5t171.5 51.5q89 0 160 -33l-20 -74
q-67 32 -138 32q-74 0 -112 -31t-38 -83q0 -46 30 -72t113 -52q102 -32 142.5 -77.5t40.5 -112.5z" />
    <glyph glyph-name="scircumflex" unicode="&#x15d;" horiz-adv-x="403" 
d="M100 533l-37 37l144 140l144 -140l-37 -37l-107 108zM366 132q0 -66 -46 -105t-133 -39q-83 0 -145 29l12 71q66 -29 130 -29q103 0 103 70q0 31 -24.5 48t-90.5 39q-72 24 -99.5 58.5t-27.5 84.5q0 62 47.5 98t129.5 36q71 0 124 -24l-16 -67q-52 21 -106 21
q-51 0 -75.5 -18t-24.5 -47t24 -47t83 -38q72 -25 103.5 -56.5t31.5 -84.5z" />
    <glyph glyph-name="Scedilla" unicode="&#x15e;" horiz-adv-x="502" 
d="M467 186q0 -81 -52 -134t-146 -62v-32q79 -13 79 -76q0 -37 -27.5 -60.5t-75.5 -23.5q-45 0 -78 15l11 51q37 -14 65 -14q49 0 49 34q0 37 -75 37v67q-96 3 -178 44l21 75q88 -44 170 -44q74 0 113 31t39 87q0 42 -34.5 71t-125.5 58q-92 29 -129.5 74.5t-37.5 114.5
q0 87 62.5 138.5t171.5 51.5q89 0 160 -33l-20 -74q-67 32 -138 32q-74 0 -112 -31t-38 -83q0 -46 30 -72t113 -52q102 -32 142.5 -77.5t40.5 -112.5z" />
    <glyph glyph-name="scedilla" unicode="&#x15f;" horiz-adv-x="403" 
d="M366 132q0 -58 -35.5 -95.5t-102.5 -45.5v-33q79 -13 79 -76q0 -37 -27.5 -60.5t-75.5 -23.5q-45 0 -78 15l11 51q37 -14 65 -14q49 0 49 34q0 37 -75 37v67q-77 3 -134 29l12 71q66 -29 130 -29q103 0 103 70q0 31 -24.5 48t-90.5 39q-72 24 -99.5 58.5t-27.5 84.5
q0 62 47.5 98t129.5 36q71 0 124 -24l-16 -67q-52 21 -106 21q-51 0 -75.5 -18t-24.5 -47t24 -47t83 -38q72 -25 103.5 -56.5t31.5 -84.5z" />
    <glyph glyph-name="Scaron" unicode="&#x160;" horiz-adv-x="502" 
d="M128 884l134 -89l133 89l30 -46l-163 -109l-163 109zM467 186q0 -89 -62 -143.5t-174 -54.5q-104 0 -192 44l21 75q88 -44 170 -44q74 0 113 31t39 87q0 42 -34.5 71t-125.5 58q-92 29 -129.5 74.5t-37.5 114.5q0 87 62.5 138.5t171.5 51.5q89 0 160 -33l-20 -74
q-67 32 -138 32q-74 0 -112 -31t-38 -83q0 -46 30 -72t113 -52q102 -32 142.5 -77.5t40.5 -112.5z" />
    <glyph glyph-name="scaron" unicode="&#x161;" horiz-adv-x="403" 
d="M100 710l107 -108l107 108l37 -38l-144 -139l-144 139zM366 132q0 -66 -46 -105t-133 -39q-83 0 -145 29l12 71q66 -29 130 -29q103 0 103 70q0 31 -24.5 48t-90.5 39q-72 24 -99.5 58.5t-27.5 84.5q0 62 47.5 98t129.5 36q71 0 124 -24l-16 -67q-52 21 -106 21
q-51 0 -75.5 -18t-24.5 -47t24 -47t83 -38q72 -25 103.5 -56.5t31.5 -84.5z" />
    <glyph glyph-name="uni0162" unicode="&#x162;" horiz-adv-x="544" 
d="M230 0v602h-225v75h534v-75h-225v-602h-84zM260 -191q-40 10 -40 51q0 21 14.5 36t36.5 15q24 0 39 -17.5t15 -50.5q0 -60 -38 -123h-42q15 68 15 89z" />
    <glyph glyph-name="uni0163" unicode="&#x163;" horiz-adv-x="299" 
d="M276 70l13 -65q-36 -17 -79 -17q-62 0 -93 35.5t-31 99.5v291h-73v67h73v121h80v-121h106v-67h-106v-269q0 -44 14.5 -64t48.5 -20q13 0 47 9zM190 -191q-40 10 -40 51q0 21 14.5 36t36.5 15q24 0 39 -17.5t15 -50.5q0 -60 -38 -123h-42q15 68 15 89z" />
    <glyph glyph-name="Tcaron" unicode="&#x164;" horiz-adv-x="544" 
d="M140 884l134 -89l133 89l30 -46l-163 -109l-163 109zM230 0v602h-225v75h534v-75h-225v-602h-84z" />
    <glyph glyph-name="tcaron" unicode="&#x165;" horiz-adv-x="299" 
d="M212 715h76q0 -85 -29 -185h-49q3 55 3 105q0 43 -1 80zM276 70l13 -65q-36 -17 -79 -17q-62 0 -93 35.5t-31 99.5v291h-73v67h73v121h80v-121h106v-67h-106v-269q0 -44 14.5 -64t48.5 -20q13 0 47 9z" />
    <glyph glyph-name="Tbar" unicode="&#x166;" horiz-adv-x="544" 
d="M539 602h-225v-175h140v-69h-140v-358h-84v358h-162v69h162v175h-225v75h534v-75z" />
    <glyph glyph-name="tbar" unicode="&#x167;" 
d="M281 70l13 -65q-36 -17 -79 -17q-62 0 -93 35.5t-31 99.5v136h-58v58h58v97h-73v67h73v121h80v-121h106v-67h-106v-97h100v-58h-100v-114q0 -44 14.5 -64t48.5 -20q13 0 47 9z" />
    <glyph glyph-name="Utilde" unicode="&#x168;" horiz-adv-x="683" 
d="M457 866l36 -28q-41 -73 -95 -73q-34 0 -64 26t-47 26q-28 0 -59 -50l-36 28q41 74 95 74q27 0 46.5 -13t34 -26t30.5 -13t29 11t30 38zM602 677v-423q0 -130 -68.5 -198t-191.5 -68q-124 0 -192.5 68t-68.5 198v423h85v-415q0 -99 46 -147.5t130 -48.5q83 0 129 48.5
t46 147.5v415h85z" />
    <glyph glyph-name="utilde" unicode="&#x169;" horiz-adv-x="551" 
d="M389 670l36 -28q-41 -74 -95 -74q-34 0 -64 26.5t-47 26.5q-28 0 -59 -50l-36 28q41 74 95 74q35 0 64.5 -26.5t46.5 -26.5q28 0 59 50zM474 481v-463q-93 -30 -174 -30q-120 0 -173.5 50.5t-53.5 151.5v291h80v-268q0 -84 33.5 -118t113.5 -34q49 0 94 16v404h80z" />
    <glyph glyph-name="Umacron" unicode="&#x16a;" horiz-adv-x="683" 
d="M441 793h-197v51h197v-51zM602 677v-423q0 -130 -68.5 -198t-191.5 -68q-124 0 -192.5 68t-68.5 198v423h85v-415q0 -99 46 -147.5t130 -48.5q83 0 129 48.5t46 147.5v415h85z" />
    <glyph glyph-name="umacron" unicode="&#x16b;" horiz-adv-x="551" 
d="M373 597h-197v51h197v-51zM474 481v-463q-93 -30 -174 -30q-120 0 -173.5 50.5t-53.5 151.5v291h80v-268q0 -84 33.5 -118t113.5 -34q49 0 94 16v404h80z" />
    <glyph glyph-name="Ubreve" unicode="&#x16c;" horiz-adv-x="683" 
d="M422 858h51q-2 -55 -36.5 -89.5t-93.5 -34.5q-60 0 -94.5 34.5t-36.5 89.5h51q0 -36 22 -57t58 -21q35 0 57 21t22 57zM602 677v-423q0 -130 -68.5 -198t-191.5 -68q-124 0 -192.5 68t-68.5 198v423h85v-415q0 -99 46 -147.5t130 -48.5q83 0 129 48.5t46 147.5v415h85z
" />
    <glyph glyph-name="ubreve" unicode="&#x16d;" horiz-adv-x="551" 
d="M354 676h51q-2 -62 -36 -98t-94 -36t-94.5 36t-36.5 98h51q0 -42 22 -65t58 -23t57.5 23t21.5 65zM474 481v-463q-93 -30 -174 -30q-120 0 -173.5 50.5t-53.5 151.5v291h80v-268q0 -84 33.5 -118t113.5 -34q49 0 94 16v404h80z" />
    <glyph glyph-name="Uring" unicode="&#x16e;" horiz-adv-x="683" 
d="M343 731q-37 0 -61.5 25t-24.5 61t24.5 61t61.5 25q36 0 61 -25t25 -61t-25 -61t-61 -25zM343 770q19 0 32 13.5t13 33.5t-13 33t-32 13q-21 0 -33.5 -13t-12.5 -33q0 -21 12.5 -34t33.5 -13zM602 677v-423q0 -130 -68.5 -198t-191.5 -68q-124 0 -192.5 68t-68.5 198v423
h85v-415q0 -99 46 -147.5t130 -48.5q83 0 129 48.5t46 147.5v415h85z" />
    <glyph glyph-name="uring" unicode="&#x16f;" horiz-adv-x="551" 
d="M275 535q-37 0 -61.5 25t-24.5 61t25 61t61 25t61 -25.5t25 -60.5q0 -36 -25 -61t-61 -25zM275 574q19 0 32 13.5t13 33.5t-13 33t-32 13q-21 0 -33.5 -13t-12.5 -33q0 -21 12.5 -34t33.5 -13zM474 481v-463q-93 -30 -174 -30q-120 0 -173.5 50.5t-53.5 151.5v291h80
v-268q0 -84 33.5 -118t113.5 -34q49 0 94 16v404h80z" />
    <glyph glyph-name="Uhungarumlaut" unicode="&#x170;" horiz-adv-x="683" 
d="M405 855l-121 -127l-37 33l119 131zM545 855l-121 -127l-37 33l119 131zM602 677v-423q0 -130 -68.5 -198t-191.5 -68q-124 0 -192.5 68t-68.5 198v423h85v-415q0 -99 46 -147.5t130 -48.5q83 0 129 48.5t46 147.5v415h85z" />
    <glyph glyph-name="uhungarumlaut" unicode="&#x171;" horiz-adv-x="551" 
d="M313 684l-88 -152l-44 23l84 155zM434 684l-88 -152l-44 23l84 155zM474 481v-463q-93 -30 -174 -30q-120 0 -173.5 50.5t-53.5 151.5v291h80v-268q0 -84 33.5 -118t113.5 -34q49 0 94 16v404h80z" />
    <glyph glyph-name="Uogonek" unicode="&#x172;" horiz-adv-x="683" 
d="M602 677v-423q0 -115 -54 -181.5t-152 -80.5q-58 -56 -58 -98q0 -41 44 -41q10 0 32 5l10 -47q-20 -9 -52 -9q-43 0 -67.5 22t-24.5 61q0 51 50 103q-119 3 -184 71t-65 195v423h85v-415q0 -99 46 -147.5t130 -48.5q83 0 129 48.5t46 147.5v415h85z" />
    <glyph glyph-name="uogonek" unicode="&#x173;" horiz-adv-x="551" 
d="M471 -142l10 -47q-20 -9 -52 -9q-43 0 -67.5 22t-24.5 61q0 59 62 113q-53 -10 -99 -10q-120 0 -173.5 50.5t-53.5 151.5v291h80v-268q0 -84 33.5 -118t113.5 -34q49 0 94 16v404h80v-463q-34 -27 -56.5 -61t-22.5 -63q0 -41 44 -41q9 0 32 5z" />
    <glyph glyph-name="Wcircumflex" unicode="&#x174;" horiz-adv-x="899" 
d="M317 729l-29 46l163 109l163 -109l-30 -46l-133 89zM610 -4l-147 503q-10 33 -13 54q-3 -21 -13 -54l-147 -503h-89l-190 681h86l144 -531q6 -18 9 -38q1 18 8 38l151 531h82l151 -531q6 -22 8 -43q1 17 9 43l144 531h86l-190 -681h-89z" />
    <glyph glyph-name="wcircumflex" unicode="&#x175;" horiz-adv-x="715" 
d="M252 533l-37 37l144 140l144 -140l-37 -37l-107 108zM476 0l-111 341q-4 13 -8 35q-3 -19 -8 -35l-111 -341h-85l-143 481h84l96 -348q7 -28 9 -48q6 32 11 47l112 349h70l112 -348q8 -25 10 -45q2 17 9 44l98 349h83l-144 -481h-84z" />
    <glyph glyph-name="Ycircumflex" unicode="&#x176;" horiz-adv-x="532" 
d="M133 729l-29 46l163 109l163 -109l-30 -46l-133 89zM82 677l168 -321q9 -18 16 -39q5 15 17 39l168 321h87l-230 -431v-246h-84v246l-230 431h88z" />
    <glyph glyph-name="ycircumflex" unicode="&#x177;" horiz-adv-x="459" 
d="M123 533l-37 37l144 140l144 -140l-37 -37l-107 108zM89 481l129 -353q5 -11 11 -42q6 31 11 42l132 353h87l-279 -698h-84l90 216l-186 482h89z" />
    <glyph glyph-name="Ydieresis" unicode="&#x178;" horiz-adv-x="532" 
d="M188 772q-18 0 -31.5 13.5t-13.5 32.5t13.5 32t31.5 13t32 -13.5t14 -31.5q0 -19 -14 -32.5t-32 -13.5zM343 772q-18 0 -31.5 13.5t-13.5 32.5t13.5 32t31.5 13t32 -13.5t14 -31.5q0 -19 -14 -32.5t-32 -13.5zM82 677l168 -321q9 -18 16 -39q5 15 17 39l168 321h87
l-230 -431v-246h-84v246l-230 431h88z" />
    <glyph glyph-name="Zacute" unicode="&#x179;" horiz-adv-x="548" 
d="M431 837l-172 -108l-26 43l170 112zM37 603v74h481l11 -48l-390 -555h381v-74h-490l-13 48l390 555h-370z" />
    <glyph glyph-name="zacute" unicode="&#x17a;" horiz-adv-x="420" 
d="M339 668l-151 -135l-34 37l148 140zM388 438l-257 -372h255v-66h-358l-9 34l263 380h-242v67h343z" />
    <glyph glyph-name="Zdotaccent" unicode="&#x17b;" horiz-adv-x="548" 
d="M279 766q-21 0 -36.5 15t-15.5 36q0 22 15.5 37t36.5 15t36 -15t15 -37t-15 -36.5t-36 -14.5zM37 603v74h481l11 -48l-390 -555h381v-74h-490l-13 48l390 555h-370z" />
    <glyph glyph-name="zdotaccent" unicode="&#x17c;" horiz-adv-x="420" 
d="M208 570q-21 0 -36.5 15t-15.5 36t15.5 36t36.5 15t36 -15t15 -36q0 -22 -15 -36.5t-36 -14.5zM388 438l-257 -372h255v-66h-358l-9 34l263 380h-242v67h343z" />
    <glyph glyph-name="Zcaron" unicode="&#x17d;" horiz-adv-x="548" 
d="M145 884l134 -89l133 89l30 -46l-163 -109l-163 109zM37 603v74h481l11 -48l-390 -555h381v-74h-490l-13 48l390 555h-370z" />
    <glyph glyph-name="zcaron" unicode="&#x17e;" horiz-adv-x="420" 
d="M101 710l107 -108l107 108l37 -38l-144 -139l-144 139zM388 438l-257 -372h255v-66h-358l-9 34l263 380h-242v67h343z" />
    <glyph glyph-name="florin" unicode="&#x192;" horiz-adv-x="522" 
d="M405 615q-72 0 -80 -72l-10 -91h104v-66h-112l-54 -477q-8 -70 -51 -105t-110 -35q-43 0 -73 13l10 72q29 -11 62 -11q71 0 80 72l53 471h-104v66h112l11 97q8 69 51 104.5t109 35.5q44 0 74 -13l-10 -72q-29 11 -62 11z" />
    <glyph glyph-name="Scommaaccent" unicode="&#x218;" horiz-adv-x="502" 
d="M467 186q0 -89 -62 -143.5t-174 -54.5q-104 0 -192 44l21 75q88 -44 170 -44q74 0 113 31t39 87q0 42 -34.5 71t-125.5 58q-92 29 -129.5 74.5t-37.5 114.5q0 87 62.5 138.5t171.5 51.5q89 0 160 -33l-20 -74q-67 32 -138 32q-74 0 -112 -31t-38 -83q0 -46 30 -72
t113 -52q102 -32 142.5 -77.5t40.5 -112.5zM255 -191q-40 10 -40 51q0 21 14.5 36t36.5 15q24 0 39 -17.5t15 -50.5q0 -60 -38 -123h-42q15 68 15 89z" />
    <glyph glyph-name="scommaaccent" unicode="&#x219;" horiz-adv-x="403" 
d="M366 132q0 -66 -46 -105t-133 -39q-83 0 -145 29l12 71q66 -29 130 -29q103 0 103 70q0 31 -24.5 48t-90.5 39q-72 24 -99.5 58.5t-27.5 84.5q0 62 47.5 98t129.5 36q71 0 124 -24l-16 -67q-52 21 -106 21q-51 0 -75.5 -18t-24.5 -47t24 -47t83 -38q72 -25 103.5 -56.5
t31.5 -84.5zM214 -191q-40 10 -40 51q0 21 14.5 36t36.5 15q24 0 39 -17.5t15 -50.5q0 -60 -38 -123h-42q15 68 15 89z" />
    <glyph glyph-name="uni021A" unicode="&#x21a;" horiz-adv-x="544" 
d="M230 0v602h-225v75h534v-75h-225v-602h-84zM260 -191q-40 10 -40 51q0 21 14.5 36t36.5 15q24 0 39 -17.5t15 -50.5q0 -60 -38 -123h-42q15 68 15 89z" />
    <glyph glyph-name="uni021B" unicode="&#x21b;" horiz-adv-x="299" 
d="M276 70l13 -65q-36 -17 -79 -17q-62 0 -93 35.5t-31 99.5v291h-73v67h73v121h80v-121h106v-67h-106v-269q0 -44 14.5 -64t48.5 -20q13 0 47 9zM190 -191q-40 10 -40 51q0 21 14.5 36t36.5 15q24 0 39 -17.5t15 -50.5q0 -60 -38 -123h-42q15 68 15 89z" />
    <glyph glyph-name="dotlessj" unicode="&#x237;" horiz-adv-x="234" 
d="M157 481v-538q0 -85 -44 -127.5t-114 -42.5q-46 0 -76 13l10 72q29 -11 62 -11q37 0 59.5 24t22.5 71v539h80z" />
    <glyph glyph-name="circumflex" unicode="&#x2c6;" horiz-adv-x="319" 
d="M53 533l-37 37l144 140l144 -140l-37 -37l-107 108z" />
    <glyph glyph-name="caron" unicode="&#x2c7;" horiz-adv-x="319" 
d="M53 710l107 -108l107 108l37 -38l-144 -139l-144 139z" />
    <glyph glyph-name="uni02C9" unicode="&#x2c9;" horiz-adv-x="319" 
d="M258 597h-197v51h197v-51z" />
    <glyph glyph-name="breve" unicode="&#x2d8;" horiz-adv-x="319" 
d="M239 676h51q-2 -62 -36 -98t-94 -36t-94.5 36t-36.5 98h51q0 -42 22 -65t58 -23t57.5 23t21.5 65z" />
    <glyph glyph-name="dotaccent" unicode="&#x2d9;" horiz-adv-x="319" 
d="M160 570q-21 0 -36.5 15t-15.5 36t15.5 36t36.5 15t36 -15t15 -36q0 -22 -15 -36.5t-36 -14.5z" />
    <glyph glyph-name="ring" unicode="&#x2da;" horiz-adv-x="319" 
d="M160 535q-37 0 -61.5 25t-24.5 61t25 61t61 25t61 -25.5t25 -60.5q0 -36 -25 -61t-61 -25zM160 574q19 0 32 13.5t13 33.5t-13 33t-32 13q-21 0 -33.5 -13t-12.5 -33q0 -21 12.5 -34t33.5 -13z" />
    <glyph glyph-name="ogonek" unicode="&#x2db;" horiz-adv-x="319" 
d="M223 -142l10 -47q-20 -9 -52 -9q-43 0 -67.5 22t-24.5 61q0 65 77 127h61q-80 -70 -80 -118q0 -41 44 -41q9 0 32 5z" />
    <glyph glyph-name="tilde" unicode="&#x2dc;" horiz-adv-x="319" 
d="M274 670l36 -28q-41 -74 -95 -74q-27 0 -46.5 13t-34 26.5t-30.5 13.5q-28 0 -59 -50l-36 28q41 74 95 74q34 0 64 -26.5t47 -26.5q28 0 59 50z" />
    <glyph glyph-name="hungarumlaut" unicode="&#x2dd;" horiz-adv-x="319" 
d="M164 684l-88 -152l-44 23l84 155zM285 684l-88 -152l-44 23l84 155z" />
    <glyph glyph-name="uni0326" unicode="&#x326;" horiz-adv-x="0" 
d="M146 -191q-40 10 -40 51q0 21 14.5 36t36.5 15q24 0 39 -17.5t15 -50.5q0 -60 -38 -123h-42q15 68 15 89z" />
    <glyph glyph-name="Delta" unicode="&#x394;" horiz-adv-x="606" 
d="M16 0v40l248 642h77l248 -642v-40h-573zM303 574q-1 -13 -10 -39l-178 -462h377l-178 462q-9 22 -11 39z" />
    <glyph glyph-name="Omega" unicode="&#x3a9;" horiz-adv-x="656" 
d="M391 0v64q75 54 108.5 122t33.5 162q0 121 -56 192t-148 71q-94 0 -150.5 -71t-56.5 -192q0 -93 34 -161t109 -123v-64h-237v73h147q-62 38 -101 109t-39 173q0 152 81.5 243t212.5 91q129 0 210 -91t81 -243q0 -102 -38.5 -173t-100.5 -109h147v-73h-237z" />
    <glyph glyph-name="mu" unicode="&#x3bc;" horiz-adv-x="555" 
d="M478 0h-54q-10 10 -13 25q-65 -37 -130 -37q-88 0 -124 43v-248h-80v698h80v-278q0 -77 33 -109.5t94 -32.5q69 0 114 37v383h80v-481z" />
    <glyph glyph-name="pi" unicode="&#x3c0;" horiz-adv-x="568" 
d="M462 414v-283q0 -70 56 -70q24 0 40 6l11 -67q-30 -12 -62 -12q-125 0 -125 129v297h-209v-414h-81v414h-72v67h515v-67h-73z" />
    <glyph glyph-name="Wgrave" unicode="&#x1e80;" horiz-adv-x="899" 
d="M495 772l-26 -43l-172 108l28 47zM610 -4l-147 503q-10 33 -13 54q-3 -21 -13 -54l-147 -503h-89l-190 681h86l144 -531q6 -18 9 -38q1 18 8 38l151 531h82l151 -531q6 -22 8 -43q1 17 9 43l144 531h86l-190 -681h-89z" />
    <glyph glyph-name="wgrave" unicode="&#x1e81;" horiz-adv-x="715" 
d="M411 570l-34 -37l-151 135l36 42zM476 0l-111 341q-4 13 -8 35q-3 -19 -8 -35l-111 -341h-85l-143 481h84l96 -348q7 -28 9 -48q6 32 11 47l112 349h70l112 -348q8 -25 10 -45q2 17 9 44l98 349h83l-144 -481h-84z" />
    <glyph glyph-name="Wacute" unicode="&#x1e82;" horiz-adv-x="899" 
d="M603 837l-172 -108l-26 43l170 112zM610 -4l-147 503q-10 33 -13 54q-3 -21 -13 -54l-147 -503h-89l-190 681h86l144 -531q6 -18 9 -38q1 18 8 38l151 531h82l151 -531q6 -22 8 -43q1 17 9 43l144 531h86l-190 -681h-89z" />
    <glyph glyph-name="wacute" unicode="&#x1e83;" horiz-adv-x="715" 
d="M490 668l-151 -135l-34 37l148 140zM476 0l-111 341q-4 13 -8 35q-3 -19 -8 -35l-111 -341h-85l-143 481h84l96 -348q7 -28 9 -48q6 32 11 47l112 349h70l112 -348q8 -25 10 -45q2 17 9 44l98 349h83l-144 -481h-84z" />
    <glyph glyph-name="Wdieresis" unicode="&#x1e84;" horiz-adv-x="899" 
d="M372 772q-18 0 -31.5 13.5t-13.5 32.5t13.5 32t31.5 13t32 -13.5t14 -31.5q0 -19 -14 -32.5t-32 -13.5zM527 772q-18 0 -31.5 13.5t-13.5 32.5t13.5 32t31.5 13t32 -13.5t14 -31.5q0 -19 -14 -32.5t-32 -13.5zM610 -4l-147 503q-10 33 -13 54q-3 -21 -13 -54l-147 -503
h-89l-190 681h86l144 -531q6 -18 9 -38q1 18 8 38l151 531h82l151 -531q6 -22 8 -43q1 17 9 43l144 531h86l-190 -681h-89z" />
    <glyph glyph-name="wdieresis" unicode="&#x1e85;" horiz-adv-x="715" 
d="M280 576q-18 0 -31.5 13t-13.5 32t13.5 32.5t31.5 13.5t32 -13.5t14 -32.5q0 -18 -14 -31.5t-32 -13.5zM435 576q-18 0 -31.5 13t-13.5 32t13.5 32.5t31.5 13.5t32 -13.5t14 -32.5q0 -18 -14 -31.5t-32 -13.5zM476 0l-111 341q-4 13 -8 35q-3 -19 -8 -35l-111 -341h-85
l-143 481h84l96 -348q7 -28 9 -48q6 32 11 47l112 349h70l112 -348q8 -25 10 -45q2 17 9 44l98 349h83l-144 -481h-84z" />
    <glyph glyph-name="uni1E9E" unicode="&#x1e9e;" horiz-adv-x="693" 
d="M575 497l-122 -85q91 0 144.5 -55.5t53.5 -149.5q0 -102 -61 -160.5t-163 -58.5q-74 0 -130 32l21 73q45 -32 108 -32q68 0 106 38t38 108q0 66 -36.5 103.5t-102.5 37.5q-55 0 -105 -26l-30 62l183 129q-14 45 -51 72t-94 27q-79 0 -121 -44t-42 -129v-439h-85v447
q0 112 66.5 177t182.5 65q96 0 158 -50.5t82 -141.5z" />
    <glyph glyph-name="Ygrave" unicode="&#x1ef2;" horiz-adv-x="532" 
d="M311 772l-26 -43l-172 108l28 47zM82 677l168 -321q9 -18 16 -39q5 15 17 39l168 321h87l-230 -431v-246h-84v246l-230 431h88z" />
    <glyph glyph-name="ygrave" unicode="&#x1ef3;" horiz-adv-x="459" 
d="M282 570l-34 -37l-151 135l36 42zM89 481l129 -353q5 -11 11 -42q6 31 11 42l132 353h87l-279 -698h-84l90 216l-186 482h89z" />
    <glyph glyph-name="endash" unicode="&#x2013;" horiz-adv-x="482" 
d="M423 220h-364v67h364v-67z" />
    <glyph glyph-name="emdash" unicode="&#x2014;" horiz-adv-x="698" 
d="M639 220h-580v67h580v-67z" />
    <glyph glyph-name="quoteleft" unicode="&#x2018;" horiz-adv-x="206" 
d="M117 585q21 -5 33 -20.5t12 -36.5q0 -24 -17 -41t-42 -17q-26 0 -43 20t-17 58q0 84 48 160h47q-21 -82 -21 -123z" />
    <glyph glyph-name="quoteright" unicode="&#x2019;" horiz-adv-x="206" 
d="M89 598q-45 11 -45 57q0 25 16.5 41.5t41.5 16.5q27 0 44 -20t17 -57q0 -82 -48 -161h-48q22 80 22 123z" />
    <glyph glyph-name="quotesinglbase" unicode="&#x201a;" horiz-adv-x="206" 
d="M89 -6q-21 4 -33 19.5t-12 37.5q0 24 16.5 40.5t41.5 16.5q27 0 44 -19.5t17 -57.5q0 -82 -48 -161h-48q22 80 22 124z" />
    <glyph glyph-name="quotedblleft" unicode="&#x201c;" horiz-adv-x="366" 
d="M117 585q21 -5 33 -20.5t12 -36.5q0 -24 -17 -41t-42 -17q-26 0 -43 20t-17 58q0 84 48 160h47q-21 -82 -21 -123zM277 585q21 -5 33 -20.5t12 -36.5q0 -24 -17 -41t-42 -17q-26 0 -43 20t-17 58q0 84 48 160h47q-21 -82 -21 -123z" />
    <glyph glyph-name="quotedblright" unicode="&#x201d;" horiz-adv-x="366" 
d="M89 598q-45 11 -45 57q0 25 16.5 41.5t41.5 16.5q27 0 44 -20t17 -57q0 -82 -48 -161h-48q22 80 22 123zM249 598q-45 11 -45 57q0 25 16.5 41.5t41.5 16.5q27 0 44 -20t17 -57q0 -82 -48 -161h-48q22 80 22 123z" />
    <glyph glyph-name="quotedblbase" unicode="&#x201e;" horiz-adv-x="366" 
d="M89 -6q-21 4 -33 19.5t-12 37.5q0 24 16.5 40.5t41.5 16.5q27 0 44 -19.5t17 -57.5q0 -82 -48 -161h-48q22 80 22 124zM249 -6q-21 4 -33 19.5t-12 37.5q0 24 16.5 40.5t41.5 16.5q27 0 44 -19.5t17 -57.5q0 -82 -48 -161h-48q22 80 22 124z" />
    <glyph glyph-name="dagger" unicode="&#x2020;" horiz-adv-x="307" 
d="M265 532h-85v-281h-53v281h-86v53h86v92h53v-92h85v-53z" />
    <glyph glyph-name="daggerdbl" unicode="&#x2021;" horiz-adv-x="307" 
d="M180 677v-92h85v-53h-85v-137h85v-53h-85v-91h-53v91h-86v53h86v137h-86v53h86v92h53z" />
    <glyph glyph-name="bullet" unicode="&#x2022;" horiz-adv-x="290" 
d="M146 145q-46 0 -76.5 30.5t-30.5 75.5q0 44 31 74.5t76 30.5q43 0 74 -31t31 -74q0 -45 -31 -75.5t-74 -30.5z" />
    <glyph glyph-name="ellipsis" unicode="&#x2026;" horiz-adv-x="599" 
d="M114 -8q-26 0 -42.5 17t-16.5 42q0 24 17 41t42 17q23 0 40.5 -17.5t17.5 -40.5q0 -25 -17 -42t-41 -17zM300 -8q-26 0 -42.5 17t-16.5 42q0 24 17 41t42 17q23 0 40.5 -17.5t17.5 -40.5q0 -25 -17 -42t-41 -17zM487 -8q-25 0 -42 17t-17 42q0 24 17 41t42 17
q23 0 40.5 -17.5t17.5 -40.5q0 -25 -17 -42t-41 -17z" />
    <glyph glyph-name="perthousand" unicode="&#x2030;" horiz-adv-x="1036" 
d="M179 689q65 0 110 -45t45 -112t-45 -112t-110 -45t-110 45t-45 112t45 112t110 45zM622 677l-484 -677h-79l485 677h78zM178 628q-38 0 -64 -27t-26 -69t26 -68.5t64 -26.5t64 26.5t26 68.5t-26 69t-64 27zM502 302q65 0 110 -45t45 -112t-45 -112t-110 -45t-110 45
t-45 112t45 112t110 45zM857 302q65 0 110 -45t45 -112t-45 -112t-110 -45t-110 45t-45 112t45 112t110 45zM502 240q-38 0 -64 -26.5t-26 -68.5t26 -69t64 -27t64 27t26 69t-26 68.5t-64 26.5zM857 240q-38 0 -64 -26.5t-26 -68.5t26 -69t64 -27t64 27t26 69t-26 68.5
t-64 26.5z" />
    <glyph glyph-name="guilsinglleft" unicode="&#x2039;" horiz-adv-x="244" 
d="M210 345l-91 -96l91 -96l-45 -45l-135 141l135 141z" />
    <glyph glyph-name="guilsinglright" unicode="&#x203a;" horiz-adv-x="244" 
d="M34 345l45 45l135 -141l-135 -141l-45 45l91 96z" />
    <glyph glyph-name="fraction" unicode="&#x2044;" horiz-adv-x="120" 
d="M294 677l-398 -677h-69l399 677h68z" />
    <glyph glyph-name="plussuperior" unicode="&#x207a;" 
d="M128 374v91h-89v52h89v91h53v-91h88v-52h-88v-91h-53z" />
    <glyph glyph-name="uni207B" unicode="&#x207b;" 
d="M39 518h230v-54h-230v54z" />
    <glyph glyph-name="equalsuperior" unicode="&#x207c;" 
d="M39 571h230v-53h-230v53zM39 464h230v-53h-230v53z" />
    <glyph glyph-name="parenleft.subs" unicode="&#x207e;" horiz-adv-x="170" 
d="M95 379h75q-63 -104 -63 -207q0 -102 63 -208h-75q-70 80 -70 208q0 129 70 207z" />
    <glyph glyph-name="uni208A" unicode="&#x208a;" 
d="M128 69v91h-89v52h89v91h53v-91h88v-52h-88v-91h-53z" />
    <glyph glyph-name="uni208B" unicode="&#x208b;" 
d="M39 213h230v-54h-230v54z" />
    <glyph glyph-name="uni208C" unicode="&#x208c;" 
d="M39 266h230v-53h-230v53zM39 159h230v-53h-230v53z" />
    <glyph glyph-name="Euro" unicode="&#x20ac;" horiz-adv-x="522" 
d="M374 62q59 0 109 35l20 -68q-24 -20 -61 -30.5t-68 -10.5q-98 0 -166.5 57t-89.5 183h-84v62h77q-1 15 -1 48q0 18 2 48h-78v62h85q22 123 92 182t166 59q81 0 133 -35l-20 -73q-50 34 -112 34q-140 0 -175 -167h203v-62h-212q-2 -30 -2 -48q0 -33 1 -48h213v-62h-206
q32 -166 174 -166z" />
    <glyph glyph-name="uni20B9" unicode="&#x20b9;" horiz-adv-x="522" 
d="M471 615h-160q52 -34 67 -95h93v-62h-87q-3 -73 -49 -121.5t-129 -62.5l207 -274h-97l-222 291v35h37q160 0 167 132h-225v62h218q-28 95 -160 95h-58v62h398v-62z" />
    <glyph glyph-name="uni20BA" unicode="&#x20ba;" horiz-adv-x="522" 
d="M462 277v-26q0 -130 -69 -196.5t-189 -66.5q-45 0 -87 10v305l-76 -38v67l76 38v92l-76 -39v68l76 38v148h83v-106l219 111v-67l-219 -111v-92l219 111v-67l-219 -111v-282q7 -1 17 -1q77 0 121.5 48.5t44.5 148.5v23z" />
    <glyph glyph-name="litre" unicode="&#x2113;" horiz-adv-x="522" 
d="M375 89l27 -37q-59 -65 -124 -65q-53 0 -80.5 34t-27.5 86v130l-56 -61l-33 27l89 98v231q0 74 29.5 114t81.5 40q44 0 67.5 -28.5t23.5 -69.5q0 -109 -106 -250q-23 -28 -29 -38v-187q0 -71 56 -71q37 0 82 47zM323 580q0 20 -10 36t-28 16q-48 0 -48 -99v-162
q14 20 16 23q70 108 70 186z" />
    <glyph glyph-name="uni2117" unicode="&#x2117;" horiz-adv-x="713" 
d="M357 19q-140 0 -230.5 89.5t-90.5 230.5q0 139 90.5 228.5t230.5 89.5t230.5 -89.5t90.5 -228.5q0 -141 -90.5 -230.5t-230.5 -89.5zM356 63q121 0 198 77.5t77 198.5t-76.5 197.5t-198.5 76.5q-120 0 -197 -76.5t-77 -197.5t77 -198.5t197 -77.5zM508 424
q0 -58 -39 -93.5t-110 -35.5h-47v-156h-60v390q56 18 111 18q145 0 145 -123zM446 424q0 72 -82 72q-32 0 -53 -8v-141h43q92 0 92 77z" />
    <glyph glyph-name="trademark" unicode="&#x2122;" horiz-adv-x="780" 
d="M640 573v20q-4 -13 -9 -25l-101 -238h-37l-101 238l-8 25v-20l-10 -242h-59l16 346h78l94 -228q8 -18 9 -24l4 12l4 12l95 228h77l16 -346h-58zM172 331h-60v292h-112v53h284v-53h-112v-292z" />
    <glyph glyph-name="Ohm" unicode="&#x2126;" horiz-adv-x="656" 
d="M391 0v64q75 54 108.5 122t33.5 162q0 121 -56 192t-148 71q-94 0 -150.5 -71t-56.5 -192q0 -93 34 -161t109 -123v-64h-237v73h147q-62 38 -101 109t-39 173q0 152 81.5 243t212.5 91q129 0 210 -91t81 -243q0 -102 -38.5 -173t-100.5 -109h147v-73h-237z" />
    <glyph glyph-name="estimated" unicode="&#x212e;" horiz-adv-x="862" 
d="M431 689q176 0 279.5 -104.5t103.5 -257.5h-612q-13 0 -13 -12v-167q0 -29 15 -44q94 -91 227 -91q71 0 135 30t104 79h69q-40 -55 -118 -94.5t-190 -39.5q-172 0 -278 98t-106 251q0 152 104.5 252t279.5 100zM431 663q-133 0 -227 -94q-15 -14 -15 -41v-166
q0 -13 13 -13h456q13 0 13 13v166q0 27 -15 41q-95 94 -225 94z" />
    <glyph glyph-name="oneeighth" unicode="&#x215b;" horiz-adv-x="738" 
d="M53 651l151 32v-378h-60v313l-82 -18zM603 677l-398 -677h-69l399 677h68zM644 192q77 -32 77 -97q0 -45 -36 -73.5t-102 -28.5t-101.5 28.5t-35.5 73.5q0 65 77 97q-66 31 -66 92q0 42 33 68.5t94 26.5q60 0 93 -26.5t33 -68.5q0 -61 -66 -92zM583 328
q-32 0 -49.5 -13.5t-17.5 -35.5q0 -46 67 -65q68 19 68 65q0 22 -18 35.5t-50 13.5zM584 45q77 0 77 54q0 47 -77 68q-77 -21 -77 -68q0 -54 77 -54z" />
    <glyph glyph-name="threeeighths" unicode="&#x215c;" horiz-adv-x="738" 
d="M199 496q37 -5 59.5 -29.5t22.5 -59.5q0 -49 -37 -79t-103 -30q-64 0 -115 24l14 53q47 -22 97 -22q41 0 62 15.5t21 41.5q0 58 -82 58h-55v51h47q36 0 58.5 16t22.5 45q0 21 -19 35t-56 14q-50 0 -94 -21l-13 52q47 24 112 24q64 0 97.5 -27.5t33.5 -71.5
q0 -31 -19.5 -55.5t-53.5 -33.5zM603 677l-398 -677h-69l399 677h68zM644 192q77 -32 77 -97q0 -45 -36 -73.5t-102 -28.5t-101.5 28.5t-35.5 73.5q0 65 77 97q-66 31 -66 92q0 42 33 68.5t94 26.5q60 0 93 -26.5t33 -68.5q0 -61 -66 -92zM583 328q-32 0 -49.5 -13.5
t-17.5 -35.5q0 -46 67 -65q68 19 68 65q0 22 -18 35.5t-50 13.5zM584 45q77 0 77 54q0 47 -77 68q-77 -21 -77 -68q0 -54 77 -54z" />
    <glyph glyph-name="fiveeighths" unicode="&#x215d;" horiz-adv-x="738" 
d="M106 530h30q71 0 108.5 -29.5t37.5 -82.5q0 -56 -37.5 -88t-104.5 -32q-64 0 -115 24l14 53q47 -22 97 -22q84 0 84 63q0 60 -91 60h-82v201h215v-54h-156v-93zM603 677l-398 -677h-69l399 677h68zM644 192q77 -32 77 -97q0 -45 -36 -73.5t-102 -28.5t-101.5 28.5
t-35.5 73.5q0 65 77 97q-66 31 -66 92q0 42 33 68.5t94 26.5q60 0 93 -26.5t33 -68.5q0 -61 -66 -92zM583 328q-32 0 -49.5 -13.5t-17.5 -35.5q0 -46 67 -65q68 19 68 65q0 22 -18 35.5t-50 13.5zM584 45q77 0 77 54q0 47 -77 68q-77 -21 -77 -68q0 -54 77 -54z" />
    <glyph glyph-name="seveneighths" unicode="&#x215e;" horiz-adv-x="738" 
d="M66 305l121 267q9 23 26 52q-9 -1 -28 -1h-159v54h256l8 -12l-157 -360h-67zM564 677l-398 -677h-69l399 677h68zM644 192q77 -32 77 -97q0 -45 -36 -73.5t-102 -28.5t-101.5 28.5t-35.5 73.5q0 65 77 97q-66 31 -66 92q0 42 33 68.5t94 26.5q60 0 93 -26.5t33 -68.5
q0 -61 -66 -92zM583 328q-32 0 -49.5 -13.5t-17.5 -35.5q0 -46 67 -65q68 19 68 65q0 22 -18 35.5t-50 13.5zM584 45q77 0 77 54q0 47 -77 68q-77 -21 -77 -68q0 -54 77 -54z" />
    <glyph glyph-name="partialdiff" unicode="&#x2202;" horiz-adv-x="555" 
d="M505 289q0 -147 -61 -224t-171 -77q-108 0 -171 68.5t-63 181.5q0 112 67 178.5t173 66.5q67 0 114 -35q-36 84 -106.5 125t-156.5 41h-22v76h33q67 0 130 -24.5t116.5 -72t85.5 -126.5t32 -178zM273 62q151 0 151 216q0 49 -7 85q-53 52 -133 52q-75 0 -118.5 -49
t-44.5 -129q-1 -81 39.5 -128t112.5 -47z" />
    <glyph glyph-name="increment" unicode="&#x2206;" horiz-adv-x="606" 
d="M16 0v40l248 642h77l248 -642v-40h-573zM303 574q-1 -13 -10 -39l-178 -462h377l-178 462q-9 22 -11 39z" />
    <glyph glyph-name="product" unicode="&#x220f;" horiz-adv-x="722" 
d="M631 -217h-85v819h-370v-819h-85v894h540v-894z" />
    <glyph glyph-name="summation" unicode="&#x2211;" horiz-adv-x="522" 
d="M403 230l-262 -373h362v-74h-471l-13 48l280 398l-280 400l13 48h463v-74h-354z" />
    <glyph glyph-name="minus" unicode="&#x2212;" horiz-adv-x="522" 
d="M457 308h-392v73h392v-73z" />
    <glyph glyph-name="divisionslash" unicode="&#x2215;" horiz-adv-x="522" 
d="M412 677h86l-388 -677h-87z" />
    <glyph glyph-name="bulletoperator" unicode="&#x2219;" horiz-adv-x="226" 
d="M114 190q-26 0 -42.5 17t-16.5 42q0 24 17 41t42 17q23 0 40.5 -17.5t17.5 -40.5q0 -25 -17 -42t-41 -17z" />
    <glyph glyph-name="radical" unicode="&#x221a;" horiz-adv-x="522" 
d="M131 381l88 -258q5 -15 10 -40q2 16 9 40l197 554h77l-245 -680h-79l-109 311h-70v73h122z" />
    <glyph glyph-name="infinity" unicode="&#x221e;" horiz-adv-x="783" 
d="M562 531q82 0 133.5 -54t51.5 -139q0 -84 -51.5 -138t-132.5 -54q-51 0 -97 28t-74 85q-28 -57 -74 -85t-97 -28q-82 0 -133.5 53.5t-51.5 138.5q0 84 51.5 138.5t132.5 54.5q51 0 97 -28.5t74 -85.5q29 57 74.5 85.5t96.5 28.5zM224 218q89 0 130 121q-41 119 -130 119
q-47 0 -77.5 -33.5t-30.5 -86.5t30.5 -86.5t77.5 -33.5zM559 218q47 0 77.5 33.5t30.5 86.5t-30.5 86.5t-77.5 33.5q-87 0 -130 -120q42 -120 130 -120z" />
    <glyph glyph-name="integral" unicode="&#x222b;" horiz-adv-x="522" 
d="M378 774q45 0 77 -12l-10 -73q-29 11 -62 11q-37 0 -59.5 -24t-22.5 -71v-662q0 -85 -43.5 -127.5t-113.5 -42.5q-46 0 -76 13l10 72q29 -11 62 -11q37 0 59 23.5t22 71.5v662q0 85 44 127.5t113 42.5z" />
    <glyph glyph-name="approxequal" unicode="&#x2248;" horiz-adv-x="522" 
d="M434 506l57 -35q-49 -106 -140 -106q-37 0 -70.5 18.5t-60.5 37.5t-49 19q-51 0 -84 -69l-57 35q49 105 141 105q37 0 70 -18.5t60.5 -37.5t49.5 -19q50 0 83 70zM434 332l57 -35q-49 -106 -140 -106q-37 0 -70.5 18.5t-60.5 37.5t-49 19q-51 0 -84 -69l-57 35
q49 105 141 105q37 0 70 -18.5t60.5 -37.5t49.5 -19q50 0 83 70z" />
    <glyph glyph-name="notequal" unicode="&#x2260;" horiz-adv-x="522" 
d="M281 468l47 110h65l-47 -110h111v-72h-142l-44 -104h186v-72h-217l-47 -109h-65l47 109h-110v72h141l44 104h-185v72h216z" />
    <glyph glyph-name="lessequal" unicode="&#x2264;" horiz-adv-x="522" 
d="M457 462l-254 -97q-21 -8 -39 -10q12 -3 39 -11l254 -97v-76l-396 150v67l396 150v-76zM65 71h392v-71h-392v71z" />
    <glyph glyph-name="greaterequal" unicode="&#x2265;" horiz-adv-x="522" 
d="M65 247l254 97q25 8 39 11q-18 2 -39 10l-254 97v76l396 -150v-67l-396 -150v76zM457 0h-392v71h392v-71z" />
    <glyph glyph-name="lozenge" unicode="&#x25ca;" horiz-adv-x="532" 
d="M299 0h-73l-175 339l175 338h73l175 -338zM135 339l118 -231q10 -24 10 -29q3 12 11 29l118 231l-118 231q-8 16 -11 28q0 -5 -10 -28z" />
    <glyph glyph-name="uni2708" unicode="&#x2708;" horiz-adv-x="769" 
d="M307 184l14 -106q3 -21 -9 -33l-46 -46l-56 123q-23 -12 -46 -12q-8 0 -8 6q0 21 12 48l-123 56l46 46q12 12 33 9l106 -14q37 52 68 83l40 41l-303 165l47 46q14 14 30 8l353 -93l110 110q67 67 131 67q16 0 22 -6t6 -21q0 -29 -18 -65t-49 -67l-277 -277
q-23 -23 -83 -68zM455 248l116 117l78 -299q4 -19 -7 -30l-46 -47z" />
    <glyph glyph-name="uniE001" unicode="&#xe001;" horiz-adv-x="799" 
d="M400 688q145 0 247 -102t102 -247q0 -144 -101 -247t-248 -103q-145 0 -247.5 102.5t-102.5 247.5q0 147 103 248t247 101zM672 339q0 113 -80 192.5t-192 79.5q-111 0 -191.5 -79.5t-80.5 -192.5t80 -192.5t192 -79.5q113 0 192.5 80.5t79.5 191.5zM250 304l57 55
l68 -66l161 161l58 -57l-219 -217z" />
    <glyph glyph-name="uniE002" unicode="&#xe002;" horiz-adv-x="799" 
d="M400 688q145 0 247 -102t102 -247q0 -144 -101 -247t-248 -103q-145 0 -247.5 102.5t-102.5 247.5q0 147 103 248t247 101zM343 281l-98 96l-56 -55l154 -155l278 276l-58 58z" />
    <glyph glyph-name="uniE003" unicode="&#xe003;" horiz-adv-x="979" 
d="M964 491l-80 -80q-165 163 -394 163q-230 0 -395 -163l-80 80q95 95 217.5 146t257.5 51q134 0 256.5 -51t217.5 -146zM236 270l-65 65q132 132 319 132q186 0 318 -132l-65 -65q-107 105 -253 105q-147 0 -254 -105zM364 141l-48 50q70 72 174 72t173 -72l-49 -50
q-50 52 -124 52t-126 -52zM489 -11q24 0 40 16t16 38t-16 37.5t-40 15.5q-23 0 -39 -15.5t-16 -37.5t16 -38t39 -16z" />
    <glyph glyph-name="uniE004" unicode="&#xe004;" horiz-adv-x="540" 
d="M270 688q95 0 162.5 -68.5t67.5 -165.5q0 -57 -27 -125q-70 -175 -203 -340q-146 188 -206 346q-24 64 -24 119q0 97 67.5 165.5t162.5 68.5zM270 376q34 0 58 24.5t24 59.5t-24 59.5t-58 24.5t-58.5 -24.5t-24.5 -59.5t24 -59.5t59 -24.5z" />
    <glyph glyph-name="uni1F4C5" unicode="&#x1f4c5;" horiz-adv-x="856" 
d="M249 688q-28 0 -28 -27v-55q0 -28 28 -28t28 28v55q0 27 -28 27zM607 688q-28 0 -28 -27v-55q0 -28 28 -28q27 0 27 28v55q0 27 -27 27zM678 644h72q36 0 36 -35v-567q0 -17 -12 -29.5t-28 -12.5h-636q-16 0 -28 12.5t-12 29.5v567q0 35 36 35h71v-35q0 -35 19 -53.5
t53 -18.5t53 18.5t19 53.5v35h214v-35q0 -35 19 -53.5t53 -18.5q33 0 52 18.5t19 53.5v35zM142 72h572v394h-572v-394zM219 289h60q30 0 30 30v61q0 30 -30 30h-60q-31 0 -31 -30v-61q0 -30 31 -30zM398 289h60q30 0 30 30v61q0 30 -30 30h-60q-31 0 -31 -30v-61
q0 -30 31 -30zM576 289h61q30 0 30 30v61q0 30 -30 30h-61q-30 0 -30 -30v-61q0 -30 30 -30zM219 119h60q30 0 30 30v61q0 30 -30 30h-60q-31 0 -31 -30v-61q0 -30 31 -30zM398 119h60q30 0 30 30v61q0 30 -30 30h-60q-31 0 -31 -30v-61q0 -30 31 -30zM576 119h61
q30 0 30 30v61q0 30 -30 30h-61q-30 0 -30 -30v-61q0 -30 30 -30z" />
    <glyph glyph-name="uni1F552" unicode="&#x1f552;" horiz-adv-x="839" 
d="M419 688q145 0 247.5 -102t102.5 -247t-102.5 -247.5t-247.5 -102.5q-144 0 -246.5 102.5t-102.5 247.5t102.5 247t246.5 102zM419 63q115 0 195.5 81t80.5 195t-80.5 195t-195.5 81q-114 0 -194.5 -81t-80.5 -195t80.5 -195t194.5 -81zM378 537h82v-184h125v-81h-207
v265z" />
    <glyph glyph-name="uni1F5EA" unicode="&#x1f5ea;" horiz-adv-x="1072" 
d="M185 243h-65q-19 0 -34.5 16t-15.5 35v332q0 19 15.5 35t34.5 16h453q19 0 34.5 -16t15.5 -35v-79h-67v61q0 2 -2 2h-416q-2 0 -2 -2v-296q0 -2 2 -2h114v-46l74 46h91v-67h-76l-156 -93v93zM449 133v332q0 19 15.5 35t34.5 16h453q19 0 34.5 -16t15.5 -35v-332
q0 -19 -15.5 -35t-34.5 -16h-80v-93l-141 93h-232q-19 0 -34.5 16t-15.5 35z" />
    <glyph glyph-name="uni1F6AB" unicode="&#x1f6ab;" horiz-adv-x="839" 
d="M419 688q145 0 247.5 -102.5t102.5 -247.5q0 -144 -101.5 -246.5t-248.5 -102.5q-145 0 -247 102t-102 247q0 147 102.5 248.5t246.5 101.5zM148 338q0 -94 58 -168l382 382q-74 58 -169 58q-112 0 -191.5 -78.5t-79.5 -193.5zM691 338q0 85 -47 154l-378 -378
q69 -47 153 -47q115 0 193.5 79.5t78.5 191.5z" />
    <glyph glyph-name="f_i" horiz-adv-x="523" 
d="M251 644q-37 0 -59.5 -24t-22.5 -71v-68h103v-67h-102v-414h-80v414h-73v67h73v66q0 87 44 128.5t116 41.5q43 0 73 -12l-9 -72q-35 11 -63 11zM406 566q-24 0 -40 15.5t-16 39.5q0 23 16.5 39t39.5 16t39.5 -16t16.5 -39q0 -24 -16.5 -39.5t-39.5 -15.5zM366 0v481h80
v-481h-80z" />
    <glyph glyph-name="f_l" horiz-adv-x="523" 
d="M251 644q-37 0 -59.5 -24t-22.5 -71v-68h103v-67h-102v-414h-80v414h-73v67h73v66q0 87 44 128.5t116 41.5q43 0 73 -12l-9 -72q-35 11 -63 11zM366 0v705h80v-705h-80z" />
    <glyph glyph-name="one.ss01" horiz-adv-x="389" 
d="M40 635l237 52v-687h-81v595l-144 -32z" />
    <glyph glyph-name="zero.subs" 
d="M298 186q0 -95 -41 -144t-103 -49t-102.5 49t-40.5 144t40.5 144t102.5 49t103 -49t41 -144zM235 186q0 72 -22.5 105t-58.5 33q-35 0 -57.5 -33t-22.5 -105t22.5 -105t57.5 -33q36 0 58.5 33t22.5 105z" />
    <glyph glyph-name="one.subs" 
d="M53 346l151 32v-378h-60v313l-82 -18z" />
    <glyph glyph-name="two.subs" 
d="M31 35l129 145q50 55 50 90q0 25 -19 39t-54 14q-51 0 -94 -21l-14 53q46 24 111 24q64 0 98 -28.5t34 -77.5q0 -54 -62 -122l-78 -84q-6 -7 -14 -13l1 -1q4 1 13 1h148v-54h-238z" />
    <glyph glyph-name="three.subs" 
d="M199 191q37 -5 59.5 -29.5t22.5 -59.5q0 -49 -37 -79t-103 -30q-64 0 -115 24l14 53q47 -22 97 -22q41 0 62 15.5t21 41.5q0 58 -82 58h-55v51h47q36 0 58.5 16t22.5 45q0 21 -19 35t-56 14q-50 0 -94 -21l-13 52q46 24 112 24q64 0 97.5 -27.5t33.5 -71.5
q0 -31 -19.5 -55.5t-53.5 -33.5z" />
    <glyph glyph-name="four.subs" 
d="M187 0v99h-172l-12 31l191 248h51v-228h50v-51h-50v-99h-58zM76 149h112v145z" />
    <glyph glyph-name="five.subs" 
d="M106 225h30q71 0 108.5 -29.5t37.5 -82.5q0 -56 -37.5 -88t-104.5 -32q-64 0 -115 24l14 53q47 -22 97 -22q84 0 84 63q0 60 -91 60h-82v201h215v-54h-156v-93z" />
    <glyph glyph-name="six.subs" 
d="M177 229q54 0 86 -32t32 -84q0 -56 -37 -88t-90 -32q-66 0 -105.5 46.5t-39.5 129.5q0 105 50.5 157.5t126.5 52.5q51 0 81 -18l-13 -52q-31 16 -65 16q-48 0 -80.5 -30.5t-36.5 -94.5q40 29 91 29zM168 46q30 0 49 18t19 47q0 31 -18.5 49t-48.5 18q-49 0 -83 -29
q3 -50 24.5 -76.5t57.5 -26.5z" />
    <glyph glyph-name="seven.subs" 
d="M66 0l121 267q9 23 26 52q-9 -1 -28 -1h-159v54h256l8 -12l-157 -360h-67z" />
    <glyph glyph-name="eight.subs" 
d="M215 192q77 -32 77 -97q0 -45 -36 -73.5t-102 -28.5t-101.5 28.5t-35.5 73.5q0 65 77 97q-66 31 -66 92q0 42 33 68.5t94 26.5q60 0 93 -26.5t33 -68.5q0 -61 -66 -92zM154 328q-32 0 -49.5 -13.5t-17.5 -35.5q0 -46 67 -65q68 19 68 65q0 22 -18 35.5t-50 13.5zM155 45
q77 0 77 54q0 47 -77 68q-77 -21 -77 -68q0 -54 77 -54z" />
    <glyph glyph-name="nine.subs" 
d="M141 379q66 0 105.5 -46t39.5 -129q0 -105 -51 -158t-126 -53q-48 0 -81 18l13 53q30 -17 65 -17q48 0 80.5 31t36.5 95q-41 -30 -91 -30q-54 0 -86 32t-32 84q0 56 37 88t90 32zM73 261q0 -30 18.5 -48t48.5 -18q49 0 83 29q-3 50 -24.5 76.5t-57.5 26.5q-30 0 -49 -18
t-19 -48z" />
    <glyph glyph-name="zero.sups" 
d="M298 491q0 -95 -41 -144t-103 -49t-102.5 49t-40.5 144t40.5 144t102.5 49t103 -49t41 -144zM235 491q0 72 -22.5 105t-58.5 33q-35 0 -57.5 -33t-22.5 -105t22.5 -105t57.5 -33q36 0 58.5 33t22.5 105z" />
    <glyph glyph-name="four.sups" 
d="M187 305v99h-172l-12 31l191 248h51v-228h50v-51h-50v-99h-58zM76 454h112v145z" />
    <glyph glyph-name="five.sups" 
d="M106 530h30q71 0 108.5 -29.5t37.5 -82.5q0 -56 -37.5 -88t-104.5 -32q-64 0 -115 24l14 53q47 -22 97 -22q84 0 84 63q0 60 -91 60h-82v201h215v-54h-156v-93z" />
    <glyph glyph-name="six.sups" 
d="M177 534q54 0 86 -32t32 -84q0 -56 -37 -88t-90 -32q-66 0 -105.5 46.5t-39.5 129.5q0 105 50.5 157.5t126.5 52.5q51 0 81 -18l-13 -52q-31 16 -65 16q-48 0 -80.5 -30.5t-36.5 -94.5q40 29 91 29zM168 351q30 0 49 18t19 47q0 31 -18.5 49t-48.5 18q-49 0 -83 -29
q3 -50 24.5 -76.5t57.5 -26.5z" />
    <glyph glyph-name="seven.sups" 
d="M66 305l121 267q9 23 26 52q-9 -1 -28 -1h-159v54h256l8 -12l-157 -360h-67z" />
    <glyph glyph-name="eight.sups" 
d="M215 497q77 -32 77 -97q0 -45 -36 -73.5t-102 -28.5t-101.5 28.5t-35.5 73.5q0 65 77 97q-66 31 -66 92q0 42 33 68.5t94 26.5q60 0 93 -26.5t33 -68.5q0 -61 -66 -92zM154 633q-32 0 -49.5 -13.5t-17.5 -35.5q0 -46 67 -65q68 19 68 65q0 22 -18 35.5t-50 13.5zM155 350
q77 0 77 54q0 47 -77 68q-77 -21 -77 -68q0 -54 77 -54z" />
    <glyph glyph-name="nine.sups" 
d="M141 684q66 0 105.5 -46t39.5 -129q0 -105 -51 -158t-126 -53q-48 0 -81 18l13 53q30 -17 65 -17q48 0 80.5 31t36.5 95q-41 -30 -91 -30q-54 0 -86 32t-32 84q0 56 37 88t90 32zM73 566q0 -30 18.5 -48t48.5 -18q49 0 83 29q-3 50 -24.5 76.5t-57.5 26.5q-30 0 -49 -18
t-19 -48z" />
    <glyph glyph-name="zero.dnom" 
d="M298 186q0 -95 -41 -144t-103 -49t-102.5 49t-40.5 144t40.5 144t102.5 49t103 -49t41 -144zM235 186q0 72 -22.5 105t-58.5 33q-35 0 -57.5 -33t-22.5 -105t22.5 -105t57.5 -33q36 0 58.5 33t22.5 105z" />
    <glyph glyph-name="one.dnom" 
d="M53 346l151 32v-378h-60v313l-82 -18z" />
    <glyph glyph-name="two.dnom" 
d="M31 35l129 145q50 55 50 90q0 25 -19 39t-54 14q-51 0 -94 -21l-14 53q46 24 111 24q64 0 98 -28.5t34 -77.5q0 -54 -62 -122l-78 -84q-6 -7 -14 -13l1 -1q4 1 13 1h148v-54h-238z" />
    <glyph glyph-name="three.dnom" 
d="M199 191q37 -5 59.5 -29.5t22.5 -59.5q0 -49 -37 -79t-103 -30q-64 0 -115 24l14 53q47 -22 97 -22q41 0 62 15.5t21 41.5q0 58 -82 58h-55v51h47q36 0 58.5 16t22.5 45q0 21 -19 35t-56 14q-50 0 -94 -21l-13 52q46 24 112 24q64 0 97.5 -27.5t33.5 -71.5
q0 -31 -19.5 -55.5t-53.5 -33.5z" />
    <glyph glyph-name="four.dnom" 
d="M187 0v99h-172l-12 31l191 248h51v-228h50v-51h-50v-99h-58zM76 149h112v145z" />
    <glyph glyph-name="five.dnom" 
d="M106 225h30q71 0 108.5 -29.5t37.5 -82.5q0 -56 -37.5 -88t-104.5 -32q-64 0 -115 24l14 53q47 -22 97 -22q84 0 84 63q0 60 -91 60h-82v201h215v-54h-156v-93z" />
    <glyph glyph-name="six.dnom" 
d="M177 229q54 0 86 -32t32 -84q0 -56 -37 -88t-90 -32q-66 0 -105.5 46.5t-39.5 129.5q0 105 50.5 157.5t126.5 52.5q51 0 81 -18l-13 -52q-31 16 -65 16q-48 0 -80.5 -30.5t-36.5 -94.5q40 29 91 29zM168 46q30 0 49 18t19 47q0 31 -18.5 49t-48.5 18q-49 0 -83 -29
q3 -50 24.5 -76.5t57.5 -26.5z" />
    <glyph glyph-name="seven.dnom" 
d="M66 0l121 267q9 23 26 52q-9 -1 -28 -1h-159v54h256l8 -12l-157 -360h-67z" />
    <glyph glyph-name="eight.dnom" 
d="M215 192q77 -32 77 -97q0 -45 -36 -73.5t-102 -28.5t-101.5 28.5t-35.5 73.5q0 65 77 97q-66 31 -66 92q0 42 33 68.5t94 26.5q60 0 93 -26.5t33 -68.5q0 -61 -66 -92zM154 328q-32 0 -49.5 -13.5t-17.5 -35.5q0 -46 67 -65q68 19 68 65q0 22 -18 35.5t-50 13.5zM155 45
q77 0 77 54q0 47 -77 68q-77 -21 -77 -68q0 -54 77 -54z" />
    <glyph glyph-name="nine.dnom" 
d="M142 379q66 0 105.5 -46t39.5 -129q0 -105 -51 -158t-126 -53q-48 0 -81 18l13 53q30 -17 65 -17q48 0 80.5 31t36.5 95q-41 -30 -91 -30q-54 0 -86 32t-32 84q0 56 37 88t90 32zM74 261q0 -30 18.5 -48t48.5 -18q49 0 83 29q-3 50 -24.5 76.5t-57.5 26.5q-30 0 -49 -18
t-19 -48z" />
    <glyph glyph-name="zero.numr" 
d="M298 491q0 -95 -41 -144t-103 -49t-102.5 49t-40.5 144t40.5 144t102.5 49t103 -49t41 -144zM235 491q0 72 -22.5 105t-58.5 33q-35 0 -57.5 -33t-22.5 -105t22.5 -105t57.5 -33q36 0 58.5 33t22.5 105z" />
    <glyph glyph-name="one.numr" 
d="M53 651l151 32v-378h-60v313l-82 -18z" />
    <glyph glyph-name="two.numr" 
d="M31 340l129 145q50 55 50 90q0 25 -19 39t-54 14q-51 0 -94 -21l-14 53q47 24 111 24t98 -28.5t34 -77.5q0 -54 -62 -122l-78 -84q-6 -7 -14 -13l1 -1q4 1 13 1h148v-54h-238z" />
    <glyph glyph-name="three.numr" 
d="M199 496q37 -5 59.5 -29.5t22.5 -59.5q0 -49 -37 -79t-103 -30q-64 0 -115 24l14 53q47 -22 97 -22q41 0 62 15.5t21 41.5q0 58 -82 58h-55v51h47q36 0 58.5 16t22.5 45q0 21 -19 35t-56 14q-50 0 -94 -21l-13 52q47 24 112 24q64 0 97.5 -27.5t33.5 -71.5
q0 -31 -19.5 -55.5t-53.5 -33.5z" />
    <glyph glyph-name="four.numr" 
d="M187 305v99h-172l-12 31l191 248h51v-228h50v-51h-50v-99h-58zM76 454h112v145z" />
    <glyph glyph-name="five.numr" 
d="M106 530h30q71 0 108.5 -29.5t37.5 -82.5q0 -56 -37.5 -88t-104.5 -32q-64 0 -115 24l14 53q47 -22 97 -22q84 0 84 63q0 60 -91 60h-82v201h215v-54h-156v-93z" />
    <glyph glyph-name="six.numr" 
d="M177 534q54 0 86 -32t32 -84q0 -56 -37 -88t-90 -32q-66 0 -105.5 46.5t-39.5 129.5q0 105 50.5 157.5t126.5 52.5q51 0 81 -18l-13 -52q-31 16 -65 16q-48 0 -80.5 -30.5t-36.5 -94.5q40 29 91 29zM168 351q30 0 49 18t19 47q0 31 -18.5 49t-48.5 18q-49 0 -83 -29
q3 -50 24.5 -76.5t57.5 -26.5z" />
    <glyph glyph-name="seven.numr" 
d="M66 305l121 267q9 23 26 52q-9 -1 -28 -1h-159v54h256l8 -12l-157 -360h-67z" />
    <glyph glyph-name="eight.numr" 
d="M215 497q77 -32 77 -97q0 -45 -36 -73.5t-102 -28.5t-101.5 28.5t-35.5 73.5q0 65 77 97q-66 31 -66 92q0 42 33 68.5t94 26.5q60 0 93 -26.5t33 -68.5q0 -61 -66 -92zM154 633q-32 0 -49.5 -13.5t-17.5 -35.5q0 -46 67 -65q68 19 68 65q0 22 -18 35.5t-50 13.5zM155 350
q77 0 77 54q0 47 -77 68q-77 -21 -77 -68q0 -54 77 -54z" />
    <glyph glyph-name="nine.numr" 
d="M142 684q66 0 105.5 -46t39.5 -129q0 -105 -51 -158t-126 -53q-48 0 -81 18l13 53q30 -17 65 -17q48 0 80.5 31t36.5 95q-41 -30 -91 -30q-54 0 -86 32t-32 84q0 56 37 88t90 32zM74 566q0 -30 18.5 -48t48.5 -18q49 0 83 29q-3 50 -24.5 76.5t-57.5 26.5q-30 0 -49 -18
t-19 -48z" />
    <glyph glyph-name="parenright.subs" horiz-adv-x="170" 
d="M0 379h75q70 -76 70 -207q0 -130 -70 -208h-75q65 106 65 208q0 59 -16 106t-49 101z" />
    <glyph glyph-name="parenleft.sups" horiz-adv-x="170" 
d="M95 685h75q-63 -104 -63 -207q0 -102 63 -208h-75q-70 80 -70 208q0 129 70 207z" />
    <glyph glyph-name="parenright.sups" horiz-adv-x="170" 
d="M0 685h75q70 -76 70 -207q0 -130 -70 -208h-75q65 106 65 208q0 59 -16 106t-49 101z" />
    <glyph glyph-name="cent.sups" 
d="M257 428l13 -50q-25 -16 -67 -20v-53h-55v55q-50 10 -80.5 44.5t-30.5 84.5q0 53 31 88.5t80 45.5v55h55v-52q40 -3 69 -20l-13 -52q-30 19 -73 19q-39 0 -64 -22.5t-25 -60.5q0 -36 24 -57.5t63 -21.5q36 0 73 17z" />
    <glyph glyph-name="currency.sups" 
d="M255 365l-36 37q-29 -20 -65 -20t-64 20l-37 -37l-26 27l38 36q-21 28 -21 63t21 63l-38 36l26 27l37 -37q29 20 64 20q37 0 64 -20l37 37l27 -27l-38 -36q20 -28 20 -63q0 -36 -20 -63l38 -36zM227 491q0 31 -22 52t-51 21q-31 0 -52 -21.5t-21 -51.5t21.5 -51.5
t51.5 -21.5q31 0 52 21.5t21 51.5z" />
    <glyph glyph-name="dollar.sups" 
d="M282 414q0 -35 -25 -63t-70 -38v-67h-55v62q-54 1 -104 22l13 54q51 -22 101 -22q37 0 58.5 14.5t21.5 35.5q0 17 -19 29.5t-73 27.5q-97 26 -97 102q0 40 26 66t73 34v66h55v-64q52 -3 86 -21l-13 -53q-45 20 -93 20q-37 0 -55.5 -13.5t-18.5 -33.5q0 -19 17 -30.5
t64 -24.5q61 -16 84.5 -40.5t23.5 -62.5z" />
    <glyph glyph-name="Euro.sups" 
d="M215 352q29 0 65 16l14 -51q-33 -19 -79 -19q-61 0 -104 30.5t-57 96.5h-51v44h45q-2 27 0 44h-45v43h51q15 64 58.5 96t103.5 32q50 0 82 -16l-13 -53q-34 15 -67 15q-80 0 -102 -74h119v-43h-127q-1 -21 0 -44h127v-44h-120q21 -73 100 -73z" />
    <glyph glyph-name="florin.sups" 
d="M242 630q-42 0 -48 -47l-5 -43h55v-46h-61l-29 -224q-12 -92 -103 -92q-32 0 -48 7l6 53q17 -5 38 -5q42 0 48 47l27 214h-50v46h56l7 52q12 92 105 92q25 0 46 -7l-6 -53q-20 6 -38 6z" />
    <glyph glyph-name="uni20BA.sups" 
d="M281 466v-14q0 -75 -41 -114.5t-111 -39.5q-32 0 -59 8v154l-46 -22v46l46 22v44l-46 -22v46l46 22v82h60v-53l116 55v-46l-116 -55v-44l116 55v-47l-116 -55v-136h9q40 0 64.5 26t24.5 81v10z" />
    <glyph glyph-name="uni20B9.sups" 
d="M281 634h-91q23 -16 32 -43h59v-44h-54q-4 -36 -30.5 -61t-71.5 -34l121 -147h-69l-133 156v26h22q92 0 99 60h-132v44h127q-19 43 -94 43h-33v44h248v-44z" />
    <glyph glyph-name="sterling.sups" 
d="M29 359h10q26 0 40 16t8 48l-8 47h-49v46h42l-4 22q-12 73 25 109.5t106 36.5q51 0 86 -15l-12 -54q-34 14 -71 14q-86 0 -73 -85l5 -28h87v-46h-79l6 -37q9 -54 -32 -77q7 3 26 3h145v-54h-258v54z" />
    <glyph glyph-name="yen.sups" 
d="M124 434v15l-16 29h-81v43h58l-85 157h62l82 -158q9 -18 10 -24q1 6 10 24l82 158h62l-86 -157h59v-43h-82l-16 -29v-15h98v-43h-98v-86h-59v86h-97v43h97z" />
    <glyph glyph-name="acute.case" horiz-adv-x="319" 
d="M268 837l-172 -108l-26 43l170 112z" />
    <glyph glyph-name="breve.case" horiz-adv-x="319" 
d="M239 858h51q-2 -55 -36.5 -89.5t-93.5 -34.5q-60 0 -94.5 34.5t-36.5 89.5h51q0 -36 22 -57t58 -21q35 0 57 21t22 57z" />
    <glyph glyph-name="caron.alt" horiz-adv-x="319" 
d="M123 705h80q0 -90 -30 -203h-52q3 61 3 115q0 47 -1 88z" />
    <glyph glyph-name="caron.case" horiz-adv-x="319" 
d="M26 884l134 -89l133 89l30 -46l-163 -109l-163 109z" />
    <glyph glyph-name="circumflex.case" horiz-adv-x="319" 
d="M26 729l-29 46l163 109l163 -109l-30 -46l-133 89z" />
    <glyph glyph-name="dieresis.case" horiz-adv-x="319" 
d="M81 772q-18 0 -31.5 13.5t-13.5 32.5t13.5 32t31.5 13t32 -13.5t14 -31.5q0 -19 -14 -32.5t-32 -13.5zM236 772q-18 0 -31.5 13.5t-13.5 32.5t13.5 32t31.5 13t32 -13.5t14 -31.5q0 -19 -14 -32.5t-32 -13.5z" />
    <glyph glyph-name="dotaccent.case" horiz-adv-x="319" 
d="M160 766q-21 0 -36.5 15t-15.5 36q0 22 15.5 37t36.5 15t36 -15t15 -37t-15 -36.5t-36 -14.5z" />
    <glyph glyph-name="grave.case" horiz-adv-x="319" 
d="M245 772l-26 -43l-172 108l28 47z" />
    <glyph glyph-name="hungarumlaut.case" horiz-adv-x="319" 
d="M188 855l-121 -127l-37 33l119 131zM328 855l-121 -127l-37 33l119 131z" />
    <glyph glyph-name="macron.case" horiz-adv-x="319" 
d="M258 793h-197v51h197v-51z" />
    <glyph glyph-name="ring.case" horiz-adv-x="319" 
d="M160 731q-37 0 -61.5 25t-24.5 61t24.5 61t61.5 25q36 0 61 -25t25 -61t-25 -61t-61 -25zM160 770q19 0 32 13.5t13 33.5t-13 33t-32 13q-21 0 -33.5 -13t-12.5 -33q0 -21 12.5 -34t33.5 -13z" />
    <glyph glyph-name="tilde.case" horiz-adv-x="319" 
d="M274 866l36 -28q-41 -73 -95 -73q-27 0 -46.5 13t-34 26t-30.5 13q-28 0 -59 -50l-36 28q41 74 95 74q34 0 64 -26t47 -26q16 0 29 11t30 38z" />
    <glyph glyph-name="uni0326.alt" horiz-adv-x="0" 
d="M171 673q40 -11 40 -52q0 -21 -14.5 -36t-36.5 -15q-24 0 -39 17.5t-15 50.5q0 61 38 124h42q-15 -70 -15 -89z" />
    <glyph glyph-name="uni1F871" horiz-adv-x="806" 
d="M403 689l368 -368q-32 -29 -61 -29q-21 0 -33 12l-231 231v-535h-85v536l-232 -232q-11 -12 -33 -12q-27 0 -61 29z" />
    <glyph glyph-name="uni1F870" horiz-adv-x="759" 
d="M35 337l368 368q29 -32 29 -61q0 -21 -12 -33l-231 -231h535v-85h-536l232 -232q12 -11 12 -33q0 -27 -29 -61z" />
    <glyph glyph-name="uni1F872" horiz-adv-x="759" 
d="M724 339l-368 -368q-29 32 -29 61q0 21 12 33l231 231h-535v85h536l-232 232q-12 11 -12 33q0 27 29 61z" />
    <glyph glyph-name="uni1F873" horiz-adv-x="806" 
d="M403 -12l-368 368q32 29 61 29q21 0 33 -12l231 -231v535h85v-536l232 232q11 12 33 12q27 0 61 -29z" />
    <glyph glyph-name="uni1F874" horiz-adv-x="645" 
d="M91 677h520q-2 -42 -22 -64q-16 -14 -32 -14h-327l378 -379l-60 -60l-379 379v-328q1 -16 -15 -32q-17 -19 -63 -22v520z" />
    <glyph glyph-name="uni1F875" horiz-adv-x="644" 
d="M552 677v-520q-42 2 -64 22q-14 16 -14 32v327l-379 -378l-60 60l379 379h-328q-16 -1 -32 15q-19 17 -22 63h520z" />
    <glyph glyph-name="uni1F876" horiz-adv-x="644" 
d="M553 0h-520q2 42 22 64q16 14 32 14h327l-378 379l60 60l379 -379v328q-1 16 15 32q17 19 63 22v-520z" />
    <glyph glyph-name="uni1F877" horiz-adv-x="644" 
d="M91 0v520q42 -2 64 -22q14 -16 14 -32v-327l379 378l60 -60l-379 -379h328q16 1 32 -15q19 -17 22 -63h-520z" />
    </font>
</defs>
</svg>
