<?xml version="1.0" standalone="no"?>
<!DOCTYPE svg PUBLIC "-//W3C//DTD SVG 1.1//EN" "http://www.w3.org/Graphics/SVG/1.1/DTD/svg11.dtd" >
<svg xmlns="http://www.w3.org/2000/svg" xmlns:xlink="http://www.w3.org/1999/xlink" version="1.1">
<metadata>
Created by FontForge 20150824 at Fri Mar 18 00:51:51 2016
 By Everything Fonts
Copyright (c) 2005-2013 Canada Type. Trump Gothic is a trade mark of Canada Type. All rights reserved.
</metadata>
<defs>
<font id="TrumpGothicPro-BoldItalic" horiz-adv-x="339" >
  <font-face 
    font-family="Trump Gothic Pro"
    font-weight="700"
    font-style="italic"
    font-stretch="normal"
    units-per-em="1000"
    panose-1="2 0 5 8 2 0 0 2 0 4"
    ascent="780"
    descent="-220"
    x-height="567"
    cap-height="766"
    bbox="-117 -228 1041 989"
    underline-thickness="50"
    underline-position="-100"
    slope="-10"
    unicode-range="U+0020-FB04"
  />
<missing-glyph horiz-adv-x="430" 
d="M330 0h-330l135 766h330zM83 132l139 265l-49 244zM258 52l-31 278l-136 -278h167zM251 468l119 246h-155zM292 130l90 510l-119 -244z" />
    <glyph glyph-name="ff" unicode="ff" horiz-adv-x="439" 
d="M318 0h-100l83 474h-106l-83 -474h-100l83 474h-55l16 93h55l13 70c20 111 70 140 138 140c18 0 39 -2 51 -7l-14 -83c-7 1 -13 2 -20 2c-40 0 -51 -29 -60 -78l-8 -44h106l13 70c20 111 70 140 138 140c18 0 39 -2 51 -7l-14 -83c-7 1 -13 2 -20 2
c-40 0 -51 -29 -60 -78l-8 -44h65l-16 -93h-65z" />
    <glyph glyph-name="fi" unicode="fi" horiz-adv-x="402" 
d="M112 0h-100l83 474h-55l16 93h55l13 70c20 111 70 140 138 140c18 0 39 -2 51 -7l-14 -83c-7 1 -13 2 -20 2c-40 0 -51 -29 -60 -78l-8 -44h65l-16 -93h-65zM318 0h-100l99 567h100zM378 625c-35 0 -58 28 -52 63s39 63 74 63s58 -28 52 -63s-39 -63 -74 -63z" />
    <glyph glyph-name="f_j" unicode="fj" horiz-adv-x="402" 
d="M112 0h-100l83 474h-55l16 93h55l13 70c19 108 68 140 138 140c18 0 39 -2 51 -7l-14 -83c-7 1 -13 2 -20 2c-40 0 -51 -29 -60 -78l-8 -44h65l-16 -93h-65zM116 -203l14 80c7 -1 10 -1 16 -1c43 0 54 27 63 77l108 614h100l-110 -625c-19 -107 -59 -150 -148 -150
c-19 0 -31 2 -43 5zM378 625c-35 0 -58 28 -52 63s39 63 74 63s58 -28 52 -63s-39 -63 -74 -63z" />
    <glyph glyph-name="fl" unicode="fl" horiz-adv-x="403" 
d="M112 0h-100l83 474h-55l16 93h55l13 70c20 111 70 140 138 140c18 0 39 -2 51 -7l-14 -83c-7 1 -13 2 -20 2c-40 0 -51 -29 -60 -78l-8 -44h65l-16 -93h-65zM318 0h-100l135 766h100z" />
    <glyph glyph-name="f_t" unicode="ft" horiz-adv-x="446" 
d="M398 82l-15 -85c-14 -3 -26 -5 -46 -5c-85 0 -114 38 -94 150l58 332h-106l-83 -474h-100l83 474h-55l16 93h55l13 70c20 111 70 140 138 140c18 0 39 -2 51 -7l-14 -83c-7 1 -13 2 -20 2c-40 0 -51 -29 -60 -78l-8 -44h106l25 140h100l-25 -140h65l-16 -93h-65l-56 -316
c-8 -47 -7 -78 32 -78c7 0 14 1 21 2z" />
    <glyph glyph-name="ffi" unicode="ffi" horiz-adv-x="608" 
d="M524 0h-100l99 567h100zM584 625c-35 0 -58 28 -52 63s39 63 74 63s58 -28 52 -63s-39 -63 -74 -63zM318 0h-100l83 474h-106l-83 -474h-100l83 474h-55l16 93h55l13 70c20 111 70 140 138 140c18 0 39 -2 51 -7l-14 -83c-7 1 -13 2 -20 2c-40 0 -51 -29 -60 -78l-8 -44
h106l13 70c20 111 70 140 138 140c18 0 39 -2 51 -7l-14 -83c-7 1 -13 2 -20 2c-40 0 -51 -29 -60 -78l-8 -44h65l-16 -93h-65z" />
    <glyph glyph-name="ffl" unicode="ffl" horiz-adv-x="609" 
d="M524 0h-100l135 766h100zM318 0h-100l83 474h-106l-83 -474h-100l83 474h-55l16 93h55l13 70c20 111 70 140 138 140c18 0 39 -2 51 -7l-14 -83c-7 1 -13 2 -20 2c-40 0 -51 -29 -60 -78l-8 -44h106l13 70c20 111 70 140 138 140c18 0 39 -2 51 -7l-14 -83
c-7 1 -13 2 -20 2c-40 0 -51 -29 -60 -78l-8 -44h65l-16 -93h-65z" />
    <glyph glyph-name="copyright" unicode="&#x28;C&#x29;" horiz-adv-x="697" 
d="M294 -8c-231 0 -298 149 -256 388c43 244 166 391 394 391c227 0 302 -147 259 -390c-43 -242 -168 -389 -397 -389zM312 77c163 0 256 99 292 303c37 210 -26 307 -187 307c-167 0 -257 -104 -292 -303c-37 -212 27 -307 187 -307zM483 332l-6 -35
c-19 -111 -71 -160 -153 -160c-84 0 -118 51 -99 160l30 172c19 109 71 160 155 160c82 0 115 -49 97 -160l-5 -31h-90l3 20c9 59 4 76 -22 76c-28 0 -40 -20 -50 -76l-26 -149c-10 -56 -5 -76 23 -76s39 20 49 76l4 23h90z" />
    <glyph glyph-name="uni2117" unicode="&#x28;P&#x29;" horiz-adv-x="697" 
d="M294 -8c-231 0 -298 149 -256 388c43 244 166 391 394 391c227 0 302 -147 259 -390c-43 -242 -168 -389 -397 -389zM312 77c163 0 256 99 292 303c37 210 -26 307 -187 307c-167 0 -257 -104 -292 -303c-37 -212 27 -307 187 -307zM304 150h-90l82 467h156
c53 0 93 -31 79 -110l-17 -94c-14 -79 -60 -110 -113 -110h-70zM428 441l7 36c8 44 -9 53 -29 53h-35l-25 -141h35c30 0 41 18 47 52z" />
    <glyph glyph-name="registered" unicode="&#x28;R&#x29;" horiz-adv-x="413" 
d="M214 352c-127 0 -170 79 -149 210c22 137 95 209 223 209c135 0 176 -80 152 -208c-25 -134 -101 -211 -226 -211zM224 397c99 0 150 64 168 165c18 103 -13 163 -112 163c-98 0 -149 -58 -167 -161c-18 -102 11 -167 111 -167zM319 443h-60l-11 82h-14l-14 -80h-59
l42 238h105c24 0 41 -12 41 -53c0 -10 -1 -24 -4 -40c-7 -36 -26 -51 -40 -55zM286 600c4 19 4 37 -13 37h-19l-12 -65h19c18 0 22 13 25 28z" />
    <glyph glyph-name="trademark" unicode="&#x28;TM&#x29;" horiz-adv-x="692" 
d="M677 414h-77l41 229l-116 -229h-44l-28 227l-41 -227h-76l63 352h103l28 -217l106 217h104zM209 414h-77l49 276h-93l14 76h263l-14 -76h-93z" />
    <glyph glyph-name=".notdef" horiz-adv-x="430" 
d="M330 0h-330l135 766h330zM83 132l139 265l-49 244zM258 52l-31 278l-136 -278h167zM251 468l119 246h-155zM292 130l90 510l-119 -244z" />
    <glyph glyph-name="apple" unicode="&#xf8ff;" horiz-adv-x="1006" 
d="M604 0h-202l-100 503l201 198l202 -198zM353 0h-172l-131 171l86 163l166 -82zM826 0h-172l51 252l165 82l86 -163z" />
    <glyph glyph-name="space" unicode=" " horiz-adv-x="126" 
 />
    <glyph glyph-name="nbspace" unicode="&#xa0;" horiz-adv-x="126" 
 />
    <glyph glyph-name="A" unicode="A" horiz-adv-x="363" 
d="M310 0h-102l9 170h-113l-49 -170h-102l238 766h150zM223 267l22 382l-112 -382h90z" />
    <glyph glyph-name="B" unicode="B" horiz-adv-x="386" 
d="M172 0h-182l135 766h172c75 0 130 -46 110 -160l-17 -97c-9 -52 -36 -95 -93 -116c58 -23 71 -66 61 -123l-19 -110c-20 -111 -90 -160 -167 -160zM289 516l14 77c10 56 -5 76 -43 76h-51l-40 -229h51c40 0 59 20 69 76zM239 173l17 94c10 58 -18 76 -53 76h-51l-43 -246
h61c38 0 59 20 69 76z" />
    <glyph glyph-name="C" unicode="C" horiz-adv-x="377" 
d="M346 256l-20 -109c-20 -115 -101 -160 -185 -160c-86 0 -151 47 -131 160l84 472c19 108 95 160 189 160c79 0 149 -37 128 -153l-23 -127h-102l19 107c10 56 -14 76 -42 76s-60 -20 -70 -76l-78 -446c-10 -56 14 -76 42 -76s60 20 70 76l17 96h102z" />
    <glyph glyph-name="D" unicode="D" horiz-adv-x="386" 
d="M162 0h-172l135 766h172c80 0 130 -47 110 -160l-78 -446c-20 -115 -90 -160 -167 -160zM229 173l74 420c10 56 -5 76 -43 76h-51l-100 -572h51c38 0 59 20 69 76z" />
    <glyph glyph-name="E" unicode="E" horiz-adv-x="341" 
d="M264 0h-274l135 766h274l-18 -97h-172l-41 -234h165l-17 -97h-165l-42 -241h172z" />
    <glyph glyph-name="F" unicode="F" horiz-adv-x="336" 
d="M92 0h-102l135 766h274l-18 -97h-172l-41 -234h165l-17 -97h-165z" />
    <glyph glyph-name="G" unicode="G" horiz-adv-x="390" 
d="M237 160l24 135h-68l17 97h170l-44 -245c-21 -118 -104 -160 -190 -160c-91 0 -156 47 -136 160l84 472c20 113 98 160 192 160c91 0 154 -45 134 -160l-21 -119h-102l18 106c10 56 -14 76 -47 76s-65 -20 -75 -76l-78 -446c-10 -56 14 -76 47 -76s65 20 75 76z" />
    <glyph glyph-name="H" unicode="H" horiz-adv-x="396" 
d="M306 0h-102l59 338h-112l-59 -338h-102l135 766h102l-59 -331h112l59 331h102z" />
    <glyph glyph-name="I" unicode="I" horiz-adv-x="182" 
d="M92 0h-102l135 766h102z" />
    <glyph glyph-name="J" unicode="J" horiz-adv-x="182" 
d="M-99 -192h-3l17 97h3c28 0 58 20 68 76l139 785h102l-141 -798c-20 -115 -101 -160 -185 -160z" />
    <glyph glyph-name="K" unicode="K" horiz-adv-x="377" 
d="M336 0h-102l-74 383l190 383h102l-183 -380zM92 0h-102l135 766h102z" />
    <glyph glyph-name="L" unicode="L" horiz-adv-x="271" 
d="M214 0h-224l135 766h102l-118 -669h122z" />
    <glyph glyph-name="M" unicode="M" horiz-adv-x="580" 
d="M490 0h-102l103 573l-205 -573h-92l-4 572l-98 -572h-102l135 766h165l-10 -534l180 534h165z" />
    <glyph glyph-name="N" unicode="N" horiz-adv-x="448" 
d="M358 0h-133l-45 511l-88 -511h-102l135 766h128l48 -520l90 520h102z" />
    <glyph glyph-name="O" unicode="O" horiz-adv-x="386" 
d="M10 147l84 472c20 113 98 160 192 160c98 0 143 -52 124 -160l-84 -472c-20 -115 -101 -160 -185 -160c-86 0 -151 47 -131 160zM227 160l78 446c10 56 -14 76 -42 76s-60 -20 -70 -76l-78 -446c-10 -56 14 -76 42 -76s60 20 70 76z" />
    <glyph glyph-name="P" unicode="P" horiz-adv-x="371" 
d="M92 0h-102l135 766h169c74 0 134 -41 113 -160l-23 -131c-20 -115 -87 -160 -164 -160h-73zM285 488l18 105c9 53 -2 76 -43 76h-51l-45 -257h51c38 0 60 20 70 76z" />
    <glyph glyph-name="Q" unicode="Q" horiz-adv-x="386" 
d="M258 -107l-88 -35l-35 129c-78 0 -145 45 -125 160l84 472c20 113 99 160 191 160c90 0 145 -45 125 -160l-84 -472c-13 -73 -41 -111 -102 -139zM227 160l78 446c10 56 -14 76 -42 76s-60 -20 -70 -76l-78 -446c-10 -56 14 -76 42 -76s60 20 70 76z" />
    <glyph glyph-name="R" unicode="R" horiz-adv-x="376" 
d="M321 0h-102l-33 315h-39l-55 -315h-102l135 766h170c77 0 132 -45 112 -160l-21 -123c-12 -70 -38 -122 -100 -146zM285 488l18 105c9 53 -2 76 -43 76h-51l-45 -257h51c38 0 60 20 70 76z" />
    <glyph glyph-name="S" unicode="S" horiz-adv-x="371" 
d="M336 244l-18 -97c-20 -108 -91 -160 -185 -160c-99 0 -150 57 -131 160l20 109h102l-17 -96c-10 -56 14 -76 42 -76s60 20 70 76l11 63c15 85 -187 155 -161 300l17 96c20 113 99 160 191 160c94 0 145 -49 125 -160l-22 -120h-102l19 107c10 56 -14 76 -42 76
s-60 -20 -70 -76l-11 -64c-20 -116 188 -155 162 -298z" />
    <glyph glyph-name="T" unicode="T" horiz-adv-x="308" 
d="M155 0h-102l117 669h-95l18 97h292l-18 -97h-95z" />
    <glyph glyph-name="U" unicode="U" horiz-adv-x="392" 
d="M230 160l107 606h102l-110 -619c-20 -115 -101 -160 -185 -160c-86 0 -151 47 -131 160l110 619h102l-107 -606c-10 -56 14 -76 42 -76s60 20 70 76z" />
    <glyph glyph-name="V" unicode="V" horiz-adv-x="352" 
d="M429 766l-228 -766h-150l41 766h102l-46 -637l179 637h102z" />
    <glyph glyph-name="W" unicode="W" horiz-adv-x="611" 
d="M687 766l-219 -766h-145l40 618l-175 -618h-145l51 766h102l-48 -592l171 592h143l-39 -592l162 592h102z" />
    <glyph glyph-name="X" unicode="X" horiz-adv-x="376" 
d="M327 0h-102l-33 290l-145 -290h-102l206 394l-65 372h103l40 -264l128 264h103l-184 -373z" />
    <glyph glyph-name="Y" unicode="Y" horiz-adv-x="357" 
d="M179 0h-102l46 266l-38 500h103l13 -347l139 347h103l-217 -499z" />
    <glyph glyph-name="Z" unicode="Z" horiz-adv-x="307" 
d="M241 0h-276l17 97l260 572h-151l18 97h267l-10 -53l-279 -616h171z" />
    <glyph glyph-name="a" unicode="a" horiz-adv-x="331" 
d="M249 0h-86l-1 47c-18 -24 -45 -55 -100 -55c-49 0 -84 25 -56 175l3 16c21 111 52 150 112 150c50 0 67 -27 78 -46l21 117c10 56 5 76 -23 76s-40 -22 -49 -76l-3 -18h-100l6 35c16 95 65 154 165 154c105 0 122 -66 106 -157zM175 152l4 22c8 45 1 64 -25 64
c-27 0 -40 -20 -50 -80c-8 -48 -6 -70 24 -70c18 0 37 8 47 64z" />
    <glyph glyph-name="b" unicode="b" horiz-adv-x="337" 
d="M70 0h-86l135 766h100l-43 -239c17 20 42 48 95 48c70 0 77 -48 58 -156l-47 -271c-19 -107 -44 -156 -113 -156c-55 0 -73 32 -82 54zM184 163l43 241c10 56 5 76 -23 76s-39 -20 -49 -76l-43 -241c-10 -56 -5 -76 23 -76s39 20 49 76z" />
    <glyph glyph-name="c" unicode="c" horiz-adv-x="325" 
d="M291 222l-13 -70c-21 -111 -71 -160 -163 -160c-94 0 -128 51 -109 160l47 263c19 109 71 160 165 160c92 0 127 -49 107 -160l-10 -56h-100l8 45c10 56 5 76 -23 76s-39 -20 -49 -76l-43 -240c-10 -56 -5 -76 23 -76s38 20 49 76l11 58h100z" />
    <glyph glyph-name="d" unicode="d" horiz-adv-x="337" 
d="M253 0h-86l-1 46c-17 -22 -47 -54 -102 -54c-69 0 -76 49 -57 156l47 271c19 108 44 156 114 156c53 0 68 -28 77 -48l43 239h100zM181 163l43 241c10 56 5 76 -23 76s-39 -20 -49 -76l-43 -241c-10 -56 -5 -76 23 -76s39 20 49 76z" />
    <glyph glyph-name="e" unicode="e" horiz-adv-x="327" 
d="M284 187l-6 -35c-19 -111 -71 -160 -163 -160c-94 0 -128 51 -109 160l47 263c19 107 69 160 164 160s127 -52 108 -160l-31 -174h-172l-14 -77c-11 -61 -1 -76 23 -76c27 0 39 17 49 76l4 23h100zM211 335l12 69c10 56 5 76 -23 76s-39 -20 -49 -76l-12 -69h72z" />
    <glyph glyph-name="f" unicode="f" horiz-adv-x="233" 
d="M112 0h-100l83 474h-55l16 93h55l13 70c20 111 70 140 138 140c18 0 39 -2 51 -7l-14 -83c-7 1 -13 2 -20 2c-40 0 -51 -29 -60 -78l-8 -44h65l-16 -93h-65z" />
    <glyph glyph-name="g" unicode="g" horiz-adv-x="334" 
d="M252 -4l-9 -48c-20 -108 -77 -150 -166 -150c-100 0 -133 52 -114 160l9 50c8 45 24 87 52 117c-4 10 -10 17 -7 37c4 23 19 40 50 64c-23 23 -36 64 -25 125l12 64c20 107 66 160 167 160c34 0 53 -6 68 -17h92l-10 -57l-47 2c10 -23 10 -38 3 -78l-11 -67
c-19 -114 -76 -157 -168 -157c-10 0 -19 0 -27 2c-9 -7 -14 -11 -15 -18c-3 -17 21 -18 49 -18c96 -1 117 -64 97 -171zM218 372l6 32c11 59 3 76 -23 76c-30 0 -39 -23 -49 -76l-6 -32c-11 -59 -3 -76 23 -76c30 0 39 23 49 76zM146 -39l4 25c11 67 13 86 -26 86
c-28 0 -42 -10 -52 -66l-7 -37c-11 -59 2 -76 30 -76c25 0 42 14 51 68z" />
    <glyph glyph-name="h" unicode="h" 
d="M256 0h-100l71 404c10 56 5 76 -23 76s-39 -20 -49 -76l-71 -404h-100l135 766h100l-43 -239c17 20 42 48 95 48c70 0 77 -48 58 -156z" />
    <glyph glyph-name="i" unicode="i" horiz-adv-x="168" 
d="M84 0h-100l99 567h100zM144 625c-35 0 -58 28 -52 63s39 63 74 63s58 -28 52 -63s-39 -63 -74 -63z" />
    <glyph glyph-name="j" unicode="j" horiz-adv-x="168" 
d="M-117 -203l14 80c7 -1 10 -1 16 -1c42 0 53 27 62 77l108 614h100l-110 -625c-19 -107 -59 -150 -147 -150c-19 0 -31 2 -43 5zM144 625c-35 0 -58 28 -52 63s39 63 74 63s58 -28 52 -63s-39 -63 -74 -63z" />
    <glyph glyph-name="k" unicode="k" 
d="M288 0h-101l-51 290l150 277h102l-146 -274zM84 0h-100l135 766h100z" />
    <glyph glyph-name="l" unicode="l" horiz-adv-x="170" 
d="M85 0h-100l135 766h100z" />
    <glyph glyph-name="m" unicode="m" horiz-adv-x="511" 
d="M428 0h-100l71 404c10 56 5 76 -23 76s-39 -20 -49 -76l-71 -404h-100l71 404c10 56 5 76 -23 76s-39 -20 -49 -76l-71 -404h-100l99 567h86l1 -46c17 22 47 54 102 54c45 0 64 -21 66 -66c26 39 57 66 107 66c70 0 74 -53 56 -156z" />
    <glyph glyph-name="n" unicode="n" 
d="M256 0h-100l71 404c10 56 5 76 -23 76s-39 -20 -49 -76l-71 -404h-100l99 567h86l1 -46c17 22 47 54 102 54c71 0 75 -52 57 -156z" />
    <glyph glyph-name="o" unicode="o" horiz-adv-x="332" 
d="M325 415l-47 -263c-20 -111 -71 -160 -163 -160c-94 0 -128 51 -109 160l47 263c19 107 69 160 164 160s127 -52 108 -160zM180 164l43 240c10 56 5 76 -23 76s-39 -20 -49 -76l-43 -240c-10 -56 -4 -76 24 -76s38 20 48 76z" />
    <glyph glyph-name="p" unicode="p" horiz-adv-x="337" 
d="M48 -199h-99l134 766h86l1 -46c17 22 47 54 102 54c71 0 75 -52 57 -156l-47 -271c-19 -108 -44 -156 -114 -156c-53 0 -68 28 -77 48zM184 163l43 241c10 56 5 76 -23 76s-39 -20 -49 -76l-43 -241c-10 -56 -5 -76 23 -76s39 20 49 76z" />
    <glyph glyph-name="q" unicode="q" horiz-adv-x="337" 
d="M217 -199h-100l43 239c-17 -20 -42 -48 -95 -48c-70 0 -77 48 -58 156l47 271c19 107 44 156 113 156c55 0 73 -32 82 -54l17 46h86zM181 163l43 241c10 56 5 76 -23 76s-39 -20 -49 -76l-43 -241c-10 -56 -5 -76 23 -76s39 20 49 76z" />
    <glyph glyph-name="r" unicode="r" horiz-adv-x="264" 
d="M84 0h-100l99 567h87v-46c12 18 47 53 95 53c16 0 36 -4 46 -12l-28 -103c-19 9 -40 14 -57 14c-36 0 -64 -25 -75 -90z" />
    <glyph glyph-name="s" unicode="s" horiz-adv-x="323" 
d="M86 187c-5 -24 -7 -44 -7 -58c0 -30 10 -42 32 -42c30 0 44 22 49 50c22 121 -164 105 -131 292c17 95 73 146 169 146c97 0 131 -52 111 -160l-7 -37h-100l5 26c12 63 -2 76 -27 76c-35 0 -45 -25 -50 -51c-24 -136 164 -100 130 -291c-17 -95 -71 -146 -169 -146
c-78 0 -114 33 -114 113c0 23 3 50 9 82h100z" />
    <glyph glyph-name="t" unicode="t" horiz-adv-x="231" 
d="M183 82l-15 -85c-14 -3 -26 -5 -46 -5c-85 0 -114 38 -94 150l58 332h-45l16 93h45l25 140h100l-25 -140h65l-16 -93h-65l-56 -316c-8 -47 -7 -78 32 -78c7 0 14 1 21 2z" />
    <glyph glyph-name="u" unicode="u" 
d="M254 0h-86l-1 46c-17 -22 -47 -54 -102 -54c-71 0 -75 52 -57 156l73 419h100l-71 -404c-10 -56 -5 -76 23 -76s39 20 49 76l71 404h100z" />
    <glyph glyph-name="v" unicode="v" horiz-adv-x="315" 
d="M181 0h-146l22 567h104l-36 -462l127 462h104z" />
    <glyph glyph-name="w" unicode="w" horiz-adv-x="514" 
d="M379 0h-131l30 407l-112 -407h-131l22 567h104l-31 -432l122 432h108l-30 -432l121 432h104z" />
    <glyph glyph-name="x" unicode="x" horiz-adv-x="314" 
d="M263 0h-99l-28 189l-86 -189h-98l145 290l-45 277h99l25 -172l83 172h101l-146 -278z" />
    <glyph glyph-name="y" unicode="y" horiz-adv-x="316" 
d="M108 -200h-104l59 162l-13 605h104l-13 -402l114 402h104z" />
    <glyph glyph-name="z" unicode="z" horiz-adv-x="279" 
d="M204 0h-242l15 88l209 386h-122l16 93h235l-12 -71l-215 -401h132z" />
    <glyph glyph-name="germandbls" unicode="&#xdf;" horiz-adv-x="352" 
d="M109 -3l16 93c8 -1 12 -1 17 -1c48 0 54 28 63 77l23 132c10 57 14 118 -34 127l15 82c49 9 69 58 74 100l1 9c4 31 5 61 -34 61c-34 0 -51 -22 -58 -61l-108 -616h-100l109 619c17 96 70 153 172 153s140 -58 120 -153l-4 -19c-19 -92 -55 -119 -99 -132
c39 -8 69 -39 55 -121l-35 -195c-17 -94 -64 -160 -153 -160c-15 0 -28 2 -40 5z" />
    <glyph glyph-name="Agrave" unicode="&#xc0;" horiz-adv-x="363" 
d="M310 0h-102l9 170h-113l-49 -170h-102l238 766h150zM223 267l22 382l-112 -382h90zM322 836h-73l-72 131h111z" />
    <glyph glyph-name="agrave" unicode="&#xe0;" horiz-adv-x="331" 
d="M249 0h-86l-1 47c-18 -24 -45 -55 -100 -55c-49 0 -84 25 -56 175l3 16c21 111 52 150 112 150c50 0 67 -27 78 -46l21 117c10 56 5 76 -23 76s-40 -22 -49 -76l-3 -18h-100l6 35c16 95 65 154 165 154c105 0 122 -66 106 -157zM175 152l4 22c8 45 1 64 -25 64
c-27 0 -40 -20 -50 -80c-8 -48 -6 -70 24 -70c18 0 37 8 47 64zM287 637h-73l-72 131h111z" />
    <glyph glyph-name="Aacute" unicode="&#xc1;" horiz-adv-x="363" 
d="M310 0h-102l9 170h-113l-49 -170h-102l238 766h150zM223 267l22 382l-112 -382h90zM301 836h-73l80 131h111z" />
    <glyph glyph-name="aacute" unicode="&#xe1;" horiz-adv-x="331" 
d="M249 0h-86l-1 47c-18 -24 -45 -55 -100 -55c-49 0 -84 25 -56 175l3 16c21 111 52 150 112 150c50 0 67 -27 78 -46l21 117c10 56 5 76 -23 76s-40 -22 -49 -76l-3 -18h-100l6 35c16 95 65 154 165 154c105 0 122 -66 106 -157zM175 152l4 22c8 45 1 64 -25 64
c-27 0 -40 -20 -50 -80c-8 -48 -6 -70 24 -70c18 0 37 8 47 64zM248 637h-73l80 131h111z" />
    <glyph glyph-name="Acircumflex" unicode="&#xc2;" horiz-adv-x="363" 
d="M310 0h-102l9 170h-113l-49 -170h-102l238 766h150zM223 267l22 382l-112 -382h90zM400 836h-78l-32 77l-53 -77h-81l100 141h90z" />
    <glyph glyph-name="acircumflex" unicode="&#xe2;" horiz-adv-x="331" 
d="M249 0h-86l-1 47c-18 -24 -45 -55 -100 -55c-49 0 -84 25 -56 175l3 16c21 111 52 150 112 150c50 0 67 -27 78 -46l21 117c10 56 5 76 -23 76s-40 -22 -49 -76l-3 -18h-100l6 35c16 95 65 154 165 154c105 0 122 -66 106 -157zM175 152l4 22c8 45 1 64 -25 64
c-27 0 -40 -20 -50 -80c-8 -48 -6 -70 24 -70c18 0 37 8 47 64zM346 637h-78l-32 77l-53 -77h-81l100 141h90z" />
    <glyph glyph-name="Atilde" unicode="&#xc3;" horiz-adv-x="363" 
d="M310 0h-102l9 170h-113l-49 -170h-102l238 766h150zM223 267l22 382l-112 -382h90zM353 931h65c-12 -53 -41 -95 -89 -95c-33 0 -49 19 -82 19c-8 0 -22 -1 -27 -20h-65c11 53 40 95 88 95c32 0 51 -19 80 -19c9 0 24 0 30 20z" />
    <glyph glyph-name="atilde" unicode="&#xe3;" horiz-adv-x="331" 
d="M249 0h-86l-1 47c-18 -24 -45 -55 -100 -55c-49 0 -84 25 -56 175l3 16c21 111 52 150 112 150c50 0 67 -27 78 -46l21 117c10 56 5 76 -23 76s-40 -22 -49 -76l-3 -18h-100l6 35c16 95 65 154 165 154c105 0 122 -66 106 -157zM175 152l4 22c8 45 1 64 -25 64
c-27 0 -40 -20 -50 -80c-8 -48 -6 -70 24 -70c18 0 37 8 47 64zM300 732h65c-12 -53 -41 -95 -89 -95c-33 0 -49 19 -82 19c-8 0 -22 -1 -27 -20h-65c11 53 40 95 88 95c32 0 51 -19 80 -19c9 0 24 0 30 20z" />
    <glyph glyph-name="Adieresis" unicode="&#xc4;" horiz-adv-x="363" 
d="M310 0h-102l9 170h-113l-49 -170h-102l238 766h150zM223 267l22 382l-112 -382h90zM191 826c-32 0 -55 26 -49 60s38 59 70 59c33 0 54 -26 49 -59c-5 -32 -36 -60 -70 -60zM362 826c-31 0 -55 23 -49 60c7 37 39 59 69 59c34 0 55 -26 50 -59c-6 -34 -37 -60 -70 -60z
" />
    <glyph glyph-name="adieresis" unicode="&#xe4;" horiz-adv-x="330" 
d="M249 0h-86l-1 47c-18 -24 -45 -55 -100 -55c-49 0 -84 25 -56 175l3 16c21 111 52 150 112 150c50 0 67 -27 78 -46l21 117c10 56 5 76 -23 76s-40 -22 -49 -76l-3 -18h-100l6 35c16 95 65 154 165 154c105 0 122 -66 106 -157zM175 152l4 22c8 45 1 64 -25 64
c-27 0 -40 -20 -50 -80c-8 -48 -6 -70 24 -70c18 0 37 8 47 64zM138 627c-32 0 -55 26 -49 60s38 59 70 59c33 0 54 -26 49 -59c-5 -32 -36 -60 -70 -60zM309 627c-31 0 -55 23 -49 60c7 37 39 59 69 59c34 0 55 -26 50 -59c-6 -34 -37 -60 -70 -60z" />
    <glyph glyph-name="Aring" unicode="&#xc5;" horiz-adv-x="363" 
d="M310 0h-102l9 170h-113l-49 -170h-102l238 766h150zM223 267l22 382l-112 -382h90zM320 902c4 19 -8 31 -25 31c-18 0 -34 -14 -37 -31c-3 -18 8 -31 26 -31c19 0 33 14 36 31zM274 815c-52 0 -80 42 -72 87c8 48 54 87 103 87s80 -38 71 -87c-9 -50 -53 -87 -102 -87z
" />
    <glyph glyph-name="aring" unicode="&#xe5;" horiz-adv-x="331" 
d="M249 0h-86l-1 47c-18 -24 -45 -55 -100 -55c-49 0 -84 25 -56 175l3 16c21 111 52 150 112 150c50 0 67 -27 78 -46l21 117c10 56 5 76 -23 76s-40 -22 -49 -76l-3 -18h-100l6 35c16 95 65 154 165 154c105 0 122 -66 106 -157zM175 152l4 22c8 45 1 64 -25 64
c-27 0 -40 -20 -50 -80c-8 -48 -6 -70 24 -70c18 0 37 8 47 64zM268 703c4 19 -8 31 -25 31c-18 0 -34 -14 -37 -31c-3 -18 8 -31 26 -31c19 0 33 14 36 31zM222 616c-52 0 -80 42 -72 87c8 48 54 87 103 87s80 -38 71 -87c-9 -50 -53 -87 -102 -87z" />
    <glyph glyph-name="Amacron" unicode="&#x100;" horiz-adv-x="363" 
d="M310 0h-102l9 170h-113l-49 -170h-102l238 766h150zM223 267l22 382l-112 -382h90zM409 836h-262l14 81h262z" />
    <glyph glyph-name="amacron" unicode="&#x101;" horiz-adv-x="331" 
d="M249 0h-86l-1 47c-18 -24 -45 -55 -100 -55c-49 0 -84 25 -56 175l3 16c21 111 52 150 112 150c50 0 67 -27 78 -46l21 117c10 56 5 76 -23 76s-40 -22 -49 -76l-3 -18h-100l6 35c16 95 65 154 165 154c105 0 122 -66 106 -157zM175 152l4 22c8 45 1 64 -25 64
c-27 0 -40 -20 -50 -80c-8 -48 -6 -70 24 -70c18 0 37 8 47 64zM357 637h-262l14 81h262z" />
    <glyph glyph-name="Abreve" unicode="&#x102;" horiz-adv-x="363" 
d="M310 0h-102l9 170h-113l-49 -170h-102l238 766h150zM223 267l22 382l-112 -382h90zM359 949h56c-16 -78 -61 -124 -139 -124s-108 46 -95 124h56c-4 -27 4 -53 51 -53s64 26 71 53z" />
    <glyph glyph-name="abreve" unicode="&#x103;" horiz-adv-x="331" 
d="M249 0h-86l-1 47c-18 -24 -45 -55 -100 -55c-49 0 -84 25 -56 175l3 16c21 111 52 150 112 150c50 0 67 -27 78 -46l21 117c10 56 5 76 -23 76s-40 -22 -49 -76l-3 -18h-100l6 35c16 95 65 154 165 154c105 0 122 -66 106 -157zM175 152l4 22c8 45 1 64 -25 64
c-27 0 -40 -20 -50 -80c-8 -48 -6 -70 24 -70c18 0 37 8 47 64zM308 750h56c-16 -78 -61 -124 -139 -124s-108 46 -95 124h56c-4 -27 4 -53 51 -53s64 26 71 53z" />
    <glyph glyph-name="Aogonek" unicode="&#x104;" horiz-adv-x="363" 
d="M294 -156l-44 -52c-75 4 -117 54 -107 110c6 33 29 65 64 87l9 181h-112l-49 -170h-102l238 766h150l-31 -766c-46 -25 -71 -57 -76 -86c-5 -31 13 -59 60 -70zM223 267l22 382l-112 -382h90z" />
    <glyph glyph-name="aogonek" unicode="&#x105;" horiz-adv-x="331" 
d="M235 -156l-44 -52c-75 4 -117 54 -107 110c6 33 30 71 80 97l-2 48c-18 -24 -45 -55 -100 -55c-49 0 -84 25 -56 175l3 16c21 111 52 150 112 150c50 0 67 -27 78 -46l21 117c10 56 5 76 -23 76s-40 -22 -49 -76l-3 -18h-100l6 35c16 95 65 154 165 154
c105 0 122 -66 106 -157l-73 -418c-43 -25 -69 -57 -74 -86c-5 -31 13 -59 60 -70zM175 152l4 22c8 45 1 64 -25 64c-27 0 -40 -20 -50 -80c-8 -48 -6 -70 24 -70c18 0 37 8 47 64z" />
    <glyph glyph-name="AE" unicode="&#xc6;" horiz-adv-x="550" 
d="M473 0h-274l29 170h-113l-72 -170h-101l333 766h333l-18 -97h-172l-41 -234h165l-17 -97h-165l-42 -241h172zM246 272l62 350l-151 -350h89z" />
    <glyph glyph-name="ae" unicode="&#xe6;" horiz-adv-x="495" 
d="M453 187l-6 -35c-19 -111 -71 -160 -164 -160c-62 0 -98 22 -110 70c-32 -48 -64 -70 -110 -70c-48 0 -85 24 -57 175l3 16c21 111 52 150 112 150c50 0 67 -27 78 -46l23 129c8 47 1 64 -25 64c-25 0 -39 -16 -49 -76l-3 -18h-100l6 35c16 95 65 154 164 154
c38 0 64 -9 82 -23c23 15 54 23 90 23c89 0 127 -47 107 -160l-31 -174h-172l-14 -77c-10 -56 -5 -76 23 -76s39 18 49 76l4 23h100zM380 335l12 69c10 56 5 76 -23 76s-39 -20 -49 -76l-12 -69h72zM175 152l4 22c8 45 1 64 -25 64c-28 0 -40 -22 -49 -74l-1 -6
c-9 -53 -2 -70 24 -70c18 0 37 8 47 64z" />
    <glyph glyph-name="AEacute" unicode="&#x1fc;" horiz-adv-x="550" 
d="M473 0h-274l29 170h-113l-72 -170h-101l333 766h333l-18 -97h-172l-41 -234h165l-17 -97h-165l-42 -241h172zM246 272l62 350l-151 -350h89zM466 836h-73l80 131h111z" />
    <glyph glyph-name="aeacute" unicode="&#x1fd;" horiz-adv-x="495" 
d="M453 187l-6 -35c-19 -111 -71 -160 -164 -160c-62 0 -98 22 -110 70c-32 -48 -64 -70 -110 -70c-48 0 -85 24 -57 175l3 16c21 111 52 150 112 150c50 0 67 -27 78 -46l23 129c8 47 1 64 -25 64c-25 0 -39 -16 -49 -76l-3 -18h-100l6 35c16 95 65 154 164 154
c38 0 64 -9 82 -23c23 15 54 23 90 23c89 0 127 -47 107 -160l-31 -174h-172l-14 -77c-10 -56 -5 -76 23 -76s39 18 49 76l4 23h100zM380 335l12 69c10 56 5 76 -23 76s-39 -20 -49 -76l-12 -69h72zM175 152l4 22c8 45 1 64 -25 64c-28 0 -40 -22 -49 -74l-1 -6
c-9 -53 -2 -70 24 -70c18 0 37 8 47 64zM329 637h-73l80 131h111z" />
    <glyph glyph-name="uni1E02" unicode="&#x1e02;" horiz-adv-x="386" 
d="M172 0h-182l135 766h172c75 0 130 -46 110 -160l-17 -97c-9 -52 -36 -95 -93 -116c58 -23 71 -66 61 -123l-19 -110c-20 -111 -90 -160 -167 -160zM289 516l14 77c10 56 -5 76 -43 76h-51l-40 -229h51c40 0 59 20 69 76zM239 173l17 94c10 58 -18 76 -53 76h-51l-43 -246
h61c38 0 59 20 69 76zM282 831c-32 0 -55 26 -49 60s38 59 70 59c33 0 54 -26 49 -59c-5 -32 -36 -60 -70 -60z" />
    <glyph glyph-name="uni1E03" unicode="&#x1e03;" horiz-adv-x="337" 
d="M70 0h-86l135 766h100l-43 -239c17 20 42 48 95 48c70 0 77 -48 58 -156l-47 -271c-19 -107 -44 -156 -113 -156c-55 0 -73 32 -82 54zM184 163l43 241c10 56 5 76 -23 76s-39 -20 -49 -76l-43 -241c-10 -56 -5 -76 23 -76s39 20 49 76zM300 637c-32 0 -55 26 -49 60
s38 59 70 59c33 0 54 -26 49 -59c-5 -32 -36 -60 -70 -60z" />
    <glyph glyph-name="Ccedilla" unicode="&#xc7;" horiz-adv-x="377" 
d="M34 -176l25 56c6 -4 19 -9 33 -9c25 0 41 15 44 32c3 15 -4 30 -35 30c-3 0 -6 0 -10 -1l24 57c-76 9 -122 62 -105 158l84 472c19 108 95 160 189 160c77 0 149 -35 128 -153l-23 -127h-102l19 107c10 56 -14 76 -42 76s-60 -20 -70 -76l-78 -446c-10 -56 14 -76 42 -76
s60 20 70 76l17 96h102l-20 -109c-18 -100 -77 -142 -140 -155l-17 -38c43 0 61 -32 55 -65c-7 -38 -45 -79 -116 -79c-30 0 -59 7 -74 14z" />
    <glyph glyph-name="ccedilla" unicode="&#xe7;" horiz-adv-x="320" 
d="M-1 -176l25 56c6 -4 19 -9 33 -9c25 0 41 15 44 32c3 15 -4 30 -35 30c-3 0 -6 0 -10 -1l25 62c-72 10 -97 61 -80 158l47 263c19 107 69 160 164 160s127 -52 108 -160l-10 -56h-100l8 45c10 56 5 76 -23 76s-39 -20 -49 -76l-43 -240c-9 -52 -6 -76 24 -76
c31 0 39 26 48 76l11 58h100l-13 -70c-17 -94 -55 -142 -119 -155l-20 -43c43 0 61 -32 55 -65c-7 -38 -45 -79 -116 -79c-30 0 -59 7 -74 14z" />
    <glyph glyph-name="Cacute" unicode="&#x106;" horiz-adv-x="377" 
d="M346 256l-20 -109c-20 -115 -101 -160 -185 -160c-86 0 -151 47 -131 160l84 472c19 108 95 160 189 160c79 0 149 -37 128 -153l-23 -127h-102l19 107c10 56 -14 76 -42 76s-60 -20 -70 -76l-78 -446c-10 -56 14 -76 42 -76s60 20 70 76l17 96h102zM308 836h-73l80 131
h111z" />
    <glyph glyph-name="cacute" unicode="&#x107;" horiz-adv-x="325" 
d="M291 222l-13 -70c-21 -111 -71 -160 -163 -160c-94 0 -128 51 -109 160l47 263c19 109 71 160 165 160c92 0 127 -49 107 -160l-10 -56h-100l8 45c10 56 5 76 -23 76s-39 -20 -49 -76l-43 -240c-10 -56 -5 -76 23 -76s38 20 49 76l11 58h100zM244 637h-73l80 131h111z
" />
    <glyph glyph-name="Ccircumflex" unicode="&#x108;" horiz-adv-x="377" 
d="M346 256l-20 -109c-20 -115 -101 -160 -185 -160c-86 0 -151 47 -131 160l84 472c19 108 95 160 189 160c79 0 149 -37 128 -153l-23 -127h-102l19 107c10 56 -14 76 -42 76s-60 -20 -70 -76l-78 -446c-10 -56 14 -76 42 -76s60 20 70 76l17 96h102zM412 836h-78l-32 77
l-53 -77h-81l100 141h90z" />
    <glyph glyph-name="ccircumflex" unicode="&#x109;" horiz-adv-x="325" 
d="M291 222l-13 -70c-21 -111 -71 -160 -163 -160c-94 0 -128 51 -109 160l47 263c19 109 71 160 165 160c92 0 127 -49 107 -160l-10 -56h-100l8 45c10 56 5 76 -23 76s-39 -20 -49 -76l-43 -240c-10 -56 -5 -76 23 -76s38 20 49 76l11 58h100zM349 637h-78l-32 77l-53 -77
h-81l100 141h90z" />
    <glyph glyph-name="Cdotaccent" unicode="&#x10a;" horiz-adv-x="377" 
d="M346 256l-20 -109c-20 -115 -101 -160 -185 -160c-86 0 -151 47 -131 160l84 472c19 108 95 160 189 160c79 0 149 -37 128 -153l-23 -127h-102l19 107c10 56 -14 76 -42 76s-60 -20 -70 -76l-78 -446c-10 -56 14 -76 42 -76s60 20 70 76l17 96h102zM289 831
c-32 0 -55 26 -49 60s38 59 70 59c33 0 54 -26 49 -59c-5 -32 -36 -60 -70 -60z" />
    <glyph glyph-name="cdotaccent" unicode="&#x10b;" horiz-adv-x="325" 
d="M291 222l-13 -70c-21 -111 -71 -160 -163 -160c-94 0 -128 51 -109 160l47 263c19 109 71 160 165 160c92 0 127 -49 107 -160l-10 -56h-100l8 45c10 56 5 76 -23 76s-39 -20 -49 -76l-43 -240c-10 -56 -5 -76 23 -76s38 20 49 76l11 58h100zM227 632
c-32 0 -55 26 -49 60s38 59 70 59c33 0 54 -26 49 -59c-5 -32 -36 -60 -70 -60z" />
    <glyph glyph-name="Ccaron" unicode="&#x10c;" horiz-adv-x="377" 
d="M346 256l-20 -109c-20 -115 -101 -160 -185 -160c-86 0 -151 47 -131 160l84 472c19 108 95 160 189 160c79 0 149 -37 128 -153l-23 -127h-102l19 107c10 56 -14 76 -42 76s-60 -20 -70 -76l-78 -446c-10 -56 14 -76 42 -76s60 20 70 76l17 96h102zM336 836h-90l-54 141
h78l31 -77l54 77h81z" />
    <glyph glyph-name="ccaron" unicode="&#x10d;" horiz-adv-x="325" 
d="M291 222l-13 -70c-21 -111 -71 -160 -163 -160c-94 0 -128 51 -109 160l47 263c19 109 71 160 165 160c92 0 127 -49 107 -160l-10 -56h-100l8 45c10 56 5 76 -23 76s-39 -20 -49 -76l-43 -240c-10 -56 -5 -76 23 -76s38 20 49 76l11 58h100zM274 637h-90l-54 141h78
l31 -77l54 77h81z" />
    <glyph glyph-name="Dcaron" unicode="&#x10e;" horiz-adv-x="386" 
d="M162 0h-172l135 766h172c80 0 130 -47 110 -160l-78 -446c-20 -115 -90 -160 -167 -160zM229 173l74 420c10 56 -5 76 -43 76h-51l-100 -572h51c38 0 59 20 69 76zM328 836h-90l-54 141h78l31 -77l54 77h81z" />
    <glyph glyph-name="dcaron" unicode="&#x10f;" horiz-adv-x="398" 
d="M491 538h-74l76 228h113zM253 0h-86l-1 46c-17 -22 -47 -54 -102 -54c-69 0 -76 49 -57 156l47 271c19 108 44 156 114 156c53 0 68 -28 77 -48l43 239h100zM181 163l43 241c10 56 5 76 -23 76s-39 -20 -49 -76l-43 -241c-10 -56 -5 -76 23 -76s39 20 49 76z" />
    <glyph glyph-name="Dcroat" unicode="&#x110;" horiz-adv-x="388" 
d="M164 0h-172l59 339h-43l17 95h43l59 332h172c80 0 130 -47 110 -160l-78 -446c-20 -115 -90 -160 -167 -160zM231 173l74 420c10 56 -5 76 -43 76h-51l-41 -235h54l-17 -95h-54l-42 -242h51c38 0 59 20 69 76z" />
    <glyph glyph-name="dcroat" unicode="&#x111;" horiz-adv-x="337" 
d="M252 0h-86l-1 46c-17 -22 -47 -54 -102 -54c-71 0 -75 52 -57 156l47 271c19 108 44 156 114 156c53 0 68 -28 77 -48l21 115h-115l12 71h115l10 53h100l-10 -53h34l-12 -71h-34zM180 163l43 241c10 56 5 76 -23 76s-39 -20 -49 -76l-43 -241c-10 -56 -5 -76 23 -76
s39 20 49 76z" />
    <glyph glyph-name="uni1E0A" unicode="&#x1e0a;" horiz-adv-x="386" 
d="M162 0h-172l135 766h172c80 0 130 -47 110 -160l-78 -446c-20 -115 -90 -160 -167 -160zM229 173l74 420c10 56 -5 76 -43 76h-51l-100 -572h51c38 0 59 20 69 76zM282 831c-32 0 -55 26 -49 60s38 59 70 59c33 0 54 -26 49 -59c-5 -32 -36 -60 -70 -60z" />
    <glyph glyph-name="uni1E0B" unicode="&#x1e0b;" horiz-adv-x="337" 
d="M253 0h-86l-1 46c-17 -22 -47 -54 -102 -54c-69 0 -76 49 -57 156l47 271c19 108 44 156 114 156c53 0 68 -28 77 -48l43 239h100zM181 163l43 241c10 56 5 76 -23 76s-39 -20 -49 -76l-43 -241c-10 -56 -5 -76 23 -76s39 20 49 76zM159 637c-32 0 -55 26 -49 60
s38 59 70 59c33 0 54 -26 49 -59c-5 -32 -36 -60 -70 -60z" />
    <glyph glyph-name="Eth" unicode="&#xd0;" horiz-adv-x="388" 
d="M164 0h-172l59 339h-43l17 95h43l59 332h172c80 0 130 -47 110 -160l-78 -446c-20 -115 -90 -160 -167 -160zM231 173l74 420c10 56 -5 76 -43 76h-51l-41 -235h54l-17 -95h-54l-42 -242h51c38 0 59 20 69 76z" />
    <glyph glyph-name="eth" unicode="&#xf0;" horiz-adv-x="335" 
d="M6 143l53 302c15 86 49 131 107 131c46 0 76 -28 81 -53c9 61 2 98 -17 120l-43 -37l-20 25l36 32c-21 11 -47 19 -70 25l33 80c55 -8 93 -21 118 -36l48 42l21 -25l-43 -37c46 -44 46 -126 24 -251l-56 -318c-17 -95 -69 -151 -163 -151s-126 56 -109 151zM178 143
l46 261c10 58 0 77 -24 77c-26 0 -39 -23 -47 -67l-47 -271c-7 -39 3 -56 26 -56s39 17 46 56z" />
    <glyph glyph-name="Egrave" unicode="&#xc8;" horiz-adv-x="341" 
d="M264 0h-274l135 766h274l-18 -97h-172l-41 -234h165l-17 -97h-165l-42 -241h172zM334 836h-73l-72 131h111z" />
    <glyph glyph-name="egrave" unicode="&#xe8;" horiz-adv-x="327" 
d="M284 187l-6 -35c-19 -111 -71 -160 -163 -160c-94 0 -128 51 -109 160l47 263c19 107 69 160 164 160s127 -52 108 -160l-31 -174h-172l-14 -77c-11 -61 -1 -76 23 -76c27 0 39 17 49 76l4 23h100zM211 335l12 69c10 56 5 76 -23 76s-39 -20 -49 -76l-12 -69h72zM284 637
h-73l-72 131h111z" />
    <glyph glyph-name="Eacute" unicode="&#xc9;" horiz-adv-x="341" 
d="M264 0h-274l135 766h274l-18 -97h-172l-41 -234h165l-17 -97h-165l-42 -241h172zM292 836h-73l80 131h111z" />
    <glyph glyph-name="eacute" unicode="&#xe9;" horiz-adv-x="327" 
d="M284 187l-6 -35c-19 -111 -71 -160 -163 -160c-94 0 -128 51 -109 160l47 263c19 107 69 160 164 160s127 -52 108 -160l-31 -174h-172l-14 -77c-11 -61 -1 -76 23 -76c27 0 39 17 49 76l4 23h100zM211 335l12 69c10 56 5 76 -23 76s-39 -20 -49 -76l-12 -69h72zM247 637
h-73l80 131h111z" />
    <glyph glyph-name="Ecircumflex" unicode="&#xca;" horiz-adv-x="341" 
d="M264 0h-274l135 766h274l-18 -97h-172l-41 -234h165l-17 -97h-165l-42 -241h172zM393 836h-78l-32 77l-53 -77h-81l100 141h90z" />
    <glyph glyph-name="ecircumflex" unicode="&#xea;" horiz-adv-x="327" 
d="M284 187l-6 -35c-19 -111 -71 -160 -163 -160c-94 0 -128 51 -109 160l47 263c19 107 69 160 164 160s127 -52 108 -160l-31 -174h-172l-14 -77c-11 -61 -1 -76 23 -76c27 0 39 17 49 76l4 23h100zM211 335l12 69c10 56 5 76 -23 76s-39 -20 -49 -76l-12 -69h72zM349 637
h-78l-32 77l-53 -77h-81l100 141h90z" />
    <glyph glyph-name="Edieresis" unicode="&#xcb;" horiz-adv-x="341" 
d="M264 0h-274l135 766h274l-18 -97h-172l-41 -234h165l-17 -97h-165l-42 -241h172zM186 826c-32 0 -55 26 -49 60s38 59 70 59c33 0 54 -26 49 -59c-5 -32 -36 -60 -70 -60zM357 826c-31 0 -55 23 -49 60c7 37 39 59 69 59c34 0 55 -26 50 -59c-6 -34 -37 -60 -70 -60z" />
    <glyph glyph-name="edieresis" unicode="&#xeb;" horiz-adv-x="327" 
d="M284 187l-6 -35c-19 -111 -71 -160 -163 -160c-94 0 -128 51 -109 160l47 263c19 107 69 160 164 160s127 -52 108 -160l-31 -174h-172l-14 -77c-11 -61 -1 -76 23 -76c27 0 39 17 49 76l4 23h100zM211 335l12 69c10 56 5 76 -23 76s-39 -20 -49 -76l-12 -69h72zM141 627
c-32 0 -55 26 -49 60s38 59 70 59c33 0 54 -26 49 -59c-5 -32 -36 -60 -70 -60zM312 627c-31 0 -55 23 -49 60c7 37 39 59 69 59c34 0 55 -26 50 -59c-6 -34 -37 -60 -70 -60z" />
    <glyph glyph-name="Emacron" unicode="&#x112;" horiz-adv-x="341" 
d="M264 0h-274l135 766h274l-18 -97h-172l-41 -234h165l-17 -97h-165l-42 -241h172zM402 836h-262l14 81h262z" />
    <glyph glyph-name="emacron" unicode="&#x113;" horiz-adv-x="327" 
d="M284 187l-6 -35c-19 -111 -71 -160 -163 -160c-94 0 -128 51 -109 160l47 263c19 107 69 160 164 160s127 -52 108 -160l-31 -174h-172l-14 -77c-11 -61 -1 -76 23 -76c27 0 39 17 49 76l4 23h100zM211 335l12 69c10 56 5 76 -23 76s-39 -20 -49 -76l-12 -69h72zM358 637
h-262l14 81h262z" />
    <glyph glyph-name="Ebreve" unicode="&#x114;" horiz-adv-x="341" 
d="M264 0h-274l135 766h274l-18 -97h-172l-41 -234h165l-17 -97h-165l-42 -241h172zM357 949h56c-16 -78 -61 -124 -139 -124s-108 46 -95 124h56c-4 -27 4 -53 51 -53s64 26 71 53z" />
    <glyph glyph-name="ebreve" unicode="&#x115;" horiz-adv-x="327" 
d="M284 187l-6 -35c-19 -111 -71 -160 -163 -160c-94 0 -128 51 -109 160l47 263c19 107 69 160 164 160s127 -52 108 -160l-31 -174h-172l-14 -77c-11 -61 -1 -76 23 -76c27 0 39 17 49 76l4 23h100zM211 335l12 69c10 56 5 76 -23 76s-39 -20 -49 -76l-12 -69h72zM308 750
h56c-16 -78 -61 -124 -139 -124s-108 46 -95 124h56c-4 -27 4 -53 51 -53s64 26 71 53z" />
    <glyph glyph-name="Edotaccent" unicode="&#x116;" horiz-adv-x="341" 
d="M264 0h-274l135 766h274l-18 -97h-172l-41 -234h165l-17 -97h-165l-42 -241h172zM278 831c-32 0 -55 26 -49 60s38 59 70 59c33 0 54 -26 49 -59c-5 -32 -36 -60 -70 -60z" />
    <glyph glyph-name="edotaccent" unicode="&#x117;" horiz-adv-x="327" 
d="M284 187l-6 -35c-19 -111 -71 -160 -163 -160c-94 0 -128 51 -109 160l47 263c19 107 69 160 164 160s127 -52 108 -160l-31 -174h-172l-14 -77c-11 -61 -1 -76 23 -76c27 0 39 17 49 76l4 23h100zM211 335l12 69c10 56 5 76 -23 76s-39 -20 -49 -76l-12 -69h72zM227 632
c-32 0 -55 26 -49 60s38 59 70 59c33 0 54 -26 49 -59c-5 -32 -36 -60 -70 -60z" />
    <glyph glyph-name="Eogonek" unicode="&#x118;" horiz-adv-x="341" 
d="M217 -156l-44 -52c-75 4 -117 54 -107 110c6 33 31 72 83 98h-159l135 766h274l-18 -97h-172l-41 -234h165l-17 -97h-165l-42 -241h172l-17 -97h-33c-43 -25 -69 -57 -74 -86c-5 -31 13 -59 60 -70z" />
    <glyph glyph-name="eogonek" unicode="&#x119;" horiz-adv-x="327" 
d="M183 -146l-44 -52c-76 4 -117 54 -107 110c5 29 23 58 55 82c-73 9 -98 60 -81 158l47 263c19 107 69 160 164 160s127 -52 108 -160l-31 -174h-172l-14 -77c-11 -61 -1 -76 24 -76c28 0 38 20 48 76l4 23h100l-6 -35c-13 -76 -44 -120 -82 -142c-42 -24 -68 -57 -73 -86
c-5 -31 13 -59 60 -70zM211 335l12 69c10 56 5 76 -23 76s-39 -20 -49 -76l-12 -69h72z" />
    <glyph glyph-name="Ecaron" unicode="&#x11a;" horiz-adv-x="341" 
d="M264 0h-274l135 766h274l-18 -97h-172l-41 -234h165l-17 -97h-165l-42 -241h172zM323 836h-90l-54 141h78l31 -77l54 77h81z" />
    <glyph glyph-name="ecaron" unicode="&#x11b;" horiz-adv-x="327" 
d="M284 187l-6 -35c-19 -111 -71 -160 -163 -160c-94 0 -128 51 -109 160l47 263c19 107 69 160 164 160s127 -52 108 -160l-31 -174h-172l-14 -77c-11 -61 -1 -76 23 -76c27 0 39 17 49 76l4 23h100zM211 335l12 69c10 56 5 76 -23 76s-39 -20 -49 -76l-12 -69h72zM274 637
h-90l-54 141h78l31 -77l54 77h81z" />
    <glyph glyph-name="uni1E1E" unicode="&#x1e1e;" horiz-adv-x="336" 
d="M92 0h-102l135 766h274l-18 -97h-172l-41 -234h165l-17 -97h-165zM278 831c-32 0 -55 26 -49 60s38 59 70 59c33 0 54 -26 49 -59c-5 -32 -36 -60 -70 -60z" />
    <glyph glyph-name="uni1E1F" unicode="&#x1e1f;" horiz-adv-x="233" 
d="M112 0h-100l83 474h-55l16 93h55l13 70c20 111 70 140 138 140c18 0 39 -2 51 -7l-14 -83c-7 1 -13 2 -20 2c-40 0 -51 -29 -60 -78l-8 -44h65l-16 -93h-65zM237 824c-32 0 -55 26 -49 60s38 59 70 59c33 0 54 -26 49 -59c-5 -32 -36 -60 -70 -60z" />
    <glyph glyph-name="Gcircumflex" unicode="&#x11c;" horiz-adv-x="390" 
d="M237 160l24 135h-68l17 97h170l-44 -245c-21 -118 -104 -160 -190 -160c-91 0 -156 47 -136 160l84 472c20 113 98 160 192 160c91 0 154 -45 134 -160l-21 -119h-102l18 106c10 56 -14 76 -47 76s-65 -20 -75 -76l-78 -446c-10 -56 14 -76 47 -76s65 20 75 76zM417 836
h-78l-32 77l-53 -77h-81l100 141h90z" />
    <glyph glyph-name="gcircumflex" unicode="&#x11d;" horiz-adv-x="334" 
d="M252 -4l-9 -48c-20 -108 -77 -150 -166 -150c-100 0 -133 52 -114 160l9 50c8 45 24 87 52 117c-4 10 -10 17 -7 37c4 23 19 40 50 64c-23 23 -36 64 -25 125l12 64c20 107 66 160 167 160c34 0 53 -6 68 -17h92l-10 -57l-47 2c10 -23 10 -38 3 -78l-11 -67
c-19 -114 -76 -157 -168 -157c-10 0 -19 0 -27 2c-9 -7 -14 -11 -15 -18c-3 -17 21 -18 49 -18c96 -1 117 -64 97 -171zM218 372l6 32c11 59 3 76 -23 76c-30 0 -39 -23 -49 -76l-6 -32c-11 -59 -3 -76 23 -76c30 0 39 23 49 76zM146 -39l4 25c11 67 13 86 -26 86
c-28 0 -42 -10 -52 -66l-7 -37c-11 -59 2 -76 30 -76c25 0 42 14 51 68zM353 637h-78l-32 77l-53 -77h-81l100 141h90z" />
    <glyph glyph-name="Gbreve" unicode="&#x11e;" horiz-adv-x="390" 
d="M237 160l24 135h-68l17 97h170l-44 -245c-21 -118 -104 -160 -190 -160c-91 0 -156 47 -136 160l84 472c20 113 98 160 192 160c91 0 154 -45 134 -160l-21 -119h-102l18 106c10 56 -14 76 -47 76s-65 -20 -75 -76l-78 -446c-10 -56 14 -76 47 -76s65 20 75 76zM376 949
h56c-16 -78 -61 -124 -139 -124s-108 46 -95 124h56c-4 -27 4 -53 51 -53s64 26 71 53z" />
    <glyph glyph-name="gbreve" unicode="&#x11f;" horiz-adv-x="334" 
d="M252 -4l-9 -48c-20 -108 -77 -150 -166 -150c-100 0 -133 52 -114 160l9 50c8 45 24 87 52 117c-4 10 -10 17 -7 37c4 23 19 40 50 64c-23 23 -36 64 -25 125l12 64c20 107 66 160 167 160c34 0 53 -6 68 -17h92l-10 -57l-47 2c10 -23 10 -38 3 -78l-11 -67
c-19 -114 -76 -157 -168 -157c-10 0 -19 0 -27 2c-9 -7 -14 -11 -15 -18c-3 -17 21 -18 49 -18c96 -1 117 -64 97 -171zM218 372l6 32c11 59 3 76 -23 76c-30 0 -39 -23 -49 -76l-6 -32c-11 -59 -3 -76 23 -76c30 0 39 23 49 76zM146 -39l4 25c11 67 13 86 -26 86
c-28 0 -42 -10 -52 -66l-7 -37c-11 -59 2 -76 30 -76c25 0 42 14 51 68zM313 750h56c-16 -78 -61 -124 -139 -124s-108 46 -95 124h56c-4 -27 4 -53 51 -53s64 26 71 53z" />
    <glyph glyph-name="Gdotaccent" unicode="&#x120;" horiz-adv-x="390" 
d="M237 160l24 135h-68l17 97h170l-44 -245c-21 -118 -104 -160 -190 -160c-91 0 -156 47 -136 160l84 472c20 113 98 160 192 160c91 0 154 -45 134 -160l-21 -119h-102l18 106c10 56 -14 76 -47 76s-65 -20 -75 -76l-78 -446c-10 -56 14 -76 47 -76s65 20 75 76zM294 831
c-32 0 -55 26 -49 60s38 59 70 59c33 0 54 -26 49 -59c-5 -32 -36 -60 -70 -60z" />
    <glyph glyph-name="gdotaccent" unicode="&#x121;" horiz-adv-x="334" 
d="M252 -4l-9 -48c-20 -108 -77 -150 -166 -150c-100 0 -133 52 -114 160l9 50c8 45 24 87 52 117c-4 10 -10 17 -7 37c4 23 19 40 50 64c-23 23 -36 64 -25 125l12 64c20 107 66 160 167 160c34 0 53 -6 68 -17h92l-10 -57l-47 2c10 -23 10 -38 3 -78l-11 -67
c-19 -114 -76 -157 -168 -157c-10 0 -19 0 -27 2c-9 -7 -14 -11 -15 -18c-3 -17 21 -18 49 -18c96 -1 117 -64 97 -171zM218 372l6 32c11 59 3 76 -23 76c-30 0 -39 -23 -49 -76l-6 -32c-11 -59 -3 -76 23 -76c30 0 39 23 49 76zM146 -39l4 25c11 67 13 86 -26 86
c-28 0 -42 -10 -52 -66l-7 -37c-11 -59 2 -76 30 -76c25 0 42 14 51 68zM231 632c-32 0 -55 26 -49 60s38 59 70 59c33 0 54 -26 49 -59c-5 -32 -36 -60 -70 -60z" />
    <glyph glyph-name="Gcommaaccent" unicode="&#x122;" horiz-adv-x="390" 
d="M237 160l24 135h-68l17 97h170l-44 -245c-21 -118 -104 -160 -190 -160c-91 0 -156 47 -136 160l84 472c20 113 98 160 192 160c91 0 154 -45 134 -160l-21 -119h-102l18 106c10 56 -14 76 -47 76s-65 -20 -75 -76l-78 -446c-10 -56 14 -76 47 -76s65 20 75 76zM106 -206
h-75l80 156h106z" />
    <glyph glyph-name="gcommaaccent" unicode="&#x123;" horiz-adv-x="334" 
d="M252 -4l-9 -48c-20 -108 -77 -150 -166 -150c-100 0 -133 52 -114 160l9 50c8 45 24 87 52 117c-4 10 -10 17 -7 37c4 23 19 40 50 64c-23 23 -36 64 -25 125l12 64c20 107 66 160 167 160c34 0 53 -6 68 -17h92l-10 -57l-47 2c10 -23 10 -38 3 -78l-11 -67
c-19 -114 -76 -157 -168 -157c-10 0 -19 0 -27 2c-9 -7 -14 -11 -15 -18c-3 -17 21 -18 49 -18c96 -1 117 -64 97 -171zM218 372l6 32c11 59 3 76 -23 76c-30 0 -39 -23 -49 -76l-6 -32c-11 -59 -3 -76 23 -76c30 0 39 23 49 76zM146 -39l4 25c11 67 13 86 -26 86
c-28 0 -42 -10 -52 -66l-7 -37c-11 -59 2 -76 30 -76c25 0 42 14 51 68zM278 793h75l-80 -156h-106z" />
    <glyph glyph-name="Hcircumflex" unicode="&#x124;" horiz-adv-x="396" 
d="M306 0h-102l59 338h-112l-59 -338h-102l135 766h102l-59 -331h112l59 331h102zM417 836h-78l-32 77l-53 -77h-81l100 141h90z" />
    <glyph glyph-name="hcircumflex" unicode="&#x125;" 
d="M256 0h-100l71 404c10 56 5 76 -23 76s-39 -20 -49 -76l-71 -404h-100l135 766h100l-43 -239c17 20 42 48 95 48c70 0 77 -48 58 -156zM301 818h-78l-32 77l-53 -77h-81l100 141h90z" />
    <glyph glyph-name="Hbar" unicode="&#x126;" horiz-adv-x="398" 
d="M307 0h-102l59 338h-112l-59 -338h-102l101 576h-40l14 81h40l20 109h102l-20 -109h112l20 109h102l-20 -109h40l-14 -81h-40zM281 435l25 141h-112l-25 -141h112z" />
    <glyph glyph-name="hbar" unicode="&#x127;" 
d="M256 0h-100l71 404c10 56 5 76 -23 76s-39 -20 -49 -76l-71 -404h-100l113 642h-34l12 71h34l10 53h100l-10 -53h115l-12 -71h-115l-21 -115c17 20 42 48 95 48c70 0 77 -48 58 -156z" />
    <glyph glyph-name="uni1E22" unicode="&#x1e22;" horiz-adv-x="396" 
d="M306 0h-102l59 338h-112l-59 -338h-102l135 766h102l-59 -331h112l59 331h102zM294 831c-32 0 -55 26 -49 60s38 59 70 59c33 0 54 -26 49 -59c-5 -32 -36 -60 -70 -60z" />
    <glyph glyph-name="uni1E23" unicode="&#x1e23;" 
d="M256 0h-100l71 404c10 56 5 76 -23 76s-39 -20 -49 -76l-71 -404h-100l135 766h100l-43 -239c17 20 42 48 95 48c70 0 77 -48 58 -156zM300 637c-32 0 -55 26 -49 60s38 59 70 59c33 0 54 -26 49 -59c-5 -32 -36 -60 -70 -60z" />
    <glyph glyph-name="Igrave" unicode="&#xcc;" horiz-adv-x="182" 
d="M92 0h-102l135 766h102zM235 836h-73l-72 131h111z" />
    <glyph glyph-name="igrave" unicode="&#xec;" horiz-adv-x="168" 
d="M84 0h-100l99 567h100zM197 637h-73l-72 131h111z" />
    <glyph glyph-name="Iacute" unicode="&#xcd;" horiz-adv-x="182" 
d="M92 0h-102l135 766h102zM212 836h-73l80 131h111z" />
    <glyph glyph-name="iacute" unicode="&#xed;" horiz-adv-x="168" 
d="M84 0h-100l99 567h100zM167 637h-73l80 131h111z" />
    <glyph glyph-name="Icircumflex" unicode="&#xce;" horiz-adv-x="182" 
d="M92 0h-102l135 766h102zM311 836h-78l-32 77l-53 -77h-81l100 141h90z" />
    <glyph glyph-name="icircumflex" unicode="&#xee;" horiz-adv-x="168" 
d="M84 0h-100l99 567h100zM268 637h-78l-32 77l-53 -77h-81l100 141h90z" />
    <glyph glyph-name="Idieresis" unicode="&#xcf;" horiz-adv-x="182" 
d="M92 0h-102l135 766h102zM102 826c-32 0 -55 26 -49 60s38 59 70 59c33 0 54 -26 49 -59c-5 -32 -36 -60 -70 -60zM273 826c-31 0 -55 23 -49 60c7 37 39 59 69 59c34 0 55 -26 50 -59c-6 -34 -37 -60 -70 -60z" />
    <glyph glyph-name="idieresis" unicode="&#xef;" horiz-adv-x="168" 
d="M84 0h-100l99 567h100zM59 627c-32 0 -55 26 -49 60s38 59 70 59c33 0 54 -26 49 -59c-5 -32 -36 -60 -70 -60zM230 627c-31 0 -55 23 -49 60c7 37 39 59 69 59c34 0 55 -26 50 -59c-6 -34 -37 -60 -70 -60z" />
    <glyph glyph-name="Itilde" unicode="&#x128;" horiz-adv-x="182" 
d="M92 0h-102l135 766h102zM264 931h65c-12 -53 -41 -95 -89 -95c-33 0 -49 19 -82 19c-8 0 -22 -1 -27 -20h-65c11 53 40 95 88 95c32 0 51 -19 80 -19c9 0 24 0 30 20z" />
    <glyph glyph-name="itilde" unicode="&#x129;" horiz-adv-x="168" 
d="M84 0h-100l99 567h100zM221 732h65c-12 -53 -41 -95 -89 -95c-33 0 -49 19 -82 19c-8 0 -22 -1 -27 -20h-65c11 53 40 95 88 95c32 0 51 -19 80 -19c9 0 24 0 30 20z" />
    <glyph glyph-name="Imacron" unicode="&#x12a;" horiz-adv-x="182" 
d="M92 0h-102l135 766h102zM320 836h-262l14 81h262z" />
    <glyph glyph-name="imacron" unicode="&#x12b;" horiz-adv-x="168" 
d="M84 0h-100l99 567h100zM277 637h-262l14 81h262z" />
    <glyph glyph-name="Ibreve" unicode="&#x12c;" horiz-adv-x="182" 
d="M92 0h-102l135 766h102zM270 949h56c-16 -78 -61 -124 -139 -124s-108 46 -95 124h56c-4 -27 4 -53 51 -53s64 26 71 53z" />
    <glyph glyph-name="ibreve" unicode="&#x12d;" horiz-adv-x="168" 
d="M84 0h-100l99 567h100zM227 750h56c-16 -78 -61 -124 -139 -124s-108 46 -95 124h56c-4 -27 4 -53 51 -53s64 26 71 53z" />
    <glyph glyph-name="Iogonek" unicode="&#x12e;" horiz-adv-x="182" 
d="M78 -156l-44 -52c-75 4 -116 54 -106 110c5 26 22 60 59 85l138 779h102l-135 -766c-43 -25 -69 -57 -74 -86c-5 -31 13 -59 60 -70z" />
    <glyph glyph-name="iogonek" unicode="&#x12f;" horiz-adv-x="168" 
d="M69 -156l-44 -52c-75 4 -116 54 -106 110c5 27 23 61 63 87l101 578h100l-99 -567c-44 -25 -70 -57 -75 -86c-5 -31 13 -59 60 -70zM144 625c-35 0 -58 28 -52 63s39 63 74 63s58 -28 52 -63s-39 -63 -74 -63z" />
    <glyph glyph-name="Idotaccent" unicode="&#x130;" horiz-adv-x="182" 
d="M92 0h-102l135 766h102zM187 831c-32 0 -55 26 -49 60s38 59 70 59c33 0 54 -26 49 -59c-5 -32 -36 -60 -70 -60z" />
    <glyph glyph-name="dotlessi" unicode="&#x131;" horiz-adv-x="168" 
d="M84 0h-100l99 567h100z" />
    <glyph glyph-name="IJ" unicode="&#x132;" horiz-adv-x="364" 
d="M92 0h-102l135 766h102zM83 -192h-3l17 97h3c28 0 58 20 68 76l139 785h102l-141 -798c-20 -115 -101 -160 -185 -160z" />
    <glyph glyph-name="ij" unicode="&#x133;" horiz-adv-x="336" 
d="M84 0h-100l99 567h100zM144 625c-35 0 -58 28 -52 63s39 63 74 63s58 -28 52 -63s-39 -63 -74 -63zM51 -203l14 80c7 -1 10 -1 16 -1c42 0 53 27 62 77l108 614h100l-110 -625c-19 -107 -59 -150 -147 -150c-19 0 -31 2 -43 5zM312 625c-35 0 -58 28 -52 63s39 63 74 63
s58 -28 52 -63s-39 -63 -74 -63z" />
    <glyph glyph-name="Jcircumflex" unicode="&#x134;" horiz-adv-x="182" 
d="M-99 -192h-3l17 97h3c28 0 58 20 68 76l139 785h102l-141 -798c-20 -115 -101 -160 -185 -160zM311 836h-78l-32 77l-53 -77h-81l100 141h90z" />
    <glyph glyph-name="jcircumflex" unicode="&#x135;" horiz-adv-x="168" 
d="M-117 -203l14 80c7 -1 10 -1 16 -1c42 0 53 27 62 77l108 614h100l-110 -625c-19 -107 -59 -150 -147 -150c-19 0 -31 2 -43 5zM268 637h-78l-32 77l-53 -77h-81l100 141h90z" />
    <glyph glyph-name="dotlessj" unicode="&#x237;" horiz-adv-x="168" 
d="M-117 -203l14 80c7 -1 10 -1 16 -1c42 0 53 27 62 77l108 614h100l-110 -625c-19 -107 -59 -150 -147 -150c-19 0 -31 2 -43 5z" />
    <glyph glyph-name="Kcommaaccent" unicode="&#x136;" horiz-adv-x="377" 
d="M336 0h-102l-74 383l190 383h102l-183 -380zM92 0h-102l135 766h102zM106 -206h-75l80 156h106z" />
    <glyph glyph-name="kcommaaccent" unicode="&#x137;" 
d="M288 0h-101l-51 290l150 277h102l-146 -274zM84 0h-100l135 766h100zM85 -206h-75l80 156h106z" />
    <glyph glyph-name="kgreenlandic" unicode="&#x138;" 
d="M288 0h-101l-51 290l150 277h102l-146 -274zM84 0h-100l99 567h100z" />
    <glyph glyph-name="Lslash" unicode="&#x141;" horiz-adv-x="309" 
d="M252 0h-224l44 250l-44 -23l-31 80l93 47l73 412h102l-63 -355l64 33l29 -80l-111 -57l-37 -210h122z" />
    <glyph glyph-name="lslash" unicode="&#x142;" horiz-adv-x="248" 
d="M124 0h-100l45 256l-36 -18l-30 80l84 42l72 406h100l-62 -351l37 19l29 -80l-85 -43z" />
    <glyph glyph-name="Lacute" unicode="&#x139;" horiz-adv-x="271" 
d="M214 0h-224l135 766h102l-118 -669h122zM219 836h-73l80 131h111z" />
    <glyph glyph-name="lacute" unicode="&#x13a;" horiz-adv-x="170" 
d="M85 0h-100l135 766h100zM210 837h-73l80 131h111z" />
    <glyph glyph-name="Lcommaaccent" unicode="&#x13b;" horiz-adv-x="271" 
d="M213 0h-224l135 766h102l-118 -669h122zM52 -206h-75l80 156h106z" />
    <glyph glyph-name="lcommaaccent" unicode="&#x13c;" horiz-adv-x="170" 
d="M85 0h-100l135 766h100zM-5 -206h-75l80 156h106z" />
    <glyph glyph-name="Lcaron" unicode="&#x13d;" horiz-adv-x="329" 
d="M306 538h-74l76 228h113zM214 0h-224l135 766h102l-118 -669h122z" />
    <glyph glyph-name="lcaron" unicode="&#x13e;" horiz-adv-x="230" 
d="M273 538h-74l76 228h113zM85 0h-100l135 766h100z" />
    <glyph glyph-name="Ldot" unicode="&#x13f;" horiz-adv-x="317" 
d="M214 0h-224l135 766h102l-118 -669h122zM248 301c-32 0 -58 24 -51 63c6 34 38 63 74 63c35 0 58 -28 52 -63c-7 -36 -41 -63 -75 -63z" />
    <glyph glyph-name="ldot" unicode="&#x140;" horiz-adv-x="276" 
d="M85 0h-100l135 766h100zM218 261c-32 0 -58 24 -51 63c6 34 38 63 74 63c35 0 58 -28 52 -63c-7 -36 -41 -63 -75 -63z" />
    <glyph glyph-name="uni1E40" unicode="&#x1e40;" horiz-adv-x="580" 
d="M490 0h-102l103 573l-205 -573h-92l-4 572l-98 -572h-102l135 766h165l-10 -534l180 534h165zM386 831c-32 0 -55 26 -49 60s38 59 70 59c33 0 54 -26 49 -59c-5 -32 -36 -60 -70 -60z" />
    <glyph glyph-name="uni1E41" unicode="&#x1e41;" horiz-adv-x="511" 
d="M428 0h-100l71 404c10 56 5 76 -23 76s-39 -20 -49 -76l-71 -404h-100l71 404c10 56 5 76 -23 76s-39 -20 -49 -76l-71 -404h-100l99 567h86l1 -46c17 22 47 54 102 54c45 0 64 -21 66 -66c26 39 57 66 107 66c70 0 74 -53 56 -156zM318 632c-32 0 -55 26 -49 60
s38 59 70 59c33 0 54 -26 49 -59c-5 -32 -36 -60 -70 -60z" />
    <glyph glyph-name="Ntilde" unicode="&#xd1;" horiz-adv-x="448" 
d="M358 0h-133l-45 511l-88 -511h-102l135 766h128l48 -520l90 520h102zM409 931h65c-12 -53 -41 -95 -89 -95c-33 0 -49 19 -82 19c-8 0 -22 -1 -27 -20h-65c11 53 40 95 88 95c32 0 51 -19 80 -19c9 0 24 0 30 20z" />
    <glyph glyph-name="ntilde" unicode="&#xf1;" 
d="M256 0h-100l71 404c10 56 5 76 -23 76s-39 -20 -49 -76l-71 -404h-100l99 567h86l1 -46c17 22 47 54 102 54c71 0 75 -52 57 -156zM307 732h65c-12 -53 -41 -95 -89 -95c-33 0 -49 19 -82 19c-8 0 -22 -1 -27 -20h-65c11 53 40 95 88 95c32 0 51 -19 80 -19
c9 0 24 0 30 20z" />
    <glyph glyph-name="Nacute" unicode="&#x143;" horiz-adv-x="448" 
d="M358 0h-133l-45 511l-88 -511h-102l135 766h128l48 -520l90 520h102zM360 836h-73l80 131h111z" />
    <glyph glyph-name="nacute" unicode="&#x144;" 
d="M256 0h-100l71 404c10 56 5 76 -23 76s-39 -20 -49 -76l-71 -404h-100l99 567h86l1 -46c17 22 47 54 102 54c71 0 75 -52 57 -156zM247 637h-73l80 131h111z" />
    <glyph glyph-name="Ncommaaccent" unicode="&#x145;" horiz-adv-x="448" 
d="M358 0h-133l-45 511l-88 -511h-102l135 766h128l48 -520l90 520h102zM133 -206h-75l80 156h106z" />
    <glyph glyph-name="ncommaaccent" unicode="&#x146;" 
d="M256 0h-100l71 404c10 56 5 76 -23 76s-39 -20 -49 -76l-71 -404h-100l99 567h86l1 -46c17 22 47 54 102 54c71 0 75 -52 57 -156zM78 -206h-75l80 156h106z" />
    <glyph glyph-name="Ncaron" unicode="&#x147;" horiz-adv-x="448" 
d="M358 0h-133l-45 511l-88 -511h-102l135 766h128l48 -520l90 520h102zM377 836h-90l-54 141h78l31 -77l54 77h81z" />
    <glyph glyph-name="ncaron" unicode="&#x148;" 
d="M256 0h-100l71 404c10 56 5 76 -23 76s-39 -20 -49 -76l-71 -404h-100l99 567h86l1 -46c17 22 47 54 102 54c71 0 75 -52 57 -156zM277 637h-90l-54 141h78l31 -77l54 77h81z" />
    <glyph glyph-name="Eng" unicode="&#x14a;" horiz-adv-x="448" 
d="M164 -199h-3l18 97h3c28 0 59 20 69 76l6 35l-77 502l-88 -511h-102l135 766h128l57 -471l81 471h102l-142 -805c-20 -115 -102 -160 -187 -160z" />
    <glyph glyph-name="eng" unicode="&#x14b;" 
d="M54 -203l12 70c7 -1 10 -1 16 -1c42 0 54 24 63 77l82 461c10 56 5 76 -23 76s-39 -20 -49 -76l-71 -404h-100l99 567h86l1 -46c17 22 47 54 102 54c69 0 76 -49 57 -156l-84 -477c-19 -107 -59 -150 -148 -150c-19 0 -31 2 -43 5z" />
    <glyph glyph-name="Ograve" unicode="&#xd2;" horiz-adv-x="386" 
d="M10 147l84 472c20 113 98 160 192 160c98 0 143 -52 124 -160l-84 -472c-20 -115 -101 -160 -185 -160c-86 0 -151 47 -131 160zM227 160l78 446c10 56 -14 76 -42 76s-60 -20 -70 -76l-78 -446c-10 -56 14 -76 42 -76s60 20 70 76zM339 836h-73l-72 131h111z" />
    <glyph glyph-name="ograve" unicode="&#xf2;" horiz-adv-x="332" 
d="M325 415l-47 -263c-20 -111 -71 -160 -163 -160c-94 0 -128 51 -109 160l47 263c19 107 69 160 164 160s127 -52 108 -160zM180 164l43 240c10 56 5 76 -23 76s-39 -20 -49 -76l-43 -240c-10 -56 -4 -76 24 -76s38 20 48 76zM284 637h-73l-72 131h111z" />
    <glyph glyph-name="Oacute" unicode="&#xd3;" horiz-adv-x="386" 
d="M10 147l84 472c20 113 98 160 192 160c98 0 143 -52 124 -160l-84 -472c-20 -115 -101 -160 -185 -160c-86 0 -151 47 -131 160zM227 160l78 446c10 56 -14 76 -42 76s-60 -20 -70 -76l-78 -446c-10 -56 14 -76 42 -76s60 20 70 76zM319 836h-73l80 131h111z" />
    <glyph glyph-name="oacute" unicode="&#xf3;" horiz-adv-x="332" 
d="M325 415l-47 -263c-20 -111 -71 -160 -163 -160c-94 0 -128 51 -109 160l47 263c19 107 69 160 164 160s127 -52 108 -160zM180 164l43 240c10 56 5 76 -23 76s-39 -20 -49 -76l-43 -240c-10 -56 -4 -76 24 -76s38 20 48 76zM247 637h-73l80 131h111z" />
    <glyph glyph-name="Ocircumflex" unicode="&#xd4;" horiz-adv-x="386" 
d="M10 147l84 472c20 113 98 160 192 160c98 0 143 -52 124 -160l-84 -472c-20 -115 -101 -160 -185 -160c-86 0 -151 47 -131 160zM227 160l78 446c10 56 -14 76 -42 76s-60 -20 -70 -76l-78 -446c-10 -56 14 -76 42 -76s60 20 70 76zM412 836h-78l-32 77l-53 -77h-81
l100 141h90z" />
    <glyph glyph-name="ocircumflex" unicode="&#xf4;" horiz-adv-x="332" 
d="M325 415l-47 -263c-20 -111 -71 -160 -163 -160c-94 0 -128 51 -109 160l47 263c19 107 69 160 164 160s127 -52 108 -160zM180 164l43 240c10 56 5 76 -23 76s-39 -20 -49 -76l-43 -240c-10 -56 -4 -76 24 -76s38 20 48 76zM350 637h-78l-32 77l-53 -77h-81l100 141h90z
" />
    <glyph glyph-name="Otilde" unicode="&#xd5;" horiz-adv-x="386" 
d="M10 147l84 472c20 113 98 160 192 160c98 0 143 -52 124 -160l-84 -472c-20 -115 -101 -160 -185 -160c-86 0 -151 47 -131 160zM227 160l78 446c10 56 -14 76 -42 76s-60 -20 -70 -76l-78 -446c-10 -56 14 -76 42 -76s60 20 70 76zM365 931h65c-12 -53 -41 -95 -89 -95
c-33 0 -49 19 -82 19c-8 0 -22 -1 -27 -20h-65c11 53 40 95 88 95c32 0 51 -19 80 -19c9 0 24 0 30 20z" />
    <glyph glyph-name="otilde" unicode="&#xf5;" horiz-adv-x="332" 
d="M325 415l-47 -263c-20 -111 -71 -160 -163 -160c-94 0 -128 51 -109 160l47 263c19 107 69 160 164 160s127 -52 108 -160zM180 164l43 240c10 56 5 76 -23 76s-39 -20 -49 -76l-43 -240c-10 -56 -4 -76 24 -76s38 20 48 76zM303 732h65c-12 -53 -41 -95 -89 -95
c-33 0 -49 19 -82 19c-8 0 -22 -1 -27 -20h-65c11 53 40 95 88 95c32 0 51 -19 80 -19c9 0 24 0 30 20z" />
    <glyph glyph-name="Odieresis" unicode="&#xd6;" horiz-adv-x="386" 
d="M10 147l84 472c20 113 98 160 192 160c98 0 143 -52 124 -160l-84 -472c-20 -115 -101 -160 -185 -160c-86 0 -151 47 -131 160zM227 160l78 446c10 56 -14 76 -42 76s-60 -20 -70 -76l-78 -446c-10 -56 14 -76 42 -76s60 20 70 76zM203 826c-32 0 -55 26 -49 60
s38 59 70 59c33 0 54 -26 49 -59c-5 -32 -36 -60 -70 -60zM374 826c-31 0 -55 23 -49 60c7 37 39 59 69 59c34 0 55 -26 50 -59c-6 -34 -37 -60 -70 -60z" />
    <glyph glyph-name="odieresis" unicode="&#xf6;" horiz-adv-x="332" 
d="M325 415l-47 -263c-20 -111 -71 -160 -163 -160c-94 0 -128 51 -109 160l47 263c19 107 69 160 164 160s127 -52 108 -160zM180 164l43 240c10 56 5 76 -23 76s-39 -20 -49 -76l-43 -240c-10 -56 -4 -76 24 -76s38 20 48 76zM141 627c-32 0 -55 26 -49 60s38 59 70 59
c33 0 54 -26 49 -59c-5 -32 -36 -60 -70 -60zM312 627c-31 0 -55 23 -49 60c7 37 39 59 69 59c34 0 55 -26 50 -59c-6 -34 -37 -60 -70 -60z" />
    <glyph glyph-name="Omacron" unicode="&#x14c;" horiz-adv-x="386" 
d="M10 147l84 472c20 113 98 160 192 160c98 0 143 -52 124 -160l-84 -472c-20 -115 -101 -160 -185 -160c-86 0 -151 47 -131 160zM227 160l78 446c10 56 -14 76 -42 76s-60 -20 -70 -76l-78 -446c-10 -56 14 -76 42 -76s60 20 70 76zM421 836h-262l14 81h262z" />
    <glyph glyph-name="omacron" unicode="&#x14d;" horiz-adv-x="332" 
d="M325 415l-47 -263c-20 -111 -71 -160 -163 -160c-94 0 -128 51 -109 160l47 263c19 107 69 160 164 160s127 -52 108 -160zM180 164l43 240c10 56 5 76 -23 76s-39 -20 -49 -76l-43 -240c-10 -56 -4 -76 24 -76s38 20 48 76zM359 637h-262l14 81h262z" />
    <glyph glyph-name="Obreve" unicode="&#x14e;" horiz-adv-x="386" 
d="M10 147l84 472c20 113 98 160 192 160c98 0 143 -52 124 -160l-84 -472c-20 -115 -101 -160 -185 -160c-86 0 -151 47 -131 160zM227 160l78 446c10 56 -14 76 -42 76s-60 -20 -70 -76l-78 -446c-10 -56 14 -76 42 -76s60 20 70 76zM371 949h56
c-16 -78 -61 -124 -139 -124s-108 46 -95 124h56c-4 -27 4 -53 51 -53s64 26 71 53z" />
    <glyph glyph-name="obreve" unicode="&#x14f;" horiz-adv-x="332" 
d="M325 415l-47 -263c-20 -111 -71 -160 -163 -160c-94 0 -128 51 -109 160l47 263c19 107 69 160 164 160s127 -52 108 -160zM180 164l43 240c10 56 5 76 -23 76s-39 -20 -49 -76l-43 -240c-10 -56 -4 -76 24 -76s38 20 48 76zM309 750h56c-16 -78 -61 -124 -139 -124
s-108 46 -95 124h56c-4 -27 4 -53 51 -53s64 26 71 53z" />
    <glyph glyph-name="Ohungarumlaut" unicode="&#x150;" horiz-adv-x="386" 
d="M10 147l84 472c20 113 98 160 192 160c98 0 143 -52 124 -160l-84 -472c-20 -115 -101 -160 -185 -160c-86 0 -151 47 -131 160zM227 160l78 446c10 56 -14 76 -42 76s-60 -20 -70 -76l-78 -446c-10 -56 14 -76 42 -76s60 20 70 76zM252 836h-83l68 135h101zM389 836h-83
l68 135h101z" />
    <glyph glyph-name="ohungarumlaut" unicode="&#x151;" horiz-adv-x="332" 
d="M325 415l-47 -263c-20 -111 -71 -160 -163 -160c-94 0 -128 51 -109 160l47 263c19 107 69 160 164 160s127 -52 108 -160zM180 164l43 240c10 56 5 76 -23 76s-39 -20 -49 -76l-43 -240c-10 -56 -4 -76 24 -76s38 20 48 76zM188 637h-83l68 135h101zM325 637h-83l68 135
h101z" />
    <glyph glyph-name="Oslash" unicode="&#xd8;" horiz-adv-x="386" 
d="M86 -53h-37l18 55c-44 22 -70 68 -56 145l84 472c20 113 98 160 192 160c13 0 26 -1 37 -3l15 42h37l-17 -52c46 -21 66 -68 52 -147l-84 -472c-21 -118 -103 -160 -186 -160c-13 0 -28 1 -40 4zM106 102l184 571c-7 6 -16 9 -26 9c-28 0 -60 -20 -70 -76zM228 160
l85 483l-180 -553c8 -4 16 -6 25 -6c28 0 60 20 70 76z" />
    <glyph glyph-name="oslash" unicode="&#xf8;" horiz-adv-x="332" 
d="M72 -53h-31l18 53c-50 19 -67 69 -52 152l47 263c20 114 76 160 163 160c13 0 22 -1 31 -2l14 43h31l-17 -50c49 -19 65 -68 50 -151l-47 -263c-20 -111 -71 -160 -160 -160c-13 0 -24 1 -32 2zM98 101l118 376c-4 2 -9 3 -15 3c-28 0 -39 -20 -49 -76zM181 164l50 284
l-112 -358c3 -2 8 -2 13 -2c28 0 39 18 49 76z" />
    <glyph glyph-name="Oslashacute" unicode="&#x1fe;" horiz-adv-x="387" 
d="M86 -53h-37l18 55c-44 22 -70 68 -56 145l84 472c20 113 98 160 192 160c13 0 26 -1 37 -3l15 42h37l-17 -52c46 -21 66 -68 52 -147l-84 -472c-21 -118 -103 -160 -186 -160c-13 0 -28 1 -40 4zM106 102l184 571c-7 6 -16 9 -26 9c-28 0 -60 -20 -70 -76zM228 160
l85 483l-180 -553c8 -4 16 -6 25 -6c28 0 60 20 70 76zM300 836h-73l80 131h111z" />
    <glyph glyph-name="oslashacute" unicode="&#x1ff;" horiz-adv-x="333" 
d="M72 -53h-31l18 53c-50 19 -67 69 -52 152l47 263c20 114 76 160 163 160c13 0 22 -1 31 -2l14 43h31l-17 -50c49 -19 65 -68 50 -151l-47 -263c-20 -111 -71 -160 -160 -160c-13 0 -24 1 -32 2zM98 101l118 376c-4 2 -9 3 -15 3c-28 0 -39 -20 -49 -76zM181 164l50 284
l-112 -358c3 -2 8 -2 13 -2c28 0 39 18 49 76zM238 637h-73l80 131h111z" />
    <glyph glyph-name="OE" unicode="&#x152;" horiz-adv-x="550" 
d="M473 0h-258c-23 -9 -49 -13 -74 -13c-86 0 -151 47 -131 160l84 472c20 113 99 160 191 160c30 0 52 -5 72 -13h251l-18 -97h-172l-41 -234h165l-17 -97h-165l-42 -241h172zM225 152l80 454c10 56 -14 76 -42 76s-60 -20 -70 -76l-78 -446c-10 -56 14 -76 42 -76
c26 0 59 17 68 68z" />
    <glyph glyph-name="oe" unicode="&#x153;" horiz-adv-x="499" 
d="M456 187l-6 -35c-19 -111 -71 -160 -162 -160c-37 0 -64 8 -82 33c-25 -25 -56 -33 -92 -33c-93 0 -127 52 -108 160l47 263c19 108 71 160 164 160c36 0 63 -8 80 -33c26 25 57 33 94 33c93 0 125 -52 106 -160l-31 -174h-172l-16 -89c-8 -45 -2 -64 26 -64s38 20 48 76
l4 23h100zM178 152l47 264c8 47 1 64 -25 64c-28 0 -39 -20 -49 -76l-43 -240c-9 -52 -6 -76 24 -76c25 0 38 17 46 64zM383 335l12 69c10 56 5 76 -23 76c-26 0 -39 -18 -47 -65l-14 -80h72z" />
    <glyph glyph-name="uni1E56" unicode="&#x1e56;" horiz-adv-x="371" 
d="M92 0h-102l135 766h169c74 0 134 -41 113 -160l-23 -131c-20 -115 -87 -160 -164 -160h-73zM285 488l18 105c9 53 -2 76 -43 76h-51l-45 -257h51c38 0 60 20 70 76zM277 831c-32 0 -55 26 -49 60s38 59 70 59c33 0 54 -26 49 -59c-5 -32 -36 -60 -70 -60z" />
    <glyph glyph-name="uni1E57" unicode="&#x1e57;" horiz-adv-x="337" 
d="M48 -199h-99l134 766h86l1 -46c17 22 47 54 102 54c71 0 75 -52 57 -156l-47 -271c-19 -108 -44 -156 -114 -156c-53 0 -68 28 -77 48zM184 163l43 241c10 56 5 76 -23 76s-39 -20 -49 -76l-43 -241c-10 -56 -5 -76 23 -76s39 20 49 76zM229 632c-32 0 -55 26 -49 60
s38 59 70 59c33 0 54 -26 49 -59c-5 -32 -36 -60 -70 -60z" />
    <glyph glyph-name="Thorn" unicode="&#xde;" horiz-adv-x="368" 
d="M92 0h-102l135 766h102l-29 -163h63c87 0 138 -45 116 -170l-17 -98c-22 -125 -85 -170 -166 -170h-73zM258 338l16 92c10 56 -4 76 -42 76h-51l-43 -244h51c38 0 59 20 69 76z" />
    <glyph glyph-name="thorn" unicode="&#xfe;" horiz-adv-x="337" 
d="M48 -199h-99l170 965h100l-42 -238c16 20 41 47 94 47c70 0 77 -47 58 -156l-47 -271c-19 -108 -44 -156 -114 -156c-53 0 -68 28 -77 48zM184 163l43 241c10 56 5 76 -23 76s-39 -20 -49 -76l-43 -241c-10 -56 -5 -76 23 -76s39 20 49 76z" />
    <glyph glyph-name="Racute" unicode="&#x154;" horiz-adv-x="376" 
d="M321 0h-102l-33 315h-39l-55 -315h-102l135 766h170c77 0 132 -45 112 -160l-21 -123c-12 -70 -38 -122 -100 -146zM285 488l18 105c9 53 -2 76 -43 76h-51l-45 -257h51c38 0 60 20 70 76zM301 836h-73l80 131h111z" />
    <glyph glyph-name="racute" unicode="&#x155;" horiz-adv-x="264" 
d="M84 0h-100l99 567h87v-46c12 18 47 53 95 53c16 0 36 -4 46 -12l-28 -103c-19 9 -40 14 -57 14c-36 0 -64 -25 -75 -90zM217 637h-73l80 131h111z" />
    <glyph glyph-name="Rcommaaccent" unicode="&#x156;" horiz-adv-x="376" 
d="M321 0h-102l-33 315h-39l-55 -315h-102l135 766h170c77 0 132 -45 112 -160l-21 -123c-12 -70 -38 -122 -100 -146zM285 488l18 105c9 53 -2 76 -43 76h-51l-45 -257h51c38 0 60 20 70 76zM106 -206h-75l80 156h106z" />
    <glyph glyph-name="rcommaaccent" unicode="&#x157;" horiz-adv-x="264" 
d="M84 0h-100l99 567h87v-46c12 18 47 53 95 53c16 0 36 -4 46 -12l-28 -103c-19 9 -40 14 -57 14c-36 0 -64 -25 -75 -90zM9 -206h-75l80 156h106z" />
    <glyph glyph-name="Rcaron" unicode="&#x158;" horiz-adv-x="376" 
d="M321 0h-102l-33 315h-39l-55 -315h-102l135 766h170c77 0 132 -45 112 -160l-21 -123c-12 -70 -38 -122 -100 -146zM285 488l18 105c9 53 -2 76 -43 76h-51l-45 -257h51c38 0 60 20 70 76zM328 836h-90l-54 141h78l31 -77l54 77h81z" />
    <glyph glyph-name="rcaron" unicode="&#x159;" horiz-adv-x="264" 
d="M84 0h-100l99 567h87v-46c12 18 47 53 95 53c16 0 36 -4 46 -12l-28 -103c-19 9 -40 14 -57 14c-36 0 -64 -25 -75 -90zM249 637h-90l-54 141h78l31 -77l54 77h81z" />
    <glyph glyph-name="Scaron" unicode="&#x160;" horiz-adv-x="371" 
d="M336 244l-18 -97c-20 -108 -91 -160 -185 -160c-99 0 -150 57 -131 160l20 109h102l-17 -96c-10 -56 14 -76 42 -76s60 20 70 76l11 63c15 85 -187 155 -161 300l17 96c20 113 99 160 191 160c94 0 145 -49 125 -160l-22 -120h-102l19 107c10 56 -14 76 -42 76
s-60 -20 -70 -76l-11 -64c-20 -116 188 -155 162 -298zM329 836h-90l-54 141h78l31 -77l54 77h81z" />
    <glyph glyph-name="scaron" unicode="&#x161;" horiz-adv-x="323" 
d="M86 187c-5 -24 -7 -44 -7 -58c0 -30 10 -42 32 -42c30 0 44 22 49 50c22 121 -164 105 -131 292c17 95 73 146 169 146c97 0 131 -52 111 -160l-7 -37h-100l5 26c12 63 -2 76 -27 76c-35 0 -45 -25 -50 -51c-24 -136 164 -100 130 -291c-17 -95 -71 -146 -169 -146
c-78 0 -114 33 -114 113c0 23 3 50 9 82h100zM254 637h-90l-54 141h78l31 -77l54 77h81z" />
    <glyph glyph-name="Scommaaccent" unicode="&#x218;" horiz-adv-x="371" 
d="M336 244l-18 -97c-20 -108 -91 -160 -185 -160c-99 0 -150 57 -131 160l20 109h102l-17 -96c-10 -56 14 -76 42 -76s60 20 70 76l11 63c15 85 -187 155 -161 300l17 96c20 113 99 160 191 160c94 0 145 -49 125 -160l-22 -120h-102l19 107c10 56 -14 76 -42 76
s-60 -20 -70 -76l-11 -64c-20 -116 188 -155 162 -298zM101 -206h-75l80 156h106z" />
    <glyph glyph-name="scommaaccent" unicode="&#x219;" horiz-adv-x="323" 
d="M86 187c-5 -24 -7 -44 -7 -58c0 -30 10 -42 32 -42c30 0 44 22 49 50c22 121 -164 105 -131 292c17 95 73 146 169 146c97 0 131 -52 111 -160l-7 -37h-100l5 26c12 63 -2 76 -27 76c-35 0 -45 -25 -50 -51c-24 -136 164 -100 130 -291c-17 -95 -71 -146 -169 -146
c-78 0 -114 33 -114 113c0 23 3 50 9 82h100zM59 -206h-75l80 156h106z" />
    <glyph glyph-name="Scedilla" unicode="&#x15e;" horiz-adv-x="371" 
d="M26 -176l25 56c6 -4 19 -9 33 -9c25 0 41 15 44 32c3 15 -4 30 -35 30c-3 0 -6 0 -10 -1l24 57c-81 9 -122 64 -105 158l20 109h102l-17 -96c-10 -56 14 -76 42 -76s60 20 70 76l11 63c15 85 -187 155 -161 300l17 96c20 113 99 160 191 160c94 0 145 -49 125 -160
l-22 -120h-102l19 107c10 56 -14 76 -42 76s-60 -20 -70 -76l-11 -64c-20 -116 188 -155 162 -298l-18 -97c-18 -98 -72 -141 -140 -155l-17 -38c43 0 61 -32 55 -65c-7 -38 -45 -79 -116 -79c-30 0 -59 7 -74 14z" />
    <glyph glyph-name="scedilla" unicode="&#x15f;" horiz-adv-x="322" 
d="M-5 -176l25 56c6 -4 19 -9 33 -9c25 0 41 15 44 32c3 15 -4 30 -35 30c-3 0 -6 0 -10 -1l25 62c-76 10 -99 58 -83 156l6 37h100l-4 -24c-8 -48 -5 -76 29 -76c30 0 44 22 49 50c22 121 -164 105 -131 292c17 95 73 146 169 146c97 0 131 -52 111 -160l-7 -37h-100l5 26
c12 63 -2 76 -27 76c-35 0 -45 -25 -50 -51c-24 -136 164 -100 130 -291c-14 -79 -54 -128 -124 -142l-20 -42c43 0 61 -32 55 -65c-7 -38 -45 -79 -116 -79c-30 0 -59 7 -74 14z" />
    <glyph glyph-name="Sacute" unicode="&#x15a;" horiz-adv-x="371" 
d="M336 244l-18 -97c-20 -108 -91 -160 -185 -160c-99 0 -150 57 -131 160l20 109h102l-17 -96c-10 -56 14 -76 42 -76s60 20 70 76l11 63c15 85 -187 155 -161 300l17 96c20 113 99 160 191 160c94 0 145 -49 125 -160l-22 -120h-102l19 107c10 56 -14 76 -42 76
s-60 -20 -70 -76l-11 -64c-20 -116 188 -155 162 -298zM301 836h-73l80 131h111z" />
    <glyph glyph-name="sacute" unicode="&#x15b;" horiz-adv-x="323" 
d="M86 187c-5 -24 -7 -44 -7 -58c0 -30 10 -42 32 -42c30 0 44 22 49 50c22 121 -164 105 -131 292c17 95 73 146 169 146c97 0 131 -52 111 -160l-7 -37h-100l5 26c12 63 -2 76 -27 76c-35 0 -45 -25 -50 -51c-24 -136 164 -100 130 -291c-17 -95 -71 -146 -169 -146
c-78 0 -114 33 -114 113c0 23 3 50 9 82h100zM221 637h-73l80 131h111z" />
    <glyph glyph-name="Scircumflex" unicode="&#x15c;" horiz-adv-x="371" 
d="M336 244l-18 -97c-20 -108 -91 -160 -185 -160c-99 0 -150 57 -131 160l20 109h102l-17 -96c-10 -56 14 -76 42 -76s60 20 70 76l11 63c15 85 -187 155 -161 300l17 96c20 113 99 160 191 160c94 0 145 -49 125 -160l-22 -120h-102l19 107c10 56 -14 76 -42 76
s-60 -20 -70 -76l-11 -64c-20 -116 188 -155 162 -298zM404 836h-78l-32 77l-53 -77h-81l100 141h90z" />
    <glyph glyph-name="scircumflex" unicode="&#x15d;" horiz-adv-x="323" 
d="M86 187c-5 -24 -7 -44 -7 -58c0 -30 10 -42 32 -42c30 0 44 22 49 50c22 121 -164 105 -131 292c17 95 73 146 169 146c97 0 131 -52 111 -160l-7 -37h-100l5 26c12 63 -2 76 -27 76c-35 0 -45 -25 -50 -51c-24 -136 164 -100 130 -291c-17 -95 -71 -146 -169 -146
c-78 0 -114 33 -114 113c0 23 3 50 9 82h100zM329 637h-78l-32 77l-53 -77h-81l100 141h90z" />
    <glyph glyph-name="uni1E60" unicode="&#x1e60;" horiz-adv-x="371" 
d="M336 244l-18 -97c-20 -108 -91 -160 -185 -160c-99 0 -150 57 -131 160l20 109h102l-17 -96c-10 -56 14 -76 42 -76s60 20 70 76l11 63c15 85 -187 155 -161 300l17 96c20 113 99 160 191 160c94 0 145 -49 125 -160l-22 -120h-102l19 107c10 56 -14 76 -42 76
s-60 -20 -70 -76l-11 -64c-20 -116 188 -155 162 -298zM281 831c-32 0 -55 26 -49 60s38 59 70 59c33 0 54 -26 49 -59c-5 -32 -36 -60 -70 -60z" />
    <glyph glyph-name="uni1E61" unicode="&#x1e61;" horiz-adv-x="323" 
d="M86 187c-5 -24 -7 -44 -7 -58c0 -30 10 -42 32 -42c30 0 44 22 49 50c22 121 -164 105 -131 292c17 95 73 146 169 146c97 0 131 -52 111 -160l-7 -37h-100l5 26c12 63 -2 76 -27 76c-35 0 -45 -25 -50 -51c-24 -136 164 -100 130 -291c-17 -95 -71 -146 -169 -146
c-78 0 -114 33 -114 113c0 23 3 50 9 82h100zM206 632c-32 0 -55 26 -49 60s38 59 70 59c33 0 54 -26 49 -59c-5 -32 -36 -60 -70 -60z" />
    <glyph glyph-name="Tcaron" unicode="&#x164;" horiz-adv-x="308" 
d="M155 0h-102l117 669h-95l18 97h292l-18 -97h-95zM298 836h-90l-54 141h78l31 -77l54 77h81z" />
    <glyph glyph-name="tcaron" unicode="&#x165;" horiz-adv-x="231" 
d="M329 621h-74l66 178h113zM183 82l-15 -85c-14 -3 -26 -5 -46 -5c-85 0 -114 38 -94 150l58 332h-45l16 93h45l25 140h100l-25 -140h65l-16 -93h-65l-56 -316c-8 -47 -7 -78 32 -78c7 0 14 1 21 2z" />
    <glyph glyph-name="Tbar" unicode="&#x166;" horiz-adv-x="322" 
d="M162 0h-102l61 349h-70l14 81h70l42 239h-95l18 97h292l-18 -97h-95l-42 -239h70l-14 -81h-70z" />
    <glyph glyph-name="tbar" unicode="&#x167;" horiz-adv-x="232" 
d="M183 82l-15 -85c-14 -3 -26 -5 -46 -5c-92 0 -112 45 -94 150l23 134h-42l14 81h42l21 117h-45l16 93h45l25 140h100l-25 -140h65l-16 -93h-65l-21 -117h60l-14 -81h-60l-21 -118c-8 -47 -7 -78 32 -78c7 0 14 1 21 2z" />
    <glyph glyph-name="Tcommaaccent" unicode="&#x162;" horiz-adv-x="308" 
d="M154 0h-102l117 669h-95l18 97h292l-18 -97h-95zM62 -206h-75l80 156h106z" />
    <glyph glyph-name="tcommaaccent" unicode="&#x163;" horiz-adv-x="231" 
d="M182 82l-15 -85c-14 -3 -26 -5 -46 -5c-85 0 -114 38 -94 150l58 332h-45l16 93h45l25 140h100l-25 -140h65l-16 -93h-65l-56 -316c-8 -47 -7 -78 32 -78c7 0 14 1 21 2zM42 -206h-75l80 156h106z" />
    <glyph glyph-name="uni1E6A" unicode="&#x1e6a;" horiz-adv-x="308" 
d="M155 0h-102l117 669h-95l18 97h292l-18 -97h-95zM250 831c-32 0 -55 26 -49 60s38 59 70 59c33 0 54 -26 49 -59c-5 -32 -36 -60 -70 -60z" />
    <glyph glyph-name="uni1E6B" unicode="&#x1e6b;" horiz-adv-x="231" 
d="M183 82l-15 -85c-14 -3 -26 -5 -46 -5c-85 0 -114 38 -94 150l58 332h-45l16 93h45l25 140h100l-25 -140h65l-16 -93h-65l-56 -316c-8 -47 -7 -78 32 -78c7 0 14 1 21 2zM189 762c-32 0 -55 26 -49 60s38 59 70 59c33 0 54 -26 49 -59c-5 -32 -36 -60 -70 -60z" />
    <glyph glyph-name="Ugrave" unicode="&#xd9;" horiz-adv-x="392" 
d="M230 160l107 606h102l-110 -619c-20 -115 -101 -160 -185 -160c-86 0 -151 47 -131 160l110 619h102l-107 -606c-10 -56 14 -76 42 -76s60 20 70 76zM339 836h-73l-72 131h111z" />
    <glyph glyph-name="ugrave" unicode="&#xf9;" 
d="M254 0h-86l-1 46c-17 -22 -47 -54 -102 -54c-71 0 -75 52 -57 156l73 419h100l-71 -404c-10 -56 -5 -76 23 -76s39 20 49 76l71 404h100zM278 637h-73l-72 131h111z" />
    <glyph glyph-name="Uacute" unicode="&#xda;" horiz-adv-x="392" 
d="M230 160l107 606h102l-110 -619c-20 -115 -101 -160 -185 -160c-86 0 -151 47 -131 160l110 619h102l-107 -606c-10 -56 14 -76 42 -76s60 20 70 76zM323 836h-73l80 131h111z" />
    <glyph glyph-name="uacute" unicode="&#xfa;" 
d="M254 0h-86l-1 46c-17 -22 -47 -54 -102 -54c-71 0 -75 52 -57 156l73 419h100l-71 -404c-10 -56 -5 -76 23 -76s39 20 49 76l71 404h100zM249 637h-73l80 131h111z" />
    <glyph glyph-name="Ucircumflex" unicode="&#xdb;" horiz-adv-x="392" 
d="M230 160l107 606h102l-110 -619c-20 -115 -101 -160 -185 -160c-86 0 -151 47 -131 160l110 619h102l-107 -606c-10 -56 14 -76 42 -76s60 20 70 76zM405 836h-78l-32 77l-53 -77h-81l100 141h90z" />
    <glyph glyph-name="ucircumflex" unicode="&#xfb;" 
d="M254 0h-86l-1 46c-17 -22 -47 -54 -102 -54c-71 0 -75 52 -57 156l73 419h100l-71 -404c-10 -56 -5 -76 23 -76s39 20 49 76l71 404h100zM352 637h-78l-32 77l-53 -77h-81l100 141h90z" />
    <glyph glyph-name="Udieresis" unicode="&#xdc;" horiz-adv-x="392" 
d="M230 160l107 606h102l-110 -619c-20 -115 -101 -160 -185 -160c-86 0 -151 47 -131 160l110 619h102l-107 -606c-10 -56 14 -76 42 -76s60 20 70 76zM206 826c-32 0 -55 26 -49 60s38 59 70 59c33 0 54 -26 49 -59c-5 -32 -36 -60 -70 -60zM377 826c-31 0 -55 23 -49 60
c7 37 39 59 69 59c34 0 55 -26 50 -59c-6 -34 -37 -60 -70 -60z" />
    <glyph glyph-name="udieresis" unicode="&#xfc;" 
d="M254 0h-86l-1 46c-17 -22 -47 -54 -102 -54c-71 0 -75 52 -57 156l73 419h100l-71 -404c-10 -56 -5 -76 23 -76s39 20 49 76l71 404h100zM144 627c-32 0 -55 26 -49 60s38 59 70 59c33 0 54 -26 49 -59c-5 -32 -36 -60 -70 -60zM315 627c-31 0 -55 23 -49 60
c7 37 39 59 69 59c34 0 55 -26 50 -59c-6 -34 -37 -60 -70 -60z" />
    <glyph glyph-name="Utilde" unicode="&#x168;" horiz-adv-x="392" 
d="M230 160l107 606h102l-110 -619c-20 -115 -101 -160 -185 -160c-86 0 -151 47 -131 160l110 619h102l-107 -606c-10 -56 14 -76 42 -76s60 20 70 76zM368 931h65c-12 -53 -41 -95 -89 -95c-33 0 -49 19 -82 19c-8 0 -22 -1 -27 -20h-65c11 53 40 95 88 95
c32 0 51 -19 80 -19c9 0 24 0 30 20z" />
    <glyph glyph-name="utilde" unicode="&#x169;" 
d="M254 0h-86l-1 46c-17 -22 -47 -54 -102 -54c-71 0 -75 52 -57 156l73 419h100l-71 -404c-10 -56 -5 -76 23 -76s39 20 49 76l71 404h100zM306 732h65c-12 -53 -41 -95 -89 -95c-33 0 -49 19 -82 19c-8 0 -22 -1 -27 -20h-65c11 53 40 95 88 95c32 0 51 -19 80 -19
c9 0 24 0 30 20z" />
    <glyph glyph-name="Umacron" unicode="&#x16a;" horiz-adv-x="392" 
d="M230 160l107 606h102l-110 -619c-20 -115 -101 -160 -185 -160c-86 0 -151 47 -131 160l110 619h102l-107 -606c-10 -56 14 -76 42 -76s60 20 70 76zM424 836h-262l14 81h262z" />
    <glyph glyph-name="umacron" unicode="&#x16b;" 
d="M254 0h-86l-1 46c-17 -22 -47 -54 -102 -54c-71 0 -75 52 -57 156l73 419h100l-71 -404c-10 -56 -5 -76 23 -76s39 20 49 76l71 404h100zM361 637h-262l14 81h262z" />
    <glyph glyph-name="Ubreve" unicode="&#x16c;" horiz-adv-x="392" 
d="M230 160l107 606h102l-110 -619c-20 -115 -101 -160 -185 -160c-86 0 -151 47 -131 160l110 619h102l-107 -606c-10 -56 14 -76 42 -76s60 20 70 76zM374 949h56c-16 -78 -61 -124 -139 -124s-108 46 -95 124h56c-4 -27 4 -53 51 -53s64 26 71 53z" />
    <glyph glyph-name="ubreve" unicode="&#x16d;" 
d="M254 0h-86l-1 46c-17 -22 -47 -54 -102 -54c-71 0 -75 52 -57 156l73 419h100l-71 -404c-10 -56 -5 -76 23 -76s39 20 49 76l71 404h100zM311 750h56c-16 -78 -61 -124 -139 -124s-108 46 -95 124h56c-4 -27 4 -53 51 -53s64 26 71 53z" />
    <glyph glyph-name="Uring" unicode="&#x16e;" horiz-adv-x="392" 
d="M230 160l107 606h102l-110 -619c-20 -115 -101 -160 -185 -160c-86 0 -151 47 -131 160l110 619h102l-107 -606c-10 -56 14 -76 42 -76s60 20 70 76zM335 902c4 19 -8 31 -25 31c-18 0 -34 -14 -37 -31c-3 -18 8 -31 26 -31c19 0 33 14 36 31zM289 815
c-52 0 -80 42 -72 87c8 48 54 87 103 87s80 -38 71 -87c-9 -50 -53 -87 -102 -87z" />
    <glyph glyph-name="uring" unicode="&#x16f;" 
d="M254 0h-86l-1 46c-17 -22 -47 -54 -102 -54c-71 0 -75 52 -57 156l73 419h100l-71 -404c-10 -56 -5 -76 23 -76s39 20 49 76l71 404h100zM272 703c4 19 -8 31 -25 31c-18 0 -34 -14 -37 -31c-3 -18 8 -31 26 -31c19 0 33 14 36 31zM226 616c-52 0 -80 42 -72 87
c8 48 54 87 103 87s80 -38 71 -87c-9 -50 -53 -87 -102 -87z" />
    <glyph glyph-name="Uhungarumlaut" unicode="&#x170;" horiz-adv-x="392" 
d="M230 160l107 606h102l-110 -619c-20 -115 -101 -160 -185 -160c-86 0 -151 47 -131 160l110 619h102l-107 -606c-10 -56 14 -76 42 -76s60 20 70 76zM255 836h-83l68 135h101zM392 836h-83l68 135h101z" />
    <glyph glyph-name="uhungarumlaut" unicode="&#x171;" 
d="M254 0h-86l-1 46c-17 -22 -47 -54 -102 -54c-71 0 -75 52 -57 156l73 419h100l-71 -404c-10 -56 -5 -76 23 -76s39 20 49 76l71 404h100zM196 637h-83l68 135h101zM333 637h-83l68 135h101z" />
    <glyph glyph-name="Uogonek" unicode="&#x172;" horiz-adv-x="392" 
d="M205 -156l-44 -52c-75 4 -117 54 -107 110c5 27 23 61 63 87c-75 9 -121 62 -104 158l110 619h102l-107 -606c-10 -56 14 -76 42 -76s60 20 70 76l107 606h102l-110 -619c-17 -96 -69 -126 -109 -148c-52 -29 -70 -59 -74 -84c-6 -36 14 -60 59 -71z" />
    <glyph glyph-name="uogonek" unicode="&#x173;" 
d="M239 -156l-44 -52c-75 4 -117 54 -107 110c6 33 30 71 79 97v47c-17 -22 -47 -54 -102 -54c-71 0 -75 52 -57 156l73 419h100l-71 -404c-10 -56 -5 -76 23 -76s39 20 49 76l71 404h100l-99 -567c-44 -25 -70 -57 -75 -86c-5 -31 13 -59 60 -70z" />
    <glyph glyph-name="Wcircumflex" unicode="&#x174;" horiz-adv-x="611" 
d="M687 766l-219 -766h-145l40 618l-175 -618h-145l51 766h102l-48 -592l171 592h143l-39 -592l162 592h102zM524 836h-78l-32 77l-53 -77h-81l100 141h90z" />
    <glyph glyph-name="wcircumflex" unicode="&#x175;" horiz-adv-x="514" 
d="M379 0h-131l30 407l-112 -407h-131l22 567h104l-31 -432l122 432h108l-30 -432l121 432h104zM440 637h-78l-32 77l-53 -77h-81l100 141h90z" />
    <glyph glyph-name="Wdieresis" unicode="&#x1e84;" horiz-adv-x="611" 
d="M687 766l-219 -766h-145l40 618l-175 -618h-145l51 766h102l-48 -592l171 592h143l-39 -592l162 592h102zM315 826c-32 0 -55 26 -49 60s38 59 70 59c33 0 54 -26 49 -59c-5 -32 -36 -60 -70 -60zM486 826c-31 0 -55 23 -49 60c7 37 39 59 69 59c34 0 55 -26 50 -59
c-6 -34 -37 -60 -70 -60z" />
    <glyph glyph-name="wdieresis" unicode="&#x1e85;" horiz-adv-x="514" 
d="M379 0h-131l30 407l-112 -407h-131l22 567h104l-31 -432l122 432h108l-30 -432l121 432h104zM231 627c-32 0 -55 26 -49 60s38 59 70 59c33 0 54 -26 49 -59c-5 -32 -36 -60 -70 -60zM402 627c-31 0 -55 23 -49 60c7 37 39 59 69 59c34 0 55 -26 50 -59
c-6 -34 -37 -60 -70 -60z" />
    <glyph glyph-name="Wgrave" unicode="&#x1e80;" horiz-adv-x="611" 
d="M687 766l-219 -766h-145l40 618l-175 -618h-145l51 766h102l-48 -592l171 592h143l-39 -592l162 592h102zM447 836h-73l-72 131h111z" />
    <glyph glyph-name="wgrave" unicode="&#x1e81;" horiz-adv-x="514" 
d="M379 0h-131l30 407l-112 -407h-131l22 567h104l-31 -432l122 432h108l-30 -432l121 432h104zM370 637h-73l-72 131h111z" />
    <glyph glyph-name="Wacute" unicode="&#x1e82;" horiz-adv-x="611" 
d="M687 766l-219 -766h-145l40 618l-175 -618h-145l51 766h102l-48 -592l171 592h143l-39 -592l162 592h102zM429 836h-73l80 131h111z" />
    <glyph glyph-name="wacute" unicode="&#x1e83;" horiz-adv-x="514" 
d="M379 0h-131l30 407l-112 -407h-131l22 567h104l-31 -432l122 432h108l-30 -432l121 432h104zM347 637h-73l80 131h111z" />
    <glyph glyph-name="Ygrave" unicode="&#x1ef2;" horiz-adv-x="357" 
d="M179 0h-102l46 266l-38 500h103l13 -347l139 347h103l-217 -499zM324 836h-73l-72 131h111z" />
    <glyph glyph-name="ygrave" unicode="&#x1ef3;" horiz-adv-x="316" 
d="M108 -200h-104l59 162l-13 605h104l-13 -402l114 402h104zM276 637h-73l-72 131h111z" />
    <glyph glyph-name="Yacute" unicode="&#xdd;" horiz-adv-x="357" 
d="M179 0h-102l46 266l-38 500h103l13 -347l139 347h103l-217 -499zM304 836h-73l80 131h111z" />
    <glyph glyph-name="yacute" unicode="&#xfd;" horiz-adv-x="316" 
d="M108 -200h-104l59 162l-13 605h104l-13 -402l114 402h104zM239 637h-73l80 131h111z" />
    <glyph glyph-name="Ydieresis" unicode="&#x178;" horiz-adv-x="357" 
d="M179 0h-102l46 266l-38 500h103l13 -347l139 347h103l-217 -499zM189 826c-32 0 -55 26 -49 60s38 59 70 59c33 0 54 -26 49 -59c-5 -32 -36 -60 -70 -60zM360 826c-31 0 -55 23 -49 60c7 37 39 59 69 59c34 0 55 -26 50 -59c-6 -34 -37 -60 -70 -60z" />
    <glyph glyph-name="ydieresis" unicode="&#xff;" horiz-adv-x="316" 
d="M108 -200h-104l59 162l-13 605h104l-13 -402l114 402h104zM131 627c-32 0 -55 26 -49 60s38 59 70 59c33 0 54 -26 49 -59c-5 -32 -36 -60 -70 -60zM302 627c-31 0 -55 23 -49 60c7 37 39 59 69 59c34 0 55 -26 50 -59c-6 -34 -37 -60 -70 -60z" />
    <glyph glyph-name="Ycircumflex" unicode="&#x176;" horiz-adv-x="357" 
d="M179 0h-102l46 266l-38 500h103l13 -347l139 347h103l-217 -499zM398 836h-78l-32 77l-53 -77h-81l100 141h90z" />
    <glyph glyph-name="ycircumflex" unicode="&#x177;" horiz-adv-x="316" 
d="M108 -200h-104l59 162l-13 605h104l-13 -402l114 402h104zM339 637h-78l-32 77l-53 -77h-81l100 141h90z" />
    <glyph glyph-name="Zcaron" unicode="&#x17d;" horiz-adv-x="307" 
d="M241 0h-276l17 97l260 572h-151l18 97h267l-10 -53l-279 -616h171zM307 836h-90l-54 141h78l31 -77l54 77h81z" />
    <glyph glyph-name="zcaron" unicode="&#x17e;" horiz-adv-x="279" 
d="M204 0h-242l15 88l209 386h-122l16 93h235l-12 -71l-215 -401h132zM258 637h-90l-54 141h78l31 -77l54 77h81z" />
    <glyph glyph-name="Zacute" unicode="&#x179;" horiz-adv-x="307" 
d="M241 0h-276l17 97l260 572h-151l18 97h267l-10 -53l-279 -616h171zM279 836h-73l80 131h111z" />
    <glyph glyph-name="zacute" unicode="&#x17a;" horiz-adv-x="279" 
d="M204 0h-242l15 88l209 386h-122l16 93h235l-12 -71l-215 -401h132zM225 637h-73l80 131h111z" />
    <glyph glyph-name="Zdotaccent" unicode="&#x17b;" horiz-adv-x="307" 
d="M241 0h-276l17 97l260 572h-151l18 97h267l-10 -53l-279 -616h171zM259 831c-32 0 -55 26 -49 60s38 59 70 59c33 0 54 -26 49 -59c-5 -32 -36 -60 -70 -60z" />
    <glyph glyph-name="zdotaccent" unicode="&#x17c;" horiz-adv-x="279" 
d="M204 0h-242l15 88l209 386h-122l16 93h235l-12 -71l-215 -401h132zM210 632c-32 0 -55 26 -49 60s38 59 70 59c33 0 54 -26 49 -59c-5 -32 -36 -60 -70 -60z" />
    <glyph glyph-name="ampersand" unicode="&#x26;" horiz-adv-x="399" 
d="M399 353h-41l-35 -196c-19 -109 -79 -170 -187 -170c-110 0 -148 63 -128 175l18 102c12 67 35 114 108 136c-66 18 -74 59 -62 126l15 86c20 113 90 167 192 167c88 0 131 -41 131 -112c0 -15 -2 -30 -9 -67h-102c2 11 4 22 4 33c0 27 -12 50 -43 50
c-25 0 -61 -15 -72 -77l-16 -93c-10 -56 46 -66 74 -66h26l11 60h102l-11 -60h41zM222 160l34 193h-26c-28 0 -88 -10 -98 -66l-22 -127c-10 -56 14 -76 42 -76s60 20 70 76z" />
    <glyph glyph-name="sterling" unicode="&#xa3;" horiz-adv-x="420" 
d="M344 0h-369l17 102h55l20 112h-55l17 96h55l11 64h-55l17 96h55l25 142c24 136 114 167 194 167c76 0 145 -28 122 -167l-7 -44h-102l6 38c9 55 -12 76 -41 76s-61 -20 -71 -76l-24 -136h185l-17 -96h-185l-11 -64h185l-17 -96h-185l-20 -112h212z" />
    <glyph glyph-name="yen" unicode="&#xa5;" horiz-adv-x="398" 
d="M338 104h-120l-18 -104h-102l18 104h-120l17 96h120l11 64h-120l17 96h106l-41 406h103l15 -335l137 335h103l-187 -406h106l-17 -96h-120l-11 -64h120z" />
    <glyph glyph-name="dollar" unicode="$" horiz-adv-x="373" 
d="M142 -64h-33l9 52c-86 5 -133 59 -115 159l20 109h102l-17 -96c-8 -46 7 -68 28 -74l41 234c-54 53 -123 114 -107 203l17 96c19 108 92 154 171 159l9 52h33l-9 -52c88 -6 131 -54 112 -159l-22 -120h-102l19 107c8 44 -5 65 -25 73l-44 -250c48 -46 124 -99 108 -185
l-18 -97c-19 -103 -80 -152 -168 -159zM201 458l39 222c-23 -7 -46 -28 -54 -74l-11 -64c-6 -35 7 -60 26 -84zM220 160l11 63c4 23 -8 44 -26 67l-36 -203c22 7 43 29 51 73z" />
    <glyph glyph-name="cent" unicode="&#xa2;" horiz-adv-x="323" 
d="M165 0h-100l18 106c-57 16 -75 66 -60 154l47 263c16 90 52 137 114 154l16 90h100l-16 -90c55 -16 73 -67 58 -154l-10 -56h-100l8 45c10 56 5 76 -23 76s-39 -20 -49 -76l-43 -240c-9 -52 -6 -76 24 -76c31 0 39 26 48 76l11 58h100l-13 -70
c-17 -94 -51 -137 -112 -154z" />
    <glyph glyph-name="Euro" unicode="&#x20ac;" horiz-adv-x="409" 
d="M366 186l-7 -39c-21 -115 -101 -160 -185 -160c-86 0 -151 47 -131 160l19 107h-48l17 96h48l11 64h-49l17 96h49l20 109c21 115 101 160 189 160c81 0 148 -38 128 -153l-10 -57h-102l6 37c9 55 -12 76 -41 76s-61 -20 -71 -76l-17 -96h151l-17 -96h-151l-11 -64h152
l-17 -96h-152l-16 -94c-10 -59 16 -76 42 -76c31 0 62 25 70 76l4 26h102z" />
    <glyph glyph-name="parenleft" unicode="(" horiz-adv-x="205" 
d="M119 -172h-101c-34 200 -14 368 4 469s57 269 162 469h101c-71 -125 -131 -294 -162 -469s-31 -344 -4 -469z" />
    <glyph glyph-name="parenright" unicode=")" horiz-adv-x="205" 
d="M25 -172h-100c70 125 130 294 161 469s31 344 4 469h101c33 -200 14 -368 -4 -469s-58 -269 -162 -469z" />
    <glyph glyph-name="bracketleft" unicode="[" horiz-adv-x="245" 
d="M151 -170h-186l165 936h186l-15 -82h-88l-135 -769h88z" />
    <glyph glyph-name="bracketright" unicode="]" horiz-adv-x="245" 
d="M120 -170h-185l15 85h87l135 769h-88l15 82h186z" />
    <glyph glyph-name="braceleft" unicode="{" horiz-adv-x="282" 
d="M202 -85l-15 -85h-84c-69 0 -89 42 -78 107l35 196c12 70 8 121 -61 128l12 71c71 8 96 65 107 130l35 196c11 63 42 108 115 108h84l-15 -82h-47c-34 0 -41 -37 -50 -87l-30 -167c-16 -90 -66 -122 -94 -132c28 -8 63 -47 48 -131l-29 -165c-11 -61 -14 -87 20 -87h47z
" />
    <glyph glyph-name="braceright" unicode="}" horiz-adv-x="282" 
d="M168 133l-35 -196c-12 -69 -48 -107 -114 -107h-83l14 85h47c34 0 39 27 50 87l29 165c15 84 64 123 94 131c-27 11 -63 46 -48 132l30 167c9 50 14 87 -20 87h-47l15 82h84c67 0 89 -40 77 -108l-35 -196c-11 -64 -8 -122 61 -130l-12 -71c-73 -7 -95 -57 -107 -128z
" />
    <glyph glyph-name="exclam" unicode="!" horiz-adv-x="184" 
d="M110 191h-70l83 575h109zM40 -8c-35 0 -58 28 -52 63s39 63 74 63s58 -28 52 -63s-39 -63 -74 -63z" />
    <glyph glyph-name="exclamdown" unicode="&#xa1;" horiz-adv-x="175" 
d="M61 -174h-109l121 575h70zM195 537c-6 -35 -39 -63 -74 -63s-58 28 -52 63s39 63 74 63s58 -28 52 -63z" />
    <glyph glyph-name="question" unicode="?" horiz-adv-x="352" 
d="M191 191h-82l33 244c6 -2 12 -2 19 -2c32 0 97 11 107 66l20 108c9 50 -11 76 -43 76c-29 0 -59 -20 -69 -76l-16 -89h-102l16 92c19 109 86 169 193 169c100 0 144 -52 124 -164l-21 -118c-15 -84 -47 -138 -142 -155zM117 -8c-35 0 -58 28 -52 63s39 63 74 63
s58 -28 52 -63s-39 -63 -74 -63z" />
    <glyph glyph-name="questiondown" unicode="&#xbf;" horiz-adv-x="349" 
d="M298 73l-16 -92c-19 -109 -86 -169 -193 -169c-100 0 -144 52 -124 164l21 118c15 84 47 138 142 155l37 151h82l-33 -244c-6 2 -12 2 -19 2c-28 0 -97 -10 -107 -66l-19 -108c-10 -56 14 -76 42 -76c30 0 61 23 70 76l15 89h102zM291 536c-6 -35 -39 -63 -74 -63
s-58 28 -52 63s39 63 74 63s58 -28 52 -63z" />
    <glyph glyph-name="dagger" unicode="&#x2020;" horiz-adv-x="332" 
d="M145 -60h-80l85 537l-101 -5l16 95l105 -5l26 204h110l-47 -204l106 5l-16 -95l-99 5z" />
    <glyph glyph-name="daggerdbl" unicode="&#x2021;" horiz-adv-x="344" 
d="M151 -60h-80l45 296l-104 -4l17 95l102 -5c2 23 5 46 9 68c5 29 11 58 20 87l-105 -5l16 95l105 -5l26 204h110l-47 -204l106 5l-16 -95l-103 5c-2 -20 -6 -50 -12 -83c-4 -23 -9 -49 -16 -72l105 5l-17 -95l-103 4z" />
    <glyph glyph-name="guilsinglleft" unicode="&#x2039;" horiz-adv-x="224" 
d="M159 90h-102l-46 177l109 179h102l-110 -179z" />
    <glyph glyph-name="guilsinglright" unicode="&#x203a;" horiz-adv-x="224" 
d="M97 90h-102l111 177l-48 179h102l47 -179z" />
    <glyph glyph-name="guillemotleft" unicode="&#xab;" horiz-adv-x="386" 
d="M159 90h-102l-46 177l109 179h102l-110 -179zM321 90h-102l-46 177l109 179h102l-110 -179z" />
    <glyph glyph-name="guillemotright" unicode="&#xbb;" horiz-adv-x="386" 
d="M97 90h-102l111 177l-48 179h102l47 -179zM259 90h-102l111 177l-48 179h102l47 -179z" />
    <glyph glyph-name="less" unicode="&#x3c;" horiz-adv-x="422" 
d="M347 82l-80 -57l-226 338l349 341l56 -60l-294 -281z" />
    <glyph glyph-name="greater" unicode="&#x3e;" horiz-adv-x="422" 
d="M63 25l-60 57l295 281l-196 281l78 60l229 -341z" />
    <glyph glyph-name="quotesingle" unicode="'" horiz-adv-x="148" 
d="M157 556h-70l22 210h100z" />
    <glyph glyph-name="quotedbl" unicode="&#x22;" horiz-adv-x="271" 
d="M280 556h-70l22 210h100zM157 556h-70l22 210h100z" />
    <glyph glyph-name="quoteleft" unicode="&#x2018;" horiz-adv-x="200" 
d="M177 543h-113l140 223h70z" />
    <glyph glyph-name="quoteright" unicode="&#x2019;" horiz-adv-x="195" 
d="M135 543h-70l97 223h113z" />
    <glyph glyph-name="quotedblleft" unicode="&#x201c;" horiz-adv-x="355" 
d="M332 543h-113l140 223h70zM177 543h-113l140 223h70z" />
    <glyph glyph-name="quotedblright" unicode="&#x201d;" horiz-adv-x="350" 
d="M135 543h-70l97 223h113zM290 543h-70l97 223h113z" />
    <glyph glyph-name="quotesinglbase" unicode="&#x201a;" horiz-adv-x="231" 
d="M16 -135h-69l94 223h113z" />
    <glyph glyph-name="quotedblbase" unicode="&#x201e;" horiz-adv-x="386" 
d="M16 -135h-69l94 223h113zM171 -135h-70l95 223h113z" />
    <glyph glyph-name="minus" unicode="&#x2212;" horiz-adv-x="422" 
d="M407 316h-382l17 94h382z" />
    <glyph glyph-name="plus" unicode="+" horiz-adv-x="422" 
d="M239 172h-96l25 144h-143l17 94h143l25 144h96l-25 -144h143l-17 -94h-143z" />
    <glyph glyph-name="multiply" unicode="&#xd7;" horiz-adv-x="422" 
d="M297 195l-83 101l-120 -102l-56 68l120 102l-84 101l78 66l83 -101l120 102l56 -68l-120 -102l84 -101z" />
    <glyph glyph-name="divide" unicode="&#xf7;" horiz-adv-x="422" 
d="M183 130c-35 0 -58 28 -51 63s38 63 74 63c35 0 58 -28 52 -63c-7 -36 -41 -63 -75 -63zM243 470c-35 0 -58 28 -52 63c7 36 41 63 75 63c35 0 58 -28 51 -63s-38 -63 -74 -63zM407 316h-382l17 94h382z" />
    <glyph glyph-name="equal" unicode="=" horiz-adv-x="422" 
d="M422 400h-382l17 94h382zM392 230h-382l17 94h382z" />
    <glyph glyph-name="plusminus" unicode="&#xb1;" horiz-adv-x="422" 
d="M241 184h-96l25 144h-143l17 94h143l25 144h96l-25 -144h143l-17 -94h-143zM359 41h-382l16 94h382z" />
    <glyph glyph-name="notequal" unicode="&#x2260;" horiz-adv-x="422" 
d="M392 230h-177l-50 -118h-95l50 118h-110l17 94h134l32 76h-153l17 94h176l50 118h95l-50 -118h111l-17 -94h-134l-32 -76h153z" />
    <glyph glyph-name="period" unicode="." horiz-adv-x="172" 
d="M34 -8c-35 0 -58 28 -52 63s39 63 74 63s58 -28 52 -63s-39 -63 -74 -63z" />
    <glyph glyph-name="comma" unicode="," horiz-adv-x="199" 
d="M-34 -135h-69l130 253h113z" />
    <glyph glyph-name="bullet" unicode="&#x2022;" horiz-adv-x="329" 
d="M163 262c-66 0 -116 51 -103 122c12 65 76 122 141 122c42 0 122 -23 103 -122c-15 -78 -79 -122 -141 -122z" />
    <glyph glyph-name="periodcentered" unicode="&#xb7;" horiz-adv-x="184" 
d="M80 221c-32 0 -58 24 -51 63c6 34 38 63 74 63c35 0 58 -28 52 -63c-7 -36 -41 -63 -75 -63z" />
    <glyph glyph-name="colon" unicode=":" horiz-adv-x="190" 
d="M43 -8c-35 0 -58 28 -52 63s39 63 74 63s58 -28 52 -63s-39 -63 -74 -63zM103 332c-35 0 -58 28 -52 63s39 63 74 63s58 -28 52 -63s-39 -63 -74 -63z" />
    <glyph glyph-name="semicolon" unicode=";" horiz-adv-x="209" 
d="M116 332c-35 0 -58 28 -52 63s39 63 74 63s58 -28 52 -63s-39 -63 -74 -63zM-29 -135h-69l130 253h113z" />
    <glyph glyph-name="ellipsis" unicode="&#x2026;" horiz-adv-x="516" 
d="M34 -8c-35 0 -58 28 -52 63s39 63 74 63s58 -28 52 -63s-39 -63 -74 -63zM206 -8c-35 0 -58 28 -52 63s39 63 74 63s58 -28 52 -63s-39 -63 -74 -63zM378 -8c-35 0 -58 28 -52 63s39 63 74 63s58 -28 52 -63s-39 -63 -74 -63z" />
    <glyph glyph-name="onedotenleader" unicode="&#x2024;" horiz-adv-x="172" 
d="M34 -8c-35 0 -58 28 -52 63s39 63 74 63s58 -28 52 -63s-39 -63 -74 -63z" />
    <glyph glyph-name="twodotenleader" unicode="&#x2025;" horiz-adv-x="344" 
d="M34 -8c-35 0 -58 28 -52 63s39 63 74 63s58 -28 52 -63s-39 -63 -74 -63zM206 -8c-35 0 -58 28 -52 63s39 63 74 63s58 -28 52 -63s-39 -63 -74 -63z" />
    <glyph glyph-name="hyphen" unicode="-" horiz-adv-x="253" 
d="M214 244h-189l16 96h189z" />
    <glyph glyph-name="uni00AD" unicode="&#xad;" horiz-adv-x="253" 
d="M214 244h-189l16 96h189z" />
    <glyph glyph-name="endash" unicode="&#x2013;" horiz-adv-x="316" 
d="M277 244h-252l16 96h252z" />
    <glyph glyph-name="emdash" unicode="&#x2014;" horiz-adv-x="448" 
d="M409 244h-384l16 96h384z" />
    <glyph glyph-name="underscore" unicode="_" horiz-adv-x="347" 
d="M257 -43h-283l15 86h283z" />
    <glyph glyph-name="numbersign" unicode="#" horiz-adv-x="560" 
d="M291 30h-97l83 192h-94l-83 -192h-97l83 192h-81l41 96h81l49 114h-94l41 96h95l82 192h97l-82 -192h94l82 192h97l-82 -192h81l-41 -96h-82l-49 -114h95l-41 -96h-95zM318 318l49 114h-94l-49 -114h94z" />
    <glyph glyph-name="zero" unicode="0" horiz-adv-x="380" 
d="M7 147l84 472c20 113 98 160 192 160c98 0 143 -52 124 -160l-84 -472c-20 -115 -101 -160 -185 -160c-86 0 -151 47 -131 160zM224 160l78 446c10 56 -14 76 -42 76s-60 -20 -70 -76l-78 -446c-10 -56 14 -76 42 -76s60 20 70 76z" />
    <glyph glyph-name="one" unicode="1" horiz-adv-x="271" 
d="M173 0h-100l115 655l-122 -37l18 99l136 49h88z" />
    <glyph glyph-name="two" unicode="2" horiz-adv-x="360" 
d="M271 0h-294l12 73c24 143 273 347 295 469l12 66c10 56 -15 74 -43 74s-59 -18 -69 -74l-17 -94h-102l19 105c19 107 91 160 188 160c87 0 149 -43 129 -154l-17 -94c-25 -137 -265 -335 -288 -434h192z" />
    <glyph glyph-name="three" unicode="3" horiz-adv-x="374" 
d="M221 161l21 118c8 45 -11 68 -48 68c-8 0 -27 -1 -44 -2l18 102c16 -2 32 -2 49 -2c28 0 57 20 67 76l15 84c10 55 -11 77 -41 77c-27 0 -60 -18 -70 -75l-16 -89h-102l18 102c19 109 94 159 189 159c91 0 147 -45 127 -156l-17 -96c-12 -69 -37 -101 -96 -129
c49 -23 62 -66 50 -133l-20 -116c-20 -111 -92 -162 -185 -162c-90 0 -152 49 -132 160l18 98h102l-15 -84c-10 -55 13 -77 43 -77c29 0 59 20 69 77z" />
    <glyph glyph-name="four" unicode="4" horiz-adv-x="374" 
d="M253 0h-100l32 183h-192l17 97l217 486h161l-86 -486h60l-17 -97h-60zM202 280l67 382l-157 -382h90z" />
    <glyph glyph-name="five" unicode="5" horiz-adv-x="373" 
d="M223 162l27 153c13 74 -13 86 -38 86c-26 0 -50 -14 -65 -51h-106l74 416h291l-18 -97h-189l-40 -228c30 36 61 56 112 56c67 0 107 -34 90 -130l-36 -208c-20 -113 -77 -172 -190 -172c-111 0 -145 57 -127 172l7 45h103l-7 -42c-10 -61 16 -78 41 -78c29 0 61 22 71 78
z" />
    <glyph glyph-name="six" unicode="6" horiz-adv-x="378" 
d="M361 357l-34 -198c-19 -108 -73 -172 -189 -172c-111 0 -148 59 -128 172l80 454c19 109 78 166 188 166s147 -58 128 -166l-9 -51h-102l7 44c9 55 -12 76 -42 76c-28 0 -60 -20 -70 -76l-31 -175c30 36 61 56 112 56c71 0 106 -38 90 -130zM225 162l25 143
c13 74 -13 86 -37 86c-31 0 -63 -19 -75 -86l-25 -143c-10 -58 14 -78 42 -78s60 22 70 78z" />
    <glyph glyph-name="seven" unicode="7" horiz-adv-x="329" 
d="M75 0h-108l312 669h-194l18 97h309l-10 -53z" />
    <glyph glyph-name="eight" unicode="8" horiz-adv-x="376" 
d="M347 290l-26 -143c-20 -111 -96 -160 -185 -160c-91 0 -150 51 -131 160l27 153c11 63 46 101 89 126c-33 25 -56 59 -44 126l14 78c17 94 91 149 188 149c91 0 146 -49 128 -149l-14 -78c-12 -67 -47 -102 -88 -126c34 -26 53 -75 42 -136zM290 546l10 60
c9 53 -11 76 -41 76s-62 -22 -71 -76l-10 -60c-10 -60 18 -74 43 -74c29 0 60 20 69 74zM222 160l25 141c10 57 -17 74 -44 74c-26 0 -58 -16 -68 -74l-25 -141c-10 -56 14 -76 42 -76s60 20 70 76z" />
    <glyph glyph-name="nine" unicode="9" horiz-adv-x="378" 
d="M222 160l31 175c-30 -36 -61 -56 -112 -56c-67 0 -107 34 -90 130l35 198c19 108 71 172 187 172c115 0 149 -63 130 -172l-81 -454c-19 -109 -78 -166 -188 -166s-147 58 -128 166l9 51h102l-7 -44c-9 -55 12 -76 41 -76s61 20 71 76zM274 461l25 143
c10 58 -14 78 -42 78s-60 -22 -70 -78l-25 -143c-13 -74 13 -86 38 -86c33 0 63 22 74 86z" />
    <glyph glyph-name="onesuperior" unicode="&#xb9;" horiz-adv-x="193" 
d="M176 384h-82l53 298l-67 -29l13 77l80 37h71z" />
    <glyph glyph-name="twosuperior" unicode="&#xb2;" horiz-adv-x="273" 
d="M254 384h-206l10 53c16 87 152 118 165 191l7 40c5 26 -7 35 -20 35c-15 0 -28 -12 -32 -35l-7 -43h-80l8 49c9 53 46 99 125 99c80 0 98 -47 89 -99l-9 -51c-17 -94 -134 -123 -142 -167h105z" />
    <glyph glyph-name="threesuperior" unicode="&#xb3;" horiz-adv-x="268" 
d="M278 500l-6 -34c-9 -51 -49 -89 -123 -89c-78 0 -99 41 -91 89l4 24h81l-2 -9c-4 -17 2 -35 21 -35c12 0 25 8 30 35l6 30c5 27 -14 31 -33 31c-5 0 -8 0 -20 -1l12 69c11 -1 16 -1 19 -1c23 0 40 4 44 30l5 29c5 29 -8 35 -19 35c-12 0 -27 -8 -32 -35l-2 -11h-81l5 26
c10 53 51 89 123 89c70 0 101 -35 91 -89l-7 -37c-5 -26 -12 -54 -51 -68c30 -11 31 -47 26 -78z" />
    <glyph glyph-name="foursuperior" unicode="&#x2074;" horiz-adv-x="263" 
d="M228 384h-77l13 72h-117l12 69l120 242h117l-43 -242h33l-12 -69h-33zM176 525l30 172l-73 -172h43z" />
    <glyph glyph-name="fraction" unicode="&#x2044;" horiz-adv-x="278" 
d="M26 0h-81l341 766h81z" />
    <glyph glyph-name="percent" unicode="%" horiz-adv-x="738" 
d="M261 0h-91l341 766h91zM326 612l-31 -180c-19 -111 -62 -160 -154 -160c-99 0 -116 56 -98 160l31 180c19 108 62 160 157 160c96 0 113 -54 95 -160zM207 443l27 158c10 56 6 76 -22 76s-40 -20 -50 -76l-27 -158c-10 -56 -6 -76 22 -76s40 20 50 76zM725 331l-32 -180
c-20 -111 -61 -160 -153 -160c-91 0 -119 48 -99 160l32 180c20 114 65 160 154 160c94 0 117 -51 98 -160zM605 162l28 158c10 56 5 76 -23 76s-39 -20 -49 -76l-28 -158c-10 -56 -5 -76 23 -76s39 20 49 76z" />
    <glyph glyph-name="perthousand" unicode="&#x2030;" horiz-adv-x="1040" 
d="M261 0h-91l341 766h91zM326 612l-31 -180c-19 -111 -62 -160 -154 -160c-99 0 -116 56 -98 160l31 180c19 108 62 160 157 160c96 0 113 -54 95 -160zM207 443l27 158c10 56 6 76 -22 76s-40 -20 -50 -76l-27 -158c-10 -56 -6 -76 22 -76s40 20 50 76zM725 331l-32 -180
c-20 -111 -61 -160 -153 -160c-91 0 -119 48 -99 160l32 180c19 109 61 160 155 160c93 0 116 -51 97 -160zM605 162l28 158c10 56 5 76 -23 76s-39 -20 -49 -76l-28 -158c-10 -56 -5 -76 23 -76s39 20 49 76zM1027 331l-32 -180c-20 -111 -61 -160 -153 -160
c-91 0 -119 48 -99 160l32 180c19 109 61 160 155 160c93 0 116 -51 97 -160zM907 162l28 158c10 56 5 76 -23 76s-39 -20 -49 -76l-28 -158c-10 -56 -5 -76 23 -76s39 20 49 76z" />
    <glyph glyph-name="onequarter" unicode="&#xbc;" horiz-adv-x="543" 
d="M176 384h-82l53 298l-67 -29l13 77l80 37h71zM443 0h-77l13 72h-117l12 69l120 242h117l-43 -242h33l-12 -69h-33zM391 141l30 172l-73 -172h43zM143 0h-81l341 766h81z" />
    <glyph glyph-name="onethird" unicode="&#x2153;" horiz-adv-x="565" 
d="M176 384h-82l53 298l-67 -29l13 77l80 37h71zM514 116l-6 -34c-9 -51 -49 -89 -123 -89c-78 0 -99 41 -91 89l4 24h81l-2 -9c-4 -17 2 -35 21 -35c12 0 25 8 30 35l6 30c5 27 -14 31 -33 31c-5 0 -8 0 -20 -1l12 69c11 -1 16 -1 19 -1c23 0 40 4 44 30l5 29
c5 29 -8 35 -19 35c-12 0 -27 -8 -32 -35l-2 -11h-81l5 26c10 53 51 89 123 89c70 0 101 -35 91 -89l-7 -37c-5 -26 -12 -54 -51 -68c30 -11 31 -47 26 -78zM143 0h-81l341 766h81z" />
    <glyph glyph-name="onehalf" unicode="&#xbd;" horiz-adv-x="564" 
d="M176 384h-82l53 298l-67 -29l13 77l80 37h71zM485 0h-206l10 53c16 87 152 118 165 191l7 40c5 26 -7 35 -20 35c-15 0 -28 -12 -32 -35l-7 -43h-80l8 49c9 53 46 99 125 99c80 0 98 -47 89 -99l-9 -51c-17 -94 -134 -123 -142 -167h105zM143 0h-81l341 766h81z" />
    <glyph glyph-name="twothirds" unicode="&#x2154;" horiz-adv-x="615" 
d="M244 384h-206l10 53c16 87 152 118 165 191l7 40c5 26 -7 35 -20 35c-15 0 -28 -12 -32 -35l-7 -43h-80l8 49c9 53 46 99 125 99c80 0 98 -47 89 -99l-9 -51c-17 -94 -134 -123 -142 -167h105zM568 116l-6 -34c-9 -51 -49 -89 -123 -89c-78 0 -99 41 -91 89l4 24h81
l-2 -9c-4 -17 2 -35 21 -35c12 0 25 8 30 35l6 30c5 27 -14 31 -33 31c-5 0 -8 0 -20 -1l12 69c11 -1 16 -1 19 -1c23 0 40 4 44 30l5 29c5 29 -8 35 -19 35c-12 0 -27 -8 -32 -35l-2 -11h-81l5 26c10 53 51 89 123 89c70 0 101 -35 91 -89l-7 -37c-5 -26 -12 -54 -51 -68
c30 -11 31 -47 26 -78zM197 0h-81l341 766h81z" />
    <glyph glyph-name="threequarters" unicode="&#xbe;" horiz-adv-x="596" 
d="M272 500l-6 -34c-9 -51 -49 -89 -123 -89c-78 0 -99 41 -91 89l4 24h81l-2 -9c-4 -17 2 -35 21 -35c12 0 25 8 30 35l6 30c5 27 -14 31 -33 31c-5 0 -8 0 -20 -1l12 69c11 -1 16 -1 19 -1c23 0 40 4 44 30l5 29c5 29 -8 35 -19 35c-12 0 -27 -8 -32 -35l-2 -11h-81l5 26
c10 53 51 89 123 89c70 0 101 -35 91 -89l-7 -37c-5 -26 -12 -54 -51 -68c30 -11 31 -47 26 -78zM495 0h-77l13 72h-117l12 69l120 242h117l-43 -242h33l-12 -69h-33zM443 141l30 172l-73 -172h43zM196 0h-81l341 766h81z" />
    <glyph glyph-name="slash" unicode="/" horiz-adv-x="317" 
d="M59 0h-97l331 766h97z" />
    <glyph glyph-name="backslash" unicode="\" horiz-adv-x="317" 
d="M255 0h-97l-61 766h97z" />
    <glyph glyph-name="bar" unicode="|" horiz-adv-x="190" 
d="M57 -220h-102l176 1000h102z" />
    <glyph glyph-name="brokenbar" unicode="&#xa6;" horiz-adv-x="192" 
d="M162 372h-102l72 408h102zM58 -220h-102l71 407h102z" />
    <glyph glyph-name="at" unicode="@" horiz-adv-x="705" 
d="M415 -87l-2 -92c-59 -32 -103 -49 -173 -49c-200 0 -290 140 -247 386c44 248 208 515 468 515c208 0 256 -171 226 -345c-28 -163 -132 -350 -272 -350c-52 0 -93 26 -89 77c-30 -37 -82 -63 -127 -63c-33 0 -68 14 -58 63c3 14 16 61 109 296c32 81 74 113 114 113
c38 0 71 -27 83 -49l15 40h90c-114 -295 -135 -339 -140 -363c-4 -18 -3 -43 25 -43c69 0 130 151 152 276c27 154 -8 252 -147 252c-199 0 -314 -202 -353 -422c-38 -216 26 -287 166 -287c66 0 108 16 160 45zM327 290l-49 -128c-6 -15 -12 -35 -14 -45
c-4 -21 3 -31 19 -31c22 0 45 20 67 76c53 136 62 165 63 172c5 24 -4 32 -21 32c-29 0 -44 -21 -65 -76z" />
    <glyph glyph-name="ordfeminine" unicode="&#xaa;" horiz-adv-x="294" 
d="M284 363h-76l-2 43c-14 -19 -43 -50 -83 -50c-36 0 -86 27 -67 136c14 77 48 117 102 117c43 0 62 -25 72 -43l9 47c10 53 -1 69 -24 69c-24 0 -33 -18 -39 -36h-91c15 68 56 120 150 120s110 -53 94 -144zM246 197h-230l15 86h230zM168 436c18 0 41 11 48 48
c5 28 -4 45 -30 45c-25 0 -41 -16 -46 -45c-6 -32 7 -48 28 -48z" />
    <glyph glyph-name="ordmasculine" unicode="&#xba;" horiz-adv-x="291" 
d="M327 606l-16 -90c-20 -111 -61 -160 -153 -160c-91 0 -119 48 -99 160l16 90c20 113 66 160 156 160c92 0 116 -49 96 -160zM246 197h-230l15 86h230zM223 527l12 68c10 56 6 76 -22 76s-40 -20 -50 -76l-12 -68c-10 -56 -4 -76 24 -76s38 20 48 76z" />
    <glyph glyph-name="florin" unicode="&#x192;" horiz-adv-x="439" 
d="M-14 -4l35 90c7 -1 14 -2 21 -2c40 0 55 31 73 78l74 191h-74l35 94h75l69 177c42 109 92 150 180 150c19 0 30 -2 42 -5l-35 -90c-8 2 -15 3 -22 3c-41 0 -55 -33 -73 -79l-61 -156h75l-36 -94h-75l-82 -212c-40 -104 -88 -150 -179 -150c-19 0 -30 2 -42 5z" />
    <glyph glyph-name="currency" unicode="&#xa4;" horiz-adv-x="453" 
d="M396 171l-75 -49l-32 59c-25 -6 -51 -10 -84 -10c-29 0 -56 3 -78 9l-51 -58l-57 49l42 49c-24 30 -29 82 -18 141l9 48c11 59 28 106 67 141l-25 49l75 49l31 -58c24 6 51 9 80 9c33 0 58 -4 81 -10l53 59l57 -49l-46 -52c21 -27 30 -78 19 -138l-9 -48
c-11 -59 -31 -105 -67 -138zM337 374l4 22c15 81 -16 106 -77 106s-100 -25 -115 -106l-4 -22c-15 -82 19 -106 79 -106c56 0 98 21 113 106z" />
    <glyph glyph-name="asciicircum" unicode="^" horiz-adv-x="422" 
d="M423 429h-108l-42 217l-118 -217h-107l195 337h106z" />
    <glyph glyph-name="asciitilde" unicode="~" horiz-adv-x="422" 
d="M405 620l59 -45c-53 -75 -106 -98 -142 -98c-48 0 -93 43 -147 43c-25 0 -47 -10 -67 -39l-51 50c40 57 86 90 139 90c59 0 98 -40 146 -40c25 0 44 11 63 39z" />
    <glyph glyph-name="asterisk" unicode="*" horiz-adv-x="305" 
d="M301 533l-75 -39l-20 95l-53 -96l-61 40l84 82l-100 -16l14 76l91 -16l-54 81l75 40l20 -101l54 100l62 -39l-82 -82l96 15l-13 -74l-92 16z" />
    <glyph glyph-name="degree" unicode="&#xb0;" horiz-adv-x="252" 
d="M225 632c4 21 -10 38 -31 38s-41 -17 -45 -38s10 -38 31 -38s41 17 45 38zM168 525c-60 0 -99 47 -88 107s66 107 126 107s99 -47 88 -107s-66 -107 -126 -107z" />
    <glyph glyph-name="section" unicode="&#xa7;" horiz-adv-x="397" 
d="M102 187l-4 -24c-8 -48 -5 -76 29 -76c30 0 44 22 49 50c22 121 -164 105 -131 292c13 72 48 119 107 137c-2 19 -3 39 2 65c16 87 69 142 168 142c89 0 134 -45 111 -160l-6 -30h-100l4 19c10 48 6 76 -28 76c-33 0 -44 -25 -48 -48c-24 -128 164 -96 130 -287
c-13 -72 -47 -119 -107 -138c2 -19 3 -40 -2 -68c-15 -86 -64 -145 -169 -145c-96 0 -129 50 -111 158l6 37h100zM196 480c-35 0 -45 -25 -50 -50c-14 -77 44 -102 83 -138c37 0 51 22 56 50c12 70 -45 94 -89 138z" />
    <glyph glyph-name="logicalnot" unicode="&#xac;" horiz-adv-x="422" 
d="M381 172h-96l25 144h-286l17 94h382z" />
    <glyph glyph-name="Delta" unicode="&#x2206;" horiz-adv-x="387" 
d="M322 0h-357l238 766h150zM225 97l34 562l-164 -562h130z" />
    <glyph glyph-name="Omega" unicode="&#x2126;" horiz-adv-x="388" 
d="M310 0h-151l18 106c25 6 46 30 54 74l75 426c10 56 -13 76 -42 76s-60 -21 -70 -76l-75 -426c-8 -44 5 -68 28 -74l-18 -106h-151l17 98l90 -6c-59 19 -72 65 -57 148l67 379c23 131 118 160 190 160c78 0 148 -34 126 -160l-67 -379c-16 -90 -49 -130 -109 -148l92 6z
" />
    <glyph glyph-name="summation" unicode="&#x2211;" horiz-adv-x="315" 
d="M223 -120h-275l16 97l182 356l-60 336l18 97h276l-18 -97h-171l59 -336l-181 -356h171z" />
    <glyph glyph-name="product" unicode="&#x220f;" horiz-adv-x="412" 
d="M296 -100h-102l135 769h-112l-135 -769h-102l153 866h316z" />
    <glyph glyph-name="mu" unicode="&#xb5;" horiz-adv-x="360" 
d="M57 -199h-100l135 766h100l-71 -404c-10 -56 -5 -76 23 -76s39 20 49 76l71 404h100l-99 -567h-86l-1 46c-13 -17 -39 -46 -68 -46c-5 0 -11 1 -17 3z" />
    <glyph glyph-name="acute" unicode="&#xb4;" horiz-adv-x="151" 
d="M135 637h-73l80 131h111z" />
    <glyph glyph-name="breve" unicode="&#x2d8;" horiz-adv-x="272" 
d="M279 750h56c-16 -78 -61 -124 -139 -124s-108 46 -95 124h56c-4 -27 4 -53 51 -53s64 26 71 53z" />
    <glyph glyph-name="caron" unicode="&#x2c7;" horiz-adv-x="282" 
d="M250 637h-90l-54 141h78l31 -77l54 77h81z" />
    <glyph glyph-name="cedilla" unicode="&#xb8;" horiz-adv-x="228" 
d="M-56 -176l24 56c6 -4 19 -9 33 -9c25 0 41 15 44 32c3 15 -4 30 -35 30c-3 0 -6 0 -10 -1l29 68h71l-22 -46c43 0 61 -32 55 -65c-7 -38 -45 -79 -116 -79c-30 0 -59 7 -73 14z" />
    <glyph glyph-name="circumflex" unicode="&#x2c6;" horiz-adv-x="282" 
d="M325 637h-78l-32 77l-53 -77h-81l100 141h90z" />
    <glyph glyph-name="commaaccent" unicode="&#xf6c3;" horiz-adv-x="217" 
d="M23 -206h-75l80 156h106z" />
    <glyph glyph-name="dieresis" unicode="&#xa8;" horiz-adv-x="328" 
d="M139 627c-32 0 -55 26 -49 60s38 59 70 59c33 0 54 -26 49 -59c-5 -32 -36 -60 -70 -60zM310 627c-31 0 -55 23 -49 60c7 37 39 59 69 59c34 0 55 -26 50 -59c-6 -34 -37 -60 -70 -60z" />
    <glyph glyph-name="dotaccent" unicode="&#x2d9;" horiz-adv-x="157" 
d="M140 632c-32 0 -55 26 -49 60s38 59 70 59c33 0 54 -26 49 -59c-5 -32 -36 -60 -70 -60z" />
    <glyph glyph-name="grave" unicode="`" horiz-adv-x="151" 
d="M230 637h-73l-72 131h111z" />
    <glyph glyph-name="macron" unicode="&#xaf;" horiz-adv-x="300" 
d="M343 637h-262l14 81h262z" />
    <glyph glyph-name="ogonek" unicode="&#x2db;" horiz-adv-x="264" 
d="M181 -156l-44 -52c-75 4 -117 54 -107 110c6 33 31 72 83 98h82c-43 -25 -69 -57 -74 -86c-5 -31 13 -59 60 -70z" />
    <glyph glyph-name="ring" unicode="&#x2da;" horiz-adv-x="212" 
d="M210 703c4 19 -8 31 -25 31c-18 0 -34 -14 -37 -31c-3 -18 8 -31 26 -31c19 0 33 14 36 31zM164 616c-52 0 -80 42 -72 87c8 48 54 87 103 87s80 -38 71 -87c-9 -50 -53 -87 -102 -87z" />
    <glyph glyph-name="tilde" unicode="&#x2dc;" horiz-adv-x="284" 
d="M279 732h65c-12 -53 -41 -95 -89 -95c-33 0 -49 19 -82 19c-8 0 -22 -1 -27 -20h-65c11 53 40 95 88 95c32 0 51 -19 80 -19c9 0 24 0 30 20z" />
    <glyph glyph-name="hungarumlaut" unicode="&#x2dd;" horiz-adv-x="265" 
d="M145 637h-83l68 135h101zM282 637h-83l68 135h101z" />
    <glyph glyph-name="paragraph" unicode="&#xb6;" horiz-adv-x="488" 
d="M374 -87h-82l133 754h-69l-133 -755h-102l59 334h-32c-97 0 -132 25 -108 160l35 200c24 135 68 160 165 160h285z" />
    <glyph glyph-name="Alpha" unicode="&#x391;" horiz-adv-x="363" 
d="M310 0h-102l9 170h-113l-49 -170h-102l238 766h150zM223 267l22 382l-112 -382h90z" />
    <glyph glyph-name="Beta" unicode="&#x392;" horiz-adv-x="386" 
d="M172 0h-182l135 766h172c75 0 130 -46 110 -160l-17 -97c-9 -52 -36 -95 -93 -116c58 -23 71 -66 61 -123l-19 -110c-20 -111 -90 -160 -167 -160zM289 516l14 77c10 56 -5 76 -43 76h-51l-40 -229h51c40 0 59 20 69 76zM239 173l17 94c10 58 -18 76 -53 76h-51l-43 -246
h61c38 0 59 20 69 76z" />
    <glyph glyph-name="Gamma" unicode="&#x393;" horiz-adv-x="321" 
d="M92 0h-102l135 766h274l-18 -97h-172z" />
    <glyph glyph-name="uni0394" unicode="&#x394;" horiz-adv-x="363" 
d="M310 0h-357l238 766h150zM213 97l32 552l-162 -552h130z" />
    <glyph glyph-name="Epsilon" unicode="&#x395;" horiz-adv-x="341" 
d="M264 0h-274l135 766h274l-18 -97h-172l-41 -234h165l-17 -97h-165l-42 -241h172z" />
    <glyph glyph-name="Zeta" unicode="&#x396;" horiz-adv-x="307" 
d="M241 0h-276l17 97l260 572h-151l18 97h267l-10 -53l-279 -616h171z" />
    <glyph glyph-name="Eta" unicode="&#x397;" horiz-adv-x="396" 
d="M306 0h-102l59 338h-112l-59 -338h-102l135 766h102l-59 -331h112l59 331h102z" />
    <glyph glyph-name="Theta" unicode="&#x398;" horiz-adv-x="386" 
d="M10 147l84 472c20 113 98 160 192 160c98 0 143 -52 124 -160l-84 -472c-20 -115 -101 -160 -185 -160c-86 0 -151 47 -131 160zM227 160l78 446c10 56 -14 76 -42 76s-60 -20 -70 -76l-78 -446c-10 -56 14 -76 42 -76s60 20 70 76zM239 338h-73l17 97h73z" />
    <glyph glyph-name="Iota" unicode="&#x399;" horiz-adv-x="182" 
d="M92 0h-102l135 766h102z" />
    <glyph glyph-name="Kappa" unicode="&#x39a;" horiz-adv-x="377" 
d="M336 0h-102l-74 383l190 383h102l-183 -380zM92 0h-102l135 766h102z" />
    <glyph glyph-name="Lambda" unicode="&#x39b;" horiz-adv-x="363" 
d="M310 0h-102l37 649l-190 -649h-102l238 766h150z" />
    <glyph glyph-name="Mu" unicode="&#x39c;" horiz-adv-x="580" 
d="M490 0h-102l103 573l-205 -573h-92l-4 572l-98 -572h-102l135 766h165l-10 -534l180 534h165z" />
    <glyph glyph-name="Nu" unicode="&#x39d;" horiz-adv-x="448" 
d="M358 0h-133l-45 511l-88 -511h-102l135 766h128l48 -520l90 520h102z" />
    <glyph glyph-name="Xi" unicode="&#x39e;" horiz-adv-x="348" 
d="M277 0h-306l17 102h306zM394 664h-306l18 102h306zM311 338h-256l17 97h256z" />
    <glyph glyph-name="Omicron" unicode="&#x39f;" horiz-adv-x="386" 
d="M10 147l84 472c20 113 98 160 192 160c98 0 143 -52 124 -160l-84 -472c-20 -115 -101 -160 -185 -160c-86 0 -151 47 -131 160zM227 160l78 446c10 56 -14 76 -42 76s-60 -20 -70 -76l-78 -446c-10 -56 14 -76 42 -76s60 20 70 76z" />
    <glyph glyph-name="Pi" unicode="&#x3a0;" horiz-adv-x="396" 
d="M306 0h-102l117 669h-112l-117 -669h-102l135 766h316z" />
    <glyph glyph-name="Rho" unicode="&#x3a1;" horiz-adv-x="371" 
d="M92 0h-102l135 766h169c74 0 134 -41 113 -160l-23 -131c-20 -115 -87 -160 -164 -160h-73zM285 488l18 105c9 53 -2 76 -43 76h-51l-45 -257h51c38 0 60 20 70 76z" />
    <glyph glyph-name="Sigma" unicode="&#x3a3;" horiz-adv-x="313" 
d="M245 0h-276l17 97l161 296l-61 276l18 97h276l-18 -97h-171l60 -276l-160 -296h171z" />
    <glyph glyph-name="Tau" unicode="&#x3a4;" horiz-adv-x="308" 
d="M155 0h-102l117 669h-95l18 97h292l-18 -97h-95z" />
    <glyph glyph-name="Upsilon" unicode="&#x3a5;" horiz-adv-x="357" 
d="M179 0h-102l46 266l-38 500h103l13 -347l139 347h103l-217 -499z" />
    <glyph glyph-name="Phi" unicode="&#x3a6;" horiz-adv-x="480" 
d="M240 -1h-102l13 70c-126 6 -152 87 -132 203l39 221c21 118 77 197 203 203l13 71h102l-13 -71c125 -7 152 -87 131 -203l-39 -221c-20 -115 -74 -196 -202 -203zM168 168l76 429c-49 -3 -74 -52 -82 -97l-42 -235c-8 -45 1 -94 48 -97zM352 265l42 235
c11 61 -6 94 -48 97l-76 -429c48 3 72 42 82 97z" />
    <glyph glyph-name="Chi" unicode="&#x3a7;" horiz-adv-x="376" 
d="M327 0h-102l-33 290l-145 -290h-102l206 394l-65 372h103l40 -264l128 264h103l-184 -373z" />
    <glyph glyph-name="Psi" unicode="&#x3a8;" horiz-adv-x="495" 
d="M249 -1h-102l30 170c-126 6 -152 87 -131 203l70 394h102l-71 -401c-8 -45 0 -94 48 -97l88 498h102l-88 -498c47 3 74 52 82 97l71 401h102l-70 -394c-21 -116 -75 -196 -203 -203z" />
    <glyph glyph-name="uni03A9" unicode="&#x3a9;" horiz-adv-x="391" 
d="M311 0h-151l18 106c25 6 46 30 54 74l75 426c10 56 -13 76 -42 76s-60 -21 -70 -76l-75 -426c-8 -44 5 -68 28 -74l-18 -106h-151l17 98l90 -6c-59 19 -72 65 -57 148l67 379c23 131 118 160 190 160c78 0 148 -34 126 -160l-67 -379c-16 -90 -49 -130 -109 -148l92 6z
" />
    <glyph glyph-name="alpha" unicode="&#x3b1;" horiz-adv-x="337" 
d="M252 0h-86l-1 46c-17 -22 -47 -54 -102 -54c-71 0 -75 52 -57 156l47 271c19 107 44 156 113 156c55 0 73 -32 82 -54l17 46h86zM180 163l43 241c10 56 5 76 -23 76s-39 -20 -49 -76l-43 -241c-10 -56 -5 -76 23 -76s39 20 49 76z" />
    <glyph glyph-name="beta" unicode="&#x3b2;" horiz-adv-x="342" 
d="M48 -199h-99l142 808c17 96 61 163 165 163c103 0 124 -65 107 -163l-5 -29c-15 -86 -49 -121 -90 -132c38 -8 70 -37 55 -121l-31 -179c-18 -101 -57 -156 -130 -156c-48 0 -61 23 -72 45zM194 163l21 115c9 51 13 119 -34 127l14 82c38 10 56 49 64 100l3 19
c6 38 11 71 -23 71c-33 0 -42 -32 -49 -71l-78 -443c-9 -53 1 -76 32 -76s40 22 50 76z" />
    <glyph glyph-name="gamma" unicode="&#x3b3;" horiz-adv-x="305" 
d="M117 -198h-100l38 194l-3 571h104l-25 -402l116 402h104l-204 -571z" />
    <glyph glyph-name="delta" unicode="&#x3b4;" horiz-adv-x="323" 
d="M306 321l-30 -169c-20 -114 -73 -160 -163 -160c-94 0 -128 51 -109 160l41 233c12 67 33 91 74 115c-23 29 -33 67 -23 123c20 114 94 151 178 151c31 0 64 -5 96 -15l-38 -94c-23 7 -49 15 -73 15c-32 0 -54 -13 -61 -56c-20 -122 142 -110 108 -303zM178 164l26 146
c10 56 12 88 -24 119c-22 -4 -31 -25 -40 -75l-34 -190c-10 -56 -4 -76 24 -76s38 20 48 76z" />
    <glyph glyph-name="epsilon" unicode="&#x3b5;" horiz-adv-x="317" 
d="M264 182l-6 -30c-22 -109 -72 -160 -161 -160c-77 0 -115 38 -115 104c0 11 1 38 4 61c13 102 65 122 96 131c-41 12 -55 33 -55 73c0 19 3 45 10 74c19 78 56 140 161 140c76 0 112 -33 112 -109c0 -17 -2 -36 -6 -57h-100c3 19 4 30 4 38c0 22 -8 33 -26 33
c-43 0 -54 -62 -54 -89c0 -52 41 -56 57 -56c17 0 28 0 54 1l-17 -96c-26 1 -36 1 -55 1c-21 0 -63 -7 -77 -67c-5 -23 -6 -45 -6 -53c0 -24 8 -33 27 -33c28 0 40 20 53 94h100z" />
    <glyph glyph-name="zeta" unicode="&#x3b6;" horiz-adv-x="291" 
d="M144 -142l-66 44c33 42 38 55 40 66c3 19 -4 25 -29 36c-72 31 -113 49 -97 142c20 112 101 210 228 328h-157l16 93h263l-17 -97c-124 -121 -214 -221 -229 -308c-11 -64 29 -63 86 -90c17 -8 56 -28 47 -80c-8 -45 -48 -93 -85 -134z" />
    <glyph glyph-name="eta" unicode="&#x3b7;" 
d="M256 0h-100l71 404c10 56 5 76 -23 76s-39 -20 -49 -76l-71 -404h-100l99 567h86l1 -46c17 22 47 54 102 54c71 0 75 -52 57 -156z" />
    <glyph glyph-name="theta" unicode="&#x3b8;" horiz-adv-x="338" 
d="M9 152l81 459c19 109 71 160 165 160c92 0 127 -49 107 -160l-81 -459c-19 -111 -71 -160 -163 -160c-94 0 -128 51 -109 160zM230 427l30 173c10 56 6 76 -22 76s-40 -20 -50 -76l-30 -173h72zM183 164l30 170h-72l-30 -170c-10 -56 -4 -76 24 -76s38 20 48 76z" />
    <glyph glyph-name="iota" unicode="&#x3b9;" horiz-adv-x="200" 
d="M162 82l-15 -85c-14 -3 -26 -5 -45 -5c-85 0 -114 39 -95 150l74 425h100l-72 -409c-8 -48 -7 -78 32 -78c7 0 14 1 21 2z" />
    <glyph glyph-name="kappa" unicode="&#x3ba;" 
d="M288 0h-101l-51 290l150 277h102l-146 -274zM84 0h-100l99 567h100z" />
    <glyph glyph-name="lambda" unicode="&#x3bb;" horiz-adv-x="411" 
d="M371 85l-11 -85c-18 -5 -34 -8 -52 -8c-46 0 -78 20 -86 106l-23 238l-150 -336h-107l242 497l-10 114c-4 46 -10 70 -35 70c-7 0 -27 -2 -37 -6l3 91c21 5 51 8 69 8c54 0 91 -26 98 -105l48 -514c3 -34 6 -74 35 -74c5 0 10 1 16 4z" />
    <glyph glyph-name="uni03BC" unicode="&#x3bc;" horiz-adv-x="340" 
d="M48 -199h-99l134 766h100l-71 -404c-10 -56 -5 -76 23 -76s39 20 49 76l71 404h100l-99 -567h-86l-1 46c-13 -17 -39 -46 -68 -46c-5 0 -11 1 -17 3z" />
    <glyph glyph-name="nu" unicode="&#x3bd;" horiz-adv-x="315" 
d="M181 0h-146l22 567h104l-36 -462l127 462h104z" />
    <glyph glyph-name="xi" unicode="&#x3be;" horiz-adv-x="301" 
d="M168 -142l-66 44c33 42 38 55 40 65c3 19 -8 25 -29 35c-72 33 -130 37 -111 144l24 137c12 69 24 109 95 131c-65 18 -60 64 -48 131l15 87c15 85 72 140 166 140c87 0 121 -47 102 -160l-1 -6h-100l1 5c10 50 0 66 -25 66c-27 0 -38 -20 -46 -64l-16 -86
c-10 -57 40 -66 55 -66c17 0 28 0 54 1l-17 -96c-26 1 -36 1 -55 1c-18 0 -66 -9 -76 -66l-22 -122c-15 -86 45 -82 98 -107c26 -12 55 -33 47 -79c-8 -49 -55 -103 -85 -135z" />
    <glyph glyph-name="omicron" unicode="&#x3bf;" horiz-adv-x="332" 
d="M325 415l-47 -263c-20 -111 -71 -160 -163 -160c-94 0 -128 51 -109 160l47 263c19 107 69 160 164 160s127 -52 108 -160zM180 164l43 240c10 56 5 76 -23 76s-39 -20 -49 -76l-43 -240c-10 -56 -4 -76 24 -76s38 20 48 76z" />
    <glyph glyph-name="pi" unicode="&#x3c0;" horiz-adv-x="340" 
d="M256 0h-100l83 474h-72l-83 -474h-100l99 567h272z" />
    <glyph glyph-name="rho" unicode="&#x3c1;" horiz-adv-x="335" 
d="M47 -199h-99l108 614c19 109 71 160 165 160c92 0 126 -49 107 -160l-47 -267c-19 -108 -44 -156 -114 -156c-53 0 -68 28 -77 48zM183 163l43 241c10 56 5 76 -23 76s-39 -20 -49 -76l-43 -241c-10 -56 -5 -76 23 -76s39 20 49 76z" />
    <glyph glyph-name="sigma1" unicode="&#x3c2;" horiz-adv-x="322" 
d="M170 -142l-66 44c33 42 38 55 40 65c3 19 -8 25 -29 35c-70 33 -130 35 -111 144l48 269c19 107 69 160 164 160s127 -52 108 -160l-10 -56h-100l8 45c10 56 5 76 -23 76s-39 -20 -49 -76l-40 -225c-15 -86 45 -82 98 -107c26 -12 55 -33 47 -79
c-8 -49 -55 -103 -85 -135z" />
    <glyph glyph-name="sigma" unicode="&#x3c3;" horiz-adv-x="347" 
d="M325 415l-47 -263c-20 -114 -73 -160 -163 -160c-94 0 -128 51 -109 160l45 255c19 109 71 160 165 160h170l-16 -93l-54 4c12 -18 13 -40 9 -63zM180 164l41 232c10 56 6 76 -22 76s-40 -20 -50 -76l-41 -232c-9 -53 -6 -76 24 -76c26 0 38 17 48 76z" />
    <glyph glyph-name="tau" unicode="&#x3c4;" horiz-adv-x="297" 
d="M224 82l-15 -85c-14 -3 -26 -5 -46 -5c-85 0 -114 38 -94 150l58 332h-91l16 93h283l-16 -93h-92l-56 -316c-8 -47 -7 -78 32 -78c7 0 14 1 21 2z" />
    <glyph glyph-name="upsilon" unicode="&#x3c5;" horiz-adv-x="338" 
d="M183 164l71 403h100l-73 -415c-20 -111 -71 -160 -163 -160c-94 0 -128 51 -109 160l73 415h100l-71 -403c-10 -56 -5 -76 23 -76s39 18 49 76z" />
    <glyph glyph-name="phi" unicode="&#x3c6;" horiz-adv-x="466" 
d="M198 -198h-98l33 192c-122 10 -141 91 -126 176l43 239c9 52 28 103 84 141l54 -61c-25 -26 -37 -70 -41 -93l-39 -223c-6 -33 -4 -75 43 -82l85 484h78c133 0 163 -81 148 -166l-43 -239c-15 -85 -63 -166 -188 -176zM320 173l39 223c6 33 5 75 -42 82l-68 -387
c49 7 65 50 71 82z" />
    <glyph glyph-name="chi" unicode="&#x3c7;" horiz-adv-x="314" 
d="M263 0h-99l-28 189l-86 -189h-98l145 290l-45 277h99l25 -172l83 172h101l-146 -278z" />
    <glyph glyph-name="psi" unicode="&#x3c8;" horiz-adv-x="476" 
d="M202 -198h-98l33 192c-122 10 -141 91 -126 176l70 397h100l-69 -394c-6 -33 -4 -75 43 -82l83 476h98l-83 -476c49 7 65 50 71 82l69 394h100l-70 -397c-15 -85 -63 -166 -188 -176z" />
    <glyph glyph-name="omega" unicode="&#x3c9;" horiz-adv-x="499" 
d="M347 164l43 240c10 56 5 76 -24 76l17 95c94 0 128 -51 109 -160l-47 -263c-19 -107 -66 -160 -154 -160c-34 0 -72 8 -88 43c-27 -35 -69 -43 -103 -43c-85 0 -118 52 -99 160l47 263c20 113 74 160 165 160l-17 -95c-29 0 -40 -20 -50 -76l-43 -240
c-9 -53 -6 -76 24 -76c25 0 38 17 46 64l47 265h100l-47 -265c-8 -47 -1 -64 25 -64c28 0 39 18 49 76z" />
    <glyph glyph-name="Alphatonos" unicode="&#x386;" horiz-adv-x="450" 
d="M397 0h-102l9 170h-113l-49 -170h-102l238 766h150zM310 267l22 382l-112 -382h90zM128 635h-73l80 131h111z" />
    <glyph glyph-name="Epsilontonos" unicode="&#x388;" horiz-adv-x="477" 
d="M399 0h-274l135 766h274l-18 -97h-172l-41 -234h165l-17 -97h-165l-42 -241h172zM122 635h-73l80 131h111z" />
    <glyph glyph-name="Etatonos" unicode="&#x389;" horiz-adv-x="532" 
d="M441 0h-102l59 338h-112l-59 -338h-102l135 766h102l-59 -331h112l59 331h102zM122 635h-73l80 131h111z" />
    <glyph glyph-name="Iotatonos" unicode="&#x38a;" horiz-adv-x="318" 
d="M227 0h-102l135 766h102zM122 635h-73l80 131h111z" />
    <glyph glyph-name="Iotadieresis" unicode="&#x3aa;" horiz-adv-x="182" 
d="M92 0h-102l135 766h102zM102 826c-32 0 -55 26 -49 60s38 59 70 59c33 0 54 -26 49 -59c-5 -32 -36 -60 -70 -60zM273 826c-31 0 -55 23 -49 60c7 37 39 59 69 59c34 0 55 -26 50 -59c-6 -34 -37 -60 -70 -60z" />
    <glyph glyph-name="Omicrontonos" unicode="&#x38c;" horiz-adv-x="496" 
d="M119 147l84 472c20 113 98 160 192 160c98 0 143 -52 124 -160l-84 -472c-20 -115 -101 -160 -185 -160c-86 0 -151 47 -131 160zM336 160l78 446c10 56 -14 76 -42 76s-60 -20 -70 -76l-78 -446c-10 -56 14 -76 42 -76s60 20 70 76zM122 635h-73l80 131h111z" />
    <glyph glyph-name="Upsilontonos" unicode="&#x38e;" horiz-adv-x="545" 
d="M367 0h-102l46 266l-38 500h103l13 -347l139 347h103l-217 -499zM139 635h-73l80 131h111z" />
    <glyph glyph-name="Upsilondieresis" unicode="&#x3ab;" horiz-adv-x="357" 
d="M179 0h-102l46 266l-38 500h103l13 -347l139 347h103l-217 -499zM189 826c-32 0 -55 26 -49 60s38 59 70 59c33 0 54 -26 49 -59c-5 -32 -36 -60 -70 -60zM360 826c-31 0 -55 23 -49 60c7 37 39 59 69 59c34 0 55 -26 50 -59c-6 -34 -37 -60 -70 -60z" />
    <glyph glyph-name="Omegatonos" unicode="&#x38f;" horiz-adv-x="498" 
d="M420 0h-151l18 106c25 6 46 30 54 74l75 426c10 56 -13 76 -42 76s-60 -21 -70 -76l-75 -426c-8 -44 5 -68 28 -74l-18 -106h-151l17 98l90 -6c-59 19 -72 65 -57 148l67 379c23 131 118 160 190 160c78 0 148 -34 126 -160l-67 -379c-16 -90 -49 -130 -109 -148l92 6z
M124 635h-73l80 131h111z" />
    <glyph glyph-name="alphatonos" unicode="&#x3ac;" horiz-adv-x="337" 
d="M252 0h-86l-1 46c-17 -22 -47 -54 -102 -54c-71 0 -75 52 -57 156l47 271c19 107 44 156 113 156c55 0 73 -32 82 -54l17 46h86zM180 163l43 241c10 56 5 76 -23 76s-39 -20 -49 -76l-43 -241c-10 -56 -5 -76 23 -76s39 20 49 76zM238 637h-73l80 131h111z" />
    <glyph glyph-name="epsilontonos" unicode="&#x3ad;" horiz-adv-x="317" 
d="M264 182l-6 -30c-22 -109 -72 -160 -161 -160c-77 0 -115 38 -115 104c0 11 1 38 4 61c13 102 65 122 96 131c-41 12 -55 33 -55 73c0 19 3 45 10 74c19 78 56 140 161 140c76 0 112 -33 112 -109c0 -17 -2 -36 -6 -57h-100c3 19 4 30 4 38c0 22 -8 33 -26 33
c-43 0 -54 -62 -54 -89c0 -52 41 -56 57 -56c17 0 28 0 54 1l-17 -96c-26 1 -36 1 -55 1c-21 0 -63 -7 -77 -67c-5 -23 -6 -45 -6 -53c0 -24 8 -33 27 -33c28 0 40 20 53 94h100zM224 637h-73l80 131h111z" />
    <glyph glyph-name="etatonos" unicode="&#x3ae;" 
d="M256 0h-100l71 404c10 56 5 76 -23 76s-39 -20 -49 -76l-71 -404h-100l99 567h86l1 -46c17 22 47 54 102 54c71 0 75 -52 57 -156zM247 637h-73l80 131h111z" />
    <glyph glyph-name="iotatonos" unicode="&#x3af;" horiz-adv-x="200" 
d="M162 82l-15 -85c-14 -3 -26 -5 -45 -5c-85 0 -114 39 -95 150l74 425h100l-72 -409c-8 -48 -7 -78 32 -78c7 0 14 1 21 2zM165 637h-73l80 131h111z" />
    <glyph glyph-name="iotadieresis" unicode="&#x3ca;" horiz-adv-x="200" 
d="M162 82l-15 -85c-14 -3 -26 -5 -45 -5c-85 0 -114 39 -95 150l74 425h100l-72 -409c-8 -48 -7 -78 32 -78c7 0 14 1 21 2zM57 627c-32 0 -55 26 -49 60s38 59 70 59c33 0 54 -26 49 -59c-5 -32 -36 -60 -70 -60zM228 627c-31 0 -55 23 -49 60c7 37 39 59 69 59
c34 0 55 -26 50 -59c-6 -34 -37 -60 -70 -60z" />
    <glyph glyph-name="iotadieresistonos" unicode="&#x390;" horiz-adv-x="199" 
d="M162 82l-15 -85c-14 -3 -26 -5 -45 -5c-85 0 -114 39 -95 150l74 425h100l-72 -409c-8 -48 -7 -78 32 -78c7 0 14 1 21 2zM12 627c-32 0 -55 26 -49 60s38 59 70 59c36 0 54 -30 49 -59c-5 -31 -35 -60 -70 -60zM279 627c-31 0 -55 23 -49 60c7 38 40 59 70 59
c36 0 54 -30 49 -59c-5 -32 -36 -60 -70 -60zM145 614h-73l74 144h101z" />
    <glyph glyph-name="omicrontonos" unicode="&#x3cc;" horiz-adv-x="332" 
d="M325 415l-47 -263c-20 -111 -71 -160 -163 -160c-94 0 -128 51 -109 160l47 263c19 107 69 160 164 160s127 -52 108 -160zM180 164l43 240c10 56 5 76 -23 76s-39 -20 -49 -76l-43 -240c-10 -56 -4 -76 24 -76s38 20 48 76zM247 637h-73l80 131h111z" />
    <glyph glyph-name="upsilontonos" unicode="&#x3cd;" horiz-adv-x="338" 
d="M183 164l71 403h100l-73 -415c-20 -111 -71 -160 -163 -160c-94 0 -128 51 -109 160l73 415h100l-71 -403c-10 -56 -5 -76 23 -76s39 18 49 76zM250 637h-73l80 131h111z" />
    <glyph glyph-name="upsilondieresis" unicode="&#x3cb;" horiz-adv-x="336" 
d="M182 164l71 403h100l-73 -415c-20 -111 -71 -160 -163 -160c-94 0 -128 51 -109 160l73 415h100l-71 -403c-10 -56 -5 -76 23 -76s39 18 49 76zM143 627c-32 0 -55 26 -49 60s38 59 70 59c33 0 54 -26 49 -59c-5 -32 -36 -60 -70 -60zM314 627c-31 0 -55 23 -49 60
c7 37 39 59 69 59c34 0 55 -26 50 -59c-6 -34 -37 -60 -70 -60z" />
    <glyph glyph-name="upsilondieresistonos" unicode="&#x3b0;" horiz-adv-x="336" 
d="M182 164l71 403h100l-73 -415c-20 -111 -71 -160 -163 -160c-94 0 -128 51 -109 160l73 415h100l-71 -403c-10 -56 -5 -76 23 -76s39 18 49 76zM95 627c-32 0 -55 26 -49 60s38 59 70 59c36 0 54 -30 49 -59c-5 -31 -35 -60 -70 -60zM362 627c-31 0 -55 23 -49 60
c7 38 40 59 70 59c36 0 54 -30 49 -59c-5 -32 -36 -60 -70 -60zM228 614h-73l74 144h101z" />
    <glyph glyph-name="omegatonos" unicode="&#x3ce;" horiz-adv-x="499" 
d="M347 164l43 240c10 56 5 76 -24 76l17 95c94 0 128 -51 109 -160l-47 -263c-19 -107 -66 -160 -154 -160c-34 0 -72 8 -88 43c-27 -35 -69 -43 -103 -43c-85 0 -118 52 -99 160l47 263c20 113 74 160 165 160l-17 -95c-29 0 -40 -20 -50 -76l-43 -240
c-9 -53 -6 -76 24 -76c25 0 38 17 46 64l47 265h100l-47 -265c-8 -47 -1 -64 25 -64c28 0 39 18 49 76zM332 637h-73l80 131h111z" />
    <glyph glyph-name="tonos" unicode="&#x384;" horiz-adv-x="151" 
d="M135 637h-73l80 131h111z" />
    <glyph glyph-name="dieresistonos" unicode="&#x385;" horiz-adv-x="424" 
d="M139 627c-32 0 -55 26 -49 60s38 59 70 59c36 0 54 -30 49 -59c-5 -31 -35 -60 -70 -60zM406 627c-31 0 -55 23 -49 60c7 38 40 59 70 59c36 0 54 -30 49 -59c-5 -32 -36 -60 -70 -60zM272 614h-73l74 144h101z" />
    <glyph glyph-name="uni2015" unicode="&#x2015;" horiz-adv-x="1064" 
d="M1025 244h-1000l16 96h1000z" />
    <glyph glyph-name="uni0410" unicode="&#x410;" horiz-adv-x="363" 
d="M310 0h-102l9 170h-113l-49 -170h-102l238 766h150zM223 267l22 382l-112 -382h90z" />
    <glyph glyph-name="uni0411" unicode="&#x411;" horiz-adv-x="370" 
d="M159 0h-169l135 766h274l-18 -97h-172l-38 -218h73c77 0 128 -45 108 -160l-23 -131c-20 -113 -92 -160 -170 -160zM229 173l19 105c9 52 -3 76 -43 76h-51l-45 -257h51c38 0 59 20 69 76z" />
    <glyph glyph-name="uni0412" unicode="&#x412;" horiz-adv-x="386" 
d="M172 0h-182l135 766h172c75 0 130 -46 110 -160l-17 -97c-9 -52 -36 -95 -93 -116c58 -23 71 -66 61 -123l-19 -110c-20 -111 -90 -160 -167 -160zM289 516l14 77c10 56 -5 76 -43 76h-51l-40 -229h51c40 0 59 20 69 76zM239 173l17 94c10 58 -18 76 -53 76h-51l-43 -246
h61c38 0 59 20 69 76z" />
    <glyph glyph-name="uni0413" unicode="&#x413;" horiz-adv-x="321" 
d="M92 0h-102l135 766h274l-18 -97h-172z" />
    <glyph glyph-name="uni0414" unicode="&#x414;" horiz-adv-x="453" 
d="M376 -106h-96l19 106h-245l-19 -106h-95l33 193c43 16 70 46 82 105l122 574h306l-118 -669h47zM263 97l100 572h-103l-98 -461c-12 -55 -31 -87 -63 -111h164z" />
    <glyph glyph-name="uni0415" unicode="&#x415;" horiz-adv-x="341" 
d="M264 0h-274l135 766h274l-18 -97h-172l-41 -234h165l-17 -97h-165l-42 -241h172z" />
    <glyph glyph-name="uni0416" unicode="&#x416;" horiz-adv-x="558" 
d="M504 0h-102c15 128 -10 255 -54 383c84 128 146 255 170 383h102c-23 -127 -82 -253 -163 -380c42 -129 64 -257 47 -386zM280 0h-102l135 766h102zM56 0h-102c27 129 95 257 183 386c-37 127 -52 253 -29 380h102c-22 -128 -4 -255 34 -383
c-90 -128 -159 -255 -188 -383z" />
    <glyph glyph-name="uni0417" unicode="&#x417;" horiz-adv-x="369" 
d="M336 261l-20 -112c-20 -111 -92 -162 -185 -162s-151 51 -132 160l12 68h102l-9 -54c-10 -60 16 -77 43 -77c29 0 59 20 69 77l20 114c8 47 -18 69 -62 69c0 0 -34 -2 -56 -3l17 101c26 -2 44 -2 71 -2c37 0 61 12 72 76l16 89c10 55 -11 77 -41 77
c-28 0 -60 -19 -70 -75l-11 -59h-102l13 72c20 111 95 159 189 159c93 0 146 -46 127 -156l-17 -100c-11 -64 -35 -102 -105 -130c60 -23 70 -68 59 -132z" />
    <glyph glyph-name="uni0418" unicode="&#x418;" horiz-adv-x="448" 
d="M358 0h-102l92 511l-225 -511h-133l135 766h102l-94 -520l232 520h128z" />
    <glyph glyph-name="uni0419" unicode="&#x419;" horiz-adv-x="448" 
d="M358 0h-102l92 511l-225 -511h-133l135 766h102l-94 -520l232 520h128zM400 931h56c-16 -78 -61 -124 -139 -124s-108 46 -95 124h56c-4 -27 4 -53 51 -53s64 26 71 53z" />
    <glyph glyph-name="uni041A" unicode="&#x41a;" horiz-adv-x="370" 
d="M316 0h-102c15 128 -10 255 -54 383c84 128 146 255 170 383h102c-23 -127 -82 -253 -163 -380c42 -129 64 -257 47 -386zM92 0h-102l135 766h102z" />
    <glyph glyph-name="uni041B" unicode="&#x41b;" horiz-adv-x="423" 
d="M333 0h-102l117 669h-112l-91 -521c-20 -115 -102 -160 -187 -160h-4l17 97h4c28 0 60 20 70 76l107 605h316z" />
    <glyph glyph-name="uni041C" unicode="&#x41c;" horiz-adv-x="580" 
d="M490 0h-102l103 573l-205 -573h-92l-4 572l-98 -572h-102l135 766h165l-10 -534l180 534h165z" />
    <glyph glyph-name="uni041D" unicode="&#x41d;" horiz-adv-x="396" 
d="M306 0h-102l59 338h-112l-59 -338h-102l135 766h102l-59 -331h112l59 331h102z" />
    <glyph glyph-name="uni041E" unicode="&#x41e;" horiz-adv-x="386" 
d="M10 147l84 472c20 113 98 160 192 160c98 0 143 -52 124 -160l-84 -472c-20 -115 -101 -160 -185 -160c-86 0 -151 47 -131 160zM227 160l78 446c10 56 -14 76 -42 76s-60 -20 -70 -76l-78 -446c-10 -56 14 -76 42 -76s60 20 70 76z" />
    <glyph glyph-name="uni041F" unicode="&#x41f;" horiz-adv-x="396" 
d="M306 0h-102l117 669h-112l-117 -669h-102l135 766h316z" />
    <glyph glyph-name="uni0420" unicode="&#x420;" horiz-adv-x="371" 
d="M92 0h-102l135 766h169c74 0 134 -41 113 -160l-23 -131c-20 -115 -87 -160 -164 -160h-73zM285 488l18 105c9 53 -2 76 -43 76h-51l-45 -257h51c38 0 60 20 70 76z" />
    <glyph glyph-name="uni0421" unicode="&#x421;" horiz-adv-x="377" 
d="M346 256l-20 -109c-20 -115 -101 -160 -185 -160c-86 0 -151 47 -131 160l84 472c19 108 95 160 189 160c79 0 149 -37 128 -153l-23 -127h-102l19 107c10 56 -14 76 -42 76s-60 -20 -70 -76l-78 -446c-10 -56 14 -76 42 -76s60 20 70 76l17 96h102z" />
    <glyph glyph-name="uni0422" unicode="&#x422;" horiz-adv-x="308" 
d="M155 0h-102l117 669h-95l18 97h292l-18 -97h-95z" />
    <glyph glyph-name="uni0423" unicode="&#x423;" horiz-adv-x="417" 
d="M76 0h-102l164 284l-63 482h103l40 -341l198 341h103z" />
    <glyph glyph-name="uni0424" unicode="&#x424;" horiz-adv-x="480" 
d="M240 -1h-102l13 70c-126 6 -152 87 -132 203l39 221c21 118 77 197 203 203l13 71h102l-13 -71c125 -7 152 -87 131 -203l-39 -221c-20 -115 -74 -196 -202 -203zM168 168l76 429c-49 -3 -74 -52 -82 -97l-42 -235c-8 -45 1 -94 48 -97zM352 265l42 235
c8 45 -2 94 -48 97l-76 -429c48 3 74 52 82 97z" />
    <glyph glyph-name="uni0425" unicode="&#x425;" horiz-adv-x="376" 
d="M327 0h-102l-33 290l-145 -290h-102l206 394l-65 372h103l40 -264l128 264h103l-184 -373z" />
    <glyph glyph-name="uni0426" unicode="&#x426;" horiz-adv-x="431" 
d="M354 -106h-96l19 106h-287l135 766h102l-118 -669h112l118 669h102l-118 -669h67z" />
    <glyph glyph-name="uni0427" unicode="&#x427;" horiz-adv-x="375" 
d="M285 0h-102l55 313c-23 -9 -42 -11 -63 -11c-90 0 -142 38 -118 172l52 292h102l-51 -284c-12 -68 12 -79 47 -79c18 0 31 3 49 13l62 350h102z" />
    <glyph glyph-name="uni0428" unicode="&#x428;" horiz-adv-x="590" 
d="M635 766l-135 -766h-510l135 766h102l-118 -669h102l118 669h102l-118 -669h102l118 669h102z" />
    <glyph glyph-name="uni0429" unicode="&#x429;" horiz-adv-x="625" 
d="M548 -106h-96l19 106h-481l135 766h102l-118 -669h102l118 669h102l-118 -669h102l118 669h102l-118 -669h67z" />
    <glyph glyph-name="uni042A" unicode="&#x42a;" horiz-adv-x="509" 
d="M298 0h-169l117 669h-172l18 97h274l-56 -315h73c77 0 128 -45 108 -160l-23 -131c-20 -113 -92 -160 -170 -160zM368 173l19 105c9 52 -3 76 -43 76h-51l-45 -257h51c38 0 59 20 69 76z" />
    <glyph glyph-name="uni042B" unicode="&#x42b;" horiz-adv-x="573" 
d="M229 173l19 105c9 52 -3 76 -43 76h-51l-45 -257h51c38 0 59 20 69 76zM159 0h-169l135 766h102l-56 -315h73c77 0 128 -45 108 -160l-23 -131c-20 -113 -92 -160 -170 -160zM483 0h-102l135 766h102z" />
    <glyph glyph-name="uni042C" unicode="&#x42c;" horiz-adv-x="370" 
d="M229 173l19 105c9 52 -3 76 -43 76h-51l-45 -257h51c38 0 59 20 69 76zM159 0h-169l135 766h102l-56 -315h73c77 0 128 -45 108 -160l-23 -131c-20 -113 -92 -160 -170 -160z" />
    <glyph glyph-name="uni042D" unicode="&#x42d;" horiz-adv-x="375" 
d="M398 613l-82 -460c-19 -109 -89 -166 -186 -166c-94 0 -150 54 -131 160l12 68h102l-9 -54c-10 -60 16 -77 43 -77c29 0 59 20 69 77l31 177h-154l17 97h154l30 170c10 57 -12 77 -41 77c-28 0 -60 -19 -70 -75l-11 -59h-102l14 78c20 111 97 153 183 153
c95 0 151 -52 131 -166z" />
    <glyph glyph-name="uni042E" unicode="&#x42e;" horiz-adv-x="588" 
d="M92 0h-102l135 766h102l-59 -331h95l33 184c20 113 98 160 192 160c98 0 143 -52 124 -160l-84 -472c-20 -115 -101 -160 -185 -160c-86 0 -151 47 -131 160l34 191h-95zM429 160l78 446c10 56 -14 76 -42 76s-60 -20 -70 -76l-78 -446c-10 -56 14 -76 42 -76
s60 20 70 76z" />
    <glyph glyph-name="uni042F" unicode="&#x42f;" horiz-adv-x="376" 
d="M256 412l45 257h-51c-38 0 -59 -20 -69 -76l-18 -105c-10 -56 4 -76 42 -76h51zM286 0h-102l55 315h-39l-143 -315h-102l153 337c-52 24 -62 68 -48 146l21 123c19 111 91 160 170 160h170z" />
    <glyph glyph-name="uni0408" unicode="&#x408;" horiz-adv-x="182" 
d="M-99 -192h-3l17 97h3c28 0 58 20 68 76l139 785h102l-141 -798c-20 -115 -101 -160 -185 -160z" />
    <glyph glyph-name="uni0404" unicode="&#x404;" horiz-adv-x="375" 
d="M339 215l-12 -68c-19 -109 -96 -160 -187 -160s-148 52 -128 166l82 460c20 113 92 166 188 166c83 0 150 -39 130 -153l-14 -78h-102l11 59c10 55 -18 75 -45 75c-28 0 -58 -21 -68 -77l-30 -170h154l-17 -97h-154l-31 -177c-10 -57 12 -77 41 -77c31 0 62 24 71 77
l9 54h102z" />
    <glyph glyph-name="uni0406" unicode="&#x406;" horiz-adv-x="182" 
d="M92 0h-102l135 766h102z" />
    <glyph glyph-name="uni0405" unicode="&#x405;" horiz-adv-x="371" 
d="M336 244l-18 -97c-20 -108 -91 -160 -185 -160c-99 0 -150 57 -131 160l20 109h102l-17 -96c-10 -56 14 -76 42 -76s60 20 70 76l11 63c15 85 -187 155 -161 300l17 96c20 113 99 160 191 160c94 0 145 -49 125 -160l-22 -120h-102l19 107c10 56 -14 76 -42 76
s-60 -20 -70 -76l-11 -64c-20 -116 188 -155 162 -298z" />
    <glyph glyph-name="uni0490" unicode="&#x490;" horiz-adv-x="321" 
d="M92 0h-102l135 766h178l18 106h96l-36 -203h-172z" />
    <glyph glyph-name="uni040F" unicode="&#x40f;" horiz-adv-x="396" 
d="M306 0h-109l-19 -106h-96l19 106h-111l135 766h102l-118 -669h112l118 669h102z" />
    <glyph glyph-name="uni0403" unicode="&#x403;" horiz-adv-x="321" 
d="M92 0h-102l135 766h274l-18 -97h-172zM298 836h-73l80 131h111z" />
    <glyph glyph-name="uni0401" unicode="&#x401;" horiz-adv-x="341" 
d="M264 0h-274l135 766h274l-18 -97h-172l-41 -234h165l-17 -97h-165l-42 -241h172zM186 826c-32 0 -55 26 -49 60s38 59 70 59c33 0 54 -26 49 -59c-5 -32 -36 -60 -70 -60zM357 826c-31 0 -55 23 -49 60c7 37 39 59 69 59c34 0 55 -26 50 -59c-6 -34 -37 -60 -70 -60z" />
    <glyph glyph-name="uni0402" unicode="&#x402;" horiz-adv-x="435" 
d="M204 -8h-4l17 97h4c28 0 60 20 70 76l21 119c12 68 -11 79 -46 79c-18 0 -32 -3 -50 -13l-61 -350h-102l117 669h-95l18 97h322l-18 -97h-125l-38 -217c23 9 41 12 65 12c90 0 139 -42 116 -172l-25 -140c-20 -115 -101 -160 -186 -160z" />
    <glyph glyph-name="uni040C" unicode="&#x40c;" horiz-adv-x="370" 
d="M316 0h-102c15 128 -10 255 -54 383c84 128 146 255 170 383h102c-23 -127 -82 -253 -163 -380c42 -129 64 -257 47 -386zM92 0h-102l135 766h102zM310 836h-73l80 131h111z" />
    <glyph glyph-name="uni040E" unicode="&#x40e;" horiz-adv-x="417" 
d="M76 0h-102l164 284l-63 482h103l40 -341l198 341h103zM383 924h56c-16 -78 -61 -124 -139 -124s-108 46 -95 124h56c-4 -27 4 -53 51 -53s64 26 71 53z" />
    <glyph glyph-name="uni0407" unicode="&#x407;" horiz-adv-x="182" 
d="M92 0h-102l135 766h102zM102 826c-32 0 -55 26 -49 60s38 59 70 59c33 0 54 -26 49 -59c-5 -32 -36 -60 -70 -60zM273 826c-31 0 -55 23 -49 60c7 37 39 59 69 59c34 0 55 -26 50 -59c-6 -34 -37 -60 -70 -60z" />
    <glyph glyph-name="uni0409" unicode="&#x409;" horiz-adv-x="601" 
d="M390 0h-169l117 669h-102l-91 -521c-21 -117 -105 -160 -187 -160h-4l17 97h4c28 0 60 20 70 76l107 605h306l-56 -315h73c77 0 128 -45 108 -160l-23 -131c-20 -113 -92 -160 -170 -160zM460 173l19 105c9 52 -3 76 -43 76h-51l-45 -257h51c38 0 59 20 69 76z" />
    <glyph glyph-name="uni040A" unicode="&#x40a;" horiz-adv-x="584" 
d="M373 0h-169l62 354h-112l-62 -354h-102l135 766h102l-56 -315h112l56 315h102l-56 -315h73c77 0 128 -45 108 -160l-23 -131c-20 -113 -92 -160 -170 -160zM443 173l19 105c9 52 -3 76 -43 76h-51l-45 -257h51c38 0 59 20 69 76z" />
    <glyph glyph-name="uni040B" unicode="&#x40b;" horiz-adv-x="438" 
d="M364 0h-102l50 284c12 68 -11 79 -46 79c-18 0 -32 -3 -50 -13l-61 -350h-102l117 669h-95l18 97h322l-18 -97h-125l-38 -217c23 9 41 12 65 12c88 0 139 -39 116 -172z" />
    <glyph glyph-name="uni0430" unicode="&#x430;" horiz-adv-x="331" 
d="M249 0h-86l-1 47c-18 -24 -45 -55 -100 -55c-49 0 -84 25 -56 175l3 16c21 111 52 150 112 150c50 0 67 -27 78 -46l21 117c10 56 5 76 -23 76s-40 -22 -49 -76l-3 -18h-100l6 35c16 95 65 154 165 154c105 0 122 -66 106 -157zM175 152l4 22c8 45 1 64 -25 64
c-27 0 -40 -20 -50 -80c-8 -48 -6 -70 24 -70c18 0 37 8 47 64z" />
    <glyph glyph-name="uni0431" unicode="&#x431;" horiz-adv-x="335" 
d="M8 143l56 318c27 153 59 228 142 270c38 19 79 28 173 38l7 -81c-85 -8 -122 -21 -148 -40c-33 -24 -53 -63 -65 -125c13 25 53 53 99 53c58 0 76 -45 61 -131l-53 -302c-17 -95 -69 -151 -163 -151s-126 56 -109 151zM180 143l47 271c8 44 3 67 -23 67
c-24 0 -40 -19 -50 -77l-46 -261c-7 -39 3 -56 26 -56s39 17 46 56z" />
    <glyph glyph-name="uni0432" unicode="&#x432;" horiz-adv-x="344" 
d="M165 0h-181l99 567h163c76 0 110 -36 96 -118l-11 -63c-6 -34 -28 -79 -83 -96c43 -17 66 -44 56 -100l-13 -72c-15 -82 -66 -118 -126 -118zM231 391l5 25c10 50 -13 56 -32 56h-37l-24 -137h37c34 0 44 20 51 56zM197 152l6 33c8 42 -11 56 -40 56h-37l-26 -145h46
c32 0 44 18 51 56z" />
    <glyph glyph-name="uni0433" unicode="&#x433;" horiz-adv-x="304" 
d="M84 0h-100l99 567h262l-16 -93h-162z" />
    <glyph glyph-name="uni0434" unicode="&#x434;" horiz-adv-x="395" 
d="M317 -96h-93l17 96h-181l-17 -96h-100l31 182c33 12 56 35 66 81l85 399h271l-83 -473h37zM213 93l67 381h-72l-64 -295c-9 -41 -24 -68 -49 -86h118z" />
    <glyph glyph-name="uni0435" unicode="&#x435;" horiz-adv-x="327" 
d="M284 187l-6 -35c-19 -111 -71 -160 -163 -160c-94 0 -128 51 -109 160l47 263c19 107 69 160 164 160s127 -52 108 -160l-31 -174h-172l-14 -77c-11 -61 -1 -76 23 -76c27 0 39 17 49 76l4 23h100zM211 335l12 69c10 56 5 76 -23 76s-39 -20 -49 -76l-12 -69h72z" />
    <glyph glyph-name="uni0436" unicode="&#x436;" horiz-adv-x="496" 
d="M432 0h-101c17 97 6 193 -31 290c70 92 114 185 130 277h102c-16 -91 -57 -183 -126 -274c35 -98 43 -195 26 -293zM248 0h-100l99 567h100zM65 0h-101c17 98 59 195 128 293c-37 91 -46 183 -30 274h102c-16 -92 -4 -185 34 -277c-71 -97 -116 -193 -133 -290z" />
    <glyph glyph-name="uni0437" unicode="&#x437;" horiz-adv-x="317" 
d="M272 157l-3 -17c-17 -95 -71 -148 -164 -148c-91 0 -128 51 -106 160l6 30h100l-4 -18c-13 -58 -3 -76 23 -76c32 0 40 26 49 76l2 11c10 56 -35 66 -53 66c-19 0 -29 0 -55 -1l17 96c26 -1 37 -1 54 -1c14 0 65 6 77 66l3 15c9 47 1 64 -25 64c-28 0 -39 -20 -48 -71
h-100c20 115 72 166 161 166c97 0 130 -60 115 -140l-3 -16c-14 -74 -22 -112 -95 -131c65 -22 61 -64 49 -131z" />
    <glyph glyph-name="uni0438" unicode="&#x438;" horiz-adv-x="366" 
d="M282 0h-100l57 312l-162 -312h-93l99 567h100l-57 -312l162 312h93z" />
    <glyph glyph-name="uni0439" unicode="&#x439;" horiz-adv-x="366" 
d="M282 0h-100l57 312l-162 -312h-93l99 567h100l-57 -312l162 312h93zM323 750h56c-16 -78 -61 -124 -139 -124s-108 46 -95 124h56c-4 -27 4 -53 51 -53s64 26 71 53z" />
    <glyph glyph-name="uni043A" unicode="&#x43a;" horiz-adv-x="332" 
d="M268 0h-101c17 97 6 193 -31 290c70 92 114 185 130 277h102c-16 -91 -57 -183 -126 -274c35 -98 43 -195 26 -293zM84 0h-100l99 567h100z" />
    <glyph glyph-name="uni043B" unicode="&#x43b;" horiz-adv-x="358" 
d="M274 0h-100l83 474h-72l-58 -331c-17 -94 -54 -150 -132 -150c-15 0 -28 2 -38 4l14 81c5 -1 10 -1 14 -1c25 0 35 27 42 67l74 423h272z" />
    <glyph glyph-name="uni043C" unicode="&#x43c;" horiz-adv-x="450" 
d="M366 0h-100l57 317l-129 -317h-38l-19 317l-53 -317h-100l99 567h114l22 -316l132 316h114z" />
    <glyph glyph-name="uni043D" unicode="&#x43d;" horiz-adv-x="340" 
d="M256 0h-100l42 242h-72l-42 -242h-100l99 567h100l-40 -232h72l40 232h100z" />
    <glyph glyph-name="uni043E" unicode="&#x43e;" horiz-adv-x="332" 
d="M325 415l-47 -263c-20 -111 -71 -160 -163 -160c-94 0 -128 51 -109 160l47 263c19 107 69 160 164 160s127 -52 108 -160zM180 164l43 240c10 56 5 76 -23 76s-39 -20 -49 -76l-43 -240c-10 -56 -4 -76 24 -76s38 20 48 76z" />
    <glyph glyph-name="uni043F" unicode="&#x43f;" horiz-adv-x="340" 
d="M256 0h-100l83 474h-72l-83 -474h-100l99 567h272z" />
    <glyph glyph-name="uni0440" unicode="&#x440;" horiz-adv-x="337" 
d="M48 -199h-99l134 766h86l1 -46c17 22 47 54 102 54c69 0 76 -49 57 -156l-47 -271c-19 -108 -44 -156 -114 -156c-53 0 -68 28 -77 48zM184 163l43 241c10 56 5 76 -23 76s-39 -20 -49 -76l-43 -241c-10 -56 -5 -76 23 -76s39 20 49 76z" />
    <glyph glyph-name="uni0441" unicode="&#x441;" horiz-adv-x="325" 
d="M291 222l-13 -70c-21 -111 -71 -160 -163 -160c-94 0 -128 51 -109 160l47 263c19 109 71 160 165 160c92 0 127 -49 107 -160l-10 -56h-100l8 45c10 56 5 76 -23 76s-39 -20 -49 -76l-43 -240c-10 -56 -5 -76 23 -76s38 20 49 76l11 58h100z" />
    <glyph glyph-name="uni0442" unicode="&#x442;" horiz-adv-x="299" 
d="M149 0h-100l83 474h-91l16 93h283l-16 -93h-92z" />
    <glyph glyph-name="uni0443" unicode="&#x443;" horiz-adv-x="313" 
d="M105 -200h-104l59 162l-13 605h104l-13 -402l114 402h104z" />
    <glyph glyph-name="uni0444" unicode="&#x444;" horiz-adv-x="464" 
d="M196 -198h-98l33 192c-122 10 -141 91 -126 176l41 228c15 85 62 166 188 176l34 192h98l-34 -192c121 -10 141 -91 126 -176l-41 -228c-15 -85 -63 -166 -188 -176zM149 91l68 386c-50 -7 -66 -50 -72 -82l-39 -222c-6 -32 -4 -75 43 -82zM318 173l39 222
c6 33 4 75 -42 82l-68 -386c49 7 65 50 71 82z" />
    <glyph glyph-name="uni0445" unicode="&#x445;" horiz-adv-x="320" 
d="M266 0h-99l-28 189l-86 -189h-98l145 290l-45 277h99l25 -172l83 172h101l-146 -278z" />
    <glyph glyph-name="uni0446" unicode="&#x446;" horiz-adv-x="381" 
d="M304 -96h-93l17 96h-244l99 567h100l-83 -474h72l83 474h100l-83 -474h65z" />
    <glyph glyph-name="uni0447" unicode="&#x447;" horiz-adv-x="329" 
d="M344 567l-99 -567h-100l45 257c-17 -20 -42 -48 -95 -48c-70 0 -77 48 -58 156l35 202h100l-32 -187c-10 -56 -6 -76 22 -76s40 20 50 76l32 187h100z" />
    <glyph glyph-name="uni0448" unicode="&#x448;" horiz-adv-x="502" 
d="M517 567l-99 -567h-434l99 567h100l-83 -474h67l83 474h100l-83 -474h67l83 474h100z" />
    <glyph glyph-name="uni0449" unicode="&#x449;" horiz-adv-x="543" 
d="M466 -96h-93l17 96h-406l99 567h100l-83 -474h67l83 474h100l-83 -474h67l83 474h100l-83 -474h65z" />
    <glyph glyph-name="uni044A" unicode="&#x44a;" horiz-adv-x="450" 
d="M276 0h-166l83 474h-152l16 93h252l-38 -220h71c51 0 96 -28 80 -118l-20 -111c-17 -95 -77 -118 -126 -118zM308 151l8 46c7 39 -3 56 -26 56h-36l-28 -158h36c23 0 39 17 46 56z" />
    <glyph glyph-name="uni044B" unicode="&#x44b;" horiz-adv-x="505" 
d="M182 151l8 46c7 39 -3 56 -26 56h-36l-28 -158h36c23 0 39 17 46 56zM150 0h-166l99 567h100l-38 -220h71c51 0 96 -28 80 -118l-20 -111c-17 -95 -77 -118 -126 -118zM421 0h-100l99 567h100z" />
    <glyph glyph-name="uni044C" unicode="&#x44c;" horiz-adv-x="324" 
d="M182 151l8 46c7 39 -3 56 -26 56h-36l-28 -158h36c23 0 39 17 46 56zM150 0h-166l99 567h100l-38 -220h71c51 0 96 -28 80 -118l-20 -111c-17 -95 -77 -118 -126 -118z" />
    <glyph glyph-name="uni044D" unicode="&#x44d;" horiz-adv-x="322" 
d="M317 415l-47 -263c-19 -107 -70 -160 -164 -160s-129 54 -108 160l6 30h100l-4 -18c-12 -54 -2 -76 25 -76c29 0 38 26 47 76l14 78h-150l17 93h150l12 69c10 56 5 76 -23 76c-32 0 -39 -26 -49 -76l-1 -5h-100l3 16c22 118 75 160 162 160c92 0 130 -48 110 -160z" />
    <glyph glyph-name="uni044E" unicode="&#x44e;" horiz-adv-x="511" 
d="M84 0h-100l99 567h100l-40 -232h75l14 80c19 109 71 160 165 160s126 -52 107 -160l-47 -263c-20 -112 -71 -160 -162 -160c-92 0 -130 48 -110 160l16 90h-75zM359 164l43 240c10 56 5 76 -23 76s-39 -20 -49 -76l-43 -240c-10 -56 -4 -76 24 -76s38 20 48 76z" />
    <glyph glyph-name="uni044F" unicode="&#x44f;" horiz-adv-x="332" 
d="M248 0h-100l39 222h-32l-101 -222h-93l107 232c-28 15 -43 52 -33 108l20 109c16 88 69 118 126 118h166zM203 316l28 156h-36c-23 0 -39 -17 -46 -56l-8 -44c-7 -39 3 -56 26 -56h36z" />
    <glyph glyph-name="uni0458" unicode="&#x458;" horiz-adv-x="168" 
d="M-117 -203l14 80c7 -1 10 -1 16 -1c42 0 53 27 62 77l108 614h100l-110 -625c-19 -107 -59 -150 -147 -150c-19 0 -31 2 -43 5zM144 625c-35 0 -58 28 -52 63s39 63 74 63s58 -28 52 -63s-39 -63 -74 -63z" />
    <glyph glyph-name="uni0459" unicode="&#x459;" horiz-adv-x="514" 
d="M340 0h-166l83 474h-72l-58 -331c-17 -94 -54 -150 -132 -150c-15 0 -28 2 -38 4l14 81c5 -1 10 -1 14 -1c25 0 35 27 42 67l74 423h272l-38 -220h71c51 0 96 -28 80 -118l-20 -111c-17 -95 -77 -118 -126 -118zM372 151l8 46c7 39 -3 56 -26 56h-36l-28 -158h36
c23 0 39 17 46 56z" />
    <glyph glyph-name="uni045A" unicode="&#x45a;" horiz-adv-x="496" 
d="M322 0h-166l44 253h-72l-44 -253h-100l99 567h100l-38 -221h72l38 221h100l-38 -220h71c51 0 96 -28 80 -118l-20 -111c-17 -95 -77 -118 -126 -118zM354 151l8 46c7 39 -3 56 -26 56h-36l-28 -158h36c23 0 39 17 46 56z" />
    <glyph glyph-name="uni045B" unicode="&#x45b;" 
d="M256 0h-100l71 404c10 56 5 76 -23 76s-39 -20 -49 -76l-71 -404h-100l113 642h-34l12 71h34l10 53h100l-10 -53h115l-12 -71h-115l-21 -115c17 20 42 48 95 48c70 0 77 -48 58 -156z" />
    <glyph glyph-name="uni0454" unicode="&#x454;" horiz-adv-x="322" 
d="M284 182l-6 -30c-22 -111 -67 -160 -161 -160c-98 0 -130 53 -111 160l47 263c19 106 68 160 164 160c89 0 129 -47 108 -160l-3 -16h-100l1 5c11 55 4 76 -24 76c-26 0 -38 -19 -48 -76l-12 -69h150l-17 -93h-150l-14 -78c-10 -57 -3 -76 25 -76c34 0 36 28 47 76l4 18
h100z" />
    <glyph glyph-name="uni0456" unicode="&#x456;" horiz-adv-x="168" 
d="M84 0h-100l99 567h100zM144 625c-35 0 -58 28 -52 63s39 63 74 63s58 -28 52 -63s-39 -63 -74 -63z" />
    <glyph glyph-name="uni0455" unicode="&#x455;" horiz-adv-x="327" 
d="M88 187c-5 -24 -7 -44 -7 -58c0 -30 10 -42 32 -42c30 0 44 22 49 50c22 121 -164 105 -131 292c17 95 73 146 169 146c97 0 131 -52 111 -160l-7 -37h-100l5 26c12 63 -2 76 -27 76c-35 0 -45 -25 -50 -51c-24 -136 164 -100 130 -291c-17 -95 -71 -146 -169 -146
c-78 0 -114 33 -114 113c0 23 3 50 9 82h100z" />
    <glyph glyph-name="uni0491" unicode="&#x491;" horiz-adv-x="304" 
d="M84 0h-100l99 567h169l17 96h93l-33 -189h-162z" />
    <glyph glyph-name="uni045F" unicode="&#x45f;" horiz-adv-x="340" 
d="M150 -96h-93l17 96h-90l99 567h100l-83 -474h72l83 474h100l-99 -567h-89z" />
    <glyph glyph-name="uni0453" unicode="&#x453;" horiz-adv-x="304" 
d="M84 0h-100l99 567h262l-16 -93h-162zM251 637h-73l80 131h111z" />
    <glyph glyph-name="uni0451" unicode="&#x451;" horiz-adv-x="327" 
d="M284 187l-6 -35c-19 -111 -71 -160 -163 -160c-94 0 -128 51 -109 160l47 263c19 107 69 160 164 160s127 -52 108 -160l-31 -174h-172l-14 -77c-11 -61 -1 -76 23 -76c27 0 39 17 49 76l4 23h100zM211 335l12 69c10 56 5 76 -23 76s-39 -20 -49 -76l-12 -69h72zM141 627
c-32 0 -55 26 -49 60s38 59 70 59c33 0 54 -26 49 -59c-5 -32 -36 -60 -70 -60zM312 627c-31 0 -55 23 -49 60c7 37 39 59 69 59c34 0 55 -26 50 -59c-6 -34 -37 -60 -70 -60z" />
    <glyph glyph-name="uni0452" unicode="&#x452;" 
d="M54 -203l14 80c7 -1 10 -1 16 -1c43 0 54 27 63 77l80 451c10 56 5 76 -23 76s-39 -20 -49 -76l-71 -404h-100l113 642h-34l12 71h34l10 53h100l-10 -53h115l-12 -71h-115l-21 -115c17 20 42 48 95 48c70 0 77 -48 58 -156l-84 -477c-19 -107 -59 -150 -148 -150
c-19 0 -31 2 -43 5z" />
    <glyph glyph-name="uni045C" unicode="&#x45c;" horiz-adv-x="332" 
d="M268 0h-101c17 97 6 193 -31 290c70 92 114 185 130 277h102c-16 -91 -57 -183 -126 -274c35 -98 43 -195 26 -293zM84 0h-100l99 567h100zM250 637h-73l80 131h111z" />
    <glyph glyph-name="uni045E" unicode="&#x45e;" horiz-adv-x="313" 
d="M105 -200h-104l59 162l-13 605h104l-13 -402l114 402h104zM297 750h56c-16 -78 -61 -124 -139 -124s-108 46 -95 124h56c-4 -27 4 -53 51 -53s64 26 71 53z" />
    <glyph glyph-name="uni0457" unicode="&#x457;" horiz-adv-x="168" 
d="M84 0h-100l99 567h100zM59 627c-32 0 -55 26 -49 60s38 59 70 59c36 0 54 -30 49 -59c-5 -31 -35 -60 -70 -60zM230 627c-31 0 -55 23 -49 60c7 38 40 59 70 59c33 0 54 -26 49 -59c-5 -32 -36 -60 -70 -60z" />
    <glyph glyph-name="uni2116" unicode="&#x2116;" horiz-adv-x="747" 
d="M366 0h-134l-42 511l-90 -511h-102l135 766h129l45 -520l92 520h102zM763 507l-16 -90c-20 -111 -61 -160 -153 -160c-91 0 -119 48 -99 160l16 90c20 114 65 160 154 160c94 0 117 -51 98 -160zM682 98h-230l15 86h230zM659 428l12 68c10 56 5 76 -23 76
s-39 -20 -49 -76l-12 -68c-10 -56 -5 -76 23 -76s39 20 49 76z" />
    <glyph glyph-name="angstrom" unicode="&#x212b;" horiz-adv-x="383" 
d="M320 0h-102l9 170h-113l-49 -170h-102l244 755c-11 15 -14 35 -10 57c9 49 52 87 101 87s82 -38 73 -87c-4 -22 -16 -42 -31 -57zM233 267l24 392l-114 -392h90zM315 812c3 18 -8 31 -26 31s-33 -13 -36 -31s7 -31 25 -31s34 13 37 31z" />
    <glyph glyph-name="G.alt" horiz-adv-x="391" 
d="M237 160l28 160h-68l17 97h170l-48 -270c-20 -115 -101 -160 -190 -160c-91 0 -156 47 -136 160l84 472c20 113 98 160 192 160c91 0 154 -45 134 -160l-21 -119h-102l18 106c10 56 -14 76 -47 76s-65 -20 -75 -76l-78 -446c-10 -56 14 -76 47 -76s65 20 75 76z" />
    <glyph glyph-name="J.alt" horiz-adv-x="207" 
d="M-42 -12h-4l17 97h4c28 0 60 20 70 76l107 605h102l-109 -618c-20 -115 -102 -160 -187 -160z" />
    <glyph glyph-name="R.alt" horiz-adv-x="383" 
d="M301 0h-102l42 239c10 56 -15 76 -53 76h-41l-55 -315h-102l135 766h172c77 0 130 -49 110 -160l-22 -125c-9 -52 -36 -95 -93 -116c54 -16 61 -66 51 -123zM285 488l18 105c9 53 -2 76 -43 76h-51l-45 -257h51c38 0 60 20 70 76z" />
    <glyph glyph-name="a.alt" horiz-adv-x="331" 
d="M247 0h-87v46c-19 -27 -52 -54 -98 -54c-71 0 -77 63 -60 164l6 36c18 107 63 152 134 152h65l11 60c10 56 5 76 -23 76c-25 0 -39 -16 -49 -76l-3 -18h-100l4 27c16 107 72 162 168 162c95 0 123 -53 105 -156zM175 164l19 103h-36c-28 0 -42 -30 -52 -86l-3 -17
c-11 -61 -1 -76 23 -76c32 0 40 26 49 76z" />
    <glyph glyph-name="g.alt" horiz-adv-x="337" 
d="M146 -36l13 73c-18 -21 -47 -45 -95 -45c-71 0 -75 52 -57 156l47 271c19 107 44 156 113 156c55 0 73 -32 82 -54l17 46h86l-108 -615c-19 -108 -71 -160 -164 -160s-127 53 -109 152h100c-5 -36 -2 -56 26 -56s39 20 49 76zM181 163l43 241c10 56 5 76 -23 76
s-39 -20 -49 -76l-43 -241c-10 -56 -5 -76 23 -76s39 20 49 76z" />
    <glyph glyph-name="j.alt" horiz-adv-x="168" 
d="M28 -199h-99c26 56 39 113 49 169l105 597h100l-105 -601c-10 -55 -23 -110 -50 -165zM144 625c-35 0 -58 28 -52 63s39 63 74 63s58 -28 52 -63s-39 -63 -74 -63z" />
    <glyph glyph-name="y.alt" 
d="M148 -36l13 73c-18 -21 -47 -45 -95 -45c-69 0 -76 49 -57 156l73 419h100l-71 -404c-10 -56 -5 -76 23 -76s39 20 49 76l71 404h100l-108 -615c-19 -108 -71 -160 -164 -160s-127 53 -109 152h100c-5 -36 -2 -56 26 -56s39 20 49 76z" />
    <glyph glyph-name="Gcircumflex.alt" horiz-adv-x="391" 
d="M237 160l28 160h-68l17 97h170l-48 -270c-20 -115 -101 -160 -190 -160c-91 0 -156 47 -136 160l84 472c20 113 98 160 192 160c91 0 154 -45 134 -160l-21 -119h-102l18 106c10 56 -14 76 -47 76s-65 -20 -75 -76l-78 -446c-10 -56 14 -76 47 -76s65 20 75 76zM417 836
h-78l-32 77l-53 -77h-81l100 141h90z" />
    <glyph glyph-name="Gbreve.alt" horiz-adv-x="391" 
d="M237 160l28 160h-68l17 97h170l-48 -270c-20 -115 -101 -160 -190 -160c-91 0 -156 47 -136 160l84 472c20 113 98 160 192 160c91 0 154 -45 134 -160l-21 -119h-102l18 106c10 56 -14 76 -47 76s-65 -20 -75 -76l-78 -446c-10 -56 14 -76 47 -76s65 20 75 76zM376 949
h56c-16 -78 -61 -124 -139 -124s-108 46 -95 124h56c-4 -27 4 -53 51 -53s64 26 71 53z" />
    <glyph glyph-name="Gdotaccent.alt" horiz-adv-x="391" 
d="M237 160l28 160h-68l17 97h170l-48 -270c-20 -115 -101 -160 -190 -160c-91 0 -156 47 -136 160l84 472c20 113 98 160 192 160c91 0 154 -45 134 -160l-21 -119h-102l18 106c10 56 -14 76 -47 76s-65 -20 -75 -76l-78 -446c-10 -56 14 -76 47 -76s65 20 75 76zM294 831
c-32 0 -55 26 -49 60s38 59 70 59c33 0 54 -26 49 -59c-5 -32 -36 -60 -70 -60z" />
    <glyph glyph-name="Gcommaaccent.alt" horiz-adv-x="391" 
d="M237 160l28 160h-68l17 97h170l-48 -270c-20 -115 -101 -160 -190 -160c-91 0 -156 47 -136 160l84 472c20 113 98 160 192 160c91 0 154 -45 134 -160l-21 -119h-102l18 106c10 56 -14 76 -47 76s-65 -20 -75 -76l-78 -446c-10 -56 14 -76 47 -76s65 20 75 76zM106 -206
h-75l80 156h106z" />
    <glyph glyph-name="IJ.alt" horiz-adv-x="389" 
d="M92 0h-102l135 766h102zM140 -12h-4l17 97h4c28 0 60 20 70 76l107 605h102l-109 -618c-20 -115 -102 -160 -187 -160z" />
    <glyph glyph-name="ij.alt" horiz-adv-x="336" 
d="M84 0h-100l99 567h100zM144 625c-35 0 -58 28 -52 63s39 63 74 63s58 -28 52 -63s-39 -63 -74 -63zM196 -199h-99c26 56 39 113 49 169l105 597h100l-105 -601c-10 -55 -23 -110 -50 -165zM312 625c-35 0 -58 28 -52 63s39 63 74 63s58 -28 52 -63s-39 -63 -74 -63z" />
    <glyph glyph-name="Jcircumflex.alt" horiz-adv-x="207" 
d="M337 836h-78l-32 77l-53 -77h-81l100 141h90zM-42 -12h-4l17 97h4c28 0 60 20 70 76l107 605h102l-109 -618c-20 -115 -102 -160 -187 -160z" />
    <glyph glyph-name="Racute.alt" horiz-adv-x="383" 
d="M301 0h-102l42 239c10 56 -15 76 -53 76h-41l-55 -315h-102l135 766h172c77 0 130 -49 110 -160l-22 -125c-9 -52 -36 -95 -93 -116c54 -16 61 -66 51 -123zM285 488l18 105c9 53 -2 76 -43 76h-51l-45 -257h51c38 0 60 20 70 76zM301 836h-73l80 131h111z" />
    <glyph glyph-name="Rcommaaccent.alt" horiz-adv-x="383" 
d="M301 0h-102l42 239c10 56 -15 76 -53 76h-41l-55 -315h-102l135 766h172c77 0 130 -49 110 -160l-22 -125c-9 -52 -36 -95 -93 -116c54 -16 61 -66 51 -123zM285 488l18 105c9 53 -2 76 -43 76h-51l-45 -257h51c38 0 60 20 70 76zM101 -206h-75l80 156h106z" />
    <glyph glyph-name="Rcaron.alt" horiz-adv-x="383" 
d="M301 0h-102l42 239c10 56 -15 76 -53 76h-41l-55 -315h-102l135 766h172c77 0 130 -49 110 -160l-22 -125c-9 -52 -36 -95 -93 -116c54 -16 61 -66 51 -123zM285 488l18 105c9 53 -2 76 -43 76h-51l-45 -257h51c38 0 60 20 70 76zM328 836h-90l-54 141h78l31 -77l54 77
h81z" />
    <glyph glyph-name="jcircumflex.alt" horiz-adv-x="168" 
d="M28 -199h-99c26 56 39 113 49 169l105 597h100l-105 -601c-10 -55 -23 -110 -50 -165zM268 637h-78l-32 77l-53 -77h-81l100 141h90z" />
    <glyph glyph-name="dotlessj.alt" horiz-adv-x="168" 
d="M28 -199h-99c26 56 39 113 49 169l105 597h100l-105 -601c-10 -55 -23 -110 -50 -165z" />
    <glyph glyph-name="agrave.alt" horiz-adv-x="331" 
d="M247 0h-87v46c-19 -27 -52 -54 -98 -54c-71 0 -77 63 -60 164l6 36c18 107 63 152 134 152h65l11 60c10 56 5 76 -23 76c-25 0 -39 -16 -49 -76l-3 -18h-100l4 27c16 107 72 162 168 162c95 0 123 -53 105 -156zM175 164l19 103h-36c-28 0 -42 -30 -52 -86l-3 -17
c-11 -61 -1 -76 23 -76c32 0 40 26 49 76zM285 637h-73l-72 131h111z" />
    <glyph glyph-name="aacute.alt" horiz-adv-x="331" 
d="M247 0h-87v46c-19 -27 -52 -54 -98 -54c-71 0 -77 63 -60 164l6 36c18 107 63 152 134 152h65l11 60c10 56 5 76 -23 76c-25 0 -39 -16 -49 -76l-3 -18h-100l4 27c16 107 72 162 168 162c95 0 123 -53 105 -156zM175 164l19 103h-36c-28 0 -42 -30 -52 -86l-3 -17
c-11 -61 -1 -76 23 -76c32 0 40 26 49 76zM246 637h-73l80 131h111z" />
    <glyph glyph-name="adieresis.alt" horiz-adv-x="330" 
d="M247 0h-87v46c-19 -27 -52 -54 -98 -54c-71 0 -77 63 -60 164l6 36c18 107 63 152 134 152h65l11 60c10 56 5 76 -23 76c-25 0 -39 -16 -49 -76l-3 -18h-100l4 27c16 107 72 162 168 162c95 0 123 -53 105 -156zM175 164l19 103h-36c-28 0 -42 -30 -52 -86l-3 -17
c-11 -61 -1 -76 23 -76c32 0 40 26 49 76zM136 627c-32 0 -55 26 -49 60s38 59 70 59c33 0 54 -26 49 -59c-5 -32 -36 -60 -70 -60zM307 627c-31 0 -55 23 -49 60c7 37 39 59 69 59c34 0 55 -26 50 -59c-6 -34 -37 -60 -70 -60z" />
    <glyph glyph-name="acircumflex.alt" horiz-adv-x="331" 
d="M247 0h-87v46c-19 -27 -52 -54 -98 -54c-71 0 -77 63 -60 164l6 36c18 107 63 152 134 152h65l11 60c10 56 5 76 -23 76c-25 0 -39 -16 -49 -76l-3 -18h-100l4 27c16 107 72 162 168 162c95 0 123 -53 105 -156zM175 164l19 103h-36c-28 0 -42 -30 -52 -86l-3 -17
c-11 -61 -1 -76 23 -76c32 0 40 26 49 76zM344 637h-78l-32 77l-53 -77h-81l100 141h90z" />
    <glyph glyph-name="aring.alt" horiz-adv-x="331" 
d="M247 0h-87v46c-19 -27 -52 -54 -98 -54c-71 0 -77 63 -60 164l6 36c18 107 63 152 134 152h65l11 60c10 56 5 76 -23 76c-25 0 -39 -16 -49 -76l-3 -18h-100l4 27c16 107 72 162 168 162c95 0 123 -53 105 -156zM175 164l19 103h-36c-28 0 -42 -30 -52 -86l-3 -17
c-11 -61 -1 -76 23 -76c32 0 40 26 49 76zM266 703c4 19 -8 31 -25 31c-18 0 -34 -14 -37 -31c-3 -18 8 -31 26 -31c19 0 33 14 36 31zM220 616c-52 0 -80 42 -72 87c8 48 54 87 103 87s80 -38 71 -87c-9 -50 -53 -87 -102 -87z" />
    <glyph glyph-name="atilde.alt" horiz-adv-x="331" 
d="M247 0h-87v46c-19 -27 -52 -54 -98 -54c-71 0 -77 63 -60 164l6 36c18 107 63 152 134 152h65l11 60c10 56 5 76 -23 76c-25 0 -39 -16 -49 -76l-3 -18h-100l4 27c16 107 72 162 168 162c95 0 123 -53 105 -156zM175 164l19 103h-36c-28 0 -42 -30 -52 -86l-3 -17
c-11 -61 -1 -76 23 -76c32 0 40 26 49 76zM298 732h65c-12 -53 -41 -95 -89 -95c-33 0 -49 19 -82 19c-8 0 -22 -1 -27 -20h-65c11 53 40 95 88 95c32 0 51 -19 80 -19c9 0 24 0 30 20z" />
    <glyph glyph-name="amacron.alt" horiz-adv-x="331" 
d="M247 0h-87v46c-19 -27 -52 -54 -98 -54c-71 0 -77 63 -60 164l6 36c18 107 63 152 134 152h65l11 60c10 56 5 76 -23 76c-25 0 -39 -16 -49 -76l-3 -18h-100l4 27c16 107 72 162 168 162c95 0 123 -53 105 -156zM175 164l19 103h-36c-28 0 -42 -30 -52 -86l-3 -17
c-11 -61 -1 -76 23 -76c32 0 40 26 49 76zM355 637h-262l14 81h262z" />
    <glyph glyph-name="abreve.alt" horiz-adv-x="331" 
d="M247 0h-87v46c-19 -27 -52 -54 -98 -54c-71 0 -77 63 -60 164l6 36c18 107 63 152 134 152h65l11 60c10 56 5 76 -23 76c-25 0 -39 -16 -49 -76l-3 -18h-100l4 27c16 107 72 162 168 162c95 0 123 -53 105 -156zM175 164l19 103h-36c-28 0 -42 -30 -52 -86l-3 -17
c-11 -61 -1 -76 23 -76c32 0 40 26 49 76zM306 750h56c-16 -78 -61 -124 -139 -124s-108 46 -95 124h56c-4 -27 4 -53 51 -53s64 26 71 53z" />
    <glyph glyph-name="aogonek.alt" horiz-adv-x="331" 
d="M233 -156l-44 -52c-75 4 -117 54 -107 111c6 34 31 69 77 94l1 49c-20 -29 -55 -54 -99 -54c-72 0 -75 68 -59 164l6 36c18 107 63 152 134 152h65l11 60c10 56 5 76 -23 76c-25 0 -39 -16 -49 -76l-3 -18h-100l4 27c17 114 78 162 167 162c90 0 125 -48 106 -156
l-73 -419c-43 -25 -69 -57 -74 -86c-5 -31 13 -59 60 -70zM175 164l19 103h-36c-28 0 -42 -30 -52 -86l-3 -17c-11 -61 -1 -76 23 -76c32 0 40 26 49 76z" />
    <glyph glyph-name="gcircumflex.alt" horiz-adv-x="337" 
d="M146 -36l13 73c-18 -21 -47 -45 -95 -45c-71 0 -75 52 -57 156l47 271c19 107 44 156 113 156c55 0 73 -32 82 -54l17 46h86l-108 -615c-19 -108 -71 -160 -164 -160s-127 53 -109 152h100c-5 -36 -2 -56 26 -56s39 20 49 76zM181 163l43 241c10 56 5 76 -23 76
s-39 -20 -49 -76l-43 -241c-10 -56 -5 -76 23 -76s39 20 49 76zM351 637h-78l-32 77l-53 -77h-81l100 141h90z" />
    <glyph glyph-name="gbreve.alt" horiz-adv-x="337" 
d="M146 -36l13 73c-18 -21 -47 -45 -95 -45c-71 0 -75 52 -57 156l47 271c19 107 44 156 113 156c55 0 73 -32 82 -54l17 46h86l-108 -615c-19 -108 -71 -160 -164 -160s-127 53 -109 152h100c-5 -36 -2 -56 26 -56s39 20 49 76zM181 163l43 241c10 56 5 76 -23 76
s-39 -20 -49 -76l-43 -241c-10 -56 -5 -76 23 -76s39 20 49 76zM311 750h56c-16 -78 -61 -124 -139 -124s-108 46 -95 124h56c-4 -27 4 -53 51 -53s64 26 71 53z" />
    <glyph glyph-name="gdotaccent.alt" horiz-adv-x="337" 
d="M146 -36l13 73c-18 -21 -47 -45 -95 -45c-71 0 -75 52 -57 156l47 271c19 107 44 156 113 156c55 0 73 -32 82 -54l17 46h86l-108 -615c-19 -108 -71 -160 -164 -160s-127 53 -109 152h100c-5 -36 -2 -56 26 -56s39 20 49 76zM181 163l43 241c10 56 5 76 -23 76
s-39 -20 -49 -76l-43 -241c-10 -56 -5 -76 23 -76s39 20 49 76zM229 632c-32 0 -55 26 -49 60s38 59 70 59c33 0 54 -26 49 -59c-5 -32 -36 -60 -70 -60z" />
    <glyph glyph-name="gcommaaccent.alt" horiz-adv-x="337" 
d="M146 -36l13 73c-18 -21 -47 -45 -95 -45c-71 0 -75 52 -57 156l47 271c19 107 44 156 113 156c55 0 73 -32 82 -54l17 46h86l-108 -615c-19 -108 -71 -160 -164 -160s-127 53 -109 152h100c-5 -36 -2 -56 26 -56s39 20 49 76zM181 163l43 241c10 56 5 76 -23 76
s-39 -20 -49 -76l-43 -241c-10 -56 -5 -76 23 -76s39 20 49 76zM282 793h75l-80 -156h-106z" />
    <glyph glyph-name="eng.alt" 
d="M200 -199h-100c27 56 40 113 50 169l77 434c10 56 5 76 -23 76s-39 -20 -49 -76l-71 -404h-100l99 567h86l1 -46c17 22 47 54 102 54c71 0 75 -52 57 -156l-79 -453c-10 -55 -23 -110 -50 -165z" />
    <glyph glyph-name="ygrave.alt" 
d="M148 -36l13 73c-18 -21 -47 -45 -95 -45c-69 0 -76 49 -57 156l73 419h100l-71 -404c-10 -56 -5 -76 23 -76s39 20 49 76l71 404h100l-108 -615c-19 -108 -71 -160 -164 -160s-127 53 -109 152h100c-5 -36 -2 -56 26 -56s39 20 49 76zM279 637h-73l-72 131h111z" />
    <glyph glyph-name="yacute.alt" 
d="M148 -36l13 73c-18 -21 -47 -45 -95 -45c-69 0 -76 49 -57 156l73 419h100l-71 -404c-10 -56 -5 -76 23 -76s39 20 49 76l71 404h100l-108 -615c-19 -108 -71 -160 -164 -160s-127 53 -109 152h100c-5 -36 -2 -56 26 -56s39 20 49 76zM250 637h-73l80 131h111z" />
    <glyph glyph-name="ycircumflex.alt" 
d="M148 -36l13 73c-18 -21 -47 -45 -95 -45c-69 0 -76 49 -57 156l73 419h100l-71 -404c-10 -56 -5 -76 23 -76s39 20 49 76l71 404h100l-108 -615c-19 -108 -71 -160 -164 -160s-127 53 -109 152h100c-5 -36 -2 -56 26 -56s39 20 49 76zM353 637h-78l-32 77l-53 -77h-81
l100 141h90z" />
    <glyph glyph-name="ydieresis.alt" 
d="M148 -36l13 73c-18 -21 -47 -45 -95 -45c-69 0 -76 49 -57 156l73 419h100l-71 -404c-10 -56 -5 -76 23 -76s39 20 49 76l71 404h100l-108 -615c-19 -108 -71 -160 -164 -160s-127 53 -109 152h100c-5 -36 -2 -56 26 -56s39 20 49 76zM145 627c-32 0 -55 26 -49 60
s38 59 70 59c33 0 54 -26 49 -59c-5 -32 -36 -60 -70 -60zM316 627c-31 0 -55 23 -49 60c7 37 39 59 69 59c34 0 55 -26 50 -59c-6 -34 -37 -60 -70 -60z" />
    <glyph glyph-name="Kappa.alt" horiz-adv-x="370" 
d="M316 0h-102c15 128 -10 255 -54 383c84 128 146 255 170 383h102c-23 -127 -82 -253 -163 -380c42 -129 64 -257 47 -386zM92 0h-102l135 766h102z" />
    <glyph glyph-name="alpha.alt" horiz-adv-x="335" 
d="M252 0h-86l-1 46c-17 -22 -47 -54 -102 -54c-69 0 -76 49 -57 156l47 267c19 109 71 160 165 160c92 0 126 -49 107 -160zM180 163l43 241c10 56 5 76 -23 76s-39 -20 -49 -76l-43 -241c-10 -56 -5 -76 23 -76s39 20 49 76z" />
    <glyph glyph-name="gamma.alt" horiz-adv-x="332" 
d="M146 -198h-100l38 194l-1 408c0 53 -7 71 -26 71c-4 0 -7 -1 -11 -2l1 91c23 5 42 7 57 7c63 0 78 -37 74 -110l-18 -296l116 402h104l-204 -571z" />
    <glyph glyph-name="eta.alt" 
d="M220 -199h-100l107 603c10 56 5 76 -23 76s-39 -20 -49 -76l-71 -404h-100l99 567h86l1 -46c17 22 47 54 102 54c69 0 76 -49 57 -156z" />
    <glyph glyph-name="kappa.alt" horiz-adv-x="332" 
d="M268 0h-101c17 97 6 193 -31 290c70 92 114 185 130 277h102c-16 -91 -57 -183 -126 -274c35 -98 43 -195 26 -293zM84 0h-100l99 567h100z" />
    <glyph glyph-name="alphatonos.alt" horiz-adv-x="335" 
d="M252 0h-86l-1 46c-17 -22 -47 -54 -102 -54c-69 0 -76 49 -57 156l47 267c19 109 71 160 165 160c92 0 126 -49 107 -160zM180 163l43 241c10 56 5 76 -23 76s-39 -20 -49 -76l-43 -241c-10 -56 -5 -76 23 -76s39 20 49 76zM238 637h-73l80 131h111z" />
    <glyph glyph-name="etatonos.alt" 
d="M220 -199h-100l107 603c10 56 5 76 -23 76s-39 -20 -49 -76l-71 -404h-100l99 567h86l1 -46c17 22 47 54 102 54c69 0 76 -49 57 -156zM247 637h-73l80 131h111z" />
    <glyph glyph-name="uni042F.alt" horiz-adv-x="383" 
d="M263 412l45 257h-51c-38 0 -59 -20 -69 -76l-18 -105c-10 -56 4 -76 42 -76h51zM293 0h-102l55 315h-41c-38 0 -69 -20 -79 -76l-42 -239h-102l42 242c10 57 35 107 95 123c-49 21 -62 64 -53 116l22 125c20 111 91 160 168 160h172z" />
    <glyph glyph-name="uni0408.alt" horiz-adv-x="207" 
d="M-42 -12h-4l17 97h4c28 0 60 20 70 76l107 605h102l-109 -618c-20 -115 -102 -160 -187 -160z" />
    <glyph glyph-name="uni0430.alt" horiz-adv-x="331" 
d="M247 0h-87v46c-19 -27 -52 -54 -98 -54c-71 0 -77 63 -60 164l6 36c18 107 63 152 134 152h65l11 60c10 56 5 76 -23 76c-25 0 -39 -16 -49 -76l-3 -18h-100l4 27c17 115 75 162 166 162c96 0 125 -52 107 -156zM175 164l19 103h-36c-28 0 -42 -30 -52 -86l-3 -17
c-11 -61 -1 -76 23 -76c32 0 40 26 49 76z" />
    <glyph glyph-name="uni044F.alt" horiz-adv-x="341" 
d="M257 0h-100l38 221h-29c-29 0 -52 -14 -59 -56l-29 -165h-100l29 170c10 56 35 83 84 100c-47 16 -56 58 -49 96l15 83c15 82 60 118 136 118h163zM212 315l28 157h-37c-29 0 -45 -14 -52 -56l-8 -45c-7 -41 3 -56 32 -56h37z" />
    <glyph glyph-name="uni0458.alt" horiz-adv-x="168" 
d="M28 -199h-99c26 56 39 113 49 169l105 597h100l-105 -601c-10 -55 -23 -110 -50 -165zM144 625c-35 0 -58 28 -52 63s39 63 74 63s58 -28 52 -63s-39 -63 -74 -63z" />
    <glyph glyph-name="uni0452.alt" 
d="M200 -199h-100c27 56 40 113 50 169l77 434c10 56 5 76 -23 76s-39 -20 -49 -76l-71 -404h-100l113 642h-34l12 71h34l10 53h100l-10 -53h115l-12 -71h-115l-21 -115c17 20 42 48 95 48c70 0 77 -48 58 -156l-79 -453c-10 -55 -23 -110 -50 -165z" />
    <glyph glyph-name="dollar.alt" horiz-adv-x="326" 
d="M169 0h-100l18 104c-66 14 -86 68 -70 154l7 37h100l-5 -24c-10 -49 -2 -76 30 -76c27 0 42 19 48 50c22 120 -164 105 -131 292c14 78 54 127 122 141l16 89h100l-16 -91c54 -15 74 -68 58 -153l-7 -37h-100l5 26c12 63 -2 76 -27 76c-35 0 -45 -25 -50 -51
c-24 -136 164 -99 130 -291c-13 -73 -47 -121 -110 -139z" />
    <glyph glyph-name="sterling.alt" horiz-adv-x="417" 
d="M340 0h-369l17 102h55l38 212h-55l17 96h55l35 202c24 138 117 167 194 167c76 0 145 -28 122 -167l-7 -44h-102l6 38c9 55 -12 76 -41 76c-28 0 -61 -19 -71 -76l-34 -196h185l-17 -96h-185l-38 -212h212z" />
    <glyph glyph-name="registered.alt" horiz-adv-x="697" 
d="M294 -8c-231 0 -298 149 -256 388c43 244 166 391 394 391c227 0 302 -147 259 -390c-43 -242 -168 -389 -397 -389zM312 77c163 0 256 99 292 303c37 210 -26 307 -187 307c-167 0 -257 -104 -292 -303c-37 -212 27 -307 187 -307zM467 152h-92l-17 160h-27l-29 -159
h-90l83 467h156c53 0 92 -31 78 -110l-15 -88c-10 -57 -37 -89 -70 -102zM428 450l5 30c7 41 -4 53 -29 53h-35l-23 -135h35c23 0 40 11 47 52z" />
    <glyph glyph-name="A.uni" horiz-adv-x="384" 
d="M296 0h-92l3 48c-30 -41 -67 -61 -118 -61c-71 0 -106 40 -90 130l31 174c16 91 65 130 135 130c48 0 77 -18 93 -53l42 238c10 56 -14 76 -42 76c-30 0 -61 -23 -70 -76l-18 -106h-102l22 126c20 115 101 153 181 153c90 0 154 -47 134 -160zM222 169l13 70
c11 59 -8 86 -45 86c-28 0 -54 -16 -67 -86l-13 -70c-14 -75 15 -86 39 -86c35 0 62 25 73 86z" />
    <glyph glyph-name="E.uni" horiz-adv-x="391" 
d="M356 256l-20 -109c-20 -110 -91 -160 -189 -160c-95 0 -157 47 -137 160l84 472c20 113 101 160 192 160c89 0 154 -45 134 -160l-46 -260h-224l-35 -199c-10 -56 14 -76 47 -76s65 20 75 76l17 96h102zM289 456l26 150c10 56 -14 76 -47 76s-65 -20 -75 -76l-26 -150
h122z" />
    <glyph glyph-name="M.uni" horiz-adv-x="609" 
d="M521 0h-102l105 597c13 74 -13 86 -37 86c-33 0 -64 -22 -74 -79l-106 -604h-102l105 597c13 74 -13 86 -38 86c-33 0 -63 -22 -74 -86l-105 -597h-103l135 766h92l-4 -48c30 41 67 61 118 61c50 0 83 -20 92 -67c32 47 74 67 123 67c67 0 105 -37 89 -130z" />
    <glyph glyph-name="N.uni" horiz-adv-x="395" 
d="M307 0h-102l105 597c13 74 -13 86 -38 86c-33 0 -63 -22 -74 -86l-105 -597h-103l135 766h92l-4 -48c30 41 67 61 118 61c69 0 106 -37 90 -130z" />
    <glyph glyph-name="U.uni" horiz-adv-x="395" 
d="M305 0h-92l3 48c-30 -41 -67 -61 -118 -61c-69 0 -106 37 -90 130l115 649h102l-106 -597c-13 -74 13 -86 38 -86c33 0 63 22 74 86l106 597h103z" />
    <glyph glyph-name="Agrave.uni" horiz-adv-x="384" 
d="M296 0h-92l3 48c-30 -41 -67 -61 -118 -61c-71 0 -106 40 -90 130l31 174c16 91 65 130 135 130c48 0 77 -18 93 -53l42 238c10 56 -14 76 -42 76c-30 0 -61 -23 -70 -76l-18 -106h-102l22 126c20 115 101 153 181 153c90 0 154 -47 134 -160zM222 169l13 70
c11 59 -8 86 -45 86c-28 0 -54 -16 -67 -86l-13 -70c-14 -75 15 -86 39 -86c35 0 62 25 73 86zM333 836h-73l-72 131h111z" />
    <glyph glyph-name="Aacute.uni" horiz-adv-x="384" 
d="M296 0h-92l3 48c-30 -41 -67 -61 -118 -61c-71 0 -106 40 -90 130l31 174c16 91 65 130 135 130c48 0 77 -18 93 -53l42 238c10 56 -14 76 -42 76c-30 0 -61 -23 -70 -76l-18 -106h-102l22 126c20 115 101 153 181 153c90 0 154 -47 134 -160zM222 169l13 70
c11 59 -8 86 -45 86c-28 0 -54 -16 -67 -86l-13 -70c-14 -75 15 -86 39 -86c35 0 62 25 73 86zM313 836h-73l80 131h111z" />
    <glyph glyph-name="Acircumflex.uni" horiz-adv-x="384" 
d="M296 0h-92l3 48c-30 -41 -67 -61 -118 -61c-71 0 -106 40 -90 130l31 174c16 91 65 130 135 130c48 0 77 -18 93 -53l42 238c10 56 -14 76 -42 76c-30 0 -61 -23 -70 -76l-18 -106h-102l22 126c20 115 101 153 181 153c90 0 154 -47 134 -160zM222 169l13 70
c11 59 -8 86 -45 86c-28 0 -54 -16 -67 -86l-13 -70c-14 -75 15 -86 39 -86c35 0 62 25 73 86zM406 836h-78l-32 77l-53 -77h-81l100 141h90z" />
    <glyph glyph-name="Adieresis.uni" horiz-adv-x="384" 
d="M296 0h-92l3 48c-30 -41 -67 -61 -118 -61c-71 0 -106 40 -90 130l31 174c16 91 65 130 135 130c48 0 77 -18 93 -53l42 238c10 56 -14 76 -42 76c-30 0 -61 -23 -70 -76l-18 -106h-102l22 126c20 115 101 153 181 153c90 0 154 -47 134 -160zM222 169l13 70
c11 59 -8 86 -45 86c-28 0 -54 -16 -67 -86l-13 -70c-14 -75 15 -86 39 -86c35 0 62 25 73 86zM197 826c-32 0 -55 26 -49 60s38 59 70 59c33 0 54 -26 49 -59c-5 -32 -36 -60 -70 -60zM368 826c-31 0 -55 23 -49 60c7 37 39 59 69 59c34 0 55 -26 50 -59
c-6 -34 -37 -60 -70 -60z" />
    <glyph glyph-name="Atilde.uni" horiz-adv-x="384" 
d="M296 0h-92l3 48c-30 -41 -67 -61 -118 -61c-71 0 -106 40 -90 130l31 174c16 91 65 130 135 130c48 0 77 -18 93 -53l42 238c10 56 -14 76 -42 76c-30 0 -61 -23 -70 -76l-18 -106h-102l22 126c20 115 101 153 181 153c90 0 154 -47 134 -160zM222 169l13 70
c11 59 -8 86 -45 86c-28 0 -54 -16 -67 -86l-13 -70c-14 -75 15 -86 39 -86c35 0 62 25 73 86zM359 931h65c-12 -53 -41 -95 -89 -95c-33 0 -49 19 -82 19c-8 0 -22 -1 -27 -20h-65c11 53 40 95 88 95c32 0 51 -19 80 -19c9 0 24 0 30 20z" />
    <glyph glyph-name="Amacron.uni" horiz-adv-x="384" 
d="M296 0h-92l3 48c-30 -41 -67 -61 -118 -61c-71 0 -106 40 -90 130l31 174c16 91 65 130 135 130c48 0 77 -18 93 -53l42 238c10 56 -14 76 -42 76c-30 0 -61 -23 -70 -76l-18 -106h-102l22 126c20 115 101 153 181 153c90 0 154 -47 134 -160zM222 169l13 70
c11 59 -8 86 -45 86c-28 0 -54 -16 -67 -86l-13 -70c-14 -75 15 -86 39 -86c35 0 62 25 73 86zM415 836h-262l14 81h262z" />
    <glyph glyph-name="Abreve.uni" horiz-adv-x="384" 
d="M296 0h-92l3 48c-30 -41 -67 -61 -118 -61c-71 0 -106 40 -90 130l31 174c16 91 65 130 135 130c48 0 77 -18 93 -53l42 238c10 56 -14 76 -42 76c-30 0 -61 -23 -70 -76l-18 -106h-102l22 126c20 115 101 153 181 153c90 0 154 -47 134 -160zM222 169l13 70
c11 59 -8 86 -45 86c-28 0 -54 -16 -67 -86l-13 -70c-14 -75 15 -86 39 -86c35 0 62 25 73 86zM365 949h56c-16 -78 -61 -124 -139 -124s-108 46 -95 124h56c-4 -27 4 -53 51 -53s64 26 71 53z" />
    <glyph glyph-name="Aring.uni" horiz-adv-x="384" 
d="M296 0h-92l3 48c-30 -41 -67 -61 -118 -61c-71 0 -106 40 -90 130l31 174c16 91 65 130 135 130c48 0 77 -18 93 -53l42 238c10 56 -14 76 -42 76c-30 0 -61 -23 -70 -76l-18 -106h-102l22 126c20 115 101 153 181 153c90 0 154 -47 134 -160zM222 169l13 70
c11 59 -8 86 -45 86c-28 0 -54 -16 -67 -86l-13 -70c-14 -75 15 -86 39 -86c35 0 62 25 73 86zM326 902c4 19 -8 31 -25 31c-18 0 -34 -14 -37 -31c-3 -18 8 -31 26 -31c19 0 33 14 36 31zM280 815c-52 0 -80 42 -72 87c8 48 54 87 103 87s80 -38 71 -87
c-9 -50 -53 -87 -102 -87z" />
    <glyph glyph-name="Aogonek.uni" horiz-adv-x="384" 
d="M282 -156l-44 -52c-75 4 -117 54 -107 110c6 34 29 68 73 93l3 53c-30 -41 -67 -61 -118 -61c-71 0 -106 40 -90 130l31 174c16 91 65 130 135 130c48 0 77 -18 93 -53l42 238c10 56 -14 76 -42 76c-30 0 -61 -23 -70 -76l-18 -106h-102l22 126c20 115 101 153 181 153
c90 0 154 -47 134 -160l-109 -619c-43 -25 -69 -57 -74 -86c-5 -31 13 -59 60 -70zM222 169l13 70c11 59 -8 86 -45 86c-28 0 -54 -16 -67 -86l-13 -70c-14 -75 15 -86 39 -86c35 0 62 25 73 86z" />
    <glyph glyph-name="AE.uni" horiz-adv-x="600" 
d="M565 256l-20 -109c-20 -111 -92 -160 -190 -160c-67 0 -117 23 -133 77c-44 -60 -86 -77 -133 -77c-71 0 -106 40 -90 130l31 174c16 91 65 130 135 130c48 0 77 -18 93 -53l42 238c10 56 -14 76 -42 76c-30 0 -61 -23 -70 -76l-18 -106h-102l22 126
c20 115 101 153 181 153c43 0 80 -11 103 -45c36 34 77 45 121 45c89 0 154 -45 134 -160l-46 -260h-224l-35 -199c-10 -56 14 -76 47 -76s65 20 75 76l17 96h102zM498 456l26 150c10 56 -14 76 -47 76c-32 0 -64 -18 -73 -68l-28 -158h122zM222 169l13 70
c11 59 -8 86 -45 86c-28 0 -54 -16 -67 -86l-13 -70c-14 -75 15 -86 39 -86c35 0 62 25 73 86z" />
    <glyph glyph-name="AEacute.uni" horiz-adv-x="600" 
d="M419 836h-73l80 131h111zM565 256l-20 -109c-20 -111 -92 -160 -190 -160c-67 0 -117 23 -133 77c-44 -60 -86 -77 -133 -77c-71 0 -106 40 -90 130l31 174c16 91 65 130 135 130c48 0 77 -18 93 -53l42 238c10 56 -14 76 -42 76c-30 0 -61 -23 -70 -76l-18 -106h-102
l22 126c20 115 101 153 181 153c43 0 80 -11 103 -45c36 34 77 45 121 45c89 0 154 -45 134 -160l-46 -260h-224l-35 -199c-10 -56 14 -76 47 -76s65 20 75 76l17 96h102zM498 456l26 150c10 56 -14 76 -47 76c-32 0 -64 -18 -73 -68l-28 -158h122zM222 169l13 70
c11 59 -8 86 -45 86c-28 0 -54 -16 -67 -86l-13 -70c-14 -75 15 -86 39 -86c35 0 62 25 73 86z" />
    <glyph glyph-name="Egrave.uni" horiz-adv-x="391" 
d="M356 256l-20 -109c-20 -110 -91 -160 -189 -160c-95 0 -157 47 -137 160l84 472c20 113 101 160 192 160c89 0 154 -45 134 -160l-46 -260h-224l-35 -199c-10 -56 14 -76 47 -76s65 20 75 76l17 96h102zM289 456l26 150c10 56 -14 76 -47 76s-65 -20 -75 -76l-26 -150
h122zM344 836h-73l-72 131h111z" />
    <glyph glyph-name="Eacute.uni" horiz-adv-x="391" 
d="M356 256l-20 -109c-20 -110 -91 -160 -189 -160c-95 0 -157 47 -137 160l84 472c20 113 101 160 192 160c89 0 154 -45 134 -160l-46 -260h-224l-35 -199c-10 -56 14 -76 47 -76s65 20 75 76l17 96h102zM289 456l26 150c10 56 -14 76 -47 76s-65 -20 -75 -76l-26 -150
h122zM319 836h-73l80 131h111z" />
    <glyph glyph-name="Ecircumflex.uni" horiz-adv-x="391" 
d="M356 256l-20 -109c-20 -110 -91 -160 -189 -160c-95 0 -157 47 -137 160l84 472c20 113 101 160 192 160c89 0 154 -45 134 -160l-46 -260h-224l-35 -199c-10 -56 14 -76 47 -76s65 20 75 76l17 96h102zM289 456l26 150c10 56 -14 76 -47 76s-65 -20 -75 -76l-26 -150
h122zM417 836h-78l-32 77l-53 -77h-81l100 141h90z" />
    <glyph glyph-name="Edieresis.uni" horiz-adv-x="391" 
d="M356 256l-20 -109c-20 -110 -91 -160 -189 -160c-95 0 -157 47 -137 160l84 472c20 113 101 160 192 160c89 0 154 -45 134 -160l-46 -260h-224l-35 -199c-10 -56 14 -76 47 -76s65 20 75 76l17 96h102zM289 456l26 150c10 56 -14 76 -47 76s-65 -20 -75 -76l-26 -150
h122zM208 826c-32 0 -55 26 -49 60s38 59 70 59c33 0 54 -26 49 -59c-5 -32 -36 -60 -70 -60zM379 826c-31 0 -55 23 -49 60c7 37 39 59 69 59c34 0 55 -26 50 -59c-6 -34 -37 -60 -70 -60z" />
    <glyph glyph-name="Emacron.uni" horiz-adv-x="391" 
d="M356 256l-20 -109c-20 -110 -91 -160 -189 -160c-95 0 -157 47 -137 160l84 472c20 113 101 160 192 160c89 0 154 -45 134 -160l-46 -260h-224l-35 -199c-10 -56 14 -76 47 -76s65 20 75 76l17 96h102zM289 456l26 150c10 56 -14 76 -47 76s-65 -20 -75 -76l-26 -150
h122zM426 836h-262l14 81h262z" />
    <glyph glyph-name="Ebreve.uni" horiz-adv-x="391" 
d="M356 256l-20 -109c-20 -110 -91 -160 -189 -160c-95 0 -157 47 -137 160l84 472c20 113 101 160 192 160c89 0 154 -45 134 -160l-46 -260h-224l-35 -199c-10 -56 14 -76 47 -76s65 20 75 76l17 96h102zM289 456l26 150c10 56 -14 76 -47 76s-65 -20 -75 -76l-26 -150
h122zM376 949h56c-16 -78 -61 -124 -139 -124s-108 46 -95 124h56c-4 -27 4 -53 51 -53s64 26 71 53z" />
    <glyph glyph-name="Edotaccent.uni" horiz-adv-x="391" 
d="M356 256l-20 -109c-20 -110 -91 -160 -189 -160c-95 0 -157 47 -137 160l84 472c20 113 101 160 192 160c89 0 154 -45 134 -160l-46 -260h-224l-35 -199c-10 -56 14 -76 47 -76s65 20 75 76l17 96h102zM289 456l26 150c10 56 -14 76 -47 76s-65 -20 -75 -76l-26 -150
h122zM295 831c-32 0 -55 26 -49 60s38 59 70 59c33 0 54 -26 49 -59c-5 -32 -36 -60 -70 -60z" />
    <glyph glyph-name="Eogonek.uni" horiz-adv-x="391" 
d="M230 -147l-45 -52c-75 4 -116 54 -106 110c5 27 21 55 48 77c-85 6 -135 56 -117 159l84 472c20 113 101 160 192 160c89 0 154 -45 134 -160l-46 -260h-224l-35 -199c-10 -56 14 -76 47 -76s65 20 75 76l17 96h102l-20 -109c-17 -93 -64 -121 -100 -142
c-51 -30 -62 -58 -65 -78c-6 -38 11 -62 59 -74zM289 456l26 150c10 56 -14 76 -47 76s-65 -20 -75 -76l-26 -150h122z" />
    <glyph glyph-name="Ecaron.uni" horiz-adv-x="391" 
d="M356 256l-20 -109c-20 -110 -91 -160 -189 -160c-95 0 -157 47 -137 160l84 472c20 113 101 160 192 160c89 0 154 -45 134 -160l-46 -260h-224l-35 -199c-10 -56 14 -76 47 -76s65 20 75 76l17 96h102zM289 456l26 150c10 56 -14 76 -47 76s-65 -20 -75 -76l-26 -150
h122zM342 836h-90l-54 141h78l31 -77l54 77h81z" />
    <glyph glyph-name="uni1E40.uni" horiz-adv-x="609" 
d="M405 831c-32 0 -55 26 -49 60s38 59 70 59c33 0 54 -26 49 -59c-5 -32 -36 -60 -70 -60zM521 0h-102l105 597c13 74 -13 86 -37 86c-33 0 -64 -22 -74 -79l-106 -604h-102l105 597c13 74 -13 86 -38 86c-33 0 -63 -22 -74 -86l-105 -597h-103l135 766h92l-4 -48
c30 41 67 61 118 61c50 0 83 -20 92 -67c32 47 74 67 123 67c67 0 105 -37 89 -130z" />
    <glyph glyph-name="Ntilde.uni" horiz-adv-x="395" 
d="M307 0h-102l105 597c13 74 -13 86 -38 86c-33 0 -63 -22 -74 -86l-105 -597h-103l135 766h92l-4 -48c30 41 67 61 118 61c69 0 106 -37 90 -130zM375 931h65c-12 -53 -41 -95 -89 -95c-33 0 -49 19 -82 19c-8 0 -22 -1 -27 -20h-65c11 53 40 95 88 95c32 0 51 -19 80 -19
c9 0 24 0 30 20z" />
    <glyph glyph-name="Nacute.uni" horiz-adv-x="395" 
d="M307 0h-102l105 597c13 74 -13 86 -38 86c-33 0 -63 -22 -74 -86l-105 -597h-103l135 766h92l-4 -48c30 41 67 61 118 61c69 0 106 -37 90 -130zM311 836h-73l80 131h111z" />
    <glyph glyph-name="Ncaron.uni" horiz-adv-x="395" 
d="M307 0h-102l105 597c13 74 -13 86 -38 86c-33 0 -63 -22 -74 -86l-105 -597h-103l135 766h92l-4 -48c30 41 67 61 118 61c69 0 106 -37 90 -130zM343 836h-90l-54 141h78l31 -77l54 77h81z" />
    <glyph glyph-name="Ncommaaccent.uni" horiz-adv-x="395" 
d="M307 0h-102l105 597c13 74 -13 86 -38 86c-33 0 -63 -22 -74 -86l-105 -597h-103l135 766h92l-4 -48c30 41 67 61 118 61c69 0 106 -37 90 -130zM106 -206h-75l80 156h106z" />
    <glyph glyph-name="Eng.uni" horiz-adv-x="395" 
d="M115 -192h-3l17 97h3c28 0 59 20 69 76l109 616c13 74 -13 86 -38 86c-33 0 -63 -22 -74 -86l-105 -597h-103l135 766h92l-4 -48c30 41 67 61 118 61c69 0 106 -37 90 -130l-120 -681c-20 -115 -101 -160 -186 -160z" />
    <glyph glyph-name="OE.uni" horiz-adv-x="605" 
d="M570 256l-20 -109c-20 -110 -91 -160 -189 -160c-46 0 -83 11 -106 43c-34 -33 -74 -43 -114 -43c-86 0 -151 47 -131 160l84 472c20 113 98 160 192 160c43 0 77 -10 97 -42c35 32 75 42 117 42c89 0 154 -45 134 -160l-46 -260h-224l-37 -207c-9 -50 17 -68 49 -68
c33 0 65 20 75 76l17 96h102zM225 152l82 462c9 50 -18 68 -44 68c-28 0 -60 -20 -70 -76l-78 -446c-10 -56 14 -76 42 -76c26 0 59 18 68 68zM503 456l26 150c10 56 -14 76 -47 76c-32 0 -64 -18 -73 -68l-28 -158h122z" />
    <glyph glyph-name="Ugrave.uni" horiz-adv-x="395" 
d="M305 0h-92l3 48c-30 -41 -67 -61 -118 -61c-69 0 -106 37 -90 130l115 649h102l-106 -597c-13 -74 13 -86 38 -86c33 0 63 22 74 86l106 597h103zM339 836h-73l-72 131h111z" />
    <glyph glyph-name="Uacute.uni" horiz-adv-x="395" 
d="M305 0h-92l3 48c-30 -41 -67 -61 -118 -61c-69 0 -106 37 -90 130l115 649h102l-106 -597c-13 -74 13 -86 38 -86c33 0 63 22 74 86l106 597h103zM323 836h-73l80 131h111z" />
    <glyph glyph-name="Ucircumflex.uni" horiz-adv-x="395" 
d="M305 0h-92l3 48c-30 -41 -67 -61 -118 -61c-69 0 -106 37 -90 130l115 649h102l-106 -597c-13 -74 13 -86 38 -86c33 0 63 22 74 86l106 597h103zM405 836h-78l-32 77l-53 -77h-81l100 141h90z" />
    <glyph glyph-name="Udieresis.uni" horiz-adv-x="395" 
d="M305 0h-92l3 48c-30 -41 -67 -61 -118 -61c-69 0 -106 37 -90 130l115 649h102l-106 -597c-13 -74 13 -86 38 -86c33 0 63 22 74 86l106 597h103zM206 826c-32 0 -55 26 -49 60s38 59 70 59c33 0 54 -26 49 -59c-5 -32 -36 -60 -70 -60zM377 826c-31 0 -55 23 -49 60
c7 37 39 59 69 59c34 0 55 -26 50 -59c-6 -34 -37 -60 -70 -60z" />
    <glyph glyph-name="Utilde.uni" horiz-adv-x="395" 
d="M305 0h-92l3 48c-30 -41 -67 -61 -118 -61c-69 0 -106 37 -90 130l115 649h102l-106 -597c-13 -74 13 -86 38 -86c33 0 63 22 74 86l106 597h103zM368 931h65c-12 -53 -41 -95 -89 -95c-33 0 -49 19 -82 19c-8 0 -22 -1 -27 -20h-65c11 53 40 95 88 95
c32 0 51 -19 80 -19c9 0 24 0 30 20z" />
    <glyph glyph-name="Umacron.uni" horiz-adv-x="395" 
d="M305 0h-92l3 48c-30 -41 -67 -61 -118 -61c-69 0 -106 37 -90 130l115 649h102l-106 -597c-13 -74 13 -86 38 -86c33 0 63 22 74 86l106 597h103zM424 836h-262l14 81h262z" />
    <glyph glyph-name="Ubreve.uni" horiz-adv-x="395" 
d="M305 0h-92l3 48c-30 -41 -67 -61 -118 -61c-69 0 -106 37 -90 130l115 649h102l-106 -597c-13 -74 13 -86 38 -86c33 0 63 22 74 86l106 597h103zM374 949h56c-16 -78 -61 -124 -139 -124s-108 46 -95 124h56c-4 -27 4 -53 51 -53s64 26 71 53z" />
    <glyph glyph-name="Uring.uni" horiz-adv-x="395" 
d="M305 0h-92l3 48c-30 -41 -67 -61 -118 -61c-69 0 -106 37 -90 130l115 649h102l-106 -597c-13 -74 13 -86 38 -86c33 0 63 22 74 86l106 597h103zM335 902c4 19 -8 31 -25 31c-18 0 -34 -14 -37 -31c-3 -18 8 -31 26 -31c19 0 33 14 36 31zM289 815c-52 0 -80 42 -72 87
c8 48 54 87 103 87s80 -38 71 -87c-9 -50 -53 -87 -102 -87z" />
    <glyph glyph-name="Uhungarumlaut.uni" horiz-adv-x="395" 
d="M305 0h-92l3 48c-30 -41 -67 -61 -118 -61c-69 0 -106 37 -90 130l115 649h102l-106 -597c-13 -74 13 -86 38 -86c33 0 63 22 74 86l106 597h103zM255 836h-83l68 135h101zM392 836h-83l68 135h101z" />
    <glyph glyph-name="Uogonek.uni" horiz-adv-x="395" 
d="M291 -156l-44 -52c-75 4 -117 54 -107 110c6 34 29 68 71 92l5 54c-30 -41 -67 -61 -118 -61c-69 0 -106 37 -90 130l115 649h102l-106 -597c-13 -74 13 -86 38 -86c33 0 63 22 74 86l106 597h103l-135 -766c-43 -25 -69 -57 -74 -86c-5 -31 13 -59 60 -70z" />
    <glyph glyph-name="a.sc" horiz-adv-x="332" 
d="M277 0h-101l7 122h-90l-36 -122h-101l185 597h160zM188 219l16 283l-84 -283h68z" />
    <glyph glyph-name="b.sc" horiz-adv-x="351" 
d="M168 0h-183l105 597h171c73 0 106 -50 92 -125l-14 -76c-8 -43 -30 -70 -72 -90c47 -24 55 -54 48 -96l-15 -85c-14 -75 -62 -125 -132 -125zM241 412l6 31c8 42 -5 60 -33 60h-40l-26 -151h40c32 0 45 19 53 60zM204 154l8 45c7 40 -10 59 -41 59h-40l-29 -164h48
c29 0 46 16 54 60z" />
    <glyph glyph-name="c.sc" horiz-adv-x="345" 
d="M161 451l-54 -304c-7 -42 10 -60 34 -60s46 18 54 60l10 53h101l-15 -85c-17 -97 -96 -125 -161 -125c-59 0 -147 23 -129 125l65 368c18 100 111 125 173 125c61 0 135 -25 117 -125l-17 -94h-101l11 62c7 42 -9 60 -33 60c-22 0 -47 -15 -55 -60z" />
    <glyph glyph-name="d.sc" horiz-adv-x="352" 
d="M160 0h-175l105 597h175c70 0 102 -45 88 -124l-61 -348c-14 -79 -62 -125 -132 -125zM196 154l51 290c7 41 -3 59 -33 59h-40l-72 -409h40c29 0 46 16 54 60z" />
    <glyph glyph-name="e.sc" horiz-adv-x="311" 
d="M236 0h-251l105 597h251l-17 -94h-150l-27 -154h145l-17 -94h-145l-28 -161h150z" />
    <glyph glyph-name="f.sc" horiz-adv-x="307" 
d="M86 0h-101l105 597h251l-17 -94h-150l-27 -154h145l-17 -94h-145z" />
    <glyph glyph-name="g.sc" horiz-adv-x="350" 
d="M197 146l13 73h-53l17 95h154l-36 -206c-15 -85 -94 -118 -167 -118c-83 0 -144 42 -130 122l66 371c14 79 86 125 174 125c83 0 138 -40 124 -118l-18 -99h-101l11 60c8 45 -11 60 -36 60s-51 -14 -59 -60l-54 -305c-8 -45 13 -59 38 -59c24 0 49 14 57 59z" />
    <glyph glyph-name="h.sc" horiz-adv-x="359" 
d="M274 0h-101l44 252h-87l-44 -252h-101l105 597h101l-44 -251h87l44 251h101z" />
    <glyph glyph-name="i.sc" horiz-adv-x="171" 
d="M86 0h-101l105 597h101z" />
    <glyph glyph-name="j.sc" horiz-adv-x="171" 
d="M-85 -150h-3l17 97h3c21 0 46 16 54 60l104 590h101l-110 -622c-14 -79 -79 -125 -166 -125z" />
    <glyph glyph-name="k.sc" horiz-adv-x="344" 
d="M298 0h-101l-58 299l148 298h101l-143 -296zM86 0h-101l105 597h101z" />
    <glyph glyph-name="l.sc" horiz-adv-x="251" 
d="M192 0h-207l105 597h101l-89 -503h106z" />
    <glyph glyph-name="m.sc" horiz-adv-x="535" 
d="M450 0h-101l74 419l-152 -419h-100l-12 416l-73 -416h-101l105 597h166l-5 -407l138 407h166z" />
    <glyph glyph-name="n.sc" horiz-adv-x="416" 
d="M331 0h-141l-39 385l-65 -385h-101l105 597h137l41 -392l67 392h101z" />
    <glyph glyph-name="o.sc" horiz-adv-x="352" 
d="M356 483l-65 -368c-17 -97 -96 -125 -161 -125c-59 0 -147 23 -129 125l65 368c17 98 108 125 172 125c66 0 135 -28 118 -125zM161 451l-54 -304c-7 -42 10 -60 34 -60s47 18 54 60l54 304c7 42 -9 60 -33 60c-22 0 -47 -15 -55 -60z" />
    <glyph glyph-name="p.sc" horiz-adv-x="338" 
d="M90 597h171c69 0 106 -46 92 -125l-19 -109c-14 -79 -60 -125 -129 -125h-78l-41 -238h-101zM238 392l9 51c7 42 -3 60 -34 60h-39l-30 -170h39c30 0 47 15 55 59z" />
    <glyph glyph-name="q.sc" horiz-adv-x="347" 
d="M219 -83l-88 -33l-28 107c-58 3 -122 38 -107 124l65 368c14 79 82 125 171 125s133 -45 119 -125l-65 -368c-9 -49 -32 -80 -94 -106zM190 146l54 305c8 46 -13 60 -33 60c-21 0 -47 -14 -55 -60l-54 -305c-8 -45 13 -59 34 -59c20 0 46 14 54 59z" />
    <glyph glyph-name="r.sc" horiz-adv-x="344" 
d="M86 0h-101l105 597h172c69 0 105 -45 91 -124l-18 -101c-9 -50 -25 -85 -76 -111l27 -261h-101l-27 236h-31zM174 503l-30 -170h40c29 0 46 16 54 59l13 74c4 27 -15 37 -37 37h-40z" />
    <glyph glyph-name="s.sc" 
d="M298 196l-15 -87c-15 -86 -93 -119 -165 -119c-73 0 -139 34 -124 119l16 91h101l-10 -54c-7 -39 10 -59 32 -59c17 0 47 11 52 41l8 46c10 56 -165 118 -147 229l12 73c12 74 75 132 175 132c97 0 129 -54 115 -131l-16 -88h-101l11 62c8 45 -11 60 -31 60
c-18 0 -48 -12 -53 -41l-8 -47c-14 -80 167 -116 148 -227z" />
    <glyph glyph-name="t.sc" horiz-adv-x="267" 
d="M134 0h-101l88 503h-74l17 94h249l-17 -94h-74z" />
    <glyph glyph-name="u.sc" horiz-adv-x="357" 
d="M197 146l80 451h101l-85 -482c-15 -83 -91 -125 -165 -125c-77 0 -138 45 -124 125l85 482h101l-80 -451c-8 -45 13 -59 34 -59c20 0 45 14 53 59z" />
    <glyph glyph-name="v.sc" horiz-adv-x="324" 
d="M370 597l-178 -597h-160l32 597h101l-32 -480l136 480h101z" />
    <glyph glyph-name="w.sc" horiz-adv-x="568" 
d="M613 597l-171 -597h-154l33 504l-142 -504h-153l39 597h101l-34 -439l130 439h154l-27 -439l123 439h101z" />
    <glyph glyph-name="x.sc" horiz-adv-x="342" 
d="M290 0h-101l-28 217l-111 -217h-101l165 307l-55 290h101l33 -196l98 196h102l-148 -290z" />
    <glyph glyph-name="y.sc" horiz-adv-x="325" 
d="M163 0h-102l34 197l-38 400h102l12 -257l106 257h102l-182 -399z" />
    <glyph glyph-name="z.sc" horiz-adv-x="273" 
d="M204 0h-237l16 94l196 409h-117l17 94h230l-11 -60l-211 -443h133z" />
    <glyph glyph-name="ff.sc" horiz-adv-x="614" 
d="M86 0h-101l105 597h251l-17 -94h-150l-27 -154h145l-17 -94h-145zM393 0h-101l105 597h251l-17 -94h-150l-27 -154h145l-17 -94h-145z" />
    <glyph glyph-name="fi.sc" horiz-adv-x="478" 
d="M86 0h-101l105 597h251l-17 -94h-150l-27 -154h145l-17 -94h-145zM393 0h-101l105 597h101z" />
    <glyph glyph-name="f_j.sc" horiz-adv-x="478" 
d="M86 0h-101l105 597h251l-17 -94h-150l-27 -154h145l-17 -94h-145zM222 -150h-3l17 97h3c21 0 46 16 54 60l104 590h101l-110 -622c-14 -79 -79 -125 -166 -125z" />
    <glyph glyph-name="fl.sc" horiz-adv-x="558" 
d="M86 0h-101l105 597h251l-17 -94h-150l-27 -154h145l-17 -94h-145zM499 0h-207l105 597h101l-89 -503h106z" />
    <glyph glyph-name="f_t.sc" horiz-adv-x="574" 
d="M86 0h-101l105 597h251l-17 -94h-150l-27 -154h145l-17 -94h-145zM441 0h-101l88 503h-74l17 94h249l-17 -94h-74z" />
    <glyph glyph-name="ffi.sc" horiz-adv-x="785" 
d="M86 0h-101l105 597h251l-17 -94h-150l-27 -154h145l-17 -94h-145zM393 0h-101l105 597h251l-17 -94h-150l-27 -154h145l-17 -94h-145zM700 0h-101l105 597h101z" />
    <glyph glyph-name="ffl.sc" horiz-adv-x="865" 
d="M86 0h-101l105 597h251l-17 -94h-150l-27 -154h145l-17 -94h-145zM393 0h-101l105 597h251l-17 -94h-150l-27 -154h145l-17 -94h-145zM806 0h-207l105 597h101l-89 -503h106z" />
    <glyph glyph-name="germandbls.sc" horiz-adv-x="678" 
d="M298 196l-15 -87c-15 -86 -93 -119 -165 -119c-73 0 -139 34 -124 119l16 91h101l-10 -54c-7 -39 10 -59 32 -59c17 0 47 11 52 41l8 46c10 56 -165 118 -147 229l12 73c12 74 75 132 175 132c97 0 129 -54 115 -131l-16 -88h-101l11 62c8 45 -11 60 -31 60
c-18 0 -48 -12 -53 -41l-8 -47c-14 -80 167 -116 148 -227zM637 196l-15 -87c-15 -86 -93 -119 -165 -119c-73 0 -139 34 -124 119l16 91h101l-10 -54c-7 -39 10 -59 32 -59c17 0 47 11 52 41l8 46c10 56 -165 118 -147 229l12 73c12 74 75 132 175 132
c97 0 129 -54 115 -131l-16 -88h-101l11 62c8 45 -11 60 -31 60c-18 0 -48 -12 -53 -41l-8 -47c-14 -80 167 -116 148 -227z" />
    <glyph glyph-name="agrave.sc" horiz-adv-x="332" 
d="M267 649h-67l-71 118h108zM277 0h-101l7 122h-90l-36 -122h-101l185 597h160zM188 219l16 283l-84 -283h68z" />
    <glyph glyph-name="aacute.sc" horiz-adv-x="332" 
d="M250 649h-68l72 118h108zM277 0h-101l7 122h-90l-36 -122h-101l185 597h160zM188 219l16 283l-84 -283h68z" />
    <glyph glyph-name="acircumflex.sc" horiz-adv-x="332" 
d="M341 649h-74l-26 68l-45 -68h-77l91 132h81zM277 0h-101l7 122h-90l-36 -122h-101l185 597h160zM188 219l16 283l-84 -283h68z" />
    <glyph glyph-name="atilde.sc" horiz-adv-x="332" 
d="M301 741h55c-8 -51 -33 -91 -76 -91c-27 0 -51 16 -78 16c-12 0 -22 -3 -25 -18h-56c13 64 41 91 78 91c31 0 47 -18 78 -18c12 0 20 3 24 20zM277 0h-101l7 122h-90l-36 -122h-101l185 597h160zM188 219l16 283l-84 -283h68z" />
    <glyph glyph-name="adieresis.sc" horiz-adv-x="332" 
d="M153 641c-29 0 -54 24 -48 56s38 55 67 55c30 0 49 -24 44 -55s-33 -56 -63 -56zM305 641c-32 0 -50 27 -45 56c6 34 38 55 66 55c27 0 50 -21 44 -55c-6 -36 -37 -56 -65 -56zM277 0h-101l7 122h-90l-36 -122h-101l185 597h160zM188 219l16 283l-84 -283h68z" />
    <glyph glyph-name="aring.sc" horiz-adv-x="332" 
d="M264 719c3 14 -6 22 -18 22c-14 0 -23 -11 -25 -22c-2 -13 5 -21 18 -21s23 8 25 21zM228 639c-45 0 -74 35 -66 80s49 80 94 80s74 -35 66 -80s-49 -80 -94 -80zM277 0h-101l7 122h-90l-36 -122h-101l185 597h160zM188 219l16 283l-84 -283h68z" />
    <glyph glyph-name="amacron.sc" horiz-adv-x="332" 
d="M349 649h-237l14 80h237zM277 0h-101l7 122h-90l-36 -122h-101l185 597h160zM188 219l16 283l-84 -283h68z" />
    <glyph glyph-name="abreve.sc" horiz-adv-x="332" 
d="M300 754h53c-15 -71 -48 -116 -125 -116s-95 45 -84 116h52c-1 -19 0 -44 45 -44s53 25 59 44zM277 0h-101l7 122h-90l-36 -122h-101l185 597h160zM188 219l16 283l-84 -283h68z" />
    <glyph glyph-name="aogonek.sc" horiz-adv-x="331" 
d="M276 -130l-45 -52c-67 2 -109 47 -100 99c4 23 18 47 43 69l6 136h-88l-36 -122h-101l185 597h160l-24 -597c-29 -26 -48 -49 -52 -69c-4 -21 7 -52 52 -61zM187 219l16 283l-84 -283h68z" />
    <glyph glyph-name="ae.sc" horiz-adv-x="496" 
d="M421 0h-251l21 122h-90l-53 -122h-100l261 597h317l-17 -94h-150l-27 -154h145l-17 -94h-145l-28 -161h150zM209 226l44 248l-111 -248h67z" />
    <glyph glyph-name="aeacute.sc" horiz-adv-x="496" 
d="M383 649h-68l72 118h108zM421 0h-251l21 122h-90l-53 -122h-100l261 597h317l-17 -94h-150l-27 -154h145l-17 -94h-145l-28 -161h150zM209 226l44 248l-111 -248h67z" />
    <glyph glyph-name="uni1E03.sc" horiz-adv-x="351" 
d="M236 648c-29 0 -52 24 -46 56s37 54 65 54c30 0 51 -24 46 -54c-5 -29 -33 -56 -65 -56zM168 0h-183l105 597h171c73 0 106 -50 92 -125l-14 -76c-8 -43 -30 -70 -72 -90c47 -24 55 -54 48 -96l-15 -85c-14 -75 -62 -125 -132 -125zM241 412l6 31c8 42 -5 60 -33 60h-40
l-26 -151h40c32 0 45 19 53 60zM204 154l8 45c7 40 -10 59 -41 59h-40l-29 -164h48c29 0 46 16 54 60z" />
    <glyph glyph-name="ccedilla.sc" 
d="M31 -150l22 50c5 -3 16 -8 29 -8c22 0 36 14 39 29c3 13 -4 26 -31 26h-9l19 45c-55 6 -117 36 -102 123l65 368c18 100 111 125 173 125c61 0 135 -25 117 -125l-17 -94h-101l11 62c7 42 -9 60 -33 60c-22 0 -47 -15 -55 -60l-54 -304c-7 -42 10 -60 34 -60s46 18 54 60
l10 53h101l-15 -85c-14 -80 -70 -113 -125 -122l-13 -27c38 0 54 -28 49 -58c-6 -34 -40 -70 -103 -70c-27 0 -52 6 -65 12z" />
    <glyph glyph-name="ccircumflex.sc" horiz-adv-x="345" 
d="M351 649h-74l-26 68l-45 -68h-77l91 132h81zM161 451l-54 -304c-7 -42 10 -60 34 -60s46 18 54 60l10 53h101l-15 -85c-17 -97 -96 -125 -161 -125c-59 0 -147 23 -129 125l65 368c18 100 111 125 173 125c61 0 135 -25 117 -125l-17 -94h-101l11 62c7 42 -9 60 -33 60
c-22 0 -47 -15 -55 -60z" />
    <glyph glyph-name="cacute.sc" horiz-adv-x="345" 
d="M254 649h-68l72 118h108zM161 451l-54 -304c-7 -42 10 -60 34 -60s46 18 54 60l10 53h101l-15 -85c-17 -97 -96 -125 -161 -125c-59 0 -147 23 -129 125l65 368c18 100 111 125 173 125c61 0 135 -25 117 -125l-17 -94h-101l11 62c7 42 -9 60 -33 60
c-22 0 -47 -15 -55 -60z" />
    <glyph glyph-name="cdotaccent.sc" horiz-adv-x="345" 
d="M240 648c-29 0 -52 24 -46 56s37 54 65 54c30 0 51 -24 46 -54c-4 -28 -33 -56 -65 -56zM161 451l-54 -304c-7 -42 10 -60 34 -60s46 18 54 60l10 53h101l-15 -85c-17 -97 -96 -125 -161 -125c-59 0 -147 23 -129 125l65 368c18 100 111 125 173 125
c61 0 135 -25 117 -125l-17 -94h-101l11 62c7 42 -9 60 -33 60c-22 0 -47 -15 -55 -60z" />
    <glyph glyph-name="ccaron.sc" horiz-adv-x="345" 
d="M281 649h-81l-50 132h73l28 -68l43 68h78zM161 451l-54 -304c-7 -42 10 -60 34 -60s46 18 54 60l10 53h101l-15 -85c-17 -97 -96 -125 -161 -125c-59 0 -147 23 -129 125l65 368c18 100 111 125 173 125c61 0 135 -25 117 -125l-17 -94h-101l11 62c7 42 -9 60 -33 60
c-22 0 -47 -15 -55 -60z" />
    <glyph glyph-name="dcaron.sc" horiz-adv-x="352" 
d="M274 649h-81l-50 132h73l28 -68l43 68h78zM160 0h-175l105 597h175c70 0 102 -45 88 -124l-61 -348c-14 -79 -62 -125 -132 -125zM196 154l51 290c7 41 -3 59 -33 59h-40l-72 -409h40c29 0 46 16 54 60z" />
    <glyph glyph-name="dcroat.sc" horiz-adv-x="356" 
d="M165 0h-175l45 256h-39l16 92h39l44 249h175c70 0 102 -45 88 -124l-61 -348c-14 -79 -62 -125 -132 -125zM201 156l50 285c8 44 -3 59 -32 59h-40l-27 -152h39l-16 -92h-39l-28 -159h40c29 0 45 16 53 59z" />
    <glyph glyph-name="uni1E0B.sc" horiz-adv-x="351" 
d="M234 648c-29 0 -52 24 -46 56s37 54 65 54c30 0 51 -24 46 -54c-4 -28 -33 -56 -65 -56zM160 0h-175l105 597h175c70 0 102 -45 88 -124l-61 -348c-14 -79 -62 -125 -132 -125zM196 154l51 290c7 41 -3 59 -33 59h-40l-72 -409h40c29 0 46 16 54 60z" />
    <glyph glyph-name="eth.sc" horiz-adv-x="356" 
d="M165 0h-175l45 256h-39l16 92h39l44 249h175c70 0 102 -45 88 -124l-61 -348c-14 -79 -62 -125 -132 -125zM201 156l50 285c8 44 -3 59 -32 59h-40l-27 -152h39l-16 -92h-39l-28 -159h40c29 0 45 16 53 59z" />
    <glyph glyph-name="egrave.sc" horiz-adv-x="311" 
d="M285 649h-67l-71 118h108zM236 0h-251l105 597h251l-17 -94h-150l-27 -154h145l-17 -94h-145l-28 -161h150z" />
    <glyph glyph-name="eacute.sc" horiz-adv-x="311" 
d="M241 649h-68l72 118h108zM236 0h-251l105 597h251l-17 -94h-150l-27 -154h145l-17 -94h-145l-28 -161h150z" />
    <glyph glyph-name="ecircumflex.sc" horiz-adv-x="311" 
d="M332 649h-74l-26 68l-45 -68h-77l91 132h81zM236 0h-251l105 597h251l-17 -94h-150l-27 -154h145l-17 -94h-145l-28 -161h150z" />
    <glyph glyph-name="edieresis.sc" horiz-adv-x="311" 
d="M148 641c-29 0 -54 24 -48 56s38 55 67 55c30 0 49 -24 44 -55s-33 -56 -63 -56zM300 641c-32 0 -50 27 -45 56c6 34 38 55 66 55c27 0 50 -21 44 -55c-6 -36 -37 -56 -65 -56zM236 0h-251l105 597h251l-17 -94h-150l-27 -154h145l-17 -94h-145l-28 -161h150z" />
    <glyph glyph-name="emacron.sc" horiz-adv-x="311" 
d="M341 649h-237l14 80h237zM236 0h-251l105 597h251l-17 -94h-150l-27 -154h145l-17 -94h-145l-28 -161h150z" />
    <glyph glyph-name="ebreve.sc" horiz-adv-x="311" 
d="M298 754h53c-15 -71 -48 -116 -125 -116s-95 45 -84 116h52c-1 -19 0 -44 45 -44s53 25 59 44zM236 0h-251l105 597h251l-17 -94h-150l-27 -154h145l-17 -94h-145l-28 -161h150z" />
    <glyph glyph-name="edotaccent.sc" horiz-adv-x="311" 
d="M233 648c-29 0 -52 24 -46 56s37 54 65 54c30 0 51 -24 46 -54c-5 -29 -33 -56 -65 -56zM236 0h-251l105 597h251l-17 -94h-150l-27 -154h145l-17 -94h-145l-28 -161h150z" />
    <glyph glyph-name="eogonek.sc" horiz-adv-x="311" 
d="M200 -130l-45 -52c-66 2 -108 47 -99 99c5 30 28 61 66 83h-137l105 597h251l-17 -94h-150l-27 -154h145l-17 -94h-145l-28 -161h150l-16 -94h-28c-39 -22 -55 -49 -59 -69c-4 -21 6 -52 51 -61z" />
    <glyph glyph-name="ecaron.sc" horiz-adv-x="311" 
d="M270 649h-81l-50 132h73l28 -68l43 68h78zM236 0h-251l105 597h251l-17 -94h-150l-27 -154h145l-17 -94h-145l-28 -161h150z" />
    <glyph glyph-name="uni1E1F.sc" horiz-adv-x="307" 
d="M230 648c-29 0 -52 24 -46 56c5 30 36 54 65 54c30 0 51 -24 46 -54c-6 -32 -35 -56 -65 -56zM86 0h-101l105 597h251l-17 -94h-150l-27 -154h145l-17 -94h-145z" />
    <glyph glyph-name="gcircumflex.sc" horiz-adv-x="350" 
d="M350 649h-74l-26 68l-45 -68h-77l91 132h81zM197 146l13 73h-53l17 95h154l-36 -206c-15 -85 -94 -118 -167 -118c-83 0 -144 42 -130 122l66 371c14 79 86 125 174 125c83 0 138 -40 124 -118l-18 -99h-101l11 60c8 45 -11 60 -36 60s-51 -14 -59 -60l-54 -305
c-8 -45 13 -59 38 -59c24 0 49 14 57 59z" />
    <glyph glyph-name="gbreve.sc" horiz-adv-x="350" 
d="M307 754h53c-15 -71 -48 -116 -125 -116s-95 45 -84 116h52c-1 -19 0 -44 45 -44s53 25 59 44zM197 146l13 73h-53l17 95h154l-36 -206c-15 -85 -94 -118 -167 -118c-83 0 -144 42 -130 122l66 371c14 79 86 125 174 125c83 0 138 -40 124 -118l-18 -99h-101l11 60
c8 45 -11 60 -36 60s-51 -14 -59 -60l-54 -305c-8 -45 13 -59 38 -59c24 0 49 14 57 59z" />
    <glyph glyph-name="gdotaccent.sc" horiz-adv-x="350" 
d="M239 648c-29 0 -52 24 -46 56s37 54 65 54c30 0 51 -24 46 -54c-4 -28 -33 -56 -65 -56zM197 146l13 73h-53l17 95h154l-36 -206c-15 -85 -94 -118 -167 -118c-83 0 -144 42 -130 122l66 371c14 79 86 125 174 125c83 0 138 -40 124 -118l-18 -99h-101l11 60
c8 45 -11 60 -36 60s-51 -14 -59 -60l-54 -305c-8 -45 13 -59 38 -59c24 0 49 14 57 59z" />
    <glyph glyph-name="gcommaaccent.sc" horiz-adv-x="350" 
d="M90 -187h-75l76 148h105zM197 146l13 73h-53l17 95h154l-36 -206c-15 -85 -94 -118 -167 -118c-83 0 -144 42 -130 122l66 371c14 79 86 125 174 125c83 0 138 -40 124 -118l-18 -99h-101l11 60c8 45 -11 60 -36 60s-51 -14 -59 -60l-54 -305c-8 -45 13 -59 38 -59
c24 0 49 14 57 59z" />
    <glyph glyph-name="hcircumflex.sc" horiz-adv-x="359" 
d="M355 649h-74l-26 68l-45 -68h-77l91 132h81zM274 0h-101l44 252h-87l-44 -252h-101l105 597h101l-44 -251h87l44 251h101z" />
    <glyph glyph-name="hbar.sc" horiz-adv-x="363" 
d="M276 0h-101l44 252h-87l-44 -252h-101l77 442h-35l14 78h35l14 77h101l-14 -77h87l14 77h101l-14 -77h35l-14 -78h-35zM236 346l16 96h-87l-16 -96h87z" />
    <glyph glyph-name="uni1E23.sc" horiz-adv-x="359" 
d="M244 648c-29 0 -52 24 -46 56s37 54 65 54c30 0 51 -24 46 -54c-4 -28 -33 -56 -65 -56zM274 0h-101l44 252h-87l-44 -252h-101l105 597h101l-44 -251h87l44 251h101z" />
    <glyph glyph-name="igrave.sc" horiz-adv-x="171" 
d="M191 649h-67l-71 118h108zM86 0h-101l105 597h101z" />
    <glyph glyph-name="iacute.sc" horiz-adv-x="171" 
d="M170 649h-68l72 118h108zM86 0h-101l105 597h101z" />
    <glyph glyph-name="icircumflex.sc" horiz-adv-x="171" 
d="M260 649h-74l-26 68l-45 -68h-77l91 132h81zM86 0h-101l105 597h101z" />
    <glyph glyph-name="idieresis.sc" horiz-adv-x="171" 
d="M73 641c-29 0 -54 24 -48 56s38 55 67 55c30 0 49 -24 44 -55s-33 -56 -63 -56zM225 641c-32 0 -50 27 -45 56c6 34 38 55 66 55c27 0 50 -21 44 -55c-6 -36 -37 -56 -65 -56zM86 0h-101l105 597h101z" />
    <glyph glyph-name="itilde.sc" horiz-adv-x="171" 
d="M220 741h55c-8 -49 -31 -91 -77 -91c-28 0 -46 15 -74 16c-8 0 -24 -1 -28 -18h-56c13 64 41 91 79 91c28 0 42 -17 72 -17c11 0 24 2 29 19zM86 0h-101l105 597h101z" />
    <glyph glyph-name="imacron.sc" horiz-adv-x="171" 
d="M268 649h-237l14 80h237zM86 0h-101l105 597h101z" />
    <glyph glyph-name="ibreve.sc" horiz-adv-x="171" 
d="M219 754h53c-15 -71 -48 -116 -125 -116s-95 45 -84 116h52c-1 -19 0 -44 45 -44s53 25 59 44zM86 0h-101l105 597h101z" />
    <glyph glyph-name="iogonek.sc" horiz-adv-x="171" 
d="M81 -130l-44 -52c-67 2 -108 47 -99 99c4 24 19 49 44 70l108 610h101l-105 -597c-35 -22 -52 -49 -56 -69c-4 -21 7 -52 51 -61z" />
    <glyph glyph-name="dotlessi.sc" horiz-adv-x="171" 
d="M86 0h-101l105 597h101z" />
    <glyph glyph-name="idotaccent.sc" horiz-adv-x="171" 
d="M150 648c-29 0 -52 24 -46 56s37 54 65 54c30 0 51 -24 46 -54c-4 -28 -33 -56 -65 -56zM86 0h-101l105 597h101z" />
    <glyph glyph-name="ij.sc" horiz-adv-x="342" 
d="M86 0h-101l105 597h101zM86 -150h-3l17 97h3c21 0 46 16 54 60l104 590h101l-110 -622c-14 -79 -79 -125 -166 -125z" />
    <glyph glyph-name="jcircumflex.sc" horiz-adv-x="171" 
d="M260 649h-74l-26 68l-45 -68h-77l91 132h81zM-85 -150h-3l17 97h3c21 0 46 16 54 60l104 590h101l-110 -622c-14 -79 -79 -125 -166 -125z" />
    <glyph glyph-name="dotlessj.sc" horiz-adv-x="171" 
d="M-84 -150h-2l17 97h2c21 0 45 16 53 60l104 590h101l-109 -616c-14 -79 -79 -131 -166 -131z" />
    <glyph glyph-name="kcommaaccent.sc" horiz-adv-x="344" 
d="M92 -187h-75l76 148h105zM298 0h-101l-58 299l148 298h101l-143 -296zM86 0h-101l105 597h101z" />
    <glyph glyph-name="kgreenlandic.sc" horiz-adv-x="346" 
d="M298 0h-101l-58 299l148 298h101l-143 -296zM86 0h-101l105 597h101z" />
    <glyph glyph-name="lslash.sc" horiz-adv-x="290" 
d="M230 0h-206l30 174l-36 -20l-31 79l85 43l57 321h101l-47 -264l51 26l28 -79l-97 -50l-24 -136h105z" />
    <glyph glyph-name="lacute.sc" horiz-adv-x="251" 
d="M177 649h-68l72 118h108zM192 0h-207l105 597h101l-89 -503h106z" />
    <glyph glyph-name="ldot.sc" horiz-adv-x="303" 
d="M224 224c-33 0 -55 26 -49 60s37 60 70 60c34 0 57 -26 51 -60s-38 -60 -72 -60zM192 0h-207l105 597h101l-89 -503h106z" />
    <glyph glyph-name="lcommaaccent.sc" horiz-adv-x="251" 
d="M46 -187h-75l76 148h105zM192 0h-207l105 597h101l-89 -503h106z" />
    <glyph glyph-name="lcaron.sc" horiz-adv-x="304" 
d="M275 420h-79l58 177h110zM192 0h-207l105 597h101l-89 -503h106z" />
    <glyph glyph-name="uni1E41.sc" horiz-adv-x="535" 
d="M332 648c-29 0 -52 24 -46 56s37 54 65 54c30 0 51 -24 46 -54c-4 -28 -33 -56 -65 -56zM450 0h-101l74 419l-152 -419h-100l-12 416l-73 -416h-101l105 597h166l-5 -407l138 407h166z" />
    <glyph glyph-name="ntilde.sc" horiz-adv-x="416" 
d="M360 741h55c-8 -49 -31 -91 -77 -91c-29 0 -47 16 -77 16c-10 0 -19 -2 -25 -18h-56c13 64 41 91 78 91c30 0 42 -17 73 -17c11 0 24 2 29 19zM331 0h-141l-39 385l-65 -385h-101l105 597h137l41 -392l67 392h101z" />
    <glyph glyph-name="nacute.sc" horiz-adv-x="416" 
d="M315 649h-68l72 118h108zM331 0h-141l-39 385l-65 -385h-101l105 597h137l41 -392l67 392h101z" />
    <glyph glyph-name="ncommaaccent.sc" horiz-adv-x="416" 
d="M122 -187h-75l76 148h105zM331 0h-141l-39 385l-65 -385h-101l105 597h137l41 -392l67 392h101z" />
    <glyph glyph-name="ncaron.sc" horiz-adv-x="416" 
d="M327 649h-81l-50 132h73l28 -68l43 68h78zM331 0h-141l-39 385l-65 -385h-101l105 597h137l41 -392l67 392h101z" />
    <glyph glyph-name="eng.sc" horiz-adv-x="416" 
d="M157 -159h-1l18 97h1c20 0 45 13 54 59l3 15l-81 373l-65 -385h-101l105 597h137l52 -328l56 328h101l-110 -625c-14 -79 -81 -131 -169 -131z" />
    <glyph glyph-name="ograve.sc" horiz-adv-x="352" 
d="M285 649h-67l-71 118h108zM356 483l-65 -368c-17 -97 -96 -125 -161 -125c-59 0 -147 23 -129 125l65 368c17 98 108 125 172 125c66 0 135 -28 118 -125zM161 451l-54 -304c-7 -42 10 -60 34 -60s47 18 54 60l54 304c7 42 -9 60 -33 60c-22 0 -47 -15 -55 -60z" />
    <glyph glyph-name="oacute.sc" horiz-adv-x="352" 
d="M270 649h-68l72 118h108zM356 483l-65 -368c-17 -97 -96 -125 -161 -125c-59 0 -147 23 -129 125l65 368c17 98 108 125 172 125c66 0 135 -28 118 -125zM161 451l-54 -304c-7 -42 10 -60 34 -60s47 18 54 60l54 304c7 42 -9 60 -33 60c-22 0 -47 -15 -55 -60z" />
    </font>
</defs>
</svg>
