<?xml version="1.0" standalone="no"?>
<!DOCTYPE svg PUBLIC "-//W3C//DTD SVG 1.1//EN" "http://www.w3.org/Graphics/SVG/1.1/DTD/svg11.dtd" >
<svg xmlns="http://www.w3.org/2000/svg" xmlns:xlink="http://www.w3.org/1999/xlink" version="1.1">
<metadata>
Created by FontForge 20150824 at Fri Mar 18 00:53:53 2016
 By Everything Fonts
Copyright (c) 2005-2013 Canada Type. Trump Gothic is a trade mark of Canada Type. All rights reserved.
</metadata>
<defs>
<font id="TrumpGothicPro-Italic" horiz-adv-x="258" >
  <font-face 
    font-family="Trump Gothic Pro"
    font-weight="400"
    font-style="italic"
    font-stretch="normal"
    units-per-em="1000"
    panose-1="2 0 5 8 2 0 0 2 0 4"
    ascent="780"
    descent="-220"
    x-height="567"
    cap-height="766"
    bbox="-118 -227 1038 946"
    underline-thickness="50"
    underline-position="-100"
    slope="-10"
    unicode-range="U+0020-FB04"
  />
<missing-glyph horiz-adv-x="430" 
d="M330 0h-330l135 766h330zM83 132l139 265l-49 244zM258 52l-31 278l-136 -278h167zM251 468l119 246h-155zM292 130l90 510l-119 -244z" />
    <glyph glyph-name="ff" unicode="ff" horiz-adv-x="341" 
d="M316 512l-90 -512h-60l90 512h-99l-90 -512h-60l90 512h-55l9 55h55l10 55c21 117 51 150 112 150c15 0 27 -2 40 -5l-9 -50c-9 1 -18 1 -23 1c-37 0 -46 -18 -55 -68l-15 -83h99l10 55c21 117 51 150 112 150c15 0 27 -2 40 -5l-9 -50c-9 1 -18 1 -23 1
c-37 0 -46 -18 -55 -68l-15 -83h65l-9 -55h-65z" />
    <glyph glyph-name="fi" unicode="fi" horiz-adv-x="309" 
d="M157 512l-90 -512h-60l90 512h-55l9 55h55l10 55c21 117 51 150 112 150c15 0 27 -2 40 -5l-9 -50c-9 1 -18 1 -23 1c-37 0 -46 -18 -55 -68l-15 -83h65l-9 -55h-65zM226 0h-60l99 567h60zM308 640c-25 0 -41 20 -37 45c5 26 29 45 53 45c25 0 42 -20 37 -45
c-4 -24 -27 -45 -53 -45z" />
    <glyph glyph-name="f_j" unicode="fj" horiz-adv-x="309" 
d="M157 512l-90 -512h-60l90 512h-55l9 55h55l10 55c21 117 51 150 112 150c15 0 27 -2 40 -5l-9 -50c-9 1 -18 1 -23 1c-37 0 -46 -18 -55 -68l-15 -83h65l-9 -55h-65zM64 -201l9 50c8 -1 12 -1 17 -1c48 0 54 28 62 77l113 642h60l-111 -633c-16 -89 -38 -140 -111 -140
c-14 0 -26 2 -39 5zM308 640c-25 0 -41 20 -37 45c5 26 29 45 53 45c25 0 42 -20 37 -45c-4 -24 -27 -45 -53 -45z" />
    <glyph glyph-name="fl" unicode="fl" horiz-adv-x="310" 
d="M157 512l-90 -512h-60l90 512h-55l9 55h55l10 55c21 117 51 150 112 150c15 0 27 -2 40 -5l-9 -50c-9 1 -18 1 -23 1c-37 0 -46 -18 -55 -68l-15 -83h65l-9 -55h-65zM226 0h-60l135 766h60z" />
    <glyph glyph-name="f_t" unicode="ft" horiz-adv-x="345" 
d="M300 47l-9 -50c-14 -3 -27 -5 -43 -5c-75 0 -75 46 -57 150l65 370h-99l-90 -512h-60l90 512h-55l9 55h55l10 55c21 117 51 150 112 150c15 0 27 -2 40 -5l-9 -50c-9 1 -18 1 -23 1c-37 0 -46 -18 -55 -68l-15 -83h99l25 140h60l-25 -140h65l-9 -55h-65l-70 -398
c-9 -50 -6 -68 31 -68c5 0 14 0 23 1z" />
    <glyph glyph-name="ffi" unicode="ffi" horiz-adv-x="468" 
d="M385 0h-60l99 567h60zM467 640c-25 0 -41 20 -37 45c5 26 29 45 53 45c25 0 42 -20 37 -45c-4 -24 -27 -45 -53 -45zM316 512l-90 -512h-60l90 512h-99l-90 -512h-60l90 512h-55l9 55h55l10 55c21 117 51 150 112 150c15 0 27 -2 40 -5l-9 -50c-9 1 -18 1 -23 1
c-37 0 -46 -18 -55 -68l-15 -83h99l10 55c21 117 51 150 112 150c15 0 27 -2 40 -5l-9 -50c-9 1 -18 1 -23 1c-37 0 -46 -18 -55 -68l-15 -83h65l-9 -55h-65z" />
    <glyph glyph-name="ffl" unicode="ffl" horiz-adv-x="469" 
d="M385 0h-60l135 766h60zM316 512l-90 -512h-60l90 512h-99l-90 -512h-60l90 512h-55l9 55h55l10 55c21 117 51 150 112 150c15 0 27 -2 40 -5l-9 -50c-9 1 -18 1 -23 1c-37 0 -46 -18 -55 -68l-15 -83h99l10 55c21 117 51 150 112 150c15 0 27 -2 40 -5l-9 -50
c-9 1 -18 1 -23 1c-37 0 -46 -18 -55 -68l-15 -83h65l-9 -55h-65z" />
    <glyph glyph-name="copyright" unicode="&#x28;C&#x29;" horiz-adv-x="687" 
d="M290 -8c-217 0 -289 144 -246 388s166 391 384 391c217 0 292 -147 249 -390c-43 -242 -168 -389 -387 -389zM303 47c183 0 281 129 317 333c36 205 -17 337 -202 337c-187 0 -282 -134 -317 -333c-37 -212 22 -337 202 -337zM465 306l-5 -29
c-22 -129 -78 -160 -146 -160s-112 31 -90 160l38 212c22 129 78 160 146 160s112 -31 90 -160l-7 -39h-62l11 66c10 53 -11 76 -42 76s-60 -23 -70 -76l-46 -266c-10 -53 11 -76 42 -76s60 23 70 76l9 56h62z" />
    <glyph glyph-name="uni2117" unicode="&#x28;P&#x29;" horiz-adv-x="687" 
d="M290 -8c-217 0 -289 144 -246 388s166 391 384 391c217 0 292 -147 249 -390c-43 -242 -168 -389 -387 -389zM303 47c183 0 281 129 317 333c36 205 -17 337 -202 337c-187 0 -282 -134 -317 -333c-37 -212 22 -337 202 -337zM282 124h-62l92 517h100
c117 0 124 -40 107 -160l-1 -8c-24 -135 -67 -160 -164 -160h-38zM452 451l10 57c10 56 -5 76 -43 76h-56l-36 -209h56c38 0 59 20 69 76z" />
    <glyph glyph-name="registered" unicode="&#x28;R&#x29;" horiz-adv-x="368" 
d="M202 382c-106 0 -151 68 -129 194c22 124 90 195 197 195c111 0 150 -76 129 -195c-22 -124 -90 -194 -197 -194zM210 420c91 0 133 54 151 156c18 103 -6 158 -97 158c-95 0 -136 -59 -153 -156c-18 -104 8 -158 99 -158zM285 458h-41l-16 90h-13l-16 -90h-41l42 238h60
c44 0 64 -18 56 -71c-7 -48 -27 -64 -48 -72zM274 621l1 4c3 14 -1 33 -22 33h-18l-13 -70h18c26 0 31 19 34 33z" />
    <glyph glyph-name="trademark" unicode="&#x28;TM&#x29;" horiz-adv-x="588" 
d="M567 414h-47l48 269l-133 -269h-24l-31 267l-48 -267h-46l63 352h63l33 -247l121 247h64zM169 414h-47l54 306h-83l9 46h213l-9 -46h-83z" />
    <glyph glyph-name=".notdef" horiz-adv-x="430" 
d="M330 0h-330l135 766h330zM83 132l139 265l-49 244zM258 52l-31 278l-136 -278h167zM251 468l119 246h-155zM292 130l90 510l-119 -244z" />
    <glyph glyph-name="apple" unicode="&#xf8ff;" horiz-adv-x="1006" 
d="M604 0h-202l-100 503l201 198l202 -198zM353 0h-172l-131 171l86 163l166 -82zM826 0h-172l51 252l165 82l86 -163z" />
    <glyph glyph-name="space" unicode=" " horiz-adv-x="122" 
 />
    <glyph glyph-name="nbspace" unicode="&#xa0;" horiz-adv-x="122" 
 />
    <glyph glyph-name="A" unicode="A" horiz-adv-x="288" 
d="M233 0h-62l11 190h-109l-55 -190h-62l238 767h70zM184 247l25 410l-118 -410h93z" />
    <glyph glyph-name="B" unicode="B" horiz-adv-x="307" 
d="M94 0h-105l135 766h104c92 0 122 -34 99 -158l-18 -98c-9 -49 -30 -101 -93 -116c56 -12 71 -66 61 -123l-19 -111c-24 -133 -67 -160 -164 -160zM245 499l24 131c10 55 -6 74 -43 74h-51l-50 -281h51c40 0 59 20 69 76zM192 138l26 147c10 56 -15 76 -53 76h-51
l-53 -299h61c38 0 60 20 70 76z" />
    <glyph glyph-name="C" unicode="C" horiz-adv-x="299" 
d="M182 120l24 136h62l-20 -109c-24 -129 -78 -160 -146 -160s-113 31 -90 160l84 472c23 129 78 160 146 160s113 -31 90 -160l-21 -119h-62l25 146c9 53 -11 76 -42 76s-61 -23 -70 -76l-92 -526c-9 -53 11 -76 42 -76s60 23 70 76z" />
    <glyph glyph-name="D" unicode="D" horiz-adv-x="306" 
d="M84 0h-95l135 766h95c97 0 131 -25 107 -160l-78 -446c-24 -135 -67 -160 -164 -160zM182 138l86 490c10 56 -4 76 -42 76h-51l-114 -642h51c38 0 60 20 70 76z" />
    <glyph glyph-name="E" unicode="E" horiz-adv-x="267" 
d="M193 0h-204l135 766h204l-11 -62h-142l-51 -287h135l-11 -62h-135l-52 -293h142z" />
    <glyph glyph-name="F" unicode="F" horiz-adv-x="263" 
d="M51 0h-62l135 766h204l-11 -62h-142l-51 -287h135l-11 -62h-135z" />
    <glyph glyph-name="G" unicode="G" horiz-adv-x="314" 
d="M192 120l34 196h-67l11 60h129l-41 -229c-23 -131 -79 -160 -150 -160c-72 0 -119 30 -96 160l84 472c23 130 78 160 149 160c79 0 119 -37 97 -160l-22 -120h-62l26 147c10 56 -13 76 -47 76c-38 0 -66 -26 -75 -76l-92 -526c-10 -56 13 -76 47 -76c37 0 66 25 75 76z
" />
    <glyph glyph-name="H" unicode="H" horiz-adv-x="314" 
d="M225 0h-62l63 360h-112l-63 -360h-62l135 766h62l-61 -344h112l61 344h62z" />
    <glyph glyph-name="I" unicode="I" horiz-adv-x="140" 
d="M51 0h-62l135 766h62z" />
    <glyph glyph-name="J" unicode="J" horiz-adv-x="140" 
d="M-100 -192h-4l10 57h4c28 0 58 20 68 76l146 825h62l-143 -810c-24 -135 -98 -148 -143 -148z" />
    <glyph glyph-name="K" unicode="K" horiz-adv-x="297" 
d="M255 0h-62l-74 383l190 383h62l-183 -380zM51 0h-62l135 766h62z" />
    <glyph glyph-name="L" unicode="L" horiz-adv-x="211" 
d="M153 0h-164l135 766h62l-125 -704h102z" />
    <glyph glyph-name="M" unicode="M" horiz-adv-x="438" 
d="M349 0h-62l114 625l-218 -625h-40l14 629l-106 -629h-62l135 766h95l-12 -550l182 550h95z" />
    <glyph glyph-name="N" unicode="N" horiz-adv-x="336" 
d="M247 0h-64l-40 536l-92 -536h-62l135 766h59l43 -544l94 544h62z" />
    <glyph glyph-name="O" unicode="O" horiz-adv-x="308" 
d="M11 147l84 472c23 131 79 160 145 160c71 0 113 -34 91 -160l-84 -472c-23 -131 -79 -160 -145 -160c-71 0 -113 34 -91 160zM181 120l92 526c10 56 -13 76 -42 76s-60 -21 -70 -76l-92 -526c-10 -56 13 -76 42 -76s60 21 70 76z" />
    <glyph glyph-name="P" unicode="P" horiz-adv-x="292" 
d="M51 0h-62l135 766h95c95 0 131 -22 107 -160l-20 -118c-24 -135 -68 -160 -165 -160h-33zM240 466l28 162c10 56 -4 76 -42 76h-51l-56 -314h51c38 0 60 20 70 76z" />
    <glyph glyph-name="Q" unicode="Q" horiz-adv-x="308" 
d="M203 -107l-51 -25l-33 120c-5 -1 -11 -1 -17 -1c-65 0 -113 29 -90 160l84 472c23 131 79 160 145 160c71 0 113 -34 91 -160l-84 -472c-15 -85 -42 -124 -77 -144zM182 120l92 526c10 56 -13 76 -42 76s-60 -21 -70 -76l-92 -526c-10 -56 13 -76 42 -76s60 21 70 76z
" />
    <glyph glyph-name="R" unicode="R" horiz-adv-x="297" 
d="M240 0h-62l-32 333h-37l-58 -333h-62l135 766h97c97 0 129 -25 105 -160l-20 -115c-16 -93 -44 -137 -101 -151zM241 471l27 157c10 56 -4 76 -42 76h-51l-55 -309h51c38 0 60 20 70 76z" />
    <glyph glyph-name="S" unicode="S" horiz-adv-x="295" 
d="M175 120l18 103c18 105 -147 160 -120 310l18 98c24 132 96 148 143 148c46 0 116 -15 92 -150l-23 -130h-62l26 147c10 56 -14 76 -42 76s-60 -20 -70 -76l-18 -104c-24 -136 146 -165 120 -308l-14 -77c-19 -111 -55 -170 -147 -170s-109 59 -89 170l18 99h62l-24 -136
c-10 -56 14 -76 42 -76s60 20 70 76z" />
    <glyph glyph-name="T" unicode="T" horiz-adv-x="268" 
d="M115 0h-62l124 704h-95l11 62h252l-11 -62h-95z" />
    <glyph glyph-name="U" unicode="U" horiz-adv-x="312" 
d="M183 120l114 646h62l-110 -619c-22 -129 -78 -160 -146 -160s-112 31 -90 160l110 619h62l-114 -646c-10 -53 11 -76 42 -76s60 23 70 76z" />
    <glyph glyph-name="V" unicode="V" horiz-adv-x="276" 
d="M123 0h-70l41 766h62l-52 -668l185 668h62z" />
    <glyph glyph-name="W" unicode="W" horiz-adv-x="457" 
d="M312 0h-70l37 577l-164 -577h-70l51 766h62l-55 -634l178 634h64l-45 -634l168 634h62z" />
    <glyph glyph-name="X" unicode="X" horiz-adv-x="299" 
d="M248 0h-62l-30 307l-148 -307h-62l198 394l-57 372h63l37 -281l131 281h63l-175 -373z" />
    <glyph glyph-name="Y" unicode="Y" horiz-adv-x="296" 
d="M128 0h-60l50 286l-24 480h63l10 -372l142 372h63l-194 -480z" />
    <glyph glyph-name="Z" unicode="Z" horiz-adv-x="263" 
d="M199 0h-236l10 62l275 642h-152l11 62h227l-4 -18l-293 -686h172z" />
    <glyph glyph-name="a" unicode="a" horiz-adv-x="251" 
d="M168 0h-47l-1 46c-14 -22 -37 -54 -80 -54c-50 0 -57 43 -39 150l2 12c18 106 40 152 94 152c30 0 46 -14 56 -47l33 185c10 56 5 76 -23 76s-39 -20 -49 -76l-10 -58h-60l9 53c16 94 44 136 121 136c68 0 89 -33 71 -136zM131 132l7 42c8 48 3 74 -25 74
s-38 -25 -47 -76l-9 -51c-9 -51 -5 -75 19 -75c22 0 44 21 55 86z" />
    <glyph glyph-name="b" unicode="b" horiz-adv-x="256" 
d="M31 0h-47l135 766h60l-44 -245c14 22 36 54 78 54c47 0 56 -41 37 -150l-49 -283c-18 -102 -41 -150 -93 -150c-43 0 -54 32 -60 54zM137 121l57 325c9 51 5 75 -19 75c-22 0 -43 -19 -55 -86l-53 -303c-12 -67 3 -86 25 -86c24 0 36 24 45 75z" />
    <glyph glyph-name="c" unicode="c" horiz-adv-x="248" 
d="M131 103l21 119h60l-20 -112c-17 -95 -63 -118 -117 -118s-92 23 -75 118l61 347c17 96 63 118 117 118s92 -22 75 -118l-17 -98h-60l18 105c7 39 -3 56 -26 56s-39 -17 -46 -56l-63 -361c-7 -39 3 -56 26 -56s39 17 46 56z" />
    <glyph glyph-name="d" unicode="d" horiz-adv-x="256" 
d="M171 0h-47l-1 46c-14 -22 -37 -54 -80 -54c-52 0 -57 46 -39 150l49 283c19 109 45 150 92 150c41 0 51 -32 57 -54l44 245h60zM134 132l53 303c12 67 -3 86 -25 86c-24 0 -36 -24 -45 -75l-57 -325c-9 -51 -5 -75 19 -75c22 0 43 19 55 86z" />
    <glyph glyph-name="e" unicode="e" horiz-adv-x="250" 
d="M130 103l14 84h60l-13 -77c-16 -93 -62 -118 -117 -118c-58 0 -91 27 -75 118l61 347c17 96 63 118 117 118s92 -22 75 -118l-34 -196h-132l-28 -158c-7 -39 3 -56 26 -56s39 17 46 56zM167 315l26 149c7 39 -3 56 -26 56s-39 -17 -46 -56l-26 -149h72z" />
    <glyph glyph-name="f" unicode="f" horiz-adv-x="182" 
d="M157 512l-90 -512h-60l90 512h-55l9 55h55l10 55c21 117 51 150 112 150c15 0 27 -2 40 -5l-9 -50c-9 1 -18 1 -23 1c-37 0 -46 -18 -55 -68l-15 -83h65l-9 -55h-65z" />
    <glyph glyph-name="g" unicode="g" horiz-adv-x="252" 
d="M177 18l-14 -78c-20 -114 -62 -142 -124 -142c-73 0 -97 38 -77 150l13 70c9 49 20 67 48 97c-6 16 -9 30 -6 46c4 24 18 46 44 72c-22 23 -30 46 -19 108l16 94c19 111 56 140 114 140c19 0 34 -3 48 -13h81l-7 -37h-48c10 -23 11 -52 4 -90l-16 -94
c-17 -97 -58 -128 -116 -128c-11 0 -18 0 -27 2c-12 -8 -19 -21 -21 -33c-3 -16 2 -35 36 -35c49 0 91 -15 71 -129zM174 342l18 102c10 56 5 76 -23 76s-39 -20 -49 -76l-18 -102c-10 -56 -6 -76 22 -76s40 20 50 76zM101 -71l15 88c10 60 5 76 -25 76
c-38 0 -47 -27 -57 -81l-15 -83c-10 -56 0 -76 28 -76s44 20 54 76z" />
    <glyph glyph-name="h" unicode="h" horiz-adv-x="257" 
d="M175 0h-60l78 446c9 51 5 75 -19 75c-22 0 -43 -19 -55 -86l-76 -435h-60l135 766h60l-44 -245c14 22 36 54 77 54c49 0 57 -44 38 -150z" />
    <glyph glyph-name="i" unicode="i" horiz-adv-x="126" 
d="M43 0h-60l99 567h60zM125 640c-25 0 -41 20 -37 45c5 26 29 45 53 45c25 0 42 -20 37 -45c-4 -24 -27 -45 -53 -45z" />
    <glyph glyph-name="j" unicode="j" horiz-adv-x="126" 
d="M-118 -201l9 50c8 -1 12 -1 17 -1c47 0 53 28 61 77l113 642h60l-111 -633c-16 -89 -38 -140 -110 -140c-14 0 -26 2 -39 5zM125 640c-25 0 -41 20 -37 45c5 26 29 45 53 45c25 0 42 -20 37 -45c-4 -24 -27 -45 -53 -45z" />
    <glyph glyph-name="k" unicode="k" horiz-adv-x="259" 
d="M207 0h-61l-51 290l150 277h62l-146 -274zM43 0h-60l135 766h60z" />
    <glyph glyph-name="l" unicode="l" horiz-adv-x="128" 
d="M44 0h-60l135 766h60z" />
    <glyph glyph-name="m" unicode="m" horiz-adv-x="390" 
d="M308 0h-60l78 446c9 51 5 75 -19 75c-22 0 -43 -18 -54 -81l-77 -440h-60l78 446c9 51 5 75 -19 75c-22 0 -43 -19 -55 -86l-76 -435h-60l99 567h47l1 -46c14 22 37 54 80 54c33 0 48 -19 49 -62c17 30 40 62 83 62c50 0 58 -43 39 -150z" />
    <glyph glyph-name="n" unicode="n" 
d="M176 0h-60l78 446c9 51 5 75 -19 75c-22 0 -43 -19 -55 -86l-76 -435h-60l99 567h47l1 -46c14 22 37 54 80 54c50 0 58 -43 39 -150z" />
    <glyph glyph-name="o" unicode="o" horiz-adv-x="254" 
d="M0 110l61 347c17 96 63 118 117 118s92 -22 75 -118l-61 -347c-17 -95 -63 -118 -117 -118s-92 23 -75 118zM131 103l63 361c7 39 -3 56 -26 56s-39 -17 -46 -56l-63 -361c-7 -39 3 -56 26 -56s39 17 46 56z" />
    <glyph glyph-name="p" unicode="p" horiz-adv-x="257" 
d="M50 37l-42 -236h-59l134 766h47l1 -46c14 22 37 54 80 54c50 0 58 -43 39 -150l-49 -283c-19 -107 -43 -150 -93 -150c-37 0 -51 24 -58 45zM120 435l-53 -303c-12 -67 3 -86 25 -86c24 0 36 24 45 75l57 325c9 51 5 75 -19 75c-22 0 -43 -19 -55 -86z" />
    <glyph glyph-name="q" unicode="q" horiz-adv-x="257" 
d="M137 -199h-60l42 236c-15 -21 -37 -45 -74 -45c-50 0 -58 43 -39 150l49 283c19 107 43 150 93 150c43 0 54 -32 60 -54l17 46h47zM136 132l53 303c12 67 -3 86 -25 86c-24 0 -36 -24 -45 -75l-57 -325c-9 -51 -5 -75 19 -75c22 0 43 19 55 86z" />
    <glyph glyph-name="r" unicode="r" horiz-adv-x="190" 
d="M44 0h-60l99 567h47l1 -46c10 17 38 53 76 53c22 0 35 -12 35 -12l-37 -65c-15 9 -28 12 -37 12c-26 0 -39 -23 -50 -86z" />
    <glyph glyph-name="s" unicode="s" horiz-adv-x="246" 
d="M63 187l-11 -67c-8 -48 -11 -73 24 -73c32 0 48 21 57 71c29 167 -121 120 -85 324c20 112 66 133 125 133c68 0 96 -28 78 -130l-12 -67h-60l12 66c11 60 3 76 -27 76c-26 0 -44 -11 -54 -70c-33 -186 121 -120 85 -325c-19 -107 -63 -133 -129 -133
c-74 0 -90 33 -72 140l9 55h60z" />
    <glyph glyph-name="t" unicode="t" horiz-adv-x="178" 
d="M131 47l-9 -50c-14 -3 -27 -5 -43 -5c-75 0 -75 46 -57 150l65 370h-45l9 55h45l25 140h60l-25 -140h65l-9 -55h-65l-70 -398c-9 -50 -6 -68 31 -68c5 0 14 0 23 1z" />
    <glyph glyph-name="u" unicode="u" 
d="M174 0h-47l-1 46c-14 -22 -37 -54 -80 -54c-50 0 -58 43 -39 150l74 425h60l-78 -446c-9 -51 -5 -75 19 -75c22 0 43 19 55 86l76 435h60z" />
    <glyph glyph-name="v" unicode="v" horiz-adv-x="236" 
d="M101 0h-66l22 567h64l-39 -477l130 477h64z" />
    <glyph glyph-name="w" unicode="w" horiz-adv-x="393" 
d="M258 0h-66l28 421l-119 -421h-66l22 567h64l-33 -447l124 447h67l-32 -447l123 447h64z" />
    <glyph glyph-name="x" unicode="x" horiz-adv-x="240" 
d="M186 0h-59l-25 209l-89 -209h-58l135 290l-35 277h59l22 -192l86 192h61l-136 -278z" />
    <glyph glyph-name="y" unicode="y" horiz-adv-x="245" 
d="M38 -200h-64l61 169l25 598h64l-34 -471l135 471h64z" />
    <glyph glyph-name="z" unicode="z" horiz-adv-x="231" 
d="M160 0h-202l8 48l225 464h-124l9 55h195l-6 -38l-227 -474h131z" />
    <glyph glyph-name="germandbls" unicode="&#xdf;" horiz-adv-x="273" 
d="M69 -3l9 50c8 -1 12 -1 17 -1c48 0 53 26 62 77l34 190c10 58 11 119 -34 127l9 53c50 11 70 78 79 129l6 34c7 39 -2 61 -35 61s-50 -22 -57 -61l-115 -656h-60l114 649c17 96 64 123 128 123c61 0 102 -25 84 -123l-9 -49c-16 -88 -58 -121 -99 -132
c39 -8 69 -39 55 -121l-38 -215c-16 -89 -38 -140 -111 -140c-14 0 -27 2 -39 5z" />
    <glyph glyph-name="Agrave" unicode="&#xc0;" horiz-adv-x="288" 
d="M233 0h-62l11 190h-109l-55 -190h-62l238 767h70zM184 247l25 410l-118 -410h93zM254 942l26 -101h-53l-44 101h71z" />
    <glyph glyph-name="agrave" unicode="&#xe0;" horiz-adv-x="251" 
d="M168 0h-47l-1 46c-14 -22 -37 -54 -80 -54c-50 0 -57 43 -39 150l2 12c18 106 40 152 94 152c30 0 46 -14 56 -47l33 185c10 56 5 76 -23 76s-39 -20 -49 -76l-10 -58h-60l9 53c16 94 44 136 121 136c68 0 89 -33 71 -136zM131 132l7 42c8 48 3 74 -25 74
s-38 -25 -47 -76l-9 -51c-9 -51 -5 -75 19 -75c22 0 44 21 55 86zM200 743l26 -101h-53l-44 101h71z" />
    <glyph glyph-name="Aacute" unicode="&#xc1;" horiz-adv-x="288" 
d="M233 0h-62l11 190h-109l-55 -190h-62l238 767h70zM184 247l25 410l-118 -410h93zM262 841h-53l62 101h71z" />
    <glyph glyph-name="aacute" unicode="&#xe1;" horiz-adv-x="251" 
d="M168 0h-47l-1 46c-14 -22 -37 -54 -80 -54c-50 0 -57 43 -39 150l2 12c18 106 40 152 94 152c30 0 46 -14 56 -47l33 185c10 56 5 76 -23 76s-39 -20 -49 -76l-10 -58h-60l9 53c16 94 44 136 121 136c68 0 89 -33 71 -136zM131 132l7 42c8 48 3 74 -25 74
s-38 -25 -47 -76l-9 -51c-9 -51 -5 -75 19 -75c22 0 44 21 55 86zM200 642h-53l62 101h71z" />
    <glyph glyph-name="Acircumflex" unicode="&#xc2;" horiz-adv-x="288" 
d="M233 0h-62l11 190h-109l-55 -190h-62l238 767h70zM184 247l25 410l-118 -410h93zM334 841h-53l-28 62l-47 -62h-56l75 101h70z" />
    <glyph glyph-name="acircumflex" unicode="&#xe2;" horiz-adv-x="251" 
d="M168 0h-47l-1 46c-14 -22 -37 -54 -80 -54c-50 0 -57 43 -39 150l2 12c18 106 40 152 94 152c30 0 46 -14 56 -47l33 185c10 56 5 76 -23 76s-39 -20 -49 -76l-10 -58h-60l9 53c16 94 44 136 121 136c68 0 89 -33 71 -136zM131 132l7 42c8 48 3 74 -25 74
s-38 -25 -47 -76l-9 -51c-9 -51 -5 -75 19 -75c22 0 44 21 55 86zM278 642h-53l-28 62l-47 -62h-56l75 101h70z" />
    <glyph glyph-name="Atilde" unicode="&#xc3;" horiz-adv-x="288" 
d="M233 0h-62l11 190h-109l-55 -190h-62l238 767h70zM184 247l25 410l-118 -410h93zM293 903h58c-13 -39 -43 -63 -74 -63c-26 0 -38 17 -57 17c-12 0 -17 -7 -20 -16h-56c3 11 23 63 71 63c26 0 45 -15 60 -15c14 0 18 14 18 14z" />
    <glyph glyph-name="atilde" unicode="&#xe3;" horiz-adv-x="251" 
d="M168 0h-47l-1 46c-14 -22 -37 -54 -80 -54c-50 0 -57 43 -39 150l2 12c18 106 40 152 94 152c30 0 46 -14 56 -47l33 185c10 56 5 76 -23 76s-39 -20 -49 -76l-10 -58h-60l9 53c16 94 44 136 121 136c68 0 89 -33 71 -136zM131 132l7 42c8 48 3 74 -25 74
s-38 -25 -47 -76l-9 -51c-9 -51 -5 -75 19 -75c22 0 44 21 55 86zM237 704h58c-13 -39 -43 -63 -74 -63c-26 0 -38 17 -57 17c-12 0 -17 -7 -20 -16h-56c3 11 23 63 71 63c26 0 45 -15 60 -15c14 0 18 14 18 14z" />
    <glyph glyph-name="Adieresis" unicode="&#xc4;" horiz-adv-x="288" 
d="M233 0h-62l11 190h-109l-55 -190h-62l238 767h70zM184 247l25 410l-118 -410h93zM174 831c-25 0 -38 20 -34 43c4 24 26 43 50 43s40 -19 36 -43c-4 -23 -27 -43 -52 -43zM305 831c-25 0 -38 20 -34 43c4 24 26 43 50 43s40 -19 36 -43c-4 -23 -27 -43 -52 -43z" />
    <glyph glyph-name="adieresis" unicode="&#xe4;" horiz-adv-x="251" 
d="M168 0h-47l-1 46c-14 -22 -37 -54 -80 -54c-50 0 -57 43 -39 150l2 12c18 106 40 152 94 152c30 0 46 -14 56 -47l33 185c10 56 5 76 -23 76s-39 -20 -49 -76l-10 -58h-60l9 53c16 94 44 136 121 136c68 0 89 -33 71 -136zM131 132l7 42c8 48 3 74 -25 74
s-38 -25 -47 -76l-9 -51c-9 -51 -5 -75 19 -75c22 0 44 21 55 86zM118 632c-25 0 -38 20 -34 43c4 24 26 43 50 43s40 -19 36 -43c-4 -23 -27 -43 -52 -43zM249 632c-25 0 -38 20 -34 43c4 24 26 43 50 43s40 -19 36 -43c-4 -23 -27 -43 -52 -43z" />
    <glyph glyph-name="Aring" unicode="&#xc5;" horiz-adv-x="288" 
d="M233 0h-62l11 190h-109l-55 -190h-62l238 767h70zM184 247l25 410l-118 -410h93zM283 872c3 20 -10 36 -30 36c-22 0 -39 -18 -42 -36c-4 -20 10 -36 30 -36c18 0 38 14 42 36zM236 808c-36 0 -59 28 -53 64s39 64 75 64s59 -28 53 -64s-39 -64 -75 -64z" />
    <glyph glyph-name="aring" unicode="&#xe5;" horiz-adv-x="251" 
d="M168 0h-47l-1 46c-14 -22 -37 -54 -80 -54c-50 0 -57 43 -39 150l2 12c18 106 40 152 94 152c30 0 46 -14 56 -47l33 185c10 56 5 76 -23 76s-39 -20 -49 -76l-10 -58h-60l9 53c16 94 44 136 121 136c68 0 89 -33 71 -136zM131 132l7 42c8 48 3 74 -25 74
s-38 -25 -47 -76l-9 -51c-9 -51 -5 -75 19 -75c22 0 44 21 55 86zM229 683c3 20 -10 36 -30 36c-22 0 -39 -18 -42 -36c-4 -20 10 -36 30 -36c18 0 38 14 42 36zM182 619c-36 0 -59 28 -53 64s39 64 75 64s59 -28 53 -64s-39 -64 -75 -64z" />
    <glyph glyph-name="Amacron" unicode="&#x100;" horiz-adv-x="288" 
d="M233 0h-62l11 190h-109l-55 -190h-62l238 767h70zM184 247l25 410l-118 -410h93zM343 841h-202l9 50h202z" />
    <glyph glyph-name="amacron" unicode="&#x101;" horiz-adv-x="251" 
d="M168 0h-47l-1 46c-14 -22 -37 -54 -80 -54c-50 0 -57 43 -39 150l2 12c18 106 40 152 94 152c30 0 46 -14 56 -47l33 185c10 56 5 76 -23 76s-39 -20 -49 -76l-10 -58h-60l9 53c16 94 44 136 121 136c68 0 89 -33 71 -136zM131 132l7 42c8 48 3 74 -25 74
s-38 -25 -47 -76l-9 -51c-9 -51 -5 -75 19 -75c22 0 44 21 55 86zM287 642h-202l9 50h202z" />
    <glyph glyph-name="Abreve" unicode="&#x102;" horiz-adv-x="288" 
d="M233 0h-62l11 190h-109l-55 -190h-62l238 767h70zM184 247l25 410l-118 -410h93zM310 924h39c-10 -58 -59 -88 -107 -88s-88 30 -78 88h40c-5 -31 13 -47 45 -47c31 0 56 16 61 47z" />
    <glyph glyph-name="abreve" unicode="&#x103;" horiz-adv-x="251" 
d="M168 0h-47l-1 46c-14 -22 -37 -54 -80 -54c-50 0 -57 43 -39 150l2 12c18 106 40 152 94 152c30 0 46 -14 56 -47l33 185c10 56 5 76 -23 76s-39 -20 -49 -76l-10 -58h-60l9 53c16 94 44 136 121 136c68 0 89 -33 71 -136zM131 132l7 42c8 48 3 74 -25 74
s-38 -25 -47 -76l-9 -51c-9 -51 -5 -75 19 -75c22 0 44 21 55 86zM253 725h39c-10 -58 -59 -88 -107 -88s-88 30 -78 88h40c-5 -31 13 -47 45 -47c31 0 56 16 61 47z" />
    <glyph glyph-name="Aogonek" unicode="&#x104;" horiz-adv-x="287" 
d="M195 -141l-27 -31c-63 8 -81 47 -74 87c6 35 30 64 75 84l12 191h-109l-55 -190h-62l238 767h70l-31 -767c-60 -13 -85 -54 -89 -82c-6 -37 22 -51 52 -59zM183 247l25 410l-118 -410h93z" />
    <glyph glyph-name="aogonek" unicode="&#x105;" horiz-adv-x="251" 
d="M149 -141l-27 -31c-63 8 -81 47 -74 87c5 30 26 63 78 85l-5 46c-14 -22 -37 -54 -81 -54c-48 0 -57 38 -38 150l2 12c19 113 45 152 94 152c30 0 46 -14 56 -47l33 185c10 56 5 76 -23 76s-39 -20 -49 -76l-10 -58h-60l9 53c16 94 44 136 121 136c68 0 89 -33 71 -136
l-77 -439c-34 -20 -66 -48 -72 -82c-6 -36 21 -51 52 -59zM132 132l7 42c8 48 3 74 -25 74s-38 -25 -47 -76l-9 -51c-9 -51 -5 -75 19 -75c22 0 44 21 55 86z" />
    <glyph glyph-name="AE" unicode="&#xc6;" horiz-adv-x="441" 
d="M367 0h-204l33 190h-109l-80 -190h-61l330 766h226l-11 -62h-142l-51 -287h135l-11 -62h-135l-52 -293h142zM206 246l73 416l-166 -416h93z" />
    <glyph glyph-name="ae" unicode="&#xe6;" horiz-adv-x="378" 
d="M258 103l14 84h60l-13 -77c-16 -94 -63 -118 -118 -118c-41 0 -73 13 -78 62c-17 -30 -40 -62 -83 -62c-50 0 -57 43 -39 150l2 12c19 116 44 152 94 152c30 0 46 -14 56 -47l33 185c10 56 5 76 -23 76s-39 -20 -49 -76l-10 -58h-60l9 53c16 94 44 136 121 136
c29 0 49 -6 59 -31c22 26 46 31 72 31c54 0 92 -22 75 -118l-34 -196h-132l-30 -167c-4 -33 6 -47 27 -47c24 0 40 17 47 56zM295 315l26 149c7 39 -3 56 -26 56s-39 -17 -46 -56l-26 -149h72zM131 132l7 42c8 48 3 74 -25 74s-38 -25 -47 -76l-9 -51c-9 -51 -5 -75 19 -75
c22 0 44 21 55 86z" />
    <glyph glyph-name="AEacute" unicode="&#x1fc;" horiz-adv-x="441" 
d="M367 0h-204l33 190h-109l-80 -190h-61l330 766h226l-11 -62h-142l-51 -287h135l-11 -62h-135l-52 -293h142zM206 246l73 416l-166 -416h93zM422 841h-53l62 101h71z" />
    <glyph glyph-name="aeacute" unicode="&#x1fd;" horiz-adv-x="378" 
d="M258 103l14 84h60l-13 -77c-16 -94 -63 -118 -118 -118c-41 0 -73 13 -78 62c-17 -30 -40 -62 -83 -62c-50 0 -57 43 -39 150l2 12c19 116 44 152 94 152c30 0 46 -14 56 -47l33 185c10 56 5 76 -23 76s-39 -20 -49 -76l-10 -58h-60l9 53c16 94 44 136 121 136
c29 0 49 -6 59 -31c22 26 46 31 72 31c54 0 92 -22 75 -118l-34 -196h-132l-30 -167c-4 -33 6 -47 27 -47c24 0 40 17 47 56zM295 315l26 149c7 39 -3 56 -26 56s-39 -17 -46 -56l-26 -149h72zM131 132l7 42c8 48 3 74 -25 74s-38 -25 -47 -76l-9 -51c-9 -51 -5 -75 19 -75
c22 0 44 21 55 86zM274 642h-53l62 101h71z" />
    <glyph glyph-name="uni1E02" unicode="&#x1e02;" horiz-adv-x="307" 
d="M94 0h-105l135 766h104c92 0 122 -34 99 -158l-18 -98c-9 -49 -30 -101 -93 -116c56 -12 71 -66 61 -123l-19 -111c-24 -133 -67 -160 -164 -160zM245 499l24 131c10 55 -6 74 -43 74h-51l-50 -281h51c40 0 59 20 69 76zM192 138l26 147c10 56 -15 76 -53 76h-51
l-53 -299h61c38 0 60 20 70 76zM238 831c-25 0 -38 20 -34 43c4 24 26 43 50 43s40 -19 36 -43c-4 -23 -27 -43 -52 -43z" />
    <glyph glyph-name="uni1E03" unicode="&#x1e03;" horiz-adv-x="256" 
d="M31 0h-47l135 766h60l-44 -245c14 22 36 54 78 54c47 0 56 -41 37 -150l-49 -283c-18 -102 -41 -150 -93 -150c-43 0 -54 32 -60 54zM137 121l57 325c9 51 5 75 -19 75c-22 0 -43 -19 -55 -86l-53 -303c-12 -67 3 -86 25 -86c24 0 36 24 45 75zM245 680
c-25 0 -38 20 -34 43c4 24 26 43 50 43s40 -19 36 -43c-4 -23 -27 -43 -52 -43z" />
    <glyph glyph-name="Ccedilla" unicode="&#xc7;" horiz-adv-x="297" 
d="M7 -159l17 39c6 -4 19 -9 33 -9c23 0 40 14 43 31c3 15 -7 31 -34 31c-3 0 -6 0 -10 -1l23 56c-57 6 -90 43 -70 159l84 472c23 131 79 160 145 160c71 0 113 -34 91 -160l-21 -119h-62l25 146c10 58 -14 76 -41 76c-30 0 -61 -21 -71 -76l-92 -526
c-10 -56 13 -76 42 -76s60 21 70 76l24 136h62l-20 -109c-21 -117 -66 -152 -125 -159l-13 -34c29 0 50 -25 45 -56c-6 -34 -44 -68 -92 -68c-17 0 -37 4 -53 11z" />
    <glyph glyph-name="ccedilla" unicode="&#xe7;" horiz-adv-x="245" 
d="M-21 -159l17 39c6 -4 19 -9 33 -9c23 0 40 14 43 31c3 15 -7 31 -34 31c-3 0 -6 0 -10 -1l25 61c-44 6 -71 33 -56 117l61 347c17 96 63 118 117 118s92 -22 75 -118l-17 -98h-60l18 105c7 39 -3 56 -26 56s-39 -17 -46 -56l-63 -361c-7 -39 3 -56 26 -56s39 17 46 56
l21 119h60l-20 -112c-15 -83 -51 -110 -95 -116l-15 -40c29 0 50 -25 45 -56c-6 -34 -44 -68 -92 -68c-17 0 -37 4 -53 11z" />
    <glyph glyph-name="Cacute" unicode="&#x106;" horiz-adv-x="299" 
d="M182 120l24 136h62l-20 -109c-24 -129 -78 -160 -146 -160s-113 31 -90 160l84 472c23 129 78 160 146 160s113 -31 90 -160l-21 -119h-62l25 146c9 53 -11 76 -42 76s-61 -23 -70 -76l-92 -526c-9 -53 11 -76 42 -76s60 23 70 76zM271 841h-53l62 101h71z" />
    <glyph glyph-name="cacute" unicode="&#x107;" horiz-adv-x="248" 
d="M131 103l21 119h60l-20 -112c-17 -95 -63 -118 -117 -118s-92 23 -75 118l61 347c17 96 63 118 117 118s92 -22 75 -118l-17 -98h-60l18 105c7 39 -3 56 -26 56s-39 -17 -46 -56l-63 -361c-7 -39 3 -56 26 -56s39 17 46 56zM203 642h-53l62 101h71z" />
    <glyph glyph-name="Ccircumflex" unicode="&#x108;" horiz-adv-x="299" 
d="M182 120l24 136h62l-20 -109c-24 -129 -78 -160 -146 -160s-113 31 -90 160l84 472c23 129 78 160 146 160s113 -31 90 -160l-21 -119h-62l25 146c9 53 -11 76 -42 76s-61 -23 -70 -76l-92 -526c-9 -53 11 -76 42 -76s60 23 70 76zM345 841h-53l-28 62l-47 -62h-56
l75 101h70z" />
    <glyph glyph-name="ccircumflex" unicode="&#x109;" horiz-adv-x="248" 
d="M131 103l21 119h60l-20 -112c-17 -95 -63 -118 -117 -118s-92 23 -75 118l61 347c17 96 63 118 117 118s92 -22 75 -118l-17 -98h-60l18 105c7 39 -3 56 -26 56s-39 -17 -46 -56l-63 -361c-7 -39 3 -56 26 -56s39 17 46 56zM281 642h-53l-28 62l-47 -62h-56l75 101h70z
" />
    <glyph glyph-name="Cdotaccent" unicode="&#x10a;" horiz-adv-x="299" 
d="M182 120l24 136h62l-20 -109c-24 -129 -78 -160 -146 -160s-113 31 -90 160l84 472c23 129 78 160 146 160s113 -31 90 -160l-21 -119h-62l25 146c9 53 -11 76 -42 76s-61 -23 -70 -76l-92 -526c-9 -53 11 -76 42 -76s60 23 70 76zM250 831c-25 0 -38 20 -34 43
c4 24 26 43 50 43s40 -19 36 -43c-4 -23 -27 -43 -52 -43z" />
    <glyph glyph-name="cdotaccent" unicode="&#x10b;" horiz-adv-x="248" 
d="M131 103l21 119h60l-20 -112c-17 -95 -63 -118 -117 -118s-92 23 -75 118l61 347c17 96 63 118 117 118s92 -22 75 -118l-17 -98h-60l18 105c7 39 -3 56 -26 56s-39 -17 -46 -56l-63 -361c-7 -39 3 -56 26 -56s39 17 46 56zM186 632c-25 0 -38 20 -34 43
c4 24 26 43 50 43s40 -19 36 -43c-4 -23 -27 -43 -52 -43z" />
    <glyph glyph-name="Ccaron" unicode="&#x10c;" horiz-adv-x="299" 
d="M182 120l24 136h62l-20 -109c-24 -129 -78 -160 -146 -160s-113 31 -90 160l84 472c23 129 78 160 146 160s113 -31 90 -160l-21 -119h-62l25 146c9 53 -11 76 -42 76s-61 -23 -70 -76l-92 -526c-9 -53 11 -76 42 -76s60 23 70 76zM288 841h-70l-39 101h56l25 -62l50 62
h53z" />
    <glyph glyph-name="ccaron" unicode="&#x10d;" horiz-adv-x="248" 
d="M131 103l21 119h60l-20 -112c-17 -95 -63 -118 -117 -118s-92 23 -75 118l61 347c17 96 63 118 117 118s92 -22 75 -118l-17 -98h-60l18 105c7 39 -3 56 -26 56s-39 -17 -46 -56l-63 -361c-7 -39 3 -56 26 -56s39 17 46 56zM224 642h-70l-39 101h56l25 -62l50 62h53z" />
    <glyph glyph-name="Dcaron" unicode="&#x10e;" horiz-adv-x="306" 
d="M84 0h-95l135 766h95c97 0 131 -25 107 -160l-78 -446c-24 -135 -67 -160 -164 -160zM182 138l86 490c10 56 -4 76 -42 76h-51l-114 -642h51c38 0 60 20 70 76zM279 841h-70l-39 101h56l25 -62l50 62h53z" />
    <glyph glyph-name="dcaron" unicode="&#x10f;" horiz-adv-x="284" 
d="M323 538h-34l76 228h73zM171 0h-47l-1 46c-14 -22 -37 -54 -80 -54c-52 0 -57 46 -39 150l49 283c19 109 45 150 92 150c41 0 51 -32 57 -54l44 245h60zM134 132l53 303c12 67 -3 86 -25 86c-24 0 -36 -24 -45 -75l-57 -325c-9 -51 -5 -75 19 -75c22 0 43 19 55 86z" />
    <glyph glyph-name="Dcroat" unicode="&#x110;" horiz-adv-x="306" 
d="M84 0h-95l62 355h-33l11 62h33l62 349h95c97 0 131 -25 107 -160l-78 -446c-24 -135 -67 -160 -164 -160zM181 133l88 500c10 56 -4 76 -42 76h-51l-52 -292h60l-11 -62h-60l-52 -298h51c38 0 59 20 69 76z" />
    <glyph glyph-name="dcroat" unicode="&#x111;" horiz-adv-x="255" 
d="M171 0h-47l-1 46c-14 -22 -37 -54 -80 -54c-52 0 -57 46 -39 150l49 283c19 109 45 150 92 150c41 0 51 -32 57 -54l24 132h-94l9 52h94l11 61h60l-11 -61h35l-9 -52h-35zM134 132l53 303c12 67 -3 86 -25 86c-24 0 -36 -24 -45 -75l-57 -325c-9 -51 -5 -75 19 -75
c22 0 43 19 55 86z" />
    <glyph glyph-name="uni1E0A" unicode="&#x1e0a;" horiz-adv-x="306" 
d="M84 0h-95l135 766h95c97 0 131 -25 107 -160l-78 -446c-24 -135 -67 -160 -164 -160zM182 138l86 490c10 56 -4 76 -42 76h-51l-114 -642h51c38 0 60 20 70 76zM241 831c-25 0 -38 20 -34 43c4 24 26 43 50 43s40 -19 36 -43c-4 -23 -27 -43 -52 -43z" />
    <glyph glyph-name="uni1E0B" unicode="&#x1e0b;" horiz-adv-x="256" 
d="M171 0h-47l-1 46c-14 -22 -37 -54 -80 -54c-52 0 -57 46 -39 150l49 283c19 109 45 150 92 150c41 0 51 -32 57 -54l44 245h60zM134 132l53 303c12 67 -3 86 -25 86c-24 0 -36 -24 -45 -75l-57 -325c-9 -51 -5 -75 19 -75c22 0 43 19 55 86zM138 680c-25 0 -38 20 -34 43
c4 24 26 43 50 43s40 -19 36 -43c-4 -23 -27 -43 -52 -43z" />
    <glyph glyph-name="Eth" unicode="&#xd0;" horiz-adv-x="306" 
d="M84 0h-95l62 355h-33l11 62h33l62 349h95c97 0 131 -25 107 -160l-78 -446c-24 -135 -67 -160 -164 -160zM181 133l88 500c10 56 -4 76 -42 76h-51l-52 -292h60l-11 -62h-60l-52 -298h51c38 0 59 20 69 76z" />
    <glyph glyph-name="eth" unicode="&#xf0;" horiz-adv-x="255" 
d="M0 110l61 345c16 91 52 121 85 121s57 -28 61 -53c10 73 11 110 -4 137l-48 -40l-21 25l48 40c-13 11 -35 23 -51 28l30 44c13 -4 45 -21 49 -24l16 -12l42 36l21 -25l-41 -34c28 -40 30 -101 8 -227l-64 -361c-17 -95 -63 -118 -117 -118s-92 23 -75 118zM131 103
l60 341c10 58 -5 77 -26 77c-24 0 -37 -26 -44 -67l-62 -351c-7 -39 3 -56 26 -56s39 17 46 56z" />
    <glyph glyph-name="Egrave" unicode="&#xc8;" horiz-adv-x="267" 
d="M193 0h-204l135 766h204l-11 -62h-142l-51 -287h135l-11 -62h-135l-52 -293h142zM248 942l26 -101h-53l-44 101h71z" />
    <glyph glyph-name="egrave" unicode="&#xe8;" horiz-adv-x="250" 
d="M130 103l14 84h60l-13 -77c-16 -93 -62 -118 -117 -118c-58 0 -91 27 -75 118l61 347c17 96 63 118 117 118s92 -22 75 -118l-34 -196h-132l-28 -158c-7 -39 3 -56 26 -56s39 17 46 56zM167 315l26 149c7 39 -3 56 -26 56s-39 -17 -46 -56l-26 -149h72zM198 743l26 -101
h-53l-44 101h71z" />
    <glyph glyph-name="Eacute" unicode="&#xc9;" horiz-adv-x="267" 
d="M193 0h-204l135 766h204l-11 -62h-142l-51 -287h135l-11 -62h-135l-52 -293h142zM253 841h-53l62 101h71z" />
    <glyph glyph-name="eacute" unicode="&#xe9;" horiz-adv-x="250" 
d="M130 103l14 84h60l-13 -77c-16 -93 -62 -118 -117 -118c-58 0 -91 27 -75 118l61 347c17 96 63 118 117 118s92 -22 75 -118l-34 -196h-132l-28 -158c-7 -39 3 -56 26 -56s39 17 46 56zM167 315l26 149c7 39 -3 56 -26 56s-39 -17 -46 -56l-26 -149h72zM204 642h-53
l62 101h71z" />
    <glyph glyph-name="Ecircumflex" unicode="&#xca;" horiz-adv-x="267" 
d="M193 0h-204l135 766h204l-11 -62h-142l-51 -287h135l-11 -62h-135l-52 -293h142zM330 841h-53l-28 62l-47 -62h-56l75 101h70z" />
    <glyph glyph-name="ecircumflex" unicode="&#xea;" horiz-adv-x="250" 
d="M130 103l14 84h60l-13 -77c-16 -93 -62 -118 -117 -118c-58 0 -91 27 -75 118l61 347c17 96 63 118 117 118s92 -22 75 -118l-34 -196h-132l-28 -158c-7 -39 3 -56 26 -56s39 17 46 56zM167 315l26 149c7 39 -3 56 -26 56s-39 -17 -46 -56l-26 -149h72zM280 642h-53
l-28 62l-47 -62h-56l75 101h70z" />
    <glyph glyph-name="Edieresis" unicode="&#xcb;" horiz-adv-x="267" 
d="M193 0h-204l135 766h204l-11 -62h-142l-51 -287h135l-11 -62h-135l-52 -293h142zM168 831c-25 0 -38 20 -34 43c4 24 26 43 50 43s40 -19 36 -43c-4 -23 -27 -43 -52 -43zM299 831c-25 0 -38 20 -34 43c4 24 26 43 50 43s40 -19 36 -43c-4 -23 -27 -43 -52 -43z" />
    <glyph glyph-name="edieresis" unicode="&#xeb;" horiz-adv-x="249" 
d="M129 103l14 84h60l-13 -77c-16 -93 -62 -118 -117 -118c-58 0 -91 27 -75 118l61 347c17 96 63 118 117 118s92 -22 75 -118l-34 -196h-132l-28 -158c-7 -39 3 -56 26 -56s39 17 46 56zM166 315l26 149c7 39 -3 56 -26 56s-39 -17 -46 -56l-26 -149h72zM119 632
c-25 0 -38 20 -34 43c4 24 26 43 50 43s40 -19 36 -43c-4 -23 -27 -43 -52 -43zM250 632c-25 0 -38 20 -34 43c4 24 26 43 50 43s40 -19 36 -43c-4 -23 -27 -43 -52 -43z" />
    <glyph glyph-name="Emacron" unicode="&#x112;" horiz-adv-x="267" 
d="M193 0h-204l135 766h204l-11 -62h-142l-51 -287h135l-11 -62h-135l-52 -293h142zM338 841h-202l9 50h202z" />
    <glyph glyph-name="emacron" unicode="&#x113;" horiz-adv-x="249" 
d="M129 103l14 84h60l-13 -77c-16 -93 -62 -118 -117 -118c-58 0 -91 27 -75 118l61 347c17 96 63 118 117 118s92 -22 75 -118l-34 -196h-132l-28 -158c-7 -39 3 -56 26 -56s39 17 46 56zM166 315l26 149c7 39 -3 56 -26 56s-39 -17 -46 -56l-26 -149h72zM288 642h-202
l9 50h202z" />
    <glyph glyph-name="Ebreve" unicode="&#x114;" horiz-adv-x="267" 
d="M193 0h-204l135 766h204l-11 -62h-142l-51 -287h135l-11 -62h-135l-52 -293h142zM304 924h39c-10 -58 -59 -88 -107 -88s-88 30 -78 88h40c-5 -31 13 -47 45 -47c31 0 56 16 61 47z" />
    <glyph glyph-name="ebreve" unicode="&#x115;" horiz-adv-x="250" 
d="M130 103l14 84h60l-13 -77c-16 -93 -62 -118 -117 -118c-58 0 -91 27 -75 118l61 347c17 96 63 118 117 118s92 -22 75 -118l-34 -196h-132l-28 -158c-7 -39 3 -56 26 -56s39 17 46 56zM167 315l26 149c7 39 -3 56 -26 56s-39 -17 -46 -56l-26 -149h72zM256 725h39
c-10 -58 -59 -88 -107 -88s-88 30 -78 88h40c-5 -31 13 -47 45 -47c31 0 56 16 61 47z" />
    <glyph glyph-name="Edotaccent" unicode="&#x116;" horiz-adv-x="267" 
d="M193 0h-204l135 766h204l-11 -62h-142l-51 -287h135l-11 -62h-135l-52 -293h142zM233 831c-25 0 -38 20 -34 43c4 24 26 43 50 43s40 -19 36 -43c-4 -23 -27 -43 -52 -43z" />
    <glyph glyph-name="edotaccent" unicode="&#x117;" horiz-adv-x="250" 
d="M130 103l14 84h60l-13 -77c-16 -93 -62 -118 -117 -118c-58 0 -91 27 -75 118l61 347c17 96 63 118 117 118s92 -22 75 -118l-34 -196h-132l-28 -158c-7 -39 3 -56 26 -56s39 17 46 56zM167 315l26 149c7 39 -3 56 -26 56s-39 -17 -46 -56l-26 -149h72zM185 632
c-25 0 -38 20 -34 43c4 24 26 43 50 43s40 -19 36 -43c-4 -23 -27 -43 -52 -43z" />
    <glyph glyph-name="Eogonek" unicode="&#x118;" horiz-adv-x="267" 
d="M146 -141l-27 -31c-63 8 -81 47 -74 87c5 30 26 63 78 85h-134l135 766h204l-11 -62h-142l-51 -287h135l-11 -62h-135l-52 -293h142l-10 -62h-28c-33 -20 -65 -48 -71 -82c-6 -36 21 -51 52 -59z" />
    <glyph glyph-name="eogonek" unicode="&#x119;" horiz-adv-x="250" 
d="M105 -140l-27 -31c-60 8 -81 44 -74 87c4 25 18 53 59 76c-47 4 -79 30 -63 118l61 347c17 96 63 118 117 118s92 -22 75 -118l-34 -196h-132l-28 -158c-7 -39 3 -56 26 -56s39 17 46 56l14 84h60l-13 -77c-11 -64 -38 -97 -70 -110c-33 -20 -63 -47 -69 -81
c-6 -37 22 -51 52 -59zM168 315l26 149c7 39 -3 56 -26 56s-39 -17 -46 -56l-26 -149h72z" />
    <glyph glyph-name="Ecaron" unicode="&#x11a;" horiz-adv-x="267" 
d="M193 0h-204l135 766h204l-11 -62h-142l-51 -287h135l-11 -62h-135l-52 -293h142zM274 841h-70l-39 101h56l25 -62l50 62h53z" />
    <glyph glyph-name="ecaron" unicode="&#x11b;" horiz-adv-x="250" 
d="M130 103l14 84h60l-13 -77c-16 -93 -62 -118 -117 -118c-58 0 -91 27 -75 118l61 347c17 96 63 118 117 118s92 -22 75 -118l-34 -196h-132l-28 -158c-7 -39 3 -56 26 -56s39 17 46 56zM167 315l26 149c7 39 -3 56 -26 56s-39 -17 -46 -56l-26 -149h72zM223 642h-70
l-39 101h56l25 -62l50 62h53z" />
    <glyph glyph-name="uni1E1E" unicode="&#x1e1e;" horiz-adv-x="263" 
d="M51 0h-62l135 766h204l-11 -62h-142l-51 -287h135l-11 -62h-135zM238 831c-25 0 -38 20 -34 43c4 24 26 43 50 43s40 -19 36 -43c-4 -23 -27 -43 -52 -43z" />
    <glyph glyph-name="uni1E1F" unicode="&#x1e1f;" horiz-adv-x="182" 
d="M157 512l-90 -512h-60l90 512h-55l9 55h55l10 55c21 117 51 150 112 150c15 0 27 -2 40 -5l-9 -50c-9 1 -18 1 -23 1c-37 0 -46 -18 -55 -68l-15 -83h65l-9 -55h-65zM211 829c-25 0 -38 20 -34 43c4 24 26 43 50 43s40 -19 36 -43c-4 -23 -27 -43 -52 -43z" />
    <glyph glyph-name="Gcircumflex" unicode="&#x11c;" horiz-adv-x="314" 
d="M192 120l34 196h-67l11 60h129l-41 -229c-23 -131 -79 -160 -150 -160c-72 0 -119 30 -96 160l84 472c23 130 78 160 149 160c79 0 119 -37 97 -160l-22 -120h-62l26 147c10 56 -13 76 -47 76c-38 0 -66 -26 -75 -76l-92 -526c-10 -56 13 -76 47 -76c37 0 66 25 75 76z
M350 841h-53l-28 62l-47 -62h-56l75 101h70z" />
    <glyph glyph-name="gcircumflex" unicode="&#x11d;" horiz-adv-x="252" 
d="M283 642h-53l-28 62l-47 -62h-56l75 101h70zM177 18l-14 -78c-20 -114 -62 -142 -124 -142c-73 0 -97 38 -77 150l13 70c9 49 20 67 48 97c-6 16 -9 30 -6 46c4 24 18 46 44 72c-22 23 -30 46 -19 108l16 94c19 111 56 140 114 140c19 0 34 -3 48 -13h81l-7 -37h-48
c10 -23 11 -52 4 -90l-16 -94c-17 -97 -58 -128 -116 -128c-11 0 -18 0 -27 2c-12 -8 -19 -21 -21 -33c-3 -16 2 -35 36 -35c49 0 91 -15 71 -129zM174 342l18 102c10 56 5 76 -23 76s-39 -20 -49 -76l-18 -102c-10 -56 -6 -76 22 -76s40 20 50 76zM101 -71l15 88
c10 60 5 76 -25 76c-38 0 -47 -27 -57 -81l-15 -83c-10 -56 0 -76 28 -76s44 20 54 76z" />
    <glyph glyph-name="Gbreve" unicode="&#x11e;" horiz-adv-x="314" 
d="M192 120l34 196h-67l11 60h129l-41 -229c-23 -131 -79 -160 -150 -160c-72 0 -119 30 -96 160l84 472c23 130 78 160 149 160c79 0 119 -37 97 -160l-22 -120h-62l26 147c10 56 -13 76 -47 76c-38 0 -66 -26 -75 -76l-92 -526c-10 -56 13 -76 47 -76c37 0 66 25 75 76z
M328 924h39c-10 -58 -59 -88 -107 -88s-88 30 -78 88h40c-5 -31 13 -47 45 -47c31 0 56 16 61 47z" />
    <glyph glyph-name="gbreve" unicode="&#x11f;" horiz-adv-x="252" 
d="M260 725h39c-10 -58 -59 -88 -107 -88s-88 30 -78 88h40c-5 -31 13 -47 45 -47c31 0 56 16 61 47zM177 18l-14 -78c-20 -114 -62 -142 -124 -142c-73 0 -97 38 -77 150l13 70c9 49 20 67 48 97c-6 16 -9 30 -6 46c4 24 18 46 44 72c-22 23 -30 46 -19 108l16 94
c19 111 56 140 114 140c19 0 34 -3 48 -13h81l-7 -37h-48c10 -23 11 -52 4 -90l-16 -94c-17 -97 -58 -128 -116 -128c-11 0 -18 0 -27 2c-12 -8 -19 -21 -21 -33c-3 -16 2 -35 36 -35c49 0 91 -15 71 -129zM174 342l18 102c10 56 5 76 -23 76s-39 -20 -49 -76l-18 -102
c-10 -56 -6 -76 22 -76s40 20 50 76zM101 -71l15 88c10 60 5 76 -25 76c-38 0 -47 -27 -57 -81l-15 -83c-10 -56 0 -76 28 -76s44 20 54 76z" />
    <glyph glyph-name="Gdotaccent" unicode="&#x120;" horiz-adv-x="314" 
d="M192 120l34 196h-67l11 60h129l-41 -229c-23 -131 -79 -160 -150 -160c-72 0 -119 30 -96 160l84 472c23 130 78 160 149 160c79 0 119 -37 97 -160l-22 -120h-62l26 147c10 56 -13 76 -47 76c-38 0 -66 -26 -75 -76l-92 -526c-10 -56 13 -76 47 -76c37 0 66 25 75 76z
M255 831c-25 0 -38 20 -34 43c4 24 26 43 50 43s40 -19 36 -43c-4 -23 -27 -43 -52 -43z" />
    <glyph glyph-name="gdotaccent" unicode="&#x121;" horiz-adv-x="252" 
d="M196 632c-25 0 -38 20 -34 43c4 24 26 43 50 43s40 -19 36 -43c-4 -23 -27 -43 -52 -43zM177 18l-14 -78c-20 -114 -62 -142 -124 -142c-73 0 -97 38 -77 150l13 70c9 49 20 67 48 97c-6 16 -9 30 -6 46c4 24 18 46 44 72c-22 23 -30 46 -19 108l16 94
c19 111 56 140 114 140c19 0 34 -3 48 -13h81l-7 -37h-48c10 -23 11 -52 4 -90l-16 -94c-17 -97 -58 -128 -116 -128c-11 0 -18 0 -27 2c-12 -8 -19 -21 -21 -33c-3 -16 2 -35 36 -35c49 0 91 -15 71 -129zM174 342l18 102c10 56 5 76 -23 76s-39 -20 -49 -76l-18 -102
c-10 -56 -6 -76 22 -76s40 20 50 76zM101 -71l15 88c10 60 5 76 -25 76c-38 0 -47 -27 -57 -81l-15 -83c-10 -56 0 -76 28 -76s44 20 54 76z" />
    <glyph glyph-name="Gcommaaccent" unicode="&#x122;" horiz-adv-x="314" 
d="M192 120l34 196h-67l11 60h129l-41 -229c-23 -131 -79 -160 -150 -160c-72 0 -119 30 -96 160l84 472c23 130 78 160 149 160c79 0 119 -37 97 -160l-22 -120h-62l26 147c10 56 -13 76 -47 76c-38 0 -66 -26 -75 -76l-92 -526c-10 -56 13 -76 47 -76c37 0 66 25 75 76z
M72 -156h-46l55 106h66z" />
    <glyph glyph-name="gcommaaccent" unicode="&#x123;" horiz-adv-x="252" 
d="M233 748h46l-55 -106h-66zM177 18l-14 -78c-20 -114 -62 -142 -124 -142c-73 0 -97 38 -77 150l13 70c9 49 20 67 48 97c-6 16 -9 30 -6 46c4 24 18 46 44 72c-22 23 -30 46 -19 108l16 94c19 111 56 140 114 140c19 0 34 -3 48 -13h81l-7 -37h-48c10 -23 11 -52 4 -90
l-16 -94c-17 -97 -58 -128 -116 -128c-11 0 -18 0 -27 2c-12 -8 -19 -21 -21 -33c-3 -16 2 -35 36 -35c49 0 91 -15 71 -129zM174 342l18 102c10 56 5 76 -23 76s-39 -20 -49 -76l-18 -102c-10 -56 -6 -76 22 -76s40 20 50 76zM101 -71l15 88c10 60 5 76 -25 76
c-38 0 -47 -27 -57 -81l-15 -83c-10 -56 0 -76 28 -76s44 20 54 76z" />
    <glyph glyph-name="Hcircumflex" unicode="&#x124;" horiz-adv-x="314" 
d="M225 0h-62l63 360h-112l-63 -360h-62l135 766h62l-61 -344h112l61 344h62zM347 841h-53l-28 62l-47 -62h-56l75 101h70z" />
    <glyph glyph-name="hcircumflex" unicode="&#x125;" horiz-adv-x="257" 
d="M175 0h-60l78 446c9 51 5 75 -19 75c-22 0 -43 -19 -55 -86l-76 -435h-60l135 766h60l-44 -245c14 22 36 54 77 54c49 0 57 -44 38 -150zM252 825h-53l-28 62l-47 -62h-56l75 101h70z" />
    <glyph glyph-name="Hbar" unicode="&#x126;" horiz-adv-x="314" 
d="M225 0h-62l63 360h-112l-63 -360h-62l103 589h-33l10 53h33l22 124h62l-22 -124h112l22 124h62l-22 -124h33l-10 -53h-33zM237 422l29 167h-112l-29 -167h112z" />
    <glyph glyph-name="hbar" unicode="&#x127;" horiz-adv-x="257" 
d="M175 0h-60l78 446c9 51 5 75 -19 75c-22 0 -43 -19 -55 -86l-76 -435h-60l115 653h-34l9 52h34l11 61h60l-11 -61h95l-9 -52h-95l-24 -132c14 22 36 54 77 54c49 0 57 -44 38 -150z" />
    <glyph glyph-name="uni1E22" unicode="&#x1e22;" horiz-adv-x="314" 
d="M225 0h-62l63 360h-112l-63 -360h-62l135 766h62l-61 -344h112l61 344h62zM252 831c-25 0 -38 20 -34 43c4 24 26 43 50 43s40 -19 36 -43c-4 -23 -27 -43 -52 -43z" />
    <glyph glyph-name="uni1E23" unicode="&#x1e23;" horiz-adv-x="257" 
d="M175 0h-60l78 446c9 51 5 75 -19 75c-22 0 -43 -19 -55 -86l-76 -435h-60l135 766h60l-44 -245c14 22 36 54 77 54c49 0 57 -44 38 -150zM248 680c-25 0 -38 20 -34 43c4 24 26 43 50 43s40 -19 36 -43c-4 -23 -27 -43 -52 -43z" />
    <glyph glyph-name="Igrave" unicode="&#xcc;" horiz-adv-x="140" 
d="M51 0h-62l135 766h62zM179 942l26 -101h-53l-44 101h71z" />
    <glyph glyph-name="igrave" unicode="&#xec;" horiz-adv-x="126" 
d="M43 0h-60l99 567h60zM137 743l26 -101h-53l-44 101h71z" />
    <glyph glyph-name="Iacute" unicode="&#xcd;" horiz-adv-x="140" 
d="M51 0h-62l135 766h62zM189 841h-53l62 101h71z" />
    <glyph glyph-name="iacute" unicode="&#xed;" horiz-adv-x="126" 
d="M43 0h-60l99 567h60zM147 642h-53l62 101h71z" />
    <glyph glyph-name="Icircumflex" unicode="&#xce;" horiz-adv-x="140" 
d="M51 0h-62l135 766h62zM261 841h-53l-28 62l-47 -62h-56l75 101h70z" />
    <glyph glyph-name="icircumflex" unicode="&#xee;" horiz-adv-x="126" 
d="M43 0h-60l99 567h60zM218 642h-53l-28 62l-47 -62h-56l75 101h70z" />
    <glyph glyph-name="Idieresis" unicode="&#xcf;" horiz-adv-x="140" 
d="M51 0h-62l135 766h62zM101 831c-25 0 -38 20 -34 43c4 24 26 43 50 43s40 -19 36 -43c-4 -23 -27 -43 -52 -43zM232 831c-25 0 -38 20 -34 43c4 24 26 43 50 43s40 -19 36 -43c-4 -23 -27 -43 -52 -43z" />
    <glyph glyph-name="idieresis" unicode="&#xef;" horiz-adv-x="126" 
d="M43 0h-60l99 567h60zM58 632c-25 0 -38 20 -34 43c4 24 26 43 50 43s40 -19 36 -43c-4 -23 -27 -43 -52 -43zM189 632c-25 0 -38 20 -34 43c4 24 26 43 50 43s40 -19 36 -43c-4 -23 -27 -43 -52 -43z" />
    <glyph glyph-name="Itilde" unicode="&#x128;" horiz-adv-x="140" 
d="M51 0h-62l135 766h62zM220 903h58c-13 -39 -43 -63 -74 -63c-26 0 -38 17 -57 17c-12 0 -17 -7 -20 -16h-56c3 11 23 63 71 63c26 0 45 -15 60 -15c14 0 18 14 18 14z" />
    <glyph glyph-name="itilde" unicode="&#x129;" horiz-adv-x="126" 
d="M43 0h-60l99 567h60zM177 704h58c-13 -39 -43 -63 -74 -63c-26 0 -38 17 -57 17c-12 0 -17 -7 -20 -16h-56c3 11 23 63 71 63c26 0 45 -15 60 -15c14 0 18 14 18 14z" />
    <glyph glyph-name="Imacron" unicode="&#x12a;" horiz-adv-x="140" 
d="M51 0h-62l135 766h62zM270 841h-202l9 50h202z" />
    <glyph glyph-name="imacron" unicode="&#x12b;" horiz-adv-x="126" 
d="M43 0h-60l99 567h60zM227 642h-202l9 50h202z" />
    <glyph glyph-name="Ibreve" unicode="&#x12c;" horiz-adv-x="140" 
d="M51 0h-62l135 766h62zM237 924h39c-10 -58 -59 -88 -107 -88s-88 30 -78 88h40c-5 -31 13 -47 45 -47c31 0 56 16 61 47z" />
    <glyph glyph-name="ibreve" unicode="&#x12d;" horiz-adv-x="126" 
d="M43 0h-60l99 567h60zM194 725h39c-10 -58 -59 -88 -107 -88s-88 30 -78 88h40c-5 -31 13 -47 45 -47c31 0 56 16 61 47z" />
    <glyph glyph-name="Iogonek" unicode="&#x12e;" horiz-adv-x="140" 
d="M26 -141l-27 -31c-60 8 -80 44 -73 87c5 30 23 57 60 78l137 773h62l-135 -766c-39 -21 -70 -48 -76 -82c-6 -37 22 -51 52 -59z" />
    <glyph glyph-name="iogonek" unicode="&#x12f;" horiz-adv-x="126" 
d="M19 -141l-27 -31c-62 8 -80 47 -73 87c5 30 24 57 61 78l101 574h60l-99 -567c-40 -22 -69 -49 -75 -82c-6 -37 22 -51 52 -59zM124 640c-25 0 -41 20 -37 45c5 26 29 45 53 45c25 0 42 -20 37 -45c-4 -24 -27 -45 -53 -45z" />
    <glyph glyph-name="Idotaccent" unicode="&#x130;" horiz-adv-x="140" 
d="M51 0h-62l135 766h62zM165 831c-25 0 -38 20 -34 43c4 24 26 43 50 43s40 -19 36 -43c-4 -23 -27 -43 -52 -43z" />
    <glyph glyph-name="dotlessi" unicode="&#x131;" horiz-adv-x="126" 
d="M43 0h-60l99 567h60z" />
    <glyph glyph-name="IJ" unicode="&#x132;" horiz-adv-x="280" 
d="M51 0h-62l135 766h62zM40 -192h-4l10 57h4c28 0 58 20 68 76l146 825h62l-143 -810c-24 -135 -98 -148 -143 -148z" />
    <glyph glyph-name="ij" unicode="&#x133;" horiz-adv-x="252" 
d="M43 0h-60l99 567h60zM125 640c-25 0 -41 20 -37 45c5 26 29 45 53 45c25 0 42 -20 37 -45c-4 -24 -27 -45 -53 -45zM8 -201l9 50c8 -1 12 -1 17 -1c47 0 53 28 61 77l113 642h60l-111 -633c-16 -89 -38 -140 -110 -140c-14 0 -26 2 -39 5zM251 640c-25 0 -41 20 -37 45
c5 26 29 45 53 45c25 0 42 -20 37 -45c-4 -24 -27 -45 -53 -45z" />
    <glyph glyph-name="Jcircumflex" unicode="&#x134;" horiz-adv-x="140" 
d="M-100 -192h-4l10 57h4c28 0 58 20 68 76l146 825h62l-143 -810c-24 -135 -98 -148 -143 -148zM261 841h-53l-28 62l-47 -62h-56l75 101h70z" />
    <glyph glyph-name="jcircumflex" unicode="&#x135;" horiz-adv-x="126" 
d="M-118 -201l9 50c8 -1 12 -1 17 -1c47 0 53 28 61 77l113 642h60l-111 -633c-16 -89 -38 -140 -110 -140c-14 0 -26 2 -39 5zM218 642h-53l-28 62l-47 -62h-56l75 101h70z" />
    <glyph glyph-name="dotlessj" unicode="&#x237;" horiz-adv-x="126" 
d="M-118 -201l9 50c8 -1 12 -1 17 -1c47 0 53 28 61 77l113 642h60l-111 -633c-16 -89 -38 -140 -110 -140c-14 0 -26 2 -39 5z" />
    <glyph glyph-name="Kcommaaccent" unicode="&#x136;" horiz-adv-x="297" 
d="M255 0h-62l-74 383l190 383h62l-183 -380zM51 0h-62l135 766h62zM76 -156h-46l55 106h66z" />
    <glyph glyph-name="kcommaaccent" unicode="&#x137;" horiz-adv-x="259" 
d="M207 0h-61l-51 290l150 277h62l-146 -274zM43 0h-60l135 766h60zM48 -156h-46l55 106h66z" />
    <glyph glyph-name="kgreenlandic" unicode="&#x138;" horiz-adv-x="260" 
d="M208 0h-61l-51 290l150 277h62l-146 -274zM44 0h-60l99 567h60z" />
    <glyph glyph-name="Lslash" unicode="&#x141;" horiz-adv-x="226" 
d="M168 0h-164l51 290l-41 -20l-18 49l70 35l73 412h62l-67 -378l62 32l18 -49l-91 -47l-47 -262h102z" />
    <glyph glyph-name="lslash" unicode="&#x142;" horiz-adv-x="193" 
d="M73 0h-60l51 290l-41 -20l-18 49l70 35l73 413h60l-67 -380l49 25l19 -49l-80 -40z" />
    <glyph glyph-name="Lacute" unicode="&#x139;" horiz-adv-x="211" 
d="M153 0h-164l135 766h62l-125 -704h102zM194 841h-53l62 101h71z" />
    <glyph glyph-name="lacute" unicode="&#x13a;" horiz-adv-x="128" 
d="M44 0h-60l135 766h60zM186 831h-53l62 101h71z" />
    <glyph glyph-name="Lcommaaccent" unicode="&#x13b;" horiz-adv-x="211" 
d="M153 0h-164l135 766h62l-125 -704h102zM30 -156h-46l55 106h66z" />
    <glyph glyph-name="lcommaaccent" unicode="&#x13c;" horiz-adv-x="128" 
d="M45 0h-60l135 766h60zM-31 -156h-46l55 106h66z" />
    <glyph glyph-name="Lcaron" unicode="&#x13d;" horiz-adv-x="251" 
d="M225 538h-34l76 228h73zM153 0h-164l135 766h62l-125 -704h102z" />
    <glyph glyph-name="lcaron" unicode="&#x13e;" horiz-adv-x="156" 
d="M196 538h-34l76 228h73zM44 0h-60l135 766h60z" />
    <glyph glyph-name="Ldot" unicode="&#x13f;" 
d="M153 0h-164l135 766h62l-125 -704h102zM263 363c-4 -23 -26 -42 -49 -42s-39 19 -35 42s27 42 50 42s38 -19 34 -42z" />
    <glyph glyph-name="ldot" unicode="&#x140;" horiz-adv-x="205" 
d="M44 0h-60l135 766h60zM214 323c-4 -23 -26 -42 -49 -42s-39 19 -35 42s27 42 50 42s38 -19 34 -42z" />
    <glyph glyph-name="uni1E40" unicode="&#x1e40;" horiz-adv-x="438" 
d="M349 0h-62l114 625l-218 -625h-40l14 629l-106 -629h-62l135 766h95l-12 -550l182 550h95zM314 831c-25 0 -38 20 -34 43c4 24 26 43 50 43s40 -19 36 -43c-4 -23 -27 -43 -52 -43z" />
    <glyph glyph-name="uni1E41" unicode="&#x1e41;" horiz-adv-x="390" 
d="M308 0h-60l78 446c9 51 5 75 -19 75c-22 0 -43 -18 -54 -81l-77 -440h-60l78 446c9 51 5 75 -19 75c-22 0 -43 -19 -55 -86l-76 -435h-60l99 567h47l1 -46c14 22 37 54 80 54c33 0 48 -19 49 -62c17 30 40 62 83 62c50 0 58 -43 39 -150zM254 632c-25 0 -38 20 -34 43
c4 24 26 43 50 43s40 -19 36 -43c-4 -23 -27 -43 -52 -43z" />
    <glyph glyph-name="Ntilde" unicode="&#xd1;" horiz-adv-x="336" 
d="M247 0h-64l-40 536l-92 -536h-62l135 766h59l43 -544l94 544h62zM317 903h58c-13 -39 -43 -63 -74 -63c-26 0 -38 17 -57 17c-12 0 -17 -7 -20 -16h-56c3 11 23 63 71 63c26 0 45 -15 60 -15c14 0 18 14 18 14z" />
    <glyph glyph-name="ntilde" unicode="&#xf1;" 
d="M176 0h-60l78 446c9 51 5 75 -19 75c-22 0 -43 -19 -55 -86l-76 -435h-60l99 567h47l1 -46c14 22 37 54 80 54c50 0 58 -43 39 -150zM243 704h58c-13 -39 -43 -63 -74 -63c-26 0 -38 17 -57 17c-12 0 -17 -7 -20 -16h-56c3 11 23 63 71 63c26 0 45 -15 60 -15
c14 0 18 14 18 14z" />
    <glyph glyph-name="Nacute" unicode="&#x143;" horiz-adv-x="336" 
d="M247 0h-64l-40 536l-92 -536h-62l135 766h59l43 -544l94 544h62zM283 841h-53l62 101h71z" />
    <glyph glyph-name="nacute" unicode="&#x144;" 
d="M176 0h-60l78 446c9 51 5 75 -19 75c-22 0 -43 -19 -55 -86l-76 -435h-60l99 567h47l1 -46c14 22 37 54 80 54c50 0 58 -43 39 -150zM206 642h-53l62 101h71z" />
    <glyph glyph-name="Ncommaaccent" unicode="&#x145;" horiz-adv-x="336" 
d="M247 0h-64l-40 536l-92 -536h-62l135 766h59l43 -544l94 544h62zM85 -156h-46l55 106h66z" />
    <glyph glyph-name="ncommaaccent" unicode="&#x146;" 
d="M176 0h-60l78 446c9 51 5 75 -19 75c-22 0 -43 -19 -55 -86l-76 -435h-60l99 567h47l1 -46c14 22 37 54 80 54c50 0 58 -43 39 -150zM45 -156h-46l55 106h66z" />
    <glyph glyph-name="Ncaron" unicode="&#x147;" horiz-adv-x="336" 
d="M247 0h-64l-40 536l-92 -536h-62l135 766h59l43 -544l94 544h62zM301 841h-70l-39 101h56l25 -62l50 62h53z" />
    <glyph glyph-name="ncaron" unicode="&#x148;" 
d="M176 0h-60l78 446c9 51 5 75 -19 75c-22 0 -43 -19 -55 -86l-76 -435h-60l99 567h47l1 -46c14 22 37 54 80 54c50 0 58 -43 39 -150zM226 642h-70l-39 101h56l25 -62l50 62h53z" />
    <glyph glyph-name="Eng" unicode="&#x14a;" horiz-adv-x="336" 
d="M95 -192h-4l10 57h4c28 0 59 20 69 76l11 59l-41 536l-93 -536h-62l135 766h59l42 -544l95 544h62l-143 -810c-24 -135 -99 -148 -144 -148z" />
    <glyph glyph-name="eng" unicode="&#x14b;" 
d="M14 -201l9 50c8 -1 12 -1 17 -1c48 0 54 28 62 77l92 521c9 51 5 75 -19 75c-22 0 -43 -19 -55 -86l-76 -435h-60l99 567h47l1 -46c14 22 37 54 80 54c50 0 58 -43 39 -150l-86 -491c-16 -89 -38 -140 -111 -140c-14 0 -26 2 -39 5z" />
    <glyph glyph-name="Ograve" unicode="&#xd2;" horiz-adv-x="308" 
d="M11 147l84 472c23 131 79 160 145 160c71 0 113 -34 91 -160l-84 -472c-23 -131 -79 -160 -145 -160c-71 0 -113 34 -91 160zM181 120l92 526c10 56 -13 76 -42 76s-60 -21 -70 -76l-92 -526c-10 -56 13 -76 42 -76s60 21 70 76zM261 942l26 -101h-53l-44 101h71z" />
    <glyph glyph-name="ograve" unicode="&#xf2;" horiz-adv-x="254" 
d="M0 110l61 347c17 96 63 118 117 118s92 -22 75 -118l-61 -347c-17 -95 -63 -118 -117 -118s-92 23 -75 118zM131 103l63 361c7 39 -3 56 -26 56s-39 -17 -46 -56l-63 -361c-7 -39 3 -56 26 -56s39 17 46 56zM201 743l26 -101h-53l-44 101h71z" />
    <glyph glyph-name="Oacute" unicode="&#xd3;" horiz-adv-x="308" 
d="M11 147l84 472c23 131 79 160 145 160c71 0 113 -34 91 -160l-84 -472c-23 -131 -79 -160 -145 -160c-71 0 -113 34 -91 160zM181 120l92 526c10 56 -13 76 -42 76s-60 -21 -70 -76l-92 -526c-10 -56 13 -76 42 -76s60 21 70 76zM267 841h-53l62 101h71z" />
    <glyph glyph-name="oacute" unicode="&#xf3;" horiz-adv-x="254" 
d="M0 110l61 347c17 96 63 118 117 118s92 -22 75 -118l-61 -347c-17 -95 -63 -118 -117 -118s-92 23 -75 118zM131 103l63 361c7 39 -3 56 -26 56s-39 -17 -46 -56l-63 -361c-7 -39 3 -56 26 -56s39 17 46 56zM205 642h-53l62 101h71z" />
    <glyph glyph-name="Ocircumflex" unicode="&#xd4;" horiz-adv-x="308" 
d="M11 147l84 472c23 131 79 160 145 160c71 0 113 -34 91 -160l-84 -472c-23 -131 -79 -160 -145 -160c-71 0 -113 34 -91 160zM181 120l92 526c10 56 -13 76 -42 76s-60 -21 -70 -76l-92 -526c-10 -56 13 -76 42 -76s60 21 70 76zM344 841h-53l-28 62l-47 -62h-56l75 101
h70z" />
    <glyph glyph-name="ocircumflex" unicode="&#xf4;" horiz-adv-x="254" 
d="M0 110l61 347c17 96 63 118 117 118s92 -22 75 -118l-61 -347c-17 -95 -63 -118 -117 -118s-92 23 -75 118zM131 103l63 361c7 39 -3 56 -26 56s-39 -17 -46 -56l-63 -361c-7 -39 3 -56 26 -56s39 17 46 56zM282 642h-53l-28 62l-47 -62h-56l75 101h70z" />
    <glyph glyph-name="Otilde" unicode="&#xd5;" horiz-adv-x="308" 
d="M11 147l84 472c23 131 79 160 145 160c71 0 113 -34 91 -160l-84 -472c-23 -131 -79 -160 -145 -160c-71 0 -113 34 -91 160zM181 120l92 526c10 56 -13 76 -42 76s-60 -21 -70 -76l-92 -526c-10 -56 13 -76 42 -76s60 21 70 76zM303 903h58c-13 -39 -43 -63 -74 -63
c-26 0 -38 17 -57 17c-12 0 -17 -7 -20 -16h-56c3 11 23 63 71 63c26 0 45 -15 60 -15c14 0 18 14 18 14z" />
    <glyph glyph-name="otilde" unicode="&#xf5;" horiz-adv-x="253" 
d="M-1 110l61 347c17 96 63 118 117 118s92 -22 75 -118l-61 -347c-17 -95 -63 -118 -117 -118s-92 23 -75 118zM130 103l63 361c7 39 -3 56 -26 56s-39 -17 -46 -56l-63 -361c-7 -39 3 -56 26 -56s39 17 46 56zM240 704h58c-13 -39 -43 -63 -74 -63c-26 0 -38 17 -57 17
c-12 0 -17 -7 -20 -16h-56c3 11 23 63 71 63c26 0 45 -15 60 -15c14 0 18 14 18 14z" />
    <glyph glyph-name="Odieresis" unicode="&#xd6;" horiz-adv-x="308" 
d="M11 147l84 472c23 131 79 160 145 160c71 0 113 -34 91 -160l-84 -472c-23 -131 -79 -160 -145 -160c-71 0 -113 34 -91 160zM181 120l92 526c10 56 -13 76 -42 76s-60 -21 -70 -76l-92 -526c-10 -56 13 -76 42 -76s60 21 70 76zM183 831c-25 0 -38 20 -34 43
c4 24 26 43 50 43s40 -19 36 -43c-4 -23 -27 -43 -52 -43zM314 831c-25 0 -38 20 -34 43c4 24 26 43 50 43s40 -19 36 -43c-4 -23 -27 -43 -52 -43z" />
    <glyph glyph-name="odieresis" unicode="&#xf6;" horiz-adv-x="252" 
d="M-1 110l61 347c17 96 63 118 117 118s92 -22 75 -118l-61 -347c-17 -95 -63 -118 -117 -118s-92 23 -75 118zM130 103l63 361c7 39 -3 56 -26 56s-39 -17 -46 -56l-63 -361c-7 -39 3 -56 26 -56s39 17 46 56zM121 632c-25 0 -38 20 -34 43c4 24 26 43 50 43
s40 -19 36 -43c-4 -23 -27 -43 -52 -43zM252 632c-25 0 -38 20 -34 43c4 24 26 43 50 43s40 -19 36 -43c-4 -23 -27 -43 -52 -43z" />
    <glyph glyph-name="Omacron" unicode="&#x14c;" horiz-adv-x="308" 
d="M11 147l84 472c23 131 79 160 145 160c71 0 113 -34 91 -160l-84 -472c-23 -131 -79 -160 -145 -160c-71 0 -113 34 -91 160zM181 120l92 526c10 56 -13 76 -42 76s-60 -21 -70 -76l-92 -526c-10 -56 13 -76 42 -76s60 21 70 76zM353 841h-202l9 50h202z" />
    <glyph glyph-name="omacron" unicode="&#x14d;" horiz-adv-x="252" 
d="M-1 110l61 347c17 96 63 118 117 118s92 -22 75 -118l-61 -347c-17 -95 -63 -118 -117 -118s-92 23 -75 118zM130 103l63 361c7 39 -3 56 -26 56s-39 -17 -46 -56l-63 -361c-7 -39 3 -56 26 -56s39 17 46 56zM290 642h-202l9 50h202z" />
    <glyph glyph-name="Obreve" unicode="&#x14e;" horiz-adv-x="308" 
d="M11 147l84 472c23 131 79 160 145 160c71 0 113 -34 91 -160l-84 -472c-23 -131 -79 -160 -145 -160c-71 0 -113 34 -91 160zM181 120l92 526c10 56 -13 76 -42 76s-60 -21 -70 -76l-92 -526c-10 -56 13 -76 42 -76s60 21 70 76zM319 924h39c-10 -58 -59 -88 -107 -88
s-88 30 -78 88h40c-5 -31 13 -47 45 -47c31 0 56 16 61 47z" />
    <glyph glyph-name="obreve" unicode="&#x14f;" horiz-adv-x="254" 
d="M0 110l61 347c17 96 63 118 117 118s92 -22 75 -118l-61 -347c-17 -95 -63 -118 -117 -118s-92 23 -75 118zM131 103l63 361c7 39 -3 56 -26 56s-39 -17 -46 -56l-63 -361c-7 -39 3 -56 26 -56s39 17 46 56zM257 725h39c-10 -58 -59 -88 -107 -88s-88 30 -78 88h40
c-5 -31 13 -47 45 -47c31 0 56 16 61 47z" />
    <glyph glyph-name="Ohungarumlaut" unicode="&#x150;" horiz-adv-x="308" 
d="M11 147l84 472c23 131 79 160 145 160c71 0 113 -34 91 -160l-84 -472c-23 -131 -79 -160 -145 -160c-71 0 -113 34 -91 160zM181 120l92 526c10 56 -13 76 -42 76s-60 -21 -70 -76l-92 -526c-10 -56 13 -76 42 -76s60 21 70 76zM211 841h-53l62 101h71zM313 841h-53
l62 101h71z" />
    <glyph glyph-name="ohungarumlaut" unicode="&#x151;" horiz-adv-x="253" 
d="M0 110l61 347c17 96 63 118 117 118s92 -22 75 -118l-61 -347c-17 -95 -63 -118 -117 -118s-92 23 -75 118zM131 103l63 361c7 39 -3 56 -26 56s-39 -17 -46 -56l-63 -361c-7 -39 3 -56 26 -56s39 17 46 56zM151 642h-53l62 101h71zM253 642h-53l62 101h71z" />
    <glyph glyph-name="Oslash" unicode="&#xd8;" horiz-adv-x="308" 
d="M46 -53h-37l21 62c-23 22 -32 64 -19 138l84 472c24 135 74 160 145 160c17 0 31 -2 44 -6l15 45h37l-22 -64c21 -23 29 -66 17 -135l-84 -472c-22 -125 -74 -160 -145 -160c-17 0 -29 2 -41 5zM65 101l198 608c-9 9 -19 13 -32 13c-31 0 -59 -13 -70 -76zM181 120
l92 523l-192 -589c8 -7 18 -10 30 -10c29 0 60 21 70 76z" />
    <glyph glyph-name="oslash" unicode="&#xf8;" horiz-adv-x="254" 
d="M32 -53h-31l20 59c-22 15 -31 47 -21 104l61 347c19 106 63 118 116 118c11 0 21 -1 30 -3l15 44h31l-19 -57c20 -16 29 -47 19 -102l-61 -347c-17 -95 -63 -118 -116 -118c-11 0 -20 1 -28 3zM58 102l130 411c-5 4 -12 7 -21 7c-22 0 -36 -8 -45 -56zM131 103l60 344
l-124 -395c4 -4 11 -5 17 -5c24 0 40 17 47 56z" />
    <glyph glyph-name="Oslashacute" unicode="&#x1fe;" horiz-adv-x="308" 
d="M46 -53h-37l21 62c-23 22 -32 64 -19 138l84 472c24 135 74 160 145 160c17 0 31 -2 44 -6l15 45h37l-22 -64c21 -23 29 -66 17 -135l-84 -472c-22 -125 -74 -160 -145 -160c-17 0 -29 2 -41 5zM65 101l198 608c-9 9 -19 13 -32 13c-31 0 -59 -13 -70 -76zM181 120
l92 523l-192 -589c8 -7 18 -10 30 -10c29 0 60 21 70 76zM257 841h-53l62 101h71z" />
    <glyph glyph-name="oslashacute" unicode="&#x1ff;" horiz-adv-x="253" 
d="M32 -53h-31l20 59c-22 15 -31 47 -21 104l61 347c19 106 63 118 116 118c11 0 21 -1 30 -3l15 44h31l-19 -57c20 -16 29 -47 19 -102l-61 -347c-17 -95 -63 -118 -116 -118c-11 0 -20 1 -28 3zM58 102l130 411c-5 4 -12 7 -21 7c-22 0 -36 -8 -45 -56zM131 103l60 344
l-124 -395c4 -4 11 -5 17 -5c24 0 40 17 47 56zM200 642h-53l62 101h71z" />
    <glyph glyph-name="OE" unicode="&#x152;" horiz-adv-x="439" 
d="M365 0h-199c-20 -9 -41 -13 -65 -13c-64 0 -112 29 -89 160l84 472c23 131 79 160 145 160c24 0 43 -4 60 -13h199l-11 -62h-142l-51 -287h135l-11 -62h-135l-52 -293h142zM180 112l96 541c8 45 -13 69 -44 69s-60 -23 -70 -76l-92 -526c-10 -56 13 -76 42 -76
s60 21 68 68z" />
    <glyph glyph-name="oe" unicode="&#x153;" horiz-adv-x="382" 
d="M263 103l14 84h60l-13 -77c-16 -92 -61 -118 -117 -118c-26 0 -48 6 -60 31c-22 -25 -46 -31 -73 -31c-52 0 -91 22 -74 118l61 347c17 96 63 118 117 118c26 0 48 -5 60 -31c22 26 46 31 72 31c54 0 92 -22 75 -118l-34 -196h-132l-28 -158c-7 -39 3 -56 26 -56
s39 17 46 56zM131 103l63 361c7 39 -3 56 -26 56s-39 -17 -46 -56l-63 -361c-7 -39 3 -56 26 -56s39 17 46 56zM300 315l26 149c7 39 -3 56 -26 56s-39 -17 -46 -56l-26 -149h72z" />
    <glyph glyph-name="uni1E56" unicode="&#x1e56;" horiz-adv-x="292" 
d="M51 0h-62l135 766h95c95 0 131 -22 107 -160l-20 -118c-24 -135 -68 -160 -165 -160h-33zM240 466l28 162c10 56 -4 76 -42 76h-51l-56 -314h51c38 0 60 20 70 76zM239 831c-25 0 -38 20 -34 43c4 24 26 43 50 43s40 -19 36 -43c-4 -23 -27 -43 -52 -43z" />
    <glyph glyph-name="uni1E57" unicode="&#x1e57;" horiz-adv-x="256" 
d="M50 37l-42 -236h-59l134 766h47l1 -46c14 22 37 54 80 54c50 0 58 -43 39 -150l-49 -283c-19 -107 -43 -150 -93 -150c-37 0 -51 24 -58 45zM120 435l-53 -303c-12 -67 3 -86 25 -86c24 0 36 24 45 75l57 325c9 51 5 75 -19 75c-22 0 -43 -19 -55 -86zM187 632
c-25 0 -38 20 -34 43c4 24 26 43 50 43s40 -19 36 -43c-4 -23 -27 -43 -52 -43z" />
    <glyph glyph-name="Thorn" unicode="&#xde;" horiz-adv-x="293" 
d="M51 0h-62l135 766h62l-29 -163h33c99 0 131 -28 108 -160l-21 -118c-24 -135 -67 -160 -164 -160h-33zM211 303l28 162c10 56 -4 76 -42 76h-51l-55 -314h51c38 0 59 20 69 76z" />
    <glyph glyph-name="thorn" unicode="&#xfe;" horiz-adv-x="256" 
d="M49 37l-42 -236h-59l170 965h60l-42 -238c13 20 32 47 73 47c49 0 60 -38 40 -150l-49 -283c-19 -107 -43 -150 -93 -150c-37 0 -51 24 -58 45zM119 435l-53 -303c-12 -67 3 -86 25 -86c24 0 36 24 45 75l57 325c9 51 5 75 -19 75c-22 0 -43 -19 -55 -86z" />
    <glyph glyph-name="Racute" unicode="&#x154;" horiz-adv-x="297" 
d="M240 0h-62l-32 333h-37l-58 -333h-62l135 766h97c97 0 129 -25 105 -160l-20 -115c-16 -93 -44 -137 -101 -151zM241 471l27 157c10 56 -4 76 -42 76h-51l-55 -309h51c38 0 60 20 70 76zM258 841h-53l62 101h71z" />
    <glyph glyph-name="racute" unicode="&#x155;" horiz-adv-x="190" 
d="M44 0h-60l99 567h47l1 -46c10 17 38 53 76 53c22 0 35 -12 35 -12l-37 -65c-15 9 -28 12 -37 12c-26 0 -39 -23 -50 -86zM186 642h-53l62 101h71z" />
    <glyph glyph-name="Rcommaaccent" unicode="&#x156;" horiz-adv-x="297" 
d="M240 0h-62l-32 333h-37l-58 -333h-62l135 766h97c97 0 129 -25 105 -160l-20 -115c-16 -93 -44 -137 -101 -151zM241 471l27 157c10 56 -4 76 -42 76h-51l-55 -309h51c38 0 60 20 70 76zM69 -156h-46l55 106h66z" />
    <glyph glyph-name="rcommaaccent" unicode="&#x157;" horiz-adv-x="190" 
d="M45 0h-60l99 567h47l1 -46c10 17 38 53 76 53c22 0 35 -12 35 -12l-37 -65c-15 9 -28 12 -37 12c-26 0 -39 -23 -50 -86zM-19 -156h-46l55 106h66z" />
    <glyph glyph-name="Rcaron" unicode="&#x158;" horiz-adv-x="297" 
d="M240 0h-62l-32 333h-37l-58 -333h-62l135 766h97c97 0 129 -25 105 -160l-20 -115c-16 -93 -44 -137 -101 -151zM241 471l27 157c10 56 -4 76 -42 76h-51l-55 -309h51c38 0 60 20 70 76zM274 841h-70l-39 101h56l25 -62l50 62h53z" />
    <glyph glyph-name="rcaron" unicode="&#x159;" horiz-adv-x="189" 
d="M43 0h-60l99 567h47l1 -46c10 17 38 53 76 53c22 0 35 -12 35 -12l-37 -65c-15 9 -28 12 -37 12c-26 0 -39 -23 -50 -86zM200 642h-70l-39 101h56l25 -62l50 62h53z" />
    <glyph glyph-name="Scaron" unicode="&#x160;" horiz-adv-x="295" 
d="M175 120l18 103c18 105 -147 160 -120 310l18 98c24 132 96 148 143 148c46 0 116 -15 92 -150l-23 -130h-62l26 147c10 56 -14 76 -42 76s-60 -20 -70 -76l-18 -104c-24 -136 146 -165 120 -308l-14 -77c-19 -111 -55 -170 -147 -170s-109 59 -89 170l18 99h62l-24 -136
c-10 -56 14 -76 42 -76s60 20 70 76zM281 841h-70l-39 101h56l25 -62l50 62h53z" />
    <glyph glyph-name="scaron" unicode="&#x161;" horiz-adv-x="246" 
d="M63 187l-11 -67c-8 -48 -11 -73 24 -73c32 0 48 21 57 71c29 167 -121 120 -85 324c20 112 66 133 125 133c68 0 96 -28 78 -130l-12 -67h-60l12 66c11 60 3 76 -27 76c-26 0 -44 -11 -54 -70c-33 -186 121 -120 85 -325c-19 -107 -63 -133 -129 -133
c-74 0 -90 33 -72 140l9 55h60zM220 642h-70l-39 101h56l25 -62l50 62h53z" />
    <glyph glyph-name="Scommaaccent" unicode="&#x218;" horiz-adv-x="295" 
d="M175 120l18 103c18 105 -147 160 -120 310l18 98c24 132 96 148 143 148c46 0 116 -15 92 -150l-23 -130h-62l26 147c10 56 -14 76 -42 76s-60 -20 -70 -76l-18 -104c-24 -136 146 -165 120 -308l-14 -77c-19 -111 -55 -170 -147 -170s-109 59 -89 170l18 99h62l-24 -136
c-10 -56 14 -76 42 -76s60 20 70 76zM66 -156h-46l55 106h66z" />
    <glyph glyph-name="scommaaccent" unicode="&#x219;" horiz-adv-x="246" 
d="M63 187l-11 -67c-8 -48 -11 -73 24 -73c32 0 48 21 57 71c29 167 -121 120 -85 324c20 112 66 133 125 133c68 0 96 -28 78 -130l-12 -67h-60l12 66c11 60 3 76 -27 76c-26 0 -44 -11 -54 -70c-33 -186 121 -120 85 -325c-19 -107 -63 -133 -129 -133
c-74 0 -90 33 -72 140l9 55h60zM39 -156h-46l55 106h66z" />
    <glyph glyph-name="Scedilla" unicode="&#x15e;" horiz-adv-x="294" 
d="M5 -159l17 39c6 -4 19 -9 33 -9c23 0 40 14 43 31c3 15 -7 31 -34 31c-3 0 -6 0 -10 -1l23 56c-77 7 -89 67 -71 169l18 99h62l-24 -136c-10 -56 14 -76 42 -76s60 20 70 76l18 103c18 105 -147 160 -120 310l18 98c24 132 96 148 143 148c46 0 116 -15 92 -150l-23 -130
h-62l26 147c10 56 -14 76 -42 76s-60 -20 -70 -76l-18 -104c-24 -136 146 -165 120 -308l-14 -77c-18 -98 -46 -157 -123 -168l-14 -35c29 0 50 -25 45 -56c-6 -34 -44 -68 -92 -68c-17 0 -37 4 -53 11z" />
    <glyph glyph-name="scedilla" unicode="&#x15f;" horiz-adv-x="246" 
d="M-21 -159l17 39c6 -4 19 -9 33 -9c23 0 40 14 43 31c3 15 -7 31 -34 31c-3 0 -6 0 -10 -1l25 61c-65 5 -75 41 -59 139l9 55h60l-11 -67c-8 -48 -11 -73 24 -73c32 0 48 21 57 71c29 167 -121 120 -85 324c20 112 66 133 125 133c68 0 96 -28 78 -130l-12 -67h-60l12 66
c11 60 3 76 -27 76c-26 0 -44 -11 -54 -70c-33 -186 122 -121 85 -325c-16 -89 -49 -123 -101 -131l-15 -40c29 0 50 -25 45 -56c-6 -34 -44 -68 -92 -68c-17 0 -37 4 -53 11z" />
    <glyph glyph-name="Sacute" unicode="&#x15a;" horiz-adv-x="295" 
d="M175 120l18 103c18 105 -147 160 -120 310l18 98c24 132 96 148 143 148c46 0 116 -15 92 -150l-23 -130h-62l26 147c10 56 -14 76 -42 76s-60 -20 -70 -76l-18 -104c-24 -136 146 -165 120 -308l-14 -77c-19 -111 -55 -170 -147 -170s-109 59 -89 170l18 99h62l-24 -136
c-10 -56 14 -76 42 -76s60 20 70 76zM261 841h-53l62 101h71z" />
    <glyph glyph-name="sacute" unicode="&#x15b;" horiz-adv-x="246" 
d="M63 187l-11 -67c-8 -48 -11 -73 24 -73c32 0 48 21 57 71c29 167 -121 120 -85 324c20 112 66 133 125 133c68 0 96 -28 78 -130l-12 -67h-60l12 66c11 60 3 76 -27 76c-26 0 -44 -11 -54 -70c-33 -186 121 -120 85 -325c-19 -107 -63 -133 -129 -133
c-74 0 -90 33 -72 140l9 55h60zM198 642h-53l62 101h71z" />
    <glyph glyph-name="Scircumflex" unicode="&#x15c;" horiz-adv-x="295" 
d="M175 120l18 103c18 105 -147 160 -120 310l18 98c24 132 96 148 143 148c46 0 116 -15 92 -150l-23 -130h-62l26 147c10 56 -14 76 -42 76s-60 -20 -70 -76l-18 -104c-24 -136 146 -165 120 -308l-14 -77c-19 -111 -55 -170 -147 -170s-109 59 -89 170l18 99h62l-24 -136
c-10 -56 14 -76 42 -76s60 20 70 76zM338 841h-53l-28 62l-47 -62h-56l75 101h70z" />
    <glyph glyph-name="scircumflex" unicode="&#x15d;" horiz-adv-x="246" 
d="M63 187l-11 -67c-8 -48 -11 -73 24 -73c32 0 48 21 57 71c29 167 -121 120 -85 324c20 112 66 133 125 133c68 0 96 -28 78 -130l-12 -67h-60l12 66c11 60 3 76 -27 76c-26 0 -44 -11 -54 -70c-33 -186 121 -120 85 -325c-19 -107 -63 -133 -129 -133
c-74 0 -90 33 -72 140l9 55h60zM277 642h-53l-28 62l-47 -62h-56l75 101h70z" />
    <glyph glyph-name="uni1E60" unicode="&#x1e60;" horiz-adv-x="295" 
d="M175 120l18 103c18 105 -147 160 -120 310l18 98c24 132 96 148 143 148c46 0 116 -15 92 -150l-23 -130h-62l26 147c10 56 -14 76 -42 76s-60 -20 -70 -76l-18 -104c-24 -136 146 -165 120 -308l-14 -77c-19 -111 -55 -170 -147 -170s-109 59 -89 170l18 99h62l-24 -136
c-10 -56 14 -76 42 -76s60 20 70 76zM243 831c-25 0 -38 20 -34 43c4 24 26 43 50 43s40 -19 36 -43c-4 -23 -27 -43 -52 -43z" />
    <glyph glyph-name="uni1E61" unicode="&#x1e61;" horiz-adv-x="246" 
d="M63 187l-11 -67c-8 -48 -11 -73 24 -73c32 0 48 21 57 71c29 167 -121 120 -85 324c20 112 66 133 125 133c68 0 96 -28 78 -130l-12 -67h-60l12 66c11 60 3 76 -27 76c-26 0 -44 -11 -54 -70c-33 -186 121 -120 85 -325c-19 -107 -63 -133 -129 -133
c-74 0 -90 33 -72 140l9 55h60zM182 632c-25 0 -38 20 -34 43c4 24 26 43 50 43s40 -19 36 -43c-4 -23 -27 -43 -52 -43z" />
    <glyph glyph-name="Tcaron" unicode="&#x164;" horiz-adv-x="268" 
d="M115 0h-62l124 704h-95l11 62h252l-11 -62h-95zM267 841h-70l-39 101h56l25 -62l50 62h53z" />
    <glyph glyph-name="tcaron" unicode="&#x165;" horiz-adv-x="179" 
d="M131 47l-9 -50c-14 -3 -27 -5 -43 -5c-75 0 -75 46 -57 150l65 370h-45l9 55h45l25 140h60l-25 -140h65l-9 -55h-65l-70 -398c-9 -50 -6 -68 31 -68c5 0 14 0 23 1zM243 621h-34l66 178h73z" />
    <glyph glyph-name="Tbar" unicode="&#x166;" horiz-adv-x="280" 
d="M121 0h-62l63 361h-70l10 56h70l51 287h-95l11 62h252l-11 -62h-95l-51 -287h70l-10 -56h-70z" />
    <glyph glyph-name="tbar" unicode="&#x167;" horiz-adv-x="181" 
d="M133 47l-9 -50c-14 -3 -27 -5 -43 -5c-75 0 -75 46 -57 150l28 161h-42l9 54h42l28 155h-45l9 55h45l25 140h60l-25 -140h65l-9 -55h-65l-28 -155h60l-9 -54h-60l-33 -189c-9 -50 -6 -68 31 -68c5 0 14 0 23 1z" />
    <glyph glyph-name="Tcommaaccent" unicode="&#x162;" horiz-adv-x="268" 
d="M115 0h-62l124 704h-95l11 62h252l-11 -62h-95zM46 -156h-46l55 106h66z" />
    <glyph glyph-name="tcommaaccent" unicode="&#x163;" horiz-adv-x="178" 
d="M133 47l-9 -50c-14 -3 -27 -5 -43 -5c-75 0 -75 46 -57 150l65 370h-45l9 55h45l25 140h60l-25 -140h65l-9 -55h-65l-70 -398c-9 -50 -6 -68 31 -68c5 0 14 0 23 1zM24 -156h-46l55 106h66z" />
    <glyph glyph-name="uni1E6A" unicode="&#x1e6a;" horiz-adv-x="268" 
d="M115 0h-62l124 704h-95l11 62h252l-11 -62h-95zM229 831c-25 0 -38 20 -34 43c4 24 26 43 50 43s40 -19 36 -43c-4 -23 -27 -43 -52 -43z" />
    <glyph glyph-name="uni1E6B" unicode="&#x1e6b;" horiz-adv-x="178" 
d="M131 47l-9 -50c-14 -3 -27 -5 -43 -5c-75 0 -75 46 -57 150l65 370h-45l9 55h45l25 140h60l-25 -140h65l-9 -55h-65l-70 -398c-9 -50 -6 -68 31 -68c5 0 14 0 23 1zM159 762c-25 0 -38 20 -34 43c4 24 26 43 50 43s40 -19 36 -43c-4 -23 -27 -43 -52 -43z" />
    <glyph glyph-name="Ugrave" unicode="&#xd9;" horiz-adv-x="312" 
d="M183 120l114 646h62l-110 -619c-22 -129 -78 -160 -146 -160s-112 31 -90 160l110 619h62l-114 -646c-10 -53 11 -76 42 -76s60 23 70 76zM260 942l26 -101h-53l-44 101h71z" />
    <glyph glyph-name="ugrave" unicode="&#xf9;" 
d="M174 0h-47l-1 46c-14 -22 -37 -54 -80 -54c-50 0 -58 43 -39 150l74 425h60l-78 -446c-9 -51 -5 -75 19 -75c22 0 43 19 55 86l76 435h60zM199 743l26 -101h-53l-44 101h71z" />
    <glyph glyph-name="Uacute" unicode="&#xda;" horiz-adv-x="312" 
d="M183 120l114 646h62l-110 -619c-22 -129 -78 -160 -146 -160s-112 31 -90 160l110 619h62l-114 -646c-10 -53 11 -76 42 -76s60 23 70 76zM274 841h-53l62 101h71z" />
    <glyph glyph-name="uacute" unicode="&#xfa;" 
d="M174 0h-47l-1 46c-14 -22 -37 -54 -80 -54c-50 0 -58 43 -39 150l74 425h60l-78 -446c-9 -51 -5 -75 19 -75c22 0 43 19 55 86l76 435h60zM208 642h-53l62 101h71z" />
    <glyph glyph-name="Ucircumflex" unicode="&#xdb;" horiz-adv-x="312" 
d="M183 120l114 646h62l-110 -619c-22 -129 -78 -160 -146 -160s-112 31 -90 160l110 619h62l-114 -646c-10 -53 11 -76 42 -76s60 23 70 76zM346 841h-53l-28 62l-47 -62h-56l75 101h70z" />
    <glyph glyph-name="ucircumflex" unicode="&#xfb;" 
d="M174 0h-47l-1 46c-14 -22 -37 -54 -80 -54c-50 0 -58 43 -39 150l74 425h60l-78 -446c-9 -51 -5 -75 19 -75c22 0 43 19 55 86l76 435h60zM284 642h-53l-28 62l-47 -62h-56l75 101h70z" />
    <glyph glyph-name="Udieresis" unicode="&#xdc;" horiz-adv-x="312" 
d="M183 120l114 646h62l-110 -619c-22 -129 -78 -160 -146 -160s-112 31 -90 160l110 619h62l-114 -646c-10 -53 11 -76 42 -76s60 23 70 76zM185 831c-25 0 -38 20 -34 43c4 24 26 43 50 43s40 -19 36 -43c-4 -23 -27 -43 -52 -43zM316 831c-25 0 -38 20 -34 43
c4 24 26 43 50 43s40 -19 36 -43c-4 -23 -27 -43 -52 -43z" />
    <glyph glyph-name="udieresis" unicode="&#xfc;" horiz-adv-x="257" 
d="M174 0h-47l-1 46c-14 -22 -37 -54 -80 -54c-50 0 -58 43 -39 150l74 425h60l-78 -446c-9 -51 -5 -75 19 -75c22 0 43 19 55 86l76 435h60zM124 632c-25 0 -38 20 -34 43c4 24 26 43 50 43s40 -19 36 -43c-4 -23 -27 -43 -52 -43zM255 632c-25 0 -38 20 -34 43
c4 24 26 43 50 43s40 -19 36 -43c-4 -23 -27 -43 -52 -43z" />
    <glyph glyph-name="Utilde" unicode="&#x168;" horiz-adv-x="312" 
d="M183 120l114 646h62l-110 -619c-22 -129 -78 -160 -146 -160s-112 31 -90 160l110 619h62l-114 -646c-10 -53 11 -76 42 -76s60 23 70 76zM305 903h58c-13 -39 -43 -63 -74 -63c-26 0 -38 17 -57 17c-12 0 -17 -7 -20 -16h-56c3 11 23 63 71 63c26 0 45 -15 60 -15
c14 0 18 14 18 14z" />
    <glyph glyph-name="utilde" unicode="&#x169;" 
d="M174 0h-47l-1 46c-14 -22 -37 -54 -80 -54c-50 0 -58 43 -39 150l74 425h60l-78 -446c-9 -51 -5 -75 19 -75c22 0 43 19 55 86l76 435h60zM243 704h58c-13 -39 -43 -63 -74 -63c-26 0 -38 17 -57 17c-12 0 -17 -7 -20 -16h-56c3 11 23 63 71 63c26 0 45 -15 60 -15
c14 0 18 14 18 14z" />
    <glyph glyph-name="Umacron" unicode="&#x16a;" horiz-adv-x="312" 
d="M183 120l114 646h62l-110 -619c-22 -129 -78 -160 -146 -160s-112 31 -90 160l110 619h62l-114 -646c-10 -53 11 -76 42 -76s60 23 70 76zM355 841h-202l9 50h202z" />
    <glyph glyph-name="umacron" unicode="&#x16b;" 
d="M174 0h-47l-1 46c-14 -22 -37 -54 -80 -54c-50 0 -58 43 -39 150l74 425h60l-78 -446c-9 -51 -5 -75 19 -75c22 0 43 19 55 86l76 435h60zM293 642h-202l9 50h202z" />
    <glyph glyph-name="Ubreve" unicode="&#x16c;" horiz-adv-x="312" 
d="M183 120l114 646h62l-110 -619c-22 -129 -78 -160 -146 -160s-112 31 -90 160l110 619h62l-114 -646c-10 -53 11 -76 42 -76s60 23 70 76zM321 924h39c-10 -58 -59 -88 -107 -88s-88 30 -78 88h40c-5 -31 13 -47 45 -47c31 0 56 16 61 47z" />
    <glyph glyph-name="ubreve" unicode="&#x16d;" 
d="M174 0h-47l-1 46c-14 -22 -37 -54 -80 -54c-50 0 -58 43 -39 150l74 425h60l-78 -446c-9 -51 -5 -75 19 -75c22 0 43 19 55 86l76 435h60zM260 725h39c-10 -58 -59 -88 -107 -88s-88 30 -78 88h40c-5 -31 13 -47 45 -47c31 0 56 16 61 47z" />
    <glyph glyph-name="Uring" unicode="&#x16e;" horiz-adv-x="312" 
d="M183 120l114 646h62l-110 -619c-22 -129 -78 -160 -146 -160s-112 31 -90 160l110 619h62l-114 -646c-10 -53 11 -76 42 -76s60 23 70 76zM297 882c3 20 -10 36 -30 36c-22 0 -39 -18 -42 -36c-4 -20 10 -36 30 -36c18 0 38 14 42 36zM250 818c-36 0 -59 28 -53 64
s39 64 75 64s59 -28 53 -64s-39 -64 -75 -64z" />
    <glyph glyph-name="uring" unicode="&#x16f;" 
d="M174 0h-47l-1 46c-14 -22 -37 -54 -80 -54c-50 0 -58 43 -39 150l74 425h60l-78 -446c-9 -51 -5 -75 19 -75c22 0 43 19 55 86l76 435h60zM235 683c3 20 -10 36 -30 36c-22 0 -39 -18 -42 -36c-4 -20 10 -36 30 -36c18 0 38 14 42 36zM188 619c-36 0 -59 28 -53 64
s39 64 75 64s59 -28 53 -64s-39 -64 -75 -64z" />
    <glyph glyph-name="Uhungarumlaut" unicode="&#x170;" horiz-adv-x="312" 
d="M183 120l114 646h62l-110 -619c-22 -129 -78 -160 -146 -160s-112 31 -90 160l110 619h62l-114 -646c-10 -53 11 -76 42 -76s60 23 70 76zM218 841h-53l62 101h71zM320 841h-53l62 101h71z" />
    <glyph glyph-name="uhungarumlaut" unicode="&#x171;" horiz-adv-x="257" 
d="M174 0h-47l-1 46c-14 -22 -37 -54 -80 -54c-50 0 -58 43 -39 150l74 425h60l-78 -446c-9 -51 -5 -75 19 -75c22 0 43 19 55 86l76 435h60zM158 642h-53l62 101h71zM260 642h-53l62 101h71z" />
    <glyph glyph-name="Uogonek" unicode="&#x172;" horiz-adv-x="312" 
d="M139 -141l-27 -31c-61 8 -81 44 -74 87c4 24 17 50 52 73c-60 4 -98 38 -77 159l110 619h62l-114 -646c-10 -56 13 -76 42 -76s60 21 70 76l114 646h62l-110 -619c-19 -108 -53 -130 -100 -157c-31 -18 -56 -37 -62 -71c-7 -39 22 -52 52 -60z" />
    <glyph glyph-name="uogonek" unicode="&#x173;" 
d="M155 -141l-27 -31c-63 8 -81 47 -74 87c6 35 31 65 77 85l-5 46c-14 -22 -37 -54 -80 -54c-50 0 -58 43 -39 150l74 425h60l-78 -446c-9 -51 -5 -75 19 -75c22 0 43 19 55 86l76 435h60l-99 -567c-33 -20 -65 -48 -71 -82c-6 -36 21 -51 52 -59z" />
    <glyph glyph-name="Wcircumflex" unicode="&#x174;" horiz-adv-x="457" 
d="M312 0h-70l37 577l-164 -577h-70l51 766h62l-55 -634l178 634h64l-45 -634l168 634h62zM418 841h-53l-28 62l-47 -62h-56l75 101h70z" />
    <glyph glyph-name="wcircumflex" unicode="&#x175;" horiz-adv-x="393" 
d="M258 0h-66l28 421l-119 -421h-66l22 567h64l-33 -447l124 447h67l-32 -447l123 447h64zM352 642h-53l-28 62l-47 -62h-56l75 101h70z" />
    <glyph glyph-name="Wdieresis" unicode="&#x1e84;" horiz-adv-x="457" 
d="M312 0h-70l37 577l-164 -577h-70l51 766h62l-55 -634l178 634h64l-45 -634l168 634h62zM257 831c-25 0 -38 20 -34 43c4 24 26 43 50 43s40 -19 36 -43c-4 -23 -27 -43 -52 -43zM388 831c-25 0 -38 20 -34 43c4 24 26 43 50 43s40 -19 36 -43c-4 -23 -27 -43 -52 -43z
" />
    <glyph glyph-name="wdieresis" unicode="&#x1e85;" horiz-adv-x="393" 
d="M258 0h-66l28 421l-119 -421h-66l22 567h64l-33 -447l124 447h67l-32 -447l123 447h64zM191 632c-25 0 -38 20 -34 43c4 24 26 43 50 43s40 -19 36 -43c-4 -23 -27 -43 -52 -43zM322 632c-25 0 -38 20 -34 43c4 24 26 43 50 43s40 -19 36 -43c-4 -23 -27 -43 -52 -43z
" />
    <glyph glyph-name="Wgrave" unicode="&#x1e80;" horiz-adv-x="457" 
d="M312 0h-70l37 577l-164 -577h-70l51 766h62l-55 -634l178 634h64l-45 -634l168 634h62zM337 942l26 -101h-53l-44 101h71z" />
    <glyph glyph-name="wgrave" unicode="&#x1e81;" horiz-adv-x="393" 
d="M258 0h-66l28 421l-119 -421h-66l22 567h64l-33 -447l124 447h67l-32 -447l123 447h64zM268 743l26 -101h-53l-44 101h71z" />
    <glyph glyph-name="Wacute" unicode="&#x1e82;" horiz-adv-x="457" 
d="M312 0h-70l37 577l-164 -577h-70l51 766h62l-55 -634l178 634h64l-45 -634l168 634h62zM351 841h-53l62 101h71z" />
    <glyph glyph-name="wacute" unicode="&#x1e83;" horiz-adv-x="393" 
d="M258 0h-66l28 421l-119 -421h-66l22 567h64l-33 -447l124 447h67l-32 -447l123 447h64zM280 642h-53l62 101h71z" />
    <glyph glyph-name="Ygrave" unicode="&#x1ef2;" horiz-adv-x="296" 
d="M128 0h-60l50 286l-24 480h63l10 -372l142 372h63l-194 -480zM257 942l26 -101h-53l-44 101h71z" />
    <glyph glyph-name="ygrave" unicode="&#x1ef3;" horiz-adv-x="245" 
d="M38 -200h-64l61 169l25 598h64l-34 -471l135 471h64zM204 743l26 -101h-53l-44 101h71z" />
    <glyph glyph-name="Yacute" unicode="&#xdd;" horiz-adv-x="296" 
d="M128 0h-60l50 286l-24 480h63l10 -372l142 372h63l-194 -480zM268 841h-53l62 101h71z" />
    <glyph glyph-name="yacute" unicode="&#xfd;" horiz-adv-x="245" 
d="M38 -200h-64l61 169l25 598h64l-34 -471l135 471h64zM207 642h-53l62 101h71z" />
    <glyph glyph-name="Ydieresis" unicode="&#x178;" horiz-adv-x="296" 
d="M128 0h-60l50 286l-24 480h63l10 -372l142 372h63l-194 -480zM177 831c-25 0 -38 20 -34 43c4 24 26 43 50 43s40 -19 36 -43c-4 -23 -27 -43 -52 -43zM308 831c-25 0 -38 20 -34 43c4 24 26 43 50 43s40 -19 36 -43c-4 -23 -27 -43 -52 -43z" />
    <glyph glyph-name="ydieresis" unicode="&#xff;" horiz-adv-x="245" 
d="M38 -200h-64l61 169l25 598h64l-34 -471l135 471h64zM119 632c-25 0 -38 20 -34 43c4 24 26 43 50 43s40 -19 36 -43c-4 -23 -27 -43 -52 -43zM250 632c-25 0 -38 20 -34 43c4 24 26 43 50 43s40 -19 36 -43c-4 -23 -27 -43 -52 -43z" />
    <glyph glyph-name="Ycircumflex" unicode="&#x176;" horiz-adv-x="296" 
d="M128 0h-60l50 286l-24 480h63l10 -372l142 372h63l-194 -480zM338 841h-53l-28 62l-47 -62h-56l75 101h70z" />
    <glyph glyph-name="ycircumflex" unicode="&#x177;" horiz-adv-x="245" 
d="M38 -200h-64l61 169l25 598h64l-34 -471l135 471h64zM279 642h-53l-28 62l-47 -62h-56l75 101h70z" />
    <glyph glyph-name="Zcaron" unicode="&#x17d;" horiz-adv-x="263" 
d="M199 0h-236l10 62l275 642h-152l11 62h227l-4 -18l-293 -686h172zM274 841h-70l-39 101h56l25 -62l50 62h53z" />
    <glyph glyph-name="zcaron" unicode="&#x17e;" horiz-adv-x="231" 
d="M160 0h-202l8 48l225 464h-124l9 55h195l-6 -38l-227 -474h131zM223 642h-70l-39 101h56l25 -62l50 62h53z" />
    <glyph glyph-name="Zacute" unicode="&#x179;" horiz-adv-x="263" 
d="M199 0h-236l10 62l275 642h-152l11 62h227l-4 -18l-293 -686h172zM254 841h-53l62 101h71z" />
    <glyph glyph-name="zacute" unicode="&#x17a;" horiz-adv-x="231" 
d="M160 0h-202l8 48l225 464h-124l9 55h195l-6 -38l-227 -474h131zM203 642h-53l62 101h71z" />
    <glyph glyph-name="Zdotaccent" unicode="&#x17b;" horiz-adv-x="263" 
d="M199 0h-236l10 62l275 642h-152l11 62h227l-4 -18l-293 -686h172zM236 831c-25 0 -38 20 -34 43c4 24 26 43 50 43s40 -19 36 -43c-4 -23 -27 -43 -52 -43z" />
    <glyph glyph-name="zdotaccent" unicode="&#x17c;" horiz-adv-x="231" 
d="M160 0h-202l8 48l225 464h-124l9 55h195l-6 -38l-227 -474h131zM185 632c-25 0 -38 20 -34 43c4 24 26 43 50 43s40 -19 36 -43c-4 -23 -27 -43 -52 -43z" />
    <glyph glyph-name="ampersand" unicode="&#x26;" horiz-adv-x="325" 
d="M322 369h-31l-41 -232c-19 -107 -75 -150 -147 -150c-69 0 -108 40 -89 150l22 128c12 70 38 115 108 136c-64 17 -74 59 -62 126l19 103c20 110 73 150 141 150c76 0 115 -49 95 -150l-6 -30h-62l9 47c9 49 -11 76 -43 76c-27 0 -59 -18 -69 -76l-27 -151
c-10 -56 46 -66 74 -66h26l11 60h62l-11 -60h31zM185 120l44 249h-26c-28 0 -88 -10 -98 -66l-32 -183c-10 -56 14 -76 42 -76s60 20 70 76z" />
    <glyph glyph-name="sterling" unicode="&#xa3;" horiz-adv-x="338" 
d="M259 0h-279l10 62h45l34 192h-45l10 56h45l11 64h-45l10 56h45l36 201c24 137 103 148 144 148c49 0 115 -16 92 -148l-11 -63h-62l13 78c10 59 -16 76 -42 76c-28 0 -60 -20 -70 -76l-38 -216h145l-10 -56h-145l-11 -64h145l-10 -56h-145l-34 -192h172z" />
    <glyph glyph-name="yen" unicode="&#xa5;" horiz-adv-x="318" 
d="M139 0h-60l25 144h-101l10 56h101l11 64h-101l10 56h93l-22 446h63l10 -372l142 372h63l-181 -446h94l-10 -56h-101l-11 -64h101l-10 -56h-101z" />
    <glyph glyph-name="dollar" unicode="$" horiz-adv-x="301" 
d="M106 -64h-33l9 52c-80 5 -91 67 -73 169l18 99h62l-24 -136c-8 -46 7 -68 28 -74l53 300c-41 51 -85 106 -71 187l18 100c22 122 85 139 129 145l9 52h33l-9 -53c42 -6 95 -26 74 -144l-24 -134h-62l26 147c8 44 -5 65 -25 73l-55 -316c39 -43 84 -91 70 -169l-14 -77
c-18 -104 -51 -163 -130 -169zM162 438l49 282c-25 -7 -47 -34 -54 -74l-18 -104c-8 -44 4 -76 23 -104zM177 120l18 103c5 28 -5 58 -23 86l-46 -262c22 7 43 29 51 73z" />
    <glyph glyph-name="cent" unicode="&#xa2;" 
d="M111 0h-60l18 103c-37 9 -58 39 -45 115l61 347c13 73 45 106 85 115l16 87h60l-16 -87c38 -8 61 -37 47 -115l-17 -98h-60l18 105c7 39 -3 56 -26 56s-39 -17 -46 -56l-63 -361c-7 -39 3 -56 26 -56s39 17 46 56l21 119h60l-20 -112c-14 -77 -47 -107 -88 -116z" />
    <glyph glyph-name="Euro" unicode="&#x20ac;" horiz-adv-x="330" 
d="M209 120l11 66h62l-7 -39c-23 -130 -78 -160 -145 -160c-71 0 -113 34 -91 160l26 147h-38l10 56h38l11 64h-39l10 56h39l27 149c23 129 77 160 145 160s114 -31 91 -160l-9 -50h-62l13 77c10 58 -14 76 -41 76c-30 0 -61 -21 -71 -76l-31 -176h151l-10 -56h-151l-11 -64
h152l-10 -56h-152l-30 -174c-10 -56 13 -76 42 -76c31 0 61 24 70 76z" />
    <glyph glyph-name="parenleft" unicode="(" horiz-adv-x="167" 
d="M80 -172h-61c-34 200 -14 368 4 469s57 269 162 469h61c-71 -125 -131 -294 -162 -469s-31 -344 -4 -469z" />
    <glyph glyph-name="parenright" unicode=")" horiz-adv-x="167" 
d="M-14 -172h-60c70 125 130 294 161 469s31 344 4 469h61c33 -200 14 -368 -4 -469s-58 -269 -162 -469z" />
    <glyph glyph-name="bracketleft" unicode="[" horiz-adv-x="194" 
d="M101 -170h-136l165 936h136l-10 -52h-78l-146 -829h78z" />
    <glyph glyph-name="bracketright" unicode="]" horiz-adv-x="194" 
d="M69 -169h-135l9 55h75l146 828h-76l10 52h136z" />
    <glyph glyph-name="braceleft" unicode="{" horiz-adv-x="230" 
d="M146 -115l-9 -55h-54c-49 0 -69 42 -58 107l37 206c12 70 8 121 -62 128l9 51c72 8 96 65 107 130l37 206c13 73 49 108 95 108h54l-10 -52h-37c-34 0 -41 -37 -50 -87l-35 -197c-15 -86 -63 -121 -84 -132c18 -8 53 -47 38 -131l-34 -195c-11 -61 -15 -87 19 -87h37z
" />
    <glyph glyph-name="braceright" unicode="}" horiz-adv-x="230" 
d="M118 143l-37 -206c-11 -63 -43 -107 -94 -107h-53l9 55h36c34 0 40 27 51 87l34 195c15 84 64 123 84 131c-17 11 -53 46 -38 132l35 197c9 50 14 87 -20 87h-37l10 52h54c51 0 68 -46 57 -108l-37 -206c-11 -64 -7 -122 61 -130l-9 -51c-72 -7 -93 -55 -106 -128z" />
    <glyph glyph-name="exclam" unicode="!" horiz-adv-x="149" 
d="M70 151h-40l95 615h69zM71 34c-4 -23 -26 -42 -49 -42s-39 19 -35 42c4 22 27 42 50 42s39 -19 34 -42z" />
    <glyph glyph-name="exclamdown" unicode="&#xa1;" horiz-adv-x="140" 
d="M23 -174h-69l123 615h40zM160 558c-4 -23 -27 -42 -50 -42s-38 19 -34 42s26 42 49 42s39 -19 35 -42z" />
    <glyph glyph-name="question" unicode="?" horiz-adv-x="275" 
d="M116 150h-42l38 275c8 -2 14 -2 19 -2c28 0 88 10 98 66l28 158c9 51 -12 76 -44 76c-30 0 -59 -23 -68 -76l-23 -129h-62l20 112c19 107 73 150 144 150c73 0 111 -45 92 -150l-19 -103c-14 -84 -49 -148 -132 -155zM119 34c-4 -23 -26 -42 -49 -42s-39 19 -35 42
c4 22 27 42 50 42s39 -19 34 -42z" />
    <glyph glyph-name="questiondown" unicode="&#xbf;" horiz-adv-x="273" 
d="M133 -55l23 129h62l-20 -112c-20 -112 -78 -150 -146 -150s-109 39 -90 150l18 103c15 84 49 148 132 155l49 222h42l-38 -275c-8 2 -14 2 -19 2c-28 0 -87 -10 -97 -66l-28 -158c-10 -56 14 -76 42 -76s60 20 70 76zM242 558c-4 -23 -27 -42 -50 -42s-38 19 -34 42
s26 42 49 42s39 -19 35 -42z" />
    <glyph glyph-name="dagger" unicode="&#x2020;" horiz-adv-x="292" 
d="M105 -60h-40l92 577l-101 -5l9 55l105 -5l26 204h70l-47 -204l106 5l-9 -55l-99 5z" />
    <glyph glyph-name="daggerdbl" unicode="&#x2021;" horiz-adv-x="298" 
d="M108 -60h-40l59 376l-103 -4l9 55l102 -5c2 23 5 46 9 68c3 18 10 52 20 87l-105 -5l9 55l105 -5l26 204h70l-47 -204l106 5l-9 -55l-103 5c-2 -20 -6 -50 -12 -83c-4 -23 -9 -49 -16 -72l105 5l-9 -55l-104 4z" />
    <glyph glyph-name="guilsinglleft" unicode="&#x2039;" horiz-adv-x="181" 
d="M117 100h-62l-43 167l102 169h62l-103 -169z" />
    <glyph glyph-name="guilsinglright" unicode="&#x203a;" horiz-adv-x="181" 
d="M60 100h-62l104 167l-45 169h62l44 -169z" />
    <glyph glyph-name="guillemotleft" unicode="&#xab;" horiz-adv-x="293" 
d="M117 100h-62l-43 167l102 169h62l-103 -169zM229 100h-62l-43 167l102 169h62l-103 -169z" />
    <glyph glyph-name="guillemotright" unicode="&#xbb;" horiz-adv-x="293" 
d="M60 100h-62l104 167l-45 169h62l44 -169zM172 100h-62l104 167l-45 169h62l44 -169z" />
    <glyph glyph-name="less" unicode="&#x3c;" horiz-adv-x="422" 
d="M327 82l-52 -39l-214 320l327 320l38 -39l-294 -281z" />
    <glyph glyph-name="greater" unicode="&#x3e;" horiz-adv-x="422" 
d="M60 43l-38 39l295 281l-196 281l52 39l215 -320z" />
    <glyph glyph-name="quotesingle" unicode="'" horiz-adv-x="108" 
d="M117 556h-30l22 210h60z" />
    <glyph glyph-name="quotedbl" unicode="&#x22;" horiz-adv-x="201" 
d="M210 556h-30l22 210h60zM117 556h-30l22 210h60z" />
    <glyph glyph-name="quoteleft" unicode="&#x2018;" horiz-adv-x="157" 
d="M137 548h-73l133 218h34z" />
    <glyph glyph-name="quoteright" unicode="&#x2019;" horiz-adv-x="154" 
d="M100 548h-34l94 218h73z" />
    <glyph glyph-name="quotedblleft" unicode="&#x201c;" horiz-adv-x="282" 
d="M262 548h-73l133 218h34zM137 548h-73l133 218h34z" />
    <glyph glyph-name="quotedblright" unicode="&#x201d;" horiz-adv-x="279" 
d="M100 548h-34l94 218h73zM225 548h-34l94 218h73z" />
    <glyph glyph-name="quotesinglbase" unicode="&#x201a;" horiz-adv-x="187" 
d="M-22 -135h-33l92 218h73z" />
    <glyph glyph-name="quotedblbase" unicode="&#x201e;" horiz-adv-x="312" 
d="M-22 -135h-33l92 218h73zM103 -135h-34l93 218h73z" />
    <glyph glyph-name="minus" unicode="&#x2212;" horiz-adv-x="422" 
d="M391 336h-342l9 54h342z" />
    <glyph glyph-name="plus" unicode="+" horiz-adv-x="422" 
d="M222 192h-56l26 144h-143l9 54h143l26 144h56l-26 -144h143l-9 -54h-143z" />
    <glyph glyph-name="multiply" unicode="&#xd7;" horiz-adv-x="422" 
d="M302 223l-83 101l-120 -102l-33 40l120 102l-84 101l45 38l83 -101l120 102l33 -40l-120 -102l84 -101z" />
    <glyph glyph-name="divide" unicode="&#xf7;" horiz-adv-x="422" 
d="M241 217c-4 -23 -27 -42 -50 -42s-38 19 -34 42s26 42 49 42s39 -19 35 -42zM292 509c-4 -23 -26 -42 -49 -42s-39 19 -35 42s27 42 50 42s38 -19 34 -42zM391 336h-342l9 54h342z" />
    <glyph glyph-name="equal" unicode="=" horiz-adv-x="422" 
d="M404 410h-342l9 54h342zM377 260h-342l10 54h342z" />
    <glyph glyph-name="plusminus" unicode="&#xb1;" horiz-adv-x="422" 
d="M224 204h-56l26 144h-143l9 54h143l26 144h56l-26 -144h143l-9 -54h-143zM346 81h-342l9 54h342z" />
    <glyph glyph-name="notequal" unicode="&#x2260;" horiz-adv-x="422" 
d="M377 260h-170l-62 -147h-55l62 147h-117l10 54h131l41 96h-155l9 54h168l65 149h55l-65 -149h119l-9 -54h-132l-41 -96h156z" />
    <glyph glyph-name="period" unicode="." horiz-adv-x="148" 
d="M71 34c-4 -23 -26 -42 -49 -42s-39 19 -35 42c4 22 27 42 51 42s37 -20 33 -42z" />
    <glyph glyph-name="comma" unicode="," horiz-adv-x="191" 
d="M-37 -135h-33l112 218h73z" />
    <glyph glyph-name="bullet" unicode="&#x2022;" horiz-adv-x="269" 
d="M138 290c-52 0 -90 40 -80 94c10 52 60 94 111 94c39 0 91 -25 77 -94c-11 -58 -59 -94 -108 -94z" />
    <glyph glyph-name="periodcentered" unicode="&#xb7;" horiz-adv-x="148" 
d="M115 283c-4 -23 -26 -42 -49 -42s-39 19 -35 42s27 42 50 42s38 -19 34 -42z" />
    <glyph glyph-name="colon" unicode=":" horiz-adv-x="148" 
d="M71 34c-4 -23 -26 -42 -49 -42s-39 19 -35 42c4 22 27 42 50 42s39 -19 34 -42zM134 386c-4 -23 -27 -42 -50 -42s-38 19 -34 42s26 42 49 42s39 -19 35 -42z" />
    <glyph glyph-name="semicolon" unicode=";" horiz-adv-x="172" 
d="M-57 -135h-34l112 218h73zM154 386c-4 -23 -27 -42 -50 -42s-38 19 -34 42s26 42 49 42s39 -19 35 -42z" />
    <glyph glyph-name="ellipsis" unicode="&#x2026;" horiz-adv-x="444" 
d="M71 34c-4 -23 -26 -42 -49 -42s-39 19 -35 42c4 22 27 42 51 42s37 -20 33 -42zM219 34c-4 -23 -26 -42 -49 -42s-39 19 -35 42c4 22 27 42 51 42s37 -20 33 -42zM367 34c-4 -23 -26 -42 -49 -42s-39 19 -35 42c4 22 27 42 51 42s37 -20 33 -42z" />
    <glyph glyph-name="onedotenleader" unicode="&#x2024;" horiz-adv-x="148" 
d="M71 34c-4 -23 -26 -42 -49 -42s-39 19 -35 42c4 22 27 42 51 42s37 -20 33 -42z" />
    <glyph glyph-name="twodotenleader" unicode="&#x2025;" horiz-adv-x="296" 
d="M71 34c-4 -23 -26 -42 -49 -42s-39 19 -35 42c4 22 27 42 51 42s37 -20 33 -42zM219 34c-4 -23 -26 -42 -49 -42s-39 19 -35 42c4 22 27 42 51 42s37 -20 33 -42z" />
    <glyph glyph-name="hyphen" unicode="-" horiz-adv-x="193" 
d="M157 264h-129l10 56h129z" />
    <glyph glyph-name="uni00AD" unicode="&#xad;" horiz-adv-x="193" 
d="M157 264h-129l10 56h129z" />
    <glyph glyph-name="endash" unicode="&#x2013;" horiz-adv-x="256" 
d="M220 264h-192l10 56h192z" />
    <glyph glyph-name="emdash" unicode="&#x2014;" horiz-adv-x="388" 
d="M352 264h-324l10 56h324z" />
    <glyph glyph-name="underscore" unicode="_" horiz-adv-x="287" 
d="M200 -23h-223l9 46h223z" />
    <glyph glyph-name="numbersign" unicode="#" horiz-adv-x="463" 
d="M211 50h-57l92 212h-94l-92 -212h-57l92 212h-81l24 56h81l49 114h-94l24 56h95l91 212h57l-91 -212h94l91 212h57l-91 -212h81l-24 -56h-82l-49 -114h95l-24 -56h-95zM270 318l49 114h-94l-49 -114h94z" />
    <glyph glyph-name="zero" unicode="0" horiz-adv-x="320" 
d="M17 147l84 472c23 131 79 160 145 160c71 0 113 -34 91 -160l-84 -472c-23 -131 -79 -160 -145 -160c-71 0 -113 34 -91 160zM187 120l92 526c10 56 -13 76 -42 76s-60 -21 -70 -76l-92 -526c-10 -56 13 -76 42 -76s60 21 70 76z" />
    <glyph glyph-name="one" unicode="1" horiz-adv-x="216" 
d="M109 0h-62l122 693l-98 -37l11 61l112 49h50z" />
    <glyph glyph-name="two" unicode="2" horiz-adv-x="290" 
d="M198 0h-218l15 86c25 143 231 322 254 456l18 104c10 56 -14 76 -42 76s-60 -20 -70 -76l-23 -132h-62l21 118c20 111 75 147 143 147c70 0 112 -38 93 -147l-18 -101c-24 -137 -231 -333 -255 -469h154z" />
    <glyph glyph-name="three" unicode="3" horiz-adv-x="308" 
d="M175 120l32 183c10 56 -46 66 -73 66c-8 0 -15 -1 -21 -2l10 58c6 -2 12 -2 19 -2c28 0 88 10 98 66l28 158c9 51 -12 76 -44 76c-30 0 -59 -23 -68 -76l-23 -129h-62l20 112c20 112 77 150 144 150c68 0 112 -40 92 -150l-19 -103c-12 -69 -34 -108 -106 -126
c65 -22 72 -69 60 -136l-22 -128c-20 -111 -76 -150 -145 -150c-72 0 -110 43 -91 150l19 108h62l-22 -125c-10 -56 14 -76 42 -76s60 20 70 76z" />
    <glyph glyph-name="four" unicode="4" horiz-adv-x="299" 
d="M175 0h-62l37 212h-154l11 62l218 492h85l-87 -492h60l-11 -62h-60zM161 274l75 426l-165 -426h90z" />
    <glyph glyph-name="five" unicode="5" horiz-adv-x="305" 
d="M183 122l41 235c13 75 -14 84 -37 84c-35 0 -63 -22 -74 -83h-62l72 408h211l-11 -62h-149l-47 -263c22 36 59 56 93 56c49 0 84 -40 68 -130l-40 -228c-19 -108 -68 -152 -145 -152c-74 0 -110 41 -91 152l11 65h62l-14 -82c-10 -58 14 -78 41 -78c29 0 61 22 71 78z
" />
    <glyph glyph-name="six" unicode="6" horiz-adv-x="316" 
d="M291 357l-38 -218c-19 -108 -68 -152 -144 -152c-73 0 -112 40 -92 152l87 494c19 109 74 146 145 146c73 0 108 -40 90 -146l-12 -71h-62l14 84c10 59 -16 76 -42 76c-28 0 -60 -20 -70 -76l-38 -215c22 36 60 56 94 56c49 0 84 -40 68 -130zM188 122l39 223
c13 74 -13 86 -37 86c-31 0 -63 -19 -75 -86l-39 -223c-10 -58 14 -78 42 -78s60 22 70 78z" />
    <glyph glyph-name="seven" unicode="7" horiz-adv-x="289" 
d="M27 0h-68l329 704h-194l11 62h269l-4 -18z" />
    <glyph glyph-name="eight" unicode="8" horiz-adv-x="315" 
d="M276 290l-27 -153c-20 -111 -76 -150 -145 -150c-66 0 -111 36 -91 150l28 163c12 69 50 104 87 126c-35 15 -54 59 -42 126l14 78c20 112 77 150 144 150c72 0 111 -44 92 -150l-14 -78c-12 -67 -47 -112 -86 -126c29 -22 52 -67 40 -136zM253 514l24 133
c10 57 -17 76 -44 76c-30 0 -59 -23 -68 -76l-24 -133c-10 -56 16 -66 44 -66s58 10 68 66zM184 120l36 208c10 56 -16 66 -44 66s-58 -10 -68 -66l-36 -208c-10 -56 14 -76 42 -76s60 20 70 76z" />
    <glyph glyph-name="nine" unicode="9" horiz-adv-x="316" 
d="M181 120l38 215c-22 -36 -60 -56 -94 -56c-49 0 -84 40 -68 130l38 218c19 108 68 152 144 152c73 0 112 -40 92 -152l-87 -494c-19 -109 -74 -146 -145 -146c-73 0 -108 40 -90 146l12 71h62l-14 -84c-10 -59 16 -76 42 -76c28 0 60 20 70 76zM233 421l39 223
c10 58 -14 78 -42 78s-60 -22 -70 -78l-39 -223c-13 -74 13 -86 37 -86c31 0 63 19 75 86z" />
    <glyph glyph-name="onesuperior" unicode="&#xb9;" horiz-adv-x="161" 
d="M149 414h-52l53 298l-67 -29l8 47l80 37h41z" />
    <glyph glyph-name="twosuperior" unicode="&#xb2;" horiz-adv-x="213" 
d="M199 414h-146l10 53c14 77 123 128 137 201l6 30c4 23 -5 35 -20 35c-12 0 -27 -7 -32 -35l-8 -43h-50l9 49c9 50 45 69 88 69c47 0 75 -23 66 -69l-8 -41c-13 -74 -126 -133 -139 -207h95z" />
    <glyph glyph-name="threesuperior" unicode="&#xb3;" horiz-adv-x="211" 
d="M164 481l12 65c5 28 -26 31 -33 31c-5 0 -6 -1 -10 -1l7 39c3 -1 6 -1 9 -1c13 0 39 4 44 30l10 54c4 23 -4 35 -19 35c-13 0 -27 -8 -32 -35l-8 -41h-51l8 46c9 50 45 69 90 69c44 0 73 -18 64 -69l-8 -47c-5 -31 -16 -50 -49 -58c30 -11 33 -32 28 -63l-11 -59
c-9 -51 -45 -69 -89 -69c-50 0 -73 24 -65 69l8 44h51l-7 -39c-4 -23 5 -35 20 -35c11 0 26 6 31 35z" />
    <glyph glyph-name="foursuperior" unicode="&#x2074;" horiz-adv-x="199" 
d="M171 414h-47l18 97h-87l6 39l101 217h72l-39 -217h33l-6 -39h-33zM148 550l32 177l-75 -177h43z" />
    <glyph glyph-name="fraction" unicode="&#x2044;" horiz-adv-x="251" 
d="M-2 0h-51l341 766h51z" />
    <glyph glyph-name="percent" unicode="%" horiz-adv-x="592" 
d="M359 142l35 199c19 109 44 150 118 150c70 0 84 -37 64 -150l-35 -199c-20 -111 -45 -150 -117 -150c-76 0 -84 43 -65 150zM170 0h-51l341 766h51zM50 422l35 199c19 109 44 150 118 150c72 0 84 -39 64 -150l-35 -199c-20 -111 -45 -150 -117 -150
c-74 0 -84 41 -65 150zM481 118l44 247c10 56 5 76 -23 76s-39 -20 -49 -76l-44 -247c-10 -56 -5 -76 23 -76s39 20 49 76zM173 398l43 247c10 56 6 76 -22 76s-40 -20 -50 -76l-43 -247c-10 -56 -6 -76 22 -76s40 20 50 76z" />
    <glyph glyph-name="perthousand" unicode="&#x2030;" horiz-adv-x="818" 
d="M359 142l35 199c19 109 44 150 118 150c70 0 84 -37 64 -150l-35 -199c-20 -111 -45 -150 -117 -150c-76 0 -84 43 -65 150zM170 0h-51l341 766h51zM50 422l35 199c19 109 44 150 118 150c72 0 84 -39 64 -150l-35 -199c-20 -111 -45 -150 -117 -150
c-74 0 -84 41 -65 150zM481 118l44 247c10 56 5 76 -23 76s-39 -20 -49 -76l-44 -247c-10 -56 -5 -76 23 -76s39 20 49 76zM173 398l43 247c10 56 6 76 -22 76s-40 -20 -50 -76l-43 -247c-10 -56 -6 -76 22 -76s40 20 50 76zM586 142l35 199c19 109 44 150 118 150
c70 0 84 -37 64 -150l-35 -199c-20 -111 -45 -150 -117 -150c-76 0 -84 43 -65 150zM708 118l44 247c10 56 5 76 -23 76s-39 -20 -49 -76l-44 -247c-10 -56 -5 -76 23 -76s39 20 49 76z" />
    <glyph glyph-name="onequarter" unicode="&#xbc;" horiz-adv-x="426" 
d="M152 414h-52l53 298l-67 -29l8 47l80 37h41zM324 0h-47l18 97h-87l6 39l101 217h72l-39 -217h33l-6 -39h-33zM301 136l32 177l-75 -177h43zM84 0h-51l341 766h51z" />
    <glyph glyph-name="onethird" unicode="&#x2153;" horiz-adv-x="461" 
d="M152 414h-52l53 298l-67 -29l8 47l80 37h41zM344 67l12 65c5 28 -26 31 -33 31c-5 0 -6 -1 -10 -1l7 39c3 -1 6 -1 9 -1c13 0 39 4 44 30l10 54c4 23 -4 35 -19 35c-13 0 -27 -8 -32 -35l-8 -41h-51l8 46c9 50 45 69 90 69c44 0 73 -18 64 -69l-8 -47
c-5 -31 -16 -50 -49 -58c30 -11 33 -32 28 -63l-11 -59c-9 -51 -45 -69 -89 -69c-50 0 -73 24 -65 69l8 44h51l-7 -39c-4 -23 5 -35 20 -35c11 0 26 6 31 35zM84 0h-51l341 766h51z" />
    <glyph glyph-name="onehalf" unicode="&#xbd;" horiz-adv-x="456" 
d="M152 414h-52l53 298l-67 -29l8 47l80 37h41zM376 0h-146l10 53c14 77 123 128 137 201l6 30c4 23 -5 35 -20 35c-12 0 -27 -7 -32 -35l-8 -43h-50l9 49c9 50 45 69 88 69c47 0 75 -23 66 -69l-8 -41c-13 -74 -126 -133 -139 -207h95zM84 0h-51l341 766h51z" />
    <glyph glyph-name="twothirds" unicode="&#x2154;" horiz-adv-x="486" 
d="M187 414h-146l10 53c14 77 123 128 137 201l6 30c4 23 -5 35 -20 35c-12 0 -27 -7 -32 -35l-8 -43h-50l9 49c9 50 45 69 88 69c47 0 75 -23 66 -69l-8 -41c-13 -74 -126 -133 -139 -207h95zM375 67l12 65c5 28 -26 31 -33 31c-5 0 -6 -1 -10 -1l7 39c3 -1 6 -1 9 -1
c13 0 39 4 44 30l10 54c4 23 -4 35 -19 35c-13 0 -27 -8 -32 -35l-8 -41h-51l8 46c9 50 45 69 90 69c44 0 73 -18 64 -69l-8 -47c-5 -31 -16 -50 -49 -58c30 -11 33 -32 28 -63l-11 -59c-9 -51 -45 -69 -89 -69c-50 0 -73 24 -65 69l8 44h51l-7 -39c-4 -23 5 -35 20 -35
c11 0 26 6 31 35zM115 0h-51l341 766h51z" />
    <glyph glyph-name="threequarters" unicode="&#xbe;" horiz-adv-x="449" 
d="M159 481l12 65c5 28 -26 31 -33 31c-5 0 -6 -1 -10 -1l7 39c3 -1 6 -1 9 -1c13 0 39 4 44 30l10 54c4 23 -4 35 -19 35c-13 0 -27 -8 -32 -35l-8 -41h-51l8 46c9 50 45 69 90 69c44 0 73 -18 64 -69l-8 -47c-5 -31 -16 -50 -49 -58c30 -11 33 -32 28 -63l-11 -59
c-9 -51 -45 -69 -89 -69c-50 0 -73 24 -65 69l8 44h51l-7 -39c-4 -23 5 -35 20 -35c11 0 26 6 31 35zM348 0h-47l18 97h-87l6 39l101 217h72l-39 -217h33l-6 -39h-33zM325 136l32 177l-75 -177h43zM109 0h-51l341 766h51z" />
    <glyph glyph-name="slash" unicode="/" horiz-adv-x="281" 
d="M21 0h-57l331 766h57z" />
    <glyph glyph-name="backslash" unicode="\" horiz-adv-x="281" 
d="M217 0h-57l-61 766h57z" />
    <glyph glyph-name="bar" unicode="|" horiz-adv-x="150" 
d="M17 -220h-62l176 1000h62z" />
    <glyph glyph-name="brokenbar" unicode="&#xa6;" horiz-adv-x="152" 
d="M122 372h-62l72 408h62zM18 -220h-62l71 407h62z" />
    <glyph glyph-name="at" unicode="@" horiz-adv-x="671" 
d="M392 -126l5 -52c-59 -32 -105 -49 -169 -49c-184 0 -274 139 -231 384c44 249 210 517 443 517c185 0 242 -170 211 -348c-28 -161 -133 -347 -272 -347c-52 0 -73 26 -69 77c-28 -39 -74 -64 -110 -64c-33 0 -42 20 -35 60c3 17 12 50 28 90l66 170
c42 108 63 153 115 153c36 0 46 -21 57 -49l15 40h60c-136 -349 -146 -377 -149 -388c-5 -21 -2 -48 34 -48c95 0 181 185 203 311c27 155 -25 287 -166 287c-193 0 -337 -245 -376 -465c-38 -216 41 -324 186 -324c56 0 103 16 154 45zM326 331l-81 -208
c-3 -8 -12 -33 -14 -45c-4 -22 5 -31 19 -31c22 0 45 20 67 76c87 222 94 245 96 253c5 20 -3 31 -23 31c-27 0 -42 -20 -64 -76z" />
    <glyph glyph-name="ordfeminine" unicode="&#xaa;" horiz-adv-x="232" 
d="M224 364h-46l-2 46c-14 -22 -37 -54 -80 -54c-50 0 -58 43 -44 121c12 66 33 123 90 123c31 0 46 -17 55 -47l14 82c9 53 8 76 -22 76c-28 0 -40 -20 -49 -75h-60c15 88 43 130 120 130c68 0 89 -33 71 -136zM191 227h-170l9 56h170zM132 410c20 0 43 16 52 72
c5 31 3 60 -27 60c-24 0 -37 -19 -45 -65c-8 -45 -3 -67 20 -67z" />
    <glyph glyph-name="ordmasculine" unicode="&#xba;" horiz-adv-x="231" 
d="M192 227h-170l9 56h170zM275 648l-31 -174c-17 -95 -63 -118 -117 -118s-92 23 -75 118l31 174c17 96 63 118 117 118s92 -22 75 -118zM183 467l33 188c7 39 -3 56 -26 56s-39 -17 -46 -56l-33 -188c-7 -39 3 -56 26 -56s39 17 46 56z" />
    <glyph glyph-name="florin" unicode="&#x192;" horiz-adv-x="399" 
d="M-13 -4l18 50c7 -2 14 -3 21 -3c42 0 56 33 74 79l99 253h-68l21 54h68l72 187c41 105 89 150 146 150c12 0 25 -2 37 -5l-19 -50c-8 2 -15 3 -22 3c-39 0 -56 -30 -75 -79l-79 -206h65l-21 -54h-65l-92 -234c-45 -115 -93 -150 -144 -150c-12 0 -26 2 -36 5z" />
    <glyph glyph-name="currency" unicode="&#xa4;" horiz-adv-x="424" 
d="M374 183l-53 -33l-33 61c-28 -14 -59 -20 -94 -20s-63 6 -85 19l-53 -60l-41 33l57 64c-20 37 -22 71 -12 134l1 7c7 49 31 105 58 133l-33 64l52 34l32 -60c27 13 57 19 91 19c37 0 66 -7 89 -21l55 62l40 -34l-59 -66c19 -37 20 -70 11 -131l-1 -7
c-7 -48 -31 -104 -58 -132zM329 354l11 61c9 53 -17 106 -88 106c-70 0 -114 -51 -124 -106l-11 -61c-9 -53 16 -106 87 -106c72 0 116 54 125 106z" />
    <glyph glyph-name="asciicircum" unicode="^" horiz-adv-x="422" 
d="M383 429h-63l-40 257l-130 -257h-62l175 337h66z" />
    <glyph glyph-name="asciitilde" unicode="~" horiz-adv-x="422" 
d="M398 600l39 -32c-35 -47 -79 -71 -115 -71c-48 0 -92 43 -146 43c-25 0 -47 -10 -67 -39l-35 34c30 40 65 66 114 66c61 0 98 -40 147 -40c25 0 44 11 63 39z" />
    <glyph glyph-name="asterisk" unicode="*" horiz-adv-x="269" 
d="M266 554l-47 -24l-27 79l-55 -80l-38 25l66 78l-87 -5l9 49l82 -5l-38 77l47 25l28 -84l56 83l38 -24l-64 -78l84 5l-9 -48l-83 5z" />
    <glyph glyph-name="degree" unicode="&#xb0;" horiz-adv-x="232" 
d="M231 632c5 30 -15 54 -45 54s-58 -24 -63 -54s14 -54 44 -54s59 24 64 54zM160 536c-54 0 -89 42 -79 96c9 53 58 96 113 96c57 0 88 -46 79 -96c-10 -55 -60 -96 -113 -96z" />
    <glyph glyph-name="section" unicode="&#xa7;" horiz-adv-x="332" 
d="M69 187l-11 -67c-8 -48 -11 -73 24 -73c32 0 48 21 57 71c29 167 -121 119 -85 324c16 91 50 125 99 131c0 17 2 42 6 65c19 114 69 133 124 133c68 0 97 -28 79 -130l-13 -72h-60l12 71c9 54 10 76 -26 76c-30 0 -45 -15 -55 -70c-33 -184 120 -121 84 -330
c-15 -88 -47 -123 -98 -131c0 -17 -1 -37 -5 -60c-17 -99 -57 -133 -129 -133c-80 0 -88 41 -72 140l9 55h60zM160 519c-24 -3 -36 -21 -44 -69c-23 -140 53 -136 81 -211c25 5 38 26 46 70c22 124 -57 129 -83 210z" />
    <glyph glyph-name="logicalnot" unicode="&#xac;" horiz-adv-x="422" 
d="M356 192h-56l26 144h-286l9 54h342z" />
    <glyph glyph-name="Delta" unicode="&#x2206;" horiz-adv-x="315" 
d="M246 0h-277l238 767h70zM185 62l37 595l-172 -595h135z" />
    <glyph glyph-name="Omega" unicode="&#x2126;" horiz-adv-x="334" 
d="M243 0h-111l13 74c25 6 46 30 54 74l87 498c10 56 -13 76 -42 76s-60 -21 -70 -76l-87 -498c-8 -44 5 -68 28 -74l-13 -74h-111l10 62l70 -6c-38 19 -51 66 -37 148l74 415c23 131 79 160 145 160c67 0 114 -30 91 -160l-74 -415c-15 -85 -43 -129 -89 -148l72 6z" />
    <glyph glyph-name="summation" unicode="&#x2211;" horiz-adv-x="289" 
d="M204 -100h-247l11 62l195 382l-68 360l11 62h236l-11 -62h-169l68 -360l-195 -382h180z" />
    <glyph glyph-name="product" unicode="&#x220f;" horiz-adv-x="350" 
d="M225 -100h-62l142 804h-112l-142 -804h-62l153 866h236z" />
    <glyph glyph-name="mu" unicode="&#xb5;" horiz-adv-x="296" 
d="M25 -199h-60l135 766h60l-81 -461c-7 -41 0 -60 22 -60s43 19 55 86l76 435h60l-99 -567h-47l-1 46c-12 -18 -36 -51 -63 -51c-7 0 -14 2 -21 7z" />
    <glyph glyph-name="acute" unicode="&#xb4;" horiz-adv-x="98" 
d="M116 642h-53l62 101h71z" />
    <glyph glyph-name="breve" unicode="&#x2d8;" horiz-adv-x="223" 
d="M242 725h39c-10 -58 -59 -88 -107 -88s-88 30 -78 88h40c-5 -31 13 -47 45 -47c31 0 56 16 61 47z" />
    <glyph glyph-name="caron" unicode="&#x2c7;" horiz-adv-x="222" 
d="M209 642h-70l-39 101h56l25 -62l50 62h53z" />
    <glyph glyph-name="cedilla" unicode="&#xb8;" horiz-adv-x="184" 
d="M-53 -159l16 39c6 -4 19 -9 33 -9c23 0 40 14 43 31c3 15 -7 31 -34 31c-3 0 -6 0 -10 -1l29 68h41l-19 -46c29 0 50 -25 45 -56c-6 -34 -44 -68 -92 -68c-17 0 -37 4 -52 11z" />
    <glyph glyph-name="circumflex" unicode="&#x2c6;" horiz-adv-x="222" 
d="M266 642h-53l-28 62l-47 -62h-56l75 101h70z" />
    <glyph glyph-name="commaaccent" unicode="&#xf6c3;" horiz-adv-x="163" 
d="M5 -156h-46l55 106h66z" />
    <glyph glyph-name="dieresis" unicode="&#xa8;" horiz-adv-x="255" 
d="M121 632c-25 0 -38 20 -34 43c4 24 26 43 50 43s40 -19 36 -43c-4 -23 -27 -43 -52 -43zM252 632c-25 0 -38 20 -34 43c4 24 26 43 50 43s40 -19 36 -43c-4 -23 -27 -43 -52 -43z" />
    <glyph glyph-name="dotaccent" unicode="&#x2d9;" horiz-adv-x="124" 
d="M121 632c-25 0 -38 20 -34 43c4 24 26 43 50 43s40 -19 36 -43c-4 -23 -27 -43 -52 -43z" />
    <glyph glyph-name="grave" unicode="`" horiz-adv-x="98" 
d="M143 743l26 -101h-53l-44 101h71z" />
    <glyph glyph-name="macron" unicode="&#xaf;" horiz-adv-x="240" 
d="M284 642h-202l9 50h202z" />
    <glyph glyph-name="ogonek" unicode="&#x2db;" horiz-adv-x="264" 
d="M175 -141l-27 -31c-63 8 -81 47 -74 87c6 34 29 64 78 85h42c-33 -20 -65 -48 -71 -82c-6 -36 21 -51 52 -59z" />
    <glyph glyph-name="ring" unicode="&#x2da;" horiz-adv-x="166" 
d="M189 683c3 20 -10 36 -30 36c-22 0 -39 -18 -42 -36c-4 -20 10 -36 30 -36c18 0 38 14 42 36zM142 619c-36 0 -59 28 -53 64s39 64 75 64s59 -28 53 -64s-39 -64 -75 -64z" />
    <glyph glyph-name="tilde" unicode="&#x2dc;" horiz-adv-x="234" 
d="M231 704h58c-13 -39 -43 -63 -74 -63c-26 0 -38 17 -57 17c-12 0 -17 -7 -20 -16h-56c3 11 23 63 71 63c26 0 45 -15 60 -15c14 0 18 14 18 14z" />
    <glyph glyph-name="hungarumlaut" unicode="&#x2dd;" horiz-adv-x="200" 
d="M116 642h-53l62 101h71zM218 642h-53l62 101h71z" />
    <glyph glyph-name="paragraph" unicode="&#xb6;" horiz-adv-x="400" 
d="M278 -87h-62l140 794h-49l-140 -795h-62l59 334h-12c-97 0 -132 25 -108 160l35 200c24 135 68 160 165 160h185z" />
    <glyph glyph-name="Alpha" unicode="&#x391;" horiz-adv-x="288" 
d="M233 0h-62l11 190h-109l-55 -190h-62l238 767h70zM184 247l25 410l-118 -410h93z" />
    <glyph glyph-name="Beta" unicode="&#x392;" horiz-adv-x="307" 
d="M94 0h-105l135 766h104c92 0 122 -34 99 -158l-18 -98c-9 -49 -30 -101 -93 -116c56 -12 71 -66 61 -123l-19 -111c-24 -133 -67 -160 -164 -160zM245 499l24 131c10 55 -6 74 -43 74h-51l-50 -281h51c40 0 59 20 69 76zM192 138l26 147c10 56 -15 76 -53 76h-51
l-53 -299h61c38 0 60 20 70 76z" />
    <glyph glyph-name="Gamma" unicode="&#x393;" horiz-adv-x="250" 
d="M51 0h-62l135 766h204l-11 -62h-142z" />
    <glyph glyph-name="uni0394" unicode="&#x394;" horiz-adv-x="288" 
d="M233 0h-277l238 767h70zM172 62l37 595l-172 -595h135z" />
    <glyph glyph-name="Epsilon" unicode="&#x395;" horiz-adv-x="267" 
d="M193 0h-204l135 766h204l-11 -62h-142l-51 -287h135l-11 -62h-135l-52 -293h142z" />
    <glyph glyph-name="Zeta" unicode="&#x396;" horiz-adv-x="263" 
d="M199 0h-236l10 62l275 642h-152l11 62h227l-4 -18l-293 -686h172z" />
    <glyph glyph-name="Eta" unicode="&#x397;" horiz-adv-x="314" 
d="M225 0h-62l63 360h-112l-63 -360h-62l135 766h62l-61 -344h112l61 344h62z" />
    <glyph glyph-name="Theta" unicode="&#x398;" horiz-adv-x="308" 
d="M11 147l84 472c23 131 79 160 145 160c71 0 113 -34 91 -160l-84 -472c-23 -131 -79 -160 -145 -160c-71 0 -113 34 -91 160zM181 120l92 526c10 56 -13 76 -42 76s-60 -21 -70 -76l-92 -526c-10 -56 13 -76 42 -76s60 21 70 76zM203 355h-73l11 62h73z" />
    <glyph glyph-name="Iota" unicode="&#x399;" horiz-adv-x="140" 
d="M51 0h-62l135 766h62z" />
    <glyph glyph-name="Kappa" unicode="&#x39a;" horiz-adv-x="297" 
d="M255 0h-62l-74 383l190 383h62l-183 -380zM51 0h-62l135 766h62z" />
    <glyph glyph-name="Lambda" unicode="&#x39b;" horiz-adv-x="288" 
d="M233 0h-63l39 657l-190 -657h-63l238 767h70z" />
    <glyph glyph-name="Mu" unicode="&#x39c;" horiz-adv-x="438" 
d="M349 0h-62l114 625l-218 -625h-40l14 629l-106 -629h-62l135 766h95l-12 -550l182 550h95z" />
    <glyph glyph-name="Nu" unicode="&#x39d;" horiz-adv-x="336" 
d="M247 0h-64l-40 536l-92 -536h-62l135 766h59l43 -544l94 544h62z" />
    <glyph glyph-name="Xi" unicode="&#x39e;" horiz-adv-x="266" 
d="M196 0h-226l10 62h226zM320 704h-226l11 62h226zM239 360h-186l11 62h186z" />
    <glyph glyph-name="Omicron" unicode="&#x39f;" horiz-adv-x="308" 
d="M11 147l84 472c23 131 79 160 145 160c71 0 113 -34 91 -160l-84 -472c-23 -131 -79 -160 -145 -160c-71 0 -113 34 -91 160zM181 120l92 526c10 56 -13 76 -42 76s-60 -21 -70 -76l-92 -526c-10 -56 13 -76 42 -76s60 21 70 76z" />
    <glyph glyph-name="Pi" unicode="&#x3a0;" horiz-adv-x="314" 
d="M225 0h-62l124 704h-112l-124 -704h-62l135 766h236z" />
    <glyph glyph-name="Rho" unicode="&#x3a1;" horiz-adv-x="292" 
d="M51 0h-62l135 766h95c95 0 131 -22 107 -160l-20 -118c-24 -135 -68 -160 -165 -160h-33zM240 466l28 162c10 56 -4 76 -42 76h-51l-56 -314h51c38 0 60 20 70 76z" />
    <glyph glyph-name="Sigma" unicode="&#x3a3;" horiz-adv-x="272" 
d="M213 0h-247l10 62l177 332l-67 310l11 62h236l-11 -62h-169l67 -310l-177 -332h180z" />
    <glyph glyph-name="Tau" unicode="&#x3a4;" horiz-adv-x="268" 
d="M115 0h-62l124 704h-95l11 62h252l-11 -62h-95z" />
    <glyph glyph-name="Upsilon" unicode="&#x3a5;" horiz-adv-x="296" 
d="M128 0h-60l50 286l-24 480h63l10 -372l142 372h63l-194 -480z" />
    <glyph glyph-name="Phi" unicode="&#x3a6;" horiz-adv-x="366" 
d="M163 -1h-62l11 60c-85 11 -114 72 -94 188l48 272c20 115 70 177 160 188l11 60h62l-11 -60c84 -11 114 -72 94 -188l-48 -272c-20 -115 -71 -177 -160 -188zM122 118l94 530c-51 -13 -75 -57 -83 -102l-58 -326c-8 -45 2 -89 47 -102zM267 220l58 326
c8 45 -3 89 -47 102l-94 -530c50 13 75 57 83 102z" />
    <glyph glyph-name="Chi" unicode="&#x3a7;" horiz-adv-x="299" 
d="M248 0h-62l-30 307l-148 -307h-62l198 394l-57 372h63l37 -281l131 281h63l-175 -373z" />
    <glyph glyph-name="Psi" unicode="&#x3a8;" horiz-adv-x="374" 
d="M167 -1h-62l30 170c-86 6 -115 67 -94 183l73 414h62l-78 -441c-8 -45 0 -94 48 -97l95 538h62l-95 -538c47 3 74 52 82 97l78 441h62l-73 -414c-21 -116 -72 -176 -160 -183z" />
    <glyph glyph-name="uni03A9" unicode="&#x3a9;" horiz-adv-x="310" 
d="M231 0h-111l13 74c25 6 46 30 54 74l87 498c10 56 -13 76 -42 76s-60 -21 -70 -76l-87 -498c-8 -44 5 -68 28 -74l-13 -74h-111l10 62l70 -6c-38 19 -51 66 -37 148l74 415c23 131 79 160 145 160c67 0 114 -30 91 -160l-74 -415c-15 -85 -43 -129 -89 -148l72 6z" />
    <glyph glyph-name="alpha" unicode="&#x3b1;" horiz-adv-x="256" 
d="M171 0h-47l-1 46c-14 -22 -37 -54 -80 -54c-52 0 -57 46 -39 150l49 283c18 102 41 150 93 150c43 0 54 -32 60 -54l17 46h47zM134 132l53 303c12 67 -3 86 -25 86c-24 0 -36 -24 -45 -75l-57 -325c-9 -51 -5 -75 19 -75c22 0 43 19 55 86z" />
    <glyph glyph-name="beta" unicode="&#x3b2;" horiz-adv-x="263" 
d="M7 -199h-59l150 853c17 96 63 118 117 118s92 -22 75 -118l-13 -73c-12 -67 -23 -113 -85 -131c57 -13 61 -64 49 -131l-34 -194c-18 -98 -43 -133 -93 -133c-44 0 -59 27 -65 45zM146 121l43 244c8 44 -13 59 -47 59l9 48c27 0 50 18 57 60l23 129c7 39 -3 56 -26 56
s-39 -17 -46 -56l-93 -529c-12 -65 3 -86 32 -86c22 0 37 12 48 75z" />
    <glyph glyph-name="gamma" unicode="&#x3b3;" horiz-adv-x="231" 
d="M60 -198h-60l37 199l18 566h64l-33 -447l124 447h64l-181 -567z" />
    <glyph glyph-name="delta" unicode="&#x3b4;" horiz-adv-x="246" 
d="M-2 110l51 287c11 63 33 92 62 107c-14 26 -23 59 -14 114c20 117 94 155 155 155c10 0 20 -1 41 -6l-24 -55c-14 5 -22 6 -28 6c-34 0 -70 -24 -82 -92c-23 -132 104 -98 68 -303l-37 -213c-17 -95 -63 -118 -117 -118s-92 23 -75 118zM129 103l39 224
c12 68 -7 102 -26 131c-16 -6 -27 -23 -32 -54l-53 -301c-7 -39 3 -56 26 -56s39 17 46 56z" />
    <glyph glyph-name="epsilon" unicode="&#x3b5;" horiz-adv-x="239" 
d="M195 162l-9 -52c-17 -99 -68 -118 -117 -118c-56 0 -91 24 -75 118l8 47c11 65 22 109 95 131c-62 16 -62 62 -49 131l7 38c17 91 57 118 117 118c54 0 92 -22 75 -118l-5 -28h-60l6 35c7 39 -3 56 -26 56s-39 -17 -46 -56l-14 -83c-10 -60 41 -66 54 -66c7 0 18 0 34 1
l-10 -56c-15 1 -25 1 -34 1c-18 0 -67 -10 -77 -66l-16 -92c-7 -39 3 -56 26 -56s39 17 46 56l10 59h60z" />
    <glyph glyph-name="zeta" unicode="&#x3b6;" horiz-adv-x="235" 
d="M98 -125l-38 29c32 42 36 53 38 63c4 20 -5 25 -29 37c-55 28 -93 53 -76 149c17 98 82 220 214 359h-137l9 55h203l-10 -59c-137 -142 -201 -260 -217 -351c-12 -68 9 -80 64 -105c17 -8 50 -25 43 -67c-6 -34 -37 -77 -64 -110z" />
    <glyph glyph-name="eta" unicode="&#x3b7;" 
d="M176 0h-60l78 446c9 51 5 75 -19 75c-22 0 -43 -19 -55 -86l-76 -435h-60l99 567h47l1 -46c14 22 37 54 80 54c50 0 58 -43 39 -150z" />
    <glyph glyph-name="theta" unicode="&#x3b8;" horiz-adv-x="256" 
d="M1 110l96 543c17 96 62 118 116 118s93 -22 76 -118l-96 -543c-17 -95 -63 -118 -117 -118s-92 23 -75 118zM132 103l44 251h-72l-44 -251c-7 -39 3 -56 26 -56s39 17 46 56zM186 409l44 251c7 39 -3 56 -26 56s-39 -17 -46 -56l-44 -251h72z" />
    <glyph glyph-name="iota" unicode="&#x3b9;" horiz-adv-x="155" 
d="M115 47l-9 -50c-14 -3 -27 -5 -43 -5c-71 0 -76 42 -57 150l74 425h60l-79 -453c-9 -50 -6 -68 31 -68c5 0 14 0 23 1z" />
    <glyph glyph-name="kappa" unicode="&#x3ba;" horiz-adv-x="260" 
d="M208 0h-61l-51 290l150 277h62l-146 -274zM44 0h-60l99 567h60z" />
    <glyph glyph-name="lambda" unicode="&#x3bb;" horiz-adv-x="318" 
d="M277 49l-7 -50c-17 -6 -25 -7 -33 -7c-45 1 -51 45 -54 106l-15 262l-158 -360h-67l219 467l-9 180c-3 48 -3 68 -27 68c-5 0 -17 -1 -23 -4l3 55c14 4 34 7 49 7c42 0 54 -23 58 -104l30 -550c2 -32 4 -72 26 -72c2 0 4 0 8 2z" />
    <glyph glyph-name="uni03BC" unicode="&#x3bc;" horiz-adv-x="260" 
d="M8 -199h-59l134 766h60l-81 -461c-7 -41 0 -60 22 -60s43 19 55 86l76 435h60l-99 -567h-47l-1 46c-12 -18 -36 -51 -63 -51c-7 0 -14 2 -21 7z" />
    <glyph glyph-name="nu" unicode="&#x3bd;" horiz-adv-x="236" 
d="M101 0h-66l22 567h64l-39 -477l130 477h64z" />
    <glyph glyph-name="xi" unicode="&#x3be;" horiz-adv-x="221" 
d="M102 -125l-40 27c33 42 38 55 40 65c3 16 -6 21 -29 35c-78 46 -87 53 -71 144l25 143c12 69 24 109 96 131c-66 18 -61 64 -49 131l18 103c17 96 63 118 117 118s92 -22 75 -118l-5 -28h-60l6 35c7 39 -3 56 -26 56s-39 -17 -46 -56l-26 -148c-10 -56 36 -66 54 -66
c7 0 18 0 34 1l-9 -56c-16 1 -26 1 -35 1c-18 0 -67 -10 -77 -66l-29 -168c-12 -69 -9 -69 58 -107c26 -15 55 -32 49 -68c-5 -29 -35 -73 -70 -109z" />
    <glyph glyph-name="omicron" unicode="&#x3bf;" horiz-adv-x="254" 
d="M0 110l61 347c17 96 63 118 117 118s92 -22 75 -118l-61 -347c-17 -95 -63 -118 -117 -118s-92 23 -75 118zM131 103l63 361c7 39 -3 56 -26 56s-39 -17 -46 -56l-63 -361c-7 -39 3 -56 26 -56s39 17 46 56z" />
    <glyph glyph-name="pi" unicode="&#x3c0;" horiz-adv-x="260" 
d="M176 0h-60l90 512h-72l-90 -512h-60l99 567h192z" />
    <glyph glyph-name="rho" unicode="&#x3c1;" horiz-adv-x="255" 
d="M6 -199h-59l115 656c17 96 63 118 117 118s92 -22 75 -118l-55 -315c-19 -107 -43 -150 -93 -150c-37 0 -51 24 -58 45zM135 121l60 343c7 39 -3 56 -26 56s-39 -17 -46 -56l-58 -332c-12 -67 3 -86 25 -86c24 0 36 24 45 75z" />
    <glyph glyph-name="sigma1" unicode="&#x3c2;" horiz-adv-x="242" 
d="M105 -125l-40 27c33 42 38 55 40 65c3 16 -6 21 -29 35c-78 46 -87 53 -71 144l55 311c17 96 63 118 117 118s92 -22 75 -118l-17 -98h-60l18 105c7 39 -3 56 -26 56s-39 -17 -46 -56l-53 -305c-13 -70 -7 -70 58 -107c26 -15 55 -32 49 -68c-5 -29 -35 -73 -70 -109z
" />
    <glyph glyph-name="sigma" unicode="&#x3c3;" horiz-adv-x="265" 
d="M-1 110l60 339c17 96 62 118 116 118h131l-9 -55l-55 4c13 -18 14 -39 9 -65l-60 -341c-17 -95 -63 -118 -117 -118s-92 23 -75 118zM130 103l62 353c7 39 -3 56 -26 56s-39 -17 -46 -56l-62 -353c-7 -39 3 -56 26 -56s39 17 46 56z" />
    <glyph glyph-name="tau" unicode="&#x3c4;" horiz-adv-x="248" 
d="M174 47l-9 -50c-14 -3 -27 -5 -43 -5c-75 0 -75 46 -57 150l65 370h-91l9 55h243l-9 -55h-92l-70 -398c-9 -50 -6 -68 31 -68c5 0 14 0 23 1z" />
    <glyph glyph-name="upsilon" unicode="&#x3c5;" horiz-adv-x="256" 
d="M132 103l81 464h60l-80 -457c-17 -95 -63 -118 -117 -118s-92 23 -75 118l80 457h60l-81 -464c-7 -39 3 -56 26 -56s39 17 46 56z" />
    <glyph glyph-name="phi" unicode="&#x3c6;" horiz-adv-x="349" 
d="M120 -198h-58l33 192c-82 10 -106 61 -91 146l51 287c9 51 27 90 58 116l37 -42c-20 -17 -30 -44 -34 -67l-53 -301c-6 -33 -4 -75 42 -82l93 522h39c92 0 127 -48 109 -148l-50 -285c-15 -85 -58 -136 -143 -146zM235 133l53 299c7 40 1 76 -43 82l-82 -463
c50 7 66 50 72 82z" />
    <glyph glyph-name="chi" unicode="&#x3c7;" horiz-adv-x="241" 
d="M187 0h-59l-25 209l-89 -209h-58l135 290l-35 277h59l22 -192l86 192h61l-136 -278z" />
    <glyph glyph-name="psi" unicode="&#x3c8;" horiz-adv-x="354" 
d="M121 -198h-58l33 192c-82 10 -106 61 -91 146l75 427h60l-76 -434c-6 -32 -4 -75 42 -82l91 516h58l-91 -516c50 7 66 50 72 82l76 434h60l-75 -427c-15 -85 -58 -136 -143 -146z" />
    <glyph glyph-name="omega" unicode="&#x3c9;" horiz-adv-x="386" 
d="M263 103l63 361c7 39 -2 55 -25 56l10 55c54 -1 91 -23 74 -118l-61 -347c-17 -95 -63 -118 -116 -118c-27 0 -49 6 -60 41c-23 -35 -47 -41 -74 -41c-53 0 -91 23 -74 118l61 347c17 95 62 117 116 118l-10 -55c-23 -1 -38 -18 -45 -56l-63 -361c-7 -39 3 -56 26 -56
s39 17 46 56l55 314h60l-55 -314c-7 -39 3 -56 26 -56s39 17 46 56z" />
    <glyph glyph-name="Alphatonos" unicode="&#x386;" horiz-adv-x="337" 
d="M282 0h-62l11 190h-109l-55 -190h-62l238 767h70zM233 247l25 410l-118 -410h93zM118 665h-53l62 101h71z" />
    <glyph glyph-name="Epsilontonos" unicode="&#x388;" horiz-adv-x="364" 
d="M289 0h-204l135 766h204l-11 -62h-142l-51 -287h135l-11 -62h-135l-52 -293h142zM110 665h-53l62 101h71z" />
    <glyph glyph-name="Etatonos" unicode="&#x389;" horiz-adv-x="411" 
d="M321 0h-62l63 360h-112l-63 -360h-62l135 766h62l-61 -344h112l61 344h62zM110 665h-53l62 101h71z" />
    <glyph glyph-name="Iotatonos" unicode="&#x38a;" horiz-adv-x="237" 
d="M147 0h-62l135 766h62zM110 665h-53l62 101h71z" />
    <glyph glyph-name="Iotadieresis" unicode="&#x3aa;" horiz-adv-x="140" 
d="M51 0h-62l135 766h62zM101 831c-25 0 -38 20 -34 43c4 24 26 43 50 43s40 -19 36 -43c-4 -23 -27 -43 -52 -43zM232 831c-25 0 -38 20 -34 43c4 24 26 43 50 43s40 -19 36 -43c-4 -23 -27 -43 -52 -43z" />
    <glyph glyph-name="Omicrontonos" unicode="&#x38c;" horiz-adv-x="375" 
d="M78 147l84 472c23 131 79 160 145 160c71 0 113 -34 91 -160l-84 -472c-23 -131 -79 -160 -145 -160c-71 0 -113 34 -91 160zM248 120l92 526c10 56 -13 76 -42 76s-60 -21 -70 -76l-92 -526c-10 -56 13 -76 42 -76s60 21 70 76zM113 665h-53l62 101h71z" />
    <glyph glyph-name="Upsilontonos" unicode="&#x38e;" horiz-adv-x="435" 
d="M267 0h-60l50 286l-24 480h63l10 -372l142 372h63l-194 -480zM134 665h-53l62 101h71z" />
    <glyph glyph-name="Upsilondieresis" unicode="&#x3ab;" horiz-adv-x="296" 
d="M128 0h-60l50 286l-24 480h63l10 -372l142 372h63l-194 -480zM177 831c-25 0 -38 20 -34 43c4 24 26 43 50 43s40 -19 36 -43c-4 -23 -27 -43 -52 -43zM308 831c-25 0 -38 20 -34 43c4 24 26 43 50 43s40 -19 36 -43c-4 -23 -27 -43 -52 -43z" />
    <glyph glyph-name="Omegatonos" unicode="&#x38f;" horiz-adv-x="376" 
d="M298 0h-111l13 74c25 6 46 30 54 74l87 498c10 56 -13 76 -42 76s-60 -21 -70 -76l-87 -498c-8 -44 5 -68 28 -74l-13 -74h-111l10 62l70 -6c-38 19 -51 66 -37 148l74 415c23 131 79 160 145 160c67 0 114 -30 91 -160l-74 -415c-15 -85 -43 -129 -89 -148l72 6z
M114 665h-53l62 101h71z" />
    <glyph glyph-name="alphatonos" unicode="&#x3ac;" horiz-adv-x="256" 
d="M171 0h-47l-1 46c-14 -22 -37 -54 -80 -54c-52 0 -57 46 -39 150l49 283c18 102 41 150 93 150c43 0 54 -32 60 -54l17 46h47zM134 132l53 303c12 67 -3 86 -25 86c-24 0 -36 -24 -45 -75l-57 -325c-9 -51 -5 -75 19 -75c22 0 43 19 55 86zM204 642h-53l62 101h71z" />
    <glyph glyph-name="epsilontonos" unicode="&#x3ad;" horiz-adv-x="239" 
d="M195 162l-9 -52c-17 -99 -68 -118 -117 -118c-56 0 -91 24 -75 118l8 47c11 65 22 109 95 131c-62 16 -62 62 -49 131l7 38c17 91 57 118 117 118c54 0 92 -22 75 -118l-5 -28h-60l6 35c7 39 -3 56 -26 56s-39 -17 -46 -56l-14 -83c-10 -60 41 -66 54 -66c7 0 18 0 34 1
l-10 -56c-15 1 -25 1 -34 1c-18 0 -67 -10 -77 -66l-16 -92c-7 -39 3 -56 26 -56s39 17 46 56l10 59h60zM202 642h-53l62 101h71z" />
    <glyph glyph-name="etatonos" unicode="&#x3ae;" 
d="M176 0h-60l78 446c9 51 5 75 -19 75c-22 0 -43 -19 -55 -86l-76 -435h-60l99 567h47l1 -46c14 22 37 54 80 54c50 0 58 -43 39 -150zM206 642h-53l62 101h71z" />
    <glyph glyph-name="iotatonos" unicode="&#x3af;" horiz-adv-x="155" 
d="M145 642h-53l62 101h71zM115 47l-9 -50c-14 -3 -27 -5 -43 -5c-71 0 -76 42 -57 150l74 425h60l-79 -453c-9 -50 -6 -68 31 -68c5 0 14 0 23 1z" />
    <glyph glyph-name="iotadieresis" unicode="&#x3ca;" horiz-adv-x="155" 
d="M115 47l-9 -50c-14 -3 -27 -5 -43 -5c-71 0 -76 42 -57 150l74 425h60l-79 -453c-9 -50 -6 -68 31 -68c5 0 14 0 23 1zM56 632c-25 0 -38 20 -34 43c4 24 26 43 50 43s40 -19 36 -43c-4 -23 -27 -43 -52 -43zM187 632c-25 0 -38 20 -34 43c4 24 26 43 50 43
s40 -19 36 -43c-4 -23 -27 -43 -52 -43z" />
    <glyph glyph-name="iotadieresistonos" unicode="&#x390;" horiz-adv-x="155" 
d="M116 47l-9 -50c-14 -3 -27 -5 -43 -5c-71 0 -76 42 -57 150l74 425h60l-79 -453c-9 -50 -6 -68 31 -68c5 0 14 0 23 1zM25 642c-24 0 -40 19 -36 43c4 23 27 43 52 43s38 -20 34 -43c-4 -24 -26 -43 -50 -43zM231 642c-24 0 -40 19 -36 43c4 23 27 43 52 43
s38 -20 34 -43c-4 -24 -26 -43 -50 -43zM124 627h-53l65 120h71z" />
    <glyph glyph-name="omicrontonos" unicode="&#x3cc;" horiz-adv-x="254" 
d="M0 110l61 347c17 96 63 118 117 118s92 -22 75 -118l-61 -347c-17 -95 -63 -118 -117 -118s-92 23 -75 118zM131 103l63 361c7 39 -3 56 -26 56s-39 -17 -46 -56l-63 -361c-7 -39 3 -56 26 -56s39 17 46 56zM205 642h-53l62 101h71z" />
    <glyph glyph-name="upsilontonos" unicode="&#x3cd;" horiz-adv-x="256" 
d="M132 103l81 464h60l-80 -457c-17 -95 -63 -118 -117 -118s-92 23 -75 118l80 457h60l-81 -464c-7 -39 3 -56 26 -56s39 17 46 56zM211 642h-53l62 101h71z" />
    <glyph glyph-name="upsilondieresis" unicode="&#x3cb;" horiz-adv-x="256" 
d="M132 103l81 464h60l-80 -457c-17 -95 -63 -118 -117 -118s-92 23 -75 118l80 457h60l-81 -464c-7 -39 3 -56 26 -56s39 17 46 56zM123 632c-25 0 -38 20 -34 43c4 24 26 43 50 43s40 -19 36 -43c-4 -23 -27 -43 -52 -43zM254 632c-25 0 -38 20 -34 43c4 24 26 43 50 43
s40 -19 36 -43c-4 -23 -27 -43 -52 -43z" />
    <glyph glyph-name="upsilondieresistonos" unicode="&#x3b0;" horiz-adv-x="256" 
d="M132 103l81 464h60l-80 -457c-17 -95 -63 -118 -117 -118s-92 23 -75 118l80 457h60l-81 -464c-7 -39 3 -56 26 -56s39 17 46 56zM88 642c-24 0 -40 19 -36 43c4 23 27 43 52 43s38 -20 34 -43c-4 -24 -26 -43 -50 -43zM294 642c-24 0 -40 19 -36 43c4 23 27 43 52 43
s38 -20 34 -43c-4 -24 -26 -43 -50 -43zM187 627h-53l65 120h71z" />
    <glyph glyph-name="omegatonos" unicode="&#x3ce;" horiz-adv-x="386" 
d="M263 103l63 361c7 39 -2 55 -25 56l10 55c54 -1 91 -23 74 -118l-61 -347c-17 -95 -63 -118 -116 -118c-27 0 -49 6 -60 41c-23 -35 -47 -41 -74 -41c-53 0 -91 23 -74 118l61 347c17 95 62 117 116 118l-10 -55c-23 -1 -38 -18 -45 -56l-63 -361c-7 -39 3 -56 26 -56
s39 17 46 56l55 314h60l-55 -314c-7 -39 3 -56 26 -56s39 17 46 56zM279 642h-53l62 101h71z" />
    <glyph glyph-name="tonos" unicode="&#x384;" horiz-adv-x="98" 
d="M116 642h-53l62 101h71z" />
    <glyph glyph-name="dieresistonos" unicode="&#x385;" horiz-adv-x="330" 
d="M125 642c-24 0 -40 19 -36 43c4 23 27 43 52 43s38 -20 34 -43c-4 -24 -26 -43 -50 -43zM331 642c-24 0 -40 19 -36 43c4 23 27 43 52 43s38 -20 34 -43c-4 -24 -26 -43 -50 -43zM224 627h-53l65 120h71z" />
    <glyph glyph-name="uni2015" unicode="&#x2015;" horiz-adv-x="1064" 
d="M1028 264h-1000l10 56h1000z" />
    <glyph glyph-name="uni0410" unicode="&#x410;" horiz-adv-x="288" 
d="M233 0h-62l11 190h-109l-55 -190h-62l238 767h70zM184 247l25 410l-118 -410h93z" />
    <glyph glyph-name="uni0411" unicode="&#x411;" horiz-adv-x="292" 
d="M84 0h-95l135 766h204l-11 -62h-142l-47 -266h33c99 0 131 -28 108 -160l-21 -118c-24 -135 -67 -160 -164 -160zM182 138l28 162c10 56 -4 76 -42 76h-51l-56 -314h51c38 0 60 20 70 76z" />
    <glyph glyph-name="uni0412" unicode="&#x412;" horiz-adv-x="307" 
d="M94 0h-105l135 766h104c92 0 122 -34 99 -158l-18 -98c-9 -49 -30 -101 -93 -116c56 -12 71 -66 61 -123l-19 -111c-24 -133 -67 -160 -164 -160zM245 499l24 131c10 55 -6 74 -43 74h-51l-50 -281h51c40 0 59 20 69 76zM192 138l26 147c10 56 -15 76 -53 76h-51
l-53 -299h61c38 0 60 20 70 76z" />
    <glyph glyph-name="uni0413" unicode="&#x413;" horiz-adv-x="250" 
d="M51 0h-62l135 766h204l-11 -62h-142z" />
    <glyph glyph-name="uni0414" unicode="&#x414;" horiz-adv-x="373" 
d="M296 -106h-56l19 106h-245l-19 -106h-55l27 158c42 16 70 46 82 105l128 609h226l-125 -704h47zM216 62l114 642h-102l-113 -531c-12 -55 -31 -87 -64 -111h165z" />
    <glyph glyph-name="uni0415" unicode="&#x415;" horiz-adv-x="267" 
d="M193 0h-204l135 766h204l-11 -62h-142l-51 -287h135l-11 -62h-135l-52 -293h142z" />
    <glyph glyph-name="uni0416" unicode="&#x416;" horiz-adv-x="442" 
d="M381 0h-62c17 128 -7 255 -49 383c88 128 155 255 183 383h62c-26 -127 -91 -253 -176 -380c40 -129 61 -257 42 -386zM202 0h-62l135 766h62zM23 0h-62c25 129 92 257 178 386c-41 127 -62 253 -42 380h62c-18 -128 5 -255 47 -383c-88 -128 -156 -255 -183 -383z" />
    <glyph glyph-name="uni0417" unicode="&#x417;" horiz-adv-x="293" 
d="M169 120l32 181c10 59 -42 65 -64 65c-9 0 -39 -1 -55 -2l10 60c16 -2 47 -2 54 -2c28 0 77 9 87 65l29 160c10 59 -18 76 -44 76c-27 0 -58 -19 -68 -76l-18 -99h-62l15 82c20 110 75 150 144 150c73 0 111 -45 92 -150l-19 -105c-12 -67 -25 -113 -97 -131
c65 -22 63 -64 51 -131l-22 -126c-21 -116 -80 -150 -145 -150c-73 0 -109 43 -91 150l13 78h62l-16 -95c-10 -59 16 -76 42 -76c28 0 60 20 70 76z" />
    <glyph glyph-name="uni0418" unicode="&#x418;" horiz-adv-x="336" 
d="M247 0h-62l96 536l-228 -536h-64l135 766h62l-98 -544l235 544h59z" />
    <glyph glyph-name="uni0419" unicode="&#x419;" horiz-adv-x="336" 
d="M247 0h-62l96 536l-228 -536h-64l135 766h62l-98 -544l235 544h59zM329 895h39c-10 -58 -59 -88 -107 -88s-88 30 -78 88h40c-5 -31 13 -47 45 -47c31 0 56 16 61 47z" />
    <glyph glyph-name="uni041A" unicode="&#x41a;" horiz-adv-x="291" 
d="M230 0h-62c17 128 -7 255 -49 383c88 128 155 255 183 383h62c-26 -127 -91 -253 -176 -380c40 -129 61 -257 42 -386zM51 0h-62l135 766h62z" />
    <glyph glyph-name="uni041B" unicode="&#x41b;" horiz-adv-x="340" 
d="M251 0h-62l124 704h-112l-101 -568c-24 -135 -99 -148 -144 -148h-4l10 57h4c28 0 60 20 70 76l114 645h236z" />
    <glyph glyph-name="uni041C" unicode="&#x41c;" horiz-adv-x="438" 
d="M349 0h-62l114 625l-218 -625h-40l14 629l-106 -629h-62l135 766h95l-12 -550l182 550h95z" />
    <glyph glyph-name="uni041D" unicode="&#x41d;" horiz-adv-x="314" 
d="M225 0h-62l63 360h-112l-63 -360h-62l135 766h62l-61 -344h112l61 344h62z" />
    <glyph glyph-name="uni041E" unicode="&#x41e;" horiz-adv-x="308" 
d="M11 147l84 472c23 131 79 160 145 160c71 0 113 -34 91 -160l-84 -472c-23 -131 -79 -160 -145 -160c-71 0 -113 34 -91 160zM181 120l92 526c10 56 -13 76 -42 76c-28 0 -60 -20 -70 -76l-92 -526c-10 -56 13 -76 42 -76c28 0 60 20 70 76z" />
    <glyph glyph-name="uni041F" unicode="&#x41f;" horiz-adv-x="314" 
d="M225 0h-62l124 704h-112l-124 -704h-62l135 766h236z" />
    <glyph glyph-name="uni0420" unicode="&#x420;" horiz-adv-x="292" 
d="M51 0h-62l135 766h95c95 0 131 -22 107 -160l-20 -118c-24 -135 -68 -160 -165 -160h-33zM240 466l28 162c10 56 -4 76 -42 76h-51l-56 -314h51c38 0 60 20 70 76z" />
    <glyph glyph-name="uni0421" unicode="&#x421;" horiz-adv-x="299" 
d="M182 120l24 136h62l-20 -109c-24 -129 -78 -160 -146 -160s-113 31 -90 160l84 472c23 129 78 160 146 160s113 -31 90 -160l-21 -119h-62l25 146c9 53 -11 76 -42 76s-61 -23 -70 -76l-92 -526c-9 -53 11 -76 42 -76s60 23 70 76z" />
    <glyph glyph-name="uni0422" unicode="&#x422;" horiz-adv-x="268" 
d="M115 0h-62l124 704h-95l11 62h252l-11 -62h-95z" />
    <glyph glyph-name="uni0423" unicode="&#x423;" horiz-adv-x="346" 
d="M40 0h-62l148 279l-47 487h63l32 -396l206 396h63z" />
    <glyph glyph-name="uni0424" unicode="&#x424;" horiz-adv-x="366" 
d="M163 -1h-62l11 60c-85 11 -114 72 -94 188l48 272c20 115 70 177 160 188l11 60h62l-11 -60c84 -11 114 -72 94 -188l-48 -272c-20 -115 -71 -177 -160 -188zM122 118l94 530c-51 -13 -75 -57 -83 -102l-58 -326c-8 -45 2 -89 47 -102zM267 220l58 326
c8 45 -3 89 -47 102l-94 -530c50 13 75 57 83 102z" />
    <glyph glyph-name="uni0425" unicode="&#x425;" horiz-adv-x="299" 
d="M248 0h-62l-30 307l-148 -307h-62l198 394l-57 372h63l37 -281l131 281h63l-175 -373z" />
    <glyph glyph-name="uni0426" unicode="&#x426;" horiz-adv-x="329" 
d="M253 -106h-56l19 106h-227l135 766h62l-125 -704h112l125 704h62l-125 -704h47z" />
    <glyph glyph-name="uni0427" unicode="&#x427;" horiz-adv-x="294" 
d="M205 0h-62l58 333c-22 -9 -43 -11 -61 -11c-72 0 -104 31 -80 166l49 278h62l-53 -300c-12 -68 7 -83 47 -83c14 0 29 2 47 12l66 371h62z" />
    <glyph glyph-name="uni0428" unicode="&#x428;" horiz-adv-x="468" 
d="M514 766l-135 -766h-390l135 766h62l-125 -704h102l125 704h62l-125 -704h102l125 704h62z" />
    <glyph glyph-name="uni0429" unicode="&#x429;" horiz-adv-x="483" 
d="M407 -106h-56l19 106h-381l135 766h62l-125 -704h102l125 704h62l-125 -704h102l125 704h62l-125 -704h47z" />
    <glyph glyph-name="uni042A" unicode="&#x42a;" horiz-adv-x="402" 
d="M194 0h-95l124 704h-142l11 62h204l-58 -328h33c99 0 131 -28 108 -160l-21 -118c-24 -135 -67 -160 -164 -160zM292 138l28 162c10 56 -4 76 -42 76h-51l-56 -314h51c38 0 60 20 70 76z" />
    <glyph glyph-name="uni042B" unicode="&#x42b;" horiz-adv-x="441" 
d="M269 278l-21 -118c-24 -135 -67 -160 -164 -160h-95l135 766h62l-58 -328h33c97 0 131 -25 108 -160zM61 62h51c38 0 60 20 70 76l28 162c10 56 -4 76 -42 76h-51zM352 0h-62l135 766h62z" />
    <glyph glyph-name="uni042C" unicode="&#x42c;" horiz-adv-x="292" 
d="M269 278l-21 -118c-24 -135 -67 -160 -164 -160h-95l135 766h62l-58 -328h33c97 0 131 -25 108 -160zM61 62h51c38 0 60 20 70 76l28 162c10 56 -4 76 -42 76h-51z" />
    <glyph glyph-name="uni042D" unicode="&#x42d;" horiz-adv-x="297" 
d="M170 120l41 235h-134l11 62h134l40 229c10 56 -13 76 -42 76s-60 -21 -70 -76l-17 -98h-62l13 71c24 134 81 160 145 160c63 0 115 -26 91 -160l-84 -472c-23 -131 -79 -160 -145 -160c-71 0 -113 34 -91 160l12 68h62l-16 -95c-10 -58 14 -76 41 -76c30 0 61 21 71 76z
" />
    <glyph glyph-name="uni042E" unicode="&#x42e;" horiz-adv-x="458" 
d="M51 0h-62l135 766h62l-62 -349h85l36 202c23 131 79 160 145 160c71 0 113 -34 91 -160l-84 -472c-23 -131 -79 -160 -145 -160c-67 0 -114 30 -91 160l37 208h-85zM331 120l92 526c10 56 -13 76 -42 76s-60 -21 -70 -76l-92 -526c-10 -56 13 -76 42 -76s60 21 70 76z
" />
    <glyph glyph-name="uni042F" unicode="&#x42f;" horiz-adv-x="296" 
d="M342 766l-135 -766h-62l58 333h-37l-148 -333h-62l153 340c-53 14 -62 63 -47 151l20 115c24 135 66 160 163 160h97zM162 390h51l56 314h-51c-38 0 -60 -20 -70 -76l-28 -162c-10 -56 4 -76 42 -76z" />
    <glyph glyph-name="uni0408" unicode="&#x408;" horiz-adv-x="140" 
d="M-100 -192h-1l10 57h1c28 0 58 20 68 76l146 825h62l-141 -798c-24 -135 -100 -160 -145 -160z" />
    <glyph glyph-name="uni0404" unicode="&#x404;" horiz-adv-x="297" 
d="M181 120l16 95h62l-12 -68c-23 -131 -79 -160 -145 -160c-71 0 -113 34 -91 160l84 472c22 125 74 160 145 160c69 0 114 -33 91 -160l-13 -71h-62l17 98c10 58 -14 76 -41 76c-32 0 -62 -24 -71 -76l-40 -229h134l-11 -62h-134l-41 -235c-10 -56 13 -76 41 -76
c27 0 61 18 71 76z" />
    <glyph glyph-name="uni0406" unicode="&#x406;" horiz-adv-x="140" 
d="M51 0h-62l135 766h62z" />
    <glyph glyph-name="uni0405" unicode="&#x405;" horiz-adv-x="295" 
d="M175 120l18 103c18 105 -147 160 -120 310l18 98c24 132 96 148 143 148c46 0 116 -15 92 -150l-23 -130h-62l26 147c10 56 -14 76 -42 76s-60 -20 -70 -76l-18 -104c-24 -136 146 -165 120 -308l-14 -77c-19 -111 -55 -170 -147 -170s-109 59 -89 170l18 99h62l-24 -136
c-10 -56 14 -76 42 -76s60 20 70 76z" />
    <glyph glyph-name="uni0490" unicode="&#x490;" horiz-adv-x="250" 
d="M51 0h-62l135 766h148l18 106h56l-29 -168h-142z" />
    <glyph glyph-name="uni040F" unicode="&#x40f;" horiz-adv-x="314" 
d="M116 -106h-56l19 106h-90l135 766h62l-125 -704h112l125 704h62l-135 -766h-90z" />
    <glyph glyph-name="uni0403" unicode="&#x403;" horiz-adv-x="250" 
d="M51 0h-62l135 766h204l-11 -62h-142zM253 841h-53l62 101h71z" />
    <glyph glyph-name="uni0401" unicode="&#x401;" horiz-adv-x="267" 
d="M193 0h-204l135 766h204l-11 -62h-142l-51 -287h135l-11 -62h-135l-52 -293h142zM168 831c-25 0 -38 20 -34 43c4 24 26 43 50 43s40 -19 36 -43c-4 -23 -27 -43 -52 -43zM299 831c-25 0 -38 20 -34 43c4 24 26 43 50 43s40 -19 36 -43c-4 -23 -27 -43 -52 -43z" />
    <glyph glyph-name="uni0402" unicode="&#x402;" horiz-adv-x="354" 
d="M164 -8l10 57c29 0 60 21 70 76l30 175c12 68 -7 83 -47 83c-14 0 -29 -2 -47 -12l-65 -371h-62l124 704h-95l11 62h262l-11 -62h-105l-48 -271c22 9 43 11 61 11c72 0 105 -34 81 -166l-23 -126c-23 -127 -74 -160 -146 -160z" />
    <glyph glyph-name="uni040C" unicode="&#x40c;" horiz-adv-x="291" 
d="M230 0h-62c17 128 -7 255 -49 383c88 128 155 255 183 383h62c-26 -127 -91 -253 -176 -380c40 -129 61 -257 42 -386zM51 0h-62l135 766h62zM280 825h-53l62 101h71z" />
    <glyph glyph-name="uni040E" unicode="&#x40e;" horiz-adv-x="346" 
d="M40 0h-62l148 279l-47 487h63l32 -396l206 396h63zM331 895h39c-10 -58 -59 -88 -107 -88s-88 30 -78 88h40c-5 -31 13 -47 45 -47c31 0 56 16 61 47z" />
    <glyph glyph-name="uni0407" unicode="&#x407;" horiz-adv-x="140" 
d="M51 0h-62l135 766h62zM101 831c-25 0 -38 20 -34 43c4 24 26 43 50 43s40 -19 36 -43c-4 -23 -27 -43 -52 -43zM232 831c-25 0 -38 20 -34 43c4 24 26 43 50 43s40 -19 36 -43c-4 -23 -27 -43 -52 -43z" />
    <glyph glyph-name="uni0409" unicode="&#x409;" horiz-adv-x="482" 
d="M274 0h-95l124 704h-102l-101 -568c-24 -137 -100 -148 -144 -148h-4l10 57h4c28 0 60 20 70 76l114 645h226l-58 -328h33c96 0 132 -26 108 -160l-21 -118c-24 -135 -67 -160 -164 -160zM372 138l28 162c10 56 -4 76 -42 76h-51l-56 -314h51c38 0 60 20 70 76z" />
    <glyph glyph-name="uni040A" unicode="&#x40a;" horiz-adv-x="466" 
d="M258 0h-95l66 375h-112l-66 -375h-62l135 766h62l-58 -329h112l58 329h62l-58 -329h33c103 0 129 -29 107 -160l-20 -117c-23 -132 -65 -160 -164 -160zM356 138l28 161c10 56 -4 76 -42 76h-51l-56 -313h51c38 0 60 20 70 76z" />
    <glyph glyph-name="uni040B" unicode="&#x40b;" horiz-adv-x="357" 
d="M284 0h-62l52 300c12 68 -7 83 -47 83c-14 0 -29 -2 -47 -12l-65 -371h-62l124 704h-95l11 62h262l-11 -62h-105l-48 -271c22 9 43 11 61 11c70 0 105 -30 81 -166z" />
    <glyph glyph-name="uni0430" unicode="&#x430;" horiz-adv-x="251" 
d="M168 0h-47l-1 46c-14 -22 -37 -54 -80 -54c-50 0 -57 43 -39 150l2 12c18 109 42 152 94 152c30 0 46 -14 56 -47l33 185c10 56 5 76 -23 76s-39 -20 -49 -76l-10 -58h-60l9 53c16 94 44 136 121 136c68 0 89 -33 71 -136zM131 132l7 42c8 48 3 74 -25 74
s-38 -25 -47 -76l-9 -51c-9 -51 -5 -75 19 -75c22 0 44 21 55 86z" />
    <glyph glyph-name="uni0431" unicode="&#x431;" horiz-adv-x="255" 
d="M1 110l64 361c30 170 61 222 138 262c33 17 65 27 95 36l14 -43c-21 -7 -67 -21 -100 -42c-46 -30 -61 -74 -80 -161c12 25 46 53 79 53s59 -30 43 -121l-61 -345c-17 -95 -63 -118 -117 -118s-92 23 -75 118zM132 103l62 351c7 41 2 67 -22 67c-21 0 -42 -19 -52 -77
l-60 -341c-7 -39 3 -56 26 -56s39 17 46 56z" />
    <glyph glyph-name="uni0432" unicode="&#x432;" horiz-adv-x="255" 
d="M86 0h-103l99 567h96c54 0 93 -22 76 -118l-5 -28c-12 -67 -23 -113 -95 -131c69 -11 70 -57 56 -131l-8 -41c-18 -91 -54 -118 -116 -118zM141 111l15 86c10 56 -32 66 -60 66h-7l-37 -208h43c23 0 39 17 46 56zM182 383l13 73c7 39 -3 56 -26 56h-36l-35 -195h6
c18 0 68 10 78 66z" />
    <glyph glyph-name="uni0433" unicode="&#x433;" horiz-adv-x="231" 
d="M43 0h-60l99 567h192l-9 -55h-132z" />
    <glyph glyph-name="uni0434" unicode="&#x434;" horiz-adv-x="310" 
d="M235 -96h-53l17 96h-181l-17 -96h-60l24 144c33 12 56 35 66 81l92 437h191l-90 -511h37zM164 55l81 457h-71l-80 -371c-8 -37 -21 -65 -49 -86h119z" />
    <glyph glyph-name="uni0435" unicode="&#x435;" horiz-adv-x="250" 
d="M130 103l14 84h60l-13 -77c-16 -93 -62 -118 -117 -118c-58 0 -91 27 -75 118l61 347c17 96 63 118 117 118s92 -22 75 -118l-34 -196h-132l-28 -158c-7 -39 3 -56 26 -56s39 17 46 56zM167 315l26 149c7 39 -3 56 -26 56s-39 -17 -46 -56l-26 -149h72z" />
    <glyph glyph-name="uni0436" unicode="&#x436;" horiz-adv-x="380" 
d="M315 0h-61c17 97 6 193 -31 290c70 92 114 185 130 277h62c-16 -91 -57 -183 -126 -274c35 -98 43 -195 26 -293zM171 0h-60l99 567h60zM28 0h-61c17 98 59 195 128 293c-37 91 -46 183 -30 274h62c-16 -92 -4 -185 34 -277c-71 -97 -116 -193 -133 -290z" />
    <glyph glyph-name="uni0437" unicode="&#x437;" horiz-adv-x="240" 
d="M191 159l-9 -49c-17 -95 -63 -118 -117 -118c-57 0 -91 25 -75 118l9 52h60l-10 -59c-7 -41 4 -56 26 -56c23 0 39 17 46 56l16 94c10 56 -35 66 -53 66c-9 0 -19 0 -35 -1l10 56c15 -1 26 -1 33 -1c18 0 68 10 78 66l14 81c7 39 -3 56 -26 56s-39 -17 -46 -56l-8 -45
h-60l7 38c17 92 58 118 118 118c50 0 91 -18 74 -118l-6 -36c-12 -72 -27 -114 -95 -131c63 -21 61 -63 49 -131z" />
    <glyph glyph-name="uni0438" unicode="&#x438;" horiz-adv-x="284" 
d="M201 0h-60l70 387l-164 -387h-64l99 567h60l-70 -387l164 387h64z" />
    <glyph glyph-name="uni0439" unicode="&#x439;" horiz-adv-x="284" 
d="M201 0h-60l70 387l-164 -387h-64l99 567h60l-70 -387l164 387h64zM266 705h39c-10 -58 -59 -88 -107 -88s-88 30 -78 88h40c-5 -31 13 -47 45 -47c31 0 56 16 61 47z" />
    <glyph glyph-name="uni043A" unicode="&#x43a;" horiz-adv-x="252" 
d="M187 0h-61c17 97 6 193 -31 290c70 92 114 185 130 277h62c-16 -91 -57 -183 -126 -274c35 -98 43 -195 26 -293zM43 0h-60l99 567h60z" />
    <glyph glyph-name="uni043B" unicode="&#x43b;" horiz-adv-x="269" 
d="M185 0h-60l90 512h-72l-65 -370c-17 -96 -38 -149 -102 -149c-6 0 -13 0 -20 1l9 50s3 -1 7 -1c21 0 33 27 41 71l79 453h192z" />
    <glyph glyph-name="uni043C" unicode="&#x43c;" horiz-adv-x="368" 
d="M285 0h-60l70 377l-142 -377h-38l-10 377l-62 -377h-60l99 567h65l17 -396l155 396h65z" />
    <glyph glyph-name="uni043D" unicode="&#x43d;" 
d="M175 0h-60l46 261h-72l-46 -261h-60l99 567h60l-44 -251h72l44 251h60z" />
    <glyph glyph-name="uni043E" unicode="&#x43e;" horiz-adv-x="254" 
d="M0 110l61 347c17 96 63 118 117 118s92 -22 75 -118l-61 -347c-17 -95 -63 -118 -117 -118s-92 23 -75 118zM131 103l63 361c7 39 -3 56 -26 56s-39 -17 -46 -56l-63 -361c-7 -39 3 -56 26 -56s39 17 46 56z" />
    <glyph glyph-name="uni043F" unicode="&#x43f;" 
d="M175 0h-60l90 512h-72l-90 -512h-60l99 567h192z" />
    <glyph glyph-name="uni0440" unicode="&#x440;" horiz-adv-x="256" 
d="M50 37l-42 -236h-59l134 766h47l1 -46c14 22 37 54 80 54c50 0 58 -43 39 -150l-49 -283c-19 -107 -43 -150 -93 -150c-37 0 -51 24 -58 45zM120 435l-53 -303c-12 -67 3 -86 25 -86c24 0 36 24 45 75l57 325c9 51 5 75 -19 75c-22 0 -43 -19 -55 -86z" />
    <glyph glyph-name="uni0441" unicode="&#x441;" horiz-adv-x="248" 
d="M131 103l21 119h60l-20 -112c-17 -95 -63 -118 -117 -118s-92 23 -75 118l61 347c17 96 63 118 117 118s92 -22 75 -118l-17 -98h-60l18 105c7 39 -3 56 -26 56s-39 -17 -46 -56l-63 -361c-7 -39 3 -56 26 -56s39 17 46 56z" />
    <glyph glyph-name="uni0442" unicode="&#x442;" horiz-adv-x="255" 
d="M107 0h-60l90 512h-91l9 55h243l-9 -55h-92z" />
    <glyph glyph-name="uni0443" unicode="&#x443;" horiz-adv-x="244" 
d="M36 -200h-64l61 169l25 598h64l-34 -471l135 471h64z" />
    <glyph glyph-name="uni0444" unicode="&#x444;" horiz-adv-x="346" 
d="M117 -198h-58l33 192c-82 10 -106 61 -91 146l51 287c15 85 57 136 143 146l34 193h58l-34 -193c81 -10 106 -61 91 -146l-51 -287c-15 -85 -58 -136 -143 -146zM102 51l82 465c-50 -13 -65 -50 -71 -82l-53 -301c-6 -32 -3 -70 42 -82zM232 133l53 301c5 28 6 68 -43 82
l-82 -465c51 12 66 50 72 82z" />
    <glyph glyph-name="uni0445" unicode="&#x445;" horiz-adv-x="244" 
d="M188 0h-59l-25 209l-89 -209h-58l135 290l-35 277h59l22 -192l86 192h61l-136 -278z" />
    <glyph glyph-name="uni0446" unicode="&#x446;" horiz-adv-x="270" 
d="M194 -96h-53l17 96h-174l99 567h60l-90 -512h72l90 512h60l-90 -512h35z" />
    <glyph glyph-name="uni0447" unicode="&#x447;" horiz-adv-x="248" 
d="M165 0h-60l50 284c-14 -22 -36 -54 -78 -54c-47 0 -56 40 -37 150l32 187h60l-36 -208c-9 -51 -5 -75 19 -75c22 0 43 19 55 86l34 197h60z" />
    <glyph glyph-name="uni0448" unicode="&#x448;" horiz-adv-x="380" 
d="M396 567l-99 -567h-314l99 567h60l-90 -512h67l90 512h60l-90 -512h67l90 512h60z" />
    <glyph glyph-name="uni0449" unicode="&#x449;" horiz-adv-x="392" 
d="M316 -96h-53l17 96h-296l99 567h60l-90 -512h67l90 512h60l-90 -512h67l90 512h60l-90 -512h35z" />
    <glyph glyph-name="uni044A" unicode="&#x44a;" horiz-adv-x="327" 
d="M164 0h-96l90 512h-112l9 55h172l-42 -239h36c53 0 93 -24 76 -118l-17 -92c-17 -92 -57 -118 -116 -118zM219 111l19 106c7 39 -3 56 -26 56h-36l-39 -218h36c23 0 39 17 46 56z" />
    <glyph glyph-name="uni044B" unicode="&#x44b;" horiz-adv-x="383" 
d="M300 0h-60l99 567h60zM134 111l19 106c7 39 -3 56 -26 56h-36l-39 -218h36c23 0 39 17 46 56zM79 0h-96l99 567h60l-42 -239h36c53 0 93 -24 76 -118l-17 -92c-17 -92 -57 -118 -116 -118z" />
    <glyph glyph-name="uni044C" unicode="&#x44c;" horiz-adv-x="242" 
d="M134 111l19 106c7 39 -3 56 -26 56h-36l-39 -218h36c23 0 39 17 46 56zM79 0h-96l99 567h60l-42 -239h36c53 0 93 -24 76 -118l-17 -92c-17 -92 -57 -118 -116 -118z" />
    <glyph glyph-name="uni044D" unicode="&#x44d;" horiz-adv-x="244" 
d="M120 103l28 158h-110l9 55h110l26 148c7 39 -3 56 -26 56s-39 -17 -46 -56l-8 -45h-60l7 38c17 91 57 118 117 118c54 0 92 -22 75 -118l-61 -347c-17 -95 -63 -118 -117 -118c-57 0 -91 25 -75 118l9 52h60l-10 -59c-7 -39 3 -56 26 -56s39 17 46 56z" />
    <glyph glyph-name="uni044E" unicode="&#x44e;" horiz-adv-x="387" 
d="M44 0h-60l99 567h60l-44 -251h70l25 141c17 96 63 118 117 118s92 -22 75 -118l-61 -347c-17 -95 -63 -118 -117 -118s-92 23 -75 118l27 151h-70zM264 103l63 361c7 39 -3 56 -26 56s-39 -17 -46 -56l-63 -361c-7 -39 3 -56 26 -56s39 17 46 56z" />
    <glyph glyph-name="uni044F" unicode="&#x44f;" horiz-adv-x="250" 
d="M167 0h-60l42 242h-30l-106 -242h-55l110 250c-28 13 -41 46 -30 110l16 89c17 96 62 118 116 118h96zM159 297l38 215h-36c-23 0 -39 -17 -46 -56l-18 -103c-7 -39 3 -56 26 -56h36z" />
    <glyph glyph-name="uni0458" unicode="&#x458;" horiz-adv-x="126" 
d="M-118 -201l9 50c8 -1 12 -1 17 -1c47 0 53 28 61 77l113 642h60l-111 -633c-16 -89 -38 -140 -110 -140c-14 0 -26 2 -39 5zM125 640c-25 0 -41 20 -37 45c5 26 29 45 53 45c25 0 42 -20 37 -45c-4 -24 -27 -45 -53 -45z" />
    <glyph glyph-name="uni0459" unicode="&#x459;" horiz-adv-x="385" 
d="M221 0h-96l90 512h-72l-65 -370c-17 -96 -38 -149 -102 -149c-6 0 -13 0 -20 1l9 50s3 -1 7 -1c21 0 33 27 41 71l79 453h192l-42 -239h36c53 0 93 -24 76 -118l-17 -92c-17 -92 -57 -118 -116 -118zM276 111l19 106c7 39 -3 56 -26 56h-36l-39 -218h36c23 0 39 17 46 56
z" />
    <glyph glyph-name="uni045A" unicode="&#x45a;" horiz-adv-x="374" 
d="M211 0h-96l47 272h-72l-47 -272h-60l99 567h60l-42 -240h72l42 240h60l-42 -239h36c53 0 93 -24 76 -118l-17 -92c-17 -92 -57 -118 -116 -118zM266 111l19 106c7 39 -3 56 -26 56h-36l-39 -218h36c23 0 39 17 46 56z" />
    <glyph glyph-name="uni045B" unicode="&#x45b;" horiz-adv-x="257" 
d="M175 0h-60l78 446c9 51 5 75 -19 75c-22 0 -43 -19 -55 -86l-76 -435h-60l115 653h-34l9 52h34l11 61h60l-11 -61h95l-9 -52h-95l-24 -132c14 22 36 54 77 54c49 0 57 -44 38 -150z" />
    <glyph glyph-name="uni0454" unicode="&#x454;" horiz-adv-x="244" 
d="M201 162l-9 -52c-17 -99 -68 -118 -117 -118c-54 0 -92 23 -75 118l61 347c17 96 63 118 117 118c51 0 93 -20 75 -118l-7 -38h-60l8 45c7 39 -3 56 -26 56s-39 -17 -46 -56l-26 -148h110l-9 -55h-110l-28 -158c-7 -39 3 -56 26 -56s39 17 46 56l10 59h60z" />
    <glyph glyph-name="uni0456" unicode="&#x456;" horiz-adv-x="126" 
d="M43 0h-60l99 567h60zM125 640c-25 0 -41 20 -37 45c5 27 30 45 53 45c25 0 42 -20 37 -45c-4 -23 -26 -45 -53 -45z" />
    <glyph glyph-name="uni0455" unicode="&#x455;" horiz-adv-x="250" 
d="M65 187l-11 -67c-8 -48 -11 -73 24 -73c32 0 48 21 57 71c29 166 -121 120 -85 324c20 112 66 133 125 133c68 0 96 -28 78 -130l-12 -67h-60l12 66c11 60 3 76 -28 76c-26 0 -42 -11 -53 -70c-34 -184 121 -121 85 -325c-19 -107 -63 -133 -129 -133
c-73 0 -90 31 -72 140l9 55h60z" />
    <glyph glyph-name="uni0491" unicode="&#x491;" horiz-adv-x="232" 
d="M44 0h-60l99 567h139l17 96h53l-26 -151h-132z" />
    <glyph glyph-name="uni045F" unicode="&#x45f;" 
d="M89 -96h-53l17 96h-70l99 567h60l-90 -512h72l90 512h60l-99 -567h-69z" />
    <glyph glyph-name="uni0453" unicode="&#x453;" horiz-adv-x="231" 
d="M43 0h-60l99 567h192l-9 -55h-132zM211 642h-53l62 101h71z" />
    <glyph glyph-name="uni0451" unicode="&#x451;" horiz-adv-x="249" 
d="M129 103l14 84h60l-13 -77c-16 -93 -62 -118 -117 -118c-58 0 -91 27 -75 118l61 347c17 96 63 118 117 118s92 -22 75 -118l-34 -196h-132l-28 -158c-7 -39 3 -56 26 -56s39 17 46 56zM166 315l26 149c7 39 -3 56 -26 56s-39 -17 -46 -56l-26 -149h72zM119 632
c-25 0 -38 20 -34 43c4 24 26 43 50 43s40 -19 36 -43c-4 -23 -27 -43 -52 -43zM250 632c-25 0 -38 20 -34 43c4 24 26 43 50 43s40 -19 36 -43c-4 -23 -27 -43 -52 -43z" />
    <glyph glyph-name="uni0452" unicode="&#x452;" horiz-adv-x="257" 
d="M13 -201l9 50c8 -1 12 -1 17 -1c48 0 54 28 62 77l92 521c9 51 5 75 -19 75c-22 0 -43 -19 -55 -86l-76 -435h-60l115 653h-34l9 52h34l11 61h60l-11 -61h95l-9 -52h-95l-24 -132c14 22 36 54 77 54c49 0 57 -44 38 -150l-86 -491c-16 -89 -38 -140 -111 -140
c-14 0 -26 2 -39 5z" />
    <glyph glyph-name="uni045C" unicode="&#x45c;" horiz-adv-x="252" 
d="M187 0h-61c17 97 6 193 -31 290c70 92 114 185 130 277h62c-16 -91 -57 -183 -126 -274c35 -98 43 -195 26 -293zM43 0h-60l99 567h60zM223 642h-53l62 101h71z" />
    <glyph glyph-name="uni045E" unicode="&#x45e;" horiz-adv-x="244" 
d="M36 -200h-64l61 169l25 598h64l-34 -471l135 471h64zM253 725h39c-10 -58 -59 -88 -107 -88s-88 30 -78 88h40c-5 -31 13 -47 45 -47c31 0 56 16 61 47z" />
    <glyph glyph-name="uni0457" unicode="&#x457;" horiz-adv-x="126" 
d="M43 0h-60l99 567h60zM58 632c-25 0 -38 20 -34 43c4 24 26 43 50 43s40 -19 36 -43c-4 -23 -27 -43 -52 -43zM189 632c-25 0 -38 20 -34 43c4 24 26 43 50 43s40 -19 36 -43c-4 -23 -27 -43 -52 -43z" />
    <glyph glyph-name="uni2116" unicode="&#x2116;" horiz-adv-x="591" 
d="M265 0h-64l-40 536l-92 -536h-62l135 766h59l43 -544l94 544h62zM523 113h-170l10 56h170zM607 534l-31 -174c-17 -95 -63 -118 -117 -118s-92 23 -75 118l31 174c17 96 62 118 116 118s93 -22 76 -118zM515 353l33 188c7 39 -3 56 -26 56s-39 -17 -46 -56l-33 -188
c-7 -39 3 -56 26 -56s39 17 46 56z" />
    <glyph glyph-name="angstrom" unicode="&#x212b;" horiz-adv-x="314" 
d="M246 0h-62l11 190h-109l-55 -190h-62l236 762c-15 12 -23 31 -19 54c7 38 42 64 76 64c36 0 59 -28 52 -64c-4 -23 -19 -42 -38 -54zM197 247l25 410l-118 -410h93zM281 816c3 17 -8 31 -25 31s-34 -14 -37 -31s9 -31 26 -31s33 14 36 31z" />
    <glyph glyph-name="G.alt" horiz-adv-x="314" 
d="M192 120l41 237h-67l11 60h129l-48 -270c-23 -131 -79 -160 -150 -160c-72 0 -119 30 -96 160l84 472c23 130 78 160 149 160c79 0 119 -37 97 -160l-22 -120h-62l26 147c10 56 -13 76 -47 76c-38 0 -66 -26 -75 -76l-92 -526c-10 -56 13 -76 47 -76c37 0 66 25 75 76z
" />
    <glyph glyph-name="J.alt" horiz-adv-x="165" 
d="M-44 -12h-4l10 57h4c28 0 60 20 70 76l114 645h62l-112 -630c-24 -135 -99 -148 -144 -148z" />
    <glyph glyph-name="R.alt" horiz-adv-x="303" 
d="M220 0h-62l45 257c10 56 -5 76 -43 76h-51l-58 -333h-62l135 766h104c97 0 120 -37 99 -158l-22 -124c-9 -52 -33 -102 -94 -116c56 -12 62 -66 52 -123zM241 471l28 159c10 56 -5 74 -43 74h-51l-55 -309h51c38 0 60 20 70 76z" />
    <glyph glyph-name="a.alt" horiz-adv-x="251" 
d="M168 0h-47l-1 46c-14 -22 -37 -54 -81 -54c-50 0 -56 41 -38 150l6 37c18 111 57 144 109 144h48l22 121c10 56 5 76 -23 76s-39 -20 -49 -76l-10 -58h-60l9 53c16 94 44 136 121 136c68 0 89 -33 71 -136zM131 132l25 142h-34c-25 0 -43 -25 -53 -82l-12 -71
c-9 -51 -5 -75 19 -75c22 0 43 19 55 86z" />
    <glyph glyph-name="g.alt" horiz-adv-x="257" 
d="M96 -96l23 133c-15 -21 -37 -45 -74 -45c-50 0 -58 43 -39 150l49 283c18 102 41 150 93 150c43 0 54 -32 60 -54l17 46h47l-115 -656c-17 -96 -64 -118 -118 -118c-49 0 -90 18 -74 118l5 32h60l-6 -39c-7 -39 3 -56 26 -56s39 17 46 56zM136 132l53 303
c12 67 -3 86 -25 86c-24 0 -36 -24 -45 -75l-57 -325c-9 -51 -5 -75 19 -75c22 0 43 19 55 86z" />
    <glyph glyph-name="j.alt" horiz-adv-x="126" 
d="M-13 -199h-59c26 56 39 113 49 169l105 597h60l-105 -601c-10 -55 -23 -110 -50 -165zM125 640c-25 0 -41 20 -37 45c5 26 29 45 53 45c25 0 42 -20 37 -45c-4 -24 -27 -45 -53 -45z" />
    <glyph glyph-name="y.alt" 
d="M97 -96l23 133c-15 -21 -37 -45 -74 -45c-50 0 -58 43 -39 150l74 425h60l-78 -446c-9 -51 -5 -75 19 -75c22 0 43 19 55 86l76 435h60l-115 -656c-17 -95 -63 -118 -117 -118s-91 23 -75 118l5 32h60l-6 -39c-7 -39 3 -56 26 -56s39 17 46 56z" />
    <glyph glyph-name="Gcircumflex.alt" horiz-adv-x="314" 
d="M192 120l41 237h-67l11 60h129l-48 -270c-23 -131 -79 -160 -150 -160c-72 0 -119 30 -96 160l84 472c23 130 78 160 149 160c79 0 119 -37 97 -160l-22 -120h-62l26 147c10 56 -13 76 -47 76c-38 0 -66 -26 -75 -76l-92 -526c-10 -56 13 -76 47 -76c37 0 66 25 75 76z
M350 841h-53l-28 62l-47 -62h-56l75 101h70z" />
    <glyph glyph-name="Gbreve.alt" horiz-adv-x="314" 
d="M192 120l41 237h-67l11 60h129l-48 -270c-23 -131 -79 -160 -150 -160c-72 0 -119 30 -96 160l84 472c23 130 78 160 149 160c79 0 119 -37 97 -160l-22 -120h-62l26 147c10 56 -13 76 -47 76c-38 0 -66 -26 -75 -76l-92 -526c-10 -56 13 -76 47 -76c37 0 66 25 75 76z
M328 924h39c-10 -58 -59 -88 -107 -88s-88 30 -78 88h40c-5 -31 13 -47 45 -47c31 0 56 16 61 47z" />
    <glyph glyph-name="Gdotaccent.alt" horiz-adv-x="314" 
d="M192 120l41 237h-67l11 60h129l-48 -270c-23 -131 -79 -160 -150 -160c-72 0 -119 30 -96 160l84 472c23 130 78 160 149 160c79 0 119 -37 97 -160l-22 -120h-62l26 147c10 56 -13 76 -47 76c-38 0 -66 -26 -75 -76l-92 -526c-10 -56 13 -76 47 -76c37 0 66 25 75 76z
M255 831c-25 0 -38 20 -34 43c4 24 26 43 50 43s40 -19 36 -43c-4 -23 -27 -43 -52 -43z" />
    <glyph glyph-name="Gcommaaccent.alt" horiz-adv-x="314" 
d="M192 120l41 237h-67l11 60h129l-48 -270c-23 -131 -79 -160 -150 -160c-72 0 -119 30 -96 160l84 472c23 130 78 160 149 160c79 0 119 -37 97 -160l-22 -120h-62l26 147c10 56 -13 76 -47 76c-38 0 -66 -26 -75 -76l-92 -526c-10 -56 13 -76 47 -76c37 0 66 25 75 76z
M72 -156h-46l55 106h66z" />
    <glyph glyph-name="IJ.alt" horiz-adv-x="305" 
d="M51 0h-62l135 766h62zM96 -12h-4l10 57h4c28 0 60 20 70 76l114 645h62l-112 -630c-24 -135 -99 -148 -144 -148z" />
    <glyph glyph-name="ij.alt" horiz-adv-x="252" 
d="M43 0h-60l99 567h60zM125 640c-25 0 -41 20 -37 45c5 26 29 45 53 45c25 0 42 -20 37 -45c-4 -24 -27 -45 -53 -45zM113 -199h-59c26 56 39 113 49 169l105 597h60l-105 -601c-10 -55 -23 -110 -50 -165zM251 640c-25 0 -41 20 -37 45c5 26 29 45 53 45
c25 0 42 -20 37 -45c-4 -24 -27 -45 -53 -45z" />
    <glyph glyph-name="Jcircumflex.alt" horiz-adv-x="165" 
d="M286 841h-53l-28 62l-47 -62h-56l75 101h70zM-44 -12h-4l10 57h4c28 0 60 20 70 76l114 645h62l-112 -630c-24 -135 -99 -148 -144 -148z" />
    <glyph glyph-name="Racute.alt" horiz-adv-x="303" 
d="M220 0h-62l45 257c10 56 -5 76 -43 76h-51l-58 -333h-62l135 766h104c97 0 120 -37 99 -158l-22 -124c-9 -52 -33 -102 -94 -116c56 -12 62 -66 52 -123zM241 471l28 159c10 56 -5 74 -43 74h-51l-55 -309h51c38 0 60 20 70 76zM258 841h-53l62 101h71z" />
    <glyph glyph-name="Rcommaaccent.alt" horiz-adv-x="303" 
d="M220 0h-62l45 257c10 56 -5 76 -43 76h-51l-58 -333h-62l135 766h104c97 0 120 -37 99 -158l-22 -124c-9 -52 -33 -102 -94 -116c56 -12 62 -66 52 -123zM241 471l28 159c10 56 -5 74 -43 74h-51l-55 -309h51c38 0 60 20 70 76zM61 -156h-46l55 106h66z" />
    <glyph glyph-name="Rcaron.alt" horiz-adv-x="303" 
d="M220 0h-62l45 257c10 56 -5 76 -43 76h-51l-58 -333h-62l135 766h104c97 0 120 -37 99 -158l-22 -124c-9 -52 -33 -102 -94 -116c56 -12 62 -66 52 -123zM241 471l28 159c10 56 -5 74 -43 74h-51l-55 -309h51c38 0 60 20 70 76zM274 841h-70l-39 101h56l25 -62l50 62h53z
" />
    <glyph glyph-name="jcircumflex.alt" horiz-adv-x="126" 
d="M-13 -199h-59c26 56 39 113 49 169l105 597h60l-105 -601c-10 -55 -23 -110 -50 -165zM219 642h-53l-28 62l-47 -62h-56l75 101h70z" />
    <glyph glyph-name="dotlessj.alt" horiz-adv-x="126" 
d="M-13 -199h-59c26 56 39 113 49 169l105 597h60l-105 -601c-10 -55 -23 -110 -50 -165z" />
    <glyph glyph-name="agrave.alt" horiz-adv-x="251" 
d="M168 0h-47l-1 46c-14 -22 -37 -54 -81 -54c-50 0 -56 41 -38 150l6 37c18 111 57 144 109 144h48l22 121c10 56 5 76 -23 76s-39 -20 -49 -76l-10 -58h-60l9 53c16 94 44 136 121 136c68 0 89 -33 71 -136zM131 132l25 142h-34c-25 0 -43 -25 -53 -82l-12 -71
c-9 -51 -5 -75 19 -75c22 0 43 19 55 86zM200 743l26 -101h-53l-44 101h71z" />
    <glyph glyph-name="aacute.alt" horiz-adv-x="251" 
d="M168 0h-47l-1 46c-14 -22 -37 -54 -81 -54c-50 0 -56 41 -38 150l6 37c18 111 57 144 109 144h48l22 121c10 56 5 76 -23 76s-39 -20 -49 -76l-10 -58h-60l9 53c16 94 44 136 121 136c68 0 89 -33 71 -136zM131 132l25 142h-34c-25 0 -43 -25 -53 -82l-12 -71
c-9 -51 -5 -75 19 -75c22 0 43 19 55 86zM200 642h-53l62 101h71z" />
    <glyph glyph-name="adieresis.alt" horiz-adv-x="251" 
d="M168 0h-47l-1 46c-14 -22 -37 -54 -81 -54c-50 0 -56 41 -38 150l6 37c18 111 57 144 109 144h48l22 121c10 56 5 76 -23 76s-39 -20 -49 -76l-10 -58h-60l9 53c16 94 44 136 121 136c68 0 89 -33 71 -136zM131 132l25 142h-34c-25 0 -43 -25 -53 -82l-12 -71
c-9 -51 -5 -75 19 -75c22 0 43 19 55 86zM118 632c-25 0 -38 20 -34 43c4 24 26 43 50 43s40 -19 36 -43c-4 -23 -27 -43 -52 -43zM249 632c-25 0 -38 20 -34 43c4 24 26 43 50 43s40 -19 36 -43c-4 -23 -27 -43 -52 -43z" />
    <glyph glyph-name="acircumflex.alt" horiz-adv-x="251" 
d="M168 0h-47l-1 46c-14 -22 -37 -54 -81 -54c-50 0 -56 41 -38 150l6 37c18 111 57 144 109 144h48l22 121c10 56 5 76 -23 76s-39 -20 -49 -76l-10 -58h-60l9 53c16 94 44 136 121 136c68 0 89 -33 71 -136zM131 132l25 142h-34c-25 0 -43 -25 -53 -82l-12 -71
c-9 -51 -5 -75 19 -75c22 0 43 19 55 86zM278 642h-53l-28 62l-47 -62h-56l75 101h70z" />
    <glyph glyph-name="aring.alt" horiz-adv-x="251" 
d="M168 0h-47l-1 46c-14 -22 -37 -54 -81 -54c-50 0 -56 41 -38 150l6 37c18 111 57 144 109 144h48l22 121c10 56 5 76 -23 76s-39 -20 -49 -76l-10 -58h-60l9 53c16 94 44 136 121 136c68 0 89 -33 71 -136zM131 132l25 142h-34c-25 0 -43 -25 -53 -82l-12 -71
c-9 -51 -5 -75 19 -75c22 0 43 19 55 86zM229 683c3 20 -10 36 -30 36c-22 0 -39 -18 -42 -36c-4 -20 10 -36 30 -36c18 0 38 14 42 36zM182 619c-36 0 -59 28 -53 64s39 64 75 64s59 -28 53 -64s-39 -64 -75 -64z" />
    <glyph glyph-name="atilde.alt" horiz-adv-x="251" 
d="M168 0h-47l-1 46c-14 -22 -37 -54 -81 -54c-50 0 -56 41 -38 150l6 37c18 111 57 144 109 144h48l22 121c10 56 5 76 -23 76s-39 -20 -49 -76l-10 -58h-60l9 53c16 94 44 136 121 136c68 0 89 -33 71 -136zM131 132l25 142h-34c-25 0 -43 -25 -53 -82l-12 -71
c-9 -51 -5 -75 19 -75c22 0 43 19 55 86zM237 704h58c-13 -39 -43 -63 -74 -63c-26 0 -38 17 -57 17c-12 0 -17 -7 -20 -16h-56c3 11 23 63 71 63c26 0 45 -15 60 -15c14 0 18 14 18 14z" />
    <glyph glyph-name="amacron.alt" horiz-adv-x="251" 
d="M168 0h-47l-1 46c-14 -22 -37 -54 -81 -54c-50 0 -56 41 -38 150l6 37c18 111 57 144 109 144h48l22 121c10 56 5 76 -23 76s-39 -20 -49 -76l-10 -58h-60l9 53c16 94 44 136 121 136c68 0 89 -33 71 -136zM131 132l25 142h-34c-25 0 -43 -25 -53 -82l-12 -71
c-9 -51 -5 -75 19 -75c22 0 43 19 55 86zM287 642h-202l9 50h202z" />
    <glyph glyph-name="abreve.alt" horiz-adv-x="251" 
d="M168 0h-47l-1 46c-14 -22 -37 -54 -81 -54c-50 0 -56 41 -38 150l6 37c18 111 57 144 109 144h48l22 121c10 56 5 76 -23 76s-39 -20 -49 -76l-10 -58h-60l9 53c16 94 44 136 121 136c68 0 89 -33 71 -136zM131 132l25 142h-34c-25 0 -43 -25 -53 -82l-12 -71
c-9 -51 -5 -75 19 -75c22 0 43 19 55 86zM253 725h39c-10 -58 -59 -88 -107 -88s-88 30 -78 88h40c-5 -31 13 -47 45 -47c31 0 56 16 61 47z" />
    <glyph glyph-name="aogonek.alt" horiz-adv-x="251" 
d="M148 -141l-27 -31c-63 8 -81 47 -74 87c6 34 29 64 78 85l-5 46c-14 -22 -37 -54 -81 -54c-50 0 -56 41 -38 150l6 37c18 110 59 144 109 144h48l22 121c10 56 5 76 -23 76s-39 -20 -49 -76l-10 -58h-60l9 53c16 94 44 136 121 136c68 0 89 -33 71 -136l-77 -439
c-34 -20 -66 -48 -72 -82c-6 -36 21 -51 52 -59zM131 132l25 142h-34c-25 0 -43 -25 -53 -82l-12 -71c-9 -51 -5 -75 19 -75c22 0 43 19 55 86z" />
    <glyph glyph-name="gcircumflex.alt" horiz-adv-x="256" 
d="M281 642h-53l-28 62l-47 -62h-56l75 101h70zM95 -96l23 133c-15 -21 -37 -45 -74 -45c-50 0 -58 43 -39 150l49 283c18 102 41 150 93 150c43 0 54 -32 60 -54l17 46h47l-115 -656c-17 -96 -64 -118 -118 -118c-49 0 -90 18 -74 118l5 32h60l-6 -39c-7 -39 3 -56 26 -56
s39 17 46 56zM135 132l53 303c12 67 -3 86 -25 86c-24 0 -36 -24 -45 -75l-57 -325c-9 -51 -5 -75 19 -75c22 0 43 19 55 86z" />
    <glyph glyph-name="gbreve.alt" horiz-adv-x="256" 
d="M258 725h39c-10 -58 -59 -88 -107 -88s-88 30 -78 88h40c-5 -31 13 -47 45 -47c31 0 56 16 61 47zM95 -96l23 133c-15 -21 -37 -45 -74 -45c-50 0 -58 43 -39 150l49 283c18 102 41 150 93 150c43 0 54 -32 60 -54l17 46h47l-115 -656c-17 -96 -64 -118 -118 -118
c-49 0 -90 18 -74 118l5 32h60l-6 -39c-7 -39 3 -56 26 -56s39 17 46 56zM135 132l53 303c12 67 -3 86 -25 86c-24 0 -36 -24 -45 -75l-57 -325c-9 -51 -5 -75 19 -75c22 0 43 19 55 86z" />
    <glyph glyph-name="gdotaccent.alt" horiz-adv-x="256" 
d="M194 632c-25 0 -38 20 -34 43c4 24 26 43 50 43s40 -19 36 -43c-4 -23 -27 -43 -52 -43zM95 -96l23 133c-15 -21 -37 -45 -74 -45c-50 0 -58 43 -39 150l49 283c18 102 41 150 93 150c43 0 54 -32 60 -54l17 46h47l-115 -656c-17 -96 -64 -118 -118 -118
c-49 0 -90 18 -74 118l5 32h60l-6 -39c-7 -39 3 -56 26 -56s39 17 46 56zM135 132l53 303c12 67 -3 86 -25 86c-24 0 -36 -24 -45 -75l-57 -325c-9 -51 -5 -75 19 -75c22 0 43 19 55 86z" />
    <glyph glyph-name="gcommaaccent.alt" horiz-adv-x="256" 
d="M226 748h46l-55 -106h-66zM95 -96l23 133c-15 -21 -37 -45 -74 -45c-50 0 -58 43 -39 150l49 283c18 102 41 150 93 150c43 0 54 -32 60 -54l17 46h47l-115 -656c-17 -96 -64 -118 -118 -118c-49 0 -90 18 -74 118l5 32h60l-6 -39c-7 -39 3 -56 26 -56s39 17 46 56z
M135 132l53 303c12 67 -3 86 -25 86c-24 0 -36 -24 -45 -75l-57 -325c-9 -51 -5 -75 19 -75c22 0 43 19 55 86z" />
    <glyph glyph-name="eng.alt" 
d="M120 -199h-60c27 56 40 113 50 169l84 476c9 51 5 75 -19 75c-22 0 -43 -19 -55 -86l-76 -435h-60l99 567h47l1 -46c14 22 37 54 80 54c50 0 58 -43 39 -150l-80 -459c-10 -55 -23 -110 -50 -165z" />
    <glyph glyph-name="ygrave.alt" 
d="M97 -96l23 133c-15 -21 -37 -45 -74 -45c-50 0 -58 43 -39 150l74 425h60l-78 -446c-9 -51 -5 -75 19 -75c22 0 43 19 55 86l76 435h60l-115 -656c-17 -95 -63 -118 -117 -118s-91 23 -75 118l5 32h60l-6 -39c-7 -39 3 -56 26 -56s39 17 46 56zM199 743l26 -101h-53
l-44 101h71z" />
    <glyph glyph-name="yacute.alt" 
d="M97 -96l23 133c-15 -21 -37 -45 -74 -45c-50 0 -58 43 -39 150l74 425h60l-78 -446c-9 -51 -5 -75 19 -75c22 0 43 19 55 86l76 435h60l-115 -656c-17 -95 -63 -118 -117 -118s-91 23 -75 118l5 32h60l-6 -39c-7 -39 3 -56 26 -56s39 17 46 56zM208 642h-53l62 101h71z
" />
    <glyph glyph-name="ycircumflex.alt" 
d="M97 -96l23 133c-15 -21 -37 -45 -74 -45c-50 0 -58 43 -39 150l74 425h60l-78 -446c-9 -51 -5 -75 19 -75c22 0 43 19 55 86l76 435h60l-115 -656c-17 -95 -63 -118 -117 -118s-91 23 -75 118l5 32h60l-6 -39c-7 -39 3 -56 26 -56s39 17 46 56zM284 642h-53l-28 62
l-47 -62h-56l75 101h70z" />
    <glyph glyph-name="ydieresis.alt" horiz-adv-x="257" 
d="M97 -96l23 133c-15 -21 -37 -45 -74 -45c-50 0 -58 43 -39 150l74 425h60l-78 -446c-9 -51 -5 -75 19 -75c22 0 43 19 55 86l76 435h60l-115 -656c-17 -95 -63 -118 -117 -118s-91 23 -75 118l5 32h60l-6 -39c-7 -39 3 -56 26 -56s39 17 46 56zM124 632
c-25 0 -38 20 -34 43c4 24 26 43 50 43s40 -19 36 -43c-4 -23 -27 -43 -52 -43zM255 632c-25 0 -38 20 -34 43c4 24 26 43 50 43s40 -19 36 -43c-4 -23 -27 -43 -52 -43z" />
    <glyph glyph-name="Kappa.alt" horiz-adv-x="291" 
d="M230 0h-62c17 128 -7 255 -49 383c88 128 155 255 183 383h62c-26 -127 -91 -253 -176 -380c40 -129 61 -257 42 -386zM51 0h-62l135 766h62z" />
    <glyph glyph-name="alpha.alt" horiz-adv-x="254" 
d="M252 457l-80 -457h-47l-2 44c-16 -24 -41 -52 -80 -52c-48 0 -57 43 -38 150l55 315c17 96 63 118 117 118s92 -22 75 -118zM121 464l-60 -343c-9 -51 -5 -75 19 -75c22 0 43 19 55 86l58 332c7 39 -3 56 -26 56s-39 -17 -46 -56z" />
    <glyph glyph-name="gamma.alt" horiz-adv-x="269" 
d="M97 -198h-60l37 199l14 443c1 53 -7 71 -26 71c-4 0 -7 -1 -11 -2v51c16 4 30 6 42 6c49 0 60 -39 55 -109l-25 -341l124 447h64l-181 -567z" />
    <glyph glyph-name="eta.alt" 
d="M141 -198h-60l113 644c9 51 5 75 -19 75c-22 0 -43 -19 -55 -86l-76 -435h-60l99 567h47l1 -46c14 22 37 54 80 54c50 0 58 -43 39 -150z" />
    <glyph glyph-name="kappa.alt" horiz-adv-x="253" 
d="M188 0h-61c17 97 6 193 -31 290c70 92 114 185 130 277h62c-16 -91 -57 -183 -126 -274c35 -98 43 -195 26 -293zM44 0h-60l99 567h60z" />
    <glyph glyph-name="alphatonos.alt" horiz-adv-x="254" 
d="M252 457l-80 -457h-47l-2 44c-16 -24 -41 -52 -80 -52c-48 0 -57 43 -38 150l55 315c17 96 63 118 117 118s92 -22 75 -118zM121 464l-60 -343c-9 -51 -5 -75 19 -75c22 0 43 19 55 86l58 332c7 39 -3 56 -26 56s-39 -17 -46 -56zM203 642h-53l62 101h71z" />
    <glyph glyph-name="etatonos.alt" 
d="M141 -198h-60l113 644c9 51 5 75 -19 75c-22 0 -43 -19 -55 -86l-76 -435h-60l99 567h47l1 -46c14 22 37 54 80 54c50 0 58 -43 39 -150zM206 642h-53l62 101h71z" />
    <glyph glyph-name="uni042F.alt" horiz-adv-x="303" 
d="M221 395l56 314h-51c-38 0 -60 -18 -70 -74l-28 -164c-10 -56 4 -76 42 -76h51zM214 0h-62l58 333h-51c-38 0 -59 -20 -69 -76l-45 -257h-62l43 245c10 57 34 111 94 123c-55 14 -61 64 -52 116l22 124c21 121 58 158 155 158h104z" />
    <glyph glyph-name="uni0408.alt" horiz-adv-x="165" 
d="M-44 -12h-4l10 57h4c28 0 60 20 70 76l114 645h62l-112 -630c-24 -135 -99 -148 -144 -148z" />
    <glyph glyph-name="uni0430.alt" horiz-adv-x="251" 
d="M168 0h-47l-1 46c-14 -22 -37 -54 -81 -54c-50 0 -56 41 -38 150l6 37c18 111 57 144 109 144h48l22 121c10 56 5 76 -23 76s-39 -20 -49 -76l-10 -58h-60l9 53c16 94 44 136 121 136c68 0 89 -33 71 -136zM131 132l25 142h-34c-25 0 -43 -25 -53 -82l-12 -71
c-9 -51 -5 -75 19 -75c22 0 43 19 55 86z" />
    <glyph glyph-name="uni044F.alt" horiz-adv-x="252" 
d="M268 567l-99 -567h-60l42 243h-7c-28 0 -66 -10 -76 -66l-31 -177h-60l24 139c12 67 26 118 95 131c-66 18 -61 64 -49 131l9 48c17 96 62 118 116 118h96zM155 297h6l38 215h-36c-23 0 -39 -17 -46 -56l-16 -93c-10 -56 36 -66 54 -66z" />
    <glyph glyph-name="uni0458.alt" horiz-adv-x="126" 
d="M-13 -199h-59c26 56 39 113 49 169l105 597h60l-105 -601c-10 -55 -23 -110 -50 -165zM125 640c-25 0 -41 20 -37 45c5 26 29 45 53 45c25 0 42 -20 37 -45c-4 -24 -27 -45 -53 -45z" />
    <glyph glyph-name="uni0452.alt" horiz-adv-x="257" 
d="M119 -199h-60c27 56 40 113 50 169l84 476c9 51 5 75 -19 75c-22 0 -43 -19 -55 -86l-76 -435h-60l115 653h-34l9 52h34l11 61h60l-11 -61h95l-9 -52h-95l-24 -132c14 22 36 54 77 54c49 0 57 -44 38 -150l-80 -459c-10 -55 -23 -110 -50 -165z" />
    <glyph glyph-name="dollar.alt" horiz-adv-x="264" 
d="M112 0h-60l17 100c-49 8 -62 48 -46 138l10 55h60l-12 -67c-10 -56 -5 -73 24 -73c32 0 49 21 58 71c30 165 -121 120 -85 324c16 91 50 122 93 130l16 89h60l-16 -88c47 -9 65 -42 50 -128l-12 -67h-60l11 66c9 54 10 76 -26 76c-30 0 -45 -15 -54 -70
c-32 -189 121 -117 84 -325c-16 -90 -48 -121 -95 -130z" />
    <glyph glyph-name="sterling.alt" horiz-adv-x="332" 
d="M255 0h-279l10 62h45l45 252h-45l10 56h45l46 261c23 130 94 148 145 148c48 0 114 -16 91 -148l-11 -63h-62l13 78c10 59 -16 76 -42 76c-28 0 -60 -20 -70 -76l-48 -276h145l-10 -56h-145l-45 -252h172z" />
    <glyph glyph-name="registered.alt" horiz-adv-x="687" 
d="M290 -8c-217 0 -289 144 -246 388s166 391 384 391c217 0 292 -147 249 -390c-43 -242 -168 -389 -387 -389zM303 47c183 0 281 129 317 333c36 205 -17 337 -202 337c-187 0 -282 -134 -317 -333c-37 -212 22 -337 202 -337zM454 124h-62l-27 200h-47l-36 -200h-62
l92 517h100c96 0 131 -28 109 -153c-17 -95 -47 -133 -96 -153zM454 461l8 47c9 53 -2 76 -43 76h-56l-35 -199h56c38 0 60 20 70 76z" />
    <glyph glyph-name="A.uni" horiz-adv-x="304" 
d="M218 0h-51l3 52c-19 -32 -52 -65 -97 -65c-38 0 -90 23 -70 137l24 135c22 124 65 151 109 151c43 0 71 -27 82 -53l51 289c10 56 -13 76 -42 76c-32 0 -61 -25 -70 -76l-25 -146h-62l21 119c23 131 79 160 145 160c71 0 113 -34 91 -160zM178 128l24 135
c10 58 -18 91 -51 91c-26 0 -49 -20 -59 -77l-27 -153c-12 -69 15 -81 39 -81c36 0 64 27 74 85z" />
    <glyph glyph-name="E.uni" horiz-adv-x="314" 
d="M279 256l-20 -109c-24 -133 -80 -160 -150 -160c-68 0 -120 26 -96 160l84 472c23 131 79 160 150 160c72 0 119 -30 96 -160l-43 -240h-184l-45 -259c-9 -50 8 -76 46 -76c34 0 66 20 76 76l24 136h62zM127 439h122l36 207c9 50 -8 76 -46 76s-67 -25 -76 -76z" />
    <glyph glyph-name="M.uni" horiz-adv-x="487" 
d="M399 0h-62l113 642c10 57 -6 81 -38 81c-36 0 -65 -29 -74 -81l-113 -642h-62l113 642c10 56 -5 81 -39 81c-36 0 -64 -27 -74 -85l-112 -638h-62l135 766h51l-4 -52c17 30 51 65 99 65c25 0 64 -10 72 -69c19 33 57 69 102 69c33 0 89 -19 68 -136z" />
    <glyph glyph-name="N.uni" horiz-adv-x="313" 
d="M225 0h-62l113 642c10 57 -6 81 -39 81c-36 0 -64 -27 -74 -85l-112 -638h-62l135 766h51l-4 -52c18 32 53 65 98 65c33 0 90 -17 69 -136z" />
    <glyph glyph-name="U.uni" horiz-adv-x="313" 
d="M225 0h-51l3 52c-17 -30 -52 -65 -98 -65c-30 0 -90 15 -69 136l114 643h62l-114 -642c-10 -57 6 -81 39 -81c36 0 64 27 74 85l113 638h62z" />
    <glyph glyph-name="Agrave.uni" horiz-adv-x="304" 
d="M218 0h-51l3 52c-19 -32 -52 -65 -97 -65c-38 0 -90 23 -70 137l24 135c22 124 65 151 109 151c43 0 71 -27 82 -53l51 289c10 56 -13 76 -42 76c-32 0 -61 -25 -70 -76l-25 -146h-62l21 119c23 131 79 160 145 160c71 0 113 -34 91 -160zM178 128l24 135
c10 58 -18 91 -51 91c-26 0 -49 -20 -59 -77l-27 -153c-12 -69 15 -81 39 -81c36 0 64 27 74 85zM256 942l26 -101h-53l-44 101h71z" />
    <glyph glyph-name="Aacute.uni" horiz-adv-x="304" 
d="M218 0h-51l3 52c-19 -32 -52 -65 -97 -65c-38 0 -90 23 -70 137l24 135c22 124 65 151 109 151c43 0 71 -27 82 -53l51 289c10 56 -13 76 -42 76c-32 0 -61 -25 -70 -76l-25 -146h-62l21 119c23 131 79 160 145 160c71 0 113 -34 91 -160zM178 128l24 135
c10 58 -18 91 -51 91c-26 0 -49 -20 -59 -77l-27 -153c-12 -69 15 -81 39 -81c36 0 64 27 74 85zM270 841h-53l62 101h71z" />
    <glyph glyph-name="Acircumflex.uni" horiz-adv-x="304" 
d="M218 0h-51l3 52c-19 -32 -52 -65 -97 -65c-38 0 -90 23 -70 137l24 135c22 124 65 151 109 151c43 0 71 -27 82 -53l51 289c10 56 -13 76 -42 76c-32 0 -61 -25 -70 -76l-25 -146h-62l21 119c23 131 79 160 145 160c71 0 113 -34 91 -160zM178 128l24 135
c10 58 -18 91 -51 91c-26 0 -49 -20 -59 -77l-27 -153c-12 -69 15 -81 39 -81c36 0 64 27 74 85zM342 841h-53l-28 62l-47 -62h-56l75 101h70z" />
    <glyph glyph-name="Adieresis.uni" horiz-adv-x="304" 
d="M218 0h-51l3 52c-19 -32 -52 -65 -97 -65c-38 0 -90 23 -70 137l24 135c22 124 65 151 109 151c43 0 71 -27 82 -53l51 289c10 56 -13 76 -42 76c-32 0 -61 -25 -70 -76l-25 -146h-62l21 119c23 131 79 160 145 160c71 0 113 -34 91 -160zM178 128l24 135
c10 58 -18 91 -51 91c-26 0 -49 -20 -59 -77l-27 -153c-12 -69 15 -81 39 -81c36 0 64 27 74 85zM181 831c-25 0 -38 20 -34 43c4 24 26 43 50 43s40 -19 36 -43c-4 -23 -27 -43 -52 -43zM312 831c-25 0 -38 20 -34 43c4 24 26 43 50 43s40 -19 36 -43
c-4 -23 -27 -43 -52 -43z" />
    <glyph glyph-name="Atilde.uni" horiz-adv-x="304" 
d="M218 0h-51l3 52c-19 -32 -52 -65 -97 -65c-38 0 -90 23 -70 137l24 135c22 124 65 151 109 151c43 0 71 -27 82 -53l51 289c10 56 -13 76 -42 76c-32 0 -61 -25 -70 -76l-25 -146h-62l21 119c23 131 79 160 145 160c71 0 113 -34 91 -160zM178 128l24 135
c10 58 -18 91 -51 91c-26 0 -49 -20 -59 -77l-27 -153c-12 -69 15 -81 39 -81c36 0 64 27 74 85zM301 903h58c-13 -39 -43 -63 -74 -63c-26 0 -38 17 -57 17c-12 0 -17 -7 -20 -16h-56c3 11 23 63 71 63c26 0 45 -15 60 -15c14 0 18 14 18 14z" />
    <glyph glyph-name="Amacron.uni" horiz-adv-x="304" 
d="M218 0h-51l3 52c-19 -32 -52 -65 -97 -65c-38 0 -90 23 -70 137l24 135c22 124 65 151 109 151c43 0 71 -27 82 -53l51 289c10 56 -13 76 -42 76c-32 0 -61 -25 -70 -76l-25 -146h-62l21 119c23 131 79 160 145 160c71 0 113 -34 91 -160zM178 128l24 135
c10 58 -18 91 -51 91c-26 0 -49 -20 -59 -77l-27 -153c-12 -69 15 -81 39 -81c36 0 64 27 74 85zM351 841h-202l9 50h202z" />
    <glyph glyph-name="Abreve.uni" horiz-adv-x="304" 
d="M218 0h-51l3 52c-19 -32 -52 -65 -97 -65c-38 0 -90 23 -70 137l24 135c22 124 65 151 109 151c43 0 71 -27 82 -53l51 289c10 56 -13 76 -42 76c-32 0 -61 -25 -70 -76l-25 -146h-62l21 119c23 131 79 160 145 160c71 0 113 -34 91 -160zM178 128l24 135
c10 58 -18 91 -51 91c-26 0 -49 -20 -59 -77l-27 -153c-12 -69 15 -81 39 -81c36 0 64 27 74 85zM317 924h39c-10 -58 -59 -88 -107 -88s-88 30 -78 88h40c-5 -31 13 -47 45 -47c31 0 56 16 61 47z" />
    <glyph glyph-name="Aring.uni" horiz-adv-x="304" 
d="M218 0h-51l3 52c-19 -32 -52 -65 -97 -65c-38 0 -90 23 -70 137l24 135c22 124 65 151 109 151c43 0 71 -27 82 -53l51 289c10 56 -13 76 -42 76c-32 0 -61 -25 -70 -76l-25 -146h-62l21 119c23 131 79 160 145 160c71 0 113 -34 91 -160zM178 128l24 135
c10 58 -18 91 -51 91c-26 0 -49 -20 -59 -77l-27 -153c-12 -69 15 -81 39 -81c36 0 64 27 74 85zM292 882c3 20 -10 36 -30 36c-22 0 -39 -18 -42 -36c-4 -20 10 -36 30 -36c18 0 38 14 42 36zM245 818c-36 0 -59 28 -53 64s39 64 75 64s59 -28 53 -64s-39 -64 -75 -64z" />
    <glyph glyph-name="Aogonek.uni" horiz-adv-x="304" 
d="M199 -141l-27 -31c-60 7 -82 46 -74 87c5 29 25 60 68 81l4 56c-19 -32 -52 -65 -97 -65c-38 0 -90 23 -70 137l24 135c22 124 65 151 109 151c43 0 71 -27 82 -53l51 289c10 56 -13 76 -42 76c-32 0 -61 -25 -70 -76l-25 -146h-62l21 119c23 131 79 160 145 160
c71 0 113 -34 91 -160l-109 -619c-33 -20 -65 -48 -71 -82c-6 -36 21 -51 52 -59zM178 128l24 135c10 58 -18 91 -51 91c-26 0 -49 -20 -59 -77l-27 -153c-12 -69 15 -81 39 -81c36 0 64 27 74 85z" />
    <glyph glyph-name="AE.uni" horiz-adv-x="482" 
d="M359 120l24 136h62l-20 -109c-24 -129 -78 -160 -151 -160c-54 0 -92 17 -99 76c-25 -43 -57 -76 -105 -76c-44 0 -88 28 -68 143l23 129c22 124 65 151 109 151c43 0 71 -27 82 -53l51 289c9 50 -8 76 -42 76c-31 0 -61 -23 -70 -76l-25 -146h-62l21 119
c23 132 80 160 145 160c36 0 65 -9 80 -45c27 36 62 45 101 45c72 0 117 -31 94 -160l-43 -240h-184l-45 -259c-9 -53 11 -76 47 -76c38 0 66 26 75 76zM415 439l36 207c9 53 -11 76 -47 76s-66 -23 -75 -76l-36 -207h122zM175 124l25 139c10 58 -18 91 -51 91
c-26 0 -49 -20 -59 -77l-27 -157c-10 -57 10 -77 39 -77c31 0 63 23 73 81z" />
    <glyph glyph-name="AEacute.uni" horiz-adv-x="482" 
d="M359 120l24 136h62l-20 -109c-24 -129 -78 -160 -151 -160c-54 0 -92 17 -99 76c-25 -43 -57 -76 -105 -76c-44 0 -88 28 -68 143l23 129c22 124 65 151 109 151c43 0 71 -27 82 -53l51 289c9 50 -8 76 -42 76c-31 0 -61 -23 -70 -76l-25 -146h-62l21 119
c23 132 80 160 145 160c36 0 65 -9 80 -45c27 36 62 45 101 45c72 0 117 -31 94 -160l-43 -240h-184l-45 -259c-9 -53 11 -76 47 -76c38 0 66 26 75 76zM415 439l36 207c9 53 -11 76 -47 76s-66 -23 -75 -76l-36 -207h122zM175 124l25 139c10 58 -18 91 -51 91
c-26 0 -49 -20 -59 -77l-27 -157c-10 -57 10 -77 39 -77c31 0 63 23 73 81zM366 841h-53l62 101h71z" />
    <glyph glyph-name="Egrave.uni" horiz-adv-x="314" 
d="M279 256l-20 -109c-24 -133 -80 -160 -150 -160c-68 0 -120 26 -96 160l84 472c23 131 79 160 150 160c72 0 119 -30 96 -160l-43 -240h-184l-45 -259c-9 -50 8 -76 46 -76c34 0 66 20 76 76l24 136h62zM127 439h122l36 207c9 50 -8 76 -46 76s-67 -25 -76 -76zM262 942
l26 -101h-53l-44 101h71z" />
    <glyph glyph-name="Eacute.uni" horiz-adv-x="314" 
d="M279 256l-20 -109c-24 -133 -80 -160 -150 -160c-68 0 -120 26 -96 160l84 472c23 131 79 160 150 160c72 0 119 -30 96 -160l-43 -240h-184l-45 -259c-9 -50 8 -76 46 -76c34 0 66 20 76 76l24 136h62zM127 439h122l36 207c9 50 -8 76 -46 76s-67 -25 -76 -76zM276 841
h-53l62 101h71z" />
    <glyph glyph-name="Ecircumflex.uni" horiz-adv-x="314" 
d="M279 256l-20 -109c-24 -133 -80 -160 -150 -160c-68 0 -120 26 -96 160l84 472c23 131 79 160 150 160c72 0 119 -30 96 -160l-43 -240h-184l-45 -259c-9 -50 8 -76 46 -76c34 0 66 20 76 76l24 136h62zM127 439h122l36 207c9 50 -8 76 -46 76s-67 -25 -76 -76zM351 841
h-53l-28 62l-47 -62h-56l75 101h70z" />
    <glyph glyph-name="Edieresis.uni" horiz-adv-x="314" 
d="M279 256l-20 -109c-24 -133 -80 -160 -150 -160c-68 0 -120 26 -96 160l84 472c23 131 79 160 150 160c72 0 119 -30 96 -160l-43 -240h-184l-45 -259c-9 -50 8 -76 46 -76c34 0 66 20 76 76l24 136h62zM127 439h122l36 207c9 50 -8 76 -46 76s-67 -25 -76 -76zM190 831
c-25 0 -38 20 -34 43c4 24 26 43 50 43s40 -19 36 -43c-4 -23 -27 -43 -52 -43zM321 831c-25 0 -38 20 -34 43c4 24 26 43 50 43s40 -19 36 -43c-4 -23 -27 -43 -52 -43z" />
    <glyph glyph-name="Emacron.uni" horiz-adv-x="314" 
d="M279 256l-20 -109c-24 -133 -80 -160 -150 -160c-68 0 -120 26 -96 160l84 472c23 131 79 160 150 160c72 0 119 -30 96 -160l-43 -240h-184l-45 -259c-9 -50 8 -76 46 -76c34 0 66 20 76 76l24 136h62zM127 439h122l36 207c9 50 -8 76 -46 76s-67 -25 -76 -76zM360 841
h-202l9 50h202z" />
    <glyph glyph-name="Ebreve.uni" horiz-adv-x="314" 
d="M279 256l-20 -109c-24 -133 -80 -160 -150 -160c-68 0 -120 26 -96 160l84 472c23 131 79 160 150 160c72 0 119 -30 96 -160l-43 -240h-184l-45 -259c-9 -50 8 -76 46 -76c34 0 66 20 76 76l24 136h62zM127 439h122l36 207c9 50 -8 76 -46 76s-67 -25 -76 -76zM326 924
h39c-10 -58 -59 -88 -107 -88s-88 30 -78 88h40c-5 -31 13 -47 45 -47c31 0 56 16 61 47z" />
    <glyph glyph-name="Edotaccent.uni" horiz-adv-x="314" 
d="M279 256l-20 -109c-24 -133 -80 -160 -150 -160c-68 0 -120 26 -96 160l84 472c23 131 79 160 150 160c72 0 119 -30 96 -160l-43 -240h-184l-45 -259c-9 -50 8 -76 46 -76c34 0 66 20 76 76l24 136h62zM127 439h122l36 207c9 50 -8 76 -46 76s-67 -25 -76 -76zM256 831
c-25 0 -38 20 -34 43c4 24 26 43 50 43s40 -19 36 -43c-4 -23 -27 -43 -52 -43z" />
    <glyph glyph-name="Eogonek.uni" horiz-adv-x="314" 
d="M163 -137l-26 -31c-60 7 -82 46 -75 87c4 24 19 48 47 68c-72 0 -120 29 -97 160l84 472c23 131 79 160 150 160c72 0 119 -30 96 -160l-43 -240h-184l-45 -259c-9 -50 8 -76 46 -76c34 0 66 20 76 76l24 136h62l-20 -109c-16 -88 -40 -119 -76 -143
c-31 -21 -64 -44 -70 -82c-5 -32 13 -49 51 -59zM248 439l36 207c9 50 -8 76 -46 76s-67 -25 -76 -76l-36 -207h122z" />
    <glyph glyph-name="Ecaron.uni" horiz-adv-x="314" 
d="M279 256l-20 -109c-24 -133 -80 -160 -150 -160c-68 0 -120 26 -96 160l84 472c23 131 79 160 150 160c72 0 119 -30 96 -160l-43 -240h-184l-45 -259c-9 -50 8 -76 46 -76c34 0 66 20 76 76l24 136h62zM127 439h122l36 207c9 50 -8 76 -46 76s-67 -25 -76 -76zM294 841
h-70l-39 101h56l25 -62l50 62h53z" />
    <glyph glyph-name="uni1E40.uni" horiz-adv-x="487" 
d="M339 831c-25 0 -38 20 -34 43c4 24 26 43 50 43s40 -19 36 -43c-4 -23 -27 -43 -52 -43zM399 0h-62l113 642c10 57 -6 81 -38 81c-36 0 -65 -29 -74 -81l-113 -642h-62l113 642c10 56 -5 81 -39 81c-36 0 -64 -27 -74 -85l-112 -638h-62l135 766h51l-4 -52
c17 30 51 65 99 65c25 0 64 -10 72 -69c19 33 57 69 102 69c33 0 89 -19 68 -136z" />
    <glyph glyph-name="Ntilde.uni" horiz-adv-x="313" 
d="M225 0h-62l113 642c10 57 -6 81 -39 81c-36 0 -64 -27 -74 -85l-112 -638h-62l135 766h51l-4 -52c18 32 53 65 98 65c33 0 90 -17 69 -136zM306 903h58c-13 -39 -43 -63 -74 -63c-26 0 -38 17 -57 17c-12 0 -17 -7 -20 -16h-56c3 11 23 63 71 63c26 0 45 -15 60 -15
c14 0 18 14 18 14z" />
    <glyph glyph-name="Nacute.uni" horiz-adv-x="313" 
d="M225 0h-62l113 642c10 57 -6 81 -39 81c-36 0 -64 -27 -74 -85l-112 -638h-62l135 766h51l-4 -52c18 32 53 65 98 65c33 0 90 -17 69 -136zM277 841h-53l62 101h71z" />
    <glyph glyph-name="Ncaron.uni" horiz-adv-x="313" 
d="M225 0h-62l113 642c10 57 -6 81 -39 81c-36 0 -64 -27 -74 -85l-112 -638h-62l135 766h51l-4 -52c18 32 53 65 98 65c33 0 90 -17 69 -136zM293 841h-70l-39 101h56l25 -62l50 62h53z" />
    <glyph glyph-name="Ncommaaccent.uni" horiz-adv-x="313" 
d="M68 -156h-46l55 106h66zM225 0h-62l113 642c10 57 -6 81 -39 81c-36 0 -64 -27 -74 -85l-112 -638h-62l135 766h51l-4 -52c18 32 53 65 98 65c33 0 90 -17 69 -136z" />
    <glyph glyph-name="Eng.uni" horiz-adv-x="313" 
d="M73 -192h-4l10 57h4c28 0 59 20 69 76l124 701c11 61 -9 81 -40 81c-35 0 -63 -27 -73 -85l-112 -638h-62l135 766h51l-4 -52c18 32 53 65 98 65c34 0 90 -19 69 -136l-121 -687c-24 -135 -99 -148 -144 -148z" />
    <glyph glyph-name="OE.uni" horiz-adv-x="488" 
d="M366 120l24 136h62l-20 -109c-24 -129 -75 -160 -149 -160c-40 0 -71 9 -86 45c-27 -36 -60 -45 -95 -45c-65 0 -113 29 -90 160l84 472c23 131 79 160 145 160c36 0 65 -9 80 -45c27 36 62 45 100 45c67 0 119 -27 95 -160l-43 -240h-184l-45 -259c-9 -50 8 -76 46 -76
c34 0 66 20 76 76zM182 120l92 526c10 56 -13 76 -42 76c-28 0 -60 -20 -70 -76l-92 -526c-10 -56 13 -76 42 -76c28 0 60 20 70 76zM422 439l36 207c9 50 -8 76 -46 76s-67 -25 -76 -76l-36 -207h122z" />
    <glyph glyph-name="Ugrave.uni" horiz-adv-x="313" 
d="M225 0h-51l3 52c-17 -30 -52 -65 -98 -65c-30 0 -90 15 -69 136l114 643h62l-114 -642c-10 -57 6 -81 39 -81c36 0 64 27 74 85l113 638h62zM261 942l26 -101h-53l-44 101h71z" />
    <glyph glyph-name="Uacute.uni" horiz-adv-x="313" 
d="M225 0h-51l3 52c-17 -30 -52 -65 -98 -65c-30 0 -90 15 -69 136l114 643h62l-114 -642c-10 -57 6 -81 39 -81c36 0 64 27 74 85l113 638h62zM275 841h-53l62 101h71z" />
    <glyph glyph-name="Ucircumflex.uni" horiz-adv-x="313" 
d="M225 0h-51l3 52c-17 -30 -52 -65 -98 -65c-30 0 -90 15 -69 136l114 643h62l-114 -642c-10 -57 6 -81 39 -81c36 0 64 27 74 85l113 638h62zM347 841h-53l-28 62l-47 -62h-56l75 101h70z" />
    <glyph glyph-name="Udieresis.uni" horiz-adv-x="313" 
d="M225 0h-51l3 52c-17 -30 -52 -65 -98 -65c-30 0 -90 15 -69 136l114 643h62l-114 -642c-10 -57 6 -81 39 -81c36 0 64 27 74 85l113 638h62zM186 831c-25 0 -38 20 -34 43c4 24 26 43 50 43s40 -19 36 -43c-4 -23 -27 -43 -52 -43zM317 831c-25 0 -38 20 -34 43
c4 24 26 43 50 43s40 -19 36 -43c-4 -23 -27 -43 -52 -43z" />
    <glyph glyph-name="Utilde.uni" horiz-adv-x="313" 
d="M225 0h-51l3 52c-17 -30 -52 -65 -98 -65c-30 0 -90 15 -69 136l114 643h62l-114 -642c-10 -57 6 -81 39 -81c36 0 64 27 74 85l113 638h62zM306 903h58c-13 -39 -43 -63 -74 -63c-26 0 -38 17 -57 17c-12 0 -17 -7 -20 -16h-56c3 11 23 63 71 63c26 0 45 -15 60 -15
c14 0 18 14 18 14z" />
    <glyph glyph-name="Umacron.uni" horiz-adv-x="313" 
d="M225 0h-51l3 52c-17 -30 -52 -65 -98 -65c-30 0 -90 15 -69 136l114 643h62l-114 -642c-10 -57 6 -81 39 -81c36 0 64 27 74 85l113 638h62zM356 841h-202l9 50h202z" />
    <glyph glyph-name="Ubreve.uni" horiz-adv-x="313" 
d="M225 0h-51l3 52c-17 -30 -52 -65 -98 -65c-30 0 -90 15 -69 136l114 643h62l-114 -642c-10 -57 6 -81 39 -81c36 0 64 27 74 85l113 638h62zM322 924h39c-10 -58 -59 -88 -107 -88s-88 30 -78 88h40c-5 -31 13 -47 45 -47c31 0 56 16 61 47z" />
    <glyph glyph-name="Uring.uni" horiz-adv-x="313" 
d="M225 0h-51l3 52c-17 -30 -52 -65 -98 -65c-30 0 -90 15 -69 136l114 643h62l-114 -642c-10 -57 6 -81 39 -81c36 0 64 27 74 85l113 638h62zM298 882c3 20 -10 36 -30 36c-22 0 -39 -18 -42 -36c-4 -20 10 -36 30 -36c18 0 38 14 42 36zM251 818c-36 0 -59 28 -53 64
s39 64 75 64s59 -28 53 -64s-39 -64 -75 -64z" />
    <glyph glyph-name="Uhungarumlaut.uni" horiz-adv-x="313" 
d="M225 0h-51l3 52c-17 -30 -52 -65 -98 -65c-30 0 -90 15 -69 136l114 643h62l-114 -642c-10 -57 6 -81 39 -81c36 0 64 27 74 85l113 638h62zM219 841h-53l62 101h71zM321 841h-53l62 101h71z" />
    <glyph glyph-name="Uogonek.uni" horiz-adv-x="313" 
d="M205 -141l-27 -31c-60 7 -82 46 -74 87c5 29 25 60 68 81l5 56c-17 -29 -60 -65 -110 -65c-44 0 -77 27 -55 151l111 628h62l-114 -646c-10 -57 5 -77 31 -77c33 0 73 33 83 91l112 632h62l-135 -766c-33 -20 -65 -48 -71 -82c-6 -36 21 -51 52 -59z" />
    <glyph glyph-name="a.sc" horiz-adv-x="252" 
d="M197 0h-61l9 142h-86l-42 -142h-61l185 598h80zM147 199l18 311l-89 -311h71z" />
    <glyph glyph-name="b.sc" horiz-adv-x="270" 
d="M89 0h-106l105 597h103c68 0 96 -30 80 -123l-13 -77c-5 -30 -23 -76 -72 -90c43 -13 55 -51 47 -96l-15 -86c-18 -97 -59 -125 -129 -125zM196 395l15 85c7 40 -1 58 -33 58h-40l-35 -203h40c29 0 45 16 53 60zM155 119l18 98c8 45 -15 59 -41 59h-40l-38 -217h48
c33 0 46 20 53 60z" />
    <glyph glyph-name="c.sc" horiz-adv-x="264" 
d="M225 200l-15 -85c-17 -97 -68 -125 -126 -125c-59 0 -100 29 -83 125l65 368c17 97 69 125 128 125c57 0 98 -27 81 -123l-17 -95h-61l18 101c7 39 -5 60 -33 60c-29 0 -48 -24 -59 -87l-63 -358c-7 -41 9 -59 35 -59c29 0 46 23 56 80l13 73h61z" />
    <glyph glyph-name="d.sc" horiz-adv-x="269" 
d="M81 0h-98l105 597h98c70 0 102 -25 85 -124l-61 -348c-18 -103 -64 -125 -129 -125zM147 119l64 360c8 43 -4 59 -33 59h-40l-84 -479h40c33 0 46 20 53 60z" />
    <glyph glyph-name="e.sc" horiz-adv-x="237" 
d="M164 0h-181l105 597h181l-11 -59h-120l-36 -207h115l-11 -59h-115l-37 -213h120z" />
    <glyph glyph-name="f.sc" horiz-adv-x="233" 
d="M44 0h-61l105 597h181l-11 -59h-120l-36 -207h115l-11 -59h-115z" />
    <glyph glyph-name="g.sc" horiz-adv-x="275" 
d="M155 106l24 134h-52l10 58h113l-32 -183c-17 -97 -68 -125 -130 -125c-63 0 -104 29 -87 125l65 368c17 99 71 125 130 125c64 0 104 -30 87 -125l-17 -93h-61l18 101c8 43 -9 60 -36 60c-28 0 -51 -17 -59 -60l-68 -385c-7 -42 10 -59 38 -59c27 0 50 17 57 59z" />
    <glyph glyph-name="h.sc" horiz-adv-x="275" 
d="M192 0h-61l48 274h-87l-48 -274h-61l105 597h61l-47 -264h87l47 264h61z" />
    <glyph glyph-name="i.sc" horiz-adv-x="127" 
d="M44 0h-61l105 597h61z" />
    <glyph glyph-name="j.sc" horiz-adv-x="127" 
d="M-86 -150h-3l10 57h3c22 0 45 16 53 60l111 630h61l-111 -628c-17 -99 -77 -119 -124 -119z" />
    <glyph glyph-name="k.sc" horiz-adv-x="261" 
d="M216 0h-61l-58 299l148 298h61l-143 -296zM44 0h-61l105 597h61z" />
    <glyph glyph-name="l.sc" horiz-adv-x="187" 
d="M130 0h-147l105 597h61l-95 -538h86z" />
    <glyph glyph-name="m.sc" horiz-adv-x="391" 
d="M308 0h-61l86 471l-166 -471h-48l6 473l-81 -473h-61l105 597h96l-8 -423l141 423h96z" />
    <glyph glyph-name="n.sc" horiz-adv-x="302" 
d="M219 0h-72l-33 410l-70 -410h-61l105 597h68l35 -416l72 416h61z" />
    <glyph glyph-name="o.sc" horiz-adv-x="271" 
d="M1 115l65 368c17 99 71 125 128 125c59 0 98 -27 81 -125l-65 -368c-17 -97 -68 -125 -126 -125c-59 0 -100 29 -83 125zM147 106l68 385c8 43 -9 60 -32 60c-24 0 -47 -17 -55 -60l-68 -385c-7 -42 10 -59 34 -59c23 0 46 17 53 59z" />
    <glyph glyph-name="p.sc" horiz-adv-x="256" 
d="M44 0h-61l105 597h97c67 0 104 -23 86 -124l-17 -96c-17 -99 -58 -125 -128 -125h-38zM192 370l19 109c7 40 -1 59 -33 59h-40l-40 -227h40c29 0 46 16 54 59z" />
    <glyph glyph-name="q.sc" horiz-adv-x="271" 
d="M167 -83l-51 -23l-26 96c-10 0 -22 2 -31 4c-44 9 -73 36 -58 121l65 368c16 91 63 125 128 125c60 0 98 -29 81 -125l-65 -368c-11 -62 -34 -94 -68 -111zM147 106l68 385c8 43 -9 60 -32 60c-24 0 -47 -17 -55 -60l-68 -385c-7 -42 10 -59 34 -59c23 0 46 17 53 59z
" />
    <glyph glyph-name="r.sc" horiz-adv-x="264" 
d="M204 0h-61l-26 254h-29l-44 -254h-61l105 597h99c69 0 101 -25 84 -124l-16 -93c-11 -63 -32 -102 -78 -116zM192 373l19 106c8 43 -4 59 -33 59h-40l-39 -225h40c33 0 46 20 53 60z" />
    <glyph glyph-name="s.sc" horiz-adv-x="259" 
d="M217 186l-12 -67c-16 -90 -57 -129 -126 -129c-70 0 -99 41 -83 129l15 81h61l-17 -94c-8 -46 15 -59 35 -59c28 0 46 24 55 75l9 52c13 76 -127 123 -106 239l14 75c18 98 76 120 127 120c48 0 99 -19 81 -121l-17 -98h-61l18 102c8 45 -10 60 -33 60
c-27 0 -47 -20 -57 -76l-9 -52c-17 -100 126 -126 106 -237z" />
    <glyph glyph-name="t.sc" horiz-adv-x="223" 
d="M92 0h-61l94 538h-74l11 59h209l-11 -59h-74z" />
    <glyph glyph-name="u.sc" horiz-adv-x="275" 
d="M149 106l87 491h61l-85 -482c-17 -97 -68 -125 -126 -125c-59 0 -100 29 -83 125l85 482h61l-87 -491c-7 -42 10 -59 34 -59c23 0 46 17 53 59z" />
    <glyph glyph-name="v.sc" horiz-adv-x="242" 
d="M289 597l-178 -597h-80l32 597h61l-38 -511l142 511h61z" />
    <glyph glyph-name="w.sc" horiz-adv-x="408" 
d="M453 597l-170 -597h-79l30 463l-131 -463h-78l39 597h61l-41 -481l137 481h75l-33 -481l129 481h61z" />
    <glyph glyph-name="x.sc" horiz-adv-x="262" 
d="M210 0h-61l-25 234l-114 -234h-61l157 307l-47 290h61l30 -213l102 213h61l-139 -290z" />
    <glyph glyph-name="y.sc" horiz-adv-x="254" 
d="M107 0h-60l38 217l-24 380h62l9 -282l109 282h62l-158 -380z" />
    <glyph glyph-name="z.sc" horiz-adv-x="225" 
d="M161 0h-197l10 59l209 479h-118l11 59h190l-5 -25l-224 -513h134z" />
    <glyph glyph-name="ff.sc" horiz-adv-x="466" 
d="M44 0h-61l105 597h181l-11 -59h-120l-36 -207h115l-11 -59h-115zM277 0h-61l105 597h181l-11 -59h-120l-36 -207h115l-11 -59h-115z" />
    <glyph glyph-name="fi.sc" horiz-adv-x="360" 
d="M44 0h-61l105 597h181l-11 -59h-120l-36 -207h115l-11 -59h-115zM277 0h-61l105 597h61z" />
    <glyph glyph-name="f_j.sc" horiz-adv-x="360" 
d="M44 0h-61l105 597h181l-11 -59h-120l-36 -207h115l-11 -59h-115zM147 -150h-3l10 57h3c22 0 45 16 53 60l111 630h61l-111 -628c-17 -99 -77 -119 -124 -119z" />
    <glyph glyph-name="fl.sc" horiz-adv-x="420" 
d="M44 0h-61l105 597h181l-11 -59h-120l-36 -207h115l-11 -59h-115zM363 0h-147l105 597h61l-95 -538h86z" />
    <glyph glyph-name="f_t.sc" horiz-adv-x="456" 
d="M44 0h-61l105 597h181l-11 -59h-120l-36 -207h115l-11 -59h-115zM325 0h-61l94 538h-74l11 59h209l-11 -59h-74z" />
    <glyph glyph-name="ffi.sc" horiz-adv-x="593" 
d="M44 0h-61l105 597h181l-11 -59h-120l-36 -207h115l-11 -59h-115zM277 0h-61l105 597h181l-11 -59h-120l-36 -207h115l-11 -59h-115zM510 0h-61l105 597h61z" />
    <glyph glyph-name="ffl.sc" horiz-adv-x="653" 
d="M44 0h-61l105 597h181l-11 -59h-120l-36 -207h115l-11 -59h-115zM277 0h-61l105 597h181l-11 -59h-120l-36 -207h115l-11 -59h-115zM596 0h-147l105 597h61l-95 -538h86z" />
    <glyph glyph-name="germandbls.sc" horiz-adv-x="518" 
d="M217 186l-12 -67c-16 -90 -57 -129 -126 -129c-70 0 -99 41 -83 129l15 81h61l-17 -94c-8 -46 15 -59 35 -59c28 0 46 24 55 75l9 52c13 76 -127 123 -106 239l14 75c18 98 76 120 127 120c48 0 99 -19 81 -121l-17 -98h-61l18 102c8 45 -10 60 -33 60
c-27 0 -47 -20 -57 -76l-9 -52c-17 -100 126 -126 106 -237zM476 186l-12 -67c-16 -90 -57 -129 -126 -129c-70 0 -99 41 -83 129l15 81h61l-17 -94c-8 -46 15 -59 35 -59c28 0 46 24 55 75l9 52c13 76 -127 123 -106 239l14 75c18 98 76 120 127 120c48 0 99 -19 81 -121
l-17 -98h-61l18 102c8 45 -10 60 -33 60c-27 0 -47 -20 -57 -76l-9 -52c-17 -100 126 -126 106 -237z" />
    <glyph glyph-name="agrave.sc" horiz-adv-x="252" 
d="M197 0h-61l9 142h-86l-42 -142h-61l185 598h80zM147 199l18 311l-89 -311h71zM221 654h-47l-43 88h68z" />
    <glyph glyph-name="aacute.sc" horiz-adv-x="252" 
d="M197 0h-61l9 142h-86l-42 -142h-61l185 598h80zM147 199l18 311l-89 -311h71zM207 654h-48l54 88h68z" />
    <glyph glyph-name="acircumflex.sc" horiz-adv-x="252" 
d="M197 0h-61l9 142h-86l-42 -142h-61l185 598h80zM147 199l18 311l-89 -311h71zM271 654h-49l-22 53l-39 -53h-52l67 92h61z" />
    <glyph glyph-name="atilde.sc" horiz-adv-x="252" 
d="M197 0h-61l9 142h-86l-42 -142h-61l185 598h80zM147 199l18 311l-89 -311h71zM238 713h48c-10 -35 -34 -59 -63 -59c-22 0 -33 14 -51 14c-9 0 -16 -4 -19 -14h-47c5 22 24 59 62 59c22 0 38 -13 52 -13c10 0 17 7 18 13z" />
    <glyph glyph-name="adieresis.sc" horiz-adv-x="252" 
d="M197 0h-61l9 142h-86l-42 -142h-61l185 598h80zM147 199l18 311l-89 -311h71zM132 646c-21 0 -36 17 -32 39s25 39 46 39s36 -17 32 -39s-25 -39 -46 -39zM246 646c-21 0 -35 17 -31 39s24 39 45 39c22 0 36 -17 32 -39s-24 -39 -46 -39z" />
    <glyph glyph-name="aring.sc" horiz-adv-x="252" 
d="M197 0h-61l9 142h-86l-42 -142h-61l185 598h80zM147 199l18 311l-89 -311h71zM224 689c2 15 -8 27 -23 27c-16 0 -28 -13 -30 -27c-3 -15 6 -26 21 -26s29 11 32 26zM186 632c-32 0 -52 25 -46 57c6 33 35 57 66 57s54 -24 48 -57c-6 -32 -36 -57 -68 -57z" />
    <glyph glyph-name="amacron.sc" horiz-adv-x="252" 
d="M197 0h-61l9 142h-86l-42 -142h-61l185 598h80zM147 199l18 311l-89 -311h71zM279 654h-177l9 49h177z" />
    <glyph glyph-name="abreve.sc" horiz-adv-x="252" 
d="M197 0h-61l9 142h-86l-42 -142h-61l185 598h80zM147 199l18 311l-89 -311h71zM249 729h36c-10 -51 -48 -80 -95 -80s-74 29 -65 80h36c-4 -23 7 -38 37 -38c29 0 45 15 51 38z" />
    <glyph glyph-name="aogonek.sc" horiz-adv-x="251" 
d="M175 -115l-26 -31c-52 5 -75 39 -69 76c4 24 21 49 56 66l8 146h-85l-42 -142h-61l185 598h80l-24 -598c-41 -14 -61 -41 -65 -65c-4 -26 11 -42 43 -50zM147 199l18 311l-89 -311h71z" />
    <glyph glyph-name="ae.sc" horiz-adv-x="385" 
d="M312 0h-181l25 142h-86l-61 -142h-60l258 597h210l-11 -59h-120l-36 -207h115l-11 -59h-115l-37 -213h120zM166 200l53 304l-124 -304h71z" />
    <glyph glyph-name="aeacute.sc" horiz-adv-x="385" 
d="M312 0h-181l25 142h-86l-61 -142h-60l258 597h210l-11 -59h-120l-36 -207h115l-11 -59h-115l-37 -213h120zM166 200l53 304l-124 -304h71zM335 654h-48l54 88h68z" />
    <glyph glyph-name="uni1E03.sc" horiz-adv-x="270" 
d="M89 0h-106l105 597h103c68 0 96 -30 80 -123l-13 -77c-5 -30 -23 -76 -72 -90c43 -13 55 -51 47 -96l-15 -86c-18 -97 -59 -125 -129 -125zM196 395l15 85c7 40 -1 58 -33 58h-40l-35 -203h40c29 0 45 16 53 60zM155 119l18 98c8 45 -15 59 -41 59h-40l-38 -217h48
c33 0 46 20 53 60zM191 648c-21 0 -36 17 -32 39c4 21 25 38 46 38s36 -17 32 -38c-4 -22 -25 -39 -46 -39z" />
    <glyph glyph-name="ccedilla.sc" horiz-adv-x="264" 
d="M8 -129l15 35c4 -3 15 -7 26 -7c19 0 32 12 34 25c2 12 -6 24 -28 24c-2 0 -5 0 -8 -1l19 44c-49 6 -80 38 -65 124l65 368c17 97 69 125 128 125c57 0 98 -27 81 -123l-17 -95h-61l18 101c8 43 -9 60 -32 60c-24 0 -47 -17 -55 -60l-68 -385c-7 -42 10 -59 34 -59
c23 0 46 17 53 59l17 94h61l-15 -85c-15 -84 -56 -116 -102 -123l-12 -28c27 0 42 -22 38 -46c-5 -30 -35 -57 -80 -57c-17 0 -34 4 -46 10z" />
    <glyph glyph-name="ccircumflex.sc" horiz-adv-x="264" 
d="M225 200l-15 -85c-17 -97 -68 -125 -126 -125c-59 0 -100 29 -83 125l65 368c17 97 69 125 128 125c57 0 98 -27 81 -123l-17 -95h-61l18 101c7 39 -5 60 -33 60c-29 0 -48 -24 -59 -87l-63 -358c-7 -41 9 -59 35 -59c29 0 46 23 56 80l13 73h61zM281 654h-49l-22 53
l-39 -53h-52l67 92h61z" />
    <glyph glyph-name="cacute.sc" horiz-adv-x="264" 
d="M225 200l-15 -85c-17 -97 -68 -125 -126 -125c-59 0 -100 29 -83 125l65 368c17 97 69 125 128 125c57 0 98 -27 81 -123l-17 -95h-61l18 101c7 39 -5 60 -33 60c-29 0 -48 -24 -59 -87l-63 -358c-7 -41 9 -59 35 -59c29 0 46 23 56 80l13 73h61zM214 654h-48l54 88h68z
" />
    <glyph glyph-name="cdotaccent.sc" horiz-adv-x="264" 
d="M225 200l-15 -85c-17 -97 -68 -125 -126 -125c-59 0 -100 29 -83 125l65 368c17 97 69 125 128 125c57 0 98 -27 81 -123l-17 -95h-61l18 101c7 39 -5 60 -33 60c-29 0 -48 -24 -59 -87l-63 -358c-7 -41 9 -59 35 -59c29 0 46 23 56 80l13 73h61zM199 648
c-21 0 -36 17 -32 39c4 21 25 38 46 38s36 -17 32 -38c-4 -22 -25 -39 -46 -39z" />
    <glyph glyph-name="ccaron.sc" horiz-adv-x="264" 
d="M225 200l-15 -85c-17 -97 -68 -125 -126 -125c-59 0 -100 29 -83 125l65 368c17 97 69 125 128 125c57 0 98 -27 81 -123l-17 -95h-61l18 101c7 39 -5 60 -33 60c-29 0 -48 -24 -59 -87l-63 -358c-7 -41 9 -59 35 -59c29 0 46 23 56 80l13 73h61zM230 654h-61l-34 92h51
l21 -53l40 53h50z" />
    <glyph glyph-name="dcaron.sc" horiz-adv-x="269" 
d="M81 0h-98l105 597h98c70 0 102 -25 85 -124l-61 -348c-18 -103 -64 -125 -129 -125zM147 119l64 360c8 43 -4 59 -33 59h-40l-84 -479h40c33 0 46 20 53 60zM223 654h-61l-34 92h51l21 -53l40 53h50z" />
    <glyph glyph-name="dcroat.sc" horiz-adv-x="270" 
d="M82 0h-98l47 272h-29l11 59h29l47 266h98c70 0 102 -25 85 -124l-61 -348c-18 -103 -64 -125 -129 -125zM148 116l64 365c8 44 -3 59 -32 59h-40l-37 -209h45l-11 -59h-45l-37 -215h40c29 0 45 16 53 59z" />
    <glyph glyph-name="uni1E0B.sc" horiz-adv-x="269" 
d="M81 0h-98l105 597h98c70 0 102 -25 85 -124l-61 -348c-18 -103 -64 -125 -129 -125zM147 119l64 360c8 43 -4 59 -33 59h-40l-84 -479h40c33 0 46 20 53 60zM192 648c-21 0 -36 17 -32 39c4 21 25 38 46 38s36 -17 32 -38c-4 -22 -25 -39 -46 -39z" />
    <glyph glyph-name="eth.sc" horiz-adv-x="270" 
d="M82 0h-98l47 272h-29l11 59h29l47 266h98c70 0 102 -25 85 -124l-61 -348c-18 -103 -64 -125 -129 -125zM148 116l64 365c8 44 -3 59 -32 59h-40l-37 -209h45l-11 -59h-45l-37 -215h40c29 0 45 16 53 59z" />
    <glyph glyph-name="egrave.sc" horiz-adv-x="237" 
d="M164 0h-181l105 597h181l-11 -59h-120l-36 -207h115l-11 -59h-115l-37 -213h120zM223 654h-47l-43 88h68z" />
    <glyph glyph-name="eacute.sc" horiz-adv-x="237" 
d="M164 0h-181l105 597h181l-11 -59h-120l-36 -207h115l-11 -59h-115l-37 -213h120zM200 654h-48l54 88h68z" />
    <glyph glyph-name="ecircumflex.sc" horiz-adv-x="237" 
d="M164 0h-181l105 597h181l-11 -59h-120l-36 -207h115l-11 -59h-115l-37 -213h120zM267 654h-49l-22 53l-39 -53h-52l67 92h61z" />
    <glyph glyph-name="edieresis.sc" horiz-adv-x="238" 
d="M165 0h-181l105 597h181l-11 -59h-120l-36 -207h115l-11 -59h-115l-37 -213h120zM129 646c-21 0 -36 17 -32 39s25 39 46 39s36 -17 32 -39s-25 -39 -46 -39zM243 646c-21 0 -35 17 -31 39s24 39 45 39c22 0 36 -17 32 -39s-24 -39 -46 -39z" />
    <glyph glyph-name="emacron.sc" horiz-adv-x="237" 
d="M164 0h-181l105 597h181l-11 -59h-120l-36 -207h115l-11 -59h-115l-37 -213h120zM275 654h-177l9 49h177z" />
    <glyph glyph-name="ebreve.sc" horiz-adv-x="237" 
d="M164 0h-181l105 597h181l-11 -59h-120l-36 -207h115l-11 -59h-115l-37 -213h120zM245 729h36c-10 -51 -48 -80 -95 -80s-74 29 -65 80h36c-4 -23 7 -38 37 -38c29 0 45 15 51 38z" />
    <glyph glyph-name="edotaccent.sc" horiz-adv-x="237" 
d="M164 0h-181l105 597h181l-11 -59h-120l-36 -207h115l-11 -59h-115l-37 -213h120zM187 648c-21 0 -36 17 -32 39c4 21 25 38 46 38s36 -17 32 -38c-4 -22 -25 -39 -46 -39z" />
    <glyph glyph-name="eogonek.sc" horiz-adv-x="236" 
d="M127 -115l-26 -31c-47 4 -75 37 -68 76c4 22 21 51 62 70h-112l105 597h181l-11 -59h-120l-36 -207h115l-11 -59h-115l-37 -213h120l-10 -59h-23c-29 -17 -52 -40 -56 -65c-5 -27 13 -43 42 -50z" />
    <glyph glyph-name="ecaron.sc" horiz-adv-x="237" 
d="M164 0h-181l105 597h181l-11 -59h-120l-36 -207h115l-11 -59h-115l-37 -213h120zM219 654h-61l-34 92h51l21 -53l40 53h50z" />
    <glyph glyph-name="uni1E1F.sc" horiz-adv-x="233" 
d="M44 0h-61l105 597h181l-11 -59h-120l-36 -207h115l-11 -59h-115zM189 648c-21 0 -36 17 -32 39c4 21 25 38 46 38s36 -17 32 -38c-4 -22 -25 -39 -46 -39z" />
    <glyph glyph-name="gcircumflex.sc" horiz-adv-x="275" 
d="M155 106l24 134h-52l10 58h113l-32 -183c-17 -97 -68 -125 -130 -125c-63 0 -104 29 -87 125l65 368c17 99 71 125 130 125c64 0 104 -30 87 -125l-17 -93h-61l18 101c8 43 -9 60 -36 60c-28 0 -51 -17 -59 -60l-68 -385c-7 -42 10 -59 38 -59c27 0 50 17 57 59zM285 654
h-49l-22 53l-39 -53h-52l67 92h61z" />
    <glyph glyph-name="gbreve.sc" horiz-adv-x="275" 
d="M155 106l24 134h-52l10 58h113l-32 -183c-17 -97 -68 -125 -130 -125c-63 0 -104 29 -87 125l65 368c17 99 71 125 130 125c64 0 104 -30 87 -125l-17 -93h-61l18 101c8 43 -9 60 -36 60c-28 0 -51 -17 -59 -60l-68 -385c-7 -42 10 -59 38 -59c27 0 50 17 57 59zM263 729
h36c-10 -51 -48 -80 -95 -80s-74 29 -65 80h36c-4 -23 7 -38 37 -38c29 0 45 15 51 38z" />
    <glyph glyph-name="gdotaccent.sc" horiz-adv-x="275" 
d="M155 106l24 134h-52l10 58h113l-32 -183c-17 -97 -68 -125 -130 -125c-63 0 -104 29 -87 125l65 368c17 99 71 125 130 125c64 0 104 -30 87 -125l-17 -93h-61l18 101c8 43 -9 60 -36 60c-28 0 -51 -17 -59 -60l-68 -385c-7 -42 10 -59 38 -59c27 0 50 17 57 59zM203 648
c-21 0 -36 17 -32 39c4 21 25 38 46 38s36 -17 32 -38c-4 -22 -25 -39 -46 -39z" />
    <glyph glyph-name="gcommaaccent.sc" horiz-adv-x="275" 
d="M155 106l24 134h-52l10 58h113l-32 -183c-17 -97 -68 -125 -130 -125c-63 0 -104 29 -87 125l65 368c17 99 71 125 130 125c64 0 104 -30 87 -125l-17 -93h-61l18 101c8 43 -9 60 -36 60c-28 0 -51 -17 -59 -60l-68 -385c-7 -42 10 -59 38 -59c27 0 50 17 57 59zM58 -137
h-45l51 98h65z" />
    <glyph glyph-name="hcircumflex.sc" horiz-adv-x="275" 
d="M192 0h-61l48 274h-87l-48 -274h-61l105 597h61l-47 -264h87l47 264h61zM283 654h-49l-22 53l-39 -53h-52l67 92h61z" />
    <glyph glyph-name="hbar.sc" horiz-adv-x="277" 
d="M193 0h-61l48 274h-87l-48 -274h-61l80 455h-28l9 51h28l16 91h61l-16 -91h87l16 91h61l-16 -91h28l-9 -51h-28zM190 333l22 122h-87l-22 -122h87z" />
    <glyph glyph-name="uni1E23.sc" horiz-adv-x="275" 
d="M192 0h-61l48 274h-87l-48 -274h-61l105 597h61l-47 -264h87l47 264h61zM201 648c-21 0 -36 17 -32 39c4 21 25 38 46 38s36 -17 32 -38c-4 -22 -25 -39 -46 -39z" />
    <glyph glyph-name="igrave.sc" horiz-adv-x="128" 
d="M45 0h-61l105 597h61zM160 654h-47l-43 88h68z" />
    <glyph glyph-name="iacute.sc" horiz-adv-x="128" 
d="M44 0h-61l105 597h61zM145 654h-48l54 88h68z" />
    <glyph glyph-name="icircumflex.sc" horiz-adv-x="129" 
d="M45 0h-61l105 597h61zM210 654h-49l-22 53l-39 -53h-52l67 92h61z" />
    <glyph glyph-name="idieresis.sc" horiz-adv-x="129" 
d="M45 0h-61l105 597h61zM72 646c-21 0 -36 17 -32 39s25 39 46 39s36 -17 32 -39s-25 -39 -46 -39zM186 646c-21 0 -35 17 -31 39s24 39 45 39c22 0 36 -17 32 -39s-24 -39 -46 -39z" />
    <glyph glyph-name="itilde.sc" horiz-adv-x="129" 
d="M45 0h-61l105 597h61zM177 713h48c-10 -35 -34 -59 -63 -59c-22 0 -33 14 -51 14c-9 0 -16 -4 -19 -14h-47c5 22 24 59 62 59c22 0 38 -13 52 -13c10 0 17 7 18 13z" />
    <glyph glyph-name="imacron.sc" horiz-adv-x="129" 
d="M45 0h-61l105 597h61zM218 654h-177l9 49h177z" />
    <glyph glyph-name="ibreve.sc" horiz-adv-x="129" 
d="M45 0h-61l105 597h61zM188 729h36c-10 -51 -48 -80 -95 -80s-74 29 -65 80h36c-4 -23 7 -38 37 -38c29 0 45 15 51 38z" />
    <glyph glyph-name="iogonek.sc" horiz-adv-x="127" 
d="M28 -115l-25 -31c-52 5 -74 39 -68 76c4 24 20 47 46 63l107 604h61l-105 -597c-32 -18 -54 -40 -58 -65c-4 -26 11 -42 42 -50z" />
    <glyph glyph-name="dotlessi.sc" horiz-adv-x="127" 
d="M44 0h-61l105 597h61z" />
    <glyph glyph-name="idotaccent.sc" horiz-adv-x="129" 
d="M45 0h-61l105 597h61zM128 648c-21 0 -36 17 -32 39c4 21 25 38 46 38s36 -17 32 -38c-4 -22 -25 -39 -46 -39z" />
    <glyph glyph-name="ij.sc" horiz-adv-x="254" 
d="M44 0h-61l105 597h61zM41 -150h-3l10 57h3c22 0 45 16 53 60l111 630h61l-111 -628c-17 -99 -77 -119 -124 -119z" />
    <glyph glyph-name="jcircumflex.sc" horiz-adv-x="129" 
d="M-85 -150h-3l10 57h3c22 0 45 16 53 60l111 630h61l-111 -628c-17 -99 -77 -119 -124 -119zM210 654h-49l-22 53l-39 -53h-52l67 92h61z" />
    <glyph glyph-name="dotlessj.sc" horiz-adv-x="127" 
d="M-86 -150h-3l10 57h3c22 0 45 16 53 60l111 630h61l-111 -628c-17 -99 -77 -119 -124 -119z" />
    <glyph glyph-name="kcommaaccent.sc" horiz-adv-x="261" 
d="M216 0h-61l-58 299l148 298h61l-143 -296zM44 0h-61l105 597h61zM60 -137h-45l51 98h65z" />
    <glyph glyph-name="kgreenlandic.sc" horiz-adv-x="261" 
d="M216 0h-61l-58 299l148 298h61l-143 -296zM44 0h-61l105 597h61z" />
    <glyph glyph-name="lslash.sc" horiz-adv-x="202" 
d="M144 0h-146l37 214l-33 -17l-18 48l62 31l57 321h61l-51 -287l49 25l17 -48l-77 -40l-33 -188h85z" />
    <glyph glyph-name="lacute.sc" horiz-adv-x="187" 
d="M130 0h-147l105 597h61l-95 -538h86zM150 654h-48l54 88h68z" />
    <glyph glyph-name="ldot.sc" horiz-adv-x="224" 
d="M220 244c-22 0 -37 17 -34 39c4 23 26 39 47 39s36 -17 32 -39c-3 -21 -23 -39 -45 -39zM130 0h-147l105 597h61l-95 -538h86z" />
    <glyph glyph-name="lcommaaccent.sc" horiz-adv-x="187" 
d="M130 0h-147l105 597h61l-95 -538h86zM21 -137h-45l51 98h65z" />
    <glyph glyph-name="lcaron.sc" horiz-adv-x="223" 
d="M193 420h-39l58 177h70zM130 0h-147l105 597h61l-95 -538h86z" />
    <glyph glyph-name="uni1E41.sc" horiz-adv-x="391" 
d="M308 0h-61l86 471l-166 -471h-48l6 473l-81 -473h-61l105 597h96l-8 -423l141 423h96zM259 648c-21 0 -36 17 -32 39c4 21 25 38 46 38s36 -17 32 -38c-4 -22 -25 -39 -46 -39z" />
    <glyph glyph-name="ntilde.sc" horiz-adv-x="302" 
d="M219 0h-72l-33 410l-70 -410h-61l105 597h68l35 -416l72 416h61zM267 713h48c-10 -35 -34 -59 -63 -59c-22 0 -33 14 -51 14c-9 0 -16 -4 -19 -14h-47c5 22 24 59 62 59c22 0 38 -13 52 -13c10 0 17 7 18 13z" />
    <glyph glyph-name="nacute.sc" horiz-adv-x="302" 
d="M219 0h-72l-33 410l-70 -410h-61l105 597h68l35 -416l72 416h61zM236 654h-48l54 88h68z" />
    <glyph glyph-name="ncommaaccent.sc" horiz-adv-x="302" 
d="M219 0h-72l-33 410l-70 -410h-61l105 597h68l35 -416l72 416h61zM72 -137h-45l51 98h65z" />
    <glyph glyph-name="ncaron.sc" horiz-adv-x="302" 
d="M219 0h-72l-33 410l-70 -410h-61l105 597h68l35 -416l72 416h61zM249 654h-61l-34 92h51l21 -53l40 53h50z" />
    <glyph glyph-name="eng.sc" horiz-adv-x="302" 
d="M87 -152h-2l10 57h2c20 0 46 13 54 59l7 39l-43 407l-71 -410h-61l105 597h68l37 -401l70 401h61l-111 -630c-18 -99 -78 -119 -126 -119z" />
    <glyph glyph-name="ograve.sc" horiz-adv-x="271" 
d="M1 115l65 368c17 99 71 125 128 125c59 0 98 -27 81 -125l-65 -368c-17 -97 -68 -125 -126 -125c-59 0 -100 29 -83 125zM147 106l68 385c8 43 -9 60 -32 60c-24 0 -47 -17 -55 -60l-68 -385c-7 -42 10 -59 34 -59c23 0 46 17 53 59zM231 654h-47l-43 88h68z" />
    <glyph glyph-name="oacute.sc" horiz-adv-x="271" 
d="M1 115l65 368c17 99 71 125 128 125c59 0 98 -27 81 -125l-65 -368c-17 -97 -68 -125 -126 -125c-59 0 -100 29 -83 125zM147 106l68 385c8 43 -9 60 -32 60c-24 0 -47 -17 -55 -60l-68 -385c-7 -42 10 -59 34 -59c23 0 46 17 53 59zM216 654h-48l54 88h68z" />
    <glyph glyph-name="ocircumflex.sc" horiz-adv-x="271" 
d="M1 115l65 368c17 99 71 125 128 125c59 0 98 -27 81 -125l-65 -368c-17 -97 -68 -125 -126 -125c-59 0 -100 29 -83 125zM147 106l68 385c8 43 -9 60 -32 60c-24 0 -47 -17 -55 -60l-68 -385c-7 -42 10 -59 34 -59c23 0 46 17 53 59zM281 654h-49l-22 53l-39 -53h-52
l67 92h61z" />
    <glyph glyph-name="otilde.sc" horiz-adv-x="271" 
d="M1 115l65 368c17 99 71 125 128 125c59 0 98 -27 81 -125l-65 -368c-17 -97 -68 -125 -126 -125c-59 0 -100 29 -83 125zM147 106l68 385c8 43 -9 60 -32 60c-24 0 -47 -17 -55 -60l-68 -385c-7 -42 10 -59 34 -59c23 0 46 17 53 59zM248 713h48c-10 -35 -34 -59 -63 -59
c-22 0 -33 14 -51 14c-9 0 -16 -4 -19 -14h-47c5 22 24 59 62 59c22 0 38 -13 52 -13c10 0 17 7 18 13z" />
    <glyph glyph-name="odieresis.sc" horiz-adv-x="271" 
d="M1 115l65 368c17 99 71 125 128 125c59 0 98 -27 81 -125l-65 -368c-17 -97 -68 -125 -126 -125c-59 0 -100 29 -83 125zM147 106l68 385c8 43 -9 60 -32 60c-24 0 -47 -17 -55 -60l-68 -385c-7 -42 10 -59 34 -59c23 0 46 17 53 59zM142 646c-21 0 -36 17 -32 39
s25 39 46 39s36 -17 32 -39s-25 -39 -46 -39zM256 646c-21 0 -35 17 -31 39s24 39 45 39c22 0 36 -17 32 -39s-24 -39 -46 -39z" />
    <glyph glyph-name="omacron.sc" horiz-adv-x="271" 
d="M1 115l65 368c17 99 71 125 128 125c59 0 98 -27 81 -125l-65 -368c-17 -97 -68 -125 -126 -125c-59 0 -100 29 -83 125zM147 106l68 385c8 43 -9 60 -32 60c-24 0 -47 -17 -55 -60l-68 -385c-7 -42 10 -59 34 -59c23 0 46 17 53 59zM289 654h-177l9 49h177z" />
    <glyph glyph-name="obreve.sc" horiz-adv-x="271" 
d="M1 115l65 368c17 99 71 125 128 125c59 0 98 -27 81 -125l-65 -368c-17 -97 -68 -125 -126 -125c-59 0 -100 29 -83 125zM147 106l68 385c8 43 -9 60 -32 60c-24 0 -47 -17 -55 -60l-68 -385c-7 -42 10 -59 34 -59c23 0 46 17 53 59zM258 729h36c-10 -51 -48 -80 -95 -80
s-74 29 -65 80h36c-4 -23 7 -38 37 -38c29 0 45 15 51 38z" />
    <glyph glyph-name="ohungarumlaut.sc" horiz-adv-x="271" 
d="M1 115l65 368c17 99 71 125 128 125c59 0 98 -27 81 -125l-65 -368c-17 -97 -68 -125 -126 -125c-59 0 -100 29 -83 125zM147 106l68 385c8 43 -9 60 -32 60c-24 0 -47 -17 -55 -60l-68 -385c-7 -42 10 -59 34 -59c23 0 46 17 53 59zM169 654h-51l50 90h65zM259 654h-50
l50 90h65z" />
    </font>
</defs>
</svg>
